# 3ds Max Wavefront OBJ Exporter v0.94b - (c)2007 guruware
# File Created: 23.09.2010 15:57:48

mtllib L22-origo.mtl

#
# object L22
#

v  542285.3626 6589262.4717 23.9252
v  542285.3626 6589262.4717 24.7554
v  542278.5437 6589248.894 24.7554
v  542278.5437 6589248.894 15.6903
v  542285.3626 6589262.4717 15.6903
v  542268.0033 6589255.1223 24.3473
v  542267.4391 6589255.4254 24.7541
v  542288.3473 6589268.4146 24.7554
v  542278.1173 6589274.3688 24.2977
v  542277.553 6589274.672 24.6975
v  542275.3016 6589269.0105 24.3119
v  542275.1776 6589269.0756 24.3331
v  542274.6133 6589269.3788 24.7258
v  542274.7373 6589269.3137 24.7258
v  542271.9671 6589262.9661 24.3402
v  542272.0911 6589262.901 24.3402
v  542271.5268 6589263.2042 24.7400
v  542271.4028 6589263.2693 24.7400
v  542273.0517 6589252.1614 27.1893
v  542277.1394 6589259.9402 27.1752
v  542274.2838 6589268.3427 24.8381
v  542272.0674 6589264.1259 24.8477
v  542273.176 6589266.2352 25.7779
v  542273.0081 6589266.3241 26.0785
v  542276.4093 6589264.5003 26.0801
v  542280.3499 6589266.0497 27.1610
v  542283.1656 6589271.408 27.1326
v  542278.1173 6589274.3688 15.7186
v  542277.7109 6589273.5953 15.7186
v  542277.7109 6589273.5953 16.5978
v  542278.1173 6589274.3688 16.5978
v  542277.1563 6589272.54 15.7186
v  542276.605 6589271.4909 15.7186
v  542276.605 6589271.4909 16.5978
v  542277.1563 6589272.54 16.5978
v  542276.0133 6589270.365 15.7186
v  542276.0133 6589270.365 16.5978
v  542275.4626 6589269.3168 15.7186
v  542275.4626 6589269.3168 16.5978
v  542275.3016 6589269.0105 15.7186
v  542275.3016 6589269.0105 16.5978
v  542277.7109 6589273.5953 18.4838
v  542278.1173 6589274.3688 18.4838
v  542277.3422 6589272.4423 16.5978
v  542276.7909 6589271.3932 16.5978
v  542276.7909 6589271.3932 18.4838
v  542277.3422 6589272.4423 18.4838
v  542276.0133 6589270.365 18.4838
v  542276.605 6589271.4909 18.4838
v  542276.1992 6589270.2673 16.5978
v  542275.6484 6589269.2192 16.5978
v  542275.6484 6589269.2192 18.4838
v  542276.1992 6589270.2673 18.4838
v  542275.3016 6589269.0105 18.4838
v  542275.4626 6589269.3168 18.4838
v  542277.7109 6589273.5953 20.2964
v  542278.1173 6589274.3688 20.2964
v  542277.1563 6589272.54 18.4838
v  542276.605 6589271.4909 20.2964
v  542277.1563 6589272.54 20.2964
v  542276.0133 6589270.365 20.2964
v  542275.4626 6589269.3168 20.2964
v  542275.3016 6589269.0105 20.2964
v  542277.7109 6589273.5953 22.6000
v  542278.1173 6589274.3688 22.6000
v  542277.3422 6589272.4423 20.2964
v  542276.7909 6589271.3932 20.2964
v  542276.7909 6589271.3932 22.6000
v  542277.3422 6589272.4423 22.6000
v  542276.0133 6589270.365 22.6000
v  542276.605 6589271.4909 22.6000
v  542276.1992 6589270.2673 20.2964
v  542275.6484 6589269.2192 20.2964
v  542275.6484 6589269.2192 22.6000
v  542276.1992 6589270.2673 22.6000
v  542275.3016 6589269.0105 22.6000
v  542275.4626 6589269.3168 22.6000
v  542277.7109 6589273.5953 24.2977
v  542277.1563 6589272.54 22.6000
v  542276.605 6589271.4909 24.2977
v  542277.1563 6589272.54 24.2977
v  542276.0133 6589270.365 24.2977
v  542275.4626 6589269.3168 24.2977
v  542275.1776 6589269.0756 15.7186
v  542274.7725 6589268.3047 15.7186
v  542274.7725 6589268.3047 16.6063
v  542275.1776 6589269.0756 16.6063
v  542274.2261 6589267.2648 15.7186
v  542274.2261 6589267.2648 16.6063
v  542273.815 6589266.4825 15.7186
v  542273.815 6589266.4825 16.6063
v  542273.2743 6589265.4536 15.7186
v  542273.2743 6589265.4536 16.6063
v  542272.8703 6589264.6849 15.7186
v  542272.8703 6589264.6849 16.6063
v  542272.3162 6589263.6304 15.7186
v  542272.3162 6589263.6304 16.6063
v  542271.9671 6589262.9661 15.7186
v  542271.9671 6589262.9661 16.6063
v  542274.7725 6589268.3047 18.5008
v  542275.1776 6589269.0756 18.5008
v  542274.9584 6589268.207 16.6063
v  542274.412 6589267.1672 16.6063
v  542274.412 6589267.1672 18.5008
v  542274.9584 6589268.207 18.5008
v  542273.815 6589266.4825 18.5008
v  542274.2261 6589267.2648 18.5008
v  542274.0009 6589266.3848 16.6063
v  542273.4602 6589265.3559 16.6063
v  542273.4602 6589265.3559 18.5008
v  542274.0009 6589266.3848 18.5008
v  542272.8703 6589264.6849 18.5008
v  542273.2743 6589265.4536 18.5008
v  542273.0562 6589264.5872 16.6063
v  542272.5021 6589263.5327 16.6063
v  542272.5021 6589263.5327 18.5008
v  542273.0562 6589264.5872 18.5008
v  542271.9671 6589262.9661 18.5008
v  542272.3162 6589263.6304 18.5008
v  542274.7725 6589268.3047 20.3219
v  542275.1776 6589269.0756 20.3219
v  542274.2261 6589267.2648 20.3219
v  542273.815 6589266.4825 19.8174
v  542273.2743 6589265.4536 19.8174
v  542272.8703 6589264.6849 20.3219
v  542272.3162 6589263.6304 20.3219
v  542271.9671 6589262.9661 20.3219
v  542274.7725 6589268.3047 22.6340
v  542275.1776 6589269.0756 22.6340
v  542274.9584 6589268.207 20.3219
v  542274.412 6589267.1672 20.3219
v  542274.412 6589267.1672 22.6340
v  542274.9584 6589268.207 22.6340
v  542273.815 6589266.4825 22.6340
v  542274.2261 6589267.2648 22.6340
v  542274.0009 6589266.3848 19.8174
v  542273.4602 6589265.3559 19.8174
v  542273.4602 6589265.3559 22.6340
v  542274.0009 6589266.3848 22.6340
v  542272.8703 6589264.6849 22.6340
v  542273.2743 6589265.4536 22.6340
v  542273.0562 6589264.5872 20.3219
v  542272.5021 6589263.5327 20.3219
v  542272.5021 6589263.5327 22.6340
v  542273.0562 6589264.5872 22.6340
v  542271.9671 6589262.9661 22.6340
v  542272.3162 6589263.6304 22.6340
v  542274.7725 6589268.3047 24.3402
v  542274.2261 6589267.2648 24.3402
v  542273.815 6589266.4825 24.3402
v  542273.2743 6589265.4536 24.3402
v  542272.8703 6589264.6849 24.3402
v  542272.3162 6589263.6304 24.3402
v  542272.0911 6589262.901 15.7469
v  542271.8849 6589262.5087 15.7469
v  542271.8849 6589262.5087 16.6290
v  542272.0911 6589262.901 16.6290
v  542271.306 6589261.4071 15.7469
v  542271.306 6589261.4071 16.6290
v  542270.7328 6589260.3163 15.7469
v  542270.7328 6589260.3163 16.6290
v  542270.1878 6589259.2792 15.7469
v  542270.1878 6589259.2792 16.6290
v  542269.5847 6589258.1315 15.7469
v  542269.5847 6589258.1315 16.6290
v  542269.4068 6589257.7929 15.7469
v  542269.4068 6589257.7929 16.6290
v  542269.8759 6589257.5464 15.7469
v  542268.7583 6589255.4195 15.7469
v  542268.7583 6589255.4195 16.6290
v  542269.8759 6589257.5464 16.6290
v  542268.2891 6589255.6661 15.7469
v  542268.0033 6589255.1223 15.7469
v  542268.0033 6589255.1223 16.6290
v  542268.2891 6589255.6661 16.6290
v  542271.8849 6589262.5087 18.5178
v  542272.0911 6589262.901 18.5178
v  542272.0708 6589262.411 16.6290
v  542271.4919 6589261.3094 16.6290
v  542271.4919 6589261.3094 18.5178
v  542272.0708 6589262.411 18.5178
v  542270.7328 6589260.3163 18.5178
v  542271.306 6589261.4071 18.5178
v  542270.9187 6589260.2186 16.6290
v  542270.3737 6589259.1815 16.6290
v  542270.3737 6589259.1815 18.5178
v  542270.9187 6589260.2186 18.5178
v  542269.5847 6589258.1315 18.5178
v  542270.1878 6589259.2792 18.5178
v  542269.4068 6589257.7929 18.7427
v  542268.7583 6589255.4195 18.7427
v  542269.8759 6589257.5464 18.7427
v  542268.0033 6589255.1223 18.5178
v  542268.2891 6589255.6661 18.7427
v  542271.8849 6589262.5087 20.3333
v  542272.0911 6589262.901 20.3333
v  542271.306 6589261.4071 20.3333
v  542270.7328 6589260.3163 20.3333
v  542270.1878 6589259.2792 20.3333
v  542269.5847 6589258.1315 20.3333
v  542269.1587 6589257.3208 20.3333
v  542268.5636 6589256.1884 20.3333
v  542268.0033 6589255.1223 20.3333
v  542271.8849 6589262.5087 22.6397
v  542272.0911 6589262.901 22.6397
v  542272.0708 6589262.411 20.3333
v  542271.4919 6589261.3094 20.3333
v  542271.4919 6589261.3094 22.6397
v  542272.0708 6589262.411 22.6397
v  542270.7328 6589260.3163 22.6397
v  542271.306 6589261.4071 22.6397
v  542270.9187 6589260.2186 20.3333
v  542270.3737 6589259.1815 20.3333
v  542270.3737 6589259.1815 22.6397
v  542270.9187 6589260.2186 22.6397
v  542269.5847 6589258.1315 22.6397
v  542270.1878 6589259.2792 22.6397
v  542269.1587 6589257.3208 22.6397
v  542269.3446 6589257.2231 20.3333
v  542268.7495 6589256.0907 20.3333
v  542268.7495 6589256.0907 22.6397
v  542269.3446 6589257.2231 22.6397
v  542268.0033 6589255.1223 22.6397
v  542268.5636 6589256.1884 22.6397
v  542271.8849 6589262.5087 24.3402
v  542271.306 6589261.4071 24.3402
v  542270.7328 6589260.3163 24.3402
v  542270.1878 6589259.2792 24.3402
v  542269.5847 6589258.1315 24.3402
v  542269.1587 6589257.3208 24.3402
v  542268.5636 6589256.1884 24.3402
v  542274.386 6589268.9456 24.7270
v  542277.2495 6589274.0944 24.7005
v  542288.3473 6589268.4146 15.6903
v  542273.0079 6589266.3238 25.8961
v  542271.6287 6589263.6998 24.7388
v  542286.9955 6589265.8173 24.7736
v  542288.0787 6589267.8985 24.7590
v  542288.0323 6589267.8094 25.2716
v  542288.3473 6589268.4146 25.4229
v  542296.4394 6589261.4058 24.7554
v  542296.4394 6589261.4058 15.6903
v  542292.994 6589256.9523 15.6903
v  542292.994 6589256.9523 23.9252
v  542294.7128 6589259.1804 24.6814
v  542296.4394 6589261.4058 25.4229
v  542296.0966 6589260.964 25.2757
v  542287.6777 6589246.2779 15.6903
v  542287.6777 6589246.2779 23.9252
v  542303.355 6589255.6713 23.8892
v  542303.355 6589255.6713 15.6903
v  542297.9518 6589255.3574 29.7178
v  542296.1955 6589242.8708 15.6903
v  542296.2236 6589242.8766 24.9422
v  542301.1389 6589252.9581 25.6797
v  542301.1389 6589252.9581 15.6903
v  542294.1668 6589248.101 29.6591
v  542288.3473 6589268.4146 26.0783
v  542296.4394 6589261.4058 26.0783
v  542288.0323 6589267.8094 26.0783
v  542296.0966 6589260.964 26.0783
v  542294.7978 6589253.8265 26.0153
v  542292.013 6589255.2057 26.0153
v  542291.3853 6589253.9384 27.5800
v  542294.4125 6589252.4376 27.5800
v  542291.156 6589252.8662 23.8304
v  542293.6984 6589251.6069 26.0153
v  542291.156 6589252.8662 26.0153
v  542294.6417 6589253.5114 26.0153
v  542294.1701 6589252.5592 27.2374
v  542292.0993 6589254.7706 23.8304
v  542292.0993 6589254.7706 26.0153
v  542290.7576 6589252.6711 26.0153
v  542293.5424 6589251.2919 26.0153
v  542291.857 6589254.8907 26.0153
v  542291.3853 6589253.9384 27.2374
v  542290.9137 6589252.9862 26.0153
v  542291.6277 6589253.8184 27.2374
v  542290.9405 6589264.568 26.9219
v  542291.7763 6589263.894 26.9219
v  542292.1485 6589264.3554 26.9219
v  542291.3126 6589265.0295 26.9219
v  542290.9405 6589264.568 24.9119
v  542291.7763 6589263.894 24.9119
v  542292.1485 6589264.3554 24.9119
v  542291.3126 6589265.0295 24.9119
v  542276.7569 6589260.5621 28.6241
v  542277.7707 6589259.933 28.6241
v  542278.3753 6589260.9074 28.6241
v  542277.3615 6589261.5365 28.6241
v  542276.7569 6589260.5621 26.4350
v  542277.7707 6589259.933 26.4350
v  542278.3753 6589260.9074 26.4350
v  542277.3615 6589261.5365 26.4350
v  542279.4635 6589265.5854 28.4255
v  542281.2081 6589264.6229 28.4255
v  542281.69 6589265.4965 28.4255
v  542279.9454 6589266.4589 28.4255
v  542279.4635 6589265.5854 26.3359
v  542281.2081 6589264.6229 26.3359
v  542281.69 6589265.4965 26.3359
v  542279.9454 6589266.4589 26.3359
v  542272.3766 6589263.2994 19.4359
v  542272.3217 6589263.195 19.4359
v  542271.1913 6589263.789 19.4348
v  542271.2462 6589263.8934 19.4348
v  542271.2324 6589263.9007 19.3769
v  542271.1775 6589263.7962 19.3769
v  542270.6879 6589264.0535 19.4665
v  542270.7428 6589264.158 19.4665
v  542272.3217 6589263.195 19.5234
v  542271.1844 6589263.7926 19.5234
v  542270.6879 6589264.0535 19.5234
v  542272.3766 6589263.2994 19.5234
v  542271.2393 6589263.8971 19.5234
v  542270.7428 6589264.158 19.5234
v  542271.5226 6589263.6149 19.3335
v  542271.5775 6589263.7193 19.3335
v  542271.496 6589263.6288 19.2815
v  542271.5509 6589263.7333 19.2815
v  542271.8194 6589263.4589 19.1387
v  542271.8743 6589263.5634 19.1387
v  542271.7819 6589263.4786 19.0963
v  542271.8368 6589263.5831 19.0963
v  542272.0615 6589263.3317 18.8638
v  542272.1164 6589263.4362 18.8638
v  542272.0155 6589263.3559 18.8338
v  542272.0704 6589263.4603 18.8338
v  542272.2297 6589263.2433 18.5347
v  542272.2846 6589263.3478 18.5347
v  542272.1837 6589263.2675 18.5047
v  542272.2386 6589263.3719 18.5047
v  542273.2179 6589264.9005 19.4359
v  542273.163 6589264.796 19.4359
v  542272.0326 6589265.39 19.4348
v  542272.0875 6589265.4945 19.4348
v  542272.0738 6589265.5017 19.3769
v  542272.0189 6589265.3972 19.3769
v  542271.5292 6589265.6546 19.4665
v  542271.5841 6589265.759 19.4665
v  542273.163 6589264.796 19.5234
v  542272.0258 6589265.3936 19.5234
v  542271.5292 6589265.6546 19.5234
v  542273.2179 6589264.9005 19.5234
v  542272.0806 6589265.4981 19.5234
v  542271.5841 6589265.759 19.5234
v  542272.3639 6589265.2159 19.3335
v  542272.4188 6589265.3204 19.3335
v  542272.3374 6589265.2299 19.2815
v  542272.3923 6589265.3343 19.2815
v  542272.6608 6589265.0599 19.1387
v  542272.7157 6589265.1644 19.1387
v  542272.6232 6589265.0797 19.0963
v  542272.6781 6589265.1841 19.0963
v  542272.9028 6589264.9327 18.8638
v  542272.9577 6589265.0372 18.8638
v  542272.8568 6589264.9569 18.8338
v  542272.9117 6589265.0614 18.8338
v  542273.071 6589264.8443 18.5347
v  542273.1259 6589264.9488 18.5347
v  542273.025 6589264.8685 18.5047
v  542273.0799 6589264.973 18.5047
v  542274.3013 6589266.962 19.4359
v  542274.2464 6589266.8576 19.4359
v  542273.116 6589267.4516 19.4348
v  542273.1709 6589267.5561 19.4348
v  542273.1571 6589267.5633 19.3769
v  542273.1022 6589267.4588 19.3769
v  542272.6126 6589267.7161 19.4665
v  542272.6675 6589267.8206 19.4665
v  542274.2464 6589266.8576 19.5234
v  542273.1091 6589267.4552 19.5234
v  542272.6126 6589267.7161 19.5234
v  542274.3013 6589266.962 19.5234
v  542273.164 6589267.5597 19.5234
v  542272.6675 6589267.8206 19.5234
v  542273.4473 6589267.2775 19.3335
v  542273.5022 6589267.3819 19.3335
v  542273.4207 6589267.2914 19.2815
v  542273.4756 6589267.3959 19.2815
v  542273.7441 6589267.1215 19.1387
v  542273.799 6589267.226 19.1387
v  542273.7066 6589267.1412 19.0963
v  542273.7615 6589267.2457 19.0963
v  542273.9862 6589266.9943 18.8638
v  542274.0411 6589267.0988 18.8638
v  542273.9402 6589267.0185 18.8338
v  542273.9951 6589267.1229 18.8338
v  542274.1544 6589266.9059 18.5347
v  542274.2093 6589267.0104 18.5347
v  542274.1084 6589266.9301 18.5047
v  542274.1633 6589267.0345 18.5047
v  542275.1267 6589268.5329 19.4359
v  542275.0718 6589268.4284 19.4359
v  542273.9414 6589269.0224 19.4348
v  542273.9963 6589269.1269 19.4348
v  542273.9826 6589269.1341 19.3769
v  542273.9277 6589269.0297 19.3769
v  542273.438 6589269.287 19.4665
v  542273.4929 6589269.3914 19.4665
v  542275.0718 6589268.4284 19.5234
v  542273.9346 6589269.0261 19.5234
v  542273.438 6589269.287 19.5234
v  542275.1267 6589268.5329 19.5234
v  542273.9895 6589269.1305 19.5234
v  542273.4929 6589269.3914 19.5234
v  542274.2728 6589268.8483 19.3335
v  542274.3277 6589268.9528 19.3335
v  542274.2462 6589268.8623 19.2815
v  542274.3011 6589268.9668 19.2815
v  542274.5696 6589268.6924 19.1387
v  542274.6245 6589268.7968 19.1387
v  542274.532 6589268.7121 19.0963
v  542274.5869 6589268.8166 19.0963
v  542274.8117 6589268.5652 18.8638
v  542274.8666 6589268.6696 18.8638
v  542274.7657 6589268.5893 18.8338
v  542274.8206 6589268.6938 18.8338
v  542274.9799 6589268.4768 18.5347
v  542275.0348 6589268.5812 18.5347
v  542274.9339 6589268.5009 18.5047
v  542274.9888 6589268.6054 18.5047
v  542273.6144 6589269.6866 19.5131
v  542270.5447 6589263.845 19.5131
v  542270.5447 6589263.845 19.7086
v  542273.6144 6589269.6866 19.7086
v  542275.091 6589268.9107 19.5131
v  542272.0212 6589263.0691 19.5131
v  542272.0212 6589263.0691 19.7086
v  542275.091 6589268.9107 19.7086
v  542273.6973 6589269.3551 19.7019
v  542270.8647 6589263.9648 19.7019
v  542270.8647 6589263.9648 20.6325
v  542273.6973 6589269.3551 20.6325
v  542272.1904 6589263.2681 19.7019
v  542272.1904 6589263.2681 20.6325
v  542275.023 6589268.6585 20.6325
v  542275.023 6589268.6585 19.7019
v  542273.6631 6589269.4649 20.6759
v  542273.5875 6589269.321 20.6759
v  542273.7314 6589269.2454 20.6759
v  542273.807 6589269.3893 20.6759
v  542273.6807 6589269.4083 19.7465
v  542273.6441 6589269.3386 19.7465
v  542273.6441 6589269.3386 20.6359
v  542273.6807 6589269.4083 20.6359
v  542273.7138 6589269.302 19.7465
v  542273.7138 6589269.302 20.6359
v  542273.7504 6589269.3717 19.7465
v  542273.7504 6589269.3717 20.6359
v  542273.7998 6589269.387 19.6865
v  542273.6654 6589269.4577 19.6865
v  542273.7292 6589269.2526 19.6865
v  542273.5947 6589269.3232 19.6865
v  542273.6973 6589269.3551 20.7795
v  542273.7366 6589269.3551 20.7632
v  542273.6973 6589269.3945 20.7632
v  542273.7529 6589269.3551 20.7239
v  542273.7366 6589269.3945 20.7239
v  542273.6973 6589269.4108 20.7239
v  542273.6579 6589269.3551 20.7632
v  542273.6579 6589269.3945 20.7239
v  542273.6417 6589269.3551 20.7239
v  542273.6973 6589269.3158 20.7632
v  542273.6579 6589269.3158 20.7239
v  542273.6973 6589269.2995 20.7239
v  542273.7366 6589269.3158 20.7239
v  542273.6973 6589269.3551 20.6682
v  542273.6973 6589269.3945 20.6845
v  542273.7366 6589269.3551 20.6845
v  542273.6579 6589269.3551 20.6845
v  542273.6973 6589269.3158 20.6845
v  542272.7187 6589267.6675 20.6759
v  542272.643 6589267.5237 20.6759
v  542272.7869 6589267.448 20.6759
v  542272.8625 6589267.5919 20.6759
v  542272.7363 6589267.611 19.7465
v  542272.6996 6589267.5413 19.7465
v  542272.6996 6589267.5413 20.6359
v  542272.7363 6589267.611 20.6359
v  542272.7693 6589267.5046 19.7465
v  542272.7693 6589267.5046 20.6359
v  542272.806 6589267.5743 19.7465
v  542272.806 6589267.5743 20.6359
v  542272.8553 6589267.5897 19.6865
v  542272.7209 6589267.6603 19.6865
v  542272.7847 6589267.4552 19.6865
v  542272.6502 6589267.5259 19.6865
v  542272.7528 6589267.5578 20.7795
v  542272.7921 6589267.5578 20.7632
v  542272.7528 6589267.5971 20.7632
v  542272.8084 6589267.5578 20.7239
v  542272.7921 6589267.5971 20.7239
v  542272.7528 6589267.6134 20.7239
v  542272.7135 6589267.5578 20.7632
v  542272.7135 6589267.5971 20.7239
v  542272.6972 6589267.5578 20.7239
v  542272.7528 6589267.5184 20.7632
v  542272.7135 6589267.5184 20.7239
v  542272.7528 6589267.5022 20.7239
v  542272.7921 6589267.5184 20.7239
v  542272.7528 6589267.5578 20.6682
v  542272.7528 6589267.5971 20.6845
v  542272.7921 6589267.5578 20.6845
v  542272.7135 6589267.5578 20.6845
v  542272.7528 6589267.5184 20.6845
v  542271.7756 6589265.8729 20.6759
v  542271.7 6589265.729 20.6759
v  542271.8439 6589265.6534 20.6759
v  542271.9195 6589265.7973 20.6759
v  542271.7932 6589265.8164 19.7465
v  542271.7566 6589265.7467 19.7465
v  542271.7566 6589265.7467 20.6359
v  542271.7932 6589265.8164 20.6359
v  542271.8263 6589265.71 19.7465
v  542271.8263 6589265.71 20.6359
v  542271.8629 6589265.7797 19.7465
v  542271.8629 6589265.7797 20.6359
v  542271.9123 6589265.7951 19.6865
v  542271.7778 6589265.8657 19.6865
v  542271.8416 6589265.6606 19.6865
v  542271.7072 6589265.7313 19.6865
v  542271.8097 6589265.7632 20.7795
v  542271.8491 6589265.7632 20.7632
v  542271.8097 6589265.8025 20.7632
v  542271.8654 6589265.7632 20.7239
v  542271.8491 6589265.8025 20.7239
v  542271.8097 6589265.8188 20.7239
v  542271.7704 6589265.7632 20.7632
v  542271.7704 6589265.8025 20.7239
v  542271.7541 6589265.7632 20.7239
v  542271.8097 6589265.7238 20.7632
v  542271.7704 6589265.7238 20.7239
v  542271.8097 6589265.7076 20.7239
v  542271.8491 6589265.7238 20.7239
v  542271.8097 6589265.7632 20.6682
v  542271.8097 6589265.8025 20.6845
v  542271.8491 6589265.7632 20.6845
v  542271.7704 6589265.7632 20.6845
v  542271.8097 6589265.7238 20.6845
v  542270.8294 6589264.0724 20.6759
v  542270.7538 6589263.9285 20.6759
v  542270.8977 6589263.8529 20.6759
v  542270.9733 6589263.9967 20.6759
v  542270.847 6589264.0158 19.7465
v  542270.8104 6589263.9461 19.7465
v  542270.8104 6589263.9461 20.6359
v  542270.847 6589264.0158 20.6359
v  542270.8801 6589263.9095 19.7465
v  542270.8801 6589263.9094 20.6359
v  542270.9167 6589263.9792 19.7465
v  542270.9167 6589263.9791 20.6359
v  542270.9661 6589263.9945 19.6865
v  542270.8316 6589264.0652 19.6865
v  542270.8954 6589263.8601 19.6865
v  542270.761 6589263.9307 19.6865
v  542270.8635 6589263.9626 20.7795
v  542270.9029 6589263.9626 20.7632
v  542270.8635 6589264.002 20.7632
v  542270.9192 6589263.9626 20.7239
v  542270.9029 6589264.002 20.7239
v  542270.8635 6589264.0182 20.7239
v  542270.8242 6589263.9626 20.7632
v  542270.8242 6589264.002 20.7239
v  542270.8079 6589263.9626 20.7239
v  542270.8635 6589263.9233 20.7632
v  542270.8242 6589263.9233 20.7239
v  542270.8635 6589263.907 20.7239
v  542270.9029 6589263.9233 20.7239
v  542270.8635 6589263.9626 20.6682
v  542270.8635 6589264.002 20.6845
v  542270.9029 6589263.9626 20.6845
v  542270.8242 6589263.9626 20.6845
v  542270.8635 6589263.9233 20.6845
v  542282.8763 6589270.8574 27.1355
v  542277.2495 6589274.0944 25.0018
v  542277.553 6589274.672 24.9987
v  542283.1656 6589271.408 27.4339
v  542288.3473 6589268.4146 25.0566
v  542282.8763 6589270.8574 27.4368
v  542288.0787 6589267.8985 25.0602
v  542270.8377 6589263.9564 20.6475
v  542272.1811 6589263.2504 20.6475
v  542272.1997 6589263.2858 20.6475
v  542270.8917 6589263.9732 20.6475
v  542270.8377 6589263.9564 20.6175
v  542272.1811 6589263.2504 20.6175
v  542270.8917 6589263.9732 20.6175
v  542272.1997 6589263.2858 20.6175
v  542273.6889 6589269.3821 20.6475
v  542273.7057 6589269.3281 20.6475
v  542273.6889 6589269.3821 20.6175
v  542273.7057 6589269.3281 20.6175
v  542275.0323 6589268.6762 20.6475
v  542275.0137 6589268.6408 20.6475
v  542275.0323 6589268.6762 20.6175
v  542275.0137 6589268.6408 20.6175
# 597 vertices

vt 0.9894 0.8731 0.0000
vt 0.9894 0.9945 0.0000
vt 0.7085 0.9973 0.0000
vt 0.7085 0.5382 0.0000
vt 0.9894 0.5355 0.0000
vt 0.0000 1.0000 0.0000
vt 1.0000 1.0000 0.0000
vt 0.0000 0.0000 0.0000
vt 0.0000 0.5000 0.0000
vt 0.5000 1.0000 0.0000
vt 0.7500 1.0000 0.0000
vt 0.0000 0.2500 0.0000
vt 3.5261 0.7470 0.0163
vt -0.0671 0.7284 0.0220
vt -0.0397 0.4711 0.9995
vt 3.5535 0.4896 0.9938
vt 0.0690 0.0226 0.9753
vt 0.9658 0.0321 0.0247
vt 0.5172 0.9617 0.5002
vt 0.7687 0.9955 0.0005
vt 0.7680 0.4371 0.9983
vt 2.5160 0.4317 0.9995
vt 0.8321 0.9954 0.0005
vt 0.7673 -0.1212 0.0110
vt 0.8308 -0.1212 0.0110
vt 5.0049 0.6069 0.5543
vt 6.3756 0.5041 0.9881
vt 6.3482 0.7615 0.0107
vt -0.0388 0.2177 0.0225
vt 0.0055 0.0000 0.0000
vt 0.0772 0.0000 0.0000
vt 0.0772 0.0981 0.0000
vt 0.0055 0.0981 0.0000
vt 0.1731 0.0000 0.0000
vt 0.4266 0.0000 0.0000
vt 0.4266 0.0965 0.0000
vt 0.1731 0.0965 0.0000
vt 0.6423 0.0000 0.0000
vt 0.6423 0.0965 0.0000
vt 0.8925 0.0000 0.0000
vt 0.8925 0.0965 0.0000
vt 1.0000 0.0000 0.0000
vt 1.0000 0.0965 0.0000
vt 0.0772 0.3334 0.0000
vt 0.0055 0.3334 0.0000
vt 0.0005 0.0005 0.9995
vt 0.9995 0.0005 0.0005
vt 0.9995 0.9995 0.0005
vt 0.0005 0.9995 0.9995
vt 0.6423 0.3353 0.0000
vt 0.4266 0.3327 0.0000
vt 1.0000 0.3353 0.0000
vt 0.8925 0.3353 0.0000
vt 0.0772 0.5514 0.0000
vt 0.0055 0.5514 0.0000
vt 0.1731 0.3327 0.0000
vt 0.4362 0.5516 0.0000
vt 0.1731 0.5516 0.0000
vt 0.6385 0.5516 0.0000
vt 0.9013 0.5516 0.0000
vt 1.0000 0.5516 0.0000
vt 0.0772 0.8396 0.0000
vt 0.0055 0.8396 0.0000
vt 0.6385 0.8370 0.0000
vt 0.4362 0.8370 0.0000
vt 1.0000 0.8370 0.0000
vt 0.9013 0.8370 0.0000
vt 0.0772 1.0000 0.0000
vt 0.0055 1.0000 0.0000
vt 0.1731 0.8370 0.0000
vt 0.4362 1.0000 0.0000
vt 0.1731 1.0000 0.0000
vt 0.6385 1.0000 0.0000
vt 0.9013 1.0000 0.0000
vt 0.1043 0.0000 0.0000
vt 0.1043 0.0954 0.0000
vt 0.0000 0.0954 0.0000
vt 0.3000 0.0000 0.0000
vt 0.3000 0.0954 0.0000
vt 0.4079 0.0000 0.0000
vt 0.4079 0.0954 0.0000
vt 0.6035 0.0000 0.0000
vt 0.6035 0.0954 0.0000
vt 0.7077 0.0000 0.0000
vt 0.7077 0.0954 0.0000
vt 0.9068 0.0000 0.0000
vt 0.9065 0.0954 0.0000
vt 1.0000 0.0954 0.0000
vt 0.1043 0.3317 0.0000
vt 0.0000 0.3317 0.0000
vt 0.4079 0.3317 0.0000
vt 0.3000 0.3317 0.0000
vt 0.7077 0.3317 0.0000
vt 0.6035 0.3317 0.0000
vt 1.0000 0.3317 0.0000
vt 0.9065 0.3317 0.0000
vt 0.1025 0.5482 0.0000
vt 0.0000 0.5482 0.0000
vt 0.3095 0.5482 0.0000
vt 0.4136 0.4791 0.0000
vt 0.6167 0.4791 0.0000
vt 0.7119 0.5428 0.0000
vt 0.9206 0.5428 0.0000
vt 1.0000 0.5425 0.0000
vt 0.1025 0.8324 0.0000
vt 0.0000 0.8324 0.0000
vt 0.4136 0.8324 0.0000
vt 0.3095 0.8324 0.0000
vt 0.7119 0.8324 0.0000
vt 0.6167 0.8324 0.0000
vt 1.0000 0.8324 0.0000
vt 0.9206 0.8324 0.0000
vt 0.1025 1.0000 0.0000
vt 0.3095 1.0000 0.0000
vt 0.4136 1.0000 0.0000
vt 0.6167 1.0000 0.0000
vt 0.7119 1.0000 0.0000
vt 0.9206 1.0000 0.0000
vt 0.0622 0.0000 0.0000
vt 0.0622 0.0919 0.0000
vt 0.0000 0.0919 0.0000
vt 0.3180 0.0000 0.0000
vt 0.3180 0.0919 0.0000
vt 0.5311 0.0000 0.0000
vt 0.5311 0.0919 0.0000
vt 0.7832 0.0000 0.0000
vt 0.7832 0.0919 0.0000
vt 0.9985 0.0000 0.0000
vt 0.9985 0.0919 0.0000
vt 0.0010 0.0000 0.0000
vt 0.0890 0.0000 0.0000
vt 0.0890 0.0962 0.0000
vt 0.0010 0.0962 0.0000
vt 0.9995 0.2946 0.0005
vt 0.0005 0.2946 0.9995
vt 0.9033 0.0000 0.0000
vt 0.9991 0.0000 0.0000
vt 0.9991 0.0974 0.0000
vt 0.9033 0.0974 0.0000
vt 0.0622 0.3270 0.0000
vt 0.0000 0.3270 0.0000
vt 0.5311 0.3270 0.0000
vt 0.3180 0.3270 0.0000
vt 0.9985 0.3270 0.0000
vt 0.7832 0.3270 0.0000
vt 0.0890 0.3483 0.0000
vt 0.0010 0.3210 0.0000
vt 0.9991 0.3231 0.0000
vt 0.9033 0.3483 0.0000
vt 0.0642 0.5468 0.0000
vt 0.0000 0.5468 0.0000
vt 0.3210 0.5468 0.0000
vt 0.5267 0.5468 0.0000
vt 0.7880 0.5468 0.0000
vt 0.9985 0.5468 0.0000
vt 0.2613 0.5412 0.0000
vt 0.0010 0.5412 0.0000
vt 0.7014 0.5412 0.0000
vt 0.9991 0.5412 0.0000
vt 0.0642 0.8397 0.0000
vt 0.0000 0.8397 0.0000
vt 0.5267 0.8397 0.0000
vt 0.3210 0.8397 0.0000
vt 0.9985 0.8397 0.0000
vt 0.7880 0.8397 0.0000
vt 0.2613 0.8302 0.0000
vt 0.0010 0.8302 0.0000
vt 0.9991 0.8302 0.0000
vt 0.7014 0.8302 0.0000
vt 0.0642 1.0000 0.0000
vt 0.3210 1.0000 0.0000
vt 0.5267 1.0000 0.0000
vt 0.7880 1.0000 0.0000
vt 0.9985 1.0000 0.0000
vt 0.2613 0.9992 0.0000
vt 0.0010 0.9992 0.0000
vt 0.7011 0.9992 0.0000
vt 0.9991 1.0000 0.0000
vt 0.9902 1.0000 0.0000
vt 0.0098 1.0000 0.0000
vt 0.0098 0.8021 0.0000
vt 0.9902 0.8028 0.0000
vt 0.9902 0.5502 0.0000
vt 0.0098 0.5489 0.0000
vt 0.9902 0.3313 0.0000
vt 0.0098 0.3294 0.0000
vt 0.9902 0.0944 0.0000
vt 0.0098 0.0917 0.0000
vt 0.9902 0.0033 0.0000
vt 0.0098 0.0000 0.0000
vt 0.9514 0.4780 0.0000
vt 0.0528 0.4780 0.0000
vt 0.0528 0.1291 0.0000
vt 0.9514 0.1291 0.0000
vt 0.0075 3.9496 0.9647
vt 0.0069 3.2391 0.0005
vt 0.0774 3.9411 0.9675
vt 0.9842 8.8977 0.1456
vt 0.0340 8.9884 0.1407
vt 0.0340 8.3353 0.0005
vt 0.0819 8.3307 0.0005
vt 0.2164 8.3179 0.0005
vt 0.3497 8.3052 0.0005
vt 0.4764 8.2931 0.0005
vt 0.6165 8.2797 0.0005
vt 0.7156 8.2702 0.0005
vt 0.8539 8.2570 0.0005
vt 0.9841 8.2446 0.0030
vt 0.1392 2.8548 1.1437
vt 0.0390 2.8624 1.1366
vt 0.0386 2.2746 0.2037
vt 0.1729 2.2645 0.2037
vt 0.3561 2.2506 0.2037
vt 0.5382 2.2369 0.2037
vt 0.7337 2.2221 0.2037
vt 0.9157 2.2084 0.2037
vt 0.9688 2.2044 0.2368
vt 0.9692 2.7921 1.2027
vt -0.1142 0.0000 0.0000
vt 1.0000 0.8000 0.0000
vt 1.0000 0.6000 0.0000
vt 1.0000 0.4000 0.0000
vt 1.0000 0.2000 0.0000
vt -0.1142 0.8370 0.0000
vt -0.1142 1.0000 0.0000
vt -0.1142 0.0965 0.0000
vt -0.1142 0.3327 0.0000
vt -0.1142 0.5516 0.0000
vt 0.0015 0.3737 -0.7429
vt 4.0232 0.4129 1.7432
vt 3.9956 0.8265 1.6917
vt 0.5391 0.8096 -0.4459
vt 2.6155 0.4549 0.0006
vt -0.1157 0.4624 0.9995
vt 0.2083 0.2090 0.8580
vt 2.5551 0.2133 0.0005
vt 0.9931 3.1230 0.0179
vt 0.9937 3.8335 0.9995
vt 0.9242 3.8420 0.9967
vt 0.1314 3.2244 0.0179
vt 0.2992 3.2047 0.0179
vt 0.4255 3.1898 0.0179
vt 0.5916 3.1703 0.0179
vt 0.7157 3.1557 0.0179
vt 0.8859 3.1356 0.0179
vt -1.7495 0.3238 -0.5063
vt 4.7995 0.2920 -0.4081
vt 4.1576 0.7080 0.4927
vt -1.1066 0.7336 0.4137
vt 2.6356 0.5836 0.1746
vt -1.3200 0.5542 0.8254
vt -1.3171 0.3685 0.7590
vt 1.8625 0.3921 0.2358
vt 3.0751 0.4963 0.9995
vt -1.1971 0.5271 0.0005
vt -0.3639 0.4166 0.0955
vt 3.0702 0.3918 0.8985
vt 0.8415 1.0000 0.0000
vt 0.0000 0.4207 0.0000
vt 0.0000 0.4815 0.0000
vt 0.9442 0.5106 0.0000
vt 0.9995 0.9673 0.0000
vt 0.7060 0.9715 0.0000
vt 0.7082 0.4616 0.0000
vt 1.0016 0.4573 0.0000
vt 0.1432 0.5512 0.6281
vt 0.4343 0.2142 0.0005
vt 4.5451 0.2210 0.0005
vt 4.5733 0.4799 0.5599
vt 0.7457 0.4915 0.0000
vt 0.7543 0.7471 0.0000
vt 0.8499 0.9113 0.0000
vt 0.9807 0.8047 0.0000
vt -0.7073 0.3340 0.6911
vt 4.7961 0.2006 0.2611
vt 2.8309 3.4178 1.0850
vt 0.6956 0.8786 0.0000
vt 0.6956 0.0000 0.0000
vt 4.2115 2.8985 0.6271
vt 0.1231 2.2526 -0.1562
vt 0.9905 -0.4942 0.5889
vt 6.5777 3.5590 0.0005
vt 5.1006 6.6757 0.9995
vt 4.7569 4.0325 0.3074
vt 0.7582 6.6678 0.9894
vt -1.1916 3.8173 0.1810
vt 1.3262 4.5189 0.0005
vt 0.8230 8.2045 0.9995
vt -1.8687 5.2379 0.1437
vt 5.5420 8.1975 0.9894
vt 8.2011 4.6689 0.0005
vt 4.5986 0.6876 0.9995
vt -0.0073 0.7554 0.9965
vt 0.8851 0.5190 0.0000
vt 0.9613 0.7028 0.0000
vt 0.7161 0.8653 0.0000
vt 0.9937 0.8657 0.0000
vt 0.9958 0.9902 0.0000
vt 0.7182 0.9902 0.0000
vt 4.6491 0.4237 0.5000
vt 4.6487 0.4986 0.5000
vt -0.5597 0.5741 0.5000
vt -0.4998 0.4841 0.5000
vt 2.0489 1.9659 0.0005
vt 0.0838 1.9861 0.0005
vt 0.0775 0.6847 0.9995
vt 2.2140 0.6615 0.9995
vt 0.0967 0.4915 0.0005
vt 1.8974 0.4915 0.0005
vt 2.0546 1.7235 0.9995
vt 0.0967 1.7246 0.9995
vt 1.0000 0.5000 0.0000
vt 0.6212 0.4874 0.0000
vt 1.0000 0.4874 0.0000
vt 1.0000 0.6780 0.0000
vt 0.6212 0.6780 0.0000
vt 0.0648 0.1352 0.0000
vt 0.9500 0.1352 0.0000
vt 0.9500 0.4719 0.0000
vt 0.0648 0.4719 0.0000
vt 0.6212 0.0000 0.0000
vt 1.0000 0.3717 0.0000
vt 0.6212 0.3717 0.0000
vt 0.6373 0.5011 0.0000
vt 0.9892 0.5020 0.0000
vt 0.9896 0.6613 0.0000
vt 0.6357 0.6611 0.0000
vt 0.8854 0.7267 0.0000
vt 0.8854 0.8065 0.0000
vt 0.0972 0.8065 0.0000
vt 0.0972 0.7267 0.0000
vt 0.1859 0.6669 0.0000
vt 0.5817 0.7345 0.0000
vt 0.1183 0.8479 0.0000
vt 0.2915 0.6690 0.0000
vt 0.6493 0.7619 0.0000
vt 0.3169 0.8585 0.0000
vt 0.0050 0.0005 0.9995
vt 9.9950 0.0005 0.0005
vt 9.9950 0.9995 0.0005
vt 0.0050 0.9995 0.9995
vt 6.4886 0.5476 -9.5000
vt -0.6006 0.5693 8.0000
vt -0.6395 0.3175 11.5000
vt 6.4497 0.2959 -6.5000
vt 4.0580 0.0005 0.0005
vt 4.0580 0.9995 0.0005
vt 0.0020 0.9995 0.9995
vt 0.0020 0.0005 0.9995
vt 0.7133 0.5975 0.0000
vt 0.7125 0.7698 0.0000
vt 0.6187 0.7696 0.0000
vt 0.6172 0.5972 0.0000
vt 0.0020 0.9995 0.0005
vt 0.0020 0.0005 0.0005
vt 3.9980 0.0005 0.9995
vt 3.9980 0.9995 0.9995
vt 0.0105 0.0005 0.9995
vt 20.9895 0.0005 0.0005
vt 20.9895 0.9995 0.0005
vt 0.0105 0.9995 0.9995
vt 5.2274 0.0005 0.0005
vt 5.2274 0.9995 0.0005
vt 0.0026 0.9995 0.9995
vt 0.0026 0.0005 0.9995
vt 0.0026 0.9995 0.0005
vt 0.0026 0.0005 0.0005
vt 5.2174 0.0005 0.9995
vt 5.2174 0.9995 0.9995
vt 0.0588 0.8489 0.0000
vt 0.0588 0.6842 0.0000
vt 0.9360 0.6896 0.0000
vt 0.9360 0.8435 0.0000
vt 0.5000 0.5000 0.9990
vt 0.5000 0.6250 0.9990
vt 0.3750 0.5000 0.9990
vt 0.5000 0.7500 0.9990
vt 0.3232 0.6768 0.9990
vt 0.2500 0.5000 0.9990
vt 0.5000 0.3750 0.9990
vt 0.3232 0.3232 0.9990
vt 0.5000 0.2500 0.9990
vt 0.6250 0.5000 0.9990
vt 0.6768 0.3232 0.9990
vt 0.7500 0.5000 0.9990
vt 0.6768 0.6768 0.9990
vt 1.0000 0.5000 0.9990
vt 1.1250 0.5000 0.9990
vt 1.5000 0.8750 0.9990
vt 0.1250 0.5000 0.9990
vt 0.5000 0.8750 0.9990
vt 0.0000 0.5000 0.9990
vt 0.5000 0.1250 0.9990
vt 0.8750 0.5000 0.9990
vt 8.5964 0.5156 0.9779
vt 8.5565 0.7729 0.0005
vt 8.6452 0.2784 0.0240
vt 6.1668 0.2608 0.0225
vt 7.6860 0.2731 0.0298
vt 0.0539 1.0000 0.0000
vt 0.8157 0.9787 0.0000
vt 0.8099 0.4286 0.0000
vt 0.8603 0.4290 0.0000
vt 0.8660 0.9791 0.0000
vt 2.8498 0.4583 0.9995
vt 2.8854 -0.4244 0.0257
vt 3.2024 -0.4202 0.0242
vt 3.1888 0.4623 0.9983
vt 3.1842 1.4199 0.0005
vt 2.8286 1.4157 0.0018
vt 0.0073 0.0965 0.0000
vt 0.0073 0.0000 0.0000
vt 0.0073 0.3327 0.0000
vt 0.0073 0.5516 0.0000
vt 0.0073 0.8370 0.0000
vt 0.0073 1.0000 0.0000
vt 2.0985 2.3784 -0.0387
vt 2.0985 2.3784 -0.0087
vt 2.0799 2.3430 -0.0087
vt 2.0799 2.3430 -0.0387
# 420 texture coords

g L22
usemtl front_right_r
s off
f 1/1 2/2 3/3 4/4 5/5 
usemtl xxx
f 6/6 3/7 7/8 
f 8/6 9/7 10/6 
usemtl top_ribbon
f 11/9 12/10 13/10 14/9 
f 15/11 16/12 17/12 18/11 
usemtl roof_white
f 17/13 7/14 19/15 20/16 
usemtl ornament_tri
f 21/17 22/18 23/19 
usemtl roof_white
f 13/20 24/21 25/22 14/23 
f 24/21 18/24 17/25 25/22 
f 17/13 20/16 25/26 
f 20/16 26/27 25/26 
f 26/27 14/28 25/26 
f 20/16 19/15 3/29 
usemtl front_right_r
f 10/6 27/6 8/9 
usemtl xxx
f 3/7 19/8 7/8 
usemtl front_left
f 28/30 29/31 30/32 31/33 
f 32/34 33/35 34/36 35/37 
f 33/35 36/38 37/39 34/36 
f 36/38 38/40 39/41 37/39 
f 38/40 40/42 41/43 39/41 
f 31/33 30/32 42/44 43/45 
usemtl window_1stf
f 44/46 45/47 46/48 47/49 
usemtl front_left
f 34/36 37/39 48/50 49/51 
usemtl window_1stf
f 50/46 51/47 52/48 53/49 
usemtl front_left
f 39/41 41/43 54/52 55/53 
f 43/45 42/44 56/54 57/55 
f 58/56 49/51 59/57 60/58 
f 49/51 48/50 61/59 59/57 
f 48/50 55/53 62/60 61/59 
f 55/53 54/52 63/61 62/60 
f 57/55 56/54 64/62 65/63 
usemtl window_2ndf
f 66/46 67/47 68/48 69/49 
usemtl front_left
f 59/57 61/59 70/64 71/65 
usemtl window_2ndf
f 72/46 73/47 74/48 75/49 
usemtl front_left
f 62/60 63/61 76/66 77/67 
f 65/63 64/62 78/68 9/69 
f 79/70 71/65 80/71 81/72 
f 71/65 70/64 82/73 80/71 
f 70/64 77/67 83/74 82/73 
f 77/67 76/66 11/7 83/74 
usemtl front_middle
f 84/8 85/75 86/76 87/77 
f 85/75 88/78 89/79 86/76 
f 88/78 90/80 91/81 89/79 
f 90/80 92/82 93/83 91/81 
f 92/82 94/84 95/85 93/83 
f 94/84 96/86 97/87 95/85 
f 96/86 98/42 99/88 97/87 
f 87/77 86/76 100/89 101/90 
usemtl window_1stf
f 102/46 103/47 104/48 105/49 
usemtl front_middle
f 89/79 91/81 106/91 107/92 
usemtl window_1stf
f 108/46 109/47 110/48 111/49 
usemtl front_middle
f 93/83 95/85 112/93 113/94 
usemtl window_1stf
f 114/46 115/47 116/48 117/49 
usemtl front_middle
f 97/87 99/88 118/95 119/96 
f 101/90 100/89 120/97 121/98 
f 100/89 107/92 122/99 120/97 
f 107/92 106/91 123/100 122/99 
f 106/91 113/94 124/101 123/100 
f 113/94 112/93 125/102 124/101 
f 112/93 119/96 126/103 125/102 
f 119/96 118/95 127/104 126/103 
f 121/98 120/97 128/105 129/106 
usemtl window_2ndf
f 130/46 131/47 132/48 133/49 
usemtl front_middle
f 122/99 123/100 134/107 135/108 
usemtl balcony_door
f 136/46 137/47 138/48 139/49 
usemtl front_middle
f 124/101 125/102 140/109 141/110 
usemtl window_2ndf
f 142/46 143/47 144/48 145/49 
usemtl front_middle
f 126/103 127/104 146/111 147/112 
f 129/106 128/105 148/113 12/6 
f 128/105 135/108 149/114 148/113 
f 135/108 134/107 150/115 149/114 
f 134/107 141/110 151/116 150/115 
f 141/110 140/109 152/117 151/116 
f 140/109 147/112 153/118 152/117 
f 147/112 146/111 15/7 153/118 
usemtl front_right_l
f 154/8 155/119 156/120 157/121 
f 155/119 158/122 159/123 156/120 
f 158/122 160/124 161/125 159/123 
f 160/124 162/126 163/127 161/125 
f 162/126 164/128 165/129 163/127 
usemtl front_right_r
f 164/130 166/131 167/132 165/133 
usemtl gate
f 168/46 169/47 170/134 171/135 
usemtl front_right_r
f 172/136 173/137 174/138 175/139 
usemtl front_right_l
f 157/121 156/120 176/140 177/141 
usemtl window_1stf
f 178/46 179/47 180/48 181/49 
usemtl front_right_l
f 159/123 161/125 182/142 183/143 
usemtl window_1stf
f 184/46 185/47 186/48 187/49 
usemtl front_right_l
f 163/127 165/129 188/144 189/145 
usemtl front_right_r
f 165/133 167/132 190/146 188/147 
usemtl gate
f 171/135 170/134 191/48 192/49 
usemtl front_right_r
f 175/139 174/138 193/148 194/149 
usemtl front_right_l
f 177/141 176/140 195/150 196/151 
f 176/140 183/143 197/152 195/150 
f 183/143 182/142 198/153 197/152 
f 182/142 189/145 199/154 198/153 
f 189/145 188/144 200/155 199/154 
usemtl front_right_r
f 188/147 190/146 201/156 200/157 
f 190/146 194/149 202/158 201/156 
f 194/149 193/148 203/159 202/158 
usemtl front_right_l
f 196/151 195/150 204/160 205/161 
usemtl window_2ndf
f 206/46 207/47 208/48 209/49 
usemtl front_right_l
f 197/152 198/153 210/162 211/163 
usemtl window_2ndf
f 212/46 213/47 214/48 215/49 
usemtl front_right_l
f 199/154 200/155 216/164 217/165 
usemtl front_right_r
f 200/157 201/156 218/166 216/167 
usemtl window_2ndf
f 219/46 220/47 221/48 222/49 
usemtl front_right_r
f 202/158 203/159 223/168 224/169 
usemtl front_right_l
f 205/161 204/160 225/170 16/6 
f 204/160 211/163 226/171 225/170 
f 211/163 210/162 227/172 226/171 
f 210/162 217/165 228/173 227/172 
f 217/165 216/164 229/174 228/173 
usemtl front_right_r
f 216/167 218/166 230/175 229/176 
f 218/166 224/169 231/177 230/175 
f 224/169 223/168 6/178 231/177 
usemtl verticals
f 16/179 15/180 146/181 205/182 
f 196/183 205/182 146/181 127/184 
f 177/185 196/183 127/184 118/186 
f 157/187 177/185 118/186 99/188 
f 154/189 157/187 99/188 98/190 
f 129/182 12/179 11/180 76/181 
f 121/183 129/182 76/181 63/184 
f 101/185 121/183 63/184 54/186 
f 87/187 101/185 54/186 41/188 
f 87/187 41/188 40/190 84/189 
usemtl patches
f 35/191 34/192 45/193 44/194 
f 34/191 49/192 46/193 45/194 
f 49/191 58/192 47/193 46/194 
f 58/191 35/192 44/193 47/194 
f 37/191 39/192 51/193 50/194 
f 39/191 55/192 52/193 51/194 
f 55/191 48/192 53/193 52/194 
f 48/191 37/192 50/193 53/194 
f 60/191 59/192 67/193 66/194 
f 59/191 71/192 68/193 67/194 
f 71/191 79/192 69/193 68/194 
f 79/191 60/192 66/193 69/194 
f 61/191 62/192 73/193 72/194 
f 62/191 77/192 74/193 73/194 
f 77/191 70/192 75/193 74/194 
f 70/191 61/192 72/193 75/194 
f 86/191 89/192 103/193 102/194 
f 89/191 107/192 104/193 103/194 
f 107/191 100/192 105/193 104/194 
f 100/191 86/192 102/193 105/194 
f 91/191 93/192 109/193 108/194 
f 93/191 113/192 110/193 109/194 
f 113/191 106/192 111/193 110/194 
f 106/191 91/192 108/193 111/194 
f 95/191 97/192 115/193 114/194 
f 97/191 119/192 116/193 115/194 
f 119/191 112/192 117/193 116/194 
f 112/191 95/192 114/193 117/194 
f 120/191 122/192 131/193 130/194 
f 122/191 135/192 132/193 131/194 
f 135/191 128/192 133/193 132/194 
f 128/191 120/192 130/193 133/194 
f 123/191 124/192 137/193 136/194 
f 124/191 141/192 138/193 137/194 
f 141/191 134/192 139/193 138/194 
f 134/191 123/192 136/193 139/194 
f 125/191 126/192 143/193 142/194 
f 126/191 147/192 144/193 143/194 
f 147/191 140/192 145/193 144/194 
f 140/191 125/192 142/193 145/194 
f 156/191 159/192 179/193 178/194 
f 159/191 183/192 180/193 179/194 
f 183/191 176/192 181/193 180/194 
f 176/191 156/192 178/193 181/194 
f 161/191 163/192 185/193 184/194 
f 163/191 189/192 186/193 185/194 
f 189/191 182/192 187/193 186/194 
f 182/191 161/192 184/193 187/194 
f 195/191 197/192 207/193 206/194 
f 197/191 211/192 208/193 207/194 
f 211/191 204/192 209/193 208/194 
f 204/191 195/192 206/193 209/194 
f 198/191 199/192 213/193 212/194 
f 199/191 217/192 214/193 213/194 
f 217/191 210/192 215/193 214/194 
f 210/191 198/192 212/193 215/194 
f 201/191 202/192 220/193 219/194 
f 202/191 224/192 221/193 220/194 
f 224/191 218/192 222/193 221/194 
f 218/191 201/192 219/193 222/194 
f 167/191 166/192 168/193 171/194 
f 172/191 175/192 170/193 169/194 
f 175/191 194/192 191/193 170/194 
f 194/191 190/192 192/193 191/194 
f 190/191 167/192 171/193 192/194 
usemtl top_ribbon
f 13/195 12/196 232/197 
f 7/198 17/199 16/200 225/201 226/202 227/203 228/204 229/205 230/206 231/207 6/208 
f 233/209 10/210 9/211 78/212 81/213 80/214 82/215 83/216 11/217 14/218 
usemtl xxx
f 8/9 234/42 28/219 
f 3/8 6/7 223/220 
f 203/221 193/222 3/8 
f 3/8 223/220 203/221 
f 173/42 4/4 3/8 
f 3/8 193/222 174/223 
f 3/8 174/223 173/42 
f 65/224 9/225 8/9 
f 31/226 43/227 8/9 
f 57/228 65/224 8/9 
f 8/9 28/219 31/226 
f 43/227 57/228 8/9 
usemtl ribbon_1
f 18/229 24/230 235/231 236/232 
f 24/233 13/234 232/235 235/236 
usemtl top_ribbon
f 15/237 18/238 236/239 
f 236/239 232/197 12/196 148/240 149/241 150/242 151/243 152/244 153/245 15/237 
usemtl ribbon_2
f 232/246 236/247 22/248 21/249 
f 236/250 235/251 23/252 22/253 
f 235/254 232/255 21/256 23/257 
usemtl front_right_r
f 237/258 2/2 1/1 
f 238/9 237/259 239/260 240/9 8/9 
usemtl xxx
f 234/42 8/9 241/261 242/42 
usemtl front_right_r
f 1/262 5/263 243/264 244/265 
usemtl roof_white
f 237/266 1/267 244/268 245/269 
usemtl xxx
f 8/9 240/9 246/270 241/9 
usemtl front_right_r
f 241/261 246/270 247/271 245/272 244/273 
f 244/262 243/263 248/264 249/265 
usemtl xxx
f 242/42 241/261 250/9 251/42 
usemtl roof_old_stone
f 250/274 241/275 252/276 
usemtl xxx
f 249/277 248/278 253/278 254/277 
f 251/42 250/9 255/9 256/42 
f 256/42 255/9 254/9 253/42 
usemtl roof_old_stone
f 249/279 254/280 257/281 
f 250/282 252/283 255/284 
f 257/285 254/286 255/284 252/283 
f 244/287 252/288 241/289 
f 257/290 252/288 244/287 249/291 
usemtl roof_white
f 237/266 245/269 247/292 239/293 
usemtl xxx
f 246/270 240/9 258/9 259/294 
usemtl front_right_r
f 240/9 239/260 260/260 258/9 
f 247/271 246/270 259/294 261/295 
f 239/296 247/297 261/298 260/299 
usemtl roof_white
f 261/300 259/301 258/302 260/303 
usemtl roof_old_stone
f 262/304 263/305 264/306 265/307 
usemtl front_right_r
f 266/258 267/2 268/1 
usemtl 24___Default
f 267/8 269/42 270/10 
usemtl front_right_r
f 269/258 271/2 272/1 
f 271/262 266/263 268/264 272/265 
usemtl roof_old_stone
f 273/308 274/309 265/310 264/311 
usemtl 24___Default
f 267/8 270/10 265/312 274/42 
f 270/10 269/42 262/7 265/312 
usemtl 22___Default
f 275/9 276/10 264/9 263/9 
f 276/10 277/7 273/7 264/9 
f 269/8 272/312 263/9 262/7 
f 272/9 275/9 263/9 
f 268/6 267/42 274/42 273/6 
f 277/7 268/7 273/7 
f 276/10 275/9 272/9 278/10 
f 277/7 276/10 278/10 268/7 
usemtl front_right_r
f 268/258 278/2 272/1 
usemtl 21___Default
f 279/313 280/314 281/315 282/316 
usemtl patches
f 283/317 284/318 280/319 279/320 
f 284/317 285/318 281/319 280/320 
f 285/317 286/318 282/319 281/320 
f 286/317 283/318 279/319 282/320 
usemtl 21___Default
f 287/321 288/42 289/322 290/323 
usemtl patches
f 291/317 292/318 288/319 287/320 
f 292/317 293/318 289/319 288/320 
f 293/317 294/318 290/319 289/320 
f 294/317 291/318 287/319 290/320 
usemtl 21___Default
f 295/324 296/325 297/326 298/327 
usemtl patches
f 299/317 300/318 296/319 295/320 
f 300/317 301/318 297/319 296/320 
f 301/317 302/318 298/319 297/320 
f 302/317 299/318 295/319 298/320 
f 303/328 304/329 305/330 306/331 
f 307/328 308/329 309/330 310/331 
f 304/328 311/329 312/330 305/331 
f 305/332 312/333 313/334 
f 314/328 303/329 306/330 315/331 
f 315/335 306/336 316/337 
f 313/328 316/329 310/330 309/331 
f 316/328 306/329 307/330 310/331 
f 305/328 313/329 309/330 308/331 
f 306/328 305/329 317/330 318/331 
f 305/328 308/329 319/330 317/331 
f 308/328 307/329 320/330 319/331 
f 307/328 306/329 318/330 320/331 
f 318/328 317/329 321/330 322/331 
f 317/328 319/329 323/330 321/331 
f 319/328 320/329 324/330 323/331 
f 320/328 318/329 322/330 324/331 
f 322/328 321/329 325/330 326/331 
f 321/328 323/329 327/330 325/331 
f 323/328 324/329 328/330 327/331 
f 324/328 322/329 326/330 328/331 
f 326/328 325/329 329/330 330/331 
f 325/328 327/329 331/330 329/331 
f 327/328 328/329 332/330 331/331 
f 328/328 326/329 330/330 332/331 
f 333/328 334/329 335/330 336/331 
f 337/328 338/329 339/330 340/331 
f 334/328 341/329 342/330 335/331 
f 335/332 342/333 343/334 
f 344/328 333/329 336/330 345/331 
f 345/335 336/336 346/337 
f 343/328 346/329 340/330 339/331 
f 346/328 336/329 337/330 340/331 
f 335/328 343/329 339/330 338/331 
f 336/328 335/329 347/330 348/331 
f 335/328 338/329 349/330 347/331 
f 338/328 337/329 350/330 349/331 
f 337/328 336/329 348/330 350/331 
f 348/328 347/329 351/330 352/331 
f 347/328 349/329 353/330 351/331 
f 349/328 350/329 354/330 353/331 
f 350/328 348/329 352/330 354/331 
f 352/328 351/329 355/330 356/331 
f 351/328 353/329 357/330 355/331 
f 353/328 354/329 358/330 357/331 
f 354/328 352/329 356/330 358/331 
f 356/328 355/329 359/330 360/331 
f 355/328 357/329 361/330 359/331 
f 357/328 358/329 362/330 361/331 
f 358/328 356/329 360/330 362/331 
f 363/328 364/329 365/330 366/331 
f 367/328 368/329 369/330 370/331 
f 364/328 371/329 372/330 365/331 
f 365/332 372/333 373/334 
f 374/328 363/329 366/330 375/331 
f 375/335 366/336 376/337 
f 373/328 376/329 370/330 369/331 
f 376/328 366/329 367/330 370/331 
f 365/328 373/329 369/330 368/331 
f 366/328 365/329 377/330 378/331 
f 365/328 368/329 379/330 377/331 
f 368/328 367/329 380/330 379/331 
f 367/328 366/329 378/330 380/331 
f 378/328 377/329 381/330 382/331 
f 377/328 379/329 383/330 381/331 
f 379/328 380/329 384/330 383/331 
f 380/328 378/329 382/330 384/331 
f 382/328 381/329 385/330 386/331 
f 381/328 383/329 387/330 385/331 
f 383/328 384/329 388/330 387/331 
f 384/328 382/329 386/330 388/331 
f 386/328 385/329 389/330 390/331 
f 385/328 387/329 391/330 389/331 
f 387/328 388/329 392/330 391/331 
f 388/328 386/329 390/330 392/331 
f 393/328 394/329 395/330 396/331 
f 397/328 398/329 399/330 400/331 
f 394/328 401/329 402/330 395/331 
f 395/332 402/333 403/334 
f 404/328 393/329 396/330 405/331 
f 405/335 396/336 406/337 
f 403/328 406/329 400/330 399/331 
f 406/328 396/329 397/330 400/331 
f 395/328 403/329 399/330 398/331 
f 396/328 395/329 407/330 408/331 
f 395/328 398/329 409/330 407/331 
f 398/328 397/329 410/330 409/331 
f 397/328 396/329 408/330 410/331 
f 408/328 407/329 411/330 412/331 
f 407/328 409/329 413/330 411/331 
f 409/328 410/329 414/330 413/331 
f 410/328 408/329 412/330 414/331 
f 412/328 411/329 415/330 416/331 
f 411/328 413/329 417/330 415/331 
f 413/328 414/329 418/330 417/331 
f 414/328 412/329 416/330 418/331 
f 416/328 415/329 419/330 420/331 
f 415/328 417/329 421/330 419/331 
f 417/328 418/329 422/330 421/331 
f 418/328 416/329 420/330 422/331 
usemtl balcony_edge
f 423/338 424/339 425/340 426/341 
usemtl balcony_under
f 427/342 428/343 424/344 423/345 
usemtl balcony_edge
f 428/346 429/347 425/348 424/349 
usemtl front_middle
f 429/350 430/351 426/352 425/353 
usemtl balcony_edge
f 430/354 427/355 423/356 426/357 
usemtl railing
f 431/358 432/359 433/360 434/361 
f 435/362 436/363 433/364 432/365 
f 437/366 438/367 431/368 434/369 
usemtl patches
f 439/328 440/329 441/330 442/331 
f 443/328 444/329 445/330 446/331 
f 444/328 447/329 448/330 445/331 
f 447/328 449/329 450/330 448/331 
f 449/328 443/329 446/330 450/331 
f 446/331 445/330 440/370 439/371 
f 445/331 448/330 441/370 440/371 
f 448/331 450/330 442/370 441/371 
f 450/331 446/330 439/370 442/371 
f 443/329 449/328 451/372 452/373 
f 449/329 447/328 453/372 451/373 
f 447/329 444/328 454/372 453/373 
f 444/329 443/328 452/372 454/373 
usemtl railing_sphere
f 455/374 456/375 457/376 
f 456/375 458/377 459/378 
f 456/375 459/378 457/376 
f 457/376 459/378 460/379 
f 455/374 457/376 461/380 
f 457/376 460/379 462/381 
f 457/376 462/381 461/380 
f 461/380 462/381 463/382 
f 455/374 461/380 464/383 
f 461/380 463/382 465/384 
f 461/380 465/384 464/383 
f 464/383 465/384 466/385 
f 455/374 464/383 456/375 
f 464/383 466/385 467/386 
f 464/383 467/386 456/375 
f 456/375 467/386 458/377 
f 468/387 469/388 470/389 
f 469/390 460/379 459/378 
f 469/390 459/378 470/391 
f 470/391 459/378 458/377 
f 468/392 471/393 469/390 
f 471/393 463/382 462/381 
f 471/393 462/381 469/390 
f 469/390 462/381 460/379 
f 468/387 472/394 471/393 
f 472/394 466/385 465/384 
f 472/394 465/384 471/393 
f 471/393 465/384 463/382 
f 468/387 470/391 472/394 
f 470/391 458/377 467/386 
f 470/391 467/386 472/394 
f 472/394 467/386 466/385 
usemtl patches
f 473/328 474/329 475/330 476/331 
f 477/328 478/329 479/330 480/331 
f 478/328 481/329 482/330 479/331 
f 481/328 483/329 484/330 482/331 
f 483/328 477/329 480/330 484/331 
f 480/331 479/330 474/370 473/371 
f 479/331 482/330 475/370 474/371 
f 482/331 484/330 476/370 475/371 
f 484/331 480/330 473/370 476/371 
f 477/329 483/328 485/372 486/373 
f 483/329 481/328 487/372 485/373 
f 481/329 478/328 488/372 487/373 
f 478/329 477/328 486/372 488/373 
usemtl railing_sphere
f 489/374 490/375 491/376 
f 490/375 492/377 493/378 
f 490/375 493/378 491/376 
f 491/376 493/378 494/379 
f 489/374 491/376 495/380 
f 491/376 494/379 496/381 
f 491/376 496/381 495/380 
f 495/380 496/381 497/382 
f 489/374 495/380 498/383 
f 495/380 497/382 499/384 
f 495/380 499/384 498/383 
f 498/383 499/384 500/385 
f 489/374 498/383 490/375 
f 498/383 500/385 501/386 
f 498/383 501/386 490/375 
f 490/375 501/386 492/377 
f 502/387 503/388 504/389 
f 503/390 494/379 493/378 
f 503/390 493/378 504/391 
f 504/391 493/378 492/377 
f 502/392 505/393 503/390 
f 505/393 497/382 496/381 
f 505/393 496/381 503/390 
f 503/390 496/381 494/379 
f 502/387 506/394 505/393 
f 506/394 500/385 499/384 
f 506/394 499/384 505/393 
f 505/393 499/384 497/382 
f 502/387 504/391 506/394 
f 504/391 492/377 501/386 
f 504/391 501/386 506/394 
f 506/394 501/386 500/385 
usemtl patches
f 507/328 508/329 509/330 510/331 
f 511/328 512/329 513/330 514/331 
f 512/328 515/329 516/330 513/331 
f 515/328 517/329 518/330 516/331 
f 517/328 511/329 514/330 518/331 
f 514/331 513/330 508/370 507/371 
f 513/331 516/330 509/370 508/371 
f 516/331 518/330 510/370 509/371 
f 518/331 514/330 507/370 510/371 
f 511/329 517/328 519/372 520/373 
f 517/329 515/328 521/372 519/373 
f 515/329 512/328 522/372 521/373 
f 512/329 511/328 520/372 522/373 
usemtl railing_sphere
f 523/374 524/375 525/376 
f 524/375 526/377 527/378 
f 524/375 527/378 525/376 
f 525/376 527/378 528/379 
f 523/374 525/376 529/380 
f 525/376 528/379 530/381 
f 525/376 530/381 529/380 
f 529/380 530/381 531/382 
f 523/374 529/380 532/383 
f 529/380 531/382 533/384 
f 529/380 533/384 532/383 
f 532/383 533/384 534/385 
f 523/374 532/383 524/375 
f 532/383 534/385 535/386 
f 532/383 535/386 524/375 
f 524/375 535/386 526/377 
f 536/387 537/388 538/389 
f 537/390 528/379 527/378 
f 537/390 527/378 538/391 
f 538/391 527/378 526/377 
f 536/392 539/393 537/390 
f 539/393 531/382 530/381 
f 539/393 530/381 537/390 
f 537/390 530/381 528/379 
f 536/387 540/394 539/393 
f 540/394 534/385 533/384 
f 540/394 533/384 539/393 
f 539/393 533/384 531/382 
f 536/387 538/391 540/394 
f 538/391 526/377 535/386 
f 538/391 535/386 540/394 
f 540/394 535/386 534/385 
usemtl patches
f 541/328 542/329 543/330 544/331 
f 545/328 546/329 547/330 548/331 
f 546/328 549/329 550/330 547/331 
f 549/328 551/329 552/330 550/331 
f 551/328 545/329 548/330 552/331 
f 548/331 547/330 542/370 541/371 
f 547/331 550/330 543/370 542/371 
f 550/331 552/330 544/370 543/371 
f 552/331 548/330 541/370 544/371 
f 545/329 551/328 553/372 554/373 
f 551/329 549/328 555/372 553/373 
f 549/329 546/328 556/372 555/373 
f 546/329 545/328 554/372 556/373 
usemtl railing_sphere
f 557/374 558/375 559/376 
f 558/375 560/377 561/378 
f 558/375 561/378 559/376 
f 559/376 561/378 562/379 
f 557/374 559/376 563/380 
f 559/376 562/379 564/381 
f 559/376 564/381 563/380 
f 563/380 564/381 565/382 
f 557/374 563/380 566/383 
f 563/380 565/382 567/384 
f 563/380 567/384 566/383 
f 566/383 567/384 568/385 
f 557/374 566/383 558/375 
f 566/383 568/385 569/386 
f 566/383 569/386 558/375 
f 558/375 569/386 560/377 
f 570/387 571/388 572/389 
f 571/390 562/379 561/378 
f 571/390 561/378 572/391 
f 572/391 561/378 560/377 
f 570/392 573/393 571/390 
f 573/393 565/382 564/381 
f 573/393 564/381 571/390 
f 571/390 564/381 562/379 
f 570/387 574/394 573/393 
f 574/394 568/385 567/384 
f 574/394 567/384 573/393 
f 573/393 567/384 565/382 
f 570/387 572/391 574/394 
f 572/391 560/377 569/386 
f 572/391 569/386 574/394 
f 574/394 569/386 568/385 
usemtl roof_white
f 14/28 26/27 575/395 233/396 
f 575/395 26/27 238/397 
f 26/27 20/16 3/29 2/398 237/399 238/397 
usemtl front_right_r
f 10/6 233/400 576/400 577/6 
f 27/401 10/402 577/403 578/404 
f 8/401 27/402 578/403 579/404 
f 233/401 575/402 580/403 576/404 
f 575/401 238/402 581/403 580/404 
usemtl 24___Default
f 238/9 8/9 579/9 581/9 
usemtl roof_white
f 580/405 581/406 579/407 578/408 
f 578/408 577/409 576/410 580/405 
usemtl front_left
f 32/34 35/37 30/411 29/412 
f 35/37 58/56 42/413 30/411 
f 58/56 60/58 56/414 42/413 
f 60/58 79/70 64/415 56/414 
f 79/70 81/72 78/416 64/415 
usemtl patches
s 1
f 582/330 583/331 584/328 585/329 
s 2
f 586/330 587/331 583/328 582/329 
s 1
f 588/330 589/331 587/328 586/329 
s 2
f 585/330 584/331 589/328 588/329 
s 1
f 590/330 582/331 585/328 591/329 
s 4
f 592/330 586/331 582/328 590/329 
s 1
f 593/330 588/331 586/328 592/329 
s 4
f 591/330 585/331 588/328 593/329 
s 1
f 594/330 590/331 591/328 595/329 
s 2
f 596/330 592/331 590/328 594/329 
s 1
f 597/330 593/331 592/328 596/329 
s 2
f 595/330 591/331 593/328 597/329 
s 4
f 587/329 589/330 584/331 583/328 
f 596/417 594/418 595/419 
f 597/420 596/417 595/419 
# 414 polygons - 173 triangles

