# 3ds Max Wavefront OBJ Exporter v0.97b - (c)2007 guruware
# File Created: 08.02.2012 18:57:10

mtllib Ryytli_20.mtl

#
# object Ryytli_20
#

v  -189.1254 -267.0431 22.2131
v  -182.3251 -269.0967 21.8777
v  -182.3251 -269.0967 22.5394
v  -182.3251 -269.0967 25.5640
v  -189.1145 -267.0458 25.5639
v  -182.5065 -267.2267 22.5416
v  -182.5065 -267.2267 23.2797
v  -182.5223 -268.0804 23.2682
v  -182.5223 -268.0804 22.5243
v  -188.6572 -264.4832 25.5640
v  -188.6681 -264.4810 22.2131
v  -182.2655 -269.1470 25.5924
v  -189.1240 -267.0938 25.5924
v  -182.2679 -266.0157 25.5640
v  -182.2661 -265.6705 25.5640
v  -182.2054 -265.6827 25.5840
v  -182.2905 -267.2307 25.5640
v  -182.3063 -268.0844 25.5640
v  -182.2655 -269.1469 25.6424
v  -189.1238 -267.0937 25.6424
v  -182.2047 -265.6834 25.6339
v  -188.6564 -264.4828 25.7307
v  -182.1641 -269.2609 25.6591
v  -189.1456 -267.2034 25.6592
v  -182.1048 -265.7035 25.6507
v  -182.1641 -269.2607 25.7391
v  -182.3390 -269.2198 25.7391
v  -189.1452 -267.2032 25.7392
v  -182.1048 -265.7043 25.7307
v  -182.2700 -267.3808 25.7348
v  -182.2080 -265.6861 25.7307
v  -182.2414 -266.6172 25.7330
v  -182.3289 -269.2196 25.8208
v  -189.1449 -267.2030 25.8209
v  -182.0462 -265.6805 28.2620
v  -182.0462 -265.6804 28.4205
v  -182.1783 -269.2602 25.8207
v  -182.1784 -269.2604 25.7062
v  -188.6692 -264.4821 28.1706
v  -182.4557 -267.3732 26.6690
v  -182.4558 -267.3737 26.0017
v  -182.4272 -266.6100 26.0041
v  -182.4270 -266.6093 26.6720
v  -182.1791 -269.3874 25.6185
v  -182.1791 -269.3871 25.7331
v  -182.3297 -269.3466 25.7332
v  -182.3297 -269.3468 25.6186
v  -182.2697 -267.3799 27.0266
v  -182.1971 -265.6701 28.4149
v  -182.2068 -265.6747 28.2620
v  -182.2409 -266.6153 27.5615
v  -182.2411 -266.6162 26.6720
v  -182.2413 -266.6169 26.0040
v  -182.2699 -267.3806 26.0016
v  -182.2698 -267.3801 26.6690
v  -182.2679 -266.0157 24.7252
v  -182.2668 -265.6806 22.5758
v  -182.2679 -266.0157 23.2961
v  -182.2679 -266.0157 22.5662
v  -182.2905 -267.2307 23.2797
v  -182.2905 -267.2307 22.5416
v  -182.3063 -268.0844 22.5243
v  -182.3063 -268.0844 23.2682
v  -182.3063 -268.0844 24.7112
v  -182.2905 -267.2307 24.7170
v  -182.5065 -267.2267 24.7170
v  -182.5223 -268.0804 24.7112
v  -182.4839 -266.0117 23.2961
v  -182.4839 -266.0117 24.7252
v  -182.1969 -265.9057 24.7696
v  -182.2563 -268.3435 24.7696
v  -182.3421 -268.3354 24.7696
v  -182.2827 -265.8976 24.7696
v  -182.1969 -265.9057 24.9019
v  -182.2827 -265.8976 24.9019
v  -182.3421 -268.3354 24.9019
v  -182.2563 -268.3435 24.9019
v  -182.2563 -268.3435 24.8357
v  -182.3421 -268.3354 24.8357
v  -182.1969 -265.9057 24.8357
v  -182.1270 -265.9089 24.9019
v  -182.1863 -268.3468 24.9019
v  -182.1863 -268.3468 24.8357
v  -182.1270 -265.9089 24.8357
v  -182.2827 -265.8976 24.8357
v  -181.4401 -266.9957 22.5275
v  -182.3034 -266.9572 22.5275
v  -182.3549 -268.1009 22.5152
v  -181.4916 -268.1394 22.5275
v  -181.4401 -266.9957 22.3714
v  -181.4054 -266.2164 22.0493
v  -181.4054 -266.2164 21.8858
v  -182.2687 -266.1780 21.8858
v  -182.2687 -266.1780 22.0493
v  -182.2919 -266.6975 22.3714
v  -181.4286 -266.7359 22.3714
v  -181.4286 -266.7359 22.2128
v  -182.2919 -266.6975 22.2128
v  -182.3034 -266.9572 22.3714
v  -181.4166 -266.4662 22.2128
v  -182.2799 -266.4278 22.2128
v  -181.4166 -266.4662 22.0493
v  -182.2799 -266.4278 22.0493
v  -181.4166 -266.4662 21.8858
v  -181.4530 -267.0916 22.5257
v  -181.4183 -266.3123 22.0092
v  -181.4519 -266.3103 22.9079
v  -181.4866 -267.0897 23.4244
v  -181.5278 -268.1194 23.4244
v  -181.4942 -268.1214 22.5257
v  -182.3111 -268.0925 23.4290
v  -182.3111 -268.0925 22.5290
v  -187.5814 -267.3290 27.0837
v  -187.6548 -267.6147 26.7255
v  -186.7605 -267.8444 26.7255
v  -186.6871 -267.5587 27.0837
v  -186.8530 -267.7453 26.7992
v  -187.5259 -267.5724 26.7992
v  -187.5259 -267.5724 25.7292
v  -186.8530 -267.7453 25.7292
v  -186.7426 -267.3153 25.7292
v  -186.7426 -267.3153 26.7992
v  -186.7978 -267.5303 27.0687
v  -187.4155 -267.1425 26.7992
v  -187.4155 -267.1425 25.7292
v  -187.4707 -267.3575 27.0687
v  -186.6137 -267.2730 26.7255
v  -187.5080 -267.0433 26.7255
v  -183.0545 -270.4918 21.8765
v  -183.0138 -269.6039 21.8765
v  -183.0138 -269.6039 22.5362
v  -183.0545 -270.4918 22.5362
v  -183.1548 -271.1641 25.0721
v  -183.0342 -268.8583 25.0721
v  -183.0342 -268.8583 21.8777
v  -183.1556 -271.1796 21.8777
v  -182.4268 -271.4432 24.8491
v  -182.3251 -269.0967 24.8483
v  -182.4054 -270.6231 24.0083
v  -182.3647 -269.6979 24.0083
v  -182.4554 -271.4449 22.5845
v  -182.4114 -270.6059 22.5802
v  -183.0545 -270.4918 24.0083
v  -183.0138 -269.6039 24.0083
v  -182.3647 -269.6979 22.5393
v  -181.4286 -266.7359 22.0501
v  -181.4401 -266.9957 22.2161
v  -181.4916 -268.1394 22.3886
v  -182.3209 -268.1024 22.3691
v  -182.3063 -268.0844 21.8838
v  -182.2905 -267.2307 21.8847
v  -181.4917 -268.1394 21.8858
v  -182.3549 -268.1009 21.8858
v  -181.4401 -266.9957 21.8858
v  -181.4286 -266.7359 21.8858
v  -182.3647 -269.6979 21.8765
v  -182.2679 -266.0156 21.8860
v  -182.2668 -265.6806 21.8863
v  -182.4054 -270.6231 21.8765
v  -182.4661 -271.4449 21.9453
# 160 vertices

vn -0.2891 -0.9573 0.0000
vn -0.2891 -0.9573 -0.0001
vn -0.2892 -0.9573 0.0002
vn 0.9998 -0.0185 0.0000
vn -0.9844 0.1757 0.0033
vn -0.1934 -0.6461 -0.7383
vn -0.1460 -0.4835 -0.8631
vn 0.3129 -0.0016 -0.9498
vn 0.3350 -0.0062 -0.9422
vn 0.3343 -0.0062 -0.9424
vn 0.4236 -0.0095 -0.9058
vn -0.9839 0.1756 -0.0319
vn -0.2868 -0.9580 0.0035
vn -0.2868 -0.9580 0.0018
vn 0.9998 -0.0176 0.0000
vn 0.9997 -0.0174 -0.0149
vn -0.9844 0.1761 0.0038
vn -0.9844 0.1761 0.0035
vn -0.0573 -0.1945 -0.9792
vn -0.0428 -0.1429 -0.9888
vn 0.1644 -0.0053 -0.9864
vn 0.1571 -0.0049 -0.9876
vn -0.9785 0.1786 -0.1033
vn -0.2278 -0.9737 0.0022
vn -0.2805 -0.9518 -0.1242
vn -0.2841 -0.9588 0.0040
vn 0.9999 -0.0167 0.0000
vn 0.9999 -0.0167 0.0004
vn -0.9842 0.1768 0.0044
vn 0.0010 0.0023 1.0000
vn 0.0005 0.0023 1.0000
vn 0.0005 0.0024 1.0000
vn 0.0014 0.0023 1.0000
vn -0.2837 -0.9589 0.0032
vn -0.2839 -0.9581 0.0372
vn 0.9993 -0.0369 0.0000
vn 0.9993 -0.0363 -0.0009
vn -0.9842 0.1768 0.0033
vn -0.9843 0.1766 -0.0052
vn 0.9993 -0.0374 -0.0001
vn 0.9993 -0.0375 -0.0003
vn -0.2597 -0.9657 0.0026
vn -0.2602 -0.9655 0.0018
vn 0.1116 0.5747 -0.8107
vn -0.0226 0.5738 -0.8187
vn 0.0682 0.9977 -0.0006
vn 0.0357 0.9988 -0.0328
vn -0.9973 -0.0732 0.0001
vn -0.9894 -0.0783 0.1225
vn 0.1507 0.5612 -0.8138
vn 0.0259 0.6890 -0.7243
vn 1.0000 -0.0056 -0.0009
vn 1.0000 -0.0054 0.0000
vn 0.1742 0.9847 0.0099
vn 0.1918 0.9809 0.0334
vn 0.1703 0.9848 0.0328
vn 0.1937 0.9810 0.0115
vn 0.9993 -0.0361 -0.0002
vn 0.9994 -0.0359 -0.0003
vn 0.9994 -0.0358 -0.0003
vn 0.9993 -0.0375 -0.0004
vn 0.9993 -0.0375 -0.0001
vn 0.9993 -0.0374 -0.0003
vn 0.9993 -0.0375 -0.0002
vn 0.9993 -0.0374 -0.0004
vn -0.0372 -0.9993 0.0010
vn -0.0371 -0.9993 0.0011
vn 0.0001 0.0039 -1.0000
vn 0.0371 0.9993 -0.0007
vn 0.0372 0.9993 -0.0008
vn 0.0004 -0.0032 1.0000
vn 1.0000 -0.0053 0.0000
vn 1.0000 -0.0048 -0.0002
vn 1.0000 -0.0047 -0.0002
vn 1.0000 -0.0033 0.0000
vn 0.9998 -0.0186 0.0000
vn 0.9998 -0.0186 -0.0000
vn -0.0185 -0.9998 0.0000
vn 0.0001 0.0067 -1.0000
vn 0.0001 0.0068 -1.0000
vn 0.0185 0.9998 0.0000
vn -0.0002 -0.0135 0.9999
vn 0.0000 0.0000 -1.0000
vn 0.0000 0.0000 1.0000
vn -0.0942 -0.9956 0.0000
vn 0.9997 -0.0244 0.0000
vn 0.9997 -0.0243 0.0000
vn 0.0938 0.9956 0.0000
vn -0.0470 -0.9989 0.0000
vn 0.0458 0.9990 0.0000
vn -0.0005 -0.0107 0.9999
vn -0.0142 0.0006 0.9999
vn 0.9990 -0.0450 0.0000
vn 0.0444 0.9990 0.0000
vn 0.0445 0.9990 0.0000
vn 0.9990 -0.0442 0.0000
vn 0.9990 -0.0448 0.0000
vn 0.9991 -0.0197 0.0374
vn 0.9985 -0.0399 0.0374
vn 0.9985 -0.0400 0.0373
vn -0.0343 -0.9994 0.0009
vn -0.0353 -0.9994 0.0000
vn -0.1920 -0.7477 0.6357
vn -0.2489 -0.9685 0.0000
vn 0.9686 -0.2487 0.0000
vn 0.9686 -0.2486 0.0000
vn 0.2488 0.9686 0.0000
vn -0.9686 0.2487 0.0000
vn -0.9686 0.2488 0.0000
vn 0.1920 0.7477 0.6357
vn 0.9990 -0.0458 0.0000
vn -0.9986 0.0522 0.0000
vn 0.2886 -0.0122 0.9574
vn 0.2962 -0.0155 0.9550
vn 0.9989 -0.0433 -0.0168
vn 0.9989 -0.0439 -0.0156
vn 0.9986 -0.0524 -0.0048
vn 0.9992 -0.0390 -0.0126
vn 0.1983 0.9801 0.0110
vn 0.1747 0.9846 0.0000
vn 0.9978 -0.0657 0.0000
vn -0.1433 -0.9897 0.0000
vn 0.9990 -0.0445 0.0000
vn -0.0446 -0.9990 0.0001
vn -0.0446 -0.9990 -0.0001
vn -0.0446 -0.9990 0.0000
vn -0.1708 -0.5772 0.7985
vn -0.1447 -0.6321 0.7613
vn -0.1549 -0.5768 0.8021
vn -0.0703 -0.5869 0.8066
vn 0.2336 0.5514 -0.8008
vn 0.0213 0.5967 -0.8022
vn -0.1506 -0.5607 0.8142
vn -0.1503 -0.5610 0.8140
vn -0.0004 -0.0203 0.9998
vn 0.9990 -0.0451 -0.0002
vn -0.1433 -0.9897 -0.0000
vn 0.9986 -0.0523 0.0098
vn 0.9970 -0.0751 -0.0167
vn 0.1762 0.9841 -0.0225
vn 0.1983 0.9801 0.0000
# 141 vertex normals

vt -3.3815 -2.4908 0.7577
vt 3.6712 -2.8262 -0.0906
vt 3.6712 -2.1573 -0.0906
vt 3.6712 0.8601 -0.0906
vt -3.3704 0.8600 0.7569
vt 0.9995 0.0084 1.2500
vt 0.9995 0.3447 0.7500
vt 0.0005 0.3394 0.2500
vt 0.0005 0.0005 0.7500
vt 0.2431 0.8600 -3.3704
vt -1.9827 0.8700 -3.3191
vt -1.9830 -2.4908 -3.3303
vt 0.2423 -2.4908 -3.3815
vt -2.6712 -0.0906 0.8601
vt -2.7386 -0.1298 0.8885
vt 4.3714 0.7080 0.8885
vt 4.3704 0.7569 0.8600
vt -2.1954 2.9541 0.8601
vt -2.1269 3.3924 0.8601
vt -2.1947 3.3397 0.8801
vt -2.3830 1.7534 0.8601
vt -2.5149 0.9098 0.8601
vt 0.2920 0.8885 -3.3714
vt 3.7386 0.9385 -0.1296
vt -3.3712 0.9385 0.7081
vt -3.3714 0.8885 0.7080
vt 3.7386 0.8885 -0.1298
vt 3.3399 0.9301 3.1947
vt -0.1296 0.9385 3.7386
vt -0.1298 0.8885 3.7386
vt 3.3397 0.8801 3.1947
vt 0.2919 0.9385 -3.3712
vt -1.9829 0.9300 -3.3189
vt -2.7386 -0.1296 0.9385
vt -2.8581 -0.2244 0.9552
vt 4.3737 0.5963 0.9553
vt 4.3712 0.7081 0.9385
vt -2.1947 3.3399 0.9301
vt -2.2945 3.3575 0.9468
vt 0.4037 0.9553 -3.3737
vt 3.8581 0.9552 -0.2244
vt 3.8581 1.0352 -0.2242
vt 3.6788 1.0352 -0.2142
vt -3.3737 0.9553 0.5963
vt -3.3735 1.0353 0.5965
vt 3.3578 1.0268 3.2945
vt -0.2242 1.0352 3.8581
vt -0.2244 0.9552 3.8581
vt 3.3575 0.9468 3.2945
vt 0.4035 1.0353 -3.3735
vt -1.9831 0.9868 -3.3187
vt 2.6061 1.5687 -6.2784
vt -1.7313 0.6419 -6.3403
vt 0.3659 0.0690 -6.3100
vt 2.5682 0.2692 -6.2784
vt -1.7465 -0.1231 -6.3403
vt -0.5486 -0.0142 -6.3231
vt 3.6887 1.1169 -0.2122
vt -3.3732 1.1170 0.5967
vt 3.0258 -0.2632 0.5390
vt 3.1268 0.5759 0.5213
vt -1.6713 1.0347 0.4692
vt -1.7444 0.4286 0.4819
vt 0.4033 1.1170 -3.3732
vt -2.4157 3.6054 -3.3862
vt 0.0012 0.9950 0.5000
vt 0.0005 0.0005 0.5000
vt 0.9986 0.0041 1.5000
vt 0.9995 0.9995 0.5000
vt 3.8652 0.9146 -0.3516
vt 3.8652 1.0292 -0.3514
vt 3.7099 1.0292 -0.3374
vt 3.7099 0.9147 -0.3377
vt -2.4292 1.6101 2.3226
vt -2.3489 3.3828 3.5581
vt -2.8440 -0.2264 1.0023
vt -2.6788 -0.2142 1.0352
vt -2.1857 3.8262 3.4417
vt -2.3489 3.7166 3.3830
vt -2.3489 3.5581 3.3828
vt -2.1897 3.5581 3.3607
vt 1.2142 1.0352 3.6788
vt 1.3377 0.9147 3.7099
vt 1.3374 1.0292 3.7099
vt 1.2122 1.1169 3.6887
vt -2.8652 -0.3516 0.9146
vt -2.7099 -0.3377 0.9147
vt -1.8366 1.0666 0.4934
vt -1.9097 0.4605 0.5061
vt -2.1896 1.0268 3.3578
vt -2.2945 1.0268 3.3578
vt -2.2945 0.9468 3.3575
vt -2.1947 0.9301 3.3399
vt -2.1269 0.8601 3.3924
vt -2.1947 0.8801 3.3397
vt 3.3607 3.5581 3.1897
vt 2.3681 2.8576 3.3255
vt 2.3671 1.9681 3.3255
vt 3.3578 1.0268 3.1896
vt 2.3664 1.3001 3.3255
vt 2.3661 1.0291 3.3254
vt -0.2142 1.0352 3.6788
vt 1.6091 1.0309 3.4291
vt 1.6093 1.2977 3.4291
vt 1.6098 1.9651 3.4292
vt 1.6101 2.3226 3.4292
vt 3.1412 1.9681 2.3419
vt 3.1412 1.3002 2.3412
vt 3.3255 1.3001 2.3664
vt 3.3255 1.9681 2.3671
vt -2.2449 1.5845 1.9651
vt -2.1412 2.3419 1.9681
vt -2.3255 2.3671 1.9681
vt -2.4292 1.6098 1.9651
vt -2.2449 1.2978 1.5840
vt -2.2449 1.9651 1.5845
vt -2.4292 1.9651 1.6098
vt -2.4291 1.2977 1.6093
vt 3.1412 2.3412 1.3002
vt 3.2449 1.5840 1.2978
vt 3.4291 1.6093 1.2977
vt 3.3255 2.3664 1.3001
vt 3.3924 0.8601 3.1269
vt 2.9541 0.8601 3.1954
vt 2.9541 0.0213 3.1954
vt 3.3924 -2.1282 3.1269
vt 2.9541 -1.4078 3.1954
vt 2.9541 -2.1378 3.1954
vt 1.7534 -1.4242 3.3830
vt 1.7534 -2.1623 3.3830
vt -0.0906 -2.1573 3.6712
vt 0.9098 -2.1796 3.5149
vt 0.9098 -1.4357 3.5149
vt -0.0906 0.8601 3.6712
vt 0.9098 0.0073 3.5149
vt 0.9098 0.8601 3.5149
vt 1.7534 0.0131 3.3830
vt 1.7534 0.8601 3.3830
vt 0.0005 0.9969 0.0000
vt 0.9995 0.0118 0.5000
vt 0.0005 0.9938 0.5000
vt 0.0005 0.0005 1.0000
vt 2.9820 0.0213 2.9207
vt 2.9820 -1.4078 2.9207
vt 3.1954 -1.4078 2.9541
vt 3.1954 0.0213 2.9541
vt -2.1696 1.7201 0.0131
vt -1.9820 2.9207 0.0213
vt -2.1954 2.9541 0.0213
vt -2.3830 1.7534 0.0131
vt -2.3014 0.8765 0.0073
vt -2.5149 0.9098 0.0073
vt -2.3014 -1.4357 0.8765
vt -2.3014 0.0073 0.8765
vt -2.5149 0.0073 0.9098
vt -2.5149 -1.4357 0.9098
vt -2.3014 -2.1796 0.8765
vt -2.5149 -2.1796 0.9098
vt 3.1696 -1.4242 1.7201
vt 3.1696 -2.1623 1.7201
vt 3.3830 -2.1623 1.7534
vt 3.3830 -1.4242 1.7534
vt 2.9820 2.9207 -1.4078
vt 3.1696 1.7201 -1.4242
vt 3.3830 1.7534 -1.4242
vt 3.1954 2.9541 -1.4078
vt -2.2463 3.0747 0.0657
vt -2.6089 0.6632 0.0657
vt -2.5230 0.6564 0.0657
vt -2.1604 3.0678 0.0657
vt -1.4019 0.0386 -12.4329
vt -1.4062 -0.5942 -12.4329
vt 1.5113 -0.0933 -12.4329
vt 1.5156 0.5395 -12.4329
vt 3.6089 0.1318 0.6632
vt 3.5230 0.1318 0.6564
vt 3.5230 0.0657 0.6564
vt 3.6089 0.0657 0.6632
vt 3.6089 0.1980 0.6632
vt 3.5230 0.1980 0.6564
vt 3.0747 0.1318 3.2463
vt 0.6632 0.1318 3.6089
vt 0.6632 0.0657 3.6089
vt 3.0747 0.0657 3.2463
vt 3.0835 0.1980 3.3158
vt 0.6721 0.1980 3.6784
vt 0.6721 0.1318 3.6784
vt 3.0835 0.1318 3.3158
vt -2.1604 0.1318 3.0678
vt -2.2463 0.1318 3.0747
vt -2.2463 0.0657 3.0747
vt -2.1604 0.0657 3.0678
vt -2.1604 0.1980 3.0678
vt -2.2463 0.1980 3.0747
vt 1.5151 1.0543 -12.4329
vt -1.4024 0.5534 -12.4329
vt 3.6784 0.1318 0.6721
vt 3.6784 0.1980 0.6721
vt -2.3158 3.0835 0.1318
vt -2.6784 0.6721 0.1318
vt -2.6089 0.6632 0.1318
vt -2.2463 3.0747 0.1318
vt -2.3158 0.1980 3.0835
vt -2.3158 0.1318 3.0835
vt 0.8530 0.6899 0.7781
vt 0.1102 0.5935 0.7781
vt 0.2341 -0.3603 0.7674
vt 0.9768 -0.2639 0.7781
vt -0.2639 0.7781 0.9768
vt 0.6899 0.6428 0.8530
vt 0.6899 0.7781 0.8530
vt 0.2341 0.3636 1.3603
vt 0.2341 0.2219 1.3603
vt 0.9768 0.2219 1.2639
vt 0.9768 0.3636 1.2639
vt 0.9188 0.6428 0.8170
vt 0.1761 0.6428 0.9134
vt 0.1761 0.5053 0.9134
vt 0.9188 0.5053 0.8170
vt 0.8898 0.7781 0.5935
vt 0.1470 0.7781 0.6899
vt 0.1470 0.6428 0.6899
vt 0.8898 0.6428 0.5935
vt 0.8239 0.9134 0.6428
vt 0.0812 0.8170 0.6428
vt 0.1102 0.5935 0.6428
vt 0.8530 0.6899 0.6428
vt 0.9134 0.5053 0.8239
vt 0.9134 0.6428 0.8239
vt 0.7938 1.1455 0.5053
vt 0.0511 1.0490 0.5053
vt 0.0812 0.8170 0.5053
vt 0.8239 0.9134 0.5053
vt 0.2062 0.3636 1.1455
vt 0.9489 0.3636 1.0490
vt 0.9489 0.5053 1.0490
vt 0.2062 0.5053 1.1455
vt 0.7659 1.3603 0.3636
vt 0.0232 1.2639 0.3636
vt 0.0511 1.0490 0.3636
vt 0.7938 1.1455 0.3636
vt 1.3603 0.2219 0.7659
vt 1.3603 0.3636 0.7659
vt 1.1455 0.3636 0.7938
vt 1.1455 0.2219 0.7938
vt 0.0005 0.3471 0.0010
vt 0.9995 0.3360 1.0000
vt 0.9995 0.9884 1.0000
vt 0.0005 0.9995 0.0010
vt 0.9995 0.0005 0.8313
vt 0.9995 0.9995 0.8313
vt 0.0176 0.9995 0.9995
vt 0.0176 0.0005 0.9995
vt 0.9995 0.0005 0.0176
vt 0.9995 0.9995 0.0176
vt 0.0005 0.9995 0.0005
vt 0.0005 0.0005 0.0005
vt 0.3631 0.5854 0.5000
vt 0.3631 0.3972 0.5000
vt 0.7413 0.3972 0.5000
vt 0.7413 0.5854 0.5000
vt -1.0221 2.0953 0.4585
vt -1.7147 2.0953 0.5125
vt -1.7147 1.0253 0.5125
vt -1.0221 1.0253 0.4585
vt 0.4585 1.0253 -1.0221
vt 0.9011 1.0253 -0.9875
vt 0.9011 2.0953 -0.9875
vt 0.6798 2.3648 -1.0048
vt 0.4585 2.0953 -1.0221
vt 2.6802 2.0953 0.9551
vt 1.9875 2.0953 0.9011
vt 1.9875 1.0253 0.9011
vt 2.6802 1.0253 0.9551
vt 0.0449 1.0253 -1.6802
vt 0.4875 1.0253 -1.7147
vt 0.4875 2.0953 -1.7147
vt 0.2662 2.3648 -1.6974
vt 0.0449 2.0953 -1.6802
vt 0.7422 0.5967 0.5000
vt 0.3640 0.5967 0.5000
vt 0.3640 0.4086 0.5000
vt 0.7422 0.4086 0.5000
vt 0.9995 0.0005 1.0000
vt 0.9995 0.2953 1.0000
vt 0.0005 0.2953 0.5000
vt 3.3335 0.3682 3.2185
vt 0.9782 0.3682 2.9316
vt 0.9782 -2.8262 2.9316
vt 3.3335 -2.8262 3.2185
vt 0.0920 0.6653 0.5000
vt 0.0115 0.3594 0.5000
vt 0.9816 0.3594 0.5000
vt 1.0639 0.6654 0.5000
vt -0.0906 0.1444 3.6712
vt -2.4417 0.1444 3.9573
vt -1.6079 -0.6956 3.8558
vt -0.6896 -0.6956 3.7360
vt -2.4417 -2.1634 3.9573
vt -1.6079 -2.1677 3.8558
vt -2.7360 -0.6896 -0.6956
vt -2.8558 -1.6079 -0.6956
vt -2.1938 -1.5907 -0.6956
vt -2.0804 -0.7091 -0.6956
vt -2.1938 -0.6956 -1.5907
vt -2.8558 -0.6956 -1.6079
vt -2.8558 -2.1677 -1.6079
vt -2.1938 -2.1677 -1.5907
vt 0.0005 0.9995 0.0000
vt -0.0906 -2.1646 3.6712
vt -0.6896 -2.1646 3.7360
vt 3.0804 -2.1677 -0.7091
vt 3.7360 -2.1646 -0.6896
vt 3.7360 -0.6956 -0.6896
vt 3.0804 -0.6956 -0.7091
vt 0.9134 0.3643 0.8239
vt 1.1455 0.5053 0.7938
vt 0.6899 0.5082 0.8530
vt -0.2639 0.6577 0.9768
vt 0.9768 0.7781 -0.2639
vt 0.2341 0.7674 -0.3603
vt 0.2633 0.6408 -0.3565
vt 0.9768 0.6577 -0.2639
vt -0.5549 0.1472 0.1314
vt 1.5894 -0.0469 0.0353
vt 1.4437 1.0527 0.9995
vt -0.5514 1.0140 0.9995
vt 1.6365 -0.0499 0.0331
vt 1.4891 1.0589 0.9995
vt 1.4873 1.0586 0.9406
vt 1.5096 0.5222 0.4837
vt 1.4780 0.7591 0.6825
vt 1.4393 1.0504 0.9429
vt 1.5958 -0.0859 0.0027
vt 1.6429 -0.0890 0.0005
vt 0.6617 0.6456 0.7446
vt 0.6613 0.3360 0.7446
vt 1.0848 0.6538 0.6876
vt 1.0845 0.3470 0.6876
vt 1.6870 0.6654 0.6066
vt -0.0704 0.5806 0.6538
vt 0.3527 0.6375 0.6456
vt 0.3383 0.7446 0.6456
vt -0.0848 0.6876 0.6538
vt 0.6737 1.1514 0.6959
vt 0.4223 1.1514 0.6962
vt 0.6736 0.7218 0.6495
vt 0.6959 0.3263 1.1514
vt 1.2651 0.3257 1.0901
vt 0.6962 0.5777 1.1514
vt 1.3943 0.3256 1.0761
vt 1.3944 0.4077 1.0761
vt 1.2653 0.4908 1.0901
vt 1.3945 0.4891 1.0761
vt 1.5287 0.4072 1.0615
vt 1.5286 0.3254 1.0615
vt 0.1600 0.6537 0.8121
vt -0.1402 0.6540 0.8381
vt -0.1405 0.3226 0.8381
vt 0.1596 0.3229 0.8121
vt 0.6774 0.5102 -0.1433
vt 0.6774 0.8381 -0.1405
vt 0.3460 0.8381 -0.1402
vt 0.3475 0.5102 -0.1429
vt 1.6867 0.3627 0.6066
vt 1.8524 0.3685 0.5818
vt 1.8527 0.6700 0.5818
vt -0.6008 0.3231 0.8882
vt -0.5924 0.6750 0.8839
vt -1.0104 0.6776 0.9258
vt -1.0116 0.3580 0.9205
vt 0.6529 0.5574 -0.5848
vt 0.6750 0.8839 -0.5924
vt 0.3231 0.8882 -0.6008
vt 0.3231 0.5574 -0.5852
vt 0.1600 0.6573 0.8121
vt 0.4320 0.7387 0.6516
vt 1.2654 0.5685 1.0901
# 378 texture coords

g Ryytli_20
usemtl Material__43
s off
f 1/1/1 2/2/2 3/3/2 
f 3/3/1 4/4/1 1/1/1 
f 1/1/3 4/4/3 5/5/3 
usemtl Material__49
f 6/6/4 7/7/4 8/8/4 
f 8/8/4 9/9/4 6/6/4 
usemtl Material__43
f 5/10/5 10/11/5 11/12/5 
f 11/12/5 1/13/5 5/10/5 
f 4/14/6 12/15/6 13/16/6 
f 13/16/7 5/17/7 4/14/7 
f 14/18/8 15/19/8 16/20/8 
f 16/20/9 17/21/9 14/18/9 
f 18/22/10 17/21/10 16/20/10 
f 16/20/9 4/14/9 18/22/9 
f 4/14/11 16/20/11 12/15/11 
f 5/10/12 13/23/12 10/11/12 
f 19/24/13 20/25/13 13/26/13 
f 13/26/14 12/27/14 19/24/14 
f 21/28/15 19/29/15 12/30/15 
f 12/30/16 16/31/16 21/28/16 
f 20/32/17 22/33/17 10/11/17 
f 10/11/18 13/23/18 20/32/18 
f 19/34/19 23/35/19 24/36/19 
f 24/36/20 20/37/20 19/34/20 
f 19/34/21 21/38/21 25/39/21 
f 25/39/22 23/35/22 19/34/22 
f 20/32/23 24/40/23 22/33/23 
f 23/41/24 26/42/24 27/43/24 
f 27/43/25 24/44/25 23/41/25 
f 24/44/26 27/43/26 28/45/26 
f 29/46/27 26/47/27 23/48/27 
f 23/48/28 25/49/28 29/46/28 
f 24/40/29 28/50/29 22/51/29 
usemtl Material__46
f 26/52/30 29/53/30 30/54/30 
f 30/54/31 27/55/31 26/52/31 
f 29/53/32 31/56/32 32/57/32 
f 32/57/33 30/54/33 29/53/33 
usemtl Material__43
f 33/58/34 34/59/34 28/45/34 
f 28/45/35 27/43/35 33/58/35 
usemtl Material__46
f 35/60/36 36/61/36 37/62/36 
f 37/62/37 38/63/37 35/60/37 
usemtl Material__43
f 22/51/38 28/50/38 34/64/38 
f 34/64/39 39/65/39 22/51/39 
usemtl Material__45
f 40/66/40 41/67/40 42/68/40 
f 42/68/41 43/69/41 40/66/41 
usemtl Material__43
f 44/70/42 45/71/42 46/72/42 
f 46/72/43 47/73/43 44/70/43 
f 48/74/44 35/75/44 38/76/44 
f 38/76/45 27/77/45 48/74/45 
f 49/78/46 36/79/46 35/80/46 
f 35/80/47 50/81/47 49/78/47 
f 27/82/48 47/83/48 46/84/48 
f 46/84/49 33/85/49 27/82/49 
f 38/76/50 44/86/50 47/87/50 
f 47/87/51 27/77/51 38/76/51 
usemtl Material__46
f 38/63/52 37/62/52 45/88/52 
f 45/88/53 44/89/53 38/63/53 
usemtl Material__43
f 31/90/54 29/91/54 25/92/54 
f 25/92/55 21/93/55 31/90/55 
f 15/94/56 31/90/56 21/93/56 
f 21/93/57 16/95/57 15/94/57 
f 50/96/58 51/97/58 52/98/58 
f 52/98/59 31/99/59 50/96/59 
f 31/99/60 52/98/60 53/100/60 
f 53/100/60 32/101/60 31/99/60 
f 27/102/61 30/103/61 54/104/61 
f 54/104/62 55/105/62 27/102/62 
f 48/106/63 27/102/63 55/105/63 
f 52/98/64 51/97/64 48/106/64 
f 48/106/41 55/105/41 52/98/41 
f 32/101/63 53/100/63 54/104/63 
f 54/104/65 30/103/65 32/101/65 
f 43/107/66 42/108/66 53/109/66 
f 53/109/67 52/110/67 43/107/67 
f 40/111/68 43/112/68 52/113/68 
f 52/113/68 55/114/68 40/111/68 
f 41/115/69 40/116/69 55/117/69 
f 55/117/70 54/118/70 41/115/70 
f 42/119/71 41/120/71 54/121/71 
f 54/121/71 53/122/71 42/119/71 
f 15/123/72 14/124/72 56/125/72 
f 56/125/73 57/126/74 15/123/73 
f 57/126/75 56/125/75 58/127/75 
f 58/127/75 59/128/75 57/126/75 
f 59/128/76 58/127/76 60/129/76 
f 60/129/76 61/130/76 59/128/76 
f 3/131/76 62/132/76 63/133/76 
f 63/133/76 4/134/76 3/131/77 
f 4/134/76 63/133/76 64/135/76 
f 64/135/76 18/136/76 4/134/76 
f 64/135/4 65/137/4 17/138/4 
f 17/138/4 18/136/4 64/135/4 
usemtl Material__49
f 7/7/4 66/69/4 67/139/4 
f 67/139/4 8/8/4 7/7/4 
usemtl Material__43
f 65/137/76 56/125/76 14/124/76 
f 14/124/76 17/138/76 65/137/76 
usemtl Material__50
f 68/140/76 69/69/76 66/141/76 
f 66/141/76 7/142/76 68/140/76 
usemtl Material__43
f 69/143/78 68/144/78 58/145/78 
f 58/145/78 56/146/78 69/143/78 
f 66/147/79 69/148/79 56/149/79 
f 56/149/79 65/150/79 66/147/79 
f 67/151/80 66/147/80 65/150/80 
f 65/150/80 64/152/80 67/151/80 
f 8/153/81 67/154/81 64/155/81 
f 64/155/81 63/156/81 8/153/81 
f 9/157/81 63/156/81 62/158/81 
f 63/156/81 9/157/81 8/153/81 
f 7/159/78 6/160/78 61/161/78 
f 61/161/78 60/162/78 7/159/78 
f 68/163/82 7/164/82 60/165/82 
f 60/165/82 58/166/82 68/163/82 
f 70/167/83 71/168/83 72/169/83 
f 72/169/83 73/170/83 70/167/83 
usemtl Material__46
f 74/171/84 75/172/84 76/173/84 
f 76/173/84 77/174/84 74/171/84 
usemtl Material__43
f 78/175/85 79/176/85 72/177/85 
f 72/177/85 71/178/85 78/175/85 
f 77/179/85 76/180/85 79/176/85 
f 79/176/85 78/175/85 77/179/85 
f 80/181/86 78/182/86 71/183/86 
f 71/183/86 70/184/86 80/181/86 
f 81/185/87 82/186/87 83/187/87 
f 83/187/87 84/188/87 81/185/87 
f 85/189/88 80/190/88 70/191/88 
f 70/191/88 73/192/88 85/189/88 
f 75/193/88 74/194/88 80/190/88 
f 80/190/88 85/189/88 75/193/88 
usemtl Material__46
f 82/195/84 81/196/84 74/171/84 
f 74/171/84 77/174/84 82/195/84 
usemtl Material__43
f 83/197/89 82/198/89 77/179/89 
f 77/179/89 78/175/89 83/197/89 
f 84/199/83 83/200/83 78/201/83 
f 78/201/83 80/202/83 84/199/83 
f 81/203/90 84/204/90 80/190/90 
f 80/190/90 74/194/90 81/203/90 
usemtl Material__51
f 86/205/91 87/206/91 88/207/91 
f 88/207/92 89/208/92 86/205/92 
f 89/209/93 90/210/93 86/211/93 
f 91/212/94 92/213/94 93/214/94 
f 93/214/94 94/215/94 91/212/94 
f 95/216/94 96/217/94 97/218/94 
f 97/218/94 98/219/94 95/216/94 
f 87/220/95 86/221/95 90/222/95 
f 90/222/95 99/223/95 87/220/95 
f 96/224/84 95/225/84 99/226/84 
f 99/226/84 90/227/84 96/224/84 
f 90/210/96 97/228/96 96/229/96 
f 100/230/84 101/231/84 98/232/84 
f 98/232/84 97/233/84 100/230/84 
f 102/234/94 103/235/94 101/236/94 
f 101/236/94 100/237/94 102/234/94 
f 91/238/84 94/239/84 103/240/84 
f 103/240/84 102/241/84 91/238/84 
f 92/242/97 91/243/97 102/244/97 
f 102/244/97 104/245/97 92/242/97 
usemtl Material__52
f 105/246/98 106/247/98 107/248/98 
f 107/248/98 108/249/98 105/246/98 
f 105/250/99 108/251/99 109/252/99 
f 109/252/100 110/253/100 105/250/100 
f 110/254/101 109/255/101 111/256/101 
f 111/256/102 112/257/102 110/254/102 
usemtl Material__44
f 113/258/103 114/259/103 115/260/103 
f 115/260/103 116/261/103 113/258/103 
usemtl Material__43
f 117/262/104 118/263/104 119/264/104 
f 119/264/104 120/265/104 117/262/104 
f 120/266/105 121/267/105 122/268/105 
f 122/268/105 123/269/105 120/266/105 
f 120/266/106 123/269/106 117/270/106 
f 124/271/107 122/272/107 121/273/107 
f 121/273/107 125/274/107 124/271/107 
f 125/275/108 119/276/108 118/277/108 
f 118/277/109 126/278/109 125/275/109 
f 125/275/108 126/278/108 124/279/108 
usemtl Material__44
f 113/280/110 116/281/110 127/282/110 
f 127/282/110 128/283/110 113/280/110 
usemtl Material__48
f 129/67/111 130/284/111 131/285/111 
f 131/285/111 132/286/111 129/67/111 
usemtl Material__43
f 133/287/112 134/288/112 135/289/112 
f 135/289/112 136/290/112 133/287/112 
usemtl Material__44
f 133/291/113 137/292/113 138/293/113 
f 138/293/114 134/294/114 133/291/114 
usemtl Material__43
f 138/295/115 137/296/115 139/297/115 
f 139/297/116 140/298/116 138/295/116 
f 141/299/117 142/300/117 139/297/117 
f 139/297/118 137/296/118 141/299/118 
f 140/301/83 139/302/83 143/303/83 
f 143/303/83 144/304/83 140/301/83 
f 143/305/119 139/306/119 142/307/119 
f 142/307/120 132/308/120 143/305/120 
usemtl Material__48
f 132/286/111 131/285/111 144/69/111 
f 144/69/111 143/309/111 132/286/111 
usemtl Material__43
f 3/310/121 138/295/121 140/298/121 
f 140/298/121 145/311/121 3/310/121 
f 131/312/122 145/313/122 140/314/122 
f 140/314/122 144/315/122 131/312/122 
usemtl Material__51
f 146/316/123 102/244/123 100/317/123 
f 100/317/123 97/228/123 146/316/123 
f 97/228/96 90/210/96 147/318/96 
f 90/210/93 89/209/93 148/319/93 
f 89/320/124 88/321/125 149/322/125 
f 149/322/126 148/323/126 89/320/126 
usemtl Material__44
f 34/324/127 33/325/127 49/326/127 
f 49/326/128 39/327/128 34/324/128 
f 33/325/129 37/328/129 36/329/129 
f 36/329/130 49/326/130 33/325/130 
usemtl Material__43
f 35/330/131 48/331/131 51/332/131 
f 51/332/132 50/333/132 35/330/132 
usemtl Material__44
f 37/328/133 33/325/133 46/334/133 
f 46/334/134 45/335/134 37/328/134 
usemtl Material__47
f 62/336/4 150/337/4 61/338/4 
f 61/338/76 151/339/76 59/340/76 
f 6/341/135 9/342/135 62/343/135 
f 62/343/135 61/344/135 6/341/135 
f 152/345/126 148/346/126 153/347/126 
f 152/348/136 154/349/136 148/350/136 
f 154/349/96 155/351/96 146/352/96 
f 146/352/96 147/353/96 154/349/76 
f 147/353/96 146/352/96 97/354/96 
f 102/355/123 146/352/123 155/351/100 
f 155/351/100 104/356/123 102/355/123 
f 3/357/121 145/358/121 156/359/99 
f 156/359/96 2/360/121 3/357/121 
f 130/361/137 156/362/137 145/363/137 
f 145/363/137 131/364/137 130/361/137 
f 59/340/75 157/365/75 158/366/75 
f 158/366/75 57/367/75 59/340/75 
f 159/368/138 142/369/138 141/370/138 
f 141/370/139 160/371/139 159/368/139 
f 132/372/140 142/373/140 159/374/140 
f 159/374/141 129/375/141 132/372/141 
f 150/337/76 62/336/76 3/376/76 
f 3/376/76 2/360/76 150/337/76 
f 148/346/126 149/377/126 153/347/126 
f 151/339/76 157/365/76 59/340/76 
f 148/350/93 154/349/93 147/353/93 
f 147/353/93 90/378/93 148/350/93 
f 150/337/4 151/339/4 61/338/4 
# 237 faces

#
# object xxx
#

v  -182.2080 -265.6861 25.7307
v  -188.6564 -264.4828 25.7307
v  -188.6692 -264.4821 28.1706
v  -182.2068 -265.6747 28.2620
v  -182.2668 -265.6806 22.5758
v  -188.6681 -264.4810 22.2131
v  -188.6572 -264.4832 25.5640
v  -182.2661 -265.6705 25.5640
v  -182.1971 -265.6701 28.4149
v  -182.4554 -271.4449 22.5845
v  -182.4268 -271.4432 24.8491
v  -183.1548 -271.1641 25.0721
v  -183.1556 -271.1796 21.8777
v  -182.4661 -271.4449 21.9453
v  -182.2668 -265.6806 21.8863
# 15 vertices

vn 0.1820 0.9833 -0.0033
vn 0.1834 0.9830 0.0007
vn 0.1830 0.9831 -0.0005
vn 0.1815 0.9834 -0.0045
vn 0.1842 0.9829 -0.0000
vn 0.1842 0.9829 0.0000
vn 0.1838 0.9830 -0.0009
vn 0.1826 0.9832 -0.0034
vn 0.1831 0.9831 -0.0024
vn 0.1834 0.9827 0.0276
vn 0.1826 0.9832 -0.0031
vn 0.1827 0.9832 -0.0026
vn 0.1834 0.9826 0.0280
vn 0.1819 0.9824 -0.0416
vn -0.3585 -0.9335 0.0050
vn -0.3567 -0.9342 0.0052
vn -0.3570 -0.9341 0.0051
vn -0.3589 -0.9334 0.0053
vn -0.3596 -0.9331 0.0060
# 19 vertex normals

vt 0.0722 0.5889 0.9369
vt 0.9977 0.5889 0.9992
vt 0.9995 0.9621 0.9995
vt 0.0722 0.9761 0.9392
vt 0.0805 0.1063 0.9360
vt 0.9994 0.0508 0.9986
vt 0.9978 0.5634 0.9991
vt 0.0806 0.5634 0.9382
vt 0.0709 0.9995 0.9402
vt 0.0045 0.1086 0.0008
vt 0.0005 0.4550 0.0021
vt 0.1075 0.4891 0.0323
vt 0.1074 0.0005 0.0292
vt 0.0060 0.0109 0.0005
vt 0.2114 0.0984 0.9449
# 15 texture coords

g xxx
usemtl Material__43
s 8
f 161/379/142 162/380/143 163/381/144 
f 163/381/144 164/382/145 161/379/142 
s 1
f 165/383/146 166/384/147 167/385/147 
f 167/385/148 168/386/149 165/383/150 
s 4
f 168/386/151 167/385/152 162/380/153 
f 162/380/153 161/379/154 168/386/151 
usemtl Material__44
s off
f 169/387/155 164/382/155 163/381/155 
usemtl Material__43
s 1
f 170/388/156 171/389/157 172/390/158 
f 172/390/158 173/391/159 170/388/156 
f 174/392/160 170/388/156 173/391/159 
f 165/383/146 175/393/146 166/384/147 
# 11 faces

