# This file uses centimeters as units for non-parametric coordinates.

mtllib Tpea8a_2.mtl
g default
v -371.882751 -512.511536 31.205767
v -370.063141 -518.984680 31.205772
v -365.646667 -510.758453 31.205757
v -363.827179 -517.231812 31.205761
v -363.827179 -517.231812 29.883408
v -365.646667 -510.758453 29.883417
v -371.882813 -512.511475 29.883429
v -370.063141 -518.984680 29.883413
v -364.348785 -515.375671 29.883425
v -364.348816 -515.375610 31.205769
v -370.584839 -517.128723 31.205765
v -370.584839 -517.128723 29.883427
v -364.658722 -514.273132 29.883415
v -364.658722 -514.273132 31.205772
v -370.894714 -516.026489 31.205755
v -370.894714 -516.026489 29.883415
v -365.646667 -510.758453 30.203089
v -371.882751 -512.511536 30.203100
v -370.894714 -516.026489 30.203087
v -370.584839 -517.128723 30.203098
v -370.063141 -518.984680 30.203087
v -363.827179 -517.231812 30.203087
v -364.348785 -515.375671 30.203096
v -364.658722 -514.273132 30.203087
v -365.170227 -512.453003 29.883419
v -365.170227 -512.453003 30.203098
v -365.170227 -512.453003 31.205765
v -371.406708 -514.205261 31.205765
v -371.406677 -514.205322 30.203091
v -371.406677 -514.205322 29.883406
v -365.554321 -511.087067 29.883429
v -365.554321 -511.087067 30.203100
v -365.554321 -511.087067 31.205769
v -371.790436 -512.840149 31.205765
v -371.790436 -512.840149 30.203100
v -371.790436 -512.840149 29.883429
v -368.727417 -511.624268 32.510803
v -368.727417 -511.624268 30.203083
v -368.727417 -511.624268 29.883408
v -366.907867 -518.097900 29.883425
v -366.907867 -518.097900 30.203096
v -366.907867 -518.097900 32.510796
v -367.429504 -516.241943 32.510784
v -367.739471 -515.139648 32.510788
v -368.251343 -513.318359 32.510803
v -368.635071 -511.953003 32.510803
v -365.170227 -512.453003 27.493967
v -364.658539 -514.273499 27.493961
v -364.348602 -515.375854 27.493965
v -363.826904 -517.232178 27.493965
v -366.907776 -518.098267 27.493965
v -370.063080 -518.985168 27.493984
v -370.584839 -517.128967 27.493967
v -370.894745 -516.026611 27.493956
v -371.406494 -514.205750 27.493967
v -371.790314 -512.840515 27.493990
v -371.882874 -512.511597 27.493990
v -368.727264 -511.624786 27.493988
v -365.646545 -510.758789 27.493971
v -365.554291 -511.087463 27.493990
v -365.197815 -512.460510 30.203100
v -365.581604 -511.095154 30.203100
v -365.197845 -512.460266 29.883419
v -365.581604 -511.095154 29.883429
v -371.379120 -514.197632 30.203091
v -371.379120 -514.197632 29.883406
v -371.762756 -512.832092 30.203100
v -371.762665 -512.832825 29.883429
v -364.686096 -514.281128 27.493961
v -364.376160 -515.383606 27.493965
v -364.686096 -514.281006 29.883415
v -364.376373 -515.383118 29.883425
v -363.827179 -517.231812 30.908360
v -364.348785 -515.375671 30.908381
v -364.658722 -514.273132 30.908371
v -365.170227 -512.453003 30.908371
v -365.554321 -511.087067 30.908384
v -365.646667 -510.758453 30.908373
v -368.727417 -511.624268 32.127972
v -371.882751 -512.511536 30.908382
v -371.790436 -512.840149 30.908382
v -371.406708 -514.205261 30.908363
v -370.894714 -516.026489 30.908371
v -370.584839 -517.128723 30.908381
v -370.063141 -518.984680 30.908371
v -366.907867 -518.097900 32.127945
v -371.882751 -512.511536 31.039318
v -370.063141 -518.984680 31.039310
v -366.907867 -518.097900 32.307781
v -363.827179 -517.231812 31.039299
v -365.646667 -510.758453 31.039312
v -368.727417 -511.624268 32.307808
v -363.770081 -515.213135 30.973198
v -363.248444 -517.069153 30.973186
v -363.248444 -517.069153 30.806726
v -363.770081 -515.213135 30.806738
v -364.079926 -514.110840 30.973190
v -364.079926 -514.110840 30.806728
v -364.591858 -512.289795 30.973183
v -364.591858 -512.289795 30.806736
v -364.975677 -510.924469 30.973202
v -364.975677 -510.924469 30.806742
v -365.067993 -510.595703 30.973204
v -365.067993 -510.595703 30.806742
v -363.248444 -517.069153 30.675800
v -363.770081 -515.213135 30.675797
v -364.079926 -514.110840 30.675789
v -364.591858 -512.289795 30.675798
v -364.975677 -510.924469 30.675800
v -365.067993 -510.595703 30.675800
v -371.163574 -517.291138 30.973202
v -371.163574 -517.291138 30.806740
v -370.641815 -519.147339 30.806728
v -370.641815 -519.147339 30.973188
v -371.473267 -516.189148 30.973190
v -371.473267 -516.189148 30.806728
v -371.985168 -514.368225 30.973183
v -371.985168 -514.368225 30.806736
v -372.369019 -513.002441 30.973202
v -372.369019 -513.002441 30.806742
v -372.461395 -512.674133 30.973204
v -372.461395 -512.674133 30.806742
v -372.461395 -512.674133 30.675798
v -372.369019 -513.002441 30.675798
v -371.985168 -514.368225 30.675798
v -371.473267 -516.189148 30.675789
v -371.163574 -517.291138 30.675797
v -370.641815 -519.147339 30.675800
v -369.972443 -519.307556 31.205772
v -369.972443 -519.307556 31.039310
v -366.817017 -518.420471 32.307781
v -366.817017 -518.420471 32.510796
v -363.736389 -517.554626 31.039305
v -363.736389 -517.554626 31.205767
v -363.157715 -517.391968 30.806726
v -363.157715 -517.391968 30.973186
v -370.551147 -519.470215 30.973188
v -370.551147 -519.470215 30.806728
v -368.831421 -511.254547 32.307785
v -371.986664 -512.141602 31.039324
v -371.986664 -512.141602 31.205772
v -368.831421 -511.254547 32.510780
v -365.750458 -510.388672 31.205769
v -365.750397 -510.388611 31.039312
v -365.171997 -510.226074 30.973192
v -365.171997 -510.226074 30.806730
v -372.565216 -512.304199 30.806730
v -372.565216 -512.304199 30.973192
v -364.399445 -515.390198 27.081877
v -364.399445 -515.390198 27.493965
v -363.859436 -517.213745 27.493965
v -363.859436 -517.213745 27.081854
v -371.850311 -512.529785 27.493990
v -371.850311 -512.529785 27.081879
v -368.713074 -511.675446 27.493988
v -368.713074 -511.675446 27.081860
v -370.044891 -518.952515 27.493984
v -370.534058 -517.114685 27.493967
v -370.534058 -517.114685 27.081867
v -370.044891 -518.952515 27.081865
v -366.922058 -518.047485 27.493965
v -366.922058 -518.047485 27.081877
v -370.843933 -516.012329 27.493959
v -370.843933 -516.012329 27.081871
v -364.709351 -514.287781 27.081865
v -364.709351 -514.287781 27.493961
v -371.355682 -514.191467 27.493967
v -371.355682 -514.191467 27.081858
v -365.221008 -512.467285 27.081863
v -365.221008 -512.467285 27.493967
v -371.739532 -512.826111 27.493990
v -371.739532 -512.826111 27.081871
v -365.604980 -511.101746 27.081881
v -365.604980 -511.101746 27.493990
v -365.664764 -510.791199 27.493971
v -365.664764 -510.791199 27.081869
v -371.272003 -512.372192 27.081875
v -371.272003 -512.372192 27.493990
v -371.301208 -512.348145 27.493990
v -371.301178 -512.347778 29.883425
v -371.301178 -512.347778 30.203096
v -371.301178 -512.347778 31.133194
v -371.301178 -512.347778 31.273146
v -371.405060 -511.977997 31.273146
v -371.405060 -511.977997 31.446335
v -371.301178 -512.347778 31.446335
v -371.208771 -512.676514 31.446333
v -370.825043 -514.041870 31.446329
v -370.313202 -515.862793 31.446325
v -370.003235 -516.965149 31.446331
v -369.481567 -518.821289 31.446333
v -369.390869 -519.143982 31.446333
v -369.390869 -519.143982 31.273134
v -369.481567 -518.821289 31.273134
v -369.481567 -518.821289 31.133183
v -369.481567 -518.821289 30.203089
v -369.481567 -518.821289 29.883415
v -369.481537 -518.821594 27.493982
v -369.469238 -518.785706 27.493982
v -369.469238 -518.785706 27.081867
v -369.244263 -511.817383 27.081863
v -369.244232 -511.817383 27.493990
v -369.263458 -511.775391 27.493990
v -369.263580 -511.774963 29.883413
v -369.263580 -511.774963 30.203089
v -369.578186 -511.863434 31.799156
v -369.578186 -511.863434 31.965805
v -369.682129 -511.493652 31.965794
v -369.682129 -511.493652 32.158943
v -369.578186 -511.863434 32.158951
v -369.485718 -512.192200 32.158955
v -369.102020 -513.557678 32.158955
v -368.590210 -515.378540 32.158947
v -368.280304 -516.480835 32.158943
v -367.758606 -518.337036 32.158955
v -367.667755 -518.659607 32.158955
v -367.667755 -518.659607 31.965788
v -367.758606 -518.337036 31.965788
v -367.758606 -518.337036 31.799139
v -367.758606 -518.337036 30.203094
v -367.758606 -518.337036 29.883423
v -367.758484 -518.337219 27.493971
v -367.764008 -518.291443 27.493971
v -367.764008 -518.291443 27.081875
v -366.220398 -510.952484 27.081867
v -366.220398 -510.952484 27.493979
v -366.208099 -510.916595 27.493979
v -366.208160 -510.916290 29.883415
v -366.208160 -510.916290 30.203087
v -366.208160 -510.916290 31.130682
v -366.208160 -510.916290 31.270533
v -366.312103 -510.546509 31.270529
v -366.312103 -510.546539 31.443645
v -366.208160 -510.916290 31.443645
v -366.115845 -511.244904 31.443645
v -365.731903 -512.610596 31.443645
v -365.220276 -514.431030 31.443649
v -364.910400 -515.533447 31.443649
v -364.388702 -517.389709 31.443644
v -364.297821 -517.712463 31.443645
v -364.297821 -517.712463 31.270521
v -364.388702 -517.389709 31.270523
v -364.388702 -517.389709 31.130672
v -364.388702 -517.389709 30.203091
v -364.388702 -517.389709 29.883411
v -364.388458 -517.390076 27.493965
v -364.417725 -517.365845 27.493965
v -364.417725 -517.365845 27.081858
v -368.176605 -511.519897 27.081863
v -368.176605 -511.519897 27.493988
v -368.185211 -511.472412 27.493988
v -368.185272 -511.471893 29.883411
v -368.185272 -511.471893 30.203083
v -368.185272 -511.471893 31.913361
v -368.185272 -511.471893 32.084587
v -368.289337 -511.102203 32.084576
v -368.289337 -511.102203 32.281151
v -368.185272 -511.471893 32.281158
v -368.092926 -511.800720 32.281158
v -367.709167 -513.166138 32.281158
v -367.197388 -514.987000 32.281151
v -366.887390 -516.089294 32.281143
v -366.365784 -517.945618 32.281158
v -366.274994 -518.268188 32.281158
v -366.274994 -518.268188 32.084564
v -366.365784 -517.945618 32.084564
v -366.365784 -517.945618 31.913342
v -366.365784 -517.945618 30.203094
v -366.365784 -517.945618 29.883421
v -366.365662 -517.945862 27.493965
v -366.383087 -517.900757 27.493965
v -366.383087 -517.900757 27.081873
v -369.251862 -511.816650 27.493994
v -369.251984 -511.816193 29.883413
v -371.289581 -512.389221 27.493994
v -371.289581 -512.389038 29.883427
v -371.289581 -512.389038 30.203096
v -369.251984 -511.816193 30.203087
v -366.196503 -510.957825 27.493982
v -366.196533 -510.957489 29.883417
v -368.173553 -511.513611 27.493988
v -368.173706 -511.513092 29.883413
v -368.173706 -511.513092 30.203083
v -366.196533 -510.957489 30.203087
v -369.371490 -514.749939 28.681345
v -368.371490 -514.749939 28.681345
v -369.371490 -514.749939 27.681345
v -368.371490 -514.749939 27.681345
vt -2.927921 1.424799
vt -2.550657 1.424799
vt -2.550657 1.479882
vt -2.927921 1.479883
vt -2.485054 1.424799
vt -2.485054 1.479882
vt -2.550657 1.523213
vt -2.927921 1.523213
vt -3.151976 1.424797
vt -3.151976 1.479882
vt -3.151976 1.523212
vt -3.522048 1.424799
vt -3.522048 1.479883
vt -3.522048 1.523213
vt -3.799570 1.424797
vt -3.799570 1.479882
vt -3.799570 1.523213
vt -3.866384 1.424798
vt -3.866384 1.479882
vt -3.866384 1.523213
vt -3.941527 1.479882
vt -3.941527 1.424797
vt -2.638151 1.389928
vt -2.638151 1.334843
vt -2.260874 1.334844
vt -2.260874 1.389928
vt -2.862192 1.389928
vt -2.862192 1.334843
vt -2.638151 1.291512
vt -2.260874 1.291513
vt -2.195270 1.334844
vt -2.195270 1.389928
vt -3.232289 1.389927
vt -3.232289 1.334842
vt -2.862192 1.291513
vt -3.509826 1.389927
vt -3.509826 1.334843
vt -3.232289 1.291512
vt -3.576651 1.389928
vt -3.576651 1.334843
vt -3.509826 1.291512
vt -3.651788 1.389928
vt -3.651788 1.334843
vt -3.576651 1.291512
vt 5.144856 -3.707454
vt 6.501353 -3.707499
vt 6.501335 -1.251613
vt 5.144856 -1.251634
vt 5.144819 -4.157806
vt 6.501317 -4.157853
vt 6.737230 -3.707500
vt 6.737211 -1.251613
vt 6.501281 1.146229
vt 5.144768 1.146228
vt 4.339249 -3.707477
vt 4.339249 -1.251702
vt 4.339284 -4.157830
vt 6.737197 -4.157876
vt 6.737195 1.146250
vt 6.501247 1.596626
vt 5.144804 1.596603
vt 4.339179 1.146273
vt 3.008570 -3.707478
vt 3.008570 -1.251680
vt 3.008608 -4.157853
vt 6.737121 1.596627
vt 4.339211 1.596627
vt 3.008697 1.146273
vt 2.010729 -3.707476
vt 2.010783 -1.251613
vt 2.010730 -4.157830
vt 3.008627 1.596626
vt 2.010801 1.146228
vt 1.770500 -3.707499
vt 1.770500 -1.251657
vt 1.770462 -4.157852
vt 2.010799 1.596582
vt 1.770587 1.146273
vt 1.500325 -1.251680
vt 1.500323 -3.707476
vt 1.500308 -4.157829
vt 1.770567 1.596581
vt 1.500413 1.146273
vt 1.500395 1.596581
vt -6.937715 1.429877
vt -6.937713 1.484963
vt -8.022344 1.065202
vt -8.022344 0.998026
vt -6.738808 1.506844
vt -6.738808 1.561927
vt -9.081347 1.484965
vt -9.081347 1.429879
vt -9.280253 1.561927
vt -9.280253 1.506844
vt -5.941918 0.364989
vt -4.857329 -0.054772
vt -4.857329 0.000312
vt -5.941918 0.432163
vt -4.658432 -0.131737
vt -4.658432 -0.076652
vt -7.000961 0.000313
vt -7.000961 -0.054771
vt -7.199839 -0.076652
vt -7.199839 -0.131736
vt -1.038749 0.691844
vt -0.661467 0.691844
vt -1.262796 0.691844
vt -1.038776 -0.098860
vt -0.661487 -0.098859
vt -1.632863 0.691845
vt -1.038776 -0.204645
vt -0.661488 -0.204645
vt -1.910391 0.691844
vt -1.632869 -0.098860
vt -1.262825 -0.098860
vt -1.262825 -0.204645
vt -1.977215 0.691843
vt -1.910410 -0.098860
vt -1.632869 -0.204645
vt -1.262825 -0.438034
vt -1.038775 -0.438035
vt -1.977219 -0.098860
vt -1.632869 -0.438034
vt -1.977219 -0.204645
vt -1.910410 -0.204645
vt -1.910410 -0.438034
vt -1.977219 -0.438035
vt 0.673358 1.135917
vt -0.411281 1.135917
vt 0.673338 1.926621
vt -0.411261 1.926619
vt -1.470294 1.135917
vt 0.673348 2.032405
vt -0.411261 2.032404
vt -1.470294 1.926621
vt 0.673348 2.265794
vt -0.411261 2.669378
vt -1.470295 2.032406
vt 0.673348 2.309125
vt -0.411261 2.728886
vt -1.470294 2.265796
vt 0.872245 2.188829
vt 0.872245 2.232160
vt -1.470295 2.309125
vt -1.669171 2.232161
vt -1.669171 2.188830
vt 0.467761 -1.729714
vt 0.090494 -1.729716
vt 0.467757 -0.939011
vt 0.090479 -0.939011
vt -0.133562 -1.729717
vt 0.467757 -0.833226
vt 0.090479 -0.833226
vt -0.133582 -0.939011
vt -0.503649 -1.729717
vt 0.467757 -0.599836
vt 0.090479 -0.599837
vt -0.133582 -0.833226
vt -0.503669 -0.939012
vt -0.781161 -1.729715
vt -0.133582 -0.599837
vt -0.503669 -0.833227
vt -0.781166 -0.939011
vt -0.503679 -0.599838
vt -0.847996 -1.729714
vt -0.848020 -0.939011
vt -0.781206 -0.599837
vt -0.781206 -0.833226
vt -0.848021 -0.833226
vt -0.848021 -0.599837
vt 1.749855 1.764239
vt 2.834474 1.764238
vt 1.749845 0.973534
vt 2.834475 0.973534
vt 0.690832 1.764239
vt 1.749845 0.867749
vt 2.834475 0.867750
vt 0.690851 0.973536
vt 1.749845 0.230777
vt 2.834475 0.634360
vt 0.690851 0.867749
vt 1.749845 0.171269
vt 2.834474 0.591030
vt 3.033371 0.667994
vt 3.033371 0.711325
vt 0.690851 0.591031
vt 0.690851 0.634361
vt 0.491935 0.711325
vt 0.491935 0.667994
vt 0.999991 1.000028
vt -0.000040 1.000028
vt 0.000021 0.000028
vt 0.999991 0.000043
vt 1.000012 0.000015
vt 1.000011 1.000015
vt -0.000019 1.000023
vt 0.000287 0.000038
vt -1.007190 -1.304196
vt -1.007191 -1.371031
vt 0.000059 0.000002
vt 1.000059 0.000021
vt 1.000063 1.000001
vt 0.000063 0.999982
vt -0.999578 0.942440
vt -0.722038 0.942420
vt -0.722047 0.951888
vt -0.999583 0.951888
vt -0.879521 -1.256838
vt -0.985307 -1.256838
vt -0.985307 -1.266307
vt -0.879521 -1.266307
vt -0.688926 0.923327
vt -0.966468 0.923307
vt -0.966473 0.913858
vt -0.688936 0.913859
vt -0.879512 -1.161656
vt -0.985297 -1.161656
vt -0.985297 -1.171103
vt -0.879512 -1.171103
vt -0.983701 -1.218705
vt -0.877915 -1.218705
vt -0.877916 -1.209257
vt -0.983701 -1.209257
vt -0.782374 2.617984
vt -1.059910 2.617983
vt -1.059901 2.608515
vt -0.782364 2.608535
vt -0.983711 -1.123502
vt -0.877926 -1.123501
vt -0.877926 -1.114033
vt -0.983711 -1.114033
vt -1.155248 2.570433
vt -0.877751 2.570433
vt -0.877742 2.579881
vt -1.155239 2.579901
vt -0.877498 -1.456747
vt -1.101544 -1.456747
vt -1.101560 -1.466236
vt -0.877518 -1.466196
vt -0.670326 0.875746
vt -1.461030 0.875746
vt -1.461030 0.866277
vt -0.670326 0.866257
vt -1.098201 -1.418633
vt -0.874151 -1.418601
vt -0.874151 -1.409165
vt -1.098212 -1.409165
vt 0.443553 -1.999458
vt -0.347152 -1.999428
vt -0.347152 -2.008876
vt 0.443553 -2.008896
vt 0.690851 0.867749
vt -0.661488 -0.438033
vt 1.749845 0.867749
vt -3.133414 3.152850
vt 0.690851 0.634361
vt 1.749845 0.230777
vt -0.681133 2.845513
vt -1.058422 2.845524
vt -1.058407 2.646606
vt -0.681145 2.646597
vt -1.282471 2.845492
vt -1.282462 2.646597
vt -1.652515 2.845492
vt -1.652535 2.646597
vt -1.930057 2.845513
vt -1.930057 2.646618
vt -1.996864 2.845491
vt -1.996870 2.646618
vt -0.645474 0.732992
vt -0.578658 0.732983
vt -0.578658 0.931878
vt -0.645483 0.931890
vt -0.301133 0.732983
vt -0.301122 0.931890
vt 0.068963 0.732983
vt 0.068974 0.931878
vt 0.293024 0.732972
vt 0.293015 0.931869
vt 0.670304 0.732992
vt 0.670292 0.931890
vt -9.079605 1.597839
vt -7.994974 1.597834
vt -7.994974 1.663437
vt -9.079605 1.663442
vt -6.935981 1.597818
vt -6.935973 1.663433
vt -9.278502 1.597829
vt -9.278510 1.663433
vt -6.737066 1.597809
vt -6.737066 1.663412
vt -4.391322 3.227972
vt -5.475931 3.227972
vt -5.475923 3.152830
vt -4.391331 3.152830
vt -5.674829 3.227962
vt -5.674817 3.152824
vt -3.332288 3.227997
vt -3.332289 3.152854
vt -3.133414 3.227992
vt -1.038749 0.691844
vt -0.661467 0.691844
vt -0.661466 0.828219
vt -1.038749 0.828218
vt 0.673358 1.135917
vt -0.411281 1.135917
vt -0.411281 0.999542
vt 0.673358 0.999543
vt 0.467761 -1.729714
vt 0.090494 -1.729716
vt 0.090494 -1.866089
vt 0.467761 -1.866088
vt 1.749855 1.764239
vt 2.834474 1.764238
vt 2.834475 1.900612
vt 1.749855 1.900612
vt -0.133562 -1.729717
vt -0.133562 -1.866088
vt -1.262796 0.691844
vt -1.262796 0.828217
vt -0.503649 -1.729717
vt -0.503649 -1.866090
vt -1.632863 0.691845
vt -1.632863 0.828219
vt -0.781161 -1.729715
vt -0.781161 -1.866090
vt -1.910391 0.691844
vt -1.910391 0.828218
vt -1.007190 -1.304196
vt -1.007191 -1.371031
vt -0.870817 -1.371031
vt -0.870815 -1.304197
vt -1.977215 0.691843
vt -1.977215 0.828218
vt -1.470294 1.135917
vt -1.470294 0.999544
vt 0.690832 1.764239
vt 0.690832 1.900613
vt 0.473421 0.999543
vt 0.473421 1.135917
vt 0.473421 1.135917
vt 0.473409 1.926620
vt 0.473417 2.032405
vt 0.473417 2.340189
vt -5.276000 3.227972
vt 0.473417 2.386502
vt -5.057257 0.022605
vt -5.275994 3.152830
vt -5.057257 0.079918
vt 1.500324 -3.254787
vt 1.770500 -3.254801
vt 2.010739 -3.254775
vt 3.008570 -3.254789
vt 4.339249 -3.254792
vt 5.144856 -3.254761
vt 6.501349 -3.254793
vt 6.737226 -3.254794
vt -7.137650 1.350272
vt -7.137649 1.407587
vt -8.879669 1.663441
vt -8.879669 1.597838
vt 2.634539 0.513653
vt 2.634540 0.559965
vt 2.634539 0.867750
vt 2.634539 0.973534
vt 2.634541 1.764238
vt 2.634541 1.764238
vt 2.634541 1.900612
vt -0.231290 0.999542
vt -0.231290 1.135917
vt -0.231290 1.135917
vt -0.231281 1.926620
vt -0.231279 2.032404
vt -0.118841 2.560568
vt -4.683743 3.227972
vt -0.118841 2.615715
vt -5.649503 0.251818
vt -4.683746 3.152830
vt -5.649503 0.315733
vt 1.500324 -1.913784
vt 1.770500 -1.913773
vt 2.010768 -1.913735
vt 3.008570 -1.913784
vt 4.339249 -1.913800
vt 5.144856 -1.913744
vt 6.501340 -1.913741
vt 6.737216 -1.913741
vt -7.729918 1.114457
vt -7.729918 1.178373
vt -8.287399 1.663439
vt -8.287399 1.597835
vt 2.042271 0.284440
vt 2.042271 0.339586
vt 2.042270 0.867749
vt 2.042270 0.973534
vt 2.042278 1.764239
vt 2.042278 1.764239
vt 2.042278 1.900612
vt -1.277257 0.999544
vt -1.277257 1.135917
vt -1.277257 1.135917
vt -1.277254 1.926621
vt -1.277254 2.032406
vt -1.277254 2.339361
vt -3.525329 3.227992
vt -1.277254 2.385639
vt -6.807920 0.021742
vt -3.525331 3.152850
vt -6.807919 0.079030
vt 1.500397 0.709174
vt 1.770571 0.709178
vt 2.010798 0.709149
vt 3.008674 0.709174
vt 4.339191 0.709170
vt 5.144784 0.709145
vt 6.501291 0.709150
vt 6.737197 0.709167
vt -8.888311 1.351161
vt -8.888311 1.408450
vt -7.129008 1.663434
vt -7.129014 1.597821
vt 0.883885 0.514517
vt 0.883885 0.560796
vt 0.883885 0.560796
vt 0.883885 0.867749
vt 0.883885 0.867749
vt 0.883885 0.973536
vt 0.883870 1.764239
vt 0.883870 1.764239
vt 0.883870 1.900613
vt -0.597634 0.999542
vt -0.597634 1.135917
vt -0.597634 1.135917
vt -0.597618 1.926620
vt -0.597618 2.032405
vt -0.597618 2.598360
vt -4.204966 3.227976
vt -0.597618 2.655021
vt -6.128276 0.291124
vt -4.204973 3.152834
vt -6.128276 0.356171
vt 1.500340 -0.829716
vt 1.770515 -0.829697
vt 2.010786 -0.829668
vt 3.008593 -0.829716
vt 4.339236 -0.829733
vt 5.144841 -0.829686
vt 6.501325 -0.829668
vt 6.737208 -0.829664
vt -8.208694 1.074019
vt -8.208694 1.139067
vt -7.808623 1.663436
vt -7.808625 1.597831
vt 1.563496 0.245134
vt 1.563495 0.301795
vt 1.563495 0.301795
vt 1.563495 0.867749
vt 1.563495 0.867749
vt 1.563495 0.973535
vt 1.563500 1.764239
vt 1.563500 1.764239
vt 1.563500 1.900612
vt -0.231281 1.926620
vt -0.231290 1.135917
vt 0.473421 1.135917
vt 0.473409 1.926620
vt 0.473417 2.032405
vt -0.231279 2.032404
vt -1.277254 1.926621
vt -1.277257 1.135917
vt -0.597634 1.135917
vt -0.597618 1.926620
vt -0.597618 2.032405
vt -1.277254 2.032406
vt 0.000042 0.882002
vt 0.000041 0.000000
vt 1.000041 0.000002
vt 1.000042 0.882000
vt 1.000042 0.999998
vt 0.000042 1.000000
vt 0.000042 0.882003
vt 0.000023 0.000018
vt 1.000008 0.000001
vt 1.000011 0.881990
vt 1.000016 0.999987
vt 0.000046 1.000001
vt 0.000000 0.000000
vt 1.000000 0.000000
vt 1.000000 1.000000
vt 0.000000 1.000000
vn 0.962702 0.270564 0.000000
vn 0.962702 0.270564 0.000000
vn 0.962702 0.270564 0.000000
vn 0.962702 0.270564 0.000000
vn -0.962691 -0.270604 0.000000
vn -0.962691 -0.270604 0.000000
vn -0.962691 -0.270604 0.000000
vn -0.962691 -0.270604 0.000000
vn -0.356121 -0.100087 0.929064
vn -0.356121 -0.100087 0.929064
vn -0.356102 -0.100080 0.929072
vn -0.356102 -0.100080 0.929072
vn 0.270615 -0.962688 0.000000
vn 0.270615 -0.962688 0.000000
vn 0.270614 -0.962688 0.000000
vn 0.270614 -0.962688 0.000000
vn -0.270581 0.962697 0.000000
vn -0.270607 0.962690 0.000000
vn -0.270607 0.962690 0.000000
vn -0.270581 0.962697 0.000000
vn 0.958841 0.283942 0.000000
vn 0.958841 0.283942 0.000000
vn 0.958841 0.283942 0.000000
vn 0.958841 0.283942 0.000000
vn -0.261037 0.965329 0.000000
vn -0.261037 0.965329 0.000000
vn -0.258162 0.966102 0.000000
vn -0.258162 0.966102 0.000000
vn -0.966357 -0.257203 0.000000
vn -0.966357 -0.257203 0.000000
vn -0.966357 -0.257203 0.000000
vn -0.966357 -0.257203 0.000000
vn 0.278300 -0.960494 0.000000
vn 0.278346 -0.960481 0.000000
vn 0.278346 -0.960481 0.000000
vn 0.278300 -0.960494 0.000000
vn 0.962690 0.270608 0.000000
vn 0.962690 0.270608 0.000000
vn 0.962690 0.270608 0.000000
vn 0.962690 0.270608 0.000000
vn -0.356120 -0.100123 0.929061
vn -0.356120 -0.100123 0.929061
vn -0.356126 -0.100124 0.929058
vn -0.356126 -0.100124 0.929058
vn -0.962707 -0.270545 0.000000
vn -0.962707 -0.270545 0.000000
vn -0.962707 -0.270545 0.000000
vn -0.962707 -0.270545 0.000000
vn -0.962689 -0.270610 0.000000
vn -0.962689 -0.270610 0.000000
vn -0.962689 -0.270610 0.000000
vn -0.962689 -0.270610 0.000000
vn 0.962685 0.270625 0.000000
vn 0.962685 0.270625 0.000000
vn 0.962685 0.270625 0.000000
vn 0.962685 0.270625 0.000000
vn 0.962681 0.270640 0.000000
vn 0.962681 0.270640 0.000000
vn 0.962681 0.270640 0.000000
vn 0.962681 0.270640 0.000000
vn -0.356112 -0.100099 0.929066
vn -0.356112 -0.100099 0.929066
vn -0.356104 -0.100095 0.929070
vn -0.356104 -0.100095 0.929070
vn -0.962684 -0.270627 0.000000
vn -0.962684 -0.270627 0.000000
vn -0.962684 -0.270627 0.000000
vn -0.962684 -0.270627 0.000000
vn -0.962705 -0.270553 0.000000
vn -0.962705 -0.270553 0.000000
vn -0.962705 -0.270553 0.000000
vn -0.962705 -0.270553 0.000000
vn 0.962701 0.270567 0.000000
vn 0.962701 0.270567 0.000000
vn 0.962701 0.270567 0.000000
vn 0.962701 0.270567 0.000000
vn -0.270577 0.962698 0.000000
vn -0.270577 0.962698 0.000000
vn -0.270577 0.962698 0.000000
vn -0.270577 0.962698 0.000000
vn -0.962686 -0.270621 0.000000
vn -0.962686 -0.270621 0.000000
vn -0.962686 -0.270621 0.000000
vn -0.962686 -0.270621 0.000000
vn -0.962679 -0.270647 0.000000
vn -0.962679 -0.270647 0.000000
vn -0.962679 -0.270647 0.000000
vn -0.962679 -0.270647 0.000000
vn -0.962688 -0.270615 0.000000
vn -0.962688 -0.270615 0.000000
vn -0.962688 -0.270615 0.000000
vn -0.962688 -0.270615 0.000000
vn 0.270605 -0.962691 0.000000
vn 0.270591 -0.962694 0.000000
vn 0.270591 -0.962694 0.000000
vn 0.270605 -0.962691 0.000000
vn 0.962711 0.270532 0.000000
vn 0.962711 0.270532 0.000000
vn 0.962711 0.270532 0.000000
vn 0.962711 0.270532 0.000000
vn 0.962688 0.270615 0.000000
vn 0.962688 0.270615 0.000000
vn 0.962688 0.270615 0.000000
vn 0.962688 0.270615 0.000000
vn 0.962705 0.270554 0.000000
vn 0.962705 0.270554 0.000000
vn 0.962705 0.270554 0.000000
vn 0.962705 0.270554 0.000000
vn 0.962685 0.270624 0.000067
vn 0.962685 0.270624 0.000067
vn 0.962685 0.270624 0.000067
vn 0.962685 0.270624 0.000067
vn 0.962687 0.270619 0.000000
vn 0.962687 0.270619 0.000000
vn 0.962687 0.270619 0.000000
vn 0.962687 0.270619 0.000000
vn -0.356126 -0.100073 0.929064
vn -0.356126 -0.100073 0.929064
vn -0.356149 -0.100075 0.929055
vn -0.356149 -0.100075 0.929055
vn -0.962701 -0.270566 0.000000
vn -0.962701 -0.270566 0.000000
vn -0.962701 -0.270566 0.000000
vn -0.962701 -0.270566 0.000000
vn -0.962718 -0.270506 0.000202
vn -0.962718 -0.270506 0.000202
vn -0.962718 -0.270506 0.000202
vn -0.962718 -0.270506 0.000202
vn -0.962673 -0.270666 0.000000
vn -0.962673 -0.270666 0.000000
vn -0.962673 -0.270666 0.000000
vn -0.962673 -0.270666 0.000000
vn 0.962668 0.270686 0.000000
vn 0.962668 0.270686 0.000000
vn 0.962668 0.270686 0.000000
vn 0.962668 0.270686 0.000000
vn 0.962715 0.270519 0.000000
vn 0.962715 0.270519 0.000000
vn 0.962715 0.270519 0.000000
vn 0.962715 0.270519 0.000000
vn 0.962771 0.270318 0.000000
vn 0.962771 0.270318 0.000000
vn 0.962771 0.270318 0.000000
vn 0.962771 0.270318 0.000000
vn -0.356104 -0.100105 0.929069
vn -0.356104 -0.100105 0.929069
vn -0.356070 -0.100095 0.929083
vn -0.356070 -0.100095 0.929083
vn -0.962624 -0.270841 0.000000
vn -0.962624 -0.270841 0.000000
vn -0.962624 -0.270841 0.000000
vn -0.962624 -0.270841 0.000000
vn -0.962703 -0.270561 0.000070
vn -0.962703 -0.270561 0.000070
vn -0.962703 -0.270561 0.000070
vn -0.962703 -0.270561 0.000070
vn -0.936688 -0.350164 0.000000
vn -0.936688 -0.350164 0.000000
vn -0.936688 -0.350164 0.000000
vn -0.936688 -0.350164 0.000000
vn 0.981961 0.189082 0.000000
vn 0.981961 0.189082 0.000000
vn 0.981961 0.189082 0.000000
vn 0.981961 0.189082 0.000000
vn -0.270515 0.962716 0.000234
vn -0.270515 0.962716 0.000234
vn -0.270516 0.962716 0.000308
vn -0.270516 0.962716 0.000308
vn -0.270612 0.962689 0.000000
vn -0.270612 0.962689 0.000000
vn -0.270612 0.962689 0.000000
vn -0.270612 0.962689 0.000000
vn -0.278671 0.960387 0.000000
vn -0.278671 0.960387 0.000000
vn -0.278770 0.960358 0.000000
vn -0.278770 0.960358 0.000000
vn 0.262863 -0.964833 0.000000
vn 0.262739 -0.964867 0.000000
vn 0.262739 -0.964867 0.000000
vn 0.262863 -0.964833 0.000000
vn 0.270701 -0.962664 0.000000
vn 0.270691 -0.962666 0.000000
vn 0.270691 -0.962666 0.000000
vn 0.270701 -0.962664 0.000000
vn 0.270629 -0.962684 0.000000
vn 0.270629 -0.962684 0.000000
vn 0.270661 -0.962675 0.000000
vn 0.270661 -0.962675 0.000000
vn 0.363534 0.102158 0.925963
vn 0.363534 0.102158 0.925963
vn 0.363530 0.102163 0.925964
vn 0.363530 0.102163 0.925964
vn 0.363493 0.102188 0.925975
vn 0.363493 0.102188 0.925975
vn 0.363496 0.102174 0.925976
vn 0.363496 0.102174 0.925976
vn 0.363518 0.102157 0.925969
vn 0.363518 0.102157 0.925969
vn 0.363520 0.102161 0.925968
vn 0.363520 0.102161 0.925968
vn 0.363513 0.102200 0.925966
vn 0.363513 0.102200 0.925966
vn 0.363504 0.102208 0.925969
vn 0.363504 0.102208 0.925969
vn 0.363546 0.102152 0.925959
vn 0.363546 0.102152 0.925959
vn 0.363554 0.102190 0.925951
vn 0.363554 0.102190 0.925951
vn 0.962702 0.270564 0.000014
vn 0.962702 0.270564 0.000014
vn 0.962702 0.270564 0.000014
vn 0.962702 0.270564 0.000014
vn 0.962697 0.270582 0.000002
vn 0.962697 0.270582 0.000002
vn 0.962697 0.270582 0.000002
vn 0.962697 0.270582 0.000002
vn 0.962703 0.270559 0.000060
vn 0.962703 0.270559 0.000060
vn 0.962703 0.270559 0.000060
vn 0.962703 0.270559 0.000060
vn 0.270684 -0.962668 0.000173
vn 0.270666 -0.962673 0.000155
vn 0.270666 -0.962673 0.000155
vn 0.270684 -0.962668 0.000173
vn 0.270526 -0.962713 0.000140
vn 0.270562 -0.962703 0.000120
vn 0.270562 -0.962703 0.000120
vn 0.270526 -0.962713 0.000140
vn -0.962691 -0.270605 0.000033
vn -0.962691 -0.270605 0.000033
vn -0.962691 -0.270605 0.000033
vn -0.962691 -0.270605 0.000033
vn -0.962686 -0.270622 0.000016
vn -0.962686 -0.270622 0.000016
vn -0.962686 -0.270622 0.000016
vn -0.962686 -0.270622 0.000016
vn -0.962688 -0.270615 0.000008
vn -0.962688 -0.270615 0.000008
vn -0.962688 -0.270615 0.000008
vn -0.962688 -0.270615 0.000008
vn -0.962682 -0.270635 -0.000010
vn -0.962682 -0.270635 -0.000010
vn -0.962682 -0.270635 -0.000010
vn -0.962682 -0.270635 -0.000010
vn -0.962655 -0.270730 0.000013
vn -0.962655 -0.270730 0.000013
vn -0.962655 -0.270730 0.000013
vn -0.962655 -0.270730 0.000013
vn -0.270501 0.962720 -0.000181
vn -0.270501 0.962720 -0.000181
vn -0.270501 0.962720 -0.000181
vn -0.270501 0.962720 -0.000181
vn -0.270586 0.962696 -0.000153
vn -0.270586 0.962696 -0.000153
vn -0.270586 0.962696 -0.000153
vn -0.270586 0.962696 -0.000153
vn 0.962740 0.270430 -0.000011
vn 0.962740 0.270430 -0.000011
vn 0.962740 0.270430 -0.000011
vn 0.962740 0.270430 -0.000011
vn 0.962653 0.270737 -0.000018
vn 0.962653 0.270737 -0.000018
vn 0.962653 0.270737 -0.000018
vn 0.962653 0.270737 -0.000018
vn -0.000054 -0.000008 -1.000000
vn -0.000054 -0.000008 -1.000000
vn -0.000054 -0.000008 -1.000000
vn -0.000054 -0.000008 -1.000000
vn -0.258647 0.965972 0.000418
vn -0.258647 0.965972 0.000418
vn -0.258647 0.965972 0.000418
vn -0.258647 0.965972 0.000418
vn -0.000003 -0.000006 1.000000
vn -0.000003 -0.000006 1.000000
vn -0.000003 -0.000006 1.000000
vn -0.000003 -0.000006 1.000000
vn 0.284232 -0.958755 0.000000
vn 0.284232 -0.958755 0.000000
vn 0.284232 -0.958755 0.000000
vn 0.284232 -0.958755 0.000000
vn -0.268734 0.963214 0.000000
vn -0.268734 0.963214 0.000000
vn -0.268734 0.963214 0.000000
vn -0.268734 0.963214 0.000000
vn -0.000053 0.000006 -1.000000
vn -0.000053 0.000006 -1.000000
vn -0.000053 0.000006 -1.000000
vn -0.000053 0.000006 -1.000000
vn 0.267221 -0.963635 0.001037
vn 0.267221 -0.963635 0.001037
vn 0.267221 -0.963635 0.001037
vn 0.267221 -0.963635 0.001037
vn 0.000017 -0.000016 1.000000
vn 0.000017 -0.000016 1.000000
vn 0.000017 -0.000016 1.000000
vn 0.000017 -0.000016 1.000000
vn 0.000030 0.000003 1.000000
vn 0.000030 0.000003 1.000000
vn 0.000030 0.000003 1.000000
vn 0.000030 0.000003 1.000000
vn 0.271438 -0.962456 0.000112
vn 0.271438 -0.962456 0.000112
vn 0.271438 -0.962456 0.000112
vn 0.271438 -0.962456 0.000112
vn -0.000043 -0.000008 -1.000000
vn -0.000043 -0.000008 -1.000000
vn -0.000043 -0.000008 -1.000000
vn -0.000043 -0.000008 -1.000000
vn -0.265561 0.964094 -0.000181
vn -0.265561 0.964094 -0.000181
vn -0.265561 0.964094 -0.000181
vn -0.265561 0.964094 -0.000181
vn 0.962708 0.270544 0.000000
vn 0.962708 0.270544 0.000000
vn 0.962708 0.270544 0.000000
vn 0.962708 0.270544 0.000000
vn 0.962684 0.270627 0.000000
vn 0.962684 0.270627 0.000000
vn 0.962684 0.270627 0.000000
vn 0.962684 0.270627 0.000000
vn 0.962708 0.270543 0.000000
vn 0.962708 0.270543 0.000000
vn 0.962708 0.270543 0.000000
vn 0.962708 0.270543 0.000000
vn 0.962662 0.270706 0.000000
vn 0.962662 0.270706 0.000000
vn 0.962662 0.270706 0.000000
vn 0.962662 0.270706 0.000000
vn 0.962716 0.270516 0.000000
vn 0.962716 0.270516 0.000000
vn 0.962716 0.270516 0.000000
vn 0.962716 0.270516 0.000000
vn -0.270579 0.962698 0.000000
vn -0.270579 0.962698 0.000000
vn -0.270624 0.962685 0.000000
vn -0.270624 0.962685 0.000000
vn -0.270621 0.962686 -0.000012
vn -0.270621 0.962686 -0.000012
vn -0.270614 0.962688 -0.000024
vn -0.270614 0.962688 -0.000024
vn -0.962748 -0.270399 0.000000
vn -0.962748 -0.270399 0.000000
vn -0.962748 -0.270399 0.000000
vn -0.962748 -0.270399 0.000000
vn -0.962685 -0.270626 -0.000022
vn -0.962685 -0.270626 -0.000022
vn -0.962685 -0.270626 -0.000022
vn -0.962685 -0.270626 -0.000022
vn -0.962684 -0.270629 -0.000023
vn -0.962684 -0.270629 -0.000023
vn -0.962684 -0.270629 -0.000023
vn -0.962684 -0.270629 -0.000023
vn -0.962674 -0.270662 0.000000
vn -0.962674 -0.270662 0.000000
vn -0.962674 -0.270662 0.000000
vn -0.962674 -0.270662 0.000000
vn -0.962695 -0.270589 0.000000
vn -0.962695 -0.270589 0.000000
vn -0.962695 -0.270589 0.000000
vn -0.962695 -0.270589 0.000000
vn 0.270594 -0.962693 0.000000
vn 0.270585 -0.962696 0.000000
vn 0.270585 -0.962696 0.000000
vn 0.270594 -0.962693 0.000000
vn 0.270684 -0.962668 0.000000
vn 0.270685 -0.962668 0.000000
vn 0.270685 -0.962668 0.000000
vn 0.270684 -0.962668 0.000000
vn -0.962619 -0.270861 0.000000
vn -0.962619 -0.270861 0.000000
vn -0.962619 -0.270861 0.000000
vn -0.962619 -0.270861 0.000000
vn -0.962702 -0.270564 0.000000
vn -0.962702 -0.270564 0.000000
vn -0.962702 -0.270564 0.000000
vn -0.962702 -0.270564 0.000000
vn -0.962683 -0.270632 0.000000
vn -0.962683 -0.270632 0.000000
vn -0.962683 -0.270632 0.000000
vn -0.962683 -0.270632 0.000000
vn -0.962708 -0.270544 0.000000
vn -0.962708 -0.270544 0.000000
vn -0.962708 -0.270544 0.000000
vn -0.962708 -0.270544 0.000000
vn -0.962690 -0.270606 0.000000
vn -0.962690 -0.270606 0.000000
vn -0.962690 -0.270606 0.000000
vn -0.962690 -0.270606 0.000000
vn 0.270601 -0.962692 0.000000
vn 0.270588 -0.962695 0.000000
vn 0.270588 -0.962695 0.000000
vn 0.270601 -0.962692 0.000000
vn 0.270704 -0.962663 0.000000
vn 0.270697 -0.962665 0.000000
vn 0.270697 -0.962665 0.000000
vn 0.270704 -0.962663 0.000000
vn 0.962702 0.270563 0.000000
vn 0.962702 0.270563 0.000000
vn 0.962702 0.270563 0.000000
vn 0.962702 0.270563 0.000000
vn 0.962693 0.270595 0.000000
vn 0.962693 0.270595 0.000000
vn 0.962693 0.270595 0.000000
vn 0.962693 0.270595 0.000000
vn 0.962685 0.270626 0.000000
vn 0.962685 0.270626 0.000000
vn 0.962685 0.270626 0.000000
vn 0.962685 0.270626 0.000000
vn 0.962682 0.270636 0.000000
vn 0.962682 0.270636 0.000000
vn 0.962682 0.270636 0.000000
vn 0.962682 0.270636 0.000000
vn 0.962782 0.270279 0.000000
vn 0.962782 0.270279 0.000000
vn 0.962782 0.270279 0.000000
vn 0.962782 0.270279 0.000000
vn -0.270578 0.962698 0.000000
vn -0.270578 0.962698 0.000000
vn -0.270628 0.962684 0.000000
vn -0.270628 0.962684 0.000000
vn -0.270611 0.962689 0.000000
vn -0.270611 0.962689 0.000000
vn -0.270610 0.962689 0.000000
vn -0.270610 0.962689 0.000000
vn 0.347369 0.097615 0.932634
vn 0.347369 0.097615 0.932634
vn 0.347369 0.097615 0.932634
vn 0.347369 0.097615 0.932634
vn 0.270620 -0.962686 0.000000
vn 0.270620 -0.962686 0.000000
vn 0.270620 -0.962686 0.000000
vn 0.270620 -0.962686 0.000000
vn 0.347400 0.097659 0.932618
vn 0.347400 0.097659 0.932618
vn 0.347400 0.097659 0.932618
vn 0.347400 0.097659 0.932618
vn 0.347422 0.097659 0.932610
vn 0.347422 0.097659 0.932610
vn 0.347422 0.097659 0.932610
vn 0.347422 0.097659 0.932610
vn 0.347418 0.097666 0.932610
vn 0.347418 0.097666 0.932610
vn 0.347418 0.097666 0.932610
vn 0.347418 0.097666 0.932610
vn 0.347367 0.097563 0.932640
vn 0.347367 0.097563 0.932640
vn 0.347367 0.097563 0.932640
vn 0.347367 0.097563 0.932640
vn -0.270542 0.962708 0.000000
vn -0.270542 0.962708 0.000000
vn -0.270542 0.962708 0.000000
vn -0.270542 0.962708 0.000000
vn 0.270577 -0.962698 0.000000
vn 0.270577 -0.962698 0.000000
vn 0.270577 -0.962698 0.000000
vn 0.270577 -0.962698 0.000000
vn -0.347373 -0.097617 -0.932632
vn -0.347373 -0.097617 -0.932632
vn -0.347373 -0.097617 -0.932632
vn -0.347373 -0.097617 -0.932632
vn -0.347386 -0.097662 -0.932623
vn -0.347386 -0.097662 -0.932623
vn -0.347386 -0.097662 -0.932623
vn -0.347386 -0.097662 -0.932623
vn -0.347416 -0.097641 -0.932614
vn -0.347416 -0.097641 -0.932614
vn -0.347416 -0.097641 -0.932614
vn -0.347416 -0.097641 -0.932614
vn -0.347422 -0.097682 -0.932607
vn -0.347422 -0.097682 -0.932607
vn -0.347422 -0.097682 -0.932607
vn -0.347422 -0.097682 -0.932607
vn -0.347389 -0.097597 -0.932629
vn -0.347389 -0.097597 -0.932629
vn -0.347389 -0.097597 -0.932629
vn -0.347389 -0.097597 -0.932629
vn -0.270729 0.962656 0.000000
vn -0.270729 0.962656 0.000000
vn -0.270729 0.962656 0.000000
vn -0.270729 0.962656 0.000000
vn 0.270580 -0.962698 0.000000
vn 0.270580 -0.962698 0.000000
vn 0.270580 -0.962698 0.000000
vn 0.270580 -0.962698 0.000000
vn -0.347382 -0.097644 0.932626
vn -0.347382 -0.097644 0.932626
vn -0.347382 -0.097644 0.932626
vn -0.347382 -0.097644 0.932626
vn -0.347391 -0.097634 0.932624
vn -0.347391 -0.097634 0.932624
vn -0.347391 -0.097634 0.932624
vn -0.347391 -0.097634 0.932624
vn -0.347444 -0.097667 0.932600
vn -0.347444 -0.097667 0.932600
vn -0.347444 -0.097667 0.932600
vn -0.347444 -0.097667 0.932600
vn -0.347448 -0.097664 0.932600
vn -0.347448 -0.097664 0.932600
vn -0.347448 -0.097664 0.932600
vn -0.347448 -0.097664 0.932600
vn -0.270549 0.962706 0.000000
vn -0.270549 0.962706 0.000000
vn -0.270549 0.962706 0.000000
vn -0.270549 0.962706 0.000000
vn -0.347473 -0.097694 0.932587
vn -0.347473 -0.097694 0.932587
vn -0.347473 -0.097694 0.932587
vn -0.347473 -0.097694 0.932587
vn -0.270518 0.962715 0.000000
vn -0.270518 0.962715 0.000000
vn -0.270518 0.962715 0.000000
vn -0.270518 0.962715 0.000000
vn 0.347502 0.097693 -0.932576
vn 0.347502 0.097693 -0.932576
vn 0.347502 0.097693 -0.932576
vn 0.347502 0.097693 -0.932576
vn 0.347465 0.097667 -0.932593
vn 0.347465 0.097667 -0.932593
vn 0.347465 0.097667 -0.932593
vn 0.347465 0.097667 -0.932593
vn 0.347442 0.097674 -0.932601
vn 0.347442 0.097674 -0.932601
vn 0.347442 0.097674 -0.932601
vn 0.347442 0.097674 -0.932601
vn 0.347413 0.097644 -0.932615
vn 0.347413 0.097644 -0.932615
vn 0.347413 0.097644 -0.932615
vn 0.347413 0.097644 -0.932615
vn 0.347391 0.097652 -0.932622
vn 0.347391 0.097652 -0.932622
vn 0.347391 0.097652 -0.932622
vn 0.347391 0.097652 -0.932622
vn 0.270628 -0.962684 0.000000
vn 0.270628 -0.962684 0.000000
vn 0.270628 -0.962684 0.000000
vn 0.270628 -0.962684 0.000000
vn 0.347409 0.097819 -0.932598
vn 0.347392 0.097879 -0.932598
vn 0.347392 0.097879 -0.932598
vn 0.347409 0.097819 -0.932598
vn -0.356039 -0.100331 0.929069
vn -0.356067 -0.100268 0.929065
vn -0.356067 -0.100268 0.929065
vn -0.356039 -0.100331 0.929069
vn -0.354746 -0.099869 -0.929614
vn -0.354826 -0.099852 -0.929585
vn -0.354826 -0.099852 -0.929585
vn -0.354746 -0.099869 -0.929614
vn 0.363594 0.102356 0.925917
vn 0.363525 0.102340 0.925946
vn 0.363525 0.102340 0.925946
vn 0.363594 0.102356 0.925917
vn -0.347389 -0.097672 -0.932620
vn -0.347389 -0.097672 -0.932620
vn -0.347389 -0.097672 -0.932620
vn -0.347389 -0.097672 -0.932620
vn 0.962701 0.270566 0.000000
vn 0.962701 0.270566 0.000000
vn 0.962701 0.270566 0.000000
vn 0.962701 0.270566 0.000000
vn 0.347401 0.097681 0.932615
vn 0.347401 0.097681 0.932615
vn 0.347401 0.097681 0.932615
vn 0.347401 0.097681 0.932615
vn -0.347389 -0.097586 0.932629
vn -0.347389 -0.097586 0.932629
vn -0.347389 -0.097586 0.932629
vn -0.347389 -0.097586 0.932629
vn -0.962751 -0.270391 0.000000
vn -0.962751 -0.270391 0.000000
vn -0.962751 -0.270391 0.000000
vn -0.962751 -0.270391 0.000000
vn 0.347383 0.097585 -0.932632
vn 0.347383 0.097585 -0.932632
vn 0.347383 0.097585 -0.932632
vn 0.347383 0.097585 -0.932632
vn 0.347448 0.097669 -0.932599
vn 0.347475 0.097650 -0.932591
vn 0.347475 0.097650 -0.932591
vn 0.347448 0.097669 -0.932599
vn -0.356119 -0.100069 0.929067
vn -0.356082 -0.100114 0.929076
vn -0.356082 -0.100114 0.929076
vn -0.356119 -0.100069 0.929067
vn 0.363525 0.102176 0.925964
vn 0.363532 0.102097 0.925970
vn 0.363532 0.102097 0.925970
vn 0.363525 0.102176 0.925964
vn -0.354749 -0.099580 -0.929644
vn -0.354741 -0.099695 -0.929634
vn -0.354741 -0.099695 -0.929634
vn -0.354749 -0.099580 -0.929644
vn 0.347436 0.097651 0.932605
vn 0.347436 0.097651 0.932605
vn 0.347436 0.097651 0.932605
vn 0.347436 0.097651 0.932605
vn 0.962621 0.270853 0.000000
vn 0.962621 0.270853 0.000000
vn 0.962621 0.270853 0.000000
vn 0.962621 0.270853 0.000000
vn -0.347469 -0.097613 -0.932597
vn -0.347469 -0.097613 -0.932597
vn -0.347469 -0.097613 -0.932597
vn -0.347469 -0.097613 -0.932597
vn 0.347474 0.097549 -0.932602
vn 0.347474 0.097549 -0.932602
vn 0.347474 0.097549 -0.932602
vn 0.347474 0.097549 -0.932602
vn -0.962801 -0.270210 0.000000
vn -0.962801 -0.270210 0.000000
vn -0.962801 -0.270210 0.000000
vn -0.962801 -0.270210 0.000000
vn -0.347466 -0.097556 0.932604
vn -0.347466 -0.097556 0.932604
vn -0.347466 -0.097556 0.932604
vn -0.347466 -0.097556 0.932604
vn -0.000004 -0.000002 -1.000000
vn -0.000004 0.000000 -1.000000
vn -0.000004 0.000000 -1.000000
vn -0.000004 -0.000002 -1.000000
vn -0.000005 -0.000001 -1.000000
vn -0.000004 -0.000001 -1.000000
vn -0.000004 -0.000001 -1.000000
vn -0.000005 -0.000001 -1.000000
vn -0.000001 -0.000003 -1.000000
vn 0.000026 -0.000003 -1.000000
vn 0.000026 -0.000003 -1.000000
vn -0.000001 -0.000003 -1.000000
vn 0.000001 -0.000001 -1.000000
vn 0.000001 -0.000000 -1.000000
vn 0.000001 -0.000000 -1.000000
vn 0.000001 -0.000001 -1.000000
vn 0.000020 0.000008 -1.000000
vn 0.000020 0.000008 -1.000000
vn -0.000004 -0.000000 -1.000000
vn -0.000004 -0.000000 -1.000000
vn 0.000018 0.000015 -1.000000
vn 0.000018 0.000015 -1.000000
vn -0.000021 0.000009 -1.000000
vn -0.000021 0.000009 -1.000000
vn 0.000019 0.000008 -1.000000
vn 0.000019 0.000008 -1.000000
vn -0.000017 -0.000018 -1.000000
vn -0.000017 -0.000018 -1.000000
vn 0.000012 0.000000 -1.000000
vn 0.000012 0.000000 -1.000000
vn -0.000015 -0.000022 -1.000000
vn -0.000015 -0.000022 -1.000000
vn -0.000014 0.000004 -1.000000
vn -0.000014 0.000004 -1.000000
vn 0.000004 0.000000 -1.000000
vn 0.000004 0.000000 -1.000000
vn -0.262907 0.964821 0.000000
vn -0.262907 0.964821 0.000000
vn -0.263409 0.964684 0.000000
vn -0.263409 0.964684 0.000000
vn 0.000001 0.000000 -1.000000
vn 0.000001 0.000000 -1.000000
vn -0.270722 0.962658 -0.000085
vn -0.270722 0.962658 -0.000085
vn -0.270722 0.962658 -0.000085
vn -0.270722 0.962658 -0.000085
vn -0.270970 0.962588 0.000316
vn -0.270970 0.962588 0.000316
vn -0.270970 0.962588 0.000316
vn -0.270970 0.962588 0.000316
vn -0.271025 0.962573 0.000000
vn -0.271025 0.962573 0.000000
vn -0.270827 0.962628 0.000000
vn -0.270827 0.962628 0.000000
vn -0.271024 0.962573 0.000000
vn -0.271024 0.962573 0.000000
vn -0.270818 0.962631 0.000000
vn -0.270818 0.962631 0.000000
vn 0.347485 0.097615 -0.932591
vn 0.347485 0.097615 -0.932591
vn 0.347466 0.097600 -0.932599
vn 0.347466 0.097600 -0.932599
vn -0.270706 0.962662 0.000000
vn -0.270706 0.962662 0.000000
vn -0.270780 0.962641 0.000000
vn -0.270780 0.962641 0.000000
vn -0.356114 -0.100034 0.929073
vn -0.356135 -0.100029 0.929065
vn -0.356135 -0.100029 0.929065
vn -0.356114 -0.100034 0.929073
vn -0.356227 -0.100093 0.929023
vn -0.356227 -0.100093 0.929023
vn -0.356183 -0.100104 0.929039
vn -0.356183 -0.100104 0.929039
vn -0.356091 -0.100091 0.929075
vn -0.356091 -0.100091 0.929075
vn -0.356097 -0.100081 0.929074
vn -0.356097 -0.100081 0.929074
vn -0.356144 -0.100117 0.929052
vn -0.356144 -0.100117 0.929052
vn -0.356132 -0.100110 0.929058
vn -0.356132 -0.100110 0.929058
vn -0.356122 -0.100133 0.929059
vn -0.356122 -0.100133 0.929059
vn -0.356118 -0.100128 0.929061
vn -0.356118 -0.100128 0.929061
vn -0.356159 -0.100104 0.929048
vn -0.356159 -0.100104 0.929048
vn -0.356150 -0.100100 0.929052
vn -0.356150 -0.100100 0.929052
vn -0.356131 -0.100145 0.929054
vn -0.356131 -0.100145 0.929054
vn -0.356168 -0.100086 0.929046
vn -0.356168 -0.100086 0.929046
vn 0.270769 -0.962644 0.000000
vn 0.270769 -0.962644 0.000000
vn 0.270693 -0.962666 0.000000
vn 0.270693 -0.962666 0.000000
vn 0.347498 0.097618 -0.932586
vn 0.347462 0.097689 -0.932592
vn 0.347462 0.097689 -0.932592
vn 0.347498 0.097618 -0.932586
vn 0.270536 -0.962710 0.000000
vn 0.270536 -0.962710 0.000000
vn 0.270497 -0.962721 0.000000
vn 0.270497 -0.962721 0.000000
vn 0.270524 -0.962713 0.000000
vn 0.270524 -0.962713 0.000000
vn 0.270472 -0.962728 0.000000
vn 0.270472 -0.962728 0.000000
vn 0.270528 -0.962712 0.000000
vn 0.270528 -0.962712 0.000000
vn 0.270478 -0.962726 0.000000
vn 0.270478 -0.962726 0.000000
vn 0.270612 -0.962688 0.000135
vn 0.270612 -0.962688 0.000135
vn 0.270628 -0.962684 0.000169
vn 0.270628 -0.962684 0.000169
vn -0.000014 0.000001 -1.000000
vn -0.000014 0.000001 -1.000000
vn 0.278356 -0.960478 0.000000
vn 0.278356 -0.960478 0.000000
vn 0.278321 -0.960488 0.000000
vn 0.278321 -0.960488 0.000000
vn -0.270578 0.962698 -0.000121
vn -0.270578 0.962698 -0.000121
vn -0.270578 0.962698 -0.000121
vn -0.270578 0.962698 -0.000121
vn -0.270641 0.962680 0.000000
vn -0.270641 0.962680 0.000000
vn -0.270641 0.962680 0.000000
vn -0.270641 0.962680 0.000000
vn -0.278522 0.960430 0.000000
vn -0.278522 0.960430 0.000000
vn -0.000006 0.000000 -1.000000
vn -0.000006 0.000000 -1.000000
vn -0.270582 0.962697 -0.000187
vn -0.270582 0.962697 -0.000187
vn -0.270582 0.962697 -0.000187
vn -0.270582 0.962697 -0.000187
vn -0.270531 0.962711 0.000000
vn -0.270531 0.962711 0.000000
vn -0.270531 0.962711 0.000000
vn -0.270531 0.962711 0.000000
vn -0.270560 0.962703 0.000000
vn -0.270560 0.962703 0.000000
vn -0.270550 0.962706 0.000000
vn -0.270550 0.962706 0.000000
vn -0.354722 -0.099817 -0.929628
vn -0.354722 -0.099817 -0.929628
vn -0.270533 0.962711 0.000080
vn -0.270533 0.962711 0.000080
vn 0.363486 0.102282 0.925968
vn 0.363486 0.102282 0.925968
vn 0.363557 0.102105 0.925959
vn 0.363557 0.102105 0.925959
vn 0.363519 0.102180 0.925966
vn 0.363519 0.102180 0.925966
vn 0.363516 0.102156 0.925970
vn 0.363516 0.102156 0.925970
vn 0.363477 0.102205 0.925980
vn 0.363477 0.102205 0.925980
vn 0.363538 0.102164 0.925960
vn 0.363538 0.102164 0.925960
vn 0.363456 0.102317 0.925976
vn 0.363456 0.102317 0.925976
vn 0.270554 -0.962705 0.000000
vn 0.270554 -0.962705 0.000000
vn -0.354689 -0.099875 -0.929635
vn -0.354689 -0.099875 -0.929635
vn 0.270558 -0.962704 0.000000
vn 0.270558 -0.962704 0.000000
vn 0.270570 -0.962700 0.000000
vn 0.270570 -0.962700 0.000000
vn 0.270566 -0.962701 0.000000
vn 0.270566 -0.962701 0.000000
vn 0.270588 -0.962695 0.000136
vn 0.270588 -0.962695 0.000136
vn 0.000000 0.000000 -1.000000
vn 0.000000 0.000000 -1.000000
vn 0.262649 -0.964892 0.000000
vn 0.262649 -0.964892 0.000000
vn -0.278473 0.960444 0.000000
vn -0.278473 0.960444 0.000000
vn -0.270586 0.962696 -0.000204
vn -0.270586 0.962696 -0.000204
vn -0.270586 0.962696 -0.000204
vn -0.270586 0.962696 -0.000204
vn -0.270579 0.962698 0.000000
vn -0.270579 0.962698 0.000000
vn -0.270579 0.962698 0.000000
vn -0.270579 0.962698 0.000000
vn -0.270585 0.962696 0.000000
vn -0.270585 0.962696 0.000000
vn -0.270573 0.962699 0.000000
vn -0.270573 0.962699 0.000000
vn -0.354712 -0.099824 -0.929632
vn -0.354712 -0.099824 -0.929632
vn -0.270551 0.962706 0.000000
vn -0.270551 0.962706 0.000000
vn 0.363454 0.102309 0.925977
vn 0.363454 0.102309 0.925977
vn 0.363576 0.102096 0.925953
vn 0.363576 0.102096 0.925953
vn 0.363515 0.102169 0.925969
vn 0.363515 0.102169 0.925969
vn 0.363517 0.102157 0.925969
vn 0.363517 0.102157 0.925969
vn 0.363464 0.102208 0.925985
vn 0.363464 0.102208 0.925985
vn 0.363538 0.102174 0.925959
vn 0.363538 0.102174 0.925959
vn 0.363455 0.102308 0.925977
vn 0.363455 0.102308 0.925977
vn 0.270512 -0.962717 0.000000
vn 0.270512 -0.962717 0.000000
vn -0.354713 -0.099863 -0.929627
vn -0.354713 -0.099863 -0.929627
vn 0.270426 -0.962741 0.000000
vn 0.270426 -0.962741 0.000000
vn 0.270454 -0.962733 0.000000
vn 0.270454 -0.962733 0.000000
vn 0.270451 -0.962734 0.000000
vn 0.270451 -0.962734 0.000000
vn 0.270529 -0.962712 0.000136
vn 0.270529 -0.962712 0.000136
vn 0.262681 -0.964883 0.000000
vn 0.262681 -0.964883 0.000000
vn -0.962601 -0.270924 -0.000002
vn -0.962670 -0.270679 -0.000005
vn -0.962670 -0.270679 -0.000005
vn -0.962601 -0.270924 -0.000002
vn -0.000022 0.000086 1.000000
vn -0.000022 0.000086 1.000000
vn -0.000022 0.000086 1.000000
vn -0.000022 0.000086 1.000000
vn 0.962415 0.271582 -0.000033
vn 0.962609 0.270895 -0.000016
vn 0.962609 0.270895 -0.000016
vn 0.962415 0.271582 -0.000033
vn 0.962802 0.270209 0.000000
vn 0.962802 0.270209 0.000000
vn -0.000029 0.000020 -1.000000
vn -0.000029 0.000020 -1.000000
vn -0.000029 0.000020 -1.000000
vn -0.000029 0.000020 -1.000000
vn -0.962532 -0.271170 0.000000
vn -0.962532 -0.271170 0.000000
vn -0.962569 -0.271037 0.000009
vn -0.962704 -0.270556 0.000019
vn -0.962704 -0.270556 0.000019
vn -0.962569 -0.271037 0.000009
vn 0.000003 0.000044 1.000000
vn 0.000003 0.000044 1.000000
vn 0.000003 0.000044 1.000000
vn 0.000003 0.000044 1.000000
vn 0.962436 0.271510 -0.000014
vn 0.962583 0.270987 -0.000007
vn 0.962583 0.270987 -0.000007
vn 0.962436 0.271510 -0.000014
vn 0.962730 0.270464 0.000000
vn 0.962730 0.270464 0.000000
vn -0.000001 0.000001 -1.000000
vn -0.000001 0.000001 -1.000000
vn -0.000001 0.000001 -1.000000
vn -0.000001 0.000001 -1.000000
vn -0.962433 -0.271519 0.000000
vn -0.962433 -0.271519 0.000000
vn 0.000000 1.000000 0.000000
vn 0.000000 1.000000 0.000000
vn 0.000000 1.000000 0.000000
vn 0.000000 1.000000 0.000000
s off
g polySurface2
usemtl lambert9SG
f 93/1/1 94/2/2 95/3/3 96/4/4
f 111/23/5 112/24/6 113/25/7 114/26/8
s 1
usemtl lambert5SG
f 214/385/9 215/386/10 42/47/11 43/48/12
s 2
usemtl lambert9SG
f 216/388/13 217/389/14 131/87/15 132/88/16
s 3
f 139/95/17 208/377/18 209/379/19 142/98/20
s off
usemtl lambert6SG
f 149/304/21 150/301/22 151/302/23 152/303/24
s 4
f 201/369/25 202/370/26 155/306/27 156/307/28
s off
f 157/309/29 158/310/30 159/311/31 160/312/32
s 5
f 161/313/33 223/397/34 224/398/35 162/316/36
s off
usemtl lambert9SG
f 97/9/37 93/1/38 96/4/39 98/10/40
s 6
usemtl lambert5SG
f 213/384/41 214/385/42 43/48/43 44/56/44
s off
usemtl lambert9SG
f 115/27/45 116/28/46 112/24/47 111/23/48
usemtl lambert6SG
f 159/311/49 158/310/50 163/317/51 164/318/52
f 165/320/53 166/319/54 150/301/55 149/304/56
usemtl lambert9SG
f 99/12/57 97/9/58 98/10/59 100/13/60
s 7
usemtl lambert5SG
f 212/383/61 213/384/62 44/56/63 45/64/64
s off
usemtl lambert9SG
f 117/33/65 118/34/66 116/28/67 115/27/68
usemtl lambert6SG
f 164/318/69 163/317/70 167/321/71 168/322/72
f 169/324/73 170/323/74 166/319/75 165/320/76
usemtl lambert2SG
f 204/372/77 205/373/78 38/134/79 39/131/80
f 19/158/81 29/162/82 30/159/83 16/154/84
f 20/153/85 19/158/86 16/154/87 12/150/88
f 21/152/89 20/153/90 12/150/91 8/149/92
s 8
f 41/176/93 220/394/94 221/395/95 40/173/96
s off
f 23/111/97 22/112/98 5/109/99 9/108/100
f 24/116/101 23/111/102 9/108/103 13/115/104
f 26/119/105 24/116/106 13/115/107 25/114/108
usemtl lambert4SG
f 62/190/109 61/191/110 63/192/111 64/193/112
usemtl lambert9SG
f 101/15/113 99/12/114 100/13/115 102/16/116
s 9
usemtl lambert5SG
f 211/382/117 212/383/118 45/64/119 46/70/120
s off
usemtl lambert9SG
f 119/36/121 120/37/122 118/34/123 117/33/124
usemtl lambert4SG
f 66/194/125 65/195/126 67/196/127 68/197/128
usemtl lambert6SG
f 168/322/129 167/321/130 171/325/131 172/326/132
f 173/328/133 174/327/134 170/323/135 169/324/136
usemtl lambert2SG
f 17/124/137 32/125/138 31/118/139 6/122/140
usemtl lambert9SG
f 103/18/141 101/15/142 102/16/143 104/19/144
s 10
usemtl lambert5SG
f 210/381/145 211/382/146 46/70/147 37/75/148
s off
usemtl lambert9SG
f 121/39/149 122/40/150 120/37/151 119/36/152
usemtl lambert2SG
f 36/163/153 35/168/154 18/169/155 7/166/156
usemtl lambert6SG
f 172/332/157 171/329/158 153/330/159 154/331/160
f 175/333/161 174/327/162 173/328/163 176/334/164
s 11
usemtl lambert9SG
f 232/407/165 233/409/166 143/101/167 144/102/168
s off
usemtl lambert2SG
f 228/402/169 229/403/170 17/138/171 6/135/172
s 12
usemtl lambert6SG
f 225/399/173 226/400/174 175/335/175 176/336/176
s 13
f 151/337/177 247/429/178 248/430/179 152/338/180
s 14
usemtl lambert2SG
f 22/181/181 244/426/182 245/427/183 5/178/184
s 15
usemtl lambert9SG
f 240/418/185 241/419/186 133/91/187 134/92/188
s 16
usemtl lambert5SG
f 238/415/189 239/416/190 4/53/191 10/54/192
s 17
f 237/414/193 238/415/194 10/54/195 14/62/196
s 18
f 236/413/197 237/414/198 14/62/199 27/68/200
s 19
f 235/412/201 236/413/202 27/68/203 33/73/204
s 20
f 234/411/205 235/412/206 33/73/207 3/78/208
s off
usemtl lambert2SG
f 47/110/209 25/114/210 13/115/211 48/107/212
usemtl lambert3SG
f 70/200/213 69/201/214 71/202/215 72/203/216
usemtl lambert2SG
f 50/106/217 49/105/218 9/108/219 5/109/220
s 21
f 5/178/221 245/427/222 246/428/223 50/175/224
s 22
f 40/173/225 221/395/226 222/396/227 51/171/228
s off
f 8/149/229 12/150/230 53/148/231 52/147/232
f 54/151/233 53/148/234 12/150/235 16/154/236
f 55/155/237 54/151/238 16/154/239 30/159/240
f 56/160/241 55/155/242 30/159/243 36/163/244
f 57/165/245 56/160/246 36/163/247 7/166/248
f 58/129/249 203/371/250 204/372/251 39/131/252
f 59/132/253 227/401/254 228/402/255 6/135/256
f 6/122/257 31/118/258 60/113/259 59/117/260
f 47/110/261 60/113/262 31/118/263 25/114/264
f 32/204/265 26/205/266 61/206/267 62/207/268
f 26/208/269 25/209/270 63/210/271 61/211/272
f 25/212/273 31/213/274 64/214/275 63/215/276
f 31/216/277 32/217/278 62/218/279 64/219/280
f 30/220/281 29/221/282 65/222/283 66/223/284
f 29/224/285 35/225/286 67/226/287 65/227/288
f 35/228/289 36/229/290 68/230/291 67/231/292
f 36/232/293 30/233/294 66/234/295 68/235/296
f 49/236/297 48/237/298 69/238/299 70/239/300
f 48/240/301 13/241/302 71/242/303 69/243/304
f 13/244/305 9/245/306 72/246/307 71/247/308
f 9/248/309 49/249/310 70/250/311 72/251/312
f 74/121/313 73/253/314 22/112/315 23/111/316
f 75/120/317 74/121/318 23/111/319 24/116/320
f 76/123/321 75/120/322 24/116/323 26/119/324
f 77/126/325 76/123/326 26/119/327 32/125/328
f 78/127/329 77/126/330 32/125/331 17/124/332
s 23
f 229/403/333 230/404/334 78/141/335 17/138/336
s 24
f 205/373/337 206/374/338 79/137/339 38/134/340
s off
f 81/167/341 80/170/342 18/169/343 35/168/344
f 82/164/345 81/167/346 35/168/347 29/162/348
f 83/161/349 82/164/350 29/162/351 19/158/352
f 84/157/353 83/161/354 19/158/355 20/153/356
f 85/156/357 84/157/358 20/153/359 21/152/360
s 25
f 86/179/361 219/393/362 220/394/363 41/176/364
s 26
f 73/256/365 243/424/366 244/425/367 22/252/368
s off
usemtl lambert8SG
f 122/40/369 123/44/370 124/41/371 120/37/372
f 118/34/373 120/37/374 124/41/375 125/38/376
f 116/28/377 118/34/378 125/38/379 126/35/380
f 112/24/381 116/28/382 126/35/383 127/29/384
f 113/25/385 112/24/386 127/29/387 128/30/388
s 27
usemtl lambert2SG
f 89/182/389 218/392/390 219/393/391 86/179/392
s 28
f 90/186/393 242/422/394 243/423/395 73/187/396
s off
usemtl lambert8SG
f 96/4/397 95/3/398 105/7/399 106/8/400
f 98/10/401 96/4/402 106/8/403 107/11/404
f 100/13/405 98/10/406 107/11/407 108/14/408
f 102/16/409 100/13/410 108/14/411 109/17/412
f 104/19/413 102/16/414 109/17/415 110/20/416
s 29
usemtl lambert2SG
f 230/404/417 231/406/418 91/144/419 78/141/420
s 30
f 206/374/421 207/376/422 92/140/423 79/137/424
s off
usemtl lambert5SG
f 10/54/425 4/53/426 94/60/427 93/61/428
usemtl lambert9SG
f 134/92/429 133/91/430 135/93/431 136/94/432
usemtl lambert5SG
f 14/62/433 10/54/434 93/61/435 97/67/436
f 27/68/437 14/62/438 97/67/439 99/72/440
f 33/73/441 27/68/442 99/72/443 101/77/444
f 3/78/445 33/73/446 101/77/447 103/82/448
usemtl lambert9SG
f 144/102/449 143/101/450 145/103/451 146/104/452
usemtl lambert8SG
f 90/186/453 73/187/454 105/188/455 95/189/456
f 73/258/457 74/259/458 106/260/459 105/261/460
f 74/259/461 75/262/462 107/263/463 106/260/464
f 75/262/465 76/264/466 108/265/467 107/263/468
f 76/264/469 77/266/470 109/267/471 108/265/472
f 77/266/473 78/268/474 110/269/475 109/267/476
f 78/141/477 91/144/478 104/145/479 110/146/480
usemtl lambert9SG
f 130/86/481 129/85/482 137/89/483 138/90/484
usemtl lambert5SG
f 2/46/485 11/45/486 111/49/487 114/50/488
f 11/45/489 15/55/490 115/57/491 111/49/492
f 15/55/493 28/63/494 117/65/495 115/57/496
f 28/63/497 34/69/498 119/71/499 117/65/500
usemtl lambert9SG
f 141/97/501 140/96/502 147/99/503 148/100/504
usemtl lambert5SG
f 34/69/505 1/74/506 121/76/507 119/71/508
usemtl lambert8SG
f 87/139/509 80/136/510 123/142/511 122/143/512
f 80/270/513 81/271/514 124/272/515 123/273/516
f 81/271/517 82/274/518 125/275/519 124/272/520
f 82/274/521 83/276/522 126/277/523 125/275/524
f 83/276/525 84/278/526 127/279/527 126/277/528
f 84/278/529 85/280/530 128/281/531 127/279/532
f 85/180/533 88/183/534 113/184/535 128/185/536
s 31
usemtl lambert9SG
f 218/391/537 89/283/538 131/284/539 217/390/540
s 32
usemtl lambert5SG
f 42/47/541 215/386/542 216/387/543 132/52/544
s 33
usemtl lambert9SG
f 242/421/545 90/286/546 133/287/547 241/420/548
s 34
usemtl lambert5SG
f 4/53/549 239/416/550 240/417/551 134/59/552
s off
usemtl lambert9SG
f 90/286/553 95/290/554 135/291/555 133/287/556
f 95/3/557 94/2/558 136/5/559 135/6/560
usemtl lambert5SG
f 94/60/561 4/53/562 134/59/563 136/66/564
f 2/46/565 114/50/566 137/58/567 129/51/568
usemtl lambert9SG
f 114/26/569 113/25/570 138/31/571 137/32/572
f 113/288/573 88/282/574 130/285/575 138/289/576
s 35
f 92/292/577 207/375/578 208/378/579 139/295/580
s 36
usemtl lambert5SG
f 210/381/581 37/75/582 142/79/583 209/380/584
s 37
f 234/411/585 3/78/586 143/83/587 233/410/588
s 38
usemtl lambert9SG
f 91/298/589 231/405/590 232/408/591 144/299/592
s off
usemtl lambert5SG
f 3/78/593 103/82/594 145/84/595 143/83/596
usemtl lambert9SG
f 103/18/597 104/19/598 146/21/599 145/22/600
f 104/300/601 91/298/602 144/299/603 146/255/604
f 87/293/605 122/296/606 147/297/607 140/294/608
f 122/40/609 121/39/610 148/42/611 147/43/612
usemtl lambert5SG
f 121/76/613 1/74/614 141/80/615 148/81/616
s 39
usemtl lambert2SG
f 49/105/617 50/106/618 151/302/619 150/301/620
f 203/371/621 58/129/622 155/306/623 202/370/624
f 52/147/625 53/148/626 158/310/627 157/309/628
f 51/171/629 222/396/630 223/397/631 161/313/632
f 53/148/626 54/151/633 163/317/634 158/310/627
f 48/107/635 49/105/617 150/301/620 166/319/636
f 54/151/633 55/155/637 167/321/638 163/317/634
f 47/110/639 48/107/635 166/319/636 170/323/640
f 55/155/637 56/160/641 171/325/642 167/321/638
f 60/113/643 47/110/639 170/323/640 174/327/644
f 56/198/641 57/199/645 153/330/646 171/329/642
f 59/117/647 60/113/643 174/327/644 175/333/648
f 227/401/649 59/132/647 175/335/648 226/400/650
f 50/175/618 246/428/651 247/429/652 151/337/619
s 4
usemtl lambert6SG
f 154/308/653 153/305/654 178/340/655 177/339/656
s 39
usemtl lambert2SG
f 57/128/645 179/341/657 178/340/658 153/305/646
s off
f 180/342/659 179/341/660 57/128/661 7/130/662
f 7/130/663 18/133/664 181/343/665 180/342/666
s 24
f 18/133/667 80/136/668 182/344/669 181/343/670
s 30
f 80/136/671 87/139/672 183/346/673 182/344/674
s 35
usemtl lambert9SG
f 184/348/675 183/345/676 87/293/677 140/294/678
s 3
f 185/349/679 184/347/680 140/96/681 141/97/682
s 36
usemtl lambert5SG
f 1/74/683 186/351/684 185/350/685 141/80/686
s 10
f 1/74/687 34/69/688 187/352/689 186/351/690
s 9
f 34/69/691 28/63/692 188/353/693 187/352/694
s 7
f 28/63/695 15/55/696 189/354/697 188/353/698
s 6
f 15/55/699 11/45/700 190/355/701 189/354/702
s 1
f 11/45/703 2/46/704 191/356/705 190/355/706
s 32
f 192/357/707 191/356/708 2/46/709 129/51/710
s 2
usemtl lambert9SG
f 129/85/711 130/86/712 193/359/713 192/358/714
s 31
f 88/282/715 194/361/716 193/360/717 130/285/718
s 27
usemtl lambert2SG
f 195/363/719 194/362/720 88/183/721 85/180/722
s 25
f 196/364/723 195/363/724 85/180/725 21/177/726
s 8
f 197/365/727 196/364/728 21/177/729 8/174/730
s 22
f 198/366/731 197/365/732 8/174/733 52/172/734
s 39
f 199/367/735 198/366/736 52/172/625 157/314/628
s 5
usemtl lambert6SG
f 200/368/737 199/367/738 157/314/739 160/315/740
s 4
f 177/339/656 178/340/655 202/370/26 201/369/25
s 39
usemtl lambert2SG
f 179/341/657 203/371/621 202/370/624 178/340/658
s off
usemtl lambert7SG
f 274/481/741 273/482/742 275/483/743 276/484/744
f 276/484/745 277/485/746 278/486/747 274/481/748
s 24
usemtl lambert2SG
f 181/343/670 182/344/669 206/374/338 205/373/337
s 30
f 182/344/674 183/346/673 207/376/422 206/374/421
s 35
usemtl lambert9SG
f 208/378/579 207/375/578 183/345/676 184/348/675
s 3
f 209/379/19 208/377/18 184/347/680 185/349/679
s 36
usemtl lambert5SG
f 186/351/684 210/381/581 209/380/584 185/350/685
s 10
f 186/351/690 187/352/689 211/382/146 210/381/145
s 9
f 187/352/694 188/353/693 212/383/118 211/382/117
s 7
f 188/353/698 189/354/697 213/384/62 212/383/61
s 6
f 189/354/702 190/355/701 214/385/42 213/384/41
s 1
f 190/355/706 191/356/705 215/386/10 214/385/9
s 32
f 216/387/543 215/386/542 191/356/708 192/357/707
s 2
usemtl lambert9SG
f 192/358/714 193/359/713 217/389/14 216/388/13
s 31
f 194/361/716 218/391/537 217/390/540 193/360/717
s 27
usemtl lambert2SG
f 219/393/391 218/392/390 194/362/720 195/363/719
s 25
f 220/394/363 219/393/362 195/363/724 196/364/723
s 8
f 221/395/95 220/394/94 196/364/728 197/365/727
s 22
f 222/396/227 221/395/226 197/365/732 198/366/731
s 39
f 223/397/631 222/396/630 198/366/736 199/367/735
s 5
usemtl lambert6SG
f 224/398/35 223/397/34 199/367/738 200/368/737
s 12
f 249/431/749 250/432/750 226/400/174 225/399/173
s 39
usemtl lambert2SG
f 251/433/751 227/401/649 226/400/650 250/432/752
s off
usemtl lambert7SG
f 280/475/753 279/476/754 281/477/755 282/478/756
f 282/478/757 283/479/758 284/480/759 280/475/760
s 23
usemtl lambert2SG
f 253/435/761 254/436/762 230/404/334 229/403/333
s 29
f 254/436/763 255/438/764 231/406/418 230/404/417
s 38
usemtl lambert9SG
f 232/408/591 231/405/590 255/437/765 256/440/766
s 11
f 256/439/767 257/441/768 233/409/166 232/407/165
s 37
usemtl lambert5SG
f 258/443/769 234/411/585 233/410/588 257/442/770
s 20
f 258/443/771 259/444/772 235/412/206 234/411/205
s 19
f 259/444/773 260/445/774 236/413/202 235/412/201
s 18
f 260/445/775 261/446/776 237/414/198 236/413/197
s 17
f 261/446/777 262/447/778 238/415/194 237/414/193
s 16
f 262/447/779 263/448/780 239/416/190 238/415/189
s 34
f 240/417/551 239/416/550 263/448/781 264/449/782
s 15
usemtl lambert9SG
f 264/450/783 265/451/784 241/419/186 240/418/185
s 33
f 266/453/785 242/421/545 241/420/548 265/452/786
s 28
usemtl lambert2SG
f 243/423/395 242/422/394 266/454/787 267/455/788
s 26
f 244/425/367 243/424/366 267/456/789 268/457/790
s 14
f 245/427/183 244/426/182 268/458/791 269/459/792
s 21
f 246/428/223 245/427/222 269/459/793 270/460/794
s 39
f 247/429/652 246/428/651 270/460/795 271/461/796
s 13
usemtl lambert6SG
f 248/430/179 247/429/178 271/461/797 272/462/798
s 12
f 156/307/799 155/306/800 250/432/750 249/431/749
s 39
usemtl lambert2SG
f 58/129/622 251/433/751 250/432/752 155/306/623
s off
f 252/434/801 251/433/802 58/129/803 39/131/804
f 39/131/805 38/134/806 253/435/807 252/434/808
s 23
f 38/134/809 79/137/810 254/436/762 253/435/761
s 29
f 79/137/811 92/140/812 255/438/764 254/436/763
s 38
usemtl lambert9SG
f 256/440/766 255/437/765 92/292/813 139/295/814
s 11
f 139/95/815 142/98/816 257/441/768 256/439/767
s 37
usemtl lambert5SG
f 37/75/817 258/443/769 257/442/770 142/79/818
s 20
f 37/75/819 46/70/820 259/444/772 258/443/771
s 19
f 46/70/821 45/64/822 260/445/774 259/444/773
s 18
f 45/64/823 44/56/824 261/446/776 260/445/775
s 17
f 44/56/825 43/48/826 262/447/778 261/446/777
s 16
f 43/48/827 42/47/828 263/448/780 262/447/779
s 34
f 264/449/782 263/448/781 42/47/829 132/52/830
s 15
usemtl lambert9SG
f 132/88/831 131/87/832 265/451/784 264/450/783
s 33
f 89/283/833 266/453/785 265/452/786 131/284/834
s 28
usemtl lambert2SG
f 267/455/788 266/454/787 89/182/835 86/179/836
s 26
f 268/457/790 267/456/789 86/257/837 41/254/838
s 14
f 269/459/792 268/458/791 41/176/839 40/173/840
s 21
f 270/460/794 269/459/793 40/173/841 51/171/842
s 39
f 271/461/796 270/460/795 51/171/629 161/313/632
s 13
usemtl lambert6SG
f 272/462/798 271/461/797 161/313/843 162/316/844
s 43
usemtl lambert2SG
f 204/372/845 203/371/846 273/464/847 274/463/848
s off
f 203/371/849 179/341/850 275/465/851 273/464/852
s 44
f 179/341/853 180/342/854 276/466/855 275/465/856
f 180/342/854 181/343/857 277/467/858 276/466/855
s off
f 181/343/859 205/373/860 278/468/861 277/467/862
s 43
f 205/373/863 204/372/845 274/463/848 278/468/864
s 45
f 228/402/865 227/401/866 279/470/867 280/469/868
s off
f 227/401/869 251/433/870 281/471/871 279/470/872
s 46
f 251/433/873 252/434/874 282/472/875 281/471/876
f 252/434/874 253/435/877 283/473/878 282/472/875
s off
f 253/435/879 229/403/880 284/474/881 283/473/882
s 45
f 229/403/883 228/402/865 280/469/868 284/474/884
s off
usemtl initialShadingGroup
f 285/487/885 286/488/886 288/489/887 287/490/888
