# 3ds Max Wavefront OBJ Exporter v0.97b - (c)2007 guruware
# File Created: 19.12.2011 13:35:06

mtllib Lai_30e-origo.mtl

#
# object Lai_30e
#

v  542311.009468 6589306.594772 21.327093
v  542307.869677 6589304.939209 21.122711
v  542307.86968 6589304.939209 15.740976
v  542310.451899 6589303.269302 15.822942
v  542310.4519 6589303.269302 19.832600
v  542311.483143 6589306.327682 20.390495
v  542315.973684 6589313.152725 15.822942
v  542311.483141 6589306.327682 21.280149
v  542315.973682 6589313.152725 21.365267
v  542311.627014 6589306.243713 21.280149
v  542316.154629 6589313.06163 21.365267
v  542309.469311 6589307.444748 20.949743
v  542311.009468 6589306.594772 21.674429
v  542309.469315 6589307.444748 21.357410
v  542315.566383 6589313.475342 21.759546
v  542315.566387 6589313.475342 21.412210
v  542305.679026 6589309.917969 21.370022
v  542314.380369 6589314.297943 21.034861
v  542309.885231 6589317.492905 21.299353
v  542309.885233 6589317.49292 15.848745
v  542305.679029 6589309.917969 15.848743
v  542309.469181 6589307.549377 15.740976
v  542311.483139 6589306.327682 20.377199
v  542307.869665 6589304.939209 21.357412
v  542312.72817 6589305.510986 19.798401
v  542311.0152 6589302.899704 19.798401
v  542310.942101 6589302.947693 19.580601
v  542312.655066 6589305.55899 19.580601
v  542310.4519 6589303.269302 20.067301
v  542312.164867 6589305.880493 20.067301
v  542311.483061 6589306.327713 20.126699
v  542312.164865 6589305.880493 19.832600
v  542311.002399 6589304.327301 17.765100
v  542311.748301 6589305.464493 17.765100
v  542311.748301 6589305.464493 19.438801
v  542311.002399 6589304.327301 19.438801
v  542311.8486 6589305.398697 17.765100
v  542311.102699 6589304.261505 17.765100
v  542311.8486 6589305.398697 19.438801
v  542311.102699 6589304.261505 19.438801
v  542312.097355 6589305.777786 19.832600
v  542311.415569 6589306.224991 20.126699
v  542310.053341 6589307.185349 21.092911
v  542314.407984 6589310.773209 20.377199
v  542314.959684 6589311.611618 20.541227
v  542315.567284 6589312.53511 20.377199
v  542315.973682 6589313.15271 20.377199
v  542311.740984 6589306.719711 20.377199
v  542312.906282 6589308.490707 20.377199
v  542313.239483 6589308.997116 20.377199
v  542314.959682 6589311.611618 19.696400
v  542314.407984 6589310.773209 19.665001
v  542314.407984 6589310.773209 17.385700
v  542314.407984 6589310.773209 15.822942
v  542314.959682 6589311.611618 15.822942
v  542314.959682 6589311.611618 18.643700
v  542311.415569 6589306.224991 15.822942
v  542311.740982 6589306.719711 15.822942
v  542311.740984 6589306.719711 17.385700
v  542311.740984 6589306.719711 19.646500
v  542315.567383 6589312.53511 19.696400
v  542315.567284 6589312.53511 18.643700
v  542315.567284 6589312.53511 15.822942
v  542313.239483 6589308.997116 19.665001
v  542312.906282 6589308.490707 19.646500
v  542312.906282 6589308.490707 17.385700
v  542312.906281 6589308.490707 15.822942
v  542313.239481 6589308.997116 15.822942
v  542313.239483 6589308.997116 17.385700
v  542313.385584 6589309.219116 19.809299
v  542313.531584 6589309.441116 19.904301
v  542313.677683 6589309.663116 19.959400
v  542313.823784 6589309.885117 19.979500
v  542313.969784 6589310.107117 19.959400
v  542314.115883 6589310.329208 19.904301
v  542314.261984 6589310.551208 19.809299
v  542311.886683 6589306.94101 19.773100
v  542312.032383 6589307.162415 19.876101
v  542312.177982 6589307.383804 19.937901
v  542312.323683 6589307.605209 19.958700
v  542312.469282 6589307.826614 19.937901
v  542312.614983 6589308.047913 19.876101
v  542312.760584 6589308.269318 19.773100
v  542315.391884 6589312.650604 19.696400
v  542314.784283 6589311.727005 19.696400
v  542314.784283 6589311.727005 18.643700
v  542315.391884 6589312.650604 18.643700
v  542314.240984 6589310.883118 19.665001
v  542314.240984 6589310.883118 17.385700
v  542314.094883 6589310.661118 19.809299
v  542313.948784 6589310.439117 19.904301
v  542313.802784 6589310.217117 19.959400
v  542313.656683 6589309.995117 19.979500
v  542313.510584 6589309.773117 19.959400
v  542313.364584 6589309.551117 19.904301
v  542313.218483 6589309.32901 19.809299
v  542313.072384 6589309.10701 19.665001
v  542313.072384 6589309.107117 17.385700
v  542313.656683 6589309.995117 17.385700
v  542312.593582 6589308.379211 19.773100
v  542312.739183 6589308.600616 19.646500
v  542312.447884 6589308.157913 19.876101
v  542312.302183 6589307.936508 19.937901
v  542312.156584 6589307.715103 19.958700
v  542312.010883 6589307.493713 19.937901
v  542311.865284 6589307.272415 19.876101
v  542311.719584 6589307.05101 19.773100
v  542311.573982 6589306.829605 19.646500
v  542311.573982 6589306.829605 17.385700
v  542312.739183 6589308.600616 17.385700
v  542312.156584 6589307.715103 17.385700
v  542314.084583 6589310.645508 19.767500
v  542313.941982 6589310.428711 19.860300
v  542313.799284 6589310.211716 19.914101
v  542313.681784 6589310.033218 19.930201
v  542313.681784 6589310.033218 17.431400
v  542314.215883 6589310.845016 17.431400
v  542314.215883 6589310.845016 19.637800
v  542312.714083 6589308.562515 19.617800
v  542312.583584 6589308.364105 19.731199
v  542312.440483 6589308.146606 19.832399
v  542312.298384 6589307.930618 19.892700
v  542312.181683 6589307.753204 19.909300
v  542312.181683 6589307.753204 17.431400
v  542312.714083 6589308.562515 17.431400
v  542311.598984 6589306.867706 19.617800
v  542311.598984 6589306.867706 17.431400
v  542312.131483 6589307.677017 17.431400
v  542312.131483 6589307.677017 19.909300
v  542312.014784 6589307.499603 19.892700
v  542311.872683 6589307.283615 19.832399
v  542311.729584 6589307.066116 19.731199
v  542313.097483 6589309.145218 19.637800
v  542313.097483 6589309.145218 17.431400
v  542313.631582 6589309.956909 17.431400
v  542313.631582 6589309.956909 19.930201
v  542313.514084 6589309.778412 19.914101
v  542313.371384 6589309.561417 19.860300
v  542313.228783 6589309.344711 19.767500
v  542312.0973 6589305.777802 15.822942
# 140 vertices

vn -0.543035 -0.839710 -0.000000
vn -0.543035 -0.839710 -0.000000
vn -0.543035 -0.839710 -0.000000
vn -0.543035 -0.839710 -0.000000
vn -0.543035 -0.839710 -0.000000
vn -0.543035 -0.839710 -0.000000
vn -0.491171 -0.871063 -0.000002
vn -0.491171 -0.871063 -0.000002
vn -0.491171 -0.871063 -0.000002
vn 0.004710 0.009356 -0.999945
vn 0.004710 0.009356 -0.999945
vn 0.004710 0.009356 -0.999945
vn 0.005257 0.009012 -0.999946
vn 0.005257 0.009012 -0.999946
vn 0.005257 0.009012 -0.999946
vn -0.521727 -0.852863 -0.020645
vn -0.521727 -0.852863 -0.020645
vn -0.521727 -0.852863 -0.020645
vn -0.494212 -0.869341 0.000002
vn -0.494212 -0.869341 0.000002
vn -0.494212 -0.869341 0.000002
vn -0.496750 -0.851056 -0.170127
vn -0.496750 -0.851056 -0.170127
vn -0.496750 -0.851056 -0.170127
vn -0.833731 0.552170 -0.000002
vn -0.833731 0.552170 -0.000002
vn -0.833731 0.552170 -0.000002
vn -0.833731 0.552170 -0.000009
vn -0.833731 0.552170 -0.000009
vn -0.833731 0.552170 -0.000009
vn 0.053960 -0.030824 0.998067
vn 0.046885 -0.016717 0.998760
vn 0.061424 -0.045729 0.997064
vn 0.069725 -0.062331 0.995617
vn 0.053960 -0.030824 0.998067
vn 0.061424 -0.045729 0.997064
vn -0.170698 0.111836 0.978956
vn -0.170698 0.111836 0.978956
vn -0.170698 0.111836 0.978956
vn -0.216592 0.131479 0.967368
vn -0.216592 0.131479 0.967368
vn -0.216592 0.131479 0.967368
vn 0.583642 0.812011 -0.000001
vn 0.583642 0.812011 -0.000001
vn 0.583642 0.812011 -0.000001
vn 0.580467 0.814284 0.000000
vn 0.580467 0.814284 0.000000
vn 0.580467 0.814284 0.000000
vn 0.579254 0.815145 -0.002031
vn 0.579254 0.815145 -0.002031
vn 0.579254 0.815145 -0.002031
vn 0.598381 0.781284 -0.177584
vn 0.598381 0.781284 -0.177584
vn 0.598381 0.781284 -0.177584
vn 0.434550 0.863104 -0.257328
vn 0.434550 0.863104 -0.257328
vn 0.434550 0.863104 -0.257328
vn 0.620909 0.783883 0.000007
vn 0.620909 0.783883 0.000007
vn 0.620909 0.783883 0.000007
vn 0.395756 -0.272951 0.876855
vn 0.400075 -0.276536 0.873766
vn 0.396040 -0.273187 0.876653
vn 0.400377 -0.276787 0.873549
vn 0.396040 -0.273187 0.876653
vn 0.400075 -0.276536 0.873766
vn -0.874260 0.485458 -0.000001
vn -0.874260 0.485458 -0.000001
vn -0.874260 0.485458 -0.000001
vn -0.874260 0.485458 -0.000000
vn -0.874260 0.485458 -0.000000
vn -0.874260 0.485458 -0.000000
vn -0.530229 -0.847683 -0.017013
vn -0.530229 -0.847683 -0.017013
vn -0.530229 -0.847683 -0.017013
vn -0.546468 -0.837480 -0.000000
vn -0.546468 -0.837480 -0.000000
vn -0.546468 -0.837480 -0.000000
vn -0.852641 0.522497 -0.000001
vn -0.852641 0.522497 -0.000001
vn -0.852641 0.522497 -0.000001
vn -0.842479 0.538620 0.010840
vn -0.842479 0.538620 0.010840
vn -0.842479 0.538620 0.010840
vn -0.842868 0.538120 0.000000
vn -0.842868 0.538120 0.000000
vn -0.842868 0.538120 0.000000
vn 0.775948 -0.509008 -0.372580
vn 0.775948 -0.509008 -0.372580
vn 0.775948 -0.509008 -0.372580
vn 0.775928 -0.509000 -0.372633
vn 0.775928 -0.509000 -0.372633
vn 0.775928 -0.509000 -0.372633
vn 0.323478 -0.212205 0.922134
vn 0.323478 -0.212205 0.922134
vn 0.323478 -0.212205 0.922134
vn 0.316657 -0.164621 0.934146
vn 0.316657 -0.164621 0.934146
vn 0.316657 -0.164621 0.934146
vn 0.548470 0.836170 -0.000050
vn 0.548470 0.836170 -0.000050
vn 0.548470 0.836170 -0.000050
vn 0.548473 0.836168 -0.000002
vn 0.548473 0.836168 -0.000002
vn 0.548473 0.836168 -0.000002
vn 0.836176 -0.548461 0.000000
vn 0.836176 -0.548461 0.000000
vn 0.836176 -0.548461 0.000000
vn 0.836176 -0.548461 0.000000
vn 0.836176 -0.548461 0.000000
vn 0.836176 -0.548461 0.000000
vn 0.309950 -0.203324 0.928757
vn 0.309950 -0.203324 0.928757
vn 0.309950 -0.203324 0.928757
vn 0.309966 -0.203341 0.928749
vn 0.309966 -0.203341 0.928749
vn 0.309966 -0.203341 0.928749
vn -0.548594 -0.836089 -0.000097
vn -0.548594 -0.836089 -0.000097
vn -0.548594 -0.836089 -0.000097
vn -0.548591 -0.836091 -0.000010
vn -0.548591 -0.836091 -0.000010
vn -0.548591 -0.836091 -0.000010
vn -0.330217 0.216616 -0.918713
vn -0.330217 0.216616 -0.918713
vn -0.330217 0.216616 -0.918713
vn -0.328665 0.216029 -0.919408
vn -0.328665 0.216029 -0.919408
vn -0.328665 0.216029 -0.919408
vn 0.548490 0.836157 -0.000002
vn 0.548490 0.836157 -0.000002
vn 0.548490 0.836157 -0.000002
vn 0.548498 0.836152 0.000197
vn 0.548498 0.836152 0.000197
vn 0.548498 0.836152 0.000197
vn 0.000000 0.000000 1.000000
vn 0.000000 0.000000 1.000000
vn 0.000000 0.000000 1.000000
vn 0.000000 0.000000 1.000000
vn 0.000000 0.000000 1.000000
vn 0.000000 0.000000 1.000000
vn -0.548506 -0.836147 0.000000
vn -0.548506 -0.836147 0.000000
vn -0.548506 -0.836147 0.000000
vn -0.548506 -0.836147 0.000000
vn -0.548506 -0.836147 0.000000
vn -0.548506 -0.836147 0.000000
vn 0.000000 0.000000 -1.000000
vn 0.000000 0.000000 -1.000000
vn 0.000000 0.000000 -1.000000
vn 0.000000 0.000000 -1.000000
vn 0.000000 0.000000 -1.000000
vn 0.000000 0.000000 -1.000000
vn 0.548506 0.836147 0.000000
vn 0.548506 0.836147 0.000000
vn 0.548506 0.836147 0.000000
vn 0.548506 0.836147 0.000000
vn 0.548506 0.836147 0.000000
vn 0.548506 0.836147 0.000000
vn -0.330192 0.216592 -0.918728
vn -0.330192 0.216592 -0.918728
vn -0.330192 0.216592 -0.918728
vn -0.283561 0.186309 -0.940682
vn -0.283561 0.186309 -0.940682
vn -0.283561 0.186309 -0.940682
vn -0.283534 0.186365 -0.940679
vn -0.283534 0.186365 -0.940679
vn -0.283534 0.186365 -0.940679
vn -0.185420 0.120762 0.975211
vn -0.185420 0.120762 0.975211
vn -0.185420 0.120762 0.975211
vn 0.405929 0.913905 -0.000017
vn 0.405929 0.913905 -0.000017
vn 0.405929 0.913905 -0.000017
vn 0.835400 -0.549643 0.000027
vn 0.835365 -0.549695 0.000005
vn 0.835383 -0.549668 -0.000013
vn 0.835363 -0.549698 0.000084
vn 0.835400 -0.549643 0.000027
vn 0.835383 -0.549668 -0.000013
vn 0.835402 -0.549639 -0.000059
vn 0.835363 -0.549698 0.000084
vn 0.835383 -0.549668 -0.000013
vn 0.835383 -0.549668 -0.000013
vn 0.835396 -0.549649 0.000003
vn 0.835445 -0.549573 -0.000222
vn 0.835383 -0.549668 -0.000013
vn 0.835445 -0.549573 -0.000222
vn 0.835429 -0.549599 -0.000661
vn 0.835383 -0.549668 -0.000013
vn 0.835429 -0.549599 -0.000661
vn 0.835386 -0.549664 0.000069
vn 0.835383 -0.549668 -0.000013
vn 0.835386 -0.549664 0.000069
vn 0.835395 -0.549650 0.000025
vn 0.835402 -0.549639 -0.000059
vn 0.835383 -0.549668 -0.000013
vn 0.835395 -0.549650 0.000025
vn 0.835363 -0.549699 -0.000001
vn 0.835363 -0.549698 0.000084
vn 0.835402 -0.549639 -0.000059
vn 0.835382 -0.549670 0.000000
vn 0.835389 -0.549659 -0.000000
vn 0.835383 -0.549668 -0.000000
vn 0.835402 -0.549639 0.000000
vn 0.835382 -0.549670 0.000000
vn 0.835383 -0.549668 -0.000000
vn 0.835402 -0.549639 -0.000059
vn 0.835402 -0.549639 0.000000
vn 0.835383 -0.549668 -0.000000
vn 0.835402 -0.549639 -0.000059
vn 0.835383 -0.549668 -0.000000
vn 0.835377 -0.549678 -0.000000
vn 0.835363 -0.549699 -0.000001
vn 0.835402 -0.549639 -0.000059
vn 0.835377 -0.549678 -0.000000
vn 0.835425 -0.549604 -0.000115
vn 0.835469 -0.549538 0.000015
vn 0.835422 -0.549610 0.000006
vn 0.835425 -0.549604 -0.000115
vn 0.835422 -0.549610 0.000006
vn 0.835382 -0.549669 -0.000002
vn 0.835425 -0.549604 -0.000115
vn 0.835382 -0.549669 -0.000002
vn 0.835347 -0.549724 0.000000
vn 0.835425 -0.549604 -0.000115
vn 0.835347 -0.549724 0.000000
vn 0.835429 -0.549599 -0.000661
vn 0.835425 -0.549604 -0.000115
vn 0.835429 -0.549599 -0.000661
vn 0.835445 -0.549573 -0.000222
vn 0.835368 -0.549691 -0.000002
vn 0.835365 -0.549695 0.000005
vn 0.835400 -0.549643 0.000027
vn 0.835368 -0.549691 -0.000002
vn 0.835400 -0.549643 0.000027
vn 0.835627 -0.549297 0.000097
vn 0.835368 -0.549691 -0.000002
vn 0.835627 -0.549297 0.000097
vn 0.835278 -0.549828 -0.000048
vn 0.835368 -0.549691 -0.000002
vn 0.835278 -0.549828 -0.000048
vn 0.835384 -0.549667 -0.000000
vn 0.835375 -0.549680 0.000000
vn 0.835395 -0.549650 0.000025
vn 0.835386 -0.549664 0.000069
vn 0.835387 -0.549662 -0.000000
vn 0.835385 -0.549665 -0.000001
vn 0.835401 -0.549641 -0.000001
vn 0.835376 -0.549678 0.000000
vn 0.835387 -0.549662 -0.000000
vn 0.835401 -0.549641 -0.000001
vn 0.835386 -0.549664 0.000069
vn 0.835376 -0.549678 0.000000
vn 0.835401 -0.549641 -0.000001
vn 0.835386 -0.549664 0.000069
vn 0.835401 -0.549641 -0.000001
vn 0.835395 -0.549650 -0.000001
vn 0.835375 -0.549680 0.000000
vn 0.835386 -0.549664 0.000069
vn 0.835395 -0.549650 -0.000001
vn 0.835387 -0.549662 -0.000000
vn 0.835382 -0.549669 -0.000002
vn 0.835422 -0.549610 0.000006
vn 0.835422 -0.549610 0.000006
vn 0.835385 -0.549665 -0.000001
vn 0.835387 -0.549662 -0.000000
vn 0.835395 -0.549650 0.000025
vn 0.835375 -0.549680 0.000000
vn 0.835409 -0.549628 0.000064
vn 0.835395 -0.549650 0.000025
vn 0.835409 -0.549628 0.000064
vn 0.835430 -0.549597 0.000069
vn 0.835433 -0.549593 0.000064
vn 0.835402 -0.549639 0.000000
vn 0.835402 -0.549639 -0.000059
vn 0.835412 -0.549625 0.000019
vn 0.835433 -0.549593 0.000064
vn 0.835402 -0.549639 -0.000059
vn 0.835485 -0.549513 -0.000200
vn 0.835412 -0.549625 0.000019
vn 0.835402 -0.549639 -0.000059
vn 0.835330 -0.549748 0.000572
vn 0.835485 -0.549513 -0.000200
vn 0.835402 -0.549639 -0.000059
vn 0.835175 -0.549982 0.001440
vn 0.835330 -0.549748 0.000572
vn 0.835402 -0.549639 -0.000059
vn 0.835430 -0.549597 0.000069
vn 0.835175 -0.549982 0.001440
vn 0.835402 -0.549639 -0.000059
vn 0.835395 -0.549650 0.000025
vn 0.835430 -0.549597 0.000069
vn 0.835402 -0.549639 -0.000059
vn 0.835278 -0.549828 -0.000048
vn 0.835377 -0.549678 -0.000000
vn 0.835383 -0.549668 -0.000000
vn 0.835383 -0.549668 -0.000000
vn 0.835384 -0.549667 -0.000000
vn 0.835278 -0.549828 -0.000048
vn 0.835429 -0.549599 -0.000661
vn 0.835347 -0.549724 0.000000
vn 0.835281 -0.549823 0.000041
vn 0.835429 -0.549599 -0.000661
vn 0.835281 -0.549823 0.000041
vn 0.835373 -0.549683 0.000088
vn 0.835415 -0.549620 -0.000064
vn 0.835376 -0.549678 0.000000
vn 0.835386 -0.549664 0.000069
vn 0.835345 -0.549726 0.000160
vn 0.835415 -0.549620 -0.000064
vn 0.835386 -0.549664 0.000069
vn 0.835451 -0.549565 -0.000296
vn 0.835345 -0.549726 0.000160
vn 0.835386 -0.549664 0.000069
vn 0.835359 -0.549705 0.000197
vn 0.835451 -0.549565 -0.000296
vn 0.835386 -0.549664 0.000069
vn 0.835746 -0.549112 -0.001959
vn 0.835359 -0.549705 0.000197
vn 0.835386 -0.549664 0.000069
vn 0.835373 -0.549683 0.000088
vn 0.835746 -0.549112 -0.001959
vn 0.835386 -0.549664 0.000069
vn 0.835429 -0.549599 -0.000661
vn 0.835373 -0.549683 0.000088
vn 0.835386 -0.549664 0.000069
vn 0.835363 -0.549698 0.000084
vn 0.835363 -0.549699 -0.000001
vn 0.835627 -0.549297 0.000097
vn 0.835627 -0.549297 0.000097
vn 0.835400 -0.549643 0.000027
vn 0.835363 -0.549698 0.000084
vn 0.835429 -0.549598 0.000000
vn 0.835429 -0.549598 0.000000
vn 0.835429 -0.549598 0.000000
vn 0.835429 -0.549598 0.000000
vn 0.835429 -0.549598 0.000000
vn 0.835429 -0.549598 0.000000
vn 0.835389 -0.549659 -0.000000
vn 0.835382 -0.549670 0.000000
vn 0.835395 -0.549650 -0.000001
vn 0.835395 -0.549650 -0.000001
vn 0.835401 -0.549641 -0.000001
vn 0.835389 -0.549659 -0.000000
vn -0.549759 -0.835324 0.000000
vn -0.549759 -0.835324 0.000000
vn -0.549759 -0.835324 0.000000
vn -0.549759 -0.835324 0.000000
vn -0.549759 -0.835324 0.000000
vn -0.549759 -0.835324 0.000000
vn -0.262213 -0.398658 -0.878815
vn -0.262213 -0.398658 -0.878815
vn -0.262213 -0.398658 -0.878815
vn -0.262367 -0.398649 -0.878773
vn -0.262367 -0.398649 -0.878773
vn -0.262367 -0.398649 -0.878773
vn -0.184977 -0.281227 -0.941645
vn -0.184977 -0.281227 -0.941645
vn -0.184977 -0.281227 -0.941645
vn -0.184975 -0.281227 -0.941645
vn -0.184975 -0.281227 -0.941645
vn -0.184975 -0.281227 -0.941645
vn -0.111693 -0.169570 -0.979168
vn -0.111693 -0.169570 -0.979168
vn -0.111693 -0.169570 -0.979168
vn -0.111529 -0.169563 -0.979188
vn -0.111529 -0.169563 -0.979188
vn -0.111529 -0.169563 -0.979188
vn -0.041467 -0.062991 -0.997152
vn -0.041467 -0.062991 -0.997152
vn -0.041467 -0.062991 -0.997152
vn -0.041493 -0.062993 -0.997151
vn -0.041493 -0.062993 -0.997151
vn -0.041493 -0.062993 -0.997151
vn 0.041467 0.062991 -0.997152
vn 0.041467 0.062991 -0.997152
vn 0.041467 0.062991 -0.997152
vn 0.041467 0.062991 -0.997152
vn 0.041467 0.062991 -0.997152
vn 0.041467 0.062991 -0.997152
vn 0.111693 0.169570 -0.979168
vn 0.111693 0.169570 -0.979168
vn 0.111693 0.169570 -0.979168
vn 0.111625 0.169567 -0.979177
vn 0.111625 0.169567 -0.979177
vn 0.111625 0.169567 -0.979177
vn 0.184902 0.281155 -0.941681
vn 0.184902 0.281155 -0.941681
vn 0.184902 0.281155 -0.941681
vn 0.185195 0.281157 -0.941623
vn 0.185195 0.281157 -0.941623
vn 0.185195 0.281157 -0.941623
vn 0.262191 0.398674 -0.878814
vn 0.262191 0.398674 -0.878814
vn 0.262191 0.398674 -0.878814
vn 0.262188 0.398675 -0.878815
vn 0.262188 0.398675 -0.878815
vn 0.262188 0.398675 -0.878815
vn 0.549850 0.835263 0.000039
vn 0.549850 0.835263 0.000039
vn 0.549850 0.835263 0.000039
vn 0.549478 0.835508 0.000000
vn 0.549478 0.835508 0.000000
vn 0.549478 0.835508 0.000000
vn 0.000000 0.000000 1.000000
vn 0.000000 0.000000 1.000000
vn 0.000000 0.000000 1.000000
vn 0.000000 0.000000 1.000000
vn 0.000000 0.000000 1.000000
vn 0.000000 0.000000 1.000000
vn 0.000000 0.000000 1.000000
vn 0.000000 0.000000 1.000000
vn 0.000000 0.000000 1.000000
vn -0.236967 -0.360110 -0.902312
vn -0.236967 -0.360110 -0.902312
vn -0.236967 -0.360110 -0.902312
vn -0.236864 -0.360114 -0.902338
vn -0.236864 -0.360114 -0.902338
vn -0.236864 -0.360114 -0.902338
vn -0.199229 -0.302643 -0.932049
vn -0.199229 -0.302643 -0.932049
vn -0.199229 -0.302643 -0.932049
vn -0.199151 -0.302643 -0.932065
vn -0.199151 -0.302643 -0.932065
vn -0.199151 -0.302643 -0.932065
vn -0.124774 -0.189725 -0.973877
vn -0.124774 -0.189725 -0.973877
vn -0.124774 -0.189725 -0.973877
vn -0.124898 -0.189730 -0.973860
vn -0.124898 -0.189730 -0.973860
vn -0.124898 -0.189730 -0.973860
vn -0.042998 -0.065380 -0.996934
vn -0.042998 -0.065380 -0.996934
vn -0.042998 -0.065380 -0.996934
vn -0.042998 -0.065380 -0.996934
vn -0.042998 -0.065380 -0.996934
vn -0.042998 -0.065380 -0.996934
vn 0.042995 0.065367 -0.996935
vn 0.042995 0.065367 -0.996935
vn 0.042995 0.065367 -0.996935
vn 0.042989 0.065366 -0.996935
vn 0.042989 0.065366 -0.996935
vn 0.042989 0.065366 -0.996935
vn 0.124923 0.189767 -0.973849
vn 0.124923 0.189767 -0.973849
vn 0.124923 0.189767 -0.973849
vn 0.124816 0.189763 -0.973864
vn 0.124816 0.189763 -0.973864
vn 0.124816 0.189763 -0.973864
vn 0.199170 0.302553 -0.932091
vn 0.199170 0.302553 -0.932091
vn 0.199170 0.302553 -0.932091
vn 0.199170 0.302553 -0.932091
vn 0.199170 0.302553 -0.932091
vn 0.199170 0.302553 -0.932091
vn 0.236967 0.360110 -0.902312
vn 0.236967 0.360110 -0.902312
vn 0.236967 0.360110 -0.902312
vn 0.237057 0.360108 -0.902289
vn 0.237057 0.360108 -0.902289
vn 0.237057 0.360108 -0.902289
vn 0.549701 0.835361 0.000000
vn 0.549701 0.835361 0.000000
vn 0.549701 0.835361 0.000000
vn 0.549701 0.835361 0.000000
vn 0.549701 0.835361 0.000000
vn 0.549701 0.835361 0.000000
vn 0.000000 0.000000 1.000000
vn 0.000000 0.000000 1.000000
vn 0.000000 0.000000 1.000000
vn 0.000000 0.000000 1.000000
vn 0.000000 0.000000 1.000000
vn 0.000000 0.000000 1.000000
vn 0.000000 0.000000 1.000000
vn 0.000000 0.000000 1.000000
vn 0.000000 0.000000 1.000000
vn -0.549531 -0.835473 0.000000
vn -0.549531 -0.835473 0.000000
vn -0.549531 -0.835473 0.000000
vn -0.549531 -0.835473 0.000000
vn -0.549531 -0.835473 0.000000
vn -0.549531 -0.835473 0.000000
vn 0.000000 0.000000 -1.000000
vn 0.000000 0.000000 -1.000000
vn 0.000000 0.000000 -1.000000
vn 0.000000 0.000000 -1.000000
vn 0.000000 0.000000 -1.000000
vn 0.000000 0.000000 -1.000000
vn 0.549591 0.835434 0.000000
vn 0.549591 0.835434 0.000000
vn 0.549591 0.835434 0.000000
vn 0.549591 0.835434 0.000000
vn 0.549591 0.835434 0.000000
vn 0.549591 0.835434 0.000000
vn 0.000000 0.000000 1.000000
vn 0.000000 0.000000 1.000000
vn 0.000000 0.000000 1.000000
vn 0.000000 0.000000 1.000000
vn 0.000000 0.000000 1.000000
vn 0.000000 0.000000 1.000000
vn -0.549729 -0.835343 0.000000
vn -0.549729 -0.835343 0.000000
vn -0.549729 -0.835343 0.000000
vn -0.549946 -0.835200 0.000052
vn -0.549946 -0.835200 0.000052
vn -0.549946 -0.835200 0.000052
vn 0.835120 -0.550056 -0.003519
vn 0.835120 -0.550056 -0.003519
vn 0.835120 -0.550056 -0.003519
vn 0.835407 -0.549632 0.000000
vn 0.835407 -0.549632 0.000000
vn 0.835407 -0.549632 0.000000
vn 0.835407 -0.549632 0.000000
vn 0.835407 -0.549632 0.000000
vn 0.835407 -0.549632 0.000000
vn 0.835415 -0.549619 0.000052
vn 0.835415 -0.549619 0.000052
vn 0.835415 -0.549619 0.000052
vn 0.835728 -0.549142 0.001330
vn 0.835728 -0.549142 0.001330
vn 0.835728 -0.549142 0.001330
vn 0.835434 -0.549591 0.000155
vn 0.835434 -0.549591 0.000155
vn 0.835434 -0.549591 0.000155
vn 0.835457 -0.549555 0.000000
vn 0.835457 -0.549555 0.000000
vn 0.835457 -0.549555 0.000000
vn 0.835408 -0.549630 0.000008
vn 0.835408 -0.549630 0.000008
vn 0.835408 -0.549630 0.000008
vn 0.835437 -0.549587 -0.000009
vn 0.835437 -0.549587 -0.000009
vn 0.835437 -0.549587 -0.000009
vn 0.835483 -0.549516 0.000000
vn 0.835483 -0.549516 0.000000
vn 0.835483 -0.549516 0.000000
vn 0.835390 -0.549658 0.000000
vn 0.835390 -0.549658 0.000000
vn 0.835390 -0.549658 0.000000
vn 0.835487 -0.549510 -0.000599
vn 0.835487 -0.549510 -0.000599
vn 0.835487 -0.549510 -0.000599
vn 0.835455 -0.549559 -0.000238
vn 0.835455 -0.549559 -0.000238
vn 0.835455 -0.549559 -0.000238
vn 0.835426 -0.549603 -0.000026
vn 0.835426 -0.549603 -0.000026
vn 0.835426 -0.549603 -0.000026
vn 0.835287 -0.549814 0.000000
vn 0.835287 -0.549814 0.000000
vn 0.835287 -0.549814 0.000000
vn 0.835374 -0.549683 0.000000
vn 0.835374 -0.549683 0.000000
vn 0.835374 -0.549683 0.000000
vn 0.835129 -0.550044 0.003416
vn 0.835129 -0.550044 0.003416
vn 0.835129 -0.550044 0.003416
vn 0.835446 -0.549572 -0.000435
vn 0.835446 -0.549572 -0.000435
vn 0.835446 -0.549572 -0.000435
vn 0.835395 -0.549650 -0.000015
vn 0.835395 -0.549650 -0.000015
vn 0.835395 -0.549650 -0.000015
vn 0.835313 -0.549775 0.000000
vn 0.835313 -0.549775 0.000000
vn 0.835313 -0.549775 0.000000
vn 0.835407 -0.549632 0.000605
vn 0.835407 -0.549632 0.000605
vn 0.835407 -0.549632 0.000605
vn 0.835378 -0.549676 -0.000553
vn 0.835378 -0.549676 -0.000553
vn 0.835378 -0.549676 -0.000553
vn 0.835073 -0.550139 0.000000
vn 0.835073 -0.550139 0.000000
vn 0.835073 -0.550139 0.000000
vn 0.835073 -0.550138 0.000000
vn 0.835073 -0.550138 0.000000
vn 0.835073 -0.550138 0.000000
vn 0.835204 -0.549940 -0.000429
vn 0.835204 -0.549940 -0.000429
vn 0.835204 -0.549940 -0.000429
vn 0.835210 -0.549932 -0.000415
vn 0.835210 -0.549932 -0.000415
vn 0.835210 -0.549932 -0.000415
vn 0.835614 -0.549316 0.000749
vn 0.835614 -0.549316 0.000749
vn 0.835614 -0.549316 0.000749
vn 0.835246 -0.549876 -0.000463
vn 0.835246 -0.549876 -0.000463
vn 0.835246 -0.549876 -0.000463
vn 0.835632 -0.549289 0.000935
vn 0.835632 -0.549289 0.000935
vn 0.835632 -0.549289 0.000935
vn 0.835594 -0.549346 0.000759
vn 0.835594 -0.549346 0.000759
vn 0.835594 -0.549346 0.000759
vn 0.835353 -0.549713 0.000471
vn 0.835353 -0.549713 0.000471
vn 0.835353 -0.549713 0.000471
vn 0.835313 -0.549774 0.001017
vn 0.835313 -0.549774 0.001017
vn 0.835313 -0.549774 0.001017
vn 0.835073 -0.550138 0.000000
vn 0.835073 -0.550138 0.000000
vn 0.835073 -0.550138 0.000000
vn 0.835073 -0.550138 0.000000
vn 0.835073 -0.550138 0.000000
vn 0.835073 -0.550138 0.000000
vn 0.835093 -0.550109 0.000000
vn 0.835093 -0.550109 0.000000
vn 0.835093 -0.550109 0.000000
vn 0.835093 -0.550109 0.000000
vn 0.835093 -0.550109 0.000000
vn 0.835093 -0.550109 0.000000
vn 0.835436 -0.549587 0.000659
vn 0.835436 -0.549587 0.000659
vn 0.835436 -0.549587 0.000659
vn 0.835406 -0.549633 -0.000569
vn 0.835406 -0.549633 -0.000569
vn 0.835406 -0.549633 -0.000569
vn 0.835073 -0.550138 0.000000
vn 0.835073 -0.550138 0.000000
vn 0.835073 -0.550138 0.000000
vn 0.835073 -0.550138 0.000000
vn 0.835073 -0.550138 0.000000
vn 0.835073 -0.550138 0.000000
vn 0.835211 -0.549929 -0.001035
vn 0.835211 -0.549929 -0.001035
vn 0.835211 -0.549929 -0.001035
vn 0.835328 -0.549752 -0.000735
vn 0.835328 -0.549752 -0.000735
vn 0.835328 -0.549752 -0.000735
vn 0.835389 -0.549658 0.000745
vn 0.835389 -0.549658 0.000745
vn 0.835389 -0.549658 0.000745
vn 0.835183 -0.549971 -0.001013
vn 0.835183 -0.549971 -0.001013
vn 0.835183 -0.549971 -0.001013
vn 0.835586 -0.549359 0.001347
vn 0.835586 -0.549359 0.001347
vn 0.835586 -0.549359 0.001347
vn 0.835441 -0.549580 0.000716
vn 0.835441 -0.549580 0.000716
vn 0.835441 -0.549580 0.000716
vn 0.835558 -0.549402 0.000782
vn 0.835558 -0.549402 0.000782
vn 0.835558 -0.549402 0.000782
vn 0.835515 -0.549466 0.001367
vn 0.835515 -0.549466 0.001367
vn 0.835515 -0.549466 0.001367
vn 0.835342 -0.549731 0.000535
vn 0.835342 -0.549731 0.000535
vn 0.835342 -0.549731 0.000535
vn 0.835344 -0.549727 0.000452
vn 0.835344 -0.549727 0.000452
vn 0.835344 -0.549727 0.000452
vn 0.835179 -0.549977 0.001048
vn 0.835179 -0.549977 0.001048
vn 0.835179 -0.549977 0.001048
vn 0.835246 -0.549876 0.000482
vn 0.835246 -0.549876 0.000482
vn 0.835246 -0.549876 0.000482
vn 0.835758 -0.549097 -0.000906
vn 0.835758 -0.549097 -0.000906
vn 0.835758 -0.549097 -0.000906
vn 0.835041 -0.550188 0.000939
vn 0.835041 -0.550188 0.000939
vn 0.835041 -0.550188 0.000939
vn 0.836072 -0.548620 0.000000
vn 0.836072 -0.548620 0.000000
vn 0.836072 -0.548620 0.000000
vn 0.836072 -0.548620 0.000000
vn 0.836072 -0.548620 0.000000
vn 0.836072 -0.548620 0.000000
vn 0.835389 -0.549658 0.000758
vn 0.835389 -0.549658 0.000758
vn 0.835389 -0.549658 0.000758
vn 0.835400 -0.549641 0.001218
vn 0.835400 -0.549641 0.001218
vn 0.835400 -0.549641 0.001218
vn 0.834972 -0.550292 0.000000
vn 0.834972 -0.550292 0.000000
vn 0.834972 -0.550292 0.000000
vn 0.834972 -0.550292 0.000000
vn 0.834972 -0.550292 0.000000
vn 0.834972 -0.550292 0.000000
vn 0.835441 -0.549580 0.000480
vn 0.835441 -0.549580 0.000480
vn 0.835441 -0.549580 0.000480
vn 0.835360 -0.549704 -0.000651
vn 0.835360 -0.549704 -0.000651
vn 0.835360 -0.549704 -0.000651
vn 0.835469 -0.549538 0.000474
vn 0.835469 -0.549538 0.000474
vn 0.835469 -0.549538 0.000474
vn 0.835472 -0.549533 0.000319
vn 0.835472 -0.549533 0.000319
vn 0.835472 -0.549533 0.000319
vn 0.835470 -0.549535 -0.000558
vn 0.835470 -0.549535 -0.000558
vn 0.835470 -0.549535 -0.000558
vn 0.835372 -0.549686 0.000425
vn 0.835372 -0.549686 0.000425
vn 0.835372 -0.549686 0.000425
vn 0.835557 -0.549403 -0.000739
vn 0.835557 -0.549403 -0.000739
vn 0.835557 -0.549403 -0.000739
vn 0.835477 -0.549524 -0.000552
vn 0.835477 -0.549524 -0.000552
vn 0.835477 -0.549524 -0.000552
vn 0.835107 -0.550088 -0.000026
vn 0.835107 -0.550088 -0.000026
vn 0.835107 -0.550088 -0.000026
vn 0.835799 -0.549035 0.000000
vn 0.835799 -0.549035 0.000000
vn 0.835799 -0.549035 0.000000
vn 0.835373 -0.549683 -0.000740
vn 0.835373 -0.549683 -0.000740
vn 0.835373 -0.549683 -0.000740
vn 0.835379 -0.549674 -0.000520
vn 0.835379 -0.549674 -0.000520
vn 0.835379 -0.549674 -0.000520
vn 0.835780 -0.549065 0.000000
vn 0.835780 -0.549065 0.000000
vn 0.835780 -0.549065 0.000000
vn 0.835780 -0.549065 0.000000
vn 0.835780 -0.549065 0.000000
vn 0.835780 -0.549065 0.000000
vn 0.835264 -0.549849 0.000267
vn 0.835264 -0.549849 0.000267
vn 0.835264 -0.549849 0.000267
vn 0.835303 -0.549789 0.000804
vn 0.835303 -0.549789 0.000804
vn 0.835303 -0.549789 0.000804
vn 0.835748 -0.549113 0.000001
vn 0.835748 -0.549113 0.000001
vn 0.835748 -0.549113 0.000001
vn 0.548482 0.836163 -0.000003
vn 0.548482 0.836163 -0.000003
vn 0.548482 0.836163 -0.000003
vn 0.836176 -0.548461 0.000017
vn 0.836176 -0.548461 0.000017
vn 0.836176 -0.548461 0.000017
vn 0.836170 -0.548470 0.000006
vn 0.836170 -0.548470 0.000006
vn 0.836170 -0.548470 0.000006
vn 0.836069 -0.548625 0.000000
vn 0.836069 -0.548625 0.000000
vn 0.836069 -0.548625 0.000000
vn 0.836104 -0.548571 -0.000014
vn 0.836104 -0.548571 -0.000014
vn 0.836104 -0.548571 -0.000014
vn 0.836160 -0.548485 -0.000090
vn 0.836160 -0.548485 -0.000090
vn 0.836160 -0.548485 -0.000090
vn 0.836176 -0.548461 -0.000226
vn 0.836176 -0.548461 -0.000226
vn 0.836176 -0.548461 -0.000226
vn 0.836176 -0.548462 -0.000001
vn 0.836176 -0.548462 -0.000001
vn 0.836176 -0.548462 -0.000001
vn 0.836176 -0.548461 0.000000
vn 0.836176 -0.548461 0.000000
vn 0.836176 -0.548461 0.000000
vn 0.548473 0.836168 -0.000001
vn 0.548473 0.836168 -0.000001
vn 0.548473 0.836168 -0.000001
vn -0.543054 -0.839698 -0.000053
vn -0.543054 -0.839698 -0.000053
vn -0.543054 -0.839698 -0.000053
vn -0.543036 -0.839710 -0.000010
vn -0.543036 -0.839710 -0.000010
vn -0.543036 -0.839710 -0.000010
vn -0.842867 0.538122 -0.000024
vn -0.842867 0.538122 -0.000024
vn -0.842867 0.538122 -0.000024
vn 0.325468 -0.207792 0.922438
vn 0.325468 -0.207792 0.922438
vn 0.325468 -0.207792 0.922438
vn 0.331515 -0.214095 0.918837
vn 0.331515 -0.214095 0.918837
vn 0.331515 -0.214095 0.918837
# 783 vertex normals

vt -21.927401 67.376701 0.000000
vt 4.744580 65.934998 0.000000
vt 4.744580 65.934998 0.000000
vt -21.927401 67.376701 0.000000
vt 4.470673 0.603828 2.910507
vt -3.470672 0.743389 -1.889515
vt -3.470672 0.396173 -1.910519
vt 4.470673 0.256611 2.889503
vt -23.918301 44.679901 0.000000
vt -24.697599 67.585503 0.000000
vt -40.122200 68.748199 0.000000
vt -72.544701 21.155300 0.000000
vt -95.508499 3.420720 0.000000
vt -27.759501 2.814520 0.000000
vt -24.419613 59.414799 0.000000
vt 0.500000 0.500000 0.000000
vt 0.500000 0.500000 0.000000
vt 0.500000 0.500000 0.000000
vt -23.918301 44.679901 0.000000
vt 4.885390 44.679901 0.000000
vt 4.790440 59.011600 0.000000
vt 4.885390 44.679901 0.000000
vt 128.798004 20.733700 0.000000
vt 118.754997 20.733700 0.000000
vt -23.918301 44.679901 0.000000
vt 4.885390 44.679901 0.000000
vt 4.885390 44.679901 0.000000
vt 4.790440 59.011600 0.000000
vt 128.798004 20.733700 0.000000
vt 118.754997 20.733700 0.000000
vt 0.500000 0.500000 0.000000
vt 0.750000 1.000000 0.500000
vt 0.250000 0.500000 0.000000
vt 0.000500 0.000500 0.999500
vt 0.999500 0.000500 0.000500
vt 0.999500 0.999500 0.000500
vt 0.000500 0.999500 0.999500
vt 0.269675 0.519675 0.019675
vt 0.269675 0.519675 0.019675
vt 0.250000 0.500000 0.000000
vt 0.999500 0.639700 -0.997000
vt 0.000500 0.639700 1.997100
vt 0.000500 0.000300 1.997100
vt 0.999500 0.000300 -0.997000
vt 1.471400 0.737500 0.246000
vt 1.350400 0.836900 0.512800
vt 1.200800 0.925400 0.779800
vt 1.057200 0.990200 0.999500
vt -0.763600 0.283800 0.999500
vt -0.057200 0.009800 0.000500
vt 1.550500 0.633500 0.000500
vt 1.545600 0.632300 0.000500
vt 1.455400 0.732200 0.245400
vt 1.339400 0.835100 0.513900
vt 1.195000 0.925800 0.780500
vt 1.052300 0.991000 0.999500
vt -0.758700 0.284600 0.999500
vt -0.052300 0.009000 0.000500
vt -0.545600 0.632300 0.999500
vt 1.052300 0.009000 0.999500
vt 1.758700 0.284600 0.000500
vt -0.052300 0.991000 0.000500
vt -0.195000 0.925800 0.219500
vt -0.339400 0.835100 0.486100
vt -0.455400 0.732200 0.754600
vt -0.550500 0.633500 0.999500
vt 1.057200 0.009800 0.999500
vt 1.763600 0.283800 0.000500
vt -0.057200 0.990200 0.000500
vt -0.200800 0.925400 0.220200
vt -0.350400 0.836900 0.487300
vt -0.471400 0.737500 0.754000
vt -0.796900 -0.859900 0.407600
vt -0.796900 -1.920500 0.335500
vt -0.751200 -1.875000 0.338600
vt -0.751200 -0.905500 0.404500
vt 1.482400 -1.920500 0.335500
vt 1.455200 -1.875000 0.338600
vt 1.626700 -1.655400 0.353500
vt 1.584900 -1.636700 0.354800
vt 1.721700 -1.390200 0.371500
vt 1.677700 -1.377900 0.372400
vt 1.776800 -1.125100 0.389600
vt 1.731500 -1.118700 0.390000
vt 1.796900 -0.860000 0.407600
vt 1.747600 -0.905500 0.404500
vt 1.776100 1.863000 0.592600
vt -0.796900 1.862900 0.592600
vt -0.751200 1.817400 0.589500
vt 1.726700 1.817400 0.589500
vt -0.796900 0.805400 0.520800
vt -0.751200 0.850900 0.523800
vt 1.463900 0.805400 0.520800
vt 1.435200 0.850900 0.523800
vt 1.590500 1.069800 0.538700
vt 1.548600 1.087900 0.540000
vt 1.693500 1.334200 0.556700
vt 1.649800 1.347700 0.557600
vt 1.755300 1.598600 0.574700
vt 1.710100 1.605600 0.575100
vt 1.755300 2.127300 0.610600
vt 1.693500 2.391700 0.628600
vt 1.649800 2.378300 0.627600
vt 1.710100 2.120300 0.610100
vt 1.590500 2.656100 0.646500
vt 1.548600 2.638000 0.645300
vt 1.463900 2.920500 0.664500
vt 1.435200 2.875000 0.661400
vt -0.796900 2.920500 0.664500
vt -0.751200 2.875000 0.661400
vt -0.751200 1.908500 0.595700
vt 1.726700 1.908500 0.595700
vt 1.776800 -0.594800 0.425600
vt 1.721700 -0.329700 0.443600
vt 1.677700 -0.342000 0.442800
vt 1.731500 -0.601200 0.425200
vt 1.626700 -0.064500 0.461600
vt 1.584900 -0.083200 0.460400
vt 1.482400 0.200600 0.479700
vt 1.455200 0.155100 0.476600
vt -0.796900 0.200600 0.479700
vt -0.751200 0.155100 0.476600
vt -0.751200 -0.814400 0.410700
vt 1.747600 -0.814400 0.410700
vt 0.500000 1.000000 0.000000
vt 0.750000 1.000000 0.500000
vt 0.600283 1.365394 0.804228
vt 0.539332 1.362432 0.782647
vt 0.539371 -0.542260 0.819072
vt 0.600323 -0.539290 0.840656
vt 0.540738 0.222072 0.997328
vt 0.480227 0.279761 0.997920
vt 0.463251 -0.194640 0.994161
vt 0.519938 -0.248730 0.993609
vt 0.452325 -0.589592 0.991023
vt 0.514779 -0.596560 0.990850
vt 4.351471 -1.662752 0.184369
vt 4.870827 3.827637 0.755711
vt -3.948332 3.687654 0.908368
vt -3.977937 -0.786459 0.000500
vt -3.971733 -1.471735 0.309764
vt -4.005115 -2.595047 0.815635
vt 4.232092 -3.101170 0.999500
vt -2.969390 -2.384778 -0.101232
vt -0.265702 2.914984 -0.347913
vt -0.265706 -2.466751 -0.347908
vt -2.969392 1.624880 -0.101235
vt -0.318645 3.119383 0.249647
vt -0.780176 2.182787 0.298065
vt -0.780175 3.072441 0.298064
vt 0.658102 2.885197 0.156069
vt -0.318644 3.466719 0.249647
vt -0.922861 3.072441 0.312540
vt -1.770630 1.231092 0.277051
vt -1.664794 1.231091 0.267545
vt -1.664795 -0.442609 0.267546
vt -1.770631 -0.442609 0.277053
vt -2.410824 -0.442614 0.075031
vt -2.304988 -0.442615 0.065525
vt -2.304988 1.231086 0.065523
vt -2.410824 1.231086 0.075029
vt 1.240147 3.149697 0.095162
vt 1.240144 2.742027 0.095161
vt 2.708312 2.169522 1.402673
vt 3.055368 2.169525 1.512583
vt 3.055387 3.157593 1.512584
vt 2.189316 2.333545 1.238339
vt 1.718179 2.169513 1.089134
vt -0.780182 2.169490 0.298064
vt -0.559819 2.169493 0.367812
vt 0.435417 2.169501 0.682973
vt 0.720005 2.169504 0.773090
vt 2.189318 1.488718 1.238340
vt 1.718179 -0.821986 1.089137
vt 1.718178 -2.384744 1.089138
vt 2.189320 -2.384740 1.238343
vt 1.718179 1.457315 1.089135
vt 2.189318 0.436018 1.238341
vt -0.780111 1.918991 0.298055
vt -0.837893 -2.384767 0.279793
vt -0.559818 -2.384765 0.367816
vt -0.559820 -0.822006 0.367815
vt -0.559819 1.438793 0.367813
vt 3.055376 -2.384732 1.512588
vt 2.708264 1.488722 1.402689
vt 2.708311 0.436023 1.402675
vt 2.708313 -2.384736 1.402678
vt 0.720005 1.457306 0.773090
vt 0.435417 -0.821997 0.682975
vt 0.435417 -2.384756 0.682976
vt 0.720007 -2.384753 0.773093
vt 0.435417 1.438802 0.682973
vt 0.720005 -0.821995 0.773092
vt 0.844749 1.601605 0.812600
vt 0.969541 1.696608 0.852095
vt 1.593387 1.601612 1.049639
vt 1.468644 1.696612 1.010128
vt 1.343819 1.751711 0.970611
vt 1.219028 1.771809 0.931115
vt 1.094285 1.751709 0.891605
vt -0.435499 1.565394 0.407207
vt -0.311086 1.668396 0.446610
vt 0.311016 1.565401 0.643572
vt 0.186556 1.668401 0.604182
vt 0.062237 1.730199 0.564788
vt -0.062225 1.750998 0.525400
vt -0.186639 1.730197 0.485997
vt 1.894711 1.457314 1.073336
vt 1.894711 -0.821986 1.073338
vt 0.896666 -0.821995 0.757286
vt 0.896573 1.457305 0.757275
vt -0.383299 -0.822007 0.352014
vt -0.383299 1.438793 0.352012
vt 0.611998 1.438801 0.667159
vt 0.611997 -0.821998 0.667161
vt 2.374686 0.436017 1.221743
vt 2.374686 1.488717 1.221742
vt 2.893773 1.488722 1.386085
vt 2.893772 0.436022 1.386086
vt -0.837885 1.918990 0.279790
vt -1.557272 1.624893 0.344411
vt -1.557229 -2.384765 0.344408
vt -2.851434 -0.292723 0.258966
vt -2.849505 -0.185856 0.237994
vt -4.209321 -0.166439 0.234184
vt -4.211249 -0.273306 0.255156
vt -4.211249 0.486546 0.829520
vt -4.209320 0.593412 0.808548
vt -2.849505 0.573996 0.812358
vt -2.851433 0.467129 0.833330
vt 2.792843 1.274707 0.834999
vt 2.796303 1.452886 0.800032
vt 3.062023 1.383219 0.751328
vt 3.058510 1.205112 0.786281
vt 2.527121 1.321993 0.866785
vt 2.530582 1.500172 0.831818
vt 2.261324 1.351120 0.884886
vt 2.264915 1.529270 0.849926
vt 1.995655 1.364329 0.890983
vt 1.999193 1.542552 0.856007
vt 1.729935 1.359360 0.883269
vt 1.733475 1.537582 0.848294
vt 1.464214 1.338501 0.863545
vt 1.467808 1.516649 0.828585
vt 1.198547 1.299455 0.830142
vt 1.201996 1.477626 0.795177
vt 0.932827 1.238100 0.779808
vt 0.936275 1.416271 0.744843
vt 0.932827 0.203308 -0.002380
vt 3.058510 0.170321 0.004093
vt 3.062023 0.348427 -0.030859
vt 1.999193 0.364979 -0.034107
vt 0.936365 0.381531 -0.037355
vt 0.061733 1.300751 0.814240
vt 0.065235 1.478851 0.779289
vt 0.330185 1.417310 0.736642
vt 0.326725 1.239129 0.771608
vt -0.203217 1.351578 0.848790
vt -0.199678 1.529800 0.813814
vt -0.468130 1.383827 0.869175
vt -0.464684 1.561998 0.834209
vt -0.733080 1.397332 0.875515
vt -0.729633 1.575503 0.840550
vt -0.998085 1.392031 0.867565
vt -0.994623 1.570210 0.832599
vt -1.263021 1.368044 0.845558
vt -1.259483 1.546267 0.810583
vt -1.528026 1.325420 0.809399
vt -1.524487 1.503645 0.774424
vt -1.792938 1.272136 0.765132
vt -1.789439 1.450234 0.730181
vt -1.792939 0.245743 -0.010707
vt 0.326723 0.212736 -0.004230
vt 0.330185 0.390917 -0.039197
vt -0.729633 0.407373 -0.042427
vt -1.789440 0.423841 -0.045658
vt 4.062000 1.203719 0.800127
vt 4.065647 1.390758 0.763422
vt 5.171019 1.373633 0.766782
vt 5.167332 1.186469 0.803512
vt 5.167280 0.708623 0.442242
vt 5.171019 0.895713 0.405527
vt 4.065647 0.912837 0.402166
vt 4.062000 0.725799 0.438872
vt -2.169662 2.301081 -0.347913
vt -2.171674 2.066444 -0.101235
vt -2.171695 2.021373 -0.054778
vt -2.189678 2.023419 -0.047853
vt -2.188197 2.074502 -0.101235
vt -2.186185 2.309140 -0.347915
vt 5.764069 0.902214 1.106850
vt -1.099321 0.895153 0.836325
vt 5.740582 0.221970 1.144692
vt -1.065592 0.221654 0.873220
vt -3.628799 1.935905 0.129285
vt -3.644123 -0.789344 0.461641
vt -1.045410 -0.792261 0.546543
vt -1.035763 -0.084710 0.445015
vt -3.651697 -1.380006 0.540134
vt -1.052918 -1.382892 0.625025
vt -1.074866 1.399603 0.270502
vt -1.154366 1.958543 0.199615
# 302 texture coords

g Lai_30e
usemtl Lai_30_1
s off
f -137/-159/-783 -139/-158/-782 -138/-157/-781 
f -139/-158/-780 -137/-159/-779 -136/-156/-778 
f -140/-155/-777 -135/-154/-776 -133/-153/-775 
f -130/-299/-774 -131/-300/-773 -132/-302/-772 
f -133/-301/-771 -132/-302/-770 -131/-300/-769 
f -135/-154/-768 -140/-155/-767 -98/-152/-766 
f -128/-151/-765 -140/-155/-764 -131/-150/-763 
f -131/-150/-762 -140/-155/-761 -133/-153/-760 
f -125/-296/-759 -140/-295/-758 -128/-298/-757 
f -128/-298/-756 -126/-297/-755 -125/-296/-754 
usemtl Lai_30_katr
s 1
f -123/-166/-753 -122/-165/-752 -124/-164/-751 
f -129/-163/-750 -123/-166/-749 -124/-164/-748 
s off
f -123/-166/-747 -98/-162/-746 -140/-161/-745 
f -140/-161/-744 -125/-160/-743 -123/-166/-742 
usemtl XXX
f -123/-288/-741 -132/-293/-740 -134/-292/-739 
f -122/-291/-738 -134/-290/-737 -121/-289/-736 
f -122/-294/-735 -123/-288/-734 -134/-292/-733 
f -123/-288/-732 -125/-287/-731 -132/-293/-730 
f -130/-286/-729 -132/-293/-728 -126/-285/-727 
f -126/-285/-726 -132/-293/-725 -125/-287/-724 
usemtl Lai_30_ka_ker_2_old
s 1
f -126/-12/-723 -128/-11/-722 -130/-10/-721 
f -131/-9/-720 -130/-10/-719 -128/-11/-718 
usemtl XXX
s off
f -121/-278/-717 -120/-277/-716 -124/-283/-715 
f -124/-283/-714 -122/-284/-713 -121/-278/-712 
f -120/-276/-711 -119/-275/-710 -129/-282/-709 
f -129/-282/-708 -124/-281/-707 -120/-276/-706 
f -119/-274/-705 -138/-273/-704 -139/-279/-703 
f -139/-279/-702 -129/-280/-701 -119/-274/-700 
f -139/-279/-699 -127/-272/-698 -129/-282/-697 
usemtl orange_plaster
f -115/-176/-696 -114/-175/-695 -113/-174/-694 
f -113/-174/-693 -116/-173/-692 -115/-176/-691 
usemtl Lai_30_ka_ker_2_old
f -117/-8/-690 -112/-7/-689 -111/-6/-688 
f -111/-6/-687 -118/-5/-686 -117/-8/-685 
usemtl orange_plaster
f -110/-172/-684 -118/-171/-683 -111/-170/-682 
f -111/-170/-681 -109/-169/-680 -110/-172/-679 
usemtl window
f -107/-268/-678 -106/-267/-677 -105/-266/-676 
f -105/-266/-675 -108/-269/-674 -107/-268/-673 
usemtl Lai_30_ka_ker_2_old
f -112/-7/-672 -115/-4/-671 -116/-3/-670 
f -116/-3/-669 -111/-6/-668 -112/-7/-667 
usemtl orange_plaster
f -136/-17/-666 -114/-16/-665 -115/-15/-664 
f -115/-15/-663 -112/-14/-662 -136/-17/-661 
usemtl Lai_30_1
f -109/-270/-660 -113/-270/-659 -114/-271/-658 
f -114/-271/-657 -100/-265/-656 -109/-270/-655 
usemtl orange_plaster
f -109/-169/-654 -111/-170/-653 -116/-168/-652 
f -116/-168/-651 -113/-167/-650 -109/-169/-649 
usemtl Lai_30_1
f -104/-80/-648 -107/-79/-647 -108/-78/-646 
f -108/-78/-645 -103/-77/-644 -104/-80/-643 
f -102/-149/-642 -106/-148/-641 -107/-147/-640 
f -107/-147/-639 -104/-146/-638 -102/-149/-637 
f -101/-76/-636 -105/-75/-635 -106/-74/-634 
f -106/-74/-633 -102/-73/-632 -101/-76/-631 
f -103/-145/-630 -108/-144/-629 -105/-143/-628 
f -105/-143/-627 -101/-142/-626 -103/-145/-625 
f -114/-271/-624 -136/-271/-623 -100/-265/-622 
f -99/-264/-621 -110/-263/-620 -109/-270/-619 
f -109/-270/-618 -100/-265/-617 -99/-264/-616 
usemtl Lai_30_katr
f -123/-166/-615 -129/-163/-614 -98/-162/-613 
usemtl Lai_30_1
f -127/-141/-612 -98/-152/-611 -129/-140/-610 
s 8
f -95/-139/-609 -94/-138/-608 -132/-137/-607 
f -96/-136/-606 -95/-139/-605 -132/-137/-604 
f -97/-135/-603 -96/-136/-602 -132/-137/-601 
f -132/-137/-600 -133/-153/-599 -118/-134/-598 
f -132/-137/-597 -118/-134/-596 -93/-133/-595 
f -132/-137/-594 -93/-133/-593 -92/-132/-592 
f -132/-137/-591 -92/-132/-590 -91/-131/-589 
f -97/-135/-588 -132/-137/-587 -91/-131/-586 
f -90/-130/-585 -96/-136/-584 -97/-135/-583 
f -88/-129/-582 -87/-128/-581 -86/-127/-580 
f -89/-126/-579 -88/-129/-578 -86/-127/-577 
f -97/-135/-576 -89/-126/-575 -86/-127/-574 
f -97/-135/-573 -86/-127/-572 -85/-125/-571 
f -90/-130/-570 -97/-135/-569 -85/-125/-568 
f -110/-124/-567 -84/-123/-566 -83/-122/-565 
f -110/-124/-564 -83/-122/-563 -82/-121/-562 
f -110/-124/-561 -82/-121/-560 -81/-120/-559 
f -110/-124/-558 -81/-120/-557 -93/-133/-556 
f -110/-124/-555 -93/-133/-554 -118/-134/-553 
f -134/-119/-552 -94/-138/-551 -95/-139/-550 
f -134/-119/-549 -95/-139/-548 -80/-118/-547 
f -134/-119/-546 -80/-118/-545 -79/-117/-544 
f -134/-119/-543 -79/-117/-542 -78/-116/-541 
f -77/-115/-540 -91/-131/-539 -92/-132/-538 
f -75/-114/-537 -74/-113/-536 -73/-112/-535 
f -76/-111/-534 -75/-114/-533 -73/-112/-532 
f -92/-132/-531 -76/-111/-530 -73/-112/-529 
f -92/-132/-528 -73/-112/-527 -72/-110/-526 
f -77/-115/-525 -92/-132/-524 -72/-110/-523 
f -75/-114/-522 -82/-121/-521 -83/-122/-520 
f -83/-122/-519 -74/-113/-518 -75/-114/-517 
f -91/-131/-516 -77/-115/-515 -71/-109/-514 
f -91/-131/-513 -71/-109/-512 -70/-108/-511 
f -65/-107/-510 -89/-126/-509 -97/-135/-508 
f -66/-106/-507 -65/-107/-506 -97/-135/-505 
f -67/-105/-504 -66/-106/-503 -97/-135/-502 
f -68/-104/-501 -67/-105/-500 -97/-135/-499 
f -69/-103/-498 -68/-104/-497 -97/-135/-496 
f -70/-108/-495 -69/-103/-494 -97/-135/-493 
f -91/-131/-492 -70/-108/-491 -97/-135/-490 
f -79/-117/-489 -85/-125/-488 -86/-127/-487 
f -86/-127/-486 -78/-116/-485 -79/-117/-484 
f -93/-133/-483 -81/-120/-482 -64/-102/-481 
f -93/-133/-480 -64/-102/-479 -63/-101/-478 
f -58/-100/-477 -76/-111/-476 -92/-132/-475 
f -59/-99/-474 -58/-100/-473 -92/-132/-472 
f -60/-98/-471 -59/-99/-470 -92/-132/-469 
f -61/-97/-468 -60/-98/-467 -92/-132/-466 
f -62/-96/-465 -61/-97/-464 -92/-132/-463 
f -63/-101/-462 -62/-96/-461 -92/-132/-460 
f -93/-133/-459 -63/-101/-458 -92/-132/-457 
f -96/-136/-456 -90/-130/-455 -80/-118/-454 
f -80/-118/-453 -95/-139/-452 -96/-136/-451 
usemtl window
f -56/-261/-450 -55/-260/-449 -54/-259/-448 
f -54/-259/-447 -57/-262/-446 -56/-261/-445 
usemtl Lai_30_1
f -87/-128/-444 -88/-129/-443 -72/-110/-442 
f -72/-110/-441 -73/-112/-440 -87/-128/-439 
s off
f -89/-126/-438 -53/-95/-437 -52/-94/-436 
f -52/-94/-435 -88/-129/-434 -89/-126/-433 
f -65/-72/-432 -51/-71/-431 -53/-70/-430 
f -53/-70/-429 -89/-69/-428 -65/-72/-427 
f -66/-68/-426 -50/-67/-425 -51/-71/-424 
f -51/-71/-423 -65/-72/-422 -66/-68/-421 
f -67/-66/-420 -49/-65/-419 -50/-67/-418 
f -50/-67/-417 -66/-68/-416 -67/-66/-415 
f -68/-64/-414 -48/-63/-413 -49/-65/-412 
f -49/-65/-411 -67/-66/-410 -68/-64/-409 
f -69/-62/-408 -47/-61/-407 -48/-63/-406 
f -48/-63/-405 -68/-64/-404 -69/-62/-403 
f -70/-60/-402 -46/-59/-401 -47/-61/-400 
f -47/-61/-399 -69/-62/-398 -70/-60/-397 
f -71/-58/-396 -45/-57/-395 -46/-59/-394 
f -46/-59/-393 -70/-60/-392 -71/-58/-391 
f -77/-56/-390 -44/-55/-389 -45/-57/-388 
f -45/-57/-387 -71/-58/-386 -77/-56/-385 
f -72/-110/-384 -43/-93/-383 -44/-92/-382 
f -44/-92/-381 -77/-115/-380 -72/-110/-379 
f -72/-54/-378 -88/-53/-377 -52/-52/-376 
f -72/-54/-375 -52/-52/-374 -42/-51/-373 
f -72/-54/-372 -42/-51/-371 -43/-50/-370 
f -58/-49/-369 -41/-48/-368 -40/-47/-367 
f -40/-47/-366 -76/-46/-365 -58/-49/-364 
f -59/-45/-363 -39/-44/-362 -41/-48/-361 
f -41/-48/-360 -58/-49/-359 -59/-45/-358 
f -60/-43/-357 -38/-42/-356 -39/-44/-355 
f -39/-44/-354 -59/-45/-353 -60/-43/-352 
f -61/-41/-351 -37/-40/-350 -38/-42/-349 
f -38/-42/-348 -60/-43/-347 -61/-41/-346 
f -62/-39/-345 -36/-38/-344 -37/-40/-343 
f -37/-40/-342 -61/-41/-341 -62/-39/-340 
f -63/-37/-339 -35/-36/-338 -36/-38/-337 
f -36/-38/-336 -62/-39/-335 -63/-37/-334 
f -64/-35/-333 -34/-34/-332 -35/-36/-331 
f -35/-36/-330 -63/-37/-329 -64/-35/-328 
f -81/-33/-327 -33/-32/-326 -34/-34/-325 
f -34/-34/-324 -64/-35/-323 -81/-33/-322 
f -82/-121/-321 -32/-91/-320 -33/-90/-319 
f -33/-90/-318 -81/-120/-317 -82/-121/-316 
f -82/-31/-315 -75/-30/-314 -31/-29/-313 
f -82/-31/-312 -31/-29/-311 -30/-28/-310 
f -82/-31/-309 -30/-28/-308 -32/-27/-307 
f -76/-111/-306 -40/-89/-305 -31/-88/-304 
f -31/-88/-303 -75/-114/-302 -76/-111/-301 
f -90/-26/-300 -56/-25/-299 -57/-24/-298 
f -57/-24/-297 -80/-23/-296 -90/-26/-295 
f -85/-125/-294 -55/-87/-293 -56/-86/-292 
f -56/-86/-291 -90/-130/-290 -85/-125/-289 
f -79/-22/-288 -54/-21/-287 -55/-20/-286 
f -55/-20/-285 -85/-19/-284 -79/-22/-283 
f -80/-118/-282 -57/-85/-281 -54/-84/-280 
f -54/-84/-279 -79/-117/-278 -80/-118/-277 
usemtl wood
f -28/-257/-276 -27/-256/-275 -26/-255/-274 
f -26/-255/-273 -25/-254/-272 -24/-253/-271 
f -26/-255/-270 -24/-253/-269 -23/-252/-268 
f -28/-257/-267 -26/-255/-266 -23/-252/-265 
f -29/-258/-264 -28/-257/-263 -23/-252/-262 
f -21/-250/-261 -20/-249/-260 -19/-248/-259 
f -19/-248/-258 -18/-247/-257 -17/-246/-256 
f -21/-250/-255 -19/-248/-254 -17/-246/-253 
f -21/-250/-252 -17/-246/-251 -16/-245/-250 
f -22/-251/-249 -21/-250/-248 -16/-245/-247 
f -14/-243/-246 -13/-242/-245 -12/-241/-244 
f -12/-241/-243 -11/-240/-242 -10/-239/-241 
f -12/-241/-240 -10/-239/-239 -9/-238/-238 
f -14/-243/-237 -12/-241/-236 -9/-238/-235 
f -15/-244/-234 -14/-243/-233 -9/-238/-232 
f -7/-236/-231 -6/-235/-230 -5/-234/-229 
f -5/-234/-228 -4/-233/-227 -3/-232/-226 
f -5/-234/-225 -3/-232/-224 -2/-231/-223 
f -7/-236/-222 -5/-234/-221 -2/-231/-220 
f -8/-237/-219 -7/-236/-218 -2/-231/-217 
usemtl weathered_wood
f -52/-229/-216 -24/-228/-215 -25/-227/-214 
f -25/-227/-213 -42/-230/-212 -52/-229/-211 
f -53/-226/-210 -23/-225/-209 -24/-228/-208 
f -24/-228/-207 -52/-229/-206 -53/-226/-205 
f -51/-224/-204 -29/-223/-203 -23/-225/-202 
f -23/-225/-201 -53/-226/-200 -51/-224/-199 
f -50/-222/-198 -28/-221/-197 -29/-223/-196 
f -29/-223/-195 -51/-224/-194 -50/-222/-193 
f -49/-220/-192 -27/-219/-191 -28/-221/-190 
f -28/-221/-189 -50/-222/-188 -49/-220/-187 
f -49/-220/-186 -48/-218/-185 -26/-217/-184 
f -26/-217/-183 -27/-219/-182 -49/-220/-181 
f -42/-230/-180 -25/-227/-179 -26/-217/-178 
f -26/-217/-177 -48/-218/-176 -42/-230/-175 
f -30/-215/-174 -17/-214/-173 -18/-213/-172 
f -18/-213/-171 -37/-216/-170 -30/-215/-169 
f -31/-212/-168 -16/-211/-167 -17/-214/-166 
f -17/-214/-165 -30/-215/-164 -31/-212/-163 
f -40/-210/-162 -22/-209/-161 -16/-211/-160 
f -16/-211/-159 -31/-212/-158 -40/-210/-157 
f -41/-208/-156 -21/-207/-155 -22/-209/-154 
f -22/-209/-153 -40/-210/-152 -41/-208/-151 
f -41/-208/-150 -39/-206/-149 -20/-205/-148 
f -20/-205/-147 -21/-207/-146 -41/-208/-145 
f -38/-204/-144 -19/-203/-143 -20/-205/-142 
f -20/-205/-141 -39/-206/-140 -38/-204/-139 
f -38/-204/-138 -37/-216/-137 -18/-213/-136 
f -18/-213/-135 -19/-203/-134 -38/-204/-133 
f -35/-201/-132 -10/-200/-131 -11/-199/-130 
f -11/-199/-129 -36/-202/-128 -35/-201/-127 
f -34/-198/-126 -9/-197/-125 -10/-200/-124 
f -10/-200/-123 -35/-201/-122 -34/-198/-121 
f -34/-198/-120 -33/-196/-119 -15/-195/-118 
f -15/-195/-117 -9/-197/-116 -34/-198/-115 
f -33/-196/-114 -32/-194/-113 -14/-193/-112 
f -14/-193/-111 -15/-195/-110 -33/-196/-109 
f -30/-215/-108 -13/-192/-107 -14/-193/-106 
f -14/-193/-105 -32/-194/-104 -30/-215/-103 
f -37/-216/-102 -12/-191/-101 -13/-192/-100 
f -13/-192/-99 -30/-215/-98 -37/-216/-97 
f -36/-202/-96 -11/-199/-95 -12/-191/-94 
f -12/-191/-93 -37/-216/-92 -36/-202/-91 
f -46/-189/-90 -3/-188/-89 -4/-187/-88 
f -4/-187/-87 -47/-190/-86 -46/-189/-85 
f -45/-186/-84 -2/-185/-83 -3/-188/-82 
f -3/-188/-81 -46/-189/-80 -45/-186/-79 
f -45/-186/-78 -44/-184/-77 -8/-183/-76 
f -8/-183/-75 -2/-185/-74 -45/-186/-73 
f -44/-184/-72 -43/-182/-71 -7/-181/-70 
f -7/-181/-69 -8/-183/-68 -44/-184/-67 
f -42/-230/-66 -6/-180/-65 -7/-181/-64 
f -7/-181/-63 -43/-182/-62 -42/-230/-61 
f -48/-218/-60 -5/-179/-59 -6/-180/-58 
f -6/-180/-57 -42/-230/-56 -48/-218/-55 
f -47/-190/-54 -4/-187/-53 -5/-179/-52 
f -5/-179/-51 -48/-218/-50 -47/-190/-49 
usemtl Lai_30_1
f -110/-124/-48 -99/-83/-47 -84/-123/-46 
f -100/-82/-45 -1/-81/-44 -84/-123/-43 
f -1/-81/-42 -104/-146/-41 -103/-145/-40 
f -103/-145/-39 -137/-159/-38 -1/-81/-37 
f -100/-82/-36 -102/-149/-35 -104/-146/-34 
f -104/-146/-33 -1/-81/-32 -100/-82/-31 
f -100/-82/-30 -136/-156/-29 -101/-142/-28 
f -101/-142/-27 -102/-149/-26 -100/-82/-25 
f -136/-156/-24 -137/-159/-23 -103/-145/-22 
f -103/-145/-21 -101/-142/-20 -136/-156/-19 
f -84/-123/-18 -99/-83/-17 -100/-82/-16 
usemtl orange_plaster
f -117/-13/-15 -139/-18/-14 -136/-17/-13 
f -136/-17/-12 -112/-14/-11 -117/-13/-10 
usemtl XXX
f -117/-178/-9 -127/-272/-8 -139/-177/-7 
usemtl Lai_30_ka_ker_2_old
f -98/-2/-6 -127/-1/-5 -117/-8/-4 
f -98/-2/-3 -117/-8/-2 -118/-5/-1 
# 261 faces

