# 3ds Max Wavefront OBJ Exporter v0.97b - (c)2007 guruware
# File Created: 06.09.2011 23:27:22

mtllib Laboratooriumi_22_2.mtl

#
# object Laboratooriumi_22_2
#

v  41.598137 426.293762 19.987495
v  41.760578 420.031219 22.476524
v  38.606567 423.716431 22.476524
v  48.740433 420.686035 19.987495
v  44.948753 416.306122 22.476524
v  46.936047 418.601715 21.994328
v  40.186794 425.122681 21.994328
v  41.598133 426.293762 15.632601
v  41.760574 420.031219 15.632601
v  38.606564 423.716400 15.632601
v  48.740433 420.686035 15.632601
v  40.186790 425.122650 15.632601
v  44.948753 416.306122 15.632601
v  44.248512 423.952393 21.988457
v  44.248508 423.952393 20.928251
v  43.433067 424.589203 20.928253
v  44.248497 423.952393 20.813950
v  43.600014 424.458832 20.813950
v  44.248489 423.952423 20.183048
v  43.600018 424.458832 20.183048
v  45.063919 423.315613 20.928251
v  42.895523 422.219879 21.988457
v  43.710945 421.583069 20.928251
v  42.080086 422.856659 20.928251
v  44.896973 423.445984 20.813950
v  43.543983 421.713440 20.813950
v  42.247040 422.726318 20.813950
v  44.896954 423.445984 20.183048
v  47.212887 421.522644 21.988457
v  47.212883 421.522644 20.928251
v  46.397446 422.159424 20.928253
v  47.212868 421.522644 20.813950
v  46.564392 422.029083 20.813950
v  47.212868 421.522675 20.183048
v  46.564396 422.029083 20.183048
v  48.028297 420.885834 20.928251
v  45.859898 419.790100 21.988457
v  46.675323 419.153320 20.928251
v  45.044460 420.426910 20.928251
v  47.861351 421.016235 20.813950
v  46.508362 419.283691 20.813950
v  45.211414 420.296570 20.813950
v  47.861332 421.016235 20.183048
# 43 vertices

vn 0.460550 0.586580 0.666196
vn 0.460550 0.586580 0.666196
vn 0.460550 0.586580 0.666196
vn 0.168883 0.144541 0.974980
vn 0.168883 0.144541 0.974980
vn 0.168883 0.144541 0.974980
vn 0.168883 0.144540 0.974980
vn 0.168883 0.144540 0.974980
vn 0.168883 0.144540 0.974980
vn 0.109141 0.112962 0.987587
vn 0.109141 0.112962 0.987587
vn 0.109141 0.112962 0.987587
vn -0.759738 -0.650229 0.000001
vn -0.759738 -0.650229 0.000001
vn -0.759738 -0.650229 0.000001
vn -0.759738 -0.650230 0.000000
vn -0.759738 -0.650230 0.000000
vn -0.759738 -0.650230 0.000000
vn -0.759737 -0.650230 0.000001
vn -0.759737 -0.650230 0.000001
vn -0.759737 -0.650230 0.000001
vn -0.759737 -0.650230 0.000001
vn -0.759737 -0.650230 0.000001
vn -0.759737 -0.650230 0.000001
vn -0.638572 0.769562 0.000000
vn -0.638572 0.769562 0.000000
vn -0.638572 0.769562 0.000000
vn -0.638573 0.769561 -0.000000
vn -0.638573 0.769561 -0.000000
vn -0.638573 0.769561 -0.000000
vn 0.617544 0.786536 -0.000001
vn 0.617544 0.786536 -0.000001
vn 0.617544 0.786536 -0.000001
vn 0.617544 0.786536 -0.000000
vn 0.617544 0.786536 -0.000000
vn 0.617544 0.786536 -0.000000
vn -0.664787 0.747033 -0.000000
vn -0.664787 0.747033 -0.000000
vn -0.664787 0.747033 -0.000000
vn -0.664787 0.747033 -0.000000
vn -0.664787 0.747033 -0.000000
vn -0.664787 0.747033 -0.000000
vn 0.409331 0.423662 0.808059
vn 0.409331 0.423662 0.808059
vn 0.409331 0.423662 0.808059
vn 0.615491 0.788144 0.000004
vn 0.615491 0.788144 0.000004
vn 0.615480 0.788153 0.000004
vn 0.615493 0.788143 -0.000040
vn 0.615493 0.788143 -0.000040
vn 0.615493 0.788143 -0.000040
vn 0.615480 0.788153 0.000077
vn 0.615480 0.788153 0.000077
vn 0.615480 0.788153 0.000077
vn 0.615483 0.788150 0.000019
vn 0.615483 0.788150 0.000019
vn 0.615483 0.788150 0.000019
vn 0.615493 0.788143 0.000003
vn 0.615493 0.788143 0.000003
vn 0.615493 0.788143 0.000003
vn 0.564072 -0.440502 0.698413
vn 0.564072 -0.440502 0.698413
vn 0.564072 -0.440502 0.698413
vn 0.564071 -0.440498 0.698416
vn 0.564071 -0.440498 0.698416
vn 0.564071 -0.440498 0.698416
vn -0.564066 0.440498 0.698421
vn -0.564066 0.440498 0.698421
vn -0.564066 0.440498 0.698421
vn -0.564066 0.440497 0.698421
vn -0.564066 0.440497 0.698421
vn -0.564066 0.440497 0.698421
vn 0.374267 -0.292275 -0.880056
vn 0.374267 -0.292275 -0.880056
vn 0.374267 -0.292275 -0.880056
vn 0.374272 -0.292278 -0.880053
vn 0.374272 -0.292278 -0.880053
vn 0.374272 -0.292278 -0.880053
vn -0.374293 0.292297 -0.880038
vn -0.374293 0.292297 -0.880038
vn -0.374293 0.292297 -0.880038
vn -0.374281 0.292290 -0.880045
vn -0.374281 0.292290 -0.880045
vn -0.374281 0.292290 -0.880045
vn 0.788149 -0.615484 -0.000026
vn 0.788149 -0.615484 -0.000026
vn 0.788149 -0.615484 -0.000026
vn -0.788147 0.615487 -0.000004
vn -0.788147 0.615487 -0.000004
vn -0.788147 0.615487 -0.000004
vn 0.615503 0.788135 0.000042
vn 0.615503 0.788135 0.000042
vn 0.615503 0.788135 0.000042
vn 0.615494 0.788142 -0.000040
vn 0.615494 0.788142 -0.000040
vn 0.615494 0.788142 -0.000040
vn 0.615513 0.788127 -0.000013
vn 0.615513 0.788127 -0.000013
vn 0.615513 0.788127 -0.000013
vn 0.615494 0.788142 0.000019
vn 0.615494 0.788142 0.000019
vn 0.615494 0.788142 0.000019
vn 0.615491 0.788144 0.000004
vn 0.615503 0.788135 0.000004
vn 0.615491 0.788144 0.000004
vn 0.615492 0.788143 0.000004
vn 0.615492 0.788143 0.000004
vn 0.615480 0.788152 0.000004
vn 0.615493 0.788143 -0.000048
vn 0.615493 0.788143 -0.000048
vn 0.615493 0.788143 -0.000048
vn 0.615480 0.788152 0.000065
vn 0.615480 0.788152 0.000065
vn 0.615480 0.788152 0.000065
vn 0.615482 0.788151 0.000023
vn 0.615482 0.788151 0.000023
vn 0.615482 0.788151 0.000023
vn 0.615493 0.788143 0.000007
vn 0.615493 0.788143 0.000007
vn 0.615493 0.788143 0.000007
vn 0.564072 -0.440502 0.698413
vn 0.564072 -0.440502 0.698413
vn 0.564072 -0.440502 0.698413
vn 0.564072 -0.440497 0.698416
vn 0.564072 -0.440497 0.698416
vn 0.564072 -0.440497 0.698416
vn -0.564066 0.440498 0.698421
vn -0.564066 0.440498 0.698421
vn -0.564066 0.440498 0.698421
vn -0.564066 0.440497 0.698421
vn -0.564066 0.440497 0.698421
vn -0.564066 0.440497 0.698421
vn 0.374269 -0.292276 -0.880055
vn 0.374269 -0.292276 -0.880055
vn 0.374269 -0.292276 -0.880055
vn 0.374272 -0.292278 -0.880053
vn 0.374272 -0.292278 -0.880053
vn 0.374272 -0.292278 -0.880053
vn -0.374296 0.292299 -0.880036
vn -0.374296 0.292299 -0.880036
vn -0.374296 0.292299 -0.880036
vn -0.374283 0.292291 -0.880045
vn -0.374283 0.292291 -0.880045
vn -0.374283 0.292291 -0.880045
vn 0.788149 -0.615484 -0.000020
vn 0.788149 -0.615484 -0.000020
vn 0.788149 -0.615484 -0.000020
vn -0.788147 0.615487 -0.000008
vn -0.788147 0.615487 -0.000008
vn -0.788147 0.615487 -0.000008
vn 0.615503 0.788134 0.000052
vn 0.615503 0.788134 0.000052
vn 0.615503 0.788134 0.000052
vn 0.615492 0.788143 -0.000048
vn 0.615492 0.788143 -0.000048
vn 0.615492 0.788143 -0.000048
vn 0.615516 0.788124 -0.000016
vn 0.615516 0.788124 -0.000016
vn 0.615516 0.788124 -0.000016
vn 0.615492 0.788143 0.000023
vn 0.615492 0.788143 0.000023
vn 0.615492 0.788143 0.000023
vn 0.615492 0.788143 0.000004
vn 0.615503 0.788134 0.000004
vn 0.615492 0.788143 0.000004
vn 0.756053 -0.654511 -0.000000
vn 0.756053 -0.654511 0.000000
vn 0.756053 -0.654511 0.000000
vn 0.756053 -0.654511 0.000000
vn 0.756053 -0.654510 -0.000000
vn 0.756053 -0.654511 -0.000000
vn 0.756054 -0.654509 0.000003
vn 0.756054 -0.654509 0.000003
vn 0.756054 -0.654509 0.000003
# 174 vertex normals

vt -1.054006 16.090214 -0.000000
vt 2.134168 12.365106 -0.000000
vt -4.208019 19.775406 -0.000000
vt 2.134168 12.365106 -0.000000
vt -1.054006 16.090214 -0.000000
vt -4.208019 19.775406 -0.000000
vt -9.746996 2.123724 0.190702
vt -10.053601 0.030725 0.381480
vt -5.268695 -0.764935 0.381479
vt -0.431958 -1.569217 0.381480
vt -0.398227 1.471355 0.190702
vt 5.743613 1.421297 6.456509
vt 5.037942 0.417881 7.042066
vt 5.037943 -1.759566 7.042066
vt 5.743614 -1.759566 6.456508
vt 1.466794 0.417881 4.238199
vt 1.466795 -1.759566 4.238197
vt 6.533727 1.662396 5.753385
vt 6.533729 -1.759566 5.753384
vt 0.013659 1.005991 0.497643
vt 0.013667 0.599413 0.497644
vt 0.854298 0.599413 0.501661
vt 0.013674 0.555580 0.497646
vt 0.679012 0.555580 0.500839
vt 0.013682 -0.005990 0.497644
vt 0.679012 -0.005990 0.500841
vt 1.054173 -0.012369 0.000499
vt 1.049541 0.504917 0.999500
vt -0.049530 0.495085 0.999500
vt -0.044903 -0.022202 0.000499
vt 0.359269 0.407404 0.331968
vt 0.329672 0.377089 0.309108
vt 0.644258 0.069963 0.309108
vt 0.673854 0.100280 0.331968
vt 0.673222 0.381220 0.309108
vt 0.642910 0.410815 0.331968
vt 0.335785 0.096231 0.331968
vt 0.366097 0.066636 0.309108
vt 0.375158 0.359272 0.407405
vt 0.668032 0.359269 0.407404
vt 0.668032 0.673854 0.100280
vt 0.668032 0.410815 0.642910
vt 0.375158 0.410815 0.642910
vt 0.668032 0.096231 0.335785
vt 1.017458 0.599413 0.497644
vt 1.858093 0.599413 0.493629
vt 1.682789 0.555580 0.494450
vt 1.017451 0.555580 0.497646
vt 1.682777 -0.005990 0.494448
vt 1.017443 -0.005990 0.497644
vt 1.017466 1.005991 0.497643
vt 0.013659 1.005991 0.497643
vt 0.013667 0.599413 0.497644
vt 0.854298 0.599413 0.501661
vt 0.013674 0.555580 0.497646
vt 0.679012 0.555580 0.500839
vt 0.013682 -0.005990 0.497644
vt 0.679012 -0.005990 0.500841
vt 1.054173 -0.012369 0.000499
vt 1.049541 0.504917 0.999500
vt -0.049530 0.495085 0.999500
vt -0.044903 -0.022202 0.000499
vt 0.359269 0.407404 0.331968
vt 0.329672 0.377089 0.309108
vt 0.644258 0.069963 0.309108
vt 0.673854 0.100280 0.331968
vt 0.673222 0.381220 0.309108
vt 0.642910 0.410815 0.331968
vt 0.335785 0.096231 0.331968
vt 0.366097 0.066636 0.309108
vt 0.375158 0.359272 0.407405
vt 0.668032 0.359269 0.407404
vt 0.668032 0.673854 0.100280
vt 0.668032 0.410815 0.642910
vt 0.375158 0.410815 0.642910
vt 0.668032 0.096231 0.335785
vt 1.017458 0.599413 0.497644
vt 1.858093 0.599413 0.493629
vt 1.682789 0.555580 0.494450
vt 1.017451 0.555580 0.497646
vt 1.682777 -0.005990 0.494448
vt 1.017443 -0.005990 0.497644
vt 1.017466 1.005991 0.497643
vt -7.915758 1.595414 0.149319
vt -8.079945 2.497574 0.513623
vt -3.405560 2.823758 0.513623
vt -3.377809 1.447811 0.149319
vt 1.049541 3.516684 0.999500
vt -0.049530 3.526516 0.999500
vt 1.044918 2.999390 0.000499
vt -0.054153 3.009222 0.000499
vt 1.049541 3.516684 0.999500
vt -0.049530 3.526516 0.999500
vt 1.044918 2.999390 0.000499
vt -0.054153 3.009222 0.000499
# 95 texture coords

g Laboratooriumi_22_2
usemtl Lai_35_37_katus1
s off
f -43/-12/-174 -37/-11/-173 -40/-9/-172 
usemtl Lai_35_37_katus4
f -37/-89/-171 -41/-88/-170 -42/-87/-169 
f -37/-89/-168 -42/-87/-167 -39/-86/-166 
f -37/-89/-165 -39/-86/-164 -38/-85/-163 
usemtl xxx
f -39/-94/-162 -42/-95/-161 -35/-91/-160 
f -35/-91/-159 -31/-92/-158 -39/-94/-157 
f -42/-95/-156 -41/-93/-155 -34/-90/-154 
f -34/-90/-153 -35/-91/-152 -42/-95/-151 
usemtl Lai_35_37_plaster
f -37/-84/-150 -43/-83/-149 -36/-82/-148 
f -36/-82/-147 -32/-81/-146 -37/-84/-145 
f -43/-83/-144 -40/-80/-143 -33/-79/-142 
f -33/-79/-141 -36/-82/-140 -43/-83/-139 
f -41/-78/-138 -37/-84/-137 -32/-81/-136 
f -32/-81/-135 -34/-77/-134 -41/-78/-133 
usemtl Lai_35_37_katus1
f -37/-11/-132 -38/-10/-131 -40/-9/-130 
usemtl Lai_35_37_katuseaken
s 1
f -30/-76/-129 -29/-75/-128 -28/-74/-127 
s off
f -29/-75/-126 -27/-73/-125 -26/-72/-124 
f -26/-72/-123 -28/-74/-122 -29/-75/-121 
f -27/-73/-120 -25/-71/-119 -24/-70/-118 
f -24/-70/-117 -26/-72/-116 -27/-73/-115 
usemtl Lai_35_37_katus1
f -23/-69/-114 -30/-68/-113 -22/-67/-112 
f -22/-67/-111 -21/-66/-110 -23/-69/-109 
f -30/-8/-108 -28/-6/-107 -20/-5/-106 
f -20/-5/-105 -22/-7/-104 -30/-8/-103 
usemtl Lai_35_37_katuseaken
f -19/-65/-102 -23/-64/-101 -21/-63/-100 
f -21/-63/-99 -18/-62/-98 -19/-65/-97 
f -28/-61/-96 -26/-60/-95 -17/-59/-94 
f -17/-59/-93 -20/-58/-92 -28/-61/-91 
f -16/-57/-90 -19/-56/-89 -18/-55/-88 
f -26/-54/-87 -24/-53/-86 -17/-52/-85 
f -29/-51/-84 -23/-50/-83 -19/-49/-82 
f -19/-49/-81 -27/-48/-80 -29/-51/-79 
f -19/-49/-78 -16/-47/-77 -25/-46/-76 
f -25/-46/-75 -27/-48/-74 -19/-49/-73 
s 1
f -30/-45/-72 -23/-50/-71 -29/-51/-70 
f -15/-44/-69 -14/-43/-68 -13/-42/-67 
s off
f -14/-43/-66 -12/-41/-65 -11/-40/-64 
f -11/-40/-63 -13/-42/-62 -14/-43/-61 
f -12/-41/-60 -10/-39/-59 -9/-38/-58 
f -9/-38/-57 -11/-40/-56 -12/-41/-55 
usemtl Lai_35_37_katus1
f -8/-37/-54 -15/-36/-53 -7/-35/-52 
f -7/-35/-51 -6/-34/-50 -8/-37/-49 
f -15/-4/-48 -13/-2/-47 -5/-1/-46 
f -5/-1/-45 -7/-3/-44 -15/-4/-43 
usemtl Lai_35_37_katuseaken
f -4/-33/-42 -8/-32/-41 -6/-31/-40 
f -6/-31/-39 -3/-30/-38 -4/-33/-37 
f -13/-29/-36 -11/-28/-35 -2/-27/-34 
f -2/-27/-33 -5/-26/-32 -13/-29/-31 
f -1/-25/-30 -4/-24/-29 -3/-23/-28 
f -11/-22/-27 -9/-21/-26 -2/-20/-25 
f -14/-19/-24 -8/-18/-23 -4/-17/-22 
f -4/-17/-21 -12/-16/-20 -14/-19/-19 
f -4/-17/-18 -1/-15/-17 -10/-14/-16 
f -10/-14/-15 -12/-16/-14 -4/-17/-13 
s 1
f -15/-13/-12 -8/-18/-11 -14/-19/-10 
usemtl xxx
f -31/-83/-9 -33/-85/-8 -40/-92/-7 
f -40/-92/-6 -39/-91/-5 -31/-83/-4 
s off
f -39/-86/-3 -40/-92/-2 -38/-10/-1 
# 58 faces

