# 3ds Max Wavefront OBJ Exporter v0.94b - (c)2007 guruware
# File Created: 17.11.2010 11:27:53

mtllib Lai_30a.mtl

#
# object Lai_30a
#

v  37.7137 207.4812 23.6149
v  31.7654 211.3854 23.6149
v  31.7654 211.3854 23.1344
v  39.4051 210.0072 23.6145
v  38.5193 208.7994 23.6145
v  38.5193 208.7994 21.4842
v  39.4051 210.0072 21.4842
v  29.6388 228.6080 19.7313
v  30.8593 227.8722 19.7313
v  30.8593 227.8722 19.4227
v  30.7715 227.9252 19.4227
v  30.2913 228.2146 19.4227
v  30.2068 228.2656 19.4227
v  29.7266 228.5550 19.4227
v  29.6388 228.6080 19.4227
v  29.4864 228.3613 17.0924
v  22.2008 215.9153 17.0924
v  22.2008 215.9153 23.1344
v  22.2008 215.6501 23.7297
v  27.3186 224.7104 23.6149
v  32.4371 221.1458 23.6149
v  32.1694 220.7037 23.6149
v  32.8060 220.2428 22.7359
v  35.6157 225.1021 22.7359
v  21.8241 215.1884 23.1091
v  31.5370 211.1160 23.1344
v  29.7239 228.7552 22.7359
v  29.3664 228.1739 23.6149
v  35.0523 225.0058 22.7359
v  32.4087 220.4746 22.7359
v  32.4087 220.4746 17.0924
v  35.0523 225.0058 17.0924
v  31.7654 211.3854 17.0924
v  37.7137 207.4812 17.0924
v  29.4864 228.3613 22.7359
v  26.4837 223.1904 30.4228
v  24.8140 220.3628 30.4228
v  43.4554 213.9764 23.6149
v  42.5306 214.0487 23.6149
v  33.7516 214.9255 30.7415
v  36.6938 213.1374 30.7406
v  37.6406 206.5527 23.6149
v  31.5033 211.0381 23.6149
v  31.9928 226.5700 22.1296
v  31.9928 226.5700 20.3421
v  30.9323 227.2093 20.3421
v  30.9323 227.2093 22.1296
v  32.8207 226.1292 21.2641
v  32.8207 226.1292 20.5127
v  32.1958 226.5060 20.5127
v  32.1958 226.5060 21.2641
v  31.5761 226.7628 18.1090
v  31.5761 226.7628 17.4363
v  31.1704 227.0074 17.4363
v  31.1704 227.0074 18.1090
v  34.7673 218.7785 22.8857
v  36.1163 217.9213 22.8857
v  36.1112 217.9133 20.9796
v  34.7622 218.7704 20.9796
v  40.5488 215.1148 22.5147
v  41.0607 214.7895 22.5147
v  41.0585 214.7859 21.6663
v  40.5465 215.1112 21.6663
v  39.7870 215.6385 17.2672
v  38.7154 216.3193 17.2672
v  38.7090 216.3242 18.6214
v  38.7445 216.3005 18.7239
v  38.7687 216.2853 18.7877
v  38.8267 216.2490 18.8639
v  38.9576 216.1664 18.9523
v  39.0913 216.0818 19.0020
v  39.2284 215.9947 19.0135
v  39.3668 215.9067 19.0020
v  39.5057 215.8182 18.9519
v  39.6455 215.7287 18.8624
v  39.7115 215.6863 18.7840
v  39.7414 215.6671 18.7182
v  39.7857 215.6400 18.6181
v  30.7096 227.6239 22.4249
v  29.4891 228.3596 22.4249
v  31.0562 227.4149 20.3421
v  30.7096 227.6239 19.4227
v  30.7096 227.6239 19.7313
v  31.0562 227.4149 22.1296
v  32.2939 226.6687 21.2641
v  32.2939 226.6687 20.5127
v  32.1167 226.7755 20.3421
v  32.1167 226.7755 22.1296
v  31.3201 227.2558 17.4363
v  31.7258 227.0112 17.4363
v  29.4891 228.3596 19.7313
v  29.4891 228.3596 19.4227
v  31.7258 227.0112 18.1090
v  31.3201 227.2558 18.1090
v  32.9188 226.2919 20.5127
v  32.9188 226.2919 21.2641
v  34.3473 219.2414 17.1971
v  36.3694 217.9639 17.1971
v  32.5310 220.4027 17.1971
v  36.2192 218.0588 18.8274
v  36.2185 218.0821 20.9786
v  36.3566 217.9727 18.6352
v  36.0895 218.1416 18.9805
v  35.8368 218.3027 19.1968
v  35.3435 218.6167 19.4880
v  34.8695 218.9393 20.9786
v  34.8561 218.9267 19.6512
v  34.3723 219.2341 19.6977
v  33.8965 219.5364 19.6512
v  32.5182 220.4115 18.6352
v  32.6207 220.3451 18.8275
v  32.7309 220.2755 18.9805
v  32.9580 220.1318 19.1968
v  33.4243 219.8361 19.4880
v  34.8745 218.9473 22.8847
v  40.6484 215.2716 21.6654
v  36.2236 218.0901 22.8847
v  40.6507 215.2752 22.5137
v  41.1604 214.9463 21.6654
v  42.5306 214.0487 17.0924
v  39.9158 215.7106 17.1971
v  39.9121 215.7137 18.6352
v  41.1626 214.9499 22.5137
v  38.7264 216.4664 17.1971
v  38.7226 216.4694 18.6352
v  39.8691 215.7398 18.7550
v  39.8291 215.7656 18.8257
v  39.7509 215.8158 18.9185
v  39.5982 215.9134 19.0162
v  39.4473 216.0096 19.0706
v  39.2981 216.1045 19.0831
v  39.1500 216.1986 19.0706
v  39.0035 216.2913 19.0162
v  38.8588 216.3826 18.9185
v  38.7883 216.4269 18.8257
v  38.7540 216.4483 18.7550
v  36.2675 217.8035 17.1972
v  36.2558 217.8117 18.6353
v  34.2483 219.0792 17.1972
v  32.4291 220.2423 17.1972
v  32.4149 220.2520 18.6353
v  32.5247 220.1813 18.8221
v  32.6289 220.1152 18.9810
v  32.8560 219.9715 19.1973
v  33.3224 219.6758 19.4883
v  33.7946 219.3760 19.6516
v  34.7542 218.7663 19.6516
v  34.2727 219.0723 19.6981
v  35.2416 218.4564 19.4883
v  35.7350 218.1423 19.1974
v  35.9877 217.9812 18.9810
v  36.1099 217.9036 18.8188
v  39.8461 215.6009 17.1972
v  39.8448 215.6025 18.6353
v  38.6567 216.3566 17.1972
v  38.6498 216.3617 18.6352
v  38.6903 216.3350 18.7517
v  38.7186 216.3172 18.8263
v  38.7891 216.2729 18.9191
v  38.9338 216.1816 19.0168
v  39.0802 216.0888 19.0713
v  39.2284 215.9948 19.0837
v  39.3776 215.8999 19.0713
v  39.5285 215.8037 19.0168
v  39.6812 215.7061 18.9191
v  39.7593 215.6559 18.8263
v  39.7937 215.6340 18.7509
v  30.7873 227.7529 18.9827
v  30.7096 227.6239 18.9827
v  30.6217 227.6768 18.9827
v  30.6995 227.8058 18.9827
v  30.8593 227.8722 22.2237
v  29.6388 228.6080 22.2237
v  29.6547 228.4357 18.9827
v  29.5769 228.3067 18.9827
v  29.4891 228.3596 18.9827
v  29.5668 228.4886 18.9827
v  30.6217 227.6768 19.4227
v  30.1415 227.9663 19.4227
v  30.0570 228.0173 19.4227
v  29.5769 228.3067 19.4227
v  30.1348 228.1463 18.9827
v  30.2193 228.0953 18.9827
v  30.1415 227.9663 18.9827
v  30.0570 228.0173 18.9827
v  30.7715 227.9252 19.2127
v  30.8593 227.8722 19.2127
v  29.6388 228.6080 19.2127
v  29.7266 228.5550 19.2127
v  30.2913 228.2146 19.2127
v  30.2068 228.2656 19.2127
v  40.9999 212.1815 23.6145
v  40.1141 210.9738 23.6145
v  40.1141 210.9738 21.4842
v  40.9999 212.1815 21.4842
v  39.5099 209.9303 21.4842
v  40.2189 210.8969 21.4842
v  40.2189 210.8969 23.6145
v  39.5099 209.9303 23.6145
v  41.1047 212.1046 23.6145
v  41.1047 212.1046 21.4842
v  38.6241 208.7225 21.4842
v  38.6241 208.7225 23.6145
v  29.5590 215.7310 30.7583
v  28.7520 216.2535 30.7583
v  28.1455 215.3168 30.7583
v  28.9526 214.7943 30.7583
v  28.9881 214.6283 27.5599
v  27.9796 215.2813 27.5599
v  27.9796 215.2813 25.6631
v  28.9881 214.6283 25.6631
v  29.7250 215.7665 27.5599
v  29.7250 215.7665 25.6631
v  28.7164 216.4194 27.5599
v  28.7164 216.4194 25.6631
v  28.9526 214.7943 27.5599
v  28.1455 215.3168 27.5599
v  29.5590 215.7310 27.5599
v  28.7520 216.2535 27.5599
v  33.8717 212.1713 30.7583
v  33.0646 212.6938 30.7583
v  32.6871 212.1108 30.7583
v  33.4942 211.5882 30.7583
v  33.5297 211.4223 27.5599
v  32.5212 212.0752 27.5599
v  32.5212 212.0752 25.6631
v  33.5297 211.4223 25.6631
v  34.0376 212.2068 27.5599
v  34.0376 212.2068 25.6631
v  33.0291 212.8598 27.5599
v  33.0291 212.8598 25.6631
v  33.4942 211.5882 27.5599
v  32.6871 212.1108 27.5599
v  33.8717 212.1713 27.5599
v  33.0646 212.6938 27.5599
v  32.7448 219.7416 26.9264
v  32.0596 220.1866 26.9264
v  31.2881 218.9989 26.9264
v  31.9734 218.5538 26.9264
v  32.7448 219.7416 24.9383
v  32.0596 220.1866 24.9383
v  31.4562 226.1763 24.3357
v  30.5771 226.6545 24.3397
v  30.5780 226.6582 25.4240
v  31.4558 226.1775 25.4199
v  30.2351 226.9696 24.9604
v  30.1230 227.2774 25.2059
v  30.3400 227.1544 24.9604
v  31.1768 226.6967 26.3796
v  31.1746 226.6979 25.9264
v  32.2262 226.1185 25.2059
v  32.0093 226.2415 24.9604
v  31.9045 226.0568 24.9604
v  29.3169 225.7568 25.2059
v  29.8848 224.3415 26.3796
v  31.4692 224.6398 25.2059
v  29.5803 225.6557 24.9604
v  31.2548 224.8318 24.9604
v  31.9045 226.0568 24.0897
v  30.2339 226.9671 24.0897
v  31.0698 226.5132 25.9264
v  30.6307 226.7548 25.4237
v  31.5085 226.2740 25.4197
v  30.6298 226.7511 24.3395
v  31.5089 226.2728 24.3354
v  25.7518 217.8289 28.1621
v  25.2912 218.0657 28.1770
v  24.9082 217.3847 27.1618
v  25.3687 217.1480 27.1469
v  25.4277 217.0491 27.0647
v  24.7894 217.3773 27.0855
v  24.8335 217.4680 27.0080
v  25.4718 217.1398 26.9873
v  25.8706 217.8364 28.2384
v  25.9147 217.9270 28.1610
v  25.2322 218.1645 28.2592
v  25.2763 218.2552 28.1817
v  30.8854 213.2785 25.7395
v  30.4312 213.5272 25.7564
v  30.0748 212.9499 24.6698
v  30.5290 212.7012 24.6529
v  30.5888 212.6082 24.5648
v  29.9593 212.9529 24.5882
v  30.0212 213.0684 24.5051
v  30.6507 212.7237 24.4817
v  31.0009 213.2756 25.8211
v  31.0628 213.3911 25.7380
v  30.3714 213.6203 25.8444
v  30.4333 213.7358 25.7613
v  35.9361 212.5183 29.5397
v  35.5042 212.8043 29.5464
v  35.1046 212.2259 28.4755
v  35.5365 211.9399 28.4688
v  35.5887 211.8396 28.3839
v  34.9901 212.2360 28.3932
v  35.0571 212.3392 28.3125
v  35.6558 211.9427 28.3032
v  36.0507 212.5082 29.6221
v  36.1177 212.6114 29.5413
v  35.4520 212.9047 29.6313
v  35.5191 213.0078 29.5506
v  26.0925 214.1858 23.0439
v  24.5881 214.9367 23.0439
v  24.5881 214.9367 21.7705
v  26.0925 214.1858 21.7705
v  24.5256 214.8115 23.0439
v  26.0300 214.0606 23.0439
v  26.0300 214.0606 21.7705
v  24.5256 214.8115 21.7705
v  25.2595 215.3351 24.9361
v  26.1663 214.9116 24.9402
v  26.1657 214.9079 26.0244
v  25.2600 215.3338 26.0203
v  26.5270 214.6181 25.5609
v  26.6578 214.3178 25.8064
v  26.4337 214.4272 25.5609
v  25.5704 214.8327 26.9801
v  25.5726 214.8317 26.5269
v  24.4875 215.3454 25.8064
v  24.7115 215.2360 25.5609
v  24.8048 215.4268 25.5609
v  27.3691 215.8850 25.8064
v  26.7154 217.2628 26.9801
v  25.1523 216.8678 25.8064
v  27.1000 215.9697 25.5609
v  25.3781 216.6893 25.5609
v  24.8048 215.4268 24.6901
v  26.5281 214.6207 24.6901
v  25.6659 215.0225 26.5269
v  26.1190 214.8083 26.0242
v  25.2134 215.2342 26.0201
v  26.1196 214.8120 24.9399
v  25.2129 215.2354 24.9359
v  34.5435 210.3646 25.5711
v  35.3776 209.8116 25.5751
v  35.3764 209.8080 26.6593
v  34.5438 210.3634 26.6553
v  35.6909 209.4679 26.1958
v  35.7757 209.1515 26.4413
v  35.5703 209.2929 26.1958
v  34.7765 209.8218 27.6150
v  34.7786 209.8204 27.1618
v  33.7815 210.4893 26.4413
v  33.9869 210.3479 26.1958
v  34.1074 210.5227 26.1958
v  36.7113 210.5960 26.4413
v  36.2689 212.0555 27.6150
v  34.6645 211.8964 26.4413
v  36.4577 210.7197 26.1958
v  34.8614 211.6864 26.1958
v  34.1074 210.5227 25.3251
v  35.6923 209.4703 25.3251
v  34.8991 209.9953 27.1618
v  35.3155 209.7164 26.6591
v  34.4829 210.2718 26.6550
v  35.3167 209.7200 25.5749
v  34.4826 210.2730 25.5708
v  32.4741 220.2142 18.6136
v  32.5721 220.1509 18.7806
v  32.6713 220.0881 18.9316
v  32.8885 219.9507 19.1386
v  33.3446 219.6615 19.4231
v  33.8054 219.3690 19.5824
v  34.2130 219.1102 19.6221
v  34.1899 219.1165 17.2672
v  32.4875 220.2052 17.2672
v  36.2078 217.8415 17.2672
v  34.3081 219.0415 17.2672
v  34.3312 219.0352 19.6223
v  34.7436 218.7729 19.5824
v  35.2201 218.4698 19.4227
v  35.7043 218.1616 19.1372
v  35.9478 218.0063 18.9287
v  36.0663 217.9312 18.7715
v  36.1969 217.8489 18.6073
# 375 vertices

vt 5.7132 1.1283 -71.5287
vt 1.7748 3.9995 -76.1180
vt 1.5082 3.8051 -76.1180
vt 0.9995 0.9995 0.0005
vt 0.0005 0.9995 0.9995
vt 0.0005 0.0005 0.9995
vt 0.9995 0.0005 0.0005
vt 1.2240 0.8743 0.5679
vt -0.1929 0.8743 0.7205
vt -0.1929 0.5657 0.7205
vt -0.0910 0.5657 0.7095
vt 0.4664 0.5657 0.6495
vt 0.5646 0.5657 0.6389
vt 1.1220 0.5657 0.5789
vt 1.2240 0.5657 0.5679
vt -8.5498 6.2497 37.4739
vt -7.5903 5.5502 -96.5227
vt -4.2379 7.9941 -96.5227
vt -3.8186 8.1700 -98.4985
vt -4.6629 8.6926 -2.0059
vt 6.7090 1.3572 0.8764
vt 6.0510 1.3572 0.8844
vt 6.0743 0.0059 0.9995
vt 13.2034 0.0059 0.8965
vt 1.0263 0.0056 0.0005
vt 14.8770 0.0429 0.3760
vt 14.9026 0.7484 0.4263
vt 1.0542 0.9170 0.0854
vt 9.4353 0.0057 0.9065
vt 9.3436 1.3044 0.8102
vt 0.0047 0.0057 0.9995
vt 2.8332 5.9187 43.9864
vt 2.4799 5.6612 -4.7471
vt 5.6112 3.3784 -4.7471
vt 5.9645 3.6359 43.9864
vt -4.1743 7.9272 -104.0721
vt 80.4197 3.8128 1.4978
vt 105.0721 7.9272 -4.1743
vt 97.5227 7.9941 -4.2379
vt 77.1180 3.8051 1.5082
vt -76.1180 3.8051 1.5082
vt -76.1180 3.9995 1.7748
vt -79.4197 3.8128 1.4978
vt -1.8442 1.3612 -76.1180
vt 2.0943 -1.5100 -71.5287
vt -46.8948 5.7608 -1.6166
vt 5.2246 5.4765 -1.2266
vt 5.7471 5.6612 -1.4799
vt -42.9864 5.9187 -1.8332
vt -40.7542 8.5524 -5.4458
vt -36.4739 8.5324 -5.4185
vt -5.4185 8.5324 37.4739
vt -4.9209 8.8807 35.3986
vt -5.4458 8.5524 41.7542
vt 8.3598 11.3643 0.0005
vt 4.1818 11.8241 0.0005
vt 0.0066 11.8241 0.0564
vt 0.5846 6.1718 -1.2050
vt -8.3824 0.8687 6.0693
vt -3.6844 1.1842 5.6365
vt 5.3948 6.1498 -1.1749
vt 0.0110 0.0045 0.9995
vt 15.4706 0.0045 0.8450
vt 22.0690 8.5935 0.0005
vt 9.7986 8.9955 0.1744
vt 5.7607 8.9944 0.2319
vt 15.8121 0.0061 0.9995
vt 7.8353 12.1839 0.0005
vt 0.0079 0.0061 0.9712
vt 79.8615 0.9246 5.9927
vt 81.1901 3.9989 1.7756
vt 77.1180 3.9995 1.7748
vt 72.5287 1.1283 5.7132
vt 39.4924 7.1088 5.4181
vt 4.6453 10.3935 0.9995
vt 0.0055 10.3948 0.9255
vt 0.7668 0.0052 0.0005
vt 11.0645 0.0052 0.0300
vt 14.1414 11.2144 0.9995
vt 0.0074 10.7464 0.8458
vt -0.7441 11.3433 -18.0600
vt -0.5325 11.1890 -48.5843
vt 0.9995 0.0005 0.0006
vt 0.9995 0.9995 0.0666
vt 0.0010 0.9995 0.9995
vt 0.0005 0.0005 0.9334
vt 0.9990 0.0005 0.0005
vt 0.3552 0.5693 0.0771
vt 0.0158 0.5693 0.9995
vt 0.0156 -0.0001 0.9229
vt 0.3550 -0.0001 0.0005
vt 0.6313 -0.1107 0.9956
vt 1.3332 0.4010 0.0012
vt 0.5863 0.9521 0.0005
vt 0.5058 0.9763 0.0258
vt 0.4546 0.9906 0.0493
vt 0.3745 0.9939 0.1071
vt 0.2399 0.9673 0.2328
vt 0.1248 0.9236 0.3593
vt 0.0286 0.8628 0.4871
vt -0.0556 0.7920 0.6150
vt -0.1189 0.7054 0.7414
vt -0.1610 0.6022 0.8670
vt -0.1609 0.5389 0.9241
vt -0.1441 0.4979 0.9511
vt -0.1173 0.4365 0.9995
vt 5.8032 7.8322 38.9052
vt 6.5893 8.4054 37.4771
vt 6.4185 8.5324 37.4739
vt 6.7355 6.8269 39.3108
vt 7.4689 6.6179 38.9051
vt 7.2977 6.7427 38.9051
vt 5.7437 7.5500 39.3108
vt 5.4267 6.6187 40.7589
vt 5.8436 6.3148 40.7589
vt 6.0524 6.3290 40.5516
vt 5.0606 7.0520 40.5516
vt 9.5498 6.2497 37.4739
vt 8.1778 5.5276 39.6196
vt 7.9165 5.3371 40.0943
vt -5.5893 8.4054 37.4771
vt -7.0839 7.3158 37.4771
vt -7.2551 7.1910 37.4771
vt 7.5432 5.6092 40.0943
vt 7.8046 5.7998 39.6195
vt 5.4410 6.0213 41.4902
vt 5.0241 6.3252 41.4902
vt 4.2827 2.4946 -2.9588
vt 2.9606 1.5307 -1.0284
vt 5.4750 3.3637 -4.5903
vt 2.1542 2.2618 -1.1719
vt 0.9688 3.1378 -1.0019
vt 2.1713 2.1187 -1.0352
vt 2.1544 2.3857 -1.2891
vt 2.2001 2.5940 -1.5196
vt 2.3619 2.9475 -1.9731
vt 1.8525 3.7821 -2.2538
vt 2.5906 3.2464 -2.4229
vt 2.8818 3.4962 -2.8713
vt 3.2192 3.7047 -3.3134
vt 4.6857 3.9517 -4.5971
vt 4.5114 3.9802 -4.5112
vt 4.3545 3.9896 -4.4058
vt 4.0859 3.9688 -4.1910
vt 3.6191 3.8641 -3.7540
vt 2.2266 5.4765 -4.2246
vt 0.7953 4.5534 -2.1652
vt 2.1749 6.1498 -4.3948
vt -2.3128 1.3011 3.1391
vt -0.0884 3.9092 -0.9133
vt -2.7833 1.6444 3.1786
vt -2.6482 1.0567 3.6142
vt -1.0175 -1.4540 4.6844
vt 0.6374 -0.1629 2.2626
vt -0.1578 0.4208 2.2642
vt -4.6365 1.1842 4.6844
vt -3.1187 1.3999 3.6537
vt 1.4166 0.4051 1.1588
vt 0.6214 0.9888 1.1605
vt -0.1965 0.4895 2.2151
vt -0.2094 0.5373 2.1811
vt -0.2095 0.6123 2.1126
vt -0.1635 0.7248 1.9753
vt -0.0947 0.8190 1.8376
vt -0.0039 0.8953 1.6997
vt 0.1000 0.9610 1.5617
vt 0.2261 1.0089 1.4234
vt 0.3749 1.0383 1.2848
vt 0.4724 1.0343 1.2153
vt 0.5339 1.0220 1.1804
vt -1.9517 1.5243 -2.8004
vt -1.1617 2.1118 -2.8060
vt -1.1713 2.1187 -1.0352
vt -1.9606 1.5307 -1.0284
vt -4.7281 2.4868 -3.2720
vt -2.9588 2.4946 -3.2827
vt -4.5903 3.3637 -4.4750
vt -6.3623 3.3573 -4.4661
vt 4.6778 3.9460 -6.3703
vt 5.4661 3.3573 -6.3623
vt 4.5018 3.9689 -6.2760
vt 4.3454 3.9834 -6.1778
vt 4.0769 -5.9631 3.9627
vt 4.3454 -6.1778 3.9834
vt 4.3545 -4.4058 3.9896
vt 4.0859 -4.1910 3.9688
vt 3.6101 -5.5260 3.8578
vt 3.6191 -3.7540 3.8641
vt 3.2102 -5.0853 3.6984
vt 3.2192 -3.3134 3.7047
vt 5.1948 3.2401 -1.5816
vt 5.6411 3.4889 -1.8712
vt 3.8713 3.4962 -1.8818
vt 3.4229 3.2464 -1.5906
vt 4.7450 2.9412 -1.3529
vt 2.9731 2.9475 -1.3619
vt 4.2914 2.5878 -1.1909
vt 2.5196 2.5940 -1.2001
vt 4.0610 2.3795 -1.1453
vt 2.2891 2.3857 -1.1544
vt 3.9471 2.2555 -1.1552
vt 2.1719 2.2618 -1.1542
vt 3.8060 2.1118 -1.1617
vt 2.0352 2.1187 -1.1713
vt 0.0410 3.1315 -2.8671
vt 1.0982 3.9028 -2.7785
vt 1.0884 3.9092 -0.9133
vt 0.0312 3.1378 -1.0019
vt -4.1190 3.7757 -0.8427
vt -2.8671 3.1315 0.0410
vt -1.0019 3.1378 0.0312
vt -2.2538 3.7821 -0.8525
vt 0.7855 4.5470 -4.0303
vt 1.8427 3.7757 -4.1190
vt 3.7785 3.9028 1.0982
vt 5.0303 4.5470 0.2145
vt 3.1652 4.5534 0.2047
vt 1.9133 3.9092 1.0884
vt 0.3686 -0.1673 1.0502
vt 1.1654 0.4153 1.0544
vt 1.1578 0.4208 2.2642
vt 0.3626 -0.1629 2.2626
vt -0.0536 0.4008 -0.4105
vt 1.0502 -0.1673 0.3686
vt 2.2626 -0.1629 0.3626
vt 1.1588 0.4051 -0.4166
vt 0.6174 0.9859 -0.0543
vt 1.4105 0.4008 -0.0536
vt 0.5259 1.0134 -0.0244
vt 0.4660 1.0302 0.0029
vt 0.3685 0.0724 1.0341
vt 0.4660 0.0029 1.0302
vt 0.4724 1.2153 1.0343
vt 0.3749 1.2848 1.0383
vt 0.2197 0.2110 1.0047
vt 0.2261 1.4234 1.0089
vt 0.0937 0.3493 0.9569
vt 0.1000 1.5617 0.9610
vt 0.5127 0.8912 1.0103
vt 0.6507 0.9569 0.9063
vt -0.5617 0.9610 0.9000
vt -0.6997 0.8953 1.0039
vt 0.3748 0.8149 1.1011
vt -0.8376 0.8190 1.0947
vt 0.2371 0.7207 1.1699
vt -0.9753 0.7248 1.1635
vt 0.0997 0.6081 1.2159
vt -1.1126 0.6123 1.2095
vt 0.0313 0.5331 1.2158
vt -1.1811 0.5373 1.2094
vt 0.0004 0.4862 1.1965
vt -1.2151 0.4895 1.1965
vt -0.0544 0.4153 1.1654
vt -1.2642 0.4208 1.1578
vt 3.6575 1.0506 1.8423
vt 4.1280 1.3939 1.8817
vt 4.1187 1.3999 3.6537
vt 3.6482 1.0567 3.6142
vt 1.3672 1.2951 3.3222
vt 1.8423 1.0506 3.6575
vt 3.6142 1.0567 3.6482
vt 3.1391 1.3011 3.3128
vt -2.7927 1.6384 1.4067
vt -2.3222 1.2951 1.3672
vt -0.8817 1.3939 4.1280
vt -0.4067 1.6384 3.7927
vt -2.1786 1.6444 3.7833
vt -2.6537 1.3999 4.1187
vt 37.0776 6.8166 -5.7212
vt 38.3184 6.3186 -5.0381
vt 40.5516 6.3290 -5.0524
vt 39.3108 6.8269 -5.7355
vt 5.7294 7.5396 37.0776
vt 6.7212 6.8166 37.0776
vt -37.3184 7.0416 -4.0463
vt -36.0776 7.5396 -4.7294
vt -38.3108 7.5500 -4.7437
vt -39.5516 7.0520 -4.0606
vt -5.0381 6.3186 38.3184
vt -4.0463 7.0416 38.3184
vt -4.0606 7.0520 40.5516
vt -5.0524 6.3290 40.5516
vt 38.9910 6.3065 -4.8323
vt 39.7222 6.0130 -4.4297
vt 41.4902 6.0213 -4.4410
vt 40.7589 6.3148 -4.8436
vt 5.4154 6.6104 38.9910
vt 5.8323 6.3065 38.9910
vt -38.7222 6.3170 -4.0128
vt -37.9910 6.6104 -4.4154
vt -39.7589 6.6187 -4.4267
vt -40.4902 6.3252 -4.0241
vt -4.4297 6.0130 39.7222
vt -4.0128 6.3170 39.7222
vt -4.0241 6.3252 41.4902
vt -4.4410 6.0213 41.4902
vt 36.9211 5.5151 -7.1606
vt 37.3958 5.3246 -6.8992
vt 40.0943 5.3371 -6.9165
vt 39.6196 5.5276 -7.1778
vt 7.7873 5.7872 36.9211
vt 8.1606 5.5151 36.9211
vt -36.3958 5.5967 -6.5260
vt -35.9211 5.7872 -6.7873
vt -38.6195 5.7998 -6.8046
vt -39.0943 5.6092 -6.5432
vt -6.8992 5.3246 37.3958
vt -6.5260 5.5967 37.3958
vt -6.5432 5.6092 40.0943
vt -6.9165 5.3371 40.0943
vt -39.3068 6.4464 -6.7220
vt -37.9051 6.4399 -6.7131
vt -37.8024 6.4811 -6.7696
vt -39.2040 6.4876 -6.7786
vt 0.4321 0.5657 -0.2240
vt 0.7205 0.5657 -0.1929
vt 0.7205 0.8743 -0.1929
vt 0.4321 0.8743 -0.2240
vt 3.1234 0.8292 0.0005
vt 0.0263 0.8278 0.0005
vt 0.0265 0.1708 0.9995
vt 3.1237 0.1722 0.9995
vt 5.9320 7.7634 41.6036
vt 7.3149 6.7552 41.6036
vt -37.9815 6.9783 -7.4516
vt -36.5799 6.9718 -7.4427
vt -36.4771 7.0130 -7.4992
vt -37.8787 7.0195 -7.5082
vt -0.0910 0.7095 0.5657
vt -0.1220 0.4211 0.5657
vt 0.4355 0.3611 0.5657
vt 0.4664 0.6495 0.5657
vt 0.5646 0.6389 0.5657
vt 0.5336 0.3505 0.5657
vt 1.0910 0.2905 0.5657
vt 1.1220 0.5789 0.5657
vt -38.5432 6.7528 -7.1424
vt -38.6422 6.7131 -7.0879
vt -37.2405 6.7066 -7.0790
vt -37.1416 6.7463 -7.1334
vt 0.2905 0.5657 1.0910
vt 0.2905 0.3557 1.0910
vt 0.5789 0.5657 1.1220
vt -0.1929 0.3557 0.7205
vt -0.0910 0.3557 0.7095
vt 0.7205 0.5657 1.1929
vt 0.4321 0.5657 1.2240
vt 0.7205 0.3557 1.1929
vt 0.4321 0.3557 -0.2240
vt 1.1220 0.3557 0.5789
vt 1.2240 0.3557 0.5679
vt 0.5789 0.5657 -0.1220
vt 0.2905 0.5657 -0.0910
vt 0.5789 0.3557 -0.1220
vt 0.6495 0.5657 0.5336
vt 0.3611 0.5657 0.5645
vt 0.6495 0.3557 0.5336
vt 0.3611 0.5657 0.4354
vt 0.3611 0.3557 0.4354
vt 0.6495 0.5657 0.4664
vt 0.4664 0.3557 0.6495
vt 0.5646 0.3557 0.6389
vt 0.4291 0.1257 1.1059
vt 0.5789 0.1257 1.1220
vt 0.4321 0.1257 1.2240
vt 0.5819 0.1257 1.2079
vt 0.5707 0.1257 -0.2091
vt 0.7205 0.1257 -0.1929
vt 0.2905 0.1257 -0.0910
vt 0.4403 0.1257 -0.1071
vt 0.3611 0.1257 0.5645
vt 0.5109 0.1257 0.5485
vt 0.4997 0.1257 0.4503
vt 0.6495 0.1257 0.4664
vt -0.2079 0.1257 0.5819
vt -0.1059 0.1257 0.5709
vt 1.1071 0.1257 0.4403
vt 1.2091 0.1257 0.4293
vt 0.4515 0.1257 0.5109
vt 0.5497 0.1257 0.5003
vt 8.1985 7.1497 37.5799
vt 7.8893 6.9243 38.1416
vt 8.1334 6.7463 38.1416
vt 8.4427 6.9718 37.5799
vt 7.7696 6.4811 38.8024
vt 8.0790 6.7066 38.2405
vt 7.8348 6.8846 38.2405
vt 7.5255 6.6591 38.8024
vt 7.7131 6.4399 38.9051
vt -7.4992 7.0130 37.4771
vt 8.4992 7.0130 37.4771
vt -43.1086 0.2873 4.5024
vt -31.8916 0.2955 4.4911
vt -31.8916 1.1572 5.6731
vt -43.1086 1.1490 5.6844
vt 4.6844 1.1842 5.6365
vt -17.8761 1.1675 5.6590
vt -17.8761 0.3058 4.4770
vt 4.6844 -1.4540 2.0175
vt -71.5287 1.1283 5.7132
vt -71.5287 -1.5100 2.0943
vt -57.1242 0.2770 4.5165
vt -57.1242 1.1387 5.6985
vt 58.1242 1.1387 5.6985
vt 44.1086 1.1490 5.6844
vt 32.8916 1.1572 5.6731
vt 18.8761 1.1675 5.6590
vt -43.1292 0.3399 4.4303
vt -57.1448 0.3296 4.4444
vt 5.6123 1.2016 -43.1292
vt 4.4303 0.3399 -43.1292
vt 4.5024 0.2873 -43.1086
vt 5.6844 1.1490 -43.1086
vt 58.1448 1.1913 5.6264
vt 44.1292 1.2016 5.6123
vt -3.4444 0.3296 -57.1448
vt -4.6264 1.1913 -57.1448
vt -4.6985 1.1387 -57.1242
vt -3.5165 0.2770 -57.1242
vt -17.8967 0.3584 4.4049
vt -31.9123 0.3481 4.4190
vt 5.5869 1.2201 -17.8967
vt 4.4049 0.3584 -17.8967
vt 4.4770 0.3058 -17.8761
vt 5.6590 1.1675 -17.8761
vt 32.9123 1.2098 5.6010
vt 18.8967 1.2201 5.5869
vt -3.4190 0.3481 -31.9123
vt -4.6010 1.2098 -31.9123
vt -4.6731 1.1572 -31.8916
vt -3.4911 0.2955 -31.8916
vt -1.7918 1.2591 0.5000
vt -2.7533 1.2559 0.5000
vt -2.7496 0.1401 0.5000
vt -1.7881 0.1433 0.5000
vt 0.6324 0.1828 0.0000
vt 0.3718 0.1828 0.0000
vt 0.3718 0.0675 0.0000
vt 0.6324 0.0675 0.0000
vt 0.6064 0.1945 0.0000
vt 0.3978 0.1945 0.0000
vt 0.6064 0.4387 0.0000
vt 0.3978 0.4387 0.0000
vt 3.7650 0.6333 0.5000
vt 2.8035 0.6301 0.5000
vt 2.8059 -0.0645 0.5000
vt 3.7673 -0.0613 0.5000
vt 1.1361 0.9849 0.5000
vt 0.0529 0.9757 0.5000
vt 0.0839 0.0151 0.5000
vt 1.1671 0.0243 0.5000
vt 0.8634 6.2643 -8.3057
vt -0.2397 7.0685 -8.3057
vt -0.2977 7.0263 -21.5248
vt 0.2124 7.3981 -8.8694
vt 1.3155 6.5939 -8.8694
vt -0.3155 6.5939 -8.8694
vt 0.8455 7.3559 -22.0885
vt 0.7876 7.3981 -8.8694
vt 0.0005 0.0005 0.9948
vt 0.9979 0.0042 0.0005
vt 0.9995 0.9995 0.0232
vt 0.0016 0.9958 0.9995
vt 3.9268 3.8392 0.0020
vt 3.9980 3.8926 0.3716
vt 3.9341 3.9026 0.0020
vt 3.9341 0.0020 3.9026
vt 3.9980 0.3716 3.8926
vt 3.6905 2.1383 3.9454
vt 3.6911 1.4561 3.9453
vt 3.3842 0.3716 3.9980
vt 3.4481 0.0020 3.9880
vt 3.4481 3.9880 0.0020
vt 3.3842 3.9980 0.3716
vt 3.4408 3.9245 0.0020
vt 2.4334 1.0918 0.9995
vt 2.4472 2.8878 0.0005
vt 0.3992 2.8709 0.0005
vt -0.7632 1.1228 0.9995
vt -0.7762 3.4650 0.0005
vt -0.7944 1.4698 0.9995
vt 2.7478 1.4266 0.9995
vt 1.4140 3.5174 0.0005
vt 3.8561 3.4045 0.0020
vt 3.9261 3.3807 0.3716
vt 3.3088 3.5052 0.3716
vt 3.3829 3.5121 0.0020
vt 1.5364 0.9995 0.4741
vt 1.7191 0.2073 0.4741
vt 1.5364 0.9995 0.0005
vt 0.0013 0.8339 0.0005
vt 0.2242 0.0005 0.4741
vt 0.0009 0.8355 0.4741
vt 4.4020 8.8619 33.3144
vt 3.3440 8.8722 34.6386
vt 3.3283 8.8607 32.6689
vt 3.8824 8.8579 31.9826
vt 4.3863 8.8505 31.3434
vt -2.3440 8.8722 34.6386
vt -2.3581 8.1009 35.9641
vt -2.3424 8.0895 33.9944
vt -2.3354 8.4559 33.3709
vt -2.3283 8.8607 32.6689
vt 1.1718 0.9609 0.7239
vt 0.3640 0.8750 0.7261
vt 0.7686 0.9175 0.9995
vt 0.3653 0.8730 0.1364
vt 1.1727 0.9605 0.1342
vt 0.3787 0.8101 0.1365
vt 1.1861 0.8975 0.1343
vt 0.3774 0.8121 0.7262
vt 1.1853 0.8980 0.7240
vt 1.0331 0.0109 0.0000
vt 1.0323 0.9911 0.0000
vt -0.0331 0.9891 0.0000
vt -0.0322 0.0089 0.0000
vt -1.0391 8.8104 -69.3391
vt -1.4198 9.1047 -70.5083
vt -1.4737 9.0814 -69.5828
vt -1.0931 8.7871 -68.4135
vt 1.4565 9.3352 -60.9652
vt 2.0391 8.8104 -69.3391
vt 2.0931 8.7871 -68.4135
vt 1.5105 9.3119 -60.0396
vt 1.8372 9.6295 -62.1345
vt 1.8911 9.6062 -61.2089
vt -0.8372 9.6295 -62.1345
vt -0.8911 9.6062 -61.2089
vt 1.3716 5.0619 -73.6690
vt 0.9908 5.3584 -74.6651
vt 0.9332 5.3332 -73.4537
vt 1.3140 5.0366 -72.4576
vt -1.0266 5.6007 -66.3624
vt -0.3716 5.0619 -73.6690
vt -0.3140 5.0366 -72.4576
vt -0.9691 5.5754 -65.1510
vt -0.6458 5.8972 -67.3585
vt -0.5882 5.8719 -66.1471
vt 1.6458 5.8972 -67.3585
vt 1.5882 5.8719 -66.1471
vt 5.9575 4.8083 -51.0849
vt 5.5651 5.1019 -51.5207
vt 5.5153 5.0729 -50.3722
vt 5.9077 4.7793 -49.9365
vt -5.6241 5.3240 -43.4865
vt -4.9575 4.8083 -51.0849
vt -4.9077 4.7793 -49.9365
vt -5.5743 5.2950 -42.3380
vt -5.2317 5.6176 -43.9222
vt -5.1819 5.5886 -42.7738
vt 6.2317 5.6176 -43.9222
vt 6.1819 5.5886 -42.7738
vt -1.0528 8.8869 -68.9365
vt -1.3274 9.0992 -69.7801
vt -0.5489 9.3408 -61.6934
vt -0.4565 9.3352 -60.9652
vt -0.8235 9.5531 -62.5370
vt 1.3628 5.1396 -73.3144
vt 1.0880 5.3535 -74.0331
vt 1.9294 5.6056 -66.9945
vt 2.0266 5.6007 -66.3624
vt 1.6546 5.8195 -67.7132
vt 5.9479 4.8840 -50.6326
vt 5.6647 5.0958 -50.9470
vt 6.5244 5.3301 -44.0602
vt 6.6241 5.3240 -43.4865
vt 6.2413 5.5419 -44.3746
vt 0.9995 0.9995 0.9995
vt 0.0005 0.9995 0.0005
vt 0.0005 0.0005 0.0005
vt 0.9995 0.0005 0.9995
vt -2.8905 6.9386 -91.5836
vt -1.9738 6.2704 -88.6603
vt -2.6804 5.7553 -88.6603
vt -3.5971 6.4235 -91.5836
vt 4.6115 6.4341 -90.2962
vt 3.9049 6.9491 -90.2962
vt 3.8905 6.9386 -91.5836
vt 4.5971 6.4235 -91.5836
vt -87.3729 5.7658 -2.6948
vt -90.2962 6.4341 -3.6115
vt -91.5836 6.4235 -3.5971
vt -88.6603 5.7553 -2.6804
vt -1.9882 6.2809 -87.3729
vt -2.6948 5.7658 -87.3729
vt 91.2962 6.9491 -2.9049
vt 88.3729 6.2809 -1.9882
vt 89.6603 6.2704 -1.9738
vt 92.5836 6.9386 -2.8905
vt 8.1011 7.3284 40.1756
vt 6.7182 8.3365 40.1756
vt -5.7182 8.3365 40.1756
vt -7.1011 7.3284 40.1756
vt 0.7205 0.8743 1.1929
vt 0.4321 0.8743 1.2240
vt 0.0005 0.0005 0.0036
vt 0.9977 0.0042 0.9995
vt 0.9995 0.9995 0.9837
vt 0.0017 0.9958 0.0005
vt 2.7589 0.1994 0.9058
vt 2.6851 0.1511 1.2754
vt 2.7483 0.1365 0.9058
vt 1.2517 0.9058 0.1365
vt 1.3149 1.2754 0.1511
vt 1.0107 3.0422 0.0764
vt 1.0114 2.3600 0.0766
vt 0.7079 1.2754 0.0020
vt 0.7710 0.9058 0.0166
vt 3.2290 0.0166 0.9058
vt 3.2921 0.0020 1.2754
vt 3.2396 0.0794 0.9058
vt -0.5965 3.6128 0.9995
vt -0.6438 1.3444 0.0005
vt 2.3770 1.3243 0.0005
vt 4.1175 3.5091 0.9995
vt 3.3386 1.3302 0.0005
vt 3.4103 3.5689 0.9995
vt -0.8934 3.7471 0.9995
vt 0.6755 1.3517 0.0005
vt 2.8523 0.6281 0.9058
vt 2.7837 0.6569 1.2754
vt 3.3934 0.4885 1.2754
vt 3.3190 0.4868 0.9058
vt 0.2616 0.0005 0.4741
vt 0.0009 0.7423 0.4741
vt 0.2616 0.0005 0.0005
vt 1.8385 0.2204 0.0005
vt 1.5325 0.9995 0.4741
vt 1.8391 0.2189 0.4741
vt -0.5220 7.2482 -83.6421
vt -0.5022 8.0152 -85.5041
vt -0.5250 8.0318 -83.5543
vt -0.5319 7.6301 -82.5846
vt -0.5449 7.2648 -81.6910
vt 1.5022 8.0152 -85.5041
vt 2.5543 8.0007 -87.3673
vt 2.5772 8.0174 -85.4176
vt 2.0772 8.0244 -84.5387
vt 1.5250 8.0318 -83.5543
vt 0.6362 0.0520 0.7239
vt 1.4661 0.1666 0.7261
vt 1.0503 0.1097 0.9995
vt 1.4646 0.1684 0.1364
vt 0.6352 0.0524 0.1342
vt 1.4450 0.2274 0.1365
vt 0.6156 0.1114 0.1343
vt 1.4465 0.2256 0.7262
vt 0.6166 0.1110 0.7240
vt 0.0005 0.0005 0.0130
vt 0.9983 0.0042 0.9995
vt 0.9995 0.9995 0.9446
vt 0.0015 0.9958 0.0005
vt 0.0689 0.6345 1.8617
vt 0.0020 0.5740 2.2312
vt 0.0664 0.5705 1.8617
vt 3.9336 1.8617 0.5705
vt 3.9980 2.2312 0.5740
vt 3.6877 3.9980 0.5527
vt 3.6883 3.3158 0.5527
vt 3.3787 2.2312 0.5314
vt 3.4430 1.8617 0.5349
vt 0.5570 0.5349 1.8617
vt 0.6213 0.5314 2.2312
vt 0.5595 0.5988 1.8617
vt -1.1829 3.6159 0.9995
vt -1.0809 1.3008 0.0005
vt 2.0383 1.5093 0.0005
vt 3.6894 3.8675 0.9995
vt 3.1527 1.3898 0.0005
vt 3.1677 3.5732 0.9995
vt -1.0443 3.6031 0.9995
vt 0.5487 1.3217 0.0005
vt 0.1068 1.0747 1.8617
vt 0.0354 1.0912 2.2312
vt 0.6596 1.0300 2.2312
vt 0.5863 1.0155 1.8617
vt 0.0862 0.0005 0.4741
vt 0.0008 0.8754 0.4741
vt 0.0862 0.0005 0.0005
vt 1.6489 0.0770 0.0005
vt 1.5283 0.9995 0.4741
vt 1.6492 0.0753 0.4741
vt 71.1658 3.3060 5.5902
vt 71.7177 4.0808 5.5994
vt 69.7323 4.0847 5.5939
vt 69.4530 3.6790 5.5925
vt 69.1792 3.3099 5.5847
vt -4.5994 -70.7177 4.0808
vt -3.5365 -71.2707 4.0741
vt -3.5311 -69.2855 4.0781
vt -4.0360 -69.0288 4.0815
vt -4.5939 -68.7323 4.0847
vt 0.4573 0.0179 0.7239
vt 1.2795 0.0568 0.7261
vt 0.8677 0.0379 0.9995
vt 1.2784 0.0590 0.1364
vt 0.4564 0.0184 0.1342
vt 1.2727 0.1285 0.1365
vt 0.4507 0.0878 0.1343
vt 1.2738 0.1262 0.7262
vt 0.4516 0.0873 0.7240
vt -2.8004 1.5243 -1.9517
vt -1.0284 1.5307 -1.9606
vt 6.0853 3.6984 -2.2102
vt 4.3134 3.7047 -2.2192
vt 1.3670 0.2428 0.0005
vt 1.3931 0.3278 0.0519
vt 1.4107 0.4082 0.1094
vt 1.3854 0.5471 0.2363
vt 1.2545 0.7939 0.5000
vt 1.0560 1.0048 0.7653
vt 0.8281 1.1610 0.9995
vt -0.3762 0.4480 0.9480
vt 0.6636 -0.1562 0.0058
vt 0.7776 -0.1889 0.9995
vt 1.8372 0.4825 0.0005
vt 0.7119 1.1823 0.0464
vt 0.5003 1.0242 0.2563
vt 0.3095 0.8075 0.4983
vt 0.1739 0.5504 0.7432
vt 0.1364 0.4015 0.8653
vt 0.1445 0.3124 0.9261
vt 0.1495 0.2170 0.9959
vt 1.7337 1.3805 0.0155
vt 2.8396 1.3741 0.0180
vt 2.8971 1.4016 0.0027
vt 1.7159 1.4085 0.0005
vt 1.5966 1.3341 0.0388
vt 1.5624 1.3565 0.0269
vt 1.4725 1.2874 0.0650
vt 1.4320 1.3074 0.0544
vt 1.3025 1.1851 0.1225
vt 1.2543 1.2004 0.1145
vt 1.0688 0.9701 0.2422
vt 1.0153 0.9806 0.2368
vt 0.9380 0.7529 0.3625
vt 0.8811 0.7580 0.3601
vt 0.9054 0.5607 0.4688
vt 0.8429 0.5325 0.4844
vt 2.8396 0.5695 0.4454
vt 2.8971 0.5419 0.4601
vt 2.8396 0.5138 0.4761
vt 2.8396 -0.3804 0.9841
vt 2.8971 -0.4085 0.9995
vt 0.9052 0.5050 0.4995
vt 0.9380 0.3104 0.6062
vt 0.8811 0.3054 0.6093
vt 1.0691 0.0856 0.7292
vt 1.0153 0.0755 0.7352
vt 1.3036 -0.1428 0.8537
vt 1.2542 -0.1573 0.8621
vt 1.4749 -0.2578 0.9158
vt 1.4320 -0.2766 0.9266
vt 1.6040 -0.3137 0.9467
vt 1.5652 -0.3342 0.9584
vt 1.7389 -0.3751 0.9823
vt 1.7159 -0.4028 0.9979
vt 1.1175 0.1629 0.9465
vt 0.1622 0.1639 0.9501
vt 0.1501 0.1270 0.9995
vt 1.1670 0.1259 0.9958
vt 1.1175 0.8328 0.0505
vt 1.1670 0.8695 0.0012
vt 0.1599 0.8371 0.0499
vt 0.1501 0.8741 0.0005
vt 0.0874 0.8145 0.0727
vt 0.0678 0.8484 0.0274
vt 0.0423 0.7994 0.0939
vt 0.0150 0.8308 0.0521
vt -0.0116 0.7634 0.1460
vt -0.0506 0.7869 0.1147
vt -0.0741 0.6817 0.2593
vt -0.1197 0.6966 0.2396
vt -0.1092 0.5982 0.3732
vt -0.1582 0.6052 0.3642
vt -0.1174 0.5125 0.4884
vt -0.1670 0.5126 0.4886
vt -0.1092 0.4260 0.6036
vt -0.1582 0.4193 0.6128
vt -0.0738 0.3391 0.7175
vt -0.1197 0.3248 0.7369
vt -0.0105 0.2515 0.8307
vt -0.0506 0.2292 0.8607
vt 0.0449 0.2101 0.8821
vt 0.0150 0.1801 0.9223
vt 0.0915 0.1913 0.9064
vt 0.0683 0.1586 0.9502
# 787 texture coords

g Lai_30a
usemtl white_plaster
s 8
f 1/1 2/2 3/3 
usemtl window_1
s 16
f 4/4 5/5 6/6 7/7 
usemtl stone_plaster
s 32
f 8/8 9/9 10/10 11/11 12/12 13/13 14/14 15/15 
usemtl xxx
s 64
f 16/16 17/17 18/18 19/19 20/20 
usemtl stone_roof
s off
f 21/21 22/22 23/23 24/24 
s 8
f 25/25 26/26 2/27 19/28 
s 32
f 27/29 28/30 24/31 
usemtl white_plaster
s off
f 29/32 30/33 31/34 32/35 
usemtl xxx
f 19/19 18/18 25/36 
usemtl black_patch
f 26/37 25/38 18/39 3/40 
usemtl white_plaster
f 3/41 2/42 26/43 
s 8
f 1/1 3/3 33/44 34/45 
usemtl black_patch
s off
f 24/46 23/47 30/48 29/49 
f 27/50 24/46 29/49 35/51 
usemtl xxx
f 35/52 28/53 27/54 
usemtl stone_roof
f 24/31 28/30 36/55 
f 36/56 37/57 21/21 24/24 
usemtl black_patch
f 21/58 38/59 39/60 22/61 
usemtl stone_roof
f 38/62 21/63 37/64 40/65 41/66 
f 38/67 41/68 42/69 
usemtl black_patch
f 42/70 43/71 2/72 1/73 
usemtl white_plaster
f 40/74 2/72 43/71 
usemtl stone_roof
f 41/75 40/76 43/77 42/78 
s 1
f 40/79 37/80 2/27 
usemtl xxx
s off
f 20/20 36/81 28/53 
f 20/20 19/19 37/82 36/81 
usemtl window_1
s 32
f 44/5 45/6 46/7 47/4 
usemtl window_4
f 48/5 49/6 50/7 51/4 
f 52/5 53/6 54/83 55/4 
usemtl window_1
s 1
f 56/84 57/85 58/86 59/87 
usemtl window_3
f 60/88 61/89 62/90 63/91 
usemtl wood_siding
f 64/92 65/93 66/94 67/95 68/96 69/97 70/98 71/99 72/100 73/101 74/102 75/103 76/104 77/105 78/106 
usemtl white_plaster
s off
f 79/107 80/108 35/109 29/32 
f 81/110 82/111 83/112 79/107 84/113 
f 85/114 86/115 87/116 88/117 
f 16/118 89/119 90/120 32/35 
usemtl xxx
f 35/52 20/20 28/53 
f 80/121 20/20 35/52 
f 20/20 80/121 91/122 92/123 
usemtl white_plaster
f 88/117 84/113 79/107 29/32 
f 82/111 81/110 87/116 93/124 94/125 
f 90/120 93/124 87/116 86/115 95/126 32/35 
f 88/117 29/32 96/127 85/114 
f 95/126 96/127 29/32 32/35 
f 97/128 98/129 31/34 99/130 
f 100/131 101/132 102/133 
f 100/131 103/134 101/132 
f 101/132 103/134 104/135 
f 105/136 101/132 104/135 
f 106/137 101/132 105/136 
f 105/136 107/138 106/137 
f 107/138 108/139 106/137 
f 108/139 109/140 106/137 
f 110/141 99/130 31/34 30/33 
f 30/33 111/142 110/141 
f 112/143 111/142 30/33 
f 30/33 113/144 112/143 
f 114/145 113/144 30/33 
f 30/33 109/140 114/145 
f 30/33 23/146 109/140 
f 23/146 106/137 109/140 
f 23/146 115/147 106/137 
f 23/146 22/148 115/147 
f 116/149 101/132 117/150 118/151 
f 119/152 120/153 121/154 122/155 116/149 
f 39/156 120/153 119/152 123/157 
f 22/148 39/156 123/157 118/151 117/150 115/147 
f 120/153 31/34 98/129 124/158 121/154 
f 125/159 124/158 98/129 102/133 
f 122/155 126/160 116/149 
f 126/160 127/161 116/149 
f 127/161 128/162 116/149 
f 116/149 128/162 129/163 
f 129/163 130/164 116/149 
f 116/149 130/164 131/165 
f 131/165 132/166 116/149 
f 132/166 133/167 116/149 
f 133/167 101/132 116/149 
f 133/167 134/168 101/132 
f 134/168 135/169 101/132 
f 135/169 136/170 101/132 
f 136/170 102/133 101/132 
f 102/133 136/170 125/159 
f 137/171 138/172 102/173 98/174 
f 139/175 97/176 99/177 140/178 
f 141/179 140/180 99/130 110/141 
f 142/181 141/179 110/141 111/142 
f 143/182 142/181 111/142 112/143 
f 144/183 143/184 112/185 113/186 
f 145/187 144/183 113/186 114/188 
f 146/189 145/187 114/188 109/190 
f 147/191 148/192 108/193 107/194 
f 149/195 147/191 107/194 105/196 
f 150/197 149/195 105/196 104/198 
f 151/199 150/197 104/198 103/200 
f 152/201 151/199 103/200 100/202 
f 138/203 152/201 100/202 102/204 
f 58/205 57/206 117/207 101/208 
f 59/209 58/210 101/211 106/212 
f 56/213 59/214 106/137 115/147 
f 57/215 56/216 115/217 117/218 
f 153/219 154/220 122/221 121/222 
f 155/223 153/224 121/225 124/226 
f 156/227 155/228 124/158 125/159 
f 157/229 156/227 125/159 136/170 
f 158/230 157/229 136/170 135/169 
f 159/231 158/232 135/233 134/234 
f 160/235 159/231 134/234 133/236 
f 161/237 160/235 133/236 132/238 
f 162/239 161/240 132/241 131/242 
f 163/243 162/239 131/242 130/244 
f 164/245 163/243 130/244 129/246 
f 165/247 164/245 129/246 128/248 
f 166/249 165/247 128/248 127/250 
f 167/251 166/249 127/250 126/252 
f 154/253 167/251 126/252 122/254 
f 62/255 61/256 123/257 119/258 
f 63/259 62/260 119/261 116/262 
f 60/263 63/264 116/149 118/151 
f 61/265 60/266 118/267 123/268 
f 46/269 45/270 87/271 81/272 
f 47/273 46/274 81/110 84/113 
f 44/275 47/276 84/277 88/278 
f 45/279 44/280 88/281 87/282 
f 50/283 49/284 95/285 86/286 
f 51/287 50/288 86/115 85/114 
f 48/289 51/290 85/291 96/292 
f 49/293 48/294 96/295 95/296 
f 54/297 53/298 90/299 89/300 
f 55/301 54/302 89/119 94/125 
f 52/303 55/304 94/305 93/306 
f 53/307 52/308 93/309 90/310 
usemtl stone_plaster
f 168/311 169/312 170/313 171/314 
f 15/315 92/316 91/317 8/318 
usemtl stone_roof
f 172/319 173/320 80/321 79/322 
usemtl white_plaster
f 172/323 79/107 83/112 9/324 
usemtl stone_plaster
f 174/325 175/326 176/327 177/328 
f 11/329 178/330 179/331 12/332 
f 13/333 180/334 181/335 14/336 
f 182/337 183/338 184/339 185/340 
f 11/341 186/342 178/343 
f 187/344 186/345 11/11 10/10 
f 10/346 82/347 187/348 
f 15/315 188/349 92/316 
f 189/350 188/351 15/15 14/14 
f 14/352 181/353 189/354 
f 12/355 179/356 190/357 
f 13/358 191/359 180/360 
f 190/361 191/362 13/13 12/12 
f 171/363 170/364 178/343 186/342 
f 169/365 168/366 187/348 82/347 
f 177/367 176/368 92/316 188/349 
f 175/369 174/370 189/354 181/353 
f 184/371 183/372 190/357 179/356 
f 182/373 185/374 180/360 191/359 
f 187/344 168/375 171/376 186/345 
f 189/350 174/377 177/378 188/351 
f 190/361 183/379 182/380 191/362 
usemtl white_plaster
s 1
f 181/381 180/382 185/383 175/384 
f 170/385 184/386 179/387 178/388 
s off
f 82/111 94/125 169/389 
usemtl xxx
f 92/123 176/390 20/20 
f 176/390 16/16 20/20 
usemtl white_plaster
f 175/384 16/118 176/391 
f 175/384 185/383 16/118 
f 185/383 184/386 16/118 
f 170/385 16/118 184/386 
f 170/385 169/389 16/118 
f 169/389 94/125 16/118 
f 94/125 89/119 16/118 
usemtl window_1
s 16
f 192/4 193/5 194/6 195/7 
usemtl white_plaster
s 1
f 196/392 197/393 198/394 199/395 
f 39/396 200/397 201/398 120/399 
f 1/400 34/401 202/402 203/403 
s off
f 34/401 120/399 197/393 196/392 
usemtl black_patch
f 38/59 42/70 1/73 203/404 199/405 198/406 200/407 39/60 
usemtl white_plaster
f 120/399 201/398 197/393 
f 196/392 202/402 34/401 
f 7/408 6/409 202/402 196/392 
f 4/410 7/411 196/412 199/413 
f 5/414 4/415 199/405 203/404 
f 6/416 5/417 203/418 202/419 
f 195/420 194/421 197/393 201/398 
f 192/422 195/423 201/424 200/425 
f 193/426 192/427 200/407 198/406 
f 194/428 193/429 198/430 197/431 
usemtl tin_roof
s 4
f 204/432 205/433 206/434 207/435 
usemtl patches
s 8
f 208/436 209/437 210/438 211/439 
s 16
f 212/436 208/437 211/438 213/439 
s 32
f 214/436 212/437 213/438 215/439 
s 64
f 209/436 214/437 215/438 210/439 
s off
f 216/440 217/441 209/437 208/436 
f 218/440 216/441 208/437 212/436 
f 219/440 218/441 212/437 214/436 
f 217/440 219/441 214/437 209/436 
f 207/442 206/443 217/441 216/440 
f 204/442 207/443 216/441 218/440 
f 205/442 204/443 218/441 219/440 
f 206/442 205/443 219/441 217/440 
usemtl tin_roof
s 4
f 220/444 221/445 222/446 223/447 
usemtl patches
s 8
f 224/436 225/437 226/438 227/439 
s 16
f 228/436 224/437 227/438 229/439 
s 32
f 230/436 228/437 229/438 231/439 
s 64
f 225/436 230/437 231/438 226/439 
s off
f 232/440 233/441 225/437 224/436 
f 234/440 232/441 224/437 228/436 
f 235/440 234/441 228/437 230/436 
f 233/440 235/441 230/437 225/436 
f 223/442 222/443 233/441 232/440 
f 220/442 223/443 232/441 234/440 
f 221/442 220/443 234/441 235/440 
f 222/442 221/443 235/441 233/440 
usemtl stone_roof
s 4
f 236/448 237/449 238/450 239/451 
usemtl white_plaster
s 16
f 240/452 236/453 239/454 
s 32
f 237/455 236/453 240/452 241/456 
s 64
f 241/457 238/458 237/459 
usemtl window_2
s 1
f 242/460 243/461 244/462 245/463 
usemtl orange_plaster
s 2
f 246/464 247/465 248/466 
s 4
f 248/467 247/468 249/469 250/470 
f 250/470 249/469 251/471 252/472 
s 8
f 252/473 251/474 253/475 
usemtl stone_roof
s 1
f 249/476 247/477 254/478 255/479 
s 2
f 251/480 249/481 255/482 256/483 
usemtl orange_plaster
f 247/465 246/464 257/484 254/485 
s 8
f 253/475 251/474 256/486 258/487 
usemtl wood_siding
s 4
f 253/488 258/489 259/490 
f 260/491 257/492 246/493 
usemtl black_patch
s off
f 248/494 250/495 261/496 262/497 246/498 
f 250/499 252/500 253/501 263/502 261/503 
usemtl wood_siding
f 263/504 262/505 261/506 
f 264/507 265/508 259/490 260/491 
f 253/488 259/490 265/508 
f 265/508 263/504 253/488 
f 264/507 246/493 262/505 
f 260/491 246/493 264/507 
f 243/509 242/510 265/508 264/507 
f 244/511 243/509 264/507 262/505 
f 245/512 244/511 262/505 263/504 
f 242/510 245/512 263/504 265/508 
usemtl window_5
s 4
f 266/513 267/514 268/515 269/516 
usemtl wood_siding
s 8
f 270/517 271/518 272/519 273/520 
s 16
f 274/521 270/522 273/523 275/524 
s 32
f 276/525 274/521 275/524 277/526 
s 64
f 271/518 276/527 277/528 272/519 
usemtl window_5
s 4
f 278/513 279/514 280/515 281/516 
usemtl wood_siding
s 8
f 282/529 283/530 284/531 285/532 
s 16
f 286/533 282/534 285/535 287/536 
s 32
f 288/537 286/533 287/536 289/538 
s 64
f 283/530 288/539 289/540 284/531 
usemtl window_5
s 4
f 290/513 291/514 292/515 293/516 
usemtl wood_siding
s 8
f 294/541 295/542 296/543 297/544 
s 16
f 298/545 294/546 297/547 299/548 
s 32
f 300/549 298/545 299/548 301/550 
s 64
f 295/542 300/551 301/552 296/543 
s off
f 269/553 268/554 271/518 270/517 
f 266/555 269/553 270/517 274/556 
f 267/557 266/555 274/556 276/527 
f 268/554 267/557 276/527 271/518 
f 281/558 280/559 283/530 282/529 
f 278/560 281/558 282/529 286/561 
f 279/562 278/560 286/561 288/539 
f 280/559 279/562 288/539 283/530 
f 293/563 292/564 295/542 294/541 
f 290/565 293/563 294/541 298/566 
f 291/567 290/565 298/566 300/551 
f 292/564 291/567 300/551 295/542 
usemtl window_3
s 1
f 302/568 303/569 304/570 305/571 
usemtl white_plaster
s 2
f 18/18 306/572 307/573 3/3 
s 4
f 3/3 307/573 308/574 33/44 
f 18/18 17/17 309/575 306/572 
s off
f 17/17 33/44 308/574 309/575 
f 304/576 303/577 306/578 309/579 
f 305/580 304/581 309/582 308/583 
f 302/584 305/585 308/574 307/573 
f 303/586 302/587 307/588 306/589 
usemtl stone_roof
s 1
f 37/80 19/28 2/27 
usemtl white_plaster
s 32
f 9/324 8/590 173/591 172/323 
s off
f 173/592 8/593 91/122 80/121 
usemtl stone_plaster
f 9/594 83/595 82/347 10/346 
usemtl window_2
s 1
f 310/596 311/597 312/598 313/599 
usemtl orange_plaster
s 2
f 314/600 315/601 316/602 
s 4
f 316/603 315/604 317/605 318/606 
f 318/606 317/605 319/607 320/608 
s 8
f 320/609 319/610 321/611 
usemtl stone_roof
s 1
f 317/612 315/613 322/614 323/615 
s 2
f 319/616 317/617 323/618 324/619 
usemtl orange_plaster
f 315/601 314/600 325/620 322/621 
s 8
f 321/611 319/610 324/622 326/623 
usemtl wood_siding
s 4
f 321/624 326/625 327/626 
f 328/627 325/628 314/629 
usemtl black_patch
s off
f 316/630 318/631 329/632 330/633 314/634 
f 318/635 320/636 321/637 331/638 329/639 
usemtl wood_siding
f 331/640 330/641 329/642 
f 332/643 333/644 327/626 328/627 
f 321/624 327/626 333/644 
f 333/644 331/640 321/624 
f 332/643 314/629 330/641 
f 328/627 314/629 332/643 
f 311/645 310/646 333/644 332/643 
f 312/647 311/645 332/643 330/641 
f 313/648 312/647 330/641 331/640 
f 310/646 313/648 331/640 333/644 
usemtl window_2
s 1
f 334/649 335/650 336/651 337/652 
usemtl orange_plaster
s 2
f 338/653 339/654 340/655 
s 4
f 340/656 339/657 341/658 342/659 
f 342/659 341/658 343/660 344/661 
s 8
f 344/662 343/663 345/664 
usemtl stone_roof
s 1
f 341/665 339/666 346/667 347/668 
s 2
f 343/669 341/670 347/671 348/672 
usemtl orange_plaster
f 339/654 338/653 349/673 346/674 
s 8
f 345/664 343/663 348/675 350/676 
usemtl wood_siding
s 4
f 345/677 350/678 351/679 
f 352/680 349/681 338/682 
usemtl black_patch
s off
f 340/683 342/684 353/685 354/686 338/687 
f 342/688 344/689 345/690 355/691 353/692 
usemtl wood_siding
f 355/693 354/694 353/695 
f 356/696 357/697 351/679 352/680 
f 345/677 351/679 357/697 
f 357/697 355/693 345/677 
f 356/696 338/682 354/694 
f 352/680 338/682 356/696 
f 335/698 334/699 357/697 356/696 
f 336/700 335/698 356/696 354/694 
f 337/701 336/700 354/694 355/693 
f 334/699 337/701 355/693 357/697 
usemtl white_plaster
f 97/176 139/175 137/702 98/703 
f 148/192 146/704 109/705 108/193 
usemtl wood_siding
f 358/706 359/707 360/708 361/709 362/710 363/711 364/712 365/713 366/714 
f 367/715 368/716 369/717 370/718 371/719 372/720 373/721 374/722 375/723 
usemtl Standard_5
f 358/724 366/725 140/726 141/727 
f 359/728 358/724 141/727 142/729 
f 360/730 359/728 142/729 143/731 
f 361/732 360/730 143/731 144/733 
f 362/734 361/732 144/733 145/735 
f 363/736 362/734 145/735 146/737 
f 364/738 363/736 146/737 148/739 
f 365/740 364/738 148/739 139/741 
f 366/725 365/740 139/741 140/726 
f 368/742 367/743 137/744 139/741 
f 369/745 368/742 139/741 148/739 
f 370/746 369/745 148/739 147/747 
f 371/748 370/746 147/747 149/749 
f 372/750 371/748 149/749 150/751 
f 373/752 372/750 150/751 151/753 
f 374/754 373/752 151/753 152/755 
f 375/756 374/754 152/755 138/757 
f 367/743 375/756 138/757 137/744 
f 64/758 78/759 154/760 153/761 
f 65/762 64/758 153/761 155/763 
f 66/764 65/762 155/763 156/765 
f 67/766 66/764 156/765 157/767 
f 68/768 67/766 157/767 158/769 
f 69/770 68/768 158/769 159/771 
f 70/772 69/770 159/771 160/773 
f 71/774 70/772 160/773 161/775 
f 72/776 71/774 161/775 162/777 
f 73/778 72/776 162/777 163/779 
f 74/780 73/778 163/779 164/781 
f 75/782 74/780 164/781 165/783 
f 76/784 75/782 165/783 166/785 
f 77/786 76/784 166/785 167/787 
f 78/759 77/786 167/787 154/760 
# 271 polygons - 91 triangles

