# 3ds Max Wavefront OBJ Exporter v0.97b - (c)2007 guruware
# File Created: 03.11.2011 09:21:54

mtllib Aia_22e-origo.mtl

#
# object Aia_22e
#

v  542556.252106 6589438.274231 8.454762
v  542556.251831 6589438.274231 9.004373
v  542558.559631 6589438.261963 9.010849
v  542558.560608 6589438.261932 8.420660
v  542551.472443 6589438.299652 8.960766
v  542551.472504 6589438.299652 8.493704
v  542550.665253 6589438.303955 8.494371
v  542550.665649 6589438.303955 8.961982
v  542551.777283 6589438.298035 8.991141
v  542552.526855 6589438.294037 8.986589
v  542552.526794 6589438.294037 8.502604
v  542551.771149 6589438.298065 8.499409
v  542553.026184 6589438.059998 9.925009
v  542556.126038 6589438.059998 9.925009
v  542553.026184 6589438.595795 9.925009
v  542556.126038 6589438.595795 9.925009
v  542553.495667 6589438.595795 9.925009
v  542555.594788 6589438.595795 9.925009
v  542555.594788 6589438.308899 8.777020
v  542553.495667 6589438.308899 8.777020
v  542553.495667 6589438.308899 6.223824
v  542555.594788 6589438.308899 6.223824
v  542556.126038 6589438.595795 9.850592
v  542556.126038 6589438.059998 9.850592
v  542555.594788 6589438.059998 9.850595
v  542553.495667 6589438.059998 9.850595
v  542553.026184 6589438.059998 9.850592
v  542553.026184 6589438.595795 9.850592
v  542555.669189 6589438.059998 9.925009
v  542555.594788 6589438.059967 9.925009
v  542553.495667 6589438.059967 9.925009
v  542553.421265 6589438.059998 9.925009
v  542549.597198 6589444.630188 9.772473
v  542558.883514 6589444.580505 9.899405
v  542549.619415 6589444.630188 4.913960
v  542558.883514 6589444.580505 4.913960
v  542549.583008 6589444.931335 9.772473
v  542549.581879 6589444.931335 9.891006
v  542549.879303 6589438.718964 10.061728
v  542549.872345 6589438.718964 11.045713
v  542558.852051 6589438.668793 11.045713
v  542549.892029 6589438.310577 11.045713
v  542558.849976 6589438.260406 11.045713
v  542549.924133 6589438.310577 6.185464
v  542558.849976 6589438.260406 6.185464
v  542558.434235 6589438.262604 6.185464
v  542558.434235 6589438.262604 11.045713
v  542558.436432 6589438.670959 11.045713
v  542558.436523 6589438.670959 10.061728
v  542558.480011 6589444.88385 9.891006
v  542558.480011 6589444.88385 9.772473
v  542558.478241 6589444.582703 9.772473
v  542558.467773 6589444.582703 4.913960
v  542558.478394 6589444.578186 9.899405
v  542558.883606 6589444.613159 11.067732
v  542558.478394 6589444.61084 11.067732
v  542549.903381 6589438.310577 9.333466
v  542553.123199 6589438.290863 9.316893
v  542553.21402 6589438.290375 6.185464
v  542551.209045 6589438.301056 9.325458
v  542551.515686 6589438.2995 9.324085
v  542550.739014 6589438.303558 9.327560
v  542555.789185 6589438.276764 9.050592
v  542555.822266 6589438.27652 8.133636
v  542555.892487 6589438.276215 6.185464
v  542558.849976 6589438.260406 4.893037
v  542549.924133 6589438.310577 4.893037
v  542558.434235 6589438.262604 4.893037
v  542555.892487 6589438.276215 4.893037
v  542553.21402 6589438.290375 4.893037
v  542550.279266 6589438.716675 11.045713
v  542550.279266 6589438.716675 10.061728
v  542549.667664 6589443.141022 9.939451
v  542549.661346 6589443.141022 10.923437
v  542550.066254 6589443.166199 10.923437
v  542550.066254 6589443.166199 9.939451
v  542553.026184 6589438.595795 6.223824
v  542556.126038 6589438.595795 6.223824
v  542553.026184 6589438.059998 6.223824
v  542556.126038 6589438.059998 6.223824
v  542553.495667 6589438.595795 6.223824
v  542553.495667 6589438.059998 6.223824
v  542555.594788 6589438.595795 6.223824
v  542555.594788 6589438.059998 6.223824
v  542553.495667 6589438.059998 8.777020
v  542553.026184 6589438.059998 8.777020
v  542553.026184 6589438.595795 8.777020
v  542556.126038 6589438.595795 8.777020
v  542556.126038 6589438.059998 8.777020
v  542555.594788 6589438.059998 8.777020
v  542554.592133 6589438.059998 10.739514
v  542554.498322 6589438.059998 10.739514
v  542554.715393 6589438.059998 10.731435
v  542554.834167 6589438.059998 10.707812
v  542554.948822 6589438.059998 10.668892
v  542555.057404 6589438.059998 10.615341
v  542555.158051 6589438.059998 10.548074
v  542555.249084 6589438.059998 10.468236
v  542555.328949 6589438.059998 10.377199
v  542555.39621 6589438.059998 10.276526
v  542555.449738 6589438.059998 10.167933
v  542555.488678 6589438.059998 10.053272
v  542555.520386 6589438.059998 9.925009
v  542553.570068 6589438.059998 9.925009
v  542553.601776 6589438.059998 10.053272
v  542553.640717 6589438.059998 10.167933
v  542553.694244 6589438.059998 10.276526
v  542553.761505 6589438.059998 10.377199
v  542553.84137 6589438.059998 10.468236
v  542553.932404 6589438.059998 10.548074
v  542554.033051 6589438.059998 10.615341
v  542554.141632 6589438.059998 10.668892
v  542554.256287 6589438.059998 10.707812
v  542554.375061 6589438.059998 10.731435
v  542553.026184 6589438.059998 4.931397
v  542553.495667 6589438.059998 4.931397
v  542556.126038 6589438.059998 4.931397
v  542556.126038 6589438.595795 4.931397
v  542553.026184 6589438.595795 4.931397
v  542555.594788 6589438.059998 4.931397
v  542554.594574 6589438.595795 10.813924
v  542554.725128 6589438.595795 10.805367
v  542554.853455 6589438.595795 10.779841
v  542554.977356 6589438.595795 10.737785
v  542555.094696 6589438.595795 10.679918
v  542555.203461 6589438.595795 10.607230
v  542555.301819 6589438.595795 10.520964
v  542555.388092 6589438.595795 10.422596
v  542555.460785 6589438.595795 10.313811
v  542555.518646 6589438.595795 10.196468
v  542555.560699 6589438.595795 10.072577
v  542555.586243 6589438.595795 9.964725
v  542553.504211 6589438.595795 9.964725
v  542553.529755 6589438.595795 10.072577
v  542553.571808 6589438.595795 10.196468
v  542553.629669 6589438.595795 10.313811
v  542553.702362 6589438.595795 10.422596
v  542553.788635 6589438.595795 10.520964
v  542553.886993 6589438.595795 10.607230
v  542553.995758 6589438.595795 10.679918
v  542554.113098 6589438.595795 10.737785
v  542554.237 6589438.595795 10.779841
v  542554.365326 6589438.595795 10.805367
v  542554.49588 6589438.595795 10.813924
v  542554.594574 6589438.059998 10.813924
v  542554.49588 6589438.059998 10.813924
v  542554.725128 6589438.059998 10.805367
v  542554.853455 6589438.059998 10.779841
v  542554.977356 6589438.059998 10.737785
v  542555.094696 6589438.059998 10.679918
v  542555.203461 6589438.059998 10.607230
v  542555.301819 6589438.059998 10.520964
v  542555.388092 6589438.059998 10.422596
v  542555.460785 6589438.059998 10.313811
v  542555.518646 6589438.059998 10.196468
v  542555.560699 6589438.059998 10.072577
v  542555.586243 6589438.059998 9.947099
v  542553.504211 6589438.059998 9.947099
v  542553.529755 6589438.059998 10.072577
v  542553.571808 6589438.059998 10.196468
v  542553.629669 6589438.059998 10.313811
v  542553.702362 6589438.059998 10.422596
v  542553.788635 6589438.059998 10.520964
v  542553.886993 6589438.059998 10.607230
v  542553.995758 6589438.059998 10.679918
v  542554.113098 6589438.059998 10.737785
v  542554.237 6589438.059998 10.779841
v  542554.365326 6589438.059998 10.805367
# 168 vertices

vn -0.005330 -0.999986 0.000005
vn -0.005330 -0.999986 0.000005
vn -0.005330 -0.999986 0.000005
vn -0.005333 -0.999986 -0.000001
vn -0.005333 -0.999986 -0.000001
vn -0.005333 -0.999986 -0.000001
vn -0.005331 -0.999986 0.000001
vn -0.005331 -0.999986 0.000001
vn -0.005331 -0.999986 0.000001
vn -0.005333 -0.999986 0.000004
vn -0.005333 -0.999986 0.000004
vn -0.005333 -0.999986 0.000004
vn -0.005327 -0.999986 0.000043
vn -0.005327 -0.999986 0.000043
vn -0.005327 -0.999986 0.000043
vn -0.005316 -0.999986 -0.000003
vn -0.005316 -0.999986 -0.000003
vn -0.005316 -0.999986 -0.000003
vn 0.000000 0.000000 1.000000
vn 0.000000 0.000000 1.000000
vn 0.000000 0.000000 1.000000
vn 0.000000 0.000000 1.000000
vn 0.000000 0.000000 1.000000
vn 0.000000 0.000000 1.000000
vn 0.000000 0.000000 1.000000
vn 0.000000 0.000000 1.000000
vn 0.000000 0.000000 1.000000
vn 0.000000 -1.000000 0.000000
vn 0.000000 -1.000000 0.000000
vn 0.000000 -1.000000 0.000000
vn 0.000000 -1.000000 0.000000
vn 0.000000 -1.000000 0.000000
vn 0.000000 -1.000000 0.000000
vn 1.000000 0.000000 0.000000
vn 1.000000 0.000000 0.000000
vn 1.000000 0.000000 0.000000
vn 1.000000 0.000000 0.000000
vn 1.000000 0.000000 0.000000
vn 1.000000 0.000000 0.000000
vn 0.000000 -1.000000 0.000000
vn 0.000000 -1.000000 0.000000
vn 0.000000 -1.000000 -0.000474
vn 0.000000 -1.000000 -0.000474
vn 0.000000 -1.000000 -0.000474
vn 0.000000 -1.000000 0.000000
vn -1.000000 0.000000 0.000000
vn -1.000000 0.000000 0.000000
vn -1.000000 0.000000 0.000000
vn -1.000000 0.000000 0.000000
vn -1.000000 0.000000 0.000000
vn -1.000000 0.000000 0.000000
vn 0.000000 -1.000000 0.000000
vn 0.000000 -1.000000 0.000000
vn 0.000000 -1.000000 0.000000
vn 0.000000 -1.000000 0.000000
vn 0.000000 -1.000000 0.000000
vn 0.000000 -1.000000 0.000000
vn 0.000000 0.000000 1.000000
vn 0.000000 0.000000 1.000000
vn 0.000000 0.000000 1.000000
vn 0.000000 0.000000 1.000000
vn 0.000000 0.000000 1.000000
vn 0.000000 0.000000 1.000000
vn 0.000000 0.000000 1.000000
vn 0.000000 0.000000 1.000000
vn 0.000000 0.000000 1.000000
vn 0.000410 -1.000000 -0.000410
vn 0.000000 -1.000000 0.000000
vn 0.000410 -1.000000 -0.000410
vn -0.000410 -1.000000 -0.000410
vn -0.000410 -1.000000 -0.000410
vn 0.000000 -1.000000 0.000000
vn 0.005366 0.999986 -0.000012
vn 0.005366 0.999986 -0.000012
vn 0.005366 0.999986 -0.000012
vn 0.005347 0.999986 0.000024
vn 0.005347 0.999986 0.000024
vn 0.005347 0.999986 0.000024
vn 0.000000 0.000000 -1.000000
vn 0.000000 0.000000 -1.000000
vn 0.000000 0.000000 -1.000000
vn 0.000000 0.000000 -1.000000
vn 0.000000 0.000000 -1.000000
vn 0.000000 0.000000 -1.000000
vn 0.005336 0.999986 0.000051
vn 0.005336 0.999986 0.000051
vn 0.005336 0.999986 0.000051
vn 0.005337 0.999986 0.000000
vn 0.005337 0.999986 0.000000
vn 0.005337 0.999986 0.000000
vn -0.062060 0.998072 -0.000398
vn -0.062060 0.998072 -0.000398
vn -0.062060 0.998072 -0.000398
vn 0.005604 0.999984 0.000001
vn 0.005604 0.999984 0.000001
vn 0.005604 0.999984 0.000001
vn 0.000000 0.000000 1.000000
vn 0.000000 0.000000 1.000000
vn 0.000000 0.000000 1.000000
vn 0.000000 0.000000 1.000000
vn 0.000000 0.000000 1.000000
vn 0.000000 0.000000 1.000000
vn 0.000000 0.000000 1.000000
vn 0.000000 0.000000 1.000000
vn 0.000000 0.000000 1.000000
vn 0.000000 0.000000 1.000000
vn 0.000000 0.000000 1.000000
vn 0.000000 0.000000 1.000000
vn 0.000021 -0.003707 0.999993
vn 0.000021 -0.003707 0.999993
vn 0.000021 -0.003707 0.999993
vn -0.000019 -0.003704 0.999993
vn -0.000019 -0.003704 0.999993
vn -0.000019 -0.003704 0.999993
vn 0.005285 0.999986 0.000000
vn 0.005285 0.999986 0.000000
vn 0.005285 0.999986 0.000000
vn 0.005425 0.999985 -0.000012
vn 0.005425 0.999985 -0.000012
vn 0.005425 0.999985 -0.000012
vn -0.005721 0.999351 0.035567
vn -0.005721 0.999351 0.035567
vn -0.005721 0.999351 0.035567
vn 0.999983 -0.005877 0.000000
vn 0.999983 -0.005877 0.000000
vn 0.999983 -0.005877 0.000000
vn 0.999985 -0.005330 -0.001392
vn 0.999985 -0.005330 -0.001392
vn 0.999985 -0.005330 -0.001392
vn -0.005721 0.999593 -0.027938
vn -0.005721 0.999593 -0.027938
vn -0.005721 0.999593 -0.027938
vn -0.005723 0.999593 -0.027937
vn -0.005723 0.999593 -0.027937
vn -0.005723 0.999593 -0.027937
vn -0.999975 0.007065 -0.000093
vn -0.999975 0.007065 -0.000093
vn -0.999975 0.007065 -0.000093
vn -0.999975 0.007082 -0.000198
vn -0.999975 0.007082 -0.000198
vn -0.999975 0.007082 -0.000198
vn 0.999986 -0.005309 0.000070
vn 0.999986 -0.005309 0.000070
vn 0.999986 -0.005309 0.000070
vn 0.999986 -0.005081 0.001242
vn 0.999986 -0.005081 0.001242
vn 0.999986 -0.005081 0.001242
vn 0.999986 -0.005307 0.000000
vn 0.999986 -0.005307 0.000000
vn 0.999986 -0.005307 0.000000
vn 0.999986 -0.005307 0.000000
vn 0.999986 -0.005307 0.000000
vn 0.999986 -0.005307 0.000000
vn -0.998796 -0.048116 -0.009515
vn -0.998796 -0.048116 -0.009515
vn -0.998796 -0.048116 -0.009515
vn -0.998816 -0.047066 0.012278
vn -0.998816 -0.047066 0.012278
vn -0.998816 -0.047066 0.012278
vn -0.998784 -0.049078 -0.004567
vn -0.998784 -0.049078 -0.004567
vn -0.998785 -0.049078 -0.004567
vn -0.998829 -0.047935 -0.006584
vn -0.998829 -0.047935 -0.006584
vn -0.998829 -0.047936 -0.006584
vn -0.998830 -0.047967 -0.006125
vn -0.998830 -0.047967 -0.006125
vn -0.998830 -0.047967 -0.006125
vn -0.998869 -0.047083 -0.006623
vn -0.998869 -0.047083 -0.006623
vn -0.998869 -0.047083 -0.006623
vn -0.998816 -0.048142 -0.007063
vn -0.998816 -0.048142 -0.007063
vn -0.998816 -0.048142 -0.007063
vn -0.005372 -0.999986 0.000219
vn -0.005372 -0.999986 0.000219
vn -0.005372 -0.999986 0.000219
vn -0.005290 -0.999986 -0.000159
vn -0.005290 -0.999986 -0.000159
vn -0.005290 -0.999986 -0.000159
vn -0.005333 -0.999986 0.000020
vn -0.005333 -0.999986 0.000020
vn -0.005333 -0.999986 0.000020
vn -0.005323 -0.999986 0.000002
vn -0.005323 -0.999986 0.000002
vn -0.005323 -0.999986 0.000002
vn -0.005326 -0.999986 0.000001
vn -0.005326 -0.999986 0.000001
vn -0.005326 -0.999986 0.000001
vn -0.005336 -0.999985 0.001160
vn -0.005336 -0.999985 0.001160
vn -0.005336 -0.999985 0.001160
vn -0.005326 -0.999986 0.000001
vn -0.005326 -0.999986 0.000001
vn -0.005326 -0.999986 0.000001
vn -0.005330 -0.999986 -0.000002
vn -0.005330 -0.999986 -0.000002
vn -0.005330 -0.999986 -0.000002
vn -0.008395 -0.999965 0.000600
vn -0.008395 -0.999965 0.000600
vn -0.008395 -0.999965 0.000600
vn -0.008684 -0.999962 0.000007
vn -0.008684 -0.999962 0.000007
vn -0.008684 -0.999962 0.000007
vn -0.008755 -0.999962 -0.000058
vn -0.008755 -0.999962 -0.000058
vn -0.008755 -0.999962 -0.000058
vn -0.005285 -0.999986 0.000000
vn -0.005285 -0.999986 0.000000
vn -0.005285 -0.999986 0.000000
vn -0.005231 -0.999986 -0.000005
vn -0.005231 -0.999986 -0.000005
vn -0.005231 -0.999986 -0.000005
vn -0.005657 -0.999984 0.000042
vn -0.005657 -0.999984 0.000042
vn -0.005657 -0.999984 0.000042
vn -0.005285 -0.999986 -0.000011
vn -0.005285 -0.999986 -0.000011
vn -0.005285 -0.999986 -0.000011
vn -0.005333 -0.999986 0.000215
vn -0.005333 -0.999986 0.000215
vn -0.005333 -0.999986 0.000215
vn -0.005077 -0.999987 -0.000386
vn -0.005077 -0.999987 -0.000386
vn -0.005077 -0.999987 -0.000386
vn -0.005324 -0.999986 -0.000017
vn -0.005324 -0.999986 -0.000017
vn -0.005324 -0.999986 -0.000017
vn -0.005306 -0.999986 0.000004
vn -0.005306 -0.999986 0.000004
vn -0.005306 -0.999986 0.000004
vn -0.005314 -0.999986 -0.000001
vn -0.005314 -0.999986 -0.000001
vn -0.005314 -0.999986 -0.000001
vn -0.005475 -0.999985 -0.000003
vn -0.005475 -0.999985 -0.000003
vn -0.005475 -0.999985 -0.000003
vn -0.005379 -0.999986 0.000072
vn -0.005379 -0.999986 0.000072
vn -0.005379 -0.999986 0.000072
vn -0.005299 -0.999986 -0.000034
vn -0.005299 -0.999986 -0.000034
vn -0.005299 -0.999986 -0.000034
vn -0.005328 -0.999986 -0.000030
vn -0.005328 -0.999986 -0.000030
vn -0.005328 -0.999986 -0.000030
vn -0.005355 -0.999986 0.000002
vn -0.005355 -0.999986 0.000002
vn -0.005355 -0.999986 0.000002
vn -0.005616 -0.999984 -0.000031
vn -0.005616 -0.999984 -0.000031
vn -0.005616 -0.999984 -0.000031
vn -0.008400 -0.999965 -0.000056
vn -0.008400 -0.999965 -0.000056
vn -0.008400 -0.999965 -0.000056
vn -0.005317 -0.999985 0.001464
vn -0.005317 -0.999985 0.001464
vn -0.005317 -0.999985 0.001464
vn -0.005068 -0.999986 0.001655
vn -0.005068 -0.999986 0.001655
vn -0.005068 -0.999986 0.001655
vn -0.005366 -0.999985 0.001373
vn -0.005366 -0.999985 0.001373
vn -0.005366 -0.999985 0.001373
vn -0.005224 -0.999985 0.001640
vn -0.005224 -0.999985 0.001640
vn -0.005224 -0.999985 0.001640
vn -0.005351 -0.999986 -0.000631
vn -0.005351 -0.999985 -0.000631
vn -0.005351 -0.999985 -0.000631
vn -0.005320 -0.999985 0.001548
vn -0.005320 -0.999985 0.001548
vn -0.005320 -0.999985 0.001548
vn -0.006141 -0.999981 -0.000897
vn -0.006141 -0.999981 -0.000897
vn -0.006141 -0.999981 -0.000897
vn 0.999986 -0.005307 0.000000
vn 0.999986 -0.005307 0.000000
vn 0.999986 -0.005307 0.000000
vn -0.998840 -0.048162 0.000000
vn -0.998840 -0.048162 0.000000
vn -0.998839 -0.048162 0.000000
vn -0.005285 -0.999986 0.000000
vn -0.005285 -0.999986 0.000000
vn -0.005285 -0.999986 0.000000
vn -0.005285 -0.999986 0.000000
vn -0.005285 -0.999986 0.000000
vn -0.005285 -0.999986 0.000000
vn -0.005355 -0.999986 0.000000
vn -0.005355 -0.999986 0.000000
vn -0.005355 -0.999986 0.000000
vn -0.005355 -0.999986 0.000000
vn -0.005355 -0.999986 0.000000
vn -0.005355 -0.999986 0.000000
vn -0.006141 -0.999981 0.000000
vn -0.006141 -0.999981 0.000000
vn -0.006141 -0.999981 0.000000
vn -0.006141 -0.999981 0.000000
vn -0.006141 -0.999981 0.000000
vn -0.006141 -0.999981 0.000000
vn -0.063040 0.998011 0.000000
vn -0.063040 0.998011 0.000000
vn -0.063040 0.998011 0.000000
vn 0.000000 0.000000 1.000000
vn 0.000000 0.000000 1.000000
vn 0.000000 0.000000 1.000000
vn 0.005604 0.999984 0.000000
vn 0.005604 0.999984 0.000000
vn 0.005604 0.999984 0.000000
vn -0.998829 -0.047854 -0.007063
vn -0.998829 -0.047854 -0.007063
vn -0.998829 -0.047854 -0.007063
vn -0.998828 -0.047981 -0.006412
vn -0.998828 -0.047981 -0.006412
vn -0.998828 -0.047981 -0.006412
vn 0.000155 0.027478 0.999622
vn 0.000155 0.027478 0.999622
vn 0.000155 0.027478 0.999622
vn -0.001714 0.027559 0.999619
vn -0.001714 0.027559 0.999619
vn -0.001714 0.027559 0.999619
vn 0.998856 0.047818 0.000000
vn 0.998856 0.047818 0.000000
vn 0.998856 0.047818 0.000000
vn 0.998856 0.047818 0.000000
vn 0.998856 0.047818 0.000000
vn 0.998856 0.047818 0.000000
vn -0.998807 -0.048045 -0.008745
vn -0.998807 -0.048045 -0.008745
vn -0.998807 -0.048045 -0.008745
vn 0.000000 0.000000 -1.000000
vn 0.000000 0.000000 -1.000000
vn 0.000000 0.000000 -1.000000
vn 0.000000 0.000000 -1.000000
vn 0.000000 0.000000 -1.000000
vn 0.000000 0.000000 -1.000000
vn 0.000000 -1.000000 0.000000
vn 0.000000 -1.000000 0.000000
vn 0.000000 -1.000000 0.000000
vn 0.000000 -1.000000 0.000000
vn 0.000000 -1.000000 0.000000
vn 0.000000 -1.000000 0.000000
vn 1.000000 0.000000 0.000000
vn 1.000000 0.000000 0.000000
vn 1.000000 0.000000 0.000000
vn 1.000000 0.000000 0.000000
vn 1.000000 0.000000 0.000000
vn 1.000000 0.000000 0.000000
vn -1.000000 0.000000 0.000000
vn -1.000000 0.000000 0.000000
vn -1.000000 0.000000 0.000000
vn -1.000000 0.000000 0.000000
vn -1.000000 0.000000 0.000000
vn -1.000000 0.000000 0.000000
vn 0.000000 0.000000 -1.000000
vn 0.000000 0.000000 -1.000000
vn 0.000000 0.000000 -1.000000
vn 0.000000 0.000000 -1.000000
vn 0.000000 0.000000 -1.000000
vn 0.000000 0.000000 -1.000000
vn 0.000000 0.000000 -1.000000
vn 0.000000 0.000000 -1.000000
vn 0.000000 0.000000 -1.000000
vn 0.000000 0.000000 -1.000000
vn 0.000000 0.000000 -1.000000
vn 0.000000 0.000000 -1.000000
vn 0.000000 -1.000000 0.000000
vn 0.000000 -1.000000 0.000000
vn 0.000000 -1.000000 0.000000
vn 0.000000 -1.000000 0.000000
vn 0.000000 -1.000000 0.000000
vn 0.000000 -1.000000 0.000000
vn 0.000000 -1.000000 0.000000
vn 0.000000 -1.000000 0.000000
vn 0.000000 -1.000000 0.000000
vn 0.000000 -1.000000 0.000000
vn 0.000000 -1.000000 0.000000
vn 0.000000 -1.000000 0.000000
vn -1.000000 0.000000 0.000000
vn -1.000000 0.000000 0.000000
vn -1.000000 0.000000 0.000000
vn -1.000000 0.000000 0.000000
vn -1.000000 0.000000 0.000000
vn -1.000000 0.000000 0.000000
vn 1.000000 0.000000 0.000000
vn 1.000000 0.000000 0.000000
vn 1.000000 0.000000 0.000000
vn 1.000000 0.000000 0.000000
vn 1.000000 0.000000 0.000000
vn 1.000000 0.000000 0.000000
vn 0.000000 -1.000000 0.000000
vn 0.000000 -1.000000 0.000000
vn 0.000000 -1.000000 0.000000
vn 0.000000 -1.000000 0.000000
vn 0.000000 -1.000000 0.000000
vn 0.000000 -1.000000 0.000000
vn 0.000000 -1.000000 0.000000
vn 0.000000 -1.000000 0.000000
vn 0.000000 -1.000000 0.000000
vn 0.000000 -1.000000 0.000000
vn 0.000000 -1.000000 0.000000
vn 0.000000 -1.000000 0.000000
vn 0.000000 0.000000 -1.000000
vn 0.000000 0.000000 -1.000000
vn 0.000000 0.000000 -1.000000
vn 0.000000 0.000000 -1.000000
vn 0.000000 0.000000 -1.000000
vn 0.000000 0.000000 -1.000000
vn 1.000000 0.000000 0.000000
vn 1.000000 0.000000 0.000000
vn 1.000000 0.000000 0.000000
vn 1.000000 0.000000 0.000000
vn 1.000000 0.000000 0.000000
vn 1.000000 0.000000 0.000000
vn 0.000000 0.000000 1.000000
vn 0.000000 0.000000 1.000000
vn 0.000000 0.000000 1.000000
vn 0.000000 0.000000 1.000000
vn 0.000000 0.000000 1.000000
vn 0.000000 0.000000 1.000000
vn -1.000000 0.000000 0.000000
vn -1.000000 0.000000 0.000000
vn -1.000000 0.000000 0.000000
vn -1.000000 0.000000 0.000000
vn -1.000000 0.000000 0.000000
vn -1.000000 0.000000 0.000000
vn 0.000000 -1.000000 0.000000
vn 0.000000 -1.000000 0.000000
vn 0.000000 -1.000000 0.000000
vn 0.000000 -1.000000 0.000000
vn 0.000000 -1.000000 0.000000
vn 0.000000 -1.000000 0.000000
vn 0.000000 -1.000000 0.000000
vn 0.000000 -1.000000 0.000000
vn 0.000000 -1.000000 0.000000
vn 0.000000 -1.000000 0.000000
vn 0.000000 -1.000000 0.000000
vn 0.000000 -1.000000 0.000000
vn 0.000000 -1.000000 0.000000
vn 0.000000 -1.000000 0.000000
vn 0.000000 -1.000000 0.000000
vn 0.000000 -1.000000 0.000000
vn 0.000000 -1.000000 0.000000
vn 0.000000 -1.000000 0.000000
vn 0.000000 -1.000000 0.000000
vn 0.000000 -1.000000 0.000000
vn 0.000000 -1.000000 0.000000
vn 0.000000 -1.000000 0.000000
vn 0.000000 -1.000000 0.000000
vn 0.000000 -1.000000 0.000000
vn 0.000000 -1.000000 0.000000
vn 0.000000 -1.000000 0.000000
vn 0.000000 -1.000000 0.000000
vn 0.000000 -1.000000 0.000000
vn 0.000000 -1.000000 0.000000
vn 0.000000 -1.000000 0.000000
vn 0.000000 -1.000000 0.000000
vn 0.000000 -1.000000 0.000000
vn 0.000000 -1.000000 0.000000
vn 0.000000 -1.000000 0.000000
vn 0.000000 -1.000000 0.000000
vn 0.000000 -1.000000 0.000000
vn 0.000000 -1.000000 0.000000
vn 0.000000 -1.000000 0.000000
vn 0.000000 -1.000000 0.000000
vn 0.000000 -1.000000 0.000000
vn 0.000000 -1.000000 0.000000
vn 0.000000 -1.000000 0.000000
vn 0.000000 -1.000000 0.000000
vn 0.000000 -1.000000 0.000000
vn 0.000000 -1.000000 0.000000
vn 0.000000 -1.000000 0.000000
vn 0.000000 -1.000000 0.000000
vn 0.000000 -1.000000 0.000000
vn 0.000000 -1.000000 0.000000
vn 0.000000 -1.000000 0.000000
vn 0.000000 -1.000000 0.000000
vn 0.000000 -1.000000 0.000000
vn 0.000000 -1.000000 0.000000
vn 0.000000 -1.000000 0.000000
vn 0.000000 -1.000000 0.000000
vn 0.000000 -1.000000 0.000000
vn 0.000000 -1.000000 0.000000
vn 0.000000 -1.000000 0.000000
vn 0.000000 -1.000000 0.000000
vn 0.000000 -1.000000 0.000000
vn 0.000000 -1.000000 0.000000
vn 0.000000 -1.000000 0.000000
vn 0.000000 -1.000000 0.000000
vn 0.000000 -1.000000 0.000000
vn 0.000000 -1.000000 0.000000
vn 0.000000 -1.000000 0.000000
vn 0.000000 -1.000000 0.000000
vn 0.000000 -1.000000 0.000000
vn 0.000000 -1.000000 0.000000
vn 0.000000 -1.000000 0.000000
vn 0.000000 -1.000000 0.000000
vn 0.000000 -1.000000 0.000000
vn -0.000410 -1.000000 -0.000410
vn -0.000410 -1.000000 -0.000410
vn -0.000410 -1.000000 -0.000410
vn 0.000410 -1.000000 -0.000410
vn 0.000410 -1.000000 -0.000410
vn 0.000410 -1.000000 -0.000410
vn 0.000000 -1.000000 0.000000
vn 0.000000 -1.000000 0.000000
vn 0.000000 -1.000000 0.000000
vn 0.000000 -1.000000 0.000000
vn 0.000000 -1.000000 0.000000
vn 0.000000 -1.000000 0.000000
vn 1.000000 0.000000 0.000000
vn 1.000000 0.000000 0.000000
vn 1.000000 0.000000 0.000000
vn 1.000000 0.000000 0.000000
vn 1.000000 0.000000 0.000000
vn 1.000000 0.000000 0.000000
vn -1.000000 0.000000 0.000000
vn -1.000000 0.000000 0.000000
vn -1.000000 0.000000 0.000000
vn -1.000000 0.000000 0.000000
vn -1.000000 0.000000 0.000000
vn -1.000000 0.000000 0.000000
vn 0.000000 -1.000000 0.000000
vn 0.000000 -1.000000 0.000000
vn 0.000000 -1.000000 0.000000
vn 0.000000 -1.000000 0.000000
vn 0.000000 -1.000000 0.000000
vn 0.000000 -1.000000 0.000000
vn 0.000000 -1.000000 0.000000
vn 0.000000 -1.000000 0.000000
vn 0.000000 -1.000000 0.000000
vn 0.000000 -1.000000 0.000000
vn 0.000000 -1.000000 0.000000
vn 0.000000 -1.000000 0.000000
vn 0.000154 0.027467 0.999623
vn 0.000154 0.027467 0.999623
vn 0.000154 0.027467 0.999623
vn 0.000147 0.027477 0.999622
vn 0.000147 0.027477 0.999622
vn 0.000147 0.027477 0.999622
vn 0.000147 0.027464 0.999623
vn 0.000147 0.027464 0.999623
vn 0.000147 0.027464 0.999623
vn 0.000130 0.027056 0.999634
vn 0.000130 0.027056 0.999634
vn 0.000130 0.027056 0.999634
vn -0.002869 0.045428 0.998964
vn -0.002869 0.045428 0.998964
vn -0.002869 0.045428 0.998963
vn 0.000000 0.000000 1.000000
vn 0.000000 0.000000 1.000000
vn 0.000000 0.000000 1.000000
vn 0.000000 0.000000 1.000000
vn 0.000000 0.000000 1.000000
vn 0.000000 0.000000 1.000000
vn 0.977629 0.000000 0.210339
vn 0.977629 0.000000 0.210339
vn 0.977629 0.000000 0.210339
vn 0.932583 -0.011868 0.360762
vn 0.932583 -0.011868 0.360762
vn 0.932582 -0.011868 0.360762
vn -0.932582 -0.011868 0.360762
vn -0.932583 -0.011868 0.360762
vn -0.932583 -0.011868 0.360762
vn -0.977629 0.000000 0.210339
vn -0.977629 0.000000 0.210339
vn -0.977629 0.000000 0.210339
vn 0.065398 0.000000 0.997859
vn 0.065398 0.000000 0.997859
vn 0.065398 0.000000 0.997859
vn 0.065398 0.000000 0.997859
vn 0.065398 0.000000 0.997859
vn 0.065398 0.000000 0.997859
vn 0.195093 0.000000 0.980785
vn 0.195093 0.000000 0.980785
vn 0.195093 0.000000 0.980785
vn 0.195093 0.000000 0.980785
vn 0.195093 0.000000 0.980785
vn 0.195093 0.000000 0.980785
vn 0.321421 0.000000 0.946937
vn 0.321421 0.000000 0.946937
vn 0.321421 0.000000 0.946937
vn 0.321421 0.000000 0.946937
vn 0.321421 0.000000 0.946937
vn 0.321421 0.000000 0.946937
vn 0.442297 0.000000 0.896869
vn 0.442297 0.000000 0.896869
vn 0.442297 0.000000 0.896869
vn 0.442297 0.000000 0.896869
vn 0.442297 0.000000 0.896869
vn 0.442297 0.000000 0.896869
vn 0.555644 0.000000 0.831421
vn 0.555644 0.000000 0.831421
vn 0.555644 0.000000 0.831420
vn 0.555644 0.000000 0.831421
vn 0.555644 0.000000 0.831421
vn 0.555644 0.000000 0.831420
vn 0.659384 0.000000 0.751807
vn 0.659384 0.000000 0.751807
vn 0.659384 0.000000 0.751807
vn 0.659384 0.000000 0.751807
vn 0.659384 0.000000 0.751807
vn 0.659384 0.000000 0.751807
vn 0.751813 0.000000 0.659376
vn 0.751813 0.000000 0.659376
vn 0.751813 0.000000 0.659376
vn 0.751813 0.000000 0.659376
vn 0.751813 0.000000 0.659376
vn 0.751813 0.000000 0.659376
vn 0.831451 0.000000 0.555598
vn 0.831451 0.000000 0.555598
vn 0.831451 0.000000 0.555598
vn 0.831451 0.000000 0.555598
vn 0.831451 0.000000 0.555598
vn 0.831451 0.000000 0.555598
vn 0.896890 0.000000 0.442253
vn 0.896890 0.000000 0.442253
vn 0.896890 0.000000 0.442253
vn 0.896890 0.000000 0.442253
vn 0.896890 0.000000 0.442253
vn 0.896890 0.000000 0.442253
vn 0.946935 0.000000 0.321425
vn 0.946935 0.000000 0.321425
vn 0.946935 0.000000 0.321425
vn 0.946935 0.000000 0.321425
vn 0.946935 0.000000 0.321425
vn 0.946935 0.000000 0.321425
vn 0.979882 -0.006562 0.199471
vn 0.979882 -0.006562 0.199471
vn 0.979882 -0.006562 0.199471
vn 0.973082 0.000000 0.230459
vn 0.973082 0.000000 0.230459
vn 0.973082 0.000000 0.230459
vn -0.973082 0.000000 0.230459
vn -0.973082 0.000000 0.230459
vn -0.973082 0.000000 0.230459
vn -0.979882 -0.006562 0.199471
vn -0.979882 -0.006562 0.199471
vn -0.979882 -0.006562 0.199471
vn -0.946935 0.000000 0.321425
vn -0.946935 0.000000 0.321425
vn -0.946935 0.000000 0.321425
vn -0.946935 0.000000 0.321425
vn -0.946935 0.000000 0.321425
vn -0.946935 0.000000 0.321425
vn -0.896890 0.000000 0.442253
vn -0.896890 0.000000 0.442253
vn -0.896890 0.000000 0.442253
vn -0.896890 0.000000 0.442253
vn -0.896890 0.000000 0.442253
vn -0.896890 0.000000 0.442253
vn -0.831451 0.000000 0.555598
vn -0.831451 0.000000 0.555598
vn -0.831451 0.000000 0.555598
vn -0.831451 0.000000 0.555598
vn -0.831451 0.000000 0.555598
vn -0.831451 0.000000 0.555598
vn -0.751813 0.000000 0.659376
vn -0.751813 0.000000 0.659376
vn -0.751813 0.000000 0.659376
vn -0.751813 0.000000 0.659376
vn -0.751813 0.000000 0.659376
vn -0.751813 0.000000 0.659376
vn -0.659384 0.000000 0.751807
vn -0.659384 0.000000 0.751807
vn -0.659384 0.000000 0.751807
vn -0.659384 0.000000 0.751807
vn -0.659384 0.000000 0.751807
vn -0.659384 0.000000 0.751807
vn -0.555644 0.000000 0.831421
vn -0.555644 0.000000 0.831421
vn -0.555644 0.000000 0.831420
vn -0.555644 0.000000 0.831421
vn -0.555644 0.000000 0.831421
vn -0.555644 0.000000 0.831420
vn -0.442297 0.000000 0.896869
vn -0.442297 0.000000 0.896869
vn -0.442297 0.000000 0.896869
vn -0.442297 0.000000 0.896869
vn -0.442297 0.000000 0.896869
vn -0.442297 0.000000 0.896869
vn -0.321421 0.000000 0.946937
vn -0.321421 0.000000 0.946937
vn -0.321421 0.000000 0.946937
vn -0.321421 0.000000 0.946937
vn -0.321421 0.000000 0.946937
vn -0.321421 0.000000 0.946937
vn -0.195093 0.000000 0.980785
vn -0.195093 0.000000 0.980785
vn -0.195093 0.000000 0.980785
vn -0.195093 0.000000 0.980785
vn -0.195093 0.000000 0.980785
vn -0.195093 0.000000 0.980785
vn -0.065398 0.000000 0.997859
vn -0.065398 0.000000 0.997859
vn -0.065398 0.000000 0.997859
vn -0.065398 0.000000 0.997859
vn -0.065398 0.000000 0.997859
vn -0.065398 0.000000 0.997859
vn 0.000000 -1.000000 0.000000
vn 0.000000 -1.000000 0.000000
vn 0.000000 -1.000000 0.000000
vn 0.000000 -1.000000 0.000000
vn 0.000000 -1.000000 0.000000
vn 0.000000 -1.000000 0.000000
vn 0.000000 -1.000000 0.000000
vn 0.000000 -1.000000 0.000000
vn 0.000000 -1.000000 0.000000
vn 0.000000 -1.000000 0.000000
vn 0.000000 -1.000000 0.000000
vn 0.000000 -1.000000 0.000000
vn 0.000000 -1.000000 0.000000
vn 0.000000 -1.000000 0.000000
vn 0.000000 -1.000000 0.000000
vn 0.000000 -1.000000 0.000000
vn 0.000000 -1.000000 0.000000
vn 0.000000 -1.000000 0.000000
vn 0.000000 -1.000000 0.000000
vn 0.000000 -1.000000 0.000000
vn 0.000000 -1.000000 0.000000
vn 0.000000 -1.000000 0.000000
vn 0.000000 -1.000000 0.000000
vn 0.000000 -1.000000 0.000000
vn 0.000000 -1.000000 0.000000
vn 0.000000 -1.000000 0.000000
vn 0.000000 -1.000000 0.000000
vn 0.000000 -1.000000 0.000000
vn 0.000000 -1.000000 0.000000
vn 0.000000 -1.000000 0.000000
vn 0.000000 -1.000000 0.000000
vn 0.000000 -1.000000 0.000000
vn 0.000000 -1.000000 0.000000
vn 0.000000 -1.000000 0.000000
vn 0.000000 -1.000000 0.000000
vn 0.000000 -1.000000 0.000000
vn 0.000000 -1.000000 0.000000
vn 0.000000 -1.000000 0.000000
vn 0.000000 -1.000000 0.000000
vn 0.000000 -1.000000 0.000000
vn 0.000000 -1.000000 0.000000
vn 0.000000 -1.000000 0.000000
vn 0.000000 -1.000000 0.000000
vn 0.000000 -1.000000 0.000000
vn 0.000000 -1.000000 0.000000
vn 0.000000 -1.000000 0.000000
vn 0.000000 -1.000000 0.000000
vn 0.000000 -1.000000 0.000000
vn 0.000000 -1.000000 0.000000
vn 0.000000 -1.000000 0.000000
vn 0.000000 -1.000000 0.000000
vn 0.000000 -1.000000 0.000000
vn 0.000000 -1.000000 0.000000
vn 0.000000 -1.000000 0.000000
vn 0.000000 -1.000000 0.000000
vn 0.000000 -1.000000 0.000000
vn 0.000000 -1.000000 0.000000
vn 0.000000 -1.000000 0.000000
vn 0.000000 -1.000000 0.000000
vn 0.000000 -1.000000 0.000000
vn 0.000000 -1.000000 0.000000
vn 0.000000 -1.000000 0.000000
vn 0.000000 -1.000000 0.000000
vn 0.000000 -1.000000 0.000000
vn 0.000000 -1.000000 0.000000
vn 0.000000 -1.000000 0.000000
vn 0.000000 -1.000000 0.000000
vn 0.000000 -1.000000 0.000000
vn 0.000000 -1.000000 0.000000
vn 0.000000 -1.000000 0.000000
vn 0.000000 -1.000000 0.000000
vn 0.000000 -1.000000 0.000000
vn 0.000000 -1.000000 0.000000
vn 0.000000 -1.000000 0.000000
vn 0.000000 -1.000000 0.000000
vn 0.000000 -1.000000 0.000000
vn 0.000000 -1.000000 0.000000
vn 0.000000 -1.000000 0.000000
vn -0.000410 -0.999999 0.001223
vn -0.000410 -0.999999 0.001223
vn -0.000410 -0.999999 0.001223
vn 0.000410 -0.999999 0.001223
vn 0.000410 -0.999999 0.001223
vn 0.000410 -0.999999 0.001223
vn 0.000000 -1.000000 0.000000
vn 0.000000 -1.000000 0.000000
vn 0.000000 -1.000000 0.000000
vn 0.000000 -1.000000 0.000000
vn 0.000000 -1.000000 0.000000
vn 0.000000 -1.000000 0.000000
vn 0.000000 -1.000000 0.000000
vn 0.000000 -1.000000 0.000000
vn 0.000000 -1.000000 0.000000
vn 0.000000 -1.000000 0.000000
vn 0.000000 -1.000000 0.000000
vn 0.000000 -1.000000 0.000000
vn 0.000000 -1.000000 0.000000
vn 0.000000 -1.000000 0.000000
vn 0.000000 -1.000000 0.000000
vn 0.000000 -1.000000 0.000000
vn 0.000000 -1.000000 0.000000
vn 0.000000 -1.000000 0.000000
vn 0.000000 -1.000000 0.000000
vn 0.000000 -1.000000 0.000000
vn 0.000000 -1.000000 0.000000
vn 0.000000 -1.000000 0.000000
vn 0.000000 -1.000000 0.000000
vn 0.000000 -1.000000 0.000000
vn 0.000000 -1.000000 0.000000
vn 0.000000 -1.000000 0.000000
vn 0.000000 -1.000000 0.000000
vn 0.000000 -1.000000 0.000000
vn 0.000000 -1.000000 0.000000
vn 0.000000 -1.000000 0.000000
vn 0.000000 -1.000000 0.000000
vn 0.000000 -1.000000 0.000000
vn 0.000000 -1.000000 0.000000
vn 0.000000 -1.000000 0.000000
vn 0.000000 -1.000000 0.000000
vn 0.000000 -1.000000 0.000000
vn 0.000000 -1.000000 0.000000
vn 0.000000 -1.000000 0.000000
vn 0.000000 -1.000000 0.000000
vn 0.000000 -1.000000 0.000000
vn 0.000000 -1.000000 0.000000
vn 0.000000 -1.000000 0.000000
vn 0.000000 -1.000000 0.000000
vn 0.000000 -1.000000 0.000000
vn 0.000000 -1.000000 0.000000
vn 0.000000 -1.000000 0.000000
vn 0.000000 -1.000000 0.000000
vn 0.000000 -1.000000 0.000000
vn 0.000000 -1.000000 0.000000
vn 0.000000 -1.000000 0.000000
vn 0.000000 -1.000000 0.000000
vn 0.000000 -1.000000 0.000000
vn 0.000000 -1.000000 0.000000
vn 0.000000 -1.000000 0.000000
vn 0.000000 -1.000000 0.000000
vn 0.000000 -1.000000 0.000000
vn 0.000000 -1.000000 0.000000
vn 0.000000 -1.000000 0.000000
vn 0.000000 -1.000000 0.000000
vn 0.000000 -1.000000 0.000000
# 843 vertex normals

vt 3.694402 1.677496 0.000000
vt 3.694402 -0.860589 0.000000
vt 4.646841 -0.857615 0.000000
vt 4.646841 1.677496 0.000000
vt 3.658346 -0.975709 0.000000
vt 4.646841 -0.975709 0.000000
vt 3.658346 -0.860641 0.000000
vt 3.326476 -0.860589 0.000000
vt 3.326476 -0.975666 0.000000
vt 6.007498 1.641019 0.000000
vt 6.007505 4.179104 0.000000
vt 5.921963 4.179104 0.000000
vt 5.921971 1.640976 0.000000
vt 6.071988 1.640976 0.000000
vt 6.071988 4.179104 0.000000
vt 6.038318 4.179104 0.000000
vt 6.038318 1.640976 0.000000
vt 1.002212 1.000914 0.000000
vt 0.012201 1.000907 0.000000
vt 0.002215 0.000911 0.000000
vt 1.001055 0.000911 0.000000
vt 1.002213 0.951721 0.000000
vt 3.144969 -0.857624 0.000000
vt 3.144969 1.703130 0.000000
vt 2.865463 1.703130 0.000000
vt 2.865463 -0.857624 0.000000
vt 3.295652 -0.857624 0.000000
vt 3.295661 1.703130 0.000000
vt 3.179657 1.703130 0.000000
vt 3.179657 -0.857615 0.000000
vt 3.295661 -0.975709 0.000000
vt 3.179657 -0.975709 0.000000
vt 3.062111 1.723185 0.000000
vt 3.062094 3.411736 0.000000
vt 2.947017 3.410461 0.000000
vt 2.944026 1.723176 0.000000
vt 4.804462 3.598414 0.000000
vt 4.840518 3.599697 0.000000
vt 4.840518 3.685223 0.000000
vt 4.806848 3.685223 0.000000
vt 2.865463 5.225795 0.000000
vt 2.911572 3.547781 0.000000
vt 3.191078 3.547785 0.000000
vt 3.197332 5.235070 0.000000
vt 4.479758 1.723176 0.000000
vt 4.413288 3.518460 0.000000
vt 3.424794 3.518460 0.000000
vt 3.092924 3.527736 0.000000
vt 3.099179 1.839185 0.000000
vt 3.099179 1.839180 0.000000
vt 3.099179 1.723176 0.000000
vt 5.611645 1.813546 0.000000
vt 5.563150 3.578368 0.000000
vt 5.529480 3.578368 0.000000
vt 5.529480 3.492826 0.000000
vt 4.577042 3.492826 0.000000
vt 4.510571 1.697542 0.000000
vt 5.404778 1.697542 0.000000
vt 5.891151 1.697542 0.000000
vt 5.891151 1.813546 0.000000
vt 4.687006 0.543055 0.000000
vt 5.576506 0.568852 0.000000
vt 5.578548 1.025488 0.000000
vt 5.475346 1.037765 0.000000
vt 5.483974 0.951196 0.000000
vt 5.482681 0.738233 0.000000
vt 5.345202 0.738251 0.000000
vt 5.344296 0.952935 0.000000
vt 5.342675 1.037752 0.000000
vt 5.342864 1.267054 0.000000
vt 5.475691 1.266945 0.000000
vt 5.579535 1.246101 0.000000
vt 5.581213 1.620930 0.000000
vt 4.687006 1.620930 0.000000
vt 5.331613 -0.319960 0.000000
vt 5.487733 -0.319884 0.000000
vt 5.489573 -0.975435 0.000000
vt 6.067586 -0.939816 0.000000
vt 6.067586 1.620930 0.000000
vt 5.578938 1.112586 0.000000
vt 0.000000 1.000000 0.000000
vt 4.031162 3.680888 0.000000
vt 3.863517 3.680614 0.000000
vt 3.864686 3.680615 0.000000
vt 3.228597 3.716507 0.000000
vt 3.228597 3.598413 0.000000
vt 4.609177 3.598413 0.000000
vt 4.609177 3.716507 0.000000
vt 3.873203 4.336363 0.000000
vt 5.500862 -0.188446 0.000000
vt 5.240396 -0.197836 0.000000
vt 3.781986 4.458487 0.000000
vt 3.228597 4.438536 0.000000
vt 1.000000 0.000000 0.000000
vt 1.000000 1.000000 0.000000
vt 0.000000 0.000000 0.000000
vt 0.000000 0.000000 0.000000
vt 1.000000 0.000000 0.000000
vt 1.000000 1.000000 0.000000
vt 0.000000 1.000000 0.000000
vt 0.000000 1.000000 0.000000
vt 0.000000 0.000000 0.000000
vt 1.000000 0.000000 0.000000
vt 1.000000 1.000000 0.000000
vt -4.799151 8.614909 0.000000
vt -2.513952 8.614909 0.000000
vt -2.083602 9.045259 0.000000
vt -2.083602 11.714030 0.000000
vt -4.799151 11.714030 0.000000
vt 7.256719 -0.276360 0.000000
vt 7.256719 -2.991910 0.000000
vt 10.355879 -2.991910 0.000000
vt 10.355879 -0.276360 0.000000
vt -17.623512 -18.206333 0.000000
vt -14.907963 -18.206333 0.000000
vt -14.907963 -3.311949 0.000000
vt -17.623512 -3.311949 0.000000
vt 0.595536 -3.311945 0.000000
vt 0.595536 -18.206329 0.000000
vt 3.694693 -18.206329 0.000000
vt 3.694693 -3.311945 0.000000
vt 3.926126 3.328178 0.000000
vt 3.926126 -11.566204 0.000000
vt 7.025283 -11.566204 0.000000
vt 7.025283 3.328178 0.000000
vt 1.238600 14.196051 0.000000
vt -1.430173 14.196051 0.000000
vt -1.430176 13.625190 0.000000
vt 1.238601 13.625190 0.000000
vt 7.256719 -15.133510 0.000000
vt 10.355879 -15.133510 0.000000
vt 0.000000 1.000000 0.000000
vt 1.000000 1.000000 0.000000
vt 1.000000 0.000000 0.000000
vt 0.000000 0.000000 0.000000
vt 7.256719 -18.206333 0.000000
vt 10.355879 -18.206333 0.000000
vt -2.766363 -3.311949 0.000000
vt -2.766363 -18.206333 0.000000
vt 0.306459 -18.206333 0.000000
vt 0.306459 -3.311949 0.000000
vt -8.445898 9.045300 0.000000
vt -8.318129 9.045259 0.000000
vt -8.318129 11.714031 0.000000
vt -8.547851 11.714031 0.000000
vt -13.038979 11.714030 0.000000
vt -13.038979 9.045131 0.000000
vt -12.911211 9.045300 0.000000
vt -12.809258 11.714030 0.000000
vt -1.430174 12.870047 0.000000
vt 1.238600 12.870047 0.000000
vt -1.430176 12.127790 0.000000
vt 1.238600 12.127789 0.000000
vt -1.430177 11.411127 0.000000
vt 1.238600 11.411127 0.000000
vt -1.430175 10.732414 0.000000
vt 1.238600 10.732414 0.000000
vt -1.430174 10.103304 0.000000
vt 1.238600 10.103304 0.000000
vt -1.430175 9.534389 0.000000
vt 1.238600 9.534389 0.000000
vt -1.430171 9.035374 0.000000
vt 1.238600 9.035373 0.000000
vt -1.430173 8.614909 0.000000
vt 1.238600 8.614908 0.000000
vt -10.567015 9.045255 0.000000
vt -9.888288 9.045256 0.000000
vt -9.888288 11.714030 0.000000
vt -10.567014 11.714030 0.000000
vt -9.171680 9.045259 0.000000
vt -9.171680 11.714030 0.000000
vt -8.445899 9.045259 0.000000
vt -12.911210 9.045259 0.000000
vt -12.185428 9.045256 0.000000
vt -12.185428 11.714030 0.000000
vt -11.468820 9.045255 0.000000
vt -11.468820 11.714030 0.000000
vt -10.790095 9.045259 0.000000
vt -10.790095 11.714030 0.000000
vt -1.430171 19.206329 0.000000
vt -1.430175 18.785866 0.000000
vt 1.238600 18.785866 0.000000
vt 1.238600 19.206329 0.000000
vt -1.430174 18.286848 0.000000
vt 1.238600 18.286848 0.000000
vt -1.430175 17.717937 0.000000
vt 1.238600 17.717936 0.000000
vt -1.430177 17.088827 0.000000
vt 1.238600 17.088827 0.000000
vt -1.430176 16.410114 0.000000
vt 1.238600 16.410114 0.000000
vt -1.430174 15.693449 0.000000
vt 1.238600 15.693449 0.000000
vt -1.430176 14.951189 0.000000
vt 1.238600 14.951188 0.000000
vt -14.907963 2.897761 0.000000
vt -17.623512 2.897740 0.000000
vt 3.926126 -17.775892 0.000000
vt 7.025283 -17.775892 0.000000
vt 0.595536 2.897742 0.000000
vt 3.694693 2.897742 0.000000
vt -2.766363 2.897761 0.000000
vt 0.306459 2.897740 0.000000
vt 2.901362 3.473306 0.000000
vt 2.901362 15.614904 0.000000
vt 1.461713 15.614904 0.000000
vt 1.461713 3.473306 0.000000
vt 10.587311 -3.311945 0.000000
vt 10.587311 -18.206329 0.000000
vt 12.026962 -18.206329 0.000000
vt 12.026962 -3.311945 0.000000
vt 3.124443 15.614908 0.000000
vt 3.124443 3.473306 0.000000
vt 4.564091 3.473306 0.000000
vt 4.564091 15.614908 0.000000
vt 4.787171 18.367691 0.000000
vt 4.787171 3.473306 0.000000
vt 6.226821 3.473306 0.000000
vt 6.226821 18.367691 0.000000
vt 0.595536 3.328180 0.000000
vt 3.694693 3.328180 0.000000
vt -15.338313 3.328178 0.000000
vt -17.623512 3.328178 0.000000
vt 3.926126 -18.206329 0.000000
vt 7.025283 -18.206329 0.000000
vt -2.336025 3.328178 0.000000
vt 0.306459 3.328178 0.000000
vt -8.095051 9.045259 0.000000
vt -7.664701 8.614909 0.000000
vt -5.022229 8.614909 0.000000
vt -5.022229 11.714030 0.000000
vt -8.095050 11.714030 0.000000
vt -14.477114 3.328178 0.000000
vt -3.196679 3.328178 0.000000
vt -3.196714 3.328178 0.000000
vt -3.156434 3.331769 0.000000
vt -3.379614 4.070084 0.000000
vt -3.605271 4.733304 0.000000
vt -3.914845 5.361438 0.000000
vt -4.304075 5.943695 0.000000
vt -4.766095 6.470233 0.000000
vt -5.292256 6.932150 0.000000
vt -5.874707 7.321130 0.000000
vt -6.502800 7.630854 0.000000
vt -7.165973 7.855952 0.000000
vt -7.852963 7.992581 0.000000
vt -8.565941 8.039326 0.000000
vt -9.108527 8.039332 0.000000
vt -9.821333 7.992737 0.000000
vt -10.508421 7.856043 0.000000
vt -11.171638 7.630890 0.000000
vt -11.799683 7.321123 0.000000
vt -12.381829 6.932052 0.000000
vt -12.908339 6.470332 0.000000
vt -13.370314 5.943708 0.000000
vt -13.759356 5.361405 0.000000
vt -14.068964 4.733297 0.000000
vt -14.294201 4.070080 0.000000
vt -14.507632 3.328178 0.000000
vt -14.477612 3.328178 0.000000
vt -8.551734 8.469783 0.000000
vt -7.796592 8.420285 0.000000
vt -1.860523 13.639312 0.000000
vt -1.860523 14.181929 0.000000
vt -9.122591 8.469783 0.000000
vt -9.877735 8.420285 0.000000
vt -7.054334 8.272645 0.000000
vt -6.337671 8.029387 0.000000
vt -5.658960 7.694674 0.000000
vt -5.029851 7.274235 0.000000
vt -4.460932 6.775259 0.000000
vt -3.961918 6.206287 0.000000
vt -3.541453 5.577062 0.000000
vt -3.206775 4.898336 0.000000
vt -2.963533 4.181728 0.000000
vt -2.819062 3.455942 0.000000
vt -2.766363 3.328178 0.000000
vt -14.907963 3.328178 0.000000
vt -14.858536 3.439504 0.000000
vt -14.710793 4.181728 0.000000
vt -14.467552 4.898336 0.000000
vt -14.132875 5.577062 0.000000
vt -13.712407 6.206287 0.000000
vt -13.213391 6.775259 0.000000
vt -12.644474 7.274235 0.000000
vt -12.015365 7.694674 0.000000
vt -11.336654 8.029387 0.000000
vt -10.619992 8.272645 0.000000
vt -8.095051 8.614909 0.000000
vt -2.083602 8.614909 0.000000
vt -8.095051 8.614909 0.000000
vt -2.083602 8.614909 0.000000
vt 5.378964 1.377140 0.000000
vt 4.479758 1.723176 0.000000
vt 4.413288 3.518460 0.000000
vt 4.577042 3.492826 0.000000
vt 4.510571 1.697542 0.000000
vt 3.228597 3.716507 0.000000
vt 3.228597 3.598413 0.000000
vt 3.228597 4.438536 0.000000
vt -17.623512 -18.206333 0.000000
vt -14.907963 -18.206333 0.000000
vt 0.595536 -18.206329 0.000000
vt 3.694693 -18.206329 0.000000
vt 7.025283 3.328178 0.000000
vt 3.926126 3.328178 0.000000
vt 10.355879 -18.206333 0.000000
vt 10.355879 -15.133510 0.000000
vt 3.124443 15.614908 0.000000
vt 3.124443 3.473306 0.000000
vt 4.687006 1.620930 0.000000
vt 4.687006 0.543055 0.000000
vt -0.511444 1.097363 -1.045181
vt 1.494881 1.139673 2.050262
vt -0.511444 -0.522141 -1.037773
vt 1.494881 -0.522141 2.050262
vt -0.611824 1.097363 -1.049911
vt -0.611824 1.136874 -1.050285
vt 1.458961 1.193781 -0.951141
vt -0.953461 -0.458961 1.521776
vt -1.039803 -0.475685 1.521776
vt -0.946899 1.521776 -0.595093
vt 2.039078 1.521776 -0.611816
vt -0.936203 -0.098307 -0.595093
vt 2.039078 -0.098307 -0.611816
vt 1.900497 -0.098307 -0.611084
vt 1.900497 -0.611084 1.521776
vt -0.901260 1.521776 -0.474968
vt 1.474968 1.193781 1.901260
vt 1.596001 1.136874 1.915756
vt 1.596001 1.097363 1.915756
vt 1.495613 1.097363 1.915169
vt -0.911682 -0.522141 1.495613
vt -0.494110 1.139673 1.915222
vt 1.505768 1.529116 2.050293
vt -0.475685 1.521776 2.039742
vt -0.504997 1.529116 1.915222
vt 1.474953 1.521776 1.901199
vt -0.943115 0.951027 -0.595093
vt 0.130157 0.945503 -0.601662
vt 0.160431 -0.098307 -0.601830
vt 1.173126 0.658126 -0.607208
vt 1.173035 0.841330 -0.607208
vt 1.942299 0.843488 -0.611298
vt 1.942627 0.646759 -0.611305
vt -0.507896 0.948358 -0.598267
vt -0.405685 0.947900 -0.598785
vt -0.664574 0.949059 -0.597435
vt -0.420097 0.826794 -0.598732
vt -0.420074 0.671107 -0.598732
vt -0.689163 0.671329 -0.597298
vt -0.689026 0.827199 -0.597298
vt -0.318481 0.836919 -0.599274
vt -0.068626 0.835402 -0.600609
vt -0.068649 0.674073 -0.600609
vt -0.320526 0.673008 -0.599266
vt 1.018814 0.856736 -0.606361
vt 1.029846 0.551084 -0.606445
vt 1.053253 -0.098307 -0.606544
vt 2.039078 -0.529116 -0.611816
vt -0.936203 -0.529116 -0.595093
vt 1.900497 -0.529116 -0.611084
vt 1.053253 -0.529116 -0.606544
vt 0.160431 -0.529116 -0.601830
vt -0.459724 1.521776 -0.817825
vt 1.817825 -0.459724 1.193781
vt 2.022148 1.024208 1.153022
vt -1.024467 1.024208 1.481018
vt 1.023445 1.481018 -0.888824
vt 1.888824 1.023445 1.153022
vt -0.024208 1.153022 -1.022148
vt -0.915169 1.097363 1.495613
vt -0.911682 -0.522141 1.495613
vt 2.037773 -0.522141 1.511444
vt 2.037773 -0.522141 1.511444
vt 2.045181 1.097363 1.511444
vt -0.915169 1.097363 1.495613
vt 2.045181 1.511444 1.097363
vt 2.049911 1.611824 1.097363
vt -0.915756 1.596001 1.097363
vt -0.915756 1.596001 1.097363
vt -0.915169 1.495613 1.097363
vt 2.045181 1.511444 1.097363
vt 2.049911 1.097363 1.611824
vt 2.050285 1.136874 1.611824
vt -0.915756 1.136874 1.596001
vt -0.915756 1.136874 1.596001
vt -0.915756 1.097363 1.596001
vt 2.049911 1.097363 1.611824
vt 2.022148 1.153022 1.024208
vt 2.024467 1.481018 1.024208
vt 1.888824 1.481018 1.023445
vt -0.901260 1.521776 -0.474968
vt -0.901260 1.193781 -0.474968
vt 1.817825 1.193781 -0.459724
vt -0.953461 -0.458961 1.521776
vt -0.946899 -0.595093 1.521776
vt 1.900497 -0.611084 1.521776
vt 1.900497 -0.611084 1.521776
vt -0.817825 -0.459724 1.521776
vt -0.953461 -0.458961 1.521776
vt 1.901260 -0.474968 1.521776
vt 1.900497 -0.611084 1.521776
vt 2.039078 -0.611816 1.521776
vt 2.039078 -0.611816 1.521776
vt 2.039803 -0.475685 1.521776
vt 1.901260 -0.474968 1.521776
vt 2.050293 1.505768 1.529116
vt 1.915222 1.504997 1.529116
vt 1.901199 -0.474953 1.521776
vt 1.901199 -0.474953 1.521776
vt 2.039742 -0.475685 1.521776
vt 2.050293 1.505768 1.529116
vt -1.050262 1.139673 1.494881
vt -1.050262 -0.522141 1.494881
vt -0.911682 -0.522141 1.495613
vt -1.050262 1.139673 1.494881
vt -0.915169 1.097363 1.495613
vt -1.050262 1.139673 1.494881
vt -0.915169 1.097363 1.495613
vt -0.915222 1.139673 1.494110
vt 1.495613 1.097363 1.915169
vt 1.596001 1.136874 1.915756
vt 1.494110 1.139673 1.915222
vt -0.915222 1.139673 1.494110
vt -0.915222 1.529116 1.504997
vt -1.050293 1.529116 1.505768
vt -1.050293 1.529116 1.505768
vt -1.050262 1.139673 1.494881
vt -0.915222 1.139673 1.494110
vt 1.474968 1.193781 1.901260
vt -0.504997 1.529116 1.915222
vt 1.494881 1.139673 2.050262
vt -0.475685 1.521776 2.039742
vt -1.039742 -0.475685 1.521776
vt -1.039078 -0.611816 1.521776
vt 1.494881 1.139673 2.050262
vt -0.611816 1.521776 2.039078
vt 1.494881 -0.522141 2.050262
vt -0.611816 1.521776 2.039078
vt -0.611816 -0.098307 2.039078
vt 1.494881 -0.522141 2.050262
vt -0.611816 1.521776 2.039078
vt -0.024208 1.153022 -1.022148
vt -0.611824 1.097363 -1.049911
vt 1.458961 1.193781 -0.951141
vt -0.611824 1.097363 -1.049911
vt -0.511444 1.097363 -1.045181
vt -0.511444 1.097363 -1.045181
vt -0.511444 -0.522141 -1.037773
vt 1.595093 -0.098307 -0.936203
vt -0.511444 1.097363 -1.045181
vt 1.595093 -0.098307 -0.936203
vt 1.595093 0.951027 -0.943115
vt 1.458961 1.193781 -0.951141
vt 1.595093 0.951027 -0.943115
vt 1.458961 1.193781 -0.951141
vt 1.595093 0.951027 -0.943115
vt 1.595093 1.521776 -0.946899
vt 1.458961 1.193781 -0.951141
vt 1.595093 1.521776 -0.946899
vt 1.458961 1.521776 -0.953461
vt 0.130157 0.945503 -0.601662
vt -0.405685 0.947900 -0.598785
vt -0.420097 0.826794 -0.598732
vt 0.130157 0.945503 -0.601662
vt -0.420097 0.826794 -0.598732
vt -0.318481 0.836919 -0.599274
vt 0.130157 0.945503 -0.601662
vt -0.318481 0.836919 -0.599274
vt -0.068626 0.835402 -0.600609
vt 0.160431 -0.098307 -0.601830
vt 0.130157 0.945503 -0.601662
vt -0.068626 0.835402 -0.600609
vt 0.160431 -0.098307 -0.601830
vt -0.068649 0.674073 -0.600609
vt -0.068649 0.674073 -0.600609
vt -0.320526 0.673008 -0.599266
vt -0.420074 0.671107 -0.598732
vt 0.160431 -0.098307 -0.601830
vt -0.420074 0.671107 -0.598732
vt 0.160431 -0.098307 -0.601830
vt -0.420074 0.671107 -0.598732
vt -0.689163 0.671329 -0.597298
vt -0.689026 0.827199 -0.597298
vt -0.664574 0.949059 -0.597435
vt -0.943115 0.951027 -0.595093
vt -0.689163 0.671329 -0.597298
vt -0.689026 0.827199 -0.597298
vt -0.943115 0.951027 -0.595093
vt -0.689163 0.671329 -0.597298
vt -0.943115 0.951027 -0.595093
vt -0.936203 -0.098307 -0.595093
vt 1.900497 -0.098307 -0.611084
vt 2.039078 -0.098307 -0.611816
vt 2.039078 1.521776 -0.611816
vt 1.942627 0.646759 -0.611305
vt 1.900497 -0.098307 -0.611084
vt 2.039078 1.521776 -0.611816
vt 1.942299 0.843488 -0.611298
vt 1.942627 0.646759 -0.611305
vt 2.039078 1.521776 -0.611816
vt 1.942299 0.843488 -0.611298
vt 1.900497 1.521776 -0.611084
vt -0.689026 0.827199 -0.597298
vt -0.420097 0.826794 -0.598732
vt -0.405685 0.947900 -0.598785
vt -0.689026 0.827199 -0.597298
vt -0.405685 0.947900 -0.598785
vt -0.507896 0.948358 -0.598267
vt -0.664574 0.949059 -0.597435
vt -0.507896 0.948358 -0.598267
vt -0.320526 0.673008 -0.599266
vt -0.420097 0.826794 -0.598732
vt 1.173126 0.658126 -0.607208
vt 1.173035 0.841330 -0.607208
vt 1.018814 0.856736 -0.606361
vt 1.018814 0.856736 -0.606361
vt 1.029846 0.551084 -0.606445
vt 1.173126 0.658126 -0.607208
vt 1.173126 0.658126 -0.607208
vt 1.053253 -0.098307 -0.606544
vt 1.942627 0.646759 -0.611305
vt 1.053253 -0.098307 -0.606544
vt 1.900497 -0.098307 -0.611084
vt 1.053253 -0.098307 -0.606544
vt 1.942299 0.843488 -0.611298
vt 1.900497 1.521776 -0.611084
vt -0.946899 1.521776 -0.595093
vt -0.946899 1.521776 -0.595093
vt -0.664574 0.949059 -0.597435
vt -0.946899 1.521776 -0.595093
vt -0.507896 0.948358 -0.598267
vt -0.946899 1.521776 -0.595093
vt -0.405685 0.947900 -0.598785
vt -0.946899 1.521776 -0.595093
vt 0.130157 0.945503 -0.601662
vt 1.942299 0.843488 -0.611298
vt 0.130157 0.945503 -0.601662
vt 1.942299 0.843488 -0.611298
vt 1.018814 0.856736 -0.606361
vt 0.160431 -0.098307 -0.601830
vt -0.936203 -0.098307 -0.595093
vt -0.611816 -0.098307 2.039078
vt -0.611816 -0.529116 2.039078
vt 1.595093 -0.529116 -0.936203
vt 1.595093 -0.098307 -0.936203
vt 1.900497 -0.529116 -0.611084
vt 2.039078 -0.098307 -0.611816
vt 1.900497 -0.098307 -0.611084
vt 1.900497 -0.529116 -0.611084
vt 1.053253 -0.529116 -0.606544
vt 1.900497 -0.098307 -0.611084
vt -0.936203 -0.529116 -0.595093
vt 0.160431 -0.098307 -0.601830
vt 2.022148 1.153022 1.024208
vt 1.888824 1.481018 1.023445
vt 1.888824 1.153022 1.023445
vt 1.901260 -0.474968 1.521776
vt -0.817825 -0.459724 1.521776
vt 1.817825 1.193781 -0.459724
vt 1.817825 1.521776 -0.459724
vt 1.458961 1.193781 -0.951141
vt 1.458961 1.521776 -0.953461
vt -0.024208 1.481018 -1.024467
vt -0.024208 1.481018 -1.024467
vt -0.024208 1.153022 -1.022148
vt 1.458961 1.193781 -0.951141
vt -0.953461 -0.458961 1.521776
vt -0.817825 -0.459724 1.521776
vt -0.888824 1.023445 1.481018
vt -0.888824 1.023445 1.481018
vt -0.459724 1.521776 -0.817825
vt -0.459724 1.193781 -0.817825
vt 1.023445 1.153022 -0.888824
vt 1.023445 1.153022 -0.888824
vt 1.817825 -0.459724 1.193781
vt 1.951141 -0.458961 1.193781
vt 2.022148 1.024208 1.153022
vt 0.366043 -0.305816 -0.274963
vt 0.633957 -0.305816 1.274963
vt 0.633942 -0.305816 -0.274963
vt 1.274963 -0.305816 0.366058
vt 1.040222 0.633957 -0.305816
vt -0.040222 -0.305816 0.366058
vt -0.009338 0.633957 -0.305816
vt 1.009338 -0.305816 0.366058
vt 0.366058 0.970782 -0.040222
vt 0.633942 0.970782 -0.274963
vt 0.366043 0.970782 -0.274963
vt 0.633957 0.970782 1.274963
vt 1.274963 0.970782 0.366058
vt 0.633942 0.970782 1.009338
vt 0.509491 0.970782 1.009338
vt 0.490509 0.970782 -0.040222
vt -0.040222 0.490509 -0.305816
vt 0.509491 -0.305816 1.009338
vt 0.633957 1.507568 1.274963
vt 1.274963 1.507568 0.366058
vt 1.009338 1.507570 0.366058
vt -0.040222 1.507570 0.366058
vt 0.633942 1.507568 -0.274963
vt 0.366043 1.507568 -0.274963
vt 0.508011 1.952029 0.366058
vt 0.461105 1.952029 0.366058
vt 0.569641 1.947989 0.366058
vt 0.629028 1.936178 0.366058
vt 0.686356 1.916718 0.366058
vt 0.740646 1.889943 0.366058
vt 0.790970 1.856309 0.366058
vt 0.836487 1.816390 0.366058
vt 0.876419 1.770872 0.366058
vt 0.910049 1.720535 0.366058
vt 0.936813 1.666239 0.366058
vt 0.956284 1.608908 0.366058
vt 0.972137 1.544776 0.366058
vt 1.009338 1.544776 0.366058
vt -0.003021 1.544776 0.366058
vt -0.040222 1.544776 0.366058
vt 0.012833 1.608908 0.366058
vt 0.032303 1.666239 0.366058
vt 0.059067 1.720535 0.366058
vt 0.092697 1.770872 0.366058
vt 0.132629 1.816390 0.366058
vt 0.178146 1.856309 0.366058
vt 0.228470 1.889943 0.366058
vt 0.282761 1.916718 0.366058
vt 0.340088 1.936178 0.366058
vt 0.399475 1.947989 0.366058
vt 0.633942 -0.952029 -0.274963
vt -0.040222 -0.952029 0.366058
vt 1.274963 -0.952029 0.366058
vt 0.633957 -0.952029 1.274963
vt 0.366043 -0.952029 -0.274963
vt 1.009338 -0.952029 0.366058
vt 1.040222 0.633957 -0.305816
vt 1.040222 0.366058 -0.305816
vt 1.274963 0.366058 -0.305816
vt 1.274963 0.366058 -0.305816
vt 1.274963 0.633957 -0.305816
vt 1.040222 0.633957 -0.305816
vt -0.040222 -0.305816 0.366058
vt -0.040222 0.970782 0.366058
vt -0.274963 0.970782 0.366058
vt -0.274963 0.970782 0.366058
vt -0.274963 -0.305816 0.366058
vt -0.040222 -0.305816 0.366058
vt 0.366058 -0.305816 1.274963
vt 0.633957 -0.305816 1.274963
vt 0.633957 0.970782 1.274963
vt 0.633957 0.970782 1.274963
vt 0.366058 0.970782 1.274963
vt 0.366058 -0.305816 1.274963
vt 0.633942 0.970782 -0.274963
vt 0.366043 0.970782 -0.274963
vt 0.366043 -0.305816 -0.274963
vt 0.366043 -0.305816 -0.274963
vt 0.633942 -0.305816 -0.274963
vt 0.633942 0.970782 -0.274963
vt 1.040222 0.633957 -0.305816
vt -0.009338 0.633957 -0.305816
vt -0.009338 0.366058 -0.305816
vt -0.009338 0.366058 -0.305816
vt 1.040222 0.366058 -0.305816
vt -0.009338 0.633957 -0.305816
vt -0.274963 0.633957 -0.305816
vt -0.274963 0.366058 -0.305816
vt -0.274963 0.366058 -0.305816
vt -0.009338 0.366058 -0.305816
vt 1.009338 -0.305816 0.366058
vt 1.274963 -0.305816 0.366058
vt 1.274963 0.970782 0.366058
vt 1.274963 0.970782 0.366058
vt 1.009338 0.970782 0.366058
vt 1.009338 -0.305816 0.366058
vt -0.040222 0.970782 0.366058
vt -0.040222 1.507570 0.366058
vt -0.274963 1.507568 0.366058
vt -0.274963 1.507568 0.366058
vt -0.274963 0.970782 0.366058
vt -0.040222 0.970782 0.366058
vt 0.633942 0.970782 -0.274963
vt 0.366043 1.507568 -0.274963
vt 0.366058 0.970782 1.274963
vt 0.633957 1.507568 1.274963
vt 0.366058 1.507568 1.274963
vt 0.366058 0.970782 1.274963
vt 1.009338 0.970782 0.366058
vt 1.274963 1.507568 0.366058
vt 1.009338 1.507570 0.366058
vt 1.009338 0.970782 0.366058
vt -0.040222 0.970782 0.366058
vt 1.009338 0.970782 0.366058
vt 1.009338 1.507570 0.366058
vt 1.009338 1.507570 0.366058
vt -0.040222 1.507570 0.366058
vt -0.040222 0.970782 0.366058
vt 1.040222 0.366058 0.970782
vt 1.040222 0.490509 0.970782
vt -0.009338 0.490509 0.970782
vt -0.009338 0.490509 0.970782
vt -0.009338 0.366058 0.970782
vt 1.040222 0.366058 0.970782
vt 0.366058 -0.305816 -0.040222
vt 0.490509 -0.305816 -0.040222
vt 0.490509 0.970782 -0.040222
vt 0.366058 -0.305816 -0.040222
vt 1.009338 0.366058 -0.305816
vt 1.009338 0.490509 -0.305816
vt -0.040222 0.490509 -0.305816
vt -0.040222 0.366058 -0.305816
vt 1.009338 0.366058 -0.305816
vt 0.633942 0.970782 1.009338
vt 0.509491 -0.305816 1.009338
vt 0.633942 -0.305816 1.009338
vt -0.040222 1.507570 0.366058
vt 1.009338 1.507570 0.366058
vt 0.972137 1.544776 0.366058
vt 0.972137 1.544776 0.366058
vt -0.003021 1.544776 0.366058
vt -0.040222 1.507570 0.366058
vt 0.972137 1.544776 0.366058
vt 0.936813 1.666239 0.366058
vt 0.936813 1.666239 0.366058
vt 0.876419 1.770872 0.366058
vt 0.972137 1.544776 0.366058
vt 0.876419 1.770872 0.366058
vt 0.876419 1.770872 0.366058
vt 0.790970 1.856309 0.366058
vt 0.790970 1.856309 0.366058
vt 0.686356 1.916718 0.366058
vt 0.876419 1.770872 0.366058
vt 0.686356 1.916718 0.366058
vt 0.972137 1.544776 0.366058
vt 0.686356 1.916718 0.366058
vt 0.686356 1.916718 0.366058
vt 0.569641 1.947989 0.366058
vt 0.569641 1.947989 0.366058
vt 0.461105 1.952029 0.366058
vt 0.686356 1.916718 0.366058
vt 0.461105 1.952029 0.366058
vt 0.461105 1.952029 0.366058
vt 0.340088 1.936178 0.366058
vt 0.340088 1.936178 0.366058
vt 0.228470 1.889943 0.366058
vt 0.461105 1.952029 0.366058
vt 0.228470 1.889943 0.366058
vt 0.686356 1.916718 0.366058
vt 0.228470 1.889943 0.366058
vt 0.972137 1.544776 0.366058
vt 0.228470 1.889943 0.366058
vt 0.228470 1.889943 0.366058
vt 0.132629 1.816390 0.366058
vt 0.132629 1.816390 0.366058
vt 0.059067 1.720535 0.366058
vt 0.228470 1.889943 0.366058
vt 0.059067 1.720535 0.366058
vt 0.059067 1.720535 0.366058
vt 0.012833 1.608908 0.366058
vt 0.059067 1.720535 0.366058
vt -0.003021 1.544776 0.366058
vt 0.228470 1.889943 0.366058
vt -0.003021 1.544776 0.366058
vt 0.972137 1.544776 0.366058
vt -0.003021 1.544776 0.366058
vt -0.274963 -0.952029 0.366058
vt -0.040222 -0.952029 0.366058
vt -0.040222 -0.305816 0.366058
vt -0.040222 -0.305816 0.366058
vt -0.274963 -0.305816 0.366058
vt -0.274963 -0.952029 0.366058
vt 0.366058 -0.952029 1.274963
vt 0.633957 -0.305816 1.274963
vt 0.366058 -0.305816 1.274963
vt 0.366058 -0.952029 1.274963
vt 0.366043 -0.952029 -0.274963
vt 0.633942 -0.305816 -0.274963
vt 1.009338 -0.952029 0.366058
vt 1.274963 -0.952029 0.366058
vt 1.009338 -0.305816 0.366058
vt 1.009338 -0.305816 0.366058
vt -0.040222 -0.952029 0.366058
vt 1.009338 -0.305816 0.366058
vt 0.000500 0.999500 0.000500
vt 0.078796 0.007793 0.999500
vt 0.994617 0.000500 0.999500
vt 0.999500 0.991924 0.000500
vt 0.999319 0.943146 0.049641
vt 0.009975 0.718193 0.283981
vt 0.054880 0.717827 0.283981
vt -0.199707 1.400574 0.000499
vt 1.199707 1.400574 0.000499
vt 0.532898 1.400574 0.999500
vt 0.619934 1.400574 0.989884
vt 0.705490 1.400574 0.961197
vt 0.788086 1.400574 0.913933
vt 0.866318 1.400574 0.848899
vt 0.938828 1.400574 0.767209
vt 1.004395 1.400574 0.670259
vt 1.061905 1.400574 0.559710
vt 1.110367 1.400574 0.437452
vt 1.148941 1.400574 0.305577
vt 1.176987 1.400574 0.166344
vt 1.194016 1.400574 0.045134
vt -0.194016 1.400574 0.045134
vt -0.176987 1.400574 0.166344
vt -0.148941 1.400574 0.305577
vt -0.110367 1.400574 0.437452
vt -0.061905 1.400574 0.559710
vt -0.004395 1.400574 0.670259
vt 0.061172 1.400574 0.767209
vt 0.133682 1.400574 0.848899
vt 0.211914 1.400574 0.913933
vt 0.294510 1.400574 0.961197
vt 0.380066 1.400574 0.989884
vt 0.467102 1.400574 0.999500
vt 0.531265 0.401611 0.915875
vt 0.532898 0.401611 0.999500
vt 0.468735 0.401611 0.915875
vt 0.467102 0.401611 0.999500
vt 0.613449 0.401611 0.906796
vt 0.619934 0.401611 0.989884
vt 0.692627 0.401611 0.880247
vt 0.705490 0.401611 0.961197
vt 0.769058 0.401611 0.836507
vt 0.788086 0.401611 0.913933
vt 0.841446 0.401611 0.776324
vt 0.866318 0.401611 0.848899
vt 0.908554 0.401611 0.700727
vt 0.938828 0.401611 0.767209
vt 0.969238 0.401611 0.611001
vt 1.004395 0.401611 0.670259
vt 1.022476 0.401611 0.508690
vt 1.061905 0.401611 0.559710
vt 1.067322 0.401611 0.395550
vt 1.110367 0.401611 0.437452
vt 1.103012 0.401611 0.273508
vt 1.148941 0.401611 0.305577
vt 1.128967 0.401611 0.144648
vt 1.176987 0.401611 0.166344
vt 1.150101 0.401611 0.000499
vt 1.194016 0.401611 0.025325
vt 1.199707 0.401611 0.000499
vt -0.150101 0.401611 0.000499
vt -0.199707 0.401611 0.000499
vt -0.194016 0.401611 0.025325
vt -0.128967 0.401611 0.144648
vt -0.176987 0.401611 0.166344
vt -0.103012 0.401611 0.273508
vt -0.148941 0.401611 0.305577
vt -0.067322 0.401611 0.395550
vt -0.110367 0.401611 0.437452
vt -0.022476 0.401611 0.508690
vt -0.061905 0.401611 0.559710
vt 0.030762 0.401611 0.611001
vt -0.004395 0.401611 0.670259
vt 0.091446 0.401611 0.700727
vt 0.061172 0.401611 0.767209
vt 0.158554 0.401611 0.776324
vt 0.133682 0.401611 0.848899
vt 0.230942 0.401611 0.836507
vt 0.211914 0.401611 0.913933
vt 0.307373 0.401611 0.880247
vt 0.294510 0.401611 0.961197
vt 0.386551 0.401611 0.906796
vt 0.380066 0.401611 0.989884
# 866 texture coords

g Aia_22e
usemtl Aia_22e_small_window
s off
f -161/-769/-843 -162/-768/-842 -163/-767/-841 
f -163/-767/-840 -164/-770/-839 -161/-769/-838 
f -157/-765/-837 -158/-764/-836 -159/-763/-835 
f -159/-763/-834 -160/-766/-833 -157/-765/-832 
usemtl Aia_22e_largewindow
f -168/-772/-831 -165/-786/-830 -166/-771/-829 
f -166/-771/-828 -167/-773/-827 -168/-772/-826 
usemtl Aia_22e_white
f -137/-761/-825 -138/-760/-824 -152/-759/-823 
f -156/-762/-822 -137/-761/-821 -152/-759/-820 
f -156/-762/-819 -152/-759/-818 -154/-758/-817 
usemtl Aia_22e_door
f -149/-734/-816 -148/-733/-815 -147/-732/-814 
f -147/-732/-813 -150/-735/-812 -149/-734/-811 
usemtl Aia_22e_white
f -145/-667/-810 -146/-666/-809 -153/-646/-808 
f -153/-646/-807 -155/-647/-806 -145/-667/-805 
f -142/-670/-804 -143/-671/-803 -137/-645/-802 
f -137/-645/-801 -156/-644/-800 -142/-670/-799 
f -142/-669/-798 -156/-643/-797 -154/-642/-796 
f -154/-642/-795 -141/-668/-794 -142/-669/-793 
f -140/-641/-792 -144/-665/-791 -145/-664/-790 
f -145/-664/-789 -155/-640/-788 -140/-641/-787 
f -140/-638/-786 -155/-637/-785 -153/-636/-784 
f -139/-639/-783 -140/-638/-782 -153/-636/-781 
f -139/-639/-780 -153/-636/-779 -151/-635/-778 
f -144/-578/-777 -140/-638/-776 -139/-639/-775 
f -143/-577/-774 -138/-760/-773 -137/-761/-772 
usemtl Aia_22e_gray_cement
f -117/-495/-771 -116/-494/-770 -134/-493/-769 
f -134/-492/-768 -136/-491/-767 -117/-490/-766 
f -136/-489/-765 -132/-488/-764 -118/-487/-763 
f -118/-486/-762 -117/-485/-761 -136/-484/-760 
f -132/-483/-759 -131/-482/-758 -119/-481/-757 
f -119/-480/-756 -118/-479/-755 -132/-478/-754 
f -96/-477/-753 -95/-476/-752 -94/-475/-751 
f -121/-474/-750 -120/-473/-749 -97/-472/-748 
f -129/-471/-747 -127/-470/-746 -122/-469/-745 
f -122/-468/-744 -98/-467/-743 -129/-466/-742 
f -121/-465/-741 -122/-464/-740 -126/-463/-739 
f -126/-462/-738 -128/-461/-737 -121/-460/-736 
f -114/-459/-735 -113/-458/-734 -121/-457/-733 
f -121/-456/-732 -128/-455/-731 -114/-454/-730 
f -135/-453/-729 -133/-452/-728 -116/-451/-727 
f -135/-450/-726 -116/-534/-725 -117/-449/-724 
f -135/-448/-723 -117/-447/-722 -115/-446/-721 
f -117/-445/-720 -118/-536/-719 -119/-444/-718 
f -119/-537/-717 -115/-443/-716 -117/-535/-715 
f -115/-442/-714 -113/-441/-713 -114/-440/-712 
f -114/-439/-711 -135/-438/-710 -115/-437/-709 
f -120/-436/-708 -121/-529/-707 -113/-435/-706 
f -113/-530/-705 -115/-533/-704 -120/-538/-703 
f -135/-434/-702 -114/-532/-701 -128/-433/-700 
f -135/-430/-699 -128/-531/-698 -126/-429/-697 
f -133/-428/-696 -135/-553/-695 -126/-427/-694 
f -124/-426/-693 -133/-425/-692 -126/-424/-691 
f -96/-423/-690 -131/-549/-689 -132/-422/-688 
f -130/-421/-687 -132/-420/-686 -136/-419/-685 
f -136/-418/-684 -134/-417/-683 -125/-416/-682 
f -136/-415/-681 -125/-414/-680 -112/-413/-679 
f -130/-412/-678 -136/-554/-677 -112/-411/-676 
f -130/-410/-675 -112/-409/-674 -127/-408/-673 
f -130/-407/-672 -127/-406/-671 -129/-405/-670 
f -111/-404/-669 -108/-403/-668 -164/-402/-667 
f -111/-401/-666 -164/-400/-665 -160/-399/-664 
f -111/-398/-663 -160/-397/-662 -159/-396/-661 
f -110/-395/-660 -111/-394/-659 -159/-393/-658 
f -110/-392/-657 -159/-513/-656 -158/-391/-655 
f -158/-390/-654 -157/-389/-653 -163/-388/-652 
f -110/-387/-651 -158/-512/-650 -163/-386/-649 
f -110/-385/-648 -163/-384/-647 -162/-383/-646 
f -161/-382/-645 -107/-381/-644 -112/-380/-643 
f -162/-379/-642 -161/-378/-641 -112/-377/-640 
f -162/-376/-639 -112/-375/-638 -125/-374/-637 
f -123/-373/-636 -124/-372/-635 -126/-371/-634 
f -165/-370/-633 -123/-369/-632 -126/-368/-631 
f -166/-367/-630 -165/-366/-629 -126/-365/-628 
f -166/-364/-627 -126/-544/-626 -122/-363/-625 
f -161/-362/-624 -164/-361/-623 -108/-360/-622 
f -161/-359/-621 -108/-358/-620 -109/-357/-619 
f -107/-356/-618 -161/-515/-617 -109/-355/-616 
f -157/-354/-615 -160/-514/-614 -164/-353/-613 
f -164/-518/-612 -163/-517/-611 -157/-511/-610 
f -168/-352/-609 -167/-351/-608 -106/-350/-607 
f -106/-349/-606 -105/-348/-605 -168/-347/-604 
f -168/-346/-603 -105/-509/-602 -104/-345/-601 
f -165/-344/-600 -168/-525/-599 -104/-343/-598 
f -123/-342/-597 -165/-522/-596 -104/-341/-595 
f -166/-340/-594 -122/-339/-593 -127/-338/-592 
f -127/-337/-591 -112/-528/-590 -107/-336/-589 
f -127/-335/-588 -107/-519/-587 -109/-334/-586 
f -127/-333/-585 -109/-521/-584 -108/-332/-583 
f -127/-331/-582 -108/-520/-581 -111/-330/-580 
f -166/-329/-579 -127/-545/-578 -111/-328/-577 
f -166/-327/-576 -111/-527/-575 -106/-326/-574 
f -167/-524/-573 -166/-523/-572 -106/-510/-571 
f -110/-325/-570 -162/-516/-569 -125/-324/-568 
f -133/-551/-567 -124/-323/-566 -103/-322/-565 
f -134/-552/-564 -102/-321/-563 -125/-320/-562 
f -101/-319/-561 -103/-507/-560 -124/-318/-559 
f -124/-542/-558 -123/-317/-557 -101/-316/-556 
f -100/-315/-555 -101/-505/-554 -123/-314/-553 
f -123/-541/-552 -104/-508/-551 -100/-504/-550 
f -102/-313/-549 -99/-503/-548 -110/-312/-547 
f -110/-526/-546 -125/-543/-545 -102/-506/-544 
f -96/-311/-543 -94/-310/-542 -93/-309/-541 
f -122/-540/-540 -121/-308/-539 -98/-307/-538 
f -97/-306/-537 -98/-305/-536 -121/-539/-535 
f -130/-304/-534 -129/-303/-533 -95/-302/-532 
f -95/-301/-531 -96/-300/-530 -130/-299/-529 
f -129/-298/-528 -98/-297/-527 -94/-296/-526 
f -94/-295/-525 -95/-499/-524 -129/-547/-523 
f -98/-294/-522 -97/-293/-521 -93/-292/-520 
f -93/-291/-519 -94/-498/-518 -98/-502/-517 
f -130/-548/-516 -96/-496/-515 -132/-550/-514 
usemtl Aia_22e_brown
f -88/-231/-513 -87/-230/-512 -90/-229/-511 
f -90/-228/-510 -92/-227/-509 -88/-226/-508 
f -87/-225/-507 -84/-224/-506 -83/-223/-505 
f -83/-222/-504 -90/-221/-503 -87/-220/-502 
f -89/-219/-501 -91/-218/-500 -81/-217/-499 
f -81/-216/-498 -80/-215/-497 -89/-214/-496 
f -83/-213/-495 -82/-212/-494 -92/-211/-493 
f -92/-210/-492 -90/-209/-491 -83/-208/-490 
f -88/-207/-489 -86/-206/-488 -85/-205/-487 
f -85/-204/-486 -87/-203/-485 -88/-283/-484 
f -86/-202/-483 -91/-201/-482 -89/-200/-481 
f -89/-199/-480 -85/-198/-479 -86/-281/-478 
f -85/-197/-477 -89/-196/-476 -80/-195/-475 
f -80/-194/-474 -79/-193/-473 -85/-192/-472 
f -84/-191/-471 -143/-190/-470 -142/-189/-469 
f -142/-188/-468 -83/-187/-467 -84/-186/-466 
f -83/-185/-465 -142/-265/-464 -141/-184/-463 
f -141/-264/-462 -82/-277/-461 -83/-278/-460 
f -80/-183/-459 -81/-276/-458 -146/-182/-457 
f -146/-269/-456 -145/-181/-455 -80/-180/-454 
f -79/-179/-453 -80/-275/-452 -145/-178/-451 
f -145/-268/-450 -144/-177/-449 -79/-176/-448 
f -84/-175/-447 -79/-174/-446 -144/-173/-445 
f -144/-172/-444 -143/-171/-443 -84/-170/-442 
f -84/-169/-441 -149/-168/-440 -150/-167/-439 
f -150/-166/-438 -79/-165/-437 -84/-164/-436 
f -87/-163/-435 -148/-162/-434 -149/-161/-433 
f -149/-272/-432 -84/-279/-431 -87/-160/-430 
f -85/-159/-429 -147/-158/-428 -148/-157/-427 
f -148/-271/-426 -87/-156/-425 -85/-155/-424 
f -79/-154/-423 -150/-273/-422 -147/-153/-421 
f -147/-270/-420 -85/-152/-419 -79/-274/-418 
f -143/-151/-417 -144/-150/-416 -66/-149/-415 
f -66/-148/-414 -65/-147/-413 -143/-146/-412 
f -66/-145/-411 -67/-252/-410 -68/-144/-409 
f -68/-143/-408 -69/-254/-407 -70/-142/-406 
f -66/-141/-405 -68/-253/-404 -70/-140/-403 
f -70/-139/-402 -71/-256/-401 -72/-138/-400 
f -72/-137/-399 -73/-258/-398 -74/-136/-397 
f -70/-135/-396 -72/-257/-395 -74/-134/-394 
f -66/-133/-393 -70/-255/-392 -74/-132/-391 
f -74/-131/-390 -75/-260/-389 -76/-130/-388 
f -76/-129/-387 -78/-263/-386 -77/-128/-385 
f -74/-127/-384 -76/-261/-383 -77/-126/-382 
f -77/-125/-381 -55/-238/-380 -56/-124/-379 
f -56/-123/-378 -57/-240/-377 -58/-122/-376 
f -77/-121/-375 -56/-239/-374 -58/-120/-373 
f -74/-119/-372 -77/-262/-371 -58/-118/-370 
f -66/-117/-369 -74/-259/-368 -58/-116/-367 
f -58/-115/-366 -59/-242/-365 -60/-114/-364 
f -60/-113/-363 -61/-244/-362 -62/-112/-361 
f -58/-111/-360 -60/-243/-359 -62/-110/-358 
f -62/-109/-357 -63/-246/-356 -64/-108/-355 
f -62/-107/-354 -64/-247/-353 -65/-106/-352 
f -58/-105/-351 -62/-245/-350 -65/-104/-349 
f -66/-103/-348 -58/-241/-347 -65/-102/-346 
f -144/-267/-345 -139/-250/-344 -66/-251/-343 
f -143/-266/-342 -65/-249/-341 -138/-248/-340 
f -54/-101/-339 -53/-100/-338 -87/-99/-337 
f -87/-98/-336 -90/-97/-335 -54/-96/-334 
f -52/-95/-333 -51/-234/-332 -91/-94/-331 
f -91/-286/-330 -89/-93/-329 -52/-92/-328 
f -50/-91/-327 -54/-237/-326 -90/-90/-325 
f -90/-285/-324 -92/-287/-323 -50/-233/-322 
f -49/-89/-321 -52/-88/-320 -85/-87/-319 
f -89/-284/-318 -85/-86/-317 -52/-235/-316 
f -53/-85/-315 -49/-232/-314 -85/-84/-313 
f -85/-280/-312 -87/-282/-311 -53/-236/-310 
usemtl Aia_22e_top
f -97/-82/-309 -120/-81/-308 -115/-79/-307 
f -93/-77/-306 -97/-82/-305 -115/-79/-304 
f -119/-80/-303 -131/-83/-302 -115/-79/-301 
f -131/-83/-300 -96/-78/-299 -115/-79/-298 
f -96/-78/-297 -93/-77/-296 -115/-79/-295 
usemtl Aia_22a_plekk_hele
f -23/-47/-294 -24/-49/-293 -48/-74/-292 
f -48/-74/-291 -25/-51/-290 -23/-47/-289 
f -139/-24/-288 -151/-75/-287 -37/-63/-286 
f -37/-63/-285 -12/-25/-284 -139/-24/-283 
f -138/-22/-282 -11/-21/-281 -36/-62/-280 
f -36/-62/-279 -152/-76/-278 -138/-22/-277 
f -22/-45/-276 -47/-73/-275 -48/-74/-274 
f -48/-74/-273 -24/-49/-272 -22/-45/-271 
f -21/-43/-270 -46/-72/-269 -47/-73/-268 
f -47/-73/-267 -22/-45/-266 -21/-43/-265 
f -20/-41/-264 -45/-71/-263 -46/-72/-262 
f -46/-72/-261 -21/-43/-260 -20/-41/-259 
f -19/-39/-258 -44/-70/-257 -45/-71/-256 
f -45/-71/-255 -20/-41/-254 -19/-39/-253 
f -18/-37/-252 -43/-69/-251 -44/-70/-250 
f -44/-70/-249 -19/-39/-248 -18/-37/-247 
f -17/-35/-246 -42/-68/-245 -43/-69/-244 
f -43/-69/-243 -18/-37/-242 -17/-35/-241 
f -16/-33/-240 -41/-67/-239 -42/-68/-238 
f -42/-68/-237 -17/-35/-236 -16/-33/-235 
f -15/-31/-234 -40/-66/-233 -41/-67/-232 
f -41/-67/-231 -16/-33/-230 -15/-31/-229 
f -14/-29/-228 -39/-65/-227 -40/-66/-226 
f -40/-66/-225 -15/-31/-224 -14/-29/-223 
f -13/-27/-222 -38/-64/-221 -39/-65/-220 
f -39/-65/-219 -14/-29/-218 -13/-27/-217 
f -13/-27/-216 -12/-25/-215 -37/-63/-214 
f -37/-63/-213 -38/-64/-212 -13/-27/-211 
f -10/-19/-210 -35/-61/-209 -36/-62/-208 
f -36/-62/-207 -11/-21/-206 -10/-19/-205 
f -9/-17/-204 -34/-60/-203 -35/-61/-202 
f -35/-61/-201 -10/-19/-200 -9/-17/-199 
f -8/-15/-198 -33/-59/-197 -34/-60/-196 
f -34/-60/-195 -9/-17/-194 -8/-15/-193 
f -7/-13/-192 -32/-58/-191 -33/-59/-190 
f -33/-59/-189 -8/-15/-188 -7/-13/-187 
f -6/-11/-186 -31/-57/-185 -32/-58/-184 
f -32/-58/-183 -7/-13/-182 -6/-11/-181 
f -5/-9/-180 -30/-56/-179 -31/-57/-178 
f -31/-57/-177 -6/-11/-176 -5/-9/-175 
f -4/-7/-174 -29/-55/-173 -30/-56/-172 
f -30/-56/-171 -5/-9/-170 -4/-7/-169 
f -3/-5/-168 -28/-54/-167 -29/-55/-166 
f -29/-55/-165 -4/-7/-164 -3/-5/-163 
f -2/-3/-162 -27/-53/-161 -28/-54/-160 
f -28/-54/-159 -3/-5/-158 -2/-3/-157 
f -1/-1/-156 -26/-52/-155 -27/-53/-154 
f -27/-53/-153 -2/-3/-152 -1/-1/-151 
f -23/-47/-150 -25/-51/-149 -26/-52/-148 
f -26/-52/-147 -1/-1/-146 -23/-47/-145 
f -24/-49/-144 -78/-50/-143 -76/-46/-142 
f -76/-46/-141 -22/-45/-140 -24/-49/-139 
f -24/-49/-138 -23/-47/-137 -77/-48/-136 
f -77/-48/-135 -78/-50/-134 -24/-49/-133 
f -23/-47/-132 -1/-1/-131 -55/-2/-130 
f -55/-2/-129 -77/-48/-128 -23/-47/-127 
f -76/-46/-126 -75/-44/-125 -21/-43/-124 
f -21/-43/-123 -22/-45/-122 -76/-46/-121 
f -75/-44/-120 -74/-42/-119 -20/-41/-118 
f -20/-41/-117 -21/-43/-116 -75/-44/-115 
f -74/-42/-114 -73/-40/-113 -19/-39/-112 
f -19/-39/-111 -20/-41/-110 -74/-42/-109 
f -73/-40/-108 -72/-38/-107 -18/-37/-106 
f -18/-37/-105 -19/-39/-104 -73/-40/-103 
f -72/-38/-102 -71/-36/-101 -17/-35/-100 
f -17/-35/-99 -18/-37/-98 -72/-38/-97 
f -71/-36/-96 -70/-34/-95 -16/-33/-94 
f -16/-33/-93 -17/-35/-92 -71/-36/-91 
f -70/-34/-90 -69/-32/-89 -15/-31/-88 
f -15/-31/-87 -16/-33/-86 -70/-34/-85 
f -69/-32/-84 -68/-30/-83 -14/-29/-82 
f -14/-29/-81 -15/-31/-80 -69/-32/-79 
f -68/-30/-78 -67/-28/-77 -13/-27/-76 
f -13/-27/-75 -14/-29/-74 -68/-30/-73 
f -67/-28/-72 -66/-26/-71 -12/-25/-70 
f -12/-25/-69 -13/-27/-68 -67/-28/-67 
f -66/-26/-66 -139/-24/-65 -12/-25/-64 
f -65/-23/-63 -11/-21/-62 -138/-22/-61 
f -11/-21/-60 -65/-23/-59 -64/-20/-58 
f -64/-20/-57 -10/-19/-56 -11/-21/-55 
f -64/-20/-54 -63/-18/-53 -9/-17/-52 
f -9/-17/-51 -10/-19/-50 -64/-20/-49 
f -63/-18/-48 -62/-16/-47 -8/-15/-46 
f -8/-15/-45 -9/-17/-44 -63/-18/-43 
f -62/-16/-42 -61/-14/-41 -7/-13/-40 
f -7/-13/-39 -8/-15/-38 -62/-16/-37 
f -61/-14/-36 -60/-12/-35 -6/-11/-34 
f -6/-11/-33 -7/-13/-32 -61/-14/-31 
f -60/-12/-30 -59/-10/-29 -5/-9/-28 
f -5/-9/-27 -6/-11/-26 -60/-12/-25 
f -59/-10/-24 -58/-8/-23 -4/-7/-22 
f -4/-7/-21 -5/-9/-20 -59/-10/-19 
f -58/-8/-18 -57/-6/-17 -3/-5/-16 
f -3/-5/-15 -4/-7/-14 -58/-8/-13 
f -57/-6/-12 -56/-4/-11 -2/-3/-10 
f -2/-3/-9 -3/-5/-8 -57/-6/-7 
f -56/-4/-6 -55/-2/-5 -1/-1/-4 
f -1/-1/-3 -2/-3/-2 -56/-4/-1 
# 281 faces

