# 3ds Max Wavefront OBJ Exporter v0.97b - (c)2007 guruware
# File Created: 21.08.2011 02:47:31

mtllib Pikk_41_2.mtl

#
# object Pikk_41_2
#

v  54.149910 264.453247 25.224533
v  54.149918 264.453247 18.020000
v  47.505596 254.341812 18.019999
v  47.505596 254.341843 25.224531
v  50.667480 267.385803 27.282017
v  55.304413 263.853729 27.177176
v  55.304413 263.853729 27.336843
v  55.544830 263.735565 27.336842
v  57.952534 268.421936 28.628500
v  55.544830 263.735565 24.315598
v  57.952526 268.421906 28.481577
v  51.808399 266.425049 27.202908
v  54.149899 264.453247 27.202908
v  55.544830 263.735565 18.020000
v  48.213249 255.494766 22.425400
v  48.289120 253.878113 22.423958
v  48.992020 255.003616 22.425329
v  48.289120 253.878113 18.019285
v  48.992020 255.003616 18.020657
v  48.213249 255.494766 18.020727
v  57.711376 268.548309 27.943562
v  57.711376 268.548340 28.628500
v  54.255230 270.502472 28.407965
v  54.255219 270.502441 27.905313
v  41.890171 257.716400 28.346273
v  41.890171 257.716400 18.020000
v  47.505592 254.341812 22.424671
v  47.646782 266.758270 18.020000
v  47.646793 266.758270 28.346272
v  50.654465 272.581421 28.467123
v  50.654461 272.581421 18.020000
v  47.151382 267.039429 28.608870
v  47.151390 267.039429 18.020000
v  51.054455 272.339111 28.470638
v  51.054455 272.339111 18.020000
v  51.214661 272.631775 28.476954
v  51.214653 272.631775 18.020000
v  67.222244 263.520050 28.484516
v  67.222244 263.520050 18.020000
v  57.711369 268.548309 18.020000
v  81.765244 257.143250 24.372421
v  81.765244 257.143250 18.020000
v  65.839104 263.684967 25.998917
v  65.521378 262.985443 25.998917
v  66.417496 263.410339 25.998917
v  66.099808 262.710968 25.998917
v  62.444874 261.845428 27.037573
v  63.538441 261.330933 25.133032
v  57.809734 264.114380 27.058456
v  58.803112 263.632141 25.039175
v  54.391190 270.728485 27.942474
v  54.391182 270.728455 28.473564
v  80.531311 257.723724 18.020000
v  80.531319 257.723724 25.571074
v  54.391193 270.728455 18.020000
v  52.957111 270.479370 25.998917
v  53.880562 269.943604 25.998919
v  53.223598 270.911469 25.998917
v  54.146877 270.375824 25.998919
v  44.068108 260.140472 25.998915
v  44.419811 260.682831 25.998917
v  43.641048 260.414978 25.998915
v  43.992619 260.957184 25.998917
v  46.153954 263.291656 25.998915
v  46.505665 263.834015 25.998917
v  45.726902 263.566162 25.998915
v  46.078465 264.108368 25.998917
v  47.350414 266.008270 25.998915
v  47.755001 266.684540 25.998917
v  46.859436 266.284943 28.824276
v  47.263687 266.963074 28.820431
v  47.211430 266.086487 28.834118
v  47.211483 266.086517 25.998915
v  47.623959 266.758514 25.998917
v  47.638214 266.750519 28.838665
v  58.868713 263.178131 23.806290
v  58.602654 262.649200 23.806290
v  59.327736 262.943085 23.806290
v  59.061684 262.414307 23.806290
v  81.765244 257.143250 19.750462
v  79.762436 252.261169 18.020002
v  79.762436 252.261169 19.756981
v  66.099823 262.710968 29.250534
v  66.417496 263.410339 29.250534
v  65.839104 263.684998 29.250534
v  65.521393 262.985474 29.250534
v  53.223610 270.911499 29.359154
v  52.957066 270.479340 29.359154
v  53.880543 269.943604 29.359156
v  54.146847 270.375824 29.359156
v  43.641090 260.414948 29.195875
v  44.068111 260.140411 29.195875
v  44.419796 260.682800 29.195877
v  43.992638 260.957123 29.195877
v  45.726944 263.566132 29.155958
v  46.153957 263.291565 29.155958
v  46.505646 263.833984 29.155960
v  46.078487 264.108307 29.155960
v  46.859444 266.284943 29.244238
v  47.350380 266.008148 29.244238
v  47.754990 266.684448 29.244240
v  47.263695 266.963074 29.244240
v  54.255245 270.502441 28.766903
v  51.054459 272.339111 28.767103
v  54.975891 270.344604 28.768053
v  54.975864 270.344574 27.943415
v  54.841072 270.120331 28.767843
v  54.841076 270.120331 27.906256
v  55.118866 269.961639 27.383965
v  53.012817 266.756622 27.299004
v  55.302704 265.251892 27.299004
v  57.408752 268.456940 27.383965
v  55.118866 269.961639 28.116947
v  53.012817 266.756622 28.116947
v  55.302704 265.251892 28.047857
v  57.408752 268.456940 28.047857
v  54.092232 266.047302 29.050898
v  56.198269 269.252350 29.050898
v  64.646332 259.064941 24.315598
v  64.646324 259.064941 18.020000
v  79.762436 252.261169 24.372423
v  71.928909 255.960999 24.315598
v  71.928909 255.960999 18.020000
v  72.781898 261.062317 28.484518
v  72.781906 261.062317 18.020000
v  77.616966 258.437103 28.484518
v  80.101395 257.088165 18.020000
v  80.101433 257.088226 25.722673
v  59.327721 262.943054 27.057907
v  58.868740 263.178223 27.057907
v  58.602665 262.649261 27.057907
v  59.061699 262.414337 27.057907
v  54.105389 264.538757 21.776804
v  53.366871 263.388489 21.169857
v  54.625008 262.693970 21.005165
v  55.221329 263.950470 21.198591
v  54.105389 264.538757 21.169857
v  54.391201 270.728485 28.767113
v  51.214127 272.633118 28.767124
v  44.074844 260.656128 27.569000
v  47.852791 257.566986 25.593622
v  48.215275 258.128754 27.425831
v  48.626785 258.732574 25.558521
v  46.207638 263.901337 27.568998
v  49.993996 260.822723 25.593622
v  50.355072 261.385406 27.425831
v  50.765106 261.990234 25.558521
v  48.010254 266.646484 27.568996
v  51.764729 263.528229 25.593622
v  52.131115 264.087524 27.425831
v  52.546803 264.688477 25.558521
v  61.369629 262.373932 24.980829
v  56.828403 264.613403 25.034273
v  81.549866 257.244568 24.581646
v  79.882561 253.971619 24.850880
v  79.461746 253.126755 24.948757
v  64.940834 259.574280 24.792215
v  72.041130 256.632172 24.864098
v  71.637207 256.799530 24.860008
v  71.656700 256.838776 24.896715
v  72.027588 257.585327 25.586819
v  72.188713 257.514801 25.585400
v  55.808891 264.249542 24.772499
v  58.240990 263.004395 24.777750
v  58.606739 263.732941 25.426474
v  56.188423 264.988251 25.429195
v  61.287815 261.444519 24.784328
v  62.894138 260.622131 24.787796
v  73.305237 256.035034 24.878519
v  73.725113 256.804626 25.636917
v  61.678482 262.254639 25.499844
v  63.317638 261.439453 25.529814
v  75.905312 256.328827 25.727373
v  76.723022 255.925827 27.096909
v  77.491394 255.584152 25.760088
v  71.971504 257.611603 25.479231
v  72.865623 257.164764 27.144855
v  73.744705 256.780029 25.499386
v  69.915535 260.049408 26.778954
v  69.084808 258.143311 25.055685
v  69.845924 257.811920 25.050348
v  70.676643 259.718018 26.774517
v  63.827381 264.167480 27.077473
v  58.948761 266.398987 27.098354
v  77.345161 257.254120 27.127008
v  73.778297 259.111694 27.184755
# 186 vertices

vn 0.835718 -0.549159 0.000002
vn 0.835718 -0.549159 0.000002
vn 0.835718 -0.549159 0.000002
vn 0.835718 -0.549159 0.000001
vn 0.835718 -0.549159 0.000001
vn 0.835718 -0.549159 0.000001
vn 0.889457 -0.457019 0.000049
vn 0.889457 -0.457019 0.000049
vn 0.889457 -0.457019 0.000049
vn 0.889475 -0.456983 0.000000
vn 0.889475 -0.456983 0.000000
vn 0.889475 -0.456983 0.000000
vn -0.644138 -0.764909 -0.000004
vn -0.644138 -0.764909 -0.000004
vn -0.644138 -0.764909 -0.000004
vn -0.644127 -0.764918 0.000018
vn -0.644127 -0.764918 0.000018
vn -0.644127 -0.764918 0.000018
vn -0.441097 -0.897459 0.000000
vn -0.441097 -0.897459 0.000000
vn -0.441097 -0.897459 0.000000
vn -0.441097 -0.897459 0.000000
vn -0.441097 -0.897459 0.000000
vn -0.441097 -0.897459 0.000000
vn -0.458431 -0.888728 -0.001817
vn -0.458431 -0.888728 -0.001817
vn -0.458431 -0.888728 -0.001817
vn -0.460851 -0.887478 -0.000003
vn -0.460851 -0.887478 -0.000003
vn -0.460851 -0.887478 -0.000003
vn -0.457496 -0.889212 0.000000
vn -0.457496 -0.889212 0.000000
vn -0.457496 -0.889212 0.000000
vn -0.457498 -0.889211 -0.000000
vn -0.457498 -0.889211 -0.000000
vn -0.457498 -0.889211 -0.000000
vn 0.848181 -0.529706 0.000000
vn 0.848181 -0.529706 0.000000
vn 0.848181 -0.529706 0.000000
vn 0.848181 -0.529706 0.000000
vn 0.848181 -0.529706 0.000000
vn 0.848181 -0.529706 0.000000
vn 0.533445 0.845834 0.000000
vn 0.533445 0.845834 0.000000
vn 0.533445 0.845834 0.000000
vn 0.533445 0.845834 0.000000
vn 0.533445 0.845834 0.000000
vn 0.533445 0.845834 0.000000
vn -0.889856 0.456242 -0.000020
vn -0.889856 0.456242 -0.000020
vn -0.889856 0.456242 -0.000020
vn -0.889857 0.456240 0.000000
vn -0.889857 0.456240 0.000000
vn -0.889857 0.456240 0.000000
vn 0.857457 -0.514557 0.000012
vn 0.857457 -0.514557 0.000012
vn 0.857457 -0.514557 0.000012
vn -0.515091 -0.857136 0.000000
vn -0.515091 -0.857136 0.000000
vn -0.515091 -0.857136 0.000000
vn -0.515094 -0.857134 0.000004
vn -0.515094 -0.857134 0.000004
vn -0.515094 -0.857134 0.000004
vn -0.509306 -0.860586 0.000000
vn -0.509306 -0.860586 0.000000
vn -0.509306 -0.860586 0.000000
vn -0.509304 -0.860587 -0.000000
vn -0.509304 -0.860587 -0.000000
vn -0.509304 -0.860587 -0.000000
vn -0.493578 -0.869701 -0.000000
vn -0.493578 -0.869701 -0.000000
vn -0.493578 -0.869701 -0.000000
vn -0.493592 -0.869693 0.000001
vn -0.493592 -0.869693 0.000001
vn -0.493592 -0.869693 0.000001
vn -0.843548 0.537054 0.000000
vn -0.843548 0.537054 0.000000
vn -0.843548 0.537054 0.000000
vn -0.843547 0.537055 0.000001
vn -0.843547 0.537055 0.000001
vn -0.843547 0.537055 0.000001
vn -0.845291 0.534307 0.000000
vn -0.845291 0.534307 0.000000
vn -0.845291 0.534307 0.000000
vn -0.845292 0.534305 -0.000001
vn -0.845292 0.534305 -0.000001
vn -0.845292 0.534305 -0.000001
vn 0.518128 0.855303 0.000000
vn 0.518128 0.855303 0.000000
vn 0.518128 0.855303 0.000000
vn 0.518132 0.855301 -0.000000
vn 0.518132 0.855301 -0.000000
vn 0.518132 0.855301 -0.000000
vn -0.877185 0.480153 0.000001
vn -0.877185 0.480153 0.000001
vn -0.877185 0.480153 0.000001
vn -0.877175 0.480171 0.000000
vn -0.877175 0.480171 0.000000
vn -0.877175 0.480171 0.000000
vn 0.467386 0.884053 0.000000
vn 0.467386 0.884053 0.000000
vn 0.467386 0.884053 0.000000
vn 0.467467 0.884010 -0.000095
vn 0.467467 0.884010 -0.000095
vn 0.467467 0.884010 -0.000095
vn 0.513979 0.857803 -0.000000
vn 0.513979 0.857803 -0.000000
vn 0.513979 0.857803 -0.000000
vn 0.000000 0.000000 -1.000000
vn 0.000000 0.000000 -1.000000
vn 0.000000 0.000000 -1.000000
vn 0.000000 0.000000 -1.000000
vn 0.000000 0.000000 -1.000000
vn 0.000000 0.000000 -1.000000
vn 0.471299 0.881973 -0.000208
vn 0.471299 0.881973 -0.000208
vn 0.471299 0.881973 -0.000208
vn 0.513981 0.857802 0.000057
vn 0.513981 0.857802 0.000057
vn 0.513981 0.857802 0.000057
vn 0.425677 0.904875 0.000000
vn 0.425677 0.904875 0.000000
vn 0.425677 0.904875 0.000000
vn 0.425679 0.904874 -0.000000
vn 0.425679 0.904874 -0.000000
vn 0.425679 0.904874 -0.000000
vn -0.999851 -0.017253 0.000001
vn -0.999851 -0.017253 0.000001
vn -0.999851 -0.017253 0.000001
vn 0.464247 0.885706 -0.000003
vn 0.464247 0.885706 -0.000003
vn 0.464247 0.885706 -0.000003
vn 0.513974 0.857806 -0.000002
vn 0.513974 0.857806 -0.000002
vn 0.513974 0.857806 -0.000002
vn 0.548886 0.835897 -0.000000
vn 0.548886 0.835897 -0.000000
vn 0.548886 0.835897 -0.000000
vn 0.548882 0.835900 -0.000002
vn 0.548882 0.835900 -0.000002
vn 0.548882 0.835900 -0.000002
vn 0.000002 -0.000001 -1.000000
vn 0.000002 -0.000001 -1.000000
vn 0.000002 -0.000001 -1.000000
vn 0.000002 -0.000001 -1.000000
vn 0.000002 -0.000001 -1.000000
vn 0.000002 -0.000001 -1.000000
vn 0.000002 0.000002 -1.000000
vn 0.000002 0.000002 -1.000000
vn 0.000002 0.000002 -1.000000
vn 0.000002 0.000002 -1.000000
vn 0.000002 0.000002 -1.000000
vn 0.000002 0.000002 -1.000000
vn 0.000002 0.000002 -1.000000
vn 0.000002 0.000002 -1.000000
vn 0.000002 0.000002 -1.000000
vn 0.000002 0.000002 -1.000000
vn 0.000002 0.000002 -1.000000
vn 0.000002 0.000002 -1.000000
vn 0.000001 0.000002 -1.000000
vn 0.000001 0.000002 -1.000000
vn 0.000001 0.000002 -1.000000
vn 0.000001 0.000002 -1.000000
vn 0.000001 0.000002 -1.000000
vn 0.000001 0.000002 -1.000000
vn 0.018528 -0.016714 -0.999689
vn 0.018528 -0.016714 -0.999689
vn 0.018528 -0.016714 -0.999689
vn 0.038487 -0.017894 -0.999099
vn 0.038487 -0.017894 -0.999099
vn 0.038487 -0.017894 -0.999099
vn -0.841232 0.540674 -0.000010
vn -0.841232 0.540674 -0.000010
vn -0.841232 0.540674 -0.000010
vn -0.852244 0.523112 0.005751
vn -0.852244 0.523112 0.005751
vn -0.852244 0.523112 0.005751
vn 0.000000 0.000000 -1.000000
vn 0.000000 0.000000 -1.000000
vn 0.000000 0.000000 -1.000000
vn 0.000000 0.000000 -1.000000
vn 0.000000 0.000000 -1.000000
vn 0.000000 0.000000 -1.000000
vn 0.425677 0.904875 0.000000
vn 0.425677 0.904875 0.000000
vn 0.425677 0.904875 0.000000
vn 0.925175 -0.379541 0.000000
vn 0.925175 -0.379541 0.000000
vn 0.925175 -0.379541 0.000000
vn 0.925175 -0.379541 0.000000
vn 0.925175 -0.379541 0.000000
vn 0.925175 -0.379541 0.000000
vn -0.910484 0.413545 -0.000004
vn -0.910484 0.413545 -0.000004
vn -0.910484 0.413545 -0.000004
vn -0.910491 0.413528 0.000000
vn -0.910491 0.413528 0.000000
vn -0.910491 0.413528 0.000000
vn 0.910476 -0.413562 0.000000
vn 0.910476 -0.413562 0.000000
vn 0.910476 -0.413562 0.000000
vn 0.910468 -0.413578 -0.000004
vn 0.910468 -0.413578 -0.000004
vn 0.910468 -0.413578 -0.000004
vn 0.428918 0.903343 -0.000008
vn 0.428918 0.903343 -0.000008
vn 0.428918 0.903343 -0.000008
vn 0.428957 0.903325 0.000000
vn 0.428957 0.903325 0.000000
vn 0.428957 0.903325 0.000000
vn -0.428740 -0.903428 0.000010
vn -0.428740 -0.903428 0.000010
vn -0.428740 -0.903428 0.000010
vn -0.428701 -0.903446 0.000002
vn -0.428701 -0.903446 0.000002
vn -0.428701 -0.903446 0.000002
vn -0.501834 -0.864964 -0.000015
vn -0.501834 -0.864964 -0.000015
vn -0.501834 -0.864964 -0.000015
vn -0.501802 -0.864983 -0.000003
vn -0.501802 -0.864983 -0.000003
vn -0.501802 -0.864983 -0.000003
vn 0.501857 0.864951 -0.000010
vn 0.501857 0.864951 -0.000010
vn 0.501857 0.864951 -0.000010
vn 0.501818 0.864973 0.000005
vn 0.501818 0.864973 0.000005
vn 0.501818 0.864973 0.000005
vn -0.851148 0.524926 -0.000007
vn -0.851148 0.524926 -0.000007
vn -0.851148 0.524926 -0.000007
vn -0.851130 0.524954 -0.000002
vn -0.851130 0.524954 -0.000002
vn -0.851130 0.524954 -0.000002
vn 0.851375 -0.524558 0.000005
vn 0.851375 -0.524558 0.000005
vn 0.851375 -0.524558 0.000005
vn 0.851365 -0.524574 0.000008
vn 0.851365 -0.524574 0.000008
vn 0.851365 -0.524574 0.000008
vn 0.839029 -0.544086 -0.000011
vn 0.839029 -0.544086 -0.000011
vn 0.839029 -0.544086 -0.000011
vn 0.839057 -0.544044 -0.000001
vn 0.839057 -0.544044 -0.000001
vn 0.839057 -0.544044 -0.000001
vn -0.839056 0.544045 0.000016
vn -0.839056 0.544045 0.000016
vn -0.839056 0.544045 0.000016
vn -0.839054 0.544049 0.000015
vn -0.839054 0.544049 0.000015
vn -0.839054 0.544049 0.000015
vn -0.540712 -0.841208 -0.000015
vn -0.540712 -0.841208 -0.000015
vn -0.540712 -0.841208 -0.000015
vn -0.540789 -0.841158 -0.000001
vn -0.540789 -0.841158 -0.000001
vn -0.540789 -0.841158 -0.000001
vn 0.540368 0.841429 0.000011
vn 0.540368 0.841429 0.000011
vn 0.540368 0.841429 0.000011
vn 0.540380 0.841421 0.000013
vn 0.540380 0.841421 0.000013
vn 0.540380 0.841421 0.000013
vn 0.839024 -0.544094 -0.000017
vn 0.839024 -0.544094 -0.000017
vn 0.839024 -0.544094 -0.000017
vn 0.839068 -0.544026 -0.000000
vn 0.839068 -0.544026 -0.000000
vn 0.839068 -0.544026 -0.000000
vn -0.839059 0.544041 0.000016
vn -0.839059 0.544041 0.000016
vn -0.839059 0.544041 0.000016
vn -0.839059 0.544040 0.000017
vn -0.839059 0.544040 0.000017
vn -0.839059 0.544040 0.000017
vn -0.540719 -0.841203 -0.000024
vn -0.540719 -0.841203 -0.000024
vn -0.540719 -0.841203 -0.000024
vn -0.540838 -0.841127 -0.000001
vn -0.540838 -0.841127 -0.000001
vn -0.540838 -0.841127 -0.000001
vn 0.540368 0.841429 0.000011
vn 0.540368 0.841429 0.000011
vn 0.540368 0.841429 0.000011
vn 0.540373 0.841425 0.000012
vn 0.540373 0.841425 0.000012
vn 0.540373 0.841425 0.000012
vn 0.858147 -0.513403 -0.000011
vn 0.858147 -0.513403 -0.000011
vn 0.858147 -0.513403 -0.000011
vn 0.858150 -0.513399 -0.000010
vn 0.858150 -0.513399 -0.000010
vn 0.858150 -0.513399 -0.000010
vn -0.858958 0.512047 0.000015
vn -0.858958 0.512047 0.000015
vn -0.858958 0.512047 0.000015
vn -0.858958 0.512046 0.000016
vn -0.858958 0.512046 0.000016
vn -0.858958 0.512046 0.000016
vn -0.491029 -0.871143 -0.000038
vn -0.491029 -0.871143 -0.000038
vn -0.491029 -0.871143 -0.000038
vn -0.491127 -0.871088 0.000006
vn -0.491127 -0.871088 0.000006
vn -0.491127 -0.871088 0.000006
vn 0.493596 0.869691 -0.000441
vn 0.493596 0.869691 -0.000441
vn 0.493596 0.869691 -0.000441
vn 0.491589 0.870827 -0.000016
vn 0.491589 0.870827 -0.000016
vn 0.491589 0.870827 -0.000016
vn 0.492367 0.870388 0.000026
vn 0.492367 0.870388 0.000026
vn 0.492367 0.870388 0.000026
vn -0.490729 -0.871312 -0.000019
vn -0.490729 -0.871312 -0.000019
vn -0.490729 -0.871312 -0.000019
vn -0.491125 -0.871089 0.000009
vn -0.491125 -0.871089 0.000009
vn -0.491125 -0.871089 0.000009
vn 0.493314 0.869851 -0.000009
vn 0.493314 0.869851 -0.000009
vn 0.493314 0.869851 -0.000009
vn 0.857063 -0.515212 -0.000009
vn 0.857063 -0.515212 -0.000009
vn 0.857063 -0.515212 -0.000009
vn -0.497697 -0.867351 -0.000053
vn -0.497697 -0.867351 -0.000053
vn -0.497697 -0.867351 -0.000053
vn -0.497701 -0.867349 0.000006
vn -0.497701 -0.867349 0.000006
vn -0.497701 -0.867349 0.000006
vn 0.857083 -0.515178 0.000004
vn 0.857083 -0.515178 0.000004
vn 0.857083 -0.515178 0.000004
vn -0.546317 -0.837578 -0.000048
vn -0.546317 -0.837578 -0.000048
vn -0.546317 -0.837578 -0.000048
vn -0.546298 -0.837591 0.000063
vn -0.546298 -0.837591 0.000063
vn -0.546298 -0.837591 0.000063
vn -0.546337 -0.837565 -0.000002
vn -0.546337 -0.837565 -0.000002
vn -0.546337 -0.837565 -0.000002
vn -0.835718 0.549159 0.000000
vn -0.835718 0.549159 0.000000
vn -0.835718 0.549159 0.000000
vn -0.835718 0.549159 0.000000
vn -0.835718 0.549159 0.000000
vn -0.835718 0.549159 0.000000
vn -0.549165 -0.835714 0.000000
vn -0.549165 -0.835714 0.000000
vn -0.549165 -0.835714 0.000000
vn -0.549173 -0.835709 0.000000
vn -0.549173 -0.835709 0.000000
vn -0.549173 -0.835709 0.000000
vn 0.835720 -0.549155 0.000000
vn 0.835720 -0.549155 0.000000
vn 0.835720 -0.549155 0.000000
vn 0.835721 -0.549155 0.000000
vn 0.835721 -0.549155 0.000000
vn 0.835721 -0.549155 0.000000
vn 0.549157 0.835719 0.000000
vn 0.549157 0.835719 0.000000
vn 0.549157 0.835719 0.000000
vn 0.549158 0.835719 0.000004
vn 0.549158 0.835719 0.000004
vn 0.549158 0.835719 0.000004
vn 0.475791 -0.312644 0.822117
vn 0.475791 -0.312644 0.822117
vn 0.475791 -0.312644 0.822117
vn -0.489690 0.321780 0.810346
vn -0.489690 0.321780 0.810346
vn -0.489690 0.321780 0.810346
vn -0.489699 0.321781 0.810341
vn -0.489699 0.321781 0.810341
vn -0.489699 0.321781 0.810341
vn -0.549162 -0.835716 -0.000009
vn -0.549162 -0.835716 -0.000009
vn -0.549162 -0.835716 -0.000009
vn 0.475794 -0.312644 0.822116
vn 0.475794 -0.312644 0.822116
vn 0.475794 -0.312644 0.822116
vn 0.549153 0.835721 0.000000
vn 0.549153 0.835721 0.000000
vn 0.549153 0.835721 0.000000
vn -0.456563 -0.889691 0.000001
vn -0.456563 -0.889691 0.000001
vn -0.456563 -0.889691 0.000001
vn -0.456564 -0.889691 0.000000
vn -0.456564 -0.889691 0.000000
vn -0.456564 -0.889691 0.000000
vn 0.925175 -0.379541 0.000000
vn 0.925175 -0.379541 0.000000
vn 0.925175 -0.379541 0.000000
vn 0.925175 -0.379541 0.000000
vn 0.925175 -0.379541 0.000000
vn 0.925175 -0.379541 0.000000
vn -0.392087 -0.919928 0.000000
vn -0.392087 -0.919928 0.000000
vn -0.392087 -0.919928 0.000000
vn -0.392087 -0.919928 0.000000
vn -0.392087 -0.919928 0.000000
vn -0.392087 -0.919928 0.000000
vn -0.427069 -0.904219 0.000000
vn -0.427069 -0.904219 0.000000
vn -0.427069 -0.904219 0.000000
vn -0.427069 -0.904219 0.000000
vn -0.427069 -0.904219 0.000000
vn -0.427069 -0.904219 0.000000
vn -0.427069 -0.904219 0.000000
vn -0.427069 -0.904219 0.000000
vn -0.427069 -0.904219 0.000000
vn 0.404320 0.914617 0.000000
vn 0.404320 0.914617 0.000000
vn 0.404320 0.914617 0.000000
vn -0.828289 0.560300 -0.000000
vn -0.828289 0.560300 -0.000000
vn -0.828289 0.560300 -0.000000
vn 0.477157 0.878818 -0.000001
vn 0.477157 0.878818 -0.000001
vn 0.477157 0.878818 -0.000001
vn -0.828296 0.560291 0.000001
vn -0.828296 0.560291 0.000001
vn -0.828296 0.560291 0.000001
vn 0.477129 0.878833 -0.000009
vn 0.477129 0.878833 -0.000009
vn 0.477129 0.878833 -0.000009
vn 0.477158 0.878817 0.000000
vn 0.477158 0.878817 0.000000
vn 0.477158 0.878817 0.000000
vn 0.404321 0.914617 0.000000
vn 0.404321 0.914617 0.000000
vn 0.404321 0.914617 0.000000
vn 0.000000 0.000000 1.000000
vn 0.000000 0.000000 1.000000
vn 0.000000 0.000000 1.000000
vn 0.000000 0.000000 1.000000
vn 0.000000 0.000000 1.000000
vn 0.000000 0.000000 1.000000
vn -0.000002 0.000001 1.000000
vn -0.000002 0.000001 1.000000
vn -0.000002 0.000001 1.000000
vn -0.000002 0.000001 1.000000
vn -0.000002 0.000001 1.000000
vn -0.000002 0.000001 1.000000
vn -0.000002 -0.000002 1.000000
vn -0.000002 -0.000002 1.000000
vn -0.000002 -0.000002 1.000000
vn -0.000002 -0.000002 1.000000
vn -0.000002 -0.000002 1.000000
vn -0.000002 -0.000002 1.000000
vn -0.000002 -0.000002 1.000000
vn -0.000002 -0.000002 1.000000
vn -0.000002 -0.000002 1.000000
vn -0.000002 -0.000002 1.000000
vn -0.000002 -0.000002 1.000000
vn -0.000002 -0.000002 1.000000
vn -0.000001 -0.000002 1.000000
vn -0.000001 -0.000002 1.000000
vn -0.000001 -0.000002 1.000000
vn -0.000001 -0.000002 1.000000
vn -0.000001 -0.000002 1.000000
vn -0.000001 -0.000002 1.000000
vn 0.000000 0.000000 1.000000
vn 0.000000 0.000000 1.000000
vn 0.000000 0.000000 1.000000
vn 0.000000 0.000000 1.000000
vn 0.000000 0.000000 1.000000
vn 0.000000 0.000000 1.000000
vn -0.893347 0.449367 -0.000005
vn -0.893347 0.449367 -0.000005
vn -0.893347 0.449367 -0.000005
vn -0.893347 0.449367 -0.000005
vn -0.893347 0.449367 -0.000005
vn -0.893347 0.449367 -0.000005
vn 0.893300 -0.449460 -0.000000
vn 0.893300 -0.449460 -0.000000
vn 0.893300 -0.449460 -0.000000
vn 0.893300 -0.449460 0.000000
vn 0.893300 -0.449460 0.000000
vn 0.893300 -0.449460 0.000000
vn 0.455780 0.890093 -0.000029
vn 0.455780 0.890093 -0.000029
vn 0.455780 0.890093 -0.000029
vn 0.456000 0.889980 0.000010
vn 0.456000 0.889980 0.000010
vn 0.456000 0.889980 0.000010
vn -0.455583 -0.890193 0.000018
vn -0.455583 -0.890193 0.000018
vn -0.455583 -0.890193 0.000018
vn -0.455539 -0.890216 0.000010
vn -0.455539 -0.890216 0.000010
vn -0.455539 -0.890216 0.000010
vn -0.107291 -0.409226 0.906103
vn -0.107291 -0.409226 0.906103
vn -0.107291 -0.409226 0.906103
vn 0.315879 -0.289029 0.903705
vn 0.315879 -0.289029 0.903705
vn 0.315879 -0.289029 0.903705
vn -0.035845 0.168647 -0.985025
vn -0.035845 0.168647 -0.985025
vn -0.035845 0.168647 -0.985025
vn -0.841491 0.540271 0.000000
vn -0.841491 0.540271 0.000000
vn -0.841491 0.540271 0.000000
vn 0.466336 0.884607 0.000000
vn 0.466336 0.884607 0.000000
vn 0.466336 0.884607 0.000000
vn 0.019233 -0.012348 -0.999739
vn 0.019233 -0.012348 -0.999739
vn 0.019233 -0.012348 -0.999739
vn -0.110544 -0.210899 0.971237
vn -0.110544 -0.210899 0.971237
vn -0.110544 -0.210899 0.971237
vn -0.104905 -0.213455 0.971304
vn -0.104905 -0.213455 0.971304
vn -0.104905 -0.213455 0.971304
vn -0.081027 -0.121792 0.989243
vn -0.081027 -0.121792 0.989243
vn -0.081027 -0.121792 0.989243
vn -0.093771 -0.111352 0.989347
vn -0.093771 -0.111352 0.989347
vn -0.093771 -0.111352 0.989347
vn -0.075192 -0.113781 0.990656
vn -0.075192 -0.113781 0.990656
vn -0.075192 -0.113781 0.990656
vn -0.048825 -0.136492 0.989437
vn -0.048825 -0.136492 0.989437
vn -0.048825 -0.136492 0.989437
vn -0.142038 -0.220469 0.964997
vn -0.142038 -0.220469 0.964997
vn -0.142038 -0.220469 0.964997
vn -0.120481 -0.222731 0.967406
vn -0.120481 -0.222731 0.967406
vn -0.120481 -0.222731 0.967406
vn -0.000406 -0.000684 1.000000
vn -0.000406 -0.000684 1.000000
vn -0.000406 -0.000684 1.000000
vn 0.000016 -0.000080 1.000000
vn 0.000016 -0.000080 1.000000
vn 0.000016 -0.000080 1.000000
vn -0.108139 -0.221529 0.969139
vn -0.108139 -0.221529 0.969139
vn -0.108139 -0.221529 0.969139
vn -0.001588 0.000027 0.999999
vn -0.001588 0.000027 0.999999
vn -0.001588 0.000027 0.999999
vn -0.001594 0.000022 0.999999
vn -0.001594 0.000022 0.999999
vn -0.001594 0.000022 0.999999
vn -0.480827 -0.807115 0.342594
vn -0.480827 -0.807115 0.342594
vn -0.480827 -0.807115 0.342594
vn 0.494380 0.789281 0.364175
vn 0.494380 0.789281 0.364175
vn 0.494380 0.789281 0.364175
vn -0.478593 -0.808441 0.342595
vn -0.478593 -0.808441 0.342595
vn -0.478593 -0.808441 0.342595
vn 0.492196 0.790647 0.364172
vn 0.492196 0.790647 0.364172
vn 0.492196 0.790647 0.364172
vn -0.486989 -0.803399 0.342627
vn -0.486989 -0.803399 0.342627
vn -0.486989 -0.803399 0.342627
vn 0.500410 0.785468 0.364183
vn 0.500410 0.785468 0.364183
vn 0.500410 0.785468 0.364183
vn 0.362961 -0.231083 0.902696
vn 0.362961 -0.231083 0.902696
vn 0.362961 -0.231083 0.902696
vn 0.352929 -0.231914 0.906453
vn 0.352929 -0.231914 0.906453
vn 0.352929 -0.231914 0.906453
vn 0.363213 -0.208202 0.908146
vn 0.363213 -0.208202 0.908146
vn 0.363213 -0.208202 0.908146
vn 0.363013 -0.206417 0.908633
vn 0.363013 -0.206417 0.908633
vn 0.363013 -0.206417 0.908633
vn 0.363193 -0.206335 0.908580
vn 0.363193 -0.206335 0.908580
vn 0.363193 -0.206335 0.908580
vn 0.000394 -0.000873 1.000000
vn 0.000394 -0.000873 1.000000
vn 0.000394 -0.000873 1.000000
vn -0.000486 -0.000915 1.000000
vn -0.000486 -0.000915 1.000000
vn -0.000486 -0.000915 1.000000
vn 0.513976 0.857799 -0.003024
vn 0.513976 0.857799 -0.003024
vn 0.513976 0.857799 -0.003024
vn 0.514176 0.857685 -0.000123
vn 0.514176 0.857685 -0.000123
vn 0.514176 0.857685 -0.000123
vn -0.877175 0.480171 0.000011
vn -0.877175 0.480171 0.000011
vn -0.877175 0.480171 0.000011
vn -0.878766 0.477238 -0.003826
vn -0.878766 0.477238 -0.003826
vn -0.878766 0.477238 -0.003826
vn 0.548771 0.835972 0.000056
vn 0.548771 0.835972 0.000056
vn 0.548771 0.835972 0.000056
vn 0.548875 0.835905 -0.000049
vn 0.548875 0.835905 -0.000049
vn 0.548875 0.835905 -0.000049
vn 0.548834 0.835931 -0.000123
vn 0.548834 0.835931 -0.000123
vn 0.548834 0.835931 -0.000123
vn -0.077280 -0.117608 0.990049
vn -0.077280 -0.117608 0.990049
vn -0.077280 -0.117608 0.990049
vn 0.611253 -0.250758 0.750660
vn 0.611253 -0.250758 0.750660
vn 0.611253 -0.250758 0.750660
vn 0.658118 -0.245335 0.711822
vn 0.658118 -0.245335 0.711822
vn 0.658118 -0.245335 0.711822
vn 0.615477 -0.252109 0.746746
vn 0.615477 -0.252109 0.746746
vn 0.615477 -0.252109 0.746746
vn -0.247904 -0.581640 0.774751
vn -0.247904 -0.581640 0.774751
vn -0.247904 -0.581640 0.774751
vn -0.251036 -0.587027 0.769663
vn -0.251036 -0.587027 0.769663
vn -0.251036 -0.587027 0.769663
vn -0.251016 -0.587025 0.769671
vn -0.251016 -0.587025 0.769671
vn -0.251016 -0.587025 0.769671
vn -0.252638 -0.591029 0.766067
vn -0.252638 -0.591029 0.766067
vn -0.252638 -0.591029 0.766067
vn -0.250278 -0.587220 0.769762
vn -0.250278 -0.587220 0.769762
vn -0.250278 -0.587220 0.769762
vn -0.250254 -0.587224 0.769767
vn -0.250254 -0.587224 0.769767
vn -0.250254 -0.587224 0.769767
vn -0.283996 -0.551410 0.784406
vn -0.283996 -0.551410 0.784406
vn -0.283996 -0.551410 0.784406
vn -0.287882 -0.598036 0.747982
vn -0.287882 -0.598036 0.747982
vn -0.287882 -0.598036 0.747982
vn -0.281963 -0.578413 0.765464
vn -0.281963 -0.578413 0.765464
vn -0.281963 -0.578413 0.765464
vn -0.286644 -0.588553 0.755937
vn -0.286644 -0.588553 0.755937
vn -0.286644 -0.588553 0.755937
vn -0.283178 -0.551821 0.784413
vn -0.283178 -0.551821 0.784413
vn -0.283178 -0.551821 0.784413
vn -0.288380 -0.560005 0.776680
vn -0.288380 -0.560005 0.776680
vn -0.288380 -0.560005 0.776680
vn -0.286197 -0.553046 0.782453
vn -0.286197 -0.553046 0.782453
vn -0.286197 -0.553046 0.782453
vn -0.288387 -0.560015 0.776670
vn -0.288387 -0.560015 0.776670
vn -0.288387 -0.560015 0.776670
vn -0.288388 -0.560017 0.776668
vn -0.288388 -0.560017 0.776668
vn -0.288388 -0.560017 0.776668
vn -0.288392 -0.560020 0.776664
vn -0.288392 -0.560020 0.776664
vn -0.288392 -0.560020 0.776664
vn -0.281966 -0.578404 0.765470
vn -0.281966 -0.578404 0.765470
vn -0.281966 -0.578404 0.765470
vn -0.291663 -0.575566 0.763974
vn -0.291663 -0.575566 0.763974
vn -0.291663 -0.575566 0.763974
vn -0.285112 -0.553595 0.782460
vn -0.285112 -0.553595 0.782460
vn -0.285112 -0.553595 0.782460
vn -0.290812 -0.556134 0.778552
vn -0.290812 -0.556134 0.778552
vn -0.290812 -0.556134 0.778552
vn -0.433094 -0.901334 -0.005190
vn -0.433094 -0.901334 -0.005190
vn -0.433094 -0.901334 -0.005190
vn -0.444986 -0.895523 -0.005043
vn -0.444986 -0.895523 -0.005043
vn -0.444986 -0.895523 -0.005043
vn 0.833116 -0.553077 0.004754
vn 0.833116 -0.553077 0.004754
vn 0.833116 -0.553077 0.004754
vn 0.834484 -0.551012 0.004766
vn 0.834484 -0.551012 0.004766
vn 0.834484 -0.551012 0.004766
vn 0.829268 -0.558831 0.004759
vn 0.829268 -0.558831 0.004759
vn 0.829268 -0.558831 0.004759
vn -0.424744 -0.905223 -0.012769
vn -0.424744 -0.905223 -0.012769
vn -0.424744 -0.905223 -0.012769
vn -0.424407 -0.905346 -0.015053
vn -0.424407 -0.905346 -0.015053
vn -0.424407 -0.905346 -0.015053
vn -0.251046 -0.586885 0.769767
vn -0.251046 -0.586885 0.769767
vn -0.251046 -0.586885 0.769767
vn -0.250197 -0.587036 0.769928
vn -0.250197 -0.587036 0.769928
vn -0.250197 -0.587036 0.769928
vn -0.746701 0.435940 0.502388
vn -0.746701 0.435940 0.502388
vn -0.746701 0.435940 0.502388
vn 0.722617 -0.439402 0.533620
vn 0.722617 -0.439402 0.533620
vn 0.722617 -0.439402 0.533620
vn -0.789509 0.385279 0.477740
vn -0.789509 0.385279 0.477740
vn -0.789509 0.385279 0.477740
vn 0.781862 -0.398187 0.479728
vn 0.781862 -0.398187 0.479728
vn 0.781862 -0.398187 0.479728
vn -0.309560 -0.570141 0.760994
vn -0.309560 -0.570141 0.760994
vn -0.309560 -0.570141 0.760994
vn -0.285112 -0.553596 0.782459
vn -0.285112 -0.553596 0.782459
vn -0.285112 -0.553596 0.782459
vn -0.285058 -0.550856 0.784411
vn -0.285058 -0.550856 0.784411
vn -0.285058 -0.550856 0.784411
vn -0.283886 -0.550934 0.784781
vn -0.283886 -0.550934 0.784781
vn -0.283886 -0.550934 0.784781
vn -0.289111 -0.552599 0.781696
vn -0.289111 -0.552599 0.781696
vn -0.289111 -0.552599 0.781696
vn -0.293570 -0.554693 0.778545
vn -0.293570 -0.554693 0.778545
vn -0.293570 -0.554693 0.778545
vn -0.289723 -0.559287 0.776697
vn -0.289723 -0.559287 0.776697
vn -0.289723 -0.559287 0.776697
vn -0.291112 -0.598222 0.746581
vn -0.291112 -0.598222 0.746581
vn -0.291112 -0.598222 0.746581
vn -0.312186 -0.574958 0.756282
vn -0.312186 -0.574958 0.756282
vn -0.312186 -0.574958 0.756282
vn -0.298913 -0.592400 0.748140
vn -0.298913 -0.592400 0.748140
vn -0.298913 -0.592400 0.748140
vn -0.285112 -0.553595 0.782460
vn -0.285112 -0.553595 0.782460
vn -0.285112 -0.553595 0.782460
vn -0.287331 -0.557939 0.778553
vn -0.287331 -0.557939 0.778553
vn -0.287331 -0.557939 0.778553
vn 0.629176 -0.250048 0.735944
vn 0.629176 -0.250048 0.735944
vn 0.629176 -0.250048 0.735944
vn 0.611650 -0.249839 0.750643
vn 0.611650 -0.249839 0.750643
vn 0.611650 -0.249839 0.750643
vn 0.658107 -0.245335 0.711833
vn 0.658107 -0.245335 0.711833
vn 0.658107 -0.245335 0.711833
vn 0.658112 -0.245330 0.711830
vn 0.658112 -0.245330 0.711830
vn 0.658112 -0.245330 0.711830
vn -0.758732 0.342819 0.553896
vn -0.758732 0.342819 0.553896
vn -0.758732 0.342819 0.553896
vn 0.761961 -0.368945 0.532254
vn 0.761961 -0.368945 0.532254
vn 0.761961 -0.368945 0.532254
vn -0.780517 0.355347 0.514316
vn -0.780517 0.355347 0.514316
vn -0.780517 0.355347 0.514316
vn 0.778286 -0.375161 0.503513
vn 0.778286 -0.375161 0.503513
vn 0.778286 -0.375161 0.503513
vn -0.250912 -0.586581 0.770043
vn -0.250912 -0.586581 0.770043
vn -0.250912 -0.586581 0.770043
vn -0.255974 -0.579041 0.774073
vn -0.255974 -0.579041 0.774073
vn -0.255974 -0.579041 0.774073
vn -0.254341 -0.578307 0.775159
vn -0.254341 -0.578307 0.775159
vn -0.254341 -0.578307 0.775159
vn -0.253132 -0.592200 0.764998
vn -0.253132 -0.592200 0.764998
vn -0.253132 -0.592200 0.764998
vn -0.250292 -0.587250 0.769735
vn -0.250292 -0.587250 0.769735
vn -0.250292 -0.587250 0.769735
vn -0.250274 -0.587221 0.769763
vn -0.250274 -0.587221 0.769763
vn -0.250274 -0.587221 0.769763
vn -0.251473 -0.586485 0.769933
vn -0.251473 -0.586485 0.769933
vn -0.251473 -0.586485 0.769933
vn -0.250280 -0.587216 0.769764
vn -0.250280 -0.587216 0.769764
vn -0.250280 -0.587216 0.769764
vn -0.252474 -0.591105 0.766062
vn -0.252474 -0.591105 0.766062
vn -0.252474 -0.591105 0.766062
vn -0.250255 -0.587226 0.769765
vn -0.250255 -0.587226 0.769765
vn -0.250255 -0.587226 0.769765
vn -0.250286 -0.587216 0.769762
vn -0.250286 -0.587216 0.769762
vn -0.250286 -0.587216 0.769762
# 816 vertex normals

vt 2.714771 2.901513 3.870483
vt 2.714771 -1.901509 3.870483
vt -2.870453 -1.901511 -1.714777
vt -2.870453 2.901511 -1.714777
vt 0.393147 4.273168 5.825516
vt 3.484436 4.203273 3.470810
vt 3.484436 4.309718 3.470810
vt 3.644714 4.309718 3.392029
vt 6.516281 5.170823 5.249851
vt 3.644714 2.295556 3.392029
vt 6.516281 5.072877 5.249851
vt 1.153759 4.220429 5.185013
vt 2.714760 4.220429 3.870483
vt 3.644711 -1.901509 3.392029
vt 2.243008 1.035423 -2.101837
vt -3.179611 1.034462 -1.192425
vt 1.723827 1.035377 -2.429276
vt -3.179611 -1.901986 -1.192425
vt 1.723827 -1.901073 -2.429276
vt 2.243008 -1.901025 -2.101837
vt -2.470810 4.203273 3.484436
vt -5.600525 4.714198 5.089081
vt -2.470810 4.309718 3.484436
vt -5.600525 5.170823 5.089081
vt 5.185013 4.220429 1.153759
vt 7.903305 5.023799 2.784981
vt 7.903275 4.688701 2.784973
vt -1.714777 -1.901511 -2.870453
vt -1.714777 2.901511 -2.870453
vt -5.458395 4.982671 -0.620728
vt -5.458395 -1.901509 -0.620728
vt -1.714781 1.034938 -2.870453
vt -1.192425 1.034462 -3.179611
vt -1.714781 -1.901511 -2.870453
vt -1.192425 -1.901986 -3.179611
vt 3.870483 2.901513 2.714771
vt -2.870453 -1.901511 -1.714777
vt 3.870483 -1.901509 2.714771
vt 3.870483 2.901513 2.714771
vt 3.392029 2.295556 3.644714
vt 6.516281 5.170823 5.249851
vt 3.392029 4.309718 3.644714
vt 3.392029 2.295556 3.644714
vt 2.714760 4.220429 3.870483
vt 1.153759 4.220429 5.185013
vt 2.714771 2.901513 3.870483
vt 2.714771 2.901513 3.870483
vt 3.484436 4.203273 3.470810
vt 3.644714 4.309718 3.392029
vt 3.644714 2.295556 3.392029
vt 3.484436 4.203273 3.470810
vt 3.484436 4.203273 3.470810
vt 2.714771 2.901513 3.870483
vt 3.644714 2.295556 3.392029
vt 2.714771 2.901513 3.870483
vt 3.644711 -1.901509 3.392029
vt 2.714771 2.901513 3.870483
vt -3.179611 -1.901986 -1.192425
vt -2.429276 -1.901073 -0.723827
vt -2.429276 1.035377 -0.723827
vt -2.429276 1.035377 -0.723827
vt 1.723827 -1.901073 -2.429276
vt 2.243008 1.035423 -2.101837
vt -2.470810 4.309718 3.484436
vt -5.600525 4.714198 5.089081
vt -1.714777 2.901511 -2.870453
vt -5.458395 -1.901509 -0.620728
vt -1.714781 -1.901511 -2.870453
vt -1.192425 1.034462 -3.179611
vt -3.104900 2.302400 0.000000
vt -6.709800 5.907300 0.000000
vt -6.709800 2.302400 0.000000
vt -3.104900 5.907300 0.000000
vt -6.709800 5.907300 0.000000
vt -6.709800 2.302400 0.000000
vt -5.131264 2.302400 0.000000
vt -5.219429 5.907300 0.000000
vt -3.104900 2.302400 0.000000
vt -3.104900 5.907300 0.000000
vt -3.104900 2.302400 0.000000
vt -3.104900 5.907300 0.000000
vt 22.388201 2.261600 0.000000
vt 14.390300 2.261600 0.000000
vt 13.812200 -3.005900 0.000000
vt 21.331100 -3.005900 0.000000
vt -3.104900 2.302400 0.000000
vt -3.104900 0.523800 0.000000
vt 0.500000 0.523800 0.000000
vt 0.500000 2.302400 0.000000
vt 4.104900 2.302400 0.000000
vt 4.104900 0.523800 0.000000
vt 7.709800 0.523800 0.000000
vt 7.709800 2.302400 0.000000
vt -3.104900 -1.302400 0.000000
vt -6.709800 -1.302400 0.000000
vt -6.709800 -4.907300 0.000000
vt -3.104900 -4.907300 0.000000
vt -6.709800 5.907300 0.000000
vt -6.709800 2.302400 0.000000
vt -3.104900 5.907300 0.000000
vt 11.259800 2.261600 0.000000
vt 8.801000 2.261600 0.000000
vt 9.857300 -3.005900 0.000000
vt 11.191800 -3.005900 0.000000
vt 11.217400 -1.026200 0.000000
vt 11.248900 1.417500 0.000000
vt -3.104900 0.198700 0.000000
vt -3.104900 0.043100 0.000000
vt -3.104900 -0.201700 0.000000
vt 0.500000 -0.201700 0.000000
vt 4.104900 -0.201700 0.000000
vt 7.709800 -0.201700 0.000000
vt 7.709800 0.117500 0.000000
vt 7.709800 0.242700 0.000000
vt 5.929800 -3.005900 0.000000
vt 2.918100 2.261600 0.000000
vt -3.104900 -0.830200 0.000000
vt 0.500000 -1.302400 0.000000
vt 4.104900 -1.302400 0.000000
vt 7.709800 -1.302400 0.000000
vt 26.639099 -3.005900 0.000000
vt 9.996100 3.447700 0.000000
vt 9.197000 7.935600 0.000000
vt 2.429800 7.923800 0.000000
vt 3.021800 3.421700 0.000000
vt 13.210900 -8.969400 0.000000
vt 13.210900 -4.325300 0.000000
vt 9.473700 -9.064900 0.000000
vt 13.692000 7.847900 0.000000
vt 12.224800 2.261600 0.000000
vt 12.192800 1.349600 0.000000
vt 12.106500 -1.116500 0.000000
vt 12.040300 -3.005900 0.000000
vt 0.781200 0.906300 0.000000
vt 0.510700 0.906300 0.000000
vt 0.532400 0.120600 0.000000
vt 0.798500 0.114800 0.000000
vt 0.001900 0.002000 0.000000
vt 0.331400 0.002000 0.000000
vt 0.331400 0.331500 0.000000
vt 0.001900 0.331500 0.000000
vt 0.001900 0.998000 0.000000
vt 0.001900 0.668500 0.000000
vt 0.331400 0.668500 0.000000
vt 0.331400 0.998000 0.000000
vt 0.338700 0.998000 0.000000
vt 0.338700 0.668500 0.000000
vt 0.668200 0.668500 0.000000
vt 0.668200 0.998000 0.000000
vt 0.338700 0.002000 0.000000
vt 0.668200 0.002000 0.000000
vt 0.668200 0.331500 0.000000
vt 0.338700 0.331500 0.000000
vt 0.617700 0.335300 0.000000
vt 0.947100 0.335300 0.000000
vt 0.947100 0.664700 0.000000
vt 0.617700 0.664700 0.000000
vt 0.282400 0.335300 0.000000
vt 0.611800 0.335300 0.000000
vt 0.611800 0.664700 0.000000
vt 0.282400 0.664700 0.000000
vt 0.000000 1.000000 0.000000
vt 0.000000 0.000000 0.000000
vt 0.500000 0.000000 0.000000
vt 0.500000 1.000000 0.000000
vt 1.000000 0.000000 0.000000
vt 1.000000 1.000000 0.000000
vt 11.217352 -1.026532 0.000000
vt 11.248868 1.414763 0.000000
vt -3.104900 2.247394 0.000000
vt -3.104900 2.302400 0.000000
vt -3.104900 2.302400 0.000000
vt -3.104900 2.425863 0.000000
vt -3.104900 2.380642 0.000000
vt 0.500000 -1.196772 0.000000
vt -2.698325 -1.178259 0.000000
vt -3.104900 -1.173390 0.000000
vt 13.210901 -7.700583 0.000000
vt 0.500000 -1.259209 0.000000
vt -2.946405 -1.254006 0.000000
vt 13.210901 -8.474777 0.000000
vt -1.456247 -0.799010 0.000000
vt -2.140220 -0.662012 0.000000
vt -1.505010 0.256439 0.000000
vt -3.104900 2.265103 0.000000
vt -3.104900 2.259315 0.000000
vt -3.104900 5.907300 0.000000
vt -3.104900 2.302400 0.000000
vt -3.104900 3.961053 0.000000
vt -3.104900 5.907300 0.000000
vt 11.251390 1.609442 0.000000
vt -3.104900 0.198700 0.000000
vt -3.104900 0.043100 0.000000
vt 0.331400 0.002000 0.000000
vt 0.331400 0.331500 0.000000
vt 0.001900 0.331500 0.000000
vt 0.001900 0.002000 0.000000
vt 0.001900 0.668500 0.000000
vt 0.331400 0.668500 0.000000
vt 0.331400 0.998000 0.000000
vt 0.001900 0.998000 0.000000
vt 0.338700 0.668500 0.000000
vt 0.668200 0.668500 0.000000
vt 0.668200 0.998000 0.000000
vt 0.338700 0.998000 0.000000
vt 0.668200 0.002000 0.000000
vt 0.668200 0.331500 0.000000
vt 0.338700 0.331500 0.000000
vt 0.338700 0.002000 0.000000
vt 0.947100 0.335300 0.000000
vt 0.947100 0.664700 0.000000
vt 0.617700 0.664700 0.000000
vt 0.617700 0.335300 0.000000
vt 0.611800 0.335300 0.000000
vt 0.611800 0.664700 0.000000
vt 0.282400 0.664700 0.000000
vt 0.282400 0.335300 0.000000
vt 0.000000 0.000000 0.000000
vt 0.500000 0.000000 0.000000
vt 0.331400 0.002000 0.000000
vt 0.331400 0.331500 0.000000
vt 0.001900 0.331500 0.000000
vt 0.001900 0.002000 0.000000
vt 0.001900 0.668500 0.000000
vt 0.331400 0.668500 0.000000
vt 0.331400 0.998000 0.000000
vt 0.001900 0.998000 0.000000
vt 0.338700 0.668500 0.000000
vt 0.668200 0.668500 0.000000
vt 0.668200 0.998000 0.000000
vt 0.338700 0.998000 0.000000
vt 0.668200 0.002000 0.000000
vt 0.668200 0.331500 0.000000
vt 0.338700 0.331500 0.000000
vt 0.338700 0.002000 0.000000
vt 0.947100 0.335300 0.000000
vt 0.947100 0.664700 0.000000
vt 0.617700 0.664700 0.000000
vt 0.617700 0.335300 0.000000
vt 0.611800 0.335300 0.000000
vt 0.611800 0.664700 0.000000
vt 0.282400 0.664700 0.000000
vt 0.282400 0.335300 0.000000
vt 0.331400 0.002000 0.000000
vt 0.331400 0.331500 0.000000
vt 0.001900 0.331500 0.000000
vt 0.001900 0.002000 0.000000
vt 0.001900 0.668500 0.000000
vt 0.331400 0.668500 0.000000
vt 0.331400 0.998000 0.000000
vt 0.001900 0.998000 0.000000
vt 0.338700 0.668500 0.000000
vt 0.668200 0.668500 0.000000
vt 0.668200 0.998000 0.000000
vt 0.338700 0.998000 0.000000
vt 0.668200 0.002000 0.000000
vt 0.668200 0.331500 0.000000
vt 0.338700 0.331500 0.000000
vt 0.338700 0.002000 0.000000
vt 0.947100 0.335300 0.000000
vt 0.947100 0.664700 0.000000
vt 0.617700 0.664700 0.000000
vt 0.617700 0.335300 0.000000
vt 0.611800 0.335300 0.000000
vt 0.611800 0.664700 0.000000
vt 0.282400 0.664700 0.000000
vt 0.282400 0.335300 0.000000
vt 0.331400 0.002000 0.000000
vt 0.331400 0.331500 0.000000
vt 0.001900 0.331500 0.000000
vt 0.001900 0.002000 0.000000
vt 0.001900 0.668500 0.000000
vt 0.331400 0.668500 0.000000
vt 0.331400 0.998000 0.000000
vt 0.001900 0.998000 0.000000
vt 0.338700 0.668500 0.000000
vt 0.668200 0.668500 0.000000
vt 0.668200 0.998000 0.000000
vt 0.338700 0.998000 0.000000
vt 0.668200 0.002000 0.000000
vt 0.668200 0.331500 0.000000
vt 0.338700 0.331500 0.000000
vt 0.338700 0.002000 0.000000
vt 0.947100 0.335300 0.000000
vt 0.947100 0.664700 0.000000
vt 0.617700 0.664700 0.000000
vt 0.617700 0.335300 0.000000
vt 0.611800 0.335300 0.000000
vt 0.611800 0.664700 0.000000
vt 0.282400 0.664700 0.000000
vt 0.282400 0.335300 0.000000
vt 0.331400 0.002000 0.000000
vt 0.331400 0.331500 0.000000
vt 0.001900 0.331500 0.000000
vt 0.001900 0.002000 0.000000
vt 0.001900 0.668500 0.000000
vt 0.331400 0.668500 0.000000
vt 0.331400 0.998000 0.000000
vt 0.001900 0.998000 0.000000
vt 0.338700 0.668500 0.000000
vt 0.668200 0.668500 0.000000
vt 0.668200 0.998000 0.000000
vt 0.338700 0.998000 0.000000
vt 0.668200 0.002000 0.000000
vt 0.668200 0.331500 0.000000
vt 0.338700 0.331500 0.000000
vt 0.338700 0.002000 0.000000
vt 0.947100 0.335300 0.000000
vt 0.947100 0.664700 0.000000
vt 0.617700 0.664700 0.000000
vt 0.617700 0.335300 0.000000
vt 0.611800 0.335300 0.000000
vt 0.611800 0.664700 0.000000
vt 0.282400 0.664700 0.000000
vt 0.282400 0.335300 0.000000
vt 0.043168 0.668500 0.000000
vt 0.658955 0.664700 0.000000
vt 0.043168 0.709768 0.000000
vt 0.043168 0.998000 0.000000
vt 0.570544 0.664700 0.000000
vt 0.668200 0.290232 0.000000
vt 0.658955 0.335300 0.000000
vt 0.379968 0.290232 0.000000
vt 0.338700 0.290232 0.000000
vt 0.570544 0.335300 0.000000
vt 0.658955 0.623445 0.000000
vt 0.570544 0.376556 0.000000
vt 0.331400 0.230395 0.000000
vt 0.617700 0.563626 0.000000
vt 0.093120 0.240280 0.000000
vt 0.001900 0.244064 0.000000
vt 0.611800 0.577290 0.000000
vt 0.439780 0.668500 0.000000
vt 0.947100 0.563651 0.000000
vt 0.435751 0.765551 0.000000
vt 0.426106 0.998000 0.000000
vt 0.282400 0.577321 0.000000
vt 0.658955 0.563627 0.000000
vt 0.718766 0.563634 0.000000
vt 0.570544 0.577294 0.000000
vt 0.369787 0.577313 0.000000
vt 0.650391 0.563627 0.000000
vt 0.599285 0.577294 0.000000
vt 0.570544 0.577294 0.000000
vt 0.570544 0.376556 0.000000
vt 0.369787 0.577313 0.000000
vt 0.331400 0.002000 0.000000
vt 0.331400 0.331500 0.000000
vt 0.001900 0.331500 0.000000
vt 0.001900 0.002000 0.000000
vt 0.001900 0.668500 0.000000
vt 0.331400 0.668500 0.000000
vt 0.331400 0.998000 0.000000
vt 0.001900 0.998000 0.000000
vt 0.338700 0.668500 0.000000
vt 0.668200 0.668500 0.000000
vt 0.668200 0.998000 0.000000
vt 0.338700 0.998000 0.000000
vt 0.668200 0.002000 0.000000
vt 0.668200 0.331500 0.000000
vt 0.338700 0.331500 0.000000
vt 0.338700 0.002000 0.000000
vt 0.947100 0.335300 0.000000
vt 0.947100 0.664700 0.000000
vt 0.617700 0.664700 0.000000
vt 0.617700 0.335300 0.000000
vt 0.611800 0.335300 0.000000
vt 0.611800 0.664700 0.000000
vt 0.282400 0.664700 0.000000
vt 0.282400 0.335300 0.000000
vt -6.709800 -3.921592 0.000000
vt 5.090608 -1.302400 0.000000
vt -3.104900 -3.881938 0.000000
vt -0.525362 -1.302400 0.000000
vt -0.720520 0.065756 -0.000702
vt 1.720512 0.065755 1.000702
vt -0.720520 0.934245 -0.000702
vt 1.720512 0.930985 1.000702
vt -6.832008 5.681022 4.504372
vt 7.673172 5.681022 4.854057
vt 7.962368 5.681022 4.991386
vt -7.121223 5.681022 4.641624
vt 7.962368 4.055213 4.991371
vt -7.121231 4.055213 4.641609
vt 7.673172 4.055213 4.854057
vt -6.832016 4.055213 4.504372
vt -7.604652 5.735332 -13.270113
vt -7.388573 5.735332 -13.403385
vt 8.120705 5.735332 -12.941647
vt 8.336815 5.735332 -12.808495
vt -7.388588 4.055213 -13.403362
vt 8.120705 4.055214 -12.941637
vt -7.604637 4.055213 -13.270119
vt 8.336815 4.055214 -12.808479
vt -18.061375 5.653692 3.356377
vt -17.847864 5.653692 3.219109
vt 18.672022 5.653693 3.490303
vt 18.885601 5.653693 3.627464
vt -17.847866 4.055212 3.219139
vt 18.672014 4.055213 3.490318
vt -18.061396 4.055212 3.356392
vt 18.885611 4.055213 3.627495
vt -17.018448 5.633734 4.931969
vt -16.804941 5.633734 4.794685
vt 17.629097 5.633735 5.065895
vt 17.842674 5.633735 5.203056
vt -16.804943 4.055212 4.794731
vt 17.629087 4.055213 5.065910
vt -17.018469 4.055212 4.931984
vt 17.842686 4.055213 5.203087
vt -16.452196 5.677874 6.291374
vt -16.206728 5.677874 6.152977
vt 17.004423 5.677875 6.491127
vt 17.250071 5.677875 6.630440
vt -16.206711 4.055212 6.153038
vt 17.004417 4.055213 6.491173
vt -16.452200 5.467893 6.291374
vt 17.250074 5.465970 6.630440
vt -16.276203 5.472814 6.192146
vt -16.276176 4.055212 6.192162
vt 17.069939 4.055213 6.528160
vt 17.062811 5.475087 6.524162
vt -12.754303 5.259736 8.400139
vt -14.354691 5.291075 9.318459
vt -12.754295 5.439206 8.400124
vt -14.354689 5.439306 9.318459
vt -12.754309 5.008412 8.400124
vt 8.321205 5.439781 -12.393972
vt 8.321190 5.027462 -12.393986
vt -12.461382 5.439676 8.209068
vt -12.461380 5.008883 8.209068
vt -0.720520 0.934245 -0.000702
vt 1.720512 0.065755 1.000702
vt -3.991386 5.681022 -6.962368
vt -3.991371 4.055213 -6.962368
vt -3.641609 4.055213 -7.121231
vt -3.641609 4.055213 -7.121231
vt -3.641624 5.681022 -7.121223
vt -3.991386 5.681022 -6.962368
vt 4.854057 4.055213 -6.673172
vt 4.854057 5.681022 -6.673172
vt 4.504372 5.681022 -6.832008
vt 4.504372 5.681022 -6.832008
vt 4.504372 4.055213 -6.832016
vt 4.854057 4.055213 -6.673172
vt 7.673172 4.055213 4.854057
vt 7.962368 5.681022 4.991386
vt -6.832008 5.681022 4.504372
vt -7.121231 4.055213 4.641609
vt -13.403385 5.735332 8.388573
vt -13.403362 4.055213 8.388588
vt -12.941637 4.055214 8.120705
vt -12.941637 4.055214 8.120705
vt -12.941647 5.735332 8.120705
vt -13.403385 5.735332 8.388573
vt 14.270119 4.055213 8.604637
vt 14.270113 5.735332 8.604652
vt 13.808495 5.735332 8.336815
vt 13.808495 5.735332 8.336815
vt 13.808479 4.055214 8.336815
vt 14.270119 4.055213 8.604637
vt -7.604637 4.055213 -13.270119
vt -7.388573 5.735332 -13.403385
vt 8.336815 5.735332 -12.808495
vt 8.120705 4.055214 -12.941637
vt 3.219109 5.653692 -17.847864
vt 3.219139 4.055212 -17.847866
vt 3.490318 4.055213 -17.672014
vt 3.490318 4.055213 -17.672014
vt 3.490303 5.653693 -17.672022
vt 3.219109 5.653692 -17.847864
vt -2.356392 4.055212 -18.061396
vt -2.356377 5.653692 -18.061375
vt -2.627464 5.653693 -17.885601
vt -2.627464 5.653693 -17.885601
vt -2.627495 4.055213 -17.885611
vt -2.356392 4.055212 -18.061396
vt -18.061396 4.055212 3.356392
vt -17.847864 5.653692 3.219109
vt 18.885601 5.653693 3.627464
vt 18.672014 4.055213 3.490318
vt 4.794685 5.633734 -16.804941
vt 4.794731 4.055212 -16.804943
vt 5.065910 4.055213 -16.629087
vt 5.065910 4.055213 -16.629087
vt 5.065895 5.633735 -16.629097
vt 4.794685 5.633734 -16.804941
vt -3.931984 4.055212 -17.018469
vt -3.931969 5.633734 -17.018448
vt -4.203056 5.633735 -16.842674
vt -4.203056 5.633735 -16.842674
vt -4.203087 4.055213 -16.842686
vt -3.931984 4.055212 -17.018469
vt -17.018469 4.055212 4.931984
vt -16.804941 5.633734 4.794685
vt 17.842674 5.633735 5.203056
vt 17.629087 4.055213 5.065910
vt 6.491173 4.055213 -16.004417
vt 6.491127 5.677875 -16.004423
vt 6.152977 5.677874 -16.206728
vt 6.152977 5.677874 -16.206728
vt 6.153038 4.055212 -16.206711
vt 6.491173 4.055213 -16.004417
vt -5.630440 5.465970 -16.250074
vt -5.291374 5.467893 -16.452200
vt -5.630440 5.677875 -16.250071
vt -5.291374 5.467893 -16.452200
vt -5.291374 5.677874 -16.452196
vt -5.630440 5.677875 -16.250071
vt -16.276203 5.472814 6.192146
vt -16.206711 4.055212 6.153038
vt -16.206728 5.677874 6.152977
vt -16.452196 5.677874 6.291374
vt -16.276203 5.472814 6.192146
vt 17.250074 5.465970 6.630440
vt 17.004423 5.677875 6.491127
vt 17.062811 5.475087 6.524162
vt 17.062811 5.475087 6.524162
vt 17.004417 4.055213 6.491173
vt 17.004423 5.677875 6.491127
vt -16.276203 5.472814 6.192146
vt 8.321190 5.027462 -12.393986
vt 8.209068 5.439676 -12.461382
vt -14.354691 5.291075 9.318459
vt -12.754303 5.259736 8.400139
vt -12.754295 5.439206 8.400124
vt -12.754295 5.439206 8.400124
vt 8.209068 5.439676 -12.461382
vt 8.209068 5.008883 -12.461380
vt -12.754303 5.259736 8.400139
vt -12.461382 5.439676 8.209068
vt -12.754303 5.259736 8.400139
vt -12.461380 5.008883 8.209068
vt 0.999500 0.999500 0.048948
vt 0.000500 0.999501 0.000500
vt 0.000500 0.000500 0.000500
vt 0.999500 0.000500 0.048948
vt 0.999500 0.999500 0.466924
vt 0.000500 0.999501 0.466924
vt 0.000500 0.000500 0.427527
vt 0.999500 0.000500 0.427527
vt 0.000500 0.528588 0.999500
vt 0.999500 0.528592 0.999500
vt -6.055103 2.059692 3.368607
vt -1.504356 2.059692 1.033279
vt -6.055103 -1.088106 3.368607
vt -1.504356 -1.088106 1.033279
vt 0.072433 2.088104 7.055103
vt 6.053699 2.088105 -2.368599
vt 6.053699 -1.088105 -2.368599
vt 2.136936 2.059692 -0.518684
vt 2.136936 -1.088106 -0.518684
vt 6.053699 -0.219616 -2.368599
vt 0.072433 -0.222876 7.055103
vt -1.504356 -1.088106 1.033279
vt -1.504356 2.059692 1.033279
vt -6.055103 2.059692 3.368607
vt -1.504356 -1.088106 1.033279
vt -2.368599 2.088105 6.053699
vt -2.368599 -0.219616 6.053699
vt 0.072433 -0.222876 7.055103
vt -2.368599 2.088105 6.053699
vt 2.136936 -1.088106 -0.518684
vt 2.136936 2.059692 -0.518684
vt -1.504356 2.059692 1.033279
vt 2.136936 -1.088106 -0.518684
vt 2.136936 -1.088106 -0.518684
vt 6.053699 -0.219616 -2.368599
vt 6.053699 2.088105 -2.368599
vt 2.136936 -1.088106 -0.518684
vt -2.827271 3.116129 0.000500
vt -2.827271 -2.116129 0.000500
vt -0.047440 3.116129 0.382236
vt -0.047440 -2.116129 0.382236
vt 2.370090 3.116129 0.789982
vt 3.612305 -2.116129 0.999500
vt 3.612324 1.735208 0.999493
vt 3.827263 -2.116129 0.900784
vt 3.827267 1.659408 0.900784
vt 0.313510 0.005273 0.000000
vt 0.313671 0.998406 0.000000
vt 0.005307 0.995141 0.000000
vt 0.001204 0.010387 0.000000
vt 0.312850 2.081862 0.000000
vt 0.003802 2.081862 0.000000
vt 0.003307 -0.031624 0.000000
vt 0.312311 -0.031168 0.000000
vt 0.000614 1.001594 0.000000
vt 0.000614 0.010756 0.000000
vt 0.313135 0.005869 0.000000
vt 0.313012 0.996706 0.000000
vt 0.341180 1.006536 0.000000
vt 0.341180 0.010333 0.000000
vt 0.653641 0.009036 0.000000
vt 0.653491 1.005234 0.000000
vt 0.000087 -0.039823 0.000000
vt 0.303554 -0.039823 0.000000
vt 0.314485 2.079714 0.000000
vt 0.010366 2.083532 0.000000
vt 0.998999 0.003818 0.000000
vt 0.999461 0.999717 0.000000
vt 0.687010 0.998298 0.000000
vt 0.687866 0.003020 0.000000
vt 0.760429 1.312904 0.526062
vt 0.549362 1.312904 0.000549
vt 0.239571 1.312904 0.474213
vt 0.450737 1.312904 0.999512
vt 0.549324 -0.312904 0.000610
vt 0.239540 -0.312904 0.474304
vt 0.760445 -0.312904 0.526031
vt 0.450714 -0.312904 0.999542
vt 0.522533 0.781898 -1.918989
vt 0.028049 0.310074 -2.377878
vt 0.557476 -0.175743 -2.502397
vt 0.995388 0.364464 -2.356153
vt 0.522533 0.781898 -2.377878
vt 2.105385 -0.817734 2.164032
vt 2.090599 1.820053 2.743469
vt 2.105385 -0.817734 2.284750
vt 2.090599 1.820053 3.261324
vt 2.239296 -0.814713 2.284750
vt 2.226730 1.819595 3.261324
vt -0.038567 -0.483200 2.183489
vt 1.454937 -0.818008 2.183489
vt 0.106659 1.889969 2.714552
vt 0.454689 1.855545 2.715263
vt 0.545311 -0.167862 2.243299
vt -0.511971 2.080109 3.141973
vt -0.745720 2.086441 3.139313
vt 0.545311 -0.167862 2.243299
vt 1.278732 -0.303055 2.183489
vt 1.333160 2.073944 3.094585
vt -0.511971 2.080109 3.141973
vt 1.336323 2.205795 3.366125
vt -0.515335 2.247360 3.366135
vt 1.333176 2.073929 3.365967
vt -0.511971 2.080109 3.366119
vt 1.685345 2.183640 3.366837
vt 1.682255 2.052826 3.366678
vt -0.654327 -4.722931 2.460278
vt 1.751457 -5.130539 0.966766
vt 1.769974 -4.796768 2.352032
vt 1.799393 -4.432602 0.940228
vt -0.530472 -2.785233 2.460276
vt 1.876358 -3.186180 0.966766
vt 1.894043 -2.852356 2.352032
vt 1.922577 -2.488113 0.940228
vt -0.426361 -1.146492 2.460274
vt 1.976425 -1.572548 0.966766
vt 1.997253 -1.238884 2.352032
vt 2.029198 -0.874924 0.940228
vt 3.070328 -1.475864 0.687712
vt 2.337219 1.895119 3.047943
vt -2.977074 -1.315071 0.687712
vt -3.021812 1.960312 3.047943
vt 3.399506 0.776569 2.243299
vt 2.326241 2.179710 3.246485
vt 5.604263 2.150505 3.139313
vt -2.300682 -1.312172 -1.428608
vt -2.977074 -1.315075 -1.429159
vt -2.967796 -1.770206 -1.429699
vt -2.304314 -1.772514 -1.428661
vt 3.857239 -3.985031 0.662330
vt -1.614868 -1.322235 0.159910
vt -1.541138 -3.717331 0.652768
vt 3.857178 -3.983978 0.662330
vt -1.425415 -6.131653 0.196382
vt 3.228516 6.726044 0.667335
vt -1.913391 8.800140 0.172717
vt -1.875549 6.598633 0.657773
vt 3.228333 6.727127 0.667335
vt -1.796753 4.391541 0.173891
vt 0.000000 0.000000 0.000000
vt 0.500000 0.000000 0.000000
vt 0.000000 0.000000 0.000000
vt 9.996100 3.447700 0.000000
vt 9.197000 7.935600 0.000000
vt 2.429800 7.923800 0.000000
vt 3.021800 3.421700 0.000000
vt 13.692000 7.847900 0.000000
vt 0.000000 1.000000 0.000000
vt 0.000000 0.000000 0.000000
vt 0.500000 0.000000 0.000000
vt 0.500000 1.000000 0.000000
vt 1.000000 0.000000 0.000000
vt 0.000000 1.000000 0.000000
vt 0.000000 0.000000 0.000000
vt 0.500000 0.000000 0.000000
vt 0.500000 1.000000 0.000000
vt 1.000000 0.000000 0.000000
vt 0.000000 1.000000 0.000000
vt 0.000000 0.000000 0.000000
vt 0.500000 0.000000 0.000000
vt 0.500000 1.000000 0.000000
vt 1.000000 0.000000 0.000000
vt 11.135530 4.804264 0.000000
vt 11.135530 4.804264 0.000000
vt 13.692000 7.847900 0.000000
vt 11.135530 4.804264 0.000000
vt 11.135530 4.804264 0.000000
vt 11.135530 4.804264 0.000000
vt 13.692000 7.847900 0.000000
vt 11.135530 4.804264 0.000000
vt 13.692000 7.847900 0.000000
vt 11.135530 4.804264 0.000000
vt 13.692000 7.847900 0.000000
vt 0.000000 0.000000 0.000000
vt 0.500000 0.000000 0.000000
vt 0.000000 0.000000 0.000000
vt 0.500000 0.000000 0.000000
vt 0.000000 0.000000 0.000000
vt 0.500000 0.000000 0.000000
vt 13.692000 7.847900 0.000000
vt 11.135530 4.804264 0.000000
vt 13.692000 7.847900 0.000000
vt 11.135530 4.804264 0.000000
vt 11.135530 4.804264 0.000000
vt 11.135530 4.804264 0.000000
vt 11.135530 4.804264 0.000000
vt 11.135530 4.804264 0.000000
vt 11.135530 4.804264 0.000000
vt 11.135530 4.804264 0.000000
vt 11.135530 4.804264 0.000000
vt 11.135530 4.804264 0.000000
vt 13.593268 7.730353 0.000000
vt 13.593268 7.730353 0.000000
vt 13.488035 7.605068 0.000000
vt 13.446085 7.852698 0.000000
vt 13.466378 7.579283 0.000000
vt 13.466378 7.579283 0.000000
vt 13.323786 7.409518 0.000000
vt 13.240839 7.856702 0.000000
vt 13.593268 7.730353 0.000000
vt 13.488035 7.605068 0.000000
vt 13.466378 7.579283 0.000000
vt 13.240839 7.856702 0.000000
vt 13.446085 7.852698 0.000000
vt 13.323786 7.409518 0.000000
vt 13.465937 7.578757 0.000000
vt 13.465937 7.578757 0.000000
vt 13.563549 7.694972 0.000000
vt 13.593268 7.730353 0.000000
vt 13.692000 7.847900 0.000000
vt 13.466378 7.579283 0.000000
vt 13.593268 7.730353 0.000000
vt 13.466378 7.579283 0.000000
vt 13.593268 7.730353 0.000000
vt 13.465937 7.578757 0.000000
vt 13.563549 7.694972 0.000000
vt 13.466378 7.579283 0.000000
vt 11.135530 4.804264 0.000000
vt 11.135530 4.804264 0.000000
vt 11.135530 4.804264 0.000000
vt 11.135530 4.804264 0.000000
vt 11.135530 4.804264 0.000000
vt 9.325396 7.919232 0.000000
vt 13.207016 7.424404 0.000000
vt 13.323786 7.409518 0.000000
vt 11.135530 4.804264 0.000000
vt 11.135530 4.804264 0.000000
vt 13.465937 7.578757 0.000000
vt 11.135530 4.804264 0.000000
vt 11.135530 4.804264 0.000000
vt 13.323786 7.409518 0.000000
vt 11.135530 4.804264 0.000000
vt 13.465937 7.578757 0.000000
vt 13.323786 7.409518 0.000000
vt 11.135530 4.804264 0.000000
vt 13.323786 7.409518 0.000000
vt 11.135530 4.804264 0.000000
vt 11.135530 4.804264 0.000000
vt 13.465937 7.578757 0.000000
vt 11.135530 4.804264 0.000000
vt 11.135530 4.804264 0.000000
vt 13.465937 7.578757 0.000000
vt 13.323786 7.409518 0.000000
vt 0.000000 0.000000 0.000000
vt 0.500000 0.000000 0.000000
vt 0.000000 0.000000 0.000000
vt 1.846054 0.437180 0.043461
vt -0.792206 0.405289 0.043463
vt 1.850616 0.556099 0.201649
vt 0.018509 0.684135 0.405207
vt -0.452560 0.712780 0.479208
vt -1.121765 0.112976 0.000498
vt 2.835756 0.037994 0.000500
vt -1.080633 0.404266 0.360853
vt 2.762072 0.370163 0.415201
vt 2.543470 0.372101 0.412109
vt 2.762072 0.370163 0.415201
vt 2.543470 0.372101 0.412109
vt 2.545156 0.393951 0.439861
vt 2.577272 0.809509 0.961622
vt 2.665178 0.806992 0.960550
vt -6.196829 -0.011963 0.000500
vt -1.081865 -0.026886 0.000500
vt 7.196836 0.373093 0.043465
vt 2.867128 0.243317 0.000500
vt 6.866404 0.690460 0.479208
vt 2.764780 0.567810 0.415201
vt -6.195852 0.276962 0.345947
vt -1.066278 0.266891 0.360853
vt -4.829699 0.274277 0.349916
vt -4.832125 0.681870 0.840393
vt -6.194445 0.692200 0.842451
vt -3.118246 0.270920 0.354891
vt -2.215946 0.269150 0.357512
vt 3.463488 0.588699 0.426104
vt 3.475866 1.026871 0.999500
vt 2.630186 0.994522 0.960550
vt -3.128084 0.720505 0.895864
vt -2.212793 0.729401 0.918524
vt -6.650871 5.140320 0.999501
vt -27.622795 5.175781 0.998797
vt 5.478004 5.972290 0.999501
vt 16.480659 5.832703 0.999501
vt 24.694099 -1.845276 0.152225
vt -7.010834 -3.968323 0.114713
vt -22.063530 -4.142212 0.111246
vt -22.095268 -2.512085 0.266700
vt -27.544594 -2.544434 0.267353
vt -15.218163 -4.063110 0.112823
vt -11.609200 -4.021423 0.113654
vt 11.089195 -2.436279 0.135394
vt 11.114998 -0.683105 0.317129
vt 7.734344 -0.858215 0.304784
vt -15.281822 -2.265442 0.284282
vt -11.621468 -2.180420 0.291464
vt 4.302185 6.551910 0.999501
vt 3.757629 0.924164 0.337679
vt 5.263367 0.628601 0.301351
vt 5.176086 -1.620941 0.064254
vt -2.152100 -1.105469 0.128770
vt -4.036316 -0.990021 0.152225
vt 2.889038 -3.749863 0.674201
vt -0.095215 -2.071991 0.338805
vt -0.040955 -3.894424 0.666987
vt 2.888916 -3.748962 0.674201
vt 0.075317 -5.572235 0.346644
vt 2.888977 -3.748062 0.674201
vt 2.828857 4.292892 0.688038
vt -1.514893 6.080658 0.279342
vt -1.466553 4.082138 0.678477
vt 2.828552 4.293915 0.688038
vt -1.322571 2.168381 0.284172
vt 2.828674 4.295120 0.688038
vt -6.326851 5.605042 0.999500
vt 5.830475 5.629639 0.999501
vt 1.414734 1.449951 0.590796
vt 1.444885 -2.708435 0.177848
vt 3.105110 -2.695801 0.176569
vt 3.074936 1.462585 0.589733
vt -7.291046 -3.459473 0.114713
vt 7.201248 -3.090942 0.130958
vt 7.204987 -3.003357 0.139754
vt 7.628128 -1.335693 0.304784
vt 7.276382 -1.337708 0.305124
vt 0.499307 0.998355 0.000000
vt -0.093253 -0.210330 0.000000
vt 1.107351 -0.230479 0.000000
vt 0.499307 0.998355 0.000000
vt -0.090374 -0.204981 0.000000
vt 0.499307 0.998355 0.000000
vt -0.090374 -0.204981 0.000000
vt 0.499307 0.998355 0.000000
vt -0.090374 -0.204981 0.000000
vt 1.104952 -0.225129 0.000000
vt 1.104952 -0.225129 0.000000
vt 1.104952 -0.225129 0.000000
vt 0.499307 0.998355 0.000000
vt -0.018328 -0.057959 0.000000
vt 1.030437 -0.071596 0.000000
vt 0.499307 0.998355 0.000000
vt -0.131218 -0.300000 0.000000
vt 1.120028 -0.252076 0.000000
vt 0.499307 0.998355 0.000000
vt -0.179445 -0.400000 0.000000
vt 1.178130 -0.400000 0.000000
vt 0.989166 0.000496 0.999501
vt 0.999504 0.997986 0.003585
vt 0.010826 0.999504 0.000501
vt 0.000496 0.002014 0.996938
vt 0.489327 -0.618400 0.662330
vt -1.519609 0.358986 0.159910
vt -1.492540 -0.520314 0.652768
vt -1.450056 -1.406672 0.196382
vt 0.258485 3.313909 0.667335
vt -1.629204 4.075163 0.172717
vt -1.615311 3.266934 0.657773
vt -1.586383 2.456656 0.173891
vt -3.368452 2.731551 0.999501
vt -11.067768 2.744570 0.998797
vt 1.084362 3.036988 0.999501
vt 5.123712 2.985742 0.999501
vt 8.139071 0.166965 0.152225
vt -3.500603 -0.612459 0.114713
vt -9.026823 -0.676298 0.111246
vt -9.038475 -0.077838 0.266700
vt -11.039059 -0.089714 0.267353
vt -6.513718 -0.647258 0.112823
vt -5.188778 -0.631954 0.113654
vt 3.144371 -0.050008 0.135394
vt 3.153843 0.593626 0.317129
vt 1.912721 0.529339 0.304784
vt -6.537089 0.012711 0.284282
vt -5.193282 0.043925 0.291464
vt 0.652689 3.249782 0.999501
vt 0.452769 1.183695 0.337679
vt 1.005563 1.075186 0.301351
vt 0.973520 0.249323 0.064254
vt -1.716840 0.438566 0.128770
vt -2.408583 0.480950 0.152225
vt 0.133865 -0.532092 0.674201
vt -0.961706 0.083732 0.338805
vt -0.941786 -0.585329 0.666987
vt -0.899099 -1.201295 0.346644
vt 0.111738 2.420627 0.688038
vt -1.482905 3.076773 0.279342
vt -1.465158 2.343066 0.678477
vt -1.412299 1.640478 0.284172
vt -3.249495 2.902162 0.999500
vt 1.213763 2.911192 0.999501
vt -0.407366 1.376725 0.590796
vt -0.396297 -0.149923 0.177848
vt 0.213213 -0.145284 0.176569
vt 0.202136 1.381363 0.589733
vt -3.603476 -0.425647 0.114713
vt 1.717008 -0.290351 0.130958
vt 1.718380 -0.258196 0.139754
vt 1.873726 0.354045 0.304784
vt 1.744592 0.353306 0.305124
# 931 texture coords

g Pikk_41_2
usemtl Pikk_41_2_paek
s off
f -186/-896/-816 -183/-928/-815 -184/-895/-814 
f -184/-929/-813 -185/-894/-812 -186/-893/-811 
f -177/-892/-810 -176/-921/-809 -178/-891/-808 
f -178/-923/-807 -179/-890/-806 -177/-889/-805 
f -174/-888/-804 -175/-887/-803 -186/-886/-802 
f -175/-920/-801 -182/-927/-800 -186/-885/-799 
f -180/-925/-798 -181/-884/-797 -179/-883/-796 
f -177/-882/-795 -179/-924/-794 -181/-881/-793 
f -181/-880/-792 -186/-879/-791 -177/-878/-790 
f -181/-926/-789 -174/-919/-788 -186/-877/-787 
f -173/-876/-786 -177/-922/-785 -186/-875/-784 
f -186/-931/-783 -185/-930/-782 -173/-918/-781 
f -169/-874/-780 -168/-873/-779 -170/-872/-778 
f -170/-871/-777 -171/-916/-776 -169/-914/-775 
f -168/-870/-774 -167/-912/-773 -172/-869/-772 
f -172/-917/-771 -170/-915/-770 -168/-913/-769 
f -180/-868/-768 -165/-908/-767 -166/-867/-766 
f -166/-910/-765 -181/-911/-764 -180/-909/-763 
f -163/-905/-762 -164/-906/-761 -175/-907/-760 
f -183/-866/-759 -162/-902/-758 -161/-865/-757 
f -161/-901/-756 -184/-904/-755 -183/-903/-754 
f -184/-864/-753 -169/-897/-752 -171/-863/-751 
f -171/-899/-750 -160/-900/-749 -184/-898/-748 
usemtl xxx
f -158/-860/-747 -155/-856/-746 -154/-855/-745 
f -154/-855/-744 -159/-861/-743 -158/-860/-742 
f -159/-861/-741 -161/-861/-740 -162/-860/-739 
f -162/-860/-738 -158/-860/-737 -159/-861/-736 
f -155/-856/-735 -157/-862/-734 -156/-859/-733 
f -156/-859/-732 -154/-855/-731 -155/-856/-730 
f -153/-854/-729 -152/-853/-728 -156/-859/-727 
f -156/-859/-726 -157/-862/-725 -153/-854/-724 
f -151/-852/-723 -150/-851/-722 -152/-853/-721 
f -152/-853/-720 -153/-854/-719 -151/-852/-718 
f -149/-845/-717 -148/-844/-716 -147/-843/-715 
f -147/-843/-714 -176/-762/-713 -149/-845/-712 
f -132/-742/-711 -150/-832/-710 -151/-846/-709 
f -144/-785/-708 -142/-784/-707 -141/-783/-706 
f -141/-783/-705 -143/-786/-704 -144/-785/-703 
f -147/-843/-702 -178/-746/-701 -176/-762/-700 
f -151/-846/-699 -135/-760/-698 -136/-758/-697 
f -134/-753/-696 -146/-838/-695 -107/-558/-694 
f -133/-752/-693 -146/-838/-692 -134/-753/-691 
f -147/-843/-690 -166/-846/-689 -165/-747/-688 
f -147/-843/-687 -165/-747/-686 -178/-746/-685 
f -136/-743/-684 -132/-742/-683 -151/-846/-682 
f -136/-744/-681 -166/-846/-680 -147/-832/-679 
f -147/-832/-678 -132/-745/-677 -136/-743/-676 
f -131/-730/-675 -129/-729/-674 -128/-728/-673 
f -128/-728/-672 -130/-727/-671 -131/-730/-670 
f -127/-704/-669 -125/-703/-668 -124/-702/-667 
f -124/-702/-666 -126/-701/-665 -127/-704/-664 
f -123/-680/-663 -121/-679/-662 -120/-678/-661 
f -120/-678/-660 -122/-677/-659 -123/-680/-658 
f -114/-597/-657 -113/-596/-656 -119/-632/-655 
f -113/-596/-654 -118/-629/-653 -119/-632/-652 
f -115/-588/-651 -117/-587/-650 -116/-605/-649 
f -116/-605/-648 -112/-592/-647 -115/-588/-646 
f -114/-586/-645 -115/-588/-644 -112/-592/-643 
f -112/-592/-642 -113/-591/-641 -114/-586/-640 
f -111/-577/-639 -109/-576/-638 -108/-575/-637 
f -108/-575/-636 -110/-574/-635 -111/-577/-634 
f -134/-753/-633 -107/-558/-632 -145/-814/-631 
usemtl Pikk_41_2_krohv02
f -105/-500/-630 -106/-557/-629 -145/-499/-628 
f -145/-556/-627 -107/-554/-626 -105/-555/-625 
f -102/-498/-624 -144/-497/-623 -143/-496/-622 
f -143/-495/-621 -101/-494/-620 -102/-493/-619 
f -142/-492/-618 -103/-491/-617 -104/-490/-616 
f -104/-489/-615 -141/-488/-614 -142/-487/-613 
f -142/-486/-612 -144/-549/-611 -102/-485/-610 
f -102/-551/-609 -103/-552/-608 -142/-547/-607 
f -104/-484/-606 -101/-550/-605 -143/-483/-604 
f -143/-548/-603 -141/-546/-602 -104/-553/-601 
f -99/-482/-600 -131/-481/-599 -130/-480/-598 
f -130/-479/-597 -98/-478/-596 -99/-477/-595 
f -129/-476/-594 -100/-475/-593 -97/-474/-592 
f -97/-473/-591 -128/-472/-590 -129/-471/-589 
f -129/-470/-588 -131/-541/-587 -99/-469/-586 
f -99/-544/-585 -100/-545/-584 -129/-539/-583 
f -97/-468/-582 -98/-543/-581 -130/-467/-580 
f -130/-540/-579 -128/-538/-578 -97/-542/-577 
f -95/-466/-576 -127/-465/-575 -126/-464/-574 
f -126/-463/-573 -94/-462/-572 -95/-461/-571 
f -125/-460/-570 -96/-459/-569 -93/-458/-568 
f -93/-457/-567 -124/-456/-566 -125/-455/-565 
f -125/-454/-564 -127/-533/-563 -95/-453/-562 
f -95/-536/-561 -96/-537/-560 -125/-531/-559 
f -93/-452/-558 -94/-535/-557 -126/-451/-556 
f -126/-532/-555 -124/-530/-554 -93/-534/-553 
f -91/-450/-552 -123/-449/-551 -122/-448/-550 
f -122/-447/-549 -90/-446/-548 -91/-445/-547 
f -121/-444/-546 -92/-443/-545 -89/-442/-544 
f -89/-441/-543 -120/-440/-542 -121/-439/-541 
f -121/-438/-540 -123/-525/-539 -91/-437/-538 
f -91/-528/-537 -92/-529/-536 -121/-523/-535 
f -89/-436/-534 -90/-527/-533 -122/-435/-532 
f -122/-524/-531 -120/-522/-530 -89/-526/-529 
f -118/-434/-528 -86/-433/-527 -87/-432/-526 
f -87/-431/-525 -119/-430/-524 -118/-429/-523 
f -116/-428/-522 -117/-427/-521 -85/-426/-520 
f -117/-425/-519 -88/-424/-518 -85/-423/-517 
f -115/-422/-516 -119/-421/-515 -87/-420/-514 
f -87/-520/-513 -88/-419/-512 -115/-418/-511 
f -116/-417/-510 -86/-416/-509 -112/-415/-508 
f -113/-511/-507 -112/-414/-506 -118/-413/-505 
f -112/-510/-504 -86/-412/-503 -118/-516/-502 
f -114/-512/-501 -119/-517/-500 -115/-411/-499 
f -115/-513/-498 -88/-521/-497 -117/-515/-496 
f -85/-518/-495 -86/-519/-494 -116/-514/-493 
f -81/-410/-492 -82/-504/-491 -80/-409/-490 
f -153/-408/-489 -164/-407/-488 -84/-406/-487 
f -84/-405/-486 -83/-506/-485 -153/-508/-484 
f -81/-503/-483 -80/-404/-482 -79/-403/-481 
f -84/-507/-480 -164/-402/-479 -80/-401/-478 
f -164/-400/-477 -163/-505/-476 -79/-399/-475 
f -79/-501/-474 -80/-502/-473 -164/-509/-472 
usemtl Pikk_41_2_kast
f -78/-398/-471 -77/-397/-470 -73/-393/-469 
f -78/-398/-468 -73/-393/-467 -74/-394/-466 
f -77/-397/-465 -76/-396/-464 -72/-392/-463 
f -77/-397/-462 -70/-390/-461 -73/-393/-460 
f -76/-396/-459 -75/-395/-458 -71/-391/-457 
f -76/-396/-456 -71/-391/-455 -72/-392/-454 
f -75/-395/-453 -78/-398/-452 -74/-394/-451 
f -75/-395/-450 -74/-394/-449 -69/-389/-448 
f -72/-392/-447 -71/-391/-446 -69/-389/-445 
f -70/-390/-444 -74/-394/-443 -73/-393/-442 
f -69/-389/-441 -74/-394/-440 -70/-390/-439 
f -77/-397/-438 -72/-392/-437 -70/-390/-436 
f -72/-392/-435 -69/-389/-434 -70/-390/-433 
f -75/-395/-432 -69/-389/-431 -71/-391/-430 
usemtl Pikk_41_2_krohv01
f -67/-377/-429 -68/-376/-428 -177/-375/-427 
f -177/-388/-426 -173/-386/-425 -67/-374/-424 
f -66/-373/-423 -105/-372/-422 -107/-371/-421 
f -107/-378/-420 -146/-384/-419 -66/-370/-418 
f -64/-369/-417 -65/-368/-416 -68/-367/-415 
f -68/-387/-414 -67/-385/-413 -64/-366/-412 
f -64/-365/-411 -105/-364/-410 -66/-363/-409 
f -66/-383/-408 -65/-381/-407 -64/-362/-406 
f -64/-380/-405 -106/-382/-404 -105/-379/-403 
usemtl Pikk_41_2_krohv03
f -149/-361/-402 -62/-358/-401 -148/-360/-400 
f -59/-355/-399 -133/-353/-398 -60/-356/-397 
f -61/-357/-396 -60/-356/-395 -63/-359/-394 
f -60/-356/-393 -133/-353/-392 -134/-354/-391 
f -61/-357/-390 -59/-355/-389 -60/-356/-388 
f -63/-359/-387 -60/-356/-386 -62/-358/-385 
f -149/-361/-384 -63/-359/-383 -62/-358/-382 
usemtl Pikk_41_2_krstn01
f -103/-352/-381 -102/-351/-380 -101/-350/-379 
f -101/-350/-378 -104/-349/-377 -103/-352/-376 
f -100/-348/-375 -99/-347/-374 -98/-346/-373 
f -98/-346/-372 -97/-345/-371 -100/-348/-370 
f -96/-344/-369 -95/-343/-368 -94/-342/-367 
f -94/-342/-366 -93/-341/-365 -96/-344/-364 
f -92/-340/-363 -91/-339/-362 -90/-338/-361 
f -90/-338/-360 -89/-337/-359 -92/-340/-358 
f -88/-336/-357 -87/-335/-356 -86/-334/-355 
f -86/-334/-354 -85/-333/-353 -88/-336/-352 
f -58/-332/-351 -57/-331/-350 -56/-330/-349 
f -56/-330/-348 -55/-329/-347 -58/-332/-346 
usemtl Pikk_41_2_tellis
f -57/-327/-345 -111/-324/-344 -110/-323/-343 
f -110/-323/-342 -56/-326/-341 -57/-327/-340 
f -109/-322/-339 -58/-328/-338 -55/-325/-337 
f -55/-325/-336 -108/-321/-335 -109/-322/-334 
f -109/-322/-333 -111/-324/-332 -57/-327/-331 
f -57/-327/-330 -58/-328/-329 -109/-322/-328 
f -55/-325/-327 -56/-326/-326 -110/-323/-325 
f -110/-323/-324 -108/-321/-323 -55/-325/-322 
usemtl Pikk_41_2_plekk_punane
f -54/-320/-321 -53/-319/-320 -52/-318/-319 
f -52/-318/-318 -51/-317/-317 -54/-320/-316 
f -52/-318/-315 -53/-319/-314 -51/-317/-313 
f -53/-319/-312 -54/-320/-311 -50/-316/-310 
f -51/-317/-309 -50/-316/-308 -54/-320/-307 
f -53/-319/-306 -50/-316/-305 -51/-317/-304 
f -179/-311/-303 -178/-310/-302 -165/-312/-301 
f -165/-312/-300 -180/-313/-299 -179/-311/-298 
f -79/-306/-297 -163/-307/-296 -175/-309/-295 
f -175/-309/-294 -174/-308/-293 -79/-306/-292 
f -166/-314/-291 -79/-306/-290 -174/-308/-289 
f -174/-308/-288 -181/-315/-287 -166/-314/-286 
usemtl Pikk_41_2_plekk_hall
f -157/-303/-285 -182/-305/-284 -153/-304/-283 
f -153/-299/-282 -182/-302/-281 -175/-301/-280 
f -84/-296/-279 -49/-298/-278 -48/-297/-277 
f -48/-297/-276 -83/-295/-275 -84/-296/-274 
f -175/-301/-273 -164/-300/-272 -153/-299/-271 
f -49/-298/-270 -84/-296/-269 -80/-293/-268 
f -80/-293/-267 -82/-294/-266 -49/-298/-265 
f -47/-292/-264 -46/-291/-263 -45/-290/-262 
f -47/-292/-261 -45/-290/-260 -44/-289/-259 
f -43/-288/-258 -42/-287/-257 -41/-286/-256 
f -43/-288/-255 -41/-286/-254 -40/-285/-253 
f -39/-284/-252 -38/-283/-251 -37/-282/-250 
f -39/-284/-249 -37/-282/-248 -36/-281/-247 
f -158/-279/-246 -162/-277/-245 -183/-278/-244 
f -183/-278/-243 -186/-280/-242 -158/-279/-241 
f -158/-279/-240 -182/-276/-239 -155/-275/-238 
f -158/-279/-237 -186/-280/-236 -182/-276/-235 
f -155/-275/-234 -182/-276/-233 -157/-274/-232 
f -172/-273/-231 -160/-272/-230 -171/-271/-229 
f -171/-271/-228 -170/-270/-227 -172/-273/-226 
usemtl xxx
f -135/-207/-225 -151/-205/-224 -48/-198/-223 
f -48/-198/-222 -49/-199/-221 -135/-207/-220 
f -151/-204/-219 -153/-200/-218 -83/-196/-217 
f -83/-196/-216 -48/-195/-215 -151/-204/-214 
f -136/-217/-213 -135/-206/-212 -82/-190/-211 
f -82/-190/-210 -81/-189/-209 -136/-217/-208 
f -135/-207/-207 -49/-199/-206 -82/-185/-205 
usemtl Pikk_41_2_kataken02
f -166/-178/-204 -81/-177/-203 -79/-181/-202 
usemtl Pikk_41_2_plekk_hall
f -146/-152/-201 -33/-150/-200 -66/-151/-199 
f -32/-149/-198 -31/-148/-197 -66/-151/-196 
f -33/-150/-195 -32/-149/-194 -66/-151/-193 
f -68/-147/-192 -65/-146/-191 -30/-145/-190 
f -65/-146/-189 -28/-143/-188 -30/-145/-187 
f -65/-146/-186 -29/-144/-185 -28/-143/-184 
f -29/-142/-183 -27/-140/-182 -28/-141/-181 
f -29/-142/-180 -26/-139/-179 -27/-140/-178 
f -29/-142/-177 -25/-138/-176 -26/-139/-175 
f -21/-127/-174 -24/-131/-173 -23/-129/-172 
f -65/-134/-171 -66/-135/-170 -31/-133/-169 
f -65/-134/-168 -18/-124/-167 -29/-132/-166 
f -29/-132/-165 -18/-124/-164 -17/-123/-163 
f -24/-131/-162 -177/-137/-161 -68/-136/-160 
f -68/-136/-159 -23/-129/-158 -24/-131/-157 
f -21/-127/-156 -23/-129/-155 -22/-128/-154 
f -68/-136/-153 -20/-126/-152 -23/-129/-151 
f -68/-136/-150 -19/-125/-149 -20/-126/-148 
f -68/-136/-147 -30/-130/-146 -19/-125/-145 
f -65/-134/-144 -31/-133/-143 -18/-124/-142 
f -29/-132/-141 -17/-123/-140 -25/-122/-139 
f -16/-121/-138 -20/-126/-137 -19/-125/-136 
f -16/-121/-135 -19/-125/-134 -15/-120/-133 
usemtl Pikk_41_2_kataken02
f -140/-59/-132 -35/-58/-131 -139/-57/-130 
f -138/-74/-129 -34/-73/-128 -137/-72/-127 
f -45/-71/-126 -46/-70/-125 -44/-65/-124 
f -41/-69/-123 -42/-68/-122 -40/-64/-121 
f -37/-67/-120 -38/-66/-119 -36/-63/-118 
f -13/-56/-117 -14/-55/-116 -12/-54/-115 
f -10/-62/-114 -11/-61/-113 -9/-60/-112 
usemtl Pikk_41_2_kataken01
f -6/-51/-111 -5/-50/-110 -8/-53/-109 
f -6/-51/-108 -8/-53/-107 -7/-52/-106 
usemtl Pikk_41_2_katus
f -4/-49/-105 -35/-48/-104 -140/-47/-103 
f -4/-49/-102 -140/-47/-101 -139/-46/-100 
f -3/-45/-99 -34/-44/-98 -138/-43/-97 
f -3/-45/-96 -138/-43/-95 -137/-42/-94 
f -61/-38/-93 -63/-39/-92 -25/-28/-91 
f -22/-34/-90 -23/-35/-89 -20/-32/-88 
f -176/-40/-87 -21/-33/-86 -22/-34/-85 
f -22/-34/-84 -16/-27/-83 -176/-40/-82 
f -176/-40/-81 -16/-27/-80 -15/-26/-79 
f -176/-40/-78 -15/-26/-77 -149/-41/-76 
f -149/-41/-75 -15/-26/-74 -30/-36/-73 
f -18/-30/-72 -31/-37/-71 -61/-38/-70 
f -61/-38/-69 -17/-29/-68 -18/-30/-67 
f -25/-28/-66 -17/-29/-65 -61/-38/-64 
f -22/-34/-63 -20/-32/-62 -16/-27/-61 
f -15/-26/-60 -19/-31/-59 -30/-36/-58 
f -133/-23/-57 -59/-24/-56 -32/-21/-55 
f -33/-22/-54 -133/-23/-53 -32/-21/-52 
f -59/-24/-51 -61/-25/-50 -32/-21/-49 
f -32/-21/-48 -61/-25/-47 -31/-20/-46 
f -2/-19/-45 -14/-18/-44 -13/-17/-43 
f -2/-19/-42 -13/-17/-41 -12/-16/-40 
f -1/-15/-39 -11/-14/-38 -10/-13/-37 
f -1/-15/-36 -10/-13/-35 -9/-12/-34 
f -5/-6/-33 -63/-10/-32 -8/-9/-31 
f -63/-10/-30 -149/-11/-29 -8/-9/-28 
f -149/-11/-27 -30/-5/-26 -8/-9/-25 
f -30/-5/-24 -28/-4/-23 -7/-8/-22 
f -27/-3/-21 -6/-7/-20 -7/-8/-19 
f -27/-3/-18 -63/-10/-17 -6/-7/-16 
f -7/-8/-15 -8/-9/-14 -30/-5/-13 
f -6/-7/-12 -63/-10/-11 -5/-6/-10 
f -28/-4/-9 -27/-3/-8 -7/-8/-7 
f -25/-2/-6 -63/-10/-5 -26/-1/-4 
f -26/-1/-3 -63/-10/-2 -27/-3/-1 
# 272 faces

