# This file uses centimeters as units for non-parametric coordinates.

mtllib Ryytli15-origo.mtl
g default
v  542175.88546 6588784.85596 20.288436
v  542179.437019 6588784.73373 20.288436
v  542179.365128 6588782.28934 20.347306
v  542175.82795 6588782.42593 20.347306
v  542175.88546 6588784.85596 20.152373
v  542179.437019 6588784.73373 20.152373
v  542179.365128 6588782.28934 20.204688
v  542175.82795 6588782.42593 20.204688
v  542175.959953 6588784.76166 20.152373
v  542179.359962 6588784.64847 20.152373
v  542179.291138 6588782.39041 20.204688
v  542175.9049 6588782.51694 20.204688
v  542175.959953 6588784.76166 17.469969
v  542179.359962 6588784.64847 17.469969
v  542179.291138 6588782.39041 17.469969
v  542175.9049 6588782.51694 17.469969
v  542178.054977 6588782.43658 17.988610
v  542178.054977 6588782.43661 17.469969
v  542176.918671 6588782.47907 17.469969
v  542179.291138 6588782.39041 20.104624
v  542179.359962 6588784.64847 20.104624
v  542175.959953 6588784.76166 20.104624
v  542175.9049 6588782.51694 20.104624
v  542176.918671 6588782.47907 20.104624
v  542179.171509 6588782.39487 17.988610
v  542179.171509 6588782.39487 20.104624
v  542179.171509 6588782.39487 17.469969
v  542178.053406 6588782.39447 17.988610
v  542176.917099 6588782.43695 20.104624
v  542179.169937 6588782.35275 20.104624
v  542179.169937 6588782.35275 17.988610
v  542178.042183 6588782.3949 20.104624
v  542176.917717 6588782.45358 18.006585
v  542176.918671 6588782.47907 18.009085
v  542175.9049 6588782.51694 18.013611
v  542175.959961 6588784.76166 17.998442
v  542179.359962 6588784.64847 18.015273
v  542179.291138 6588782.39041 18.006858
v  542179.400696 6588783.4986 20.443816
v  542175.853935 6588783.52387 20.443816
vt -8.749665 -8.003472
vt -4.202130 -8.137224
vt -3.974737 -1.529891
vt -8.495534 -1.422931
vt 0.571429 0.428576
vt 0.505143 0.428572
vt 0.505142 0.523682
vt 0.571427 0.523686
vt 0.428635 0.547804
vt 0.474858 0.571426
vt 0.544338 0.571429
vt 0.474868 0.476399
vt 0.544347 0.476403
vt 0.428571 0.454787
vt -6.452978 -1.471257
vt -6.499975 -8.069640
vt 3.033408 -1.662014
vt -5.409078 -0.420170
vt -1.208189 -0.373736
vt 1.621629 -1.455781
vt -3.656637 -8.089942
vt -3.498041 -7.946613
vt 0.890899 -7.956191
vt 0.702849 -7.818547
vt -3.884028 -1.482661
vt -3.708631 -1.621227
vt 0.636767 -1.375650
vt 0.467465 -1.518826
vt 2.034584 -8.093324
vt 2.123410 -8.093324
vt 2.034584 -1.767964
vt 2.123410 -1.767964
vt 2.455782 2.455787
vt -1.455782 2.455787
vt -1.208189 3.571347
vt -5.409078 3.571347
vt -5.409078 3.482469
vt -1.208189 3.482469
vt -5.409078 -1.418986
vt -1.208189 -1.418986
vt 6.936078 -1.439462
vt 6.936078 2.751707
vt 7.024904 -1.662014
vt 6.936078 -1.662014
vt 7.024904 4.637720
vt 6.936078 4.637720
vt 2.999450 -1.439462
vt 2.034584 -1.439462
vt 2.034584 -1.662014
vt 2.034584 2.751707
vt 2.034584 4.637720
vt 2.999450 0.637726
vt 2.034584 0.637726
vt -8.749660 3.706020
vt -4.573564 3.706020
vt -4.573564 3.794897
vt -8.749660 3.794897
vt -4.573564 8.696353
vt -8.749660 8.696353
vt -0.000003 0.006155
vt -0.000001 0.002793
vt 0.009982 1.000000
vt 0.999995 1.000000
vt 0.990051 -0.000001
vt 1.000002 0.997176
vt -0.065656 0.831730
vt -0.144032 0.831730
vt 9.749664 6.384935
vt 9.671291 6.387853
vt 9.593018 2.193778
vt 9.514640 2.196697
vt 9.369403 6.595934
vt 9.447008 4.518720
vt 9.525386 4.521690
vt 9.447726 6.598854
vt 6.433947 4.747649
vt 6.433947 8.684264
vt 6.355570 8.684264
vt 6.355570 4.747649
vt -1.455782 -1.455781
vt 2.455782 -1.455781
vt 9.593059 4.294760
vt 0.000003 0.999999
vt 0.999998 0.012873
vt -0.113073 4.734885
vt -0.065656 4.730227
vt 3.037550 2.751707
vt 3.045973 4.637720
vt -8.749660 7.684971
vt 0.000000 0.000000
vt 0.474114 0.000000
vt 0.474114 0.999999
vt 0.018006 1.000000
vt 0.000000 0.000000
vt 0.999998 0.000000
vt 1.000000 0.037032
vt 0.000039 0.022487
vt -4.573564 7.682415
vt 1.646618 2.455787
vn -0.001904 -0.083318 0.996521
vn -0.001904 -0.083318 0.996521
vn -0.001904 -0.083318 0.996521
vn -0.001904 -0.083318 0.996521
vn 0.034394 0.999408 0.000000
vn 0.034394 0.999408 0.000000
vn 0.034394 0.999408 0.000000
vn 0.034394 0.999408 0.000000
vn 0.999568 -0.029399 -0.000008
vn 0.999568 -0.029399 -0.000008
vn 0.999568 -0.029399 -0.000008
vn 0.999568 -0.029399 -0.000008
vn 0.999568 -0.029399 -0.000008
vn -0.038589 -0.999255 0.000000
vn -0.038589 -0.999255 0.000000
vn -0.038589 -0.999255 0.000000
vn -0.038589 -0.999255 0.000000
vn -0.999720 0.023657 0.000000
vn -0.999720 0.023657 0.000000
vn -0.999720 0.023657 0.000000
vn -0.999720 0.023657 0.000000
vn -0.999720 0.023657 0.000000
vn -0.000243 -0.011182 -0.999938
vn -0.000243 -0.011182 -0.999938
vn -0.001160 -0.011090 -0.999938
vn -0.001160 -0.011090 -0.999938
vn -0.001160 -0.011090 -0.999938
vn -0.001160 -0.011090 -0.999938
vn -0.000243 -0.011182 -0.999938
vn -0.000243 -0.011182 -0.999938
vn 0.033273 0.999446 0.000000
vn 0.033273 0.999446 0.000000
vn 0.033273 0.999446 0.000000
vn 0.033273 0.999446 0.000000
vn 0.999536 -0.030465 0.000000
vn 0.999536 -0.030465 0.000000
vn 0.999536 -0.030465 0.000000
vn 0.999536 -0.030465 0.000000
vn -0.037339 -0.999303 0.000000
vn -0.037335 -0.999303 0.000000
vn -0.037335 -0.999303 0.000000
vn -0.037279 -0.999305 0.000000
vn -0.037279 -0.999305 0.000000
vn -0.037339 -0.999303 0.000000
vn -0.999699 0.024516 0.000000
vn -0.999699 0.024516 0.000000
vn -0.999699 0.024519 -0.000001
vn -0.999699 0.024519 -0.000001
vn -0.037286 -0.999305 -0.000053
vn -0.037286 -0.999305 -0.000053
vn -0.037351 -0.999302 -0.000105
vn -0.037351 -0.999302 -0.000105
vn 0.999536 -0.030467 0.000000
vn 0.999536 -0.030467 0.000000
vn 0.999536 -0.030467 0.000000
vn 0.999536 -0.030467 0.000000
vn 0.033273 0.999446 0.000000
vn 0.033273 0.999446 0.000000
vn 0.033273 0.999446 0.000000
vn 0.033273 0.999446 0.000000
vn -0.999699 0.024520 0.000006
vn -0.999699 0.024520 0.000006
vn -0.999699 0.024520 0.000006
vn -0.999699 0.024520 0.000006
vn -0.037332 -0.999303 0.000000
vn -0.037332 -0.999303 0.000000
vn -0.037332 -0.999303 0.000000
vn -0.037332 -0.999303 0.000000
vn -0.037221 -0.999307 0.000000
vn -0.037221 -0.999307 0.000000
vn 0.000000 0.000000 1.000000
vn 0.000000 0.000000 1.000000
vn 0.000000 0.000000 1.000000
vn 0.000000 0.000000 1.000000
vn 0.000000 0.000000 1.000000
vn 0.000000 0.000000 -1.000000
vn 0.000000 0.000000 -1.000000
vn 0.000000 0.000000 -1.000000
vn 0.000000 0.000000 -1.000000
vn 0.999304 -0.037302 0.000000
vn 0.999304 -0.037302 0.000000
vn 0.999304 -0.037302 0.000000
vn 0.999304 -0.037302 0.000000
vn -0.037341 -0.999303 0.000011
vn -0.037341 -0.999303 0.000011
vn -0.037341 -0.999303 0.000011
vn -0.037341 -0.999303 0.000011
vn -0.044735 -0.998991 -0.003955
vn -0.044735 -0.998991 -0.003955
vn -0.044735 -0.998991 -0.003955
vn -0.044735 -0.998991 -0.003955
vn -0.999299 0.037433 0.000000
vn -0.999299 0.037433 0.000000
vn -0.999299 0.037433 0.000000
vn -0.999299 0.037433 0.000000
vn -0.037332 -0.999303 0.000000
vn -0.037332 -0.999303 0.000000
vn -0.037345 -0.999302 0.000000
vn -0.037345 -0.999302 0.000000
vn -0.037345 -0.999302 0.000000
vn -0.037345 -0.999302 0.000000
vn -0.015215 0.037488 -0.999181
vn -0.015215 0.037488 -0.999181
vn -0.015215 0.037488 -0.999181
vn -0.015215 0.037488 -0.999181
vn -0.999699 0.024523 -0.000002
vn -0.999699 0.024523 -0.000002
vn 0.033273 0.999446 0.000000
vn 0.033273 0.999446 0.000000
vn 0.999536 -0.030466 0.000000
vn 0.999536 -0.030466 0.000000
vn -0.037219 -0.999307 0.000000
vn -0.037219 -0.999307 0.000000
vn 0.002496 0.120106 0.992758
vn 0.002496 0.120106 0.992758
vn 0.002496 0.120106 0.992758
vn 0.002496 0.120106 0.992758
s off
g polySurface2
usemtl lambert5SG
f 40/15/1 4/4/2 3/1/3 39/16/4
f 5/5/5 1/6/6 2/7/7 6/8/8
f 2/7/9 39/9/10 3/10/11 7/11/12 6/8/13
f 4/12/14 8/13/15 7/11/16 3/10/17
f 4/12/18 40/14/19 1/6/20 5/5/21 8/13/22
s 1
f 9/26/23 5/25/24 6/21/25 10/22/26
f 6/21/25 7/23/27 11/24/28 10/22/26
f 8/27/29 12/28/30 11/24/28 7/23/27
f 8/27/29 5/25/24 9/26/23 12/28/30
s 2
usemtl lambert2SG
f 22/32/31 9/31/32 10/29/33 21/30/34
s 3
f 10/35/35 11/36/36 20/37/37 21/38/38
s 4
f 12/45/39 23/46/40 24/42/41 26/41/42 20/44/43 11/43/44
s 5
f 12/54/45 9/55/46 22/56/47 23/57/48
s 6
usemtl lambert6SG
f 27/48/49 25/47/50 17/52/51 18/53/52
s off
f 14/40/53 37/19/54 38/18/55 15/39/56
f 14/81/57 13/33/58 36/99/59 37/20/60
f 16/59/61 35/89/62 36/98/63 13/58/64
f 34/87/65 35/88/66 16/51/67 19/50/68
s 6
f 15/49/69 38/17/70 25/47/50 27/48/49
s off
usemtl lambert2SG
f 29/69/71 32/82/72 30/71/73 26/70/74 24/68/75
usemtl lambert6SG
f 17/72/76 25/73/77 31/74/78 28/75/79
usemtl lambert2SG
f 25/76/80 26/77/81 30/78/82 31/79/83
usemtl lambert4SG
f 28/61/84 31/64/85 30/65/86 32/83/87
usemtl lambert3SG
f 28/60/88 32/62/89 29/63/90 33/84/91
usemtl lambert2SG
f 34/86/92 33/85/93 29/67/94 24/66/95
s 4
f 24/42/41 23/46/40 35/88/96 34/87/97
s off
usemtl lambert6SG
f 34/90/98 19/91/99 18/92/100 17/93/101
f 34/94/102 17/95/103 28/96/104 33/97/105
s 5
usemtl lambert2SG
f 36/98/106 35/89/107 23/57/48 22/56/47
s 2
f 37/20/108 36/99/109 22/34/31 21/80/34
s 3
f 38/18/110 37/19/111 21/38/38 20/37/37
s 4
f 25/47/112 38/17/113 20/44/43 26/41/42
s off
usemtl lambert5SG
f 1/3/114 40/15/115 39/16/116 2/2/117
