# This file uses centimeters as units for non-parametric coordinates.

mtllib Kpst8_2_1.mtl
g default
v -410.518829 -546.869202 32.531349
v -382.740173 -536.483093 32.531349
v -410.518829 -546.869202 21.713396
v -382.740173 -536.483093 21.713396
v -389.258789 -538.920593 32.531349
v -389.258789 -538.920593 21.713396
v -384.634583 -537.191650 32.531349
v -384.634583 -537.191650 21.713396
v -382.740173 -536.483093 30.918295
v -384.634583 -537.191650 30.918295
v -389.258789 -538.920593 30.918295
v -410.518829 -546.869202 30.918295
v -392.185822 -540.014832 32.531349
v -392.185822 -540.014832 30.918295
v -392.185822 -540.014832 21.713396
v -394.559143 -540.902161 32.531349
v -394.559143 -540.902161 30.918295
v -394.559143 -540.902161 21.713396
v -404.077423 -544.460815 32.531349
v -404.077423 -544.460815 30.918295
v -404.077423 -544.460815 21.713396
v -408.720367 -546.196899 32.531349
v -408.720367 -546.196899 30.918295
v -408.720367 -546.196899 21.713396
v -382.740173 -536.483093 22.812063
v -384.634583 -537.191650 22.812063
v -389.258789 -538.920593 22.812063
v -392.185822 -540.014832 22.812063
v -394.559143 -540.902161 22.812063
v -404.077423 -544.460815 22.812063
v -408.720367 -546.196899 22.812063
v -410.518829 -546.869202 22.812063
v -400.258942 -543.033386 21.713396
v -400.258942 -543.033386 23.880661
v -400.258942 -543.033386 30.918295
v -400.258942 -543.033386 32.531349
v -401.165192 -543.372131 21.713396
v -401.165192 -543.372131 23.880661
v -401.165192 -543.372131 30.918295
v -401.165192 -543.372131 32.531349
v -382.740173 -536.483093 28.017754
v -384.634583 -537.191650 28.017754
v -389.258789 -538.920593 28.017754
v -392.185822 -540.014832 28.017754
v -394.559143 -540.902161 28.017754
v -400.258942 -543.033386 28.017754
v -401.165192 -543.372131 28.017754
v -404.077423 -544.460815 28.017754
v -408.720367 -546.196899 28.017754
v -410.518829 -546.869202 28.017754
v -382.740173 -536.483093 26.812851
v -384.634583 -537.191650 26.812851
v -389.258789 -538.920593 26.812851
v -392.185822 -540.014832 26.812851
v -394.559143 -540.902161 26.812851
v -400.258942 -543.033386 26.812851
v -401.165192 -543.372131 26.812851
v -404.077423 -544.460815 26.812851
v -408.720367 -546.196899 26.812851
v -410.518829 -546.869202 26.812851
v -389.761475 -539.108459 21.713396
v -389.761475 -539.108459 22.812063
v -389.761475 -539.108459 26.812851
v -389.761475 -539.108459 28.017754
v -389.761475 -539.108459 30.918295
v -389.761475 -539.108459 32.531349
v -390.199219 -539.272095 21.713396
v -390.199219 -539.272095 22.812063
v -390.199219 -539.272095 26.812851
v -390.199219 -539.272095 28.017754
v -390.199219 -539.272095 30.918295
v -390.199219 -539.272095 32.531349
v -410.518829 -546.869202 23.904707
v -408.720367 -546.196899 23.904707
v -404.077423 -544.460815 23.904707
v -401.165192 -543.372131 24.681461
v -400.258942 -543.033386 24.681461
v -394.559143 -540.902161 23.904707
v -392.185822 -540.014832 23.904707
v -390.199219 -539.272095 23.904707
v -389.761475 -539.108459 23.904707
v -389.258789 -538.920593 23.904707
v -384.634583 -537.191650 23.904707
v -382.740173 -536.483093 23.904707
v -410.518829 -546.869202 21.890701
v -408.720367 -546.196899 21.890701
v -404.077423 -544.460815 21.890701
v -401.165192 -543.372131 22.063156
v -400.258942 -543.033386 22.063156
v -394.559143 -540.902161 21.890701
v -392.185822 -540.014832 21.890701
v -390.199219 -539.272095 21.890701
v -389.761475 -539.108459 21.890701
v -389.258789 -538.920593 21.890701
v -384.634583 -537.191650 21.890701
v -382.740173 -536.483093 21.890701
v -403.149536 -544.114136 32.531349
v -403.149536 -544.114136 30.918295
v -403.149536 -544.114136 28.017754
v -403.149536 -544.114136 26.812851
v -403.149536 -544.114136 23.851221
v -403.149536 -544.114136 23.152515
v -403.149536 -544.114136 21.830154
v -403.149536 -544.114136 21.713396
v -403.581085 -544.275452 32.531349
v -403.581085 -544.275452 30.918295
v -403.581085 -544.275452 28.017754
v -403.581085 -544.275452 26.812851
v -403.581085 -544.275452 23.846535
v -403.581085 -544.275452 22.994181
v -403.581085 -544.275452 21.830154
v -403.581085 -544.275452 21.713396
v -386.229675 -527.149414 32.531349
v -386.229675 -527.149414 30.918295
v -386.229675 -527.149414 28.017754
v -386.229675 -527.149414 22.812063
v -386.229767 -527.149475 21.890701
v -386.229675 -527.149414 26.812851
v -386.229675 -527.149414 23.904707
v -414.008545 -537.535156 32.531349
v -414.008545 -537.535217 30.918295
v -414.008545 -537.535217 28.017754
v -414.008545 -537.535217 22.812523
v -414.008636 -537.535095 21.892550
v -414.008545 -537.535217 26.812851
v -414.008545 -537.535217 23.904707
v -414.008545 -537.535217 21.890701
v -414.008484 -537.535034 21.713396
v -384.656433 -537.133179 30.918295
v -389.280731 -538.861938 30.918295
v -384.656433 -537.133179 28.017754
v -389.280731 -538.861938 28.017754
v -389.280731 -538.861938 21.890701
v -384.656433 -537.133179 21.890701
v -384.656433 -537.133179 21.713396
v -389.280731 -538.861938 21.713396
v -384.656433 -537.133179 26.812851
v -389.280731 -538.861938 26.812851
v -389.280731 -538.861938 23.904707
v -384.656433 -537.133179 23.904707
v -384.656433 -537.133179 22.812063
v -389.280731 -538.861938 22.812063
v -408.742218 -546.138428 30.918295
v -408.742218 -546.138428 28.017754
v -404.099213 -544.402344 30.918295
v -404.099213 -544.402344 28.017754
v -408.742218 -546.138428 21.890701
v -408.742218 -546.138428 21.713396
v -404.099213 -544.402344 21.890701
v -404.099213 -544.402344 21.713396
v -408.742218 -546.138428 26.812851
v -404.099213 -544.402344 26.812851
v -408.742218 -546.138428 23.904707
v -408.742218 -546.138428 22.812063
v -404.099213 -544.402344 23.904707
v -404.099213 -544.402344 22.812063
v -394.594360 -540.808167 30.918295
v -394.594360 -540.808167 28.017754
v -392.220978 -539.920837 30.918295
v -392.220978 -539.920837 28.017754
v -394.594360 -540.808167 23.904707
v -394.594360 -540.808167 22.812063
v -392.220978 -539.920837 23.904707
v -392.220978 -539.920837 22.812063
v -394.594360 -540.808167 26.812851
v -392.220978 -539.920837 26.812851
v -401.183655 -543.322876 21.713396
v -401.183655 -543.322876 22.063156
v -400.277374 -542.984192 22.063156
v -400.277374 -542.984192 21.713396
v -401.183655 -543.322876 23.880661
v -400.277374 -542.984192 23.880661
v -390.209473 -539.244690 22.812063
v -390.209473 -539.244690 23.904707
v -389.771729 -539.080872 23.904707
v -389.771729 -539.080872 22.812063
v -390.209473 -539.244690 21.890701
v -389.771729 -539.080872 21.890701
v -403.591309 -544.247925 23.846535
v -403.591309 -544.247925 22.994181
v -403.159790 -544.086731 23.851221
v -403.159790 -544.086731 23.152515
v -403.591309 -544.247925 21.830154
v -403.159790 -544.086731 21.830154
v -388.262146 -538.547974 32.531349
v -388.262146 -538.547974 30.918295
v -388.284119 -538.489380 30.918295
v -388.284119 -538.489380 28.017754
v -388.284119 -538.489380 26.812851
v -388.284119 -538.489380 23.904707
v -388.284119 -538.489380 22.812063
v -388.284119 -538.489380 21.890701
v -388.284119 -538.489380 21.713396
v -405.089783 -544.772583 21.713396
v -405.089783 -544.772583 21.890701
v -405.089783 -544.772583 22.812063
v -405.089783 -544.772583 23.904707
v -405.089783 -544.772583 26.812851
v -405.089783 -544.772583 28.017754
v -405.089783 -544.772583 30.918295
v -405.067902 -544.831116 30.918295
v -405.067902 -544.831116 32.531349
v -408.585907 -545.785278 32.531349
v -405.014465 -544.449829 32.531349
v -410.346741 -546.443481 32.531349
v -413.599487 -537.743347 32.531349
v -386.401794 -527.574829 32.531349
v -383.149231 -536.274902 32.531349
v -385.004089 -536.968506 32.531349
v -388.552002 -538.294922 32.531349
v -389.531494 -538.661316 32.531349
v -390.023712 -538.845093 32.531349
v -390.452271 -539.005432 32.531349
v -392.397247 -539.732666 32.531349
v -394.720978 -540.601440 32.531349
v -400.301575 -542.687988 32.531349
v -401.188782 -543.019775 32.531349
v -403.131622 -543.746155 32.531349
v -403.553986 -543.903992 32.531349
v -404.040131 -544.085571 32.531349
v -386.804504 -536.483093 25.755985
v -385.804504 -536.483093 25.755985
v -386.804504 -536.483093 24.755985
v -385.804504 -536.483093 24.755985
vt -20.869717 12.225316
vt -20.869717 11.616216
vt -19.485878 11.616216
vt -19.485878 12.225316
vt -20.869717 10.304959
vt -19.485878 10.304959
vt -16.997482 11.616216
vt -16.997482 12.225316
vt -20.869717 10.043773
vt -19.485878 10.043773
vt -15.963773 11.616216
vt -15.963773 12.225316
vt -20.869717 9.875679
vt -19.485878 9.875679
vt -13.468841 11.616216
vt -13.468841 12.225316
vt -20.869717 9.729556
vt -19.485878 9.729556
vt -16.997482 10.043773
vt -16.997482 9.875679
vt -12.531484 11.616216
vt -12.531484 12.225316
vt -20.869717 9.057459
vt -19.485878 9.057459
vt -16.997482 9.729556
vt -15.963773 10.043773
vt -15.963773 9.875679
vt -11.741004 11.616216
vt -11.741004 12.225316
vt -20.869717 8.750539
vt -19.485878 8.750539
vt -16.997482 9.057459
vt -15.963773 9.729556
vt -13.418958 9.875679
vt -13.468841 10.043773
vt -11.588893 11.616216
vt -11.588893 12.225316
vt -20.869717 6.820185
vt -19.485878 6.820185
vt -16.997482 8.750539
vt -15.963773 9.057459
vt -13.422973 9.729556
vt -12.531484 10.043773
vt -12.687707 9.875679
vt -20.869717 6.016356
vt -19.485878 6.016356
vt -16.997482 6.820185
vt -15.963773 8.750539
vt -14.135235 9.057459
vt -11.689076 9.875679
vt -11.741004 10.043773
vt -20.869717 5.343566
vt -19.485878 5.343566
vt -15.963773 6.820185
vt -14.135235 8.750539
vt -12.823560 9.729556
vt -13.448227 9.057459
vt -11.588893 10.043773
vt -11.588893 9.875679
vt -20.869717 5.195296
vt -19.485878 5.195296
vt -16.997482 6.016356
vt -16.997482 5.343566
vt -15.963773 6.016356
vt -13.468841 6.820185
vt -13.448227 8.750539
vt -11.888962 9.057459
vt -11.704127 9.729556
vt -11.588893 9.729556
vt -20.869717 5.025094
vt -19.485878 5.025094
vt -16.997482 5.195296
vt -15.963773 5.343566
vt -12.531484 6.820185
vt -11.588893 9.057459
vt -20.869717 4.748618
vt -19.485878 4.748618
vt -16.997482 5.025094
vt -15.963773 5.195296
vt -13.468841 5.343566
vt -13.468841 6.016356
vt -11.741004 6.820185
vt -11.888962 8.750539
vt -20.869717 3.458946
vt -19.485878 3.458946
vt -15.963773 5.025094
vt -13.468841 5.195296
vt -12.531484 6.016356
vt -12.531484 5.343566
vt -11.588893 8.750539
vt -11.588893 6.820185
vt -11.741004 6.016356
vt -20.869717 2.817362
vt -19.485878 2.817362
vt -13.468841 5.025094
vt -11.741004 5.343566
vt -11.588893 6.016356
vt -16.997482 2.817362
vt -16.997482 3.458946
vt -12.531484 5.195296
vt -12.531484 5.025094
vt -11.588893 5.343566
vt -15.963773 2.817362
vt -15.963773 3.458946
vt -11.741004 5.025094
vt -11.741004 5.195296
vt -11.588893 5.195296
vt -13.468841 2.817362
vt -13.468841 3.458946
vt -11.588893 5.025094
vt -12.531484 2.817362
vt -12.531484 3.458946
vt -11.741004 2.817362
vt -11.741004 3.458946
vt -11.588893 2.817362
vt -11.588893 3.458946
vt -5.575773 -16.417509
vt -2.361015 -16.417486
vt -2.337151 -5.758393
vt -5.551906 -5.758416
vt -6.229630 -5.771017
vt -6.253496 -16.430111
vt 3.092891 -16.430077
vt 3.116756 -5.770988
vt 8.546967 -5.758619
vt 8.523092 -16.417713
vt 11.560410 -16.417654
vt 11.584282 -5.758560
vt -5.501490 16.757669
vt -2.286736 16.757690
vt -2.285274 17.409262
vt -5.500036 17.409243
vt 8.598836 17.409037
vt 8.597378 16.757463
vt 1.000046 0.000000
vt 1.000046 0.080913
vt -2.327236 -1.330534
vt -5.541982 -1.330557
vt 8.556875 -1.330757
vt 11.594194 -1.330701
vt -5.518052 9.356468
vt -2.303304 9.356492
vt -2.294316 13.371805
vt -5.509071 13.371784
vt -6.186798 13.359179
vt -6.195782 9.343863
vt 3.150601 9.343895
vt 3.159590 13.359213
vt 8.589798 13.371581
vt 8.580805 9.356265
vt 11.618124 9.356320
vt 0.000031 0.080913
vt -6.219714 -1.343162
vt 3.126669 -1.343129
vt -5.505684 17.430012
vt -5.507147 16.778435
vt -5.514731 13.392550
vt -5.523707 9.377233
vt 12.634571 -16.417395
vt 1.000092 0.000000
vt 1.000092 0.161383
vt 0.000076 0.161383
vt 0.000076 0.000000
vt 1.000092 1.000000
vt 0.000076 1.000006
vt 12.658434 -5.758304
vt 12.668350 -1.330444
vt 12.692284 9.356582
vt 12.701273 13.371895
vt 12.708851 16.757790
vt 12.710314 17.409353
vt 1.000000 0.457479
vt 1.000000 1.000001
vt -0.000031 1.000006
vt -0.000031 0.457479
vt -0.000031 0.000001
vt 1.000000 0.000001
vt 0.000000 0.424054
vt 0.000000 0.002319
vt 1.000031 0.000001
vt 1.000031 0.345712
vt 1.000031 1.000006
vt 0.000000 1.000006
vt -13.292507 -11.401586
vt -11.908654 -11.401586
vt -11.908654 2.642040
vt -13.292507 2.642040
vt -15.780912 -11.401586
vt -15.780912 2.642040
vt -16.814613 -11.401586
vt -16.814613 2.642040
vt -19.309526 -11.401586
vt -19.309526 2.642040
vt -20.246923 -11.401586
vt -20.246923 2.642040
vt -21.037367 -11.401586
vt -21.037367 2.641988
vt -22.793287 2.825977
vt -21.409437 2.825977
vt -21.409437 12.233973
vt -22.793287 12.233973
vt -25.281683 2.825977
vt -25.281683 12.233973
vt -26.315390 2.825977
vt -26.315390 12.233973
vt -28.810305 2.825977
vt -28.810305 12.233973
vt -29.747702 2.825977
vt -29.747303 12.233973
vt -30.538143 2.826011
vt -30.536554 12.233991
vt -30.426365 -11.401741
vt -29.042528 -11.401741
vt -29.042528 2.642421
vt -30.426365 2.642489
vt -26.554134 -11.401741
vt -26.554134 2.642421
vt -25.520422 -11.401741
vt -25.520422 2.642421
vt -23.025492 -11.401741
vt -23.025492 2.642421
vt -22.088129 -11.401741
vt -22.088511 2.642421
vt -21.297649 -11.401741
vt -21.297649 2.642421
vt -21.145540 -11.401741
vt -21.145540 2.642627
vt -35.064934 6.419065
vt -35.064861 6.142607
vt -34.976700 6.142607
vt -34.976627 6.419065
vt -35.064861 4.852953
vt -34.976921 4.852953
vt -21.260914 10.697889
vt -21.260914 8.209496
vt -21.172977 8.209496
vt -21.172977 10.697889
vt -21.260914 7.175788
vt -21.172977 7.175788
vt -21.260914 4.680856
vt -21.172977 4.680856
vt -21.260914 3.743491
vt -21.172977 3.743491
vt -21.260914 2.953016
vt -21.172977 2.953016
vt -21.260914 2.800905
vt -21.172977 2.800905
vt -37.859261 5.293717
vt -37.859261 2.805315
vt -37.770962 2.805315
vt -37.770962 5.293717
vt -37.859261 6.327418
vt -37.770962 6.327418
vt -37.859261 8.822331
vt -37.770962 8.822331
vt -6.648325 17.409079
vt -6.649787 16.757511
vt -6.657374 13.371626
vt -6.666362 9.356310
vt -6.690280 -1.330715
vt -37.857304 2.641037
vt -37.689217 2.641313
vt -37.543076 2.641382
vt -36.871014 2.641245
vt -36.564095 2.641382
vt -36.853302 5.293684
vt -36.853302 2.805281
vt -36.765362 2.805281
vt -36.765362 5.293684
vt -36.853302 6.327382
vt -36.765362 6.327382
vt -36.853302 8.822295
vt -36.765362 8.822295
vt -36.853302 9.759696
vt -36.765362 9.759696
vt -36.853302 10.550137
vt -36.765362 10.550137
vt -36.853302 10.702248
vt -36.765362 10.702248
vt -31.264458 4.999286
vt -31.264458 4.738101
vt -31.176500 4.738083
vt -31.176434 4.999286
vt -31.264666 6.310553
vt -31.176725 6.310553
vt -38.306362 10.702507
vt -38.306362 8.214114
vt -38.218388 8.214114
vt -38.218388 10.702507
vt -38.306362 7.180406
vt -38.218388 7.180406
vt -38.306362 4.685474
vt -38.218388 4.685474
vt -38.306362 3.748110
vt -38.218388 3.748110
vt -38.306362 2.957633
vt -38.218388 2.957633
vt -38.306362 2.805524
vt -38.218388 2.805524
vt -6.700194 -5.758574
vt -6.724069 -16.417667
vt -34.633705 2.641105
vt -33.829910 2.641175
vt -33.157108 2.641175
vt -33.008850 2.641245
vt -35.679695 5.342270
vt -35.679695 2.853861
vt -35.538254 2.853861
vt -35.538254 5.342270
vt -32.438240 6.344152
vt -32.438274 5.540356
vt -32.296871 5.540356
vt -32.296799 6.344169
vt -35.400242 5.342236
vt -35.400242 2.853842
vt -35.258823 2.853842
vt -35.258823 5.342236
vt -31.737923 5.465305
vt -31.737993 6.269135
vt -31.879416 6.269135
vt -31.879349 5.465305
vt -37.635723 6.261317
vt -37.635723 5.323918
vt -37.494282 5.323918
vt -37.494282 6.261317
vt -37.635723 2.829004
vt -37.494282 2.829004
vt -37.356266 3.766324
vt -37.356266 2.828961
vt -37.214848 2.828961
vt -37.214848 3.766324
vt -37.356266 6.261257
vt -37.214848 6.261257
vt -32.632103 5.521970
vt -32.632175 6.325800
vt -32.773598 6.325800
vt -32.773525 5.521970
vt -35.679642 6.344222
vt -35.679676 5.540426
vt -35.538273 5.540426
vt -35.538204 6.344239
vt -37.076851 4.658655
vt -37.076851 4.358586
vt -37.002716 4.358586
vt -37.002716 4.658655
vt -37.076851 2.799340
vt -37.002716 2.799340
vt -38.082817 3.155097
vt -38.082817 2.855027
vt -38.008747 2.855027
vt -38.008747 3.155097
vt -38.082817 4.714361
vt -38.008747 4.714361
vt -37.076717 5.167777
vt -37.076859 4.860859
vt -37.002792 4.860875
vt -37.002583 5.167793
vt -31.041121 3.786035
vt -31.041121 2.848636
vt -30.999861 2.848636
vt -30.999861 3.786035
vt -31.041121 4.576476
vt -30.999861 4.576476
vt -38.082779 5.351654
vt -38.082817 5.203401
vt -38.041523 5.203418
vt -38.041523 5.351654
vt -30.817554 4.580845
vt -30.817554 3.643481
vt -30.776247 3.643481
vt -30.776247 4.580845
vt -30.817554 2.853004
vt -30.776247 2.853004
vt -38.041508 4.893877
vt -38.041580 5.042149
vt -38.082817 5.042149
vt -38.082817 4.893877
vt -21.037367 3.518492
vt -21.037367 2.787258
vt -20.996078 2.787258
vt -20.996078 3.518492
vt -21.037367 4.517123
vt -20.996078 4.517123
vt -37.076790 5.462129
vt -37.076859 5.315988
vt -37.035606 5.315988
vt -37.035500 5.462148
vt -21.037367 6.467524
vt -21.037367 5.868110
vt -20.996096 5.868110
vt -20.996096 6.467524
vt -21.037367 4.748678
vt -20.996096 4.748678
vt -34.744129 5.342288
vt -34.744198 5.488413
vt -34.785507 5.488413
vt -34.785370 5.342288
vt -38.060249 2.164051
vt -39.344112 2.164398
vt -39.940464 2.164330
vt -39.940399 -10.926451
vt -30.729237 -10.925967
vt -30.729303 2.164260
vt -31.357500 2.164467
vt -32.620152 2.164398
vt -32.890835 2.164536
vt -33.057526 2.164467
vt -33.202663 2.164330
vt -33.861408 2.164330
vt -34.648388 2.164330
vt -36.538391 2.164536
vt -36.838886 2.164467
vt -37.496883 2.164606
vt -37.639957 2.164536
vt -37.804520 2.164190
vt -38.118492 2.641037
vt -39.429760 2.641245
vt -40.038845 2.641105
vt -40.038811 -11.403159
vt -30.630812 -11.402676
vt -30.630886 2.640968
vt -31.272501 2.641313
vt -32.562157 2.641313
vt -32.838615 2.641382
vt 0.000015 0.086220
vt 1.000000 0.086220
vt 1.000000 0.005774
vt 0.000015 0.005774
vt 0.000015 1.000006
vt 1.000000 1.000006
vt 1.000000 0.504256
vt 0.000015 0.504256
vt 0.000031 0.000000
vt 1.000046 0.501375
vt 1.000046 1.000001
vt 0.000031 1.000006
vt 0.000031 0.501375
vt 1.897126 1.349333
vt 1.897169 1.716283
vt 1.897137 1.897195
vt -0.897204 1.897192
vt -0.897193 -0.897198
vt 1.897105 -0.897182
vt 1.897137 -0.706605
vt 1.897115 -0.342078
vt 1.897179 -0.241436
vt 1.897105 -0.190874
vt 1.897137 -0.146838
vt 1.897147 0.052996
vt 1.897158 0.291746
vt 1.897179 0.865121
vt 1.897211 0.956278
vt 1.897211 1.155893
vt 1.897179 1.199286
vt 1.897126 1.249229
vt 0.000000 0.000000
vt 1.000000 0.000000
vt 1.000000 1.000000
vt 0.000000 1.000000
vt 0.000015 0.086220
vt 1.000000 0.086220
vt 1.000000 0.504256
vt 0.000015 0.504256
vn 0.350156 -0.936691 0.000000
vn 0.350154 -0.936692 0.000000
vn 0.350185 -0.936680 0.000000
vn 0.350201 -0.936674 0.000000
vn 0.350136 -0.936699 0.000000
vn 0.350112 -0.936708 0.000000
vn 0.350205 -0.936673 0.000000
vn 0.350205 -0.936673 0.000000
vn 0.350269 -0.936649 0.000000
vn 0.350288 -0.936642 0.000000
vn 0.350325 -0.936628 0.000000
vn 0.350323 -0.936629 0.000000
vn 0.350324 -0.936629 0.000000
vn 0.350324 -0.936629 0.000000
vn 0.350155 -0.936692 0.000000
vn 0.350159 -0.936690 0.000000
vn 0.350168 -0.936687 0.000000
vn 0.350166 -0.936688 0.000000
vn 0.350154 -0.936692 0.000000
vn 0.350154 -0.936692 0.000000
vn 0.350112 -0.936708 0.000000
vn 0.350111 -0.936708 0.000000
vn 0.350113 -0.936707 0.000000
vn 0.350070 -0.936723 0.000000
vn 0.350215 -0.936669 0.000000
vn 0.350219 -0.936668 0.000000
vn 0.350200 -0.936675 0.000000
vn 0.350200 -0.936675 0.000000
vn 0.350195 -0.936677 0.000000
vn 0.350195 -0.936677 0.000000
vn 0.350195 -0.936677 0.000000
vn 0.350195 -0.936677 0.000000
vn 0.350176 -0.936684 0.000000
vn 0.350179 -0.936683 0.000000
vn 0.350182 -0.936682 0.000000
vn 0.350220 -0.936668 0.000000
vn 0.350221 -0.936667 0.000000
vn 0.350221 -0.936667 0.000000
vn 0.349972 -0.936760 0.000000
vn 0.350020 -0.936742 0.000000
vn 0.350186 -0.936680 0.000000
vn 0.350109 -0.936709 0.000000
vn 0.350110 -0.936709 0.000000
vn 0.350186 -0.936680 0.000000
vn 0.350321 -0.936630 0.000000
vn 0.350321 -0.936630 0.000000
vn 0.350321 -0.936630 0.000000
vn 0.350321 -0.936630 0.000000
vn 0.350159 -0.936690 0.000000
vn 0.350161 -0.936689 0.000000
vn 0.350168 -0.936687 0.000000
vn 0.350167 -0.936687 0.000000
vn 0.350117 -0.936706 0.000000
vn 0.350082 -0.936719 0.000000
vn 0.350076 -0.936721 0.000000
vn 0.350101 -0.936712 0.000000
vn 0.350214 -0.936670 0.000000
vn 0.350197 -0.936676 0.000000
vn 0.350199 -0.936675 0.000000
vn 0.350215 -0.936669 0.000000
vn 0.350231 -0.936664 0.000000
vn 0.350231 -0.936664 0.000000
vn 0.350192 -0.936678 0.000000
vn 0.350120 -0.936705 0.000000
vn 0.350111 -0.936708 0.000000
vn 0.350188 -0.936679 0.000000
vn 0.350153 -0.936693 0.000000
vn 0.350153 -0.936692 0.000000
vn 0.350153 -0.936692 0.000000
vn 0.350153 -0.936693 0.000000
vn 0.350057 -0.936728 0.000000
vn 0.350057 -0.936728 0.000000
vn 0.350061 -0.936727 0.000000
vn 0.350061 -0.936727 0.000000
vn 0.350188 -0.936679 0.000000
vn 0.350187 -0.936680 0.000000
vn 0.350186 -0.936680 0.000000
vn 0.349867 -0.936799 0.000000
vn 0.350002 -0.936749 0.000000
vn 0.349956 -0.936766 0.000000
vn 0.349865 -0.936800 0.000000
vn 0.349865 -0.936800 0.000000
vn 0.350007 -0.936747 0.000000
vn 0.350004 -0.936748 0.000000
vn 0.349996 -0.936751 0.000000
vn 0.350320 -0.936630 0.000000
vn 0.350320 -0.936630 0.000000
vn 0.350159 -0.936690 0.000000
vn 0.350168 -0.936687 0.000000
vn 0.350117 -0.936706 0.000000
vn 0.350074 -0.936722 0.000000
vn 0.350221 -0.936667 0.000000
vn 0.350198 -0.936676 0.000000
vn 0.350198 -0.936676 0.000000
vn 0.350180 -0.936682 0.000000
vn 0.350186 -0.936680 0.000000
vn 0.349860 -0.936802 0.000000
vn 0.350003 -0.936749 0.000000
vn 0.350186 -0.936680 0.000000
vn 0.350107 -0.936710 0.000000
vn 0.350154 -0.936692 0.000000
vn 0.350154 -0.936692 0.000000
vn 0.350321 -0.936630 0.000000
vn 0.350322 -0.936630 0.000000
vn 0.350322 -0.936630 0.000000
vn 0.350321 -0.936630 0.000000
vn 0.350159 -0.936690 0.000000
vn 0.350160 -0.936690 0.000000
vn 0.350167 -0.936687 0.000000
vn 0.350168 -0.936687 0.000000
vn 0.350073 -0.936722 0.000000
vn 0.350073 -0.936722 0.000000
vn 0.350073 -0.936722 0.000000
vn 0.350105 -0.936711 0.000000
vn 0.350193 -0.936678 0.000000
vn 0.350193 -0.936678 0.000000
vn 0.350194 -0.936677 0.000000
vn 0.350194 -0.936677 0.000000
vn 0.350198 -0.936676 0.000000
vn 0.350221 -0.936667 0.000000
vn 0.350230 -0.936664 0.000000
vn 0.350180 -0.936682 0.000000
vn 0.350207 -0.936672 0.000000
vn 0.350185 -0.936681 0.000000
vn 0.349860 -0.936802 0.000000
vn 0.349860 -0.936802 0.000000
vn 0.349953 -0.936767 0.000000
vn 0.349861 -0.936802 0.000000
vn 0.350186 -0.936680 0.000000
vn 0.350106 -0.936710 0.000000
vn 0.350108 -0.936709 0.000000
vn 0.350186 -0.936680 0.000000
vn 0.350153 -0.936693 0.000000
vn 0.350153 -0.936693 0.000000
vn 0.350153 -0.936693 0.000000
vn 0.350153 -0.936693 0.000000
vn 0.350175 -0.936684 0.000000
vn 0.350183 -0.936681 0.000000
vn 0.350503 -0.936562 0.000000
vn 0.350503 -0.936562 0.000000
vn 0.350511 -0.936559 0.000000
vn 0.350511 -0.936559 0.000000
vn 0.350178 -0.936683 0.000000
vn 0.350177 -0.936684 0.000000
vn 0.350176 -0.936684 0.000000
vn 0.350173 -0.936685 0.000000
vn 0.350199 -0.936675 0.000000
vn 0.350197 -0.936676 0.000000
vn 0.350187 -0.936680 0.000000
vn 0.350197 -0.936676 0.000000
vn 0.350194 -0.936677 0.000000
vn 0.350194 -0.936677 0.000000
vn 0.350064 -0.936726 0.000000
vn 0.350064 -0.936726 0.000000
vn 0.350494 -0.936565 0.000000
vn 0.350494 -0.936565 0.000000
vn 0.350197 -0.936676 0.000000
vn 0.350196 -0.936677 0.000000
vn 0.350195 -0.936677 0.000000
vn 0.350193 -0.936678 0.000000
vn 0.350206 -0.936673 0.000000
vn 0.350243 -0.936659 0.000000
vn 0.350247 -0.936657 0.000000
vn 0.350210 -0.936671 0.000000
vn 0.350192 -0.936678 0.000000
vn 0.350248 -0.936657 0.000000
vn 0.349939 -0.936773 0.000000
vn 0.349939 -0.936773 0.000000
vn 0.349931 -0.936775 0.000000
vn 0.349931 -0.936775 0.000000
vn 0.349946 -0.936770 0.000000
vn 0.349946 -0.936770 0.000000
vn 0.936680 0.350188 0.000000
vn 0.936680 0.350188 0.000000
vn 0.936680 0.350187 0.000000
vn 0.936680 0.350187 0.000000
vn 0.936679 0.350189 0.000000
vn 0.936679 0.350189 0.000000
vn 0.936677 0.350194 -0.000053
vn 0.936677 0.350194 -0.000053
vn 0.936678 0.350192 -0.000027
vn 0.936678 0.350192 -0.000027
vn 0.936679 0.350190 0.000000
vn 0.936679 0.350190 0.000000
vn 0.936678 0.350191 0.000000
vn 0.936678 0.350191 0.000000
vn -0.350198 0.936676 0.000000
vn -0.350198 0.936676 0.000000
vn -0.350198 0.936676 0.000000
vn -0.350198 0.936676 0.000000
vn -0.350199 0.936675 0.000000
vn -0.350199 0.936675 0.000000
vn -0.350197 0.936676 0.000021
vn -0.350197 0.936676 0.000021
vn -0.350198 0.936676 0.000010
vn -0.350198 0.936676 0.000010
vn -0.350199 0.936675 0.000000
vn -0.350199 0.936675 0.000000
vn -0.350199 0.936675 0.000000
vn -0.350199 0.936675 0.000000
vn -0.936677 -0.350195 0.000015
vn -0.936677 -0.350195 0.000015
vn -0.936676 -0.350196 0.000008
vn -0.936676 -0.350196 0.000008
vn -0.936676 -0.350197 0.000000
vn -0.936676 -0.350197 0.000000
vn -0.936676 -0.350196 0.000000
vn -0.936676 -0.350196 0.000000
vn -0.936678 -0.350192 -0.000138
vn -0.936678 -0.350192 -0.000138
vn -0.936676 -0.350197 0.000000
vn -0.936676 -0.350197 0.000000
vn -0.936677 -0.350196 0.000000
vn -0.936677 -0.350196 0.000000
vn -0.936680 -0.350186 -0.000276
vn -0.936680 -0.350186 -0.000276
vn 0.000000 0.000000 -1.000000
vn 0.000000 0.000000 -1.000000
vn 0.000008 0.000000 -1.000000
vn 0.000008 0.000000 -1.000000
vn -0.936553 -0.350527 0.000000
vn -0.936553 -0.350527 0.000000
vn -0.936689 -0.350163 0.000000
vn -0.936689 -0.350163 0.000000
vn 0.936562 0.350503 0.000000
vn 0.936562 0.350503 0.000000
vn 0.936471 0.350746 0.000000
vn 0.936471 0.350746 0.000000
vn -0.936881 -0.349648 0.000000
vn -0.936881 -0.349648 0.000000
vn -0.936911 -0.349568 0.000000
vn -0.936911 -0.349568 0.000000
vn 0.936594 0.350417 0.000000
vn 0.936594 0.350417 0.000000
vn 0.936554 0.350522 0.000000
vn 0.936554 0.350522 0.000000
vn -0.936729 -0.350056 0.000000
vn -0.936729 -0.350056 0.000000
vn 0.936602 0.350395 0.000000
vn 0.936602 0.350395 0.000000
vn -0.936633 -0.350313 0.000000
vn -0.936633 -0.350313 0.000000
vn -0.936742 -0.350021 0.000000
vn -0.936742 -0.350021 0.000000
vn 0.936534 0.350577 0.000000
vn 0.936534 0.350577 0.000000
vn 0.936552 0.350528 0.000000
vn 0.936552 0.350528 0.000000
vn 0.936689 0.350163 0.000000
vn 0.936689 0.350163 0.000000
vn 0.936553 0.350527 0.000000
vn 0.936553 0.350527 0.000000
vn -0.000001 0.000000 -1.000000
vn -0.000001 0.000000 -1.000000
vn 0.000014 0.000000 -1.000000
vn 0.000014 0.000000 -1.000000
vn -0.936995 -0.349343 0.000000
vn -0.936995 -0.349343 0.000000
vn -0.937043 -0.349215 0.000000
vn -0.937043 -0.349215 0.000000
vn 0.936685 0.350173 0.000000
vn 0.936685 0.350173 0.000000
vn 0.936681 0.350183 0.000000
vn 0.936681 0.350183 0.000000
vn -0.936968 -0.349415 0.000000
vn -0.936968 -0.349415 0.000000
vn -0.936911 -0.349568 0.000000
vn -0.936911 -0.349568 0.000000
vn 0.936729 0.350056 0.000000
vn 0.936729 0.350056 0.000000
vn -0.937082 -0.349109 0.000000
vn -0.937082 -0.349109 0.000000
vn 0.936728 0.350057 0.000000
vn 0.936728 0.350057 0.000000
vn 0.936706 0.350117 0.000000
vn 0.936706 0.350117 0.000000
vn -0.937073 -0.349134 0.000000
vn -0.937073 -0.349134 0.000000
vn -0.937049 -0.349198 0.000000
vn -0.937049 -0.349198 0.000000
vn 0.936402 0.350928 0.000000
vn 0.936402 0.350928 0.000000
vn 0.936402 0.350928 0.000000
vn 0.936402 0.350928 0.000000
vn 0.000000 0.000000 -1.000000
vn 0.000000 0.000000 -1.000000
vn 0.000000 0.000000 -1.000000
vn 0.000000 0.000000 -1.000000
vn -0.936540 -0.350560 0.000000
vn -0.936540 -0.350560 0.000000
vn -0.936540 -0.350560 0.000000
vn -0.936540 -0.350560 0.000000
vn 0.000000 0.000000 1.000000
vn 0.000000 0.000000 1.000000
vn 0.000000 0.000000 1.000000
vn 0.000000 0.000000 1.000000
vn 0.936421 0.350879 0.000000
vn 0.936421 0.350879 0.000000
vn 0.936425 0.350868 0.000000
vn 0.936425 0.350868 0.000000
vn -0.936585 -0.350440 0.000000
vn -0.936585 -0.350440 0.000000
vn -0.936604 -0.350390 0.000000
vn -0.936604 -0.350390 0.000000
vn -0.000008 0.000000 1.000000
vn -0.000008 0.000000 1.000000
vn -0.000008 0.000000 1.000000
vn -0.000008 0.000000 1.000000
vn 0.936429 0.350857 0.000000
vn 0.936429 0.350857 0.000000
vn 0.000000 0.000000 -1.000000
vn 0.000000 0.000000 -1.000000
vn 0.000000 0.000000 -1.000000
vn 0.000000 0.000000 -1.000000
vn -0.936566 -0.350490 0.000000
vn -0.936566 -0.350490 0.000000
vn 0.936161 0.351571 0.000000
vn 0.936161 0.351571 0.000000
vn 0.936248 0.351341 0.000000
vn 0.936248 0.351341 0.000000
vn -0.936346 -0.351079 0.000000
vn -0.936346 -0.351079 0.000000
vn -0.936291 -0.351226 0.000000
vn -0.936291 -0.351226 0.000000
vn 0.936334 0.351111 0.000000
vn 0.936334 0.351111 0.000000
vn 0.000019 0.000000 -1.000000
vn 0.000019 0.000000 -1.000000
vn 0.000019 0.000000 -1.000000
vn 0.000019 0.000000 -1.000000
vn -0.936401 -0.350933 0.000000
vn -0.936401 -0.350933 0.000000
vn 0.936714 0.350097 0.000000
vn 0.936714 0.350097 0.000000
vn 0.936626 0.350330 0.000000
vn 0.936626 0.350330 0.000000
vn 0.000017 0.000000 -1.000000
vn 0.000017 0.000000 -1.000000
vn 0.000017 0.000000 -1.000000
vn 0.000017 0.000000 -1.000000
vn -0.937078 -0.349121 0.000000
vn -0.937078 -0.349121 0.000000
vn -0.937319 -0.348472 0.000000
vn -0.937319 -0.348472 0.000000
vn 0.000000 0.000000 1.000000
vn 0.000000 0.000000 1.000000
vn 0.000000 0.000000 1.000000
vn 0.000000 0.000000 1.000000
vn 0.936801 0.349864 0.000000
vn 0.936801 0.349864 0.000000
vn -0.937560 -0.347823 0.000000
vn -0.937560 -0.347823 0.000000
vn 0.937336 0.348428 0.000000
vn 0.937336 0.348428 0.000000
vn 0.937251 0.348654 0.000000
vn 0.937251 0.348654 0.000000
vn 0.009544 0.003570 -0.999948
vn 0.009544 0.003570 -0.999948
vn 0.009544 0.003570 -0.999948
vn 0.009544 0.003570 -0.999948
vn -0.936471 -0.350745 0.000000
vn -0.936471 -0.350745 0.000000
vn -0.936310 -0.351174 0.000000
vn -0.936310 -0.351174 0.000000
vn 0.000000 0.000000 1.000000
vn 0.000000 0.000000 1.000000
vn 0.000000 0.000000 1.000000
vn 0.000000 0.000000 1.000000
vn 0.937420 0.348201 0.000000
vn 0.937420 0.348201 0.000000
vn -0.936149 -0.351604 0.000000
vn -0.936149 -0.351604 0.000000
vn 0.000016 0.000000 -1.000000
vn 0.000016 0.000000 -1.000000
vn 0.350176 -0.936684 0.000000
vn 0.350178 -0.936683 0.000000
vn 0.350176 -0.936684 0.000000
vn 0.350177 -0.936684 0.000000
vn 0.350175 -0.936684 0.000000
vn 0.350175 -0.936684 0.000000
vn 0.350175 -0.936684 0.000000
vn 0.350265 -0.936651 0.000000
vn 0.350265 -0.936651 0.000000
vn 0.350265 -0.936651 0.000000
vn 0.350265 -0.936651 0.000000
vn 0.350265 -0.936651 0.000000
vn 0.350264 -0.936651 0.000000
vn 0.350263 -0.936652 0.000000
vn -0.000016 0.000000 -1.000000
vn -0.000016 0.000000 -1.000000
vn -0.000000 0.000000 1.000000
vn -0.000001 0.000000 1.000000
vn 0.000000 0.000000 1.000000
vn 0.000001 0.000000 1.000000
vn 0.000001 0.000000 1.000000
vn 0.000002 0.000000 1.000000
vn 0.000001 0.000000 1.000000
vn -0.000000 0.000000 1.000000
vn 0.000001 0.000000 1.000000
vn 0.000000 0.000000 1.000000
vn -0.000001 0.000000 1.000000
vn -0.000000 0.000000 1.000000
vn -0.000000 0.000000 1.000000
vn -0.000000 0.000000 1.000000
vn -0.000000 0.000000 1.000000
vn -0.000000 0.000000 1.000000
vn -0.000000 0.000000 1.000000
vn -0.000000 0.000000 1.000000
vn 0.000000 0.000000 1.000000
vn 0.000000 0.000000 1.000000
vn 0.000000 0.000000 1.000000
vn 0.000000 0.000000 1.000000
vn 0.000000 0.000000 1.000000
vn 0.000000 0.000000 1.000000
vn 0.000000 0.000000 1.000000
vn 0.000000 0.000000 1.000000
vn -0.000001 0.000000 1.000000
vn 0.000000 0.000000 1.000000
vn 0.000002 0.000000 1.000000
vn 0.000000 0.000000 1.000000
vn 0.000002 0.000000 1.000000
vn 0.000003 0.000000 1.000000
vn 0.000001 0.000000 1.000000
vn 0.000002 0.000000 1.000000
vn 0.000000 0.000000 1.000000
vn -0.000001 0.000000 1.000000
vn 0.000000 -1.000000 0.000000
vn 0.000000 -1.000000 0.000000
vn 0.000000 -1.000000 0.000000
vn 0.000000 -1.000000 0.000000
s 1
g polySurface1
usemtl lambert2SG
f 1/1/1 12/4/2 23/3/3 22/2/4
f 5/70/5 11/71/6 186/77/7 185/76/8
f 7/84/9 10/85/10 9/94/11 2/93/12
f 10/85/10 42/99/13 41/98/14 9/94/11
s 3
usemtl lambert3SG
f 130/117/15 132/120/16 188/119/17 187/118/18
s 1
usemtl lambert2SG
f 12/4/2 50/8/19 49/7/20 23/3/3
f 66/60/21 65/61/22 11/71/6 5/70/5
f 64/72/23 43/78/24 11/71/6 65/61/22
f 16/38/25 17/39/26 14/46/27 13/45/28
s off
usemtl lambert3SG
f 158/121/29 160/124/30 159/123/31 157/122/32
s 1
usemtl lambert2SG
f 36/30/33 35/31/34 17/39/26 16/38/25
f 46/40/35 45/47/36 17/39/26 35/31/34
f 202/5/37 201/6/38 20/10/39 19/9/40
s 5
usemtl lambert3SG
f 199/125/41 146/128/42 145/127/43 200/126/44
s 1
usemtl lambert2SG
f 95/114/45 8/116/46 4/115/47 96/113/48
s 3
usemtl lambert4SG
f 133/460/49 136/428/50 193/427/51 192/461/52
s 1
usemtl lambert2SG
f 61/107/53 6/110/54 94/105/55 93/106/56
f 18/91/57 15/97/58 91/92/59 90/82/60
f 33/90/61 18/91/57 90/82/60 89/83/62
s 5
usemtl lambert4SG
f 194/135/63 150/433/64 149/152/65 195/136/66
s 1
usemtl lambert2SG
f 85/29/67 3/37/68 24/36/69 86/28/70
s 12
usemtl lambert4SG
f 167/160/71 170/163/72 169/162/73 168/161/74
s 1
usemtl lambert2SG
f 47/32/75 46/40/35 35/31/34 39/24/76
f 40/23/77 39/24/76 35/31/34 36/30/33
f 21/58/78 112/59/79 111/50/80 87/51/81
f 48/19/82 107/20/83 106/14/84 20/10/39
f 19/9/40 20/10/39 106/14/84 105/13/85
f 42/99/13 52/104/86 51/103/87 41/98/14
s 3
usemtl lambert3SG
f 132/120/16 138/138/88 189/137/89 188/119/17
s 1
usemtl lambert2SG
f 63/79/90 53/86/91 43/78/24 64/72/23
f 55/54/92 54/64/93 44/62/94 45/47/36
f 56/48/95 55/54/92 45/47/36 46/40/35
f 57/41/96 56/48/95 46/40/35 47/32/75
f 58/26/97 108/27/98 107/20/83 48/19/82
s 5
usemtl lambert3SG
f 198/139/99 152/140/100 146/128/42 199/125/41
s 1
usemtl lambert2SG
f 50/8/19 60/12/101 59/11/102 49/7/20
f 83/109/103 26/112/104 25/111/105 84/108/106
s 3
usemtl lambert4SG
f 139/429/107 142/463/108 191/462/109 190/430/110
s 1
usemtl lambert2SG
f 62/100/111 27/101/112 82/95/113 81/87/114
s 16
usemtl lambert3SG
f 162/145/115 164/148/116 163/147/117 161/146/118
s 1
usemtl lambert2SG
f 34/66/119 29/74/120 78/65/121 77/55/122
f 38/57/123 34/66/119 77/55/122 76/49/124
f 30/43/125 110/44/126 109/34/127 75/35/128
s 5
usemtl lambert4SG
f 196/434/129 156/437/130 155/436/131 197/435/132
s 1
usemtl lambert2SG
f 73/16/133 32/22/134 31/21/135 74/15/136
f 67/102/137 61/107/53 93/106/56 92/96/138
s 17
usemtl lambert5SG
f 173/172/139 176/175/140 175/174/141 174/173/142
s 1
usemtl lambert2SG
f 69/73/143 63/79/90 64/72/23 70/63/144
f 70/63/144 64/72/23 65/61/22 71/53/145
f 72/52/146 71/53/145 65/61/22 66/60/21
f 15/97/58 67/102/137 92/96/138 91/92/59
f 28/88/147 68/89/148 80/80/149 79/81/150
f 54/64/93 69/73/143 70/63/144 44/62/94
f 44/62/94 70/63/144 71/53/145 14/46/27
f 13/45/28 14/46/27 71/53/145 72/52/146
f 60/12/101 73/16/133 74/15/136 59/11/102
s 5
usemtl lambert3SG
f 155/151/131 152/140/100 198/139/99 197/150/132
s 1
usemtl lambert2SG
f 109/34/127 108/27/98 58/26/97 75/35/128
f 77/55/122 56/48/95 57/41/96 76/49/124
f 78/65/121 55/54/92 56/48/95 77/55/122
s 16
usemtl lambert3SG
f 163/147/117 166/154/151 165/153/152 161/146/118
s 1
usemtl lambert2SG
f 80/80/149 69/73/143 54/64/93 79/81/150
f 81/87/114 63/79/90 69/73/143 80/80/149
f 82/95/113 53/86/91 63/79/90 81/87/114
s 3
usemtl lambert3SG
f 138/138/88 139/141/107 190/142/110 189/137/89
s 1
usemtl lambert2SG
f 52/104/86 83/109/103 84/108/106 51/103/87
f 32/22/134 85/29/67 86/28/70 31/21/135
s 5
usemtl lambert4SG
f 149/152/65 156/437/130 196/434/129 195/136/66
s 1
usemtl lambert2SG
f 111/50/80 110/44/126 30/43/125 87/51/81
s 12
usemtl lambert4SG
f 169/162/73 172/165/153 171/164/154 168/161/74
s 1
usemtl lambert2SG
f 90/82/60 29/74/120 34/66/119 89/83/62
f 91/92/59 28/88/147 29/74/120 90/82/60
f 92/96/138 68/89/148 28/88/147 91/92/59
s 17
usemtl lambert5SG
f 178/176/155 176/175/140 173/172/139 177/177/156
s 1
usemtl lambert2SG
f 94/105/55 27/101/112 62/100/111 93/106/56
s 3
usemtl lambert4SG
f 142/432/108 133/425/49 192/426/52 191/431/109
s 1
usemtl lambert2SG
f 26/112/104 95/114/45 96/113/48 25/111/105
f 97/17/157 98/18/158 39/24/76 40/23/77
f 99/25/159 47/32/75 39/24/76 98/18/158
f 100/33/160 57/41/96 47/32/75 99/25/159
f 76/49/124 57/41/96 100/33/160 101/42/161
f 102/56/162 38/57/123 76/49/124 101/42/161
f 88/67/163 38/57/123 102/56/162 103/68/164
f 104/69/165 37/75/166 88/67/163 103/68/164
f 105/13/85 106/14/84 98/18/158 97/17/157
f 107/20/83 99/25/159 98/18/158 106/14/84
f 108/27/98 100/33/160 99/25/159 107/20/83
f 101/42/161 100/33/160 108/27/98 109/34/127
s 18
usemtl lambert5SG
f 180/178/167 182/181/168 181/180/169 179/179/170
f 184/182/171 182/181/168 180/178/167 183/183/172
s 1
usemtl lambert2SG
f 112/59/79 104/69/165 103/68/164 111/50/80
s 19
f 9/184/173 114/187/174 113/186/175 2/185/176
f 41/188/177 115/189/178 114/187/174 9/184/173
f 96/196/179 117/197/180 116/195/181 25/194/182
f 51/190/183 118/191/184 115/189/178 41/188/177
f 84/192/185 119/193/186 118/191/184 51/190/183
f 25/194/182 116/195/181 119/193/186 84/192/185
s 21
f 114/198/187 121/201/188 120/200/189 113/199/190
f 115/202/191 122/203/192 121/201/188 114/198/187
f 117/210/193 124/211/194 123/209/195 116/208/196
f 118/204/197 125/205/198 122/203/192 115/202/191
f 119/206/199 126/207/200 125/205/198 118/204/197
f 116/208/196 123/209/195 126/207/200 119/206/199
s 23
f 1/212/201 120/215/202 121/214/203 12/213/204
f 12/213/204 121/214/203 122/217/205 50/216/206
f 32/222/207 123/223/208 127/225/209 85/224/210
f 50/216/206 122/217/205 125/219/211 60/218/212
f 60/218/212 125/219/211 126/221/213 73/220/214
f 73/220/214 126/221/213 123/223/208 32/222/207
f 85/224/210 127/225/209 128/227/215 3/226/216
s 25
f 11/228/217 130/231/218 187/230/219 186/229/220
s 26
f 10/234/221 129/237/222 131/236/223 42/235/224
s 27
f 43/248/225 132/251/226 130/250/227 11/249/228
s 26
f 95/244/229 134/245/230 135/247/231 8/246/232
s 27
usemtl lambert3SG
f 6/155/233 136/132/234 133/129/235 94/156/236
s 26
usemtl lambert2SG
f 42/235/224 131/236/223 137/239/237 52/238/238
s 27
f 53/252/239 138/253/240 132/251/226 43/248/225
s 26
f 83/240/241 140/241/242 141/243/243 26/242/244
s 27
usemtl lambert3SG
f 27/157/245 142/144/246 139/141/247 82/158/248
s 26
usemtl lambert2SG
f 52/238/238 137/239/237 140/241/242 83/240/241
s 27
f 82/254/248 139/255/247 138/253/240 53/252/239
s 26
f 26/242/244 141/243/243 134/245/230 95/244/229
s 27
usemtl lambert3SG
f 94/156/236 133/129/235 142/144/246 27/157/245
s 30
usemtl lambert2SG
f 49/266/249 144/269/250 143/268/251 23/267/252
s 31
f 201/280/253 200/283/254 145/282/255 20/281/256
s 32
f 20/286/257 145/289/258 146/288/259 48/287/260
s 30
f 24/278/261 148/279/262 147/277/263 86/276/264
s 32
f 87/296/265 149/297/266 150/299/267 21/298/268
s 30
f 59/270/269 151/271/270 144/269/250 49/266/249
s 32
f 48/287/260 146/288/259 152/291/271 58/290/272
s 30
f 31/274/273 154/275/274 153/273/275 74/272/276
s 32
f 75/292/277 155/293/278 156/295/279 30/294/280
s 30
f 74/272/276 153/273/275 151/271/270 59/270/269
s 32
f 58/290/272 152/291/271 155/293/278 75/292/277
s 30
f 86/276/264 147/277/263 154/275/274 31/274/273
s 32
f 30/294/280 156/295/279 149/297/266 87/296/265
s off
f 45/306/281 158/309/282 157/308/283 17/307/284
f 17/310/285 157/313/286 159/312/287 14/311/288
f 14/314/289 159/317/290 160/316/291 44/315/292
f 44/318/293 160/321/294 158/320/295 45/319/296
s 35
f 29/322/297 162/325/298 161/324/299 78/323/300
s 36
f 79/328/301 163/331/302 164/330/303 28/329/304
s off
f 28/334/305 164/337/306 162/336/307 29/335/308
s 35
f 78/323/300 161/324/299 165/327/309 55/326/310
s off
f 55/338/311 165/341/312 166/340/313 54/339/314
s 36
f 54/332/315 166/333/316 163/331/302 79/328/301
s 37
f 37/342/317 167/345/318 168/344/319 88/343/320
s 38
f 89/348/321 169/351/322 170/350/323 33/349/324
s 37
f 88/343/320 168/344/319 171/347/325 38/346/326
s off
f 38/354/327 171/357/328 172/356/329 34/355/330
s 38
f 34/352/331 172/353/332 169/351/322 89/348/321
s 39
f 68/358/333 173/361/334 174/360/335 80/359/336
s off
f 80/364/337 174/367/338 175/366/339 81/365/340
s 40
f 81/368/341 175/371/342 176/370/343 62/369/344
s off
f 93/374/345 178/377/346 177/376/347 92/375/348
s 39
f 92/362/349 177/363/350 173/361/334 68/358/333
s 40
f 62/369/344 176/370/343 178/373/351 93/372/352
s 41
f 110/378/353 180/381/354 179/380/355 109/379/356
s off
f 109/384/357 179/387/358 181/386/359 101/385/360
s 42
f 101/388/361 181/391/362 182/390/363 102/389/364
s off
f 103/394/365 184/397/366 183/396/367 111/395/368
s 41
f 111/382/369 183/383/370 180/381/354 110/378/353
s 42
f 102/389/364 182/390/363 184/393/371 103/392/372
s 1
f 185/76/8 186/77/7 10/85/10 7/84/9
s 25
f 187/230/219 129/233/373 10/232/374 186/229/220
s 3
usemtl lambert3SG
f 188/119/17 131/166/375 129/159/376 187/118/18
f 189/137/89 137/167/377 131/166/375 188/119/17
f 190/142/110 140/168/378 137/167/377 189/137/89
f 191/143/109 141/169/379 140/168/378 190/142/110
f 192/130/52 134/170/380 141/169/379 191/143/109
f 193/131/51 135/171/381 134/170/380 192/130/52
s 5
f 148/256/382 194/133/63 195/134/66 147/257/383
f 196/149/129 154/258/384 147/257/383 195/134/66
f 154/258/384 196/149/129 197/150/132 153/259/385
f 198/139/99 151/260/386 153/259/385 197/150/132
f 151/260/386 198/139/99 199/125/41 144/300/387
f 144/300/387 199/125/41 200/126/44 143/301/388
s 31
usemtl lambert2SG
f 23/284/389 143/285/390 200/283/254 201/280/253
s 1
f 22/2/4 23/3/3 201/6/38 202/5/37
s 43
usemtl lambert6SG
f 204/438/391 220/455/392 219/454/393 218/453/394 217/452/395 216/451/396 215/450/397 214/449/398 213/448/399 212/447/400 211/446/401 210/445/402 209/444/403 208/443/404 207/442/405 206/441/406 205/440/407 203/439/408
usemtl lambert2SG
f 202/416/409 204/398/391 203/399/408 22/417/410
f 22/417/410 203/399/408 205/400/407 1/418/411
f 1/418/411 205/400/407 206/401/406 120/419/412
f 120/419/412 206/401/406 207/402/405 113/420/413
f 113/420/413 207/402/405 208/403/404 2/421/414
f 2/421/414 208/403/404 209/404/403 7/422/415
f 7/422/415 209/404/403 210/405/402 185/423/416
f 185/423/416 210/405/402 211/406/401 5/424/417
f 5/424/417 211/406/401 212/407/400 66/305/418
f 66/305/418 212/407/400 213/408/399 72/304/419
f 72/304/419 213/408/399 214/409/398 13/303/420
f 13/303/420 214/409/398 215/410/397 16/302/421
f 16/302/421 215/410/397 216/411/396 36/265/422
f 36/265/422 216/411/396 217/412/395 40/264/423
f 40/264/423 217/412/395 218/413/394 97/263/424
f 97/263/424 218/413/394 219/414/393 105/262/425
f 105/262/425 219/414/393 220/415/392 19/261/426
f 19/261/426 220/415/392 204/398/391 202/416/409
s off
usemtl initialShadingGroup
f 221/456/427 223/459/428 224/458/429 222/457/430
