# 3ds Max Wavefront OBJ Exporter v0.97b - (c)2007 guruware
# File Created: 14.08.2011 15:02:26

mtllib Toompuiestee_18e_2-origo.mtl

#
# object Toompuiestee_18e_2
#

v  541623.650574 6588827.253235 23.557899
v  541623.650574 6588827.25325 22.887995
v  541621.808899 6588826.758057 23.624643
v  541626.424438 6588827.9991 22.142952
v  541621.686768 6588827.357712 23.621912
v  541621.687012 6588827.356628 23.379938
v  541620.252197 6588834.400955 23.347845
v  541626.280762 6588828.638657 22.143110
v  541625.964417 6588828.854797 22.211485
v  541624.60614 6588835.670944 22.172815
v  541623.034119 6588834.580856 22.632559
v  541622.864319 6588835.162888 22.642889
v  541624.461731 6588834.997269 22.247267
v  541624.291992 6588835.5793 22.257597
v  541623.528748 6588827.851425 22.885269
v  541623.528503 6588827.852402 23.555176
v  541626.424438 6588827.999115 16.666130
v  541625.143494 6588832.974442 18.583887
v  541625.04541 6588832.954895 18.583887
v  541624.861572 6588833.877258 18.583887
v  541625.04541 6588832.954895 16.670599
v  541624.959656 6588833.896805 16.675650
v  541624.861572 6588833.877258 16.675650
v  541625.397461 6588831.699707 18.890343
v  541625.201355 6588831.660629 18.890343
v  541625.397461 6588831.699707 21.024965
v  541625.201355 6588831.660629 21.024965
v  541624.970032 6588832.82135 18.890343
v  541624.970032 6588832.82135 21.024965
v  541625.166199 6588832.860428 21.024965
v  541625.166199 6588832.860428 18.890343
v  541626.280762 6588828.638657 16.668356
v  541625.964417 6588828.854797 16.648043
v  541624.959656 6588833.896805 18.583887
v  541625.143494 6588832.974442 16.670599
v  541624.606079 6588835.670929 16.685364
v  541622.864319 6588835.162888 24.274801
v  541624.291992 6588835.5793 24.289415
v  541623.034119 6588834.580856 24.274801
v  541624.461731 6588834.997269 24.289415
v  541621.808899 6588826.758057 16.410534
v  541620.252197 6588834.40097 15.943769
v  541624.60614 6588835.670929 21.584944
v  541623.299011 6588835.289673 15.799368
v  541624.413452 6588835.614731 15.936935
v  541623.637024 6588827.249619 19.589428
v  541623.637024 6588827.249619 20.763052
v  541624.976868 6588827.609879 20.763052
v  541624.976868 6588827.609863 19.589428
v  541623.611084 6588827.346191 19.589428
v  541623.611084 6588827.346191 20.763052
v  541624.950928 6588827.706451 20.763052
v  541624.950928 6588827.706451 19.589428
# 53 vertices

vn 0.245355 0.054374 0.967907
vn 0.245355 0.054374 0.967907
vn 0.245355 0.054374 0.967907
vn 0.245333 0.054380 0.967912
vn 0.245333 0.054380 0.967912
vn 0.245333 0.054380 0.967912
vn 0.245360 0.054386 0.967905
vn 0.245360 0.054386 0.967905
vn 0.245360 0.054386 0.967905
vn 0.245350 0.054399 0.967907
vn 0.245350 0.054399 0.967907
vn 0.245350 0.054399 0.967907
vn 0.245351 0.054384 0.967908
vn 0.245351 0.054384 0.967908
vn 0.245351 0.054384 0.967908
vn 0.245358 0.054382 0.967906
vn 0.245358 0.054382 0.967906
vn 0.245358 0.054382 0.967906
vn 0.245352 0.054382 0.967908
vn 0.245352 0.054382 0.967908
vn 0.245352 0.054382 0.967908
vn 0.245353 0.054380 0.967907
vn 0.245353 0.054380 0.967907
vn 0.245353 0.054380 0.967907
vn 0.245352 0.054381 0.967908
vn 0.245352 0.054381 0.967908
vn 0.245352 0.054381 0.967908
vn 0.246834 0.055212 0.967483
vn 0.246834 0.055212 0.967483
vn 0.246834 0.055212 0.967483
vn 0.000000 0.000000 -1.000000
vn 0.000000 0.000000 -1.000000
vn 0.000000 0.000000 -1.000000
vn 0.000000 0.000000 -1.000000
vn 0.000000 0.000000 -1.000000
vn 0.000000 0.000000 -1.000000
vn 0.195441 -0.980715 0.000000
vn 0.195441 -0.980715 0.000000
vn 0.195441 -0.980715 0.000000
vn 0.195441 -0.980715 0.000000
vn 0.195441 -0.980715 0.000000
vn 0.195441 -0.980715 0.000000
vn -0.195426 0.980718 0.000000
vn -0.195426 0.980718 0.000000
vn -0.195426 0.980718 0.000000
vn -0.195426 0.980718 0.000000
vn -0.195426 0.980718 0.000000
vn -0.195426 0.980718 0.000000
vn 0.000000 0.000000 -1.000000
vn 0.000000 0.000000 -1.000000
vn 0.000000 0.000000 -1.000000
vn 0.000000 0.000000 -1.000000
vn 0.000000 0.000000 -1.000000
vn 0.000000 0.000000 -1.000000
vn 0.195368 -0.980730 0.000000
vn 0.195368 -0.980730 0.000000
vn 0.195368 -0.980730 0.000000
vn 0.195368 -0.980730 0.000000
vn 0.195368 -0.980730 0.000000
vn 0.195368 -0.980730 0.000000
vn 0.000000 0.000000 1.000000
vn 0.000000 0.000000 1.000000
vn 0.000000 0.000000 1.000000
vn 0.000000 0.000000 1.000000
vn 0.000000 0.000000 1.000000
vn 0.000000 0.000000 1.000000
vn 0.975682 0.219193 0.000001
vn 0.975682 0.219193 0.000001
vn 0.975682 0.219193 0.000001
vn 0.975683 0.219188 0.000000
vn 0.975683 0.219188 0.000000
vn 0.975683 0.219188 0.000000
vn 0.564140 0.825679 0.000000
vn 0.564140 0.825679 0.000000
vn 0.564140 0.825679 0.000000
vn 0.564140 0.825679 0.000000
vn 0.564140 0.825679 0.000000
vn 0.564140 0.825679 0.000000
vn 0.980710 0.195467 0.000061
vn 0.980710 0.195467 0.000061
vn 0.980710 0.195467 0.000061
vn 0.980720 0.195419 0.000000
vn 0.980720 0.195419 0.000000
vn 0.980720 0.195419 0.000000
vn 0.980742 0.195308 0.000000
vn 0.980742 0.195308 0.000000
vn 0.980742 0.195308 0.000000
vn 0.980718 0.195428 0.000022
vn 0.980718 0.195428 0.000022
vn 0.980718 0.195428 0.000022
vn 0.980715 0.195444 0.000000
vn 0.980715 0.195444 0.000000
vn 0.980715 0.195444 0.000000
vn 0.980715 0.195444 0.000000
vn 0.980715 0.195444 0.000000
vn 0.980715 0.195444 0.000000
vn 0.980724 0.195400 -0.000112
vn 0.980724 0.195400 -0.000112
vn 0.980724 0.195400 -0.000112
vn 0.980718 0.195431 -0.000002
vn 0.980718 0.195431 -0.000002
vn 0.980718 0.195431 -0.000002
vn 0.980717 0.195433 -0.000007
vn 0.980717 0.195433 -0.000007
vn 0.980717 0.195433 -0.000007
vn 0.980714 0.195450 0.000000
vn 0.980714 0.195450 0.000000
vn 0.980714 0.195450 0.000000
vn 0.979871 0.199633 0.000066
vn 0.979871 0.199633 0.000066
vn 0.979871 0.199633 0.000066
vn 0.979884 0.199566 0.000005
vn 0.979884 0.199566 0.000005
vn 0.979884 0.199566 0.000005
vn 0.980714 0.195449 0.000000
vn 0.980714 0.195449 0.000000
vn 0.980714 0.195449 0.000000
vn 0.980714 0.195449 0.000000
vn 0.980714 0.195449 0.000000
vn 0.980714 0.195449 0.000000
vn 0.980710 0.195467 0.000000
vn 0.980710 0.195467 0.000000
vn 0.980710 0.195467 0.000000
vn 0.980710 0.195467 0.000000
vn 0.980710 0.195467 0.000000
vn 0.980710 0.195467 0.000000
vn -0.195441 0.980715 0.000000
vn -0.195441 0.980715 0.000000
vn -0.195441 0.980715 0.000000
vn -0.195441 0.980715 0.000000
vn -0.195441 0.980715 0.000000
vn -0.195441 0.980715 0.000000
vn 0.980713 0.195453 -0.000011
vn 0.980713 0.195453 -0.000011
vn 0.980713 0.195453 -0.000011
vn 0.980724 0.195400 0.000005
vn 0.980724 0.195400 0.000005
vn 0.980724 0.195400 0.000005
vn -0.959982 -0.280062 0.000000
vn -0.959982 -0.280062 0.000000
vn -0.959982 -0.280062 0.000000
vn -0.959982 -0.280062 0.000000
vn -0.959982 -0.280062 0.000000
vn -0.959982 -0.280062 0.000000
vn 0.280016 -0.959995 0.000000
vn 0.280016 -0.959995 0.000000
vn 0.280016 -0.959995 0.000000
vn 0.280016 -0.959995 0.000000
vn 0.280016 -0.959995 0.000000
vn 0.280016 -0.959995 0.000000
vn 0.960009 0.279969 0.000000
vn 0.960009 0.279969 0.000000
vn 0.960009 0.279969 0.000000
vn 0.960009 0.279969 0.000000
vn 0.960009 0.279969 0.000000
vn 0.960009 0.279969 0.000000
vn -0.280005 0.959999 0.000000
vn -0.280005 0.959999 0.000000
vn -0.280005 0.959999 0.000000
vn -0.280005 0.959999 0.000000
vn -0.280005 0.959999 0.000000
vn -0.280005 0.959999 0.000000
vn -0.979883 -0.199573 -0.000095
vn -0.979883 -0.199573 -0.000095
vn -0.979883 -0.199573 -0.000095
vn -0.979880 -0.199586 -0.000000
vn -0.979880 -0.199586 -0.000000
vn -0.979880 -0.199586 -0.000000
vn -0.979881 -0.199581 0.000004
vn -0.979881 -0.199581 0.000004
vn -0.979881 -0.199581 0.000004
vn -0.979891 -0.199535 0.000000
vn -0.979891 -0.199535 0.000000
vn -0.979891 -0.199535 0.000000
vn -0.280013 0.959996 0.000025
vn -0.280013 0.959996 0.000025
vn -0.280013 0.959996 0.000025
vn -0.280083 0.959976 0.000003
vn -0.280083 0.959976 0.000003
vn -0.280083 0.959976 0.000003
vn -0.280013 0.959996 0.000001
vn -0.280013 0.959996 0.000001
vn -0.280013 0.959996 0.000001
vn -0.280056 0.959984 -0.000025
vn -0.280056 0.959984 -0.000025
vn -0.280056 0.959984 -0.000025
vn -0.280010 0.959997 -0.000001
vn -0.280010 0.959997 -0.000001
vn -0.280010 0.959997 -0.000001
vn -0.280006 0.959998 -0.000004
vn -0.280006 0.959998 -0.000004
vn -0.280006 0.959998 -0.000004
vn -0.280021 0.959994 0.000002
vn -0.280021 0.959994 0.000002
vn -0.280021 0.959994 0.000002
vn 0.259671 -0.965697 -0.000003
vn 0.259671 -0.965697 -0.000003
vn 0.259671 -0.965697 -0.000003
vn 0.259649 -0.965703 0.000010
vn 0.259649 -0.965703 0.000010
vn 0.259649 -0.965703 0.000010
vn 0.259665 -0.965699 0.000000
vn 0.259665 -0.965699 0.000000
vn 0.259665 -0.965699 0.000000
vn 0.259665 -0.965699 0.000000
vn 0.259665 -0.965699 0.000000
vn 0.259665 -0.965699 0.000000
vn 0.259652 -0.965702 -0.000009
vn 0.259652 -0.965702 -0.000009
vn 0.259652 -0.965702 -0.000009
vn 0.259660 -0.965700 -0.000005
vn 0.259660 -0.965700 -0.000005
vn 0.259660 -0.965700 -0.000005
vn 0.259661 -0.965700 -0.000005
vn 0.259661 -0.965700 -0.000005
vn 0.259661 -0.965700 -0.000005
vn 0.259645 -0.965704 0.000013
vn 0.259645 -0.965704 0.000013
vn 0.259645 -0.965704 0.000013
vn 0.259660 -0.965700 0.000000
vn 0.259660 -0.965700 0.000000
vn 0.259660 -0.965700 0.000000
vn 0.259660 -0.965700 0.000000
vn 0.259660 -0.965700 0.000000
vn 0.259660 -0.965700 0.000000
vn 0.965767 0.259410 0.000000
vn 0.965767 0.259410 0.000000
vn 0.965767 0.259410 0.000000
vn 0.965767 0.259410 0.000000
vn 0.965767 0.259410 0.000000
vn 0.965767 0.259410 0.000000
vn 0.000000 0.000000 -1.000000
vn 0.000000 0.000000 -1.000000
vn 0.000000 0.000000 -1.000000
vn 0.000000 0.000000 -1.000000
vn 0.000000 0.000000 -1.000000
vn 0.000000 0.000000 -1.000000
vn -0.965778 -0.259372 0.000000
vn -0.965778 -0.259372 0.000000
vn -0.965778 -0.259372 0.000000
vn -0.965767 -0.259410 0.000003
vn -0.965767 -0.259410 0.000003
vn -0.965767 -0.259410 0.000003
vn 0.000000 0.000000 1.000000
vn 0.000000 0.000000 1.000000
vn 0.000000 0.000000 1.000000
vn 0.000000 0.000000 1.000000
vn 0.000000 0.000000 1.000000
vn 0.000000 0.000000 1.000000
vn 0.259664 -0.965699 -0.000006
vn 0.259664 -0.965699 -0.000006
vn 0.259664 -0.965699 -0.000006
vn 0.262096 -0.965042 -0.000022
vn 0.262096 -0.965042 -0.000022
vn 0.262096 -0.965042 -0.000022
vn -0.259834 0.965652 -0.001502
vn -0.259834 0.965652 -0.001502
vn -0.259834 0.965652 -0.001502
vn -0.259558 0.965717 -0.004586
vn -0.259558 0.965717 -0.004586
vn -0.259558 0.965717 -0.004586
vn 0.033177 0.011302 0.999386
vn 0.033177 0.011302 0.999386
vn 0.033177 0.011302 0.999386
vn 0.033178 0.011309 0.999386
vn 0.033178 0.011309 0.999386
vn 0.033178 0.011309 0.999386
vn -0.009433 -0.002751 0.999952
vn -0.009433 -0.002751 0.999952
vn -0.009433 -0.002751 0.999952
vn -0.009434 -0.002752 0.999952
vn -0.009434 -0.002752 0.999952
vn -0.009434 -0.002752 0.999952
# 273 vertex normals

vt 1.813335 0.328278 0.502829
vt 1.761665 1.284332 0.000499
vt 1.644035 -0.304916 0.834512
vt -0.752220 -0.286362 0.812874
vt 1.543182 1.281647 0.000606
vt 1.450855 1.193405 0.046706
vt -0.865704 1.221176 0.020634
vt -0.618774 0.633240 0.330606
vt -0.820305 0.618073 0.337571
vt -0.655987 1.127563 0.070831
vt -0.857506 1.112396 0.077796
vt 1.609859 0.329834 0.500991
vt 0.220045 0.868490 7.330566
vt 0.220047 0.797693 7.330566
vt 0.214700 0.718954 10.202209
vt 0.214700 0.140145 10.202209
vt 0.645137 0.342820 10.371216
vt 0.645876 0.342820 10.271606
vt 0.724409 0.342820 10.354370
vt 0.645876 0.140617 10.271606
vt 0.723671 0.141151 10.453979
vt 0.724409 0.141151 10.354370
vt 0.536603 0.375207 10.256653
vt 0.538080 0.375207 10.057495
vt 0.536603 0.600801 10.256653
vt 0.538080 0.600801 10.057495
vt 0.636908 0.375207 10.161743
vt 0.636908 0.600801 10.161743
vt 0.635430 0.600801 10.360962
vt 0.635430 0.375207 10.360962
vt 0.269536 0.718971 10.244080
vt 0.269536 0.140380 10.244080
vt 0.294376 0.138233 10.001221
vt 0.294376 0.726197 10.001221
vt 0.874727 0.722110 10.613342
vt 0.271039 0.797405 7.381714
vt 0.271123 0.868202 7.381836
vt 0.723671 0.342820 10.453979
vt 0.645137 0.140617 10.371216
vt 0.874727 0.142177 10.613281
vt 0.560646 0.028290 0.811838
vt 0.724678 0.026738 0.812008
vt 0.439423 0.028290 0.876202
vt 0.876369 0.026738 0.724602
vt 0.439423 0.202625 0.876202
vt 0.560646 0.201529 0.811838
vt 0.876369 0.243527 0.724602
vt 0.724678 0.242430 0.812008
vt 0.188162 0.201529 0.560646
vt 0.123798 0.202625 0.560577
vt 0.123798 0.028290 0.560577
vt 0.123798 0.028290 0.560577
vt 0.188162 0.028290 0.560646
vt 0.188162 0.201529 0.560646
vt 0.439423 0.202625 0.876202
vt 0.275398 0.243527 0.876369
vt 0.275398 0.026738 0.876369
vt 0.275398 0.026738 0.876369
vt 0.876369 0.026738 0.724602
vt 0.812008 0.242430 0.724678
vt 0.812008 0.242430 0.724678
vt 0.812008 0.026738 0.724678
vt 0.560646 0.201529 0.811838
vt 0.724678 0.026738 0.812008
vt 1.858509 0.902701 3.796570
vt 1.001225 0.087303 3.142578
vt 1.791249 0.902411 3.745239
vt 1.791371 0.876723 3.745361
vt 1.001225 0.873316 3.142578
vt 1.858509 0.136854 3.796570
vt 0.260529 0.087303 3.434540
vt 0.260529 0.873316 3.434540
vt 0.760773 0.748575 3.439392
vt 0.560646 0.798478 3.437454
vt 0.724678 0.757576 3.439056
vt 0.760765 0.686167 3.439407
vt 0.610588 0.071973 3.437943
vt 0.738632 0.086577 3.439178
vt 0.760765 0.166030 3.439392
vt 0.451912 0.900814 0.992737
vt 0.451912 0.828605 0.993164
vt 0.240257 0.908009 0.992432
vt 0.770714 0.748297 0.994080
vt 0.770714 0.157954 0.999146
vt 0.450356 0.473054 0.996216
vt 0.450356 0.599559 0.995056
vt 0.604347 0.599559 0.995300
vt 0.604347 0.473054 0.996460
vt 0.450363 0.473053 0.001465
vt 0.450363 0.599558 0.000305
vt 0.604340 0.599558 0.000549
vt 0.604340 0.473053 0.001709
vt 0.240257 0.130403 0.999390
vt 0.389893 0.992569 5.475281
vt 0.390539 0.942489 5.475220
vt 0.106323 0.880377 7.381714
vt 0.105489 0.994544 7.381836
vt 1.993254 -0.032911 0.954499
vt 0.930259 -0.034936 0.999501
vt 0.922743 1.066872 0.997658
vt 1.993843 1.063199 0.952662
vt -0.003698 0.996332 0.026738
vt -0.001326 0.001650 0.026738
vt 0.995098 -0.003416 0.028290
vt 0.995098 -0.003416 0.028290
vt 0.995167 0.996164 0.028290
vt -0.003698 0.996332 0.026738
# 107 texture coords

g Toompuiestee_18e_2
usemtl KATUS_3_TP18e
s off
f -44/-101/-273 -40/-97/-272 -41/-98/-271 
f -45/-102/-270 -44/-101/-269 -41/-98/-268 
f -45/-102/-267 -41/-98/-266 -43/-100/-265 
f -43/-100/-264 -42/-99/-263 -47/-104/-262 
f -43/-100/-261 -47/-104/-260 -48/-105/-259 
f -43/-100/-258 -48/-105/-257 -39/-96/-256 
f -45/-102/-255 -43/-100/-254 -39/-96/-253 
f -45/-102/-252 -39/-96/-251 -52/-107/-250 
f -45/-102/-249 -52/-107/-248 -50/-106/-247 
f -46/-103/-246 -45/-102/-245 -50/-106/-244 
usemtl FAS_3_5_TP18e
f -36/-91/-243 -35/-90/-242 -20/-70/-241 
f -34/-89/-240 -20/-70/-239 -35/-90/-238 
f -32/-87/-237 -20/-70/-236 -31/-86/-235 
f -34/-89/-234 -31/-86/-233 -20/-70/-232 
f -29/-84/-231 -27/-82/-230 -28/-83/-229 
f -28/-83/-228 -30/-85/-227 -29/-84/-226 
f -25/-80/-225 -24/-79/-224 -28/-83/-223 
f -28/-83/-222 -27/-82/-221 -25/-80/-220 
f -23/-78/-219 -24/-79/-218 -25/-80/-217 
f -25/-80/-216 -26/-81/-215 -23/-78/-214 
f -29/-84/-213 -30/-85/-212 -23/-78/-211 
f -23/-78/-210 -26/-81/-209 -29/-84/-208 
f -50/-93/-207 -37/-92/-206 -22/-76/-205 
f -22/-76/-204 -46/-77/-203 -50/-93/-202 
f -46/-77/-201 -22/-76/-200 -21/-75/-199 
f -21/-75/-198 -45/-74/-197 -46/-77/-196 
f -23/-78/-195 -36/-91/-194 -20/-70/-193 
f -20/-70/-192 -32/-87/-191 -44/-73/-190 
f -19/-69/-189 -36/-91/-188 -23/-78/-187 
f -21/-75/-186 -19/-69/-185 -30/-85/-184 
f -45/-74/-183 -21/-75/-182 -30/-85/-181 
f -45/-74/-180 -30/-85/-179 -28/-83/-178 
f -45/-74/-177 -28/-83/-176 -24/-79/-175 
f -44/-73/-174 -45/-74/-173 -24/-79/-172 
f -20/-70/-171 -44/-73/-170 -24/-79/-169 
f -23/-78/-168 -20/-70/-167 -24/-79/-166 
f -39/-72/-165 -38/-71/-164 -53/-95/-163 
f -53/-95/-162 -52/-94/-161 -39/-72/-160 
f -26/-81/-159 -25/-80/-158 -27/-82/-157 
f -27/-82/-156 -29/-84/-155 -26/-81/-154 
f -31/-86/-153 -34/-89/-152 -33/-88/-151 
f -35/-90/-150 -33/-88/-149 -34/-89/-148 
f -36/-91/-147 -19/-69/-146 -35/-90/-145 
f -33/-88/-144 -35/-90/-143 -19/-69/-142 
f -32/-87/-141 -18/-68/-140 -44/-73/-139 
f -19/-69/-138 -23/-78/-137 -30/-85/-136 
usemtl FAS_3_4_TP18e
f -42/-59/-135 -43/-58/-134 -15/-57/-133 
f -15/-56/-132 -17/-55/-131 -42/-54/-130 
f -43/-53/-129 -41/-52/-128 -14/-51/-127 
f -14/-50/-126 -15/-65/-125 -43/-63/-124 
f -14/-49/-123 -41/-61/-122 -40/-48/-121 
f -40/-47/-120 -16/-46/-119 -14/-64/-118 
f -42/-45/-117 -17/-67/-116 -16/-44/-115 
f -16/-66/-114 -40/-60/-113 -42/-62/-112 
f -51/-43/-111 -49/-41/-110 -48/-40/-109 
f -48/-40/-108 -47/-39/-107 -12/-42/-106 
f -48/-40/-105 -12/-42/-104 -13/-38/-103 
f -51/-43/-102 -48/-40/-101 -13/-38/-100 
f -10/-31/-99 -12/-37/-98 -9/-30/-97 
f -18/-29/-96 -9/-30/-95 -11/-32/-94 
f -9/-30/-93 -12/-37/-92 -11/-32/-91 
f -44/-35/-90 -11/-32/-89 -40/-33/-88 
f -11/-32/-87 -12/-37/-86 -40/-33/-85 
f -40/-33/-84 -12/-37/-83 -42/-34/-82 
f -42/-34/-81 -12/-37/-80 -47/-36/-79 
usemtl FAS_3_3_TP18e
f -5/-20/-78 -37/-24/-77 -50/-25/-76 
f -13/-15/-75 -5/-20/-74 -8/-23/-73 
f -51/-26/-72 -13/-15/-71 -8/-23/-70 
f -51/-26/-69 -8/-23/-68 -7/-22/-67 
f -53/-28/-66 -51/-26/-65 -7/-22/-64 
f -52/-27/-63 -7/-22/-62 -6/-21/-61 
f -50/-25/-60 -52/-27/-59 -6/-21/-58 
f -5/-20/-57 -50/-25/-56 -6/-21/-55 
f -1/-16/-54 -2/-17/-53 -3/-18/-52 
f -3/-18/-51 -4/-19/-50 -1/-16/-49 
f -4/-19/-48 -3/-18/-47 -7/-22/-46 
f -7/-22/-45 -8/-23/-44 -4/-19/-43 
f -3/-18/-42 -2/-17/-41 -6/-21/-40 
f -6/-21/-39 -7/-22/-38 -3/-18/-37 
f -2/-17/-36 -1/-16/-35 -5/-20/-34 
f -5/-20/-33 -6/-21/-32 -2/-17/-31 
f -1/-16/-30 -4/-19/-29 -8/-23/-28 
f -8/-23/-27 -5/-20/-26 -1/-16/-25 
f -13/-15/-24 -37/-24/-23 -5/-20/-22 
f -52/-27/-21 -53/-28/-20 -7/-22/-19 
usemtl FAS_3_5_TP18e
f -38/-11/-18 -39/-12/-17 -48/-13/-16 
f -48/-13/-15 -49/-14/-14 -38/-11/-13 
usemtl TP_18e_krstn
f -53/-10/-12 -38/-7/-11 -49/-8/-10 
f -49/-8/-9 -51/-9/-8 -53/-10/-7 
f -14/-6/-6 -16/-5/-5 -17/-4/-4 
f -17/-3/-3 -15/-2/-2 -14/-1/-1 
# 91 faces

