# 3ds Max Wavefront OBJ Exporter v0.97b - (c)2007 guruware
# File Created: 04.01.2012 14:37:41

mtllib Myyrivahe_10-origo.mtl

#
# object Myyrivahe_10
#

v  542266.3555 6588778.0683 19.0747
v  542263.126 6588777.1694 19.0747
v  542263.2664 6588776.7301 19.0747
v  542266.4958 6588777.6291 19.0747
v  542247.474 6588772.8122 18.4747
v  542247.6143 6588772.373 18.4747
v  542262.7704 6588776.5921 18.4747
v  542262.6301 6588777.0313 18.4747
v  542266.9919 6588777.7672 18.6747
v  542273.1477 6588779.4807 18.6747
v  542273.0073 6588779.92 18.6747
v  542266.8515 6588778.2064 18.6747
v  542262.6301 6588777.0313 19.0747
v  542262.7704 6588776.5921 19.0747
v  542266.9919 6588777.7672 19.0747
v  542266.8515 6588778.2064 19.0747
v  542264.5494 6588770.4148 19.0747
v  542265.0455 6588770.5529 19.0747
v  542268.7709 6588771.5899 19.0747
v  542266.611 6588777.2295 19.0747
v  542266.8556 6588776.38 19.0747
v  542267.6095 6588773.7624 19.0747
v  542268.2749 6588771.4518 19.0747
v  542247.474 6588772.8122 18.2747
v  542262.6301 6588777.0313 18.2747
v  542266.8515 6588778.2064 18.2747
v  542266.8515 6588778.2064 18.4747
v  542273.0073 6588779.92 18.4747
v  542273.0073 6588779.92 18.2747
v  542266.3555 6588778.0683 18.2747
v  542266.3555 6588778.0683 18.4747
v  542263.126 6588777.1694 18.2747
v  542263.126 6588777.1694 18.4747
v  542262.7704 6588776.5921 18.6747
v  542262.6301 6588777.0313 18.6747
v  542264.5494 6588770.4148 18.4747
v  542264.5494 6588770.4148 18.6747
v  542265.0455 6588770.5529 18.4747
v  542265.0455 6588770.5529 18.6747
v  542268.7709 6588771.5899 18.4747
v  542268.7709 6588771.5899 18.6747
v  542268.2749 6588771.4518 18.6747
v  542268.2749 6588771.4518 18.4747
v  542266.9919 6588777.7672 18.4747
v  542273.1477 6588779.4807 18.4747
v  542266.3555 6588778.0683 18.6747
v  542263.126 6588777.1694 18.6747
v  542263.3816 6588776.3304 18.6747
v  542263.2664 6588776.7301 18.6747
v  542263.6262 6588775.481 18.6747
v  542264.38 6588772.8634 18.6747
v  542266.4958 6588777.6291 18.6747
v  542267.6095 6588773.7624 18.6747
v  542266.611 6588777.2295 18.6747
v  542262.7704 6588776.5921 18.2747
v  542247.6143 6588772.373 18.2747
v  542254.1637 6588784.3502 15.8364
v  542254.1637 6588784.3502 18.0076
v  542255.5064 6588784.7241 18.0073
v  542255.5064 6588784.7241 15.8355
v  542254.2174 6588784.1576 18.0076
v  542254.2174 6588784.1576 15.8364
v  542254.2174 6588784.1576 18.1837
v  542255.56 6588784.5315 18.1834
v  542255.5499 6588784.5678 18.1834
v  542254.2071 6588784.194 18.1837
v  542255.6087 6588784.545 18.1305
v  542255.5423 6588784.7839 18.1305
v  542254.0903 6588784.3797 18.1309
v  542254.1568 6588784.1407 18.1309
v  542255.56 6588784.5314 15.8355
v  542255.56 6588784.5315 18.0073
v  542264.5494 6588770.4148 18.2747
v  542265.0455 6588770.5529 18.2747
v  542268.2749 6588771.4518 18.2747
v  542268.7709 6588771.5899 18.2747
v  542266.9919 6588777.7672 18.2747
v  542273.1477 6588779.4807 18.2747
v  542266.9919 6588777.7671 15.3016
v  542273.1477 6588779.4807 15.3016
v  542273.1477 6588779.4807 15.9258
v  542262.7705 6588776.592 15.3016
v  542264.5495 6588770.4148 15.3016
v  542268.7709 6588771.5899 15.3016
v  542265.0455 6588770.5528 15.3016
v  542268.2749 6588771.4518 15.3016
v  542247.6143 6588772.373 15.3016
v  542245.8922 6588767.3781 15.3016
v  542248.7809 6588768.1823 15.3016
v  542245.872 6588767.3726 17.6606
v  542248.7809 6588768.1824 18.2747
v  542245.8662 6588767.371 18.2747
v  542256.3968 6588784.7746 27.0778
v  542256.7952 6588783.5273 27.1972
v  542257.0807 6588783.6064 26.7182
v  542256.685 6588784.8447 26.5988
v  542244.7178 6588772.2869 18.2733
v  542244.7699 6588772.0595 18.2747
v  542270.9058 6588786.5253 18.2332
v  542270.627 6588787.3783 26.7182
v  542270.209 6588788.6093 26.5988
v  542264.504 6588775.7254 18.6747
v  542264.2594 6588776.5748 18.6747
v  542248.7809 6588768.1824 18.4747
v  542245.8643 6588767.3705 18.4747
v  542245.8647 6588767.3705 18.4338
v  542266.4953 6588773.4522 18.6747
v  542265.2579 6588773.1078 18.6747
v  542265.4968 6588776.9193 18.6747
v  542266.0873 6588776.3449 19.9747
v  542266.4145 6588776.4359 19.9747
v  542266.5401 6588776.661 19.9747
v  542266.4922 6588776.8275 19.9747
v  542266.2652 6588776.9544 19.9747
v  542265.938 6588776.8633 19.9747
v  542265.8122 6588776.6383 19.9747
v  542265.8602 6588776.4717 19.9747
v  542267.6095 6588773.7624 19.4747
v  542266.9387 6588776.0918 19.4747
v  542266.5665 6588776.2996 19.4747
v  542266.0305 6588776.1503 19.4747
v  542265.8245 6588775.7817 19.4747
v  542266.4953 6588773.4522 19.4747
v  542265.7415 6588776.0699 18.6747
v  542265.4524 6588775.9895 19.4747
v  542264.504 6588775.7254 19.4747
v  542265.2579 6588773.1078 19.4747
v  542266.611 6588777.2295 19.1747
v  542266.694 6588776.9412 19.4747
v  542266.7726 6588776.6683 19.4747
v  542266.8556 6588776.38 19.1747
v  542266.8556 6588776.38 18.6747
v  542265.4968 6588776.9193 19.1747
v  542265.7858 6588776.9998 19.4747
v  542266.322 6588777.149 19.4747
v  542265.7415 6588776.0699 19.1747
v  542265.6584 6588776.3582 19.4747
v  542265.5798 6588776.6311 19.4747
v  542247.474 6588772.8122 18.7747
v  542244.7699 6588772.0595 18.7747
v  542244.8464 6588771.7258 18.7747
v  542244.873 6588771.6099 18.7747
v  542247.6143 6588772.373 18.7747
v  542244.7699 6588772.0595 18.4747
v  542244.7699 6588772.0595 18.3272
v  542248.7809 6588768.1824 18.7747
v  542245.8615 6588767.3697 18.7747
v  542245.8621 6588767.3698 18.7136
v  542244.7699 6588772.0595 18.5534
v  542245.1089 6588770.5805 18.7747
v  542242.7882 6588779.6684 27.1936
v  542242.7976 6588779.6304 27.1972
v  542243.0135 6588778.761 27.7697
v  542270.9058 6588786.5254 27.7697
v  542242.7976 6588779.6302 27.8117
v  542270.627 6588787.3783 27.8117
v  542243.016 6588778.7616 18.2332
v  542242.3906 6588779.4307 27.1972
v  542242.0198 6588780.7628 27.0778
v  542270.209 6588788.6092 20.4415
v  542270.209 6588788.6093 19.0232
v  542268.5536 6588788.1486 19.0232
v  542267.0366 6588787.7263 19.0232
v  542265.5196 6588787.304 19.0232
v  542264.3745 6588786.9852 19.0232
v  542262.9062 6588786.5764 19.0232
v  542261.4379 6588786.1678 19.0232
v  542260.269 6588785.8423 19.0232
v  542258.7655 6588785.4239 19.0232
v  542257.2619 6588785.0054 19.0232
v  542255.8722 6588784.6184 19.0232
v  542253.9864 6588784.0934 19.0232
v  542252.1255 6588783.5753 19.0232
v  542248.9701 6588782.6969 19.0232
v  542248.0178 6588782.4319 19.0232
v  542244.8322 6588781.5452 19.0232
v  542244.1496 6588781.3552 19.0232
v  542241.196 6588780.5329 19.0232
v  542241.196 6588780.5329 20.4415
v  542241.196 6588780.5329 22.1135
v  542270.209 6588788.6092 22.1135
v  542241.196 6588780.533 24.2917
v  542241.7041 6588780.6744 24.2917
v  542270.209 6588788.6093 24.2917
v  542270.627 6588787.3783 24.4111
v  542241.7431 6588780.6853 24.7122
v  542248.0179 6588782.4319 15.9105
v  542248.0179 6588782.4319 16.7589
v  542248.9701 6588782.6969 16.7498
v  542248.9701 6588782.6969 15.8858
v  542262.9062 6588786.5764 17.7956
v  542262.6957 6588786.5178 17.6444
v  542269.9021 6588788.5239 17.7500
v  542270.209 6588788.6092 16.4829
v  542270.209 6588788.6091 15.3989
v  542267.0366 6588787.7262 17.7845
v  542266.8012 6588787.6607 17.6624
v  542264.947 6588787.1446 17.7900
v  542257.3948 6588785.0422 16.4289
v  542257.2619 6588785.0052 15.7953
v  542259.1141 6588784.1713 16.7982
v  542260.0775 6588784.4396 17.0755
v  542260.4896 6588784.5543 16.4138
v  542259.1141 6588784.1713 15.7749
v  542260.6178 6588784.5899 15.7544
v  542260.1411 6588785.8066 16.4138
v  542260.8535 6588786.005 17.8085
v  542261.6705 6588786.2324 16.4032
v  542260.2691 6588785.8422 15.7544
v  542261.4379 6588786.1676 15.7257
v  542257.6106 6588783.7528 15.7954
v  542257.7431 6588783.7898 16.4290
v  542258.1532 6588783.9039 17.0838
v  542263.1167 6588786.635 17.6432
v  542267.272 6588787.7917 17.6607
v  542263.2548 6588785.324 16.7505
v  542262.3916 6588785.0837 17.0239
v  542263.0438 6588785.2654 17.6451
v  542263.2547 6588785.324 17.7956
v  542268.5536 6588788.1485 15.6548
v  542268.3429 6588788.0899 16.3769
v  542267.3852 6588786.4738 16.7299
v  542266.4984 6588786.2269 17.0273
v  542267.149 6588786.4082 17.6634
v  542267.385 6588786.4738 17.7845
v  542265.7303 6588787.3625 16.3921
v  542265.5196 6588787.3039 15.6958
v  542264.3744 6588786.985 15.6848
v  542264.1418 6588786.9203 16.3880
v  542259.0086 6588785.4914 17.7372
v  542258.7655 6588785.4238 17.8213
v  542258.5224 6588785.356 17.7387
v  542263.4652 6588785.3826 17.6433
v  542264.1181 6588785.5643 17.0156
v  542267.6205 6588786.5393 17.6606
v  542268.272 6588786.7206 17.0188
v  542267.9235 6588787.9731 17.0188
v  542266.1497 6588787.4793 17.0272
v  542263.7695 6588786.8167 17.0156
v  542257.8045 6588785.1562 17.0838
v  542259.729 6588785.6919 17.0755
v  542262.0429 6588786.3361 17.0238
v  542259.1141 6588784.1714 17.8214
v  542259.3567 6588784.2389 17.7366
v  542258.8715 6588784.1038 17.7382
v  542261.7865 6588784.9152 15.7258
v  542262.0195 6588784.9802 16.4031
v  542263.2548 6588785.324 15.7053
v  542264.4905 6588785.6679 16.3881
v  542264.7231 6588785.7327 15.6848
v  542265.8682 6588786.0515 15.6958
v  542266.0791 6588786.1101 16.3920
v  542267.3852 6588786.4738 15.6754
v  542268.6919 6588786.8376 16.3771
v  542268.9023 6588786.896 15.6549
v  542241.6763 6588779.2652 15.9848
v  542241.6763 6588779.2652 16.7864
v  542244.5117 6588780.0545 16.7773
v  542244.5117 6588780.0544 15.9600
v  542244.1497 6588781.3551 15.9600
v  542244.1497 6588781.3551 16.7772
v  542244.8323 6588781.5451 16.7680
v  542244.8323 6588781.5451 15.9353
v  542245.1943 6588780.2446 15.9353
v  542245.1943 6588780.2446 16.7681
v  542248.3798 6588781.1313 16.7589
v  542248.3798 6588781.1313 15.9105
v  542252.1255 6588783.5752 16.7406
v  542252.1255 6588783.5753 15.8611
v  542252.4876 6588782.2747 16.7406
v  542252.4876 6588782.2748 15.8609
v  542249.3322 6588781.3964 15.8858
v  542249.3321 6588781.3963 16.7497
v  542249.0033 6588782.7061 16.9455
v  542249.0862 6588782.7292 17.3142
v  542249.3349 6588782.7985 17.6707
v  542249.8559 6588782.9435 18.0824
v  542250.2997 6588783.0671 18.2332
v  542250.8137 6588783.2102 18.2257
v  542252.0463 6588783.5533 17.2221
v  542251.8508 6588783.4988 17.6215
v  542251.3842 6588783.3689 18.0181
v  542251.1757 6588781.9096 18.2258
v  542251.7461 6588782.0683 18.0179
v  542252.213 6588782.1983 17.6217
v  542252.4085 6588782.2527 17.2223
v  542249.3676 6588781.4062 16.9451
v  542249.4481 6588781.4286 17.3144
v  542249.6968 6588781.498 17.6707
v  542250.2177 6588781.6429 18.0826
v  542250.6616 6588781.7665 18.2331
v  542244.9124 6588781.5675 17.1606
v  542245.1315 6588781.6284 17.6092
v  542245.5754 6588781.752 18.0148
v  542246.0195 6588781.8756 18.2332
v  542246.4339 6588781.991 18.2746
v  542247.9495 6588782.4128 17.1299
v  542247.7778 6588782.365 17.5478
v  542247.476 6588782.281 17.8735
v  542247.2153 6588782.2085 18.1070
v  542246.807 6588782.0948 18.2746
v  542246.7959 6588780.6905 18.2746
v  542247.169 6588780.7943 18.2747
v  542247.5774 6588780.908 18.1072
v  542247.8375 6588780.9804 17.8731
v  542248.1398 6588781.0645 17.5478
v  542248.3115 6588781.1123 17.1299
v  542245.2746 6588780.267 17.1607
v  542245.4933 6588780.3279 17.6094
v  542245.9374 6588780.4514 18.0149
v  542246.3816 6588780.5751 18.2331
v  542241.313 6588780.5654 17.7506
v  542241.196 6588780.5329 17.2836
v  542241.6979 6588780.6726 18.1009
v  542242.3669 6588780.8588 18.3098
v  542242.7812 6588780.9742 18.2914
v  542244.0658 6588781.3318 17.1606
v  542243.6574 6588781.218 17.8366
v  542243.1958 6588781.0896 18.1254
v  542243.1433 6588779.6737 18.2914
v  542243.5576 6588779.789 18.1253
v  542244.0195 6588779.9175 17.8368
v  542244.4279 6588780.0312 17.1607
v  542241.7028 6588779.2726 17.2836
v  542241.8011 6588779.3 17.7505
v  542242.115 6588779.3874 18.1012
v  542242.7289 6588779.5583 18.3098
v  542241.196 6588780.5329 16.7863
v  542241.196 6588780.5329 15.9847
v  542241.196 6588780.533 24.7235
v  542242.1139 6588779.3532 24.8316
v  542243.0135 6588778.761 27.1972
# 332 vertices

vn 0.0000 0.0000 1.0000
vn -0.2682 0.9634 0.0000
vn -0.2683 0.9633 0.0000
vn -0.2681 0.9634 0.0000
vn -0.9526 -0.3044 0.0000
vn -0.9609 -0.2768 0.0000
vn 0.2682 -0.9634 0.0000
vn 0.9609 0.2768 0.0000
vn 0.9525 0.3045 0.0000
vn 0.9609 0.2769 0.0000
vn 0.9610 0.2767 0.0002
vn 0.9609 0.2768 -0.0000
vn 0.9609 0.2768 -0.0002
vn -0.9609 -0.2767 0.0000
vn -0.9633 -0.2682 0.0000
vn 0.0002 0.0001 1.0000
vn 0.6967 0.1937 0.6907
vn 0.6968 0.1946 0.6904
vn -0.2500 0.8976 -0.3630
vn -0.2500 0.8975 -0.3634
vn -0.8582 -0.2389 -0.4544
vn -0.8581 -0.2389 -0.4545
vn 0.9634 0.2682 0.0000
vn 0.9633 0.2683 -0.0000
vn 0.8910 0.2482 -0.3800
vn 0.8915 0.2478 -0.3792
vn -0.0652 0.2351 0.9698
vn -0.0651 0.2349 0.9698
vn -0.6224 -0.1749 0.7629
vn -0.6193 -0.1724 0.7660
vn -0.9609 -0.2768 -0.0000
vn 0.2681 -0.9634 0.0000
vn 0.9634 0.2682 -0.0000
vn 0.7953 0.3042 0.5244
vn 0.7957 0.3047 0.5234
vn -0.0016 0.0058 1.0000
vn -0.0246 0.0882 0.9958
vn -0.0245 0.0882 0.9958
vn 0.2682 -0.9634 0.0001
vn 0.9609 0.2767 0.0001
vn -0.2682 0.9634 -0.0002
vn -0.9609 -0.2767 0.0001
vn -0.2681 0.9634 -0.0002
vn 0.9609 0.2767 -0.0000
vn 0.9609 0.2767 0.0000
vn 0.2534 -0.9110 0.3255
vn 0.2537 -0.9108 0.3257
vn 0.8761 0.2522 0.4109
vn 0.8760 0.2523 0.4110
vn -0.2537 0.9107 0.3258
vn -0.2536 0.9108 0.3257
vn -0.8760 -0.2525 0.4109
vn -0.8761 -0.2523 0.4108
vn 0.7116 -0.3977 0.5791
vn 0.3987 0.7139 0.5756
vn 0.3988 0.7139 0.5755
vn -0.7118 0.3976 0.5790
vn -0.7116 0.3977 -0.5791
vn -0.4534 -0.8120 0.3676
vn -0.4536 -0.8119 0.3675
vn 0.8108 -0.4532 0.3704
vn 0.8111 -0.4528 0.3702
vn 0.4539 0.8117 0.3675
vn 0.4535 0.8119 0.3677
vn -0.8109 0.4530 0.3703
vn -0.8108 0.4532 0.3705
vn 0.9526 0.3043 0.0000
vn -0.0244 0.0876 0.9959
vn 0.0126 -0.0451 0.9989
vn 0.2682 -0.9634 -0.0001
vn -0.0410 0.0836 0.9957
vn -0.0381 0.0787 0.9962
vn -0.0246 0.0881 0.9958
vn -0.2682 0.9634 0.0001
vn -0.2682 0.9634 0.0003
vn -0.2681 0.9634 -0.0001
vn -0.2682 0.9634 0.0005
vn -0.2681 0.9634 -0.0005
vn -0.2682 0.9634 0.0002
vn -0.2683 0.9633 0.0011
vn -0.2681 0.9634 -0.0013
vn -0.2682 0.9634 -0.0003
vn -0.2682 0.9634 0.0004
vn -0.2682 0.9634 -0.0000
vn -0.2682 0.9634 -0.0001
vn 0.9469 0.3216 -0.0000
vn 0.9469 0.3215 0.0000
vn -0.2682 0.9634 -0.0008
vn -0.2681 0.9634 -0.0000
vn -0.2679 0.9635 -0.0000
vn -0.2680 0.9634 -0.0001
vn -0.2751 0.9614 -0.0078
vn -0.2679 0.9634 0.0003
vn -0.2676 0.9635 -0.0003
vn -0.2679 0.9634 0.0000
vn -0.2683 0.9633 -0.0001
vn -0.2683 0.9633 -0.0002
vn -0.2678 0.9635 -0.0000
vn -0.2679 0.9634 -0.0001
vn -0.2683 0.9633 0.0001
vn -0.2679 0.9635 -0.0001
vn -0.2686 0.9633 -0.0001
vn -0.2684 0.9633 -0.0001
vn -0.2674 0.9636 -0.0005
vn -0.2689 0.9632 0.0004
vn 0.9415 0.2618 -0.2123
vn 0.9413 0.2620 -0.2127
vn 0.8077 0.2249 -0.5450
vn 0.8080 0.2247 -0.5446
vn 0.6353 0.1774 -0.7516
vn 0.6359 0.1770 -0.7512
vn 0.3022 0.0840 -0.9495
vn 0.2996 0.0839 -0.9504
vn -0.3077 -0.0850 -0.9477
vn -0.3045 -0.0849 -0.9487
vn -0.6379 -0.1775 -0.7494
vn -0.6386 -0.1771 -0.7489
vn -0.8090 -0.2252 -0.5429
vn -0.9443 -0.2629 -0.1977
vn -0.9444 -0.2628 -0.1976
vn 0.9072 0.2529 -0.3363
vn 0.9075 0.2526 -0.3357
vn 0.8180 0.2277 -0.5282
vn 0.8176 0.2279 -0.5287
vn 0.6514 0.1807 -0.7369
vn 0.6507 0.1811 -0.7374
vn 0.5458 0.1519 -0.8240
vn 0.5484 0.1520 -0.8223
vn -0.5509 -0.1534 -0.8204
vn -0.5512 -0.1534 -0.8202
vn -0.6547 -0.1822 -0.7336
vn -0.6546 -0.1822 -0.7337
vn -0.8202 -0.2284 -0.5245
vn -0.8203 -0.2283 -0.5243
vn -0.9112 -0.2537 -0.3247
vn -0.9111 -0.2537 -0.3247
vn 0.9190 0.2560 -0.2999
vn 0.9191 0.2559 -0.2997
vn 0.7948 0.2212 -0.5652
vn 0.7945 0.2213 -0.5655
vn 0.6607 0.1829 -0.7280
vn 0.6596 0.1836 -0.7289
vn 0.4269 0.1188 -0.8965
vn 0.4309 0.1189 -0.8945
vn -0.4357 -0.1211 -0.8919
vn -0.4354 -0.1211 -0.8921
vn -0.6631 -0.1845 -0.7254
vn -0.6633 -0.1845 -0.7253
vn -0.7968 -0.2221 -0.5619
vn -0.7973 -0.2219 -0.5614
vn -0.9221 -0.2567 -0.2894
vn -0.9219 -0.2569 -0.2898
vn -0.2697 0.9629 0.0024
vn -0.2681 0.9634 0.0001
vn -0.2685 0.9633 0.0000
vn -0.2684 0.9633 0.0000
vn -0.2683 0.9633 -0.0000
vn -0.2676 0.9635 -0.0001
vn -0.2676 0.9635 0.0016
vn -0.2678 0.9635 0.0005
vn -0.2686 0.9633 -0.0002
vn -0.2683 0.9633 0.0002
vn -0.2683 0.9633 0.0003
vn -0.2687 0.9632 -0.0001
vn -0.2680 0.9634 -0.0000
vn -0.2688 0.9632 -0.0000
vn -0.2684 0.9633 -0.0000
vn -0.2680 0.9634 0.0003
vn -0.2681 0.9634 0.0002
vn -0.2698 0.9629 -0.0018
vn -0.2686 0.9632 -0.0002
vn -0.2684 0.9633 0.0006
vn -0.2676 0.9635 -0.0000
vn -0.2684 0.9633 -0.0004
vn -0.2674 0.9636 0.0017
vn -0.2683 0.9633 -0.0005
vn -0.2678 0.9635 -0.0003
vn 0.9351 0.3543 0.0000
vn 0.9264 0.3725 -0.0548
vn 0.9117 0.3516 -0.2125
vn 0.8983 0.3612 -0.2502
vn 0.6972 0.2261 -0.6803
vn 0.6167 0.2379 -0.7504
vn 0.2997 0.0834 -0.9504
vn 0.2743 0.0888 -0.9575
vn -0.0412 -0.0115 -0.9991
vn -0.3471 -0.0965 -0.9328
vn -0.3467 -0.0965 -0.9330
vn -0.4967 -0.1384 -0.8568
vn -0.4973 -0.1383 -0.8565
vn -0.8162 -0.2273 -0.5312
vn -0.8161 -0.2273 -0.5313
vn -0.9395 -0.2615 -0.2211
vn -0.9395 -0.2616 -0.2213
vn -0.9634 -0.2681 0.0000
vn 0.9634 0.2681 0.0000
vn 0.9423 0.2624 -0.2077
vn 0.9425 0.2623 -0.2073
vn 0.8596 0.2391 -0.4515
vn 0.8593 0.2393 -0.4521
vn 0.6363 0.1771 -0.7508
vn 0.6365 0.1770 -0.7507
vn 0.4121 0.1148 -0.9039
vn 0.4125 0.1147 -0.9037
vn 0.0925 0.0258 -0.9954
vn 0.0923 0.0258 -0.9954
vn 0.0003 -0.0000 -1.0000
vn 0.0000 0.0000 -1.0000
vn -0.3540 -0.0987 -0.9300
vn -0.3542 -0.0987 -0.9299
vn -0.6312 -0.1752 -0.7556
vn -0.6294 -0.1754 -0.7570
vn -0.6934 -0.1930 -0.6942
vn -0.6944 -0.1928 -0.6933
vn -0.8862 -0.2466 -0.3923
vn -0.8862 -0.2467 -0.3923
vn -0.9462 -0.2634 -0.1878
vn -0.9462 -0.2634 -0.1879
vn 0.9634 0.2681 0.0001
vn 0.9461 0.2653 -0.1857
vn 0.9488 0.2641 -0.1733
vn 0.9397 0.2614 -0.2205
vn 0.9377 0.2629 -0.2274
vn 0.7800 0.2171 -0.5869
vn 0.7803 0.2170 -0.5865
vn 0.5838 0.1623 -0.7955
vn 0.5835 0.1624 -0.7957
vn 0.2991 0.0833 -0.9506
vn 0.2998 0.0833 -0.9504
vn -0.0132 -0.0037 -0.9999
vn -0.0136 -0.0037 -0.9999
vn -0.3192 -0.0887 -0.9435
vn -0.3187 -0.0888 -0.9437
vn -0.6097 -0.1700 -0.7742
vn -0.6104 -0.1698 -0.7737
vn -0.8589 -0.2393 -0.4528
vn -0.8588 -0.2393 -0.4530
vn -0.9497 -0.2644 -0.1680
vn -0.9496 -0.2645 -0.1683
vn -0.9634 -0.2682 -0.0000
vn -0.2687 0.9630 -0.0207
vn -0.0040 0.0882 0.9961
vn -0.9591 -0.2562 0.1206
vn -0.9705 -0.2411 0.0000
# 244 vertex normals

vt -0.0631 -1.2222 0.9995
vt 0.2721 -1.2222 0.9995
vt 0.2704 -0.9918 0.9995
vt -0.0648 -0.9918 0.9995
vt 1.8968 -1.2222 0.2503
vt 1.8951 -0.9918 0.2502
vt 0.3219 -0.9918 0.2502
vt 0.3236 -1.2222 0.2503
vt -0.1163 -0.9919 0.5000
vt -0.7360 -0.9919 0.5000
vt -0.7342 -1.2222 0.5000
vt -0.1146 -1.2222 0.5000
vt 0.3236 -1.2222 0.9995
vt 0.3219 -0.9918 0.9995
vt -0.1163 -0.9919 0.9995
vt -0.1146 -1.2222 0.9995
vt 0.3161 2.2222 0.9994
vt 0.2646 2.2222 0.9994
vt -0.1221 2.2222 0.9994
vt -0.0652 -0.7839 0.9995
vt -0.0660 -0.3419 0.9995
vt -0.0684 1.0200 0.9994
vt -0.0706 2.2222 0.9994
vt 1.8968 -1.2222 0.0005
vt 0.3236 -1.2222 0.0005
vt -0.1146 -1.2222 0.0005
vt -0.1146 -1.2222 0.2503
vt -0.7342 -1.2222 0.2503
vt -0.7342 -1.2222 0.0005
vt -0.0631 -1.2222 0.0005
vt -0.0631 -1.2222 0.2503
vt 0.2721 -1.2222 0.0005
vt 0.2721 -1.2222 0.2503
vt 0.3219 -0.9918 0.5000
vt 0.3236 -1.2222 0.5000
vt 0.3161 2.2222 0.2502
vt 0.3161 2.2222 0.4999
vt 0.2646 2.2222 0.2502
vt 0.2646 2.2222 0.4999
vt -0.1221 2.2222 0.2502
vt -0.1221 2.2222 0.4999
vt -0.0706 2.2222 0.4999
vt -0.0706 2.2222 0.2502
vt -0.1163 -0.9919 0.2502
vt -0.7360 -0.9919 0.2502
vt -0.0631 -1.2222 0.5000
vt 0.2721 -1.2222 0.5000
vt 0.2700 -0.7839 0.5000
vt 0.2704 -0.9918 0.5000
vt 0.2692 -0.3419 0.5000
vt 0.2668 1.0200 0.5000
vt -0.0648 -0.9918 0.5000
vt -0.0684 1.0200 0.5000
vt -0.0652 -0.7839 0.5000
vt 0.3219 -0.9918 0.0005
vt 1.8951 -0.9918 0.0005
vt 0.9126 0.0009 0.8059
vt 0.9126 0.9246 0.8058
vt 0.0928 0.9244 0.8060
vt 0.0928 0.0005 0.8060
vt 0.9126 0.9246 0.0004
vt 0.9126 0.0009 0.0005
vt 0.9126 0.9995 0.0004
vt 0.0928 0.9994 0.0007
vt 0.0928 0.9994 0.1532
vt 0.9126 0.9995 0.1528
vt 0.0630 0.9769 0.0009
vt 0.0630 0.9769 0.9994
vt 0.9496 0.9770 0.9991
vt 0.9496 0.9770 0.0002
vt 0.0928 0.0005 0.0009
vt 0.0928 0.9244 0.0007
vt -0.8865 3.7140 5.0371
vt -1.0865 3.7140 5.0371
vt -1.0866 -2.7140 4.9798
vt -0.8866 -2.7140 4.9798
vt 5.5519 1.8865 3.7140
vt 5.5519 2.0865 3.7140
vt 5.0371 2.0865 3.7140
vt 5.0371 1.8865 3.7140
vt 8.9042 1.8865 3.7140
vt 8.9042 2.0865 3.7140
vt 9.4190 1.8865 3.7140
vt 9.4190 2.0865 3.7140
vt 1.8866 -2.7140 9.3617
vt 2.0866 -2.7140 9.3617
vt 2.0865 3.7140 9.4190
vt 1.8865 3.7140 9.4190
vt 15.5581 1.8866 -2.7140
vt 15.5581 2.0866 -2.7140
vt 9.3617 2.0866 -2.7140
vt 9.3617 1.9866 -2.7140
vt 9.3617 1.8866 -2.7140
vt 9.3617 -1.0865 -2.7140
vt 15.5581 -1.0865 -2.7141
vt 15.5581 -0.4623 -2.7141
vt 2.0865 -2.7140 4.9797
vt 2.0866 3.7140 5.0371
vt -1.0866 3.7140 9.4190
vt -1.0865 -2.7140 9.3617
vt 5.0371 -1.0866 3.7140
vt 5.5519 -1.0866 3.7141
vt 8.9042 -1.0866 3.7140
vt 9.4190 -1.0866 3.7140
vt -10.7527 1.8866 -2.7140
vt -10.7527 -1.0865 -2.7140
vt 4.9797 -1.0865 -2.7140
vt 4.9798 1.8866 -2.7140
vt -13.7512 -1.0866 1.6361
vt -10.7527 -1.0866 1.6361
vt -13.7721 1.2724 1.6360
vt -10.7527 1.8865 1.6360
vt -13.7782 1.8865 1.6360
vt 1.8865 1.6360 -10.7527
vt -1.0866 1.6361 -10.7527
vt -1.0865 -2.7140 -10.7527
vt 1.8866 -2.7140 -10.7527
vt 7.2589 4.5554 1.8890
vt 5.9593 4.6748 1.9202
vt 5.9454 4.1958 2.2163
vt 7.2450 4.0764 2.1853
vt -12.8336 -1.4352 -4.2491
vt -12.8476 -1.6681 -4.2477
vt -10.0410 -1.7072 -4.2477
vt 16.2526 4.8543 -4.2892
vt 5.6898 -1.9262 -4.2477
vt 6.2046 -1.9333 -4.2477
vt 9.5565 -1.9801 -4.2477
vt 10.0713 -1.9872 -4.2477
vt 16.2671 -2.0735 -4.2477
vt 2.2163 5.9454 4.1958
vt 16.2532 5.7499 4.1958
vt 16.2221 7.0495 4.0764
vt 2.1853 7.2450 4.0764
vt 6.2091 -3.6942 -3.8477
vt 7.1202 -3.7069 -3.8477
vt 7.1247 -2.8230 -3.8477
vt 6.2136 -2.8103 -3.8477
vt -10.0906 -4.0477 -6.5177
vt -13.1177 -4.0477 -6.4756
vt -13.1173 -4.0887 -6.4756
vt -10.0906 -4.2477 -6.5177
vt 9.5353 -4.0477 -8.8693
vt 9.5353 -3.8477 -8.8693
vt 6.1835 -3.8477 -8.8226
vt 6.1835 -4.0477 -8.8226
vt 6.1835 -8.8226 -3.8477
vt 9.5353 -8.8693 -3.8477
vt 9.5474 -6.4649 -3.8477
vt 8.3910 -6.4488 -3.8477
vt 7.1066 -6.4308 -3.8477
vt 6.1955 -6.4181 -3.8477
vt 9.5675 -2.4410 -3.8477
vt 6.2157 -2.3944 -3.8477
vt 8.4091 -2.8408 -3.8477
vt 9.5655 -2.8569 -3.8477
vt 8.8139 -3.5582 -2.5477
vt 9.1535 -3.5630 -2.5477
vt 9.3375 -3.3824 -2.5477
vt 9.3384 -3.2092 -2.5477
vt 9.1562 -3.0235 -2.5477
vt 8.8166 -3.0188 -2.5477
vt 8.6326 -3.1992 -2.5477
vt 8.6318 -3.3726 -2.5477
vt 9.5474 -6.4649 -3.0477
vt 9.5596 -4.0408 -3.0477
vt 9.2610 -3.7366 -3.0477
vt 8.7046 -3.7289 -3.0477
vt 8.4032 -4.0247 -3.0477
vt 8.3910 -6.4488 -3.0477
vt 8.4047 -3.7247 -3.8477
vt 8.1046 -3.7205 -3.0477
vt 7.1202 -3.7069 -3.0477
vt 7.1066 -6.4308 -3.0477
vt -2.8569 -3.8477 9.5655
vt -2.8569 -3.3477 9.5655
vt -3.1569 -3.0477 9.5640
vt -3.4409 -3.0477 9.5626
vt -3.7409 -3.3477 9.5611
vt -3.7409 -3.8477 9.5611
vt -7.4091 -3.8477 -2.8408
vt -7.4091 -3.3477 -2.8408
vt -7.7090 -3.0477 -2.8450
vt -8.2655 -3.0477 -2.8527
vt -8.5655 -3.3477 -2.8569
vt -8.5655 -3.8477 -2.8569
vt 4.7247 -3.8477 8.4047
vt 4.7247 -3.3477 8.4047
vt 4.4248 -3.0477 8.4062
vt 4.1408 -3.0477 8.4076
vt 3.8408 -3.3477 8.4091
vt 3.8408 -3.8477 8.4091
vt -6.1202 -3.8477 -3.7069
vt -6.1202 -3.0477 -3.7069
vt -7.1046 -3.0477 -3.7205
vt -7.4047 -3.3477 -3.7247
vt -7.4047 -3.8477 -3.7247
vt 7.4308 -3.8477 7.1066
vt 7.4308 -3.0477 7.1066
vt 4.7069 -3.0477 7.1202
vt 4.7069 -3.8477 7.1202
vt 8.3910 -3.8477 -6.4488
vt 8.3910 -3.0477 -6.4488
vt 7.1066 -3.0477 -6.4308
vt 7.1066 -3.8477 -6.4308
vt 9.5474 -3.8477 -6.4649
vt 9.5474 -3.0477 -6.4649
vt -4.0408 -3.0477 9.5596
vt -6.4649 -3.0477 9.5474
vt -6.4649 -3.8477 9.5474
vt 9.2610 -3.0477 -3.7366
vt 9.1535 -2.5477 -3.5630
vt 8.8139 -2.5477 -3.5582
vt 8.7046 -3.0477 -3.7289
vt -3.2092 -2.5477 9.3384
vt -3.3824 -2.5477 9.3375
vt -7.8166 -2.5477 -3.0188
vt -8.1562 -2.5477 -3.0235
vt 4.3726 -2.5477 8.6318
vt 4.1992 -2.5477 8.6326
vt 9.5611 -3.3477 -3.7409
vt 9.5626 -3.0477 -3.4409
vt -3.7366 -3.0477 9.2610
vt -2.8527 -3.0477 9.2655
vt -7.4076 -3.0477 -3.1408
vt 8.4062 -3.4248 -3.0477
vt -7.4062 -3.0477 -3.4248
vt 4.7289 -3.0477 8.7046
vt 4.5582 -2.5477 8.8139
vt 9.3375 -2.5477 -3.3824
vt -3.0235 -2.5477 9.1562
vt -7.6326 -2.5477 -3.1992
vt -10.0410 -1.7072 -3.7477
vt -12.8476 -1.6681 -3.7477
vt -12.8682 -2.0098 -3.7477
vt -12.8753 -2.1285 -3.7477
vt -10.0300 -2.1681 -3.7477
vt 13.8476 -4.0477 -1.6681
vt 11.0410 -4.0477 -1.7072
vt 13.8476 -4.1953 -1.6681
vt 13.8476 -4.2477 -1.6681
vt 11.0410 -4.2477 -1.7072
vt -10.0906 -3.7477 -6.5177
vt -13.1207 -3.7477 -6.4755
vt -13.1201 -3.8089 -6.4755
vt -1.7072 -4.0477 -10.0410
vt -1.7072 -3.7477 -10.0410
vt -2.1681 -3.7477 -10.0300
vt -2.1681 -4.0477 -10.0300
vt 13.8476 -3.9690 -1.6681
vt 11.0410 -3.7477 -1.7072
vt -6.5177 -4.0477 -10.0906
vt -6.5177 -4.2477 -10.0906
vt -2.1681 -4.2477 -10.0300
vt -6.5177 -3.7477 -10.0906
vt -12.9388 -3.1827 -3.7477
vt -10.0906 -6.5177 -3.7477
vt -12.6247 6.2232 4.6683
vt -12.6263 6.1843 4.6719
vt 1.9202 5.9593 4.6748
vt 1.8890 7.2589 4.5554
vt -12.6461 5.2568 5.2472
vt 16.2526 4.8543 5.2472
vt -12.6204 6.1335 5.2884
vt 16.2532 5.7499 5.2893
vt -12.5156 5.2550 -4.2892
vt -13.1158 -4.2477 -6.4756
vt -13.1207 -6.4755 -3.7477
vt 13.8476 -3.7477 -1.6681
vt -13.0725 6.1912 4.6718
vt -12.6247 6.2547 4.6654
vt -13.1021 7.4584 4.5554
vt -13.0725 6.2237 4.6688
vt -4.4864 0.1121 0.8196
vt -4.4864 -0.3607 0.8196
vt -3.9137 -0.3607 0.8192
vt -3.3887 -0.3607 0.8188
vt -2.8638 -0.3607 0.8183
vt -2.4676 -0.3607 0.8180
vt -1.9596 -0.3607 0.8176
vt -1.4516 -0.3607 0.8172
vt -1.0471 -0.3607 0.8169
vt -0.5269 -0.3607 0.8165
vt -0.0066 -0.3607 0.8161
vt 0.4742 -0.3607 0.8157
vt 1.1267 -0.3607 0.8152
vt 1.7706 -0.3607 0.8146
vt 2.8624 -0.3607 0.8138
vt 3.1919 -0.3607 0.8135
vt 4.2941 -0.3607 0.8127
vt 4.5303 -0.3607 0.8125
vt 5.5523 -0.3607 0.8117
vt 5.5523 0.1121 0.8116
vt 5.5523 0.6694 0.8116
vt -4.4864 0.6694 0.8196
vt 5.5523 1.3955 0.8117
vt 5.3765 1.3955 0.8118
vt -4.4864 1.3955 0.8196
vt 0.3870 1.4353 5.5110
vt 0.8196 1.3955 5.4864
vt 0.8196 2.1645 5.4864
vt 0.3869 2.2043 5.5109
vt 5.3630 1.5356 0.8118
vt 5.2672 2.3242 0.8121
vt 0.1930 2.1645 0.8159
vt -4.4864 2.1645 0.8196
vt -4.5109 2.2043 0.3869
vt 0.1763 2.2043 0.3829
vt 0.2750 2.3640 0.3830
vt 5.1183 2.3640 0.3790
vt 5.1183 2.5688 0.3790
vt -4.5109 2.5688 0.3869
vt 3.1919 -1.3983 0.8135
vt 3.1919 -1.1155 0.8135
vt 2.8624 -1.1185 0.8138
vt 2.8624 -1.4065 0.8138
vt -1.9596 -0.7699 0.8176
vt -1.8867 -0.8203 0.8175
vt -4.3802 -0.7851 0.8195
vt -4.4864 -1.2075 0.8195
vt -4.4864 -1.5688 0.8195
vt -3.3887 -0.7736 0.8187
vt -3.3073 -0.8143 0.8187
vt -2.6657 -0.7718 0.8182
vt 0.5654 -0.6583 0.8156
vt 0.5822 -0.6406 0.8156
vt -0.0526 -1.2255 0.8161
vt 0.5822 -0.6993 0.8156
vt 0.5822 -1.4233 0.8156
vt -0.0066 -1.4367 0.8160
vt -0.5272 -1.1024 0.3831
vt -0.8606 -1.0099 0.3834
vt -1.0032 -1.2305 0.3835
vt -0.5272 -1.4435 0.3831
vt -1.0475 -1.4503 0.3835
vt -1.0028 -1.2305 0.8168
vt -1.2493 -0.7656 0.8171
vt -1.5320 -1.2340 0.8173
vt -1.0471 -1.4503 0.8168
vt -1.4515 -1.4599 0.8172
vt -0.0070 -1.4366 0.3827
vt -0.0529 -1.2254 0.3828
vt -0.1947 -1.0072 0.3829
vt -2.0324 -0.8207 0.8176
vt -3.4702 -0.8149 0.8188
vt 1.0468 -0.6405 0.8152
vt -1.9599 -1.1183 0.3843
vt -1.6612 -1.0271 0.3840
vt -1.8869 -0.8201 0.3842
vt -1.9599 -0.7699 0.3843
vt -3.9136 -1.4835 0.8191
vt -3.8408 -1.2428 0.8191
vt -3.3891 -1.1251 0.3854
vt -3.0822 -1.0260 0.3851
vt -3.3074 -0.8140 0.3854
vt -3.3890 -0.7736 0.3854
vt -2.9367 -1.2377 0.8184
vt -2.8638 -1.4698 0.8183
vt -2.4676 -1.4735 0.8180
vt -2.3871 -1.2391 0.8179
vt -0.6110 -0.7894 0.8165
vt -0.5269 -0.7613 0.8165
vt -0.4428 -0.7889 0.8164
vt -2.0327 -0.8207 0.3843
vt -2.2586 -1.0299 0.3845
vt -3.4705 -0.8149 0.3855
vt -3.6959 -1.0288 0.3856
vt -3.6956 -1.0288 0.8190
vt -3.0819 -1.0260 0.8185
vt -2.2583 -1.0299 0.8178
vt -0.1944 -1.0072 0.8162
vt -0.8602 -1.0099 0.8167
vt -1.6609 -1.0272 0.8174
vt -0.5272 -0.7613 0.3831
vt -0.6111 -0.7896 0.3832
vt -0.4433 -0.7890 0.3830
vt -1.4519 -1.4598 0.3838
vt -1.5325 -1.2341 0.3839
vt -1.9599 -1.4667 0.3843
vt -2.3875 -1.2391 0.3846
vt -2.4680 -1.4735 0.3846
vt -2.8642 -1.4698 0.3850
vt -2.9371 -1.2378 0.3850
vt -3.3891 -1.4766 0.3854
vt -3.8412 -1.2427 0.3858
vt -3.9140 -1.4835 0.3858
vt 0.8161 -1.2255 1.0526
vt 0.3828 -1.2254 1.0529
vt 0.3827 -1.4366 1.0070
vt 0.8160 -1.4367 1.0066
vt 0.8162 -1.0072 1.1944
vt 0.3829 -1.0072 1.1947
vt -0.4428 0.8164 -0.7889
vt -0.4433 0.3830 -0.7890
vt -0.1947 0.3829 -1.0072
vt -0.1944 0.8162 -1.0072
vt -0.5269 0.8165 -0.7613
vt -0.5272 0.3831 -0.7613
vt -0.6110 0.8165 -0.7894
vt -0.6111 0.3832 -0.7896
vt -0.8602 0.8167 -1.0099
vt -0.8606 0.3834 -1.0099
vt 0.1832 -1.2305 2.0028
vt 0.6165 -1.2305 2.0032
vt 0.6166 -1.0099 1.8606
vt 0.1833 -1.0099 1.8602
vt 0.1832 -1.4503 2.0471
vt 0.6165 -1.4503 2.0475
vt 0.8173 -1.2340 2.5320
vt 0.3839 -1.2341 2.5325
vt 0.3838 -1.4598 2.4519
vt 0.8172 -1.4599 2.4515
vt 0.8174 -1.0272 2.6609
vt 0.3840 -1.0271 2.6612
vt -1.8867 0.8175 -0.8203
vt -1.8869 0.3842 -0.8201
vt -1.6612 0.3840 -1.0271
vt -1.6609 0.8174 -1.0272
vt -1.9596 0.8176 -0.7699
vt -1.9599 0.3843 -0.7699
vt -2.0324 0.8176 -0.8207
vt -2.0327 0.3843 -0.8207
vt -2.2583 0.8178 -1.0299
vt -2.2586 0.3845 -1.0299
vt 0.1821 -1.2391 3.3871
vt 0.6154 -1.2391 3.3875
vt 0.6155 -1.0299 3.2586
vt 0.1822 -1.0299 3.2583
vt 0.1820 -1.4735 3.4676
vt 0.6154 -1.4735 3.4680
vt 0.8184 -1.2377 3.9367
vt 0.3850 -1.2378 3.9371
vt 0.3850 -1.4698 3.8642
vt 0.8183 -1.4698 3.8638
vt 0.8185 -1.0260 4.0819
vt 0.3851 -1.0260 4.0822
vt -3.3073 0.8187 -0.8143
vt -3.3074 0.3854 -0.8140
vt -3.0822 0.3851 -1.0260
vt -3.0819 0.8185 -1.0260
vt -3.3887 0.8187 -0.7736
vt -3.3890 0.3854 -0.7736
vt -3.4702 0.8188 -0.8149
vt -3.4705 0.3855 -0.8149
vt -3.6956 0.8190 -1.0288
vt -3.6959 0.3856 -1.0288
vt 0.1809 -1.2428 4.8408
vt 0.6142 -1.2427 4.8412
vt 0.6144 -1.0288 4.6959
vt 0.1810 -1.0288 4.6956
vt 0.1809 -1.4835 4.9136
vt 0.6142 -1.4835 4.9140
vt 5.5110 -1.3735 0.3617
vt 5.5110 -1.1063 0.3617
vt 4.5300 -1.1093 0.3624
vt 4.5300 -1.3818 0.3624
vt 4.5303 -1.3818 0.8124
vt 4.5303 -1.1094 0.8124
vt 4.2941 -1.1124 0.8126
vt 4.2941 -1.3900 0.8126
vt 4.2938 -1.3900 0.3626
vt 4.2938 -1.1124 0.3626
vt 3.1916 -1.1155 0.3635
vt 3.1916 -1.3983 0.3635
vt 1.7706 -1.1216 0.8146
vt 1.0678 -0.6581 0.8152
vt 1.0468 -0.6992 0.8152
vt 1.0468 -1.4230 0.8152
vt 1.7706 -1.4147 0.8146
vt 1.7703 -1.1216 0.3646
vt 1.7702 -1.4148 0.3646
vt 2.8620 -1.4065 0.3638
vt 2.8621 -1.1185 0.3637
vt 2.8509 -1.0533 0.8138
vt 2.8222 -0.9304 0.8138
vt 2.7362 -0.8115 0.8139
vt 2.5559 -0.6743 0.8140
vt 2.4024 -0.6240 0.8141
vt 2.2245 -0.6265 0.8143
vt 1.7980 -0.9611 0.8146
vt 1.8657 -0.8279 0.8146
vt 2.0271 -0.6957 0.8144
vt 2.2242 -0.6265 0.3643
vt 2.0268 -0.6958 0.3644
vt 1.8652 -0.8279 0.3645
vt 1.7976 -0.9610 0.3646
vt 2.8498 -1.0534 0.3637
vt 2.8219 -0.9303 0.3638
vt 2.7359 -0.8115 0.3639
vt 2.5556 -0.6742 0.3640
vt 2.4020 -0.6241 0.3641
vt 4.2664 -0.9816 0.8127
vt 4.1906 -0.8320 0.8127
vt 4.0370 -0.6968 0.8128
vt 3.8833 -0.6240 0.8130
vt 3.7400 -0.6102 0.8131
vt 3.2155 -0.9918 0.8135
vt 3.2749 -0.8525 0.8134
vt 3.3794 -0.7439 0.8134
vt 3.4696 -0.6661 0.8133
vt 3.6109 -0.6102 0.8132
vt 3.7396 -0.6102 0.3631
vt 3.6105 -0.6102 0.3632
vt 3.4692 -0.6660 0.3633
vt 3.3792 -0.7441 0.3634
vt 3.2746 -0.8525 0.3634
vt 3.2152 -0.9918 0.3635
vt 4.2660 -0.9815 0.3627
vt 4.1903 -0.8320 0.3627
vt 4.0366 -0.6968 0.3628
vt 3.8829 -0.6241 0.3630
vt 5.5118 -0.7849 0.8117
vt 5.5523 -0.9406 0.8116
vt 5.3786 -0.6681 0.8118
vt 5.1472 -0.5985 0.8120
vt 5.0038 -0.6046 0.8121
vt 4.5593 -0.9816 0.8124
vt 4.7006 -0.7562 0.8123
vt 4.8604 -0.6600 0.8122
vt 5.0034 -0.6046 0.3621
vt 4.8601 -0.6600 0.3622
vt 4.7003 -0.7562 0.3623
vt 4.5589 -0.9815 0.3624
vt 5.5019 -0.9406 0.3617
vt 5.4679 -0.7849 0.3617
vt 5.3592 -0.6680 0.3618
vt 5.1468 -0.5985 0.3620
vt 0.8116 -1.1063 -4.5523
vt 0.3617 -1.1063 -4.5110
vt 0.3617 -1.3735 -4.5110
vt 0.8116 -1.3735 -4.5523
vt 0.8116 -0.9406 -4.5523
vt 0.3617 -0.9406 -4.5019
vt 0.8117 -0.7849 -4.5118
vt 0.3617 -0.7849 -4.4679
vt 0.8118 -0.6681 -4.3786
vt 0.3618 -0.6680 -4.3592
vt 5.4679 0.3617 -0.7849
vt 5.5118 0.8117 -0.7849
vt 5.3786 0.8118 -0.6681
vt 5.1472 0.8120 -0.5985
vt 5.1468 0.3620 -0.5985
vt 5.3592 0.3618 -0.6680
vt 5.0038 0.8121 -0.6046
vt 5.0034 0.3621 -0.6046
vt 4.8604 0.8122 -0.6600
vt 4.8601 0.3622 -0.6600
vt 4.7006 0.8123 -0.7562
vt 4.7003 0.3623 -0.7562
vt 0.1876 -0.9816 -3.5593
vt 0.6376 -0.9815 -3.5589
vt 0.6377 -0.7562 -3.7003
vt 0.1877 -0.7562 -3.7006
vt 0.1876 -1.1094 -3.5303
vt 0.6376 -1.1093 -3.5300
vt 0.1876 -1.3818 -3.5303
vt 0.6376 -1.3818 -3.5300
vt 0.8126 -1.1124 -3.2941
vt 0.3626 -1.1124 -3.2938
vt 0.3626 -1.3900 -3.2938
vt 0.8126 -1.3900 -3.2941
vt 0.8127 -0.9816 -3.2664
vt 0.3627 -0.9815 -3.2660
vt 0.8127 -0.8320 -3.1906
vt 0.3627 -0.8320 -3.1903
vt 4.0370 0.8128 -0.6968
vt 4.0366 0.3628 -0.6968
vt 4.1903 0.3627 -0.8320
vt 4.1906 0.8127 -0.8320
vt 3.8833 0.8130 -0.6240
vt 3.8829 0.3630 -0.6241
vt 3.7400 0.8131 -0.6102
vt 3.7396 0.3631 -0.6102
vt 3.6109 0.8132 -0.6102
vt 3.6105 0.3632 -0.6102
vt 3.4696 0.8133 -0.6661
vt 3.4692 0.3633 -0.6660
vt 3.3794 0.8134 -0.7439
vt 3.3792 0.3634 -0.7441
vt 0.1866 -0.8525 -2.2749
vt 0.6366 -0.8525 -2.2746
vt 0.6366 -0.7441 -2.3792
vt 0.1866 -0.7439 -2.3794
vt 0.1865 -0.9918 -2.2155
vt 0.6365 -0.9918 -2.2152
vt 0.1865 -1.1155 -2.1919
vt 0.6365 -1.1155 -2.1916
vt 0.1865 -1.3983 -2.1919
vt 0.6365 -1.3983 -2.1916
vt 0.8138 -1.1185 -1.8624
vt 0.3637 -1.1185 -1.8621
vt 0.3638 -1.4065 -1.8620
vt 0.8138 -1.4065 -1.8624
vt 0.8138 -1.0533 -1.8509
vt 0.3637 -1.0534 -1.8498
vt 0.8138 -0.9304 -1.8222
vt 0.3638 -0.9303 -1.8219
vt 0.8139 -0.8115 -1.7362
vt 0.3639 -0.8115 -1.7359
vt 2.5559 0.8140 -0.6743
vt 2.5556 0.3640 -0.6742
vt 2.7359 0.3639 -0.8115
vt 2.7362 0.8139 -0.8115
vt 2.4024 0.8141 -0.6240
vt 2.4020 0.3641 -0.6241
vt 2.2245 0.8143 -0.6265
vt 2.2242 0.3643 -0.6265
vt 2.0271 0.8144 -0.6957
vt 2.0268 0.3644 -0.6958
vt 1.8657 0.8146 -0.8279
vt 1.8652 0.3645 -0.8279
vt 0.1854 -0.9611 -0.7980
vt 0.6354 -0.9610 -0.7976
vt 0.6355 -0.8279 -0.8652
vt 0.1854 -0.8279 -0.8657
vt 0.1854 -1.1216 -0.7706
vt 0.6354 -1.1216 -0.7703
vt 0.1854 -1.4147 -0.7706
vt 0.6354 -1.4148 -0.7702
vt 5.5523 1.5394 0.8117
vt 0.2918 2.3242 0.8191
vt 5.5245 -0.6240 0.0881
vt 5.5245 2.5548 0.0881
vt -4.1265 2.5548 0.0805
vt -4.3630 0.8118 1.5356
vt -4.5523 0.8117 1.5394
vt -4.3626 0.3509 1.5754
vt -4.1256 -0.6240 0.0805
vt 0.6488 2.3640 -4.2668
vt 0.1879 2.3242 -4.2672
vt 0.1882 1.5356 -4.3630
vt 0.6491 1.5754 -4.3626
vt 0.3551 0.3976 0.4640
vt 0.6449 0.3976 0.5360
vt 0.6449 0.5884 0.5360
vt 0.3551 0.6024 0.4640
vt 0.0005 0.7700 0.5000
vt 0.9995 0.0005 0.5000
vt 0.6531 0.9995 0.5000
# 639 texture coords

g Myyrivahe_10
usemtl K_plek
s off
f 1/1/1 2/2/1 3/3/1 
f 3/3/1 4/4/1 1/1/1 
f 5/5/1 6/6/1 7/7/1 
f 7/7/1 8/8/1 5/5/1 
f 9/9/1 10/10/1 11/11/1 
f 11/11/1 12/12/1 9/9/1 
f 2/2/1 13/13/1 14/14/1 
f 14/14/1 3/3/1 2/2/1 
f 4/4/1 15/15/1 16/16/1 
f 16/16/1 1/1/1 4/4/1 
f 14/14/1 17/17/1 18/18/1 
f 18/18/1 3/3/1 14/14/1 
f 19/19/1 15/15/1 4/4/1 
f 19/19/1 4/4/1 20/20/1 
f 19/19/1 20/20/1 21/21/1 
f 19/19/1 21/21/1 22/22/1 
f 23/23/1 19/19/1 22/22/1 
f 24/24/2 5/5/2 8/8/2 
f 8/8/2 25/25/2 24/24/2 
f 26/26/2 27/27/2 28/28/2 
f 28/28/2 29/29/2 26/26/2 
f 30/30/3 31/31/3 27/27/3 
f 27/27/3 26/26/3 30/30/3 
f 32/32/4 33/33/4 31/31/4 
f 31/31/4 30/30/4 32/32/4 
f 25/25/2 8/8/2 33/33/2 
f 33/33/2 32/32/2 25/25/2 
f 7/7/5 34/34/5 35/35/5 
f 35/35/5 8/8/5 7/7/5 
f 36/36/6 37/37/6 34/34/6 
f 34/34/6 7/7/6 36/36/6 
f 38/38/7 39/39/7 37/37/7 
f 37/37/7 36/36/7 38/38/7 
f 40/40/7 41/41/7 42/42/7 
f 42/42/7 43/43/7 40/40/7 
f 44/44/8 9/9/8 41/41/8 
f 41/41/8 40/40/8 44/44/8 
f 45/45/7 10/10/7 9/9/7 
f 9/9/7 44/44/7 45/45/7 
f 27/27/2 12/12/2 11/11/2 
f 11/11/2 28/28/2 27/27/2 
f 31/31/3 46/46/3 12/12/3 
f 12/12/3 27/27/3 31/31/3 
f 33/33/4 47/47/4 46/46/4 
f 46/46/4 31/31/4 33/33/4 
f 8/8/2 35/35/2 47/47/2 
f 47/47/2 33/33/2 8/8/2 
f 12/12/9 16/16/9 15/15/9 
f 15/15/9 9/9/9 12/12/9 
f 46/46/3 1/1/3 16/16/3 
f 16/16/3 12/12/3 46/46/3 
f 47/47/4 2/2/4 1/1/4 
f 1/1/4 46/46/4 47/47/4 
f 35/35/2 13/13/2 2/2/2 
f 2/2/2 47/47/2 35/35/2 
f 34/34/5 14/14/5 13/13/5 
f 13/13/5 35/35/5 34/34/5 
f 37/37/6 17/17/6 14/14/6 
f 14/14/6 34/34/6 37/37/6 
f 39/39/7 18/18/7 17/17/7 
f 17/17/7 37/37/7 39/39/7 
f 48/48/10 49/49/10 3/3/10 
f 50/50/11 48/48/11 3/3/11 
f 51/51/12 50/50/12 3/3/12 
f 39/39/13 51/51/13 3/3/13 
f 39/39/8 3/3/8 18/18/8 
f 52/52/7 4/4/7 3/3/7 
f 3/3/7 49/49/7 52/52/7 
f 41/41/7 19/19/7 23/23/7 
f 23/23/7 42/42/7 41/41/7 
f 9/9/8 15/15/8 19/19/8 
f 19/19/8 41/41/8 9/9/8 
f 42/42/14 23/23/14 22/22/14 
f 22/22/14 53/53/14 42/42/14 
f 4/4/6 52/52/6 54/54/6 
f 54/54/6 20/20/6 4/4/6 
f 55/55/7 7/7/7 6/6/7 
f 6/6/7 56/56/7 55/55/7 
usemtl U10_1
f 57/57/3 58/58/3 59/59/3 
f 59/59/3 60/60/3 57/57/3 
f 61/61/15 58/58/15 57/57/15 
f 57/57/15 62/62/15 61/61/15 
f 63/63/16 64/64/16 65/65/16 
f 65/65/16 66/66/16 63/63/16 
f 67/67/17 68/68/17 65/65/17 
f 65/65/18 64/64/18 67/67/18 
f 69/69/19 68/68/19 59/59/19 
f 59/59/20 58/58/20 69/69/20 
f 70/70/21 69/69/21 58/58/21 
f 58/58/22 61/61/22 70/70/22 
f 71/71/23 60/60/23 59/59/23 
f 59/59/24 72/72/24 71/71/24 
f 72/72/25 59/59/25 68/68/25 
f 68/68/26 67/67/26 72/72/26 
f 66/66/27 65/65/27 68/68/27 
f 68/68/28 69/69/28 66/66/28 
f 63/63/29 66/66/29 69/69/29 
f 69/69/30 70/70/30 63/63/30 
usemtl F1
f 73/73/6 36/74/6 7/75/6 
f 7/75/6 55/76/6 73/73/6 
f 74/77/7 38/78/7 36/79/7 
f 36/79/7 73/80/7 74/77/7 
f 75/81/7 43/82/7 38/78/7 
f 38/78/7 74/77/7 75/81/7 
f 76/83/7 40/84/7 43/82/7 
f 43/82/7 75/81/7 76/83/7 
f 77/85/8 44/86/8 40/87/8 
f 40/87/8 76/88/8 77/85/8 
f 78/89/7 45/90/7 44/91/7 
f 44/91/7 77/92/7 78/89/7 
f 77/93/7 79/94/7 80/95/7 
f 77/93/7 80/95/7 81/96/7 78/89/7 
f 55/76/31 82/97/31 83/98/31 
f 83/98/31 73/73/31 55/76/31 
f 76/88/8 84/99/8 79/100/8 
f 79/100/12 77/85/12 76/88/12 
f 73/80/32 83/101/32 85/102/32 
f 85/102/7 74/77/7 73/80/7 
f 74/77/7 85/102/7 86/103/7 
f 86/103/7 75/81/7 74/77/7 
f 75/81/7 86/103/7 84/104/7 
f 84/104/7 76/83/7 75/81/7 
f 56/105/7 87/106/7 82/107/7 
f 82/107/7 55/108/7 56/105/7 
f 88/109/7 89/110/7 90/111/7 
f 90/111/7 89/110/7 91/112/7 92/113/7 
f 91/114/33 89/115/33 87/116/33 
f 87/116/23 56/117/23 91/114/23 
usemtl ruberoid
f 93/118/34 94/119/34 95/120/34 
f 95/120/35 96/121/35 93/118/35 
f 97/122/36 98/123/36 24/124/36 99/125/36 
f 99/125/36 24/124/36 25/126/36 
f 99/125/36 25/126/36 32/127/36 
f 99/125/36 32/127/36 30/128/36 
f 99/125/36 30/128/36 26/129/36 
f 99/125/36 26/129/36 29/130/36 
f 95/131/37 100/132/37 101/133/37 
f 101/133/38 96/134/38 95/131/38 
f 50/135/1 102/136/1 103/137/1 
f 103/137/1 48/138/1 50/135/1 
f 104/139/39 105/140/39 106/141/39 91/142/39 
f 43/143/7 42/144/7 39/145/7 
f 39/145/7 38/146/7 43/143/7 
f 39/147/1 42/148/1 53/149/1 
f 39/147/1 53/149/1 107/150/1 
f 39/147/1 107/150/1 108/151/1 
f 51/152/1 39/147/1 108/151/1 
f 52/153/1 49/154/1 48/138/1 
f 52/153/1 48/138/1 103/137/1 
f 52/153/1 103/137/1 109/155/1 
f 54/156/1 52/153/1 109/155/1 
f 51/152/1 108/151/1 102/136/1 
f 102/136/1 50/135/1 51/152/1 
f 110/157/1 111/158/1 112/159/1 
f 112/159/1 113/160/1 114/161/1 
f 110/157/1 112/159/1 114/161/1 
f 114/161/1 115/162/1 116/163/1 
f 110/157/1 114/161/1 116/163/1 
f 117/164/1 110/157/1 116/163/1 
f 118/165/1 119/166/1 120/167/1 
f 120/167/1 121/168/1 122/169/1 
f 118/165/1 120/167/1 122/169/1 
f 123/170/1 118/165/1 122/169/1 
f 102/136/1 124/171/1 109/155/1 
f 109/155/1 103/137/1 102/136/1 
f 122/169/1 125/172/1 126/173/1 
f 123/170/1 122/169/1 126/173/1 
f 127/174/1 123/170/1 126/173/1 
f 54/175/8 128/176/8 129/177/8 
f 129/177/40 130/178/40 131/179/40 
f 54/175/12 129/177/12 131/179/12 
f 132/180/8 54/175/8 131/179/8 
f 109/181/4 133/182/4 134/183/4 
f 134/183/41 135/184/41 128/185/41 
f 109/181/2 134/183/2 128/185/2 
f 54/186/2 109/181/2 128/185/2 
f 124/187/6 136/188/6 137/189/6 
f 137/189/42 138/190/42 133/191/42 
f 124/187/31 137/189/31 133/191/31 
f 109/192/6 124/187/6 133/191/6 
f 102/193/3 126/194/3 125/195/3 
f 102/193/43 125/195/43 136/196/43 
f 124/197/2 102/193/2 136/196/2 
f 108/198/6 127/199/6 126/200/6 
f 126/200/6 102/201/6 108/198/6 
f 107/202/32 123/203/32 127/204/32 
f 127/204/32 108/205/32 107/202/32 
f 53/206/7 118/207/7 123/203/7 
f 123/203/7 107/202/7 53/206/7 
f 132/180/8 131/179/8 119/208/8 
f 132/180/44 119/208/44 118/209/44 
f 53/210/45 132/180/45 118/209/45 
f 120/211/46 111/212/46 110/213/46 
f 110/213/47 121/214/47 120/211/47 
f 129/177/48 113/215/48 112/216/48 
f 112/216/49 130/178/49 129/177/49 
f 134/183/50 115/217/50 114/218/50 
f 114/218/51 135/184/51 134/183/51 
f 137/189/52 117/219/52 116/220/52 
f 116/220/53 138/190/53 137/189/53 
f 131/221/54 130/222/54 120/211/54 
f 120/223/55 119/208/55 131/179/55 
f 128/176/56 135/224/56 129/177/56 
f 133/182/57 138/225/57 134/183/57 
f 125/172/1 121/168/1 137/226/1 
f 137/227/58 136/196/58 125/195/58 
f 121/228/59 110/229/59 117/219/59 
f 117/219/60 137/189/60 121/228/60 
f 120/211/61 130/222/61 112/230/61 
f 112/230/62 111/212/62 120/211/62 
f 135/224/63 114/231/63 113/215/63 
f 113/215/64 129/177/64 135/224/64 
f 134/183/65 138/225/65 116/232/65 
f 116/232/66 115/217/66 134/183/66 
f 125/172/1 122/169/1 121/168/1 
f 139/233/1 140/234/1 141/235/1 
f 141/235/1 142/236/1 143/237/1 139/233/1 
f 144/238/2 5/239/2 145/240/2 
f 98/241/2 145/240/2 5/239/2 24/242/2 
f 146/243/7 147/244/7 148/245/7 104/139/7 
f 5/246/67 139/247/67 143/248/67 
f 143/248/67 6/249/67 5/246/67 
f 144/238/2 149/250/2 139/251/2 5/239/2 
f 6/249/23 104/252/23 91/253/23 
f 91/253/23 56/254/23 6/249/23 
f 143/248/23 146/255/23 104/252/23 
f 104/252/23 6/249/23 143/248/23 
f 143/237/1 142/236/1 150/256/1 146/257/1 
f 151/258/68 152/259/68 94/260/68 93/261/68 
f 153/262/69 154/263/69 155/264/69 
f 156/265/69 155/264/69 154/263/69 
f 157/266/36 97/122/36 99/125/36 
f 92/267/70 91/142/70 106/141/70 
f 105/140/70 104/139/70 148/245/70 
f 147/268/1 146/257/1 150/256/1 
f 140/269/2 139/251/2 149/250/2 
f 151/258/71 158/270/71 152/259/71 
f 151/271/72 159/272/72 158/273/72 
f 151/271/73 93/261/73 159/272/73 
usemtl paekk
f 160/274/4 161/275/4 162/276/4 
f 160/274/74 162/276/74 163/277/74 
f 160/274/74 163/277/74 164/278/74 
f 160/274/74 164/278/74 165/279/74 
f 160/274/75 165/279/75 166/280/75 
f 160/274/76 166/280/76 167/281/76 
f 160/274/77 167/281/77 168/282/77 
f 160/274/78 168/282/78 169/283/78 
f 160/274/79 169/283/79 170/284/79 
f 160/274/80 170/284/80 171/285/80 
f 160/274/79 171/285/79 172/286/79 
f 160/274/74 172/286/74 173/287/74 
f 160/274/75 173/287/75 174/288/75 
f 160/274/81 174/288/81 175/289/81 
f 160/274/82 175/289/82 176/290/82 
f 160/274/75 176/290/75 177/291/75 
f 160/274/83 177/291/83 178/292/83 
f 160/274/2 178/292/2 179/293/2 
f 160/274/84 179/293/84 180/294/84 
f 180/294/2 181/295/2 160/274/2 
f 181/295/85 180/294/85 182/296/85 
f 181/295/84 182/296/84 183/297/84 184/298/84 
f 185/299/86 184/300/86 101/301/86 
f 101/301/87 100/302/87 185/299/87 
f 184/298/41 183/297/41 186/303/41 159/304/41 
f 184/298/84 96/305/84 101/306/84 
f 100/307/88 95/308/88 94/309/88 
f 94/309/75 152/310/75 155/311/75 
f 100/307/88 94/309/88 155/311/88 
f 100/307/2 155/311/2 156/312/2 
f 187/313/4 188/314/4 189/315/4 
f 189/315/4 190/316/4 187/313/4 
f 166/280/3 191/317/3 192/318/3 
f 192/318/89 167/281/89 166/280/89 
f 193/319/90 161/275/90 194/320/90 195/321/90 
f 193/319/4 162/276/4 161/275/4 
f 163/277/91 196/322/91 197/323/91 
f 197/323/84 164/278/84 163/277/84 
f 165/279/84 164/278/84 198/324/84 
f 67/325/92 64/326/92 199/327/92 
f 72/328/93 67/325/93 199/327/93 
f 71/329/85 72/328/85 199/327/85 
f 200/330/84 71/329/84 199/327/84 
f 201/331/85 202/332/85 203/333/85 
f 204/334/2 201/331/2 203/333/2 
f 205/335/85 204/334/85 203/333/85 
f 206/336/84 207/337/84 208/338/84 
f 209/339/85 206/336/85 208/338/85 
f 210/340/85 209/339/85 208/338/85 
f 211/341/94 212/342/94 213/343/94 
f 211/341/89 213/343/89 201/331/89 
f 204/334/2 211/341/2 201/331/2 
f 166/280/84 165/279/84 214/344/84 
f 214/344/95 191/317/95 166/280/95 
f 163/277/85 162/276/85 215/345/85 
f 215/345/96 196/322/96 163/277/96 
f 172/286/2 171/285/2 64/326/2 
f 64/326/97 63/346/97 172/286/97 
f 216/347/85 217/348/85 218/349/85 
f 218/349/98 219/350/98 216/347/98 
f 195/321/76 220/351/76 221/352/76 
f 195/321/76 221/352/76 193/319/76 
f 222/353/85 223/354/85 224/355/85 
f 224/355/99 225/356/99 222/353/99 
f 226/357/3 227/358/3 228/359/3 
f 226/357/84 228/359/84 229/360/84 
f 198/324/85 226/357/85 229/360/85 
f 64/326/100 171/285/100 170/284/100 
f 169/283/76 168/282/76 230/361/76 
f 230/361/101 231/362/101 169/283/101 
f 207/337/84 168/282/84 167/281/84 
f 232/363/41 170/284/41 169/283/41 
f 169/283/102 231/362/102 232/363/102 
f 233/364/84 234/365/84 216/347/84 
f 216/347/84 219/350/84 233/364/84 
f 235/366/89 236/367/89 222/353/89 
f 222/353/91 225/356/91 235/366/91 
f 237/368/84 215/345/84 162/276/84 
f 221/352/84 237/368/84 162/276/84 
f 221/352/89 162/276/89 193/319/89 
f 198/324/84 164/278/84 197/323/84 
f 198/324/85 197/323/85 238/369/85 
f 226/357/89 198/324/89 238/369/89 
f 239/370/85 214/344/85 165/279/85 
f 229/360/85 239/370/85 165/279/85 
f 229/360/85 165/279/85 198/324/85 
f 64/326/41 170/284/41 232/363/41 
f 64/326/89 232/363/89 240/371/89 
f 199/327/89 64/326/89 240/371/89 
f 241/372/84 230/361/84 168/282/84 
f 206/336/84 241/372/84 168/282/84 
f 206/336/84 168/282/84 207/337/84 
f 207/337/85 167/281/85 192/318/85 
f 207/337/84 192/318/84 242/373/84 
f 208/338/84 207/337/84 242/373/84 
f 201/331/91 243/374/91 244/375/91 
f 244/375/84 202/332/84 201/331/84 
f 245/376/103 243/374/103 201/331/103 
f 201/331/4 213/343/4 245/376/4 
f 246/377/104 247/378/104 217/348/104 
f 248/379/84 246/377/84 217/348/84 
f 216/347/2 248/379/2 217/348/2 
f 249/380/89 250/381/89 248/379/89 
f 249/380/4 248/379/4 216/347/4 
f 234/365/84 249/380/84 216/347/84 
f 251/382/105 252/383/105 223/354/105 
f 253/384/2 251/382/2 223/354/2 
f 222/353/2 253/384/2 223/354/2 
f 254/385/76 255/386/76 253/384/76 
f 254/385/2 253/384/2 222/353/2 
f 236/367/74 254/385/74 222/353/74 
f 199/387/106 212/388/106 211/389/106 
f 211/389/107 200/390/107 199/387/107 
f 240/391/108 213/392/108 212/388/108 
f 212/388/109 199/387/109 240/391/109 
f 232/393/110 245/394/110 213/395/110 
f 213/395/111 240/396/111 232/393/111 
f 231/397/112 243/398/112 245/394/112 
f 245/394/113 232/393/113 231/397/113 
f 230/399/114 244/400/114 243/398/114 
f 243/398/115 231/397/115 230/399/115 
f 241/401/116 202/402/116 244/400/116 
f 244/400/117 230/399/117 241/401/117 
f 206/403/118 203/404/118 202/405/118 
f 202/405/118 241/406/118 206/403/118 
f 209/407/119 205/408/119 203/404/119 
f 203/404/120 206/403/120 209/407/120 
f 208/409/121 247/410/121 246/411/121 
f 246/411/122 210/412/122 208/409/122 
f 242/413/123 217/414/123 247/410/123 
f 247/410/124 208/409/124 242/413/124 
f 192/415/125 218/416/125 217/417/125 
f 217/417/126 242/418/126 192/415/126 
f 191/419/127 219/420/127 218/416/127 
f 218/416/128 192/415/128 191/419/128 
f 214/421/129 233/422/129 219/420/129 
f 219/420/130 191/419/130 214/421/130 
f 239/423/131 234/424/131 233/422/131 
f 233/422/132 214/421/132 239/423/132 
f 229/425/133 249/426/133 234/427/133 
f 234/427/134 239/428/134 229/425/134 
f 228/429/135 250/430/135 249/426/135 
f 249/426/136 229/425/136 228/429/136 
f 226/431/137 252/432/137 251/433/137 
f 251/433/138 227/434/138 226/431/138 
f 238/435/139 223/436/139 252/432/139 
f 252/432/140 226/431/140 238/435/140 
f 197/437/141 224/438/141 223/439/141 
f 223/439/142 238/440/142 197/437/142 
f 196/441/143 225/442/143 224/438/143 
f 224/438/144 197/437/144 196/441/144 
f 215/443/145 235/444/145 225/442/145 
f 225/442/146 196/441/146 215/443/146 
f 237/445/147 236/446/147 235/444/147 
f 235/444/148 215/443/148 237/445/148 
f 221/447/149 254/448/149 236/449/149 
f 236/449/150 237/450/150 221/447/150 
f 220/451/151 255/452/151 254/448/151 
f 254/448/152 221/447/152 220/451/152 
f 256/453/2 257/454/2 258/455/2 
f 258/455/76 259/456/76 256/453/76 
f 260/457/2 261/458/2 262/459/2 
f 262/459/2 263/460/2 260/457/2 
f 264/461/4 265/462/4 266/463/4 
f 266/463/4 267/464/4 264/461/4 
f 268/465/153 63/346/153 70/466/153 
f 268/465/43 70/466/43 61/467/43 
f 268/465/2 61/467/2 62/468/2 
f 268/465/154 62/468/154 269/469/154 
f 270/470/74 271/471/74 272/472/74 
f 272/472/74 273/473/74 270/470/74 
f 173/287/85 172/286/85 63/346/85 
f 63/346/76 268/465/76 173/287/76 
f 174/288/4 189/315/4 188/314/4 
f 188/314/89 175/289/89 174/288/89 
f 261/458/85 177/291/85 176/290/85 
f 176/290/85 262/459/85 261/458/85 
f 274/474/155 189/315/155 174/288/155 
f 275/475/156 274/474/156 174/288/156 
f 276/476/2 275/475/2 174/288/2 
f 277/477/157 276/476/157 174/288/157 
f 278/478/74 277/477/74 174/288/74 
f 279/479/74 278/478/74 174/288/74 
f 173/287/158 268/465/158 280/480/158 
f 173/287/84 280/480/84 281/481/84 
f 173/287/84 281/481/84 282/482/84 
f 174/288/84 173/287/84 282/482/84 
f 279/479/159 174/288/159 282/482/159 
f 283/483/160 284/484/160 285/485/160 
f 285/485/161 286/486/161 270/470/161 
f 283/483/89 285/485/89 270/470/89 
f 270/470/79 273/473/79 287/487/79 
f 283/483/85 270/470/85 287/487/85 
f 287/487/41 288/488/41 289/489/41 
f 283/483/43 287/487/43 289/489/43 
f 283/483/162 289/489/162 290/490/162 
f 291/491/163 283/483/163 290/490/163 
f 292/492/164 262/459/164 176/290/164 
f 293/493/165 292/492/165 176/290/165 
f 294/494/165 293/493/165 176/290/165 
f 295/495/41 294/494/41 176/290/41 
f 296/496/85 295/495/85 176/290/85 
f 175/289/166 188/314/166 297/497/166 
f 175/289/167 297/497/167 298/498/167 
f 175/289/76 298/498/76 299/499/76 
f 175/289/85 299/499/85 300/500/85 
f 175/289/84 300/500/84 301/501/84 
f 176/290/85 175/289/85 301/501/85 
f 296/496/168 176/290/168 301/501/168 
f 302/502/169 303/503/169 304/504/169 
f 304/504/170 305/505/170 306/506/170 
f 306/506/171 307/507/171 266/463/171 
f 304/504/85 306/506/85 266/463/85 
f 266/463/89 265/462/89 308/508/89 
f 304/504/89 266/463/89 308/508/89 
f 308/508/89 309/509/89 310/510/89 
f 304/504/2 308/508/2 310/510/2 
f 302/502/41 304/504/41 310/510/41 
f 311/511/172 302/502/172 310/510/172 
f 312/512/173 313/513/173 178/292/173 
f 314/514/85 312/512/85 178/292/85 
f 315/515/85 314/514/85 178/292/85 
f 316/516/174 315/515/174 178/292/174 
f 177/291/85 261/458/85 317/517/85 
f 177/291/157 317/517/157 318/518/157 
f 177/291/85 318/518/85 319/519/85 
f 178/292/85 177/291/85 319/519/85 
f 316/516/175 178/292/175 319/519/175 
f 320/520/176 321/521/176 322/522/176 
f 322/522/103 323/523/103 258/455/103 
f 258/455/74 257/454/74 324/524/74 
f 322/522/84 258/455/84 324/524/84 
f 324/524/177 325/525/177 326/526/177 
f 322/522/85 324/524/85 326/526/85 
f 320/520/41 322/522/41 326/526/41 
f 327/527/163 320/520/163 326/526/163 
f 328/528/178 257/529/178 256/530/178 
f 256/530/178 329/531/178 328/528/178 
f 313/532/179 324/533/179 257/529/179 
f 257/529/178 328/528/178 313/532/178 
f 312/534/180 325/535/180 324/533/180 
f 324/533/181 313/532/181 312/534/181 
f 314/536/182 326/537/182 325/535/182 
f 325/538/183 312/539/183 314/540/183 
f 315/541/184 327/542/184 326/543/184 
f 326/543/185 314/540/185 315/541/185 
f 316/544/186 320/545/186 327/542/186 
f 327/542/186 315/541/186 316/544/186 
f 319/546/187 321/547/187 320/545/187 
f 320/545/188 316/544/188 319/546/188 
f 318/548/189 322/549/189 321/547/189 
f 321/547/190 319/546/190 318/548/190 
f 317/550/191 323/551/191 322/552/191 
f 322/552/192 318/553/192 317/550/192 
f 261/554/193 258/555/193 323/551/193 
f 323/551/194 317/550/194 261/554/194 
f 260/556/195 259/557/195 258/555/195 
f 258/555/195 261/554/195 260/556/195 
f 262/558/196 265/559/196 264/560/196 
f 264/560/196 263/561/196 262/558/196 
f 292/562/197 308/563/197 265/559/197 
f 265/559/198 262/558/198 292/562/198 
f 293/564/199 309/565/199 308/563/199 
f 308/563/200 292/562/200 293/564/200 
f 294/566/201 310/567/201 309/568/201 
f 309/568/202 293/569/202 294/566/202 
f 295/570/203 311/571/203 310/567/203 
f 310/567/204 294/566/204 295/570/204 
f 296/572/205 302/573/205 311/571/205 
f 311/571/206 295/570/206 296/572/206 
f 301/574/207 303/575/207 302/573/207 
f 302/573/208 296/572/208 301/574/208 
f 300/576/209 304/577/209 303/575/209 
f 303/575/210 301/574/210 300/576/210 
f 299/578/211 305/579/211 304/577/211 
f 304/577/212 300/576/212 299/578/212 
f 298/580/213 306/581/213 305/582/213 
f 305/582/214 299/583/214 298/580/214 
f 297/584/215 307/585/215 306/581/215 
f 306/581/216 298/580/216 297/584/216 
f 188/586/217 266/587/217 307/585/217 
f 307/585/218 297/584/218 188/586/218 
f 187/588/195 267/589/195 266/587/195 
f 266/587/195 188/586/195 187/588/195 
f 189/590/219 273/591/219 272/592/219 
f 272/592/23 190/593/23 189/590/23 
f 274/594/220 287/595/220 273/591/220 
f 273/591/221 189/590/221 274/594/221 
f 275/596/222 288/597/222 287/595/222 
f 287/595/223 274/594/223 275/596/223 
f 276/598/224 289/599/224 288/597/224 
f 288/597/225 275/596/225 276/598/225 
f 277/600/226 290/601/226 289/602/226 
f 289/602/227 276/603/227 277/600/227 
f 278/604/228 291/605/228 290/601/228 
f 290/601/229 277/600/229 278/604/229 
f 279/606/230 283/607/230 291/605/230 
f 291/605/231 278/604/231 279/606/231 
f 282/608/232 284/609/232 283/607/232 
f 283/607/233 279/606/233 282/608/233 
f 281/610/234 285/611/234 284/609/234 
f 284/609/235 282/608/235 281/610/235 
f 280/612/236 286/613/236 285/614/236 
f 285/614/237 281/615/237 280/612/237 
f 268/616/238 270/617/238 286/613/238 
f 286/613/239 280/612/239 268/616/239 
f 269/618/240 271/619/240 270/617/240 
f 270/617/240 268/616/240 269/618/240 
f 183/297/4 182/296/4 330/620/4 186/303/4 
f 93/621/241 96/305/241 159/304/241 
f 96/305/169 184/298/169 159/304/169 
f 99/622/7 154/623/7 153/624/7 
f 186/625/242 330/626/242 331/627/242 
f 157/628/7 99/622/7 153/624/7 
f 158/629/243 159/630/243 186/631/243 331/632/243 
f 152/633/244 332/634/244 153/635/244 155/636/244 
usemtl ruberoid
f 158/637/1 332/638/1 152/639/1 
# 16 polygons - 540 triangles

#
# object xxx
#

v  542243.0135 6588778.761 27.1972
v  542242.3906 6588779.4307 27.1972
v  542242.3906 6588779.4307 26.7654
v  542243.0135 6588778.761 26.7654
v  542242.1139 6588779.3532 24.8316
v  542242.1139 6588779.3532 24.3998
v  542241.196 6588780.533 24.7235
v  542241.196 6588780.533 24.2917
v  542242.3906 6588779.4306 24.5872
v  542243.0136 6588778.7609 24.5872
v  542242.1139 6588779.3531 22.2216
v  542241.196 6588780.5329 22.1135
v  542242.3906 6588779.4306 22.9152
v  542243.0136 6588778.7609 22.9152
v  542242.1139 6588779.3531 20.5496
v  542241.196 6588780.5329 20.4415
v  542242.3906 6588779.4307 18.6397
v  542243.016 6588778.7616 18.2332
v  542242.1139 6588779.3531 18.6397
v  542241.196 6588780.5329 19.0232
v  542244.7699 6588772.0595 18.2747
v  542244.7178 6588772.2869 18.2733
v  542244.7178 6588772.2869 15.3113
v  542244.7699 6588772.0595 15.3127
v  542243.016 6588778.7616 15.8586
v  542245.8922 6588767.3781 15.3016
v  542245.872 6588767.3726 17.6606
v  542245.8621 6588767.3698 18.7136
v  542245.8615 6588767.3697 18.7747
v  542245.1089 6588770.5805 18.7747
v  542245.8643 6588767.3705 18.4747
v  542245.8647 6588767.3705 18.4338
v  542245.8662 6588767.371 18.2747
v  542244.8464 6588771.7258 18.7747
v  542244.7699 6588772.0595 18.7747
v  542244.7699 6588772.0595 18.5534
v  542244.873 6588771.6099 18.7747
v  542244.7699 6588772.0595 18.4747
v  542244.7699 6588772.0595 18.3272
v  542241.196 6588780.5329 16.7863
v  542241.196 6588780.5329 15.9847
v  542241.5668 6588779.201 15.9847
v  542241.5668 6588779.201 16.7863
v  542242.1139 6588779.3532 15.9847
v  542242.1139 6588779.3532 16.7863
v  542241.5668 6588779.201 17.2836
v  542241.196 6588780.5329 17.2836
v  542242.1139 6588779.3532 17.2836
v  542242.3906 6588779.4308 17.2836
v  542242.3906 6588779.4308 16.7863
v  542242.3906 6588779.4308 15.9847
v  542270.627 6588787.3783 27.8117
v  542270.9058 6588786.5254 27.7697
v  542270.9058 6588786.5254 26.6762
v  542270.627 6588787.3783 26.7182
v  542270.9059 6588786.5254 24.3691
v  542270.627 6588787.3783 24.4111
v  542270.9059 6588786.5253 22.1909
v  542270.209 6588788.6092 16.4829
v  542273.0073 6588779.92 18.6747
v  542273.1477 6588779.4807 18.6747
v  542273.1477 6588779.4807 18.4747
v  542273.0073 6588779.92 18.4747
v  542273.1477 6588779.4807 18.2747
v  542273.0073 6588779.92 18.2747
v  542273.1477 6588779.4807 15.9258
v  542270.9058 6588786.5253 18.2332
v  542273.1477 6588779.4807 15.3016
v  542270.209 6588788.6091 15.3989
v  542270.9059 6588786.5253 20.5189
v  542270.209 6588788.6093 24.2917
v  542270.209 6588788.6092 22.1135
v  542270.209 6588788.6093 19.0232
v  542270.209 6588788.6092 20.4415
# 74 vertices

vn -0.7322 -0.6811 0.0000
vn 0.2697 -0.9629 -0.0000
vn -0.7893 -0.6140 0.0000
vn 0.2693 -0.9631 0.0000
vn -0.7893 -0.6141 0.0000
vn 0.2695 -0.9630 0.0000
vn -0.7314 -0.6819 -0.0003
vn -0.7893 -0.6141 -0.0000
vn -0.9747 -0.2234 0.0000
vn -0.9672 -0.2542 0.0000
vn -0.9732 -0.2301 -0.0026
vn -0.9724 -0.2331 -0.0089
vn -0.9728 -0.2317 -0.0058
vn -0.9734 -0.2289 -0.0000
vn -0.9736 -0.2282 -0.0098
vn -0.9736 -0.2282 -0.0097
vn -0.9747 -0.2234 -0.0000
vn -0.9739 -0.2260 -0.0186
vn -0.9737 -0.2277 0.0000
vn -0.9737 -0.2277 -0.0090
vn -0.9634 -0.2682 0.0000
vn 0.2682 -0.9634 0.0000
vn 0.2682 -0.9634 -0.0000
vn -0.6820 -0.6436 0.3474
vn 0.2682 -0.9634 -0.0001
vn -0.7306 -0.6828 -0.0000
vn 0.2697 -0.9629 -0.0001
vn -0.7306 -0.6828 0.0000
vn 0.9505 0.3107 -0.0000
vn 0.9505 0.3107 0.0000
vn 0.9494 0.3142 -0.0002
vn 0.9495 0.3139 -0.0010
vn 0.9508 0.3097 -0.0032
vn 0.9525 0.3045 0.0000
vn 0.9527 0.3040 0.0001
vn 0.9523 0.3053 -0.0009
vn 0.9502 0.3117 -0.0060
vn 0.9519 0.3064 0.0000
vn 0.9519 0.3064 -0.0000
vn 0.9484 0.3171 -0.0000
vn 0.9469 0.3215 -0.0000
vn -0.9999 -0.0115 -0.0000
vn 0.9995 0.0321 0.0000
vn 0.9934 0.1144 -0.0000
# 44 vertex normals

vt -13.0665 5.2626 5.2472
vt -13.0657 6.1463 5.2887
vt -13.0725 6.2237 4.6688
vt -13.1021 7.4584 4.5554
vt -12.8476 -1.6681 -4.2477
vt -12.8336 -1.4352 -4.2491
vt -12.5156 5.2550 -4.2892
vt 1.8866 -2.7140 9.3617
vt 9.3617 2.0866 -2.7140
vt 8.9042 1.8865 3.7140
vt -13.1201 -3.8089 -6.4755
vt -13.1207 -3.7477 -6.4755
vt -12.9388 -3.1827 -3.7477
vt -13.1177 -4.0477 -6.4756
vt -13.1173 -4.0887 -6.4756
vt -13.7782 1.8865 1.6360
vt -12.8682 -2.0098 -3.7477
vt -12.8476 -1.6681 -3.7477
vt 13.8476 -3.9690 -1.6681
vt -12.8753 -2.1285 -3.7477
vt 13.8476 -4.0477 -1.6681
vt 13.8476 -4.1953 -1.6681
vt 13.8476 -4.2477 -1.6681
vt 0.9671 -2.0364 -3.8946
vt 0.9671 -2.3036 -3.8946
vt -49.5594 -56.0438 34.1559
vt -50.8593 -50.9585 34.9477
vt -44.7882 -44.6895 31.5180
vt -43.4884 -49.7748 30.7262
vt -31.9794 -31.4630 24.2819
vt -30.6795 -36.5485 23.4901
vt -19.8863 -18.9751 17.4502
vt 15.5581 1.8866 -2.7140
vt -1.7533 -1.5518 0.9953
vt -1.8886 -1.8610 0.6901
vt -1.0701 -1.5810 0.4424
vt -0.9348 -1.2718 0.7477
vt -0.2516 -1.3011 0.1947
vt -0.1163 -0.9919 0.5000
vt 9.3617 1.9866 -2.7140
vt 2.0866 3.7140 5.0371
vt 13.3667 1.3869 -5.2898
vt 22.5139 0.8451 -7.1876
vt -10.6035 -9.3895 12.2061
vt -27.7953 -42.8813 21.7775
vt -15.7022 -30.3935 14.9458
vt 1.4550 -12.6772 5.2532
vt -6.4194 -20.8080 9.7017
# 48 texture coords

g xxx
usemtl xxx
s off
f 333/640/245 334/641/245 335/641/245 336/640/245 
f 334/642/246 337/642/246 338/642/246 335/642/246 
f 337/642/247 339/643/247 340/643/247 338/642/247 
f 336/640/245 335/641/245 341/641/245 342/640/245 
f 335/642/248 338/642/248 343/642/248 341/642/248 
f 338/642/249 340/643/249 344/643/249 343/642/249 
f 342/640/245 341/641/245 345/641/245 346/640/245 
f 341/642/250 343/642/250 347/642/250 345/642/250 
f 343/642/249 344/643/249 348/643/249 347/642/249 
f 346/640/251 345/641/251 349/641/251 350/640/251 
f 345/642/246 347/642/246 351/642/246 349/642/246 
f 347/642/252 348/643/252 352/643/252 351/642/252 
f 353/644/253 354/645/253 355/645/253 356/644/253 
f 354/645/254 350/646/254 357/646/254 355/645/254 
s 1
f 356/647/255 358/648/256 359/649/257 353/647/258 
s off
f 360/650/259 361/651/259 362/652/259 363/653/259 
f 364/654/260 363/653/260 362/652/260 365/655/260 
f 366/656/261 367/657/261 368/658/261 369/659/261 
f 362/652/262 369/659/262 368/658/262 365/655/262 
f 365/655/263 368/658/263 370/660/263 371/661/263 
f 365/655/264 371/661/264 353/662/264 359/649/264 
f 372/663/265 373/664/265 374/664/265 375/663/265 
f 375/663/266 374/664/266 376/664/266 377/663/266 
f 372/663/265 375/663/265 378/663/265 379/663/265 
f 375/663/267 377/663/267 380/663/267 378/663/267 
f 379/663/265 378/663/265 352/663/265 
f 378/663/268 351/663/268 352/663/268 
f 378/663/269 380/663/269 351/663/269 
f 350/640/270 349/641/270 381/641/270 
f 349/642/271 351/642/271 380/642/271 381/642/271 
f 381/641/272 382/641/272 350/640/272 
f 381/642/246 380/642/246 377/642/246 382/642/246 
f 350/640/272 382/641/272 383/641/272 357/640/272 
f 382/642/246 377/642/246 376/642/246 383/642/246 
s 7
f 384/665/273 385/666/273 386/667/274 387/668/274 
f 387/668/274 386/667/274 388/669/274 389/670/275 
f 389/670/275 388/669/274 390/671/276 391/672/277 
f 392/673/278 393/674/278 394/675/278 395/676/278 
f 395/676/278 394/675/278 396/677/278 397/678/279 
f 397/678/279 396/677/278 398/679/280 399/680/281 
f 398/679/280 400/681/282 401/682/283 391/672/277 
f 399/680/281 398/679/280 391/672/277 402/683/284 
f 390/671/276 402/683/284 391/672/277 
f 403/684/285 389/670/275 391/672/277 404/685/286 
f 391/672/277 405/686/287 406/687/288 404/685/286 
# 39 polygons - 6 triangles

