# 3ds Max Wavefront OBJ Exporter v0.94b - (c)2007 guruware
# File Created: 25.02.2011 14:00:56

mtllib Ryytli14_res-origo.mtl

#
# object Ryytli14
#

v  542104.621 6588830.493 23.2403
v  542104.621 6588830.493 22.4713
v  542104.7172 6588832.1083 22.4888
v  542104.7172 6588832.1083 23.2641
v  542104.814 6588833.7338 22.5408
v  542104.8143 6588833.7385 23.2880
v  542104.8494 6588834.3287 22.5646
v  542104.8494 6588834.3287 23.2967
v  542104.4996 6588834.3495 23.2918
v  542104.4996 6588834.3495 22.5646
v  542104.6489 6588836.8571 22.6072
v  542104.6494 6588836.8661 23.2918
v  542105.3348 6588837.4325 22.6211
v  542105.3348 6588837.4325 22.8334
v  542105.3255 6588837.2766 22.8340
v  542105.3255 6588837.2765 22.6175
v  542105.4308 6588839.046 22.6269
v  542105.4337 6588839.093 22.8409
v  542105.1813 6588839.9026 23.2797
v  542105.1813 6588839.9026 22.6357
v  542105.2663 6588841.3294 22.6776
v  542105.2658 6588841.3204 23.2797
v  542105.3062 6588841.9998 22.6809
v  542105.3062 6588841.9998 23.2797
v  542105.3733 6588843.127 22.6990
v  542105.3733 6588843.127 23.2797
v  542105.4199 6588843.9092 22.6990
v  542105.4202 6588843.9141 23.2797
v  542105.5042 6588845.3247 22.7300
v  542105.5045 6588845.3288 23.2797
v  542105.608 6588847.0679 22.7306
v  542105.608 6588847.0672 23.2797
v  542105.6919 6588848.4766 22.7486
v  542105.6919 6588848.4766 23.2797
v  542105.7765 6588849.897 22.7486
v  542105.7765 6588849.897 23.2797
v  542104.621 6588830.493 34.8963
v  542104.7319 6588832.3544 34.8963
v  542104.7327 6588832.3675 35.3371
v  542104.621 6588830.493 35.3371
v  542104.8039 6588833.5638 34.8963
v  542104.8031 6588833.5501 35.3371
v  542104.9148 6588835.4261 34.8963
v  542104.9137 6588835.408 35.3371
v  542104.9902 6588836.6924 34.8963
v  542104.9902 6588836.6924 35.3371
v  542105.0511 6588837.7153 34.8963
v  542105.0511 6588837.7153 35.3371
v  542105.1191 6588838.8568 34.8963
v  542105.1173 6588838.8262 35.3371
v  542105.1849 6588839.9613 34.8963
v  542105.1814 6588839.9026 35.3371
v  542105.2547 6588841.1345 34.8963
v  542105.2525 6588841.0976 35.3371
v  542105.3057 6588841.9907 34.8963
v  542105.3062 6588841.9998 35.3371
v  542105.3754 6588843.1605 34.8963
v  542105.3734 6588843.127 35.3371
v  542105.4258 6588844.008 34.8963
v  542105.4258 6588844.008 35.3371
v  542105.4977 6588845.2143 34.8963
v  542105.4942 6588845.1566 35.3371
v  542105.6139 6588847.1664 34.8963
v  542105.6139 6588847.1664 35.3371
v  542105.681 6588848.2935 34.8963
v  542105.6795 6588848.267 35.3371
v  542105.7765 6588849.897 34.8963
v  542105.7765 6588849.897 35.3371
v  542104.621 6588830.493 33.2978
v  542104.7319 6588832.3544 33.2978
v  542104.5423 6588832.3657 33.2978
v  542104.6143 6588833.5751 33.2978
v  542104.6143 6588833.5751 34.8963
v  542104.5423 6588832.3657 34.8963
v  542104.8039 6588833.5638 33.2978
v  542104.9148 6588835.4261 33.2978
v  542104.7252 6588835.4374 33.2978
v  542104.8006 6588836.7037 33.2978
v  542104.8006 6588836.7037 34.8963
v  542104.7252 6588835.4374 34.8963
v  542104.9902 6588836.6924 33.2978
v  542105.0511 6588837.7153 33.2978
v  542104.8615 6588837.7266 33.2978
v  542104.9295 6588838.8681 33.2978
v  542104.9295 6588838.8681 34.8963
v  542104.8615 6588837.7266 34.8963
v  542105.1191 6588838.8568 33.2978
v  542105.1849 6588839.9613 33.2978
v  542104.9953 6588839.9726 33.2978
v  542105.0652 6588841.1458 33.2978
v  542105.0652 6588841.1458 34.8963
v  542104.9953 6588839.9726 34.8963
v  542105.2547 6588841.1345 33.2978
v  542105.3057 6588841.9907 33.2978
v  542105.1161 6588842.002 33.2978
v  542105.1858 6588843.1718 33.2978
v  542105.1858 6588843.1718 34.8963
v  542105.1161 6588842.002 34.8963
v  542105.3754 6588843.1605 33.2978
v  542105.4258 6588844.008 33.2978
v  542105.2363 6588844.0193 33.2978
v  542105.3081 6588845.2256 33.2978
v  542105.3081 6588845.2256 34.8963
v  542105.2363 6588844.0193 34.8963
v  542105.4977 6588845.2143 33.2978
v  542105.6139 6588847.1664 33.2978
v  542105.4243 6588847.1777 33.2978
v  542105.4915 6588848.3048 33.2978
v  542105.4915 6588848.3048 34.8963
v  542105.4243 6588847.1777 34.8963
v  542105.681 6588848.2935 33.2978
v  542105.7765 6588849.897 33.3117
v  542104.621 6588830.493 31.6494
v  542104.7242 6588832.225 31.6494
v  542104.8093 6588833.6551 31.6494
v  542104.9124 6588835.3853 31.6494
v  542104.9944 6588836.7632 31.6494
v  542105.0511 6588837.7153 31.6494
v  542105.1173 6588838.8262 31.6494
v  542105.1785 6588839.8544 31.6494
v  542105.2607 6588841.2346 31.6494
v  542105.3062 6588841.9998 31.6494
v  542105.3734 6588843.127 31.6494
v  542105.4247 6588843.9897 31.6494
v  542105.5027 6588845.2996 31.6494
v  542105.6055 6588847.0256 31.6494
v  542105.6882 6588848.414 31.6494
v  542105.7765 6588849.897 31.6494
v  542104.621 6588830.493 29.4286
v  542104.7242 6588832.225 29.4286
v  542104.5346 6588832.2363 29.4286
v  542104.6198 6588833.6664 29.4286
v  542104.6198 6588833.6664 31.6494
v  542104.5346 6588832.2363 31.6494
v  542104.8093 6588833.6551 29.4286
v  542104.9124 6588835.3853 29.4286
v  542104.7228 6588835.3966 29.4286
v  542104.8048 6588836.7745 29.4286
v  542104.8048 6588836.7745 31.6494
v  542104.7228 6588835.3966 31.6494
v  542104.9944 6588836.7632 29.4286
v  542105.0511 6588837.7153 29.4286
v  542105.1172 6588838.8262 29.4286
v  542105.1785 6588839.8544 29.4286
v  542104.9889 6588839.8657 29.4286
v  542105.0711 6588841.2459 29.4286
v  542105.0711 6588841.2459 31.6494
v  542104.9889 6588839.8657 31.6494
v  542105.2607 6588841.2346 29.4286
v  542105.3062 6588841.9998 29.4286
v  542105.3734 6588843.127 29.4286
v  542105.4247 6588843.9897 29.4286
v  542105.2352 6588844.001 29.4286
v  542105.3132 6588845.3109 29.4286
v  542105.3132 6588845.3109 31.6494
v  542105.2352 6588844.001 31.6494
v  542105.5027 6588845.2996 29.4286
v  542105.6055 6588847.0256 29.4286
v  542105.416 6588847.0368 29.4286
v  542105.4986 6588848.4253 29.4286
v  542105.4986 6588848.4253 31.6494
v  542105.416 6588847.0368 31.6494
v  542105.6882 6588848.414 29.4286
v  542105.7765 6588849.897 29.4286
v  542104.621 6588830.493 28.0781
v  542104.7172 6588832.1083 28.0781
v  542104.8144 6588833.7404 28.0781
v  542104.8494 6588834.3287 28.0781
v  542104.9993 6588836.8453 28.0781
v  542105.1311 6588839.0596 28.0781
v  542105.1814 6588839.9026 28.0781
v  542105.2658 6588841.3204 28.0781
v  542105.3062 6588841.9998 28.0781
v  542105.3734 6588843.127 28.0781
v  542105.4215 6588843.9354 28.0781
v  542105.506 6588845.3537 28.0781
v  542105.608 6588847.0672 28.0781
v  542105.6919 6588848.4766 28.0781
v  542105.7765 6588849.897 28.0781
v  542104.621 6588830.493 26.7114
v  542104.7172 6588832.1083 26.7033
v  542104.4956 6588832.1215 26.6297
v  542104.5945 6588833.7535 26.6802
v  542104.555 6588833.7559 28.0781
v  542104.4578 6588832.1238 28.0781
v  542104.8144 6588833.7404 26.7033
v  542104.8494 6588834.3287 26.7033
v  542104.6973 6588834.3377 26.6308
v  542104.8487 6588836.8542 26.6829
v  542104.7992 6588836.8572 28.0781
v  542104.6493 6588834.3406 28.0781
v  542104.9993 6588836.8453 26.7033
v  542105.0353 6588837.4504 26.7033
v  542105.0353 6588837.4504 28.0781
v  542104.9025 6588837.4583 26.6316
v  542105.0002 6588839.0674 26.6833
v  542104.9507 6588839.0703 28.0781
v  542104.8549 6588837.4611 28.0781
v  542105.1311 6588839.0596 26.7033
v  542105.1813 6588839.9026 25.8744
v  542104.9918 6588839.9139 25.8744
v  542105.0762 6588841.3316 25.8744
v  542105.0762 6588841.3316 28.0781
v  542104.9918 6588839.9139 28.0781
v  542105.2658 6588841.3204 25.8744
v  542105.3062 6588841.9998 25.8744
v  542105.3734 6588843.127 25.8744
v  542105.4215 6588843.9354 25.8744
v  542105.2319 6588843.9467 25.8744
v  542105.3164 6588845.3649 25.8744
v  542105.3164 6588845.3649 28.0781
v  542105.2319 6588843.9467 28.0781
v  542105.506 6588845.3537 25.8744
v  542105.608 6588847.0672 25.8744
v  542105.4184 6588847.0785 25.8744
v  542105.5023 6588848.4879 25.8744
v  542105.5023 6588848.4879 28.0781
v  542105.4184 6588847.0785 28.0781
v  542105.6919 6588848.4766 25.8744
v  542105.7765 6588849.897 25.8744
v  542104.621 6588830.493 25.2397
v  542104.7172 6588832.1083 25.5344
v  542104.4478 6588832.1244 25.5344
v  542104.545 6588833.7565 25.5344
v  542104.6198 6588833.752 26.5663
v  542104.5226 6588832.1199 26.5095
v  542104.8144 6588833.7404 25.5344
v  542104.8494 6588834.3287 25.5840
v  542104.7067 6588834.3372 25.5324
v  542104.8566 6588836.8538 25.5324
v  542104.8441 6588836.8545 26.5664
v  542104.6942 6588834.3379 26.5095
v  542104.9993 6588836.8453 25.5840
v  542105.0353 6588837.4504 25.6455
v  542104.9123 6588837.4577 25.5939
v  542105.0081 6588839.0669 25.5939
v  542104.9956 6588839.0677 26.5663
v  542104.8998 6588837.4585 26.5095
v  542105.1311 6588839.0596 25.6455
v  542105.1813 6588839.9026 24.4027
v  542105.2658 6588841.3204 24.4027
v  542105.3062 6588841.9998 24.4027
v  542105.3734 6588843.127 24.4027
v  542105.4202 6588843.9141 24.4027
v  542105.5045 6588845.3288 24.4027
v  542105.608 6588847.0672 24.4027
v  542105.6919 6588848.4766 24.4027
v  542105.7765 6588849.897 24.4027
v  542104.7172 6588832.1083 23.6026
v  542104.4478 6588832.1244 23.6026
v  542104.545 6588833.7565 23.6026
v  542104.8144 6588833.7404 23.6026
v  542104.6494 6588836.8661 25.4485
v  542104.4996 6588834.3495 25.4485
v  542105.0353 6588837.4504 22.9556
v  542105.0353 6588837.4504 23.3031
v  542104.9993 6588836.8453 23.2967
v  542104.6853 6588837.4712 22.9479
v  542104.7811 6588839.0804 22.9478
v  542104.7811 6588839.0804 23.2901
v  542104.6853 6588837.4712 23.2991
v  542105.1311 6588839.0596 23.2844
v  542105.1311 6588839.0596 22.9556
v  542104.9918 6588839.9139 23.2797
v  542105.0762 6588841.3316 23.2797
v  542105.0762 6588841.3316 24.4027
v  542104.9918 6588839.9139 24.4027
v  542105.2307 6588843.9254 23.2797
v  542105.3149 6588845.3401 23.2797
v  542105.3149 6588845.3401 24.4027
v  542105.2307 6588843.9254 24.4027
v  542105.4184 6588847.0785 23.2797
v  542105.5023 6588848.4879 23.2797
v  542105.5023 6588848.4879 24.4027
v  542105.4184 6588847.0785 24.4027
v  542105.1342 6588839.1111 22.8420
v  542105.437 6588839.1496 22.6280
v  542104.9987 6588836.8363 22.6072
v  542105.026 6588837.2944 22.6175
v  542105.026 6588837.2944 22.8340
v  542104.8546 6588837.4612 22.8976
v  542104.9511 6588839.071 22.9013
v  542104.5586 6588832.1173 26.6438
v  542104.5857 6588832.1157 26.5236
v  542104.6829 6588833.7477 26.5805
v  542104.6575 6588833.7493 26.6944
v  542104.7637 6588834.3338 26.6287
v  542104.7606 6588834.334 26.5073
v  542104.9105 6588836.8506 26.5642
v  542104.9151 6588836.8503 26.6807
v  542104.9689 6588837.4544 26.6296
v  542104.9662 6588837.4545 26.5075
v  542105.0621 6588839.0638 26.5643
v  542105.0666 6588839.0635 26.6813
v  542104.6852 6588837.4712 25.5100
v  542104.781 6588839.0804 25.5100
v  542105.0353 6588837.4504 22.8353
v  542105.1376 6588839.1674 22.6280
v  542105.8664 6588849.8916 35.4647
v  542105.7693 6588848.2616 35.4647
v  542105.7693 6588848.2616 35.3371
v  542105.8664 6588849.8916 35.3371
v  542104.8225 6588832.3621 35.4647
v  542104.7109 6588830.4876 35.4647
v  542104.7109 6588830.4876 35.3371
v  542104.8225 6588832.3621 35.3371
v  542104.8929 6588833.5447 35.4647
v  542104.8929 6588833.5447 35.3371
v  542105.0036 6588835.4026 35.4647
v  542105.0036 6588835.4026 35.3371
v  542105.08 6588836.687 35.4647
v  542105.08 6588836.687 35.3371
v  542105.141 6588837.7099 35.4647
v  542105.141 6588837.7099 35.3371
v  542105.2071 6588838.8209 35.4647
v  542105.2071 6588838.8209 35.3371
v  542105.2712 6588839.8973 35.4647
v  542105.2712 6588839.8973 35.3371
v  542105.3424 6588841.0922 35.4647
v  542105.3424 6588841.0922 35.3371
v  542105.3961 6588841.9944 35.4647
v  542105.3961 6588841.9944 35.3371
v  542105.4632 6588843.1216 35.4647
v  542105.4632 6588843.1216 35.3371
v  542105.5157 6588844.0027 35.4647
v  542105.5157 6588844.0027 35.3371
v  542105.5841 6588845.1512 35.4647
v  542105.5841 6588845.1512 35.3371
v  542105.7038 6588847.161 35.4647
v  542105.7038 6588847.161 35.3371
v  542105.8083 6588849.9028 35.6960
v  542105.7113 6588848.2728 35.6960
v  542105.6795 6588848.267 35.4647
v  542105.7765 6588849.897 35.4647
v  542104.7645 6588832.3733 35.6960
v  542104.6528 6588830.4988 35.6960
v  542104.621 6588830.493 35.4647
v  542104.7327 6588832.3675 35.4647
v  542104.8349 6588833.5559 35.6960
v  542104.8031 6588833.5501 35.4647
v  542104.9455 6588835.4138 35.6960
v  542104.9137 6588835.408 35.4647
v  542105.022 6588836.6982 35.6960
v  542104.9902 6588836.6924 35.4647
v  542105.0829 6588837.7211 35.6960
v  542105.0511 6588837.7153 35.4647
v  542105.1491 6588838.832 35.6960
v  542105.1173 6588838.8262 35.4647
v  542105.2132 6588839.9084 35.6960
v  542105.1814 6588839.9026 35.4647
v  542105.2843 6588841.1034 35.6960
v  542105.2525 6588841.0976 35.4647
v  542105.3381 6588842.0056 35.6960
v  542105.3062 6588841.9998 35.4647
v  542105.4052 6588843.1328 35.6960
v  542105.3734 6588843.127 35.4647
v  542105.4576 6588844.0138 35.6960
v  542105.4258 6588844.008 35.4647
v  542105.526 6588845.1624 35.6960
v  542105.4942 6588845.1566 35.4647
v  542105.6457 6588847.1722 35.6960
v  542105.6139 6588847.1664 35.4647
v  542105.9669 6588849.8975 35.9646
v  542105.8698 6588848.2674 35.9646
v  542105.8698 6588848.2674 35.8205
v  542105.9669 6588849.8975 35.8205
v  542104.923 6588832.368 35.9646
v  542104.8114 6588830.4935 35.9646
v  542104.8114 6588830.4935 35.8205
v  542104.923 6588832.368 35.8205
v  542104.9934 6588833.5505 35.9646
v  542104.9934 6588833.5505 35.8205
v  542105.1041 6588835.4084 35.9646
v  542105.1041 6588835.4084 35.8205
v  542105.1806 6588836.6928 35.9646
v  542105.1806 6588836.6928 35.8205
v  542105.2415 6588837.7158 35.9646
v  542105.2415 6588837.7158 35.8205
v  542105.3076 6588838.8267 35.9646
v  542105.3076 6588838.8267 35.8205
v  542105.3717 6588839.9031 35.9646
v  542105.3717 6588839.9031 35.8205
v  542105.4136 6588840.6068 35.9646
v  542105.4136 6588840.6068 35.8205
v  542105.4966 6588842.0003 35.9646
v  542105.4966 6588842.0003 35.8205
v  542105.5637 6588843.1275 35.9646
v  542105.5637 6588843.1275 35.8205
v  542105.6162 6588844.0085 35.9646
v  542105.6162 6588844.0085 35.8205
v  542105.6846 6588845.157 35.9646
v  542105.6846 6588845.157 35.8205
v  542105.8043 6588847.1669 35.9646
v  542105.8043 6588847.1669 35.8205
v  542106.1113 6588849.8803 36.0268
v  542106.0143 6588848.2503 36.0268
v  542105.0675 6588832.3508 36.0268
v  542104.9559 6588830.4763 36.0268
v  542105.1379 6588833.5334 36.0268
v  542105.2485 6588835.3913 36.0268
v  542105.325 6588836.6757 36.0268
v  542105.3859 6588837.6986 36.0268
v  542105.4521 6588838.8095 36.0268
v  542105.5162 6588839.8859 36.0268
v  542105.5557 6588840.55 36.0268
v  542105.6411 6588841.9831 36.0268
v  542105.7082 6588843.1103 36.0268
v  542105.7607 6588843.9913 36.0268
v  542105.8291 6588845.1399 36.0268
v  542105.9487 6588847.1497 36.0268
v  542106.1841 6588849.8719 36.2068
v  542106.087 6588848.2419 36.2068
v  542105.1402 6588832.3424 36.2068
v  542105.0286 6588830.4679 36.2068
v  542105.2106 6588833.525 36.2068
v  542105.3213 6588835.3829 36.2068
v  542105.3978 6588836.6673 36.2068
v  542105.4587 6588837.6902 36.2068
v  542105.5248 6588838.8011 36.2068
v  542105.5889 6588839.8775 36.2068
v  542105.6284 6588840.5415 36.2068
v  542105.7138 6588841.9747 36.2068
v  542105.7809 6588843.1019 36.2068
v  542105.8334 6588843.9829 36.2068
v  542105.9018 6588845.1315 36.2068
v  542106.0215 6588847.1413 36.2068
v  542106.2979 6588849.8649 36.1953
v  542106.2595 6588849.2681 36.1880
v  542105.1649 6588831.046 36.2042
v  542105.1424 6588830.4609 36.1953
v  542105.3863 6588833.9572 36.1971
v  542105.4356 6588835.3759 36.1966
v  542105.492 6588836.3263 36.1960
v  542105.5238 6588836.8624 36.1957
v  542105.5515 6588837.3302 36.1954
v  542105.5907 6588837.9901 36.1950
v  542105.7556 6588840.5415 36.2068
v  542105.6669 6588839.2761 36.1942
v  542105.8642 6588842.6023 36.1922
v  542105.8091 6588841.6734 36.1927
v  542105.8934 6588843.095 36.1919
v  542105.9457 6588843.976 36.1913
v  542106.0138 6588845.5124 36.1906
v  542106.133 6588847.1344 36.1894
v  542105.8047 6588849.3128 36.3660
v  542105.8593 6588849.9069 36.3660
v  542104.5841 6588830.5458 36.4140
v  542104.6311 6588831.1274 36.4138
v  542103.3466 6588833.9901 37.3938
v  542103.369 6588833.8349 36.9962
v  542103.4479 6588834.4396 36.9605
v  542103.3444 6588834.4577 37.6353
v  542099.1732 6588836.3288 38.6547
v  542099.1232 6588834.9101 38.6558
v  542101.0148 6588834.5975 37.9132
v  542103.4343 6588835.0699 36.9776
v  542099.2296 6588837.2792 38.6541
v  542099.2614 6588837.8152 38.6538
v  542099.2891 6588838.2831 38.6535
v  542105.1816 6588838.0523 36.3556
v  542104.4745 6588838.1599 36.6331
v  542099.3283 6588838.943 38.6531
v  542104.5741 6588839.3847 37.0564
v  542104.4999 6588838.1583 37.0670
v  542105.2069 6588838.0509 36.7894
v  542105.2253 6588838.5597 36.7937
v  542105.4266 6588842.1618 36.7963
v  542104.7686 6588841.7259 37.0340
v  542105.3539 6588841.751 36.8073
v  542099.631 6588844.0479 38.6500
v  542099.6018 6588843.5552 38.6503
v  542104.854 6588842.756 36.5887
v  542105.4778 6588842.6611 36.3438
v  542099.6833 6588844.9289 38.6494
v  542104.1646 6588845.4909 37.3717
v  542104.1579 6588845.2873 36.9164
v  542104.2017 6588845.9178 36.8801
v  542104.1692 6588845.8693 37.6686
v  542099.8838 6588848.0985 38.6384
v  542099.7514 6588846.4653 38.6487
v  542101.9819 6588846.1259 37.7732
v  542104.2473 6588846.5523 36.9044
v  542099.933 6588849.6472 38.6616
v  542096.5006 6588850.2798 39.0636
v  542099.9907 6588849.7869 39.4294
v  542100.0191 6588850.4699 39.4294
v  542096.5555 6588850.8384 39.0586
v  542088.7471 6588833.5919 36.2233
v  542088.6813 6588833.1064 36.3169
v  542098.8597 6588831.42 39.2135
v  542098.8997 6588832.0036 39.0578
v  542097.1129 6588832.5894 39.6280
v  542097.6526 6588832.5478 39.6294
v  542097.8254 6588834.3352 39.6292
v  542097.269 6588834.3601 39.6277
v  542092.8271 6588837.1498 35.7807
v  542092.6123 6588835.9581 35.7807
v  542093.0152 6588838.4227 35.7807
v  542093.1651 6588839.4364 35.7807
v  542093.2737 6588840.1716 35.7807
v  542093.3412 6588840.6282 35.7807
v  542099.3119 6588840.1011 40.0420
v  542098.2812 6588840.1011 40.0389
v  542098.2812 6588839.4952 40.0390
v  542099.2731 6588839.4474 40.0420
v  542089.0327 6588836.5797 35.7022
v  542088.761 6588833.5714 35.6906
v  542092.0175 6588833.0664 36.7059
v  542096.867 6588832.2977 37.8572
v  542096.19 6588843.3616 36.9979
v  542095.1276 6588842.0402 36.5473
v  542099.4624 6588841.2039 38.6517
v  542097.0068 6588844.3903 37.3485
v  542097.6402 6588845.196 37.6237
v  542098.4591 6588846.2491 37.9820
v  542096.4909 6588850.135 38.9950
v  542080.8051 6588844.4331 36.6640
v  542080.8014 6588844.3723 35.8975
v  542093.5445 6588842.2473 35.7807
v  542079.7107 6588849.3819 38.1340
v  542080.0235 6588848.1397 37.7665
v  542105.831 6588849.3143 36.9025
v  542105.8831 6588849.9085 36.8959
v  542099.9953 6588850.4683 38.6493
v  542096.5604 6588850.9598 38.4488
v  542104.5654 6588830.5519 36.9922
v  542104.6095 6588831.1336 36.9846
v  542098.8784 6588831.4139 38.6493
v  542098.8827 6588832.0045 38.6780
v  542088.7 6588833.1003 35.6906
v  542092.8624 6588837.1445 23.6428
v  542092.6317 6588835.7498 23.6428
v  542092.6325 6588835.7504 35.7807
v  542093.0506 6588838.4175 23.6428
v  542093.2004 6588839.4312 23.6428
v  542093.3631 6588840.5321 23.6428
v  542093.5208 6588841.5988 23.6428
v  542093.647 6588842.5581 23.6428
v  542093.6467 6588842.5585 35.7807
v  542080.824 6588844.6595 35.8979
v  542071.6953 6588846.2398 35.9815
v  542071.6953 6588846.2398 23.8435
v  542089.0101 6588833.5657 35.6906
v  542088.9469 6588833.0771 35.6906
v  542089.1914 6588836.2682 35.7022
v  542099.9953 6588850.4683 37.9659
v  542096.5604 6588850.9598 37.7654
v  542099.9953 6588850.4683 23.0993
v  542096.5604 6588850.9598 23.0965
v  542080.2572 6588847.1889 37.4850
v  542079.1576 6588851.8167 38.8566
v  542080.2787 6588853.4846 37.8945
v  542079.5571 6588853.5965 38.5837
v  542077.8109 6588853.8673 23.0986
v  542077.8109 6588853.8673 37.9141
v  542089.1919 6588836.2686 29.1953
v  542089.0207 6588833.7229 29.8669
v  542089.0205 6588833.72 31.0324
v  542089.921 6588836.1588 23.9461
v  542089.1924 6588836.269 23.5643
v  542089.1923 6588836.269 23.9461
v  542089.444 6588832.9951 30.9993
v  542088.9469 6588833.0771 30.9996
v  542089.0101 6588833.5657 31.0246
v  542088.9469 6588833.0771 23.9461
v  542089.444 6588832.9951 23.9461
v  542089.921 6588836.1587 29.1953
v  542088.9469 6588833.0771 23.5527
v  542080.5187 6588845.98 37.1256
v  542078.891 6588852.8234 39.1539
v  542069.6686 6588855.5426 36.7378
v  542073.0809 6588855.383 39.3096
v  542079.6706 6588854.691 38.5408
v  542081.5933 6588854.3876 36.7391
v  542081.5769 6588854.002 23.9502
v  542069.643 6588855.1577 23.9489
v  542068.4579 6588836.3768 36.7474
v  542068.4324 6588836.2161 23.9468
v  542071.7031 6588835.97 39.6759
v  542074.861 6588838.2798 42.1956
v  542075.6392 6588850.9622 42.0581
v  542080.0312 6588834.3709 23.9461
v  542080.0269 6588834.5339 36.7467
v  542076.9539 6588835.1622 39.8957
v  542080.2324 6588837.4618 38.7180
v  542078.6874 6588837.6665 38.7590
v  542078.6569 6588836.8251 39.5116
v  542080.1854 6588836.6145 39.4709
v  542080.1234 6588835.7637 36.7509
v  542080.2556 6588837.4552 36.7510
v  542080.1362 6588835.7674 38.6924
v  542078.6836 6588837.6621 38.3057
v  542078.6227 6588835.9792 38.2805
v  542078.6264 6588835.9836 38.7328
v  542078.7104 6588840.4096 38.4934
v  542079.4849 6588840.2693 37.7152
v  542079.5463 6588841.2325 37.7249
v  542078.745 6588841.3751 38.5249
v  542078.1364 6588847.0096 39.4858
v  542077.5424 6588847.0483 40.0547
v  542077.7008 6588849.6546 41.9599
v  542077.5101 6588847.0198 41.9604
v  542078.1041 6588846.9798 41.9499
v  542078.2819 6588849.6016 41.9497
v  542078.3172 6588849.6312 39.4745
v  542077.7361 6588849.6828 40.0249
v  542080.8224 6588844.6573 36.7459
v  542080.3866 6588846.6327 37.3202
v  542080.8284 6588844.7081 35.4810
v  542080.8442 6588844.7054 23.9483
v  542081.5198 6588853.2922 24.8309
v  542081.5209 6588853.292 23.9501
v  542081.5067 6588853.2942 36.6920
v  542081.4409 6588853.3044 36.8046
v  542090.0433 6588836.9698 28.9786
v  542081.495 6588838.2586 28.9786
v  542080.9936 6588834.9331 29.8669
v  542089.402 6588832.7161 29.8193
v  542080.8813 6588834.1882 29.8193
v  542080.8537 6588834.0049 23.9461
v  542089.402 6588832.7161 23.9461
v  542089.444 6588832.9951 29.8336
v  542090.0433 6588836.9698 23.9461
v  542081.495 6588838.2586 23.9461
v  542081.0129 6588835.0611 23.9461
v  542089.4016 6588832.7133 30.9848
v  542080.8532 6588834.0021 30.9848
v  542080.9932 6588834.9303 31.0324
v  542105.0422 6588837.5659 28.6669
v  542105.0348 6588837.4412 28.6917
v  542105.0307 6588837.3727 28.7052
v  542105.0281 6588837.3286 28.7212
v  542105.0242 6588837.264 28.7444
v  542105.0198 6588837.1892 28.7714
v  542105.0114 6588837.0483 28.8675
v  542105.0035 6588836.9164 29.0314
v  542105.0172 6588837.1462 29.1656
v  542105.0247 6588837.2722 29.0189
v  542105.0346 6588837.4377 28.9304
v  542105.0449 6588837.6117 28.9004
v  542105.0134 6588837.0828 29.3293
v  542104.9995 6588836.8489 29.2345
v  542105.0539 6588837.763 28.8938
v  542105.047 6588837.6468 28.6516
v  542105.0553 6588837.7859 28.6596
v  542105.0637 6588837.9274 28.7476
v  542105.063 6588837.9159 28.9001
v  542101.6374 6588840.8351 37.8592
v  542104.8055 6588842.2615 36.5987
v  542105.2453 6588839.2871 36.7942
v  542105.3355 6588841.4814 37.1533
v  542104.7171 6588841.3786 37.2669
v  542105.1808 6588839.5335 37.1093
v  542104.5605 6588839.7401 37.2379
v  542105.2784 6588840.505 37.7863
v  542105.3137 6588841.2219 37.4150
v  542104.7012 6588841.1533 37.4924
v  542104.645 6588840.5598 37.7999
v  542104.59 6588839.9819 37.5103
v  542105.2038 6588839.8051 37.4328
v  542099.3948 6588840.0642 38.6524
v  542099.356 6588839.4105 38.6528
v  542104.5234 6588838.9027 36.6320
v  542104.8794 6588842.7548 37.0225
v  542105.5032 6588842.6596 36.7777
v  542105.1998 6588838.5612 36.3599
v  542105.2269 6588839.3196 36.3664
v  542105.3322 6588841.7207 36.3794
v  542105.4007 6588842.1633 36.3626
v  542105.2249 6588840.7546 37.0966
v  542105.2091 6588840.5089 37.2073
v  542105.1969 6588840.2882 37.1041
v  542105.1926 6588840.1732 36.8490
v  542105.2024 6588840.3086 36.6678
v  542105.2271 6588840.7209 36.6717
v  542105.2344 6588840.8746 36.8636
v  542104.7181 6588841.3242 37.2228
v  542104.6985 6588841.113 37.4352
v  542104.6434 6588840.5596 37.7299
v  542104.5947 6588840.0231 37.4540
v  542104.5698 6588839.7944 37.1947
v  542105.2108 6588839.7749 37.0763
v  542105.2146 6588839.9303 37.2950
v  542105.2769 6588840.5049 37.5825
v  542105.3068 6588841.0987 37.2753
v  542105.3217 6588841.2409 37.1166
v  542105.1465 6588839.3235 36.3631
v  542105.1683 6588839.8028 37.0570
v  542105.2899 6588841.7223 36.3804
v  542105.2549 6588841.2598 37.1276
v  542105.2438 6588841.099 37.2698
v  542105.2055 6588840.5103 37.5858
v  542105.1742 6588839.9384 37.2897
v  542104.2066 6588846.3204 37.3754
v  542103.3908 6588834.8949 37.4224
v  542105.2385 6588832.3495 36.2110
v  542097.6599 6588832.4659 38.1640
v  542097.1195 6588832.4986 37.9439
v  542097.8564 6588834.2508 38.1328
v  542097.2997 6588834.2672 37.8953
v  542098.364 6588839.4582 38.1835
v  542098.364 6588840.0641 38.1662
v  542105.2005 6588840.2608 36.5709
v  542105.186 6588840.0621 36.8368
v  542105.2308 6588840.7674 36.5756
v  542105.2413 6588840.9888 36.8521
v  542105.2284 6588840.8248 37.1708
v  542105.208 6588840.5082 37.3134
v  542105.1918 6588840.2152 37.1763
# 709 vertices

vt 0.1421 0.0394 -0.3740
vt 0.1421 0.0005 -0.3740
vt 0.1883 0.0014 -0.3789
vt 0.1883 0.0407 -0.3789
vt 0.2348 0.0040 -0.3838
vt 0.2349 0.0419 -0.3838
vt 0.2518 0.0052 -0.3855
vt 0.2518 0.0423 -0.3855
vt 0.0005 0.2524 0.9995
vt 0.0005 0.0005 0.9995
vt 0.9959 0.0153 0.0041
vt 0.9995 0.2524 0.0005
vt 0.3406 0.0081 -0.4101
vt 0.3406 0.0188 -0.4101
vt 0.3362 0.0189 -0.4097
vt 0.3362 0.0079 -0.4097
vt 0.3868 0.0084 -0.4150
vt 0.3882 0.0192 -0.4151
vt 0.4113 0.0414 -0.4024
vt 0.4113 0.0088 -0.4024
vt 0.4521 0.0109 -0.4067
vt 0.4519 0.0414 -0.4066
vt 0.4713 0.0111 -0.4087
vt 0.4713 0.0414 -0.4087
vt 0.5036 0.0120 -0.4121
vt 0.5036 0.0414 -0.4121
vt 0.5260 0.0120 -0.4144
vt 0.5261 0.0414 -0.4145
vt 0.5665 0.0136 -0.4187
vt 0.5666 0.0414 -0.4187
vt 0.6164 0.0136 -0.4240
vt 0.6163 0.0414 -0.4240
vt 0.6567 0.0145 -0.4282
vt 0.6567 0.0414 -0.4282
vt 0.6973 0.0145 -0.4325
vt 0.6973 0.0414 -0.4325
vt 0.1421 0.6298 -0.3740
vt 0.1953 0.6298 -0.3796
vt 0.1957 0.6521 -0.3796
vt 0.1421 0.6521 -0.3740
vt 0.2299 0.6298 -0.3832
vt 0.2295 0.6521 -0.3832
vt 0.2832 0.6298 -0.3889
vt 0.2827 0.6521 -0.3888
vt 0.3195 0.6298 -0.3927
vt 0.3195 0.6521 -0.3927
vt 0.3487 0.6298 -0.3958
vt 0.3487 0.6521 -0.3958
vt 0.3814 0.6298 -0.3992
vt 0.3805 0.6521 -0.3991
vt 0.4130 0.6298 -0.4025
vt 0.4113 0.6521 -0.4024
vt 0.4466 0.6298 -0.4061
vt 0.4455 0.6521 -0.4060
vt 0.4711 0.6298 -0.4087
vt 0.4713 0.6521 -0.4087
vt 0.5045 0.6298 -0.4122
vt 0.5036 0.6521 -0.4121
vt 0.5288 0.6298 -0.4147
vt 0.5288 0.6521 -0.4147
vt 0.5633 0.6298 -0.4184
vt 0.5617 0.6521 -0.4182
vt 0.6192 0.6298 -0.4243
vt 0.6192 0.6521 -0.4243
vt 0.6514 0.6298 -0.4277
vt 0.6507 0.6521 -0.4276
vt 0.6973 0.6298 -0.4325
vt 0.6973 0.6521 -0.4325
vt 0.1421 0.5488 -0.3740
vt 0.1953 0.5488 -0.3796
vt 0.9995 0.0005 0.9995
vt 0.0005 0.0005 0.0006
vt 0.0005 0.9995 0.0005
vt 0.9995 0.9995 0.9994
vt 0.2299 0.5488 -0.3832
vt 0.2832 0.5488 -0.3889
vt 0.3195 0.5488 -0.3927
vt 0.3487 0.5488 -0.3958
vt 0.3814 0.5488 -0.3992
vt 0.4130 0.5488 -0.4025
vt 0.4466 0.5488 -0.4061
vt 0.4711 0.5488 -0.4087
vt 0.5045 0.5488 -0.4122
vt 0.5288 0.5488 -0.4147
vt 0.5633 0.5488 -0.4184
vt 0.6192 0.5488 -0.4243
vt 0.6514 0.5488 -0.4277
vt 0.6973 0.5495 -0.4325
vt 0.1421 0.4654 -0.3740
vt 0.1916 0.4654 -0.3792
vt 0.2326 0.4654 -0.3835
vt 0.2821 0.4654 -0.3887
vt 0.3215 0.4654 -0.3929
vt 0.3487 0.4654 -0.3958
vt 0.3805 0.4654 -0.3991
vt 0.4099 0.4654 -0.4022
vt 0.4494 0.4654 -0.4064
vt 0.4713 0.4654 -0.4087
vt 0.5036 0.4654 -0.4121
vt 0.5283 0.4654 -0.4147
vt 0.5657 0.4654 -0.4186
vt 0.6151 0.4654 -0.4238
vt 0.6549 0.4654 -0.4280
vt 0.6973 0.4654 -0.4325
vt 0.1421 0.3529 -0.3740
vt 0.1916 0.3529 -0.3792
vt 0.2326 0.3529 -0.3835
vt 0.2821 0.3529 -0.3887
vt 0.3215 0.3529 -0.3929
vt 0.3487 0.3529 -0.3958
vt 0.3805 0.3529 -0.3991
vt 0.4099 0.3529 -0.4022
vt 0.4494 0.3529 -0.4064
vt 0.4713 0.3529 -0.4087
vt 0.5036 0.3529 -0.4121
vt 0.5283 0.3529 -0.4147
vt 0.5657 0.3529 -0.4186
vt 0.6151 0.3529 -0.4238
vt 0.6549 0.3529 -0.4280
vt 0.6973 0.3529 -0.4325
vt 0.1421 0.2845 -0.3740
vt 0.1883 0.2845 -0.3789
vt 0.2350 0.2845 -0.3838
vt 0.2518 0.2845 -0.3855
vt 0.3238 0.2845 -0.3931
vt 0.3872 0.2845 -0.3998
vt 0.4113 0.2845 -0.4024
vt 0.4519 0.2845 -0.4066
vt 0.4713 0.2845 -0.4087
vt 0.5036 0.2845 -0.4121
vt 0.5267 0.2845 -0.4145
vt 0.5673 0.2845 -0.4188
vt 0.6163 0.2845 -0.4240
vt 0.6567 0.2845 -0.4282
vt 0.6973 0.2845 -0.4325
vt 0.1421 0.2153 -0.3740
vt 0.1883 0.2148 -0.3789
vt 0.0005 0.0005 0.7234
vt 0.9981 0.0354 0.0005
vt 0.9995 0.9995 0.2894
vt 0.0019 0.9995 0.9995
vt 0.2350 0.2148 -0.3838
vt 0.2518 0.2148 -0.3855
vt 0.9995 0.0005 0.7592
vt 0.0017 0.0364 0.0005
vt 0.0005 0.9995 0.2487
vt 0.9984 0.9995 0.9995
vt 0.3238 0.2148 -0.3931
vt 0.3412 0.2148 -0.3950
vt 0.3412 0.2845 -0.3950
vt 0.0005 0.0005 0.6723
vt 0.9977 0.0362 0.0005
vt 0.9995 0.9995 0.3406
vt 0.0023 0.9995 0.9995
vt 0.3872 0.2148 -0.3998
vt 0.4113 0.1729 -0.4024
vt 0.4519 0.1729 -0.4066
vt 0.4713 0.1729 -0.4087
vt 0.5036 0.1729 -0.4121
vt 0.5267 0.1729 -0.4145
vt 0.5673 0.1729 -0.4188
vt 0.6163 0.1729 -0.4240
vt 0.6567 0.1729 -0.4282
vt 0.6973 0.1729 -0.4325
vt 0.1421 0.1407 -0.3740
vt 0.1883 0.1556 -0.3789
vt 0.1888 0.1556 -0.3652
vt 0.2355 0.1556 -0.3701
vt 0.2353 0.2079 -0.3739
vt 0.1886 0.2050 -0.3690
vt 0.2350 0.1556 -0.3838
vt 0.2518 0.1581 -0.3855
vt 0.2521 0.1555 -0.3783
vt 0.3241 0.1555 -0.3859
vt 0.3241 0.2079 -0.3853
vt 0.2521 0.2050 -0.3777
vt 0.3238 0.1581 -0.3931
vt 0.3412 0.1613 -0.3950
vt 0.3414 0.1587 -0.3887
vt 0.3874 0.1587 -0.3936
vt 0.3874 0.2079 -0.3930
vt 0.3414 0.2050 -0.3881
vt 0.3872 0.1613 -0.3998
vt 0.4113 0.0983 -0.4024
vt 0.4519 0.0983 -0.4066
vt 0.4713 0.0983 -0.4087
vt 0.5036 0.0983 -0.4121
vt 0.5261 0.0983 -0.4145
vt 0.5666 0.0983 -0.4187
vt 0.6163 0.0983 -0.4240
vt 0.6567 0.0983 -0.4282
vt 0.6973 0.0983 -0.4325
vt 0.1883 0.0578 -0.3789
vt 0.9995 0.0005 0.0006
vt 0.9995 0.9995 0.0005
vt 0.0005 0.9995 0.9995
vt 0.2350 0.0578 -0.3838
vt 0.3412 0.0250 -0.3950
vt 0.3412 0.0426 -0.3950
vt 0.3238 0.0423 -0.3931
vt 0.0005 0.0005 0.9985
vt 0.9995 0.0005 0.0005
vt 0.9995 0.1339 0.0006
vt 0.0005 0.1374 0.9986
vt 0.3872 0.0417 -0.3998
vt 0.3872 0.0250 -0.3998
vt 0.0005 0.0005 0.0005
vt 0.9995 0.9995 0.9995
vt 0.3887 0.0193 -0.4000
vt 0.3898 0.0084 -0.4153
vt 0.3236 0.0074 -0.3931
vt 0.3367 0.0079 -0.3945
vt 0.3367 0.0189 -0.3945
vt 0.8043 -0.3700 0.6298
vt 0.7697 -0.3736 0.6298
vt 0.7701 -0.3832 0.6298
vt 0.8047 -0.3796 0.6298
vt 0.4512 -0.3700 0.8043
vt 0.3702 -0.3700 0.8043
vt 0.3702 -0.3796 0.8047
vt 0.4512 -0.3796 0.8047
vt 0.2303 -0.3736 0.5488
vt 0.1957 -0.3700 0.5488
vt 0.1953 -0.3796 0.5488
vt 0.2299 -0.3832 0.5488
vt 0.6298 -0.3736 0.7697
vt 0.5488 -0.3736 0.7697
vt 0.5488 -0.3832 0.7701
vt 0.6298 -0.3832 0.7701
vt 0.7164 -0.3793 0.6298
vt 0.6802 -0.3831 0.6298
vt 0.6805 -0.3927 0.6298
vt 0.7168 -0.3889 0.6298
vt 0.4512 -0.3793 0.7164
vt 0.3702 -0.3793 0.7164
vt 0.3702 -0.3889 0.7168
vt 0.4512 -0.3889 0.7168
vt 0.3198 -0.3831 0.5488
vt 0.2836 -0.3793 0.5488
vt 0.2832 -0.3889 0.5488
vt 0.3195 -0.3927 0.5488
vt 0.6298 -0.3831 0.6802
vt 0.5488 -0.3831 0.6802
vt 0.5488 -0.3927 0.6805
vt 0.6298 -0.3927 0.6805
vt 0.6509 -0.3862 0.6298
vt 0.6183 -0.3896 0.6298
vt 0.6186 -0.3992 0.6298
vt 0.6513 -0.3958 0.6298
vt 0.4512 -0.3862 0.6509
vt 0.3702 -0.3862 0.6509
vt 0.3702 -0.3958 0.6513
vt 0.4512 -0.3958 0.6513
vt 0.3817 -0.3896 0.5488
vt 0.3491 -0.3862 0.5488
vt 0.3487 -0.3958 0.5488
vt 0.3814 -0.3992 0.5488
vt 0.6298 -0.3896 0.6183
vt 0.5488 -0.3896 0.6183
vt 0.5488 -0.3992 0.6186
vt 0.6298 -0.3992 0.6186
vt 0.5867 -0.3929 0.6298
vt 0.5531 -0.3965 0.6298
vt 0.5534 -0.4061 0.6298
vt 0.5870 -0.4025 0.6298
vt 0.4512 -0.3929 0.5867
vt 0.3702 -0.3929 0.5867
vt 0.3702 -0.4025 0.5870
vt 0.4512 -0.4025 0.5870
vt 0.4469 -0.3965 0.5488
vt 0.4133 -0.3929 0.5488
vt 0.4130 -0.4025 0.5488
vt 0.4466 -0.4061 0.5488
vt 0.6298 -0.3965 0.5531
vt 0.5488 -0.3965 0.5531
vt 0.5488 -0.4061 0.5534
vt 0.6298 -0.4061 0.5534
vt 0.5286 -0.3991 0.6298
vt 0.4951 -0.4026 0.6298
vt 0.4955 -0.4122 0.6298
vt 0.5289 -0.4087 0.6298
vt 0.4512 -0.3991 0.5286
vt 0.3702 -0.3991 0.5286
vt 0.3702 -0.4087 0.5289
vt 0.4512 -0.4087 0.5289
vt 0.5049 -0.4026 0.5488
vt 0.4714 -0.3991 0.5488
vt 0.4711 -0.4087 0.5488
vt 0.5045 -0.4122 0.5488
vt 0.6298 -0.4026 0.4951
vt 0.5488 -0.4026 0.4951
vt 0.5488 -0.4122 0.4955
vt 0.6298 -0.4122 0.4955
vt 0.4709 -0.4051 0.6298
vt 0.4364 -0.4088 0.6298
vt 0.4367 -0.4184 0.6298
vt 0.4712 -0.4147 0.6298
vt 0.4512 -0.4051 0.4709
vt 0.3702 -0.4051 0.4709
vt 0.3702 -0.4147 0.4712
vt 0.4512 -0.4147 0.4712
vt 0.5636 -0.4088 0.5488
vt 0.5291 -0.4051 0.5488
vt 0.5288 -0.4147 0.5488
vt 0.5633 -0.4184 0.5488
vt 0.6298 -0.4088 0.4364
vt 0.5488 -0.4088 0.4364
vt 0.5488 -0.4184 0.4367
vt 0.6298 -0.4184 0.4367
vt 0.3805 -0.4147 0.6298
vt 0.3483 -0.4181 0.6298
vt 0.3486 -0.4277 0.6298
vt 0.3808 -0.4243 0.6298
vt 0.4512 -0.4147 0.3805
vt 0.3702 -0.4147 0.3805
vt 0.3702 -0.4243 0.3808
vt 0.4512 -0.4243 0.3808
vt 0.6517 -0.4181 0.5488
vt 0.6195 -0.4147 0.5488
vt 0.6192 -0.4243 0.5488
vt 0.6514 -0.4277 0.5488
vt 0.6298 -0.4181 0.3483
vt 0.5488 -0.4181 0.3483
vt 0.5488 -0.4277 0.3486
vt 0.6298 -0.4277 0.3486
vt 0.8080 -0.3696 0.4654
vt 0.7671 -0.3739 0.4654
vt 0.7674 -0.3835 0.4654
vt 0.8084 -0.3792 0.4654
vt 0.6471 -0.3696 0.8080
vt 0.5346 -0.3696 0.8080
vt 0.5346 -0.3792 0.8084
vt 0.6471 -0.3792 0.8084
vt 0.2329 -0.3739 0.3529
vt 0.1920 -0.3696 0.3529
vt 0.1916 -0.3792 0.3529
vt 0.2326 -0.3835 0.3529
vt 0.4654 -0.3739 0.7671
vt 0.3529 -0.3739 0.7671
vt 0.3529 -0.3835 0.7674
vt 0.4654 -0.3835 0.7674
vt 0.7176 -0.3791 0.4654
vt 0.6782 -0.3833 0.4654
vt 0.6785 -0.3929 0.4654
vt 0.7179 -0.3887 0.4654
vt 0.6471 -0.3791 0.7176
vt 0.5346 -0.3791 0.7176
vt 0.5346 -0.3887 0.7179
vt 0.6471 -0.3887 0.7179
vt 0.3218 -0.3833 0.3529
vt 0.2824 -0.3791 0.3529
vt 0.2821 -0.3887 0.3529
vt 0.3215 -0.3929 0.3529
vt 0.4654 -0.3833 0.6782
vt 0.3529 -0.3833 0.6782
vt 0.3529 -0.3929 0.6785
vt 0.4654 -0.3929 0.6785
vt 0.5897 -0.3926 0.4654
vt 0.5502 -0.3968 0.4654
vt 0.5506 -0.4064 0.4654
vt 0.5901 -0.4022 0.4654
vt 0.6471 -0.3926 0.5897
vt 0.5346 -0.3926 0.5897
vt 0.5346 -0.4022 0.5901
vt 0.6471 -0.4022 0.5901
vt 0.4498 -0.3968 0.3529
vt 0.4103 -0.3926 0.3529
vt 0.4099 -0.4022 0.3529
vt 0.4494 -0.4064 0.3529
vt 0.4654 -0.3968 0.5502
vt 0.3529 -0.3968 0.5502
vt 0.3529 -0.4064 0.5506
vt 0.4654 -0.4064 0.5506
vt 0.4714 -0.4051 0.4654
vt 0.4339 -0.4090 0.4654
vt 0.4343 -0.4186 0.4654
vt 0.4717 -0.4147 0.4654
vt 0.6471 -0.4051 0.4714
vt 0.5346 -0.4051 0.4714
vt 0.5346 -0.4147 0.4717
vt 0.6471 -0.4147 0.4717
vt 0.5661 -0.4090 0.3529
vt 0.5286 -0.4051 0.3529
vt 0.5283 -0.4147 0.3529
vt 0.5657 -0.4186 0.3529
vt 0.4654 -0.4090 0.4339
vt 0.3529 -0.4090 0.4339
vt 0.3529 -0.4186 0.4343
vt 0.4654 -0.4186 0.4343
vt 0.3845 -0.4142 0.4654
vt 0.3448 -0.4184 0.4654
vt 0.3451 -0.4280 0.4654
vt 0.3849 -0.4238 0.4654
vt 0.6471 -0.4142 0.3845
vt 0.5346 -0.4142 0.3845
vt 0.5346 -0.4238 0.3849
vt 0.6471 -0.4238 0.3849
vt 0.6552 -0.4184 0.3529
vt 0.6155 -0.4142 0.3529
vt 0.6151 -0.4238 0.3529
vt 0.6549 -0.4280 0.3529
vt 0.4654 -0.4184 0.3448
vt 0.3529 -0.4184 0.3448
vt 0.3529 -0.4280 0.3451
vt 0.4654 -0.4280 0.3451
vt 0.5884 -0.3928 0.2845
vt 0.5478 -0.3970 0.2845
vt 0.5481 -0.4066 0.2845
vt 0.5887 -0.4024 0.2845
vt 0.8271 -0.3928 0.5884
vt 0.7155 -0.3928 0.5884
vt 0.7155 -0.4024 0.5887
vt 0.8271 -0.4024 0.5887
vt 0.4522 -0.3970 0.1729
vt 0.4116 -0.3928 0.1729
vt 0.4113 -0.4024 0.1729
vt 0.4519 -0.4066 0.1729
vt 0.2845 -0.3970 0.5478
vt 0.1729 -0.3970 0.5478
vt 0.1729 -0.4066 0.5481
vt 0.2845 -0.4066 0.5481
vt 0.4730 -0.4049 0.2845
vt 0.4324 -0.4092 0.2845
vt 0.4327 -0.4188 0.2845
vt 0.4733 -0.4145 0.2845
vt 0.8271 -0.4049 0.4730
vt 0.7155 -0.4049 0.4730
vt 0.7155 -0.4145 0.4733
vt 0.8271 -0.4145 0.4733
vt 0.5676 -0.4092 0.1729
vt 0.5270 -0.4049 0.1729
vt 0.5267 -0.4145 0.1729
vt 0.5673 -0.4188 0.1729
vt 0.2845 -0.4092 0.4324
vt 0.1729 -0.4092 0.4324
vt 0.1729 -0.4188 0.4327
vt 0.2845 -0.4188 0.4327
vt 0.3833 -0.4144 0.2845
vt 0.3430 -0.4186 0.2845
vt 0.3433 -0.4282 0.2845
vt 0.3837 -0.4240 0.2845
vt 0.8271 -0.4144 0.3833
vt 0.7155 -0.4144 0.3833
vt 0.7155 -0.4240 0.3837
vt 0.8271 -0.4240 0.3837
vt 0.6570 -0.4186 0.1729
vt 0.6167 -0.4144 0.1729
vt 0.6163 -0.4240 0.1729
vt 0.6567 -0.4282 0.1729
vt 0.2845 -0.4186 0.3430
vt 0.1729 -0.4186 0.3430
vt 0.1729 -0.4282 0.3433
vt 0.2845 -0.4282 0.3433
vt 0.5884 -0.3928 0.0983
vt 0.5478 -0.3970 0.0983
vt 0.5481 -0.4066 0.0983
vt 0.5887 -0.4024 0.0983
vt 0.9586 -0.3928 0.5884
vt 0.9017 -0.3928 0.5884
vt 0.9017 -0.4024 0.5887
vt 0.9586 -0.4024 0.5887
vt 0.4522 -0.3970 0.0414
vt 0.4116 -0.3928 0.0414
vt 0.4113 -0.4024 0.0414
vt 0.4519 -0.4066 0.0414
vt 0.0983 -0.3970 0.5478
vt 0.0414 -0.3970 0.5478
vt 0.0414 -0.4066 0.5481
vt 0.0983 -0.4066 0.5481
vt 0.4736 -0.4049 0.0983
vt 0.4331 -0.4091 0.0983
vt 0.4334 -0.4187 0.0983
vt 0.4739 -0.4145 0.0983
vt 0.9586 -0.4049 0.4736
vt 0.9017 -0.4049 0.4736
vt 0.9017 -0.4145 0.4739
vt 0.9586 -0.4145 0.4739
vt 0.5669 -0.4091 0.0414
vt 0.5264 -0.4049 0.0414
vt 0.5261 -0.4145 0.0414
vt 0.5666 -0.4187 0.0414
vt 0.0983 -0.4091 0.4331
vt 0.0414 -0.4091 0.4331
vt 0.0414 -0.4187 0.4334
vt 0.0983 -0.4187 0.4334
vt 0.3833 -0.4144 0.0983
vt 0.3430 -0.4186 0.0983
vt 0.3433 -0.4282 0.0983
vt 0.3837 -0.4240 0.0983
vt 0.9586 -0.4144 0.3833
vt 0.9017 -0.4144 0.3833
vt 0.9017 -0.4240 0.3837
vt 0.9586 -0.4240 0.3837
vt 0.6570 -0.4186 0.0414
vt 0.6167 -0.4144 0.0414
vt 0.6163 -0.4240 0.0414
vt 0.6567 -0.4282 0.0414
vt 0.0983 -0.4186 0.3430
vt 0.0414 -0.4186 0.3430
vt 0.0414 -0.4282 0.3433
vt 0.0983 -0.4282 0.3433
vt 0.0421 -0.3754 0.6756
vt 0.0074 -0.3754 0.6758
vt 0.0074 -0.3931 0.6764
vt 0.0423 -0.3931 0.6762
vt 0.1581 -0.3931 0.6762
vt 0.1555 -0.3859 0.6759
vt 0.1513 -0.3754 0.6756
vt 0.2845 -0.3830 0.6758
vt 0.2138 -0.3855 0.6759
vt 0.2148 -0.3931 0.6762
vt 0.2845 -0.3931 0.6762
vt 0.7478 -0.3754 0.2845
vt 0.6758 -0.3830 0.2845
vt 0.6762 -0.3931 0.2845
vt 0.7482 -0.3855 0.2845
vt 0.7888 -0.3778 0.7479
vt 0.7155 -0.3754 0.7478
vt 0.7155 -0.3855 0.7482
vt 0.7852 -0.3855 0.7482
vt 0.8419 -0.3855 0.7482
vt 0.8445 -0.3783 0.7479
vt 0.7950 -0.3777 0.7479
vt 0.9579 -0.3678 0.7476
vt 0.8487 -0.3678 0.7476
vt 0.9577 -0.3855 0.7482
vt 0.9948 -0.3678 0.7476
vt 0.9948 -0.3855 0.7482
vt 0.8113 -0.3657 0.2845
vt 0.7646 -0.3706 0.2845
vt 0.7650 -0.3838 0.2845
vt 0.8117 -0.3789 0.2845
vt 0.7889 -0.3676 0.8113
vt 0.7155 -0.3657 0.8113
vt 0.7155 -0.3789 0.8117
vt 0.7852 -0.3789 0.8117
vt 0.8444 -0.3652 0.8112
vt 0.7950 -0.3690 0.8114
vt 0.8444 -0.3789 0.8117
vt 0.9422 -0.3652 0.8112
vt 0.9422 -0.3789 0.8117
vt 0.2355 -0.3701 0.0578
vt 0.1888 -0.3652 0.0578
vt 0.1883 -0.3789 0.0578
vt 0.2350 -0.3838 0.0578
vt 0.1556 -0.3701 0.7645
vt 0.0578 -0.3701 0.7645
vt 0.0578 -0.3838 0.7650
vt 0.1556 -0.3838 0.7650
vt 0.2148 -0.3838 0.7650
vt 0.2137 -0.3726 0.7646
vt 0.2079 -0.3739 0.7647
vt 0.2845 -0.3706 0.7646
vt 0.2845 -0.3838 0.7650
vt 0.6585 -0.3858 0.2845
vt 0.6125 -0.3907 0.2845
vt 0.6128 -0.3998 0.2845
vt 0.6588 -0.3950 0.2845
vt 0.7888 -0.3882 0.6586
vt 0.7155 -0.3858 0.6585
vt 0.7155 -0.3950 0.6588
vt 0.7852 -0.3950 0.6588
vt 0.8387 -0.3950 0.6588
vt 0.8413 -0.3887 0.6586
vt 0.7950 -0.3881 0.6586
vt 0.9779 -0.3858 0.6585
vt 0.9754 -0.3772 0.6583
vt 0.9576 -0.3772 0.6583
vt 0.9750 -0.3950 0.6588
vt 0.9574 -0.3950 0.6588
vt 0.0420 -0.3821 0.6122
vt 0.0246 -0.3821 0.6122
vt 0.0223 -0.3907 0.6125
vt 0.0417 -0.3998 0.6128
vt 0.0250 -0.3998 0.6128
vt 0.2845 -0.3907 0.6125
vt 0.2138 -0.3932 0.6126
vt 0.2148 -0.3998 0.6128
vt 0.2845 -0.3998 0.6128
vt 0.1886 0.2118 -0.3708
vt 0.1885 0.2057 -0.3722
vt 0.2352 0.2086 -0.3771
vt 0.2352 0.2144 -0.3758
vt 0.2520 0.2111 -0.3812
vt 0.2520 0.2049 -0.3811
vt 0.3240 0.2078 -0.3886
vt 0.3240 0.2137 -0.3889
vt 0.3413 0.2111 -0.3916
vt 0.3413 0.2049 -0.3915
vt 0.3873 0.2078 -0.3963
vt 0.3873 0.2137 -0.3965
vt 0.3415 -0.3858 0.0221
vt 0.3875 -0.3907 0.0223
vt 0.3878 -0.3821 0.0246
vt 0.3417 -0.3772 0.0246
vt 0.6759 -0.3859 0.1555
vt 0.7479 -0.3783 0.1555
vt 0.7476 -0.3678 0.1513
vt 0.6756 -0.3754 0.1513
vt 0.6126 -0.3936 0.1587
vt 0.6586 -0.3887 0.1587
vt 0.6583 -0.3772 0.1544
vt 0.6122 -0.3821 0.1544
vt 0.3412 -0.3950 0.0189
vt 0.3887 -0.4000 0.0193
vt 0.0193 -0.4000 0.6113
vt 0.9811 -0.3950 0.6588
vt 0.9808 -0.4151 0.6118
vt 0.9916 -0.4153 0.6102
vt 0.9916 -0.4001 0.6097
vt 0.9807 -0.4000 0.6113
vt 0.3406 -0.4101 0.0188
vt 0.3882 -0.4151 0.0192
vt 0.3362 -0.4097 0.0189
vt 0.3367 -0.3945 0.0189
vt 0.0079 -0.4097 0.6638
vt 0.0189 -0.4097 0.6638
vt 0.0189 -0.3945 0.6633
vt 0.0079 -0.3945 0.6633
vt 0.1613 -0.3998 0.6128
vt 0.1587 -0.3936 0.6126
vt 0.1544 -0.3821 0.6122
vt 0.9995 0.9995 0.0015
vt 0.8456 -0.3772 0.6583
vt 0.6973 0.6586 -0.4325
vt 0.6507 0.6586 -0.4276
vt 0.1957 0.6586 -0.3796
vt 0.1421 0.6586 -0.3740
vt 0.2295 0.6586 -0.3832
vt 0.2827 0.6586 -0.3888
vt 0.3195 0.6586 -0.3927
vt 0.3487 0.6586 -0.3958
vt 0.3805 0.6586 -0.3991
vt 0.4113 0.6586 -0.4024
vt 0.4455 0.6586 -0.4060
vt 0.4713 0.6586 -0.4087
vt 0.5036 0.6586 -0.4121
vt 0.5288 0.6586 -0.4147
vt 0.5617 0.6586 -0.4182
vt 0.6192 0.6586 -0.4243
vt 0.6975 0.6703 -0.4341
vt 0.6508 0.6703 -0.4292
vt 0.1959 0.6703 -0.3812
vt 0.1422 0.6703 -0.3756
vt 0.2297 0.6703 -0.3848
vt 0.2829 0.6703 -0.3904
vt 0.3196 0.6703 -0.3943
vt 0.3489 0.6703 -0.3974
vt 0.3807 0.6703 -0.4007
vt 0.4115 0.6703 -0.4040
vt 0.4457 0.6703 -0.4076
vt 0.4715 0.6703 -0.4103
vt 0.5037 0.6703 -0.4137
vt 0.5290 0.6703 -0.4164
vt 0.5618 0.6703 -0.4198
vt 0.6193 0.6703 -0.4259
vt 0.6973 0.6839 -0.4421
vt 0.6507 0.6839 -0.4372
vt 0.6507 0.6766 -0.4372
vt 0.6973 0.6766 -0.4421
vt 0.1957 0.6839 -0.3893
vt 0.1421 0.6839 -0.3836
vt 0.1421 0.6766 -0.3836
vt 0.1957 0.6766 -0.3893
vt 0.2296 0.6839 -0.3928
vt 0.2296 0.6766 -0.3928
vt 0.2827 0.6839 -0.3984
vt 0.2827 0.6766 -0.3984
vt 0.3195 0.6839 -0.4023
vt 0.3195 0.6766 -0.4023
vt 0.3487 0.6839 -0.4054
vt 0.3487 0.6766 -0.4054
vt 0.3805 0.6839 -0.4088
vt 0.3805 0.6766 -0.4088
vt 0.4113 0.6839 -0.4120
vt 0.4113 0.6766 -0.4120
vt 0.4455 0.6839 -0.4156
vt 0.4455 0.6766 -0.4156
vt 0.4713 0.6839 -0.4183
vt 0.4713 0.6766 -0.4183
vt 0.5036 0.6839 -0.4217
vt 0.5036 0.6766 -0.4217
vt 0.5288 0.6839 -0.4244
vt 0.5288 0.6766 -0.4244
vt 0.5617 0.6839 -0.4278
vt 0.5617 0.6766 -0.4278
vt 0.6192 0.6839 -0.4339
vt 0.6192 0.6766 -0.4339
vt 0.3032 -0.4495 0.6871
vt 0.3498 -0.4445 0.6871
vt 0.3493 -0.4372 0.6839
vt 0.3027 -0.4421 0.6839
vt 0.8048 -0.3966 0.6871
vt 0.8584 -0.3909 0.6871
vt 0.8579 -0.3836 0.6839
vt 0.8043 -0.3893 0.6839
vt 0.7709 -0.4002 0.6871
vt 0.7704 -0.3928 0.6839
vt 0.7178 -0.4058 0.6871
vt 0.7173 -0.3984 0.6839
vt 0.6810 -0.4096 0.6871
vt 0.6805 -0.4023 0.6839
vt 0.6517 -0.4127 0.6871
vt 0.6513 -0.4054 0.6839
vt 0.6200 -0.4161 0.6871
vt 0.6195 -0.4088 0.6839
vt 0.5892 -0.4193 0.6871
vt 0.5887 -0.4120 0.6839
vt 0.5550 -0.4229 0.6871
vt 0.5545 -0.4156 0.6839
vt 0.5291 -0.4256 0.6871
vt 0.5287 -0.4183 0.6839
vt 0.4969 -0.4290 0.6871
vt 0.4964 -0.4217 0.6839
vt 0.4717 -0.4317 0.6871
vt 0.4712 -0.4244 0.6839
vt 0.4388 -0.4352 0.6871
vt 0.4383 -0.4278 0.6839
vt 0.3813 -0.4412 0.6871
vt 0.3808 -0.4339 0.6839
vt 0.6966 0.6962 -0.4531
vt 0.6499 0.6962 -0.4482
vt 0.6502 0.6871 -0.4445
vt 0.6968 0.6871 -0.4495
vt 0.1950 0.6962 -0.4003
vt 0.1414 0.6962 -0.3946
vt 0.1416 0.6871 -0.3909
vt 0.1952 0.6871 -0.3966
vt 0.2288 0.6962 -0.4038
vt 0.2291 0.6871 -0.4002
vt 0.2820 0.6962 -0.4094
vt 0.2822 0.6871 -0.4058
vt 0.3187 0.6962 -0.4133
vt 0.3190 0.6871 -0.4096
vt 0.3480 0.6962 -0.4164
vt 0.3483 0.6871 -0.4127
vt 0.3798 0.6962 -0.4198
vt 0.3800 0.6871 -0.4161
vt 0.4106 0.6962 -0.4230
vt 0.4108 0.6871 -0.4193
vt 0.4448 0.6962 -0.4266
vt 0.4450 0.6871 -0.4229
vt 0.4706 0.6962 -0.4293
vt 0.4709 0.6871 -0.4256
vt 0.5029 0.6962 -0.4327
vt 0.5031 0.6871 -0.4290
vt 0.5281 0.6962 -0.4354
vt 0.5283 0.6871 -0.4317
vt 0.5609 0.6962 -0.4388
vt 0.5612 0.6871 -0.4352
vt 0.6184 0.6962 -0.4449
vt 0.6187 0.6871 -0.4412
vt 0.3493 -0.4372 0.6766
vt 0.3492 -0.4292 0.6703
vt 0.3025 -0.4341 0.6703
vt 0.3027 -0.4421 0.6766
vt 0.8579 -0.3836 0.6766
vt 0.8578 -0.3756 0.6703
vt 0.8041 -0.3812 0.6703
vt 0.8043 -0.3893 0.6766
vt 0.7703 -0.3848 0.6703
vt 0.7704 -0.3928 0.6766
vt 0.7171 -0.3904 0.6703
vt 0.7173 -0.3984 0.6766
vt 0.6804 -0.3943 0.6703
vt 0.6805 -0.4023 0.6766
vt 0.6511 -0.3974 0.6703
vt 0.6513 -0.4054 0.6766
vt 0.6193 -0.4007 0.6703
vt 0.6195 -0.4088 0.6766
vt 0.5885 -0.4040 0.6703
vt 0.5887 -0.4120 0.6766
vt 0.5543 -0.4076 0.6703
vt 0.5545 -0.4156 0.6766
vt 0.5285 -0.4103 0.6703
vt 0.5287 -0.4183 0.6766
vt 0.4963 -0.4137 0.6703
vt 0.4964 -0.4217 0.6766
vt 0.4710 -0.4164 0.6703
vt 0.4712 -0.4244 0.6766
vt 0.4382 -0.4198 0.6703
vt 0.4383 -0.4278 0.6766
vt 0.3807 -0.4259 0.6703
vt 0.3808 -0.4339 0.6766
vt 0.3036 -0.4589 0.6956
vt 0.3207 -0.4570 0.6952
vt 0.3501 -0.4482 0.6962
vt 0.3034 -0.4531 0.6962
vt 0.8421 -0.4015 0.6960
vt 0.8588 -0.4004 0.6956
vt 0.8586 -0.3946 0.6962
vt 0.8050 -0.4003 0.6962
vt 0.7420 -0.4127 0.6957
vt 0.7712 -0.4038 0.6962
vt 0.7182 -0.4152 0.6957
vt 0.7180 -0.4094 0.6962
vt 0.6815 -0.4191 0.6956
vt 0.6813 -0.4133 0.6962
vt 0.6522 -0.4222 0.6956
vt 0.6520 -0.4164 0.6962
vt 0.6204 -0.4255 0.6956
vt 0.6202 -0.4198 0.6962
vt 0.5896 -0.4287 0.6955
vt 0.5894 -0.4230 0.6962
vt 0.5552 -0.4266 0.6962
vt 0.5851 -0.4292 0.6955
vt 0.5294 -0.4293 0.6962
vt 0.5296 -0.4350 0.6955
vt 0.5378 -0.4342 0.6955
vt 0.4973 -0.4384 0.6954
vt 0.4971 -0.4327 0.6962
vt 0.4721 -0.4411 0.6954
vt 0.4719 -0.4354 0.6962
vt 0.4393 -0.4445 0.6954
vt 0.4391 -0.4388 0.6962
vt 0.3817 -0.4506 0.6953
vt 0.3816 -0.4449 0.6962
vt 0.6806 -0.4339 0.7042
vt 0.6793 -0.4570 0.6952
vt 0.6964 -0.4589 0.6956
vt 0.6976 -0.4367 0.7042
vt 0.1436 -0.3721 0.7067
vt 0.1412 -0.4004 0.6956
vt 0.1579 -0.4015 0.6960
vt 0.1602 -0.3745 0.7067
vt 0.2530 -0.3094 0.7357
vt 0.2367 -0.3076 0.7358
vt 0.2665 -0.3145 0.7342
vt 0.2668 -0.3110 0.7356
vt 1.9426 0.4846 -0.6675
vt 1.2214 0.4835 -0.6668
vt 1.1598 0.4615 -1.5622
vt 1.5229 0.4345 -2.6902
vt 1.7803 0.4120 -3.6316
vt 2.4269 0.4850 -0.6680
vt 2.2646 0.4124 -3.6320
vt 2.7000 0.4853 -0.6683
vt 2.5377 0.4127 -3.6323
vt 2.9385 0.4855 -0.6685
vt 2.7762 0.4129 -3.6325
vt 3.1124 0.4132 -3.6328
vt 3.1230 0.4180 -3.4392
vt 3.1413 0.4262 -3.1046
vt 3.2747 0.4858 -0.6688
vt 3.7668 0.4264 -2.6006
vt 3.1418 0.4258 -2.5882
vt 3.1236 0.4176 -2.9229
vt 3.3822 0.4180 -2.9176
vt 5.2171 0.4199 -2.9135
vt 4.9626 0.4269 -2.6270
vt 5.0053 0.4202 -2.9003
vt 5.8760 0.4882 -0.6713
vt 5.6249 0.4880 -0.6710
vt 5.4888 0.4271 -3.1569
vt 5.4726 0.4199 -3.4522
vt 5.4626 0.4154 -3.6351
vt 5.7137 0.4156 -3.6353
vt 6.1626 0.4161 -3.6357
vt 6.3249 0.4887 -0.6717
vt 0.5600 -0.3608 0.7279
vt 0.5485 -0.3591 0.7281
vt 0.5677 -0.3636 0.7271
vt 0.5678 -0.3619 0.7278
vt 7.9407 0.4900 -0.6841
vt 7.1066 0.4897 -0.6720
vt 7.0488 0.4638 -1.7277
vt 7.3807 0.4384 -2.7753
vt 7.7720 0.4176 -3.6373
vt 8.8587 0.4238 -3.4237
vt 8.7277 0.4912 -0.6559
vt 8.8593 0.4186 -3.6383
vt 8.8725 0.5312 -0.1565
vt 8.8014 0.4907 0.2579
vt 9.1488 0.4912 0.2581
vt 9.1583 0.5312 -0.1625
vt 0.0229 0.6008 -3.5014
vt -0.2264 0.6010 -3.3899
vt -0.5599 0.4824 -0.0034
vt -0.2622 0.4827 -0.1886
vt -0.0569 0.5037 0.5011
vt -0.0504 0.4975 0.4995
vt 0.8638 0.4976 0.4993
vt 0.8480 0.5040 0.5008
vt 2.0338 0.5583 -4.0504
vt 1.4192 0.5593 -4.0499
vt 2.6882 0.5576 -4.0508
vt 3.2094 0.5570 -4.0511
vt 3.5873 0.5566 -4.0513
vt 3.8220 0.5564 -4.0514
vt 3.8605 0.4872 0.9853
vt 3.8078 0.4990 0.9877
vt 3.5009 0.4983 0.9875
vt 3.5274 0.4869 0.9851
vt 1.5509 0.6010 -4.1216
vt 0.0132 0.6006 -4.1356
vt -0.0760 0.5627 -2.9467
vt -0.2173 0.5063 -1.6056
vt 5.3523 0.5269 -2.6179
vt 4.6286 0.5375 -3.1486
vt 4.4268 0.4869 -0.6699
vt 5.9152 0.5187 -2.2047
vt 6.3557 0.5124 -1.8804
vt 6.9310 0.5042 -1.4581
vt -5.4042 -4.3752 1.6589
vt -5.3030 -7.9327 1.6296
vt -3.5158 -7.7199 1.4239
vt 0.7193 0.8323 0.4590
vt 0.6805 0.8324 0.4608
vt 0.6746 0.1870 0.5216
vt 0.7134 0.1068 0.5275
vt 4.5622 0.7010 -0.1795
vt 4.2529 3.4485 -0.2225
vt -4.6851 3.2327 1.2699
vt -4.9500 0.4714 1.4088
vt 8.8607 0.4235 -2.7852
vt 9.1644 0.4236 -2.7931
vt 0.5312 -0.1625 9.1583
vt 0.4912 0.2581 9.1488
vt 0.4915 -0.6704 9.1468
vt 0.5314 -0.8883 9.2200
vt 0.2917 0.8409 0.0373
vt 0.2758 0.8406 0.0345
vt 0.2723 0.8097 0.0343
vt 0.3046 0.8374 0.0386
vt 0.5093 0.2579 8.8014
vt 0.4688 -0.1565 8.8725
vt 0.4688 -0.2382 8.7987
vt 0.5088 -0.6559 8.7277
vt 0.5765 -2.7852 8.8607
vt 0.5762 -3.4237 8.8587
vt 0.6976 0.7311 -0.4379
vt 0.6806 0.7314 -0.4353
vt 0.6806 0.7042 -0.4339
vt 0.6976 0.7042 -0.4367
vt 0.4236 -2.7931 9.1644
vt 0.4239 -3.4236 9.1624
vt -0.7077 0.4163 -2.6822
vt -0.4108 0.4165 -2.6912
vt 0.5837 -2.6822 -0.7077
vt 0.5176 -0.0034 -0.5599
vt 0.5178 -0.6752 -0.5620
vt 0.5839 -3.3707 -0.7098
vt 0.1604 0.7356 -0.3734
vt 0.1438 0.7360 -0.3712
vt 0.1436 0.7067 -0.3721
vt 0.1602 0.7067 -0.3745
vt 0.4827 -0.1886 -0.2622
vt 0.4165 -2.6912 -0.4108
vt 0.4162 -3.3708 -0.4129
vt 0.4829 -0.6407 -0.2626
vt 0.5627 -2.9467 -0.0760
vt 0.6006 -4.1356 0.0132
vt 0.6008 -3.5014 0.0229
vt 0.5063 -1.6056 -0.2173
vt 0.7831 0.7018 0.4333
vt 0.7693 0.6970 0.4300
vt 0.7698 0.6700 0.4293
vt 0.7833 0.6700 0.4324
vt 0.3990 -3.3899 -0.2264
vt 0.3992 -4.1355 -0.2285
vt 0.6676 0.0598 0.2216
vt 0.7075 0.0598 0.2333
vt 0.7075 0.6746 0.2332
vt 0.6674 0.6746 0.2234
vt 0.6312 0.0598 0.2120
vt 0.6310 0.6746 0.2138
vt 0.6022 0.0598 0.2045
vt 0.6020 0.6746 0.2062
vt 0.5707 0.0598 0.1962
vt 0.5705 0.6746 0.1980
vt 0.5401 0.0598 0.1882
vt 0.5400 0.6746 0.1900
vt 0.5127 0.0598 0.1818
vt 0.5127 0.6746 0.1819
vt 0.6805 0.8313 0.4526
vt 0.6848 1.2937 0.4073
vt 0.0700 1.2937 0.4073
vt 0.6746 0.1819 0.5127
vt 0.0598 0.1818 0.5127
vt 0.7700 0.4167 0.6700
vt 0.7840 0.4199 0.6700
vt 0.7833 0.4324 0.6700
vt 0.7698 0.4293 0.6700
vt 0.6927 0.4075 0.6706
vt 0.6838 0.4155 0.6706
vt 0.7075 0.2332 0.6746
vt 0.7015 0.2342 0.6746
vt 0.6674 0.2234 0.6746
vt 0.5400 0.1900 0.6746
vt 0.5216 0.1870 0.6746
vt 0.5127 0.1819 0.6746
vt 6.0234 -3.3745 -5.8911
vt 3.6984 -3.1865 -6.1972
vt 3.6984 -3.6429 -6.2725
vt 6.0234 -3.8309 -5.9663
vt 9.9580 -1.9208 -5.2635
vt 9.9925 -2.3679 -5.3400
vt 6.0234 6.5541 -4.2542
vt 3.6984 6.6101 -4.5822
vt 9.9365 6.7255 -3.8341
vt 0.2958 -0.4367 0.3024
vt 0.3044 -0.4589 0.3036
vt 0.3038 -0.4531 0.3034
vt 2.4549 -3.7698 5.9742
vt -8.1544 -3.8182 7.7389
vt -8.1544 -3.9034 7.7248
vt -8.1759 -4.0572 7.6955
vt -8.1544 4.2606 9.0707
vt -8.1544 2.9254 8.8506
vt -8.1544 1.9425 8.6886
vt -8.1544 1.0297 8.5381
vt -8.1544 0.1278 8.3894
vt -8.1544 -1.3554 8.1449
vt -8.1544 -2.4562 7.9634
vt -8.1544 -3.5238 7.7874
vt 0.3903 0.0084 -0.4001
vt 0.3412 0.0189 -0.3950
vt 0.2079 -0.3853 0.6759
vt 0.2079 -0.3930 0.6126
vt 0.3161 -0.4421 0.3027
vt 0.3129 -0.4495 0.3032
vt 0.3234 -0.4421 0.3027
vt 0.3297 -0.4341 0.3025
vt 2.6220 -3.7672 5.9586
vt -8.1294 -4.5316 7.5850
vt -4.2674 -5.9289 6.7591
vt 0.6962 -0.3946 0.8586
vt 0.7067 -0.3721 0.8564
vt 0.6839 -0.3836 0.8579
vt 0.6871 -0.3909 0.8584
vt -8.2832 -4.1410 7.6853
vt -8.2832 -4.2372 7.6695
vt 0.6956 -0.4004 0.8588
vt 0.4608 0.8324 0.6805
vt 0.4526 0.8313 0.6805
vt 4.0189 5.5537 -0.2559
vt -4.4792 5.3481 1.1629
vt 5.1393 -4.7079 -0.0898
vt -7.3221 -2.9947 -7.8977
vt -7.8105 -3.4427 -8.0483
vt -8.9925 6.9289 -6.5242
vt -8.9925 -2.9657 -8.1554
vt 0.6927 0.6706 0.4075
vt 0.6927 0.3411 0.4075
vt 0.7655 0.3751 0.4161
vt 0.7656 0.4341 0.4162
vt 0.9248 0.3705 0.6958
vt 0.9402 0.2333 0.7075
vt 0.9441 0.4075 0.6927
vt 0.9248 0.4075 0.6927
vt 2.1184 -0.6457 6.5454
vt 2.4549 -0.6369 6.4907
vt 0.7700 0.6700 0.4167
vt 0.7700 0.4337 0.4167
vt 0.7840 0.4324 0.4199
vt 0.7840 0.6700 0.4199
vt 0.4324 0.3947 0.7863
vt 0.4324 0.4199 0.7840
vt 0.0752 0.4199 0.7840
vt 0.0752 0.3947 0.7863
vt 0.6589 0.3705 0.6958
vt 0.3254 0.2332 0.7075
vt 0.3294 0.4075 0.6927
vt 0.6589 0.4075 0.6927
vt 2.1184 4.0648 7.3220
vt -8.1544 4.7742 9.1554
vt 2.4549 4.0738 7.2673
vt 2.4549 4.3365 7.3106
vt -4.2123 8.0522 1.0257
vt 3.7388 8.2445 -0.3017
vt 3.4038 11.7070 -0.3648
vt -3.8630 11.5308 0.8484
vt 5.3964 -6.9293 -0.0562
vt 5.0398 -8.9032 -0.1772
vt -3.5704 -9.5786 1.2589
vt 0.2769 1.3963 0.1412
vt 0.1467 1.2235 0.1457
vt 0.1856 0.8897 0.1655
vt 0.2769 0.7923 0.1742
vt 0.9246 0.7932 0.1852
vt 0.9247 1.3976 0.1522
vt 0.6896 0.7236 1.4576
vt 0.1412 0.7231 1.3963
vt 0.1522 0.0753 1.3976
vt 0.6942 0.0752 1.4589
vt 9.5683 0.7092 3.8225
vt 7.2584 3.2289 0.6646
vt -5.4240 3.0914 -0.1136
vt -9.8447 0.3429 2.4447
vt 0.0752 0.8714 0.7470
vt 0.7235 0.8717 0.7423
vt 0.8830 1.0273 0.7243
vt 0.8719 1.2933 0.7012
vt 0.7236 1.4576 0.6896
vt 0.0752 1.4589 0.6942
vt -3.5695 2.3274 6.2934
vt -7.4214 -0.1923 6.9790
vt -3.0610 0.0275 10.0138
vt 7.9677 -1.3274 -6.3301
vt 2.3540 -0.5586 -9.8497
vt 2.7073 2.1899 -4.7544
vt 0.8948 -1.1502 9.3904
vt -0.4027 -1.1092 8.5270
vt -0.8002 -0.3566 9.2694
vt 0.4800 -0.3973 10.1308
vt 0.2929 0.7237 0.8668
vt 0.3413 0.7237 0.8601
vt 0.3415 0.8234 0.8613
vt 0.3172 0.8615 0.8636
vt 0.2930 0.8221 0.8661
vt 0.6528 0.8025 0.9397
vt 0.7009 0.8012 0.9428
vt 0.7008 0.8241 0.9426
vt 0.6767 0.8636 0.9411
vt 0.6527 0.8254 0.9395
vt 0.8221 0.8661 0.7070
vt 0.8241 0.9426 0.7008
vt 0.8012 0.9428 0.7009
vt 0.7237 0.8668 0.7071
vt -1.1976 -1.1354 10.0117
vt 0.0632 -1.1758 10.8699
vt 0.4258 0.9383 0.8120
vt 0.4218 0.8991 0.7726
vt 0.4494 0.8960 0.7731
vt 0.4535 0.9366 0.8136
vt 0.1746 0.9395 0.6527
vt 0.1766 0.8613 0.6585
vt 0.2763 0.8601 0.6587
vt 0.1975 0.9397 0.6528
vt -1.4713 0.5191 -2.6108
vt -1.5101 1.0880 -2.0167
vt 10.3761 0.9290 -1.4283
vt 0.6904 0.9895 0.9876
vt 0.6150 0.9991 0.9876
vt 0.6138 0.9691 0.9871
vt 0.6888 0.9601 0.9870
vt 0.0124 0.9895 0.3096
vt 0.0130 0.9601 0.3112
vt 0.1383 0.9583 0.3103
vt 0.1104 0.9877 0.3088
vt 0.3850 0.9876 0.9991
vt 0.3096 0.9876 0.9895
vt 0.3088 0.8896 0.9877
vt 0.3842 0.8911 0.9975
vt 0.9871 0.9691 0.3862
vt 0.9876 0.9991 0.3850
vt 0.8911 0.9975 0.3842
vt 0.8623 0.9674 0.3853
vt 0.6888 0.9870 0.9601
vt 0.6138 0.9871 0.9691
vt 0.6147 0.8623 0.9674
vt 0.6897 0.8617 0.9583
vt -10.0043 -2.2289 5.8570
vt 9.1615 -2.2193 7.0677
vt -4.1446 1.0582 -2.2105
vt 9.7746 -2.2158 -4.5978
vt 9.5591 -0.6862 -3.0971
vt 11.0043 -2.2200 -4.5013
vt 5.2689 -1.2515 -3.9593
vt 8.0831 -2.2157 -4.7300
vt 0.8810 -2.2208 -5.2968
vt -0.4418 -1.8411 -4.9931
vt -1.0945 -1.6465 -4.8610
vt 4.3058 -1.2418 -4.0207
vt 5.1287 -0.4733 -3.1848
vt 4.1631 -0.4418 -3.2194
vt -7.2851 0.1872 -3.3653
vt -8.0583 -0.3830 -4.0315
vt -9.1527 -0.4259 -4.1450
vt -4.0929 0.5079 -2.7916
vt -6.2784 -0.1101 -3.6320
vt 7.8761 -0.6610 -3.1580
vt 0.2577 0.7235 0.8717
vt 0.5392 0.6805 0.8324
vt 0.5488 0.6594 0.8311
vt 0.5474 0.6805 0.8313
vt 0.5487 0.0753 0.8303
vt 0.2530 0.0752 0.8714
vt 0.5410 0.7193 0.8323
vt 0.5474 0.7235 0.8314
vt 0.7945 0.1200 0.7961
vt 0.7944 0.0754 0.7960
vt 0.8148 0.0754 0.7932
vt 0.8258 0.7231 0.7923
vt 0.7945 0.7208 0.7967
vt -7.7662 -2.1621 -5.9152
vt -8.8494 -2.2276 -6.0677
vt 0.7948 0.7265 0.8001
vt -2.0121 -1.9070 1.9227
vt -2.5177 -1.9070 1.8679
vt -2.5507 -2.5507 2.9081
vt 3.3777 -2.5507 3.5507
vt 3.5128 0.0883 -0.7141
vt -2.0540 0.0884 -1.3175
vt 0.3727 0.3968 0.7943
vt 0.3727 0.8298 0.7574
vt 0.0752 0.8298 0.7574
vt 0.0752 0.3968 0.7943
vt 0.2057 0.3727 0.3968
vt 0.2057 0.0752 0.3968
vt 0.2137 0.0752 0.3947
vt 0.2137 0.3734 0.3947
vt 0.3274 0.3301 0.3644
vt 0.3042 0.3411 0.3705
vt 0.3042 0.0752 0.3705
vt 0.3274 0.0752 0.3644
vt 0.6699 0.7973 0.6357
vt 0.6699 0.3644 0.6726
vt 0.9248 0.3644 0.6726
vt 0.9248 0.7973 0.6357
vt 0.7309 0.3751 0.8227
vt 0.6357 0.3301 0.7973
vt 0.6357 0.0752 0.7973
vt 0.7272 0.0752 0.8217
vt 0.7574 0.3727 0.8298
vt 0.7574 0.0752 0.8298
vt 0.4317 0.3969 0.7944
vt 0.4317 0.8298 0.7575
vt 0.2056 0.4317 0.3969
vt 0.2137 0.4324 0.3947
vt 0.7575 0.4317 0.8298
vt 0.7310 0.4341 0.8227
vt -2.0566 3.5274 -1.5176
vt -2.0540 3.5507 -1.3212
vt 3.5130 3.5507 -0.7178
vt -2.0439 3.4532 -2.1431
vt -2.3777 3.4092 -2.5507
vt -2.3891 3.4521 -2.1893
vt 3.5507 3.4092 -1.9081
vt 0.5659 0.8227 0.7310
vt 0.5659 0.4162 0.7656
vt 0.6249 0.4161 0.7655
vt 0.6249 0.8227 0.7309
vt 0.7648 -0.3771 0.2086
vt 0.8115 -0.3722 0.2057
vt 0.8114 -0.3690 0.2050
vt 0.7647 -0.3739 0.2079
vt 0.7856 -0.3758 0.7648
vt 0.7914 -0.3771 0.7648
vt 0.7921 -0.3739 0.7647
vt 0.7863 -0.3726 0.7646
vt 0.1886 -0.3708 0.2118
vt 0.2352 -0.3758 0.2144
vt 0.2354 -0.3726 0.2137
vt 0.1887 -0.3676 0.2111
vt 0.2057 -0.3722 0.8115
vt 0.2118 -0.3708 0.8114
vt 0.2111 -0.3676 0.8113
vt 0.2050 -0.3690 0.8114
vt 0.6760 -0.3886 0.2078
vt 0.7480 -0.3811 0.2049
vt 0.7479 -0.3777 0.2050
vt 0.6759 -0.3853 0.2079
vt 0.7863 -0.3889 0.6760
vt 0.7922 -0.3886 0.6760
vt 0.7921 -0.3853 0.6759
vt 0.7862 -0.3855 0.6759
vt 0.2520 -0.3812 0.2111
vt 0.3240 -0.3889 0.2137
vt 0.3241 -0.3855 0.2138
vt 0.2521 -0.3778 0.2112
vt 0.2049 -0.3811 0.7480
vt 0.2111 -0.3812 0.7480
vt 0.2112 -0.3778 0.7479
vt 0.2050 -0.3777 0.7479
vt 0.6127 -0.3963 0.2078
vt 0.6587 -0.3915 0.2049
vt 0.6586 -0.3881 0.2050
vt 0.6126 -0.3930 0.2079
vt 0.7863 -0.3965 0.6127
vt 0.7922 -0.3963 0.6127
vt 0.7921 -0.3930 0.6126
vt 0.7862 -0.3932 0.6126
vt 0.3413 -0.3916 0.2111
vt 0.3873 -0.3965 0.2137
vt 0.3874 -0.3932 0.2138
vt 0.3414 -0.3882 0.2112
vt 0.2049 -0.3915 0.6587
vt 0.2111 -0.3916 0.6587
vt 0.2112 -0.3882 0.6586
vt 0.2050 -0.3881 0.6586
vt 0.3445 0.3143 -0.3953
vt 0.3409 0.3155 -0.3949
vt 0.3389 0.3162 -0.3947
vt 0.3377 0.3170 -0.3946
vt 0.3358 0.3182 -0.3944
vt 0.3337 0.3196 -0.3942
vt 0.3296 0.3245 -0.3938
vt 0.3259 0.3328 -0.3934
vt 0.3324 0.3396 -0.3940
vt 0.3361 0.3321 -0.3944
vt 0.3408 0.3276 -0.3949
vt 0.3458 0.3261 -0.3955
vt 0.3306 0.3478 -0.3939
vt 0.3239 0.3430 -0.3932
vt 0.3501 0.3258 -0.3959
vt 0.3468 0.3135 -0.3956
vt 0.3508 0.3139 -0.3960
vt 0.3548 0.3184 -0.3964
vt 0.3545 0.3261 -0.3964
vt 0.8687 0.0150 0.5110
vt 0.9989 0.1450 0.4986
vt 0.9883 0.3702 0.4996
vt 0.8476 0.3609 0.5131
vt 0.7084 0.3707 0.5264
vt 0.6662 0.0259 0.5304
vt 0.7407 0.0033 0.5233
vt 0.0064 0.8641 0.5935
vt 0.0686 0.5641 0.5875
vt 0.1899 0.3220 0.5759
vt 0.3196 0.1801 0.5635
vt 0.5482 0.4149 0.5417
vt 0.5515 0.0624 0.5414
vt 0.3960 0.5457 0.5562
vt 0.4885 0.0824 0.5474
vt 0.4479 0.1060 0.5513
vt 0.2800 0.7623 0.5673
vt 0.3884 0.1403 0.5569
vt 0.2217 1.0041 0.5729
vt 4.3512 0.4616 -1.6265
vt 5.2358 0.4271 -3.1450
vt 3.7517 0.4186 -2.9167
vt 4.8678 0.4201 -2.4885
vt 4.7841 0.4271 -2.3496
vt 3.8732 0.4196 -2.5411
vt 3.9461 0.4270 -2.3842
vt 4.3703 0.4196 -1.7351
vt 4.7352 0.4200 -2.1770
vt 4.6692 0.4270 -2.0812
vt 4.3656 0.4269 -1.7152
vt 4.0701 0.4269 -2.0599
vt 4.0120 0.4197 -2.1559
vt 3.8460 0.4863 -0.6694
vt 3.5129 0.4860 -0.6690
vt 3.5201 0.4264 -3.1057
vt 5.4895 0.4268 -2.6406
vt 5.4732 0.4196 -2.9359
vt 3.3817 0.4183 -3.4338
vt 3.7677 0.4138 -3.6334
vt 3.7672 0.4189 -3.4258
vt 4.9888 0.4205 -3.4096
vt 4.9893 0.4150 -3.6346
vt 5.2166 0.4202 -3.4296
vt 4.4132 0.4143 -3.6183
vt 0.3883 0.5315 0.4076
vt 0.2896 0.5684 0.4575
vt 0.2017 0.5339 0.6405
vt 0.1553 0.4489 0.6133
vt 0.2093 0.3886 0.4849
vt 0.3753 0.3898 0.5111
vt 0.4364 0.4538 0.3595
vt 4.7566 0.4270 -2.4021
vt 4.6486 0.4270 -2.1493
vt 4.3655 0.4269 -1.7985
vt 4.0912 0.4269 -2.1270
vt 3.9741 0.4269 -2.4357
vt 0.4147 -0.3787 0.7151
vt 0.4193 -0.3774 0.7159
vt 0.4122 -0.4080 0.7037
vt 0.4141 -0.4076 0.7039
vt 0.4168 -0.4070 0.7042
vt 0.4249 -0.3985 0.7079
vt 0.4274 -0.4032 0.7061
vt 0.4311 -0.4053 0.7055
vt 0.4407 -0.4064 0.7054
vt 0.4469 -0.4035 0.7068
vt 0.4643 -0.4101 0.7049
vt 0.4681 -0.4126 0.7041
vt 0.4721 -0.4155 0.7031
vt 0.4740 -0.3934 0.7118
vt 0.4659 -0.3919 0.7121
vt 0.4469 -0.3868 0.7133
vt 0.4414 -0.3857 0.7135
vt 0.4331 -0.3828 0.7143
vt 0.4300 -0.3789 0.7157
vt 0.4275 -0.3767 0.7164
vt 6.7353 0.4380 -2.7611
vt 0.5842 -0.3634 0.7278
vt 0.6020 -0.3651 0.7279
vt 6.9443 0.4171 -3.6361
vt 7.0570 0.4382 -2.8043
vt 0.2721 -0.3121 0.7354
vt 0.2796 -0.3137 0.7351
vt -0.2626 0.4829 -0.6407
vt -0.4129 0.4162 -3.3708
vt -0.4268 0.4101 -3.6235
vt 0.2373 0.4107 -3.6151
vt 0.8940 0.4338 -2.6683
vt 1.0591 0.4109 -3.6315
vt 1.2044 0.4336 -2.7109
vt 0.4345 -2.6902 1.5229
vt 0.4615 -1.5622 1.1598
vt 0.4347 -2.1605 1.4321
vt 1.2082 0.4347 -1.9070
vt 0.9715 0.4342 -2.1949
vt 7.2611 0.4386 -2.2144
vt 7.0308 0.4385 -1.8654
vt 6.8388 0.4381 -2.2191
vt 1.4321 0.4347 -2.1605
vt 0.5385 -1.5622 1.1598
vt 0.5662 -2.6683 0.8940
vt 0.5658 -2.1949 0.9715
vt -0.0915 0.4974 -1.2450
vt -0.1025 0.5037 -1.5038
vt 0.8227 0.4972 -1.2822
vt 0.8025 0.5036 -1.5617
vt 4.6526 0.5559 -4.0516
vt 3.4864 0.4975 -1.2217
vt 3.7933 0.4982 -1.2420
vt 0.2570 -0.0032 0.7815
vt 0.2584 -0.0313 0.7938
vt 0.2003 0.0059 0.7841
vt 0.1995 -0.0215 0.7951
vt 0.4469 -0.1125 0.8200
vt 0.4415 -0.1120 0.8200
vt 0.4491 -0.0607 0.7950
vt 0.4435 -0.0623 0.7962
# 1417 texture coords

g Ryytli14
usemtl Material__102
s 1
f 1/1 2/2 3/3 4/4 
f 4/4 3/3 5/5 6/6 
f 6/6 5/5 7/7 8/8 
usemtl Material__98
f 9/9 10/10 11/11 12/12 
usemtl Material__102
f 13/13 14/14 15/15 16/16 
f 14/14 13/13 17/17 18/18 
f 19/19 20/20 21/21 22/22 
f 22/22 21/21 23/23 24/24 
f 24/24 23/23 25/25 26/26 
f 26/26 25/25 27/27 28/28 
f 28/28 27/27 29/29 30/30 
f 30/30 29/29 31/31 32/32 
f 32/32 31/31 33/33 34/34 
f 34/34 33/33 35/35 36/36 
usemtl Material__90
f 37/37 38/38 39/39 40/40 
f 38/38 41/41 42/42 39/39 
f 41/41 43/43 44/44 42/42 
f 43/43 45/45 46/46 44/44 
f 45/45 47/47 48/48 46/46 
f 47/47 49/49 50/50 48/48 
f 49/49 51/51 52/52 50/50 
f 51/51 53/53 54/54 52/52 
f 53/53 55/55 56/56 54/54 
f 55/55 57/57 58/58 56/56 
f 57/57 59/59 60/60 58/58 
f 59/59 61/61 62/62 60/60 
f 61/61 63/63 64/64 62/62 
f 63/63 65/65 66/66 64/64 
f 65/65 67/67 68/68 66/66 
f 69/69 70/70 38/38 37/37 
usemtl Material__93
f 71/71 72/72 73/73 74/74 
usemtl Material__90
f 75/75 76/76 43/43 41/41 
usemtl Material__93
f 77/71 78/72 79/73 80/74 
usemtl Material__90
f 81/77 82/78 47/47 45/45 
usemtl Material__93
f 83/71 84/72 85/73 86/74 
usemtl Material__90
f 87/79 88/80 51/51 49/49 
usemtl Material__93
f 89/71 90/72 91/73 92/74 
usemtl Material__90
f 93/81 94/82 55/55 53/53 
usemtl Material__93
f 95/71 96/72 97/73 98/74 
usemtl Material__90
f 99/83 100/84 59/59 57/57 
usemtl Material__93
f 101/71 102/72 103/73 104/74 
usemtl Material__90
f 105/85 106/86 63/63 61/61 
usemtl Material__93
f 107/71 108/72 109/73 110/74 
usemtl Material__90
f 111/87 112/88 67/67 65/65 
f 113/89 114/90 70/70 69/69 
f 114/90 115/91 75/75 70/70 
f 115/91 116/92 76/76 75/75 
f 116/92 117/93 81/77 76/76 
f 117/93 118/94 82/78 81/77 
f 118/94 119/95 87/79 82/78 
f 119/95 120/96 88/80 87/79 
f 120/96 121/97 93/81 88/80 
f 121/97 122/98 94/82 93/81 
f 122/98 123/99 99/83 94/82 
f 123/99 124/100 100/84 99/83 
f 124/100 125/101 105/85 100/84 
f 125/101 126/102 106/86 105/85 
f 126/102 127/103 111/87 106/86 
f 127/103 128/104 112/88 111/87 
f 129/105 130/106 114/90 113/89 
usemtl Material__93
f 131/71 132/72 133/73 134/74 
usemtl Material__90
f 135/107 136/108 116/92 115/91 
usemtl Material__93
f 137/71 138/72 139/73 140/74 
usemtl Material__90
f 141/109 142/110 118/94 117/93 
f 142/110 143/111 119/95 118/94 
f 143/111 144/112 120/96 119/95 
usemtl Material__93
f 145/71 146/72 147/73 148/74 
usemtl Material__90
f 149/113 150/114 122/98 121/97 
f 150/114 151/115 123/99 122/98 
f 151/115 152/116 124/100 123/99 
usemtl Material__93
f 153/71 154/72 155/73 156/74 
usemtl Material__90
f 157/117 158/118 126/102 125/101 
usemtl Material__93
f 159/71 160/72 161/73 162/74 
usemtl Material__90
f 163/119 164/120 128/104 127/103 
f 165/121 166/122 130/106 129/105 
f 166/122 167/123 135/107 130/106 
f 167/123 168/124 136/108 135/107 
f 168/124 169/125 141/109 136/108 
f 170/126 171/127 144/112 143/111 
f 171/127 172/128 149/113 144/112 
f 172/128 173/129 150/114 149/113 
f 173/129 174/130 151/115 150/114 
f 174/130 175/131 152/116 151/115 
f 175/131 176/132 157/117 152/116 
f 176/132 177/133 158/118 157/117 
f 177/133 178/134 163/119 158/118 
f 178/134 179/135 164/120 163/119 
f 180/136 181/137 166/122 165/121 
usemtl Material__96
f 182/138 183/139 184/140 185/141 
usemtl Material__90
f 186/142 187/143 168/124 167/123 
usemtl Material__95
f 188/144 189/145 190/146 191/147 
usemtl Material__90
f 192/148 193/149 194/150 169/125 
usemtl Material__96
f 195/151 196/152 197/153 198/154 
usemtl Material__90
f 199/155 200/156 171/127 170/126 
usemtl Material__93
f 201/71 202/72 203/73 204/74 
usemtl Material__90
f 205/157 206/158 173/129 172/128 
f 206/158 207/159 174/130 173/129 
f 207/159 208/160 175/131 174/130 
usemtl Material__93
f 209/71 210/72 211/73 212/74 
usemtl Material__90
f 213/161 214/162 177/133 176/132 
usemtl Material__93
f 215/71 216/72 217/73 218/74 
usemtl Material__90
f 219/163 220/164 179/135 178/134 
f 221/165 222/166 181/137 180/136 
f 223/167 224/168 225/169 226/170 
f 227/171 228/172 187/143 186/142 
f 229/173 230/174 231/175 232/176 
f 233/177 234/178 193/149 192/148 
f 235/179 236/180 237/181 238/182 
f 239/183 240/184 200/156 199/155 
f 240/184 241/185 205/157 200/156 
f 241/185 242/186 206/158 205/157 
f 242/186 243/187 207/159 206/158 
f 243/187 244/188 208/160 207/159 
f 244/188 245/189 213/161 208/160 
f 245/189 246/190 214/162 213/161 
f 246/190 247/191 219/163 214/162 
f 247/191 248/192 220/164 219/163 
f 1/1 249/193 222/166 221/165 
usemtl Material__99
f 250/10 251/194 224/195 223/196 
usemtl Material__90
f 252/197 8/8 228/172 227/171 
usemtl Material__98
f 9/9 12/12 253/195 254/196 
usemtl Material__102
f 255/198 256/199 257/200 
usemtl Material__97
f 258/201 259/202 260/203 261/204 
usemtl Material__102
f 19/19 262/205 263/206 
usemtl Material__94
f 264/71 265/207 266/73 267/208 
usemtl Material__90
f 22/22 24/24 242/186 241/185 
f 24/24 26/26 243/187 242/186 
f 26/26 28/28 244/188 243/187 
usemtl Material__94
f 268/71 269/207 270/73 271/208 
usemtl Material__90
f 30/30 32/32 246/190 245/189 
usemtl Material__94
f 272/71 273/207 274/73 275/208 
usemtl Material__90
f 34/34 36/36 248/192 247/191 
usemtl Material__102
f 19/19 263/206 276/209 
f 18/18 17/17 277/210 
f 278/211 279/212 280/213 257/200 
usemtl Material__92
s off
f 74/214 73/215 41/216 38/217 
f 71/218 74/219 38/220 70/221 
f 72/222 71/223 70/224 75/225 
f 73/226 72/227 75/228 41/229 
f 80/230 79/231 45/232 43/233 
f 77/234 80/235 43/236 76/237 
f 78/238 77/239 76/240 81/241 
f 79/242 78/243 81/244 45/245 
f 86/246 85/247 49/248 47/249 
f 83/250 86/251 47/252 82/253 
f 84/254 83/255 82/256 87/257 
f 85/258 84/259 87/260 49/261 
f 92/262 91/263 53/264 51/265 
f 89/266 92/267 51/268 88/269 
f 90/270 89/271 88/272 93/273 
f 91/274 90/275 93/276 53/277 
f 98/278 97/279 57/280 55/281 
f 95/282 98/283 55/284 94/285 
f 96/286 95/287 94/288 99/289 
f 97/290 96/291 99/292 57/293 
f 104/294 103/295 61/296 59/297 
f 101/298 104/299 59/300 100/301 
f 102/302 101/303 100/304 105/305 
f 103/306 102/307 105/308 61/309 
f 110/310 109/311 65/312 63/313 
f 107/314 110/315 63/316 106/317 
f 108/318 107/319 106/320 111/321 
f 109/322 108/323 111/324 65/325 
f 134/326 133/327 115/328 114/329 
f 131/330 134/331 114/332 130/333 
f 132/334 131/335 130/336 135/337 
f 133/338 132/339 135/340 115/341 
f 140/342 139/343 117/344 116/345 
f 137/346 140/347 116/348 136/349 
f 138/350 137/351 136/352 141/353 
f 139/354 138/355 141/356 117/357 
f 148/358 147/359 121/360 120/361 
f 145/362 148/363 120/364 144/365 
f 146/366 145/367 144/368 149/369 
f 147/370 146/371 149/372 121/373 
f 156/374 155/375 125/376 124/377 
f 153/378 156/379 124/380 152/381 
f 154/382 153/383 152/384 157/385 
f 155/386 154/387 157/388 125/389 
f 162/390 161/391 127/392 126/393 
f 159/394 162/395 126/396 158/397 
f 160/398 159/399 158/400 163/401 
f 161/402 160/403 163/404 127/405 
f 204/406 203/407 172/408 171/409 
f 201/410 204/411 171/412 200/413 
f 202/414 201/415 200/416 205/417 
f 203/418 202/419 205/420 172/421 
f 212/422 211/423 176/424 175/425 
f 209/426 212/427 175/428 208/429 
f 210/430 209/431 208/432 213/433 
f 211/434 210/435 213/436 176/437 
f 218/438 217/439 178/440 177/441 
f 215/442 218/443 177/444 214/445 
f 216/446 215/447 214/448 219/449 
f 217/450 216/451 219/452 178/453 
f 267/454 266/455 241/456 240/457 
f 264/458 267/459 240/460 19/461 
f 265/462 264/463 19/464 22/465 
f 266/466 265/467 22/468 241/469 
f 271/470 270/471 245/472 244/473 
f 268/474 271/475 244/476 28/477 
f 269/478 268/479 28/480 30/481 
f 270/482 269/483 30/484 245/485 
f 275/486 274/487 247/488 246/489 
f 272/490 275/491 246/492 32/493 
f 273/494 272/495 32/496 34/497 
f 274/498 273/499 34/500 247/501 
f 12/502 11/503 278/504 257/505 
f 233/506 230/507 253/508 257/505 
f 253/508 12/502 257/505 
f 190/509 189/510 192/511 169/512 
f 191/513 190/514 169/515 168/516 
f 188/517 191/518 168/519 187/520 
f 187/520 228/521 229/522 232/523 
f 187/520 232/523 188/517 
f 9/524 254/525 229/522 228/521 
f 9/524 228/521 8/526 
f 10/527 9/524 8/526 7/528 
f 185/529 184/530 167/531 166/532 
f 182/533 185/534 166/535 181/536 
f 223/537 226/538 182/533 181/536 
f 223/537 181/536 222/539 
f 250/540 223/537 222/539 249/541 
f 251/542 250/543 249/544 252/545 
f 224/546 251/547 252/548 227/549 
f 186/550 183/551 225/552 227/549 
f 225/552 224/546 227/549 
f 184/553 183/551 186/550 167/554 
f 198/555 197/556 170/557 194/558 
f 195/559 198/560 194/561 193/562 
f 193/562 234/563 235/564 238/565 
f 193/562 238/565 195/559 
f 281/566 258/567 261/568 255/569 
f 261/568 256/570 255/569 
f 260/571 259/572 282/573 262/574 
f 282/573 263/575 262/574 
f 197/576 196/577 199/578 170/579 
s 1
f 283/580 284/581 285/582 286/583 
f 287/584 288/585 289/586 290/587 
f 291/588 292/589 293/590 294/591 
usemtl Material__102
s off
f 281/592 282/593 259/594 258/595 
usemtl Material__92
f 230/596 229/597 254/598 253/599 
f 236/600 235/601 295/602 296/603 
usemtl Material__102
f 297/604 276/605 282/593 281/592 
usemtl Material__92
f 263/575 282/573 276/606 
f 297/607 281/566 255/569 
usemtl Material__102
f 18/608 277/609 298/610 276/611 
f 14/612 18/613 276/605 297/604 
f 15/614 14/612 297/604 280/615 
f 16/616 15/617 280/618 279/619 
usemtl Material__90
s 1
f 8/8 252/197 6/6 
f 4/4 6/6 252/197 249/193 
f 4/4 249/193 1/1 
f 262/205 19/19 240/184 239/183 
usemtl Material__92
s off
f 239/620 236/621 296/622 260/571 
f 239/620 260/571 262/574 
usemtl Material__97
s 1
f 261/204 260/203 296/623 295/196 
usemtl Material__92
s off
f 295/624 235/564 234/563 256/570 
f 295/624 256/570 261/568 
usemtl Material__90
s 1
f 257/200 256/199 234/178 233/177 
usemtl Material__92
s off
f 299/625 300/626 301/66 302/68 
f 303/627 304/628 305/40 306/39 
f 307/629 303/627 306/39 308/42 
f 309/630 307/629 308/42 310/44 
f 311/631 309/630 310/44 312/46 
f 313/632 311/631 312/46 314/48 
f 315/633 313/632 314/48 316/50 
f 317/634 315/633 316/50 318/52 
f 319/635 317/634 318/52 320/54 
f 321/636 319/635 320/54 322/56 
f 323/637 321/636 322/56 324/58 
f 325/638 323/637 324/58 326/60 
f 327/639 325/638 326/60 328/62 
f 329/640 327/639 328/62 330/64 
f 300/626 329/640 330/64 301/66 
usemtl Material__90
f 331/641 332/642 333/626 334/625 
f 335/643 336/644 337/628 338/627 
f 339/645 335/643 338/627 340/629 
f 341/646 339/645 340/629 342/630 
f 343/647 341/646 342/630 344/631 
f 345/648 343/647 344/631 346/632 
f 347/649 345/648 346/632 348/633 
f 349/650 347/649 348/633 350/634 
f 351/651 349/650 350/634 352/635 
f 353/652 351/651 352/635 354/636 
f 355/653 353/652 354/636 356/637 
f 357/654 355/653 356/637 358/638 
f 359/655 357/654 358/638 360/639 
f 361/656 359/655 360/639 362/640 
f 332/642 361/656 362/640 333/626 
usemtl Material__92
f 363/657 364/658 365/659 366/660 
f 367/661 368/662 369/663 370/664 
f 371/665 367/661 370/664 372/666 
f 373/667 371/665 372/666 374/668 
f 375/669 373/667 374/668 376/670 
f 377/671 375/669 376/670 378/672 
f 379/673 377/671 378/672 380/674 
f 381/675 379/673 380/674 382/676 
f 383/677 381/675 382/676 384/678 
f 385/679 383/677 384/678 386/680 
f 387/681 385/679 386/680 388/682 
f 389/683 387/681 388/682 390/684 
f 391/685 389/683 390/684 392/686 
f 393/687 391/685 392/686 394/688 
f 364/658 393/687 394/688 365/659 
f 395/689 396/690 364/691 363/692 
f 397/693 398/694 368/695 367/696 
f 399/697 397/693 367/696 371/698 
f 400/699 399/697 371/698 373/700 
f 401/701 400/699 373/700 375/702 
f 402/703 401/701 375/702 377/704 
f 403/705 402/703 377/704 379/706 
f 404/707 403/705 379/706 381/708 
f 405/709 404/707 381/708 383/710 
f 406/711 405/709 383/710 385/712 
f 407/713 406/711 385/712 387/714 
f 408/715 407/713 387/714 389/716 
f 409/717 408/715 389/716 391/718 
f 410/719 409/717 391/718 393/720 
f 396/690 410/719 393/720 364/691 
f 411/721 412/722 396/723 395/724 
f 413/725 414/726 398/727 397/728 
f 415/729 413/725 397/728 399/730 
f 416/731 415/729 399/730 400/732 
f 417/733 416/731 400/732 401/734 
f 418/735 417/733 401/734 402/736 
f 419/737 418/735 402/736 403/738 
f 420/739 419/737 403/738 404/740 
f 421/741 420/739 404/740 405/742 
f 422/743 421/741 405/742 406/744 
f 423/745 422/743 406/744 407/746 
f 424/747 423/745 407/746 408/748 
f 425/749 424/747 408/748 409/750 
f 426/751 425/749 409/750 410/752 
f 412/722 426/751 410/752 396/723 
f 365/753 332/754 331/755 366/756 
f 369/757 336/758 335/759 370/760 
f 370/760 335/759 339/761 372/762 
f 372/762 339/761 341/763 374/764 
f 374/764 341/763 343/765 376/766 
f 376/766 343/765 345/767 378/768 
f 378/768 345/767 347/769 380/770 
f 380/770 347/769 349/771 382/772 
f 382/772 349/771 351/773 384/774 
f 384/774 351/773 353/775 386/776 
f 386/776 353/775 355/777 388/778 
f 388/778 355/777 357/779 390/780 
f 390/780 357/779 359/781 392/782 
f 392/782 359/781 361/783 394/784 
f 394/784 361/783 332/754 365/753 
f 427/785 428/786 412/787 411/788 
f 429/789 430/790 414/791 413/792 
f 431/793 429/789 413/792 415/794 
f 432/795 431/793 415/794 416/796 
f 433/797 432/795 416/796 417/798 
f 434/799 433/797 417/798 418/800 
f 435/801 434/799 418/800 419/802 
f 436/803 435/801 419/802 420/804 
f 421/805 437/805 438/806 436/803 
f 421/805 436/803 420/804 
f 421/805 422/807 439/808 440/809 
f 421/805 440/809 437/805 
f 441/810 439/808 422/807 423/811 
f 442/812 441/810 423/811 424/813 
f 443/814 442/812 424/813 425/815 
f 444/816 443/814 425/815 426/817 
f 428/786 444/816 426/817 412/787 
usemtl Material__90
f 445/818 428/819 427/820 446/821 
f 447/822 430/823 429/824 448/825 
f 449/826 450/827 451/828 452/829 
usemtl Material__103
f 453/830 454/831 455/832 456/833 
f 453/830 456/833 432/834 
f 457/835 453/830 432/834 433/836 
f 458/837 457/835 433/836 434/838 
f 459/839 458/837 434/838 435/840 
f 435/840 436/841 460/842 461/843 
f 435/840 461/843 462/844 459/839 
f 463/845 464/846 465/847 466/848 
f 467/849 468/850 469/851 
f 470/852 471/853 472/854 473/855 
f 470/852 473/855 439/856 441/857 
f 441/857 442/858 442/858 474/859 
f 441/857 474/859 470/852 
usemtl Material__90
f 475/860 476/861 477/862 478/863 
usemtl Material__103
f 479/864 480/865 481/866 482/867 
f 479/864 482/867 444/868 
f 445/869 483/870 479/864 428/871 
f 479/864 444/868 428/871 
f 484/872 485/873 486/874 487/875 
f 488/876 489/877 490/878 491/879 
f 492/880 493/881 494/882 495/883 
f 496/884 497/885 454/831 453/830 
f 498/886 496/884 453/830 457/835 
f 499/887 498/886 457/835 458/837 
f 500/888 499/887 458/837 459/839 
f 501/889 500/888 459/839 462/844 
f 502/890 503/891 504/892 505/893 
f 506/894 507/895 508/896 
f 497/885 506/894 508/896 509/897 
f 510/898 511/899 512/900 471/853 
f 513/901 510/898 471/853 470/852 
f 514/902 513/901 470/852 474/859 
f 515/903 514/902 474/859 480/865 
f 515/903 480/865 479/864 
f 479/904 483/905 516/906 
usemtl Material__90
f 517/907 518/908 519/909 511/910 
usemtl Material__103
f 520/911 521/912 514/913 515/914 
f 522/915 523/916 486/874 485/873 
f 487/917 486/918 524/919 525/920 
usemtl Material__90
f 484/921 487/922 525/923 516/924 
usemtl Material__103
f 485/925 484/926 516/927 483/928 
f 522/929 485/925 483/928 445/930 
usemtl Material__90
f 523/931 522/932 445/933 446/934 
usemtl Material__103
f 486/918 523/935 446/936 524/919 
f 490/878 526/937 527/938 491/879 
f 526/939 490/940 528/941 447/942 
usemtl Material__90
f 527/943 526/944 447/945 448/946 
usemtl Material__103
f 491/947 527/948 448/949 529/950 
f 508/951 507/952 488/953 509/954 
f 488/953 491/947 529/950 509/954 
usemtl Material__90
f 489/955 488/956 507/957 530/958 
usemtl Material__103
f 490/940 489/959 530/960 528/941 
usemtl Material__90
f 531/961 532/962 533/963 496/964 
f 534/965 531/961 496/964 498/966 
f 535/967 534/965 498/966 499/968 
f 536/969 535/967 499/968 500/970 
f 537/971 536/969 500/970 501/972 
f 538/973 537/971 501/972 539/974 
f 540/975 541/976 542/977 539/978 
f 542/977 538/979 539/978 
f 543/980 544/981 530/982 507/983 
f 545/984 543/980 507/983 506/985 
f 533/986 545/984 506/985 497/987 
f 497/987 496/988 533/986 
f 501/989 519/990 539/991 
usemtl Material__91
f 546/992 547/993 525/994 524/995 
f 331/996 546/992 524/995 446/997 
f 548/998 549/999 547/993 546/992 
f 35/1000 548/998 546/992 331/996 
usemtl Material__90
f 446/1001 427/1002 411/1003 
usemtl Material__91
f 544/1004 40/1005 337/1006 336/1007 
f 544/1004 1/1008 221/1009 180/1010 
f 544/1004 180/1010 165/1011 129/1012 
f 544/1004 129/1012 113/1013 69/1014 
f 544/1004 69/1014 37/1015 40/1005 
usemtl Material__102
s 1
f 276/209 298/1016 20/20 19/19 
f 257/200 280/213 297/1017 255/198 
usemtl Material__92
s off
f 192/511 189/510 231/1018 233/506 
f 231/1018 230/507 233/506 
f 199/578 196/577 237/1019 239/620 
f 237/1019 236/621 239/620 
usemtl Material__90
f 363/1020 446/1001 411/1003 395/1021 
f 363/1020 366/1022 331/1023 446/1001 
usemtl Material__91
f 530/1024 544/1004 447/1025 528/1026 
usemtl Material__90
f 414/1027 447/1028 368/1029 398/1030 
usemtl Material__91
f 336/1007 369/1031 368/1032 544/1004 
f 368/1032 447/1025 544/1004 
usemtl Material__90
f 414/1027 430/1033 447/1028 
f 518/1034 540/1035 539/991 519/990 
usemtl Material__103
f 521/912 550/1036 513/1037 514/913 
f 551/1038 520/911 515/914 479/904 
usemtl Material__91
f 547/993 552/1039 553/1040 525/994 
f 552/1039 547/993 549/999 554/1041 
f 552/1039 554/1041 555/1042 
usemtl Material__90
f 545/1043 556/1044 557/1045 558/1046 
f 559/1047 532/1048 560/1049 561/1050 
usemtl Material__91
f 562/1051 544/1004 563/1052 
usemtl Material__90
f 543/1053 564/1054 563/1055 544/1056 
f 562/1057 563/1058 565/1059 566/1060 
f 543/1053 545/1043 558/1046 564/1054 
f 532/1048 559/1047 567/1061 533/1062 
f 545/1063 533/1062 567/1061 556/1064 
usemtl Material__91
f 562/1051 1/1008 544/1004 
f 1/1008 562/1051 566/1065 2/1066 
f 2/1066 566/1065 565/1067 568/1068 
usemtl Material__103
f 510/1069 569/1070 517/1071 511/1072 
f 550/1036 569/1070 510/1069 513/1037 
f 516/906 570/1073 551/1038 479/904 
f 553/1074 570/1073 516/906 525/1075 
usemtl Material__90
s 16
f 571/1076 572/1077 573/1078 574/1079 
f 571/1076 574/1079 575/1080 576/1081 
s off
f 577/1082 571/1083 576/1084 578/1085 
usemtl Material__104
s 4
f 579/1086 580/1087 581/1088 572/1089 
usemtl Material__90
s 16
f 582/1090 583/1091 584/1092 579/1093 
f 582/1090 579/1093 577/1094 578/1095 
usemtl Material__104
s 8
f 580/1096 579/1097 584/1098 
f 573/1099 572/1100 581/1101 
s 2
f 585/1102 586/1103 587/1104 588/1105 
usemtl Material__90
s off
f 589/1106 590/1107 585/1108 588/1109 
f 589/1106 588/1109 591/1110 
s 4
f 592/1111 593/1112 594/1113 587/1114 
f 592/1111 587/1114 586/1115 
s 2
f 591/1116 594/1117 593/1118 589/1119 
usemtl Material__104
s 8
f 588/1105 587/1104 594/1120 591/1121 
usemtl Material__102
s 1
f 595/1122 596/1123 597/1124 598/1125 
usemtl Material__90
s 8
f 586/1126 585/1127 590/1128 592/1129 
usemtl Material__104
s 1
f 599/1130 600/1131 580/1087 584/1132 
usemtl Material__92
f 601/1133 602/1134 603/1135 604/1136 
s 2
f 601/1137 604/1138 605/1139 606/1140 
s 4
f 602/1141 601/1142 606/1143 600/1144 
s 2
f 603/1145 602/1146 600/1147 599/1148 
s 4
f 604/1149 603/1150 599/1151 605/1152 
usemtl Material__104
f 579/1086 572/1089 571/1153 577/1154 
s 1
f 581/1088 600/1131 606/1155 
f 589/1156 593/1157 584/1132 583/1158 
f 596/1159 590/1160 607/1161 569/1162 
f 569/1162 608/1163 597/1164 596/1159 
f 599/1130 584/1132 595/1165 598/1166 
f 600/1131 581/1088 580/1087 
f 570/1167 553/1168 573/1169 581/1088 
f 581/1088 606/1155 605/1170 570/1167 
f 570/1167 605/1170 551/1171 
f 592/1172 595/1165 584/1132 593/1157 
f 592/1172 590/1160 596/1159 595/1165 
usemtl Material__90
s off
f 590/1107 589/1106 583/1173 518/1174 
f 609/1175 540/1176 518/1174 610/1177 
f 582/1178 610/1177 518/1174 583/1173 
f 590/1107 518/1174 517/1179 607/1180 
f 611/1181 612/1182 575/1183 574/1184 
f 611/1181 574/1184 613/1185 
usemtl Material__104
s 1
f 614/1186 574/1187 573/1169 553/1168 
usemtl Material__90
f 613/1185 574/1184 614/1188 
usemtl Material__104
f 598/1166 597/1164 608/1163 605/1170 
f 608/1163 551/1171 605/1170 
f 598/1166 605/1170 599/1130 
usemtl Material__105
s 4
f 556/1189 567/1190 615/1191 616/1192 
f 556/1189 616/1192 617/1193 557/1194 
usemtl Material__90
s 8
f 618/1195 619/1196 620/1197 621/1198 
s 16
f 618/1199 621/1200 566/1201 622/1202 
f 615/1203 567/1204 559/1205 623/1206 
s 32
f 616/1207 615/1208 623/1209 624/1210 
s 64
f 617/1211 616/1212 624/1213 625/1214 
f 619/1215 617/1211 625/1214 620/1216 
s off
f 626/1217 627/1218 619/1196 618/1195 
f 626/1219 618/1199 622/1202 562/1220 
f 627/1221 628/1222 617/1211 619/1215 
usemtl Material__105
s 4
f 564/1223 558/1224 628/1225 563/1226 
f 626/1227 562/1228 563/1226 627/1229 
f 628/1225 627/1229 563/1226 
usemtl Material__90
s off
f 628/1230 558/1231 557/1232 617/1233 
usemtl Material__92
f 285/1234 284/1235 226/1236 225/1237 
f 286/1238 285/1239 225/1240 183/1241 
f 283/1242 286/1243 183/1244 182/1245 
f 284/1246 283/1247 182/1248 226/1249 
f 289/1250 288/1251 232/1252 231/1253 
f 290/1254 289/1255 231/1256 189/1257 
f 287/1258 290/1259 189/1260 188/1261 
f 288/1262 287/1263 188/1264 232/1265 
f 293/1266 292/1267 238/1268 237/1269 
f 294/1270 293/1271 237/1272 196/1273 
f 291/1274 294/1275 196/1276 195/1277 
f 292/1278 291/1279 195/1280 238/1281 
f 302/68 301/66 66/66 68/68 
f 299/625 302/68 68/68 334/625 
f 300/626 299/625 334/625 333/626 
f 329/640 300/626 333/626 362/640 
f 327/639 329/640 362/640 360/639 
f 325/638 327/639 360/639 358/638 
f 323/637 325/638 358/638 356/637 
f 321/636 323/637 356/637 354/636 
f 319/635 321/636 354/636 352/635 
f 317/634 319/635 352/635 350/634 
f 315/633 317/634 350/634 348/633 
f 313/632 315/633 348/633 346/632 
f 311/631 313/632 346/632 344/631 
f 309/630 311/631 344/631 342/630 
f 307/629 309/630 342/630 340/629 
f 303/627 307/629 340/629 338/627 
f 304/628 303/627 338/627 337/628 
f 305/40 304/628 337/1006 40/1005 
f 306/39 305/40 40/40 39/39 
f 308/42 306/39 39/39 42/42 
f 310/44 308/42 42/42 44/44 
f 312/46 310/44 44/44 46/46 
f 314/48 312/46 46/46 48/48 
f 316/50 314/48 48/48 50/50 
f 318/52 316/50 50/50 52/52 
f 320/54 318/52 52/52 54/54 
f 322/56 320/54 54/54 56/56 
f 324/58 322/56 56/56 58/58 
f 326/60 324/58 58/58 60/60 
f 328/62 326/60 60/60 62/62 
f 330/64 328/62 62/62 64/64 
f 301/66 330/64 64/64 66/66 
usemtl Material__90
s 1
f 194/150 629/1282 630/1283 631/1284 
f 194/150 631/1284 632/1285 633/1286 
f 194/150 633/1286 634/1287 635/1288 
f 194/150 635/1288 636/1289 169/125 
f 637/1290 638/1291 639/1292 142/110 
f 639/1292 640/1293 142/110 
f 641/1294 637/1290 142/110 141/109 
f 642/1295 641/1294 141/109 169/125 
f 636/1289 642/1295 169/125 
f 142/110 640/1293 643/1296 143/111 
f 644/1297 629/1282 194/150 645/1298 
f 646/1299 645/1298 194/150 170/126 
f 646/1299 170/126 143/111 647/1300 
f 643/1296 647/1300 143/111 
usemtl Material__101
f 645/1301 646/1302 647/1303 643/1304 
f 640/1305 629/1306 644/1307 643/1304 
f 645/1301 643/1304 644/1307 
f 642/1308 636/1309 635/1310 634/1311 
f 629/1306 640/1305 639/1312 630/1313 
f 630/1313 639/1312 638/1314 631/1315 
f 632/1316 631/1315 638/1314 637/1317 
f 633/1318 632/1316 637/1317 634/1311 
f 642/1308 634/1311 637/1317 641/1319 
usemtl Material__103
s off
f 471/853 512/900 648/1320 649/1321 
f 471/853 649/1321 472/854 
f 650/1322 463/845 466/848 
s 2
f 651/1323 469/851 468/850 652/1324 
f 463/845 650/1322 653/1325 654/1326 
f 655/1327 656/1328 657/1329 658/1330 
f 656/1328 651/1323 652/1324 657/1329 
f 658/1330 659/1331 660/1332 655/1327 
f 659/1331 654/1326 653/1325 660/1332 
s off
f 648/1320 512/900 661/1333 662/1334 
f 648/1320 662/1334 462/844 461/843 
f 648/1320 461/843 663/1335 
f 664/1336 468/850 467/849 665/1337 
f 460/842 436/841 666/1338 
f 438/1339 667/1340 666/1338 436/841 
f 668/1341 440/1342 439/856 669/1343 
f 669/1343 439/856 473/855 
f 668/1341 667/1340 438/1339 437/1344 
f 668/1341 437/1344 440/1342 
usemtl Material__93
f 670/1345 671/1346 672/1347 673/1348 
f 673/1348 674/1349 675/1350 670/1345 
f 670/1345 675/1350 676/1351 
usemtl Material__103
s 2
f 649/1321 648/1320 677/1352 
f 677/1352 648/1320 678/1353 
f 678/1353 648/1320 679/1354 
f 679/1354 648/1320 680/1355 
f 680/1355 648/1320 681/1356 
f 681/1356 648/1320 663/1335 
usemtl Material__90
s off
f 464/1357 463/1358 663/1358 461/1357 
f 465/1359 464/1357 461/1357 460/1359 
usemtl Material__92
s 4
f 466/1360 465/1359 460/1359 666/1360 
f 650/1361 466/1360 666/1360 667/1361 
f 653/1362 650/1361 667/1361 682/1362 
f 660/1363 653/1362 682/1362 683/1363 
f 655/1364 660/1363 683/1363 684/1364 
f 656/1365 655/1364 684/1364 685/1365 
f 651/1366 656/1365 685/1365 686/1366 
f 469/1367 651/1366 686/1366 668/1367 
f 467/1368 469/1367 668/1367 669/1368 
f 665/1369 467/1368 669/1368 473/1369 
usemtl Material__90
s off
f 664/1370 665/1369 473/1369 472/1370 
f 468/1371 664/1370 472/1370 649/1371 
f 652/1372 468/1371 649/1371 677/1372 
f 657/1373 652/1372 677/1372 678/1373 
f 658/1374 657/1373 678/1373 679/1374 
f 659/1375 658/1374 679/1374 680/1375 
f 654/1376 659/1375 680/1375 681/1376 
f 463/1358 654/1376 681/1376 663/1358 
usemtl Material__92
f 687/1361 688/1362 682/1362 667/1361 
usemtl Material__90
f 689/1367 687/1361 667/1361 668/1367 
usemtl Material__92
f 690/1366 689/1367 668/1367 686/1366 
f 691/1365 690/1366 686/1366 685/1365 
f 692/1364 691/1365 685/1365 684/1364 
f 693/1363 692/1364 684/1364 683/1363 
f 688/1362 693/1363 683/1363 682/1362 
usemtl Material__103
f 474/859 442/858 476/1377 481/866 
f 474/859 481/866 480/865 
usemtl Material__90
f 694/1378 478/863 477/862 482/1379 
usemtl Material__103
f 476/1377 442/858 442/858 443/1380 
f 476/1377 443/1380 477/1381 
f 477/1381 443/1380 444/868 482/867 
usemtl Material__90
f 695/1382 452/829 451/828 456/1383 
usemtl Material__103
f 529/1384 448/1385 429/1386 696/1387 
f 529/1384 696/1387 450/1388 455/832 
f 529/1384 455/832 454/831 
f 696/1387 429/1386 431/1389 451/1390 
f 696/1387 451/1390 450/1388 
f 451/1390 431/1389 432/834 456/833 
s 2
f 456/1391 455/1392 695/1393 
f 452/1394 455/832 449/1395 
f 482/867 481/866 694/1396 
f 478/1397 481/866 475/1398 
f 481/866 478/1397 694/1396 
f 481/866 476/1377 475/1398 
f 455/832 452/1394 695/1399 
f 455/1400 450/1401 449/1402 
s off
f 529/1384 697/1403 698/1404 509/897 
f 697/1403 529/1384 454/831 699/1405 
f 699/1405 454/831 497/885 700/1406 
f 700/1406 497/885 509/897 698/1404 
f 511/899 519/1407 501/889 661/1333 
f 462/844 662/1334 701/1408 501/889 
f 501/889 701/1408 702/1409 661/1333 
f 511/899 661/1333 512/900 
usemtl Material__92
f 495/1410 494/1411 699/1411 700/1410 
f 492/1412 495/1410 700/1410 698/1412 
f 493/1413 492/1412 698/1412 697/1413 
f 494/1411 493/1413 697/1413 699/1411 
f 502/1414 505/1415 662/1415 661/1414 
f 503/1416 502/1414 661/1414 702/1416 
f 504/1417 503/1416 702/1416 701/1417 
f 505/1415 504/1417 701/1417 662/1415 
usemtl Material__90
s 4
f 703/1361 704/1362 688/1362 687/1361 
f 705/1367 703/1361 687/1361 689/1367 
f 706/1366 705/1367 689/1367 690/1366 
f 707/1365 706/1366 690/1366 691/1365 
f 708/1364 707/1365 691/1365 692/1364 
f 709/1363 708/1364 692/1364 693/1363 
f 704/1362 709/1363 693/1363 688/1362 
usemtl Material__92
s off
f 674/1361 673/1362 704/1362 703/1361 
f 675/1367 674/1361 703/1361 705/1367 
f 676/1366 675/1367 705/1367 706/1366 
f 670/1365 676/1366 706/1366 707/1365 
f 671/1364 670/1365 707/1365 708/1364 
f 672/1363 671/1364 708/1364 709/1363 
f 673/1362 672/1363 709/1363 704/1362 
# 632 polygons - 81 triangles

