# 3ds Max Wavefront OBJ Exporter v0.97b - (c)2007 guruware
# File Created: 21.03.2012 11:22:06

mtllib Toompea8_3-origo.mtl

#
# object Toompea_8_3
#

v  541941.2238 6588573.243 27.4581
v  541941.2238 6588573.243 28.4013
v  541939.8392 6588572.9704 28.4013
v  541939.8392 6588572.9704 27.4581
v  541938.7333 6588586.0031 27.4472
v  541937.5142 6588585.7572 27.4472
v  541937.5142 6588585.7572 28.3591
v  541938.7333 6588586.0031 28.3591
v  541943.799 6588573.7485 27.4472
v  541943.4032 6588575.7849 27.4472
v  541943.4032 6588575.7849 28.3591
v  541943.799 6588573.7485 28.3591
v  541932.299 6588571.4918 28.3943
v  541931.9858 6588573.0053 28.3943
v  541931.9877 6588573.0057 27.4563
v  541932.301 6588571.4922 27.4563
v  541941.3151 6588586.5237 27.4472
v  541939.8221 6588586.2226 27.4472
v  541939.8221 6588586.2226 28.3591
v  541941.3151 6588586.5237 28.3591
v  541942.2997 6588573.4541 27.4581
v  541942.2997 6588573.4541 28.4013
v  541937.5142 6588585.7572 30.2202
v  541938.7333 6588586.0031 30.2202
v  541931.982 6588573.0045 30.2202
v  541932.2953 6588571.491 30.2202
v  541941.2238 6588573.243 30.2202
v  541939.8392 6588572.9704 30.2202
v  541941.1923 6588573.4034 30.2202
v  541941.1923 6588573.4034 28.4013
v  541942.2681 6588573.6145 28.4013
v  541942.2681 6588573.6145 30.2202
v  541943.799 6588573.7485 30.2202
v  541942.2997 6588573.4541 30.2202
v  541943.4032 6588575.7849 30.2202
v  541939.8221 6588586.2226 30.2202
v  541941.3151 6588586.5237 30.2202
v  541938.7902 6588585.722 28.3591
v  541938.7902 6588585.722 30.2202
v  541939.8785 6588585.9416 30.2202
v  541939.8785 6588585.9416 28.3591
v  541937.5142 6588585.7572 30.8038
v  541938.7333 6588586.0031 30.8038
v  541932.294 6588571.4907 30.8038
v  541931.9847 6588572.9852 30.8038
v  541941.2238 6588573.243 30.8038
v  541939.8392 6588572.9704 30.8038
v  541942.2997 6588573.4541 30.8038
v  541943.799 6588573.7485 30.8038
v  541943.4032 6588575.7849 30.8038
v  541939.8221 6588586.2226 30.8038
v  541941.3151 6588586.5237 30.8038
v  541937.5704 6588585.4762 28.3591
v  541936.482 6588585.2567 28.3591
v  541936.482 6588585.2567 30.2202
v  541937.5704 6588585.4762 30.2202
v  541936.4254 6588585.5378 27.4472
v  541936.4254 6588585.5378 28.3591
v  541938.7634 6588572.7593 28.4013
v  541938.7634 6588572.7593 27.4581
v  541939.8077 6588573.1306 28.4013
v  541939.8077 6588573.1306 30.2202
v  541938.7318 6588572.9196 30.2202
v  541938.7318 6588572.9196 28.4013
v  541938.7634 6588572.7593 30.8038
v  541938.7634 6588572.7593 30.2202
v  541936.4254 6588585.5378 30.2202
v  541936.4254 6588585.5378 30.8038
v  541935.0732 6588585.2652 28.3943
v  541935.0732 6588585.2652 30.2202
v  541935.0732 6588585.2652 27.4563
v  541937.3809 6588572.4877 28.3943
v  541937.3809 6588572.4877 27.4563
v  541937.3809 6588572.4877 30.2202
v  541937.3809 6588572.4877 30.8038
v  541935.0732 6588585.2652 30.8038
v  541935.1297 6588584.9841 28.3943
v  541934.0475 6588584.7658 28.3943
v  541934.0475 6588584.7658 30.2202
v  541935.1297 6588584.9841 30.2202
v  541933.9909 6588585.0469 27.4563
v  541933.9909 6588585.0469 28.3943
v  541936.311 6588572.2778 28.3943
v  541936.311 6588572.2778 27.4563
v  541937.349 6588572.6481 28.3943
v  541937.349 6588572.6481 30.2202
v  541936.2795 6588572.4382 30.2202
v  541936.2795 6588572.4382 28.3943
v  541936.311 6588572.2778 30.8038
v  541936.311 6588572.2778 30.2202
v  541933.9909 6588585.0469 30.2202
v  541933.9909 6588585.0469 30.8038
v  541933.1646 6588584.8802 28.3943
v  541933.1646 6588584.8802 30.2202
v  541933.1646 6588584.8802 27.4563
v  541934.9055 6588571.9988 28.3943
v  541934.9055 6588571.9988 27.4563
v  541934.9055 6588571.9988 30.2202
v  541934.9055 6588571.9988 30.8038
v  541933.1646 6588584.8802 30.8038
v  541933.2213 6588584.5992 28.3943
v  541932.2739 6588584.4083 28.3943
v  541932.2739 6588584.4083 30.2202
v  541933.2213 6588584.5992 30.2202
v  541932.2173 6588584.6893 27.4563
v  541932.2173 6588584.6893 28.3943
v  541933.805 6588571.782 28.3943
v  541933.805 6588571.782 27.4563
v  541934.874 6588572.1592 28.3943
v  541934.874 6588572.1592 30.2202
v  541933.7735 6588571.9425 30.2202
v  541933.7735 6588571.9425 28.3943
v  541933.805 6588571.782 30.8038
v  541933.805 6588571.782 30.2202
v  541932.2173 6588584.6893 30.2202
v  541932.2173 6588584.6893 30.8038
v  541931.6554 6588584.5759 28.3943
v  541931.6554 6588584.5759 30.2202
v  541931.6554 6588584.5759 27.4563
v  541932.9823 6588571.6243 27.4563
v  541932.9823 6588571.6243 28.3943
v  541932.9823 6588571.6243 30.2202
v  541932.9823 6588571.6243 30.8038
v  541931.6554 6588584.5759 30.8038
v  541931.7124 6588584.2949 28.3943
v  541930.7613 6588584.103 28.3943
v  541930.7613 6588584.103 30.2202
v  541931.7124 6588584.2949 30.2202
v  541930.7041 6588584.3842 27.4563
v  541930.7041 6588584.3842 28.3943
v  541930.7041 6588584.3842 30.2202
v  541930.7041 6588584.3842 30.8038
v  541929.6735 6588584.1762 28.3943
v  541929.6697 6588584.1754 30.2202
v  541929.6754 6588584.1766 27.4563
v  541929.6685 6588584.1752 30.8038
v  541943.1856 6588576.9031 27.4472
v  541943.1856 6588576.9031 28.3591
v  541931.7659 6588574.0673 28.3943
v  541931.7679 6588574.0677 27.4563
v  541932.0031 6588574.1164 28.3943
v  541932.2231 6588573.0544 28.3943
v  541932.2231 6588573.0544 30.2202
v  541932.0031 6588574.1164 30.2202
v  541931.764 6588574.0512 30.8038
v  541931.7622 6588574.0665 30.2202
v  541943.1856 6588576.9031 30.2202
v  541943.1856 6588576.9031 30.8038
v  541943.1896 6588575.7418 28.3591
v  541942.9718 6588576.86 28.3591
v  541942.9718 6588576.86 30.2202
v  541943.1896 6588575.7418 30.2202
v  541942.575 6588579.9526 27.4472
v  541942.3452 6588581.2921 27.4472
v  541942.3328 6588581.2898 28.3591
v  541942.5913 6588579.9567 28.3591
v  541931.4406 6588575.6391 28.3943
v  541931.4425 6588575.6395 27.4563
v  541931.4368 6588575.6383 30.2202
v  541931.4374 6588575.6292 30.8038
v  541942.3735 6588581.0876 30.7485
v  541942.5904 6588579.9605 30.8038
v  541942.5908 6588579.9593 30.0094
v  541942.3328 6588581.2898 29.9095
v  541942.3762 6588581.0744 30.8038
v  541942.2972 6588581.2827 27.4456
v  541942.0063 6588582.7786 27.4456
v  541942.0063 6588582.7786 28.3591
v  541942.2972 6588581.2827 28.3591
v  541931.2199 6588576.705 28.3943
v  541931.2219 6588576.7054 27.4563
v  541931.4435 6588576.7515 28.3943
v  541931.6655 6588575.6861 28.3943
v  541931.6655 6588575.6861 30.2202
v  541931.4435 6588576.7515 30.2202
v  541931.2159 6588576.6995 30.8038
v  541931.2162 6588576.7043 30.2202
v  541942.0418 6588582.7856 29.9095
v  541941.9971 6588583.0072 30.7386
v  541942.0063 6588582.7786 29.9095
v  541942.2972 6588581.2827 29.9095
v  541942.0542 6588582.7882 27.4472
v  541942.0418 6588582.7856 28.3591
v  541930.9231 6588578.1392 28.3943
v  541930.9253 6588578.1382 27.4563
v  541930.9187 6588578.1413 30.2202
v  541930.9173 6588578.1421 30.8038
v  541941.9936 6588583.0247 30.8038
v  541942.0359 6588583.0548 30.8038
v  541942.4207 6588581.0927 30.8038
v  541942.6371 6588579.9678 30.8038
v  541943.2368 6588576.8864 30.8038
v  541943.4562 6588575.7593 30.8038
v  541943.8551 6588573.7065 30.8038
v  541942.3437 6588573.4097 30.8038
v  541941.2593 6588573.1969 30.8038
v  541939.8638 6588572.9221 30.8038
v  541938.7794 6588572.7093 30.8038
v  541937.3854 6588572.4357 30.8038
v  541936.3074 6588572.2239 30.8038
v  541934.8904 6588571.9428 30.8038
v  541933.7809 6588571.7242 30.8038
v  541932.9521 6588571.5651 30.8038
v  541932.3046 6588571.44 30.8038
v  541929.658 6588584.2259 30.8038
v  541930.6556 6588584.4272 30.8038
v  541931.6144 6588584.6205 30.8038
v  541932.1809 6588584.7348 30.8038
v  541933.1354 6588584.9272 30.8038
v  541933.9684 6588585.0951 30.8038
v  541935.0597 6588585.3152 30.8038
v  541936.4224 6588585.59 30.8038
v  541937.5197 6588585.811 30.8038
v  541938.7488 6588586.0591 30.8038
v  541939.8463 6588586.2805 30.8038
v  541941.3512 6588586.584 30.8038
v  541942.0839 6588582.8171 31.1307
v  541942.3266 6588581.5594 31.1307
v  541942.637 6588579.9683 31.1307
v  541943.4562 6588575.7593 31.1307
v  541943.2368 6588576.8864 31.1307
v  541943.8551 6588573.7065 31.1307
v  541942.3437 6588573.4097 31.1307
v  541941.2593 6588573.1969 31.1307
v  541939.8638 6588572.9221 31.1307
v  541938.7794 6588572.7093 31.1307
v  541937.3854 6588572.4357 31.1307
v  541936.3074 6588572.2239 31.1307
v  541934.8904 6588571.9428 31.1307
v  541933.7809 6588571.7242 31.1307
v  541932.9521 6588571.5651 31.1307
v  541932.3039 6588571.4399 31.1307
v  541931.9881 6588572.9657 31.1307
v  541931.7665 6588574.0361 31.1307
v  541931.4385 6588575.6204 31.1307
v  541931.2162 6588576.6948 31.1307
v  541930.9164 6588578.1429 31.1307
v  541930.6556 6588584.4272 31.1307
v  541929.6573 6588584.2257 31.1306
v  541931.6144 6588584.6205 31.1307
v  541932.1809 6588584.7348 31.1307
v  541933.1354 6588584.9272 31.1307
v  541933.9684 6588585.0951 31.1307
v  541935.0597 6588585.3152 31.1307
v  541936.4224 6588585.59 31.1307
v  541937.5197 6588585.811 31.1307
v  541938.7488 6588586.0591 31.1307
v  541939.8463 6588586.2805 31.1307
v  541941.3512 6588586.584 31.1307
v  541942.6181 6588581.6164 31.4193
v  541942.9303 6588580.0145 31.4193
v  541943.5597 6588576.7802 31.4193
v  541943.79 6588575.5968 31.4193
v  541944.2089 6588573.4414 31.4193
v  541942.6219 6588573.1301 31.4193
v  541941.483 6588572.9065 31.4193
v  541940.0178 6588572.6179 31.4193
v  541938.8791 6588572.3945 31.4193
v  541937.4159 6588572.1071 31.4193
v  541936.2835 6588571.8849 31.4193
v  541934.7961 6588571.5896 31.4193
v  541933.6312 6588571.36 31.4193
v  541933.0324 6588571.2453 31.4193
v  541932.9445 6588571.2284 31.4193
v  541932.7607 6588571.1932 31.4193
v  541932.3694 6588571.1201 31.4193
v  541932.2369 6588571.7582 31.6444
v  541932.0367 6588572.7217 31.9843
v  541931.8033 6588573.8456 32.3472
v  541931.4579 6588575.5089 32.8573
v  541931.2238 6588576.6366 33.1766
v  541930.9486 6588577.9622 33.5625
v  541929.5906 6588584.5452 31.4193
v  541930.3494 6588584.6982 31.4193
v  541931.3562 6588584.9012 31.4193
v  541930.3944 6588584.7075 31.4193
v  541931.951 6588585.0212 31.4193
v  541932.9532 6588585.2232 31.4193
v  541933.828 6588585.3995 31.4193
v  541934.9736 6588585.6307 31.4193
v  541936.4047 6588585.9193 31.4193
v  541937.5568 6588586.1515 31.4193
v  541938.8472 6588586.4117 31.4193
v  541939.9996 6588586.6442 31.4193
v  541941.5798 6588586.9626 31.4193
v  541942.3761 6588582.8731 31.4193
v  541943.2353 6588574.1981 31.6876
v  541936.916 6588579.1094 33.4290
v  541929.7213 6588583.9115 31.6256
v  541932.806 6588571.8846 31.6467
v  541938.3375 6588581.4828 32.8639
v  541941.0416 6588586.0563 31.6513
v  541931.7197 6588578.1101 33.5449
v  541939.0681 6588582.5839 32.5056
v  541938.7956 6588582.1684 32.6411
v  541930.5197 6588584.0627 31.6274
v  541932.8636 6588571.7514 32.1176
v  541931.7369 6588578.1173 34.0152
v  541930.9469 6588577.9654 34.0329
v  541932.2647 6588571.6189 32.1153
v  541930.4962 6588584.21 32.0971
v  541929.6901 6588584.0573 32.0953
v  541942.0116 6588582.7974 31.5481
v  541941.707 6588582.7144 31.6512
v  541939.3637 6588580.9976 32.5651
v  541942.6933 6588581.67 32.5651
v  541942.7719 6588581.3558 32.4315
v  541939.3922 6588580.6744 32.4315
v  541942.2567 6588581.5819 32.5651
v  541939.2574 6588582.2359 32.5654
v  541939.3096 6588581.613 32.8195
v  541939.3919 6588580.6753 32.5263
v  541939.2256 6588582.6146 32.4108
v  541942.7717 6588581.3568 32.5263
v  541942.6931 6588581.6707 32.6599
v  541942.368 6588583.2492 32.5056
v  541942.3681 6588583.2484 32.4108
v  541942.5439 6588582.2682 32.9143
v  541942.4345 6588582.8783 32.6601
v  541942.5438 6588582.2684 32.8195
v  541942.4346 6588582.8778 32.5653
v  541942.0181 6588582.7937 32.5653
v  541942.0081 6588581.5106 31.6239
v  541942.2803 6588581.5582 31.5326
v  541942.1199 6588582.1826 32.8195
v  541939.2574 6588582.2359 31.3150
v  541939.3096 6588581.613 31.3147
v  541939.3637 6588580.9976 31.3148
v  541941.9412 6588582.6302 31.3086
v  541941.8915 6588582.6126 32.3428
v  541942.0716 6588581.699 32.3427
v  541942.1241 6588581.6821 31.3086
v  541942.2878 6588581.7141 31.3167
v  541942.1049 6588582.6622 31.3167
v  541942.2353 6588581.731 32.3507
v  541942.0552 6588582.6446 32.3509
v  541943.475 6588581.408 30.4723
v  541943.0985 6588583.3274 30.4624
v  541943.095 6588583.3449 30.5276
v  541943.4776 6588581.3947 30.5276
v  541936.4117 6588585.6057 26.5375
v  541935.0595 6588585.333 26.5375
v  541935.0595 6588585.333 27.4563
v  541936.4117 6588585.6057 27.4472
v  541937.5004 6588585.8251 27.4472
v  541937.5004 6588585.8251 26.5375
v  541938.7197 6588586.071 27.4472
v  541938.7197 6588586.071 26.5375
v  541939.8084 6588586.2905 27.4472
v  541939.8084 6588586.2905 26.5375
v  541941.3542 6588586.5828 27.4467
v  541941.3542 6588586.5828 26.5370
v  541942.0857 6588582.7935 27.4462
v  541942.0772 6588582.7918 26.5366
v  541942.0063 6588582.7786 26.5375
v  541942.2972 6588581.2827 26.5375
v  541942.3681 6588581.2967 26.5359
v  541942.3766 6588581.2985 27.4456
v  541942.6429 6588579.9663 27.4461
v  541942.6373 6588579.9649 26.5364
v  541943.2535 6588576.9165 27.4468
v  541943.2535 6588576.9165 26.5372
v  541943.4712 6588575.7982 27.4472
v  541943.4712 6588575.7982 26.5375
v  541943.8933 6588573.7047 27.4472
v  541943.8933 6588573.7047 26.5375
v  541942.3129 6588573.3861 27.4581
v  541942.3129 6588573.3861 26.5375
v  541941.2371 6588573.175 27.4581
v  541941.2371 6588573.175 26.5375
v  541939.8526 6588572.9024 27.4581
v  541939.8526 6588572.9024 26.5375
v  541938.7766 6588572.6912 27.4581
v  541938.7766 6588572.6912 26.5375
v  541937.3942 6588572.4196 27.4563
v  541937.3942 6588572.4196 26.5375
v  541936.3244 6588572.2098 27.4563
v  541936.3244 6588572.2098 26.5375
v  541934.9189 6588571.9309 27.4563
v  541934.9189 6588571.9309 26.5375
v  541933.8182 6588571.714 27.4563
v  541933.8182 6588571.714 26.5375
v  541932.9955 6588571.5562 27.4563
v  541932.9955 6588571.5562 26.5375
v  541932.2613 6588571.4278 27.4563
v  541932.2613 6588571.4278 26.5375
v  541931.9261 6588572.993 27.4563
v  541931.9261 6588572.993 26.5375
v  541931.7067 6588574.0547 27.4563
v  541931.7067 6588574.0547 26.5375
v  541931.3689 6588575.624 27.4563
v  541931.3689 6588575.624 26.5375
v  541931.1464 6588576.6898 27.4563
v  541931.1464 6588576.6898 26.5375
v  541930.8542 6588578.1235 27.4563
v  541930.8543 6588578.123 26.5375
v  541929.6028 6588584.2231 27.4563
v  541929.6028 6588584.2231 26.5375
v  541930.6904 6588584.4521 27.4563
v  541930.6904 6588584.4521 26.5375
v  541931.6417 6588584.6439 27.4563
v  541931.6417 6588584.6439 26.5375
v  541932.2037 6588584.7572 27.4563
v  541932.2037 6588584.7572 26.5375
v  541933.1508 6588584.9481 27.4563
v  541933.1508 6588584.9481 26.5375
v  541933.9771 6588585.1148 27.4563
v  541933.9771 6588585.1148 26.5375
v  541942.0053 6588582.7784 27.1747
v  541942.2963 6588581.2824 27.1747
v  541941.3958 6588583.6312 33.2150
v  541941.2809 6588584.2633 33.2150
v  541940.9335 6588584.1934 33.0507
v  541941.0605 6588583.5637 33.0507
v  541941.7055 6588583.6936 31.3602
v  541941.0668 6588583.5648 31.3602
v  541940.9398 6588584.1945 31.3602
v  541941.5785 6588584.3233 31.3602
v  541941.7055 6588583.6936 33.0353
v  541941.0668 6588583.5648 33.0353
v  541941.0668 6588583.5648 32.7032
v  541941.7055 6588583.6936 32.7032
v  541941.5785 6588584.3233 33.0353
v  541941.5785 6588584.3233 33.0374
v  541941.7055 6588583.6936 33.0374
v  541940.9398 6588584.1945 33.0353
v  541940.9398 6588584.1945 32.7032
v  541941.7123 6588583.6949 33.0504
v  541941.5853 6588584.3246 33.0504
v  541941.4113 6588583.5515 33.2019
v  541941.4116 6588583.5517 33.2151
v  541940.947 6588583.4574 32.9860
v  541940.9542 6588583.4588 32.9726
v  541941.2648 6588584.3429 33.2019
v  541940.7953 6588584.2489 32.9721
v  541940.788 6588584.2475 32.9854
v  541941.2651 6588584.3429 33.2151
v  541941.8486 6588583.639 32.9693
v  541941.8563 6588583.6405 32.9824
v  541941.6972 6588584.4307 32.9829
v  541941.6895 6588584.4292 32.9698
v  541941.0668 6588583.5648 33.0374
v  541941.3955 6588583.6312 33.2018
v  541940.9398 6588584.1945 33.0374
v  541941.2806 6588584.2633 33.2018
v  541941.5785 6588584.3233 32.7032
v  541942.8318 6588581.3894 27.1747
v  541942.5408 6588582.8854 27.1747
v  541942.5408 6588582.8854 26.8032
v  541942.0053 6588582.7784 26.8032
v  541942.2963 6588581.2824 26.8032
v  541942.8318 6588581.3894 26.8032
# 452 vertices

vn 0.1932 -0.9812 0.0000
vn -0.1977 0.9803 0.0000
vn 0.9816 0.1908 0.0000
vn -0.9792 -0.2027 -0.0021
vn 0.1927 -0.9813 0.0000
vn -0.1976 0.9803 0.0000
vn 0.1925 -0.9813 0.0000
vn -0.1978 0.9802 0.0000
vn -0.9792 -0.2027 -0.0022
vn -0.1975 0.9803 0.0000
vn 0.1928 -0.9812 0.0000
vn 0.1926 -0.9813 0.0000
vn 0.1947 -0.9809 0.0000
vn 0.1933 -0.9811 0.0000
vn 0.1883 -0.9821 0.0000
vn 0.1904 -0.9817 0.0000
vn 0.1904 -0.9817 -0.0000
vn 0.1905 -0.9817 0.0000
vn 0.1904 -0.9817 -0.0001
vn -0.1978 0.9802 -0.0000
vn 0.0000 0.0000 1.0000
vn 0.9813 0.1927 0.0000
vn 0.0000 0.0000 -1.0000
vn -0.9811 -0.1934 0.0000
vn 0.9801 0.1983 0.0000
vn -0.9804 -0.1968 0.0000
vn 0.9803 0.1973 0.0000
vn -0.9806 -0.1962 0.0000
vn -0.9812 -0.1929 0.0000
vn 0.9811 0.1933 0.0000
vn -0.9804 -0.1970 0.0000
vn -0.9808 -0.1950 0.0000
vn 0.9803 0.1975 0.0000
vn -0.9802 -0.1978 0.0000
vn -0.9813 -0.1927 0.0000
vn 0.9813 0.1926 0.0000
vn 0.9799 0.1993 0.0000
vn -0.9800 -0.1988 0.0000
vn 0.9816 0.1910 0.0000
vn -0.9792 -0.2029 0.0000
vn 0.9816 0.1912 0.0000
vn 0.9855 0.1691 0.0139
vn 0.9815 0.1903 -0.0184
vn 0.9820 0.1890 0.0002
vn 0.9817 0.1902 -0.0018
vn 0.9820 0.1888 -0.0027
vn 0.9817 0.1904 0.0000
vn 0.5586 0.8294 -0.0013
vn 0.9816 0.1909 -0.0018
vn 0.9816 0.1909 0.0000
vn 0.5574 0.8303 -0.0001
vn -0.9790 -0.2040 0.0000
vn 0.9816 0.1910 -0.0016
vn 0.9813 0.1924 0.0015
vn 0.9810 0.1941 0.0000
vn 0.9815 0.1908 0.0139
vn 0.9817 0.1904 0.0018
vn 0.9817 0.1904 0.0021
vn 0.1977 -0.9803 0.0000
vn -0.1979 0.9802 0.0000
vn 0.1967 -0.9805 -0.0001
vn 0.1863 -0.9825 0.0001
vn 0.1939 -0.9810 -0.0000
vn 0.1938 -0.9810 0.0000
vn -0.1951 0.9808 -0.0002
vn -0.1679 0.9305 0.3254
vn -0.1951 0.9808 0.0000
vn -0.2027 0.9792 -0.0000
vn -0.2026 0.9793 0.0000
vn -0.0001 -0.0000 1.0000
vn 0.2027 -0.9792 0.0000
vn 0.0001 0.0000 -1.0000
vn -0.2045 0.9789 0.0000
vn 0.2035 -0.9791 -0.0000
vn 0.2034 -0.9791 0.0000
vn -0.0000 0.0000 -1.0000
vn -0.0000 -0.0000 -1.0000
vn 0.0000 0.0001 -1.0000
vn 0.0001 -0.0000 -1.0000
vn 0.0001 -0.0001 -1.0000
vn 0.9817 0.1902 -0.0032
vn 0.9817 0.1896 0.0162
vn 0.9812 0.1917 0.0217
vn 0.9813 0.1924 0.0077
vn 0.9815 0.1915 0.0091
vn 0.9820 0.1889 -0.0000
vn 0.9816 0.1911 0.0000
vn 0.1946 -0.9809 0.0000
vn 0.1885 -0.9821 0.0000
vn 0.1896 -0.9819 0.0000
vn -0.9792 -0.2027 -0.0020
vn -0.9791 -0.2034 -0.0022
vn -0.1978 0.9802 -0.0001
vn -0.1978 0.9803 0.0000
vn -0.1974 0.9803 0.0000
vn 0.9816 0.1909 -0.0053
vn 0.9817 0.1905 0.0000
vn 0.6843 0.1334 -0.7169
vn 0.6840 0.1334 -0.7172
vn 0.6845 0.1332 -0.7167
vn 0.6845 0.1332 -0.7168
vn 0.6844 0.1330 -0.7168
vn 0.6845 0.1330 -0.7168
vn 0.1271 -0.6479 -0.7510
vn 0.1273 -0.6482 -0.7507
vn 0.1272 -0.6482 -0.7508
vn 0.1276 -0.6479 -0.7509
vn 0.1276 -0.6479 -0.7510
vn 0.1271 -0.6481 -0.7509
vn 0.1272 -0.6481 -0.7509
vn 0.1271 -0.6478 -0.7511
vn 0.1273 -0.6481 -0.7509
vn 0.1272 -0.6481 -0.7508
vn 0.1273 -0.6478 -0.7511
vn 0.1286 -0.6478 -0.7508
vn 0.1286 -0.6481 -0.7506
vn 0.1277 -0.6477 -0.7512
vn 0.1276 -0.6478 -0.7511
vn 0.1239 -0.6470 -0.7523
vn 0.1245 -0.6476 -0.7517
vn 0.1243 -0.6474 -0.7520
vn 0.1240 -0.6474 -0.7520
vn 0.1216 -0.6512 -0.7491
vn 0.1251 -0.6477 -0.7516
vn -0.9793 -0.2026 -0.0021
vn -0.1310 0.6495 -0.7490
vn -0.1310 0.6496 -0.7490
vn -0.1309 0.6496 -0.7489
vn -0.1311 0.6496 -0.7489
vn -0.1310 0.6494 -0.7491
vn -0.1308 0.6493 -0.7492
vn -0.1308 0.6494 -0.7491
vn -0.1310 0.6496 -0.7489
vn -0.1311 0.6493 -0.7492
vn -0.1309 0.6498 -0.7487
vn 0.6843 0.1333 -0.7169
vn 0.6835 0.1329 -0.7178
vn 0.3082 0.0599 0.9494
vn 0.3082 0.0600 0.9494
vn 0.9804 0.1963 -0.0184
vn 0.9816 0.1911 0.0002
vn 0.9816 0.1910 -0.0000
vn -0.9793 -0.2022 -0.0022
vn 0.6844 0.1332 -0.7168
vn 0.6844 0.1332 -0.7169
vn 0.0619 -0.3153 0.9470
vn 0.0620 -0.3158 0.9468
vn 0.0570 -0.2739 0.9601
vn 0.0534 -0.2720 0.9608
vn 0.0615 -0.3151 0.9471
vn 0.0620 -0.3124 0.9479
vn 0.0606 -0.3154 0.9470
vn -0.0442 0.2804 0.9589
vn -0.0257 0.2461 0.9689
vn 0.6308 -0.1724 0.7566
vn -0.0876 0.3603 0.9287
vn -0.0581 0.2955 0.9536
vn -0.0596 0.2961 0.9533
vn -0.0598 0.2962 0.9533
vn -0.0597 0.2961 0.9533
vn -0.0597 0.2962 0.9532
vn -0.0597 0.2962 0.9533
vn -0.0562 0.2788 0.9587
vn -0.0556 0.2820 0.9578
vn 0.0559 -0.2690 0.9615
vn 0.0750 -0.2788 0.9574
vn 0.0595 -0.3156 0.9470
vn 0.0028 -0.0146 0.9999
vn 0.0672 -0.3195 0.9452
vn 0.0740 -0.2728 0.9592
vn 0.0577 -0.2778 0.9589
vn -0.0350 0.2936 0.9553
vn -0.0574 0.2918 0.9547
vn -0.0600 0.2978 0.9527
vn -0.0616 0.2989 0.9523
vn -0.0583 0.2964 0.9533
vn 0.9819 0.1853 -0.0388
vn 0.9794 0.1909 -0.0658
vn 0.2078 -0.9343 -0.2897
vn 0.2087 -0.9344 -0.2887
vn -0.9792 -0.2027 -0.0023
vn 0.9815 0.1877 -0.0388
vn 0.9809 0.1940 -0.0117
vn -0.1767 0.9366 -0.3025
vn -0.1767 0.9366 -0.3026
vn 0.3048 0.0610 0.9505
vn 0.3046 0.0627 0.9504
vn 0.3210 0.0625 0.9450
vn 0.3635 0.0225 0.9313
vn -0.0756 0.3741 -0.9243
vn -0.0757 0.3752 -0.9238
vn 0.9963 0.0855 0.0050
vn 0.9963 0.0855 0.0056
vn -0.9963 -0.0858 -0.0024
vn 0.9963 0.0858 0.0051
vn -0.4999 -0.0941 -0.8609
vn 0.1977 -0.9802 0.0098
vn 0.1976 -0.9802 0.0109
vn 0.9701 0.2429 -0.0004
vn 0.9701 0.2428 0.0002
vn -0.1977 0.9802 -0.0084
vn -0.1976 0.9802 -0.0108
vn -0.0773 0.3716 0.9252
vn -0.0774 0.3545 0.9318
vn 0.9843 0.1764 0.0000
vn 0.9844 0.1762 -0.0009
vn -0.0750 0.3719 0.9252
vn -0.0736 0.3525 0.9329
vn 0.9843 0.1764 -0.0005
vn 0.9843 0.1765 0.0000
vn 0.0751 -0.3721 -0.9251
vn 0.0752 -0.3722 -0.9251
vn 0.0750 -0.3715 -0.9254
vn 0.3079 0.0608 0.9495
vn 0.3189 -0.0060 0.9478
vn 0.3084 0.0596 0.9494
vn 0.3082 0.0601 0.9494
vn 0.0755 -0.3746 0.9241
vn 0.0501 -0.3289 0.9431
vn 0.0755 -0.3745 0.9242
vn 0.9701 0.2425 -0.0007
vn 0.9702 0.2423 0.0002
vn -0.0755 0.3741 -0.9243
vn -0.0758 0.3742 -0.9243
vn 0.0752 -0.3724 -0.9250
vn 0.0754 -0.3722 -0.9251
vn -0.9965 -0.0835 0.0000
vn -0.2010 0.9796 0.0068
vn -0.1980 0.9802 0.0000
vn -0.9962 -0.0876 0.0000
vn 0.1877 -0.9819 0.0246
vn 0.1980 -0.9802 0.0000
vn 0.9799 0.1931 0.0504
vn 0.9808 0.1892 0.0467
vn 0.1994 -0.9799 -0.0117
vn -0.1754 0.9843 -0.0173
vn 0.9808 0.1895 0.0469
vn 0.9803 0.1913 0.0487
vn 0.9792 0.1988 0.0408
vn 0.9791 0.1981 0.0459
vn 0.9792 0.1949 0.0570
vn 0.9822 0.1815 0.0477
vn 0.9827 0.1799 0.0450
vn -0.0476 -0.0092 0.9988
vn -0.1905 0.9814 -0.0257
vn -0.1906 0.9813 -0.0257
vn 0.0470 0.0095 -0.9989
vn 0.0476 0.0095 -0.9988
vn 0.1923 -0.9813 -0.0075
vn 0.1921 -0.9813 -0.0075
vn 0.3047 0.0620 0.9504
vn 0.3096 0.0559 0.9492
vn 0.9813 0.1925 0.0011
vn 0.9813 0.1925 0.0002
vn -0.3293 0.9073 -0.2615
vn -0.3293 0.9074 -0.2611
vn -0.2292 -0.0500 -0.9721
vn 0.2159 -0.9471 -0.2375
vn 0.2162 -0.9473 -0.2363
vn 0.2306 0.0452 0.9720
vn -0.1858 0.9826 0.0000
vn 0.9819 0.1895 0.0000
vn 0.9822 0.1873 -0.0095
vn 0.1836 -0.9830 0.0007
vn -0.1934 0.9811 0.0001
vn 0.9806 0.1960 -0.0095
vn 0.9802 0.1981 -0.0064
vn 0.9805 0.1963 -0.0064
vn 0.9802 0.1981 0.0000
vn 0.9803 0.1977 0.0000
vn 0.1976 -0.9803 0.0000
vn 0.1924 -0.9813 0.0000
vn 0.1934 -0.9811 0.0000
vn 0.1723 -0.9850 0.0000
vn -0.9778 -0.2094 0.0000
vn -0.9793 -0.2024 0.0000
vn -0.9776 -0.2104 0.0000
vn -0.9789 -0.2044 0.0000
vn -0.9799 -0.1997 -0.0000
vn -0.9799 -0.1997 0.0000
vn -0.9796 -0.2010 0.0000
vn -0.9796 -0.2010 -0.0000
vn -0.2060 0.9785 0.0000
vn 0.0032 0.0007 1.0000
vn -0.0000 0.0001 1.0000
vn 0.0044 0.0055 1.0000
vn 0.0042 0.0057 1.0000
vn 0.0306 0.0061 0.9995
vn 0.0308 0.0061 0.9995
vn 0.1828 -0.9832 0.0007
vn 0.1653 -0.9862 0.0003
vn -0.1093 0.7087 0.6970
vn 0.0158 0.0033 0.9999
vn 0.0155 0.0033 0.9999
vn -0.1936 0.9811 0.0001
vn 0.0057 0.0012 1.0000
vn 0.0055 0.0012 1.0000
vn 0.0001 0.0002 1.0000
vn -0.0000 0.0002 1.0000
vn 0.0026 0.0054 1.0000
vn 0.0019 0.0042 1.0000
vn 0.0035 0.0008 1.0000
vn 0.0035 0.0007 1.0000
vn -0.0006 -0.0001 1.0000
vn -0.0000 -0.0000 1.0000
vn -0.0000 0.0000 1.0000
vn 0.0002 0.0000 1.0000
vn -0.0002 -0.0000 1.0000
vn 0.0003 -0.0002 1.0000
vn 0.9816 0.1909 -0.0037
vn 0.9816 0.1909 -0.0035
vn 0.3256 0.0300 0.9450
vn 0.0108 0.0011 0.9999
vn 0.0270 0.0062 0.9996
vn -0.4259 -0.0714 0.9019
vn -0.4270 -0.0892 0.8999
vn 0.9652 -0.2615 -0.0000
vn -0.7872 -0.6167 0.0012
vn -0.5533 -0.8329 -0.0000
vn 0.8330 -0.5533 0.0000
vn -0.1497 -0.0182 -0.9886
vn -0.1432 -0.0249 -0.9894
vn -0.9803 -0.1977 0.0000
vn 0.4511 0.0848 0.8884
vn 0.4565 0.0862 0.8855
vn 0.1573 -0.8124 -0.5615
vn 0.1302 -0.6023 0.7876
vn -0.1707 -0.7438 0.6463
vn 0.4445 -0.6428 -0.6239
vn -0.1783 0.8068 -0.5634
vn 0.1614 0.7631 -0.6258
vn -0.4447 0.6214 0.6450
vn -0.1013 0.6092 0.7865
vn -0.8559 -0.1726 -0.4875
vn -0.8598 -0.1732 -0.4803
vn -0.1756 -0.7679 -0.6160
vn 0.4609 -0.6161 0.6388
vn 0.8413 0.1697 -0.5133
vn 0.1892 0.7438 0.6411
vn -0.4595 0.6432 -0.6125
vn 0.1142 0.0244 -0.9932
vn -0.0123 -0.0037 -0.9999
vn 0.1166 0.0073 -0.9932
vn -0.0260 -0.0039 -0.9997
vn -0.5533 -0.8330 0.0000
vn -0.1959 0.9806 0.0000
vn 0.1959 -0.9806 0.0000
# 347 vertex normals

vt -9.0300 0.5181 0.0000
vt -9.0724 0.5181 0.0000
vt -9.0724 0.5379 0.0000
vt -9.0300 0.5379 0.0000
vt -8.5273 0.4964 0.0000
vt -8.5273 0.5139 0.0000
vt -8.4863 0.5139 0.0000
vt -8.4863 0.4964 0.0000
vt -8.9574 0.4412 0.0000
vt -8.9574 0.5125 0.0000
vt -8.9164 0.5125 0.0000
vt -8.9164 0.4412 0.0000
vt -8.6258 0.0150 0.0000
vt -8.6258 0.0682 0.0000
vt -8.5837 0.0682 0.0000
vt -8.5837 0.0150 0.0000
vt -8.5273 0.4594 0.0000
vt -8.5273 0.4808 0.0000
vt -8.4863 0.4808 0.0000
vt -8.4863 0.4594 0.0000
vt -9.0300 0.5027 0.0000
vt -9.0295 0.4812 0.0000
vt -9.0705 0.4812 0.0000
vt -9.0724 0.5027 0.0000
vt -8.4026 0.5139 0.0000
vt -8.4026 0.4964 0.0000
vt -8.7079 0.0682 0.0000
vt -8.7079 0.0150 0.0000
vt -9.1541 0.5181 0.0000
vt -9.1541 0.5379 0.0000
vt 0.0000 1.0000 0.0000
vt 0.0000 0.0000 0.0000
vt 1.0000 0.0000 0.0000
vt 1.0000 1.0000 0.0000
vt -9.1541 0.4812 0.0000
vt -9.1541 0.5027 0.0000
vt -8.8328 0.5125 0.0000
vt -8.8328 0.4412 0.0000
vt -8.4026 0.4808 0.0000
vt -8.4026 0.4594 0.0000
vt -8.3764 0.5139 0.0000
vt -8.3764 0.4964 0.0000
vt -8.7341 0.0150 0.0000
vt -8.7341 0.0675 0.0000
vt -9.1803 0.5181 0.0000
vt -9.1803 0.5379 0.0000
vt -9.1803 0.5027 0.0000
vt -9.1803 0.4812 0.0000
vt -8.8066 0.5125 0.0000
vt -8.8066 0.4412 0.0000
vt -8.3764 0.4808 0.0000
vt -8.3764 0.4594 0.0000
vt -8.5273 0.5294 0.0000
vt -8.4863 0.5294 0.0000
vt -9.0724 0.5532 0.0000
vt -9.0300 0.5532 0.0000
vt -9.1803 0.5532 0.0000
vt -9.1541 0.5532 0.0000
vt -8.4026 0.5294 0.0000
vt -8.3764 0.5294 0.0000
vt -8.4847 0.5488 0.0000
vt -8.4026 0.5488 0.0000
vt -8.5269 0.5488 0.0000
vt -9.0721 0.5730 0.0000
vt -9.0299 0.5730 0.0000
vt -9.1541 0.5730 0.0000
vt -9.1803 0.5730 0.0000
vt -8.3764 0.5488 0.0000
vt -8.5269 0.5643 0.0000
vt -8.4847 0.5643 0.0000
vt -9.0721 0.5883 0.0000
vt -9.0299 0.5883 0.0000
vt -9.1803 0.5883 0.0000
vt -9.1541 0.5883 0.0000
vt -8.4026 0.5643 0.0000
vt -8.3764 0.5643 0.0000
vt -8.4847 0.5761 0.0000
vt -8.4026 0.5761 0.0000
vt -8.5269 0.5761 0.0000
vt -9.0721 0.6084 0.0000
vt -9.0299 0.6084 0.0000
vt -9.1541 0.6084 0.0000
vt -9.1803 0.6084 0.0000
vt -8.3764 0.5761 0.0000
vt -8.5269 0.5897 0.0000
vt -8.4847 0.5897 0.0000
vt -9.0721 0.6242 0.0000
vt -9.0299 0.6242 0.0000
vt -9.1803 0.6242 0.0000
vt -9.1541 0.6242 0.0000
vt -8.4026 0.5897 0.0000
vt -8.3764 0.5897 0.0000
vt -8.4847 0.5977 0.0000
vt -8.4026 0.5977 0.0000
vt -8.5269 0.5977 0.0000
vt -9.0299 0.6359 0.0000
vt -9.0721 0.6359 0.0000
vt -9.1541 0.6359 0.0000
vt -9.1803 0.6359 0.0000
vt -8.3764 0.5977 0.0000
vt -8.5269 0.6114 0.0000
vt -8.4847 0.6114 0.0000
vt -8.4026 0.6114 0.0000
vt -8.3764 0.6114 0.0000
vt -8.4847 0.6259 0.0000
vt -8.4026 0.6259 0.0000
vt -8.5269 0.6259 0.0000
vt -9.0721 0.6456 0.0000
vt -9.0299 0.6456 0.0000
vt -9.1541 0.6456 0.0000
vt -9.1803 0.6456 0.0000
vt -8.3764 0.6259 0.0000
vt -8.5390 0.7199 0.0000
vt -8.5334 0.7199 0.0000
vt -8.5332 0.7045 0.0000
vt -8.5388 0.7045 0.0000
vt -8.2225 0.6284 0.0000
vt -8.2281 0.6284 0.0000
vt -8.2281 0.7102 0.0000
vt -8.2225 0.7102 0.0000
vt -8.9831 0.7065 0.0000
vt -8.9887 0.7065 0.0000
vt -8.9885 0.7219 0.0000
vt -8.9829 0.7219 0.0000
vt -8.4395 0.6321 0.0000
vt -8.4451 0.6321 0.0000
vt -8.4451 0.7139 0.0000
vt -8.4395 0.7139 0.0000
vt -8.2613 0.7231 0.0000
vt -8.2515 0.7231 0.0000
vt -8.2515 0.7075 0.0000
vt -8.2613 0.7075 0.0000
vt -8.3024 0.5440 0.0000
vt -8.2925 0.5440 0.0000
vt -8.2925 0.4603 0.0000
vt -8.3024 0.4603 0.0000
vt -8.3356 0.7089 0.0000
vt -8.3454 0.7089 0.0000
vt -8.3454 0.7245 0.0000
vt -8.3356 0.7245 0.0000
vt -8.3708 0.5440 0.0000
vt -8.3610 0.5440 0.0000
vt -8.3610 0.4603 0.0000
vt -8.3708 0.4603 0.0000
vt -8.3180 0.5440 0.0000
vt -8.3082 0.5440 0.0000
vt -8.3082 0.4603 0.0000
vt -8.3180 0.4603 0.0000
vt -9.0082 0.7089 0.0000
vt -9.0180 0.7089 0.0000
vt -9.0180 0.7245 0.0000
vt -9.0082 0.7245 0.0000
vt -8.3552 0.5440 0.0000
vt -8.3453 0.5440 0.0000
vt -8.3453 0.4603 0.0000
vt -8.3552 0.4603 0.0000
vt -8.3884 0.7270 0.0000
vt -8.3786 0.7270 0.0000
vt -8.3786 0.7114 0.0000
vt -8.3884 0.7114 0.0000
vt -8.5901 0.7088 0.0000
vt -8.5957 0.7089 0.0000
vt -8.5955 0.7242 0.0000
vt -8.5899 0.7242 0.0000
vt -8.4297 0.6306 0.0000
vt -8.4354 0.6306 0.0000
vt -8.4354 0.7123 0.0000
vt -8.4297 0.7123 0.0000
vt -8.2770 0.7250 0.0000
vt -8.2714 0.7251 0.0000
vt -8.2712 0.7097 0.0000
vt -8.2768 0.7097 0.0000
vt -8.4200 0.6308 0.0000
vt -8.4256 0.6308 0.0000
vt -8.4256 0.7125 0.0000
vt -8.4200 0.7125 0.0000
vt -8.3532 0.6358 0.0000
vt -8.3434 0.6358 0.0000
vt -8.3434 0.5537 0.0000
vt -8.3532 0.5537 0.0000
vt -8.2828 0.7089 0.0000
vt -8.2926 0.7089 0.0000
vt -8.2926 0.7244 0.0000
vt -8.2828 0.7244 0.0000
vt -9.0161 0.6507 0.0000
vt -9.0062 0.6507 0.0000
vt -9.0062 0.5687 0.0000
vt -9.0161 0.5687 0.0000
vt -8.3298 0.7269 0.0000
vt -8.3199 0.7269 0.0000
vt -8.3199 0.7114 0.0000
vt -8.3298 0.7115 0.0000
vt -8.6233 0.7113 0.0000
vt -8.6289 0.7113 0.0000
vt -8.6287 0.7266 0.0000
vt -8.6231 0.7266 0.0000
vt -8.9948 0.5664 0.0000
vt -9.0004 0.5664 0.0000
vt -9.0004 0.6484 0.0000
vt -8.9948 0.6484 0.0000
vt -8.2457 0.7265 0.0000
vt -8.2401 0.7265 0.0000
vt -8.2399 0.7112 0.0000
vt -8.2455 0.7112 0.0000
vt -8.9851 0.5666 0.0000
vt -8.9907 0.5666 0.0000
vt -8.9907 0.6486 0.0000
vt -8.9851 0.6486 0.0000
vt -8.9809 0.6507 0.0000
vt -8.9710 0.6507 0.0000
vt -8.9710 0.5687 0.0000
vt -8.9809 0.5687 0.0000
vt -8.3043 0.7177 0.0000
vt -8.3141 0.7177 0.0000
vt -8.3141 0.7313 0.0000
vt -8.3043 0.7313 0.0000
vt -8.6856 0.6781 0.0000
vt -8.6758 0.6781 0.0000
vt -8.6758 0.5960 0.0000
vt -8.6856 0.5960 0.0000
vt -8.2183 0.7279 0.0000
vt -8.2085 0.7279 0.0000
vt -8.2085 0.7144 0.0000
vt -8.2183 0.7144 0.0000
vt -9.0242 0.7036 0.0000
vt -9.0298 0.7036 0.0000
vt -9.0296 0.7193 0.0000
vt -9.0240 0.7193 0.0000
vt -8.3320 0.5902 0.0000
vt -8.3376 0.5902 0.0000
vt -8.3376 0.6722 0.0000
vt -8.3320 0.6722 0.0000
vt -8.6407 0.7205 0.0000
vt -8.6351 0.7206 0.0000
vt -8.6349 0.7048 0.0000
vt -8.6405 0.7048 0.0000
vt -9.0202 0.5688 0.0000
vt -9.0259 0.5688 0.0000
vt -9.0259 0.6509 0.0000
vt -9.0202 0.6509 0.0000
vt -8.6680 0.6781 0.0000
vt -8.6582 0.6781 0.0000
vt -8.6582 0.5960 0.0000
vt -8.6680 0.5960 0.0000
vt -9.0747 0.7157 0.0000
vt -9.0845 0.7157 0.0000
vt -9.0845 0.7293 0.0000
vt -9.0747 0.7293 0.0000
vt -8.6504 0.6781 0.0000
vt -8.6406 0.6781 0.0000
vt -8.6406 0.5960 0.0000
vt -8.6504 0.5960 0.0000
vt -8.3728 0.7260 0.0000
vt -8.3629 0.7260 0.0000
vt -8.3629 0.7124 0.0000
vt -8.3728 0.7124 0.0000
vt -8.9574 0.5516 0.0000
vt -8.9164 0.5516 0.0000
vt -8.6258 0.1054 0.0000
vt -8.5837 0.1054 0.0000
vt -8.7341 0.1049 0.0000
vt -8.7079 0.1054 0.0000
vt -8.8328 0.5516 0.0000
vt -8.8066 0.5516 0.0000
vt -8.9574 0.6585 0.0000
vt -8.9574 0.7051 0.0000
vt -8.9164 0.7052 0.0000
vt -8.9164 0.6585 0.0000
vt -8.6258 0.1606 0.0000
vt -8.5837 0.1606 0.0000
vt -8.7079 0.1606 0.0000
vt -8.7341 0.1603 0.0000
vt -8.8091 0.6981 0.0000
vt -8.8066 0.6586 0.0000
vt -8.8423 0.6586 0.0000
vt -8.8468 0.7052 0.0000
vt -8.8066 0.6976 0.0000
vt 0.0000 0.1126 0.0000
vt 1.0000 0.1126 0.0000
vt 1.0000 0.4412 0.0000
vt 0.0000 0.4412 0.0000
vt -8.6258 0.1980 0.0000
vt -8.5837 0.1980 0.0000
vt -8.7341 0.1978 0.0000
vt -8.7079 0.1980 0.0000
vt -8.8468 0.7575 0.0000
vt -8.8095 0.7653 0.0000
vt -8.9574 0.7575 0.0000
vt -8.9574 0.8884 0.0000
vt -8.9164 0.8884 0.0000
vt -8.9164 0.7575 0.0000
vt -8.6258 0.2483 0.0000
vt -8.6258 0.4602 0.0000
vt -8.5837 0.4602 0.0000
vt -8.5837 0.2483 0.0000
vt -8.7079 0.2484 0.0000
vt -8.7341 0.2484 0.0000
vt -8.8066 0.8884 0.0000
vt -8.8066 0.7659 0.0000
vt -8.8328 0.8884 0.0000
vt -8.3259 0.5450 0.0000
vt -8.3228 0.5450 0.0000
vt -8.3228 0.4614 0.0000
vt -8.3259 0.4614 0.0000
vt -9.0180 0.6966 0.0000
vt -9.0150 0.6966 0.0000
vt -9.0149 0.6574 0.0000
vt -9.0179 0.6574 0.0000
vt -9.0239 0.5625 0.0000
vt -9.0209 0.5625 0.0000
vt -9.0209 0.4789 0.0000
vt -9.0239 0.4789 0.0000
vt -8.9867 0.6963 0.0000
vt -8.9836 0.6963 0.0000
vt -8.9837 0.6571 0.0000
vt -8.9868 0.6571 0.0000
vt -8.3317 0.5704 0.0000
vt -8.3310 0.5704 0.0000
vt -8.3312 0.5294 0.0000
vt -8.3317 0.5294 0.0000
vt -8.3376 0.5141 0.0000
vt -8.3371 0.5141 0.0000
vt -8.3369 0.4731 0.0000
vt -8.3376 0.4731 0.0000
vt -8.3312 0.4597 0.0000
vt -8.3317 0.4597 0.0000
vt -8.3376 0.5838 0.0000
vt -8.3371 0.5838 0.0000
vt -8.2064 0.6832 0.0000
vt -8.2059 0.6832 0.0000
vt -8.2061 0.6309 0.0000
vt -8.2066 0.6309 0.0000
vt -8.9620 0.5665 0.0000
vt -8.9653 0.5665 0.0000
vt -8.9653 0.6486 0.0000
vt -8.9620 0.6486 0.0000
vt -8.4008 0.6617 0.0000
vt -8.4041 0.6617 0.0000
vt -8.4040 0.6990 0.0000
vt -8.4007 0.6989 0.0000
vt -8.5357 0.5983 0.0000
vt -8.5390 0.5983 0.0000
vt -8.5390 0.6803 0.0000
vt -8.5357 0.6803 0.0000
vt -9.0245 0.6587 0.0000
vt -9.0278 0.6587 0.0000
vt -9.0278 0.6959 0.0000
vt -9.0245 0.6960 0.0000
vt -8.2111 0.6252 0.0000
vt -8.2144 0.6252 0.0000
vt -8.2144 0.7072 0.0000
vt -8.2111 0.7072 0.0000
vt -8.9678 0.6591 0.0000
vt -8.9711 0.6591 0.0000
vt -8.9710 0.6965 0.0000
vt -8.9677 0.6965 0.0000
vt -8.2326 0.6315 0.0000
vt -8.2359 0.6315 0.0000
vt -8.2359 0.7136 0.0000
vt -8.2326 0.7136 0.0000
vt -8.9756 0.6553 0.0000
vt -8.9788 0.6553 0.0000
vt -8.9789 0.6927 0.0000
vt -8.9757 0.6927 0.0000
vt -8.2360 0.3299 0.0000
vt -8.2354 0.3306 0.0000
vt -8.2355 0.2619 0.0000
vt -8.2362 0.2616 0.0000
vt -8.2357 0.2225 0.0000
vt -8.2363 0.2226 0.0000
vt -8.2360 0.1147 0.0000
vt -8.2361 0.0752 0.0000
vt -8.2367 0.0764 0.0000
vt -8.2366 0.1156 0.0000
vt -8.2363 0.0033 0.0000
vt -8.2369 0.0051 0.0000
vt -8.2579 0.0036 0.0000
vt -8.2584 0.0054 0.0000
vt -8.2734 0.0038 0.0000
vt -8.2738 0.0056 0.0000
vt -8.2934 0.0040 0.0000
vt -8.2936 0.0058 0.0000
vt -8.3089 0.0042 0.0000
vt -8.3090 0.0060 0.0000
vt -8.3288 0.0045 0.0000
vt -8.3287 0.0063 0.0000
vt -8.3442 0.0047 0.0000
vt -8.3440 0.0064 0.0000
vt -8.3645 0.0048 0.0000
vt -8.3641 0.0066 0.0000
vt -8.3804 0.0050 0.0000
vt -8.3799 0.0068 0.0000
vt -8.3922 0.0053 0.0000
vt -8.3916 0.0070 0.0000
vt -8.4012 0.0054 0.0000
vt -8.4013 0.0072 0.0000
vt -8.4021 0.4523 0.0000
vt -8.4021 0.4541 0.0000
vt -8.3881 0.4541 0.0000
vt -8.3876 0.4523 0.0000
vt -8.3744 0.4541 0.0000
vt -8.3740 0.4523 0.0000
vt -8.3663 0.4541 0.0000
vt -8.3659 0.4523 0.0000
vt -8.3526 0.4541 0.0000
vt -8.3524 0.4523 0.0000
vt -8.3407 0.4541 0.0000
vt -8.3405 0.4523 0.0000
vt -8.3251 0.4541 0.0000
vt -8.3250 0.4523 0.0000
vt -8.3056 0.4541 0.0000
vt -8.3057 0.4523 0.0000
vt -8.2899 0.4541 0.0000
vt -8.2901 0.4523 0.0000
vt -8.2723 0.4541 0.0000
vt -8.2726 0.4523 0.0000
vt -8.2565 0.4541 0.0000
vt -8.2570 0.4523 0.0000
vt -8.2350 0.4541 0.0000
vt -8.2357 0.4523 0.0000
vt -9.1703 0.3404 0.0000
vt -9.1556 0.3320 0.0000
vt -9.1556 0.2880 0.0000
vt -9.1703 0.2717 0.0000
vt -9.1556 0.2323 0.0000
vt -9.1703 0.2323 0.0000
vt -9.1556 0.0850 0.0000
vt -9.1703 0.0850 0.0000
vt -9.1703 0.1244 0.0000
vt -9.1556 0.1244 0.0000
vt -9.1556 0.0131 0.0000
vt -9.1703 0.0131 0.0000
vt -8.2542 0.4836 0.0000
vt -8.2395 0.4836 0.0000
vt -8.2395 0.4619 0.0000
vt -8.2542 0.4619 0.0000
vt -8.2542 0.4991 0.0000
vt -8.2395 0.4991 0.0000
vt -8.2542 0.5190 0.0000
vt -8.2395 0.5190 0.0000
vt -8.2542 0.5345 0.0000
vt -8.2395 0.5345 0.0000
vt -8.2542 0.5545 0.0000
vt -8.2395 0.5545 0.0000
vt -8.2542 0.5699 0.0000
vt -8.2395 0.5699 0.0000
vt -8.2542 0.5902 0.0000
vt -8.2395 0.5902 0.0000
vt -8.2542 0.6061 0.0000
vt -8.2395 0.6061 0.0000
vt -8.2542 0.6179 0.0000
vt -8.2395 0.6179 0.0000
vt -8.2542 0.6269 0.0000
vt -8.2395 0.6269 0.0000
vt -8.7488 0.0133 0.0000
vt -8.7488 0.0668 0.0000
vt -8.7341 0.0133 0.0000
vt -8.7488 0.1044 0.0000
vt -8.7488 0.1600 0.0000
vt -8.7488 0.1977 0.0000
vt -8.7488 0.2485 0.0000
vt -8.2193 0.6115 0.0000
vt -8.2340 0.6115 0.0000
vt -8.2340 0.6254 0.0000
vt -8.2193 0.6254 0.0000
vt -8.2193 0.5978 0.0000
vt -8.2340 0.5978 0.0000
vt -8.2193 0.5896 0.0000
vt -8.2340 0.5896 0.0000
vt -8.2193 0.5760 0.0000
vt -8.2340 0.5760 0.0000
vt -8.2193 0.5641 0.0000
vt -8.2340 0.5641 0.0000
vt -8.2193 0.5484 0.0000
vt -8.2340 0.5484 0.0000
vt -8.2193 0.5289 0.0000
vt -8.2340 0.5289 0.0000
vt -8.2193 0.5132 0.0000
vt -8.2340 0.5132 0.0000
vt -8.2193 0.4956 0.0000
vt -8.2340 0.4956 0.0000
vt -8.2193 0.4799 0.0000
vt -8.2340 0.4799 0.0000
vt -8.2193 0.4583 0.0000
vt -8.2340 0.4583 0.0000
vt -9.1556 0.4639 0.0000
vt -9.1703 0.4639 0.0000
vt 5.3102 1.0027 0.0000
vt 5.4163 1.0027 0.0000
vt 5.4192 0.0027 0.0000
vt 5.3188 0.0027 0.0000
vt 5.6204 1.0027 0.0000
vt 5.6951 1.0027 0.0000
vt 5.6848 0.0027 0.0000
vt 5.6137 0.0027 0.0000
vt 5.8311 1.0027 0.0000
vt 5.8144 0.0027 0.0000
vt 5.8508 1.0027 0.0000
vt 5.8331 0.0027 0.0000
vt 5.8649 1.0027 0.0000
vt 5.8466 0.0027 0.0000
vt 5.8831 1.0027 0.0000
vt 5.8639 0.0027 0.0000
vt 5.8972 1.0027 0.0000
vt 5.8773 0.0027 0.0000
vt 5.9153 1.0027 0.0000
vt 5.8946 0.0027 0.0000
vt 5.9294 1.0027 0.0000
vt 5.9080 0.0027 0.0000
vt 5.9480 1.0027 0.0000
vt 5.9257 0.0027 0.0000
vt 5.9625 1.0027 0.0000
vt 5.9395 0.0027 0.0000
vt 5.9697 1.0027 0.0000
vt 5.9708 1.0027 0.0000
vt 5.9495 0.0027 0.0000
vt 5.9730 1.0027 0.0000
vt 5.9778 1.0027 0.0000
vt 5.9572 0.0027 0.0000
vt -8.7618 0.0020 0.0000
vt -8.7719 0.0244 0.0000
vt -8.7872 0.0583 0.0000
vt -8.8035 0.0977 0.0000
vt -8.8264 0.1561 0.0000
vt -8.8407 0.1956 0.0000
vt -8.8581 0.2422 0.0000
vt 5.1502 0.0027 0.0000
vt 5.1304 1.0027 0.0000
vt 5.1207 1.0027 0.0000
vt 5.1378 0.0027 0.0000
vt 5.1079 1.0027 0.0000
vt 5.1256 0.0027 0.0000
vt 5.1201 1.0027 0.0000
vt 5.1003 1.0027 0.0000
vt 5.1184 0.0027 0.0000
vt 5.0876 1.0027 0.0000
vt 5.1063 0.0027 0.0000
vt 5.0764 1.0027 0.0000
vt 5.0957 0.0027 0.0000
vt 5.0619 1.0027 0.0000
vt 5.0818 0.0027 0.0000
vt 5.0436 1.0027 0.0000
vt 5.0644 0.0027 0.0000
vt 5.0290 1.0027 0.0000
vt 5.0505 0.0027 0.0000
vt 5.0126 1.0027 0.0000
vt 5.0348 0.0027 0.0000
vt 4.9979 1.0027 0.0000
vt 5.0208 0.0027 0.0000
vt 4.9778 1.0027 0.0000
vt 5.0017 0.0027 0.0000
vt 5.2359 1.0027 0.0000
vt 5.2394 0.0027 0.0000
vt 3.2928 0.1133 0.0000
vt 3.8267 -0.0873 0.0000
vt 2.5720 -0.0873 0.0000
vt -0.1722 1.4147 0.0000
vt 1.8830 -0.0873 0.0000
vt 0.0001 -0.0873 0.0000
vt -8.7079 0.4602 0.0000
vt -8.7341 0.4602 0.0000
vt -8.7488 0.4619 0.0000
vt -8.7341 0.4619 0.0000
vt -8.7710 0.4509 0.0000
vt -8.7618 0.4731 0.0000
vt -4.7613 9.0742 0.0000
vt -4.1535 9.0819 0.0000
vt -3.3711 9.0906 0.0000
vt -6.1470 9.0569 0.0000
vt -7.9329 8.1756 0.0000
vt -2.7631 9.0982 0.0000
vt -2.3375 7.9108 0.0000
vt -1.9159 9.1090 0.0000
vt -7.8828 9.0368 0.0000
vt -6.9414 9.0511 0.0000
vt -7.9297 9.0358 0.0000
vt -7.5635 9.0443 0.0000
vt -5.5425 9.0646 0.0000
vt -4.0984 -2.4898 0.0000
vt -2.2362 -7.5545 0.0000
vt -7.8462 0.0730 0.0000
vt -5.0742 0.1339 0.0000
vt -3.6092 -3.6890 0.0000
vt -3.7920 -3.2356 0.0000
vt -7.8460 -7.7154 0.0000
vt -7.3296 -8.5576 0.0000
vt -7.8436 -8.5578 0.0000
vt -7.0117 -8.5576 0.0000
vt -6.4761 -8.5576 0.0000
vt -6.0086 -8.5575 0.0000
vt -4.0159 -8.5576 0.0000
vt -3.3263 -8.5577 0.0000
vt -1.8659 -8.5576 0.0000
vt -2.7104 -8.5578 0.0000
vt -5.3964 -8.5577 0.0000
vt -4.6316 -8.5578 0.0000
vt -8.2428 9.0261 0.0000
vt -8.0278 9.0334 0.0000
vt -8.2449 8.1903 0.0000
vt 6.9583 -4.7224 2.3332
vt 0.4935 -4.7265 4.2308
vt 0.5059 -5.5325 4.2485
vt 6.9843 -5.3174 2.3309
vt -5.7221 -4.8904 2.3127
vt -5.7117 -5.7107 2.3109
vt -7.8677 -8.5575 0.0000
vt -8.2765 -8.5575 0.0000
vt -8.2757 -7.7276 0.0000
vt 0.5024 3.7605 -4.7447
vt 0.5065 4.2308 -4.7265
vt -5.9583 2.3332 -4.7224
vt -5.8171 1.8623 -4.7559
vt -0.8623 -4.7559 -5.8171
vt -1.3332 -4.7224 -5.9583
vt -1.3309 -5.3174 -5.9843
vt -0.8600 -5.3510 -5.8432
vt -8.7930 0.0196 0.0000
vt -8.8792 0.2423 0.0000
vt -6.2744 -0.9474 0.5573
vt 8.8059 -7.0237 3.9034
vt 6.7221 2.3127 -4.8904
vt 6.5730 1.8430 -4.8928
vt -8.7921 0.4560 0.0000
vt 2.3109 -5.7107 6.7117
vt 2.3127 -4.8904 6.7221
vt 1.8430 -4.8928 6.5730
vt 1.8412 -5.7131 6.5625
vt -1.6593 0.0090 0.0000
vt -4.0446 -0.0873 0.0000
vt -1.8754 0.7246 0.0000
vt -1.6504 0.0860 0.0000
vt -1.6638 -0.0873 0.0000
vt -3.5977 0.0861 0.0000
vt -9.1818 0.6588 0.0000
vt -9.1341 0.6588 0.0000
vt -9.1339 0.6477 0.0000
vt -9.1823 0.6477 0.0000
vt -9.1404 0.6588 0.0000
vt -8.3600 0.6934 0.0000
vt -8.3486 0.6720 0.0000
vt -8.3600 0.6510 0.0000
vt -8.3660 0.6399 0.0000
vt -8.3617 0.6399 0.0000
vt -8.3669 0.7064 0.0000
vt -8.3627 0.7064 0.0000
vt -9.0376 0.6505 0.0000
vt -9.0376 0.6989 0.0000
vt -9.0333 0.6989 0.0000
vt -9.0333 0.6505 0.0000
vt -8.3226 0.6379 0.0000
vt -8.3269 0.6379 0.0000
vt -8.3209 0.6490 0.0000
vt -8.3166 0.6491 0.0000
vt -9.0001 0.6590 0.0000
vt -9.0044 0.6590 0.0000
vt -9.0044 0.7040 0.0000
vt -9.0001 0.7063 0.0000
vt -1.8570 -2.4110 0.0000
vt -1.8499 -3.2057 0.0000
vt -8.3095 0.6702 0.0000
vt -8.3209 0.6915 0.0000
vt -8.3166 0.6915 0.0000
vt -8.3052 0.6702 0.0000
vt -1.8457 -3.6889 0.0000
vt -8.3278 0.7044 0.0000
vt -8.3236 0.7044 0.0000
vt -9.1403 0.7012 0.0000
vt -9.1792 0.7142 0.0000
vt -9.1342 0.7142 0.0000
vt -9.1343 0.7013 0.0000
vt -9.1798 0.7012 0.0000
vt -0.9190 0.0657 0.0000
vt -0.9083 -0.0873 0.0000
vt -0.9135 -0.0026 0.0000
vt -0.7696 0.7401 0.0000
vt -3.6405 -1.2071 0.0000
vt -1.8421 -1.6218 0.0000
vt -1.8343 -1.2073 0.0000
vt -9.1345 0.6800 0.0000
vt -9.1406 0.6800 0.0000
vt -8.5904 0.7004 0.0000
vt -8.5904 0.6442 0.0000
vt -8.6118 0.6442 0.0000
vt -8.6118 0.7118 0.0000
vt -9.0900 0.7149 0.0000
vt -9.0890 0.6504 0.0000
vt -9.1295 0.6587 0.0000
vt -9.1295 0.7149 0.0000
vt -8.6329 0.6442 0.0000
vt -8.6329 0.7004 0.0000
vt -9.0845 0.7075 0.0000
vt -9.0422 0.7157 0.0000
vt -9.0431 0.6513 0.0000
vt -9.0845 0.6513 0.0000
vt 1.0000 0.0065 0.0000
vt 0.0357 0.0000 0.0000
vt 0.0000 0.9930 0.0000
vt -8.6413 0.6910 0.0000
vt -8.6465 0.6852 0.0000
vt -8.6455 0.7040 0.0000
vt -8.3552 0.7134 0.0000
vt -8.3504 0.7083 0.0000
vt -8.3546 0.6954 0.0000
vt -9.1472 0.2935 0.0000
vt -9.1472 0.3267 0.0000
vt -8.4158 0.7078 0.0000
vt -8.4103 0.6994 0.0000
vt -8.4094 0.6529 0.0000
vt -8.4146 0.6433 0.0000
vt -8.3934 0.6319 0.0000
vt -8.3774 0.6529 0.0000
vt -8.3721 0.6433 0.0000
vt -8.3772 0.6994 0.0000
vt -8.3718 0.7078 0.0000
vt -8.3963 0.6926 0.0000
vt -8.3939 0.6926 0.0000
vt -8.3938 0.6595 0.0000
vt -8.3961 0.6594 0.0000
vt -8.9946 0.7029 0.0000
vt -8.9922 0.7033 0.0000
vt -8.9916 0.6568 0.0000
vt -8.9939 0.6564 0.0000
vt -8.3860 0.6921 0.0000
vt -8.3861 0.6601 0.0000
vt -8.3884 0.6601 0.0000
vt -8.3884 0.6921 0.0000
vt -8.2997 0.6862 0.0000
vt -8.2974 0.6859 0.0000
vt -8.2981 0.6394 0.0000
vt -8.3004 0.6397 0.0000
vt -8.2922 0.6369 0.0000
vt -8.2926 0.7041 0.0000
vt -8.2897 0.7047 0.0000
vt -8.2897 0.6364 0.0000
vt -8.9760 0.7002 0.0000
vt -8.9789 0.7002 0.0000
vt -8.9665 0.7162 0.0000
vt -8.9636 0.7162 0.0000
vt -8.2592 0.7008 0.0000
vt -8.2432 0.7041 0.0000
vt -8.2433 0.6369 0.0000
vt -8.2594 0.6335 0.0000
vt -8.3996 0.7166 0.0000
vt -8.3872 0.7005 0.0000
vt -8.3897 0.7005 0.0000
vt -8.4021 0.7166 0.0000
vt -8.2648 0.7017 0.0000
vt -8.2647 0.6334 0.0000
vt -8.2807 0.6367 0.0000
vt -8.2809 0.7050 0.0000
vt -3.2469 1.1776 7.0694
vt -3.2469 -0.2014 7.0356
vt -2.3281 -0.2014 7.0356
vt -2.3372 1.1776 7.0694
vt -2.3372 2.2878 7.0964
vt -3.2469 2.2878 7.0964
vt -2.3372 3.5313 7.1269
vt -3.2469 3.5313 7.1269
vt -2.3372 4.6416 7.1540
vt -3.2469 4.6416 7.1540
vt -2.3377 6.2147 7.1734
vt -3.2474 6.2147 7.1734
vt 7.1734 -3.2474 6.2147
vt 7.1734 -2.3377 6.2147
vt 3.3147 -2.3382 6.2770
vt 3.3145 -3.2478 6.2684
vt 3.3388 6.1963 3.3138
vt 4.2469 6.1963 3.3138
vt 3.3372 6.2451 3.3149
vt -2.3388 6.2230 1.7901
vt -2.3372 6.2719 1.7910
vt -3.2469 6.2230 1.7901
vt 1.7916 -3.2485 6.2953
vt 1.7918 -2.3388 6.3039
vt 0.4337 -2.3383 6.3349
vt 0.4333 -3.2480 6.3291
vt -2.6758 -2.3376 6.4066
vt -2.6758 -3.2472 6.4066
vt -3.8150 -2.3372 6.4268
vt -3.8150 -3.2469 6.4268
vt -5.9500 -2.3372 6.4790
vt -5.9500 -3.2469 6.4790
vt 3.3372 6.4790 -5.9500
vt 3.3263 4.8672 -5.9893
vt 4.2469 4.8672 -5.9893
vt 4.2469 6.4790 -5.9500
vt 3.3263 3.7711 -6.0104
vt 4.2469 3.7711 -6.0104
vt 3.3263 2.3604 -6.0384
vt 4.2469 2.3604 -6.0384
vt 3.3263 1.2640 -6.0596
vt 4.2469 1.2640 -6.0596
vt 3.3281 -0.1446 -6.0870
vt 4.2469 -0.1446 -6.0870
vt 3.3281 -1.2345 -6.1078
vt 4.2469 -1.2345 -6.1078
vt 3.3281 -2.6671 -6.1384
vt 4.2469 -2.6671 -6.1384
vt 3.3281 -3.7887 -6.1609
vt 4.2469 -3.7887 -6.1609
vt 3.3281 -4.6263 -6.1734
vt 4.2469 -4.6263 -6.1734
vt 3.3281 -5.3717 -6.1724
vt 4.2469 -5.3717 -6.1724
vt 7.1724 -2.3281 -5.3717
vt 5.5728 -2.3281 -5.4300
vt 5.5728 -3.2469 -5.4300
vt 7.1724 -3.2469 -5.3717
vt 4.4891 -2.3281 -5.4617
vt 4.4891 -3.2469 -5.4617
vt 2.8850 -2.3281 -5.5219
vt 2.8850 -3.2469 -5.5219
vt 1.7968 -2.3281 -5.5559
vt 1.7968 -3.2469 -5.5559
vt 0.3341 -2.3281 -5.5948
vt 0.3346 -3.2469 -5.5947
vt -5.8902 -2.3281 -5.7679
vt -5.8902 -3.2469 -5.7679
vt -3.2469 -5.7679 6.8902
vt -2.3281 -5.7679 6.8902
vt -2.3281 -4.6571 6.9268
vt -3.2469 -4.6571 6.9268
vt -2.3281 -3.6870 6.9505
vt -3.2469 -3.6870 6.9505
vt -2.3281 -3.1138 6.9645
vt -3.2469 -3.1138 6.9645
vt -2.3281 -2.1480 6.9880
vt -3.2469 -2.1480 6.9880
vt -2.3281 -1.3052 7.0087
vt -3.2469 -1.3052 7.0087
vt -6.0356 -0.2014 -2.3281
vt -5.9665 -0.1997 -2.3281
vt -6.0002 1.1793 -2.3372
vt -6.0694 1.1776 -2.3372
vt -6.0272 2.2896 -2.3372
vt -6.0964 2.2878 -2.3372
vt -6.0576 3.5330 -2.3372
vt -6.1269 3.5313 -2.3372
vt -6.0847 4.6433 -2.3372
vt -6.1540 4.6416 -2.3372
vt -6.1220 6.1659 -2.3372
vt -6.1734 6.2147 -2.3377
vt -2.3147 6.2770 -2.3382
vt -2.3149 6.2451 -2.3372
vt 4.2478 6.2684 3.3145
vt 3.3382 6.2770 3.3147
vt -0.7918 6.3039 -2.3388
vt -0.7910 6.2719 -2.3372
vt 0.5681 6.2656 -2.3372
vt 0.5663 6.3349 -2.3383
vt -2.3388 6.3039 1.7918
vt -3.2485 6.2953 1.7916
vt 3.6772 6.3374 -2.3372
vt 3.6758 6.4066 -2.3376
vt 4.8162 6.3575 -2.3372
vt 4.8150 6.4268 -2.3372
vt 6.8904 6.3937 -2.3372
vt 6.9500 6.4790 -2.3372
vt 6.9893 4.8672 -2.3263
vt 6.9200 4.8661 -2.3263
vt 6.9411 3.7698 -2.3263
vt 7.0104 3.7711 -2.3263
vt 6.9691 2.3589 -2.3263
vt 7.0384 2.3604 -2.3263
vt 6.9902 1.2628 -2.3263
vt 7.0596 1.2640 -2.3263
vt 7.0176 -0.1458 -2.3281
vt 7.0870 -0.1446 -2.3281
vt 7.0385 -1.2359 -2.3281
vt 7.1078 -1.2345 -2.3281
vt 7.0692 -2.6685 -2.3281
vt 7.1384 -2.6671 -2.3281
vt 7.0916 -3.7899 -2.3281
vt 7.1609 -3.7887 -2.3281
vt 7.1041 -4.6275 -2.3281
vt 7.1734 -4.6263 -2.3281
vt 7.1156 -5.3130 -2.3281
vt 7.1724 -5.3717 -2.3281
vt 5.5728 -5.4300 -2.3281
vt 5.5708 -5.3607 -2.3281
vt 4.4867 -5.3923 -2.3281
vt 4.4891 -5.4617 -2.3281
vt 2.8827 -5.4525 -2.3281
vt 2.8850 -5.5219 -2.3281
vt 1.7947 -5.4865 -2.3281
vt 1.7968 -5.5559 -2.3281
vt 0.3321 -5.5255 -2.3281
vt 0.3341 -5.5948 -2.3281
vt -5.8322 -5.6907 -2.3281
vt -5.8902 -5.7679 -2.3281
vt -5.9268 -4.6571 -2.3281
vt -5.8575 -4.6554 -2.3281
vt -5.8811 -3.6853 -2.3281
vt -5.9505 -3.6870 -2.3281
vt -5.8953 -3.1122 -2.3281
vt -5.9645 -3.1138 -2.3281
vt -5.9188 -2.1461 -2.3281
vt -5.9880 -2.1480 -2.3281
vt -5.9395 -1.3035 -2.3281
vt -6.0087 -1.3052 -2.3281
vt 0.9999 0.0000 0.0000
vt -1.3411 0.9924 0.0000
vt 0.5176 -1.8944 0.0000
vt 0.5403 -0.6972 0.0000
vt -0.0986 -0.6972 0.0000
vt -0.0986 -1.8944 0.0000
vt 1.0986 1.6972 0.0000
vt -0.0986 1.6972 0.0000
vt -0.0986 0.5000 0.0000
vt 1.0986 0.5000 0.0000
vt 1.0986 2.7855 0.0000
vt -0.0986 2.7825 0.0000
vt -0.0986 2.7626 0.0000
vt 1.0986 2.7655 0.0000
vt 1.1815 -0.6972 0.0000
vt 1.0986 -0.6972 0.0000
vt 1.0986 -1.8944 0.0000
vt 1.2075 -1.8944 0.0000
vt -0.1844 -0.6972 0.0000
vt -0.2049 -0.6972 0.0000
vt -0.2304 -1.8944 0.0000
vt -0.2105 -1.8944 0.0000
vt 1.0986 -0.5938 0.0000
vt -0.0986 -0.5909 0.0000
vt -0.0986 -0.6113 0.0000
vt 1.0986 -0.6143 0.0000
vt 1.2275 -1.8944 0.0000
vt 1.2020 -0.6972 0.0000
vt 1.7795 0.4922 0.0000
vt 0.4158 0.4922 0.0000
vt 0.4158 -0.6176 0.0000
vt 1.7795 -0.6176 0.0000
vt 0.4153 1.6176 0.0000
vt 0.4153 0.5079 0.0000
vt 1.7790 0.5079 0.0000
vt 1.7790 1.6176 0.0000
vt 0.3984 0.4922 0.0000
vt -0.9653 0.4922 0.0000
vt -0.9653 -0.6176 0.0000
vt 0.3984 -0.6176 0.0000
vt 0.3989 1.6176 0.0000
vt -0.9648 1.6176 0.0000
vt -0.9648 0.5079 0.0000
vt 0.3989 0.5079 0.0000
vt -1.8944 -1.8944 0.0000
vt 2.8944 -1.8944 0.0000
vt 2.8944 2.8944 0.0000
vt -1.8944 2.8944 0.0000
vt -2.3138 6.1953 -2.6097
vt -0.7899 6.2220 -2.6097
vt -0.8024 6.7680 -2.6097
vt -2.3261 6.7411 -2.6097
vt -2.6097 6.1953 3.3138
vt -2.6097 6.7411 3.3261
vt -2.9811 6.7411 3.3261
vt -2.9811 6.1953 3.3138
vt 3.6097 6.7680 1.8024
vt 3.6097 6.2220 1.7899
vt 3.9811 6.2220 1.7899
vt 3.9811 6.7680 1.8024
vt 3.3261 -2.6097 6.7411
vt 1.8024 -2.6097 6.7680
vt 1.8024 -2.9811 6.7680
vt 3.3261 -2.9811 6.7411
# 964 texture coords

g Toompea_8_3
usemtl initialShadingGroup
s off
f 1/1/1 2/2/1 3/3/1 
f 3/3/1 4/4/1 1/1/1 
f 5/5/2 6/6/2 7/7/2 
f 7/7/2 8/8/2 5/5/2 
f 9/9/3 10/10/3 11/11/3 
f 11/11/3 12/12/3 9/9/3 
f 13/13/4 14/14/4 15/15/4 
f 15/15/4 16/16/4 13/13/4 
f 17/17/2 18/18/2 19/19/2 
f 19/19/2 20/20/2 17/17/2 
f 21/21/5 9/22/5 12/23/5 
f 12/23/5 22/24/5 21/21/5 
f 5/5/6 8/8/6 19/19/6 
f 19/19/6 18/18/6 5/5/6 
f 22/24/7 2/2/7 1/1/7 
f 1/1/7 21/21/7 22/24/7 
f 8/8/2 7/7/2 23/25/2 
f 23/25/2 24/26/2 8/8/2 
f 25/27/4 14/14/4 13/13/4 
f 13/13/4 26/28/4 25/27/4 
f 2/2/1 27/29/1 28/30/1 
f 28/30/1 3/3/1 2/2/1 
usemtl lambert3SG
f 29/31/7 30/32/7 31/33/7 
f 31/33/7 32/34/7 29/31/7 
usemtl initialShadingGroup
f 33/35/5 34/36/5 22/24/5 
f 22/24/5 12/23/5 33/35/5 
f 12/12/3 11/11/3 35/37/3 
f 35/37/3 33/38/3 12/12/3 
f 20/20/2 19/19/2 36/39/2 
f 36/39/2 37/40/2 20/20/2 
usemtl lambert3SG
f 38/34/8 39/33/8 40/32/8 
f 40/32/8 41/31/8 38/34/8 
usemtl initialShadingGroup
f 24/26/2 23/25/2 42/41/2 
f 42/41/2 43/42/2 24/26/2 
f 26/28/9 44/43/9 45/44/9 
f 45/44/4 25/27/4 26/28/4 
f 27/29/1 46/45/1 47/46/1 
f 47/46/1 28/30/1 27/29/1 
f 46/45/7 27/29/7 34/36/7 
f 34/36/7 48/47/7 46/45/7 
f 48/47/5 34/36/5 33/35/5 
f 33/35/5 49/48/5 48/47/5 
f 33/38/3 35/37/3 50/49/3 
f 50/49/3 49/50/3 33/38/3 
f 37/40/2 36/39/2 51/51/2 
f 51/51/2 52/52/2 37/40/2 
f 36/39/6 24/26/6 43/42/6 
f 43/42/6 51/51/6 36/39/6 
usemtl lambert3SG
f 53/31/2 54/34/2 55/33/2 
f 55/33/2 56/32/2 53/31/2 
usemtl initialShadingGroup
f 6/6/10 57/53/10 58/54/10 
f 58/54/10 7/7/10 6/6/10 
f 4/4/7 3/3/7 59/55/7 
f 59/55/7 60/56/7 4/4/7 
usemtl lambert3SG
f 61/32/7 62/31/7 63/34/7 
f 63/34/7 64/33/7 61/32/7 
usemtl initialShadingGroup
f 28/30/7 47/46/7 65/57/7 
f 65/57/7 66/58/7 28/30/7 
f 23/25/10 67/59/10 68/60/10 
f 68/60/10 42/41/10 23/25/10 
f 67/59/6 58/54/6 69/61/6 
f 69/61/6 70/62/6 67/59/6 
f 58/54/6 57/53/6 71/63/6 
f 71/63/6 69/61/6 58/54/6 
f 60/56/11 59/55/11 72/64/11 
f 72/64/11 73/65/11 60/56/11 
f 59/55/11 66/58/11 74/66/11 
f 74/66/11 72/64/11 59/55/11 
f 66/58/11 65/57/11 75/67/11 
f 75/67/11 74/66/11 66/58/11 
f 67/59/6 70/62/6 76/68/6 
f 76/68/6 68/60/6 67/59/6 
usemtl lambert3SG
f 77/31/2 78/34/2 79/33/2 
f 79/33/2 80/32/2 77/31/2 
usemtl initialShadingGroup
f 71/63/2 81/69/2 82/70/2 
f 82/70/2 69/61/2 71/63/2 
f 73/65/7 72/64/7 83/71/7 
f 83/71/7 84/72/7 73/65/7 
usemtl lambert3SG
f 85/32/12 86/31/12 87/34/12 
f 87/34/12 88/33/12 85/32/12 
usemtl initialShadingGroup
f 74/66/7 75/67/7 89/73/7 
f 89/73/7 90/74/7 74/66/7 
f 70/62/2 91/75/2 92/76/2 
f 92/76/2 76/68/2 70/62/2 
f 82/70/8 93/77/8 94/78/8 
f 94/78/8 91/75/8 82/70/8 
f 81/69/8 95/79/8 93/77/8 
f 93/77/8 82/70/8 81/69/8 
f 84/72/13 83/71/13 96/80/13 
f 96/80/13 97/81/13 84/72/13 
f 83/71/13 90/74/13 98/82/13 
f 98/82/13 96/80/13 83/71/13 
f 90/74/13 89/73/13 99/83/13 
f 99/83/13 98/82/13 90/74/13 
f 91/75/8 94/78/8 100/84/8 
f 100/84/8 92/76/8 91/75/8 
usemtl lambert3SG
f 101/31/10 102/34/10 103/33/10 
f 103/33/10 104/32/10 101/31/10 
usemtl initialShadingGroup
f 95/79/10 105/85/10 106/86/10 
f 106/86/10 93/77/10 95/79/10 
f 97/81/14 96/80/14 107/87/14 
f 107/87/14 108/88/14 97/81/14 
usemtl lambert3SG
f 109/32/1 110/31/1 111/34/1 
f 111/34/1 112/33/1 109/32/1 
usemtl initialShadingGroup
f 98/82/14 99/83/14 113/89/14 
f 113/89/14 114/90/14 98/82/14 
f 94/78/10 115/91/10 116/92/10 
f 116/92/10 100/84/10 94/78/10 
f 106/86/8 117/93/8 118/94/8 
f 118/94/8 115/91/8 106/86/8 
f 105/85/8 119/95/8 117/93/8 
f 117/93/8 106/86/8 105/85/8 
f 120/96/15 108/88/15 107/87/15 
f 107/87/15 121/97/15 120/96/15 
f 121/97/15 107/87/15 114/90/15 
f 114/90/15 122/98/15 121/97/15 
f 122/98/15 114/90/15 113/89/15 
f 113/89/15 123/99/15 122/98/15 
f 115/91/8 118/94/8 124/100/8 
f 124/100/8 116/92/8 115/91/8 
usemtl lambert3SG
f 125/31/8 126/34/8 127/33/8 
f 127/33/8 128/32/8 125/31/8 
usemtl initialShadingGroup
f 119/95/6 129/101/6 130/102/6 
f 130/102/6 117/93/6 119/95/6 
f 118/94/6 131/103/6 132/104/6 
f 132/104/6 124/100/6 118/94/6 
f 130/102/8 133/105/8 134/106/8 
f 134/106/8 131/103/8 130/102/8 
f 129/101/8 135/107/8 133/105/8 
f 133/105/8 130/102/8 129/101/8 
f 120/96/16 121/97/16 13/108/16 
f 13/108/17 16/109/17 120/96/17 
f 121/97/16 122/98/16 26/110/16 
f 26/110/17 13/108/17 121/97/17 
f 122/98/18 123/99/18 44/111/18 
f 44/111/19 26/110/19 122/98/19 
f 131/103/20 134/106/20 136/112/20 
f 136/112/8 132/104/8 131/103/8 
f 30/113/21 2/114/21 22/115/21 
f 22/115/21 31/116/21 30/113/21 
f 29/117/22 27/118/22 2/119/22 
f 2/119/22 30/120/22 29/117/22 
f 32/121/23 34/122/23 27/123/23 
f 27/123/23 29/124/23 32/121/23 
f 31/125/24 22/126/24 34/127/24 
f 34/127/24 32/128/24 31/125/24 
f 39/129/23 24/130/23 36/131/23 
f 36/131/23 40/132/23 39/129/23 
f 38/133/25 8/134/25 24/135/25 
f 24/135/25 39/136/25 38/133/25 
f 41/137/21 19/138/21 8/139/21 
f 8/139/21 38/140/21 41/137/21 
f 40/141/26 36/142/26 19/143/26 
f 19/143/26 41/144/26 40/141/26 
f 54/145/27 58/146/27 67/147/27 
f 67/147/27 55/148/27 54/145/27 
f 53/149/21 7/150/21 58/151/21 
f 58/151/21 54/152/21 53/149/21 
f 56/153/28 23/154/28 7/155/28 
f 7/155/28 53/156/28 56/153/28 
f 55/157/23 67/158/23 23/159/23 
f 23/159/23 56/160/23 55/157/23 
f 62/161/23 28/162/23 66/163/23 
f 66/163/23 63/164/23 62/161/23 
f 61/165/29 3/166/29 28/167/29 
f 28/167/29 62/168/29 61/165/29 
f 64/169/21 59/170/21 3/171/21 
f 3/171/21 61/172/21 64/169/21 
f 63/173/30 66/174/30 59/175/30 
f 59/175/30 64/176/30 63/173/30 
f 78/177/27 82/178/27 91/179/27 
f 91/179/27 79/180/27 78/177/27 
f 77/181/21 69/182/21 82/183/21 
f 82/183/21 78/184/21 77/181/21 
f 80/185/31 70/186/31 69/187/31 
f 69/187/31 77/188/31 80/185/31 
f 79/189/23 91/190/23 70/191/23 
f 70/191/23 80/192/23 79/189/23 
f 86/193/23 74/194/23 90/195/23 
f 90/195/23 87/196/23 86/193/23 
f 85/197/32 72/198/32 74/199/32 
f 74/199/32 86/200/32 85/197/32 
f 88/201/21 83/202/21 72/203/21 
f 72/203/21 85/204/21 88/201/21 
f 87/205/22 90/206/22 83/207/22 
f 83/207/22 88/208/22 87/205/22 
f 102/209/33 106/210/33 115/211/33 
f 115/211/33 103/212/33 102/209/33 
f 101/213/21 93/214/21 106/215/21 
f 106/215/21 102/216/21 101/213/21 
f 104/217/34 94/218/34 93/219/34 
f 93/219/34 101/220/34 104/217/34 
f 103/221/23 115/222/23 94/223/23 
f 94/223/23 104/224/23 103/221/23 
f 110/225/23 98/226/23 114/227/23 
f 114/227/23 111/228/23 110/225/23 
f 109/229/35 96/230/35 98/231/35 
f 98/231/35 110/232/35 109/229/35 
f 112/233/21 107/234/21 96/235/21 
f 96/235/21 109/236/21 112/233/21 
f 111/237/36 114/238/36 107/239/36 
f 107/239/36 112/240/36 111/237/36 
f 126/241/37 130/242/37 131/243/37 
f 131/243/37 127/244/37 126/241/37 
f 125/245/21 117/246/21 130/247/21 
f 130/247/21 126/248/21 125/245/21 
f 128/249/38 118/250/38 117/251/38 
f 117/251/38 125/252/38 128/249/38 
f 127/253/23 131/254/23 118/255/23 
f 118/255/23 128/256/23 127/253/23 
f 10/10/39 137/257/39 138/258/39 
f 138/258/39 11/11/39 10/10/39 
f 14/14/4 139/259/4 140/260/4 
f 140/260/4 15/15/4 14/14/4 
usemtl lambert3SG
f 141/33/40 142/32/40 143/31/40 
f 143/31/40 144/34/40 141/33/40 
usemtl initialShadingGroup
f 145/261/9 146/262/9 25/27/9 
f 25/27/4 45/44/4 145/261/4 
f 35/37/39 147/263/39 148/264/39 
f 148/264/39 50/49/39 35/37/39 
usemtl lambert3SG
f 149/32/41 150/33/41 151/34/41 
f 151/34/41 152/31/41 149/32/41 
usemtl initialShadingGroup
f 153/265/42 154/266/42 155/267/42 
f 155/267/43 156/268/43 153/265/43 
f 139/259/4 157/269/4 158/270/4 
f 158/270/4 140/260/4 139/259/4 
f 157/269/4 139/259/4 146/262/4 
f 146/262/4 159/271/4 157/269/4 
f 160/272/4 159/271/4 146/262/4 
f 146/262/9 145/261/9 160/272/9 
f 161/273/44 162/274/44 163/275/44 
f 163/275/45 164/276/45 161/273/45 
f 162/274/46 161/273/46 165/277/46 
f 164/276/47 163/275/47 156/268/47 
f 156/268/47 155/267/47 164/276/47 
usemtl lambert4SG
s 1
f 166/278/48 167/279/49 168/280/50 
f 168/280/50 169/281/51 166/278/48 
usemtl initialShadingGroup
s off
f 157/269/4 170/282/4 171/283/4 
f 171/283/4 158/270/4 157/269/4 
usemtl lambert3SG
f 172/33/52 173/32/52 174/31/52 
f 174/31/52 175/34/52 172/33/52 
usemtl initialShadingGroup
f 176/284/4 177/285/4 159/271/4 
f 159/271/4 160/272/4 176/284/4 
f 161/273/53 164/276/53 178/286/53 
f 178/286/54 179/287/54 161/273/54 
usemtl lambert4SG
f 169/281/50 168/280/50 180/34/50 
f 180/34/50 181/31/50 169/281/50 
usemtl initialShadingGroup
f 182/288/55 17/289/55 20/290/55 
f 20/290/56 183/291/56 182/288/56 
f 184/292/4 133/293/4 135/294/4 
f 135/294/4 185/295/4 184/292/4 
f 184/292/4 170/282/4 177/285/4 
f 177/285/4 186/296/4 184/292/4 
f 186/296/4 177/285/4 176/284/4 
f 176/284/4 187/297/4 186/296/4 
f 52/298/57 188/299/57 179/287/57 
f 179/287/58 178/286/58 52/298/58 
f 52/298/3 178/286/3 37/300/3 
f 178/286/3 183/291/3 20/290/3 
f 20/290/3 37/300/3 178/286/3 
f 150/301/59 138/302/59 147/303/59 
f 147/303/59 151/304/59 150/301/59 
f 149/305/21 11/306/21 138/307/21 
f 138/307/21 150/308/21 149/305/21 
f 152/309/60 35/310/60 11/311/60 
f 11/311/60 149/312/60 152/309/60 
f 151/313/23 147/314/23 35/315/23 
f 35/315/23 152/316/23 151/313/23 
s 2
f 167/317/61 182/318/62 183/319/63 
f 183/319/63 168/320/64 167/317/61 
s 3
f 169/321/51 155/322/65 154/323/66 
f 154/323/66 166/324/48 169/321/51 
s off
f 168/320/64 183/319/64 178/325/64 
f 178/325/64 180/326/64 168/320/64 
f 181/327/67 164/328/67 155/322/67 
f 155/322/67 169/321/67 181/327/67 
f 180/329/23 178/330/23 164/331/23 
f 164/331/23 181/332/23 180/329/23 
f 142/333/68 14/334/68 25/335/68 
f 25/335/69 143/336/69 142/333/69 
f 141/337/70 139/338/70 14/339/70 
f 14/339/70 142/340/70 141/337/70 
f 144/341/71 146/342/71 139/343/71 
f 139/343/71 141/344/71 144/341/71 
f 143/345/72 25/346/72 146/347/72 
f 146/347/72 144/348/72 143/345/72 
f 173/349/73 157/350/73 159/351/73 
f 159/351/73 174/352/73 173/349/73 
f 172/353/21 170/354/21 157/355/21 
f 157/355/21 173/356/21 172/353/21 
f 175/357/74 177/358/74 170/359/74 
f 170/359/75 172/360/75 175/357/75 
f 174/361/76 159/362/76 177/363/76 
f 177/363/77 175/364/77 174/361/77 
f 188/365/23 189/366/23 190/367/23 
f 190/367/23 165/368/23 188/365/23 
f 165/368/23 190/367/23 191/369/23 
f 191/369/23 162/370/23 165/368/23 
f 192/371/23 193/372/23 50/373/23 
f 50/373/23 148/374/23 192/371/23 
f 193/372/23 194/375/23 49/376/23 
f 49/376/23 50/373/23 193/372/23 
f 49/376/23 194/375/23 195/377/23 
f 195/377/23 48/378/23 49/376/23 
f 48/378/23 195/377/23 196/379/23 
f 196/379/23 46/380/23 48/378/23 
f 46/380/23 196/379/23 197/381/23 
f 197/381/23 47/382/23 46/380/23 
f 47/382/23 197/381/23 198/383/23 
f 198/383/23 65/384/23 47/382/23 
f 199/385/23 75/386/23 65/384/23 
f 65/384/23 198/383/23 199/385/23 
f 199/385/23 200/387/23 89/388/23 
f 89/388/23 75/386/23 199/385/23 
f 200/387/23 201/389/23 99/390/23 
f 99/390/23 89/388/23 200/387/23 
f 201/389/23 202/391/23 113/392/23 
f 113/392/23 99/390/23 201/389/23 
f 202/391/23 203/393/23 123/394/23 
f 123/394/23 113/392/23 202/391/23 
f 203/393/78 204/395/78 44/396/78 
f 44/396/79 123/394/79 203/393/79 
f 136/397/80 205/398/80 206/399/80 
f 206/399/23 132/400/23 136/397/23 
f 132/400/23 206/399/23 207/401/23 
f 207/401/23 124/402/23 132/400/23 
f 124/402/23 207/401/23 208/403/23 
f 208/403/23 116/404/23 124/402/23 
f 116/404/23 208/403/23 209/405/23 
f 209/405/23 100/406/23 116/404/23 
f 100/406/23 209/405/23 210/407/23 
f 210/407/23 92/408/23 100/406/23 
f 92/408/23 210/407/23 211/409/23 
f 211/409/23 76/410/23 92/408/23 
f 212/411/23 68/412/23 76/410/23 
f 76/410/23 211/409/23 212/411/23 
f 212/411/23 213/413/23 42/414/23 
f 42/414/23 68/412/23 212/411/23 
f 213/413/23 214/415/23 43/416/23 
f 43/416/23 42/414/23 213/413/23 
f 214/415/23 215/417/23 51/418/23 
f 51/418/23 43/416/23 214/415/23 
f 215/417/23 216/419/23 52/420/23 
f 52/420/23 51/418/23 215/417/23 
f 52/420/23 216/419/23 189/366/23 
f 189/366/23 188/365/23 52/420/23 
s 4
f 189/421/81 217/422/82 218/423/83 
f 218/423/83 190/424/84 189/421/81 
s off
f 190/424/85 218/423/85 219/425/85 
f 219/425/86 191/426/86 190/424/86 
f 220/427/87 193/428/87 192/429/87 
f 192/429/87 221/430/87 220/427/87 
f 222/431/3 194/432/3 193/428/3 
f 193/428/3 220/427/3 222/431/3 
f 223/433/5 195/434/5 194/435/5 
f 194/435/5 222/436/5 223/433/5 
f 224/437/12 196/438/12 195/434/12 
f 195/434/12 223/433/12 224/437/12 
f 225/439/1 197/440/1 196/438/1 
f 196/438/1 224/437/1 225/439/1 
f 226/441/12 198/442/12 197/440/12 
f 197/440/12 225/439/12 226/441/12 
f 227/443/12 199/444/12 198/442/12 
f 198/442/12 226/441/12 227/443/12 
f 228/445/11 200/446/11 199/444/11 
f 199/444/11 227/443/11 228/445/11 
f 229/447/88 201/448/88 200/446/88 
f 200/446/88 228/445/88 229/447/88 
f 230/449/14 202/450/14 201/448/14 
f 201/448/14 229/447/14 230/449/14 
f 231/451/89 203/452/89 202/450/89 
f 202/450/89 230/449/89 231/451/89 
f 232/453/90 204/454/90 203/452/90 
f 203/452/90 231/451/90 232/453/90 
f 44/43/4 232/455/4 233/456/4 
f 233/456/91 45/44/91 44/43/91 
f 232/455/92 44/43/92 204/457/92 
f 45/44/91 233/456/91 234/458/91 
f 234/458/91 145/261/91 45/44/91 
f 145/261/91 234/458/91 235/459/91 
f 235/459/4 160/272/4 145/261/4 
f 160/272/4 235/459/4 236/460/4 
f 236/460/9 176/284/9 160/272/9 
f 237/461/9 187/297/9 176/284/9 
f 176/284/9 236/460/9 237/461/9 
f 238/462/8 206/463/8 205/464/8 
f 205/464/93 239/465/93 238/462/93 
f 240/466/2 207/467/2 206/463/2 
f 206/463/2 238/462/2 240/466/2 
f 241/468/94 208/469/94 207/467/94 
f 207/467/94 240/466/94 241/468/94 
f 242/470/6 209/471/6 208/469/6 
f 208/469/6 241/468/6 242/470/6 
f 243/472/6 210/473/6 209/471/6 
f 209/471/6 242/470/6 243/472/6 
f 244/474/2 211/475/2 210/473/2 
f 210/473/2 243/472/2 244/474/2 
f 245/476/2 212/477/2 211/475/2 
f 211/475/2 244/474/2 245/476/2 
f 246/478/95 213/479/95 212/477/95 
f 212/477/95 245/476/95 246/478/95 
f 247/480/60 214/481/60 213/479/60 
f 213/479/60 246/478/60 247/480/60 
f 248/482/2 215/483/2 214/481/2 
f 214/481/2 247/480/2 248/482/2 
f 249/484/2 216/485/2 215/483/2 
f 215/483/2 248/482/2 249/484/2 
f 249/486/96 217/422/96 189/421/96 
f 189/421/97 216/487/97 249/486/97 
usemtl lambert7SG
f 250/488/98 251/489/98 219/490/98 
f 219/490/99 218/491/99 250/488/99 
f 252/492/100 253/493/100 220/494/100 
f 220/494/101 221/495/101 252/492/101 
f 253/493/102 254/496/102 222/497/102 
f 222/497/103 220/494/103 253/493/103 
f 222/497/104 254/496/104 255/498/104 
f 255/498/105 223/499/105 222/497/105 
f 223/499/105 255/498/105 256/500/105 
f 256/500/106 224/501/106 223/499/106 
f 224/501/107 256/500/107 257/502/107 
f 257/502/108 225/503/108 224/501/108 
f 225/503/109 257/502/109 258/504/109 
f 258/504/110 226/505/110 225/503/110 
f 259/506/111 227/507/111 226/505/111 
f 226/505/112 258/504/112 259/506/112 
f 259/506/113 260/508/113 228/509/113 
f 228/509/114 227/507/114 259/506/114 
f 260/508/115 261/510/115 229/511/115 
f 229/511/116 228/509/116 260/508/116 
f 261/510/117 262/512/117 230/513/117 
f 230/513/118 229/511/118 261/510/118 
f 230/513/119 262/512/119 263/514/119 
f 263/514/120 264/515/120 230/513/120 
f 231/516/121 230/513/121 264/515/121 
f 264/515/122 265/517/122 231/516/122 
f 265/517/123 266/518/123 232/519/123 
f 232/519/124 231/516/124 265/517/124 
usemtl initialShadingGroup
f 232/455/4 266/520/4 267/521/4 
f 267/521/125 268/522/125 232/455/125 
f 232/455/4 268/522/4 233/456/4 
f 233/456/4 268/522/4 269/523/4 
f 269/523/4 234/458/4 233/456/4 
f 269/523/4 270/524/4 235/459/4 
f 235/459/4 234/458/4 269/523/4 
f 270/524/4 271/525/4 236/460/4 
f 236/460/4 235/459/4 270/524/4 
f 271/525/4 272/526/4 237/461/4 
f 237/461/4 236/460/4 271/525/4 
usemtl lambert7SG
f 239/527/126 273/528/126 274/529/126 
f 274/529/126 238/530/126 239/527/126 
f 275/531/127 240/532/127 274/529/127 
f 274/529/23 276/533/23 275/531/23 
f 274/529/126 240/532/126 238/530/126 
f 240/532/126 275/531/126 277/534/126 
f 277/534/126 241/535/126 240/532/126 
f 241/535/128 277/534/128 278/536/128 
f 278/536/128 242/537/128 241/535/128 
f 242/537/128 278/536/128 279/538/128 
f 279/538/128 243/539/128 242/537/128 
f 243/539/129 279/538/129 280/540/129 
f 280/540/130 244/541/130 243/539/130 
f 280/540/130 281/542/130 245/543/130 
f 245/543/130 244/541/130 280/540/130 
f 281/542/131 282/544/131 246/545/131 
f 246/545/132 245/543/132 281/542/132 
f 282/544/133 283/546/133 247/547/133 
f 247/547/134 246/545/134 282/544/134 
f 283/546/126 284/548/126 248/549/126 
f 248/549/133 247/547/133 283/546/133 
f 284/548/135 285/550/135 249/551/135 
f 249/551/126 248/549/126 284/548/126 
f 249/551/136 285/550/136 286/552/136 
f 286/552/137 217/553/137 249/551/137 
usemtl lambert2SG
f 287/554/138 254/555/138 253/556/138 
f 253/556/138 288/557/138 287/554/138 
f 288/557/139 253/556/139 252/558/139 
f 252/558/139 251/559/139 288/557/139 
usemtl initialShadingGroup
f 137/257/140 153/265/140 156/268/140 
f 156/268/39 138/258/39 137/257/39 
f 162/274/87 148/264/87 147/263/87 
f 147/263/141 163/275/141 162/274/141 
f 163/275/39 147/263/39 138/258/39 
f 138/258/39 156/268/39 163/275/39 
f 170/282/4 184/292/4 185/295/4 
f 185/295/4 171/283/4 170/282/4 
f 133/293/4 184/292/4 186/296/4 
f 186/296/4 134/560/4 133/293/4 
f 134/560/4 186/296/4 187/297/4 
f 187/297/4 136/561/4 134/560/4 
f 191/369/23 192/371/23 148/374/23 
f 148/374/23 162/370/23 191/369/23 
f 192/429/142 191/426/142 219/425/142 
f 219/425/39 221/430/39 192/429/39 
f 136/561/4 237/461/4 239/562/4 
f 239/562/143 205/563/143 136/561/143 
f 237/461/9 136/561/9 187/297/9 
usemtl lambert7SG
f 251/489/144 252/492/144 221/495/144 
f 221/495/145 219/490/145 251/489/145 
usemtl initialShadingGroup
f 289/564/125 273/565/125 239/562/125 
f 239/562/4 272/526/4 289/564/4 
f 239/562/4 237/461/4 272/526/4 
usemtl lambert2SG
f 258/566/21 257/567/21 256/568/21 
f 256/568/21 260/569/21 258/566/21 
f 290/570/146 260/569/146 256/568/146 
f 256/568/147 255/571/147 290/570/147 
f 287/572/148 290/570/148 255/571/148 
f 255/571/149 254/573/149 287/572/149 
f 290/570/150 263/574/150 261/575/150 
f 261/575/151 260/569/151 290/570/151 
f 290/570/152 264/576/152 263/574/152 
f 263/574/21 262/577/21 261/575/21 
f 258/566/21 260/569/21 259/578/21 
f 291/579/153 292/580/153 293/581/153 
f 293/581/154 288/582/154 291/579/154 
f 294/583/155 292/580/155 291/579/155 
f 291/579/156 295/584/156 294/583/156 
f 293/581/157 292/580/157 296/585/157 
f 275/586/158 276/587/158 296/585/158 
f 296/585/159 277/588/159 275/586/159 
f 278/589/160 277/588/160 296/585/160 
f 296/585/160 279/590/160 278/589/160 
f 282/591/161 279/590/161 296/585/161 
f 296/585/162 283/592/162 282/591/162 
f 292/580/163 285/593/163 283/592/163 
f 283/592/164 296/585/164 292/580/164 
f 285/593/21 284/594/21 283/592/21 
f 280/595/21 279/590/21 282/591/21 
f 282/591/21 281/596/21 280/595/21 
f 290/570/165 287/572/165 288/582/165 
f 288/582/166 293/581/166 290/570/166 
f 264/576/167 290/570/167 266/597/167 
f 266/597/168 265/598/168 264/576/168 
f 266/597/169 290/570/169 267/599/169 
usemtl lambert8SG
f 297/600/170 298/601/170 299/602/170 
f 299/602/171 300/603/171 297/600/171 
f 299/602/172 298/601/172 301/604/172 
f 301/604/173 302/605/173 299/602/173 
usemtl lambert2SG
f 274/606/174 273/607/174 289/608/174 
f 289/608/175 276/587/175 274/606/175 
f 289/608/176 296/585/176 276/587/176 
usemtl lambert8SG
f 293/609/177 298/610/177 297/611/177 
f 297/611/178 290/612/178 293/609/178 
f 290/613/179 297/614/179 300/615/179 
f 300/615/180 267/616/180 290/613/180 
usemtl initialShadingGroup
f 268/522/125 267/521/125 300/617/125 
f 299/618/4 271/525/4 270/524/4 
f 299/618/91 270/524/91 269/523/91 
f 269/523/181 268/619/181 300/620/181 
f 299/618/4 269/523/4 300/620/4 
usemtl lambert8SG
f 301/621/182 298/610/182 293/609/182 
f 293/609/183 296/622/183 301/621/183 
usemtl initialShadingGroup
f 272/526/4 299/618/4 302/623/4 
f 302/623/4 289/564/4 272/526/4 
usemtl lambert8SG
f 302/624/184 301/625/184 296/626/184 
f 296/626/185 289/627/185 302/624/185 
usemtl lambert2SG
f 303/628/186 285/629/186 294/630/186 
f 294/630/187 304/631/187 303/628/187 
f 303/628/188 286/632/188 285/629/188 
f 294/630/189 285/629/189 292/633/189 
usemtl initialShadingGroup
f 305/634/190 306/635/190 307/636/190 
f 307/636/191 308/637/191 305/634/191 
f 305/634/23 309/638/23 306/635/23 
f 310/639/192 311/640/192 305/641/192 
f 305/641/193 308/642/193 310/639/193 
f 310/639/194 308/642/194 312/643/194 
f 312/643/195 313/644/195 310/639/195 
f 312/643/196 294/645/196 313/644/196 
f 314/646/197 312/647/197 308/648/197 
f 308/648/198 307/649/198 314/646/198 
f 314/650/199 307/651/199 306/652/199 
f 306/652/200 315/653/200 314/650/200 
f 316/654/201 317/655/201 313/656/201 
f 313/656/202 294/657/202 316/654/202 
usemtl lambert2SG
f 318/658/203 319/659/203 295/584/203 
f 295/584/204 291/579/204 318/658/204 
usemtl initialShadingGroup
f 320/660/205 321/661/205 319/662/205 
f 319/662/206 318/663/206 320/660/206 
usemtl lambert2SG
f 319/659/207 316/664/207 294/583/207 
f 294/583/208 295/584/208 319/659/208 
usemtl initialShadingGroup
f 321/661/209 317/665/209 316/666/209 
f 316/666/210 319/662/210 321/661/210 
f 322/667/211 313/668/211 317/669/211 
f 317/669/212 321/670/212 322/667/212 
f 313/668/213 322/667/213 310/671/213 
usemtl lambert2SG
f 323/672/214 288/557/214 250/673/214 
f 250/673/215 324/674/215 323/672/215 
f 323/672/216 312/675/216 288/557/216 
f 250/673/217 288/557/217 251/559/217 
f 312/676/218 315/677/218 318/658/218 
f 318/658/219 291/579/219 312/676/219 
f 315/677/220 312/676/220 314/678/220 
usemtl initialShadingGroup
f 320/660/221 318/663/221 315/653/221 
f 315/653/222 306/652/222 320/660/222 
f 320/679/223 306/635/223 309/638/223 
f 309/638/224 325/680/224 320/679/224 
f 322/667/225 321/670/225 320/679/225 
f 320/679/226 325/680/226 322/667/226 
f 310/681/227 326/682/227 327/683/227 
f 327/683/227 311/684/227 310/681/227 
f 322/685/228 217/686/228 326/687/228 
f 326/687/229 310/688/229 322/685/229 
f 327/683/230 328/689/230 305/690/230 
f 305/690/230 311/684/230 327/683/230 
f 328/691/231 218/692/231 309/693/231 
f 309/693/232 305/694/232 328/691/232 
usemtl lambert4SG
f 329/34/233 330/695/233 331/696/233 
f 331/696/234 332/697/234 329/34/234 
usemtl initialShadingGroup
f 286/698/235 303/699/235 217/700/235 
f 324/701/236 250/702/236 218/703/236 
s 4
f 333/704/237 218/423/83 217/422/82 
f 217/422/82 334/705/238 333/704/237 
f 218/706/83 333/707/237 335/708/239 
f 335/708/239 309/709/240 218/706/83 
f 325/710/241 309/709/240 336/711/242 
f 336/711/242 322/712/243 325/710/241 
f 336/711/242 309/709/240 335/708/239 
f 336/711/242 334/713/238 217/714/82 
f 217/714/82 322/712/243 336/711/242 
s off
f 332/715/244 333/716/244 334/717/244 
f 334/717/244 329/718/244 332/715/244 
f 331/719/245 335/720/245 333/721/245 
f 333/721/246 332/722/246 331/719/246 
f 336/723/247 335/724/247 331/725/247 
f 331/725/248 330/726/248 336/723/248 
f 329/727/249 334/728/249 336/729/249 
f 336/729/250 330/730/250 329/727/250 
usemtl lambert2SG
f 304/631/251 294/630/251 312/675/251 
f 312/675/252 323/672/252 304/631/252 
usemtl lambert5SG
f 337/731/253 338/732/253 339/733/253 
f 339/733/254 340/734/254 337/731/254 
f 339/735/255 338/736/255 179/737/255 
f 179/737/256 188/738/256 339/735/256 
f 179/739/257 338/740/257 337/741/257 
f 337/741/257 161/742/257 179/739/257 
f 161/743/258 337/744/258 340/745/258 
f 340/745/259 165/746/259 161/743/259 
f 340/747/260 339/748/260 188/749/260 
f 188/749/260 165/750/260 340/747/260 
usemtl lambert8SG
f 341/751/2 342/752/2 343/753/2 
f 343/753/2 344/754/2 341/751/2 
f 341/751/10 344/754/10 345/755/10 
f 345/755/10 346/756/10 341/751/10 
f 346/756/2 345/755/2 347/757/2 
f 347/757/2 348/758/2 346/756/2 
f 348/758/6 347/757/6 349/759/6 
f 349/759/6 350/760/6 348/758/6 
f 350/760/261 349/759/261 351/761/261 
f 351/761/261 352/762/261 350/760/261 
f 352/763/262 351/764/262 353/765/262 
f 353/765/263 354/766/263 352/763/263 
s 2
f 167/767/61 355/768/264 182/769/62 
s 3
f 166/770/48 154/771/66 356/772/265 
s off
f 357/773/266 358/774/266 359/775/266 
f 359/775/267 360/776/267 357/773/267 
f 360/776/268 359/775/268 361/777/268 
f 361/777/269 362/778/269 360/776/269 
f 362/778/87 361/777/87 363/779/87 
f 363/779/87 364/780/87 362/778/87 
f 364/780/270 363/779/270 365/781/270 
f 365/781/270 366/782/270 364/780/270 
f 365/783/271 367/784/271 368/785/271 
f 368/785/271 366/786/271 365/783/271 
f 367/784/12 369/787/12 370/788/12 
f 370/788/12 368/785/12 367/784/12 
f 370/788/1 369/787/1 371/789/1 
f 371/789/1 372/790/1 370/788/1 
f 372/790/12 371/789/12 373/791/12 
f 373/791/12 374/792/12 372/790/12 
f 374/792/11 373/791/11 375/793/11 
f 375/793/11 376/794/11 374/792/11 
f 376/794/272 375/793/272 377/795/272 
f 377/795/272 378/796/272 376/794/272 
f 378/796/88 377/795/88 379/797/88 
f 379/797/88 380/798/88 378/796/88 
f 380/798/273 379/797/273 381/799/273 
f 381/799/273 382/800/273 380/798/273 
f 382/800/15 381/799/15 383/801/15 
f 383/801/15 384/802/15 382/800/15 
f 384/802/274 383/801/274 385/803/274 
f 385/803/274 386/804/274 384/802/274 
f 385/805/275 387/806/275 388/807/275 
f 388/807/275 386/808/275 385/805/275 
f 387/806/276 389/809/276 390/810/276 
f 390/810/276 388/807/276 387/806/276 
f 389/809/277 391/811/277 392/812/277 
f 392/812/277 390/810/277 389/809/277 
f 391/811/278 393/813/278 394/814/278 
f 394/814/278 392/812/278 391/811/278 
f 393/813/279 395/815/279 396/816/279 
f 396/816/280 394/814/280 393/813/280 
f 395/815/281 397/817/281 398/818/281 
f 398/818/282 396/816/282 395/815/282 
f 398/819/283 397/820/283 399/821/283 
f 399/821/283 400/822/283 398/819/283 
f 400/822/6 399/821/6 401/823/6 
f 401/823/6 402/824/6 400/822/6 
f 402/824/6 401/823/6 403/825/6 
f 403/825/6 404/826/6 402/824/6 
f 404/826/6 403/825/6 405/827/6 
f 405/827/6 406/828/6 404/826/6 
f 406/828/8 405/827/8 407/829/8 
f 407/829/8 408/830/8 406/828/8 
f 408/830/6 407/829/6 343/753/6 
f 343/753/6 342/752/6 408/830/6 
s 5
f 343/831/284 71/832/284 57/833/284 
f 57/833/284 344/834/284 343/831/284 
f 344/834/284 57/833/284 6/835/21 
f 6/835/21 345/836/21 344/834/284 
f 345/836/21 6/835/21 5/837/21 
f 5/837/21 347/838/21 345/836/21 
f 347/838/21 5/837/21 18/839/21 
f 18/839/21 349/840/285 347/838/21 
f 17/841/286 351/842/287 349/840/285 
f 349/840/285 18/839/21 17/841/286 
f 353/843/288 351/842/287 17/841/286 
f 17/841/286 182/844/289 353/843/288 
s 2
f 354/845/290 353/846/291 182/769/62 
f 182/769/62 355/768/264 354/845/290 
s 5
f 358/847/292 154/848/66 153/849/293 
f 153/849/293 359/850/294 358/847/292 
s 3
f 154/771/66 358/851/292 357/852/295 
f 357/852/295 356/772/265 154/771/66 
s 5
f 359/850/294 153/849/293 137/853/296 
f 137/853/296 361/854/297 359/850/294 
f 361/854/297 137/853/296 10/855/298 
f 10/855/298 363/856/299 361/854/297 
f 9/857/300 365/858/301 363/856/299 
f 363/856/299 10/855/298 9/857/300 
f 367/859/302 365/858/301 9/857/300 
f 9/857/300 21/860/303 367/859/302 
f 367/859/302 21/860/303 1/861/21 
f 1/861/21 369/862/21 367/859/302 
f 369/862/21 1/861/21 4/863/21 
f 4/863/21 371/864/21 369/862/21 
f 371/864/21 4/863/21 60/865/304 
f 60/865/304 373/866/304 371/864/21 
f 373/866/304 60/865/304 73/867/304 
f 73/867/304 375/868/304 373/866/304 
f 375/868/304 73/867/304 84/869/21 
f 84/869/21 377/870/21 375/868/304 
f 377/870/21 84/869/21 97/871/21 
f 97/871/21 379/872/21 377/870/21 
f 379/872/21 97/871/21 108/873/21 
f 108/873/21 381/874/21 379/872/21 
f 381/874/21 108/873/21 120/875/305 
f 120/875/305 383/876/306 381/874/21 
f 16/877/298 385/878/298 383/876/306 
f 383/876/306 120/875/305 16/877/298 
f 387/879/307 385/878/298 16/877/298 
f 16/877/298 15/880/307 387/879/307 
f 387/879/307 15/880/307 140/881/307 
f 140/881/307 389/882/307 387/879/307 
f 389/882/307 140/881/307 158/883/70 
f 158/883/70 391/884/70 389/882/307 
f 391/884/70 158/883/70 171/885/308 
f 171/885/308 393/886/308 391/884/70 
f 393/886/308 171/885/308 185/887/70 
f 185/887/70 395/888/70 393/886/308 
f 135/889/309 397/890/309 395/888/70 
f 395/888/70 185/887/70 135/889/309 
f 399/891/305 397/890/309 135/889/309 
f 135/889/309 129/892/305 399/891/305 
f 399/891/305 129/892/305 119/893/21 
f 119/893/21 401/894/21 399/891/305 
f 401/894/21 119/893/21 105/895/21 
f 105/895/21 403/896/21 401/894/21 
f 403/896/21 105/895/21 95/897/21 
f 95/897/21 405/898/21 403/896/21 
f 405/898/21 95/897/21 81/899/21 
f 81/899/21 407/900/21 405/898/21 
f 407/900/21 81/899/21 71/832/284 
f 71/832/284 343/831/284 407/900/21 
usemtl lambert4SG
s 1
f 409/901/310 167/279/49 166/278/48 
f 166/278/48 410/32/311 409/901/310 
usemtl lambert2SG
s off
f 291/902/312 288/557/312 312/675/312 
usemtl lambert5SG
s 7
f 411/903/313 412/904/314 413/905/315 
f 413/905/315 414/906/316 411/903/313 
usemtl lambert6SG
s off
f 415/907/23 416/908/23 417/909/23 
f 417/909/23 418/910/23 415/907/23 
usemtl lambert5SG
s 8
f 419/911/317 420/912/318 421/913/319 
f 421/913/319 422/914/320 419/911/317 
s 9
f 423/915/270 424/916/321 425/917/322 
f 425/917/322 419/918/317 423/915/270 
s 10
f 426/919/323 427/920/323 421/921/319 
f 421/921/319 420/922/318 426/919/323 
s 11
f 428/917/324 429/916/325 412/904/314 
f 412/904/314 411/903/313 428/917/324 
s 12
f 430/903/326 431/903/327 432/906/328 
f 432/906/328 433/906/329 430/903/326 
s 13
f 434/904/330 435/905/331 436/905/332 
f 436/905/332 437/904/333 434/904/330 
s off
f 432/906/334 436/905/334 435/905/334 
f 435/905/335 433/906/335 432/906/335 
s 12
f 430/903/326 438/917/336 439/917/337 
f 439/917/337 431/903/327 430/903/326 
s off
f 440/916/338 439/917/338 438/917/338 
f 438/917/338 441/916/338 440/916/338 
s 13
f 434/904/330 437/904/333 440/916/339 
f 440/916/339 441/916/340 434/904/330 
s 14
f 442/906/341 443/903/342 430/903/326 
f 430/903/326 433/906/329 442/906/341 
s 7
f 414/906/316 432/906/328 431/903/327 
f 431/903/327 411/903/313 414/906/316 
s 14
f 444/905/343 435/905/331 434/904/330 
f 434/904/330 445/904/344 444/905/343 
s 7
f 413/905/315 412/904/314 437/904/333 
f 437/904/333 436/905/332 413/905/315 
s 14
f 433/906/329 435/905/331 444/905/343 
f 444/905/343 442/906/341 433/906/329 
s 7
f 436/905/332 432/906/328 414/906/316 
f 414/906/316 413/905/315 436/905/332 
s 15
f 425/917/322 438/917/336 430/903/326 
f 430/903/326 443/903/342 425/917/322 
s 11
f 428/917/324 411/903/313 431/903/327 
f 431/903/327 439/917/337 428/917/324 
s 15
f 441/916/340 438/917/336 425/917/322 
f 425/917/322 424/916/321 441/916/340 
s 11
f 439/917/337 440/916/339 429/916/325 
f 429/916/325 428/917/324 439/917/337 
s 15
f 424/916/321 445/904/344 434/904/330 
f 434/904/330 441/916/340 424/916/321 
s 11
f 429/916/325 440/916/339 437/904/333 
f 437/904/333 412/904/314 429/916/325 
s 16
f 446/923/2 427/924/2 426/925/2 
f 426/925/2 423/926/2 446/923/2 
s 9
f 422/927/320 446/928/270 423/915/270 
f 423/915/270 419/918/317 422/927/320 
s 10
f 442/906/341 444/905/343 426/919/323 
f 426/919/323 420/922/318 442/906/341 
usemtl lambert6SG
s 16
f 418/929/2 417/930/2 427/931/2 
f 427/931/2 446/932/2 418/929/2 
s 10
f 427/933/323 417/934/323 416/935/345 
f 416/935/345 421/936/319 427/933/323 
s 8
f 422/937/320 421/938/319 416/939/345 
f 416/939/345 415/940/320 422/937/320 
s 9
f 415/941/320 418/942/270 446/943/270 
f 446/943/270 422/944/320 415/941/320 
usemtl lambert5SG
s off
f 423/945/21 426/946/21 420/947/21 
f 420/947/21 419/948/21 423/945/21 
usemtl lambert8SG
f 409/949/21 410/950/21 447/951/21 
f 447/951/21 448/952/21 409/949/21 
f 409/953/346 448/954/346 449/955/346 
f 449/955/346 450/956/346 409/953/346 
f 447/957/347 410/958/347 451/959/347 
f 451/959/347 452/960/347 447/957/347 
f 448/961/50 447/962/50 452/963/50 
f 452/963/50 449/964/50 448/961/50 
usemtl initialShadingGroup
f 299/618/4 272/526/4 271/525/4 
# 848 faces

