# 3ds Max Wavefront OBJ Exporter v0.97b - (c)2007 guruware
# File Created: 13.03.2012 16:42:01

mtllib Pikk_53-origo.mtl

#
# object Pikk_53
#

v  542369.4636 6589401.905 28.3811
v  542371.6309 6589400.8725 29.6413
v  542371.6307 6589400.8722 30.2038
v  542368.1673 6589402.5221 28.2567
v  542367.8634 6589402.6645 31.3298
v  542367.8965 6589392.9245 29.6413
v  542367.8965 6589392.9245 30.2038
v  542368.4008 6589405.1568 25.4832
v  542367.5332 6589403.2824 28.6521
v  542367.5332 6589403.2825 31.3298
v  542372.0475 6589413.0352 31.3298
v  542370.7625 6589410.259 25.6212
v  542372.0475 6589413.0352 30.8182
v  542372.0475 6589413.0352 25.4487
v  542381.1978 6589408.7998 27.4748
v  542376.9568 6589410.7629 26.9734
v  542374.2835 6589412.0003 27.9193
v  542374.0067 6589390.8453 28.0116
v  542374.0066 6589390.8453 28.6690
v  542368.3745 6589392.7615 30.2038
v  542368.0406 6589403.0476 31.3298
v  542372.2852 6589412.2176 31.3298
v  542372.555 6589412.8004 31.3298
v  542371.8265 6589401.2951 30.2038
v  542367.3594 6589402.9067 28.1579
v  542367.3585 6589402.9048 31.3298
v  542368.5906 6589393.2283 30.2038
v  542372.04 6589400.6805 30.2038
v  542372.2366 6589401.1052 30.2038
v  542372.0475 6589413.0352 15.7145
v  542370.7625 6589410.259 15.9503
v  542370.6852 6589410.2948 25.6212
v  542367.8375 6589405.4175 25.4832
v  542370.6852 6589410.2948 15.9503
v  542370.6852 6589410.2948 24.5574
v  542381.1976 6589408.7998 28.6690
v  542380.9592 6589408.2045 28.6691
v  542374.1976 6589391.3222 28.6690
v  542368.0435 6589403.0464 30.7371
v  542372.2759 6589412.2214 30.6351
v  542371.8291 6589401.294 29.6101
v  542372.04 6589400.6805 29.4733
v  542372.2411 6589401.1034 29.4875
v  542376.4818 6589410.2751 29.3830
v  542380.9592 6589408.2043 28.0559
v  542374.1978 6589391.3223 27.9763
v  542368.5983 6589393.2251 29.5773
v  542380.9593 6589408.2043 27.9075
v  542374.1978 6589391.3223 27.9074
v  542374.6477 6589391.1421 27.7767
v  542381.4092 6589408.024 27.7767
v  542381.4092 6589408.024 27.9252
v  542374.6477 6589391.1421 27.8455
v  542381.2005 6589408.7987 16.1724
v  542374.0094 6589390.8442 16.1724
v  542379.7401 6589398.9424 16.1724
v  542379.7401 6589398.9424 22.0285
v  542377.1835 6589400.1259 22.0285
v  542377.1835 6589400.1259 16.1724
v  542385.9045 6589406.6212 16.1724
v  542385.9045 6589406.6212 23.1254
v  542384.0212 6589402.5526 22.0285
v  542384.0212 6589402.5526 16.1724
v  542381.1984 6589408.7995 23.1254
v  542379.3151 6589404.731 22.0285
v  542381.8718 6589403.5475 22.0285
v  542381.8718 6589403.5475 16.1724
v  542381.8718 6589403.5475 22.8420
v  542379.3151 6589404.731 23.1357
v  542377.1835 6589400.1259 23.1357
v  542379.7401 6589398.9424 22.8420
v  542367.8375 6589405.4175 24.4822
# 72 vertices

vn -0.4298 -0.9029 -0.0007
vn -0.4298 -0.9029 -0.0006
vn -0.9051 0.4253 0.0000
vn -0.9075 0.4200 -0.0000
vn -0.9075 0.4201 -0.0000
vn -0.9075 0.4201 0.0000
vn 0.4201 0.9075 0.0000
vn 0.4200 0.9075 -0.0000
vn -0.3221 -0.9467 0.0000
vn -0.3222 -0.9467 -0.0004
vn -0.3227 -0.9465 0.0000
vn 0.0000 -0.0000 1.0000
vn -0.0000 -0.0000 1.0000
vn -0.0000 0.0000 1.0000
vn 0.2365 -0.1094 0.9655
vn -0.9076 0.4199 -0.0000
vn -0.9076 0.4198 -0.0000
vn 0.0000 0.0000 1.0000
vn -0.0103 -0.0223 0.9997
vn 0.4200 0.9075 -0.0002
vn 0.4201 0.9075 -0.0000
vn 0.2442 -0.1130 0.9631
vn 0.2493 -0.0998 0.9633
vn 0.2322 -0.0930 0.9682
vn 0.2289 -0.1059 0.9677
vn 0.9075 -0.4201 0.0052
vn 0.9079 -0.4190 -0.0145
vn 0.4201 0.9075 0.0002
vn 0.9075 -0.4201 -0.0000
vn 0.9030 -0.4295 0.0067
vn 0.4201 0.9075 0.0003
vn 0.4199 0.9075 0.0002
vn -0.4198 -0.9076 0.0005
vn -0.4195 -0.9078 0.0021
vn -0.4197 -0.9077 0.0003
vn 0.3219 0.9468 0.0002
vn 0.3215 0.9469 -0.0009
vn 0.9074 -0.4200 0.0133
vn 0.9079 -0.4191 -0.0000
vn 0.9283 -0.3718 0.0002
vn 0.9284 -0.3716 0.0002
vn 0.9284 -0.3717 0.0002
vn 0.2401 -0.1006 0.9655
vn 0.2417 -0.1008 0.9651
vn 0.2414 -0.1007 0.9652
vn 0.2397 -0.1006 0.9656
vn 0.2409 -0.1004 0.9653
vn 0.9284 -0.3716 0.0003
vn 0.9283 -0.3718 0.0003
vn 0.9283 -0.3717 0.0003
vn -0.4201 -0.9075 -0.0000
vn 0.9075 -0.4201 0.0000
vn -0.0998 -0.2157 0.9713
vn 0.0941 -0.0436 0.9946
vn 0.2402 -0.1008 0.9655
vn -0.3718 -0.9283 0.0000
vn -0.2418 0.0968 -0.9655
vn 0.3718 0.9283 0.0000
vn -0.8636 0.5042 -0.0000
# 59 vertex normals

vt 2.9524 2.9970 1.0945
vt 3.5644 1.7967 1.1078
vt 3.8457 1.7967 1.1080
vt 2.8735 3.7148 1.0868
vt 4.4087 3.8826 1.0860
vt 1.1078 3.5644 1.7967
vt 5.4986 3.5644 1.8219
vt 5.4986 3.8457 1.8219
vt 1.1080 3.8457 1.7967
vt -0.1577 1.4854 4.1622
vt 0.8750 3.0698 4.1622
vt 0.8749 4.4087 4.1622
vt -4.4985 4.4087 4.1622
vt -2.9689 1.5544 4.1622
vt -4.4985 4.1529 4.1622
vt -4.4985 1.5919 4.1622
vt -3.1529 4.1622 -4.4985
vt -1.6975 -0.8793 -4.4985
vt -1.7106 1.4574 -4.4985
vt -1.7107 2.9303 -4.4985
vt -0.5919 4.1622 -4.4985
vt 3.5644 1.8219 5.4986
vt 2.7496 -1.3873 5.1587
vt 3.0783 -1.3872 5.1587
vt 3.8457 1.5707 5.4721
vt 3.8457 1.8219 5.4986
vt 0.4943 -2.3482 1.1168
vt 0.5051 3.0253 1.1174
vt 0.2255 3.0258 1.1174
vt 0.2153 -2.0265 1.1168
vt 0.2147 -2.3476 1.1168
vt 0.2506 -0.4292 0.4573
vt 0.4836 -0.4288 0.4573
vt 0.4801 1.6571 0.7003
vt 0.2691 1.6567 0.7003
vt 1.0819 2.8227 4.1622
vt 1.0830 4.4087 4.1622
vt 0.5055 3.2333 1.1174
vt 0.2259 3.2369 1.1174
vt 2.8227 4.1622 1.0819
vt 4.4087 4.1622 1.0830
vt 0.4777 -1.6953 1.2147
vt 0.4918 2.6953 1.2145
vt 0.2407 2.6682 1.2145
vt 0.2413 2.4110 1.2145
vt 0.2518 -1.6949 1.2147
vt 0.2500 -0.6552 0.4573
vt 0.4840 -0.6548 0.4573
vt -4.4985 -3.3990 4.1622
vt -2.9689 -3.2811 4.1622
vt 1.1577 4.1622 1.4854
vt 3.9689 4.1622 1.5544
vt 3.9689 4.2048 1.5544
vt 1.1577 4.4725 1.4854
vt -0.5544 4.1622 -2.9689
vt 4.2811 4.1622 -2.9689
vt 4.2811 4.2048 -2.9689
vt -0.0225 4.2048 -2.9689
vt -0.5544 4.2048 -2.9689
vt -3.4087 4.1622 -4.4985
vt -3.4087 3.8826 -4.4985
vt -2.0783 -0.8792 -4.4985
vt 0.1409 2.8713 0.3609
vt 0.1568 -1.8905 0.6391
vt 0.4779 -1.8894 0.6391
vt 0.4611 2.8892 0.3609
vt 0.1723 2.0215 0.6881
vt 0.1756 -0.9530 0.4289
vt 0.4321 -0.9664 0.4289
vt 0.4281 1.9947 0.6881
vt 0.2240 3.0258 0.0645
vt 0.2203 -2.0263 -0.1174
vt 0.4837 -0.4302 0.3292
vt 0.4802 1.6556 0.5724
vt 0.2500 -0.6552 0.2997
vt 0.4841 -0.6572 0.3027
vt 0.4781 -1.8944 0.5664
vt 0.4702 0.4227 0.4356
vt 0.4611 2.8893 0.2969
vt 0.4322 -0.9665 0.3119
vt 0.4279 1.9905 0.5823
vt 0.2372 2.4108 -0.0113
vt 0.2518 -1.6949 -0.2145
vt 0.1756 -0.9531 0.3179
vt 0.4763 0.6904 0.0063
vt 0.4764 0.3838 0.0016
vt 0.1561 0.3096 0.9939
vt 0.1561 0.6904 0.9995
vt 5.1881 0.9486 0.5104
vt -4.2040 0.9194 0.5281
vt -3.8831 -2.0301 0.3897
vt 5.1958 -1.5263 0.3957
vt 5.1813 3.2736 0.6186
vt 0.1351 1.1606 0.5305
vt 0.1358 0.9329 0.5199
vt 0.1293 3.2534 0.6279
vt 0.4764 0.3096 0.0005
vt -3.9021 2.7319 -1.3738
vt -4.1587 2.7496 -1.3873
vt -3.9021 2.6975 -1.3738
vt -3.8697 -2.2734 0.3721
vt 5.2092 -1.7701 0.3709
vt 5.2092 -1.7691 0.3844
vt -3.8697 -2.2729 0.3784
vt 5.4986 -3.1700 -0.8808
vt 5.4985 2.6975 -0.8793
vt 5.1782 2.6975 -0.8962
vt -4.1586 -3.1700 -1.3888
vt -3.1700 -2.2882 0.2804
vt -0.2420 -2.2882 0.2804
vt -0.2420 -0.8796 0.2804
vt -3.1700 -0.8796 0.2804
vt 5.4985 -3.1700 -3.4725
vt 5.4985 0.3065 -3.4725
vt 3.2568 -0.2420 -3.4725
vt 3.2568 -3.1700 -3.4725
vt -0.7991 -0.6178 0.6057
vt 1.7938 -0.6239 0.6057
vt 1.7991 1.6178 0.3943
vt 0.3905 1.6211 0.3943
vt -0.7938 1.6239 0.3943
vt -3.1700 -3.4725 -2.2568
vt -0.2420 -3.4725 -2.2568
vt -0.2420 -2.2882 -2.2569
vt -3.1700 -2.2882 -2.2569
vt 3.2569 -3.1700 -2.2882
vt 3.2569 -0.2420 -2.2882
vt 0.7196 -0.2420 -2.2882
vt 0.7196 -3.1700 -2.2882
vt 1.7706 -0.2016 0.4543
vt 1.7666 1.2088 0.5456
vt -0.7706 1.2016 0.5457
vt -0.7666 -0.2088 0.4544
vt 1.2420 -2.2882 -2.2569
vt 1.2420 -0.8796 -2.2569
vt 0.6884 -0.8796 -2.2569
vt 0.8352 -2.2882 -2.2569
vt 0.1648 -2.2882 0.2804
vt 0.3116 -0.8796 0.2804
vt 3.2569 0.1648 -2.2882
vt 0.7196 0.1648 -2.2882
vt -3.8831 -2.0306 0.3834
vt 5.1958 -1.5273 0.3822
vt -0.1577 1.4854 4.4725
vt -2.9689 1.5544 4.2048
vt -2.9689 1.0225 4.2048
vt -0.1577 0.9849 4.4725
# 147 texture coords

g Pikk_53
usemtl kr_kol
s off
f 1/1/1 2/2/1 3/3/1 
f 4/4/2 1/1/2 3/3/2 
f 4/4/1 3/3/1 5/5/1 
f 2/6/3 6/7/3 7/8/3 
f 7/8/3 3/9/3 2/6/3 
f 8/10/4 9/11/4 10/12/4 
f 8/10/5 10/12/5 11/13/5 
f 12/14/6 8/10/6 11/13/6 
f 12/14/6 11/13/6 13/15/6 
f 14/16/6 12/14/6 13/15/6 
f 13/17/7 15/18/7 16/19/7 
f 13/17/7 16/19/7 17/20/7 
f 14/21/8 13/17/8 17/20/8 
f 6/22/9 18/23/9 19/24/9 
f 6/22/10 19/24/10 20/25/10 
f 6/22/11 20/25/11 7/26/11 
usemtl kat
f 11/27/12 10/28/12 21/29/12 
f 11/27/13 21/29/13 22/30/13 
f 11/27/14 22/30/14 23/31/14 
f 3/32/15 24/33/15 21/34/15 
f 21/34/15 5/35/15 3/32/15 
usemtl kr_kol
f 10/12/16 9/11/16 25/36/16 
f 25/36/17 26/37/17 10/12/17 
usemtl kat
f 21/29/18 10/28/18 26/38/18 
f 26/38/12 5/39/12 21/29/12 
usemtl kr_kol
s 1
f 25/40/1 4/4/1 5/5/1 
f 5/5/1 26/41/1 25/40/1 
usemtl kat
s off
f 3/42/13 7/43/13 20/44/13 
f 3/42/12 20/44/12 27/45/12 
f 3/42/13 27/45/13 28/46/13 
f 3/32/18 28/47/18 29/48/18 
f 29/48/18 24/33/18 3/32/18 
usemtl kr_kol
f 14/16/5 30/49/5 31/50/5 
f 31/50/5 12/14/5 14/16/5 
f 8/51/19 12/52/19 32/53/19 
f 32/53/19 33/54/19 8/51/19 
f 12/55/7 31/56/7 34/57/7 
f 12/55/7 34/57/7 35/58/7 32/59/7 
f 11/60/20 23/61/20 36/62/20 
f 13/17/21 11/60/21 36/62/21 
f 13/17/7 36/62/7 15/18/7 
usemtl kat
f 36/63/22 23/64/22 22/65/22 
f 22/65/23 37/66/23 36/63/23 
f 20/67/24 19/68/24 38/69/24 
f 38/69/25 27/70/25 20/67/25 
f 22/30/26 21/29/26 39/71/26 
f 39/71/27 40/72/27 22/30/27 
f 21/34/28 24/33/28 41/73/28 
f 41/73/28 39/74/28 21/34/28 
f 29/48/29 28/47/29 42/75/29 
f 42/75/30 43/76/30 29/48/30 
f 24/33/31 29/48/31 43/76/31 
f 43/76/32 41/73/32 24/33/32 
f 37/66/33 22/65/33 40/77/33 
f 37/66/34 40/77/34 44/78/34 
f 37/66/35 44/78/35 45/79/35 
f 27/70/36 38/69/36 46/80/36 
f 46/80/37 47/81/37 27/70/37 
f 28/46/38 27/45/38 47/82/38 
f 47/82/39 42/83/39 28/46/39 
s 1
f 46/80/40 38/69/40 19/68/40 
f 19/68/40 18/84/40 46/80/40 
f 37/85/40 45/86/41 15/87/42 
f 15/87/42 36/88/40 37/85/40 
s 2
f 44/89/43 47/90/44 46/91/45 
f 46/91/45 45/92/46 44/89/43 
s 1
f 44/89/47 40/93/47 41/94/47 
f 41/94/47 43/95/47 44/89/47 
s off
f 39/96/47 41/94/47 40/93/47 
f 45/86/48 48/97/48 15/87/48 
usemtl kr_kol
f 46/98/49 18/99/49 49/100/49 
usemtl kat
s 4
f 50/101/49 51/102/49 52/103/49 53/104/49 
usemtl kr_kol
s 1
f 54/105/40 15/106/42 48/107/50 49/100/40 
f 54/105/40 49/100/40 18/99/40 55/108/40 
s 6
f 56/109/51 57/110/51 58/111/51 59/112/51 
s off
f 60/113/52 61/114/52 62/115/52 63/116/52 
usemtl kat
f 61/117/53 64/118/53 65/119/53 66/120/53 
f 61/117/53 66/120/53 62/121/53 
usemtl kr_kol
s 6
f 63/122/51 62/123/51 66/124/51 67/125/51 
s off
f 67/126/52 66/127/52 57/128/52 56/129/52 
usemtl kat
f 68/130/54 69/131/54 70/132/54 71/133/54 
usemtl kr_kol
f 66/134/21 65/135/21 69/136/21 68/137/21 
f 58/111/51 57/110/51 71/138/51 70/139/51 
f 57/128/52 66/127/52 68/140/52 71/141/52 
usemtl kat
f 45/92/55 46/91/55 53/104/55 52/103/55 
f 46/91/56 49/142/56 50/101/56 53/104/56 
f 49/142/57 48/143/57 51/102/57 50/101/57 
f 48/143/58 45/92/58 52/103/58 51/102/58 
usemtl kr_kol
f 33/144/59 32/145/59 35/146/59 72/147/59 
# 18 polygons - 71 triangles

#
# object xxx
#

v  542369.4675 6589401.912 16.3788
v  542369.4636 6589401.905 28.3811
v  542368.1673 6589402.5221 28.2567
v  542368.1707 6589402.5292 16.3788
v  542368.3532 6589402.9029 28.7256
v  542369.2269 6589404.6874 25.4832
v  542369.2268 6589404.6874 16.3788
v  542371.6309 6589400.8725 29.6413
v  542371.6349 6589400.8803 16.3788
v  542367.8965 6589392.9244 16.1724
v  542367.8965 6589392.9245 29.6413
v  542368.4008 6589405.1568 25.4832
v  542368.4008 6589405.1568 16.3835
v  542367.5332 6589403.2824 28.6521
v  542367.8375 6589405.4175 16.3835
v  542367.8375 6589405.4175 24.4822
v  542370.6852 6589410.2948 24.5574
v  542370.6852 6589410.2948 15.9503
v  542376.9568 6589410.7629 15.6951
v  542374.2835 6589412.0003 15.6951
v  542374.2835 6589412.0003 27.9193
v  542376.9568 6589410.7629 26.9734
v  542372.0475 6589413.0352 15.7145
v  542372.0475 6589413.0352 25.4487
v  542374.0067 6589390.8453 28.0116
v  542374.0094 6589390.8442 16.1724
v  542381.1978 6589408.7998 27.4748
v  542381.2005 6589408.7987 16.1724
v  542367.8375 6589405.4175 25.4832
v  542367.3594 6589402.9067 28.1579
v  542381.1984 6589408.7995 23.1254
v  542385.9045 6589406.6212 23.1254
v  542385.9045 6589406.6212 16.1724
# 33 vertices

vn -0.4298 -0.9029 -0.0007
vn -0.8987 0.4387 0.0000
vn -0.8982 0.4397 -0.0000
vn -0.8982 0.4396 0.0000
vn -0.9051 0.4253 -0.0000
vn -0.4940 -0.8695 -0.0000
vn -0.4940 -0.8695 0.0000
vn -0.4143 -0.7292 -0.5447
vn -0.3195 -0.7912 -0.5215
vn -0.8636 0.5042 -0.0000
vn 0.4201 0.9075 0.0000
vn 0.4200 0.9075 -0.0000
vn -0.3221 -0.9467 0.0000
vn -0.3222 -0.9467 0.0000
vn 0.4200 0.9075 0.0000
vn -0.4201 -0.9075 -0.0000
vn -0.4201 -0.9075 0.0000
vn 0.3926 0.6604 -0.6401
vn 0.3604 0.6490 -0.6700
# 19 vertex normals

vt -3.0668 2.9967 1.0905
vt 2.9524 2.9970 1.0945
vt 2.8735 3.7148 1.0868
vt -3.0668 3.7147 1.0828
vt 0.8749 3.1066 3.7104
vt 1.0828 -3.0668 3.7147
vt 1.0868 2.8735 3.7148
vt -0.1183 1.4854 3.6888
vt -0.1183 -3.0668 3.6888
vt 3.5644 1.7967 1.1078
vt -3.0668 1.7966 1.1034
vt 5.4986 -3.1700 1.8219
vt 5.4986 3.5644 1.8219
vt 1.1078 3.5644 1.7967
vt 1.1034 -3.0668 1.7966
vt 1.4854 3.6888 -0.1183
vt 1.4854 4.1622 -0.1577
vt -3.0645 4.1622 -0.1577
vt -3.0668 3.6888 -0.1183
vt 3.0698 4.1622 0.8750
vt 3.1066 3.7104 0.8749
vt -0.1577 -3.0645 4.4725
vt -0.1577 0.9849 4.4725
vt -2.9689 1.0225 4.2048
vt -2.9689 -3.2811 4.2048
vt 4.4087 1.4574 -4.4985
vt 4.4087 2.9303 -4.4985
vt -1.7107 2.9303 -4.4985
vt -1.7106 1.4574 -4.4985
vt 4.3990 4.1622 -4.4985
vt -0.5919 4.1622 -4.4985
vt 2.7496 -1.3873 5.1587
vt 3.5644 1.8219 5.4986
vt -3.1700 1.8219 5.4986
vt -3.1700 -1.3888 5.1586
vt -1.6975 -0.8793 -4.4985
vt 4.1700 -0.8808 -4.4986
vt 1.4854 4.4725 -0.1577
vt 0.9849 4.4725 -0.1577
vt -3.0645 4.4725 -0.1577
vt -1.8735 3.7148 1.0868
vt -1.8227 4.1622 1.0819
vt -2.0698 4.1622 0.8750
vt -2.1066 3.7104 0.8749
vt 0.6935 -0.8796 -4.4985
vt 0.6935 -3.4725 -4.4985
vt 4.1700 -3.4725 -4.4985
# 47 texture coords

g xxx
usemtl xxx
s off
f 73/148/60 74/149/60 75/150/60 
f 75/150/60 76/151/60 73/148/60 
f 77/152/61 76/153/61 75/154/61 
f 76/153/62 77/152/62 78/155/62 
f 78/155/63 79/156/63 76/153/63 
f 80/157/60 74/149/60 73/148/60 
f 73/148/60 81/158/60 80/157/60 
f 82/159/64 83/160/64 80/161/64 
f 80/161/64 81/162/64 82/159/64 
f 78/163/65 84/164/65 85/165/65 
f 85/165/66 79/166/66 78/163/66 
f 86/167/67 84/164/67 78/163/67 
f 78/163/68 77/168/68 86/167/68 
f 87/169/69 88/170/69 89/171/69 90/172/69 
s 1
f 91/173/70 92/174/71 93/175/71 
f 93/175/71 94/176/70 91/173/70 
f 92/174/71 95/177/71 96/178/71 
f 96/178/71 93/175/71 92/174/71 
s off
f 97/179/72 83/180/72 82/181/72 
f 82/181/73 98/182/73 97/179/73 
s 6
f 91/173/70 94/176/70 99/183/70 
f 99/183/70 100/184/74 91/173/70 
s off
f 85/165/75 84/164/75 101/185/75 
f 85/165/76 101/185/76 88/186/76 87/187/76 
f 75/188/77 102/189/77 86/190/77 
f 86/190/78 77/191/78 75/188/78 
f 103/192/70 104/193/70 105/194/70 100/184/70 
# 3 polygons - 24 triangles

