# 3ds Max Wavefront OBJ Exporter v0.97b - (c)2007 guruware
# File Created: 22.02.2012 11:41:30

mtllib rannam2e_tee_5.1.mtl

#
# object default
#

v  -198.0630 476.6910 18.2955
v  -193.1640 470.1910 18.2955
v  -193.1640 470.1910 18.5000
v  -198.0630 476.6910 18.5000
v  -193.6030 469.8600 18.5000
v  -198.5020 476.3600 18.5000
v  -198.0630 476.6910 19.5155
v  -197.9120 476.4920 19.5155
v  -194.7640 478.8640 19.5155
v  -194.8280 479.1290 19.5155
v  -189.4440 477.9410 19.5155
v  -189.3040 478.1700 19.5155
v  -187.2060 474.9930 19.5155
v  -186.8560 474.9440 19.5155
v  -189.9300 472.6280 19.5155
v  -190.0800 472.8280 19.5155
v  -193.1640 470.1910 19.5155
v  -193.3150 470.3900 19.5155
v  -198.5020 476.3600 19.5155
v  -198.3520 476.1610 19.5155
v  -193.7540 470.0590 19.5155
v  -193.6030 469.8600 19.5155
v  -189.4440 477.9410 19.4546
v  -194.7590 478.8680 19.2291
v  -197.9010 476.5010 18.9885
v  -198.3520 476.1610 18.9500
v  -193.7540 470.0590 18.9500
v  -193.3030 470.3990 18.9885
v  -190.0750 472.8320 19.2357
v  -187.2060 474.9930 19.4554
v  -198.3520 476.1610 18.5000
v  -193.7540 470.0590 18.5000
v  -190.0260 472.5560 18.0358
v  -182.6780 462.8040 18.0358
v  -181.8370 467.9170 18.2520
v  -187.0570 474.7940 18.2502
v  -185.8110 460.4430 17.8097
v  -185.8160 460.4390 18.2955
v  -182.6780 462.8040 18.2955
v  -193.1650 470.1910 18.3223
v  -193.1650 470.1910 18.2955
v  -193.1590 470.1950 17.8097
v  -190.0270 472.5560 18.3223
v  -182.6510 462.9680 18.2955
v  -181.8320 467.9200 18.2955
v  -187.0520 474.7970 18.2955
v  -187.0520 474.7970 18.3223
v  -189.9300 472.6280 18.3223
v  -182.4310 462.6770 18.2955
v  -181.5290 467.9270 18.2955
v  -186.8560 474.9440 18.2955
v  -185.6660 460.2400 18.2955
v  -186.2490 460.1130 17.7780
v  -193.5970 469.8640 17.7780
v  -193.6030 469.8600 17.3500
v  -186.1050 459.9090 17.3500
v  -186.1050 459.9090 18.2955
v  -186.2550 460.1080 18.2955
v  -193.1640 470.1910 14.5045
v  -185.6660 460.2400 14.5045
v  -185.6660 460.2400 17.3500
v  -193.1640 470.1910 17.3500
v  -189.3040 478.1700 16.9500
v  -189.3040 478.1700 18.2955
v  -189.2380 478.0830 18.2955
v  -189.2380 478.0830 16.9500
v  -189.2860 478.0460 16.9500
v  -189.2860 478.0460 18.2955
v  -188.6630 477.2260 18.2955
v  -188.6630 477.2260 16.9500
v  -188.6150 477.2620 16.9500
v  -188.6150 477.2620 18.2955
v  -188.5300 477.1510 18.2955
v  -188.5300 477.1510 16.9500
v  -188.5780 477.1140 16.9500
v  -188.5780 477.1140 18.2955
v  -187.9550 476.2940 18.2955
v  -187.9550 476.2940 16.9500
v  -186.8560 474.9440 16.9500
v  -187.9080 476.3300 16.9500
v  -187.9080 476.3300 18.2955
v  -189.5020 478.2050 16.9500
v  -189.5020 478.2050 18.2955
v  -189.5120 478.1450 16.9500
v  -190.4250 478.3040 16.9500
v  -190.4250 478.3040 18.2955
v  -189.5120 478.1450 18.2955
v  -190.4150 478.3630 18.2955
v  -190.4150 478.3630 16.9500
v  -192.5540 478.7340 16.9500
v  -192.5540 478.7340 18.2955
v  -192.5640 478.6750 18.2955
v  -192.5640 478.6750 16.9500
v  -193.4690 478.8320 16.9500
v  -193.4690 478.8320 18.2955
v  -193.4590 478.8910 18.2955
v  -193.4590 478.8910 16.9500
v  -193.7240 478.9370 16.9500
v  -193.7240 478.9370 18.2955
v  -193.7340 478.8780 18.2955
v  -193.7340 478.8780 16.9500
v  -194.6670 479.0400 16.9500
v  -194.6670 479.0400 18.2955
v  -194.8280 479.1290 16.9500
v  -194.8280 479.1290 18.2955
v  -194.6570 479.0990 18.2955
v  -194.6570 479.0990 16.9500
v  -195.0120 478.9900 16.9500
v  -195.0120 478.9900 18.2955
v  -194.9760 478.9430 18.2955
v  -194.9760 478.9430 16.9500
v  -195.7640 478.3490 16.9500
v  -195.7640 478.3490 18.2955
v  -198.0630 476.6910 16.9500
v  -195.8000 478.3960 18.2955
v  -195.8000 478.3960 16.9500
v  -181.5290 467.9270 14.5045
v  -181.5290 467.9270 15.7500
v  -182.4310 462.6770 15.7500
v  -182.4310 462.6770 14.5045
v  -184.6790 472.0770 14.5045
v  -184.6790 472.0770 15.7500
v  -186.2450 474.1400 14.5045
v  -186.8560 474.9440 14.5045
v  -186.8560 474.9440 15.7500
v  -186.2450 474.1400 15.7500
v  -186.9030 474.9080 15.7500
v  -186.9030 474.9080 17.1000
v  -186.2930 474.1040 17.1000
v  -186.2930 474.1040 15.7500
v  -184.6790 472.0770 17.1000
v  -182.2610 468.8910 17.1000
v  -182.2610 468.8910 15.7500
v  -182.3080 468.8550 15.7500
v  -182.3080 468.8550 17.1000
v  -181.6800 468.0260 17.1000
v  -181.6800 468.0260 15.7500
v  -181.5290 467.9270 17.1000
v  -181.6320 468.0620 15.7500
v  -181.6320 468.0620 17.1000
v  -181.5570 467.7660 17.1000
v  -181.5570 467.7660 15.7500
v  -181.6160 467.7760 15.7500
v  -181.6160 467.7760 17.1000
v  -181.7930 466.7450 17.1000
v  -181.7930 466.7450 15.7500
v  -182.4310 462.6770 17.1000
v  -181.7340 466.7350 15.7500
v  -181.7340 466.7350 17.1000
v  -185.6350 471.3510 16.8500
v  -184.6790 472.0770 16.8500
v  -185.6350 471.3510 14.5045
v  -187.0800 473.2550 16.8500
v  -186.1240 473.9810 16.8500
v  -187.0800 473.2550 14.5045
v  -186.1240 473.9810 14.5045
v  -185.6660 460.2400 18.2200
v  -186.1050 459.9090 18.2200
v  -185.6350 460.2000 18.2955
v  -186.0750 459.8690 18.2955
v  -186.0750 459.8690 18.2200
v  -185.6350 460.2000 18.2200
v  -186.2450 474.1400 17.1000
v  -186.8560 474.9440 17.1000
v  -186.8560 474.9440 18.2200
v  -186.2450 474.1400 18.2200
v  -186.8160 474.9750 18.2955
v  -186.2050 474.1700 18.2955
v  -186.2050 474.1700 18.2200
v  -186.8160 474.9750 18.2200
v  -184.6790 472.0770 18.2200
v  -181.5290 467.9270 18.2200
v  -184.6390 472.1070 18.2955
v  -181.4800 467.9390 18.2955
v  -181.4800 467.9390 18.2200
v  -184.6390 472.1070 18.2200
v  -182.4310 462.6770 18.2200
v  -182.3880 462.6510 18.2955
v  -182.3910 462.6530 18.2200
v  -186.1240 473.9810 18.2200
v  -186.0840 474.0110 18.2955
v  -186.0840 474.0110 18.2200
v  -186.2450 474.1400 18.2955
v  -184.6790 472.0770 18.2955
v  -186.1240 473.9810 18.2955
v  -194.8280 479.1290 15.8000
v  -198.0630 476.6910 15.8000
v  -194.8170 479.0800 14.5045
v  -198.0330 476.6520 14.5045
v  -198.0330 476.6520 15.8000
v  -194.8170 479.0800 15.8000
v  -189.3040 478.1700 15.8000
v  -189.3300 478.1280 14.5045
v  -189.3300 478.1280 15.8000
v  -193.1640 470.1910 15.8000
v  -186.8560 474.9440 15.8000
v  -187.8260 476.1410 15.8000
v  -187.8260 476.1410 14.5045
v  -187.7870 476.1710 14.5045
v  -187.7870 476.1710 15.8000
v  -198.0630 476.6910 19.4500
v  -194.8280 479.1290 19.4500
v  -198.0930 476.7310 19.5155
v  -194.8400 479.1770 19.5155
v  -194.8400 479.1770 19.4500
v  -198.0930 476.7310 19.4500
v  -198.5020 476.3600 19.4500
v  -198.5320 476.4000 19.5155
v  -198.5320 476.4000 19.4500
v  -189.3040 478.1700 19.4500
v  -189.2780 478.2130 19.5155
v  -189.2780 478.2130 19.4500
v  -186.8560 474.9440 19.4500
v  -186.7860 474.9350 19.5155
v  -186.7860 474.9350 19.4500
v  -193.1640 470.1910 19.4500
v  -193.6030 469.8600 19.4500
v  -193.1340 470.1510 19.5155
v  -193.5730 469.8200 19.5155
v  -193.5730 469.8200 19.4500
v  -193.1340 470.1510 19.4500
v  -190.0260 472.5550 18.3223
v  -189.9300 472.6280 19.4500
v  -193.1640 470.1910 18.3223
v  -189.9000 472.5880 19.5155
v  -189.9000 472.5880 19.4500
v  -187.0800 473.2550 14.7045
v  -185.6350 471.3510 14.7045
v  -186.1240 473.9810 14.7045
v  -184.6790 472.0770 14.7045
v  -184.6790 472.0770 14.5800
v  -184.4860 471.8220 14.5045
v  -184.4860 471.8220 14.5800
v  -186.3170 474.2360 14.5800
v  -186.3170 474.2360 14.5045
v  -186.1240 473.9810 14.5800
v  -184.7110 472.0530 14.6600
v  -184.6790 472.0770 14.6600
v  -184.7110 472.0530 14.5800
v  -186.1560 473.9560 14.6600
v  -186.1240 473.9810 14.6600
v  -186.1560 473.9560 14.5800
v  -185.6350 471.3510 14.7000
v  -187.0800 473.2550 14.7000
v  -184.3920 472.2950 14.5045
v  -185.8370 474.1980 14.5045
v  -185.8370 474.1980 14.5800
v  -184.3920 472.2950 14.5800
v  -184.1990 472.0400 14.5045
v  -184.1990 472.0400 14.5800
v  -186.0310 474.4530 14.5800
v  -186.0310 474.4530 14.5045
# 252 vertices

vn -0.7986 -0.6019 0.0000
vn 0.0000 0.0000 -1.0000
vn 0.0000 0.0000 1.0000
vn -0.0488 -0.0367 0.9981
vn -0.0543 -0.0409 0.9977
vn -0.0487 -0.0367 0.9981
vn -0.6021 0.7984 -0.0001
vn -0.6020 0.7985 0.0000
vn 0.6020 -0.7985 0.0000
vn 0.6012 -0.7991 -0.0011
vn 0.6018 -0.7987 -0.0011
vn 0.6018 -0.7987 -0.0006
vn -0.1711 -0.9851 -0.0167
vn -0.1709 -0.9853 0.0000
vn -0.7965 -0.6047 0.0000
vn -0.6017 0.7987 0.0000
vn -0.6017 0.7987 0.0007
vn -0.6019 0.7986 0.0006
vn -0.6019 0.7986 -0.0001
vn -0.7985 -0.6020 0.0000
vn -0.7966 -0.6045 0.0000
vn -0.7986 -0.6018 0.0000
vn -0.0460 -0.0347 0.9983
vn -0.0460 -0.0346 0.9983
vn -0.6018 0.7986 0.0004
vn -0.6019 0.7986 0.0000
vn 0.5547 -0.8321 0.0000
vn 0.6018 -0.7986 0.0008
vn 0.6019 -0.7986 0.0021
vn -0.9867 0.1624 0.0000
vn -0.9866 0.1632 -0.0005
vn -0.9823 0.1572 0.1021
vn -0.7895 -0.5993 0.1325
vn -0.7901 -0.5997 0.1269
vn 0.6018 -0.7986 0.0021
vn 0.6017 -0.7987 -0.0086
vn -0.7985 -0.6017 0.0169
vn -0.7985 -0.6017 0.0181
vn -0.7985 -0.6019 0.0000
vn -0.8315 -0.5554 -0.0150
vn -0.7987 -0.6018 0.0000
vn -0.6029 0.7978 -0.0004
vn -0.6021 0.7984 0.0009
vn -0.0461 -0.0347 0.9983
vn -0.6020 0.7985 0.0004
vn -0.6018 0.7987 0.0007
vn 0.7967 0.6043 0.0000
vn 0.7962 0.6050 0.0000
vn 0.7939 0.6080 0.0000
vn 0.7963 0.6050 0.0000
vn 0.7965 0.6046 0.0000
vn 0.1739 0.9848 0.0000
vn 0.1716 0.9852 0.0000
vn 0.1709 0.9853 0.0000
vn 0.1711 0.9853 0.0000
vn 0.1728 0.9850 0.0000
vn -0.6028 0.7979 0.0000
vn -0.6019 0.7985 0.0000
vn 0.9856 -0.1693 0.0000
vn 0.7962 0.6051 0.0000
vn 0.7967 0.6044 0.0000
vn 0.7966 0.6046 0.0000
vn 0.7971 0.6038 0.0000
vn 0.7951 0.6065 0.0000
vn 0.9852 -0.1713 0.0000
vn 0.9856 -0.1692 0.0000
vn -0.6048 0.7964 0.0000
vn 0.6048 -0.7964 0.0000
vn 0.6012 -0.7991 0.0000
vn 0.7970 0.6040 0.0000
vn 0.9846 -0.1691 -0.0437
vn 0.9855 -0.1698 0.0000
vn 0.7966 0.6045 0.0000
vn 0.7958 0.6055 0.0000
vn 0.6017 -0.7987 0.0000
vn 0.6025 -0.7981 0.0000
vn 0.6025 -0.7968 -0.0452
vn -0.8001 -0.5999 0.0000
vn -0.6126 0.7904 0.0000
vn -0.5174 -0.8557 -0.0022
vn -0.5144 -0.8576 0.0000
vn 0.5144 0.8576 0.0000
vn 0.5174 0.8557 0.0022
vn -0.6025 0.7981 0.0000
vn 0.1710 0.9853 0.0000
vn 0.7973 0.6035 0.0000
vn -0.6097 0.7926 0.0000
vn -0.6010 0.7993 0.0000
vn -0.6021 0.7984 0.0000
vn 0.1708 0.9853 0.0000
vn 0.7961 0.6052 0.0000
vn 0.6021 -0.7984 0.0000
vn 0.6053 -0.7960 0.0000
vn 0.6018 -0.7986 0.0000
vn 0.6017 -0.7987 0.0005
vn 0.6000 -0.8000 0.0000
vn 0.5990 -0.8007 -0.0114
vn 0.6019 -0.7986 0.0000
vn -0.7999 -0.6002 0.0000
vn 0.6108 -0.7918 0.0000
vn -0.5999 0.8001 0.0000
vn 0.6103 -0.7921 0.0000
vn -0.6079 0.7940 0.0000
vn -0.9864 0.1643 0.0000
vn 0.9859 -0.1672 0.0000
vn -0.9860 0.1670 0.0000
vn 0.9859 -0.1670 0.0000
vn 0.9859 -0.1673 0.0000
vn -0.7939 -0.6081 0.0000
vn 0.7939 0.6081 0.0000
vn 0.6082 -0.7938 0.0000
vn -0.6001 0.7999 0.0000
vn 0.6079 -0.7940 0.0000
vn -0.6002 0.7998 0.0000
vn -0.1673 -0.9859 0.0000
vn 0.1673 0.9859 0.0000
vn -0.7974 -0.6035 0.0000
vn -0.5998 0.8001 0.0000
vn 0.6154 -0.7882 0.0000
vn 0.7964 0.6047 0.0000
vn 0.6049 -0.7963 0.0000
vn -0.6045 0.7966 0.0000
vn 0.7974 0.6035 0.0000
vn 0.7959 0.6055 0.0000
# 124 vertex normals

vt -3.9065 -0.3822 0.0000
vt 0.1304 -0.3822 0.0000
vt 0.1304 -0.4835 0.0000
vt -3.9065 -0.4835 0.0000
vt 6.4202 1.5065 0.0000
vt 2.3404 1.5065 0.0000
vt 2.3404 1.7723 0.0000
vt 6.4202 1.7723 0.0000
vt -13.4123 -8.8018 0.0000
vt -12.9223 -8.8018 0.0000
vt -12.9223 -0.4611 0.0000
vt -13.4123 -0.2320 0.0000
vt -5.2013 7.3546 0.0000
vt -5.3958 7.8828 0.0000
vt 2.0523 7.3820 0.0000
vt 2.5423 7.9128 0.0000
vt 2.5423 -0.2320 0.0000
vt 2.0523 -0.2320 0.0000
vt 2.5423 -8.8018 0.0000
vt 2.0523 -8.8018 0.0000
vt -13.4123 -9.9656 0.0000
vt -12.9223 -9.9656 0.0000
vt 2.0523 -9.9656 0.0000
vt 2.5423 -9.9656 0.0000
vt 9.5791 0.4753 0.0000
vt 7.6180 0.7173 0.0000
vt 5.5253 0.7173 0.0000
vt 5.2250 0.7173 0.0000
vt 5.2250 0.2480 0.0000
vt 5.5253 0.2480 0.0000
vt 7.6755 0.2480 0.0000
vt 9.5859 0.2480 0.0000
vt -0.8260 1.7729 0.0000
vt -0.5246 1.7729 0.0000
vt -0.5166 1.4499 0.0000
vt -0.8260 1.4263 0.0000
vt -0.7907 1.1370 0.0000
vt -0.7907 0.7905 0.0000
vt -0.4877 0.8141 0.0000
vt -0.4955 1.1370 0.0000
vt 1.6238 0.9615 0.0000
vt 1.6200 1.1370 0.0000
vt 0.5692 1.1379 0.0000
vt 0.5692 1.4844 0.0000
vt 2.8855 1.2115 0.0000
vt 2.8855 1.1379 0.0000
vt 5.0617 1.2106 0.0000
vt 5.0617 1.1379 0.0000
vt 1.6947 1.7729 0.0000
vt 3.6664 1.7729 0.0000
vt 3.6665 1.7360 0.0000
vt 1.6985 1.6014 0.0000
vt -3.7580 2.5823 0.0000
vt -3.7580 2.2805 0.0000
vt -3.8817 2.2805 0.0000
vt -3.8817 2.8225 0.0000
vt -3.7580 2.8225 0.0000
vt 0.0248 2.5823 0.0000
vt 0.0248 2.8225 0.0000
vt 0.1486 2.8225 0.0000
vt 0.1486 2.2805 0.0000
vt 0.0248 2.2805 0.0000
vt 2.1978 0.7172 0.0000
vt 2.1978 0.0056 0.0000
vt 4.3286 0.2140 0.0000
vt 4.3116 0.7172 0.0000
vt 0.1969 0.4314 0.0000
vt -2.0372 0.2885 0.0000
vt -2.0411 0.5954 0.0000
vt 0.1968 0.5954 0.0000
vt 0.3302 0.5531 0.0000
vt 0.3302 0.5290 0.0000
vt 0.3391 0.0913 0.0000
vt 5.5132 0.2951 0.0000
vt 5.5129 0.5531 0.0000
vt 0.2655 0.5954 0.0000
vt 2.3351 0.5954 0.0000
vt 2.3317 0.5679 0.0000
vt 0.9884 0.0093 0.0000
vt 0.9884 0.0009 0.0000
vt 0.0011 0.0009 0.0000
vt 0.0010 0.0097 0.0000
vt -0.0323 0.7172 0.0000
vt -0.0323 0.0056 0.0000
vt 2.3158 3.4656 0.0000
vt 2.2342 3.6424 0.0000
vt -0.5307 1.1306 0.0000
vt -0.3602 1.0035 0.0000
vt -0.6170 -5.0470 0.0000
vt -0.4449 -5.0500 0.0000
vt 5.0737 3.5928 0.0000
vt 5.0707 3.4175 0.0000
vt 10.4176 0.4882 0.0000
vt 10.4254 0.5531 0.0000
vt 2.1798 1.7730 0.0000
vt -3.9065 1.7730 0.0000
vt -3.9065 1.9933 0.0000
vt 2.3044 1.9933 0.0000
vt 2.3044 1.5066 0.0000
vt 2.1798 1.5066 0.0000
vt 0.1304 1.4957 0.0000
vt 6.3097 1.4957 0.0000
vt 6.3097 0.0861 0.0000
vt 0.1304 0.0861 0.0000
vt 2.2741 2.0040 0.0000
vt -3.9065 2.0040 0.0000
vt -3.9065 2.2698 0.0000
vt 2.2741 2.2698 0.0000
vt 6.3388 -0.4800 0.0000
vt 6.3205 -0.2179 0.0000
vt 6.5863 -0.2211 0.0000
vt 6.5863 -0.4837 0.0000
vt 4.4639 0.0056 0.0000
vt 5.0898 0.0056 0.0000
vt 5.0898 0.7172 0.0000
vt 4.4639 0.7172 0.0000
vt -2.0413 0.2783 0.0000
vt -1.7381 0.2783 0.0000
vt -1.7344 -0.0098 0.0000
vt -2.0370 -0.0286 0.0000
vt 5.4593 3.5861 0.0000
vt 5.4563 3.4108 0.0000
vt -0.5685 0.4979 0.0000
vt -0.5685 0.2340 0.0000
vt -0.3841 0.2337 0.0000
vt -0.3841 0.4979 0.0000
vt 1.0007 -0.0103 0.0000
vt 1.0007 0.9905 0.0000
vt 0.0004 0.9905 0.0000
vt 0.0004 -0.0103 0.0000
vt 1.3770 0.4971 0.0000
vt 1.3770 0.2309 0.0000
vt 1.5447 0.2306 0.0000
vt 1.5447 0.4970 0.0000
vt 6.2240 0.2230 0.0000
vt 6.2240 0.4949 0.0000
vt 3.3057 0.4962 0.0000
vt 3.3057 0.2278 0.0000
vt -0.8135 0.4979 0.0000
vt -0.8135 0.2340 0.0000
vt 0.0074 -0.0094 0.0000
vt 1.0093 -0.0094 0.0000
vt 1.0093 1.0002 0.0000
vt 0.0074 1.0002 0.0000
vt -1.9479 0.2340 0.0000
vt -1.9479 0.4979 0.0000
vt -4.6041 0.4979 0.0000
vt -4.6041 0.2340 0.0000
vt 0.0016 0.9918 0.0000
vt 0.0016 -0.0178 0.0000
vt 1.0032 -0.0178 0.0000
vt 1.0032 0.9918 0.0000
vt -5.7276 0.2340 0.0000
vt -5.7276 0.4979 0.0000
vt -6.0564 0.4979 0.0000
vt -6.0564 0.2340 0.0000
vt 0.0016 1.0002 0.0000
vt 0.0016 -0.0094 0.0000
vt 1.0032 -0.0094 0.0000
vt 1.0032 1.0002 0.0000
vt -7.4282 0.4979 0.0000
vt -7.4282 0.2340 0.0000
vt -7.2150 0.2340 0.0000
vt -7.2150 0.4979 0.0000
vt -3.4224 0.6393 0.0000
vt -3.0322 0.6393 0.0000
vt -3.0322 0.3069 0.0000
vt -3.4224 0.3069 0.0000
vt 1.0018 0.9945 0.0000
vt 1.0018 -0.0040 0.0000
vt 0.0039 -0.0040 0.0000
vt 0.0039 0.9945 0.0000
vt 3.4492 0.6393 0.0000
vt 3.4492 0.3069 0.0000
vt -1.3575 0.3069 0.0000
vt -1.3575 0.6393 0.0000
vt 0.2841 0.9803 0.0000
vt 0.2841 0.6636 0.0000
vt 8.4466 0.6636 0.0000
vt 8.4466 0.9803 0.0000
vt 0.6115 0.9676 0.0000
vt 0.6115 0.6570 0.0000
vt 9.0750 0.6570 0.0000
vt 9.0750 0.9676 0.0000
vt -3.5959 0.9676 0.0000
vt -5.2367 0.9676 0.0000
vt -5.2367 0.6570 0.0000
vt -3.5959 0.6570 0.0000
vt 1.0071 -0.0071 0.0000
vt 1.0071 0.9909 0.0000
vt -0.0000 0.9909 0.0000
vt -0.0000 -0.0071 0.0000
vt 0.6115 0.3204 0.0000
vt 7.1094 0.3204 0.0000
vt 7.1094 0.6570 0.0000
vt 9.0750 0.3204 0.0000
vt 8.7989 0.6570 0.0000
vt 8.7989 0.3204 0.0000
vt 0.2841 0.3204 0.0000
vt 0.5341 0.3204 0.0000
vt 0.5341 0.6636 0.0000
vt 1.0057 0.0025 0.0000
vt 1.0057 0.9961 0.0000
vt -0.0078 0.9961 0.0000
vt -0.0078 0.0025 0.0000
vt 8.4466 0.3204 0.0000
vt 2.1378 0.6636 0.0000
vt 2.1378 0.3204 0.0000
vt -0.9432 0.6930 0.0000
vt 1.8225 0.6930 0.0000
vt 1.8225 0.0776 0.0000
vt -0.9432 0.0776 0.0000
vt -1.2483 0.0609 0.0000
vt -1.2551 0.8565 0.0000
vt 2.6061 0.8621 0.0000
vt 2.6129 0.0664 0.0000
vt -0.3748 0.9068 0.0000
vt -0.3748 0.0569 0.0000
vt 1.5720 0.0569 0.0000
vt 1.5720 0.9068 0.0000
vt 2.0028 0.2686 0.0000
vt 2.0028 0.0551 0.0000
vt 3.2286 0.0551 0.0000
vt 3.2286 0.2686 0.0000
vt 5.0744 3.6299 0.0000
vt 5.4600 3.6232 0.0000
vt 5.4609 3.6741 0.0000
vt 5.0753 3.6808 0.0000
vt -3.5959 0.3204 0.0000
vt -5.2367 0.3204 0.0000
vt -5.2367 0.0412 0.0000
vt -3.5959 0.0412 0.0000
vt -6.6526 -4.9418 0.0000
vt -6.6402 -4.2338 0.0000
vt -6.6911 -4.2329 0.0000
vt -6.7035 -4.9409 0.0000
vt 0.6115 0.0412 0.0000
vt 9.0750 0.0412 0.0000
vt -6.6085 -2.4184 0.0000
vt -6.5445 1.2475 0.0000
vt -6.5954 1.2484 0.0000
vt -6.6594 -2.4175 0.0000
vt 0.2841 0.0357 0.0000
vt 8.4466 0.0357 0.0000
vt -0.5176 3.7275 0.0000
vt 2.2220 3.6797 0.0000
vt 2.2238 3.7306 0.0000
vt -0.5167 3.7784 0.0000
vt 0.6115 0.3828 0.0000
vt -3.2710 0.3828 0.0000
vt -3.2710 0.0412 0.0000
vt -6.6378 -4.0936 0.0000
vt -6.6886 -4.0928 0.0000
vt -3.2710 0.9676 0.0000
vt -7.0234 0.9667 0.0000
vt -7.0234 0.0551 0.0000
vt 2.0028 0.9667 0.0000
vt -0.5198 3.7255 0.0000
vt -0.5204 3.6904 0.0000
vt -0.9060 3.6972 0.0000
vt -0.9054 3.7322 0.0000
vt 2.3293 1.5066 0.0000
vt 2.3044 1.5454 0.0000
vt 2.3293 1.5454 0.0000
vt 5.4599 3.6211 0.0000
vt 5.0743 3.6279 0.0000
vt 5.4609 3.6761 0.0000
vt 5.4206 3.6768 0.0000
vt 5.4215 3.7277 0.0000
vt 5.4618 3.7270 0.0000
vt -6.5967 -4.9426 0.0000
vt -6.6317 -4.9422 0.0000
vt -6.6219 -4.2339 0.0000
vt -6.5868 -4.2344 0.0000
vt -0.6071 -4.3388 0.0000
vt -0.6421 -4.3383 0.0000
vt -0.6520 -5.0465 0.0000
vt -6.5614 -2.4183 0.0000
vt -6.5965 -2.4178 0.0000
vt -6.5424 1.2494 0.0000
vt -6.5105 1.2350 0.0000
vt -0.5817 -2.5227 0.0000
vt -0.5627 1.1450 0.0000
vt -0.6168 -2.5222 0.0000
vt -3.7455 3.7467 0.0000
vt -3.7570 3.7772 0.0000
vt 10.4407 0.0407 0.0000
vt 10.4407 0.0218 0.0000
vt 2.2219 3.6752 0.0000
vt -6.5848 -4.0942 0.0000
vt -6.6199 -4.0937 0.0000
vt -0.6051 -4.1985 0.0000
vt -0.6402 -4.1981 0.0000
vt -7.0234 0.0366 0.0000
vt -3.4224 0.9234 0.0000
vt 3.4492 0.9234 0.0000
vt -0.0849 3.1243 0.0000
vt -0.0849 0.5431 0.0000
vt -0.8932 0.5431 0.0000
vt -0.8932 3.1243 0.0000
vt -0.5685 0.7235 0.0000
vt -7.4282 0.7235 0.0000
vt 1.8113 0.4597 0.0000
vt -0.8900 0.4597 0.0000
vt -0.8900 -0.3486 0.0000
vt 1.8113 -0.3486 0.0000
vt 0.1304 0.8539 0.0000
vt -3.9065 0.8539 0.0000
vt -3.9065 1.4957 0.0000
vt 6.2240 0.7272 0.0000
vt 3.4683 -0.3486 0.0000
vt 3.4683 0.4597 0.0000
vt 6.2240 0.9890 0.0000
vt 3.6416 0.9847 0.0000
vt 3.6416 0.7258 0.0000
vt 5.0462 0.7216 0.0000
vt -2.4737 0.7216 0.0000
vt 3.4492 0.0217 0.0000
vt -3.4224 0.0217 0.0000
vt -13.5369 11.2592 0.0000
vt -13.5369 19.0284 0.0000
vt -12.0082 19.0284 0.0000
vt -12.0082 11.2592 0.0000
vt 3.4492 0.2564 0.0000
vt 4.3824 0.2564 0.0000
vt 4.3824 0.0217 0.0000
vt -13.5369 10.2092 0.0000
vt -12.0082 10.2092 0.0000
vt -7.4282 0.0075 0.0000
vt -0.5685 0.0075 0.0000
vt -13.5103 8.3513 0.0000
vt -5.4359 8.3513 0.0000
vt -5.4359 9.8800 0.0000
vt -13.5103 9.8800 0.0000
vt 6.2240 0.0069 0.0000
vt 2.6403 8.3513 0.0000
vt 2.6403 9.8800 0.0000
vt 0.3405 0.6189 0.0000
vt 0.3405 0.9785 0.0000
vt -0.4297 0.9785 0.0000
vt -0.4297 0.6189 0.0000
vt 2.9726 -8.8018 0.0000
vt 2.9726 -9.9656 0.0000
vt 4.5013 -9.9656 0.0000
vt 4.5013 -8.8018 0.0000
vt 5.8432 0.5516 0.0000
vt 6.0122 0.5516 0.0000
vt 6.0122 0.9785 0.0000
vt 0.3405 0.5516 0.0000
vt 2.9726 -0.2320 0.0000
vt 4.5013 -0.2320 0.0000
vt 11.0590 0.5516 0.0000
vt 11.0590 0.5415 0.0000
vt 11.4026 0.5415 0.0000
vt 11.4026 0.9785 0.0000
vt 2.9726 8.0186 0.0000
vt 4.5013 8.0186 0.0000
vt 4.9316 -8.8018 0.0000
vt 4.8336 -8.8018 0.0000
vt 4.8417 -0.1900 0.0000
vt 4.9316 -0.2320 0.0000
vt -13.5022 -0.1900 0.0000
vt -13.5103 -8.8018 0.0000
vt -3.9065 2.2805 0.0000
vt -3.9065 2.3155 0.0000
vt -3.8817 2.3155 0.0000
vt 4.9316 -9.9656 0.0000
vt 4.8336 -9.9656 0.0000
vt -13.5103 -9.9656 0.0000
vt 12.9119 7.9812 0.0000
vt 12.9481 7.8828 0.0000
vt -5.4320 7.9812 0.0000
vt 2.6401 8.0186 0.0000
vt 20.9842 -9.9656 0.0000
vt 20.8862 -9.9656 0.0000
vt 20.8862 -8.8018 0.0000
vt 20.9842 -8.8018 0.0000
vt 0.1734 2.2805 0.0000
vt 0.1486 2.3155 0.0000
vt 0.1734 2.3155 0.0000
vt 2.6403 -9.9656 0.0000
vt 2.6403 -8.8018 0.0000
vt 20.8862 -0.2320 0.0000
vt 20.9842 -0.2320 0.0000
vt 2.6403 -0.2320 0.0000
vt 20.8862 7.9128 0.0000
vt 20.9840 8.0186 0.0000
vt 0.9262 1.0274 0.0000
vt 0.9639 1.0275 0.0000
vt 0.9718 -0.1047 0.0000
vt 0.9341 -0.1048 0.0000
vt 0.9984 0.9866 0.0000
vt 0.0032 0.9866 0.0000
vt 0.0032 0.0029 0.0000
vt 0.9984 0.0029 0.0000
vt 0.0122 0.0122 0.0000
vt 0.9878 0.0122 0.0000
vt -0.2589 3.8867 0.0000
vt -0.2479 0.5803 0.0000
vt 1.3198 0.5862 0.0000
vt 1.3089 3.8925 0.0000
vt 0.1115 -0.5254 0.0000
vt 0.1115 2.4813 0.0000
vt 0.0566 2.4813 0.0000
vt 0.0566 -0.5254 0.0000
vt -0.6313 -0.4094 0.0000
vt -0.6313 -0.5963 0.0000
vt 0.4757 -0.5963 0.0000
vt 0.4757 -0.4094 0.0000
vt -0.2409 2.4799 0.0000
vt -0.2344 -0.5256 0.0000
vt 0.0439 -0.5240 0.0000
vt 0.0375 2.4815 0.0000
vt -0.6313 -0.1850 0.0000
vt 0.4757 -0.1850 0.0000
vt 0.4757 -0.3720 0.0000
vt -0.6313 -0.3720 0.0000
vt -0.2336 -0.9280 0.0000
vt 0.0448 -0.9265 0.0000
vt 0.0566 -0.9280 0.0000
vt 0.1115 -0.9280 0.0000
vt -0.2418 2.8823 0.0000
vt 0.0366 2.8839 0.0000
vt 0.0566 2.8839 0.0000
vt 0.1115 2.8839 0.0000
vt 1.9934 0.4999 0.0000
vt -1.0082 0.4999 0.0000
vt -1.0082 0.2490 0.0000
vt 1.9934 0.2490 0.0000
vt 1.5693 3.8925 0.0000
vt 1.5693 0.5803 0.0000
vt 1.6646 0.5803 0.0000
vt 1.6646 3.8925 0.0000
vt -0.1675 0.8761 0.0000
vt -0.1622 -0.2498 0.0000
# 435 texture coords

g default
usemtl krohv2
s off
f 1/1/1 2/2/1 3/3/1 
f 3/3/1 4/4/1 1/1/1 
f 5/5/2 6/6/2 4/7/2 
f 4/7/2 3/8/2 5/5/2 
usemtl plekk
f 7/9/3 8/10/3 9/11/3 
f 9/11/3 10/12/3 7/9/3 
f 9/11/3 11/13/3 12/14/3 
f 12/14/3 10/12/3 9/11/3 
f 12/14/3 11/13/3 13/15/3 
f 13/15/3 14/16/3 12/14/3 
f 15/17/3 14/16/3 13/15/3 
f 13/15/3 16/18/3 15/17/3 
f 17/19/3 15/17/3 16/18/3 
f 16/18/3 18/20/3 17/19/3 
f 7/9/3 19/21/3 20/22/3 
f 20/22/3 8/10/3 7/9/3 
f 18/20/3 21/23/3 22/24/3 
f 22/24/3 17/19/3 18/20/3 
usemtl katus
f 23/25/4 24/26/4 25/27/4 
f 26/28/5 27/29/5 28/30/5 
f 25/27/5 26/28/5 28/30/5 
f 23/25/4 25/27/4 28/30/4 
f 23/25/6 28/30/6 29/31/6 
f 23/25/4 29/31/4 30/32/4 
f 21/33/7 18/34/7 28/35/7 
f 28/35/8 27/36/8 21/33/8 
f 20/37/9 26/38/9 25/39/9 
f 25/39/10 8/40/10 20/37/10 
f 8/40/11 25/39/11 24/41/11 
f 24/41/12 9/42/12 8/40/12 
f 9/43/13 24/44/13 23/45/13 
f 23/45/14 11/46/14 9/43/14 
f 11/46/15 23/45/15 30/47/15 
f 30/47/15 13/48/15 11/46/15 
f 16/49/16 13/50/16 30/51/16 
f 30/51/17 29/52/17 16/49/17 
f 18/34/18 16/49/18 29/52/18 
f 29/52/19 28/35/19 18/34/19 
usemtl krohv2
f 26/53/20 20/54/20 19/55/20 
f 19/55/20 6/56/20 31/57/20 
f 26/53/20 19/55/20 31/57/20 
f 27/58/21 32/59/21 5/60/21 
f 5/60/21 22/61/21 21/62/21 
f 27/58/21 5/60/21 21/62/21 
f 26/53/22 31/57/22 32/59/22 
f 32/59/22 27/58/22 26/53/22 
usemtl katus
f 33/63/23 34/64/23 35/65/23 
f 35/65/24 36/66/24 33/63/24 
f 34/67/25 37/68/25 38/69/25 
f 38/69/26 39/70/26 34/67/26 
usemtl sein
f 40/71/27 41/72/27 42/73/27 
f 40/71/28 42/73/28 33/74/28 
f 40/71/29 33/74/29 43/75/29 
usemtl katus
f 34/67/30 39/70/30 44/76/30 
f 34/67/31 44/76/31 45/77/31 
f 34/67/32 45/77/32 35/78/32 
f 35/79/33 45/80/33 46/81/33 
f 46/81/34 36/82/34 35/79/34 
f 33/63/24 42/83/24 37/84/24 
f 37/84/24 34/64/24 33/63/24 
usemtl katuselaud
f 47/2/2 48/2/2 43/2/2 
usemtl plekk
f 39/85/3 49/86/3 50/87/3 
f 50/87/3 45/88/3 39/85/3 
f 51/89/3 46/90/3 45/88/3 
f 45/88/3 50/87/3 51/89/3 
f 52/91/3 49/86/3 39/85/3 
f 39/85/3 38/92/3 52/91/3 
usemtl sein
f 43/75/35 33/74/35 36/93/35 
f 36/93/36 47/94/36 43/75/36 
usemtl krohv2
f 53/95/37 54/96/37 55/97/37 
f 53/95/38 55/97/38 56/98/38 
f 56/98/39 57/99/39 58/100/39 
f 53/95/40 56/98/40 58/100/40 
f 59/101/41 60/102/41 61/103/41 
f 61/103/41 62/104/41 59/101/41 
f 56/105/2 55/106/2 62/107/2 
f 62/107/2 61/108/2 56/105/2 
f 54/109/42 42/110/42 62/111/42 
f 62/111/43 55/112/43 54/109/43 
usemtl katus
f 53/113/44 37/114/44 42/115/44 
f 42/115/23 54/116/23 53/113/23 
f 58/117/45 38/118/45 37/119/45 
f 37/119/46 53/120/46 58/117/46 
usemtl plekk
f 57/121/3 52/91/3 38/92/3 
f 38/92/3 58/122/3 57/121/3 
usemtl sein
f 63/123/47 64/124/47 65/125/47 
f 65/125/47 66/126/47 63/123/47 
usemtl aken
f 67/127/48 68/128/48 69/129/48 
f 69/129/48 70/130/48 67/127/48 
usemtl sein
f 71/131/49 72/132/49 73/133/49 
f 73/133/49 74/134/49 71/131/49 
usemtl aken
f 75/127/50 76/128/50 77/129/50 
f 77/129/50 78/130/50 75/127/50 
usemtl sein
f 51/135/51 79/136/51 80/137/51 
f 80/137/51 81/138/51 51/135/51 
f 64/124/52 63/123/52 82/139/52 
f 82/139/52 83/140/52 64/124/52 
usemtl aken
f 84/141/53 85/142/53 86/143/53 
f 86/143/53 87/144/53 84/141/53 
usemtl sein
f 88/145/54 89/146/54 90/147/54 
f 90/147/54 91/148/54 88/145/54 
usemtl aken
f 92/149/54 93/150/54 94/151/54 
f 94/151/54 95/152/54 92/149/54 
usemtl sein
f 96/153/55 97/154/55 98/155/55 
f 98/155/55 99/156/55 96/153/55 
usemtl aken
f 100/157/55 101/158/55 102/159/55 
f 102/159/55 103/160/55 100/157/55 
usemtl sein
f 104/161/56 105/162/56 106/163/56 
f 106/163/56 107/164/56 104/161/56 
f 104/165/57 108/166/57 109/167/57 
f 109/167/57 105/168/57 104/165/57 
usemtl aken
f 110/169/58 111/170/58 112/171/58 
f 112/171/58 113/172/58 110/169/58 
usemtl sein
f 114/173/16 1/174/16 115/175/16 
f 115/175/16 116/176/16 114/173/16 
f 117/177/59 118/178/59 119/179/59 
f 119/179/59 120/180/59 117/177/59 
f 121/181/51 122/182/51 118/183/51 
f 118/183/51 117/184/51 121/181/51 
f 123/185/60 124/186/60 125/187/60 
f 125/187/60 126/188/60 123/185/60 
usemtl aken
f 127/189/61 128/190/61 129/191/61 
f 129/191/61 130/192/61 127/189/61 
usemtl sein
f 131/193/62 132/194/62 133/195/62 
f 133/195/62 122/182/62 131/193/62 
usemtl aken
f 134/189/63 135/190/63 136/191/63 
f 136/191/63 137/192/63 134/189/63 
usemtl sein
f 138/196/64 118/183/64 139/197/64 
f 139/197/64 140/198/64 138/196/64 
f 138/199/65 141/200/65 142/201/65 
f 142/201/65 118/178/65 138/199/65 
usemtl aken
f 143/202/66 144/203/66 145/204/66 
f 145/204/66 146/205/66 143/202/66 
usemtl sein
f 147/206/59 119/179/59 148/207/59 
f 148/207/59 149/208/59 147/206/59 
f 150/209/67 151/210/67 121/211/67 
f 121/211/67 152/212/67 150/209/67 
f 153/213/2 154/214/2 151/215/2 
f 151/215/2 150/216/2 153/213/2 
f 153/217/68 155/218/68 156/219/68 
f 156/219/68 154/220/68 153/217/68 
f 61/221/9 157/222/9 158/223/9 
f 158/223/9 56/224/9 61/221/9 
usemtl plekk
f 159/225/69 160/226/69 161/227/69 
f 161/227/69 162/228/69 159/225/69 
usemtl sein
f 163/229/60 164/230/60 165/231/60 
f 165/231/60 166/232/60 163/229/60 
usemtl plekk
f 167/233/51 168/234/51 169/235/51 
f 169/235/51 170/236/51 167/233/51 
usemtl sein
f 138/196/51 131/193/51 171/237/51 
f 171/237/51 172/238/51 138/196/51 
usemtl plekk
f 173/239/70 174/240/70 175/241/70 
f 175/241/70 176/242/70 173/239/70 
usemtl sein
f 147/206/59 138/199/59 172/243/59 
f 172/243/59 177/244/59 147/206/59 
usemtl plekk
f 174/245/71 178/246/71 179/247/71 
f 179/247/72 175/248/72 174/245/72 
usemtl sein
f 151/249/73 154/250/73 180/251/73 
f 180/251/73 171/237/73 151/249/73 
usemtl plekk
f 181/252/73 173/239/73 176/242/73 
f 176/242/73 182/253/73 181/252/73 
usemtl sein
f 123/185/74 166/232/74 180/251/74 
f 180/251/74 156/254/74 123/185/74 
usemtl plekk
f 168/234/74 181/252/74 182/253/74 
f 182/253/74 169/235/74 168/234/74 
usemtl sein
f 120/255/75 177/256/75 157/222/75 
f 157/222/75 60/257/75 120/255/75 
usemtl plekk
f 178/246/76 159/225/76 162/228/76 
f 162/228/77 179/247/77 178/246/77 
f 161/258/2 158/259/2 157/260/2 
f 157/260/2 162/261/2 161/258/2 
usemtl krohv2
f 160/262/78 57/99/78 158/263/78 
f 158/263/78 161/264/78 160/262/78 
usemtl plekk
f 160/265/3 159/266/3 52/91/3 
f 52/91/3 57/121/3 160/265/3 
f 51/267/79 167/268/79 170/269/79 
f 170/269/79 165/270/79 51/267/79 
f 165/271/2 170/272/2 169/273/2 
f 169/273/2 166/274/2 165/271/2 
f 51/89/3 183/275/3 168/276/3 
f 168/276/3 167/277/3 51/89/3 
f 171/278/2 176/279/2 175/280/2 
f 175/280/2 172/281/2 171/278/2 
f 184/282/3 50/87/3 174/283/3 
f 174/283/3 173/284/3 184/282/3 
f 177/285/2 172/281/2 175/280/2 
f 175/280/2 179/286/2 177/285/2 
usemtl sein
f 179/287/80 178/288/80 49/288/80 
f 49/288/81 177/287/81 179/287/81 
usemtl plekk
f 49/86/3 178/289/3 174/283/3 
f 174/283/3 50/87/3 49/86/3 
f 180/290/2 182/291/2 176/279/2 
f 176/279/2 171/278/2 180/290/2 
f 185/292/3 184/282/3 173/284/3 
f 173/284/3 181/293/3 185/292/3 
f 166/274/2 169/273/2 182/291/2 
f 182/291/2 180/290/2 166/274/2 
f 183/275/3 185/292/3 181/293/3 
f 181/293/3 168/276/3 183/275/3 
usemtl sein
f 179/256/82 177/256/82 49/294/82 
f 49/294/83 178/294/83 179/256/83 
usemtl plekk
f 177/285/2 179/286/2 162/261/2 
f 162/261/2 157/260/2 177/285/2 
f 159/266/3 178/289/3 49/86/3 
f 49/86/3 52/91/3 159/266/3 
usemtl sein
f 114/173/26 104/165/26 186/295/26 
f 186/295/26 187/296/26 114/173/26 
usemtl krohv
f 188/297/84 189/298/84 190/299/84 
f 190/299/84 191/300/84 188/297/84 
usemtl sein
f 104/161/85 63/123/85 192/301/85 
f 192/301/85 186/302/85 104/161/85 
usemtl krohv
f 193/303/54 188/304/54 191/305/54 
f 191/305/54 194/306/54 193/303/54 
usemtl krohv2
f 59/101/22 195/307/22 190/308/22 
f 190/308/22 189/309/22 59/101/22 
f 2/2/1 1/1/1 187/308/1 
f 187/308/1 195/307/1 2/2/1 
usemtl sein
f 63/123/73 79/136/73 196/310/73 
f 196/310/73 192/301/73 63/123/73 
usemtl krohv
f 194/306/86 197/311/86 198/312/86 
f 198/312/86 193/303/86 194/306/86 
usemtl sein
f 196/310/73 124/313/73 199/314/73 
f 199/314/73 200/315/73 196/310/73 
f 190/316/2 187/316/2 186/317/2 
f 186/317/2 191/317/2 190/316/2 
f 191/302/2 186/302/2 192/301/2 
f 192/301/2 194/301/2 191/302/2 
f 197/315/87 200/315/87 199/314/87 
f 199/314/87 198/314/87 197/315/87 
f 194/301/2 192/301/2 200/315/2 
f 200/315/2 197/315/2 194/301/2 
f 105/168/26 1/174/26 201/318/26 
f 201/318/26 202/319/26 105/168/26 
usemtl plekk
f 203/320/88 204/321/88 205/322/88 
f 205/322/88 206/323/88 203/320/88 
usemtl sein
f 4/324/89 6/325/89 207/326/89 
f 207/326/89 201/318/89 4/324/89 
usemtl plekk
f 208/327/8 203/320/8 206/323/8 
f 206/323/8 209/328/8 208/327/8 
usemtl sein
f 64/124/85 105/162/85 202/329/85 
f 202/329/85 210/330/85 64/124/85 
usemtl plekk
f 204/331/90 211/332/90 212/333/90 
f 212/333/90 205/334/90 204/331/90 
usemtl sein
f 51/135/73 64/124/73 210/330/73 
f 210/330/73 213/335/73 51/135/73 
usemtl plekk
f 211/332/91 214/336/91 215/337/91 
f 215/337/91 212/333/91 211/332/91 
usemtl sein
f 3/338/92 216/339/92 217/340/92 
f 217/340/92 5/341/92 3/338/92 
usemtl plekk
f 218/342/9 219/343/9 220/344/9 
f 220/344/9 221/345/9 218/342/9 
usemtl sein
f 222/346/93 48/347/93 223/348/93 
f 223/348/94 216/339/94 224/349/94 
f 222/346/95 223/348/95 224/349/95 
usemtl plekk
f 225/350/94 218/342/94 221/345/94 
f 221/345/94 226/351/94 225/350/94 
usemtl sein
f 47/352/96 46/353/96 51/354/96 
f 51/354/75 213/355/75 223/348/75 
f 47/352/97 51/354/97 223/348/97 
f 47/352/98 223/348/98 48/347/98 
usemtl plekk
f 214/356/98 225/350/98 226/351/98 
f 226/351/98 215/357/98 214/356/98 
f 201/358/2 206/359/2 205/360/2 
f 205/360/2 202/361/2 201/358/2 
f 7/9/3 10/12/3 204/362/3 
f 204/362/3 203/363/3 7/9/3 
usemtl krohv2
f 19/55/78 208/364/78 209/365/78 
f 209/365/78 207/366/78 19/55/78 
usemtl plekk
f 207/367/2 209/368/2 206/359/2 
f 206/359/2 201/358/2 207/367/2 
f 19/21/3 7/9/3 203/363/3 
f 203/363/3 208/369/3 19/21/3 
f 202/361/2 205/360/2 212/370/2 
f 212/370/2 210/371/2 202/361/2 
f 10/12/3 12/14/3 211/372/3 
f 211/372/3 204/362/3 10/12/3 
f 211/372/3 12/14/3 14/16/3 
f 14/16/3 214/373/3 211/372/3 
f 220/374/2 217/375/2 216/376/2 
f 216/376/2 221/377/2 220/374/2 
usemtl krohv2
f 219/378/99 22/61/99 217/379/99 
f 217/379/99 220/380/99 219/378/99 
usemtl plekk
f 219/381/3 218/382/3 17/19/3 
f 17/19/3 22/24/3 219/381/3 
f 221/377/2 216/376/2 223/383/2 
f 223/383/2 226/384/2 221/377/2 
f 218/382/3 225/385/3 15/17/3 
f 15/17/3 17/19/3 218/382/3 
f 225/385/3 214/373/3 14/16/3 
f 14/16/3 15/17/3 225/385/3 
f 213/386/2 210/371/2 212/370/2 
f 212/370/2 215/387/2 213/386/2 
f 226/384/2 223/383/2 213/386/2 
f 213/386/2 215/387/2 226/384/2 
usemtl aken
f 68/128/100 67/127/100 66/127/100 
f 66/127/100 65/128/100 68/128/100 
f 67/127/3 70/130/3 71/130/3 
f 71/130/3 66/127/3 67/127/3 
f 69/129/101 72/129/101 71/130/101 
f 71/130/101 70/130/101 69/129/101 
f 68/128/2 65/128/2 72/129/2 
f 72/129/2 69/129/2 68/128/2 
f 76/128/102 75/127/102 74/127/102 
f 74/127/102 73/128/102 76/128/102 
f 75/127/3 78/130/3 80/130/3 
f 80/130/3 74/127/3 75/127/3 
f 77/129/103 81/129/103 80/130/103 
f 80/130/103 78/130/103 77/129/103 
f 76/128/2 73/128/2 81/129/2 
f 81/129/2 77/129/2 76/128/2 
f 85/142/3 84/141/3 82/141/3 
f 82/141/3 89/142/3 85/142/3 
f 87/144/104 83/144/104 82/141/104 
f 82/141/104 84/141/104 87/144/104 
f 86/143/2 88/143/2 83/144/2 
f 83/144/2 87/144/2 86/143/2 
f 86/143/105 85/142/105 89/142/105 
f 89/142/105 88/143/105 86/143/105 
f 92/149/106 91/149/106 90/150/106 
f 90/150/106 93/150/106 92/149/106 
f 95/152/2 96/152/2 91/149/2 
f 91/149/2 92/149/2 95/152/2 
f 95/152/107 94/151/107 97/151/107 
f 97/151/107 96/152/107 95/152/107 
f 94/151/3 93/150/3 90/150/3 
f 90/150/3 97/151/3 94/151/3 
f 100/157/106 99/157/106 98/158/106 
f 98/158/106 101/158/106 100/157/106 
f 103/160/2 106/160/2 99/157/2 
f 99/157/2 100/157/2 103/160/2 
f 103/160/108 102/159/108 107/159/108 
f 107/159/108 106/160/108 103/160/108 
f 102/159/3 101/158/3 98/158/3 
f 98/158/3 107/159/3 102/159/3 
f 110/169/109 109/169/109 108/170/109 
f 108/170/109 111/170/109 110/169/109 
f 113/172/2 115/172/2 109/169/2 
f 109/169/2 110/169/2 113/172/2 
f 113/172/110 112/171/110 116/171/110 
f 116/171/110 115/172/110 113/172/110 
f 112/171/3 111/170/3 108/170/3 
f 108/170/3 116/171/3 112/171/3 
f 128/190/111 127/189/111 125/189/111 
f 125/189/111 164/190/111 128/190/111 
f 127/189/3 130/192/3 126/192/3 
f 126/192/3 125/189/3 127/189/3 
f 129/191/112 163/191/112 126/192/112 
f 126/192/112 130/192/112 129/191/112 
f 128/190/2 164/190/2 163/191/2 
f 163/191/2 129/191/2 128/190/2 
f 135/190/113 134/189/113 133/189/113 
f 133/189/113 132/190/113 135/190/113 
f 134/189/3 137/192/3 139/192/3 
f 139/192/3 133/189/3 134/189/3 
f 136/191/114 140/191/114 139/192/114 
f 139/192/114 137/192/114 136/191/114 
f 135/190/2 132/190/2 140/191/2 
f 140/191/2 136/191/2 135/190/2 
f 144/203/115 143/202/115 142/202/115 
f 142/202/115 141/203/115 144/203/115 
f 146/205/3 148/205/3 142/202/3 
f 142/202/3 143/202/3 146/205/3 
f 145/204/116 149/204/116 148/205/116 
f 148/205/116 146/205/116 145/204/116 
f 145/204/2 144/203/2 141/203/2 
f 141/203/2 149/204/2 145/204/2 
usemtl trepp
f 227/254/21 155/254/21 152/181/21 
f 152/181/21 228/181/21 227/254/21 
f 227/254/67 229/254/67 156/254/67 
f 156/254/67 155/254/67 227/254/67 
f 228/181/68 152/181/68 121/181/68 
f 121/181/68 230/181/68 228/181/68 
f 231/181/117 121/181/117 232/181/117 
f 232/181/117 233/181/117 231/181/117 
f 234/254/117 235/254/117 156/254/117 
f 156/254/117 236/254/117 234/254/117 
f 237/181/118 238/181/118 231/181/118 
f 231/181/118 239/181/118 237/181/118 
f 240/388/2 241/389/2 238/390/2 
f 238/390/2 237/391/2 240/388/2 
f 240/254/119 242/254/119 236/254/119 
f 236/254/119 241/254/119 240/254/119 
usemtl uks
f 153/392/73 150/393/73 243/394/73 
f 243/394/73 244/395/73 153/392/73 
f 152/396/73 155/397/73 244/395/73 
f 244/395/73 243/394/73 152/396/73 
usemtl trepp
f 227/398/3 228/399/3 230/400/3 
f 230/400/3 229/401/3 227/398/3 
f 245/402/120 246/403/120 247/404/120 
f 247/404/120 248/405/120 245/402/120 
f 233/406/121 232/407/121 249/408/121 
f 249/408/121 250/409/121 233/406/121 
f 236/410/3 231/411/3 248/412/3 
f 248/412/3 247/413/3 236/410/3 
f 234/414/122 251/415/122 252/416/122 
f 252/416/122 235/417/122 234/414/122 
f 231/411/3 233/418/3 250/419/3 
f 250/419/3 248/412/3 231/411/3 
f 248/405/123 250/420/123 249/421/123 
f 249/421/123 245/402/123 248/405/123 
f 234/422/3 236/410/3 247/413/3 
f 247/413/3 251/423/3 234/422/3 
f 251/424/124 247/404/124 246/403/124 
f 246/403/124 252/425/124 251/424/124 
f 239/426/120 242/427/120 240/428/120 
f 240/428/120 237/429/120 239/426/120 
f 229/430/73 230/431/73 238/432/73 
f 238/432/73 241/433/73 229/430/73 
f 242/434/3 239/435/3 231/411/3 
f 231/411/3 236/410/3 242/434/3 
# 0 polygons - 410 triangles

