# 3ds Max Wavefront OBJ Exporter v0.97b - (c)2007 guruware
# File Created: 19.08.2011 14:24:20

mtllib Nunne_11.mtl

#
# object Line001
#

v  -180.6125 147.6251 30.2973
v  -180.6125 147.6256 30.7712
v  -176.5867 147.2785 30.7712
v  -176.5867 147.2781 30.2973
v  -172.6814 146.9414 30.2974
v  -172.6973 146.9305 17.9302
v  -173.6600 147.0134 17.9301
v  -173.4595 146.9998 21.6105
v  -173.6587 147.0166 21.2308
v  -174.4185 147.0825 21.6101
v  -174.5259 147.0921 21.9500
v  -174.7670 147.1151 24.1606
v  -174.8763 147.1227 22.3618
v  -174.7668 147.1171 26.1729
v  -174.7340 147.1155 27.4651
v  -174.7339 147.1175 29.4524
v  -176.7147 147.2883 29.4524
v  -176.7148 147.2863 27.4651
v  -178.6637 147.4537 26.9117
v  -176.9384 147.3043 26.1729
v  -177.3146 147.3367 26.2200
v  -180.4782 147.6127 29.4462
v  -180.0131 147.5694 26.2130
v  -180.5241 147.6134 26.1710
v  -182.6128 147.7934 26.1710
v  -182.6805 147.8005 27.4278
v  -180.4784 147.6107 27.4278
v  -184.4072 147.9522 30.2975
v  -182.6804 147.8025 29.4462
v  -182.6129 147.7914 24.1728
v  -182.4487 147.7755 22.4180
v  -182.8129 147.8065 22.0364
v  -183.9566 147.9047 21.6089
v  -182.9791 147.8204 21.6101
v  -184.5250 147.9500 17.9312
v  -183.7555 147.8870 21.2309
v  -183.7538 147.8836 17.9306
v  -182.5144 147.7074 29.2755
v  -180.6789 147.5418 29.2755
v  -180.6789 147.5418 27.5985
v  -182.5144 147.7074 27.5985
v  -182.4551 147.7020 26.0003
v  -180.7142 147.5450 26.0003
v  -180.7142 147.5450 24.3434
v  -182.4551 147.7020 24.3434
v  -182.9515 147.7472 21.2308
v  -180.1521 147.4893 21.2308
v  -180.1566 147.4921 18.9631
v  -182.9513 147.7496 18.9631
v  -182.0474 147.6624 22.6536
v  -181.5675 147.6181 22.7347
v  -181.0876 147.5740 22.6536
v  -182.4643 147.7010 22.4179
v  -180.6705 147.5358 22.4179
v  -180.1273 147.4866 21.6101
v  -180.3061 147.5026 22.0364
v  -182.9949 147.7508 21.6101
v  -182.8289 147.7350 22.0364
v  -180.1295 147.6248 18.9631
v  -180.1298 147.6248 18.7110
v  -182.9213 147.8812 18.7110
v  -182.9213 147.8812 18.9631
v  -180.2901 147.5891 22.0364
v  -180.1117 147.5733 21.6101
v  -182.0317 147.7398 22.6536
v  -181.5519 147.6985 22.7347
v  -181.0720 147.6571 22.6536
v  -180.6549 147.6209 22.4179
v  -182.9060 148.0807 21.4719
v  -183.8343 148.1864 21.4707
v  -183.7475 147.9691 21.2308
v  -180.1369 147.5759 21.2308
v  -182.9342 147.8404 21.2308
v  -180.1417 147.5761 18.9631
v  -182.9342 147.8402 18.9631
v  -180.1432 147.5761 17.9300
v  -181.0585 147.6601 17.9300
v  -181.0579 147.6601 18.7109
v  -180.1420 147.5761 18.7110
v  -182.0626 147.7551 18.7110
v  -182.9342 147.8401 18.7110
v  -182.6743 147.8298 27.4278
v  -182.6743 147.8298 29.4462
v  -182.4909 147.8142 29.2755
v  -182.4909 147.8142 27.5985
v  -180.4724 147.6419 29.4462
v  -180.6559 147.6576 29.2755
v  -180.4724 147.6419 27.4278
v  -180.6559 147.6576 27.5985
v  -182.6062 147.8409 24.1728
v  -182.6062 147.8409 26.1710
v  -182.4323 147.8252 26.0003
v  -182.4323 147.8252 24.3434
v  -180.5186 147.6530 26.1710
v  -180.6926 147.6686 26.0003
v  -180.5186 147.6530 24.1728
v  -180.6926 147.6686 24.3434
v  -180.5243 147.6114 24.1728
v  -179.5022 147.5226 23.4889
v  -177.8143 147.3771 23.4889
v  -176.3763 147.2523 22.6117
v  -176.8265 147.2908 22.3614
v  -177.1370 147.3172 21.9501
v  -177.8095 147.4654 25.8139
v  -177.8095 147.4654 24.4327
v  -179.4942 147.6261 24.4327
v  -179.4942 147.6261 25.8139
v  -179.6344 147.5349 24.3487
v  -179.6427 147.5372 25.9504
v  -179.6351 147.7545 25.9504
v  -179.6267 147.7542 24.3487
v  -179.5016 147.7419 25.8139
v  -179.5016 147.7419 24.4327
v  -179.6163 148.0933 25.9504
v  -179.9887 148.1254 26.2129
v  -179.6233 148.0941 26.1903
v  -178.6409 148.0009 26.9117
v  -178.6409 148.0009 26.6693
v  -177.8178 147.5822 25.8139
v  -179.8334 147.5520 24.3476
v  -179.8203 147.9467 24.3476
v  -179.8190 147.9467 24.1708
v  -179.8321 147.5517 24.1709
v  -179.1939 147.3612 18.4628
v  -179.1939 147.3612 21.0619
v  -178.2145 147.2620 21.0619
v  -178.2145 147.2617 18.4628
v  -179.6422 147.9947 26.1903
v  -178.6598 147.9015 26.6693
v  -177.6771 147.8083 26.1903
v  -177.8178 147.5822 24.4327
v  -177.6786 147.5694 24.3487
v  -177.6582 147.9077 26.1903
v  -177.6679 147.9085 25.9504
v  -174.9331 147.0236 29.2817
v  -174.9331 147.0236 27.6357
v  -176.5470 147.1691 27.6357
v  -176.5470 147.1691 29.2817
v  -174.9590 147.0259 25.9797
v  -174.9590 147.0259 24.3537
v  -176.7760 147.1898 24.3537
v  -176.7760 147.1898 25.9797
v  -177.2733 147.2266 18.9631
v  -177.2783 147.2246 21.2308
v  -174.4775 146.9666 21.2308
v  -174.4772 146.9690 18.9631
v  -177.2599 147.2225 21.6101
v  -177.1526 147.2123 21.9501
v  -176.8421 147.1832 22.3614
v  -174.8919 147.0036 22.3618
v  -176.3920 147.1415 22.6117
v  -175.8472 147.0912 22.7069
v  -175.3361 147.0442 22.6212
v  -174.4335 146.9622 21.6101
v  -174.5414 146.9717 21.9501
v  -178.1924 147.4969 21.0619
v  -179.1409 147.5723 21.0619
v  -180.1302 147.6556 21.2309
v  -177.2557 147.4190 21.2309
v  -174.4544 147.1301 18.9631
v  -174.4544 147.1301 18.7110
v  -177.2473 147.3869 18.7110
v  -177.2477 147.3869 18.9631
v  -177.2448 147.3261 21.6101
v  -175.3204 147.1612 22.6212
v  -175.8315 147.2054 22.7069
v  -173.6544 147.0758 21.2310
v  -173.5072 147.2560 21.4723
v  -177.2641 147.3195 21.2308
v  -174.4654 147.0547 21.2308
v  -177.2593 147.3188 18.9631
v  -174.4654 147.0544 18.9631
v  -176.3447 147.2319 18.7109
v  -176.3441 147.2318 17.9300
v  -177.2578 147.3186 17.9300
v  -177.2589 147.3188 18.7110
v  -174.4654 147.0544 18.7110
v  -175.2918 147.1396 18.7110
v  -174.7321 147.1481 27.4651
v  -174.9159 147.1638 27.6357
v  -174.9159 147.1638 29.2817
v  -174.7321 147.1481 29.4524
v  -176.5274 147.3207 29.2817
v  -176.7111 147.3364 29.4524
v  -176.5274 147.3207 27.6357
v  -176.7111 147.3364 27.4651
v  -174.7652 147.1413 24.1606
v  -174.9427 147.1570 24.3537
v  -174.9427 147.1570 25.9797
v  -174.7652 147.1413 26.1729
v  -176.7589 147.3139 25.9797
v  -176.9364 147.3295 26.1729
v  -176.7589 147.3139 24.3537
v  -176.9364 147.3295 24.1606
v  -176.9386 147.3023 24.1606
v  -177.6846 147.3668 24.3487
v  -177.6868 147.5697 25.9504
v  -177.6926 147.3690 25.9504
v  -177.2919 147.8763 26.2200
v  -177.4729 147.7500 24.3496
v  -177.4856 147.3496 24.3497
v  -177.4843 147.3493 24.1730
v  -177.4716 147.7500 24.1729
v  -179.1408 147.5726 18.4629
v  -179.1408 147.5758 17.9301
v  -180.1364 147.6566 17.9301
v  -180.1353 147.6564 18.7384
v  -180.1349 147.6563 18.9632
v  -177.2505 147.4188 18.7384
v  -177.2494 147.4189 17.9301
v  -178.1922 147.4986 17.9301
v  -177.2509 147.4188 18.9632
v  -178.1922 147.4981 18.4629
v  -184.7177 145.9848 17.9301
v  -184.6421 145.9781 25.9499
v  -184.6614 145.9798 23.9022
v  -184.6295 145.9770 27.2862
v  -184.6101 145.9753 29.3339
v  -184.7899 144.3406 27.2859
v  -184.8025 144.3417 25.9496
v  -184.8218 144.3434 23.9019
v  -185.2408 140.0703 23.9025
v  -185.4576 138.4383 17.9306
v  -185.4012 138.4339 23.9027
v  -185.2088 140.0678 27.2865
v  -185.2214 140.0688 25.9501
v  -185.3819 138.4323 25.9504
v  -185.3692 138.4314 27.2867
v  -185.1895 140.0663 29.3342
v  -184.7706 144.3389 29.3336
v  -185.3499 138.4298 29.3344
v  -185.6132 135.6510 30.2975
v  -186.0041 135.3455 30.7037
v  -184.7296 148.2958 30.6986
v  -177.0775 147.3197 30.2973
v  -177.4301 147.3499 30.7712
v  -177.4003 147.7321 30.6768
v  -179.7700 147.5500 30.7712
v  -180.0604 147.5748 30.2973
v  -179.7387 147.9182 30.6711
v  -172.6324 147.0792 30.7712
v  -172.2050 147.3277 30.6756
v  -184.4296 147.9672 30.7712
v  -173.6502 134.6813 30.2974
v  -173.3618 138.3386 29.7676
v  -173.2500 139.7535 29.7676
v  -173.2577 139.7532 23.4349
v  -173.2606 139.7472 21.4800
v  -173.0401 142.5369 21.4808
v  -173.2563 139.7541 24.5830
v  -172.9993 143.0167 23.9028
v  -173.2539 139.7538 26.5518
v  -172.9968 143.0166 25.9506
v  -173.2522 139.7537 27.9375
v  -172.8584 144.7685 25.9505
v  -172.8609 144.7152 27.3505
v  -172.9952 143.0161 27.3505
v  -172.9928 143.0160 29.2976
v  -172.8586 144.7151 29.2976
v  -172.8609 144.7686 23.9027
v  -172.8738 144.6273 22.4097
v  -172.8517 144.9104 22.2340
v  -172.8332 145.1477 22.0033
v  -172.8190 145.3318 21.7265
v  -172.8104 145.4448 21.4808
v  -172.8209 145.3259 20.5737
v  -172.8232 145.3260 18.6479
v  -172.8147 145.4448 17.9301
v  -184.6667 144.4593 25.8139
v  -184.5282 145.8340 25.8139
v  -184.5282 145.8340 24.0391
v  -184.6667 144.4593 24.0391
v  -173.0857 143.1594 27.4869
v  -172.9736 144.5896 27.4869
v  -172.9716 144.5894 29.1610
v  -173.0838 143.1592 29.1610
v  -184.6667 144.4593 29.1982
v  -184.5282 145.8340 29.1982
v  -184.5282 145.8340 27.4234
v  -184.6667 144.4593 27.4234
v  -173.0336 142.6342 20.5738
v  -172.9676 143.4688 20.5738
v  -173.0896 143.1614 24.0392
v  -172.9733 144.6431 24.0392
v  -172.9713 144.6429 25.8139
v  -173.0875 143.1613 25.8139
v  -172.9699 143.4689 18.6480
v  -172.9705 143.4689 18.1695
v  -172.9708 143.4689 17.9302
v  -184.8520 144.3438 23.9026
v  -184.8520 144.3438 25.9504
v  -184.8404 144.4749 25.8139
v  -184.8404 144.4749 24.0391
v  -184.7072 145.9821 25.9504
v  -184.7187 145.8510 25.8139
v  -184.7072 145.9821 23.9026
v  -184.7187 145.8510 24.0391
v  -184.8520 144.3438 27.2869
v  -184.8520 144.3438 29.3347
v  -184.8404 144.4749 29.1982
v  -184.8404 144.4749 27.4234
v  -184.7072 145.9821 29.3347
v  -184.7188 145.8510 29.1982
v  -184.7072 145.9821 27.2869
v  -184.7188 145.8510 27.4234
v  -172.9535 143.0071 29.2975
v  -172.9539 143.0071 27.3504
v  -172.9434 143.1413 27.4869
v  -172.9430 143.1412 29.1610
v  -172.8209 144.7051 27.3504
v  -172.8313 144.5710 27.4869
v  -172.8204 144.7051 29.2975
v  -172.8309 144.5710 29.1610
v  -172.9542 143.0080 25.9504
v  -172.9547 143.0080 23.9026
v  -172.9441 143.1435 24.0391
v  -172.9436 143.1434 25.8139
v  -172.8176 144.7583 23.9026
v  -172.8280 144.6242 24.0391
v  -172.8170 144.7583 25.9504
v  -172.8276 144.6241 25.8139
v  -179.6470 147.5356 24.0004
v  -179.5527 147.5273 23.8299
v  -179.4974 147.5224 23.6594
v  -177.8184 147.3776 23.6599
v  -177.7625 147.3730 23.8309
v  -177.6681 147.3650 24.0019
v  -177.8170 147.4391 23.6599
v  -177.7585 147.5052 23.8309
v  -185.6411 135.6371 30.7712
v  -178.0579 135.0385 30.2973
v  -178.4407 134.7230 30.6575
v  -178.4106 135.0671 30.7712
v  -180.7514 135.2568 30.7712
v  -180.7792 134.9085 30.6584
v  -181.0419 135.2804 30.2973
v  -177.5669 134.9991 30.7712
v  -173.2601 134.3396 30.7037
v  -173.6387 134.6847 30.7712
v  -177.5669 134.9991 30.2973
v  -181.5945 135.3253 30.2973
v  -181.5945 135.3252 30.7712
v  -185.1230 139.9296 25.8139
v  -185.1230 139.9296 24.0391
v  -185.2614 138.5549 24.0391
v  -185.2614 138.5549 25.8139
v  -173.3600 139.6549 28.0594
v  -173.3581 139.6547 29.6455
v  -173.4521 138.4564 29.6455
v  -173.4539 138.4566 28.0594
v  -185.1230 139.9296 29.1982
v  -185.1230 139.9296 27.4234
v  -185.2614 138.5549 27.4234
v  -185.2614 138.5549 29.1982
v  -173.3638 139.6552 24.7193
v  -173.3618 139.6550 26.4152
v  -173.4591 138.4151 26.4152
v  -173.4610 138.4153 24.7193
v  -172.9720 140.7307 18.1684
v  -173.0934 139.7154 18.1684
v  -173.0941 139.7155 17.9296
v  -172.9727 140.7308 17.9296
v  -173.3693 139.6052 23.2848
v  -173.4629 138.4122 23.2848
v  -173.4651 138.4082 21.6299
v  -173.3716 139.6002 21.6299
v  -185.3022 140.0744 23.9026
v  -185.3138 139.9435 24.0391
v  -185.3138 139.9435 25.8139
v  -185.3022 140.0744 25.9504
v  -185.4354 138.5683 25.8139
v  -185.4470 138.4373 25.9504
v  -185.4354 138.5683 24.0391
v  -185.4470 138.4373 23.9026
v  -185.3022 140.0744 27.2869
v  -185.3138 139.9435 27.4234
v  -185.3138 139.9435 29.1982
v  -185.3022 140.0744 29.3347
v  -185.4354 138.5683 29.1982
v  -185.4470 138.4373 29.3347
v  -185.4354 138.5683 27.4234
v  -185.4470 138.4373 27.2869
v  -173.2087 139.7487 29.7675
v  -173.2170 139.6434 29.6455
v  -173.2174 139.6434 28.0594
v  -173.2092 139.7487 27.9374
v  -173.3113 138.4452 28.0594
v  -173.3200 138.3341 27.9374
v  -173.3109 138.4451 29.6455
v  -173.3196 138.3340 29.7675
v  -173.2095 139.7487 26.5518
v  -173.2178 139.6435 26.4152
v  -173.2182 139.6435 24.7193
v  -173.2100 139.7487 24.5828
v  -173.3154 138.4035 24.7193
v  -173.3243 138.2905 24.5828
v  -173.3150 138.4034 26.4152
v  -173.3238 138.2904 26.5518
v  -173.3640 138.3388 27.9375
v  -173.3715 138.2956 24.5829
v  -173.3692 138.2953 26.5518
v  -173.2628 139.7344 20.4534
v  -173.1824 140.7529 20.4534
v  -173.1851 140.7531 18.1690
v  -173.1854 140.7532 17.9302
v  -173.0365 142.6343 18.1695
v  -173.0367 142.6343 17.9302
v  -173.3279 138.2544 21.4799
v  -173.2112 139.7440 21.4800
v  -173.2228 139.5951 21.6300
v  -173.3161 138.4042 21.6299
v  -173.2102 139.7501 23.4348
v  -173.2220 139.6003 23.2848
v  -173.3270 138.2593 23.4348
v  -173.3154 138.4083 23.2848
v  -173.3149 138.4022 21.6299
v  -173.2084 139.5931 21.6299
v  -173.2076 139.5983 23.2848
v  -173.3141 138.4063 23.2848
v  -172.8985 144.3139 22.5195
v  -172.9241 143.9884 22.5582
v  -172.9500 143.6622 22.5256
v  -172.9750 143.3466 22.4218
v  -172.9979 143.0601 22.2514
v  -173.0173 142.8182 22.0252
v  -173.0325 142.6288 21.7520
v  -173.0539 143.6721 22.5273
v  -173.0793 143.3566 22.4235
v  -173.1024 143.0701 22.2531
v  -173.1374 142.6389 21.7536
v  -173.1220 142.8282 22.0269
v  -173.1451 142.5469 21.4808
v  -172.9126 145.4547 21.4807
v  -173.0278 143.9984 22.5598
v  -172.9214 145.3417 21.7281
v  -172.9358 145.1576 22.0049
v  -172.9545 144.9203 22.2357
v  -172.9769 144.6372 22.4114
v  -173.0018 144.3239 22.5212
v  -173.0691 143.4735 20.5739
v  -173.0713 143.4736 18.6481
v  -172.9163 145.3302 18.6480
v  -172.9141 145.3301 20.5738
v  -173.1493 142.6399 18.1696
v  -173.0718 143.4736 18.1696
v  -173.1465 142.6398 20.5739
v  -172.8041 142.6224 17.9299
v  -172.7581 143.4586 17.9299
v  -172.7578 143.4586 18.1692
v  -172.8038 142.6224 18.1692
v  -173.2804 140.7634 20.4535
v  -173.3601 139.7449 20.4534
v  -173.3628 139.7451 18.1690
v  -173.2831 140.7637 18.1691
v  -173.2656 139.7346 18.1690
v  -173.2659 139.7346 17.9302
v  -185.7298 135.6618 17.9312
v  -185.2716 138.9097 30.7699
v  -185.3179 138.9122 32.5908
v  -185.2067 139.9065 32.5908
v  -185.1607 139.9041 30.7699
v  -185.6993 138.3024 32.5891
v  -183.6732 138.1261 32.5337
v  -183.6732 138.1261 32.7308
v  -185.6993 138.3024 32.7862
v  -185.2629 140.2879 32.5891
v  -183.5096 140.1974 32.5337
v  -183.7211 140.1869 30.7129
v  -185.2169 140.2849 30.7683
v  -185.5093 140.5624 32.7862
v  -185.5093 140.5624 32.5891
v  -185.3662 138.5373 30.7683
v  -183.8621 138.4316 30.7129
v  -183.6509 138.4423 32.5337
v  -185.4125 138.5406 32.5891
v  -183.4874 140.5136 32.7308
v  -183.4874 140.5136 32.5337
v  -184.7211 139.3724 32.9269
v  -183.5803 139.3199 32.8992
v  -185.3933 138.9164 32.5891
v  -185.2819 139.9104 32.5891
v  -185.3471 138.9138 30.7683
v  -185.2359 139.9080 30.7683
v  -184.7824 143.8466 30.7612
v  -184.8286 143.8493 32.6545
v  -184.7279 144.8428 32.6545
v  -184.6818 144.8402 30.7612
v  -185.2316 143.2492 32.6528
v  -183.2098 143.0333 32.5974
v  -183.2099 143.0333 32.7945
v  -185.2316 143.2492 32.8499
v  -184.7904 145.2265 32.6522
v  -183.0017 145.1007 32.5974
v  -183.2134 145.0908 30.7041
v  -184.7444 145.2224 30.7589
v  -184.9931 145.5045 32.8499
v  -184.9931 145.5045 32.6528
v  -184.8704 143.4752 30.7602
v  -183.3921 143.3389 30.7041
v  -183.1807 143.3490 32.5974
v  -184.9164 143.4795 32.6534
v  -182.9727 145.4163 32.7945
v  -182.9727 145.4163 32.5974
v  -184.2306 144.2979 32.9906
v  -183.0913 144.2248 32.9629
v  -184.8894 143.8548 32.6534
v  -184.8176 144.8494 32.6522
v  -184.8433 143.8512 30.7602
v  -184.7715 144.8460 30.7589
v  -179.7075 147.4720 30.7740
v  -179.7044 147.5196 32.6103
v  -177.5672 147.3200 32.6103
v  -177.5700 147.2723 30.7740
v  -176.9595 147.3256 32.6562
v  -177.0439 145.6625 32.6562
v  -176.9632 147.2777 30.7724
v  -180.2980 147.6694 32.6562
v  -180.3022 147.6221 30.7724
v  -180.4725 145.9947 32.6562
v  -179.6951 147.6179 32.6562
v  -179.6992 147.5705 30.7723
v  -177.5666 147.3293 30.7723
v  -177.5629 147.3771 32.6562
v  -180.5204 147.8684 32.6562
v  -180.5642 147.9350 32.7852
v  -176.6451 147.5711 32.7852
v  -176.6940 147.5044 32.6562
v  -180.7161 146.0104 32.6562
v  -180.7603 146.0392 32.7852
v  -176.7782 145.6559 32.6562
v  -176.7295 145.6851 32.7852
v  -178.6271 146.9458 33.0365
v  -178.6972 145.8622 33.0365
v  -173.4255 137.9917 30.7495
v  -173.3456 138.9889 30.7489
v  -173.2999 138.9835 32.5293
v  -173.3797 137.9865 32.5299
v  -173.0019 137.2988 32.5284
v  -173.0019 137.2988 32.6924
v  -175.0317 137.4237 32.6370
v  -175.0317 137.4237 32.4730
v  -173.2134 139.3669 32.5310
v  -173.2595 139.3694 30.7523
v  -174.6801 139.4831 30.7497
v  -174.8877 139.5248 32.4730
v  -172.8560 139.5904 32.5284
v  -172.8560 139.5904 32.6924
v  -173.4124 137.6257 30.7542
v  -173.3663 137.6233 32.5329
v  -175.0071 137.7680 32.4730
v  -174.7998 137.7262 30.7497
v  -174.8630 139.8407 32.4730
v  -174.8630 139.8407 32.6370
v  -173.8114 138.5298 32.9409
v  -174.9474 138.6463 32.9132
v  -173.2421 138.9900 32.5310
v  -173.3371 137.9985 32.5328
v  -173.3831 138.0015 30.7541
v  -173.2881 138.9931 30.7523
v  -173.0347 142.8482 30.7498
v  -172.9510 143.8431 30.7504
v  -172.9052 143.8361 32.5397
v  -172.9888 142.8413 32.5391
v  -172.7880 142.1769 32.5373
v  -172.7880 142.1769 32.7344
v  -174.8151 142.3348 32.6790
v  -174.8151 142.3348 32.4819
v  -172.8186 144.1891 32.5333
v  -172.8648 144.1922 30.7463
v  -174.4350 144.3568 30.7497
v  -174.6412 144.4053 32.4819
v  -172.6096 144.4378 32.5373
v  -172.6096 144.4378 32.7344
v  -173.0158 142.4496 30.7460
v  -172.9695 142.4462 32.5342
v  -174.7859 142.6505 32.4819
v  -174.5800 142.6018 30.7497
v  -174.6120 144.7209 32.4819
v  -174.6119 144.7209 32.6790
v  -173.5801 143.3911 32.8750
v  -174.7135 143.5279 32.8473
v  -172.8473 143.8122 32.5333
v  -172.9367 142.8210 32.5343
v  -172.9828 142.8252 30.7461
v  -172.8935 143.8160 30.7463
v  -182.9291 147.9102 21.2308
v  -182.9292 147.9100 18.9631
v  -182.9292 147.9100 18.7110
v  -182.9292 147.9099 17.9300
v  -183.7475 147.9688 17.9305
v  -173.6650 134.6838 17.9302
v  -182.9342 147.8401 17.9300
v  -182.0631 147.7551 17.9300
v  -181.0679 147.5606 17.9300
v  -182.0726 147.6556 17.9301
v  -182.0720 147.6556 18.7110
v  -181.0673 147.5606 18.7109
v  -174.4654 147.0543 17.9300
v  -175.2912 147.1395 17.9300
v  -176.3534 147.1323 18.7109
v  -175.3006 147.0399 18.7110
v  -175.3000 147.0398 17.9301
v  -176.3529 147.1322 17.9300
v  -173.6544 147.0873 17.9302
v  -174.4584 147.1441 17.9302
v  -174.4584 147.1441 18.7385
v  -174.4584 147.1441 18.9633
v  -174.4584 147.1444 21.2310
v  -179.5457 147.6451 23.8299
v  -179.4931 147.5775 23.6594
v  -177.6607 147.5846 24.0019
v  -179.6373 147.7719 24.0003
v  -180.1852 147.9125 21.4637
v  -180.2484 147.8480 21.4719
v  -174.3977 147.3359 21.4719
v  -177.1464 147.5765 21.4719
v  -177.1852 147.6499 21.4637
v  -178.4477 141.7935 38.0318
v  -179.6075 141.8797 38.0306
v  -179.6075 141.8797 39.4276
v  -178.4477 141.7935 39.4288
v  -179.6594 141.1824 38.0306
v  -179.6594 141.1824 39.4276
v  -178.4995 141.0961 38.0318
v  -178.4995 141.0961 39.4288
v  -173.3784 138.2564 21.4800
v  -173.3756 138.2612 23.4348
v  -180.6294 135.3540 30.7740
v  -178.4895 135.1819 30.7740
v  -178.4950 135.1342 32.6103
v  -180.6345 135.3067 32.6103
v  -177.9021 134.9912 32.6562
v  -177.8964 135.0389 30.7724
v  -177.6657 136.6396 32.6562
v  -181.2445 135.2946 32.6562
v  -181.0943 136.9716 32.6562
v  -181.2395 135.3418 30.7724
v  -180.6378 135.2767 30.7723
v  -180.6429 135.2294 32.6562
v  -178.5041 135.0564 32.6562
v  -178.4986 135.1041 30.7723
v  -181.5009 135.1419 32.6562
v  -177.6758 134.7647 32.6562
v  -177.6406 134.6899 32.7852
v  -181.5567 135.0849 32.7852
v  -181.3853 136.9831 32.7852
v  -181.3364 137.0029 32.6562
v  -177.4037 136.5950 32.6562
v  -177.3615 136.5571 32.7852
v  -179.3266 136.7610 33.0365
v  -179.4657 135.6840 33.0365
v  -180.1888 142.8757 37.2169
v  -177.6959 142.6915 37.2170
v  -180.4453 140.2370 37.2169
v  -177.9121 140.0311 37.2170
v  -178.1538 147.8586 18.1074
v  -179.1332 147.9581 18.1074
v  -179.1332 147.9581 18.2851
v  -178.1538 147.8586 18.2851
v  -177.8756 148.0473 17.9296
v  -179.3526 148.1976 17.9296
v  -179.3526 148.1976 18.1074
v  -177.8756 148.0473 18.1074
v  -179.1635 147.6597 18.4628
v  -178.1842 147.5602 18.4628
v  -178.1842 147.5602 18.2851
v  -179.1635 147.6597 18.2851
v  -178.2145 147.2617 18.2851
v  -178.2145 147.2617 18.1074
v  -178.1951 147.4659 18.1074
v  -178.2145 147.2617 17.9296
v  -178.1951 147.4659 17.9296
v  -179.1939 147.3612 17.9296
v  -179.1939 147.3612 18.1074
v  -179.1717 147.5651 18.1074
v  -179.1717 147.5651 17.9296
v  -179.1939 147.3612 18.2851
v  -177.9425 147.4365 18.1074
v  -177.9425 147.4365 17.9296
v  -179.4058 147.5854 17.9296
v  -179.4058 147.5854 18.1074
v  -179.1286 141.6028 38.8283
v  -178.9618 141.5946 38.8284
v  -179.1464 141.3869 38.8283
v  -178.9804 141.3677 38.8284
# 685 vertices

vt 0.3682 0.2680 0.0000
vt 0.3682 0.2782 0.0000
vt 0.4544 0.2782 0.0000
vt 0.4544 0.2680 0.0000
vt 0.5380 0.2680 0.0000
vt 0.5376 0.0033 0.0000
vt 0.5170 0.0033 0.0000
vt 0.5213 0.0821 0.0000
vt 0.5171 0.0739 0.0000
vt 0.5008 0.0821 0.0000
vt 0.4985 0.0893 0.0000
vt 0.4933 0.1367 0.0000
vt 0.4910 0.0982 0.0000
vt 0.4933 0.1797 0.0000
vt 0.4940 0.2074 0.0000
vt 0.4941 0.2499 0.0000
vt 0.4516 0.2499 0.0000
vt 0.4516 0.2074 0.0000
vt 0.4099 0.1955 0.0000
vt 0.4469 0.1797 0.0000
vt 0.4388 0.1807 0.0000
vt 0.3711 0.2498 0.0000
vt 0.3810 0.1806 0.0000
vt 0.3701 0.1797 0.0000
vt 0.3254 0.1797 0.0000
vt 0.3239 0.2066 0.0000
vt 0.3711 0.2066 0.0000
vt 0.2870 0.2680 0.0000
vt 0.3239 0.2498 0.0000
vt 0.3254 0.1369 0.0000
vt 0.3289 0.0994 0.0000
vt 0.3211 0.0912 0.0000
vt 0.2966 0.0820 0.0000
vt 0.3176 0.0821 0.0000
vt 0.2845 0.0033 0.0000
vt 0.3009 0.0739 0.0000
vt 0.3010 0.0033 0.0000
vt 0.2437 0.9782 0.0000
vt 0.0238 0.9782 0.0000
vt 0.0238 0.7679 0.0000
vt 0.2437 0.7679 0.0000
vt 0.2436 0.9782 0.0000
vt 0.0238 0.7680 0.0000
vt 0.2436 0.7680 0.0000
vt 0.2442 0.2335 0.0000
vt 0.0038 0.2335 0.0000
vt 0.0038 0.0242 0.0000
vt 0.2442 0.0242 0.0000
vt 0.1670 0.3656 0.0000
vt 0.1271 0.3725 0.0000
vt 0.0872 0.3656 0.0000
vt 0.2017 0.3454 0.0000
vt 0.0525 0.3454 0.0000
vt 0.0074 0.2763 0.0000
vt 0.0222 0.3128 0.0000
vt 0.2458 0.2763 0.0000
vt 0.2320 0.3128 0.0000
vt 0.0359 0.7625 0.0000
vt 0.0359 0.7385 0.0000
vt 0.2314 0.7385 0.0000
vt 0.2314 0.7625 0.0000
vt 0.3858 0.0967 0.0000
vt 0.3869 0.0695 0.0000
vt 0.3924 0.0695 0.0000
vt 0.3914 0.0967 0.0000
vt 0.2743 0.0116 0.0000
vt 0.2788 0.0111 0.0000
vt 0.2776 0.1951 0.0000
vt 0.2720 0.1955 0.0000
vt 0.3983 0.1843 0.0000
vt 0.4002 0.1571 0.0000
vt 0.4048 0.1572 0.0000
vt 0.4027 0.1844 0.0000
vt 0.4032 0.1328 0.0000
vt 0.4079 0.1330 0.0000
vt 0.3407 0.0734 0.0000
vt 0.3405 0.1001 0.0000
vt 0.3355 0.0995 0.0000
vt 0.3359 0.0728 0.0000
vt 0.3401 0.1309 0.0000
vt 0.3349 0.1303 0.0000
vt 0.3398 0.1617 0.0000
vt 0.3344 0.1611 0.0000
vt 0.3395 0.1885 0.0000
vt 0.3340 0.1879 0.0000
vt 0.3838 0.1211 0.0000
vt 0.3892 0.1211 0.0000
vt 0.9254 0.8879 0.0000
vt 0.9259 0.8754 0.0000
vt 0.9198 0.8754 0.0000
vt 0.9190 0.8878 0.0000
vt 0.5071 0.2435 0.0000
vt 0.5145 0.2354 0.0000
vt 0.5173 0.2354 0.0000
vt 0.5167 0.2482 0.0000
vt 0.3391 0.2217 0.0000
vt 0.3335 0.2211 0.0000
vt 0.3365 0.0415 0.0000
vt 0.3425 0.0422 0.0000
vt 0.3867 0.2259 0.0000
vt 0.3867 0.0809 0.0000
vt 0.3920 0.0809 0.0000
vt 0.3922 0.2259 0.0000
vt 0.2728 0.0144 0.0000
vt 0.2786 0.0138 0.0000
vt 0.2774 0.1932 0.0000
vt 0.2720 0.1936 0.0000
vt 0.3904 0.1711 0.0000
vt 0.3960 0.0263 0.0000
vt 0.4020 0.0265 0.0000
vt 0.3962 0.1713 0.0000
vt 0.3783 0.0033 0.0000
vt 0.3572 0.0033 0.0000
vt 0.3572 0.0200 0.0000
vt 0.3783 0.0200 0.0000
vt 0.4270 0.0984 0.0000
vt 0.4270 0.0814 0.0000
vt 0.4303 0.0814 0.0000
vt 0.4303 0.0984 0.0000
vt 0.3413 0.0981 0.0000
vt 0.3452 0.0428 0.0000
vt 0.3422 0.2219 0.0000
vt 0.3400 0.1626 0.0000
vt 0.3391 0.2213 0.0000
vt 0.5189 0.2042 0.0000
vt 0.5189 0.2127 0.0000
vt 0.5175 0.2127 0.0000
vt 0.5175 0.2042 0.0000
vt 0.2688 0.1941 0.0000
vt 0.2701 0.0149 0.0000
vt 0.0025 0.9939 0.0000
vt 0.0025 0.7493 0.0000
vt 0.0131 0.7699 0.0000
vt 0.0131 0.9732 0.0000
vt 0.0204 0.7468 0.0000
vt 0.0204 0.9983 0.0000
vt 0.0053 0.9773 0.0000
vt 0.0053 0.7677 0.0000
vt 0.0152 0.7493 0.0000
vt 0.0152 0.9939 0.0000
vt 0.0047 0.9732 0.0000
vt 0.0047 0.7699 0.0000
vt 0.0030 0.9983 0.0000
vt 0.0030 0.7468 0.0000
vt 0.0182 0.7677 0.0000
vt 0.0182 0.9773 0.0000
vt 0.0026 0.9935 0.0000
vt 0.0026 0.7513 0.0000
vt 0.0130 0.7720 0.0000
vt 0.0130 0.9728 0.0000
vt 0.0189 0.7468 0.0000
vt 0.0189 0.9963 0.0000
vt 0.0038 0.9755 0.0000
vt 0.0038 0.7676 0.0000
vt 0.0142 0.7513 0.0000
vt 0.0142 0.9935 0.0000
vt 0.0038 0.9728 0.0000
vt 0.0038 0.7720 0.0000
vt 0.0033 0.9963 0.0000
vt 0.0033 0.7468 0.0000
vt 0.0185 0.7676 0.0000
vt 0.0185 0.9755 0.0000
vt 0.0082 0.7624 0.0000
vt 0.0079 0.9930 0.0000
vt 0.0043 0.9930 0.0000
vt 0.0043 0.7624 0.0000
vt 0.0105 0.7583 0.0000
vt 0.0069 0.9828 0.0000
vt 0.0040 0.9830 0.0000
vt 0.0078 0.7586 0.0000
vt 0.0080 0.9940 0.0000
vt 0.0077 0.7635 0.0000
vt 0.0118 0.7635 0.0000
vt 0.0118 0.9940 0.0000
vt 0.0180 0.9806 0.0000
vt 0.0172 0.7562 0.0000
vt 0.0200 0.7565 0.0000
vt 0.0210 0.9810 0.0000
vt 0.0076 0.9745 0.0000
vt 0.0076 0.7830 0.0000
vt 0.0216 0.7830 0.0000
vt 0.0216 0.9745 0.0000
vt 0.0181 0.7495 0.0000
vt 0.0159 0.9599 0.0000
vt 0.0044 0.9611 0.0000
vt 0.0075 0.7509 0.0000
vt 0.0202 0.7819 0.0000
vt 0.0202 0.9735 0.0000
vt 0.0050 0.9735 0.0000
vt 0.0050 0.7819 0.0000
vt 0.0097 0.9574 0.0000
vt 0.0097 0.7469 0.0000
vt 0.0201 0.7485 0.0000
vt 0.0209 0.9588 0.0000
vt 0.0094 0.7683 0.0000
vt 0.0091 0.9965 0.0000
vt 0.0029 0.9965 0.0000
vt 0.0029 0.7683 0.0000
vt 0.0107 0.7652 0.0000
vt 0.0073 0.9781 0.0000
vt 0.0034 0.9783 0.0000
vt 0.0060 0.7654 0.0000
vt 0.0080 0.9877 0.0000
vt 0.0078 0.7594 0.0000
vt 0.0132 0.7594 0.0000
vt 0.0132 0.9877 0.0000
vt 0.0177 0.9760 0.0000
vt 0.0169 0.7631 0.0000
vt 0.0216 0.7633 0.0000
vt 0.0217 0.9762 0.0000
vt 0.0069 0.9682 0.0000
vt 0.0069 0.7789 0.0000
vt 0.0231 0.7789 0.0000
vt 0.0231 0.9682 0.0000
vt 0.0180 0.7563 0.0000
vt 0.0159 0.9559 0.0000
vt 0.0036 0.9568 0.0000
vt 0.0058 0.7574 0.0000
vt 0.0198 0.7878 0.0000
vt 0.0198 0.9770 0.0000
vt 0.0036 0.9770 0.0000
vt 0.0036 0.7878 0.0000
vt 0.0097 0.9533 0.0000
vt 0.0097 0.7537 0.0000
vt 0.0216 0.7550 0.0000
vt 0.0217 0.9545 0.0000
vt 0.3920 0.1223 0.0000
vt 0.4281 0.1223 0.0000
vt 0.4589 0.1035 0.0000
vt 0.4493 0.0981 0.0000
vt 0.4426 0.0893 0.0000
vt 0.3751 0.0912 0.0000
vt 0.3673 0.0994 0.0000
vt 0.3584 0.1044 0.0000
vt 0.0249 0.9764 0.0000
vt 0.0249 0.7694 0.0000
vt 0.2414 0.7694 0.0000
vt 0.2414 0.9764 0.0000
vt 0.2781 0.7964 0.0000
vt 0.2780 0.9989 0.0000
vt 0.2675 0.9989 0.0000
vt 0.2675 0.7964 0.0000
vt 0.2764 0.7964 0.0000
vt 0.2764 0.9989 0.0000
vt 0.2700 0.9816 0.0000
vt 0.2703 0.8070 0.0000
vt 0.6031 0.8632 0.0000
vt 0.6501 0.8981 0.0000
vt 0.6040 0.8951 0.0000
vt 0.4799 0.9911 0.0000
vt 0.4799 0.9588 0.0000
vt 0.2690 0.8361 0.0000
vt 0.2750 0.8344 0.0000
vt 0.2734 0.9929 0.0000
vt 0.2674 0.9945 0.0000
vt 0.2750 0.8618 0.0000
vt 0.2750 0.9912 0.0000
vt 0.2690 0.9912 0.0000
vt 0.2690 0.8618 0.0000
vt 0.2863 0.9958 0.0000
vt 0.2904 0.9958 0.0000
vt 0.2904 0.9685 0.0000
vt 0.2863 0.9685 0.0000
vt 0.1112 0.4047 0.0000
vt 0.1112 0.7165 0.0000
vt 0.0002 0.7165 0.0000
vt 0.0002 0.4047 0.0000
vt 0.6064 0.8951 0.0000
vt 0.4823 0.9588 0.0000
vt 0.3582 0.8951 0.0000
vt 0.2680 0.8519 0.0000
vt 0.2767 0.8580 0.0000
vt 0.2757 0.9397 0.0000
vt 0.2670 0.9464 0.0000
vt 0.3559 0.8951 0.0000
vt 0.3571 0.8632 0.0000
vt 0.2756 0.8368 0.0000
vt 0.2738 0.9953 0.0000
vt 0.2679 0.9932 0.0000
vt 0.2697 0.8349 0.0000
vt 0.0238 0.9783 0.0000
vt 0.2434 0.7680 0.0000
vt 0.2434 0.9783 0.0000
vt 0.2437 0.7680 0.0000
vt 0.2443 0.2335 0.0000
vt 0.0040 0.2335 0.0000
vt 0.0039 0.0242 0.0000
vt 0.2409 0.2763 0.0000
vt 0.2320 0.3054 0.0000
vt 0.2063 0.3406 0.0000
vt 0.0450 0.3406 0.0000
vt 0.1691 0.3620 0.0000
vt 0.1240 0.3702 0.0000
vt 0.0817 0.3628 0.0000
vt 0.0071 0.2763 0.0000
vt 0.0160 0.3054 0.0000
vt 0.4196 0.0703 0.0000
vt 0.3994 0.0703 0.0000
vt 0.3786 0.0739 0.0000
vt 0.4401 0.0739 0.0000
vt 0.4313 0.1638 0.0000
vt 0.4380 0.1641 0.0000
vt 0.4364 0.1858 0.0000
vt 0.4298 0.1855 0.0000
vt 0.2674 0.1979 0.0000
vt 0.2697 0.0166 0.0000
vt 0.2764 0.0163 0.0000
vt 0.2752 0.1977 0.0000
vt 0.4182 0.0695 0.0000
vt 0.4259 0.0695 0.0000
vt 0.4253 0.0912 0.0000
vt 0.4176 0.0912 0.0000
vt 0.4233 0.1175 0.0000
vt 0.4156 0.1175 0.0000
vt 0.3450 0.1740 0.0000
vt 0.3374 0.1736 0.0000
vt 0.3379 0.1451 0.0000
vt 0.3454 0.1455 0.0000
vt 0.3385 0.1123 0.0000
vt 0.3458 0.1128 0.0000
vt 0.3391 0.0773 0.0000
vt 0.3463 0.0778 0.0000
vt 0.3397 0.0485 0.0000
vt 0.3466 0.0489 0.0000
vt 0.4340 0.1376 0.0000
vt 0.4408 0.1379 0.0000
vt 0.3893 0.2511 0.0000
vt 0.3933 0.2511 0.0000
vt 0.4055 0.2673 0.0000
vt 0.3882 0.2766 0.0000
vt 0.3370 0.2002 0.0000
vt 0.3403 0.0205 0.0000
vt 0.3464 0.0209 0.0000
vt 0.3426 0.2005 0.0000
vt 0.4293 0.0276 0.0000
vt 0.4354 0.0278 0.0000
vt 0.4296 0.1726 0.0000
vt 0.4237 0.1724 0.0000
vt 0.2702 0.0157 0.0000
vt 0.2762 0.0154 0.0000
vt 0.2750 0.1949 0.0000
vt 0.2695 0.1951 0.0000
vt 0.4200 0.0809 0.0000
vt 0.4255 0.0809 0.0000
vt 0.4256 0.2259 0.0000
vt 0.4200 0.2259 0.0000
vt 0.4605 0.0200 0.0000
vt 0.4605 0.0033 0.0000
vt 0.4400 0.0033 0.0000
vt 0.4400 0.0200 0.0000
vt 0.5366 0.2127 0.0000
vt 0.5343 0.2127 0.0000
vt 0.5343 0.2042 0.0000
vt 0.5366 0.2042 0.0000
vt 0.3508 0.0217 0.0000
vt 0.3475 0.2009 0.0000
vt 0.3442 0.1475 0.0000
vt 0.3451 0.0799 0.0000
vt 0.3464 0.0213 0.0000
vt 0.3919 0.0814 0.0000
vt 0.3970 0.0814 0.0000
vt 0.3970 0.0984 0.0000
vt 0.3919 0.0984 0.0000
vt 0.2646 0.1953 0.0000
vt 0.2658 0.0161 0.0000
vt 0.0151 0.9940 0.0000
vt 0.0034 0.9733 0.0000
vt 0.0034 0.7738 0.0000
vt 0.0151 0.7531 0.0000
vt 0.0176 0.9981 0.0000
vt 0.0025 0.9748 0.0000
vt 0.0025 0.7706 0.0000
vt 0.0176 0.7473 0.0000
vt 0.0028 0.7531 0.0000
vt 0.0145 0.7738 0.0000
vt 0.0145 0.9733 0.0000
vt 0.0028 0.9940 0.0000
vt 0.0030 0.7473 0.0000
vt 0.0181 0.7706 0.0000
vt 0.0181 0.9748 0.0000
vt 0.0030 0.9981 0.0000
vt 0.0141 0.9947 0.0000
vt 0.0039 0.9713 0.0000
vt 0.0039 0.7742 0.0000
vt 0.0141 0.7508 0.0000
vt 0.0193 0.9960 0.0000
vt 0.0021 0.9757 0.0000
vt 0.0021 0.7675 0.0000
vt 0.0193 0.7472 0.0000
vt 0.0028 0.7508 0.0000
vt 0.0130 0.7742 0.0000
vt 0.0130 0.9713 0.0000
vt 0.0028 0.9947 0.0000
vt 0.0024 0.7472 0.0000
vt 0.0195 0.7675 0.0000
vt 0.0195 0.9757 0.0000
vt 0.0024 0.9960 0.0000
vt 0.0029 0.7677 0.0000
vt 0.0072 0.7677 0.0000
vt 0.0072 0.9947 0.0000
vt 0.0032 0.9947 0.0000
vt 0.0053 0.9937 0.0000
vt 0.0021 0.9935 0.0000
vt 0.0065 0.7665 0.0000
vt 0.0116 0.7667 0.0000
vt 0.0152 0.9937 0.0000
vt 0.0089 0.9937 0.0000
vt 0.0089 0.7667 0.0000
vt 0.0154 0.7667 0.0000
vt 0.0123 0.7717 0.0000
vt 0.0171 0.7717 0.0000
vt 0.0162 0.9987 0.0000
vt 0.0130 0.9988 0.0000
vt 0.0201 0.9742 0.0000
vt 0.0044 0.9742 0.0000
vt 0.0044 0.7862 0.0000
vt 0.0201 0.7862 0.0000
vt 0.0155 0.9723 0.0000
vt 0.0017 0.9724 0.0000
vt 0.0046 0.7875 0.0000
vt 0.0196 0.7873 0.0000
vt 0.0020 0.7872 0.0000
vt 0.0219 0.7872 0.0000
vt 0.0219 0.9752 0.0000
vt 0.0020 0.9752 0.0000
vt 0.0026 0.7920 0.0000
vt 0.0172 0.7927 0.0000
vt 0.0161 0.9776 0.0000
vt 0.0026 0.9771 0.0000
vt 0.0029 0.7580 0.0000
vt 0.0063 0.7580 0.0000
vt 0.0063 0.9879 0.0000
vt 0.0031 0.9879 0.0000
vt 0.0058 0.9899 0.0000
vt 0.0032 0.9898 0.0000
vt 0.0100 0.7686 0.0000
vt 0.0127 0.7687 0.0000
vt 0.0131 0.9967 0.0000
vt 0.0098 0.9967 0.0000
vt 0.0098 0.7669 0.0000
vt 0.0133 0.7669 0.0000
vt 0.0119 0.7461 0.0000
vt 0.0145 0.7461 0.0000
vt 0.0152 0.9950 0.0000
vt 0.0127 0.9951 0.0000
vt 0.0199 0.9747 0.0000
vt 0.0052 0.9747 0.0000
vt 0.0052 0.7889 0.0000
vt 0.0199 0.7889 0.0000
vt 0.0156 0.9693 0.0000
vt 0.0026 0.9695 0.0000
vt 0.0079 0.7613 0.0000
vt 0.0202 0.7610 0.0000
vt 0.0047 0.7801 0.0000
vt 0.0210 0.7801 0.0000
vt 0.0210 0.9658 0.0000
vt 0.0047 0.9658 0.0000
vt 0.0026 0.7657 0.0000
vt 0.0145 0.7665 0.0000
vt 0.0152 0.9747 0.0000
vt 0.0026 0.9741 0.0000
vt 0.2670 0.7954 0.0000
vt 0.2781 0.7955 0.0000
vt 0.2781 0.9979 0.0000
vt 0.2671 0.9979 0.0000
vt 0.2679 0.9882 0.0000
vt 0.2686 0.9065 0.0000
vt 0.2787 0.9001 0.0000
vt 0.2779 0.9946 0.0000
vt 0.2682 0.7955 0.0000
vt 0.2758 0.8062 0.0000
vt 0.2754 0.9808 0.0000
vt 0.2682 0.9979 0.0000
vt 0.3096 0.8991 0.0000
vt 0.2673 0.7989 0.0000
vt 0.2765 0.7989 0.0000
vt 0.2765 0.9961 0.0000
vt 0.2673 0.9961 0.0000
vt 0.2884 0.9961 0.0000
vt 0.2843 0.9961 0.0000
vt 0.2843 0.9688 0.0000
vt 0.2884 0.9688 0.0000
vt 0.3994 0.0147 0.0000
vt 0.3994 0.0033 0.0000
vt 0.3784 0.0033 0.0000
vt 0.3784 0.0206 0.0000
vt 0.3785 0.0254 0.0000
vt 0.4402 0.0206 0.0000
vt 0.4402 0.0033 0.0000
vt 0.4204 0.0033 0.0000
vt 0.4402 0.0254 0.0000
vt 0.4196 0.0147 0.0000
vt 0.5385 0.2675 0.0000
vt 0.5385 0.0033 0.0000
vt 0.4974 0.0032 0.0000
vt 0.4972 0.1746 0.0000
vt 0.4973 0.1309 0.0000
vt 0.4972 0.2032 0.0000
vt 0.4972 0.2469 0.0000
vt 0.4630 0.2032 0.0000
vt 0.4630 0.1746 0.0000
vt 0.4630 0.1309 0.0000
vt 0.3737 0.1309 0.0000
vt 0.3395 0.0033 0.0000
vt 0.3394 0.1309 0.0000
vt 0.3736 0.2032 0.0000
vt 0.3736 0.1746 0.0000
vt 0.3394 0.1746 0.0000
vt 0.3394 0.2032 0.0000
vt 0.3736 0.2469 0.0000
vt 0.4629 0.2469 0.0000
vt 0.3393 0.2470 0.0000
vt 0.2812 0.2675 0.0000
vt 0.9773 0.9000 0.0000
vt 0.9109 0.9000 0.0000
vt 0.9092 0.9848 0.0000
vt 0.9792 0.9837 0.0000
vt 0.9722 0.9833 0.0000
vt 0.9711 0.9994 0.0000
vt 0.9582 0.9992 0.0000
vt 0.9231 0.9989 0.0000
vt 0.9237 0.9883 0.0000
vt 0.9313 0.9987 0.0000
vt 0.9491 0.9992 0.0000
vt 0.9666 0.9992 0.0000
vt 0.9685 0.9792 0.0000
vt 0.9455 0.9795 0.0000
vt 0.9453 0.9992 0.0000
vt 0.9664 0.9000 0.0000
vt 0.9491 0.9000 0.0000
vt 0.9469 0.9000 0.0000
vt 0.9312 0.9000 0.0000
vt 0.9144 0.9000 0.0000
vt 0.9130 0.9840 0.0000
vt 0.9351 0.9783 0.0000
vt 0.9337 0.9000 0.0000
vt 0.9312 0.9992 0.0000
vt 0.9350 0.9992 0.0000
vt 0.9143 0.9992 0.0000
vt 0.5174 0.2675 0.0000
vt 0.2609 0.2675 0.0000
vt 0.3374 0.2562 0.0000
vt 0.3670 0.2562 0.0000
vt 0.3670 0.1209 0.0000
vt 0.3669 0.0791 0.0000
vt 0.4252 0.0791 0.0000
vt 0.3670 0.1454 0.0000
vt 0.4353 0.1309 0.0000
vt 0.3670 0.1875 0.0000
vt 0.4353 0.1746 0.0000
vt 0.3670 0.2171 0.0000
vt 0.4719 0.1746 0.0000
vt 0.4708 0.2046 0.0000
vt 0.4353 0.2046 0.0000
vt 0.4353 0.2462 0.0000
vt 0.4708 0.2462 0.0000
vt 0.4719 0.1309 0.0000
vt 0.4690 0.0990 0.0000
vt 0.4749 0.0952 0.0000
vt 0.4799 0.0903 0.0000
vt 0.4837 0.0844 0.0000
vt 0.4861 0.0791 0.0000
vt 0.5171 0.0032 0.0000
vt 0.4836 0.0597 0.0000
vt 0.4836 0.0186 0.0000
vt 0.4861 0.0032 0.0000
vt 0.1706 0.9745 0.0000
vt 0.0212 0.9745 0.0000
vt 0.0212 0.7693 0.0000
vt 0.1706 0.7693 0.0000
vt 0.0211 0.7655 0.0000
vt 0.1707 0.7655 0.0000
vt 0.1707 0.9746 0.0000
vt 0.0211 0.9746 0.0000
vt 0.4273 0.0597 0.0000
vt 0.4447 0.0597 0.0000
vt 0.0211 0.7654 0.0000
vt 0.1707 0.7654 0.0000
vt 0.1707 0.9747 0.0000
vt 0.0211 0.9747 0.0000
vt 0.4447 0.0186 0.0000
vt 0.4447 0.0084 0.0000
vt 0.4447 0.0032 0.0000
vt 0.0159 0.7464 0.0000
vt 0.0159 0.9925 0.0000
vt 0.0030 0.9761 0.0000
vt 0.0030 0.7628 0.0000
vt 0.0132 0.7768 0.0000
vt 0.0132 0.9736 0.0000
vt 0.0015 0.9579 0.0000
vt 0.0015 0.7926 0.0000
vt 0.0055 0.9925 0.0000
vt 0.0055 0.7464 0.0000
vt 0.0213 0.7628 0.0000
vt 0.0213 0.9761 0.0000
vt 0.0022 0.9829 0.0000
vt 0.0022 0.7860 0.0000
vt 0.0160 0.8018 0.0000
vt 0.0160 0.9671 0.0000
vt 0.0159 0.7508 0.0000
vt 0.0159 0.9969 0.0000
vt 0.0030 0.9805 0.0000
vt 0.0030 0.7672 0.0000
vt 0.0142 0.7768 0.0000
vt 0.0142 0.9736 0.0000
vt 0.0025 0.9579 0.0000
vt 0.0025 0.7925 0.0000
vt 0.0055 0.9969 0.0000
vt 0.0055 0.7508 0.0000
vt 0.0213 0.7672 0.0000
vt 0.0213 0.9805 0.0000
vt 0.0032 0.9789 0.0000
vt 0.0032 0.7821 0.0000
vt 0.0170 0.7978 0.0000
vt 0.0170 0.9631 0.0000
vt 0.0074 0.8829 0.0000
vt 0.0084 0.9884 0.0000
vt 0.0058 0.9884 0.0000
vt 0.0058 0.8830 0.0000
vt 0.0149 0.9475 0.0000
vt 0.0146 0.7988 0.0000
vt 0.0205 0.7990 0.0000
vt 0.0194 0.9477 0.0000
vt 0.0074 0.9074 0.0000
vt 0.0087 0.7760 0.0000
vt 0.0116 0.7760 0.0000
vt 0.0116 0.9074 0.0000
vt 0.0163 0.9429 0.0000
vt 0.0194 0.7955 0.0000
vt 0.0221 0.7954 0.0000
vt 0.0204 0.9428 0.0000
vt 0.0067 0.8869 0.0000
vt 0.0077 0.9924 0.0000
vt 0.0035 0.9924 0.0000
vt 0.0035 0.8870 0.0000
vt 0.0120 0.9475 0.0000
vt 0.0117 0.7988 0.0000
vt 0.0054 0.9150 0.0000
vt 0.0066 0.7836 0.0000
vt 0.0116 0.7836 0.0000
vt 0.0116 0.9151 0.0000
vt 0.0134 0.9428 0.0000
vt 0.0165 0.7955 0.0000
vt 0.0222 0.8192 0.0000
vt 0.0222 0.9223 0.0000
vt 0.0049 0.9223 0.0000
vt 0.0049 0.8192 0.0000
vt 0.0225 0.7979 0.0000
vt 0.0225 0.8782 0.0000
vt 0.0035 0.8782 0.0000
vt 0.0052 0.7979 0.0000
vt 0.0225 0.7694 0.0000
vt 0.0224 0.8725 0.0000
vt 0.0034 0.8725 0.0000
vt 0.0035 0.7694 0.0000
vt 0.0222 0.9527 0.0000
vt 0.0049 0.9527 0.0000
vt 0.0202 0.7924 0.0000
vt 0.0202 0.9063 0.0000
vt 0.0090 0.9063 0.0000
vt 0.0090 0.7924 0.0000
vt 0.0219 0.8072 0.0000
vt 0.0205 0.9310 0.0000
vt 0.0034 0.9308 0.0000
vt 0.0063 0.8070 0.0000
vt 0.0104 0.9854 0.0000
vt 0.0104 0.8940 0.0000
vt 0.0202 0.8940 0.0000
vt 0.0202 0.9854 0.0000
vt 0.0204 0.8109 0.0000
vt 0.0194 0.9358 0.0000
vt 0.0037 0.9357 0.0000
vt 0.0031 0.8108 0.0000
vt 0.0039 0.9325 0.0000
vt 0.0039 0.8039 0.0000
vt 0.0128 0.8129 0.0000
vt 0.0128 0.9235 0.0000
vt 0.0051 0.9240 0.0000
vt 0.0051 0.8118 0.0000
vt 0.0141 0.8207 0.0000
vt 0.0141 0.9151 0.0000
vt 0.0128 0.8124 0.0000
vt 0.0128 0.9410 0.0000
vt 0.0040 0.9320 0.0000
vt 0.0040 0.8214 0.0000
vt 0.0139 0.8197 0.0000
vt 0.0139 0.9319 0.0000
vt 0.0049 0.9230 0.0000
vt 0.0049 0.8285 0.0000
vt 0.0099 0.9438 0.0000
vt 0.0099 0.8085 0.0000
vt 0.0188 0.8175 0.0000
vt 0.0188 0.9348 0.0000
vt 0.0067 0.9312 0.0000
vt 0.0067 0.8156 0.0000
vt 0.0157 0.8244 0.0000
vt 0.0157 0.9223 0.0000
vt 0.0170 0.8058 0.0000
vt 0.0170 0.9411 0.0000
vt 0.0081 0.9321 0.0000
vt 0.0081 0.8149 0.0000
vt 0.0171 0.8170 0.0000
vt 0.0171 0.9327 0.0000
vt 0.0081 0.9237 0.0000
vt 0.0081 0.8259 0.0000
vt 0.0037 0.9427 0.0000
vt 0.0035 0.8141 0.0000
vt 0.0062 0.8141 0.0000
vt 0.0063 0.9427 0.0000
vt 0.0138 0.9455 0.0000
vt 0.0130 0.8329 0.0000
vt 0.0157 0.8333 0.0000
vt 0.0166 0.9458 0.0000
vt 0.0123 0.8065 0.0000
vt 0.0121 0.9351 0.0000
vt 0.0096 0.9351 0.0000
vt 0.0097 0.8065 0.0000
vt 0.0100 0.8326 0.0000
vt 0.0106 0.9452 0.0000
vt 0.0079 0.9456 0.0000
vt 0.0075 0.8331 0.0000
vt 0.0034 0.9390 0.0000
vt 0.0032 0.8037 0.0000
vt 0.0062 0.8037 0.0000
vt 0.0062 0.9390 0.0000
vt 0.0135 0.9455 0.0000
vt 0.0127 0.8294 0.0000
vt 0.0156 0.8298 0.0000
vt 0.0165 0.9458 0.0000
vt 0.0077 0.8058 0.0000
vt 0.0075 0.9411 0.0000
vt 0.0048 0.9411 0.0000
vt 0.0048 0.8058 0.0000
vt 0.0103 0.8291 0.0000
vt 0.0108 0.9452 0.0000
vt 0.0080 0.9455 0.0000
vt 0.0075 0.8296 0.0000
vt 0.0012 0.9280 0.0000
vt 0.0012 0.8175 0.0000
vt 0.0106 0.8175 0.0000
vt 0.0105 0.9280 0.0000
vt 0.0079 0.9367 0.0000
vt 0.0076 0.8420 0.0000
vt 0.0170 0.8414 0.0000
vt 0.0174 0.9362 0.0000
vt 0.0143 0.8231 0.0000
vt 0.0144 0.9337 0.0000
vt 0.0051 0.9337 0.0000
vt 0.0049 0.8231 0.0000
vt 0.0158 0.8422 0.0000
vt 0.0165 0.9369 0.0000
vt 0.0072 0.9366 0.0000
vt 0.0064 0.8418 0.0000
vt 0.0052 0.9321 0.0000
vt 0.0052 0.8148 0.0000
vt 0.0148 0.8148 0.0000
vt 0.0147 0.9321 0.0000
vt 0.0080 0.9366 0.0000
vt 0.0076 0.8385 0.0000
vt 0.0173 0.8379 0.0000
vt 0.0177 0.9361 0.0000
vt 0.0145 0.8127 0.0000
vt 0.0146 0.9299 0.0000
vt 0.0051 0.9299 0.0000
vt 0.0049 0.8127 0.0000
vt 0.0157 0.8387 0.0000
vt 0.0165 0.9368 0.0000
vt 0.0069 0.9364 0.0000
vt 0.0061 0.8383 0.0000
vt 0.4403 0.0821 0.0000
vt 0.3789 0.0821 0.0000
vt 0.3891 0.1407 0.0000
vt 0.3849 0.1407 0.0000
vt 0.3849 0.1369 0.0000
vt 0.3889 0.1332 0.0000
vt 0.3909 0.1296 0.0000
vt 0.3921 0.1259 0.0000
vt 0.3701 0.1369 0.0000
vt 0.3890 0.1750 0.0000
vt 0.2725 0.9084 0.0000
vt 0.2761 0.9086 0.0000
vt 0.2761 0.9122 0.0000
vt 0.2690 0.9118 0.0000
vt 0.2719 0.8737 0.0000
vt 0.2688 0.8700 0.0000
vt 0.2758 0.8703 0.0000
vt 0.2758 0.8738 0.0000
vt 0.4280 0.1259 0.0000
vt 0.4292 0.1296 0.0000
vt 0.4312 0.1333 0.0000
vt 0.4352 0.1369 0.0000
vt 0.4309 0.1407 0.0000
vt 0.4351 0.1407 0.0000
vt 0.4307 0.1750 0.0000
vt 0.4469 0.1367 0.0000
vt 0.2852 0.8897 0.0000
vt 0.2859 0.9161 0.0000
vt 0.2845 0.9161 0.0000
vt 0.2846 0.8897 0.0000
vt 0.2901 0.9958 0.0000
vt 0.2880 0.9961 0.0000
vt 0.2880 0.9689 0.0000
vt 0.2901 0.9686 0.0000
vt 0.9122 0.9918 0.0000
vt 0.9039 0.9918 0.0000
vt 0.9035 0.9840 0.0000
vt 0.9120 0.9888 0.0000
vt 0.9118 0.9840 0.0000
vt 0.9732 0.9993 0.0000
vt 0.9431 0.9992 0.0000
vt 0.9436 0.9950 0.0000
vt 0.9738 0.9949 0.0000
vt 0.9334 0.9857 0.0000
vt 0.9114 0.9854 0.0000
vt 0.9117 0.9840 0.0000
vt 0.9336 0.9843 0.0000
vt 0.9697 0.9915 0.0000
vt 0.9258 0.9906 0.0000
vt 0.9256 0.9883 0.0000
vt 0.9696 0.9893 0.0000
vt 0.9554 0.9859 0.0000
vt 0.9556 0.9845 0.0000
vt 0.9129 0.9992 0.0000
vt 0.9135 0.9950 0.0000
vt 0.9555 0.9893 0.0000
vt 0.9554 0.9845 0.0000
vt 0.9638 0.9845 0.0000
vt 0.9558 0.9921 0.0000
vt 0.9642 0.9921 0.0000
vt 0.9774 0.9991 0.0000
vt 0.9108 0.9991 0.0000
vt 0.9500 0.9834 0.0000
vt 0.9607 0.9987 0.0000
vt 0.9490 0.9995 0.0000
vt 0.9440 0.9989 0.0000
vt 0.9362 0.9984 0.0000
vt 0.9445 0.9883 0.0000
vt 0.9447 0.9992 0.0000
vt 0.9410 0.9992 0.0000
vt 0.9409 0.9755 0.0000
vt 0.9638 0.9851 0.0000
vt 0.9621 0.9992 0.0000
vt 0.9426 0.9000 0.0000
vt 0.9447 0.9000 0.0000
vt 0.9621 0.9000 0.0000
vt 0.9269 0.9000 0.0000
vt 0.9293 0.9000 0.0000
vt 0.9305 0.9757 0.0000
vt 0.9074 0.9851 0.0000
vt 0.9091 0.9000 0.0000
vt 0.9306 0.9992 0.0000
vt 0.9269 0.9992 0.0000
vt 0.9090 0.9992 0.0000
vt 0.1707 0.7656 0.0000
vt 0.1707 0.9745 0.0000
vt 0.0212 0.7656 0.0000
vt 0.0212 0.9746 0.0000
vt 0.0212 0.7655 0.0000
vt 0.2554 0.4906 0.0000
vt 0.2554 0.7092 0.0000
vt 0.2040 0.7092 0.0000
vt 0.2040 0.4905 0.0000
vt 0.0068 0.7464 0.0000
vt 0.0226 0.7628 0.0000
vt 0.0226 0.9761 0.0000
vt 0.0068 0.9925 0.0000
vt 0.0132 0.9724 0.0000
vt 0.0015 0.9566 0.0000
vt 0.0015 0.7914 0.0000
vt 0.0132 0.7757 0.0000
vt 0.0154 0.9925 0.0000
vt 0.0026 0.9761 0.0000
vt 0.0026 0.7628 0.0000
vt 0.0154 0.7464 0.0000
vt 0.0022 0.7849 0.0000
vt 0.0160 0.8006 0.0000
vt 0.0160 0.9658 0.0000
vt 0.0022 0.9816 0.0000
vt 0.0068 0.7508 0.0000
vt 0.0226 0.7672 0.0000
vt 0.0226 0.9805 0.0000
vt 0.0068 0.9969 0.0000
vt 0.0142 0.9724 0.0000
vt 0.0025 0.9566 0.0000
vt 0.0025 0.7914 0.0000
vt 0.0142 0.7756 0.0000
vt 0.0154 0.9969 0.0000
vt 0.0026 0.9805 0.0000
vt 0.0026 0.7672 0.0000
vt 0.0154 0.7508 0.0000
vt 0.0032 0.7809 0.0000
vt 0.0170 0.7966 0.0000
vt 0.0170 0.9619 0.0000
vt 0.0032 0.9776 0.0000
vt 0.0056 0.7760 0.0000
vt 0.0095 0.7760 0.0000
vt 0.0095 0.9074 0.0000
vt 0.0043 0.9074 0.0000
vt 0.0124 0.8409 0.0000
vt 0.0197 0.8411 0.0000
vt 0.0186 0.9897 0.0000
vt 0.0127 0.9896 0.0000
vt 0.0069 0.9884 0.0000
vt 0.0036 0.9884 0.0000
vt 0.0036 0.8830 0.0000
vt 0.0059 0.8830 0.0000
vt 0.0154 0.7945 0.0000
vt 0.0195 0.7945 0.0000
vt 0.0178 0.9418 0.0000
vt 0.0123 0.9418 0.0000
vt 0.0035 0.7836 0.0000
vt 0.0095 0.7836 0.0000
vt 0.0095 0.9150 0.0000
vt 0.0023 0.9150 0.0000
vt 0.0095 0.8409 0.0000
vt 0.0098 0.9895 0.0000
vt 0.0078 0.9924 0.0000
vt 0.0028 0.9924 0.0000
vt 0.0028 0.8870 0.0000
vt 0.0068 0.8870 0.0000
vt 0.0125 0.7945 0.0000
vt 0.0094 0.9418 0.0000
vt 0.0040 0.8192 0.0000
vt 0.0230 0.8192 0.0000
vt 0.0230 0.9223 0.0000
vt 0.0040 0.9223 0.0000
vt 0.0237 0.9963 0.0000
vt 0.0047 0.9972 0.0000
vt 0.0044 0.7784 0.0000
vt 0.0217 0.7777 0.0000
vt 0.0212 0.9977 0.0000
vt 0.0039 0.9970 0.0000
vt 0.0042 0.7782 0.0000
vt 0.0232 0.7791 0.0000
vt 0.0097 0.8940 0.0000
vt 0.0195 0.8940 0.0000
vt 0.0195 0.9854 0.0000
vt 0.0097 0.9854 0.0000
vt 0.0179 0.9300 0.0000
vt 0.0008 0.9301 0.0000
vt 0.0037 0.8063 0.0000
vt 0.0194 0.8063 0.0000
vt 0.0180 0.9063 0.0000
vt 0.0069 0.9063 0.0000
vt 0.0069 0.7924 0.0000
vt 0.0180 0.7924 0.0000
vt 0.0187 0.9778 0.0000
vt 0.0029 0.9775 0.0000
vt 0.0023 0.8526 0.0000
vt 0.0196 0.8530 0.0000
vt 0.0114 0.9331 0.0000
vt 0.0045 0.9250 0.0000
vt 0.0045 0.8202 0.0000
vt 0.0114 0.8122 0.0000
vt 0.0095 0.8412 0.0000
vt 0.0175 0.8481 0.0000
vt 0.0175 0.9273 0.0000
vt 0.0095 0.9346 0.0000
vt 0.0055 0.8122 0.0000
vt 0.0128 0.8202 0.0000
vt 0.0128 0.9250 0.0000
vt 0.0055 0.9331 0.0000
vt 0.0149 0.9317 0.0000
vt 0.0068 0.9244 0.0000
vt 0.0068 0.8452 0.0000
vt 0.0149 0.8383 0.0000
vt 0.0122 0.9361 0.0000
vt 0.0053 0.9270 0.0000
vt 0.0053 0.8150 0.0000
vt 0.0122 0.8060 0.0000
vt 0.0059 0.8426 0.0000
vt 0.0149 0.8496 0.0000
vt 0.0149 0.9315 0.0000
vt 0.0059 0.9390 0.0000
vt 0.0070 0.8060 0.0000
vt 0.0145 0.8150 0.0000
vt 0.0145 0.9270 0.0000
vt 0.0070 0.9361 0.0000
vt 0.0137 0.9346 0.0000
vt 0.0047 0.9272 0.0000
vt 0.0047 0.8452 0.0000
vt 0.0137 0.8383 0.0000
vt 0.0155 0.9331 0.0000
vt 0.0128 0.9330 0.0000
vt 0.0128 0.8121 0.0000
vt 0.0157 0.8122 0.0000
vt 0.0136 0.8337 0.0000
vt 0.0164 0.8338 0.0000
vt 0.0181 0.9275 0.0000
vt 0.0151 0.9275 0.0000
vt 0.0096 0.8227 0.0000
vt 0.0125 0.8227 0.0000
vt 0.0125 0.9436 0.0000
vt 0.0097 0.9436 0.0000
vt 0.0121 0.9280 0.0000
vt 0.0093 0.9280 0.0000
vt 0.0096 0.8343 0.0000
vt 0.0123 0.8342 0.0000
vt 0.0105 0.9474 0.0000
vt 0.0075 0.9474 0.0000
vt 0.0076 0.8173 0.0000
vt 0.0106 0.8173 0.0000
vt 0.0133 0.8337 0.0000
vt 0.0180 0.9304 0.0000
vt 0.0149 0.9304 0.0000
vt 0.0091 0.8052 0.0000
vt 0.0122 0.8052 0.0000
vt 0.0122 0.9352 0.0000
vt 0.0092 0.9352 0.0000
vt 0.0124 0.9309 0.0000
vt 0.0093 0.9309 0.0000
vt 0.0126 0.8342 0.0000
vt 0.0193 0.9355 0.0000
vt 0.0100 0.9355 0.0000
vt 0.0098 0.8307 0.0000
vt 0.0193 0.8307 0.0000
vt 0.0096 0.8413 0.0000
vt 0.0190 0.8413 0.0000
vt 0.0188 0.9207 0.0000
vt 0.0094 0.9207 0.0000
vt 0.0076 0.8202 0.0000
vt 0.0171 0.8202 0.0000
vt 0.0170 0.9250 0.0000
vt 0.0076 0.9250 0.0000
vt 0.0180 0.9201 0.0000
vt 0.0086 0.9203 0.0000
vt 0.0072 0.8409 0.0000
vt 0.0166 0.8408 0.0000
vt 0.0192 0.9262 0.0000
vt 0.0097 0.9262 0.0000
vt 0.0096 0.8142 0.0000
vt 0.0192 0.8142 0.0000
vt 0.0193 0.8413 0.0000
vt 0.0190 0.9234 0.0000
vt 0.0094 0.9234 0.0000
vt 0.0086 0.8263 0.0000
vt 0.0182 0.8263 0.0000
vt 0.0181 0.9384 0.0000
vt 0.0086 0.9384 0.0000
vt 0.0180 0.9229 0.0000
vt 0.0084 0.9231 0.0000
vt 0.0070 0.8409 0.0000
vt 0.0165 0.8408 0.0000
vt 0.9739 0.9789 0.0000
vt 0.9038 0.9848 0.0000
vt 0.9057 0.9000 0.0000
vt 0.9719 0.9000 0.0000
vt 0.3666 0.0572 0.0000
vt 0.3879 0.0572 0.0000
vt 0.3879 0.0084 0.0000
vt 0.3879 0.0032 0.0000
vt 0.4273 0.0084 0.0000
vt 0.4273 0.0032 0.0000
vt 0.9726 0.9991 0.0000
vt 0.9057 0.9991 0.0000
vt 0.0043 0.9432 0.0000
vt 0.0043 0.8448 0.0000
vt 0.0142 0.8547 0.0000
vt 0.0142 0.9334 0.0000
vt 0.0119 0.8108 0.0000
vt 0.0123 0.9399 0.0000
vt 0.0024 0.9300 0.0000
vt 0.0021 0.8207 0.0000
vt 0.0140 0.8353 0.0000
vt 0.0140 0.9338 0.0000
vt 0.0040 0.9239 0.0000
vt 0.0040 0.8452 0.0000
vt 0.0049 0.9399 0.0000
vt 0.0046 0.8108 0.0000
vt 0.0145 0.8207 0.0000
vt 0.0148 0.9300 0.0000
vt 0.0006 0.9795 0.0000
vt 0.0034 0.8767 0.0000
vt 0.0174 0.8777 0.0000
vt 0.0135 0.9805 0.0000
vt 0.0136 0.7835 0.0000
vt 0.0137 0.8837 0.0000
vt 0.0039 0.8837 0.0000
vt 0.0037 0.7835 0.0000
vt 0.0151 0.8304 0.0000
vt 0.0138 0.9334 0.0000
vt 0.0010 0.9338 0.0000
vt 0.0012 0.8309 0.0000
vt 0.0031 0.9757 0.0000
vt 0.0032 0.8628 0.0000
vt 0.0134 0.8628 0.0000
vt 0.0133 0.9757 0.0000
vt 0.4624 0.1013 0.0000
vt 0.4556 0.1021 0.0000
vt 0.4488 0.1015 0.0000
vt 0.4422 0.0992 0.0000
vt 0.4362 0.0956 0.0000
vt 0.4311 0.0908 0.0000
vt 0.4272 0.0849 0.0000
vt 0.0960 0.3679 0.0000
vt 0.0693 0.3591 0.0000
vt 0.0451 0.3447 0.0000
vt 0.0086 0.3025 0.0000
vt 0.0247 0.3256 0.0000
vt 0.0009 0.2794 0.0000
vt 0.2467 0.2794 0.0000
vt 0.1236 0.3706 0.0000
vt 0.2372 0.3003 0.0000
vt 0.2216 0.3237 0.0000
vt 0.2015 0.3432 0.0000
vt 0.1776 0.3581 0.0000
vt 0.1511 0.3674 0.0000
vt 0.3033 0.0057 0.0000
vt 0.3023 0.1922 0.0000
vt 0.2957 0.1922 0.0000
vt 0.2966 0.0058 0.0000
vt 0.4590 0.2048 0.0000
vt 0.4597 0.2205 0.0000
vt 0.4532 0.2211 0.0000
vt 0.4525 0.2053 0.0000
vt 0.4601 0.2382 0.0000
vt 0.4536 0.2388 0.0000
vt 0.3031 0.0100 0.0000
vt 0.3028 0.0252 0.0000
vt 0.2962 0.0249 0.0000
vt 0.2965 0.0097 0.0000
vt 0.3024 0.0433 0.0000
vt 0.2958 0.0431 0.0000
vt 0.3019 0.0634 0.0000
vt 0.2953 0.0631 0.0000
vt 0.3015 0.0843 0.0000
vt 0.2948 0.0840 0.0000
vt 0.3010 0.1052 0.0000
vt 0.2944 0.1049 0.0000
vt 0.3006 0.1254 0.0000
vt 0.2939 0.1251 0.0000
vt 0.3002 0.1438 0.0000
vt 0.2935 0.1435 0.0000
vt 0.2998 0.1593 0.0000
vt 0.2931 0.1590 0.0000
vt 0.4525 0.1931 0.0000
vt 0.4528 0.1756 0.0000
vt 0.4596 0.1755 0.0000
vt 0.4592 0.1930 0.0000
vt 0.4527 0.1583 0.0000
vt 0.4594 0.1580 0.0000
vt 0.0922 0.9813 0.0000
vt 0.0922 0.7744 0.0000
vt 0.2420 0.7744 0.0000
vt 0.2420 0.9813 0.0000
vt 0.0170 0.7458 0.0000
vt 0.0978 0.7458 0.0000
vt 0.0978 0.7927 0.0000
vt 0.0170 0.9813 0.0000
vt 0.0978 0.9813 0.0000
vt 0.2074 0.6500 0.0000
vt 0.2074 0.5158 0.0000
vt 0.2458 0.5158 0.0000
vt 0.2458 0.6500 0.0000
vt 0.2458 0.6874 0.0000
vt 0.2074 0.6874 0.0000
vt 0.2218 0.7124 0.0000
vt 0.2219 0.6741 0.0000
vt 0.2560 0.6742 0.0000
vt 0.2559 0.7125 0.0000
vt 0.2182 0.5399 0.0000
vt 0.2555 0.5399 0.0000
vt 0.4026 0.2481 0.0000
vt 0.4029 0.0257 0.0000
vt 0.4133 0.0257 0.0000
vt 0.4130 0.2481 0.0000
vt 0.2056 0.6740 0.0000
vt 0.2001 0.5399 0.0000
vt 0.3825 0.0257 0.0000
vt 0.3825 0.0700 0.0000
vt 0.3731 0.0700 0.0000
vt 0.3731 0.0257 0.0000
vt 0.4393 0.2475 0.0000
vt 0.4457 0.0752 0.0000
vt 0.4543 0.0759 0.0000
vt 0.4487 0.2481 0.0000
vt 0.3961 0.0700 0.0000
vt 0.3963 0.2481 0.0000
vt 0.3877 0.2481 0.0000
vt 0.3875 0.0700 0.0000
vt 0.5283 0.0075 0.0000
vt 0.5279 0.1799 0.0000
vt 0.5185 0.1801 0.0000
vt 0.5196 0.0078 0.0000
vt 0.5277 0.2573 0.0000
vt 0.5172 0.2576 0.0000
vt 0.0986 0.9810 0.0000
vt 0.0185 0.9810 0.0000
vt 0.0186 0.7447 0.0000
vt 0.0986 0.7447 0.0000
vt 0.4238 0.2370 0.0000
vt 0.4241 0.0256 0.0000
vt 0.4330 0.0256 0.0000
vt 0.4328 0.2370 0.0000
vt 0.2147 0.7091 0.0000
vt 0.2228 0.4891 0.0000
vt 0.2441 0.4893 0.0000
vt 0.2358 0.7092 0.0000
vt 0.3626 0.0257 0.0000
vt 0.3629 0.2370 0.0000
vt 0.3538 0.2370 0.0000
vt 0.3535 0.0257 0.0000
vt 0.5273 0.1536 0.0000
vt 0.5271 0.2481 0.0000
vt 0.5180 0.2478 0.0000
vt 0.5182 0.1533 0.0000
vt 0.2516 0.6578 0.0000
vt 0.2515 0.7092 0.0000
vt 0.2056 0.7091 0.0000
vt 0.2057 0.6577 0.0000
vt 0.2521 0.4891 0.0000
vt 0.2440 0.7091 0.0000
vt 0.2067 0.7089 0.0000
vt 0.2060 0.4886 0.0000
vt 0.2106 0.7092 0.0000
vt 0.2106 0.6578 0.0000
vt 0.2476 0.6577 0.0000
vt 0.2477 0.7091 0.0000
vt 0.2814 0.0033 0.0000
vt 0.3481 0.1061 0.0000
vt 0.3378 0.1044 0.0000
vt 0.3864 0.6489 0.0000
vt 0.3864 0.7388 0.0000
vt 0.3202 0.7388 0.0000
vt 0.3202 0.6489 0.0000
vt 0.4448 0.8288 0.0000
vt 0.4460 0.8288 0.0000
vt 0.4460 0.8520 0.0000
vt 0.4448 0.8520 0.0000
vt 0.8298 0.5468 0.0000
vt 0.7063 0.5429 0.0000
vt 0.7211 0.4162 0.0000
vt 0.8266 0.4201 0.0000
vt 0.4449 0.8520 0.0000
vt 0.4449 0.8288 0.0000
vt 0.7092 0.4201 0.0000
vt 0.8153 0.4162 0.0000
vt 0.8301 0.5429 0.0000
vt 0.7059 0.5468 0.0000
vt 0.4461 0.8520 0.0000
vt 0.4461 0.8288 0.0000
vt 0.7764 0.4842 0.0000
vt 0.8359 0.4883 0.0000
vt 0.8335 0.5508 0.0000
vt 0.7283 0.5412 0.0000
vt 0.8121 0.4629 0.0000
vt 0.7730 0.4638 0.0000
vt 0.7670 0.4582 0.0000
vt 0.8120 0.4558 0.0000
vt 0.7724 0.4945 0.0000
vt 0.7726 0.5029 0.0000
vt 0.7667 0.5087 0.0000
vt 0.7732 0.4722 0.0000
vt 0.8119 0.5021 0.0000
vt 0.8120 0.5091 0.0000
vt 0.7813 0.4182 0.0000
vt 0.7812 0.5449 0.0000
vt 0.7548 0.5449 0.0000
vt 0.7548 0.4182 0.0000
vt 0.8531 0.4194 0.0000
vt 0.8564 0.5461 0.0000
vt 0.7911 0.4725 0.0000
vt 0.7913 0.5120 0.0000
vt 0.7943 0.5119 0.0000
vt 0.7941 0.4723 0.0000
vt 0.7730 0.4416 0.0000
vt 0.7748 0.5136 0.0000
vt 0.7718 0.5137 0.0000
vt 0.7700 0.4417 0.0000
vt 0.7546 0.4849 0.0000
vt 0.7560 0.4453 0.0000
vt 0.7590 0.4453 0.0000
vt 0.7576 0.4848 0.0000
vt 0.7905 0.5136 0.0000
vt 0.7923 0.4416 0.0000
vt 0.7953 0.4417 0.0000
vt 0.7935 0.5137 0.0000
vt 0.7321 0.4227 0.0000
vt 0.8383 0.4258 0.0000
vt 0.3863 0.6491 0.0000
vt 0.3863 0.7390 0.0000
vt 0.3202 0.7390 0.0000
vt 0.3202 0.6491 0.0000
vt 0.4448 0.8289 0.0000
vt 0.4460 0.8289 0.0000
vt 0.4460 0.8521 0.0000
vt 0.4448 0.8521 0.0000
vt 0.8302 0.5498 0.0000
vt 0.7059 0.5461 0.0000
vt 0.7205 0.4163 0.0000
vt 0.8270 0.4200 0.0000
vt 0.4450 0.8521 0.0000
vt 0.4450 0.8289 0.0000
vt 0.7109 0.4201 0.0000
vt 0.8138 0.4162 0.0000
vt 0.8284 0.5460 0.0000
vt 0.7077 0.5498 0.0000
vt 0.4461 0.8521 0.0000
vt 0.4461 0.8289 0.0000
vt 0.7740 0.4834 0.0000
vt 0.8336 0.4865 0.0000
vt 0.8326 0.5491 0.0000
vt 0.7272 0.5414 0.0000
vt 0.8026 0.4482 0.0000
vt 0.7626 0.4484 0.0000
vt 0.7577 0.4426 0.0000
vt 0.8027 0.4411 0.0000
vt 0.7628 0.4791 0.0000
vt 0.7628 0.4874 0.0000
vt 0.7562 0.4931 0.0000
vt 0.7627 0.4569 0.0000
vt 0.8016 0.4874 0.0000
vt 0.8015 0.4944 0.0000
vt 0.7811 0.4181 0.0000
vt 0.7811 0.5479 0.0000
vt 0.7550 0.5479 0.0000
vt 0.7550 0.4181 0.0000
vt 0.8532 0.4194 0.0000
vt 0.8564 0.5492 0.0000
vt 0.8259 0.4957 0.0000
vt 0.8242 0.5351 0.0000
vt 0.8218 0.5350 0.0000
vt 0.8224 0.4956 0.0000
vt 0.7531 0.4413 0.0000
vt 0.7549 0.5162 0.0000
vt 0.7525 0.5162 0.0000
vt 0.7507 0.4413 0.0000
vt 0.7525 0.5289 0.0000
vt 0.7523 0.4895 0.0000
vt 0.7559 0.4895 0.0000
vt 0.7549 0.5289 0.0000
vt 0.8089 0.5161 0.0000
vt 0.8107 0.4412 0.0000
vt 0.8142 0.4413 0.0000
vt 0.8124 0.5162 0.0000
vt 0.7284 0.4230 0.0000
vt 0.8346 0.4240 0.0000
vt 0.8928 0.8413 0.0000
vt 0.8924 0.9948 0.0000
vt 0.6593 0.9948 0.0000
vt 0.6596 0.8413 0.0000
vt 0.4279 0.4663 0.0000
vt 0.2713 0.4663 0.0000
vt 0.4234 0.2891 0.0000
vt 0.2704 0.4663 0.0000
vt 0.2749 0.2891 0.0000
vt 0.4288 0.4663 0.0000
vt 0.4145 0.1728 0.0000
vt 0.4143 0.2545 0.0000
vt 0.3881 0.2545 0.0000
vt 0.3883 0.1728 0.0000
vt 0.2694 0.2545 0.0000
vt 0.2696 0.1728 0.0000
vt 0.2958 0.1728 0.0000
vt 0.2956 0.2545 0.0000
vt 0.7938 0.4568 0.0000
vt 0.7941 0.5416 0.0000
vt 0.7980 0.5415 0.0000
vt 0.7961 0.4566 0.0000
vt 0.7889 0.4193 0.0000
vt 0.7908 0.4938 0.0000
vt 0.7869 0.4920 0.0000
vt 0.7850 0.4194 0.0000
vt 0.7686 0.4482 0.0000
vt 0.7716 0.5330 0.0000
vt 0.7739 0.5330 0.0000
vt 0.7725 0.4481 0.0000
vt 0.8166 0.4789 0.0000
vt 0.8185 0.4044 0.0000
vt 0.8207 0.4044 0.0000
vt 0.8188 0.4770 0.0000
vt 0.4453 0.8379 0.0000
vt 0.4453 0.8531 0.0000
vt 0.4475 0.8531 0.0000
vt 0.4475 0.8379 0.0000
vt 0.4452 0.8379 0.0000
vt 0.4452 0.8531 0.0000
vt 0.8141 0.4890 0.0000
vt 0.8284 0.4886 0.0000
vt 0.8332 0.5021 0.0000
vt 0.7429 0.5019 0.0000
vt 0.7639 0.4860 0.0000
vt 0.7497 0.4864 0.0000
vt 0.7479 0.4842 0.0000
vt 0.8362 0.4852 0.0000
vt 0.8368 0.5027 0.0000
vt 0.7388 0.5015 0.0000
vt 0.7111 0.5281 0.0000
vt 0.7981 0.4837 0.0000
vt 0.7955 0.4271 0.0000
vt 0.7049 0.4297 0.0000
vt 0.7376 0.4832 0.0000
vt 0.8239 0.4836 0.0000
vt 0.8388 0.5026 0.0000
vt 0.7430 0.5029 0.0000
vt 0.8563 0.5234 0.0000
vt 0.7808 0.4837 0.0000
vt 0.7105 0.5281 0.0000
vt 0.8563 0.5480 0.0000
vt 0.8550 0.4484 0.0000
vt 0.7461 0.4517 0.0000
vt 0.7491 0.5083 0.0000
vt 0.3864 0.6491 0.0000
vt 0.3864 0.7390 0.0000
vt 0.4463 0.8273 0.0000
vt 0.4463 0.8466 0.0000
vt 0.4451 0.8466 0.0000
vt 0.4451 0.8273 0.0000
vt 0.7335 0.5455 0.0000
vt 0.7369 0.4170 0.0000
vt 0.8410 0.4168 0.0000
vt 0.8564 0.5413 0.0000
vt 0.8518 0.4170 0.0000
vt 0.8552 0.5455 0.0000
vt 0.7348 0.5412 0.0000
vt 0.7501 0.4167 0.0000
vt 0.7749 0.4832 0.0000
vt 0.7317 0.5440 0.0000
vt 0.8374 0.5449 0.0000
vt 0.8345 0.4824 0.0000
vt 0.7856 0.4631 0.0000
vt 0.7856 0.4560 0.0000
vt 0.8306 0.4582 0.0000
vt 0.8230 0.4638 0.0000
vt 0.8313 0.5093 0.0000
vt 0.8230 0.4722 0.0000
vt 0.8226 0.5027 0.0000
vt 0.8226 0.4943 0.0000
vt 0.7860 0.5100 0.0000
vt 0.7859 0.5023 0.0000
vt 0.7812 0.4168 0.0000
vt 0.8087 0.4168 0.0000
vt 0.8087 0.5454 0.0000
vt 0.7813 0.5454 0.0000
vt 0.7059 0.5447 0.0000
vt 0.7093 0.4162 0.0000
vt 0.8243 0.4504 0.0000
vt 0.8221 0.4508 0.0000
vt 0.8235 0.4903 0.0000
vt 0.8251 0.4898 0.0000
vt 0.8277 0.4649 0.0000
vt 0.8293 0.4647 0.0000
vt 0.8275 0.5351 0.0000
vt 0.8258 0.5352 0.0000
vt 0.7739 0.5017 0.0000
vt 0.7722 0.5023 0.0000
vt 0.7724 0.4628 0.0000
vt 0.7746 0.4623 0.0000
vt 0.7684 0.5352 0.0000
vt 0.7661 0.5351 0.0000
vt 0.7643 0.4647 0.0000
vt 0.7666 0.4648 0.0000
vt 0.7254 0.4242 0.0000
vt 0.8315 0.4185 0.0000
vt 0.4463 0.8283 0.0000
vt 0.4463 0.8515 0.0000
vt 0.4451 0.8515 0.0000
vt 0.4451 0.8283 0.0000
vt 0.7316 0.5370 0.0000
vt 0.7348 0.4169 0.0000
vt 0.8421 0.4171 0.0000
vt 0.8564 0.5336 0.0000
vt 0.8530 0.4169 0.0000
vt 0.8562 0.5371 0.0000
vt 0.7319 0.5336 0.0000
vt 0.7462 0.4171 0.0000
vt 0.7768 0.4853 0.0000
vt 0.7328 0.5455 0.0000
vt 0.8384 0.5481 0.0000
vt 0.8365 0.4855 0.0000
vt 0.7662 0.4494 0.0000
vt 0.7663 0.4423 0.0000
vt 0.8113 0.4452 0.0000
vt 0.8070 0.4511 0.0000
vt 0.8112 0.4957 0.0000
vt 0.8071 0.4595 0.0000
vt 0.8067 0.4900 0.0000
vt 0.8068 0.4816 0.0000
vt 0.7659 0.4956 0.0000
vt 0.7660 0.4886 0.0000
vt 0.8068 0.4169 0.0000
vt 0.8068 0.5371 0.0000
vt 0.7812 0.5371 0.0000
vt 0.7059 0.5364 0.0000
vt 0.7091 0.4162 0.0000
vt 0.8049 0.4785 0.0000
vt 0.8072 0.4777 0.0000
vt 0.8060 0.5171 0.0000
vt 0.8038 0.5178 0.0000
vt 0.8118 0.4646 0.0000
vt 0.8139 0.4647 0.0000
vt 0.8121 0.5355 0.0000
vt 0.8100 0.5353 0.0000
vt 0.7866 0.5370 0.0000
vt 0.7845 0.5363 0.0000
vt 0.7848 0.4968 0.0000
vt 0.7872 0.4976 0.0000
vt 0.7840 0.5353 0.0000
vt 0.7817 0.5355 0.0000
vt 0.7799 0.4648 0.0000
vt 0.7822 0.4646 0.0000
vt 0.7284 0.4270 0.0000
vt 0.8346 0.4230 0.0000
vt 0.3011 0.0739 0.0000
vt 0.3186 0.0739 0.0000
vt 0.3186 0.0254 0.0000
vt 0.3186 0.0200 0.0000
vt 0.3186 0.0033 0.0000
vt 0.3011 0.0033 0.0000
vt 0.5169 0.0033 0.0000
vt 0.5172 0.2680 0.0000
vt 0.2612 0.2680 0.0000
vt 0.2587 0.0033 0.0000
vt 0.3185 0.0033 0.0000
vt 0.3185 0.0200 0.0000
vt 0.3384 0.0200 0.0000
vt 0.3384 0.0033 0.0000
vt 0.5248 0.7710 0.0000
vt 0.6350 0.7710 0.0000
vt 0.6349 0.8391 0.0000
vt 0.5247 0.8391 0.0000
vt 0.3813 0.0648 0.0000
vt 0.3813 0.0149 0.0000
vt 0.3877 0.0149 0.0000
vt 0.3877 0.0648 0.0000
vt 0.2696 0.1284 0.0000
vt 0.2716 0.0639 0.0000
vt 0.2780 0.0641 0.0000
vt 0.2760 0.1286 0.0000
vt 0.3932 0.2372 0.0000
vt 0.3952 0.1874 0.0000
vt 0.4015 0.1876 0.0000
vt 0.3996 0.2375 0.0000
vt 0.3337 0.1625 0.0000
vt 0.3349 0.0980 0.0000
vt 0.3816 0.2259 0.0000
vt 0.3815 0.0809 0.0000
vt 0.4173 0.1721 0.0000
vt 0.4230 0.0273 0.0000
vt 0.4230 0.1885 0.0000
vt 0.4167 0.1865 0.0000
vt 0.4211 0.2383 0.0000
vt 0.4147 0.2381 0.0000
vt 0.4068 0.0490 0.0000
vt 0.4067 0.2151 0.0000
vt 0.3917 0.2151 0.0000
vt 0.3917 0.0490 0.0000
vt 0.3283 0.1651 0.0000
vt 0.3299 0.1022 0.0000
vt 0.3436 0.1046 0.0000
vt 0.3434 0.1654 0.0000
vt 0.4262 0.0382 0.0000
vt 0.4197 0.2042 0.0000
vt 0.4062 0.2037 0.0000
vt 0.4127 0.0377 0.0000
vt 0.3867 0.0149 0.0000
vt 0.3867 0.0648 0.0000
vt 0.3815 0.0666 0.0000
vt 0.3815 0.0149 0.0000
vt 0.4998 0.0200 0.0000
vt 0.4998 0.0033 0.0000
vt 0.4808 0.0033 0.0000
vt 0.4807 0.0200 0.0000
vt 0.6435 0.8391 0.0000
vt 0.5246 0.7710 0.0000
vt 0.6435 0.7710 0.0000
vt 0.4266 0.2386 0.0000
vt 0.4286 0.1887 0.0000
vt 0.4349 0.1889 0.0000
vt 0.4330 0.2388 0.0000
vt 0.3378 0.1474 0.0000
vt 0.3387 0.0798 0.0000
vt 0.4146 0.0648 0.0000
vt 0.4146 0.0149 0.0000
vt 0.4209 0.0149 0.0000
vt 0.4209 0.0648 0.0000
vt 0.2693 0.1420 0.0000
vt 0.2700 0.0745 0.0000
vt 0.2764 0.0746 0.0000
vt 0.2757 0.1421 0.0000
vt 0.5172 0.0033 0.0000
vt 0.4999 0.0033 0.0000
vt 0.4999 0.0206 0.0000
vt 0.5172 0.0739 0.0000
vt 0.4999 0.0254 0.0000
vt 0.4999 0.0739 0.0000
vt 0.3891 0.0289 0.0000
vt 0.3941 0.0289 0.0000
vt 0.4200 0.0149 0.0000
vt 0.4200 0.0648 0.0000
vt 0.4143 0.0666 0.0000
vt 0.4143 0.0149 0.0000
vt 0.4143 0.0809 0.0000
vt 0.4143 0.2259 0.0000
vt 0.2860 0.8896 0.0000
vt 0.2861 0.9159 0.0000
vt 0.2873 0.9159 0.0000
vt 0.2866 0.8896 0.0000
vt 0.2899 0.8899 0.0000
vt 0.2899 0.9162 0.0000
vt 0.2883 0.9163 0.0000
vt 0.2884 0.8900 0.0000
vt 0.2867 0.9425 0.0000
vt 0.2844 0.9425 0.0000
vt 0.2846 0.8633 0.0000
vt 0.2886 0.9422 0.0000
vt 0.2862 0.9422 0.0000
vt 0.2860 0.8633 0.0000
vt 0.2900 0.9424 0.0000
vt 0.2882 0.9426 0.0000
vt 0.2884 0.8637 0.0000
vt 0.2899 0.8637 0.0000
vt 0.9441 0.8879 0.0000
vt 0.9437 0.8754 0.0000
vt 0.9433 0.8754 0.0000
vt 0.9813 0.8879 0.0000
vt 0.9815 0.8754 0.0000
vt 0.9635 0.8754 0.0000
vt 0.9629 0.8879 0.0000
vt 0.9633 0.8754 0.0000
vt 0.9440 0.8455 0.0000
vt 0.9628 0.8455 0.0000
vt 0.9810 0.8455 0.0000
vt 0.4679 0.6689 0.0000
vt 0.5013 0.6688 0.0000
vt 0.5013 0.7482 0.0000
vt 0.4679 0.7483 0.0000
vt 0.4795 0.6688 0.0000
vt 0.4996 0.6688 0.0000
vt 0.4996 0.7482 0.0000
vt 0.4795 0.7482 0.0000
vt 0.4679 0.6688 0.0000
vt 0.5013 0.6689 0.0000
vt 0.5013 0.7483 0.0000
vt 0.4679 0.7482 0.0000
vt 0.4749 0.6689 0.0000
vt 0.4950 0.6689 0.0000
vt 0.4950 0.7483 0.0000
vt 0.4749 0.7483 0.0000
vt 0.0147 0.9330 0.0000
vt 0.0131 0.8342 0.0000
vt 0.0163 0.8341 0.0000
vt 0.0180 0.9328 0.0000
vt 0.0109 0.8184 0.0000
vt 0.0107 0.9475 0.0000
vt 0.0076 0.9475 0.0000
vt 0.0076 0.8183 0.0000
vt 0.0128 0.8343 0.0000
vt 0.0126 0.9331 0.0000
vt 0.0094 0.9330 0.0000
vt 0.0097 0.8342 0.0000
vt 0.7033 0.5167 0.0000
vt 0.8325 0.5166 0.0000
vt 0.8325 0.5199 0.0000
vt 0.7033 0.5200 0.0000
vt 0.0175 0.8440 0.0000
vt 0.0180 0.9230 0.0000
vt 0.0179 0.9229 0.0000
vt 0.0165 0.8440 0.0000
vt 0.0174 0.8237 0.0000
vt 0.0171 0.9331 0.0000
vt 0.0170 0.9331 0.0000
vt 0.0173 0.8237 0.0000
vt 0.0212 0.9233 0.0000
vt 0.0206 0.8442 0.0000
vt 0.0216 0.8441 0.0000
vt 0.0213 0.9231 0.0000
vt 0.0074 0.9376 0.0000
vt 0.0075 0.8283 0.0000
vt 0.0084 0.8283 0.0000
vt 0.0084 0.9376 0.0000
vt 0.0030 0.9136 0.0000
vt 0.0030 0.8396 0.0000
vt 0.0148 0.8483 0.0000
vt 0.0148 0.9064 0.0000
vt 0.3859 0.1709 0.0000
vt 0.3916 0.0261 0.0000
vt 0.3897 0.1872 0.0000
vt 0.3853 0.1870 0.0000
vt 0.3878 0.2370 0.0000
vt 0.3833 0.2369 0.0000
vt 0.5174 0.1233 0.0000
vt 0.5145 0.1233 0.0000
vt 0.9876 0.8879 0.0000
vt 0.9873 0.8754 0.0000
vt 0.9863 0.8455 0.0000
vt 0.9811 0.8455 0.0000
vt 0.4020 0.2413 0.0000
vt 0.9257 0.8455 0.0000
vt 0.9204 0.8455 0.0000
vt 0.3813 0.0103 0.0000
vt 0.4706 0.1055 0.0000
vt 0.4815 0.1037 0.0000
vt 0.2610 0.0032 0.0000
vt 0.3357 0.0791 0.0000
vt 0.3358 0.1209 0.0000
vt 0.3365 0.1454 0.0000
vt 0.3365 0.1875 0.0000
vt 0.3374 0.2171 0.0000
vt 0.3666 0.0032 0.0000
vt 0.3666 0.0084 0.0000
vt 0.6599 0.8404 0.0000
vt 0.8927 0.8404 0.0000
vt 0.8921 0.9949 0.0000
vt 0.6594 0.9949 0.0000
vt 0.2758 0.2891 0.0000
vt 0.4243 0.2891 0.0000
vt 0.2903 0.1398 0.0000
vt 0.3242 0.1398 0.0000
vt 0.3239 0.2685 0.0000
vt 0.2900 0.2685 0.0000
vt 0.4784 0.2685 0.0000
vt 0.4445 0.2685 0.0000
vt 0.4448 0.1398 0.0000
vt 0.4788 0.1398 0.0000
vt 0.7499 0.4375 0.0000
vt 0.7468 0.4375 0.0000
vt 0.7498 0.5224 0.0000
vt 0.7529 0.5223 0.0000
vt 0.8003 0.4193 0.0000
vt 0.8034 0.4194 0.0000
vt 0.8015 0.4920 0.0000
vt 0.7985 0.4938 0.0000
vt 0.7623 0.4483 0.0000
vt 0.7593 0.4484 0.0000
vt 0.7596 0.5333 0.0000
vt 0.7627 0.5331 0.0000
vt 0.8062 0.4789 0.0000
vt 0.8032 0.4770 0.0000
vt 0.8013 0.4044 0.0000
vt 0.8043 0.4044 0.0000
vt 0.4448 0.8379 0.0000
vt 0.4470 0.8379 0.0000
vt 0.4470 0.8531 0.0000
vt 0.4448 0.8531 0.0000
vt 0.4449 0.8379 0.0000
vt 0.4471 0.8379 0.0000
vt 0.4471 0.8531 0.0000
vt 0.7413 0.5069 0.0000
vt 0.7467 0.5031 0.0000
vt 0.7602 0.5035 0.0000
vt 0.8269 0.5088 0.0000
vt 0.8080 0.5037 0.0000
vt 0.8214 0.5041 0.0000
vt 0.7418 0.4653 0.0000
vt 0.7472 0.4656 0.0000
vt 0.7081 0.5209 0.0000
vt 0.7053 0.4223 0.0000
vt 0.7959 0.4236 0.0000
vt 0.7966 0.4803 0.0000
vt 0.8239 0.4671 0.0000
vt 0.8298 0.4677 0.0000
vt 0.8540 0.5240 0.0000
vt 0.7796 0.4803 0.0000
vt 0.8530 0.5486 0.0000
vt 0.7473 0.5049 0.0000
vt 0.7466 0.4482 0.0000
vt 0.8555 0.4491 0.0000
vt 0.8516 0.4165 0.0000
vt 0.9944 0.4164 0.0000
vt 0.8334 0.7133 0.0000
vt 0.7023 0.4165 0.0000
vt 0.5557 0.4164 0.0000
vt 0.7456 0.7133 0.0000
vt 0.5557 0.0369 0.0000
vt 0.9944 0.0369 0.0000
vt 0.8334 0.3337 0.0000
vt 0.7456 0.3337 0.0000
vt 0.7027 0.4164 0.0000
vt 0.8488 0.4164 0.0000
vt 0.7456 0.3338 0.0000
vt 0.1991 0.6545 0.0000
vt 0.1991 0.4480 0.0000
vt 0.2364 0.4480 0.0000
vt 0.2364 0.6545 0.0000
vt 0.1974 0.7102 0.0000
vt 0.1974 0.4099 0.0000
vt 0.2459 0.4099 0.0000
vt 0.2459 0.7102 0.0000
vt 0.2431 0.4189 0.0000
vt 0.2431 0.6641 0.0000
vt 0.1989 0.6641 0.0000
vt 0.1989 0.4189 0.0000
vt 0.2526 0.5387 0.0000
vt 0.2526 0.7129 0.0000
vt 0.1995 0.7129 0.0000
vt 0.1995 0.5387 0.0000
vt 0.2490 0.7147 0.0000
vt 0.2067 0.7147 0.0000
vt 0.2067 0.6434 0.0000
vt 0.2490 0.6434 0.0000
vt 0.2533 0.7147 0.0000
vt 0.2111 0.7147 0.0000
vt 0.2111 0.6660 0.0000
vt 0.2533 0.6434 0.0000
vt 0.2406 0.7147 0.0000
vt 0.1983 0.7147 0.0000
vt 0.1983 0.6660 0.0000
vt 0.2406 0.6660 0.0000
vt 0.2591 0.7139 0.0000
vt 0.2028 0.7139 0.0000
vt 0.2028 0.6490 0.0000
vt 0.2591 0.6490 0.0000
vt 0.2573 0.7139 0.0000
vt 0.2011 0.7139 0.0000
vt 0.2011 0.6190 0.0000
vt 0.2573 0.6490 0.0000
vt 0.2562 0.7139 0.0000
vt 0.2000 0.7139 0.0000
vt 0.2000 0.6189 0.0000
vt 0.2562 0.6190 0.0000
vt 0.2569 0.5280 0.0000
vt 0.2569 0.7129 0.0000
vt 0.2005 0.7129 0.0000
vt 0.2005 0.5280 0.0000
vt 0.2111 0.5721 0.0000
vt 0.2533 0.5721 0.0000
vt 0.2005 0.5412 0.0000
vt 0.2506 0.5408 0.0000
vt 0.2519 0.7140 0.0000
vt 0.2018 0.7144 0.0000
vt 0.2503 0.5405 0.0000
vt 0.2002 0.5413 0.0000
vt 0.2027 0.7145 0.0000
vt 0.2528 0.7138 0.0000
vt 0.2011 0.5240 0.0000
vt 0.2573 0.5240 0.0000
vt 0.2391 0.4606 0.0000
vt 0.2388 0.6463 0.0000
vt 0.1980 0.6949 0.0000
vt 0.1985 0.4148 0.0000
vt 0.2462 0.5368 0.0000
vt 0.2463 0.6113 0.0000
vt 0.1983 0.6119 0.0000
vt 0.1976 0.4960 0.0000
vt 0.2454 0.6116 0.0000
vt 0.2450 0.5372 0.0000
vt 0.1992 0.4965 0.0000
vt 0.2011 0.6124 0.0000
vt 0.8334 0.4074 0.0000
vt 0.7931 0.4816 0.0000
vt 0.7456 0.4074 0.0000
# 1842 texture coords

g Line001
usemtl Material__2
s off
f 1/1 2/2 3/3 4/4 
f 5/5 6/6 7/7 8/8 
f 7/7 9/9 8/8 
f 8/8 10/10 11/11 12/12 
f 11/11 13/13 12/12 
f 5/5 8/8 12/12 14/14 
f 5/5 14/14 15/15 16/16 
f 4/4 5/5 16/16 17/17 
f 18/18 15/15 14/14 19/19 
f 20/20 21/21 19/19 14/14 
f 17/17 18/18 19/19 4/4 
f 1/1 4/4 19/19 22/22 
f 19/19 23/23 24/24 25/25 
f 25/25 26/26 27/27 19/19 
f 19/19 27/27 22/22 
f 28/28 1/1 22/22 29/29 
f 28/28 29/29 26/26 30/30 
f 26/26 25/25 30/30 
f 30/30 31/31 32/32 33/33 
f 32/32 34/34 33/33 
f 28/28 30/30 33/33 35/35 
f 33/33 36/36 37/37 35/35 
f 38/38 39/39 40/40 41/41 
f 42/42 43/39 44/43 45/44 
f 46/45 47/46 48/47 49/48 
f 50/49 51/50 52/51 53/52 
f 53/52 52/51 54/53 55/54 
f 54/53 56/55 55/54 
f 53/52 55/54 57/56 58/57 
f 59/58 60/59 61/60 62/61 
f 63/62 64/63 55/64 56/65 
f 34/66 57/67 55/68 64/69 
f 34/70 32/71 58/72 57/73 
f 32/71 31/74 53/75 58/72 
f 31/76 65/77 50/78 53/79 
f 65/77 66/80 51/81 50/78 
f 66/80 67/82 52/83 51/81 
f 67/82 68/84 54/85 52/83 
f 68/86 63/62 56/65 54/87 
f 34/88 69/89 70/90 33/91 
f 70/92 71/93 36/94 33/95 
f 72/96 47/97 46/98 73/99 
f 72/100 74/101 48/102 47/103 
f 75/104 49/105 48/106 74/107 
f 75/108 73/109 46/110 49/111 
f 76/112 77/113 78/114 79/115 
f 74/116 79/117 60/118 59/119 
f 80/120 81/99 61/121 60/122 
f 78/123 80/120 60/122 79/124 
f 81/125 75/126 62/127 61/128 
f 74/107 59/129 62/130 75/104 
f 82/131 83/132 84/133 85/134 
f 83/135 86/136 87/137 84/138 
f 86/139 88/140 89/141 87/142 
f 88/143 82/144 85/145 89/146 
f 90/147 91/148 92/149 93/150 
f 91/151 94/152 95/153 92/154 
f 94/155 96/156 97/157 95/158 
f 96/159 90/160 93/161 97/162 
f 26/163 29/164 83/165 82/166 
f 29/167 22/168 86/169 83/170 
f 22/171 27/172 88/173 86/174 
f 27/175 26/176 82/177 88/178 
f 38/179 41/180 85/181 84/182 
f 41/183 40/184 89/185 85/186 
f 40/187 39/188 87/189 89/190 
f 39/191 38/192 84/193 87/194 
f 30/195 25/196 91/197 90/198 
f 25/199 24/200 94/201 91/202 
f 24/203 98/204 96/205 94/206 
f 98/207 30/208 90/209 96/210 
f 42/211 45/212 93/213 92/214 
f 45/215 44/216 97/217 93/218 
f 44/219 43/220 95/221 97/222 
f 43/223 42/224 92/225 95/226 
f 99/227 100/228 101/229 102/230 
f 102/230 103/231 63/232 99/227 
f 99/227 63/232 68/233 67/234 
f 104/235 105/236 106/237 107/238 
f 108/239 109/240 110/241 111/242 
f 111/243 110/244 112/245 113/246 
f 114/247 115/248 116/249 
f 115/248 117/250 118/251 116/249 
f 119/252 104/253 107/254 112/255 
f 113/256 112/257 107/258 106/259 
f 120/260 121/261 122/262 123/263 
f 124/264 125/265 126/266 127/267 
f 128/268 129/269 130/270 
f 111/271 113/272 131/273 132/274 
f 114/247 116/249 133/275 134/276 
f 106/277 105/278 131/279 113/280 
f 135/281 136/43 137/282 138/283 
f 139/39 140/43 141/284 142/38 
f 143/48 144/285 145/286 146/287 
f 147/288 148/289 149/290 150/291 
f 151/292 152/293 153/294 150/291 
f 149/290 151/292 150/291 
f 154/295 147/288 150/291 155/296 
f 156/297 157/298 158/299 159/300 
f 160/58 161/59 162/60 163/61 
f 103/301 148/302 147/303 164/304 
f 10/305 164/306 147/307 154/308 
f 10/309 154/310 155/311 11/312 
f 11/312 155/311 150/313 13/314 
f 13/315 150/316 153/317 165/318 
f 165/318 153/317 152/319 166/320 
f 166/320 152/319 151/321 101/322 
f 101/322 151/321 149/323 102/324 
f 102/325 149/326 148/302 103/301 
f 9/327 167/328 168/329 8/330 
f 145/331 144/332 169/333 170/334 
f 169/335 144/336 143/337 171/338 
f 171/339 143/340 146/341 172/342 
f 172/343 146/344 145/345 170/346 
f 173/347 174/348 175/349 176/350 
f 171/351 163/352 162/353 176/354 
f 162/355 161/356 177/334 178/357 
f 162/355 178/357 173/358 176/359 
f 177/360 161/361 160/362 172/363 
f 172/342 160/364 163/365 171/339 
f 179/366 180/367 181/368 182/369 
f 182/370 181/371 183/372 184/373 
f 184/374 183/375 185/376 186/377 
f 186/378 185/379 180/380 179/381 
f 187/382 188/383 189/384 190/385 
f 190/386 189/387 191/388 192/389 
f 192/390 191/391 193/392 194/393 
f 194/394 193/395 188/396 187/397 
f 15/398 179/399 182/400 16/401 
f 16/402 182/403 184/404 17/405 
f 17/406 184/407 186/408 18/409 
f 18/410 186/411 179/412 15/413 
f 135/414 181/415 180/416 136/417 
f 136/418 180/419 185/420 137/421 
f 137/422 185/423 183/424 138/425 
f 138/426 183/427 181/428 135/429 
f 12/430 187/431 190/432 14/433 
f 14/434 190/435 192/436 20/437 
f 20/438 192/439 194/440 195/441 
f 195/442 194/443 187/444 12/445 
f 139/446 189/447 188/448 140/449 
f 140/450 188/451 193/452 141/453 
f 141/454 193/455 191/456 142/457 
f 142/458 191/459 189/460 139/461 
f 196/462 132/463 197/464 198/465 
f 119/466 112/467 110/468 197/469 
f 132/470 131/471 119/472 197/473 
f 134/276 133/275 199/474 
f 199/474 133/275 118/251 117/250 
f 131/475 105/476 104/477 119/478 
f 200/479 201/480 202/481 203/482 
f 204/483 205/484 206/485 157/298 
f 207/486 208/487 158/299 206/485 
f 157/298 206/485 158/299 
f 209/488 210/489 211/490 212/491 
f 159/300 212/491 211/490 213/492 
f 159/300 213/492 156/297 
f 28/493 35/494 214/495 215/496 
f 214/495 216/497 215/496 
f 215/496 217/498 218/499 28/493 
f 219/500 217/498 215/496 220/501 
f 221/502 216/497 214/495 222/503 
f 223/504 224/505 222/503 214/495 
f 220/501 221/502 222/503 225/506 
f 226/507 227/508 228/509 225/506 
f 222/503 226/507 225/506 
f 220/501 225/506 229/510 219/500 
f 230/511 219/500 229/510 218/499 
f 28/493 218/499 229/510 231/512 
f 28/493 231/512 232/513 
f 28/514 232/515 233/516 234/517 
f 235/518 236/519 237/520 
f 238/521 239/522 240/523 
f 3/524 241/525 242/526 237/527 
f 3/524 237/527 236/528 
f 242/526 5/529 4/530 235/531 
f 242/526 235/531 237/527 
f 1/532 28/533 234/534 240/535 
f 1/532 240/535 239/536 
f 2/537 238/538 240/535 243/539 
f 234/534 243/539 240/535 
f 5/540 244/541 245/542 246/543 
f 247/544 248/545 249/546 250/547 
f 250/547 249/546 251/548 252/549 
f 252/549 251/548 253/550 254/551 
f 253/550 255/552 256/553 257/554 
f 254/551 253/550 257/554 246/543 
f 246/543 257/554 258/555 259/556 
f 5/540 246/543 259/556 256/553 
f 5/540 256/553 255/552 260/557 
f 260/557 261/558 262/559 263/560 
f 260/557 263/560 264/561 265/562 
f 5/540 260/557 265/562 6/563 
f 6/563 265/562 266/564 267/565 
f 268/566 6/563 267/565 
f 269/567 270/568 271/569 272/570 
f 273/571 274/572 275/573 276/574 
f 277/567 278/568 279/569 280/570 
f 281/575 282/576 266/564 265/562 
f 281/575 265/562 249/546 
f 283/577 284/578 285/579 286/580 
f 268/566 267/565 287/581 288/582 
f 289/583 268/566 288/582 
f 290/584 291/585 292/586 293/587 
f 291/588 294/589 295/590 292/591 
f 294/592 296/593 297/594 295/595 
f 296/596 290/597 293/598 297/599 
f 298/600 299/601 300/602 301/603 
f 299/604 302/605 303/606 300/607 
f 302/608 304/609 305/610 303/611 
f 304/612 298/613 301/614 305/615 
f 221/616 220/617 291/618 290/619 
f 220/620 215/621 294/622 291/623 
f 215/624 216/625 296/626 294/627 
f 216/628 221/629 290/630 296/631 
f 219/632 230/633 299/634 298/635 
f 230/636 218/637 302/622 299/623 
f 218/638 217/639 304/640 302/641 
f 217/642 219/643 298/630 304/631 
f 293/644 292/645 269/646 272/647 
f 292/648 295/649 270/650 269/651 
f 295/652 297/653 271/654 270/655 
f 297/653 293/656 272/657 271/654 
f 301/658 300/659 277/660 280/661 
f 300/662 303/663 278/664 277/665 
f 303/666 305/667 279/668 278/669 
f 305/670 301/671 280/672 279/673 
f 306/674 307/675 308/676 309/677 
f 307/678 310/679 311/680 308/681 
f 310/682 312/683 313/684 311/685 
f 312/686 306/687 309/688 313/689 
f 314/690 315/691 316/692 317/693 
f 315/694 318/695 319/696 316/697 
f 318/698 320/699 321/700 319/701 
f 320/702 314/703 317/704 321/705 
f 258/706 257/707 307/708 306/709 
f 257/710 256/711 310/712 307/713 
f 256/714 259/715 312/716 310/717 
f 259/718 258/719 306/720 312/721 
f 253/722 251/723 315/724 314/725 
f 251/726 260/727 318/728 315/729 
f 260/730 255/731 320/732 318/733 
f 255/734 253/735 314/736 320/737 
f 309/738 308/739 273/740 276/741 
f 308/742 311/743 274/744 273/745 
f 311/746 313/747 275/748 274/749 
f 313/750 309/751 276/752 275/753 
f 317/754 316/755 283/756 286/757 
f 316/758 319/759 284/760 283/761 
f 319/762 321/763 285/764 284/765 
f 321/766 317/767 286/768 285/769 
f 164/770 64/771 63/232 103/231 
f 108/772 120/773 123/774 322/775 
f 108/772 322/775 323/776 324/777 
f 108/772 324/777 99/227 98/778 
f 24/24 23/23 109/779 98/778 
f 108/772 98/778 109/779 
f 132/780 196/781 201/782 200/783 
f 111/784 132/780 200/783 121/785 
f 111/784 121/785 120/786 108/787 
f 100/228 325/788 326/789 327/790 
f 100/228 327/790 202/791 196/792 
f 202/791 201/793 196/792 
f 198/794 21/21 20/20 196/792 
f 100/228 196/792 20/20 195/795 
f 328/796 329/797 326/798 325/799 
f 121/800 200/801 203/802 122/803 
f 109/804 23/805 115/806 110/807 
f 110/807 115/806 114/808 
f 23/809 19/810 117/811 115/812 
f 129/813 128/814 116/815 118/816 
f 128/817 130/818 133/819 116/820 
f 130/821 129/813 118/816 133/822 
f 21/823 199/824 117/811 19/810 
f 197/825 134/826 199/827 198/828 
f 21/829 198/828 199/827 
f 197/825 110/807 114/808 134/826 
f 243/830 234/517 233/516 330/831 
f 331/832 332/833 333/834 
f 334/835 335/836 336/837 
f 337/838 333/839 332/840 338/841 
f 337/838 338/841 339/842 
f 332/840 331/843 340/844 338/841 
f 340/844 244/845 338/841 
f 341/846 336/847 335/848 233/849 
f 341/846 233/849 232/850 
f 335/848 334/851 342/852 330/853 
f 335/848 330/853 233/849 
f 343/568 344/569 345/570 346/567 
f 347/854 348/855 349/568 350/856 
f 351/568 352/569 353/570 354/567 
f 355/572 356/573 357/857 358/858 
f 359/859 360/860 361/861 362/862 
f 363/573 364/857 365/858 366/572 
f 367/863 368/864 369/865 370/866 
f 370/867 369/868 371/869 372/870 
f 372/871 371/872 373/873 374/874 
f 374/875 373/876 368/877 367/878 
f 375/879 376/880 377/881 378/882 
f 378/883 377/884 379/885 380/886 
f 380/887 379/888 381/889 382/890 
f 382/891 381/892 376/893 375/894 
f 222/895 367/896 370/897 226/898 
f 226/899 370/900 372/901 227/902 
f 227/903 372/904 374/905 224/906 
f 224/907 374/908 367/909 222/910 
f 225/911 375/912 378/913 229/914 
f 229/915 378/900 380/901 231/916 
f 231/917 380/918 382/919 228/920 
f 228/921 382/908 375/909 225/922 
f 368/923 344/924 343/925 369/926 
f 369/927 343/928 346/929 371/930 
f 371/645 346/646 345/647 373/644 
f 373/931 345/932 344/933 368/934 
f 376/935 352/936 351/937 377/938 
f 377/939 351/940 354/941 379/942 
f 379/943 354/944 353/945 381/946 
f 381/947 353/948 352/949 376/950 
f 383/951 384/952 385/953 386/954 
f 386/955 385/956 387/957 388/958 
f 388/959 387/960 389/961 390/962 
f 390/963 389/964 384/965 383/966 
f 391/967 392/968 393/969 394/970 
f 394/971 393/972 395/973 396/974 
f 396/975 395/976 397/977 398/978 
f 398/979 397/980 392/981 391/982 
f 246/983 383/984 386/985 254/986 
f 254/987 386/988 388/989 399/990 
f 399/991 388/992 390/993 245/994 
f 245/995 390/996 383/997 246/998 
f 252/999 391/1000 394/1001 250/1002 
f 250/1003 394/988 396/1004 400/1005 
f 400/1006 396/1007 398/1008 401/1009 
f 401/1010 398/1011 391/997 252/1012 
f 384/1013 348/1014 347/1015 385/1016 
f 385/1017 347/1018 350/1019 387/1020 
f 387/1021 350/1022 349/1023 389/1024 
f 389/1025 349/1026 348/1027 384/1028 
f 392/1029 356/1030 355/1031 393/1032 
f 393/1017 355/1033 358/1034 395/1035 
f 395/1036 358/1037 357/1038 397/1039 
f 397/1040 357/1041 356/1042 392/1043 
f 242/1044 338/1045 244/1046 5/1047 
f 248/545 402/1048 403/1049 249/546 
f 281/575 249/546 403/1049 404/1050 
f 281/575 404/1050 405/1051 406/1052 
f 407/1053 406/1052 405/1051 
f 242/1044 241/1054 339/1055 338/1045 
f 408/1056 409/1057 410/1058 411/1059 
f 409/1060 412/1061 413/1062 410/1063 
f 412/1064 414/1065 415/1066 413/1067 
f 414/1068 408/1069 411/1070 415/1071 
f 416/1072 417/1073 366/1074 365/1075 
f 417/1076 418/1077 363/1078 366/1079 
f 418/1080 419/1081 364/1082 363/1083 
f 419/1084 416/1085 365/1086 364/1087 
f 420/1088 261/558 260/557 421/1089 
f 422/1090 421/1089 260/557 423/1091 
f 424/1092 423/1091 260/557 425/1093 
f 251/548 249/546 426/1094 425/1093 
f 260/557 251/548 425/1093 
f 427/1095 428/1096 429/1097 430/1098 
f 429/1097 431/1099 430/1098 
f 430/1098 432/1100 433/1101 434/1102 
f 433/1101 435/1103 436/1104 437/1105 
f 433/1101 437/1105 438/1106 439/1107 
f 433/1101 439/1107 434/1102 
f 427/1095 430/1098 434/1102 
f 249/1108 265/1109 433/1110 432/1111 
f 265/1112 264/1113 435/1114 433/1115 
f 264/1113 263/1116 436/1117 435/1114 
f 263/1118 262/1119 437/1120 436/1121 
f 262/1119 261/1122 438/1123 437/1120 
f 261/1122 420/1124 439/1125 438/1123 
f 420/1124 421/1126 434/1127 439/1125 
f 421/1126 422/1128 427/1129 434/1127 
f 422/1128 423/1130 428/1131 427/1129 
f 423/1130 424/1132 429/1133 428/1131 
f 424/1132 425/1134 431/1135 429/1133 
f 425/1136 426/1137 430/1138 431/1139 
f 426/1137 249/1140 432/1141 430/1138 
f 440/1142 441/1143 442/1144 443/1145 
f 444/1146 445/1147 441/1148 446/1149 
f 441/1148 440/1150 446/1149 
f 447/1151 448/1152 449/1153 450/1154 
f 406/1155 407/1156 447/1151 450/1154 
f 289/1157 288/1158 449/1159 448/1160 
f 288/1158 406/1161 450/1162 449/1159 
f 281/1163 406/1164 444/1165 446/1166 
f 406/1161 288/1158 445/1167 444/1168 
f 288/1169 287/1170 441/1171 445/1172 
f 287/1173 267/1174 442/1175 441/1176 
f 267/1177 266/1178 443/1179 442/1180 
f 266/1181 282/1182 440/1183 443/1184 
f 282/1182 281/1185 446/1186 440/1183 
f 451/1187 452/1188 453/1189 454/1190 
f 402/1191 455/1192 453/1193 452/1194 
f 455/1195 404/1196 454/1197 453/1198 
f 404/1199 403/1200 451/1201 454/1202 
f 403/1203 402/1204 452/1205 451/1206 
f 405/1207 404/1208 359/1209 362/1210 
f 404/1211 455/1212 360/1213 359/1214 
f 455/1215 456/1216 361/1217 360/1218 
f 224/505 223/504 457/1219 227/508 
f 228/509 227/508 457/1219 231/512 
f 231/512 457/1219 232/513 
f 30/30 98/778 99/227 66/1220 
f 99/227 67/234 66/1220 
f 30/30 66/1220 65/1221 31/31 
f 458/1222 459/1223 460/1224 461/1225 
f 462/1226 463/1227 464/1228 465/1229 
f 466/1230 467/1231 468/1232 469/1233 
f 465/1229 470/1234 471/1235 462/1226 
f 472/1236 473/1237 474/1238 475/1239 
f 470/1234 476/1240 477/1241 471/1235 
f 478/1242 479/1243 476/1244 470/1245 
f 467/1246 466/1247 471/1248 477/1249 
f 480/1250 475/1251 462/1252 481/1253 
f 466/1247 481/1253 462/1252 471/1248 
f 475/1251 474/1254 463/1255 462/1252 
f 472/1256 475/1257 480/1258 482/1259 
f 466/1230 469/1233 483/1260 481/1261 
f 483/1262 482/1263 458/1264 461/1265 
f 482/1266 480/1267 459/1268 458/1269 
f 480/1270 481/1271 460/1272 459/1273 
f 481/1274 483/1275 461/1276 460/1277 
f 465/1278 478/1242 470/1245 
f 465/1278 464/1279 479/1243 478/1242 
f 484/1280 485/1281 486/1282 487/1283 
f 488/1284 489/1285 490/1286 491/1287 
f 492/1288 493/1289 494/1290 495/1291 
f 491/1287 496/1292 497/1293 488/1284 
f 498/1294 499/1295 500/1296 501/1297 
f 496/1292 502/1298 503/1299 497/1293 
f 504/1300 505/1301 502/1302 496/1303 
f 493/1304 492/1305 497/1306 503/1307 
f 506/1308 501/1309 488/1310 507/1311 
f 492/1305 507/1311 488/1310 497/1306 
f 501/1309 500/1312 489/1313 488/1310 
f 498/1314 501/1315 506/1316 508/1317 
f 492/1288 495/1291 509/1318 507/1319 
f 509/1320 508/1321 484/1322 487/1323 
f 508/1324 506/1325 485/1326 484/1327 
f 506/1328 507/1329 486/1330 485/1331 
f 507/1332 509/1333 487/1334 486/1335 
f 491/1336 504/1300 496/1303 
f 491/1336 490/1337 505/1301 504/1300 
f 510/1338 511/1339 512/1340 513/1341 
f 514/1342 515/1343 516/1344 
f 517/1345 518/1346 519/1347 
f 518/1348 517/1349 520/1350 521/1351 
f 514/1352 516/1353 522/1354 523/1355 
f 522/1356 521/1357 510/1358 513/1359 
f 521/1360 520/1361 511/1362 510/1363 
f 520/1364 523/1365 512/1366 511/1367 
f 523/1368 522/1369 513/1370 512/1371 
f 524/1372 525/1373 526/1374 527/1375 
f 524/1372 528/1376 529/1377 525/1373 
f 530/1375 527/1375 526/1374 531/1374 
f 520/1378 517/1379 524/1380 527/1381 
f 523/1382 520/1378 527/1381 514/1383 
f 517/1384 519/1385 528/1386 524/1387 
f 526/1388 532/1389 533/1390 531/1391 
f 515/1392 514/1393 527/1394 530/1395 
f 525/1396 532/1397 526/1398 
f 525/1399 529/1400 533/1401 532/1402 
f 534/1283 535/1403 536/1404 537/1282 
f 538/1405 539/1406 540/1407 541/1408 
f 542/1409 543/1410 544/1411 545/1412 
f 539/1406 538/1405 546/1405 547/1406 
f 548/1413 549/1414 550/1415 551/1416 
f 547/1406 546/1405 552/1408 553/1407 
f 554/1417 547/1418 553/1419 555/1420 
f 545/1421 552/1422 546/1423 542/1424 
f 542/1424 546/1423 538/1425 556/1426 
f 538/1425 549/1427 557/1428 556/1426 
f 549/1427 538/1425 541/1429 550/1430 
f 548/1431 558/1432 557/1433 549/1434 
f 542/1409 556/1435 559/1436 543/1410 
f 559/1437 535/1438 534/1439 558/1440 
f 558/1441 534/1442 537/1443 557/1444 
f 557/1445 537/1446 536/1447 556/1448 
f 556/1449 536/1450 535/1451 559/1452 
f 539/1453 547/1418 554/1417 
f 539/1453 554/1417 555/1420 540/1454 
f 560/1283 561/1280 562/1281 563/1282 
f 564/1455 565/1456 566/1457 567/1458 
f 568/1459 569/1460 570/1461 571/1462 
f 565/1456 564/1455 572/1455 573/1456 
f 574/1463 575/1464 576/1465 577/1466 
f 573/1456 572/1455 578/1458 579/1457 
f 580/1467 573/1468 579/1469 581/1470 
f 571/1471 578/1472 572/1473 568/1474 
f 568/1474 572/1473 564/1475 582/1476 
f 564/1475 575/1477 583/1478 582/1476 
f 575/1477 564/1475 567/1479 576/1480 
f 574/1431 584/1481 583/1482 575/1483 
f 568/1459 582/1484 585/1485 569/1460 
f 585/1486 561/1487 560/1488 584/1489 
f 584/1490 560/1491 563/1492 583/1493 
f 583/1494 563/1495 562/1496 582/1497 
f 582/1498 562/1499 561/1500 585/1501 
f 565/1502 573/1468 580/1467 
f 565/1502 580/1467 581/1470 566/1503 
f 71/1504 586/1505 587/1506 588/1507 
f 71/1504 588/1507 589/1508 590/1509 
s 1
f 591/1510 244/1511 232/1512 457/1513 
s off
f 592/1514 81/1515 80/1516 593/1517 
f 594/1518 595/1519 596/1520 597/1521 
f 78/1522 77/1523 594/1524 597/1525 
f 77/1526 593/1527 595/1528 594/1529 
f 593/1530 80/1531 596/1532 595/1533 
f 80/120 78/123 597/1534 596/1535 
f 74/101 72/100 158/1536 208/1537 
f 169/335 171/338 212/1538 159/1539 
f 171/338 176/1540 209/1541 212/1538 
f 176/1540 175/1542 210/1543 209/1541 
f 127/1544 126/1545 156/1546 213/1547 
f 126/1548 125/1549 157/1550 156/1551 
f 125/1552 124/1553 204/1554 157/1555 
f 76/1556 79/1557 207/1558 206/1559 
f 79/1557 74/101 208/1537 207/1558 
f 177/1560 598/1561 599/1562 178/1563 
f 600/1564 601/1521 602/1565 603/1566 
f 174/1567 173/1568 600/1569 603/1570 
f 173/358 178/357 601/1571 600/1572 
f 178/1573 599/1574 602/1575 601/1576 
f 599/1577 174/1578 603/1579 602/1580 
f 604/1581 605/1582 606/1583 167/1584 
f 607/1585 608/1586 167/1584 606/1583 
f 9/327 7/1587 604/1588 167/328 
f 598/1589 177/1590 606/1591 605/1592 
f 177/1590 172/343 607/1593 606/1591 
f 172/343 170/346 608/1594 607/1593 
f 324/1595 323/1596 609/1597 610/1598 
f 610/1599 609/1600 329/1601 328/1602 
f 611/1603 203/482 202/481 327/1604 
f 329/797 611/1603 327/1604 326/798 
f 325/799 100/1605 328/796 
f 123/263 122/262 612/1606 322/1607 
f 322/1607 612/1606 609/1597 323/1596 
f 610/1598 99/1608 324/1595 
f 612/1609 122/803 203/802 611/1610 
f 609/1600 612/1609 611/1610 329/1601 
f 328/1602 100/1611 99/1612 610/1599 
f 64/1613 613/1614 614/1615 
f 10/1616 615/1617 616/1618 164/1619 
f 164/1619 616/1618 617/1620 
f 64/1613 164/1619 617/1620 613/1614 
f 613/1614 158/1621 72/1621 614/1615 
f 169/1622 159/1622 617/1620 616/1618 
f 616/1618 615/1617 170/1623 169/1622 
s 1
f 617/1620 159/1622 158/1621 613/1614 
s off
f 618/1624 619/1625 620/1626 621/1627 
f 619/1628 622/1629 623/1630 620/1631 
f 622/1632 624/1633 625/1634 623/1635 
f 624/1636 618/1637 621/1638 625/1639 
f 626/1640 248/1641 409/1642 408/1643 
f 248/1644 247/1645 412/1646 409/1647 
f 247/1648 627/1649 414/1650 412/1651 
f 627/1652 626/1653 408/1654 414/1655 
f 417/1656 416/1657 411/1658 410/1659 
f 416/1660 419/1661 415/1662 411/1663 
f 419/1664 418/1665 413/1666 415/1667 
f 418/1668 417/1669 410/1670 413/1671 
s 1
f 336/1672 331/1673 333/1674 334/1675 
s off
f 73/109 75/108 587/1676 586/1677 
f 75/108 81/1678 588/1679 587/1676 
f 81/1678 592/1680 589/1681 588/1679 
f 37/1682 36/94 71/93 590/1683 
f 10/1616 8/1684 168/1685 615/1617 
s 1
f 167/1686 608/1687 615/1617 168/1685 
s off
f 170/346 615/1688 608/1594 
f 34/88 64/1613 614/1615 69/89 
f 614/1615 72/1621 73/1689 69/89 
s 1
f 70/90 69/89 586/1689 71/1690 
s off
f 586/1677 69/1691 73/109 
f 166/1692 101/229 100/228 165/1693 
f 165/1693 100/228 195/795 13/13 
f 13/13 195/795 12/12 
f 591/1694 626/1695 627/1696 400/1697 
f 627/1696 247/544 250/547 400/1697 
f 591/1694 400/1697 401/1698 399/1699 
f 252/549 254/551 399/1699 401/1698 
f 244/541 591/1694 399/1699 245/542 
f 591/1694 456/1700 455/1701 402/1048 
f 626/1695 591/1694 402/1048 248/545 
f 628/1702 629/1703 630/1704 631/1705 
f 632/1343 633/1706 634/1342 
f 635/1347 636/1345 637/1707 
f 637/1708 638/1709 639/1710 635/1711 
f 632/1712 640/1713 641/1714 633/1715 
f 641/1716 629/1717 628/1718 638/1719 
f 638/1720 628/1721 631/1722 639/1723 
f 639/1724 631/1725 630/1726 640/1727 
f 640/1728 630/1729 629/1730 641/1731 
f 642/1732 643/1733 644/1734 645/1735 
f 642/1732 645/1735 646/1735 647/1736 
f 648/1737 649/1738 644/1734 643/1733 
f 642/1739 635/1740 639/1741 643/1742 
f 643/1742 639/1741 640/1743 632/1744 
f 635/1740 642/1739 647/1745 636/1746 
f 644/1747 649/1748 650/1749 651/1750 
f 634/1751 648/1752 643/1742 632/1744 
f 645/1753 644/1747 651/1754 
f 645/1755 651/1756 650/1757 646/1758 
s 1
f 2/1759 243/1760 652/1761 3/1762 
f 241/1763 3/1762 652/1761 653/1764 
s off
f 243/1765 330/1766 654/1767 652/1768 
s 1
f 342/1769 337/1770 339/1760 655/1761 
f 330/1763 342/1769 655/1761 654/1764 
s off
f 241/1766 653/1767 655/1771 339/1765 
f 656/1772 657/1773 658/1774 659/1775 
f 660/1776 661/1777 662/1778 663/1779 
f 664/1780 665/1781 666/1782 667/1783 
f 124/1784 127/1785 665/1786 664/1787 
f 127/1788 668/1789 666/1790 665/1791 
f 668/1792 669/1793 670/1794 666/1795 
f 669/1796 671/1797 672/1798 670/1799 
f 673/1800 674/1801 675/1802 676/1803 
f 674/1804 677/1805 667/1806 675/1807 
f 677/1808 124/1809 664/1810 667/1811 
f 667/1812 666/1813 659/1814 658/1815 
f 666/1795 670/1794 656/1816 659/1817 
f 678/1818 679/1819 660/1820 663/1821 
f 680/1822 681/1823 662/1824 661/1825 
f 675/1807 667/1806 658/1826 657/1827 
f 657/1828 656/1829 663/1830 662/1831 
f 656/1832 670/1833 678/1834 663/1835 
f 670/267 672/267 679/267 678/267 
f 676/264 675/264 681/264 680/264 
f 675/1836 657/1837 662/1838 681/1839 
s 1
f 652/1840 682/1841 683/1841 653/1842 
s off
f 684/1841 682/1841 652/1842 654/1840 
s 1
f 655/1840 685/1841 684/1841 654/1842 
s off
f 653/1840 683/1841 685/1841 655/1842 
# 577 polygons - 59 triangles

