# 3ds Max Wavefront OBJ Exporter v0.97b - (c)2007 guruware
# File Created: 22.10.2011 01:00:27

mtllib Vene_11a.mtl

#
# object Vene11a
#

v  114.581268 103.705170 12.032387
v  112.484360 93.882187 12.032387
v  119.390793 92.758621 12.032387
v  120.998543 102.473557 12.032387
v  119.390793 92.758621 7.674571
v  119.390793 92.758621 10.096796
v  112.484360 93.882187 7.674571
v  119.635063 94.234642 8.144243
v  119.635063 94.234642 8.810936
v  114.581268 103.705170 7.674571
v  114.581268 103.705170 11.770695
v  120.998543 102.473557 11.770695
v  120.998543 102.473557 7.674571
v  119.342445 92.461472 11.984055
v  112.436020 93.585037 11.984055
v  112.436020 93.585037 11.770695
v  119.342445 92.461472 11.770695
v  120.998543 102.473557 11.984055
v  119.390793 92.758621 11.984055
v  119.390793 92.758621 11.770695
v  114.581268 103.705170 11.984055
v  112.484360 93.882187 11.984055
v  112.484360 93.882187 11.770695
v  117.932198 93.122124 11.299810
v  116.498688 93.355331 11.299810
v  116.498688 93.355331 10.565253
v  117.932198 93.122124 10.565253
v  119.964584 96.225777 10.096796
v  120.331017 98.439987 10.096796
v  119.342445 92.461472 12.032387
v  112.436020 93.585037 12.032387
v  121.050835 102.464905 12.032387
v  119.443077 92.749977 12.032387
v  119.443077 92.749977 11.984055
v  121.050835 102.464905 11.984055
v  119.394737 92.452820 12.032387
v  119.394737 92.452820 11.984055
v  116.478683 93.232376 10.565253
v  116.478683 93.232376 11.299810
v  117.912193 92.999168 10.565253
v  117.912193 92.999168 11.299810
v  120.208115 98.460327 7.674571
v  120.208115 98.460327 10.096796
v  119.841675 96.246117 10.096796
v  119.841675 96.246117 7.674571
v  120.331017 98.439987 7.674571
v  119.964584 96.225777 7.674571
v  119.873795 95.677208 8.810936
v  119.873795 95.677208 8.144243
v  119.750893 95.697548 8.810936
v  119.512154 94.254982 8.810936
v  119.512154 94.254982 8.144243
v  119.750893 95.697548 8.144243
v  114.581268 103.705170 7.499513
v  112.484360 93.882187 7.499513
v  120.998543 102.473557 7.499513
v  120.331017 98.439987 7.499513
v  119.390793 92.758621 7.499513
v  119.841675 96.246117 7.499513
v  120.208115 98.460327 7.499513
v  119.964584 96.225777 7.499513
# 61 vertices

vn 0.000000 0.000000 1.000000
vn -0.160573 -0.987024 0.000000
vn -0.160573 -0.987024 -0.000000
vn 0.986581 -0.163272 -0.000000
vn 0.986581 -0.163272 0.000000
vn 0.188482 0.982077 0.000000
vn -0.977966 0.208766 0.000000
vn -0.161447 -0.986881 0.000000
vn 0.986803 -0.161923 0.000000
vn 0.986730 -0.162373 0.000000
vn 0.180066 0.983654 0.000000
vn -0.982790 0.184725 0.000000
vn -0.981247 0.192753 0.000000
vn -0.161884 -0.986810 0.000000
vn 0.175853 0.984416 0.000000
vn -0.987024 0.160573 0.000000
vn 0.000000 0.000000 -1.000000
vn 0.987024 -0.160573 0.000000
vn -0.163195 -0.986594 0.000000
vn 0.163195 0.986594 0.000000
vn 0.987024 -0.160574 0.000000
vn -0.987024 0.160574 0.000000
vn 0.163272 0.986581 0.000000
vn -0.163272 -0.986581 0.000000
vn -0.977965 0.208766 0.000000
# 25 vertex normals

vt 4.437129 3.120403 0.609375
vt -2.252416 3.418873 0.718750
vt -2.231638 -1.245900 0.484375
vt 4.333065 -1.234615 0.406250
vt 1.000000 0.000000 0.000000
vt 1.000000 0.250000 0.000000
vt 0.000000 0.125000 0.000000
vt 0.125000 0.062500 0.000000
vt 0.125000 0.125000 0.000000
vt 0.062500 0.250000 0.000000
vt 0.062500 0.000000 0.000000
vt 1.000000 0.375000 0.000000
vt 0.000000 0.375000 0.000000
vt 0.000000 0.000000 0.000000
vt 1.000000 0.125000 0.000000
vt 1.000000 0.750000 0.000000
vt 0.000000 0.750000 0.000000
vt 0.000000 0.500000 0.000000
vt 1.000000 0.500000 0.000000
vt 0.999501 0.999500 0.125000
vt 0.000500 0.999500 -0.062500
vt 0.000500 0.000500 0.875000
vt 0.999501 0.000499 1.062500
vt 0.375000 0.250000 0.000000
vt 0.750000 0.250000 0.000000
vt 1.000000 1.000000 0.000000
vt 0.000000 1.000000 0.000000
vt -2.453120 3.417979 0.718750
vt -2.432342 -1.246794 0.500000
vt -2.231575 -1.281233 0.484375
vt 4.333129 -1.269948 0.406250
vt -2.432278 -1.282127 0.484375
vt 0.000000 0.250000 0.000000
vt 0.999500 0.000500 0.000669
vt 0.999500 0.999500 0.000502
vt 0.000500 0.999500 0.000509
vt 0.000500 0.000500 0.000677
vt 0.750000 0.000000 0.000000
vt 0.000500 0.999500 0.999332
vt 0.000500 0.000500 0.999500
vt 0.999500 0.000500 0.999491
vt 0.999500 0.999500 0.999323
vt 0.375000 0.000000 0.000000
vt 0.250000 0.125000 0.000000
vt 0.250000 0.062500 0.000000
vt 0.999501 0.999500 0.031250
vt 0.000500 0.999501 0.125000
vt 0.000499 0.000500 1.031250
vt 0.999501 0.000499 0.937500
# 49 texture coords

g Vene11a
usemtl Roof
f -61/-49/-25 -60/-48/-25 -59/-47/-25 -58/-46/-25 
usemtl Walls
f -57/-45/-24 -56/-44/-23 -55/-43/-23 
f -54/-42/-22 -53/-41/-21 -56/-40/-21 -57/-39/-22 
f -52/-45/-20 -51/-38/-20 -50/-37/-20 -49/-36/-20 
f -52/-36/-19 -55/-35/-19 -51/-37/-19 
usemtl White
f -48/-34/-18 -47/-33/-24 -46/-32/-24 -45/-31/-24 
f -44/-34/-21 -43/-33/-17 -42/-32/-16 -50/-38/-21 
usemtl Walls
f -41/-34/-20 -44/-33/-15 -50/-37/-20 -51/-38/-20 
f -40/-34/-14 -41/-33/-19 -51/-37/-19 -39/-31/-13 
usemtl Window
f -38/-30/-24 -37/-29/-24 -36/-28/-24 -35/-27/-24 
usemtl Walls
f -42/-32/-16 -34/-26/-21 -33/-25/-21 -50/-38/-21 
f -55/-35/-19 -39/-31/-13 -51/-37/-19 
usemtl Grey_Trim
f -32/-24/-12 -31/-23/-24 -47/-33/-24 -48/-34/-18 
f -30/-24/-21 -29/-23/-17 -28/-33/-17 -27/-34/-21 
usemtl Walls
f -61/-24/-20 -58/-23/-11 -44/-33/-15 -41/-34/-20 
f -60/-24/-14 -61/-23/-19 -41/-33/-19 -40/-34/-14 
usemtl Roof
f -59/-47/-25 -60/-48/-25 -31/-22/-25 -32/-21/-25 
usemtl Grey_Trim
f -60/-24/-14 -40/-34/-14 -47/-33/-10 -31/-23/-10 
usemtl White
f -40/-34/-14 -39/-31/-13 -46/-32/-10 -47/-33/-10 
f -39/-32/-9 -42/-31/-9 -45/-31/-9 -46/-32/-9 
f -42/-32/-16 -43/-33/-17 -48/-34/-8 -45/-31/-8 
usemtl Grey_Trim
f -28/-33/-17 -29/-23/-17 -26/-24/-8 -25/-34/-8 
usemtl Roof
f -58/-46/-25 -59/-47/-25 -29/-20/-25 -30/-19/-25 
f -59/-47/-25 -32/-21/-25 -26/-18/-25 -29/-20/-25 
usemtl Grey_Trim
f -32/-24/-12 -48/-34/-18 -25/-34/-7 -26/-24/-7 
f -48/-34/-9 -43/-33/-9 -28/-33/-9 -25/-34/-9 
f -43/-33/-9 -44/-34/-9 -27/-34/-9 -28/-33/-9 
f -44/-33/-15 -58/-23/-11 -30/-24/-6 -27/-34/-6 
usemtl Walls
f -39/-31/-24 -55/-35/-23 -24/-17/-23 -23/-32/-24 
f -55/-43/-23 -56/-44/-23 -22/-44/-23 -24/-17/-23 
f -56/-40/-23 -42/-32/-24 -21/-31/-23 -22/-44/-23 
f -42/-31/-24 -39/-32/-24 -23/-32/-24 -21/-31/-23 
f -23/-32/-5 -24/-17/-5 -36/-17/-5 -37/-32/-5 
f -24/-17/-25 -22/-44/-25 -35/-44/-25 -36/-17/-25 
f -22/-44/-4 -21/-31/-4 -38/-31/-4 -35/-44/-4 
f -21/-31/-9 -23/-32/-9 -37/-32/-9 -38/-31/-9 
usemtl Door
f -20/-16/-21 -19/-15/-21 -18/-14/-21 -17/-13/-21 
usemtl Walls
f -49/-45/-21 -50/-38/-21 -33/-25/-21 -16/-12/-21 
f -34/-11/-3 -15/-10/-3 -17/-13/-3 -18/-14/-3 
f -16/-9/-2 -33/-8/-2 -19/-15/-2 -20/-16/-2 
f -33/-8/-9 -34/-11/-9 -18/-14/-9 -19/-15/-9 
f -15/-7/-22 -34/-26/-21 -14/-6/-21 -13/-5/-22 
f -15/-7/-22 -13/-5/-22 -54/-42/-22 -57/-39/-22 
f -34/-26/-21 -56/-40/-21 -53/-41/-21 -14/-6/-21 
usemtl Grill
f -12/-4/-21 -11/-3/-21 -10/-2/-21 -9/-1/-21 
usemtl Walls
f -14/-6/-9 -53/-41/-9 -11/-41/-9 -12/-6/-9 
f -53/-41/-3 -54/-42/-3 -10/-42/-3 -11/-41/-3 
f -54/-42/-25 -13/-5/-25 -9/-5/-25 -10/-42/-25 
f -13/-5/-2 -14/-6/-2 -12/-6/-2 -9/-5/-2 
f -42/-32/-16 -56/-40/-21 -34/-26/-21 
f -55/-35/-1 -52/-36/-1 -8/-36/-1 -7/-35/-1 
f -52/-45/-20 -49/-36/-20 -6/-36/-20 -8/-45/-20 
f -49/-45/-21 -16/-12/-21 -5/-12/-21 -6/-45/-21 
f -57/-45/-24 -55/-43/-24 -7/-43/-24 -4/-45/-24 
f -20/-16/-21 -17/-13/-21 -3/-13/-21 -2/-16/-21 
f -17/-13/-3 -15/-10/-3 -1/-10/-3 -3/-13/-3 
f -16/-9/-2 -20/-16/-2 -2/-16/-2 -5/-9/-2 
f -15/-7/-21 -57/-39/-21 -4/-39/-21 -1/-7/-21 
# 54 polygons - 4 triangles

