# 3ds Max Wavefront OBJ Exporter v0.97b - (c)2007 guruware
# File Created: 03.04.2011 01:22:57

mtllib Kiriku-6_3.mtl

#
# object Kiriku_6_3
#

v  -347.228149 50.038754 53.194466
v  -339.384247 52.529343 53.097939
v  -348.403503 56.617439 48.908298
v  -341.560822 58.579506 48.864201
v  -348.714569 56.542694 48.909599
v  -348.714569 56.542694 46.417507
v  -348.714569 56.542694 47.290146
v  -341.560822 58.579506 46.199650
v  -341.560822 58.579506 47.290146
v  -347.539276 49.963989 53.194599
v  -347.539276 49.963989 47.290146
v  -339.384247 52.529343 46.364201
v  -347.539215 49.963989 46.365150
v  -347.888763 51.920433 50.859501
v  -347.606689 50.341408 50.859501
v  -347.561584 50.089016 46.365150
v  -347.561584 50.089016 47.290146
v  -347.561584 50.089016 48.909599
v  -347.606689 50.341408 49.244900
v  -348.564514 55.702969 48.909599
v  -348.313568 54.298019 48.909599
v  -348.062531 52.892994 48.909599
v  -347.917389 52.080505 48.909599
v  -347.888763 51.920395 49.244900
v  -347.917358 52.080570 46.417507
v  -347.917389 52.080585 47.290146
v  -348.055206 52.852077 46.417507
v  -348.058624 52.871086 47.290146
v  -348.316406 54.314186 46.417507
v  -348.571564 55.742252 47.290146
v  -348.577637 55.776325 46.417507
v  -347.403931 49.189415 48.909599
v  -348.655762 56.194382 48.909599
v  -347.722961 49.132439 48.784801
v  -348.974091 56.133411 48.784801
v  -347.575104 50.164707 50.859501
v  -347.931061 52.157177 50.859501
v  -347.786865 50.126896 50.786900
v  -348.142395 52.117085 50.786900
v  -347.228149 50.038769 53.217800
v  -348.406342 56.633350 48.933559
v  -348.717377 56.558609 48.934860
v  -347.539276 49.963989 53.217934
v  -347.842896 51.928638 50.859501
v  -347.560791 50.349621 50.859501
v  -347.515656 50.097221 46.365150
v  -347.515656 50.097221 47.385300
v  -347.515656 50.097221 48.909599
v  -347.560791 50.349621 49.244900
v  -348.518616 55.711174 48.909599
v  -348.267609 54.306229 48.909599
v  -348.016632 52.901199 48.909599
v  -347.871490 52.088711 48.909599
v  -347.842834 51.928604 49.244900
v  -347.871490 52.088768 46.417507
v  -347.871490 52.088791 47.385300
v  -348.009338 52.860275 46.417507
v  -348.012726 52.879284 47.385300
v  -348.270538 54.322392 46.417507
v  -348.525665 55.750465 47.385300
v  -348.531769 55.784531 46.417507
v  -347.228149 50.038784 46.365112
# 62 vertices

vn -0.135500 0.536300 0.833100
vn -0.137300 0.534300 0.834100
vn -0.137300 0.534300 0.834100
vn -0.137300 0.534300 0.834100
vn -0.137300 0.534300 0.834100
vn -0.139000 0.532300 0.835000
vn -0.261500 0.965200 0.000000
vn -0.261500 0.965200 0.000000
vn -0.261500 0.965200 0.000000
vn -0.261500 0.965200 0.000000
vn -0.261500 0.965200 0.000000
vn -0.261500 0.965200 -0.000000
vn 0.245000 -0.969500 0.000000
vn 0.245100 -0.969500 0.000000
vn 0.209030 -0.977909 0.000000
vn 0.245000 -0.969500 -0.000000
vn 0.245100 -0.969500 0.000000
vn 0.306354 -0.951918 -0.000003
vn 0.952600 0.304100 0.000000
vn 0.952600 0.304100 0.000000
vn 0.952600 0.304100 0.000000
vn 0.952600 0.304100 0.000000
vn 0.952600 0.304100 0.000000
vn 0.952600 0.304100 0.000000
vn 0.952600 0.304100 0.000000
vn 0.952600 0.304100 0.000000
vn 0.952600 0.304100 0.000000
vn -0.984416 -0.175854 -0.000003
vn -0.984416 -0.175854 -0.000003
vn -0.980400 -0.197200 0.000000
vn -0.980400 -0.197200 0.000000
vn -0.980400 -0.197200 0.000000
vn -0.980400 -0.197300 -0.000000
vn -0.980400 -0.197300 -0.000000
vn -0.980400 -0.197200 0.000000
vn -0.980400 -0.197300 0.000000
vn -0.980400 -0.197300 0.000000
vn -0.980400 -0.197200 -0.000000
vn -0.980400 -0.197200 -0.000000
vn -0.980400 -0.197200 -0.000000
vn -0.980400 -0.197200 -0.000000
vn -0.980400 -0.197200 -0.000000
vn -0.984407 -0.175909 -0.000086
vn -0.980300 -0.197300 0.000100
vn -0.980300 -0.197300 -0.000100
vn -0.980300 -0.197300 0.000100
vn -0.980300 -0.197500 -0.000300
vn -0.980300 -0.197300 -0.000100
vn -0.980300 -0.197500 -0.000300
vn -0.980300 -0.197400 -0.000400
vn -0.980300 -0.197300 -0.000100
vn -0.980300 -0.197400 -0.000400
vn -0.980300 -0.197400 -0.000400
vn -0.980300 -0.197400 -0.000400
vn -0.980300 -0.197400 -0.000400
vn -0.984412 -0.175876 0.000004
vn -0.980300 -0.197400 -0.000400
vn -0.984419 -0.175840 0.000000
vn -0.984419 -0.175840 0.000000
vn -0.984419 -0.175840 0.000000
vn -0.984413 -0.175873 -0.000033
vn -0.984413 -0.175873 -0.000033
vn -0.984413 -0.175873 -0.000033
vn -0.980400 -0.196900 -0.000600
vn -0.980400 -0.196800 -0.000300
vn -0.980400 -0.196800 -0.000300
vn -0.980400 -0.196800 -0.000300
vn -0.980400 -0.196800 -0.000300
vn -0.980500 -0.196700 -0.000100
vn -0.984410 -0.175887 0.000000
vn -0.984410 -0.175887 0.000000
vn -0.984410 -0.175887 0.000000
vn -0.984410 -0.175887 0.000000
vn -0.984410 -0.175887 0.000000
vn -0.984410 -0.175887 0.000000
vn -0.984411 -0.175882 0.000004
vn -0.984411 -0.175882 0.000004
vn -0.984411 -0.175882 0.000004
vn -0.984409 -0.175892 -0.000009
vn -0.984409 -0.175892 -0.000009
vn -0.984409 -0.175892 -0.000009
vn -0.980400 -0.197200 0.000300
vn -0.980300 -0.197400 0.000300
vn -0.980300 -0.197300 0.000300
vn -0.980300 -0.197300 0.000300
vn -0.980300 -0.197400 0.000300
vn -0.980300 -0.197400 0.000300
vn -0.984415 -0.175861 0.000008
vn -0.984415 -0.175861 0.000008
vn -0.984415 -0.175861 0.000008
vn -0.984415 -0.175863 0.000006
vn -0.984415 -0.175863 0.000006
vn -0.984415 -0.175863 0.000006
vn -0.984418 -0.175844 0.000017
vn -0.984418 -0.175844 0.000017
vn -0.984418 -0.175844 0.000017
vn -0.984413 -0.175875 0.000017
vn -0.984413 -0.175875 0.000017
vn -0.984412 -0.175875 0.000017
vn -0.984412 -0.175879 0.000019
vn -0.984412 -0.175879 0.000019
vn -0.984412 -0.175879 0.000019
vn -0.984412 -0.175878 0.000018
vn -0.984412 -0.175878 0.000018
vn -0.984412 -0.175878 0.000018
vn -0.980400 -0.196900 0.000200
vn -0.984406 -0.175909 0.000018
vn -0.980400 -0.196900 0.000100
vn -0.980400 -0.196900 0.000100
vn -0.984413 -0.175873 0.000000
vn -0.980500 -0.196700 0.000000
vn -0.984410 -0.175886 -0.000031
vn -0.980300 -0.197400 -0.000100
vn -0.984410 -0.175886 -0.000031
vn -0.112432 0.527024 0.842381
vn -0.112432 0.527024 0.842381
vn -0.112432 0.527024 0.842381
vn -0.110716 0.527453 0.842339
vn -0.110716 0.527453 0.842339
vn -0.110716 0.527453 0.842339
vn -0.548100 -0.110400 0.829100
vn -0.548100 -0.110400 0.829100
vn -0.548100 -0.110400 0.829100
vn -0.548100 -0.110400 0.829100
vn -0.548100 -0.110400 0.829100
vn -0.548100 -0.110400 0.829100
vn -0.548100 -0.110400 0.829100
vn -0.548100 -0.110400 0.829100
vn -0.548100 -0.110400 0.829100
vn -0.548100 -0.110400 0.829100
vn -0.548100 -0.110400 0.829100
vn -0.548000 -0.110400 0.829100
vn -0.261500 0.965200 0.000000
vn -0.273837 0.961776 0.000000
vn -0.261500 0.965200 -0.000000
vn -0.198938 0.934191 0.296160
vn -0.261500 0.965200 -0.000000
vn -0.261500 0.965200 -0.000000
vn -0.261500 0.965200 -0.000000
vn -0.261500 0.965200 0.000000
vn -0.261500 0.965200 -0.000000
vn -0.980400 -0.197300 0.000000
vn -0.980400 -0.197300 -0.000000
vn -0.980400 -0.197300 -0.000000
vn -0.980400 -0.197300 -0.000000
vn -0.980400 -0.197300 -0.000000
vn -0.980400 -0.197300 -0.000000
vn -0.980300 -0.197400 0.000300
vn -0.980300 -0.197400 0.000300
vn -0.980300 -0.197400 0.000300
vn -0.980300 -0.197400 0.000300
vn -0.980300 -0.197400 0.000300
vn -0.980300 -0.197400 0.000300
vn -0.980400 -0.196900 0.000100
vn -0.980500 -0.196700 0.000000
vn -0.980500 -0.196600 0.000100
vn -0.980500 -0.196600 0.000100
vn -0.980500 -0.196700 0.000000
vn -0.980500 -0.196500 0.000000
vn 0.984424 0.175808 -0.000107
vn 0.984424 0.175808 -0.000107
vn 0.984424 0.175808 -0.000107
vn 0.984419 0.175839 -0.000057
vn 0.984419 0.175839 -0.000057
vn 0.984419 0.175839 -0.000057
vn 0.208991 -0.977917 0.000320
vn 0.208991 -0.977917 0.000320
vn 0.208991 -0.977917 0.000320
vn 0.209004 -0.977915 0.000000
vn 0.209004 -0.977915 0.000000
vn 0.209004 -0.977915 0.000000
vn -0.984414 -0.175867 0.000000
vn -0.984414 -0.175867 0.000000
vn -0.984414 -0.175867 0.000000
vn -0.984525 -0.175243 0.000982
vn -0.984525 -0.175243 0.000982
vn -0.984525 -0.175243 0.000982
vn -0.177304 0.823671 -0.538637
vn -0.177304 0.823671 -0.538637
vn -0.177304 0.823671 -0.538637
vn -0.177306 0.823687 -0.538612
vn -0.177306 0.823687 -0.538612
vn -0.177306 0.823687 -0.538612
vn 0.000000 0.000000 -1.000000
vn 0.000000 0.000000 -1.000000
vn 0.000000 0.000000 -1.000000
vn 0.000000 0.000000 -1.000000
vn 0.000000 0.000000 -1.000000
vn 0.000000 0.000000 -1.000000
vn -0.175870 0.984413 0.000000
vn -0.175870 0.984413 0.000000
vn -0.175870 0.984413 0.000000
vn -0.175870 0.984413 0.000000
vn -0.175870 0.984413 0.000000
vn -0.175870 0.984413 0.000000
vn -0.176142 0.984365 0.000000
vn -0.176142 0.984365 0.000000
vn -0.176142 0.984365 0.000000
vn -0.176142 0.984365 0.000000
vn -0.176142 0.984365 0.000000
vn -0.176142 0.984365 0.000000
vn 0.000000 0.000000 -1.000000
vn 0.000000 0.000000 -1.000000
vn 0.000000 0.000000 -1.000000
vn 0.000000 0.000000 -1.000000
vn 0.000000 0.000000 -1.000000
vn 0.000000 0.000000 -1.000000
vn 0.000000 0.000000 -1.000000
vn 0.000000 0.000000 -1.000000
vn 0.000000 0.000000 -1.000000
vn 0.000000 0.000000 -1.000000
vn 0.000000 0.000000 -1.000000
vn 0.000000 0.000000 -1.000000
vn 0.175949 -0.984399 0.000023
vn 0.175949 -0.984399 0.000023
vn 0.175949 -0.984399 0.000023
vn 0.176097 -0.984373 0.000028
vn 0.176097 -0.984373 0.000028
vn 0.176097 -0.984373 0.000028
vn 0.000000 0.000000 1.000000
vn 0.000000 0.000000 1.000000
vn 0.000000 0.000000 1.000000
vn 0.000000 0.000000 1.000000
vn 0.000000 0.000000 1.000000
vn 0.000000 0.000000 1.000000
vn 0.000000 0.000000 -1.000000
vn 0.000000 0.000000 -1.000000
vn 0.000000 0.000000 -1.000000
vn 0.000000 0.000000 -1.000000
vn 0.000000 0.000000 -1.000000
vn 0.000000 0.000000 -1.000000
vn 0.004550 -0.025468 0.999665
vn 0.004550 -0.025468 0.999665
vn 0.004550 -0.025468 0.999665
vn 0.004552 -0.025467 0.999665
vn 0.004552 -0.025467 0.999665
vn 0.004552 -0.025467 0.999665
vn -0.175870 0.984413 0.000000
vn -0.175870 0.984413 0.000000
vn -0.175870 0.984413 0.000000
vn -0.175870 0.984413 0.000000
vn -0.175870 0.984413 0.000000
vn -0.175870 0.984413 0.000000
vn 0.175938 -0.984401 0.000023
vn 0.175938 -0.984401 0.000023
vn 0.175938 -0.984401 0.000023
vn 0.175936 -0.984402 0.000023
vn 0.175936 -0.984402 0.000023
vn 0.175936 -0.984402 0.000023
vn 0.176081 -0.984376 -0.000049
vn 0.176081 -0.984376 -0.000049
vn 0.176081 -0.984376 -0.000049
vn 0.175983 -0.984393 -0.000052
vn 0.175983 -0.984393 -0.000052
vn 0.175983 -0.984393 -0.000052
vn -0.131196 0.991110 -0.022103
vn -0.131196 0.991110 -0.022103
vn -0.131196 0.991110 -0.022103
vn -0.175903 0.984205 -0.019947
vn -0.175903 0.984205 -0.019947
vn -0.175903 0.984205 -0.019947
vn 0.000000 0.000000 1.000000
vn 0.000000 0.000000 1.000000
vn 0.000000 0.000000 1.000000
vn 0.000000 0.000000 1.000000
vn 0.000000 0.000000 1.000000
vn 0.000000 0.000000 1.000000
vn -0.175967 0.984300 -0.013740
vn -0.175967 0.984300 -0.013740
vn -0.175967 0.984300 -0.013740
vn -0.146404 0.989117 -0.014596
vn -0.146404 0.989117 -0.014596
vn -0.146404 0.989117 -0.014596
vn 0.225297 -0.973979 -0.024607
vn 0.225297 -0.973979 -0.024607
vn 0.225297 -0.973979 -0.024607
vn 0.175923 -0.984056 -0.026179
vn 0.175923 -0.984056 -0.026179
vn 0.175923 -0.984056 -0.026179
vn 0.175958 -0.983600 -0.039630
vn 0.175958 -0.983600 -0.039630
vn 0.175958 -0.983600 -0.039630
vn 0.247162 -0.968318 -0.035643
vn 0.247162 -0.968318 -0.035643
vn 0.247162 -0.968318 -0.035643
vn 0.000000 0.000000 1.000000
vn 0.000000 0.000000 1.000000
vn 0.000000 0.000000 1.000000
vn 0.000000 0.000000 1.000000
vn 0.000000 0.000000 1.000000
vn 0.000000 0.000000 1.000000
vn 0.209052 -0.977904 0.000014
vn 0.209052 -0.977904 0.000014
vn 0.209052 -0.977905 0.000014
vn 0.306352 -0.951918 0.000000
vn 0.306352 -0.951918 0.000000
vn 0.306352 -0.951918 0.000000
vn 0.208991 -0.977918 -0.000003
vn 0.208991 -0.977918 -0.000003
vn 0.208991 -0.977918 -0.000003
# 300 vertex normals

vt 2.798700 5.417200 0.000000
vt -5.726200 5.417200 0.000000
vt 2.798700 -4.271600 0.000000
vt -4.786500 -4.271600 0.000000
vt 0.375000 0.250000 0.000000
vt 0.382200 0.250000 0.000000
vt 0.375000 0.264200 0.000000
vt 0.375000 0.500000 0.000000
vt 0.375000 0.383400 0.000000
vt 0.625000 0.500000 0.000000
vt 0.625000 0.383300 0.000000
vt 0.375000 0.840100 0.000000
vt 0.375000 0.791800 0.000000
vt 0.625000 0.750000 0.000000
vt 0.375000 0.750000 0.000000
vt 0.625000 1.000000 0.000000
vt 0.375000 1.000000 0.000000
vt 0.375000 0.898600 0.000000
vt 0.382300 1.000000 0.000000
vt 0.375000 0.895500 0.000000
vt 0.625000 0.250000 0.000000
vt 0.625000 0.000000 0.000000
vt 0.875000 0.000000 0.000000
vt 0.758300 0.250000 0.000000
vt 0.875000 0.250000 0.000000
vt 0.370300 0.148600 0.000000
vt 0.340600 0.104300 0.000000
vt 0.273600 0.000000 0.000000
vt 0.270500 0.000000 0.000000
vt 0.305500 0.052100 0.000000
vt 0.125000 0.035300 0.000000
vt 0.125000 0.000000 0.000000
vt 0.179700 0.039100 0.000000
vt 0.166800 0.000000 0.000000
vt 0.215100 0.000000 0.000000
vt 0.242900 0.043400 0.000000
vt 0.259000 0.053300 0.000000
vt 0.369000 0.240600 0.000000
vt 0.350900 0.212300 0.000000
vt 0.341900 0.198200 0.000000
vt 0.332900 0.184200 0.000000
vt 0.323000 0.168800 0.000000
vt 0.325300 0.157200 0.000000
vt 0.740200 -0.961900 0.000000
vt 0.740200 -0.171300 0.000000
vt 0.193600 -0.961500 0.000000
vt 0.193600 -0.170800 0.000000
vt 1.848500 -0.904100 0.000000
vt 1.860400 -0.516000 0.000000
vt 1.203200 -0.899000 0.000000
vt 1.874100 -0.067300 0.000000
vt 1.207900 -0.509300 0.000000
vt 1.213400 -0.058800 0.000000
vt 0.125000 0.108500 0.000000
vt 0.216900 0.136500 0.000000
vt 0.125000 0.131800 0.000000
vt 0.221400 0.156100 0.000000
vt 1.525800 -0.901600 0.000000
vt 1.543800 -0.063000 0.000000
vt 0.229800 0.197800 0.000000
vt 0.360800 0.250000 0.000000
vt 0.241600 0.250000 0.000000
vt 0.375000 0.000000 0.000000
vt 0.382300 0.000000 0.000000
vt 1.144900 0.993000 0.000000
vt -0.145000 0.993000 0.000000
vt 1.145000 0.009100 0.000000
vt -0.144900 0.009100 0.000000
vt 0.125000 0.185300 0.000000
vt 0.125000 0.250000 0.000000
vt 0.382300 0.000000 0.000000
vt 0.382200 0.250000 0.000000
vt 0.375000 0.000000 0.000000
vt 0.375000 0.250000 0.000000
vt 0.193600 -0.170800 0.000000
vt 0.740200 -0.171300 0.000000
vt 0.193600 -0.961500 0.000000
vt 0.740200 -0.961900 0.000000
vt 1.848500 -0.904100 0.000000
vt 1.860400 -0.516000 0.000000
vt 1.203200 -0.899000 0.000000
vt 1.874100 -0.067300 0.000000
vt 1.213400 -0.058800 0.000000
vt 1.207900 -0.509300 0.000000
vt 1.543800 -0.063000 0.000000
vt 1.525800 -0.901600 0.000000
vt 0.384652 0.750000 0.000000
vt 0.385101 0.790111 0.000000
vt 0.384925 0.836523 0.000000
vt 0.385316 0.846698 0.000000
# 90 texture coords

g Kiriku_6_3
usemtl k6_3_lambert13SG
s off
f -62/-90/-300 -61/-89/-299 -60/-88/-298 
f -60/-88/-297 -61/-89/-296 -59/-87/-295 
usemtl Kiriku_4_Downside
f -57/-83/-294 -56/-82/-293 -55/-81/-292 
f -55/-81/-291 -56/-82/-290 -54/-80/-289 
usemtl xxx
f -53/-79/-288 -52/-78/-287 -1/-3/-286 
f -61/-75/-285 -62/-72/-284 -1/-1/-283 
f -59/-70/-282 -61/-69/-281 -51/-68/-280 
f -59/-70/-279 -51/-68/-278 -54/-67/-277 
f -54/-67/-276 -51/-68/-275 -55/-66/-274 
usemtl Kiriku_4_Walls
f -53/-62/-273 -49/-64/-272 -48/-61/-271 
usemtl Kiriku_4_Downside
f -47/-60/-270 -50/-59/-269 -46/-58/-268 
f -46/-58/-267 -50/-59/-266 -52/-57/-265 
usemtl Kiriku_4_Walls
f -53/-56/-264 -48/-61/-263 -45/-55/-262 
f -48/-61/-261 -44/-54/-260 -45/-55/-259 
f -58/-53/-258 -43/-52/-257 -49/-65/-256 
f -43/-52/-255 -42/-51/-254 -49/-65/-253 
f -42/-51/-252 -41/-50/-251 -49/-65/-250 
f -40/-49/-249 -39/-48/-248 -41/-50/-247 
f -39/-48/-246 -49/-64/-245 -41/-50/-244 
usemtl k6_3_lambert10SG
f -14/-13/-243 -18/-15/-242 -9/-14/-241 
f -9/-14/-240 -18/-15/-239 -19/-16/-238 
usemtl Kiriku_4_Walls
f -45/-55/-237 -44/-54/-236 -40/-49/-235 
f -40/-49/-234 -44/-54/-233 -39/-48/-232 
usemtl k6_3_lambert11SG
f -17/-12/-231 -16/-11/-230 -8/-10/-229 
f -8/-10/-228 -16/-11/-227 -15/-9/-226 
f -8/-10/-225 -15/-9/-224 -7/-7/-223 
f -7/-7/-222 -15/-9/-221 -10/-8/-220 
usemtl Kiriku_4_Downside
f -38/-37/-219 -37/-36/-218 -36/-35/-217 
f -36/-35/-216 -37/-36/-215 -35/-34/-214 
usemtl k6_3_lambert11SG
f -6/-12/-213 -5/-11/-212 -4/-5/-211 
f -4/-5/-210 -5/-11/-209 -11/-9/-208 
f -4/-5/-207 -11/-9/-206 -12/-6/-205 
f -4/-5/-204 -12/-6/-203 -13/-8/-202 
f -13/-8/-201 -3/-7/-200 -4/-5/-199 
f -4/-5/-198 -3/-7/-197 -2/-10/-196 
usemtl Kiriku_4_Walls
f -43/-52/-195 -58/-53/-194 -33/-31/-193 
f -33/-31/-192 -58/-30/-191 -56/-29/-190 
f -58/-53/-189 -49/-65/-188 -53/-28/-187 
usemtl Kiriku_4_ROOD_EDGE
f -20/-18/-186 -23/-20/-185 -21/-17/-184 
f -21/-17/-183 -23/-20/-182 -22/-19/-181 
usemtl k6_3_lambert4SG
f -31/-26/-180 -30/-25/-179 -29/-24/-178 
f -29/-24/-177 -30/-25/-176 -28/-23/-175 
f -27/-26/-174 -26/-25/-173 -25/-24/-172 
f -25/-24/-171 -26/-25/-170 -24/-23/-169 
usemtl Kiriku_4_Walls
f -56/-82/-168 -58/-84/-167 -54/-80/-166 
f -58/-84/-165 -60/-85/-164 -54/-80/-163 
f -60/-85/-162 -59/-70/-161 -54/-80/-160 
f -52/-57/-159 -53/-56/-158 -46/-58/-157 
f -46/-58/-156 -53/-56/-155 -45/-55/-154 
f -37/-36/-153 -40/-49/-152 -35/-34/-151 
f -35/-34/-150 -40/-49/-149 -41/-50/-148 
usemtl Kiriku_4_Downside
f -33/-31/-147 -56/-29/-146 -32/-22/-145 
f -32/-22/-144 -56/-29/-143 -57/-21/-142 
usemtl k6_3_lambert13SG
f -62/-27/-141 -60/-85/-140 -22/-19/-139 
f -22/-19/-138 -23/-20/-137 -62/-27/-136 
f -53/-28/-135 -62/-27/-134 -23/-20/-133 
f -23/-20/-132 -20/-18/-131 -53/-28/-130 
usemtl Kiriku_4_ROOD_EDGE
f -58/-86/-129 -53/-28/-128 -20/-18/-127 
f -20/-18/-126 -21/-17/-125 -58/-86/-124 
f -60/-85/-123 -58/-86/-122 -21/-17/-121 
f -21/-17/-120 -22/-19/-119 -60/-85/-118 
usemtl k6_3_lambert10SG
f -48/-46/-117 -49/-44/-116 -19/-16/-115 
f -19/-16/-114 -18/-15/-113 -48/-46/-112 
usemtl k6_3_lambert11SG
f -47/-43/-111 -46/-42/-110 -16/-11/-109 
f -16/-11/-108 -17/-12/-107 -47/-43/-106 
usemtl k6_3_lambert10SG
f -44/-47/-105 -48/-46/-104 -18/-15/-103 
f -18/-15/-102 -14/-13/-101 -44/-47/-100 
usemtl k6_3_lambert11SG
f -42/-32/-99 -43/-38/-98 -13/-8/-97 
f -13/-8/-96 -12/-6/-95 -42/-32/-94 
f -41/-40/-93 -42/-32/-92 -12/-6/-91 
f -12/-6/-90 -11/-9/-89 -41/-40/-88 
usemtl k6_3_lambert10SG
f -49/-44/-87 -39/-45/-86 -9/-14/-85 
f -9/-14/-84 -19/-16/-83 -49/-44/-82 
f -39/-45/-81 -44/-47/-80 -14/-13/-79 
f -14/-13/-78 -9/-14/-77 -39/-45/-76 
usemtl k6_3_lambert11SG
f -45/-40/-75 -40/-38/-74 -10/-8/-73 
f -10/-8/-72 -15/-9/-71 -45/-40/-70 
f -38/-41/-69 -47/-43/-68 -17/-12/-67 
f -17/-12/-66 -8/-10/-65 -38/-41/-64 
f -46/-42/-63 -45/-40/-62 -15/-9/-61 
f -15/-9/-60 -16/-11/-59 -46/-42/-58 
f -37/-39/-57 -38/-41/-56 -8/-10/-55 
f -8/-10/-54 -7/-7/-53 -37/-39/-52 
f -40/-38/-51 -37/-39/-50 -7/-7/-49 
f -7/-7/-48 -10/-8/-47 -40/-38/-46 
f -36/-43/-45 -35/-42/-44 -5/-11/-43 
f -5/-11/-42 -6/-12/-41 -36/-43/-40 
f -34/-33/-39 -36/-43/-38 -6/-12/-37 
f -6/-12/-36 -4/-5/-35 -34/-33/-34 
f -35/-42/-33 -41/-40/-32 -11/-9/-31 
f -11/-9/-30 -5/-11/-29 -35/-42/-28 
f -43/-38/-27 -33/-39/-26 -3/-7/-25 
f -3/-7/-24 -13/-8/-23 -43/-38/-22 
f -33/-39/-21 -32/-41/-20 -2/-10/-19 
f -2/-10/-18 -3/-7/-17 -33/-39/-16 
f -32/-41/-15 -34/-33/-14 -4/-5/-13 
f -4/-5/-12 -2/-10/-11 -32/-41/-10 
usemtl xxx
f -52/-78/-9 -50/-76/-8 -1/-4/-7 
f -1/-2/-6 -51/-77/-5 -61/-75/-4 
f -1/-1/-3 -62/-72/-2 -53/-79/-1 
# 100 faces

