# 3ds Max Wavefront OBJ Exporter v0.94b - (c)2007 guruware
# File Created: 16.11.2010 01:10:55

mtllib Pikk_29a_3-origo.mtl

#
# object Pikk_29a_3
#

v  542314.209 6589278.2371 23.6507
v  542314.669 6589277.9715 23.6489
v  542315.0124 6589278.5663 23.6488
v  542314.5524 6589278.8319 23.6506
v  542315.1213 6589278.6198 19.6774
v  542314.5144 6589278.9701 19.6798
v  542314.0908 6589278.2364 19.6793
v  542314.6976 6589277.886 19.6769
v  542313.6622 6589277.2491 19.1697
v  542316.7691 6589281.3869 22.3653
v  542306.6638 6589286.1656 21.2883
v  542304.6543 6589282.4079 18.9298
v  542321.7536 6589278.0797 17.1103
v  542321.7536 6589278.0797 19.6072
v  542319.4391 6589274.2312 19.3722
v  542319.4391 6589274.2312 16.8753
v  542316.7659 6589281.3889 16.7362
v  542316.7659 6589281.3889 19.2332
v  542306.6637 6589286.1655 16.4329
v  542306.6637 6589286.1655 18.9298
v  542321.7541 6589278.0799 21.9657
v  542319.0752 6589273.6332 19.3722
v  542314.0261 6589277.8472 19.1697
v  542314.6523 6589277.4288 19.1931
v  542315.7014 6589276.728 19.2324
v  542317.9879 6589275.2007 19.3179
v  542304.9851 6589283.0261 18.9298
v  542311.0515 6589279.5511 19.0908
v  542311.9425 6589279.0407 19.1144
v  542312.3431 6589278.8112 19.1250
v  542312.7947 6589278.5525 19.1370
v  542313.2192 6589278.3094 19.1483
v  542313.2192 6589278.3094 18.6264
v  542314.0261 6589277.8472 18.6264
v  542317.9879 6589275.2007 19.1213
v  542317.9879 6589275.2007 16.8210
v  542305.9279 6589284.9218 18.9355
v  542305.6107 6589284.3286 18.9355
v  542305.6107 6589284.3286 19.9588
v  542305.9279 6589284.9218 19.9588
v  542304.9851 6589283.0261 16.4329
v  542305.6658 6589284.2992 18.9355
v  542305.9829 6589284.8924 18.9355
v  542305.9829 6589284.8924 19.9588
v  542305.6658 6589284.2992 19.9588
v  542314.6523 6589277.4288 18.1328
v  542314.0261 6589277.8472 18.1328
v  542315.7014 6589276.728 19.1213
v  542314.6523 6589277.4288 16.6962
v  542315.7014 6589276.728 16.7355
v  542312.7947 6589278.5525 17.4679
v  542312.7947 6589278.5525 16.6401
v  542313.2192 6589278.3094 16.6514
v  542312.7947 6589278.5525 18.6132
v  542312.3431 6589278.8112 18.6132
v  542311.9425 6589279.0407 18.1993
v  542311.9425 6589279.0407 16.6175
v  542312.3431 6589278.8112 16.6281
v  542312.3431 6589278.8112 17.4679
v  542311.0515 6589279.5511 18.1993
v  542313.8984 6589277.6559 17.5451
v  542314.5246 6589277.2376 17.5568
v  542313.2888 6589278.4308 18.6264
v  542313.2888 6589278.4308 16.6514
v  542314.0957 6589277.9686 16.6728
v  542314.0957 6589277.9686 18.1328
v  542314.0957 6589277.9686 18.6264
v  542312.4127 6589278.9327 17.4679
v  542312.8643 6589278.674 17.4679
v  542312.8643 6589278.674 18.6132
v  542312.4127 6589278.9327 18.6132
v  542311.1211 6589279.6725 18.1993
v  542311.1211 6589279.6725 16.5939
v  542312.0121 6589279.1622 16.6175
v  542312.0121 6589279.1622 18.1993
v  542314.0261 6589277.8472 16.6728
v  542311.0515 6589279.5511 16.5939
v  542315.7792 6589276.8445 19.1213
v  542315.7792 6589276.8445 16.7355
v  542318.0656 6589275.3171 16.8210
v  542318.0656 6589275.3171 19.1213
v  542313.7706 6589277.4646 16.6728
v  542314.3968 6589277.0463 16.6962
v  542309.2859 6589280.7226 18.1625
v  542309.286 6589280.7226 16.5570
v  542310.1769 6589280.2122 16.5806
v  542310.1769 6589280.2122 18.1625
v  542310.1073 6589280.0908 16.5806
v  542310.1073 6589280.0908 18.1625
v  542309.2164 6589280.6011 18.1625
v  542309.2164 6589280.6011 16.5570
v  542307.8467 6589281.5482 17.7797
v  542308.2983 6589281.2896 17.7797
v  542308.2983 6589281.2895 18.1522
v  542307.8467 6589281.5482 18.1522
v  542308.2287 6589281.1681 17.7796
v  542308.2287 6589281.1681 18.1522
v  542307.7771 6589281.4267 18.1522
v  542307.7771 6589281.4267 17.7796
# 99 vertices

vt 1.0000 0.3705 0.0000
vt 0.7948 0.3705 0.0000
vt 0.7948 0.0087 0.0000
vt 1.0000 0.0087 0.0000
vt 0.9562 0.4339 0.0000
vt 0.0375 0.4339 0.0000
vt 0.0375 0.0655 0.0000
vt 0.9562 0.0655 0.0000
vt 4.4334 9.1535 0.0703
vt 3.4128 4.9476 0.9995
vt 22.2259 5.7268 0.6863
vt 21.9674 9.2121 0.0005
vt 3.0188 -1.8102 -0.1251
vt 3.0188 0.6867 -0.1251
vt -1.3391 0.4517 0.9596
vt -1.3391 -2.0452 0.9595
vt 0.5000 0.0000 0.0000
vt 0.5000 1.0000 0.0000
vt 0.0000 1.0000 0.0000
vt 0.0000 0.0000 0.0000
vt 1.0000 0.0000 0.0000
vt 1.0000 1.0000 0.0000
vt 3.0193 3.0452 -0.1250
vt -2.0193 0.4517 1.1251
vt -6.5413 9.4832 0.1291
vt -6.6746 5.2350 0.8833
vt 0.9422 1.0000 0.0000
vt 0.8453 1.0000 0.0000
vt 0.6341 1.0000 0.0000
vt 0.6710 1.0000 0.0000
vt 0.7695 1.0000 0.0000
vt 0.8139 1.0000 0.0000
vt 0.8638 1.0000 0.0000
vt 0.9108 1.0000 0.0000
vt 1.4380 1.7457 0.9864
vt 1.4380 1.2238 0.9864
vt 2.3354 1.2238 1.2301
vt 2.3354 1.7671 1.2301
vt 8.7197 -0.5273 2.5008
vt 8.7197 1.9697 2.5008
vt 7.0081 1.9154 2.1601
vt 7.0081 1.7187 2.1601
vt 7.0081 -0.5816 2.1601
vt -3.3443 -1.9277 -7.2033
vt -1.9628 0.5749 -7.6221
vt -1.3190 0.5749 -7.8173
vt 0.0625 -1.9277 -8.2362
vt -3.3443 0.5692 -7.2033
vt 0.0625 0.5692 -8.2362
vt -1.3190 1.5982 -7.8173
vt 0.0627 2.9277 -8.2361
vt -1.9628 1.5982 -7.6221
vt -4.0153 0.5692 -7.0000
vt 3.0739 0.7302 1.3771
vt 3.0739 1.7906 1.3771
vt 2.3354 0.7302 1.2301
vt 4.3113 1.8298 1.6234
vt 4.3113 1.7187 1.6234
vt 3.0739 -0.7064 1.3771
vt 4.3113 -0.6671 1.6234
vt 0.9659 0.0653 0.8582
vt 0.9659 -0.7625 0.8582
vt 1.4380 -0.7512 0.9864
vt 0.9659 1.7345 0.8582
vt 0.9659 1.2106 0.8582
vt 0.4636 1.7225 0.7218
vt 0.4636 1.2106 0.7218
vt 0.0180 0.7968 0.6007
vt 0.0180 -0.7851 0.6007
vt 0.4636 -0.7744 0.7218
vt 0.4636 0.0653 0.7218
vt 0.0180 1.7119 0.6007
vt -0.9729 1.6882 0.3316
vt -0.9729 0.7968 0.3316
vt 2.3802 0.1425 1.0045
vt 3.1188 0.1542 1.1515
vt 0.0005 0.9995 0.0005
vt 0.0005 0.0005 0.0005
vt 0.9995 0.0113 0.9995
vt 0.9995 0.7498 0.9995
vt 0.9995 0.9995 0.9995
vt 0.9995 0.0005 0.9995
vt 0.9995 0.0152 0.9995
vt -0.2301 -0.7298 -1.3353
vt -0.2301 0.7302 -1.3354
vt -0.3652 0.7302 -1.2987
vt -0.3652 -0.7298 -1.2987
vt -0.2301 1.2238 -1.3354
vt -0.3652 1.2238 -1.2987
vt -0.2301 -1.3354 1.2238
vt 0.0136 -0.4380 1.2238
vt -0.1215 -0.4013 1.2238
vt -0.3652 -1.2987 1.2238
vt 0.9864 1.2238 -0.4380
vt 0.9864 -0.7512 -0.4380
vt 1.1215 -0.7512 -0.4013
vt 1.1215 1.2238 -0.4013
vt 0.1418 0.0653 0.0341
vt 0.1418 1.2106 0.0341
vt 0.0067 1.2106 0.0708
vt 0.0067 0.0653 0.0708
vt 0.1418 0.0341 1.2106
vt 0.2782 0.5364 1.2106
vt 0.1431 0.5731 1.2106
vt 0.0067 0.0708 1.2106
vt 0.7218 1.2106 0.5364
vt 0.7218 0.0653 0.5364
vt 0.8569 0.0653 0.5731
vt 0.8569 1.2106 0.5731
vt 0.7218 0.5364 0.0653
vt 0.8582 0.0341 0.0653
vt 0.9933 0.0708 0.0653
vt 0.8569 0.5731 0.0653
vt 0.3993 -0.7851 0.9820
vt 0.3993 0.7968 0.9820
vt 0.2642 0.7968 1.0187
vt 0.2642 -0.7851 1.0187
vt 0.3993 0.9820 0.7968
vt 0.6684 1.9729 0.7968
vt 0.5333 2.0095 0.7968
vt 0.2642 1.0187 0.7968
vt 0.3316 0.7968 1.9729
vt 0.3316 -0.8087 1.9729
vt 0.4667 -0.8087 2.0095
vt 0.4667 0.7968 2.0095
vt 0.9995 0.0363 0.9995
vt -1.1601 -0.5816 -6.0081
vt -1.1601 1.7187 -6.0081
vt -1.2974 1.7187 -5.9808
vt -1.2974 -0.5816 -5.9808
vt -1.1601 -6.0081 1.7187
vt -0.6234 -3.3113 1.7187
vt -0.7607 -3.2840 1.7187
vt -1.2974 -5.9808 1.7187
vt 1.6234 1.7187 -3.3113
vt 1.6234 -0.6671 -3.3113
vt 1.7607 -0.6671 -3.2840
vt 1.7607 1.7187 -3.2840
vt -0.0045 0.1425 -1.3802
vt 0.2210 -0.7298 -1.4251
vt 1.1515 0.1542 -2.1188
vt 0.9260 -0.7064 -2.1637
vt 1.3771 -0.7064 -2.0739
vt 1.3771 0.7302 -2.0739
vt 2.4251 -0.7298 0.7790
vt 3.1637 -0.7064 0.9260
vt 0.9544 -0.8219 3.0221
vt 0.9544 0.7599 3.0221
vt 0.8193 0.7599 3.0588
vt 0.8193 -0.8219 3.0588
vt 0.9544 3.0221 0.7599
vt 1.2236 4.0130 0.7599
vt 1.0884 4.0497 0.7599
vt 0.8193 3.0588 0.7599
vt -0.2236 0.7599 4.0130
vt -0.2235 -0.8456 4.0130
vt -0.0884 -0.8456 4.0497
vt -0.0884 0.7599 4.0497
vt 0.0346 0.3173 0.0005
vt 0.9654 0.3173 0.9995
vt 0.9654 0.6245 0.9995
vt 0.0346 0.6245 0.0005
vt 1.5210 0.3771 5.1123
vt 1.5210 0.7497 5.1123
vt 1.3859 0.7497 5.1489
vt 1.3859 0.3771 5.1490
vt 1.5210 5.1123 0.7497
vt 1.6574 5.6145 0.7497
vt 1.5223 5.6512 0.7497
vt 1.3859 5.1489 0.7497
vt -0.6574 0.7497 5.6145
vt -0.6574 0.3771 5.6145
vt -0.5223 0.3771 5.6512
vt -0.5223 0.7497 5.6512
vt -0.6574 5.6145 0.3771
vt -0.5210 5.1123 0.3771
vt -0.3859 5.1490 0.3771
vt -0.5223 5.6512 0.3771
vt -2.0221 0.7599 0.0456
vt -2.0221 -0.8219 0.0456
vt -0.9729 -0.8087 0.3316
vt -4.1123 0.3771 -0.5210
vt -3.0130 -0.8456 -0.2235
vt -3.0130 0.7599 -0.2236
vt -4.1123 0.7497 -0.5210
vt -4.6145 0.3771 -0.6574
vt -7.7197 -0.9697 -1.5008
vt -4.6145 0.7497 -0.6574
vt -7.7197 1.5273 -1.5008
# 189 texture coords

g Pikk_29a_3
usemtl chimney
s off
f 1/1 2/2 3/3 4/4 
usemtl Patches
f 4/5 3/6 5/7 6/8 
f 1/5 4/6 6/7 7/8 
f 2/5 1/6 7/7 8/8 
f 3/5 2/6 8/7 5/8 
usemtl roof_grey
f 9/9 10/10 11/11 12/12 
usemtl stonewall
f 13/13 14/14 15/15 16/16 
usemtl xxx
f 17/17 18/18 14/19 13/20 
f 19/21 20/22 18/18 17/17 
f 14/19 18/18 10/18 21/22 
f 18/18 20/22 11/19 10/18 
usemtl stonewall
f 15/15 14/14 21/23 22/24 
usemtl roof_grey
f 22/25 21/26 10/10 9/9 
usemtl patch_black
f 22/18 9/22 23/22 24/27 25/28 26/29 15/18 
f 9/22 12/19 27/19 28/30 29/31 30/32 31/33 32/34 23/22 
usemtl stonewall
f 32/35 33/36 34/37 23/38 
f 16/39 15/40 26/41 35/42 36/43 
usemtl war2_win1
f 37/20 38/21 39/22 40/19 
usemtl stonewall
f 41/44 42/45 43/46 19/47 
f 41/44 27/48 42/45 
f 43/46 20/49 19/47 
f 44/50 20/49 43/46 
f 44/50 11/51 20/49 
f 45/52 27/48 12/53 11/51 44/50 
f 45/52 42/45 27/48 
usemtl patch_black
f 43/20 42/21 38/21 37/20 
f 42/21 45/22 39/22 38/21 
f 45/22 44/19 40/19 39/22 
f 44/19 43/20 37/20 40/19 
usemtl stonewall
f 46/54 24/55 23/38 34/37 47/56 
f 25/57 48/58 35/42 26/41 
f 46/54 49/59 50/60 48/58 25/57 24/55 
f 51/61 52/62 53/63 33/36 32/35 31/64 54/65 
f 30/66 55/67 54/65 31/64 
f 56/68 57/69 58/70 59/71 55/67 30/66 29/72 
f 28/73 60/74 56/68 29/72 
f 47/56 61/75 62/76 46/54 
usemtl war2_door1
f 63/77 64/78 65/79 66/80 67/81 
usemtl war2_win2
f 68/78 69/82 70/81 71/77 
usemtl stonewall
f 59/71 58/70 52/62 51/61 
usemtl war2_door1
f 72/77 73/78 74/83 75/81 
usemtl stonewall
f 76/84 47/85 66/86 65/87 
f 47/85 34/88 67/89 66/86 
f 34/90 33/91 63/92 67/93 
f 33/94 53/95 64/96 63/97 
f 51/98 54/99 70/100 69/101 
f 54/102 55/103 71/104 70/105 
f 55/106 59/107 68/108 71/109 
f 59/110 51/111 69/112 68/113 
f 57/114 56/115 75/116 74/117 
f 56/118 60/119 72/120 75/121 
f 60/122 77/123 73/124 72/125 
usemtl war2_door2
f 78/77 79/78 80/126 81/81 
usemtl stonewall
f 36/127 35/128 81/129 80/130 
f 35/131 48/132 78/133 81/134 
f 48/135 50/136 79/137 78/138 
f 61/139 47/85 76/84 82/140 
f 62/141 83/142 49/143 46/144 
f 61/75 82/145 83/146 62/76 
usemtl war2_door1
f 84/77 85/78 86/83 87/81 
usemtl stonewall
f 88/147 89/148 87/149 86/150 
f 89/151 90/152 84/153 87/154 
f 90/155 91/156 85/157 84/158 
usemtl war2_win2
f 92/159 93/160 94/161 95/162 
usemtl stonewall
f 96/163 97/164 94/165 93/166 
f 97/167 98/168 95/169 94/170 
f 98/171 99/172 92/173 95/174 
f 99/175 96/176 93/177 92/178 
f 89/179 88/180 77/181 60/74 
f 96/182 91/183 90/184 97/185 
f 99/186 41/187 91/183 96/182 
f 99/186 98/188 27/189 41/187 
f 60/74 28/73 89/179 
f 28/73 27/189 98/188 97/185 90/184 89/179 
# 68 polygons - 6 triangles

