# 3ds Max Wavefront OBJ Exporter v0.97b - (c)2007 guruware
# File Created: 01.12.2011 11:06:20

mtllib Laboratooriumi_14a-origo.mtl

#
# object Laboratooriumi_14a
#

v  542277.173573 6589423.742188 16.129953
v  542274.876736 6589417.735077 16.129953
v  542281.555461 6589415.897919 16.129953
v  542283.699451 6589420.999817 16.129953
v  542277.173566 6589423.742188 20.755009
v  542283.699439 6589420.999817 20.755009
v  542281.555455 6589415.897919 21.103184
v  542274.87673 6589417.735077 21.159414
v  542274.213306 6589417.400024 21.195019
v  542281.846641 6589415.300262 21.130753
v  542284.353704 6589421.266144 20.723616
v  542276.890673 6589424.402344 20.723616
v  542274.216955 6589417.408691 21.344723
v  542281.85029 6589415.308929 21.280457
v  542284.357353 6589421.274811 20.873320
v  542276.894321 6589424.411041 20.873320
# 16 vertices

vn 0.387414 0.921906 0.000001
vn 0.387414 0.921906 0.000001
vn 0.387414 0.921906 0.000001
vn 0.387414 0.921906 0.000002
vn 0.387414 0.921906 0.000002
vn 0.387414 0.921906 0.000002
vn -0.265226 -0.964186 -0.000000
vn -0.265226 -0.964186 -0.000000
vn -0.265226 -0.964186 -0.000000
vn -0.265227 -0.964186 -0.000001
vn -0.265227 -0.964186 -0.000001
vn -0.265227 -0.964186 -0.000001
vn -0.934052 0.357138 -0.000001
vn -0.934052 0.357138 -0.000001
vn -0.934052 0.357138 -0.000001
vn -0.934052 0.357137 -0.000001
vn -0.934052 0.357137 -0.000001
vn -0.934052 0.357137 -0.000001
vn 0.921905 -0.387415 0.000002
vn 0.921905 -0.387415 0.000002
vn 0.921905 -0.387415 0.000002
vn 0.921906 -0.387415 0.000001
vn 0.921906 -0.387415 0.000001
vn 0.921906 -0.387415 0.000001
vn -0.024326 -0.057888 -0.998027
vn -0.024326 -0.057888 -0.998027
vn -0.024326 -0.057888 -0.998027
vn -0.024327 -0.057889 -0.998027
vn -0.024327 -0.057889 -0.998027
vn -0.024327 -0.057889 -0.998027
vn -0.024324 -0.057888 -0.998027
vn -0.024324 -0.057888 -0.998027
vn -0.024324 -0.057888 -0.998027
vn -0.024324 -0.057888 -0.998027
vn -0.024324 -0.057888 -0.998027
vn -0.024324 -0.057888 -0.998027
vn -0.024325 -0.057885 -0.998027
vn -0.024325 -0.057885 -0.998027
vn -0.024325 -0.057885 -0.998027
vn -0.024325 -0.057885 -0.998027
vn -0.024325 -0.057885 -0.998027
vn -0.024325 -0.057885 -0.998027
vn -0.024329 -0.057886 -0.998027
vn -0.024329 -0.057886 -0.998027
vn -0.024329 -0.057886 -0.998027
vn -0.024327 -0.057887 -0.998027
vn -0.024327 -0.057887 -0.998027
vn -0.024327 -0.057887 -0.998027
vn -0.264224 -0.962449 0.062263
vn -0.264224 -0.962449 0.062263
vn -0.264224 -0.962449 0.062263
vn -0.264224 -0.962449 0.062263
vn -0.264224 -0.962449 0.062263
vn -0.264224 -0.962449 0.062263
vn 0.921905 -0.387415 0.000000
vn 0.921905 -0.387415 0.000000
vn 0.921905 -0.387415 0.000000
vn 0.921905 -0.387415 0.000000
vn 0.921905 -0.387415 0.000000
vn 0.921905 -0.387415 0.000000
vn 0.386650 0.920086 -0.062790
vn 0.386650 0.920086 -0.062790
vn 0.386650 0.920086 -0.062790
vn 0.386650 0.920086 -0.062790
vn 0.386650 0.920086 -0.062790
vn 0.386650 0.920086 -0.062790
vn -0.934004 0.357257 0.002047
vn -0.934004 0.357257 0.002047
vn -0.934004 0.357257 0.002047
vn -0.934004 0.357257 0.002044
vn -0.934004 0.357257 0.002044
vn -0.934004 0.357257 0.002044
vn 0.024326 0.057887 0.998027
vn 0.024326 0.057887 0.998027
vn 0.024326 0.057887 0.998027
vn 0.024326 0.057887 0.998027
vn 0.024326 0.057887 0.998027
vn 0.024326 0.057887 0.998027
vn -0.024326 -0.057887 -0.998027
vn -0.024326 -0.057887 -0.998027
vn -0.024326 -0.057887 -0.998027
vn -0.024326 -0.057887 -0.998027
vn -0.024326 -0.057887 -0.998027
vn -0.024326 -0.057887 -0.998027
# 84 vertex normals

vt -2.742666 -2.107385 4.031053
vt 3.685151 -2.107385 3.821279
vt -1.791418 -2.107385 -3.047623
vt 3.742669 -2.107385 -3.047630
vt -3.031057 -2.742659 2.517670
vt 4.047621 -2.742657 2.517670
vt 4.047618 2.791420 2.865845
vt -2.821284 3.685155 2.922075
vt 4.251083 2.957681 4.303084
vt -2.229603 2.893414 -3.547608
vt -3.547612 2.486277 -3.241659
vt -3.241665 2.486277 4.547612
vt 4.303084 4.241665 3.107385
vt -3.547608 3.220184 3.043118
vt -3.547612 -3.251078 2.635981
vt 4.547612 -3.251083 2.635981
vt 4.031053 -2.107385 -2.742666
vt 4.031057 2.517670 -2.742659
vt -3.047621 2.517670 -2.742657
vt -3.047621 2.517670 -2.742657
vt -3.047630 -2.107385 -2.742669
vt 4.031053 -2.107385 -2.742666
vt 4.047623 -2.107385 2.791418
vt 4.047618 2.865845 2.791420
vt -2.821284 2.922075 3.685155
vt -2.821284 2.922075 3.685155
vt -2.821279 -2.107385 3.685151
vt 4.047623 -2.107385 2.791418
vt -2.742659 2.517670 4.031057
vt 3.685151 -2.107385 3.821279
vt 3.685155 2.922075 3.821284
vt -2.742659 2.517670 4.031057
vt -1.791418 -2.107385 -3.047623
vt 3.742657 2.517670 -3.047621
vt 3.742657 2.517670 -3.047621
vt -1.791420 2.865845 -3.047618
vt -2.821284 3.685155 2.922075
vt 4.047618 2.791420 2.865845
vt -3.303084 4.251083 2.957681
vt 4.047618 2.791420 2.865845
vt 4.547608 3.229603 2.893414
vt -3.303084 4.251083 2.957681
vt 4.047618 2.791420 2.865845
vt 4.047621 -2.742657 2.517670
vt 4.547608 3.229603 2.893414
vt 4.047621 -2.742657 2.517670
vt 4.547612 -3.241659 2.486277
vt 4.547608 3.229603 2.893414
vt 4.047621 -2.742657 2.517670
vt -3.031057 -2.742659 2.517670
vt 4.547612 -3.241659 2.486277
vt -3.031057 -2.742659 2.517670
vt -3.547612 -3.241665 2.486277
vt 4.547612 -3.241659 2.486277
vt -3.031057 -2.742659 2.517670
vt -2.821284 3.685155 2.922075
vt -3.547612 -3.241665 2.486277
vt -2.821284 3.685155 2.922075
vt -3.303084 4.251083 2.957681
vt -3.547612 -3.241665 2.486277
vt -3.303084 2.957681 4.251083
vt 4.547608 2.893414 3.229603
vt -3.303084 3.107385 4.241665
vt 4.547608 2.893414 3.229603
vt 4.547608 3.043118 3.220184
vt -3.303084 3.107385 4.241665
vt 4.241659 2.486277 -3.547612
vt -2.220184 3.043118 -3.547608
vt 4.241659 2.486277 -3.547612
vt 4.251078 2.635981 -3.547612
vt -2.220184 3.043118 -3.547608
vt 4.547612 2.486277 -3.241665
vt -3.547612 2.635981 -3.251078
vt 4.547612 2.486277 -3.241665
vt 4.547612 2.635981 -3.251083
vt -3.547612 2.635981 -3.251078
vt 4.251083 2.957681 4.303084
vt -3.251083 2.635981 4.547612
vt 4.241665 3.107385 4.303084
vt -3.251083 2.635981 4.547612
vt 4.547612 -3.251083 2.635981
vt -3.547608 3.220184 3.043118
vt -3.031057 -2.742659 2.517670
vt 4.047618 2.791420 2.865845
# 84 texture coords

g Laboratooriumi_14a
usemtl Lab14a_krohv_hall
s off
f -16/-68/-84 -12/-67/-83 -11/-66/-82 
f -11/-65/-81 -13/-64/-80 -16/-63/-79 
f -14/-62/-78 -10/-61/-77 -9/-60/-76 
f -9/-59/-75 -15/-58/-74 -14/-57/-73 
f -12/-56/-72 -16/-84/-71 -15/-55/-70 
f -15/-83/-69 -9/-54/-68 -12/-53/-67 
f -14/-52/-66 -13/-81/-65 -11/-51/-64 
f -14/-82/-63 -11/-50/-62 -10/-49/-61 
usemtl Lab14a_valge
f -9/-48/-60 -10/-47/-59 -8/-46/-58 
f -10/-45/-57 -7/-44/-56 -8/-43/-55 
f -10/-42/-54 -11/-41/-53 -7/-40/-52 
f -11/-39/-51 -6/-38/-50 -7/-37/-49 
f -11/-36/-48 -12/-35/-47 -6/-34/-46 
f -12/-33/-45 -5/-32/-44 -6/-31/-43 
f -12/-30/-42 -9/-29/-41 -5/-28/-40 
f -9/-27/-39 -8/-26/-38 -5/-25/-37 
f -8/-24/-36 -7/-23/-35 -4/-22/-34 
f -7/-21/-33 -3/-20/-32 -4/-19/-31 
f -7/-75/-30 -6/-18/-29 -3/-17/-28 
f -6/-16/-27 -2/-15/-26 -3/-14/-25 
f -6/-74/-24 -5/-13/-23 -2/-12/-22 
f -5/-11/-21 -1/-10/-20 -2/-9/-19 
f -5/-73/-18 -8/-8/-17 -1/-7/-16 
f -8/-76/-15 -4/-6/-14 -1/-5/-13 
usemtl Lab14a_katus
f -1/-4/-12 -4/-72/-11 -3/-3/-10 
f -2/-70/-9 -1/-69/-8 -3/-71/-7 
usemtl Lab14a_valge
f -12/-2/-6 -10/-1/-5 -9/-77/-4 
f -11/-79/-3 -10/-78/-2 -12/-80/-1 
# 28 faces

