# 3ds Max Wavefront OBJ Exporter v0.97b - (c)2007 guruware
# File Created: 18.02.2012 12:30:20

mtllib Uus10a-origo.mtl

#
# object Default
#

v  542559.9602 6589213.3043 10.6870
v  542560.7773 6589202.3983 10.6183
v  542561.5649 6589202.4569 10.6047
v  542560.7479 6589213.3631 10.6734
v  542560.7331 6589213.3673 9.8337
v  542559.9454 6589213.3084 9.8472
v  542560.6639 6589214.2947 9.8395
v  542559.8763 6589214.2358 9.8531
v  542560.6378 6589214.3021 8.3522
v  542559.8501 6589214.2432 8.3658
v  542559.6067 6589217.5048 8.3862
v  542560.3944 6589217.5637 8.3727
v  542559.3865 6589220.4558 8.4047
v  542560.1742 6589220.5147 8.3912
v  542560.1256 6589220.5284 5.6290
v  542559.3379 6589220.4695 5.6426
v  542560.5892 6589214.3158 5.5901
v  542560.6584 6589213.3884 5.5842
v  542561.4754 6589202.4821 5.5156
v  542560.6877 6589202.4236 5.5291
v  542560.1646 6589209.3905 5.5731
v  542559.8015 6589214.2569 5.6036
v  542560.2542 6589209.3653 10.6622
v  542560.394 6589207.4905 10.6505
v  542560.3045 6589207.5158 5.5613
v  542560.3458 6589217.5774 5.6105
v  542559.5581 6589217.5185 5.6241
v  542560.8685 6589209.2821 10.4510
v  542561.3782 6589202.4512 10.4081
v  542568.1478 6589202.7843 8.7893
v  542567.4284 6589214.2741 8.8601
v  542560.6483 6589213.7675 8.9769
v  542560.5887 6589213.7843 5.5884
v  542567.3688 6589214.2909 5.4717
v  542568.0882 6589202.8011 5.4008
v  542561.2923 6589202.4755 5.5200
# 36 vertices

vn 0.0176 -0.0050 0.9998
vn -0.0744 0.9972 0.0063
vn 0.9971 0.0745 -0.0172
vn 0.0744 -0.9972 -0.0063
vn -0.9971 -0.0745 0.0172
vn 0.1125 0.1644 0.9799
vn 0.2278 0.0109 0.9736
vn -0.0069 0.3119 0.9501
# 8 vertex normals

vt 2.5149 -0.0496 0.0000
vt -2.1455 -0.0496 0.0000
vt -2.1455 -0.3537 0.0000
vt 2.5149 -0.3537 0.0000
vt 2.0268 1.0374 0.0000
vt 2.5159 1.0374 0.0000
vt 2.5159 1.3535 0.0000
vt 2.0268 1.3535 0.0000
vt 2.5159 0.6896 0.0000
vt 2.5159 1.0058 0.0000
vt 2.0268 1.0058 0.0000
vt 2.0268 0.6896 0.0000
vt 2.4732 0.3418 0.0000
vt 3.1356 0.3418 0.0000
vt 3.1356 0.6580 0.0000
vt 2.4732 0.6580 0.0000
vt 1.2098 0.3102 0.0000
vt -0.2328 0.3102 0.0000
vt -0.2328 -0.0060 0.0000
vt 1.2098 -0.0060 0.0000
vt 2.5150 0.3102 0.0000
vt 2.5150 -0.0060 0.0000
vt 0.6178 0.5631 0.0000
vt 0.6178 0.0122 0.0000
vt 0.9950 0.0122 0.0000
vt 0.9950 0.5631 0.0000
vt 0.9125 0.6500 0.0000
vt 0.9125 1.0000 0.0000
vt 0.7275 1.0000 0.0000
vt 0.9125 0.0000 0.0000
vt 0.7275 0.0000 0.0000
vt 1.8000 0.0000 0.0000
vt 1.8000 0.8350 0.0000
vt 1.8000 1.0000 0.0000
vt -0.8000 1.0000 0.0000
vt -0.8000 0.0000 0.0000
vt 0.6964 0.9878 0.0000
vt 0.6964 0.0122 0.0000
vt 0.9236 0.0122 0.0000
vt 0.9236 0.9878 0.0000
vt -0.3578 0.5417 0.0000
vt -0.1719 0.8268 0.0000
vt -0.3578 0.8268 0.0000
vt -0.3578 0.0122 0.0000
vt 0.6178 0.9878 0.0000
vt -0.1719 0.9878 0.0000
vt 0.9683 0.9878 0.0000
vt 0.9683 0.0122 0.0000
vt 0.9927 0.0122 0.0000
vt 0.0073 0.0122 0.0000
vt 0.0073 0.9878 0.0000
vt 0.9927 0.9878 0.0000
vt 1.1578 0.5631 0.0000
vt 0.6150 0.5631 0.0000
vt 0.6150 0.0122 0.0000
vt 1.1578 0.0122 0.0000
vt 0.9500 0.5631 0.0000
vt 0.9500 0.0122 0.0000
vt 0.7002 1.6418 0.0000
vt -1.5412 1.6418 0.0000
vt -1.5412 -0.6418 0.0000
vt 2.1662 -0.6418 0.0000
vt -0.4013 -0.3030 0.0000
vt 1.3845 -0.3030 0.0000
vt 1.4213 1.0530 0.0000
vt 1.0000 1.0000 0.0000
vt 0.0000 1.0000 0.0000
vt 0.0000 0.0122 0.0000
vt 1.0000 0.0122 0.0000
vt 1.0000 0.0000 0.0000
vt 1.0000 0.5061 0.0000
vt 0.0000 0.0000 0.0000
# 72 texture coords

g Default
usemtl roof1
s 1
f 1/1/1 2/2/1 3/3/1 4/4/1 
f 4/5/2 5/6/2 6/7/2 1/8/2 
f 7/9/1 8/10/1 6/11/1 5/12/1 
f 7/13/2 9/14/2 10/15/2 8/16/2 
f 11/17/1 10/18/1 9/19/1 12/20/1 
f 13/21/1 11/17/1 12/20/1 14/22/1 
usemtl uus10a
f 14/23/2 15/24/2 16/25/2 13/26/2 
f 9/27/3 7/28/3 5/29/3 17/30/3 
f 5/29/3 18/31/3 17/30/3 
f 18/32/3 5/33/3 4/34/3 3/35/3 
f 3/35/3 19/36/3 18/32/3 
f 2/37/4 20/38/4 19/39/4 3/40/4 
f 10/41/5 21/24/5 6/42/5 8/43/5 
f 10/41/5 22/44/5 21/24/5 
f 23/45/5 1/46/5 6/42/5 21/24/5 
f 24/47/5 23/45/5 21/24/5 25/48/5 
f 25/49/5 20/50/5 2/51/5 24/52/5 
f 12/53/3 9/54/3 17/55/3 26/56/3 
f 14/57/3 12/54/3 26/55/3 15/58/3 
f 27/55/5 22/56/5 10/53/5 11/54/5 
f 16/55/5 27/56/5 11/53/5 13/54/5 
usemtl roof2
f 28/59/6 29/60/7 30/61/7 31/62/6 
f 31/63/6 32/64/8 28/65/6 
usemtl wall
f 33/66/2 32/67/2 31/68/2 34/69/2 
f 34/66/3 31/67/3 30/68/3 35/69/3 
f 36/70/4 35/71/4 30/67/4 29/72/4 
# 22 polygons - 4 triangles

