# 3ds Max Wavefront OBJ Exporter v0.97b - (c)2007 guruware
# File Created: 29.03.2012 18:03:21

mtllib Myyrivahe_36-origo.mtl

#
# object myyrivahe36
#

v  542525.3206 6588961.3397 7.2402
v  542525.3183 6588961.3758 9.7611
v  542525.5615 6588962.7418 9.7611
v  542525.588 6588962.8431 7.2402
v  542526.659 6588969.3815 7.2312
v  542526.6579 6588969.4309 9.7611
v  542526.8698 6588970.8911 9.7611
v  542526.8892 6588970.9695 7.2312
v  542523.7894 6588952.9009 6.9765
v  542523.7907 6588952.909 10.2970
v  542523.9648 6588953.8894 10.2970
v  542523.9655 6588953.8937 6.9765
v  542523.3073 6588950.1197 6.9765
v  542523.3073 6588950.1197 7.8796
v  542523.5032 6588951.2641 7.8559
v  542523.5034 6588951.2651 6.9765
v  542524.2151 6588955.2863 6.9765
v  542524.2151 6588955.2863 7.8796
v  542524.4395 6588956.5294 7.8796
v  542524.4399 6588956.5312 6.9765
v  542523.271 6588949.9051 16.3604
v  542523.4962 6588951.224 16.3769
v  542523.4962 6588951.224 14.6369
v  542523.271 6588949.9051 14.6369
v  542523.7778 6588952.8353 14.6369
v  542523.7778 6588952.8353 16.4038
v  542524.0072 6588954.1272 16.3969
v  542524.0072 6588954.1272 14.6369
v  542523.2702 6588949.9004 13.4719
v  542523.4962 6588951.2239 13.4719
v  542523.4962 6588951.2239 11.7046
v  542523.2702 6588949.9004 11.7046
v  542523.7715 6588952.7998 13.4719
v  542524.0005 6588954.0897 13.4719
v  542523.9984 6588954.078 11.7046
v  542523.7715 6588952.7998 11.7046
v  542525.0418 6588959.7977 7.2934
v  542524.7925 6588958.426 7.2934
v  542524.7925 6588958.4731 10.2970
v  542525.0288 6588959.7734 10.2970
v  542524.7997 6588958.513 13.4719
v  542525.0396 6588959.833 13.4719
v  542525.0396 6588959.833 11.7046
v  542524.7997 6588958.513 11.7046
v  542524.2792 6588955.6417 13.4719
v  542524.5208 6588956.9775 13.4719
v  542524.5208 6588956.9775 11.7046
v  542524.277 6588955.6301 11.7046
v  542524.2933 6588955.7204 14.6369
v  542524.2933 6588955.7204 16.3899
v  542524.5188 6588956.9661 16.3829
v  542524.5223 6588956.9862 14.6369
v  542524.8099 6588958.5687 16.3759
v  542525.0544 6588959.9148 16.3842
v  542525.0506 6588959.8941 14.6369
v  542524.8099 6588958.5687 14.6369
v  542529.8038 6588959.7842 16.0384
v  542524.7256 6588960.6531 13.5553
v  542524.7255 6588960.6531 13.4720
v  542529.8038 6588959.7842 16.0356
v  542526.4524 6588971.3183 13.5514
v  542526.7975 6588971.2595 13.6072
v  542529.8632 6588960.1744 16.0331
v  542529.8597 6588960.1519 16.0338
v  542526.4524 6588971.3183 13.4720
v  542524.6451 6588960.667 16.9150
v  542524.6447 6588960.6671 17.0001
v  542529.8307 6588959.7799 19.2315
v  542522.5935 6588948.7636 16.9095
v  542522.5913 6588948.7635 16.9999
v  542522.6251 6588948.9594 16.9999
v  542524.6075 6588960.4512 17.0001
v  542526.6337 6588948.1816 19.0552
v  542526.6337 6588948.1816 18.9620
v  542523.2027 6588949.4981 8.0767
v  542523.2027 6588949.4981 10.2970
v  542523.616 6588951.9141 10.2970
v  542523.616 6588951.9141 8.0767
v  542525.8219 6588964.2381 9.7611
v  542525.9988 6588965.2795 9.7611
v  542525.9988 6588965.2795 8.0940
v  542525.8219 6588964.2381 8.0940
v  542526.269 6588966.9223 9.7611
v  542526.4344 6588967.9651 9.7611
v  542526.4344 6588967.9651 8.0940
v  542526.269 6588966.9223 8.0940
v  542524.9742 6588960.6104 10.2970
v  542525.1435 6588961.595 10.9902
v  542525.1103 6588961.4115 9.7612
v  542526.7986 6588971.2584 13.6072
v  542526.7974 6588971.2593 12.7814
v  542526.6945 6588970.6611 12.3324
v  542526.6981 6588970.6703 13.6073
v  542526.0667 6588966.9983 10.9902
v  542525.7701 6588965.2625 10.9902
v  542525.7721 6588965.2622 12.3325
v  542526.0687 6588966.9979 12.3325
v  542525.7775 6588965.3169 9.7612
v  542526.0578 6588966.9573 9.7612
v  542526.0553 6588966.9577 8.0941
v  542525.775 6588965.3173 8.0941
v  542526.5267 6588969.6909 10.9901
v  542526.2334 6588967.9741 10.9901
v  542526.2354 6588967.9737 12.3324
v  542526.5287 6588969.6906 12.3324
v  542524.9763 6588960.61 11.7046
v  542525.1455 6588961.5946 12.3325
v  542524.9743 6588960.6104 10.3754
v  542524.9745 6588960.6104 10.5153
v  542525.3224 6588962.63 12.3325
v  542525.6043 6588964.2798 12.3325
v  542525.6023 6588964.2801 10.9902
v  542525.3204 6588962.6303 10.9902
v  542526.7883 6588971.2601 6.7724
v  542526.7288 6588970.9119 6.7725
v  542526.7311 6588970.9135 8.0940
v  542526.2356 6588967.9981 9.7611
v  542526.4852 6588969.459 9.7611
v  542526.4827 6588969.4594 8.0940
v  542526.2331 6588967.9985 8.0941
v  542525.1077 6588961.4119 8.0941
v  542524.969 6588960.6116 6.7726
v  542525.5972 6588964.2766 8.0941
v  542525.3414 6588962.7796 8.0941
v  542525.3439 6588962.7792 9.7612
v  542525.5997 6588964.2762 9.7612
v  542525.1064 6588961.4157 6.7726
v  542526.481 6588969.4614 6.7725
v  542525.5948 6588964.2743 6.7726
v  542525.339 6588962.7775 6.7726
v  542526.6579 6588969.4309 8.0940
v  542526.6582 6588969.4326 6.9758
v  542526.7336 6588970.9131 9.7611
v  542526.8698 6588970.8911 8.0940
v  542526.8694 6588970.8891 6.9758
v  542526.8339 6588970.6386 12.3324
v  542526.6925 6588969.664 12.3324
v  542526.6925 6588970.6614 10.9901
v  542526.8339 6588970.6386 10.9901
v  542526.6925 6588969.664 10.9901
v  542526.4306 6588967.9414 12.3324
v  542526.2756 6588966.9634 12.3324
v  542526.4306 6588967.9414 10.9901
v  542526.2756 6588966.9634 10.9901
v  542525.5353 6588962.5934 12.3324
v  542525.3513 6588961.5593 12.3324
v  542525.5353 6588962.5934 10.9901
v  542525.3513 6588961.5593 10.9901
v  542525.9897 6588965.2254 12.3324
v  542525.8227 6588964.2426 12.3324
v  542525.9897 6588965.2254 10.9901
v  542525.8227 6588964.2426 10.9901
v  542525.5615 6588962.7418 8.0940
v  542525.5611 6588962.7395 6.9758
v  542525.3183 6588961.3758 8.0940
v  542525.319 6588961.3791 6.9758
v  542524.1296 6588955.6542 11.7046
v  542523.8639 6588954.0992 11.7046
v  542523.8686 6588954.1105 13.4719
v  542524.1342 6588955.6653 13.4719
v  542522.9508 6588948.7117 16.4247
v  542526.6344 6588948.1816 6.7783
v  542522.9517 6588948.7116 17.0949
v  542522.9481 6588948.7121 14.6369
v  542522.9463 6588948.7124 13.4719
v  542522.9436 6588948.7128 11.7046
v  542522.9416 6588948.7131 10.3754
v  542522.9415 6588948.7131 10.2970
v  542522.9418 6588948.7131 10.5153
v  542522.9382 6588948.7136 8.0767
v  542522.9379 6588948.7137 7.8796
v  542522.9362 6588948.714 6.7732
v  542524.979 6588960.6098 13.4719
v  542524.9808 6588960.6096 14.6369
v  542524.9834 6588960.6091 16.3620
v  542524.9845 6588960.609 17.0678
v  542524.8702 6588959.9463 16.3842
v  542524.3654 6588956.9917 16.3829
v  542524.6397 6588958.5975 16.3759
v  542524.1521 6588955.7435 16.3899
v  542523.8794 6588954.1472 16.3968
v  542523.6584 6588952.8535 16.4037
v  542523.3828 6588951.2406 16.3768
v  542523.1573 6588949.9213 16.3603
v  542524.1495 6588955.7439 14.6369
v  542523.8768 6588954.1477 14.6369
v  542523.1547 6588949.9217 14.6368
v  542523.1522 6588949.9172 13.4718
v  542524.3925 6588957.2258 8.0767
v  542524.3916 6588957.2226 7.8796
v  542524.2778 6588956.5563 7.8796
v  542524.065 6588955.3107 7.8796
v  542523.9837 6588954.8334 8.0767
v  542523.9834 6588954.8334 7.8796
v  542524.7511 6588959.8309 10.4471
v  542524.8945 6588960.6246 10.4471
v  542524.8945 6588960.6246 10.3754
v  542524.75 6588959.825 10.3754
v  542523.4883 6588951.9333 8.0767
v  542523.488 6588951.9334 7.8796
v  542523.3768 6588951.2828 7.8796
v  542523.1812 6588950.1379 7.8796
v  542523.0753 6588949.5164 8.0767
v  542524.8317 6588959.8081 6.7732
v  542524.8368 6588959.8061 10.2970
v  542524.6142 6588958.5033 10.2970
v  542524.6096 6588958.5082 6.7732
v  542524.3906 6588957.2262 6.7732
v  542524.4037 6588957.2715 10.2970
v  542523.0787 6588949.5158 10.2970
v  542524.864 6588959.9261 14.6369
v  542524.6371 6588958.598 14.6369
v  542524.3662 6588957.0122 14.6369
v  542523.6557 6588952.854 14.6368
v  542523.3802 6588951.241 14.6368
v  542524.8492 6588959.8657 11.7046
v  542524.8518 6588959.8652 13.4719
v  542524.6258 6588958.5425 13.4719
v  542524.6232 6588958.5429 11.7046
v  542524.3603 6588957.0043 11.7046
v  542524.3629 6588957.0038 13.4719
v  542523.1495 6588949.9177 11.7045
v  542523.3784 6588951.2412 13.4718
v  542523.6479 6588952.8188 13.4718
v  542523.6452 6588952.8192 11.7045
v  542523.3757 6588951.2417 11.7045
v  542523.1796 6588950.1382 6.7732
v  542523.4867 6588951.9362 6.7732
v  542523.3753 6588951.284 6.7732
v  542523.9821 6588954.8353 6.7732
v  542524.0636 6588955.3109 6.9765
v  542524.2748 6588956.5485 6.7732
v  542523.6585 6588952.9415 6.7732
v  542523.6618 6588952.9289 10.2970
v  542523.4916 6588951.9328 10.2969
v  542523.8275 6588953.9308 6.7732
v  542523.8296 6588953.9108 10.2970
v  542523.9955 6588954.8822 10.2970
v  542524.5691 6588957.2439 10.2970
v  542524.1383 6588954.8592 10.2970
v  542524.5607 6588957.1977 8.0767
v  542524.1295 6588954.8099 8.0767
v  542524.7932 6588958.477 6.9765
v  542525.029 6588959.7745 6.9765
v  542524.5152 6588958.5271 10.4471
v  542524.5145 6588958.5231 10.3754
v  542524.2892 6588957.2764 10.3754
v  542524.2845 6588957.2499 10.4471
v  542523.8852 6588955.0249 10.4471
v  542523.8715 6588954.9482 10.3754
v  542523.6967 6588953.9641 10.4471
v  542523.6934 6588953.9453 10.3754
v  542523.5161 6588952.9369 10.4471
v  542523.518 6588952.9477 10.3754
v  542523.3394 6588951.9197 10.3754
v  542523.3276 6588951.8511 10.4471
v  542522.9411 6588949.5629 10.3754
v  542522.9477 6588949.6029 10.4471
v  542522.8065 6588948.7362 10.4471
v  542522.8065 6588948.7362 10.3754
v  542526.0521 6588966.9513 6.7726
v  542525.7675 6588965.2854 6.7726
v  542526.226 6588967.9689 6.7726
v  542524.9792 6588960.6096 13.6073
v  542525.322 6588962.616 13.6074
v  542525.607 6588964.2843 13.6074
v  542525.7747 6588965.2657 13.6074
v  542526.072 6588967.0056 13.6074
v  542526.2385 6588967.98 13.6073
v  542526.532 6588969.6983 13.6073
v  542526.7968 6588971.2594 12.3323
v  542526.7929 6588971.2597 9.7610
v  542524.9872 6588960.6085 16.5800
v  542522.9517 6588948.7116 16.5798
v  542522.8684 6588948.7236 16.5798
v  542524.951 6588960.6147 16.5800
v  542522.8449 6588948.727 16.6546
v  542524.9251 6588960.6191 16.6547
v  542522.8266 6588948.7296 16.6631
v  542524.9048 6588960.6226 16.6633
v  542522.8088 6588948.7322 16.6715
v  542524.8853 6588960.6259 16.6716
v  542522.7924 6588948.7345 16.6794
v  542524.8671 6588960.629 16.6795
v  542522.7779 6588948.7366 16.6867
v  542524.851 6588960.6318 16.6868
v  542522.7658 6588948.7383 16.6931
v  542524.8378 6588960.634 16.6932
v  542522.7544 6588948.74 16.7005
v  542524.825 6588960.6362 16.7006
v  542522.747 6588948.7411 16.7093
v  542524.8168 6588960.6376 16.7095
v  542522.7425 6588948.7417 16.7199
v  542524.8119 6588960.6385 16.7200
v  542522.7406 6588948.742 16.7270
v  542524.8097 6588960.6389 16.7272
v  542522.7436 6588948.7415 16.7404
v  542524.8131 6588960.6383 16.7406
v  542522.7178 6588948.7453 16.8063
v  542524.7846 6588960.6432 16.8064
v  542522.7089 6588948.7465 16.8070
v  542524.7748 6588960.6448 16.8071
v  542522.6999 6588948.7478 16.8098
v  542524.7647 6588960.6466 16.8100
v  542522.6961 6588948.7484 16.8155
v  542524.7606 6588960.6473 16.8156
v  542522.6647 6588948.7529 16.8947
v  542524.7258 6588960.6532 16.8949
v  542522.6544 6588948.7544 16.8931
v  542524.7144 6588960.6552 16.8933
v  542522.6448 6588948.7558 16.8924
v  542524.7038 6588960.657 16.8926
v  542522.6361 6588948.757 16.8922
v  542524.6942 6588960.6586 16.8923
v  542522.625 6588948.7586 16.8921
v  542524.682 6588960.6607 16.8922
v  542522.6143 6588948.7602 16.8928
v  542524.6701 6588960.6627 16.8929
v  542522.6034 6588948.7617 16.8963
v  542524.6581 6588960.6648 16.8965
v  542524.6491 6588960.6663 16.9042
v  542524.8501 6588960.6317 13.1509
v  542526.5744 6588971.2975 13.1509
v  542526.7975 6588971.2594 13.1524
v  542524.8486 6588960.632 13.1760
v  542526.5729 6588971.2977 13.1760
v  542526.5742 6588971.2975 13.1532
v  542524.8215 6588960.6367 13.1805
v  542526.5465 6588971.3022 13.1805
v  542526.5701 6588971.2965 13.1764
v  542524.8215 6588960.6367 13.1968
v  542526.5464 6588971.3022 13.1968
v  542526.5462 6588971.3006 13.1820
v  542524.8081 6588960.639 13.1982
v  542526.5333 6588971.3045 13.1982
v  542526.5452 6588971.3024 13.1969
v  542524.8096 6588960.6387 13.4231
v  542526.5347 6588971.3043 13.4231
v  542526.5334 6588971.3045 13.2192
v  542524.7466 6588960.6496 13.4172
v  542526.473 6588971.3148 13.4172
v  542526.4521 6588971.3167 13.4720
v  542525.0053 6588960.6051 13.6171
v  542525.0076 6588960.6047 13.1524
v  542526.7976 6588971.2596 13.5037
v  542526.9428 6588971.2346 13.8028
v  542524.8375 6588959.8095 10.3754
v  542524.8387 6588959.8154 10.5153
v  542524.6147 6588958.5054 10.3754
v  542524.6156 6588958.5094 10.5153
v  542524.4014 6588957.2567 10.3754
v  542524.397 6588957.2301 10.5153
v  542524.003 6588954.9253 10.3754
v  542524.0163 6588955.0019 10.5153
v  542523.8315 6588953.9213 10.3754
v  542523.8349 6588953.9399 10.5153
v  542523.6609 6588952.9227 10.3753
v  542523.6592 6588952.9119 10.5153
v  542523.4852 6588951.8942 10.3753
v  542523.4736 6588951.8256 10.5152
v  542523.0826 6588949.5382 10.3754
v  542523.0897 6588949.5781 10.5153
v  542526.9213 6588971.1676 7.1159
v  542526.6359 6588969.1977 7.1159
v  542526.6362 6588969.199 6.7732
v  542526.9215 6588971.1689 6.7732
v  542525.8603 6588969.3256 6.7732
v  542525.8601 6588969.3243 7.1159
v  542526.1524 6588971.293 7.1159
v  542526.1526 6588971.2944 6.7732
v  542526.8892 6588970.9695 7.1151
v  542526.659 6588969.3815 7.1151
v  542526.1961 6588969.457 7.1151
v  542526.1961 6588969.457 7.2312
v  542526.4296 6588971.0444 7.2312
v  542526.4296 6588971.0444 7.1151
v  542525.6346 6588963.0834 7.1635
v  542525.2846 6588961.1156 7.1217
v  542525.2846 6588961.1156 6.7732
v  542525.6346 6588963.0834 6.7732
v  542524.5022 6588961.2502 6.7732
v  542524.5022 6588961.2502 7.1635
v  542524.8497 6588963.2178 7.1635
v  542524.8497 6588963.2178 6.7732
v  542525.588 6588962.8431 7.1241
v  542525.3206 6588961.3397 7.1241
v  542524.8532 6588961.4201 7.1241
v  542524.8532 6588961.4201 7.2402
v  542525.1195 6588962.9234 7.2402
v  542525.1195 6588962.9234 7.1241
v  542525.1454 6588960.0607 7.1635
v  542524.7892 6588958.1037 7.1217
v  542524.7892 6588958.1037 6.7732
v  542525.1454 6588960.0607 6.7732
v  542524.0161 6588958.2343 6.7732
v  542524.0161 6588958.2343 7.1635
v  542524.3656 6588960.1942 7.1635
v  542524.3656 6588960.1942 6.7732
v  542525.0977 6588959.822 7.2505
v  542524.8255 6588958.327 7.2505
v  542524.8255 6588958.327 7.1344
v  542525.0977 6588959.822 7.1344
v  542524.3636 6588958.4051 7.1344
v  542524.3636 6588958.4051 7.2505
v  542524.6326 6588959.9015 7.2505
v  542524.6326 6588959.9015 7.1344
v  542524.1256 6588954.2384 7.1635
v  542523.7762 6588952.2776 7.1217
v  542523.7762 6588952.2776 6.7732
v  542524.1256 6588954.2384 6.7732
v  542523.0359 6588952.393 6.7732
v  542523.0359 6588952.393 7.1635
v  542523.3721 6588954.3597 7.1635
v  542523.3721 6588954.3597 6.7732
v  542524.0785 6588953.9996 7.2524
v  542523.8117 6588952.5015 7.2524
v  542523.8117 6588952.5015 7.1362
v  542524.0785 6588953.9996 7.1362
v  542523.3692 6588952.5706 7.1362
v  542523.3692 6588952.5706 7.2524
v  542523.6299 6588954.0714 7.2524
v  542523.6299 6588954.0714 7.1362
v  542523.7009 6588951.7463 7.1217
v  542523.361 6588949.7798 7.1217
v  542523.361 6588949.7798 6.7732
v  542523.7009 6588951.7463 6.7732
v  542522.6429 6588949.887 6.7732
v  542522.6429 6588949.887 7.1635
v  542522.9648 6588951.86 7.1635
v  542522.9648 6588951.86 6.7732
v  542524.5418 6588956.7746 7.1635
v  542524.1876 6588954.8173 7.1217
v  542524.1876 6588954.8173 6.7732
v  542524.5418 6588956.7746 6.7732
v  542523.4305 6588954.9401 6.7732
v  542523.4305 6588954.9401 7.1635
v  542523.7745 6588956.9023 7.1635
v  542523.7745 6588956.9023 6.7732
v  542529.7817 6588959.788 16.1077
v  542529.8462 6588960.1963 16.1069
v  542529.8529 6588960.2387 16.1068
v  542527.3842 6588951.4133 22.4841
v  542527.5544 6588952.1744 22.4841
v  542526.925 6588952.3151 22.4841
v  542526.7548 6588951.5541 22.4841
v  542529.3738 6588964.7624 19.9717
v  542529.4972 6588965.5324 19.9717
v  542528.8605 6588965.6345 19.9717
v  542528.7371 6588964.8644 19.9717
v  542528.4186 6588959.5952 17.6311
v  542530.2446 6588970.6711 17.6311
v  542530.2718 6588970.701 15.4934
v  542528.4193 6588959.5951 14.2541
v  542529.7582 6588959.3743 17.8925
v  542531.513 6588970.4545 17.8968
v  542527.338 6588965.687 14.4801
v  542526.3253 6588965.8884 14.0304
v  542526.1787 6588965.0699 14.0306
v  542527.1875 6588964.8712 14.4807
v  542526.1866 6588965.0685 13.8975
v  542526.3332 6588965.887 13.8973
v  542527.1954 6588964.8697 14.3476
v  542527.3459 6588965.6855 14.3470
v  542527.3842 6588951.4133 18.7951
v  542527.5544 6588952.1744 18.7946
v  542526.925 6588952.3151 18.8048
v  542526.7548 6588951.5541 18.8053
v  542529.3738 6588964.7624 15.0039
v  542529.4972 6588965.5324 15.0033
v  542528.8605 6588965.6345 15.0171
v  542528.7371 6588964.8644 15.0178
v  542529.801 6588959.7847 16.1094
v  542531.513 6588970.4544 16.0195
v  542529.8314 6588959.7798 6.7784
v  542529.8039 6588959.7846 16.0305
v  542531.5131 6588970.4544 16.1031
v  542529.8304 6588959.7797 19.3281
v  542524.6489 6588960.6687 17.1829
v  542524.6116 6588960.4528 17.1829
v  542529.801 6588959.5752 19.5169
v  542529.8346 6588959.7813 19.5110
v  542529.7968 6588959.5736 19.3341
v  542529.4939 6588957.719 19.3875
v  542529.4941 6588957.7192 19.2909
v  542529.4942 6588957.7192 19.0412
v  542529.8307 6588959.7799 18.9824
v  542526.6661 6588948.3259 18.9657
v  542526.6718 6588948.3515 19.0596
v  542526.6668 6588948.326 6.7783
v  542522.5931 6588948.7658 17.1785
v  542526.6355 6588948.1839 19.2339
v  542526.6781 6588948.374 19.2387
v  542522.6269 6588948.9617 17.1785
v  542526.6763 6588948.3717 19.0601
v  542526.9888 6588949.7662 19.0958
v  542528.8152 6588957.9514 19.0713
# 496 vertices

vn -0.9845 0.1753 -0.0034
vn -0.9845 0.1751 -0.0033
vn -0.9896 0.1436 -0.0032
vn -0.9896 0.1435 -0.0031
vn -0.9846 0.1748 0.0000
vn -0.9846 0.1747 0.0000
vn -0.9857 0.1687 0.0000
vn -0.9857 0.1688 0.0000
vn -0.9841 0.1776 0.0000
vn -0.9841 0.1777 -0.0001
vn -0.9857 0.1683 0.0000
vn -0.9839 0.1788 -0.0028
vn -0.9839 0.1788 0.0000
vn -0.9840 0.1780 0.0000
vn -0.9840 0.1781 0.0001
vn -0.9840 0.1781 0.0000
vn -0.9840 0.1780 0.0001
vn -0.9839 0.1787 0.0000
vn -0.1688 -0.9857 0.0002
vn -0.1686 -0.9857 0.0000
vn -0.9871 0.1598 0.0013
vn 0.3965 -0.0903 -0.9136
vn 0.3466 -0.1080 -0.9318
vn 0.4398 -0.0712 -0.8953
vn 0.4397 -0.0712 -0.8953
vn 0.1688 0.9857 -0.0004
vn -0.9851 0.1700 -0.0239
vn -0.9852 0.1699 -0.0237
vn -0.9855 0.1698 0.0012
vn -0.9855 0.1698 -0.0048
vn -0.1425 -0.9898 0.0000
vn -0.1403 -0.9901 -0.0046
vn -0.9857 0.1686 0.0000
vn -0.9859 0.1675 0.0000
vn -0.9877 0.1567 0.0000
vn -0.9871 0.1598 0.0000
vn -0.9857 0.1685 0.0015
vn -0.9857 0.1683 0.0016
vn -0.9857 0.1684 0.0016
vn -0.9857 0.1684 0.0015
vn -0.9857 0.1685 0.0013
vn -0.9857 0.1685 0.0014
vn -0.9857 0.1685 0.0016
vn -0.9857 0.1683 0.0015
vn 0.1605 0.9870 0.0015
vn 0.1590 0.9873 0.0013
vn 0.1606 0.9870 0.0000
vn 0.1605 0.9870 0.0000
vn 0.0000 0.0000 -1.0000
vn -0.1594 -0.9872 0.0000
vn -0.1595 -0.9872 0.0000
vn -0.1627 -0.9867 0.0018
vn -0.1594 -0.9872 0.0015
vn -0.1592 -0.9872 0.0000
vn -0.1593 -0.9872 0.0000
vn 0.0000 0.0000 1.0000
vn 0.1603 0.9871 0.0000
vn 0.1602 0.9871 0.0000
vn -0.0005 0.0000 -1.0000
vn -0.1636 -0.9865 0.0000
vn -0.1633 -0.9866 0.0000
vn 0.0005 -0.0001 1.0000
vn 0.0000 0.0001 1.0000
vn 0.1645 0.9864 0.0000
vn 0.1648 0.9863 0.0000
vn -0.0005 0.0001 -1.0000
vn -0.1693 -0.9856 0.0000
vn -0.1694 -0.9855 0.0000
vn 0.1690 0.9856 0.0000
vn 0.1693 0.9856 0.0000
vn -0.0004 0.0001 -1.0000
vn -0.1666 -0.9860 0.0000
vn -0.1667 -0.9860 0.0000
vn 0.0004 -0.0001 1.0000
vn 0.1679 0.9858 0.0000
vn 0.1677 0.9858 0.0000
vn -0.1705 -0.9854 0.0021
vn -0.1693 -0.9856 0.0019
vn 0.1690 0.9856 0.0030
vn 0.1672 0.9859 0.0027
vn 0.1692 0.9856 0.0000
vn 0.1689 0.9856 0.0000
vn -0.1665 -0.9860 0.0000
vn 0.1635 0.9865 0.0000
vn 0.1634 0.9866 0.0000
vn -0.1637 -0.9865 0.0000
vn -0.1423 -0.9898 0.0002
vn -0.1426 -0.9898 -0.0003
vn 0.1687 0.9857 -0.0001
vn -0.9857 0.1684 0.0013
vn -0.9857 0.1684 0.0075
vn -0.9857 0.1685 0.0019
vn -0.9857 0.1684 0.0012
vn -0.9857 0.1684 0.0014
vn -0.9857 0.1684 0.0018
vn -0.9841 0.1778 0.0000
vn -0.9841 0.1778 0.0004
vn -0.9941 0.1086 0.0028
vn -0.9857 0.1682 0.0016
vn -0.9899 0.1418 0.0015
vn 0.1526 0.9883 -0.0025
vn 0.2917 0.9565 0.0031
vn -0.2578 -0.9662 -0.0013
vn -0.1563 -0.9877 -0.0055
vn 0.1429 0.9897 0.0000
vn 0.1433 0.9897 0.0001
vn -0.1827 0.0109 -0.9831
vn -0.1442 -0.9896 -0.0012
vn -0.1465 -0.9892 -0.0009
vn -0.1647 -0.9861 0.0211
vn -0.1646 -0.9861 0.0211
vn 0.1590 0.9870 -0.0225
vn 0.1591 0.9870 -0.0225
vn 0.1604 0.9870 0.0000
vn -0.1018 -0.9948 -0.0020
vn -0.1641 -0.9864 0.0074
vn 0.0010 0.0060 -1.0000
vn -0.1690 -0.9855 0.0120
vn -0.1685 -0.9856 0.0120
vn 0.1668 0.9860 0.0000
vn 0.1672 0.9859 0.0000
vn -0.0009 -0.0055 -1.0000
vn -0.1643 -0.9863 -0.0117
vn -0.1646 -0.9863 -0.0117
vn 0.1615 0.9869 0.0000
vn 0.1613 0.9869 0.0000
vn 0.0026 0.0121 -0.9999
vn -0.1450 -0.9894 0.0000
vn -0.1449 -0.9895 0.0000
vn -0.0008 0.0001 1.0000
vn 0.1411 0.9900 0.0000
vn 0.1413 0.9900 0.0000
vn 0.0000 -0.0053 -1.0000
vn -0.1553 -0.9879 0.0000
vn -0.1546 -0.9880 -0.0001
vn 0.0000 -0.0001 1.0000
vn 0.1507 0.9886 0.0000
vn 0.1514 0.9885 0.0000
vn -0.1690 -0.9856 0.0000
vn 0.1673 0.9859 0.0000
vn 0.1670 0.9860 0.0000
vn -0.1647 -0.9863 0.0000
vn -0.1643 -0.9864 0.0000
vn 0.1606 0.9870 -0.0067
vn 0.1614 0.9869 -0.0066
vn 0.0008 -0.0001 -1.0000
vn -0.1461 -0.9893 0.0000
vn -0.1453 -0.9894 -0.0001
vn 0.1410 0.9900 0.0000
vn 0.1419 0.9899 0.0001
vn -0.1557 -0.9878 0.0067
vn -0.1558 -0.9878 0.0067
vn 0.1520 0.9884 0.0000
vn 0.1518 0.9884 0.0000
vn 0.1670 0.9860 0.0012
vn 0.1663 0.9861 0.0012
vn -0.1675 -0.9859 -0.0003
vn -0.1679 -0.9858 -0.0003
vn -0.1486 -0.9889 0.0000
vn 0.1422 0.9898 0.0001
vn 0.0622 0.3833 -0.9215
vn -0.9840 0.1780 0.0004
vn -0.9840 0.1780 -0.0003
vn -0.9841 0.1778 0.0012
vn -0.9841 0.1778 -0.0003
vn -0.9843 0.1766 0.0008
vn -0.9843 0.1766 -0.0010
vn -0.9846 0.1749 0.0008
vn -0.9846 0.1749 -0.0006
vn -0.9849 0.1732 -0.0001
vn -0.9853 0.1710 0.0016
vn -0.9852 0.1712 -0.0004
vn -0.9860 0.1666 -0.0023
vn -0.9860 0.1666 -0.0028
vn -0.9870 0.1608 0.0010
vn -0.9870 0.1607 0.0000
vn -0.9857 0.1686 0.0015
vn -0.9389 0.1644 -0.3024
vn -0.9292 0.1625 -0.3319
vn -0.4118 0.0720 -0.9084
vn -0.3796 0.0664 -0.9228
vn -0.4171 0.0729 -0.9059
vn -0.3812 0.0666 -0.9221
vn -0.4243 0.0741 -0.9025
vn -0.3875 0.0676 -0.9194
vn -0.4392 0.0766 -0.8951
vn -0.4018 0.0700 -0.9130
vn -0.4573 0.0797 -0.8857
vn -0.4250 0.0740 -0.9022
vn -0.5324 0.0927 -0.8414
vn -0.4877 0.0849 -0.8689
vn -0.7506 0.1307 -0.6477
vn -0.7200 0.1253 -0.6826
vn -0.9057 0.1576 -0.3935
vn -0.8902 0.1549 -0.4284
vn -0.9512 0.1655 -0.2605
vn -0.9404 0.1636 -0.2982
vn -0.9607 0.1671 0.2217
vn -0.9540 0.1659 0.2497
vn -0.9161 0.1594 -0.3679
vn -0.9020 0.1567 -0.4022
vn -0.0765 0.0133 -0.9970
vn -0.0692 0.0120 -0.9975
vn -0.2904 0.0504 -0.9556
vn -0.2679 0.0465 -0.9623
vn -0.8168 0.1418 -0.5592
vn -0.7917 0.1374 -0.5953
vn -0.9147 0.1587 -0.3717
vn -0.9002 0.1559 -0.4067
vn 0.1496 -0.0259 -0.9884
vn 0.1350 -0.0233 -0.9906
vn 0.0710 -0.0123 -0.9974
vn 0.0640 -0.0111 -0.9979
vn 0.0224 -0.0039 -0.9997
vn 0.0303 -0.0052 -0.9995
vn 0.0089 -0.0015 -1.0000
vn 0.0079 -0.0014 -1.0000
vn -0.0637 0.0110 -0.9979
vn -0.0571 0.0099 -0.9983
vn -0.2986 0.0516 -0.9530
vn -0.2790 0.0482 -0.9591
vn -0.7836 0.1353 -0.6064
vn -0.6355 0.1094 -0.7643
vn -0.9225 0.1592 -0.3518
vn -0.3998 0.0685 0.9140
vn -0.4492 0.0788 0.8900
vn -0.1426 -0.9898 0.0000
vn -0.1563 -0.9874 0.0250
vn -0.1386 -0.9903 -0.0068
vn -0.1476 -0.9890 0.0086
vn -0.1423 -0.9898 -0.0002
vn -0.1368 -0.9906 -0.0088
vn -0.1441 -0.9896 0.0025
vn -0.1450 -0.9894 0.0037
vn -0.1407 -0.9900 0.0095
vn -0.1313 -0.9910 0.0239
vn -0.1422 -0.9898 -0.0003
vn -0.1412 -0.9900 0.0003
vn -0.1436 -0.9896 0.0008
vn -0.1294 -0.9916 -0.0077
vn -0.1466 -0.9892 0.0024
vn -0.1382 -0.9904 -0.0024
vn -0.1452 -0.9894 0.0014
vn -0.1464 -0.9892 0.0020
vn -0.1393 -0.9902 -0.0013
vn -0.1434 -0.9897 0.0004
vn -0.1392 -0.9903 -0.0012
vn -0.1444 -0.9895 0.0006
vn -0.1410 -0.9900 -0.0004
vn -0.1429 -0.9897 0.0000
vn 0.1771 0.9842 0.0060
vn 0.1586 0.9870 -0.0259
vn 0.1691 0.9856 -0.0015
vn 0.1667 0.9860 0.0035
vn 0.1712 0.9852 -0.0052
vn 0.1659 0.9861 0.0046
vn 0.1696 0.9855 -0.0020
vn 0.1644 0.9864 0.0067
vn 0.1673 0.9859 0.0021
vn 0.1739 0.9847 -0.0084
vn 0.1689 0.9856 -0.0001
vn 0.1675 0.9859 0.0000
vn 0.1696 0.9855 -0.0003
vn 0.1671 0.9859 0.0002
vn 0.1678 0.9858 0.0000
vn 0.1709 0.9853 -0.0009
vn 0.1653 0.9862 0.0011
vn 0.1689 0.9856 -0.0004
vn 0.1686 0.9857 -0.0002
vn 0.1737 0.9848 -0.0027
vn 0.1728 0.9850 -0.0022
vn 0.1629 0.9866 0.0030
vn 0.1690 0.9856 -0.0003
vn 0.1685 0.9857 0.0007
vn 0.1681 0.9858 0.0004
vn 0.0065 -0.0011 -1.0000
vn -0.9856 0.1593 -0.0575
vn -0.1648 0.0267 -0.9860
vn -0.9872 0.1597 -0.0041
vn -0.1056 0.0171 -0.9943
vn -0.9872 0.1597 0.0064
vn 0.0927 -0.0150 -0.9956
vn -0.9196 0.1489 -0.3636
vn -0.4487 0.0763 0.8904
vn 0.9862 -0.1657 0.0050
vn -0.1689 -0.9856 -0.0003
vn -0.1702 -0.9854 -0.0026
vn -0.1690 -0.9856 -0.0002
vn -0.1711 -0.9853 -0.0003
vn -0.1709 -0.9853 0.0000
vn -0.1692 -0.9856 0.0000
vn -0.1737 -0.9848 0.0016
vn 0.0093 -0.0016 -1.0000
vn -0.9854 0.1593 -0.0606
vn -0.9836 0.1590 -0.0848
vn -0.1594 0.0258 -0.9869
vn -0.1514 0.0245 -0.9882
vn -0.9872 0.1597 0.0000
vn -0.9870 0.1596 -0.0203
vn -0.1011 0.0164 -0.9947
vn -0.0806 0.0130 -0.9967
vn -0.9871 0.1597 0.0068
vn -0.9872 0.1596 0.0050
vn 0.0907 -0.0147 -0.9958
vn -0.9223 0.1493 -0.3565
vn -0.3556 0.0576 0.9329
vn 0.9861 -0.1659 -0.0002
vn 0.9861 -0.1659 0.0009
vn 0.1677 0.9858 0.0001
vn 0.1676 0.9858 -0.0001
vn 0.1675 0.9859 0.0011
vn 0.1683 0.9857 -0.0001
vn 0.1678 0.9858 -0.0006
vn -0.1602 0.0458 -0.9860
vn -0.9849 0.1730 -0.0055
vn 0.1682 0.9858 0.0009
vn 0.1735 0.9848 -0.0009
vn 0.1618 0.9868 -0.0073
vn 0.1620 0.9868 -0.0072
vn 0.1679 0.9858 -0.0015
vn 0.1682 0.9858 0.0010
vn 0.1682 0.9856 0.0145
vn 0.1678 0.9858 0.0008
vn 0.1680 0.9858 0.0000
vn -0.9857 0.1684 0.0028
vn -0.9857 0.1683 0.0012
vn -0.9857 0.1685 0.0012
vn -0.9857 0.1684 0.0020
vn -0.9857 0.1684 0.0025
vn -0.9857 0.1684 0.0008
vn 0.1750 0.9846 -0.0002
vn 0.1753 0.9845 0.0000
vn 0.0000 0.0001 -1.0000
vn -0.0007 0.0001 -1.0000
vn -0.1685 -0.9857 0.0000
vn -0.1684 -0.9857 0.0002
vn -0.4386 0.0750 0.8955
vn -0.4221 0.0688 0.9039
vn -0.4215 0.0720 0.9039
vn -0.4117 0.0696 0.9087
vn -0.4116 0.0702 0.9087
vn -0.4187 0.0727 0.9052
vn -0.4189 0.0716 0.9052
vn -0.4306 0.0757 0.8994
vn -0.4309 0.0736 0.8994
vn -0.4490 0.0798 0.8900
vn -0.4495 0.0768 0.8900
vn -0.5046 0.0906 0.8586
vn -0.5053 0.0863 0.8586
vn -0.5472 0.0988 0.8312
vn -0.5481 0.0936 0.8312
vn -0.5987 0.1083 0.7936
vn -0.5997 0.1024 0.7936
vn -0.6327 0.1143 0.7659
vn 0.9897 -0.1434 0.0003
vn 0.9897 -0.1433 0.0000
vn -0.9892 0.1469 0.0000
vn -0.1611 -0.9869 -0.0038
vn -0.1610 -0.9869 -0.0039
vn 0.1611 0.9869 0.0041
vn 0.1610 0.9870 0.0038
vn 0.9897 -0.1435 0.0000
vn -0.9894 0.1455 0.0000
vn -0.1610 -0.9870 0.0000
vn 0.1609 0.9870 0.0000
vn 0.9845 -0.1751 0.0000
vn -0.9848 0.1739 0.0000
vn -0.1695 -0.9855 0.0000
vn 0.0482 -0.0298 0.9984
vn 0.1688 0.9857 0.0000
vn -0.9847 0.1744 0.0000
vn 0.9838 -0.1791 0.0000
vn -0.9845 0.1756 0.0000
vn 0.0489 -0.0302 0.9983
vn 0.1687 0.9857 0.0000
vn -0.9842 0.1769 0.0000
vn 0.1685 0.9857 0.0000
vn 0.9845 -0.1754 0.0000
vn -0.9857 0.1685 0.0000
vn -0.1540 -0.9881 0.0000
vn 0.0516 -0.0305 0.9982
vn 0.1589 0.9873 0.0000
vn 0.9845 -0.1753 0.0000
vn -0.9852 0.1711 0.0000
vn -0.1543 -0.9880 0.0000
vn 0.1580 0.9874 0.0000
vn 0.9854 -0.1703 0.0000
vn -0.9870 0.1610 0.0000
vn -0.1476 -0.9890 0.0000
vn 0.0553 -0.0090 0.9984
vn 0.0567 -0.0098 0.9983
vn 0.1527 0.9883 0.0000
vn 0.9840 -0.1781 0.0000
vn -0.9850 0.1727 0.0000
vn -0.1601 -0.9871 0.0000
vn 0.0502 -0.0304 0.9983
vn 0.1642 0.9864 0.0000
vn -0.9845 0.1752 0.0000
vn -0.9877 0.1565 0.0000
vn -0.9896 0.1436 0.0000
vn -0.4398 0.0712 0.8953
vn -0.4397 0.0715 0.8953
vn -0.4457 0.0690 0.8925
vn -0.4397 0.0716 0.8953
vn -0.9841 0.1777 0.0000
vn -0.9866 0.1627 -0.0103
vn -0.9864 0.1646 -0.0002
vn -0.1868 0.0292 0.9820
vn -0.1995 0.0329 0.9793
vn -0.3931 0.0706 0.9168
vn -0.3943 0.0734 0.9161
vn -0.9826 0.1760 -0.0602
vn -0.1931 -0.9812 -0.0004
vn -0.1929 -0.9812 -0.0011
vn 0.9816 -0.1810 0.0603
vn 0.1945 0.9809 0.0013
vn 0.1949 0.9808 0.0006
vn 0.9759 -0.2182 0.0000
vn 0.2182 0.9759 0.0000
vn -0.9759 0.2183 0.0000
vn -0.2183 -0.9759 0.0000
vn 0.9874 -0.1582 0.0000
vn 0.1583 0.9874 0.0000
vn -0.9874 0.1582 0.0000
vn -0.1582 -0.9874 0.0000
vn -0.1687 -0.9857 0.0002
vn 0.4444 -0.0725 -0.8929
vn 0.1724 0.9850 0.0000
vn 0.1686 0.9857 0.0000
vn -0.3404 0.0557 0.9386
vn -0.4386 0.0716 0.8958
vn 0.1676 0.9859 0.0026
vn -0.3995 0.0690 0.9141
vn -0.3949 0.0906 0.9142
vn 0.9869 -0.1611 0.0017
vn 0.9869 -0.1610 -0.0039
vn 0.9869 -0.1611 0.0028
vn 0.9869 -0.1612 0.0004
vn 0.9869 -0.1612 0.0000
vn 0.9757 -0.2191 0.0000
vn 0.9758 -0.2188 0.0005
vn 0.9757 -0.2191 0.0001
vn 0.9757 -0.2189 0.0001
vn -0.4431 0.0767 0.8932
vn -0.4431 0.0765 0.8932
vn -0.4431 0.0764 0.8932
vn -0.9755 0.2178 0.0328
vn -0.3975 0.0877 0.9134
vn -0.3933 0.0957 0.9144
vn -0.3957 0.0909 0.9139
vn 0.1742 0.9846 -0.0126
vn -0.9853 0.1698 0.0206
vn -0.9852 0.1702 0.0211
vn -0.1722 -0.9850 0.0126
vn -0.1722 -0.9850 0.0125
vn 0.9866 -0.1615 -0.0212
vn 0.9867 -0.1615 -0.0212
vn -0.9854 0.1701 0.0077
vn -0.1495 -0.9887 0.0142
vn -0.1496 -0.9886 0.0143
vn 0.9758 -0.2185 -0.0070
vn 0.1507 0.9885 -0.0143
# 462 vertex normals

vt 1.0000 0.0000 0.0000
vt 1.0000 1.0000 0.0000
vt 0.0000 1.0000 0.0000
vt 0.0000 0.0000 0.0000
vt 4.4088 -8.4506 4.0893
vt -3.6917 -8.4506 -3.3491
vt -3.6917 -8.4506 -3.6917
vt 4.4088 -8.4506 4.0777
vt 6.8974 -6.4425 6.8974
vt 6.8974 -5.8974 6.8974
vt -4.7035 -5.8974 6.8974
vt -2.9096 7.7806 -2.9416
vt 4.4140 -7.8576 4.0828
vt 4.4032 -7.8920 4.0724
vt -3.6917 7.7802 -3.6917
vt 0.2341 -0.7570 0.5705
vt 0.2338 -0.7564 0.5848
vt 0.2592 1.8930 0.9432
vt 6.2729 -0.8387 0.5833
vt 6.2728 -0.8390 0.5984
vt 6.1734 -0.8376 0.5982
vt 0.3433 -0.7579 0.5850
vt 6.2374 1.2204 0.9306
vt 6.2377 1.2196 0.9150
vt -4.7035 -6.4425 6.8974
vt -4.7035 -5.9483 6.8974
vt 0.0552 -0.8525 -0.2825
vt -0.4371 -0.5059 -0.1978
vt -0.3453 -1.1204 -0.2144
vt -5.2688 0.8026 0.6297
vt -5.2692 0.3897 0.6291
vt -4.9701 0.1652 0.5777
vt -4.9747 0.8027 0.5795
vt -3.1387 -0.5059 0.2638
vt -2.2708 -0.5059 0.1155
vt -2.2707 0.1653 0.1165
vt -3.1385 0.1653 0.2648
vt -2.2980 -1.1204 0.1192
vt -3.1182 -1.1204 0.2593
vt -3.1184 -1.9539 0.2581
vt -2.2982 -1.9539 0.1179
vt -4.4850 -0.5059 0.4938
vt -3.6266 -0.5059 0.3471
vt -3.6264 0.1652 0.3481
vt -4.4849 0.1652 0.4948
vt 0.0554 -0.1487 -0.2814
vt -0.4369 0.1653 -0.1968
vt 0.0552 -0.8133 -0.2824
vt 0.0552 -0.7433 -0.2823
vt -0.9546 0.1653 -0.1084
vt -1.7795 0.1653 0.0326
vt -1.7796 -0.5059 0.0316
vt -0.9547 -0.5059 -0.1094
vt -5.2696 -2.6148 0.6246
vt -5.0955 -2.6147 0.5948
vt -5.0963 -1.9540 0.5960
vt -3.6386 -1.1204 0.3482
vt -4.3691 -1.1204 0.4730
vt -4.3693 -1.9540 0.4718
vt -3.6388 -1.9539 0.3470
vt -0.3455 -1.9539 -0.2157
vt 0.0546 -2.6147 -0.2851
vt -1.7779 -1.9539 0.0290
vt -1.0294 -1.9539 -0.0989
vt -1.0292 -1.1204 -0.0976
vt -1.7777 -1.1204 0.0303
vt -0.3474 -2.6147 -0.2164
vt -4.3703 -2.6147 0.4709
vt -1.7767 -2.6147 0.0278
vt -1.0283 -2.6147 -0.1001
vt 0.5282 -1.9540 5.3693
vt 0.4406 -1.9540 5.3550
vt 0.4405 -2.5131 5.3559
vt 0.5291 -2.6147 5.3703
vt 0.5270 -1.1204 5.3691
vt 0.4406 -1.1204 5.3550
vt 0.4028 6.0961 -1.1204
vt 0.3347 6.0851 -1.1204
vt 0.4406 5.3550 -1.1204
vt 0.5270 5.3691 -1.1204
vt 0.5960 -1.9540 6.0963
vt 0.6653 -1.9540 6.0851
vt 0.6653 -1.1204 6.0851
vt 0.5972 -1.1204 6.0961
vt 0.5948 -2.6147 6.0955
vt 0.6651 -2.5131 6.0841
vt 0.4223 5.9701 0.1652
vt 0.3526 5.9589 0.1652
vt 0.4233 5.4716 0.1652
vt 0.5052 5.4849 0.1652
vt 0.5767 -0.5059 5.9703
vt 0.6474 -0.5059 5.9589
vt 0.6474 0.1652 5.9589
vt 0.5777 0.1652 5.9701
vt 0.4938 5.4850 -0.5059
vt 0.5767 5.4716 -0.5059
vt 0.6474 5.9589 -0.5059
vt 0.5767 5.9703 -0.5059
vt 0.5052 0.1652 5.4849
vt 0.4233 0.1652 5.4716
vt 0.4233 -0.5059 5.4716
vt 0.5062 -0.5059 5.4850
vt 0.6519 4.6264 0.1652
vt 0.5543 4.6103 0.1652
vt 0.6318 4.1213 0.1652
vt 0.7352 4.1385 0.1653
vt 0.3471 -0.5059 4.6266
vt 0.4457 -0.5059 4.6103
vt 0.4457 0.1652 4.6103
vt 0.3481 0.1652 4.6264
vt 0.2638 4.1387 -0.5059
vt 0.3682 4.1213 -0.5059
vt 0.4457 4.6103 -0.5059
vt 0.3471 4.6266 -0.5059
vt 0.7352 0.1653 4.1385
vt 0.6318 0.1652 4.1213
vt 0.6318 -0.5059 4.1213
vt 0.7362 -0.5059 4.1387
vt 1.1084 1.9546 0.1653
vt 1.0019 1.9363 0.1652
vt 1.0939 1.4192 0.1652
vt 1.1968 1.4369 0.1653
vt -0.1094 -0.5059 1.9547
vt -0.0019 -0.5059 1.9363
vt -0.0019 0.1652 1.9363
vt -0.1084 0.1653 1.9546
vt -0.1978 1.4371 -0.5059
vt -0.0939 1.4192 -0.5059
vt -0.0019 1.9363 -0.5059
vt -0.1094 1.9547 -0.5059
vt 1.1968 0.1653 1.4369
vt 1.0939 0.1652 1.4192
vt 1.0939 -0.5059 1.4192
vt 1.1978 -0.5059 1.4371
vt 0.8835 3.2707 0.1653
vt 0.7747 3.2523 0.1652
vt 0.8582 2.7609 0.1652
vt 0.9674 2.7795 0.1653
vt 0.1155 -0.5059 3.2708
vt 0.2253 -0.5059 3.2523
vt 0.2253 0.1652 3.2523
vt 0.1165 0.1653 3.2707
vt 0.0316 2.7796 -0.5059
vt 0.1418 2.7609 -0.5059
vt 0.2253 3.2523 -0.5059
vt 0.1155 3.2708 -0.5059
vt 0.9674 0.1653 2.7795
vt 0.8582 0.1652 2.7609
vt 0.8582 -0.5059 2.7609
vt 0.9684 -0.5059 2.7796
vt 1.0976 2.0292 -1.1204
vt 0.9888 2.0105 -1.1204
vt 1.1104 1.3275 -1.1204
vt 1.2144 1.3453 -1.1204
vt -0.0989 -1.9539 2.0294
vt 0.0112 -1.9540 2.0105
vt 0.0112 -1.1204 2.0105
vt -0.0976 -1.1204 2.0292
vt -0.1001 -2.6147 2.0283
vt 0.0110 -2.5131 2.0093
vt 1.2157 -1.9539 1.3455
vt 1.1104 -1.9540 1.3275
vt 1.1101 -2.5131 1.3291
vt 1.2164 -2.6147 1.3474
vt 1.2144 -1.1204 1.3453
vt 1.1104 -1.1204 1.3275
vt 0.0290 2.7779 -1.9539
vt 0.1414 2.7586 -1.9540
vt 0.2298 3.2793 -1.9540
vt 0.1179 3.2982 -1.9539
vt 0.9697 -1.1204 2.7777
vt 0.8586 -1.1204 2.7586
vt 0.8586 -1.9540 2.7586
vt 0.9710 -1.9539 2.7779
vt 0.8808 3.2980 -1.1204
vt 0.7702 3.2793 -1.1204
vt 0.8586 2.7586 -1.1204
vt 0.9697 2.7777 -1.1204
vt 0.1179 -1.9539 3.2982
vt 0.2298 -1.9540 3.2793
vt 0.2298 -1.1204 3.2793
vt 0.1192 -1.1204 3.2980
vt 0.2581 4.1184 -1.9539
vt 0.3649 4.1007 -1.9540
vt 0.4476 4.6221 -1.9540
vt 0.3470 4.6388 -1.9539
vt 0.7407 -1.1204 4.1182
vt 0.6351 -1.1204 4.1007
vt 0.6351 -1.9540 4.1007
vt 0.7419 -1.9539 4.1184
vt 0.6518 4.6386 -1.1204
vt 0.5524 4.6221 -1.1204
vt 0.6351 4.1007 -1.1204
vt 0.7407 4.1182 -1.1204
vt 0.3470 -1.9539 4.6388
vt 0.4476 -1.9540 4.6221
vt 0.4476 -1.1204 4.6221
vt 0.3482 -1.1204 4.6386
vt 2.5333 -0.1487 -0.7048
vt 3.3108 -0.1487 -0.8376
vt 3.3052 0.7350 -0.8353
vt 2.5278 0.7350 -0.7025
vt -1.2942 2.2114 -5.0046
vt 0.5476 -2.6118 -5.2696
vt 0.5473 3.4800 -5.2696
vt -1.2937 2.5465 -5.0046
vt -1.2955 1.3175 -5.0044
vt -1.2964 0.7350 -5.0042
vt -1.2978 -0.1487 -5.0040
vt -1.2988 -0.8133 -5.0039
vt -1.2988 -0.8525 -5.0039
vt -1.2987 -0.7433 -5.0039
vt -1.3005 -1.9626 -5.0036
vt -1.3006 -2.0612 -5.0036
vt -1.3015 -2.6144 -5.0034
vt 1.2801 0.7350 0.9445
vt 1.2792 1.3175 0.9444
vt -1.1458 3.6148 0.5295
vt 1.2779 2.1800 0.9441
vt 1.2773 2.5329 0.9441
vt 0.3873 2.1911 -0.3345
vt 6.0046 2.5465 -1.2937
vt 0.0559 2.5329 -0.2773
vt 0.0559 2.1800 -0.2779
vt 1.8646 2.1905 -0.5869
vt 1.0617 2.1870 -0.4497
vt 2.4887 2.1940 -0.6935
vt 3.2868 2.1974 -0.8299
vt 3.9337 2.2009 -0.9404
vt 4.7401 2.1874 -1.0782
vt 5.3998 2.1792 -1.1909
vt 6.0046 2.2114 -1.2942
vt 2.4885 1.3175 -0.6948
vt 3.2866 1.3175 -0.8312
vt 6.0044 1.3175 -1.2955
vt 5.3996 1.3174 -1.1922
vt 5.4018 0.7349 -1.1935
vt 6.0042 0.7350 -1.2964
vt 1.7475 -1.9626 -0.5733
vt 1.7491 -2.0612 -0.5738
vt 2.0823 -2.0612 -0.6307
vt 2.7051 -2.0612 -0.7371
vt 2.9437 -1.9626 -0.7777
vt 2.9437 -2.0612 -0.7779
vt 0.3859 -2.1411 -0.9501
vt -0.4079 -2.1411 -0.8067
vt -0.4079 -2.2810 -0.8067
vt 0.3918 -2.2810 -0.9511
vt 4.3938 -1.9626 -1.0254
vt 4.3937 -2.0612 -1.0256
vt 4.7190 -2.0612 -1.0812
vt 5.2915 -2.0612 -1.1790
vt 5.6022 -1.9626 -1.2319
vt 6.0036 -2.0612 -1.3006
vt 6.0036 -1.9626 -1.3005
vt 0.4564 -2.6144 -0.3537
vt 0.4574 -0.8525 -0.3512
vt 1.1088 -0.8525 -0.4625
vt 1.1063 -2.6144 -0.4648
vt 1.7473 -2.6144 -0.5743
vt 1.7247 -0.8525 -0.5677
vt 6.0039 -0.8525 -1.2988
vt 5.6025 -0.8525 -1.2302
vt 0.0556 1.3175 -0.2792
vt 0.3974 1.3175 -0.3376
vt 1.0614 1.3175 -0.4510
vt 1.8543 1.3175 -0.5865
vt 3.9334 1.3174 -0.9417
vt 4.7399 1.3174 -1.0795
vt 0.0555 0.7350 -0.2801
vt 0.4276 -0.1487 -0.3450
vt 0.4278 0.7350 -0.3437
vt 1.0892 0.7350 -0.4567
vt 1.0890 -0.1487 -0.4580
vt 1.8583 -0.1487 -0.5894
vt 1.8585 0.7350 -0.5881
vt 6.0040 -0.1487 -1.2978
vt 5.4016 -0.1487 -1.1948
vt 4.7398 0.7349 -1.0804
vt 3.9510 0.7349 -0.9456
vt 3.9508 -0.1487 -0.9470
vt 4.7396 -0.1487 -1.0817
vt 6.0034 -2.6144 -1.3015
vt 5.2913 -2.6144 -1.1798
vt 4.3923 -2.6144 -1.0262
vt 4.7184 -2.6144 -1.0819
vt 2.9428 -2.6144 -0.7785
vt 2.7050 -2.5127 -0.7378
vt 2.0862 -2.6144 -0.6322
vt 3.8897 -2.6144 -0.9403
vt 3.8960 -0.8525 -0.9387
vt 4.3940 -0.8525 -1.0238
vt 3.3950 -2.6144 -0.8558
vt 3.4050 -0.8525 -0.8548
vt 2.9193 -0.8525 -0.7718
vt 1.9387 -0.8525 -2.8960
vt 1.8742 -0.8525 -2.9059
vt 1.8749 -2.5127 -2.9100
vt 1.9403 -2.6144 -2.8897
vt 1.8548 -2.4050 -0.8525
vt 1.7872 -2.4157 -0.8525
vt 1.8742 -2.9059 -0.8525
vt 1.9387 -2.8960 -0.8525
vt -0.8558 -2.6144 -2.3950
vt -0.7868 -2.5127 -2.4136
vt -0.7872 -0.8525 -2.4157
vt -0.8548 -0.8525 -2.4050
vt 2.1790 -2.0612 -4.2915
vt 2.1159 -2.0612 -4.3006
vt 2.1159 -2.5127 -4.3006
vt 2.1798 -2.6144 -4.2913
vt 2.0812 -3.7190 -2.0612
vt 2.0180 -3.7284 -2.0730
vt 2.1159 -4.3006 -2.0612
vt 2.1790 -4.2915 -2.0612
vt -1.0819 -2.6144 -3.7184
vt -1.0179 -2.5127 -3.7279
vt -1.0180 -2.0730 -3.7284
vt -1.0812 -2.0612 -3.7190
vt 1.5677 -0.7247 -0.8525
vt 1.4850 -0.7385 -0.8525
vt 1.7004 -1.9308 -0.8525
vt 1.7718 -1.9193 -0.8525
vt -0.5733 -1.9626 -0.7475
vt -0.4892 -1.9626 -0.7616
vt -0.4850 -0.8525 -0.7385
vt -0.5677 -0.8525 -0.7247
vt -0.7777 -1.9437 -1.9626
vt -0.7048 -1.9555 -1.9626
vt -0.4892 -0.7616 -1.9626
vt -0.5733 -0.7475 -1.9626
vt 1.7718 -0.8525 -1.9193
vt 1.7004 -0.8525 -1.9308
vt 1.7048 -1.9626 -1.9555
vt 1.7777 -1.9626 -1.9437
vt 1.7371 -2.0612 -1.7051
vt 1.6620 -2.0612 -1.7173
vt 1.6620 -2.5127 -1.7173
vt 1.7378 -2.5127 -1.7050
vt 1.6307 -1.0823 -2.0612
vt 1.5498 -1.0957 -2.0612
vt 1.6620 -1.7173 -2.0612
vt 1.7371 -1.7051 -2.0612
vt -0.6322 -2.6144 -1.0862
vt -0.5496 -2.5127 -1.0948
vt -0.5498 -2.0612 -1.0957
vt -0.6307 -2.0612 -1.0823
vt 1.3345 0.6127 2.1911
vt 1.2424 0.5970 2.1911
vt 1.3646 -0.0761 2.1870
vt 1.4497 -0.0617 2.1870
vt -0.3376 1.3175 0.6026
vt -0.2443 1.3175 0.5866
vt -0.2424 2.1911 0.5970
vt -0.3345 2.1911 0.6127
vt -0.4510 -0.0614 1.3175
vt -0.3646 -0.0761 1.3175
vt -0.2443 0.5866 1.3175
vt -0.3376 0.6026 1.3175
vt 1.4497 2.1870 -0.0617
vt 1.3646 2.1870 -0.0761
vt 1.3646 1.3175 -0.0761
vt 1.4510 1.3175 -0.0614
vt 1.5869 -0.8646 2.1905
vt 1.5102 -0.8774 2.1905
vt 1.6229 -1.5002 2.1940
vt 1.6935 -1.4887 2.1940
vt -0.5865 1.3175 -0.8543
vt -0.5084 1.3175 -0.8673
vt -0.5102 2.1905 -0.8774
vt -0.5869 2.1905 -0.8646
vt -0.6948 -1.4885 1.3175
vt -0.6229 -1.5002 1.3175
vt -0.5084 -0.8673 1.3175
vt -0.5865 -0.8543 1.3175
vt 1.6935 2.1940 -1.4887
vt 1.6229 2.1940 -1.5002
vt 1.6229 1.3175 -1.5002
vt 1.6948 1.3175 -1.4885
vt 2.0782 -3.7401 2.1874
vt 2.0215 -3.7484 2.1875
vt 2.1341 -4.4079 2.1792
vt 2.1909 -4.3998 2.1792
vt -1.0795 1.3174 -3.7399
vt -1.0215 1.3175 -3.7484
vt -1.0215 2.1875 -3.7484
vt -1.0782 2.1874 -3.7401
vt -1.1922 -4.3996 1.3174
vt -1.1341 -4.4079 1.3175
vt -1.0215 -3.7484 1.3175
vt -1.0795 -3.7399 1.3174
vt 2.1909 2.1792 -4.3998
vt 2.1341 2.1792 -4.4079
vt 2.1341 1.3175 -4.4079
vt 2.1922 1.3174 -4.3996
vt 1.8299 -2.2868 2.1974
vt 1.7660 -2.2968 2.1975
vt 1.8807 -2.9428 2.2009
vt 1.9404 -2.9337 2.2009
vt -0.8312 1.3175 -2.2866
vt -0.7660 1.3175 -2.2968
vt -0.7660 2.1975 -2.2968
vt -0.8299 2.1974 -2.2868
vt -0.9417 -2.9334 1.3174
vt -0.8807 -2.9428 1.3175
vt -0.7660 -2.2968 1.3175
vt -0.8312 -2.2866 1.3175
vt 1.9404 2.2009 -2.9337
vt 1.8807 2.2009 -2.9428
vt 1.8807 1.3175 -2.9428
vt 1.9417 1.3174 -2.9334
vt 1.3437 0.5722 0.7350
vt 1.2498 0.5561 0.7350
vt 1.3697 -0.1039 0.7350
vt 1.4567 -0.0892 0.7350
vt -0.3450 -0.1487 0.5724
vt -0.2498 -0.1487 0.5561
vt -0.2498 0.7350 0.5561
vt -0.3437 0.7350 0.5722
vt -0.4580 -0.0890 -0.1487
vt -0.3697 -0.1039 -0.1487
vt -0.2498 0.5561 -0.1487
vt -0.3450 0.5724 -0.1487
vt 1.4567 0.7350 -0.0892
vt 1.3697 0.7350 -0.1039
vt 1.3697 -0.1487 -0.1039
vt 1.4580 -0.1487 -0.0890
vt 1.5881 -0.8585 0.7350
vt 1.5092 -0.8717 0.7350
vt 1.6300 -1.5396 0.7350
vt 1.7025 -1.5278 0.7350
vt -0.5894 -0.1487 -0.8583
vt -0.5092 -0.1487 -0.8717
vt -0.5092 0.7350 -0.8717
vt -0.5881 0.7350 -0.8585
vt -0.7048 -1.5333 -0.1487
vt -0.6311 -1.5454 -0.1487
vt -0.5092 -0.8717 -0.1487
vt -0.5894 -0.8583 -0.1487
vt 1.7025 0.7350 -1.5278
vt 1.6300 0.7350 -1.5396
vt 1.6311 -0.1487 -1.5454
vt 1.7048 -0.1487 -1.5333
vt 2.0804 -3.7398 0.7349
vt 2.0215 -3.7485 0.7350
vt 2.1345 -4.4102 0.7350
vt 2.1935 -4.4018 0.7349
vt -1.0817 -0.1487 -3.7396
vt -1.0215 -0.1487 -3.7485
vt -1.0215 0.7350 -3.7485
vt -1.0804 0.7349 -3.7398
vt -1.1948 -4.4016 -0.1487
vt -1.1345 -4.4102 -0.1487
vt -1.0215 -3.7485 -0.1487
vt -1.0817 -3.7396 -0.1487
vt 2.1935 0.7349 -4.4018
vt 2.1345 0.7350 -4.4102
vt 2.1345 -0.1487 -4.4102
vt 2.1948 -0.1487 -4.4016
vt 1.8353 -2.3052 0.7350
vt 1.7693 -2.3156 0.7350
vt 1.8838 -2.9605 0.7350
vt 1.9456 -2.9510 0.7349
vt -0.8376 -0.1487 -2.3108
vt -0.7704 -0.1487 -2.3214
vt -0.7693 0.7350 -2.3156
vt -0.8353 0.7350 -2.3052
vt -0.9470 -2.9508 -0.1487
vt -0.8838 -2.9605 -0.1487
vt -0.7704 -2.3214 -0.1487
vt -0.8376 -2.3108 -0.1487
vt 1.9456 0.7349 -2.9510
vt 1.8838 0.7350 -2.9605
vt 1.8838 -0.1487 -2.9605
vt 1.9470 -0.1487 -2.9508
vt 1.4625 -0.8525 -0.1088
vt 1.3733 -0.8525 -0.1239
vt 1.3730 -2.5127 -0.1219
vt 1.4648 -2.6144 -0.1063
vt 1.3512 0.5426 -0.8525
vt 1.2552 0.5263 -0.8525
vt 1.3733 -0.1239 -0.8525
vt 1.4625 -0.1088 -0.8525
vt -0.3537 -2.6144 0.5436
vt -0.2551 -2.5127 0.5268
vt -0.2552 -0.8525 0.5263
vt -0.3512 -0.8525 0.5426
vt 2.0238 -3.3940 -0.8525
vt 1.9616 -3.4034 -0.8525
vt 2.1682 -4.6114 -0.8525
vt 2.2302 -4.6025 -0.8525
vt -1.0254 -1.9626 -3.3938
vt -0.9616 -1.9626 -3.4034
vt -0.9616 -0.8525 -3.4034
vt -1.0238 -0.8525 -3.3940
vt -1.2319 -4.6022 -1.9626
vt -1.1682 -4.6114 -1.9626
vt -0.9616 -3.4034 -1.9626
vt -1.0254 -3.3938 -1.9626
vt 2.2302 -0.8525 -4.6025
vt 2.1682 -0.8525 -4.6114
vt 2.1682 -1.9626 -4.6114
vt 2.2319 -1.9626 -4.6022
vt 1.7785 -1.9428 -2.6144
vt 1.7378 -1.7050 -2.5127
vt 1.6620 -1.7173 -2.5127
vt 1.5496 -1.0948 -2.5127
vt 1.3730 -0.1219 -2.5127
vt 1.6896 -2.1411 -1.1859
vt 1.6936 -2.2810 -1.1867
vt 2.9404 -2.2810 -1.4119
vt 2.9669 -2.1411 -1.4167
vt 5.1918 -2.1411 -1.8160
vt 5.2685 -2.2810 -1.8297
vt 6.2526 -2.1411 -2.0044
vt 6.2714 -2.2810 -2.0077
vt 7.2799 -2.1411 -2.1851
vt 7.2690 -2.2810 -2.1832
vt 8.2970 -2.2810 -2.3618
vt 8.3657 -2.1411 -2.3736
vt 10.6538 -2.2810 -2.7601
vt 10.6138 -2.1411 -2.7534
vt 11.4806 -2.1411 -2.8947
vt 11.4806 -2.2810 -2.8947
vt -4.9703 -0.5059 0.5767
vt -5.0961 -1.1204 0.5972
vt -3.1152 -2.6147 0.2565
vt -2.2823 -2.6147 0.1142
vt -3.6240 -2.6147 0.3434
vt 0.0556 0.8027 -0.2800
vt -0.9476 0.8027 -0.1086
vt -1.7817 0.8027 0.0339
vt -2.2724 0.8027 0.1178
vt -3.1424 0.8027 0.2664
vt -3.6296 0.8027 0.3497
vt -4.4887 0.8027 0.4964
vt -5.2693 0.1652 0.6288
vt -5.2694 -1.1205 0.6269
vt 1.7482 1.0915 -0.1005
vt 3.8344 -10.7975 -0.1007
vt 3.8671 -10.7927 -0.1007
vt 1.7844 1.0977 -0.1005
vt -0.0977 -0.1005 -0.7844
vt 11.7927 -0.1007 -2.8671
vt 11.7893 -0.0259 -2.8906
vt -0.1022 -0.0258 -0.8104
vt 1.8104 1.1022 -0.0258
vt 3.8906 -10.7893 -0.0259
vt 3.9089 -10.7867 -0.0174
vt 1.8307 1.1057 -0.0172
vt 3.9265 -10.7841 -0.0090
vt 1.8502 1.1090 -0.0089
vt 3.9430 -10.7817 -0.0011
vt 1.8684 1.1122 -0.0010
vt 3.9575 -10.7796 0.0062
vt 1.8844 1.1149 0.0063
vt 3.9695 -10.7778 0.0126
vt 1.8977 1.1171 0.0127
vt 3.9810 -10.7761 0.0200
vt 1.9104 1.1194 0.0201
vt -0.1194 0.0201 -0.9104
vt 11.7761 0.0200 -2.9810
vt 11.7751 0.0288 -2.9884
vt -0.1208 0.0290 -0.9187
vt 11.7744 0.0394 -2.9929
vt -0.1217 0.0395 -0.9236
vt 11.7741 0.0465 -2.9948
vt -0.1220 0.0467 -0.9257
vt 11.7746 0.0599 -2.9917
vt -0.1215 0.0601 -0.9224
vt 11.7707 0.1258 -3.0176
vt -0.1263 0.1259 -0.9508
vt 1.9508 1.1263 0.1259
vt 4.0176 -10.7707 0.1258
vt 4.0265 -10.7694 0.1265
vt 1.9607 1.1280 0.1266
vt 4.0355 -10.7681 0.1293
vt 1.9708 1.1297 0.1295
vt -0.1297 0.1295 -0.9708
vt 11.7681 0.1293 -3.0355
vt 11.7676 0.1350 -3.0392
vt -0.1305 0.1351 -0.9749
vt 11.7630 0.2142 -3.0706
vt -0.1365 0.2144 -1.0096
vt 2.0096 1.1365 0.2144
vt 4.0706 -10.7630 0.2142
vt 4.0810 -10.7615 0.2126
vt 2.0210 1.1384 0.2128
vt 4.0906 -10.7601 0.2119
vt 2.0316 1.1402 0.2121
vt 4.0993 -10.7588 0.2117
vt 2.0413 1.1419 0.2118
vt 4.1104 -10.7571 0.2116
vt 2.0534 1.1440 0.2117
vt 4.1211 -10.7556 0.2123
vt 2.0654 1.1460 0.2124
vt 4.1320 -10.7540 0.2158
vt 2.0774 1.1481 0.2160
vt 4.1400 -10.7528 0.2236
vt 2.0863 1.1496 0.2237
vt -0.1503 0.2345 -1.0903
vt -0.1496 0.2237 -1.0863
vt 11.7528 0.2236 -3.1400
vt -0.7301 1.0884 0.3980
vt -1.0903 1.1503 0.2345
vt -3.1437 -10.7523 0.2344
vt -2.8181 -10.8000 0.3978
vt -2.8181 0.3978 -10.8000
vt -2.8671 -0.1007 -10.7927
vt -2.8344 -0.1007 -10.7975
vt -3.1400 0.2236 -10.7528
vt -3.1320 0.2158 -10.7540
vt -3.1211 0.2123 -10.7556
vt -3.1104 0.2116 -10.7571
vt -3.0993 0.2117 -10.7588
vt -3.0906 0.2119 -10.7601
vt -3.0810 0.2126 -10.7615
vt -3.0706 0.2142 -10.7630
vt -3.0392 0.1350 -10.7676
vt -3.0355 0.1293 -10.7681
vt -3.0265 0.1265 -10.7694
vt -3.0176 0.1258 -10.7707
vt -2.9917 0.0599 -10.7746
vt -2.9948 0.0465 -10.7741
vt -2.9929 0.0394 -10.7744
vt -2.9884 0.0288 -10.7751
vt -2.9810 0.0200 -10.7761
vt -2.9695 0.0126 -10.7778
vt -2.9575 0.0062 -10.7796
vt -2.9430 -0.0011 -10.7817
vt -2.9265 -0.0090 -10.7841
vt -2.9089 -0.0174 -10.7867
vt -2.8906 -0.0259 -10.7893
vt 1.9607 0.1266 1.1280
vt 1.9708 0.1295 1.1297
vt 1.9749 0.1351 1.1305
vt 1.9508 0.1259 1.1263
vt 2.0863 0.2237 1.1496
vt 2.0903 0.2345 1.1503
vt 1.7301 0.3980 1.0884
vt 2.0774 0.2160 1.1481
vt 2.0654 0.2124 1.1460
vt 2.0534 0.2117 1.1440
vt 2.0413 0.2118 1.1419
vt 2.0316 0.2121 1.1402
vt 2.0210 0.2128 1.1384
vt 2.0096 0.2144 1.1365
vt 1.7482 -0.1005 1.0915
vt 1.7844 -0.1005 1.0977
vt 1.8104 -0.0258 1.1022
vt 1.8307 -0.0172 1.1057
vt 1.8502 -0.0089 1.1090
vt 1.8684 -0.0010 1.1122
vt 1.8844 0.0063 1.1149
vt 1.8977 0.0127 1.1171
vt 1.9104 0.0201 1.1194
vt 1.9187 0.0290 1.1208
vt 1.9236 0.0395 1.1217
vt 1.9257 0.0467 1.1220
vt 1.9224 0.0601 1.1215
vt 1.8854 1.1151 -3.5296
vt 0.1614 11.7792 -3.5296
vt -0.0150 11.7491 -3.5281
vt -0.1154 -3.5045 -0.8869
vt -10.7794 -3.5045 0.8372
vt -10.7792 -3.5273 0.8385
vt 1.9139 1.1200 -3.5000
vt 0.1893 11.7840 -3.5000
vt 0.1654 11.7799 -3.5041
vt -0.1200 -3.4837 -0.9139
vt -10.7839 -3.4837 0.8107
vt -10.7840 -3.4985 0.8107
vt 1.9274 1.1223 -3.4823
vt 0.2025 11.7862 -3.4823
vt 0.1906 11.7842 -3.4836
vt -0.1220 -3.2574 -0.9258
vt -10.7859 -3.2574 0.7989
vt -10.7862 -3.4613 0.7977
vt 1.9889 1.1329 -3.2633
vt 0.2627 11.7965 -3.2633
vt 0.2011 11.7859 -3.2574
vt -0.1329 -3.2633 -0.9889
vt -0.1365 -3.2085 -1.0099
vt -10.8000 -3.2085 0.7167
vt -1.0099 1.1365 -3.2085
vt -0.7301 1.0884 -3.0732
vt 1.0150 11.7491 -3.0732
vt 1.0884 -3.0732 -0.7301
vt 1.0880 -3.5281 -0.7279
vt 11.7491 -3.5281 1.0150
vt -0.9258 -3.2574 1.1220
vt -0.7301 -3.0732 1.0884
vt -1.0099 -3.2085 1.1365
vt -0.9889 -3.2633 1.1329
vt -0.9274 -3.4823 1.1223
vt -0.9139 -3.4837 1.1200
vt -0.8869 -3.5045 1.1154
vt -0.9139 -3.5000 1.1200
vt -0.8854 -3.5296 1.1151
vt -0.7279 -3.5281 1.0880
vt 1.7279 1.0880 -3.5281
vt -10.7792 -3.5296 0.8386
vt -0.1151 -3.5296 -0.8854
vt 0.1628 11.7794 -3.5045
vt 1.8869 1.1154 -3.5045
vt -10.7840 -3.5000 0.8107
vt -0.1200 -3.5000 -0.9139
vt 0.1893 11.7839 -3.4837
vt 1.9139 1.1200 -3.4837
vt -10.7862 -3.4823 0.7975
vt -0.1223 -3.4823 -0.9274
vt 1.9258 1.1220 -3.2574
vt -10.7965 -3.2633 0.7373
vt 0.7167 11.8000 -3.2085
vt 11.7491 -3.1768 1.0150
vt 11.7491 -3.0732 1.0150
vt 0.2011 -3.2574 11.7859
vt 0.2627 -3.2633 11.7965
vt 0.2833 -3.2085 11.8000
vt -0.0150 -3.1768 11.7491
vt -0.0150 -3.0732 11.7491
vt -0.0150 -3.5281 11.7491
vt 0.2023 -3.4613 11.7862
vt 0.1628 -3.5045 11.7794
vt 0.1654 -3.5041 11.7799
vt 0.1893 -3.5000 11.7840
vt 0.8107 -3.5000 11.7840
vt 0.8107 -3.4985 11.7840
vt 0.8107 -3.4837 11.7839
vt 0.1893 -3.4837 11.7839
vt 0.1906 -3.4836 11.7842
vt 0.2025 -3.4823 11.7862
vt 0.1615 -3.5273 11.7792
vt 0.1614 -3.5296 11.7792
vt 0.5016 3.5862 0.9527
vt 0.5004 1.1206 0.3993
vt 0.4984 -2.5256 0.2984
vt 0.4984 -2.5864 0.0473
vt 0.4557 -0.8133 -0.3508
vt 0.4527 -0.7433 -0.3502
vt 1.1077 -0.8133 -0.4622
vt 1.1057 -0.7433 -0.4618
vt 1.7321 -0.8133 -0.5689
vt 1.7454 -0.7433 -0.5711
vt 2.8978 -0.8133 -0.7681
vt 2.8595 -0.7433 -0.7614
vt 3.3998 -0.8133 -0.8538
vt 3.3905 -0.7433 -0.8521
vt 3.8991 -0.8133 -0.9391
vt 3.9045 -0.7433 -0.9400
vt 4.4133 -0.8133 -1.0270
vt 4.4476 -0.7434 -1.0328
vt 5.5913 -0.8133 -1.2283
vt 5.5714 -0.7433 -1.2247
vt 6.0039 -0.8133 -1.2988
vt 6.0039 -0.7433 -1.2987
vt -2.8947 -2.2810 -10.4806
vt -2.8947 -2.1411 -10.4806
vt -1.3663 -4.9923 -0.7774
vt -1.2987 -5.0039 -0.7433
vt -1.2247 -4.5714 -0.7433
vt -1.2957 -4.5590 -0.7774
vt -1.0328 -3.4476 -0.7434
vt -1.1058 -3.4349 -0.7774
vt -0.9400 -2.9045 -0.7433
vt -1.0115 -2.8920 -0.7774
vt -0.8521 -2.3905 -0.7433
vt -0.9212 -2.3784 -0.7774
vt -0.7614 -1.8595 -0.7433
vt -0.8270 -1.8480 -0.7774
vt -0.5711 -0.7454 -0.7433
vt -0.6273 -0.7355 -0.7774
vt -0.4618 -0.1057 -0.7433
vt -0.5120 -0.0969 -0.7774
vt -0.3502 0.5473 -0.7433
vt -0.3940 0.5550 -0.7774
vt -0.2823 0.9448 -0.7433
vt -0.3223 0.9519 -0.7774
vt -10.3343 0.3696 0.9426
vt -8.3440 0.3680 0.9689
vt -8.3453 0.7101 0.9899
vt -10.3356 0.7117 0.9636
vt 9.3490 0.7581 0.2052
vt 9.3476 0.4160 0.1843
vt 11.3378 0.4172 0.1651
vt 11.3393 0.7593 0.1860
vt 0.0311 0.3680 -8.3440
vt 0.8157 0.4160 -8.3476
vt 0.7948 0.7581 -8.3490
vt 0.0101 0.7101 -8.3453
vt 0.0574 -10.3343 0.3696
vt 0.8349 -10.3378 0.4172
vt 0.8157 -8.3476 0.4160
vt 0.0311 -8.3440 0.3680
vt 0.9636 0.7117 -10.3356
vt 0.1860 0.7593 -10.3393
vt 0.1651 0.4172 -10.3378
vt 0.9426 0.3696 -10.3343
vt -10.1336 0.3705 0.9420
vt -10.1336 0.2546 0.9349
vt -8.5291 0.2533 0.9559
vt -8.5291 0.3692 0.9630
vt 9.5313 0.3978 0.4949
vt 9.5313 0.2819 0.4878
vt 11.1357 0.2830 0.4701
vt 11.1357 0.3989 0.4772
vt 0.9630 -8.5291 0.3692
vt 0.4949 -8.5313 0.3978
vt 0.4772 -10.1357 0.3989
vt 0.9420 -10.1336 0.3705
vt 0.0441 0.2533 -8.5291
vt 0.5122 0.2819 -8.5313
vt 0.5051 0.3978 -8.5313
vt 0.0370 0.3692 -8.5291
vt 0.0651 -10.1336 0.2546
vt 0.5299 -10.1357 0.2830
vt 0.5122 -8.5313 0.2819
vt 0.0441 -8.5291 0.2533
vt 0.9420 0.3705 -10.1336
vt 0.4772 0.3989 -10.1357
vt 0.4701 0.2830 -10.1357
vt 0.9349 0.2546 -10.1336
vt -2.1483 0.3225 0.9336
vt -0.1500 0.3665 0.8983
vt -0.1500 0.7144 0.9196
vt -2.1483 0.7121 0.9574
vt 1.1605 0.7629 0.1272
vt 1.1605 0.3733 0.1034
vt 3.1583 0.3711 0.1388
vt 3.1583 0.7607 0.1626
vt 0.1017 0.3665 -0.1500
vt 0.8966 0.3733 -0.1605
vt 0.8728 0.7629 -0.1605
vt 0.0804 0.7144 -0.1500
vt 0.0664 -2.1483 0.3225
vt 0.8612 -2.1583 0.3711
vt 0.8966 -0.1605 0.3733
vt 0.1017 -0.1500 0.3665
vt 0.9574 0.7121 -2.1483
vt 0.1626 0.7607 -2.1583
vt 0.1388 0.3711 -2.1583
vt 0.9336 0.3225 -2.1483
vt -1.9037 0.3623 0.9275
vt -1.9037 0.2465 0.9205
vt -0.3770 0.2482 0.8916
vt -0.3770 0.3641 0.8987
vt 1.3832 0.3931 0.4253
vt 1.3832 0.2772 0.4182
vt 2.9097 0.2755 0.4460
vt 2.9097 0.3914 0.4531
vt 0.8987 -0.3770 0.3641
vt 0.4253 -0.3832 0.3931
vt 0.4531 -1.9097 0.3914
vt 0.9275 -1.9037 0.3623
vt 0.1084 0.2482 -0.3770
vt 0.5818 0.2772 -0.3832
vt 0.5747 0.3931 -0.3832
vt 0.1013 0.3641 -0.3770
vt 0.0795 -1.9037 0.2465
vt 0.5540 -1.9097 0.2755
vt 0.5818 -0.3832 0.2772
vt 0.1084 -0.3770 0.2482
vt 0.9275 0.3623 -1.9037
vt 0.4531 0.3914 -1.9097
vt 0.4460 0.2755 -1.9097
vt 0.9205 0.2465 -1.9037
vt 0.9137 0.3231 0.9232
vt 2.9023 0.3676 0.8802
vt 2.9023 0.7155 0.9015
vt 0.9137 0.7127 0.9471
vt -1.8943 0.7634 0.1189
vt -1.8943 0.3738 0.0951
vt 0.0962 0.3714 0.1337
vt 0.0962 0.7610 0.1575
vt 0.1198 0.3676 2.9023
vt 0.9049 0.3738 2.8943
vt 0.8811 0.7634 2.8943
vt 0.0985 0.7155 2.9023
vt 0.0768 0.9137 0.3231
vt 0.8663 0.9038 0.3714
vt 0.9049 2.8943 0.3738
vt 0.1198 2.9023 0.3676
vt 0.9471 0.7127 0.9137
vt 0.1575 0.7610 0.9038
vt 0.1337 0.3714 0.9038
vt 0.9232 0.3231 0.9137
vt 1.1569 0.2369 0.9082
vt 2.6761 0.2390 0.8733
vt 2.6761 0.3549 0.8804
vt 1.1569 0.3528 0.9153
vt -1.6712 0.3835 0.4128
vt -1.6712 0.2676 0.4057
vt -0.1512 0.2657 0.4373
vt -0.1512 0.3816 0.4443
vt 0.8804 2.6761 0.3549
vt 0.4128 2.6712 0.3835
vt 0.4443 1.1512 0.3816
vt 0.9153 1.1569 0.3528
vt 0.1267 0.2390 2.6761
vt 0.5943 0.2676 2.6712
vt 0.5872 0.3835 2.6712
vt 0.1196 0.3549 2.6761
vt 0.0918 1.1569 0.2369
vt 0.5627 1.1512 0.2657
vt 0.5943 2.6712 0.2676
vt 0.1267 2.6761 0.2390
vt 0.9153 0.3528 1.1569
vt 0.4443 0.3816 1.1512
vt 0.4373 0.2657 1.1512
vt 0.9082 0.2369 1.1569
vt 6.8239 0.3290 0.8270
vt 8.8152 0.3731 0.7913
vt 8.8152 0.7209 0.8125
vt 6.8239 0.7186 0.8508
vt -7.8170 0.7667 0.0647
vt -7.8170 0.3771 0.0409
vt -5.8219 0.3756 0.0652
vt -5.8219 0.7652 0.0891
vt 0.2087 0.3731 8.8152
vt 0.9591 0.3771 8.8170
vt 0.9353 0.7667 8.8170
vt 0.1875 0.7209 8.8152
vt 0.1730 6.8239 0.3290
vt 0.9348 6.8219 0.3756
vt 0.9591 8.8170 0.3771
vt 0.2087 8.8152 0.3731
vt 0.8508 0.7186 6.8239
vt 0.0891 0.7652 6.8219
vt 0.0652 0.3756 6.8219
vt 0.8270 0.3290 6.8239
vt 7.0671 0.2408 0.8124
vt 8.5885 0.2426 0.7833
vt 8.5885 0.3586 0.7904
vt 7.0671 0.3568 0.8195
vt -7.5895 0.3859 0.3434
vt -7.5895 0.2700 0.3363
vt -6.0663 0.2686 0.3590
vt -6.0663 0.3846 0.3661
vt 0.7904 8.5885 0.3586
vt 0.3434 8.5895 0.3859
vt 0.3661 7.0663 0.3846
vt 0.8195 7.0671 0.3568
vt 0.2167 0.2426 8.5885
vt 0.6637 0.2700 8.5895
vt 0.6566 0.3859 8.5895
vt 0.2096 0.3586 8.5885
vt 0.1876 7.0671 0.2408
vt 0.6410 7.0663 0.2686
vt 0.6637 8.5895 0.2700
vt 0.2167 8.5885 0.2426
vt 0.8195 0.3568 7.0671
vt 0.3661 0.3846 7.0663
vt 0.3590 0.2686 7.0663
vt 0.8124 0.2408 7.0671
vt 9.3517 0.3725 0.8000
vt 11.3472 0.3743 0.7719
vt 11.3472 0.7221 0.7932
vt 9.3517 0.7204 0.8213
vt -10.3536 0.7664 0.0686
vt -10.3536 0.3769 0.0447
vt -8.3546 0.3763 0.0540
vt -8.3546 0.7659 0.0778
vt 0.2281 0.3743 11.3472
vt 0.9553 0.3769 11.3536
vt 0.9314 0.7664 11.3536
vt 0.2068 0.7221 11.3472
vt 0.2000 9.3517 0.3725
vt 0.9460 9.3546 0.3763
vt 0.9553 11.3536 0.3769
vt 0.2281 11.3472 0.3743
vt 0.8213 0.7204 9.3517
vt 0.0778 0.7659 9.3546
vt 0.0540 0.3763 9.3546
vt 0.8000 0.3725 9.3517
vt 4.2538 0.3281 0.8413
vt 6.2424 0.3725 0.8003
vt 6.2424 0.7204 0.8216
vt 4.2538 0.7177 0.8651
vt -5.2395 0.7672 0.0560
vt -5.2395 0.3776 0.0322
vt -3.2477 0.3756 0.0649
vt -3.2477 0.7652 0.0887
vt 0.1997 0.3725 6.2424
vt 0.9678 0.3776 6.2395
vt 0.9440 0.7672 6.2395
vt 0.1784 0.7204 6.2424
vt 0.1587 4.2538 0.3281
vt 0.9351 4.2477 0.3756
vt 0.9678 6.2395 0.3776
vt 0.1997 6.2424 0.3725
vt 0.8651 0.7177 4.2538
vt 0.0887 0.7652 4.2477
vt 0.0649 0.3756 4.2477
vt 0.8413 0.3281 4.2538
vt -1.0483 0.0005 0.0195
vt 1.0477 0.0005 0.9980
vt 1.0477 0.9995 0.9766
vt -1.0483 0.9995 -0.0020
vt -0.0712 0.0005 0.0469
vt 2.0597 0.0005 0.9922
vt 2.0597 0.9995 0.9414
vt -0.0712 0.9995 -0.0039
vt -0.0095 0.0005 1.0078
vt 2.0282 0.0005 0.0508
vt 2.0282 0.9995 0.0078
vt -0.0095 0.9995 0.9648
vt -0.0576 0.0005 0.9990
vt 2.0515 0.0005 0.0146
vt 2.0515 0.9995 0.0010
vt -0.0576 0.9995 0.9854
vt 0.2456 -0.7453 0.0078
vt 0.2692 1.8411 0.4203
vt 0.0625 1.8409 0.4197
vt -5.1563 -0.7272 -0.0048
vt 0.0410 1.8409 0.4196
vt -5.1541 -0.4763 0.0359
vt 0.0005 0.0005 0.9995
vt 0.9995 0.0005 0.9995
vt 0.9995 0.9995 0.9995
vt 0.0005 0.9995 0.9995
vt 0.5628 2.8146 1.4397
vt -4.9751 2.8146 2.3527
vt -4.9901 1.7457 2.3663
vt 0.5629 1.1261 1.4401
vt 0.4660 1.1963 0.6796
vt 0.4695 1.8773 0.7194
vt -5.1396 1.8769 0.7079
vt -5.1465 1.2314 0.6672
vt 0.0194 0.9995 0.9498
vt 0.9829 0.0030 0.9498
vt 0.9995 0.9987 0.9995
vt 0.9829 0.0030 0.0005
vt 0.0005 0.0005 0.0502
vt 0.9995 0.9987 0.0502
vt 0.0194 0.9995 0.0005
vt -1.1434 -1.3770 -0.8244
vt -0.3823 -1.3775 -0.6542
vt -0.3823 2.3120 -0.6542
vt -1.1434 2.3120 -0.8244
vt 1.6542 -1.3775 -0.3823
vt 2.2836 -1.3673 -0.2416
vt 2.2836 2.3120 -0.2416
vt 1.6542 2.3120 -0.3823
vt 1.2416 -1.3673 -1.2836
vt 2.0026 -1.3668 -1.4538
vt 2.0026 2.3120 -1.4538
vt 1.2416 2.3120 -1.2836
vt -1.4538 -1.3668 -1.0026
vt -0.8244 -1.3770 -1.1434
vt -0.8244 2.3120 -1.1434
vt -1.4538 2.3120 -1.0026
vt 6.7830 -4.0008 2.3304
vt 7.5530 -4.0014 2.4538
vt 7.5530 0.9670 2.4538
vt 6.7830 0.9670 2.3304
vt -1.4538 -4.0014 7.5530
vt -0.8171 -3.9876 7.6551
vt -0.8171 0.9670 7.6551
vt -1.4538 0.9670 7.5530
vt -6.6551 -3.9876 1.8171
vt -5.8850 -3.9869 1.6937
vt -5.8850 0.9670 1.6937
vt -6.6551 0.9670 1.8171
vt 1.6937 -3.9869 6.8850
vt 2.3304 -4.0008 6.7830
vt 2.3304 0.9670 6.7830
vt 1.6937 0.9670 6.8850
vt 4.6917 -8.4506 4.3491
vt 4.5326 -8.4506 4.5391
vt 4.3662 7.7221 4.0369
vt -1.1461 -2.6118 0.5295
vt -1.1324 2.0143 0.5319
vt -5.1337 1.8614 0.4076
vt 0.2590 1.8937 0.9593
vt 0.2321 -0.7529 0.6154
vt 0.3416 -0.7544 0.6156
vt 0.3616 1.8968 0.9912
vt 0.2572 1.8972 0.9899
vt 0.3634 1.8933 0.9606
vt 1.3027 1.8893 0.9716
vt 1.3029 1.8885 0.9554
vt 1.3037 1.8864 0.9136
vt 0.2600 1.8909 0.9014
vt -5.2696 3.5266 0.5473
vt -5.2696 3.4800 0.5473
vt -5.1975 3.4819 0.5635
vt -5.1847 3.5288 0.5663
vt -5.1974 -2.6118 0.5638
vt -5.2696 -2.6118 0.5476
vt 6.2710 -0.8367 0.6283
vt 6.2355 1.2226 0.9605
vt 6.1383 1.2288 0.9611
vt 6.1716 -0.8354 0.6281
vt 6.1402 1.2266 0.9312
vt 5.4270 1.2721 0.9353
vt 1.2421 1.5333 0.9206
# 1096 texture coords

g myyrivahe36
usemtl Material__390
s off
f 1/1/1 2/2/1 3/3/1 
f 3/3/2 4/4/2 1/1/2 
f 5/1/3 6/2/3 7/3/3 
f 7/3/4 8/4/4 5/1/4 
usemtl Material__237
f 9/1/5 10/2/5 11/3/5 
f 11/3/6 12/4/6 9/1/6 
usemtl Material__45
f 13/1/7 14/2/7 15/3/7 
f 15/3/8 16/4/8 13/1/8 
f 17/1/9 18/2/9 19/3/9 
f 19/3/10 20/4/10 17/1/10 
usemtl Material__37
f 21/2/11 22/3/11 23/4/11 
f 23/4/11 24/1/11 21/2/11 
f 25/1/5 26/2/5 27/3/5 
f 27/3/5 28/4/5 25/1/5 
f 29/2/11 30/3/11 31/4/11 
f 31/4/11 32/1/11 29/2/11 
f 33/2/5 34/3/5 35/4/5 
f 35/4/5 36/1/5 33/2/5 
usemtl Material__43
f 37/4/12 38/1/12 39/2/12 
f 39/2/12 40/3/12 37/4/12 
usemtl Material__37
f 41/2/13 42/3/13 43/4/13 
f 43/4/13 44/1/13 41/2/13 
f 45/2/14 46/3/14 47/4/14 
f 47/4/15 48/1/15 45/2/15 
f 49/1/16 50/2/16 51/3/16 
f 51/3/17 52/4/17 49/1/17 
f 53/2/18 54/3/18 55/4/18 
f 55/4/18 56/1/18 53/2/18 
usemtl wire_143224087
f 57/5/19 58/6/19 59/7/19 
f 59/7/20 60/8/20 57/5/20 
usemtl Material__448
f 59/9/21 58/10/21 61/11/21 
usemtl wire_143224087
f 62/12/22 63/13/22 64/14/22 
f 64/14/23 65/15/23 62/12/23 
f 60/8/24 59/7/24 65/15/24 
f 65/15/25 64/14/25 60/8/25 
usemtl katus
f 66/16/26 67/17/26 68/18/26 
f 69/19/27 70/20/27 71/21/27 
f 69/19/28 71/21/28 72/22/28 
f 69/19/29 72/22/29 67/17/29 
f 67/17/30 66/16/30 69/19/30 
f 73/23/31 70/20/31 74/24/31 
f 69/19/32 74/24/32 70/20/32 
usemtl Material__419
f 75/1/33 76/2/33 77/3/33 
f 77/3/33 78/4/33 75/1/33 
usemtl Material__404
f 79/2/34 80/3/34 81/4/34 
f 81/4/34 82/1/34 79/2/34 
f 83/2/35 84/3/35 85/4/35 
f 85/4/35 86/1/35 83/2/35 
usemtl Material__448
f 65/25/36 59/9/36 61/26/36 
usemtl Material__271
f 87/27/37 88/28/37 89/29/37 
f 90/30/38 91/31/38 92/32/38 
f 92/32/39 93/33/39 90/30/39 
f 94/34/40 95/35/40 96/36/40 
f 96/36/40 97/37/40 94/34/40 
f 98/38/40 99/39/40 100/40/40 
f 100/40/40 101/41/40 98/38/40 
f 102/42/40 103/43/40 104/44/40 
f 104/44/40 105/45/40 102/42/40 
f 106/46/40 107/47/40 88/28/40 
f 88/28/41 87/27/41 108/48/41 
f 108/48/42 109/49/42 88/28/42 
f 88/28/40 109/49/40 106/46/40 
f 110/50/40 111/51/40 112/52/40 
f 112/52/40 113/53/40 110/50/40 
f 114/54/40 115/55/40 116/56/40 
f 117/57/40 118/58/40 119/59/40 
f 119/59/40 120/60/40 117/57/40 
f 87/27/43 89/29/43 121/61/43 
f 121/61/44 122/62/44 87/27/44 
f 123/63/40 124/64/40 125/65/40 
f 125/65/40 126/66/40 123/63/40 
f 122/62/40 121/61/40 127/67/40 
f 120/60/40 119/59/40 128/68/40 
f 123/63/37 129/69/37 130/70/37 
f 130/70/40 124/64/40 123/63/40 
f 119/71/45 131/72/45 132/73/45 
f 132/73/46 128/74/46 119/71/46 
f 118/75/47 6/76/47 131/72/47 
f 131/72/48 119/71/48 118/75/48 
f 133/77/49 7/78/49 6/79/49 
f 6/79/49 118/80/49 133/77/49 
f 116/81/50 134/82/50 7/83/50 
f 7/83/51 133/84/51 116/81/51 
f 115/85/52 135/86/52 134/82/52 
f 134/82/53 116/81/53 115/85/53 
f 92/87/49 136/88/49 137/89/49 
f 137/89/49 105/90/49 92/87/49 
f 138/91/54 139/92/54 136/93/54 
f 136/93/55 92/94/55 138/91/55 
f 102/95/56 140/96/56 139/97/56 
f 139/97/56 138/98/56 102/95/56 
f 105/99/57 137/100/57 140/101/57 
f 140/101/58 102/102/58 105/99/58 
f 104/103/49 141/104/49 142/105/49 
f 142/105/59 97/106/59 104/103/59 
f 103/107/60 143/108/60 141/109/60 
f 141/109/61 104/110/61 103/107/61 
f 94/111/62 144/112/62 143/113/62 
f 143/113/63 103/114/63 94/111/63 
f 97/115/64 142/116/64 144/117/64 
f 144/117/65 94/118/65 97/115/65 
f 110/119/66 145/120/66 146/121/66 
f 146/121/66 107/122/66 110/119/66 
f 113/123/67 147/124/67 145/125/67 
f 145/125/68 110/126/68 113/123/68 
f 88/127/62 148/128/62 147/129/62 
f 147/129/62 113/130/62 88/127/62 
f 107/131/69 146/132/69 148/133/69 
f 148/133/70 88/134/70 107/131/70 
f 96/135/71 149/136/71 150/137/71 
f 150/137/71 111/138/71 96/135/71 
f 95/139/72 151/140/72 149/141/72 
f 149/141/73 96/142/73 95/139/73 
f 112/143/74 152/144/74 151/145/74 
f 151/145/74 95/146/74 112/143/74 
f 111/147/75 150/148/75 152/149/75 
f 152/149/76 112/150/76 111/147/76 
f 125/151/71 3/152/71 2/153/71 
f 2/153/66 89/154/66 125/151/66 
f 124/155/67 153/156/67 3/157/67 
f 3/157/68 125/158/68 124/155/68 
f 130/159/77 154/160/77 153/156/77 
f 153/156/78 124/155/78 130/159/78 
f 121/161/79 155/162/79 156/163/79 
f 156/163/80 127/164/80 121/161/80 
f 89/165/81 2/166/81 155/162/81 
f 155/162/69 121/161/69 89/165/69 
f 123/167/74 82/168/74 81/169/74 
f 81/169/74 101/170/74 123/167/74 
f 126/171/69 79/172/69 82/173/69 
f 82/173/82 123/174/82 126/171/82 
f 98/175/71 80/176/71 79/177/71 
f 79/177/71 126/178/71 98/175/71 
f 101/179/83 81/180/83 80/181/83 
f 80/181/72 98/182/72 101/179/72 
f 100/183/62 86/184/62 85/185/62 
f 85/185/62 120/186/62 100/183/62 
f 99/187/84 83/188/84 86/189/84 
f 86/189/85 100/190/85 99/187/85 
f 117/191/49 84/192/49 83/193/49 
f 83/193/59 99/194/59 117/191/59 
f 120/195/60 85/196/60 84/197/60 
f 84/197/86 117/198/86 120/195/86 
f 157/199/40 158/200/40 159/201/40 
f 159/201/40 160/202/40 157/199/40 
f 161/203/31 162/204/31 74/205/31 
f 163/206/31 161/203/31 74/205/31 
f 161/203/31 164/207/31 162/204/31 
f 165/208/31 162/204/31 164/207/31 
f 162/204/31 165/208/31 166/209/31 
f 167/210/87 168/211/87 162/204/87 
f 169/212/87 167/210/87 162/204/87 
f 166/209/31 169/212/31 162/204/31 
f 162/204/31 168/211/31 170/213/31 
f 171/214/88 162/204/88 170/213/88 
f 171/214/31 172/215/31 162/204/31 
f 173/216/89 174/217/89 68/218/89 
f 175/219/89 176/220/89 68/218/89 
f 177/221/40 163/222/40 176/223/40 
f 176/223/39 175/224/39 177/221/39 
f 178/225/90 163/222/90 177/221/90 
f 177/221/91 179/226/91 178/225/91 
f 163/222/92 178/225/92 180/227/92 
f 180/227/90 181/228/90 163/222/90 
f 163/222/93 181/228/93 182/229/93 
f 182/229/94 183/230/94 163/222/94 
f 184/231/90 161/232/90 163/222/90 
f 163/222/37 183/230/37 184/231/37 
f 180/227/40 185/233/40 186/234/40 
f 186/234/40 181/228/40 180/227/40 
f 164/235/40 187/236/40 188/237/40 
f 188/237/43 165/238/43 164/235/43 
f 189/239/95 190/240/95 191/241/95 
f 191/241/39 192/242/39 189/239/39 
f 193/243/90 189/239/90 192/242/90 
f 192/242/37 194/244/37 193/243/37 
usemtl kr_val
f 195/245/96 196/246/96 197/247/96 
f 197/247/97 198/248/97 195/245/97 
usemtl Material__271
f 199/249/37 200/250/37 201/251/37 
f 201/251/95 202/252/95 199/249/95 
f 203/253/40 199/249/40 202/252/40 
f 202/252/94 171/254/94 203/253/94 
f 171/254/38 170/255/38 203/253/38 
f 87/27/40 122/62/40 204/256/40 
f 204/256/40 205/257/40 87/27/40 
f 190/240/37 206/258/37 207/259/37 
f 207/259/94 208/260/94 190/240/94 
f 209/261/40 206/258/40 190/240/40 
f 190/240/98 189/239/98 209/261/98 
f 170/255/37 168/262/37 210/263/37 
f 210/263/38 203/253/38 170/255/38 
f 175/224/37 174/264/37 211/265/37 
f 211/265/40 177/221/40 175/224/40 
f 179/226/40 212/266/40 213/267/40 
f 213/267/40 178/225/40 179/226/40 
f 164/235/40 161/232/40 184/231/40 
f 184/231/40 187/236/40 164/235/40 
f 183/230/39 182/229/39 214/268/39 
f 214/268/40 215/269/40 183/230/40 
f 173/270/44 106/46/44 216/271/44 
f 216/271/40 217/272/40 173/270/40 
f 218/273/40 219/274/40 220/275/40 
f 220/275/40 221/276/40 218/273/40 
f 166/277/37 165/238/37 188/237/37 
f 188/237/39 222/278/39 166/277/39 
f 223/279/40 224/280/40 225/281/40 
f 225/281/39 226/282/39 223/279/39 
f 172/283/39 171/254/39 202/252/39 
f 202/252/37 227/284/37 172/283/37 
f 200/250/39 228/285/39 229/286/39 
f 229/286/37 201/251/37 200/250/37 
f 230/287/42 194/244/42 192/242/42 
f 192/242/99 231/288/99 230/287/99 
f 190/240/94 208/260/94 232/289/94 
f 232/289/40 191/241/40 190/240/40 
f 199/249/43 233/290/43 228/285/43 
f 228/285/100 200/250/100 199/249/100 
f 234/291/40 233/290/40 199/249/40 
f 199/249/40 235/292/40 234/291/40 
f 194/244/42 230/287/42 236/293/42 
f 236/293/40 193/243/40 194/244/40 
f 193/243/40 236/293/40 237/294/40 
f 237/294/44 238/295/44 193/243/44 
f 234/296/101 10/297/101 9/298/101 
f 9/298/102 233/299/102 234/296/102 
f 237/300/49 11/301/49 10/302/49 
f 10/302/49 234/303/49 237/300/49 
f 236/304/103 12/305/103 11/306/103 
f 11/306/104 237/307/104 236/304/104 
f 202/308/105 14/309/105 13/310/105 
f 13/310/106 227/311/106 202/308/106 
f 201/312/107 15/313/107 14/314/107 
f 14/314/49 202/315/49 201/312/49 
f 229/316/108 16/317/108 15/318/108 
f 15/318/109 201/319/109 229/316/109 
f 209/320/49 239/321/49 240/322/49 
f 240/322/49 238/323/49 209/320/49 
f 189/324/110 241/325/110 239/326/110 
f 239/326/111 209/327/111 189/324/111 
f 193/328/56 242/329/56 241/330/56 
f 241/330/56 189/331/56 193/328/56 
f 238/332/112 240/333/112 242/334/112 
f 242/334/113 193/335/113 238/332/113 
f 192/336/114 18/337/114 17/338/114 
f 17/338/57 231/339/57 192/336/57 
f 191/340/49 19/341/49 18/342/49 
f 18/342/49 192/343/49 191/340/49 
f 232/344/115 20/345/115 19/346/115 
f 19/346/116 191/347/116 232/344/116 
f 177/348/117 54/349/117 53/350/117 
f 53/350/117 179/351/117 177/348/117 
f 211/352/118 55/353/118 54/354/118 
f 54/354/119 177/355/119 211/352/119 
f 212/356/56 56/357/56 55/358/56 
f 55/358/56 211/359/56 212/356/56 
f 179/360/120 53/361/120 56/362/120 
f 56/362/121 212/363/121 179/360/121 
f 178/364/122 51/365/122 50/366/122 
f 50/366/122 180/367/122 178/364/122 
f 213/368/123 52/369/123 51/370/123 
f 51/370/124 178/371/124 213/368/124 
f 185/372/56 49/373/56 52/374/56 
f 52/374/56 213/375/56 185/372/56 
f 180/376/125 50/377/125 49/378/125 
f 49/378/126 185/379/126 180/376/126 
f 183/380/127 22/381/127 21/382/127 
f 21/382/127 184/383/127 183/380/127 
f 215/384/128 23/385/128 22/386/128 
f 22/386/129 183/387/129 215/384/129 
f 187/388/130 24/389/130 23/390/130 
f 23/390/130 215/391/130 187/388/130 
f 184/392/131 21/393/131 24/394/131 
f 24/394/132 187/395/132 184/392/132 
f 181/396/133 27/397/133 26/398/133 
f 26/398/133 182/399/133 181/396/133 
f 186/400/134 28/401/134 27/402/134 
f 27/402/135 181/403/135 186/400/135 
f 214/404/130 25/405/130 28/406/130 
f 28/406/136 186/407/136 214/404/136 
f 182/408/137 26/409/137 25/410/137 
f 25/410/138 214/411/138 182/408/138 
f 217/412/49 42/413/49 41/414/49 
f 41/414/49 218/415/49 217/412/49 
f 216/416/67 43/417/67 42/418/67 
f 42/418/139 217/419/139 216/416/139 
f 219/420/56 44/421/56 43/422/56 
f 43/422/56 216/423/56 219/420/56 
f 218/424/140 41/425/140 44/426/140 
f 44/426/141 219/427/141 218/424/141 
f 221/428/49 46/429/49 45/430/49 
f 45/430/49 160/431/49 221/428/49 
f 220/432/142 47/433/142 46/434/142 
f 46/434/143 221/435/143 220/432/143 
f 157/436/56 48/437/56 47/438/56 
f 47/438/56 220/439/56 157/436/56 
f 160/440/144 45/441/144 48/442/144 
f 48/442/145 157/443/145 160/440/145 
f 223/444/146 30/445/146 29/446/146 
f 29/446/146 188/447/146 223/444/146 
f 226/448/147 31/449/147 30/450/147 
f 30/450/148 223/451/148 226/448/148 
f 222/452/130 32/453/130 31/454/130 
f 31/454/130 226/455/130 222/452/130 
f 188/456/149 29/457/149 32/458/149 
f 32/458/150 222/459/150 188/456/150 
f 159/460/49 34/461/49 33/462/49 
f 33/462/146 224/463/146 159/460/146 
f 158/464/151 35/465/151 34/466/151 
f 34/466/152 159/467/152 158/464/152 
f 225/468/130 36/469/130 35/470/130 
f 35/470/136 158/471/136 225/468/136 
f 224/472/153 33/473/153 36/474/153 
f 36/474/154 225/475/154 224/472/154 
f 206/476/155 39/477/155 243/478/155 
f 243/478/156 207/479/156 206/476/156 
f 205/480/49 40/481/49 39/482/49 
f 39/482/49 206/483/49 205/480/49 
f 204/484/157 244/485/157 40/486/157 
f 40/486/158 205/487/158 204/484/158 
f 235/488/146 77/489/146 76/490/146 
f 76/490/49 210/491/49 235/488/49 
f 199/492/159 78/493/159 77/494/159 
f 77/494/159 235/495/159 199/492/159 
f 203/496/56 75/497/56 78/498/56 
f 78/498/56 199/499/56 203/496/56 
f 210/500/132 76/501/132 75/502/132 
f 75/502/160 203/503/160 210/500/160 
f 230/504/161 231/505/161 17/506/161 
f 17/506/49 20/507/49 243/508/49 
f 211/265/43 174/264/43 173/270/43 
f 173/270/40 217/272/40 211/265/40 
f 217/272/40 218/273/40 212/266/40 
f 212/266/40 211/265/40 217/272/40 
f 218/273/39 221/276/39 213/267/39 
f 213/267/40 212/266/40 218/273/40 
f 221/276/39 160/202/39 185/233/39 
f 185/233/39 213/267/39 221/276/39 
f 160/202/39 159/201/39 186/234/39 
f 186/234/39 185/233/39 160/202/39 
f 159/201/40 224/280/40 214/268/40 
f 214/268/43 186/234/43 159/201/43 
f 224/280/39 223/279/39 215/269/39 
f 215/269/40 214/268/40 224/280/40 
f 188/237/37 187/236/37 215/269/37 
f 215/269/39 223/279/39 188/237/39 
usemtl kr_val
f 245/509/162 195/245/162 198/248/162 
f 198/248/163 246/510/163 245/509/163 
f 247/511/164 248/512/164 245/509/164 
f 245/509/165 246/510/165 247/511/165 
f 249/513/166 248/512/166 247/511/166 
f 247/511/167 250/514/167 249/513/167 
f 251/515/168 249/513/168 250/514/168 
f 250/514/169 252/516/169 251/515/169 
f 253/517/170 251/515/170 252/516/170 
f 252/516/170 254/518/170 253/517/170 
f 255/519/171 256/520/171 253/517/171 
f 253/517/172 254/518/172 255/519/172 
f 257/521/173 258/522/173 256/520/173 
f 256/520/174 255/519/174 257/521/174 
f 259/523/175 258/522/175 257/521/175 
f 257/521/176 260/524/176 259/523/176 
usemtl Material__271
f 118/58/40 102/42/40 138/525/40 
f 138/525/40 133/526/40 118/58/40 
f 118/58/40 117/57/40 103/43/40 
f 103/43/40 102/42/40 118/58/40 
f 117/57/40 99/39/40 94/34/40 
f 94/34/40 103/43/40 117/57/40 
f 95/35/40 94/34/40 99/39/40 
f 99/39/40 98/38/40 95/35/40 
f 126/66/40 112/52/40 95/35/40 
f 95/35/40 98/38/40 126/66/40 
f 125/65/39 113/53/39 112/52/39 
f 112/52/40 126/66/40 125/65/40 
f 125/65/40 89/29/40 88/28/40 
f 88/28/39 113/53/39 125/65/39 
f 101/41/39 100/40/39 261/527/39 
f 101/41/40 261/527/40 262/528/40 
f 100/40/39 120/60/39 261/527/39 
f 123/63/40 101/41/40 262/528/40 
f 120/60/37 263/529/37 261/527/37 
f 107/47/40 106/46/40 264/530/40 
f 264/530/39 110/50/39 107/47/39 
f 110/50/40 264/530/40 265/531/40 
f 111/51/40 110/50/40 265/531/40 
f 265/531/40 266/532/40 111/51/40 
f 96/36/40 111/51/40 266/532/40 
f 266/532/39 267/533/39 96/36/39 
f 97/37/39 96/36/39 267/533/39 
f 267/533/40 268/534/40 97/37/40 
f 268/534/39 269/535/39 104/44/39 
f 104/44/40 97/37/40 268/534/40 
f 269/535/40 270/536/40 105/45/40 
f 105/45/39 104/44/39 269/535/39 
f 270/536/39 93/33/39 92/32/39 
f 92/32/40 105/45/40 270/536/40 
f 120/60/40 128/68/40 263/529/40 
f 123/63/40 262/528/40 129/69/40 
f 271/537/41 92/32/41 91/31/41 
f 271/537/37 138/525/37 92/32/37 
f 114/54/37 116/56/37 133/526/37 
f 133/526/177 272/538/177 114/54/177 
f 133/526/37 138/525/37 271/537/37 
f 271/537/177 272/538/177 133/526/177 
usemtl kr_val
f 273/539/49 274/540/49 275/541/49 
f 275/541/49 276/542/49 273/539/49 
f 276/543/178 275/544/178 277/545/178 
f 277/545/179 278/546/179 276/543/179 
f 278/547/180 277/548/180 279/549/180 
f 279/549/181 280/550/181 278/547/181 
f 280/550/182 279/549/182 281/551/182 
f 281/551/183 282/552/183 280/550/183 
f 282/552/184 281/551/184 283/553/184 
f 283/553/185 284/554/185 282/552/185 
f 284/554/186 283/553/186 285/555/186 
f 285/555/187 286/556/187 284/554/187 
f 286/556/188 285/555/188 287/557/188 
f 287/557/189 288/558/189 286/556/189 
f 288/558/190 287/557/190 289/559/190 
f 289/559/191 290/560/191 288/558/191 
f 290/561/192 289/562/192 291/563/192 
f 291/563/193 292/564/193 290/561/193 
f 292/564/194 291/563/194 293/565/194 
f 293/565/195 294/566/195 292/564/195 
f 294/566/196 293/565/196 295/567/196 
f 295/567/197 296/568/197 294/566/197 
f 296/568/198 295/567/198 297/569/198 
f 297/569/199 298/570/199 296/568/199 
f 298/570/200 297/569/200 299/571/200 
f 299/571/201 300/572/201 298/570/201 
f 300/573/202 299/574/202 301/575/202 
f 301/575/203 302/576/203 300/573/203 
f 302/576/204 301/575/204 303/577/204 
f 303/577/205 304/578/205 302/576/205 
f 304/579/206 303/580/206 305/581/206 
f 305/581/207 306/582/207 304/579/207 
f 306/582/208 305/581/208 307/583/208 
f 307/583/209 308/584/209 306/582/209 
f 308/585/210 307/586/210 309/587/210 
f 309/587/211 310/588/211 308/585/211 
f 310/588/212 309/587/212 311/589/212 
f 311/589/213 312/590/213 310/588/213 
f 312/590/214 311/589/214 313/591/214 
f 313/591/215 314/592/215 312/590/215 
f 314/592/216 313/591/216 315/593/216 
f 315/593/217 316/594/217 314/592/217 
f 316/594/218 315/593/218 317/595/218 
f 317/595/219 318/596/219 316/594/219 
f 318/596/220 317/595/220 319/597/220 
f 319/597/221 320/598/221 318/596/221 
f 320/598/222 319/597/222 69/599/222 
f 69/599/223 321/600/223 320/598/223 
f 66/601/224 321/602/224 69/603/224 
f 176/604/225 66/605/225 69/606/225 
f 69/606/226 163/607/226 176/604/226 
f 163/608/227 275/609/227 274/610/227 
f 69/611/228 319/612/228 163/608/228 
f 163/608/229 319/612/229 317/613/229 
f 317/613/230 315/614/230 163/608/230 
f 163/608/231 315/614/231 313/615/231 
f 313/615/232 311/616/232 163/608/232 
f 163/608/233 311/616/233 309/617/233 
f 309/617/234 307/618/234 163/608/234 
f 305/619/235 303/620/235 301/621/235 
f 301/621/236 299/622/236 305/619/236 
f 299/622/237 163/608/237 307/618/237 
f 307/618/238 305/619/238 299/622/238 
f 163/608/239 299/622/239 297/623/239 
f 297/623/240 295/624/240 163/608/240 
f 163/608/241 295/624/241 293/625/241 
f 293/625/242 291/626/242 163/608/242 
f 163/608/243 291/626/243 289/627/243 
f 289/627/244 287/628/244 163/608/244 
f 163/608/245 287/628/245 285/629/245 
f 285/629/246 283/630/246 163/608/246 
f 163/608/247 283/630/247 281/631/247 
f 281/631/248 279/632/248 163/608/248 
f 163/608/249 279/632/249 277/633/249 
f 277/633/250 275/609/250 163/608/250 
f 302/634/251 304/635/251 306/636/251 
f 306/636/252 300/637/252 302/634/252 
f 321/638/253 66/639/253 176/640/253 
f 176/640/254 320/641/254 321/638/254 
f 318/642/255 320/641/255 176/640/255 
f 176/640/256 316/643/256 318/642/256 
f 314/644/257 316/643/257 176/640/257 
f 176/640/258 312/645/258 314/644/258 
f 310/646/259 312/645/259 176/640/259 
f 176/640/260 308/647/260 310/646/260 
f 273/648/261 276/649/261 176/640/261 
f 176/640/262 276/649/262 278/650/262 
f 278/650/263 280/651/263 176/640/263 
f 176/640/264 280/651/264 282/652/264 
f 282/652/265 284/653/265 176/640/265 
f 176/640/266 284/653/266 286/654/266 
f 286/654/267 288/655/267 176/640/267 
f 176/640/268 288/655/268 290/656/268 
f 290/656/269 292/657/269 176/640/269 
f 176/640/270 292/657/270 294/658/270 
f 294/658/271 296/659/271 176/640/271 
f 176/640/272 296/659/272 298/660/272 
f 298/660/273 300/637/273 176/640/273 
f 300/637/274 306/636/274 308/647/274 
f 308/647/275 176/640/275 300/637/275 
f 322/661/276 323/662/276 324/663/276 
f 325/664/277 326/665/277 327/666/277 
f 328/667/278 329/668/278 330/669/278 
f 331/670/279 332/671/279 333/672/279 
f 334/673/280 335/674/280 336/675/280 
f 337/676/281 338/677/281 339/678/281 
f 340/679/282 341/680/282 338/681/282 
f 340/682/283 59/683/283 342/684/283 
f 59/685/284 343/686/284 62/687/284 
f 343/688/285 344/689/285 324/690/285 
f 337/691/286 343/692/286 59/693/286 
f 59/693/287 340/694/287 337/691/287 
f 337/691/288 334/695/288 331/696/288 
f 331/696/289 325/697/289 337/691/289 
f 331/696/290 328/698/290 325/697/290 
f 343/692/291 337/691/291 325/697/291 
f 325/697/292 322/699/292 343/692/292 
f 343/692/139 322/699/139 344/700/139 
f 344/701/293 322/661/293 324/663/293 
f 323/702/294 322/703/294 325/664/294 
f 325/664/295 327/666/295 323/702/295 
f 326/704/296 325/705/296 328/667/296 
f 328/667/297 330/669/297 326/704/297 
f 329/706/298 328/707/298 331/670/298 
f 331/670/299 333/672/299 329/706/299 
f 332/708/300 331/709/300 334/673/300 
f 334/673/301 336/675/301 332/708/301 
f 335/710/302 334/711/302 337/676/302 
f 337/676/303 339/678/303 335/710/303 
f 337/712/304 340/679/304 338/681/304 
f 341/713/305 340/682/305 65/684/305 
f 342/714/306 59/685/306 62/687/306 
f 343/688/307 324/690/307 345/715/307 
f 345/715/308 62/716/308 343/688/308 
f 338/717/309 341/718/309 65/719/309 
f 345/720/310 338/717/310 65/719/310 
f 62/721/311 345/720/311 65/719/311 
f 324/722/312 339/723/312 338/717/312 
f 338/717/313 345/720/313 324/722/313 
f 326/724/314 330/725/314 329/726/314 
f 329/727/315 333/728/315 332/729/315 
f 326/724/316 329/726/316 332/730/316 
f 336/731/317 335/732/317 339/723/317 
f 332/730/318 336/731/318 339/723/318 
f 326/724/319 332/730/319 339/723/319 
f 326/724/320 339/723/320 324/722/320 
f 327/733/321 326/724/321 324/722/321 
f 323/734/322 327/733/322 324/722/322 
usemtl Material__448
f 346/735/323 62/736/323 61/737/323 
f 61/737/324 62/736/324 65/738/324 
usemtl Material__271
f 108/48/90 87/27/90 205/257/90 
f 205/257/90 347/739/90 108/48/90 
f 109/49/39 348/740/39 216/271/39 
f 216/271/44 106/46/44 109/49/44 
f 347/739/90 205/257/90 206/258/90 
f 206/258/95 349/741/95 347/739/95 
f 348/740/39 350/742/39 219/274/39 
f 219/274/39 216/271/39 348/740/39 
f 209/261/325 351/743/325 349/741/325 
f 349/741/95 206/258/95 209/261/95 
f 219/274/39 350/742/39 352/744/39 
f 352/744/39 220/275/39 219/274/39 
f 353/745/325 351/743/325 209/261/325 
f 209/261/95 238/295/95 353/745/95 
f 352/744/40 354/746/40 157/199/40 
f 157/199/39 220/275/39 352/744/39 
f 355/747/95 353/745/95 238/295/95 
f 238/295/326 237/294/326 355/747/326 
f 354/746/40 356/748/40 158/200/40 
f 158/200/40 157/199/40 354/746/40 
f 355/747/327 237/294/327 234/291/327 
f 234/291/328 357/749/328 355/747/328 
f 356/748/37 358/750/37 225/281/37 
f 225/281/40 158/200/40 356/748/40 
f 235/292/329 359/751/329 357/749/329 
f 357/749/328 234/291/328 235/292/328 
f 225/281/40 358/750/40 360/752/40 
f 360/752/40 226/282/40 225/281/40 
f 210/263/330 361/753/330 359/751/330 
f 359/751/329 235/292/329 210/263/329 
f 226/282/40 360/752/40 362/754/40 
f 362/754/40 222/278/40 226/282/40 
f 167/755/330 361/753/330 210/263/330 
f 210/263/41 168/262/41 167/755/41 
f 362/754/37 169/756/37 166/277/37 
f 166/277/40 222/278/40 362/754/40 
usemtl kr_val
f 196/246/331 109/246/331 108/247/331 
f 108/247/332 197/247/332 196/246/332 
f 197/247/49 108/247/49 347/248/49 
f 347/248/49 198/248/49 197/247/49 
f 198/248/49 347/248/49 349/510/49 
f 349/510/49 246/510/49 198/248/49 
f 246/510/49 349/510/49 351/511/49 
f 351/511/49 247/511/49 246/510/49 
f 247/511/49 351/511/49 353/514/49 
f 353/514/49 250/514/49 247/511/49 
f 250/514/49 353/514/49 355/516/49 
f 355/516/49 252/516/49 250/514/49 
f 252/516/333 355/516/333 357/518/333 
f 357/518/334 254/518/334 252/516/334 
f 254/518/334 357/518/334 359/519/334 
f 359/519/334 255/519/334 254/518/334 
f 255/519/334 359/519/334 361/521/334 
f 361/521/49 257/521/49 255/519/49 
f 257/521/49 361/521/49 167/524/49 
f 167/524/49 260/524/49 257/521/49 
f 259/523/335 260/524/335 167/757/335 
f 167/757/336 169/758/336 259/523/336 
usemtl Material__271
f 259/759/337 169/760/337 362/761/337 
f 362/761/338 258/762/338 259/759/338 
f 258/762/339 362/761/339 360/763/339 
f 360/763/340 256/764/340 258/762/340 
f 256/764/341 360/763/341 358/765/341 
f 358/765/342 253/766/342 256/764/342 
f 253/766/343 358/765/343 356/767/343 
f 356/767/344 251/768/344 253/766/344 
f 251/768/345 356/767/345 354/769/345 
f 354/769/346 249/770/346 251/768/346 
f 249/770/347 354/769/347 352/771/347 
f 352/771/348 248/772/348 249/770/348 
f 248/772/349 352/771/349 350/773/349 
f 350/773/350 245/774/350 248/772/350 
f 245/774/351 350/773/351 348/775/351 
f 348/775/352 195/776/352 245/774/352 
f 195/776/353 348/775/353 109/777/353 
f 109/777/354 196/778/354 195/776/354 
usemtl betoon
f 363/779/355 364/780/355 365/781/355 
f 365/781/356 366/782/356 363/779/356 
f 367/783/357 368/784/357 369/785/357 
f 369/785/357 370/786/357 367/783/357 
f 364/787/358 368/788/358 367/789/358 
f 367/789/359 365/790/359 364/787/359 
f 363/791/56 369/792/56 368/793/56 
f 368/793/56 364/794/56 363/791/56 
f 366/795/360 370/796/360 369/797/360 
f 369/797/361 363/798/361 366/795/361 
f 371/799/362 8/800/362 5/801/362 
f 5/801/362 372/802/362 371/799/362 
f 373/803/363 374/804/363 375/805/363 
f 375/805/363 376/806/363 373/803/363 
f 372/807/49 373/808/49 376/809/49 
f 376/809/49 371/810/49 372/807/49 
f 5/811/364 374/812/364 373/813/364 
f 373/813/364 372/814/364 5/811/364 
f 8/815/56 375/816/56 374/817/56 
f 374/817/56 5/818/56 8/815/56 
f 371/819/365 376/820/365 375/821/365 
f 375/821/365 8/822/365 371/819/365 
f 377/823/366 378/824/366 379/825/366 
f 379/825/366 380/826/366 377/823/366 
f 381/827/367 382/828/367 383/829/367 
f 383/829/367 384/830/367 381/827/367 
f 378/831/368 382/832/368 381/833/368 
f 381/833/368 379/834/368 378/831/368 
f 377/835/56 383/836/56 382/837/56 
f 382/837/369 378/838/369 377/835/369 
f 380/839/370 384/840/370 383/841/370 
f 383/841/370 377/842/370 380/839/370 
f 385/843/366 4/844/366 1/845/366 
f 1/845/366 386/846/366 385/843/366 
f 387/847/371 388/848/371 389/849/371 
f 389/849/371 390/850/371 387/847/371 
f 386/851/49 387/852/49 390/853/49 
f 390/853/49 385/854/49 386/851/49 
f 1/855/368 388/856/368 387/857/368 
f 387/857/368 386/858/368 1/855/368 
f 4/859/56 389/860/56 388/861/56 
f 388/861/56 1/862/56 4/859/56 
f 385/863/82 390/864/82 389/865/82 
f 389/865/82 4/866/82 385/863/82 
f 391/867/372 392/868/372 393/869/372 
f 393/869/372 394/870/372 391/867/372 
f 395/871/373 396/872/373 397/873/373 
f 397/873/373 398/874/373 395/871/373 
f 392/875/72 396/876/72 395/877/72 
f 395/877/72 393/878/72 392/875/72 
f 391/879/56 397/880/56 396/881/56 
f 396/881/374 392/882/374 391/879/374 
f 394/883/375 398/884/375 397/885/375 
f 397/885/375 391/886/375 394/883/375 
f 399/887/372 400/888/372 401/889/372 
f 401/889/372 402/890/372 399/887/372 
f 403/891/376 404/892/376 405/893/376 
f 405/893/376 406/894/376 403/891/376 
f 401/895/49 403/896/49 406/897/49 
f 406/897/49 402/898/49 401/895/49 
f 400/899/73 404/900/73 403/901/73 
f 403/901/73 401/902/73 400/899/73 
f 399/903/56 405/904/56 404/905/56 
f 404/905/56 400/906/56 399/903/56 
f 402/907/377 406/908/377 405/909/377 
f 405/909/377 399/910/377 402/907/377 
f 407/911/378 408/912/378 409/913/378 
f 409/913/378 410/914/378 407/911/378 
f 411/915/379 412/916/379 413/917/379 
f 413/917/379 414/918/379 411/915/379 
f 408/919/380 412/920/380 411/921/380 
f 411/921/380 409/922/380 408/919/380 
f 407/923/56 413/924/56 412/925/56 
f 412/925/381 408/926/381 407/923/381 
f 410/927/382 414/928/382 413/929/382 
f 413/929/382 407/930/382 410/927/382 
f 415/931/383 416/932/383 417/933/383 
f 417/933/383 418/934/383 415/931/383 
f 419/935/384 420/936/384 421/937/384 
f 421/937/384 422/938/384 419/935/384 
f 417/939/49 419/940/49 422/941/49 
f 422/941/49 418/942/49 417/939/49 
f 416/943/385 420/944/385 419/945/385 
f 419/945/385 417/946/385 416/943/385 
f 415/947/56 421/948/56 420/949/56 
f 420/949/56 416/950/56 415/947/56 
f 418/951/386 422/952/386 421/953/386 
f 421/953/386 415/954/386 418/951/386 
f 423/955/387 424/956/387 425/957/387 
f 425/957/387 426/958/387 423/955/387 
f 427/959/388 428/960/388 429/961/388 
f 429/961/388 430/962/388 427/959/388 
f 424/963/389 428/964/389 427/965/389 
f 427/965/389 425/966/389 424/963/389 
f 423/967/390 429/968/390 428/969/390 
f 428/969/391 424/970/391 423/967/391 
f 426/971/392 430/972/392 429/973/392 
f 429/973/392 423/974/392 426/971/392 
f 431/975/393 432/976/393 433/977/393 
f 433/977/393 434/978/393 431/975/393 
f 435/979/394 436/980/394 437/981/394 
f 437/981/394 438/982/394 435/979/394 
f 432/983/395 436/984/395 435/985/395 
f 435/985/395 433/986/395 432/983/395 
f 431/987/56 437/988/56 436/989/56 
f 436/989/396 432/990/396 431/987/396 
f 434/991/397 438/992/397 437/993/397 
f 437/993/397 431/994/397 434/991/397 
usemtl Material__404
f 147/995/398 148/996/398 146/997/398 
f 146/997/398 145/998/398 147/995/398 
f 151/999/34 152/1000/34 150/1001/34 
f 150/1001/34 149/1002/34 151/999/34 
f 143/1003/399 144/1004/399 142/1005/399 
f 142/1005/399 141/1006/399 143/1003/399 
f 139/1007/400 140/1008/400 137/1009/400 
f 137/1009/400 136/1010/400 139/1007/400 
usemtl katus
f 58/1011/401 439/1012/401 440/1013/401 
f 440/1013/402 61/1014/402 58/1011/402 
f 441/1015/403 346/1016/403 61/1014/403 
f 61/1014/404 440/1013/404 441/1015/404 
usemtl aken192b
f 240/2/96 239/3/96 241/4/96 
f 241/4/405 242/1/405 240/2/405 
usemtl myyrivahe34_korssten
f 442/1017/56 443/1018/56 444/1019/56 
f 444/1019/56 445/1020/56 442/1017/56 
f 446/1017/56 447/1018/56 448/1019/56 
f 448/1019/56 449/1020/56 446/1017/56 
usemtl Material__271
f 450/1021/406 451/1022/406 452/1023/406 
f 452/1023/407 453/1024/407 450/1021/407 
usemtl katus
f 450/1025/408 454/1026/408 455/1027/408 
f 455/1027/409 451/1028/409 450/1025/409 
usemtl Roof_Windows
f 456/1029/410 457/1017/410 458/1030/410 
f 458/1030/411 459/1031/411 456/1029/411 
f 460/1032/412 458/1030/412 457/1017/412 
f 457/1017/412 461/1033/412 460/1032/412 
f 462/1034/413 459/1031/413 458/1030/413 
f 458/1030/414 460/1032/414 462/1034/414 
f 463/1035/415 456/1029/415 459/1031/415 
f 459/1031/415 462/1034/415 463/1035/415 
f 461/1033/416 457/1017/416 456/1029/416 
f 456/1029/417 463/1035/417 461/1033/417 
usemtl kr_val
f 464/1036/418 465/1037/418 443/1038/418 
f 443/1038/418 442/1039/418 464/1036/418 
f 465/1040/419 466/1041/419 444/1042/419 
f 444/1042/419 443/1043/419 465/1040/419 
f 466/1044/420 467/1045/420 445/1046/420 
f 445/1046/420 444/1047/420 466/1044/420 
f 467/1048/421 464/1049/421 442/1050/421 
f 442/1050/421 445/1051/421 467/1048/421 
f 468/1052/422 469/1053/422 447/1054/422 
f 447/1054/422 446/1055/422 468/1052/422 
f 469/1056/423 470/1057/423 448/1058/423 
f 448/1058/423 447/1059/423 469/1056/423 
f 470/1060/424 471/1061/424 449/1062/424 
f 449/1062/424 448/1063/424 470/1060/424 
f 471/1064/425 468/1065/425 446/1066/425 
f 446/1066/425 449/1067/425 471/1064/425 
usemtl wire_143224087
f 57/5/426 472/1068/426 439/1069/426 
f 439/1069/426 58/6/426 57/5/426 
f 63/13/427 62/12/427 473/1070/427 
usemtl Material__271
f 68/218/428 474/1071/428 475/1072/428 
f 475/1072/429 173/216/429 68/218/429 
f 175/219/429 68/218/429 174/217/429 
usemtl katus
f 441/1015/430 439/1012/430 476/1073/430 
f 476/1073/431 346/1016/431 441/1015/431 
f 68/18/432 67/17/432 477/1074/432 
f 478/1075/433 479/1076/433 480/1077/433 
f 480/1077/434 481/1078/434 478/1075/434 
f 482/1079/435 483/1080/435 484/1081/435 
f 477/1074/436 482/1079/436 484/1081/436 
f 477/1074/437 484/1081/437 68/18/437 
f 68/18/438 484/1081/438 485/1082/438 
f 485/1082/439 486/1083/439 68/18/439 
usemtl Material__271
f 73/1084/440 74/1085/440 487/1086/440 
f 487/1086/441 488/1087/441 73/1084/441 
f 487/1086/442 74/1085/442 489/1088/442 
f 489/1088/443 74/1085/443 162/1089/443 
usemtl katus
f 490/1090/444 491/1091/444 492/1092/444 
f 492/1092/445 493/1093/445 490/1090/445 
f 72/22/446 71/21/446 494/1094/446 
f 494/1094/447 495/1095/447 496/1096/447 
f 72/22/448 494/1094/448 496/1096/448 
f 72/22/449 496/1096/449 483/1080/449 
f 72/22/450 483/1080/450 482/1079/450 
f 477/1074/451 67/17/451 478/1075/451 
f 478/1075/451 481/1078/451 477/1074/451 
f 67/17/452 72/22/452 479/1076/452 
f 479/1076/453 478/1075/453 67/17/453 
f 72/22/454 482/1079/454 480/1077/454 
f 480/1077/455 479/1076/455 72/22/455 
f 482/1079/456 477/1074/456 481/1078/456 
f 481/1078/457 480/1077/457 482/1079/457 
f 71/21/458 70/20/458 490/1090/458 
f 490/1090/458 493/1093/458 71/21/458 
f 70/20/459 73/23/459 491/1091/459 
f 491/1091/460 490/1090/460 70/20/460 
f 73/23/461 494/1094/461 492/1092/461 
f 492/1092/461 491/1091/461 73/23/461 
f 494/1094/462 71/21/462 493/1093/462 
f 493/1093/462 492/1092/462 494/1094/462 
# 0 polygons - 828 triangles

#
# object xxx
#

v  542526.7883 6588971.2601 6.7724
v  542531.513 6588970.4544 16.0195
v  542531.5135 6588970.4543 6.7826
v  542526.7974 6588971.2593 12.7814
v  542526.7974 6588971.2593 13.6072
v  542526.7968 6588971.2594 12.3323
v  542526.7929 6588971.2597 9.7610
v  542526.7977 6588971.2597 13.6072
v  542526.9428 6588971.2346 13.8028
v  542530.2446 6588970.6711 17.6311
v  542531.513 6588970.4545 17.8968
v  542531.5131 6588970.4544 16.1031
v  542530.2718 6588970.701 15.4934
v  542529.7582 6588959.3743 17.8925
v  542529.7583 6588959.3743 16.0988
v  542529.7582 6588959.3743 16.0152
v  542529.8314 6588959.7798 6.7784
v  542528.8152 6588957.9514 19.0713
v  542526.9888 6588949.7662 19.0958
v  542526.9888 6588949.7662 19.0026
v  542528.8152 6588957.9514 18.9781
v  542526.6661 6588948.3259 18.9657
v  542526.6718 6588948.3515 19.0596
v  542529.4939 6588957.719 19.2943
v  542529.4939 6588957.719 19.3875
v  542526.9895 6588949.7663 6.7783
v  542528.8159 6588957.9514 6.7783
v  542526.6668 6588948.326 6.7783
v  542529.4946 6588957.719 6.7784
v  542529.4955 6588957.719 6.8081
v  542529.8307 6588959.7799 18.9824
v  542529.4942 6588957.7192 19.0412
# 32 vertices

vn 0.1681 0.9858 0.0000
vn 0.1682 0.9858 0.0001
vn 0.1683 0.9857 -0.0001
vn 0.1683 0.9857 0.0000
vn 0.1671 0.9859 0.0025
vn 0.1671 0.9859 0.0024
vn 0.1757 0.9844 0.0063
vn 0.1807 0.9835 0.0106
vn 0.1872 0.9822 0.0161
vn 0.9877 -0.1564 0.0001
vn 0.9877 -0.1564 -0.0007
vn 0.9877 -0.1561 0.0005
vn 0.9760 -0.2178 -0.0002
vn 0.9758 -0.2187 -0.0001
vn -0.3240 -0.9461 0.0000
vn 0.9760 -0.2178 0.0001
vn 0.9758 -0.2187 0.0001
vn 0.9870 -0.1610 0.0001
# 18 vertex normals

vt 24.9326 -58.6166 116.4385
vt -21.8474 17.9159 108.4599
vt -21.8465 -61.1908 108.4600
vt 24.9399 -3.2488 116.4398
vt 24.9397 5.0090 116.4396
vt -21.8474 28.9322 108.4599
vt 24.9399 -7.7400 116.4398
vt -21.8474 28.6593 108.4599
vt -21.8474 19.5439 108.4599
vt 24.9326 -33.4530 116.4385
vt 24.9326 -37.4450 116.4385
vt -21.8474 18.3692 108.4599
vt 23.0190 6.9641 116.1121
vt -21.8474 29.1305 108.4599
vt -1.0427 1.2578 -5.1263
vt -1.3081 -0.0290 -5.1263
vt 2.2395 0.0572 -5.1263
vt 2.3342 1.2578 -5.1263
vt -21.8474 29.1520 108.4599
vt -21.8834 29.9665 108.4538
vt -5.1246 1.1475 0.8548
vt 6.1283 1.1843 0.7687
vt 1.8481 2.4336 0.9417
vt 10.2250 2.0321 0.9457
vt 11.7335 1.9576 0.9392
vt 1.9615 3.1473 0.9943
vt -0.1265 3.1261 0.9844
# 27 texture coords

g xxx
usemtl xxx
s 1
f 497/1097/463 498/1098/463 499/1099/463 
s off
f 500/1100/464 501/1101/464 498/1102/464 
s 2
f 502/1103/465 500/1100/465 498/1104/466 
s off
f 502/1103/465 498/1105/465 503/1106/465 
f 503/1107/465 498/1108/465 497/1097/465 
s 2
f 504/1101/467 505/1109/468 498/1110/466 
s 64
f 506/1111/469 507/1112/466 508/1113/470 509/1114/471 
s 2
f 498/1115/466 505/1109/468 508/1116/466 
s off
f 507/1117/472 510/1118/472 511/1118/472 508/1117/472 
f 512/1118/473 498/1117/473 508/1117/473 511/1118/473 
f 498/1117/474 512/1118/474 513/1118/474 499/1117/474 
f 514/1119/475 515/1120/475 516/1120/475 517/1119/475 
f 518/1121/476 516/1120/476 515/1120/476 519/1121/476 
f 514/1119/477 517/1119/477 520/1122/477 521/1122/477 
f 516/1120/478 522/1120/478 523/1119/478 517/1119/478 
f 518/1121/479 524/1121/479 522/1120/479 516/1120/479 
f 523/1119/477 525/1122/477 520/1122/477 517/1119/477 
f 526/1122/480 513/1123/480 527/1123/480 528/1122/480 
# 11 polygons - 7 triangles

