# 3ds Max Wavefront OBJ Exporter v0.97b - (c)2007 guruware
# File Created: 17.10.2011 15:07:24

mtllib Pikk_64_2.mtl

#
# object Pikk64_2
#

v  241.443573 473.921936 16.088253
v  242.813431 479.392334 16.088253
v  242.271454 479.659973 16.088253
v  240.713730 473.801849 16.088253
v  241.443573 473.921936 4.919214
v  241.443573 473.921936 11.868783
v  235.811020 473.134338 11.868783
v  235.811035 473.134338 4.919214
v  241.871170 475.629486 11.868783
v  244.236664 486.788147 4.919215
v  244.236664 486.788147 11.315085
v  244.641129 486.691650 11.315085
v  244.641129 486.691650 4.919215
v  237.703461 480.667053 4.919215
v  237.703461 480.667053 11.868783
v  238.981949 485.773041 11.868783
v  238.981949 485.773041 4.919215
v  242.813431 479.392334 4.919215
v  244.091934 484.498322 4.919215
v  242.893112 479.710571 11.868783
v  242.813431 479.392334 11.868783
v  232.891495 472.736847 4.919214
v  232.891479 472.736847 11.868783
v  235.413025 481.240570 11.868783
v  235.413025 481.240570 4.919215
v  235.811020 473.134338 14.638329
v  237.703461 480.667053 14.639676
v  235.413010 481.240570 14.083107
v  232.891479 472.736847 14.085871
v  237.296280 481.346283 14.336481
v  235.013046 481.941681 13.783491
v  235.013046 481.941681 13.952089
v  237.296280 481.346283 14.505078
v  243.553726 484.628296 15.042179
v  244.091934 484.498322 15.042179
v  241.443573 473.921936 15.361781
v  241.443573 473.921936 15.567845
v  235.811020 473.134338 14.469731
v  235.811020 473.134338 14.263668
v  242.813431 479.392334 15.567846
v  242.813431 479.392334 15.361782
v  238.778351 486.112671 14.358875
v  243.635162 484.896545 14.421697
v  243.635162 484.896545 14.368633
v  238.778351 486.112671 14.305812
v  237.499908 481.006714 14.403913
v  237.499908 481.006714 14.350849
v  244.091934 484.498322 14.495342
v  244.091934 484.498322 14.289278
v  232.614120 472.698578 13.852356
v  235.212479 481.591431 13.849592
v  235.212479 481.591431 13.796528
v  232.614120 472.698578 13.799292
v  232.891479 472.736847 13.917273
v  232.891479 472.736847 13.711208
v  237.703461 480.667053 13.533661
v  235.413010 481.240570 13.533661
v  235.413010 481.240570 13.708445
v  237.703461 480.667053 14.265015
v  244.159943 484.769958 14.980206
v  243.635162 484.896545 14.980206
v  244.159943 484.769958 14.429451
v  244.159943 484.769958 14.598048
v  244.091934 484.498322 14.663939
v  238.981949 485.773041 14.218702
v  238.931046 485.857941 14.202230
v  244.108932 484.566223 14.272806
v  238.981949 485.773041 14.593364
v  238.778351 486.112671 14.527472
v  237.499908 481.006714 14.572510
v  237.652573 480.751953 14.248223
v  235.362885 481.328278 13.692216
v  235.212479 481.591431 14.018188
v  232.614120 472.698578 14.020954
v  232.822144 472.727295 13.694980
v  232.702530 472.710785 13.819984
v  232.822144 472.727295 13.769979
v  243.635162 484.896545 14.590294
v  240.713730 473.801849 15.579829
v  242.813431 479.392334 15.736444
v  241.443573 473.921936 15.736443
v  238.574738 486.452301 14.461372
v  243.703171 485.168182 14.524194
v  243.703171 485.168182 14.355597
v  238.574738 486.452301 14.292776
v  232.336792 472.659973 13.954855
v  232.336792 472.659973 13.786259
v  244.159943 484.769958 14.376387
v  244.138260 484.683380 14.397390
v  243.553726 484.628296 14.656001
v  242.271454 479.659973 15.597759
v  238.931046 485.857941 14.277229
v  238.843246 486.004425 14.248815
v  244.138260 484.683380 14.319389
v  244.108932 484.566223 14.347805
v  237.564789 480.898438 14.294258
v  237.652573 480.751953 14.323223
v  235.362885 481.328278 13.767216
v  235.276398 481.479584 13.739220
v  232.702530 472.710785 13.741984
v  238.843246 486.004425 14.326815
v  237.564789 480.898438 14.372258
v  235.276398 481.479584 13.817220
v  242.813431 479.392334 16.034857
v  241.443573 473.921936 16.034857
v  244.091934 484.498322 14.988783
v  244.159943 484.769958 14.926811
v  243.635162 484.896545 14.926811
v  243.553726 484.628296 14.988783
v  242.271454 479.659973 16.034857
v  240.713730 473.801849 16.034857
v  242.837677 479.386261 16.088253
v  241.463791 473.899719 16.088253
v  241.463791 473.899719 16.034857
v  242.837677 479.386261 16.034857
v  244.116180 484.492249 15.042179
v  244.116180 484.492249 14.988783
v  244.190262 484.788116 14.974875
v  244.190262 484.788116 14.921480
v  243.618500 484.927734 14.974875
v  243.618500 484.927734 14.921480
v  243.529678 484.635132 14.988783
v  243.529633 484.635010 15.042179
v  242.247269 479.666290 16.034857
v  242.247269 479.666290 16.088253
v  240.681458 473.774200 16.088253
v  240.681458 473.774200 16.034857
v  241.443573 473.921936 13.533661
v  235.811020 473.134338 13.533661
v  242.655319 479.431946 13.533661
v  242.435272 478.553192 13.533661
v  242.435272 478.553192 11.868783
v  242.655319 479.431946 11.868783
v  238.981949 485.773041 13.533661
v  240.050781 485.505402 13.533661
v  240.050781 485.505402 11.868783
v  244.091934 484.498322 11.868783
v  244.091934 484.498322 13.533661
v  242.893112 479.710571 13.533661
v  232.891479 472.736847 13.533661
v  242.813431 479.392334 13.533661
v  242.593384 478.513611 13.533661
v  240.050888 485.505402 13.883505
v  240.050781 485.505402 11.295831
v  241.240036 485.207642 8.039793
v  241.240051 485.207642 10.036463
v  243.241806 484.706421 11.241137
v  243.241806 484.706421 4.919215
v  241.240067 485.207642 11.868783
v  243.687469 484.594818 11.547518
v  244.236664 486.788147 11.547518
v  243.791000 486.899750 4.919215
v  243.791000 486.899750 11.241137
v  244.091934 484.498322 11.315085
v  243.687469 484.594818 11.315085
v  241.240067 485.207642 13.533661
v  241.240067 485.207642 11.295831
v  241.220383 485.129059 13.533661
v  241.220383 485.129059 11.868783
v  240.031113 485.426849 11.868783
v  240.031113 485.426849 13.533661
v  241.220383 485.129059 11.295831
v  240.031113 485.426849 11.295831
v  240.050995 485.505371 4.919215
v  240.050888 485.505402 8.039793
v  241.240005 485.207642 4.919215
v  241.240051 485.207642 10.418725
v  240.050812 485.505402 10.418725
v  240.050827 485.505402 10.036463
v  240.031143 485.426819 10.036463
v  241.220383 485.129059 10.036463
v  241.220367 485.129059 8.039793
v  240.031219 485.426819 8.039793
v  241.240036 485.207642 13.891650
v  242.735001 479.750183 11.868783
v  242.735001 479.750183 13.533661
v  242.173386 476.836365 13.533661
v  242.173386 476.836365 11.868783
v  242.593384 478.513611 11.868783
v  241.713043 475.669067 13.533661
v  241.713043 475.669067 11.868783
v  242.015274 476.875977 11.868783
v  242.015274 476.875977 13.533661
v  241.871170 475.629486 13.533661
# 184 vertices

vn -0.000007 0.000008 1.000000
vn 0.030807 0.087386 0.995698
vn 0.038333 0.100353 0.994213
vn 0.000006 0.000007 1.000000
vn 0.138479 -0.990365 -0.000000
vn 0.136691 -0.990614 -0.000000
vn 0.970048 -0.242912 -0.000000
vn 0.970048 -0.242912 0.000000
vn 0.237474 0.971394 0.000000
vn 0.235412 0.971896 0.000000
vn 0.232046 0.972705 0.000000
vn -0.970053 0.242893 -0.000000
vn 0.970051 -0.242903 -0.000000
vn 0.970053 -0.242894 -0.000000
vn 0.970053 -0.242893 -0.000000
vn -0.958739 0.284287 -0.000000
vn -0.958739 0.284287 -0.000001
vn 0.134903 -0.990859 -0.000000
vn 0.134904 -0.990859 0.000000
vn -0.196627 0.054056 0.978987
vn -0.207283 0.055702 0.976694
vn -0.215382 0.057249 0.974850
vn -0.220260 0.064982 0.973274
vn 0.252336 0.967640 0.000000
vn 0.052828 0.199554 0.978462
vn 0.049085 0.199614 0.978644
vn 0.151531 -0.988423 -0.007625
vn 0.136691 -0.990614 0.000000
vn 0.970051 -0.242903 0.000000
vn 0.242894 0.970053 -0.000000
vn 0.237312 0.971433 -0.000004
vn 0.238755 0.971080 -0.000007
vn 0.242894 0.970053 0.000000
vn -0.970055 0.242884 0.000000
vn 0.970053 -0.242893 0.000000
vn -0.959866 0.280459 0.000000
vn 0.135818 -0.990734 0.000001
vn 0.135570 -0.990768 -0.000001
vn 0.242893 0.970053 0.000000
vn 0.048247 0.208212 0.976893
vn 0.056674 0.201689 0.977809
vn 0.970053 -0.242892 0.000000
vn 0.087138 -0.139182 -0.986426
vn 0.087149 -0.139134 -0.986431
vn -0.042761 -0.225302 -0.973350
vn -0.042786 -0.225407 -0.973325
vn -0.083983 0.134917 0.987291
vn -0.086698 0.140056 0.986341
vn -0.219058 0.061304 0.973784
vn 0.218918 -0.061380 -0.973811
vn 0.218974 -0.061294 -0.973804
vn 0.215640 -0.057189 -0.974797
vn 0.215436 -0.057232 -0.974839
vn -0.216559 0.059725 0.974441
vn -0.238680 0.069458 0.968611
vn 0.236529 -0.070451 -0.969067
vn 0.236323 -0.070388 -0.969122
vn 0.136730 -0.990608 0.000004
vn 0.136735 -0.990608 -0.000001
vn 0.234541 0.972106 0.000000
vn 0.247652 0.968849 0.000000
vn 0.160355 -0.983249 -0.086645
vn 0.137084 -0.990559 -0.001113
vn 0.242894 0.970053 -0.000002
vn -0.970055 0.242887 -0.000001
vn -0.970055 0.242887 0.000000
vn -0.970055 0.242887 -0.000000
vn -0.960855 0.277050 0.000000
vn 0.135696 -0.990751 0.000000
vn 0.970053 -0.242892 0.000001
vn 0.970054 -0.242890 0.000007
vn 0.137198 -0.990544 0.000000
vn 0.137128 -0.990553 0.000001
vn 0.234541 0.972106 -0.000000
vn 0.043870 0.225480 0.973260
vn 0.043882 0.225432 0.973270
vn -0.086821 0.140043 0.986332
vn 0.970053 -0.242893 0.000003
vn 0.970053 -0.242894 0.000003
vn -0.044464 -0.225285 -0.973278
vn 0.087168 -0.139757 -0.986342
vn 0.087089 -0.140078 -0.986303
vn -0.044585 -0.225669 -0.973183
vn -0.219012 0.061945 0.973754
vn 0.218664 -0.062053 -0.973825
vn 0.218553 -0.062273 -0.973836
vn 0.217823 -0.059963 -0.974145
vn 0.217499 -0.060197 -0.974203
vn -0.217347 0.060510 0.974217
vn -0.240439 0.069616 0.968165
vn 0.240550 -0.070586 -0.968067
vn 0.239837 -0.070355 -0.968261
vn 0.137824 -0.990457 0.000000
vn 0.037526 0.201962 0.978674
vn -0.141599 0.082234 0.986503
vn -0.194747 0.048763 0.979641
vn 0.087030 -0.139275 -0.986422
vn 0.087034 -0.139202 -0.986432
vn -0.042915 -0.225190 -0.973369
vn -0.042955 -0.225365 -0.973327
vn 0.218870 -0.061320 -0.973825
vn 0.218818 -0.061443 -0.973829
vn 0.215659 -0.057235 -0.974790
vn 0.215439 -0.057230 -0.974839
vn 0.236152 -0.070066 -0.969187
vn 0.236496 -0.070173 -0.969095
vn 0.242049 0.970264 0.000000
vn -0.970054 0.242891 0.000000
vn 0.244083 0.969754 0.000000
vn -0.959032 0.283299 0.000008
vn -0.959032 0.283299 0.000000
vn 0.087054 -0.139478 -0.986391
vn -0.048812 -0.245776 -0.968097
vn -0.041004 -0.227849 -0.972833
vn 0.087085 -0.139185 -0.986430
vn 0.218697 -0.061454 -0.973856
vn 0.218646 -0.061552 -0.973861
vn 0.215633 -0.057214 -0.974797
vn 0.215436 -0.057233 -0.974839
vn 0.236195 -0.069632 -0.969207
vn 0.236441 -0.069707 -0.969142
vn 0.242068 0.970259 0.000000
vn 0.246136 0.969235 0.000000
vn -0.959519 0.281644 0.000008
vn -0.959519 0.281644 0.000000
vn -0.962047 0.272885 0.000000
vn -0.963546 0.267543 0.000000
vn -0.956872 0.290509 0.000000
vn -0.967401 0.253251 0.000000
vn -0.967287 0.253683 0.000000
vn -0.966417 0.256978 0.000000
vn 0.162351 -0.986733 0.000000
vn 0.970051 -0.242902 0.000000
vn 0.237221 0.971456 0.000000
vn -0.962021 0.272974 0.000002
vn -0.963556 0.267506 -0.000010
vn -0.956876 0.290496 0.000005
vn -0.956876 0.290496 0.000000
vn -0.967424 0.253161 0.000002
vn -0.967308 0.253606 0.000002
vn -0.966455 0.256834 0.000000
vn 0.158388 -0.987377 0.000000
vn -0.000011 0.000012 1.000000
vn 0.023788 0.095000 0.995193
vn 0.000000 0.000000 -1.000000
vn -0.023788 -0.095000 -0.995193
vn -0.023788 -0.094999 -0.995193
vn -0.049655 -0.199133 -0.978714
vn -0.049846 -0.199069 -0.978717
vn -0.047249 -0.207539 -0.977085
vn -0.047700 -0.207473 -0.977077
vn 0.049723 0.199401 0.978656
vn 0.047266 0.207217 0.977153
vn 0.057381 0.198384 0.978443
vn 0.055469 0.199785 0.978268
vn -0.057636 -0.198234 -0.978459
vn -0.056724 -0.199940 -0.978165
vn -0.057015 -0.199856 -0.978165
vn -0.057196 -0.198112 -0.978509
vn -0.025425 -0.097130 -0.994947
vn -0.025424 -0.097102 -0.994950
vn 0.025469 0.097114 0.994947
vn 0.000008 0.000008 1.000000
vn -0.040158 -0.226054 -0.973287
vn 0.970053 -0.242894 0.000000
vn 0.970053 -0.242895 0.000000
vn 0.136725 -0.990609 0.000000
vn 0.136732 -0.990608 -0.000007
vn 0.136730 -0.990608 -0.000007
vn 0.970051 -0.242902 -0.000000
vn 0.970048 -0.242911 -0.000000
vn 0.242818 0.970072 -0.000553
vn -0.970053 0.242894 -0.000000
vn -0.958739 0.284287 0.000000
vn 0.242893 0.970053 -0.000000
vn 0.242065 0.970260 -0.000500
vn 0.238655 0.971101 -0.002598
vn 0.239775 0.970812 -0.005600
vn -0.970053 0.242894 0.000000
vn -0.154155 0.038599 0.987292
vn 0.473344 -0.118522 0.872868
vn 0.241872 0.970308 0.000001
vn 0.241361 0.970436 -0.000000
vn -0.970053 0.242892 -0.000000
vn -0.970053 0.242893 -0.000001
vn 0.000000 0.000000 1.000000
vn -0.970053 0.242893 0.000009
vn 0.970053 -0.242893 0.000034
vn 0.241419 0.970421 -0.000445
vn 0.242120 0.970243 -0.002614
vn -0.242907 -0.970050 0.000000
vn 0.242907 0.970050 0.000000
vn -0.242912 -0.970048 -0.000000
vn 0.242912 0.970048 0.000000
# 194 vertex normals

vt 0.968619 0.660926 0.867551
vt 0.481822 0.637538 1.001249
vt 0.471304 0.411308 0.991946
vt 0.994583 0.402803 0.846411
vt 0.500068 6.244061 -4.355485
vt 0.500069 1.611015 -4.355486
vt 4.015118 1.611016 -5.776887
vt 4.015116 6.244062 -5.776886
vt 5.355485 6.244061 0.499932
vt 4.181968 1.611016 0.499953
vt 5.355486 1.611015 0.499931
vt 0.222815 6.244062 4.417406
vt 0.222814 1.980149 4.417406
vt 0.500000 1.980149 4.420502
vt 0.500001 6.244062 4.420502
vt -0.599032 6.244062 -3.011042
vt -0.599033 1.611017 -3.011044
vt 2.910049 1.611017 -3.011045
vt 2.910048 6.244062 -3.011043
vt 1.595935 6.244061 0.500001
vt -1.913144 6.244061 0.500001
vt 1.377225 1.611016 0.500001
vt 1.595935 1.611016 0.500001
vt -6.506701 6.244062 -4.838821
vt -6.506702 1.611016 -4.838825
vt -0.599034 1.611017 -4.585141
vt -0.599033 6.244062 -4.585140
vt 5.838825 1.611016 -6.506702
vt 5.838821 6.244062 -6.506701
vt 4.752765 0.158368 0.484668
vt -0.424326 0.071495 0.510654
vt -0.396008 -1.545216 0.471102
vt 5.515269 -1.688863 0.514551
vt 1.472630 1.121812 0.070097
vt -0.950870 1.116028 0.077397
vt -0.911987 0.952136 0.084630
vt 1.511513 0.957919 0.077331
vt 0.026099 0.412762 0.111438
vt 0.025204 0.624268 0.123110
vt 0.500070 -0.717650 -4.355486
vt 0.500070 -0.855026 -4.355486
vt 4.015119 -0.122950 -5.776887
vt 4.015119 0.014426 -5.776887
vt 1.595935 -0.855026 0.500000
vt 5.355486 -0.855026 0.499930
vt 5.355486 -0.717650 0.499930
vt 1.595935 -0.717650 0.500000
vt -3.197712 -0.049044 3.096716
vt 0.140125 -0.090926 3.096716
vt 0.140126 -0.055550 3.096716
vt -3.197712 -0.013669 3.096716
vt -0.412329 -0.079070 -3.197676
vt 3.096716 -0.049044 -3.197712
vt 3.096716 -0.013669 -3.197712
vt -0.412329 -0.043694 -3.197676
vt -1.913145 -0.140023 0.500000
vt -1.913145 -0.002647 0.500000
vt -6.576375 0.288634 -5.012002
vt -0.404603 0.290478 -4.771646
vt -0.404603 0.325854 -4.771646
vt -6.576375 0.324010 -5.012002
vt 5.838826 0.245356 -6.506701
vt 5.838826 0.382732 -6.506701
vt -3.011045 0.501098 -0.599033
vt -4.585142 0.501099 -0.599034
vt -4.585142 0.384575 -0.599034
vt -3.011045 0.013529 -0.599033
vt 0.000901 0.623614 0.070332
vt 0.001783 0.417398 0.058949
vt -2.099811 -0.096096 0.500000
vt -2.099811 -0.208494 0.500000
vt -1.913145 -0.252421 0.500000
vt 2.910049 -3.011045 0.044404
vt 2.956716 -3.057712 0.055386
vt 2.959811 0.500000 0.008335
vt 2.913145 0.500000 -0.002647
vt -3.932840 0.003268 0.488456
vt -4.116119 -0.191719 0.484796
vt -0.607642 -0.123637 0.505889
vt -0.599033 -3.011045 0.013529
vt -0.552357 -3.057703 0.024723
vt -0.599034 -4.585142 0.384575
vt -0.550426 -4.631768 0.395395
vt -0.587052 -1.740044 0.468272
vt 5.588046 -1.866021 0.506684
vt -6.506701 -4.838826 0.382732
vt -6.524119 -4.882120 0.393552
vt 5.956801 0.310215 -6.554167
vt 5.882119 0.343552 -6.524120
vt 0.140125 -0.203324 3.096716
vt 0.500000 -0.208494 3.099811
vt 0.500000 -0.096096 3.099811
vt -3.197676 -0.043694 -0.412329
vt -4.771646 0.325854 -0.404603
vt -4.771646 0.290478 -0.404603
vt -3.197676 -0.079070 -0.412329
vt 0.952616 -0.863015 -4.551328
vt 4.015119 -0.235348 -5.776887
vt 1.595935 -0.967424 0.500000
vt 5.355486 -0.967425 0.499930
vt -2.248753 0.428032 0.499561
vt 3.038371 0.435188 0.498839
vt 3.036140 0.603758 0.500848
vt -2.250984 0.596601 0.501570
vt -4.764225 0.447049 3.248943
vt 0.499561 0.428032 3.248753
vt 0.501570 0.596601 3.250984
vt -4.762217 0.615620 3.251174
vt -7.574212 0.911731 0.627205
vt 2.079517 0.947907 0.285772
vt 2.078990 1.116497 0.287369
vt -7.574739 1.080320 0.628801
vt 5.838826 0.132958 -6.506701
vt -2.099811 -0.060720 0.500000
vt -2.040312 -0.074722 0.500000
vt 1.791413 -0.702945 -2.214383
vt 1.878001 -0.681306 -2.249219
vt 1.878001 -0.625107 -2.249219
vt 1.791413 -0.646746 -2.214383
vt 0.500000 -0.060720 3.099811
vt 4.024547 -0.741508 0.029408
vt 0.689681 -0.872960 0.115851
vt 0.697555 -1.064268 0.101063
vt 4.218922 -0.925060 0.012828
vt 0.802757 0.436008 -2.039203
vt 0.764566 0.600208 -2.036973
vt 0.476873 0.601151 -2.036141
vt 0.515064 0.436953 -2.038372
vt -2.036973 0.220080 0.541005
vt 2.970176 0.220804 0.537555
vt 3.250984 0.501570 0.596601
vt -2.036140 0.500848 0.603758
vt -4.299397 -0.386735 0.480958
vt -0.790872 -0.318852 0.500909
vt 0.306958 -1.626099 0.458918
vt -4.956773 -1.626253 0.441232
vt -4.676063 -1.907096 0.380853
vt 0.587724 -1.906907 0.399871
vt 2.970331 -5.042927 0.555241
vt 5.338413 -5.024745 1.078089
vt 5.617754 -4.732645 1.137021
vt 3.251174 -4.762217 0.615620
vt -0.777903 -1.934238 0.464199
vt 5.661013 -2.043268 0.497779
vt -0.477253 0.458595 1.089714
vt 8.786532 0.485247 0.964018
vt 8.901442 0.741721 1.025549
vt -0.757507 0.748215 1.156082
vt 1.964551 -0.659274 -2.284151
vt 1.964551 -0.603074 -2.284152
vt 3.830173 -0.557980 0.045806
vt 0.691030 -0.681314 0.130209
vt 0.571450 2.794421 0.167566
vt -0.568793 3.251234 0.465607
vt 3.472310 3.262313 0.446320
vt 2.956716 -3.057712 0.005386
vt 3.037216 -3.138212 0.024329
vt 3.040312 0.500000 -0.022722
vt 2.959811 0.500000 -0.041665
vt -0.471841 -3.138188 -0.005967
vt -0.552357 -3.057703 -0.025277
vt -0.550426 -4.631768 0.345395
vt -0.466578 -4.712198 0.364059
vt -6.554166 -4.956802 0.362215
vt -6.524120 -4.882119 0.343552
vt -3.057712 0.055386 2.956716
vt -3.057712 0.005386 2.956716
vt 0.500000 -0.041665 2.959811
vt 0.500000 0.008335 2.959811
vt -0.552357 0.024723 -3.057703
vt -0.552357 -0.025277 -3.057703
vt 2.956716 0.005386 -3.057712
vt 2.956716 0.055386 -3.057712
vt -4.631768 0.395395 -0.550426
vt -4.631768 0.345395 -0.550426
vt -3.057703 -0.025277 -0.552357
vt -3.057703 0.024723 -0.552357
vt -6.524119 0.393552 -4.882120
vt -6.524120 0.343552 -4.882119
vt -0.550426 0.345395 -4.631768
vt -0.550426 0.395395 -4.631768
vt 3.096716 -3.197712 -0.013669
vt 3.096716 0.140126 -0.055550
vt 3.040312 0.500000 -0.074722
vt 3.037216 -3.138212 -0.027671
vt -0.412329 -3.197676 -0.043694
vt -0.471841 -3.138188 -0.057967
vt -0.466578 -4.712198 0.312059
vt -0.404603 -4.771646 0.325854
vt -6.576375 -5.012002 0.324010
vt -6.554167 -4.956801 0.310215
vt -3.138212 0.024329 3.037216
vt -3.138212 -0.027671 3.037216
vt 0.500000 -0.074722 3.040312
vt 0.500000 -0.022722 3.040312
vt -0.471841 -0.005967 -3.138188
vt -0.471841 -0.057967 -3.138188
vt 3.037216 -0.027671 -3.138212
vt 3.037216 0.024329 -3.138212
vt -4.712198 0.364059 -0.466578
vt -4.712198 0.312059 -0.466578
vt -3.138188 -0.057967 -0.471841
vt -3.138188 -0.005967 -0.471841
vt -6.554166 0.362215 -4.956802
vt -6.554167 0.310215 -4.956801
vt -0.466578 0.312059 -4.712198
vt -0.466578 0.364059 -4.712198
vt 1.595935 -1.166367 0.500000
vt 5.355486 -1.166367 0.499930
vt -1.913145 -0.468984 0.500000
vt -2.099811 -0.427669 0.500000
vt 0.140125 -0.427669 3.096716
vt 0.500000 -0.427669 3.099811
vt 2.910049 -0.247129 0.130894
vt 2.910049 -0.468984 0.130894
vt 3.096716 -0.427669 0.140125
vt 3.096716 -0.203324 0.140125
vt -0.510629 -0.874968 0.106164
vt -0.510629 -1.166367 0.106164
vt -4.551328 -0.863015 0.047384
vt -4.551328 -1.166367 0.047384
vt 0.500070 -0.967425 -4.355486
vt 0.500070 -1.166367 -4.355486
vt 0.952616 -1.166367 -4.551328
vt 0.518200 1.001771 0.647089
vt 0.029967 0.867679 0.670546
vt 0.030082 0.816485 0.670985
vt 0.518315 0.950578 0.647528
vt 0.974818 0.123631 0.633819
vt 0.974933 0.072438 0.634258
vt 1.001291 0.066335 0.633105
vt 1.001406 0.015142 0.633544
vt 0.591735 0.053963 -0.000469
vt 0.366895 0.066335 -0.001291
vt 0.366456 0.015142 -0.001406
vt 0.591296 0.002770 -0.000584
vt 0.025939 0.059741 0.403651
vt 0.026066 0.110931 0.403211
vt -0.000469 0.053963 0.408265
vt -0.000584 0.002770 0.408704
vt 0.471188 0.940238 0.402195
vt 0.471302 0.991431 0.401757
vt 0.997594 0.845077 0.393547
vt 0.997479 0.793883 0.393986
vt 0.002406 0.845077 0.393547
vt 0.002521 0.793883 0.393986
vt 0.970033 0.670546 0.867679
vt 0.481800 0.647089 1.001771
vt 0.031496 0.661365 0.816358
vt 0.518293 0.637977 0.950056
vt 0.518315 0.647528 0.950578
vt 0.030082 0.670985 0.816485
vt 0.974911 0.624707 0.071917
vt 0.974933 0.634258 0.072438
vt 0.999215 0.624053 0.019139
vt 1.001406 0.633544 0.015142
vt 0.025182 0.633819 0.123631
vt -0.001291 0.633105 0.066335
vt -0.000469 0.408265 0.053963
vt 0.026066 0.403211 0.110931
vt 0.998332 0.417837 0.007756
vt 0.974016 0.413201 0.060245
vt 0.974061 0.403651 0.059741
vt 1.000584 0.408704 0.002770
vt 0.528811 0.411747 0.940753
vt 0.528812 0.402195 0.940238
vt 0.005533 0.403242 0.795218
vt 0.002521 0.393986 0.793883
vt 0.471302 0.401757 0.991431
vt 0.997594 0.393547 0.845077
vt 3.099811 0.500000 -0.060720
vt -1.959811 -0.041665 0.500000
vt -2.040312 -0.022722 0.500000
vt -1.959811 0.008335 0.500000
vt 6.012002 0.288634 -6.576375
vt 6.012002 0.324010 -6.576375
vt 5.882120 0.393552 -6.524119
vt 5.956802 0.362215 -6.554166
vt 0.500070 0.501097 -4.355486
vt 4.015118 0.501098 -5.776887
vt 0.733896 0.999500 0.875000
vt 0.000499 0.999500 -0.062500
vt 0.000500 0.000500 -0.062500
vt 0.733896 0.000500 0.812500
vt -3.011045 0.501099 2.910049
vt -2.276495 0.501099 2.910049
vt -2.276494 1.611017 2.910049
vt -3.011045 1.611017 2.910049
vt -0.599033 0.501098 -3.011045
vt 2.910049 0.501099 -3.011045
vt -1.913145 1.611016 0.500000
vt -1.913145 0.501098 0.500000
vt 1.377225 0.501098 0.500000
vt -6.506701 0.501098 -4.838826
vt -0.599034 0.501099 -4.585142
vt 5.838826 0.501098 -6.506701
vt -3.011042 6.244062 -0.599032
vt -4.585140 6.244062 -0.599033
vt -4.585141 1.611017 -0.599034
vt -3.011044 1.611017 -0.599033
vt 1.595935 0.501098 0.500000
vt 2.199844 0.501097 0.499989
vt -3.011045 0.044404 2.910049
vt -2.276423 0.267869 2.910049
vt -0.599033 0.013529 -3.011045
vt 2.910049 0.044404 -3.011045
vt -6.506701 0.382732 -4.838826
vt -0.599034 0.384575 -4.585142
vt -2.276494 1.992985 2.910049
vt -1.459183 4.163677 2.910049
vt -1.459172 2.832564 2.910049
vt -0.083472 2.029448 2.910049
vt -0.083471 6.244061 2.910049
vt -1.459165 1.611017 2.910049
vt 0.500000 1.611016 2.913145
vt 0.222813 1.825193 2.910049
vt 0.222814 1.825194 4.417406
vt -0.083471 6.244062 4.417406
vt -0.083472 2.029448 4.417406
vt 0.500000 1.980148 2.913144
vt 0.222814 1.980148 2.910049
vt -1.913144 1.980148 0.500000
vt -3.420502 6.244062 0.500001
vt -3.420502 1.980149 0.500000
vt 2.910049 6.244061 -0.083471
vt 2.910049 2.029448 -0.083472
vt 4.417406 2.029448 -0.083472
vt 4.417406 6.244062 -0.083471
vt 1.213706 0.324020 0.503229
vt 1.213720 0.634218 0.497549
vt -0.293637 0.634287 0.497533
vt -0.293652 0.324089 0.503213
vt 2.910049 1.980148 0.222814
vt 2.910049 1.825193 0.222813
vt 4.417406 1.825194 0.222814
vt 4.417406 1.980149 0.222814
vt -0.238618 0.800149 0.499999
vt -0.235522 0.482590 0.499999
vt 1.271836 0.482590 0.499999
vt 1.268740 0.800148 0.499999
vt -1.459165 0.501099 2.910049
vt 0.500000 0.501098 2.913145
vt -1.459164 1.992985 2.910049
vt 0.000500 0.999500 0.500000
vt 0.000500 0.256274 0.500000
vt 0.999500 0.256274 -0.500000
vt 0.999501 0.999500 0.500000
vt 0.000500 0.000500 0.500000
vt 0.999500 0.000499 -0.500000
vt 2.910049 0.501099 -1.459165
vt 2.910049 1.611017 -1.459165
vt 2.856049 1.611017 -1.459164
vt 2.856049 0.501099 -1.459165
vt 2.910049 1.992985 -1.459164
vt 2.856049 1.992985 -1.459164
vt -1.910049 -1.459164 1.992985
vt -1.910049 -2.276494 1.992985
vt -1.856049 -2.276494 1.992985
vt -1.856049 -1.459164 1.992985
vt -1.910049 1.992985 -2.276494
vt -1.910049 1.611017 -2.276494
vt -1.856049 1.611017 -2.276494
vt -1.856049 1.992985 -2.276494
vt -1.910049 0.501099 -2.276495
vt -1.856049 0.501099 -2.276495
vt 1.181083 0.999504 0.000566
vt -0.181133 0.991165 0.000567
vt -0.181083 0.000496 0.000500
vt 1.181133 0.008835 0.000500
vt -2.276350 6.244062 2.910048
vt -2.276420 4.163677 2.910048
vt -1.459201 6.244062 2.910048
vt -3.011043 6.244062 2.910048
vt -1.459169 2.577722 2.910049
vt -2.276474 2.577722 2.910049
vt 1.181050 1.010405 0.998146
vt -0.181125 1.010405 0.989807
vt -0.181121 0.008071 0.991203
vt 1.181036 0.008070 0.999535
vt 0.000500 0.999501 -0.500000
vt 0.000499 0.000500 -0.500000
vt 0.999500 0.000514 -1.500000
vt 0.999500 0.999445 -0.500000
vt 1.181036 0.999535 0.008070
vt -0.181121 0.991203 0.008071
vt -0.181071 0.000534 0.008007
vt 1.181085 0.008865 0.008007
vt 2.910049 2.832564 -1.459172
vt 2.910049 4.163677 -1.459183
vt 2.856049 4.163677 -1.459183
vt 2.856049 2.832564 -1.459172
vt -1.910049 -1.459183 4.163677
vt -1.910048 -2.276420 4.163677
vt -1.856048 -2.276420 4.163677
vt -1.856049 -1.459183 4.163677
vt -1.910048 4.163677 -2.276420
vt -1.910048 2.832564 -2.276465
vt -1.856049 2.832564 -2.276465
vt -1.856048 4.163677 -2.276420
vt 0.500000 -0.002647 2.913145
vt -1.459183 0.262439 2.910049
vt -0.181133 0.000567 0.991165
vt 1.181083 0.000566 0.999504
vt 1.180964 0.976771 0.998222
vt -0.181103 0.999501 0.989853
vt 0.999500 0.000500 0.187500
vt 0.999500 0.999500 0.187500
vt 3.352523 0.501097 0.499968
vt 3.352523 1.611016 0.499968
vt 2.199844 1.611016 0.499990
vt 0.000499 0.999500 0.500000
vt 0.000499 0.000500 0.500000
vt 0.999500 0.000500 0.500000
vt 0.999500 0.999500 0.500001
vt 5.355486 0.501097 0.499930
vt 4.181968 0.501097 0.499952
vt 2.199844 0.499990 1.611016
vt 1.595935 0.500001 1.611016
vt 1.595933 0.391334 1.611016
vt 2.199842 0.391323 1.611016
vt 1.377225 0.500001 1.611016
vt 1.377224 0.391334 1.611016
vt 0.499999 1.611016 -0.377225
vt 0.500000 0.501098 -0.377225
vt 0.608666 0.501098 -0.377224
vt 0.608666 1.611016 -0.377224
vt -0.377225 0.500000 0.501098
vt -0.595935 0.500000 0.501098
vt -0.595933 0.391334 0.501098
vt -0.377224 0.391334 0.501098
vt -1.199844 0.499989 0.501097
vt -1.199842 0.391323 0.501098
vt 0.499989 0.501097 -1.199844
vt 0.499990 1.611016 -1.199844
vt 0.391323 1.611016 -1.199842
vt 0.391323 0.501098 -1.199842
vt 4.181968 0.499953 1.611016
vt 3.352523 0.499968 1.611016
vt 3.352521 0.391301 1.611016
vt 4.181966 0.391286 1.611016
vt 0.500032 1.611016 -2.352523
vt 0.500032 0.501097 -2.352523
vt 0.608699 0.501097 -2.352521
vt 0.608699 1.611016 -2.352521
vt -2.352523 0.499968 0.501097
vt -3.181967 0.499952 0.501097
vt -3.181966 0.391286 0.501097
vt -2.352521 0.391301 0.501097
vt 0.499952 0.501097 -3.181967
vt 0.499953 1.611016 -3.181967
vt 0.391286 1.611016 -3.181966
vt 0.391286 0.501097 -3.181966
vt -2.276465 2.832564 2.910048
# 453 texture coords

g Pikk64_2
usemtl Wood_Trim
f -184/-453/-194 -183/-452/-193 -182/-451/-192 -181/-450/-191 
usemtl Brick
f -180/-449/-190 -179/-448/-190 -178/-447/-189 -177/-446/-189 
f -180/-445/-188 -176/-444/-187 -179/-443/-187 
f -175/-442/-186 -174/-441/-185 -173/-440/-184 -172/-439/-184 
f -171/-438/-183 -170/-437/-183 -169/-436/-183 -168/-435/-183 
f -167/-434/-182 -166/-433/-181 -165/-432/-180 -164/-431/-182 
f -163/-430/-179 -162/-429/-178 -161/-428/-179 -160/-427/-179 
f -177/-446/-189 -178/-447/-189 -162/-426/-177 -163/-425/-176 
usemtl Roof
f -159/-424/-175 -158/-423/-174 -157/-422/-173 -156/-421/-172 
usemtl Roof_Planks
f -155/-420/-171 -154/-419/-171 -153/-418/-171 -152/-417/-171 
usemtl Wood_Trim
f -151/-416/-170 -182/-451/-192 -183/-452/-193 -150/-415/-169 
usemtl Brick
f -149/-414/-190 -148/-413/-168 -147/-412/-167 -146/-411/-189 
f -145/-410/-166 -148/-409/-187 -149/-408/-187 -144/-407/-166 
f -143/-406/-165 -142/-405/-164 -141/-404/-163 -140/-403/-162 
f -139/-402/-161 -143/-401/-161 -140/-400/-161 -138/-399/-161 
f -137/-398/-160 -145/-410/-166 -144/-407/-166 -136/-397/-181 
f -135/-396/-159 -134/-395/-159 -133/-394/-159 -132/-393/-159 
f -146/-411/-189 -147/-412/-167 -131/-392/-158 -130/-391/-157 
f -129/-390/-156 -128/-389/-156 -127/-388/-156 -126/-387/-156 
usemtl Wood_Trim
f -150/-415/-169 -125/-386/-155 -124/-385/-154 -151/-416/-170 
usemtl Brick
f -137/-398/-160 -123/-384/-153 -122/-383/-153 -121/-382/-160 
f -120/-381/-152 -119/-380/-151 -118/-379/-150 -136/-378/-149 
usemtl Roof
f -158/-423/-174 -117/-377/-148 -116/-376/-147 -115/-375/-146 
usemtl Brick
f -120/-381/-152 -126/-374/-145 -114/-373/-144 -119/-380/-151 
f -127/-372/-143 -113/-371/-142 -114/-373/-144 -126/-374/-145 
usemtl Roof
f -157/-422/-173 -158/-423/-174 -115/-375/-146 -112/-370/-141 
f -156/-421/-172 -157/-422/-173 -112/-370/-141 -111/-369/-140 
usemtl Brick
f -127/-372/-143 -130/-368/-139 -110/-367/-138 -113/-371/-142 
f -131/-392/-158 -109/-366/-137 -108/-365/-136 
f -107/-364/-135 -122/-363/-135 -123/-362/-135 -142/-405/-164 
f -138/-361/-134 -133/-360/-134 -134/-359/-134 -139/-358/-134 
f -148/-413/-168 -106/-357/-133 -159/-356/-132 -147/-412/-167 
f -105/-355/-166 -104/-354/-187 -148/-409/-187 -145/-410/-166 
usemtl Roof_Planks
f -103/-353/-165 -102/-352/-131 -101/-351/-131 -100/-350/-162 
f -152/-349/-130 -103/-348/-129 -100/-347/-128 -155/-346/-130 
usemtl Brick
f -121/-382/-160 -105/-355/-166 -145/-410/-166 -137/-398/-160 
usemtl Roof_Planks
f -99/-345/-127 -153/-344/-127 -154/-343/-127 -98/-342/-127 
usemtl Brick
f -147/-412/-167 -159/-356/-132 -156/-341/-126 -131/-392/-158 
f -97/-340/-125 -123/-384/-153 -137/-398/-160 -96/-339/-124 
usemtl Roof_Planks
f -156/-338/-126 -111/-337/-123 -135/-336/-122 -131/-335/-158 
usemtl Brick
f -97/-334/-121 -141/-404/-163 -142/-405/-164 -123/-362/-135 
usemtl Roof
f -116/-333/-147 -107/-332/-120 -102/-331/-119 -103/-330/-118 
usemtl Roof_Planks
f -107/-329/-117 -142/-328/-116 -101/-327/-117 -102/-326/-117 
f -142/-325/-115 -143/-324/-114 -100/-323/-113 -101/-322/-112 
usemtl Roof
f -115/-375/-146 -116/-376/-147 -103/-321/-118 -152/-320/-111 
usemtl Roof_Planks
f -143/-319/-114 -139/-318/-110 -155/-317/-109 -100/-316/-113 
f -139/-315/-110 -134/-314/-108 -154/-313/-107 -155/-312/-109 
usemtl Roof
f -112/-370/-141 -115/-375/-146 -152/-320/-111 -153/-311/-106 
f -111/-369/-140 -112/-370/-141 -153/-311/-106 -99/-310/-105 
usemtl Roof_Planks
f -134/-309/-108 -135/-308/-104 -98/-307/-103 -154/-306/-107 
f -135/-336/-122 -111/-337/-123 -99/-305/-102 -98/-304/-102 
usemtl Roof
f -116/-333/-147 -117/-303/-148 -95/-302/-101 -107/-332/-120 
f -95/-302/-101 -117/-303/-148 -94/-301/-100 
f -94/-300/-100 -117/-377/-148 -158/-423/-174 
f -158/-423/-174 -159/-424/-175 -106/-299/-99 -94/-300/-100 
usemtl Brick
f -93/-298/-98 -92/-297/-97 -91/-296/-96 -90/-295/-95 
f -89/-294/-94 -92/-297/-97 -93/-298/-98 -88/-293/-93 
f -87/-292/-92 -86/-291/-91 -89/-294/-94 -88/-293/-93 
f -85/-290/-90 -86/-291/-91 -87/-292/-92 -108/-289/-89 
f -119/-288/-88 -93/-287/-88 -90/-286/-88 -118/-285/-88 
f -114/-284/-87 -88/-283/-87 -93/-282/-87 -119/-281/-87 
f -113/-280/-86 -87/-279/-86 -88/-278/-86 -114/-277/-86 
f -110/-276/-85 -108/-275/-85 -87/-274/-84 -113/-273/-84 
f -140/-272/-83 -141/-271/-82 -96/-270/-81 -84/-269/-80 
f -138/-268/-79 -140/-272/-83 -84/-269/-80 -83/-267/-78 
f -82/-266/-77 -133/-265/-76 -138/-268/-79 -83/-267/-78 
f -132/-264/-75 -133/-265/-76 -82/-266/-77 -109/-263/-74 
f -92/-262/-73 -84/-261/-73 -96/-260/-73 -91/-259/-73 
f -89/-258/-129 -83/-257/-129 -84/-256/-129 -92/-255/-129 
f -86/-254/-72 -82/-253/-72 -83/-252/-72 -89/-251/-72 
f -85/-250/-71 -109/-249/-71 -82/-248/-70 -86/-247/-70 
f -105/-355/-166 -81/-246/-166 -80/-245/-187 -104/-354/-187 
f -105/-355/-166 -121/-382/-160 -79/-244/-160 -81/-246/-166 
f -121/-382/-160 -122/-383/-153 -78/-243/-153 -79/-244/-160 
f -122/-363/-135 -107/-364/-135 -77/-242/-135 -78/-241/-135 
f -95/-240/-69 -76/-239/-68 -77/-238/-67 -107/-237/-67 
f -94/-236/-66 -75/-235/-65 -76/-239/-68 -95/-240/-69 
f -106/-234/-64 -74/-233/-64 -75/-235/-65 -94/-236/-66 
f -104/-232/-63 -80/-231/-63 -74/-230/-63 -106/-357/-133 
usemtl Wood_Trim
f -73/-229/-166 -72/-228/-187 -71/-227/-187 -70/-226/-62 
f -69/-225/-160 -73/-229/-166 -70/-226/-62 -68/-224/-160 
f -67/-223/-160 -69/-225/-160 -68/-224/-160 -66/-222/-160 
f -65/-221/-61 -67/-220/-61 -66/-219/-61 -64/-218/-61 
f -63/-217/-60 -62/-216/-59 -65/-215/-58 -64/-214/-57 
f -61/-213/-56 -60/-212/-55 -62/-216/-59 -63/-217/-60 
f -59/-211/-54 -60/-212/-55 -61/-213/-56 -58/-210/-54 
f -71/-227/-53 -72/-228/-53 -59/-209/-53 -58/-208/-53 
f -183/-452/-193 -184/-453/-194 -72/-207/-52 -73/-206/-51 
f -80/-205/-50 -81/-204/-49 -70/-203/-48 -71/-202/-50 
f -81/-204/-49 -79/-201/-47 -68/-200/-46 -70/-203/-48 
f -79/-201/-47 -78/-199/-45 -66/-198/-44 -68/-200/-46 
f -125/-386/-155 -150/-415/-169 -69/-197/-43 -67/-196/-42 
f -150/-415/-169 -183/-452/-193 -73/-206/-51 -69/-197/-43 
f -151/-416/-170 -124/-385/-154 -65/-195/-41 -62/-194/-40 
f -77/-193/-39 -76/-192/-38 -63/-191/-37 -64/-190/-36 
f -76/-192/-38 -75/-189/-35 -61/-188/-34 -63/-191/-37 
f -75/-189/-35 -74/-187/-50 -58/-186/-50 -61/-188/-34 
f -181/-450/-191 -182/-451/-192 -60/-185/-33 -59/-184/-32 
f -182/-451/-192 -151/-416/-170 -62/-194/-40 -60/-185/-33 
f -124/-385/-154 -125/-386/-155 -67/-196/-42 -65/-195/-41 
f -78/-199/-45 -77/-193/-39 -64/-190/-36 -66/-198/-44 
f -184/-453/-194 -181/-450/-191 -59/-184/-32 -72/-207/-52 
f -74/-187/-50 -80/-205/-50 -71/-202/-50 -58/-186/-50 
usemtl Brick
f -141/-271/-82 -97/-183/-31 -96/-270/-81 
f -90/-182/-30 -91/-181/-153 -96/-339/-124 
f -136/-397/-181 -118/-180/-29 -90/-182/-30 -137/-398/-160 
f -137/-398/-160 -90/-182/-30 -96/-339/-124 
f -135/-179/-122 -132/-178/-28 -109/-366/-137 -131/-392/-158 
f -108/-365/-136 -110/-177/-27 -130/-391/-157 -131/-392/-158 
f -109/-366/-137 -85/-176/-26 -108/-365/-136 
f -179/-448/-190 -57/-175/-190 -56/-174/-189 -178/-447/-189 
usemtl Windows
f -55/-173/-25 -54/-172/-24 -53/-171/-24 -52/-170/-182 
usemtl Brick
f -51/-169/-156 -50/-168/-156 -49/-167/-156 -169/-166/-156 
f -129/-165/-183 -51/-164/-183 -169/-436/-183 -170/-437/-183 
f -48/-163/-180 -47/-162/-180 -46/-161/-180 -165/-432/-180 
f -45/-160/-179 -128/-159/-179 -161/-428/-179 -162/-429/-178 
f -178/-447/-189 -56/-174/-189 -45/-158/-177 -162/-426/-177 
f -171/-157/-156 -160/-156/-156 -161/-155/-156 -170/-154/-156 
f -170/-154/-156 -161/-155/-156 -128/-389/-156 -129/-390/-156 
f -57/-175/-190 -149/-414/-190 -146/-411/-189 -56/-174/-189 
f -44/-153/-25 -144/-407/-166 -43/-152/-187 
f -120/-151/-23 -42/-150/-156 -50/-168/-156 -51/-169/-156 
f -126/-149/-22 -120/-148/-22 -51/-164/-183 -129/-165/-183 
f -136/-397/-181 -144/-407/-166 -46/-161/-180 -47/-162/-180 
f -130/-147/-21 -127/-146/-21 -128/-159/-179 -45/-160/-179 
f -56/-174/-189 -146/-411/-189 -130/-391/-157 -45/-158/-177 
f -169/-166/-156 -49/-167/-156 -41/-145/-156 
f -40/-144/-20 -39/-143/-156 -38/-142/-162 -37/-141/-20 
f -36/-140/-19 -48/-139/-18 -35/-138/-17 
f -173/-440/-184 -174/-441/-185 -34/-137/-184 
f -33/-136/-162 -32/-135/-162 -174/-441/-185 -175/-442/-186 
f -48/-139/-18 -31/-134/-184 -35/-138/-17 
f -30/-133/-162 -38/-142/-162 -35/-138/-17 
f -31/-132/-160 -166/-433/-181 -172/-131/-30 -173/-130/-30 
f -37/-129/-16 -38/-128/-16 -32/-127/-16 -33/-126/-16 
usemtl Roof
f -38/-125/-15 -30/-124/-15 -174/-123/-15 -32/-122/-15 
usemtl Brick
f -30/-121/-16 -35/-120/-16 -34/-119/-16 -174/-118/-16 
usemtl Roof
f -35/-117/-14 -31/-116/-14 -173/-115/-14 -34/-114/-14 
usemtl Brick
f -29/-113/-13 -47/-112/-12 -48/-139/-18 -36/-140/-19 
f -36/-140/-19 -38/-142/-162 -28/-111/-20 
usemtl Wood_Planks
f -27/-110/-156 -26/-109/-156 -25/-108/-156 -24/-107/-156 
f -26/-109/-156 -23/-106/-156 -22/-105/-156 -25/-108/-156 
usemtl Brick
f -29/-104/-183 -36/-103/-11 -26/-102/-11 -27/-101/-183 
f -36/-103/-11 -28/-100/-10 -23/-99/-10 -26/-102/-11 
f -28/-98/-9 -41/-97/-9 -22/-96/-9 -23/-95/-9 
f -41/-94/-160 -49/-93/-160 -25/-92/-160 -22/-91/-160 
f -49/-93/-160 -50/-90/-30 -24/-89/-30 -25/-92/-160 
usemtl Bricks_Vertical
f -50/-88/-50 -29/-87/-50 -27/-86/-50 -24/-85/-50 
usemtl Brick
f -21/-84/-20 -20/-83/-20 -40/-144/-20 -19/-82/-20 
f -21/-84/-20 -168/-81/-165 -20/-83/-20 
f -41/-145/-156 -28/-111/-20 -18/-80/-156 -17/-79/-20 
usemtl Bricks_Vertical
f -17/-78/-20 -18/-77/-156 -39/-76/-156 -16/-75/-20 
usemtl Wood_Planks
f -15/-74/-20 -14/-73/-20 -13/-72/-156 -12/-71/-156 
usemtl Bricks_Vertical
f -16/-70/-50 -39/-69/-50 -14/-68/-50 -15/-67/-50 
usemtl Brick
f -39/-66/-8 -40/-65/-8 -13/-64/-8 -14/-63/-8 
f -40/-62/-9 -20/-61/-9 -12/-60/-9 -13/-59/-9 
f -20/-58/-7 -16/-57/-7 -15/-56/-7 -12/-55/-7 
f -136/-54/-6 -47/-112/-12 -29/-113/-13 -11/-53/-5 
f -120/-151/-23 -136/-54/-6 -11/-53/-5 -42/-150/-156 
usemtl Bricks_Vertical
f -29/-52/-13 -50/-51/-156 -42/-50/-156 -11/-49/-5 
usemtl Windows
f -55/-173/-25 -52/-170/-182 -10/-48/-181 -9/-47/-160 
usemtl Brick
f -8/-46/-187 -7/-45/-188 -6/-44/-188 -43/-152/-187 
usemtl Windows
f -5/-43/-188 -4/-42/-187 -3/-41/-188 -2/-40/-188 
usemtl Brick
f -57/-39/-187 -179/-443/-187 -176/-444/-187 -1/-38/-187 
f -6/-37/-9 -164/-36/-9 -52/-35/-9 -53/-34/-9 
f -164/-36/-9 -165/-33/-9 -10/-32/-9 -52/-35/-9 
f -165/-31/-4 -46/-30/-4 -9/-29/-4 -10/-28/-4 
f -46/-27/-50 -44/-26/-50 -55/-25/-50 -9/-24/-50 
f -44/-26/-50 -43/-23/-50 -54/-22/-50 -55/-25/-50 
f -43/-21/-3 -6/-20/-3 -53/-19/-3 -54/-18/-3 
f -176/-17/-9 -7/-16/-9 -3/-15/-9 -4/-14/-9 
f -7/-13/-2 -8/-12/-2 -2/-11/-2 -3/-10/-2 
f -8/-9/-50 -1/-8/-50 -5/-7/-50 -2/-6/-50 
f -1/-5/-1 -176/-4/-1 -4/-3/-1 -5/-2/-1 
f -31/-132/-160 -48/-163/-180 -165/-432/-180 
f -166/-433/-181 -31/-132/-160 -165/-432/-180 
f -167/-434/-182 -164/-431/-182 -6/-44/-188 
f -167/-434/-182 -6/-44/-188 -7/-45/-188 
f -180/-445/-188 -167/-434/-182 -7/-45/-188 -176/-444/-187 
f -144/-407/-166 -44/-153/-25 -46/-161/-180 
f -144/-407/-166 -8/-46/-187 -43/-152/-187 
f -149/-408/-187 -57/-39/-187 -1/-38/-187 
f -144/-407/-166 -149/-408/-187 -1/-38/-187 -8/-46/-187 
f -18/-80/-156 -28/-111/-20 -38/-142/-162 
f -169/-166/-156 -41/-145/-156 -17/-79/-20 
f -169/-166/-156 -16/-1/-20 -20/-83/-20 -168/-81/-165 
f -37/-141/-20 -19/-82/-20 -40/-144/-20 
f -169/-166/-156 -17/-79/-20 -16/-1/-20 
f -39/-143/-156 -18/-80/-156 -38/-142/-162 
f -38/-142/-162 -36/-140/-19 -35/-138/-17 
f -148/-413/-168 -104/-232/-63 -106/-357/-133 
# 161 polygons - 30 triangles

