# 3ds Max Wavefront OBJ Exporter v0.97b - (c)2007 guruware
# File Created: 11.03.2012 16:24:29

mtllib Aida_7_2-origo.mtl

#
# object Aida_7_2
#

v  542224.1617 6589394.4423 18.9315
v  542224.1617 6589394.4423 18.1402
v  542223.4449 6589395.5345 18.1402
v  542223.4442 6589395.5356 18.9315
v  542223.9045 6589392.3918 20.3515
v  542224.7537 6589392.319 20.6297
v  542222.8381 6589395.3016 20.6297
v  542222.232 6589395.0676 20.3515
v  542230.387 6589384.0261 18.9315
v  542230.387 6589384.0261 15.1866
v  542228.8864 6589386.5331 15.1866
v  542228.8864 6589386.5331 16.4349
v  542228.8864 6589386.5331 17.6832
v  542228.8864 6589386.5331 18.9315
v  542228.3981 6589387.387 16.4349
v  542228.3981 6589387.387 15.1866
v  542227.2025 6589389.4778 15.1866
v  542228.3981 6589387.387 17.6832
v  542228.3981 6589387.387 18.9315
v  542227.2025 6589389.4778 18.9315
v  542225.6028 6589392.2461 15.1866
v  542225.6028 6589392.2462 18.9315
v  542222.1851 6589397.5049 15.0397
v  542222.1851 6589397.5049 18.9315
v  542223.443 6589395.5375 15.3596
v  542223.4442 6589395.5356 15.1866
v  542228.2846 6589385.0419 20.3515
v  542229.1748 6589383.558 20.3515
v  542229.7809 6589383.7921 20.6297
v  542228.532 6589385.876 20.6297
v  542225.9903 6589389.0097 20.3515
v  542226.5964 6589389.2437 20.6297
v  542222.1851 6589397.5049 20.3515
v  542221.6761 6589397.119 20.6297
v  542223.4442 6589395.5356 20.3515
v  542229.1748 6589383.558 14.5634
v  542229.1748 6589383.558 18.9315
v  542228.2846 6589385.0419 19.4007
v  542228.2847 6589385.0419 14.5634
v  542228.8864 6589386.5331 20.3515
v  542230.387 6589384.026 20.3515
v  542228.3981 6589387.387 20.3515
v  542225.6028 6589392.2461 20.3515
v  542227.2025 6589389.4778 20.3515
v  542221.1173 6589396.8114 20.3515
v  542230.9321 6589379.7054 18.9221
v  542230.9321 6589379.7054 15.1866
v  542230.9322 6589379.7054 20.3420
v  542230.326 6589379.4715 20.6202
v  542229.7199 6589379.2374 20.3420
v  542229.7199 6589379.2374 18.9221
v  542229.7199 6589379.2375 14.5634
v  542221.1173 6589396.8114 19.4007
v  542222.232 6589395.0676 19.5399
v  542223.9045 6589392.3918 19.7664
v  542225.9903 6589389.0097 20.0340
v  542230.3592 6589379.189 20.6183
v  542229.786 6589378.6659 20.3401
v  542229.786 6589378.6659 18.9201
v  542229.786 6589378.6659 14.5615
v  542224.1617 6589394.4423 15.1866
v  542224.1617 6589394.4423 15.3596
v  542223.0067 6589395.2607 15.5396
v  542223.7298 6589394.1588 15.5396
v  542223.9465 6589394.301 15.5396
v  542223.2234 6589395.403 15.5396
v  542222.788 6589395.1216 15.7072
v  542223.5128 6589394.0172 15.7072
v  542223.7298 6589394.1588 15.7196
v  542223.0067 6589395.2607 15.7196
v  542223.2255 6589395.3995 15.3596
v  542223.9463 6589394.3013 15.3596
v  542228.4744 6589386.3094 16.4349
v  542228.4744 6589386.3094 17.6832
v  542227.9861 6589387.1634 16.4349
v  542227.9861 6589387.1634 17.6832
v  542224.9386 6589382.9138 19.4007
v  542217.9883 6589393.8417 19.4007
v  542217.9883 6589393.8417 14.5634
v  542224.9386 6589382.9138 14.5634
v  542221.1173 6589396.8114 14.4165
v  542217.5447 6589394.5392 14.5634
v  542218.2404 6589394.9817 19.4007
v  542217.5447 6589394.5392 19.4007
v  542225.5901 6589383.3281 19.4007
v  542225.5901 6589383.3281 14.5634
v  542213.7694 6589391.1583 19.4007
v  542213.7694 6589391.1583 20.3514
v  542213.3258 6589391.8557 20.3514
v  542213.3258 6589391.8558 19.4007
v  542217.9883 6589393.8417 20.8852
v  542224.9386 6589382.9138 20.8852
v  542225.5901 6589383.3281 20.8852
v  542217.5447 6589394.5391 20.8852
v  542218.2404 6589394.9817 20.8852
v  542213.7694 6589391.1583 20.8185
v  542213.3258 6589391.8557 20.8185
v  542218.2404 6589394.9817 20.3515
v  542218.2404 6589394.9817 20.8185
v  542225.5901 6589383.3281 20.8185
v  542225.5901 6589383.3281 20.3515
v  542217.5447 6589394.5392 20.3515
v  542217.5447 6589394.5391 20.8185
v  542213.3258 6589391.8558 14.5634
v  542213.7694 6589391.1583 14.5634
v  542224.9386 6589382.9138 20.3515
v  542217.9883 6589393.8417 20.3515
v  542224.9386 6589382.9138 20.8185
v  542217.9883 6589393.8417 20.8185
v  542213.3258 6589391.8557 20.8852
v  542213.7694 6589391.1583 20.8852
v  542223.7294 6589394.1594 15.3596
v  542223.5128 6589394.0172 15.3596
v  542223.5127 6589394.0172 18.1402
v  542222.7878 6589395.1219 15.3596
v  542223.0067 6589395.2607 15.3596
v  542222.7897 6589395.119 18.1402
v  542226.5486 6589380.3824 14.5634
v  542226.5486 6589380.3824 19.4007
v  542227.1548 6589380.768 14.5634
v  542227.1548 6589380.768 19.4007
v  542227.1548 6589380.768 20.3515
v  542227.1548 6589380.768 20.8185
v  542226.5486 6589380.3824 20.8852
v  542227.1548 6589380.768 20.8852
v  542226.5486 6589380.3824 20.8185
v  542226.5486 6589380.3824 20.3515
# 127 vertices

vn 0.8361 0.5486 0.0000
vn 0.8404 0.5420 -0.0000
vn 0.8393 0.5437 -0.0000
vn -0.3290 -0.2086 0.9210
vn 0.8580 0.5136 0.0000
vn 0.8580 0.5136 -0.0000
vn 0.8631 0.5050 -0.0000
vn 0.8614 0.5079 -0.0000
vn 0.8631 0.5050 0.0000
vn 0.8681 0.4964 0.0000
vn 0.8670 0.4984 0.0000
vn 0.8513 0.5247 -0.0000
vn 0.8513 0.5247 0.0000
vn 0.8425 0.5387 0.0000
vn 0.8393 0.5436 -0.0001
vn -0.3416 -0.2048 0.9172
vn -0.3470 -0.2001 0.9163
vn -0.3303 -0.2010 0.9222
vn 0.3373 0.2157 0.9163
vn -0.8575 -0.5144 -0.0000
vn 0.8393 0.5437 0.0000
vn 0.3282 0.2132 0.9202
vn 0.3416 0.2046 0.9173
vn 0.3450 0.1973 0.9176
vn 0.3480 0.2000 0.9159
vn 0.3313 0.1952 0.9231
vn -0.3374 -0.2157 0.9163
vn 0.9921 0.1252 -0.0000
vn 0.4011 0.0486 0.9147
vn -0.3998 -0.0524 0.9151
vn -0.9921 -0.1252 0.0000
vn -0.9921 -0.1252 -0.0000
vn -0.8426 -0.5386 -0.0000
vn -0.8480 -0.5300 -0.0000
vn -0.8512 -0.5249 0.0000
vn -0.8657 -0.5006 0.0000
vn 0.4037 0.0411 0.9140
vn -0.3994 -0.0506 0.9154
vn -0.9934 -0.1148 0.0000
vn -0.9934 -0.1148 -0.0000
vn 0.8361 0.5486 -0.0000
vn 0.0000 0.0000 1.0000
vn -0.0400 -0.0263 0.9989
vn -0.0000 -0.0000 1.0000
vn 0.8360 0.5487 -0.0001
vn -0.4771 0.8788 -0.0000
vn 0.4771 -0.8789 0.0000
vn -0.0000 -0.0000 -1.0000
vn -0.8438 -0.5367 0.0000
vn -0.5367 0.8438 -0.0000
vn -0.5367 0.8438 0.0000
vn 0.5367 -0.8438 0.0000
vn -0.8438 -0.5367 -0.0000
vn 0.0000 -0.0000 1.0000
vn 0.8458 0.5335 -0.0000
vn -0.0361 0.0601 0.9975
vn -0.0360 0.0566 0.9977
vn -0.0367 0.0582 0.9976
vn -0.0388 0.0559 0.9977
vn -0.0365 0.0585 0.9976
vn -0.0368 0.0582 0.9976
vn -0.0369 0.0581 0.9976
vn 0.0000 0.0000 -1.0000
vn -0.5476 0.8367 -0.0000
vn -0.5485 0.8362 0.0002
vn -0.5479 0.8365 -0.0000
vn 0.5356 -0.8445 -0.0013
vn 0.5356 -0.8444 -0.0012
vn 0.5367 -0.8438 -0.0000
vn -0.0000 0.0000 -1.0000
vn 0.8533 0.5215 0.0000
vn 0.8533 0.5215 -0.0000
vn 0.5366 -0.8438 0.0000
vn 0.8458 0.5335 0.0000
vn -0.5367 0.8437 0.0000
vn -0.5367 0.8438 0.0001
vn 0.8681 0.4964 -0.0000
# 77 vertex normals

vt 2.5660 0.9917 1.2815
vt 2.5660 0.7279 1.2815
vt 3.0043 0.7279 1.3119
vt 3.0043 0.9917 1.3119
vt 1.3878 2.6532 1.6578
vt 1.8123 2.6168 1.7969
vt 0.8546 4.1081 1.7969
vt 0.5515 3.9911 1.6578
vt -1.4505 0.9917 0.8325
vt -1.4505 -0.2566 0.8325
vt -0.4825 -0.2566 0.9401
vt -0.4825 0.1595 0.9401
vt -0.4825 0.5756 0.9401
vt -0.4825 0.9917 0.9401
vt -0.1574 0.1595 0.9827
vt -0.1574 -0.2566 0.9827
vt 0.6386 -0.2566 1.0872
vt -0.1574 0.5756 0.9827
vt -0.1574 0.9917 0.9827
vt 0.6386 0.9917 1.0872
vt 1.6959 -0.2566 1.2211
vt 1.6959 0.9917 1.2211
vt 3.7809 -0.3056 1.3750
vt 3.7809 0.9917 1.3750
vt 3.0043 -0.1989 1.3119
vt 3.0043 -0.2566 1.3119
vt 3.5778 -1.0218 1.6578
vt 4.0229 -1.7637 1.6578
vt 4.3260 -1.6467 1.7969
vt 3.7015 -0.6047 1.7969
vt 2.4307 0.9622 1.6578
vt 2.7337 1.0792 1.7969
vt 0.5280 5.2098 1.6578
vt 0.2736 5.0168 1.7969
vt 1.1576 4.2251 1.6578
vt 2.3301 -0.4644 0.4164
vt 2.3301 0.9917 0.4164
vt 1.7659 1.1481 0.4788
vt 1.7659 -0.4644 0.4788
vt 2.3335 1.4650 0.4156
vt 1.7693 1.4650 0.4780
vt -0.4858 1.4650 0.9392
vt -1.4538 1.4650 0.8317
vt -0.1607 1.4650 0.9819
vt 1.6926 1.4650 1.2203
vt 0.6352 1.4650 1.0864
vt 3.0009 1.4650 1.3111
vt 3.7775 1.4650 1.3742
vt 2.2369 2.5804 1.6578
vt 4.6290 -1.5297 1.6578
vt 3.8787 -0.2762 1.6578
vt 3.6345 0.1508 1.6578
vt 3.0368 1.1962 1.6578
vt -0.0058 4.8630 1.6578
vt -2.7070 0.9885 0.1056
vt -2.7070 -0.2566 0.1056
vt -2.7104 1.4619 0.1048
vt 4.5985 -3.8069 1.7922
vt 4.9016 -3.6900 1.6531
vt 4.2955 -3.9240 1.6531
vt 3.5867 0.9885 -0.3105
vt 3.5900 1.4619 -0.3113
vt 3.5867 -0.4644 -0.3104
vt -2.7780 1.4650 0.9484
vt -2.7814 1.1481 0.9492
vt -2.1213 1.1945 0.8950
vt -2.1213 1.4650 0.8950
vt -1.0738 1.2700 0.7990
vt -1.0738 1.4650 0.7990
vt 0.2444 1.3592 0.6703
vt 0.2444 1.4650 0.6703
vt 4.6151 -3.9482 1.7912
vt 4.3285 -4.2098 1.6521
vt 3.7517 0.9879 -0.4082
vt 3.7550 1.4612 -0.4090
vt 3.7517 -0.4650 -0.4082
vt 2.5660 -0.2566 1.2815
vt 2.5660 -0.1989 1.2815
vt 3.6784 -0.9247 1.5164
vt 4.2251 -0.9247 1.1576
vt 4.2260 -0.8381 1.1570
vt 3.6784 -0.8381 1.5164
vt 0.9388 4.0877 -0.7481
vt 1.3004 3.5367 -0.7481
vt 1.4088 3.6078 -0.7481
vt 1.0472 4.1588 -0.7481
vt 0.8295 4.0181 -0.6644
vt 1.1919 3.4659 -0.6644
vt 1.3004 3.5367 -0.6581
vt 0.9388 4.0877 -0.6581
vt 1.5164 3.6784 -0.8381
vt 1.1570 4.2260 -0.8381
vt 1.0483 4.1571 -0.8381
vt 1.4087 3.6079 -0.8381
vt 3.6079 -0.8381 1.4087
vt 4.1571 -0.8381 1.0483
vt 4.1588 -0.7481 1.0472
vt 3.6078 -0.7481 1.4088
vt 3.5367 -0.7481 1.3004
vt 4.0877 -0.7481 0.9388
vt 4.0877 -0.6581 0.9388
vt 3.5367 -0.6581 1.3004
vt 0.0599 0.5756 1.4825
vt 0.0599 0.1595 1.4825
vt 0.2152 0.1595 1.4621
vt 0.2152 0.5756 1.4621
vt 1.4825 0.9401 0.1595
vt 1.1574 0.9827 0.1595
vt 1.1370 0.8275 0.1595
vt 1.4621 0.7848 0.1595
vt 0.9827 0.1595 1.1574
vt 0.9827 0.5756 1.1574
vt 0.8275 0.5756 1.1370
vt 0.8275 0.1595 1.1370
vt -0.1574 0.9827 0.5756
vt -0.4825 0.9401 0.5756
vt -0.4621 0.7848 0.5756
vt -0.1370 0.8275 0.5756
vt 3.3416 1.3916 2.5667
vt -2.1224 1.3916 -0.9084
vt -2.1224 -1.0271 -0.9084
vt 3.3416 -1.0271 2.5667
vt 0.3439 1.3916 4.6073
vt 0.3440 -1.1005 4.6072
vt 2.1303 -1.0271 3.4712
vt 1.7824 1.3916 3.6924
vt 2.1303 1.3916 3.4711
vt 4.2397 1.3916 -1.2775
vt 2.8924 1.3916 -2.1344
vt 2.8924 -1.0271 -2.1344
vt 4.2397 -1.0271 -1.2775
vt -0.7807 1.3916 -3.0179
vt -0.7807 1.8670 -3.0179
vt -1.1294 1.8670 -3.2397
vt -1.1294 1.3916 -3.2397
vt -1.5703 3.3782 1.9247
vt 1.9048 -2.0858 1.9247
vt 2.2306 -1.8786 1.9247
vt -1.7921 3.7269 1.9247
vt -1.4443 3.9482 1.9247
vt -0.7807 2.1005 -3.0179
vt -1.1294 2.1005 -3.2397
vt 3.6924 1.8670 -0.7824
vt 3.6924 2.1005 -0.7824
vt -2.1344 2.1005 2.8924
vt -2.1344 1.8670 2.8924
vt 2.1303 1.8670 3.4711
vt 2.1303 2.1005 3.4711
vt 1.7824 2.1005 3.6924
vt 1.7824 1.8670 3.6924
vt 2.2813 2.8910 0.1467
vt 2.2631 3.9258 0.0005
vt -1.1464 3.9146 0.0005
vt 2.2772 1.3132 0.3847
vt 2.2482 -0.6735 0.6659
vt 2.0848 -2.9637 0.9995
vt -1.1085 -2.9742 0.9995
vt 3.6924 1.3916 -0.7824
vt -1.1295 -1.0271 -3.2397
vt -0.7807 -1.0271 -3.0179
vt 3.3416 1.8670 2.5667
vt -2.1224 1.8670 -0.9084
vt 3.3416 2.1005 2.5667
vt -2.1224 2.1005 -0.9084
vt 4.2397 -1.0271 2.1295
vt 4.2397 1.3916 2.1294
vt 2.1303 3.4712 -1.0271
vt 1.9084 3.1224 -1.0271
vt 4.0179 1.7807 -1.0271
vt 4.2397 2.1295 -1.0271
vt -0.9084 -1.0271 3.1224
vt -0.9084 1.3916 3.1224
vt -3.0179 1.3916 1.7807
vt -3.0179 -1.0271 1.7807
vt -0.9084 1.8670 3.1224
vt -3.0179 1.8670 1.7807
vt -0.9084 2.1005 3.1224
vt -3.0179 2.1005 1.7807
vt -3.9016 2.3852 1.9246
vt -3.6798 2.0365 1.9246
vt 2.7921 1.8913 3.7269
vt 4.9016 1.8913 2.3852
vt 4.9016 1.9246 2.3852
vt 2.7921 1.9247 3.7269
vt 4.2397 1.8670 2.1294
vt -0.2815 0.7279 -1.5660
vt -0.2815 -0.1989 -1.5660
vt -0.1953 -0.1989 -1.5720
vt -0.1091 -0.1989 -1.5779
vt -0.0229 -0.1989 -1.5839
vt -0.0229 -0.0831 -1.5839
vt -0.0229 0.7279 -1.5839
vt 1.0533 -0.0831 -2.0222
vt 1.0533 -0.1989 -2.0222
vt 1.1395 -0.1989 -2.0163
vt 1.0533 0.7279 -2.0222
vt 1.2257 -0.1989 -2.0103
vt 1.3119 -0.1989 -2.0043
vt 1.3119 0.7279 -2.0043
vt 2.5839 1.0229 0.7279
vt 3.0222 1.0533 0.7279
vt 3.0043 1.3119 0.7279
vt 2.5660 1.2815 0.7279
vt 4.2397 1.8670 -1.2775
vt 2.8924 1.8670 -2.1344
vt 4.6073 -1.0271 3.3717
vt 4.6073 1.3916 3.3717
vt -1.5667 -2.3416 -1.0271
vt -1.8924 -2.1344 -1.0271
vt -2.6748 -3.4145 -1.0271
vt -2.3717 -3.6073 -1.0271
vt -2.1344 -1.0271 2.8924
vt -2.1344 1.3916 2.8924
vt -3.4145 1.3916 3.6748
vt -3.4145 -1.0271 3.6748
vt -3.4145 1.8670 3.6748
vt -3.4145 2.1005 3.6748
vt 1.6163 -3.5062 0.6250
vt 1.2303 -3.5098 0.7500
vt 2.5667 2.1172 -2.9744
vt 2.8924 2.1172 -2.7673
vt 3.0858 1.8913 1.9048
vt 4.3515 1.8913 2.7098
vt 4.3515 1.9247 2.7098
vt 3.0858 1.9247 1.9048
vt 4.6073 1.8670 3.3717
vt -1.0365 1.9246 -3.6798
vt -1.3852 1.9246 -3.9016
vt -1.3852 1.8913 -3.9016
vt -1.0365 1.8913 -3.6798
vt 3.0129 1.9247 -3.1587
vt 2.7098 1.9247 -3.3515
vt 2.7098 1.8913 -3.3515
vt 3.0129 1.8913 -3.1587
vt 3.9482 1.9247 -1.4443
vt -1.8786 1.9247 2.2306
vt -1.8786 1.8913 2.2306
vt 3.9482 1.8913 -1.4443
vt 2.4443 1.9247 3.9482
vt 2.4443 1.8913 3.9482
vt -2.3782 1.9247 -1.5703
vt -2.3782 1.8913 -1.5703
vt -1.5703 1.9247 3.3782
vt -3.6798 1.9246 2.0365
vt -3.6798 1.8913 2.0365
vt -1.5703 1.8913 3.3782
vt 4.2397 2.1005 2.1294
vt -3.1587 1.9247 3.0129
vt -3.1587 1.8913 3.0129
vt 4.6073 2.1005 3.3717
vt 0.0004 -0.9950 0.9995
vt 0.9994 -0.9950 0.0007
vt 0.9994 1.0098 0.0007
vt 0.0004 1.0098 0.9998
vt 0.9972 0.9994 0.0000
vt 0.0005 0.9995 0.2014
vt 0.0005 0.0006 0.9993
vt 0.9995 0.0005 0.7966
# 258 texture coords

g Aida_7_2
usemtl paek
s 524288
f 1/1/1 2/2/1 3/3/2 4/4/3 
usemtl betoon
s off
f 5/5/4 6/6/4 7/7/4 8/8/4 
usemtl paek
s 524288
f 9/9/5 10/10/6 11/11/7 12/12/8 
f 9/9/5 12/12/8 13/13/8 14/14/9 
f 15/15/10 16/16/10 17/17/11 18/18/10 
f 19/19/10 18/18/10 17/17/11 20/20/11 
f 20/20/11 17/17/11 21/21/12 22/22/13 
f 23/23/14 24/24/14 4/4/3 3/3/2 
f 23/23/14 3/3/2 25/25/2 26/26/15 
usemtl betoon
s off
f 27/27/16 28/28/16 29/29/16 30/30/16 
f 31/31/17 27/27/17 30/30/17 32/32/17 
f 31/31/18 32/32/18 6/6/18 5/5/18 
f 33/33/19 34/34/19 7/7/19 35/35/19 
usemtl paek
f 36/36/20 37/37/20 38/38/20 39/39/20 
f 38/38/20 37/37/20 28/40/20 27/41/20 
s 524288
f 9/9/5 14/14/9 40/42/9 41/43/5 
f 14/14/9 19/19/10 42/44/10 40/42/9 
f 20/20/11 22/22/13 43/45/13 44/46/11 
f 1/1/1 4/4/3 35/47/21 22/22/13 
f 22/22/13 35/47/21 43/45/13 
f 4/4/3 24/24/14 33/48/14 35/47/21 
usemtl betoon
s off
f 6/6/22 43/49/22 35/35/22 7/7/22 
f 41/50/23 40/51/23 30/30/23 29/29/23 
f 42/52/24 44/53/24 32/32/24 40/51/24 
f 30/30/25 40/51/25 32/32/25 
f 32/32/26 44/53/26 43/49/26 6/6/26 
f 34/34/27 45/54/27 8/8/27 7/7/27 
usemtl paek
f 10/10/28 9/9/28 46/55/28 47/56/28 
f 9/9/28 41/43/28 48/57/28 46/55/28 
usemtl betoon
f 41/50/29 29/29/29 49/58/29 48/59/29 
f 29/29/30 28/28/30 50/60/30 49/58/30 
usemtl paek
f 28/40/31 37/37/31 51/61/31 50/62/31 
f 37/37/32 36/36/32 52/63/32 51/61/32 
f 45/64/33 53/65/33 54/66/33 8/67/33 
f 55/68/34 5/69/34 8/67/34 54/66/34 
f 56/70/35 31/71/35 5/69/35 55/68/35 
f 56/70/36 27/41/36 31/71/36 
usemtl betoon
f 49/58/37 57/72/37 48/59/37 
f 49/58/38 50/60/38 58/73/38 57/72/38 
usemtl paek
f 50/62/39 51/61/39 59/74/39 58/75/39 
f 51/61/40 52/63/40 60/76/40 59/74/40 
s 524288
f 22/22/13 21/21/12 61/77/41 62/78/1 
f 22/22/13 62/78/1 2/2/1 1/1/1 
usemtl betoon
f 61/79/41 26/80/15 25/81/2 62/82/1 
s off
f 63/83/42 64/84/42 65/85/42 66/86/42 
f 67/87/43 68/88/43 69/89/43 70/90/43 
f 62/91/44 25/92/44 71/93/44 72/94/44 
f 72/95/45 71/96/45 66/97/45 65/98/45 
f 64/99/1 63/100/1 70/101/1 69/102/1 
usemtl paek
s 524288
f 19/19/10 20/20/11 44/46/11 42/44/10 
f 11/11/7 16/16/10 15/15/10 12/12/8 
f 19/19/10 14/14/9 13/13/8 18/18/10 
s off
f 13/103/46 12/104/46 73/105/46 74/106/46 
f 12/107/42 15/108/42 75/109/42 73/110/42 
f 15/111/47 18/112/47 76/113/47 75/114/47 
f 18/115/48 13/116/48 74/117/48 76/118/48 
usemtl aida5_7SG
f 77/119/49 78/120/49 79/121/49 80/122/49 
f 53/123/50 81/124/50 82/125/50 83/126/50 
f 82/125/51 84/127/51 83/126/51 
f 38/128/52 85/129/52 86/130/52 39/131/52 
f 87/132/53 88/133/53 89/134/53 90/135/53 
usemtl betoon
f 91/136/42 92/137/42 93/138/42 94/139/42 
f 95/140/54 94/139/54 93/138/54 
usemtl aida5_7SG
f 88/133/53 96/141/53 97/142/53 89/134/53 
f 98/143/55 99/144/55 100/145/55 101/146/55 
f 102/147/51 103/148/51 99/149/51 98/150/51 
f 84/127/51 102/147/51 98/150/51 83/126/51 
usemtl ruberoid
s 1
f 54/151/56 53/152/57 83/153/58 55/154/59 
f 56/155/60 55/154/59 83/153/58 27/156/61 
f 101/157/62 27/156/61 83/153/58 
usemtl aida5_7SG
s off
f 101/146/55 83/158/55 98/143/55 
f 90/135/53 104/159/53 105/160/53 87/132/53 
f 77/119/53 106/161/53 107/162/53 78/120/53 
f 106/161/49 108/163/49 109/164/49 107/162/49 
f 84/127/51 82/125/51 104/165/51 90/166/51 
f 82/167/63 79/168/63 105/169/63 104/170/63 
f 79/171/52 78/172/52 87/173/52 105/174/52 
f 78/172/52 107/175/52 88/176/52 87/173/52 
f 109/177/52 96/178/52 88/176/52 107/175/52 
usemtl betoon
f 91/136/44 94/139/44 110/179/44 111/180/44 
f 103/181/51 97/182/51 110/183/51 94/184/51 
usemtl aida5_7SG
f 102/147/51 84/127/51 90/166/51 89/185/51 
usemtl paek
f 2/186/64 62/187/64 72/188/64 112/189/64 
f 2/186/65 112/189/65 113/190/65 68/191/65 
f 2/186/66 68/191/66 114/192/66 
f 67/193/67 115/194/67 116/195/67 117/196/67 
f 117/196/67 116/195/67 71/197/67 25/198/67 
f 117/196/68 25/198/68 3/199/68 
f 114/200/48 117/201/48 3/202/48 2/203/48 
usemtl aida5_7SG
f 38/128/69 27/204/69 101/205/69 85/129/69 
f 77/119/49 80/122/49 118/206/49 119/207/49 
f 80/208/70 86/209/70 120/210/70 118/211/70 
f 86/212/71 85/213/71 121/214/71 120/215/71 
f 85/213/71 101/146/71 122/216/71 121/214/71 
f 100/145/72 123/217/72 122/216/72 101/146/72 
usemtl betoon
f 93/218/42 92/219/42 124/220/42 125/221/42 
f 108/222/49 126/223/49 124/224/49 92/225/49 
usemtl aida5_7SG
f 106/161/53 77/119/53 119/207/53 127/226/53 
usemtl betoon
f 111/227/49 110/228/49 97/229/49 96/230/49 
f 125/231/73 124/232/73 126/233/73 123/234/73 
f 95/235/74 93/236/74 100/237/74 99/238/74 
f 94/184/75 95/239/75 99/240/75 103/181/75 
f 92/225/49 91/241/49 109/242/49 108/222/49 
f 91/243/52 111/244/52 96/245/52 109/246/52 
usemtl aida5_7SG
f 102/147/76 89/185/76 97/247/76 103/148/76 
usemtl betoon
f 93/236/71 125/248/71 123/249/71 100/237/71 
usemtl aida5_7SG
f 106/161/49 127/226/49 126/250/49 108/163/49 
usemtl a72a
s 524288
f 73/251/77 75/252/10 76/253/77 74/254/77 
usemtl a72u
f 117/255/1 114/256/1 68/257/1 67/258/41 
# 99 polygons - 10 triangles

#
# object xxx
#

v  542230.928 6589379.715 15.1866
v  542230.928 6589379.715 18.9221
v  542229.7819 6589378.6753 18.9201
v  542229.7819 6589378.6753 14.5615
v  542230.9322 6589379.7054 20.3420
v  542230.3592 6589379.189 20.6183
v  542229.786 6589378.6659 20.3401
v  542227.1548 6589380.768 19.4007
v  542227.1548 6589380.768 20.3515
v  542226.5486 6589380.3824 20.3515
v  542226.5486 6589380.3824 19.4007
v  542227.1548 6589380.768 20.8185
v  542226.5486 6589380.3824 20.8185
v  542226.5486 6589380.3824 14.5634
v  542227.1548 6589380.768 14.5634
v  542221.1173 6589396.8114 19.4007
v  542222.1851 6589397.5049 18.9315
v  542222.1851 6589397.5049 15.0397
v  542221.1173 6589396.8114 14.4165
v  542222.1851 6589397.5049 20.3515
v  542221.6761 6589397.119 20.6297
v  542221.1173 6589396.8114 20.3515
# 22 vertices

vn 0.6719 -0.7407 -0.0000
vn 0.6706 -0.7418 -0.0051
vn 0.6759 -0.7369 -0.0069
vn 0.5367 -0.8438 0.0000
vn 0.5366 -0.8438 -0.0000
vn -0.5447 0.8386 -0.0000
vn -0.5579 0.8297 0.0214
vn -0.4822 0.8761 0.0000
# 8 vertex normals

vt 0.6259 0.0010 0.0000
vt 0.1412 0.3173 0.0000
vt -1.1204 0.2670 0.0000
vt 0.5563 0.1014 0.0000
vt -0.4896 0.2922 0.0000
vt 3.6748 1.3916 -3.4145
vt 3.6748 1.8670 -3.4145
vt 3.3717 1.8670 -3.6073
vt 3.3717 1.3916 -3.6073
vt 3.6748 2.1005 -3.4145
vt 3.3717 2.1005 -3.6073
vt 3.3717 -1.0271 -3.6073
vt 3.6748 -1.0271 -3.4145
vt 3.0043 1.3119 0.7279
vt -0.4825 0.1595 0.9401
vt 4.2260 -0.8381 1.1570
vt 1.0472 4.1588 -0.7481
vt 0.5280 5.2098 1.6578
vt 3.7809 0.9917 1.3750
vt 0.2736 5.0168 1.7969
vt -2.7780 1.4650 0.9484
# 21 texture coords

g xxx
usemtl xxx
s off
f 128/259/78 129/260/78 130/261/78 131/262/78 
f 130/261/79 129/260/79 132/260/79 133/263/79 
f 130/261/80 133/263/80 134/261/80 
f 135/264/81 136/265/81 137/266/81 138/267/81 
f 136/265/82 139/268/82 140/269/82 137/266/82 
f 138/267/81 141/270/81 142/271/81 135/264/81 
s 2
f 143/272/83 144/273/83 145/274/83 146/275/83 
s off
f 147/276/84 144/277/84 143/272/84 148/278/84 
f 149/279/85 148/278/85 143/272/85 
# 7 polygons - 2 triangles

