# 3ds Max Wavefront OBJ Exporter v0.97b - (c)2007 guruware
# File Created: 01.03.2012 00:21:38

mtllib Vene_27-origo.mtl

#
# object Vene_27
#

v  542452.6515 6589304.6069 17.0525
v  542451.8154 6589299.4734 19.4115
v  542453.4984 6589304.4212 17.0552
v  542451.3374 6589299.6033 19.3099
v  542451.3406 6589299.5969 19.4050
v  542452.6455 6589304.6085 16.7556
v  542451.7042 6589298.7384 15.5000
v  542466.582 6589295.7174 15.5000
v  542466.7731 6589296.4764 16.3422
v  542451.8736 6589299.6971 16.3432
v  542451.8236 6589299.4757 19.3147
v  542441.7571 6589301.8536 16.6071
v  542434.7694 6589314.4155 15.9843
v  542431.1508 6589304.1928 19.4803
v  542435.3141 6589314.2099 15.9784
v  542435.345 6589313.9726 15.4093
v  542431.7704 6589303.8948 19.1164
v  542431.5217 6589303.9374 16.9549
v  542441.8346 6589301.7263 19.2160
v  542469.7875 6589295.0518 19.7361
v  542466.5257 6589296.5172 17.4364
v  542466.356 6589295.8505 17.4337
v  542478.2426 6589294.7611 12.9807
v  542478.226 6589294.7632 10.6724
v  542478.4385 6589296.2749 10.6724
v  542478.4551 6589296.2728 12.9807
v  542478.518 6589296.6612 12.9818
v  542478.4849 6589296.6655 10.6735
v  542478.6968 6589298.1773 10.6735
v  542478.7299 6589298.173 12.9818
v  542479.012 6589300.1737 12.9820
v  542478.9753 6589300.1785 10.6738
v  542479.1871 6589301.6902 10.6738
v  542479.2237 6589301.6855 12.9820
v  542478.2447 6589294.7846 16.2419
v  542478.2422 6589294.7849 14.1180
v  542478.4404 6589296.1219 14.1180
v  542478.4429 6589296.1216 16.2419
v  542478.7297 6589298.0477 16.2420
v  542478.5309 6589296.7107 16.2420
v  542478.5276 6589296.7112 14.1181
v  542478.7264 6589298.0481 14.1181
v  542479.0413 6589300.2588 14.0692
v  542479.2294 6589301.5972 14.0692
v  542479.2573 6589301.5935 16.1931
v  542479.0583 6589300.2566 16.1931
v  542478.2361 6589294.8024 9.5560
v  542478.2392 6589294.802 7.9531
v  542478.4165 6589296.1418 7.9539
v  542478.4149 6589296.142 9.5560
v  542478.2444 6589294.8013 7.7747
v  542478.4191 6589296.1414 7.7747
v  542478.5338 6589297.2708 7.9560
v  542478.7257 6589298.7209 7.9568
v  542478.5331 6589297.2701 8.9639
v  542478.5245 6589297.2734 6.3276
v  542478.4443 6589299.6555 7.9587
v  542478.8288 6589302.4688 7.9603
v  542478.4779 6589299.7684 8.4724
v  542478.4598 6589299.6551 8.1443
v  542478.5167 6589300.0356 8.8404
v  542478.8277 6589302.4522 8.0758
v  542478.6545 6589301.0464 9.2630
v  542478.5635 6589300.3725 9.0791
v  542478.7375 6589301.6872 9.0951
v  542478.8171 6589302.3458 8.4030
v  542478.7863 6589302.0785 8.8275
v  542478.738 6589301.691 9.0942
v  542478.4443 6589299.6607 5.9328
v  542478.8073 6589302.4751 5.9153
v  542456.8532 6589303.0173 14.4454
v  542457.7365 6589302.808 15.6618
v  542457.7359 6589302.805 15.1987
v  542457.0381 6589302.9688 14.2643
v  542458.6369 6589302.5765 14.4379
v  542458.4285 6589302.6267 14.3030
v  542456.3228 6589299.9255 14.1864
v  542456.9703 6589302.686 14.2652
v  542456.9642 6589302.6631 13.3481
v  542456.3204 6589299.9174 13.1091
v  542457.7159 6589299.5941 14.2250
v  542457.7148 6589299.5904 13.1477
v  542458.3582 6589302.3338 13.3868
v  542458.3638 6589302.356 14.3038
v  542457.6655 6589302.5467 15.2002
v  542456.1392 6589299.9789 14.3674
v  542457.9246 6589299.5448 14.3599
v  542461.9192 6589301.8719 14.4454
v  542462.8024 6589301.6627 15.6618
v  542462.8018 6589301.6597 15.1987
v  542462.104 6589301.8235 14.2643
v  542463.7029 6589301.4312 14.4379
v  542463.4944 6589301.4814 14.3030
v  542461.4452 6589298.979 13.9928
v  542462.0363 6589301.5407 14.2652
v  542462.0302 6589301.5178 13.3481
v  542461.4428 6589298.9709 12.9155
v  542462.8383 6589298.6477 14.0314
v  542462.8372 6589298.644 12.9541
v  542463.4241 6589301.1885 13.3868
v  542463.4297 6589301.2108 14.3038
v  542462.7314 6589301.4014 15.2002
v  542461.2617 6589299.0325 14.1738
v  542463.047 6589298.5983 14.1663
v  542474.065 6589300.4967 23.8092
v  542473.9819 6589299.9397 23.4259
v  542474.0632 6589300.497 23.4259
v  542474.0527 6589300.3893 24.5085
v  542474.0274 6589300.213 24.5770
v  542473.9915 6589299.9877 23.9474
v  542474.0042 6589300.0558 24.5205
v  542473.9933 6589299.9855 24.3843
v  542474.0606 6589300.4621 23.9474
v  542474.0624 6589300.4594 24.3961
v  542474.0624 6589300.4971 23.2659
v  542474.0582 6589300.4977 22.3883
v  542472.851 6589300.6736 23.2718
v  542472.8543 6589300.6732 23.9533
v  542472.8493 6589300.6386 23.9533
v  542474.0657 6589300.4967 23.9474
v  542472.8511 6589300.6359 24.4021
v  542472.8414 6589300.5658 24.5144
v  542472.816 6589300.3895 24.5830
v  542472.7929 6589300.2323 24.5264
v  542472.782 6589300.162 24.3903
v  542472.7801 6589300.1642 23.9533
v  542472.7731 6589300.1158 23.9533
v  542473.9845 6589299.9393 23.9474
v  542474.0234 6589299.8979 23.8090
v  542474.0238 6589299.8979 23.9472
v  542472.7226 6589300.0875 23.8154
v  542472.7656 6589300.1169 22.3943
v  542472.7698 6589300.1163 23.2718
v  542472.8468 6589300.6743 22.3943
v  542473.977 6589299.9404 22.3883
v  542473.9812 6589299.9398 23.2659
v  542472.8536 6589300.6733 23.8151
v  542472.8518 6589300.6735 23.4318
v  542472.7706 6589300.1162 23.4318
v  542472.7724 6589300.1159 23.8151
v  542472.7776 6589300.1515 23.8151
v  542474.0111 6589299.8997 23.2657
v  542474.1025 6589300.527 23.2657
v  542474.0118 6589299.8996 23.4257
v  542472.859 6589300.723 23.4318
v  542472.8582 6589300.7231 23.2718
v  542472.7626 6589300.0668 23.2718
v  542472.7356 6589300.1707 23.9535
v  542472.8047 6589300.6451 23.9535
v  542472.8051 6589300.6544 23.8153
v  542472.8149 6589300.7146 23.9536
v  542472.814 6589300.7148 23.8154
v  542474.1152 6589300.5252 23.9472
v  542474.1148 6589300.5252 23.8090
v  542473.9838 6589299.9394 23.8092
v  542472.7235 6589300.0873 23.9536
v  542472.7328 6589300.158 23.8153
v  542472.8499 6589300.6479 23.8151
v  542474.1032 6589300.5269 23.4257
v  542472.7634 6589300.0667 23.4318
v  542472.7656 6589300.1169 21.7138
v  542472.8468 6589300.6743 21.7138
v  542473.977 6589299.9404 21.7079
v  542474.0582 6589300.4977 21.7079
v  542448.679 6589302.1356 17.5414
v  542448.679 6589302.1356 25.1025
v  542449.1297 6589302.0018 25.1025
v  542449.1297 6589302.0018 17.5414
v  542448.8747 6589301.1853 17.5414
v  542449.0135 6589301.6297 17.5414
v  542449.0022 6589301.5936 25.1025
v  542448.8747 6589301.1853 25.1025
v  542448.5583 6589301.7493 17.5414
v  542448.4239 6589301.3191 17.5414
v  542448.4239 6589301.3191 25.1025
v  542448.5514 6589301.7273 25.1025
v  542448.7379 6589302.0546 25.1025
v  542449.0344 6589301.9666 25.1025
v  542448.9417 6589301.6697 25.1025
v  542448.6452 6589301.7577 25.1025
v  542448.8157 6589301.2664 25.1025
v  542448.5192 6589301.3543 25.1025
v  542448.9084 6589301.5632 25.1025
v  542448.6119 6589301.6512 25.1025
v  542439.4547 6589303.3818 20.7572
v  542439.4547 6589303.3818 18.0000
v  542439.635 6589303.9377 20.7572
v  542438.959 6589304.1571 18.0000
v  542438.959 6589304.1571 20.7572
v  542438.7786 6589303.6012 20.7572
v  542438.7788 6589303.5981 17.9940
v  542479.0575 6589298.3527 16.6843
v  542479.2849 6589300.0541 16.6871
v  542479.0574 6589298.341 18.4950
v  542479.2549 6589299.1847 19.6439
v  542479.3064 6589300.0319 18.4489
v  542479.7007 6589300.2037 18.6638
v  542479.5382 6589299.1327 20.1156
v  542479.6565 6589299.9799 18.4477
v  542479.5364 6589299.1328 19.6428
v  542479.3697 6589298.0359 18.6548
v  542475.8622 6589298.8277 18.6710
v  542475.8991 6589299.0809 18.5100
v  542479.4065 6589298.2891 18.4938
v  542476.1383 6589300.7738 16.6905
v  542476.1481 6589300.7717 18.4640
v  542475.8946 6589299.0818 16.7366
v  542476.1926 6589300.9955 18.6800
v  542479.7018 6589298.9749 18.7543
v  542479.7455 6589299.1934 18.7543
v  542479.7466 6589299.1932 19.0088
v  542479.7028 6589298.9747 19.0088
v  542478.9377 6589299.1278 18.7575
v  542478.9814 6589299.3463 18.7575
v  542478.9825 6589299.3461 19.0121
v  542478.9387 6589299.1276 19.0121
v  542479.725 6589299.0839 19.0717
v  542478.9608 6589299.2368 19.0749
v  542467.5414 6589299.2866 18.3382
v  542467.7912 6589300.3407 19.7900
v  542467.7947 6589300.34 19.2373
v  542467.5992 6589299.5072 18.1221
v  542468.0674 6589301.4154 18.3293
v  542468.0074 6589301.1667 18.1683
v  542470.9748 6589298.6846 17.9944
v  542467.9367 6589299.4263 18.1232
v  542467.9641 6589299.4191 17.0286
v  542470.9844 6589298.6817 16.3650
v  542471.3702 6589300.3473 18.0404
v  542471.3746 6589300.3459 16.4110
v  542468.357 6589301.0827 17.0747
v  542468.3305 6589301.0894 18.1692
v  542468.103 6589300.256 19.2391
v  542470.9109 6589298.4655 18.2104
v  542471.4291 6589300.5963 18.2014
v  542478.527 6589296.1272 7.5430
v  542478.3534 6589294.7859 7.5442
v  542478.5196 6589296.1297 5.9524
v  542479.3168 6589298.2877 16.6216
v  542479.5701 6589299.9973 16.6161
v  542479.0239 6589300.106 17.2135
v  542473.9528 6589301.1158 22.7604
v  542473.693 6589299.6978 22.7530
v  542478.773 6589298.4241 17.2145
v  542472.7699 6589294.082 22.7255
v  542478.5642 6589293.2634 16.6382
v  542479.058 6589298.3526 16.9038
v  542479.9606 6589302.6532 16.6075
v  542479.2874 6589300.0536 16.9253
v  542468.8688 6589305.2695 16.9647
v  542476.0303 6589299.9245 20.1319
v  542471.166 6589299.5183 19.6623
v  542467.9187 6589301.2639 12.7548
v  542467.0122 6589299.467 14.1737
v  542466.799 6589298.5072 14.8901
v  542466.2311 6589298.6329 14.8902
v  542466.4471 6589299.5917 14.1744
v  542453.4984 6589304.4212 12.7881
v  542426.0393 6589311.5455 14.6273
v  542422.6817 6589306.8669 16.6905
v  542431.0801 6589304.8411 16.6391
v  542432.9491 6589310.0486 14.4707
v  542434.6934 6589320.3072 13.2127
v  542435.0016 6589314.1381 11.9461
v  542438.7458 6589318.1231 11.6243
v  542436.2242 6589313.6899 11.3975
v  542433.0972 6589319.1623 13.6092
v  542434.0399 6589318.6021 13.1373
v  542433.4289 6589317.5779 13.1733
v  542434.6131 6589322.7103 13.9139
v  542429.3073 6589316.0655 14.4235
v  542435.5466 6589321.5139 13.2068
v  542432.4882 6589318.1362 13.6273
v  542478.7112 6589298.7244 6.3295
v  542478.7272 6589298.7199 8.9658
v  542466.7731 6589296.4764 16.4794
v  542469.9355 6589295.7732 19.7291
v  542462.1118 6589298.6875 15.3777
v  542456.9732 6589299.5672 15.5788
v  542453.4984 6589304.4212 15.5000
v  542452.6002 6589307.4946 15.2290
v  542431.7777 6589304.0394 19.4875
v  542478.3468 6589294.7853 5.9607
v  542429.3073 6589316.0655 12.4330
v  542427.5963 6589311.1007 13.6593
v  542430.4229 6589315.6851 12.2834
v  542432.8165 6589309.8746 12.5135
v  542430.386 6589315.6977 11.7208
v  542427.5963 6589311.1007 13.0898
v  542426.0393 6589311.5455 13.9715
v  542452.6002 6589307.4946 5.7410
v  542434.64 6589322.5917 5.7868
v  542435.4956 6589321.4755 5.7832
v  542451.6925 6589298.7151 6.1841
v  542474.1757 6589304.0681 12.4615
v  542468.8957 6589305.3849 11.3934
v  542453.4984 6589304.4212 5.7314
v  542467.9187 6589301.2655 5.7258
v  542438.7458 6589318.5604 5.7745
v  542434.9556 6589320.5509 5.7796
v  542426.0393 6589311.5454 5.7535
v  542434.6765 6589314.2244 15.4152
v  542429.3073 6589316.0653 5.7675
v  542430.796 6589304.0838 16.9765
v  542431.0772 6589304.073 19.1092
v  542431.0801 6589304.8411 16.8388
v  542430.9295 6589304.0338 5.7295
v  542422.7024 6589306.8607 16.8893
v  542422.3678 6589306.4673 17.0173
v  542422.3678 6589306.4674 5.7381
v  542436.2242 6589313.7058 5.7597
v  542451.9453 6589299.9232 6.1841
v  542441.7571 6589302.2945 5.7353
v  542466.5823 6589295.726 16.4778
v  542468.9226 6589305.5004 5.8220
v  542472.4059 6589294.4868 15.9332
v  542472.4061 6589294.4911 16.4221
v  542478.3936 6589293.2634 16.4613
v  542479.795 6589302.6952 16.4614
v  542479.7934 6589302.6942 16.5424
v  542478.3936 6589293.2634 16.5593
v  542479.9619 6589302.654 16.5423
v  542478.5642 6589293.2634 16.5593
v  542478.2298 6589293.2563 16.3664
v  542478.2159 6589293.2634 16.4174
v  542478.2909 6589293.2634 16.4613
v  542479.5219 6589302.751 16.4258
v  542479.5222 6589302.7554 16.3838
v  542479.6943 6589302.7191 16.4615
v  542478.4093 6589294.7377 12.9794
v  542478.3053 6589294.0842 10.6469
v  542478.3946 6589294.7396 10.6712
v  542478.6681 6589296.6401 12.9795
v  542478.6004 6589296.2522 10.6712
v  542478.6534 6589296.642 10.6712
v  542478.8739 6589298.1528 12.9796
v  542478.8592 6589298.1546 10.6712
v  542479.1463 6589300.1548 12.9796
v  542478.4196 6589294.7589 14.1176
v  542478.6154 6589296.0963 16.2417
v  542478.6821 6589296.6882 14.1178
v  542478.6956 6589296.6864 16.2417
v  542478.8643 6589298.0275 14.1179
v  542479.165 6589300.2406 14.0677
v  542478.8778 6589298.0256 16.2418
v  542479.3472 6589301.5798 14.0677
v  542478.1851 6589293.3295 7.9532
v  542478.3931 6589294.7815 9.5565
v  542478.6018 6589296.0981 14.1178
v  542478.6151 6589296.2503 12.9795
v  542479.1315 6589300.1566 10.6713
v  542479.3373 6589301.6692 10.6713
v  542479.3521 6589301.6674 12.9797
v  542478.4332 6589294.757 16.2416
v  542479.1786 6589300.2389 16.1916
v  542479.3608 6589301.5782 16.1917
v  542478.3828 6589294.7829 7.9538
v  542478.3817 6589294.7832 7.7754
v  542478.5639 6589296.1222 7.7754
v  542478.565 6589296.1221 7.9544
v  542478.5752 6589296.1207 9.5565
v  542478.7243 6589297.245 8.9630
v  542478.718 6589297.2465 7.9551
v  542478.9152 6589298.696 7.9559
v  542479.0212 6589299.4584 8.3097
v  542478.9215 6589298.6943 8.9648
v  542479.4448 6589302.5892 7.9580
v  542479.4825 6589302.8666 7.9582
v  542479.4452 6589302.5888 8.0256
v  542479.129 6589300.2064 9.2415
v  542479.2364 6589300.9859 9.4438
v  542479.0354 6589299.5503 8.5819
v  542479.0672 6589299.7689 8.8938
v  542479.3297 6589301.68 9.2773
v  542479.518 6589302.7285 16.2982
v  542479.4489 6589302.3973 12.6060
v  542479.3816 6589302.0745 9.0068
v  542479.4332 6589302.4841 8.3776
v  542478.773 6589298.4241 16.7531
v  542479.0239 6589300.106 16.7521
v  542479.4682 6589302.5478 12.4230
v  542479.5024 6589302.811 12.1710
v  542479.4194 6589302.3708 8.6265
v  542479.0163 6589299.4397 7.9563
v  542472.3974 6589294.5008 14.3290
v  542466.582 6589295.6492 5.7077
v  542479.4697 6589302.89 5.4899
v  542478.4342 6589294.7585 16.3691
v  542478.6166 6589296.099 16.3719
v  542479.0676 6589299.4138 16.3777
v  542478.9734 6589298.7219 16.3764
v  542478.8793 6589298.0301 16.3750
v  542478.6965 6589296.686 16.3729
v  542472.3751 6589294.4846 5.6264
v  542472.3836 6589294.4893 6.8305
v  542478.2128 6589293.2842 13.1581
v  542478.2 6589293.3052 10.7465
v  542478.7078 6589297.2493 6.3267
v  542478.3801 6589294.7826 7.5441
v  542479.4309 6589302.585 5.9117
v  542478.905 6589298.6989 6.3285
v  542479.0036 6589299.4429 5.9315
v  542479.2028 6589299.0612 6.2102
v  542478.8907 6589296.7837 5.4890
v  542479.1954 6589299.0622 5.4890
v  542478.8471 6589299.1064 6.2193
v  542478.8397 6589299.1073 5.4980
v  542478.5424 6589296.828 6.2193
v  542478.8981 6589296.7828 6.2102
v  542478.535 6589296.8289 5.9221
v  542478.535 6589296.8289 5.4980
v  542478.5624 6589296.1227 7.5429
v  542478.3698 6589294.7825 5.9606
v  542478.5525 6589296.1255 5.9523
v  542479.4282 6589302.5854 5.4876
v  542478.8073 6589302.4751 5.4912
v  542478.4443 6589299.6607 5.5087
v  542478.3468 6589294.7853 5.5366
v  542478.5196 6589296.1297 5.5283
v  542478.3671 6589294.7829 5.5366
v  542478.5498 6589296.1259 5.5282
v  542479.0009 6589299.4433 5.5074
v  542478.1682 6589293.32 5.5450
v  542479.029 6589299.6298 5.9304
v  542479.0354 6589299.6278 6.9433
v  542479.0416 6589299.6257 7.9564
v  542479.0428 6589299.6252 8.1419
v  542479.0603 6589299.7386 8.4701
v  542479.0991 6589300.0059 8.8381
v  542479.1465 6589300.3426 9.0768
v  542479.2393 6589301.0164 9.2606
v  542479.3253 6589301.6568 9.0928
v  542479.3259 6589301.6606 9.0918
v  542479.3768 6589302.0477 8.8251
v  542479.4103 6589302.3147 8.4006
v  542479.4226 6589302.4207 8.0734
v  542479.4241 6589302.4374 7.9579
v  542479.4115 6589302.4423 5.9129
v  542479.0263 6589299.6302 5.5063
v  542479.4088 6589302.4427 5.4888
v  542479.0363 6589299.6273 7.0955
v  542439.635 6589303.9377 18.0000
v  542472.391 6589294.4772 8.2271
# 443 vertices

vn 0.0858 0.4044 0.9105
vn -0.9601 0.2751 0.0509
vn -0.9646 0.2628 0.0210
vn -0.1458 -0.7182 0.6804
vn -0.2098 -0.9748 -0.0762
vn 0.1175 0.2839 0.9516
vn 0.9470 -0.2748 0.1660
vn -0.1994 -0.9799 0.0036
vn -0.2101 -0.9768 -0.0414
vn -0.5310 0.1318 0.8371
vn 0.9902 -0.1392 -0.0072
vn 0.9902 -0.1388 -0.0145
vn 0.9902 -0.1387 -0.0160
vn 0.9892 -0.1466 -0.0012
vn 0.9891 -0.1471 -0.0016
vn 0.9902 -0.1392 -0.0132
vn 0.9891 -0.1472 -0.0081
vn 0.9914 -0.1312 0.0019
vn 0.9912 -0.1323 0.0010
vn 0.9909 -0.1312 0.0294
vn 0.9915 -0.1293 0.0146
vn 0.9914 -0.1312 0.0006
vn 0.9913 -0.1312 -0.0059
vn 0.9902 -0.1353 -0.0350
vn 0.9933 0.0807 -0.0827
vn 0.9914 -0.1306 -0.0096
vn 0.9914 -0.1305 -0.0093
vn 0.9913 -0.1308 -0.0103
vn 0.9913 -0.1314 -0.0090
vn 0.9913 -0.1312 -0.0108
vn 0.9914 -0.1307 -0.0104
vn 0.9906 -0.1354 -0.0174
vn 0.9917 -0.1280 -0.0108
vn 0.2392 0.9710 -0.0066
vn 0.2431 0.9699 -0.0115
vn 0.2406 0.9706 -0.0066
vn 0.2392 0.9709 -0.0083
vn -0.9736 0.2283 0.0008
vn -0.9736 0.2282 0.0004
vn 0.9736 -0.2283 -0.0002
vn 0.9736 -0.2284 -0.0004
vn 0.7746 -0.1876 -0.6039
vn 0.7648 -0.2120 -0.6083
vn -0.6511 0.1720 -0.7393
vn -0.6645 0.1766 -0.7261
vn -0.6694 0.1582 -0.7259
vn 0.5236 -0.0987 -0.8462
vn 0.4997 -0.0952 -0.8610
vn 0.5175 -0.1262 -0.8464
vn -0.7515 0.2012 -0.6283
vn -0.7605 0.1799 -0.6239
vn 0.2391 0.9710 -0.0066
vn 0.2429 0.9700 -0.0114
vn 0.2405 0.9706 -0.0066
vn -0.9744 0.2247 0.0009
vn -0.9744 0.2247 0.0005
vn 0.9744 -0.2247 -0.0002
vn 0.9744 -0.2248 -0.0005
vn 0.7747 -0.1874 -0.6039
vn -0.5945 0.2119 -0.7757
vn -0.6495 0.2270 -0.7256
vn -0.6697 0.1580 -0.7256
vn 0.5368 -0.0343 -0.8430
vn 0.4532 -0.0195 -0.8912
vn 0.5173 -0.1262 -0.8465
vn -0.7516 0.2012 -0.6282
vn -0.7605 0.1800 -0.6239
vn 0.9895 -0.1444 -0.0048
vn 0.9896 -0.1439 -0.0049
vn 0.9896 -0.1441 -0.0048
vn 0.9895 -0.1441 -0.0048
vn 0.1442 0.9896 -0.0000
vn 0.0048 -0.0007 1.0000
vn 0.1442 0.9895 0.0054
vn 0.1245 0.8368 0.5331
vn 0.1246 0.8370 0.5328
vn 0.0563 0.3550 0.9332
vn -0.0439 -0.3327 0.9420
vn -0.1255 -0.8773 0.4632
vn -0.1442 -0.9895 -0.0044
vn -0.1442 -0.9895 0.0004
vn -0.9895 0.1442 0.0048
vn -0.9895 0.1442 0.0047
vn -0.9895 0.1444 0.0046
vn -0.9895 0.1442 0.0050
vn 0.9895 -0.1442 -0.0048
vn 0.1442 0.9895 0.0001
vn 0.1442 0.9896 -0.0002
vn -0.1442 -0.9896 0.0000
vn -0.9895 0.1446 0.0048
vn 0.9895 -0.1442 -0.0044
vn 0.1557 0.9878 -0.0002
vn -0.1327 -0.9912 -0.0001
vn -0.9895 0.1442 0.0051
vn -0.9895 0.1441 0.0069
vn -0.9893 0.1457 0.0067
vn 0.9895 -0.1442 -0.0028
vn -0.1442 -0.9896 -0.0000
vn -0.1442 -0.9896 -0.0001
vn 0.1441 0.9896 0.0005
vn -0.9896 0.1436 0.0068
vn -0.9895 0.1445 0.0047
vn 0.0044 -0.0006 1.0000
vn 0.0053 -0.0022 1.0000
vn 0.0047 -0.0012 1.0000
vn 0.0045 -0.0030 1.0000
vn 0.0051 0.0015 1.0000
vn -0.0044 0.0030 -1.0000
vn -0.0047 0.0013 -1.0000
vn -0.0044 0.0006 -1.0000
vn -0.0057 -0.0006 -1.0000
vn -0.0049 0.0002 -1.0000
vn 0.0056 -0.0008 1.0000
vn -0.9896 0.1440 0.0050
vn -0.0047 0.0015 -1.0000
vn -0.0056 0.0008 -1.0000
vn -0.0048 0.0007 -1.0000
vn -0.0049 -0.0001 -1.0000
vn -0.9896 0.1436 0.0050
vn 0.0049 0.0001 1.0000
vn -0.9896 0.1442 0.0000
vn 0.9896 -0.1442 0.0000
vn 0.1443 0.9895 0.0000
vn 0.2846 0.9586 0.0000
vn 0.9545 -0.2981 0.0000
vn -0.9545 0.2982 0.0000
vn -0.9545 0.2982 -0.0000
vn 0.0000 0.0000 1.0000
vn -0.2846 -0.9587 0.0000
vn 0.9512 -0.3085 0.0000
vn 0.3087 0.9512 0.0000
vn -0.9518 0.3068 -0.0004
vn -0.3047 -0.9524 0.0011
vn 0.9912 -0.1325 -0.0008
vn -0.9872 0.1471 0.0617
vn 0.9843 -0.1757 -0.0194
vn 0.9891 -0.1469 -0.0038
vn -0.1257 -0.5192 -0.8454
vn -0.1305 -0.5616 -0.8171
vn -0.0812 -0.5264 -0.8464
vn 0.9892 -0.1465 -0.0043
vn 0.2230 0.9748 0.0096
vn 0.2281 0.9736 -0.0001
vn -0.2247 -0.9744 -0.0063
vn -0.2281 -0.9736 0.0001
vn -0.1219 -0.8072 -0.5775
vn -0.1497 -0.7995 -0.5817
vn 0.0987 0.6811 -0.7255
vn 0.1393 0.6329 -0.7616
vn 0.1535 0.6702 -0.7261
vn 0.1433 0.7899 -0.5962
vn 0.1156 0.7910 -0.6008
vn 0.9806 -0.1961 -0.0044
vn 0.9805 -0.1965 -0.0040
vn -0.0040 0.0008 -1.0000
vn 0.1962 0.9806 -0.0001
vn -0.1962 -0.9806 -0.0000
vn -0.1962 -0.9806 0.0000
vn -0.0928 -0.4828 0.8708
vn -0.0928 -0.4822 0.8711
vn 0.9805 -0.1965 -0.0049
vn 0.0999 0.4807 0.8712
vn 0.1000 0.4813 0.8708
vn -0.9710 0.2390 -0.0064
vn -0.9700 0.2430 -0.0114
vn -0.9706 0.2407 -0.0064
vn -0.9709 0.2394 -0.0080
vn -0.2371 -0.9715 0.0005
vn -0.2371 -0.9715 0.0003
vn 0.2372 0.9715 -0.0002
vn 0.1876 0.7746 -0.6039
vn 0.2119 0.7649 -0.6083
vn -0.1833 -0.6355 -0.7500
vn -0.1919 -0.6600 -0.7263
vn -0.1581 -0.6695 -0.7258
vn 0.0924 0.5252 -0.8460
vn 0.0878 0.4953 -0.8643
vn 0.1262 0.5175 -0.8464
vn -0.2011 -0.7516 -0.6282
vn -0.1802 -0.7604 -0.6239
vn 0.9917 -0.1284 -0.0048
vn 0.2277 -0.0306 0.9733
vn 0.2352 -0.0330 0.9714
vn 0.7189 -0.1353 0.6818
vn 0.7203 -0.1070 0.6853
vn 0.7131 -0.1062 0.6930
vn 0.7175 -0.1213 0.6860
vn 0.7206 -0.1057 0.6852
vn 0.7206 -0.1057 0.6853
vn 0.7245 -0.1043 0.6813
vn 0.7245 -0.1043 0.6814
vn 0.2201 0.8740 0.4333
vn 0.1793 0.7820 0.5969
vn 0.2101 0.7682 0.6047
vn 0.1237 0.5758 0.8082
vn 0.1223 0.5762 0.8081
vn 0.1276 0.5758 0.8076
vn 0.1276 0.5742 0.8087
vn 0.1278 0.5747 0.8083
vn 0.1244 0.5689 0.8129
vn 0.1245 0.5755 0.8083
vn 0.1277 0.5742 0.8087
vn 0.0895 0.3474 0.9334
vn 0.0975 0.3526 0.9307
vn 0.2732 -0.1804 0.9449
vn 0.3260 -0.2323 0.9164
vn 0.3547 -0.1765 0.9182
vn 0.3434 -0.1724 0.9232
vn 0.3433 -0.1724 0.9233
vn 0.3892 -0.2426 0.8887
vn 0.3601 -0.2502 0.8987
vn 0.3956 -0.2450 0.8851
vn 0.3557 -0.1950 0.9140
vn 0.9895 -0.1442 -0.0050
vn 0.1557 0.9878 -0.0001
vn 0.1442 0.9895 -0.0004
vn 0.9895 -0.1443 -0.0047
vn -0.1441 -0.9896 -0.0005
vn -0.9897 0.1433 0.0067
vn 0.0058 0.0003 1.0000
vn 0.0048 -0.0002 1.0000
vn -0.0051 -0.0016 -1.0000
vn -0.1327 -0.9912 -0.0000
vn 0.0047 -0.0015 1.0000
vn 0.1443 0.9895 0.0001
vn -0.9895 0.1441 0.0068
vn -0.9894 0.1451 0.0069
vn -0.9895 0.1441 0.0047
vn -0.0051 0.0024 -1.0000
vn -0.9896 0.1440 0.0051
vn -0.9896 0.1440 0.0040
vn -0.9895 0.1443 0.0048
vn 0.9918 -0.1276 -0.0091
vn 0.9912 -0.1327 -0.0016
vn -0.6970 0.1272 0.7057
vn -0.6763 0.1458 0.7220
vn -0.6815 0.1329 0.7197
vn -0.6999 0.1246 0.7033
vn -0.7072 0.1128 0.6980
vn -0.5362 0.1181 0.8358
vn -0.7835 0.1688 0.5980
vn -0.7927 0.1271 0.5962
vn 0.0563 0.3546 0.9333
vn -0.0437 -0.3322 0.9422
vn -0.1256 -0.8775 0.4629
vn -0.7840 0.1693 0.5973
vn -0.7923 0.1264 0.5970
vn 0.7711 -0.1971 0.6055
vn 0.7611 -0.2344 0.6048
vn 0.7716 -0.1968 0.6049
vn 0.7614 -0.2342 0.6045
vn -0.1383 -0.6402 0.7557
vn -0.2536 -0.9624 0.0975
vn -0.2175 -0.9752 -0.0411
vn 0.0608 0.3255 0.9436
vn 0.8126 0.2824 0.5098
vn 0.0882 0.4344 0.8964
vn 0.1460 0.3634 0.9201
vn 0.0759 0.4671 0.8809
vn 0.0639 0.3056 0.9500
vn 0.9500 -0.2969 0.0970
vn 0.2310 0.9726 -0.0250
vn 0.2311 0.9726 -0.0269
vn 0.2305 0.9727 -0.0258
vn 0.2310 0.9726 -0.0251
vn 0.2310 0.9726 -0.0268
vn -0.9727 0.2305 -0.0259
vn -0.9726 0.2310 -0.0250
vn -0.9726 0.2310 -0.0268
vn 0.9918 -0.1275 -0.0041
vn 0.1274 0.5750 0.8082
vn 0.0924 0.4033 0.9104
vn 0.1888 0.1737 0.9665
vn 0.1529 0.1957 0.9687
vn -0.0032 0.1336 0.9910
vn 0.2367 0.1553 0.9591
vn 0.3535 -0.1786 0.9182
vn 0.3368 -0.1836 0.9235
vn 0.3538 0.9353 0.0000
vn 0.7936 0.6084 -0.0063
vn -0.1990 -0.9800 0.0027
vn 0.2379 0.9711 0.0213
vn 0.2138 0.9769 0.0000
vn -0.7814 0.6240 0.0000
vn 0.4640 0.8834 0.0660
vn 0.4878 0.8718 0.0458
vn 0.8165 -0.5773 0.0099
vn 0.8635 -0.5043 -0.0033
vn -0.8124 0.5830 -0.0000
vn -0.8124 0.5830 0.0000
vn 0.2747 0.9615 0.0000
vn -0.8910 0.4441 -0.0945
vn -0.3200 -0.9474 0.0016
vn -0.8104 0.5859 -0.0000
vn 0.8512 -0.5248 0.0000
vn 0.8440 -0.5322 -0.0673
vn -0.3201 -0.9474 -0.0002
vn -0.3227 -0.9465 0.0000
vn 0.2080 0.9717 -0.1120
vn -0.9215 0.3681 0.1234
vn -0.1977 -0.9803 0.0020
vn 0.0451 0.1623 0.9857
vn 0.0754 0.2500 0.9653
vn 0.2344 0.9722 0.0000
vn 0.2345 0.9721 0.0059
vn -0.7421 0.6631 0.0979
vn -0.7864 0.6177 0.0000
vn -0.9200 0.3715 0.1245
vn 0.8869 -0.4606 -0.0344
vn 0.8693 -0.4944 -0.0014
vn 0.9598 0.2805 0.0000
vn 0.9472 -0.3208 0.0000
vn 0.2142 0.9768 0.0009
vn 0.2145 0.9767 0.0000
vn -0.2509 -0.9670 -0.0441
vn 0.9543 -0.2894 0.0739
vn -0.9788 0.2048 0.0007
vn -0.2257 -0.9739 -0.0233
vn -0.9843 0.1766 -0.0030
vn -0.9319 0.3559 0.0700
vn -0.2374 -0.9097 0.3407
vn 0.3277 0.8782 -0.3484
vn -0.9692 0.2464 0.0000
vn -0.9730 0.2307 0.0001
vn -0.1585 -0.9866 -0.0400
vn -0.2073 -0.9782 0.0087
vn 0.9890 -0.1469 0.0177
vn 0.9892 -0.1468 0.0000
vn -0.0010 -0.0016 -1.0000
vn 0.0000 -0.0018 -1.0000
vn 0.9892 -0.1454 0.0179
vn 0.9878 -0.1471 -0.0519
vn 0.9839 -0.1461 -0.1028
vn 0.9890 -0.1481 0.0000
vn 0.0155 -0.9898 0.1418
vn -0.0502 -0.9950 0.0858
vn 0.0000 -0.9916 0.1296
vn -0.1440 -0.9896 0.0000
vn 0.0000 -0.9913 0.1316
vn -0.1399 -0.9902 0.0000
vn -0.2658 -0.9620 0.0624
vn 0.2338 0.9668 0.1032
vn 0.2166 0.9572 -0.1921
vn 0.2301 0.9730 0.0177
vn -0.9376 0.2389 -0.2526
vn 0.2058 0.9785 0.0115
vn 0.2302 0.9729 0.0215
vn 0.2309 0.9728 0.0167
vn 0.2320 0.9726 0.0167
vn -0.9728 0.2318 0.0000
vn 0.9909 -0.1348 -0.0064
vn 0.9908 -0.1348 -0.0065
vn 0.9909 -0.1348 -0.0065
vn 0.1385 0.9904 -0.0000
vn 0.1391 0.9903 -0.0001
vn 0.0070 -0.0010 1.0000
vn -0.1386 -0.9903 0.0000
vn -0.0075 0.0011 -1.0000
vn -0.0076 0.0011 -1.0000
vn 0.1379 0.9904 -0.0001
vn 0.1390 0.9903 -0.0001
vn 0.0136 -0.0019 0.9999
vn -0.1388 -0.9903 0.0001
vn -0.0149 0.0020 -0.9999
vn -0.0152 0.0021 -0.9999
vn 0.1388 0.9903 -0.0001
vn 0.1395 0.9902 -0.0002
vn 0.0162 -0.0022 0.9999
vn -0.1384 -0.9904 0.0001
vn -0.0173 0.0024 -0.9998
vn -0.0178 0.0025 -0.9998
vn 0.1450 0.9894 -0.0000
vn 0.0015 -0.0003 1.0000
vn -0.1453 -0.9894 0.0001
vn -0.1461 -0.9893 0.0000
vn -0.0017 0.0003 -1.0000
vn -0.0013 0.0002 -1.0000
vn 0.1472 0.9891 -0.0001
vn 0.1458 0.9893 0.0000
vn 0.0014 -0.0003 1.0000
vn -0.1477 -0.9890 0.0001
vn -0.1479 -0.9890 0.0000
vn -0.0016 0.0003 -1.0000
vn -0.0011 0.0002 -1.0000
vn 0.1456 0.9893 -0.0001
vn 0.1458 0.9893 -0.0001
vn 0.0122 -0.0017 0.9999
vn -0.1467 -0.9892 0.0002
vn -0.1458 -0.9893 0.0002
vn -0.0121 0.0017 -0.9999
vn -0.0130 0.0019 -0.9999
vn 0.1308 0.9914 0.0006
vn 0.1317 0.9913 -0.0001
vn -0.0045 0.0006 1.0000
vn -0.0051 0.0007 1.0000
vn -0.1316 -0.9913 0.0003
vn -0.1317 -0.9913 0.0003
vn -0.1319 -0.9913 -0.0000
vn -0.1316 -0.9913 -0.0000
vn 0.0030 -0.0004 -1.0000
vn 0.0028 -0.0004 -1.0000
vn 0.1317 0.9913 0.0000
vn 0.1318 0.9913 0.0000
vn -0.0046 0.0019 -1.0000
vn -0.0047 0.0019 -1.0000
vn 0.1307 0.9914 0.0007
vn 0.1302 0.9915 0.0008
vn -0.1304 -0.9915 -0.0008
vn -0.1302 -0.9915 -0.0008
vn 0.9908 -0.1348 -0.0064
vn 0.9908 -0.1349 -0.0064
vn -0.1953 -0.9807 0.0000
vn 0.2434 0.9699 -0.0001
vn 0.2433 0.9699 0.0000
vn 0.9891 -0.1475 0.0000
vn -0.2491 -0.9681 0.0279
vn -0.1994 -0.9799 0.0021
vn 0.3479 0.9375 0.0093
vn 0.9908 -0.1350 -0.0066
vn -0.0010 0.0002 -1.0000
vn 0.0000 0.0000 -1.0000
vn 0.5040 -0.0686 -0.8610
vn 0.1972 -0.0293 -0.9799
vn 0.9909 -0.1346 -0.0065
vn 0.2431 0.9700 -0.0001
vn -0.1950 -0.9808 0.0000
vn -0.1951 -0.9808 0.0000
vn -0.2093 -0.9770 -0.0396
vn 0.3546 0.9350 0.0026
vn -0.2721 -0.9623 -0.0000
vn -0.7801 0.6255 -0.0117
vn -0.7744 0.6327 -0.0000
vn 0.7859 0.6183 -0.0086
vn 0.2139 0.9769 0.0002
vn 0.9435 -0.3311 -0.0088
vn -0.2529 -0.9658 -0.0566
vn -0.2076 -0.9769 -0.0514
vn -0.2062 -0.9785 -0.0074
vn -0.2015 -0.9795 0.0068
vn 0.2303 0.9731 0.0118
vn 0.2405 0.9706 0.0079
vn 0.9909 -0.1348 -0.0063
vn 0.9909 -0.1348 -0.0056
vn 0.9909 -0.1348 -0.0068
vn 0.9893 -0.1347 0.0557
vn 0.9898 -0.1346 -0.0472
vn 0.9909 -0.1348 -0.0066
vn 0.9612 -0.1325 0.2420
vn 0.9518 -0.1300 0.2779
vn -0.1970 -0.9804 0.0052
vn 0.5273 -0.0731 0.8465
vn -0.9692 0.2461 -0.0019
vn -0.9373 0.2396 -0.2531
vn -0.2074 -0.9783 0.0016
vn -0.1977 -0.9803 0.0034
vn -0.2258 -0.9062 0.3575
vn -0.9379 0.3448 0.0373
vn -0.9412 0.3378 0.0000
vn -0.9260 0.3764 0.0293
vn -0.9273 0.3667 0.0746
vn 0.2287 0.9735 0.0000
vn 0.2065 0.9733 -0.1005
vn 0.3526 0.9357 0.0113
vn 0.3516 0.9361 0.0111
vn 0.0019 -0.0003 1.0000
vn 0.0119 -0.0017 0.9999
vn 0.0158 -0.0022 0.9999
vn -0.1397 -0.9902 0.0002
vn 0.0134 -0.0019 0.9999
vn -0.1392 -0.9903 0.0002
vn -0.1394 -0.9902 0.0001
vn 0.1302 0.9915 0.0009
vn 0.1307 0.9914 0.0008
vn 0.0047 -0.0019 1.0000
vn 0.0046 -0.0019 1.0000
vn -0.1302 -0.9915 -0.0010
vn -0.1303 -0.9915 -0.0010
vn 0.9911 -0.1325 -0.0104
vn 0.1260 0.9920 -0.0001
vn 0.0251 -0.0034 0.9997
vn -0.1261 -0.9920 0.0000
vn -0.1259 -0.9920 0.0001
vn -0.0031 -0.0005 -1.0000
vn -0.0040 -0.0004 -1.0000
vn 0.1211 0.9926 -0.0009
vn 0.1230 0.9924 -0.0009
vn -0.1260 -0.9920 -0.0010
vn -0.1258 -0.9921 -0.0010
vn 0.9918 -0.1279 0.0000
vn 0.9918 -0.1275 0.0000
vn 0.1194 0.9928 0.0000
vn -0.1250 -0.9922 -0.0001
vn 0.9911 -0.1325 -0.0103
vn 0.1258 0.9921 0.0001
vn 0.1211 0.9926 0.0001
vn -0.1258 -0.9921 0.0000
vn -0.1728 -0.7780 0.6040
vn -0.1728 -0.7780 0.6041
vn -0.1684 -0.7837 0.5979
vn 0.9908 -0.1349 -0.0065
vn 0.9913 -0.1313 0.0005
vn 0.9909 -0.1347 -0.0065
vn 0.9909 -0.1347 -0.0064
vn 0.9909 -0.1346 -0.0064
vn -0.9404 0.3401 0.0066
vn -0.0527 -0.9986 -0.0021
vn -0.0529 -0.9883 -0.1433
vn -0.0528 -0.9884 -0.1426
vn -0.0511 -0.9493 -0.3103
vn -0.0515 -0.9495 -0.3097
vn -0.0462 -0.8438 -0.5347
vn -0.0465 -0.8439 -0.5344
vn -0.0325 -0.5639 -0.8252
vn -0.0328 -0.5641 -0.8250
vn -0.0168 -0.2525 -0.9674
vn -0.0158 -0.2286 -0.9734
vn -0.0168 -0.2514 -0.9677
vn -0.0168 -0.2513 -0.9678
vn 0.0096 0.2620 -0.9650
vn 0.0095 0.2620 -0.9650
vn 0.0262 0.5755 -0.8174
vn 0.0263 0.5756 -0.8173
vn 0.0390 0.8066 -0.5898
vn 0.0388 0.8065 -0.5900
vn 0.0470 0.9434 -0.3284
vn 0.0471 0.9434 -0.3283
vn 0.0512 0.9987 0.0020
vn 0.0499 0.9988 -0.0020
vn -0.0542 -0.9985 -0.0025
vn 0.0528 0.9986 0.0026
vn 0.0499 0.9988 0.0017
vn -0.0542 -0.9985 -0.0005
vn -0.0538 -0.9986 0.0000
vn 0.0527 0.9986 0.0000
vn 0.0524 0.9986 0.0005
vn -0.9417 0.3364 0.0065
vn 0.9908 -0.1354 -0.0003
vn -0.8104 0.5859 0.0019
vn -0.2734 -0.9619 0.0010
vn -0.3087 -0.9512 0.0000
vn -0.9512 0.3087 0.0000
vn -0.9545 0.2983 -0.0000
vn -0.2006 -0.9796 0.0068
vn -0.2040 -0.9790 0.0040
vn -0.1946 -0.9808 -0.0075
vn -0.1260 -0.9920 0.0001
vn -0.1994 -0.9799 0.0040
vn -0.2658 -0.9629 -0.0472
vn 0.9892 -0.1460 -0.0139
vn 0.9893 -0.1456 -0.0038
vn -0.1683 -0.7837 0.5979
vn 0.2102 0.7681 0.6049
vn -0.9727 0.2319 -0.0011
# 553 vertex normals

vt 0.3429 0.3666 0.0000
vt 0.2118 0.8690 0.0000
vt 0.2110 0.3629 0.0000
vt 0.2866 0.8318 0.9986
vt 0.3093 0.8344 0.9995
vt 0.0727 0.3085 0.9681
vt 0.0005 0.3017 0.9656
vt -0.5844 0.4082 0.9995
vt 1.5843 0.4179 0.0004
vt 1.5888 0.5819 0.9994
vt 3.2196 0.0002 0.1524
vt 3.2200 0.9992 0.7909
vt 0.6861 0.1018 0.4748
vt 0.3104 0.0405 0.0000
vt 0.3279 0.9864 0.0000
vt 0.2060 0.0404 0.0000
vt 0.6001 0.0067 0.0014
vt 0.7562 0.0005 0.0005
vt 0.8988 0.9995 0.0005
vt -1.7107 0.9449 0.0231
vt -1.7259 0.1938 0.9641
vt 0.7645 0.9718 0.4252
vt 0.5988 0.8732 0.1235
vt 0.4142 0.1291 0.1239
vt 0.5997 0.1269 0.8701
vt 0.0006 0.9995 0.5000
vt 0.0005 0.0005 -0.5000
vt 0.9994 0.0005 1.5000
vt 0.9995 0.9995 -0.5000
vt 0.0007 0.9995 0.5000
vt 0.0005 0.0005 0.5000
vt 0.9993 0.0005 0.5000
vt 0.9995 0.9995 0.5000
vt 0.0007 0.9995 1.0000
vt 0.9993 0.0005 1.0000
vt 0.0005 0.9995 0.5000
vt 0.9995 0.0005 0.5000
vt 0.9995 0.9995 0.9990
vt 0.0005 0.9995 0.9990
vt 0.0005 0.0005 0.0010
vt 0.9995 0.0005 0.0010
vt 0.0005 0.0005 1.0000
vt 0.9992 0.0005 0.0010
vt 0.9995 0.9995 1.0000
vt 0.0007 0.9995 0.0005
vt 0.0005 0.9995 0.0005
vt 0.0005 0.1006 0.1318
vt 0.9995 0.1010 0.0000
vt 0.9995 0.9995 0.1313
vt 0.0005 0.0005 0.9995
vt 0.9995 0.0005 0.4111
vt 0.0010 0.6171 0.7532
vt 0.9984 0.6174 0.9993
vt 0.0005 0.9988 0.0000
vt 0.0020 0.0005 0.9993
vt 0.0006 0.6103 0.6191
vt 0.9983 0.6108 0.9336
vt 0.0408 0.7636 0.2461
vt 0.0005 0.6657 0.4824
vt 0.1358 0.8734 0.0527
vt 0.9924 0.6452 0.8477
vt 0.4945 0.9995 0.1875
vt 0.2554 0.9446 0.0020
vt 0.7216 0.9494 0.5195
vt 0.9549 0.7429 0.7461
vt 0.8603 0.8695 0.6875
vt 0.7230 0.9491 0.5215
vt 0.0014 0.0057 0.9980
vt 0.9995 0.0005 0.5547
vt 0.9936 0.5531 0.5001
vt 0.4959 0.9880 0.5000
vt 0.4964 0.8399 0.5000
vt 0.8657 0.4937 0.5000
vt 0.0171 0.5506 0.4999
vt 0.1276 0.5063 0.5000
vt 0.4384 0.5399 0.4345
vt 0.5099 0.5395 0.4345
vt 0.5097 0.4934 0.4345
vt 0.4381 0.4938 0.4345
vt 0.4414 0.5411 0.5000
vt 0.4413 0.4950 0.5000
vt 0.5129 0.4946 0.5000
vt 0.5130 0.5407 0.5000
vt 0.4379 0.5455 0.4232
vt 0.4419 0.5453 0.5098
vt 0.9435 0.5712 0.5000
vt 0.0354 0.4172 0.5000
vt 0.9435 0.4172 0.5000
vt 0.7692 0.9589 0.5000
vt 0.4820 0.9995 0.5000
vt 0.1142 0.6267 0.5000
vt 0.2258 0.9660 0.5000
vt 0.1111 0.8854 0.5000
vt 0.8873 0.6267 0.5000
vt 0.8833 0.8924 0.5000
vt 0.4959 0.3019 0.0000
vt 0.3334 0.3019 0.0000
vt 0.4959 0.0752 0.0000
vt 0.4155 0.0741 0.0000
vt 0.4219 0.0739 0.0000
vt 0.4272 0.3005 0.0000
vt 0.4207 0.3007 0.0000
vt 0.5050 0.0720 0.0000
vt 0.5103 0.2986 0.0000
vt 0.5296 0.0714 0.0000
vt 0.5349 0.2980 0.0000
vt 0.5649 0.0706 0.0000
vt 0.5961 0.0699 0.0000
vt 0.6014 0.2965 0.0000
vt 0.6246 0.0692 0.0000
vt 0.6299 0.2958 0.0000
vt 0.7055 0.0673 0.0000
vt 0.5197 0.0716 0.0000
vt 0.5250 0.2983 0.0000
vt 0.5160 0.2985 0.0000
vt 0.2715 0.3125 0.0000
vt 0.2459 0.3131 0.0000
vt 0.2658 0.0692 0.0000
vt 0.0354 0.0005 0.5000
vt 0.0354 0.3530 0.5000
vt 0.9435 0.3530 0.5000
vt 0.9435 0.0005 0.5000
vt 0.3768 0.0750 0.0000
vt 0.3821 0.3016 0.0000
vt 0.3111 0.3032 0.0000
vt 0.3058 0.0766 0.0000
vt 0.5541 0.0752 0.0000
vt 0.5541 0.3019 0.0000
vt 0.3916 0.3019 0.0000
vt 0.3916 0.0752 0.0000
vt 0.0354 0.5712 0.5000
vt 0.0933 0.5712 0.5000
vt 0.5348 0.0755 0.0000
vt 0.5025 0.3084 0.0000
vt 0.5052 0.0752 0.0000
vt 0.3824 0.0752 0.0000
vt 0.3851 0.3084 0.0000
vt 0.3555 0.3087 0.0000
vt 0.1140 0.6268 0.5000
vt 0.8875 0.6267 0.5000
vt 0.9024 0.5712 0.5000
vt 0.9431 0.6267 0.5000
vt 0.9432 0.5712 0.5000
vt 0.0358 0.5712 0.5000
vt 0.9431 0.5712 0.5000
vt 0.3435 0.0757 0.0000
vt 0.3488 0.3024 0.0000
vt 0.2778 0.3040 0.0000
vt 0.2725 0.0774 0.0000
vt 0.4144 0.3092 0.0000
vt 0.3832 0.0664 0.0000
vt 0.4087 0.0659 0.0000
vt 0.0358 0.6267 0.5000
vt 0.0932 0.5712 0.5000
vt 0.9022 0.5712 0.5000
vt 0.0354 0.6267 0.5000
vt 0.9435 0.6267 0.5000
vt 0.5261 0.0632 0.0000
vt 0.5318 0.3064 0.0000
vt 0.3888 0.3098 0.0000
vt 0.3528 0.0755 0.0000
vt 0.2445 0.3048 0.0000
vt 0.2381 0.3115 0.0000
vt 0.2300 0.0784 0.0000
vt 0.2392 0.0782 0.0000
vt 0.4635 0.4582 0.4638
vt 0.5365 0.5311 0.4636
vt 0.5365 0.4582 0.4638
vt 0.5365 0.5311 0.5363
vt 0.4635 0.5311 0.5363
vt 0.4635 0.4582 0.5365
vt 0.5365 0.4582 0.5365
vt 0.4635 0.5311 0.4636
vt 0.5753 -3.5298 0.9447
vt 0.5753 3.2852 0.9447
vt 0.2377 3.2852 0.8669
vt 0.2377 -3.5298 0.8669
vt 0.0554 -3.5281 0.5754
vt 0.4970 -3.5290 0.6771
vt 0.4611 3.2852 0.6688
vt 0.0553 3.2852 0.5753
vt 0.4393 -3.5298 0.3362
vt 0.8669 -3.5298 0.2377
vt 0.8669 3.2852 0.2377
vt 0.4611 3.2852 0.3312
vt 0.4247 0.9447 3.2852
vt 0.4691 0.8736 3.2852
vt 0.6912 0.8224 3.2852
vt 0.7623 0.8669 3.2852
vt 0.6233 0.5273 3.2852
vt 0.6688 0.4611 3.2852
vt 0.4011 0.5785 3.2852
vt 0.3312 0.5389 3.2852
vt 0.2377 -3.5298 0.1331
vt 0.5753 -3.5298 0.0553
vt 0.5753 3.2852 0.0553
vt 0.2377 3.2852 0.1331
vt 0.2377 0.1331 3.2852
vt 0.5753 0.0553 3.2852
vt 0.5309 0.1264 3.2852
vt 0.3087 0.1776 3.2852
vt 0.5989 0.4215 3.2852
vt 0.3767 0.4727 3.2852
vt 0.1355 3.2852 0.2193
vt 0.1355 0.5279 0.2193
vt 0.7050 3.2852 0.0881
vt 0.0881 3.2852 0.7050
vt 0.7807 0.5279 0.8645
vt 0.7807 3.2852 0.8645
vt 0.7050 3.2852 0.9119
vt 0.1355 0.5279 0.7807
vt 0.7050 0.5279 0.9119
vt 0.7807 0.5279 0.1355
vt 0.0881 3.2852 0.2950
vt 0.0881 0.5279 0.2950
vt 0.2950 0.9119 3.2852
vt 0.7050 0.0881 3.2852
vt 0.8645 0.7807 3.2852
vt 0.1590 0.0051 0.3152
vt 0.8457 0.0058 0.2004
vt 0.1543 0.5096 0.2003
vt 0.4996 0.8299 0.8917
vt 0.8381 0.4968 0.3152
vt 1.0007 0.5491 0.5025
vt 0.4992 0.9884 0.5000
vt 0.9401 0.4845 0.5132
vt 0.4979 0.8403 0.5000
vt 0.0053 0.5497 0.4996
vt 0.4164 0.5474 0.5101
vt 0.4462 0.5409 0.5000
vt 0.3967 0.5305 0.4976
vt 0.1158 0.4740 0.4939
vt 0.5147 0.5379 0.4354
vt 0.5145 0.4935 0.4345
vt 0.4429 0.4938 0.4345
vt 0.4430 0.5406 0.4346
vt 0.4461 0.4951 0.5000
vt 0.5177 0.4946 0.5000
vt 0.4974 0.8426 0.5000
vt 0.8664 0.4959 0.5000
vt 0.4713 0.5464 0.4276
vt 0.1288 0.5099 0.5000
vt 0.8829 0.2210 0.0000
vt 0.9428 0.2194 0.0000
vt 0.9432 0.2857 0.0000
vt 0.8839 0.2870 0.0000
vt 0.8791 0.2907 0.0000
vt 0.9390 0.2931 0.0000
vt 0.9353 0.3509 0.0000
vt 0.8763 0.3573 0.0000
vt 0.9160 0.2966 0.0000
vt 0.9159 0.3759 0.0000
vt 0.9983 0.9987 0.9922
vt 0.0016 0.9995 -0.0039
vt 0.9995 0.0005 -0.0039
vt 0.1555 0.0491 0.0000
vt 0.2236 0.0421 0.0000
vt 0.2270 0.4726 0.0000
vt 0.1525 0.4767 0.0000
vt 1.3390 -0.5040 0.7503
vt 1.4221 1.7479 0.1925
vt 0.9418 1.7498 0.1847
vt 0.7722 -0.5037 0.7504
vt -0.9550 1.7486 0.1706
vt -0.9394 -0.7395 0.8114
vt 0.7540 -0.7450 0.8109
vt 0.7627 -0.6302 0.7821
vt 2.2249 -0.7487 0.8090
vt 1.3347 -0.6210 0.7793
vt 1.3301 -0.7465 0.8104
vt 2.4109 -0.5037 0.6187
vt 0.5808 1.6729 0.2978
vt -1.3573 -0.4943 0.3775
vt -0.2702 0.8192 0.5645
vt -1.4616 0.3040 0.9456
vt -0.2647 0.3029 1.0504
vt 1.3066 0.7019 -0.0787
vt 1.2794 0.1818 0.4189
vt 2.4614 0.7361 0.0585
vt -2.0524 -0.5314 0.5470
vt -1.8870 0.2719 0.5181
vt -1.8869 0.6770 0.5038
vt -2.0250 1.4970 0.4756
vt -1.6930 0.6771 0.5037
vt -1.6941 0.2721 0.5181
vt 2.8750 -0.5163 0.5488
vt 3.0561 1.5182 0.4618
vt 1.3029 -0.5030 0.7998
vt 2.0887 1.3550 0.3997
vt -0.7892 1.4356 0.3088
vt -1.0536 -0.5039 0.7187
vt 1.2219 0.6647 0.4679
vt -0.5547 -0.3453 0.9540
vt 1.2073 -0.7650 1.2569
vt -0.5033 -0.7638 1.1437
vt 0.6377 0.9608 0.3378
vt 0.6172 0.5997 0.5022
vt 0.2203 0.6241 0.4932
vt 1.9201 1.1018 0.3331
vt -0.8612 1.5934 0.0438
vt 1.7100 0.6188 0.5156
vt 0.2406 0.9801 0.3255
vt 0.5321 0.3087 0.0000
vt 0.5107 0.0718 0.0000
vt 0.2402 0.0698 0.0000
vt 0.3334 0.0752 0.0000
vt -1.4671 0.8203 0.4596
vt 0.9995 0.0012 0.7532
vt 0.9979 0.9995 0.4463
vt 1.8083 -0.6655 0.8680
vt 1.7996 0.5575 0.4297
vt -1.2048 -0.5024 0.8687
vt 2.0450 0.5606 0.4271
vt 2.1363 1.6923 0.0012
vt 0.2431 1.6845 0.0591
vt -0.2369 1.6839 0.0696
vt 0.4004 0.8695 0.8699
vt 1.0731 -0.1171 2.1143
vt -0.0033 0.3250 1.9755
vt 0.0340 -0.1755 2.1029
vt 0.9643 1.1755 -1.1205
vt -0.0577 1.1770 -1.0580
vt 0.9550 0.6752 -0.9913
vt 0.5702 0.2972 0.0000
vt 0.7107 0.2939 0.0000
vt 1.1051 0.3871 1.9887
vt -0.0203 0.6765 -0.9306
vt -0.1602 0.8201 -0.5831
vt 0.8907 1.3163 -0.8991
vt -0.2036 1.3329 -0.5252
vt 0.1003 0.1712 1.9957
vt 0.1216 -0.3388 1.9492
vt 1.1137 0.2114 1.7342
vt 0.8633 0.8050 -0.9335
vt 1.0863 -0.2999 1.6999
vt -0.5888 0.5918 0.0005
vt 3.1005 0.9979 0.7716
vt 0.2696 1.8142 0.1938
vt 2.8144 -0.6628 0.7300
vt 2.8232 2.0653 -0.0048
vt -2.2587 -0.0317 0.3322
vt -1.7924 -0.6063 0.6384
vt -2.0420 0.1678 0.5709
vt -2.1478 1.5918 0.3713
vt 0.2129 0.9804 0.0000
vt 0.9995 0.9954 0.0014
vt 0.1270 -0.0405 0.0004
vt 0.8631 0.4011 0.5336
vt 0.1267 0.4221 0.4852
vt 0.4985 0.8733 0.9995
vt 0.8636 -0.0615 0.0463
vt 0.0908 -0.0744 0.0465
vt 0.9089 0.3634 0.4871
vt 0.0907 0.3825 0.5291
vt 0.5041 0.8292 0.9996
vt 0.9093 -0.0936 0.0005
vt 0.1116 -0.0125 0.2812
vt 0.8884 -0.0310 0.0004
vt 0.8884 0.4153 0.4286
vt 0.1117 0.4337 0.7019
vt 0.5043 0.8702 0.9994
vt 0.0005 0.0057 0.9922
vt 0.9995 0.9995 0.0005
vt 0.0012 0.9993 0.0007
vt 0.9937 0.0013 0.9991
vt 0.2997 0.8708 0.0000
vt 1.7845 1.4998 0.1490
vt -0.8407 1.6573 0.6767
vt 1.7760 0.9068 0.1790
vt -0.6172 -1.0741 0.6088
vt 1.7763 0.8747 -0.0697
vt -0.8407 1.6054 0.4281
vt 1.7478 -1.4998 0.4227
vt -0.8698 2.4813 0.6820
vt 0.0133 0.0005 0.1501
vt 0.9995 0.0059 0.0005
vt 0.9872 0.9995 0.9163
vt 0.0005 0.9887 0.9995
vt -7.9922 0.5546 0.0708
vt 0.3315 -14.9144 5.5459
vt 1.3656 2.1205 0.0708
vt 14.3702 -4.8769 -17.7844
vt 14.4875 3.1440 -16.4746
vt 13.2924 -5.0296 -16.8939
vt -0.7176 1.6591 -8.7161
vt 8.4688 0.1110 -8.7399
vt 1.7573 16.4489 -11.0853
vt 0.3790 18.5330 -1.4425
vt -4.9450 23.0636 -2.4107
vt -5.1196 17.6350 -1.3260
vt -8.1719 1.5702 -2.9605
vt -1.2120 2.7349 -2.9605
vt -10.5780 15.9141 -5.4842
vt -13.4875 3.1440 -16.4746
vt -6.6176 2.5105 -21.6612
vt -6.6176 4.4737 -21.3327
vt 0.1713 -12.5830 10.0849
vt -5.5951 -13.5673 10.5218
vt -4.9508 -17.3868 12.3451
vt 2.4219 -16.4078 12.0902
vt 13.3329 2.2841 -15.6200
vt 12.0902 2.4219 -16.4078
vt 12.3451 -4.9508 -17.3868
vt -1.9592 -3.5711 -25.7893
vt 2.8613 7.7358 -27.0914
vt -1.9594 4.5342 -24.4330
vt -1.9594 5.1810 -24.3247
vt 4.5342 -24.4330 2.9594
vt 5.1810 -24.3247 2.9594
vt 3.9663 -22.9312 2.5829
vt -4.9404 1.0774 -16.0478
vt -0.5856 1.9666 -17.9238
vt -5.0124 4.5532 -15.7993
vt -3.4737 -21.3327 7.6176
vt -1.1762 -20.5703 7.2862
vt -0.0774 -16.0478 5.9404
vt -6.6174 -4.0636 -22.7614
vt 7.2862 2.1762 -20.5703
vt 2.5829 3.9663 -22.9312
vt 2.5829 3.4046 -23.0252
vt 7.2972 1.6275 -20.7001
vt -0.6275 -20.7001 7.2972
vt -1.5105 -21.6612 7.6176
vt 3.8764 -17.4776 1.7653
vt 5.2878 6.6599 -18.9290
vt 5.2863 8.7169 -18.2995
vt 4.5188 6.4827 -18.7044
vt -5.6599 -18.9290 -4.2878
vt 5.4552 -20.6516 -4.3319
vt -5.5179 -18.2112 -4.4024
vt 5.2878 -18.9290 6.6599
vt 4.5188 -18.7044 6.4827
vt 2.8665 -27.0379 7.9284
vt 3.2742 -27.3295 8.1070
vt 7.9284 -27.0379 -1.8665
vt 6.4827 -18.7044 -3.5188
vt 6.2857 -18.7374 -3.5188
vt 7.7358 -27.0914 -1.8613
vt 3.2742 8.1070 -27.3295
vt 2.8665 7.9284 -27.0379
vt 3.2741 -3.0175 -29.1911
vt 5.5618 -5.2289 -15.8456
vt 10.5218 -5.5951 -13.5673
vt 10.0849 0.1713 -12.5830
vt 5.5459 0.3315 -14.9144
vt 0.0708 1.3656 2.1205
vt -2.9605 -8.1719 1.5702
vt 0.0708 -7.9922 0.5546
vt -2.9605 1.4627 3.1825
vt -7.9743 5.4656 2.3746
vt -2.9605 -1.2120 2.7349
vt 2.8431 2.5413 -2.8105
vt 3.1349 2.5963 -2.8119
vt 2.9966 3.4392 -2.9605
vt 1.4627 3.1825 -2.9605
vt -4.4656 2.3746 -7.9743
vt -4.5624 2.3826 -7.9770
vt -4.6352 1.9084 -7.8743
vt -2.9605 2.9966 3.4392
vt -7.9770 5.5624 2.3826
vt 9.7161 1.7176 1.6591
vt 8.5219 -7.5018 0.3081
vt 9.7399 -7.4688 0.1110
vt -1.5282 1.9239 -7.7509
vt 7.2474 -9.9069 -5.5973
vt 8.5018 0.3081 -7.5219
vt 8.7509 2.5282 1.9239
vt 5.1634 9.0717 -18.1709
vt -7.6084 -17.6076 -4.4341
vt -8.0717 -18.1709 -4.1634
vt -7.7169 -18.2995 -4.2863
vt 4.5532 -15.7993 6.0124
vt 5.0034 -15.0775 6.0258
vt 4.4353 -15.1308 5.7900
vt 11.3187 0.0473 16.7435
vt 12.0767 0.2071 16.6102
vt 11.3187 0.1826 16.7662
vt 2.2095 -10.6181 16.7370
vt 6.4858 -3.6454 17.0743
vt 2.3260 -5.1196 17.6350
vt -3.4721 -8.0936 -6.0378
vt 0.7929 16.6102 -11.0767
vt 2.2947 22.2861 -12.0583
vt 1.8126 22.3668 -12.0540
vt -13.0218 -1.7745 28.3516
vt -3.5378 -1.9376 29.3267
vt -3.5388 -1.8574 29.3386
vt -13.0218 -1.6778 28.3678
vt -13.0218 28.3678 -1.6778
vt -3.5388 29.3386 -1.8574
vt -3.5717 29.5063 -1.8856
vt -13.0144 28.5359 -1.7060
vt -3.5717 -1.8856 29.5063
vt -3.5725 -1.8211 29.5159
vt -6.2430 -1.7673 29.2467
vt -13.0144 -1.7060 28.5359
vt -7.9620 -1.7324 29.0716
vt -13.0144 -1.6281 28.5489
vt 2.8322 28.1233 -13.0312
vt 2.7885 28.1693 -13.0296
vt -4.3370 23.8090 -12.4492
vt 2.7576 28.2504 -13.0263
vt 2.7745 28.3516 -13.0218
vt 2.6778 28.3678 -13.0218
vt 2.7060 28.5359 -13.0144
vt 2.6281 28.5489 -13.0144
vt -1.8873 20.3352 -11.6105
vt -0.1881 16.5396 -10.9622
vt -1.9443 29.1474 -3.5032
vt -1.9794 29.1041 -3.4953
vt -1.9207 29.2265 -3.5183
vt -1.8574 29.3386 -3.5388
vt 11.2887 1.1676 16.6786
vt 2.8612 20.4488 -10.8833
vt 0.1826 16.7662 -10.3187
vt 1.1676 16.6786 -10.2887
vt -1.8211 29.5159 -3.5725
vt -1.9376 29.3267 -3.5378
vt -1.8856 29.5063 -3.5717
vt 2.4425 0.3790 18.5330
vt -11.5471 -5.1984 27.7164
vt -12.2073 -7.4917 27.2870
vt -11.5456 -7.4722 27.3191
vt -9.6366 -5.2301 27.9060
vt -10.0260 -7.4964 27.4635
vt -9.6337 -7.5012 27.4923
vt -8.1170 -5.2542 28.0498
vt -8.1142 -7.5253 27.6360
vt -6.1059 -5.2863 28.2417
vt -11.5244 -4.0755 27.9028
vt -13.0312 -1.8322 28.1233
vt -10.1802 -2.0041 28.3935
vt -9.5876 -4.1087 28.1011
vt -9.5878 -2.0143 28.4550
vt -8.2432 -4.1318 28.2395
vt -6.0203 -4.2174 28.4464
vt -8.2435 -2.0375 28.5934
vt -4.6750 -4.2388 28.5743
vt -12.9697 -10.1401 26.7912
vt -11.5049 -8.5731 27.1434
vt -10.1800 -4.0985 28.0405
vt -10.0275 -5.2226 27.8608
vt -5.1984 27.7164 -11.5471
vt -7.4722 27.3191 -11.5456
vt -7.4456 27.1665 -11.5307
vt -5.1717 27.5639 -11.5321
vt 11.0260 27.4635 -7.4964
vt 11.0112 27.3109 -7.4697
vt 12.5456 27.3191 -7.4722
vt 6.2226 27.8608 -10.0275
vt 8.4697 27.3109 -10.0112
vt 8.4964 27.4635 -10.0260
vt -10.0275 27.8608 -5.2226
vt -11.5471 27.7164 -5.1984
vt -11.5321 27.5639 -5.1717
vt -10.0126 27.7083 -5.1958
vt -5.2301 27.9060 -9.6366
vt -7.5012 27.4923 -9.6337
vt -7.4735 27.3400 -9.6189
vt -5.2023 27.7538 -9.6218
vt 9.1142 27.6360 -7.5253
vt 9.0993 27.4837 -7.4975
vt 10.6337 27.4923 -7.5012
vt 6.2542 28.0498 -8.1170
vt 8.4975 27.4837 -8.0993
vt 8.5253 27.6360 -8.1142
vt -8.1170 28.0498 -5.2542
vt -9.6366 27.9060 -5.2301
vt -9.6218 27.7538 -5.2023
vt -8.1022 27.8975 -5.2264
vt -5.2863 28.2417 -6.1059
vt -7.5568 27.8244 -6.1027
vt -7.5288 27.6721 -6.0879
vt -5.2583 28.0894 -6.0911
vt 5.5831 27.9680 -7.5808
vt 5.5684 27.8158 -7.5528
vt 7.1027 27.8244 -7.5568
vt 6.3103 28.3853 -4.5863
vt 8.5528 27.8158 -4.5684
vt 8.5808 27.9680 -4.5831
vt -4.5863 28.3853 -5.3103
vt -6.1059 28.2417 -5.2863
vt -6.0911 28.0894 -5.2583
vt -4.5715 28.2330 -5.2823
vt -1.9810 28.2558 -11.5247
vt -4.0755 27.9028 -11.5244
vt -4.0497 27.7502 -11.5083
vt -1.9554 28.1033 -11.5085
vt 11.1800 28.0405 -4.0985
vt 11.1640 27.8880 -4.0728
vt 12.5244 27.9028 -4.0755
vt 5.0985 28.0405 -10.1800
vt 3.0041 28.3935 -10.1802
vt 2.9784 28.2410 -10.1642
vt 5.0728 27.8880 -10.1640
vt -10.1802 28.3935 -2.0041
vt -11.5247 28.2558 -1.9810
vt -11.5085 28.1033 -1.9554
vt -10.1642 28.2410 -1.9784
vt -2.0143 28.4550 -9.5878
vt -4.1087 28.1011 -9.5876
vt -4.0828 27.9486 -9.5714
vt -1.9886 28.3024 -9.5718
vt 9.2432 28.2395 -4.1318
vt 9.2271 28.0870 -4.1060
vt 10.5876 28.1011 -4.1087
vt 5.1318 28.2395 -8.2432
vt 3.0375 28.5934 -8.2435
vt 3.0118 28.4408 -8.2274
vt 5.1060 28.0870 -8.2271
vt -8.2435 28.5934 -2.0375
vt -9.5878 28.4550 -2.0143
vt -9.5718 28.3024 -1.9886
vt -8.2274 28.4408 -2.0118
vt -2.1255 28.8139 -6.0218
vt -4.2174 28.4464 -6.0203
vt -4.1902 28.2941 -6.0048
vt -2.0983 28.6615 -6.0062
vt 5.6750 28.5743 -4.2388
vt 5.6595 28.4218 -4.2116
vt 7.0203 28.4464 -4.2174
vt 5.2388 28.5743 -4.6750
vt 3.1487 28.9524 -4.6774
vt 3.1215 28.8000 -4.6619
vt 5.2116 28.4218 -4.6595
vt -4.6774 28.9524 -2.1487
vt -6.0218 28.8139 -2.1255
vt -6.0062 28.6615 -2.0983
vt -4.6619 28.8000 -2.1215
vt -10.1545 26.8820 -11.5051
vt -10.3313 26.8576 -11.5055
vt -10.3063 26.7047 -11.4919
vt -10.1295 26.7290 -11.4914
vt 12.5055 26.8576 -10.3313
vt 11.1592 26.9722 -10.3504
vt 11.1454 26.8192 -10.3255
vt 12.4919 26.7047 -10.3063
vt 11.1734 26.9991 -10.1589
vt 11.1483 26.8463 -10.1451
vt 11.3255 26.8192 -10.1454
vt 11.3504 26.9722 -10.1592
vt 9.5930 27.2620 -10.1587
vt 9.5679 27.1091 -10.1450
vt -10.1587 27.2620 -8.5930
vt -11.5049 27.1434 -8.5731
vt -11.4911 26.9905 -8.5480
vt -10.1450 27.1091 -8.5679
vt -8.5731 27.1434 -11.5049
vt -8.5480 26.9905 -11.4911
vt -9.0291 -9.1949 27.2634
vt -10.1589 -10.1734 26.9991
vt -9.0284 -10.1891 27.0976
vt -10.1587 -8.5930 27.2620
vt -7.5712 -10.2095 27.2245
vt -6.8046 -9.8717 27.3501
vt -7.5699 -9.2043 27.3945
vt -7.5722 27.3925 -9.2146
vt -9.0291 27.2634 -9.1949
vt -9.0128 27.0793 -9.1632
vt -7.5559 27.2085 -9.1829
vt -9.1949 27.2634 -9.0291
vt -10.1891 27.0976 -9.0284
vt -10.1574 26.9136 -9.0121
vt -9.1632 27.0793 -9.0128
vt 11.2095 27.2245 -7.5712
vt 10.2146 27.3925 -7.5722
vt 10.1829 27.2085 -7.5559
vt 11.1778 27.0404 -7.5550
vt -3.6574 -10.2643 27.5652
vt -3.3790 -10.2690 27.5942
vt -3.6577 -10.1977 27.5764
vt -6.1027 -7.5568 27.8244
vt -6.0522 -8.9644 27.5734
vt -5.2688 -8.7771 27.6801
vt -6.7120 -9.6047 27.4036
vt -6.4921 -9.3005 27.4754
vt -4.5831 -7.5808 27.9680
vt -4.5714 -8.9519 27.7158
vt -3.5252 -2.1996 29.0596
vt -4.5863 -5.3103 28.3853
vt -3.8542 -5.7568 28.3740
vt -4.1750 -9.2244 27.7056
vt -3.7629 -9.8494 27.6279
vt 2.6499 28.9750 -6.1987
vt 2.7673 29.2467 -6.2430
vt 2.4153 29.0168 -6.1991
vt -1.4110 28.8604 -7.9084
vt -1.6274 28.8237 -7.9084
vt -1.5121 28.5516 -7.8494
vt -1.0570 28.6277 -7.8494
vt -6.1582 -1.0873 28.8025
vt -7.8494 -1.0570 28.6277
vt -7.8494 -1.5121 28.5516
vt -6.1582 -1.5423 28.7263
vt 1.0774 -16.0478 5.9404
vt -3.4953 -1.9794 29.1041
vt -3.7029 -5.9392 28.3542
vt -3.4372 -6.1242 28.3491
vt -3.8769 -9.6029 27.6632
vt -13.0263 28.2504 -1.7576
vt -3.5183 29.2265 -1.9207
vt -3.5378 29.3267 -1.9376
vt -13.0218 28.3516 -1.7745
vt -13.0296 28.1693 -1.7885
vt -3.5032 29.1474 -1.9443
vt -6.0218 -2.1255 28.8139
vt -4.6774 -2.1487 28.9524
vt -1.7324 29.0716 -7.9620
vt 2.0873 28.8025 -6.1582
vt 2.5423 28.7263 -6.1582
vt -6.8236 -10.2200 27.2895
vt -5.2289 -15.8456 5.5618
vt -7.1070 -27.3295 -2.2742
vt 4.0175 -29.1911 -2.2741
vt -13.3702 -4.8769 -17.7844
vt -3.6454 17.0743 -5.4858
vt -7.7509 2.5282 1.9239
vt -4.5420 1.8893 -7.8681
vt 3.8788 22.0321 -12.0465
vt 11.4158 14.8356 -11.1534
vt -6.1242 28.3491 -3.4372
vt -10.2690 27.5942 -3.3790
vt -12.7016 27.1760 -3.3564
vt -10.6181 16.7370 -1.2095
vt -11.5230 -1.8552 28.2765
vt -11.5247 -1.9810 28.2558
vt -10.1782 -1.8773 28.4247
vt -6.8498 28.7586 -1.9275
vt 8.5444 28.6871 -1.9169
vt -8.2390 -1.9062 28.6157
vt -3.4953 29.1041 -1.9794
vt -13.0312 28.1233 -1.8322
vt -9.5887 -1.8861 28.4827
vt 12.4639 20.6049 -12.0665
vt 11.2780 20.8134 -12.0616
vt -8.2390 28.6157 -1.9062
vt -10.1782 28.4247 -1.8773
vt -9.5887 28.4827 -1.8861
vt 6.4842 -10.5780 15.9141
vt 12.0853 -0.7573 16.4489
vt 11.9622 1.1881 16.5396
vt -7.9743 -17.5454 -4.2893
vt -5.2074 5.1005 -15.6221
vt -0.7653 3.8764 -17.4776
vt 4.5188 6.2857 -18.7374
vt 1.9666 -17.9238 1.5856
vt 3.4046 -23.0252 2.5829
vt 5.1005 -15.6221 6.2074
vt -11.5051 -10.1545 26.8820
vt -13.0077 -5.0004 27.6153
vt -12.9901 -7.3817 27.2335
vt 12.5083 27.7502 -4.0497
vt 10.5714 27.9486 -4.0828
vt 7.0048 28.2941 -4.1902
vt 7.0879 27.6721 -7.5288
vt 6.2823 28.2330 -4.5715
vt 10.6189 27.3400 -7.4735
vt 6.2264 27.8975 -8.1022
vt 12.5307 27.1665 -7.4456
vt 6.1958 27.7083 -10.0126
vt -0.3649 1.7291 0.5861
vt -1.4997 1.7284 0.5852
vt -1.4998 1.5497 0.5738
vt -0.3634 0.1064 0.4489
vt -2.8511 1.5495 0.5754
vt -4.3182 1.7242 0.6203
vt -2.8519 1.3190 0.5573
vt 5.3070 1.7316 0.5950
vt 5.0212 -0.3056 0.3975
vt 5.3285 -0.7281 0.3885
vt 1.7291 0.5861 -0.3649
vt 0.1064 0.4489 -0.3634
vt 0.1220 0.2620 -0.3635
vt 1.7447 0.3993 -0.3648
vt 1.3634 0.4489 0.1064
vt -0.0995 0.4447 0.1087
vt -0.0995 0.2579 0.1243
vt 1.3635 0.2620 0.1220
vt 0.8913 0.4447 1.0995
vt -0.7298 0.5872 1.0980
vt -0.7454 0.4004 1.0979
vt 0.8757 0.2579 1.0995
vt 1.0995 0.1087 0.4447
vt 1.8501 -0.2868 0.4097
vt 1.0980 1.7298 0.5872
vt 1.4976 -0.0295 0.6906
vt -0.8012 -0.7474 0.6219
vt 1.4976 -0.7478 0.6266
vt 0.0077 0.3339 1.4960
vt -0.0295 0.6906 1.4976
vt -0.7107 0.2699 1.4959
vt -0.4960 0.3339 0.0077
vt 1.8027 0.3292 0.0081
vt 1.8011 0.6859 -0.0291
vt -0.4976 0.6906 -0.0295
vt 1.2876 0.2984 -0.8028
vt 1.7103 0.2652 -0.8028
vt 1.7474 0.6219 -0.8012
vt 0.9919 0.3292 -0.8027
vt -1.4994 1.3180 0.5541
vt -1.4994 0.5541 1.3180
vt -2.8519 0.5573 1.3190
vt -2.8520 0.5121 1.3227
vt -1.4995 0.5090 1.3218
vt 1.3190 0.5573 -2.8519
vt -0.2592 0.4266 -2.8534
vt -0.2554 0.3814 -2.8535
vt 1.3227 0.5121 -2.8520
vt 1.2671 0.4217 -1.4979
vt -0.3180 0.5541 -1.4994
vt -0.3218 0.5090 -1.4995
vt 1.2633 0.3766 -1.4980
vt -1.4979 -0.2671 0.4217
vt 1.8486 1.7301 0.5877
vt 5.0212 -0.7284 0.3642
vt 4.8306 -0.6805 -0.2009
vt 4.8306 -0.2577 -0.1677
vt 1.9921 -0.2403 -0.1655
vt 1.9921 -0.6631 -0.1987
vt -1.4980 -0.2633 0.3766
vt -2.8535 -0.6781 0.3481
vt -1.4980 -0.6861 0.3433
vt -0.6819 0.3933 -2.8534
vt -0.6781 0.3481 -2.8535
vt 1.6861 0.3433 -1.4980
vt 1.6898 0.3884 -1.4979
vt -1.4979 -0.6898 0.3884
vt 1.8501 -0.7096 0.3764
vt -2.8534 -0.6819 0.3933
vt -2.8534 -0.2592 0.4266
vt -4.3298 -0.6751 0.4125
vt -2.8512 1.7278 0.5843
vt -0.8011 -0.0291 0.6859
vt -0.7478 0.6266 1.4976
vt -2.8535 -0.2554 0.3814
vt 5.0271 1.7318 0.5901
vt -0.1008 0.2443 0.6985
vt 1.0928 0.2247 0.9165
vt -0.0930 0.7753 0.0836
vt 1.1008 0.7557 0.3015
vt 1.0566 0.7913 0.2287
vt -0.0953 0.7891 0.4651
vt 1.0936 0.2107 0.5359
vt 0.0087 0.6067 0.9161
vt 0.0687 0.1105 0.4511
vt 0.0684 0.3586 0.6829
vt 0.0680 0.6068 0.9148
vt 0.0092 0.1106 0.4534
vt 0.0679 0.6524 0.9558
vt 0.0148 0.6935 0.9942
vt 0.1041 0.7330 1.0276
vt 0.0441 0.7603 1.0538
vt 0.1894 0.8234 1.1077
vt 0.1139 0.8370 1.1219
vt 0.2968 0.8821 1.1592
vt 0.2534 0.9224 1.1972
vt 0.5115 0.9273 1.1983
vt 0.5019 0.9722 1.2407
vt 0.7156 0.8863 1.1582
vt 0.7168 0.8861 1.1580
vt 0.7230 0.9315 1.2013
vt 0.8401 0.8209 1.0950
vt 0.8487 0.8652 1.1388
vt 0.9250 0.7170 0.9952
vt 0.9430 0.7723 1.0479
vt 0.9790 0.7115 0.9885
vt 0.9587 0.6369 0.9199
vt 1.0123 0.6252 0.9080
vt 0.9640 0.6085 0.8942
vt 1.0124 0.6086 0.8931
vt 0.9650 0.1082 0.4160
vt 0.0687 0.0063 0.3579
vt 0.0092 0.0065 0.3602
vt 1.0105 0.1080 0.4139
vt 0.9650 0.0041 0.3228
vt 1.0105 0.0039 0.3207
vt 0.0683 0.3960 0.7169
vt 0.0764 0.6396 0.8880
vt 0.6553 0.6402 0.8891
vt 0.1073 -0.0379 0.8283
vt 0.0776 0.6785 0.8871
vt 0.6557 0.6791 0.8881
vt 0.0842 0.7909 0.8688
vt 0.6616 0.7915 0.8699
vt 0.1030 0.9416 0.8109
vt 0.6807 0.9422 0.8120
vt 0.1357 1.0446 0.7166
vt 0.7121 1.0452 0.7176
vt 0.1360 1.0451 0.7156
vt 0.7124 1.0457 0.7166
vt 0.1945 1.1249 0.5514
vt 0.7674 1.1256 0.5523
vt 0.2582 1.0896 0.3678
vt 0.8289 1.0902 0.3687
vt 0.2898 1.0233 0.2716
vt 0.8609 1.0239 0.2725
vt 0.3147 0.9116 0.1898
vt 0.8881 0.9122 0.1908
vt 0.3254 0.8072 0.1500
vt 0.9012 0.8078 0.1510
vt 0.3256 0.7457 0.1445
vt 0.9029 0.7463 0.1455
vt 0.6770 -0.0373 0.8292
vt 0.3453 0.0746 0.0849
vt 0.9236 0.0752 0.0860
vt 0.1073 -0.1783 0.8156
vt 0.6770 -0.1777 0.8165
vt 0.9236 -0.0652 0.0733
vt 0.3453 -0.0658 0.0722
vt -7.5444 -1.9169 28.6871
vt -6.8498 -1.9275 28.7586
vt 0.7807 3.2852 0.1355
vt 0.1355 0.2193 3.2852
vt 0.0881 0.5279 0.7050
vt 0.1355 3.2852 0.7807
vt 0.7050 0.5279 0.0881
vt 0.8669 -3.5298 0.7623
vt 0.8669 3.2852 0.7623
vt 0.0552 3.2852 0.4247
vt 0.0553 -3.5298 0.4247
vt 9.8988 21.0345 -12.0718
vt 1.0291 0.6859 -0.8011
vt 6.0004 27.6153 -13.0077
vt 13.5120 26.3742 -12.9796
vt 11.1401 26.7912 -12.9697
vt 8.3817 27.2335 -12.9901
vt -0.0565 0.2086 0.7720
vt 2.4297 0.2161 0.5555
# 928 texture coords

g Vene_27
usemtl roof03
s off
f 1/1/1 2/2/1 3/3/1 
f 4/4/2 5/5/2 1/6/2 
f 1/6/3 6/7/3 4/4/3 
usemtl roof02
f 7/8/4 8/9/4 9/10/4 
usemtl roof03
f 10/11/5 11/12/5 12/13/5 
f 13/14/6 14/15/6 15/16/6 
f 16/17/7 15/18/7 17/19/7 
f 17/20/8 18/21/8 12/13/8 
f 12/13/9 19/22/9 17/20/9 
usemtl tin
f 20/23/10 21/24/10 22/25/10 
usemtl 03
f 23/26/11 24/27/11 25/28/11 
f 25/28/11 26/29/11 23/26/11 
f 27/30/12 28/31/12 29/32/12 
f 29/32/12 30/33/12 27/30/12 
f 31/34/13 32/31/13 33/35/13 
f 33/35/13 34/33/13 31/34/13 
f 35/36/14 36/31/14 37/37/14 
f 37/37/14 38/33/14 35/36/14 
f 39/38/15 40/39/15 41/40/15 
f 41/40/15 42/41/15 39/38/15 
f 43/42/16 44/43/16 45/44/16 
f 45/44/17 46/45/17 43/42/17 
f 47/46/18 48/47/18 49/48/18 
f 49/48/19 50/49/19 47/46/19 
f 49/48/20 48/47/20 51/50/20 
f 51/50/21 52/51/21 49/48/21 
usemtl 04
f 53/52/22 54/53/22 55/54/22 
f 53/52/23 56/55/23 54/53/23 
usemtl 05
f 57/56/24 58/57/24 59/58/24 
f 59/58/25 60/59/25 57/56/25 
f 61/60/26 59/58/26 58/57/26 
f 58/57/27 62/61/27 61/60/27 
f 61/60/28 62/61/28 63/62/28 
f 63/62/29 64/63/29 61/60/29 
f 65/64/30 63/62/30 62/61/30 
f 62/61/31 66/65/31 65/64/31 
f 65/64/31 66/65/31 67/66/31 
f 67/66/32 68/67/32 65/64/32 
f 58/57/33 69/68/33 70/69/33 
usemtl 07
f 71/70/34 72/71/34 73/72/34 
f 73/72/35 74/73/35 71/70/35 
f 73/72/36 72/71/36 75/74/36 
f 75/74/37 76/75/37 73/72/37 
f 77/76/38 78/77/38 79/78/38 
f 79/78/39 80/79/39 77/76/39 
f 81/80/40 82/81/40 83/82/40 
f 83/82/41 84/83/41 81/80/41 
f 85/72/42 78/73/42 74/73/42 
f 74/73/43 73/72/43 85/72/43 
f 86/84/44 71/70/44 78/77/44 
f 78/77/45 77/76/45 86/84/45 
f 78/77/46 71/70/46 74/73/46 
f 87/85/47 81/80/47 84/83/47 
f 84/83/48 75/74/48 87/85/48 
f 84/83/49 76/75/49 75/74/49 
f 84/75/50 85/72/50 73/72/50 
f 73/72/51 76/75/51 84/75/51 
f 88/70/52 89/71/52 90/72/52 
f 90/72/53 91/73/53 88/70/53 
f 90/72/54 89/71/54 92/74/54 
f 92/74/37 93/75/37 90/72/37 
f 94/76/55 95/77/55 96/78/55 
f 96/78/56 97/79/56 94/76/56 
f 98/80/57 99/81/57 100/82/57 
f 100/82/58 101/83/58 98/80/58 
f 102/72/59 95/73/59 91/73/59 
f 91/73/43 90/72/43 102/72/43 
f 103/84/60 88/70/60 95/77/60 
f 95/77/61 94/76/61 103/84/61 
f 95/77/62 88/70/62 91/73/62 
f 104/85/63 98/80/63 101/83/63 
f 101/83/64 92/74/64 104/85/64 
f 101/83/65 93/75/65 92/74/65 
f 101/75/66 102/72/66 90/72/66 
f 90/72/67 93/75/67 101/75/67 
usemtl Material__1
f 105/86/68 106/87/68 107/88/68 
f 108/89/69 109/90/69 110/91/69 
f 111/92/70 112/93/70 110/91/70 
f 113/94/71 114/95/71 110/91/71 
f 115/96/72 116/97/72 117/98/72 
f 118/99/73 119/100/73 113/101/73 
f 113/101/73 120/102/73 118/99/73 
f 119/100/74 121/103/74 114/104/74 
f 114/104/74 113/101/74 119/100/74 
f 121/103/75 122/105/75 108/106/75 
f 108/106/76 114/104/76 121/103/76 
f 123/107/77 108/106/77 122/105/77 
f 124/108/78 111/109/78 123/107/78 
f 125/110/79 112/111/79 124/108/79 
f 126/112/80 112/111/80 125/110/80 
f 127/113/73 128/114/73 110/115/73 
f 129/116/81 130/117/81 131/118/81 
f 132/119/82 133/120/82 117/121/82 
f 117/121/82 134/122/82 132/119/82 
f 125/93/83 124/92/83 121/95/83 
f 123/90/84 122/89/84 121/95/84 
f 125/93/85 121/95/85 126/91/85 
f 135/119/86 116/122/86 115/121/86 
f 115/121/86 136/120/86 135/119/86 
f 137/123/87 105/124/87 107/125/87 
f 107/125/88 138/126/88 137/123/88 
f 132/127/89 135/128/89 136/129/89 
f 136/129/89 133/130/89 132/127/89 
f 139/87/90 140/131/90 141/132/90 
f 142/120/91 143/121/91 144/87/91 
f 145/133/92 143/134/92 146/135/92 
f 147/136/93 142/137/93 144/138/93 
f 139/87/85 138/88/85 133/120/85 
f 133/120/94 138/88/94 117/121/94 
f 148/139/95 149/140/95 150/141/95 
f 151/142/96 152/143/96 150/141/96 
f 153/142/97 129/144/97 154/145/97 
f 139/146/98 106/147/98 155/148/98 
f 155/148/99 140/149/99 139/146/99 
f 153/150/100 152/151/100 151/152/100 
f 156/153/101 148/139/101 157/154/101 
f 138/88/82 139/87/82 141/132/82 
f 137/86/102 138/88/102 158/155/102 
f 127/156/103 126/91/103 148/139/103 
f 119/94/103 149/140/103 148/139/103 
f 118/157/104 151/142/104 149/140/104 
f 118/99/105 120/102/105 153/150/105 
f 153/150/106 151/152/106 118/99/106 
f 130/153/103 113/94/103 110/91/103 
f 113/94/103 130/153/103 153/142/103 
f 153/142/103 120/157/103 113/94/103 
f 127/113/107 156/158/107 130/159/107 
f 105/124/108 137/123/108 152/151/108 
f 152/151/109 154/160/109 105/124/109 
f 137/86/110 158/155/110 150/141/110 
f 141/132/110 157/154/110 150/141/110 
f 140/131/111 131/144/111 157/154/111 
f 155/148/112 129/116/112 131/118/112 
f 155/131/110 105/86/110 154/145/110 
f 154/145/110 129/144/110 155/131/110 
f 107/88/113 106/87/113 144/87/113 
f 144/87/113 159/88/113 107/88/113 
f 106/147/73 139/146/73 160/161/73 
f 133/120/114 147/120/114 160/87/114 
f 136/129/115 142/137/115 147/136/115 
f 136/120/116 115/121/116 143/121/116 
f 143/121/116 142/120/116 136/120/116 
f 115/96/117 117/98/117 146/135/117 
f 146/135/118 143/134/118 115/96/118 
f 138/88/119 145/88/119 146/121/119 
f 107/162/120 159/163/120 145/164/120 
f 145/164/73 138/165/73 107/162/73 
f 161/166/121 134/167/121 162/168/121 
f 116/169/122 135/170/122 163/171/122 
f 163/171/122 164/172/122 116/169/122 
f 134/167/123 116/169/123 164/172/123 
f 164/172/123 162/168/123 134/167/123 
f 135/170/89 132/173/89 161/166/89 
f 161/166/89 163/171/89 135/170/89 
usemtl Material__7
f 165/174/124 166/175/124 167/176/124 
f 167/176/124 168/177/124 165/174/124 
f 169/178/125 170/179/125 171/180/125 
f 171/180/125 172/181/125 169/178/125 
f 173/182/126 174/183/126 175/184/126 
f 175/184/127 176/185/127 173/182/127 
f 166/186/128 177/187/128 178/188/128 
f 178/188/128 167/189/128 166/186/128 
f 178/188/128 179/190/128 171/191/128 
f 171/191/128 167/189/128 178/188/128 
f 171/191/128 179/190/128 180/192/128 
f 180/192/128 176/193/128 171/191/128 
f 176/193/128 180/192/128 177/187/128 
f 177/187/128 166/186/128 176/193/128 
f 174/194/129 169/195/129 172/196/129 
f 172/196/129 175/197/129 174/194/129 
f 175/198/128 172/199/128 181/200/128 
f 181/200/128 182/201/128 175/198/128 
f 171/191/128 183/202/128 181/200/128 
f 181/200/128 172/199/128 171/191/128 
f 171/191/128 176/193/128 184/203/128 
f 184/203/128 183/202/128 171/191/128 
f 176/193/128 175/198/128 182/201/128 
f 182/201/128 184/203/128 176/193/128 
usemtl fg
f 179/190/128 178/188/128 177/187/128 
f 177/187/128 180/192/128 179/190/128 
f 184/203/128 182/201/128 181/200/128 
f 181/200/128 183/202/128 184/203/128 
usemtl Material__7
f 185/204/130 186/205/130 187/206/130 
f 187/207/131 188/208/131 189/209/131 
f 190/210/132 188/211/132 191/212/132 
f 186/213/133 190/214/133 191/215/133 
f 190/216/128 187/217/128 189/218/128 
usemtl 07
f 192/219/134 193/220/134 194/221/134 
f 194/221/135 195/222/135 196/223/135 
f 197/224/136 198/225/136 199/226/136 
f 200/227/137 198/225/137 201/228/137 
f 202/229/138 203/230/138 194/231/138 
f 201/228/139 202/229/139 194/231/139 
f 201/228/140 194/231/140 204/232/140 
f 200/227/141 201/228/141 204/232/141 
f 196/233/142 193/234/142 205/235/142 
f 205/235/143 206/236/143 196/233/143 
f 207/237/144 192/238/144 194/231/144 
f 194/231/145 203/230/145 207/237/145 
f 195/239/146 196/240/146 199/226/146 
f 199/226/147 200/227/147 195/239/147 
f 197/224/148 199/226/148 196/233/148 
f 208/241/149 197/224/149 196/233/149 
f 208/241/150 196/233/150 206/236/150 
f 195/239/151 200/227/151 204/232/151 
f 204/232/152 194/242/152 195/239/152 
f 209/243/153 210/244/153 211/245/153 
f 211/245/154 212/246/154 209/243/154 
f 213/247/155 214/248/155 210/244/155 
f 210/244/155 209/243/155 213/247/155 
f 214/248/156 215/249/156 211/245/156 
f 211/245/156 210/244/156 214/248/156 
f 216/250/157 213/247/157 209/243/157 
f 209/243/158 212/246/158 216/250/158 
f 216/250/159 212/246/159 217/251/159 
f 217/251/160 218/252/160 216/250/160 
f 212/246/161 211/245/161 217/251/161 
f 211/245/162 215/249/162 218/252/162 
f 218/252/163 217/251/163 211/245/163 
f 219/70/164 220/71/164 221/72/164 
f 221/72/165 222/73/165 219/70/165 
f 221/72/166 220/71/166 223/74/166 
f 223/74/167 224/75/167 221/72/167 
f 225/76/168 226/77/168 227/78/168 
f 227/78/169 228/79/169 225/76/169 
f 229/80/170 230/81/170 231/82/170 
f 231/82/170 232/83/170 229/80/170 
f 233/72/171 226/73/171 222/73/171 
f 222/73/172 221/72/172 233/72/172 
f 234/84/173 219/70/173 226/77/173 
f 226/77/174 225/76/174 234/84/174 
f 226/77/175 219/70/175 222/73/175 
f 235/85/176 229/80/176 232/83/176 
f 232/83/177 223/74/177 235/85/177 
f 232/83/178 224/75/178 223/74/178 
f 232/75/179 233/72/179 221/72/179 
f 221/72/180 224/75/180 232/75/180 
usemtl Material__10
f 236/253/181 237/254/181 238/255/181 
usemtl 07
f 192/256/182 239/257/182 240/258/182 
f 240/258/183 193/259/183 192/256/183 
usemtl roof
f 241/260/184 242/261/184 243/262/184 
f 243/262/185 244/263/185 241/260/185 
f 245/264/186 246/265/186 244/263/186 
f 244/263/187 243/262/187 245/264/187 
f 246/265/188 239/266/188 247/267/188 
f 247/267/189 244/263/189 246/265/189 
f 248/268/190 242/261/190 241/260/190 
f 241/260/191 249/269/191 248/268/191 
f 240/270/191 248/268/191 249/269/191 
f 250/271/192 242/272/192 248/273/192 
f 251/274/193 197/275/193 208/276/193 
f 252/277/194 235/278/194 220/279/194 
usemtl roof02
f 253/280/195 254/281/195 255/282/195 
f 255/282/196 9/283/196 253/280/196 
f 9/283/197 255/282/197 256/284/197 
f 257/285/198 253/280/198 258/286/198 
f 258/286/199 256/284/199 257/285/199 
f 256/284/200 258/286/200 10/287/200 
f 10/287/201 9/283/201 256/284/201 
f 253/280/202 257/285/202 254/281/202 
f 259/288/203 260/289/203 261/290/203 
f 261/290/204 262/291/204 259/288/204 
usemtl roof
f 263/292/205 264/293/205 265/294/205 
f 265/294/206 264/293/206 266/295/206 
f 263/292/207 267/296/207 268/297/207 
f 268/297/208 269/298/208 264/293/208 
f 264/293/209 263/292/209 268/297/209 
f 270/299/210 271/300/210 267/296/210 
f 263/292/211 272/301/211 270/299/211 
f 270/299/212 267/296/212 263/292/212 
f 269/298/209 273/302/209 271/300/209 
f 271/300/209 264/293/209 269/298/209 
f 273/302/213 267/296/213 271/300/213 
usemtl Material__1
f 105/86/214 155/131/214 106/87/214 
f 143/121/91 159/88/91 144/87/91 
f 145/133/215 159/303/215 143/134/215 
f 153/142/97 130/153/97 129/144/97 
f 153/150/216 154/160/216 152/151/216 
f 109/90/68 111/92/68 110/91/68 
f 114/95/217 108/89/217 110/91/217 
f 110/115/73 126/304/73 127/113/73 
f 130/117/218 156/305/218 131/118/218 
f 157/154/219 131/144/219 156/153/219 
f 148/139/220 156/153/220 127/156/220 
f 110/91/103 128/156/103 130/153/103 
f 130/159/221 128/114/221 127/113/221 
f 157/154/110 141/132/110 140/131/110 
f 131/118/222 140/149/222 155/148/222 
f 144/138/223 160/161/223 147/136/223 
f 160/161/224 144/138/224 106/147/224 
f 160/87/114 139/87/114 133/120/114 
f 147/136/117 133/130/117 136/129/117 
f 116/97/225 134/306/225 117/98/225 
f 150/141/226 157/154/226 148/139/226 
f 150/141/227 149/140/227 151/142/227 
f 141/132/228 158/155/228 138/88/228 
f 148/139/103 126/91/103 119/94/103 
f 149/140/103 119/94/103 118/157/103 
f 150/141/229 152/143/229 137/86/229 
f 150/141/110 158/155/110 141/132/110 
f 146/121/230 117/121/230 138/88/230 
f 124/92/231 123/90/231 121/95/231 
f 121/95/232 119/94/232 126/91/232 
usemtl roof
f 251/274/193 198/307/193 197/275/193 
usemtl 04
f 56/55/233 274/308/233 54/53/233 
f 54/53/234 275/309/234 55/54/234 
usemtl roof
f 276/310/235 277/311/235 250/312/235 
f 20/313/236 245/314/236 277/311/236 
f 277/311/237 245/314/237 250/312/237 
f 243/315/238 242/316/238 250/312/238 
f 245/314/239 243/315/239 250/312/239 
usemtl tin
f 20/23/240 277/317/240 21/24/240 
usemtl roof02
f 86/318/241 72/319/241 71/320/241 
f 278/321/242 89/322/242 103/323/242 
usemtl Material__1
f 123/107/243 109/324/243 108/106/243 
f 111/109/244 109/324/244 123/107/244 
f 112/111/245 111/109/245 124/108/245 
f 126/112/80 110/325/80 112/111/80 
usemtl roof02
f 86/318/246 279/326/246 72/319/246 
f 89/322/247 88/327/247 103/323/247 
f 87/328/248 72/329/248 279/330/248 
f 278/331/249 104/332/249 89/333/249 
f 87/328/250 75/334/250 72/329/250 
f 104/332/251 92/335/251 89/333/251 
f 9/10/252 10/336/252 7/8/252 
usemtl roof03
f 12/13/253 11/12/253 4/337/253 
f 4/337/254 19/22/254 12/13/254 
f 19/338/255 16/339/255 17/340/255 
f 280/341/256 281/342/256 6/343/256 
f 4/344/257 6/343/257 19/338/257 
f 19/338/258 281/342/258 16/339/258 
f 6/343/259 281/342/259 19/338/259 
f 14/15/260 282/345/260 15/16/260 
f 15/18/261 282/346/261 17/19/261 
usemtl 07
f 83/347/262 78/348/262 84/349/262 
f 84/349/263 78/348/263 85/350/263 
f 83/347/264 79/351/264 78/348/264 
f 100/352/265 95/353/265 101/354/265 
f 101/354/266 95/353/266 102/355/266 
f 100/352/264 96/356/264 95/353/264 
f 231/357/267 227/358/267 226/359/267 
f 226/359/268 232/360/268 231/357/268 
f 232/360/269 226/359/269 233/361/269 
usemtl Material__10
f 237/254/270 283/362/270 238/255/270 
usemtl Material__115
f 256/363/271 255/364/271 254/50/271 
f 254/50/199 257/365/199 256/363/199 
usemtl roof03
f 1/1/272 5/366/272 2/2/272 
usemtl Material__5
f 284/367/273 285/368/273 286/369/273 
f 287/370/274 288/371/274 289/372/274 
f 287/370/275 264/373/275 288/371/275 
f 284/367/276 290/374/276 285/368/276 
usemtl Material__115
f 269/375/277 268/376/277 267/377/277 
f 267/377/278 273/378/278 269/375/278 
usemtl 01
f 291/379/279 266/380/279 281/381/279 
f 292/382/280 270/383/280 293/384/280 
f 7/385/281 294/386/281 8/387/281 
f 250/388/282 295/389/282 296/390/282 
f 297/391/283 258/392/283 298/393/283 
f 270/394/284 284/395/284 271/396/284 
f 265/397/285 299/398/285 300/399/285 
f 300/399/286 263/400/286 265/397/286 
f 272/401/287 263/402/287 300/403/287 
f 300/403/288 293/384/288 272/401/288 
f 301/404/289 260/405/289 290/406/289 
f 290/406/290 260/405/290 259/407/290 
f 290/408/291 259/409/291 285/410/291 
f 264/411/292 287/412/292 302/413/292 
f 271/414/293 286/415/293 264/416/293 
f 284/395/294 303/417/294 290/406/294 
f 286/418/295 285/419/295 289/420/295 
f 289/420/296 288/421/296 286/418/296 
f 286/415/297 288/422/297 264/416/297 
f 271/414/298 284/423/298 286/415/298 
f 259/409/299 262/424/299 285/410/299 
f 304/425/300 305/426/300 306/427/300 
f 304/428/301 307/429/301 18/430/301 
f 304/431/302 306/432/302 308/433/302 
f 308/433/303 309/434/303 304/431/303 
f 308/435/304 306/436/304 261/437/304 
f 261/437/305 260/438/305 308/435/305 
f 260/405/306 309/439/306 308/440/306 
f 310/441/307 309/439/307 260/405/307 
f 305/426/308 302/413/308 306/427/308 
f 311/442/309 299/443/309 265/444/309 
f 265/444/310 266/445/310 311/442/310 
f 281/446/311 297/447/311 291/448/311 
f 280/449/312 11/450/312 258/451/312 
f 6/452/313 1/453/313 3/454/313 
f 3/454/314 280/455/314 6/452/314 
f 11/456/315 2/457/315 5/458/315 
f 11/450/316 3/459/316 2/460/316 
f 7/461/317 312/462/317 294/463/317 
f 10/464/318 313/465/318 312/466/318 
f 7/461/319 10/467/319 312/462/319 
f 305/426/320 14/468/320 302/413/320 
f 17/469/321 14/470/321 305/471/321 
f 302/472/322 15/473/322 16/474/322 
f 9/475/323 314/476/323 276/477/323 
f 315/478/324 253/479/324 296/480/324 
f 12/481/325 307/429/325 313/465/325 
f 314/482/326 8/387/326 316/483/326 
f 316/483/326 317/484/326 314/482/326 
f 318/485/327 319/486/327 320/487/327 
f 320/487/328 321/488/328 318/485/328 
f 321/489/329 320/490/329 322/491/329 
f 322/491/330 323/492/330 321/489/330 
f 322/493/331 248/494/331 240/495/331 
f 240/495/332 323/496/332 322/493/332 
f 323/496/333 240/495/333 239/497/333 
f 239/497/334 246/498/334 323/496/334 
f 324/499/335 325/500/335 245/501/335 
f 325/500/336 326/502/336 245/501/336 
f 326/502/337 318/503/337 245/501/337 
f 318/503/338 321/504/338 245/501/338 
f 321/504/339 323/505/339 245/501/339 
f 323/505/340 246/506/340 245/501/340 
f 314/482/341 20/507/341 22/508/341 
f 327/509/342 328/510/342 250/388/342 
f 329/511/343 327/509/343 250/388/343 
f 250/388/344 320/512/344 329/511/344 
f 276/477/345 314/476/345 21/513/345 
f 277/514/346 276/515/346 21/516/346 
f 250/388/347 248/517/347 320/512/347 
f 320/512/348 319/518/348 329/511/348 
f 248/517/349 322/519/349 320/512/349 
f 276/477/350 250/520/350 9/475/350 
f 330/521/351 331/522/351 332/523/351 
f 333/524/351 334/525/351 335/526/351 
f 336/527/351 337/528/351 338/529/351 
f 339/530/352 324/531/352 330/521/352 
f 340/532/351 341/533/351 342/534/351 
f 343/535/351 344/536/351 345/537/351 
f 338/529/351 346/538/351 344/536/351 
f 347/539/351 348/540/351 332/523/351 
f 332/523/351 348/540/351 334/525/351 
f 330/521/353 349/541/353 339/530/353 
f 343/535/353 333/524/353 336/527/353 
f 336/527/353 338/529/353 343/535/353 
f 350/542/351 341/533/351 349/541/351 
f 330/543/354 332/544/354 24/545/354 
f 24/545/355 23/546/355 330/543/355 
f 334/547/356 25/548/356 332/549/356 
f 350/550/357 25/551/357 334/552/357 
f 350/553/358 330/554/358 23/555/358 
f 23/555/359 26/556/359 350/553/359 
f 333/557/360 335/558/360 28/559/360 
f 28/559/361 27/560/361 333/557/361 
f 337/561/362 29/562/362 335/563/362 
f 336/564/363 29/565/363 337/566/363 
f 336/567/364 333/568/364 27/569/364 
f 27/569/365 30/570/365 336/567/365 
f 338/571/366 351/572/366 32/573/366 
f 32/573/367 31/574/367 338/571/367 
f 352/575/368 33/576/368 351/577/368 
f 353/578/369 33/579/369 352/580/369 
f 353/581/370 338/582/370 31/583/370 
f 31/583/371 34/584/371 353/581/371 
f 354/585/372 339/586/372 36/587/372 
f 36/587/372 35/588/372 354/585/372 
f 349/589/373 37/590/373 339/591/373 
f 349/592/374 340/593/374 38/594/374 
f 38/594/375 37/595/375 349/592/375 
f 340/596/376 354/597/376 35/598/376 
f 35/598/377 38/599/377 340/596/377 
f 342/600/378 341/601/378 41/602/378 
f 41/602/379 40/603/379 342/600/379 
f 343/604/380 42/605/380 341/606/380 
f 343/607/381 345/608/381 39/609/381 
f 39/609/382 42/610/382 343/607/382 
f 345/611/383 342/612/383 40/613/383 
f 40/613/384 39/614/384 345/611/384 
f 355/615/385 344/616/385 43/617/385 
f 43/617/386 46/618/386 355/615/386 
f 346/619/387 44/620/387 344/621/387 
f 346/622/388 356/623/388 45/624/388 
f 45/624/389 44/625/389 346/622/389 
f 356/626/390 355/627/390 46/628/390 
f 46/628/391 45/629/391 356/626/391 
f 357/630/392 358/631/392 51/632/392 
f 51/632/393 48/633/393 357/630/393 
f 358/634/394 359/635/394 52/636/394 
f 52/636/395 51/637/395 358/634/395 
f 360/638/396 49/639/396 52/640/396 
f 52/640/397 359/641/397 360/638/397 
f 360/638/398 361/642/398 50/643/398 
f 50/643/399 49/639/399 360/638/399 
f 361/644/400 348/645/400 47/646/400 
f 47/646/401 50/647/401 361/644/401 
f 348/648/402 357/630/402 48/633/402 
f 48/633/403 47/649/403 348/648/403 
f 362/650/351 360/651/351 363/652/351 
f 362/650/351 335/526/351 361/653/351 
f 364/654/351 365/655/351 366/656/351 
f 366/657/404 362/658/404 55/659/404 
f 55/659/405 275/660/405 366/657/405 
f 362/661/406 363/662/406 53/663/406 
f 53/663/407 55/664/407 362/661/407 
f 364/665/408 366/666/408 275/667/408 
f 275/667/409 54/668/409 364/665/409 
f 367/669/352 368/670/352 369/671/352 
f 351/672/351 370/673/351 371/674/351 
f 372/675/351 366/656/351 365/655/351 
f 372/675/353 373/676/353 366/656/353 
f 370/673/353 366/656/353 373/676/353 
f 366/656/351 337/528/351 335/526/351 
f 352/677/351 351/672/351 371/674/351 
f 371/674/351 374/678/351 352/677/351 
f 375/679/410 353/680/410 376/681/410 
f 377/682/411 353/680/411 352/677/411 
f 352/677/410 374/678/410 377/682/410 
f 369/671/351 368/670/351 378/683/351 
f 193/684/412 240/685/412 249/686/412 
f 247/687/413 192/688/413 379/689/413 
f 379/689/414 244/690/414 247/687/414 
f 241/691/415 244/692/415 379/693/415 
f 379/693/415 380/694/415 241/691/415 
f 305/471/416 304/428/416 17/469/416 
f 12/481/417 18/430/417 307/429/417 
f 264/695/418 302/472/418 266/380/418 
f 328/696/351 375/679/351 381/697/351 
f 381/697/351 382/698/351 328/696/351 
f 378/683/419 368/670/419 383/699/419 
f 326/700/420 329/701/420 319/702/420 
f 319/702/421 318/703/421 326/700/421 
f 326/700/422 325/704/422 327/705/422 
f 327/705/423 329/701/423 326/700/423 
f 355/706/353 356/707/353 328/696/353 
f 328/696/353 345/537/353 355/706/353 
f 346/538/351 375/679/351 356/707/351 
f 328/696/351 356/707/351 375/679/351 
f 375/679/424 376/681/424 381/697/424 
f 247/687/425 239/708/425 192/688/425 
f 249/686/426 241/709/426 380/710/426 
f 380/710/427 193/684/427 249/686/427 
f 362/650/351 361/653/351 360/651/351 
f 364/654/351 384/711/351 365/655/351 
f 281/446/311 280/449/311 258/451/311 
f 10/464/428 12/481/428 313/465/428 
f 291/379/429 311/712/429 266/380/429 
f 309/713/430 310/714/430 304/428/430 
f 303/417/294 301/404/294 290/406/294 
f 270/394/431 292/715/431 284/395/431 
f 292/715/432 303/417/432 284/395/432 
f 270/383/433 272/401/433 293/384/433 
f 258/392/434 253/716/434 298/393/434 
f 281/446/311 258/451/311 297/447/311 
f 11/450/435 10/717/435 258/451/435 
f 5/458/436 4/718/436 11/456/436 
f 11/450/312 280/449/312 3/459/312 
f 324/499/437 245/501/437 317/484/437 
f 8/387/438 385/719/438 316/483/438 
f 294/386/439 386/720/439 8/387/439 
f 328/510/440 382/721/440 295/389/440 
f 295/389/440 250/388/440 328/510/440 
f 368/722/441 387/723/441 315/724/441 
f 338/529/351 344/536/351 343/535/351 
f 350/542/353 333/524/353 341/533/353 
f 362/650/351 366/656/351 335/526/351 
f 330/521/351 350/542/351 349/541/351 
f 337/528/351 351/672/351 338/529/351 
f 344/536/351 355/706/351 345/537/351 
f 388/725/442 354/726/442 389/727/442 
f 389/727/443 327/705/443 388/725/443 
f 390/728/444 327/705/444 389/727/444 
f 389/727/445 391/729/445 390/728/445 
f 389/727/446 392/730/446 391/729/446 
f 390/728/447 328/731/447 327/705/447 
f 388/725/448 327/705/448 325/704/448 
f 325/704/449 324/732/449 388/725/449 
f 340/532/410 393/733/410 389/727/410 
f 386/720/450 394/734/450 395/735/450 
f 348/540/351 361/653/351 334/525/351 
f 361/653/351 335/526/351 334/525/351 
f 339/530/351 354/726/351 324/531/351 
f 354/726/442 388/725/442 324/531/442 
f 354/726/351 340/532/351 389/727/351 
f 392/736/451 389/737/451 393/738/451 
f 315/478/324 298/739/324 253/479/324 
f 9/475/452 8/740/452 314/476/452 
f 314/476/453 22/741/453 21/513/453 
f 314/482/454 317/484/454 20/507/454 
f 304/428/455 18/430/455 17/469/455 
f 17/469/456 282/742/456 14/470/456 
f 14/468/457 13/743/457 302/413/457 
f 262/744/458 261/745/458 306/427/458 
f 302/413/459 287/412/459 262/744/459 
f 302/413/460 262/744/460 306/427/460 
f 287/746/461 289/747/461 285/410/461 
f 262/424/462 287/746/462 285/410/462 
f 302/472/463 16/474/463 266/380/463 
f 16/474/464 281/381/464 266/380/464 
f 302/472/322 13/748/322 15/473/322 
f 347/539/351 357/749/351 348/540/351 
f 330/521/351 396/750/351 397/751/351 
f 397/751/351 331/522/351 330/521/351 
f 333/524/351 350/542/351 334/525/351 
f 343/535/353 341/533/353 333/524/353 
f 340/532/351 349/541/351 341/533/351 
f 37/590/465 36/752/465 339/591/465 
f 42/605/465 41/753/465 341/606/465 
f 44/620/466 43/754/466 344/621/466 
f 346/538/351 353/680/351 375/679/351 
f 33/576/467 32/755/467 351/577/467 
f 353/578/468 34/756/468 33/579/468 
f 29/562/469 28/757/469 335/563/469 
f 336/564/470 30/758/470 29/565/470 
f 25/548/356 24/759/356 332/549/356 
f 350/550/471 26/760/471 25/551/471 
usemtl 02
f 363/761/353 360/762/353 359/763/353 
f 359/763/351 398/764/351 363/761/351 
f 358/765/353 347/766/353 399/767/353 
f 368/768/410 400/769/410 387/770/410 
f 363/771/472 398/772/472 56/773/472 
f 56/773/473 53/774/473 363/771/473 
f 398/775/474 401/776/474 274/777/474 
f 274/777/475 56/778/475 398/775/475 
f 401/779/476 364/780/476 54/781/476 
f 54/781/477 274/782/477 401/779/477 
f 401/783/351 402/784/351 364/785/351 
f 403/786/478 404/787/478 405/788/478 
f 406/789/479 403/790/479 407/791/479 
f 406/792/480 408/793/480 409/794/480 
f 409/794/480 403/795/480 406/792/480 
f 410/796/481 411/797/481 404/798/481 
f 404/798/482 408/799/482 410/796/482 
f 399/767/353 359/763/353 358/765/353 
f 412/800/351 398/764/351 359/763/351 
f 412/801/483 399/802/483 237/803/483 
f 237/803/484 236/804/484 412/801/484 
f 399/805/485 413/806/485 283/807/485 
f 283/807/486 237/808/486 399/805/486 
f 414/809/487 412/810/487 236/811/487 
f 236/811/488 238/812/488 414/809/488 
f 398/764/351 414/813/351 402/784/351 
f 402/784/351 401/783/351 398/764/351 
f 402/784/351 384/814/351 364/785/351 
f 400/769/410 415/815/410 387/770/410 
f 416/816/489 70/817/489 69/818/489 
f 69/818/489 417/819/489 416/816/489 
f 238/820/490 418/821/490 419/822/490 
f 283/807/491 420/823/491 418/824/491 
f 414/809/492 419/825/492 421/826/492 
f 402/784/351 421/827/351 422/828/351 
f 420/829/353 413/830/353 423/831/353 
f 413/830/351 399/767/351 423/831/351 
f 399/767/351 412/800/351 359/763/351 
f 412/800/351 414/813/351 398/764/351 
f 358/765/351 357/832/351 347/766/351 
f 347/766/351 423/831/351 399/767/351 
f 403/786/493 409/833/493 404/787/493 
f 403/790/494 405/834/494 407/791/494 
f 238/820/490 283/835/490 418/821/490 
f 283/807/495 413/806/495 420/823/495 
f 414/809/496 238/812/496 419/825/496 
f 368/768/410 367/836/410 400/769/410 
usemtl roof
f 202/837/497 201/838/497 251/839/497 
f 201/838/498 198/840/498 251/839/498 
f 252/841/499 220/842/499 234/843/499 
usemtl stone
f 384/844/500 424/845/500 425/846/500 
f 425/846/410 426/847/410 384/844/410 
f 402/848/351 424/845/351 384/844/351 
f 384/844/351 427/849/351 365/850/351 
f 365/850/351 427/849/351 428/851/351 
f 428/851/351 372/852/351 365/850/351 
f 428/851/351 429/853/351 373/854/351 
f 373/854/351 372/852/351 428/851/351 
f 429/853/353 430/855/353 370/856/353 
f 370/856/353 373/854/353 429/853/353 
f 430/855/353 431/857/353 371/858/353 
f 371/858/353 370/856/353 430/855/353 
f 371/858/352 431/857/352 432/859/352 
f 432/859/501 433/860/501 371/858/501 
f 371/858/351 433/860/351 374/861/351 
f 433/860/352 434/862/352 377/863/352 
f 377/863/410 374/861/410 433/860/410 
f 434/862/351 435/864/351 383/865/351 
f 383/865/353 377/863/353 434/862/353 
f 383/865/502 435/864/502 378/866/502 
f 378/866/502 435/864/502 436/867/502 
f 436/867/410 369/868/410 378/866/410 
f 369/868/351 436/867/351 437/869/351 
f 437/869/502 367/870/502 369/868/502 
f 438/871/503 367/870/503 437/869/503 
f 439/872/353 424/845/353 402/848/353 
f 402/848/503 422/873/503 439/872/503 
f 400/874/424 438/871/424 440/875/424 
f 440/875/503 415/876/503 400/874/503 
f 438/871/504 400/874/504 367/870/504 
f 424/845/505 441/877/505 425/846/505 
f 384/844/410 426/847/410 427/849/410 
usemtl 06
f 437/878/506 58/879/506 438/880/506 
f 437/878/507 436/881/507 62/882/507 
f 62/882/508 58/879/508 437/878/508 
f 435/883/509 66/884/509 62/882/509 
f 62/882/510 436/881/510 435/883/510 
f 434/885/511 67/886/511 66/884/511 
f 66/884/512 435/883/512 434/885/512 
f 433/887/513 68/888/513 67/886/513 
f 67/886/514 434/885/514 433/887/514 
f 433/887/515 432/889/515 65/890/515 
f 65/890/516 68/888/516 433/887/516 
f 431/891/517 63/892/517 65/890/517 
f 65/890/518 432/889/518 431/891/518 
f 430/893/519 64/894/519 63/892/519 
f 63/892/520 431/891/520 430/893/520 
f 429/895/521 61/896/521 64/894/521 
f 64/894/522 430/893/522 429/895/522 
f 428/897/523 59/898/523 61/896/523 
f 61/896/524 429/895/524 428/897/524 
f 427/899/525 60/900/525 59/898/525 
f 59/898/526 428/897/526 427/899/526 
f 60/900/527 427/899/527 426/901/527 
f 426/901/528 57/902/528 60/900/528 
f 58/879/529 70/903/529 438/880/529 
f 424/904/530 69/905/530 57/902/530 
f 57/902/531 426/901/531 424/904/531 
f 440/906/532 438/880/532 70/903/532 
f 70/903/533 416/907/533 440/906/533 
f 417/908/534 69/905/534 424/904/534 
f 424/904/535 439/909/535 417/908/535 
usemtl stone
f 441/877/536 426/847/536 425/846/536 
usemtl 05
f 58/57/537 57/56/537 69/68/537 
usemtl 01
f 342/534/447 392/730/447 393/733/447 
f 340/532/447 342/534/447 393/733/447 
f 342/534/353 345/537/353 392/730/353 
f 345/537/353 391/910/353 392/730/353 
f 345/537/353 328/696/353 390/911/353 
f 345/537/447 390/911/447 391/910/447 
f 301/404/538 310/441/538 260/405/538 
f 310/714/539 307/429/539 304/428/539 
usemtl Material__7
f 186/213/540 185/912/540 190/214/540 
f 190/216/128 185/913/128 187/217/128 
f 187/207/131 442/914/131 188/208/131 
f 190/210/541 189/915/541 188/211/541 
f 186/205/130 442/916/130 187/206/130 
f 168/917/125 167/918/125 171/180/125 
f 171/180/125 170/179/125 168/917/125 
f 166/919/126 165/920/126 173/182/126 
f 173/182/542 176/185/542 166/919/542 
usemtl 01
f 330/521/351 324/531/351 396/750/351 
f 8/387/543 386/720/543 443/921/543 
f 443/921/544 385/719/544 8/387/544 
f 331/522/351 347/539/351 332/523/351 
f 397/751/351 347/539/351 331/522/351 
f 386/720/545 395/735/545 443/921/545 
usemtl 02
f 402/784/351 414/813/351 421/827/351 
f 404/798/546 409/922/546 408/799/546 
usemtl 01
f 351/672/351 366/656/351 370/673/351 
f 351/672/351 337/528/351 366/656/351 
f 338/529/351 353/680/351 346/538/351 
f 316/483/326 324/499/326 317/484/326 
f 396/923/438 324/499/438 316/483/438 
f 316/483/438 385/719/438 396/923/438 
f 423/924/450 347/925/450 395/735/450 
f 395/735/450 394/734/450 423/924/450 
f 397/926/438 396/923/438 385/719/438 
f 385/719/547 443/921/547 397/926/547 
f 397/926/545 443/921/545 395/735/545 
f 395/735/545 347/925/545 397/926/545 
f 245/501/548 20/507/548 317/484/548 
usemtl 07
f 193/220/549 196/223/549 194/221/549 
f 198/225/550 200/227/550 199/226/550 
usemtl roof
f 220/842/551 219/927/551 234/843/551 
f 235/278/552 223/928/552 220/279/552 
usemtl 01
f 315/724/282 296/390/282 295/389/282 
f 295/389/282 368/722/282 315/724/282 
f 382/721/440 368/722/440 295/389/440 
f 253/479/553 9/475/553 250/520/553 
f 250/520/324 296/480/324 253/479/324 
f 353/680/410 377/682/410 376/681/410 
f 383/699/351 368/670/351 382/698/351 
f 382/698/351 381/697/351 383/699/351 
f 377/682/503 383/699/503 381/697/503 
f 381/697/424 376/681/424 377/682/424 
usemtl Material__1
f 161/166/121 132/173/121 134/167/121 
# 775 faces

