# 3ds Max Wavefront OBJ Exporter v0.94b - (c)2007 guruware
# File Created: 07.11.2010 23:34:28

mtllib Estonia8a-origo.mtl

#
# object Estoinia8a
#

v  542438.656479 6588633.59827 19.632915
v  542432.888885 6588638.52786 19.632914
v  542432.888901 6588638.52786 19.324963
v  542438.656479 6588633.59824 19.324963
v  542433.438843 6588650.84894 20.443926
v  542427.296722 6588643.66275 20.443924
v  542427.295715 6588643.66153 19.655479
v  542433.438858 6588650.84894 20.283607
v  542433.438843 6588650.84894 14.995835
v  542432.944733 6588651.27124 14.995834
v  542432.944733 6588651.27124 20.443926
v  542428.849991 6588646.48047 20.443926
v  542430.897369 6588648.87585 20.443926
v  542430.897369 6588648.87585 14.995834
v  542428.849991 6588646.48047 14.995834
v  542426.802612 6588644.08505 20.443924
v  542431.141785 6588640.37631 14.995835
v  542431.141785 6588640.37631 19.324963
v  542427.296722 6588643.66275 19.324963
v  542426.802612 6588644.08505 14.995834
v  542427.121307 6588643.45749 19.324963
v  542427.121307 6588643.45749 19.632914
v  542433.648209 6588650.86533 20.443926
v  542433.648209 6588650.86533 20.653927
v  542427.313126 6588643.45337 20.653925
v  542427.313126 6588643.45337 20.443924
v  542432.928329 6588651.48062 20.443926
v  542432.928329 6588651.48062 20.653927
v  542426.593262 6588644.06866 20.443924
v  542426.593262 6588644.06866 20.653925
v  542444.97403 6588640.98968 20.443928
v  542444.97403 6588640.98968 20.283607
v  542438.830887 6588633.80231 19.655479
v  542438.831909 6588633.8035 20.443926
v  542445.46814 6588640.56735 20.443928
v  542445.46814 6588640.56735 14.995836
v  542444.97403 6588640.98968 14.995836
v  542439.326019 6588633.38116 20.443926
v  542438.831909 6588633.8035 19.324963
v  542434.986847 6588637.08991 14.995835
v  542435.11142 6588636.98343 14.995835
v  542435.11142 6588636.98343 17.630573
v  542434.986847 6588637.08991 19.324963
v  542436.36145 6588635.91501 17.630573
v  542436.36145 6588635.91501 14.995835
v  542439.326019 6588633.38116 14.995835
v  542433.064316 6588638.73312 19.324963
v  542438.622559 6588633.78708 20.653927
v  542444.957626 6588641.19904 20.653927
v  542444.957626 6588641.19904 20.443928
v  542438.622559 6588633.78708 20.443926
v  542445.67749 6588640.58377 20.653927
v  542445.67749 6588640.58377 20.443926
v  542439.342422 6588633.17181 20.653925
v  542439.342422 6588633.17181 20.443926
v  542441.373398 6588635.77655 20.443926
v  542443.420761 6588638.17197 20.443926
v  542439.206436 6588645.91931 20.283607
v  542441.852921 6588636.33762 18.047724
v  542441.373398 6588635.77655 14.995835
v  542441.852921 6588636.33762 15.182788
v  542442.958313 6588637.63089 15.182788
v  542443.420761 6588638.17197 14.995835
v  542442.958313 6588637.63089 18.047724
v  542440.023422 6588634.19711 15.182789
v  542440.023422 6588634.19711 18.047724
v  542441.128799 6588635.49039 15.182790
v  542441.128799 6588635.49039 18.047724
v  542444.787872 6588639.77145 18.047724
v  542444.787872 6588639.77145 15.182789
v  542443.68248 6588638.47818 15.182789
v  542443.682495 6588638.47818 18.047724
v  542432.509125 6588639.20764 14.995835
v  542432.509125 6588639.20764 17.630573
v  542433.759155 6588638.13922 17.630573
v  542433.759155 6588638.13922 14.995835
v  542439.148224 6588638.09393 20.600784
v  542439.50592 6588638.51245 20.600784
v  542439.50592 6588638.51245 19.848270
v  542439.148224 6588638.09393 19.848270
v  542439.893631 6588638.18106 19.848270
v  542439.893631 6588638.18106 20.600784
v  542439.535934 6588637.76254 20.600784
v  542439.535934 6588637.76254 19.848270
v  542439.494202 6588638.66199 20.600784
v  542438.998688 6588638.08221 20.600784
v  542439.547653 6588637.61301 20.600784
v  542440.043182 6588638.19278 20.600784
v  542439.520935 6588638.13751 20.876997
# 89 vertices

vn -0.649725 -0.760169 -0.000005
vn 0.760169 -0.649725 0.000014
vn 0.760167 -0.649728 0.000059
vn 0.649725 0.760169 -0.000001
vn 0.649721 0.760173 -0.000000
vn 0.649725 0.760169 0.000022
vn -0.760169 0.649725 -0.000000
vn -0.649724 -0.760168 0.001989
vn -0.649725 -0.760169 0.000000
vn -0.655905 -0.754829 -0.004745
vn -0.760170 0.649724 0.000036
vn -0.760169 0.649725 0.000035
vn 0.760169 -0.649725 0.000000
vn 0.649725 0.760169 0.000000
vn -0.760169 0.649725 0.000000
vn -0.000000 0.000000 -1.000000
vn 0.000000 0.000000 -1.000000
vn -0.000002 0.000002 -1.000000
vn 0.000002 -0.000002 -1.000000
vn -0.760172 0.649722 0.000054
vn -0.760169 0.649725 0.000013
vn 0.649725 0.760169 0.000024
vn 0.649730 0.760165 -0.000000
vn 0.649726 0.760168 -0.000001
vn -0.649724 -0.760168 0.001987
vn -0.643495 -0.765436 -0.004739
vn 0.000000 -0.000000 -1.000000
vn -0.000000 -0.000000 -1.000000
vn 0.760167 -0.649728 0.000032
vn 0.760164 -0.649731 0.000036
vn 0.649725 0.760169 -0.000000
vn 0.760169 -0.649725 -0.000005
vn 0.760169 -0.649725 -0.000009
vn -0.649725 -0.760170 0.000000
vn -0.649725 -0.760170 -0.000000
vn -0.000002 -0.000002 -1.000000
vn -0.000001 -0.000000 -1.000000
vn -0.000005 0.000004 -1.000000
vn 0.000001 0.000002 -1.000000
vn -0.043383 -0.050757 0.997768
vn 0.760170 -0.649725 -0.000000
vn 0.760170 -0.649725 -0.000002
vn 0.760169 -0.649725 0.000001
vn 0.760169 -0.649725 -0.000000
vn 0.760170 -0.649724 -0.000000
vn 0.760169 -0.649726 -0.000000
vn 0.760171 -0.649724 -0.000000
vn 0.760168 -0.649727 -0.000000
vn -0.649725 -0.760169 -0.000000
vn -0.000000 -0.000000 1.000000
vn 0.000000 -0.000000 1.000000
vn -0.760169 0.649725 0.000001
vn 0.760169 -0.649725 -0.000001
vn -0.461859 0.394756 0.794263
vn 0.461860 -0.394757 0.794263
vn 0.381138 0.445926 0.809867
vn -0.381138 -0.445926 0.809867
vn 0.760170 -0.649725 0.000000
vn 0.000001 0.000001 -1.000000
# 59 vertex normals

vt 0.061171 0.919339 0.000000
vt 0.766241 0.919339 0.000000
vt 0.766241 0.947956 0.000000
vt 0.061170 0.947956 0.000000
vt 0.866853 0.015980 0.000000
vt 0.866850 0.894470 0.000000
vt 0.793738 0.894772 0.000000
vt 0.852112 0.016136 0.000000
vt 4.613263 0.967757 0.000000
vt 4.613271 0.002903 0.000000
vt 4.731876 0.002904 0.000000
vt 4.731869 0.997010 0.000000
vt 4.613264 0.997010 0.000000
vt 5.881835 0.997019 0.000000
vt 5.306852 0.997014 0.000000
vt 5.306859 0.002909 0.000000
vt 5.881843 0.002913 0.000000
vt 9.344301 0.853137 0.000000
vt 9.344307 0.997004 0.000000
vt 9.462911 0.997001 0.000000
vt 8.421328 0.002918 0.000000
vt 8.421347 0.792848 0.000000
vt 9.344303 0.792829 0.000000
vt 9.462888 0.002895 0.000000
vt 0.036226 0.917241 0.000000
vt 0.036079 0.947955 0.000000
vt 0.880618 0.002193 0.000000
vt 0.900133 0.002193 0.000000
vt 0.900129 0.908282 0.000000
vt 0.880615 0.908282 0.000000
vt 0.900129 0.996283 0.000000
vt 0.880614 0.996283 0.000000
vt 0.866815 0.982484 0.000000
vt 0.866815 0.922081 0.000000
vt 0.866814 0.308605 0.000000
vt 0.866813 0.601435 0.000000
vt 1.844397 0.967736 0.000000
vt 1.844395 0.996989 0.000000
vt 1.725791 0.996989 0.000000
vt 1.725798 0.002883 0.000000
vt 1.844403 0.002884 0.000000
vt 6.456833 0.997066 0.000000
vt 6.575437 0.997064 0.000000
vt 6.575438 0.853197 0.000000
vt 6.575434 0.792888 0.000000
vt 7.498374 0.002938 0.000000
vt 7.468472 0.002939 0.000000
vt 7.468482 0.483696 0.000000
vt 7.498390 0.792869 0.000000
vt 7.168429 0.483703 0.000000
vt 7.168419 0.002945 0.000000
vt 6.456811 0.002962 0.000000
vt 0.531217 0.973047 0.000000
vt 0.061170 0.973047 0.000000
vt 0.766241 0.973047 0.000000
vt 1.844390 0.002923 0.000000
vt 1.844412 0.967776 0.000000
vt 3.228845 0.967746 0.000000
vt 4.613259 0.002863 0.000000
vt 4.613278 0.967716 0.000000
vt 6.456827 0.002917 0.000000
vt 6.456820 0.997023 0.000000
vt 0.766241 0.015757 0.000000
vt 0.061171 0.015757 0.000000
vt 0.710499 0.559749 0.000000
vt 0.575824 0.996980 0.000000
vt 0.575831 0.002874 0.000000
vt 0.710503 0.036988 0.000000
vt 1.020938 0.036990 0.000000
vt 1.150815 0.002878 0.000000
vt 1.150807 0.996984 0.000000
vt 1.020934 0.559751 0.000000
vt 0.196705 0.036985 0.000000
vt 0.196701 0.559746 0.000000
vt 0.000840 0.996976 0.000000
vt 0.000848 0.002870 0.000000
vt 0.507141 0.036987 0.000000
vt 0.507137 0.559748 0.000000
vt 1.534748 0.559755 0.000000
vt 1.534752 0.036995 0.000000
vt 1.224317 0.036992 0.000000
vt 1.224313 0.559753 0.000000
vt 8.093117 0.002924 0.000000
vt 8.093127 0.483682 0.000000
vt 7.793076 0.483688 0.000000
vt 7.959868 0.792858 0.000000
vt 7.793065 0.002933 0.000000
vt 0.988131 0.001976 0.000000
vt 0.988128 0.908065 0.000000
vt 0.852129 0.557638 0.000000
vt 0.148404 0.557635 0.000000
vt 0.148411 0.078340 0.000000
vt 0.852136 0.078342 0.000000
vt 0.007465 0.625191 0.000000
vt 0.993065 0.625194 0.000000
vt 0.500260 0.919922 0.000000
vt 0.005964 0.162569 0.000000
vt 0.005970 0.998184 0.000000
vt 0.997922 0.998177 0.000000
vt 0.997916 0.162562 0.000000
vt 0.005970 0.162562 0.000000
vt 0.997922 0.162569 0.000000
vt 0.997916 0.998184 0.000000
vt 0.005964 0.998177 0.000000
vt 0.981100 0.960092 0.000000
vt 0.022322 0.960092 0.000000
vt 0.022322 0.191618 0.000000
vt 0.981100 0.191618 0.000000
# 108 texture coords

g Estoinia8a
usemtl roof
f -89/-108/-59 -88/-107/-59 -87/-106/-59 
f -87/-106/-59 -86/-105/-59 -89/-108/-59 
f -85/-104/-58 -84/-103/-58 -83/-102/-58 
f -83/-102/-57 -82/-101/-57 -85/-104/-57 
usemtl wall
f -82/-100/-56 -81/-99/-56 -80/-98/-56 
f -82/-100/-55 -80/-98/-55 -79/-97/-55 
f -82/-100/-54 -79/-97/-54 -85/-96/-54 
f -78/-95/-53 -77/-94/-53 -76/-93/-53 
f -76/-93/-53 -75/-92/-53 -78/-95/-53 
f -83/-91/-52 -84/-90/-52 -74/-89/-52 
f -73/-88/-51 -72/-87/-51 -71/-86/-51 
f -70/-85/-51 -73/-88/-51 -71/-86/-51 
f -74/-89/-51 -70/-85/-51 -71/-86/-51 
f -83/-91/-50 -74/-89/-50 -71/-86/-50 
usemtl roof
f -69/-105/-49 -68/-108/-49 -83/-84/-49 
f -83/-84/-48 -71/-83/-48 -69/-105/-48 
f -67/-82/-47 -66/-81/-47 -65/-80/-47 
f -65/-80/-47 -64/-79/-47 -67/-82/-47 
f -63/-79/-46 -62/-80/-46 -66/-78/-46 
f -66/-78/-46 -67/-77/-46 -63/-79/-46 
f -61/-82/-45 -60/-81/-45 -62/-80/-45 
f -62/-80/-45 -63/-79/-45 -61/-82/-45 
f -64/-79/-51 -65/-80/-51 -60/-78/-51 
f -60/-78/-51 -61/-77/-51 -64/-79/-51 
f -84/-103/-44 -85/-104/-44 -67/-82/-44 
f -67/-82/-43 -64/-79/-43 -84/-103/-43 
f -85/-76/-43 -79/-75/-43 -63/-79/-43 
f -63/-79/-43 -67/-77/-43 -85/-76/-43 
f -78/-74/-44 -74/-104/-44 -61/-82/-44 
f -61/-82/-43 -63/-79/-43 -79/-103/-43 
f -61/-82/-42 -79/-103/-42 -77/-73/-42 
f -78/-74/-41 -61/-82/-41 -77/-73/-41 
f -74/-76/-43 -84/-75/-43 -64/-79/-43 
f -64/-79/-43 -61/-77/-43 -74/-76/-43 
f -59/-104/-40 -58/-101/-40 -57/-102/-40 
f -57/-102/-39 -56/-103/-39 -59/-104/-39 
usemtl wall
f -58/-72/-38 -59/-71/-38 -55/-70/-38 
f -58/-72/-37 -55/-70/-37 -54/-69/-37 
f -58/-72/-36 -54/-69/-36 -53/-68/-36 
f -52/-67/-35 -56/-66/-35 -57/-65/-35 
f -52/-67/-34 -57/-65/-34 -51/-64/-34 
f -50/-63/-51 -49/-62/-51 -48/-61/-51 
f -47/-60/-51 -50/-63/-51 -48/-61/-51 
f -47/-60/-51 -48/-61/-51 -46/-59/-51 
f -51/-64/-51 -47/-60/-51 -46/-59/-51 
f -51/-64/-51 -46/-59/-51 -45/-58/-51 
f -51/-64/-51 -45/-58/-51 -44/-57/-51 
f -52/-67/-51 -51/-64/-51 -44/-57/-51 
usemtl roof
f -47/-56/-33 -51/-55/-33 -86/-105/-33 
f -47/-56/-32 -86/-105/-32 -87/-106/-32 
f -47/-56/-43 -87/-106/-43 -43/-54/-43 
f -86/-105/-31 -51/-83/-31 -57/-84/-31 
f -57/-84/-30 -89/-108/-30 -86/-105/-30 
f -42/-81/-45 -41/-80/-45 -40/-79/-45 
f -40/-79/-45 -39/-82/-45 -42/-81/-45 
f -41/-80/-29 -38/-78/-29 -37/-77/-29 
f -37/-77/-46 -40/-79/-46 -41/-80/-46 
f -36/-80/-28 -35/-79/-28 -37/-82/-28 
f -37/-82/-27 -38/-81/-27 -36/-80/-27 
f -36/-80/-26 -42/-78/-26 -39/-77/-26 
f -39/-77/-25 -35/-79/-25 -36/-80/-25 
f -39/-82/-43 -40/-79/-43 -59/-103/-43 
f -59/-103/-44 -56/-104/-44 -39/-82/-44 
f -37/-77/-24 -55/-76/-24 -59/-75/-24 
f -59/-75/-23 -40/-79/-23 -37/-77/-23 
f -35/-79/-42 -52/-103/-42 -34/-73/-42 
f -35/-79/-22 -34/-73/-22 -33/-74/-22 
f -35/-79/-43 -33/-74/-43 -55/-104/-43 
f -35/-79/-42 -55/-104/-42 -37/-82/-42 
f -39/-77/-43 -56/-76/-43 -52/-75/-43 
f -52/-75/-21 -35/-79/-21 -39/-77/-21 
usemtl wall
f -81/-53/-56 -82/-52/-56 -32/-51/-56 
f -53/-50/-56 -81/-53/-56 -32/-51/-56 
f -53/-50/-56 -32/-51/-56 -58/-49/-56 
f -70/-48/-53 -74/-47/-53 -78/-95/-53 
f -78/-95/-53 -75/-92/-53 -70/-48/-53 
f -79/-97/-53 -80/-98/-53 -76/-93/-53 
f -76/-93/-53 -77/-94/-53 -79/-97/-53 
usemtl roof
f -68/-108/-20 -88/-107/-20 -32/-46/-20 
f -32/-46/-20 -82/-45/-20 -68/-108/-20 
usemtl wall
f -31/-44/-19 -34/-43/-19 -30/-42/-19 
f -29/-41/-47 -31/-44/-47 -30/-42/-47 
f -28/-40/-18 -29/-41/-18 -30/-42/-18 
f -28/-40/-17 -30/-42/-17 -27/-39/-17 
f -28/-40/-16 -27/-39/-16 -33/-38/-16 
f -34/-43/-16 -31/-44/-16 -26/-37/-16 
f -33/-38/-16 -34/-43/-16 -26/-37/-16 
f -28/-40/-15 -33/-38/-15 -26/-37/-15 
f -25/-36/-14 -24/-35/-14 -52/-34/-14 
f -25/-36/-16 -52/-34/-16 -44/-33/-16 
f -23/-32/-47 -25/-36/-47 -44/-33/-47 
f -23/-32/-47 -44/-33/-47 -30/-42/-47 
f -23/-32/-16 -30/-42/-16 -34/-43/-16 
f -34/-43/-47 -52/-34/-47 -24/-35/-47 
f -34/-43/-47 -24/-35/-47 -22/-31/-47 
f -23/-32/-13 -34/-43/-13 -22/-31/-13 
f -55/-70/-15 -21/-30/-15 -20/-29/-15 
f -54/-69/-16 -55/-70/-16 -20/-29/-16 
f -54/-69/-47 -20/-29/-47 -19/-28/-47 
f -21/-30/-47 -55/-70/-47 -33/-38/-47 
f -18/-27/-47 -21/-30/-47 -33/-38/-47 
f -19/-28/-12 -18/-27/-12 -33/-38/-12 
f -19/-28/-16 -33/-38/-16 -27/-39/-16 
f -54/-69/-47 -19/-28/-47 -27/-39/-47 
f -73/-88/-51 -17/-26/-51 -16/-25/-51 
f -72/-87/-51 -73/-88/-51 -16/-25/-51 
f -72/-87/-51 -16/-25/-51 -15/-24/-51 
f -43/-23/-11 -72/-87/-11 -15/-24/-11 
f -47/-60/-11 -43/-23/-11 -15/-24/-11 
f -50/-63/-51 -47/-60/-51 -15/-24/-51 
f -50/-63/-51 -15/-24/-51 -14/-22/-51 
usemtl roof
f -62/-80/-10 -60/-81/-10 -65/-21/-10 
f -65/-21/-10 -66/-20/-10 -62/-80/-10 
f -41/-21/-9 -42/-20/-9 -36/-80/-9 
f -36/-80/-9 -38/-81/-9 -41/-21/-9 
usemtl chimney
f -13/-19/-8 -12/-18/-8 -11/-17/-8 
f -11/-17/-8 -10/-16/-8 -13/-19/-8 
f -9/-16/-15 -8/-19/-15 -7/-18/-15 
f -7/-18/-7 -6/-17/-7 -9/-16/-7 
f -12/-19/-29 -8/-18/-29 -9/-17/-29 
f -9/-17/-29 -11/-16/-29 -12/-19/-29 
f -10/-17/-51 -6/-16/-51 -7/-19/-51 
f -7/-19/-51 -13/-18/-51 -10/-17/-51 
f -5/-15/-43 -12/-18/-43 -13/-19/-43 
f -13/-19/-43 -4/-14/-43 -5/-15/-43 
f -3/-15/-43 -7/-18/-43 -8/-19/-43 
f -8/-19/-43 -2/-14/-43 -3/-15/-43 
f -2/-15/-43 -8/-18/-43 -12/-19/-43 
f -12/-19/-43 -5/-14/-43 -2/-15/-43 
f -4/-15/-43 -13/-18/-43 -7/-19/-43 
f -7/-19/-43 -3/-14/-43 -4/-15/-43 
f -5/-15/-6 -4/-14/-6 -1/-13/-6 
f -3/-15/-5 -2/-14/-5 -1/-13/-5 
f -2/-15/-4 -5/-14/-4 -1/-13/-4 
f -4/-15/-3 -3/-14/-3 -1/-13/-3 
usemtl door
f -28/-12/-16 -26/-11/-16 -31/-10/-16 
f -31/-10/-2 -29/-9/-2 -28/-12/-2 
f -25/-8/-16 -23/-7/-16 -22/-6/-16 
f -22/-6/-16 -24/-5/-16 -25/-8/-16 
f -19/-8/-16 -20/-7/-16 -21/-6/-16 
f -21/-6/-16 -18/-5/-16 -19/-8/-16 
f -46/-4/-51 -48/-3/-51 -49/-2/-51 
f -49/-2/-51 -45/-1/-51 -46/-4/-51 
f -15/-4/-11 -16/-3/-11 -17/-2/-11 
f -17/-2/-11 -14/-1/-11 -15/-4/-11 
usemtl roof
f -88/-107/-20 -89/-108/-20 -58/-45/-20 
f -58/-45/-20 -32/-46/-20 -88/-107/-20 
f -87/-106/-33 -69/-105/-33 -71/-55/-33 
f -87/-106/-1 -71/-55/-1 -72/-56/-1 
f -87/-106/-43 -72/-56/-43 -43/-54/-43 
f -68/-108/-59 -69/-105/-59 -87/-106/-59 
f -87/-106/-59 -88/-107/-59 -68/-108/-59 
# 152 faces

