# 3ds Max Wavefront OBJ Exporter v0.97b - (c)2007 guruware
# File Created: 17.08.2011 16:37:52

mtllib Toom-Kooli_5_2-origo.mtl

#
# object Toom_Kooli_5_2
#

v  541894.154999 6588925.80957 46.201004
v  541887.171722 6588924.650085 46.704147
v  541878.574585 6588924.261841 50.389072
v  541879.713654 6588916.004868 50.389133
v  541887.171722 6588924.650085 44.179062
v  541878.574585 6588924.261841 44.179058
v  541879.713654 6588916.004868 44.179119
v  541885.8638 6588924.657425 47.079155
v  541885.8638 6588924.657425 46.390099
v  541887.126587 6588925.649078 47.214642
v  541887.126587 6588925.649063 46.201004
v  541885.737396 6588925.654968 47.576977
v  541885.737427 6588925.654968 46.390099
v  541894.15387 6588924.809647 47.219536
v  541894.15387 6588924.809616 46.090378
v  541894.154968 6588925.809586 47.219540
v  541887.171692 6588924.650085 47.214874
v  541885.86377 6588924.657425 47.576302
v  541885.79599 6588925.192535 47.842777
v  541894.154358 6588925.251419 47.485653
v  541887.148285 6588925.168579 47.480865
v  541884.775757 6588916.308075 48.152775
v  541884.761719 6588916.545975 48.142395
v  541888.026733 6588916.763184 46.704147
v  541888.026733 6588916.763184 44.179062
v  541884.775818 6588916.30806 44.182789
v  541884.761719 6588916.545959 44.172409
v  541894.154358 6588925.251419 46.155838
v  541894.154968 6588925.809586 46.201004
# 29 vertices

vn -0.054190 0.998531 0.000000
vn -0.054190 0.998531 0.000000
vn -0.054190 0.998531 0.000000
vn -0.054190 0.998531 0.000000
vn -0.054190 0.998531 0.000000
vn -0.054190 0.998531 0.000000
vn -0.990618 -0.136658 0.000000
vn -0.990618 -0.136658 0.000000
vn -0.990618 -0.136658 0.000000
vn -0.990618 -0.136658 0.000000
vn -0.990618 -0.136658 0.000000
vn -0.990618 -0.136658 0.000000
vn 0.004236 0.999991 -0.000015
vn 0.004236 0.999991 -0.000015
vn 0.004236 0.999991 -0.000015
vn 0.004251 0.999991 0.000000
vn 0.004251 0.999991 0.000000
vn 0.004251 0.999991 0.000000
vn -0.992067 -0.125710 0.000000
vn -0.992067 -0.125710 0.000000
vn -0.992067 -0.125710 0.000000
vn -0.992071 -0.125680 -0.000026
vn -0.992071 -0.125680 -0.000026
vn -0.992071 -0.125680 -0.000026
vn 0.022842 -0.999739 0.000000
vn 0.022842 -0.999739 0.000000
vn 0.022842 -0.999739 0.000000
vn 0.022845 -0.999739 0.000027
vn 0.022845 -0.999739 0.000027
vn 0.022845 -0.999739 0.000027
vn -0.022831 0.999739 -0.000015
vn -0.022831 0.999739 -0.000015
vn -0.022831 0.999739 -0.000015
vn -0.022831 0.999739 -0.000016
vn -0.022831 0.999739 -0.000016
vn -0.022831 0.999739 -0.000016
vn -0.005612 -0.999984 -0.000000
vn -0.005612 -0.999984 -0.000000
vn -0.005612 -0.999984 -0.000000
vn -0.005612 -0.999984 -0.000000
vn -0.005612 -0.999984 -0.000000
vn -0.005612 -0.999984 -0.000000
vn -0.992077 -0.125631 -0.000061
vn -0.992077 -0.125631 -0.000061
vn -0.992077 -0.125631 -0.000061
vn 0.022847 -0.999739 0.000001
vn 0.022847 -0.999739 0.000001
vn 0.022847 -0.999739 0.000001
vn -0.992068 -0.125706 -0.000007
vn -0.992068 -0.125706 -0.000007
vn -0.992068 -0.125706 -0.000007
vn 0.234827 0.479181 0.845720
vn 0.234827 0.479181 0.845720
vn 0.234827 0.479181 0.845720
vn 0.219560 0.506935 0.833553
vn 0.219560 0.506935 0.833553
vn 0.219560 0.506935 0.833553
vn 0.011220 -0.515974 0.856531
vn 0.011220 -0.515974 0.856531
vn 0.011220 -0.515974 0.856531
vn 0.241051 -0.407987 0.880592
vn 0.241051 -0.407987 0.880592
vn 0.241051 -0.407987 0.880592
vn -0.010457 0.430341 0.902606
vn -0.010457 0.430341 0.902606
vn -0.010457 0.430341 0.902606
vn -0.006325 0.484413 0.874817
vn -0.006325 0.484413 0.874817
vn -0.006325 0.484413 0.874817
vn 0.225357 -0.436634 0.870956
vn 0.225357 -0.436634 0.870956
vn 0.225357 -0.436634 0.870956
vn 0.004787 -0.456272 0.889827
vn 0.004787 -0.456272 0.889827
vn 0.004787 -0.456272 0.889827
vn 0.994175 0.107777 0.000000
vn 0.994175 0.107777 0.000000
vn 0.994175 0.107777 0.000000
vn 0.994175 0.107777 0.000000
vn 0.994175 0.107777 0.000000
vn 0.994175 0.107777 0.000000
vn 0.059787 -0.998211 0.000005
vn 0.059787 -0.998211 0.000005
vn 0.059787 -0.998211 0.000005
vn 0.059790 -0.998211 0.000000
vn 0.059790 -0.998211 0.000000
vn 0.059790 -0.998211 0.000000
vn 0.998264 0.058906 -0.000000
vn 0.998264 0.058906 -0.000000
vn 0.998264 0.058906 -0.000000
vn 0.998248 0.059162 0.000015
vn 0.998248 0.059162 0.000015
vn 0.998248 0.059162 0.000015
vn 0.066379 -0.997794 0.000000
vn 0.066379 -0.997794 0.000000
vn 0.066379 -0.997794 0.000000
vn 0.066384 -0.997794 0.000004
vn 0.066384 -0.997794 0.000004
vn 0.066384 -0.997794 0.000004
vn 0.999999 -0.001105 0.000000
vn 0.999999 -0.001105 0.000000
vn 0.999999 -0.001105 0.000000
vn 0.999999 -0.001105 0.000000
vn 0.999999 -0.001105 0.000000
vn 0.999999 -0.001105 0.000000
vn 0.999999 -0.001093 0.000000
vn 0.999999 -0.001093 0.000000
vn 0.999999 -0.001093 0.000000
vn 0.999999 -0.001093 0.000000
vn 0.999999 -0.001093 0.000000
vn 0.999999 -0.001093 0.000000
vn 0.385642 0.061931 0.920568
vn 0.275647 0.029883 0.960794
vn 0.352640 0.049850 0.934430
vn 0.401012 0.055544 0.914387
vn 0.400105 0.063500 0.914267
vn 0.401680 0.062482 0.913646
vn 0.406386 0.060403 0.911703
vn 0.401012 0.055544 0.914387
vn 0.401680 0.062482 0.913646
vn 0.352640 0.049850 0.934430
vn 0.406386 0.060403 0.911703
vn 0.401680 0.062482 0.913646
vn 0.385642 0.061931 0.920568
vn 0.352640 0.049850 0.934430
vn 0.401680 0.062482 0.913646
# 126 vertex normals

vt 2.435930 -1.642370 0.000500
vt 2.831041 2.642371 0.956117
vt -1.336545 2.642342 0.956132
vt 2.435931 -1.642350 -0.654311
vt 2.831042 2.642422 -0.654276
vt -1.336545 2.642392 -0.654260
vt 2.528929 -0.995048 0.097752
vt 2.528932 -0.995029 -0.654305
vt 2.933818 -1.688286 0.132881
vt 2.933818 -1.688280 -0.129978
vt 3.031659 -1.000610 0.226848
vt 3.031661 -1.000611 -0.080935
vt 2.037892 -5.111603 0.134122
vt 2.037883 -5.111577 -0.654340
vt 2.533100 -5.180479 0.134122
vt 2.533090 -5.180474 -0.130007
vt 2.435934 -1.642366 0.132942
vt 2.528934 -0.995048 0.226674
vt 2.798605 -0.998033 0.295776
vt -0.937493 0.726664 0.000427
vt -1.631960 0.740523 0.576672
vt 2.569114 0.251812 0.008216
vt 2.577526 0.751716 0.008221
vt -0.922793 0.226882 0.000798
vt -1.576613 0.240822 0.575601
vt -1.606302 0.508871 0.999392
vt 2.572830 0.472666 0.431434
vt -0.930423 0.486281 0.423822
vt 2.435930 -1.642370 0.000500
vt 2.831041 2.642371 0.956117
vt -1.336545 2.642342 0.956132
vt 2.528929 -0.995048 0.097752
vt -1.532050 0.116777 0.376733
vt -1.411721 0.106272 0.373624
vt -1.528949 -1.526983 0.000500
vt -1.659001 -1.523198 0.000500
vt 2.435930 -1.642370 0.000500
vt -1.659001 -1.523177 -0.654310
vt 2.435931 -1.642350 -0.654311
vt -1.659001 -1.523198 0.000500
vt -1.336545 2.642342 0.956132
vt -1.659001 -1.523177 -0.654310
vt -1.336545 2.642392 -0.654260
vt -1.659001 -1.523177 -0.654310
vt -1.659001 -1.523198 0.000500
vt -1.659001 -1.523177 -0.654310
vt -1.659001 -1.523198 0.000500
vt 2.569114 0.251812 0.008216
vt 2.572830 0.472666 0.431434
vt 2.577526 0.751716 0.008221
vt 2.435930 -1.642370 0.000500
vt 2.831041 2.642371 0.956117
vt -1.336545 2.642342 0.956132
vt 2.528929 -0.995048 0.097752
vt -1.532050 0.116777 0.376733
vt -1.411721 0.106272 0.373624
vt -1.528949 -1.526983 0.000500
# 57 texture coords

g Toom_Kooli_5_2
usemtl xxxx
s off
f -21/-50/-126 -24/-53/-125 -27/-56/-124 
f -27/-56/-123 -22/-51/-122 -21/-50/-121 
f -24/-53/-120 -23/-52/-119 -26/-55/-118 
f -26/-55/-117 -27/-56/-116 -24/-53/-115 
f -18/-47/-114 -20/-49/-113 -19/-48/-112 
f -17/-46/-111 -18/-47/-110 -19/-48/-109 
f -21/-50/-108 -22/-51/-107 -18/-47/-106 
f -18/-47/-105 -17/-46/-104 -21/-50/-103 
usemtl TK_5_roosa
f -28/-57/-102 -25/-54/-101 -15/-44/-100 
f -15/-44/-99 -16/-45/-98 -28/-57/-97 
usemtl xxxx
f -19/-48/-96 -20/-49/-95 -14/-43/-94 
f -14/-43/-93 -29/-42/-92 -19/-48/-91 
usemtl TK_5_roosa
f -22/-51/-90 -28/-57/-89 -13/-41/-88 
f -13/-41/-87 -12/-40/-86 -22/-51/-85 
usemtl xxxx
f -11/-39/-84 -22/-51/-83 -12/-40/-82 
usemtl TK_5_roosa
f -16/-45/-81 -13/-41/-80 -28/-57/-79 
usemtl xxxx
f -18/-47/-78 -22/-51/-77 -11/-39/-76 
usemtl TK5_katus
f -11/-32/-75 -9/-30/-74 -20/-38/-73 
f -20/-38/-72 -18/-37/-71 -11/-32/-70 
f -10/-31/-69 -13/-34/-68 -16/-36/-67 
f -12/-33/-66 -13/-34/-65 -11/-32/-64 
f -10/-31/-63 -14/-35/-62 -20/-38/-61 
f -20/-38/-60 -9/-30/-59 -10/-31/-58 
f -11/-32/-57 -13/-34/-56 -9/-30/-55 
f -9/-30/-54 -13/-34/-53 -10/-31/-52 
usemtl TK_5_roosa
f -28/-21/-51 -6/-22/-50 -5/-20/-49 
f -5/-20/-48 -25/-19/-47 -28/-21/-46 
usemtl xxxx
f -23/-15/-45 -4/-16/-44 -8/-18/-43 
f -8/-18/-42 -26/-17/-41 -23/-15/-40 
f -3/-14/-39 -7/-13/-38 -8/-18/-37 
f -8/-18/-36 -4/-16/-35 -3/-14/-34 
f -5/-12/-33 -6/-11/-32 -7/-13/-31 
f -7/-13/-30 -3/-14/-29 -5/-12/-28 
f -15/-10/-27 -2/-9/-26 -10/-31/-25 
f -10/-31/-24 -16/-36/-23 -15/-10/-22 
f -2/-9/-21 -1/-8/-20 -14/-35/-19 
f -14/-35/-18 -10/-31/-17 -2/-9/-16 
usemtl TK_5_plekk_katus
s 1
f -6/-1/-15 -28/-7/-14 -22/-4/-13 
f -26/-5/-12 -8/-3/-11 -7/-2/-10 
f -27/-6/-9 -26/-5/-8 -7/-2/-7 
f -22/-4/-6 -27/-6/-5 -7/-2/-4 
f -6/-1/-3 -22/-4/-2 -7/-2/-1 
# 42 faces

