# 3ds Max Wavefront OBJ Exporter v0.97b - (c)2007 guruware
# File Created: 20.10.2011 18:10:28

mtllib Myyrivahe_52-origo.mtl

#
# object myv_52
#

v  542536.7643 6589149.499 8.4455
v  542536.7643 6589149.4991 8.7634
v  542538.0016 6589149.608 8.7634
v  542536.7643 6589149.4991 6.2725
v  542538.0017 6589149.6079 8.2955
v  542538.0016 6589149.608 6.4225
v  542538.0016 6589149.6079 5.9164
v  542536.7643 6589149.499 5.9164
v  542540.7879 6589149.8532 5.9164
v  542539.5077 6589149.7405 5.9164
v  542539.5077 6589149.7405 6.4225
v  542540.7878 6589149.8532 8.7634
v  542539.5077 6589149.7405 8.2955
v  542539.5077 6589149.7405 8.7634
v  542537.699 6589128.7549 6.2725
v  542537.7614 6589126.8864 6.2725
v  542537.7614 6589126.8864 8.4455
v  542537.699 6589128.7549 8.4455
v  542538.58 6589106.7238 8.7634
v  542538.5351 6589107.3237 8.7634
v  542538.5351 6589107.3237 8.4455
v  542538.5351 6589107.3237 6.2725
v  542538.5351 6589107.3237 5.9191
v  542538.58 6589106.7238 5.9191
v  542538.2005 6589114.5272 7.7382
v  542538.2005 6589114.5272 6.6882
v  542538.274 6589112.7724 6.2725
v  542538.274 6589112.7724 8.4455
v  542538.0638 6589118.0623 8.4455
v  542538.0233 6589119.1793 8.4455
v  542538.0233 6589119.1793 6.2725
v  542538.0639 6589118.0623 5.9189
v  542537.9238 6589122.0297 6.2725
v  542537.968 6589120.7433 6.2725
v  542537.968 6589120.7433 8.4455
v  542537.9238 6589122.0297 8.4455
v  542537.8119 6589125.3657 6.2725
v  542537.8715 6589123.5787 6.2725
v  542537.8715 6589123.5787 8.4455
v  542537.8119 6589125.3657 8.4455
v  542536.8501 6589148.1357 8.4455
v  542536.8501 6589148.1357 6.2725
v  542537.0046 6589145.4681 5.9164
v  542537.0047 6589145.4681 8.2164
v  542536.9361 6589146.6872 6.2725
v  542536.9361 6589146.6872 5.9164
v  542536.9361 6589146.6872 8.4455
v  542537.0952 6589143.7572 5.9163
v  542537.1104 6589143.4523 5.9163
v  542537.1646 6589142.3634 6.2321
v  542537.1646 6589142.3634 8.4437
v  542537.0952 6589143.7572 8.2164
v  542537.3524 6589138.1789 5.9164
v  542537.3524 6589138.1789 8.4455
v  542537.233 6589140.913 6.2321
v  542537.3048 6589139.2694 5.9164
v  542537.233 6589140.913 8.4437
v  542537.405 6589136.8875 5.9164
v  542537.4306 6589136.2303 5.9164
v  542537.474 6589135.1129 6.2725
v  542537.474 6589135.1129 8.4455
v  542537.405 6589136.8875 8.4455
v  542537.5604 6589132.766 8.4455
v  542537.5262 6589133.7116 8.4455
v  542537.5262 6589133.7116 6.2725
v  542537.5604 6589132.766 6.2725
v  542537.6506 6589130.1843 8.4455
v  542537.6115 6589131.3174 8.4455
v  542537.6115 6589131.3174 6.2725
v  542537.6505 6589130.1843 6.2725
v  542537.7614 6589126.8864 8.7634
v  542537.699 6589128.7549 8.7634
v  542537.699 6589128.7549 5.9164
v  542537.7614 6589126.8864 5.9164
v  542538.4531 6589108.9148 8.4455
v  542538.4531 6589108.9148 8.7634
v  542538.4328 6589109.3257 8.4455
v  542538.4328 6589109.3257 8.7634
v  542538.3645 6589110.754 8.4455
v  542538.3645 6589110.754 8.7634
v  542538.3459 6589111.158 6.2725
v  542538.3459 6589111.158 5.9191
v  542538.3645 6589110.754 5.9185
v  542538.3459 6589111.158 8.4455
v  542538.3459 6589111.158 8.7634
v  542538.274 6589112.7724 8.7634
v  542538.274 6589112.7724 5.9191
v  542538.1979 6589114.5892 8.7634
v  542538.1979 6589114.5892 5.9191
v  542538.1735 6589115.195 8.7634
v  542538.1725 6589115.2232 7.7382
v  542538.1501 6589115.7891 8.4455
v  542538.1501 6589115.7891 8.7634
v  542538.0638 6589118.0623 8.7634
v  542538.0233 6589119.1794 8.7634
v  542538.0233 6589119.1793 5.9164
v  542537.968 6589120.7433 8.7634
v  542537.9681 6589120.7433 5.9164
v  542537.9238 6589122.0297 8.7634
v  542537.9238 6589122.0297 5.9164
v  542537.8715 6589123.5787 8.7634
v  542537.8715 6589123.5787 5.9164
v  542537.8119 6589125.3657 8.7634
v  542537.8119 6589125.3657 5.9164
v  542536.8501 6589148.1357 5.9164
v  542536.8501 6589148.1357 8.7634
v  542536.9361 6589146.6872 8.7634
v  542537.0046 6589145.4681 8.7634
v  542537.0952 6589143.7573 8.7634
v  542537.1646 6589142.3634 8.7634
v  542537.1646 6589142.3634 5.9164
v  542537.233 6589140.913 5.9164
v  542537.233 6589140.913 8.7634
v  542537.3524 6589138.1789 8.7634
v  542537.405 6589136.8875 8.7634
v  542537.474 6589135.1129 8.7634
v  542537.474 6589135.1129 5.9164
v  542537.5262 6589133.7116 5.9164
v  542537.5262 6589133.7116 8.7634
v  542537.5604 6589132.766 5.9164
v  542537.5604 6589132.766 8.7634
v  542537.6115 6589131.3174 5.9164
v  542537.6115 6589131.3174 8.7634
v  542537.6505 6589130.1843 5.9164
v  542537.6506 6589130.1843 8.7634
v  542538.1501 6589115.7891 5.9191
v  542538.1725 6589115.2232 6.6882
v  542538.4531 6589108.9148 5.9191
v  542538.4531 6589108.9148 6.2725
v  542538.4328 6589109.3257 5.9191
v  542538.1736 6589115.195 5.9191
v  542538.5272 6589107.4735 8.2955
v  542538.5272 6589107.4735 6.4225
v  542538.4606 6589108.765 8.2955
v  542538.4606 6589108.765 6.4225
v  542538.3459 6589111.158 7.7211
v  542538.339 6589111.3078 8.2955
v  542538.3459 6589111.158 7.5747
v  542538.339 6589111.3078 6.4225
v  542538.2806 6589112.6225 8.2955
v  542538.2806 6589112.6225 6.4225
v  542538.1944 6589114.6771 7.5882
v  542538.1944 6589114.6771 6.8382
v  542538.1785 6589115.0734 7.5882
v  542538.1785 6589115.0734 6.8382
v  542538.0179 6589119.3293 8.2955
v  542538.0179 6589119.3293 6.4225
v  542537.9733 6589120.5934 8.2955
v  542537.9733 6589120.5934 6.4225
v  542537.9187 6589122.1797 8.2955
v  542537.9187 6589122.1797 6.4225
v  542537.8765 6589123.4288 8.2955
v  542537.8765 6589123.4288 6.4225
v  542537.8069 6589125.5157 8.2955
v  542537.8069 6589125.5157 6.4225
v  542537.7664 6589126.7364 8.2955
v  542537.7664 6589126.7364 6.4225
v  542536.8592 6589147.9859 6.4225
v  542536.8592 6589147.9859 8.2955
v  542536.9274 6589146.837 6.4225
v  542536.9275 6589146.837 8.2955
v  542537.0129 6589145.3183 5.8279
v  542537.0128 6589145.3183 5.9786
v  542537.0047 6589145.4681 5.8279
v  542537.0129 6589145.3183 8.0638
v  542537.0876 6589143.9071 8.0662
v  542537.1719 6589142.2136 6.3821
v  542537.1719 6589142.2136 8.2937
v  542537.2261 6589141.0629 6.3821
v  542537.2261 6589141.0629 8.2937
v  542537.3524 6589138.1789 5.7069
v  542537.3587 6589138.029 5.7069
v  542537.3587 6589138.029 8.2955
v  542537.399 6589137.0374 8.2955
v  542537.4797 6589134.963 6.4225
v  542537.4797 6589134.963 8.2955
v  542537.5207 6589133.8615 6.4225
v  542537.5207 6589133.8615 8.2955
v  542537.5658 6589132.6161 6.4225
v  542537.5658 6589132.6161 8.2955
v  542537.6063 6589131.4673 6.4225
v  542537.6063 6589131.4673 8.2955
v  542537.6557 6589130.0344 6.4225
v  542537.6557 6589130.0344 8.2955
v  542537.6939 6589128.9048 6.4225
v  542537.6939 6589128.9048 8.2955
v  542538.3715 6589110.6042 8.2955
v  542538.4254 6589109.4755 8.2955
v  542538.3646 6589110.754 5.4790
v  542538.3716 6589110.6042 5.4790
v  542538.3645 6589110.754 7.5747
v  542538.3645 6589110.754 7.7211
v  542538.0694 6589117.9124 8.2955
v  542538.1442 6589115.939 8.2955
v  542538.0639 6589118.0623 5.5378
v  542538.0694 6589117.9124 5.5378
v  542538.0694 6589117.9124 5.7646
v  542538.627 6589107.4777 8.2955
v  542538.627 6589107.4777 6.4225
v  542538.5605 6589108.7692 8.2955
v  542538.5605 6589108.7692 6.4225
v  542538.5253 6589109.4797 8.2955
v  542538.5254 6589109.4797 5.4790
v  542538.4255 6589109.4755 5.4790
v  542538.4714 6589110.6084 8.2955
v  542538.4714 6589110.6084 5.4790
v  542538.4389 6589111.312 8.2955
v  542538.4389 6589111.312 6.4225
v  542538.3805 6589112.6267 8.2955
v  542538.3805 6589112.6267 6.4225
v  542538.2943 6589114.6813 7.5882
v  542538.2943 6589114.6813 6.8382
v  542538.2784 6589115.0776 7.5882
v  542538.2784 6589115.0776 6.8382
v  542538.1178 6589119.3335 8.2955
v  542538.1178 6589119.3335 6.4225
v  542538.0732 6589120.5976 8.2955
v  542538.0732 6589120.5976 6.4225
v  542538.0186 6589122.1839 8.2955
v  542538.0186 6589122.1839 6.4225
v  542537.9764 6589123.433 8.2955
v  542537.9764 6589123.433 6.4225
v  542537.9068 6589125.5199 8.2955
v  542537.9068 6589125.5199 6.4225
v  542537.8663 6589126.7407 8.2955
v  542537.8663 6589126.7407 6.4225
v  542536.9591 6589147.9902 6.4225
v  542536.9591 6589147.9902 8.2955
v  542537.0273 6589146.8412 8.2955
v  542537.0273 6589146.8412 6.4225
v  542537.2718 6589142.2178 6.3821
v  542537.2718 6589142.2178 8.2937
v  542537.326 6589141.0671 8.2937
v  542537.326 6589141.0671 6.3821
v  542537.5797 6589134.9672 6.4225
v  542537.5797 6589134.9672 8.2955
v  542537.6206 6589133.8657 8.2955
v  542537.6206 6589133.8657 6.4225
v  542537.6657 6589132.6203 6.4225
v  542537.6657 6589132.6203 8.2955
v  542537.7062 6589131.4715 8.2955
v  542537.7062 6589131.4715 6.4225
v  542537.7556 6589130.0386 6.4225
v  542537.7556 6589130.0386 8.2955
v  542537.7939 6589128.9091 8.2955
v  542537.7939 6589128.9091 6.4225
v  542537.405 6589136.8875 5.7069
v  542537.3991 6589137.0374 5.7069
v  542537.0952 6589143.7572 5.8279
v  542537.0876 6589143.9071 5.9786
v  542537.0876 6589143.9071 5.8279
v  542538.1501 6589115.7891 5.5378
v  542538.1442 6589115.9389 5.7646
v  542538.1442 6589115.939 5.5378
v  542538.4328 6589109.3257 5.4790
v  542538.2441 6589115.9432 8.2955
v  542538.2441 6589115.9432 5.7646
v  542538.1693 6589117.9167 8.2955
v  542538.1693 6589117.9167 5.7646
v  542538.1693 6589117.9166 5.5378
v  542538.2442 6589115.9432 5.5378
v  542537.1127 6589145.3225 5.9786
v  542537.1127 6589145.3225 8.0638
v  542537.1127 6589145.3225 5.8279
v  542537.1874 6589143.9113 5.9786
v  542537.1874 6589143.9113 5.8279
v  542537.1874 6589143.9113 8.0662
v  542537.4586 6589138.0332 5.7069
v  542537.4586 6589138.0333 8.2955
v  542537.499 6589137.0416 8.2955
v  542537.4991 6589137.0416 5.7069
v  542538.1508 6589149.6211 8.2392
v  542538.1508 6589149.6211 6.5155
v  542539.3586 6589149.7274 8.2392
v  542539.3586 6589149.7274 6.5155
v  542538.1674 6589149.4718 8.2392
v  542538.1673 6589149.4718 6.5155
v  542539.3751 6589149.5781 8.2392
v  542539.3751 6589149.5781 6.5155
v  542537.1849 6589143.9612 8.0161
v  542537.1849 6589143.9612 5.9786
v  542537.1155 6589145.2726 8.0139
v  542537.1155 6589145.2726 5.9786
v  542537.3846 6589143.9697 8.0161
v  542537.3846 6589143.9697 5.9786
v  542537.3152 6589145.2811 8.0139
v  542537.3152 6589145.281 5.9786
v  542536.3543 6589149.4614 8.7633
v  542536.3543 6589149.4614 8.9633
v  542540.7878 6589149.8532 8.9634
v  542540.7878 6589149.8532 13.1547
v  542538.1551 6589106.7215 8.7633
v  542538.1551 6589106.7215 8.9633
v  542538.0524 6589106.7172 9.0726
v  542536.2517 6589149.4571 9.0726
v  542540.7879 6589149.8532 13.3436
v  542538.4328 6589109.3257 5.0834
v  542538.4531 6589108.9148 5.0834
v  542538.5351 6589107.3237 5.0834
v  542538.58 6589106.7238 5.0834
v  542538.1735 6589115.195 5.0834
v  542538.1979 6589114.5892 5.0834
v  542539.5077 6589149.7405 5.0834
v  542538.0016 6589149.608 5.0834
v  542536.7643 6589149.4991 5.0834
v  542536.8501 6589148.1357 5.0834
v  542536.9361 6589146.6872 5.0834
v  542537.0046 6589145.4681 5.0834
v  542537.1646 6589142.3634 5.0834
v  542537.0952 6589143.7573 5.5843
v  542537.0952 6589143.7573 5.0834
v  542537.233 6589140.913 5.0834
v  542537.3524 6589138.1789 5.0834
v  542537.3524 6589138.1789 5.5843
v  542537.474 6589135.1129 5.0834
v  542537.405 6589136.8875 5.5843
v  542537.405 6589136.8875 5.0834
v  542537.5262 6589133.7116 5.0834
v  542537.5604 6589132.766 5.0834
v  542537.6115 6589131.3174 5.0834
v  542537.6505 6589130.1843 5.0834
v  542537.699 6589128.7549 5.0834
v  542537.7614 6589126.8864 5.0834
v  542537.8119 6589125.3657 5.0834
v  542537.8715 6589123.5787 5.0834
v  542537.9238 6589122.0297 5.0834
v  542537.968 6589120.7433 5.0834
v  542538.0233 6589119.1794 5.0834
v  542538.274 6589112.7724 5.0834
v  542538.3459 6589111.158 5.0834
v  542538.3645 6589110.754 5.0834
v  542538.1501 6589115.7891 5.0834
v  542538.0638 6589118.0623 5.0834
v  542540.7878 6589149.8532 5.0834
v  542538.6755 6589106.7179 9.6472
v  542543.43 6589106.7238 14.0315
v  542537.6475 6589142.0726 10.8600
v  542540.0895 6589142.176 12.1235
v  542540.0157 6589143.6672 12.1235
v  542537.5739 6589143.5638 10.8600
v  542537.8835 6589143.4237 10.3332
v  542537.8835 6589143.4237 10.2533
v  542537.942 6589142.2383 10.2533
v  542537.942 6589142.2383 10.3332
v  542540.0145 6589142.326 10.2533
v  542540.0145 6589142.326 11.9216
v  542537.942 6589142.2383 10.8452
v  542539.9558 6589143.5114 10.2533
v  542537.8835 6589143.4237 10.8452
v  542539.9558 6589143.5114 11.9216
v  542540.3705 6589134.3119 12.0923
v  542540.3141 6589135.8039 12.0923
v  542537.871 6589135.7005 10.8287
v  542537.9273 6589134.2085 10.8287
v  542538.179 6589135.5603 10.3020
v  542538.179 6589135.5603 10.2221
v  542538.2237 6589134.3743 10.2221
v  542538.2237 6589134.3743 10.3020
v  542540.2971 6589134.4621 10.2221
v  542540.2971 6589134.4621 11.8904
v  542538.2237 6589134.3743 10.8139
v  542540.2522 6589135.6481 10.2221
v  542538.179 6589135.5603 10.8139
v  542540.2522 6589135.6481 11.8904
v  542538.0359 6589128.4015 10.7319
v  542538.0857 6589126.9092 10.7319
v  542540.5292 6589127.0127 11.9955
v  542540.4795 6589128.5049 11.9955
v  542538.3431 6589128.2612 10.2052
v  542538.3431 6589128.2612 10.1253
v  542538.3827 6589127.075 10.1253
v  542538.3826 6589127.075 10.2052
v  542540.4563 6589127.1628 10.1253
v  542540.4563 6589127.1628 11.7936
v  542538.3826 6589127.075 10.7172
v  542540.4168 6589128.349 10.1253
v  542538.3431 6589128.2612 10.7172
v  542540.4168 6589128.349 11.7936
v  542538.3486 6589120.4269 10.6645
v  542538.4016 6589118.9347 10.6645
v  542540.8449 6589119.0382 11.9281
v  542540.7921 6589120.5303 11.9281
v  542538.6561 6589120.2866 10.1378
v  542538.6561 6589120.2866 10.0579
v  542538.6982 6589119.1005 10.0579
v  542538.6982 6589119.1005 10.1378
v  542540.7716 6589119.1883 10.0579
v  542540.7716 6589119.1883 11.7262
v  542538.6982 6589119.1005 10.6498
v  542540.7296 6589120.3744 10.0579
v  542538.6561 6589120.2866 10.6498
v  542540.7296 6589120.3744 11.7262
v  542541.0529 6589112.1513 11.8365
v  542540.9888 6589113.6429 11.8365
v  542538.5461 6589113.5395 10.5729
v  542538.6104 6589112.0479 10.5729
v  542538.8544 6589113.3993 10.0462
v  542538.8544 6589113.3993 9.9663
v  542538.9056 6589112.2136 9.9663
v  542538.9056 6589112.2136 10.0462
v  542540.9785 6589112.3014 9.9663
v  542540.9785 6589112.3014 11.6346
v  542538.9056 6589112.2136 10.5581
v  542540.9275 6589113.4871 9.9663
v  542538.8544 6589113.3993 10.5581
v  542540.9275 6589113.4871 11.6346
v  542538.233 6589109.3161 5.0833
v  542538.233 6589109.3161 5.4789
v  542538.2257 6589109.466 5.4789
v  542538.1648 6589110.7445 5.0833
v  542538.1718 6589110.5946 5.4789
v  542538.1648 6589110.7445 5.4789
v  542537.9502 6589115.7815 5.0833
v  542537.9502 6589115.7815 5.5377
v  542537.9444 6589115.9314 5.5377
v  542537.864 6589118.0547 5.0833
v  542537.8695 6589117.9048 5.5377
v  542537.864 6589118.0548 5.5377
v  542537.2052 6589136.8794 5.5843
v  542537.2052 6589136.8794 5.7069
v  542537.1993 6589137.0292 5.7069
v  542537.1526 6589138.1708 5.5843
v  542537.1588 6589138.0209 5.7069
v  542537.1526 6589138.1708 5.7069
v  542537.1526 6589138.1708 5.0834
v  542537.2052 6589136.8794 5.0834
v  542536.8049 6589145.4575 5.5845
v  542536.8049 6589145.4575 5.8281
v  542537.0046 6589145.4681 5.5843
v  542536.8955 6589143.7467 5.8281
v  542536.8955 6589143.7467 5.5844
v  542536.8878 6589143.8965 5.8281
v  542536.8132 6589145.3077 5.8281
v  542536.8955 6589143.7467 5.0834
v  542536.8049 6589145.4575 5.0834
v  542536.8873 6589143.8965 5.5843
v  542536.8128 6589145.3077 5.5845
v  542538.6134 6589106.7217 8.9633
v  542538.6581 6589106.719 9.4556
v  542538.3611 6589110.8284 7.5747
v  542538.3493 6589111.0836 7.5747
v  542538.3493 6589111.0836 7.7211
v  542538.3611 6589110.8284 7.7211
v  542538.3511 6589110.8279 7.5747
v  542538.3393 6589111.0831 7.5747
v  542538.3511 6589110.8279 7.7211
v  542538.3393 6589111.0831 7.7211
v  542541.6214 6589128.1032 18.0729
v  542541.4218 6589128.0969 18.0729
v  542541.431 6589127.9582 18.0729
v  542541.6296 6589127.964 18.0729
v  542541.9816 6589127.7348 10.9140
v  542541.9814 6589127.7388 17.6791
v  542541.1061 6589127.7132 17.6791
v  542541.1064 6589127.7092 10.9140
v  542541.9448 6589128.3429 10.9140
v  542541.9445 6589128.3469 17.6791
v  542541.0696 6589128.3173 10.9140
v  542541.0693 6589128.3213 17.6791
v  542541.8123 6589127.847 17.9416
v  542541.7267 6589127.8439 17.9416
v  542541.7675 6589127.8298 17.9139
v  542541.7901 6589128.2304 17.9416
v  542541.7932 6589128.1762 17.9416
v  542541.8121 6589128.2043 17.9142
v  542541.2313 6589128.2189 17.9416
v  542541.235 6589128.1585 17.9416
v  542541.294 6589128.1197 17.9822
v  542541.129 6589128.2831 17.8104
v  542541.1332 6589128.2094 17.8104
v  542541.1411 6589128.2079 17.8213
v  542541.9051 6589127.8601 17.8213
v  542541.9193 6589127.7786 17.8104
v  542541.9134 6589127.8588 17.8113
v  542541.2558 6589127.8261 17.9416
v  542541.2517 6589127.8918 17.9416
v  542541.2321 6589127.8637 17.9142
v  542541.1552 6589127.8347 17.8113
v  542541.1591 6589127.7532 17.8104
v  542541.8853 6589128.3023 17.8104
v  542541.8898 6589128.2334 17.8104
v  542541.8086 6589127.9095 17.9416
v  542541.7649 6589127.9395 17.9730
v  542541.8821 6589128.2314 17.8213
v  542541.3346 6589128.028 18.0071
v  542541.3058 6589127.9341 17.9822
v  542541.2945 6589127.9253 17.9738
v  542541.2131 6589128.1852 17.9142
v  542541.832 6589127.8828 17.9142
v  542541.1631 6589127.8366 17.8213
v  542541.7412 6589128.134 17.9822
v  542541.752 6589127.9483 17.9822
v  542541.7133 6589128.0401 18.0071
v  542541.7014 6589128.2286 17.9416
v  542541.6458 6589128.1895 17.9819
v  542541.7749 6589128.2995 17.8104
v  542541.7402 6589128.2444 17.9139
v  542541.2703 6589127.7569 17.8104
v  542541.3049 6589127.8136 17.9139
v  542541.318 6589128.2207 17.9416
v  542541.2772 6589128.2336 17.9139
v  542541.2354 6589128.2858 17.8104
v  542541.8095 6589127.7749 17.8104
v  542541.3992 6589127.8701 17.9819
v  542541.3438 6589127.8295 17.9416
v  542541.5138 6589128.1627 18.0068
v  542541.3785 6589128.1832 17.9819
v  542541.5312 6589127.8984 18.0068
v  542541.6663 6589127.8795 17.9819
v  542541.7922 6589128.0372 17.8104
v  542541.2528 6589128.0214 17.8104
v  542541.3106 6589128.2377 17.8104
v  542541.7063 6589128.2477 17.8104
v  542541.3215 6589128.0734 17.8104
v  542541.717 6589128.085 17.8104
v  542541.7343 6589127.8224 17.8104
v  542541.3389 6589127.8092 17.8104
v  542541.7236 6589127.9851 17.8104
v  542541.328 6589127.9735 17.8104
v  542541.7343 6589127.8224 16.2071
v  542541.3389 6589127.8092 16.2071
v  542541.7236 6589127.9851 16.2071
v  542541.328 6589127.9735 16.2071
v  542541.3106 6589128.2377 16.2071
v  542541.7063 6589128.2477 16.2071
v  542541.3215 6589128.0734 16.2071
v  542541.717 6589128.085 16.2071
v  542541.1653 6589136.1658 19.4745
v  542541.3033 6589136.1716 19.4745
v  542541.2976 6589136.3108 19.4745
v  542541.159 6589136.3045 19.4745
v  542541.5479 6589135.9424 12.3156
v  542541.5477 6589135.9464 19.0807
v  542540.9396 6589135.9208 19.0807
v  542540.9398 6589135.9168 12.3156
v  542541.5223 6589136.5505 12.3156
v  542541.5221 6589136.5545 19.0807
v  542540.9142 6589136.5249 12.3156
v  542540.9141 6589136.5289 19.0807
v  542541.4302 6589136.0547 19.3432
v  542541.3708 6589136.0515 19.3432
v  542541.3991 6589136.0374 19.3155
v  542541.4148 6589136.438 19.3432
v  542541.4169 6589136.3838 19.3432
v  542541.4301 6589136.4119 19.3158
v  542541.0266 6589136.4265 19.3432
v  542541.0292 6589136.3661 19.3432
v  542541.0702 6589136.3273 19.3838
v  542540.9555 6589136.4907 19.2120
v  542540.9585 6589136.417 19.2120
v  542540.964 6589136.4155 19.2229
v  542541.4947 6589136.0678 19.2229
v  542541.5046 6589135.9862 19.2120
v  542541.5005 6589136.0664 19.2129
v  542541.0436 6589136.0338 19.3432
v  542541.0408 6589136.0994 19.3432
v  542541.0272 6589136.0713 19.3158
v  542540.9737 6589136.0423 19.2129
v  542540.9764 6589135.9608 19.2120
v  542541.481 6589136.5099 19.2120
v  542541.4841 6589136.4411 19.2120
v  542541.4277 6589136.1171 19.3432
v  542541.3973 6589136.1471 19.3746
v  542541.4787 6589136.4391 19.2229
v  542541.0983 6589136.2357 19.4087
v  542541.0783 6589136.1418 19.3838
v  542541.0705 6589136.1329 19.3754
v  542541.0139 6589136.3929 19.3158
v  542541.4439 6589136.0904 19.3158
v  542540.9792 6589136.0442 19.2229
v  542541.3809 6589136.3416 19.3838
v  542541.3884 6589136.1559 19.3838
v  542541.3615 6589136.2477 19.4087
v  542541.3531 6589136.4362 19.3432
v  542541.3146 6589136.3971 19.3835
v  542541.4042 6589136.5071 19.2120
v  542541.3802 6589136.452 19.3155
v  542541.0536 6589135.9645 19.2120
v  542541.0777 6589136.0212 19.3155
v  542541.0868 6589136.4283 19.3432
v  542541.0585 6589136.4412 19.3155
v  542541.0294 6589136.4934 19.2120
v  542541.4283 6589135.9825 19.2120
v  542541.1432 6589136.0777 19.3835
v  542541.1047 6589136.0371 19.3432
v  542541.2228 6589136.3703 19.4084
v  542541.1289 6589136.3908 19.3835
v  542541.2349 6589136.106 19.4084
v  542541.3288 6589136.0872 19.3835
v  542541.4163 6589136.2448 19.2120
v  542541.0416 6589136.229 19.2120
v  542541.0817 6589136.4453 19.2120
v  542541.3566 6589136.4553 19.2120
v  542541.0892 6589136.281 19.2120
v  542541.364 6589136.2926 19.2120
v  542541.376 6589136.03 19.2120
v  542541.1013 6589136.0169 19.2120
v  542541.3686 6589136.1927 19.2120
v  542541.0938 6589136.1811 19.2120
v  542541.376 6589136.03 17.6087
v  542541.1013 6589136.0169 17.6087
v  542541.3686 6589136.1927 17.6087
v  542541.0938 6589136.1811 17.6087
v  542541.0817 6589136.4453 17.6087
v  542541.3566 6589136.4553 17.6087
v  542541.0892 6589136.281 17.6087
v  542541.364 6589136.2926 17.6087
# 607 vertices

vn -0.0877 0.9961 0.0000
vn -0.0877 0.9962 0.0000
vn -0.9994 -0.0334 0.0000
vn -0.9972 -0.0746 0.0000
vn -0.9991 -0.0419 0.0000
vn -0.9993 -0.0363 0.0000
vn -0.9994 -0.0344 0.0000
vn -0.9994 -0.0333 0.0000
vn -0.9980 -0.0628 0.0000
vn -0.9984 -0.0562 0.0000
vn -0.9984 -0.0561 0.0000
vn -0.9988 -0.0497 0.0000
vn -0.9990 -0.0436 0.0000
vn -0.9992 -0.0389 0.0000
vn -0.9993 -0.0362 0.0000
vn -0.9987 -0.0515 0.0000
vn -0.9988 -0.0494 0.0000
vn -0.9989 -0.0477 0.0000
vn -0.9989 -0.0461 0.0000
vn -0.9990 -0.0445 0.0000
vn -0.9992 -0.0402 -0.0001
vn -0.9993 -0.0379 0.0000
vn -0.9994 -0.0353 0.0000
vn -0.9994 -0.0337 0.0000
vn -0.9994 -0.0333 -0.0001
vn -0.9994 -0.0332 0.0000
vn -0.9994 -0.0332 -0.0001
vn -0.9982 -0.0592 0.0000
vn -0.9982 -0.0593 0.0000
vn -0.9984 -0.0562 -0.0001
vn -0.9986 -0.0529 -0.0001
vn -0.9989 -0.0471 0.0000
vn -0.9992 -0.0407 0.0000
vn -0.9993 -0.0372 0.0000
vn -0.9994 -0.0352 0.0000
vn -0.9994 -0.0345 0.0000
vn -0.9994 -0.0339 0.0000
vn -0.9992 -0.0396 0.0000
vn -0.9992 -0.0395 -0.0001
vn -0.9988 -0.0493 0.0000
vn -0.9992 -0.0402 0.0001
vn -0.9986 -0.0531 0.0000
vn -0.9987 -0.0515 0.0016
vn -0.9988 -0.0498 0.0000
vn -0.9987 -0.0515 -0.0016
vn -0.9990 -0.0458 0.0000
vn -0.9990 -0.0444 0.0011
vn -0.9991 -0.0435 0.0000
vn -0.9990 -0.0444 -0.0011
vn -0.9992 -0.0409 0.0000
vn -0.9992 -0.0402 0.0005
vn -0.9992 -0.0399 0.0000
vn -0.9992 -0.0402 -0.0005
vn -0.9994 -0.0358 0.0000
vn -0.9994 -0.0353 0.0004
vn -0.9994 -0.0350 0.0000
vn -0.9994 -0.0353 -0.0004
vn -0.9994 -0.0340 0.0000
vn -0.9994 -0.0337 0.0002
vn -0.9994 -0.0336 0.0000
vn -0.9994 -0.0337 -0.0002
vn -0.9995 -0.0332 0.0000
vn -0.9981 -0.0608 0.0000
vn -0.9982 -0.0593 0.0016
vn -0.9983 -0.0576 0.0000
vn -0.9982 -0.0593 -0.0016
vn -0.9985 -0.0549 -0.0004
vn -0.9985 -0.0547 0.0000
vn -0.9986 -0.0528 -0.0018
vn -0.9988 -0.0482 0.0000
vn -0.9989 -0.0471 0.0011
vn -0.9989 -0.0460 0.0000
vn -0.9989 -0.0471 -0.0011
vn -0.9991 -0.0417 0.0000
vn -0.9992 -0.0407 -0.0009
vn -0.9993 -0.0378 0.0000
vn -0.9993 -0.0372 0.0005
vn -0.9993 -0.0368 0.0000
vn -0.9993 -0.0372 -0.0005
vn -0.9994 -0.0352 0.0004
vn -0.9994 -0.0352 -0.0004
vn -0.9994 -0.0343 0.0000
vn -0.9994 -0.0339 0.0003
vn -0.9994 -0.0338 0.0000
vn -0.9994 -0.0339 -0.0002
vn -0.9989 -0.0477 0.0012
vn -0.9989 -0.0468 0.0000
vn -0.9989 -0.0466 0.0000
vn -0.9993 -0.0379 0.0010
vn -0.9993 -0.0367 0.0001
vn -0.0424 0.9991 0.0000
vn 0.0000 0.0000 -1.0000
vn 0.0423 -0.9991 0.0000
vn -0.0423 0.9991 0.0000
vn -0.0421 0.9991 0.0000
vn 0.0422 -0.9991 0.0000
vn -0.0422 0.9991 0.0000
vn 0.0424 -0.9991 0.0000
vn -0.9992 -0.0395 0.0000
vn -0.9987 -0.0510 0.0000
vn -0.9987 -0.0509 0.0000
vn -0.9988 -0.0491 0.0000
vn -0.9988 -0.0486 0.0000
vn 0.0423 -0.9991 0.0001
vn -0.0423 0.9991 -0.0001
vn 0.0001 -0.0017 -1.0000
vn -0.0876 0.9962 0.0000
vn -0.0877 0.9961 0.0001
vn 0.9939 0.1099 0.0000
vn -0.9939 -0.1101 0.0000
vn -0.9987 -0.0501 0.0000
vn -0.9987 -0.0506 0.0000
vn -0.9986 -0.0529 -0.0021
vn -0.9985 -0.0555 0.0000
vn -0.9985 -0.0549 0.0000
vn 0.0000 0.0000 1.0000
vn -0.0886 0.9960 0.0058
vn -0.0877 0.9961 0.0078
vn -0.0880 0.9961 0.0000
vn -0.9991 -0.0421 0.0001
vn 0.0001 0.0000 -1.0000
vn -0.7279 -0.0307 -0.6850
vn -0.0764 0.9970 -0.0118
vn -0.9992 -0.0402 0.0000
vn -0.9994 -0.0333 0.0001
vn -0.9989 -0.0462 0.0000
vn -0.9989 -0.0461 0.0001
vn -0.9992 -0.0396 0.0001
vn -0.9986 -0.0529 0.0000
vn -0.9992 -0.0401 0.0000
vn -0.9990 -0.0444 0.0000
vn -0.9987 -0.0514 0.0000
vn -0.6839 -0.0288 0.7290
vn -0.6782 -0.0297 0.7343
vn -0.6776 -0.0298 0.7348
vn -0.6832 -0.0289 0.7296
vn -0.4587 -0.0226 0.8883
vn -0.4587 -0.0227 0.8883
vn 0.0424 -0.9991 -0.0001
vn 0.0423 -0.9991 -0.0001
vn -0.0487 -0.0024 -0.9988
vn 0.3581 -0.6845 -0.6350
vn 0.9472 0.0469 -0.3172
vn 0.2978 0.7147 -0.6329
vn -0.4587 -0.0173 0.8884
vn -0.4587 -0.0174 0.8884
vn -0.9993 -0.0377 0.0000
vn -0.0487 -0.0018 -0.9988
vn 0.3572 -0.6865 -0.6334
vn 0.9475 0.0359 -0.3178
vn 0.2987 0.7127 -0.6347
vn -0.4588 -0.0153 0.8884
vn -0.9994 -0.0333 -0.0004
vn -0.9994 -0.0333 -0.0002
vn -0.0488 -0.0016 -0.9988
vn 0.3569 -0.6871 -0.6329
vn 0.9474 0.0316 -0.3185
vn 0.2990 0.7119 -0.6354
vn -0.4587 -0.0163 0.8884
vn -0.4588 -0.0163 0.8884
vn -0.4587 -0.0162 0.8884
vn -0.9994 -0.0354 0.0000
vn 0.0422 -0.9991 0.0001
vn -0.0488 -0.0017 -0.9988
vn 0.3571 -0.6866 -0.6333
vn 0.9473 0.0335 -0.3187
vn 0.2989 0.7121 -0.6352
vn -0.4587 -0.0197 0.8884
vn -0.4587 -0.0198 0.8884
vn -0.9991 -0.0431 0.0000
vn -0.0488 -0.0021 -0.9988
vn 0.3578 -0.6852 -0.6344
vn 0.9469 0.0407 -0.3190
vn 0.2984 0.7132 -0.6342
vn -0.9989 -0.0478 -0.0002
vn -0.9989 -0.0476 -0.0003
vn 0.0478 -0.9989 0.0000
vn -0.0003 0.0000 1.0000
vn -0.0478 0.9989 0.0000
vn -0.9993 -0.0380 -0.0003
vn -0.9993 -0.0378 -0.0003
vn -0.9992 -0.0406 0.0014
vn -0.9992 -0.0409 0.0012
vn -0.9986 -0.0528 0.0009
vn -0.9986 -0.0530 0.0006
vn -0.0529 0.9986 0.0001
vn -0.0530 0.9986 0.0000
vn 0.0529 -0.9986 -0.0001
vn 0.0012 0.0001 1.0000
vn 0.0407 -0.9992 0.0000
vn 0.0002 0.0000 1.0000
vn -0.0407 0.9992 -0.0001
vn -0.0407 0.9992 0.0000
vn 0.0379 -0.9993 0.0000
vn -0.0379 0.9993 0.0000
vn 0.0529 -0.9986 0.0000
vn -0.0529 0.9986 0.0000
vn -0.9986 -0.0529 0.0001
vn -0.9986 -0.0532 -0.0012
vn -0.9985 -0.0547 -0.0063
vn -0.9986 -0.0527 -0.0001
vn -0.9986 -0.0526 0.0000
vn -0.9986 -0.0525 0.0000
vn -0.9985 -0.0541 0.0011
vn -0.9986 -0.0525 0.0001
vn -0.9986 -0.0533 0.0007
vn -0.9985 -0.0549 0.0016
vn -0.9986 -0.0527 0.0017
vn -0.9986 -0.0527 0.0016
vn -0.9986 -0.0528 0.0023
vn -0.9986 -0.0528 0.0024
vn -0.9986 -0.0524 0.0008
vn -0.9985 -0.0549 0.0024
vn -0.9986 -0.0536 0.0015
vn -0.9987 -0.0511 0.0000
vn 0.0119 -0.9998 -0.0173
vn 0.0004 -1.0000 -0.0056
vn 0.0062 -1.0000 -0.0071
vn 0.0029 -1.0000 -0.0055
vn 0.0069 -1.0000 -0.0061
vn 0.0164 -0.9996 -0.0212
vn -0.9989 -0.0459 0.0000
vn 0.0464 -0.9989 -0.0001
vn -0.0464 0.9989 0.0000
vn -0.9984 -0.0562 0.0004
vn -0.9992 -0.0388 0.0000
vn 0.0293 -0.9996 0.0006
vn 0.0290 -0.9911 0.1296
vn 0.0305 -0.9919 0.1235
vn 0.9982 0.0604 0.0000
vn 0.9786 0.0592 0.1973
vn 0.9798 0.0611 0.1905
vn -0.0292 0.9996 -0.0006
vn -0.0276 0.9917 0.1258
vn -0.0289 0.9907 0.1331
vn -0.9982 -0.0605 0.0000
vn -0.9816 -0.0578 0.1818
vn -0.9811 -0.0594 0.1841
vn 0.0331 -0.8393 0.5426
vn 0.0284 -0.7631 0.6457
vn 0.0332 -0.8733 0.4861
vn 0.7342 0.0404 0.6778
vn 0.6645 0.0382 0.7463
vn 0.7977 0.0447 0.6014
vn -0.7340 -0.0471 0.6775
vn -0.6539 -0.0406 0.7555
vn -0.5825 -0.0364 0.8120
vn -0.5823 -0.0376 0.8121
vn -0.8760 -0.0511 0.4796
vn 0.9342 0.0534 -0.3527
vn -0.8018 -0.0425 0.5961
vn 0.7653 0.1994 0.6120
vn 0.7269 0.0412 0.6855
vn 0.8692 0.0582 0.4910
vn 0.8704 0.0626 0.4884
vn -0.7239 -0.0460 0.6883
vn -0.6506 -0.0405 0.7583
vn -0.7911 -0.0545 0.6093
vn -0.8771 -0.0499 0.4777
vn -0.8774 -0.0467 0.4774
vn 0.8656 0.0550 0.4978
vn 0.8790 0.0572 0.4734
vn 0.6570 0.0382 0.7529
vn 0.5992 0.0358 0.7998
vn 0.7975 0.0560 0.6007
vn -0.5821 -0.0375 0.8123
vn -0.5813 -0.0368 0.8129
vn -0.5818 -0.0376 0.8125
vn -0.5793 -0.0380 0.8142
vn -0.8006 -0.0504 0.5971
vn 0.7866 0.0391 0.6162
vn -0.7864 -0.0444 0.6162
vn 0.5975 0.0346 0.8011
vn 0.5975 0.0350 0.8011
vn 0.5980 0.0348 0.8008
vn 0.5977 0.0350 0.8010
vn 0.5976 0.0350 0.8010
vn -0.0157 0.8448 0.5349
vn -0.0157 0.7661 0.6425
vn -0.0158 0.7277 0.6858
vn -0.0189 0.7266 0.6868
vn -0.0251 0.9317 0.3625
vn -0.0236 0.9342 0.3559
vn -0.0178 0.8811 0.4726
vn 0.0311 -0.9350 0.3532
vn 0.0338 -0.8852 0.4640
vn 0.0337 -0.8483 0.5285
vn 0.0318 -0.9381 0.3450
vn -0.0157 0.8565 0.5158
vn -0.0157 0.7644 0.6445
vn -0.0179 0.8941 0.4475
vn -0.0231 0.9382 0.3453
vn -0.0237 0.9348 0.3543
vn 0.0313 -0.9342 0.3554
vn 0.0294 -0.9325 0.3600
vn 0.0265 -0.7225 0.6908
vn 0.0240 -0.7232 0.6902
vn 0.0290 -0.7641 0.6444
vn -0.0204 0.7242 0.6893
vn -0.0190 0.7222 0.6915
vn -0.0155 0.7215 0.6922
vn 0.0230 -0.7250 0.6884
vn 0.0267 -0.7274 0.6857
vn 0.0242 -0.7268 0.6865
vn -0.4145 -0.7385 -0.5317
vn -0.4137 -0.7401 -0.5302
vn -0.4122 -0.7428 -0.5276
vn -0.4135 -0.7405 -0.5298
vn -0.2722 -0.4739 -0.8374
vn -0.2699 -0.4734 -0.8385
vn -0.2714 -0.4738 -0.8378
vn -0.2736 -0.4743 -0.8368
vn -0.3154 -0.5573 -0.7680
vn -0.3051 -0.5524 -0.7757
vn -0.3092 -0.5544 -0.7727
vn -0.3186 -0.5588 -0.7657
vn -0.1334 -0.2229 -0.9657
vn -0.1249 -0.2194 -0.9676
vn -0.1303 -0.2216 -0.9664
vn 0.0094 -0.2136 -0.9769
vn -0.3270 0.4097 -0.8516
vn -0.3263 0.4096 -0.8519
vn -0.3278 0.4099 -0.8512
vn -0.3286 0.4101 -0.8508
vn -0.3826 0.4775 -0.7910
vn -0.3821 0.4748 -0.7928
vn -0.3807 0.4675 -0.7978
vn -0.3814 0.4711 -0.7954
vn -0.5219 0.6381 -0.5660
vn -0.5191 0.6464 -0.5591
vn -0.5175 0.6512 -0.5551
vn -0.5195 0.6452 -0.5601
vn -0.1527 0.1983 -0.9682
vn -0.1525 0.1969 -0.9685
vn -0.1517 0.1930 -0.9694
vn -0.1523 0.1959 -0.9687
vn -0.3275 0.4118 -0.8504
vn -0.0089 -0.0006 1.0000
vn -0.0077 -0.0002 1.0000
vn -0.0010 0.0019 1.0000
vn 0.0016 0.0027 1.0000
vn -0.0019 0.0025 1.0000
vn 0.0078 0.0008 1.0000
vn 0.0090 0.0006 1.0000
vn 0.0008 0.0020 1.0000
vn -0.5289 0.6612 -0.5321
vn -0.4435 -0.7719 -0.4554
vn 0.3118 -0.4187 -0.8529
vn 0.3118 -0.4172 -0.8536
vn 0.3117 -0.4153 -0.8546
vn 0.3117 -0.4168 -0.8539
vn 0.3730 -0.4970 -0.7835
vn 0.3731 -0.4977 -0.7830
vn 0.3734 -0.4998 -0.7816
vn 0.3732 -0.4987 -0.7823
vn 0.5009 -0.6677 -0.5507
vn 0.4984 -0.6740 -0.5453
vn 0.4970 -0.6775 -0.5422
vn 0.4989 -0.6729 -0.5462
vn 0.5268 -0.7042 -0.4760
vn 0.1473 -0.1980 -0.9691
vn 0.1474 -0.1988 -0.9689
vn 0.1478 -0.2009 -0.9684
vn 0.2966 0.4373 -0.8490
vn 0.2958 0.4370 -0.8494
vn 0.2962 0.4371 -0.8492
vn 0.2969 0.4374 -0.8488
vn 0.3497 0.5124 -0.7843
vn 0.3502 0.5163 -0.7815
vn 0.3504 0.5175 -0.7806
vn 0.3499 0.5142 -0.7831
vn 0.4664 0.7008 -0.5397
vn 0.4685 0.6960 -0.5441
vn 0.4717 0.6884 -0.5509
vn 0.4688 0.6954 -0.5447
vn 0.4767 0.7115 -0.5163
vn 0.1385 0.2061 -0.9687
vn 0.1393 0.2118 -0.9673
vn 0.1395 0.2136 -0.9669
vn 0.1391 0.2102 -0.9677
vn 0.2957 0.4348 -0.8506
vn -0.0001 0.0000 -1.0000
vn 0.0014 0.0001 -1.0000
vn -0.0015 -0.0001 -1.0000
vn -0.0333 0.9994 0.0000
vn -0.9978 -0.0657 0.0000
vn 0.0293 -0.9996 0.0000
vn 0.9978 0.0658 0.0000
vn 0.0253 -0.9997 0.0000
vn -0.0293 0.9996 0.0000
vn 0.0421 -0.9991 0.0006
vn 0.0417 -0.9897 0.1372
vn 0.0438 -0.9906 0.1297
vn 0.9991 0.0420 0.0000
vn 0.9892 0.0416 0.1409
vn 0.9896 0.0429 0.1372
vn -0.0421 0.9991 -0.0006
vn -0.0397 0.9903 0.1333
vn -0.0416 0.9893 0.1401
vn -0.9991 -0.0421 0.0000
vn -0.9908 -0.0404 0.1292
vn -0.9903 -0.0417 0.1322
vn 0.0466 -0.8303 0.5554
vn 0.0415 -0.7724 0.6338
vn 0.0483 -0.8729 0.4855
vn 0.8424 0.0322 0.5380
vn 0.7803 0.0312 0.6246
vn 0.8853 0.0347 0.4637
vn -0.8403 -0.0376 0.5408
vn -0.7722 -0.0335 0.6345
vn -0.7181 -0.0313 0.6953
vn -0.7178 -0.0321 0.6955
vn -0.9334 -0.0379 0.3569
vn 0.9699 0.0385 -0.2404
vn -0.8880 -0.0328 0.4586
vn 0.8644 0.1506 0.4798
vn 0.8357 0.0325 0.5482
vn 0.9292 0.0429 0.3670
vn 0.9297 0.0469 0.3653
vn -0.8351 -0.0370 0.5488
vn -0.7681 -0.0336 0.6394
vn -0.8809 -0.0422 0.4715
vn -0.9330 -0.0368 0.3579
vn -0.9347 -0.0343 0.3537
vn 0.9279 0.0409 0.3706
vn 0.9350 0.0426 0.3522
vn 0.7764 0.0311 0.6295
vn 0.7320 0.0295 0.6807
vn 0.8848 0.0434 0.4640
vn -0.7176 -0.0322 0.6957
vn -0.7169 -0.0315 0.6964
vn -0.7173 -0.0321 0.6960
vn -0.7156 -0.0323 0.6977
vn -0.8871 -0.0387 0.4599
vn 0.8776 0.0300 0.4784
vn -0.8780 -0.0344 0.4775
vn 0.7315 0.0295 0.6812
vn 0.7315 0.0298 0.6812
vn 0.7318 0.0294 0.6809
vn 0.7317 0.0297 0.6810
vn 0.7316 0.0298 0.6811
vn -0.0228 0.8367 0.5472
vn -0.0230 0.7755 0.6309
vn -0.0227 0.7276 0.6857
vn -0.0281 0.7261 0.6870
vn -0.0357 0.9289 0.3687
vn -0.0340 0.9347 0.3539
vn -0.0250 0.8811 0.4723
vn 0.0448 -0.9353 0.3511
vn 0.0492 -0.8845 0.4639
vn 0.0476 -0.8399 0.5406
vn 0.0456 -0.9343 0.3535
vn -0.0228 0.8470 0.5311
vn -0.0230 0.7762 0.6301
vn -0.0251 0.8938 0.4477
vn -0.0332 0.9348 0.3537
vn -0.0342 0.9354 0.3519
vn 0.0451 -0.9347 0.3525
vn 0.0425 -0.9287 0.3684
vn 0.0383 -0.7223 0.6905
vn 0.0338 -0.7233 0.6897
vn 0.0423 -0.7740 0.6318
vn -0.0286 0.7241 0.6891
vn -0.0281 0.7223 0.6910
vn -0.0222 0.7215 0.6921
vn 0.0337 -0.7248 0.6882
vn 0.0384 -0.7271 0.6854
vn 0.0341 -0.7263 0.6866
vn -0.5470 -0.6810 -0.4868
vn -0.5483 -0.6787 -0.4886
vn -0.5475 -0.6801 -0.4875
vn -0.5458 -0.6831 -0.4853
vn -0.3770 -0.4562 -0.8061
vn -0.3743 -0.4559 -0.8075
vn -0.3764 -0.4561 -0.8064
vn -0.3791 -0.4563 -0.8050
vn -0.4309 -0.5296 -0.7307
vn -0.4189 -0.5267 -0.7396
vn -0.4251 -0.5282 -0.7350
vn -0.4356 -0.5306 -0.7271
vn -0.1900 -0.2207 -0.9566
vn -0.1784 -0.2176 -0.9596
vn -0.1868 -0.2199 -0.9575
vn 0.0109 -0.2138 -0.9768
vn -0.4460 0.3882 -0.8065
vn -0.4450 0.3881 -0.8070
vn -0.4467 0.3883 -0.8060
vn -0.4479 0.3884 -0.8053
vn -0.5105 0.4381 -0.7400
vn -0.5119 0.4439 -0.7355
vn -0.5113 0.4414 -0.7374
vn -0.5097 0.4349 -0.7423
vn -0.6587 0.5677 -0.4937
vn -0.6609 0.5615 -0.4980
vn -0.6580 0.5699 -0.4923
vn -0.6564 0.5742 -0.4892
vn -0.2164 0.1933 -0.9570
vn -0.2171 0.1958 -0.9563
vn -0.2168 0.1945 -0.9567
vn -0.2157 0.1906 -0.9577
vn -0.4461 0.3897 -0.8057
vn -0.0128 -0.0006 0.9999
vn -0.0117 -0.0003 0.9999
vn -0.0008 0.0020 1.0000
vn 0.0022 0.0027 1.0000
vn -0.0027 0.0025 1.0000
vn 0.0118 0.0007 0.9999
vn 0.0129 0.0006 0.9999
vn 0.0006 0.0021 1.0000
vn -0.6679 0.5802 -0.4661
vn -0.5798 -0.7012 -0.4148
vn 0.4270 -0.3971 -0.8124
vn 0.4270 -0.3954 -0.8133
vn 0.4270 -0.3967 -0.8126
vn 0.4271 -0.3985 -0.8117
vn 0.5007 -0.4643 -0.7306
vn 0.5011 -0.4662 -0.7291
vn 0.5009 -0.4652 -0.7298
vn 0.5006 -0.4636 -0.7311
vn 0.6382 -0.5974 -0.4857
vn 0.6400 -0.5929 -0.4888
vn 0.6374 -0.5992 -0.4844
vn 0.6361 -0.6024 -0.4822
vn 0.6656 -0.6182 -0.4181
vn 0.2098 -0.1966 -0.9578
vn 0.2103 -0.1986 -0.9572
vn 0.2097 -0.1958 -0.9580
vn 0.4081 0.4180 -0.8116
vn 0.4070 0.4178 -0.8123
vn 0.4077 0.4179 -0.8119
vn 0.4087 0.4181 -0.8113
vn 0.4736 0.4835 -0.7362
vn 0.4733 0.4817 -0.7375
vn 0.4739 0.4854 -0.7347
vn 0.4741 0.4867 -0.7337
vn 0.6074 0.6247 -0.4906
vn 0.6046 0.6310 -0.4861
vn 0.6066 0.6267 -0.4892
vn 0.6101 0.6186 -0.4950
vn 0.6156 0.6381 -0.4625
vn 0.1981 0.2078 -0.9579
vn 0.1974 0.2040 -0.9589
vn 0.1984 0.2094 -0.9575
vn 0.1988 0.2114 -0.9570
vn 0.4072 0.4159 -0.8132
vn -0.0021 -0.0001 -1.0000
vn 0.0020 0.0001 -1.0000
vn -0.0479 0.9989 0.0000
vn 0.9989 0.0458 0.0000
vn 0.0364 -0.9993 0.0000
vn -0.9990 -0.0457 0.0000
# 551 vertex normals

vt 3.8369 1.9221 21.7105
vt 3.8369 2.2400 21.7105
vt 2.5970 2.2400 21.8195
vt 3.8369 -0.2509 21.7105
vt 2.5970 1.7721 21.8195
vt 2.5970 -0.1009 21.8195
vt 2.5970 -0.9391 21.8195
vt 3.8369 -0.9391 21.7105
vt -0.1948 -0.9391 22.0650
vt 1.0880 -0.9391 21.9522
vt 1.0880 -0.1009 21.9522
vt -0.1948 2.2400 22.0649
vt 1.0880 1.7721 21.9522
vt 1.0880 2.2400 21.9522
vt 0.0360 -0.2509 -1.9584
vt 1.9039 -0.2509 -1.8793
vt 1.9039 1.9221 -1.8793
vt 0.0360 1.9221 -1.9584
vt 22.0644 2.2400 -1.0131
vt 21.4642 2.2400 -1.0511
vt 21.4642 1.9221 -1.0511
vt 21.4642 -0.2509 -1.0511
vt 21.4642 -0.9363 -1.0511
vt 22.0644 -0.9363 -1.0130
vt 14.2595 1.2148 -1.3561
vt 14.2595 0.1649 -1.3561
vt 16.0143 -0.2509 -1.2818
vt 16.0143 1.9221 -1.2818
vt 10.7249 1.9221 -1.5058
vt 9.6081 1.9221 -1.5531
vt 9.6081 -0.2509 -1.5531
vt 10.7249 -0.9365 -1.5058
vt 6.7586 -0.2509 -1.6737
vt 8.0446 -0.2509 -1.6193
vt 8.0446 1.9221 -1.6193
vt 6.7586 1.9221 -1.6737
vt 3.4239 -0.2509 -1.8150
vt 5.2102 -0.2509 -1.7393
vt 5.2102 1.9221 -1.7393
vt 3.4239 1.9221 -1.8150
vt -19.3460 1.9221 -2.7791
vt -20.7105 1.9221 -2.8369
vt -20.7105 -0.2509 -2.8369
vt -19.3460 -0.2509 -2.7791
vt -16.6766 -0.6070 -2.6660
vt -16.6766 1.6931 -2.6660
vt -17.8965 -0.2509 -2.7177
vt -17.8965 -0.9391 -2.7177
vt -17.8965 1.9221 -2.7177
vt -14.9650 -0.6274 -2.5935
vt -14.7467 -0.6322 -2.5843
vt -13.5707 -0.2912 -2.5345
vt -13.5707 1.9204 -2.5345
vt -14.9650 1.6931 -2.5935
vt -9.3858 -0.6825 -2.3573
vt -9.3858 1.9221 -2.3573
vt -12.1201 -0.2912 -2.4731
vt -10.3144 -0.6381 -2.3966
vt -12.1201 1.9204 -2.4731
vt -8.0945 -0.6778 -2.3026
vt -7.3146 -0.5679 -2.2696
vt -6.3201 -0.2509 -2.2275
vt -6.3201 1.9221 -2.2275
vt -8.0945 1.9221 -2.3026
vt -3.9737 1.9221 -2.1282
vt -4.9191 1.9221 -2.1682
vt -4.9191 -0.2509 -2.1682
vt -3.9737 -0.2509 -2.1282
vt -1.3929 1.9221 -2.0189
vt -2.5255 1.9221 -2.0669
vt -2.5255 -0.2509 -2.0669
vt -1.3929 -0.2509 -2.0189
vt 1.9039 2.2400 -1.8793
vt 0.0360 2.2400 -1.9584
vt 0.0360 -0.9391 -1.9584
vt 1.9039 -0.9391 -1.8793
vt 19.8725 1.9221 -1.1185
vt 19.8725 2.2400 -1.1185
vt 19.4615 1.9221 -1.1359
vt 19.4615 2.2400 -1.1359
vt 18.0328 1.9221 -1.1964
vt 18.0328 2.2400 -1.1964
vt 17.6288 -0.2509 -1.2135
vt 17.6288 -0.9363 -1.2135
vt 18.0328 -0.9370 -1.1964
vt 17.6288 1.9221 -1.2135
vt 17.6288 2.2400 -1.2135
vt 16.0143 2.2400 -1.2818
vt 16.0143 -0.9363 -1.2818
vt 14.1975 2.2400 -1.3588
vt 14.1975 -0.9363 -1.3588
vt 13.5917 2.2400 -1.3844
vt 13.5635 1.2148 -1.3855
vt 12.9977 1.9221 -1.4096
vt 12.9977 2.2400 -1.4096
vt 10.7249 2.2400 -1.5058
vt 9.6081 2.2400 -1.5531
vt 9.6081 -0.9391 -1.5531
vt 8.0446 2.2400 -1.6193
vt 8.0447 -0.9391 -1.6193
vt 6.7586 2.2400 -1.6737
vt 6.7586 -0.9391 -1.6737
vt 5.2102 2.2400 -1.7393
vt 5.2102 -0.9391 -1.7393
vt 3.4239 2.2400 -1.8150
vt 3.4239 -0.9391 -1.8149
vt -20.7105 -0.9391 -2.8369
vt -19.3460 -0.9391 -2.7791
vt -19.3460 2.2400 -2.7791
vt -20.7105 2.2400 -2.8369
vt -17.8965 2.2400 -2.7177
vt -16.6766 2.2400 -2.6660
vt -14.9650 2.2400 -2.5935
vt -13.5707 2.2400 -2.5345
vt -13.5707 -0.9391 -2.5345
vt -12.1201 -0.9391 -2.4731
vt -12.1201 2.2400 -2.4731
vt -9.3858 2.2400 -2.3573
vt -8.0945 2.2400 -2.3026
vt -6.3201 2.2400 -2.2275
vt -6.3201 -0.9391 -2.2275
vt -4.9191 -0.9391 -2.1682
vt -4.9191 2.2400 -2.1682
vt -3.9737 -0.9391 -2.1282
vt -3.9737 2.2400 -2.1282
vt -2.5255 -0.9391 -2.0669
vt -2.5255 2.2400 -2.0669
vt -1.3929 -0.9391 -2.0189
vt -1.3929 2.2400 -2.0189
vt 12.9977 -0.9363 -1.4096
vt 13.5635 0.1649 -1.3855
vt 19.8725 -0.9363 -1.1185
vt 19.8725 -0.2509 -1.1185
vt 19.4615 -0.9363 -1.1358
vt 13.5917 -0.9363 -1.3844
vt 21.3144 1.7721 -1.0574
vt 21.3144 -0.1009 -1.0574
vt 20.0223 1.7721 -1.1121
vt 20.0223 -0.1009 -1.1121
vt 17.6288 1.1978 -1.2135
vt 17.4790 1.7721 -1.2198
vt 17.6288 0.4735 -1.2135
vt 17.4790 -0.1009 -1.2198
vt 16.1641 1.7721 -1.2755
vt 16.1641 -0.1009 -1.2755
vt 14.1096 1.0648 -1.3625
vt 14.1096 0.3149 -1.3625
vt 13.7133 1.0648 -1.3792
vt 13.7133 0.3149 -1.3792
vt 9.4583 1.7721 -1.5594
vt 9.4583 -0.1009 -1.5594
vt 8.1945 1.7721 -1.6129
vt 8.1945 -0.1009 -1.6129
vt 6.6088 1.7721 -1.6801
vt 6.6088 -0.1009 -1.6801
vt 5.3601 1.7721 -1.7329
vt 5.3601 -0.1009 -1.7329
vt 3.2740 1.7721 -1.8213
vt 3.2740 -0.1009 -1.8213
vt 2.0537 1.7721 -1.8730
vt 2.0537 -0.1009 -1.8730
vt -19.1961 -0.1009 -2.7727
vt -19.1961 1.7721 -2.7727
vt -18.0463 -0.1009 -2.7240
vt -18.0463 1.7721 -2.7240
vt -16.5267 -0.6955 -2.6596
vt -16.5267 -0.5447 -2.6596
vt -16.6766 -0.6955 -2.6660
vt -16.5267 1.5405 -2.6596
vt -15.1149 1.5428 -2.5999
vt -13.4208 -0.1412 -2.5282
vt -13.4208 1.7704 -2.5282
vt -12.2699 -0.1412 -2.4794
vt -12.2699 1.7704 -2.4794
vt -9.3858 -0.8165 -2.3573
vt -9.2359 -0.8165 -2.3509
vt -9.2359 1.7721 -2.3509
vt -8.2443 1.7721 -2.3090
vt -6.1702 -0.1009 -2.2212
vt -6.1702 1.7721 -2.2212
vt -5.0690 -0.1009 -2.1745
vt -5.0690 1.7721 -2.1745
vt -3.8239 -0.1009 -2.1218
vt -3.8239 1.7721 -2.1218
vt -2.6754 -0.1009 -2.0732
vt -2.6754 1.7721 -2.0732
vt -1.2430 -0.1009 -2.0126
vt -1.2430 1.7721 -2.0125
vt -0.1139 -0.1009 -1.9648
vt -0.1139 1.7721 -1.9648
vt 18.1827 1.7721 -1.1900
vt 19.3116 1.7721 -1.1422
vt 18.0328 -1.0444 -1.1963
vt 18.1827 -1.0444 -1.1899
vt 18.0328 0.0160 -1.1964
vt 18.0328 0.9691 -1.1964
vt 10.8747 1.7721 -1.4995
vt 12.8478 1.7721 -1.4159
vt 10.7249 -0.9856 -1.5058
vt 10.8748 -0.9856 -1.4994
vt 10.8747 -0.7587 -1.4994
vt 1.9575 1.7721 -20.3102
vt 1.9575 -0.1009 -20.3102
vt 2.0574 -0.1009 -20.3144
vt 2.0574 1.7721 -20.3144
vt 2.0122 -19.0181 1.7721
vt 1.9575 -20.3102 1.7721
vt 2.0574 -20.3144 1.7721
vt 2.1121 -19.0223 1.7721
vt -1.0122 -0.1009 -19.0181
vt -1.0122 1.7721 -19.0181
vt -1.1121 1.7721 -19.0223
vt -1.1121 -0.1009 -19.0223
vt 2.0423 1.7721 -18.3074
vt 2.0422 -1.0444 -18.3074
vt 2.1421 -1.0444 -18.3116
vt 2.1422 1.7721 -18.3116
vt 2.0901 -17.1785 1.7721
vt 2.0423 -18.3074 1.7721
vt 2.1422 -18.3116 1.7721
vt 2.1900 -17.1827 1.7721
vt -1.0901 -1.0444 -17.1785
vt -1.0901 1.7721 -17.1785
vt -1.1900 1.7721 -17.1827
vt -1.1899 -1.0444 -17.1827
vt 2.1199 1.7721 -16.4747
vt 2.1199 -0.1009 -16.4747
vt 2.2198 -0.1009 -16.4790
vt 2.2198 1.7721 -16.4790
vt 2.1756 -15.1599 1.7721
vt 2.1199 -16.4747 1.7721
vt 2.2198 -16.4790 1.7721
vt 2.2755 -15.1641 1.7721
vt -1.1756 -0.1009 -15.1599
vt -1.1756 1.7721 -15.1599
vt -1.2755 1.7721 -15.1641
vt -1.2755 -0.1009 -15.1641
vt 2.2625 1.0648 -13.1054
vt 2.2625 0.3149 -13.1054
vt 2.3625 0.3149 -13.1096
vt 2.3625 1.0648 -13.1096
vt 2.2793 -12.7091 1.0648
vt 2.2625 -13.1054 1.0648
vt 2.3625 -13.1096 1.0648
vt 2.3792 -12.7133 1.0648
vt -1.2793 0.3149 -12.7091
vt -1.2793 1.0648 -12.7091
vt -1.3792 1.0648 -12.7133
vt -1.3792 0.3149 -12.7133
vt 2.4595 1.7721 -8.4540
vt 2.4595 -0.1009 -8.4540
vt 2.5594 -0.1009 -8.4583
vt 2.5594 1.7721 -8.4583
vt 2.5130 -7.1903 1.7721
vt 2.4595 -8.4540 1.7721
vt 2.5594 -8.4583 1.7721
vt 2.6129 -7.1945 1.7721
vt -1.5130 -0.1009 -7.1903
vt -1.5130 1.7721 -7.1903
vt -1.6129 1.7721 -7.1945
vt -1.6129 -0.1009 -7.1945
vt 2.5802 1.7721 -5.6045
vt 2.5802 -0.1009 -5.6045
vt 2.6801 -0.1009 -5.6088
vt 2.6801 1.7721 -5.6088
vt 2.6330 -4.3559 1.7721
vt 2.5802 -5.6045 1.7721
vt 2.6801 -5.6088 1.7721
vt 2.7329 -4.3601 1.7721
vt -1.6330 -0.1009 -4.3559
vt -1.6330 1.7721 -4.3559
vt -1.7329 1.7721 -4.3601
vt -1.7329 -0.1009 -4.3601
vt 2.7214 1.7721 -2.2698
vt 2.7214 -0.1009 -2.2698
vt 2.8213 -0.1009 -2.2740
vt 2.8213 1.7721 -2.2740
vt 2.7731 -1.0495 1.7721
vt 2.7214 -2.2698 1.7721
vt 2.8213 -2.2740 1.7721
vt 2.8730 -1.0537 1.7721
vt -1.7731 -0.1009 -1.0495
vt -1.7731 1.7721 -1.0495
vt -1.8730 1.7721 -1.0537
vt -1.8730 -0.1009 -1.0537
vt -2.6728 -0.1009 20.2003
vt -2.6728 1.7721 20.2003
vt -2.7727 1.7721 20.1961
vt -2.7727 -0.1009 20.1961
vt 3.6241 1.7721 19.0505
vt 3.6241 -0.1009 19.0505
vt 3.7240 -0.1009 19.0463
vt 3.7240 1.7721 19.0463
vt 3.6728 20.2003 1.7721
vt 3.6241 19.0505 1.7721
vt 3.7240 19.0463 1.7721
vt 3.7727 20.1961 1.7721
vt -2.4283 -0.1412 14.4251
vt -2.4283 1.7704 14.4251
vt -2.5282 1.7704 14.4208
vt -2.5282 -0.1412 14.4208
vt 3.3795 1.7704 13.2741
vt 3.3795 -0.1412 13.2741
vt 3.4794 -0.1412 13.2699
vt 3.4794 1.7704 13.2699
vt 3.4283 14.4251 1.7704
vt 3.3795 13.2741 1.7704
vt 3.4794 13.2699 1.7704
vt 3.5282 14.4208 1.7704
vt -2.1213 -0.1009 7.1745
vt -2.1213 1.7721 7.1745
vt -2.2212 1.7721 7.1702
vt -2.2212 -0.1009 7.1702
vt 3.0746 1.7721 6.0732
vt 3.0746 -0.1009 6.0732
vt 3.1745 -0.1009 6.0690
vt 3.1745 1.7721 6.0690
vt 3.1213 7.1745 1.7721
vt 3.0746 6.0732 1.7721
vt 3.1745 6.0690 1.7721
vt 3.2212 7.1702 1.7721
vt -2.0219 -0.1009 4.8281
vt -2.0219 1.7721 4.8281
vt -2.1218 1.7721 4.8239
vt -2.1218 -0.1009 4.8239
vt 2.9733 1.7721 3.6796
vt 2.9733 -0.1009 3.6796
vt 3.0732 -0.1009 3.6754
vt 3.0732 1.7721 3.6754
vt 3.0219 4.8281 1.7721
vt 2.9733 3.6796 1.7721
vt 3.0732 3.6754 1.7721
vt 3.1218 4.8239 1.7721
vt -1.9127 -0.1009 2.2472
vt -1.9126 1.7721 2.2472
vt -2.0125 1.7721 2.2430
vt -2.0126 -0.1009 2.2430
vt 2.8648 1.7721 1.1181
vt 2.8648 -0.1009 1.1181
vt 2.9648 -0.1009 1.1139
vt 2.9648 1.7721 1.1139
vt 2.9126 2.2472 1.7721
vt 2.8648 1.1181 1.7721
vt 2.9648 1.1139 1.7721
vt 3.0125 2.2430 1.7721
vt -8.0945 -0.8165 -2.3026
vt -8.2443 -0.8165 -2.3089
vt -14.9650 -0.6955 -2.5935
vt -15.1149 -0.5447 -2.5999
vt -15.1149 -0.6955 -2.5999
vt 12.9977 -0.9856 -1.4096
vt 12.8479 -0.7587 -1.4159
vt 12.8478 -0.9856 -1.4159
vt 19.4615 -1.0444 -1.1358
vt 19.3116 -1.0444 -1.1421
vt 2.3160 1.7721 -11.8436
vt 2.3160 -0.7587 -11.8436
vt 2.4159 -0.7587 -11.8479
vt 2.4159 1.7721 -11.8478
vt 2.3995 -9.8705 1.7721
vt 2.3160 -11.8436 1.7721
vt 2.4159 -11.8478 1.7721
vt 2.4995 -9.8747 1.7721
vt -1.3995 -0.7587 -9.8705
vt -1.3995 1.7721 -9.8705
vt -1.4995 1.7721 -9.8747
vt -1.4994 -0.7587 -9.8747
vt -1.3995 -0.9856 -9.8705
vt -1.4994 -0.9856 -9.8748
vt 2.3160 -0.9856 -11.8436
vt 2.4159 -0.9856 -11.8478
vt -2.5597 -0.5447 17.5310
vt -2.5597 1.5405 17.5309
vt -2.6596 1.5405 17.5267
vt -2.6596 -0.5447 17.5267
vt -2.5597 -0.6955 17.5310
vt -2.6596 -0.6955 17.5267
vt 3.4999 -0.5447 16.1191
vt 3.4999 -0.6955 16.1191
vt 3.5999 -0.6955 16.1149
vt 3.5999 -0.5447 16.1149
vt 3.4999 1.5428 16.1191
vt 3.5999 1.5428 16.1149
vt 3.5597 17.5309 1.5405
vt 3.4999 16.1191 1.5428
vt 3.5999 16.1149 1.5428
vt 3.6596 17.5267 1.5405
vt -2.2510 -0.8165 10.2401
vt -2.2510 1.7721 10.2401
vt -2.3509 1.7721 10.2359
vt -2.3509 -0.8165 10.2359
vt 3.2091 1.7721 9.2486
vt 3.2090 -0.8165 9.2486
vt 3.3089 -0.8165 9.2443
vt 3.3090 1.7721 9.2443
vt 3.2510 10.2401 1.7721
vt 3.2091 9.2486 1.7721
vt 3.3090 9.2443 1.7721
vt 3.3509 10.2359 1.7721
vt 2.4475 1.7159 21.8326
vt 2.4476 -0.0078 21.8326
vt 1.2374 1.7159 21.9390
vt 1.2374 -0.0078 21.9390
vt 21.6832 1.7159 -1.4344
vt 21.6832 -0.0078 -1.4344
vt 21.8326 -0.0078 -1.4476
vt 21.8326 1.7159 -1.4475
vt 1.2374 21.9390 1.7159
vt 1.2243 21.7896 1.7159
vt 2.4344 21.6832 1.7159
vt 2.4475 21.8326 1.7159
vt -20.7896 -0.0078 -0.2243
vt -20.7896 1.7159 -0.2243
vt -20.9390 1.7159 -0.2374
vt -20.9390 -0.0078 -0.2374
vt -15.1191 -0.5447 -2.4999
vt -15.1191 1.5428 -2.4999
vt -15.1691 1.4927 -2.5020
vt -15.1690 -0.5447 -2.5020
vt -16.4810 1.4905 -2.5576
vt -16.5309 1.5405 -2.5597
vt -16.5310 -0.5447 -2.5597
vt -16.4810 -0.5447 -2.5576
vt 3.3022 1.4927 16.1775
vt 3.3022 -0.5447 16.1775
vt 3.5020 -0.5447 16.1690
vt 3.5020 1.4927 16.1691
vt 3.3578 17.4895 1.4905
vt 3.3022 16.1775 1.4927
vt 3.5020 16.1691 1.4927
vt 3.5576 17.4810 1.4905
vt -2.3578 -0.5447 17.4895
vt -2.3578 1.4905 17.4895
vt -2.5576 1.4905 17.4810
vt -2.5576 -0.5447 17.4810
vt -0.9575 -20.3102 -0.1009
vt -1.0122 -19.0181 -0.1009
vt -1.1121 -19.0223 -0.1009
vt -1.0574 -20.3144 -0.1009
vt -1.1199 -16.4747 -0.1009
vt -1.1756 -15.1599 -0.1009
vt -1.2755 -15.1641 -0.1009
vt -1.2198 -16.4790 -0.1009
vt -1.2625 -13.1054 0.3149
vt -1.2793 -12.7091 0.3149
vt -1.3792 -12.7133 0.3149
vt -1.3625 -13.1096 0.3149
vt -1.4595 -8.4540 -0.1009
vt -1.5130 -7.1903 -0.1009
vt -1.6129 -7.1945 -0.1009
vt -1.5594 -8.4583 -0.1009
vt -1.5802 -5.6045 -0.1009
vt -1.6330 -4.3559 -0.1009
vt -1.7329 -4.3601 -0.1009
vt -1.6801 -5.6088 -0.1009
vt -1.7214 -2.2698 -0.1009
vt -1.7731 -1.0495 -0.1009
vt -1.8730 -1.0537 -0.1009
vt -1.8213 -2.2740 -0.1009
vt -2.6241 19.0505 -0.1009
vt -2.6728 20.2003 -0.1009
vt -2.7727 20.1961 -0.1009
vt -2.7240 19.0463 -0.1009
vt -2.3795 13.2741 -0.1412
vt -2.4283 14.4251 -0.1412
vt -2.5282 14.4208 -0.1412
vt -2.4794 13.2699 -0.1412
vt -2.0746 6.0732 -0.1009
vt -2.1213 7.1745 -0.1009
vt -2.2212 7.1702 -0.1009
vt -2.1745 6.0690 -0.1009
vt -1.9733 3.6796 -0.1009
vt -2.0219 4.8281 -0.1009
vt -2.1218 4.8239 -0.1009
vt -2.0732 3.6754 -0.1009
vt -1.8648 1.1181 -0.1009
vt -1.9127 2.2472 -0.1009
vt -2.0126 2.2430 -0.1009
vt -1.9648 1.1139 -0.1009
vt -0.2374 21.9390 -0.0078
vt -1.4476 21.8326 -0.0078
vt -1.4344 21.6832 -0.0078
vt -0.2243 21.7896 -0.0078
vt 4.2477 2.2400 21.6728
vt 4.2477 2.4400 21.6728
vt -0.1948 2.4400 22.0649
vt -0.1948 6.6314 22.0650
vt -20.6728 2.4400 -3.2477
vt -20.6728 2.2400 -3.2477
vt 22.0667 2.2400 -1.4380
vt 22.0667 2.4400 -1.4380
vt 2.0511 -20.4642 2.2400
vt 2.0131 -21.0644 2.2400
vt 2.4380 -21.0667 2.2400
vt 2.1185 -18.8725 2.2400
vt 2.1359 -18.4615 2.2400
vt 2.1964 -17.0328 2.2400
vt 2.2135 -16.6288 2.2400
vt 2.2818 -15.0143 2.2400
vt 2.3588 -13.1975 2.2400
vt 2.3844 -12.5917 2.2400
vt 2.4096 -11.9977 2.2400
vt 2.5058 -9.7249 2.2400
vt 2.5531 -8.6081 2.2400
vt 2.6193 -7.0446 2.2400
vt 2.6737 -5.7586 2.2400
vt 2.7393 -4.2102 2.2400
vt 2.8150 -2.4239 2.2400
vt 2.8793 -0.9039 2.2400
vt 3.0189 2.3929 2.2400
vt 2.9584 0.9640 2.2400
vt 3.1282 4.9737 2.2400
vt 3.0669 3.5255 2.2400
vt 3.2275 7.3201 2.2400
vt 3.1682 5.9191 2.2400
vt 3.3573 10.3858 2.2400
vt 3.3026 9.0945 2.2400
vt 3.5345 14.5707 2.2400
vt 3.4731 13.1201 2.2400
vt 3.6660 17.6766 2.2400
vt 3.5935 15.9650 2.2400
vt 3.7791 20.3460 2.2400
vt 3.7177 18.8965 2.2400
vt 4.2477 21.6728 2.2400
vt 3.8369 21.7105 2.2400
vt 22.0711 2.5492 -1.5407
vt -20.6685 2.5492 -3.3504
vt 4.3504 2.5492 21.6685
vt -0.1948 6.8203 22.0650
vt 19.4615 -1.4400 -1.1359
vt 19.8725 -1.4400 -1.1185
vt 21.4642 -1.4400 -1.0511
vt 22.0644 -1.4400 -1.0131
vt 13.5917 -1.4400 -1.3844
vt 14.1975 -1.4400 -1.3588
vt 1.0880 -1.4400 21.9522
vt 2.5970 -1.4400 21.8195
vt 3.8369 -1.4400 21.7105
vt -20.7105 -1.4400 -2.8369
vt -19.3460 -1.4400 -2.7791
vt -17.8965 -1.4400 -2.7177
vt -16.6766 -1.4400 -2.6660
vt -13.5707 -1.4400 -2.5345
vt -14.9650 -0.9391 -2.5935
vt -14.9650 -1.4400 -2.5936
vt -12.1201 -1.4400 -2.4731
vt -9.3858 -1.4400 -2.3573
vt -9.3858 -0.9391 -2.3573
vt -6.3201 -1.4400 -2.2275
vt -8.0945 -0.9391 -2.3026
vt -8.0945 -1.4400 -2.3026
vt -4.9191 -1.4400 -2.1682
vt -3.9737 -1.4400 -2.1282
vt -2.5255 -1.4400 -2.0669
vt -1.3929 -1.4400 -2.0189
vt 0.0360 -1.4400 -1.9584
vt 1.9039 -1.4400 -1.8793
vt 3.4239 -1.4400 -1.8150
vt 5.2102 -1.4400 -1.7393
vt 6.7586 -1.4400 -1.6737
vt 8.0446 -1.4400 -1.6193
vt 9.6081 -1.4400 -1.5531
vt 16.0143 -1.4400 -1.2818
vt 17.6288 -1.4400 -1.2135
vt 18.0328 -1.4400 -1.1964
vt 12.9977 -1.4400 -1.4096
vt 10.7249 -1.4400 -1.5058
vt -0.1948 -1.4400 22.0649
vt 0.0005 0.0005 0.9961
vt 0.9995 0.0005 0.0000
vt 0.9995 0.9995 0.0000
vt 0.0005 0.9995 0.9961
vt 0.9995 0.9995 0.5000
vt 0.0005 0.9995 1.5000
vt 0.0005 0.0005 1.5000
vt 0.9995 0.0005 1.5000
vt 0.9995 0.0005 0.5000
vt 0.0005 0.9984 -0.5000
vt 0.0005 0.0005 0.5000
vt 0.0005 0.9995 0.5000
vt 0.0005 0.9995 0.0000
vt 0.0005 0.0005 0.0000
vt 0.9995 0.9995 1.5000
vt 0.0005 0.0005 2.5000
vt 0.0005 0.0005 -1.5000
vt 0.9995 0.0005 -0.5000
vt 0.9995 0.9995 -0.5000
vt 0.0005 0.9995 -1.5000
vt 0.9995 0.0005 2.5000
vt 0.9995 0.9995 2.5000
vt 0.0005 0.9995 1.0000
vt 0.9995 0.9995 1.0000
vt -20.8046 -2.4033 0.4286
vt 21.9732 -2.4033 0.4286
vt 21.9988 -1.5650 0.4040
vt -21.0084 3.7843 0.2565
vt 22.1940 4.8318 0.2160
vt 1.7517 0.1716 -2.0467
vt 1.7517 1.4351 3.0467
vt -0.7517 1.4351 3.0467
vt -0.7517 0.1716 -2.0467
vt -0.4950 -0.3552 -1.4170
vt -0.4950 -0.4351 -1.4170
vt 1.4950 -0.4351 -1.4170
vt 1.4950 -0.3552 -1.4170
vt 2.9056 -0.4351 1.4950
vt 2.9056 1.2332 1.4950
vt -1.4170 -0.3552 1.4950
vt -1.4170 -0.4351 1.4950
vt -1.4170 0.1568 1.4950
vt -1.9056 -0.4351 -0.4950
vt 2.4170 -0.4351 -0.4950
vt 2.4170 -0.3552 -0.4950
vt 2.4170 0.1568 -0.4950
vt -1.9056 1.2332 -0.4950
vt -0.7517 -2.0467 0.1716
vt 1.7517 -2.0467 0.1716
vt 1.4950 -1.4170 0.1568
vt -0.4950 -1.4170 0.1568
vt 3.0467 1.4351 1.7517
vt -2.0467 0.1716 1.7517
vt -0.4950 1.2332 2.9056
vt 1.4950 1.2332 2.9056
vt 3.0467 0.1716 -0.7517
vt -2.0467 1.4351 -0.7517
vt 0.0005 0.0005 0.9995
vt 0.9995 0.0005 0.0005
vt 0.9995 0.9995 0.0005
vt 0.0005 0.9995 0.9995
vt 0.0005 0.0005 1.0000
vt 0.9995 0.0005 0.0010
vt 0.9995 0.9995 0.0010
vt 0.0005 0.0005 0.9990
vt 0.0005 0.9995 0.9990
vt 0.9995 0.0827 0.9961
vt 0.0005 0.0827 -0.0039
vt 0.9995 0.0005 0.9922
vt 0.9995 0.9995 0.9961
vt 61.3608 -0.9922 2.3927
vt 61.3608 0.3265 2.3928
vt 60.8564 0.3265 2.3685
vt 56.5521 -0.9922 2.1652
vt 57.0566 0.3265 2.1886
vt 56.5521 0.3265 2.1653
vt 3.0648 -59.2220 0.3266
vt 3.4010 -59.2079 0.3267
vt 3.2194 -55.4457 0.3267
vt 2.8830 -55.4598 0.3266
vt 2.4168 0.3265 -59.7533
vt 2.4166 -0.9922 -59.7533
vt 3.0892 -0.9920 -59.7214
vt 3.0893 0.3267 -59.7214
vt 2.3922 -59.2539 0.3265
vt 2.4168 -59.7533 0.3265
vt 3.0893 -59.7214 0.3267
vt 2.2105 -55.4916 0.3265
vt 2.1869 -54.9922 0.3265
vt 2.8595 -54.9604 0.3267
vt -1.1768 -0.9922 -54.9922
vt -1.1769 0.3265 -54.9922
vt -1.8495 0.3267 -54.9604
vt -1.8494 -0.9920 -54.9604
vt 39.5940 -0.9922 1.4500
vt 39.5940 0.5225 1.4500
vt 39.0895 0.5225 1.4305
vt 31.9408 -0.9922 1.1626
vt 32.4455 0.5225 1.1810
vt 31.9408 0.5225 1.1627
vt -31.4354 0.6778 -1.0332
vt -31.4355 1.0866 -1.0332
vt -31.9400 1.0866 -1.0530
vt -35.7832 0.6778 -1.2086
vt -35.2785 1.0866 -1.1877
vt -35.7832 1.0866 -1.2086
vt -55.1095 1.4898 -1.0924
vt -55.1096 1.9922 -1.0924
vt -55.2777 1.9922 -1.1008
vt -59.8607 1.4898 -1.3414
vt -59.6926 1.9922 -1.3324
vt -59.8607 1.9922 -1.3416
vt 2.4541 -37.6631 0.5227
vt 2.2022 -31.0849 0.5227
vt 1.8658 -31.0990 0.5227
vt 2.1176 -37.6772 0.5227
vt -1.1033 55.5639 1.4898
vt -1.3548 60.2680 1.4898
vt -1.6909 60.2539 1.4898
vt -1.4395 55.5498 1.4898
vt -0.0544 32.6650 1.0864
vt -0.1905 35.9704 1.0864
vt -0.5268 35.9563 1.0864
vt -0.3907 32.6509 1.0864
vt -35.7832 -0.9918 -1.2086
vt -31.4354 -0.9918 -1.0332
vt 3.4012 0.6784 60.7180
vt 3.4011 1.4906 60.7180
vt 2.7287 1.4898 60.7532
vt 2.7288 0.6776 60.7533
vt -2.0862 1.4906 55.0152
vt -2.0862 0.6784 55.0153
vt -1.4138 0.6776 55.0505
vt -1.4138 1.4898 55.0505
vt -2.1120 55.5146 1.4906
vt -2.0862 55.0152 1.4906
vt -1.4138 55.0505 1.4898
vt -2.3634 60.2187 1.4906
vt -2.3911 60.7180 1.4906
vt -1.7187 60.7532 1.4898
vt -1.0435 0.6778 32.1242
vt -1.0435 -0.9918 32.1242
vt -0.3707 -0.9920 32.1514
vt -0.3707 0.6776 32.1514
vt -1.0435 1.0866 32.1242
vt -0.3707 1.0864 32.1514
vt -1.0635 32.6238 1.0866
vt -1.0435 32.1242 1.0866
vt -0.3707 32.1514 1.0864
vt -1.1996 35.9292 1.0866
vt -1.2207 36.4289 1.0866
vt -0.5480 36.4560 1.0864
vt 2.2307 0.6778 36.4289
vt 2.2307 1.0866 36.4289
vt 1.5580 1.0864 36.4560
vt 1.5580 0.6776 36.4560
vt 2.2307 -0.9918 36.4289
vt 1.5580 -0.9920 36.4560
vt 1.4645 0.5225 -38.2020
vt 1.4645 -0.9922 -38.2020
vt 2.1372 -0.9920 -38.1768
vt 2.1372 0.5227 -38.1768
vt 1.4448 -37.7025 0.5225
vt 1.4645 -38.2020 0.5225
vt 2.1372 -38.1768 0.5227
vt 1.1928 -31.1243 0.5225
vt 1.1743 -30.6245 0.5225
vt 1.8471 -30.5993 0.5227
vt -0.1642 -0.9922 -30.6245
vt -0.1643 0.5225 -30.6245
vt -0.8371 0.5227 -30.5993
vt -0.8371 -0.9920 -30.5993
vt -2.0862 0.6777 55.0153
vt -2.0863 -0.9920 55.0153
vt -1.4139 -0.9920 55.0505
vt 2.7288 -0.9920 60.7533
vt 3.4012 -0.9920 60.7180
vt -54.5554 -0.9920 -2.0657
vt -54.5554 0.6777 -2.0656
vt -55.0596 0.6777 -2.0930
vt -60.3152 -0.9920 -2.3676
vt -59.8108 0.6784 -2.3413
vt -60.3152 0.6784 -2.3676
vt -60.3151 1.4906 -2.3674
vt -59.8109 1.4906 -2.3400
vt -55.0597 1.4906 -2.0911
vt -54.5554 1.4906 -2.0656
vt -0.4394 55.7586 1.9922
vt -0.6734 60.1298 1.9922
vt -1.3457 60.1016 1.9922
vt -1.1118 55.7304 1.9922
vt -1.4380 2.4400 -21.0667
vt -0.9796 2.4400 -21.0665
vt -0.9350 2.9322 -21.0692
vt -1.0131 2.2400 -21.0644
vt -1.4380 2.2400 -21.0667
vt 0.7941 0.6503 0.4996
vt 0.8116 0.8419 0.4986
vt 0.1884 0.2673 0.4978
vt 0.2911 0.1581 0.5022
vt 0.2980 1.7706 0.4907
vt 0.7020 1.7706 0.5093
vt 0.7020 2.0885 0.5093
vt 0.2980 2.0885 0.4907
vt 0.2980 -0.4024 0.4907
vt 0.7020 -1.0885 0.5093
vt 0.7020 0.8998 0.5093
vt 0.6276 0.8998 0.5059
vt 0.3724 0.8998 0.4941
vt 0.2980 0.8998 0.4907
vt 0.2980 1.0463 0.4907
vt 0.3724 1.0463 0.4941
vt 0.6276 1.0463 0.5059
vt 0.7020 1.0463 0.5093
vt 0.4991 0.3722 0.4268
vt 0.5109 0.6273 0.4268
vt 0.5009 0.6278 0.4268
vt 0.4891 0.3727 0.4268
vt 0.5009 0.5732 0.3722
vt 0.5009 0.4268 0.3722
vt 0.5109 0.4268 0.3727
vt 0.5109 0.5732 0.3727
vt 0.4891 0.6273 0.5732
vt 0.5009 0.3722 0.5732
vt 0.5109 0.3727 0.5732
vt 0.4991 0.6278 0.5732
vt 0.5109 0.4268 0.6273
vt 0.5109 0.5732 0.6273
vt 0.5009 0.5732 0.6278
vt 0.5009 0.4268 0.6278
vt 0.0005 0.9995 0.9688
vt 0.0005 0.0005 0.9688
vt 0.9995 0.0005 0.0313
vt 0.9995 0.9995 0.0313
vt -2.3572 0.5844 0.4557
vt -0.9633 0.9165 0.5252
vt -2.0522 0.9165 0.4709
vt -2.3572 0.8280 0.4557
vt 4.5125 0.5844 0.7656
vt 6.2872 0.9165 0.8346
vt 5.1698 0.9165 0.7911
vt 4.5125 0.7070 0.7656
vt -5.2872 0.9165 0.2966
vt -4.0680 0.5844 0.3652
vt -4.0680 0.8280 0.3652
vt -4.0680 0.9165 0.3652
vt -2.3572 0.9165 0.4557
vt 4.5125 0.9165 0.7656
vt 2.1307 0.9165 0.6653
vt 3.2211 0.7070 0.7129
vt 3.2211 0.9165 0.7129
vt 3.2212 0.5844 0.7129
vt 0.4870 0.9165 0.5935
vt 0.5975 0.5982 3.0000
vt 0.4036 0.5975 3.0000
vt 0.4043 0.4036 3.0000
vt 0.5973 0.4034 3.0000
vt 0.9250 -2.0000 0.0750
vt 0.9250 2.4500 0.0750
vt 0.0750 2.4500 0.0750
vt 0.0750 -2.0000 0.0750
vt 0.9250 -2.0000 0.9250
vt 0.9250 2.4500 0.9250
vt 0.0750 2.4500 0.9250
vt 0.0750 -2.0000 0.9250
vt 0.7674 2.8167 0.2329
vt 0.6843 2.8167 0.2319
vt 0.7230 2.7777 0.2113
vt 0.7688 2.8167 0.7684
vt 0.6930 2.8167 0.7683
vt 0.7314 2.7786 0.7886
vt 0.2245 2.8167 0.2260
vt 0.3090 2.8167 0.2261
vt 0.3654 2.8733 0.2811
vt 0.4025 3.0000 0.4036
vt 0.1308 2.6333 0.1307
vt 0.2338 2.6333 0.1304
vt 0.2362 2.6484 0.1383
vt 0.2474 2.6488 0.8585
vt 0.2329 2.8167 0.7674
vt 0.1329 2.6333 0.8672
vt 0.2452 2.6347 0.8662
vt 0.7736 2.8167 0.2268
vt 0.6818 2.8167 0.2266
vt 0.7202 2.7782 0.2062
vt 0.7577 2.6333 0.1290
vt 0.8714 2.6333 0.1287
vt 0.8651 2.6333 0.8650
vt 0.7689 2.6333 0.8653
vt 0.2450 2.6333 0.8669
vt 0.3202 2.8167 0.7676
vt 0.3638 2.8604 0.7269
vt 0.7664 2.6484 0.8573
vt 0.4951 2.9081 0.3149
vt 0.6250 2.8734 0.2815
vt 0.5964 3.0000 0.4043
vt 0.6367 2.8616 0.2701
vt 0.2707 2.7784 0.2062
vt 0.2819 2.7782 0.7884
vt 0.7552 2.6488 0.1371
vt 0.7955 2.6342 0.1294
vt 0.6362 2.8734 0.7154
vt 0.5982 3.0000 0.5975
vt 0.3766 2.8733 0.7150
vt 0.4034 3.0000 0.5973
vt 0.5063 2.9081 0.6828
vt 0.2316 2.8167 0.7688
vt 0.3177 2.8167 0.7698
vt 0.3738 2.8725 0.7170
vt 0.4025 3.0000 0.5982
vt 0.1350 2.6333 0.8651
vt 0.2422 2.6333 0.8657
vt 0.2791 2.7778 0.7900
vt 0.2367 2.6333 0.1292
vt 0.2736 2.7782 0.2066
vt 0.2268 2.8167 0.2264
vt 0.1287 2.6333 0.1286
vt 0.7740 2.8167 0.7755
vt 0.6898 2.8167 0.7745
vt 0.7286 2.7782 0.7945
vt 0.8693 2.6333 0.8692
vt 0.7660 2.6333 0.8687
vt 0.7605 2.6333 0.1323
vt 0.8672 2.6333 0.1329
vt 0.3683 2.8733 0.2816
vt 0.4043 3.0000 0.4036
vt 0.3122 2.8167 0.2275
vt 0.5034 2.9080 0.6858
vt 0.5964 3.0000 0.5975
vt 0.6333 2.8733 0.7200
vt 0.4979 2.9080 0.3157
vt 0.6278 2.8728 0.2844
vt 0.5973 3.0000 0.4034
vt 0.3135 2.9083 0.3148
vt 0.1029 2.5417 0.1028
vt 0.9831 0.0208 0.0005
vt 0.3776 0.0195 0.0005
vt 0.3942 0.0005 0.0005
vt 0.9995 0.0020 0.0005
vt 0.9566 0.0512 0.0005
vt 0.3510 0.0500 0.0005
vt 0.3676 0.0310 0.0005
vt 0.9730 0.0324 0.0005
vt 0.0190 0.9678 0.9995
vt 0.0305 0.9488 0.9995
vt 0.4510 0.9504 0.9995
vt 0.4396 0.9692 0.9995
vt 0.4213 0.9995 0.9995
vt 0.0005 0.9983 0.9995
vt 0.0120 0.9794 0.9995
vt 0.4327 0.9807 0.9995
vt -0.1096 0.9165 0.4657
vt 1.1096 0.0835 0.5342
vt 1.1096 0.5844 0.5342
# 922 texture coords

g myv_52
usemtl 52_krohv_kollane
s off
f 1/1/1 2/2/1 3/3/1 4/4/1 
f 3/3/2 5/5/2 6/6/2 4/4/2 
f 4/4/1 6/6/1 7/7/1 8/8/1 
f 9/9/1 10/10/1 11/11/1 12/12/1 
f 12/12/1 11/11/1 13/13/1 14/14/1 
f 15/15/3 16/16/3 17/17/3 18/18/3 
f 19/19/4 20/20/4 21/21/4 22/22/4 
f 22/22/4 23/23/4 24/24/4 19/19/4 
f 25/25/5 26/26/5 27/27/5 28/28/5 
f 29/29/6 30/30/6 31/31/6 32/32/6 
f 33/33/7 34/34/7 35/35/7 36/36/7 
f 37/37/8 38/38/8 39/39/8 40/40/8 
f 41/41/9 1/42/9 4/43/9 42/44/9 
f 43/45/10 44/46/10 45/47/10 46/48/11 
f 47/49/10 45/47/10 44/46/10 
f 48/50/12 49/51/12 50/52/12 51/53/12 
f 52/54/12 48/50/12 51/53/12 
f 53/55/13 54/56/13 55/57/13 56/58/13 
f 57/59/13 55/57/13 54/56/13 
f 58/60/14 59/61/14 60/62/14 61/63/14 
f 62/64/14 58/60/14 61/63/14 
f 63/65/15 64/66/15 65/67/15 66/68/15 
f 67/69/7 68/70/7 69/71/7 70/72/7 
f 18/18/3 17/17/3 71/73/3 72/74/3 
f 16/16/3 15/15/3 73/75/3 74/76/3 
f 75/77/16 21/21/16 20/20/16 76/78/16 
f 77/79/17 75/77/17 76/78/17 78/80/17 
f 79/81/18 77/79/18 78/80/18 80/82/18 
f 81/83/19 82/84/19 83/85/19 
f 28/28/20 84/86/20 85/87/20 86/88/20 
f 81/83/20 27/27/20 87/89/20 82/84/20 
f 88/90/5 25/25/5 28/28/5 86/88/5 
f 89/91/5 87/89/5 27/27/5 26/26/5 
f 88/90/21 90/92/21 91/93/21 25/25/21 
f 29/29/22 92/94/22 93/95/22 94/96/22 
f 30/30/6 29/29/6 94/96/6 95/97/6 
f 31/31/6 96/98/6 32/32/6 
f 35/35/23 30/30/23 95/97/23 97/99/23 
f 31/31/23 34/34/23 98/100/23 96/98/23 
f 36/36/7 35/35/7 97/99/7 99/101/7 
f 34/34/7 33/33/7 100/102/7 98/100/7 
f 39/39/24 36/36/24 99/101/24 101/103/24 
f 33/33/24 38/38/24 102/104/24 100/102/24 
f 40/40/8 39/39/8 101/103/8 103/105/8 
f 38/38/25 37/37/25 104/106/25 102/104/25 
f 17/17/26 40/40/26 103/105/26 71/73/26 
f 37/37/27 16/16/27 74/76/27 104/106/27 
f 42/44/9 4/43/9 8/107/9 105/108/9 
f 1/42/9 41/41/9 106/109/9 2/110/9 
f 45/47/28 42/44/28 105/108/28 46/48/29 
f 41/41/29 47/49/29 107/111/29 106/109/29 
f 108/112/30 107/111/30 47/49/30 44/46/30 
f 44/46/31 52/54/31 109/113/31 108/112/31 
f 109/113/12 52/54/12 51/53/12 110/114/12 
f 55/57/32 50/52/32 111/115/32 112/116/32 
f 51/53/32 57/59/32 113/117/32 110/114/32 
f 55/57/13 112/116/13 56/58/13 
f 57/59/13 54/56/13 114/118/13 113/117/13 
f 54/56/33 62/64/33 115/119/33 114/118/33 
f 62/64/14 61/63/14 116/120/14 115/119/14 
f 65/67/34 60/62/34 117/121/34 118/122/34 
f 61/63/34 64/66/34 119/123/34 116/120/34 
f 66/68/15 65/67/15 118/122/15 120/124/15 
f 64/66/15 63/65/15 121/125/15 119/123/15 
f 69/71/35 66/68/35 120/124/35 122/126/35 
f 63/65/35 68/70/35 123/127/35 121/125/35 
f 70/72/7 69/71/7 122/126/7 124/128/7 
f 68/70/36 67/69/36 125/129/36 123/127/36 
f 15/15/37 70/72/37 124/128/37 73/75/37 
f 67/69/37 18/18/37 72/74/37 125/129/37 
f 92/94/38 126/130/38 127/131/38 91/93/38 
f 92/94/39 91/93/39 90/92/39 93/95/39 
f 13/13/1 5/5/1 3/3/1 14/14/1 
f 6/6/1 11/11/1 10/10/1 7/7/1 
f 128/132/16 23/23/16 22/22/16 129/133/16 
f 128/132/40 129/133/40 130/134/40 
f 131/135/38 127/131/38 126/130/38 
f 127/131/41 131/135/41 89/91/41 26/26/41 
usemtl krohv_valge
f 132/136/42 133/137/42 22/22/42 21/21/42 
f 134/138/43 132/136/43 21/21/43 75/77/43 
f 135/139/44 134/138/44 75/77/44 129/133/44 
f 133/137/45 135/139/45 129/133/45 22/22/45 
f 136/140/46 84/86/46 137/141/46 138/142/46 
f 138/142/46 137/141/46 139/143/46 81/83/46 
f 140/144/47 137/141/47 84/86/47 28/28/47 
f 141/145/48 140/144/48 28/28/48 27/27/48 
f 139/143/49 141/145/49 27/27/49 81/83/49 
f 142/146/50 143/147/50 26/26/50 25/25/50 
f 144/148/51 142/146/51 25/25/51 91/93/51 
f 145/149/52 144/148/52 91/93/52 127/131/52 
f 143/147/53 145/149/53 127/131/53 26/26/53 
f 146/150/54 147/151/54 31/31/54 30/30/54 
f 148/152/55 146/150/55 30/30/55 35/35/55 
f 149/153/56 148/152/56 35/35/56 34/34/56 
f 147/151/57 149/153/57 34/34/57 31/31/57 
f 150/154/58 151/155/58 33/33/58 36/36/58 
f 152/156/59 150/154/59 36/36/59 39/39/59 
f 153/157/60 152/156/60 39/39/60 38/38/60 
f 151/155/61 153/157/61 38/38/61 33/33/61 
f 154/158/62 155/159/62 37/37/62 40/40/62 
f 156/160/26 154/158/26 40/40/26 17/17/26 
f 157/161/26 156/160/26 17/17/26 16/16/26 
f 155/159/26 157/161/26 16/16/26 37/37/26 
f 158/162/63 159/163/63 41/41/63 42/44/63 
f 160/164/64 158/162/64 42/44/64 45/47/64 
f 161/165/65 160/164/65 45/47/65 47/49/65 
f 159/163/66 161/165/66 47/49/66 41/41/66 
f 162/166/67 163/167/67 43/45/67 164/168/67 
f 43/45/68 163/167/68 165/169/68 44/46/68 
f 165/169/69 166/170/69 52/54/69 44/46/69 
f 167/171/70 168/172/70 51/53/70 50/52/70 
f 169/173/71 167/171/71 50/52/71 55/57/71 
f 170/174/72 169/173/72 55/57/72 57/59/72 
f 168/172/73 170/174/73 57/59/73 51/53/73 
f 53/55/5 171/175/5 172/176/5 54/56/5 
f 54/56/74 172/176/74 173/177/74 
f 173/177/75 174/178/75 62/64/75 54/56/75 
f 175/179/76 176/180/76 61/63/76 60/62/76 
f 177/181/77 175/179/77 60/62/77 65/67/77 
f 178/182/78 177/181/78 65/67/78 64/66/78 
f 176/180/79 178/182/79 64/66/79 61/63/79 
f 179/183/54 180/184/54 63/65/54 66/68/54 
f 181/185/80 179/183/80 66/68/80 69/71/80 
f 182/186/56 181/185/56 69/71/56 68/70/56 
f 180/184/81 182/186/81 68/70/81 63/65/81 
f 183/187/82 184/188/82 67/69/82 70/72/82 
f 185/189/83 183/187/83 70/72/83 15/15/83 
f 186/190/84 185/189/84 15/15/84 18/18/84 
f 184/188/85 186/190/85 18/18/85 67/69/85 
f 187/191/86 188/192/86 77/79/86 79/81/86 
f 83/85/87 189/193/87 190/194/87 191/195/87 
f 192/196/87 191/195/87 190/194/87 79/81/87 
f 79/81/88 190/194/88 187/191/88 
f 193/197/89 194/198/89 92/94/89 29/29/89 
f 195/199/90 196/200/90 197/201/90 32/32/90 
f 32/32/78 197/201/78 193/197/78 29/29/78 
f 198/202/91 199/203/91 133/204/91 132/205/91 
f 200/206/92 198/207/92 132/208/92 134/209/92 
f 201/210/93 200/211/93 134/212/93 135/213/93 
f 202/214/94 203/215/94 204/216/94 188/217/94 
f 205/218/92 202/219/92 188/220/92 187/221/92 
f 206/222/93 205/223/93 187/224/93 190/225/93 
f 207/226/94 208/227/94 139/228/94 137/229/94 
f 209/230/92 207/231/92 137/232/92 140/233/92 
f 210/234/93 209/235/93 140/236/93 141/237/93 
f 211/238/95 212/239/95 143/240/95 142/241/95 
f 213/242/92 211/243/92 142/244/92 144/245/92 
f 214/246/96 213/247/96 144/248/96 145/249/96 
f 215/250/91 216/251/91 147/252/91 146/253/91 
f 217/254/92 215/255/92 146/256/92 148/257/92 
f 218/258/96 217/259/96 148/260/96 149/261/96 
f 219/262/97 220/263/97 151/264/97 150/265/97 
f 221/266/92 219/267/92 150/268/92 152/269/92 
f 222/270/93 221/271/93 152/272/93 153/273/93 
f 223/274/94 224/275/94 155/276/94 154/277/94 
f 225/278/92 223/279/92 154/280/92 156/281/92 
f 226/282/93 225/283/93 156/284/93 157/285/93 
f 227/286/93 228/287/93 159/288/93 158/289/93 
f 229/290/97 230/291/97 160/292/97 161/293/97 
f 228/294/92 229/295/92 161/296/92 159/297/92 
f 231/298/93 232/299/93 168/300/93 167/301/93 
f 233/302/91 234/303/91 169/304/91 170/305/91 
f 232/306/92 233/307/92 170/308/92 168/309/92 
f 235/310/93 236/311/93 176/312/93 175/313/93 
f 237/314/94 238/315/94 177/316/94 178/317/94 
f 236/318/92 237/319/92 178/320/92 176/321/92 
f 239/322/98 240/323/98 180/324/98 179/325/98 
f 241/326/94 242/327/94 181/328/94 182/329/94 
f 240/330/92 241/331/92 182/332/92 180/333/92 
f 243/334/93 244/335/93 184/336/93 183/337/93 
f 245/338/91 246/339/91 185/340/91 186/341/91 
f 244/342/92 245/343/92 186/344/92 184/345/92 
f 58/60/52 62/64/52 174/178/52 247/346/52 
f 248/347/99 247/346/99 174/178/99 
f 48/50/100 52/54/100 166/170/100 249/348/100 
f 249/348/101 166/170/101 250/349/101 251/350/101 
f 126/130/14 92/94/14 194/198/14 252/351/14 
f 252/351/14 194/198/14 253/352/14 254/353/14 
f 130/134/102 77/79/102 188/192/102 255/354/102 
f 204/355/103 255/354/103 188/192/103 
f 256/356/94 257/357/94 253/358/94 194/359/94 
f 258/360/92 256/361/92 194/362/92 193/363/92 
f 259/364/98 258/365/98 193/366/98 197/367/98 
f 260/368/104 259/364/104 197/367/104 196/369/104 
f 257/357/91 261/370/91 254/371/91 253/358/91 
f 262/372/93 263/373/93 165/374/93 163/375/93 
f 264/376/98 262/372/98 163/375/98 162/377/98 
f 265/378/105 266/379/105 251/380/105 250/381/105 
f 267/382/91 265/378/91 250/381/91 166/383/91 
f 263/384/106 267/385/106 166/386/106 165/387/106 
f 268/388/93 269/389/93 173/390/93 172/391/93 
f 270/392/94 271/393/94 248/394/94 174/395/94 
f 269/396/92 270/397/92 174/398/92 173/399/92 
f 5/5/107 272/400/107 273/401/107 6/6/107 
f 274/402/1 272/400/1 5/5/1 13/13/1 
f 13/13/2 11/11/2 275/403/2 274/402/2 
f 273/401/108 275/403/108 11/11/108 6/6/108 
f 276/404/109 277/405/109 273/406/109 272/407/109 
f 274/408/92 278/409/92 276/410/92 272/411/92 
f 279/412/110 278/413/110 274/414/110 275/415/110 
usemtl 52_krohv_kollane
f 129/133/17 75/77/17 77/79/17 130/134/17 
usemtl 52_oranz
s 1
f 265/416/111 267/417/112 280/418/112 281/419/111 
s off
f 282/420/113 280/418/113 267/417/113 263/421/113 
s 1
f 262/422/114 283/423/114 282/420/115 263/421/115 
s off
f 284/424/94 285/425/94 281/426/94 280/427/94 
f 286/428/106 284/429/106 280/430/106 282/431/106 
f 287/432/93 286/433/93 282/434/93 283/435/93 
usemtl krohv_valge
f 199/436/116 201/437/116 135/438/116 133/439/116 
f 208/440/116 210/441/116 141/442/116 139/443/116 
f 212/444/116 214/445/116 145/446/116 143/447/116 
f 216/448/116 218/449/116 149/450/116 147/451/116 
f 220/452/116 222/453/116 153/454/116 151/455/116 
f 224/456/116 226/457/116 157/458/116 155/459/116 
f 230/460/116 227/461/116 158/462/116 160/463/116 
f 234/464/116 231/465/116 167/466/116 169/467/116 
f 238/468/116 235/469/116 175/470/116 177/471/116 
f 242/472/116 239/473/116 179/474/116 181/475/116 
f 246/476/116 243/477/116 183/478/116 185/479/116 
f 275/480/116 273/481/116 277/482/116 279/483/116 
usemtl 52_krohv_kollane
f 2/2/117 288/484/117 289/485/117 3/3/117 
f 14/14/118 3/3/118 289/485/118 12/12/118 
f 290/486/119 12/12/119 289/485/119 
s 2
f 290/486/119 289/485/119 291/487/119 
usemtl krohv_valge
s off
f 289/488/120 288/489/120 292/490/120 293/491/120 
f 20/492/92 19/493/92 292/494/92 76/495/92 
f 78/496/92 76/495/92 292/494/92 80/497/92 
f 85/498/92 80/497/92 292/494/92 86/499/92 
f 88/500/92 86/499/92 292/494/92 90/501/92 
f 93/502/92 90/501/92 292/494/92 94/503/92 
f 95/504/92 94/503/92 292/494/92 97/505/92 
f 99/506/92 97/505/92 292/494/92 101/507/92 
f 103/508/121 101/507/121 292/494/121 71/509/121 
f 71/509/92 292/494/92 125/510/92 72/511/92 
f 125/510/92 292/494/92 121/512/92 123/513/92 
f 121/512/121 292/494/121 116/514/121 119/515/121 
f 116/514/92 292/494/92 114/516/92 115/517/92 
f 114/516/92 292/494/92 110/518/92 113/519/92 
f 110/518/92 292/494/92 108/520/92 109/521/92 
f 108/520/92 292/494/92 106/522/92 107/523/92 
f 106/522/92 292/494/92 288/524/92 2/525/92 
f 294/526/122 295/527/122 289/488/122 293/491/122 
f 291/487/123 289/485/123 295/528/123 296/529/123 
usemtl 52_krohv_oranz
f 255/354/17 297/530/17 298/531/17 130/134/17 
f 298/531/40 128/132/40 130/134/40 
f 24/24/4 23/23/4 299/532/4 300/533/4 
f 23/23/16 128/132/16 298/531/16 299/532/16 
f 131/135/124 301/534/124 302/535/124 89/91/124 
f 7/7/1 10/10/1 303/536/1 304/537/1 
f 8/8/1 7/7/1 304/537/1 305/538/1 
f 105/108/9 8/107/9 305/539/9 306/540/9 
f 46/48/29 105/108/28 306/540/28 307/541/28 
f 46/48/11 307/541/10 308/542/11 
f 309/543/44 111/115/44 310/544/44 311/545/44 
f 112/116/32 111/115/32 309/543/32 312/546/32 
f 312/546/13 313/547/13 314/548/13 112/116/13 
f 315/549/14 117/121/14 316/550/14 317/551/14 
f 118/122/34 117/121/34 315/549/34 318/552/34 
f 120/124/15 118/122/15 318/552/15 319/553/15 
f 122/126/35 120/124/35 319/553/35 320/554/35 
f 124/128/7 122/126/7 320/554/7 321/555/7 
f 73/75/37 124/128/37 321/555/37 322/556/37 
f 74/76/3 73/75/3 322/556/3 323/557/3 
f 104/106/26 74/76/26 323/557/26 324/558/26 
f 102/104/125 104/106/125 324/558/125 325/559/125 
f 100/102/24 102/104/24 325/559/24 326/560/24 
f 98/100/7 100/102/7 326/560/7 327/561/7 
f 96/98/23 98/100/23 327/561/23 328/562/23 
f 82/84/20 87/89/20 329/563/20 330/564/20 
f 87/89/5 89/91/5 302/535/5 329/563/5 
f 82/84/126 330/564/126 189/193/126 83/85/126 
f 330/564/127 331/565/127 189/193/127 
f 252/351/99 332/566/99 301/534/99 126/130/99 
f 126/130/128 301/534/128 131/135/128 
f 328/562/6 333/567/6 195/199/6 96/98/6 
f 32/32/6 96/98/6 195/199/6 
f 10/10/1 9/9/1 334/568/1 303/536/1 
usemtl 52_aken
f 279/569/1 277/570/1 276/571/1 278/572/1 
f 229/573/28 228/574/28 227/575/28 230/576/28 
usemtl 52_uks
s 1
f 285/577/129 284/573/129 286/578/129 287/579/129 
usemtl 52_aken
s off
f 233/573/32 232/580/32 231/579/32 234/577/32 
usemtl 52_uks2
f 270/573/33 269/581/33 268/582/33 271/570/33 
usemtl 52_aken
f 237/573/34 236/580/34 235/579/34 238/577/34 
f 241/583/35 240/580/35 239/579/35 242/576/35 
f 245/573/84 244/574/84 243/584/84 246/577/84 
f 226/579/26 224/577/26 223/573/26 225/580/26 
f 222/579/24 220/577/24 219/573/24 221/580/24 
f 218/579/23 216/577/23 215/573/23 217/580/23 
usemtl 52_aken2
f 214/585/130 212/586/130 211/587/130 213/588/130 
usemtl 52_aken
f 210/575/131 208/589/131 207/590/131 209/574/131 
usemtl 52_uks2
s 1
f 202/591/18 205/592/18 206/577/18 203/582/18 
usemtl 52_aken
s off
f 201/579/132 199/586/132 198/587/132 200/580/132 
usemtl katus_kivi
s 1
f 295/593/133 294/594/134 335/595/135 296/596/136 
f 336/597/135 296/596/136 335/595/135 
usemtl plekk_punane
s 4
f 337/598/137 338/599/138 339/600/138 340/601/137 
s 8
f 341/602/40 342/603/40 343/604/40 344/605/40 
s 16
f 345/606/93 346/607/93 344/608/139 343/609/140 
f 346/607/93 347/610/93 344/608/139 
s 64
f 348/611/94 342/612/94 341/613/94 349/614/94 
f 348/611/94 349/614/94 350/615/94 
s off
f 337/616/141 340/617/141 349/618/141 347/619/141 
f 347/610/142 346/607/142 338/620/142 337/621/142 
f 339/599/143 338/600/143 346/622/143 350/623/143 
f 349/614/144 340/624/144 339/625/144 350/615/144 
s 4
f 351/599/145 352/600/146 353/601/145 354/598/145 
s 8
f 355/602/147 356/603/147 357/604/147 358/605/147 
s 16
f 359/606/93 360/607/93 358/608/93 357/609/93 
f 360/607/93 361/610/93 358/608/93 
s 64
f 362/611/94 356/612/94 355/613/94 363/614/94 
f 362/611/94 363/614/94 364/615/94 
s off
f 354/616/148 353/617/148 363/618/148 361/619/148 
f 361/610/149 360/607/149 351/620/149 354/621/149 
f 352/599/150 351/600/150 360/622/150 364/623/150 
f 363/614/151 353/624/151 352/625/151 364/615/151 
s 4
f 365/601/152 366/598/152 367/599/152 368/600/152 
s 8
f 369/602/8 370/603/8 371/604/153 372/605/154 
s 16
f 373/606/93 374/607/93 372/608/93 371/609/93 
f 374/607/93 375/610/93 372/608/93 
s 64
f 376/611/94 370/612/94 369/613/94 377/614/94 
f 376/611/94 377/614/94 378/615/94 
s off
f 366/616/155 365/617/155 377/618/155 375/619/155 
f 375/610/156 374/607/156 367/620/156 366/621/156 
f 368/599/157 367/600/157 374/622/157 378/623/157 
f 377/614/158 365/624/158 368/625/158 378/615/158 
s 4
f 379/601/159 380/598/160 381/599/159 382/600/161 
s 8
f 383/602/162 384/603/162 385/604/162 386/605/162 
s 16
f 387/606/93 388/607/93 386/608/163 385/609/163 
f 388/607/93 389/610/93 386/608/163 
s 64
f 390/611/94 384/612/94 383/613/94 391/614/94 
f 390/611/94 391/614/94 392/615/94 
s off
f 380/616/164 379/617/164 391/618/164 389/619/164 
f 389/610/165 388/607/165 381/620/165 380/621/165 
f 382/599/166 381/600/166 388/622/166 392/623/166 
f 391/614/167 379/624/167 382/625/167 392/615/167 
s 4
f 393/599/168 394/600/168 395/601/169 396/598/169 
s 8
f 397/602/170 398/603/170 399/604/170 400/605/170 
s 16
f 401/606/93 402/607/93 400/608/93 399/609/93 
f 402/607/93 403/610/93 400/608/93 
s 64
f 404/611/94 398/612/105 397/613/94 405/614/94 
f 404/611/94 405/614/94 406/615/94 
s off
f 396/616/171 395/617/171 405/618/171 403/619/171 
f 403/610/172 402/607/172 393/620/172 396/621/172 
f 394/599/173 393/600/173 402/622/173 406/623/173 
f 405/614/174 395/624/174 394/625/174 406/615/174 
usemtl 52_aken_3
s 8
f 341/626/40 344/627/40 347/628/40 349/629/40 
f 355/630/147 358/631/147 361/632/147 363/591/147 
f 369/633/8 372/570/154 375/571/8 377/634/8 
f 383/630/162 386/631/162 389/632/162 391/591/162 
f 397/633/170 400/570/170 403/571/170 405/634/170 
usemtl 52_uks3
s off
f 257/635/22 259/636/22 260/582/22 261/637/22 
s 1
f 257/635/22 256/638/22 258/581/22 259/636/22 
usemtl kivi
s off
f 407/639/175 408/640/175 409/641/175 410/642/175 
f 410/642/176 409/641/176 411/643/176 412/644/176 
s 2
f 204/645/116 203/646/116 206/647/116 190/648/116 
s off
f 408/649/177 407/650/177 297/651/177 255/652/177 
f 409/653/178 408/654/178 255/655/178 204/645/178 
f 411/656/178 409/653/178 204/645/178 190/648/178 
f 412/657/178 411/656/178 190/648/178 189/658/178 
f 410/659/179 412/660/179 189/661/179 331/662/179 
f 413/663/180 414/664/180 415/665/180 416/666/180 
f 416/666/181 415/665/181 417/667/181 418/668/181 
f 419/669/182 420/670/182 421/671/182 422/672/182 
f 422/672/183 421/671/183 423/673/183 424/674/183 
f 266/675/184 265/676/184 281/677/184 264/678/184 
f 264/678/185 281/677/185 283/679/185 262/680/185 
f 261/681/116 260/682/116 196/683/116 254/684/116 
f 266/685/116 264/686/116 162/687/116 251/688/116 
f 271/689/116 268/690/116 172/691/116 248/692/116 
f 419/669/33 422/672/33 425/693/33 426/694/33 
f 427/695/186 428/696/186 164/697/186 429/698/187 
f 430/699/188 431/700/188 310/701/188 249/702/188 
f 432/703/189 430/704/189 249/705/189 251/688/189 
f 433/706/189 432/703/189 251/688/189 162/687/189 
f 428/707/189 433/706/189 162/687/189 164/708/189 
f 419/709/190 426/710/190 317/711/190 316/712/190 
f 420/713/190 419/709/190 316/712/190 247/714/190 
f 421/715/191 420/716/191 247/717/191 248/692/191 
f 423/718/191 421/715/191 248/692/191 172/691/191 
f 424/719/191 423/718/191 172/691/191 171/720/191 
f 422/721/192 424/722/192 171/723/192 314/724/192 
f 425/725/193 422/721/193 314/724/193 313/726/193 
f 414/727/194 413/728/194 332/729/194 252/730/194 
f 415/731/178 414/732/178 252/733/178 254/684/178 
f 417/734/178 415/731/178 254/684/178 196/683/178 
f 418/735/178 417/734/178 196/683/178 195/736/178 
f 416/737/195 418/738/195 195/739/195 333/740/195 
f 431/741/196 434/742/196 311/743/196 310/701/196 
s 1
f 429/698/187 308/744/187 435/745/197 427/695/197 
s 2
f 434/746/198 431/747/199 436/748/200 435/749/201 
f 435/749/201 436/748/200 437/750/202 427/751/203 
s 4
f 428/752/204 427/751/205 437/750/206 433/753/207 
s 1
f 433/753/208 437/750/209 436/748/210 432/754/211 
s 4
f 432/754/212 436/748/213 431/747/214 430/755/215 
s off
f 285/756/116 287/757/116 283/758/116 281/759/116 
usemtl 52_krohv_kollane
s 2
f 293/760/216 438/761/217 439/762/218 
s off
f 19/763/219 438/761/219 293/760/219 292/764/219 
usemtl krohv_valge
s 2
f 439/765/218 335/766/220 294/767/221 293/768/216 
usemtl 52_krohv_kollane
s off
f 84/769/19 79/770/19 80/771/19 85/772/19 
f 81/773/19 83/774/19 191/775/19 440/776/19 
f 81/773/126 440/776/126 441/777/126 138/778/126 
f 84/769/19 136/779/19 442/780/19 79/770/19 
f 79/770/126 442/780/126 443/781/126 192/782/126 
f 443/781/222 440/776/222 191/775/222 192/782/222 
f 441/777/222 442/780/222 136/779/222 138/778/222 
usemtl krohv_valge
f 444/783/92 445/784/92 441/785/92 440/786/92 
f 446/787/223 444/788/223 440/789/223 443/790/223 
f 447/791/116 446/792/116 443/793/116 442/794/116 
f 445/795/224 447/796/224 442/797/224 441/798/224 
usemtl 52
f 447/799/126 445/800/126 444/801/126 446/802/126 
usemtl 52_krohv_kollane
f 111/115/12 50/52/12 49/51/12 
f 117/121/14 60/62/14 59/61/14 
usemtl 52_krohv_oranz
f 310/803/12 111/804/12 49/805/12 249/806/12 
f 316/807/14 117/808/14 59/809/14 247/810/14 
f 46/811/225 429/812/225 164/813/10 43/814/10 
f 48/815/44 249/806/44 49/805/44 
f 58/816/226 247/810/226 59/809/226 
f 56/817/13 171/818/13 53/819/13 
f 314/820/13 171/818/13 56/817/13 112/821/13 
usemtl krohv_valge
s 4
f 448/822/116 449/823/116 450/824/116 451/825/116 
s 8
f 452/826/227 453/827/228 454/828/229 455/829/227 
s 16
f 456/830/230 457/831/231 453/832/232 452/833/230 
s 32
f 458/830/233 459/831/234 457/832/235 456/833/233 
s 64
f 455/826/236 454/827/237 459/828/238 458/829/236 
s 8
f 460/834/239 461/835/240 462/836/241 
s 16
f 463/837/242 464/838/243 465/839/244 
s 64
f 466/840/245 467/841/246 468/842/247 449/843/248 
f 469/844/249 470/845/250 471/846/251 
s 16
f 472/847/252 460/848/253 473/849/254 474/850/255 
s 64
f 475/851/256 476/852/257 477/853/258 
f 478/854/259 454/827/237 479/855/260 
s 16
f 457/831/231 480/856/261 481/857/262 453/832/232 
f 453/832/232 481/857/262 474/858/255 473/849/254 
f 460/848/253 482/859/263 483/860/264 
f 484/861/265 481/857/262 480/856/261 
f 463/837/242 465/839/244 484/861/265 480/856/261 
s 64
f 468/842/247 485/862/266 449/843/248 
f 485/862/266 486/863/267 450/864/268 449/843/248 
f 487/865/269 476/852/257 475/851/256 486/863/267 
f 486/863/267 475/851/256 450/864/268 
f 471/846/251 488/866/270 466/840/245 469/844/249 
f 488/866/270 467/841/246 466/840/245 
s 16
f 472/847/252 489/867/271 460/848/253 
f 489/867/271 482/859/263 460/848/253 
s 64
f 475/851/256 477/853/258 490/868/272 479/855/260 
f 490/868/272 478/869/259 479/855/260 
f 470/845/250 469/844/249 454/827/237 478/854/259 
f 469/844/249 459/828/238 454/827/237 
s 16
f 491/870/273 464/838/243 463/837/242 448/871/274 
f 460/848/253 483/860/264 492/872/275 451/873/276 
f 451/873/276 492/872/275 493/874/277 448/871/274 
f 493/874/277 491/870/273 448/871/274 
s 32
f 463/875/278 494/876/279 495/877/280 448/878/281 
f 463/875/278 480/879/282 496/880/283 497/881/284 
s 8
f 498/882/285 499/883/286 475/884/287 479/885/288 
s 32
f 466/886/289 500/887/290 501/888/291 
f 459/831/234 469/889/292 502/890/293 496/880/283 
s 8
f 498/882/285 479/885/288 454/828/229 503/891/294 
f 453/827/228 473/892/295 503/891/294 454/828/229 
f 504/893/296 450/894/297 475/884/287 505/895/298 
f 503/891/294 473/892/295 460/834/239 462/836/241 
s 32
f 448/878/281 495/877/280 506/896/299 449/897/300 
f 506/896/299 507/898/301 449/897/300 
f 466/886/289 449/897/300 507/898/301 500/887/290 
f 497/881/284 494/876/279 463/875/278 
s 8
f 499/883/286 505/895/298 475/884/287 
s 32
f 466/886/289 501/888/291 502/890/293 469/889/292 
f 496/880/283 480/879/282 457/832/235 459/831/234 
s 8
f 504/893/296 508/899/302 450/894/297 
f 508/899/302 509/900/303 451/901/304 450/894/297 
f 509/900/303 461/835/240 460/834/239 451/901/304 
s 1
f 496/840/305 484/829/306 465/833/307 497/851/308 
f 494/864/309 464/832/310 491/826/311 495/878/312 
s 2
f 497/851/313 465/833/314 464/832/315 494/864/316 
f 495/841/317 491/826/318 493/829/319 506/841/320 
s 1
f 461/879/321 509/897/322 483/901/323 482/849/324 
s 2
f 482/849/325 489/844/326 462/832/327 461/879/328 
s 1
f 489/844/329 472/851/330 503/843/331 462/832/332 
s 4
f 493/829/333 492/894/334 509/897/335 508/832/336 
s off
f 483/860/337 509/897/337 492/894/337 
s 4
f 510/902/338 503/843/338 474/848/339 496/840/340 
f 496/840/340 474/848/339 481/827/341 
s 1
f 470/828/342 478/869/343 511/903/344 502/828/345 
f 498/844/344 511/903/344 478/869/343 
s off
f 474/850/346 503/843/346 472/851/346 
f 484/861/347 496/840/347 481/827/347 
s 1
f 468/833/348 467/832/349 500/842/350 507/870/351 
s 2
f 467/832/352 488/830/353 501/827/354 500/842/355 
s 4
f 488/830/356 471/826/357 502/828/358 501/827/359 
s off
f 470/845/360 502/828/360 471/826/360 
s 2
f 485/830/361 468/833/362 507/870/363 506/875/320 
s 1
f 505/862/364 476/848/365 487/873/366 504/874/367 
s 2
f 499/855/368 477/840/369 476/848/370 505/862/371 
s 4
f 498/844/372 490/875/373 477/840/374 499/855/375 
s off
f 478/869/376 490/868/376 498/844/376 
s 16
f 504/874/377 486/871/378 485/830/379 508/832/380 
s off
f 486/863/381 504/874/381 487/873/381 
s 1
f 506/875/382 493/829/383 508/832/92 485/830/384 
s off
f 496/880/116 502/890/116 512/828/116 513/840/116 
f 511/903/116 514/903/116 512/828/116 502/828/116 
f 511/903/116 510/902/116 515/902/116 514/903/116 
f 496/840/116 513/840/116 515/902/116 510/902/116 
f 498/882/116 503/891/116 516/843/116 517/844/116 
f 510/902/116 518/902/116 516/843/116 503/843/116 
f 510/902/116 511/903/116 519/903/116 518/902/116 
f 498/844/116 517/844/116 519/903/116 511/903/116 
f 520/843/385 521/844/385 517/844/385 516/843/385 
f 522/902/386 520/843/386 516/843/386 518/902/386 
f 523/903/387 522/902/387 518/902/387 519/903/387 
f 521/844/388 523/903/388 519/903/388 517/844/388 
f 524/828/389 525/840/389 513/840/389 512/828/389 
f 526/903/388 524/828/388 512/828/388 514/903/388 
f 527/902/390 526/903/390 514/903/390 515/902/390 
f 525/840/386 527/902/386 515/902/386 513/840/386 
s 4
f 528/824/116 529/825/116 530/822/116 531/823/116 
s 8
f 532/826/391 533/827/392 534/828/393 535/829/391 
s 16
f 536/830/394 537/831/395 533/832/396 532/833/394 
s 32
f 538/830/397 539/831/398 537/832/399 536/833/397 
s 64
f 535/826/400 534/827/401 539/828/402 538/829/400 
s 8
f 540/834/403 541/835/404 542/836/405 
s 16
f 543/837/406 544/838/407 545/839/408 
s 64
f 546/840/409 547/841/410 548/842/411 531/843/412 
f 549/844/413 550/845/414 551/846/415 
s 16
f 552/847/416 540/848/417 553/849/418 554/850/419 
s 64
f 555/851/420 556/852/421 557/853/422 
f 558/854/423 534/827/401 559/855/424 
s 16
f 537/831/395 560/856/425 561/857/426 533/832/396 
f 533/832/396 561/857/426 554/858/419 553/849/418 
f 540/848/417 562/859/427 563/860/428 
f 564/861/429 561/857/426 560/856/425 
f 543/837/406 545/839/408 564/861/429 560/856/425 
s 64
f 548/842/411 565/862/430 531/843/412 
f 565/862/430 566/863/431 528/864/432 531/843/412 
f 567/865/433 556/852/421 555/851/420 566/863/431 
f 566/863/431 555/851/420 528/864/432 
f 551/846/415 568/866/434 546/840/409 549/844/413 
f 568/866/434 547/841/410 546/840/409 
s 16
f 552/847/416 569/867/435 540/848/417 
f 569/867/435 562/859/427 540/848/417 
s 64
f 555/851/420 557/853/422 570/868/436 559/855/424 
f 570/868/436 558/869/423 559/855/424 
f 550/845/414 549/844/413 534/827/401 558/854/423 
f 549/844/413 539/828/402 534/827/401 
s 16
f 571/870/437 544/838/407 543/837/406 530/871/438 
f 540/848/417 563/860/428 572/872/439 529/873/440 
f 529/873/440 572/872/439 573/874/441 530/871/438 
f 573/874/441 571/870/437 530/871/438 
s 32
f 543/875/442 574/876/443 575/877/444 530/878/445 
f 543/875/442 560/879/446 576/880/447 577/881/448 
s 8
f 578/882/449 579/883/450 555/884/451 559/885/452 
s 32
f 546/886/453 580/887/454 581/888/455 
f 539/831/398 549/889/456 582/890/457 576/880/447 
s 8
f 578/882/449 559/885/452 534/828/393 583/891/458 
f 533/827/392 553/892/459 583/891/458 534/828/393 
f 584/893/460 528/894/461 555/884/451 585/895/462 
f 583/891/458 553/892/459 540/834/403 542/836/405 
s 32
f 530/878/445 575/877/444 586/896/463 531/897/464 
f 586/896/463 587/898/465 531/897/464 
f 546/886/453 531/897/464 587/898/465 580/887/454 
f 577/881/448 574/876/443 543/875/442 
s 8
f 579/883/450 585/895/462 555/884/451 
s 32
f 546/886/453 581/888/455 582/890/457 549/889/456 
f 576/880/447 560/879/446 537/832/399 539/831/398 
s 8
f 584/893/460 588/899/466 528/894/461 
f 588/899/466 589/900/467 529/901/468 528/894/461 
f 589/900/467 541/835/404 540/834/403 529/901/468 
s 1
f 577/851/469 576/840/470 564/829/471 545/833/472 
f 574/864/473 544/832/474 571/826/475 575/878/476 
s 2
f 577/851/477 545/833/478 544/832/479 574/864/480 
f 575/841/481 571/826/482 573/829/483 586/841/484 
s 1
f 541/879/485 589/897/486 563/901/487 562/849/488 
s 2
f 541/879/489 562/849/490 569/844/491 542/832/492 
s 1
f 542/832/493 569/844/494 552/851/495 583/843/496 
s 4
f 588/832/497 573/829/498 572/894/499 589/897/500 
s off
f 563/860/501 589/897/501 572/894/501 
s 4
f 590/902/502 583/843/502 554/848/503 576/840/504 
f 576/840/504 554/848/503 561/827/505 
s 1
f 550/828/506 558/869/507 591/903/508 582/828/509 
f 578/844/508 591/903/508 558/869/507 
s off
f 554/850/510 583/843/510 552/851/510 
f 564/861/511 576/840/511 561/827/511 
s 1
f 547/832/512 580/842/513 587/870/514 548/833/515 
s 2
f 568/830/516 581/827/517 580/842/518 547/832/519 
s 4
f 581/827/520 568/830/521 551/826/522 582/828/523 
s off
f 550/845/524 582/828/524 551/826/524 
s 2
f 548/833/525 587/870/526 586/875/484 565/830/527 
s 1
f 585/862/528 556/848/529 567/873/530 584/874/531 
s 2
f 585/862/532 579/855/533 557/840/534 556/848/535 
s 4
f 579/855/536 578/844/537 570/875/538 557/840/539 
s off
f 558/869/540 570/868/540 578/844/540 
s 16
f 588/832/541 584/874/542 566/871/543 565/830/544 
s off
f 566/863/545 584/874/545 567/873/545 
s 1
f 588/832/92 565/830/546 586/875/92 573/829/547 
s off
f 592/828/116 593/840/116 576/880/116 582/890/116 
f 594/903/116 592/828/116 582/828/116 591/903/116 
f 595/902/116 594/903/116 591/903/116 590/902/116 
f 593/840/116 595/902/116 590/902/116 576/840/116 
f 596/843/116 597/844/116 578/882/116 583/891/116 
f 598/902/116 596/843/116 583/843/116 590/902/116 
f 599/903/116 598/902/116 590/902/116 591/903/116 
f 597/844/116 599/903/116 591/903/116 578/844/116 
f 600/843/548 601/844/548 597/844/548 596/843/548 
f 602/902/222 600/843/222 596/843/222 598/902/222 
f 603/903/96 602/902/96 598/902/96 599/903/96 
f 601/844/549 603/903/549 599/903/549 597/844/549 
f 604/828/550 605/840/550 593/840/550 592/828/550 
f 606/903/549 604/828/549 592/828/549 594/903/549 
f 607/902/97 606/903/97 594/903/97 595/902/97 
f 605/840/551 607/902/551 595/902/551 593/840/551 
usemtl must_tekstuur
s 2
f 522/904/116 523/905/116 521/906/116 520/907/116 
f 525/908/116 524/909/116 526/910/116 527/911/116 
f 603/912/116 601/913/116 600/914/116 602/915/116 
f 605/916/116 604/917/116 606/918/116 607/919/116 
usemtl 52_krohv_oranz
s off
f 46/920/11 308/921/11 429/922/11 
# 518 polygons - 94 triangles

#
# object xxx
#

v  542543.43 6589106.7238 8.7634
v  542540.7878 6589149.8532 8.7634
v  542540.7878 6589149.8532 8.9634
v  542543.43 6589106.7238 8.9634
v  542540.7878 6589149.8532 13.1547
v  542540.7878 6589149.8532 13.3436
v  542543.4301 6589106.7239 14.0315
v  542543.43 6589106.7238 5.0834
v  542540.7878 6589149.8532 5.0834
v  542538.58 6589106.7238 5.0834
v  542538.58 6589106.7238 8.7634
v  542538.6134 6589106.7217 8.9633
v  542538.6755 6589106.7179 9.6472
# 13 vertices

vn 0.9981 0.0611 0.0000
vn 0.9981 0.0611 -0.0001
vn 0.9981 0.0611 -0.0002
vn 0.0000 -1.0000 0.0000
vn 0.0002 -1.0000 -0.0053
vn 0.0012 -1.0000 -0.0005
vn 0.0012 -1.0000 0.0000
vn 0.0007 -1.0000 -0.0035
vn 0.0004 -1.0000 -0.0056
# 9 vertex normals

vt 0.9995 0.0006 0.4113
vt 0.4553 0.9995 0.4113
vt 0.4553 0.9995 0.4337
vt 0.9995 0.0006 0.4337
vt 0.4553 0.9995 0.9016
vt 0.4553 0.9995 0.9227
vt 0.9995 0.0006 0.9995
vt 0.9995 0.0006 0.0005
vt 0.4553 0.9995 0.0005
vt 0.0005 0.0006 0.0005
vt 0.0005 0.0006 0.4113
vt 0.0074 0.0006 0.4337
vt 0.0202 0.0005 0.5100
# 13 texture coords

g xxx
usemtl xxx
s off
f 608/923/552 609/924/552 610/925/552 611/926/552 
s 4
f 610/925/552 612/927/553 613/928/554 614/929/552 
f 611/926/552 610/925/552 614/929/552 
s off
f 608/923/552 615/930/552 616/931/552 609/924/552 
f 617/932/555 615/930/555 608/923/555 618/933/555 
f 611/926/556 619/934/556 618/933/556 608/923/556 
s 2
f 611/926/557 614/929/558 620/935/559 619/934/560 
# 6 polygons - 1 triangles

