# 3ds Max Wavefront OBJ Exporter v0.94b - (c)2007 guruware
# File Created: 04.01.2011 17:11:23

mtllib Myyrivahe_25.mtl

#
# object Myyrivahe_25
#

v  225.7778 -137.3676 17.9122
v  220.2294 -134.9115 19.6654
v  217.7424 -140.0510 19.6654
v  222.9841 -142.5874 17.9448
v  223.3280 -142.7538 7.2725
v  223.8839 -141.6778 7.2731
v  223.8776 -141.6747 7.6769
v  223.8640 -141.6682 8.5412
v  223.3081 -142.7442 8.5406
v  216.9650 -139.6748 7.1491
v  216.9507 -139.6679 8.4174
v  223.8598 -125.3896 8.4174
v  223.8741 -125.3965 7.1492
v  226.0819 -137.4135 7.2752
v  226.0620 -137.4038 8.5433
v  226.0258 -137.4838 8.5434
v  226.0458 -137.4934 7.2752
v  229.1055 -130.6735 7.2715
v  229.0856 -130.6639 8.5396
v  228.7119 -131.5363 8.5403
v  228.7319 -131.5459 7.2722
v  225.6508 -137.3031 17.8390
v  222.8579 -142.5264 17.8714
v  223.2019 -142.6928 15.3013
v  225.9196 -137.4324 15.3040
v  224.6382 -125.8002 19.6654
v  229.7088 -128.2538 17.9435
v  229.5829 -128.1919 17.8693
v  224.7363 -125.8137 15.1356
v  229.9398 -128.3316 15.2979
v  223.0076 -129.1700 19.6654
v  217.8272 -140.0920 15.1356
v  228.2432 -131.5143 17.8358
v  228.6057 -131.4849 15.3010
v  226.0726 -137.5043 15.0661
v  223.3549 -142.7647 15.0634
v  223.3563 -142.7654 14.9737
v  226.0741 -137.5049 14.9764
v  229.9421 -128.3328 15.1469
v  229.9435 -128.3335 15.0572
v  229.9449 -128.3342 14.9675
v  229.9464 -128.3348 14.8778
v  229.9478 -128.3355 14.7881
v  223.9182 -125.4179 14.6712
v  217.0091 -139.6962 14.6712
v  223.2042 -142.6939 15.1502
v  223.2056 -142.6946 15.0605
v  223.2070 -142.6953 14.9708
v  223.2085 -142.6960 14.8811
v  223.2099 -142.6967 14.7915
v  228.7587 -131.5568 15.0631
v  228.7601 -131.5575 14.9734
v  230.0928 -128.4035 15.0601
v  230.0942 -128.4042 14.9704
v  226.2470 -137.5861 15.2489
v  223.5292 -142.8465 15.2462
v  223.5307 -142.8472 15.1565
v  226.2484 -137.5868 15.1592
v  226.1938 -137.5611 15.1581
v  223.4761 -142.8215 15.1554
v  223.4775 -142.8222 15.0657
v  226.1952 -137.5618 15.0684
v  225.9276 -137.4362 14.7942
v  225.9262 -137.4356 14.8838
v  223.2839 -142.7314 14.8826
v  226.0017 -137.4710 14.8853
v  226.0003 -137.4703 14.9750
v  223.2825 -142.7307 14.9723
v  228.9331 -131.6386 15.2459
v  228.9345 -131.6393 15.1562
v  228.8799 -131.6137 15.1551
v  228.8813 -131.6144 15.0654
v  225.9637 -137.3563 14.7941
v  225.9623 -137.3556 14.8838
v  228.6878 -131.5235 14.8823
v  228.6864 -131.5228 14.9720
v  230.2671 -128.4854 15.2428
v  230.2686 -128.4860 15.1532
v  230.2140 -128.4604 15.1521
v  230.2154 -128.4611 15.0624
v  228.6137 -131.4888 14.7912
v  228.6123 -131.4881 14.8808
v  230.0218 -128.3703 14.8793
v  230.0204 -128.3696 14.9690
v  223.1486 -142.8161 15.0605
v  223.1500 -142.8168 14.9708
v  223.2255 -142.8522 14.9723
v  223.2241 -142.8515 15.0620
v  223.1751 -142.7634 14.9708
v  223.1765 -142.7641 14.8812
v  223.2519 -142.7995 14.8826
v  223.2505 -142.7988 14.9723
v  228.1186 -132.5813 14.8814
v  228.3747 -132.0141 14.8811
v  228.3803 -132.0168 14.8812
v  226.2175 -136.7906 14.8835
v  223.0683 -142.9834 15.1502
v  223.2175 -143.0535 15.1531
v  223.2161 -143.0528 15.2428
v  223.0669 -142.9828 15.2399
v  223.1056 -142.9040 15.1502
v  223.1070 -142.9046 15.0605
v  223.2563 -142.9747 15.0634
v  223.2549 -142.9740 15.1531
v  223.2811 -142.7300 15.0620
v  223.3401 -143.1111 15.1555
v  223.3387 -143.1104 15.2452
v  223.3789 -143.0323 15.0658
v  223.3775 -143.0316 15.1555
v  223.3947 -143.1367 15.1565
v  223.3933 -143.1360 15.2462
v  223.1722 -142.7621 15.1502
v  223.1708 -142.7614 15.2399
v  223.1737 -142.7627 15.0605
v  223.2491 -142.7982 15.0620
v  223.3229 -142.8328 15.0634
v  223.4455 -142.8904 15.0658
v  223.4441 -142.8897 15.1554
v  223.4987 -142.9153 15.1565
v  223.4973 -142.9146 15.2462
v  223.2978 -142.8862 15.0634
v  223.4204 -142.9437 15.0658
v  223.4190 -142.9430 15.1554
v  223.4736 -142.9687 15.1565
v  223.4722 -142.9680 15.2462
v  223.1458 -142.8147 15.2399
v  223.1472 -142.8154 15.1502
v  223.4320 -143.0572 15.1565
v  223.4306 -143.0565 15.2462
v  223.1042 -142.9033 15.2399
v  223.2152 -142.6992 14.4513
v  223.7923 -141.5822 14.4519
v  224.4799 -140.2514 14.4526
v  225.0647 -139.1193 14.4532
v  225.7694 -137.7554 14.4539
v  225.9330 -137.4388 14.4540
v  229.9531 -128.3381 14.4480
v  223.8424 -125.3812 14.3295
v  216.9333 -139.6595 14.3295
v  228.3753 -132.0167 14.7914
v  228.3806 -132.0193 14.4513
v  228.6191 -131.4914 14.4510
v  228.7893 -131.1084 14.4508
v  229.3578 -129.7382 14.4493
v  225.8006 -137.7705 12.4720
v  225.9641 -137.4539 12.4722
v  223.9642 -125.1295 14.3295
v  230.0749 -128.0864 14.4480
v  230.0993 -128.0982 12.8973
v  230.1060 -128.1015 12.4662
v  223.9548 -125.1249 12.3469
v  223.8330 -125.3766 12.3469
v  216.9239 -139.6550 12.3469
v  223.2464 -142.7143 12.4695
v  228.6434 -131.5032 12.9003
v  228.6502 -131.5064 12.4692
v  228.4118 -132.0344 12.4694
v  228.8137 -131.1201 12.9001
v  229.3821 -129.7500 12.8986
v  229.9775 -128.3499 12.8973
v  228.8228 -131.1035 12.4688
v  229.4125 -129.7265 12.4676
v  229.9843 -128.3532 12.4662
v  225.8159 -137.7779 11.4928
v  225.9795 -137.4613 11.4930
v  230.1214 -128.1089 11.4869
v  223.9499 -125.1226 11.3673
v  223.8281 -125.3743 11.3673
v  216.9190 -139.6526 11.3673
v  223.2617 -142.7218 11.4902
v  228.4272 -132.0418 11.4902
v  228.6656 -131.5139 11.4899
v  229.4146 -129.7275 12.3335
v  229.4279 -129.7339 11.4884
v  229.9996 -128.3606 11.4869
v  225.8466 -137.7927 9.5438
v  226.0101 -137.4762 9.5439
v  230.1456 -128.1206 9.9472
v  229.5872 -127.8504 9.9364
v  223.9704 -125.1325 9.4180
v  223.8486 -125.3842 9.4180
v  216.9395 -139.6625 9.4180
v  223.2924 -142.7366 9.5412
v  228.4578 -132.0566 9.5412
v  228.6962 -131.5287 9.5409
v  228.8382 -131.1110 11.4896
v  228.8249 -131.1045 12.3347
v  229.0699 -130.6563 9.5401
v  228.8463 -131.1149 10.9723
v  228.7760 -130.9538 11.4874
v  228.7823 -130.9568 11.0901
v  229.2775 -129.8004 11.0891
v  229.2713 -129.7974 11.4864
v  229.0634 -130.6532 9.9495
v  229.2599 -129.7919 12.2115
v  228.7646 -130.9483 12.2125
v  225.8623 -137.8004 8.5432
v  225.8656 -137.8020 8.3289
v  225.8750 -137.8065 7.7336
v  225.8822 -137.8100 7.2751
v  224.9603 -138.9302 14.3301
v  224.9877 -138.9435 12.5882
v  225.5822 -137.7928 12.5888
v  225.5548 -137.7795 14.3307
v  225.0959 -139.1344 12.4713
v  225.1113 -139.1418 11.4921
v  225.0188 -138.9589 11.3692
v  225.0456 -138.9719 9.6602
v  225.6401 -137.8212 9.6607
v  225.6133 -137.8082 11.3698
v  225.5227 -138.4885 7.7332
v  224.9645 -139.5689 7.7327
v  225.1775 -139.1739 7.2744
v  224.5110 -140.2664 12.4707
v  223.8177 -141.6457 11.4908
v  223.9915 -141.3093 11.4910
v  224.1653 -140.9728 11.4911
v  224.3391 -140.6363 11.4913
v  224.5130 -140.2999 11.4915
v  223.8235 -141.5973 12.4700
v  224.5436 -140.3147 9.5425
v  225.1419 -139.1567 9.5431
v  226.5024 -136.4823 7.2747
v  227.0877 -135.1864 7.2741
v  227.0813 -135.1833 7.6797
v  227.0713 -135.1785 8.3152
v  227.0678 -135.1768 8.5422
v  226.4825 -136.4726 8.5428
v  226.2243 -136.7938 14.4537
v  226.2554 -136.8089 12.4719
v  226.4208 -136.4427 12.4717
v  226.3896 -136.4277 14.4535
v  226.2708 -136.8163 11.4926
v  226.4362 -136.4502 11.4924
v  226.3014 -136.8312 9.5436
v  226.4668 -136.4650 9.5434
v  226.2753 -136.2444 14.3303
v  226.3027 -136.2577 12.5884
v  226.7892 -135.1806 12.5879
v  226.7618 -135.1673 14.3298
v  227.0214 -135.1543 11.4918
v  227.0060 -135.1469 12.4710
v  226.3341 -136.2725 11.3695
v  226.3610 -136.2855 9.6604
v  226.8474 -135.2084 9.6599
v  226.8206 -135.1954 11.3689
v  227.4360 -134.4152 7.2737
v  227.3728 -134.5380 7.6794
v  226.9749 -135.1318 14.4529
v  227.3543 -134.3757 12.4706
v  227.3232 -134.3606 14.4525
v  227.3697 -134.3831 11.4914
v  227.0520 -135.1692 9.5427
v  227.4003 -134.3980 9.5424
v  228.0265 -133.1078 7.2730
v  228.0201 -133.1048 7.6787
v  227.8505 -133.4802 7.6789
v  227.2089 -134.1774 14.3293
v  227.2363 -134.1906 12.5874
v  227.7279 -133.1020 12.5868
v  227.7006 -133.0888 14.3287
v  227.9602 -133.0758 11.4907
v  227.9448 -133.0683 12.4700
v  227.2677 -134.2055 11.3684
v  227.2945 -134.2184 9.6593
v  227.7862 -133.1298 9.6588
v  227.7594 -133.1168 11.3679
v  228.2382 -132.6389 7.2728
v  228.2183 -132.6293 8.5409
v  228.0065 -133.0982 8.5411
v  228.0101 -133.0999 8.3142
v  230.0238 -128.3723 9.9472
v  229.4360 -129.7379 10.9711
v  229.4521 -129.7456 9.9487
v  228.5271 -130.3936 8.5287
v  228.5114 -130.3860 9.5293
v  228.5050 -130.3829 9.9387
v  228.8936 -129.4754 9.9379
v  229.4654 -128.1021 9.9364
v  229.4875 -128.1128 8.5265
v  229.4718 -128.1052 9.5271
v  229.6093 -127.8611 8.5265
v  223.9816 -125.1379 8.4174
v  229.5936 -127.8535 9.5271
v  229.8601 -128.2931 8.5337
v  229.9819 -128.0414 8.5337
v  229.9662 -128.0338 9.5343
v  229.8444 -128.2855 9.5343
v  229.5075 -128.1225 7.2584
v  223.9959 -125.1448 7.1492
v  229.6293 -127.8707 7.2584
v  229.8380 -128.2824 9.9436
v  229.9597 -128.0307 9.9436
v  230.0018 -128.0510 7.2656
v  229.8800 -128.3027 7.2656
v  224.5727 -140.3288 7.6895
v  224.5793 -140.3319 7.2738
v  223.6250 -141.4561 11.2840
v  223.6525 -141.4693 9.5372
v  224.2744 -140.2656 9.5379
v  223.7791 -141.1544 11.3735
v  223.9341 -140.8533 11.4066
v  224.0900 -140.5526 11.3739
v  224.2469 -140.2524 11.2846
v  224.3022 -140.2791 7.7643
v  224.2901 -140.2733 8.5373
v  223.6682 -141.4769 8.5367
v  223.6805 -141.4829 7.7530
v  223.8483 -141.6605 9.5418
v  223.6802 -141.3891 14.3286
v  223.7075 -141.4024 12.5868
v  224.2850 -140.2848 12.5873
v  224.2576 -140.2715 14.3292
v  223.8493 -141.4765 14.3320
v  224.4267 -140.3589 14.3325
v  223.8766 -141.4898 12.5901
v  224.4541 -140.3721 12.5907
v  225.1217 -139.0136 14.3332
v  225.7162 -137.8629 14.3338
v  225.1491 -139.0269 12.5914
v  225.7436 -137.8762 12.5919
v  225.1682 -139.0361 11.3722
v  225.7627 -137.8855 11.3728
v  225.1951 -139.0491 9.6631
v  225.7896 -137.8984 9.6637
v  226.4683 -136.3325 12.5916
v  226.4409 -136.3192 14.3335
v  226.9548 -135.2554 12.5911
v  226.9274 -135.2421 14.3329
v  226.5143 -136.3547 9.6633
v  226.4874 -136.3418 11.3724
v  227.0008 -135.2776 9.6628
v  226.9739 -135.2646 11.3719
v  227.4019 -134.2654 12.5906
v  227.3745 -134.2522 14.3324
v  227.8935 -133.1768 12.5900
v  227.9137 -133.0533 14.4518
v  227.8661 -133.1635 14.3319
v  227.4479 -134.2877 9.6623
v  227.4210 -134.2747 11.3714
v  227.9908 -133.0906 9.5417
v  227.9395 -133.1991 9.6617
v  227.9127 -133.1861 11.3708
v  228.8916 -131.0037 11.0922
v  228.8854 -131.0006 11.4895
v  229.3869 -129.8472 11.0912
v  229.3806 -129.8442 11.4885
v  229.3692 -129.8387 12.2136
v  228.8740 -130.9951 12.2146
v  228.7218 -130.9663 14.3286
v  228.7423 -130.9763 13.0179
v  229.2299 -129.8009 13.0166
v  229.2094 -129.7910 14.3273
v  228.8316 -131.0119 14.3307
v  229.3192 -129.8365 14.3294
v  228.8522 -131.0218 13.0199
v  229.3398 -129.8465 13.0187
v  227.3628 -134.5331 8.3149
v  227.3698 -134.5081 8.5418
v  227.8405 -133.4753 8.3144
v  227.2621 -134.4877 8.3130
v  227.2721 -134.4925 7.6775
v  227.7499 -133.4347 7.6769
v  227.7399 -133.4299 8.3124
v  224.9881 -139.4925 8.5423
v  224.9551 -139.5644 8.3280
v  225.5133 -138.4839 8.3285
v  224.5593 -140.3223 8.5419
v  224.8202 -139.4947 8.3253
v  224.8295 -139.4992 7.7300
v  225.3877 -138.4187 7.7306
v  225.3784 -138.4142 8.3259
v  228.1201 -132.5818 14.7917
v  226.2189 -136.7912 14.7938
v  228.1254 -132.5844 14.4516
v  228.1566 -132.5994 12.4697
v  228.1720 -132.6069 11.4905
v  228.2026 -132.6217 9.5415
v  228.4735 -132.0642 8.5406
v  228.4934 -132.0739 7.2725
v  226.3171 -136.8388 8.5430
v  226.3371 -136.8484 7.2749
v  226.0002 -137.3739 12.4721
v  225.9691 -137.3589 14.4540
v  226.0156 -137.3814 11.4929
v  226.0462 -137.3962 9.5439
v  228.5470 -130.4033 7.2606
v  224.3226 -140.6727 11.3784
v  224.4794 -140.3725 11.2892
v  223.8850 -141.5895 9.5418
v  223.8576 -141.5762 11.2886
v  223.9007 -141.5971 8.5412
v  223.9130 -141.6030 7.7576
v  224.5347 -140.3993 7.7688
v  224.5226 -140.3934 8.5419
v  224.5069 -140.3858 9.5424
v  224.0116 -141.2746 11.3781
v  224.1666 -140.9734 11.4112
v  224.2063 -140.6127 11.3761
v  224.3632 -140.3124 11.2869
v  224.0503 -140.9133 11.4089
v  223.8954 -141.2145 11.3758
v  223.7413 -141.5161 11.2863
v  223.7687 -141.5294 9.5395
v  223.7845 -141.5370 8.5389
v  223.7968 -141.5430 7.7553
v  224.4185 -140.3392 7.7665
v  224.4063 -140.3333 8.5396
v  224.3906 -140.3257 9.5401
v  228.3678 -131.5834 17.9096
v  229.2972 -129.9103 17.3993
v  229.0016 -130.5104 17.6679
v  229.0465 -130.5157 15.2166
v  229.3447 -129.9004 15.1942
v  228.7144 -131.1146 17.3993
v  228.7484 -131.1310 15.2391
v  228.9182 -129.6940 15.1859
v  228.8707 -129.7039 17.3910
v  228.5751 -130.3040 17.6596
v  228.2879 -130.9082 17.3910
v  228.3219 -130.9247 15.2308
v  227.8638 -133.1168 17.4012
v  227.5682 -133.7169 17.6698
v  227.6132 -133.7222 15.2185
v  227.9114 -133.1069 15.1960
v  227.2811 -134.3211 17.4012
v  227.3150 -134.3375 15.2409
v  227.4849 -132.9005 15.1878
v  227.4373 -132.9104 17.3929
v  227.1417 -133.5105 17.6615
v  226.8546 -134.1147 17.3929
v  226.8885 -134.1311 15.2327
v  226.9591 -135.1423 17.4023
v  226.6635 -135.7424 17.6710
v  226.7085 -135.7477 15.2197
v  227.0067 -135.1324 15.1972
v  226.3764 -136.3466 17.4023
v  226.4103 -136.3630 15.2421
v  226.5802 -134.9260 15.1889
v  226.5326 -134.9359 17.3941
v  226.2370 -135.5360 17.6627
v  225.9499 -136.1402 17.3941
v  225.9838 -136.1566 15.2339
v  225.7026 -137.8487 17.4032
v  225.4070 -138.4488 17.6718
v  225.4520 -138.4541 15.2205
v  225.7502 -137.8388 15.1980
v  225.1198 -139.0530 17.4032
v  225.1538 -139.0694 15.2430
v  225.3237 -137.6324 15.1898
v  225.2761 -137.6423 17.3949
v  224.9805 -138.2424 17.6635
v  224.6933 -138.8466 17.3949
v  224.7273 -138.8630 15.2347
v  224.4267 -140.2502 17.3640
v  224.1311 -140.8503 17.6326
v  224.1761 -140.8556 15.1814
v  224.4742 -140.2403 15.1589
v  223.8439 -141.4545 17.3640
v  223.8779 -141.4709 15.2038
v  224.0477 -140.0339 15.1506
v  224.0002 -140.0438 17.3558
v  223.7046 -140.6439 17.6244
v  223.4174 -141.2481 17.3558
v  223.4514 -141.2645 15.1955
v  224.3528 -127.7360 20.2368
v  224.6928 -127.0332 20.2368
v  224.3663 -126.8752 20.2305
v  224.0262 -127.5780 20.2305
v  224.4037 -127.8495 19.3632
v  224.8134 -127.0027 19.3632
v  224.7941 -126.9934 20.5897
v  224.3844 -127.8401 20.5897
v  224.3429 -126.7750 19.3541
v  224.3236 -126.7657 20.5806
v  223.9332 -127.6218 19.3541
v  223.9139 -127.6125 20.5806
v  224.6873 -127.0305 20.5883
v  224.3472 -127.7333 20.5883
v  224.3608 -126.8725 20.5820
v  224.0207 -127.5753 20.5820
v  223.7063 -136.0939 19.9791
v  223.0036 -135.7539 19.9655
v  222.8456 -136.0804 19.9655
v  223.5483 -136.4204 19.9791
v  222.9273 -135.4603 17.9932
v  222.9079 -135.4509 19.2276
v  224.0263 -135.9921 19.2493
v  224.0457 -136.0015 18.0149
v  222.5680 -136.2027 17.9932
v  222.5486 -136.1933 19.2276
v  223.6865 -136.7439 18.0149
v  223.6671 -136.7345 19.2493
v  223.8076 -136.0540 20.3320
v  222.9610 -135.6443 20.3156
v  222.9981 -135.7512 20.3170
v  223.7008 -136.0912 20.3306
v  222.7332 -136.1149 20.3156
v  222.8401 -136.0778 20.3170
v  223.5799 -136.5246 20.3320
v  223.5427 -136.4178 20.3306
v  223.8247 -136.0623 19.2467
v  222.9780 -135.6526 19.2303
v  222.7503 -136.1232 19.2303
v  223.5970 -136.5329 19.2467
v  223.8441 -136.0717 18.0122
v  222.9974 -135.6620 17.9958
v  222.7697 -136.1326 17.9958
v  223.6163 -136.5423 18.0122
v  220.0494 -137.4571 20.2431
v  219.6678 -137.2725 20.2357
v  219.5098 -137.5991 20.2357
v  219.8914 -137.7837 20.2431
v  220.1371 -137.4107 19.3689
v  219.6773 -137.1882 19.3600
v  219.6581 -137.1789 20.5864
v  220.1178 -137.4014 20.5953
v  219.4496 -137.6588 19.3600
v  219.4303 -137.6495 20.5864
v  219.9094 -137.8813 19.3689
v  219.8901 -137.8719 20.5953
v  219.6623 -137.2698 20.5872
v  220.0439 -137.4545 20.5946
v  219.5043 -137.5964 20.5872
v  219.8858 -137.7810 20.5946
# 525 vertices

vn 0.0006 0.9546 0.2979
vn 0.0000 0.9557 0.2945
vn -0.0030 0.9548 0.2971
vn -0.0063 0.9539 0.3001
vn -0.0262 -0.0000 0.9997
vn -0.0000 0.0050 -1.0000
vn -1.0000 0.0000 -0.0000
vn 0.0265 -0.0000 0.9996
vn 0.0001 -0.0000 1.0000
vn 0.0460 0.0000 0.9989
vn 0.0363 0.0000 0.9993
vn -0.0001 0.1035 0.9946
vn -0.0391 0.1297 0.9908
vn -0.0357 0.1219 0.9919
vn 0.0013 0.1005 0.9949
vn 1.0000 0.0068 0.0022
vn 1.0000 0.0077 0.0025
vn 1.0000 0.0086 0.0017
vn 1.0000 0.0030 0.0006
vn 1.0000 0.0038 -0.0038
vn 0.0000 -0.0033 -1.0000
vn -0.0000 -0.0033 -1.0000
vn 0.0456 0.1076 0.9931
vn 0.0436 0.1128 0.9927
vn 0.0564 0.1218 0.9909
vn 0.0500 0.1301 0.9902
vn 0.0001 0.0000 1.0000
vn -0.0262 0.0000 0.9997
vn 1.0000 -0.0000 -0.0059
vn 1.0000 0.0000 -0.0059
vn 1.0000 0.0000 -0.0039
vn 1.0000 0.0000 -0.0000
vn 0.0000 0.8983 -0.4394
vn 0.0384 -0.0000 0.9993
vn 0.0504 -0.0000 0.9987
vn 0.0504 0.0000 0.9987
vn -0.0072 0.0000 1.0000
vn -0.0009 0.0000 1.0000
vn 0.0384 0.0000 0.9993
vn 0.0265 0.0000 0.9996
vn 0.0498 -0.0005 0.9988
vn -0.9999 0.0000 0.0117
vn 0.0000 -1.0000 -0.0000
vn 0.9999 0.0000 -0.0117
vn 0.9999 -0.0000 -0.0117
vn 0.9999 0.0000 -0.0118
vn -0.9999 0.0000 0.0118
vn 0.0085 0.9858 0.1677
vn 0.0065 0.9858 0.1678
vn 0.0064 0.9858 0.1678
vn -0.0000 0.9858 0.1678
vn 0.0001 0.9858 0.1678
vn -0.3258 0.9314 0.1624
vn -0.0545 0.9938 0.0966
vn -0.0117 0.0000 -0.9999
vn 0.0117 0.0000 0.9999
vn -0.2942 0.9535 0.0650
vn 0.0000 1.0000 -0.0000
vn -0.0000 0.2562 -0.9666
vn 0.0000 0.2562 -0.9666
vn -0.0000 0.1012 -0.9949
vn -0.0000 0.1404 -0.9901
vn 0.0336 0.0029 0.9994
vn 0.0390 0.0859 0.9955
vn 0.0549 -0.0183 0.9983
vn 0.0324 0.0000 0.9995
vn -0.0000 0.0229 -0.9997
vn 0.0294 0.0000 0.9996
vn 0.0357 -0.0013 0.9994
vn 0.0480 -0.0091 0.9988
vn 0.0511 0.0058 0.9987
vn 0.0258 0.0012 0.9997
vn 0.0460 0.0174 0.9988
vn 0.0490 0.0159 0.9987
vn 0.0281 0.0000 0.9996
vn -0.0000 0.0144 -0.9999
vn 0.0363 -0.0000 0.9993
vn 0.0511 -0.0000 0.9987
vn 0.0511 0.0000 0.9987
vn -0.0000 0.0055 -1.0000
vn -0.0000 0.0054 -1.0000
vn 0.0460 -0.0000 0.9989
vn 0.0521 0.0000 0.9986
vn 0.0000 0.0000 1.0000
vn 0.0000 -0.9995 0.0327
vn 0.0000 -0.9979 0.0654
vn 0.0000 0.0144 -0.9999
vn 0.0000 0.0058 -1.0000
vn 0.0000 0.0229 -0.9997
vn 0.0000 0.0227 -0.9997
vn 0.0000 0.0050 -1.0000
vn 0.0000 0.9979 -0.0654
vn 0.0000 0.9995 -0.0327
vn 0.0574 0.0000 0.9984
vn 0.0574 -0.0000 0.9984
vn 0.9997 0.0000 0.0262
vn -0.0000 1.0000 -0.0000
vn -0.9997 0.0000 -0.0262
vn 0.9996 0.0000 -0.0265
vn -0.9996 0.0000 0.0265
vn -0.2552 -0.9669 -0.0067
vn -0.0966 -0.9953 -0.0025
vn 0.0966 -0.9953 0.0025
vn 0.2552 -0.9669 0.0067
vn -0.0078 1.0000 -0.0002
vn 0.9989 0.0000 -0.0460
vn -0.9989 0.0000 0.0460
vn 0.9984 0.0000 -0.0574
vn -0.9984 0.0000 0.0574
vn 0.0068 0.9524 0.3049
vn -0.0000 0.9511 0.3090
vn 0.0040 0.9531 0.3026
vn 0.0096 0.9530 0.3027
vn -0.0235 -0.8954 0.4447
vn 0.0132 -0.8961 0.4436
vn 0.0398 -0.8926 0.4492
vn 0.9999 0.0134 -0.0000
vn 0.3727 0.9280 -0.0000
vn -0.3727 0.9280 -0.0000
vn -0.0000 -0.0000 1.0000
vn 0.0000 -0.0000 1.0000
vn -0.0000 0.0000 1.0000
vn 0.0000 0.0000 -1.0000
# 123 vertex normals

vt -0.4289 -0.8904 0.7033
vt -0.5318 2.1259 1.6327
vt -3.3866 2.1259 1.6327
vt -3.3866 -0.7702 0.7217
vt -15.3219 -11.9993 -6.0541
vt -12.9004 -11.9993 -6.1176
vt -12.9004 -11.1915 -6.1176
vt -12.9004 -9.3264 -6.1176
vt -15.3219 -9.7303 -6.0541
vt 8.4459 -7.8329 5.3167
vt 8.4459 -6.1418 5.3083
vt -7.4162 -6.1418 5.3083
vt -7.4162 -7.8329 5.3167
vt 3.8324 -7.8329 -10.2611
vt 3.8324 -6.1418 -10.2611
vt -3.2312 -6.1418 -10.2611
vt -3.2375 -7.8329 -10.2611
vt -2.9628 -11.9993 -6.3506
vt -2.9628 -9.7303 -6.3506
vt -3.4840 -9.7303 -6.3644
vt -3.4840 -11.9993 -6.3644
vt 11.4594 -11.9993 -5.9316
vt 11.4594 -9.7303 -5.9316
vt 9.5633 -9.7303 -6.0190
vt 9.5633 -11.9993 -6.0190
vt -0.4275 0.6679 -0.8186
vt -3.3866 0.6862 -0.6995
vt -3.3866 -0.6020 -0.8680
vt -0.4271 -0.6020 -0.9456
vt 2.9055 8.8329 10.8476
vt -2.5707 6.4062 10.8476
vt -2.6547 6.2662 10.8488
vt 2.8904 2.7919 10.8883
vt -2.8922 2.7919 10.8883
vt -1.6574 1.6327 2.1259
vt -3.5291 1.6327 2.1259
vt -3.5444 -0.6327 2.1184
vt 1.5318 1.6327 2.1259
vt 4.3866 1.6327 2.1259
vt 4.3866 -0.6327 2.1184
vt 3.5949 6.2646 -10.2611
vt 3.5108 6.4036 -10.2611
vt -2.1555 8.8329 -10.2611
vt 3.8324 2.7919 -10.2611
vt -2.1404 2.7919 -10.2611
vt 2.7425 0.6680 -0.7246
vt 2.8347 -0.6020 -0.8593
vt 4.5296 0.6868 -0.6043
vt 4.5444 -0.6020 -0.7729
vt -3.4801 3.5790 -6.6942
vt -15.3180 3.5790 -6.3839
vt -15.3180 3.3996 -6.3839
vt -3.4801 3.3996 -6.6942
vt -2.8922 2.6723 10.8883
vt -2.8922 2.5527 10.8883
vt -2.8922 2.4331 10.8883
vt -2.8922 2.3135 10.8883
vt -2.8922 2.1939 10.8883
vt 3.8072 2.1939 10.8883
vt -7.6958 3.8539 2.7919
vt 8.1662 3.8539 2.7919
vt 8.1662 5.0763 2.1939
vt -7.6958 5.0763 2.1939
vt -3.0572 2.1939 -10.2611
vt 3.8324 2.6723 -10.2611
vt 3.8324 2.5527 -10.2611
vt 3.8324 2.4331 -10.2611
vt 3.8324 2.3135 -10.2611
vt 3.8324 2.1939 -10.2611
vt 9.5671 3.5790 -6.3488
vt 9.5671 3.3996 -6.3488
vt 16.4061 3.5790 -6.0034
vt 16.4061 3.3996 -6.0034
vt -3.4755 3.9378 -7.0857
vt -15.3134 3.9378 -6.7754
vt -15.3134 3.7584 -6.7754
vt -3.4755 3.7584 -7.0857
vt -3.4769 3.7584 -6.9651
vt -15.3148 3.7584 -6.6548
vt -15.3148 3.5790 -6.6548
vt -3.4769 3.5790 -6.9651
vt -7.6959 2.1939 -4.1098
vt -1.7769 2.1939 -4.3167
vt -1.7769 2.3135 -4.3167
vt -7.6959 2.3135 -4.1098
vt -15.3199 3.2202 -6.2208
vt -3.4820 3.2202 -6.5311
vt -3.4820 3.3996 -6.5311
vt -15.3199 3.3996 -6.2208
vt 9.5717 3.9378 -6.7403
vt 9.5717 3.7584 -6.7403
vt 9.5703 3.7584 -6.6197
vt 9.5703 3.5790 -6.6197
vt -1.6892 2.1939 -4.3136
vt -1.6892 2.3135 -4.3136
vt 9.5652 3.2202 -6.1858
vt 9.5652 3.3996 -6.1858
vt 16.4107 3.9378 -6.3950
vt 16.4107 3.7584 -6.3950
vt 16.4093 3.7584 -6.2743
vt 16.4093 3.5790 -6.2743
vt 4.7467 2.1939 -4.0864
vt 8.1662 2.1939 -3.8562
vt 8.1662 2.3135 -3.8562
vt 4.7467 2.3135 -4.0864
vt 16.4042 3.2202 -5.8404
vt 16.4042 3.3996 -5.8404
vt 7.0573 3.5790 -15.5903
vt 7.0573 3.3996 -15.5903
vt 7.2240 3.3996 -15.5883
vt 7.2240 3.5790 -15.5883
vt 7.0559 3.3996 -15.4724
vt 7.0559 3.2202 -15.4724
vt 7.2226 3.2202 -15.4704
vt 7.2226 3.3996 -15.4704
vt 16.3219 -6.0541 3.2202
vt 4.4840 -6.3644 3.2202
vt 4.4820 -6.5311 3.2202
vt 16.3199 -6.2208 3.2202
vt -7.2884 -6.0528 3.2202
vt -7.9499 -6.0353 3.2202
vt -7.9500 -6.0475 3.2202
vt -2.3800 -6.1827 3.2202
vt 1.4186 -6.2833 3.2202
vt -8.5652 -6.1858 3.2202
vt -8.5633 -6.0190 3.2202
vt -15.4023 -5.6737 3.2202
vt -15.4042 -5.8404 3.2202
vt -5.6737 3.2202 16.4023
vt -5.6737 3.3996 16.4023
vt -5.8404 3.3996 16.4042
vt -5.8404 3.2202 16.4042
vt 16.3199 -6.2208 3.3996
vt 4.4820 -6.5311 3.3996
vt 4.4801 -6.6942 3.3996
vt 16.3180 -6.3839 3.3996
vt -8.5652 -6.1858 3.3996
vt -8.5671 -6.3488 3.3996
vt -15.4042 -5.8404 3.3996
vt -15.4061 -6.0034 3.3996
vt -5.6737 3.5790 16.4023
vt -6.0034 3.5790 16.4061
vt -6.0034 3.3996 16.4061
vt 7.0616 3.7584 -15.9615
vt 7.3914 3.7584 -15.9576
vt 7.3914 3.9378 -15.9576
vt 7.0616 3.9378 -15.9615
vt 7.0596 3.7584 -15.7859
vt 7.0596 3.5790 -15.7859
vt 7.3893 3.5790 -15.7821
vt 7.3893 3.7584 -15.7821
vt 7.2208 3.5790 -15.3199
vt 7.2208 3.3996 -15.3199
vt 7.3839 3.3996 -15.3180
vt 7.3839 3.5790 -15.3180
vt 16.3180 -6.3839 3.5790
vt 4.4801 -6.6942 3.5790
vt 4.4769 -6.9651 3.5790
vt 16.3148 -6.6548 3.5790
vt -8.5671 -6.3488 3.5790
vt -8.5703 -6.6197 3.5790
vt -15.4061 -6.0034 3.5790
vt -15.4093 -6.2743 3.5790
vt -5.6737 3.7584 16.4023
vt -6.2743 3.7584 16.4093
vt -6.2743 3.5790 16.4093
vt 7.6623 3.7584 -15.9545
vt 7.6623 3.9378 -15.9545
vt 7.6602 3.5790 -15.7789
vt 7.6602 3.7584 -15.7789
vt 16.3148 -6.6548 3.7584
vt 4.4769 -6.9651 3.7584
vt 4.4755 -7.0857 3.7584
vt 16.3134 -6.7754 3.7584
vt -8.5703 -6.6197 3.7584
vt -8.5717 -6.7403 3.7584
vt -15.4093 -6.2743 3.7584
vt -15.4107 -6.3950 3.7584
vt -5.6737 3.9378 16.4023
vt -6.3950 3.9378 16.4107
vt -6.3950 3.7584 16.4107
vt 4.5444 -0.7729 -0.6020
vt 2.8347 -0.8593 -0.6020
vt 2.8368 -1.0396 -0.6327
vt 4.5465 -0.9532 -0.6327
vt -0.4271 -0.9456 -0.6020
vt -0.4250 -1.1259 -0.6327
vt -3.3866 -0.8680 -0.6020
vt -3.3845 -1.0483 -0.6327
vt 7.7829 3.7584 -15.9530
vt 7.7829 3.9378 -15.9530
vt 16.3219 3.9378 -6.0541
vt 16.3219 3.7584 -6.0541
vt 16.4724 3.7584 -6.0559
vt 16.4724 3.9378 -6.0559
vt 16.3219 3.5790 -6.0541
vt 16.4724 3.5790 -6.0559
vt 16.3219 3.3996 -6.0541
vt 16.4724 3.3996 -6.0559
vt 16.3219 3.2202 -6.0541
vt 16.4724 3.2202 -6.0559
vt 16.4704 -6.2226 3.2202
vt 16.4724 -6.0559 3.2202
vt -15.4704 3.3996 -6.2226
vt -15.4704 3.2202 -6.2226
vt -15.3199 3.5790 -6.2208
vt -15.4704 3.5790 -6.2226
vt 16.3199 -6.2208 3.5790
vt 16.4685 -6.3857 3.5790
vt 16.4704 -6.2226 3.5790
vt 16.4653 -6.6566 3.5790
vt -15.4653 3.7584 -6.6566
vt -15.4653 3.5790 -6.6566
vt 16.4639 -6.7772 3.7584
vt 16.4653 -6.6566 3.7584
vt -15.4639 3.9378 -6.7772
vt -15.4639 3.7584 -6.7772
vt -3.4243 -0.8685 -0.6327
vt -3.4221 -1.0488 -0.6327
vt 16.4724 -6.0559 3.3996
vt 16.4704 -6.2226 3.3996
vt 16.5883 -6.2240 3.3996
vt 16.5903 -6.0573 3.3996
vt -15.5883 3.5790 -6.2240
vt -15.5883 3.3996 -6.2240
vt 16.5864 -6.3870 3.5790
vt 16.5883 -6.2240 3.5790
vt 16.5832 -6.6579 3.5790
vt -15.5832 3.7584 -6.6579
vt -15.5832 3.5790 -6.6579
vt 16.5818 -6.7785 3.7584
vt 16.5832 -6.6579 3.7584
vt -15.5818 3.9378 -6.7785
vt -15.5818 3.7584 -6.7785
vt -3.4537 -0.8688 -0.6327
vt -3.4516 -1.0491 -0.6327
vt 16.5903 3.7584 -6.0573
vt 16.5903 3.9378 -6.0573
vt 16.5903 3.5790 -6.0573
vt 16.5903 3.3996 -6.0573
vt 16.7821 -6.3893 3.5790
vt 16.5903 -6.0573 3.5790
vt 16.7859 -6.0596 3.5790
vt 16.7789 -6.6602 3.5790
vt -15.7789 3.7584 -6.6602
vt -15.7789 3.5790 -6.6602
vt 16.7775 -6.7808 3.7584
vt 16.7789 -6.6602 3.7584
vt -15.7775 3.9378 -6.7808
vt -15.7775 3.7584 -6.7808
vt -3.5026 -0.8694 -0.6327
vt -3.5005 -1.0497 -0.6327
vt 16.7859 3.7584 -6.0596
vt 16.7859 3.9378 -6.0596
vt 16.7859 3.5790 -6.0596
vt 16.7859 -6.0596 3.7584
vt 16.7821 -6.3893 3.7584
vt 16.9576 -6.3914 3.7584
vt 16.9615 -6.0616 3.7584
vt 16.9545 -6.6623 3.7584
vt 16.9530 -6.7829 3.7584
vt -15.9530 3.9378 -6.7829
vt -15.9530 3.7584 -6.7829
vt -3.5465 -0.8699 -0.6327
vt -3.5456 -0.9524 -0.6327
vt -3.5448 -1.0201 -0.6327
vt -3.5444 -1.0502 -0.6327
vt 16.9615 3.7584 -6.0616
vt 16.9615 3.9378 -6.0616
vt -7.6959 1.7403 -4.1098
vt -6.4390 1.7403 -4.1538
vt -4.9415 1.7403 -4.2061
vt -3.6678 1.7403 -4.2506
vt -2.1331 1.7403 -4.3042
vt -1.7769 1.7403 -4.3167
vt -2.8922 1.7403 10.8883
vt 3.8974 1.7403 10.8883
vt 8.4459 2.1939 5.0763
vt -7.4162 2.1939 5.0763
vt -7.4162 1.7403 5.1965
vt 8.4459 1.7403 5.1965
vt 3.8324 1.7403 -10.2611
vt -3.1474 1.7403 -10.2611
vt 4.1676 2.1939 -4.1069
vt 4.1676 1.7403 -4.1069
vt 4.7467 1.7403 -4.0864
vt 5.0154 1.7403 -4.0684
vt 6.7014 1.7403 -3.9548
vt 8.1662 1.7403 -3.8562
vt -2.1331 -0.9026 -4.3042
vt -1.7769 -0.9026 -4.3167
vt 3.8974 1.7403 11.2611
vt -2.8922 1.7403 11.2611
vt -2.8922 -0.3276 11.2611
vt -2.8922 -0.9026 11.2611
vt 3.9424 -0.9026 11.2611
vt -7.4162 -0.9026 5.2566
vt 8.4459 -0.9026 5.2566
vt 3.8324 -0.9026 -10.2611
vt -3.1924 -0.9026 -10.2611
vt 4.7467 -0.3276 -4.0864
vt 4.7467 -0.9026 -4.0864
vt 4.1676 -0.9026 -4.1069
vt 5.0154 -0.3276 -4.0684
vt 6.7014 -0.3276 -3.9548
vt 8.1662 -0.3276 -3.8562
vt 5.1846 -0.9026 -4.0595
vt 6.6810 -0.9026 -3.9676
vt 8.1662 -0.9026 -3.8562
vt -2.1331 -2.2084 -4.3042
vt -1.7769 -2.2084 -4.3167
vt -2.8922 -2.2084 11.2611
vt 3.9650 -2.2084 11.2611
vt -7.4162 -2.2084 5.2866
vt 8.4459 -2.2084 5.2866
vt -3.2150 -2.2084 -10.2611
vt 3.8324 -2.2084 -10.2611
vt 4.1676 -2.2084 -4.1069
vt 4.7467 -2.2084 -4.0864
vt 6.6810 -1.0814 -3.9676
vt 6.6810 -2.2084 -3.9676
vt 8.1662 -2.2084 -3.8562
vt -2.1331 -4.8075 -4.3042
vt -1.7769 -4.8075 -4.3167
vt -2.8922 -4.2616 11.2611
vt -2.2717 -4.2616 11.2611
vt 3.9762 -4.8075 11.2611
vt -7.4162 -4.8075 5.3017
vt 8.4459 -4.8075 5.3017
vt -3.2262 -4.8075 -10.2611
vt 3.8324 -4.8075 -10.2611
vt 4.1676 -4.8075 -4.1069
vt 4.7467 -4.8075 -4.0864
vt 5.1846 -2.2084 -4.0595
vt 5.1846 -1.0814 -4.0595
vt 5.6948 -4.8075 -4.0282
vt 5.1846 -2.8983 -4.0595
vt 0.0805 0.3786 0.2527
vt 0.0805 0.0884 0.3457
vt 0.9195 0.0918 0.9169
vt 0.9195 0.3820 0.8240
vt 5.6948 -4.2616 -4.0282
vt 0.9195 0.9116 0.6543
vt 0.0805 0.9082 0.0831
vt -4.1964 -8.6763 -6.3457
vt -4.1964 -9.8914 -6.3457
vt -4.1964 -11.0821 -6.3457
vt -4.1964 -11.9993 -6.3457
vt 0.0786 0.9390 0.9382
vt 0.0786 0.0610 0.0610
vt 0.9214 0.0610 0.0618
vt 0.9214 0.9390 0.9390
vt -3.6678 -0.9026 -4.2506
vt -3.6678 -2.2084 -4.2506
vt 0.0786 0.9380 0.4502
vt 0.0786 0.0628 0.0714
vt 0.9214 0.0620 0.5498
vt 0.9214 0.9372 0.9286
vt -5.7311 -11.0821 -6.3055
vt -8.1625 -11.0821 -6.2418
vt -7.2658 -11.9993 -6.2653
vt -4.9415 -0.9026 -4.2061
vt -7.6959 -0.9026 -4.1098
vt -7.6959 -2.2084 -4.1098
vt -6.4851 -2.2084 -4.1521
vt -6.1065 -2.2084 -4.1654
vt -5.7280 -2.2084 -4.1786
vt -5.3494 -2.2084 -4.1918
vt -4.9708 -2.2084 -4.2051
vt -6.4390 -0.9026 -4.1538
vt -4.9708 -4.8075 -4.2051
vt -3.6678 -4.8075 -4.2506
vt -1.2658 -11.9993 -6.3057
vt 1.5770 -11.9993 -6.2304
vt 1.5770 -11.1879 -6.2304
vt 1.5770 -9.9167 -6.2304
vt 1.5770 -8.6890 -6.2304
vt -1.2658 -9.7303 -6.3057
vt -1.0694 1.7403 -4.2917
vt -1.0694 -0.9026 -4.2917
vt -0.6678 -0.9026 -4.2775
vt -0.6678 1.7403 -4.2775
vt -1.0694 -2.2084 -4.2917
vt -0.6678 -2.2084 -4.2775
vt -1.0694 -4.8075 -4.2917
vt -0.6678 -4.8075 -4.2775
vt 0.0848 0.9385 0.9227
vt 0.0848 0.0610 0.6451
vt 0.9152 0.0615 0.0773
vt 0.9152 0.9390 0.3549
vt 0.7536 -2.2084 -4.2274
vt 0.7536 -0.9026 -4.2274
vt 0.0848 0.9379 0.9334
vt 0.0848 0.0620 0.2332
vt 0.9152 0.0621 0.0666
vt 0.9152 0.9380 0.7668
vt 3.2688 -11.9993 -6.1856
vt 2.9927 -11.1879 -6.1930
vt 0.7536 1.7403 -4.2274
vt 1.5995 -0.9026 -4.1975
vt 1.5995 1.7403 -4.1975
vt 1.5995 -2.2084 -4.1975
vt 0.7536 -4.8075 -4.2274
vt 1.5995 -4.8075 -4.1975
vt 6.1369 -11.9993 -6.1097
vt 6.1369 -11.1879 -6.1097
vt 5.3133 -11.1879 -6.1315
vt 0.0841 0.9390 0.9234
vt 0.0841 0.0616 0.6474
vt 0.9159 0.0621 0.0770
vt 0.9159 0.9396 0.3530
vt 3.0335 -2.2084 -4.1469
vt 3.0335 -0.9026 -4.1469
vt 0.0841 0.9379 0.9335
vt 0.0841 0.0620 0.2345
vt 0.9159 0.0621 0.0665
vt 0.9159 0.9380 0.7655
vt 7.2059 -11.9993 -6.0814
vt 7.2059 -9.7303 -6.0814
vt 6.1369 -8.6890 -6.1097
vt 6.1369 -9.9167 -6.1097
vt 8.1662 -4.2616 -3.8562
vt 6.6810 -2.8983 -3.9676
vt 6.6810 -4.2616 -3.9676
vt -3.0211 -6.1418 7.5931
vt -2.4007 -6.1418 7.5931
vt -2.4007 -4.8075 7.5931
vt -3.0211 -4.8075 7.5931
vt -3.0211 -4.2616 7.5931
vt -2.4007 -4.2616 7.5931
vt -7.4162 -3.8562 -4.2616
vt -5.9310 -3.9676 -4.2616
vt -5.9310 -3.1403 -4.2616
vt -7.4162 -3.0289 -4.2616
vt -4.9448 -4.0282 -4.2616
vt -4.9448 -3.2009 -4.2616
vt 0.0005 0.4728 0.9189
vt 0.9995 0.4744 0.0730
vt 0.9995 0.8471 0.1303
vt 0.0005 0.8454 0.9761
vt 0.0005 0.9978 0.9995
vt 0.9995 0.9995 0.1537
vt -2.2717 -6.1418 11.2611
vt 3.9812 -6.1418 11.2611
vt -2.2717 -4.8075 11.2611
vt 8.1662 5.1965 1.7403
vt 8.1662 -3.8562 1.7403
vt 8.4459 -3.8562 1.7403
vt 8.4459 5.1965 1.7403
vt 8.4459 -0.3276 -3.8562
vt 8.4459 1.7403 -3.8562
vt 8.4459 -0.9026 -3.8562
vt 8.4459 -2.2084 -3.8562
vt 8.4459 -4.2616 -3.8562
vt -7.6958 -3.0289 -4.2616
vt -7.6958 -3.8562 -4.2616
vt -7.4162 5.3017 -4.8075
vt -7.6959 5.3017 -4.8075
vt -7.6959 -2.2084 5.2866
vt -7.6959 -4.8075 5.3017
vt -7.6959 -0.9026 5.2566
vt -7.6959 1.7403 5.1965
vt 8.1662 -6.1418 -3.5808
vt 8.4459 -6.1418 -3.5808
vt 8.4459 -4.8075 -3.5808
vt 8.1662 -4.8075 -3.5808
vt -7.4162 -3.0289 -7.8329
vt -7.4162 5.3167 -7.8329
vt -7.6959 5.3167 -7.8329
vt -7.6958 -3.0289 -7.8329
vt -7.6959 -6.1418 5.3083
vt -7.6959 -7.8329 5.3167
vt 8.1662 5.3017 -4.8075
vt 8.1662 -3.0289 -4.2616
vt 8.4459 -3.0289 -4.2616
vt 8.4459 5.3017 -4.8075
vt 8.1662 -4.2616 -3.5808
vt 8.4459 -4.2616 -3.5808
vt 3.0217 -6.1418 10.8883
vt 3.4356 -6.1418 10.8883
vt 3.4356 -4.8075 10.8883
vt 3.0217 -4.8075 10.8883
vt -15.4023 -4.4327 -11.9993
vt -15.9615 -4.4327 -11.9993
vt -15.9615 -5.2606 -11.9993
vt -15.4023 -5.2606 -11.9993
vt -4.4327 -9.7303 16.9615
vt -5.2606 -9.7303 16.9615
vt -5.2606 -11.9993 16.9615
vt -4.4327 -11.9993 16.9615
vt -2.6856 -4.2616 11.2611
vt -2.6856 -4.8075 11.2611
vt 8.1662 -3.5808 -4.2616
vt 8.4459 -3.5808 -4.2616
vt 3.0217 -4.2616 10.8883
vt 3.4356 -4.2616 10.8883
vt -9.8718 -11.1677 -6.1970
vt -9.8718 -11.9993 -6.1970
vt 0.0533 0.9465 0.0532
vt 0.0533 0.4890 0.0532
vt 0.9467 0.4890 0.9467
vt 0.2766 0.9699 0.2766
vt 0.5000 0.9785 0.5000
vt 0.7234 0.9699 0.7234
vt 0.9467 0.9465 0.9467
vt 0.9467 0.0244 0.9467
vt 0.9467 0.2269 0.9467
vt 0.0533 0.2269 0.0533
vt 0.0533 0.0216 0.0533
vt -7.6959 -4.8075 -4.1098
vt -6.4851 -4.8075 -4.1521
vt 0.0805 0.9372 0.0641
vt 0.0805 0.0610 0.8029
vt 0.9195 0.0628 0.9359
vt 0.9195 0.9390 0.1971
vt 0.9995 0.9995 0.1589
vt 0.0005 0.9974 0.0005
vt 0.0005 0.0005 0.8411
vt 0.9995 0.0026 0.9995
vt 0.9995 0.9995 0.9995
vt 0.0005 0.9995 0.9985
vt 0.0005 0.0005 0.0005
vt 0.9995 0.0005 0.0015
vt 0.9995 0.9986 0.9995
vt 0.0005 0.9995 0.4325
vt 0.0005 0.0014 0.0005
vt 0.9995 0.0005 0.5675
vt 0.0005 0.9988 0.9995
vt 0.0005 0.0005 0.6836
vt 0.9995 0.0012 0.0005
vt 0.9995 0.9995 0.3164
vt 0.0005 0.9993 0.9995
vt 0.0005 0.0005 0.2009
vt 0.9995 0.0007 0.0005
vt 0.9995 0.9995 0.7991
vt 0.0005 0.9994 0.9997
vt 0.0005 0.0011 0.6857
vt 0.9995 0.0017 0.0007
vt 0.9995 1.0001 0.3147
vt 0.0005 0.0005 0.2024
vt 0.9995 0.9995 0.7976
vt 0.0005 0.3783 0.1983
vt 0.0005 0.0005 0.3193
vt 0.9995 0.0045 0.9995
vt 0.9995 0.3823 0.8785
vt 0.9995 0.9995 0.6807
vt 0.0005 0.9955 0.0005
vt 0.0715 0.9196 0.0739
vt 0.0715 0.0778 0.3977
vt 0.9285 0.0804 0.9261
vt 0.9285 0.9222 0.6023
vt 0.9995 0.9995 0.6165
vt 0.0005 0.9964 0.0005
vt 0.0005 0.0005 0.3835
vt 0.9995 0.0036 0.9995
vt 2.9927 -9.9167 -6.1930
vt 3.1308 -8.6890 -6.1893
vt 5.3133 -9.9167 -6.1315
vt 1.0000 0.0000 0.0000
vt 1.0000 1.0000 0.0000
vt 0.0000 1.0000 0.0000
vt 0.0000 0.0000 0.0000
vt -7.7141 -8.6763 -6.2535
vt -8.1625 -9.8914 -6.2418
vt -5.7311 -9.8914 -6.3055
vt -9.8718 -9.8914 -6.1970
vt -6.2418 -9.8914 -8.1625
vt -6.2418 -11.0821 -8.1625
vt -5.9381 -11.0821 -8.1545
vt -5.9381 -9.8914 -8.1545
vt -8.1625 -6.2418 -11.0821
vt -5.7311 -6.3055 -11.0821
vt -5.7231 -6.0018 -11.0821
vt -8.1545 -5.9381 -11.0821
vt 7.3055 -11.0821 -5.7311
vt 7.3055 -9.8914 -5.7311
vt 7.0018 -9.8914 -5.7231
vt 7.0018 -11.0821 -5.7231
vt 6.7311 -6.3055 -9.8914
vt 9.1625 -6.2418 -9.8914
vt 9.1545 -5.9381 -9.8914
vt 6.7231 -6.0018 -9.8914
vt -6.1930 -9.9167 2.9927
vt -6.1930 -11.1879 2.9927
vt -5.9721 -11.1879 2.9869
vt -5.9721 -9.9167 2.9869
vt 2.9927 -6.1930 -11.1879
vt 5.3133 -6.1315 -11.1879
vt 5.3075 -5.9107 -11.1879
vt 2.9869 -5.9721 -11.1879
vt 7.1315 -11.1879 5.3133
vt 7.1315 -9.9167 5.3133
vt 6.9107 -9.9167 5.3075
vt 6.9107 -11.1879 5.3075
vt -4.3133 -6.1315 -9.9167
vt -1.9927 -6.1930 -9.9167
vt -1.9869 -5.9721 -9.9167
vt -4.3075 -5.9107 -9.9167
vt 3.5479 2.1939 -4.1288
vt -1.0694 2.1939 -4.2917
vt 3.0335 1.7403 -4.1469
vt 3.5479 1.7403 -4.1288
vt 3.5479 -0.9026 -4.1288
vt 3.5479 -2.2084 -4.1288
vt 3.0335 -4.8075 -4.1469
vt 3.5479 -4.8075 -4.1288
vt 8.4473 -9.7303 -6.0486
vt 8.4473 -11.9993 -6.0486
vt 5.3138 3.0408 -6.1315
vt 2.6809 3.0408 -6.2012
vt 7.2059 2.3604 -6.0814
vt 8.4473 2.3604 -6.0486
vt 7.2059 -1.6038 -6.0814
vt 8.4473 -1.6038 -6.0486
vt 7.2059 -3.5626 -6.0814
vt 8.4473 -3.5626 -6.0486
vt 7.2059 -7.4613 -6.0814
vt 8.4473 -7.4613 -6.0486
vt -1.7196 -9.7303 -6.3177
vt -1.7196 -11.9993 -6.3177
vt 3.5476 2.3135 -4.1288
vt -1.0694 2.3135 -4.2917
vt -1.6892 -0.9026 -4.3136
vt -1.6892 1.7403 -4.3136
vt -1.6892 -2.2084 -4.3136
vt -1.6892 -4.8075 -4.3136
vt -2.0356 3.0408 -6.3261
vt -0.2000 3.0408 -6.2775
vt -1.7196 2.3604 -6.3177
vt -2.9628 2.3604 -6.3506
vt -2.9628 -1.6038 -6.3506
vt -1.7196 -1.6038 -6.3177
vt -2.9628 -3.5626 -6.3506
vt -1.7196 -3.5626 -6.3177
vt -2.9628 -7.4613 -6.3506
vt -1.7196 -7.4613 -6.3177
vt -6.4851 -6.1418 -4.1521
vt -7.6959 -6.1418 -4.1098
vt -1.7769 -6.1418 -4.3167
vt -1.6892 -6.1418 -4.3136
vt 4.7467 -6.1418 -4.0864
vt 5.6948 -6.1418 -4.0282
vt -2.1331 -6.1418 -4.3042
vt 0.7536 -6.1418 -4.2274
vt -0.6678 -6.1418 -4.2775
vt 3.0335 -6.1418 -4.1469
vt 3.5479 -6.1418 -4.1288
vt -3.0211 -7.8329 7.5931
vt -2.4007 -7.8329 7.5931
vt 0.0005 0.0005 0.8463
vt 0.9995 0.0022 0.0005
vt -2.2717 -7.8329 11.2611
vt 3.9875 -7.8329 11.2611
vt 16.4023 -11.9993 -5.2606
vt 16.9615 -11.9993 -5.2606
vt 16.9615 -9.7303 -5.2606
vt 16.4023 -9.7303 -5.2606
vt 3.0217 -7.8329 10.8883
vt 3.4356 -7.8329 10.8883
vt -2.6856 -6.1418 11.2611
vt 1.4870 -6.1418 -4.2015
vt -4.0371 -6.1418 -4.2377
vt -4.9708 -6.1418 -4.2051
vt 4.1676 -6.1418 -4.1069
vt -1.0694 -6.1418 -4.2917
vt 8.9499 3.2202 -6.0353
vt 8.2884 3.2202 -6.0528
vt 4.1697 2.3135 -4.1068
vt 0.7498 0.9995 0.7497
vt 0.0005 0.9995 0.0005
vt 0.0005 0.4890 0.0005
vt 0.0005 0.2269 0.0005
vt 0.9995 0.2269 0.9995
vt 0.9995 0.4890 0.9995
vt 0.5000 0.9995 0.5000
vt 0.2503 0.9995 0.2502
vt 0.9675 0.5510 0.7234
vt 0.9675 0.5510 0.9467
vt 0.9675 0.5510 0.5000
vt 0.9675 0.5510 0.2766
vt 0.9675 0.5510 0.0532
vt 0.9675 0.5510 0.0533
vt 4.5291 -0.6751 0.7227
vt 4.5291 2.1259 1.6327
vt 2.6574 2.1259 1.6327
vt 2.7385 -0.7964 0.7037
vt 4.3866 -0.7702 0.7217
vt 4.3866 -0.6995 0.6862
vt 1.4275 -0.8186 0.6679
vt 1.4289 -0.8904 0.7033
vt -1.7425 -0.7246 0.6680
vt -1.7385 -0.7964 0.7037
vt -3.5296 -0.6043 0.6868
vt -3.5291 -0.6751 0.7227
vt 0.9779 0.8915 0.4713
vt 0.4892 0.9995 0.1728
vt 0.5000 0.0091 0.7536
vt 0.9995 0.0005 0.9995
vt 0.0005 0.8905 0.0005
vt 0.0005 0.0176 0.5078
vt 0.0755 0.1148 0.4713
vt 0.0755 0.1148 0.9995
vt 0.0755 0.1148 0.1728
vt 0.0755 0.1148 0.5078
vt 0.0755 0.1148 0.0005
vt 0.1096 0.3186 0.7618
vt 0.8904 0.3186 0.7618
vt 0.8904 0.6814 0.7618
vt 0.1096 0.6814 0.7618
vt 0.0296 -0.1133 0.2386
vt 0.9704 -0.1133 0.2386
vt 0.9704 1.1133 0.2386
vt 0.0296 1.1133 0.2386
vt 0.2386 -0.1133 0.9704
vt 0.7614 -0.1133 0.9704
vt 0.7614 1.1133 0.9704
vt 0.2386 1.1133 0.9704
vt 0.0296 -0.1133 0.7614
vt 0.9704 -0.1133 0.7614
vt 0.9704 1.1133 0.7614
vt 0.0296 1.1133 0.7614
vt 0.2386 -0.1133 0.0296
vt 0.7614 -0.1133 0.0296
vt 0.7614 1.1133 0.0296
vt 0.2386 1.1133 0.0296
vt 0.0296 0.2386 1.1133
vt 0.9704 0.2386 1.1133
vt 0.8904 0.3186 1.1133
vt 0.1096 0.3186 1.1133
vt 0.9704 0.7614 1.1133
vt 0.8904 0.6814 1.1133
vt 0.0296 0.7614 1.1133
vt 0.1096 0.6814 1.1133
vt 0.8904 1.1133 0.3186
vt 0.1096 1.1133 0.3186
vt 0.1096 0.7618 0.3186
vt 0.8904 0.7618 0.3186
vt 0.6814 1.1133 0.8904
vt 0.3186 1.1133 0.8904
vt 0.3186 0.7618 0.8904
vt 0.6814 0.7618 0.8904
vt 0.8904 1.1133 0.6814
vt 0.1096 1.1133 0.6814
vt 0.1096 0.7618 0.6814
vt 0.8904 0.7618 0.6814
vt 0.6814 1.1133 0.1096
vt 0.3186 1.1133 0.1096
vt 0.3186 0.7618 0.1096
vt 0.6814 0.7618 0.1096
vt 0.9704 0.5000 0.2386
vt 0.0296 0.5000 0.2386
vt 0.7614 0.5000 0.9704
vt 0.2386 0.5000 0.9704
vt 0.9704 0.5000 0.7614
vt 0.0296 0.5000 0.7614
vt 0.7614 0.5000 0.0296
vt 0.2386 0.5000 0.0296
# 757 texture coords

g Myyrivahe_25
usemtl Myyrivahe_25_Roof01
s 1
f 1/1/1 2/2/2 3/3/3 4/4/4 
usemtl Myyrivahe_25_GrayPlaster
f 5/5/5 6/6/5 7/7/5 8/8/5 
f 5/5/5 8/8/5 9/9/5 
usemtl Myyrivahe_25_PinkPlaster
f 10/10/6 11/11/6 12/12/6 13/13/6 
usemtl xxx
s 2
f 5/14/7 9/15/7 11/16/7 10/17/7 
usemtl Myyrivahe_25_GrayPlaster
s 1
f 14/18/8 15/19/8 16/20/9 17/21/9 
f 18/22/10 19/23/10 20/24/11 21/25/11 
usemtl Myyrivahe_25_Roof01
s 4
f 22/26/12 23/27/13 24/28/14 25/29/15 
usemtl xxx
s 2
f 26/30/16 27/31/17 28/32/18 29/33/19 
f 29/33/19 28/32/18 30/34/20 
usemtl Myyrivahe_25_Roof01
s 4
f 31/35/21 26/36/22 29/37/22 2/38/21 
f 3/39/21 2/38/21 29/37/22 32/40/21 
usemtl xxx
s 2
f 23/41/7 4/42/7 3/43/7 24/44/7 
f 24/44/7 3/43/7 32/45/7 
usemtl Myyrivahe_25_Roof01
s 4
f 33/46/23 22/26/12 25/29/15 34/47/24 
f 28/48/25 33/46/23 34/47/24 30/49/26 
usemtl Myyrivahe_25_WhitePlaster
s 1
f 35/50/27 36/51/28 37/52/28 38/53/9 
usemtl xxx
s 2
f 29/33/19 30/34/20 39/54/29 40/55/29 
f 29/33/19 40/55/29 41/56/30 42/57/31 
f 29/33/19 42/57/31 43/58/32 44/59/32 
usemtl Myyrivahe_25_PinkPlaster
s 8
f 32/60/33 29/61/33 44/62/33 45/63/33 
usemtl xxx
s 2
f 24/44/7 32/45/7 45/64/7 46/65/7 
f 47/66/7 46/65/7 45/64/7 48/67/7 
f 49/68/7 48/67/7 45/64/7 50/69/7 
usemtl Myyrivahe_25_WhitePlaster
s 1
f 51/70/34 35/50/27 38/53/9 52/71/34 
f 53/72/35 51/70/34 52/71/34 54/73/36 
f 55/74/27 56/75/37 57/76/37 58/77/27 
f 59/78/27 60/79/37 61/80/37 62/81/27 
usemtl Myyrivahe_25_PinkPlaster
f 50/82/28 63/83/9 64/84/27 49/85/28 
usemtl Myyrivahe_25_WhitePlaster
f 65/86/37 66/87/27 67/88/27 68/89/38 
f 69/90/39 55/74/27 58/77/27 70/91/39 
f 71/92/39 59/78/27 62/81/27 72/93/39 
usemtl Myyrivahe_25_PinkPlaster
f 64/84/27 63/83/9 73/94/40 74/95/40 
usemtl Myyrivahe_25_WhitePlaster
f 66/87/27 75/96/39 76/97/39 67/88/27 
f 77/98/36 69/90/39 70/91/39 78/99/36 
f 79/100/36 71/92/39 72/93/39 80/101/36 
usemtl Myyrivahe_25_PinkPlaster
f 81/102/34 43/103/41 42/104/36 82/105/39 
usemtl Myyrivahe_25_WhitePlaster
f 75/96/39 83/106/36 84/107/36 76/97/39 
s 2
f 85/108/42 86/109/42 87/110/42 88/111/42 
f 89/112/42 90/113/42 91/114/42 92/115/42 
s 4
f 49/116/43 64/117/43 66/118/43 65/119/43 
f 93/120/43 94/121/43 95/122/43 96/123/43 
f 74/124/43 96/123/43 95/122/43 66/118/43 
f 95/122/43 75/125/43 66/118/43 
f 64/117/43 74/124/43 66/118/43 
f 82/126/43 42/127/43 83/128/43 75/125/43 
s 2
f 42/129/31 41/130/30 84/131/44 83/132/44 
s 4
f 68/133/43 67/134/43 38/135/43 37/136/43 
f 67/134/43 76/137/43 52/138/43 38/135/43 
f 76/137/43 84/139/43 54/140/43 52/138/43 
s 2
f 41/130/30 40/141/29 53/142/45 84/131/44 
f 84/131/44 53/142/45 54/143/44 
f 97/144/42 98/145/42 99/146/42 100/147/42 
f 101/148/42 102/149/42 103/150/42 104/151/42 
f 105/152/42 68/153/42 37/154/42 36/155/42 
s 4
f 36/156/43 35/157/43 62/158/43 61/159/43 
f 35/157/43 51/160/43 72/161/43 62/158/43 
f 51/160/43 53/162/43 80/163/43 72/161/43 
s 2
f 40/141/29 39/164/29 79/165/45 53/142/45 
f 53/142/45 79/165/45 80/166/46 
f 99/146/42 98/145/42 106/167/42 107/168/42 
f 104/151/42 103/150/42 108/169/47 109/170/47 
s 4
f 60/171/43 59/172/43 58/173/43 57/174/43 
f 59/172/43 71/175/43 70/176/43 58/173/43 
f 71/175/43 79/177/43 78/178/43 70/176/43 
s 2
f 39/164/29 30/179/20 77/180/45 79/165/45 
f 79/165/45 77/180/45 78/181/44 
usemtl Myyrivahe_25_Roof01
s 8
f 30/182/48 34/183/49 69/184/50 77/185/48 
f 34/183/49 25/186/51 55/187/52 69/184/50 
f 25/186/51 24/188/53 56/189/54 55/187/52 
usemtl Myyrivahe_25_WhitePlaster
s 2
f 107/168/42 106/167/42 110/190/42 111/191/42 
s 16
f 24/192/55 46/193/55 112/194/55 113/195/55 
f 46/193/55 47/196/55 114/197/55 112/194/55 
f 47/196/55 48/198/55 89/199/55 114/197/55 
f 48/198/55 49/200/55 90/201/55 89/199/55 
s 4
f 49/116/43 65/119/43 91/202/43 90/203/43 
s 1
f 65/86/37 68/89/38 92/204/56 91/205/56 
f 68/89/38 105/206/56 115/207/56 92/204/56 
s 4
f 105/208/43 36/156/43 116/209/43 115/210/43 
f 36/156/43 61/159/43 117/211/43 116/209/43 
s 1
f 61/80/37 60/79/37 118/212/56 117/213/56 
s 4
f 60/171/43 57/174/43 119/214/43 118/215/43 
s 1
f 57/76/37 56/75/37 120/216/56 119/217/56 
usemtl Myyrivahe_25_Roof01
s 8
f 56/189/54 24/188/53 113/218/57 120/219/58 
usemtl Myyrivahe_25_WhitePlaster
s 4
f 89/220/43 92/221/43 87/222/43 86/223/43 
s 1
f 92/204/56 115/207/56 88/224/56 87/225/56 
s 4
f 115/210/43 116/209/43 121/226/43 88/227/43 
f 116/209/43 117/211/43 122/228/43 121/226/43 
s 1
f 117/213/56 118/212/56 123/229/56 122/230/56 
s 4
f 118/215/43 119/214/43 124/231/43 123/232/43 
s 1
f 119/217/56 120/216/56 125/233/56 124/234/56 
usemtl Myyrivahe_25_Roof01
s 8
f 120/219/58 113/218/57 126/235/58 125/236/58 
usemtl Myyrivahe_25_WhitePlaster
s 16
f 113/195/55 112/194/55 127/237/55 126/238/55 
f 112/194/55 114/197/55 85/239/55 127/237/55 
f 114/197/55 89/199/55 86/240/55 85/239/55 
s 4
f 88/227/43 121/226/43 103/241/43 85/242/43 
f 85/242/43 103/241/43 102/243/43 
f 121/226/43 122/228/43 108/244/43 103/241/43 
s 1
f 122/230/56 123/229/56 109/245/56 108/246/56 
s 4
f 123/232/43 124/231/43 128/247/43 109/248/43 
s 1
f 124/234/56 125/233/56 129/249/56 128/250/56 
usemtl Myyrivahe_25_Roof01
s 8
f 125/236/58 126/235/58 130/251/58 129/252/58 
usemtl Myyrivahe_25_WhitePlaster
s 16
f 126/238/55 127/237/55 101/253/55 130/254/55 
f 127/237/55 85/239/55 102/255/55 101/253/55 
s 4
f 101/256/43 104/257/43 98/258/43 97/259/43 
f 104/257/43 109/248/43 106/260/43 98/258/43 
f 109/248/43 128/247/43 110/261/43 106/260/43 
s 1
f 128/250/56 129/249/56 111/262/56 110/263/56 
usemtl Myyrivahe_25_Roof01
s 8
f 129/252/58 130/251/58 100/264/58 99/265/58 
f 129/252/58 99/265/58 107/266/58 111/267/58 
usemtl Myyrivahe_25_WhitePlaster
s 16
f 130/254/55 101/253/55 97/268/55 100/269/55 
usemtl Myyrivahe_25_PinkPlaster
s 1
f 63/83/9 50/82/28 131/270/5 132/271/5 
f 63/83/9 132/271/5 133/272/5 134/273/28 
f 63/83/9 134/273/28 135/274/5 136/275/27 
usemtl xxx
s 2
f 44/59/32 43/58/32 137/276/32 138/277/32 
usemtl Myyrivahe_25_PinkPlaster
s 1
f 45/278/59 44/279/60 138/280/61 139/281/62 
usemtl xxx
s 2
f 131/282/7 50/69/7 45/64/7 139/283/7 
usemtl Myyrivahe_25_PinkPlaster
s 1
f 81/102/34 140/284/8 141/285/8 142/286/63 
f 43/103/41 81/102/34 142/286/63 143/287/64 
f 43/103/41 143/287/64 144/288/65 137/289/66 
f 136/275/27 135/274/5 145/290/5 146/291/27 
usemtl xxx
s 2
f 147/292/32 148/293/32 149/294/32 150/295/32 
f 151/296/32 147/292/32 150/295/32 
usemtl Myyrivahe_25_PinkPlaster
s 1
f 139/281/62 138/280/61 152/297/67 153/298/67 
usemtl xxx
s 2
f 154/299/7 131/282/7 139/283/7 153/300/7 
usemtl Myyrivahe_25_PinkPlaster
s 1
f 155/301/68 142/286/63 141/285/8 156/302/69 
f 156/302/69 141/285/8 157/303/40 
f 158/304/70 155/301/68 156/302/69 159/305/71 
f 160/306/72 159/305/71 156/302/69 161/307/73 
f 160/306/72 161/307/73 162/308/74 163/309/75 
f 137/289/66 144/288/65 159/305/71 160/306/72 
f 146/291/27 145/290/5 164/310/28 165/311/27 
usemtl xxx
s 2
f 151/296/32 150/295/32 166/312/32 167/313/32 
usemtl Myyrivahe_25_PinkPlaster
s 1
f 153/298/67 152/297/67 168/314/76 169/315/76 
usemtl xxx
s 2
f 154/299/7 153/300/7 169/316/7 170/317/7 
usemtl Myyrivahe_25_PinkPlaster
s 1
f 156/302/69 157/303/40 171/318/40 172/319/77 
f 163/309/75 162/308/74 173/320/78 174/321/79 
f 175/322/75 163/309/75 174/321/79 
f 165/311/27 164/310/28 176/323/5 177/324/9 
usemtl xxx
s 2
f 167/313/32 166/312/32 178/325/32 179/326/32 
f 180/327/32 167/313/32 179/326/32 
usemtl Myyrivahe_25_PinkPlaster
s 1
f 169/315/76 168/314/76 181/328/80 182/329/81 
usemtl xxx
s 2
f 170/317/7 169/316/7 182/330/7 183/331/7 
usemtl Myyrivahe_25_PinkPlaster
s 1
f 172/319/77 171/318/40 184/332/40 185/333/11 
f 156/302/69 172/319/77 186/334/10 187/335/10 
f 161/307/73 156/302/69 187/335/10 
f 172/319/77 185/333/11 188/336/82 189/337/82 
f 186/334/10 172/319/77 189/337/82 
f 161/307/73 187/335/10 173/320/78 162/308/74 
usemtl Myyrivahe_25_Window01
f 190/338/10 191/339/10 192/340/10 193/341/10 
usemtl Myyrivahe_25_PinkPlaster
f 189/337/82 188/336/82 194/342/10 
usemtl Myyrivahe_25_Window01
f 190/338/10 193/341/10 195/343/10 196/344/10 
usemtl Myyrivahe_25_GrayPlaster
f 17/21/9 16/20/9 197/345/5 198/346/28 
f 17/21/9 198/346/28 199/347/28 200/348/5 
usemtl Myyrivahe_25_Window04
f 201/349/28 202/350/28 203/351/28 204/352/28 
usemtl Myyrivahe_25_PinkPlaster
f 205/353/28 206/354/5 164/310/28 145/290/5 
usemtl Myyrivahe_25_Window03
f 207/355/28 208/356/28 209/357/28 210/358/28 
usemtl Myyrivahe_25_GrayPlaster
f 200/348/5 199/347/28 211/359/5 212/360/5 
f 213/361/5 200/348/5 212/360/5 
usemtl Myyrivahe_25_PinkPlaster
f 133/272/5 214/362/28 205/353/28 134/273/28 
f 154/363/28 170/364/28 215/365/28 216/366/28 
f 154/363/28 216/366/28 217/367/5 218/368/28 
f 154/363/28 218/368/28 219/369/5 206/354/5 
f 220/370/28 154/363/28 206/354/5 214/362/28 
f 205/353/28 214/362/28 206/354/5 
f 219/369/5 221/371/5 222/372/5 206/354/5 
usemtl Myyrivahe_25_GrayPlaster
f 223/373/8 224/374/8 225/375/8 226/376/40 
f 223/373/8 226/376/40 227/377/8 228/378/8 
usemtl Myyrivahe_25_PinkPlaster
f 229/379/8 230/380/40 231/381/40 232/382/8 
f 230/380/40 233/383/40 234/384/8 231/381/40 
f 233/383/40 235/385/40 236/386/8 234/384/8 
usemtl Myyrivahe_25_Window04
f 237/387/40 238/388/40 239/389/40 240/390/40 
usemtl Myyrivahe_25_PinkPlaster
f 231/381/40 234/384/8 241/391/40 242/392/8 
usemtl Myyrivahe_25_Window03
f 243/393/40 244/394/40 245/395/40 246/396/40 
usemtl Myyrivahe_25_GrayPlaster
f 247/397/8 248/398/8 225/375/8 224/374/8 
usemtl Myyrivahe_25_PinkPlaster
f 249/399/8 242/392/8 250/400/8 251/401/8 
f 242/392/8 241/391/40 252/402/40 250/400/8 
f 241/391/40 253/403/40 254/404/40 252/402/40 
usemtl Myyrivahe_25_GrayPlaster
f 255/405/8 256/406/40 257/407/8 248/398/8 
f 247/397/8 255/405/8 248/398/8 
usemtl Myyrivahe_25_Window04
f 258/408/40 259/409/40 260/410/40 261/411/40 
usemtl Myyrivahe_25_PinkPlaster
f 250/400/8 252/402/40 262/412/8 263/413/40 
usemtl Myyrivahe_25_Window03
f 264/414/40 265/415/40 266/416/40 267/417/40 
usemtl Myyrivahe_25_GrayPlaster
f 268/418/40 269/419/40 270/420/40 271/421/40 
f 268/418/40 271/421/40 256/406/40 255/405/8 
usemtl Myyrivahe_25_PinkPlaster
f 272/422/75 175/322/75 174/321/79 273/423/79 
f 272/422/75 273/423/79 274/424/79 
f 273/423/79 189/337/82 194/342/10 274/424/79 
s 2
f 19/425/32 275/426/32 276/427/32 188/428/32 
f 194/429/32 188/428/32 276/427/32 277/430/32 
s 4
f 272/431/43 274/432/43 278/433/43 279/434/43 
f 274/432/43 194/435/43 277/436/43 278/433/43 
usemtl Myyrivahe_25_Door02
s 1
f 275/437/83 280/438/83 281/439/83 276/440/83 
f 277/441/83 276/440/83 281/439/83 279/442/83 
usemtl xxx
f 282/443/32 283/444/32 180/327/32 284/445/32 
f 179/326/32 284/445/32 180/327/32 
s 4
f 138/446/58 137/447/58 148/448/58 147/449/58 
usemtl Myyrivahe_25_PinkPlaster
s 1
f 137/289/66 160/306/72 149/450/84 148/451/84 
f 160/306/72 163/309/75 150/452/84 149/450/84 
f 163/309/75 175/322/75 166/453/84 150/452/84 
f 175/322/75 272/422/75 178/454/84 166/453/84 
s 8
f 272/431/43 279/434/85 179/455/85 178/456/43 
usemtl xxx
f 279/434/85 181/457/86 180/458/86 179/455/85 
usemtl Myyrivahe_25_PinkPlaster
s 1
f 181/328/80 168/314/76 167/459/87 180/460/88 
f 168/314/76 152/297/67 151/461/89 167/459/87 
f 152/297/67 138/280/61 147/462/90 151/461/89 
s 2
f 285/463/84 286/464/84 287/465/84 288/466/84 
usemtl xxx
s 4
f 289/467/43 13/468/43 290/469/43 291/470/43 
usemtl Myyrivahe_25_PinkPlaster
s 2
f 12/12/91 283/471/91 290/472/91 13/13/91 
usemtl xxx
s 4
f 181/473/92 279/474/93 179/475/93 180/476/92 
usemtl Myyrivahe_25_PinkPlaster
s 2
f 292/477/84 288/466/84 287/465/84 293/478/84 
s 8
f 280/479/7 285/480/7 288/481/7 281/482/7 
usemtl Myyrivahe_25_GrayPlaster
s 4
f 289/483/43 291/484/43 294/485/43 295/486/43 
s 1
f 282/487/32 286/488/32 294/489/32 291/490/32 
usemtl Myyrivahe_25_PinkPlaster
f 284/445/32 179/326/32 293/491/32 287/492/32 
s 4
f 179/475/93 279/474/93 292/493/58 293/494/58 
s 8
f 279/495/7 281/482/7 288/481/7 292/496/7 
usemtl Myyrivahe_25_GrayPlaster
s 1
f 213/361/5 212/360/5 296/497/5 297/498/28 
usemtl Myyrivahe_25_Door01
f 298/499/28 299/500/5 300/501/5 301/502/28 
f 302/503/28 301/502/28 300/501/5 303/504/28 
f 304/505/28 303/504/28 300/501/5 
f 305/506/28 306/507/5 307/508/28 308/509/28 
usemtl Myyrivahe_25_PinkPlaster
f 170/364/28 183/510/28 309/511/28 215/365/28 
usemtl Myyrivahe_25_Window05
f 310/512/28 311/513/28 312/514/28 313/515/28 
usemtl Myyrivahe_25_PinkPlaster
f 131/270/5 154/363/28 220/370/28 132/271/5 
usemtl Myyrivahe_25_Window05
f 133/516/5 132/517/5 314/512/5 315/515/28 
f 132/517/5 220/518/28 316/513/28 314/512/5 
f 220/518/28 214/519/28 317/514/5 316/513/28 
f 214/519/28 133/516/5 315/515/28 317/514/5 
usemtl Myyrivahe_25_Window04
f 135/520/5 134/521/28 318/349/5 319/352/28 
f 134/521/28 205/522/28 320/350/28 318/349/5 
f 205/522/28 145/523/5 321/351/5 320/350/28 
f 145/523/5 135/520/5 319/352/28 321/351/5 
usemtl Myyrivahe_25_Window03
f 164/524/28 206/525/5 322/355/5 323/358/28 
f 206/525/5 222/526/5 324/356/28 322/355/5 
f 222/526/5 176/527/5 325/357/5 324/356/28 
f 176/527/5 164/524/28 323/358/28 325/357/5 
usemtl Myyrivahe_25_Window04
f 232/528/8 231/529/40 326/388/40 327/387/8 
f 231/529/40 242/530/8 328/389/8 326/388/40 
f 242/530/8 249/531/8 329/390/40 328/389/8 
f 249/531/8 232/528/8 327/387/8 329/390/40 
usemtl Myyrivahe_25_Window03
f 234/532/8 236/533/8 330/394/40 331/393/8 
f 236/533/8 253/534/40 332/395/8 330/394/40 
f 253/534/40 241/535/40 333/396/40 332/395/8 
f 241/535/40 234/532/8 331/393/8 333/396/40 
usemtl Myyrivahe_25_Window04
f 251/536/8 250/537/8 334/409/8 335/408/40 
f 250/537/8 263/538/40 336/410/40 334/409/8 
f 263/538/40 337/539/8 338/411/8 336/410/40 
f 337/539/8 251/536/8 335/408/40 338/411/8 
usemtl Myyrivahe_25_Window03
f 252/532/40 254/540/40 339/415/8 340/414/40 
f 254/540/40 341/534/40 342/416/40 339/415/8 
f 341/534/40 262/541/8 343/417/8 342/416/40 
f 262/541/8 252/532/40 340/414/40 343/417/8 
usemtl Myyrivahe_25_Window01
f 186/542/10 189/543/82 344/339/82 345/338/10 
f 189/543/82 273/544/79 346/340/10 344/339/82 
f 273/544/79 174/545/79 347/341/10 346/340/10 
f 174/545/79 173/546/78 348/343/82 347/341/10 
f 173/546/78 187/547/10 349/344/10 348/343/82 
f 187/547/10 186/542/10 345/338/10 349/344/10 
f 350/548/94 351/549/94 352/550/94 353/551/94 
usemtl Myyrivahe_25_PinkPlaster
f 142/286/63 155/301/68 158/304/70 143/287/64 
usemtl Myyrivahe_25_Window01
f 144/552/65 143/553/64 354/548/94 355/551/95 
f 143/553/64 158/554/70 356/549/95 354/548/94 
f 158/554/70 159/555/71 357/550/94 356/549/95 
f 159/555/71 144/552/65 355/551/95 357/550/94 
usemtl Myyrivahe_25_GrayPlaster
f 358/556/8 359/557/8 227/377/8 226/376/40 
f 270/420/40 359/557/8 358/556/8 360/558/40 
f 271/421/40 270/420/40 360/558/40 
f 271/421/40 360/558/40 257/407/8 256/406/40 
usemtl Myyrivahe_25_Window06
f 361/559/40 362/560/40 363/561/40 364/562/40 
usemtl Myyrivahe_25_GrayPlaster
f 226/376/40 225/375/8 248/398/8 358/556/8 
f 197/345/5 365/563/28 366/564/28 367/565/28 
f 198/346/28 197/345/5 367/565/28 
f 366/564/28 365/563/28 368/566/5 
f 198/346/28 367/565/28 211/359/5 199/347/28 
usemtl Myyrivahe_25_Window06
f 369/559/28 370/560/28 371/561/28 372/562/28 
usemtl Myyrivahe_25_GrayPlaster
f 368/566/5 296/497/5 212/360/5 366/564/28 
s 2
f 366/567/96 212/568/96 370/569/96 369/570/96 
s 4
f 212/571/97 211/572/97 371/573/97 370/574/97 
s 2
f 211/575/98 367/576/98 372/577/98 371/578/98 
s 4
f 367/579/43 366/580/43 369/581/43 372/582/43 
s 2
f 358/583/99 248/584/99 362/585/99 361/586/99 
s 4
f 248/587/58 257/588/58 363/589/58 362/590/58 
s 2
f 257/591/100 360/592/100 364/593/100 363/594/100 
s 4
f 360/595/43 358/596/43 361/597/43 364/598/43 
s 1
f 6/6/5 297/498/28 296/497/5 7/7/5 
usemtl Myyrivahe_25_PinkPlaster
f 373/599/40 374/600/8 229/379/8 232/382/8 
f 373/599/40 232/382/8 249/399/8 251/401/8 
f 373/599/40 251/401/8 337/601/8 375/602/8 
f 337/601/8 263/413/40 376/603/40 375/602/8 
f 263/413/40 262/412/8 377/604/40 376/603/40 
f 262/412/8 341/605/40 378/606/40 377/604/40 
usemtl Myyrivahe_25_GrayPlaster
f 21/25/11 20/24/11 379/607/40 380/608/40 
usemtl Myyrivahe_25_WhitePlaster
f 140/609/8 373/610/40 375/611/8 141/612/8 
f 141/612/8 375/611/8 376/613/40 157/614/40 
f 157/614/40 376/613/40 377/615/40 171/616/40 
f 171/616/40 377/615/40 378/617/40 184/618/40 
usemtl Myyrivahe_25_GrayPlaster
f 380/608/40 379/607/40 269/419/40 268/418/40 
f 223/373/8 228/378/8 381/619/8 382/620/8 
usemtl Myyrivahe_25_PinkPlaster
f 373/599/40 93/621/40 96/622/40 374/600/8 
f 136/275/27 146/291/27 383/623/40 384/624/8 
f 146/291/27 165/311/27 385/625/40 383/623/40 
f 165/311/27 177/324/9 386/626/40 385/625/40 
f 63/83/9 136/275/27 384/624/8 73/94/40 
usemtl Myyrivahe_25_GrayPlaster
f 382/620/8 381/619/8 15/19/8 14/18/8 
usemtl Myyrivahe_25_WhitePlaster
f 73/627/40 374/628/8 96/123/40 74/124/40 
f 229/629/8 384/630/8 383/631/40 230/632/40 
f 230/632/40 383/631/40 385/633/40 233/634/40 
f 233/634/40 385/633/40 386/635/40 235/636/40 
f 374/628/8 73/627/40 384/630/8 229/629/8 
usemtl Myyrivahe_25_PinkPlaster
f 8/637/5 309/511/28 183/510/28 9/638/5 
f 182/329/81 181/328/80 12/12/6 11/11/6 
usemtl xxx
s 2
f 183/331/7 182/330/7 11/16/7 9/15/7 
usemtl Myyrivahe_25_PinkPlaster
s 1
f 386/626/40 177/324/9 16/639/9 15/640/8 
f 188/336/82 185/333/11 20/641/11 19/642/10 
f 177/324/9 176/323/5 197/643/5 16/639/9 
f 227/644/8 253/403/40 236/386/8 228/645/8 
f 378/606/40 341/605/40 270/646/40 269/647/40 
usemtl Myyrivahe_25_GrayPlaster
s 2
f 18/648/32 387/649/32 275/426/32 19/425/32 
usemtl Myyrivahe_25_Door02
s 1
f 387/650/83 289/651/83 280/438/83 275/437/83 
usemtl xxx
f 291/652/32 290/653/32 283/444/32 282/443/32 
usemtl Myyrivahe_25_GrayPlaster
s 2
f 295/654/84 294/655/84 286/656/84 285/657/84 
usemtl Myyrivahe_25_PinkPlaster
f 181/328/91 180/460/91 283/471/91 12/12/91 
usemtl Myyrivahe_25_GrayPlaster
s 8
f 289/658/7 295/659/7 285/480/7 280/479/7 
usemtl Myyrivahe_25_PinkPlaster
s 1
f 284/445/32 287/492/32 286/660/32 282/443/32 
usemtl Myyrivahe_25_Door01
f 306/507/5 300/501/5 299/500/5 307/508/28 
usemtl Myyrivahe_25_PinkPlaster
f 359/661/8 254/404/40 253/403/40 227/644/8 
f 270/646/40 341/605/40 254/404/40 359/661/8 
f 197/643/5 176/323/5 222/372/5 365/662/28 
f 365/662/28 222/372/5 221/371/5 368/663/5 
f 185/333/11 184/332/40 379/664/40 20/641/11 
usemtl Myyrivahe_25_WhitePlaster
f 184/618/40 378/617/40 269/419/40 379/607/40 
usemtl Myyrivahe_25_PinkPlaster
f 236/386/8 235/385/40 381/665/8 228/645/8 
usemtl Myyrivahe_25_WhitePlaster
f 235/636/40 386/635/40 15/19/8 381/619/8 
f 140/609/8 94/666/8 93/667/40 373/610/40 
usemtl Myyrivahe_25_PinkPlaster
f 81/102/34 82/105/39 94/668/8 140/284/8 
usemtl Myyrivahe_25_WhitePlaster
s 4
f 94/121/43 82/126/43 75/125/43 95/122/43 
usemtl Myyrivahe_25_Door01
s off
f 218/669/28 388/504/28 389/505/28 219/520/28 
f 215/670/28 309/671/28 390/500/28 391/499/28 
f 309/671/28 8/672/28 392/508/28 390/500/28 
f 8/672/28 7/522/28 393/509/28 392/508/28 
f 7/522/28 296/555/28 394/506/28 393/509/28 
f 296/555/28 368/673/28 395/507/28 394/506/28 
f 368/673/5 221/674/5 396/501/5 395/507/5 
f 221/674/28 219/520/28 389/505/28 396/501/28 
f 217/675/5 216/676/5 397/502/5 398/503/5 
f 216/676/5 215/670/5 391/499/5 397/502/5 
f 217/675/5 398/503/5 388/504/5 218/669/5 
f 388/677/101 399/677/101 400/678/101 389/678/101 
f 398/679/102 401/679/102 399/677/102 388/677/102 
f 397/680/103 402/680/103 401/679/103 398/679/103 
f 391/681/104 403/681/104 402/680/104 397/680/104 
f 390/681/96 404/681/96 403/681/96 391/681/96 
f 392/682/96 405/682/96 404/681/96 390/681/96 
f 393/682/96 406/682/96 405/682/96 392/682/96 
f 394/678/105 407/678/105 406/682/105 393/682/105 
f 395/678/98 408/678/98 407/678/98 394/678/98 
f 396/678/98 409/678/98 408/678/98 395/678/98 
f 389/678/98 400/678/98 409/678/98 396/678/98 
f 303/677/101 304/678/101 400/678/101 399/677/101 
f 302/679/102 303/677/102 399/677/102 401/679/102 
f 301/680/103 302/679/103 401/679/103 402/680/103 
f 298/681/104 301/680/104 402/680/104 403/681/104 
f 299/681/96 298/681/96 403/681/96 404/681/96 
f 307/682/96 299/681/96 404/681/96 405/682/96 
f 308/682/96 307/682/96 405/682/96 406/682/96 
f 305/678/105 308/682/105 406/682/105 407/678/105 
f 306/678/98 305/678/98 407/678/98 408/678/98 
f 300/678/98 306/678/98 408/678/98 409/678/98 
f 304/678/98 300/678/98 409/678/98 400/678/98 
usemtl Myyrivahe_25_Window03
f 323/358/43 322/355/43 207/355/43 210/358/43 
f 322/355/96 324/356/96 208/356/96 207/355/96 
f 324/356/58 325/357/58 209/357/58 208/356/58 
f 325/357/98 323/358/98 210/358/98 209/357/98 
f 331/393/99 330/394/99 244/394/99 243/393/99 
f 330/394/58 332/395/58 245/395/58 244/394/58 
f 332/395/100 333/396/100 246/396/100 245/395/100 
f 333/396/43 331/393/43 243/393/43 246/396/43 
f 340/414/99 339/415/99 265/415/99 264/414/99 
f 339/415/58 342/416/58 266/416/58 265/415/58 
f 342/416/100 343/417/100 267/417/100 266/416/100 
f 343/417/43 340/414/43 264/414/43 267/417/43 
usemtl Myyrivahe_25_Window04
f 319/352/43 318/349/43 201/349/43 204/352/43 
f 318/349/96 320/350/96 202/350/96 201/349/96 
f 320/350/58 321/351/58 203/351/58 202/350/58 
f 321/351/98 319/352/98 204/352/98 203/351/98 
f 327/387/99 326/388/99 238/388/99 237/387/99 
f 326/388/58 328/389/58 239/389/58 238/388/58 
f 328/389/100 329/390/100 240/390/100 239/389/100 
f 329/390/43 327/387/43 237/387/43 240/390/43 
f 335/408/99 334/409/99 259/409/99 258/408/99 
f 334/409/58 336/410/58 260/410/58 259/409/58 
f 336/410/100 338/411/100 261/411/100 260/410/100 
f 338/411/43 335/408/43 258/408/43 261/411/43 
usemtl Myyrivahe_25_Window05
f 315/515/43 314/512/43 310/512/43 313/515/43 
f 314/512/96 316/513/96 311/513/96 310/512/96 
f 316/513/58 317/514/58 312/514/58 311/513/58 
f 317/514/98 315/515/98 313/515/98 312/514/98 
usemtl Myyrivahe_25_Window01
f 345/338/106 344/339/106 191/339/106 190/338/106 
f 344/339/58 346/340/58 192/340/58 191/339/58 
f 346/340/107 347/341/107 193/341/107 192/340/107 
f 347/341/107 348/343/107 195/343/107 193/341/107 
f 348/343/43 349/344/43 196/344/43 195/343/43 
f 349/344/106 345/338/106 190/338/106 196/344/106 
f 355/551/43 354/548/43 350/548/43 353/551/43 
f 354/548/108 356/549/108 351/549/108 350/548/108 
f 356/549/58 357/550/58 352/550/58 351/549/58 
f 357/550/109 355/551/109 353/551/109 352/550/109 
usemtl Myyrivahe_25_Roof01
s 1
f 27/683/110 26/684/111 31/685/112 410/686/113 
f 1/1/1 410/686/113 31/685/112 2/2/2 
s off
f 4/687/114 23/688/114 22/689/114 1/690/114 
f 1/690/115 22/689/115 33/691/115 410/692/115 
f 410/692/116 33/691/116 28/693/116 27/694/116 
usemtl Myyrivahe_25_Window02
s 4
f 411/695/84 412/696/84 413/697/84 414/698/84 
f 412/696/84 415/699/84 416/700/84 413/697/84 
usemtl Myyrivahe_25_Door01
s off
f 411/701/117 414/702/117 417/702/117 418/701/117 
f 412/703/118 411/701/118 418/701/118 419/703/118 
f 416/704/7 415/705/7 420/705/7 421/704/7 
f 415/705/119 412/703/119 419/703/119 420/705/119 
usemtl Myyrivahe_25_Window02
s 4
f 422/695/84 423/696/84 424/697/84 425/698/84 
f 423/696/84 426/699/84 427/700/84 424/697/84 
usemtl Myyrivahe_25_Door01
s off
f 422/701/117 425/702/117 428/702/117 429/701/117 
f 423/703/118 422/701/118 429/701/118 430/703/118 
f 427/704/7 426/705/7 431/705/7 432/704/7 
f 426/705/119 423/703/119 430/703/119 431/705/119 
usemtl Myyrivahe_25_Window02
s 4
f 433/695/120 434/696/121 435/697/120 436/698/120 
f 434/696/121 437/699/84 438/700/84 435/697/120 
usemtl Myyrivahe_25_Door01
s off
f 433/701/117 436/702/117 439/702/117 440/701/117 
f 434/703/118 433/701/118 440/701/118 441/703/118 
f 438/704/7 437/705/7 442/705/7 443/704/7 
f 437/705/119 434/703/119 441/703/119 442/705/119 
usemtl Myyrivahe_25_Window02
s 4
f 444/695/84 445/696/84 446/697/84 447/698/84 
f 445/696/84 448/699/84 449/700/84 446/697/84 
usemtl Myyrivahe_25_Door01
s off
f 444/701/117 447/702/117 450/702/117 451/701/117 
f 445/703/118 444/701/118 451/701/118 452/703/118 
f 449/704/7 448/705/7 453/705/7 454/704/7 
f 448/705/119 445/703/119 452/703/119 453/705/119 
usemtl Myyrivahe_25_Window02
s 4
f 455/695/84 456/696/84 457/697/84 458/698/84 
f 456/696/84 459/699/122 460/700/122 457/697/84 
usemtl Myyrivahe_25_Door01
s off
f 455/701/117 458/702/117 461/702/117 462/701/117 
f 456/703/118 455/701/118 462/701/118 463/703/118 
f 460/704/7 459/705/7 464/705/7 465/704/7 
f 459/705/119 456/703/119 463/703/119 464/705/119 
usemtl Myyrivahe_25_WhitePlaster
s 4
f 466/706/58 467/707/58 468/708/58 469/709/58 
s 8
f 470/710/84 471/711/84 472/712/84 473/713/84 
s 16
f 471/714/32 474/715/32 475/716/32 472/717/32 
s 32
f 474/718/123 476/719/123 477/720/123 475/721/123 
s 64
f 476/722/7 470/723/7 473/724/7 477/725/7 
s off
f 473/726/58 472/727/58 478/728/58 479/729/58 
f 472/727/58 475/730/58 480/731/58 478/728/58 
f 475/730/58 477/732/58 481/733/58 480/731/58 
f 477/732/58 473/726/58 479/729/58 481/733/58 
f 479/734/123 478/735/123 467/736/123 466/737/123 
f 478/738/7 480/739/7 468/740/7 467/741/7 
f 480/742/84 481/743/84 469/744/84 468/745/84 
f 481/746/32 479/747/32 466/748/32 469/749/32 
s 4
f 482/706/58 483/707/58 484/708/58 485/709/58 
s 8
f 486/711/32 487/750/32 488/751/32 489/710/32 
s 16
f 490/715/123 491/752/123 487/753/123 486/714/123 
s 32
f 492/719/7 493/754/7 491/755/7 490/718/7 
s 64
f 489/723/84 488/756/84 493/757/84 492/722/84 
s off
f 494/726/58 495/727/58 496/728/58 497/729/58 
f 495/727/58 498/730/58 499/731/58 496/728/58 
f 498/730/58 500/732/58 501/733/58 499/731/58 
f 500/732/58 494/726/58 497/729/58 501/733/58 
f 497/734/7 496/735/7 483/736/7 482/737/7 
f 496/738/84 499/739/84 484/740/84 483/741/84 
f 499/742/32 501/743/32 485/744/32 484/745/32 
f 501/746/123 497/747/123 482/748/123 485/749/123 
s 8
f 495/712/32 494/713/32 502/751/32 503/750/32 
s 16
f 498/716/123 495/717/123 503/753/123 504/752/123 
s 32
f 500/720/7 498/721/7 504/755/7 505/754/7 
s 64
f 494/724/84 500/725/84 505/757/84 502/756/84 
s off
f 506/710/43 507/711/43 486/711/43 489/710/43 
f 507/714/43 508/715/43 490/715/43 486/714/43 
f 508/718/43 509/719/43 492/719/43 490/718/43 
f 509/722/43 506/723/43 489/723/43 492/722/43 
f 503/750/58 502/751/58 488/751/58 487/750/58 
f 502/756/58 505/757/58 493/757/58 488/756/58 
f 505/754/58 504/755/58 491/755/58 493/754/58 
f 504/752/58 503/753/58 487/753/58 491/752/58 
s 4
f 510/706/58 511/707/58 512/708/58 513/709/58 
s 8
f 514/710/32 515/711/32 516/712/32 517/713/32 
s 16
f 515/714/123 518/715/123 519/716/123 516/717/123 
s 32
f 518/718/7 520/719/7 521/720/7 519/721/7 
s 64
f 520/722/84 514/723/84 517/724/84 521/725/84 
s off
f 517/726/58 516/727/58 522/728/58 523/729/58 
f 516/727/58 519/730/58 524/731/58 522/728/58 
f 519/730/58 521/732/58 525/733/58 524/731/58 
f 521/732/58 517/726/58 523/729/58 525/733/58 
f 523/734/7 522/735/7 511/736/7 510/737/7 
f 522/738/84 524/739/84 512/740/84 511/741/84 
f 524/742/32 525/743/32 513/744/32 512/745/32 
f 525/746/123 523/747/123 510/748/123 513/749/123 
# 469 polygons - 25 triangles

