# 3ds Max Wavefront OBJ Exporter v0.97b - (c)2007 guruware
# File Created: 16.04.2012 15:42:25

mtllib Kooli10.mtl

#
# object Kooli10
#

v  -67.7603 336.6855 20.9874
v  -67.7603 336.6855 21.1735
v  -67.9028 336.6848 21.1610
v  -74.4028 349.0677 20.9184
v  -75.7378 354.2858 20.9184
v  -75.7378 354.2858 14.7434
v  -74.4028 349.0677 14.7434
v  -71.2952 350.3102 24.6605
v  -70.6177 336.5891 24.6629
v  -70.5474 336.5915 24.5771
v  -68.1875 351.5526 20.9184
v  -73.6806 336.4306 20.9207
v  -70.6995 336.5849 24.5629
v  -70.6192 336.5930 24.4904
v  -70.6195 336.5935 24.4657
v  -70.6295 336.5924 24.4779
v  -70.6513 336.6727 20.9190
v  -73.5450 336.4414 20.9206
v  -73.6806 336.4306 20.7546
v  -73.6806 336.4306 14.7458
v  -70.7235 336.6670 14.7441
v  -72.2785 355.4937 21.0613
v  -70.9271 355.9655 20.9897
v  -70.9248 355.9663 18.9472
v  -72.6597 355.3606 18.9358
v  -72.6597 355.3606 21.0613
v  -68.9008 354.0511 20.2816
v  -69.2121 355.1417 20.2816
v  -69.5815 356.4354 20.3444
v  -69.5815 356.4354 20.8240
v  -69.5815 356.4354 20.9184
v  -68.1875 351.5526 20.2916
v  -68.2536 351.7840 20.2816
v  -68.5649 352.8745 20.2816
v  -68.0416 346.4771 18.9887
v  -68.0091 345.3434 18.9887
v  -68.0084 345.3188 17.7773
v  -68.0478 346.6912 17.7773
v  -68.1033 348.6222 16.3667
v  -68.1033 348.6222 17.7662
v  -68.0478 346.6912 15.2381
v  -75.5955 354.3355 20.9264
v  -74.3630 354.7659 22.5897
v  -74.2336 354.8111 22.5867
v  -72.7010 355.3462 24.6102
v  -72.6597 355.3606 24.6605
v  -72.5959 355.3829 24.5830
v  -72.6372 355.3685 24.5327
v  -71.0091 355.9369 22.5568
v  -70.9288 355.9649 22.5564
v  -70.9287 355.9650 22.4592
v  -75.7378 354.2858 20.7529
v  -67.8440 339.6008 17.7228
v  -67.8368 339.3487 17.7228
v  -67.8368 339.3487 16.1334
v  -67.8440 339.6008 16.1334
v  -67.9624 343.7182 18.9887
v  -67.9624 343.7182 17.7228
v  -67.9298 342.5845 18.9887
v  -67.9298 342.5845 17.7228
v  -67.8766 340.7344 18.9887
v  -67.8766 340.7344 17.7228
v  -67.8440 339.6008 18.9887
v  -67.8368 339.3487 18.9887
v  -67.8042 338.2151 18.9887
v  -67.8042 338.2151 17.7228
v  -67.7603 336.6855 17.7273
v  -67.7603 336.6855 19.0040
v  -68.1033 348.6222 18.8822
v  -68.1033 348.6222 20.2816
v  -68.0416 346.4771 20.3882
v  -68.9008 354.0511 17.6162
v  -69.2121 355.1417 17.6162
v  -69.2121 355.1417 18.8822
v  -68.9008 354.0511 18.8822
v  -68.2536 351.7840 18.8822
v  -68.1875 351.5526 18.8984
v  -68.1875 351.5526 17.6481
v  -68.5649 352.8745 18.8822
v  -68.2536 351.7840 17.6162
v  -68.5649 352.8745 17.6162
v  -68.0084 345.3188 15.2381
v  -68.0088 345.3336 14.7430
v  -68.0481 346.7011 14.7431
v  -68.1359 349.7558 16.3667
v  -68.1875 351.5526 16.2531
v  -68.1359 349.7558 17.7662
v  -68.2536 351.7840 16.2167
v  -68.5649 352.8745 16.2167
v  -68.9008 354.0511 16.2167
v  -69.5815 356.4354 18.9559
v  -68.1359 349.7558 20.2816
v  -68.1359 349.7558 18.8822
v  -68.0091 345.3434 20.3882
v  -67.9624 343.7182 20.3882
v  -67.8766 340.7344 20.3882
v  -67.9298 342.5845 20.3882
v  -67.8440 339.6008 20.3882
v  -67.8368 339.3487 20.3882
v  -67.7603 336.6855 20.6657
v  -67.8042 338.2151 20.3882
v  -67.7603 336.6855 16.1536
v  -67.8042 338.2151 16.1334
v  -67.9298 342.5845 16.3233
v  -67.8766 340.7344 16.1334
v  -67.9624 343.7182 16.3233
v  -67.7603 336.6855 14.7424
v  -68.1875 351.5526 14.7434
v  -67.8742 338.2130 20.3882
v  -67.8742 338.2130 18.9887
v  -67.9068 339.3467 18.9887
v  -67.9068 339.3467 20.3882
v  -67.9140 339.5988 20.3882
v  -67.9140 339.5988 18.9887
v  -67.9466 340.7324 18.9887
v  -67.9466 340.7324 20.3882
v  -67.9998 342.5825 20.3882
v  -67.9998 342.5825 18.9887
v  -68.0323 343.7162 18.9887
v  -68.0323 343.7162 20.3882
v  -68.0790 345.3414 20.3882
v  -68.0790 345.3414 18.9887
v  -68.1116 346.4750 18.9887
v  -68.1116 346.4750 20.3882
v  -68.1733 348.6201 20.2816
v  -68.1733 348.6201 18.8822
v  -68.2058 349.7538 18.8822
v  -68.2058 349.7538 20.2816
v  -68.3209 351.7648 20.2816
v  -68.3209 351.7648 18.8822
v  -68.6322 352.8553 18.8822
v  -68.6322 352.8553 20.2816
v  -68.9681 354.0319 20.2816
v  -68.9681 354.0319 18.8822
v  -69.2794 355.1224 18.8822
v  -69.2794 355.1224 20.2816
v  -67.8742 338.2130 16.1334
v  -67.9068 339.3467 16.1334
v  -67.9068 339.3467 17.7228
v  -67.8742 338.2130 17.7228
v  -67.9140 339.5988 17.7228
v  -67.9140 339.5988 16.1334
v  -67.9466 340.7324 16.1334
v  -67.9466 340.7324 17.7228
v  -67.9998 342.5825 17.7228
v  -67.9998 342.5825 16.3233
v  -68.0323 343.7162 16.3233
v  -68.0323 343.7162 17.7228
v  -68.1733 348.6201 17.7662
v  -68.1733 348.6201 16.3667
v  -68.2058 349.7538 16.3667
v  -68.2058 349.7538 17.7662
v  -68.3209 351.7648 16.2167
v  -68.6322 352.8553 16.2167
v  -68.6322 352.8553 17.6162
v  -68.3209 351.7648 17.6162
v  -68.9681 354.0319 17.6162
v  -68.9681 354.0319 16.2167
v  -69.2794 355.1224 16.2167
v  -69.2794 355.1224 17.6162
v  -68.0725 345.3169 17.7773
v  -68.0725 345.3169 15.2381
v  -68.1120 346.6894 15.2381
v  -68.1120 346.6894 17.7773
v  -69.2121 355.1417 16.2167
v  -69.3699 356.4958 20.4849
v  -69.3699 356.4958 20.6830
v  -67.9684 351.5865 20.6830
v  -67.9684 351.5865 20.5039
v  -68.1875 351.5526 20.5039
v  -69.5815 356.4354 20.4849
v  -69.1025 354.7576 20.9184
v  -69.5815 356.4354 20.7569
v  -67.5404 336.6918 20.9382
v  -67.5404 336.6918 20.6820
v  -67.7603 336.6855 20.6820
v  -68.0069 345.3382 15.1547
v  -68.0514 346.7497 15.1547
v  -68.0514 346.7497 15.0420
v  -68.0069 345.3382 15.0420
v  -67.3774 346.7673 15.0420
v  -67.3774 346.7673 15.1547
v  -67.3329 345.3558 15.1547
v  -67.3329 345.3558 15.0420
v  -68.0069 345.3382 15.2673
v  -68.0515 346.7520 15.2673
v  -68.0515 346.7520 15.1547
v  -67.4838 346.7669 15.1547
v  -67.4838 346.7669 15.2673
v  -67.4392 345.3531 15.2673
v  -67.4392 345.3531 15.1547
v  -68.0514 346.7497 14.7435
v  -68.0069 345.3382 14.7435
v  -67.3774 346.7673 14.7435
v  -67.3329 345.3558 14.7435
v  -73.9701 336.4141 20.6107
v  -74.6907 349.0231 20.6084
v  -73.9701 336.4140 20.4907
v  -74.6907 349.0230 20.4883
v  -73.6806 336.4305 20.4907
v  -74.4028 349.0677 20.4883
v  -76.0188 354.2140 20.6084
v  -76.0188 354.2140 20.4883
v  -75.7379 354.2858 20.4883
v  -75.7378 354.2858 20.8137
v  -71.8680 346.9106 23.8194
v  -71.8232 346.0651 23.8194
v  -73.3464 345.9844 21.9762
v  -73.3911 346.8299 21.9762
v  -73.3618 345.9836 22.9051
v  -73.4066 346.8291 22.9051
v  -73.3186 346.0360 22.5492
v  -73.3581 346.7816 22.5492
v  -73.3494 346.7820 22.0268
v  -73.3099 346.0364 22.0268
v  -73.3570 345.9839 22.6159
v  -73.4018 346.8293 22.6159
v  -73.6589 346.8157 22.7450
v  -73.6524 346.8161 22.6117
v  -73.6076 345.9706 22.6117
v  -73.6141 345.9703 22.7450
v  -73.3893 346.7799 22.0262
v  -73.3498 346.0343 22.0262
v  -73.3585 346.0339 22.5486
v  -73.3980 346.7795 22.5486
v  -69.2199 355.1689 14.7434
v  -69.6628 356.4070 20.9227
v  -70.9201 355.9680 14.7434
v  -72.6597 355.3606 14.7434
v  -75.7378 354.2858 18.9157
v  -69.4572 356.0001 16.2191
v  -69.4572 356.0001 17.5134
v  -69.4590 356.0064 17.6426
v  -69.4572 356.0001 14.7434
v  -69.4651 356.0276 17.7902
v  -69.4746 356.0611 17.9156
v  -69.4875 356.1061 18.0259
v  -69.5032 356.1612 18.1170
v  -69.5211 356.2240 18.1854
v  -69.5406 356.2924 18.2544
v  -69.5610 356.3637 18.3209
v  -69.5815 356.4354 18.3811
v  -69.7089 356.3909 18.2544
v  -69.7699 356.3696 18.1854
v  -69.6454 356.4131 18.3209
v  -69.9694 356.2999 14.7434
v  -69.9694 356.2999 17.5134
v  -69.9632 356.3021 17.6545
v  -69.9449 356.3085 17.7902
v  -69.9151 356.3189 17.9156
v  -69.8749 356.3329 18.0259
v  -69.8259 356.3500 18.1170
v  -69.7257 356.1573 14.7434
v  -73.2222 355.1642 21.0613
v  -73.2222 355.1642 22.5632
v  -72.2785 355.4937 22.5632
v  -73.4734 341.4473 25.4304
v  -73.4734 341.4473 21.7192
v  -72.7080 341.3822 21.7192
v  -72.7080 341.3822 25.4304
v  -72.6656 342.1699 21.7192
v  -72.6656 342.1699 25.4304
v  -73.4410 342.2160 21.7192
v  -73.4410 342.2160 25.4304
v  -73.4967 341.4200 25.4304
v  -72.6859 341.3534 25.4304
v  -72.6859 341.3534 25.6793
v  -73.4967 341.4200 25.6793
v  -72.6430 342.1980 25.4304
v  -72.6430 342.1980 25.6793
v  -73.4631 342.2448 25.4304
v  -73.4631 342.2448 25.6793
v  -72.7904 349.7710 19.6591
v  -72.7563 349.2116 19.6592
v  -73.9021 349.1657 19.6592
v  -73.9142 349.7661 19.6592
v  -73.8997 349.1683 24.9100
v  -72.7589 349.2139 24.9100
v  -72.7928 349.7684 24.9102
v  -73.9117 349.7636 24.9100
v  -73.8703 349.1995 24.9823
v  -72.7908 349.2426 24.9823
v  -72.7907 349.2426 25.5708
v  -73.8703 349.1995 25.5708
v  -72.8220 349.7372 24.9823
v  -72.8220 349.7372 25.5708
v  -73.8810 349.7337 24.9823
v  -73.8810 349.7337 25.5708
v  -72.7708 355.2477 21.7920
v  -72.6741 355.2814 21.7920
v  -72.6741 355.2814 21.9314
v  -72.7708 355.2477 21.9314
v  -72.7068 355.3750 21.9314
v  -72.7068 355.3750 21.7920
v  -72.8035 355.3412 21.7920
v  -72.8035 355.3412 21.9314
v  -72.6725 355.3975 21.0613
v  -72.2914 355.5305 21.0613
v  -72.6653 355.3767 20.9514
v  -72.1850 355.5397 20.9577
v  -72.6373 355.2965 20.9530
v  -72.1605 355.4684 20.9582
v  -72.2914 355.5305 22.5632
v  -72.1850 355.5397 22.6668
v  -72.1606 355.4684 22.6663
v  -73.2350 355.2010 22.5632
v  -73.3240 355.1419 22.6668
v  -73.2988 355.0710 22.6663
v  -73.2350 355.2010 21.0613
v  -73.3240 355.1419 20.9577
v  -73.2988 355.0710 20.9582
v  -74.3689 348.4749 14.7435
v  -74.3676 348.4522 16.3519
v  -74.3676 348.4522 17.5455
v  -74.3722 348.5316 20.9184
v  -74.3136 347.5066 14.7437
v  -74.3101 347.4458 16.3519
v  -74.3090 347.4253 20.9187
v  -74.3101 347.4458 17.5455
v  -74.2978 348.4562 16.3519
v  -74.2402 347.4497 16.3519
v  -74.2402 347.4497 17.5455
v  -74.2978 348.4562 17.5455
# 323 vertices

vn 0.0047 -1.0000 0.0000
vn -0.9688 -0.2479 0.0000
vn 0.7724 0.0383 0.6339
vn 0.7726 0.0383 0.6337
vn 0.7635 0.0330 0.6450
vn -0.7615 -0.0434 0.6468
vn -0.7725 -0.0380 0.6339
vn -0.7727 -0.0380 0.6337
vn 0.0046 -0.9998 -0.0211
vn 0.0065 -0.9997 -0.0223
vn 0.0067 -0.9997 -0.0222
vn 0.0827 -0.9963 -0.0219
vn 0.0797 -0.9968 -0.0002
vn 0.0797 -0.9968 0.0000
vn 0.0797 -0.9968 -0.0000
vn -0.3296 0.9441 -0.0000
vn -0.3297 0.9441 0.0000
vn 0.9616 0.2745 0.0021
vn 0.9616 0.2745 0.0000
vn 0.9615 0.2747 0.0000
vn 0.9616 0.2745 -0.0001
vn 0.9616 0.2745 -0.0000
vn 0.9996 0.0287 -0.0000
vn 0.9996 0.0287 0.0000
vn -0.3298 0.9440 0.0001
vn -0.3297 0.9441 0.0003
vn -0.3294 0.9442 0.0006
vn -0.3298 0.9441 0.0000
vn 0.9996 0.0286 0.0000
vn 0.9996 0.0288 0.0000
vn 0.9616 0.2745 -0.0015
vn 0.9616 0.2745 -0.0005
vn 0.9996 0.0287 0.0001
vn 0.9616 0.2746 0.0000
vn 0.9996 0.0287 -0.0001
vn 0.9996 0.0287 0.0025
vn 0.9996 0.0287 -0.0003
vn 0.9996 0.0287 0.0003
vn 0.9996 0.0288 0.0011
vn 0.9996 0.0287 -0.0008
vn 0.9996 0.0287 0.0002
vn 0.9996 0.0286 -0.0005
vn 0.9996 0.0288 0.0001
vn 0.9996 0.0288 -0.0001
vn 0.9996 0.0286 0.0003
vn 0.0000 0.0000 1.0000
vn 0.0283 -0.9996 0.0000
vn 0.0000 0.0000 -1.0000
vn -0.0296 0.9996 0.0000
vn 0.0288 -0.9996 0.0000
vn -0.0288 0.9996 0.0000
vn 0.0301 -0.9995 0.0000
vn 0.0284 -0.9996 0.0000
vn -0.0301 0.9995 0.0000
vn 0.2747 -0.9615 0.0000
vn -0.2743 0.9616 0.0000
vn 0.2755 -0.9613 0.0000
vn 0.0280 -0.9996 0.0000
vn -0.0295 0.9996 0.0000
vn 0.0010 -0.0036 -1.0000
vn 0.0006 -0.0037 -1.0000
vn -0.9616 -0.2745 0.0000
vn 0.7293 0.0327 0.6835
vn 0.7298 0.0327 0.6829
vn 0.0018 -0.0119 -0.9999
vn 0.0003 -0.0120 -0.9999
vn -0.9996 -0.0287 0.0000
vn -0.2745 0.9616 0.0000
vn 0.0287 -0.9996 0.0000
vn -0.9995 -0.0315 0.0000
vn 0.9995 0.0315 0.0000
vn -0.0261 0.9997 0.0000
vn 0.0261 -0.9997 0.0000
vn -0.0262 0.9997 0.0000
vn 0.0262 -0.9997 0.0000
vn -0.7291 -0.0415 0.6831
vn -0.9984 -0.0571 0.0000
vn 0.0000 -0.0002 -1.0000
vn 0.9984 0.0571 0.0000
vn 0.9984 0.0571 -0.0000
vn -0.9688 -0.2479 0.0002
vn 0.9688 0.2479 -0.0003
vn 0.9688 0.2479 0.0000
vn 0.0569 -0.9984 0.0003
vn 0.0573 -0.9984 0.0000
vn 0.0561 -0.9984 0.0008
vn -0.2477 0.9688 0.0001
vn -0.2476 0.9689 0.0000
vn 0.7693 0.0408 -0.6376
vn 0.7694 0.0407 -0.6375
vn -0.5096 -0.0270 0.8600
vn -0.9985 -0.0529 -0.0167
vn 0.0528 -0.9986 0.0001
vn 0.0529 -0.9986 -0.0001
vn -0.0528 0.9986 -0.0001
vn -0.0529 0.9986 0.0000
vn -0.9974 -0.0528 -0.0488
vn -0.9974 -0.0529 -0.0488
vn -0.5345 -0.0283 0.8447
vn -0.0527 0.9986 0.0004
vn -0.0529 0.9986 -0.0001
vn 0.0167 0.0009 -0.9999
vn 0.0527 -0.9986 -0.0001
vn 0.0529 -0.9986 0.0003
vn -0.9985 -0.0528 -0.0168
vn -0.9985 -0.0529 -0.0152
vn -0.9985 -0.0514 -0.0167
vn -0.9985 -0.0522 -0.0166
vn -0.9985 -0.0529 -0.0171
vn -0.9985 -0.0529 -0.0172
vn -0.9984 -0.0535 -0.0168
vn -0.9985 -0.0526 -0.0167
vn -0.0150 -0.0008 0.9999
vn -0.0527 0.9986 -0.0001
vn 0.0150 0.0008 -0.9999
vn 0.0519 -0.9987 0.0001
vn 0.0527 -0.9986 0.0001
vn 0.9616 0.2745 0.0001
vn -0.3291 0.9443 0.0006
vn -0.3296 0.9441 0.0001
vn -0.3296 0.9441 0.0000
vn 0.9616 0.2746 -0.0000
vn 0.9615 0.2750 0.0003
vn 0.9617 0.2741 -0.0004
vn 0.9615 0.2748 0.0003
vn 0.9616 0.2744 -0.0003
vn 0.9616 0.2744 -0.0002
vn 0.9615 0.2747 0.0003
vn -0.3297 0.9441 -0.0000
vn -0.3297 0.9441 -0.0001
vn -0.3297 0.9441 0.0001
vn -0.3299 0.9440 -0.0002
vn -0.3298 0.9441 -0.0001
vn -0.3293 0.9442 0.0004
vn -0.3299 0.9440 -0.0003
vn 0.5014 0.8591 -0.1025
vn 0.5023 0.8579 -0.1083
vn 0.5049 0.8624 -0.0356
vn 0.5048 0.8625 -0.0351
vn 0.4847 0.8282 -0.2813
vn 0.4847 0.8281 -0.2816
vn 0.4962 0.8474 -0.1889
vn 0.4961 0.8476 -0.1882
vn 0.4214 0.7203 -0.5510
vn 0.4214 0.7201 -0.5513
vn 0.4633 0.7914 -0.3987
vn 0.4633 0.7918 -0.3980
vn 0.4113 0.7028 -0.5804
vn 0.4113 0.7027 -0.5805
vn 0.3836 0.6558 -0.6502
vn 0.4001 0.6836 -0.6104
vn 0.4001 0.6838 -0.6102
vn 0.5052 0.8630 0.0000
vn 0.5051 0.8631 0.0000
vn 0.7217 0.1950 0.6641
vn 0.7255 0.2071 0.6563
vn -0.7287 -0.1969 0.6559
vn -0.7248 -0.1854 0.6635
vn 0.7026 0.2006 0.6828
vn 0.7025 0.2005 0.6829
vn -0.7074 -0.1810 0.6832
vn -0.7075 -0.1810 0.6831
vn -0.0847 -0.9964 0.0000
vn 0.9986 -0.0537 0.0000
vn 0.0594 0.9982 0.0000
vn -0.9991 0.0421 0.0000
vn -0.0819 -0.9966 0.0000
vn 0.9987 -0.0507 0.0000
vn 0.0570 0.9984 0.0000
vn -0.9992 0.0407 0.0000
vn -0.0001 -0.0000 -1.0000
vn 0.0400 -0.9992 0.0005
vn 0.0399 -0.9992 0.0005
vn 0.9981 0.0608 0.0005
vn 0.9981 0.0610 0.0005
vn -0.0043 1.0000 0.0005
vn -0.9998 -0.0201 0.0005
vn -0.9998 -0.0202 0.0005
vn 0.0399 -0.9992 -0.0000
vn 0.0399 -0.9992 0.0000
vn 0.9980 0.0629 0.0000
vn 0.9980 0.0631 -0.0002
vn -0.0033 1.0000 0.0000
vn -0.9998 -0.0200 0.0000
vn 0.0369 -0.9230 0.3831
vn 0.0369 -0.9231 0.3829
vn 0.9215 0.0562 0.3843
vn 0.9164 0.0578 0.3961
vn -0.0040 0.9184 0.3957
vn -0.0031 0.9236 0.3834
vn -0.9230 -0.0186 0.3843
vn -0.9234 -0.0185 0.3834
vn 0.3290 -0.9443 0.0000
vn -0.3301 0.9439 0.0000
vn -0.9439 -0.3302 0.0000
vn 0.9440 0.3298 0.0000
vn -0.3231 0.9258 -0.1962
vn -0.3095 0.9212 -0.2359
vn 0.0178 -0.0137 -0.9997
vn 0.0120 -0.0029 -0.9999
vn 0.2793 -0.7999 0.5311
vn 0.2841 -0.8039 0.5225
vn -0.9437 -0.3309 0.0000
vn -0.0863 0.9963 0.0000
vn 0.9457 0.3250 0.0000
vn 0.9461 0.3238 0.0001
vn -0.2096 -0.9778 -0.0000
vn -0.2098 -0.9777 0.0000
vn -0.3195 0.9149 0.2467
vn -0.3195 0.9148 0.2472
vn 0.0022 -0.0063 1.0000
vn 0.2816 -0.8065 -0.5199
vn 0.9444 0.3288 0.0000
vn -0.5531 0.8331 0.0000
vn -0.9422 -0.3349 0.0000
vn 0.7726 -0.6349 0.0000
vn -0.3280 0.9138 -0.2394
vn -0.3234 0.9257 -0.1962
vn -0.0063 -0.0093 -0.9999
vn -0.0010 -0.0203 -0.9998
vn 0.2790 -0.8063 0.5216
vn -0.9616 -0.2745 -0.0000
vn -0.3300 0.9440 -0.0000
vn -0.3299 0.9440 0.0002
vn -0.3295 0.9442 0.0001
vn -0.3294 0.9442 0.0002
vn 0.0064 -0.9997 -0.0225
vn 0.0815 -0.9965 -0.0209
vn 0.0795 -0.9966 -0.0231
vn 0.0794 -0.9968 0.0000
vn 0.0793 -0.9966 -0.0227
vn 0.0794 -0.9966 -0.0228
vn 0.0814 -0.9964 -0.0230
vn 0.0796 -0.9966 -0.0230
vn 0.0064 -0.9997 -0.0224
vn 0.0062 -1.0000 0.0009
vn 0.0044 -1.0000 0.0000
vn 0.0044 -1.0000 -0.0002
vn -0.9984 -0.0570 0.0000
vn -0.9984 -0.0570 -0.0000
vn -0.9984 -0.0571 -0.0000
vn -0.0558 0.9984 0.0000
vn 0.0572 -0.9984 0.0000
# 243 vertex normals

vt -0.7970 1.1614 -9.7780
vt -0.7873 1.0688 -9.7780
vt -0.7179 1.0824 -9.7563
vt 0.2925 0.9991 0.0000
vt 0.0005 0.9991 0.0000
vt 0.0005 0.0007 0.0000
vt 0.0005 0.0007 0.0000
vt 0.2925 0.0007 0.0000
vt 0.2925 0.9991 0.0000
vt 9.0017 7.3749 0.0000
vt -0.1549 7.2545 0.0000
vt -0.1511 7.1774 0.0000
vt 9.0017 7.3749 0.0000
vt -0.1511 7.1774 0.0000
vt 0.0000 4.1166 0.0000
vt 9.0017 7.3749 0.0000
vt 0.0000 4.1166 0.0000
vt 9.7702 4.1174 0.0000
vt -13.1192 7.3847 0.0000
vt -12.3938 4.1173 0.0000
vt -3.9555 4.1616 0.0000
vt -13.1192 7.3847 0.0000
vt -3.9555 4.1616 0.0000
vt -3.9605 7.3006 0.0000
vt -13.1192 7.3847 0.0000
vt -3.9605 7.3006 0.0000
vt -3.9607 7.3868 0.0000
vt 0.7668 -0.4790 -9.4348
vt 0.7974 -0.4322 -9.4221
vt 0.7962 -0.4199 -9.4215
vt 0.7668 -0.4790 -9.4348
vt 0.7962 -0.4199 -9.4215
vt -0.7179 1.0824 -9.7563
vt 0.7668 -0.4790 -9.4348
vt -0.7179 1.0824 -9.7563
vt -0.7873 1.0688 -9.7780
vt 0.7962 -0.4199 -9.4215
vt 0.7974 -0.4322 -9.4221
vt 0.8018 -0.4255 -9.4210
vt 0.6380 0.9992 0.0000
vt 0.2753 0.9995 0.0000
vt 0.2583 0.9726 0.0000
vt 0.6380 0.9992 0.0000
vt 0.2583 0.9726 0.0000
vt 0.2583 0.0010 0.0000
vt 0.6380 0.9992 0.0000
vt 0.2583 0.0010 0.0000
vt 0.6289 0.0008 0.0000
vt 0.4382 0.6369 0.0000
vt 0.2189 0.6297 0.0000
vt 0.2185 0.4240 0.0000
vt 0.4382 0.6369 0.0000
vt 0.2185 0.4240 0.0000
vt 0.5000 0.4228 0.0000
vt 0.4382 0.6369 0.0000
vt 0.5000 0.4228 0.0000
vt 0.5000 0.6369 0.0000
vt 1.8108 1.2892 0.0000
vt 1.9985 1.2892 0.0000
vt 2.2211 1.3031 0.0000
vt 2.2211 1.4094 0.0000
vt 2.2211 1.4303 0.0000
vt 1.3809 1.4303 0.0000
vt 2.2211 1.3031 0.0000
vt 2.2211 1.4094 0.0000
vt 1.3809 1.4303 0.0000
vt 1.3809 1.4303 0.0000
vt 1.3809 1.2914 0.0000
vt 1.4207 1.2892 0.0000
vt 1.3809 1.4303 0.0000
vt 1.4207 1.2892 0.0000
vt 1.6084 1.2892 0.0000
vt 2.2211 1.3031 0.0000
vt 1.3809 1.4303 0.0000
vt 1.6084 1.2892 0.0000
vt 1.8108 1.2892 0.0000
vt 2.2211 1.3031 0.0000
vt 1.6084 1.2892 0.0000
vt 0.5076 1.0026 0.0000
vt 0.3125 1.0026 0.0000
vt 0.3083 0.7341 0.0000
vt 0.3083 0.7341 0.0000
vt 0.5444 0.7341 0.0000
vt 0.5076 1.0026 0.0000
vt 0.8767 0.4214 0.0000
vt 0.8767 0.7316 0.0000
vt 0.5444 0.7341 0.0000
vt 0.5444 0.7341 0.0000
vt 0.5444 0.1712 0.0000
vt 0.8767 0.4214 0.0000
vt -0.6750 1.4517 8.8806
vt -0.7484 1.4635 8.8538
vt -0.1232 0.5575 9.1129
vt -0.1232 0.5575 9.1129
vt -0.0559 0.5519 9.1372
vt -0.6750 1.4517 8.8806
vt 0.6327 -0.5378 9.4260
vt 0.6515 -0.5650 9.4337
vt 0.6886 -0.5300 9.4458
vt 0.6886 -0.5300 9.4458
vt 0.6698 -0.5027 9.4380
vt 0.6327 -0.5378 9.4260
vt 1.6169 0.3912 9.7448
vt 1.6585 0.3870 9.7599
vt 1.6637 0.4353 9.7599
vt -0.7397 1.5457 8.8538
vt -0.7484 1.4635 8.8538
vt -0.6750 1.4517 8.8806
vt -0.6756 0.7220 0.0000
vt -0.7190 0.7220 0.0000
vt -0.7190 0.3697 0.0000
vt -0.7190 0.3697 0.0000
vt -0.6756 0.3697 0.0000
vt -0.6756 0.7220 0.0000
vt 0.0329 1.0026 0.0000
vt 0.3083 0.7341 0.0000
vt 0.3125 1.0026 0.0000
vt 0.3083 0.7341 0.0000
vt 0.0329 1.0026 0.0000
vt 0.0329 0.7220 0.0000
vt -0.1622 1.0026 0.0000
vt 0.0329 0.7220 0.0000
vt 0.0329 1.0026 0.0000
vt 0.0329 0.7220 0.0000
vt -0.1622 1.0026 0.0000
vt -0.1622 0.7220 0.0000
vt -0.4805 1.0026 0.0000
vt -0.1622 0.7220 0.0000
vt -0.1622 1.0026 0.0000
vt -0.1622 0.7220 0.0000
vt -0.4805 1.0026 0.0000
vt -0.4805 0.7220 0.0000
vt -0.6756 1.0026 0.0000
vt -0.4805 0.7220 0.0000
vt -0.4805 1.0026 0.0000
vt -0.4805 0.7220 0.0000
vt -0.6756 1.0026 0.0000
vt -0.6756 0.7220 0.0000
vt -0.7190 1.0026 0.0000
vt -0.6756 0.7220 0.0000
vt -0.6756 1.0026 0.0000
vt -0.6756 0.7220 0.0000
vt -0.7190 1.0026 0.0000
vt -0.7190 0.7220 0.0000
vt -0.9140 1.0026 0.0000
vt -0.7190 0.7220 0.0000
vt -0.7190 1.0026 0.0000
vt -0.7190 0.7220 0.0000
vt -0.9140 1.0026 0.0000
vt -0.9140 0.7220 0.0000
vt -1.1398 0.7230 0.0000
vt -0.9140 0.7220 0.0000
vt -1.1398 1.0060 0.0000
vt -1.1398 1.0060 0.0000
vt -0.9140 0.7220 0.0000
vt -0.9140 1.0026 0.0000
vt 0.4353 0.0702 0.0000
vt 1.1571 0.0005 0.0000
vt 1.1571 0.9158 0.0000
vt 1.1571 0.9158 0.0000
vt 0.4353 0.9855 0.0000
vt 0.4353 0.0702 0.0000
vt 1.8108 0.6984 0.0000
vt 1.9985 0.6984 0.0000
vt 1.9985 0.9790 0.0000
vt 1.8108 0.6984 0.0000
vt 1.9985 0.9790 0.0000
vt 1.8108 0.9790 0.0000
vt 1.4207 0.9790 0.0000
vt 1.3809 0.9826 0.0000
vt 1.3809 0.7054 0.0000
vt 1.6084 0.9790 0.0000
vt 1.4207 0.9790 0.0000
vt 1.3809 0.7054 0.0000
vt 1.8108 0.9790 0.0000
vt 1.6084 0.9790 0.0000
vt 1.3809 0.7054 0.0000
vt 1.8108 0.6984 0.0000
vt 1.8108 0.9790 0.0000
vt 1.3809 0.7054 0.0000
vt 1.3809 0.7054 0.0000
vt 1.4207 0.6984 0.0000
vt 1.6084 0.6984 0.0000
vt 1.8108 0.6984 0.0000
vt 1.3809 0.7054 0.0000
vt 1.6084 0.6984 0.0000
vt 0.5444 0.1712 0.0000
vt 0.3083 0.1712 0.0000
vt 0.3108 0.0615 0.0000
vt 0.3108 0.0615 0.0000
vt 0.5461 0.0615 0.0000
vt 0.5444 0.1712 0.0000
vt 1.0718 0.4214 0.0000
vt 1.3809 0.3962 0.0000
vt 1.3809 0.7054 0.0000
vt 1.3809 0.7054 0.0000
vt 1.0718 0.7316 0.0000
vt 1.0718 0.4214 0.0000
vt 1.3809 0.3962 0.0000
vt 1.4207 0.3882 0.0000
vt 1.4207 0.6984 0.0000
vt 1.4207 0.6984 0.0000
vt 1.3809 0.7054 0.0000
vt 1.3809 0.3962 0.0000
vt 1.6084 0.3882 0.0000
vt 1.8108 0.3882 0.0000
vt 1.8108 0.6984 0.0000
vt 1.8108 0.6984 0.0000
vt 1.6084 0.6984 0.0000
vt 1.6084 0.3882 0.0000
vt 3.3509 0.9158 0.0000
vt 3.3509 0.0005 0.0000
vt 3.7862 0.0488 0.0000
vt 3.7862 0.0488 0.0000
vt 3.7862 0.9569 0.0000
vt 3.3509 0.9158 0.0000
vt 2.5880 0.9158 0.0000
vt 2.5880 0.0005 0.0000
vt 2.9839 0.0005 0.0000
vt 2.9839 0.0005 0.0000
vt 2.9839 0.9158 0.0000
vt 2.5880 0.9158 0.0000
vt 1.4207 1.2892 0.0000
vt 1.3809 1.2914 0.0000
vt 1.3809 0.9826 0.0000
vt 1.3809 0.9826 0.0000
vt 1.4207 0.9790 0.0000
vt 1.4207 1.2892 0.0000
vt 2.1432 0.0111 0.0000
vt 2.1432 0.9224 0.0000
vt 1.5386 0.9158 0.0000
vt 1.5386 0.9158 0.0000
vt 1.5386 0.0005 0.0000
vt 2.1432 0.0111 0.0000
vt 1.0718 0.7316 0.0000
vt 1.3809 0.7054 0.0000
vt 1.3809 0.9826 0.0000
vt 0.8767 0.9790 0.0000
vt 0.5076 1.0026 0.0000
vt 0.5444 0.7341 0.0000
vt 1.0718 0.9790 0.0000
vt 0.8767 0.9790 0.0000
vt 0.5444 0.7341 0.0000
vt 1.3809 0.9826 0.0000
vt 1.0718 0.9790 0.0000
vt 0.5444 0.7341 0.0000
vt 1.0718 0.7316 0.0000
vt 1.3809 0.9826 0.0000
vt 0.5444 0.7341 0.0000
vt 1.0718 0.7316 0.0000
vt 0.5444 0.7341 0.0000
vt 0.8767 0.7316 0.0000
vt -0.4930 0.0702 0.0000
vt 0.0538 0.0702 0.0000
vt 0.0538 0.9855 0.0000
vt 0.0538 0.9855 0.0000
vt -0.4930 0.9855 0.0000
vt -0.4930 0.0702 0.0000
vt -1.4971 0.9855 0.0000
vt -1.4971 0.0702 0.0000
vt -0.8745 0.0702 0.0000
vt -0.8745 0.0702 0.0000
vt -0.8745 0.9855 0.0000
vt -1.4971 0.9855 0.0000
vt -0.7190 1.0026 0.0000
vt -0.6756 1.0026 0.0000
vt -0.6756 1.3128 0.0000
vt -0.6756 1.3128 0.0000
vt -0.7190 1.3128 0.0000
vt -0.7190 1.0026 0.0000
vt -1.1398 1.4301 0.0000
vt 1.3809 1.2914 0.0000
vt 1.3809 1.4303 0.0000
vt -1.1398 1.3175 0.0000
vt -0.9140 1.3128 0.0000
vt -1.1398 1.4301 0.0000
vt -1.1398 1.4301 0.0000
vt 1.0718 1.2892 0.0000
vt 1.3809 1.2914 0.0000
vt -1.1398 1.4301 0.0000
vt 0.8767 1.2892 0.0000
vt 1.0718 1.2892 0.0000
vt -1.1398 1.4301 0.0000
vt 0.5076 1.3128 0.0000
vt 0.8767 1.2892 0.0000
vt -1.1398 1.4301 0.0000
vt 0.3125 1.3128 0.0000
vt 0.5076 1.3128 0.0000
vt -1.1398 1.4301 0.0000
vt 0.0329 1.3128 0.0000
vt 0.3125 1.3128 0.0000
vt -1.1398 1.4301 0.0000
vt -0.1622 1.3128 0.0000
vt 0.0329 1.3128 0.0000
vt -1.1398 1.4301 0.0000
vt -0.4805 1.3128 0.0000
vt -0.1622 1.3128 0.0000
vt -1.1398 1.4301 0.0000
vt -0.6756 1.3128 0.0000
vt -0.4805 1.3128 0.0000
vt -1.1398 1.4301 0.0000
vt -0.7190 1.3128 0.0000
vt -0.6756 1.3128 0.0000
vt -1.1398 1.4301 0.0000
vt -0.9140 1.3128 0.0000
vt -0.7190 1.3128 0.0000
vt -2.7862 0.0802 0.0000
vt -2.3448 0.0702 0.0000
vt -2.3448 0.9855 0.0000
vt -2.3448 0.9855 0.0000
vt -2.7862 0.9995 0.0000
vt -2.7862 0.0802 0.0000
vt -1.1398 0.3742 0.0000
vt -0.9140 0.3697 0.0000
vt -0.9140 0.7220 0.0000
vt -0.9140 0.7220 0.0000
vt -1.1398 0.7230 0.0000
vt -1.1398 0.3742 0.0000
vt -0.1622 0.4118 0.0000
vt -0.1622 0.7220 0.0000
vt -0.4805 0.7220 0.0000
vt -0.4805 0.7220 0.0000
vt -0.4805 0.3697 0.0000
vt -0.1622 0.4118 0.0000
vt 0.3083 0.7341 0.0000
vt 0.0329 0.7220 0.0000
vt 0.0329 0.4118 0.0000
vt 0.0329 0.4118 0.0000
vt 0.3083 0.1712 0.0000
vt 0.3083 0.7341 0.0000
vt -0.9140 0.3697 0.0000
vt -1.1398 0.3742 0.0000
vt -1.1398 0.0613 0.0000
vt 0.3108 0.0615 0.0000
vt 0.3083 0.1712 0.0000
vt 0.0329 0.4118 0.0000
vt -1.1398 0.0613 0.0000
vt 0.3108 0.0615 0.0000
vt 0.0329 0.4118 0.0000
vt 0.0329 0.4118 0.0000
vt -0.1622 0.4118 0.0000
vt -0.4805 0.3697 0.0000
vt -1.1398 0.0613 0.0000
vt 0.0329 0.4118 0.0000
vt -0.4805 0.3697 0.0000
vt -1.1398 0.0613 0.0000
vt -0.4805 0.3697 0.0000
vt -0.6756 0.3697 0.0000
vt -1.1398 0.0613 0.0000
vt -0.6756 0.3697 0.0000
vt -0.7190 0.3697 0.0000
vt -0.9140 0.3697 0.0000
vt -1.1398 0.0613 0.0000
vt -0.7190 0.3697 0.0000
vt 1.3809 0.0616 0.0000
vt 1.3809 0.3962 0.0000
vt 1.0718 0.4214 0.0000
vt 1.0718 0.4214 0.0000
vt 0.8767 0.4214 0.0000
vt 0.5444 0.1712 0.0000
vt 1.3809 0.0616 0.0000
vt 1.0718 0.4214 0.0000
vt 0.5444 0.1712 0.0000
vt 1.3809 0.0616 0.0000
vt 0.5444 0.1712 0.0000
vt 0.5461 0.0615 0.0000
vt 0.0005 0.9995 0.0000
vt 0.0005 0.0005 0.0000
vt 0.9995 0.0005 0.0000
vt 0.9995 0.0005 0.0000
vt 0.9995 0.9995 0.0000
vt 0.0005 0.9995 0.0000
vt 0.0005 0.9995 0.0000
vt 0.0005 0.0005 0.0000
vt 0.9995 0.0005 0.0000
vt 0.9995 0.0005 0.0000
vt 0.9995 0.9995 0.0000
vt 0.0005 0.9995 0.0000
vt 0.0005 0.9995 0.0000
vt 0.0005 0.0005 0.0000
vt 0.9995 0.0005 0.0000
vt 0.9995 0.0005 0.0000
vt 0.9995 0.9995 0.0000
vt 0.0005 0.9995 0.0000
vt 0.0005 0.9995 0.0000
vt 0.0005 0.0005 0.0000
vt 0.9995 0.0005 0.0000
vt 0.9995 0.0005 0.0000
vt 0.9995 0.9995 0.0000
vt 0.0005 0.9995 0.0000
vt 0.0005 0.9995 0.0000
vt 0.0005 0.0005 0.0000
vt 0.9995 0.0005 0.0000
vt 0.9995 0.0005 0.0000
vt 0.9995 0.9995 0.0000
vt 0.0005 0.9995 0.0000
vt 0.0005 0.9995 0.0000
vt 0.0005 0.0005 0.0000
vt 0.9995 0.0005 0.0000
vt 0.9995 0.0005 0.0000
vt 0.9995 0.9995 0.0000
vt 0.0005 0.9995 0.0000
vt 0.0005 0.9995 0.0000
vt 0.0005 0.0005 0.0000
vt 0.9995 0.0005 0.0000
vt 0.9995 0.0005 0.0000
vt 0.9995 0.9995 0.0000
vt 0.0005 0.9995 0.0000
vt 0.0005 0.0005 0.0000
vt 0.9995 0.0005 0.0000
vt 0.9995 0.9995 0.0000
vt 0.9995 0.9995 0.0000
vt 0.0005 0.9995 0.0000
vt 0.0005 0.0005 0.0000
vt 0.9995 0.9995 0.0000
vt 0.9995 0.0005 0.0000
vt 0.0005 0.0005 0.0000
vt 0.0005 0.0005 0.0000
vt 0.0005 0.9995 0.0000
vt 0.9995 0.9995 0.0000
vt 0.0005 0.9995 0.0000
vt 0.0005 0.0005 0.0000
vt 0.9995 0.0005 0.0000
vt 0.9995 0.0005 0.0000
vt 0.9995 0.9995 0.0000
vt 0.0005 0.9995 0.0000
vt 0.9995 0.9995 0.0000
vt 0.9995 0.0005 0.0000
vt 0.0005 0.0005 0.0000
vt 0.0005 0.0005 0.0000
vt 0.0005 0.9995 0.0000
vt 0.9995 0.9995 0.0000
vt 0.0005 0.0005 0.0000
vt 0.9995 0.0005 0.0000
vt 0.9995 0.9995 0.0000
vt 0.9995 0.9995 0.0000
vt 0.0005 0.9995 0.0000
vt 0.0005 0.0005 0.0000
vt 0.9995 0.9995 0.0000
vt 0.9995 0.0005 0.0000
vt 0.0005 0.0005 0.0000
vt 0.0005 0.0005 0.0000
vt 0.0005 0.9995 0.0000
vt 0.9995 0.9995 0.0000
vt 0.0005 0.9995 0.0000
vt 0.0005 0.0005 0.0000
vt 0.9995 0.0005 0.0000
vt 0.9995 0.0005 0.0000
vt 0.9995 0.9995 0.0000
vt 0.0005 0.9995 0.0000
vt 1.3731 -0.7190 0.0000
vt 1.3575 -0.7193 0.0000
vt 1.3648 -0.9144 0.0000
vt 1.3648 -0.9144 0.0000
vt 1.3804 -0.9140 0.0000
vt 1.3731 -0.7190 0.0000
vt 1.3731 1.3128 0.0000
vt 1.3575 1.3128 0.0000
vt 1.3575 1.0026 0.0000
vt 1.3575 1.0026 0.0000
vt 1.3731 1.0026 0.0000
vt 1.3731 1.3128 0.0000
vt -0.3804 -0.9140 0.0000
vt -0.3648 -0.9144 0.0000
vt -0.3575 -0.7193 0.0000
vt -0.3575 -0.7193 0.0000
vt -0.3731 -0.7190 0.0000
vt -0.3804 -0.9140 0.0000
vt -0.3804 1.0026 0.0000
vt -0.3648 1.0026 0.0000
vt -0.3648 1.3128 0.0000
vt -0.3648 1.3128 0.0000
vt -0.3804 1.3128 0.0000
vt -0.3804 1.0026 0.0000
vt 1.3643 -0.4805 0.0000
vt 1.3486 -0.4809 0.0000
vt 1.3559 -0.6759 0.0000
vt 1.3559 -0.6759 0.0000
vt 1.3715 -0.6756 0.0000
vt 1.3643 -0.4805 0.0000
vt 1.3643 1.3128 0.0000
vt 1.3486 1.3128 0.0000
vt 1.3486 1.0026 0.0000
vt 1.3486 1.0026 0.0000
vt 1.3643 1.0026 0.0000
vt 1.3643 1.3128 0.0000
vt -0.3715 -0.6756 0.0000
vt -0.3559 -0.6759 0.0000
vt -0.3487 -0.4809 0.0000
vt -0.3487 -0.4809 0.0000
vt -0.3643 -0.4805 0.0000
vt -0.3715 -0.6756 0.0000
vt -0.3715 1.0026 0.0000
vt -0.3559 1.0026 0.0000
vt -0.3559 1.3128 0.0000
vt -0.3559 1.3128 0.0000
vt -0.3715 1.3128 0.0000
vt -0.3715 1.0026 0.0000
vt 1.3451 0.0329 0.0000
vt 1.3295 0.0325 0.0000
vt 1.3368 -0.1625 0.0000
vt 1.3368 -0.1625 0.0000
vt 1.3524 -0.1622 0.0000
vt 1.3451 0.0329 0.0000
vt 1.3451 1.3128 0.0000
vt 1.3295 1.3128 0.0000
vt 1.3295 1.0026 0.0000
vt 1.3295 1.0026 0.0000
vt 1.3451 1.0026 0.0000
vt 1.3451 1.3128 0.0000
vt -0.3524 -0.1622 0.0000
vt -0.3368 -0.1625 0.0000
vt -0.3295 0.0325 0.0000
vt -0.3295 0.0325 0.0000
vt -0.3451 0.0329 0.0000
vt -0.3524 -0.1622 0.0000
vt -0.3524 1.0026 0.0000
vt -0.3368 1.0026 0.0000
vt -0.3368 1.3128 0.0000
vt -0.3368 1.3128 0.0000
vt -0.3524 1.3128 0.0000
vt -0.3524 1.0026 0.0000
vt 1.3275 0.5076 0.0000
vt 1.3118 0.5072 0.0000
vt 1.3191 0.3122 0.0000
vt 1.3191 0.3122 0.0000
vt 1.3347 0.3125 0.0000
vt 1.3275 0.5076 0.0000
vt 1.3275 1.3128 0.0000
vt 1.3118 1.3128 0.0000
vt 1.3118 1.0026 0.0000
vt 1.3118 1.0026 0.0000
vt 1.3275 1.0026 0.0000
vt 1.3275 1.3128 0.0000
vt -0.3347 0.3125 0.0000
vt -0.3191 0.3122 0.0000
vt -0.3119 0.5072 0.0000
vt -0.3119 0.5072 0.0000
vt -0.3275 0.5076 0.0000
vt -0.3347 0.3125 0.0000
vt -0.3347 1.0026 0.0000
vt -0.3191 1.0026 0.0000
vt -0.3191 1.3128 0.0000
vt -0.3191 1.3128 0.0000
vt -0.3347 1.3128 0.0000
vt -0.3347 1.0026 0.0000
vt 1.3064 1.0718 0.0000
vt 1.2908 1.0714 0.0000
vt 1.2981 0.8763 0.0000
vt 1.2981 0.8763 0.0000
vt 1.3137 0.8767 0.0000
vt 1.3064 1.0718 0.0000
vt 1.3064 1.2892 0.0000
vt 1.2908 1.2892 0.0000
vt 1.2908 0.9790 0.0000
vt 1.2908 0.9790 0.0000
vt 1.3064 0.9790 0.0000
vt 1.3064 1.2892 0.0000
vt -0.3137 0.8767 0.0000
vt -0.2981 0.8763 0.0000
vt -0.2908 1.0714 0.0000
vt -0.2908 1.0714 0.0000
vt -0.3064 1.0718 0.0000
vt -0.3137 0.8767 0.0000
vt -0.3137 0.9790 0.0000
vt -0.2981 0.9790 0.0000
vt -0.2981 1.2892 0.0000
vt -0.2981 1.2892 0.0000
vt -0.3137 1.2892 0.0000
vt -0.3137 0.9790 0.0000
vt 1.2108 1.6084 0.0000
vt 1.1958 1.6051 0.0000
vt 1.2652 1.4174 0.0000
vt 1.2652 1.4174 0.0000
vt 1.2802 1.4207 0.0000
vt 1.2108 1.6084 0.0000
vt 1.2108 1.2892 0.0000
vt 1.1958 1.2892 0.0000
vt 1.1958 0.9790 0.0000
vt 1.1958 0.9790 0.0000
vt 1.2108 0.9790 0.0000
vt 1.2108 1.2892 0.0000
vt -0.2802 1.4207 0.0000
vt -0.2652 1.4174 0.0000
vt -0.1958 1.6051 0.0000
vt -0.1958 1.6051 0.0000
vt -0.2108 1.6084 0.0000
vt -0.2802 1.4207 0.0000
vt -0.2802 0.9790 0.0000
vt -0.2652 0.9790 0.0000
vt -0.2652 1.2892 0.0000
vt -0.2652 1.2892 0.0000
vt -0.2802 1.2892 0.0000
vt -0.2802 0.9790 0.0000
vt 1.0664 1.9985 0.0000
vt 1.0514 1.9952 0.0000
vt 1.1208 1.8075 0.0000
vt 1.1208 1.8075 0.0000
vt 1.1359 1.8108 0.0000
vt 1.0664 1.9985 0.0000
vt 1.0664 1.2892 0.0000
vt 1.0514 1.2892 0.0000
vt 1.0514 0.9790 0.0000
vt 1.0514 0.9790 0.0000
vt 1.0664 0.9790 0.0000
vt 1.0664 1.2892 0.0000
vt -0.1359 1.8108 0.0000
vt -0.1208 1.8075 0.0000
vt -0.0514 1.9952 0.0000
vt -0.0514 1.9952 0.0000
vt -0.0664 1.9985 0.0000
vt -0.1359 1.8108 0.0000
vt -0.1359 0.9790 0.0000
vt -0.1208 0.9790 0.0000
vt -0.1208 1.2892 0.0000
vt -0.1208 1.2892 0.0000
vt -0.1359 1.2892 0.0000
vt -0.1359 0.9790 0.0000
vt 1.3731 0.7220 0.0000
vt 1.3575 0.7220 0.0000
vt 1.3575 0.3697 0.0000
vt 1.3575 0.3697 0.0000
vt 1.3731 0.3697 0.0000
vt 1.3731 0.7220 0.0000
vt -0.3804 -0.9140 0.0000
vt -0.3648 -0.9144 0.0000
vt -0.3575 -0.7193 0.0000
vt -0.3575 -0.7193 0.0000
vt -0.3731 -0.7190 0.0000
vt -0.3804 -0.9140 0.0000
vt -0.3804 0.3697 0.0000
vt -0.3648 0.3697 0.0000
vt -0.3648 0.7220 0.0000
vt -0.3648 0.7220 0.0000
vt -0.3804 0.7220 0.0000
vt -0.3804 0.3697 0.0000
vt 1.3731 -0.7190 0.0000
vt 1.3575 -0.7193 0.0000
vt 1.3648 -0.9144 0.0000
vt 1.3648 -0.9144 0.0000
vt 1.3804 -0.9140 0.0000
vt 1.3731 -0.7190 0.0000
vt 1.3643 -0.4805 0.0000
vt 1.3486 -0.4809 0.0000
vt 1.3559 -0.6759 0.0000
vt 1.3559 -0.6759 0.0000
vt 1.3715 -0.6756 0.0000
vt 1.3643 -0.4805 0.0000
vt 1.3643 0.7220 0.0000
vt 1.3486 0.7220 0.0000
vt 1.3486 0.3697 0.0000
vt 1.3486 0.3697 0.0000
vt 1.3643 0.3697 0.0000
vt 1.3643 0.7220 0.0000
vt -0.3715 -0.6756 0.0000
vt -0.3559 -0.6759 0.0000
vt -0.3487 -0.4809 0.0000
vt -0.3487 -0.4809 0.0000
vt -0.3643 -0.4805 0.0000
vt -0.3715 -0.6756 0.0000
vt -0.3715 0.3697 0.0000
vt -0.3559 0.3697 0.0000
vt -0.3559 0.7220 0.0000
vt -0.3559 0.7220 0.0000
vt -0.3715 0.7220 0.0000
vt -0.3715 0.3697 0.0000
vt 1.3451 0.0329 0.0000
vt 1.3295 0.0325 0.0000
vt 1.3368 -0.1625 0.0000
vt 1.3368 -0.1625 0.0000
vt 1.3524 -0.1622 0.0000
vt 1.3451 0.0329 0.0000
vt 1.3451 0.7220 0.0000
vt 1.3295 0.7220 0.0000
vt 1.3295 0.4118 0.0000
vt 1.3295 0.4118 0.0000
vt 1.3451 0.4118 0.0000
vt 1.3451 0.7220 0.0000
vt -0.3524 -0.1622 0.0000
vt -0.3368 -0.1625 0.0000
vt -0.3295 0.0325 0.0000
vt -0.3295 0.0325 0.0000
vt -0.3451 0.0329 0.0000
vt -0.3524 -0.1622 0.0000
vt -0.3524 0.4118 0.0000
vt -0.3368 0.4118 0.0000
vt -0.3368 0.7220 0.0000
vt -0.3368 0.7220 0.0000
vt -0.3524 0.7220 0.0000
vt -0.3524 0.4118 0.0000
vt 1.3064 1.0718 0.0000
vt 1.2908 1.0714 0.0000
vt 1.2981 0.8763 0.0000
vt 1.2981 0.8763 0.0000
vt 1.3137 0.8767 0.0000
vt 1.3064 1.0718 0.0000
vt 1.3064 0.7316 0.0000
vt 1.2908 0.7316 0.0000
vt 1.2908 0.4214 0.0000
vt 1.2908 0.4214 0.0000
vt 1.3064 0.4214 0.0000
vt 1.3064 0.7316 0.0000
vt -0.3137 0.8767 0.0000
vt -0.2981 0.8763 0.0000
vt -0.2908 1.0714 0.0000
vt -0.2908 1.0714 0.0000
vt -0.3064 1.0718 0.0000
vt -0.3137 0.8767 0.0000
vt -0.3137 0.4214 0.0000
vt -0.2981 0.4214 0.0000
vt -0.2981 0.7316 0.0000
vt -0.2981 0.7316 0.0000
vt -0.3137 0.7316 0.0000
vt -0.3137 0.4214 0.0000
vt 1.2108 0.6984 0.0000
vt 1.1958 0.6984 0.0000
vt 1.1958 0.3882 0.0000
vt 1.1958 0.3882 0.0000
vt 1.2108 0.3882 0.0000
vt 1.2108 0.6984 0.0000
vt -0.2802 1.4207 0.0000
vt -0.2652 1.4174 0.0000
vt -0.1958 1.6051 0.0000
vt -0.1958 1.6051 0.0000
vt -0.2108 1.6084 0.0000
vt -0.2802 1.4207 0.0000
vt -0.2802 0.3882 0.0000
vt -0.2652 0.3882 0.0000
vt -0.2652 0.6984 0.0000
vt -0.2652 0.6984 0.0000
vt -0.2802 0.6984 0.0000
vt -0.2802 0.3882 0.0000
vt 1.2108 1.6084 0.0000
vt 1.1958 1.6051 0.0000
vt 1.2652 1.4174 0.0000
vt 1.2652 1.4174 0.0000
vt 1.2802 1.4207 0.0000
vt 1.2108 1.6084 0.0000
vt 1.0664 1.9985 0.0000
vt 1.0514 1.9952 0.0000
vt 1.1208 1.8075 0.0000
vt 1.1208 1.8075 0.0000
vt 1.1359 1.8108 0.0000
vt 1.0664 1.9985 0.0000
vt 1.0664 0.6984 0.0000
vt 1.0514 0.6984 0.0000
vt 1.0514 0.3882 0.0000
vt 1.0514 0.3882 0.0000
vt 1.0664 0.3882 0.0000
vt 1.0664 0.6984 0.0000
vt -0.1359 1.8108 0.0000
vt -0.1208 1.8075 0.0000
vt -0.0514 1.9952 0.0000
vt -0.0514 1.9952 0.0000
vt -0.0664 1.9985 0.0000
vt -0.1359 1.8108 0.0000
vt -0.1359 0.3882 0.0000
vt -0.1208 0.3882 0.0000
vt -0.1208 0.6984 0.0000
vt -0.1208 0.6984 0.0000
vt -0.1359 0.6984 0.0000
vt -0.1359 0.3882 0.0000
vt 1.3261 0.5444 0.0000
vt 1.2899 0.5436 0.0000
vt 1.2987 0.3075 0.0000
vt 1.2987 0.3075 0.0000
vt 1.3349 0.3083 0.0000
vt 1.3261 0.5444 0.0000
vt 1.3261 0.7341 0.0000
vt 1.2899 0.7341 0.0000
vt 1.2899 0.1712 0.0000
vt 1.2899 0.1712 0.0000
vt 1.3261 0.1712 0.0000
vt 1.3261 0.7341 0.0000
vt -0.3349 0.3083 0.0000
vt -0.2987 0.3075 0.0000
vt -0.2899 0.5436 0.0000
vt -0.2899 0.5436 0.0000
vt -0.3261 0.5444 0.0000
vt -0.3349 0.3083 0.0000
vt -0.3349 0.1712 0.0000
vt -0.2987 0.1712 0.0000
vt -0.2987 0.7341 0.0000
vt -0.2987 0.7341 0.0000
vt -0.3349 0.7341 0.0000
vt -0.3349 0.1712 0.0000
vt -9.0403 1.3322 -1.5737
vt -9.0403 1.2337 -1.5634
vt -3.9722 1.2015 -1.8698
vt -3.9722 1.2015 -1.8698
vt -3.9722 1.2906 -1.8792
vt -9.0403 1.3322 -1.5737
vt -1.7689 4.9731 1.3022
vt -1.4651 10.0139 1.3437
vt -1.5737 10.0403 1.3322
vt -1.5737 10.0403 1.3322
vt -1.8792 4.9722 1.2906
vt -1.7689 4.9731 1.3022
vt 1.9417 11.8263 0.0000
vt 1.4627 13.5041 0.0000
vt 1.4627 13.5041 0.0000
vt 53.2821 0.0002 0.0000
vt 53.2453 0.2149 0.0000
vt 33.7049 0.2141 0.0000
vt 33.7049 0.2141 0.0000
vt 33.7049 -0.0007 0.0000
vt 53.2821 0.0002 0.0000
vt -3.9722 1.2906 -1.8792
vt -3.9722 1.2015 -1.8698
vt 10.8061 1.1744 -0.9081
vt 10.8061 1.1744 -0.9081
vt 10.8061 1.3018 -0.9215
vt -3.9722 1.2906 -1.8792
vt -1.7689 4.9731 1.3022
vt -1.8792 4.9722 1.2906
vt -0.9215 -9.8061 1.3018
vt -0.9215 -9.8061 1.3018
vt -0.8130 -9.7779 1.3132
vt -1.7689 4.9731 1.3022
vt 2.8567 8.6213 0.0000
vt 2.8567 8.6213 0.0000
vt 3.2777 -6.0280 0.0000
vt 3.2777 -6.0280 0.0000
vt 3.2777 -6.0280 0.0000
vt 2.8567 8.6213 0.0000
vt 2.5737 1.3322 10.0403
vt 2.4651 1.3437 10.0139
vt 2.4509 1.2084 10.0139
vt 2.5737 1.3322 10.0403
vt 2.4509 1.2084 10.0139
vt 2.4425 1.1281 10.0139
vt 2.5737 1.3322 10.0403
vt 2.4425 1.1281 10.0139
vt 2.5634 1.2337 10.0403
vt -0.9081 1.1744 -9.8061
vt -0.7873 1.0688 -9.7780
vt -0.8130 1.3132 -9.7779
vt -0.8130 1.3132 -9.7779
vt -0.9215 1.3018 -9.8061
vt -0.9081 1.1744 -9.8061
vt 0.9995 0.7847 0.0000
vt 0.0128 0.7847 0.0000
vt 0.0128 0.5698 0.0000
vt 0.0128 0.5698 0.0000
vt 0.9995 0.5698 0.0000
vt 0.9995 0.7847 0.0000
vt 0.9995 0.5698 0.0000
vt 0.9995 0.7847 0.0000
vt 0.0128 0.7847 0.0000
vt 0.0128 0.7847 0.0000
vt 0.0128 0.5698 0.0000
vt 0.9995 0.5698 0.0000
vt 0.9994 0.7847 0.0000
vt 0.0624 0.7847 0.0000
vt 0.0624 0.5698 0.0000
vt 0.0624 0.5698 0.0000
vt 0.9994 0.5698 0.0000
vt 0.9994 0.7847 0.0000
vt 0.0625 0.0005 0.0000
vt 0.9995 0.0128 0.0000
vt 0.9376 0.9995 0.0000
vt 0.9376 0.9995 0.0000
vt 0.0006 0.9872 0.0000
vt 0.0625 0.0005 0.0000
vt 0.0625 0.5698 0.0000
vt 0.9995 0.5698 0.0000
vt 0.9995 0.7847 0.0000
vt 0.9995 0.7847 0.0000
vt 0.0625 0.7847 0.0000
vt 0.0625 0.5698 0.0000
vt 0.9995 0.9995 0.0000
vt 0.0112 0.9995 0.0000
vt 0.0112 0.7847 0.0000
vt 0.0112 0.7847 0.0000
vt 0.9995 0.7847 0.0000
vt 0.9995 0.9995 0.0000
vt 0.9992 0.7847 0.0000
vt 0.9992 0.9995 0.0000
vt 0.0109 0.9995 0.0000
vt 0.0109 0.9995 0.0000
vt 0.0109 0.7847 0.0000
vt 0.9992 0.7847 0.0000
vt 0.9995 0.9888 0.0000
vt 0.2102 0.9992 0.0000
vt 0.1482 0.0109 0.0000
vt 0.1482 0.0109 0.0000
vt 0.9375 0.0005 0.0000
vt 0.9995 0.9888 0.0000
vt 0.9995 0.9995 0.0000
vt 0.2102 0.9995 0.0000
vt 0.2102 0.7847 0.0000
vt 0.2102 0.7847 0.0000
vt 0.9995 0.7847 0.0000
vt 0.9995 0.9995 0.0000
vt 0.0625 0.0005 0.0000
vt 0.8518 0.0109 0.0000
vt 0.7898 0.9992 0.0000
vt 0.7898 0.9992 0.0000
vt 0.0005 0.9888 0.0000
vt 0.0625 0.0005 0.0000
vt 0.0625 0.7847 0.0000
vt 0.8518 0.7847 0.0000
vt 0.8518 0.9995 0.0000
vt 0.8518 0.9995 0.0000
vt 0.0625 0.9995 0.0000
vt 0.0625 0.7847 0.0000
vt 0.0128 0.5698 0.0000
vt 0.0128 0.0005 0.0000
vt 0.9995 0.0005 0.0000
vt 0.9995 0.0005 0.0000
vt 0.9995 0.5698 0.0000
vt 0.0128 0.5698 0.0000
vt 0.0624 0.5698 0.0000
vt 0.0624 0.0005 0.0000
vt 0.9994 0.0005 0.0000
vt 0.9994 0.0005 0.0000
vt 0.9994 0.5698 0.0000
vt 0.0624 0.5698 0.0000
vt 0.0128 0.5698 0.0000
vt 0.0128 0.0005 0.0000
vt 0.9995 0.0005 0.0000
vt 0.9995 0.0005 0.0000
vt 0.9995 0.5698 0.0000
vt 0.0128 0.5698 0.0000
vt 0.0625 0.5698 0.0000
vt 0.0625 0.0005 0.0000
vt 0.9995 0.0005 0.0000
vt 0.9995 0.0005 0.0000
vt 0.9995 0.5698 0.0000
vt 0.0625 0.5698 0.0000
vt 16.8395 0.0022 0.0000
vt 16.8394 0.2852 0.0000
vt -0.0376 0.2830 0.0000
vt -0.0376 0.2830 0.0000
vt 0.0000 0.0000 0.0000
vt 16.8395 0.0022 0.0000
vt -9.0746 1.7311 2.2481
vt -9.0746 1.6714 2.2543
vt 3.4920 1.6066 1.6273
vt 3.4920 1.6066 1.6273
vt 3.4920 1.6663 1.6210
vt -9.0746 1.7311 2.2481
vt 2.1046 -9.1036 1.7160
vt 2.2481 -9.0746 1.7311
vt 1.6210 3.4920 1.6663
vt 1.6210 3.4920 1.6663
vt 1.4761 3.4910 1.6511
vt 2.1046 -9.1036 1.7160
vt -2.4910 1.6511 1.4761
vt -2.4911 1.4373 1.4986
vt 10.1035 1.5022 2.1270
vt -2.4910 1.6511 1.4761
vt 10.1035 1.5022 2.1270
vt 10.1035 1.5848 2.1184
vt -2.4910 1.6511 1.4761
vt 10.1035 1.5848 2.1184
vt 10.1036 1.7160 2.1046
vt 3.4920 1.6663 1.6210
vt 3.4920 1.6066 1.6273
vt 8.8268 1.6327 1.8758
vt 8.8268 1.6327 1.8758
vt 8.8268 1.6924 1.8695
vt 3.4920 1.6663 1.6210
vt 1.7259 8.8538 1.6773
vt 1.4761 3.4910 1.6511
vt 1.6210 3.4920 1.6663
vt 1.6210 3.4920 1.6663
vt 1.8695 8.8268 1.6924
vt 1.7259 8.8538 1.6773
vt -2.4910 1.6511 1.4761
vt -7.8538 1.6773 1.7259
vt -7.8538 1.5155 1.7429
vt -2.4910 1.6511 1.4761
vt -7.8538 1.5155 1.7429
vt -7.8538 1.4635 1.7484
vt -2.4910 1.6511 1.4761
vt -7.8538 1.4635 1.7484
vt -2.4911 1.4373 1.4986
vt 2.2481 1.7311 -9.0746
vt 2.1046 1.7160 -9.1036
vt 2.1184 1.5848 -9.1035
vt 2.2481 1.7311 -9.0746
vt 2.1184 1.5848 -9.1035
vt 2.1270 1.5022 -9.1035
vt 2.2481 1.7311 -9.0746
vt 2.1270 1.5022 -9.1035
vt 2.2543 1.6714 -9.0746
vt -0.7429 1.5155 8.8538
vt -0.7259 1.6773 8.8538
vt -0.8695 1.6924 8.8268
vt -0.8695 1.6924 8.8268
vt -0.8758 1.6327 8.8268
vt -0.7484 1.4635 8.8538
vt -0.7429 1.5155 8.8538
vt -0.8695 1.6924 8.8268
vt -0.7484 1.4635 8.8538
vt 0.9106 1.2124 0.0000
vt 0.0646 1.1823 0.0000
vt 0.1090 -0.6098 0.0000
vt 0.1090 -0.6098 0.0000
vt 0.9551 -0.5797 0.0000
vt 0.9106 1.2124 0.0000
vt 0.0000 1.1944 0.0000
vt 0.0000 0.0000 0.0000
vt 0.5644 0.0000 0.0000
vt 0.5644 0.0000 0.0000
vt 0.5644 1.1944 0.0000
vt 0.0000 1.1944 0.0000
vt 0.9995 0.9995 0.0000
vt 0.0005 0.9995 0.0000
vt 0.0005 0.0005 0.0000
vt 0.0005 0.0005 0.0000
vt 0.9995 0.0005 0.0000
vt 0.9995 0.9995 0.0000
vt 1.3136 0.5644 0.2816
vt 1.2749 0.8819 0.2804
vt 0.6168 -0.1139 0.1219
vt 0.6168 -0.1139 0.1219
vt 1.3311 0.4208 0.2821
vt 1.3136 0.5644 0.2816
vt -0.2698 0.5598 1.1236
vt -0.2873 0.4162 1.1241
vt 0.4269 -0.1185 0.9639
vt 0.4269 -0.1185 0.9639
vt -0.2311 0.8773 1.1225
vt -0.2698 0.5598 1.1236
vt 1.1504 0.5090 1.4039
vt 1.1497 0.5749 1.3937
vt 0.3076 0.5795 1.4375
vt 0.3076 0.5795 1.4375
vt 0.3083 0.5136 1.4477
vt 1.1504 0.5090 1.4039
vt 0.5644 1.1944 0.0000
vt 0.5644 1.3938 0.0000
vt 0.0000 1.3938 0.0000
vt 0.0000 1.3938 0.0000
vt 0.0000 1.1944 0.0000
vt 0.5644 1.1944 0.0000
vt -0.2698 0.5598 1.1236
vt -0.3937 0.5749 1.1497
vt -0.4039 0.5090 1.1504
vt -0.4039 0.5090 1.1504
vt -0.2873 0.4162 1.1241
vt -0.2698 0.5598 1.1236
vt 1.3136 0.2816 0.5644
vt 1.4375 0.3076 0.5795
vt 1.3937 1.1497 0.5749
vt 1.3937 1.1497 0.5749
vt 1.2698 1.1236 0.5598
vt 1.3136 0.2816 0.5644
vt 1.3136 0.5644 0.2816
vt 1.3311 0.4208 0.2821
vt 1.4477 0.5136 0.3083
vt 1.4477 0.5136 0.3083
vt 1.4375 0.5795 0.3076
vt 1.3136 0.5644 0.2816
vt 1.0728 0.8528 1.2367
vt 1.1225 0.8773 1.2311
vt 0.2804 0.8819 1.2749
vt 0.2804 0.8819 1.2749
vt 0.3303 0.8569 1.2753
vt 1.0728 0.8528 1.2367
vt 0.3311 0.5975 1.3069
vt 0.3303 0.8569 1.2753
vt 0.2804 0.8819 1.2749
vt 0.2804 0.8819 1.2749
vt 0.2816 0.5644 1.3136
vt 0.3311 0.5975 1.3069
vt 0.3311 0.5975 1.3069
vt 0.2816 0.5644 1.3136
vt 1.1236 0.5598 1.2698
vt 1.1236 0.5598 1.2698
vt 1.0738 0.5935 1.2683
vt 0.3311 0.5975 1.3069
vt 1.0738 0.5935 1.2683
vt 1.1236 0.5598 1.2698
vt 1.1225 0.8773 1.2311
vt 1.1225 0.8773 1.2311
vt 1.0728 0.8528 1.2367
vt 1.0738 0.5935 1.2683
vt 0.9038 1.0325 0.0000
vt 0.9033 1.0725 0.0000
vt 0.1572 1.0634 0.0000
vt 0.1572 1.0634 0.0000
vt 0.1577 1.0234 0.0000
vt 0.9038 1.0325 0.0000
vt 1.5587 1.0234 0.0000
vt 1.5581 1.0634 0.0000
vt 1.0360 1.0550 0.0000
vt 1.0360 1.0550 0.0000
vt 1.0366 1.0151 0.0000
vt 1.5587 1.0234 0.0000
vt 0.8608 1.0151 0.0000
vt 0.8613 1.0550 0.0000
vt 0.1152 1.0642 0.0000
vt 0.1152 1.0642 0.0000
vt 0.1147 1.0242 0.0000
vt 0.8608 1.0151 0.0000
vt -0.0100 1.0242 0.0000
vt -0.0094 1.0642 0.0000
vt -0.5315 1.0725 0.0000
vt -0.5315 1.0725 0.0000
vt -0.5321 1.0325 0.0000
vt -0.0100 1.0242 0.0000
vt 1.4207 0.3882 0.0000
vt 1.3809 0.3962 0.0000
vt 1.3809 0.0616 0.0000
vt 1.3809 0.0616 0.0000
vt 2.0032 0.0616 0.0000
vt 1.9985 0.3882 0.0000
vt 1.3809 0.0616 0.0000
vt 1.9985 0.3882 0.0000
vt 1.8108 0.3882 0.0000
vt 1.3809 0.0616 0.0000
vt 1.8108 0.3882 0.0000
vt 1.6084 0.3882 0.0000
vt 1.4207 0.3882 0.0000
vt 1.3809 0.0616 0.0000
vt 1.6084 0.3882 0.0000
vt 1.6637 0.4353 9.7599
vt 1.6585 0.3870 9.7599
vt 2.4425 1.1281 10.0139
vt 2.4425 1.1281 10.0139
vt 2.4001 1.1304 9.9985
vt 1.6637 0.4353 9.7599
vt 2.4001 1.1304 9.9985
vt 2.4425 1.1281 10.0139
vt 2.4474 1.1751 10.0139
vt 0.5000 0.4228 0.0000
vt 0.2185 0.4240 0.0000
vt 0.2177 0.0005 0.0000
vt 0.2177 0.0005 0.0000
vt 0.5000 0.0005 0.0000
vt 0.5000 0.4228 0.0000
vt 0.9995 0.4208 0.0000
vt 0.5000 0.4228 0.0000
vt 0.5000 0.0005 0.0000
vt 0.5000 0.0005 0.0000
vt 0.9995 0.0005 0.0000
vt 0.9995 0.4208 0.0000
vt 1.9985 0.6984 0.0000
vt 1.9985 0.3882 0.0000
vt 2.1462 0.3887 0.0000
vt 1.9985 0.6984 0.0000
vt 2.1462 0.3887 0.0000
vt 2.1462 0.6756 0.0000
vt 1.9985 0.6984 0.0000
vt 2.1462 0.6756 0.0000
vt 2.1472 0.7016 0.0000
vt 2.0032 0.0616 0.0000
vt 2.1462 0.0616 0.0000
vt 2.1462 0.3887 0.0000
vt 2.1462 0.3887 0.0000
vt 1.9985 0.3882 0.0000
vt 2.0032 0.0616 0.0000
vt 1.9985 0.9790 0.0000
vt 1.9985 0.6984 0.0000
vt 2.1472 0.7016 0.0000
vt 1.9985 0.9790 0.0000
vt 2.1472 0.7016 0.0000
vt 2.1509 0.7369 0.0000
vt 1.9985 0.9790 0.0000
vt 2.1509 0.7369 0.0000
vt 2.1567 0.7647 0.0000
vt 1.9985 0.9790 0.0000
vt 2.1567 0.7647 0.0000
vt 2.1644 0.7892 0.0000
vt 1.9985 0.9790 0.0000
vt 2.1644 0.7892 0.0000
vt 2.1739 0.8094 0.0000
vt 1.9985 0.9790 0.0000
vt 2.1739 0.8094 0.0000
vt 2.1847 0.8245 0.0000
vt 1.9985 0.9790 0.0000
vt 2.1847 0.8245 0.0000
vt 2.2638 0.8532 0.0000
vt 1.9985 0.9790 0.0000
vt 2.2638 0.8532 0.0000
vt 2.1347 0.9919 0.0000
vt 1.9985 0.9790 0.0000
vt 2.1347 0.9919 0.0000
vt 2.2211 0.8777 0.0000
vt 1.9985 0.9790 0.0000
vt 2.2211 0.8777 0.0000
vt 2.2211 0.9953 0.0000
vt 0.2185 0.4240 0.0000
vt 0.0212 0.3542 0.0000
vt 0.0311 0.3472 0.0000
vt 0.2185 0.4240 0.0000
vt 0.0109 0.3609 0.0000
vt 0.0212 0.3542 0.0000
vt 0.2185 0.4240 0.0000
vt 0.0005 0.3669 0.0000
vt 0.0109 0.3609 0.0000
vt 0.0005 0.4248 0.0000
vt 0.0005 0.3669 0.0000
vt 0.2185 0.4240 0.0000
vt 0.2185 0.4240 0.0000
vt 0.0635 0.0005 0.0000
vt 0.2177 0.0005 0.0000
vt 0.2185 0.4240 0.0000
vt 0.0635 0.2795 0.0000
vt 0.0635 0.0005 0.0000
vt 0.2185 0.4240 0.0000
vt 0.0624 0.2937 0.0000
vt 0.0635 0.2795 0.0000
vt 0.2185 0.4240 0.0000
vt 0.0595 0.3074 0.0000
vt 0.0624 0.2937 0.0000
vt 0.2185 0.4240 0.0000
vt 0.0546 0.3201 0.0000
vt 0.0595 0.3074 0.0000
vt 0.2185 0.4240 0.0000
vt 0.0481 0.3312 0.0000
vt 0.0546 0.3201 0.0000
vt 0.2185 0.4240 0.0000
vt 0.0402 0.3403 0.0000
vt 0.0481 0.3312 0.0000
vt 0.2185 0.4240 0.0000
vt 0.0311 0.3472 0.0000
vt 0.0402 0.3403 0.0000
vt 0.2517 1.7280 0.0000
vt 0.2457 1.5804 0.0000
vt 0.7499 1.5922 0.0000
vt 0.7499 1.5922 0.0000
vt 0.7316 1.7280 0.0000
vt 0.2517 1.7280 0.0000
vt 0.7561 1.4512 0.0000
vt 0.7499 1.5922 0.0000
vt 0.2457 1.5804 0.0000
vt 0.2457 1.5804 0.0000
vt 0.2439 1.4512 0.0000
vt 0.7561 1.4512 0.0000
vt 0.2742 1.9637 0.0000
vt 0.2613 1.8534 0.0000
vt 0.7017 1.8534 0.0000
vt 0.7017 1.8534 0.0000
vt 0.6616 1.9637 0.0000
vt 0.2742 1.9637 0.0000
vt 0.2613 1.8534 0.0000
vt 0.2517 1.7280 0.0000
vt 0.7316 1.7280 0.0000
vt 0.7316 1.7280 0.0000
vt 0.7017 1.8534 0.0000
vt 0.2613 1.8534 0.0000
vt 0.3078 2.1232 0.0000
vt 0.2899 2.0547 0.0000
vt 0.6126 2.0547 0.0000
vt 0.6126 2.0547 0.0000
vt 0.5565 2.1232 0.0000
vt 0.3078 2.1232 0.0000
vt 0.2899 2.0547 0.0000
vt 0.2742 1.9637 0.0000
vt 0.6616 1.9637 0.0000
vt 0.6616 1.9637 0.0000
vt 0.6126 2.0547 0.0000
vt 0.2899 2.0547 0.0000
vt 0.3273 2.1922 0.0000
vt 0.3078 2.1232 0.0000
vt 0.5565 2.1232 0.0000
vt 0.5565 2.1232 0.0000
vt 0.4956 2.1922 0.0000
vt 0.3273 2.1922 0.0000
vt 0.4320 2.2587 0.0000
vt 0.3681 2.3188 0.0000
vt 0.3477 2.2587 0.0000
vt 0.3477 2.2587 0.0000
vt 0.3273 2.1922 0.0000
vt 0.4956 2.1922 0.0000
vt 0.4956 2.1922 0.0000
vt 0.4320 2.2587 0.0000
vt 0.3477 2.2587 0.0000
vt 0.2439 0.1569 0.0000
vt 0.2439 -1.3188 0.0000
vt 0.5124 -1.3188 0.0000
vt 0.5124 -1.3188 0.0000
vt 0.7561 -1.3188 0.0000
vt 0.7561 1.4512 0.0000
vt 0.2439 0.1569 0.0000
vt 0.5124 -1.3188 0.0000
vt 0.7561 1.4512 0.0000
vt 0.2439 0.1569 0.0000
vt 0.7561 1.4512 0.0000
vt 0.2439 1.4512 0.0000
vt 0.4040 0.0005 0.0000
vt 0.9995 0.0005 0.0000
vt 0.9995 0.9995 0.0000
vt 0.4040 0.0005 0.0000
vt 0.9995 0.9995 0.0000
vt 0.0005 0.9995 0.0000
vt 0.4040 0.0005 0.0000
vt 0.0005 0.9995 0.0000
vt 0.0005 0.0005 0.0000
vt 12.9987 7.4543 0.0000
vt 9.5110 7.4543 0.0000
vt 9.7702 4.1174 0.0000
vt 9.7702 4.1174 0.0000
vt 13.1551 4.1493 0.0000
vt 12.9987 7.4543 0.0000
vt -12.6827 7.4518 0.0000
vt -16.1701 7.4207 0.0000
vt -15.9845 4.1173 0.0000
vt -15.9845 4.1173 0.0000
vt -12.3938 4.1173 0.0000
vt -12.6827 7.4518 0.0000
vt 0.0368 0.2148 0.0000
vt 0.0000 0.0000 0.0000
vt 6.8073 0.0000 0.0000
vt 6.8073 0.0000 0.0000
vt 6.8073 0.2147 0.0000
vt 0.0368 0.2148 0.0000
vt -7.1441 0.2830 0.0000
vt -7.1441 0.0000 0.0000
vt 0.0000 0.0000 0.0000
vt 0.0000 0.0000 0.0000
vt 0.0375 0.2830 0.0000
vt -7.1441 0.2830 0.0000
vt 0.0229 1.4830 0.0000
vt 0.0216 -0.6087 0.0000
vt 0.7448 -0.6085 0.0000
vt 0.7448 -0.6085 0.0000
vt 0.7589 1.4895 0.0000
vt 0.0229 1.4830 0.0000
vt 0.0503 1.4973 0.0000
vt 0.0545 -0.6086 0.0000
vt 0.7264 -0.6104 0.0000
vt 0.7264 -0.6104 0.0000
vt 0.7612 1.4880 0.0000
vt 0.0503 1.4973 0.0000
vt 0.2792 1.4975 0.0000
vt 0.2792 -0.6088 0.0000
vt 0.9892 -0.6088 0.0000
vt 0.9892 -0.6088 0.0000
vt 0.9892 1.4975 0.0000
vt 0.2792 1.4975 0.0000
vt 0.3036 1.4975 0.0000
vt 0.3036 -0.6088 0.0000
vt 0.9636 -0.6092 0.0000
vt 0.9636 -0.6092 0.0000
vt 0.9253 1.4973 0.0000
vt 0.3036 1.4975 0.0000
vt 0.0145 1.4844 0.0000
vt 0.7848 1.4765 0.0000
vt 0.3664 0.7336 0.0000
vt 0.3664 0.7336 0.0000
vt -0.0446 1.5045 0.0000
vt 0.0145 1.4844 0.0000
vt 0.0724 1.4970 0.0000
vt 0.7537 1.5008 0.0000
vt 1.8120 0.5711 0.0000
vt 1.8120 0.5711 0.0000
vt -0.8074 -0.6100 0.0000
vt 0.0724 1.4970 0.0000
vt 0.2632 1.4969 0.0000
vt 0.9892 1.4975 0.0000
vt 0.9892 1.6088 0.0000
vt 0.9892 1.6088 0.0000
vt 0.2846 1.7702 0.0000
vt 0.2632 1.4969 0.0000
vt 0.3036 1.4975 0.0000
vt 0.9541 1.4985 0.0000
vt 1.6331 2.7140 0.0000
vt 1.6331 2.7140 0.0000
vt 0.3036 1.6088 0.0000
vt 0.3036 1.4975 0.0000
vt 0.0145 1.4844 0.0000
vt 0.0229 1.4830 0.0000
vt 0.7589 1.4895 0.0000
vt 0.7589 1.4895 0.0000
vt 0.7848 1.4765 0.0000
vt 0.0145 1.4844 0.0000
vt 0.0724 1.4970 0.0000
vt 0.0503 1.4973 0.0000
vt 0.7612 1.4880 0.0000
vt 0.7612 1.4880 0.0000
vt 0.7537 1.5008 0.0000
vt 0.0724 1.4970 0.0000
vt 0.2632 1.4969 0.0000
vt 0.2792 1.4975 0.0000
vt 0.9892 1.4975 0.0000
vt 0.9892 1.4975 0.0000
vt 0.9892 1.4975 0.0000
vt 0.2632 1.4969 0.0000
vt 0.3036 1.4975 0.0000
vt 0.3036 1.4975 0.0000
vt 0.9253 1.4973 0.0000
vt 0.9253 1.4973 0.0000
vt 0.9541 1.4985 0.0000
vt 0.3036 1.4975 0.0000
vt 0.0222 0.0005 0.0000
vt 0.9995 0.0161 0.0000
vt 0.9876 0.9995 0.0000
vt 0.9876 0.9995 0.0000
vt 0.0005 0.9599 0.0000
vt 0.0222 0.0005 0.0000
vt 0.1606 0.7730 0.0000
vt 0.1254 0.1938 0.0000
vt 0.9701 0.1456 0.0000
vt 0.9701 0.1456 0.0000
vt 0.9892 0.6964 0.0000
vt 0.1606 0.7730 0.0000
vt 0.0299 1.4138 0.0000
vt 0.0299 -0.6088 0.0000
vt 0.8746 -0.6088 0.0000
vt 0.8746 -0.6088 0.0000
vt 0.8746 1.4138 0.0000
vt 0.0299 1.4138 0.0000
vt 0.1938 1.4138 0.0000
vt 0.1938 -0.6088 0.0000
vt 0.7730 -0.6088 0.0000
vt 0.7730 -0.6088 0.0000
vt 0.7730 1.4138 0.0000
vt 0.1938 1.4138 0.0000
vt 0.1606 1.4138 0.0000
vt 0.1606 -0.6088 0.0000
vt 0.9892 -0.6088 0.0000
vt 0.9892 -0.6088 0.0000
vt 0.9892 1.4138 0.0000
vt 0.1606 1.4138 0.0000
vt 0.3036 1.4138 0.0000
vt 0.3036 -0.6088 0.0000
vt 0.8544 -0.6088 0.0000
vt 0.8544 -0.6088 0.0000
vt 0.8544 1.4138 0.0000
vt 0.3036 1.4138 0.0000
vt 0.0296 1.4370 0.0000
vt 0.8746 1.4161 0.0000
vt 0.8746 1.7446 0.0000
vt 0.8746 1.7446 0.0000
vt 0.0299 1.8805 0.0000
vt 0.0296 1.4370 0.0000
vt 0.1934 1.4370 0.0000
vt 0.7730 1.4161 0.0000
vt 0.7730 1.7446 0.0000
vt 0.7730 1.7446 0.0000
vt 0.1938 1.8805 0.0000
vt 0.1934 1.4370 0.0000
vt 0.1604 1.4394 0.0000
vt 0.9892 1.4161 0.0000
vt 0.9892 1.7446 0.0000
vt 0.9892 1.7446 0.0000
vt 0.1606 1.8805 0.0000
vt 0.1604 1.4394 0.0000
vt 0.3032 1.4370 0.0000
vt 0.8544 1.4161 0.0000
vt 0.8544 1.7446 0.0000
vt 0.8544 1.7446 0.0000
vt 0.3036 1.8805 0.0000
vt 0.3032 1.4370 0.0000
vt 0.0296 1.4370 0.0000
vt 0.0299 1.4138 0.0000
vt 0.8746 1.4138 0.0000
vt 0.8746 1.4138 0.0000
vt 0.8746 1.4161 0.0000
vt 0.0296 1.4370 0.0000
vt 0.1934 1.4370 0.0000
vt 0.1938 1.4138 0.0000
vt 0.7730 1.4138 0.0000
vt 0.7730 1.4138 0.0000
vt 0.7730 1.4161 0.0000
vt 0.1934 1.4370 0.0000
vt 0.1604 1.4394 0.0000
vt 0.1606 1.4138 0.0000
vt 0.9892 1.4138 0.0000
vt 0.9892 1.4138 0.0000
vt 0.9892 1.4161 0.0000
vt 0.1604 1.4394 0.0000
vt 0.3032 1.4370 0.0000
vt 0.3036 1.4138 0.0000
vt 0.8544 1.4138 0.0000
vt 0.8544 1.4138 0.0000
vt 0.8544 1.4161 0.0000
vt 0.3032 1.4370 0.0000
vt 0.0103 0.0005 0.0000
vt 0.9995 0.0807 0.0000
vt 0.9708 0.9995 0.0000
vt 0.9708 0.9995 0.0000
vt 0.0005 0.9929 0.0000
vt 0.0103 0.0005 0.0000
vt 0.8976 0.0000 0.0000
vt 1.0000 0.0000 0.0000
vt 1.0000 0.1393 0.0000
vt 1.0000 0.1393 0.0000
vt 0.8976 0.1393 0.0000
vt 0.8976 0.0000 0.0000
vt 0.0000 0.1393 0.0000
vt 0.0000 0.0000 0.0000
vt 0.1024 0.0000 0.0000
vt 0.1024 0.0000 0.0000
vt 0.1024 0.1393 0.0000
vt 0.0000 0.1393 0.0000
vt 0.0000 0.0991 0.0000
vt 0.0000 0.0000 0.0000
vt 0.1024 0.0000 0.0000
vt 0.1024 0.0000 0.0000
vt 0.1024 0.0991 0.0000
vt 0.0000 0.0991 0.0000
vt 9.4371 0.8690 0.2707
vt 9.3396 0.8680 0.2620
vt 9.3396 0.7987 0.2693
vt 9.3396 0.7987 0.2693
vt 9.4371 0.7997 0.2780
vt 9.4371 0.8690 0.2707
vt 0.0000 0.0991 0.0000
vt 0.0000 0.0000 0.0000
vt 0.2048 0.0000 0.0000
vt 0.2048 0.0000 0.0000
vt 0.2048 0.0991 0.0000
vt 0.0000 0.0991 0.0000
vt 0.0000 0.0991 0.0000
vt 0.0000 0.0000 0.0000
vt 0.1393 0.0000 0.0000
vt 0.1393 0.0000 0.0000
vt 0.1393 0.0991 0.0000
vt 0.0000 0.0991 0.0000
vt 0.8056 0.9322 0.0000
vt 0.8030 0.5943 0.0000
vt 2.0719 0.5194 0.0000
vt 2.0719 0.5194 0.0000
vt 2.0745 0.8573 0.0000
vt 0.8056 0.9322 0.0000
vt 0.1959 -1.6948 0.0000
vt 0.1944 -1.4137 0.0000
vt -1.0745 -1.4137 0.0000
vt -1.0745 -1.4137 0.0000
vt -1.3981 -1.6787 0.0000
vt 0.1959 -1.6948 0.0000
vt 0.2016 0.0064 0.0000
vt 0.1959 0.7417 0.0000
vt -1.3981 0.6092 0.0000
vt -1.3981 0.6092 0.0000
vt -1.3917 -0.0427 0.0000
vt 0.2016 0.0064 0.0000
vt 2.0719 -1.4137 0.0000
vt 0.8030 -1.4137 0.0000
vt 0.7984 -1.6908 0.0000
vt 0.7984 -1.6908 0.0000
vt 2.3917 -1.6775 0.0000
vt 2.0719 -1.4137 0.0000
vt 0.1427 -1.4137 0.0000
vt 0.4806 -1.4137 0.0000
vt 0.4806 2.4299 0.0000
vt 0.4806 2.4299 0.0000
vt 0.1426 2.4299 0.0000
vt 0.1427 -1.4137 0.0000
vt -1.3981 -1.6787 0.0000
vt -1.0745 -1.4137 0.0000
vt -1.0745 2.4299 0.0000
vt -1.0745 2.4299 0.0000
vt -1.3981 2.6948 0.0000
vt -1.3981 -1.6787 0.0000
vt -0.0427 -1.6775 0.0000
vt 0.6092 -1.6787 0.0000
vt 0.6091 2.6948 0.0000
vt 0.6091 2.6948 0.0000
vt -0.0428 2.6937 0.0000
vt -0.0427 -1.6775 0.0000
vt 2.0719 -1.4137 0.0000
vt 2.3917 -1.6775 0.0000
vt 2.3917 2.6937 0.0000
vt 2.3917 2.6937 0.0000
vt 2.0719 2.4299 0.0000
vt 2.0719 -1.4137 0.0000
vt -1.0745 0.8573 0.0000
vt -1.0719 0.5194 0.0000
vt 2.0698 0.7048 0.0000
vt 2.0698 0.7048 0.0000
vt 2.0672 1.0428 0.0000
vt -1.0745 0.8573 0.0000
vt -1.3981 2.6948 0.0000
vt -1.0745 2.4299 0.0000
vt 2.0672 2.4299 0.0000
vt 2.0672 2.4299 0.0000
vt 2.3944 2.6948 0.0000
vt -1.3981 2.6948 0.0000
vt 2.3917 -0.0428 0.0000
vt 2.3981 0.6091 0.0000
vt -1.3944 0.8329 0.0000
vt -1.3944 0.8329 0.0000
vt -1.3981 0.1809 0.0000
vt 2.3917 -0.0428 0.0000
vt 2.0719 2.4299 0.0000
vt 2.3917 2.6937 0.0000
vt -1.3981 2.6937 0.0000
vt -1.3981 2.6937 0.0000
vt -1.0698 2.4299 0.0000
vt 2.0719 2.4299 0.0000
vt 1.0428 2.4299 0.0000
vt 0.7048 2.4299 0.0000
vt 0.7048 -1.4137 0.0000
vt 0.7048 -1.4137 0.0000
vt 1.0427 -1.4138 0.0000
vt 1.0428 2.4299 0.0000
vt 2.3944 2.6948 0.0000
vt 2.0672 2.4299 0.0000
vt 2.0672 -1.4138 0.0000
vt 2.0672 -1.4138 0.0000
vt 2.3944 -1.6787 0.0000
vt 2.3944 2.6948 0.0000
vt 0.8191 2.6937 0.0000
vt 0.1671 2.6948 0.0000
vt 0.1672 -1.6787 0.0000
vt 0.1672 -1.6787 0.0000
vt 0.8192 -1.6775 0.0000
vt 0.8191 2.6937 0.0000
vt -1.0698 2.4299 0.0000
vt -1.3981 2.6937 0.0000
vt -1.3981 -1.6775 0.0000
vt -1.3981 -1.6775 0.0000
vt -1.0698 -1.4137 0.0000
vt -1.0698 2.4299 0.0000
vt -1.0672 1.0427 0.0000
vt -1.0698 0.7048 0.0000
vt 0.8030 0.5943 0.0000
vt 0.8030 0.5943 0.0000
vt 0.8056 0.9322 0.0000
vt -1.0672 1.0427 0.0000
vt 0.1959 -1.6948 0.0000
vt 2.3944 -1.6787 0.0000
vt 2.0672 -1.4138 0.0000
vt 2.0672 -1.4138 0.0000
vt 0.1944 -1.4137 0.0000
vt 0.1959 -1.6948 0.0000
vt 2.3981 0.1808 0.0000
vt 2.3944 0.8328 0.0000
vt 0.1959 0.7417 0.0000
vt 0.1959 0.7417 0.0000
vt 0.2016 0.0064 0.0000
vt 2.3981 0.1808 0.0000
vt -1.0698 -1.4137 0.0000
vt -1.3981 -1.6775 0.0000
vt 0.7984 -1.6908 0.0000
vt 0.7984 -1.6908 0.0000
vt 0.8030 -1.4137 0.0000
vt -1.0698 -1.4137 0.0000
vt 2.8567 8.6213 0.0000
vt 2.8567 8.6213 0.0000
vt 1.9417 11.8263 0.0000
vt 1.9417 11.8263 0.0000
vt 1.4627 13.5041 0.0000
vt 1.4627 13.5041 0.0000
vt 2.8567 8.6213 0.0000
vt 1.9417 11.8263 0.0000
vt 1.4627 13.5041 0.0000
vt 0.0005 0.5647 0.0000
vt 0.0005 0.4248 0.0000
vt 0.2185 0.4240 0.0000
vt 0.2189 0.6297 0.0000
vt 0.0137 0.6230 0.0000
vt 0.0005 0.6130 0.0000
vt 0.2185 0.4240 0.0000
vt 0.2189 0.6297 0.0000
vt 0.0005 0.6130 0.0000
vt 0.0005 0.5647 0.0000
vt 0.2185 0.4240 0.0000
vt 0.0005 0.6130 0.0000
vt 0.0137 0.6230 0.0000
vt 0.2189 0.6297 0.0000
vt 0.2191 0.7778 0.0000
vt 0.4382 0.6369 0.0000
vt 0.4382 0.7882 0.0000
vt 0.2322 0.7876 0.0000
vt 0.2322 0.7876 0.0000
vt 0.2191 0.7778 0.0000
vt 0.2189 0.6297 0.0000
vt 0.4382 0.6369 0.0000
vt 0.2322 0.7876 0.0000
vt 0.2189 0.6297 0.0000
vt 0.6327 -0.5378 9.4260
vt 0.6698 -0.5027 9.4380
vt -0.0559 0.5519 9.1372
vt -0.0559 0.5519 9.1372
vt -0.1232 0.5575 9.1129
vt 0.6327 -0.5378 9.4260
vt 1.6169 0.3912 9.7448
vt 0.6698 -0.5027 9.4380
vt 0.6886 -0.5300 9.4458
vt 0.6886 -0.5300 9.4458
vt 1.6585 0.3870 9.7599
vt 1.6169 0.3912 9.7448
vt 0.4963 0.9866 0.0000
vt 0.2322 0.7876 0.0000
vt 0.4382 0.7882 0.0000
vt 0.4963 0.9866 0.0000
vt 0.4382 0.7882 0.0000
vt 0.5913 0.7882 0.0000
vt 0.4963 0.9866 0.0000
vt 0.5913 0.7882 0.0000
vt 0.7554 0.7906 0.0000
vt 0.5913 0.6369 0.0000
vt 0.9764 0.6234 0.0000
vt 0.7554 0.7906 0.0000
vt 0.7554 0.7906 0.0000
vt 0.5913 0.7882 0.0000
vt 0.5913 0.6369 0.0000
vt 0.5913 0.6369 0.0000
vt 0.5000 0.6369 0.0000
vt 0.5000 0.4228 0.0000
vt 0.5913 0.6369 0.0000
vt 0.5000 0.4228 0.0000
vt 0.9995 0.4208 0.0000
vt 0.5913 0.6369 0.0000
vt 0.9995 0.4208 0.0000
vt 0.9995 0.6059 0.0000
vt 0.5913 0.6369 0.0000
vt 0.9995 0.6059 0.0000
vt 0.9764 0.6234 0.0000
vt 0.7668 -0.4790 -9.4348
vt 0.8060 -0.5180 -9.4261
vt 0.7974 -0.4322 -9.4221
vt 0.8413 -0.4641 -9.4175
vt 0.8018 -0.4255 -9.4210
vt 0.7974 -0.4322 -9.4221
vt 0.7974 -0.4322 -9.4221
vt 0.8060 -0.5180 -9.4261
vt 0.8413 -0.4641 -9.4175
vt 2.0596 1.4951 -9.1140
vt 2.1270 1.5022 -9.1035
vt 2.1184 1.5848 -9.1035
vt 2.0596 1.4951 -9.1140
vt 0.8018 -0.4255 -9.4210
vt 0.8413 -0.4641 -9.4175
vt 0.8413 -0.4641 -9.4175
vt 2.1270 1.5022 -9.1035
vt 2.0596 1.4951 -9.1140
vt 0.7455 1.4305 0.0000
vt 0.7526 2.2166 0.0000
vt 0.7504 2.2193 0.0000
vt 0.7504 2.2193 0.0000
vt 0.1002 1.4308 0.0000
vt 0.7455 1.4305 0.0000
vt 0.7526 2.2166 0.0000
vt 0.7455 1.4305 0.0000
vt 1.3571 1.4301 0.0000
vt 0.6380 0.9992 0.0000
vt 0.6289 0.0008 0.0000
vt 0.9995 0.0005 0.0000
vt 0.6380 0.9992 0.0000
vt 0.9995 0.0005 0.0000
vt 0.9995 0.9700 0.0000
vt 0.6380 0.9992 0.0000
vt 0.9995 0.9700 0.0000
vt 0.9817 0.9990 0.0000
vt 0.3256 0.0007 0.0000
vt 0.3269 0.2607 0.0000
vt 0.3269 0.4538 0.0000
vt 0.3269 0.4538 0.0000
vt 0.3225 0.9991 0.0000
vt 0.2925 0.9991 0.0000
vt 0.3256 0.0007 0.0000
vt 0.3269 0.4538 0.0000
vt 0.2925 0.9991 0.0000
vt 0.3256 0.0007 0.0000
vt 0.2925 0.9991 0.0000
vt 0.2925 0.0007 0.0000
vt 0.3798 0.0007 0.0000
vt 0.3832 0.2607 0.0000
vt 0.3269 0.2607 0.0000
vt 0.3269 0.2607 0.0000
vt 0.3256 0.0007 0.0000
vt 0.3798 0.0007 0.0000
vt 0.3832 0.2607 0.0000
vt 0.3798 0.0007 0.0000
vt 0.9995 0.0010 0.0000
vt 0.9995 0.9995 0.0000
vt 0.3844 0.9992 0.0000
vt 0.3832 0.4538 0.0000
vt 0.9995 0.9726 0.0000
vt 0.9995 0.9995 0.0000
vt 0.3832 0.4538 0.0000
vt 0.9995 0.0010 0.0000
vt 0.9995 0.9726 0.0000
vt 0.3832 0.4538 0.0000
vt 0.3832 0.2607 0.0000
vt 0.9995 0.0010 0.0000
vt 0.3832 0.4538 0.0000
vt 0.3225 0.9991 0.0000
vt 0.3269 0.4538 0.0000
vt 0.3832 0.4538 0.0000
vt 0.3832 0.4538 0.0000
vt 0.3844 0.9992 0.0000
vt 0.3225 0.9991 0.0000
vt 0.0005 0.0005 0.0000
vt 0.9995 0.0005 0.0000
vt 0.9995 0.9995 0.0000
vt 0.9995 0.9995 0.0000
vt 0.0005 0.9995 0.0000
vt 0.0005 0.0005 0.0000
vt 0.3269 0.2607 0.0000
vt 0.3269 0.2607 0.0000
vt 0.3832 0.2607 0.0000
vt 0.3832 0.2607 0.0000
vt 0.3832 0.2607 0.0000
vt 0.3269 0.2607 0.0000
vt 0.3832 0.2607 0.0000
vt 0.3832 0.2607 0.0000
vt 0.3832 0.4538 0.0000
vt 0.3832 0.4538 0.0000
vt 0.3832 0.4538 0.0000
vt 0.3832 0.2607 0.0000
vt 0.3832 0.4538 0.0000
vt 0.3832 0.4538 0.0000
vt 0.3269 0.4538 0.0000
vt 0.3269 0.4538 0.0000
vt 0.3269 0.4538 0.0000
vt 0.3832 0.4538 0.0000
vt 0.3269 0.4538 0.0000
vt 0.3269 0.4538 0.0000
vt 0.3269 0.2607 0.0000
vt 0.3269 0.2607 0.0000
vt 0.3269 0.2607 0.0000
vt 0.3269 0.4538 0.0000
# 1812 texture coords

g Kooli10
usemtl Red_thin
s off
f 1/1/1 2/2/1 3/3/1 
usemtl _5___Wall
f 4/4/2 5/5/2 6/6/2 
f 6/7/2 7/8/2 4/9/2 
usemtl _6___Roof
f 8/10/3 9/11/3 10/12/3 
f 8/13/4 10/14/4 2/15/4 
f 8/16/5 2/17/5 11/18/5 
f 8/19/6 4/20/6 12/21/6 
f 8/22/7 12/23/7 13/24/7 
f 8/25/8 13/26/8 9/27/8 
usemtl Red_thin
f 10/28/9 14/29/9 15/30/9 
f 10/31/10 15/32/10 3/33/10 
f 10/34/11 3/35/11 2/36/11 
f 15/37/12 14/38/12 16/39/12 
usemtl _5___Wall
f 17/40/13 18/41/13 19/42/13 
f 17/43/14 19/44/14 20/45/14 
f 17/46/15 20/47/15 21/48/15 
f 22/49/16 23/50/16 24/51/16 
f 22/52/16 24/53/16 25/54/16 
f 22/55/17 25/56/17 26/57/17 
f 27/58/18 28/59/18 29/60/18 
f 30/61/19 31/62/19 11/63/19 
f 29/64/19 30/65/19 11/66/19 
f 11/67/20 32/68/20 33/69/20 
f 11/70/21 33/71/21 34/72/21 
f 29/73/22 11/74/22 34/75/22 
f 27/76/19 29/77/19 34/78/19 
f 35/79/23 36/80/23 37/81/23 
f 37/82/23 38/83/23 35/84/23 
f 39/85/24 40/86/24 38/87/24 
f 38/88/24 41/89/24 39/90/24 
usemtl Red_thin
f 42/91/25 5/92/25 43/93/25 
f 43/94/17 44/95/17 42/96/17 
f 45/97/26 46/98/26 47/99/26 
f 47/100/26 48/101/26 45/102/26 
f 49/103/27 50/104/27 51/105/27 
f 52/106/28 5/107/28 42/108/28 
usemtl _5___Wall
f 53/109/29 54/110/29 55/111/29 
f 55/112/29 56/113/29 53/114/29 
f 57/115/23 37/116/23 36/117/23 
f 37/118/24 57/119/24 58/120/24 
f 59/121/24 58/122/24 57/123/24 
f 58/124/24 59/125/24 60/126/24 
f 61/127/24 60/128/24 59/129/24 
f 60/130/24 61/131/24 62/132/24 
f 63/133/24 62/134/24 61/135/24 
f 62/136/24 63/137/24 53/138/24 
f 64/139/29 53/140/29 63/141/29 
f 53/142/29 64/143/29 54/144/29 
f 65/145/24 54/146/24 64/147/24 
f 54/148/24 65/149/24 66/150/24 
f 67/151/24 66/152/24 68/153/24 
f 68/154/24 66/155/24 65/156/24 
f 35/157/30 69/158/30 70/159/30 
f 70/160/30 71/161/30 35/162/30 
f 72/163/19 73/164/19 74/165/19 
f 72/166/19 74/167/19 75/168/19 
f 76/169/20 77/170/20 78/171/20 
f 79/172/19 76/173/19 78/174/19 
f 75/175/19 79/176/19 78/177/19 
f 72/178/19 75/179/19 78/180/19 
f 78/181/31 80/182/31 81/183/31 
f 72/184/32 78/185/32 81/186/32 
f 41/187/33 82/188/33 83/189/33 
f 83/190/23 84/191/23 41/192/23 
f 85/193/24 86/194/24 78/195/24 
f 78/196/24 87/197/24 85/198/24 
f 86/199/20 88/200/20 80/201/20 
f 80/202/20 78/203/20 86/204/20 
f 89/205/19 90/206/19 72/207/19 
f 72/208/19 81/209/19 89/210/19 
f 28/211/34 74/212/34 91/213/34 
f 91/214/34 29/215/34 28/216/34 
f 34/217/19 79/218/19 75/219/19 
f 75/220/19 27/221/19 34/222/19 
f 33/223/20 32/224/20 77/225/20 
f 77/226/20 76/227/20 33/228/20 
f 77/229/24 32/230/24 92/231/24 
f 92/232/24 93/233/24 77/234/24 
f 87/235/24 78/236/24 77/237/24 
f 69/238/23 35/239/23 38/240/23 
f 93/241/23 69/242/23 38/243/23 
f 77/244/33 93/245/33 38/246/33 
f 87/247/35 77/248/35 38/249/35 
f 87/250/36 38/251/36 40/252/36 
f 57/253/24 36/254/24 94/255/24 
f 94/256/24 95/257/24 57/258/24 
f 96/259/24 61/260/24 59/261/24 
f 59/262/24 97/263/24 96/264/24 
f 64/265/29 63/266/29 98/267/29 
f 98/268/29 99/269/29 64/270/29 
f 2/271/24 32/272/24 11/273/24 
f 100/274/24 101/275/24 2/276/24 
f 2/277/37 92/278/37 32/279/37 
f 2/280/38 70/281/38 92/282/38 
f 2/283/39 71/284/39 70/285/39 
f 2/286/40 94/287/40 71/288/40 
f 2/289/23 95/290/23 94/291/23 
f 2/292/41 97/293/41 95/294/41 
f 2/295/41 96/296/41 97/297/41 
f 2/298/41 98/299/41 96/300/41 
f 2/301/42 99/302/42 98/303/42 
f 2/304/33 101/305/33 99/306/33 
f 68/307/24 65/308/24 101/309/24 
f 101/310/24 100/311/24 68/312/24 
f 102/313/24 103/314/24 66/315/24 
f 66/316/24 67/317/24 102/318/24 
f 104/319/24 60/320/24 62/321/24 
f 62/322/24 105/323/24 104/324/24 
f 37/325/24 58/326/24 106/327/24 
f 106/328/24 82/329/24 37/330/24 
f 103/331/24 102/332/24 107/333/24 
f 83/334/43 82/335/43 106/336/43 
f 107/337/24 83/338/24 106/339/24 
f 106/340/23 104/341/23 105/342/23 
f 107/343/44 106/344/44 105/345/44 
f 107/346/35 105/347/35 56/348/35 
f 107/349/45 56/350/45 55/351/45 
f 103/352/35 107/353/35 55/354/35 
f 108/355/24 86/356/24 85/357/24 
f 85/358/23 39/359/23 41/360/23 
f 108/361/24 85/362/24 41/363/24 
f 108/364/23 41/365/23 84/366/23 
usemtl _2___Window_up_flr
f 109/367/24 110/368/24 111/369/24 
f 111/370/24 112/371/24 109/372/24 
f 113/373/24 114/374/24 115/375/24 
f 115/376/24 116/377/24 113/378/24 
f 117/379/24 118/380/24 119/381/24 
f 119/382/24 120/383/24 117/384/24 
f 121/385/24 122/386/24 123/387/24 
f 123/388/24 124/389/24 121/390/24 
f 125/391/24 126/392/24 127/393/24 
f 127/394/24 128/395/24 125/396/24 
f 129/397/19 130/398/19 131/399/19 
f 131/400/19 132/401/19 129/402/19 
f 133/403/19 134/404/19 135/405/19 
f 135/406/19 136/407/19 133/408/19 
f 137/409/24 138/410/24 139/411/24 
f 139/412/24 140/413/24 137/414/24 
f 141/415/24 142/416/24 143/417/24 
f 143/418/24 144/419/24 141/420/24 
f 145/421/24 146/422/24 147/423/24 
f 147/424/24 148/425/24 145/426/24 
f 149/427/24 150/428/24 151/429/24 
f 151/430/24 152/431/24 149/432/24 
f 153/433/19 154/434/19 155/435/19 
f 155/436/19 156/437/19 153/438/19 
f 157/439/19 158/440/19 159/441/19 
f 159/442/19 160/443/19 157/444/19 
usemtl _4___Door
f 161/445/30 162/446/30 163/447/30 
f 163/448/30 164/449/30 161/450/30 
usemtl _5___Wall
f 64/451/46 111/452/46 110/453/46 
f 110/454/46 65/455/46 64/456/46 
f 99/457/47 112/458/47 111/459/47 
f 111/460/47 64/461/47 99/462/47 
f 101/463/48 109/464/48 112/465/48 
f 112/466/48 99/467/48 101/468/48 
f 65/469/49 110/470/49 109/471/49 
f 109/472/49 101/473/49 65/474/49 
f 61/475/46 115/476/46 114/477/46 
f 114/478/46 63/479/46 61/480/46 
f 96/481/50 116/482/50 115/483/50 
f 115/484/50 61/485/50 96/486/50 
f 98/487/48 113/488/48 116/489/48 
f 116/490/48 96/491/48 98/492/48 
f 63/493/51 114/494/51 113/495/51 
f 113/496/51 98/497/51 63/498/51 
f 57/499/46 119/500/46 118/501/46 
f 118/502/46 59/503/46 57/504/46 
f 95/505/50 120/506/50 119/507/50 
f 119/508/50 57/509/50 95/510/50 
f 97/511/48 117/512/48 120/513/48 
f 120/514/48 95/515/48 97/516/48 
f 59/517/51 118/518/51 117/519/51 
f 117/520/51 97/521/51 59/522/51 
f 35/523/46 123/524/46 122/525/46 
f 122/526/46 36/527/46 35/528/46 
f 71/529/52 124/530/52 123/531/52 
f 123/532/52 35/533/52 71/534/52 
f 94/535/48 121/536/48 124/537/48 
f 124/538/48 71/539/48 94/540/48 
f 36/541/51 122/542/51 121/543/51 
f 121/544/51 94/545/51 36/546/51 
f 93/547/46 127/548/46 126/549/46 
f 126/550/46 69/551/46 93/552/46 
f 92/553/53 128/554/53 127/555/53 
f 127/556/53 93/557/53 92/558/53 
f 70/559/48 125/560/48 128/561/48 
f 128/562/48 92/563/48 70/564/48 
f 69/565/54 126/566/54 125/567/54 
f 125/568/54 70/569/54 69/570/54 
f 79/571/46 131/572/46 130/573/46 
f 130/574/46 76/575/46 79/576/46 
f 34/577/55 132/578/55 131/579/55 
f 131/580/55 79/581/55 34/582/55 
f 33/583/48 129/584/48 132/585/48 
f 132/586/48 34/587/48 33/588/48 
f 76/589/56 130/590/56 129/591/56 
f 129/592/56 33/593/56 76/594/56 
f 74/595/46 135/596/46 134/597/46 
f 134/598/46 75/599/46 74/600/46 
f 28/601/57 136/602/57 135/603/57 
f 135/604/57 74/605/57 28/606/57 
f 27/607/48 133/608/48 136/609/48 
f 136/610/48 28/611/48 27/612/48 
f 75/613/56 134/614/56 133/615/56 
f 133/616/56 27/617/56 75/618/56 
f 54/619/47 139/620/47 138/621/47 
f 138/622/47 55/623/47 54/624/47 
f 66/625/48 140/626/48 139/627/48 
f 139/628/48 54/629/48 66/630/48 
f 103/631/49 137/632/49 140/633/49 
f 140/634/49 66/635/49 103/636/49 
f 55/637/46 138/638/46 137/639/46 
f 137/640/46 103/641/46 55/642/46 
f 105/643/46 143/644/46 142/645/46 
f 142/646/46 56/647/46 105/648/46 
f 62/649/50 144/650/50 143/651/50 
f 143/652/50 105/653/50 62/654/50 
f 53/655/48 141/656/48 144/657/48 
f 144/658/48 62/659/48 53/660/48 
f 56/661/51 142/662/51 141/663/51 
f 141/664/51 53/665/51 56/666/51 
f 106/667/46 147/668/46 146/669/46 
f 146/670/46 104/671/46 106/672/46 
f 58/673/50 148/674/50 147/675/50 
f 147/676/50 106/677/50 58/678/50 
f 60/679/48 145/680/48 148/681/48 
f 148/682/48 58/683/48 60/684/48 
f 104/685/51 146/686/51 145/687/51 
f 145/688/51 60/689/51 104/690/51 
f 85/691/46 151/692/46 150/693/46 
f 150/694/46 39/695/46 85/696/46 
f 87/697/53 152/698/53 151/699/53 
f 151/700/53 85/701/53 87/702/53 
f 40/703/48 149/704/48 152/705/48 
f 152/706/48 87/707/48 40/708/48 
f 39/709/54 150/710/54 149/711/54 
f 149/712/54 40/713/54 39/714/54 
f 81/715/55 155/716/55 154/717/55 
f 154/718/55 89/719/55 81/720/55 
f 80/721/48 156/722/48 155/723/48 
f 155/724/48 81/725/48 80/726/48 
f 88/727/56 153/728/56 156/729/56 
f 156/730/56 80/731/56 88/732/56 
f 89/733/46 154/734/46 153/735/46 
f 153/736/46 88/737/46 89/738/46 
f 165/739/46 159/740/46 158/741/46 
f 158/742/46 90/743/46 165/744/46 
f 73/745/57 160/746/57 159/747/57 
f 159/748/57 165/749/57 73/750/57 
f 72/751/48 157/752/48 160/753/48 
f 160/754/48 73/755/48 72/756/48 
f 90/757/56 158/758/56 157/759/56 
f 157/760/56 72/761/56 90/762/56 
f 41/763/46 163/764/46 162/765/46 
f 162/766/46 82/767/46 41/768/46 
f 38/769/58 164/770/58 163/771/58 
f 163/772/58 41/773/58 38/774/58 
f 37/775/48 161/776/48 164/777/48 
f 164/778/48 38/779/48 37/780/48 
f 82/781/59 162/782/59 161/783/59 
f 161/784/59 37/785/59 82/786/59 
usemtl Red_thin
f 166/787/19 167/788/19 168/789/19 
f 168/790/19 169/791/19 166/792/19 
f 170/793/60 171/794/60 166/795/60 
f 166/796/61 169/797/61 170/798/61 
usemtl Material__51
f 172/799/62 31/800/62 173/801/62 
usemtl _4___Default
f 168/802/63 11/803/63 2/804/63 
f 2/805/64 174/806/64 168/807/64 
usemtl Red_thin
f 169/808/24 168/809/24 174/810/24 
f 174/811/24 175/812/24 169/813/24 
f 170/814/65 169/815/65 175/816/65 
f 175/817/66 176/818/66 170/819/66 
usemtl Material__51
f 11/820/67 170/821/67 176/822/67 
f 176/823/67 2/824/67 11/825/67 
usemtl Red_thin
f 166/826/68 171/827/68 173/828/68 
f 166/829/68 173/830/68 31/831/68 
f 166/832/68 31/833/68 167/834/68 
f 174/835/69 2/836/69 176/837/69 
f 176/838/69 175/839/69 174/840/69 
usemtl Concrete
f 177/841/70 178/842/70 179/843/70 
f 179/844/70 180/845/70 177/846/70 
f 181/847/71 182/848/71 183/849/71 
f 183/850/71 184/851/71 181/852/71 
f 178/853/72 182/854/72 181/855/72 
f 181/856/72 179/857/72 178/858/72 
f 177/859/46 183/860/46 182/861/46 
f 182/862/46 178/863/46 177/864/46 
f 180/865/73 184/866/73 183/867/73 
f 183/868/73 177/869/73 180/870/73 
f 185/871/70 186/872/70 187/873/70 
f 187/874/70 177/875/70 185/876/70 
f 188/877/71 189/878/71 190/879/71 
f 190/880/71 191/881/71 188/882/71 
f 187/883/48 188/884/48 191/885/48 
f 191/886/48 177/887/48 187/888/48 
f 186/889/74 189/890/74 188/891/74 
f 188/892/74 187/893/74 186/894/74 
f 185/895/46 190/896/46 189/897/46 
f 189/898/46 186/899/46 185/900/46 
f 177/901/75 191/902/75 190/903/75 
f 190/904/75 185/905/75 177/906/75 
f 179/907/70 192/908/70 193/909/70 
f 193/910/70 180/911/70 179/912/70 
f 181/913/72 194/914/72 192/915/72 
f 192/916/72 179/917/72 181/918/72 
f 184/919/71 195/920/71 194/921/71 
f 194/922/71 181/923/71 184/924/71 
f 180/925/73 193/926/73 195/927/73 
f 195/928/73 184/929/73 180/930/73 
usemtl _4___Default
f 196/931/76 12/932/76 4/933/76 
f 4/934/76 197/935/76 196/936/76 
usemtl Red_thin
f 198/937/77 196/938/77 197/939/77 
f 197/940/77 199/941/77 198/942/77 
f 200/943/78 198/944/78 199/945/78 
f 199/946/78 201/947/78 200/948/78 
f 201/949/79 4/950/79 12/951/79 
f 201/952/79 12/953/79 19/954/79 
f 201/955/80 19/956/80 200/957/80 
f 199/958/81 197/959/81 202/960/81 
f 202/961/2 203/962/2 199/963/2 
f 204/964/48 201/965/48 199/966/48 
f 199/967/48 203/968/48 204/969/48 
f 201/970/82 204/971/82 205/972/82 
f 201/973/83 205/974/83 5/975/83 
f 201/976/83 5/977/83 4/978/83 
f 198/979/84 200/980/84 19/981/84 
f 198/982/85 19/983/85 12/984/85 
f 198/985/86 12/986/86 196/987/86 
f 205/988/87 204/989/87 203/990/87 
f 203/991/88 202/992/88 5/993/88 
f 205/994/88 203/995/88 5/996/88 
usemtl _5___Wall
f 206/997/89 207/998/89 208/999/89 
f 208/1000/90 209/1001/90 206/1002/90 
usemtl _6___Roof
f 210/1003/91 207/1004/91 206/1005/91 
f 206/1006/91 211/1007/91 210/1008/91 
usemtl _2___Window_up_flr
f 212/1009/92 213/1010/92 214/1011/92 
f 214/1012/92 215/1013/92 212/1014/92 
usemtl Red_thin
f 216/1015/93 208/1016/93 207/1017/93 
f 207/1018/94 210/1019/94 216/1020/94 
f 217/1021/95 211/1022/95 206/1023/95 
f 206/1024/96 209/1025/96 217/1026/96 
f 218/1027/97 219/1028/97 220/1029/97 
f 220/1030/98 221/1031/98 218/1032/98 
usemtl _6___Roof
f 211/1033/99 218/1034/99 221/1035/99 
f 221/1036/99 210/1037/99 211/1038/99 
usemtl Red_thin
f 217/1039/100 219/1040/100 218/1041/100 
f 218/1042/101 211/1043/101 217/1044/101 
f 216/1045/102 220/1046/102 219/1047/102 
f 219/1048/102 217/1049/102 216/1050/102 
f 216/1051/103 210/1052/103 221/1053/103 
f 221/1054/104 220/1055/104 216/1056/104 
f 222/1057/105 209/1058/105 208/1059/105 
f 208/1060/106 223/1061/106 222/1062/106 
f 224/1063/107 223/1064/107 208/1065/107 
f 208/1066/108 216/1067/108 224/1068/108 
f 224/1069/109 216/1070/109 217/1071/109 
f 217/1072/110 225/1073/110 224/1074/110 
f 225/1075/111 217/1076/111 209/1077/111 
f 209/1078/112 222/1079/112 225/1080/112 
usemtl _5___Wall
f 214/1081/113 222/1082/113 223/1083/113 
f 223/1084/113 215/1085/113 214/1086/113 
f 215/1087/114 223/1088/114 224/1089/114 
f 224/1090/114 212/1091/114 215/1092/114 
f 212/1093/115 224/1094/115 225/1095/115 
f 225/1096/115 213/1097/115 212/1098/115 
f 213/1099/116 225/1100/116 222/1101/116 
f 222/1102/117 214/1103/117 213/1104/117 
f 88/1105/20 86/1106/20 108/1107/20 
f 108/1108/22 226/1109/22 165/1110/22 
f 108/1111/118 165/1112/118 90/1113/118 
f 108/1114/19 90/1115/19 89/1116/19 
f 88/1117/19 108/1118/19 89/1119/19 
usemtl Red_thin
f 51/1120/119 50/1121/119 31/1122/119 
f 31/1123/120 227/1124/120 51/1125/120 
f 227/1126/121 31/1127/121 30/1128/121 
usemtl _5___Wall
f 25/1129/121 24/1130/121 228/1131/121 
f 228/1132/121 229/1133/121 25/1134/121 
f 230/1135/17 25/1136/17 229/1137/17 
f 229/1138/17 6/1139/17 230/1140/17 
f 73/1141/34 165/1142/34 231/1143/34 
f 73/1144/34 231/1145/34 232/1146/34 
f 73/1147/122 232/1148/122 233/1149/122 
f 226/1150/19 234/1151/19 231/1152/19 
f 231/1153/122 165/1154/122 226/1155/122 
f 74/1156/34 73/1157/34 233/1158/34 
f 74/1159/123 233/1160/123 235/1161/123 
f 74/1162/124 235/1163/124 236/1164/124 
f 74/1165/125 236/1166/125 237/1167/125 
f 74/1168/126 237/1169/126 238/1170/126 
f 74/1171/127 238/1172/127 239/1173/127 
f 74/1174/127 239/1175/127 240/1176/127 
f 74/1177/128 240/1178/128 241/1179/128 
f 74/1180/128 241/1181/128 242/1182/128 
f 74/1183/34 242/1184/34 91/1185/34 
f 24/1186/129 243/1187/129 244/1188/129 
f 24/1189/130 245/1190/130 243/1191/130 
f 24/1192/131 242/1193/131 245/1194/131 
f 91/1195/17 242/1196/17 24/1197/17 
f 24/1198/121 246/1199/121 228/1200/121 
f 24/1201/121 247/1202/121 246/1203/121 
f 24/1204/132 248/1205/132 247/1206/132 
f 24/1207/133 249/1208/133 248/1209/133 
f 24/1210/17 250/1211/17 249/1212/17 
f 24/1213/134 251/1214/134 250/1215/134 
f 24/1216/130 252/1217/130 251/1218/130 
f 24/1219/135 244/1220/135 252/1221/135 
f 235/1222/136 233/1223/136 248/1224/136 
f 248/1225/137 249/1226/137 235/1227/137 
f 247/1228/138 248/1229/138 233/1230/138 
f 233/1231/139 232/1232/139 247/1233/139 
f 237/1234/140 236/1235/140 250/1236/140 
f 250/1237/141 251/1238/141 237/1239/141 
f 236/1240/142 235/1241/142 249/1242/142 
f 249/1243/143 250/1244/143 236/1245/143 
f 239/1246/144 238/1247/144 252/1248/144 
f 252/1249/145 244/1250/145 239/1251/145 
f 238/1252/146 237/1253/146 251/1254/146 
f 251/1255/147 252/1256/147 238/1257/147 
f 240/1258/148 239/1259/148 244/1260/148 
f 244/1261/149 243/1262/149 240/1263/149 
f 245/1264/150 242/1265/150 241/1266/150 
f 241/1267/151 240/1268/151 243/1269/151 
f 243/1270/152 245/1271/152 241/1272/152 
f 231/1273/153 234/1274/153 253/1275/153 
f 253/1276/154 246/1277/154 247/1278/154 
f 231/1279/153 253/1280/153 247/1281/153 
f 231/1282/153 247/1283/153 232/1284/153 
usemtl _2___Window_up_flr
f 26/1285/121 254/1286/121 255/1287/121 
f 26/1288/16 255/1289/16 256/1290/16 
f 26/1291/17 256/1292/17 22/1293/17 
usemtl _6___Roof
f 46/1294/155 8/1295/155 11/1296/155 
f 11/1297/156 31/1298/156 46/1299/156 
f 8/1300/157 46/1301/157 5/1302/157 
f 5/1303/158 4/1304/158 8/1305/158 
usemtl _4___Default
f 11/1306/159 168/1307/159 167/1308/159 
f 167/1309/160 31/1310/160 11/1311/160 
f 5/1312/161 202/1313/161 197/1314/161 
f 197/1315/162 4/1316/162 5/1317/162 
usemtl Chimney
f 257/1318/163 258/1319/163 259/1320/163 
f 259/1321/163 260/1322/163 257/1323/163 
f 260/1324/164 259/1325/164 261/1326/164 
f 261/1327/164 262/1328/164 260/1329/164 
f 262/1330/165 261/1331/165 263/1332/165 
f 263/1333/165 264/1334/165 262/1335/165 
f 264/1336/166 263/1337/166 258/1338/166 
f 258/1339/166 257/1340/166 264/1341/166 
f 265/1342/167 266/1343/167 267/1344/167 
f 267/1345/167 268/1346/167 265/1347/167 
f 266/1348/168 269/1349/168 270/1350/168 
f 270/1351/168 267/1352/168 266/1353/168 
f 269/1354/169 271/1355/169 272/1356/169 
f 272/1357/169 270/1358/169 269/1359/169 
f 271/1360/170 265/1361/170 268/1362/170 
f 268/1363/170 272/1364/170 271/1365/170 
f 265/1366/48 257/1367/48 260/1368/48 
f 260/1369/48 266/1370/48 265/1371/48 
f 266/1372/48 260/1373/48 262/1374/48 
f 262/1375/48 269/1376/48 266/1377/48 
f 269/1378/48 262/1379/48 264/1380/48 
f 264/1381/48 271/1382/48 269/1383/48 
f 271/1384/48 264/1385/48 257/1386/48 
f 257/1387/48 265/1388/48 271/1389/48 
usemtl Chimney_top
f 268/1390/46 267/1391/46 270/1392/46 
f 270/1393/46 272/1394/46 268/1395/46 
usemtl Chimney
f 273/1396/78 274/1397/78 275/1398/78 
f 275/1399/171 276/1400/171 273/1401/171 
f 277/1402/172 275/1403/172 274/1404/172 
f 274/1405/173 278/1406/173 277/1407/173 
f 278/1408/174 274/1409/174 273/1410/174 
f 273/1411/175 279/1412/175 278/1413/175 
f 279/1414/176 273/1415/176 276/1416/176 
f 276/1417/176 280/1418/176 279/1419/176 
f 280/1420/177 276/1421/177 275/1422/177 
f 275/1423/178 277/1424/178 280/1425/178 
f 281/1426/179 282/1427/179 283/1428/179 
f 283/1429/180 284/1430/180 281/1431/180 
f 282/1432/181 285/1433/181 286/1434/181 
f 286/1435/182 283/1436/182 282/1437/182 
f 285/1438/183 287/1439/183 288/1440/183 
f 288/1441/183 286/1442/183 285/1443/183 
f 287/1444/184 281/1445/184 284/1446/184 
f 284/1447/184 288/1448/184 287/1449/184 
f 281/1450/185 277/1451/185 278/1452/185 
f 278/1453/186 282/1454/186 281/1455/186 
f 282/1456/187 278/1457/187 279/1458/187 
f 279/1459/188 285/1460/188 282/1461/188 
f 285/1462/189 279/1463/189 280/1464/189 
f 280/1465/190 287/1466/190 285/1467/190 
f 287/1468/191 280/1469/191 277/1470/191 
f 277/1471/192 281/1472/192 287/1473/192 
usemtl Chimney_top
f 284/1474/46 283/1475/46 286/1476/46 
f 286/1477/46 288/1478/46 284/1479/46 
usemtl _2___Window_up_flr
f 289/1480/193 290/1481/193 291/1482/193 
f 291/1483/193 292/1484/193 289/1485/193 
f 293/1486/194 294/1487/194 295/1488/194 
f 295/1489/194 296/1490/194 293/1491/194 
usemtl Material__51
f 294/1492/48 290/1493/48 289/1494/48 
f 289/1495/48 295/1496/48 294/1497/48 
usemtl Red_thin
f 295/1498/195 289/1499/195 292/1500/195 
f 292/1501/195 296/1502/195 295/1503/195 
usemtl _4___Default
f 296/1504/46 292/1505/46 291/1506/46 
f 291/1507/46 293/1508/46 296/1509/46 
usemtl _6___Roof
f 293/1510/196 291/1511/196 290/1512/196 
f 290/1513/196 294/1514/196 293/1515/196 
usemtl _1___Default
f 297/1516/46 26/1517/46 22/1518/46 
f 22/1519/46 298/1520/46 297/1521/46 
f 299/1522/197 297/1523/197 298/1524/197 
f 298/1525/198 300/1526/198 299/1527/198 
f 301/1528/199 299/1529/199 300/1530/199 
f 300/1531/200 302/1532/200 301/1533/200 
f 22/1534/201 26/1535/201 301/1536/201 
f 301/1537/202 302/1538/202 22/1539/202 
f 298/1540/203 22/1541/203 256/1542/203 
f 256/1543/203 303/1544/203 298/1545/203 
f 300/1546/204 298/1547/204 303/1548/204 
f 303/1549/204 304/1550/204 300/1551/204 
f 302/1552/205 300/1553/205 304/1554/205 
f 304/1555/206 305/1556/206 302/1557/206 
f 22/1558/207 302/1559/207 305/1560/207 
f 305/1561/208 256/1562/208 22/1563/208 
f 303/1564/48 256/1565/48 255/1566/48 
f 255/1567/48 306/1568/48 303/1569/48 
f 304/1570/209 303/1571/209 306/1572/209 
f 306/1573/210 307/1574/210 304/1575/210 
f 305/1576/211 304/1577/211 307/1578/211 
f 307/1579/211 308/1580/211 305/1581/211 
f 256/1582/212 305/1583/212 308/1584/212 
f 308/1585/212 255/1586/212 256/1587/212 
f 306/1588/213 255/1589/213 254/1590/213 
f 254/1591/213 309/1592/213 306/1593/213 
f 307/1594/214 306/1595/214 309/1596/214 
f 309/1597/214 310/1598/214 307/1599/214 
f 308/1600/215 307/1601/215 310/1602/215 
f 310/1603/215 311/1604/215 308/1605/215 
f 255/1606/216 308/1607/216 311/1608/216 
f 311/1609/216 254/1610/216 255/1611/216 
f 309/1612/46 254/1613/46 26/1614/46 
f 26/1615/46 297/1616/46 309/1617/46 
f 299/1618/217 310/1619/217 309/1620/217 
f 309/1621/218 297/1622/218 299/1623/218 
f 311/1624/219 310/1625/219 299/1626/219 
f 299/1627/220 301/1628/220 311/1629/220 
f 254/1630/221 311/1631/221 301/1632/221 
f 301/1633/201 26/1634/201 254/1635/201 
usemtl Material__51
f 170/1636/62 11/1637/62 172/1638/62 
f 172/1639/62 173/1640/62 171/1641/62 
f 170/1642/222 172/1643/222 171/1644/222 
usemtl _5___Wall
f 29/1645/17 91/1646/17 24/1647/17 
f 23/1648/130 227/1649/130 30/1650/130 
f 24/1651/129 23/1652/129 30/1653/129 
f 29/1654/17 24/1655/17 30/1656/17 
f 227/1657/129 23/1658/129 51/1659/129 
f 22/1660/121 256/1661/121 49/1662/121 
f 49/1663/223 51/1664/223 23/1665/223 
f 22/1666/16 49/1667/16 23/1668/16 
usemtl Red_thin
f 45/1669/224 48/1670/224 44/1671/224 
f 44/1672/131 43/1673/131 45/1674/131 
f 49/1675/225 48/1676/225 47/1677/225 
f 47/1678/226 50/1679/226 49/1680/226 
usemtl _5___Wall
f 48/1681/16 49/1682/16 256/1683/16 
f 48/1684/16 256/1685/16 255/1686/16 
f 48/1687/16 255/1688/16 44/1689/16 
f 254/1690/129 42/1691/129 44/1692/129 
f 44/1693/121 255/1694/121 254/1695/121 
f 254/1696/121 26/1697/121 25/1698/121 
f 254/1699/129 25/1700/129 230/1701/129 
f 254/1702/17 230/1703/17 52/1704/17 
f 254/1705/130 52/1706/130 42/1707/130 
usemtl Red_thin
f 10/1708/227 9/1709/227 14/1710/227 
f 13/1711/228 16/1712/228 14/1713/228 
f 14/1714/229 9/1715/229 13/1716/229 
f 18/1717/230 12/1718/230 19/1719/230 
f 18/1720/231 16/1721/231 13/1722/231 
f 13/1723/232 12/1724/232 18/1725/232 
usemtl _5___Wall
f 17/1726/233 15/1727/233 16/1728/233 
f 16/1729/234 18/1730/234 17/1731/234 
f 15/1732/235 17/1733/235 3/1734/235 
f 17/1735/236 21/1736/236 107/1737/236 
f 17/1738/237 107/1739/237 1/1740/237 
f 17/1741/238 1/1742/238 3/1743/238 
f 312/1744/239 313/1745/239 314/1746/239 
f 314/1747/240 315/1748/240 4/1749/240 
f 312/1750/241 314/1751/241 4/1752/241 
f 312/1753/77 4/1754/77 7/1755/77 
f 316/1756/239 317/1757/239 313/1758/239 
f 313/1759/239 312/1760/239 316/1761/239 
f 317/1762/77 316/1763/77 20/1764/77 
f 12/1765/241 318/1766/241 319/1767/241 
f 19/1768/77 12/1769/77 319/1770/77 
f 20/1771/77 19/1772/77 319/1773/77 
f 317/1774/77 20/1775/77 319/1776/77 
f 315/1777/240 314/1778/240 319/1779/240 
f 319/1780/240 318/1781/240 315/1782/240 
usemtl _2___Window_up_flr
f 320/1783/77 321/1784/77 322/1785/77 
f 322/1786/77 323/1787/77 320/1788/77 
usemtl _5___Wall
f 320/1789/46 313/1790/46 317/1791/46 
f 317/1792/46 321/1793/46 320/1794/46 
f 321/1795/242 317/1796/242 319/1797/242 
f 319/1798/242 322/1799/242 321/1800/242 
f 322/1801/48 319/1802/48 314/1803/48 
f 314/1804/48 323/1805/48 322/1806/48 
f 323/1807/243 314/1808/243 313/1809/243 
f 313/1810/243 320/1811/243 323/1812/243 
# 0 polygons - 604 triangles

