# 3ds Max Wavefront OBJ Exporter v0.97b - (c)2007 guruware
# File Created: 08.11.2011 13:06:40

mtllib Aia_6_3-origo.mtl

#
# object Aia_6_3
#

v  542688.603851 6589125.510071 5.449933
v  542688.603851 6589125.510071 5.742990
v  542688.564545 6589125.561928 5.742991
v  542688.237366 6589121.975464 5.742924
v  542688.237335 6589121.975464 5.449941
v  542688.192871 6589121.980755 5.742988
v  542688.553894 6589125.461975 5.742988
v  542688.192871 6589121.980759 7.915115
v  542688.553894 6589125.461983 7.915115
v  542688.204102 6589122.089184 5.742988
v  542688.204102 6589122.089188 7.915115
v  542688.546265 6589125.582787 5.742990
v  542688.546265 6589125.582787 7.910395
v  542688.172913 6589121.983143 7.910175
v  542688.172943 6589121.983139 5.743010
v  542688.533936 6589125.46405 7.915115
v  542688.533936 6589125.464046 5.742988
v  542688.184143 6589122.091251 5.742988
v  542688.184143 6589122.091259 7.915115
v  542691.82666 6589125.365005 5.742990
v  542691.778351 6589125.318436 5.742990
v  542691.778381 6589125.31842 5.449936
v  542691.392609 6589121.599506 5.742919
v  542691.392639 6589121.599503 5.449937
v  542691.435608 6589121.594379 5.743002
v  542691.435577 6589121.594383 7.915120
v  542691.816315 6589125.265076 5.742988
v  542691.816315 6589125.265076 7.915115
v  542691.849762 6589125.383377 7.915115
v  542691.849731 6589125.383373 5.742990
v  542691.83725 6589125.262901 5.742988
v  542691.83725 6589125.262905 7.915115
v  542690.196289 6589125.464317 8.752298
v  542688.664368 6589125.555897 5.742993
v  542688.664368 6589125.555897 7.966838
v  542691.727722 6589125.370972 7.966430
v  542691.727692 6589125.370975 5.742993
v  542691.849701 6589125.383369 7.904434
v  542688.665558 6589125.575584 5.742993
v  542688.665558 6589125.575584 7.966838
v  542691.728912 6589125.390659 7.966431
v  542691.728882 6589125.390659 5.742993
v  542691.266876 6589121.614494 8.201980
v  542689.81488 6589121.787495 8.951024
v  542687.940613 6589122.010822 7.984108
v  542688.019928 6589122.001373 7.826324
v  542691.266876 6589121.614517 5.449940
v  542691.609894 6589121.57362 7.826333
v  542691.689209 6589121.564171 7.984111
v  542691.827637 6589125.364437 7.915115
v  542688.563446 6589125.561527 7.915115
v  542690.221222 6589125.705608 8.950830
v  542688.335571 6589125.819443 7.983918
v  542688.415375 6589125.814617 7.826134
v  542692.106995 6589125.591766 7.983918
v  542692.027191 6589125.596588 7.826134
v  542690.221252 6589125.705605 8.752106
# 57 vertices

vn -0.994667 0.103141 0.000076
vn -0.994667 0.103141 0.000076
vn -0.994667 0.103141 0.000076
vn -0.994667 0.103135 -0.000000
vn -0.994667 0.103135 -0.000000
vn -0.994667 0.103135 -0.000000
vn -0.001425 0.000167 -0.999999
vn -0.001425 0.000167 -0.999999
vn -0.001425 0.000167 -0.999999
vn 0.000064 -0.000007 -1.000000
vn 0.000064 -0.000007 -1.000000
vn 0.000064 -0.000007 -1.000000
vn 0.000023 0.000036 -1.000000
vn 0.000023 0.000036 -1.000000
vn 0.000023 0.000036 -1.000000
vn -0.994663 0.103173 -0.000010
vn -0.994663 0.103173 -0.000010
vn -0.994663 0.103173 -0.000010
vn -0.994652 0.103281 -0.000016
vn -0.994652 0.103281 -0.000016
vn -0.994652 0.103281 -0.000016
vn -0.994666 0.103145 -0.000000
vn -0.994666 0.103145 -0.000000
vn -0.994666 0.103145 -0.000000
vn -0.994666 0.103145 -0.000000
vn -0.994666 0.103145 -0.000000
vn -0.994666 0.103145 -0.000000
vn -0.994665 0.103159 -0.000000
vn -0.994665 0.103159 -0.000000
vn -0.994665 0.103159 -0.000000
vn -0.994665 0.103159 -0.000000
vn -0.994665 0.103159 -0.000000
vn -0.994665 0.103159 -0.000000
vn 0.103159 0.994665 -0.000002
vn 0.103159 0.994665 -0.000002
vn 0.103159 0.994665 -0.000002
vn 0.103159 0.994665 -0.000002
vn 0.103159 0.994665 -0.000002
vn 0.103159 0.994665 -0.000002
vn -0.001069 0.000110 -0.999999
vn -0.001069 0.000110 -0.999999
vn -0.001069 0.000110 -0.999999
vn -0.000021 -0.000198 -1.000000
vn -0.000021 -0.000198 -1.000000
vn -0.000021 -0.000198 -1.000000
vn -0.118541 -0.992949 0.000002
vn -0.118541 -0.992949 0.000002
vn -0.118541 -0.992949 0.000002
vn -0.118664 -0.992934 0.000001
vn -0.118664 -0.992934 0.000001
vn -0.118664 -0.992934 0.000001
vn 0.000004 0.000038 -1.000000
vn 0.000004 0.000038 -1.000000
vn 0.000004 0.000038 -1.000000
vn 0.000071 0.000017 -1.000000
vn 0.000071 0.000017 -1.000000
vn 0.000071 0.000017 -1.000000
vn -0.103159 -0.994665 0.000002
vn -0.103159 -0.994665 0.000002
vn -0.103159 -0.994665 0.000002
vn -0.103159 -0.994665 0.000002
vn -0.103159 -0.994665 0.000002
vn -0.103159 -0.994665 0.000002
vn 0.994664 -0.103171 0.000093
vn 0.994664 -0.103171 0.000093
vn 0.994664 -0.103171 0.000093
vn 0.994663 -0.103174 0.000053
vn 0.994663 -0.103174 0.000053
vn 0.994663 -0.103174 0.000053
vn 0.001901 -0.000178 -0.999998
vn 0.001901 -0.000178 -0.999998
vn 0.001901 -0.000178 -0.999998
vn 0.000003 -0.000003 -1.000000
vn 0.000003 -0.000003 -1.000000
vn 0.000003 -0.000003 -1.000000
vn 0.994665 -0.103161 0.000000
vn 0.994665 -0.103161 0.000000
vn 0.994665 -0.103161 0.000000
vn 0.994664 -0.103163 0.000004
vn 0.994664 -0.103163 0.000004
vn 0.994664 -0.103163 0.000004
vn 0.994639 -0.103410 -0.000018
vn 0.994639 -0.103410 -0.000018
vn 0.994639 -0.103410 -0.000018
vn 0.994672 -0.103086 0.000000
vn 0.994672 -0.103086 0.000000
vn 0.994672 -0.103086 0.000000
vn -0.103154 -0.994665 0.000001
vn -0.103154 -0.994665 0.000001
vn -0.103154 -0.994665 0.000001
vn -0.103154 -0.994665 0.000001
vn -0.103154 -0.994665 0.000001
vn -0.103154 -0.994665 0.000001
vn -0.000025 0.000031 -1.000000
vn -0.000025 0.000031 -1.000000
vn -0.000025 0.000031 -1.000000
vn 0.000002 0.000023 -1.000000
vn 0.000002 0.000023 -1.000000
vn 0.000002 0.000023 -1.000000
vn 0.060262 0.998183 0.000003
vn 0.060262 0.998183 0.000003
vn 0.060262 0.998183 0.000003
vn 0.060257 0.998183 -0.000052
vn 0.060257 0.998183 -0.000052
vn 0.060257 0.998183 -0.000052
vn 0.000001 0.000019 -1.000000
vn 0.000001 0.000019 -1.000000
vn 0.000001 0.000019 -1.000000
vn -0.000000 0.000000 -1.000000
vn -0.000000 0.000000 -1.000000
vn -0.000000 0.000000 -1.000000
vn 0.060273 0.998182 0.000000
vn 0.060273 0.998182 0.000000
vn 0.060273 0.998182 0.000000
vn 0.060196 0.998187 0.000000
vn 0.060196 0.998187 0.000000
vn 0.060196 0.998187 0.000000
vn 0.059673 0.998218 0.000000
vn 0.059673 0.998218 0.000000
vn 0.059673 0.998218 0.000000
vn 0.060272 0.998182 0.000000
vn 0.060272 0.998182 0.000000
vn 0.060272 0.998182 0.000000
vn 0.060258 0.998183 0.000003
vn 0.060258 0.998183 0.000003
vn 0.060258 0.998183 0.000003
vn 0.060257 0.998183 -0.000298
vn 0.060257 0.998183 -0.000298
vn 0.060257 0.998183 -0.000298
vn 0.060841 0.998147 0.000000
vn 0.060841 0.998147 0.000000
vn 0.060841 0.998147 0.000000
vn -0.000029 0.000002 -1.000000
vn -0.000029 0.000002 -1.000000
vn -0.000029 0.000002 -1.000000
vn -0.000022 0.000027 -1.000000
vn -0.000022 0.000027 -1.000000
vn -0.000022 0.000027 -1.000000
vn -0.998183 0.060257 0.000014
vn -0.998183 0.060257 0.000014
vn -0.998183 0.060257 0.000014
vn -0.998183 0.060257 0.000014
vn -0.998183 0.060257 0.000014
vn -0.998183 0.060257 0.000014
vn 0.998183 -0.060257 0.000000
vn 0.998183 -0.060257 0.000000
vn 0.998183 -0.060257 0.000000
vn 0.998183 -0.060257 0.000000
vn 0.998183 -0.060257 0.000000
vn 0.998183 -0.060257 0.000000
vn 0.000017 -0.000031 -1.000000
vn 0.000017 -0.000031 -1.000000
vn 0.000017 -0.000031 -1.000000
vn 0.000024 -0.000002 -1.000000
vn 0.000024 -0.000002 -1.000000
vn 0.000024 -0.000002 -1.000000
vn -0.118325 -0.992975 -0.000003
vn -0.118327 -0.992975 -0.000010
vn -0.118322 -0.992975 0.000001
vn -0.118312 -0.992976 -0.000003
vn -0.118325 -0.992975 -0.000003
vn -0.118322 -0.992975 0.000001
vn -0.118309 -0.992977 -0.000001
vn -0.118306 -0.992977 0.000001
vn -0.118434 -0.992962 -0.000003
vn -0.118309 -0.992977 -0.000001
vn -0.118434 -0.992962 -0.000003
vn -0.118319 -0.992976 0.000003
vn -0.118309 -0.992977 -0.000001
vn -0.118319 -0.992976 0.000003
vn -0.118312 -0.992976 -0.000003
vn -0.118309 -0.992977 -0.000001
vn -0.118312 -0.992976 -0.000003
vn -0.118322 -0.992975 0.000001
vn -0.118309 -0.992977 -0.000001
vn -0.118322 -0.992975 0.000001
vn -0.118310 -0.992977 0.000001
vn -0.118340 -0.992973 0.000012
vn -0.118289 -0.992979 0.000007
vn -0.118294 -0.992979 0.000023
vn -0.118340 -0.992973 0.000012
vn -0.118294 -0.992979 0.000023
vn -0.118319 -0.992976 0.000003
vn -0.118340 -0.992973 0.000012
vn -0.118319 -0.992976 0.000003
vn -0.118434 -0.992962 -0.000003
vn -0.118434 -0.992962 -0.000003
vn -0.118567 -0.992946 0.000000
vn -0.118489 -0.992955 0.000004
vn -0.118340 -0.992973 0.000012
vn -0.118434 -0.992962 -0.000003
vn -0.118489 -0.992955 0.000004
vn -0.118304 -0.992977 0.000001
vn -0.118340 -0.992973 0.000012
vn -0.118489 -0.992955 0.000004
vn -0.887499 0.092017 -0.451529
vn -0.887499 0.092017 -0.451529
vn -0.887499 0.092017 -0.451529
vn -0.887410 0.091999 -0.451708
vn -0.887410 0.091999 -0.451708
vn -0.887410 0.091999 -0.451708
vn 0.451778 -0.046752 -0.890904
vn 0.451778 -0.046752 -0.890904
vn 0.451778 -0.046752 -0.890904
vn 0.454119 -0.047140 -0.889693
vn 0.454119 -0.047140 -0.889693
vn 0.454119 -0.047140 -0.889693
vn 0.060272 0.998182 -0.000028
vn 0.060272 0.998182 -0.000028
vn 0.060272 0.998182 -0.000028
vn 0.060268 0.998182 -0.000022
vn 0.060268 0.998182 -0.000022
vn 0.060268 0.998182 -0.000022
vn 0.887425 -0.092069 -0.451664
vn 0.887425 -0.092069 -0.451664
vn 0.887425 -0.092069 -0.451664
vn 0.887403 -0.092069 -0.451707
vn 0.887403 -0.092069 -0.451707
vn 0.887403 -0.092069 -0.451707
vn -0.448967 0.046685 -0.892328
vn -0.448967 0.046685 -0.892328
vn -0.448967 0.046685 -0.892328
vn -0.451722 0.046810 -0.890930
vn -0.451722 0.046810 -0.890930
vn -0.451722 0.046810 -0.890930
vn 0.060266 0.998182 0.000013
vn 0.060266 0.998182 0.000013
vn 0.060266 0.998182 0.000013
vn 0.060245 0.998184 -0.000022
vn 0.060245 0.998184 -0.000022
vn 0.060245 0.998184 -0.000022
vn -0.453846 0.046252 -0.889879
vn -0.453846 0.046252 -0.889879
vn -0.453846 0.046252 -0.889879
vn -0.453398 0.048615 -0.889981
vn -0.453398 0.048615 -0.889981
vn -0.453398 0.048615 -0.889981
vn 0.453475 -0.047623 -0.889996
vn 0.453475 -0.047623 -0.889996
vn 0.453475 -0.047623 -0.889996
vn 0.453474 -0.047628 -0.889996
vn 0.453474 -0.047628 -0.889996
vn 0.453474 -0.047628 -0.889996
vn -0.453535 0.047082 0.889994
vn -0.453535 0.047082 0.889994
vn -0.453535 0.047082 0.889994
vn -0.453523 0.047073 0.890000
vn -0.453523 0.047073 0.890000
vn -0.453523 0.047073 0.890000
vn 0.453525 -0.046992 0.890004
vn 0.453525 -0.046992 0.890004
vn 0.453525 -0.046992 0.890004
vn 0.453511 -0.046999 0.890011
vn 0.453511 -0.046999 0.890011
vn 0.453511 -0.046999 0.890011
vn 0.453523 -0.046993 0.890005
vn 0.453523 -0.046993 0.890005
vn 0.453523 -0.046993 0.890005
# 258 vertex normals

vt 2.083184 1.167456 -0.032274
vt 2.083161 -1.004640 -0.032276
vt 2.083190 1.167457 0.934361
vt 2.083168 -1.004638 0.934360
vt 2.083162 -1.004640 0.000500
vt 2.083184 1.167456 0.000501
vt 2.103134 -1.004639 0.967459
vt 2.103162 1.167456 0.967459
vt 2.103184 1.167456 -0.032274
vt 2.103161 -1.004640 -0.032276
vt 2.103190 1.167456 0.934361
vt 2.103168 -1.004638 0.934360
vt 2.103162 -1.004640 0.000500
vt 2.103184 1.167456 0.000501
vt -0.732590 2.183790 2.088503
vt 2.088565 2.183789 -0.439666
vt 2.132974 2.234608 -0.439503
vt 2.088589 -1.375295 -0.439668
vt -0.732592 -1.375295 2.088620
vt 2.132992 -1.375295 -0.439505
vt 2.132975 2.024935 -0.439504
vt -0.439668 -1.375295 2.088589
vt -0.732590 2.183790 2.088503
vt -0.439668 -1.375295 2.088589
vt -0.439666 2.183789 2.088565
vt 2.132992 -1.375295 -0.439505
vt 2.088565 2.183789 -0.439666
vt 2.088565 2.183789 -0.439666
vt 2.132975 2.024935 -0.439504
vt -1.183226 -1.004637 1.000648
vt 2.083168 -1.004638 0.961903
vt 0.449754 2.004640 0.981909
vt 2.083184 1.167456 -0.032274
vt 2.083161 -1.004640 -0.032276
vt 2.083190 1.167457 0.934361
vt 2.083168 -1.004638 0.934360
vt -1.183227 -1.004637 0.973108
vt -1.183211 1.167457 0.973108
vt 2.083162 -1.004640 0.000500
vt 2.083184 1.167456 0.000501
vt 1.982697 -1.004638 0.963089
vt 1.983888 1.218688 0.963126
vt -1.083174 1.218744 0.999501
vt -1.083190 -1.004637 0.999461
vt -1.203216 1.167458 1.006319
vt -1.203256 -1.004638 1.006319
vt 2.103134 -1.004639 0.967459
vt 2.103162 1.167456 0.967459
vt 2.103184 1.167456 -0.032274
vt 2.103161 -1.004640 -0.032276
vt 2.103190 1.167456 0.934361
vt 2.103168 -1.004638 0.934360
vt -1.203227 -1.004637 0.973108
vt -1.203211 1.167457 0.973108
vt 2.103162 -1.004640 0.000500
vt 2.103184 1.167456 0.000501
vt 1.983554 -1.004640 0.968592
vt 1.984781 1.218688 0.968628
vt -1.082340 1.218744 1.005004
vt -1.082329 -1.004639 1.004964
vt 1.732589 2.328265 -1.088637
vt -0.732590 2.183790 2.088503
vt 2.088565 2.183789 -0.439666
vt -1.088606 2.328294 -0.439666
vt -1.088589 -1.375295 -0.439666
vt 1.732590 -1.375295 -1.088620
vt -1.132992 -1.375295 -0.439503
vt -1.132979 2.375295 -0.439503
vt 2.132974 2.234608 -0.439503
vt 2.088589 -1.375295 -0.439668
vt -0.732592 -1.375295 2.088620
vt 2.132992 -1.375295 -0.439505
vt 2.132975 2.024935 -0.439504
vt 1.439503 -1.375295 -1.132992
vt 1.439503 2.275296 -1.132979
vt -0.732592 2.275297 -1.132964
vt -0.732591 -1.375290 -1.132970
vt -1.088637 -0.732589 2.328265
vt 2.088503 -0.732590 2.183790
vt 2.088565 -0.439666 2.183789
vt -1.088606 -0.439666 2.328294
vt -1.088637 -0.732589 2.328265
vt 2.088565 -0.439666 2.183789
vt 1.439666 -1.375295 -1.088589
vt 1.732589 2.328265 -1.088637
vt 1.439666 2.328294 -1.088606
vt 1.439666 -1.375295 -1.088589
vt -1.132992 -1.375295 -0.439503
vt -1.088606 2.328294 -0.439666
vt -1.088606 2.328294 -0.439666
vt -1.132979 2.375295 -0.439503
vt 2.132974 2.234608 -0.439503
vt -1.088606 2.328294 -0.439666
vt 2.088565 2.183789 -0.439666
vt 2.132974 2.234608 -0.439503
vt -0.439668 -1.375295 2.088589
vt -0.732590 2.183790 2.088503
vt -0.439668 -1.375295 2.088589
vt -0.439666 2.183789 2.088565
vt 2.132992 -1.375295 -0.439505
vt 2.088565 2.183789 -0.439666
vt 2.088565 2.183789 -0.439666
vt 2.132975 2.024935 -0.439504
vt 1.439503 -1.375295 -1.132992
vt -0.732592 2.275297 -1.132964
vt 2.255332 -1.141489 0.367273
vt 2.114644 2.126503 0.356195
vt 2.187290 0.503852 0.571299
vt -1.495254 -1.141490 0.367272
vt -1.495250 2.126516 0.356194
vt -1.495254 0.506546 0.621043
vt 2.427214 0.506527 0.620996
vt -1.495245 2.380656 0.372607
vt 2.354571 2.380674 0.372560
vt 2.354573 2.298627 0.333334
vt -1.495245 2.298601 0.333381
vt -1.495250 -1.393745 0.385401
vt 2.495251 -1.393773 0.385355
vt 2.495254 -1.315999 0.345587
vt -1.495250 -1.315964 0.345633
vt 2.427211 0.503807 0.571251
vt -0.693654 0.503273 0.621043
vt 1.267579 0.503264 0.620996
vt -0.693650 1.440328 0.372606
vt 1.231258 1.440337 0.372560
vt -0.693653 -0.446873 0.385401
vt 1.301598 -0.446887 0.385354
vt -0.693653 -0.232771 0.438499
vt -0.265595 -0.518408 -0.001725
vt 0.483451 0.943715 0.003120
vt -0.483481 2.831066 0.009358
vt -0.641263 2.751150 0.009100
vt -0.562349 2.597165 0.008590
vt -2.724554 2.597105 0.008574
vt -2.724725 2.532249 0.008361
vt -3.017636 2.532291 0.008359
vt -3.017623 -0.518427 -0.001748
vt -3.017622 -0.644932 -0.002162
vt -2.724711 -0.644906 -0.002160
vt -2.724531 -0.689265 -0.002301
vt -0.552434 -0.690440 -0.002288
vt -0.641222 -0.863718 -0.002822
vt -0.483449 -0.943653 -0.003067
vt -1.183226 -1.004637 1.000648
vt -1.183227 -1.004637 0.973108
vt -1.183211 1.167457 0.973108
vt -1.203216 1.167458 1.006319
vt -1.203256 -1.004638 1.006319
vt -1.203227 -1.004637 0.973108
vt -1.203211 1.167457 0.973108
vt 1.732589 2.328265 -1.088637
vt -1.088589 -1.375295 -0.439666
vt 1.732590 -1.375295 -1.088620
vt -1.132992 -1.375295 -0.439503
vt 1.439503 -1.375295 -1.132992
vt 1.439503 2.275296 -1.132979
vt -0.732592 2.275297 -1.132964
vt -0.732591 -1.375290 -1.132970
vt 1.439666 -1.375295 -1.088589
vt 1.732589 2.328265 -1.088637
vt 1.439666 2.328294 -1.088606
vt 1.439666 -1.375295 -1.088589
vt -1.132992 -1.375295 -0.439503
vt -1.088606 2.328294 -0.439666
vt -1.088606 2.328294 -0.439666
vt -1.132979 2.375295 -0.439503
vt 1.439503 -1.375295 -1.132992
vt -0.732592 2.275297 -1.132964
vt -1.183226 -1.004637 1.000648
vt 2.083168 -1.004638 0.961903
vt 0.449754 2.004640 0.981909
vt 1.982697 -1.004638 0.963089
vt 1.983888 1.218688 0.963126
vt -1.083174 1.218744 0.999501
vt -1.083190 -1.004637 0.999461
vt -1.203216 1.167458 1.006319
vt -1.203256 -1.004638 1.006319
vt 2.103134 -1.004639 0.967459
vt 2.103162 1.167456 0.967459
vt 1.983554 -1.004640 0.968592
vt 1.984781 1.218688 0.968628
vt -1.082340 1.218744 1.005004
vt -1.082329 -1.004639 1.004964
vt -1.088606 2.328294 -0.439666
vt -1.132979 2.375295 -0.439503
vt -1.088637 -0.732589 2.328265
vt 2.088503 -0.732590 2.183790
vt 2.088565 -0.439666 2.183789
vt -1.088606 -0.439666 2.328294
vt -1.088637 -0.732589 2.328265
vt 2.088565 -0.439666 2.183789
vt 2.132974 2.234608 -0.439503
vt -1.088606 2.328294 -0.439666
vt 2.088565 2.183789 -0.439666
vt 2.132974 2.234608 -0.439503
vt -0.265595 -0.518408 -0.001725
vt 0.483451 0.943715 0.003120
vt -0.483481 2.831066 0.009358
vt -0.641263 2.751150 0.009100
vt -0.562349 2.597165 0.008590
vt -2.724554 2.597105 0.008574
vt -2.724725 2.532249 0.008361
vt -3.017636 2.532291 0.008359
vt -3.017623 -0.518427 -0.001748
vt -3.017622 -0.644932 -0.002162
vt -2.724711 -0.644906 -0.002160
vt -2.724531 -0.689265 -0.002301
vt -0.552434 -0.690440 -0.002288
vt -0.641222 -0.863718 -0.002822
vt -0.483449 -0.943653 -0.003067
vt 2.255332 -1.141489 0.367273
vt 2.114644 2.126503 0.356195
vt 2.187290 0.503852 0.571299
vt -1.495254 -1.141490 0.367272
vt -1.495250 2.126516 0.356194
vt 2.427214 0.506527 0.620996
vt -1.495245 2.380656 0.372607
vt 2.354571 2.380674 0.372560
vt 2.354573 2.298627 0.333334
vt -1.495245 2.298601 0.333381
vt -1.495250 -1.393745 0.385401
vt 2.495251 -1.393773 0.385355
vt 2.495254 -1.315999 0.345587
vt -1.495250 -1.315964 0.345633
vt 2.427211 0.503807 0.571251
vt -0.693654 0.503273 0.621043
vt 1.267579 0.503264 0.620996
vt -0.693650 1.440328 0.372606
vt 1.231258 1.440337 0.372560
vt -0.693653 -0.446873 0.385401
vt 1.301598 -0.446887 0.385354
vt -0.693653 -0.232771 0.438499
# 232 texture coords

g Aia_6_3
usemtl aia6_3_sokkel
s off
f -54/-211/-258 -57/-210/-257 -53/-214/-256 
f -57/-218/-255 -54/-209/-254 -56/-208/-253 
f -52/-207/-252 -56/-206/-251 -54/-215/-250 
f -56/-205/-249 -52/-213/-248 -51/-204/-247 
f -56/-217/-246 -51/-212/-245 -55/-216/-244 
usemtl aia6_3_valge
f -39/-219/-243 -40/-220/-242 -43/-223/-241 
f -43/-223/-240 -44/-224/-239 -39/-219/-238 
f -46/-226/-237 -41/-221/-236 -42/-222/-235 
f -42/-222/-234 -45/-225/-233 -46/-226/-232 
usemtl aia6_3_laudis
f -49/-230/-231 -51/-229/-230 -48/-228/-229 
f -48/-228/-228 -47/-227/-227 -49/-230/-226 
usemtl aia6_3_valge
f -47/-227/-225 -48/-228/-224 -40/-220/-223 
f -40/-220/-222 -39/-219/-221 -47/-227/-220 
f -48/-228/-219 -52/-231/-218 -43/-223/-217 
f -43/-223/-216 -40/-220/-215 -48/-228/-214 
f -52/-231/-213 -50/-232/-212 -44/-224/-211 
f -44/-224/-210 -43/-223/-209 -52/-231/-208 
f -55/-202/-207 -51/-197/-206 -41/-181/-205 
f -41/-181/-204 -46/-186/-203 -55/-202/-202 
f -51/-197/-201 -49/-198/-200 -42/-182/-199 
f -42/-182/-198 -41/-181/-197 -51/-197/-196 
usemtl aia6_3_sokkel
f -35/-74/-195 -34/-80/-194 -36/-73/-193 
f -36/-82/-192 -37/-72/-191 -35/-71/-190 
f -33/-70/-189 -35/-81/-188 -37/-69/-187 
f -37/-68/-186 -38/-67/-185 -33/-79/-184 
f -33/-66/-183 -31/-77/-182 -30/-65/-181 
f -30/-76/-180 -32/-75/-179 -33/-78/-178 
usemtl aia6_3_valge
f -28/-85/-177 -29/-86/-176 -26/-83/-175 
f -26/-83/-174 -27/-84/-173 -28/-85/-172 
f -30/-87/-171 -31/-88/-170 -27/-84/-169 
f -27/-84/-168 -26/-83/-167 -30/-87/-166 
f -31/-88/-165 -38/-89/-164 -28/-85/-163 
f -28/-85/-162 -27/-84/-161 -31/-88/-160 
usemtl aia6_3_sokkel
f -36/-47/-159 -57/-46/-158 -56/-45/-157 
f -37/-44/-156 -36/-43/-155 -56/-42/-154 
f -55/-41/-153 -37/-40/-152 -56/-39/-151 
f -37/-49/-150 -55/-38/-149 -38/-48/-148 
usemtl aia6_3_valge
f -46/-55/-147 -45/-54/-146 -18/-52/-145 
f -17/-51/-144 -28/-56/-143 -16/-50/-142 
usemtl aia6_3_laudis
f -23/-60/-141 -25/-62/-140 -24/-61/-139 
usemtl aia6_3_valge
f -18/-52/-138 -19/-53/-137 -46/-55/-136 
f -28/-56/-135 -17/-51/-134 -20/-57/-133 
usemtl aia6_3_laudis
f -25/-62/-132 -21/-58/-131 -24/-61/-130 
f -22/-59/-129 -21/-58/-128 -25/-62/-127 
usemtl aia6_3_valge
f -38/-64/-126 -21/-58/-125 -16/-50/-124 
f -16/-50/-123 -28/-56/-122 -38/-64/-121 
f -21/-58/-120 -22/-59/-119 -17/-51/-118 
f -17/-51/-117 -16/-50/-116 -21/-58/-115 
f -23/-60/-114 -24/-61/-113 -19/-53/-112 
f -19/-53/-111 -18/-52/-110 -23/-60/-109 
f -24/-61/-108 -55/-63/-107 -46/-55/-106 
f -46/-55/-105 -19/-53/-104 -24/-61/-103 
usemtl aia6_pruun
s 1
f -13/-35/-102 -12/-34/-101 -44/-33/-100 
f -14/-36/-99 -13/-35/-98 -44/-33/-97 
f -54/-31/-96 -53/-30/-95 -11/-29/-94 
f -54/-31/-93 -11/-29/-92 -15/-37/-91 
f -54/-31/-90 -15/-37/-89 -14/-36/-88 
f -54/-31/-87 -14/-36/-86 -44/-33/-85 
f -54/-31/-84 -44/-33/-83 -43/-32/-82 
usemtl aia6_3_sokkel
f -32/-25/-81 -10/-24/-80 -9/-23/-79 
f -32/-25/-78 -9/-23/-77 -15/-37/-76 
f -32/-25/-75 -15/-37/-74 -11/-29/-73 
f -11/-29/-72 -34/-28/-71 -35/-27/-70 
f -32/-25/-69 -11/-29/-68 -35/-27/-67 
f -33/-26/-66 -32/-25/-65 -35/-27/-64 
usemtl aia6_3_valge
s off
f -4/-14/-63 -12/-13/-62 -13/-16/-61 
f -13/-16/-60 -5/-15/-59 -4/-14/-58 
usemtl aia6_pruun
f -7/-21/-57 -50/-18/-56 -12/-13/-55 
f -12/-13/-54 -4/-14/-53 -7/-21/-52 
usemtl aia6_3_valge
f -6/-17/-51 -4/-14/-50 -5/-15/-49 
f -4/-14/-48 -6/-17/-47 -1/-8/-46 
f -2/-10/-45 -9/-12/-44 -10/-9/-43 
f -9/-12/-42 -2/-10/-41 -3/-11/-40 
usemtl aia6_pruun
f -8/-22/-39 -10/-9/-38 -32/-19/-37 
f -10/-9/-36 -8/-22/-35 -2/-10/-34 
usemtl aia6_3_valge
f -6/-17/-33 -3/-11/-32 -2/-10/-31 
f -2/-10/-30 -1/-8/-29 -6/-17/-28 
usemtl aia6_pruun
f -8/-22/-27 -25/-20/-26 -1/-8/-25 
f -1/-8/-24 -2/-10/-23 -8/-22/-22 
f -25/-20/-21 -7/-21/-20 -4/-14/-19 
f -4/-14/-18 -1/-8/-17 -25/-20/-16 
usemtl aia6_3_KATUS
f -13/-5/-15 -14/-7/-14 -6/-6/-13 
f -6/-6/-12 -5/-4/-11 -13/-5/-10 
f -9/-3/-9 -6/-6/-8 -15/-1/-7 
f -6/-6/-6 -9/-3/-5 -3/-2/-4 
f -15/-1/-3 -6/-6/-2 -14/-7/-1 
# 86 faces

