# 3ds Max Wavefront OBJ Exporter v0.97b - (c)2007 guruware
# File Created: 02.03.2012 12:53:42

mtllib Aia_17a-origo.mtl

#
# object Aia_17a
#

v  542590.1046 6589366.3785 9.3694
v  542590.1046 6589366.3785 10.4117
v  542591.3865 6589355.0844 10.4117
v  542590.1046 6589366.3785 6.5866
v  542591.3865 6589355.0844 6.5866
v  542590.1542 6589366.3842 11.0607
v  542591.4362 6589355.09 11.0607
v  542591.4362 6589355.09 10.8823
v  542590.1542 6589366.3842 10.8823
v  542590.1046 6589366.3785 10.8823
v  542591.3865 6589355.0844 10.8823
v  542591.3865 6589355.0844 10.6470
v  542590.1046 6589366.3785 10.6470
v  542590.0961 6589366.4581 10.6470
v  542590.0961 6589366.4581 10.5294
v  542591.3948 6589355.0048 10.6470
v  542591.3948 6589355.0048 10.5294
v  542590.0874 6589366.5376 10.6470
v  542590.0757 6589366.6367 10.8823
v  542590.0874 6589366.5376 10.5294
v  542591.4029 6589354.9252 10.6470
v  542591.4029 6589354.9252 10.5294
v  542591.4156 6589354.8278 10.8823
v  542591.4125 6589354.8257 10.6470
v  542590.0761 6589366.637 10.6470
v  542590.1046 6589366.3785 11.0607
v  542591.3865 6589355.0844 11.0607
v  542590.9405 6589355.0377 11.0607
v  542590.9405 6589355.0377 10.8823
v  542589.6627 6589366.3318 10.8823
v  542589.6627 6589366.3318 11.0607
v  542585.2757 6589354.2594 10.8823
v  542584.0106 6589365.9186 10.8823
v  542585.4392 6589354.4615 6.5866
v  542585.4392 6589354.4615 10.4117
v  542584.2131 6589365.7556 10.4117
v  542584.2131 6589365.7556 9.3694
v  542584.2131 6589365.7556 6.5866
v  542585.3386 6589354.3371 10.6470
v  542585.3387 6589354.3371 10.5294
v  542584.0885 6589365.8559 10.6470
v  542584.0885 6589365.8559 10.5294
v  542584.1509 6589365.8058 10.5294
v  542585.389 6589354.3992 10.5294
v  542585.2755 6589354.2595 10.6470
v  542584.0104 6589365.9184 10.6470
# 46 vertices

vn 0.9936 0.1128 -0.0000
vn 0.9936 0.1128 0.0000
vn 0.9936 0.1128 -0.0001
vn 0.9945 0.1051 -0.0000
vn 0.9945 0.1051 0.0000
vn 0.9946 0.1042 0.0000
vn 0.9940 0.1091 0.0013
vn 0.9938 0.1111 0.0027
vn 0.9940 0.1091 -0.0000
vn 0.9950 0.1003 0.0000
vn 0.9936 0.1129 -0.0029
vn 0.9949 0.1003 -0.0125
vn 0.9952 0.0965 -0.0141
vn 0.9936 0.1129 0.0019
vn 0.0001 0.0000 1.0000
vn -0.0000 -0.0000 1.0000
vn 0.1128 -0.9936 0.0001
vn 0.0000 0.0000 -1.0000
vn -0.0001 -0.0000 -1.0000
vn -0.1128 0.9936 0.0000
vn 0.1042 -0.9946 0.0000
vn 0.1041 -0.9946 0.0001
vn -0.1052 0.9945 0.0000
vn -0.1051 0.9945 -0.0000
vn -0.9937 -0.1124 0.0000
vn 0.0000 -0.0000 1.0000
vn 0.0000 -0.0001 1.0000
vn 0.1042 -0.9946 -0.0000
vn -0.9942 -0.1079 0.0000
vn -0.9942 -0.1079 -0.0000
vn 0.0965 -0.9953 0.0002
vn 0.0965 -0.9953 0.0000
vn -0.1129 0.9936 -0.0000
vn -0.1129 0.9936 -0.0001
vn -0.9942 -0.1079 0.0001
vn -0.9942 -0.1079 -0.0002
vn -0.0948 0.8965 -0.4329
vn -0.0902 0.8220 -0.5624
vn -0.8956 -0.0972 -0.4340
vn -0.8962 -0.0973 -0.4329
vn 0.0861 -0.8224 -0.5624
vn 0.0903 -0.8957 -0.4354
vn 0.0000 -0.0000 -1.0000
vn -0.0000 0.0000 -1.0000
vn 0.0000 0.0000 1.0000
vn 0.0922 -0.9957 -0.0007
vn 0.0919 -0.9957 0.0075
vn -0.1176 0.9931 0.0008
vn -0.1176 0.9931 -0.0007
vn -0.9942 -0.1079 0.0007
vn -0.1051 0.9945 0.0000
# 51 vertex normals

vt 0.9776 0.6219 0.0650
vt 0.9776 0.8546 0.0650
vt 0.0223 0.8546 0.0628
vt 0.9776 0.0005 0.0650
vt 0.0223 0.0005 0.0628
vt 0.9776 0.9995 0.9995
vt 0.0223 0.9995 0.9972
vt 0.0223 0.9596 0.9970
vt 0.9776 0.9596 0.9995
vt 0.9776 0.9596 0.0651
vt 0.0223 0.9596 0.0626
vt 0.0223 0.9071 0.0628
vt 0.9776 0.9071 0.0650
vt 0.9844 0.9071 0.0765
vt 0.9844 0.8809 0.0765
vt 0.0156 0.9071 0.0498
vt 0.0156 0.8809 0.0498
vt 0.9911 0.9071 0.0822
vt 0.9995 0.9597 0.0734
vt 0.9911 0.8809 0.0822
vt 0.0089 0.9071 0.0311
vt 0.0089 0.8809 0.0311
vt 0.0006 0.9596 0.0629
vt 0.0005 0.9071 0.0005
vt 0.9995 0.9071 0.0820
vt 0.9776 0.9995 0.0650
vt 0.0223 0.9995 0.0628
vt 0.0227 0.9995 -8.3183
vt 0.0227 0.9596 -8.3183
vt 0.9779 0.9596 -8.2383
vt 0.9779 0.9995 -8.2383
vt -5.3146 3.5827 -0.0156
vt -5.4424 -2.5822 0.4453
vt -5.1802 -2.1337 0.4375
vt 6.4129 3.5247 0.0234
vt 6.1860 -2.1380 0.4375
vt 6.4424 -2.5827 0.9844
vt 6.1826 -2.5823 0.4688
vt -5.1841 -2.5821 0.4688
vt -1.5302 3.3976 6.1314
vt -1.5302 -2.5820 6.1833
vt 2.2949 -2.5820 6.1833
vt 2.2949 3.3976 6.1314
vt 6.1314 -1.5302 3.3976
vt 6.1314 2.2949 3.3976
vt -5.2289 2.2949 3.3419
vt -5.2289 1.2526 3.3419
vt -5.2289 -1.5302 3.3419
vt 2.5302 -2.5803 6.3433
vt 2.5302 3.5116 6.2437
vt 2.4125 3.5116 6.2437
vt 2.4125 -2.5803 6.3433
vt -1.5302 3.4544 -5.3427
vt -1.5302 -2.5831 -5.3433
vt -1.4125 -2.5831 -5.3433
vt -1.4125 3.4545 -5.3426
vt 6.2437 2.5302 3.5116
vt -5.3427 2.5302 3.4544
vt -5.3426 2.4125 3.4545
vt 6.2437 2.4125 3.5116
vt -1.2949 -2.5821 -5.1833
vt -1.2949 3.3419 -5.2289
vt -1.4125 3.3981 -5.2858
vt -1.4125 -2.5828 -5.2633
vt 6.1876 2.4125 3.4545
vt -5.2858 2.4125 3.3981
vt 2.4125 -2.5813 6.2633
vt 2.4125 3.4545 6.1876
vt -5.2633 -2.5828 2.4125
vt -5.2858 3.3981 2.4125
vt -5.3426 3.4545 2.4125
vt -5.3433 -2.5831 2.4125
vt 6.1876 3.4545 2.4125
vt 6.2437 3.5116 2.4125
vt 6.2633 -2.5813 2.4125
vt 6.3433 -2.5803 2.4125
vt 6.2437 3.5116 2.5302
vt 6.3433 -2.5803 2.5302
vt 6.4433 -2.5786 2.5302
vt 6.3136 3.5831 2.5302
vt -5.3433 -2.5831 2.5302
vt -5.3427 3.4544 2.5302
vt -5.4135 3.5250 2.5302
vt -5.4433 -2.5830 2.5302
vt -10.8667 -5.6640 0.9137
vt 11.8666 -5.6642 0.9137
vt 11.8735 -4.7756 0.9137
vt -10.8589 -4.7671 0.9137
vt 0.5568 -5.6640 12.3832
vt 0.5568 6.6657 12.1276
vt 0.0863 6.6660 12.1273
vt 0.0863 -5.6573 12.3866
vt 0.4432 6.5497 -11.3273
vt 0.4432 -5.6651 -11.3862
vt 0.9137 -5.6660 -11.3866
vt 0.9137 6.5500 -11.3270
vt 12.1276 0.5568 6.6657
vt -11.3273 0.5568 6.5497
vt -11.3270 0.0863 6.5500
vt 12.1273 0.0863 6.6660
# 100 texture coords

g Aia_17a
usemtl 17a_F1
s 16
f 1/1/1 2/2/2 3/3/2 
f 4/4/2 1/1/1 3/3/2 
f 5/5/2 4/4/2 3/3/2 
s off
f 6/6/3 7/7/3 8/8/3 
f 8/8/2 9/9/2 6/6/2 
f 10/10/2 11/11/2 12/12/2 
f 12/12/1 13/13/1 10/10/1 
f 13/13/1 12/12/1 3/3/1 
f 3/3/2 2/2/2 13/13/2 
f 10/10/4 13/13/4 14/14/4 
f 13/13/5 2/2/5 15/15/5 
f 15/15/5 14/14/5 13/13/5 
f 3/3/6 12/12/6 16/16/6 
f 16/16/6 17/17/6 3/3/6 
f 12/12/6 11/11/6 16/16/6 
f 10/10/7 14/14/7 18/18/7 
f 18/18/8 19/19/8 10/10/8 
f 14/14/9 15/15/9 20/20/9 
f 20/20/9 18/18/9 14/14/9 
f 17/17/10 16/16/10 21/21/10 
f 21/21/10 22/22/10 17/17/10 
f 16/16/11 11/11/11 23/23/11 
f 23/23/12 21/21/12 16/16/12 
f 21/21/13 23/23/13 24/24/13 
f 19/19/14 18/18/14 25/25/14 
f 26/26/15 27/27/15 7/7/15 
f 7/7/16 6/6/16 26/26/16 
f 27/27/17 11/11/17 8/8/17 
f 8/8/17 7/7/17 27/27/17 
f 11/11/18 10/10/18 9/9/18 
f 9/9/19 8/8/19 11/11/19 
f 10/10/20 26/26/20 6/6/20 
f 6/6/20 9/9/20 10/10/20 
f 27/27/21 28/28/21 29/29/21 
f 29/29/22 11/11/22 27/27/22 
f 26/26/23 10/10/23 30/30/23 
f 30/30/24 31/31/24 26/26/24 
s 2
f 29/29/25 28/28/25 31/31/25 
f 31/31/25 30/30/25 29/29/25 
usemtl Ruberoid
s 1
f 32/32/16 23/33/26 29/34/26 
f 33/35/26 32/32/16 29/34/26 
f 33/35/26 29/34/26 30/36/27 
f 33/35/26 30/36/27 19/37/27 
f 30/36/27 10/38/27 19/37/27 
f 23/33/26 11/39/26 29/34/26 
usemtl krohv_valge
s 8
f 34/40/28 5/41/28 3/42/28 
f 3/42/28 35/43/28 34/40/28 
s 64
f 34/44/29 35/45/29 36/46/29 
f 34/44/29 36/46/29 37/47/29 
f 38/48/30 34/44/29 37/47/29 
s off
f 21/49/31 39/50/31 40/51/31 
f 40/51/32 22/52/32 21/49/32 
f 41/53/33 18/54/33 20/55/33 
f 20/55/34 42/56/34 41/53/34 
f 39/57/35 41/58/35 42/59/35 
f 42/59/36 40/60/36 39/57/36 
f 2/61/37 36/62/37 43/63/37 
f 43/63/38 15/64/38 2/61/38 
f 36/46/39 35/45/39 44/65/39 
f 44/65/40 43/66/40 36/46/40 
f 35/43/41 3/42/41 17/67/41 
f 17/67/42 44/68/42 35/43/42 
f 15/69/18 43/70/18 42/71/18 
f 42/71/43 20/72/43 15/69/43 
f 43/70/18 44/73/18 40/74/18 
f 40/74/18 42/71/18 43/70/18 
f 44/73/18 17/75/18 22/76/18 
f 22/76/43 40/74/43 44/73/43 
f 39/77/43 21/78/43 24/79/43 
f 24/79/44 45/80/44 39/77/44 
f 18/81/18 41/82/18 46/83/18 
f 46/83/44 25/84/44 18/81/44 
f 41/82/18 39/77/18 45/80/18 
f 45/80/18 46/83/18 41/82/18 
usemtl plekk_hall
s 4
f 27/85/45 26/86/45 31/87/45 
f 31/87/45 28/88/45 27/85/45 
s off
f 23/89/46 32/90/46 45/91/46 
f 45/91/47 24/92/47 23/89/47 
f 33/93/48 19/94/48 25/95/48 
f 25/95/49 46/96/49 33/93/49 
f 32/97/50 33/98/50 46/99/50 
f 46/99/50 45/100/50 32/97/50 
usemtl krohv_valge
s 1
f 1/53/24 37/50/24 36/33/24 
f 36/33/24 2/36/51 1/53/24 
# 84 faces

#
# object xxx
#

v  542584.2131 6589365.7556 9.3694
v  542590.1046 6589366.3785 9.3694
v  542590.1046 6589366.3785 6.5866
v  542584.2131 6589365.7556 6.5866
# 4 vertices

vn -0.1051 0.9945 -0.0000
vn -0.1051 0.9945 0.0000
# 2 vertex normals

vt 2.5302 3.5116 6.2437
vt -1.5302 3.4544 -5.3427
vt 0.9776 0.0005 0.0650
vt -5.1802 -2.1337 0.4375
# 4 texture coords

g xxx
usemtl krohv_valge
s 2
f 47/101/52 48/102/52 49/103/52 
f 49/103/52 50/104/53 47/101/52 
# 2 faces

