# 3ds Max Wavefront OBJ Exporter v0.97b - (c)2007 guruware
# File Created: 24.06.2011 16:25:41

mtllib Falgi_tee_4_2-origo.mtl

#
# object Falgi_tee_4_2
#

v  541689.317993 6588828.596817 22.727137
v  541689.351379 6588828.447403 22.726908
v  541689.274292 6588828.783203 23.037352
v  541688.595581 6588828.657104 23.040421
v  541688.801392 6588827.849899 23.040281
v  541689.45105 6588827.992081 23.039000
v  541688.889954 6588828.724411 22.633398
v  541689.275635 6588828.786438 22.643354
v  541689.452454 6588827.995316 22.550488
v  541688.886597 6588827.871475 22.555965
v  541688.802795 6588827.853134 22.521353
v  541688.596924 6588828.660339 22.512381
v  541691.191223 6588831.118103 16.645029
v  541691.191223 6588831.118103 18.988176
v  541691.621826 6588831.789902 18.988176
v  541691.621826 6588831.789902 19.092104
v  541691.255127 6588831.35498 21.747223
v  541686.535461 6588830.00972 16.645029
v  541686.535461 6588830.00972 18.988176
v  541685.855347 6588830.427017 18.988176
v  541685.855347 6588830.427017 19.092104
v  541686.291138 6588830.252151 21.747223
v  541687.777893 6588830.305496 16.645029
v  541687.773315 6588830.304413 18.836739
v  541688.663635 6588830.516373 18.837090
v  541688.658997 6588830.515259 16.645029
v  541688.423218 6588830.880737 20.227831
v  541688.442383 6588830.767456 21.147448
v  541689.265503 6588830.960251 21.147425
v  541689.245544 6588831.077576 20.227808
v  541688.533936 6588830.439377 20.229908
v  541688.553101 6588830.437393 21.149525
v  541689.376221 6588830.630188 21.149502
v  541689.356323 6588830.636215 20.229885
v  541687.795166 6588830.232986 16.645029
v  541687.790588 6588830.231903 18.836739
v  541688.680908 6588830.443863 18.837090
v  541688.67627 6588830.442749 16.645029
v  541692.067261 6588826.731415 16.645031
v  541692.067261 6588826.731415 18.988178
v  541692.738403 6588826.299866 18.988178
v  541692.738403 6588826.299866 19.092106
v  541692.315186 6588826.525589 21.747223
v  541691.394531 6588830.100143 17.351154
v  541691.391907 6588830.11322 18.777073
v  541691.983521 6588827.150513 17.357887
v  541691.983521 6588827.150482 18.783804
v  541690.470337 6588825.890762 20.273800
v  541690.459167 6588825.993759 21.126038
v  541689.665405 6588825.803711 21.132349
v  541689.674561 6588825.712585 20.273790
v  541690.380493 6588826.376328 20.269476
v  541690.369263 6588826.38092 21.121714
v  541689.5755 6588826.190887 21.128025
v  541689.584656 6588826.198151 20.269466
v  541691.697998 6588826.644638 17.515621
v  541691.702393 6588826.645676 18.820341
v  541690.195679 6588826.29155 18.824871
v  541690.195679 6588826.29155 17.515631
v  541687.579346 6588825.676651 16.645031
v  541687.579346 6588825.676651 18.988178
v  541687.161072 6588824.997131 18.988178
v  541687.161072 6588824.997131 19.092106
v  541687.408813 6588825.323425 21.747223
# 64 vertices

vn 0.975449 0.220168 0.005132
vn 0.975449 0.220168 0.005132
vn 0.975449 0.220168 0.005132
vn -0.158970 0.987254 0.007564
vn -0.158970 0.987254 0.007564
vn -0.158970 0.987254 0.007564
vn -0.215744 0.976435 0.005433
vn -0.215744 0.976435 0.005433
vn -0.215744 0.976435 0.005433
vn -0.182447 0.982741 0.030558
vn -0.182447 0.982741 0.030558
vn -0.182447 0.982741 0.030558
vn -0.968963 -0.247173 -0.004162
vn -0.968963 -0.247173 -0.004162
vn -0.968963 -0.247173 -0.004162
vn -0.968992 -0.247060 -0.003978
vn -0.968992 -0.247060 -0.003978
vn -0.968992 -0.247060 -0.003978
vn 0.215968 -0.976385 -0.005502
vn 0.215968 -0.976385 -0.005502
vn 0.215968 -0.976385 -0.005502
vn 0.213737 -0.976874 -0.005855
vn 0.213737 -0.976874 -0.005855
vn 0.213737 -0.976874 -0.005855
vn 0.213781 -0.976864 -0.005908
vn 0.213781 -0.976864 -0.005908
vn 0.213781 -0.976864 -0.005908
vn 0.976750 0.214100 0.010953
vn 0.976750 0.214100 0.010953
vn 0.976750 0.214100 0.010953
vn 0.975927 0.218057 0.004248
vn 0.975927 0.218057 0.004248
vn 0.975927 0.218057 0.004248
vn 0.975915 0.218056 0.006467
vn 0.975915 0.218056 0.006467
vn 0.975915 0.218056 0.006467
vn -0.231595 0.972812 -0.000004
vn -0.231595 0.972812 -0.000004
vn -0.231595 0.972812 -0.000004
vn -0.231599 0.972811 -0.000003
vn -0.231599 0.972811 -0.000003
vn -0.231599 0.972811 -0.000003
vn 0.000000 0.000000 -1.000000
vn 0.000000 0.000000 -1.000000
vn 0.000000 0.000000 -1.000000
vn 0.000000 0.000000 -1.000000
vn 0.000000 0.000000 -1.000000
vn 0.000000 0.000000 -1.000000
vn -0.230009 0.973188 0.000000
vn -0.230009 0.973188 0.000000
vn -0.230009 0.973188 0.000000
vn -0.230009 0.973188 0.000000
vn -0.230009 0.973188 0.000000
vn -0.230009 0.973188 0.000000
vn -0.085873 0.386562 0.918257
vn -0.085873 0.386562 0.918257
vn -0.085873 0.386562 0.918257
vn -0.085866 0.386545 0.918265
vn -0.085866 0.386545 0.918265
vn -0.085866 0.386545 0.918265
vn -0.085879 0.386553 0.918260
vn -0.085879 0.386553 0.918260
vn -0.085879 0.386553 0.918260
vn -0.231596 0.972812 -0.000004
vn -0.231596 0.972812 -0.000004
vn -0.231596 0.972812 -0.000004
vn -0.231593 0.972813 0.000000
vn -0.231593 0.972813 0.000000
vn -0.231593 0.972813 0.000000
vn -0.231599 0.972811 0.000107
vn -0.231599 0.972811 0.000107
vn -0.231599 0.972811 0.000107
vn -0.231595 0.972812 0.000005
vn -0.231595 0.972812 0.000005
vn -0.231595 0.972812 0.000005
vn -0.231595 0.972812 0.000000
vn -0.231595 0.972812 0.000000
vn -0.231595 0.972812 0.000000
vn -0.231590 0.972813 -0.000003
vn -0.231590 0.972813 -0.000003
vn -0.231590 0.972813 -0.000003
vn -0.232760 0.972467 0.011410
vn -0.232760 0.972467 0.011410
vn -0.232760 0.972467 0.011410
vn -0.228047 0.973626 0.006853
vn -0.228047 0.973626 0.006853
vn -0.228047 0.973626 0.006853
vn -0.215587 0.971416 0.099362
vn -0.215587 0.971416 0.099362
vn -0.215587 0.971416 0.099362
vn -0.228108 0.965174 0.128088
vn -0.228108 0.965174 0.128088
vn -0.228108 0.965174 0.128088
vn -0.229559 0.965055 0.126376
vn -0.229559 0.965055 0.126376
vn -0.229559 0.965055 0.126376
vn -0.226538 0.967196 0.114945
vn -0.226538 0.967196 0.114945
vn -0.226538 0.967196 0.114945
vn -0.216478 0.974398 0.060714
vn -0.216478 0.974398 0.060714
vn -0.216478 0.974398 0.060714
vn -0.198351 0.972268 0.123901
vn -0.198351 0.972268 0.123901
vn -0.198351 0.972268 0.123901
vn -0.230608 0.963422 0.136519
vn -0.230608 0.963422 0.136519
vn -0.230608 0.963422 0.136519
vn -0.228115 0.965174 0.128073
vn -0.228115 0.965174 0.128073
vn -0.228115 0.965174 0.128073
vn 0.947865 0.318078 0.019428
vn 0.947865 0.318078 0.019428
vn 0.947865 0.318078 0.019428
vn 0.969781 0.243182 -0.019686
vn 0.969781 0.243182 -0.019686
vn 0.969781 0.243182 -0.019686
vn 0.001341 -0.005843 -0.999982
vn 0.001341 -0.005843 -0.999982
vn 0.001341 -0.005843 -0.999982
vn 0.001341 -0.005843 -0.999982
vn 0.001341 -0.005843 -0.999982
vn 0.001341 -0.005843 -0.999982
vn -0.969855 -0.243475 -0.010014
vn -0.969855 -0.243475 -0.010014
vn -0.969855 -0.243475 -0.010014
vn -0.947955 -0.317870 0.018427
vn -0.947955 -0.317870 0.018427
vn -0.947955 -0.317870 0.018427
vn -0.001036 0.004446 0.999990
vn -0.001036 0.004446 0.999990
vn -0.001036 0.004446 0.999990
vn -0.001036 0.004446 0.999990
vn -0.001036 0.004446 0.999990
vn -0.001036 0.004446 0.999990
vn 0.972778 0.231731 0.002146
vn 0.972778 0.231731 0.002146
vn 0.972778 0.231731 0.002146
vn 0.972778 0.231731 0.002146
vn 0.972778 0.231731 0.002146
vn 0.972778 0.231731 0.002146
vn 0.000373 0.000089 -1.000000
vn 0.000373 0.000089 -1.000000
vn 0.000373 0.000089 -1.000000
vn 0.000373 0.000089 -1.000000
vn 0.000373 0.000089 -1.000000
vn 0.000373 0.000089 -1.000000
vn -0.972777 -0.231731 0.002176
vn -0.972777 -0.231731 0.002176
vn -0.972777 -0.231731 0.002176
vn -0.972777 -0.231731 0.002176
vn -0.972777 -0.231731 0.002176
vn -0.972777 -0.231731 0.002176
vn 0.000000 0.000000 1.000000
vn 0.000000 0.000000 1.000000
vn 0.000000 0.000000 1.000000
vn 0.000000 0.000000 1.000000
vn 0.000000 0.000000 1.000000
vn 0.000000 0.000000 1.000000
vn 0.980640 0.195819 0.000109
vn 0.980640 0.195819 0.000109
vn 0.980640 0.195819 0.000109
vn 0.980636 0.195837 -0.000244
vn 0.980636 0.195837 -0.000244
vn 0.980636 0.195837 -0.000244
vn 0.980614 0.195951 0.000000
vn 0.980614 0.195951 0.000000
vn 0.980614 0.195951 0.000000
vn 0.980618 0.195931 0.000004
vn 0.980618 0.195931 0.000004
vn 0.980618 0.195931 0.000004
vn 0.980636 0.195837 -0.000025
vn 0.980636 0.195837 -0.000025
vn 0.980636 0.195837 -0.000025
vn 0.980640 0.195817 0.000074
vn 0.980640 0.195817 0.000074
vn 0.980640 0.195817 0.000074
vn -0.000000 -0.000000 -1.000000
vn -0.000000 -0.000000 -1.000000
vn -0.000000 -0.000000 -1.000000
vn 0.000001 -0.000000 -1.000000
vn 0.000001 -0.000000 -1.000000
vn 0.000001 -0.000000 -1.000000
vn 0.979938 0.199302 0.000000
vn 0.979938 0.199302 0.000000
vn 0.979938 0.199302 0.000000
vn 0.979938 0.199302 0.000000
vn 0.979938 0.199302 0.000000
vn 0.979938 0.199302 0.000000
vn 0.967647 0.212400 0.136183
vn 0.967647 0.212400 0.136183
vn 0.967647 0.212400 0.136183
vn 0.966397 0.196548 0.165665
vn 0.966397 0.196548 0.165665
vn 0.966397 0.196548 0.165665
vn 0.358499 0.078681 0.930209
vn 0.358499 0.078681 0.930209
vn 0.358499 0.078681 0.930209
vn 0.358506 0.078693 0.930205
vn 0.358506 0.078693 0.930205
vn 0.358506 0.078693 0.930205
vn 0.980633 0.195853 0.000000
vn 0.980633 0.195853 0.000000
vn 0.980633 0.195853 0.000000
vn 0.980636 0.195839 0.000009
vn 0.980636 0.195839 0.000009
vn 0.980636 0.195839 0.000009
vn 0.980640 0.195817 0.000009
vn 0.980640 0.195817 0.000009
vn 0.980640 0.195817 0.000009
vn 0.980640 0.195819 0.000004
vn 0.980640 0.195819 0.000004
vn 0.980640 0.195819 0.000004
vn 0.228798 -0.973474 0.000004
vn 0.228798 -0.973474 0.000004
vn 0.228798 -0.973474 0.000004
vn 0.228795 -0.973475 0.000000
vn 0.228795 -0.973475 0.000000
vn 0.228795 -0.973475 0.000000
vn 0.000000 0.000000 -1.000000
vn 0.000000 0.000000 -1.000000
vn 0.000000 0.000000 -1.000000
vn 0.000000 0.000000 -1.000000
vn 0.000000 0.000000 -1.000000
vn 0.000000 0.000000 -1.000000
vn 0.227454 -0.973789 0.000000
vn 0.227454 -0.973789 0.000000
vn 0.227454 -0.973789 0.000000
vn 0.227454 -0.973789 0.000000
vn 0.227454 -0.973789 0.000000
vn 0.227454 -0.973789 0.000000
vn 0.232883 -0.972469 0.008310
vn 0.232883 -0.972469 0.008310
vn 0.232883 -0.972469 0.008310
vn 0.218474 -0.975825 -0.005926
vn 0.218474 -0.975825 -0.005926
vn 0.218474 -0.975825 -0.005926
vn 0.217770 -0.972612 0.081254
vn 0.217770 -0.972612 0.081254
vn 0.217770 -0.972612 0.081254
vn 0.226192 -0.968386 0.105192
vn 0.226192 -0.968386 0.105192
vn 0.226192 -0.968386 0.105192
vn 0.226191 -0.968386 0.105194
vn 0.226191 -0.968386 0.105194
vn 0.226191 -0.968386 0.105194
vn 0.232464 -0.967732 0.097236
vn 0.232464 -0.967732 0.097236
vn 0.232464 -0.967732 0.097236
vn 0.232473 -0.967726 0.097276
vn 0.232473 -0.967726 0.097276
vn 0.232473 -0.967726 0.097276
vn 0.236272 -0.964294 0.119634
vn 0.236272 -0.964294 0.119634
vn 0.236272 -0.964294 0.119634
vn 0.236269 -0.964294 0.119639
vn 0.236269 -0.964294 0.119639
vn 0.236269 -0.964294 0.119639
vn 0.236272 -0.964294 0.119636
vn 0.236272 -0.964294 0.119636
vn 0.236272 -0.964294 0.119636
vn 0.084715 -0.345735 0.934500
vn 0.084715 -0.345735 0.934500
vn 0.084715 -0.345735 0.934500
vn 0.084713 -0.345738 0.934499
vn 0.084713 -0.345738 0.934499
vn 0.084713 -0.345738 0.934499
vn 0.084713 -0.345738 0.934500
vn 0.084713 -0.345738 0.934500
vn 0.084713 -0.345738 0.934500
vn -0.974014 -0.226019 0.014550
vn -0.974014 -0.226019 0.014550
vn -0.974014 -0.226019 0.014550
vn -0.983220 -0.182031 -0.011975
vn -0.983220 -0.182031 -0.011975
vn -0.983220 -0.182031 -0.011975
vn -0.004999 -0.012328 -0.999912
vn -0.004999 -0.012328 -0.999912
vn -0.004999 -0.012328 -0.999912
vn -0.004999 -0.012328 -0.999912
vn -0.004999 -0.012328 -0.999912
vn -0.004999 -0.012328 -0.999912
vn 0.983263 0.181977 -0.008830
vn 0.983263 0.181977 -0.008830
vn 0.983263 0.181977 -0.008830
vn 0.973980 0.226301 0.012301
vn 0.973980 0.226301 0.012301
vn 0.973980 0.226301 0.012301
vn -0.001926 0.008548 0.999962
vn -0.001926 0.008548 0.999962
vn -0.001926 0.008548 0.999962
vn -0.001926 0.008548 0.999962
vn -0.001926 0.008548 0.999962
vn -0.001926 0.008548 0.999962
vn 0.228789 -0.973476 -0.000000
vn 0.228789 -0.973476 -0.000000
vn 0.228789 -0.973476 -0.000000
vn 0.228795 -0.973475 0.000012
vn 0.228795 -0.973475 0.000012
vn 0.228795 -0.973475 0.000012
vn 0.228768 -0.973481 0.000000
vn 0.228768 -0.973481 0.000000
vn 0.228768 -0.973481 0.000000
vn 0.228754 -0.973484 0.000004
vn 0.228754 -0.973484 0.000004
vn 0.228754 -0.973484 0.000004
vn 0.228789 -0.973476 -0.000077
vn 0.228789 -0.973476 -0.000077
vn 0.228789 -0.973476 -0.000077
vn 0.228798 -0.973474 0.000146
vn 0.228798 -0.973474 0.000146
vn 0.228798 -0.973474 0.000146
vn 0.228789 -0.973476 0.000000
vn 0.228789 -0.973476 0.000000
vn 0.228789 -0.973476 0.000000
vn 0.228789 -0.973476 0.000000
vn 0.228789 -0.973476 0.000000
vn 0.228789 -0.973476 0.000000
vn -0.972186 -0.234210 0.000000
vn -0.972186 -0.234210 0.000000
vn -0.972186 -0.234210 0.000000
vn -0.972186 -0.234210 0.000000
vn -0.972186 -0.234210 0.000000
vn -0.972186 -0.234210 0.000000
vn -0.000000 -0.000000 -1.000000
vn -0.000000 -0.000000 -1.000000
vn -0.000000 -0.000000 -1.000000
vn 0.000001 -0.000000 -1.000000
vn 0.000001 -0.000000 -1.000000
vn 0.000001 -0.000000 -1.000000
vn -0.972283 -0.233805 0.000000
vn -0.972283 -0.233805 0.000000
vn -0.972283 -0.233805 0.000000
vn -0.972283 -0.233805 0.000000
vn -0.972283 -0.233805 0.000000
vn -0.972283 -0.233805 0.000000
vn -0.965077 -0.218848 0.143987
vn -0.965077 -0.218848 0.143987
vn -0.965077 -0.218848 0.143987
vn -0.965420 -0.232155 0.118611
vn -0.965420 -0.232155 0.118611
vn -0.965420 -0.232155 0.118611
vn -0.364930 -0.082693 0.927356
vn -0.364930 -0.082693 0.927356
vn -0.364930 -0.082693 0.927356
vn -0.364850 -0.082744 0.927382
vn -0.364850 -0.082744 0.927382
vn -0.364850 -0.082744 0.927382
vn -0.364888 -0.082783 0.927364
vn -0.364888 -0.082783 0.927364
vn -0.364888 -0.082783 0.927364
vn -0.364863 -0.082739 0.927378
vn -0.364863 -0.082739 0.927378
vn -0.364863 -0.082739 0.927378
vn 0.001446 0.002406 0.999996
vn 0.001446 0.002406 0.999996
vn 0.001446 0.002406 0.999996
vn 0.004348 0.000936 0.999990
vn 0.004348 0.000936 0.999990
vn 0.004348 0.000936 0.999990
# 360 vertex normals

vt 0.567954 0.239048 1.023395
vt -0.022169 0.235981 0.665201
vt 0.456101 0.236119 -0.016868
vt 1.013357 0.237401 0.346089
vt 0.229367 0.643003 0.832373
vt 0.568087 0.633046 1.026901
vt 0.674837 0.549265 0.864570
vt 0.758961 0.549494 0.736647
vt 1.013490 0.725913 0.349596
vt 0.528126 0.720437 0.033464
vt 0.456234 0.755048 -0.013361
vt -0.022036 0.764019 0.668707
vt 0.097392 0.000500 0.780756
vt 0.097392 0.385367 0.780756
vt 0.000500 0.385367 0.994800
vt 0.000500 0.402438 0.994800
vt 0.077649 0.838547 0.864118
vt 0.503220 0.999501 0.000500
vt 0.568424 0.984104 0.086884
vt 0.502753 0.985739 0.075616
vt 0.904285 0.000500 0.781533
vt 0.904285 0.385367 0.781533
vt 0.999500 0.385367 0.999501
vt 0.999500 0.402438 0.999501
vt 0.934870 0.838547 0.894638
vt 0.688962 0.000500 0.781326
vt 0.689748 0.360493 0.781327
vt 0.535446 0.360551 0.781178
vt 0.536252 0.000500 0.781179
vt 0.560630 0.588984 0.939793
vt 0.561919 0.740033 0.895466
vt 0.419386 0.740029 0.894140
vt 0.418063 0.588980 0.940054
vt 0.559734 0.589325 0.763854
vt 0.556669 0.740374 0.761389
vt 0.414135 0.740370 0.760063
vt 0.417166 0.589321 0.764116
vt 0.688968 0.000500 0.752505
vt 0.689754 0.360493 0.752506
vt 0.535451 0.360551 0.752357
vt 0.536258 0.000500 0.752357
vt 0.890667 0.000500 0.197805
vt 0.101961 0.000500 0.200653
vt 0.890667 0.385367 0.197805
vt 0.101961 0.385367 0.200653
vt 0.988268 0.385367 0.000500
vt 0.000494 0.385367 0.010885
vt 0.988268 0.402438 0.000500
vt 0.000494 0.402438 0.010885
vt 0.934749 0.838547 0.128007
vt 0.063175 0.838547 0.163359
vt 0.284986 0.116482 0.199992
vt 0.282634 0.350693 0.200001
vt 0.815316 0.117588 0.198077
vt 0.815321 0.351799 0.198077
vt 0.473976 0.999500 0.999501
vt 0.500963 0.999463 0.998207
vt 0.902651 0.000500 0.795620
vt 0.902651 0.385382 0.795620
vt 0.999502 0.385382 0.994655
vt 0.999502 0.402453 0.994655
vt 0.936613 0.838579 0.884892
vt 0.509563 0.999501 0.000499
vt 0.508985 0.970522 0.161815
vt 0.408238 0.971422 0.159481
vt 0.599105 0.596556 0.955686
vt 0.601236 0.736544 0.919862
vt 0.459272 0.737580 0.922125
vt 0.457254 0.596555 0.953762
vt 0.602886 0.595846 0.783892
vt 0.601165 0.735833 0.781451
vt 0.459201 0.736870 0.783713
vt 0.461034 0.595845 0.781967
vt 0.836673 0.143501 0.796122
vt 0.837461 0.357813 0.796116
vt 0.568238 0.358557 0.798166
vt 0.568238 0.143503 0.798165
vt 0.100758 0.000500 0.801725
vt 0.100758 0.385382 0.801725
vt 0.003265 0.385382 0.999500
vt 0.003265 0.402453 0.999500
vt 0.058028 0.838579 0.908206
vt 0.418417 0.999500 0.000500
vt 0.563326 0.986583 0.076958
vt 0.563128 0.980809 0.110310
vt 0.417713 0.979312 0.117113
vt 0.884819 0.000500 0.765374
vt 0.884819 0.391392 0.765374
vt 0.983816 0.391392 0.983641
vt 0.983816 0.408729 0.983641
vt 0.938135 0.851666 0.861074
vt 0.106657 0.000500 0.778753
vt 0.106656 0.391392 0.778753
vt 0.008775 0.391392 0.999500
vt 0.008775 0.408729 0.999500
vt 0.055759 0.851666 0.849898
vt 0.977520 0.985404 0.000610
vt 0.000500 0.999501 0.999634
vt 0.058243 0.000500 0.954590
vt 0.999504 0.012287 0.536865
vt 0.097392 0.404384 0.780756
vt 0.000500 0.404384 0.994800
vt 0.904285 0.404384 0.781533
vt 0.999500 0.404384 0.999501
vt 0.890667 0.404384 0.197805
vt 0.101961 0.404384 0.200653
vt 0.988268 0.404384 0.000500
vt 0.000494 0.404384 0.010885
vt 0.902651 0.404400 0.795620
vt 0.999502 0.404400 0.994655
vt 0.100758 0.404400 0.801725
vt 0.003265 0.404400 0.999500
vt 0.884819 0.396826 0.765374
vt 0.983816 0.396826 0.983641
vt 0.106656 0.396826 0.778753
vt 0.008775 0.396826 0.999500
# 116 texture coords

g Falgi_tee_4_2
usemtl tellis
s off
f -64/-110/-360 -57/-111/-359 -62/-116/-358 
f -57/-111/-357 -58/-112/-356 -62/-116/-355 
f -58/-112/-354 -53/-105/-353 -61/-115/-352 
f -61/-115/-351 -62/-116/-350 -58/-112/-349 
f -53/-105/-348 -54/-106/-347 -60/-114/-346 
f -60/-114/-345 -61/-115/-344 -53/-105/-343 
f -54/-106/-342 -55/-107/-341 -60/-114/-340 
f -55/-107/-339 -56/-108/-338 -59/-113/-337 
f -59/-113/-336 -60/-114/-335 -55/-107/-334 
f -56/-108/-333 -63/-109/-332 -62/-116/-331 
f -62/-116/-330 -59/-113/-329 -56/-108/-328 
f -63/-109/-327 -64/-110/-326 -62/-116/-325 
usemtl pisike_north
f -28/-77/-324 -27/-76/-323 -30/-79/-322 
f -30/-79/-321 -29/-78/-320 -28/-77/-319 
usemtl pisike_west
f -45/-13/-318 -50/-15/-317 -51/-16/-316 
f -51/-16/-315 -46/-14/-314 -45/-13/-313 
usemtl pisike_north
f -44/-93/-312 -49/-101/-311 -50/-102/-310 
f -50/-102/-309 -45/-94/-308 -44/-93/-307 
f -43/-92/-306 -58/-98/-305 -57/-97/-304 
f -57/-97/-303 -64/-99/-302 -48/-100/-301 
f -43/-92/-300 -57/-97/-299 -48/-100/-298 
f -52/-104/-297 -39/-88/-296 -40/-89/-295 
f -51/-103/-294 -52/-104/-293 -40/-89/-292 
f -51/-103/-291 -40/-89/-290 -41/-90/-289 
f -46/-95/-288 -51/-103/-287 -41/-90/-286 
f -47/-96/-285 -46/-95/-284 -41/-90/-283 
f -42/-91/-282 -47/-96/-281 -41/-90/-280 
f -32/-81/-279 -31/-80/-278 -34/-83/-277 
f -34/-83/-276 -33/-82/-275 -32/-81/-274 
f -38/-87/-273 -44/-93/-272 -43/-92/-271 
f -49/-101/-270 -35/-84/-269 -36/-85/-268 
f -48/-100/-267 -49/-101/-266 -36/-85/-265 
f -48/-100/-264 -36/-85/-263 -37/-86/-262 
f -43/-92/-261 -48/-100/-260 -37/-86/-259 
f -38/-87/-258 -43/-92/-257 -37/-86/-256 
f -44/-93/-255 -38/-87/-254 -35/-84/-253 
f -35/-84/-252 -49/-101/-251 -44/-93/-250 
f -38/-87/-249 -37/-86/-248 -33/-82/-247 
f -33/-82/-246 -34/-83/-245 -38/-87/-244 
f -37/-86/-243 -36/-85/-242 -32/-81/-241 
f -32/-81/-240 -33/-82/-239 -37/-86/-238 
f -36/-85/-237 -35/-84/-236 -31/-80/-235 
f -31/-80/-234 -32/-81/-233 -36/-85/-232 
f -35/-84/-231 -38/-87/-230 -34/-83/-229 
f -34/-83/-228 -31/-80/-227 -35/-84/-226 
f -42/-91/-225 -41/-90/-224 -29/-78/-223 
f -29/-78/-222 -30/-79/-221 -42/-91/-220 
f -41/-90/-219 -40/-89/-218 -28/-77/-217 
f -28/-77/-216 -29/-78/-215 -41/-90/-214 
f -40/-89/-213 -39/-88/-212 -27/-76/-211 
f -27/-76/-210 -28/-77/-209 -40/-89/-208 
f -39/-88/-207 -42/-91/-206 -30/-79/-205 
f -30/-79/-204 -27/-76/-203 -39/-88/-202 
usemtl eastp
f -18/-62/-201 -20/-64/-200 -51/-72/-199 
f -18/-62/-198 -51/-72/-197 -25/-73/-196 
f -18/-62/-195 -25/-73/-194 -26/-75/-193 
f -19/-63/-192 -18/-62/-191 -26/-75/-190 
f -26/-75/-189 -52/-74/-188 -21/-65/-187 
f -19/-63/-186 -26/-75/-185 -21/-65/-184 
usemtl pisike_west
f -50/-9/-183 -24/-10/-182 -25/-12/-181 
f -25/-12/-180 -51/-11/-179 -50/-9/-178 
usemtl eastp
f -49/-68/-177 -23/-69/-176 -24/-71/-175 
f -24/-71/-174 -50/-70/-173 -49/-68/-172 
f -48/-66/-171 -22/-67/-170 -23/-69/-169 
f -23/-69/-168 -49/-68/-167 -48/-66/-166 
f -64/-61/-165 -63/-60/-164 -22/-67/-163 
f -22/-67/-162 -48/-66/-161 -64/-61/-160 
f -21/-65/-159 -52/-74/-158 -51/-72/-157 
f -51/-72/-156 -20/-64/-155 -21/-65/-154 
f -19/-63/-153 -21/-65/-152 -20/-64/-151 
f -20/-64/-150 -18/-62/-149 -19/-63/-148 
usemtl pisike_south
f -9/-43/-147 -8/-42/-146 -7/-41/-145 
f -7/-41/-144 -6/-40/-143 -9/-43/-142 
usemtl pisike_west
f -24/-7/-141 -3/-5/-140 -4/-6/-139 
f -4/-6/-138 -25/-8/-137 -24/-7/-136 
usemtl pisike_south
f -23/-56/-135 -2/-36/-134 -3/-37/-133 
f -3/-37/-132 -24/-57/-131 -23/-56/-130 
f -13/-47/-129 -12/-46/-128 -11/-45/-127 
f -11/-45/-126 -10/-44/-125 -13/-47/-124 
f -23/-56/-123 -17/-51/-122 -14/-48/-121 
f -2/-36/-120 -23/-56/-119 -14/-48/-118 
f -2/-36/-117 -14/-48/-116 -15/-49/-115 
f -1/-35/-114 -2/-36/-113 -15/-49/-112 
f -1/-35/-111 -15/-49/-110 -16/-50/-109 
f -22/-55/-108 -1/-35/-107 -16/-50/-106 
f -17/-51/-105 -23/-56/-104 -22/-55/-103 
f -22/-55/-102 -16/-50/-101 -17/-51/-100 
f -22/-55/-99 -63/-54/-98 -56/-53/-97 
f -1/-35/-96 -22/-55/-95 -56/-53/-94 
f -55/-52/-93 -1/-35/-92 -56/-53/-91 
f -17/-51/-90 -16/-50/-89 -12/-46/-88 
f -12/-46/-87 -13/-47/-86 -17/-51/-85 
f -16/-50/-84 -15/-49/-83 -11/-45/-82 
f -11/-45/-81 -12/-46/-80 -16/-50/-79 
f -15/-49/-78 -14/-48/-77 -10/-44/-76 
f -10/-44/-75 -11/-45/-74 -15/-49/-73 
f -14/-48/-72 -17/-51/-71 -13/-47/-70 
f -13/-47/-69 -10/-44/-68 -14/-48/-67 
f -6/-40/-66 -5/-39/-65 -26/-59/-64 
f -26/-59/-63 -9/-43/-62 -6/-40/-61 
f -9/-43/-60 -26/-59/-59 -25/-58/-58 
f -8/-42/-57 -9/-43/-56 -25/-58/-55 
f -8/-42/-54 -25/-58/-53 -4/-38/-52 
f -7/-41/-51 -8/-42/-50 -4/-38/-49 
f -7/-41/-48 -4/-38/-47 -5/-39/-46 
f -6/-40/-45 -7/-41/-44 -5/-39/-43 
usemtl pisike_west
f -5/-30/-42 -4/-29/-41 -46/-24/-40 
f -46/-24/-39 -47/-25/-38 -5/-30/-37 
f -3/-3/-36 -45/-1/-35 -46/-2/-34 
f -46/-2/-33 -4/-4/-32 -3/-3/-31 
f -2/-27/-30 -44/-22/-29 -45/-23/-28 
f -45/-23/-27 -3/-28/-26 -2/-27/-25 
f -1/-26/-24 -43/-21/-23 -44/-22/-22 
f -44/-22/-21 -2/-27/-20 -1/-26/-19 
f -1/-26/-18 -55/-33/-17 -54/-32/-16 
f -1/-26/-15 -54/-32/-14 -53/-31/-13 
f -53/-31/-12 -58/-34/-11 -43/-21/-10 
f -1/-26/-9 -53/-31/-8 -43/-21/-7 
usemtl korsten_suurem
f -59/-17/-6 -62/-20/-5 -60/-18/-4 
f -61/-19/-3 -60/-18/-2 -62/-20/-1 
# 120 faces

