# 3ds Max Wavefront OBJ Exporter v0.97b - (c)2007 guruware
# File Created: 23.10.2010 01:43:29

mtllib Toompuiestee10_3-origo.mtl

#
# object Tp12_b_polySurface14
#

v  541695.3958 6588693.761 21.0664
v  541695.3958 6588693.761 20.8718
v  541695.8319 6588693.9753 20.8515
v  541695.8319 6588693.9753 21.0664
v  541689.5664 6588690.8456 21.0664
v  541689.5664 6588690.8456 20.7909
v  541690.0336 6588691.0768 20.8270
v  541690.0336 6588691.0768 21.0664
v  541688.548 6588690.3417 21.0664
v  541688.548 6588690.3417 20.7511
v  541688.0316 6588690.0861 21.0664
v  541688.0316 6588690.0861 20.7416
v  541687.0198 6588689.5851 21.0664
v  541687.0198 6588689.5851 20.7069
v  541686.7525 6588689.4501 21.0561
v  541686.7525 6588689.4501 20.6919
v  541692.8626 6588692.5074 21.0664
v  541692.8626 6588692.5074 20.9580
v  541693.8799 6588693.0106 20.9044
v  541693.8799 6588693.0106 21.0664
v  541694.3709 6588693.2538 20.8881
v  541694.3709 6588693.2538 21.0664
v  541686.6924 6588689.5704 24.0215
v  541686.6924 6588689.5704 23.6114
v  541686.9612 6588689.7037 23.6114
v  541687.973 6588690.2047 23.6114
v  541688.4894 6588690.4603 23.6114
v  541689.5078 6588690.9641 23.6114
v  541689.8788 6588691.1479 23.6114
v  541692.549 6588692.4694 23.6114
v  541692.8159 6588692.6017 23.6114
v  541693.8331 6588693.1049 23.6114
v  541694.3241 6588693.3483 23.6114
v  541695.349 6588693.8555 23.6114
v  541695.6884 6588694.0234 23.6114
v  541695.6884 6588694.0234 24.0215
v  541686.6924 6588689.5704 22.8811
v  541686.9612 6588689.7037 22.8811
v  541686.9666 6588689.8731 23.5314
v  541686.9666 6588689.8731 22.9611
v  541687.835 6588690.303 22.9611
v  541687.835 6588690.303 23.5314
v  541687.973 6588690.2047 22.8811
v  541688.4894 6588690.4603 22.8811
v  541688.4948 6588690.6297 23.5313
v  541688.4948 6588690.6297 22.9611
v  541689.3696 6588691.0626 22.9611
v  541689.3696 6588691.0626 23.5314
v  541689.5078 6588690.9641 22.8811
v  541689.8788 6588691.1479 22.8811
v  541692.5357 6588692.4965 23.6114
v  541689.8657 6588691.1747 23.6114
v  541689.8657 6588691.1747 21.0664
v  541692.5357 6588692.4965 21.0664
v  541692.549 6588692.4694 22.8811
v  541692.8159 6588692.6017 22.8811
v  541692.8212 6588692.7712 23.5314
v  541692.8212 6588692.7712 22.9611
v  541693.6951 6588693.2037 22.9611
v  541693.6951 6588693.2037 23.5314
v  541693.8331 6588693.1049 22.8811
v  541694.3241 6588693.3483 22.8811
v  541694.3295 6588693.5176 23.5313
v  541694.3295 6588693.5176 22.9611
v  541695.2109 6588693.9539 22.9611
v  541695.2109 6588693.9539 23.5314
v  541695.349 6588693.8555 22.8811
v  541695.6884 6588694.0234 22.8811
v  541687.0329 6588689.7393 23.5314
v  541687.9012 6588690.1691 23.5314
v  541687.9012 6588690.1691 22.9611
v  541687.0329 6588689.7393 22.9611
v  541688.5611 6588690.4957 23.5313
v  541689.436 6588690.9288 23.5314
v  541689.436 6588690.9288 22.9611
v  541688.5611 6588690.4957 22.9611
v  541692.8875 6588692.6372 23.5314
v  541693.7614 6588693.0696 23.5314
v  541693.7614 6588693.0696 22.9611
v  541692.8875 6588692.6372 22.9611
v  541694.3958 6588693.3833 23.5313
v  541695.2773 6588693.8198 23.5314
v  541695.2773 6588693.8198 22.9611
v  541694.3958 6588693.3833 22.9611
v  541689.8788 6588691.1479 21.0664
v  541684.7494 6588693.4618 23.6604
v  541684.7494 6588693.4618 23.6114
v  541684.7636 6588693.4622 22.8811
v  541685.506 6588691.9644 22.9674
v  541685.934 6588691.1009 22.9674
v  541685.3958 6588691.9133 21.0570
v  541684.6068 6588693.5096 21.0568
v  541684.6049 6588693.5096 20.8277
v  541685.3948 6588691.9133 20.8279
v  541693.7143 6588697.9557 23.6114
v  541693.7143 6588697.9557 23.6738
v  541693.7143 6588697.9557 22.8811
v  541693.7621 6588698.0998 20.7848
v  541693.7621 6588698.0998 21.0666
v  541686.8415 6588689.2393 24.1514
v  541686.8458 6588689.231 24.0628
v  541695.8577 6588693.6958 24.0628
v  541695.8535 6588693.704 24.1733
v  541684.4683 6588694.0292 23.6250
v  541684.4683 6588694.0292 23.6134
v  541693.4357 6588698.5284 23.6039
v  541693.4357 6588698.5284 23.6154
v  541695.8492 6588693.7131 24.2657
v  541693.4351 6588698.5299 23.6867
v  541684.4677 6588694.0306 23.6962
v  541686.8372 6588689.2484 24.2657
v  541686.5173 6588689.0786 24.1518
v  541686.5129 6588689.0876 24.2660
v  541684.1434 6588693.8701 23.6966
v  541684.1441 6588693.8686 23.6254
v  541693.6957 6588698.6588 23.6150
v  541693.6951 6588698.6602 23.6863
v  541696.1092 6588693.8434 24.2652
v  541696.1135 6588693.8344 24.1729
v  541685.8287 6588691.0457 21.0566
v  541685.8282 6588691.0452 20.8275
v  541686.5905 6588689.5191 21.0563
v  541686.5905 6588689.5191 20.6922
v  541692.549 6588692.4694 21.0664
v  541692.8159 6588692.6017 21.0664
v  541693.8331 6588693.1049 21.0664
v  541694.3241 6588693.3483 21.0664
v  541695.349 6588693.8555 21.0664
v  541695.6884 6588694.0234 21.0664
v  541693.7143 6588697.9557 21.0664
v  541684.7508 6588693.4615 21.0561
v  541685.4978 6588691.9647 21.0561
v  541685.9982 6588691.1329 22.9672
v  541685.5704 6588691.9963 22.9672
v  541685.5621 6588691.9966 21.0558
v  541685.995 6588691.129 21.0558
v  541685.9307 6588691.097 21.0561
v  541686.6924 6588689.5704 21.0561
v  541686.9612 6588689.7037 21.0664
v  541687.973 6588690.2047 21.0664
v  541688.4894 6588690.4603 21.0664
v  541689.5078 6588690.9641 21.0664
v  541686.6509 6588689.399 21.0563
v  541686.6509 6588689.399 20.6922
# 144 vertices

vn 0.4399 -0.8981 -0.0000
vn 0.4448 -0.8956 -0.0000
vn 0.4509 -0.8926 -0.0000
vn 0.4521 -0.8920 -0.0000
vn 0.4448 -0.8956 -0.0002
vn 0.4448 -0.8956 -0.0004
vn 0.4448 -0.8956 0.0008
vn 0.4448 -0.8956 0.0002
vn 0.4448 -0.8956 -0.0008
vn 0.4448 -0.8956 0.0004
vn 0.4399 -0.8981 -0.0008
vn 0.4399 -0.8981 0.0006
vn 0.4448 -0.8956 0.0006
vn 0.4399 -0.8981 0.0015
vn 0.4448 -0.8956 0.0015
vn 0.4448 -0.8956 -0.0015
vn 0.4399 -0.8981 -0.0015
vn 0.0000 0.0000 -1.0000
vn -0.8969 -0.4423 -0.0000
vn 0.0000 0.0000 1.0000
vn 0.8956 0.4448 -0.0000
vn -0.8956 -0.4448 -0.0000
vn 0.8969 0.4423 -0.0000
vn 0.8981 0.4399 -0.0000
vn -0.8956 -0.4448 -0.0048
vn -0.8956 -0.4448 -0.0023
vn -0.8956 -0.4448 -0.0042
vn -0.8968 -0.4423 0.0055
vn 0.8932 0.4497 -0.0000
vn -0.4460 0.8950 -0.0021
vn -0.4460 0.8950 -0.0000
vn -0.4460 0.8950 -0.0013
vn -0.4460 0.8950 0.0015
vn 0.4404 -0.8930 0.0927
vn 0.4404 -0.8930 0.0931
vn 0.4450 -0.8900 0.0992
vn -0.8956 -0.4448 -0.0017
vn 0.8932 0.4497 0.0002
vn -0.4459 0.8949 -0.0149
vn -0.1770 -0.1953 -0.9646
vn -0.3479 -0.2747 -0.8964
vn -0.3537 -0.2653 -0.8969
vn -0.0488 0.0946 0.9943
vn -0.1831 -0.1861 -0.9653
vn 0.4449 -0.8897 0.1025
vn 0.4404 -0.8930 0.0925
vn -0.8969 -0.4423 0.0002
vn -0.4459 0.8948 -0.0223
vn 0.8932 0.4497 -0.0017
vn 0.0427 -0.0885 -0.9952
vn -0.4447 0.8954 -0.0223
vn 0.4406 -0.8934 0.0878
vn 0.0427 -0.0916 -0.9949
vn 0.4458 -0.8885 0.1084
vn -0.0488 0.0976 0.9940
vn -0.4459 0.8948 -0.0227
vn -0.8956 -0.4448 0.0034
vn -0.8932 -0.4497 0.0006
vn -0.8956 -0.4448 0.0011
vn -0.4460 0.8950 0.0013
vn -0.8956 -0.4448 0.0051
vn -0.8956 -0.4448 0.0030
vn 0.0061 0.0000 1.0000
vn 0.0061 0.0031 1.0000
vn 0.0000 -0.0031 1.0000
vn -0.0061 -0.0031 1.0000
vn -0.0122 -0.0061 0.9999
vn -0.0305 -0.0153 0.9994
vn -0.8932 -0.4497 -0.0000
vn -0.4460 0.8950 -0.0010
vn 0.4460 -0.8950 -0.0021
# 71 vertex normals

vt 0.3108 0.5019 0.0000
vt 0.3186 0.5019 0.0000
vt 0.3194 0.4844 0.0000
vt 0.3108 0.4844 0.0000
vt 0.3108 0.7350 0.0000
vt 0.3219 0.7350 0.0000
vt 0.3204 0.7164 0.0000
vt 0.3108 0.7164 0.0000
vt 0.3108 0.7758 0.0000
vt 0.3235 0.7758 0.0000
vt 0.3108 0.7964 0.0000
vt 0.3238 0.7964 0.0000
vt 0.3108 0.8369 0.0000
vt 0.3252 0.8369 0.0000
vt 0.8257 0.9558 0.0000
vt 0.8257 0.9704 0.0000
vt 0.8364 0.9698 0.0000
vt 0.8364 0.9554 0.0000
vt 0.3108 0.6032 0.0000
vt 0.3152 0.6032 0.0000
vt 0.3173 0.5625 0.0000
vt 0.3108 0.5625 0.0000
vt 0.3180 0.5429 0.0000
vt 0.3108 0.5429 0.0000
vt 0.4417 0.8212 0.0000
vt 0.4581 0.8212 0.0000
vt 0.4581 0.8104 0.0000
vt 0.4581 0.7700 0.0000
vt 0.4581 0.7493 0.0000
vt 0.4581 0.7086 0.0000
vt 0.4581 0.6937 0.0000
vt 0.4581 0.5869 0.0000
vt 0.4581 0.5763 0.0000
vt 0.4581 0.5356 0.0000
vt 0.4581 0.5159 0.0000
vt 0.4581 0.4749 0.0000
vt 0.4581 0.4614 0.0000
vt 0.4417 0.4614 0.0000
vt 0.4873 0.8212 0.0000
vt 0.4873 0.8104 0.0000
vt 0.9290 0.8904 0.0000
vt 0.9290 0.1095 0.0000
vt 0.0708 0.1095 0.0000
vt 0.0708 0.8904 0.0000
vt 0.4873 0.7700 0.0000
vt 0.4873 0.7493 0.0000
vt 0.9297 0.8904 0.0000
vt 0.9297 0.1095 0.0000
vt 0.0706 0.1095 0.0000
vt 0.0706 0.8904 0.0000
vt 0.4873 0.7086 0.0000
vt 0.4873 0.6937 0.0000
vt 1.0000 1.0000 0.0000
vt 0.0000 1.0000 0.0000
vt 0.0000 0.0000 0.0000
vt 1.0000 0.0000 0.0000
vt 0.4873 0.5869 0.0000
vt 0.4873 0.5763 0.0000
vt 0.9296 0.8904 0.0000
vt 0.9296 0.1095 0.0000
vt 0.0705 0.1095 0.0000
vt 0.0705 0.8904 0.0000
vt 0.4873 0.5356 0.0000
vt 0.4873 0.5159 0.0000
vt 0.9301 0.8904 0.0000
vt 0.9301 0.1095 0.0000
vt 0.0701 0.1095 0.0000
vt 0.0701 0.8904 0.0000
vt 0.4873 0.4749 0.0000
vt 0.4873 0.4614 0.0000
vt -0.0000 1.0000 0.0000
vt -0.0000 -0.0000 0.0000
vt 1.0000 -0.0000 0.0000
vt 0.0001 1.0000 0.0000
vt 0.0001 -0.0000 0.0000
vt 0.9295 0.8904 0.0000
vt 0.0704 0.8904 0.0000
vt 0.0704 0.1095 0.0000
vt 0.0000 -0.0000 0.0000
vt 0.9295 0.1095 0.0000
vt 0.9302 0.8904 0.0000
vt 0.0700 0.8904 0.0000
vt 0.0700 0.1095 0.0000
vt 0.9302 0.1095 0.0000
vt 0.3284 0.9536 0.0000
vt 0.3295 0.9542 0.0000
vt 0.3824 0.8474 0.0000
vt 0.3813 0.8468 0.0000
vt 0.5066 0.8250 0.0000
vt 0.5056 0.8250 0.0000
vt 0.5056 0.8542 0.0000
vt 0.5056 0.9268 0.0000
vt 0.5066 0.9268 0.0000
vt 0.0071 0.6998 0.0000
vt 0.0215 0.8555 0.0000
vt 0.0235 0.8555 0.0000
vt 0.0235 0.6998 0.0000
vt 0.0527 0.8555 0.0000
vt 0.0493 0.7956 0.0000
vt 0.0493 0.7611 0.0000
vt 0.0527 0.6998 0.0000
vt 0.1830 0.7870 0.0000
vt 0.1830 0.8508 0.0000
vt 0.1921 0.8508 0.0000
vt 0.1921 0.7870 0.0000
vt 0.3053 0.8407 0.0000
vt 0.3053 0.9980 0.0000
vt 0.3078 0.9980 0.0000
vt 0.3217 0.8407 0.0000
vt 0.2761 0.8407 0.0000
vt 0.2761 0.9980 0.0000
vt 0.1670 0.6863 0.0000
vt 0.1643 0.8512 0.0000
vt 0.1756 0.8512 0.0000
vt 0.1756 0.6863 0.0000
vt 0.4333 0.4844 0.0000
vt 0.4333 0.8430 0.0000
vt 0.4353 0.8430 0.0000
vt 0.4358 0.4844 0.0000
vt 0.4041 0.4844 0.0000
vt 0.4041 0.8424 0.0000
vt 0.5662 0.4614 0.0000
vt 0.5679 0.8276 0.0000
vt 0.5770 0.8276 0.0000
vt 0.5774 0.4614 0.0000
vt 0.5975 0.8322 0.0000
vt 0.6010 0.8321 0.0000
vt 0.6010 0.4716 0.0000
vt 0.5966 0.4718 0.0000
vt 0.0055 0.6863 0.0000
vt 0.0019 0.6866 0.0000
vt 0.0230 0.8782 0.0000
vt 0.0234 0.8782 0.0000
vt 0.0555 0.6777 0.0000
vt 0.0559 0.6777 0.0000
vt 0.0782 0.4848 0.0000
vt 0.0738 0.4844 0.0000
vt 0.5837 0.8305 0.0000
vt 0.5841 0.8305 0.0000
vt 0.5838 0.4718 0.0000
vt 0.5833 0.4718 0.0000
vt 0.5835 0.0088 0.0000
vt 0.5704 0.0020 0.0000
vt 0.3918 0.3625 0.0000
vt 0.4054 0.3686 0.0000
vt -59.5490 15.3632 0.0000
vt -59.5527 19.3746 0.0000
vt -52.0831 19.3781 0.0000
vt -52.0613 15.4046 0.0000
vt 0.7408 0.0877 0.0000
vt 0.7637 0.0989 0.0000
vt 0.5611 0.4463 0.0000
vt 0.5837 0.4576 0.0000
vt 0.5929 0.4719 0.0000
vt 0.5929 0.8324 0.0000
vt 0.1372 0.6863 0.0000
vt 0.1326 0.6866 0.0000
vt 0.1554 0.8779 0.0000
vt 0.1583 0.8779 0.0000
vt 0.5870 0.8305 0.0000
vt 0.5866 0.4718 0.0000
vt 0.0236 0.6774 0.0000
vt 0.0264 0.6775 0.0000
vt 0.0496 0.4848 0.0000
vt 0.0459 0.4844 0.0000
vt 0.1920 0.4909 0.0000
vt 0.1790 0.4844 0.0000
vt 0.0841 0.6760 0.0000
vt 0.0971 0.6824 0.0000
vt 0.5842 0.8434 0.0000
vt 0.5870 0.8435 0.0000
vt -51.8137 19.3796 0.0000
vt -51.7919 15.4060 0.0000
vt 0.5929 0.8454 0.0000
vt 0.5974 0.8452 0.0000
vt 0.1979 0.6774 0.0000
vt 0.2083 0.6826 0.0000
vt 0.3050 0.4896 0.0000
vt 0.2946 0.4844 0.0000
vt 0.5966 0.4614 0.0000
vt 0.5929 0.4615 0.0000
vt -59.7656 15.3631 0.0000
vt -59.7692 19.3744 0.0000
vt 0.5866 0.4614 0.0000
vt 0.5837 0.4614 0.0000
vt 0.1830 0.7523 0.0000
vt 0.1922 0.7523 0.0000
vt 0.1830 0.6912 0.0000
vt 0.1976 0.6912 0.0000
vt 0.4992 0.9268 0.0000
vt 0.4992 0.8250 0.0000
vt 0.4981 0.8250 0.0000
vt 0.4981 0.8976 0.0000
vt 0.4981 0.9268 0.0000
vt 0.5599 0.5869 0.0000
vt 0.5599 0.5763 0.0000
vt 0.5599 0.5356 0.0000
vt 0.5599 0.5159 0.0000
vt 0.5599 0.4749 0.0000
vt 0.5599 0.4614 0.0000
vt 0.2035 0.9980 0.0000
vt 0.2035 0.8407 0.0000
vt 0.3311 0.8430 0.0000
vt 0.3315 0.4844 0.0000
vt 0.1257 0.8555 0.0000
vt 0.1257 0.7956 0.0000
vt 0.1257 0.7609 0.0000
vt 0.1257 0.6998 0.0000
vt 0.5603 0.8212 0.0000
vt 0.5599 0.8104 0.0000
vt 0.5599 0.7700 0.0000
vt 0.5599 0.7493 0.0000
vt 0.5599 0.7086 0.0000
vt 0.5599 0.6937 0.0000
vt 0.7766 0.4807 0.0000
vt 0.7804 0.4788 0.0000
vt 0.7718 0.4614 0.0000
vt 0.7699 0.4671 0.0000
vt 0.8923 0.7143 0.0000
vt 0.8970 0.7120 0.0000
vt 0.8878 0.6933 0.0000
vt 0.8849 0.6995 0.0000
vt 0.9124 0.7551 0.0000
vt 0.9172 0.7527 0.0000
vt 0.9227 0.7757 0.0000
vt 0.9274 0.7734 0.0000
vt 0.5927 0.8920 0.0000
vt 0.5975 0.8897 0.0000
vt 0.5774 0.8492 0.0000
vt 0.5727 0.8515 0.0000
vt 0.8268 0.5820 0.0000
vt 0.8306 0.5801 0.0000
vt 0.8104 0.5394 0.0000
vt 0.8067 0.5413 0.0000
vt 0.8007 0.5198 0.0000
vt 0.7969 0.5217 0.0000
vt 0.8321 0.5927 0.0000
vt 0.8839 0.7000 0.0000
vt 0.8310 0.5932 0.0000
vt 0.7924 0.9046 0.0000
vt 0.7905 0.9104 0.0000
vt 0.8543 0.8788 0.0000
vt 0.8523 0.8747 0.0000
vt 0.6069 0.5442 0.0000
vt 0.6126 0.5461 0.0000
vt 0.8890 0.8615 0.0000
vt 0.8870 0.8574 0.0000
vt 0.8216 0.9558 0.0000
vt 0.8216 0.9704 0.0000
vt 0.9501 0.8310 0.0000
vt 0.9480 0.8269 0.0000
vt 0.9528 0.8245 0.0000
vt 0.9474 0.8138 0.0000
vt 0.9427 0.8162 0.0000
vt 0.1976 0.6864 0.0000
vt 0.1830 0.6864 0.0000
vt 0.9549 0.8286 0.0000
vt 0.5132 0.9015 0.0000
vt 0.5157 0.9015 0.0000
vt 0.5156 0.8250 0.0000
vt 0.5130 0.8250 0.0000
vt 0.8857 0.8548 0.0000
vt 0.8510 0.8721 0.0000
vt 0.5224 0.9015 0.0000
vt 0.5249 0.9015 0.0000
vt 0.5253 0.8250 0.0000
vt 0.5227 0.8250 0.0000
vt 0.8431 0.9487 0.0000
vt 0.8457 0.9500 0.0000
vt 0.8628 0.9155 0.0000
vt 0.8602 0.9142 0.0000
# 271 texture coords

g Tp12_b_polySurface14
usemtl Tp12_b_GreyPlaster
s off
f 1/1/1 2/2/1 3/3/1 4/4/1 
f 5/5/2 6/6/2 7/7/2 8/8/2 
f 9/9/2 10/10/2 6/6/2 5/5/2 
f 11/11/2 12/12/2 10/10/2 9/9/2 
f 13/13/2 14/14/2 12/12/2 11/11/2 
f 15/15/3 16/16/3 14/17/4 13/18/4 
f 17/19/4 8/8/4 7/7/4 18/20/4 
f 17/19/2 18/20/2 19/21/2 20/22/2 
f 20/22/2 19/21/2 21/23/2 22/24/2 
f 22/24/2 21/23/2 2/2/2 1/1/2 
usemtl Tp12_b_yellowPlaster
f 23/25/5 24/26/5 25/27/5 26/28/5 
f 23/25/5 26/28/5 27/29/5 28/30/5 
f 23/25/5 28/30/5 29/31/5 30/32/5 
f 23/25/5 30/32/5 31/33/6 32/34/6 
f 23/25/5 32/34/6 33/35/7 34/36/7 
f 23/25/5 34/36/7 35/37/5 36/38/5 
f 24/26/2 37/39/2 38/40/8 25/27/5 
usemtl Tp12_b_smallHouseWindows
f 39/41/2 40/42/2 41/43/2 42/44/2 
usemtl Tp12_b_yellowPlaster
f 26/28/5 43/45/8 44/46/8 27/29/5 
usemtl Tp12_b_smallHouseWindows
f 45/47/2 46/48/2 47/49/2 48/50/2 
usemtl Tp12_b_yellowPlaster
f 28/30/5 49/51/8 50/52/2 29/31/2 
usemtl Tp12_b_SmallHouseBigDoor
f 51/53/2 52/54/2 53/55/2 54/56/2 
usemtl Tp12_b_yellowPlaster
f 30/32/2 55/57/2 56/58/8 31/33/6 
usemtl Tp12_b_smallHouseWindows
f 57/59/2 58/60/2 59/61/2 60/62/2 
usemtl Tp12_b_yellowPlaster
f 32/34/6 61/63/8 62/64/9 33/35/7 
usemtl Tp12_b_smallHouseWindows
f 63/65/2 64/66/2 65/67/2 66/68/2 
usemtl Tp12_b_yellowPlaster
f 34/36/7 67/69/9 68/70/2 35/37/2 
usemtl Tp12_b_smallHouseWindows
f 25/53/5 69/41/5 70/44/5 26/71/5 
f 26/71/5 70/44/5 71/43/10 43/72/8 
f 43/72/8 71/43/10 72/42/10 38/73/8 
f 38/73/8 72/42/10 69/41/5 25/53/5 
f 27/53/5 73/59/6 74/62/6 28/74/5 
f 28/74/5 74/62/6 75/61/10 49/75/8 
f 49/75/8 75/61/10 76/60/10 44/73/8 
f 44/73/8 76/60/10 73/59/6 27/53/5 
f 31/53/6 77/76/9 78/77/11 32/54/6 
f 32/54/6 78/77/11 79/78/12 61/79/8 
f 61/79/8 79/78/12 80/80/13 56/73/8 
f 56/73/8 80/80/13 77/76/9 31/53/6 
f 33/53/7 81/81/14 82/82/15 34/71/7 
f 34/71/7 82/82/15 83/83/16 67/72/9 
f 67/72/9 83/83/16 84/84/17 62/73/9 
f 62/73/9 84/84/17 81/81/14 33/53/7 
f 69/41/18 39/41/18 42/44/18 70/44/18 
f 70/44/19 42/44/19 41/43/19 71/43/19 
f 71/43/20 41/43/20 40/42/20 72/42/20 
f 72/42/21 40/42/21 39/41/21 69/41/21 
f 73/59/18 45/47/18 48/50/18 74/62/18 
f 74/62/22 48/50/22 47/49/22 75/61/22 
f 75/61/20 47/49/20 46/48/20 76/60/20 
f 76/60/23 46/48/23 45/47/23 73/59/23 
f 77/76/18 57/59/18 60/62/18 78/77/18 
f 78/77/19 60/62/19 59/61/19 79/78/19 
f 79/78/20 59/61/20 58/60/20 80/80/20 
f 80/80/23 58/60/23 57/59/23 77/76/23 
f 81/81/18 63/65/18 66/68/18 82/82/18 
f 82/82/19 66/68/19 65/67/19 83/83/19 
f 83/83/20 65/67/20 64/66/20 84/84/20 
f 84/84/23 64/66/23 63/65/23 81/81/23 
usemtl Tp12_b_yellowPlaster
f 29/85/18 52/86/18 51/87/18 30/88/18 
f 52/89/24 29/90/24 50/91/24 85/92/24 
f 52/89/24 85/92/24 53/93/24 
f 23/94/22 86/95/22 87/96/25 24/97/25 
f 24/97/25 87/96/25 88/98/26 89/99/26 
f 24/97/25 89/99/26 90/100/27 37/101/27 
usemtl Tp12_b_GreyPlaster
f 91/102/28 92/103/28 93/104/28 94/105/28 
usemtl Tp12_b_yellowPlaster
f 35/106/29 95/107/29 96/108/29 36/109/29 
f 68/110/29 97/111/29 95/107/29 35/106/29 
usemtl Tp12_b_GreyPlaster
f 3/112/29 98/113/29 99/114/29 4/115/29 
usemtl Tp12_b_yellowPlaster
f 95/116/30 87/117/30 86/118/31 96/119/31 
f 97/120/32 88/121/32 87/117/30 95/116/30 
usemtl Tp12_b_GreyPlaster
f 98/122/33 93/123/33 92/124/33 99/125/33 
usemtl Tp12_b_yellowPlaster
f 100/126/34 101/127/35 102/128/35 103/129/36 
f 101/130/37 100/131/37 104/132/37 105/133/37 
f 106/134/38 107/135/38 103/136/38 102/137/38 
f 105/138/31 104/139/39 107/140/39 106/141/31 
f 36/142/40 102/143/40 101/144/41 23/145/41 
f 23/94/41 101/130/41 105/133/42 86/95/42 
usemtl Tp12_b_blueTinBlinn
f 108/146/43 109/147/43 110/148/43 111/149/43 
usemtl Tp12_b_yellowPlaster
f 36/142/40 96/150/44 106/151/44 102/143/40 
f 86/152/42 105/153/42 106/151/44 96/150/44 
f 103/129/36 108/154/45 111/155/46 100/126/34 
f 112/156/47 113/157/47 114/158/47 115/159/47 
f 104/139/39 110/160/48 109/161/48 107/140/39 
f 116/162/49 117/163/49 118/164/49 119/165/49 
f 100/166/50 112/167/50 115/168/50 104/169/50 
f 104/139/39 115/170/51 114/171/51 110/160/48 
usemtl Tp12_b_blueTinBlinn
f 110/148/43 114/172/43 113/173/43 111/149/43 
usemtl Tp12_b_yellowPlaster
f 111/155/46 113/174/52 112/175/52 100/126/34 
f 107/176/53 116/177/53 119/178/53 103/179/53 
f 103/129/36 119/180/54 118/181/54 108/154/45 
usemtl Tp12_b_blueTinBlinn
f 108/146/43 118/182/55 117/183/55 109/147/43 
usemtl Tp12_b_yellowPlaster
f 109/161/48 117/184/56 116/185/56 107/140/39 
usemtl Tp12_b_GreyPlaster
f 120/186/57 91/102/57 94/105/57 121/187/57 
f 122/188/58 120/186/59 121/187/59 123/189/58 
usemtl Tp12_b_yellowPlaster
f 51/190/19 54/191/19 124/192/19 55/193/19 
f 51/190/19 55/193/19 30/194/19 
f 55/57/2 124/195/2 125/196/2 56/58/2 
f 56/58/8 125/196/2 126/197/2 61/63/8 
f 61/63/2 126/197/2 127/198/2 62/64/2 
f 62/64/9 127/198/2 128/199/2 67/69/9 
f 67/69/2 128/199/2 129/200/2 68/70/2 
f 130/201/29 97/111/29 68/110/29 129/202/29 
f 131/203/60 88/121/32 97/120/32 130/204/60 
f 89/99/26 88/98/26 131/205/61 132/206/61 
usemtl Tp12_b_SideDoor
f 133/53/62 134/54/62 135/55/62 136/56/62 
usemtl Tp12_b_yellowPlaster
f 37/101/27 90/100/27 137/207/59 138/208/59 
f 37/39/2 138/209/2 139/210/2 38/40/2 
f 38/40/8 139/210/2 140/211/2 43/45/8 
f 43/45/2 140/211/2 141/212/2 44/46/2 
f 44/46/8 141/212/2 142/213/2 49/51/8 
f 49/51/2 142/213/2 85/214/2 50/52/2 
usemtl Tp12_b_GreyPlaster
f 128/215/20 1/216/20 4/217/20 129/218/20 
f 142/219/20 5/220/20 8/221/20 85/222/20 
f 141/223/20 9/224/20 5/220/20 142/219/20 
f 140/225/20 11/226/20 9/224/20 141/223/20 
f 139/227/20 13/228/20 11/229/20 140/230/20 
f 125/231/20 17/232/20 20/233/20 126/234/20 
f 126/234/20 20/233/20 22/235/20 127/236/20 
f 127/236/20 22/235/20 1/216/20 128/215/20 
f 17/232/20 125/231/20 124/237/20 53/238/20 
f 124/237/20 54/239/20 53/238/20 
f 17/232/20 53/238/20 85/222/20 8/221/20 
usemtl Tp12_b_yellowPlaster
f 131/240/63 92/241/63 91/242/64 132/243/64 
usemtl Tp12_b_GreyPlaster
f 129/218/20 4/217/20 99/244/65 130/245/65 
usemtl Tp12_b_yellowPlaster
f 130/245/65 99/244/65 92/241/63 131/240/63 
usemtl Tp12_b_GreyPlaster
f 132/243/64 91/242/64 120/246/64 137/247/64 
f 15/15/3 143/248/3 144/249/3 16/16/3 
f 137/247/64 120/246/64 122/250/20 138/251/66 
f 138/251/66 15/252/67 13/253/68 139/254/68 
f 123/189/58 144/255/69 143/256/69 122/188/58 
f 122/250/20 143/257/20 15/252/67 138/251/66 
usemtl Tp12_b_yellowPlaster
f 90/258/70 133/259/70 136/260/70 137/261/70 
usemtl Tp12_b_GreyPlaster
f 137/247/64 136/262/20 135/263/20 132/243/64 
usemtl Tp12_b_yellowPlaster
f 132/264/71 135/265/71 134/266/71 89/267/71 
f 89/268/18 134/269/18 133/270/18 90/271/18 
# 133 polygons - 3 triangles

