# 3ds Max Wavefront OBJ Exporter v0.94b - (c)2007 guruware
# File Created: 29.10.2010 12:23:39

mtllib 103_Toompuiestee_16_korvalhoone2-origo.mtl

#
# object TP16_03
#

v  541657.132263 6588744.84625 21.191586
v  541657.132263 6588744.84625 18.987452
v  541664.080994 6588745.94479 18.987452
v  541664.080994 6588745.94479 21.191586
v  541656.670227 6588744.14398 21.190762
v  541660.811829 6588744.82556 23.753902
v  541660.813354 6588744.82587 23.943897
v  541656.671753 6588744.14426 21.380756
v  541664.953369 6588745.50717 21.190762
v  541664.954895 6588745.50745 21.380756
v  541656.572815 6588744.73602 21.190636
v  541660.714417 6588745.4176 23.753777
v  541664.855957 6588746.09918 21.190636
v  541662.709839 6588757.06546 21.190643
v  541662.58606 6588757.61072 21.190762
v  541662.587524 6588757.61102 21.380756
v  541658.40863 6588756.63348 23.943897
v  541654.315979 6588756.12439 21.373758
v  541654.314453 6588756.12408 21.183765
v  541654.396973 6588755.75931 21.186245
v  541654.729919 6588755.81238 21.191586
v  541654.758301 6588755.6759 21.191586
v  541656.985046 6588744.96396 21.191586
v  541657.013428 6588744.82745 21.191586
v  541656.985046 6588744.96396 18.987452
v  541654.758301 6588755.6759 18.987452
v  541664.17157 6588746.09952 21.191586
v  541664.17157 6588746.09952 18.987452
v  541661.926147 6588756.90402 18.987452
v  541661.926147 6588756.90402 21.191586
v  541654.848877 6588755.83044 18.987452
v  541654.848877 6588755.83044 21.191586
v  541661.904907 6588756.90082 21.191586
v  541658.407104 6588756.63318 23.753902
v  541661.765991 6588757.41891 21.693731
v  541658.52002 6588756.13565 23.753796
v  541661.907837 6588756.88748 21.681257
v  541661.880371 6588756.88138 21.698078
v  541664.199829 6588745.96359 21.191586
v  541661.815735 6588757.4249 21.177471
v  541661.793945 6588757.44418 21.176876
v  541654.905701 6588754.77026 21.191586
v  541654.905701 6588754.77026 18.987452
v  541655.503113 6588751.89655 18.987452
v  541655.503113 6588751.89655 21.191586
v  541656.780518 6588745.75122 18.987452
v  541656.780518 6588745.75122 21.191586
v  541656.149841 6588748.78528 21.191586
v  541656.149841 6588748.78528 18.987452
v  541654.944885 6588754.77841 21.191586
v  541654.944885 6588754.77841 18.987452
v  541655.542236 6588751.90466 18.987452
v  541655.542236 6588751.90466 21.191586
v  541656.189026 6588748.79343 21.191586
v  541656.189026 6588748.79343 18.987452
v  541656.819702 6588745.75937 18.987452
v  541656.819702 6588745.75937 21.191586
v  541659.918396 6588767.09842 19.188148
v  541654.013306 6588765.88269 19.188148
v  541654.013306 6588765.88269 22.727177
v  541659.918396 6588767.09842 21.507553
v  541655.962952 6588755.98947 19.188148
v  541655.962952 6588755.98947 22.357986
v  541655.898071 6588756.31888 22.360054
v  541660.919983 6588762.00098 21.467552
v  541661.851501 6588757.26038 21.430351
v  541661.92157 6588756.90356 21.427551
v  541661.92157 6588756.90356 19.188148
v  541653.335327 6588766.07361 22.853094
v  541653.380798 6588766.07959 23.088667
v  541660.229004 6588767.48447 21.681076
v  541660.183716 6588767.47757 21.445492
v  541655.859741 6588756.30652 19.188148
v  541655.859741 6588756.30652 21.421425
v  541655.461426 6588758.32776 21.434704
v  541655.461426 6588758.32776 19.188148
v  541655.390442 6588758.6879 19.188148
v  541655.390442 6588758.6879 21.437071
v  541654.992554 6588760.70685 21.450336
v  541654.992554 6588760.70685 19.188148
v  541654.049377 6588765.49274 21.481781
v  541654.049377 6588765.49274 19.188148
v  541654.446533 6588763.47742 19.188148
v  541654.446533 6588763.47742 21.468538
v  541654.519592 6588763.10693 21.466105
v  541654.519592 6588763.10693 19.188148
v  541654.916443 6588761.09305 19.188148
v  541654.916443 6588761.09305 21.452873
v  541655.898987 6588756.31424 19.188148
v  541655.898987 6588756.31424 21.421425
v  541655.50061 6588758.33551 21.434704
v  541655.50061 6588758.33551 19.188148
v  541655.429687 6588758.69562 19.188148
v  541655.429687 6588758.69562 21.437071
v  541655.031799 6588760.71457 21.450336
v  541655.031799 6588760.71457 19.188148
v  541654.485779 6588763.48517 19.188148
v  541654.485779 6588763.48517 21.468538
v  541654.088623 6588765.50046 21.481781
v  541654.088623 6588765.50046 19.188148
v  541654.955688 6588761.1008 19.188148
v  541654.955688 6588761.1008 21.452873
v  541654.558838 6588763.11466 21.466105
v  541654.558838 6588763.11466 19.188148
v  541654.988159 6588760.9361 22.662176
v  541654.340637 6588760.96997 22.783766
v  541654.385254 6588760.9758 23.019512
v  541661.282288 6588762.17493 21.641186
v  541661.237915 6588762.16821 21.405422
v  541655.894714 6588756.3157 22.601725
v  541655.275574 6588756.2236 22.719292
v  541657.013428 6588744.82745 18.987452
v  541654.729919 6588755.81238 18.987452
v  541664.199829 6588745.96359 18.987452
v  541655.319397 6588756.22925 22.955196
v  541656.532898 6588756.4054 22.719028
v  541662.261841 6588757.23706 21.604084
v  541662.218323 6588757.2305 21.368156
v  541662.335571 6588756.86539 21.601292
v  541656.58252 6588756.04257 22.718678
v  541656.229431 6588756.36404 22.547432
# 121 vertices

vn 0.156154 -0.987733 -0.000000
vn 0.156154 -0.987733 0.000000
vn 0.162262 -0.986748 0.000211
vn 0.162514 -0.986706 0.000208
vn 0.514285 0.084456 -0.853450
vn -0.514227 -0.084809 -0.853451
vn 0.975164 0.221339 -0.008028
vn 0.978258 0.191450 0.079737
vn 0.977730 0.191235 0.086442
vn 0.986695 0.162382 -0.008031
vn 0.510956 0.104061 0.853285
vn 0.503457 0.098472 0.858391
vn -0.519951 -0.101749 0.848114
vn -0.510956 -0.104061 0.853285
vn -0.975335 -0.220581 0.008031
vn -0.979993 -0.193455 -0.046794
vn -0.435187 -0.071811 -0.897472
vn -0.981179 -0.192936 0.008034
vn 0.015521 0.003226 -0.999874
vn 0.002148 0.000026 -0.999998
vn -0.979070 -0.203524 -0.000000
vn -0.979070 -0.203525 -0.000000
vn 0.979079 0.203479 0.000000
vn -0.149981 0.988689 -0.000000
vn -0.149986 0.988688 0.000000
vn -0.149981 0.988689 0.000000
vn -0.123077 0.992397 -0.000590
vn -0.123074 0.992397 -0.000594
vn -0.227622 0.973750 0.000259
vn -0.227619 0.973750 0.000263
vn 0.518514 0.111531 -0.847764
vn 0.517192 0.117572 -0.847755
vn -0.500073 -0.113319 -0.858537
vn -0.500076 -0.113283 -0.858540
vn -0.500073 -0.113320 -0.858537
vn -0.001151 -0.000239 -0.999999
vn -0.001390 -0.000271 -0.999999
vn 0.660232 0.747579 0.072251
vn -0.234326 0.972092 -0.011304
vn 0.202059 -0.977102 0.066659
vn 0.202872 -0.976838 -0.068044
vn 0.156151 -0.987731 0.001952
vn 0.156154 -0.987731 0.001948
vn 0.156151 -0.987731 0.001944
vn -0.979070 -0.203525 0.000000
vn -0.203526 0.979070 -0.000000
vn 0.203526 -0.979070 0.000000
vn 0.203515 -0.979072 0.000000
vn -0.201647 0.979458 0.000000
vn -0.981129 -0.193352 0.000000
vn -0.981180 -0.193025 -0.005151
vn 0.981237 0.192804 0.000000
vn 0.981237 0.192804 -0.000002
vn -0.198299 0.980050 0.013394
vn -0.198944 0.979965 0.009499
vn -0.981129 -0.193352 -0.000000
vn 0.193352 -0.981129 -0.000000
vn 0.001246 -0.006325 0.999979
vn -0.193351 0.981130 0.000000
vn 0.193351 -0.981130 -0.000000
vn -0.193357 0.981128 0.000000
vn 0.193357 -0.981128 0.000000
vn 0.193357 -0.981128 -0.000000
vn -0.193817 -0.041870 -0.980144
vn -0.196806 -0.022714 -0.980179
vn -0.185702 -0.023688 -0.982321
vn -0.189043 -0.023903 -0.981678
vn -0.962634 -0.192216 0.190760
vn -0.963389 -0.192133 0.186995
vn 0.196275 0.025346 0.980221
vn 0.190779 0.030474 0.981160
vn 0.962601 0.192390 -0.190748
vn 0.963309 0.192681 -0.186842
vn -0.187151 -0.029749 -0.981881
vn -0.177901 -0.027237 -0.983671
vn -0.183189 -0.023086 -0.982807
vn -0.185681 -0.023232 -0.982336
vn -0.979070 -0.203523 -0.000000
vn 0.979080 0.203477 0.000000
vn 0.156151 -0.987733 0.000000
vn 0.156151 -0.987733 -0.000000
vn -0.963354 -0.192306 0.186993
vn -0.964046 -0.192215 0.183490
vn 0.191818 0.024457 0.981126
vn 0.186794 0.029678 0.981951
vn 0.963343 0.192508 -0.186843
vn 0.963985 0.192787 -0.183210
vn -0.177593 -0.027838 -0.983710
vn -0.169114 -0.025498 -0.985267
vn 0.187204 0.024660 0.982012
vn -0.981202 -0.192318 -0.016016
vn -0.981133 -0.193336 -0.000261
vn 0.145327 -0.989369 -0.005463
vn 0.146494 -0.989205 -0.003523
vn 0.142021 -0.989803 -0.010951
vn 0.141352 -0.989886 -0.012058
vn 0.141171 -0.989924 -0.011044
vn -0.158165 0.981248 0.110163
vn -0.149279 0.984059 0.096664
vn -0.200291 0.979340 0.027863
vn 0.007727 -0.008380 -0.999935
vn -0.001189 -0.000055 -0.999999
vn 0.013315 -0.013598 -0.999819
vn 0.022623 -0.022290 -0.999496
# 104 vertex normals

vt 0.120840 0.478381 0.000000
vt 0.120844 0.018648 0.000000
vt 1.570203 0.018658 0.000000
vt 1.570200 0.478392 0.000000
vt 0.517431 0.933794 0.000000
vt 0.946199 0.933885 0.000000
vt 0.946199 0.919750 0.000000
vt 0.526064 0.919659 0.000000
vt 0.517416 0.986105 0.000000
vt 0.946199 0.986195 0.000000
vt 0.067499 0.897174 0.000000
vt 0.019205 0.896913 0.000000
vt 0.019205 0.880402 0.000000
vt 1.041722 0.897183 0.000000
vt 1.084275 0.880708 0.000000
vt 1.084274 0.897219 0.000000
vt 0.006732 0.429048 0.000000
vt 1.057301 0.427718 0.000000
vt 1.057204 0.864912 0.000000
vt 0.008566 0.864746 0.000000
vt 0.006917 0.006327 0.000000
vt 1.056387 -0.000809 0.000000
vt 1.051525 0.897234 0.000000
vt 0.071923 0.896896 0.000000
vt 1.999091 0.942555 0.000000
vt 1.997702 0.979889 0.000000
vt 1.982256 0.980040 0.000000
vt 0.770025 0.991833 0.000000
vt 0.754579 0.991983 0.000000
vt 0.754111 0.942126 0.000000
vt 0.067593 0.018648 0.000000
vt 0.067589 0.478381 0.000000
vt -2.166688 0.478365 0.000000
vt -2.166684 0.018632 0.000000
vt -0.571297 0.999153 0.000000
vt -0.571294 0.539419 0.000000
vt 1.682289 0.539435 0.000000
vt 1.682285 0.999169 0.000000
vt -2.219969 0.018631 0.000000
vt -2.219972 0.478364 0.000000
vt -3.691699 0.478354 0.000000
vt -3.696123 0.478354 0.000000
vt -3.696119 0.018620 0.000000
vt 0.475752 0.934248 0.000000
vt 0.467381 0.919954 0.000000
vt 0.031445 0.919805 0.000000
vt 0.040098 0.933927 0.000000
vt 0.390263 0.934185 0.000000
vt 0.475714 0.966241 0.000000
vt 0.039657 0.978492 0.000000
vt 0.392039 0.982134 0.000000
vt 0.389179 0.982104 0.000000
vt 0.949737 0.984393 0.000000
vt 0.021729 0.990858 0.000000
vt 0.021065 0.940799 0.000000
vt 0.961412 0.984288 0.000000
vt 0.960818 0.940805 0.000000
vt -3.696123 0.002960 0.000000
vt -3.691699 0.002960 0.000000
vt -3.688911 0.108602 0.000000
vt -3.861470 0.002762 0.000000
vt 1.594982 0.002999 0.000000
vt 1.731837 0.002802 0.000000
vt 0.867993 0.537410 0.000000
vt 0.004155 0.002789 0.000000
vt 0.096058 0.002988 0.000000
vt 0.120840 0.002988 0.000000
vt 1.570200 0.002998 0.000000
vt 0.020654 0.801936 0.000000
vt 0.020660 0.121876 0.000000
vt 0.976874 0.121883 0.000000
vt 0.976868 0.801942 0.000000
vt 0.008313 0.801936 0.000000
vt 0.008318 0.121876 0.000000
vt 0.989215 0.121883 0.000000
vt 0.989210 0.801943 0.000000
vt -3.483797 0.010536 0.000000
vt -1.807243 0.010534 0.000000
vt -1.807242 0.994682 0.000000
vt -3.483796 0.655526 0.000000
vt 0.996823 0.010532 0.000000
vt 0.996823 0.894314 0.000000
vt 0.903480 0.892315 0.000000
vt -4.928416 0.644402 0.000000
vt -6.271913 0.634057 0.000000
vt -6.373036 0.633279 0.000000
vt -6.373036 0.010536 0.000000
vt 4.871267 0.914862 0.000000
vt 4.871341 0.893937 0.000000
vt 5.493033 0.893913 0.000000
vt 5.492959 0.914837 0.000000
vt 0.947998 0.009175 0.000000
vt 0.947998 0.973437 0.000000
vt 0.069481 0.979100 0.000000
vt 0.069481 0.009175 0.000000
vt 0.965088 0.009175 0.000000
vt 0.965089 0.973437 0.000000
vt 0.948108 0.990527 0.000000
vt 0.069591 0.996190 0.000000
vt 0.052390 0.979100 0.000000
vt 0.052390 0.009175 0.000000
vt 5.462882 0.942267 0.000000
vt 4.926631 0.941819 0.000000
vt 4.843203 0.970572 0.000000
vt 4.403841 0.970470 0.000000
vt 4.417747 0.914663 0.000000
vt 4.417749 0.893739 0.000000
vt 1.967792 0.839760 0.000000
vt 1.022590 0.840324 0.000000
vt 1.018564 0.150814 0.000000
vt 1.963838 0.122284 0.000000
vt 5.964972 0.893604 0.000000
vt 5.964899 0.914528 0.000000
vt 5.520768 0.944563 0.000000
vt 5.973691 0.945071 0.000000
vt 3.995237 0.969648 0.000000
vt 3.995974 0.913805 0.000000
vt 0.831499 0.857448 0.000000
vt 0.152830 0.857446 0.000000
vt 0.152830 0.815420 0.000000
vt 0.831499 0.815423 0.000000
vt -0.599650 0.999152 0.000000
vt -0.599647 0.539419 0.000000
vt 0.831499 0.894058 0.000000
vt 0.152829 0.894055 0.000000
vt 1.594986 0.018659 0.000000
vt 1.594982 0.478392 0.000000
vt 3.995911 0.892967 0.000000
vt 1.963838 0.122515 0.000000
vt 1.018564 0.093985 0.000000
vt 1.014812 0.735229 0.000000
vt 1.180057 0.744762 0.000000
vt 1.960169 0.789767 0.000000
vt 6.403877 0.893314 0.000000
vt 6.403803 0.914238 0.000000
vt 6.393628 0.944262 0.000000
vt 1.959893 0.839991 0.000000
vt 1.176880 0.793197 0.000000
vt 0.898661 0.960067 0.000000
vt -0.405209 0.976605 0.000000
vt 1.630184 0.891297 0.000000
vt 1.630042 0.914397 0.000000
vt 1.571249 0.915011 0.000000
vt 1.509279 0.890876 0.000000
vt 1.537263 0.915064 0.000000
vt -2.195156 0.002971 0.000000
vt -2.124862 0.001856 0.000000
vt -2.989838 0.537382 0.000000
vt -2.219972 0.002971 0.000000
vt 0.576824 0.940461 0.000000
vt 0.609401 0.940812 0.000000
vt 0.607965 0.987411 0.000000
vt 0.576952 0.986632 0.000000
vt 0.985688 0.939053 0.000000
# 154 texture coords

g TP16_03
usemtl wood
f -121/-154/-104 -120/-153/-104 -119/-152/-104 
f -119/-152/-103 -118/-151/-103 -121/-154/-103 
usemtl roof02
f -117/-150/-102 -116/-149/-102 -115/-148/-102 
f -115/-148/-102 -114/-147/-102 -117/-150/-102 
f -116/-149/-101 -113/-150/-101 -112/-147/-101 
f -112/-147/-101 -115/-148/-101 -116/-149/-101 
f -111/-146/-100 -110/-145/-100 -116/-149/-100 
f -116/-149/-100 -117/-150/-100 -111/-146/-100 
f -110/-145/-99 -109/-146/-99 -113/-150/-99 
f -113/-150/-99 -116/-149/-99 -110/-145/-99 
f -108/-144/-98 -107/-143/-98 -106/-142/-98 
f -109/-141/-97 -108/-144/-97 -106/-142/-97 
f -109/-141/-96 -106/-142/-96 -112/-140/-96 
f -109/-141/-95 -112/-140/-95 -113/-139/-95 
f -105/-138/-94 -115/-137/-94 -112/-136/-94 
f -112/-136/-93 -106/-135/-93 -105/-138/-93 
f -105/-138/-92 -104/-134/-92 -114/-133/-92 
f -114/-133/-91 -115/-137/-91 -105/-138/-91 
f -104/-140/-90 -103/-139/-90 -102/-132/-90 
f -104/-140/-89 -102/-132/-89 -111/-131/-89 
f -104/-140/-88 -111/-131/-88 -117/-143/-88 
f -104/-140/-87 -117/-143/-87 -114/-142/-87 
f -102/-130/-86 -101/-129/-86 -100/-128/-86 
f -102/-130/-86 -100/-128/-86 -99/-127/-86 
f -102/-130/-86 -99/-127/-86 -98/-126/-86 
f -111/-125/-85 -102/-130/-85 -98/-126/-85 
usemtl wood
f -97/-124/-84 -99/-123/-83 -100/-122/-83 
f -100/-122/-83 -96/-121/-83 -97/-124/-84 
f -95/-120/-82 -94/-119/-82 -93/-118/-82 
f -93/-118/-82 -92/-117/-82 -95/-120/-82 
f -91/-116/-81 -90/-115/-81 -89/-114/-81 
f -91/-116/-80 -89/-114/-80 -92/-113/-80 
f -91/-116/-79 -92/-113/-79 -93/-112/-79 
usemtl roof02
f -103/-111/-78 -104/-110/-78 -105/-109/-78 
f -105/-109/-77 -88/-108/-77 -103/-111/-77 
f -88/-108/-76 -105/-109/-76 -106/-110/-76 
f -106/-110/-75 -107/-111/-75 -87/-107/-75 
f -88/-108/-75 -106/-110/-75 -87/-107/-75 
f -102/-106/-74 -103/-111/-74 -88/-108/-74 
f -88/-108/-73 -86/-105/-73 -102/-106/-73 
f -88/-108/-72 -87/-107/-72 -85/-104/-72 
f -88/-108/-71 -85/-104/-71 -84/-103/-71 
f -86/-105/-70 -88/-108/-70 -84/-103/-70 
f -95/-102/-69 -92/-101/-69 -108/-100/-69 
f -83/-99/-69 -95/-102/-69 -108/-100/-69 
f -109/-98/-68 -83/-99/-68 -108/-100/-68 
usemtl wood
f -82/-97/-67 -81/-96/-67 -87/-95/-67 
f -87/-95/-66 -107/-94/-66 -82/-97/-66 
f -83/-93/-65 -109/-92/-65 -110/-91/-65 
f -110/-91/-64 -111/-90/-64 -98/-89/-64 
f -110/-91/-63 -98/-89/-63 -121/-88/-63 
f -110/-91/-62 -121/-88/-62 -118/-87/-62 
f -83/-93/-61 -110/-91/-61 -118/-87/-61 
usemtl garage02
f -80/-86/-83 -79/-85/-83 -78/-84/-83 
f -78/-84/-60 -77/-83/-60 -80/-86/-60 
f -76/-84/-60 -75/-83/-60 -74/-86/-60 
f -74/-86/-60 -73/-85/-60 -76/-84/-60 
f -72/-82/-59 -71/-81/-59 -79/-85/-59 
f -79/-85/-59 -80/-86/-59 -72/-82/-59 
f -70/-80/-58 -69/-79/-58 -77/-83/-58 
f -77/-83/-58 -78/-84/-58 -70/-80/-58 
f -68/-82/-59 -67/-81/-59 -73/-85/-59 
f -73/-85/-59 -74/-86/-59 -68/-82/-59 
f -66/-80/-57 -65/-79/-57 -75/-83/-57 
f -75/-83/-57 -76/-84/-57 -66/-80/-57 
usemtl bricks
f -64/-78/-56 -63/-77/-56 -62/-76/-56 
f -62/-76/-56 -61/-75/-56 -64/-78/-56 
f -60/-74/-55 -59/-73/-55 -58/-72/-54 
f -58/-72/-54 -62/-76/-55 -63/-77/-55 
f -60/-74/-55 -58/-72/-54 -63/-77/-55 
f -64/-78/-53 -61/-75/-53 -57/-71/-53 
f -64/-78/-53 -57/-71/-53 -56/-70/-53 
f -64/-78/-52 -56/-70/-52 -55/-69/-52 
f -54/-68/-53 -64/-78/-53 -55/-69/-53 
usemtl roof
f -53/-67/-51 -52/-66/-51 -51/-65/-51 
f -51/-65/-50 -50/-64/-50 -53/-67/-50 
usemtl garage01
f -49/-63/-55 -48/-62/-55 -47/-61/-55 
f -47/-61/-49 -46/-60/-49 -49/-63/-49 
f -45/-63/-49 -44/-62/-49 -43/-61/-49 
f -43/-61/-55 -42/-60/-55 -45/-63/-55 
f -41/-61/-55 -40/-60/-55 -39/-63/-55 
f -39/-63/-55 -38/-62/-55 -41/-61/-55 
f -37/-61/-49 -36/-60/-49 -35/-63/-49 
f -35/-63/-55 -34/-62/-55 -37/-61/-55 
f -33/-59/-48 -32/-58/-48 -48/-62/-48 
f -48/-62/-48 -49/-63/-48 -33/-59/-48 
f -32/-57/-47 -31/-56/-47 -47/-61/-47 
f -47/-61/-47 -48/-62/-47 -32/-57/-47 
f -31/-55/-46 -30/-54/-46 -46/-60/-46 
f -46/-60/-46 -47/-61/-46 -31/-55/-46 
f -29/-59/-45 -28/-58/-45 -44/-62/-45 
f -44/-62/-45 -45/-63/-45 -29/-59/-45 
f -28/-57/-47 -27/-56/-47 -43/-61/-47 
f -43/-61/-47 -44/-62/-47 -28/-57/-47 
f -27/-55/-44 -26/-54/-44 -42/-60/-44 
f -42/-60/-44 -43/-61/-44 -27/-55/-44 
f -25/-59/-43 -24/-58/-43 -38/-62/-43 
f -38/-62/-43 -39/-63/-43 -25/-59/-43 
f -24/-57/-47 -23/-56/-47 -41/-61/-47 
f -41/-61/-47 -38/-62/-47 -24/-57/-47 
f -23/-55/-44 -22/-54/-44 -40/-60/-44 
f -40/-60/-44 -41/-61/-44 -23/-55/-44 
f -21/-59/-42 -20/-58/-42 -34/-62/-42 
f -34/-62/-42 -35/-63/-42 -21/-59/-42 
f -20/-57/-47 -19/-56/-47 -37/-61/-47 
f -37/-61/-47 -34/-62/-47 -20/-57/-47 
f -19/-55/-44 -18/-54/-44 -36/-60/-44 
f -36/-60/-44 -37/-61/-44 -19/-55/-44 
usemtl roof
f -61/-53/-41 -62/-52/-41 -53/-67/-41 
f -53/-67/-40 -50/-64/-40 -61/-53/-40 
f -62/-51/-39 -17/-50/-39 -16/-49/-39 
f -16/-49/-38 -53/-67/-38 -62/-51/-38 
f -52/-66/-37 -53/-67/-37 -16/-49/-37 
f -16/-49/-36 -15/-48/-36 -52/-66/-36 
f -51/-47/-35 -52/-46/-35 -15/-45/-35 
f -15/-45/-34 -14/-44/-34 -51/-47/-34 
f -50/-64/-33 -51/-65/-33 -14/-43/-33 
f -14/-43/-32 -13/-42/-32 -50/-64/-32 
f -61/-41/-31 -50/-64/-31 -13/-42/-31 
f -13/-42/-30 -57/-40/-30 -61/-41/-30 
f -17/-50/-29 -12/-39/-29 -11/-38/-29 
f -11/-38/-28 -16/-49/-28 -17/-50/-28 
usemtl garage02
f -10/-37/-27 -98/-36/-60 -99/-35/-83 
f -99/-35/-83 -97/-34/-84 -10/-37/-27 
f -101/-36/-84 -9/-37/-60 -96/-34/-83 
f -96/-34/-83 -100/-35/-83 -101/-36/-84 
usemtl wood
f -83/-33/-26 -8/-32/-26 -94/-119/-26 
f -94/-119/-26 -95/-120/-26 -83/-33/-26 
usemtl garage02
f -98/-36/-25 -10/-37/-25 -120/-31/-25 
f -120/-31/-24 -121/-30/-24 -98/-36/-24 
usemtl wood
f -8/-29/-25 -83/-28/-25 -118/-151/-25 
f -118/-151/-25 -119/-152/-25 -8/-29/-25 
usemtl garage02
f -9/-37/-79 -101/-36/-79 -90/-30/-79 
f -90/-30/-81 -91/-31/-81 -9/-37/-81 
usemtl roof
f -15/-48/-23 -16/-49/-23 -11/-38/-23 
f -11/-38/-22 -7/-27/-22 -15/-48/-22 
f -14/-26/-21 -15/-25/-21 -7/-24/-21 
f -14/-26/-20 -7/-24/-20 -6/-23/-20 
f -5/-22/-20 -14/-26/-20 -6/-23/-20 
f -13/-42/-19 -14/-43/-19 -5/-21/-19 
f -5/-21/-18 -4/-20/-18 -13/-42/-18 
f -57/-40/-17 -13/-42/-17 -4/-20/-17 
f -4/-20/-16 -56/-19/-16 -57/-40/-16 
f -3/-18/-20 -5/-22/-20 -6/-23/-20 
f -6/-23/-15 -2/-17/-15 -3/-18/-15 
usemtl bricks
f -58/-72/-54 -12/-16/-14 -17/-15/-13 
f -17/-15/-13 -62/-76/-55 -58/-72/-54 
usemtl roof
f -7/-14/-12 -11/-13/-11 -12/-12/-10 
f -12/-12/-10 -6/-11/-9 -7/-14/-12 
f -12/-12/-8 -1/-10/-8 -6/-11/-8 
usemtl wood
f -101/-9/-7 -102/-8/-7 -86/-7/-7 
f -90/-6/-6 -101/-9/-6 -86/-7/-6 
f -89/-96/-6 -90/-6/-6 -86/-7/-6 
f -89/-96/-5 -86/-7/-5 -84/-95/-5 
usemtl roof02
f -107/-5/-4 -108/-4/-3 -92/-3/-2 
f -92/-3/-2 -82/-2/-1 -107/-5/-4 
usemtl bricks
f -12/-16/-8 -58/-72/-8 -1/-1/-8 
# 157 faces

