# 3ds Max Wavefront OBJ Exporter v0.94b - (c)2007 guruware
# File Created: 13.11.2010 19:13:02

mtllib Viru26a.mtl

#
# object Viru26a
#

v  286.891815 -102.864586 6.711426
v  286.891815 -102.864586 9.379460
v  286.470154 -98.852173 9.379460
v  286.470154 -98.852173 6.711425
v  288.327179 -104.432350 6.711424
v  288.327179 -104.432350 9.379460
v  287.741516 -104.076263 9.379460
v  287.741516 -104.076271 6.711424
v  288.983521 -104.553154 6.711425
v  288.983521 -104.553154 9.379460
v  290.063202 -104.512245 6.711425
v  290.063202 -104.512245 9.379460
v  290.727264 -104.341873 6.711424
v  290.727264 -104.341873 9.379460
v  291.291290 -103.934982 6.711424
v  291.291290 -103.934982 9.379460
v  291.718811 -103.340988 6.711425
v  291.718811 -103.340988 9.379460
v  291.996887 -102.607758 6.711424
v  291.996887 -102.607758 9.379460
v  291.748535 -97.210770 12.663528
v  291.748535 -97.210770 9.379459
v  291.459991 -96.645050 9.379460
v  291.459991 -96.645050 12.663528
v  289.601715 -95.694618 9.379459
v  287.769592 -96.244171 9.379460
v  287.769592 -96.244171 12.663528
v  289.601715 -95.694611 12.663528
v  286.470154 -98.852173 12.663528
v  286.891815 -102.864586 12.663529
v  286.706238 -102.939812 13.053530
v  286.274078 -98.827438 13.053528
v  287.497192 -103.807495 12.663529
v  287.369232 -103.975258 13.053530
v  287.741516 -104.076263 12.663529
v  288.327179 -104.432343 12.663530
v  288.271545 -104.653732 13.053530
v  287.633179 -104.265617 13.053530
v  288.983521 -104.553154 12.663529
v  288.976715 -104.783539 13.053530
v  290.063202 -104.512245 12.663529
v  290.091553 -104.741295 13.053530
v  290.727264 -104.341873 12.663530
v  290.803223 -104.558708 13.053530
v  291.291290 -103.934982 12.663529
v  291.419434 -104.114143 13.053530
v  291.718811 -103.340988 12.663529
v  291.883636 -103.469215 13.053530
v  291.996857 -102.607758 12.663528
v  292.191742 -102.656746 13.053529
v  291.938141 -97.145607 13.053529
v  291.590607 -96.464157 13.053529
v  289.613159 -95.452774 13.053528
v  287.666412 -96.036705 13.053528
v  287.167847 -96.985481 12.663528
v  287.017059 -96.836662 13.053528
v  286.960907 -97.344246 12.663528
v  286.797302 -97.217651 13.053528
v  286.706238 -102.939812 14.499680
v  286.274078 -98.827438 14.499679
v  288.271545 -104.653732 14.499680
v  287.633179 -104.265617 14.499680
v  288.976715 -104.783539 14.499680
v  290.091553 -104.741295 14.499680
v  290.803223 -104.558708 14.499680
v  291.419434 -104.114143 14.499680
v  291.883636 -103.469215 14.499680
v  292.191742 -102.656746 14.499680
v  291.590607 -96.464157 14.499680
v  291.938141 -97.145607 14.499680
v  287.666412 -96.036705 14.499679
v  289.613159 -95.452774 14.499679
v  287.017059 -96.836662 14.499678
v  286.797302 -97.217651 14.499678
v  286.552917 -103.001953 14.779678
v  286.112091 -98.806999 14.779678
v  287.369232 -103.975258 14.499680
v  287.263550 -104.113838 14.779678
v  288.225586 -104.836617 14.779678
v  287.543701 -104.422043 14.779678
v  288.971130 -104.973846 14.779678
v  290.114929 -104.930511 14.779678
v  290.865936 -104.737831 14.779678
v  291.525330 -104.262146 14.779678
v  292.019775 -103.575142 14.779678
v  292.352722 -102.697212 14.779678
v  292.094788 -97.091774 14.779678
v  291.698486 -96.314728 14.779678
v  289.622589 -95.252991 14.779678
v  287.581177 -95.865318 14.779678
v  286.892487 -96.713730 14.779678
v  286.662170 -97.113068 14.779678
v  289.271362 -98.052124 19.595217
v  289.467010 -102.293205 19.595217
v  286.271973 -98.159706 14.779678
v  286.612091 -98.277596 9.379459
v  286.612091 -98.277596 6.711424
v  286.425842 -98.213036 13.053528
v  286.612091 -98.277596 12.663528
v  286.425842 -98.213036 14.499679
v  287.497192 -103.807495 9.379460
v  287.497192 -103.807495 6.711424
v  291.238892 -96.284279 13.645409
v  291.238892 -96.284279 14.322824
v  291.248352 -96.536804 8.681030
v  291.459991 -96.645050 6.711423
v  291.248352 -96.536804 6.711423
v  290.600098 -95.957550 13.645409
v  290.600098 -95.957550 14.322824
v  290.437134 -96.121902 12.236025
v  291.151184 -96.487106 12.236025
v  290.437134 -96.121902 10.918037
v  291.151184 -96.487106 10.918037
v  292.103577 -100.740555 13.645407
v  292.103577 -100.740555 14.322823
v  292.070587 -100.023666 13.645407
v  292.070587 -100.023666 14.322824
v  291.875000 -99.959389 10.918034
v  291.875000 -99.959389 12.236023
v  286.821716 -103.120155 13.645411
v  286.821716 -103.120155 14.322826
v  291.911896 -100.760712 12.236022
v  287.209290 -103.725441 13.645411
v  287.209290 -103.725441 14.322826
v  286.770020 -97.290817 13.645409
v  286.770020 -97.290817 14.322824
v  290.680542 -96.149467 14.162825
v  291.070801 -96.349075 14.162825
v  291.070801 -96.349075 13.805408
v  290.680542 -96.149467 13.805408
v  290.517609 -96.313820 12.076025
v  290.983093 -96.551903 12.076025
v  290.983124 -96.551903 11.078037
v  290.517609 -96.313820 11.078037
v  291.960876 -100.187531 14.162823
v  291.979156 -100.584808 14.162823
v  291.979156 -100.584808 13.805407
v  291.960876 -100.187531 13.805407
v  291.765320 -100.123253 12.076023
v  291.787476 -100.604958 12.076022
v  291.787476 -100.604958 11.078033
v  291.765320 -100.123253 11.078033
v  287.219391 -103.513733 14.162827
v  286.996552 -103.165672 14.162827
v  286.996552 -103.165672 13.805410
v  287.219391 -103.513733 13.805410
v  287.429688 -103.475227 12.076027
v  287.160614 -103.056114 12.076027
v  287.160614 -103.056114 11.340466
v  287.429688 -103.475227 11.340466
v  286.680145 -97.878807 14.162826
v  286.823334 -97.495079 14.162826
v  286.823334 -97.495079 13.805409
v  286.680145 -97.878807 13.805409
v  286.837372 -98.021591 12.076025
v  287.010376 -97.558685 12.076025
v  287.010376 -97.558685 11.078037
v  286.837372 -98.021591 11.078037
v  286.551392 -100.617432 7.992146
v  286.551392 -100.617424 12.482942
v  286.452209 -99.705856 10.819820
v  286.452209 -99.705856 7.992146
v  286.560486 -99.688576 7.992146
v  286.659637 -100.600151 7.992146
v  286.650543 -101.528999 7.992146
v  286.758820 -101.511726 7.992146
v  286.758820 -101.511726 10.819819
v  286.650543 -101.528999 10.819819
v  286.659637 -100.600151 12.482942
v  286.560486 -99.688576 10.819820
v  290.274597 -96.221840 8.681030
v  291.195160 -96.692665 8.681030
v  291.195160 -96.692665 6.711423
v  290.274597 -96.221840 6.711423
v  291.911896 -100.760712 10.918034
v  286.985748 -103.010872 11.180466
v  287.419800 -103.686958 11.180466
v  287.419800 -103.686958 12.236027
v  286.985748 -103.010872 12.236028
v  286.518860 -97.963776 13.645409
v  286.518860 -97.963768 14.322825
v  286.957123 -97.354393 10.918037
v  286.676056 -98.106453 10.918037
v  286.676056 -98.106453 12.236025
v  286.957123 -97.354393 12.236026
v  290.327789 -96.065979 6.711423
v  290.327789 -96.065979 8.681030
v  287.167847 -96.985481 9.379459
v  287.769592 -96.244171 6.711423
v  287.167847 -96.985481 6.711423
v  286.960480 -97.345459 9.379459
v  286.960907 -97.344246 6.711424
v  290.727264 -104.341873 11.840089
v  290.850769 -104.252777 11.960390
v  291.012695 -104.135956 12.007355
v  291.174652 -104.019127 11.960390
v  291.291290 -103.934982 11.846756
v  291.748535 -97.210770 6.711424
v  289.601715 -95.694618 6.711423
v  291.376526 -103.816528 11.626497
v  291.399261 -103.784966 11.391321
v  291.397552 -103.787354 9.422637
v  291.291412 -103.934784 9.422637
v  290.727264 -104.341873 9.422637
v  290.591766 -104.376640 11.626496
v  290.552490 -104.386719 11.391321
v  290.554565 -104.386185 9.422636
v  291.360535 -103.785370 11.626497
v  291.253540 -103.861504 11.846758
v  291.136475 -103.944809 11.960392
v  290.973938 -104.060455 12.007355
v  290.811401 -104.176109 11.960392
v  290.687439 -104.264297 11.840090
v  290.575104 -104.344223 11.626496
v  290.542542 -104.367386 11.391321
v  290.544281 -104.366142 9.422637
v  290.687439 -104.264282 9.422638
v  291.253723 -103.861359 9.422638
v  291.386871 -103.766602 9.422637
v  291.389038 -103.765083 11.391321
# 220 vertices

vn -0.993845 -0.110782 0.000000
vn -0.993845 -0.110782 -0.000000
vn -0.448139 -0.893964 0.000000
vn -0.448138 -0.893964 0.000000
vn -0.141319 -0.989964 0.000000
vn -0.141320 -0.989964 0.000000
vn 0.043504 -0.999053 0.000000
vn 0.220566 -0.975372 -0.000000
vn 0.220567 -0.975372 0.000000
vn 0.521493 -0.853256 0.000000
vn 0.521492 -0.853256 -0.000000
vn 0.756614 -0.653861 0.000000
vn 0.907059 -0.421004 0.000000
vn 0.857944 0.513743 -0.000000
vn 0.857944 0.513742 -0.000000
vn -0.253677 0.967289 -0.000000
vn -0.856064 -0.095424 -0.507985
vn -0.689033 -0.522906 -0.501800
vn -0.690969 -0.522927 -0.499108
vn -0.386011 -0.770030 -0.507985
vn -0.386010 -0.770030 -0.507985
vn -0.121729 -0.852721 -0.507985
vn -0.121728 -0.852721 -0.507985
vn 0.037473 -0.860550 -0.507985
vn 0.037472 -0.860551 -0.507985
vn 0.189988 -0.840152 -0.507985
vn 0.449196 -0.734965 -0.507985
vn 0.651721 -0.563214 -0.507985
vn 0.651721 -0.563215 -0.507985
vn 0.781310 -0.362638 -0.507985
vn 0.781309 -0.362638 -0.507985
vn 0.860648 0.035147 -0.507985
vn 0.739004 0.442520 -0.507986
vn 0.739004 0.442520 -0.507985
vn 0.333102 0.794351 -0.507985
vn -0.218509 0.833190 -0.507985
vn -0.218509 0.833189 -0.507986
vn -0.617776 0.600253 -0.507986
vn -0.617776 0.600253 -0.507985
vn -0.706771 0.492368 -0.507985
vn 0.220566 -0.975372 0.000000
vn 0.521494 -0.853255 0.000000
vn 0.756614 -0.653862 0.000000
vn 0.907059 -0.421003 0.000000
vn -0.717206 0.696862 -0.000000
vn -0.820523 0.571613 -0.000000
vn -0.822383 -0.091669 -0.561501
vn -0.822382 -0.091669 -0.561502
vn -0.663261 -0.501958 -0.555089
vn -0.665081 -0.502359 -0.552542
vn -0.370823 -0.739734 -0.561502
vn -0.370823 -0.739734 -0.561501
vn -0.116939 -0.819172 -0.561501
vn -0.116938 -0.819171 -0.561502
vn 0.035998 -0.826693 -0.561501
vn 0.182513 -0.807096 -0.561502
vn 0.182513 -0.807097 -0.561501
vn 0.431523 -0.706048 -0.561501
vn 0.431523 -0.706048 -0.561502
vn 0.626080 -0.541055 -0.561501
vn 0.750569 -0.348370 -0.561502
vn 0.750569 -0.348371 -0.561501
vn 0.826787 0.033765 -0.561501
vn 0.826786 0.033765 -0.561502
vn 0.709928 0.425109 -0.561502
vn 0.709928 0.425109 -0.561501
vn 0.319996 0.763098 -0.561501
vn 0.319996 0.763098 -0.561502
vn -0.209912 0.800408 -0.561502
vn -0.209912 0.800408 -0.561501
vn -0.593470 0.576636 -0.561502
vn -0.678963 0.472996 -0.561502
vn 0.814294 0.033254 0.579499
vn 0.814343 0.033372 0.579423
vn -0.783254 -0.032097 0.620873
vn -0.799763 -0.089148 0.593660
vn -0.782170 0.240721 0.574685
vn -0.612439 0.595066 0.520399
vn 0.335330 0.799665 0.498085
vn -0.566522 -0.614391 0.549160
vn -0.122692 -0.859475 0.496235
vn 0.191901 -0.848613 0.492980
vn 0.635651 -0.549326 0.542392
vn 0.750072 -0.348138 0.562309
vn 0.445729 -0.729292 0.519094
vn 0.038079 -0.874474 0.483575
vn -0.662180 -0.500167 0.557988
vn -0.381345 -0.760722 0.525241
vn -0.692355 0.482326 0.536662
vn -0.223245 0.851248 0.474909
vn 0.699524 0.418880 0.578969
vn -0.955760 0.294146 0.000000
vn -0.823259 0.253367 -0.507985
vn -0.955761 0.294145 -0.000000
vn -0.790869 0.243398 -0.561502
vn -0.785632 0.359558 -0.503489
vn -0.785328 0.358920 -0.504416
vn -0.755397 0.345240 -0.556942
vn -0.754984 0.344698 -0.557838
vn -0.757774 0.345972 0.553247
vn -0.677888 -0.735166 0.000000
vn -0.677889 -0.735164 -0.000000
vn -0.583909 -0.633247 -0.507985
vn -0.677887 -0.735166 0.000000
vn -0.560935 -0.608332 -0.561501
vn 0.386714 0.922200 -0.000000
vn 0.386714 0.922200 0.000000
vn 0.386714 0.922200 -0.000001
vn 0.386713 0.922200 0.000001
vn 0.999167 0.040804 0.000000
vn 0.999167 0.040804 -0.000001
vn -0.797389 -0.603465 0.000000
vn 0.999167 0.040804 -0.000000
vn 0.999167 0.040804 0.000002
vn -0.797388 -0.603467 0.000000
vn -0.797389 -0.603466 -0.000000
vn -0.909513 0.415675 -0.000000
vn -0.909512 0.415677 -0.000000
vn 0.386713 0.922200 -0.000000
vn -0.797389 -0.603466 0.000000
vn -0.796585 -0.604526 -0.000000
vn -0.796585 -0.604526 0.000000
vn -0.909512 0.415677 0.000001
vn -0.909513 0.415676 -0.000001
vn -0.909294 0.416155 0.000000
vn -0.909294 0.416154 -0.000000
vn -0.993353 -0.115108 -0.000000
vn -0.000001 0.000000 -1.000000
vn 0.143764 -0.989612 0.000000
vn 0.143762 -0.989612 0.000000
vn 0.125900 -0.866650 0.482770
vn 0.125899 -0.866650 0.482770
vn -0.143763 0.989612 -0.000000
vn -0.993353 -0.115109 -0.000000
vn -0.125900 0.866650 0.482770
vn 0.291032 0.694026 0.658504
vn 0.291032 0.694027 0.658504
vn 0.898304 0.439374 -0.000000
vn 0.291032 0.694026 -0.658505
vn -0.316241 0.948679 -0.000001
vn -0.316242 0.948679 -0.000000
vn 0.291032 0.694026 0.658505
vn 0.898305 0.439373 0.000000
vn -0.316241 0.948679 -0.000000
vn 0.751950 0.030709 0.658505
vn 0.751950 0.030708 0.658505
vn 0.778820 -0.627247 0.000000
vn 0.778820 -0.627248 0.000000
vn 0.751950 0.030709 -0.658504
vn 0.751951 0.030708 -0.658504
vn 0.725080 0.688664 -0.000000
vn 0.751951 0.030709 -0.658504
vn -0.600096 -0.454154 0.658505
vn -0.997481 0.070930 -0.000000
vn -0.997481 0.070929 -0.000000
vn -0.600097 -0.454154 -0.658504
vn -0.600096 -0.454154 -0.658505
vn -0.202711 -0.979239 0.000000
vn -0.599491 -0.454952 0.658505
vn -0.997575 0.069602 0.000000
vn -0.599492 -0.454952 -0.658504
vn -0.201408 -0.979507 0.000000
vn -0.201407 -0.979508 0.000000
vn -0.684479 0.312828 0.658504
vn -0.684478 0.312828 0.658504
vn -0.410754 0.911746 -0.000001
vn -0.410754 0.911746 -0.000000
vn -0.684477 0.312828 -0.658506
vn -0.684478 0.312829 -0.658505
vn -0.958203 -0.286090 0.000000
vn -0.958202 -0.286091 0.000001
vn -0.684313 0.313188 0.658505
vn -0.410274 0.911962 -0.000000
vn -0.684313 0.313189 -0.658505
vn -0.684313 0.313189 -0.658504
vn -0.958353 -0.285587 0.000000
vn 0.922200 -0.386714 -0.000000
vn 0.000000 -0.000000 -1.000000
vn -0.922200 0.386714 0.000000
vn -0.797389 -0.603466 0.000001
vn -0.797389 -0.603466 0.000002
vn -0.796585 -0.604527 -0.000000
vn -0.909513 0.415676 -0.000000
vn -0.909513 0.415675 -0.000001
vn -0.909513 0.415676 0.000000
vn -0.909294 0.416154 0.000000
vn -0.909295 0.416153 -0.000000
vn -0.717206 0.696861 -0.000000
vn -0.820832 0.571170 -0.000000
vn -0.820523 0.571613 0.000089
vn 0.521493 -0.853255 0.000000
vn 0.521493 -0.853256 -0.000000
vn 0.907059 -0.421003 -0.000000
vn -0.253677 0.967289 0.000000
vn -0.955761 0.294145 0.000000
vn -0.955761 0.294146 0.000000
vn -0.820523 0.571614 -0.000000
vn -0.820832 0.571170 -0.000073
vn -0.909303 0.416134 0.000000
vn -0.909292 0.416158 -0.000000
vn -0.909294 0.416154 -0.000001
vn 0.386715 0.922199 -0.000000
vn -0.796584 -0.604527 -0.000000
vn -0.796584 -0.604528 0.000000
vn -0.796586 -0.604525 0.000000
vn -0.796586 -0.604526 0.000000
vn -0.909513 0.415676 0.000001
vn 0.756613 -0.653863 0.000000
vn 0.756614 -0.653861 -0.000000
vn 0.756614 -0.653862 -0.000000
vn 0.756614 -0.653861 -0.000001
vn 0.756614 -0.653861 -0.000002
vn 0.521492 -0.853254 0.001806
vn 0.521576 -0.853205 0.000000
vn 0.220565 -0.975372 0.000000
vn 0.220549 -0.975376 0.000005
vn 0.220567 -0.975372 -0.000000
vn 0.220566 -0.975372 0.000001
vn 0.516399 -0.856348 -0.000010
vn 0.516398 -0.856349 -0.000009
vn 0.516398 -0.856349 -0.000011
vn 0.516391 -0.856353 -0.000001
vn 0.516397 -0.856349 -0.000011
vn 0.516399 -0.856348 -0.000011
vn 0.516397 -0.856350 -0.000010
vn 0.516401 -0.856347 -0.000011
vn 0.516398 -0.856348 -0.000011
vn -0.844162 -0.509048 -0.168105
vn -0.844161 -0.509050 -0.168105
vn -0.707072 -0.426374 -0.564140
vn -0.707070 -0.426378 -0.564140
vn -0.486353 -0.293272 -0.823075
vn -0.172315 -0.103898 -0.979547
vn 0.172305 0.103915 -0.979547
vn 0.172305 0.103916 -0.979547
vn 0.486342 0.293285 -0.823076
vn 0.486342 0.293285 -0.823077
vn 0.688462 0.415157 -0.594697
vn 0.688460 0.415163 -0.594695
vn 0.840557 0.506873 -0.191164
vn 0.840556 0.506874 -0.191164
vn 0.856349 0.516397 0.001234
vn 0.856349 0.516396 0.001233
vn -0.000001 -0.000013 1.000000
vn -0.000001 -0.000012 1.000000
vn 0.000006 -0.000009 1.000000
vn 0.000005 -0.000009 1.000000
vn 0.000009 -0.000006 1.000000
vn 0.000010 -0.000007 1.000000
vn -0.856347 -0.516399 0.001541
vn -0.856348 -0.516397 0.001541
# 251 vertex normals

vt 6.523855 0.000976 0.000000
vt 6.523855 0.894058 0.000000
vt 5.173075 0.894070 0.000000
vt 5.173075 0.000988 0.000000
vt 7.308095 0.000953 0.000000
vt 7.308105 0.894035 0.000000
vt 7.048036 0.894044 0.000000
vt 7.048032 0.000961 0.000000
vt 7.572597 0.000944 0.000000
vt 7.572611 0.894027 0.000000
vt 8.004903 0.000933 0.000000
vt 8.004921 0.894015 0.000000
vt 8.277954 0.000925 0.000000
vt 8.277973 0.894007 0.000000
vt 8.544502 0.000919 0.000000
vt 8.544522 0.894001 0.000000
vt 0.265977 0.001265 0.000000
vt 0.265977 0.894347 0.000000
vt 0.000251 0.894348 0.000000
vt 0.000251 0.001265 0.000000
vt 0.538287 0.001262 0.000000
vt 0.538287 0.894344 0.000000
vt 2.347023 1.993628 0.000000
vt 2.347023 0.894339 0.000000
vt 2.566371 0.894328 0.000000
vt 2.566464 1.993616 0.000000
vt 3.367199 0.894219 0.000000
vt 4.127212 0.894131 0.000000
vt 4.127286 1.993421 0.000000
vt 3.367315 1.993510 0.000000
vt 6.553852 0.001843 0.000000
vt 8.352307 0.001843 0.000000
vt 8.375821 0.203628 0.000000
vt 6.532562 0.203628 0.000000
vt 8.408035 0.003048 0.000000
vt 8.931329 0.002699 0.000000
vt 8.949905 0.203627 0.000000
vt 9.153005 0.001842 0.000000
vt 9.499267 0.001843 0.000000
vt 9.515960 0.203628 0.000000
vt 9.138550 0.203627 0.000000
vt 9.532654 0.001844 0.000000
vt 9.884820 0.001843 0.000000
vt 9.894344 0.203628 0.000000
vt 9.903869 0.001844 0.000000
vt 10.479450 0.001844 0.000000
vt 10.488641 0.203629 0.000000
vt 10.497834 0.001845 0.000000
vt 10.861378 0.001845 0.000000
vt 10.878245 0.203630 0.000000
vt 10.895116 0.001845 0.000000
vt 11.250002 0.001845 0.000000
vt 11.265993 0.203630 0.000000
vt 11.281984 0.001845 0.000000
vt 11.635775 0.001846 0.000000
vt 11.650121 0.203631 0.000000
vt 11.664468 0.001846 0.000000
vt 12.027027 0.001846 0.000000
vt 12.051859 0.203631 0.000000
vt 0.045972 0.001931 0.000000
vt 2.454144 0.001931 0.000000
vt 2.480248 0.203716 0.000000
vt 0.021139 0.203715 0.000000
vt 2.506351 0.001931 0.000000
vt 2.798408 0.001931 0.000000
vt 2.832022 0.203716 0.000000
vt 2.865637 0.001888 0.000000
vt 3.931869 0.001887 0.000000
vt 3.966634 0.203629 0.000000
vt 4.001399 0.001844 0.000000
vt 5.013289 0.001844 0.000000
vt 5.041841 0.203629 0.000000
vt 5.070392 0.001844 0.000000
vt 5.536786 0.001843 0.000000
vt 5.545134 0.203628 0.000000
vt 5.553483 0.001844 0.000000
vt 5.750132 0.001844 0.000000
vt 5.753963 0.203629 0.000000
vt 8.375821 0.848131 0.000000
vt 6.532562 0.848131 0.000000
vt 9.515959 0.848132 0.000000
vt 9.138549 0.848131 0.000000
vt 9.894344 0.848132 0.000000
vt 10.488641 0.848133 0.000000
vt 10.878245 0.848133 0.000000
vt 11.265992 0.848134 0.000000
vt 11.650120 0.848135 0.000000
vt 12.051858 0.848135 0.000000
vt 2.832071 0.848219 0.000000
vt 2.480248 0.848219 0.000000
vt 5.041841 0.848132 0.000000
vt 3.966681 0.848132 0.000000
vt 5.545134 0.848132 0.000000
vt 5.753963 0.848132 0.000000
vt 8.395248 0.998936 0.000000
vt 6.514975 0.998935 0.000000
vt 8.949905 0.848131 0.000000
vt 8.965251 0.998153 0.000000
vt 8.349211 0.997835 0.000000
vt 9.529748 0.998936 0.000000
vt 9.126607 0.998935 0.000000
vt 9.902212 0.998937 0.000000
vt 9.502168 0.998937 0.000000
vt 10.496235 0.998937 0.000000
vt 9.886474 0.998937 0.000000
vt 10.892180 0.998938 0.000000
vt 10.481048 0.998937 0.000000
vt 11.279201 0.998939 0.000000
vt 10.864311 0.998938 0.000000
vt 11.661972 0.998939 0.000000
vt 11.252782 0.998938 0.000000
vt 12.072371 0.998939 0.000000
vt 11.638269 0.998940 0.000000
vt 0.021139 0.848219 0.000000
vt 2.501812 0.999024 0.000000
vt 0.000625 0.999023 0.000000
vt 2.859835 0.999024 0.000000
vt 2.458684 0.999024 0.000000
vt 3.995405 0.998981 0.000000
vt 2.804307 0.998981 0.000000
vt 5.065426 0.998937 0.000000
vt 3.937959 0.998937 0.000000
vt 5.552032 0.998937 0.000000
vt 5.018254 0.998937 0.000000
vt 5.757128 0.998937 0.000000
vt 5.538237 0.998937 0.000000
vt 0.003629 0.006324 0.000000
vt 1.872229 0.006258 0.000000
vt 1.585236 1.973627 0.000000
vt 0.171446 1.973562 0.000000
vt 3.356268 1.994721 0.000000
vt 1.944264 2.053991 0.000000
vt 2.071928 0.001787 0.000000
vt 3.476105 0.002684 0.000000
vt 4.572790 0.003033 0.000000
vt 3.950803 1.963264 0.000000
vt 4.346281 0.003414 0.000000
vt 5.041504 0.003937 0.000000
vt 4.698721 1.881600 0.000000
vt 4.642727 0.003987 0.000000
vt 6.011474 1.851536 0.000000
vt 5.340760 0.002992 0.000000
vt 6.230613 0.002349 0.000000
vt 9.495416 1.919981 0.000000
vt 9.261701 0.001640 0.000000
vt 9.411290 0.001522 0.000000
vt 8.370345 1.849441 0.000000
vt 7.990842 0.002571 0.000000
vt 8.289707 0.002649 0.000000
vt 9.834139 1.844362 0.000000
vt 9.878045 0.003162 0.000000
vt 10.194871 0.003089 0.000000
vt 9.456224 1.910809 0.000000
vt 9.498053 0.002388 0.000000
vt 9.803753 0.002680 0.000000
vt 8.687332 0.003193 0.000000
vt 8.317355 1.942600 0.000000
vt 8.363020 0.003621 0.000000
vt 10.180559 1.878550 0.000000
vt 10.229232 0.002904 0.000000
vt 10.549026 0.007283 0.000000
vt 7.419743 1.834453 0.000000
vt 7.173783 0.002338 0.000000
vt 7.629324 0.002991 0.000000
vt 9.220622 1.934165 0.000000
vt 8.719267 0.002132 0.000000
vt 9.179502 0.002076 0.000000
vt 8.032154 1.886110 0.000000
vt 7.663043 0.001614 0.000000
vt 7.964223 0.001876 0.000000
vt 4.959868 1.903412 0.000000
vt 5.139154 0.003156 0.000000
vt 5.302684 0.003063 0.000000
vt 6.680906 1.823789 0.000000
vt 6.292510 0.002619 0.000000
vt 7.134824 0.001008 0.000000
vt -0.469195 1.984452 0.000000
vt -0.762408 0.018001 0.000000
vt -0.462714 0.018001 0.000000
vt 4.970942 0.894084 0.000000
vt 4.970942 0.001002 0.000000
vt 6.511271 0.001843 0.000000
vt 6.244777 0.203628 0.000000
vt 6.242137 0.001843 0.000000
vt 6.244778 0.848131 0.000000
vt 6.550150 0.998935 0.000000
vt 6.246958 0.998936 0.000000
vt 5.768522 0.002333 0.000000
vt 6.228859 0.002455 0.000000
vt 6.257927 0.998378 0.000000
vt 5.741935 0.998490 0.000000
vt 3.666194 1.930463 0.000000
vt 3.823245 0.005837 0.000000
vt 4.208734 0.006128 0.000000
vt 6.916888 0.894051 0.000000
vt 6.916888 0.000968 0.000000
vt 9.124094 0.001842 0.000000
vt 8.949480 0.001842 0.000000
vt 9.150492 0.998935 0.000000
vt 8.950257 0.998936 0.000000
vt 3.033836 0.467511 0.000000
vt 3.033881 0.769414 0.000000
vt 2.657574 0.660527 0.000000
vt 2.566296 0.001247 0.000000
vt 2.657502 0.001236 0.000000
vt 3.400371 0.467454 0.000000
vt 3.400416 0.769357 0.000000
vt 3.007281 1.850456 0.000000
vt 2.699569 1.850495 0.000000
vt 3.007249 1.409281 0.000000
vt 2.699545 1.409322 0.000000
vt 0.876156 0.467497 0.000000
vt 0.876156 0.769400 0.000000
vt 1.196038 0.467497 0.000000
vt 1.196038 0.769400 0.000000
vt 1.425855 1.409355 0.000000
vt 1.425855 1.850530 0.000000
vt 8.475809 0.467411 0.000000
vt 8.475810 0.769313 0.000000
vt 0.538287 1.993633 0.000000
vt 1.157303 1.850531 0.000000
vt 8.811399 0.467410 0.000000
vt 8.811399 0.769313 0.000000
vt 5.790041 0.467411 0.000000
vt 5.790041 0.769314 0.000000
vt 0.752764 0.697544 0.000000
vt 0.246361 0.697544 0.000000
vt 0.246361 0.285663 0.000000
vt 0.752765 0.285663 0.000000
vt 0.771598 0.747926 0.000000
vt 0.223243 0.747925 0.000000
vt 0.223243 0.262180 0.000000
vt 0.771598 0.262180 0.000000
vt 0.502738 0.031508 0.000000
vt 0.502717 0.985343 0.000000
vt 0.112682 0.632098 0.000000
vt 0.112695 0.031505 0.000000
vt 0.112613 0.003706 0.000000
vt 0.501130 0.003709 0.000000
vt 0.892781 0.031509 0.000000
vt 0.948463 0.031509 0.000000
vt 0.948450 0.632102 0.000000
vt 0.892768 0.632101 0.000000
vt 0.941146 0.645871 0.000000
vt 0.551096 0.999113 0.000000
vt 0.057000 0.632097 0.000000
vt 0.057013 0.031505 0.000000
vt 0.892699 0.003710 0.000000
vt 0.063553 0.645187 0.000000
vt 0.453589 0.998433 0.000000
vt 0.776501 0.914313 0.000000
vt 0.228338 0.914307 0.000000
vt 0.228348 0.003329 0.000000
vt 0.776510 0.003335 0.000000
vt 0.061979 0.040662 0.000000
vt 0.937147 0.040663 0.000000
vt 0.997765 0.101281 0.000000
vt 0.997765 0.881926 0.000000
vt 0.937146 0.942545 0.000000
vt 0.061979 0.942544 0.000000
vt 0.001359 0.881926 0.000000
vt 0.001360 0.101281 0.000000
vt 0.056365 0.158768 0.000000
vt 0.937242 0.158768 0.000000
vt 0.991673 0.184462 0.000000
vt 0.991673 0.828237 0.000000
vt 0.937242 0.853931 0.000000
vt 0.056365 0.853931 0.000000
vt 0.001934 0.828237 0.000000
vt 0.001934 0.184462 0.000000
vt 0.056882 0.121847 0.000000
vt 0.939192 0.121848 0.000000
vt 0.994319 0.156462 0.000000
vt 0.994319 0.851051 0.000000
vt 0.939192 0.885665 0.000000
vt 0.056882 0.885665 0.000000
vt 0.001755 0.851050 0.000000
vt 0.001755 0.156460 0.000000
vt 0.855138 0.003336 0.000000
vt 0.855129 0.914314 0.000000
vt 0.776500 0.992941 0.000000
vt 0.228338 0.992935 0.000000
vt 0.149710 0.914307 0.000000
vt 0.149720 0.003329 0.000000
vt 6.866645 1.850243 0.000000
vt 6.916888 1.993340 0.000000
vt 6.523855 1.993347 0.000000
vt 6.584829 1.850245 0.000000
vt 6.121868 0.467411 0.000000
vt 6.121868 0.769314 0.000000
vt 4.907545 1.409101 0.000000
vt 4.970943 1.993373 0.000000
vt 4.907547 1.850276 0.000000
vt 4.477513 0.894101 0.000000
vt 4.127152 0.001049 0.000000
vt 4.477479 0.001019 0.000000
vt 4.625647 0.894092 0.000000
vt 4.625187 0.001011 0.000000
vt 5.173075 1.993360 0.000000
vt 7.308118 1.993325 0.000000
vt 7.048040 1.993333 0.000000
vt 7.572628 1.993316 0.000000
vt 8.004943 1.993304 0.000000
vt 8.277996 1.993297 0.000000
vt 8.277990 1.717663 0.000000
vt 8.336352 1.757931 0.000000
vt 8.412884 1.773649 0.000000
vt 8.489414 1.757927 0.000000
vt 8.544546 1.993290 0.000000
vt 8.544540 1.719889 0.000000
vt 0.265977 1.993636 0.000000
vt 2.347023 0.001257 0.000000
vt 3.367105 0.001135 0.000000
vt 3.054285 0.660473 0.000000
vt 6.866644 1.496910 0.000000
vt 6.584829 1.496912 0.000000
vt 4.477537 1.993390 0.000000
vt 4.625204 1.993382 0.000000
vt 4.628952 1.409103 0.000000
vt 4.628954 1.850278 0.000000
vt 3.054199 0.001178 0.000000
vt 1.157303 1.409356 0.000000
vt 0.000251 1.993637 0.000000
vt 0.000251 1.720235 0.000000
vt 0.053241 1.646507 0.000000
vt 0.067362 1.567786 0.000000
vt 0.066294 0.908800 0.000000
vt 0.000337 0.908800 0.000000
vt 8.544522 0.908454 0.000000
vt 8.277973 0.908460 0.000000
vt 8.222268 1.646168 0.000000
vt 8.206114 1.567447 0.000000
vt 8.206957 0.908462 0.000000
vt 0.938380 0.852774 0.000000
vt 0.819488 0.937842 0.000000
vt 0.689403 0.981722 0.000000
vt 0.508828 0.999845 0.000000
vt 0.328268 0.981686 0.000000
vt 0.190588 0.935203 0.000000
vt 0.065837 0.852686 0.000000
vt 0.029701 0.761841 0.000000
vt 0.031937 0.001396 0.000000
vt 0.190979 0.001413 0.000000
vt 0.820071 0.001476 0.000000
vt 0.968014 0.001490 0.000000
vt 0.970092 0.761935 0.000000
# 346 texture coords

g Viru26a
usemtl wall01
f -220/-346/-251 -219/-345/-251 -218/-344/-251 
f -218/-344/-250 -217/-343/-250 -220/-346/-250 
f -216/-342/-249 -215/-341/-249 -214/-340/-249 
f -214/-340/-248 -213/-339/-248 -216/-342/-248 
f -212/-338/-247 -211/-337/-247 -215/-341/-247 
f -215/-341/-246 -216/-342/-246 -212/-338/-246 
f -210/-336/-245 -209/-335/-245 -211/-337/-245 
f -211/-337/-245 -212/-338/-245 -210/-336/-245 
f -208/-334/-244 -207/-333/-244 -209/-335/-244 
f -209/-335/-243 -210/-336/-243 -208/-334/-243 
f -206/-332/-242 -205/-331/-242 -207/-333/-242 
f -207/-333/-241 -208/-334/-241 -206/-332/-241 
f -204/-330/-240 -203/-329/-240 -205/-328/-240 
f -205/-328/-240 -206/-327/-240 -204/-330/-240 
f -202/-326/-239 -201/-325/-239 -203/-329/-239 
f -203/-329/-239 -204/-330/-239 -202/-326/-239 
f -200/-324/-238 -199/-323/-238 -198/-322/-238 
f -198/-322/-237 -197/-321/-237 -200/-324/-237 
f -196/-320/-236 -195/-319/-236 -194/-318/-236 
f -194/-318/-236 -193/-317/-236 -196/-320/-236 
usemtl wall02
f -192/-316/-235 -191/-315/-235 -190/-314/-235 
f -190/-314/-235 -189/-313/-235 -192/-316/-235 
f -191/-312/-234 -188/-311/-234 -187/-310/-234 
f -187/-310/-233 -190/-314/-233 -191/-312/-233 
f -186/-309/-232 -185/-308/-232 -184/-307/-232 
f -184/-307/-231 -183/-306/-231 -186/-309/-231 
f -185/-305/-230 -182/-304/-230 -181/-303/-230 
f -181/-303/-229 -184/-307/-229 -185/-305/-229 
f -182/-302/-228 -180/-301/-228 -179/-300/-228 
f -179/-300/-227 -181/-303/-227 -182/-302/-227 
f -180/-299/-226 -178/-298/-226 -177/-297/-226 
f -177/-297/-226 -179/-300/-226 -180/-299/-226 
f -178/-296/-225 -176/-295/-225 -175/-294/-225 
f -175/-294/-225 -177/-297/-225 -178/-296/-225 
f -176/-293/-224 -174/-292/-224 -173/-291/-224 
f -173/-291/-223 -175/-294/-223 -176/-293/-223 
f -174/-290/-222 -172/-289/-222 -171/-288/-222 
f -171/-288/-221 -173/-291/-221 -174/-290/-221 
f -172/-287/-220 -200/-286/-220 -170/-285/-220 
f -170/-285/-220 -171/-284/-220 -172/-287/-220 
f -200/-283/-219 -197/-282/-219 -169/-281/-219 
f -169/-281/-218 -170/-285/-218 -200/-283/-218 
f -197/-280/-217 -193/-279/-217 -168/-278/-217 
f -168/-278/-217 -169/-281/-217 -197/-280/-217 
f -193/-277/-216 -194/-276/-216 -167/-275/-216 
f -167/-275/-215 -168/-278/-215 -193/-277/-215 
f -194/-274/-214 -166/-273/-214 -165/-272/-214 
f -165/-272/-213 -167/-275/-213 -194/-274/-213 
f -166/-271/-212 -164/-270/-212 -163/-269/-212 
f -163/-269/-212 -165/-272/-212 -166/-271/-212 
f -189/-313/-251 -190/-314/-251 -162/-268/-251 
f -162/-268/-251 -161/-267/-251 -189/-313/-251 
f -183/-306/-248 -184/-307/-248 -160/-266/-248 
f -160/-266/-248 -159/-265/-248 -183/-306/-248 
f -184/-307/-246 -181/-303/-246 -158/-264/-246 
f -158/-264/-246 -160/-266/-246 -184/-307/-246 
f -181/-303/-245 -179/-300/-245 -157/-263/-245 
f -157/-263/-245 -158/-264/-245 -181/-303/-245 
f -179/-300/-211 -177/-297/-211 -156/-262/-211 
f -156/-262/-211 -157/-263/-211 -179/-300/-211 
f -177/-297/-210 -175/-294/-210 -155/-261/-210 
f -155/-261/-210 -156/-262/-210 -177/-297/-210 
f -175/-294/-209 -173/-291/-209 -154/-260/-209 
f -154/-260/-209 -155/-261/-209 -175/-294/-209 
f -173/-291/-208 -171/-288/-208 -153/-259/-208 
f -153/-259/-208 -154/-260/-208 -173/-291/-208 
f -170/-285/-237 -169/-281/-237 -152/-258/-237 
f -152/-258/-237 -151/-257/-237 -170/-285/-237 
f -168/-278/-236 -167/-275/-236 -150/-256/-236 
f -150/-256/-236 -149/-255/-236 -168/-278/-236 
f -165/-272/-207 -148/-254/-207 -150/-256/-207 
f -150/-256/-207 -167/-275/-207 -165/-272/-207 
f -163/-269/-206 -147/-253/-206 -148/-254/-206 
f -148/-254/-206 -165/-272/-206 -163/-269/-206 
f -161/-267/-205 -162/-268/-205 -146/-252/-205 
f -146/-252/-204 -145/-251/-204 -161/-267/-204 
f -162/-268/-203 -144/-250/-203 -143/-249/-203 
f -143/-249/-202 -146/-248/-202 -162/-268/-202 
f -159/-265/-201 -160/-266/-201 -142/-247/-201 
f -142/-247/-200 -141/-246/-200 -159/-265/-200 
f -160/-266/-199 -158/-264/-199 -140/-245/-199 
f -140/-245/-198 -142/-244/-198 -160/-266/-198 
f -158/-264/-197 -157/-263/-197 -139/-243/-197 
f -139/-243/-197 -140/-242/-197 -158/-264/-197 
f -157/-263/-196 -156/-262/-196 -138/-241/-196 
f -138/-241/-195 -139/-240/-195 -157/-263/-195 
f -156/-262/-194 -155/-261/-194 -137/-239/-194 
f -137/-239/-193 -138/-238/-193 -156/-262/-193 
f -155/-261/-192 -154/-260/-192 -136/-237/-192 
f -136/-237/-192 -137/-236/-192 -155/-261/-192 
f -154/-260/-191 -153/-259/-191 -135/-235/-191 
f -135/-235/-190 -136/-234/-190 -154/-260/-190 
f -153/-233/-189 -151/-257/-189 -134/-232/-189 
f -134/-232/-188 -135/-231/-188 -153/-233/-188 
f -151/-257/-187 -152/-258/-187 -133/-230/-187 
f -133/-230/-186 -134/-229/-186 -151/-257/-186 
f -152/-258/-185 -149/-255/-185 -132/-228/-185 
f -132/-228/-184 -133/-227/-184 -152/-258/-184 
f -149/-255/-183 -150/-256/-183 -131/-226/-183 
f -131/-226/-182 -132/-225/-182 -149/-255/-182 
f -148/-254/-181 -130/-224/-181 -131/-223/-181 
f -131/-223/-181 -150/-256/-181 -148/-254/-181 
f -148/-254/-180 -147/-253/-180 -129/-222/-180 
f -129/-222/-180 -130/-221/-180 -148/-254/-180 
usemtl roof
f -135/-220/-179 -134/-219/-179 -128/-218/-179 
f -128/-218/-178 -127/-217/-178 -135/-220/-178 
f -127/-216/-177 -128/-215/-177 -145/-214/-177 
f -145/-214/-176 -146/-213/-176 -127/-216/-176 
f -145/-212/-175 -128/-211/-175 -126/-210/-175 
f -130/-209/-174 -128/-208/-174 -131/-207/-174 
f -128/-206/-173 -133/-205/-173 -132/-204/-173 
f -127/-203/-172 -143/-202/-172 -141/-201/-172 
f -127/-200/-171 -142/-199/-171 -140/-198/-171 
f -127/-197/-170 -139/-196/-170 -138/-195/-170 
f -127/-194/-169 -137/-193/-169 -136/-192/-169 
f -135/-191/-168 -127/-190/-168 -136/-189/-168 
f -127/-188/-167 -138/-187/-167 -137/-186/-167 
f -127/-185/-166 -140/-184/-166 -139/-183/-166 
f -127/-182/-165 -146/-181/-165 -143/-180/-165 
f -127/-179/-164 -141/-178/-164 -142/-177/-164 
f -128/-176/-163 -130/-175/-163 -129/-174/-163 
f -128/-173/-162 -132/-172/-162 -131/-171/-162 
f -128/-170/-161 -134/-169/-161 -133/-168/-161 
usemtl wall01
f -217/-343/-160 -218/-344/-160 -125/-167/-160 
f -125/-167/-160 -124/-166/-160 -217/-343/-160 
usemtl wall02
f -192/-165/-159 -189/-313/-159 -123/-164/-159 
f -123/-164/-159 -122/-163/-159 -192/-165/-159 
f -189/-313/-158 -161/-267/-158 -121/-162/-158 
f -121/-162/-158 -123/-164/-158 -189/-313/-158 
f -161/-267/-157 -145/-161/-157 -126/-160/-157 
f -126/-160/-157 -121/-162/-157 -161/-267/-157 
f -164/-159/-156 -122/-158/-156 -123/-164/-156 
f -123/-164/-155 -163/-269/-155 -164/-159/-155 
f -147/-253/-154 -121/-162/-154 -126/-157/-154 
f -126/-157/-153 -129/-156/-153 -147/-253/-153 
usemtl roof
f -128/-155/-152 -129/-154/-152 -126/-153/-152 
usemtl wall01
f -213/-339/-151 -214/-340/-151 -120/-152/-151 
f -120/-152/-150 -119/-151/-150 -213/-339/-150 
usemtl wall02
f -186/-150/-149 -183/-306/-149 -187/-310/-149 
f -187/-310/-149 -188/-149/-149 -186/-150/-149 
f -183/-306/-148 -159/-265/-148 -144/-250/-148 
f -144/-250/-148 -187/-310/-148 -183/-306/-148 
f -159/-265/-147 -141/-148/-147 -143/-147/-147 
f -143/-147/-147 -144/-250/-147 -159/-265/-147 
f -152/-258/-146 -169/-281/-146 -118/-146/-146 
f -118/-146/-146 -117/-145/-146 -152/-258/-146 
usemtl wall01
f -116/-144/-146 -115/-143/-146 -114/-142/-146 
usemtl wall02
f -113/-141/-146 -168/-278/-146 -149/-255/-146 
f -149/-255/-146 -112/-140/-146 -113/-141/-146 
f -113/-141/-145 -118/-146/-145 -169/-281/-145 
f -169/-281/-146 -168/-278/-146 -113/-141/-146 
usemtl wall01
f -111/-139/-144 -193/-317/-144 -197/-321/-144 
f -197/-321/-143 -110/-138/-143 -111/-139/-143 
f -109/-137/-146 -196/-320/-146 -193/-317/-146 
f -193/-317/-145 -111/-139/-145 -109/-137/-145 
f -108/-136/-146 -198/-322/-146 -196/-320/-146 
f -196/-320/-146 -109/-137/-146 -108/-136/-146 
usemtl wall02
f -153/-233/-142 -171/-284/-142 -107/-135/-142 
f -107/-135/-142 -106/-134/-142 -153/-233/-142 
f -112/-140/-146 -149/-255/-146 -152/-258/-146 
f -152/-258/-145 -117/-145/-145 -112/-140/-145 
f -105/-133/-142 -170/-285/-142 -151/-257/-142 
f -151/-257/-142 -104/-132/-142 -105/-133/-142 
f -105/-133/-141 -107/-135/-141 -171/-284/-141 
f -171/-284/-142 -170/-285/-142 -105/-133/-142 
usemtl wall01
f -103/-131/-142 -199/-323/-142 -200/-324/-142 
f -200/-324/-142 -102/-130/-142 -103/-131/-142 
usemtl wall02
f -162/-268/-140 -190/-314/-140 -101/-129/-140 
f -101/-129/-140 -100/-128/-140 -162/-268/-140 
f -104/-132/-139 -151/-257/-139 -153/-233/-139 
f -153/-233/-138 -106/-134/-138 -104/-132/-138 
usemtl wall01
f -102/-130/-142 -200/-324/-142 -172/-127/-142 
f -172/-127/-142 -99/-126/-142 -102/-130/-142 
usemtl wall02
f -98/-125/-137 -187/-310/-137 -144/-250/-137 
f -144/-250/-137 -97/-124/-137 -98/-125/-137 
f -98/-125/-136 -101/-129/-136 -190/-314/-136 
f -190/-314/-136 -187/-310/-136 -98/-125/-136 
f -147/-253/-135 -163/-269/-135 -96/-123/-135 
f -96/-123/-134 -95/-122/-134 -147/-253/-134 
usemtl win01
f -94/-121/-146 -93/-120/-146 -92/-119/-146 
f -92/-119/-146 -91/-118/-146 -94/-121/-146 
usemtl win02
f -90/-117/-133 -89/-116/-133 -88/-115/-133 
f -88/-115/-145 -87/-114/-145 -90/-117/-145 
usemtl win01
f -86/-121/-142 -85/-120/-142 -84/-119/-142 
f -84/-119/-142 -83/-118/-142 -86/-121/-142 
usemtl win02
f -82/-117/-142 -81/-116/-142 -80/-115/-142 
f -80/-115/-142 -79/-114/-142 -82/-117/-142 
usemtl win01
f -78/-121/-132 -77/-120/-132 -76/-119/-132 
f -76/-119/-132 -75/-118/-132 -78/-121/-132 
usemtl win02
f -74/-117/-131 -73/-116/-131 -72/-115/-131 
f -72/-115/-130 -71/-114/-130 -74/-117/-130 
usemtl win01
f -70/-121/-129 -69/-120/-129 -68/-119/-129 
f -68/-119/-128 -67/-118/-128 -70/-121/-128 
usemtl win02
f -66/-117/-127 -65/-116/-127 -64/-115/-127 
f -64/-115/-126 -63/-114/-126 -66/-117/-126 
usemtl detail
f -62/-113/-125 -61/-112/-125 -60/-111/-125 
f -60/-111/-125 -59/-110/-125 -62/-113/-125 
f -58/-109/-124 -57/-108/-124 -62/-113/-124 
f -62/-113/-124 -59/-110/-124 -58/-109/-124 
f -56/-107/-123 -55/-106/-123 -54/-105/-123 
f -54/-105/-122 -53/-104/-122 -56/-107/-122 
f -54/-103/-121 -52/-102/-121 -61/-112/-121 
f -61/-112/-120 -53/-104/-120 -54/-103/-120 
f -60/-111/-119 -51/-101/-119 -58/-100/-119 
f -58/-100/-119 -59/-110/-119 -60/-111/-119 
f -62/-113/-118 -56/-107/-118 -53/-104/-118 
f -53/-104/-118 -61/-112/-118 -62/-113/-118 
f -55/-99/-124 -56/-107/-124 -62/-113/-124 
f -62/-113/-124 -57/-108/-124 -55/-99/-124 
f -51/-98/-117 -60/-111/-117 -61/-112/-117 
f -61/-112/-117 -52/-97/-117 -51/-98/-117 
usemtl door01
f -50/-96/-146 -49/-95/-146 -48/-94/-146 
f -48/-94/-146 -47/-93/-146 -50/-96/-146 
usemtl win01
f -118/-92/-116 -113/-91/-116 -91/-118/-116 
f -91/-118/-115 -92/-119/-115 -118/-92/-115 
f -113/-90/-114 -112/-89/-114 -94/-121/-114 
f -94/-121/-114 -91/-118/-114 -113/-90/-114 
f -112/-88/-113 -117/-87/-113 -93/-120/-113 
f -93/-120/-113 -94/-121/-113 -112/-88/-113 
f -117/-86/-112 -118/-85/-112 -92/-119/-112 
f -92/-119/-111 -93/-120/-111 -117/-86/-111 
usemtl win02
f -108/-84/-110 -109/-83/-110 -87/-114/-110 
f -87/-114/-110 -88/-115/-110 -108/-84/-110 
f -109/-82/-109 -111/-81/-109 -90/-117/-109 
f -90/-117/-109 -87/-114/-109 -109/-82/-109 
f -111/-80/-113 -110/-79/-113 -89/-116/-113 
f -89/-116/-113 -90/-117/-113 -111/-80/-113 
f -110/-78/-111 -108/-77/-111 -88/-115/-111 
f -88/-115/-108 -89/-116/-108 -110/-78/-108 
usemtl win01
f -107/-92/-107 -105/-91/-107 -83/-118/-107 
f -83/-118/-106 -84/-119/-106 -107/-92/-106 
f -105/-90/-105 -104/-89/-105 -86/-121/-105 
f -86/-121/-104 -83/-118/-104 -105/-90/-104 
f -104/-88/-103 -106/-87/-103 -85/-120/-103 
f -85/-120/-102 -86/-121/-102 -104/-88/-102 
f -106/-86/-101 -107/-85/-101 -84/-119/-101 
f -84/-119/-101 -85/-120/-101 -106/-86/-101 
usemtl win02
f -46/-84/-106 -103/-83/-106 -79/-114/-106 
f -79/-114/-106 -80/-115/-106 -46/-84/-106 
f -103/-82/-104 -102/-81/-104 -82/-117/-104 
f -82/-117/-104 -79/-114/-104 -103/-82/-104 
f -102/-80/-103 -99/-79/-103 -81/-116/-103 
f -81/-116/-100 -82/-117/-100 -102/-80/-100 
f -99/-78/-101 -46/-77/-101 -80/-115/-101 
f -80/-115/-101 -81/-116/-101 -99/-78/-101 
usemtl win01
f -101/-92/-99 -98/-91/-99 -75/-118/-99 
f -75/-118/-99 -76/-119/-99 -101/-92/-99 
f -98/-90/-98 -97/-89/-98 -78/-121/-98 
f -78/-121/-97 -75/-118/-97 -98/-90/-97 
f -97/-88/-96 -100/-87/-96 -77/-120/-96 
f -77/-120/-95 -78/-121/-95 -97/-88/-95 
f -100/-86/-94 -101/-85/-94 -76/-119/-94 
f -76/-119/-94 -77/-120/-94 -100/-86/-94 
usemtl win02
f -45/-76/-93 -44/-75/-93 -71/-114/-93 
f -71/-114/-93 -72/-115/-93 -45/-76/-93 
f -44/-74/-92 -43/-73/-92 -74/-117/-92 
f -74/-117/-92 -71/-114/-92 -44/-74/-92 
f -43/-72/-91 -42/-71/-91 -73/-116/-91 
f -73/-116/-91 -74/-117/-91 -43/-72/-91 
f -42/-70/-90 -45/-69/-90 -72/-115/-90 
f -72/-115/-89 -73/-116/-89 -42/-70/-89 
usemtl win01
f -96/-92/-88 -41/-91/-88 -67/-118/-88 
f -67/-118/-87 -68/-119/-87 -96/-92/-87 
f -41/-90/-86 -40/-89/-86 -70/-121/-86 
f -70/-121/-85 -67/-118/-85 -41/-90/-85 
f -40/-88/-84 -95/-87/-84 -69/-120/-84 
f -69/-120/-83 -70/-121/-83 -40/-88/-83 
f -95/-86/-82 -96/-85/-82 -68/-119/-82 
f -68/-119/-81 -69/-120/-81 -95/-86/-81 
usemtl win02
f -39/-84/-80 -38/-83/-80 -63/-114/-80 
f -63/-114/-80 -64/-115/-80 -39/-84/-80 
f -38/-82/-79 -37/-81/-79 -66/-117/-79 
f -66/-117/-79 -63/-114/-79 -38/-82/-79 
f -37/-80/-78 -36/-79/-78 -65/-116/-78 
f -65/-116/-77 -66/-117/-77 -37/-80/-77 
f -36/-78/-76 -39/-77/-76 -64/-115/-76 
f -64/-115/-76 -65/-116/-76 -36/-78/-76 
usemtl door01
f -35/-68/-75 -34/-67/-75 -50/-96/-75 
f -50/-96/-75 -47/-93/-75 -35/-68/-75 
f -34/-66/-74 -116/-65/-74 -49/-95/-74 
f -49/-95/-74 -50/-96/-74 -34/-66/-74 
f -116/-64/-73 -114/-63/-73 -48/-94/-73 
f -48/-94/-73 -49/-95/-73 -116/-64/-73 
usemtl wall02
f -97/-124/-72 -144/-250/-72 -162/-268/-72 
f -162/-268/-71 -100/-128/-71 -97/-124/-71 
usemtl wall01
f -43/-62/-70 -188/-61/-70 -191/-60/-70 
f -191/-60/-70 -42/-59/-70 -43/-62/-70 
usemtl wall02
f -41/-58/-69 -123/-164/-69 -121/-162/-69 
f -121/-162/-68 -40/-57/-68 -41/-58/-68 
f -41/-58/-67 -96/-123/-67 -163/-269/-67 
f -163/-269/-67 -123/-164/-67 -41/-58/-67 
usemtl wall01
f -38/-56/-66 -125/-167/-66 -122/-55/-66 
f -122/-55/-65 -37/-54/-65 -38/-56/-65 
f -33/-53/-207 -195/-319/-207 -32/-52/-207 
f -32/-52/-64 -31/-51/-64 -33/-53/-64 
f -30/-50/-63 -33/-53/-63 -31/-51/-63 
f -31/-51/-62 -29/-49/-62 -30/-50/-62 
f -191/-60/-251 -192/-48/-251 -218/-344/-251 
f -218/-344/-251 -219/-345/-251 -191/-60/-251 
f -185/-47/-248 -186/-46/-248 -214/-340/-248 
f -214/-340/-249 -215/-341/-249 -185/-47/-249 
f -182/-45/-246 -185/-47/-246 -215/-341/-246 
f -215/-341/-247 -211/-337/-247 -182/-45/-247 
f -180/-44/-245 -182/-45/-245 -211/-337/-245 
f -211/-337/-245 -209/-335/-245 -180/-44/-245 
f -178/-43/-61 -28/-42/-61 -27/-41/-61 
f -178/-43/-61 -27/-41/-61 -26/-40/-61 
f -178/-43/-60 -26/-40/-60 -25/-39/-60 
f -176/-38/-61 -178/-43/-61 -25/-39/-61 
f -24/-37/-210 -176/-38/-210 -25/-39/-210 
f -172/-127/-59 -174/-36/-59 -203/-329/-59 
f -203/-329/-239 -201/-325/-239 -172/-127/-239 
f -23/-35/-238 -115/-143/-238 -198/-322/-238 
f -198/-322/-238 -199/-323/-238 -23/-35/-238 
f -22/-34/-58 -32/-52/-58 -195/-319/-58 
f -195/-319/-236 -196/-320/-236 -22/-34/-236 
f -192/-48/-57 -122/-55/-57 -125/-167/-57 
f -125/-167/-56 -218/-344/-56 -192/-48/-56 
f -186/-46/-148 -188/-61/-148 -120/-152/-148 
f -120/-152/-151 -214/-340/-151 -186/-46/-151 
f -116/-144/-144 -34/-33/-144 -196/-320/-144 
f -196/-320/-145 -198/-322/-145 -116/-144/-145 
f -202/-326/-142 -23/-35/-142 -199/-323/-142 
f -199/-323/-142 -201/-325/-142 -202/-326/-142 
f -30/-50/-126 -29/-49/-126 -124/-166/-126 
f -124/-166/-66 -125/-167/-66 -30/-50/-66 
f -44/-32/-130 -45/-31/-130 -219/-345/-130 
f -219/-345/-130 -120/-152/-130 -44/-32/-130 
f -166/-30/-207 -194/-318/-207 -195/-319/-207 
f -195/-319/-207 -33/-53/-207 -166/-30/-207 
f -164/-29/-55 -166/-30/-55 -33/-53/-55 
f -33/-53/-54 -30/-50/-54 -164/-29/-54 
f -39/-28/-53 -36/-27/-53 -164/-29/-53 
f -164/-29/-52 -30/-50/-52 -39/-28/-52 
f -38/-56/-126 -39/-28/-126 -30/-50/-126 
f -30/-50/-126 -125/-167/-126 -38/-56/-126 
f -36/-27/-66 -37/-54/-66 -122/-55/-66 
f -122/-55/-51 -164/-29/-51 -36/-27/-51 
f -34/-33/-146 -22/-34/-146 -196/-320/-146 
f -108/-136/-146 -110/-138/-146 -197/-321/-146 
f -197/-321/-146 -198/-322/-146 -108/-136/-146 
f -34/-33/-146 -35/-26/-146 -22/-34/-146 
f -116/-144/-50 -198/-322/-50 -115/-143/-50 
f -46/-25/-142 -99/-126/-142 -172/-127/-142 
f -172/-127/-142 -201/-325/-142 -46/-25/-142 
f -46/-25/-142 -201/-325/-142 -199/-323/-142 
f -199/-323/-139 -103/-131/-139 -46/-25/-139 
f -119/-151/-131 -120/-152/-131 -219/-345/-131 
f -219/-345/-130 -220/-346/-130 -119/-151/-130 
f -45/-31/-49 -42/-59/-49 -191/-60/-49 
f -191/-60/-48 -219/-345/-48 -45/-31/-48 
f -188/-61/-47 -43/-62/-47 -44/-32/-47 
f -44/-32/-46 -120/-152/-46 -188/-61/-46 
usemtl wall02
f -40/-57/-45 -121/-162/-45 -147/-253/-45 
f -147/-253/-67 -95/-122/-67 -40/-57/-67 
usemtl wall01
f -176/-24/-44 -24/-23/-44 -21/-22/-44 
f -174/-36/-209 -176/-24/-209 -21/-22/-209 
f -174/-36/-43 -21/-22/-43 -20/-21/-43 
f -203/-329/-42 -174/-36/-42 -20/-21/-42 
f -203/-329/-240 -20/-21/-240 -19/-20/-240 
f -205/-328/-41 -203/-329/-41 -19/-20/-41 
f -18/-19/-40 -205/-328/-40 -19/-20/-40 
f -207/-333/-39 -205/-331/-39 -18/-18/-39 
f -18/-18/-38 -17/-17/-38 -207/-333/-38 
f -16/-16/-37 -28/-42/-37 -178/-43/-37 
f -16/-16/-244 -178/-43/-244 -180/-44/-244 
f -16/-16/-211 -180/-44/-211 -209/-335/-211 
f -15/-15/-36 -16/-16/-36 -209/-335/-36 
f -14/-14/-35 -15/-15/-35 -209/-335/-35 
f -14/-14/-34 -209/-335/-34 -207/-333/-34 
f -14/-14/-211 -207/-333/-211 -17/-17/-211 
usemtl door02
f -13/-13/-33 -12/-12/-33 -11/-11/-33 
f -11/-11/-32 -10/-10/-32 -9/-9/-32 
f -13/-13/-31 -11/-11/-31 -9/-9/-31 
f -9/-9/-30 -8/-8/-30 -7/-7/-30 
f -7/-7/-29 -6/-6/-29 -5/-5/-29 
f -9/-9/-28 -7/-7/-28 -5/-5/-28 
f -13/-13/-31 -9/-9/-31 -5/-5/-31 
f -13/-13/-27 -5/-5/-27 -4/-4/-27 
f -13/-13/-31 -4/-4/-31 -3/-3/-31 
f -13/-13/-26 -3/-3/-26 -2/-2/-26 
f -13/-13/-25 -2/-2/-25 -1/-1/-25 
usemtl wall01
f -20/-21/-24 -21/-22/-24 -13/-22/-24 
f -13/-22/-23 -1/-21/-23 -20/-21/-23 
f -21/-22/-22 -24/-23/-22 -12/-23/-22 
f -12/-23/-21 -13/-22/-21 -21/-22/-21 
f -24/-37/-20 -25/-39/-20 -11/-39/-20 
f -11/-39/-20 -12/-23/-20 -24/-37/-20 
f -25/-39/-19 -26/-40/-19 -10/-40/-19 
f -10/-40/-19 -11/-39/-19 -25/-39/-19 
f -26/-40/-18 -27/-41/-18 -9/-41/-18 
f -9/-41/-17 -10/-40/-17 -26/-40/-17 
f -27/-41/-16 -28/-42/-16 -8/-42/-16 
f -8/-42/-15 -9/-41/-15 -27/-41/-15 
f -28/-42/-14 -16/-16/-14 -7/-16/-14 
f -7/-16/-13 -8/-42/-13 -28/-42/-13 
f -16/-16/-12 -15/-15/-12 -6/-15/-12 
f -6/-15/-11 -7/-16/-11 -16/-16/-11 
f -15/-15/-10 -14/-14/-10 -5/-14/-10 
f -5/-14/-9 -6/-15/-9 -15/-15/-9 
f -14/-14/-8 -17/-17/-8 -4/-17/-8 
f -4/-17/-7 -5/-14/-7 -14/-14/-7 
f -17/-17/-6 -18/-18/-6 -3/-18/-6 
f -3/-18/-5 -4/-17/-5 -17/-17/-5 
f -18/-19/-4 -19/-20/-4 -2/-20/-4 
f -2/-20/-3 -3/-18/-3 -18/-19/-3 
f -19/-20/-2 -20/-21/-2 -1/-21/-2 
f -1/-21/-1 -2/-20/-1 -19/-20/-1 
# 408 faces

