# 3ds Max Wavefront OBJ Exporter v0.97b - (c)2007 guruware
# File Created: 27.12.2011 07:24:14

mtllib Pikk_39_2-origo.mtl

#
# object Pikk_39_2
#

v  542317.187977 6589331.218781 22.329050
v  542314.466923 6589332.84906 22.329052
v  542311.818321 6589328.097198 27.100027
v  542314.199842 6589326.521942 27.100035
v  542335.426899 6589310.274994 27.166012
v  542337.630493 6589312.850082 25.701323
v  542322.769295 6589326.448883 25.701321
v  542319.717903 6589322.871613 27.100027
v  542318.525509 6589323.6604 27.100027
v  542317.187984 6589331.218811 15.800667
v  542314.199827 6589326.521942 16.299820
v  542311.818319 6589328.097198 16.299820
v  542314.466957 6589332.849091 15.800667
v  542337.742298 6589312.965805 15.688761
v  542335.426899 6589310.274994 15.899393
v  542318.525494 6589323.6604 16.299818
v  542332.737103 6589312.480774 27.166012
v  542321.708 6589320.959808 27.166012
v  542321.708 6589320.959808 16.299818
v  542332.737103 6589312.480774 15.899393
v  542322.040485 6589321.335266 27.100025
v  542322.040497 6589321.335266 16.299818
v  542319.71788 6589322.871597 16.299818
v  542337.742294 6589312.965805 24.183622
v  542322.8811 6589326.564606 24.183619
v  542319.717903 6589322.871613 26.010826
v  542318.525513 6589323.660416 26.010826
v  542321.500996 6589327.609589 25.701319
v  542321.612801 6589327.725342 24.183620
v  542322.8811 6589326.564606 15.800669
v  542320.389984 6589326.131897 25.818958
v  542321.612797 6589327.725342 15.800669
v  542321.612823 6589327.725342 23.086845
v  542321.973694 6589328.270691 15.800669
v  542321.973701 6589328.270691 22.273895
v  542318.375927 6589330.487 15.855831
v  542318.375938 6589330.486969 22.329058
v  542317.187973 6589331.218811 24.792744
v  542318.375896 6589330.487 24.792742
v  542320.261841 6589325.964935 26.105244
v  542316.99234 6589328.400879 26.003227
v  542315.353682 6589325.758636 27.100027
v  542315.855618 6589329.152893 26.003227
v  542313.07769 6589327.264282 27.100035
v  542313.077682 6589327.264282 16.299820
v  542314.42308 6589326.859436 26.970039
v  542313.300957 6589327.601776 26.970039
v  542314.423069 6589326.859436 24.755070
v  542313.300953 6589327.601807 24.755058
v  542315.859961 6589332.014465 22.329050
v  542315.041439 6589330.546265 23.930788
v  542316.212898 6589329.717163 23.930792
v  542315.041439 6589330.546265 24.782471
v  542316.212898 6589329.717163 24.782476
v  542313.658276 6589331.398315 23.930786
v  542313.173634 6589330.611572 25.881708
v  542314.565866 6589329.75354 25.881710
v  542313.077686 6589327.264282 24.782482
v  542314.844975 6589330.213867 24.779375
v  542325.450764 6589323.995193 25.701321
v  542322.795109 6589321.720871 29.276951
v  542322.02639 6589320.722397 29.276955
v  542322.525646 6589320.34079 29.276958
v  542323.280327 6589321.312149 29.276957
v  542322.795174 6589321.720917 26.478565
v  542323.280399 6589321.312225 26.478571
v  542322.525669 6589320.340881 26.478573
v  542322.026436 6589320.722443 26.478573
v  542318.704174 6589326.791382 26.154041
v  542317.876652 6589327.319366 26.154041
v  542318.024776 6589325.726532 26.590843
v  542317.197254 6589326.254517 26.590843
v  542318.730545 6589326.832733 26.295805
v  542317.903019 6589327.360687 26.295805
v  542318.051144 6589325.767853 26.732605
v  542317.223621 6589326.295837 26.732605
v  542317.828491 6589329.647247 26.672497
v  542317.451546 6589329.063965 26.672499
v  542317.976204 6589328.718109 26.672503
v  542318.341057 6589329.273346 26.672501
v  542317.828583 6589329.647339 23.677578
v  542318.341125 6589329.273499 23.677582
v  542317.976219 6589328.718201 23.874117
v  542317.451576 6589329.063995 23.874117
v  542329.493935 6589315.921844 28.096352
v  542329.019802 6589315.368744 28.096352
v  542329.519035 6589314.987167 28.096352
v  542329.979141 6589315.513138 28.096357
v  542329.493938 6589315.921875 26.478571
v  542329.979145 6589315.513153 26.478575
v  542329.519051 6589314.987183 26.478573
v  542329.019817 6589315.368774 26.478571
# 92 vertices

vn -0.873475 0.486869 -0.000007
vn -0.873475 0.486869 -0.000007
vn -0.873475 0.486869 -0.000007
vn -0.873478 0.486864 -0.000002
vn -0.814700 0.579900 -0.000000
vn -0.873478 0.486864 -0.000002
vn 0.584300 0.811500 -0.000000
vn 0.513952 0.857819 0.000003
vn 0.513959 0.857815 0.000002
vn 0.513959 0.857815 0.000002
vn 0.513954 0.857818 0.000005
vn 0.584300 0.811500 -0.000000
vn 0.758039 -0.652209 0.000216
vn 0.751502 -0.659717 0.004243
vn 0.757845 -0.652434 0.001030
vn 0.757845 -0.652434 0.001030
vn 0.759785 -0.650175 0.000000
vn 0.758039 -0.652209 0.000216
vn -0.551729 -0.834024 0.000001
vn -0.551729 -0.834024 0.000001
vn -0.551729 -0.834024 0.000001
vn -0.551729 -0.834024 0.000001
vn -0.562200 -0.827000 -0.000000
vn -0.551729 -0.834024 0.000001
vn 0.249339 0.307047 0.918451
vn 0.251596 0.306804 0.917917
vn 0.244986 0.295997 0.923237
vn -0.609490 -0.792794 0.000000
vn -0.609490 -0.792794 0.000000
vn -0.609490 -0.792794 0.000000
vn -0.609490 -0.792794 0.000000
vn -0.609490 -0.792794 0.000000
vn -0.609490 -0.792794 0.000000
vn -0.634105 -0.773247 0.000000
vn -0.634105 -0.773247 0.000000
vn -0.634105 -0.773247 0.000000
vn -0.634105 -0.773247 0.000000
vn -0.634105 -0.773247 0.000000
vn -0.634105 -0.773247 0.000000
vn -0.748639 0.662977 -0.000001
vn -0.748639 0.662977 -0.000001
vn -0.748639 0.662978 -0.000001
vn -0.748651 0.662965 0.000000
vn -0.748651 0.662965 0.000000
vn -0.748651 0.662965 0.000000
vn -0.551693 -0.834047 0.000002
vn -0.551693 -0.834047 0.000002
vn -0.551693 -0.834047 0.000002
vn -0.551703 -0.834041 -0.000001
vn -0.551703 -0.834041 -0.000001
vn -0.551703 -0.834041 -0.000001
vn 0.758039 -0.652209 0.000216
vn 0.758004 -0.652250 0.000000
vn 0.751502 -0.659717 0.004243
vn 0.671318 0.733638 0.105393
vn 0.671318 0.733638 0.105393
vn 0.671318 0.733638 0.105393
vn 0.671318 0.733638 0.105391
vn 0.671318 0.733638 0.105391
vn 0.671318 0.733638 0.105391
vn 0.043383 0.044754 0.998056
vn 0.043383 0.044754 0.998056
vn 0.043383 0.044754 0.998056
vn 0.036509 0.055188 0.997808
vn 0.036509 0.055188 0.997808
vn 0.036509 0.055188 0.997808
vn 0.671372 0.733586 0.105408
vn 0.671372 0.733586 0.105408
vn 0.671372 0.733586 0.105408
vn 0.671363 0.733596 0.105393
vn 0.671363 0.733597 0.105393
vn 0.671363 0.733596 0.105393
vn 0.675078 0.737746 0.000000
vn 0.675078 0.737746 0.000000
vn 0.675078 0.737746 0.000000
vn 0.675078 0.737746 0.000000
vn 0.675078 0.737746 0.000000
vn 0.675078 0.737746 0.000000
vn -0.760814 0.648970 0.000000
vn -0.760814 0.648970 0.000000
vn -0.760814 0.648970 0.000000
vn -0.551731 -0.834022 0.000003
vn -0.551731 -0.834022 0.000003
vn -0.551731 -0.834022 0.000003
vn -0.551732 -0.834021 0.000002
vn -0.551733 -0.834021 0.000002
vn -0.551733 -0.834021 0.000002
vn 0.043071 0.047065 0.997963
vn 0.043071 0.047065 0.997963
vn 0.043071 0.047065 0.997963
vn 0.798678 -0.601759 -0.000006
vn 0.798678 -0.601759 -0.000006
vn 0.798678 -0.601759 -0.000006
vn 0.675133 0.737696 -0.000000
vn 0.675133 0.737696 -0.000000
vn 0.675133 0.737696 -0.000000
vn 0.675132 0.737697 0.000000
vn 0.675132 0.737697 0.000000
vn 0.675132 0.737697 0.000000
vn 0.833942 -0.551852 -0.000001
vn 0.833942 -0.551852 -0.000001
vn 0.833942 -0.551852 -0.000001
vn 0.833929 -0.551871 -0.000003
vn 0.833929 -0.551871 -0.000003
vn 0.833929 -0.551871 -0.000003
vn 0.524487 0.851418 0.000003
vn 0.524487 0.851418 0.000003
vn 0.524487 0.851418 0.000003
vn 0.524492 0.851416 -0.000001
vn 0.524492 0.851416 -0.000001
vn 0.524492 0.851416 -0.000001
vn 0.524492 0.851416 0.000005
vn 0.524492 0.851416 0.000005
vn 0.524492 0.851416 0.000005
vn 0.524498 0.851412 0.000003
vn 0.524498 0.851412 0.000003
vn 0.524498 0.851412 0.000003
vn 0.524504 0.851408 -0.000002
vn 0.524504 0.851408 -0.000002
vn 0.524504 0.851408 -0.000002
vn 0.524492 0.851416 -0.000010
vn 0.524492 0.851416 -0.000010
vn 0.524492 0.851416 -0.000010
vn -0.799720 0.600229 -0.013135
vn -0.799720 0.600229 -0.013135
vn -0.799720 0.600229 -0.013135
vn -0.793332 0.608789 -0.000017
vn -0.793332 0.608789 -0.000017
vn -0.793332 0.608789 -0.000017
vn 0.798535 -0.601914 0.006394
vn 0.798535 -0.601914 0.006394
vn 0.798535 -0.601914 0.006394
vn 0.175785 0.275516 0.945088
vn 0.175785 0.275516 0.945087
vn 0.175785 0.275516 0.945088
vn 0.183616 0.277565 0.942997
vn 0.183616 0.277565 0.942997
vn 0.183616 0.277565 0.942997
vn 0.462084 0.658303 0.594236
vn 0.439731 0.699820 0.562929
vn 0.457316 0.672610 0.581772
vn 0.457316 0.672610 0.581772
vn 0.480400 0.623673 0.616643
vn 0.462084 0.658303 0.594236
vn 0.457316 0.672610 0.581772
vn 0.469498 0.654953 0.592122
vn 0.480400 0.623673 0.616643
vn 0.457316 0.672610 0.581772
vn 0.469498 0.654954 0.592120
vn 0.469498 0.654953 0.592122
vn 0.168759 0.255092 0.952076
vn 0.168759 0.255092 0.952076
vn 0.168759 0.255092 0.952076
vn 0.183624 0.277560 0.942997
vn 0.183624 0.277560 0.942997
vn 0.183624 0.277560 0.942997
vn 0.231744 0.376180 0.897097
vn 0.231744 0.376180 0.897097
vn 0.231744 0.376180 0.897097
vn 0.240200 0.363079 0.900265
vn 0.240200 0.363079 0.900265
vn 0.240200 0.363079 0.900265
vn 0.833379 -0.552701 0.000021
vn 0.833379 -0.552701 0.000021
vn 0.833379 -0.552701 0.000021
vn -0.551735 -0.834020 0.000000
vn -0.551735 -0.834020 0.000000
vn -0.551735 -0.834020 0.000000
vn -0.551732 -0.834021 0.000001
vn -0.551732 -0.834021 0.000001
vn -0.551732 -0.834021 0.000001
vn 0.168751 0.255084 0.952079
vn 0.168751 0.255084 0.952079
vn 0.168751 0.255084 0.952079
vn 0.168754 0.255095 0.952076
vn 0.168754 0.255095 0.952076
vn 0.168754 0.255095 0.952076
vn 0.551760 0.834003 0.000011
vn 0.551760 0.834003 0.000011
vn 0.551760 0.834003 0.000011
vn 0.551742 0.834015 -0.000003
vn 0.551742 0.834015 -0.000003
vn 0.551742 0.834015 -0.000003
vn 0.194354 0.275476 0.941456
vn 0.194354 0.275476 0.941456
vn 0.194354 0.275476 0.941456
vn 0.365654 0.575372 0.731604
vn 0.354636 0.591912 0.723791
vn 0.367763 0.576278 0.729831
vn 0.367763 0.576278 0.729831
vn 0.385348 0.544472 0.745022
vn 0.365654 0.575372 0.731604
vn 0.577701 0.816249 0.000000
vn 0.577701 0.816249 0.000000
vn 0.577701 0.816249 0.000000
vn 0.577701 0.816249 0.000000
vn 0.577701 0.816249 0.000000
vn 0.577701 0.816249 0.000000
vn 0.358385 0.591693 0.722122
vn 0.364262 0.591321 0.719480
vn 0.367763 0.576278 0.729831
vn 0.367763 0.576278 0.729831
vn 0.354636 0.591912 0.723791
vn 0.358385 0.591693 0.722122
vn 0.460042 0.785391 0.414152
vn 0.460042 0.785391 0.414152
vn 0.460042 0.785391 0.414152
vn 0.474007 0.769472 0.428054
vn 0.474007 0.769472 0.428054
vn 0.474007 0.769472 0.428054
vn 0.196654 0.348016 0.916631
vn 0.196654 0.348016 0.916631
vn 0.196654 0.348016 0.916631
vn 0.206131 0.334468 0.919587
vn 0.206131 0.334468 0.919587
vn 0.206131 0.334468 0.919587
vn -0.551641 -0.834081 0.000001
vn -0.551641 -0.834081 0.000001
vn -0.551641 -0.834081 0.000001
vn -0.551643 -0.834080 0.000000
vn -0.551643 -0.834080 0.000000
vn -0.551643 -0.834080 0.000000
vn -0.551642 -0.834081 0.000000
vn -0.551642 -0.834081 0.000000
vn -0.551642 -0.834081 0.000000
vn 0.168716 0.255107 0.952079
vn 0.168716 0.255107 0.952079
vn 0.168716 0.255107 0.952079
vn -0.004493 -0.006776 0.999967
vn -0.004493 -0.006776 0.999967
vn -0.004493 -0.006776 0.999967
vn -0.004649 -0.006561 0.999968
vn -0.004649 -0.006561 0.999968
vn -0.004649 -0.006561 0.999968
vn -0.004651 -0.006564 0.999968
vn -0.004651 -0.006564 0.999968
vn -0.004651 -0.006564 0.999968
vn 0.471449 0.764969 0.438815
vn 0.471449 0.764969 0.438815
vn 0.471449 0.764969 0.438815
vn 0.860850 -0.508859 -0.000008
vn 0.860850 -0.508859 -0.000008
vn 0.860850 -0.508859 -0.000008
vn 0.863911 -0.503574 0.008451
vn 0.863911 -0.503574 0.008451
vn 0.863911 -0.503574 0.008451
vn -0.847498 0.530798 0.000004
vn -0.847498 0.530798 0.000004
vn -0.847498 0.530798 0.000004
vn -0.862880 0.494044 -0.106576
vn -0.862880 0.494044 -0.106576
vn -0.862880 0.494044 -0.106576
vn -0.838696 0.544600 -0.000008
vn -0.838696 0.544600 -0.000008
vn -0.838696 0.544600 -0.000008
vn -0.838514 0.544307 0.025002
vn -0.838514 0.544307 0.025002
vn -0.838514 0.544307 0.025002
vn -0.838698 0.544597 0.000000
vn -0.838698 0.544597 0.000000
vn -0.838698 0.544597 0.000000
vn -0.860872 0.508821 0.000000
vn -0.860872 0.508821 0.000000
vn -0.860872 0.508821 0.000000
vn -0.862854 0.505342 -0.010560
vn -0.862854 0.505342 -0.010560
vn -0.862854 0.505342 -0.010560
vn -0.880264 0.474485 0.000000
vn -0.880264 0.474485 0.000000
vn -0.880264 0.474485 0.000000
vn 0.513940 0.857826 0.000007
vn 0.513940 0.857826 0.000007
vn 0.513952 0.857819 0.000003
vn 0.671318 0.733638 0.105393
vn 0.671318 0.733638 0.105393
vn 0.671318 0.733638 0.105393
vn 0.200334 0.229801 0.952396
vn 0.192591 0.210470 0.958442
vn 0.184675 0.243151 0.952246
vn 0.244986 0.295997 0.923237
vn 0.200334 0.229801 0.952396
vn 0.157176 0.207876 0.965445
vn 0.157176 0.207876 0.965445
vn 0.200334 0.229801 0.952396
vn 0.184675 0.243151 0.952246
vn 0.079697 0.103666 0.991414
vn 0.249339 0.307047 0.918451
vn 0.157176 0.207876 0.965445
vn 0.157176 0.207876 0.965445
vn 0.249339 0.307047 0.918451
vn 0.244986 0.295997 0.923237
vn -0.000003 0.000006 1.000000
vn -0.000003 0.000006 1.000000
vn -0.000003 0.000006 1.000000
vn -0.000006 0.000007 1.000000
vn -0.000006 0.000007 1.000000
vn -0.000006 0.000007 1.000000
vn 0.644244 0.764820 0.000027
vn 0.644244 0.764820 0.000027
vn 0.644244 0.764820 0.000027
vn 0.644210 0.764849 0.000038
vn 0.644210 0.764849 0.000038
vn 0.644210 0.764849 0.000038
vn 0.789676 -0.613525 0.000004
vn 0.789676 -0.613525 0.000004
vn 0.789676 -0.613525 0.000004
vn 0.789651 -0.613556 -0.000014
vn 0.789651 -0.613556 -0.000014
vn 0.789651 -0.613556 -0.000014
vn -0.607272 -0.794494 -0.000031
vn -0.607272 -0.794494 -0.000031
vn -0.607272 -0.794494 -0.000031
vn -0.607244 -0.794515 -0.000023
vn -0.607244 -0.794515 -0.000023
vn -0.607244 -0.794515 -0.000023
vn -0.792370 0.610041 -0.000003
vn -0.792370 0.610041 -0.000003
vn -0.792370 0.610041 -0.000003
vn -0.792363 0.610050 -0.000008
vn -0.792363 0.610050 -0.000008
vn -0.792363 0.610050 -0.000008
vn 0.175782 0.275517 0.945088
vn 0.175780 0.275522 0.945087
vn 0.175783 0.275515 0.945088
vn 0.175783 0.275515 0.945088
vn 0.175785 0.275511 0.945089
vn 0.175782 0.275517 0.945088
vn 0.508298 0.796712 -0.326930
vn 0.508346 0.796742 -0.326781
vn 0.508341 0.796739 -0.326797
vn 0.508341 0.796739 -0.326797
vn 0.508293 0.796709 -0.326946
vn 0.508298 0.796712 -0.326930
vn -0.843024 0.537876 0.000019
vn -0.843024 0.537876 0.000019
vn -0.843024 0.537876 0.000019
vn -0.843024 0.537876 0.000019
vn -0.843024 0.537876 0.000019
vn -0.843024 0.537876 0.000019
vn -0.508345 -0.796741 0.326785
vn -0.508345 -0.796741 0.326785
vn -0.508345 -0.796741 0.326785
vn -0.508345 -0.796741 0.326785
vn -0.508345 -0.796741 0.326785
vn -0.508345 -0.796741 0.326785
vn 0.843030 -0.537867 -0.000016
vn 0.843040 -0.537852 0.000064
vn 0.843039 -0.537853 0.000058
vn 0.843039 -0.537853 0.000058
vn 0.843029 -0.537868 -0.000022
vn 0.843030 -0.537867 -0.000016
vn -0.000004 0.000006 1.000000
vn -0.000004 0.000006 1.000000
vn -0.000004 0.000006 1.000000
vn -0.000003 0.000006 1.000000
vn -0.000003 0.000006 1.000000
vn -0.000003 0.000006 1.000000
vn 0.589332 0.807891 0.000043
vn 0.589332 0.807891 0.000043
vn 0.589332 0.807891 0.000043
vn 0.589287 0.807924 0.000055
vn 0.589287 0.807924 0.000055
vn 0.589287 0.807924 0.000055
vn 0.835717 -0.549160 -0.000009
vn 0.835717 -0.549160 -0.000009
vn 0.835717 -0.549160 -0.000009
vn 0.835706 -0.549177 -0.000013
vn 0.835706 -0.549177 -0.000013
vn 0.835706 -0.549177 -0.000013
vn -0.550378 -0.834916 -0.000030
vn -0.550378 -0.834916 -0.000030
vn -0.550378 -0.834916 -0.000030
vn -0.550321 -0.834953 -0.000015
vn -0.550321 -0.834953 -0.000015
vn -0.550322 -0.834953 -0.000015
vn -0.839880 0.542772 -0.000003
vn -0.839880 0.542772 -0.000003
vn -0.839880 0.542772 -0.000003
vn -0.839868 0.542791 -0.000009
vn -0.839868 0.542791 -0.000009
vn -0.839868 0.542791 -0.000009
vn 0.000000 0.000000 1.000000
vn 0.000000 0.000000 1.000000
vn 0.000000 0.000000 1.000000
vn -0.000012 -0.000000 1.000000
vn -0.000012 -0.000000 1.000000
vn -0.000012 -0.000000 1.000000
vn 0.644239 0.764825 0.000016
vn 0.644239 0.764825 0.000016
vn 0.644239 0.764825 0.000016
vn 0.644253 0.764813 0.000009
vn 0.644253 0.764813 0.000009
vn 0.644253 0.764813 0.000009
vn 0.752661 -0.658409 -0.000004
vn 0.752661 -0.658409 -0.000004
vn 0.752661 -0.658409 -0.000004
vn 0.752669 -0.658399 0.000001
vn 0.752669 -0.658400 0.000001
vn 0.752669 -0.658400 0.000001
vn -0.607259 -0.794504 -0.000013
vn -0.607259 -0.794504 -0.000013
vn -0.607259 -0.794504 -0.000013
vn -0.607275 -0.794492 -0.000021
vn -0.607275 -0.794492 -0.000021
vn -0.607275 -0.794492 -0.000021
vn -0.759225 0.650828 0.000005
vn -0.759225 0.650828 0.000005
vn -0.759225 0.650828 0.000005
vn -0.759233 0.650819 0.000010
vn -0.759233 0.650819 0.000010
vn -0.759233 0.650819 0.000010
# 411 vertex normals

vt 9.289500 -1.477400 0.000000
vt 9.016600 2.059100 0.000000
vt 7.337200 1.910800 0.000000
vt -9.082300 1.665300 0.000000
vt -9.164500 -1.303500 0.000000
vt 4.156400 1.665300 0.000000
vt -9.082300 1.665300 0.000000
vt 3.088000 1.665300 0.000000
vt -7.040134 1.665300 0.000000
vt -7.043207 1.665300 0.000000
vt 3.088000 1.665300 0.000000
vt 3.088000 1.665300 0.000000
vt -9.164500 -1.303500 0.000000
vt 3.352500 -1.834700 0.000000
vt 3.088000 1.665300 0.000000
vt 4.420800 -1.880000 0.000000
vt 3.088000 1.665300 0.000000
vt 4.156400 1.665300 0.000000
vt 4.156400 1.665300 0.000000
vt 4.310688 -0.403524 0.000000
vt 3.352500 -1.834700 0.000000
vt 3.352500 -1.834700 0.000000
vt 3.352500 -1.834700 0.000000
vt 4.420800 -1.880000 0.000000
vt 4.287425 -0.091597 0.000000
vt 7.337200 1.910800 0.000000
vt 7.337200 1.910800 0.000000
vt 7.337200 1.910800 0.000000
vt 9.016600 2.059100 0.000000
vt 9.016600 2.059100 0.000000
vt 7.337200 1.910800 0.000000
vt 7.337200 1.910800 0.000000
vt 9.016600 2.059100 0.000000
vt 9.016600 2.059100 0.000000
vt 9.016600 2.059100 0.000000
vt 9.196528 -0.272583 0.000000
vt 9.131645 0.568236 0.000000
vt 2.421421 -0.999657 0.999496
vt 2.534512 0.438629 0.793579
vt 0.501362 0.587509 0.772461
vt 0.520184 -0.966942 0.999496
vt 2.636951 1.870850 0.000500
vt 0.524395 1.838905 0.011918
vt 2.631279 1.543922 0.168778
vt 2.543694 0.543457 0.734318
vt -0.167988 -0.752731 0.972589
vt -0.171448 -0.955040 0.999496
vt -0.180019 0.599243 0.772461
vt 0.524368 1.838905 0.521894
vt -0.173176 1.828377 0.521894
vt -0.167976 -0.752747 0.972589
vt -0.840595 -0.741165 0.972589
vt -0.844078 -0.943459 0.999501
vt -0.171448 -0.955040 0.999501
vt -0.173168 1.828362 0.011917
vt -0.946945 1.807129 0.011917
vt -0.897682 0.968094 0.343472
vt -0.180943 0.933182 0.343473
vt -1.758598 1.784836 0.011917
vt -1.709858 0.955811 0.343472
vt -0.897682 0.968094 0.343472
vt -0.946945 1.807129 0.011917
vt -1.702873 0.493851 0.747307
vt -0.891239 0.775146 0.519127
vt -1.598919 -0.930557 0.999496
vt -0.840595 -0.741165 0.972589
vt -0.885262 0.506050 0.747308
vt -0.844078 -0.943459 0.999496
vt -0.840614 -0.741150 0.514092
vt -0.167988 -0.752731 0.514096
vt -0.180943 0.933182 0.519769
vt -0.891239 0.775162 0.519127
vt -0.897682 0.968094 0.519768
vt 3.611187 1.579453 0.987265
vt -3.330463 1.715912 0.992275
vt -5.130322 0.023758 0.872802
vt -5.069561 1.741806 0.992115
vt 4.917652 -0.671432 0.877107
vt 3.104656 -0.545990 0.876331
vt 5.750027 0.194710 0.882181
vt 5.710339 1.744553 0.889606
vt 4.998226 1.682114 0.889992
vt 5.775227 -0.730812 0.877475
vt 4.998226 1.701118 0.986512
vt 3.624432 1.830856 0.991563
vt -4.802101 2.196239 0.393946
vt 5.215477 2.187108 0.607122
vt 5.225990 2.946627 0.592216
vt 3.418480 2.948274 0.553751
vt -4.791580 2.955756 0.379040
vt 6.070457 2.186329 0.625330
vt 6.080963 2.945846 0.610422
vt 5.215477 -1.498711 0.600567
vt -4.802101 -1.945719 0.386580
vt 6.070457 -1.499491 0.618774
vt 3.611187 1.579453 0.987265
vt -3.330463 1.715912 0.992275
vt -5.130322 0.023758 0.872802
vt 1.175788 0.997648 -0.500000
vt -2.265489 0.999481 -0.500000
vt -2.263248 -0.000448 -0.500000
vt 1.171142 0.000488 0.500000
vt 0.296574 0.000498 0.999496
vt 0.296627 0.999497 0.999466
vt 0.000561 0.999499 0.620865
vt 0.000492 0.000500 0.620926
vt 0.689335 0.999499 0.000488
vt 0.689304 0.000500 0.000565
vt 0.999496 0.999497 0.360748
vt 0.999458 0.000500 0.360794
vt 0.000511 0.001144 0.675323
vt 0.998268 0.000504 0.676422
vt 0.999458 0.992874 0.999481
vt 0.001678 0.993530 0.998322
vt 0.000542 0.007141 0.000488
vt 0.998322 0.006500 0.001648
vt 0.999504 0.998856 0.324738
vt 0.001732 0.999512 0.323578
vt 0.296574 0.000498 0.999496
vt 0.296627 0.999497 0.999466
vt 0.000561 0.999499 0.620865
vt 0.000492 0.000500 0.620926
vt 0.689335 0.999499 0.000488
vt 0.689304 0.000500 0.000565
vt 0.999496 0.999497 0.360748
vt 0.999458 0.000500 0.360794
vt 0.967529 0.746731 -0.500000
vt 0.736053 0.744194 -0.500000
vt 0.736435 0.534729 0.500000
vt 0.957909 0.535473 0.000000
vt 0.999481 0.968369 -0.500000
vt 0.000488 0.999481 -0.500000
vt 0.024689 0.041031 -0.500000
vt 0.982635 0.000488 0.500000
vt 0.384636 0.230370 0.506729
vt 0.384644 0.769629 0.506733
vt 0.555962 0.769631 0.277069
vt 0.555962 0.230371 0.277061
vt 0.688980 0.769629 0.631325
vt 0.688972 0.230370 0.631313
vt 0.525299 0.769630 0.873447
vt 0.525291 0.230371 0.873432
vt -7.786835 10.279297 0.469174
vt -13.119232 5.781128 0.469175
vt -13.119415 5.781128 0.999498
vt -7.786804 10.279175 0.999499
vt -4.733368 -3.510376 0.208612
vt 9.112488 -9.230591 0.477286
vt 14.111664 -4.729004 0.477288
vt 14.111664 -4.729126 0.000500
vt 9.112457 -9.230591 0.000500
vt 3.325439 8.542603 0.471385
vt -1.853546 3.575562 0.471385
vt -1.853546 3.575562 0.654715
vt 3.325439 8.542603 0.654716
vt 0.330902 1.049805 0.208611
vt 4.542999 7.044434 0.472053
vt 4.885101 -3.447903 0.417213
vt 3.266335 2.037209 0.493492
vt 1.723083 2.026485 0.508831
vt 1.723114 -3.469873 0.448645
vt 0.330994 -3.423086 0.460934
vt 0.330971 2.018326 0.520517
vt -3.885101 1.938633 0.555315
vt -3.885094 -3.502777 0.495728
vt 1.723122 4.480803 0.535709
vt 0.331024 4.472635 0.547396
vt 4.885117 2.048460 0.477394
# 168 texture coords

g Pikk_39_2
usemtl xxx
s off
f -81/-167/-411 -38/-133/-410 -91/-168/-409 
f -91/-168/-408 -80/-168/-407 -81/-167/-406 
usemtl Pikk_39_2_valge
s 2
f -80/-11/-405 -43/-10/-404 -92/-9/-403 
f -92/-9/-402 -83/-8/-401 -80/-11/-400 
usemtl Pikk_39_2_roosa
f -78/-165/-399 -69/-156/-398 -87/-164/-397 
f -87/-164/-396 -88/-165/-395 -78/-165/-394 
usemtl xxx
s off
f -77/-163/-393 -84/-163/-392 -89/-166/-391 
f -89/-143/-390 -82/-166/-389 -77/-163/-388 
usemtl Pikk_39_2_kat_pun
s 16
f -76/-94/-387 -88/-92/-386 -87/-93/-385 
usemtl xxx
s off
f -73/-159/-384 -76/-160/-383 -75/-161/-382 
f -75/-161/-381 -74/-161/-380 -73/-159/-379 
usemtl Pikk_39_2_roosa
s 1
f -78/-162/-378 -88/-162/-377 -76/-160/-376 
f -78/-162/-375 -76/-160/-374 -73/-159/-373 
usemtl xxx
s off
f -72/-158/-372 -71/-158/-371 -74/-161/-370 
f -74/-161/-369 -75/-161/-368 -72/-158/-367 
f -85/-157/-366 -70/-157/-365 -71/-158/-364 
f -71/-158/-363 -72/-158/-362 -85/-157/-361 
usemtl Pikk_39_2_roosa
s 2
f -78/-165/-360 -79/-164/-359 -69/-156/-358 
usemtl Pikk_39_2_kat_pun
s off
f -69/-83/-357 -68/-82/-356 -86/-81/-355 
f -33/-80/-354 -87/-79/-353 -69/-83/-352 
f -86/-91/-351 -62/-89/-350 -66/-88/-349 
f -66/-88/-348 -67/-87/-347 -86/-91/-346 
f -68/-82/-345 -64/-78/-344 -65/-77/-343 
f -65/-77/-342 -86/-81/-341 -68/-82/-340 
usemtl Pikk_39_2_roosa
f -63/-76/-339 -68/-82/-338 -69/-83/-337 
f -69/-83/-336 -79/-75/-335 -63/-76/-334 
usemtl Pikk_39_2_kat_pun
f -67/-154/-333 -85/-157/-332 -86/-155/-331 
usemtl xxx
f -70/-152/-330 -67/-152/-329 -66/-151/-328 
f -66/-151/-327 -77/-151/-326 -70/-152/-325 
usemtl Pikk_39_2_kat_pun
f -86/-91/-324 -65/-86/-323 -62/-89/-322 
f -84/-150/-321 -66/-151/-320 -53/-144/-319 
usemtl Pikk_39_2_roosa
f -61/-74/-318 -64/-78/-317 -68/-82/-316 
f -68/-82/-315 -63/-76/-314 -61/-74/-313 
usemtl Pikk_39_2_valge
f -59/-146/-312 -58/-146/-311 -60/-147/-310 
f -60/-147/-309 -61/-147/-308 -59/-146/-307 
f -57/-7/-306 -56/-6/-305 -58/-5/-304 
f -58/-5/-303 -59/-4/-302 -57/-7/-301 
f -83/-8/-300 -92/-9/-299 -56/-6/-298 
f -56/-6/-297 -57/-7/-296 -83/-8/-295 
usemtl Pikk_39_2_uuk
f -55/-3/-294 -54/-2/-293 -56/-6/-292 
f -56/-6/-291 -92/-9/-290 -55/-3/-289 
usemtl Pikk_39_2_roosa
f -62/-149/-288 -65/-153/-287 -64/-148/-286 
f -62/-149/-285 -64/-148/-284 -60/-145/-283 
usemtl Pikk_39_2_kat_pun
f -53/-144/-282 -66/-151/-281 -62/-149/-280 
usemtl Pikk_39_2_kat_helehall
f -84/-131/-279 -53/-130/-278 -52/-129/-277 
f -52/-129/-276 -51/-128/-275 -84/-131/-274 
s 8
f -58/-127/-273 -56/-126/-272 -52/-129/-271 
f -52/-129/-270 -60/-125/-269 -58/-127/-268 
f -52/-129/-267 -62/-124/-266 -60/-125/-265 
f -52/-129/-264 -53/-130/-263 -62/-124/-262 
s off
f -47/-123/-261 -89/-122/-260 -51/-128/-259 
f -51/-128/-258 -52/-129/-257 -50/-121/-256 
f -54/-120/-255 -55/-119/-254 -50/-121/-253 
f -50/-121/-252 -52/-129/-251 -54/-120/-250 
usemtl Pikk_39_2_uuk
f -52/-22/-249 -56/-24/-248 -54/-25/-247 
usemtl xxx
f -49/-142/-246 -48/-141/-245 -82/-166/-244 
f -82/-166/-243 -89/-143/-242 -49/-142/-241 
usemtl Pikk_39_2_kat_helehall
f -47/-118/-240 -46/-117/-239 -49/-116/-238 
f -49/-116/-237 -89/-115/-236 -47/-118/-235 
usemtl Pikk_39_2_uuk
f -45/-21/-234 -44/-20/-233 -46/-19/-232 
f -46/-19/-231 -47/-18/-230 -45/-21/-229 
usemtl Pikk_39_2_kat_helehall
f -50/-121/-228 -47/-123/-227 -51/-128/-226 
s 8
f -92/-114/-225 -43/-113/-224 -42/-112/-223 
f -42/-112/-222 -41/-111/-221 -92/-114/-220 
usemtl Pikk_39_2_uuk
s off
f -40/-17/-219 -39/-16/-218 -41/-15/-217 
f -41/-15/-216 -42/-14/-215 -40/-17/-214 
usemtl Pikk_39_2_kat_helehall
s 8
f -91/-110/-213 -38/-109/-212 -42/-108/-211 
f -42/-108/-210 -43/-107/-209 -91/-110/-208 
s off
f -37/-106/-207 -34/-105/-206 -42/-108/-205 
f -42/-108/-204 -38/-109/-203 -37/-106/-202 
f -90/-104/-201 -46/-103/-200 -36/-102/-199 
f -36/-102/-198 -37/-106/-197 -90/-104/-196 
usemtl xxx
f -35/-137/-195 -49/-138/-194 -90/-139/-193 
f -90/-139/-192 -81/-139/-191 -48/-138/-190 
f -48/-138/-189 -35/-137/-188 -90/-139/-187 
usemtl Pikk_39_2_kat_helehall
f -90/-104/-186 -49/-101/-185 -46/-103/-184 
f -44/-100/-183 -45/-99/-182 -39/-98/-181 
f -39/-98/-180 -34/-97/-179 -44/-100/-178 
f -39/-98/-177 -40/-96/-176 -34/-97/-175 
f -37/-106/-174 -36/-102/-173 -34/-105/-172 
usemtl Pikk_39_2_valge
f -46/-136/-171 -44/-135/-170 -34/-134/-169 
f -46/-136/-168 -34/-134/-167 -36/-140/-166 
usemtl Pikk_39_2_uuk
f -39/-16/-165 -45/-21/-164 -47/-18/-163 
f -47/-18/-162 -50/-13/-161 -55/-26/-160 
f -55/-26/-159 -92/-23/-158 -41/-15/-157 
f -39/-16/-156 -47/-18/-155 -55/-26/-154 
f -55/-26/-153 -41/-15/-152 -39/-16/-151 
f -40/-17/-150 -42/-14/-149 -34/-12/-148 
usemtl xxx
f -81/-167/-147 -37/-132/-146 -38/-133/-145 
f -81/-167/-144 -90/-167/-143 -37/-132/-142 
usemtl Pikk_39_2_valge
s 2
f -80/-11/-141 -91/-1/-140 -43/-10/-139 
usemtl Pikk_39_2_kat_pun
s off
f -86/-81/-138 -33/-80/-137 -69/-83/-136 
s 16
f -33/-90/-135 -86/-91/-134 -85/-85/-133 
f -87/-93/-132 -33/-90/-131 -72/-95/-130 
f -72/-95/-129 -33/-90/-128 -85/-85/-127 
f -75/-84/-126 -76/-94/-125 -72/-95/-124 
f -72/-73/-123 -76/-72/-122 -87/-71/-121 
usemtl Pikk_39_2_korstnaots
s off
f -32/-70/-120 -31/-69/-119 -30/-68/-118 
f -30/-68/-117 -29/-67/-116 -32/-70/-115 
usemtl Pikk_39_2_korstn
f -28/-66/-114 -32/-65/-113 -29/-64/-112 
f -29/-64/-111 -27/-63/-110 -28/-66/-109 
f -27/-63/-108 -29/-64/-107 -30/-62/-106 
f -30/-62/-105 -26/-61/-104 -27/-63/-103 
f -26/-61/-102 -30/-62/-101 -31/-60/-100 
f -31/-60/-99 -25/-59/-98 -26/-61/-97 
f -25/-59/-96 -31/-60/-95 -32/-65/-94 
f -32/-65/-93 -28/-66/-92 -25/-59/-91 
usemtl Pikk_39_2_ka
s 4
f -20/-58/-90 -19/-57/-89 -17/-56/-88 
f -17/-56/-87 -18/-55/-86 -20/-58/-85 
s 8
f -24/-54/-84 -23/-53/-83 -19/-57/-82 
f -19/-57/-81 -20/-58/-80 -24/-54/-79 
s 16
f -23/-53/-78 -21/-52/-77 -17/-56/-76 
f -17/-56/-75 -19/-57/-74 -23/-53/-73 
s 32
f -21/-52/-72 -22/-51/-71 -18/-55/-70 
f -18/-55/-69 -17/-56/-68 -21/-52/-67 
s 64
f -22/-51/-66 -24/-54/-65 -20/-58/-64 
f -20/-58/-63 -18/-55/-62 -22/-51/-61 
usemtl Pikk_39_2_kat_helehall
s off
f -16/-42/-60 -15/-41/-59 -14/-40/-58 
f -14/-40/-57 -13/-39/-56 -16/-42/-55 
usemtl Pikk_39_2_korstn
f -12/-50/-54 -16/-49/-53 -13/-48/-52 
f -13/-48/-51 -11/-47/-50 -12/-50/-49 
f -11/-47/-48 -13/-48/-47 -14/-46/-46 
f -14/-46/-45 -10/-45/-44 -11/-47/-43 
f -10/-45/-42 -14/-46/-41 -15/-44/-40 
f -15/-44/-39 -9/-43/-38 -10/-45/-37 
f -9/-43/-36 -15/-44/-35 -16/-49/-34 
f -16/-49/-33 -12/-50/-32 -9/-43/-31 
usemtl Pikk_39_2_pun_korstnaots
f -8/-38/-30 -7/-37/-29 -6/-36/-28 
f -6/-36/-27 -5/-35/-26 -8/-38/-25 
usemtl Pikk_39_2_kat_pun
f -4/-34/-24 -8/-33/-23 -5/-32/-22 
f -5/-32/-21 -3/-31/-20 -4/-34/-19 
f -3/-31/-18 -5/-32/-17 -6/-30/-16 
f -6/-30/-15 -2/-29/-14 -3/-31/-13 
f -2/-29/-12 -6/-30/-11 -7/-28/-10 
f -7/-28/-9 -1/-27/-8 -2/-29/-7 
f -1/-27/-6 -7/-28/-5 -8/-33/-4 
f -8/-33/-3 -4/-34/-2 -1/-27/-1 
# 137 faces

