# 3ds Max Wavefront OBJ Exporter v0.97b - (c)2007 guruware
# File Created: 15.03.2012 21:53:52

mtllib Kiriku_8_1.mtl

#
# object Kiriku_8_1
#

v  -368.572845 31.719187 45.912533
v  -368.572845 31.719164 49.473011
v  -364.222900 36.379429 49.561577
v  -364.222900 36.379429 46.000912
v  -363.022400 22.496908 45.649300
v  -363.022400 22.496901 49.565899
v  -360.116577 23.853642 52.780209
v  -366.386902 34.059437 52.926792
v  -368.737549 31.542847 49.463406
v  -363.312561 22.503981 49.598961
v  -357.510010 25.137384 49.737057
v  -357.510010 25.137384 46.176952
v  -364.222900 36.379429 49.893291
v  -357.510010 25.137383 50.068821
v  -361.794373 29.811167 54.039440
v  -361.295654 30.159517 54.039455
v  -361.549530 30.537231 54.039455
v  -362.059357 30.205503 54.039440
v  -360.978485 29.992847 50.167992
v  -361.000763 30.025932 52.182587
v  -361.810547 29.449459 52.182556
v  -361.788269 29.416340 51.553879
v  -361.503326 30.773815 50.167992
v  -361.525635 30.806992 52.182587
v  -362.324310 30.213974 51.553879
v  -362.346619 30.247145 52.182556
v  -361.140900 30.144812 54.941814
v  -361.816406 29.668089 54.941792
v  -361.782898 29.618433 52.182560
v  -361.107361 30.095160 52.182583
v  -361.530914 30.725275 54.941814
v  -361.497406 30.675539 52.182583
v  -362.217621 30.265179 54.941792
v  -362.184052 30.215382 52.182560
v  -361.306671 30.175842 54.941811
v  -361.805298 29.827391 54.941795
v  -361.560486 30.553549 54.941811
v  -362.070282 30.221725 54.941795
v  -357.510010 25.137384 55.150726
v  -357.178986 16.018900 49.483055
v  -347.430664 17.339853 49.526424
v  -356.763428 25.624359 46.212730
v  -356.763428 25.624355 54.624241
v  -349.084503 26.882341 49.314804
v  -349.084473 26.882345 46.366112
v  -362.910187 15.630898 45.733753
v  -362.910187 15.630900 49.316631
v  -357.141907 16.408600 45.785549
v  -357.237000 16.410299 49.316631
v  -347.728790 17.806051 45.860836
v  -347.728821 17.806028 49.330090
v  -363.355743 22.479280 54.400738
v  -363.181610 15.194300 49.483055
v  -363.171997 15.194300 49.344631
v  -357.169006 16.018900 49.335831
v  -347.406586 17.340685 49.329929
v  -348.673462 26.949675 49.313168
v  -348.700195 26.945301 49.531837
v  -348.015625 19.726198 48.978889
v  -348.171112 20.767220 48.973186
v  -348.636139 23.880638 47.270763
v  -348.806458 25.020966 47.265064
v  -348.967987 24.983479 47.262562
v  -348.797607 23.842886 47.268162
v  -348.807617 25.028763 48.944489
v  -348.968811 24.988806 48.941288
v  -348.637329 23.888546 48.950089
v  -348.798431 23.848309 48.946888
v  -348.323425 21.787016 47.279163
v  -348.491516 22.912416 47.273464
v  -348.652924 22.874193 47.270763
v  -348.484772 21.748430 47.276363
v  -348.492737 22.920330 48.961590
v  -348.653778 22.879627 48.958290
v  -348.324615 21.794941 48.967190
v  -348.485626 21.754057 48.963890
v  -348.014435 19.718283 47.290863
v  -348.169891 20.759319 47.285164
v  -348.332153 20.726570 47.283665
v  -348.176544 19.684969 47.289162
v  -348.332733 20.730499 48.970890
v  -348.177216 19.689119 48.976490
v  -352.794312 19.926462 54.407028
v  -352.901581 20.821804 54.404728
v  -353.281250 20.777803 54.394829
v  -353.173920 19.882458 54.397030
v  -352.640656 20.981310 52.197571
v  -352.679962 20.981312 52.890629
v  -352.541107 19.812759 52.893730
v  -352.501709 19.812763 51.504078
v  -353.415619 20.891602 52.177273
v  -353.454895 20.891609 52.870331
v  -353.276672 19.723055 51.483776
v  -353.316040 19.723061 52.873428
v  -352.829559 20.901915 55.145229
v  -352.706421 19.869255 55.147930
v  -352.647217 19.869261 52.890930
v  -352.770447 20.901905 52.888229
v  -353.407867 20.835005 55.130131
v  -353.348755 20.835011 52.873028
v  -353.284607 19.802357 55.132729
v  -353.225494 19.802357 52.875729
v  -352.920837 20.821810 55.142830
v  -352.813599 19.926460 55.145130
v  -353.300568 20.777800 55.132931
v  -353.193268 19.882460 55.135128
v  -365.216888 25.817451 49.554333
v  -365.810577 26.908928 49.539112
v  -362.318359 27.512569 52.820026
v  -362.967041 28.644411 52.834682
v  -365.216888 25.817440 50.827518
v  -365.810547 26.908928 50.809738
v  -348.602692 23.656832 46.124863
v  -348.289948 21.562887 46.123600
v  -348.482849 22.854544 46.129162
v  -348.161194 20.701056 46.127499
# 116 vertices

vn -0.796942 0.604018 -0.006725
vn -0.798617 0.601797 -0.007213
vn -0.796951 0.604043 -0.000002
vn -0.796951 0.604043 -0.000002
vn -0.796953 0.604041 -0.000007
vn -0.796942 0.604018 -0.006725
vn -0.869693 -0.493593 -0.000002
vn -0.869692 -0.493595 -0.000008
vn -0.869692 -0.493594 -0.000006
vn -0.869692 -0.493594 -0.000006
vn -0.869693 -0.493593 -0.000001
vn -0.869693 -0.493593 -0.000002
vn 0.830011 0.557748 0.000000
vn 0.830011 0.557748 0.000000
vn 0.829852 0.557948 0.006318
vn 0.829852 0.557948 0.006318
vn 0.830011 0.557748 0.000002
vn 0.830011 0.557748 0.000000
vn 0.046365 0.007312 -0.998898
vn -0.114711 -0.075811 -0.990502
vn -0.113469 -0.075151 -0.990695
vn -0.040554 -0.036046 -0.998527
vn 0.052028 0.010207 -0.998593
vn 0.046365 0.007312 -0.998898
vn 0.829852 0.557948 0.006318
vn 0.829651 0.558134 0.012895
vn 0.830006 0.557755 0.000222
vn 0.830006 0.557755 0.000222
vn 0.830011 0.557748 0.000002
vn 0.829852 0.557948 0.006318
vn -0.797115 0.603734 -0.010616
vn -0.798617 0.601797 -0.007213
vn -0.796942 0.604018 -0.006725
vn -0.796942 0.604018 -0.006725
vn -0.796962 0.603946 -0.010035
vn -0.797115 0.603734 -0.010616
vn -0.798617 0.601797 -0.007213
vn -0.797115 0.603734 -0.010616
vn -0.805538 0.592181 -0.020750
vn -0.000021 -0.000014 1.000000
vn -0.000021 -0.000014 1.000000
vn -0.000021 -0.000014 1.000000
vn -0.000021 -0.000014 1.000000
vn -0.000021 -0.000014 1.000000
vn -0.000021 -0.000014 1.000000
vn 0.593891 -0.803765 0.035432
vn 0.578776 -0.813023 0.063340
vn 0.592968 -0.804368 0.037173
vn 0.592968 -0.804368 0.037173
vn 0.602082 -0.798190 0.019766
vn 0.593891 -0.803765 0.035432
vn 0.829997 0.557767 0.000015
vn 0.830002 0.557761 0.000018
vn 0.829991 0.557777 0.000009
vn 0.829991 0.557777 0.000009
vn 0.829986 0.557784 0.000005
vn 0.829997 0.557767 0.000015
vn -0.584232 0.810934 -0.032555
vn -0.563284 0.826025 -0.019840
vn -0.582244 0.812410 -0.031336
vn -0.582244 0.812410 -0.031336
vn -0.632863 0.771683 -0.063173
vn -0.584232 0.810934 -0.032555
vn -0.829987 -0.557782 -0.000025
vn -0.829989 -0.557780 -0.000022
vn -0.829988 -0.557782 -0.000024
vn -0.829988 -0.557782 -0.000024
vn -0.829987 -0.557783 -0.000027
vn -0.829987 -0.557782 -0.000025
vn 0.576459 -0.816838 0.021705
vn 0.576447 -0.816846 0.021701
vn 0.576450 -0.816844 0.021702
vn 0.576450 -0.816844 0.021702
vn 0.576462 -0.816836 0.021706
vn 0.576459 -0.816838 0.021705
vn 0.830030 0.557719 0.000031
vn 0.829982 0.557791 0.000051
vn 0.829991 0.557777 0.000047
vn 0.829991 0.557777 0.000047
vn 0.830039 0.557705 0.000027
vn 0.830030 0.557719 0.000031
vn -0.556502 0.830561 -0.021754
vn -0.556572 0.830516 -0.021729
vn -0.556556 0.830526 -0.021735
vn -0.556556 0.830526 -0.021735
vn -0.556486 0.830572 -0.021760
vn -0.556502 0.830561 -0.021754
vn -0.830017 -0.557738 -0.000041
vn -0.829999 -0.557765 -0.000032
vn -0.830002 -0.557760 -0.000034
vn -0.830002 -0.557760 -0.000034
vn -0.830021 -0.557733 -0.000043
vn -0.830017 -0.557738 -0.000041
vn -0.000024 -0.000019 1.000000
vn -0.000024 -0.000019 1.000000
vn -0.000024 -0.000019 1.000000
vn -0.000035 0.000001 1.000000
vn -0.000035 0.000001 1.000000
vn -0.000035 0.000001 1.000000
vn -0.000027 -0.000018 1.000000
vn -0.000027 -0.000018 1.000000
vn -0.000027 -0.000018 1.000000
vn -0.000027 -0.000018 1.000000
vn -0.000027 -0.000018 1.000000
vn -0.000027 -0.000018 1.000000
vn -0.000015 -0.000032 1.000000
vn -0.000015 -0.000032 1.000000
vn -0.000015 -0.000032 1.000000
vn -0.000026 -0.000011 1.000000
vn -0.000026 -0.000011 1.000000
vn -0.000026 -0.000011 1.000000
vn -0.000063 -0.000043 1.000000
vn -0.000063 -0.000043 1.000000
vn -0.000063 -0.000043 1.000000
vn -0.000063 -0.000043 1.000000
vn -0.000063 -0.000043 1.000000
vn -0.000063 -0.000043 1.000000
vn -0.000025 -0.000009 1.000000
vn -0.000025 -0.000009 1.000000
vn -0.000025 -0.000009 1.000000
vn -0.000018 -0.000023 1.000000
vn -0.000018 -0.000023 1.000000
vn -0.000018 -0.000023 1.000000
vn -0.000026 -0.000018 1.000000
vn -0.000026 -0.000018 1.000000
vn -0.000026 -0.000018 1.000000
vn -0.000026 -0.000018 1.000000
vn -0.000026 -0.000018 1.000000
vn -0.000026 -0.000018 1.000000
vn -0.000027 -0.000004 1.000000
vn -0.000027 -0.000004 1.000000
vn -0.000027 -0.000004 1.000000
vn -0.000021 -0.000019 1.000000
vn -0.000021 -0.000019 1.000000
vn -0.000021 -0.000019 1.000000
vn -0.000032 -0.000022 1.000000
vn -0.000032 -0.000022 1.000000
vn -0.000032 -0.000022 1.000000
vn -0.000032 -0.000022 1.000000
vn -0.000032 -0.000022 1.000000
vn -0.000032 -0.000022 1.000000
vn -0.572495 0.819618 -0.021818
vn -0.572495 0.819618 -0.021818
vn -0.572495 0.819618 -0.021818
vn -0.572680 0.819493 -0.021668
vn -0.572680 0.819493 -0.021668
vn -0.572680 0.819493 -0.021668
vn -0.829949 -0.557839 0.000011
vn -0.829949 -0.557839 0.000011
vn -0.829949 -0.557839 0.000011
vn -0.830006 -0.557755 -0.000043
vn -0.830006 -0.557755 -0.000043
vn -0.830006 -0.557755 -0.000043
vn 0.545254 -0.837991 0.021667
vn 0.545254 -0.837991 0.021667
vn 0.545254 -0.837991 0.021667
vn 0.545385 -0.837903 0.021774
vn 0.545385 -0.837903 0.021774
vn 0.545385 -0.837903 0.021774
vn 0.830011 0.557746 0.000021
vn 0.830011 0.557746 0.000021
vn 0.830011 0.557746 0.000021
vn 0.830010 0.557748 0.000023
vn 0.830010 0.557748 0.000023
vn 0.830010 0.557748 0.000023
vn -0.163598 0.986522 0.003094
vn -0.161668 0.986845 -0.000000
vn -0.161668 0.986845 -0.000000
vn -0.161668 0.986845 0.000000
vn -0.166783 0.985994 0.000000
vn -0.166783 0.985994 0.000000
vn -0.999866 -0.016341 0.000000
vn -0.999866 -0.016341 0.000000
vn -0.999866 -0.016341 0.000000
vn -0.999866 -0.016341 -0.000000
vn -0.999866 -0.016341 -0.000000
vn -0.999866 -0.016341 -0.000000
vn 0.136104 -0.990694 0.000001
vn 0.136104 -0.990694 0.000001
vn 0.136104 -0.990694 0.000001
vn 0.133497 -0.991039 0.004601
vn 0.133497 -0.991039 0.004601
vn 0.133497 -0.991039 0.004601
vn -0.546264 0.837613 0.000000
vn -0.546264 0.837613 0.000000
vn -0.546264 0.837613 0.000000
vn -0.546267 0.837611 0.000000
vn -0.546267 0.837611 0.000000
vn -0.546267 0.837611 0.000000
vn 0.145236 -0.989397 -0.000005
vn 0.145236 -0.989397 -0.000006
vn 0.145236 -0.989397 -0.000005
vn 0.146689 -0.989170 0.005002
vn 0.146812 -0.989154 0.004430
vn 0.146689 -0.989170 0.005002
vn -0.157763 0.031307 -0.986981
vn -0.157763 0.031307 -0.986981
vn -0.157763 0.031307 -0.986981
vn -0.112320 0.034218 -0.993083
vn -0.112320 0.034218 -0.993083
vn -0.112320 0.034218 -0.993083
vn 0.006574 -0.047854 -0.998833
vn 0.006574 -0.047854 -0.998833
vn 0.006574 -0.047854 -0.998833
vn 0.007983 -0.068765 -0.997601
vn 0.007983 -0.068765 -0.997601
vn 0.007983 -0.068765 -0.997601
vn 0.001239 0.001202 -0.999999
vn -0.048838 0.528015 -0.847830
vn 0.001239 0.001202 -0.999999
vn 0.005841 -0.047981 -0.998831
vn 0.005891 -0.047972 -0.998831
vn 0.005841 -0.047981 -0.998831
vn -0.003617 -0.002224 -0.999991
vn -0.003617 -0.002224 -0.999991
vn -0.003617 -0.002224 -0.999991
vn -0.097622 0.990300 0.098872
vn -0.161670 0.986845 -0.000002
vn -0.161670 0.986845 -0.000002
vn -0.161657 0.986847 -0.000026
vn -0.161657 0.986847 -0.000026
vn -0.161657 0.986847 -0.000026
vn -0.546264 0.837613 -0.000000
vn -0.546264 0.837613 -0.000000
vn -0.546264 0.837613 -0.000000
vn -0.546286 0.837599 0.000005
vn -0.546286 0.837599 0.000005
vn -0.546286 0.837599 0.000005
vn -0.999801 -0.017767 -0.009083
vn -0.999801 -0.017767 -0.009083
vn -0.999801 -0.017767 -0.009083
vn -0.997457 -0.016771 -0.069270
vn -0.997457 -0.016771 -0.069270
vn -0.997457 -0.016771 -0.069270
vn 0.136089 -0.990652 0.009451
vn 0.136089 -0.990652 0.009451
vn 0.136089 -0.990652 0.009451
vn 0.136094 -0.990653 0.009225
vn 0.136094 -0.990653 0.009225
vn 0.136094 -0.990653 0.009225
vn 0.134220 -0.990910 0.009098
vn 0.134220 -0.990910 0.009098
vn 0.134220 -0.990910 0.009098
vn 0.134174 -0.990893 0.011304
vn 0.134168 -0.990883 0.012247
vn 0.134174 -0.990893 0.011304
vn 0.984086 0.129996 0.121139
vn 0.986142 0.133140 -0.098985
vn 0.984086 0.129996 0.121139
vn -0.016092 0.002594 0.999867
vn -0.016092 0.002594 0.999867
vn -0.023843 0.001460 0.999715
vn -0.023710 0.001493 0.999718
vn -0.023710 0.001493 0.999718
vn -0.016675 0.002418 0.999858
vn 0.240539 -0.970634 0.003198
vn 0.248355 -0.968647 0.006555
vn 0.248355 -0.968647 0.006555
vn 0.264585 -0.964346 0.005568
vn 0.225996 -0.974117 0.004679
vn 0.225996 -0.974117 0.004679
vn -0.227614 0.973746 -0.003257
vn -0.261840 0.965086 -0.007060
vn -0.261840 0.965086 -0.007060
vn -0.247073 0.968981 -0.005513
vn -0.242228 0.970208 -0.004740
vn -0.242228 0.970208 -0.004740
vn 0.020330 -0.001872 -0.999792
vn 0.021390 -0.001827 -0.999770
vn 0.021390 -0.001827 -0.999770
vn 0.022018 -0.001646 -0.999756
vn 0.020316 -0.001876 -0.999792
vn 0.020316 -0.001876 -0.999792
vn -0.017317 0.002477 0.999847
vn -0.017317 0.002477 0.999847
vn -0.023118 0.001635 0.999731
vn -0.023028 0.001658 0.999733
vn -0.023028 0.001658 0.999733
vn -0.017901 0.002300 0.999837
vn 0.244978 -0.969523 0.003246
vn 0.245213 -0.969447 0.006488
vn 0.245213 -0.969447 0.006488
vn 0.258620 -0.965963 0.005577
vn 0.230361 -0.973094 0.004728
vn 0.230361 -0.973094 0.004728
vn -0.232533 0.972583 -0.003361
vn -0.257149 0.966347 -0.006989
vn -0.257149 0.966347 -0.006989
vn -0.243557 0.969871 -0.005470
vn -0.246017 0.969254 -0.004724
vn -0.246017 0.969254 -0.004724
vn 0.020957 -0.001843 -0.999779
vn 0.020479 -0.002023 -0.999788
vn 0.020479 -0.002023 -0.999788
vn 0.989274 0.142393 0.032573
vn 0.989274 0.142393 0.032573
vn 0.989274 0.142393 0.032573
vn 0.989248 0.142552 0.032681
vn 0.989248 0.142552 0.032681
vn 0.989248 0.142552 0.032681
vn -0.010041 0.003975 0.999942
vn -0.010041 0.003975 0.999942
vn -0.027418 0.001394 0.999623
vn -0.028551 0.001161 0.999592
vn -0.028551 0.001161 0.999592
vn -0.011234 0.003599 0.999930
vn 0.221521 -0.975153 0.002347
vn 0.268150 -0.963356 0.006402
vn 0.268150 -0.963356 0.006402
vn 0.289637 -0.957119 0.005788
vn 0.197796 -0.980232 0.004731
vn 0.197796 -0.980232 0.004731
vn -0.201269 0.979533 -0.002489
vn -0.287355 0.957797 -0.007180
vn -0.287355 0.957797 -0.007180
vn -0.266067 0.963938 -0.005634
vn -0.223580 0.974674 -0.004728
vn -0.223580 0.974674 -0.004728
vn 0.015548 -0.003055 -0.999874
vn 0.024027 -0.001913 -0.999709
vn 0.024027 -0.001913 -0.999709
vn 0.024109 -0.001892 -0.999708
vn 0.014945 -0.003245 -0.999883
vn 0.014945 -0.003245 -0.999883
vn 0.989233 0.142572 0.033033
vn 0.989233 0.142572 0.033033
vn 0.989233 0.142572 0.033033
vn 0.989232 0.142576 0.033035
vn 0.989232 0.142576 0.033035
vn 0.989232 0.142576 0.033035
vn -0.025988 -0.000658 0.999662
vn -0.025988 -0.000658 0.999662
vn -0.025988 -0.000658 0.999662
vn -0.026262 -0.000578 0.999655
vn -0.026262 -0.000578 0.999655
vn -0.026262 -0.000578 0.999655
vn 0.992612 0.118023 0.028142
vn 0.992612 0.118023 0.028142
vn 0.992612 0.118023 0.028142
vn 0.994799 0.084804 0.056420
vn 0.994799 0.084804 0.056420
vn 0.994799 0.084804 0.056420
vn -0.114817 0.993365 -0.006515
vn -0.114817 0.993365 -0.006515
vn -0.114817 0.993365 -0.006515
vn -0.114819 0.993365 -0.006518
vn -0.114819 0.993365 -0.006518
vn -0.114819 0.993365 -0.006518
vn -0.991428 -0.117957 -0.056184
vn -0.991428 -0.117957 -0.056184
vn -0.991428 -0.117957 -0.056184
vn -0.994434 -0.101525 -0.028171
vn -0.994434 -0.101525 -0.028171
vn -0.994434 -0.101525 -0.028171
vn 0.114898 -0.993372 0.003259
vn 0.114898 -0.993372 0.003259
vn 0.114898 -0.993372 0.003259
vn 0.114906 -0.993371 0.003255
vn 0.114906 -0.993371 0.003255
vn 0.114906 -0.993371 0.003255
vn 0.992610 0.118521 0.026038
vn 0.992610 0.118521 0.026038
vn 0.992610 0.118521 0.026038
vn 0.992622 0.118432 0.025997
vn 0.992622 0.118432 0.025997
vn 0.992622 0.118432 0.025997
vn -0.114828 0.993381 -0.003012
vn -0.114828 0.993381 -0.003012
vn -0.114828 0.993381 -0.003012
vn -0.114855 0.993378 -0.003005
vn -0.114855 0.993378 -0.003005
vn -0.114855 0.993378 -0.003005
vn -0.992608 -0.118548 -0.025996
vn -0.992608 -0.118548 -0.025996
vn -0.992608 -0.118548 -0.025996
vn -0.992608 -0.118547 -0.025997
vn -0.992608 -0.118547 -0.025997
vn -0.992608 -0.118547 -0.025997
vn 0.114850 -0.993378 0.003008
vn 0.114850 -0.993378 0.003008
vn 0.114850 -0.993378 0.003008
vn 0.114858 -0.993377 0.003010
vn 0.114858 -0.993377 0.003010
vn 0.114858 -0.993377 0.003010
vn -0.026652 -0.000514 0.999645
vn -0.026652 -0.000514 0.999645
vn -0.026652 -0.000514 0.999645
vn -0.026073 -0.000497 0.999660
vn -0.026073 -0.000497 0.999660
vn -0.026073 -0.000497 0.999660
vn -0.026310 0.001044 0.999653
vn -0.026310 0.001044 0.999653
vn -0.026310 0.001044 0.999653
vn -0.026296 0.000154 0.999654
vn -0.026296 0.000154 0.999654
vn -0.026296 0.000154 0.999654
vn -0.025611 -0.000393 0.999672
vn -0.025611 -0.000393 0.999672
vn -0.025611 -0.000393 0.999672
vn -0.025066 -0.000377 0.999686
vn -0.025066 -0.000377 0.999686
vn -0.025066 -0.000377 0.999686
vn -0.026135 -0.000426 0.999658
vn -0.026135 -0.000426 0.999658
vn -0.026135 -0.000426 0.999658
vn -0.026121 -0.001350 0.999658
vn -0.026121 -0.001350 0.999658
vn -0.026121 -0.001350 0.999658
vn -0.025818 -0.000524 0.999666
vn -0.025818 -0.000524 0.999666
vn -0.025818 -0.000524 0.999666
vn -0.026400 -0.000534 0.999651
vn -0.026400 -0.000534 0.999651
vn -0.026400 -0.000534 0.999651
vn -0.026065 0.000040 0.999660
vn -0.026065 0.000040 0.999660
vn -0.026065 0.000040 0.999660
vn -0.026072 -0.000235 0.999660
vn -0.026072 -0.000235 0.999660
vn -0.026072 -0.000235 0.999660
vn -0.025710 -0.000628 0.999669
vn -0.025710 -0.000628 0.999669
vn -0.025710 -0.000628 0.999669
vn -0.026427 -0.000640 0.999650
vn -0.026427 -0.000640 0.999650
vn -0.026427 -0.000640 0.999650
vn -0.026296 -0.000338 0.999654
vn -0.026296 -0.000338 0.999654
vn -0.026296 -0.000338 0.999654
vn -0.026286 0.000029 0.999655
vn -0.026286 0.000029 0.999655
vn -0.026286 0.000029 0.999655
vn -0.992559 -0.118983 -0.025894
vn -0.992559 -0.118983 -0.025894
vn -0.992559 -0.118983 -0.025894
vn -0.992562 -0.118949 -0.025937
vn -0.992562 -0.118949 -0.025937
vn -0.992562 -0.118949 -0.025937
vn 0.115044 -0.993356 0.003006
vn 0.115044 -0.993356 0.003006
vn 0.115044 -0.993356 0.003006
vn 0.115050 -0.993355 0.003009
vn 0.115050 -0.993355 0.003009
vn 0.115050 -0.993355 0.003009
vn 0.992548 0.119046 0.026018
vn 0.992548 0.119046 0.026018
vn 0.992548 0.119046 0.026018
vn 0.992553 0.119014 0.025978
vn 0.992553 0.119014 0.025978
vn 0.992553 0.119014 0.025978
vn -0.115071 0.993353 -0.003004
vn -0.115071 0.993353 -0.003004
vn -0.115071 0.993353 -0.003004
vn -0.115043 0.993356 -0.003018
vn -0.115043 0.993356 -0.003018
vn -0.115043 0.993356 -0.003018
vn 0.021029 -0.001856 -0.999777
vn 0.020952 -0.001845 -0.999779
vn 0.020952 -0.001845 -0.999779
vn 0.989252 0.142499 0.032780
vn 0.989252 0.142499 0.032780
vn 0.989252 0.142499 0.032780
vn 0.989250 0.142511 0.032788
vn 0.989250 0.142511 0.032788
vn 0.989250 0.142511 0.032788
vn -0.390069 0.920785 0.001229
vn -0.390069 0.920785 0.001229
vn -0.390069 0.920785 0.001229
vn -0.441825 0.897101 -0.000000
vn -0.441825 0.897101 -0.000000
vn -0.441825 0.897101 -0.000000
vn -0.408829 0.911545 -0.044104
vn -0.408829 0.911545 -0.044104
vn -0.408829 0.911545 -0.044104
vn 0.535079 0.088054 0.840201
vn 0.535079 0.088054 0.840201
vn 0.535079 0.088054 0.840201
vn 0.535070 0.088040 0.840208
vn 0.524625 0.068860 0.848544
vn 0.535070 0.088040 0.840208
vn 0.067052 -0.524950 0.848488
vn 0.067052 -0.524950 0.848488
vn 0.067052 -0.524950 0.848488
vn 0.076462 -0.556604 0.827252
vn 0.076462 -0.556604 0.827252
vn 0.076462 -0.556604 0.827252
vn 0.128198 -0.520178 0.844381
vn 0.128198 -0.520178 0.844381
vn 0.128198 -0.520178 0.844381
vn -0.113469 -0.075151 -0.990695
vn -0.029714 -0.030526 -0.999092
vn 0.046365 0.007312 -0.998898
vn -0.029714 -0.030526 -0.999092
vn -0.040554 -0.036046 -0.998527
vn 0.046365 0.007312 -0.998898
vn -0.520972 0.853574 0.000013
vn -0.520972 0.853574 0.000013
vn -0.520972 0.853574 0.000013
vn -0.878457 -0.477821 -0.000004
vn -0.878457 -0.477821 -0.000004
vn -0.878457 -0.477821 -0.000004
vn -0.878470 -0.477798 0.000021
vn -0.878470 -0.477798 0.000021
vn -0.878470 -0.477798 0.000021
vn 0.504835 -0.863216 -0.000008
vn 0.504835 -0.863216 -0.000008
vn 0.504835 -0.863216 -0.000008
vn -0.539369 -0.316625 0.780275
vn -0.452820 -0.240012 0.858690
vn -0.523929 -0.314517 0.791567
vn 0.605309 0.366937 0.706369
vn 0.659714 0.453727 0.599091
vn 0.648767 0.434225 0.624940
vn 0.586437 0.330743 0.739392
vn 0.588917 0.346438 0.730176
vn 0.605309 0.366937 0.706369
vn -0.593104 -0.346859 0.726579
vn -0.592104 -0.330396 0.735018
vn -0.593278 -0.350100 0.724880
vn -0.452820 -0.240012 0.858690
vn -0.454545 -0.233223 0.859648
vn -0.523929 -0.314517 0.791567
vn 0.648767 0.434225 0.624940
vn 0.588866 0.336881 0.734675
vn 0.605309 0.366937 0.706369
vn -0.539369 -0.316625 0.780275
vn -0.622833 -0.385198 0.680956
vn -0.621694 -0.363033 0.694049
vn 0.588866 0.336881 0.734675
vn 0.586437 0.330743 0.739392
vn 0.605309 0.366937 0.706369
vn -0.621694 -0.363033 0.694049
vn -0.619592 -0.333822 0.710400
vn -0.539369 -0.316625 0.780275
vn -0.523929 -0.314517 0.791567
vn -0.593104 -0.346859 0.726579
vn -0.593278 -0.350100 0.724880
vn 0.983879 0.129932 0.122882
vn 0.983879 0.129932 0.122882
vn 0.983879 0.129932 0.122882
vn -0.003726 -0.002236 -0.999991
vn -0.003726 -0.002236 -0.999991
vn -0.003726 -0.002236 -0.999991
vn 0.989029 0.147721 -0.000022
vn 0.989029 0.147721 -0.000022
vn 0.989029 0.147721 -0.000022
vn 0.989028 0.147726 0.000019
vn 0.989028 0.147726 0.000019
vn 0.989028 0.147726 0.000019
vn 0.989029 0.147724 0.000004
vn 0.989029 0.147724 0.000004
vn 0.989029 0.147724 0.000004
vn 0.989024 0.147757 0.000024
vn 0.989024 0.147757 0.000024
vn 0.989024 0.147757 0.000024
vn 0.989032 0.147701 0.000005
vn 0.989032 0.147701 0.000005
vn 0.989032 0.147701 0.000005
vn 0.989028 0.147731 0.000023
vn 0.989028 0.147731 0.000023
vn 0.989028 0.147731 0.000023
vn 0.989028 0.147726 0.000010
vn 0.989028 0.147726 0.000010
vn 0.989028 0.147726 0.000010
vn 0.989026 0.147740 -0.000003
vn 0.989026 0.147740 -0.000003
vn 0.989026 0.147740 -0.000003
vn 0.989029 0.147721 0.000017
vn 0.989029 0.147721 0.000017
vn 0.989029 0.147721 0.000017
vn 0.989028 0.147726 0.000011
vn 0.989028 0.147726 0.000011
vn 0.989028 0.147726 0.000011
vn 0.989031 0.147706 0.000005
vn 0.989031 0.147706 0.000005
vn 0.989031 0.147706 0.000005
vn 0.989029 0.147722 0.000020
vn 0.989029 0.147722 0.000020
vn 0.989029 0.147722 0.000020
vn 0.989029 0.147721 0.000024
vn 0.989029 0.147721 0.000024
vn 0.989029 0.147721 0.000024
vn 0.989034 0.147691 -0.000003
vn 0.989034 0.147691 -0.000003
vn 0.989034 0.147691 -0.000003
vn 0.989024 0.147756 -0.000006
vn 0.989024 0.147756 -0.000006
vn 0.989024 0.147756 -0.000006
vn 0.989024 0.147756 -0.000005
vn 0.989024 0.147756 -0.000005
vn 0.989024 0.147756 -0.000005
vn 0.989027 0.147737 0.000019
vn 0.989027 0.147737 0.000019
vn 0.989027 0.147737 0.000019
vn 0.989028 0.147731 0.000015
vn 0.989028 0.147731 0.000015
vn 0.989028 0.147731 0.000015
vn 0.989029 0.147724 0.000050
vn 0.989029 0.147724 0.000050
vn 0.989029 0.147724 0.000050
vn 0.989032 0.147703 0.000208
vn 0.989032 0.147703 0.000208
vn 0.989032 0.147703 0.000208
vn 0.989031 0.147710 0.000155
vn 0.989031 0.147710 0.000155
vn 0.989031 0.147710 0.000155
vn 0.989028 0.147726 0.000005
vn 0.989028 0.147726 0.000005
vn 0.989028 0.147726 0.000005
vn 0.989028 0.147731 0.000010
vn 0.989028 0.147731 0.000010
vn 0.989028 0.147731 0.000010
vn 0.989025 0.147748 -0.000309
vn 0.989025 0.147748 -0.000309
vn 0.989025 0.147748 -0.000309
# 615 vertex normals

vt 1.000000 0.000000 0.000000
vt 1.000000 1.000000 0.000000
vt 0.750000 1.000000 0.000000
vt 0.750000 0.000000 0.000000
vt 0.000000 1.000000 0.000000
vt 0.750000 0.500000 0.000000
vt 0.875000 1.000000 0.000000
vt 0.016300 0.887500 0.000000
vt 0.229000 0.887500 0.000000
vt 0.229000 0.983700 0.000000
vt 0.016300 0.983700 0.000000
vt 0.745400 0.521400 0.000000
vt 0.372700 0.521400 0.000000
vt 0.372700 0.276100 0.000000
vt 0.745400 0.276100 0.000000
vt 0.745400 0.840500 0.000000
vt 0.372700 0.840500 0.000000
vt 0.372700 0.711700 0.000000
vt 0.745400 0.711700 0.000000
vt 0.745400 0.245400 0.000000
vt 0.372700 0.245400 0.000000
vt 0.372700 0.000000 0.000000
vt 0.745400 0.000000 0.000000
vt 0.745400 0.681000 0.000000
vt 0.372700 0.681000 0.000000
vt 0.372700 0.552100 0.000000
vt 0.745400 0.552100 0.000000
vt 0.000000 0.505100 0.000000
vt 0.000000 0.292400 0.000000
vt 0.372700 0.292400 0.000000
vt 0.372700 0.505100 0.000000
vt 0.000000 0.824100 0.000000
vt 0.000000 0.728000 0.000000
vt 0.372700 0.728000 0.000000
vt 0.372700 0.824100 0.000000
vt 0.000000 0.229000 0.000000
vt 0.000000 0.016300 0.000000
vt 0.372700 0.016300 0.000000
vt 0.372700 0.229000 0.000000
vt 0.000000 0.664600 0.000000
vt 0.000000 0.568500 0.000000
vt 0.372700 0.568500 0.000000
vt 0.372700 0.664600 0.000000
vt 0.000000 0.871200 0.000000
vt 0.245400 0.871200 0.000000
vt 0.245400 1.000000 0.000000
vt 0.500000 0.000000 0.000000
vt 0.500000 0.500000 0.000000
vt 0.000000 1.000000 0.000000
vt 0.000000 0.000000 0.000000
vt 0.375000 1.000000 0.000000
vt 0.750000 0.000000 0.000000
vt 0.750000 0.500000 0.000000
vt 0.750000 1.000000 0.000000
vt 1.000000 1.000000 0.000000
vt 1.000000 0.000000 0.000000
vt 0.625000 1.000000 0.000000
vt 0.750000 0.412400 0.000000
vt 0.993000 0.980500 0.000000
vt 0.011400 0.985500 0.000000
vt 0.011400 0.021700 0.000000
vt 0.993000 0.016700 0.000000
vt 0.016300 0.887500 0.000000
vt 0.229000 0.887500 0.000000
vt 0.229000 0.983700 0.000000
vt 0.016300 0.983700 0.000000
vt 0.745400 0.521400 0.000000
vt 0.372700 0.521400 0.000000
vt 0.372700 0.276100 0.000000
vt 0.745400 0.276100 0.000000
vt 0.745400 0.840500 0.000000
vt 0.372700 0.840500 0.000000
vt 0.372700 0.711700 0.000000
vt 0.745400 0.711700 0.000000
vt 0.745400 0.245400 0.000000
vt 0.372700 0.245400 0.000000
vt 0.372700 0.000000 0.000000
vt 0.745400 0.000000 0.000000
vt 0.745400 0.681000 0.000000
vt 0.372700 0.681000 0.000000
vt 0.372700 0.552100 0.000000
vt 0.745400 0.552100 0.000000
vt 0.000000 0.505100 0.000000
vt 0.000000 0.292400 0.000000
vt 0.372700 0.292400 0.000000
vt 0.372700 0.505100 0.000000
vt 0.000000 0.824100 0.000000
vt 0.000000 0.728000 0.000000
vt 0.372700 0.728000 0.000000
vt 0.372700 0.824100 0.000000
vt 0.000000 0.229000 0.000000
vt 0.000000 0.016300 0.000000
vt 0.372700 0.016300 0.000000
vt 0.372700 0.229000 0.000000
vt 0.000000 0.664600 0.000000
vt 0.000000 0.568500 0.000000
vt 0.372700 0.568500 0.000000
vt 0.372700 0.664600 0.000000
vt 0.000000 0.871200 0.000000
vt 0.245400 0.871200 0.000000
vt 0.245400 1.000000 0.000000
vt 0.999316 0.980500 0.000000
vt -0.029657 0.985500 0.000000
vt 0.001925 0.021700 0.000000
vt 0.993000 0.016700 0.000000
vt 2.033129 1.157318 0.999498
vt -0.889240 -2.055389 0.165499
vt 2.159565 0.707024 0.876005
vt 2.064871 -2.062027 0.154234
vt -0.109657 2.006826 0.999500
vt -0.396767 -0.933331 0.061892
vt 3.009689 -1.015018 0.165501
vt -2.089180 1.518661 0.943333
vt -2.415932 -0.888283 0.000500
vt 1.000000 0.329226 0.000000
vt 1.000000 0.441500 0.000000
vt -1.437279 0.618538 0.957219
vt 2.377060 0.627014 0.999500
vt 1.930893 1.692612 0.000500
vt -1.280220 1.764244 0.039599
vt -0.006439 1.746170 0.026727
vt 0.407433 1.730576 0.022337
vt -0.013863 0.626930 0.968704
vt 0.420937 0.620224 0.972931
vt -0.006447 1.746185 0.393972
vt 0.403610 1.731590 0.388844
vt 0.000000 1.000000 0.000000
vt 0.000000 0.000000 0.000000
vt 0.000000 1.000000 0.000000
vt 0.000000 0.000000 0.000000
vt -1.491489 1.975540 0.039215
vt 6.310837 5.489136 -0.647396
vt 6.310856 2.375076 -0.828888
vt -1.491486 -1.449997 -0.160429
vt -8.170464 -2.149704 -0.009392
vt -8.170460 0.983948 0.173243
vt -6.181641 -1.619476 0.667067
vt -6.162716 -4.753021 0.495644
vt -2.761051 -5.961639 1.493614
vt -2.761021 -8.995941 1.316774
vt -8.655460 1.212173 0.166046
vt -1.580845 6.360123 0.256092
vt -1.547382 2.142548 0.014709
vt -8.653378 1.086563 0.159853
vt 2.973194 -6.695892 1.186277
vt 4.049625 -6.500610 1.147997
vt 3.978069 -6.430283 1.134115
vt 2.901386 -6.625717 1.172398
vt 4.056988 -5.030380 1.233345
vt 3.983089 -4.961075 1.219507
vt 2.906506 -5.156494 1.257788
vt 2.980656 -5.225723 1.271614
vt 0.996876 -7.056259 1.256449
vt 2.059223 -6.863571 1.218668
vt 1.986973 -6.793564 1.204802
vt 0.924286 -6.986389 1.242590
vt 2.066685 -5.385712 1.304453
vt 1.992092 -5.316635 1.290638
vt 0.929596 -5.509445 1.328423
vt 1.004360 -5.578476 1.342230
vt -0.955944 -7.409348 1.325964
vt 0.026775 -7.231522 1.290995
vt -0.040318 -7.159470 1.277002
vt -1.023556 -7.337601 1.311985
vt 0.034222 -5.753708 1.376774
vt -0.036610 -5.683090 1.362877
vt -1.019650 -5.861069 1.397852
vt -0.948475 -5.931564 1.411745
vt 0.462021 3.553818 0.436941
vt 2.279499 4.528091 0.766245
vt 2.279495 0.083359 0.507200
vt 4.522282 5.453354 0.088449
vt 2.212482 3.734787 -0.300287
vt 2.212490 4.846085 -0.235516
vt 1.275379 3.352554 -0.224489
vt 1.275364 4.466110 -0.159590
vt 3.557674 5.014740 0.168470
vt 5.806698 -4.380936 1.190470
vt 5.806713 -6.959946 1.040167
vt 2.761932 -7.737442 1.135321
vt 0.785309 -8.106308 1.205013
vt 2.004601 -7.874588 1.162268
vt -0.028225 -8.254257 1.233925
vt -1.697739 -0.033871 0.666260
vt 2.663757 -0.143879 0.800003
vt 2.408058 1.151825 0.177818
vt -0.160797 1.135361 0.118431
vt -1.583405 1.139126 0.068665
vt 0.273384 1.131908 0.142525
# 189 texture coords

g Kiriku_8_1
usemtl xxx
s 4
f -115/-188/-615 -114/-187/-614 -113/-186/-613 
f -113/-186/-612 -116/-189/-611 -115/-188/-610 
usemtl Kiriku_8_OrangePlaster
s 2
f -111/-59/-609 -115/-58/-608 -116/-57/-607 
f -116/-57/-606 -112/-56/-605 -111/-59/-604 
usemtl xxx
s 8
f -105/-186/-603 -113/-186/-602 -114/-187/-601 
f -114/-187/-600 -106/-184/-599 -105/-186/-598 
usemtl Kiriku_8_valge
s 1
f -115/-188/-597 -111/-185/-596 -107/-189/-595 
f -9/-74/-594 -108/-188/-593 -115/-188/-592 
usemtl xxx
s 8
f -114/-187/-591 -104/-187/-590 -103/-186/-589 
f -103/-186/-588 -106/-184/-587 -114/-187/-586 
s 4
f -109/-183/-585 -114/-187/-584 -115/-188/-583 
f -115/-188/-582 -108/-188/-581 -109/-183/-580 
f -114/-187/-579 -109/-183/-578 -104/-187/-577 
usemtl Kiriku8_must
f -101/-181/-576 -100/-180/-575 -99/-179/-574 
f -99/-179/-573 -102/-182/-572 -101/-181/-571 
usemtl Kiriku_8_valge
s 8
f -97/-177/-570 -96/-176/-569 -95/-175/-568 
f -95/-175/-567 -98/-178/-566 -97/-177/-565 
s 16
f -93/-173/-564 -97/-172/-563 -98/-171/-562 
f -98/-171/-561 -94/-174/-560 -93/-173/-559 
s 32
f -91/-169/-558 -93/-168/-557 -94/-167/-556 
f -94/-167/-555 -92/-170/-554 -91/-169/-553 
s 64
f -96/-165/-552 -91/-164/-551 -92/-163/-550 
f -92/-163/-549 -95/-166/-548 -96/-165/-547 
s 8
f -89/-161/-546 -88/-160/-545 -87/-159/-544 
f -87/-159/-543 -90/-162/-542 -89/-161/-541 
s 16
f -90/-157/-540 -87/-156/-539 -85/-155/-538 
f -85/-155/-537 -86/-158/-536 -90/-157/-535 
s 32
f -86/-153/-534 -85/-152/-533 -83/-151/-532 
f -83/-151/-531 -84/-154/-530 -86/-153/-529 
s 64
f -84/-149/-528 -83/-148/-527 -88/-147/-526 
f -88/-147/-525 -89/-150/-524 -84/-149/-523 
s off
f -88/-182/-522 -96/-146/-521 -97/-145/-520 
f -97/-145/-519 -87/-181/-518 -88/-182/-517 
f -83/-179/-516 -91/-185/-515 -96/-146/-514 
f -96/-146/-513 -88/-182/-512 -83/-179/-511 
f -85/-180/-510 -93/-144/-509 -91/-185/-508 
f -91/-185/-507 -83/-179/-506 -85/-180/-505 
f -87/-181/-504 -97/-145/-503 -93/-144/-502 
f -93/-144/-501 -85/-180/-500 -87/-181/-499 
usemtl Kiriku_8_PlasterGrey
f -90/-162/-498 -82/-181/-497 -81/-182/-496 
f -81/-182/-495 -89/-161/-494 -90/-162/-493 
f -86/-158/-492 -80/-180/-491 -82/-181/-490 
f -82/-181/-489 -90/-157/-488 -86/-158/-487 
f -84/-154/-486 -79/-179/-485 -80/-180/-484 
f -80/-180/-483 -86/-153/-482 -84/-154/-481 
f -89/-150/-480 -81/-182/-479 -79/-179/-478 
f -79/-179/-477 -84/-149/-476 -89/-150/-475 
usemtl Kiriku8_must
f -82/-181/-474 -101/-181/-473 -102/-182/-472 
f -102/-182/-471 -81/-182/-470 -82/-181/-469 
f -80/-180/-468 -100/-180/-467 -101/-181/-466 
f -101/-181/-465 -82/-181/-464 -80/-180/-463 
f -79/-179/-462 -99/-179/-461 -100/-180/-460 
f -100/-180/-459 -80/-180/-458 -79/-179/-457 
f -81/-182/-456 -102/-182/-455 -99/-179/-454 
f -99/-179/-453 -79/-179/-452 -81/-182/-451 
usemtl Kiriku_8_PlasterGrey
f -74/-142/-450 -73/-141/-449 -72/-140/-448 
f -72/-140/-447 -75/-143/-446 -74/-142/-445 
usemtl Kiriku_8_OrangePlaster
f -71/-55/-444 -70/-54/-443 -111/-59/-442 
f -111/-59/-441 -112/-56/-440 -71/-55/-439 
f -68/-53/-438 -70/-54/-437 -71/-55/-436 
f -71/-55/-435 -69/-52/-434 -68/-53/-433 
usemtl xxx
f -105/-138/-432 -106/-137/-431 -74/-142/-430 
f -74/-142/-429 -75/-143/-428 -105/-138/-427 
usemtl Kiriku_8_OrangePlaster
f -66/-51/-426 -68/-53/-425 -67/-50/-424 
f -69/-52/-423 -67/-50/-422 -68/-53/-421 
usemtl Kiriku_8_valge
f -70/-135/-420 -63/-135/-419 -107/-134/-418 
f -107/-134/-417 -111/-141/-416 -70/-135/-415 
f -70/-141/-414 -68/-139/-413 -62/-133/-412 
f -62/-133/-411 -63/-135/-410 -70/-141/-409 
f -61/-141/-408 -68/-139/-407 -66/-136/-406 
f -68/-139/-405 -61/-141/-404 -62/-133/-403 
f -66/-141/-402 -73/-135/-401 -60/-140/-400 
usemtl Kiriku_8_PlasterGrey
f -74/-143/-399 -59/-140/-398 -73/-141/-397 
f -60/-140/-396 -73/-141/-395 -59/-140/-394 
usemtl xxx
f -103/-132/-393 -78/-138/-392 -74/-142/-391 
f -74/-142/-390 -106/-137/-389 -103/-132/-388 
usemtl Kiriku_8_OrangePlaster
f -64/-49/-387 -65/-48/-386 -107/-47/-385 
f -107/-47/-384 -63/-46/-383 -64/-49/-382 
usemtl Kiriku_8_valge
f -77/-133/-381 -64/-135/-380 -63/-135/-379 
f -63/-135/-378 -62/-133/-377 -77/-133/-376 
f -76/-141/-375 -77/-133/-374 -62/-133/-373 
f -62/-133/-372 -61/-141/-371 -76/-141/-370 
f -59/-140/-369 -76/-141/-368 -61/-141/-367 
usemtl Kiriku_8_OrangePlaster
f -56/-45/-366 -55/-44/-365 -54/-43/-364 
f -54/-43/-363 -53/-42/-362 -56/-45/-361 
f -52/-41/-360 -51/-40/-359 -54/-43/-358 
f -54/-43/-357 -55/-44/-356 -52/-41/-355 
f -56/-45/-354 -53/-42/-353 -49/-39/-352 
f -49/-39/-351 -50/-38/-350 -56/-45/-349 
f -50/-38/-348 -49/-39/-347 -51/-40/-346 
f -51/-40/-345 -52/-41/-344 -50/-38/-343 
f -48/-37/-342 -47/-36/-341 -46/-35/-340 
f -46/-35/-339 -45/-34/-338 -48/-37/-337 
f -44/-33/-336 -43/-32/-335 -46/-35/-334 
f -46/-35/-333 -47/-36/-332 -44/-33/-331 
f -48/-37/-330 -45/-34/-329 -41/-31/-328 
f -41/-31/-327 -42/-30/-326 -48/-37/-325 
f -42/-30/-324 -41/-31/-323 -43/-32/-322 
usemtl Kiriku_8_Window05
f -41/-130/-321 -45/-129/-320 -46/-128/-319 
f -46/-128/-318 -43/-131/-317 -41/-130/-316 
usemtl Kiriku_8_OrangePlaster
f -40/-29/-315 -39/-28/-314 -38/-27/-313 
f -38/-27/-312 -37/-26/-311 -40/-29/-310 
f -57/-25/-309 -36/-24/-308 -38/-27/-307 
f -38/-27/-306 -39/-28/-305 -57/-25/-304 
f -40/-29/-303 -37/-26/-302 -35/-23/-301 
f -35/-23/-300 -58/-22/-299 -40/-29/-298 
f -58/-22/-297 -35/-23/-296 -36/-24/-295 
f -36/-24/-294 -57/-25/-293 -58/-22/-292 
usemtl Kiriku_8_Window05
f -35/-130/-291 -37/-129/-290 -38/-128/-289 
f -38/-128/-288 -36/-131/-287 -35/-130/-286 
usemtl Kiriku8_must
f -33/-126/-285 -32/-125/-284 -31/-124/-283 
f -31/-124/-282 -34/-127/-281 -33/-126/-280 
usemtl Kiriku_8_valge
f -29/-122/-279 -28/-121/-278 -27/-120/-277 
f -27/-120/-276 -30/-123/-275 -29/-122/-274 
f -25/-118/-273 -29/-117/-272 -30/-116/-271 
f -30/-116/-270 -26/-119/-269 -25/-118/-268 
f -23/-114/-267 -25/-113/-266 -26/-112/-265 
f -26/-112/-264 -24/-115/-263 -23/-114/-262 
f -28/-110/-261 -23/-109/-260 -24/-108/-259 
f -24/-108/-258 -27/-111/-257 -28/-110/-256 
f -21/-106/-255 -20/-105/-254 -19/-104/-253 
f -19/-104/-252 -22/-107/-251 -21/-106/-250 
f -22/-102/-249 -19/-101/-248 -17/-100/-247 
f -17/-100/-246 -18/-103/-245 -22/-102/-244 
f -18/-98/-243 -17/-97/-242 -15/-96/-241 
f -15/-96/-240 -16/-99/-239 -18/-98/-238 
f -16/-94/-237 -15/-93/-236 -20/-92/-235 
f -20/-92/-234 -21/-95/-233 -16/-94/-232 
f -20/-127/-231 -28/-91/-230 -29/-90/-229 
f -29/-90/-228 -19/-126/-227 -20/-127/-226 
f -15/-124/-225 -23/-141/-224 -28/-91/-223 
f -28/-91/-222 -20/-127/-221 -15/-124/-220 
f -17/-125/-219 -25/-89/-218 -23/-141/-217 
f -23/-141/-216 -15/-124/-215 -17/-125/-214 
f -19/-126/-213 -29/-90/-212 -25/-89/-211 
f -25/-89/-210 -17/-125/-209 -19/-126/-208 
usemtl Kiriku_8_PlasterGrey
f -22/-107/-207 -14/-126/-206 -13/-127/-205 
f -13/-127/-204 -21/-106/-203 -22/-107/-202 
f -18/-103/-201 -12/-125/-200 -14/-126/-199 
f -14/-126/-198 -22/-102/-197 -18/-103/-196 
f -16/-99/-195 -11/-124/-194 -12/-125/-193 
f -12/-125/-192 -18/-98/-191 -16/-99/-190 
f -21/-95/-189 -13/-127/-188 -11/-124/-187 
f -11/-124/-186 -16/-94/-185 -21/-95/-184 
usemtl Kiriku8_must
f -14/-126/-183 -33/-126/-182 -34/-127/-181 
f -34/-127/-180 -13/-127/-179 -14/-126/-178 
f -12/-125/-177 -32/-125/-176 -33/-126/-175 
f -33/-126/-174 -14/-126/-173 -12/-125/-172 
f -11/-124/-171 -31/-124/-170 -32/-125/-169 
f -32/-125/-168 -12/-125/-167 -11/-124/-166 
f -13/-127/-165 -34/-127/-164 -31/-124/-163 
f -31/-124/-162 -11/-124/-161 -13/-127/-160 
usemtl Kiriku_8_OrangePlaster
f -43/-32/-159 -44/-33/-158 -42/-30/-157 
usemtl Kiriku_8_Window04
f -49/-87/-156 -53/-86/-155 -54/-85/-154 
f -54/-85/-153 -51/-88/-152 -49/-87/-151 
usemtl Kiriku_8_OrangePlaster
f -65/-48/-150 -110/-21/-149 -107/-47/-148 
f -78/-20/-147 -103/-19/-146 -110/-21/-145 
f -110/-21/-144 -65/-48/-143 -78/-20/-142 
usemtl Kiriku_8_Roof02
f -76/-83/-141 -74/-82/-140 -78/-84/-139 
f -76/-83/-138 -59/-81/-137 -74/-82/-136 
f -78/-80/-135 -77/-79/-134 -76/-78/-133 
f -65/-77/-132 -64/-76/-131 -77/-79/-130 
f -77/-79/-129 -78/-80/-128 -65/-77/-127 
usemtl Kiriku_8_valge
s 1
f -107/-189/-126 -10/-75/-125 -115/-188/-124 
f -10/-75/-123 -9/-74/-122 -115/-188/-121 
usemtl Kiriku_8_OrangePlaster
s off
f -7/-18/-120 -9/-17/-119 -5/-16/-118 
f -9/-17/-117 -10/-15/-116 -6/-14/-115 
f -6/-14/-114 -5/-16/-113 -9/-17/-112 
f -8/-13/-111 -6/-14/-110 -10/-15/-109 
usemtl Kiriku_8_Roof01
s 16
f -7/-66/-108 -5/-64/-107 -8/-67/-106 
s 1
f -103/-6/-105 -104/-5/-104 -109/-4/-103 
f -8/-3/-102 -110/-2/-101 -103/-6/-100 
s 16
f -10/-69/-99 -107/-70/-98 -110/-73/-97 
f -5/-64/-96 -6/-65/-95 -8/-67/-94 
s 1
f -109/-4/-93 -7/-1/-92 -103/-6/-91 
s 16
f -7/-66/-90 -109/-72/-89 -108/-71/-88 
s 1
f -7/-1/-87 -8/-3/-86 -103/-6/-85 
s 16
f -108/-71/-84 -9/-68/-83 -7/-66/-82 
f -8/-67/-81 -10/-69/-80 -110/-73/-79 
usemtl Kiriku_8_valge
s off
f -61/-63/-78 -60/-62/-77 -59/-62/-76 
f -60/-60/-75 -61/-61/-74 -66/-61/-73 
usemtl Kiriku_8_OrangePlaster
f -66/-51/-72 -58/-22/-71 -57/-25/-70 
f -57/-25/-69 -73/-12/-68 -66/-51/-67 
f -48/-37/-66 -42/-30/-65 -57/-25/-64 
f -57/-25/-63 -39/-28/-62 -48/-37/-61 
f -56/-45/-60 -50/-38/-59 -44/-33/-58 
f -44/-33/-57 -47/-36/-56 -56/-45/-55 
f -55/-44/-54 -72/-11/-53 -73/-12/-52 
f -73/-12/-51 -52/-41/-50 -55/-44/-49 
f -55/-44/-48 -56/-45/-47 -4/-10/-46 
f -4/-10/-45 -72/-11/-44 -55/-44/-43 
f -48/-37/-42 -3/-9/-41 -2/-8/-40 
f -2/-8/-39 -47/-36/-38 -48/-37/-37 
f -67/-50/-36 -1/-7/-35 -40/-29/-34 
f -39/-28/-33 -40/-29/-32 -1/-7/-31 
f -39/-28/-30 -1/-7/-29 -3/-9/-28 
f -3/-9/-27 -48/-37/-26 -39/-28/-25 
f -47/-36/-24 -2/-8/-23 -4/-10/-22 
f -4/-10/-21 -56/-45/-20 -47/-36/-19 
f -42/-30/-18 -73/-12/-17 -57/-25/-16 
f -73/-12/-15 -44/-33/-14 -50/-38/-13 
f -50/-38/-12 -52/-41/-11 -73/-12/-10 
f -40/-29/-9 -58/-22/-8 -66/-51/-7 
f -66/-51/-6 -67/-50/-5 -40/-29/-4 
f -44/-33/-3 -73/-12/-2 -42/-30/-1 
# 205 faces

