# 3ds Max Wavefront OBJ Exporter v0.97b - (c)2007 guruware
# File Created: 27.12.2011 07:42:12

mtllib Lai_37_2-origo.mtl

#
# object Lai_37_2
#

v  542334.35054 6589491.390808 21.513582
v  542329.948753 6589486.306122 24.038599
v  542339.878944 6589474.703552 24.670864
v  542335.806629 6589479.4617 24.670864
v  542335.806629 6589479.4617 24.038599
v  542340.378914 6589484.688293 21.513582
v  542338.652405 6589482.714722 19.167702
v  542337.455868 6589477.534698 24.670864
v  542342.813335 6589471.989136 24.670864
v  542339.5219 6589480.286713 20.492100
v  542344.837639 6589474.842529 20.492098
v  542344.832573 6589474.835724 21.746914
v  542339.519493 6589480.282501 21.742374
v  542334.350536 6589491.390808 15.029739
v  542329.948753 6589486.306122 15.029739
v  542339.878941 6589474.703552 15.029739
v  542338.652405 6589482.714722 15.029739
v  542335.806625 6589479.4617 15.029739
v  542340.378914 6589484.688293 15.029739
v  542337.455864 6589477.534698 15.029739
v  542342.813335 6589471.989136 15.029739
v  542347.741482 6589473.437866 19.167702
v  542344.827969 6589470.125519 24.670864
v  542347.741478 6589473.437866 15.029739
v  542344.827969 6589470.125519 15.029739
v  542335.806625 6589479.4617 15.029739
v  542334.567253 6589482.346619 28.502514
v  542335.145195 6589482.914734 28.502514
v  542335.145184 6589482.914734 28.373451
v  542334.567215 6589482.346588 28.373451
v  542335.189701 6589481.732239 28.502506
v  542334.878448 6589482.039398 28.502514
v  542335.189701 6589481.732239 28.373444
v  542335.767647 6589482.300385 28.502510
v  542335.767654 6589482.300385 28.373447
v  542335.456402 6589482.607574 28.502510
v  542335.145199 6589482.914734 22.916882
v  542334.567249 6589482.346619 22.916883
v  542335.189705 6589481.732269 22.916889
v  542335.767693 6589482.300446 22.916885
v  542335.641384 6589482.263336 28.502506
v  542335.227566 6589481.856567 28.502506
v  542335.41851 6589482.483246 28.502506
v  542335.004715 6589482.076477 28.502514
v  542334.708191 6589482.38797 28.502514
v  542335.102921 6589482.77597 28.502510
v  542334.920746 6589482.178192 28.502514
v  542335.315407 6589482.566162 28.502514
v  542335.64138 6589482.263306 27.940517
v  542335.22757 6589481.856567 27.940517
v  542335.418564 6589482.483276 27.940517
v  542335.004734 6589482.076508 27.940521
v  542334.70821 6589482.388 27.940521
v  542335.10289 6589482.77594 27.940521
v  542334.920746 6589482.178253 27.940521
v  542335.315445 6589482.566223 27.940521
v  542341.636276 6589478.094299 21.667480
v  542343.088276 6589476.577911 21.667480
v  542343.656921 6589477.371368 21.011881
v  542342.210659 6589478.854675 21.009560
v  542343.663658 6589477.378448 19.318966
v  542342.216034 6589478.860443 19.318966
v  542342.999428 6589476.610718 20.490482
v  542341.54961 6589478.109894 20.490482
# 64 vertices

vn 0.262019 0.224252 0.938647
vn 0.262019 0.224252 0.938647
vn 0.262019 0.224252 0.938647
vn 0.263130 0.236664 0.935282
vn 0.263130 0.236664 0.935282
vn 0.263130 0.236664 0.935282
vn 0.592142 0.506792 0.626522
vn 0.592142 0.506792 0.626522
vn 0.592142 0.506792 0.626522
vn 0.572628 0.541038 0.615934
vn 0.572628 0.541038 0.615934
vn 0.572628 0.541038 0.615934
vn 0.438243 0.473758 0.763869
vn 0.438243 0.473758 0.763869
vn 0.438243 0.473758 0.763869
vn 0.448286 0.437932 0.779265
vn 0.448286 0.437932 0.779265
vn 0.448286 0.437932 0.779265
vn 0.499642 0.427624 0.753323
vn 0.499642 0.427624 0.753323
vn 0.499642 0.427624 0.753323
vn 0.551288 0.540130 0.635878
vn 0.551288 0.540130 0.635878
vn 0.551288 0.540130 0.635878
vn 0.555708 0.542598 0.629901
vn 0.555708 0.542598 0.629901
vn 0.555708 0.542598 0.629901
vn 0.815706 -0.578466 0.000151
vn 0.815706 -0.578466 0.000151
vn 0.815706 -0.578466 0.000151
vn 0.715491 0.698611 0.003734
vn 0.715491 0.698611 0.003734
vn 0.715491 0.698611 0.003734
vn 0.715819 0.698254 0.006683
vn 0.715819 0.698254 0.006683
vn 0.715819 0.698254 0.006683
vn -0.799362 0.600850 0.000489
vn -0.799362 0.600850 0.000489
vn -0.799362 0.600850 0.000489
vn 0.714298 0.699842 -0.000000
vn 0.714298 0.699842 -0.000000
vn 0.714298 0.699842 -0.000000
vn 0.714298 0.699841 -0.000001
vn 0.714298 0.699841 -0.000001
vn 0.714298 0.699841 -0.000001
vn -0.759738 -0.650230 0.000000
vn -0.759738 -0.650230 0.000000
vn -0.759738 -0.650230 0.000000
vn -0.759738 -0.650230 0.000000
vn -0.759738 -0.650230 0.000000
vn -0.759738 -0.650230 0.000000
vn -0.679056 -0.734087 0.000001
vn -0.679056 -0.734087 0.000001
vn -0.679056 -0.734087 0.000001
vn -0.679055 -0.734087 0.000000
vn -0.679055 -0.734087 0.000000
vn -0.679055 -0.734087 0.000000
vn -0.759738 -0.650230 0.000000
vn -0.759738 -0.650230 0.000000
vn -0.759738 -0.650230 0.000000
vn -0.759738 -0.650230 0.000000
vn -0.759738 -0.650230 0.000000
vn -0.759738 -0.650230 0.000000
vn -0.752648 0.658423 -0.000000
vn -0.752648 0.658423 -0.000000
vn -0.752648 0.658423 -0.000000
vn -0.752647 0.658424 0.000000
vn -0.752647 0.658424 0.000000
vn -0.752647 0.658424 0.000000
vn 0.743509 0.668726 0.000000
vn 0.743509 0.668726 0.000000
vn 0.743509 0.668726 0.000000
vn 0.743508 0.668726 -0.000000
vn 0.743508 0.668726 -0.000000
vn 0.743508 0.668726 -0.000000
vn 0.752647 -0.658424 -0.000000
vn 0.752647 -0.658424 -0.000000
vn 0.752647 -0.658424 -0.000000
vn 0.752647 -0.658424 0.000000
vn 0.752647 -0.658424 0.000000
vn 0.752647 -0.658424 0.000000
vn -0.756053 0.654510 0.000000
vn -0.756053 0.654510 0.000000
vn -0.756053 0.654510 0.000000
vn -0.756053 0.654510 0.000000
vn -0.756053 0.654510 0.000000
vn -0.756053 0.654510 0.000000
vn -0.759737 -0.650230 0.000000
vn -0.759737 -0.650230 0.000000
vn -0.759737 -0.650230 0.000000
vn -0.759738 -0.650229 0.000001
vn -0.759738 -0.650229 0.000001
vn -0.759738 -0.650229 0.000001
vn -0.679056 -0.734087 0.000000
vn -0.679056 -0.734087 0.000000
vn -0.679056 -0.734087 0.000000
vn -0.679056 -0.734087 0.000000
vn -0.679056 -0.734087 0.000000
vn -0.679056 -0.734087 0.000000
vn 0.522466 0.564807 0.638767
vn 0.522466 0.564807 0.638767
vn 0.522466 0.564807 0.638767
vn 0.552056 0.552271 0.624685
vn 0.552056 0.552271 0.624685
vn 0.552056 0.552271 0.624685
vn -0.701025 0.713137 0.000032
vn -0.701025 0.713137 0.000032
vn -0.701025 0.713137 0.000032
vn -0.701016 0.713146 -0.000051
vn -0.701016 0.713146 -0.000051
vn -0.701016 0.713146 -0.000051
vn -0.702402 -0.711780 0.000000
vn -0.702402 -0.711780 0.000000
vn -0.702402 -0.711780 0.000000
vn 0.701029 -0.713132 0.000000
vn 0.701029 -0.713132 0.000000
vn 0.701029 -0.713132 0.000000
vn 0.701025 -0.713137 -0.000040
vn 0.701025 -0.713137 -0.000040
vn 0.701025 -0.713137 -0.000040
vn 0.702489 0.711695 -0.000116
vn 0.702489 0.711695 -0.000116
vn 0.702489 0.711695 -0.000116
vn -0.701003 0.713158 0.000000
vn -0.701003 0.713158 0.000000
vn -0.701003 0.713158 0.000000
vn -0.701025 0.713137 -0.000004
vn -0.701025 0.713137 -0.000004
vn -0.701025 0.713137 -0.000004
vn -0.702457 -0.711727 -0.000002
vn -0.702457 -0.711727 -0.000002
vn -0.702457 -0.711727 -0.000002
vn -0.702425 -0.711758 -0.000010
vn -0.702425 -0.711758 -0.000010
vn -0.702425 -0.711758 -0.000010
vn 0.701023 -0.713139 -0.000000
vn 0.701023 -0.713139 -0.000000
vn 0.701023 -0.713139 -0.000000
vn 0.701029 -0.713132 -0.000002
vn 0.701029 -0.713132 -0.000002
vn 0.701029 -0.713132 -0.000002
vn 0.702395 0.711788 0.000000
vn 0.702395 0.711788 0.000000
vn 0.702395 0.711788 0.000000
vn 0.702442 0.711741 0.000011
vn 0.702442 0.711741 0.000011
vn 0.702442 0.711741 0.000011
vn 0.702442 0.711741 0.000105
vn 0.702442 0.711741 0.000105
vn 0.702442 0.711741 0.000105
vn 0.702447 0.711736 0.000128
vn 0.702447 0.711736 0.000128
vn 0.702447 0.711736 0.000128
vn -0.702425 -0.711758 -0.000108
vn -0.702425 -0.711758 -0.000108
vn -0.702425 -0.711758 -0.000108
vn -0.702552 -0.711633 0.000497
vn -0.702552 -0.711633 0.000497
vn -0.702552 -0.711633 0.000497
vn -0.000039 0.000029 1.000000
vn -0.000039 0.000029 1.000000
vn -0.000039 0.000029 1.000000
vn -0.000007 0.000002 1.000000
vn -0.000007 0.000002 1.000000
vn -0.000007 0.000002 1.000000
vn -0.000023 -0.000024 1.000000
vn -0.000023 -0.000024 1.000000
vn -0.000023 -0.000024 1.000000
vn -0.000023 -0.000024 1.000000
vn -0.000023 -0.000024 1.000000
vn -0.000023 -0.000024 1.000000
vn 0.000019 -0.000006 1.000000
vn 0.000019 -0.000006 1.000000
vn 0.000019 -0.000006 1.000000
vn 0.000008 -0.000027 1.000000
vn 0.000008 -0.000027 1.000000
vn 0.000008 -0.000027 1.000000
vn -0.000001 0.000005 1.000000
vn -0.000001 0.000005 1.000000
vn -0.000001 0.000005 1.000000
vn 0.000063 -0.000050 1.000000
vn 0.000063 -0.000050 1.000000
vn 0.000063 -0.000050 1.000000
vn 0.000001 -0.000005 1.000000
vn 0.000001 -0.000005 1.000000
vn 0.000001 -0.000005 1.000000
vn 0.000045 -0.000041 1.000000
vn 0.000045 -0.000041 1.000000
vn 0.000045 -0.000041 1.000000
vn 0.000000 0.000000 1.000000
vn 0.000000 0.000000 1.000000
vn 0.000000 0.000000 1.000000
vn 0.000000 0.000000 1.000000
vn 0.000000 0.000000 1.000000
vn 0.000000 0.000000 1.000000
vn -0.000011 -0.000024 1.000000
vn -0.000011 -0.000024 1.000000
vn -0.000011 -0.000024 1.000000
vn 0.000017 0.000035 1.000000
vn 0.000017 0.000035 1.000000
vn 0.000017 0.000035 1.000000
vn 0.000037 -0.000034 1.000000
vn 0.000037 -0.000034 1.000000
vn 0.000037 -0.000034 1.000000
vn -0.000007 0.000002 1.000000
vn -0.000007 0.000002 1.000000
vn -0.000007 0.000002 1.000000
vn -0.701020 0.713141 -0.000016
vn -0.701020 0.713141 -0.000016
vn -0.701020 0.713141 -0.000016
vn -0.700992 0.713169 0.000025
vn -0.700992 0.713169 0.000025
vn -0.700992 0.713169 0.000025
vn -0.702347 -0.711835 -0.000136
vn -0.702347 -0.711835 -0.000136
vn -0.702347 -0.711835 -0.000136
vn -0.702550 -0.711635 0.000023
vn -0.702550 -0.711635 0.000023
vn -0.702550 -0.711635 0.000023
vn 0.702419 0.711763 0.000033
vn 0.702419 0.711763 0.000033
vn 0.702419 0.711763 0.000033
vn 0.702464 0.711720 0.000067
vn 0.702464 0.711720 0.000067
vn 0.702464 0.711720 0.000067
vn 0.701019 -0.713143 -0.000020
vn 0.701019 -0.713143 -0.000020
vn 0.701019 -0.713143 -0.000020
vn 0.701005 -0.713156 0.000000
vn 0.701005 -0.713156 0.000000
vn 0.701005 -0.713156 0.000000
vn 0.701013 -0.713149 -0.000020
vn 0.701013 -0.713149 -0.000020
vn 0.701013 -0.713149 -0.000020
vn 0.700994 -0.713167 0.000006
vn 0.700994 -0.713167 0.000006
vn 0.700994 -0.713167 0.000006
vn 0.702413 0.711769 0.000067
vn 0.702413 0.711769 0.000067
vn 0.702413 0.711769 0.000067
vn 0.702414 0.711769 0.000067
vn 0.702414 0.711769 0.000067
vn 0.702414 0.711769 0.000067
vn -0.702587 -0.711598 0.000081
vn -0.702587 -0.711598 0.000081
vn -0.702587 -0.711598 0.000081
vn -0.702361 -0.711821 -0.000088
vn -0.702361 -0.711821 -0.000088
vn -0.702361 -0.711821 -0.000088
vn -0.701036 0.713126 -0.000000
vn -0.701036 0.713126 -0.000000
vn -0.701036 0.713126 -0.000000
vn -0.700993 0.713168 0.000059
vn -0.700993 0.713168 0.000059
vn -0.700993 0.713168 0.000059
vn 0.000015 -0.000002 1.000000
vn 0.000015 -0.000002 1.000000
vn 0.000015 -0.000002 1.000000
vn 0.000002 0.000002 1.000000
vn 0.000002 0.000002 1.000000
vn 0.000002 0.000002 1.000000
vn 0.000000 0.000000 1.000000
vn 0.000000 0.000000 1.000000
vn 0.000000 0.000000 1.000000
vn -0.000007 0.000002 1.000000
vn -0.000007 0.000002 1.000000
vn -0.000007 0.000002 1.000000
vn 0.750867 -0.660453 -0.000000
vn 0.750867 -0.660453 -0.000000
vn 0.750867 -0.660453 -0.000000
vn 0.750867 -0.660453 -0.000000
vn 0.750867 -0.660453 0.000000
vn 0.750867 -0.660453 -0.000000
vn 0.402750 0.393989 0.826175
vn 0.402750 0.393989 0.826175
vn 0.402750 0.393989 0.826175
vn 0.413949 0.396369 0.819474
vn 0.413949 0.396369 0.819474
vn 0.413949 0.396369 0.819474
vn 0.779591 -0.621639 -0.076173
vn 0.779591 -0.621639 -0.076173
vn 0.779591 -0.621639 -0.076173
vn 0.756457 -0.654043 0.000273
vn 0.756457 -0.654043 0.000273
vn 0.756457 -0.654043 0.000273
vn 0.715339 0.698762 0.004655
vn 0.715339 0.698762 0.004655
vn 0.715339 0.698762 0.004655
vn 0.715971 0.698106 0.005770
vn 0.715971 0.698106 0.005770
vn 0.715971 0.698106 0.005770
vn -0.747855 0.663862 -0.000115
vn -0.747855 0.663862 -0.000115
vn -0.747855 0.663862 -0.000115
vn -0.768377 0.636687 0.065011
vn -0.768377 0.636687 0.065011
vn -0.768377 0.636687 0.065011
# 297 vertex normals

vt 0.514590 0.972577 0.499851
vt 0.990433 0.972577 0.494989
vt 0.990433 0.972577 0.494989
vt -5.563623 0.852718 -0.327876
vt 2.134168 12.365106 -0.000000
vt 12.064359 0.762530 -0.000000
vt 7.992044 5.520680 -0.000000
vt 9.641283 3.593686 -0.000000
vt 14.998752 -1.951885 -0.000000
vt 2.134168 12.365106 -0.000000
vt 7.992044 5.520680 -0.000000
vt 12.064359 0.762530 -0.000000
vt 14.998752 -1.951885 -0.000000
vt 7.992044 5.520680 -0.000000
vt 9.641283 3.593686 -0.000000
vt -0.431957 -1.569218 0.999501
vt 8.454945 -3.046986 0.999501
vt 8.597932 3.895828 0.000499
vt -0.328368 5.155293 0.000499
vt 17.013384 -3.815490 -0.000000
vt 17.013384 -3.815490 -0.000000
vt -5.110263 2.759565 4.069655
vt -3.683555 0.670183 5.081806
vt -3.686963 1.297591 5.079273
vt -0.961467 0.670183 2.423939
vt -0.963576 1.295321 2.422736
vt 3.337477 2.759566 1.390922
vt 0.252532 0.007984 1.989191
vt -4.385884 0.007984 6.533729
vt -4.385886 -1.759566 6.533728
vt 0.252531 -1.759566 1.989190
vt 2.373979 2.759566 0.566302
vt 2.373980 -1.759566 0.566301
vt 4.590578 1.180925 -0.161741
vt 1.239318 1.180925 2.852447
vt 1.239318 -1.759566 2.852447
vt 4.590578 -1.759566 -0.161742
vt -1.373979 2.443433 0.566302
vt -1.373980 -1.759566 0.566301
vt -1.048234 2.443433 -2.362634
vt -1.048233 -1.759566 -2.362635
vt 1.961467 0.670183 2.423939
vt 1.963576 1.295321 2.422736
vt 0.747468 0.007984 1.989191
vt 0.747469 -1.759566 1.989190
vt -3.590578 1.180925 -0.161741
vt -3.590578 -1.759566 -0.161742
vt 0.427490 1.562721 0.781434
vt 0.230893 1.562721 0.609748
vt 0.230893 1.426243 0.609748
vt 0.427490 1.426243 0.781434
vt 0.609746 1.562721 0.769107
vt 0.414156 1.562721 0.598298
vt 0.609746 1.426243 0.769107
vt 0.427490 1.562721 0.218566
vt 0.230893 1.562721 0.390254
vt 0.230893 1.426243 0.390254
vt 0.427490 1.426244 0.218566
vt 0.609748 1.562721 0.230893
vt 0.414157 1.562721 0.401701
vt 0.609748 1.426243 0.230893
vt 0.218566 1.426244 0.572510
vt 0.609748 1.426243 0.230893
vt 0.218566 1.562721 0.572510
vt 0.218566 1.426244 0.572510
vt 0.218566 1.426243 0.427490
vt 0.218566 1.562721 0.427490
vt 0.218566 1.426243 0.427490
vt 0.390254 0.769107 1.562721
vt 0.218566 0.572510 1.562721
vt 0.270722 0.576171 1.562721
vt 0.393649 0.716932 1.562721
vt 0.218566 0.572510 1.562721
vt 0.414157 0.401701 1.562721
vt 0.410763 0.453874 1.562721
vt 0.585844 0.598298 1.562721
vt 0.390254 0.769107 1.562721
vt 0.533689 0.594635 1.562721
vt 0.414157 0.401701 1.562721
vt 0.585844 0.598298 1.562721
vt 0.609748 0.230893 1.562721
vt 0.781434 0.427490 1.562721
vt 0.723197 0.423400 1.562721
vt 0.605958 0.289149 1.562721
vt 0.781434 0.427490 1.562721
vt 0.585844 0.598298 1.562721
vt 0.589634 0.540040 1.562721
vt 0.414157 0.401701 1.562721
vt 0.609748 0.230893 1.562721
vt 0.472394 0.405789 1.562721
vt 0.585844 0.598298 1.562721
vt 0.414157 0.401701 1.562721
vt 0.716932 1.562721 0.393649
vt 0.576171 1.562721 0.270722
vt 0.576171 0.968420 0.270722
vt 0.716932 0.968420 0.393649
vt 0.729278 1.562721 0.576171
vt 0.589237 1.562721 0.453874
vt 0.589237 0.968420 0.453874
vt 0.729278 0.968420 0.576171
vt 0.533689 1.562721 0.594635
vt 0.393649 1.562721 0.716932
vt 0.393649 0.968420 0.716932
vt 0.533689 0.968420 0.594635
vt 0.546126 1.562721 0.410763
vt 0.405365 1.562721 0.533689
vt 0.405365 0.968420 0.533689
vt 0.546126 0.968420 0.410763
vt 0.710851 1.562721 0.605958
vt 0.576600 1.562721 0.723197
vt 0.576600 0.968420 0.723197
vt 0.710851 0.968420 0.605958
vt 0.723197 1.562721 0.423400
vt 0.589634 1.562721 0.540040
vt 0.589634 0.968420 0.540040
vt 0.723197 0.968420 0.423400
vt 0.527606 1.562721 0.405789
vt 0.394042 1.562721 0.289149
vt 0.394042 0.968420 0.289149
vt 0.527606 0.968420 0.405789
vt 0.540040 1.562721 0.589634
vt 0.405789 1.562721 0.472394
vt 0.405789 0.968420 0.472394
vt 0.540040 0.968420 0.589634
vt 0.270722 0.576171 0.968420
vt 0.410763 0.453874 0.968420
vt 0.533689 0.594635 0.968420
vt 0.393649 0.716932 0.968420
vt 0.723197 0.423400 0.968420
vt 0.589634 0.540040 0.968420
vt 0.472394 0.405789 0.968420
vt 0.605958 0.289149 0.968420
vt 1.021026 5.082930 0.999501
vt 2.272046 5.290956 0.999501
vt 2.178900 3.572861 0.240921
vt 1.065521 2.922335 0.000500
vt 4.110054 5.596591 0.999500
vt 6.106387 5.693177 0.999500
vt 5.964920 3.953897 0.468710
vt 2.179335 3.575250 0.467886
vt 5.964669 3.949658 0.240920
vt 7.528355 3.554396 0.000500
vt 7.476987 5.759489 0.999500
vt -5.110263 2.759565 4.069655
vt -3.683555 0.670183 5.081806
vt -3.686963 1.297591 5.079273
vt -0.961467 0.670183 2.423939
vt -0.963576 1.295321 2.422736
vt 1.961467 0.670183 2.423939
vt 3.337477 2.759566 1.390922
vt 1.963576 1.295321 2.422736
vt -4.396909 1.714874 4.575731
vt 2.649472 1.714875 1.907430
vt 0.992403 0.720121 0.999500
vt -0.056902 0.750217 0.999500
vt 0.019222 0.268095 0.004026
vt 1.054861 0.247770 0.000500
vt 0.507418 -0.409429 0.697083
vt 0.299932 -0.409428 0.507721
vt 0.299921 1.409428 0.507706
vt 0.507423 1.409428 0.697083
vt 0.507418 -0.409426 0.302933
vt 0.507416 1.409426 0.302917
vt 0.299919 -0.409428 0.492325
vt 0.299932 1.409427 0.492310
vt 0.507418 -0.409429 0.697083
vt 0.700068 -0.409428 0.507721
vt 0.700079 1.409428 0.507706
vt 0.700079 1.409428 0.507706
vt 0.507423 1.409428 0.697083
vt 0.507418 -0.409429 0.697083
vt 0.299932 -0.409428 0.507721
vt 0.507418 -0.409426 0.302933
vt 0.507416 1.409426 0.302917
vt 0.507416 1.409426 0.302917
vt 0.507418 -0.409426 0.302933
vt 0.700081 -0.409428 0.492325
vt 0.700068 1.409427 0.492310
vt 0.700068 1.409427 0.492310
vt 0.299919 -0.409428 0.492325
vt 0.507423 1.409428 0.697083
# 181 texture coords

g Lai_37_2
usemtl Lai_35_37_katus4
s off
f -63/-166/-297 -60/-165/-296 -59/-164/-295 
f -59/-164/-294 -64/-163/-293 -63/-166/-292 
usemtl Lai_35_37_katus1
f -61/-49/-291 -57/-48/-290 -55/-47/-289 
f -55/-47/-288 -58/-46/-287 -61/-49/-286 
f -62/-45/-285 -56/-44/-284 -53/-43/-283 
f -62/-45/-282 -53/-43/-281 -52/-42/-280 
f -57/-48/-279 -62/-45/-278 -52/-42/-277 
f -54/-41/-276 -43/-40/-275 -58/-46/-274 
f -58/-46/-273 -55/-47/-272 -54/-41/-271 
usemtl Lai_35_37_plaster
f -56/-160/-270 -54/-159/-269 -53/-158/-268 
f -54/-159/-267 -55/-157/-266 -52/-156/-265 
f -52/-156/-264 -53/-158/-263 -54/-159/-262 
f -55/-140/-261 -57/-155/-260 -52/-139/-259 
f -43/-153/-258 -41/-152/-257 -48/-151/-256 
f -48/-151/-255 -58/-154/-254 -43/-153/-253 
usemtl xxx
f -60/-175/-252 -63/-177/-251 -50/-172/-250 
f -50/-172/-249 -47/-171/-248 -60/-175/-247 
f -56/-173/-246 -62/-176/-245 -49/-170/-244 
f -49/-170/-243 -44/-169/-242 -56/-173/-241 
f -57/-174/-240 -61/-175/-239 -39/-168/-238 
f -39/-168/-237 -45/-167/-236 -57/-174/-235 
usemtl Lai_35_37_plaster
f -61/-150/-234 -58/-138/-233 -48/-137/-232 
f -48/-137/-231 -39/-149/-230 -61/-150/-229 
f -64/-148/-228 -59/-147/-227 -46/-146/-226 
f -46/-146/-225 -51/-145/-224 -64/-148/-223 
f -59/-147/-222 -60/-144/-221 -47/-143/-220 
f -47/-143/-219 -46/-146/-218 -59/-147/-217 
f -63/-142/-216 -64/-136/-215 -51/-135/-214 
f -51/-135/-213 -50/-141/-212 -63/-142/-211 
usemtl xxx
f -62/-176/-210 -57/-174/-209 -45/-167/-208 
f -45/-167/-207 -49/-170/-206 -62/-176/-205 
f -56/-173/-204 -44/-169/-203 -40/-161/-202 
f -40/-161/-201 -42/-162/-200 -56/-173/-199 
usemtl Lai_35_37_katus1
f -54/-41/-198 -56/-44/-197 -42/-39/-196 
f -42/-39/-195 -43/-40/-194 -54/-41/-193 
usemtl Lai_35_37_sokkel
f -37/-133/-192 -36/-132/-191 -35/-131/-190 
f -35/-131/-189 -38/-134/-188 -37/-133/-187 
f -34/-130/-186 -33/-129/-185 -32/-128/-184 
f -34/-126/-183 -32/-125/-182 -30/-124/-181 
f -30/-124/-180 -31/-127/-179 -34/-126/-178 
f -37/-123/-177 -29/-122/-176 -36/-121/-175 
usemtl Lai_35_37_valge
f -28/-16/-174 -27/-15/-173 -35/-14/-172 
f -35/-13/-171 -36/-12/-170 -28/-11/-169 
f -27/-10/-168 -26/-9/-167 -32/-8/-166 
f -32/-7/-165 -35/-22/-164 -27/-23/-163 
f -26/-6/-162 -25/-5/-161 -30/-4/-160 
f -30/-3/-159 -32/-19/-158 -26/-20/-157 
f -25/-2/-156 -28/-24/-155 -36/-1/-154 
f -36/-21/-153 -30/-17/-152 -25/-18/-151 
usemtl Lai_35_37_sokkel
f -29/-122/-150 -30/-120/-149 -36/-119/-148 
f -29/-122/-147 -31/-118/-146 -30/-117/-145 
f -33/-129/-144 -35/-116/-143 -32/-128/-142 
f -33/-129/-141 -38/-115/-140 -35/-114/-139 
f -34/-113/-138 -31/-112/-137 -24/-111/-136 
f -24/-111/-135 -23/-110/-134 -34/-113/-133 
f -31/-109/-132 -29/-108/-131 -22/-107/-130 
f -22/-107/-129 -24/-111/-128 -31/-109/-127 
f -33/-106/-126 -34/-105/-125 -23/-110/-124 
f -23/-110/-123 -21/-104/-122 -33/-106/-121 
f -29/-103/-120 -33/-102/-119 -21/-104/-118 
f -21/-104/-117 -22/-107/-116 -29/-103/-115 
f -37/-101/-114 -38/-100/-113 -20/-99/-112 
f -20/-99/-111 -19/-98/-110 -37/-101/-109 
f -38/-97/-108 -33/-96/-107 -18/-95/-106 
f -18/-95/-105 -20/-99/-104 -38/-97/-103 
f -29/-94/-102 -37/-93/-101 -19/-98/-100 
f -19/-98/-99 -17/-92/-98 -29/-94/-97 
f -33/-91/-96 -29/-90/-95 -17/-92/-94 
f -17/-92/-93 -18/-95/-92 -33/-91/-91 
f -23/-89/-90 -24/-88/-89 -16/-87/-88 
f -16/-87/-87 -15/-86/-86 -23/-89/-85 
f -24/-85/-84 -22/-84/-83 -14/-83/-82 
f -14/-83/-81 -16/-82/-80 -24/-85/-79 
f -21/-81/-78 -23/-80/-77 -15/-79/-76 
f -15/-79/-75 -13/-78/-74 -21/-81/-73 
f -22/-77/-72 -21/-76/-71 -13/-75/-70 
f -13/-75/-69 -14/-74/-68 -22/-77/-67 
f -19/-73/-66 -20/-72/-65 -12/-71/-64 
f -12/-71/-63 -11/-70/-62 -19/-73/-61 
f -20/-69/-60 -18/-68/-59 -10/-67/-58 
f -10/-67/-57 -12/-66/-56 -20/-69/-55 
f -17/-65/-54 -19/-64/-53 -11/-63/-52 
f -11/-63/-51 -9/-62/-50 -17/-65/-49 
f -18/-61/-48 -17/-60/-47 -9/-59/-46 
f -9/-59/-45 -10/-58/-44 -18/-61/-43 
f -14/-56/-42 -13/-55/-41 -15/-54/-40 
f -15/-54/-39 -16/-57/-38 -14/-56/-37 
f -10/-52/-36 -9/-51/-35 -11/-50/-34 
f -11/-50/-33 -12/-53/-32 -10/-52/-31 
usemtl xxx
s 1
f -40/-178/-30 -41/-179/-29 -43/-181/-28 
f -43/-181/-27 -42/-180/-26 -40/-178/-25 
usemtl Lai_35_37_katus1
s off
f -7/-27/-24 -6/-26/-23 -5/-25/-22 
f -5/-25/-21 -8/-28/-20 -7/-27/-19 
usemtl Lai_35_37_plaster
f -6/-36/-18 -7/-38/-17 -2/-30/-16 
f -2/-30/-15 -4/-37/-14 -6/-36/-13 
f -4/-37/-12 -3/-35/-11 -5/-34/-10 
f -5/-34/-9 -6/-36/-8 -4/-37/-7 
f -5/-31/-6 -3/-33/-5 -1/-29/-4 
f -1/-29/-3 -8/-32/-2 -5/-31/-1 
# 99 faces

