# 3ds Max Wavefront OBJ Exporter v0.94b - (c)2007 guruware
# File Created: 26.10.2010 23:41:27

mtllib 103_Toompuiestee_16_korvalhoone1.mtl

#
# object house01
#

v  -650.525940 -296.192078 22.882599
v  -650.741699 -300.086914 25.171949
v  -650.741760 -300.087769 25.371948
v  -650.521729 -296.090912 23.055084
v  -650.957581 -303.981842 22.882599
v  -650.961914 -304.082977 23.055084
v  -643.520935 -304.428772 23.055084
v  -643.335205 -300.431976 25.371948
v  -650.118774 -304.026703 22.882668
v  -643.516479 -304.333527 22.882668
v  -649.849609 -299.170227 24.606829
v  -649.902893 -300.131775 25.172016
v  -649.740356 -297.197815 23.447464
v  -649.687134 -296.236938 22.882668
v  -650.065552 -303.065796 23.447464
v  -649.956177 -301.093353 24.606829
v  -643.154358 -296.540527 22.882668
v  -643.183105 -297.159393 22.882488
v  -649.714355 -296.886383 22.882479
v  -636.914185 -304.640350 22.882668
v  -643.485229 -303.660004 22.882473
v  -636.881653 -303.991180 22.882479
v  -635.782227 -296.877228 22.882599
v  -635.777039 -296.776123 23.055084
v  -635.928650 -300.776154 25.371948
v  -635.928589 -300.775330 25.171949
v  -636.079895 -304.774567 23.055084
v  -636.074829 -304.673462 22.882599
v  -643.149353 -296.433533 23.055084
v  -636.621521 -296.844116 22.882668
v  -636.767944 -300.742188 25.172016
v  -636.731812 -299.779846 24.606829
v  -636.657654 -297.805786 23.447464
v  -636.878113 -303.678650 23.447464
v  -636.804077 -301.704559 24.606829
v  -644.710815 -304.291931 22.960979
v  -649.224365 -304.094208 22.960979
v  -649.277771 -305.313293 22.254715
v  -644.764221 -305.511017 22.254715
v  -649.276245 -305.278259 22.194130
v  -649.222839 -304.059174 22.900396
v  -644.709290 -304.256897 22.900396
v  -644.762695 -305.475983 22.194130
v  -636.654663 -297.493286 22.882479
v  -650.091003 -303.377319 22.882479
v  -649.046631 -303.522156 18.622894
v  -649.046631 -303.522156 19.836987
v  -650.214111 -303.487762 19.836987
v  -650.214111 -303.487762 18.622894
v  -649.878113 -297.982147 18.622894
v  -649.878113 -297.982147 19.836987
v  -649.813904 -296.775970 19.836987
v  -649.813904 -296.775970 18.622894
v  -649.929504 -300.611084 23.447464
v  -649.929504 -300.611053 24.694473
v  -649.876404 -299.652527 23.447464
v  -649.876343 -299.652527 24.694473
v  -649.732056 -297.191376 22.882479
v  -649.778259 -297.987946 22.882479
v  -649.845581 -299.148041 22.882479
v  -650.073303 -303.072327 22.882479
v  -649.945435 -299.142242 19.836987
v  -649.945435 -299.142242 18.622894
v  -649.714355 -296.886383 22.185505
v  -649.384338 -296.900208 22.185505
v  -649.384338 -296.900208 20.348026
v  -649.714355 -296.886383 20.348026
v  -649.778259 -297.987946 22.185505
v  -649.732056 -297.191376 22.185505
v  -649.732056 -297.191376 20.348026
v  -649.778259 -297.987946 20.348026
v  -650.073303 -303.072327 22.185505
v  -649.845581 -299.148041 22.185505
v  -649.845581 -299.148041 20.348026
v  -650.073303 -303.072327 20.348026
v  -650.091003 -303.377319 22.185505
v  -650.091003 -303.377319 20.348026
v  -649.384338 -296.900208 22.882479
v  -645.048035 -303.593323 22.185505
v  -645.048035 -303.593323 20.348026
v  -643.485229 -303.660309 20.348026
v  -643.485229 -303.660309 22.185505
v  -645.048035 -303.593323 22.882479
v  -643.485229 -303.660309 22.882479
v  -649.761047 -303.391449 20.348026
v  -649.761047 -303.391449 22.185505
v  -649.761047 -303.391449 22.882479
v  -646.991821 -297.000427 22.185505
v  -646.991821 -297.000427 20.348026
v  -646.991821 -297.000427 22.882479
v  -650.091003 -303.377319 19.856363
v  -649.761047 -303.391449 19.856365
v  -649.714355 -296.886383 19.856365
v  -649.732056 -297.191376 19.856365
v  -650.073303 -303.072327 19.856365
v  -649.845581 -299.148041 19.856365
v  -649.778259 -297.987946 19.856365
v  -646.991821 -297.000427 19.856365
v  -649.384338 -296.900208 19.856365
v  -645.048035 -303.593323 19.856365
v  -643.485229 -303.660309 19.856365
v  -646.987671 -296.900513 18.622894
v  -646.987671 -296.900513 19.836987
v  -645.689575 -296.954895 19.836987
v  -645.689575 -296.954895 18.622894
v  -643.183105 -297.159973 22.185505
v  -643.183105 -297.159973 20.348026
v  -645.693787 -297.054810 20.348026
v  -645.693787 -297.054810 22.185505
v  -643.183105 -297.159973 22.882479
v  -645.693787 -297.054810 22.882479
v  -643.183105 -297.159973 19.856363
v  -645.693787 -297.054810 19.856363
v  -645.692078 -297.014832 22.185505
v  -645.692078 -297.014832 20.348026
v  -646.990173 -296.960480 20.348026
v  -646.990173 -296.960480 22.185505
v  -647.636902 -303.482452 22.185505
v  -647.636902 -303.482452 20.348026
v  -646.353943 -303.537384 20.348026
v  -646.353943 -303.537384 22.185505
v  -647.636902 -303.482452 22.882479
v  -646.353943 -303.537384 22.882479
v  -645.052307 -303.693237 18.622894
v  -645.052307 -303.693237 19.836987
v  -646.358276 -303.637299 19.836987
v  -646.358276 -303.637299 18.622894
v  -647.636902 -303.482452 19.856365
v  -646.353943 -303.537384 19.856365
v  -643.489868 -303.760193 18.622894
v  -643.489868 -303.760193 19.836987
v  -647.690857 -304.741272 19.649336
v  -647.690857 -304.741272 19.836987
v  -649.096313 -304.681091 19.836987
v  -647.690857 -304.741272 18.622894
v  -649.096313 -304.681091 18.622894
v  -648.852173 -303.430389 20.348026
v  -648.852173 -303.430389 22.185505
v  -648.852173 -303.430389 22.882479
v  -648.852173 -303.430389 19.856365
v  -648.853882 -303.470337 22.185505
v  -648.853882 -303.470337 20.348026
v  -647.638611 -303.522400 20.348026
v  -647.638611 -303.522400 22.185505
v  -648.853882 -303.470337 19.856365
v  -647.638611 -303.522400 19.856365
v  -647.641174 -303.582336 19.836987
v  -647.641174 -303.582336 19.649334
v  -647.641174 -303.582336 19.492184
v  -647.641174 -303.582336 19.274862
v  -647.641174 -303.582336 19.057539
v  -647.641174 -303.582336 18.840218
v  -647.641174 -303.582336 18.622894
v  -649.916321 -299.650330 24.694475
v  -649.916321 -299.650330 23.447464
v  -649.969421 -300.608856 23.447464
v  -649.969421 -300.608856 24.694475
v  -649.885498 -299.145721 20.348026
v  -649.885498 -299.145721 22.185505
v  -649.818176 -297.985626 22.185505
v  -649.818176 -297.985626 20.348026
v  -643.178467 -297.060089 19.836987
v  -643.178467 -297.060089 18.622894
v  -636.789673 -304.091400 18.622894
v  -636.789673 -304.091400 19.836987
v  -638.125061 -304.028992 19.836987
v  -638.125061 -304.028992 18.622894
v  -636.552307 -297.398865 18.622894
v  -636.552307 -297.398865 19.836987
v  -636.593262 -298.599518 19.836987
v  -636.593262 -298.599518 18.622894
v  -636.785889 -301.221893 23.447464
v  -636.785950 -301.221863 24.694473
v  -636.702637 -301.730591 18.622894
v  -636.668213 -300.745728 18.622894
v  -636.668213 -300.745728 19.836987
v  -636.702637 -301.730591 19.836987
v  -636.749878 -300.262543 23.447464
v  -636.749939 -300.262543 24.694473
v  -636.870972 -303.685883 22.882479
v  -636.843140 -302.888458 22.882479
v  -636.802551 -301.727112 22.882479
v  -636.768188 -300.742249 22.882479
v  -636.733765 -299.757385 22.882479
v  -636.693176 -298.596008 22.882479
v  -636.665344 -297.798615 22.882479
v  -636.633850 -299.760864 18.622894
v  -636.633850 -299.760864 19.836987
v  -636.743225 -302.891937 19.836987
v  -636.743225 -302.891937 18.622894
v  -636.654663 -297.493286 22.185505
v  -636.654663 -297.493286 20.348026
v  -636.984558 -297.476440 20.348026
v  -636.984558 -297.476440 22.185505
v  -636.693176 -298.596008 22.185505
v  -636.693176 -298.596008 20.348026
v  -636.665344 -297.798615 20.348026
v  -636.665344 -297.798615 22.185505
v  -636.802551 -301.727112 22.185505
v  -636.802551 -301.727112 20.348026
v  -636.768188 -300.742249 20.348026
v  -636.768188 -300.742249 22.185505
v  -636.733765 -299.757385 20.348026
v  -636.733765 -299.757385 22.185505
v  -636.881653 -303.991180 22.185505
v  -636.881653 -303.991180 20.348026
v  -636.870972 -303.685883 20.348026
v  -636.870972 -303.685883 22.185505
v  -636.984558 -297.476440 22.882479
v  -636.843140 -302.888458 22.185505
v  -642.500977 -303.709595 22.185505
v  -642.500977 -303.709595 20.348026
v  -642.500977 -303.709595 22.882479
v  -636.843140 -302.888458 20.348026
v  -637.211487 -303.974640 22.185505
v  -637.211487 -303.974640 20.348026
v  -637.211487 -303.974640 22.882479
v  -641.456543 -297.248138 22.185505
v  -641.456543 -297.248138 20.348026
v  -641.456543 -297.248138 22.882479
v  -637.211487 -303.974640 19.856365
v  -636.881653 -303.991180 19.856365
v  -636.665344 -297.798615 19.856365
v  -636.654663 -297.493286 19.856365
v  -636.802551 -301.727112 19.856365
v  -636.768188 -300.742249 19.856365
v  -636.733765 -299.757385 19.856365
v  -636.870972 -303.685883 19.856365
v  -636.843140 -302.888458 19.856365
v  -636.693176 -298.596008 19.856365
v  -636.984558 -297.476440 19.856365
v  -641.456543 -297.248138 19.856365
v  -642.500977 -303.709595 19.856365
v  -641.451416 -297.148254 18.622894
v  -642.748962 -297.082031 18.622894
v  -642.748962 -297.082031 19.836987
v  -641.451416 -297.148254 19.836987
v  -642.754028 -297.181885 22.185505
v  -642.754028 -297.181885 20.348026
v  -642.754028 -297.181885 22.882479
v  -642.754028 -297.181885 19.856363
v  -639.334900 -303.868256 22.185505
v  -640.540527 -303.807831 22.185505
v  -640.540527 -303.807831 20.348026
v  -639.334900 -303.868256 20.348026
v  -639.334900 -303.868256 22.882479
v  -640.540527 -303.807831 22.882479
v  -642.505981 -303.809479 18.622894
v  -640.545532 -303.907715 18.622894
v  -640.545532 -303.907715 19.836987
v  -642.505981 -303.809479 19.836987
v  -640.540527 -303.807831 19.856365
v  -639.334900 -303.868256 19.856365
v  -639.339905 -303.968109 18.622894
v  -639.339905 -303.968109 19.836987
v  -638.120056 -303.929138 22.185505
v  -638.120056 -303.929138 20.348026
v  -638.120056 -303.929138 22.882479
v  -638.120056 -303.929138 19.856365
v  -636.709961 -300.264038 24.694475
v  -636.745972 -301.223358 24.694475
v  -636.745911 -301.223389 23.447464
v  -636.709900 -300.264069 23.447464
v  -636.803162 -302.889862 20.348026
v  -636.762573 -301.728485 20.348026
v  -636.762573 -301.728485 22.185505
v  -636.803162 -302.889862 22.185505
v  -636.693787 -299.758789 20.348026
v  -636.653198 -298.597412 20.348026
v  -636.653198 -298.597412 22.185505
v  -636.693787 -299.758789 22.185505
v  -642.752014 -297.141937 20.348026
v  -642.752014 -297.141937 22.185505
v  -641.454468 -297.208191 22.185505
v  -641.454468 -297.208191 20.348026
v  -646.846313 -303.616394 19.214689
v  -646.895996 -304.775330 19.214689
v  -646.895996 -304.775330 18.997368
v  -646.846313 -303.616394 18.997368
v  -647.376221 -303.593689 19.649334
v  -647.425903 -304.752625 19.649334
v  -647.425903 -304.752625 19.432013
v  -647.376221 -303.593689 19.432013
v  -647.111267 -303.605042 19.432013
v  -647.160950 -304.763977 19.432013
v  -647.160950 -304.763977 19.214689
v  -647.111267 -303.605042 19.214689
v  -644.676941 -304.870392 18.622894
v  -644.627319 -303.711456 18.622894
v  -644.627319 -303.711456 18.780045
v  -644.676941 -304.870392 18.780045
v  -646.631042 -304.786682 18.780045
v  -646.581360 -303.627747 18.780045
v  -646.581360 -303.627747 18.997366
v  -646.631042 -304.786682 18.997366
v  -645.049744 -303.633301 20.348026
v  -645.049744 -303.633301 22.185505
v  -646.355652 -303.577362 22.185505
v  -646.355652 -303.577362 20.348026
v  -644.294922 -301.003479 27.776295
v  -643.376343 -301.003479 27.776295
v  -643.376343 -299.917480 27.776295
v  -644.294922 -299.917480 27.776295
v  -644.294922 -301.003479 24.726749
v  -643.376343 -301.003479 24.726749
v  -643.376343 -299.917480 24.726749
v  -644.294922 -299.917480 24.726749
# 307 vertices

vn -0.998467 0.055345 0.000056
vn -0.998649 0.051643 -0.005753
vn -0.998625 0.052129 0.005484
vn -0.998487 0.054998 0.000054
vn -0.023262 -0.500564 0.865387
vn -0.046019 -0.861211 -0.506160
vn -0.040623 -0.874132 -0.483987
vn -0.040623 -0.874132 -0.483986
vn -0.026963 -0.505439 -0.862441
vn -0.026964 -0.505439 -0.862441
vn 0.027101 0.505426 -0.862444
vn 0.027100 0.505426 -0.862444
vn 0.000013 0.000288 -1.000000
vn -0.000013 -0.000288 -1.000000
vn 0.999135 -0.041197 -0.005751
vn 0.999297 -0.037494 0.000057
vn 0.999284 -0.037843 0.000056
vn 0.999156 -0.040711 0.005484
vn 0.023255 0.500412 0.865475
vn -0.020029 -0.505761 -0.862441
vn 0.019891 0.505761 -0.862444
vn 0.039432 0.848515 -0.527700
vn 0.040726 0.861462 -0.506186
vn -0.000533 -0.011472 -0.999934
vn -0.021924 -0.500449 0.865489
vn -0.021924 -0.500448 0.865489
vn 0.021924 0.500448 -0.865489
vn -0.037879 -0.864660 -0.500927
vn -0.037879 -0.864659 -0.500928
vn 0.999042 -0.043764 -0.000002
vn 0.999042 -0.043766 0.000001
vn -0.999042 0.043765 0.000002
vn -0.034051 -0.861768 -0.506159
vn 0.033969 0.861767 -0.506166
vn -0.029428 -0.999567 0.000000
vn -0.998585 0.053172 0.000000
vn -0.998468 0.055328 0.000027
vn -0.998468 0.055324 0.000025
vn -0.998468 0.055332 0.000025
vn 0.000000 0.000000 -1.000000
vn 0.000000 0.000000 1.000000
vn -0.017920 0.001040 -0.999839
vn -0.017921 0.001040 -0.999839
vn -0.998406 0.056403 0.001860
vn -0.998383 0.055323 0.013067
vn -0.998855 0.042779 0.021413
vn -0.998236 0.057922 0.013035
vn -0.998468 0.055334 0.000037
vn -0.998468 0.055328 0.000031
vn -0.998469 0.055321 0.000038
vn -0.998094 0.061719 0.000000
vn -0.998093 0.061719 0.000000
vn -0.998321 0.057927 0.000000
vn 0.041853 0.999124 0.000000
vn -0.042813 -0.999083 0.000000
vn -0.042813 -0.999083 -0.000000
vn -0.042796 -0.999084 0.000000
vn 0.041853 0.999124 -0.000000
vn 0.044024 0.999030 0.000000
vn 0.999124 -0.041854 0.000000
vn -0.999124 0.041854 0.000000
vn -0.042796 -0.999084 -0.000000
vn -0.042812 -0.999083 0.000000
vn -0.998468 0.055328 0.000025
vn -0.055328 -0.998468 0.000012
vn 0.000024 -0.000001 1.000000
vn 0.055328 0.998468 -0.000012
vn -0.000024 0.000001 -1.000000
vn -0.008145 -0.190064 0.981738
vn -0.008145 -0.190066 0.981737
vn -0.008141 -0.190064 0.981738
vn -0.007074 -0.165138 0.986245
vn -0.005123 -0.174008 0.984731
vn -0.008141 -0.190063 0.981738
vn -0.189919 0.011020 0.981738
vn -0.165937 0.010261 0.986083
vn -0.163747 0.009501 0.986457
vn -0.179934 0.010441 0.983623
vn -0.183256 0.009758 0.983017
vn 0.007962 0.190072 0.981738
vn 0.007975 0.180972 0.983456
vn 0.007516 0.179432 0.983742
vn 0.057924 0.998321 0.000000
vn -0.057927 -0.998321 0.000000
vn -0.046679 -0.998910 0.000000
vn 0.999419 -0.034083 -0.000000
vn 0.999419 -0.034083 0.000000
vn 0.999296 -0.037516 0.000025
vn 0.999296 -0.037512 0.000027
vn 0.999390 -0.034910 0.000000
vn 0.999296 -0.037509 0.000025
vn 0.998517 -0.050043 0.021414
vn 0.999305 -0.034908 0.013036
vn 0.999305 -0.034907 0.013036
vn 0.999306 -0.034908 0.013035
vn 0.999296 -0.037512 -0.000500
vn 0.017939 -0.000627 -0.999839
vn 0.017941 -0.000627 -0.999839
vn 0.999293 -0.037588 -0.000105
vn 0.999296 -0.037519 0.000038
vn 0.999296 -0.037512 0.000031
vn 0.999296 -0.037507 0.000036
vn 0.999390 -0.034911 0.000000
vn 0.999250 -0.038711 0.000000
vn 0.050989 0.998699 0.000000
vn 0.999390 -0.034912 0.000000
vn -0.050030 -0.998748 0.000000
vn -0.050030 -0.998748 -0.000000
vn 0.999390 -0.034910 -0.000000
vn -0.050047 -0.998747 0.000000
vn 0.050990 0.998699 0.000000
vn 0.050990 0.998699 -0.000000
vn 0.050989 0.998699 -0.000000
vn 0.051088 0.998694 0.000000
vn -0.050048 -0.998747 0.000000
vn -0.050047 -0.998747 -0.000000
vn -0.050043 -0.998747 -0.000000
vn -0.050043 -0.998747 0.000000
vn -0.050031 -0.998748 -0.000000
vn -0.050031 -0.998748 0.000000
vn 0.999296 -0.037512 0.000025
vn -0.037515 -0.999296 0.000012
vn -0.037513 -0.999296 0.000012
vn -0.000024 0.000001 1.000000
vn 0.037512 0.999296 -0.000012
vn 0.037513 0.999296 -0.000012
vn 0.000024 -0.000001 -1.000000
vn 0.999390 -0.034911 -0.000000
vn -0.009518 -0.190003 0.981737
vn -0.009518 -0.190001 0.981738
vn -0.009520 -0.190001 0.981738
vn -0.009520 -0.190000 0.981738
vn -0.009521 -0.190000 0.981738
vn -0.009953 -0.198624 0.980025
vn -0.009151 -0.195819 0.980597
vn 0.198104 -0.007675 0.980151
vn 0.190122 -0.006641 0.981738
vn 0.190123 -0.006642 0.981738
vn 0.190123 -0.006641 0.981738
vn 0.191963 -0.006706 0.981379
vn 0.191347 -0.006525 0.981501
vn 0.009764 0.190863 0.981568
vn 0.009700 0.189991 0.981738
vn 0.009700 0.189990 0.981738
vn 0.034908 0.999391 0.000000
vn -0.034910 -0.999390 -0.000000
vn 0.034923 0.999390 0.000000
vn -0.034909 -0.999390 0.000000
vn 0.998699 -0.050989 0.000000
vn -0.998699 0.050990 0.000000
vn -0.999084 0.042795 0.000001
vn 0.999084 -0.042796 0.000000
vn 0.000000 -0.000000 1.000000
vn 0.999084 -0.042796 -0.000002
vn 0.000001 0.000000 1.000000
vn -0.042795 -0.999084 0.000000
vn -0.042795 -0.999084 0.000003
vn -0.999084 0.042796 0.000000
vn 0.000000 -1.000000 0.000000
vn 1.000000 0.000000 0.000000
vn 0.000000 1.000000 0.000000
vn -1.000000 0.000000 0.000000
# 162 vertex normals

vt 0.003276 0.229843 0.000000
vt 0.366162 0.229868 0.000000
vt 0.374368 0.243657 0.000000
vt 0.003308 0.243705 0.000000
vt 0.729052 0.229178 0.000000
vt 0.729082 0.245222 0.000000
vt 0.358125 0.243756 0.000000
vt 1.198460 0.999166 0.000000
vt 0.600816 0.999180 0.000000
vt 0.600808 0.628230 0.000000
vt 1.195685 0.628217 0.000000
vt 0.796444 0.229410 0.000000
vt 1.326725 0.229389 0.000000
vt 1.326726 0.245197 0.000000
vt 0.276334 0.162648 0.000000
vt 0.365920 0.162474 0.000000
vt 0.092563 0.163004 0.000000
vt 0.003037 0.163178 0.000000
vt 0.639281 0.161954 0.000000
vt 0.728808 0.161784 0.000000
vt 0.455508 0.162304 0.000000
vt 3.766967 0.228784 0.000000
vt 3.242268 0.228795 0.000000
vt 3.242266 0.175122 0.000000
vt 3.766728 0.176632 0.000000
vt 1.857006 0.229381 0.000000
vt 1.326723 0.175294 0.000000
vt 1.857195 0.177234 0.000000
vt 2.650174 0.229060 0.000000
vt 2.650141 0.245104 0.000000
vt 2.279085 0.244784 0.000000
vt 2.287289 0.228648 0.000000
vt 2.295326 0.244882 0.000000
vt 1.924369 0.245189 0.000000
vt 1.924399 0.229145 0.000000
vt 0.600800 0.257168 0.000000
vt 0.005931 0.628244 0.000000
vt 0.008671 0.257181 0.000000
vt 2.650405 0.161666 0.000000
vt 2.287525 0.162427 0.000000
vt 2.377110 0.161418 0.000000
vt 2.560879 0.161502 0.000000
vt 1.924639 0.161751 0.000000
vt 2.014166 0.161918 0.000000
vt 2.197939 0.162260 0.000000
vt 3.834397 0.245068 0.000000
vt 3.242268 0.245080 0.000000
vt 3.834360 0.229027 0.000000
vt 0.003109 0.035532 0.000000
vt 0.365490 0.035532 0.000000
vt 0.365489 0.148651 0.000000
vt 0.003109 0.148651 0.000000
vt 0.727870 0.035534 0.000000
vt 0.727869 0.148653 0.000000
vt 0.527200 0.017540 0.000000
vt 0.164727 0.017539 0.000000
vt 0.164727 0.011923 0.000000
vt 0.527200 0.011924 0.000000
vt 0.051608 0.017538 0.000000
vt 0.051608 0.011922 0.000000
vt 0.640319 0.017538 0.000000
vt 0.640319 0.011922 0.000000
vt 0.003172 0.999193 0.000000
vt 2.717569 0.228815 0.000000
vt 2.717804 0.176664 0.000000
vt 0.796252 0.177263 0.000000
vt 1.192928 0.257155 0.000000
vt -1.640700 0.002304 0.000000
vt -1.641241 0.174771 0.000000
vt -1.807117 0.174575 0.000000
vt -1.806546 0.001769 0.000000
vt 0.245331 0.002395 0.000000
vt 0.245196 0.174817 0.000000
vt 0.074239 0.174821 0.000000
vt 0.074465 0.002488 0.000000
vt 0.618221 0.699111 0.000000
vt 0.967463 0.699111 0.000000
vt 0.686839 0.863805 0.000000
vt 0.618221 0.876255 0.000000
vt 0.481849 0.699111 0.000000
vt 0.481848 0.876256 0.000000
vt 0.413231 0.863805 0.000000
vt 0.132606 0.699111 0.000000
vt 0.131622 0.618852 0.000000
vt 0.244968 0.618852 0.000000
vt 0.410045 0.618852 0.000000
vt 0.088308 0.618852 0.000000
vt -0.004024 0.618879 0.000000
vt 0.968447 0.618852 0.000000
vt 1.011844 0.618852 0.000000
vt 1.104172 0.618878 0.000000
vt 0.550035 0.944093 0.000000
vt 1.026543 0.001968 0.000000
vt 1.026889 0.174642 0.000000
vt 0.410179 0.174772 0.000000
vt 0.410219 0.002305 0.000000
vt 0.106524 0.997667 0.000000
vt 0.106515 0.952236 0.000000
vt 0.367538 0.952181 0.000000
vt 0.367547 0.997611 0.000000
vt 0.244968 0.519843 0.000000
vt 0.131622 0.519843 0.000000
vt 0.131622 0.258819 0.000000
vt 0.244968 0.258819 0.000000
vt 0.968447 0.519843 0.000000
vt 0.410045 0.519843 0.000000
vt 0.410045 0.258819 0.000000
vt 0.968447 0.258819 0.000000
vt 0.007515 0.997688 0.000000
vt 0.007506 0.952257 0.000000
vt -1.073289 0.519843 0.000000
vt -1.073289 0.258819 0.000000
vt -0.851079 0.258819 0.000000
vt -0.851079 0.519843 0.000000
vt -1.073290 0.618852 0.000000
vt -0.851079 0.618852 0.000000
vt -0.298441 0.519843 0.000000
vt -0.298441 0.258820 0.000000
vt 0.041428 0.258820 0.000000
vt 0.041428 0.519843 0.000000
vt -0.298441 0.618852 0.000000
vt 0.041428 0.618852 0.000000
vt 0.437391 0.997587 0.000000
vt 0.437381 0.952151 0.000000
vt 0.968448 0.188976 0.000000
vt 0.410045 0.188976 0.000000
vt 0.244968 0.188976 0.000000
vt -0.298515 0.188976 0.000000
vt 0.041503 0.188976 0.000000
vt 0.131621 0.188976 0.000000
vt -1.073289 0.188976 0.000000
vt -0.851080 0.188974 0.000000
vt -0.297128 0.002337 0.000000
vt -0.297859 0.174788 0.000000
vt -0.482419 0.174788 0.000000
vt -0.481688 0.002337 0.000000
vt -0.839487 0.519843 0.000000
vt -0.839487 0.258820 0.000000
vt -0.482839 0.258820 0.000000
vt -0.482839 0.519843 0.000000
vt -0.839487 0.618852 0.000000
vt -0.482839 0.618852 0.000000
vt -0.839595 0.188976 0.000000
vt -0.482994 0.188976 0.000000
vt 0.216925 0.976042 0.000000
vt 0.216925 0.022841 0.000000
vt 0.823454 0.022841 0.000000
vt 0.823454 0.976041 0.000000
vt 0.103274 0.002320 0.000000
vt 0.102935 0.174721 0.000000
vt 0.196989 0.976041 0.000000
vt 0.196989 0.022841 0.000000
vt 0.216924 0.002090 0.000000
vt 0.823455 0.002091 0.000000
vt 0.843390 0.022841 0.000000
vt 0.843390 0.976040 0.000000
vt 0.823455 0.996792 0.000000
vt 0.216924 0.996794 0.000000
vt -1.441391 0.519843 0.000000
vt -1.441391 0.258819 0.000000
vt -1.258974 0.258819 0.000000
vt -1.258974 0.519843 0.000000
vt -1.441392 0.618852 0.000000
vt -1.258975 0.618852 0.000000
vt -1.073289 0.002303 0.000000
vt -1.073289 0.174771 0.000000
vt -1.258974 0.174771 0.000000
vt -1.258974 0.002303 0.000000
vt -1.441391 0.188976 0.000000
vt -1.258975 0.188976 0.000000
vt -0.851130 0.002303 0.000000
vt -0.851080 0.174770 0.000000
vt 0.456466 0.434512 0.000000
vt 0.456465 0.503947 0.000000
vt 0.209122 0.503935 0.000000
vt 0.456469 0.054712 0.000000
vt 0.209126 0.054702 0.000000
vt -1.743414 0.519843 0.000000
vt -1.743414 0.258820 0.000000
vt -1.614185 0.258820 0.000000
vt -1.614185 0.519843 0.000000
vt -1.743414 0.618852 0.000000
vt -1.614185 0.618852 0.000000
vt -1.743414 0.188976 0.000000
vt -1.614185 0.188976 0.000000
vt 0.035548 0.935715 0.000000
vt 0.035659 0.228595 0.000000
vt 0.962305 0.228597 0.000000
vt 0.962512 0.935716 0.000000
vt 0.035661 0.039388 0.000000
vt 0.962306 0.039390 0.000000
vt -1.441391 0.174771 0.000000
vt -1.441391 0.156662 0.000000
vt -1.441391 0.125790 0.000000
vt -1.441391 0.094918 0.000000
vt -1.441391 0.064046 0.000000
vt -1.441391 0.033175 0.000000
vt -1.441391 0.002303 0.000000
vt 0.146086 0.960258 0.000000
vt 0.146095 0.039644 0.000000
vt 0.861704 0.039646 0.000000
vt 0.861707 0.960261 0.000000
vt 0.891296 0.039645 0.000000
vt 0.891316 0.960260 0.000000
vt 0.861904 0.989792 0.000000
vt 0.145889 0.989789 0.000000
vt 0.116476 0.960258 0.000000
vt 0.116503 0.039643 0.000000
vt 0.145892 0.010113 0.000000
vt 0.861907 0.010116 0.000000
vt -1.790325 0.188976 0.000000
vt 1.011845 0.188976 0.000000
vt 0.088403 0.188976 0.000000
vt -0.839542 0.174778 0.000000
vt -0.838714 0.002337 0.000000
vt -0.088019 0.174771 0.000000
vt -0.088097 0.002303 0.000000
vt 0.854860 0.174771 0.000000
vt 0.854699 0.002302 0.000000
vt 0.549817 0.002302 0.000000
vt 0.549885 0.174770 0.000000
vt -0.004182 0.618878 0.000000
vt 0.088142 0.618852 0.000000
vt 0.549952 0.618852 0.000000
vt 0.689942 0.618852 0.000000
vt 0.855018 0.618852 0.000000
vt 0.689722 0.002302 0.000000
vt 0.689832 0.174771 0.000000
vt 0.855018 0.519843 0.000000
vt 0.855018 0.258819 0.000000
vt 0.549952 0.258819 0.000000
vt 0.549952 0.519843 0.000000
vt 0.689942 0.258819 0.000000
vt 0.689942 0.519843 0.000000
vt -0.711094 0.519843 0.000000
vt -0.711094 0.258819 0.000000
vt -0.711094 0.618852 0.000000
vt -1.084761 0.519843 0.000000
vt -1.720029 0.519843 0.000000
vt -1.720029 0.258820 0.000000
vt -1.084761 0.258820 0.000000
vt -1.084761 0.618852 0.000000
vt -1.720029 0.618853 0.000000
vt 0.549952 0.188976 0.000000
vt 0.689942 0.188976 0.000000
vt 0.855020 0.188976 0.000000
vt -1.720236 0.188976 0.000000
vt -1.084666 0.188977 0.000000
vt -0.711096 0.188977 0.000000
vt -1.084362 0.002337 0.000000
vt -0.899810 0.002337 0.000000
vt -0.900376 0.174780 0.000000
vt -1.084566 0.174780 0.000000
vt -0.900441 0.519843 0.000000
vt -0.900441 0.258820 0.000000
vt -0.900441 0.618852 0.000000
vt -0.900533 0.188977 0.000000
vt -1.781194 0.174822 0.000000
vt -1.781187 0.002337 0.000000
vt -0.260782 0.519843 0.000000
vt -0.432254 0.519843 0.000000
vt -0.432255 0.258819 0.000000
vt -0.260782 0.258819 0.000000
vt -0.260782 0.618852 0.000000
vt -0.432254 0.618852 0.000000
vt -0.711197 0.002303 0.000000
vt -0.432358 0.002303 0.000000
vt -0.432280 0.174770 0.000000
vt -0.711120 0.174771 0.000000
vt -0.432254 0.188976 0.000000
vt -0.260782 0.188976 0.000000
vt -0.260885 0.002303 0.000000
vt -0.260808 0.174771 0.000000
vt 0.041233 0.519843 0.000000
vt -0.087993 0.519843 0.000000
vt -0.087993 0.258819 0.000000
vt 0.041233 0.258819 0.000000
vt 0.041233 0.618852 0.000000
vt -0.087993 0.618852 0.000000
vt -0.087993 0.188976 0.000000
vt 0.041234 0.188976 0.000000
vt 0.088144 0.188976 0.000000
vt -1.767126 0.188976 0.000000
vt 0.005163 0.503928 0.000000
vt 0.005167 0.054694 0.000000
vt 0.501471 0.945439 0.000000
vt 0.501474 0.516219 0.000000
vt 0.539685 0.516220 0.000000
vt 0.539682 0.945440 0.000000
vt 0.252166 0.945432 0.000000
vt 0.004823 0.945418 0.000000
vt 0.004828 0.516200 0.000000
vt 0.252171 0.516211 0.000000
vt 0.285165 0.516213 0.000000
vt 0.285161 0.945433 0.000000
vt 0.331790 0.945434 0.000000
vt 0.331794 0.516215 0.000000
vt 0.370005 0.516216 0.000000
vt 0.370001 0.945435 0.000000
vt 0.416630 0.945437 0.000000
vt 0.416634 0.516217 0.000000
vt 0.454845 0.516218 0.000000
vt 0.454842 0.945437 0.000000
vt 0.996051 0.516241 0.000000
vt 0.996047 0.945459 0.000000
vt 0.968415 0.945458 0.000000
vt 0.968420 0.516239 0.000000
vt 0.624526 0.516223 0.000000
vt 0.624522 0.945442 0.000000
vt 0.586311 0.945441 0.000000
vt 0.586315 0.516222 0.000000
vt 0.642986 0.112867 0.000000
vt 0.642985 0.193280 0.000000
vt 0.596356 0.193278 0.000000
vt 0.596355 0.273691 0.000000
vt 0.549726 0.273690 0.000000
vt 0.549725 0.354102 0.000000
vt 0.503096 0.354101 0.000000
vt 0.986880 0.054732 0.000000
vt 0.986880 0.112880 0.000000
vt 0.503095 0.434514 0.000000
vt 0.005131 0.935715 0.000000
vt 0.005136 0.228595 0.000000
vt 0.005137 0.039388 0.000000
vt 0.992776 0.039390 0.000000
vt 0.992775 0.228597 0.000000
vt 0.992770 0.935716 0.000000
vt 0.962724 0.951110 0.000000
vt 0.035282 0.951108 0.000000
vt 0.635036 0.768047 0.000000
vt 0.635036 0.993727 0.000000
vt 0.368234 0.993726 0.000000
vt 0.368235 0.768046 0.000000
vt 0.005482 0.007434 0.000000
vt 0.231163 0.007435 0.000000
vt 0.231160 0.756644 0.000000
vt 0.005480 0.756643 0.000000
vt 0.497964 0.007436 0.000000
vt 0.497961 0.756645 0.000000
vt 0.723644 0.007437 0.000000
vt 0.723641 0.756646 0.000000
vt 0.990445 0.007438 0.000000
vt 0.990442 0.756647 0.000000
# 343 texture coords

g house01
usemtl roof
f -307/-343/-162 -306/-342/-162 -305/-341/-162 
f -305/-341/-161 -304/-340/-161 -307/-343/-161 
f -306/-342/-160 -303/-339/-160 -302/-338/-160 
f -302/-338/-159 -305/-337/-159 -306/-342/-159 
f -302/-336/-158 -301/-335/-158 -300/-334/-158 
f -300/-334/-158 -305/-333/-158 -302/-336/-158 
f -302/-338/-157 -303/-339/-157 -299/-332/-157 
f -302/-338/-156 -299/-332/-156 -298/-331/-156 
f -302/-338/-155 -298/-331/-155 -301/-330/-155 
f -297/-329/-154 -296/-328/-154 -306/-342/-154 
f -295/-327/-153 -297/-329/-153 -306/-342/-153 
f -294/-326/-153 -295/-327/-153 -306/-342/-153 
f -294/-326/-154 -306/-342/-154 -307/-343/-154 
f -293/-325/-152 -299/-324/-152 -303/-339/-152 
f -292/-323/-152 -293/-325/-152 -303/-339/-152 
f -296/-328/-151 -292/-323/-151 -303/-339/-151 
f -296/-328/-152 -303/-339/-152 -306/-342/-152 
f -294/-322/-150 -291/-321/-150 -290/-320/-150 
f -290/-320/-150 -289/-319/-150 -294/-322/-150 
f -288/-318/-149 -298/-331/-149 -287/-317/-149 
f -287/-317/-149 -286/-316/-149 -288/-318/-149 
f -285/-315/-148 -284/-314/-148 -283/-313/-148 
f -283/-313/-147 -282/-312/-147 -285/-315/-147 
f -282/-312/-146 -283/-311/-146 -281/-310/-146 
f -281/-310/-145 -280/-309/-145 -282/-312/-145 
f -279/-308/-144 -300/-334/-144 -283/-307/-144 
f -283/-307/-144 -284/-306/-144 -279/-308/-144 
f -278/-305/-143 -285/-315/-143 -282/-312/-143 
f -282/-312/-143 -277/-304/-143 -276/-303/-143 
f -282/-312/-143 -276/-303/-143 -275/-302/-143 
f -278/-305/-143 -282/-312/-143 -275/-302/-143 
f -277/-304/-142 -282/-312/-142 -280/-309/-142 
f -280/-309/-142 -288/-301/-142 -274/-300/-142 
f -280/-309/-142 -274/-300/-142 -273/-299/-142 
f -277/-304/-142 -280/-309/-142 -273/-299/-142 
f -304/-298/-141 -279/-297/-141 -291/-321/-141 
f -307/-296/-140 -304/-298/-140 -291/-321/-140 
f -294/-322/-139 -307/-296/-139 -291/-321/-139 
f -272/-295/-138 -271/-294/-137 -270/-293/-137 
f -270/-293/-137 -269/-292/-138 -272/-295/-138 
f -268/-293/-136 -267/-294/-136 -266/-291/-136 
f -266/-291/-136 -265/-290/-136 -268/-293/-136 
f -268/-289/-135 -265/-288/-134 -269/-287/-134 
f -269/-287/-134 -270/-286/-135 -268/-289/-135 
f -265/-288/-133 -266/-285/-132 -272/-284/-132 
f -272/-284/-132 -269/-287/-133 -265/-288/-133 
f -267/-283/-131 -268/-289/-131 -270/-286/-131 
f -270/-286/-131 -271/-282/-131 -267/-283/-131 
f -281/-281/-158 -283/-307/-158 -300/-334/-158 
f -300/-334/-158 -301/-335/-158 -281/-281/-158 
f -288/-318/-130 -280/-309/-130 -281/-310/-130 
f -298/-331/-156 -288/-318/-156 -281/-310/-156 
f -298/-331/-155 -281/-310/-155 -301/-330/-155 
f -278/-280/-150 -264/-279/-150 -290/-320/-150 
f -290/-320/-150 -291/-321/-150 -278/-280/-150 
f -299/-332/-149 -263/-278/-149 -287/-317/-149 
f -287/-317/-149 -298/-331/-149 -299/-332/-149 
f -304/-277/-144 -305/-333/-144 -300/-334/-144 
f -300/-334/-144 -279/-308/-144 -304/-277/-144 
f -284/-314/-129 -285/-315/-129 -278/-280/-129 
f -284/-314/-141 -278/-280/-141 -291/-321/-141 
f -279/-297/-141 -284/-314/-141 -291/-321/-141 
usemtl main
f -262/-276/-128 -261/-275/-128 -260/-274/-128 
f -260/-274/-128 -259/-273/-128 -262/-276/-128 
f -258/-272/-127 -257/-271/-127 -256/-270/-127 
f -256/-270/-127 -255/-269/-127 -258/-272/-127 
f -254/-268/-126 -293/-267/-126 -292/-266/-126 
f -292/-266/-125 -253/-265/-125 -254/-268/-125 
f -252/-264/-124 -251/-263/-124 -297/-262/-124 
f -297/-262/-126 -295/-261/-126 -252/-264/-126 
f -250/-260/-123 -249/-259/-123 -248/-258/-123 
f -289/-257/-122 -250/-260/-122 -248/-258/-122 
f -294/-256/-121 -289/-257/-121 -248/-258/-121 
f -294/-256/-120 -248/-258/-120 -247/-255/-120 
f -295/-261/-119 -294/-256/-119 -247/-255/-119 
f -252/-264/-118 -295/-261/-118 -247/-255/-118 
f -263/-254/-117 -299/-253/-117 -293/-267/-117 
f -247/-255/-116 -263/-254/-116 -293/-267/-116 
f -247/-255/-118 -293/-267/-118 -254/-268/-118 
f -252/-264/-118 -247/-255/-118 -254/-268/-118 
f -296/-252/-115 -297/-262/-115 -251/-263/-115 
f -296/-252/-114 -251/-263/-114 -253/-265/-114 
f -296/-252/-113 -253/-265/-113 -292/-266/-113 
f -259/-251/-112 -260/-250/-112 -246/-249/-112 
f -246/-249/-111 -245/-248/-111 -259/-251/-111 
f -245/-248/-110 -246/-249/-110 -257/-271/-110 
f -257/-271/-110 -258/-272/-110 -245/-248/-110 
f -244/-247/-109 -243/-246/-109 -242/-245/-109 
f -242/-245/-109 -241/-244/-109 -244/-247/-109 
f -240/-243/-110 -239/-242/-110 -238/-241/-110 
f -238/-241/-110 -237/-240/-110 -240/-243/-110 
f -236/-239/-110 -235/-238/-110 -234/-237/-110 
f -234/-237/-110 -233/-236/-110 -236/-239/-110 
f -232/-247/-110 -236/-246/-110 -233/-245/-110 
f -233/-245/-110 -231/-244/-110 -232/-247/-110 
f -289/-235/-109 -230/-234/-109 -243/-246/-109 
f -243/-246/-109 -244/-247/-109 -289/-235/-109 
f -249/-259/-110 -250/-260/-110 -239/-242/-110 
f -239/-242/-110 -240/-243/-110 -249/-259/-110 
f -247/-255/-110 -248/-258/-110 -235/-238/-110 
f -235/-238/-110 -236/-239/-110 -247/-255/-110 
f -263/-235/-110 -247/-234/-110 -236/-246/-110 
f -236/-246/-110 -232/-247/-110 -263/-235/-110 
f -248/-258/-110 -249/-259/-110 -240/-243/-110 
f -240/-243/-110 -235/-238/-110 -248/-258/-110 
f -229/-233/-108 -228/-232/-108 -227/-231/-108 
f -227/-231/-108 -226/-230/-108 -229/-233/-108 
f -225/-229/-107 -229/-233/-107 -226/-230/-107 
f -226/-230/-108 -224/-228/-108 -225/-229/-108 
f -244/-247/-110 -241/-244/-110 -238/-245/-110 
f -238/-245/-110 -239/-246/-110 -244/-247/-110 
f -289/-235/-110 -244/-247/-110 -239/-246/-110 
f -239/-246/-110 -250/-234/-110 -289/-235/-110 
f -232/-247/-106 -231/-244/-106 -223/-245/-106 
f -223/-245/-106 -222/-246/-106 -232/-247/-106 
f -263/-235/-106 -232/-247/-106 -222/-246/-106 
f -222/-246/-106 -221/-234/-106 -263/-235/-106 
f -220/-227/-109 -219/-226/-109 -242/-225/-109 
f -242/-225/-109 -243/-224/-109 -220/-227/-109 
f -218/-223/-109 -220/-227/-109 -243/-224/-109 
f -243/-224/-109 -230/-222/-109 -218/-223/-109 
f -223/-245/-106 -231/-244/-106 -217/-221/-106 
f -217/-221/-106 -216/-220/-106 -223/-245/-106 
f -238/-245/-110 -241/-244/-110 -215/-221/-110 
f -215/-221/-110 -214/-220/-110 -238/-245/-110 
f -213/-219/-110 -233/-236/-110 -234/-237/-110 
f -234/-237/-110 -212/-218/-110 -213/-219/-110 
f -234/-237/-110 -237/-240/-110 -211/-217/-110 
f -211/-217/-110 -212/-218/-110 -234/-237/-110 
f -242/-225/-109 -219/-226/-109 -210/-216/-109 
f -210/-216/-109 -209/-215/-109 -242/-225/-109 
f -237/-240/-110 -238/-241/-110 -214/-214/-110 
f -214/-214/-110 -211/-217/-110 -237/-240/-110 
f -231/-244/-110 -233/-245/-110 -213/-220/-110 
f -213/-220/-110 -217/-221/-110 -231/-244/-110 
f -227/-231/-108 -228/-232/-108 -208/-213/-108 
f -208/-213/-108 -207/-212/-108 -227/-231/-108 
f -241/-244/-109 -242/-245/-109 -209/-220/-109 
f -209/-220/-109 -215/-221/-109 -241/-244/-109 
f -206/-211/-109 -205/-210/-109 -204/-209/-109 
f -204/-209/-105 -203/-208/-105 -206/-211/-105 
f -202/-207/-109 -201/-206/-109 -200/-205/-109 
f -200/-205/-109 -199/-204/-109 -202/-207/-109 
f -198/-203/-109 -202/-207/-109 -199/-204/-109 
f -199/-204/-109 -197/-202/-109 -198/-203/-109 
f -201/-206/-109 -196/-201/-109 -195/-200/-109 
f -195/-200/-109 -200/-205/-109 -201/-206/-109 
usemtl win01
f -194/-199/-109 -193/-198/-109 -192/-197/-109 
f -192/-197/-109 -191/-196/-109 -194/-199/-109 
usemtl main
f -197/-202/-109 -199/-204/-109 -220/-227/-109 
f -220/-227/-109 -218/-223/-109 -197/-202/-109 
f -200/-205/-109 -195/-200/-109 -210/-216/-109 
f -210/-216/-109 -219/-226/-109 -200/-205/-109 
f -255/-195/-104 -256/-194/-104 -205/-210/-104 
f -205/-210/-104 -206/-211/-104 -255/-195/-104 
usemtl win01
f -199/-193/-103 -200/-192/-103 -193/-198/-103 
f -193/-198/-103 -194/-199/-103 -199/-193/-103 
f -200/-191/-123 -219/-190/-123 -192/-197/-123 
f -192/-197/-123 -193/-198/-123 -200/-191/-123 
f -219/-189/-102 -220/-188/-102 -191/-196/-102 
f -191/-196/-102 -192/-197/-102 -219/-189/-102 
f -220/-187/-122 -199/-186/-122 -194/-199/-122 
f -194/-199/-122 -191/-196/-122 -220/-187/-122 
usemtl main
f -190/-185/-106 -189/-184/-106 -188/-183/-106 
f -188/-183/-106 -187/-182/-106 -190/-185/-106 
f -186/-181/-101 -190/-185/-101 -187/-182/-101 
f -187/-182/-101 -185/-180/-101 -186/-181/-101 
f -184/-179/-106 -183/-178/-106 -182/-177/-106 
f -182/-177/-106 -181/-176/-106 -184/-179/-106 
f -189/-184/-106 -180/-175/-106 -179/-174/-106 
f -179/-174/-106 -188/-183/-106 -189/-184/-106 
f -185/-180/-101 -187/-182/-101 -229/-233/-101 
f -229/-233/-101 -225/-229/-101 -185/-180/-101 
f -188/-183/-106 -179/-174/-106 -208/-213/-106 
f -208/-213/-106 -228/-232/-106 -188/-183/-106 
f -178/-173/-100 -177/-172/-100 -183/-178/-100 
f -183/-178/-100 -184/-179/-100 -178/-173/-100 
usemtl stairs
f -176/-171/-106 -175/-170/-106 -174/-169/-106 
f -173/-168/-106 -176/-171/-106 -174/-169/-106 
f -172/-167/-106 -173/-168/-106 -174/-169/-106 
usemtl main
f -222/-166/-106 -223/-165/-106 -171/-164/-106 
f -171/-164/-106 -170/-163/-106 -222/-166/-106 
f -221/-162/-106 -222/-166/-106 -170/-163/-106 
f -170/-163/-101 -169/-161/-101 -221/-162/-101 
f -223/-165/-106 -216/-160/-106 -168/-159/-106 
f -168/-159/-106 -171/-164/-106 -223/-165/-106 
usemtl door
f -167/-158/-106 -166/-157/-106 -165/-156/-106 
f -165/-156/-106 -164/-155/-106 -167/-158/-106 
usemtl main
f -169/-161/-101 -170/-163/-101 -190/-185/-101 
f -190/-185/-101 -186/-181/-101 -169/-161/-101 
usemtl door
f -166/-157/-106 -163/-154/-106 -162/-153/-106 
f -162/-153/-106 -165/-156/-106 -166/-157/-106 
usemtl main
f -181/-176/-106 -182/-177/-106 -161/-152/-106 
f -181/-176/-106 -161/-152/-106 -160/-151/-106 
f -181/-176/-106 -160/-151/-106 -159/-150/-106 
f -181/-176/-106 -159/-150/-106 -158/-149/-106 
f -181/-176/-106 -158/-149/-106 -157/-148/-106 
f -181/-176/-106 -157/-148/-106 -156/-147/-106 
f -155/-146/-106 -181/-176/-106 -156/-147/-106 
usemtl win02
f -154/-145/-99 -153/-144/-99 -152/-143/-99 
f -152/-143/-99 -151/-142/-99 -154/-145/-99 
f -254/-141/-98 -253/-140/-98 -151/-142/-98 
f -151/-142/-98 -152/-143/-98 -254/-141/-98 
f -253/-139/-97 -251/-138/-97 -154/-145/-97 
f -154/-145/-97 -151/-142/-97 -253/-139/-97 
f -251/-137/-96 -252/-136/-96 -153/-144/-96 
f -153/-144/-96 -154/-145/-96 -251/-137/-96 
f -252/-135/-95 -254/-134/-95 -152/-143/-95 
f -152/-143/-95 -153/-144/-95 -252/-135/-95 
usemtl win01
f -150/-197/-110 -149/-196/-110 -148/-199/-110 
f -148/-199/-110 -147/-198/-110 -150/-197/-110 
usemtl main
f -207/-212/-94 -208/-213/-94 -183/-178/-94 
f -183/-178/-93 -177/-172/-93 -207/-212/-93 
f -208/-213/-92 -179/-174/-92 -182/-177/-92 
f -182/-177/-92 -183/-178/-92 -208/-213/-92 
f -216/-160/-91 -217/-133/-91 -260/-274/-91 
f -216/-160/-90 -260/-274/-90 -261/-275/-90 
f -168/-159/-89 -216/-160/-89 -261/-275/-89 
f -180/-175/-89 -168/-159/-89 -261/-275/-89 
f -180/-175/-92 -261/-275/-92 -161/-152/-92 
f -179/-174/-92 -180/-175/-92 -161/-152/-92 
f -179/-174/-92 -161/-152/-92 -182/-177/-92 
f -213/-219/-88 -212/-218/-88 -246/-249/-88 
f -213/-219/-87 -246/-249/-87 -260/-250/-87 
f -217/-132/-86 -213/-219/-86 -260/-250/-86 
f -212/-218/-88 -211/-217/-88 -257/-271/-88 
f -257/-271/-88 -246/-249/-88 -212/-218/-88 
f -214/-214/-85 -215/-131/-85 -256/-270/-85 
f -214/-214/-84 -256/-270/-84 -257/-271/-84 
f -211/-217/-88 -214/-214/-88 -257/-271/-88 
f -209/-215/-83 -210/-216/-83 -205/-210/-83 
f -209/-215/-82 -205/-210/-82 -256/-194/-82 
f -215/-131/-81 -209/-215/-81 -256/-194/-81 
f -210/-216/-83 -195/-200/-83 -204/-209/-83 
f -204/-209/-83 -205/-210/-83 -210/-216/-83 
f -196/-201/-83 -146/-130/-83 -204/-209/-83 
f -204/-209/-83 -195/-200/-83 -196/-201/-83 
usemtl win01
f -240/-193/-80 -237/-192/-80 -147/-198/-80 
f -147/-198/-80 -148/-199/-80 -240/-193/-80 
f -237/-191/-123 -234/-190/-123 -150/-197/-123 
f -150/-197/-123 -147/-198/-123 -237/-191/-123 
f -234/-189/-79 -235/-188/-79 -149/-196/-79 
f -149/-196/-79 -150/-197/-79 -234/-189/-79 
f -235/-187/-122 -240/-186/-122 -148/-199/-122 
f -148/-199/-122 -149/-196/-122 -235/-187/-122 
usemtl main
f -203/-208/-105 -204/-209/-105 -146/-130/-105 
f -146/-130/-109 -145/-129/-109 -203/-208/-109 
f -144/-195/-78 -143/-194/-78 -142/-128/-78 
f -142/-128/-78 -141/-127/-78 -144/-195/-78 
f -140/-251/-77 -139/-250/-77 -138/-126/-77 
f -138/-126/-76 -137/-125/-76 -140/-251/-76 
f -136/-264/-75 -135/-263/-75 -273/-262/-75 
f -273/-262/-74 -274/-261/-74 -136/-264/-74 
f -134/-248/-73 -133/-124/-73 -132/-123/-73 
f -132/-123/-73 -131/-249/-73 -134/-248/-73 
f -130/-268/-74 -275/-267/-74 -276/-266/-74 
f -276/-266/-72 -129/-265/-72 -130/-268/-72 
f -274/-261/-71 -288/-122/-71 -286/-121/-71 
f -274/-261/-70 -286/-121/-70 -128/-260/-70 
f -274/-261/-69 -128/-260/-69 -127/-259/-69 
f -127/-259/-122 -126/-258/-122 -125/-120/-122 
f -274/-261/-68 -127/-259/-68 -125/-120/-68 
f -136/-264/-67 -274/-261/-67 -125/-120/-67 
f -130/-268/-67 -136/-264/-67 -125/-120/-67 
f -124/-119/-122 -123/-118/-122 -122/-255/-122 
f -124/-119/-122 -122/-255/-122 -264/-254/-122 
f -124/-119/-66 -264/-254/-66 -278/-253/-66 
f -125/-120/-65 -124/-119/-65 -278/-253/-65 
f -125/-120/-64 -278/-253/-64 -275/-267/-64 
f -130/-268/-67 -125/-120/-67 -275/-267/-67 
f -277/-252/-63 -273/-262/-63 -135/-263/-63 
f -277/-252/-62 -135/-263/-62 -129/-265/-62 
f -277/-252/-61 -129/-265/-61 -276/-266/-61 
f -133/-124/-60 -121/-117/-60 -120/-116/-60 
f -120/-116/-60 -132/-123/-60 -133/-124/-60 
f -119/-271/-59 -143/-270/-59 -144/-269/-59 
f -144/-269/-59 -118/-272/-59 -119/-271/-59 
f -121/-117/-60 -137/-125/-60 -138/-126/-60 
f -138/-126/-60 -120/-116/-60 -121/-117/-60 
f -118/-272/-60 -134/-248/-60 -131/-249/-60 
f -131/-249/-60 -119/-271/-60 -118/-272/-60 
f -117/-247/-58 -116/-244/-58 -115/-245/-58 
f -115/-245/-58 -114/-246/-58 -117/-247/-58 
f -113/-115/-73 -112/-114/-73 -111/-236/-73 
f -111/-236/-73 -110/-239/-73 -113/-115/-73 
f -109/-238/-73 -108/-237/-73 -107/-113/-73 
f -107/-113/-73 -106/-112/-73 -109/-238/-73 
f -106/-112/-60 -107/-113/-60 -105/-111/-60 
f -105/-111/-60 -104/-110/-60 -106/-112/-60 
f -103/-247/-60 -102/-244/-60 -101/-245/-60 
f -101/-245/-60 -100/-246/-60 -103/-247/-60 
f -264/-235/-58 -117/-247/-58 -114/-246/-58 
f -114/-246/-58 -99/-234/-58 -264/-235/-58 
f -123/-118/-73 -113/-115/-73 -110/-239/-73 
f -110/-239/-73 -122/-255/-73 -123/-118/-73 
f -126/-258/-73 -109/-238/-73 -106/-112/-73 
f -106/-112/-73 -125/-120/-73 -126/-258/-73 
f -125/-120/-60 -106/-112/-60 -104/-110/-60 
f -104/-110/-60 -124/-119/-60 -125/-120/-60 
f -286/-235/-60 -103/-247/-60 -100/-246/-60 
f -100/-246/-60 -128/-234/-60 -286/-235/-60 
f -124/-119/-60 -104/-110/-60 -113/-115/-60 
f -113/-115/-60 -123/-118/-60 -124/-119/-60 
f -127/-259/-57 -98/-243/-57 -109/-238/-57 
f -109/-238/-57 -126/-258/-57 -127/-259/-57 
f -97/-109/-56 -226/-230/-56 -227/-231/-56 
f -227/-231/-56 -96/-108/-56 -97/-109/-56 
f -95/-107/-56 -224/-228/-56 -226/-230/-56 
f -226/-230/-55 -97/-109/-55 -95/-107/-55 
f -117/-247/-60 -110/-246/-60 -111/-245/-60 
f -111/-245/-60 -116/-244/-60 -117/-247/-60 
f -264/-235/-60 -122/-234/-60 -110/-246/-60 
f -110/-246/-60 -117/-247/-60 -264/-235/-60 
f -98/-243/-73 -100/-242/-73 -101/-241/-73 
f -101/-241/-54 -94/-240/-54 -98/-243/-54 
f -127/-259/-73 -128/-260/-73 -100/-242/-73 
f -100/-242/-73 -98/-243/-73 -127/-259/-73 
f -103/-247/-53 -93/-246/-53 -92/-245/-53 
f -92/-245/-53 -102/-244/-53 -103/-247/-53 
f -286/-235/-53 -91/-234/-53 -93/-246/-53 
f -93/-246/-53 -103/-247/-53 -286/-235/-53 
f -90/-106/-52 -114/-105/-52 -115/-104/-52 
f -115/-104/-52 -89/-103/-52 -90/-106/-52 
f -88/-102/-52 -99/-101/-52 -114/-105/-52 
f -114/-105/-52 -90/-106/-52 -88/-102/-52 
f -92/-245/-53 -87/-220/-53 -86/-221/-53 
f -86/-221/-53 -102/-244/-53 -92/-245/-53 
f -111/-245/-60 -85/-220/-60 -84/-221/-60 
f -84/-221/-60 -116/-244/-60 -111/-245/-60 
f -108/-237/-73 -83/-218/-73 -82/-100/-73 
f -82/-100/-73 -107/-113/-73 -108/-237/-73 
f -107/-113/-60 -82/-100/-60 -81/-99/-60 
f -81/-99/-60 -105/-111/-60 -107/-113/-60 
f -101/-241/-73 -80/-214/-73 -79/-217/-73 
f -79/-217/-73 -94/-240/-73 -101/-241/-73 
f -105/-111/-60 -81/-99/-60 -78/-98/-60 
f -78/-98/-60 -112/-114/-60 -105/-111/-60 
f -94/-240/-57 -79/-217/-57 -83/-218/-57 
f -83/-218/-57 -108/-237/-57 -94/-240/-57 
f -115/-104/-52 -77/-97/-52 -76/-96/-52 
f -76/-96/-52 -89/-103/-52 -115/-104/-52 
f -112/-114/-73 -78/-98/-73 -85/-219/-73 
f -85/-219/-73 -111/-236/-73 -112/-114/-73 
f -102/-244/-60 -86/-221/-60 -80/-220/-60 
f -80/-220/-60 -101/-245/-60 -102/-244/-60 
f -227/-231/-56 -207/-212/-56 -75/-95/-56 
f -75/-95/-55 -96/-108/-55 -227/-231/-55 
f -116/-244/-58 -84/-221/-58 -77/-220/-58 
f -77/-220/-58 -115/-245/-58 -116/-244/-58 
f -74/-94/-58 -73/-93/-58 -72/-92/-58 
f -72/-92/-58 -71/-91/-58 -74/-94/-58 
f -202/-207/-52 -70/-90/-52 -69/-89/-52 
f -69/-89/-52 -201/-206/-52 -202/-207/-52 
f -198/-203/-51 -68/-88/-51 -70/-90/-51 
f -70/-90/-52 -202/-207/-52 -198/-203/-52 
f -201/-206/-52 -69/-89/-52 -67/-87/-52 
f -67/-87/-52 -196/-201/-52 -201/-206/-52 
f -68/-88/-58 -88/-102/-58 -90/-106/-58 
f -90/-106/-50 -70/-90/-50 -68/-88/-50 
f -69/-89/-58 -89/-103/-58 -76/-96/-58 
f -76/-96/-58 -67/-87/-58 -69/-89/-58 
f -71/-91/-49 -139/-86/-49 -140/-85/-49 
f -140/-85/-49 -74/-94/-49 -71/-91/-49 
f -66/-84/-53 -65/-83/-53 -64/-82/-53 
f -64/-82/-53 -63/-81/-53 -66/-84/-53 
f -62/-80/-48 -61/-79/-48 -65/-83/-48 
f -65/-83/-47 -66/-84/-47 -62/-80/-47 
f -60/-78/-46 -59/-77/-46 -58/-76/-46 
f -58/-76/-46 -57/-75/-46 -60/-78/-46 
f -63/-81/-47 -64/-82/-47 -56/-74/-47 
f -56/-74/-53 -55/-73/-53 -63/-81/-53 
f -61/-79/-46 -95/-107/-46 -97/-109/-46 
f -97/-109/-45 -65/-83/-45 -61/-79/-45 
f -64/-82/-45 -96/-108/-45 -75/-95/-45 
f -75/-95/-46 -56/-74/-46 -64/-82/-46 
f -178/-173/-44 -60/-78/-44 -57/-75/-44 
f -57/-75/-43 -177/-172/-43 -178/-173/-43 
f -54/-72/-48 -141/-127/-48 -142/-128/-48 
f -142/-128/-47 -53/-71/-47 -54/-72/-47 
f -93/-70/-48 -52/-69/-48 -51/-68/-48 
f -51/-68/-48 -92/-67/-48 -93/-70/-48 
f -91/-66/-47 -50/-65/-47 -52/-69/-47 
f -52/-69/-48 -93/-70/-48 -91/-66/-48 
f -92/-67/-48 -51/-68/-48 -49/-64/-48 
f -49/-64/-48 -87/-63/-48 -92/-67/-48 
f -52/-69/-53 -66/-84/-53 -63/-81/-53 
f -63/-81/-53 -51/-68/-53 -52/-69/-53 
f -50/-65/-47 -62/-80/-47 -66/-84/-47 
f -66/-84/-47 -52/-69/-47 -50/-65/-47 
f -51/-68/-53 -63/-81/-53 -55/-73/-53 
f -55/-73/-53 -49/-64/-53 -51/-68/-53 
f -59/-77/-47 -54/-72/-47 -53/-71/-47 
f -53/-71/-47 -58/-76/-47 -59/-77/-47 
usemtl win02
f -48/-142/-42 -47/-145/-42 -46/-144/-42 
f -46/-144/-42 -45/-143/-42 -48/-142/-42 
f -136/-136/-41 -46/-144/-41 -47/-145/-41 
f -47/-145/-40 -135/-137/-40 -136/-136/-40 
f -135/-138/-39 -47/-145/-39 -48/-142/-39 
f -48/-142/-39 -129/-139/-39 -135/-138/-39 
f -129/-140/-38 -48/-142/-38 -45/-143/-38 
f -45/-143/-37 -130/-141/-37 -129/-140/-37 
f -130/-134/-36 -45/-143/-36 -46/-144/-36 
f -46/-144/-36 -136/-135/-36 -130/-134/-36 
usemtl win01
f -44/-198/-60 -43/-197/-60 -42/-196/-60 
f -42/-196/-35 -41/-199/-35 -44/-198/-35 
f -40/-198/-60 -39/-197/-60 -38/-196/-60 
f -38/-196/-60 -37/-199/-60 -40/-198/-60 
usemtl main
f -207/-212/-34 -177/-172/-34 -57/-75/-34 
f -57/-75/-33 -75/-95/-33 -207/-212/-33 
f -75/-95/-32 -57/-75/-32 -58/-76/-32 
f -58/-76/-31 -56/-74/-31 -75/-95/-31 
f -56/-74/-30 -58/-76/-30 -53/-71/-30 
f -53/-71/-30 -55/-73/-30 -56/-74/-30 
f -55/-73/-30 -53/-71/-30 -142/-128/-30 
f -142/-128/-30 -49/-64/-30 -55/-73/-30 
f -143/-194/-29 -86/-62/-29 -87/-63/-29 
f -142/-128/-28 -143/-194/-28 -87/-63/-28 
f -49/-64/-30 -142/-128/-30 -87/-63/-30 
f -86/-62/-27 -143/-270/-27 -119/-271/-27 
f -119/-271/-26 -79/-217/-26 -80/-214/-26 
f -86/-62/-26 -119/-271/-26 -80/-214/-26 
f -79/-217/-26 -119/-271/-26 -131/-249/-26 
f -131/-249/-25 -83/-218/-25 -79/-217/-25 
f -83/-218/-24 -131/-249/-24 -132/-123/-24 
f -132/-123/-24 -82/-100/-24 -83/-218/-24 
f -82/-100/-24 -132/-123/-24 -120/-116/-24 
f -120/-116/-24 -81/-99/-24 -82/-100/-24 
f -81/-99/-24 -120/-116/-24 -138/-126/-24 
f -138/-126/-24 -78/-98/-24 -81/-99/-24 
f -139/-250/-23 -84/-132/-23 -85/-219/-23 
f -138/-126/-22 -139/-250/-22 -85/-219/-22 
f -78/-98/-24 -138/-126/-24 -85/-219/-24 
f -84/-61/-21 -139/-86/-21 -71/-91/-21 
f -71/-91/-20 -76/-96/-20 -77/-97/-20 
f -84/-61/-19 -71/-91/-19 -77/-97/-19 
f -76/-96/-20 -71/-91/-20 -72/-92/-20 
f -72/-92/-20 -67/-87/-20 -76/-96/-20 
f -196/-201/-20 -67/-87/-20 -72/-92/-20 
f -72/-92/-20 -146/-130/-20 -196/-201/-20 
usemtl win01
f -109/-188/-18 -42/-196/-18 -43/-197/-18 
f -43/-197/-18 -108/-189/-18 -109/-188/-18 
f -108/-190/-123 -43/-197/-123 -44/-198/-123 
f -44/-198/-123 -94/-191/-123 -108/-190/-123 
f -94/-192/-17 -44/-198/-17 -41/-199/-17 
f -41/-199/-17 -98/-193/-17 -94/-192/-17 
f -98/-186/-122 -41/-199/-122 -42/-196/-122 
f -42/-196/-122 -109/-187/-122 -98/-186/-122 
f -113/-188/-16 -38/-196/-16 -39/-197/-16 
f -39/-197/-16 -112/-189/-16 -113/-188/-16 
f -112/-190/-123 -39/-197/-123 -40/-198/-123 
f -40/-198/-123 -105/-191/-123 -112/-190/-123 
f -105/-192/-15 -40/-198/-15 -37/-199/-15 
f -37/-199/-15 -104/-193/-15 -105/-192/-15 
f -104/-186/-122 -37/-199/-122 -38/-196/-122 
f -38/-196/-122 -113/-187/-122 -104/-186/-122 
usemtl main
f -73/-93/-52 -145/-129/-52 -146/-130/-52 
f -146/-130/-52 -72/-92/-52 -73/-93/-52 
usemtl win01
f -36/-197/-58 -35/-196/-58 -34/-199/-58 
f -34/-199/-58 -33/-198/-58 -36/-197/-58 
f -90/-193/-14 -89/-192/-14 -33/-198/-14 
f -33/-198/-14 -34/-199/-14 -90/-193/-14 
f -89/-191/-123 -69/-190/-123 -36/-197/-123 
f -36/-197/-123 -33/-198/-123 -89/-191/-123 
f -69/-189/-13 -70/-188/-13 -35/-196/-13 
f -35/-196/-13 -36/-197/-13 -69/-189/-13 
f -70/-187/-122 -90/-186/-122 -34/-199/-122 
f -34/-199/-122 -35/-196/-122 -70/-187/-122 
usemtl stairs
f -261/-60/-12 -262/-59/-12 -172/-167/-12 
f -172/-167/-12 -174/-169/-12 -261/-60/-12 
f -32/-58/-11 -31/-57/-11 -30/-56/-11 
f -30/-56/-11 -29/-55/-11 -32/-58/-11 
f -161/-54/-10 -261/-53/-10 -174/-52/-10 
f -174/-52/-122 -175/-51/-122 -161/-54/-122 
f -161/-54/-11 -175/-51/-11 -176/-50/-11 
f -176/-50/-11 -160/-49/-11 -161/-54/-11 
f -28/-48/-11 -27/-47/-11 -26/-46/-11 
f -26/-46/-11 -25/-45/-11 -28/-48/-11 
f -24/-44/-9 -23/-43/-9 -22/-42/-9 
f -22/-42/-9 -21/-41/-9 -24/-44/-9 
f -20/-40/-11 -19/-39/-11 -18/-38/-11 
f -18/-38/-11 -17/-37/-11 -20/-40/-11 
f -16/-36/-9 -15/-35/-9 -14/-34/-9 
f -14/-34/-9 -13/-33/-9 -16/-36/-9 
f -160/-49/-8 -176/-50/-8 -27/-47/-8 
f -27/-47/-8 -28/-48/-8 -160/-49/-8 
f -25/-45/-8 -26/-46/-8 -23/-43/-8 
f -23/-43/-8 -24/-44/-8 -25/-45/-8 
f -21/-41/-8 -22/-42/-8 -31/-57/-8 
f -31/-57/-8 -32/-58/-8 -21/-41/-8 
f -29/-55/-8 -30/-56/-8 -13/-33/-8 
f -13/-33/-8 -14/-34/-8 -29/-55/-8 
f -15/-35/-122 -16/-36/-122 -17/-37/-122 
f -17/-37/-122 -18/-38/-122 -15/-35/-122 
f -16/-32/-7 -13/-31/-7 -30/-30/-7 
f -30/-30/-7 -31/-29/-7 -22/-28/-7 
f -22/-28/-7 -23/-27/-7 -26/-26/-7 
f -22/-28/-7 -26/-26/-7 -173/-168/-7 
f -30/-30/-7 -22/-28/-7 -173/-168/-7 
f -16/-32/-7 -30/-30/-7 -173/-168/-7 
f -16/-32/-6 -173/-168/-6 -20/-25/-6 
f -16/-32/-7 -20/-25/-7 -17/-24/-7 
usemtl main
f -64/-82/-45 -65/-83/-45 -97/-109/-45 
f -97/-109/-45 -96/-108/-45 -64/-82/-45 
usemtl stairs
f -26/-26/-7 -27/-23/-7 -176/-171/-7 
f -176/-171/-7 -173/-168/-7 -26/-26/-7 
usemtl win01
f -12/-197/-106 -11/-196/-106 -10/-199/-106 
f -10/-199/-106 -9/-198/-106 -12/-197/-106 
f -187/-193/-5 -188/-192/-5 -9/-198/-5 
f -9/-198/-5 -10/-199/-5 -187/-193/-5 
f -188/-191/-123 -228/-190/-123 -12/-197/-123 
f -12/-197/-123 -9/-198/-123 -188/-191/-123 
f -228/-189/-11 -229/-188/-11 -11/-196/-11 
f -11/-196/-11 -12/-197/-11 -228/-189/-11 
f -229/-187/-122 -187/-186/-122 -10/-199/-122 
f -10/-199/-122 -11/-196/-122 -229/-187/-122 
usemtl door
f -170/-22/-5 -171/-21/-5 -166/-157/-5 
f -166/-157/-5 -167/-158/-5 -170/-22/-5 
f -171/-21/-5 -168/-20/-5 -163/-154/-5 
f -163/-154/-5 -166/-157/-5 -171/-21/-5 
usemtl roof
f -168/-159/-123 -180/-175/-123 -162/-175/-123 
f -162/-175/-123 -163/-159/-123 -168/-159/-123 
usemtl door
f -180/-19/-11 -189/-18/-11 -165/-156/-11 
f -165/-156/-11 -162/-153/-11 -180/-19/-11 
f -189/-18/-11 -190/-17/-11 -164/-155/-11 
f -164/-155/-11 -165/-156/-11 -189/-18/-11 
f -190/-16/-122 -170/-15/-122 -167/-158/-122 
f -167/-158/-122 -164/-155/-122 -190/-16/-122 
usemtl chimney
f -8/-14/-122 -7/-13/-122 -6/-12/-122 
f -6/-12/-122 -5/-11/-122 -8/-14/-122 
f -4/-10/-4 -3/-9/-4 -7/-8/-4 
f -7/-8/-4 -8/-7/-4 -4/-10/-4 
f -3/-9/-3 -2/-6/-3 -6/-5/-3 
f -6/-5/-3 -7/-8/-3 -3/-9/-3 
f -2/-6/-2 -1/-4/-2 -5/-3/-2 
f -5/-3/-2 -6/-5/-2 -2/-6/-2 
f -1/-4/-1 -4/-2/-1 -8/-1/-1 
f -8/-1/-1 -5/-3/-1 -1/-4/-1 
# 537 faces

