# 
# Wavefront OBJ file
# Converted by the DEEP Exploration Deep Exploration 6.3 x64 6.3.3.8069
# Right Hemisphere, LTD
# http://www.righthemisphere.com/
# 
mtllib Myyrivahe27.mtl
# object Line006
g Line006
v 231.38432 -123.92906 14.90866
v 231.79236 -122.72984 14.90866
v 231.54611 -122.64603 14.94012
v 231.13806 -123.84530 14.94012
v 231.39296 -123.93284 14.90494
v 231.80150 -122.73210 14.90494
v 231.40208 -123.93668 14.89641
v 231.81108 -122.73463 14.89641
v 231.40584 -123.93795 14.88552
v 231.81483 -122.73591 14.88552
v 231.40594 -123.93799 14.87237
v 231.81493 -122.73594 14.87237
v 231.79185 -122.73020 14.93267
v 231.54578 -122.64648 14.96407
v 231.13808 -123.84473 14.96407
v 231.38416 -123.92846 14.93267
v 231.80011 -122.73302 14.92866
v 231.39241 -123.93127 14.92866
v 231.54643 -122.64458 14.93877
v 231.79250 -122.72831 14.90737
v 231.38350 -123.93035 14.90737
v 231.13744 -123.84663 14.93877
v 231.80075 -122.73112 14.90337
v 231.39177 -123.93317 14.90337
v 231.80951 -122.73410 14.89528
v 231.40053 -123.93614 14.89528
v 231.81296 -122.73528 14.88517
v 231.40398 -123.93732 14.88517
v 231.81303 -122.73530 14.87236
v 231.40405 -123.93734 14.87236
v 231.54643 -122.64458 14.96407
v 231.79250 -122.72831 14.93267
v 231.38350 -123.93035 14.93267
v 231.13744 -123.84663 14.96407
v 231.80075 -122.73112 14.92866
v 231.39177 -123.93317 14.92866
# 36 verticies
vt 0.8520877361 1.0000000000
vt 0.8520877361 0.0000000000
vt 0.0000000000 0.0000000000
vt 0.0000000000 1.0000000000
vt 0.8833383322 1.0000000000
vt 0.8833383322 0.0000000000
vt 0.9233259559 1.0000000000
vt 0.9233259559 0.0000000000
vt 0.9582920671 1.0000000000
vt 0.9582920671 0.0000000000
vt 1.0000000000 1.0000000000
vt 1.0000000000 0.0000000000
# 12 texture verticies
vn 0.11367 -0.03868 0.99276
vn 0.11367 -0.03868 0.99276
vn 0.11367 -0.03868 0.99276
vn 0.49639 -0.16889 0.85151
vn 0.49639 -0.16889 0.85151
vn 0.34875 -0.11866 0.92967
vn 0.34875 -0.11866 0.92967
vn 0.78175 -0.26599 0.56402
vn 0.78175 -0.26599 0.56402
vn 0.93165 -0.31699 0.17762
vn 0.93165 -0.31699 0.17762
vn 0.94667 -0.32210 0.00825
vn -0.32458 -0.94561 -0.02187
vn 0.31949 0.94734 -0.02187
vn -0.29515 -0.95472 -0.03737
vn 0.34837 0.93661 -0.03736
vn -0.11353 0.03863 -0.99278
vn -0.39510 0.13443 -0.90875
vn -0.51436 0.17501 -0.83952
vn -0.51436 0.17501 -0.83952
vn -0.39510 0.13443 -0.90875
vn -0.78178 0.26600 -0.56398
vn -0.93208 0.31714 -0.17505
vn -0.94668 0.32211 -0.00606
vn 0.32211 0.94670 0.00000
vn -0.32211 -0.94670 -0.00000
vn 0.32211 0.94670 0.00000
vn -0.32211 -0.94670 -0.00000
vn -0.96234 0.26577 0.05710
vn -0.92550 0.37507 0.05261
vn -0.92449 0.37702 0.05627
vn -0.96066 0.27099 0.06079
vn -0.03159 -0.98001 0.19644
vn -0.31182 -0.94999 0.01693
vn 0.14188 -0.98373 0.11025
vn 0.31786 0.94760 0.03192
vn 0.60912 0.76473 0.21014
vn 0.65883 0.74039 0.13327
vn 0.30749 0.95129 0.02243
vn 0.32211 0.94670 0.00000
vn 0.00574 -0.00195 -0.99998
vn 0.25741 -0.08758 0.96233
vn 0.11353 -0.03863 0.99278
vn -0.94807 0.31800 -0.00655
vn -0.94668 0.32210 -0.00682
vn -0.94670 0.32211 0.00000
vn -0.94528 0.32626 -0.00035
vn 0.11353 -0.03863 0.99278
vn 0.25741 -0.08758 0.96233
vn 0.79696 -0.27116 0.53975
vn 0.79567 -0.25334 0.55021
vn 0.78073 -0.28258 0.55732
vn 0.77998 -0.26538 0.56675
# 53 normals
usemtl Windowsill
f  1/1/1 2/2/2 3/3/3 4/4/1
f  5/5/4 6/6/5 2/2/6 1/1/7
f  7/7/8 8/8/9 6/6/5 5/5/4
f  9/9/10 10/10/11 8/8/9 7/7/8
f  11/11/12 12/12/12 10/10/11 9/9/10
f  13/2/13 14/3/13 3/3/13 2/2/13
f  15/4/14 16/1/14 1/1/14 4/4/14
f  17/6/15 13/2/15 2/2/15 6/6/15
f  16/1/16 18/5/16 5/5/16 1/1/16
f  19/3/17 20/2/17 21/1/17 22/4/17
f  20/2/18 23/6/19 24/5/20 21/1/21
f  23/6/19 25/8/22 26/7/22 24/5/20
f  25/8/22 27/10/23 28/9/23 26/7/22
f  27/10/23 29/12/24 30/11/24 28/9/23
f  19/3/25 31/3/25 32/2/25 20/2/25
f  21/1/26 33/1/26 34/4/26 22/4/26
f  20/2/27 32/2/27 35/6/27 23/6/27
f  24/5/28 36/5/28 33/1/28 21/1/28
f  19/3/29 22/4/30 4/4/31 3/3/32
f  24/5/33 26/7/28 7/7/34 5/5/35
f  25/8/36 23/6/37 6/6/38 8/8/39
f  26/7/28 28/9/28 9/9/28 7/7/34
f  27/10/40 25/8/36 8/8/39 10/10/40
f  28/9/28 30/11/28 11/11/28 9/9/28
f  30/11/41 29/12/41 12/12/41 11/11/41
f  29/12/40 27/10/40 10/10/40 12/12/40
f  32/2/42 31/3/43 14/3/43 13/2/42
f  31/3/44 19/3/29 3/3/32 14/3/45
f  22/4/30 34/4/46 15/4/47 4/4/31
f  34/4/48 33/1/49 16/1/49 15/4/48
f  23/6/37 35/6/50 17/6/51 6/6/38
f  35/6/50 32/2/42 13/2/42 17/6/51
f  33/1/49 36/5/52 18/5/53 16/1/49
f  36/5/52 24/5/33 5/5/35 18/5/53
# object Line002
g Line002
v 232.05524 -121.95731 8.65154
v 232.45483 -120.78288 8.65154
v 232.20859 -120.69907 8.68300
v 231.80898 -121.87354 8.68300
v 232.06387 -121.96109 8.64782
v 232.46397 -120.78515 8.64782
v 232.07300 -121.96492 8.63929
v 232.47356 -120.78768 8.63929
v 232.07675 -121.96620 8.62840
v 232.47731 -120.78896 8.62840
v 232.07686 -121.96623 8.61525
v 232.47740 -120.78899 8.61525
v 232.45433 -120.78325 8.67554
v 232.20825 -120.69952 8.70694
v 231.80899 -121.87298 8.70694
v 232.05507 -121.95670 8.67554
v 232.46259 -120.78606 8.67154
v 232.06332 -121.95952 8.67154
v 232.20891 -120.69763 8.68165
v 232.45497 -120.78136 8.65025
v 232.05441 -121.95860 8.65025
v 231.80835 -121.87488 8.68165
v 232.46323 -120.78416 8.64624
v 232.06268 -121.96141 8.64624
v 232.47198 -120.78715 8.63816
v 232.07144 -121.96439 8.63816
v 232.47543 -120.78832 8.62805
v 232.07489 -121.96556 8.62805
v 232.47551 -120.78835 8.61524
v 232.07497 -121.96559 8.61524
v 232.20891 -120.69763 8.70694
v 232.45497 -120.78136 8.67554
v 232.05441 -121.95860 8.67554
v 231.80835 -121.87488 8.70694
v 232.46323 -120.78416 8.67154
v 232.06268 -121.96141 8.67154
# 36 verticies
vt 0.8520877361 1.0000000000
vt 0.8520877361 0.0000000000
vt 0.0000000000 0.0000000000
vt 0.0000000000 1.0000000000
vt 0.8833383322 1.0000000000
vt 0.8833383322 0.0000000000
vt 0.9233259559 1.0000000000
vt 0.9233259559 0.0000000000
vt 0.9582920671 1.0000000000
vt 0.9582920671 0.0000000000
vt 1.0000000000 1.0000000000
vt 1.0000000000 0.0000000000
# 12 texture verticies
vn 0.11367 -0.03868 0.99276
vn 0.11367 -0.03868 0.99276
vn 0.49639 -0.16889 0.85151
vn 0.49639 -0.16889 0.85151
vn 0.34875 -0.11866 0.92967
vn 0.34875 -0.11866 0.92967
vn 0.78175 -0.26599 0.56402
vn 0.78175 -0.26599 0.56402
vn 0.93165 -0.31699 0.17762
vn 0.94667 -0.32210 0.00825
vn -0.32458 -0.94561 -0.02187
vn 0.31949 0.94734 -0.02187
vn -0.29515 -0.95472 -0.03737
vn 0.34837 0.93661 -0.03736
vn -0.11353 0.03863 -0.99278
vn -0.11353 0.03863 -0.99278
vn -0.39510 0.13443 -0.90875
vn -0.51436 0.17501 -0.83952
vn -0.51436 0.17501 -0.83952
vn -0.39510 0.13443 -0.90875
vn -0.78178 0.26600 -0.56398
vn -0.78178 0.26600 -0.56398
vn -0.93208 0.31714 -0.17505
vn -0.93208 0.31714 -0.17505
vn -0.94668 0.32211 -0.00606
vn 0.32211 0.94670 0.00000
vn -0.32211 -0.94670 -0.00000
vn 0.32211 0.94670 0.00000
vn -0.32211 -0.94670 -0.00000
vn -0.96234 0.26577 0.05710
vn -0.92550 0.37507 0.05261
vn -0.92449 0.37702 0.05627
vn -0.96066 0.27099 0.06079
vn -0.03159 -0.98001 0.19644
vn -0.31182 -0.94999 0.01693
vn 0.14188 -0.98373 0.11025
vn 0.31786 0.94760 0.03192
vn 0.60912 0.76473 0.21014
vn 0.65883 0.74039 0.13327
vn 0.30749 0.95129 0.02243
vn 0.32211 0.94670 0.00000
vn 0.00574 -0.00195 -0.99998
vn 0.25741 -0.08758 0.96233
vn 0.11353 -0.03863 0.99278
vn -0.94807 0.31800 -0.00655
vn -0.94668 0.32210 -0.00682
vn -0.94670 0.32211 0.00000
vn -0.94528 0.32626 -0.00035
vn 0.11353 -0.03863 0.99278
vn 0.25741 -0.08758 0.96233
vn 0.79696 -0.27116 0.53975
vn 0.79567 -0.25334 0.55021
vn 0.78073 -0.28258 0.55732
vn 0.77998 -0.26538 0.56675
# 54 normals
f  37/13/54 38/14/55 39/15/54 40/16/55
f  41/17/56 42/18/57 38/14/58 37/13/59
f  43/19/60 44/20/61 42/18/57 41/17/56
f  45/21/62 46/22/62 44/20/61 43/19/60
f  47/23/63 48/24/63 46/22/62 45/21/62
f  49/14/64 50/15/64 39/15/64 38/14/64
f  51/16/65 52/13/65 37/13/65 40/16/65
f  53/18/66 49/14/66 38/14/66 42/18/66
f  52/13/67 54/17/67 41/17/67 37/13/67
f  55/15/68 56/14/69 57/13/68 58/16/69
f  56/14/70 59/18/71 60/17/72 57/13/73
f  59/18/71 61/20/74 62/19/75 60/17/72
f  61/20/74 63/22/76 64/21/77 62/19/75
f  63/22/76 65/24/78 66/23/78 64/21/77
f  55/15/79 67/15/79 68/14/79 56/14/79
f  57/13/80 69/13/80 70/16/80 58/16/80
f  56/14/81 68/14/81 71/18/81 59/18/81
f  60/17/82 72/17/82 69/13/82 57/13/82
f  55/15/83 58/16/84 40/16/85 39/15/86
f  60/17/87 62/19/82 43/19/88 41/17/89
f  61/20/90 59/18/91 42/18/92 44/20/93
f  62/19/82 64/21/82 45/21/82 43/19/88
f  63/22/94 61/20/90 44/20/93 46/22/94
f  64/21/82 66/23/82 47/23/82 45/21/82
f  66/23/95 65/24/95 48/24/95 47/23/95
f  65/24/94 63/22/94 46/22/94 48/24/94
f  68/14/96 67/15/97 50/15/97 49/14/96
f  67/15/98 55/15/83 39/15/86 50/15/99
f  58/16/84 70/16/100 51/16/101 40/16/85
f  70/16/102 69/13/103 52/13/103 51/16/102
f  59/18/91 71/18/104 53/18/105 42/18/92
f  71/18/104 68/14/96 49/14/96 53/18/105
f  69/13/103 72/17/106 54/17/107 52/13/103
f  72/17/106 60/17/87 41/17/89 54/17/107
# object Line003
g Line003
v 230.70013 -125.94000 8.65154
v 231.10590 -124.74744 8.65154
v 230.85965 -124.66364 8.68300
v 230.45387 -125.85624 8.68300
v 230.70876 -125.94378 8.64782
v 231.11504 -124.74971 8.64782
v 230.71790 -125.94762 8.63929
v 231.12462 -124.75224 8.63929
v 230.72165 -125.94889 8.62840
v 231.12837 -124.75352 8.62840
v 230.72174 -125.94893 8.61525
v 231.12846 -124.75355 8.61525
v 231.10539 -124.74781 8.67554
v 230.85931 -124.66409 8.70694
v 230.45389 -125.85567 8.70694
v 230.69995 -125.93940 8.67554
v 231.11365 -124.75063 8.67154
v 230.70822 -125.94221 8.67154
v 230.85997 -124.66219 8.68165
v 231.10603 -124.74592 8.65025
v 230.69931 -125.94129 8.65025
v 230.45325 -125.85757 8.68165
v 231.11429 -124.74873 8.64624
v 230.70758 -125.94411 8.64624
v 231.12305 -124.75171 8.63816
v 230.71634 -125.94708 8.63816
v 231.12650 -124.75288 8.62805
v 230.71977 -125.94826 8.62805
v 231.12657 -124.75291 8.61524
v 230.71985 -125.94828 8.61524
v 230.85997 -124.66219 8.70694
v 231.10603 -124.74592 8.67554
v 230.69931 -125.94129 8.67554
v 230.45325 -125.85757 8.70694
v 231.11429 -124.74873 8.67154
v 230.70758 -125.94411 8.67154
# 36 verticies
vt 0.8520877361 1.0000000000
vt 0.8520877361 0.0000000000
vt 0.0000000000 0.0000000000
vt 0.0000000000 1.0000000000
vt 0.8833383322 1.0000000000
vt 0.8833383322 0.0000000000
vt 0.9233259559 1.0000000000
vt 0.9233259559 0.0000000000
vt 0.9582920671 1.0000000000
vt 0.9582920671 0.0000000000
vt 1.0000000000 1.0000000000
vt 1.0000000000 0.0000000000
# 12 texture verticies
vn 0.11367 -0.03868 0.99276
vn 0.11367 -0.03868 0.99276
vn 0.11367 -0.03868 0.99276
vn 0.11367 -0.03868 0.99276
vn 0.49639 -0.16889 0.85151
vn 0.49638 -0.16889 0.85151
vn 0.34875 -0.11866 0.92967
vn 0.34875 -0.11866 0.92967
vn 0.78175 -0.26599 0.56402
vn 0.78175 -0.26599 0.56402
vn 0.93165 -0.31699 0.17762
vn 0.94667 -0.32210 0.00825
vn -0.32458 -0.94561 -0.02187
vn 0.31949 0.94734 -0.02187
vn -0.29515 -0.95472 -0.03737
vn 0.34837 0.93661 -0.03736
vn -0.11353 0.03863 -0.99278
vn -0.39510 0.13443 -0.90875
vn -0.51436 0.17501 -0.83953
vn -0.51436 0.17501 -0.83952
vn -0.39510 0.13443 -0.90875
vn -0.78178 0.26600 -0.56398
vn -0.78178 0.26600 -0.56398
vn -0.93208 0.31714 -0.17505
vn -0.93208 0.31714 -0.17505
vn -0.94668 0.32211 -0.00606
vn -0.94668 0.32211 -0.00606
vn 0.32211 0.94670 0.00000
vn -0.32211 -0.94670 -0.00000
vn 0.32211 0.94670 0.00000
vn -0.32211 -0.94670 -0.00000
vn -0.96234 0.26578 0.05710
vn -0.92550 0.37507 0.05261
vn -0.92449 0.37702 0.05627
vn -0.96066 0.27099 0.06079
vn -0.03159 -0.98001 0.19644
vn -0.31182 -0.94999 0.01693
vn 0.14188 -0.98373 0.11025
vn 0.31786 0.94760 0.03192
vn 0.60912 0.76473 0.21014
vn 0.65883 0.74039 0.13327
vn 0.30749 0.95129 0.02243
vn 0.32211 0.94670 0.00000
vn 0.00574 -0.00195 -0.99998
vn 0.00574 -0.00195 -0.99998
vn 0.25741 -0.08758 0.96233
vn 0.11353 -0.03863 0.99278
vn -0.94807 0.31800 -0.00655
vn -0.94668 0.32210 -0.00682
vn -0.94670 0.32211 0.00000
vn -0.94528 0.32626 -0.00035
vn 0.11353 -0.03863 0.99278
vn 0.25741 -0.08758 0.96233
vn 0.79696 -0.27116 0.53975
vn 0.79567 -0.25334 0.55021
vn 0.78073 -0.28258 0.55732
vn 0.77998 -0.26538 0.56675
# 57 normals
f  73/25/108 74/26/109 75/27/110 76/28/111
f  77/29/112 78/30/113 74/26/114 73/25/115
f  79/31/116 80/32/117 78/30/113 77/29/112
f  81/33/118 82/34/118 80/32/117 79/31/116
f  83/35/119 84/36/119 82/34/118 81/33/118
f  85/26/120 86/27/120 75/27/120 74/26/120
f  87/28/121 88/25/121 73/25/121 76/28/121
f  89/30/122 85/26/122 74/26/122 78/30/122
f  88/25/123 90/29/123 77/29/123 73/25/123
f  91/27/124 92/26/124 93/25/124 94/28/124
f  92/26/125 95/30/126 96/29/127 93/25/128
f  95/30/126 97/32/129 98/31/130 96/29/127
f  97/32/129 99/34/131 100/33/132 98/31/130
f  99/34/131 101/36/133 102/35/134 100/33/132
f  91/27/135 103/27/135 104/26/135 92/26/135
f  93/25/136 105/25/136 106/28/136 94/28/136
f  92/26/137 104/26/137 107/30/137 95/30/137
f  96/29/138 108/29/138 105/25/138 93/25/138
f  91/27/139 94/28/140 76/28/141 75/27/142
f  96/29/143 98/31/138 79/31/144 77/29/145
f  97/32/146 95/30/147 78/30/148 80/32/149
f  98/31/138 100/33/138 81/33/138 79/31/144
f  99/34/150 97/32/146 80/32/149 82/34/150
f  100/33/138 102/35/138 83/35/138 81/33/138
f  102/35/151 101/36/152 84/36/151 83/35/152
f  101/36/150 99/34/150 82/34/150 84/36/150
f  104/26/153 103/27/154 86/27/154 85/26/153
f  103/27/155 91/27/139 75/27/142 86/27/156
f  94/28/140 106/28/157 87/28/158 76/28/141
f  106/28/159 105/25/160 88/25/160 87/28/159
f  95/30/147 107/30/161 89/30/162 78/30/148
f  107/30/161 104/26/153 85/26/153 89/30/162
f  105/25/160 108/29/163 90/29/164 88/25/160
f  108/29/163 96/29/143 77/29/145 90/29/164
# object Line004
g Line004
v 230.70013 -125.94000 11.96774
v 231.10590 -124.74744 11.96774
v 230.85965 -124.66364 11.99920
v 230.45387 -125.85624 11.99920
v 230.70876 -125.94378 11.96402
v 231.11504 -124.74971 11.96402
v 230.71790 -125.94762 11.95548
v 231.12462 -124.75224 11.95548
v 230.72165 -125.94889 11.94460
v 231.12837 -124.75352 11.94460
v 230.72174 -125.94893 11.93145
v 231.12846 -124.75355 11.93145
v 231.10539 -124.74781 11.99174
v 230.85931 -124.66409 12.02314
v 230.45389 -125.85567 12.02314
v 230.69995 -125.93940 11.99174
v 231.11365 -124.75063 11.98774
v 230.70822 -125.94221 11.98774
v 230.85997 -124.66219 11.99785
v 231.10603 -124.74592 11.96645
v 230.69931 -125.94129 11.96645
v 230.45325 -125.85757 11.99785
v 231.11429 -124.74873 11.96244
v 230.70758 -125.94411 11.96244
v 231.12305 -124.75171 11.95436
v 230.71634 -125.94708 11.95436
v 231.12650 -124.75288 11.94425
v 230.71977 -125.94826 11.94425
v 231.12657 -124.75291 11.93143
v 230.71985 -125.94828 11.93143
v 230.85997 -124.66219 12.02314
v 231.10603 -124.74592 11.99174
v 230.69931 -125.94129 11.99174
v 230.45325 -125.85757 12.02314
v 231.11429 -124.74873 11.98774
v 230.70758 -125.94411 11.98774
# 36 verticies
vt 0.8520877361 1.0000000000
vt 0.8520877361 0.0000000000
vt 0.0000000000 0.0000000000
vt 0.0000000000 1.0000000000
vt 0.8833383322 1.0000000000
vt 0.8833383322 0.0000000000
vt 0.9233259559 1.0000000000
vt 0.9233259559 0.0000000000
vt 0.9582920671 1.0000000000
vt 0.9582920671 0.0000000000
vt 1.0000000000 1.0000000000
vt 1.0000000000 0.0000000000
# 12 texture verticies
vn 0.11367 -0.03868 0.99276
vn 0.11367 -0.03868 0.99276
vn 0.11367 -0.03868 0.99276
vn 0.11367 -0.03868 0.99276
vn 0.49639 -0.16889 0.85151
vn 0.49638 -0.16889 0.85151
vn 0.34875 -0.11866 0.92967
vn 0.34875 -0.11866 0.92967
vn 0.78175 -0.26599 0.56402
vn 0.78175 -0.26599 0.56402
vn 0.93165 -0.31699 0.17762
vn 0.94667 -0.32210 0.00825
vn -0.32458 -0.94561 -0.02187
vn 0.31949 0.94734 -0.02187
vn -0.29515 -0.95472 -0.03737
vn 0.34837 0.93661 -0.03736
vn -0.11353 0.03863 -0.99278
vn -0.39510 0.13443 -0.90875
vn -0.51436 0.17501 -0.83953
vn -0.51436 0.17501 -0.83952
vn -0.39510 0.13443 -0.90875
vn -0.78178 0.26600 -0.56398
vn -0.78178 0.26600 -0.56398
vn -0.93208 0.31714 -0.17505
vn -0.93208 0.31714 -0.17505
vn -0.94668 0.32211 -0.00606
vn -0.94668 0.32211 -0.00606
vn 0.32211 0.94670 0.00000
vn -0.32211 -0.94670 -0.00000
vn 0.32211 0.94670 0.00000
vn -0.32211 -0.94670 -0.00000
vn -0.96234 0.26578 0.05710
vn -0.92550 0.37507 0.05261
vn -0.92449 0.37702 0.05627
vn -0.96066 0.27099 0.06079
vn -0.03159 -0.98001 0.19644
vn -0.31182 -0.94999 0.01693
vn 0.14188 -0.98373 0.11025
vn 0.31786 0.94760 0.03192
vn 0.60912 0.76473 0.21014
vn 0.65883 0.74039 0.13327
vn 0.30749 0.95129 0.02243
vn 0.32211 0.94670 0.00000
vn 0.00574 -0.00195 -0.99998
vn 0.00574 -0.00195 -0.99998
vn 0.25741 -0.08758 0.96233
vn 0.11353 -0.03863 0.99278
vn -0.94807 0.31800 -0.00655
vn -0.94668 0.32210 -0.00682
vn -0.94670 0.32211 0.00000
vn -0.94528 0.32626 -0.00035
vn 0.11353 -0.03863 0.99278
vn 0.25741 -0.08758 0.96233
vn 0.79696 -0.27116 0.53975
vn 0.79567 -0.25334 0.55021
vn 0.78073 -0.28258 0.55732
vn 0.77998 -0.26538 0.56675
# 57 normals
f  109/37/165 110/38/166 111/39/167 112/40/168
f  113/41/169 114/42/170 110/38/171 109/37/172
f  115/43/173 116/44/174 114/42/170 113/41/169
f  117/45/175 118/46/175 116/44/174 115/43/173
f  119/47/176 120/48/176 118/46/175 117/45/175
f  121/38/177 122/39/177 111/39/177 110/38/177
f  123/40/178 124/37/178 109/37/178 112/40/178
f  125/42/179 121/38/179 110/38/179 114/42/179
f  124/37/180 126/41/180 113/41/180 109/37/180
f  127/39/181 128/38/181 129/37/181 130/40/181
f  128/38/182 131/42/183 132/41/184 129/37/185
f  131/42/183 133/44/186 134/43/187 132/41/184
f  133/44/186 135/46/188 136/45/189 134/43/187
f  135/46/188 137/48/190 138/47/191 136/45/189
f  127/39/192 139/39/192 140/38/192 128/38/192
f  129/37/193 141/37/193 142/40/193 130/40/193
f  128/38/194 140/38/194 143/42/194 131/42/194
f  132/41/195 144/41/195 141/37/195 129/37/195
f  127/39/196 130/40/197 112/40/198 111/39/199
f  132/41/200 134/43/195 115/43/201 113/41/202
f  133/44/203 131/42/204 114/42/205 116/44/206
f  134/43/195 136/45/195 117/45/195 115/43/201
f  135/46/207 133/44/203 116/44/206 118/46/207
f  136/45/195 138/47/195 119/47/195 117/45/195
f  138/47/208 137/48/209 120/48/208 119/47/209
f  137/48/207 135/46/207 118/46/207 120/48/207
f  140/38/210 139/39/211 122/39/211 121/38/210
f  139/39/212 127/39/196 111/39/199 122/39/213
f  130/40/197 142/40/214 123/40/215 112/40/198
f  142/40/216 141/37/217 124/37/217 123/40/216
f  131/42/204 143/42/218 125/42/219 114/42/205
f  143/42/218 140/38/210 121/38/210 125/42/219
f  141/37/217 144/41/220 126/41/221 124/37/217
f  144/41/220 132/41/200 113/41/202 126/41/221
# object Line005
g Line005
v 232.05524 -121.95731 11.96774
v 232.45483 -120.78288 11.96774
v 232.20859 -120.69907 11.99920
v 231.80898 -121.87354 11.99920
v 232.06387 -121.96109 11.96402
v 232.46397 -120.78515 11.96402
v 232.07300 -121.96492 11.95548
v 232.47356 -120.78768 11.95548
v 232.07675 -121.96620 11.94460
v 232.47731 -120.78896 11.94460
v 232.07686 -121.96623 11.93145
v 232.47740 -120.78899 11.93145
v 232.45433 -120.78325 11.99174
v 232.20825 -120.69952 12.02314
v 231.80899 -121.87298 12.02314
v 232.05507 -121.95670 11.99174
v 232.46259 -120.78606 11.98774
v 232.06332 -121.95952 11.98774
v 232.20891 -120.69763 11.99785
v 232.45497 -120.78136 11.96645
v 232.05441 -121.95860 11.96645
v 231.80835 -121.87488 11.99785
v 232.46323 -120.78416 11.96244
v 232.06268 -121.96141 11.96244
v 232.47198 -120.78715 11.95436
v 232.07144 -121.96439 11.95436
v 232.47543 -120.78832 11.94425
v 232.07489 -121.96556 11.94425
v 232.47551 -120.78835 11.93143
v 232.07497 -121.96559 11.93143
v 232.20891 -120.69763 12.02314
v 232.45497 -120.78136 11.99174
v 232.05441 -121.95860 11.99174
v 231.80835 -121.87488 12.02314
v 232.46323 -120.78416 11.98774
v 232.06268 -121.96141 11.98774
# 36 verticies
vt 0.8520877361 1.0000000000
vt 0.8520877361 0.0000000000
vt 0.0000000000 0.0000000000
vt 0.0000000000 1.0000000000
vt 0.8833383322 1.0000000000
vt 0.8833383322 0.0000000000
vt 0.9233259559 1.0000000000
vt 0.9233259559 0.0000000000
vt 0.9582920671 1.0000000000
vt 0.9582920671 0.0000000000
vt 1.0000000000 1.0000000000
vt 1.0000000000 0.0000000000
# 12 texture verticies
vn 0.11367 -0.03868 0.99276
vn 0.11367 -0.03868 0.99276
vn 0.49639 -0.16889 0.85151
vn 0.49639 -0.16889 0.85151
vn 0.34875 -0.11866 0.92967
vn 0.34875 -0.11866 0.92967
vn 0.78175 -0.26599 0.56402
vn 0.78175 -0.26599 0.56402
vn 0.93165 -0.31699 0.17762
vn 0.94667 -0.32210 0.00825
vn -0.32458 -0.94561 -0.02187
vn 0.31949 0.94734 -0.02187
vn -0.29515 -0.95472 -0.03737
vn 0.34837 0.93661 -0.03736
vn -0.11353 0.03863 -0.99278
vn -0.11353 0.03863 -0.99278
vn -0.39510 0.13443 -0.90875
vn -0.51436 0.17501 -0.83952
vn -0.51436 0.17501 -0.83952
vn -0.39510 0.13443 -0.90875
vn -0.78178 0.26600 -0.56398
vn -0.78178 0.26600 -0.56398
vn -0.93208 0.31714 -0.17505
vn -0.93208 0.31714 -0.17505
vn -0.94668 0.32211 -0.00606
vn 0.32211 0.94670 0.00000
vn -0.32211 -0.94670 -0.00000
vn 0.32211 0.94670 0.00000
vn -0.32211 -0.94670 -0.00000
vn -0.96234 0.26577 0.05710
vn -0.92550 0.37507 0.05261
vn -0.92449 0.37702 0.05627
vn -0.96066 0.27099 0.06079
vn -0.03159 -0.98001 0.19644
vn -0.31182 -0.94999 0.01693
vn 0.14188 -0.98373 0.11025
vn 0.31786 0.94760 0.03192
vn 0.60912 0.76473 0.21014
vn 0.65883 0.74039 0.13327
vn 0.30749 0.95129 0.02243
vn 0.32211 0.94670 0.00000
vn 0.00574 -0.00195 -0.99998
vn 0.25741 -0.08758 0.96233
vn 0.11353 -0.03863 0.99278
vn -0.94807 0.31800 -0.00655
vn -0.94668 0.32210 -0.00682
vn -0.94670 0.32211 0.00000
vn -0.94528 0.32626 -0.00035
vn 0.11353 -0.03863 0.99278
vn 0.25741 -0.08758 0.96233
vn 0.79696 -0.27116 0.53975
vn 0.79567 -0.25334 0.55021
vn 0.78073 -0.28258 0.55732
vn 0.77998 -0.26538 0.56675
# 54 normals
f  145/49/222 146/50/223 147/51/222 148/52/223
f  149/53/224 150/54/225 146/50/226 145/49/227
f  151/55/228 152/56/229 150/54/225 149/53/224
f  153/57/230 154/58/230 152/56/229 151/55/228
f  155/59/231 156/60/231 154/58/230 153/57/230
f  157/50/232 158/51/232 147/51/232 146/50/232
f  159/52/233 160/49/233 145/49/233 148/52/233
f  161/54/234 157/50/234 146/50/234 150/54/234
f  160/49/235 162/53/235 149/53/235 145/49/235
f  163/51/236 164/50/237 165/49/236 166/52/237
f  164/50/238 167/54/239 168/53/240 165/49/241
f  167/54/239 169/56/242 170/55/243 168/53/240
f  169/56/242 171/58/244 172/57/245 170/55/243
f  171/58/244 173/60/246 174/59/246 172/57/245
f  163/51/247 175/51/247 176/50/247 164/50/247
f  165/49/248 177/49/248 178/52/248 166/52/248
f  164/50/249 176/50/249 179/54/249 167/54/249
f  168/53/250 180/53/250 177/49/250 165/49/250
f  163/51/251 166/52/252 148/52/253 147/51/254
f  168/53/255 170/55/250 151/55/256 149/53/257
f  169/56/258 167/54/259 150/54/260 152/56/261
f  170/55/250 172/57/250 153/57/250 151/55/256
f  171/58/262 169/56/258 152/56/261 154/58/262
f  172/57/250 174/59/250 155/59/250 153/57/250
f  174/59/263 173/60/263 156/60/263 155/59/263
f  173/60/262 171/58/262 154/58/262 156/60/262
f  176/50/264 175/51/265 158/51/265 157/50/264
f  175/51/266 163/51/251 147/51/254 158/51/267
f  166/52/252 178/52/268 159/52/269 148/52/253
f  178/52/270 177/49/271 160/49/271 159/52/270
f  167/54/259 179/54/272 161/54/273 150/54/260
f  179/54/272 176/50/264 157/50/264 161/54/273
f  177/49/271 180/53/274 162/53/275 160/49/271
f  180/53/274 168/53/255 149/53/257 162/53/275
# object Line008
g Line008
v 213.16241 -120.32597 14.57542
v 215.32657 -115.90163 18.58264
v 231.79224 -123.41969 18.58264
v 230.22758 -128.03654 14.57542
v 213.16241 -120.32597 14.48275
v 230.22758 -128.03656 14.48275
v 213.08444 -120.47276 14.48275
v 230.16777 -128.19162 14.48275
v 213.08444 -120.47276 14.55795
v 230.16777 -128.19162 14.55795
v 231.79033 -123.42386 18.75253
v 226.36699 -120.94730 18.75253
v 226.28310 -121.21209 18.52839
v 224.43805 -125.24125 14.95248
v 224.24716 -125.65817 14.58247
v 230.13249 -128.26901 14.58247
v 233.50685 -118.38289 14.67085
v 228.52486 -116.34000 14.67085
v 228.22028 -117.00908 15.18948
v 226.52026 -120.69599 18.52841
v 217.29506 -111.76935 14.56940
v 217.29506 -111.76935 14.64461
v 233.47247 -118.45831 14.64461
v 233.47247 -118.45831 14.56941
v 217.21710 -111.91613 14.56940
v 233.41266 -118.61337 14.56941
v 217.21710 -111.91613 14.66208
v 233.41266 -118.61337 14.66208
v 231.79224 -123.41969 18.69786
v 215.32657 -115.90163 18.69785
v 219.80287 -123.63242 14.58247
v 216.17120 -121.97707 14.58247
v 214.51645 -121.22281 14.58247
v 213.03612 -120.54510 14.58247
v 217.32944 -111.69394 14.67086
v 219.34312 -112.52961 14.67086
v 220.96750 -113.20308 14.67086
v 222.60507 -113.88309 14.67086
v 224.52020 -114.67809 14.67086
v 215.31168 -115.90062 18.75253
v 222.39899 -119.13840 18.75253
v 221.92281 -118.92133 18.75253
v 219.96561 -123.19553 17.63840
v 224.40630 -125.22900 17.63586
v 224.25386 -115.16930 15.12473
v 224.25386 -115.16930 15.14198
v 219.99734 -123.20778 14.95933
v 221.83818 -119.18771 18.52699
v 220.60294 -118.31741 18.75253
v 219.00575 -117.58929 18.75253
v 218.32297 -117.27803 18.75253
v 217.71324 -118.52793 17.63246
v 217.62651 -118.79891 17.40285
v 216.55493 -121.13902 15.17140
v 222.42749 -114.33298 15.12215
v 219.60719 -116.19424 17.57779
v 221.23492 -116.93731 17.58007
v 221.33003 -116.72962 17.40364
v 220.83151 -113.60216 15.03152
v 219.73309 -116.00089 17.40313
v 219.20360 -112.85670 15.02922
v 216.66824 -116.52370 18.75253
v 217.37654 -116.84659 18.75253
v 217.97928 -115.44879 17.57547
v 218.10420 -115.25757 17.40262
v 214.90154 -120.38191 15.16906
v 215.97154 -118.04520 17.40233
v 216.05983 -117.77081 17.63496
v 214.86978 -120.36967 17.10675
v 216.52318 -121.12679 17.10422
v 222.55222 -118.88535 18.52715
v 223.06129 -117.77363 17.58268
v 224.20792 -115.23544 17.04292
v 222.38155 -114.39911 17.04197
v 220.75381 -113.65604 17.03987
v 219.12590 -112.91059 17.03757
v 223.01962 -117.75756 18.21100
v 228.17860 -116.99301 17.11506
v 224.21219 -115.15323 17.11436
v 228.55405 -116.85501 17.11506
v 226.62027 -121.06483 18.75253
v 226.78346 -120.81735 18.52841
v 228.59572 -116.87109 16.89067
v 224.07361 -114.77800 17.11436
v 224.11533 -114.79405 16.88942
v 223.06129 -117.77364 17.98401
v 224.25386 -115.16930 16.88942
v 223.15825 -117.56190 17.40421
v 219.59067 -123.33491 17.63840
v 221.67856 -118.80948 18.75253
v 221.59393 -119.07587 18.52699
v 219.62241 -123.34715 17.41114
v 224.54567 -125.60394 17.63586
v 224.57741 -125.61619 17.41254
v 224.43805 -125.24125 17.41254
v 216.66234 -121.50179 17.10421
v 214.49483 -120.50897 17.10675
v 214.52661 -120.52129 16.87253
v 216.69423 -121.51398 16.87305
v 216.55493 -121.13902 16.87305
v 215.81821 -117.66017 17.63496
v 215.72992 -117.93456 17.40233
v 224.20792 -115.23544 16.86676
v 224.20792 -115.23544 16.86676
v 222.24216 -114.02419 17.04197
v 224.32901 -114.97100 17.04292
v 224.32901 -114.97100 16.86676
v 222.24210 -114.02421 16.86618
v 222.38155 -114.39911 16.86618
v 221.12881 -113.51683 17.03987
v 219.88097 -116.31960 17.57780
v 220.00687 -116.12625 17.40313
v 221.16049 -113.52888 16.86568
v 218.98665 -112.53561 17.03757
v 219.01820 -112.54793 16.86517
v 219.15765 -112.92284 16.86517
v 228.22028 -117.00908 16.89067
v 222.76637 -117.64159 18.21100
v 222.80804 -117.65766 17.98401
v 222.80803 -117.65766 17.98401
v 222.23895 -118.84783 18.54921
v 222.21779 -119.05626 18.71750
v 219.99734 -123.20778 17.41114
v 226.54663 -121.33276 18.52839
v 226.63052 -121.06798 18.75253
v 217.99904 -118.66386 17.40281
v 217.97115 -118.64162 17.63246
v 214.90154 -120.38191 16.87253
v 221.08543 -116.61761 17.40364
v 220.99033 -116.82530 17.58007
v 220.78557 -113.66829 16.86568
v 217.85336 -115.14270 17.40262
v 217.72844 -115.33392 17.57547
v 220.37953 -113.60571 15.07161
v 219.49622 -113.20117 15.06983
v 219.45026 -113.26730 16.66522
v 220.33359 -113.67184 16.66562
v 223.77940 -115.16257 15.16482
v 222.74258 -114.68774 15.16276
v 222.69664 -114.75387 16.66624
v 223.73346 -115.22870 16.66671
v 227.23657 -116.76384 15.18769
v 225.07649 -115.76179 15.18259
v 225.07649 -115.76178 16.68948
v 227.23657 -116.76384 16.69062
v 215.28870 -120.34867 15.36878
v 216.32712 -120.82424 15.36680
v 216.32712 -120.82424 16.67299
v 215.28870 -120.34867 16.67259
v 221.23560 -123.56417 14.99940
v 223.35916 -124.53683 14.99312
v 223.35916 -124.53683 17.21249
v 221.23560 -123.56417 17.21120
v 219.57588 -113.02716 15.06983
v 220.45921 -113.43170 15.07161
v 219.52994 -113.09329 16.66522
v 220.41327 -113.49783 16.66562
v 222.82227 -114.51372 15.16276
v 223.85907 -114.98856 15.16482
v 222.77632 -114.57985 16.66624
v 223.81313 -115.05469 16.66671
v 225.15703 -115.58816 15.18259
v 227.31711 -116.59022 15.18769
v 225.15701 -115.58816 16.68948
v 227.31711 -116.59021 16.69062
v 216.24745 -120.99825 15.36680
v 215.20903 -120.52268 15.36878
v 216.24745 -120.99825 16.67299
v 215.20903 -120.52268 16.67259
v 223.27948 -124.71085 14.99312
v 221.15593 -123.73819 14.99940
v 223.27948 -124.71084 17.21249
v 221.15593 -123.73819 17.21120
# 173 verticies
vt 4.8071432114 7.7491788864
vt -0.0995893478 7.3220624924
vt 0.9897763729 -10.7459325790
vt 5.8603906631 -10.9474439621
vt -6.7491788864 2.7577314377
vt -6.7491788864 2.6650583744
vt 11.9474439621 2.6650595665
vt 11.9474439621 2.7577328682
vt 4.9721465111 7.7690973282
vt 6.0265917778 -10.9474439621
vt 7.7690973282 2.6825287342
vt 7.7690973282 2.7577314377
vt -10.9474439621 2.7577328682
vt -10.9474439621 2.6825299263
vt 3.5718693733 0.2288175821
vt 1.5872762203 0.2249815464
vt 1.5982344151 0.3434436321
vt 1.5922875404 2.2414965630
vt 1.5916800499 2.4378957748
vt 3.7355372906 2.4240503311
vt 1.1923673153 -1.5710358620
vt -0.6013522148 -1.5388946533
vt -0.6056520939 -1.2392418385
vt -0.6303598881 0.5115866065
vt -0.6436321735 0.6341902018
vt 1.3405778408 0.6605604291
vt -5.9724187851 2.6710743904
vt -5.9724187851 2.5958714485
vt 11.5282831192 2.5958724022
vt 11.5282831192 2.6710753441
vt -4.4984035492 6.9923372269
vt -4.6634073257 6.9724187851
vt -4.2438850403 -10.5282831192
vt -4.0776834488 -10.5282831192
vt 6.9923372269 2.5784010887
vt 6.9923372269 2.6710743904
vt -10.5282831192 2.6710755825
vt -10.5282831192 2.5784022808
vt 5.8603906631 2.6650595665
vt 0.9897763729 -1.3421559334
vt 0.9897763729 -1.4573750496
vt 6.0265913010 2.6825299263
vt 6.0265917778 2.7577328682
vt 5.8603906631 2.7577328682
vt 5.6634073257 2.5958714485
vt 5.6634073257 2.6710743904
vt 5.4984035492 2.6710743904
vt 5.4984035492 2.5784010887
vt 1.0995893478 -1.3421571255
vt 1.0995893478 -1.4573762417
vt -4.0776834488 2.6710755825
vt -4.2438850403 2.6710753441
vt -4.2438850403 2.5958724022
vt -4.0776834488 2.5784022808
vt -3.8071432114 2.7577314377
vt -3.9721465111 2.7577314377
vt -3.9721455574 2.6825287342
vt -3.8071432114 2.6650583744
vt 4.9721455574 7.7690973282
vt 6.0265913010 -10.9474439621
vt 6.1114959717 -10.9423799515
vt 5.7933549881 -4.5117959976
vt 5.5025587082 0.3637323380
vt 5.2649321556 4.3477993011
vt 5.1566586494 6.1631231308
vt 5.0570421219 7.7881536484
vt 0.9943435192 -1.5120472908
vt 6.1114959717 2.6580157280
vt -4.3266229630 2.5696291924
vt -4.7461376190 6.9674749374
vt -4.6910572052 4.7879810333
vt -4.6472282410 3.0300769806
vt -4.6020336151 1.2574977875
vt -4.5494461060 -0.8154277802
vt -4.4399108887 -5.1498384476
vt -4.3266229630 -10.5332250595
vt 1.0951707363 -1.5120534897
vt 5.7461376190 2.5696213245
vt -4.0570421219 2.6580085754
vt 0.8229112625 0.5648629069
vt 0.6484820843 0.5627349019
vt 0.6649520397 -1.0041823387
vt 2.2929093838 -0.9870786667
vt 2.2764251232 0.5825937390
vt -2.0456585884 -1.5178666115
vt -2.0611519814 -1.2785520554
vt -2.0609486103 -1.2750616074
vt -1.3627350330 2.4337730408
vt -0.0341653824 2.4356269836
vt -0.0335321426 2.2355871201
vt -0.0276095867 0.3418601751
vt -0.0385658741 0.2226500511
vt -0.5217063427 0.2214342356
vt -1.1060140133 0.2205964327
vt -1.3558022976 0.2202380896
vt -1.3690016270 0.8152974844
vt -1.3580524921 0.9366682768
vt -1.3594686985 2.0716986656
vt -2.7363975048 -1.5078630447
vt -2.7296736240 -1.2885158062
vt -3.3389294147 -0.0408703685
vt -3.3364112377 0.5992466211
vt -2.7522132397 0.6067110300
vt -2.7433998585 -0.0325506330
vt -2.7420752048 -0.1287500262
vt -3.3270561695 -1.4993689060
vt -3.3149087429 -1.3150994778
vt -3.3262817860 -0.1364955306
vt -3.9128193855 -1.4906830788
vt -3.9107890129 -1.3239810467
vt -4.6390676498 -1.4801094532
vt -4.6881642342 0.5808513761
vt -4.1913957596 0.5883222818
vt -3.9323234558 0.5916324854
vt -3.9348096848 -0.0497574806
vt -3.9221768379 -0.1443959475
vt -2.4580318928 0.2175643444
vt -2.5100142956 2.4314789772
vt -1.9680917263 2.4329285622
vt -1.9647424221 2.0705323219
vt -1.9633958340 0.9360849857
vt -1.9743402004 0.8131073117
vt -1.9611580372 0.2193700075
vt -1.7020375729 0.2197417021
vt -1.2730715275 -0.8753004074
vt -0.6669371128 -0.8689320087
vt -0.6769468784 0.0838029385
vt -1.2830812931 0.0774346888
vt -2.2691695690 0.6134204865
vt -2.0949983597 0.6156457663
vt -2.0819709301 0.4923706353
vt -2.0748772621 -0.0225802660
vt -3.5861530304 0.5960555673
vt 0.1593778133 1.0634551048
vt 0.8289215565 1.0704894066
vt 0.8144223690 1.9987664223
vt 0.1448786259 1.9917321205
vt -1.0338132381 1.0502243042
vt -0.4370229244 1.0564939976
vt -0.4515216351 1.9847710133
vt -1.0483129025 1.9785017967
vt 0.8140738010 1.0694212914
vt 2.2614614964 2.0323581696
vt 0.8040423393 2.0241668224
vt -3.9699096680 0.1254180670
vt 0.6537632942 -1.5120494366
vt 0.3641383648 -1.2879238129
vt -3.9699106216 0.3498069048
vt 1.4346961975 0.1261199713
vt 6.3624014854 0.1254180670
vt 6.4070611000 0.3498069048
vt 1.4793958664 0.3510609865
vt 2.1362874508 -0.3422012329
vt 2.1362874508 -0.7435307503
vt 4.9952993393 0.3510609865
vt 4.9952983856 2.0984990597
vt 2.3687183857 -0.1637312174
vt 0.9158461094 -1.2866723537
vt -4.3013381958 -0.3979141712
vt 0.6722562313 -1.5120513439
vt 0.3932652473 -1.2865121365
vt -4.3013291359 -0.1706613302
vt -4.7707972527 -0.3953800201
vt 0.6687841415 -0.3979141712
vt 0.6347618103 -0.1706613302
vt -4.8048176765 -0.1720627546
vt 5.3356695175 2.2879993916
vt 0.9124860764 -1.2879135609
vt 5.3356695175 -0.1720627546
vt 4.0605831146 0.1362667084
vt 6.4401693344 0.1337329149
vt 6.4060811996 0.3679493666
vt 4.0264406204 0.3674285412
vt 4.3449482918 2.0690760612
vt 1.7759885788 -0.1623749733
vt 4.3449487686 0.3674274683
vt -3.4984169006 0.1337329149
vt -0.3642401695 -0.3944826126
vt -0.6520173550 -0.1618537903
vt -3.4984822273 0.3679493666
vt -3.9170608521 0.1975599527
vt -1.1362874508 -0.3422012329
vt -1.3687183857 -0.1637312174
vt -3.9170608521 0.3737186193
vt 4.9170608521 0.3737154007
vt 4.9170608521 0.1975599527
vt 4.9170608521 0.3737186193
vt 4.9952983856 2.1157548428
vt -0.5453262329 0.1985117197
vt 1.7424297333 0.1975599527
vt 1.7424297333 0.3737154007
vt -0.5453720093 0.3742947578
vt 5.1183881760 2.1183314323
vt 2.4873735905 -0.1631548405
vt 5.0401506424 0.3742946386
vt -4.4125375748 0.2006098032
vt -1.3484899998 -0.3373157978
vt -1.5741951466 -0.1626532078
vt -4.4126939774 0.3748003244
vt -4.1184091568 0.2029124498
vt -1.7666645050 0.2006098032
vt -1.7327737808 0.3748003244
vt -4.0845346451 0.3753124475
vt 5.3356676102 2.2112584114
vt 2.7000248432 -0.1621372700
vt 5.2574310303 0.3753125668
vt 0.3456189632 -1.2879238129
vt -3.7060556412 2.0510001183
vt -3.7060575485 0.3498069048
vt 2.1533563137 -0.9705243111
vt 5.2955226898 0.1261199713
vt 5.2955598831 0.3510609865
vt 2.1533563137 -0.7435307503
vt 2.1533563137 -0.9705233574
vt 2.1533563137 -0.7435297966
vt 0.8381302357 -1.3087294102
vt 0.6360545158 -1.4770188332
vt 0.3768053055 -1.2865118980
vt -4.0363817215 2.2811489105
vt -4.0363821983 -0.1706614494
vt 5.6353344917 -0.3953800201
vt 5.6353425980 -0.1720627546
vt 0.9302489758 -1.2879137993
vt 0.6530067921 -1.5120496750
vt 4.6447620392 0.1362667084
vt 4.6446619034 0.3674285412
vt 1.5159306526 -0.1623337269
vt 1.5052213669 -0.3919785023
vt -0.6683022976 -0.1618531942
vt -3.2335157394 2.0714192390
vt -3.2335162163 0.3679492474
vt -3.9952983856 2.0984990597
vt 5.3398065567 0.1985117197
vt 5.3397645950 0.3742947578
vt 2.5038588047 -0.1631551981
vt 2.2758634090 -0.3395926952
vt -1.5926463604 -0.1626509428
vt -4.2259492874 2.2089619637
vt -4.1477146149 0.3747986555
vt 5.5571832657 0.2029124498
vt 5.5570449829 0.3753124475
vt 2.7169296741 -0.1621377468
vt 2.4935624599 -0.3349893093
vt -0.0000000437 -1.0000000000
vt 0.9999999404 -1.0000000000
vt 1.0000000000 -0.0000000437
vt 0.0000000000 0.0000000000
vt 0.6352436543 -4.7944359779
vt 0.3456189632 -4.8470096588
vt 0.3641383648 -5.1362547874
vt 0.6537632942 -5.0730514526
vt -3.7060575485 -5.1064252853
vt -3.9699106216 -5.4070611000
vt -3.9952993393 -0.7436761856
vt -4.2955598831 -0.4793958664
vt -1.1362874508 -0.5681562424
vt -1.1533563137 -0.2901315689
vt -0.5681562424 -0.7435307503
vt -0.5234966278 -0.9705243111
vt -0.2454719543 -0.9705243111
vt -0.2901315689 -0.7435307503
vt 0.7089812756 2.1176607609
vt 0.7212295532 1.0684459209
vt 2.3551037312 2.1272735596
vt 2.3695006371 0.5831009150
vt 0.3442037106 0.0810766220
vt 0.6231946945 0.0641736984
vt 0.6067347527 0.3323011398
vt 0.3277437687 0.3492040634
vt 5.0363821983 0.3350906372
vt 5.3013291359 0.6347618103
vt 5.3356695175 -4.5398721695
vt 5.6353425980 -4.8048176765
vt 0.9124860764 -4.8114442825
vt 0.9302489758 -5.1007547379
vt 0.6530067921 -5.0837464333
vt 2.3881678581 -1.0803718567
vt 2.3730382919 0.5836082697
vt 0.5716593266 -1.0994412899
vt 0.5589430332 0.5617938638
vt 1.3805248737 5.9653043747
vt 1.6683022976 5.9489412308
vt 1.6520173550 6.2142019272
vt 1.3642401695 6.2305631638
vt 4.2335162163 6.1064252853
vt 4.4984822273 6.4060811996
vt 4.3449487686 4.2913408279
vt 4.6446619034 4.0264406204
vt 1.7759885788 4.1336240768
vt 1.5159306526 3.8346424103
vt -3.1336240768 -0.1623749733
vt -3.1502161026 -0.3919789791
vt -2.8686723709 -0.3919785023
vt -2.8346424103 -0.1623337269
vt -0.5717308521 -0.9622783661
vt -0.5830233097 0.0861277878
vt -1.3663818836 -0.9705420732
vt -1.3716628551 0.0765040219
vt 0.8134038448 2.0957081318
vt 0.0496165752 2.0850219727
vt -3.9170608521 0.3737154007
vt -4.2073545456 0.3737154007
vt -4.2073545456 0.1975599527
vt -3.9170608521 -0.7246074677
vt -4.0401506424 1.2803602219
vt -4.3397645950 1.5453720093
vt -4.2073545456 -0.7424297333
vt -1.4873735905 1.4228153229
vt -1.5038588047 1.6913356781
vt -1.2593781948 1.4368124008
vt -1.2758634090 1.7053327560
vt 0.0697076321 1.0625131130
vt -1.3669416904 3.2228994370
vt -1.5926463604 3.1750116348
vt -1.5741951466 2.8744649887
vt -1.3484899998 2.9223527908
vt -4.1477146149 3.0324172974
vt -4.4126939774 2.7327737808
vt -4.2574310303 4.8195228577
vt -4.5570449829 5.0845346451
vt -1.7000248432 4.9622621536
vt -1.7169296741 5.2376279831
vt -1.4766571522 5.0100049973
vt -1.4935624599 5.2853727341
vt -1.1435406208 2.0718262196
vt -1.1257703304 1.0492579937
vt -0.3581869602 2.0799887180
vt -0.3366572857 1.0575485229
vt -2.0133457184 2.2089619637
vt -3.8004503250 2.2112584114
vt -3.3917655945 2.1706485748
vt -2.4220399857 2.1688652039
vt -3.8195228577 0.3753125668
vt -3.4108381271 0.5752551556
vt -2.0324172974 0.3747986555
vt -2.4411125183 0.5748561621
vt 1.7436771393 2.1157548428
vt -0.2612886429 2.1183314323
vt 0.1720733643 2.0777215958
vt 1.3102979660 2.0756583214
vt -0.2803602219 0.3742946386
vt 0.1530046463 0.5742369890
vt 1.7246074677 0.3737154007
vt 1.2912282944 0.5737731457
vt 6.1064257622 2.0510001183
vt 1.7436771393 2.0984990597
vt 2.7370634079 2.0578892231
vt 5.1130313873 2.0527944565
vt 1.7436761856 0.3510609865
vt 2.7370624542 0.5510035753
vt 6.1064252853 0.3498069048
vt 5.1130318642 0.5498642921
vt 6.1064252853 2.0714192390
vt 4.2913398743 2.0690760612
vt 4.6288805008 1.8736832142
vt 5.7688760757 1.8716989756
vt 4.2913408279 0.3674274683
vt 4.6288814545 0.5674849749
vt 6.1064252853 0.3679492474
vt 5.7688760757 0.5678919554
vt 0.3350915909 2.2811489105
vt -4.5398731232 2.2879993916
vt -3.2680492401 2.2473654747
vt -0.9367389679 2.2410762310
vt -4.5398721695 -0.1720627546
vt -3.2680487633 0.0279945135
vt 0.3350906372 -0.1706614494
vt -0.9367399216 0.0292813778
vt 5.2510175705 3.4220399857
vt 5.3106012344 4.3917655945
vt 5.1195707321 4.4034891129
vt 5.0599870682 3.4337635040
vt -4.3106012344 2.1706485748
vt -4.2323646545 0.5752551556
vt -4.0413351059 0.5752551556
vt -4.1195707321 2.1706488132
vt -4.2323646545 4.4108381271
vt -4.1727809906 3.4411125183
vt -3.9817504883 3.4528331757
vt -4.0413351059 4.4225597382
vt 5.1727809906 0.5748561621
vt 5.2510175705 2.1688652039
vt 5.0599870682 2.1688652039
vt 4.9817504883 0.5748561621
vt 5.0218782425 -0.3102979660
vt 5.0918111801 0.8279266357
vt 4.9007825851 0.8396444321
vt 4.8308486938 -0.2985782623
vt -4.0918111801 2.0777215958
vt -4.0135746002 0.5742369890
vt -3.8225450516 0.5742369890
vt -3.9007825851 2.0777218342
vt -4.0135746002 0.8469953537
vt -3.9436416626 -0.2912282944
vt -3.7526111603 -0.2795076370
vt -3.8225450516 0.8587160110
vt 4.9436416626 0.5737731457
vt 5.0218782425 2.0756583214
vt 4.8308486938 2.0756583214
vt 4.7526111603 0.5737731457
vt 4.7718610764 -4.1130313873
vt 4.9294958115 -1.7370634079
vt 4.7385244370 -1.7244071960
vt 4.5808935165 -4.1003751755
vt -3.9294958115 2.0578892231
vt -3.9294958115 0.5510035753
vt -3.7385253906 0.5510035753
vt -3.7385244370 2.0578892231
vt -3.9294958115 -1.7370624542
vt -3.7718620300 -4.1130318642
vt -3.5808935165 -4.1003761292
vt -3.7385253906 -1.7244071960
vt 4.7718620300 0.5498642921
vt 4.7718610764 2.0527944565
vt 4.5808935165 2.0527944565
vt 4.5808935165 0.5498644114
vt -3.2542123795 5.7688760757
vt -3.3242526054 4.6288805008
vt -3.1332230568 4.6171598434
vt -3.0631828308 5.7571535110
vt -3.3242526054 1.8736832142
vt -3.3242530823 0.5674849749
vt -3.1332235336 0.5674848557
vt -3.1332230568 1.8736832142
vt 4.3242530823 4.6288814545
vt 4.2542123795 5.7688760757
vt 4.0631833076 5.7571535110
vt 4.1332235336 4.6171607971
vt 4.2542123795 0.5678919554
vt 4.2542123795 1.8716989756
vt 4.0631828308 1.8716988564
vt 4.0631833076 0.5678918362
vt -4.1143536568 -0.9367389679
vt -4.2576990128 -3.2680492401
vt -4.0666694641 -3.2797675133
vt -3.9233241081 -0.9484586716
vt -4.2576990128 2.2473654747
vt -4.2576990128 0.0279945135
vt -4.0666694641 0.0279945135
vt -4.0666694641 2.2473654747
vt 5.2576990128 -3.2680487633
vt 5.1143541336 -0.9367399216
vt 4.9233241081 -0.9484586716
vt 5.0666694641 -3.2797670364
vt 5.1143541336 0.0292813778
vt 5.1143536568 2.2410762310
vt 4.9233241081 2.2410762310
vt 4.9233241081 0.0292812586
vt 0.7212300301 1.0684459209
vt 0.7566039562 0.5639162660
vt 1.5234966278 -0.9705243111
vt 1.5681562424 -0.7435307503
vt 1.2901306152 -0.7435297966
vt 1.2454729080 -0.9705233574
vt 0.0841538906 -0.4932289124
vt 0.1618697643 -0.1874494553
vt -1.1533563137 -0.2901306152
vt 0.3753874302 -0.4413194656
vt 0.3639454842 -0.2427062988
# 459 texture verticies
vn 0.26220 0.57732 -0.77327
vn 0.41175 0.91130 0.00000
vn 0.00000 -0.00000 -1.00000
vn -0.41176 -0.91129 0.00001
vn -0.25880 -0.57505 0.77610
vn 0.24242 0.56818 0.78639
vn 0.38210 0.92412 0.00000
vn 0.00000 -0.00000 -1.00000
vn -0.38214 -0.92410 -0.00000
vn -0.25463 -0.58504 -0.76999
vn 0.93847 -0.34421 0.02815
vn -0.89076 0.45353 0.02939
vn 0.93884 -0.34301 -0.03028
vn -0.88915 0.45705 -0.02282
vn -0.09105 -0.20153 -0.97524
vn 0.92844 -0.36694 0.05794
vn 0.93080 -0.36128 -0.05556
vn 0.12616 0.30513 -0.94392
vn -0.93261 0.34612 -0.10220
vn -0.82075 0.54799 -0.16151
vn -0.09563 -0.20991 0.97303
vn 0.23947 0.55924 0.79366
vn -0.26969 -0.56716 0.77820
vn 0.26194 0.60197 0.75433
vn 0.25527 0.59226 0.76424
vn 0.27139 0.62324 0.73343
vn 0.23497 0.61268 0.75459
vn -0.23717 -0.58171 0.77805
vn -0.26024 -0.57087 0.77871
vn -0.26046 -0.57141 0.77824
vn -0.22365 -0.48822 0.84358
vn -0.07442 -0.16579 0.98335
vn 0.25349 0.55590 0.79165
vn 0.25378 0.55668 0.79102
vn 0.07830 0.17309 0.98179
vn 0.07780 0.17294 0.98186
vn 0.14917 0.31816 0.93623
vn 0.91366 -0.31793 0.25328
vn 0.42054 0.90718 0.01319
vn -0.90921 0.41634 -0.00000
vn -0.90921 0.41634 0.00000
vn -0.87670 0.44859 -0.17366
vn -0.41633 -0.90916 -0.00926
vn 0.90921 -0.41635 0.00000
vn -0.41639 -0.90914 -0.00907
vn 0.90921 -0.41634 0.00000
vn -0.88179 0.44195 -0.16469
vn 0.91174 -0.41074 0.00404
vn -0.82126 0.57055 -0.00000
vn 0.41316 0.91066 -0.00013
vn -0.91221 0.40963 -0.00850
vn 0.90643 -0.35868 0.22302
vn 0.41635 0.90912 0.01204
vn -0.91217 0.40972 -0.00807
vn 0.90811 -0.41873 0.00000
vn -0.91833 0.34502 -0.19396
vn -0.90885 0.41327 0.05665
vn -0.90921 0.41634 0.00000
vn 0.87708 -0.44742 0.17478
vn 0.88866 -0.43411 0.14774
vn -0.90921 0.41634 -0.00000
vn 0.91223 -0.40960 0.00860
vn -0.91361 0.40654 -0.00685
vn 0.91218 -0.40971 0.00808
vn -0.90512 0.36229 -0.22249
vn 0.41582 0.90809 0.04964
vn 0.41575 0.90795 0.05267
vn 0.42082 0.90714 -0.00000
vn -0.41638 -0.90919 -0.00000
vn -0.41643 -0.90917 0.00000
vn -0.25518 -0.55170 -0.79405
vn 0.01037 -0.39834 -0.91718
vn 0.00024 -0.00011 -1.00000
vn -0.29542 -0.23562 -0.92586
vn -0.41631 -0.90914 -0.01206
vn 0.29587 0.23602 0.92561
vn -0.00014 0.00006 1.00000
vn -0.01227 0.37712 0.92608
vn 0.26263 0.57354 -0.77594
vn -0.01178 0.26494 -0.96419
vn 0.00025 -0.00011 -1.00000
vn 0.20370 0.16559 -0.96493
vn 0.26265 0.57357 -0.77591
vn -0.19291 -0.15682 0.96860
vn 0.00045 -0.00020 1.00000
vn 0.01113 -0.25027 0.96811
vn 0.26258 0.57344 -0.77603
vn -0.01001 0.21480 -0.97661
vn 0.00023 -0.00010 -1.00000
vn 0.07739 0.16528 -0.98321
vn -0.02864 0.84417 -0.53530
vn -0.14950 -0.12147 0.98127
vn 0.00109 -0.00050 1.00000
vn 0.00904 -0.19439 0.98088
vn -0.00049 -0.00001 1.00000
vn 0.90921 -0.41634 0.00000
vn 0.00030 0.00001 -1.00000
vn -0.17215 -0.13578 -0.97567
vn -0.25451 -0.55579 -0.79141
vn 0.15945 0.12574 0.97917
vn -0.25303 -0.55259 -0.79411
vn 0.00465 -0.21502 -0.97660
vn 0.00022 -0.00011 -1.00000
vn -0.17067 -0.13600 -0.97590
vn -0.25302 -0.55255 -0.79415
vn 0.15832 0.12608 0.97931
vn -0.00101 0.00046 1.00000
vn -0.00425 0.19930 0.97993
vn 0.41636 0.90920 -0.00002
vn 0.42400 0.90448 0.04622
vn 0.41636 0.90920 -0.00000
vn 0.40764 0.91198 0.04611
vn 0.41636 0.90920 -0.00002
vn 0.42392 0.90438 0.04883
vn 0.41636 0.90920 0.00001
vn 0.40761 0.91185 0.04873
vn 0.42079 0.90716 -0.00005
vn 0.42073 0.90719 -0.00000
vn 0.42079 0.90716 0.00000
vn 0.42073 0.90719 -0.00000
vn -0.41636 -0.90920 -0.00000
vn -0.41627 -0.90924 -0.00000
vn -0.41636 -0.90920 0.00000
vn -0.41627 -0.90924 -0.00000
vn -0.41637 -0.90920 -0.00001
vn -0.41626 -0.90924 0.00000
vn -0.41637 -0.90920 0.00000
vn -0.41626 -0.90924 0.00000
vn -0.00167 0.00076 1.00000
vn 0.90918 -0.41630 0.00893
vn 0.00037 -0.00017 -1.00000
vn -0.90918 0.41630 -0.00894
vn -0.00165 0.00075 1.00000
vn 0.90919 -0.41628 0.00947
vn 0.00037 -0.00017 -1.00000
vn -0.90918 0.41629 -0.00948
vn -0.00194 0.00090 1.00000
vn 0.90718 -0.42075 0.00000
vn 0.00043 -0.00020 -1.00000
vn -0.90717 0.42076 0.00000
vn 0.00158 -0.00072 1.00000
vn -0.90922 0.41631 -0.00000
vn 0.00032 -0.00015 -1.00000
vn 0.90922 -0.41632 0.00000
vn 0.00245 -0.00112 1.00000
vn -0.90923 0.41630 -0.00000
vn 0.00050 -0.00023 -1.00000
vn 0.90923 -0.41630 -0.00000
vn 0.07156 0.32376 0.94343
vn 0.41631 0.90914 0.01205
vn -0.13770 -0.37659 -0.91609
vn -0.12845 -0.61509 -0.77793
# 152 normals
usemtl Roof_wooden_RED
f  181/61/276 182/62/276 183/63/276 184/64/276
f  185/65/277 181/66/277 184/67/277 186/68/277
f  187/69/278 185/61/278 186/64/278 188/70/278
f  189/71/279 187/72/279 188/73/279 190/74/279
usemtl Roof
f  191/75/280 192/76/280 193/77/280 194/78/280 195/79/280 196/80/280
f  197/81/281 198/82/281 199/83/281 200/84/281 192/85/281 191/86/281
usemtl Roof_wooden_RED
f  201/87/282 202/88/282 203/89/282 204/90/282
f  205/91/283 201/92/283 204/93/283 206/94/283
f  207/95/284 205/96/284 206/97/284 208/98/284
f  182/62/285 207/91/285 208/94/285 183/63/285
f  184/99/286 183/100/286 209/101/286 190/102/286 188/103/286 186/104/286
f  202/105/287 201/106/287 205/107/287 207/108/287 182/109/287 210/110/287
f  206/111/288 204/112/288 203/113/288 209/101/288 183/100/288 208/114/288
f  185/115/289 187/116/289 189/117/289 210/110/289 182/109/289 181/118/289
f  189/119/290 190/120/290 196/121/290 195/122/290 211/123/290 212/124/290 213/125/290 214/126/290
f  190/102/291 209/101/291 191/127/291 196/128/291
f  209/101/292 203/113/292 197/129/292 191/127/292
f  203/93/293 202/92/293 215/130/293 216/131/293 217/132/293 218/133/293 219/134/293 198/135/293 197/136/293
f  202/105/294 210/110/294 220/137/294 215/138/294
f  210/110/295 189/117/295 214/139/295 220/137/295
usemtl Roof
f  221/140/296 222/141/296 223/142/296 224/143/296 192/144/296
f  198/82/297 219/145/297 225/146/297 226/147/297 199/83/297
f  212/148/298 211/149/298 227/150/298 228/151/298 222/152/298 229/153/298 230/154/298 231/155/298 232/156/298 233/157/298 234/158/298
f  218/159/299 235/160/299 225/146/299 219/145/299
f  236/161/300 230/162/300 229/163/300 237/164/300 238/165/300 235/160/300 218/159/300 217/166/300 239/167/300 240/168/300
f  216/169/301 241/170/301 239/167/301 217/166/301
f  215/171/302 220/172/302 242/173/302 243/174/302 244/175/302 245/176/302 241/170/302 216/169/302
f  220/177/303 214/178/303 213/179/303 246/180/303 247/181/303 248/182/303 242/183/303
f  243/184/304 242/183/304 248/182/304 232/156/304 231/155/304
f  211/149/305 195/79/305 194/78/305 227/150/305
f  213/179/306 212/148/306 234/158/306 246/180/306
f  249/185/307 250/186/307 232/187/307 248/188/307
f  237/164/308 229/163/308 222/189/308 221/190/308 251/191/308 252/192/308
f  244/175/309 243/174/309 231/193/309 230/162/309 236/161/309
f  237/194/310 252/195/310 253/196/310 254/197/310
f  244/198/311 236/199/311 255/200/311 256/201/311
f  257/202/312 221/140/312 192/144/312 258/203/312 259/204/312
usemtl Roof_wooden_RED
f  260/205/313 261/206/313 262/207/313 263/208/313
f  264/209/314 260/210/314 263/211/314 265/212/314
f  252/213/315 266/214/315 267/215/315 226/216/315 268/217/315
f  252/213/316 251/218/316 266/214/316
f  269/219/317 270/220/317 271/221/317 272/222/317
f  273/223/318 269/224/318 272/225/318 274/226/318
f  194/227/319 193/228/319 275/229/319
f  276/230/320 277/231/320 278/232/320 279/233/320
f  234/234/321 233/235/321 280/236/321
f  277/237/322 281/238/322 282/239/322 278/240/322
f  253/241/323 252/242/323 268/243/323 283/244/323
f  284/245/324 253/246/324 283/247/324 226/216/324 225/248/324
f  285/249/325 286/250/325 287/251/325 288/252/325
f  235/253/326 238/254/326 289/255/326
f  290/256/327 291/257/327 292/258/327 293/259/327
f  294/260/328 290/261/328 293/262/328 295/263/328
f  241/264/329 245/265/329 296/266/329
f  200/267/330 199/268/330 297/269/330
f  298/270/331 264/271/331 265/272/331 299/273/331
f  298/274/332 300/275/332 301/276/332 302/277/332
f  228/278/333 227/279/333 303/280/333
f  273/281/334 274/282/334 304/283/334 305/284/334
f  276/285/335 279/286/335 306/287/335 307/288/335
f  247/289/336 246/290/336 308/291/336
f  268/243/337 226/292/337 283/244/337
f  285/293/338 288/294/338 309/295/338 310/296/338
f  240/297/339 239/298/339 311/299/339
f  294/300/340 295/301/340 312/302/340 313/303/340
usemtl WindowCHERDAK
f  314/304/341 315/305/341 316/306/341 317/307/341
f  318/304/342 319/305/342 320/306/342 321/307/342
f  322/304/343 323/305/343 324/306/343 325/307/343
f  326/304/344 327/305/344 328/306/344 329/307/344
f  330/304/345 331/305/345 332/306/345 333/307/345
usemtl Roof_wooden_RED
f  192/308/346 200/309/346 262/310/346 261/311/346
f  200/309/347 297/312/347 263/313/347 262/310/347
f  297/312/348 267/314/348 265/315/348 263/313/348
f  267/314/349 266/316/349 299/317/349 265/315/349
f  266/318/350 257/319/350 298/320/350 299/321/350
usemtl Roof
f  257/202/351 259/204/351 264/322/351 298/323/351
f  259/204/352 258/203/352 260/324/352 264/322/352
f  258/203/353 192/144/353 261/325/353 260/324/353
usemtl Roof_wooden_RED
f  222/326/354 228/327/354 271/328/354 270/329/354
f  228/327/355 303/330/355 272/331/355 271/328/355
f  303/330/356 275/332/356 274/333/356 272/331/356
f  275/332/357 193/334/357 304/335/357 274/333/357
f  193/334/358 192/308/358 305/336/358 304/335/358
usemtl Roof
f  192/144/359 224/143/359 273/337/359 305/338/359
f  224/143/360 223/142/360 269/339/360 273/337/360
f  223/142/361 222/141/361 270/340/361 269/339/361
usemtl Roof_wooden_RED
f  248/341/362 247/342/362 282/343/362 281/344/362
f  247/342/363 308/345/363 278/346/363 282/343/363
f  308/345/364 280/347/364 279/348/364 278/346/364
f  280/347/365 233/349/365 306/350/365 279/348/365
f  233/351/366 232/352/366 307/353/366 306/354/366
usemtl Roof
f  232/187/367 250/186/367 276/355/367 307/356/367
f  250/186/368 249/185/368 277/357/368 276/355/368
f  249/185/369 248/188/369 281/358/369 277/357/369
f  254/197/370 253/196/370 286/359/370 285/360/370
usemtl Roof_wooden_RED
f  253/241/371 284/361/371 287/362/371 286/363/371
f  284/364/372 289/365/372 288/366/372 287/367/372
f  289/365/373 238/368/373 309/369/373 288/366/373
f  238/368/374 237/370/374 310/371/374 309/369/374
usemtl Roof
f  237/194/375 254/197/375 285/360/375 310/372/375
usemtl Roof_wooden_RED
f  236/373/376 240/374/376 292/375/376 291/376/376
f  240/374/377 311/377/377 293/378/377 292/375/377
f  311/377/378 296/379/378 295/380/378 293/378/378
f  296/379/379 245/381/379 312/382/379 295/380/379
f  245/381/380 244/383/380 313/384/380 312/382/380
usemtl Roof
f  244/198/381 256/201/381 294/385/381 313/386/381
f  256/201/382 255/200/382 290/387/382 294/385/382
f  255/200/383 236/199/383 291/388/383 290/387/383
usemtl Roof_wooden_RED
f  239/389/384 241/390/384 334/391/384 335/392/384
f  241/390/385 296/393/385 336/394/385 334/391/385
f  296/393/386 311/395/386 337/396/386 336/394/386
f  311/395/387 239/389/387 335/392/387 337/396/387
f  225/397/388 235/398/388 338/399/388 339/400/388
f  235/398/389 289/401/389 340/402/389 338/399/389
f  289/401/390 284/403/390 341/404/390 340/402/390
f  284/403/391 225/397/391 339/400/391 341/404/391
f  199/405/392 226/406/392 342/407/392 343/408/392
f  226/406/393 267/409/393 344/410/393 342/407/393
f  267/409/394 297/411/394 345/412/394 344/410/394
f  297/411/395 199/405/395 343/408/395 345/412/395
f  246/413/396 234/414/396 346/415/396 347/416/396
f  234/414/397 280/417/397 348/418/397 346/415/397
f  280/417/398 308/419/398 349/420/398 348/418/398
f  308/419/399 246/413/399 347/416/399 349/420/399
f  227/421/400 194/422/400 350/423/400 351/424/400
f  194/422/401 275/425/401 352/426/401 350/423/401
f  275/425/402 303/427/402 353/428/402 352/426/402
f  303/427/403 227/421/403 351/424/403 353/428/403
f  335/429/404 334/430/404 315/431/404 314/432/404
f  334/433/405 336/434/405 316/435/405 315/436/405
f  336/437/406 337/438/406 317/439/406 316/440/406
f  337/441/407 335/442/407 314/443/407 317/444/407
f  339/445/408 338/446/408 319/447/408 318/448/408
f  338/449/409 340/450/409 320/451/409 319/452/409
f  340/453/410 341/454/410 321/455/410 320/456/410
f  341/457/411 339/458/411 318/459/411 321/460/411
f  343/461/412 342/462/412 323/463/412 322/464/412
f  342/465/413 344/466/413 324/467/413 323/468/413
f  344/469/414 345/470/414 325/471/414 324/472/414
f  345/473/415 343/474/415 322/475/415 325/476/415
f  347/477/416 346/478/416 327/479/416 326/480/416
f  346/481/417 348/482/417 328/483/417 327/484/417
f  348/485/418 349/486/418 329/487/418 328/488/418
f  349/489/419 347/490/419 326/491/419 329/492/419
f  351/493/420 350/494/420 331/495/420 330/496/420
f  350/497/421 352/498/421 332/499/421 331/500/421
f  352/501/422 353/502/422 333/503/422 332/504/422
f  353/505/423 351/506/423 330/507/423 333/508/423
usemtl Roof
f  221/140/424 257/202/424 298/509/424 302/510/424
usemtl Roof_wooden_RED
f  257/511/425 266/512/425 300/513/425 298/514/425
f  266/316/426 251/515/426 301/516/426 300/517/426
f  251/515/427 221/518/427 302/519/427 301/516/427
# object Line001
g Line001
v 229.93130 -128.08121 8.63897
v 213.16240 -120.32597 8.67831
v 213.16240 -120.32597 7.28118
v 229.93130 -128.08121 7.28118
v 233.18556 -118.51239 8.64407
v 233.18556 -118.51239 8.63145
v 228.20346 -116.36611 8.64234
v 228.20346 -116.36611 12.17560
v 228.20346 -116.36611 13.92548
v 228.20346 -116.36611 14.66208
v 233.18556 -118.51239 14.66208
v 233.18556 -118.51239 13.90815
v 233.18556 -118.51239 11.96038
v 233.18556 -118.51239 10.56485
v 230.06059 -127.70124 14.90166
v 229.93130 -128.08121 14.57542
v 229.93130 -128.08121 13.90815
v 230.66248 -125.93228 13.90815
v 231.07079 -124.73223 13.90815
v 232.01704 -121.95110 13.90815
v 232.42082 -120.76440 13.90815
v 233.08353 -118.81175 14.90166
v 231.75726 -122.71462 14.90166
v 231.34770 -123.91835 14.90166
v 232.42082 -120.76440 11.96038
v 230.66248 -125.93228 11.96038
v 229.93130 -128.08121 11.96038
v 229.93130 -128.08121 10.56485
v 230.66248 -125.93228 10.56485
v 231.07079 -124.73223 10.56485
v 232.01706 -121.95110 10.56485
v 232.42082 -120.76440 10.56485
v 232.01706 -121.95110 11.96038
v 231.07079 -124.73223 11.96038
v 232.42082 -120.76440 8.64407
v 232.24754 -121.27366 16.82341
v 231.75726 -122.71462 16.82341
v 231.51927 -123.41409 18.58264
v 230.82213 -125.46303 16.82341
v 231.34770 -123.91835 16.82341
v 231.21417 -123.87518 16.82341
v 231.21417 -123.87518 14.92877
v 231.62373 -122.67146 14.92877
v 231.62373 -122.67146 16.82341
v 229.93130 -128.08121 8.64407
v 230.66248 -125.93228 8.64407
v 230.52895 -125.88911 13.90815
v 230.52895 -125.88911 11.98749
v 230.93726 -124.68906 11.98749
v 230.93726 -124.68906 13.90815
v 230.52895 -125.88911 10.56485
v 230.52895 -125.88911 8.67118
v 230.93726 -124.68906 8.67118
v 230.93726 -124.68906 10.56485
v 231.07079 -124.73223 8.64407
v 232.01706 -121.95110 8.64407
v 231.88353 -121.90794 13.90815
v 231.88353 -121.90794 11.98749
v 232.28731 -120.72122 11.98749
v 232.28731 -120.72122 13.90815
v 231.88353 -121.90794 10.56485
v 231.88353 -121.90794 8.67118
v 232.28731 -120.72122 8.67118
v 232.28731 -120.72122 10.56485
v 233.18556 -118.51239 7.28118
v 233.20758 -118.52145 8.63884
v 232.44339 -120.77207 8.63884
v 232.03963 -121.95879 8.63884
v 231.09335 -124.73991 8.63884
v 230.68504 -125.93996 8.63884
v 229.95387 -128.08888 8.63884
v 217.21710 -111.91613 14.66208
v 217.25204 -111.85566 8.66522
v 214.84979 -116.89333 8.67487
v 215.32657 -115.90163 18.58264
v 213.16240 -120.32597 14.57542
v 217.26010 -111.84171 7.28118
v 226.65819 -115.72421 8.64560
v 226.65819 -115.72421 7.28118
v 226.65819 -115.72421 14.66208
v 226.65819 -115.72421 13.92548
v 228.14973 -116.49739 12.17560
v 226.60446 -115.85548 12.17562
v 226.60446 -115.85548 13.92548
v 228.14973 -116.49739 13.92548
v 226.65819 -115.72421 12.17562
v 228.20346 -116.36611 7.28118
v 214.78271 -117.03282 7.28118
# 88 verticies
vt -0.1815855503 0.0632966459
vt -0.1759645939 2.6880400181
vt -0.3755555153 2.6880400181
vt -0.3755556345 0.0632966459
vt 1.1808571815 0.0634993017
vt 1.1826593876 0.0634993017
vt 1.1811039448 0.8360582590
vt 0.6763516665 0.8360582590
vt 0.4263693094 0.8360581398
vt 0.3211408854 0.8360582590
vt 0.3211409450 0.0634992719
vt 0.4288456440 0.0634992421
vt 0.7070982456 0.0634992421
vt 0.9064593911 0.0634992421
vt -0.1546993256 0.7130842209
vt -0.2120349407 0.6664792895
vt -0.2120348215 0.5711539984
vt 0.1122369170 0.5711541176
vt 0.2933244109 0.5711541772
vt 0.7129958868 0.5711542368
vt 0.8920702934 0.5711542964
vt 1.2318286896 0.5711543560
vt 1.2318286896 0.6788590550
vt 1.1866466999 0.7130845189
vt 0.5977807045 0.7130843997
vt 0.4161387682 0.7130843401
vt 0.8920703530 0.2929016650
vt 1.2318288088 0.2929017544
vt 0.1122369766 0.2929014862
vt -0.2120347023 0.2929013669
vt -0.2120347023 0.0935402513
vt 0.1122369766 0.0935403407
vt 0.2933245897 0.0935403705
vt 0.7129960656 0.0935404897
vt 0.8920704126 0.0935405195
vt 1.2318289280 0.0935406089
vt 0.7129960060 0.2929016054
vt 0.2933245301 0.2929015160
vt 0.8920705318 -0.1808573008
vt 1.2318289280 -0.1808572412
vt 0.8152220845 0.9876197577
vt 0.5977805853 0.9876197577
vt 0.4922323227 1.2389388084
vt 0.1830473542 0.9876196384
vt 0.4161386490 0.9876197577
vt -1.0000000000 -0.0000000874
vt -0.9999999404 -1.0000001192
vt 0.0000000874 -1.0000000000
vt 0.0000000000 0.0000000000
vt -0.2120347023 -0.1808575988
vt 0.1122370362 -0.1808575392
vt 0.2933246493 -0.1808574796
vt 0.7129961252 -0.1808573604
vt 0.4161387682 0.0632967055
vt 0.5977807045 0.0632967055
vt 0.5974750519 0.0833416283
vt 0.4158331156 0.0833416581
vt 0.7130843997 0.0632967055
vt 0.9876197577 0.0632967353
vt 0.9876197577 0.0833416581
vt 0.7169576287 0.0833416283
vt 0.4022193849 0.0632967353
vt 0.5838613510 0.0632967055
vt 0.5841668844 0.0833416581
vt 0.4025250077 0.0833416581
vt 0.0123802423 0.0632967055
vt 0.2869156599 0.0632967055
vt 0.2830424309 0.0833416581
vt 0.0123802423 0.0833416581
vt 0.4288458824 0.0632966757
vt 0.7070984840 0.0632966757
vt 0.7032253146 0.0833416283
vt 0.4288458824 0.0833415985
vt 0.1122369766 0.0632966757
vt 0.2933245301 0.0632967055
vt 0.2930189371 0.0833416581
vt 0.1119313240 0.0833416283
vt 0.2929015160 0.0632967055
vt 0.5711541772 0.0632967055
vt 0.5711541772 0.0833416283
vt 0.2967747152 0.0833416581
vt 0.7066755891 0.0632967055
vt 0.8877630830 0.0632966757
vt 0.8880687952 0.0833415985
vt 0.7069813013 0.0833416283
vt 0.9064596891 0.0632966757
vt 1.1808575392 0.0632966757
vt 1.1769843102 0.0833416283
vt 0.9064596295 0.0833415985
vt 0.1122370362 0.0632966757
vt 0.2933246493 0.0632966757
vt 0.2930190563 0.0833416283
vt 0.1119314432 0.0833416283
vt -0.1808574796 0.0632966757
vt 0.0935403705 0.0632966757
vt 0.0935404003 0.0833415985
vt -0.1769842505 0.0833416283
vt 0.7066754103 0.0632966757
vt 0.8877630234 0.0632966757
vt 0.8880687356 0.0833415985
vt 0.7069811225 0.0833415985
vt 0.4288457632 0.0632967055
vt 0.7070983648 0.0632967055
vt 0.7032251954 0.0833416283
vt 0.4288457632 0.0833416283
vt 0.7129960060 0.0632967055
vt 0.8920703530 0.0632967353
vt 0.8917647004 0.0833416581
vt 0.7126903534 0.0833416283
vt 0.2929016650 0.0632967353
vt 0.5711542964 0.0632967353
vt 0.5711542964 0.0833416283
vt 0.2967750132 0.0833416581
vt 0.1079297066 0.0632967353
vt 0.2870041430 0.0632967055
vt 0.2873098254 0.0833416283
vt 0.1082354188 0.0833416283
vt 0.9064595103 0.0632967055
vt 1.1808574200 0.0632967055
vt 1.1769841909 0.0833416581
vt 0.9064595103 0.0833416581
vt 0.7129961252 0.0632967055
vt 0.8920705318 0.0632967353
vt 0.8917648196 0.0833416581
vt 0.7126904726 0.0833416581
vt -0.1808573008 0.0632967353
vt 0.0935405195 0.0632967353
vt 0.0935405195 0.0833416581
vt -0.1769841313 0.0833416581
vt 0.1079295874 0.0632967353
vt 0.2870039344 0.0632967055
vt 0.2873096466 0.0833416581
vt 0.1082352400 0.0833416581
vt 1.2318289280 -0.3755551577
vt 1.2316160202 -0.1816033125
vt 0.8920705914 -0.1816034317
vt 0.7129961252 -0.1816034317
vt 0.2933247089 -0.1816035509
vt 0.1122370958 -0.1816036701
vt -0.2120347023 -0.1816037297
vt -0.2120347023 -0.3755556345
vt 1.1816033125 0.0601038039
vt 1.3755551577 0.0634992421
vt 0.8920705914 0.0598908365
vt 1.2316160202 0.0601038039
vt 1.2318289280 0.0634993017
vt 0.7129961252 0.0598908365
vt 0.2933247089 0.0598908067
vt 0.1122370958 0.0598907769
vt -0.2120347023 0.0632966459
vt -0.2120347023 0.0598907471
vt -0.1816037297 0.0598907471
vt -0.1808575988 0.0632966459
vt -0.3891219497 0.6788589954
vt -0.3989076018 -0.1778347492
vt 0.3929436803 -0.1764559746
vt 0.2368839979 1.2389388084
vt 0.9348321557 0.6664793491
vt 0.9348320365 -0.1759645939
vt 1.3755550385 2.5242662430
vt 1.1778347492 2.5247144699
vt 1.1806386709 1.0745832920
vt 1.3755551577 1.0745832920
vt 0.3211408854 1.0745832920
vt 0.4263690710 1.0745832920
vt -0.0245031435 -1.0053260326
vt -1.0215252638 -1.0055217743
vt -1.0216684341 0.0038498938
vt -0.0246455669 0.0040540672
vt 0.6763493419 1.0745832920
vt -0.3085474968 1.0745832920
vt -0.2928407788 0.8360581398
vt -0.2726143003 0.8372831345
vt -0.2883210182 1.0758082867
vt -0.2928407788 0.5736306906
vt -0.2928407788 0.3236483335
vt -0.2726143599 0.3236483335
vt -0.2726143003 0.5736306310
vt 1.2928407192 0.8360582590
vt 1.3085474968 1.0745832920
vt 1.2883210182 1.0758082867
vt 1.2726143599 0.8372831345
vt 1.3085474968 0.3236506581
vt 1.3085474968 0.5736309290
vt 1.2883210182 0.5736308694
vt 1.2883210182 0.3236506581
vt 1.3755550385 0.8360581994
vt 0.3211410046 2.5266571045
vt 0.5711539984 0.0632966757
vt 0.6664792895 0.0632966757
vt 0.6664793491 2.6880397797
vt 0.0935402513 0.0632966757
vt 0.2929013669 0.0632966757
vt -0.4011659622 -0.3755550385
vt 0.4148961008 -0.3755553961
vt 0.9348320365 -0.3755555153
# 196 texture verticies
vn 0.99447 -0.00000 0.10503
vn -0.99690 -0.00000 -0.07873
vn -0.00014 0.00021 -1.00000
vn -0.00060 0.00000 -1.00000
vn -0.00014 0.00000 -1.00000
vn -0.00060 0.00000 -1.00000
vn -0.00028 -0.00022 -1.00000
vn -0.00000 0.00000 -1.00000
vn 0.00000 0.00000 -1.00000
vn -0.00000 0.00000 -1.00000
vn -0.00000 0.00000 -1.00000
vn -0.00000 0.00000 -1.00000
vn -0.00000 0.00000 -1.00000
vn -0.00000 0.00000 -1.00000
vn -0.00000 0.00000 -1.00000
vn -0.00000 0.00000 -1.00000
vn -0.00000 0.00000 -1.00000
vn 0.00000 0.98184 -0.18972
vn 0.99988 -0.00000 -0.01525
vn 0.00000 -1.00000 -0.00000
vn -0.99988 0.00000 0.01524
vn -0.99988 0.00000 0.01525
vn -0.00000 0.98184 -0.18972
vn 0.99988 -0.00000 -0.01525
vn -0.99988 0.00000 0.01525
vn 0.00000 0.98184 -0.18972
vn 0.99988 -0.00000 -0.01525
vn 0.00000 -1.00000 0.00000
vn -0.99988 0.00000 0.01525
vn 0.00000 0.98184 -0.18972
vn 0.99988 -0.00000 -0.01525
vn 0.00000 -1.00000 -0.00000
vn -0.99988 0.00000 0.01525
vn -0.00000 0.98184 -0.18972
vn 0.99988 -0.00000 -0.01525
vn -0.00000 -1.00000 -0.00000
vn -0.00014 -0.01795 -0.99984
vn -0.99804 -0.00000 -0.06262
vn -0.99804 -0.00000 -0.06262
vn -0.99804 -0.00000 -0.06262
vn -0.99804 0.00000 -0.06262
vn -0.00007 0.97684 -0.21399
vn -0.00007 0.97684 -0.21399
vn -0.00013 0.97670 -0.21460
vn -0.00013 0.97670 -0.21461
vn -0.00000 0.97684 -0.21398
vn -0.00000 0.97684 -0.21398
vn 0.00000 0.97684 -0.21399
vn 0.00000 0.97684 -0.21399
vn 0.00000 0.97684 -0.21399
vn 0.00000 0.97684 -0.21399
vn -0.00000 0.97684 -0.21399
vn -0.00000 0.97684 -0.21399
vn 1.00000 0.00000 0.00000
vn -0.11569 0.00005 0.99329
vn -0.11674 -0.00092 0.99316
vn -0.12243 -0.00035 0.99248
vn -0.12062 -0.00008 0.99270
vn -0.12762 -0.00062 0.99182
vn -0.12870 -0.00011 0.99168
vn -0.99800 0.00581 -0.06298
vn -0.99784 -0.00000 -0.06571
vn -0.99784 -0.00000 -0.06571
vn -0.99784 0.00000 -0.06571
vn -0.00000 -1.00000 0.00000
vn -0.06045 0.00000 0.99817
vn 0.00000 1.00000 -0.00001
vn 0.06046 0.00000 -0.99817
vn -0.99690 -0.00000 -0.07873
vn -0.99825 0.00576 -0.05880
vn -0.99784 0.00000 -0.06571
vn 0.99447 0.00000 0.10503
vn -0.11678 -0.00072 0.99316
vn -0.12325 -0.00026 0.99238
vn -0.12893 -0.00000 0.99165
# 75 normals
usemtl Grey
f  354/520/428 355/521/428 356/522/428 357/523/428
usemtl Walls
f  358/524/429 359/525/429 360/526/429 361/527/429 362/528/429 363/529/429 364/530/429 365/531/429 366/532/429 367/533/429
f  368/534/430 369/535/430 370/536/430 371/537/430 372/538/430 373/539/430 374/540/430 365/541/430 364/542/430 375/543/430 376/544/430 377/545/430
f  365/541/431 374/540/431 378/546/431 366/547/431
f  379/548/432 380/549/432 381/550/432 382/551/432 383/552/432 384/553/432 385/554/432 367/555/432 366/547/432 378/546/432 386/556/432 387/557/432
f  367/555/433 385/554/433 388/558/433 358/559/433
f  389/560/434 390/561/434 376/544/434 375/543/434
f  391/562/435 392/563/435 393/564/435 390/561/435 389/560/435
usemtl Window
f  394/565/436 395/566/436 396/567/436 397/568/436
usemtl Walls
f  392/563/435 368/534/435 377/545/435 393/564/435
f  370/536/437 380/549/437 379/548/437 371/537/437
f  381/550/438 398/569/438 399/570/438 382/551/438
usemtl Window
f  400/565/439 401/566/439 402/567/439 403/568/439
f  404/565/440 405/566/440 406/567/440 407/568/440
usemtl Walls
f  372/538/441 387/557/441 386/556/441 373/539/441
f  383/552/442 408/571/442 409/572/442 384/553/442
usemtl Window
f  410/565/443 411/566/443 412/567/443 413/568/443
f  414/565/444 415/566/444 416/567/444 417/568/444
usemtl Walls
f  377/573/445 376/574/445 396/575/445 395/576/445
f  376/577/446 390/578/446 397/579/446 396/580/446
f  390/581/447 393/582/447 394/583/447 397/584/447
f  393/585/448 377/586/448 395/587/448 394/588/448
f  371/589/449 379/590/449 401/591/449 400/592/449
f  379/593/450 387/594/450 402/595/450 401/596/450
f  387/597/451 372/598/451 403/599/451 402/600/451
f  372/601/447 371/602/447 400/603/447 403/604/447
f  382/605/452 399/606/452 405/607/452 404/608/452
f  399/609/453 408/610/453 406/611/453 405/612/453
f  408/613/454 383/614/454 407/615/454 406/616/454
f  383/617/455 382/618/455 404/619/455 407/620/455
f  373/621/456 386/622/456 411/623/456 410/624/456
f  386/625/457 378/626/457 412/627/457 411/628/457
f  378/629/458 374/630/458 413/631/458 412/632/458
f  374/633/459 373/634/459 410/635/459 413/636/459
f  384/637/460 409/638/460 415/639/460 414/640/460
f  409/641/461 388/642/461 416/643/461 415/644/461
f  388/645/462 385/646/462 417/647/462 416/648/462
f  385/649/463 384/650/463 414/651/463 417/652/463
usemtl Grey
f  418/653/464 419/654/464 420/655/464 421/656/464 422/657/464 423/658/464 424/659/464 357/660/464
f  419/661/465 418/662/466 359/525/467 358/524/468
usemtl Walls
f  388/642/469 420/663/470 419/664/471 358/665/472
f  409/641/473 421/666/474 420/663/470 388/642/469
f  408/610/475 422/667/476 421/666/474 409/641/473
f  399/609/477 423/668/478 422/667/476 408/610/475
f  398/669/479 424/670/480 423/668/478 399/609/477
usemtl Grey
f  424/671/481 398/672/481 354/520/481 357/523/481
usemtl Walls
f  425/673/482 426/674/483 427/675/484 428/676/485
f  429/677/486 428/676/485 427/675/484 355/678/487
usemtl Grey
f  430/679/488 426/680/488 431/681/488 432/682/488
usemtl Walls
f  433/683/489 363/529/489 362/528/489 434/684/489
usemtl Window
f  435/685/490 436/686/490 437/687/490 438/688/490
usemtl Walls
f  360/526/491 431/681/491 439/689/491 361/527/491
f  434/690/492 362/691/492 438/692/492 437/693/492
f  362/694/493 361/695/493 435/696/493 438/697/493
f  361/698/494 439/699/494 436/700/494 435/701/494
f  439/702/495 434/703/495 437/704/495 436/705/495
usemtl Grey
f  418/662/496 440/706/496 360/526/496 359/525/496
usemtl Walls
f  426/680/497 425/707/497 433/683/497 434/684/497 439/689/497 431/681/497
usemtl Grey
f  440/706/498 432/682/498 431/681/498 360/526/498
usemtl Walls
f  370/708/499 369/709/499 429/710/499 355/521/499 354/520/499 398/672/499 381/711/499 380/712/499
usemtl Grey
f  430/713/500 441/714/501 427/675/484 426/674/483
f  441/714/501 356/715/502 355/678/487 427/675/484
# object ____tube002
g ____tube002
v 218.66466 -118.94647 17.18997
v 218.70787 -119.05675 17.18997
v 219.07590 -118.21771 17.18997
v 218.96562 -118.26093 17.18997
v 218.34872 -117.89990 17.18997
v 218.39194 -118.01019 17.18997
v 217.98067 -118.73897 17.18997
v 218.09097 -118.69574 17.18997
v 218.70789 -119.05678 19.27817
v 219.07591 -118.21774 19.27817
v 218.34872 -117.89995 19.27817
v 217.98067 -118.73897 19.27817
v 218.71968 -119.08694 19.27817
v 219.10608 -118.20592 19.27817
v 218.33691 -117.86977 19.27817
v 217.95052 -118.75079 19.27817
v 218.71968 -119.08694 19.30755
v 219.10608 -118.20592 19.30755
v 218.33691 -117.86977 19.30755
v 217.95052 -118.75079 19.30755
v 218.70546 -119.05063 19.30755
v 219.06976 -118.22014 19.30755
v 218.35114 -117.90610 19.30755
v 217.98683 -118.73657 19.30755
v 218.70546 -119.05063 19.56766
v 218.69196 -119.01614 19.56766
v 219.03531 -118.23366 19.56767
v 219.06976 -118.22014 19.56767
v 218.36464 -117.94054 19.56767
v 218.35114 -117.90610 19.56767
v 218.02129 -118.72307 19.56766
v 217.98683 -118.73657 19.56766
v 218.69196 -119.01614 19.63055
v 219.03531 -118.23366 19.63055
v 218.36464 -117.94054 19.63055
v 218.02129 -118.72307 19.63055
v 218.70461 -119.04846 19.63055
v 219.06761 -118.22099 19.63055
v 218.35197 -117.90823 19.63055
v 217.98895 -118.73572 19.63055
v 218.71938 -119.08617 19.69599
v 219.10532 -118.20622 19.69599
v 218.33722 -117.87054 19.69599
v 217.95128 -118.75049 19.69599
v 218.70419 -119.04739 19.69599
v 219.06653 -118.22141 19.69599
v 218.35239 -117.90932 19.69599
v 217.99005 -118.73528 19.69599
v 219.06653 -118.22141 19.77812
v 218.70419 -119.04739 19.77812
v 218.35239 -117.90932 19.77812
v 217.99005 -118.73528 19.77812
v 218.93912 -118.27133 19.83776
v 218.65428 -118.92000 19.83776
v 218.40231 -118.03671 19.83776
v 218.11743 -118.68539 19.83776
# 56 verticies
vt 0.3172798157 0.7717361450
vt 0.2675895691 0.8244094849
vt 0.2504959106 0.2646255493
vt 0.3031692505 0.3143005371
vt 0.7353820801 0.2504653931
vt 0.6856956482 0.3031387329
vt 0.7524909973 0.8102645874
vt 0.6998138428 0.7605667114
vt 0.8244094849 -0.8345603943
vt 0.8244094849 0.8673553467
vt 0.2646408081 0.8673553467
vt 0.2646255493 -0.8345603943
vt 0.7495040894 -0.8345603943
vt 0.7495117188 0.8673553467
vt 0.2646179199 0.8673553467
vt 0.2646179199 -0.8345603943
vt 0.7495346069 -0.8345603943
vt 0.1897354126 0.8673553467
vt 0.1897354126 -0.8345603943
vt 0.7524909973 -0.8345603943
vt 0.7524871826 0.8673553467
vt 0.2675819397 0.8673553467
vt 0.2675895691 -0.8345603943
vt 0.2675819397 0.8244094849
vt 0.2539978027 0.8388366699
vt 0.2360763550 0.2510452271
vt 0.2504882813 0.2646408081
vt 0.7489662170 0.2360763550
vt 0.7353820801 0.2504882813
vt 0.7668876648 0.8238601685
vt 0.7524871826 0.8102645874
vt 0.8388366699 0.8673553467
vt 0.8388366699 0.8913021088
vt 0.2510452271 0.8913021088
vt 0.2510452271 0.8673553467
vt 0.7639236450 0.8673553467
vt 0.7639236450 0.8913021088
vt 0.2510337830 0.8913021088
vt 0.2510337830 0.8673553467
vt 0.1761398315 0.8913021088
vt 0.1761398315 0.8673553467
vt 0.7668876648 0.8673553467
vt 0.7668876648 0.8913021088
vt 0.2539978027 0.8913021088
vt 0.2539978027 0.8673553467
vt 0.7460021973 0.8388366699
vt 0.7296409607 0.8214874268
vt 0.7465782166 0.2674026489
vt 0.7639236450 0.2510452271
vt 0.2673950195 0.2534255981
vt 0.2510337830 0.2360763550
vt 0.2504577637 0.8075027466
vt 0.2331123352 0.8238601685
vt 0.7141113281 0.8050231934
vt 0.7301177979 0.2829360962
vt 0.2829132080 0.2698822021
vt 0.2669219971 0.7919845581
vt 0.8050231934 1.1032962799
vt 0.8050231934 1.1545562744
vt 0.2829360962 1.1545562744
vt 0.2829360962 1.1033020020
vt 0.7301177979 1.1033020020
vt 0.7301177979 1.1545562744
vt 0.2829132080 1.1545562744
vt 0.2829132080 1.1033020020
vt 0.2080154419 1.1545562744
vt 0.2080154419 1.1032962799
vt 0.7330780029 1.1032962799
vt 0.7330780029 1.1545562744
vt 0.2858886719 1.1545562744
vt 0.2858886719 1.1032962799
vt 0.2858886719 0.8050231934
vt 0.2713317871 0.8204574585
vt 0.2544517517 0.2683792114
vt 0.2698822021 0.2829360962
vt 0.7316436768 0.2544479370
vt 0.7170867920 0.2698822021
vt 0.7485237122 0.8065261841
vt 0.7330780029 0.7919845581
vt 0.8204574585 1.1545562744
vt 0.8384628296 1.2078895569
vt 0.2513961792 1.2078895569
vt 0.2683792114 1.1545562744
vt 0.7455482483 1.1545562744
vt 0.7635536194 1.2078895569
vt 0.2513771057 1.2078895569
vt 0.2683563232 1.1545562744
vt 0.7455520630 1.1545562744
vt 0.7635574341 1.2078895569
vt 0.1764907837 1.2078895569
vt 0.1934738159 1.1545562744
vt 0.7485237122 1.1545562744
vt 0.7665214539 1.2078895569
vt 0.2543487549 1.2078895569
vt 0.2713317871 1.1545562744
vt 0.7456512451 0.8384628296
vt 0.7281837463 0.8199386597
vt 0.7450332642 0.2688598633
vt 0.7635536194 0.2513961792
vt 0.2688446045 0.2549667358
vt 0.2513771057 0.2364425659
vt 0.2519950867 0.8060379028
vt 0.2334785461 0.8235092163
vt 0.8214874268 0.8913021088
vt 0.8214874268 1.1032962799
vt 0.2674026489 1.1033020020
vt 0.2674026489 0.8913021088
vt 0.7465782166 0.8913021088
vt 0.7465782166 1.1033020020
vt 0.2673950195 1.1033020020
vt 0.2673950195 0.8913021088
vt 0.7465744019 0.8913021088
vt 0.7465744019 1.1033020020
vt 0.1924972534 1.1032962799
vt 0.1924972534 0.8913021088
vt 0.7495422363 0.8913021088
vt 0.7495422363 1.1032962799
vt 0.2703590393 1.1032962799
vt 0.2703590393 0.8913021088
vt 0.1800613403 1.2078895569
vt 0.7311401367 1.2078895569
vt 0.7311401367 1.2748222351
vt 0.1800613403 1.2748222351
vt 0.2549667358 1.2078895569
vt 0.7311553955 1.2078895569
vt 0.7311553955 1.2748222351
vt 0.2549667358 1.2748222351
vt 0.8060379028 1.2078895569
vt 0.8060379028 1.2748222351
vt 0.2519950867 1.2078895569
vt 0.7281837463 1.2078895569
vt 0.7281837463 1.2748222351
vt 0.2519950867 1.2748222351
vt 0.2718162537 0.8199386597
vt 0.2549667358 0.2688598633
vt 0.3158073425 0.3262557983
vt 0.3292083740 0.7591018677
vt 0.7311553955 0.2549667358
vt 0.6737632751 0.3158035278
vt 0.7480049133 0.8060379028
vt 0.6871757507 0.7486495972
vt 0.6701812744 1.3404693604
vt -0.0116882324 1.3374481201
vt -0.0101318359 0.3414916992
vt 0.6717147827 0.3444824219
# 145 texture verticies
vn 0.00000 0.00000 1.00000
vn -0.29731 0.76038 0.57743
vn -0.76049 -0.29733 0.57728
vn 0.29728 -0.76040 0.57742
vn 0.76049 0.29733 0.57728
vn -0.15539 0.39744 0.90438
vn -0.39682 -0.15514 0.90469
vn 0.15539 -0.39745 0.90437
vn 0.39681 0.15514 0.90470
vn -0.29731 0.76039 0.57742
vn -0.76048 -0.29736 0.57728
vn 0.29732 -0.76039 0.57742
vn 0.76048 0.29735 0.57728
vn -0.29731 0.76039 -0.57742
vn -0.76048 -0.29736 -0.57728
vn 0.29732 -0.76039 -0.57742
vn 0.76048 0.29735 -0.57728
vn 0.00000 0.00000 -1.00000
vn 0.00001 0.00000 -1.00000
vn -0.15538 0.39748 -0.90436
vn -0.39680 -0.15510 -0.90471
vn -0.00000 0.00001 -1.00000
vn 0.15539 -0.39747 -0.90436
vn 0.00001 0.00000 -1.00000
vn 0.39679 0.15513 -0.90471
vn -0.15538 0.39748 0.90436
vn -0.39680 -0.15511 0.90471
vn 0.15538 -0.39747 0.90436
vn 0.39679 0.15512 0.90471
vn -0.22845 0.58465 0.77845
vn -0.58483 -0.22844 0.77832
vn 0.22849 -0.58470 0.77840
vn 0.58489 0.22846 0.77828
vn -0.33816 0.86455 -0.37176
vn -0.86459 -0.33817 -0.37165
vn 0.33812 -0.86454 -0.37182
vn 0.86457 0.33816 -0.37170
vn -0.36413 0.93135 0.00000
vn -0.36413 0.93135 0.00000
vn -0.93135 -0.36412 0.00000
vn -0.93135 -0.36412 0.00000
vn 0.36412 -0.93135 0.00000
vn 0.36412 -0.93135 0.00000
vn 0.93135 0.36413 0.00000
vn 0.93135 0.36413 0.00000
vn 0.36411 -0.93136 0.00000
vn 0.93135 0.36412 0.00000
vn 0.82815 0.32381 0.45752
vn 0.32377 -0.82813 0.45758
vn -0.36412 0.93135 0.00000
vn -0.32378 0.82812 0.45758
vn -0.93136 -0.36411 0.00000
vn -0.82816 -0.32381 0.45749
vn 0.37220 0.14515 0.91673
vn 0.14505 -0.37232 0.91670
vn -0.14503 0.37232 0.91670
vn -0.37227 -0.14522 0.91669
# 57 normals
usemtl Chimney
f  442/716/503 443/717/504 444/718/505 445/719/503
f  445/719/503 444/718/505 446/720/506 447/721/503
f  447/721/503 446/720/506 448/722/507 449/723/503
f  449/723/503 448/722/507 443/717/504 442/716/503
f  443/724/504 450/725/508 451/726/509 444/727/505
f  444/728/505 451/729/509 452/730/510 446/731/506
f  446/732/506 452/729/510 453/733/511 448/734/507
f  448/735/507 453/736/511 450/737/508 443/738/504
f  450/739/508 454/740/512 455/741/513 451/742/509
f  451/742/509 455/741/513 456/743/514 452/744/510
f  452/744/510 456/743/514 457/745/515 453/746/511
f  453/746/511 457/745/515 454/740/512 450/739/508
f  454/747/512 458/748/516 459/749/517 455/750/513
f  455/751/513 459/752/517 460/753/518 456/754/514
f  456/751/514 460/752/518 461/755/519 457/756/515
f  457/757/515 461/758/519 458/759/516 454/760/512
f  458/761/516 462/762/520 463/763/520 459/764/517
f  459/764/517 463/763/520 464/765/520 460/766/518
f  460/766/518 464/765/520 465/767/520 461/768/519
f  461/768/519 465/767/520 462/762/520 458/761/516
f  466/762/521 467/769/522 468/770/523 469/763/524
f  469/763/524 468/770/523 470/771/525 471/765/526
f  471/765/526 470/771/525 472/772/527 473/767/524
f  473/767/524 472/772/527 467/769/522 466/762/521
f  467/773/522 474/774/528 475/775/529 468/776/523
f  468/777/523 475/778/529 476/779/530 470/780/525
f  470/777/525 476/778/530 477/781/531 472/782/527
f  472/783/527 477/784/531 474/785/528 467/786/522
f  474/787/528 478/788/532 479/789/533 475/790/529
f  475/790/529 479/789/533 480/791/534 476/792/530
f  476/792/530 480/791/534 481/793/535 477/794/531
f  477/794/531 481/793/535 478/788/532 474/787/528
f  478/795/532 482/796/536 483/797/537 479/798/533
f  479/799/533 483/800/537 484/801/538 480/802/534
f  480/803/534 484/804/538 485/805/539 481/806/535
f  481/807/535 485/808/539 482/809/536 478/810/532
f  482/811/536 486/812/520 487/813/520 483/814/537
f  483/814/537 487/813/520 488/815/520 484/816/538
f  484/816/538 488/815/520 489/817/520 485/818/539
f  485/818/539 489/817/520 486/812/520 482/811/536
f  462/819/540 466/820/541 469/821/542 463/822/543
f  463/823/543 469/824/542 471/825/544 464/826/545
f  464/827/545 471/828/544 473/829/546 465/830/547
f  465/831/547 473/832/546 466/833/541 462/834/540
f  486/835/548 487/836/549 490/837/550 491/838/551
f  487/839/549 488/840/552 492/841/553 490/842/550
f  488/839/552 489/843/554 493/844/555 492/842/553
f  489/845/554 486/846/548 491/847/551 493/848/555
f  491/849/551 490/850/550 494/851/556 495/852/557
f  490/850/550 492/853/553 496/854/558 494/851/556
f  493/855/555 491/849/551 495/852/557 497/856/559
f  492/853/553 493/855/555 497/856/559 496/854/558
usemtl Chimney_top
f  497/857/503 495/858/503 494/859/503 496/860/503
# object ____tube003
g ____tube003
v 226.37056 -122.02151 17.30860
v 226.41377 -122.13179 17.30860
v 226.78180 -121.29276 17.30860
v 226.67152 -121.33597 17.30860
v 226.05463 -120.97495 17.30860
v 226.09784 -121.08524 17.30860
v 225.68657 -121.81401 17.30860
v 225.79688 -121.77078 17.30860
v 226.41379 -122.13182 19.39680
v 226.78181 -121.29279 19.39680
v 226.05463 -120.97499 19.39680
v 225.68657 -121.81401 19.39680
v 226.42558 -122.16199 19.39680
v 226.81198 -121.28096 19.39680
v 226.04282 -120.94481 19.39680
v 225.65642 -121.82584 19.39680
v 226.42558 -122.16199 19.42618
v 226.81198 -121.28096 19.42618
v 226.04282 -120.94481 19.42618
v 225.65642 -121.82584 19.42618
v 226.41136 -122.12567 19.42618
v 226.77567 -121.29518 19.42618
v 226.05704 -120.98114 19.42618
v 225.69273 -121.81161 19.42618
v 226.41136 -122.12567 19.68629
v 226.39786 -122.09119 19.68629
v 226.74121 -121.30870 19.68629
v 226.77567 -121.29518 19.68629
v 226.07054 -121.01558 19.68629
v 226.05704 -120.98114 19.68629
v 225.72719 -121.79811 19.68629
v 225.69273 -121.81161 19.68629
v 226.39786 -122.09119 19.74918
v 226.74121 -121.30870 19.74918
v 226.07054 -121.01558 19.74918
v 225.72719 -121.79811 19.74918
v 226.41051 -122.12350 19.74918
v 226.77351 -121.29604 19.74918
v 226.05788 -120.98328 19.74918
v 225.69485 -121.81076 19.74918
v 226.42528 -122.16121 19.81462
v 226.81122 -121.28127 19.81462
v 226.04312 -120.94559 19.81462
v 225.65718 -121.82553 19.81462
v 226.41010 -122.12244 19.81462
v 226.77243 -121.29645 19.81462
v 226.05829 -120.98436 19.81462
v 225.69595 -121.81032 19.81462
v 226.77243 -121.29645 19.89675
v 226.41010 -122.12244 19.89675
v 226.05829 -120.98436 19.89675
v 225.69595 -121.81032 19.89675
v 226.64502 -121.34637 19.95638
v 226.36018 -121.99504 19.95638
v 226.10822 -121.11176 19.95638
v 225.82333 -121.76044 19.95638
# 56 verticies
vt 0.3172798157 0.7717361450
vt 0.2675895691 0.8244094849
vt 0.2504959106 0.2646255493
vt 0.3031692505 0.3143005371
vt 0.7353820801 0.2504653931
vt 0.6856956482 0.3031387329
vt 0.7524909973 0.8102645874
vt 0.6998138428 0.7605667114
vt 0.8244094849 -0.8345603943
vt 0.8244094849 0.8673553467
vt 0.2646408081 0.8673553467
vt 0.2646255493 -0.8345603943
vt 0.7495040894 -0.8345603943
vt 0.7495117188 0.8673553467
vt 0.2646179199 0.8673553467
vt 0.2646179199 -0.8345603943
vt 0.7495346069 -0.8345603943
vt 0.1897354126 0.8673553467
vt 0.1897354126 -0.8345603943
vt 0.7524909973 -0.8345603943
vt 0.7524871826 0.8673553467
vt 0.2675819397 0.8673553467
vt 0.2675895691 -0.8345603943
vt 0.2675819397 0.8244094849
vt 0.2539978027 0.8388366699
vt 0.2360763550 0.2510452271
vt 0.2504882813 0.2646408081
vt 0.7489662170 0.2360763550
vt 0.7353820801 0.2504882813
vt 0.7668876648 0.8238601685
vt 0.7524871826 0.8102645874
vt 0.8388366699 0.8673553467
vt 0.8388366699 0.8913021088
vt 0.2510452271 0.8913021088
vt 0.2510452271 0.8673553467
vt 0.7639236450 0.8673553467
vt 0.7639236450 0.8913021088
vt 0.2510337830 0.8913021088
vt 0.2510337830 0.8673553467
vt 0.1761398315 0.8913021088
vt 0.1761398315 0.8673553467
vt 0.7668876648 0.8673553467
vt 0.7668876648 0.8913021088
vt 0.2539978027 0.8913021088
vt 0.2539978027 0.8673553467
vt 0.7460021973 0.8388366699
vt 0.7296409607 0.8214874268
vt 0.7465782166 0.2674026489
vt 0.7639236450 0.2510452271
vt 0.2673950195 0.2534255981
vt 0.2510337830 0.2360763550
vt 0.2504577637 0.8075027466
vt 0.2331123352 0.8238601685
vt 0.7141113281 0.8050231934
vt 0.7301177979 0.2829360962
vt 0.2829132080 0.2698822021
vt 0.2669219971 0.7919845581
vt 0.8050231934 1.1032962799
vt 0.8050231934 1.1545562744
vt 0.2829360962 1.1545562744
vt 0.2829360962 1.1033020020
vt 0.7301177979 1.1033020020
vt 0.7301177979 1.1545562744
vt 0.2829132080 1.1545562744
vt 0.2829132080 1.1033020020
vt 0.2080154419 1.1545562744
vt 0.2080154419 1.1032962799
vt 0.7330780029 1.1032962799
vt 0.7330780029 1.1545562744
vt 0.2858886719 1.1545562744
vt 0.2858886719 1.1032962799
vt 0.2858886719 0.8050231934
vt 0.2713317871 0.8204574585
vt 0.2544517517 0.2683792114
vt 0.2698822021 0.2829360962
vt 0.7316436768 0.2544479370
vt 0.7170867920 0.2698822021
vt 0.7485237122 0.8065261841
vt 0.7330780029 0.7919845581
vt 0.8204574585 1.1545562744
vt 0.8384628296 1.2078895569
vt 0.2513961792 1.2078895569
vt 0.2683792114 1.1545562744
vt 0.7455482483 1.1545562744
vt 0.7635536194 1.2078895569
vt 0.2513771057 1.2078895569
vt 0.2683563232 1.1545562744
vt 0.7455520630 1.1545562744
vt 0.7635574341 1.2078895569
vt 0.1764907837 1.2078895569
vt 0.1934738159 1.1545562744
vt 0.7485237122 1.1545562744
vt 0.7665214539 1.2078895569
vt 0.2543487549 1.2078895569
vt 0.2713317871 1.1545562744
vt 0.7456512451 0.8384628296
vt 0.7281837463 0.8199386597
vt 0.7450332642 0.2688598633
vt 0.7635536194 0.2513961792
vt 0.2688446045 0.2549667358
vt 0.2513771057 0.2364425659
vt 0.2519950867 0.8060379028
vt 0.2334785461 0.8235092163
vt 0.8214874268 0.8913021088
vt 0.8214874268 1.1032962799
vt 0.2674026489 1.1033020020
vt 0.2674026489 0.8913021088
vt 0.7465782166 0.8913021088
vt 0.7465782166 1.1033020020
vt 0.2673950195 1.1033020020
vt 0.2673950195 0.8913021088
vt 0.7465744019 0.8913021088
vt 0.7465744019 1.1033020020
vt 0.1924972534 1.1032962799
vt 0.1924972534 0.8913021088
vt 0.7495422363 0.8913021088
vt 0.7495422363 1.1032962799
vt 0.2703590393 1.1032962799
vt 0.2703590393 0.8913021088
vt 0.1800613403 1.2078895569
vt 0.7311401367 1.2078895569
vt 0.7311401367 1.2748222351
vt 0.1800613403 1.2748222351
vt 0.2549667358 1.2078895569
vt 0.7311553955 1.2078895569
vt 0.7311553955 1.2748222351
vt 0.2549667358 1.2748222351
vt 0.8060379028 1.2078895569
vt 0.8060379028 1.2748222351
vt 0.2519950867 1.2078895569
vt 0.7281837463 1.2078895569
vt 0.7281837463 1.2748222351
vt 0.2519950867 1.2748222351
vt 0.2718162537 0.8199386597
vt 0.2549667358 0.2688598633
vt 0.3158073425 0.3262557983
vt 0.3292083740 0.7591018677
vt 0.7311553955 0.2549667358
vt 0.6737632751 0.3158035278
vt 0.7480049133 0.8060379028
vt 0.6871757507 0.7486495972
vt 0.6701812744 1.3404693604
vt -0.0116882324 1.3374481201
vt -0.0101318359 0.3414916992
vt 0.6717147827 0.3444824219
# 145 texture verticies
vn 0.00000 0.00000 1.00000
vn -0.29731 0.76038 0.57743
vn -0.76049 -0.29733 0.57728
vn 0.29728 -0.76040 0.57742
vn 0.76049 0.29733 0.57728
vn -0.15539 0.39744 0.90438
vn -0.39682 -0.15514 0.90469
vn 0.15539 -0.39745 0.90437
vn 0.39681 0.15514 0.90470
vn -0.29731 0.76039 0.57742
vn -0.76048 -0.29736 0.57728
vn 0.29732 -0.76039 0.57742
vn 0.76048 0.29735 0.57728
vn -0.29731 0.76039 -0.57742
vn -0.76048 -0.29736 -0.57728
vn 0.29732 -0.76039 -0.57742
vn 0.76048 0.29735 -0.57728
vn 0.00000 0.00000 -1.00000
vn 0.00001 0.00000 -1.00000
vn -0.15538 0.39748 -0.90436
vn -0.39680 -0.15510 -0.90471
vn -0.00000 0.00001 -1.00000
vn 0.15539 -0.39747 -0.90436
vn 0.00001 0.00000 -1.00000
vn 0.39679 0.15513 -0.90471
vn -0.15538 0.39748 0.90436
vn -0.39680 -0.15511 0.90471
vn 0.15538 -0.39747 0.90436
vn 0.39679 0.15512 0.90471
vn -0.22845 0.58465 0.77845
vn -0.58483 -0.22844 0.77832
vn 0.22849 -0.58470 0.77840
vn 0.58489 0.22846 0.77828
vn -0.33816 0.86455 -0.37176
vn -0.86459 -0.33817 -0.37165
vn 0.33812 -0.86454 -0.37182
vn 0.86457 0.33816 -0.37170
vn -0.36413 0.93135 0.00000
vn -0.36413 0.93135 0.00000
vn -0.93135 -0.36412 0.00000
vn -0.93135 -0.36412 0.00000
vn 0.36412 -0.93135 0.00000
vn 0.36412 -0.93135 0.00000
vn 0.93135 0.36413 0.00000
vn 0.93135 0.36413 0.00000
vn 0.36411 -0.93136 0.00000
vn 0.93135 0.36412 0.00000
vn 0.82815 0.32381 0.45752
vn 0.32377 -0.82813 0.45758
vn -0.36412 0.93135 0.00000
vn -0.32378 0.82812 0.45758
vn -0.93136 -0.36411 0.00000
vn -0.82816 -0.32381 0.45749
vn 0.37220 0.14515 0.91673
vn 0.14505 -0.37232 0.91670
vn -0.14503 0.37232 0.91670
vn -0.37227 -0.14522 0.91669
# 57 normals
usemtl Chimney
f  498/861/560 499/862/561 500/863/562 501/864/560
f  501/864/560 500/863/562 502/865/563 503/866/560
f  503/866/560 502/865/563 504/867/564 505/868/560
f  505/868/560 504/867/564 499/862/561 498/861/560
f  499/869/561 506/870/565 507/871/566 500/872/562
f  500/873/562 507/874/566 508/875/567 502/876/563
f  502/877/563 508/874/567 509/878/568 504/879/564
f  504/880/564 509/881/568 506/882/565 499/883/561
f  506/884/565 510/885/569 511/886/570 507/887/566
f  507/887/566 511/886/570 512/888/571 508/889/567
f  508/889/567 512/888/571 513/890/572 509/891/568
f  509/891/568 513/890/572 510/885/569 506/884/565
f  510/892/569 514/893/573 515/894/574 511/895/570
f  511/896/570 515/897/574 516/898/575 512/899/571
f  512/896/571 516/897/575 517/900/576 513/901/572
f  513/902/572 517/903/576 514/904/573 510/905/569
f  514/906/573 518/907/577 519/908/577 515/909/574
f  515/909/574 519/908/577 520/910/577 516/911/575
f  516/911/575 520/910/577 521/912/577 517/913/576
f  517/913/576 521/912/577 518/907/577 514/906/573
f  522/907/578 523/914/579 524/915/580 525/908/581
f  525/908/581 524/915/580 526/916/582 527/910/583
f  527/910/583 526/916/582 528/917/584 529/912/581
f  529/912/581 528/917/584 523/914/579 522/907/578
f  523/918/579 530/919/585 531/920/586 524/921/580
f  524/922/580 531/923/586 532/924/587 526/925/582
f  526/922/582 532/923/587 533/926/588 528/927/584
f  528/928/584 533/929/588 530/930/585 523/931/579
f  530/932/585 534/933/589 535/934/590 531/935/586
f  531/935/586 535/934/590 536/936/591 532/937/587
f  532/937/587 536/936/591 537/938/592 533/939/588
f  533/939/588 537/938/592 534/933/589 530/932/585
f  534/940/589 538/941/593 539/942/594 535/943/590
f  535/944/590 539/945/594 540/946/595 536/947/591
f  536/948/591 540/949/595 541/950/596 537/951/592
f  537/952/592 541/953/596 538/954/593 534/955/589
f  538/956/593 542/957/577 543/958/577 539/959/594
f  539/959/594 543/958/577 544/960/577 540/961/595
f  540/961/595 544/960/577 545/962/577 541/963/596
f  541/963/596 545/962/577 542/957/577 538/956/593
f  518/964/597 522/965/598 525/966/599 519/967/600
f  519/968/600 525/969/599 527/970/601 520/971/602
f  520/972/602 527/973/601 529/974/603 521/975/604
f  521/976/604 529/977/603 522/978/598 518/979/597
f  542/980/605 543/981/606 546/982/607 547/983/608
f  543/984/606 544/985/609 548/986/610 546/987/607
f  544/984/609 545/988/611 549/989/612 548/987/610
f  545/990/611 542/991/605 547/992/608 549/993/612
f  547/994/608 546/995/607 550/996/613 551/997/614
f  546/995/607 548/998/610 552/999/615 550/996/613
f  549/1000/612 547/994/608 551/997/614 553/1001/616
f  548/998/610 549/1000/612 553/1001/616 552/999/615
usemtl Chimney_top
f  553/1002/560 551/1003/560 550/1004/560 552/1005/560
