# 3ds Max Wavefront OBJ Exporter v0.94b - (c)2007 guruware
# File Created: 13.11.2010 18:37:18

mtllib Viru21a-origo.mtl

#
# object Viru21a
#

v  542577.526703 6588996.02953 14.483363
v  542579.217499 6589000.77858 14.485048
v  542578.099945 6589001.19842 12.801382
v  542576.402222 6588996.42987 12.799420
v  542579.368683 6588998.34311 12.579988
v  542580.129059 6589000.47889 12.580290
v  542580.348938 6589000.39773 12.801381
v  542578.43042 6588995.70778 12.579420
v  542578.651184 6588995.62917 12.799421
v  542577.566376 6588999.00102 12.579986
v  542576.622986 6588996.35127 12.579420
v  542578.321625 6589001.12239 12.580292
v  542578.330109 6589001.14616 10.527416
v  542578.015503 6589000.26251 10.889532
v  542578.015503 6589000.26251 12.056292
v  542577.566376 6588999.00102 10.526772
v  542577.312897 6588998.28905 10.889532
v  542577.312897 6588998.28905 12.056292
v  542577.811951 6588999.69078 10.889532
v  542577.811951 6588999.69077 12.056292
v  542579.822937 6588999.61902 10.889532
v  542579.619385 6588999.04728 10.889532
v  542579.368683 6588998.34311 10.526775
v  542580.137543 6589000.50267 10.527414
v  542579.619385 6588999.04728 12.056292
v  542579.822937 6588999.61902 12.056292
v  542577.109344 6588997.71731 10.889532
v  542576.622986 6588996.35127 10.526207
v  542577.109344 6588997.71731 12.056292
v  542578.916779 6588997.07381 10.889532
v  542578.43042 6588995.70778 10.526207
v  542579.120331 6588997.64555 10.889532
v  542578.916779 6588997.07381 12.056292
v  542579.120331 6588997.64555 12.056292
v  542579.210876 6588997.89992 9.475525
v  542579.369049 6588998.34415 9.746751
v  542578.43042 6588995.70778 8.190302
v  542578.810333 6588996.77483 8.188202
v  542578.922455 6588997.08982 8.659763
v  542579.058807 6588997.47276 9.086266
v  542577.73996 6588999.48861 9.475524
v  542577.571716 6588999.01601 9.746752
v  542578.339722 6589001.17322 8.190873
v  542578.140533 6589000.61369 8.188202
v  542578.028381 6589000.2987 8.659764
v  542577.892029 6588999.91576 9.086266
v  542577.002869 6588997.41832 8.188202
v  542578.809814 6588996.77342 6.187661
v  542577.00238 6588997.41692 6.187660
v  542579.947968 6588999.9702 8.188202
v  542578.141022 6589000.6151 6.188344
v  542579.948456 6588999.9716 6.188343
v  542579.835815 6588999.65521 8.659764
v  542579.699463 6588999.27226 9.086266
v  542579.547394 6588998.84511 9.475525
v  542577.403442 6588998.54341 9.475525
v  542577.251373 6588998.11626 9.086266
v  542577.115021 6588997.73332 8.659764
v  542580.147156 6589000.52972 8.190873
v  542576.622986 6588996.35127 8.190303
v  542578.008057 6588999.83472 11.846291
v  542578.076508 6589000.02702 11.846292
v  542578.076508 6589000.02702 11.099532
v  542578.008057 6588999.83472 11.099532
v  542577.30545 6588997.86125 11.846292
v  542577.373901 6588998.05356 11.846292
v  542577.373901 6588998.05356 11.099532
v  542577.30545 6588997.86125 11.099532
v  542579.636353 6588999.47168 11.846292
v  542579.567902 6588999.27938 11.846292
v  542579.567871 6588999.27938 11.099532
v  542579.636353 6588999.47168 11.099532
v  542578.933746 6588997.49821 11.846292
v  542578.865295 6588997.30591 11.846292
v  542578.865295 6588997.30591 11.099532
v  542578.933746 6588997.49821 11.099532
v  542578.43042 6588995.70778 6.187433
v  542578.347992 6589001.1964 6.189353
v  542580.155426 6589000.55291 6.189353
v  542576.622986 6588996.35127 6.187433
v  542578.589935 6588995.77268 6.179853
v  542578.589935 6588995.77268 10.826504
v  542578.905273 6588994.96434 10.826504
v  542578.905273 6588994.96434 6.179853
v  542577.955109 6588996.36417 6.179853
v  542577.955109 6588996.36417 10.826504
v  542577.126526 6588996.62164 6.179853
v  542577.126526 6588996.62164 10.826504
v  542576.26828 6588996.4941 6.179853
v  542576.26828 6588996.4941 10.826504
v  542575.550385 6588996.0068 6.179853
v  542575.550385 6588996.0068 10.826504
v  542575.435028 6588995.80795 6.179853
v  542575.435028 6588995.80795 10.826504
v  542576.827087 6588992.73388 6.179853
v  542576.827087 6588992.73388 10.826504
v  542575.998505 6588992.99135 10.826504
v  542575.998505 6588992.99135 6.179853
v  542577.685333 6588992.86142 6.179853
v  542577.685333 6588992.86142 10.826504
v  542578.403229 6588993.34871 6.179853
v  542578.403229 6588993.34871 10.826504
v  542578.838623 6588994.09924 6.179853
v  542578.838623 6588994.09924 10.826504
v  542578.589935 6588995.77268 15.659156
v  542578.905273 6588994.96434 15.659156
v  542577.955109 6588996.36417 15.659156
v  542577.126526 6588996.62164 15.659156
v  542576.26828 6588996.4941 15.659156
v  542575.550385 6588996.0068 14.579286
v  542575.550385 6588996.0068 15.659156
v  542575.363678 6588993.58283 10.826504
v  542575.363678 6588993.58283 15.659156
v  542575.03067 6588994.39519 15.659156
v  542575.023926 6588994.39672 14.607405
v  542575.0401 6588994.39304 12.102612
v  542575.04834 6588994.39117 10.826504
v  542575.998505 6588992.99135 14.029844
v  542575.998505 6588992.99135 15.659156
v  542575.998505 6588992.99135 11.904918
v  542576.975037 6588993.21008 14.029844
v  542576.146454 6588993.46755 14.029844
v  542576.146454 6588993.46755 11.904918
v  542576.975037 6588993.21008 11.904918
v  542577.685333 6588992.86142 15.659156
v  542576.827087 6588992.73388 15.659156
v  542576.827087 6588992.73388 14.029844
v  542576.827087 6588992.73388 11.904918
v  542578.403229 6588993.34871 15.659156
v  542578.905273 6588994.96434 18.407881
v  542578.589935 6588995.77268 18.407881
v  542578.834106 6588995.93841 18.737881
v  542579.197144 6588995.00771 18.737881
v  542577.955109 6588996.36417 18.407881
v  542578.10318 6588996.61942 18.737881
v  542577.126526 6588996.62164 18.407881
v  542577.1492 6588996.91585 18.737881
v  542576.26828 6588996.4941 18.407881
v  542576.161041 6588996.769 18.737881
v  542575.550385 6588996.0068 18.407881
v  542575.334473 6588996.20796 18.737881
v  542575.11499 6588995.25628 18.407881
v  542574.833191 6588995.34385 18.737881
v  542575.04834 6588994.39117 18.407881
v  542574.75647 6588994.3478 18.737881
v  542575.363678 6588993.58283 18.407881
v  542575.119507 6588993.41711 18.737881
v  542575.998505 6588992.99135 18.407881
v  542575.850403 6588992.7361 18.737881
v  542576.827087 6588992.73388 18.407881
v  542576.804413 6588992.43967 18.737881
v  542577.685333 6588992.86142 18.407881
v  542577.792572 6588992.58651 18.737881
v  542578.403229 6588993.34871 18.407881
v  542578.619141 6588993.14755 18.737881
v  542578.838623 6588994.09924 18.407881
v  542579.120422 6588994.01167 18.737881
v  542576.976807 6588994.67776 22.837879
v  542576.131195 6588994.01211 10.464248
v  542576.131195 6588994.01211 7.923000
v  542576.131195 6588994.01211 6.179853
v  542575.275757 6588994.31158 7.923043
v  542575.275757 6588994.31158 6.179853
v  542573.580322 6588994.81201 6.177117
v  542574.169159 6588994.81921 10.821526
v  542574.549072 6588995.95438 10.821877
v  542573.948792 6588996.08821 6.177117
v  542575.04834 6588994.39117 6.179853
v  542575.090576 6588995.26361 15.659156
v  542575.081329 6588995.2664 14.617133
v  542574.440918 6588995.20233 11.952380
v  542574.761902 6588995.11064 12.095697
v  542578.838623 6588994.09924 15.659156
v  542578.848755 6588994.23082 16.329872
v  542578.848755 6588994.23082 17.360188
v  542578.83847 6588994.09898 14.113490
v  542578.543976 6588993.59133 14.113490
v  542578.83847 6588994.09898 15.143809
v  542577.806732 6588992.94382 16.329872
v  542577.806732 6588992.94382 17.360191
v  542578.891693 6588994.78814 16.329872
v  542578.891693 6588994.78814 17.360188
v  542578.543976 6588993.59133 15.143808
v  542578.269196 6588993.25774 16.329872
v  542578.269196 6588993.25774 17.360188
v  542575.573578 6588994.47324 14.568707
v  542575.630981 6588995.34291 14.578435
v  542575.311584 6588995.18716 12.056999
v  542575.589752 6588994.46957 12.063913
# 189 vertices

vn -0.757604 0.269525 0.594468
vn -0.757657 0.269511 0.594407
vn 0.632071 -0.224933 -0.741547
vn 0.631837 -0.224797 -0.741787
vn 0.630412 -0.224151 -0.743194
vn -0.630265 0.224543 -0.743200
vn -0.629990 0.224396 -0.743478
vn -0.631942 0.225281 -0.741551
vn 0.757466 -0.269912 0.594468
vn 0.757519 -0.269899 0.594407
vn -0.942075 0.335403 0.000000
vn -0.942075 0.335404 0.000000
vn -0.942074 0.335404 0.000000
vn 0.942075 -0.335403 -0.000001
vn 0.942075 -0.335404 0.000001
vn 0.942074 -0.335404 -0.000000
vn 0.942075 -0.335404 -0.000000
vn 0.942075 -0.335404 0.000000
vn -0.942075 0.335403 -0.000001
vn 0.942075 -0.335403 -0.000000
vn 0.942075 -0.335403 0.000000
vn -0.942075 0.335403 0.000001
vn 0.942076 -0.335400 -0.000003
vn -0.942074 0.335404 0.000001
vn 0.335403 0.942074 -0.000776
vn -0.335403 -0.942074 -0.000776
vn -0.269689 -0.757496 -0.594531
vn -0.237897 -0.668200 -0.704921
vn -0.213179 -0.598772 -0.772027
vn -0.147368 -0.413925 -0.898303
vn -0.161185 -0.431193 -0.887746
vn 0.169131 0.452451 -0.875605
vn 0.154382 0.433625 -0.887770
vn 0.213179 0.598773 -0.772027
vn 0.237897 0.668200 -0.704921
vn 0.942075 -0.335403 0.000001
vn 0.942074 -0.335404 -0.000001
vn 0.942074 -0.335404 0.000001
vn 0.942075 -0.335404 -0.000001
vn -0.942075 0.335403 -0.000000
vn 0.942075 -0.335402 -0.000001
vn 0.942074 -0.335404 0.000000
vn 0.942074 -0.335405 -0.000000
vn -0.591721 0.806143 0.000001
vn -0.591719 0.806144 0.000000
vn -0.779876 0.277656 -0.560982
vn -0.779876 0.277657 -0.560981
vn -0.968031 -0.250830 0.000000
vn -0.779876 0.277656 0.560982
vn -0.591720 0.806144 0.000000
vn -0.591720 0.806143 0.000001
vn -0.779875 0.277657 0.560983
vn 0.619752 -0.784798 -0.000000
vn 0.619752 -0.784797 0.000000
vn 0.798010 -0.284113 -0.531470
vn 0.976267 0.216572 0.000000
vn 0.976267 0.216570 -0.000000
vn 0.798010 -0.284112 0.531470
vn 0.798009 -0.284113 0.531471
vn 0.619754 -0.784796 -0.000000
vn 0.798010 -0.284112 -0.531470
vn 0.798011 -0.284114 -0.531467
vn 0.976267 0.216571 0.000000
vn 0.798011 -0.284113 0.531469
vn 0.798010 -0.284113 0.531470
vn 0.269689 0.757496 -0.594531
vn 0.269689 0.757496 -0.594532
vn 0.931629 0.363410 -0.000000
vn 0.931629 0.363411 0.000000
vn 0.681691 0.731641 -0.000000
vn 0.296735 0.954960 0.000000
vn 0.296735 0.954960 -0.000000
vn -0.146992 0.989138 0.000000
vn -0.561606 0.827404 0.000000
vn -0.561606 0.827405 0.000000
vn -0.864987 0.501794 0.000000
vn -0.296735 -0.954960 0.000000
vn 0.146992 -0.989138 0.000000
vn 0.561606 -0.827405 -0.000000
vn 0.561606 -0.827404 0.000000
vn 0.864987 -0.501794 0.000000
vn 0.864987 -0.501794 -0.000000
vn 0.997047 -0.076797 -0.000000
vn 0.997047 -0.076797 0.000000
vn 0.931629 0.363411 -0.000000
vn 0.931629 0.363410 0.000000
vn 0.681691 0.731640 0.000000
vn 0.681691 0.731641 0.000000
vn -0.561606 0.827405 -0.000000
vn -0.925281 -0.379283 -0.000000
vn -0.221138 -0.975243 0.000000
vn -0.929891 -0.367827 -0.002339
vn -0.931614 -0.363405 -0.005723
vn -0.681691 -0.731640 0.000000
vn -0.681691 -0.731640 -0.000000
vn 0.561606 -0.827404 -0.000000
vn 0.689350 0.268902 -0.672673
vn 0.504410 0.541370 -0.672673
vn 0.219566 0.706613 -0.672673
vn -0.108765 0.731902 -0.672673
vn -0.108765 0.731903 -0.672673
vn -0.415555 0.612230 -0.672673
vn -0.640039 0.371298 -0.672673
vn -0.640039 0.371297 -0.672673
vn -0.737755 0.056825 -0.672673
vn -0.689350 -0.268902 -0.672673
vn -0.689349 -0.268902 -0.672673
vn -0.504410 -0.541370 -0.672673
vn -0.504411 -0.541370 -0.672673
vn -0.219566 -0.706613 -0.672673
vn 0.108766 -0.731903 -0.672673
vn 0.108766 -0.731902 -0.672673
vn 0.415555 -0.612230 -0.672673
vn 0.640038 -0.371297 -0.672673
vn 0.640039 -0.371298 -0.672673
vn 0.737755 -0.056825 -0.672673
vn 0.814027 0.317536 0.486344
vn 0.595639 0.639284 0.486344
vn 0.259278 0.834413 0.486344
vn -0.128437 0.864276 0.486344
vn -0.490713 0.722959 0.486344
vn -0.755798 0.438451 0.486344
vn -0.871187 0.067103 0.486344
vn -0.814027 -0.317536 0.486344
vn -0.595640 -0.639283 0.486344
vn -0.259278 -0.834413 0.486344
vn 0.128437 -0.864276 0.486344
vn 0.490713 -0.722959 0.486344
vn 0.755798 -0.438451 0.486344
vn 0.871187 -0.067102 0.486344
vn -0.991655 0.128916 0.000000
vn -0.991656 0.128916 0.000000
vn -0.330404 -0.943840 0.000000
vn -0.330404 -0.943839 0.000000
vn -0.261240 -0.280382 -0.923655
vn -0.345117 -0.134624 -0.928854
vn -0.941001 0.314906 0.123899
vn -0.951759 0.274802 0.136524
vn -0.275568 -0.961282 -0.000000
vn -0.437219 -0.897401 0.059255
vn 1.000000 0.000000 0.000000
vn 0.163079 0.986613 0.000000
vn 0.185299 0.982672 0.004552
vn -0.997585 0.068810 0.009428
vn -0.997810 0.065798 0.006790
vn -0.313446 -0.944088 0.102219
vn -0.850368 0.526105 0.009337
vn -0.844756 0.535151 -0.000000
vn -0.932354 -0.361503 -0.005731
vn 0.954960 -0.296735 0.000000
vn 0.000000 0.000000 1.000000
vn -0.954960 0.296735 0.000000
vn 0.000000 0.000000 -1.000000
vn -0.931614 -0.363404 0.005694
vn -0.925281 -0.379283 0.000000
vn 0.146992 -0.989138 -0.000000
vn -0.997002 0.076793 0.009445
vn -0.997607 0.068812 0.006793
vn -0.296735 -0.954960 -0.000000
vn 0.997047 -0.076800 -0.000000
vn 0.997047 -0.076798 0.000000
vn 0.864988 -0.501793 0.000000
vn 0.997047 -0.076797 -0.000258
vn 0.561608 -0.827403 -0.000000
vn -0.330404 -0.943839 -0.000000
vn -0.330404 -0.943840 -0.000000
vn 0.997047 -0.076796 0.000000
vn 0.997047 -0.076795 -0.000000
vn 0.864987 -0.501795 0.000000
vn 0.864987 -0.501794 0.000001
vn 0.864988 -0.501793 -0.000000
vn 0.997035 -0.076943 0.000000
vn 0.997035 -0.076944 -0.000000
vn 0.997047 -0.076797 0.000041
vn 0.561605 -0.827406 0.000000
vn 0.561606 -0.827405 0.000000
vn -0.404218 -0.825893 0.393075
vn -0.940923 0.314879 0.124562
vn 0.163080 0.984808 -0.059645
vn -0.824513 0.531802 0.193299
vn -0.858346 0.457689 0.231867
vn -0.989882 0.063989 0.126643
vn -0.138041 0.990423 -0.002444
vn -0.069472 0.015286 -0.997467
vn 0.140727 -0.989020 0.045116
vn 0.062679 0.033517 0.997471
vn 0.335376 0.941997 0.012818
vn 0.335377 0.941997 0.012818
vn 0.335377 0.941997 0.012819
vn 0.335378 0.941997 0.012817
vn 0.335375 0.941998 0.012817
# 191 vertex normals

vt 2.456972 -0.059738 0.000000
vt 0.005459 -0.059738 0.000000
vt 0.005375 0.926216 0.000000
vt 2.456887 0.926814 0.000000
vt 0.460995 0.998190 0.000000
vt 0.789192 0.997447 0.000000
vt 0.777020 0.263343 0.000000
vt 0.055569 0.999135 0.000000
vt 0.055568 0.265027 0.000000
vt 2.456887 0.926813 0.000000
vt 0.005374 0.926216 0.000000
vt 0.998289 0.920939 0.000000
vt 0.998764 0.510364 0.000000
vt 0.817252 0.582813 0.000000
vt 0.817252 0.816126 0.000000
vt 0.552673 0.920847 0.000000
vt 0.552699 0.510274 0.000000
vt 0.407785 0.582813 0.000000
vt 0.407785 0.816126 0.000000
vt 0.698032 0.584457 0.000000
vt 0.698032 0.817770 0.000000
vt 0.286520 0.582813 0.000000
vt 0.001670 0.510160 0.000000
vt 0.002198 0.920734 0.000000
vt 0.286519 0.816126 0.000000
vt 0.458780 0.300059 0.000000
vt 0.554370 0.354295 0.000000
vt 0.001670 0.043058 0.000000
vt 0.224174 0.042638 0.000000
vt 0.289858 0.136934 0.000000
vt 0.369709 0.222220 0.000000
vt 0.655875 0.300059 0.000000
vt 0.998764 0.043058 0.000000
vt 0.890482 0.042638 0.000000
vt 0.824798 0.136934 0.000000
vt 0.744947 0.222220 0.000000
vt 0.073913 0.456936 0.000000
vt 0.941651 0.456933 0.000000
vt 0.941654 0.003673 0.000000
vt 0.073916 0.003671 0.000000
vt 0.941655 0.589827 0.000000
vt 0.073917 0.589839 0.000000
vt 0.941664 0.726085 0.000000
vt 0.073926 0.726105 0.000000
vt 0.941677 0.864864 0.000000
vt 0.073942 0.864893 0.000000
vt 0.941702 0.998420 0.000000
vt 0.073951 0.998418 0.000000
vt 0.006024 0.057191 0.000000
vt 0.995404 0.057191 0.000000
vt 0.995402 0.924326 0.000000
vt 0.006024 0.924326 0.000000
vt 0.739958 0.774955 0.000000
vt 0.739958 0.625628 0.000000
vt 0.775293 0.774133 0.000000
vt 0.775293 0.624806 0.000000
vt 0.328445 0.774133 0.000000
vt 0.328446 0.624806 0.000000
vt 0.365825 0.774133 0.000000
vt 0.365825 0.624806 0.000000
vt 0.001670 0.178409 0.000000
vt 0.001670 0.578916 0.000000
vt 0.223881 0.578870 0.000000
vt 0.224174 0.178829 0.000000
vt 0.998764 0.178409 0.000000
vt 0.998764 0.578711 0.000000
vt 0.890774 0.578733 0.000000
vt 0.890482 0.178829 0.000000
vt 1.168162 0.001540 0.000000
vt 1.168159 0.999401 0.000000
vt 0.973866 0.999398 0.000000
vt 0.973868 0.001537 0.000000
vt 1.362455 0.001544 0.000000
vt 1.362452 0.999403 0.000000
vt 1.556744 0.001553 0.000000
vt 1.556743 0.999408 0.000000
vt 1.751023 0.001582 0.000000
vt 1.751031 0.999417 0.000000
vt 1.945311 0.001812 0.000000
vt 1.945263 0.999328 0.000000
vt 1.996793 0.002026 0.000000
vt 1.996639 0.999431 0.000000
vt 0.196677 0.001530 0.000000
vt 0.196674 0.999391 0.000000
vt 0.002372 0.999390 0.000000
vt 0.002375 0.001529 0.000000
vt 0.390978 0.001531 0.000000
vt 0.390974 0.999392 0.000000
vt 0.585276 0.001533 0.000000
vt 0.585274 0.999393 0.000000
vt 0.779573 0.001535 0.000000
vt 0.779571 0.999396 0.000000
vt 1.168155 2.037205 0.000000
vt 0.973862 2.037203 0.000000
vt 1.362449 2.037205 0.000000
vt 1.556744 2.037203 0.000000
vt 1.751042 2.037190 0.000000
vt 1.945429 1.805125 0.000000
vt 1.945347 2.037152 0.000000
vt -0.191929 0.999390 0.000000
vt -0.191932 2.037194 0.000000
vt -0.388531 2.037199 0.000000
vt -0.389422 1.811336 0.000000
vt -0.387296 1.273432 0.000000
vt -0.386213 0.999386 0.000000
vt 0.002370 1.687303 0.000000
vt 0.002369 2.037195 0.000000
vt 0.002372 1.230978 0.000000
vt 0.735411 0.782327 0.000000
vt 0.272412 0.782326 0.000000
vt 0.277421 0.219456 0.000000
vt 0.735415 0.218256 0.000000
vt 0.390970 2.037196 0.000000
vt 0.196670 2.037196 0.000000
vt 0.196672 1.687304 0.000000
vt 0.196673 1.230979 0.000000
vt 0.585268 2.037197 0.000000
vt 0.802234 0.002128 0.000000
vt 0.927643 0.002127 0.000000
vt 0.937134 0.997816 0.000000
vt 0.792743 0.997818 0.000000
vt 3.096763 -0.957937 0.000000
vt 3.584458 -0.904270 0.000000
vt 3.098882 1.265626 0.000000
vt 2.609171 -0.903341 0.000000
vt 0.991600 0.013231 0.000000
vt 0.991600 0.569972 0.000000
vt 0.717840 0.526578 0.000000
vt 0.717986 0.222077 0.000000
vt 0.717913 0.013231 0.000000
vt 0.996290 0.082142 0.000000
vt 0.996283 0.998898 0.000000
vt 0.001391 0.998919 0.000000
vt 0.001398 0.082140 0.000000
vt 0.878708 0.827738 0.000000
vt 0.988589 0.952969 0.000000
vt 0.762773 0.932642 0.000000
vt 0.573835 0.871019 0.000000
vt 0.719746 0.010274 0.000000
vt 0.716652 0.569663 0.000000
vt 0.412936 0.571354 0.000000
vt 0.412669 0.013413 0.000000
vt 0.008065 0.012487 0.000000
vt 0.413148 0.013195 0.000000
vt 0.412967 0.569859 0.000000
vt 0.153684 0.569404 0.000000
vt 0.152822 0.570150 0.000000
vt 0.152848 0.570419 0.000000
vt 0.006488 0.009281 0.000000
vt -0.583465 2.037766 0.000000
vt -0.584592 1.813985 0.000000
vt 0.307264 1.039926 0.000000
vt 0.173733 0.716710 0.000000
vt 0.261146 0.735345 0.000000
vt 2.141696 1.813379 0.000000
vt 2.141042 2.037155 0.000000
vt -0.559645 1.271932 0.000000
vt 0.012450 0.782326 0.000000
vt 0.012454 0.218255 0.000000
vt 0.267084 0.080219 0.000000
vt 0.740750 0.080220 0.000000
vt 0.990044 0.218257 0.000000
vt 0.990040 0.782328 0.000000
vt 0.740744 0.920363 0.000000
vt 0.267078 0.920362 0.000000
vt 1.168151 2.627490 0.000000
vt 0.973852 2.627488 0.000000
vt 1.362447 2.627488 0.000000
vt 1.556744 2.627482 0.000000
vt 1.751043 2.627467 0.000000
vt 1.945344 2.627449 0.000000
vt -0.191888 2.627474 0.000000
vt -0.386184 2.627491 0.000000
vt 0.002367 2.627479 0.000000
vt -0.191935 2.627479 0.000000
vt 0.390969 2.627481 0.000000
vt 0.196668 2.627481 0.000000
vt 0.779550 2.627485 0.000000
vt 0.585248 2.627481 0.000000
vt 0.779565 2.037201 0.000000
vt -0.580484 2.628071 0.000000
vt 2.139627 2.627456 0.000000
vt 0.809114 2.181236 0.000000
vt 0.809109 2.402495 0.000000
vt 0.779503 1.705272 0.000000
vt 0.648079 1.705269 0.000000
vt 0.779503 1.926531 0.000000
vt 0.423824 2.181231 0.000000
vt 0.423824 2.402490 0.000000
vt 0.477077 0.222046 0.000000
vt 0.477178 0.013185 0.000000
vt 0.934287 2.181237 0.000000
vt 0.934283 2.402497 0.000000
vt 0.648078 1.926528 0.000000
vt 0.548996 2.181232 0.000000
vt 0.585270 2.627481 0.000000
vt 0.548996 2.402490 0.000000
vt 0.995764 0.940999 1.000000
vt 0.007149 0.940999 1.000000
vt 0.007149 0.067921 1.000000
vt 0.995764 0.067922 1.000000
vt 0.606463 0.709548 0.000000
vt 0.270668 1.033340 0.000000
vt 0.503449 1.036428 0.000000
vt -0.173854 0.624368 0.000000
vt 0.245907 0.624366 0.000000
vt 0.247822 0.244058 0.000000
vt -0.171939 0.244058 0.000000
vt 0.250058 0.688024 0.000000
vt -0.169704 0.688024 0.000000
vt 0.252022 0.297958 0.000000
vt -0.167740 0.297958 0.000000
vt 0.303506 0.339968 0.000000
vt 0.043964 0.659880 0.000000
vt -0.218800 0.339966 0.000000
# 215 texture coords

g Viru21a
usemtl roof
f -189/-215/-191 -188/-214/-191 -187/-213/-191 
f -187/-213/-190 -186/-212/-190 -189/-215/-190 
usemtl 05___Default
f -185/-211/-189 -184/-210/-189 -183/-209/-189 
f -182/-208/-188 -185/-211/-188 -183/-209/-188 
f -182/-208/-187 -183/-209/-187 -181/-207/-187 
f -180/-211/-186 -179/-208/-186 -186/-207/-186 
f -178/-210/-185 -180/-211/-185 -186/-207/-185 
f -178/-210/-184 -186/-207/-184 -187/-209/-184 
usemtl roof
f -181/-206/-183 -183/-205/-183 -188/-214/-183 
f -188/-214/-182 -189/-215/-182 -181/-206/-182 
usemtl wall01
f -178/-204/-181 -177/-203/-181 -176/-202/-181 
f -176/-202/-180 -175/-201/-180 -178/-204/-180 
f -180/-200/-181 -174/-199/-181 -173/-198/-181 
f -173/-198/-180 -172/-197/-180 -180/-200/-180 
f -171/-196/-181 -174/-199/-181 -180/-200/-181 
f -180/-200/-179 -170/-195/-179 -171/-196/-179 
f -176/-202/-181 -177/-203/-181 -174/-199/-181 
f -174/-199/-181 -171/-196/-181 -176/-202/-181 
f -169/-202/-178 -168/-196/-178 -167/-199/-178 
f -167/-199/-177 -166/-203/-177 -169/-202/-177 
f -168/-196/-176 -165/-195/-176 -185/-200/-176 
f -185/-200/-175 -167/-199/-175 -168/-196/-175 
f -165/-195/-178 -164/-201/-178 -184/-204/-178 
f -184/-204/-174 -185/-200/-174 -165/-195/-174 
f -163/-194/-181 -162/-193/-181 -179/-192/-181 
f -179/-192/-181 -161/-191/-181 -163/-194/-181 
f -163/-194/-173 -173/-198/-173 -174/-199/-173 
f -174/-199/-181 -162/-193/-181 -163/-194/-181 
f -160/-194/-172 -159/-193/-172 -167/-199/-172 
f -167/-199/-171 -158/-198/-171 -160/-194/-171 
f -160/-194/-175 -157/-191/-175 -182/-192/-175 
f -182/-192/-172 -159/-193/-172 -160/-194/-172 
f -157/-191/-178 -156/-197/-178 -185/-200/-178 
f -185/-200/-171 -182/-192/-171 -157/-191/-171 
f -170/-195/-181 -180/-200/-181 -178/-204/-181 
f -178/-204/-170 -175/-201/-170 -170/-195/-170 
f -161/-191/-181 -179/-192/-181 -180/-200/-181 
f -180/-200/-170 -172/-197/-170 -161/-191/-170 
f -169/-202/-176 -166/-203/-176 -184/-204/-176 
f -184/-204/-175 -164/-201/-175 -169/-202/-175 
f -158/-198/-172 -167/-199/-172 -185/-200/-172 
f -185/-200/-172 -156/-197/-172 -158/-198/-172 
f -155/-190/-178 -154/-189/-178 -167/-199/-178 
f -167/-199/-172 -159/-193/-172 -153/-188/-172 
f -153/-188/-178 -152/-187/-178 -151/-186/-178 
f -167/-199/-174 -153/-188/-174 -151/-186/-174 
f -167/-199/-169 -151/-186/-169 -150/-185/-169 
f -155/-190/-178 -167/-199/-178 -150/-185/-178 
f -149/-184/-179 -148/-189/-179 -174/-199/-179 
f -174/-199/-181 -177/-203/-181 -147/-183/-181 
f -147/-183/-168 -146/-182/-168 -145/-181/-168 
f -174/-199/-180 -147/-183/-180 -145/-181/-180 
f -174/-199/-180 -145/-181/-180 -144/-180/-180 
f -149/-184/-181 -174/-199/-181 -144/-180/-181 
usemtl passage
f -143/-179/-167 -152/-178/-167 -142/-177/-167 
f -142/-177/-167 -141/-176/-167 -143/-179/-167 
f -140/-178/-166 -146/-179/-166 -139/-176/-166 
f -139/-176/-166 -138/-177/-166 -140/-178/-166 
f -146/-179/-165 -140/-178/-165 -137/-175/-165 
f -137/-175/-165 -145/-174/-165 -146/-179/-165 
f -145/-174/-164 -137/-175/-164 -136/-173/-164 
f -136/-173/-164 -144/-172/-164 -145/-174/-164 
f -144/-172/-163 -136/-173/-163 -135/-171/-163 
f -135/-171/-163 -149/-170/-163 -144/-172/-163 
f -149/-170/-162 -135/-171/-162 -154/-169/-162 
f -154/-169/-161 -148/-168/-161 -149/-170/-161 
f -148/-168/-160 -154/-169/-160 -155/-171/-160 
f -155/-171/-159 -134/-170/-159 -148/-168/-159 
f -134/-170/-158 -155/-171/-158 -150/-173/-158 
f -150/-173/-158 -133/-172/-158 -134/-170/-158 
f -133/-172/-157 -150/-173/-157 -151/-175/-157 
f -151/-175/-157 -132/-174/-157 -133/-172/-157 
usemtl wall01
f -137/-181/-156 -140/-182/-156 -131/-183/-156 
f -136/-180/-172 -137/-181/-172 -131/-183/-172 
f -135/-184/-155 -136/-180/-155 -131/-183/-155 
f -135/-184/-172 -131/-183/-172 -166/-203/-172 
f -154/-189/-154 -135/-184/-154 -166/-203/-154 
f -154/-189/-153 -166/-203/-153 -167/-199/-153 
f -132/-186/-181 -143/-187/-181 -130/-188/-181 
f -133/-185/-181 -132/-186/-181 -130/-188/-181 
f -134/-190/-181 -133/-185/-181 -130/-188/-181 
f -134/-190/-181 -130/-188/-181 -162/-193/-181 
f -148/-189/-152 -134/-190/-152 -162/-193/-152 
f -148/-189/-181 -162/-193/-181 -174/-199/-181 
usemtl wnd02
f -129/-167/-181 -128/-166/-181 -127/-165/-181 
f -127/-165/-181 -126/-164/-181 -129/-167/-181 
f -125/-167/-181 -124/-166/-181 -123/-165/-181 
f -123/-165/-179 -122/-164/-179 -125/-167/-179 
f -121/-167/-151 -120/-166/-151 -119/-165/-151 
f -119/-165/-150 -118/-164/-150 -121/-167/-150 
f -117/-167/-149 -116/-166/-149 -115/-165/-149 
f -115/-165/-176 -114/-164/-176 -117/-167/-176 
usemtl wall01
f -171/-196/-148 -170/-195/-148 -129/-163/-148 
f -129/-163/-147 -126/-162/-147 -171/-196/-147 
f -170/-195/-146 -175/-201/-146 -128/-161/-146 
f -128/-161/-145 -129/-163/-145 -170/-195/-145 
f -175/-201/-144 -176/-202/-144 -127/-160/-144 
f -127/-160/-144 -128/-161/-144 -175/-201/-144 
f -176/-202/-143 -171/-196/-143 -126/-162/-143 
f -126/-162/-143 -127/-160/-143 -176/-202/-143 
f -163/-194/-142 -161/-191/-142 -125/-159/-142 
f -125/-159/-141 -122/-158/-141 -163/-194/-141 
f -161/-191/-146 -172/-197/-146 -124/-157/-146 
f -124/-157/-146 -125/-159/-146 -161/-191/-146 
f -172/-197/-144 -173/-198/-144 -123/-156/-144 
f -123/-156/-144 -124/-157/-144 -172/-197/-144 
f -173/-198/-143 -163/-194/-143 -122/-158/-143 
f -122/-158/-140 -123/-156/-140 -173/-198/-140 
f -169/-202/-139 -164/-201/-139 -121/-161/-139 
f -121/-161/-138 -118/-160/-138 -169/-202/-138 
f -164/-201/-137 -165/-195/-137 -120/-163/-137 
f -120/-163/-137 -121/-161/-137 -164/-201/-137 
f -165/-195/-136 -168/-196/-136 -119/-162/-136 
f -119/-162/-135 -120/-163/-135 -165/-195/-135 
f -168/-196/-134 -169/-202/-134 -118/-160/-134 
f -118/-160/-133 -119/-162/-133 -168/-196/-133 
f -158/-198/-132 -156/-197/-132 -117/-157/-132 
f -117/-157/-132 -114/-156/-132 -158/-198/-132 
f -156/-197/-131 -157/-191/-131 -116/-159/-131 
f -116/-159/-130 -117/-157/-130 -156/-197/-130 
f -157/-191/-129 -160/-194/-129 -115/-158/-129 
f -115/-158/-129 -116/-159/-129 -157/-191/-129 
f -160/-194/-128 -158/-198/-128 -114/-156/-128 
f -114/-156/-127 -115/-158/-127 -160/-194/-127 
f -153/-155/-172 -113/-154/-172 -142/-153/-172 
f -142/-153/-172 -152/-152/-172 -153/-155/-172 
f -147/-151/-179 -112/-150/-179 -139/-149/-179 
f -139/-149/-180 -146/-148/-180 -147/-151/-180 
usemtl passage
f -132/-174/-126 -151/-175/-126 -152/-178/-126 
f -152/-178/-125 -143/-179/-125 -132/-174/-125 
usemtl wall01
f -140/-148/-172 -138/-149/-172 -111/-150/-172 
f -111/-150/-172 -131/-151/-172 -140/-148/-172 
f -143/-152/-181 -141/-153/-181 -110/-154/-181 
f -110/-154/-181 -130/-155/-181 -143/-152/-181 
usemtl 04___Default
f -109/-147/-124 -108/-146/-124 -107/-145/-124 
f -107/-145/-123 -106/-144/-123 -109/-147/-123 
f -105/-143/-122 -104/-142/-122 -108/-146/-122 
f -108/-146/-122 -109/-147/-122 -105/-143/-122 
f -103/-141/-121 -102/-140/-121 -104/-142/-121 
f -104/-142/-120 -105/-143/-120 -103/-141/-120 
f -101/-139/-119 -100/-138/-119 -102/-140/-119 
f -102/-140/-119 -103/-141/-119 -101/-139/-119 
f -99/-137/-118 -98/-136/-118 -100/-138/-118 
f -100/-138/-117 -101/-139/-117 -99/-137/-117 
f -97/-135/-116 -96/-134/-116 -98/-136/-116 
f -98/-136/-116 -99/-137/-116 -97/-135/-116 
f -95/-133/-115 -94/-132/-115 -93/-131/-115 
f -93/-131/-115 -92/-130/-115 -95/-133/-115 
f -91/-129/-114 -90/-128/-114 -94/-132/-114 
f -94/-132/-114 -95/-133/-114 -91/-129/-114 
f -89/-127/-113 -88/-126/-113 -90/-128/-113 
f -90/-128/-112 -91/-129/-112 -89/-127/-112 
f -87/-125/-111 -86/-124/-111 -88/-126/-111 
f -88/-126/-110 -89/-127/-110 -87/-125/-110 
f -106/-144/-109 -107/-145/-109 -86/-124/-109 
f -86/-124/-108 -87/-125/-108 -106/-144/-108 
f -85/-123/-107 -84/-122/-107 -107/-145/-107 
f -107/-145/-106 -108/-146/-106 -85/-123/-106 
f -83/-121/-105 -85/-123/-105 -108/-146/-105 
f -108/-146/-104 -104/-142/-104 -83/-121/-104 
f -82/-120/-121 -83/-121/-121 -104/-142/-121 
f -104/-142/-121 -102/-140/-121 -82/-120/-121 
f -81/-119/-119 -82/-120/-119 -102/-140/-119 
f -102/-140/-119 -100/-138/-119 -81/-119/-119 
f -80/-118/-103 -79/-117/-103 -81/-119/-103 
f -98/-136/-117 -80/-118/-117 -81/-119/-117 
f -98/-136/-117 -81/-119/-117 -100/-138/-117 
f -78/-116/-102 -77/-115/-102 -76/-114/-102 
f -76/-114/-101 -75/-113/-101 -74/-112/-101 
f -78/-116/-100 -76/-114/-100 -74/-112/-100 
f -78/-116/-99 -74/-112/-99 -73/-111/-99 
f -72/-110/-98 -71/-109/-98 -77/-115/-98 
f -70/-108/-98 -72/-110/-98 -77/-115/-98 
f -93/-131/-98 -70/-108/-98 -77/-115/-98 
f -93/-131/-97 -77/-115/-97 -78/-116/-97 
usemtl wnd03
f -69/-107/-115 -68/-106/-115 -67/-105/-115 
f -67/-105/-115 -66/-104/-115 -69/-107/-115 
usemtl 04___Default
f -90/-128/-114 -65/-103/-114 -64/-102/-114 
f -90/-128/-114 -64/-102/-114 -63/-101/-114 
f -90/-128/-114 -63/-101/-114 -62/-100/-114 
f -90/-128/-114 -62/-100/-114 -94/-132/-114 
f -61/-99/-112 -65/-103/-112 -90/-128/-112 
f -90/-128/-96 -88/-126/-96 -61/-99/-96 
usemtl 05___Default
f -60/-98/-95 -59/-97/-95 -58/-96/-95 
f -58/-96/-95 -57/-95/-95 -60/-98/-95 
f -59/-98/-94 -56/-97/-94 -55/-96/-94 
f -55/-96/-94 -58/-95/-94 -59/-98/-94 
f -56/-98/-93 -54/-97/-93 -53/-96/-93 
f -53/-96/-93 -55/-95/-93 -56/-98/-93 
f -54/-98/-92 -52/-97/-92 -51/-96/-92 
f -51/-96/-91 -53/-95/-91 -54/-98/-91 
f -52/-98/-90 -50/-97/-90 -49/-96/-90 
f -49/-96/-90 -51/-95/-90 -52/-98/-90 
f -50/-98/-89 -48/-97/-89 -47/-96/-89 
f -47/-96/-88 -49/-95/-88 -50/-98/-88 
f -48/-98/-87 -46/-97/-87 -45/-96/-87 
f -45/-96/-87 -47/-95/-87 -48/-98/-87 
f -46/-98/-86 -44/-97/-86 -43/-96/-86 
f -43/-96/-85 -45/-95/-85 -46/-98/-85 
f -44/-98/-84 -42/-97/-84 -41/-96/-84 
f -41/-96/-83 -43/-95/-83 -44/-98/-83 
f -42/-98/-82 -40/-97/-82 -39/-96/-82 
f -39/-96/-82 -41/-95/-82 -42/-98/-82 
f -40/-98/-81 -38/-97/-81 -37/-96/-81 
f -37/-96/-80 -39/-95/-80 -40/-98/-80 
f -38/-98/-79 -36/-97/-79 -35/-96/-79 
f -35/-96/-79 -37/-95/-79 -38/-98/-79 
f -36/-98/-78 -34/-97/-78 -33/-96/-78 
f -33/-96/-77 -35/-95/-77 -36/-98/-77 
f -34/-98/-76 -60/-97/-76 -57/-96/-76 
f -57/-96/-76 -33/-95/-76 -34/-98/-76 
usemtl roof
f -57/-94/-75 -58/-93/-75 -32/-92/-75 
f -58/-91/-74 -55/-94/-74 -32/-92/-74 
f -55/-94/-73 -53/-93/-73 -32/-92/-73 
f -53/-91/-72 -51/-94/-72 -32/-92/-72 
f -51/-94/-71 -49/-93/-71 -32/-92/-71 
f -49/-91/-70 -47/-94/-70 -32/-92/-70 
f -47/-94/-69 -45/-93/-69 -32/-92/-69 
f -45/-91/-68 -43/-94/-68 -32/-92/-68 
f -43/-94/-67 -41/-93/-67 -32/-92/-67 
f -41/-91/-66 -39/-94/-66 -32/-92/-66 
f -39/-94/-65 -37/-93/-65 -32/-92/-65 
f -37/-91/-64 -35/-94/-64 -32/-92/-64 
f -35/-94/-63 -33/-93/-63 -32/-92/-63 
f -33/-91/-62 -57/-94/-62 -32/-92/-62 
usemtl wall02
f -92/-90/-61 -93/-89/-61 -31/-88/-61 
f -92/-90/-61 -31/-88/-61 -30/-87/-61 
f -92/-90/-60 -30/-87/-60 -29/-86/-60 
usemtl door01
f -29/-85/-59 -30/-84/-59 -28/-83/-59 
f -28/-83/-58 -27/-82/-58 -29/-85/-58 
usemtl wall02
f -31/-81/-57 -93/-80/-57 -78/-79/-57 
f -78/-79/-56 -73/-78/-56 -31/-81/-56 
f -26/-77/-55 -25/-76/-55 -24/-75/-55 
f -24/-75/-54 -23/-74/-54 -26/-77/-54 
f -26/-73/-53 -22/-72/-53 -73/-71/-53 
f -73/-71/-52 -25/-70/-52 -26/-73/-52 
f -24/-75/-51 -96/-69/-51 -96/-68/-51 
f -24/-75/-50 -96/-68/-50 -97/-67/-50 
f -23/-74/-49 -24/-75/-49 -97/-67/-49 
usemtl 04___Default
f -76/-114/-48 -21/-66/-48 -20/-65/-48 
f -20/-65/-47 -75/-113/-47 -76/-114/-47 
usemtl wall02
f -20/-64/-46 -19/-63/-46 -18/-62/-46 
usemtl 04___Default
f -20/-61/-45 -21/-60/-45 -79/-117/-45 
f -79/-117/-44 -80/-118/-44 -20/-61/-44 
f -98/-136/-51 -96/-134/-51 -96/-134/-51 
f -96/-134/-116 -80/-118/-116 -98/-136/-116 
f -64/-102/-115 -71/-109/-115 -72/-110/-115 
f -72/-110/-115 -63/-101/-115 -64/-102/-115 
f -93/-131/-115 -94/-132/-115 -62/-100/-115 
f -62/-100/-115 -70/-108/-115 -93/-131/-115 
f -18/-59/-43 -73/-111/-43 -74/-112/-43 
usemtl wnd03
f -72/-58/-42 -70/-57/-42 -67/-105/-42 
f -67/-105/-42 -68/-106/-42 -72/-58/-42 
f -70/-56/-41 -62/-55/-41 -66/-104/-41 
f -66/-104/-41 -67/-105/-41 -70/-56/-41 
f -62/-54/-40 -63/-53/-40 -69/-107/-40 
f -69/-107/-40 -66/-104/-40 -62/-54/-40 
f -63/-52/-39 -72/-51/-39 -68/-106/-39 
f -68/-106/-39 -69/-107/-39 -63/-52/-39 
usemtl 04___Default
f -59/-50/-123 -60/-49/-123 -84/-122/-123 
f -84/-122/-123 -85/-123/-123 -59/-50/-123 
f -56/-48/-104 -59/-50/-104 -85/-123/-104 
f -85/-123/-104 -83/-121/-104 -56/-48/-104 
f -54/-47/-121 -56/-48/-121 -83/-121/-121 
f -83/-121/-121 -82/-120/-121 -54/-47/-121 
f -52/-46/-119 -54/-47/-119 -82/-120/-119 
f -82/-120/-119 -81/-119/-119 -52/-46/-119 
f -50/-45/-117 -52/-46/-117 -81/-119/-117 
f -81/-119/-117 -79/-117/-117 -50/-45/-117 
f -44/-44/-38 -46/-43/-38 -76/-114/-38 
f -76/-114/-37 -77/-115/-37 -44/-44/-37 
f -42/-42/-98 -44/-41/-98 -77/-115/-98 
f -77/-115/-97 -71/-109/-97 -42/-42/-97 
f -38/-40/-36 -40/-39/-36 -64/-102/-36 
f -64/-102/-36 -65/-103/-36 -38/-40/-36 
f -34/-38/-111 -36/-37/-111 -61/-99/-111 
f -61/-99/-111 -17/-36/-111 -34/-38/-111 
f -46/-43/-35 -48/-35/-35 -21/-66/-35 
f -21/-66/-34 -76/-114/-34 -46/-43/-34 
f -48/-34/-116 -50/-45/-116 -79/-117/-116 
f -79/-117/-45 -21/-60/-45 -48/-34/-45 
f -40/-39/-33 -42/-42/-33 -71/-109/-33 
f -71/-109/-33 -64/-102/-33 -40/-39/-33 
f -16/-33/-32 -15/-32/-32 -34/-38/-32 
f -34/-38/-31 -17/-36/-31 -16/-33/-31 
f -86/-124/-30 -14/-31/-30 -13/-30/-30 
f -13/-30/-110 -88/-126/-110 -86/-124/-110 
f -84/-122/-29 -17/-36/-29 -12/-29/-29 
f -11/-28/-28 -10/-27/-28 -38/-40/-28 
f -38/-40/-28 -65/-103/-28 -11/-28/-28 
usemtl wall02
f -28/-26/-59 -30/-87/-59 -31/-88/-59 
f -28/-26/-27 -31/-88/-27 -73/-71/-27 
f -73/-71/-26 -22/-72/-26 -27/-25/-26 
f -28/-26/-59 -73/-71/-59 -27/-25/-59 
usemtl 04___Default
f -9/-24/-25 -84/-122/-25 -60/-49/-25 
f -60/-49/-24 -8/-23/-24 -9/-24/-24 
f -9/-24/-109 -16/-33/-109 -17/-36/-109 
f -17/-36/-109 -84/-122/-109 -9/-24/-109 
f -61/-99/-23 -88/-126/-23 -13/-30/-23 
f -13/-30/-23 -7/-22/-23 -61/-99/-23 
f -17/-36/-22 -61/-99/-22 -7/-22/-22 
f -7/-22/-21 -12/-29/-21 -17/-36/-21 
f -12/-29/-20 -14/-31/-20 -107/-145/-20 
f -107/-145/-19 -84/-122/-19 -12/-29/-19 
f -14/-31/-18 -86/-124/-18 -107/-145/-18 
f -6/-21/-17 -61/-99/-17 -36/-20/-17 
f -36/-20/-113 -5/-19/-113 -6/-21/-113 
f -6/-21/-16 -11/-28/-16 -65/-103/-16 
f -65/-103/-16 -61/-99/-16 -6/-21/-16 
f -8/-23/-108 -60/-49/-108 -34/-38/-108 
f -34/-38/-108 -15/-32/-108 -8/-23/-108 
f -5/-19/-96 -36/-20/-96 -38/-40/-96 
f -38/-40/-113 -10/-27/-113 -5/-19/-113 
usemtl wnd01
f -8/-18/-109 -15/-17/-109 -16/-16/-109 
f -16/-16/-109 -9/-15/-109 -8/-18/-109 
f -5/-18/-113 -10/-17/-113 -11/-16/-113 
f -11/-16/-113 -6/-15/-113 -5/-18/-113 
f -14/-15/-30 -12/-18/-30 -7/-17/-30 
f -7/-17/-30 -13/-16/-30 -14/-15/-30 
usemtl wall02
f -73/-71/-15 -18/-62/-15 -19/-63/-15 
f -19/-63/-15 -25/-70/-15 -73/-71/-15 
f -25/-76/-14 -19/-14/-14 -24/-75/-14 
f -24/-75/-13 -80/-13/-13 -96/-69/-13 
f -19/-14/-12 -20/-12/-12 -80/-13/-12 
f -80/-13/-11 -24/-75/-11 -19/-14/-11 
usemtl wnd03
f -4/-107/-10 -3/-106/-10 -2/-105/-10 
f -2/-105/-43 -1/-104/-43 -4/-107/-43 
f -74/-54/-9 -75/-53/-9 -4/-107/-9 
f -4/-107/-9 -1/-104/-9 -74/-54/-9 
f -75/-52/-8 -20/-51/-8 -3/-106/-8 
f -3/-106/-8 -4/-107/-8 -75/-52/-8 
f -20/-58/-7 -18/-57/-7 -2/-105/-7 
f -2/-105/-7 -3/-106/-7 -20/-58/-7 
f -18/-56/-6 -74/-55/-6 -1/-104/-6 
f -1/-104/-6 -2/-105/-6 -18/-56/-6 
usemtl wall01
f -111/-11/-5 -112/-10/-5 -147/-9/-5 
f -147/-9/-5 -131/-8/-5 -111/-11/-5 
f -131/-8/-5 -147/-9/-5 -177/-7/-5 
f -177/-7/-4 -166/-6/-4 -131/-8/-4 
f -166/-6/-3 -177/-7/-3 -178/-5/-3 
f -178/-5/-5 -184/-4/-5 -166/-6/-5 
f -178/-5/-2 -187/-3/-2 -188/-2/-2 
f -184/-4/-5 -178/-5/-5 -188/-2/-5 
f -183/-1/-1 -184/-4/-1 -188/-2/-1 
# 344 faces

