# 3ds Max Wavefront OBJ Exporter v0.97b - (c)2007 guruware
# File Created: 21.10.2011 19:59:05

mtllib Uus_13_1.mtl

#
# object Uus13_01
#

v  243.125259 163.352463 17.064968
v  234.461380 160.657959 17.339317
v  234.461380 160.657959 16.229420
v  243.125259 163.352463 16.229002
v  230.914871 171.606384 16.829378
v  230.914871 171.606384 16.229420
v  232.580063 166.373581 16.229420
v  232.580063 166.373581 16.829378
v  232.640564 166.390671 16.229420
v  230.975739 171.621872 16.229420
v  234.401230 160.639252 16.829380
v  234.401230 160.639236 16.229420
v  230.704254 171.552780 17.174496
v  230.704254 171.552780 17.055826
v  232.370667 166.314407 17.055826
v  232.370667 166.314407 17.174496
v  234.193069 160.574509 17.055828
v  230.570938 171.518860 17.339317
v  230.570938 171.518860 17.174496
v  232.238129 166.276962 17.174496
v  232.238129 166.276962 17.339317
v  234.193069 160.574509 17.174496
v  234.061295 160.533524 17.339317
v  234.061295 160.533524 17.174496
v  232.259476 169.428009 17.726528
v  233.399155 169.475143 18.163338
v  233.794540 169.663391 18.335566
v  232.996658 172.135757 18.331278
v  239.461182 174.809113 16.554907
v  239.461182 174.809113 16.229420
v  238.796783 176.844849 16.229420
v  238.796799 176.844849 16.554907
v  239.892136 173.287003 16.229000
v  239.952637 173.303284 16.229420
v  241.381317 168.925735 16.229420
v  241.320450 168.908493 16.229000
v  239.671585 174.862640 16.900023
v  239.671585 174.862640 16.781353
v  239.007843 176.895599 16.781353
v  239.007843 176.895599 16.900023
v  241.381317 168.925735 16.554905
v  239.952637 173.303284 16.554907
v  240.162323 173.359589 16.781353
v  241.590637 168.984879 16.781353
v  239.804779 174.896530 17.064842
v  239.804779 174.896530 16.900021
v  239.141434 176.927734 16.900021
v  239.141434 176.927719 17.064842
v  240.162323 173.359589 16.900023
v  240.295059 173.395233 16.900021
v  241.723145 169.022324 16.900023
v  241.590637 168.984879 16.900021
v  243.394485 163.436188 16.900023
v  243.526245 163.477173 16.900023
v  243.526245 163.477173 17.064844
v  243.186340 163.371460 16.229420
v  243.186340 163.371460 16.554907
v  243.394485 163.436188 16.781353
v  236.447998 161.275803 18.331278
v  238.834702 162.018082 19.323238
v  242.969284 163.853989 16.229000
v  241.401398 168.660370 15.773998
v  229.557938 176.058350 16.229328
v  230.362564 173.548569 15.504290
v  230.842636 172.040085 15.504290
v  229.499374 176.041824 16.831310
v  229.503647 176.044373 16.229460
v  234.245239 161.140778 16.229420
v  234.245239 161.140778 16.829378
v  234.305405 161.159485 16.229420
v  229.289795 175.987061 17.174143
v  229.294479 175.988556 17.052307
v  234.037079 161.076035 17.055826
v  234.037079 161.076035 17.174496
v  229.822845 173.870987 17.339317
v  229.161575 175.953659 17.340303
v  229.161316 175.953995 17.174248
v  233.905319 161.035049 17.174496
v  233.071716 163.656006 17.339317
v  233.808456 164.378998 17.708460
v  233.585846 165.082794 17.706493
v  233.363220 165.786606 17.704529
v  235.422363 172.752670 19.323236
v  234.574112 175.418320 19.323236
v  232.198486 174.644653 18.331272
v  243.030365 163.872986 16.554905
v  243.030365 163.872986 16.229420
v  243.238510 163.937714 16.900021
v  243.238510 163.937714 16.781353
v  243.370270 163.978699 17.064844
v  243.370270 163.978699 16.900023
v  241.723145 169.022324 17.064844
v  237.278946 166.918381 19.323236
v  240.099548 167.042648 18.062885
v  237.050537 167.636139 19.323236
v  234.461380 160.657944 6.085710
v  243.125259 163.352448 6.085710
v  232.462753 166.949417 13.387723
v  231.977325 168.474731 13.387723
v  230.975708 171.621979 6.085710
v  232.640564 166.390717 6.085710
v  242.969284 163.853973 6.085710
v  241.320435 168.908539 6.085710
v  241.320450 168.908508 15.638538
v  233.739975 162.936172 13.387723
v  233.258438 164.449219 13.387723
v  234.305405 161.159470 6.085710
v  239.400650 174.793686 16.229000
v  239.338165 174.985199 15.774000
v  238.736282 176.830276 16.229000
v  231.977325 168.474701 15.504290
v  232.462753 166.949402 15.504290
v  233.258438 164.449203 15.504290
v  233.739975 162.936172 15.504290
v  239.967133 173.057129 6.085710
v  239.967133 173.057098 9.468919
v  240.047974 172.809326 9.468919
v  240.047958 172.809357 6.085710
v  240.295059 173.395233 17.064842
v  243.424728 169.320404 15.050667
v  243.424728 169.320404 14.915205
v  241.990372 173.717453 14.915209
v  241.990372 173.717438 15.050669
v  239.967041 173.057404 15.774002
v  232.186249 168.365952 15.337290
v  232.186249 168.365967 13.554723
v  232.570389 167.158936 13.554723
v  232.570389 167.158920 15.337290
v  233.467361 164.340439 15.337290
v  233.467361 164.340454 13.554723
v  233.847595 163.145676 13.554723
v  233.847610 163.145676 15.337290
v  230.842636 172.040115 13.387723
v  230.950256 172.249619 13.554723
v  230.950272 172.249603 15.337290
v  230.571487 173.439819 15.337290
v  230.571472 173.439850 13.554723
v  232.027969 168.315582 13.554723
v  232.027969 168.315567 15.337290
v  232.412109 167.108551 13.554723
v  232.412109 167.108551 15.337290
v  233.309082 164.290070 15.337290
v  233.689331 163.095306 15.337290
v  233.309082 164.290085 13.554723
v  233.689331 163.095306 13.554723
v  230.791992 172.199219 15.337290
v  230.791992 172.199249 13.554723
v  230.413208 173.389450 15.337290
v  230.362549 173.548615 13.387723
v  230.413193 173.389465 13.554723
v  241.765335 173.369583 6.085711
v  240.047974 172.809311 12.489001
v  240.047974 172.809280 15.638538
v  241.765350 173.369507 15.019178
v  241.401398 168.660370 15.638538
v  243.037811 169.468765 6.085711
v  243.037827 169.468735 15.019178
v  239.967041 173.057419 15.638540
v  239.029846 175.262909 13.056100
v  238.624115 176.506683 13.056100
v  238.624100 176.506729 15.206902
v  239.029800 175.263031 15.206902
v  239.694061 174.863190 17.118946
v  240.184601 173.360931 17.118834
v  238.624100 176.506744 6.994873
v  238.624115 176.506714 8.922883
v  239.029846 175.262909 8.922883
v  239.029846 175.262924 6.994873
v  239.967148 173.057083 12.489001
v  238.183777 178.717224 16.229212
v  238.183487 178.717148 16.554667
v  238.393585 178.769363 16.781088
v  238.393478 178.769333 16.899746
v  238.527145 178.800781 16.899744
v  238.526993 178.800735 17.064548
v  238.123337 178.703354 16.228794
v  238.400925 177.190842 15.206902
v  238.400955 177.190796 13.056100
v  237.995224 178.434570 13.056100
v  237.995224 178.434540 15.206900
v  239.252975 174.578903 15.188599
v  239.658676 173.335220 15.188316
v  239.658752 173.335007 13.050680
v  239.253021 174.578781 13.050680
v  237.995193 178.434677 6.994873
v  237.995209 178.434647 8.922883
v  238.400940 177.190842 8.922883
v  238.400940 177.190857 6.994873
v  239.658768 173.334961 11.942965
v  239.658768 173.334961 10.014955
v  239.253021 174.578766 10.014955
v  239.253021 174.578751 11.942965
v  238.624115 176.506668 11.942965
v  239.029861 175.262878 11.942965
v  239.029861 175.262894 10.014955
v  238.624115 176.506699 10.014955
v  237.995209 178.434586 11.942965
v  238.400955 177.190796 11.942965
v  238.400940 177.190826 10.014955
v  237.995209 178.434631 10.014955
v  239.658752 173.334991 6.994873
v  239.253021 174.578796 6.994873
v  239.253021 174.578781 8.922883
v  239.658768 173.334976 8.922883
v  239.338242 174.985001 12.489001
v  238.709335 176.912918 12.489001
v  238.778198 176.701797 12.918388
v  239.269348 175.196167 12.918388
v  238.640457 177.124069 12.918388
v  239.269302 175.196320 15.344614
v  238.778183 176.701843 15.344614
v  239.407059 174.774033 15.326340
v  239.338226 174.985062 6.085710
v  238.709320 176.913010 6.085710
v  238.778198 176.701859 6.857161
v  239.269348 175.196198 6.857161
v  238.640442 177.124146 6.857161
v  238.709320 176.912964 9.468919
v  239.338226 174.985031 9.468919
v  239.269348 175.196182 9.060596
v  238.778198 176.701828 9.060596
v  239.407104 174.773895 9.060596
v  238.126556 178.704330 12.489172
v  238.149307 178.629700 12.918388
v  239.898178 173.268509 15.326000
v  239.898254 173.268265 12.912968
v  239.407104 174.773895 12.912968
v  238.131500 178.705811 6.086459
v  238.149277 178.629791 6.857161
v  239.898270 173.268219 12.080677
v  239.407120 174.773865 12.080677
v  239.898270 173.268250 9.877243
v  239.407104 174.773895 9.877243
v  238.640442 177.124100 9.877243
v  238.778198 176.701813 9.877243
v  239.269363 175.196152 12.080677
v  238.778214 176.701782 12.080677
v  239.269363 175.196167 9.877243
v  238.129059 178.705078 9.469383
v  238.149292 178.629745 9.877243
v  239.898254 173.268265 6.857161
v  239.898270 173.268250 9.060596
v  239.407104 174.773926 6.857161
v  239.288361 175.202377 12.918388
v  238.797211 176.707993 12.918388
v  238.839920 176.577072 13.056101
v  239.245651 175.333298 13.056101
v  238.797195 176.708054 15.344614
v  238.839905 176.577118 15.206902
v  239.288315 175.202515 15.344614
v  239.245605 175.333435 15.206902
v  239.288361 175.202408 6.857161
v  238.797211 176.708054 6.857161
v  238.839920 176.577133 6.994873
v  239.245651 175.333328 6.994873
v  238.797211 176.708038 9.060596
v  238.839920 176.577118 8.922883
v  239.288376 175.202377 9.060596
v  239.245667 175.333298 8.922883
v  238.659439 177.130325 15.344614
v  238.659470 177.130280 12.918388
v  238.616760 177.261200 13.056101
v  238.616745 177.261246 15.206902
v  238.168320 178.635895 12.918388
v  238.211029 178.504974 13.056101
v  238.168320 178.635864 15.344612
v  238.211029 178.504944 15.206900
v  239.426071 174.780243 15.326340
v  239.917191 173.274704 15.326000
v  239.874481 173.405624 15.188316
v  239.468781 174.649307 15.188599
v  239.917267 173.274475 12.912968
v  239.874557 173.405411 13.050680
v  239.426117 174.780090 12.912968
v  239.468826 174.649185 13.050680
v  238.659454 177.130341 6.857161
v  238.168289 178.636002 6.857161
v  238.210999 178.505066 6.994873
v  238.616745 177.261261 6.994873
v  238.168304 178.635956 9.060596
v  238.211014 178.505035 8.922883
v  238.659454 177.130310 9.060596
v  238.616745 177.261230 8.922883
v  239.426132 174.780075 12.080677
v  239.917282 173.274429 12.080677
v  239.874573 173.405350 11.942965
v  239.468842 174.649155 11.942965
v  239.917282 173.274445 9.877243
v  239.874573 173.405365 10.014955
v  239.426117 174.780090 9.877243
v  239.468826 174.649170 10.014955
v  238.797211 176.708023 9.877243
v  238.797226 176.707993 12.080677
v  238.839935 176.577072 11.942965
v  238.839920 176.577087 10.014955
v  239.288376 175.202347 12.080677
v  239.245667 175.333267 11.942965
v  239.288376 175.202377 9.877243
v  239.245667 175.333298 10.014955
v  238.168304 178.635956 9.877243
v  238.168320 178.635910 12.080677
v  238.211029 178.504990 11.942965
v  238.211014 178.505020 10.014955
v  238.659470 177.130264 12.080677
v  238.616760 177.261200 11.942965
v  238.659470 177.130295 9.877243
v  238.616760 177.261215 10.014955
v  239.917282 173.274460 9.060596
v  239.917267 173.274475 6.857161
v  239.874573 173.405396 6.994873
v  239.874573 173.405380 8.922883
v  239.426117 174.780121 6.857161
v  239.468826 174.649200 6.994873
v  239.426117 174.780106 9.060596
v  239.468826 174.649185 8.922883
v  238.820908 176.570877 13.056101
v  239.226639 175.327103 13.056101
v  239.226593 175.327225 15.206902
v  238.820892 176.570923 15.206902
v  238.820908 176.570938 6.994873
v  239.226639 175.327118 6.994873
v  239.226654 175.327103 8.922883
v  238.820908 176.570908 8.922883
v  238.640427 177.124130 15.344614
v  238.149307 178.629654 15.344612
v  238.597748 177.255005 13.056101
v  238.597717 177.255051 15.206902
v  238.192017 178.498734 15.206900
v  238.192017 178.498779 13.056101
v  239.855469 173.399414 15.188316
v  239.449768 174.643112 15.188599
v  239.449814 174.642975 13.050680
v  239.855545 173.399200 13.050680
v  238.149292 178.629761 9.060596
v  238.640442 177.124115 9.060596
v  238.191986 178.498871 6.994873
v  238.597733 177.255066 6.994873
v  238.597733 177.255035 8.922883
v  238.192001 178.498840 8.922883
v  239.855560 173.399155 11.942965
v  239.449814 174.642944 11.942965
v  239.449814 174.642960 10.014955
v  239.855560 173.399170 10.014955
v  238.820923 176.570862 11.942965
v  238.820908 176.570892 10.014955
v  239.226654 175.327087 10.014955
v  239.226654 175.327072 11.942965
v  238.149307 178.629715 12.080677
v  238.640457 177.124069 12.080677
v  238.192017 178.498795 11.942965
v  238.192001 178.498825 10.014955
v  238.597748 177.255020 10.014955
v  238.597748 177.254990 11.942965
v  239.855545 173.399185 6.994873
v  239.855560 173.399170 8.922883
v  239.449814 174.642975 8.922883
v  239.449814 174.643005 6.994873
v  239.688599 174.035583 17.118999
v  239.871185 173.475510 17.118979
v  239.687775 174.038254 18.293737
v  239.687485 174.039154 18.665096
v  239.933472 173.284454 18.291794
v  240.720367 173.024979 18.144154
v  238.244293 172.246078 18.142963
v  238.399796 172.295074 18.068512
v  240.720367 173.025055 18.064716
v  239.942490 175.456223 18.140665
v  239.942947 175.454880 18.064548
v  237.622437 174.742233 18.059902
v  237.466492 174.695938 18.140789
v  239.933929 173.283051 17.118971
v  239.933929 173.283051 17.241364
v  239.443405 174.787735 17.241421
v  239.443405 174.787735 17.119028
v  237.622910 172.565338 18.370605
v  240.331055 174.241318 18.737679
v  237.378265 173.325577 18.741331
v  237.132339 174.089920 18.366768
v  240.330353 174.243546 18.664688
v  237.779190 172.611847 18.298668
v  239.443298 174.788086 18.295696
v  237.288742 174.134705 18.285997
v  236.626617 173.083710 18.741299
v  239.332275 171.463516 17.771975
v  235.953186 171.084595 19.323236
v  239.806015 173.507965 18.187462
v  239.806320 173.507004 17.168982
v  239.639252 174.019501 17.169001
v  239.638474 174.022003 18.188787
v  239.472168 174.532043 17.169020
v  239.472092 174.532303 18.190121
v  239.506027 174.595657 17.119020
v  239.505936 174.595932 18.240244
v  239.687866 174.037979 18.238787
v  239.870850 173.476563 18.237339
v  239.521439 174.548386 18.190121
v  239.521515 174.548141 17.169020
v  239.687820 174.038101 18.188786
v  239.855377 173.524063 18.187460
v  239.855682 173.523102 17.168982
v  239.688599 174.035583 17.169001
v  239.473312 170.934540 17.785067
v  239.630630 170.410019 17.790335
v  236.138947 170.500809 19.323236
v  238.377792 170.633453 18.312229
v  241.083176 168.016464 17.491051
v  241.263733 167.394394 17.500547
v  241.478210 166.777786 17.494345
v  238.678711 162.519608 19.323236
v  241.380203 166.959366 17.870962
v  241.273346 167.233627 18.052700
v  241.178040 167.532990 18.050245
v  241.108749 167.811600 17.865522
v  239.570786 170.561874 18.107933
v  239.493607 170.804214 18.266275
v  239.417877 171.071594 18.261616
v  239.358002 171.313171 18.094841
v  233.905319 161.035049 17.339317
v  234.242493 161.955338 17.577545
v  233.972519 162.804474 17.577589
v  234.713531 166.940964 18.355576
v  233.955322 169.897293 18.424536
v  235.468170 164.366943 18.331276
v  236.845642 166.932526 19.161045
v  234.895813 166.367966 18.355574
v  236.292023 161.777328 18.331278
v  233.873871 177.665131 19.324942
v  236.667862 167.492935 19.161247
v  235.859222 167.109070 20.066801
v  235.612808 167.039474 20.066801
v  235.702469 166.757339 20.066801
v  235.948334 166.828522 20.066801
v  236.276993 167.382538 20.248989
v  236.667862 167.492935 20.248989
v  234.895813 166.367966 20.248989
v  234.713531 166.940964 20.248989
v  235.285782 166.480881 20.248989
v  236.845642 166.932526 20.248989
v  232.716415 168.024155 17.730459
v  232.487946 168.726074 17.728493
v  235.207474 170.690628 20.047585
v  234.988007 170.630005 20.047585
v  235.067749 170.380737 20.047585
v  235.287094 170.441345 20.047585
v  233.767578 170.481018 18.423771
v  235.953186 171.084595 20.264772
v  236.138947 170.500809 20.264772
v  235.588913 170.983994 20.264772
v  233.955322 169.897293 20.264772
v  233.767578 170.481018 20.264772
v  234.319260 169.997879 20.264772
v  234.867889 162.145401 17.836946
v  234.598846 162.992554 17.837112
v  234.658615 162.427109 19.199377
v  234.251434 162.304092 19.199377
v  234.317154 162.097382 19.199377
v  234.724060 162.221039 19.199377
v  234.107498 162.379913 19.365419
v  233.972519 162.804474 19.365419
v  234.867889 162.145401 19.365419
v  234.242493 161.955338 19.365419
v  234.733368 162.568985 19.365419
v  234.598846 162.992554 19.365419
v  230.968750 174.733231 17.876656
v  230.363297 174.551361 17.625685
v  230.783676 175.325546 17.877918
v  231.180176 177.000565 18.228266
v  229.545975 176.052216 17.496408
v  230.173874 175.157562 17.626970
v  230.678375 175.132599 19.245472
v  230.373505 175.048615 19.245472
v  230.467545 174.747711 19.245472
v  230.770233 174.838623 19.245472
v  230.363297 174.551361 19.467506
v  230.173874 175.157562 19.467506
v  230.968750 174.733231 19.467506
v  230.783676 175.325546 19.467506
v  234.789063 164.954865 18.147856
v  234.794022 165.676376 18.234289
v  234.975327 165.472824 18.279202
v  234.503265 165.824249 18.141338
v  234.943130 165.228027 18.238302
v  233.692184 168.608170 18.169855
v  233.874130 169.127655 18.301201
v  233.843979 168.882614 18.260302
v  233.691132 169.329697 18.256289
v  232.334610 169.197159 18.209007
v  232.489761 168.720490 18.388029
v  232.642181 168.252213 18.202003
v  233.436432 165.555145 18.187008
v  233.587616 165.077194 18.366030
v  233.736130 164.607666 18.180004
v  231.953522 173.816910 18.139156
v  230.886703 173.547806 18.184826
v  232.244278 173.669037 18.232107
v  230.813492 173.779266 17.702347
v  231.036102 173.075455 17.704311
v  231.037888 173.069855 18.363848
v  232.425598 173.465485 18.277020
v  232.393387 173.220703 18.236120
v  231.186386 172.600342 18.177822
v  232.239319 172.947525 18.145674
v  231.258728 172.371658 17.706278
v  235.077545 166.888290 20.066801
v  234.831131 166.818695 20.066801
v  234.922501 166.531509 20.066801
v  235.168350 166.602692 20.066801
v  235.468384 166.998688 20.066801
v  235.221970 166.929077 20.066801
v  235.312485 166.644424 20.066801
v  235.558350 166.715607 20.066801
v  236.482452 166.983154 20.066801
v  236.728317 167.054352 20.066801
v  236.640915 167.329849 20.066801
v  236.394501 167.260254 20.066801
v  236.092468 166.870255 20.066801
v  236.338318 166.941437 20.066801
v  236.250061 167.219467 20.066801
v  236.003662 167.149857 20.066801
v  234.114960 170.388870 20.047585
v  233.895493 170.328247 20.047585
v  233.975677 170.078949 20.047585
v  234.195007 170.139542 20.047585
v  234.479126 170.489456 20.047585
v  234.259674 170.428833 20.047585
v  234.339706 170.179535 20.047585
v  234.559036 170.240143 20.047585
v  234.843307 170.590042 20.047585
v  234.623840 170.529419 20.047585
v  234.703735 170.280136 20.047585
v  234.923065 170.340744 20.047585
v  235.795807 170.581924 20.047585
v  236.015137 170.642532 20.047585
v  235.935822 170.891800 20.047585
v  235.716354 170.831177 20.047585
v  235.431778 170.481339 20.047585
v  235.651108 170.541946 20.047585
v  235.571655 170.791214 20.047585
v  235.352173 170.730591 20.047585
v  235.886124 167.272141 20.248989
v  235.495255 167.161758 20.248989
v  235.612808 167.039474 20.248989
v  235.859222 167.109070 20.248989
v  235.675751 166.593796 20.248989
v  235.702469 166.757339 20.248989
v  236.065720 166.706711 20.248989
v  235.948334 166.828522 20.248989
v  235.104385 167.051361 20.248989
v  234.831131 166.818695 20.248989
v  235.077545 166.888290 20.248989
v  234.922501 166.531509 20.248989
v  235.168350 166.602692 20.248989
v  235.221970 166.929077 20.248989
v  235.468384 166.998688 20.248989
v  235.312485 166.644424 20.248989
v  235.558350 166.715607 20.248989
v  236.455688 166.819611 20.248989
v  236.728317 167.054352 20.248989
v  236.482452 166.983154 20.248989
v  236.640915 167.329849 20.248989
v  236.394501 167.260254 20.248989
v  236.338318 166.941437 20.248989
v  236.092468 166.870255 20.248989
v  236.250061 167.219467 20.248989
v  236.003662 167.149857 20.248989
v  235.224640 170.883408 20.264772
v  234.860382 170.782806 20.264772
v  234.988007 170.630005 20.264772
v  235.207474 170.690628 20.264772
v  235.047134 170.199051 20.264772
v  235.067749 170.380737 20.264772
v  235.411072 170.299637 20.264772
v  235.287094 170.441345 20.264772
v  234.131851 170.581619 20.264772
v  233.895493 170.328247 20.264772
v  234.114960 170.388870 20.264772
v  233.975677 170.078949 20.264772
v  234.195007 170.139542 20.264772
v  234.496109 170.682205 20.264772
v  234.259674 170.428833 20.264772
v  234.479126 170.489456 20.264772
v  234.339706 170.179535 20.264772
v  234.683197 170.098465 20.264772
v  234.559036 170.240143 20.264772
v  234.623840 170.529419 20.264772
v  234.843307 170.590042 20.264772
v  234.703735 170.280136 20.264772
v  234.923065 170.340744 20.264772
v  235.775009 170.400223 20.264772
v  236.015137 170.642532 20.264772
v  235.795807 170.581924 20.264772
v  235.935822 170.891800 20.264772
v  235.716354 170.831177 20.264772
v  235.651108 170.541946 20.264772
v  235.431778 170.481339 20.264772
v  235.571655 170.791214 20.264772
v  235.352173 170.730591 20.264772
v  230.678375 175.132599 19.467506
v  230.770233 174.838623 19.467506
v  230.373505 175.048615 19.467506
v  230.467545 174.747711 19.467506
v  234.524033 162.850861 19.199377
v  234.116501 162.728485 19.199377
v  234.182220 162.521774 19.199377
v  234.589478 162.644806 19.199377
v  234.658615 162.427109 19.365419
v  234.724060 162.221039 19.365419
v  234.251434 162.304092 19.365419
v  234.317154 162.097382 19.365419
v  234.524033 162.850861 19.365419
v  234.589478 162.644806 19.365419
v  234.116501 162.728485 19.365419
v  234.182220 162.521774 19.365419
v  243.374634 163.980057 17.229780
v  238.683075 162.520966 19.488174
v  238.839050 162.019440 19.488174
v  243.530609 163.478531 17.229782
v  237.392426 162.119568 18.951754
v  237.548401 161.618042 18.951754
v  236.296371 161.778687 18.496214
v  233.909668 161.036407 17.504253
v  234.065659 160.534882 17.504253
v  236.452347 161.277161 18.496216
v  236.785797 161.380859 18.634804
v  236.629822 161.882385 18.634802
v  236.811768 161.786774 19.819834
v  236.881424 161.562805 19.819834
v  237.366455 161.713654 19.819834
v  237.296799 161.937622 19.819834
v  237.548401 161.618042 19.967463
v  236.785797 161.380859 19.967463
v  237.392426 162.119568 19.967463
v  236.629822 161.882385 19.967463
v  237.366455 161.713654 19.967463
v  236.881424 161.562805 19.967463
v  237.296799 161.937622 19.967463
v  236.811768 161.786774 19.967463
v  229.570435 176.062454 6.086436
v  233.874268 177.663498 6.086873
v  231.181458 176.999298 6.086873
# 640 vertices

vn 0.296975 -0.954885 0.000003
vn 0.296973 -0.954886 0.000003
vn 0.296975 -0.954885 0.000002
vn 0.296976 -0.954885 0.000001
vn -0.952790 -0.303631 -0.000001
vn -0.952802 -0.303591 -0.000330
vn -0.952915 -0.303238 -0.000001
vn 0.000000 0.000000 -1.000000
vn -0.000001 0.000004 -1.000000
vn -0.000010 0.000001 -1.000000
vn 0.296977 -0.954885 0.000002
vn 0.296978 -0.954884 0.000002
vn -0.952824 -0.303522 0.000004
vn -0.952827 -0.303514 -0.000332
vn -0.952944 -0.303147 -0.000001
vn -0.687328 -0.218688 -0.692644
vn -0.687300 -0.218675 -0.692676
vn -0.688046 -0.219090 -0.691804
vn -0.688072 -0.219093 -0.691777
vn 0.296971 -0.954886 0.000002
vn -0.952962 -0.303089 0.000003
vn -0.952963 -0.303085 -0.000060
vn -0.952962 -0.303090 -0.000002
vn -0.000000 0.000000 -1.000000
vn 0.000000 -0.000029 -1.000000
vn -0.000007 -0.000029 -1.000000
vn 0.296973 -0.954886 0.000000
vn -0.351612 -0.111841 0.929441
vn -0.351604 -0.111852 0.929443
vn -0.351605 -0.111857 0.929442
vn -0.350931 -0.112318 0.929641
vn -0.352467 -0.113285 0.928942
vn 0.950652 0.310260 0.000002
vn 0.950507 0.310704 0.000001
vn 0.950504 0.310712 0.000049
vn 0.006361 0.002076 -0.999978
vn 0.006362 0.002076 -0.999978
vn 0.006297 0.002055 -0.999978
vn 0.006296 0.002054 -0.999978
vn 0.950616 0.310370 -0.000000
vn 0.950430 0.310939 -0.000001
vn 0.950429 0.310940 0.000017
vn 0.685834 0.223917 -0.692454
vn 0.686670 0.224145 -0.691551
vn 0.686634 0.224138 -0.691589
vn 0.685833 0.223920 -0.692454
vn 0.950593 0.310440 -0.000002
vn 0.950398 0.311037 0.000001
vn 0.950397 0.311039 0.000025
vn -0.000006 -0.000002 -1.000000
vn -0.000007 -0.000002 -1.000000
vn 0.000006 0.000002 -1.000000
vn 0.000007 0.000002 -1.000000
vn 0.296973 -0.954886 -0.000000
vn 0.296975 -0.954885 0.000004
vn 0.296979 -0.954884 0.000001
vn 0.296970 -0.954887 0.000001
vn 0.296974 -0.954885 0.000001
vn 0.296974 -0.954885 0.000000
vn 0.296974 -0.954886 -0.000000
vn 0.950695 0.310126 -0.000000
vn 0.952813 0.303557 0.000000
vn 0.950695 0.310126 0.000000
vn -0.952420 -0.304784 -0.001637
vn -0.952804 -0.303563 -0.003856
vn -0.952794 -0.303618 -0.000436
vn -0.952787 -0.303638 -0.000239
vn -0.952928 -0.303108 -0.007377
vn -0.952948 -0.303026 -0.008031
vn -0.953905 -0.300107 0.000000
vn 0.000000 -0.000001 -1.000000
vn -0.002223 -0.000731 -0.999997
vn -0.002243 -0.000737 -0.999997
vn -0.952262 -0.302699 -0.039620
vn -0.952243 -0.302675 -0.040273
vn -0.953920 -0.300062 -0.000000
vn -0.953920 -0.300062 0.000000
vn -0.687245 -0.216176 -0.693515
vn -0.687229 -0.216176 -0.693530
vn -0.688481 -0.219413 -0.691269
vn -0.688502 -0.219422 -0.691245
vn -0.953019 -0.302898 -0.002790
vn -0.953109 -0.302625 0.000892
vn -0.953105 -0.302639 0.000707
vn -0.953929 -0.300033 -0.000001
vn -0.952962 -0.303090 -0.000003
vn -0.000716 -0.000307 -1.000000
vn -0.000730 -0.000312 -1.000000
vn -0.351504 -0.111674 0.929502
vn -0.352196 -0.113004 0.929079
vn -0.347607 -0.119638 0.929976
vn -0.349155 -0.107840 0.930839
vn -0.350384 -0.110707 0.930040
vn -0.351629 -0.111888 0.929429
vn -0.351882 -0.111169 0.929419
vn -0.351646 -0.111345 0.929488
vn 0.952792 0.303624 0.000001
vn 0.950652 0.310260 0.000001
vn 0.006237 0.001986 -0.999979
vn 0.952774 0.303679 0.000004
vn 0.950616 0.310370 0.000003
vn 0.950616 0.310370 0.000002
vn 0.686467 0.218740 -0.693480
vn 0.686441 0.218763 -0.693499
vn 0.953435 0.301457 -0.009228
vn 0.952763 0.303714 -0.000001
vn 0.950593 0.310440 -0.000000
vn 0.000007 0.000001 -1.000000
vn 0.399965 0.127276 0.907650
vn 0.399681 0.128265 0.907636
vn 0.400558 0.128083 0.907275
vn 0.296974 -0.954886 0.000001
vn -0.952907 -0.303263 -0.000001
vn -0.952907 -0.303264 -0.000001
vn -0.953143 -0.302521 -0.000048
vn -0.952907 -0.303263 -0.000000
vn 0.950696 0.310125 0.000001
vn -0.953901 -0.300120 -0.000000
vn 0.950695 0.310126 0.000001
vn 0.950582 0.310474 0.000129
vn -0.952907 -0.303264 -0.000000
vn 0.950696 0.310126 0.000001
vn 0.006427 0.002043 -0.999977
vn 0.006427 0.002048 -0.999977
vn 0.006385 0.002083 -0.999977
vn 0.006384 0.002083 -0.999977
vn 0.686947 0.224237 -0.691246
vn 0.687229 0.224746 -0.690801
vn 0.687184 0.224712 -0.690857
vn 0.686911 0.224232 -0.691284
vn 0.000011 -0.000074 -1.000000
vn 0.000009 -0.000067 -1.000000
vn 0.950696 0.310126 0.000002
vn -0.952952 -0.303120 -0.000182
vn -0.952906 -0.303264 -0.000001
vn -0.952907 -0.303263 0.000000
vn -0.952907 -0.303263 -0.000002
vn -0.953292 -0.302050 -0.000316
vn 0.303264 -0.952907 -0.000008
vn 0.303263 -0.952907 -0.000008
vn 0.000000 0.000000 1.000000
vn -0.303264 0.952907 0.000006
vn 0.303263 -0.952907 -0.000003
vn -0.303263 0.952907 0.000002
vn -0.303264 0.952907 0.000014
vn 0.303263 -0.952907 -0.000016
vn -0.310126 0.950696 0.000007
vn -0.310124 0.950696 0.000008
vn -0.310125 0.950696 0.000007
vn -0.310125 0.950696 0.000008
vn -0.310126 0.950696 0.000008
vn 0.305926 0.099795 0.946810
vn 0.310125 -0.950696 -0.000005
vn 0.310126 -0.950696 -0.000004
vn 0.310126 -0.950696 -0.000005
vn -0.296957 -0.109664 -0.948573
vn -0.302561 -0.088416 -0.949020
vn -0.300525 -0.089400 -0.949575
vn -0.296351 -0.105043 -0.949285
vn -0.305578 -0.101465 -0.946746
vn -0.305927 -0.099792 -0.946810
vn -0.308340 -0.100576 -0.945945
vn -0.308657 -0.098896 -0.946018
vn 0.402938 0.131550 0.905724
vn 0.402953 0.131567 0.905715
vn 0.402125 0.131323 0.906118
vn 0.402108 0.131318 0.906126
vn 0.950319 0.311277 0.000823
vn 0.950314 0.311292 0.000918
vn 0.950226 0.311559 0.000891
vn 0.950226 0.311561 0.000927
vn 0.950179 0.311705 0.000879
vn 0.950177 0.311709 0.000929
vn 0.006463 0.002005 -0.999977
vn 0.006463 0.002006 -0.999977
vn 0.687768 0.225202 -0.690115
vn 0.687701 0.225196 -0.690184
vn 0.000022 -0.000141 -1.000000
vn 0.000023 -0.000140 -1.000000
vn 0.950695 0.310126 0.000002
vn 0.950696 0.310125 0.000002
vn 0.950747 0.309967 0.000052
vn 0.950836 0.309693 0.001065
vn 0.950836 0.309696 0.000141
vn 0.951525 0.307570 0.000179
vn 0.954492 0.298233 0.001092
vn 0.953215 0.302192 0.007773
vn 0.966593 0.256305 0.002233
vn 0.952982 0.303027 0.000564
vn 0.960661 0.277707 0.003169
vn 0.950695 0.310127 0.000001
vn 0.950695 0.310126 0.000003
vn -0.310134 0.950693 -0.000023
vn 0.310134 -0.950693 0.000063
vn -0.000001 -0.000000 1.000000
vn -0.310130 0.950694 -0.000063
vn -0.310134 0.950693 -0.000063
vn 0.310130 -0.950694 0.000023
vn 0.310134 -0.950693 0.000023
vn -0.310134 0.950693 0.000013
vn 0.310134 -0.950693 -0.000011
vn -0.310130 0.950694 0.000011
vn -0.310134 0.950693 0.000011
vn 0.310130 -0.950694 -0.000014
vn 0.310134 -0.950693 -0.000014
vn -0.310134 0.950693 0.000016
vn -0.000000 0.000001 1.000000
vn -0.310130 0.950694 -0.000023
vn 0.310129 -0.950694 -0.000017
vn 0.310134 -0.950693 -0.000017
vn 0.000067 -0.000204 1.000000
vn 0.310134 -0.950693 0.000103
vn -0.000067 0.000204 -1.000000
vn 0.310130 -0.950694 0.000063
vn -0.310130 0.950694 -0.000103
vn -0.310134 0.950693 -0.000103
vn -0.310134 0.950693 0.000017
vn -0.310130 0.950694 0.000014
vn -0.310134 0.950693 0.000014
vn 0.310134 -0.950693 -0.000008
vn -0.310134 0.950693 0.000010
vn 0.310130 -0.950694 -0.000010
vn 0.310134 -0.950693 -0.000010
vn -0.310130 0.950694 0.000008
vn -0.310134 0.950693 0.000008
vn 0.310130 -0.950694 -0.000013
vn 0.310134 -0.950693 -0.000013
vn -0.310130 0.950694 0.000010
vn 0.000001 0.000000 -1.000000
vn 0.310134 -0.950693 -0.000007
vn 0.310130 -0.950694 -0.000011
vn -0.000002 -0.000001 1.000000
vn 0.310126 -0.950695 0.000023
vn -0.310126 0.950695 -0.000063
vn 0.310126 -0.950695 -0.000014
vn -0.310126 0.950695 0.000011
vn -0.310126 0.950695 -0.000023
vn 0.310124 -0.950696 -0.000017
vn -0.310126 0.950695 -0.000103
vn 0.310126 -0.950695 0.000063
vn -0.310126 0.950695 0.000014
vn -0.310126 0.950695 0.000008
vn 0.310126 -0.950695 -0.000010
vn 0.310126 -0.950695 -0.000013
vn 0.000002 0.000001 -1.000000
vn -0.310126 0.950695 0.000010
vn 0.310126 -0.950695 -0.000011
vn 0.000418 0.000070 1.000000
vn 0.000509 0.000128 1.000000
vn 0.000491 0.000114 1.000000
vn 0.000331 0.000064 1.000000
vn 0.950755 0.309945 -0.000028
vn 0.950754 0.309945 -0.000035
vn 0.950766 0.309910 -0.000020
vn 0.300073 -0.953916 -0.000940
vn 0.300073 -0.953916 -0.000938
vn -0.293487 0.955780 -0.018697
vn -0.293487 0.955780 -0.018696
vn -0.293487 0.955780 -0.018695
vn -0.296655 0.954985 0.000000
vn 0.288276 -0.957547 0.000000
vn 0.126561 -0.401625 0.907017
vn 0.125974 -0.402131 0.906874
vn 0.125939 -0.402127 0.906881
vn 0.127347 -0.401335 0.907035
vn -0.124422 0.405190 0.905726
vn -0.125256 0.404281 0.906017
vn -0.126708 0.403492 0.906167
vn -0.124551 0.405226 0.905693
vn 0.952435 0.304742 0.000264
vn 0.952437 0.304735 0.000262
vn 0.952437 0.304736 0.000261
vn 0.298032 -0.954555 0.001392
vn -0.290202 0.956965 -0.000354
vn 0.950743 0.309980 -0.000016
vn 0.952428 0.304765 0.000170
vn 0.952427 0.304766 0.000168
vn -0.128495 0.403922 -0.905724
vn -0.129461 0.405405 -0.904924
vn -0.128772 0.405194 -0.905116
vn -0.128206 0.404298 -0.905597
vn 0.127235 -0.406712 -0.904653
vn 0.125461 -0.407438 -0.904574
vn 0.126605 -0.407497 -0.904388
vn 0.128777 -0.406868 -0.904364
vn 0.125923 -0.401688 0.907078
vn -0.128861 0.404614 -0.905363
vn -0.128911 0.405092 -0.905142
vn -0.124716 0.406305 0.905186
vn 0.127390 -0.406646 -0.904661
vn 0.127381 -0.406911 -0.904543
vn 0.128938 -0.400824 0.907036
vn -0.129530 0.402422 0.906244
vn 0.407108 0.124562 0.904846
vn 0.417315 0.114028 0.901579
vn 0.403961 0.132200 0.905173
vn 0.405429 0.128688 0.905023
vn 0.403435 0.130351 0.905676
vn 0.401475 0.130082 0.906585
vn 0.403773 0.129589 0.905635
vn 0.402617 0.131027 0.905942
vn 0.398345 0.129178 0.908094
vn 0.401372 0.130626 0.906552
vn 0.402217 0.128355 0.906502
vn 0.403211 0.132020 0.905534
vn 0.404839 0.115221 0.907099
vn 0.400130 0.129934 0.907201
vn 0.403543 0.124482 0.906453
vn 0.404025 0.129093 0.905593
vn 0.402729 0.128155 0.906303
vn 0.950764 0.309915 -0.000028
vn 0.950754 0.309945 -0.000011
vn 0.950755 0.309943 -0.000017
vn 0.950754 0.309946 -0.000035
vn 0.950757 0.309938 -0.000007
vn 0.950745 0.309973 -0.000027
vn 0.950752 0.309952 0.000000
vn 0.950751 0.309956 -0.000005
vn 0.950751 0.309957 -0.000016
vn 0.950743 0.309979 -0.000029
vn 0.950755 0.309944 -0.000023
vn 0.950766 0.309910 -0.000026
vn 0.950760 0.309929 -0.000006
vn 0.950760 0.309928 -0.000018
vn 0.950759 0.309932 0.000000
vn 0.000309 0.000064 1.000000
vn 0.000307 0.000065 1.000000
vn 0.000509 0.000126 1.000000
vn 0.950746 0.309970 -0.000029
vn 0.950750 0.309959 -0.000027
vn 0.950755 0.309945 -0.000025
vn 0.950763 0.309920 -0.000027
vn 0.950760 0.309929 -0.000030
vn 0.950756 0.309941 -0.000024
vn 0.309941 -0.950756 0.000252
vn -0.000788 0.002358 -0.999997
vn -0.000783 0.002342 -0.999997
vn -0.000777 0.002325 -0.999997
vn -0.309941 0.950755 -0.000991
vn 0.000028 -0.000028 1.000000
vn 0.404242 0.130308 0.905322
vn 0.401327 0.130719 0.906559
vn 0.401875 0.127884 0.906721
vn 0.401298 0.128390 0.906905
vn 0.398384 0.131186 0.907789
vn 0.399928 0.129968 0.907285
vn 0.398516 0.129386 0.907989
vn 0.397515 0.129308 0.908439
vn 0.398682 0.128085 0.908101
vn 0.941147 0.326474 0.087506
vn 0.949631 0.302884 0.080384
vn 0.943048 0.322369 0.082088
vn 0.006762 -0.900064 0.435704
vn 0.039504 -0.793123 0.607779
vn -0.166386 -0.041981 0.985167
vn 0.947706 0.310467 0.073922
vn 0.056557 -0.296770 0.953273
vn 0.952447 0.295592 0.073955
vn -0.120165 0.288791 0.949821
vn 0.955538 0.283241 0.081990
vn -0.400810 0.682825 0.610820
vn 0.956341 0.278917 0.087275
vn -0.486173 0.752232 0.444728
vn 0.956848 0.287407 0.042881
vn 0.961261 0.272912 0.038675
vn 0.957789 0.284742 0.039521
vn 0.020350 -0.900502 0.434376
vn 0.058167 -0.786246 0.615170
vn -0.132267 -0.020190 0.991008
vn 0.960140 0.277366 0.034640
vn 0.082292 -0.280373 0.956357
vn 0.962678 0.268405 0.034796
vn -0.085637 0.312579 0.946024
vn 0.964498 0.261052 0.039934
vn -0.368250 0.719411 0.588931
vn 0.965063 0.258400 0.043387
vn -0.458695 0.790985 0.404898
vn -0.351539 -0.111814 0.929472
vn -0.351539 -0.111810 0.929472
vn -0.351552 -0.111816 0.929467
vn -0.351701 -0.112040 0.929383
vn -0.351601 -0.111863 0.929443
vn -0.350962 -0.112258 0.929637
vn -0.351567 -0.111859 0.929456
vn -0.351960 -0.111674 0.929330
vn -0.351530 -0.111831 0.929473
vn -0.351536 -0.111850 0.929469
vn -0.351664 -0.110792 0.929547
vn -0.351569 -0.111875 0.929453
vn -0.351576 -0.111870 0.929451
vn -0.351558 -0.111866 0.929458
vn -0.271800 0.962354 -0.000000
vn -0.271800 0.962354 0.000000
vn -0.952939 -0.303161 0.000000
vn -0.952939 -0.303162 0.000000
vn 0.278116 -0.960548 -0.000000
vn 0.953180 0.302403 0.000000
vn -0.351593 -0.111828 0.929450
vn -0.351581 -0.111832 0.929454
vn -0.351617 -0.111881 0.929434
vn -0.351611 -0.111861 0.929439
vn 0.952916 0.303235 0.000000
vn -0.266194 0.963920 -0.000000
vn -0.266194 0.963920 0.000000
vn -0.951977 -0.306169 0.000000
vn 0.266397 -0.963863 0.000000
vn -0.351536 -0.111824 0.929472
vn -0.351550 -0.111831 0.929466
vn -0.952995 -0.302987 0.000000
vn 0.290778 -0.956790 0.000000
vn 0.953092 0.302681 0.000000
vn 0.953092 0.302680 0.000000
vn -0.287601 0.957750 0.000000
vn -0.351656 -0.111869 0.929421
vn -0.351657 -0.111853 0.929423
vn -0.351877 -0.111467 0.929386
vn -0.351545 -0.111294 0.929532
vn -0.351236 -0.111304 0.929648
vn -0.350596 -0.110315 0.930007
vn -0.351455 -0.111534 0.929537
vn -0.954487 -0.298253 0.000000
vn 0.287684 -0.957726 0.000000
vn 0.954490 0.298244 0.000000
vn -0.265566 0.964093 0.000000
vn -0.349257 -0.113816 0.930089
vn -0.353936 -0.110766 0.928687
vn -0.347202 -0.110295 0.931282
vn -0.352709 -0.111424 0.929076
vn -0.346513 -0.110709 0.931489
vn -0.351590 -0.111846 0.929449
vn -0.351593 -0.111853 0.929447
vn -0.351589 -0.111851 0.929448
vn -0.351600 -0.111851 0.929444
vn -0.097904 0.514848 0.851673
vn -0.147968 0.654411 0.741520
vn -0.026285 0.278652 0.960032
vn -0.950898 -0.309505 0.000001
vn 0.034523 0.008700 0.999366
vn 0.057916 0.015953 0.998194
vn 0.126126 -0.246060 0.961013
vn 0.229551 -0.628084 0.743516
vn 0.186980 -0.473847 0.860528
vn -0.207787 0.869387 0.448321
vn 0.298598 -0.839891 0.453234
vn -0.093615 0.515646 0.851672
vn -0.142516 0.655620 0.741520
vn -0.023965 0.278861 0.960033
vn -0.953441 -0.301579 0.000001
vn 0.034594 0.008412 0.999366
vn 0.058046 0.015471 0.998194
vn 0.124074 -0.247102 0.961013
vn 0.224315 -0.629973 0.743516
vn 0.183029 -0.475387 0.860527
vn -0.200544 0.871086 0.448320
vn 0.291596 -0.842348 0.453235
vn -0.093615 0.515645 0.851673
vn -0.953441 -0.301579 0.000000
vn -0.953441 -0.301579 -0.000000
vn 0.124074 -0.247101 0.961013
vn 0.183029 -0.475387 0.860528
vn -0.953441 -0.301578 0.000001
vn -0.200544 0.871086 0.448321
vn -0.351825 -0.114605 0.929024
vn -0.348949 -0.112837 0.930324
vn -0.351145 -0.111314 0.929681
vn -0.352839 -0.111214 0.929051
vn -0.350887 -0.108390 0.930124
vn -0.344332 -0.109347 0.932458
vn -0.346164 -0.110769 0.931612
vn -0.354225 -0.111011 0.928548
vn 0.271813 -0.962350 0.000000
vn 0.953034 0.302862 0.000000
vn -0.278103 0.960551 0.000000
vn -0.278102 0.960551 0.000000
vn -0.953082 -0.302711 0.000000
vn 0.271812 -0.962350 0.000000
vn 0.952939 0.303162 0.000000
vn -0.278104 0.960551 0.000000
vn -0.952986 -0.303013 0.000000
vn 0.952986 0.303013 0.000000
vn -0.953034 -0.302862 0.000000
vn -0.953180 -0.302403 0.000000
vn 0.953131 0.302558 0.000000
vn -0.953131 -0.302558 0.000000
vn 0.953082 0.302711 0.000000
vn 0.266258 -0.963902 0.000000
vn 0.952447 0.304703 0.000000
vn -0.266339 0.963879 0.000000
vn -0.952604 -0.304213 0.000000
vn 0.266259 -0.963902 0.000000
vn 0.951977 0.306169 0.000000
vn -0.266340 0.963879 0.000000
vn -0.952134 -0.305681 0.000000
vn 0.952134 0.305680 0.000000
vn -0.952291 -0.305192 0.000000
vn 0.952291 0.305191 0.000000
vn -0.952447 -0.304703 0.000000
vn -0.952916 -0.303235 0.000000
vn 0.952760 0.303724 0.000000
vn -0.952760 -0.303725 0.000000
vn 0.952604 0.304214 0.000000
vn -0.954490 -0.298244 0.000000
vn 0.265566 -0.964093 0.000000
vn 0.954487 0.298253 0.000000
vn -0.287684 0.957725 0.000000
vn -0.351598 -0.111880 0.929442
vn -0.954208 -0.299001 0.009226
vn 0.950608 0.310393 0.000315
vn 0.950792 0.309829 -0.000359
vn 0.950959 0.309317 -0.000978
vn -0.953092 -0.302681 0.000000
vn 0.289190 -0.957272 0.000000
vn 0.952995 0.302987 0.000000
vn -0.290779 0.956790 0.000000
vn -0.953092 -0.302680 0.000000
vn 0.287601 -0.957750 0.000000
vn -0.289189 0.957272 0.000000
vn 0.278116 -0.960548 0.000000
vn 0.954886 0.296973 0.000000
vn 0.006250 0.001942 -0.999979
vn 0.954886 0.296974 0.000001
vn 0.687946 0.213953 -0.693508
vn 0.687947 0.213953 -0.693508
vn 0.954886 0.296973 0.000004
vn 0.954794 0.296945 -0.013842
vn 0.954886 0.296973 -0.000002
vn 0.398807 0.124032 0.908608
vn -0.352239 -0.109547 0.929477
vn -0.352239 -0.109546 0.929477
vn -0.352240 -0.109547 0.929477
vn -0.352240 -0.109546 0.929477
vn -0.954886 -0.296974 -0.000001
vn -0.954794 -0.296945 0.013840
vn -0.954886 -0.296974 0.000000
vn -0.687924 -0.213948 -0.693532
vn -0.296974 0.954886 -0.000002
vn -0.296974 0.954885 -0.000001
vn -0.296975 0.954885 0.000001
vn -0.296974 0.954886 0.000001
vn -0.954520 -0.296860 0.027680
vn 0.296974 -0.954886 -0.000001
vn 0.296975 -0.954885 -0.000001
vn 0.296976 -0.954885 -0.000004
vn 0.954520 0.296860 -0.027680
vn -0.352240 -0.109547 0.929476
vn 0.296975 -0.954885 -0.000002
vn 0.296975 -0.954885 0.000000
vn -0.296976 0.954885 0.000003
vn -0.296975 0.954885 -0.000000
vn -0.296975 0.954885 0.000000
vn -0.954886 -0.296974 -0.000000
vn -0.296974 0.954885 0.000000
vn -0.954886 -0.296972 0.000000
vn -0.953181 -0.302400 -0.000408
vn 0.948035 0.318163 0.001309
vn 0.950372 0.311114 0.001467
vn 0.961190 0.275867 -0.003307
vn 0.955304 0.295624 -0.000849
vn 0.404946 0.131028 0.904904
vn 0.408278 0.126558 0.904042
vn -0.350373 -0.110628 0.930054
vn -0.239480 0.970901 -0.000127
vn -0.238441 0.971157 0.000005
vn -0.238608 0.971116 -0.000092
vn -0.239479 0.970902 -0.000127
vn -0.502633 0.864500 -0.000254
vn -0.502702 0.864460 -0.000269
vn -0.502058 0.864834 -0.000249
vn -0.501975 0.864882 -0.000294
vn -0.501741 0.865018 -0.000549
vn -0.249225 0.968443 0.002336
vn -0.249232 0.968441 0.002336
vn -0.249236 0.968440 0.002336
vn -0.249235 0.968440 0.002337
vn -0.249234 0.968440 0.002336
vn -0.249233 0.968441 0.002339
vn -0.237671 0.971346 -0.000056
vn -0.237306 0.971435 0.000046
vn -0.232949 0.972489 0.000620
vn -0.223738 0.974649 0.000063
vn -0.236458 0.971642 0.000429
vn -0.235584 0.971853 0.001327
vn -0.241299 0.970451 0.000043
vn -0.232765 0.972527 0.003326
vn -0.228950 0.973438 0.000061
vn -0.237810 0.971312 0.000039
# 586 vertex normals

vt 1.000000 1.000000 0.000000
vt 0.500000 1.000000 0.000000
vt 0.000000 0.437500 0.000000
vt 1.000000 0.437500 0.000000
vt 0.333333 0.750000 0.000000
vt 0.333333 0.500000 0.000000
vt 0.666667 0.500000 0.000000
vt 0.666667 0.750000 0.000000
vt 0.666907 0.476375 0.000000
vt 0.333334 0.475606 0.000000
vt 1.000000 0.750000 0.000000
vt 1.000000 0.500000 0.000000
vt 0.333333 0.875000 0.000000
vt 0.666667 0.875000 0.000000
vt 0.416667 1.000000 0.000000
vt 0.666667 1.000000 0.000000
vt 1.000000 0.875000 0.000000
vt 0.916667 0.958333 0.000000
vt 1.000000 0.895833 0.000000
vt -0.759594 -0.227440 0.499237
vt -0.559152 0.561796 0.498688
vt -0.598821 0.872988 0.498352
vt -2.330758 0.865340 0.497025
vt -2.429210 -0.926845 0.496918
vt 0.611111 0.750000 0.000000
vt 0.611111 0.500000 0.000000
vt 0.722222 0.500000 0.000000
vt 0.722222 0.750000 0.000000
vt 0.500000 0.500000 0.000000
vt 0.611111 0.875000 0.000000
vt 0.722222 0.875000 0.000000
vt 1.801038 1.596531 0.000000
vt 0.500000 0.750000 0.000000
vt 0.611111 1.000000 0.000000
vt 0.722222 1.000000 0.000000
vt 0.500000 0.875000 0.000000
vt 0.000000 0.875000 0.000000
vt 0.000000 0.500000 0.000000
vt 0.000000 0.750000 0.000000
vt 0.562500 0.781250 0.000000
vt 0.125000 0.541667 0.000000
vt 0.250000 0.375000 0.000000
vt 0.070578 0.486575 0.000000
vt 0.083333 0.375000 0.000000
vt 0.166667 0.375000 0.000000
vt 0.047486 0.750798 0.000000
vt 0.153682 0.533280 0.000000
vt 0.048490 0.875078 0.000000
vt 0.046539 0.748613 -0.000854
vt 0.351868 0.871094 0.000000
vt 0.095650 0.965524 0.000000
vt 0.048049 0.874768 0.000000
vt 0.833333 1.000000 0.000000
vt 1.237885 -0.927332 0.503372
vt 3.071432 -0.927575 0.506607
vt 2.761066 -0.265922 0.577026
vt 2.268951 -0.265615 0.525620
vt 1.776837 -0.265309 0.474213
vt -2.232306 2.657525 0.497124
vt -4.097213 2.657509 0.497330
vt -4.085954 0.865440 0.495560
vt 0.333333 1.000000 0.000000
vt -1.505359 1.793582 0.489700
vt -1.998404 -0.207829 0.603951
vt -1.003209 1.793133 0.496704
vt -0.023923 -0.193687 0.000000
vt 0.987888 0.000282 0.000000
vt 0.583333 0.312500 0.000000
vt 0.500000 0.312500 0.000000
vt 0.333317 -0.003323 0.000000
vt 0.606598 -0.062638 0.000000
vt 0.000000 0.000000 0.000000
vt 0.333333 0.000000 0.000000
vt 0.333333 0.335119 0.000000
vt 0.833333 0.312500 0.000000
vt 0.750000 0.312500 0.000000
vt 1.000000 -0.019438 0.000000
vt 0.666667 0.375000 0.000000
vt 0.736111 0.437500 0.000000
vt 0.500000 0.375000 0.000000
vt 0.583333 0.375000 0.000000
vt 0.750000 0.375000 0.000000
vt 0.833333 0.375000 0.000000
vt 0.666667 0.000000 0.000000
vt 0.666667 0.125000 0.000000
vt 0.500000 0.125000 0.000000
vt 0.500000 0.000000 0.000000
vt 0.333333 0.375000 0.000000
vt 0.333333 0.312500 0.000000
vt 0.527778 0.375000 0.000000
vt 0.000511 0.999500 0.500000
vt 0.000499 0.000500 1.000000
vt 0.999491 0.000500 0.500000
vt 0.999501 0.999500 0.250000
vt 0.000503 0.999500 -0.250000
vt 0.000498 0.000500 0.500000
vt 0.999496 0.000500 0.500000
vt 0.999499 0.999500 -0.250000
vt 0.166667 0.312500 0.000000
vt 0.999480 0.000499 1.500000
vt 0.999501 0.999500 0.500000
vt 0.000522 0.999500 0.500000
vt 0.000500 0.000500 1.500000
vt 0.083333 0.312500 0.000000
vt 0.500000 0.250000 0.000000
vt 0.500000 0.323056 0.000000
vt 1.963566 1.290666 0.500862
vt -1.119820 1.290820 0.499046
vt -1.119894 -0.207730 0.499046
vt 1.963493 -0.207885 0.500862
vt 0.333333 0.323056 0.000000
vt 0.833333 0.750000 0.000000
vt 0.000499 0.000500 0.000488
vt 0.999462 0.000500 0.002045
vt 0.999500 0.999500 0.999496
vt 0.000603 0.999501 0.997971
vt 3.049186 -1.762769 0.227577
vt 3.050469 -1.677671 0.235413
vt 1.996937 -1.683958 0.330719
vt 1.996329 -1.769054 0.325615
vt 0.999500 0.000499 0.002235
vt 0.999480 0.999499 0.999496
vt 0.000500 0.999500 0.997765
vt 0.000515 0.000500 0.000496
vt 0.000000 0.250000 0.000000
vt 0.826925 0.500000 0.000000
vt 0.827038 0.750000 0.000000
vt 0.827732 0.750001 0.000000
vt 0.827597 0.874999 0.000000
vt 0.828077 0.875001 0.000000
vt 0.827532 1.000002 0.000000
vt 0.826808 0.500000 0.000000
vt 0.000538 0.999501 0.997971
vt 0.000500 0.000500 0.000504
vt 0.999501 0.000500 0.002060
vt 0.999474 0.999499 0.999504
vt 0.750000 0.465278 0.000000
vt 0.999500 0.999500 0.999504
vt 0.000668 0.999370 0.997833
vt 0.000499 0.000500 0.000504
vt 0.999397 0.000500 0.002052
vt 0.999500 0.000499 0.002258
vt 0.999475 0.999499 0.999496
vt 0.000500 0.999500 0.997757
vt 0.000519 0.000500 0.000504
vt 0.000500 0.999500 0.997780
vt 0.000511 0.000500 0.000496
vt 0.999501 0.000499 0.002220
vt 0.999486 0.999499 0.999489
vt 0.666667 0.250000 0.000000
vt 0.999481 0.999499 0.999481
vt 0.000500 0.999500 0.997772
vt 0.000515 0.000501 0.000496
vt 0.999475 0.999500 0.999489
vt 0.000500 0.999501 0.997772
vt 0.999500 0.000499 0.002243
vt 0.000510 0.000500 0.000496
vt 0.999485 0.999500 0.999496
vt 0.222222 0.416667 0.000000
vt 0.277778 0.458333 0.000000
vt 0.708333 0.586806 0.000000
vt 0.722222 0.000000 0.000000
vt 0.777778 0.000000 0.000000
vt 0.777778 0.125000 0.000000
vt 0.722222 0.125000 0.000000
vt 0.330037 0.487160 0.000000
vt 0.830375 -0.003689 0.000000
vt 0.833333 0.000000 0.000000
vt 0.722222 0.250000 0.000000
vt 0.777778 0.250000 0.000000
vt 0.833333 0.117598 0.000000
vt 0.833333 0.125000 0.000000
vt 1.000000 0.916667 0.000000
vt 0.833333 0.250000 0.000000
vt 0.750000 0.343750 0.000000
vt 0.431424 0.409614 0.000000
vt 2.525979 -1.522315 -2.186272
vt 2.133263 -1.524479 -2.153023
vt 0.736264 0.284522 0.000000
vt 0.718750 0.165365 0.000000
vt 0.671875 0.166016 0.000000
vt 0.673611 0.304688 0.000000
vt 0.671875 0.228516 0.000000
vt 0.670718 0.136068 0.000000
vt 0.751157 0.120226 0.000000
vt 0.722222 0.093750 0.000000
vt 0.750000 0.718750 0.000000
vt 0.687500 0.664063 0.000000
vt 0.677083 0.332031 0.000000
vt 0.916667 0.711806 0.000000
vt 0.895833 0.658854 0.000000
vt -0.271440 0.432555 0.480850
vt 1.790190 0.071342 0.523666
vt 1.786264 1.010200 0.534103
vt -0.274725 1.019529 0.478828
vt -0.385058 0.027174 0.466019
vt 1.674091 0.376538 0.566315
vt 1.668398 0.967183 0.545914
vt -0.392611 0.966037 0.473663
vt 0.694444 0.000000 0.000000
vt -1.108382 0.985579 0.500000
vt 1.148469 -0.071725 0.500000
vt 1.148461 0.978705 0.500000
vt 1.128686 0.984809 -0.994192
vt 1.128686 -0.069466 -0.995227
vt -1.122682 0.975136 -1.011630
vt 0.765625 0.164714 0.000000
vt 0.059728 0.071628 0.489853
vt 0.668403 0.076172 0.000000
vt 1.341665 0.022929 0.535721
vt 0.722222 0.031250 0.000000
vt -0.801121 1.016582 0.523956
vt 2.194774 0.972253 0.465485
vt 3.395962 -0.076911 0.484436
vt 3.393745 -0.197959 0.376350
vt 4.473669 -1.754265 0.094940
vt 4.441258 1.788258 0.572678
vt 3.053374 -1.485027 0.253067
vt 1.681969 -0.193220 0.514915
vt 0.964772 -0.660648 0.487732
vt 1.998317 -1.490840 0.342339
vt 1.682390 -0.073738 0.488586
vt 2.011152 0.289379 0.442612
vt 1.409353 1.790974 0.530334
vt 2.008990 0.170612 0.519798
vt 3.075585 0.169467 0.224976
vt -1.070402 -1.787361 0.611183
vt 3.078857 0.290473 0.330833
vt 2.542385 0.871994 0.503174
vt 2.576351 1.789930 0.546646
vt 0.001435 0.996904 0.984818
vt 0.000499 0.000499 0.000504
vt 0.499848 0.000515 0.006592
vt 0.502289 0.998198 0.993301
vt 0.999262 0.000530 0.012848
vt 0.999501 0.999500 0.999512
vt 0.852431 0.494141 0.000000
vt 0.722222 0.062500 0.000000
vt 0.670139 0.152344 0.000000
vt 0.739583 0.662760 0.000000
vt 2.918697 -1.520152 -2.219490
vt 3.053374 -1.519409 -2.230911
vt 1.998317 -1.525222 -2.141640
vt 0.796007 0.578451 0.000000
vt 0.791667 0.661458 0.000000
vt 0.600228 -0.640925 0.503204
vt 0.235224 -0.633589 0.518753
vt 1.000936 1.791340 0.524628
vt 0.631176 0.193488 0.497673
vt -1.579426 -1.114071 0.627419
vt -2.011102 -1.100996 0.657806
vt -2.446184 -1.112866 0.689888
vt -4.607504 -1.808477 0.940536
vt -4.582769 1.796336 0.446762
vt -0.041092 0.006431 0.965607
vt 0.516094 0.019640 0.000488
vt 0.132046 0.676280 0.430603
vt 0.058203 0.221458 0.000000
vt 0.813720 0.500000 0.000000
vt 0.382860 0.999507 0.176819
vt 0.087112 0.410705 0.000000
vt 0.651077 0.995126 0.187378
vt 0.088059 0.589178 0.000000
vt 0.895661 0.666560 0.458435
vt 0.061135 0.777461 0.000000
vt 1.068909 0.000506 0.999451
vt 0.000000 1.000000 0.000000
vt -0.042118 0.039330 0.070129
vt 0.513286 0.028154 0.353638
vt 0.123175 0.680242 0.001167
vt 0.048730 0.217775 0.000000
vt 0.822458 0.500000 0.000000
vt 0.381200 0.999492 0.112068
vt 0.073466 0.408933 0.000000
vt 0.662931 0.989635 0.348114
vt 0.073466 0.591068 0.000000
vt 0.914772 0.652543 0.664421
vt 0.048730 0.782225 0.000000
vt 1.067883 0.000490 1.000160
vt 4.904980 -0.927818 0.509842
vt 4.388505 -0.497225 0.507408
vt 3.794485 -0.497075 0.506493
vt 1.316456 0.909019 0.499939
vt -0.714905 1.033748 0.498138
vt 3.104235 0.865001 0.501495
vt 1.752828 2.364484 0.497200
vt 1.717317 0.908993 0.500259
vt 4.915899 0.864889 0.503006
vt 4.926818 2.657594 0.496162
vt 1.562454 1.857845 0.511760
vt -0.006470 1.863844 0.510889
vt 1.577260 0.065803 0.511188
vt 1.347256 2.657559 0.496643
vt 1.360872 2.364848 0.497192
vt 1.849407 2.657564 0.496574
vt 0.750000 1.000000 0.000000
vt 0.617722 0.990083 0.000000
vt 0.770833 1.000000 0.000000
vt 0.224615 -0.220439 0.500580
vt -0.267490 -0.223940 0.499924
vt 0.526042 0.992188 0.000000
vt 0.518229 0.988281 0.000000
vt 0.567708 0.992188 0.000000
vt 0.572917 0.994792 0.000000
vt -1.065306 2.657535 0.496964
vt -1.123690 1.032386 0.497856
vt 0.575574 0.392459 0.000000
vt 0.350318 0.352410 0.000000
vt 0.541667 1.000000 0.000000
vt 0.583333 1.000000 0.000000
vt 0.520833 1.000000 0.000000
vt 0.533854 0.996094 0.000000
vt 0.494792 0.976563 0.000000
vt 0.552083 0.984375 0.000000
vt 0.557292 0.986979 0.000000
vt 4.394186 -0.028435 0.505775
vt 3.801615 -0.028079 0.505005
vt 0.895783 1.000000 0.000000
vt 0.895833 1.000000 0.000000
vt 0.916667 1.000000 0.000000
vt 0.914997 0.998526 0.000000
vt 0.875000 1.000000 0.000000
vt 0.884549 0.747070 0.000000
vt 1.274022 -0.756079 0.511102
vt 1.268063 -1.209487 0.510962
vt 1.592066 -1.726237 0.510620
vt 0.860326 -0.754579 0.511337
vt -0.124887 -0.121521 0.511499
vt 0.149848 -1.444103 0.511208
vt 0.844662 -1.207957 0.511200
vt 0.091146 0.988281 0.000000
vt 0.088542 0.992188 0.000000
vt 0.132813 0.988281 0.000000
vt 0.136719 0.982422 0.000000
vt 2.593451 0.529361 0.558159
vt 2.136094 0.689110 0.510315
vt 2.302060 0.768969 0.527435
vt 1.983377 0.522353 0.494629
vt 2.451060 0.693904 0.543076
vt 0.050852 0.573523 0.499313
vt -0.242386 0.810870 0.498741
vt -0.092809 0.736960 0.498978
vt -0.407730 0.729729 0.498703
vt 0.294838 0.237714 0.000000
vt 0.611886 0.166667 0.000000
vt -0.033469 0.029506 0.250000
vt 0.521532 0.032474 0.500000
vt 0.149056 0.758148 -0.500000
vt 0.323192 0.499957 0.000000
vt 0.589576 0.500000 0.000000
vt 0.525952 1.028506 -0.500000
vt 0.611886 0.833333 0.000000
vt 0.896202 0.747569 -0.500000
vt 0.294789 0.763755 0.000000
vt 1.076532 0.035441 0.250000
vt 0.295910 0.000000 0.000000
vt 0.295910 1.000000 0.000000
vt -0.030786 0.025031 -0.750000
vt 0.524215 0.027997 0.000000
vt 0.151739 0.753672 -0.750000
vt 0.528636 1.024029 0.250000
vt 0.898885 0.743091 0.250000
vt 1.079215 0.030964 0.750000
vt -0.029170 0.015738 -0.500000
vt 0.525830 0.018706 0.250000
vt 0.153354 0.744380 -1.000000
vt 0.530251 1.014739 -0.250000
vt 0.900500 0.733800 0.000000
vt 1.080831 0.021674 1.250000
vt -2.831937 -0.270245 0.582115
vt -2.999551 0.525038 0.563248
vt -3.816166 -0.269631 0.479294
vt -3.609625 0.518030 0.499718
vt -4.074695 -0.926626 0.493988
vt -3.324051 -0.269938 0.530701
vt -3.290943 0.764646 0.532524
vt -3.141943 0.689581 0.548164
vt -3.456909 0.684787 0.515411
vt 0.502604 0.980469 0.000000
vt 0.510417 0.984375 0.000000
vt 0.562500 0.989583 0.000000
vt 0.578125 0.997396 0.000000
vt -0.656889 2.657539 0.496910
vt 0.777095 -1.481752 0.499999
vt 0.777106 2.123177 0.499999
vt 0.426957 2.123178 0.499999
vt 0.426947 -1.481750 0.499998
vt 1.199976 1.198130 0.499938
vt 1.554782 1.216456 0.485044
vt 1.555632 2.140122 0.501011
vt 1.205492 2.142360 0.500340
vt 1.194035 0.349658 0.500010
vt 1.182577 -1.443045 0.499679
vt 1.532718 -1.445283 0.500350
vt 1.544175 0.347420 0.500680
vt 1.532679 0.588474 0.473739
vt 1.195568 0.581464 0.500108
vt 1.198964 1.075133 0.500766
vt 1.552368 0.670182 0.480198
vt 1.569789 1.724440 0.491723
vt 1.198781 1.356938 0.500562
vt -0.097667 -0.161627 0.000000
vt 1.015420 0.920692 0.000000
vt 0.830750 0.128751 0.000000
vt 0.831136 0.253324 0.000000
vt 5.806566 -1.746516 -0.030430
vt 5.900591 1.789650 0.588110
vt 0.135311 -1.728025 0.511689
vt 37.709198 -7.539457 0.797345
vt -6.548265 3.143401 0.490400
vt 2.396033 -89.761681 3.159794
vt -5.531512 -0.643098 0.491790
vt 16.088842 -2.495826 0.573878
# 413 texture coords

g Uus13_01
usemtl Wall_Color
f -640/-413/-586 -639/-412/-585 -638/-411/-584 -637/-410/-583 
usemtl White
f -636/-409/-582 -635/-408/-581 -634/-407/-580 -633/-406/-580 
f -632/-405/-579 -634/-407/-579 -635/-408/-578 -631/-404/-577 
usemtl Wall_Color
f -638/-411/-584 -639/-412/-585 -630/-403/-576 -629/-402/-575 
usemtl White
f -628/-401/-574 -627/-409/-573 -626/-406/-572 -625/-400/-572 
f -633/-406/-571 -626/-406/-570 -627/-409/-569 -636/-409/-568 
usemtl Wall_Color
f -630/-403/-576 -639/-413/-585 -624/-403/-567 
usemtl Red_Trim
f -623/-399/-566 -622/-401/-565 -621/-400/-564 -620/-398/-564 
f -625/-400/-563 -621/-400/-563 -622/-401/-562 -628/-401/-561 
usemtl Wall_Color
f -619/-397/-560 -639/-413/-585 -618/-396/-560 -617/-395/-560 
usemtl Roof
f -616/-394/-559 -615/-393/-558 -614/-392/-557 -613/-391/-556 
f -623/-390/-555 -616/-394/-559 -613/-391/-556 
usemtl White
f -612/-389/-554 -611/-388/-554 -610/-387/-553 -609/-386/-552 
f -608/-385/-551 -607/-385/-550 -606/-408/-549 -605/-408/-548 
f -604/-384/-547 -603/-389/-547 -602/-386/-546 -601/-383/-545 
f -600/-382/-544 -599/-381/-543 -598/-381/-542 -597/-409/-541 
usemtl Red_Trim
f -596/-380/-540 -595/-384/-540 -594/-383/-539 -593/-379/-538 
f -592/-378/-537 -591/-378/-536 -590/-401/-535 -589/-401/-534 
usemtl Wall_Color
f -640/-413/-586 -588/-377/-533 -587/-377/-532 -586/-377/-532 
f -640/-413/-586 -637/-410/-583 -585/-376/-531 -584/-375/-530 
f -640/-413/-586 -583/-375/-529 -588/-377/-533 
f -640/-413/-586 -584/-375/-530 -583/-375/-529 
f -639/-413/-585 -619/-397/-560 -624/-403/-567 
f -640/-413/-586 -582/-374/-528 -639/-413/-585 
f -640/-413/-586 -586/-377/-532 -581/-373/-527 
f -605/-408/-526 -580/-411/-525 -579/-372/-524 
f -578/-371/-523 -577/-370/-522 -576/-369/-521 -631/-404/-520 
usemtl White
f -575/-368/-519 -574/-367/-518 -635/-408/-581 -636/-409/-582 
f -573/-402/-517 -572/-403/-517 -633/-406/-580 -634/-407/-580 
f -571/-410/-516 -573/-402/-516 -634/-407/-579 -632/-405/-579 
f -574/-367/-515 -578/-371/-514 -631/-404/-577 -635/-408/-578 
f -570/-366/-513 -569/-365/-512 -627/-409/-573 -628/-401/-574 
f -568/-403/-511 -567/-397/-510 -625/-400/-572 -626/-406/-572 
f -572/-403/-509 -568/-403/-508 -626/-406/-570 -633/-406/-571 
f -569/-365/-507 -575/-368/-506 -636/-409/-568 -627/-409/-569 
usemtl Red_Trim
f -566/-364/-505 -565/-363/-504 -564/-362/-503 -622/-401/-565 
f -623/-399/-566 -566/-364/-505 -622/-401/-565 
f -563/-395/-502 -562/-361/-501 -620/-398/-564 -621/-400/-564 
f -567/-397/-516 -563/-395/-516 -621/-400/-563 -625/-400/-563 
f -564/-362/-500 -570/-366/-499 -628/-401/-561 -622/-401/-562 
usemtl Roof
f -620/-360/-498 -562/-359/-497 -561/-358/-496 -560/-357/-495 
f -620/-360/-498 -560/-357/-495 -559/-356/-494 
f -558/-355/-493 -557/-354/-492 -556/-353/-491 -613/-391/-556 
usemtl White
f -555/-375/-490 -554/-376/-490 -606/-408/-489 -600/-382/-489 
f -554/-376/-488 -580/-376/-488 -605/-408/-548 -606/-408/-549 
f -553/-377/-487 -552/-375/-487 -597/-409/-486 -589/-401/-485 
f -552/-375/-484 -555/-375/-483 -600/-382/-544 -597/-409/-541 
usemtl Red_Trim
f -551/-377/-482 -550/-377/-481 -590/-401/-480 -549/-352/-480 
f -550/-377/-479 -553/-377/-479 -589/-401/-534 -590/-401/-535 
usemtl Roof
f -548/-351/-478 -547/-350/-477 -546/-349/-476 
usemtl Wall_Color
f -637/-410/-583 -638/-411/-584 -545/-348/-475 -544/-347/-475 
f -543/-346/-474 -542/-345/-473 -541/-344/-472 -540/-343/-471 
f -539/-342/-525 -538/-341/-470 -537/-340/-470 
f -536/-339/-471 -535/-338/-471 -540/-343/-471 -534/-337/-469 
f -533/-388/-468 -532/-336/-468 -531/-335/-467 
f -632/-405/-466 -631/-404/-520 -530/-334/-473 -529/-333/-473 
f -571/-410/-469 -632/-405/-466 -528/-332/-466 -527/-331/-466 
f -526/-330/-470 -525/-329/-470 -524/-328/-470 -523/-327/-465 
usemtl White
f -600/-382/-489 -606/-408/-489 -607/-385/-554 -599/-381/-554 
f -531/-387/-464 -610/-387/-463 -611/-388/-462 -533/-388/-461 
f -589/-401/-485 -597/-409/-486 -598/-381/-547 -592/-378/-547 
f -612/-389/-460 -609/-386/-459 -602/-386/-458 -603/-389/-457 
usemtl Red_Trim
f -549/-352/-480 -590/-401/-480 -591/-378/-540 -522/-412/-540 
f -604/-384/-536 -601/-383/-456 -594/-383/-455 -595/-384/-536 
usemtl White
f -521/-326/-465 -520/-325/-465 -519/-345/-454 -518/-334/-454 
usemtl Wall_Color
f -605/-408/-526 -579/-372/-524 -517/-324/-468 -608/-385/-468 
f -632/-405/-466 -529/-333/-473 -543/-346/-474 -540/-343/-471 
f -571/-410/-469 -527/-331/-466 -536/-339/-471 -534/-337/-469 
f -631/-404/-520 -541/-344/-472 -542/-345/-473 -530/-334/-473 
usemtl Windows_Type1
f -516/-323/-473 -515/-322/-473 -514/-321/-473 -513/-320/-473 
f -512/-319/-466 -511/-318/-471 -510/-317/-471 -509/-316/-466 
usemtl Wall_Color
f -632/-405/-466 -540/-343/-471 -535/-338/-471 -528/-332/-466 
f -541/-344/-472 -631/-404/-520 -576/-369/-521 -508/-315/-453 
usemtl Windows_Type1
f -507/-314/-473 -506/-313/-473 -505/-312/-473 -504/-311/-474 
usemtl White
f -530/-334/-473 -542/-345/-473 -503/-345/-473 -502/-334/-452 
f -542/-345/-473 -543/-346/-474 -501/-346/-473 -503/-345/-473 
f -543/-346/-474 -529/-333/-473 -500/-333/-466 -501/-346/-473 
f -529/-333/-473 -530/-334/-473 -502/-334/-452 -500/-333/-466 
f -527/-331/-466 -528/-332/-466 -499/-332/-466 -498/-331/-466 
f -528/-332/-466 -535/-338/-471 -497/-338/-466 -499/-332/-466 
f -535/-338/-471 -536/-339/-471 -496/-339/-451 -497/-338/-466 
f -536/-339/-471 -527/-331/-466 -498/-331/-466 -496/-339/-451 
f -508/-315/-453 -576/-369/-521 -495/-369/-450 -494/-315/-474 
f -576/-369/-521 -577/-370/-522 -493/-370/-474 -495/-369/-450 
f -577/-370/-522 -492/-310/-449 -491/-310/-473 -493/-370/-474 
f -492/-310/-449 -508/-315/-453 -494/-315/-474 -491/-310/-473 
f -502/-334/-448 -503/-345/-447 -515/-345/-447 -516/-334/-448 
f -503/-345/-446 -501/-346/-446 -514/-346/-446 -515/-345/-446 
f -501/-346/-445 -500/-333/-445 -513/-333/-445 -514/-346/-445 
f -500/-333/-579 -502/-334/-579 -516/-334/-579 -513/-333/-579 
f -498/-331/-579 -499/-332/-579 -512/-332/-579 -509/-331/-579 
f -499/-332/-444 -497/-338/-444 -511/-338/-444 -512/-332/-444 
f -497/-338/-446 -496/-339/-446 -510/-339/-446 -511/-338/-446 
f -496/-339/-443 -498/-331/-443 -509/-331/-443 -510/-339/-443 
f -494/-315/-442 -495/-369/-442 -506/-369/-442 -507/-315/-442 
f -495/-369/-579 -493/-370/-579 -505/-370/-579 -506/-369/-579 
f -493/-370/-441 -491/-310/-441 -504/-310/-441 -505/-370/-441 
f -491/-310/-446 -494/-315/-446 -507/-315/-446 -504/-310/-446 
usemtl Wall_Color
f -523/-327/-440 -524/-328/-439 -490/-327/-438 
f -489/-309/-437 -488/-345/-436 -487/-308/-436 
usemtl Roof
f -517/-307/-435 -579/-306/-435 -521/-305/-435 -518/-304/-435 
usemtl White
f -486/-325/-434 -520/-325/-433 -521/-326/-433 -579/-326/-434 
usemtl Wall_Color
f -538/-341/-432 -485/-341/-434 -484/-303/-432 -537/-340/-432 
usemtl White
f -483/-345/-440 -517/-324/-440 -518/-334/-440 -519/-345/-440 
f -484/-303/-431 -487/-308/-430 -519/-345/-429 -520/-325/-428 
f -537/-340/-427 -484/-303/-431 -520/-325/-428 -486/-325/-426 
f -487/-308/-430 -488/-345/-425 -483/-345/-424 -519/-345/-429 
usemtl Wall_Color
f -486/-315/-465 -579/-338/-524 -580/-302/-525 -539/-382/-525 
f -537/-334/-470 -486/-315/-465 -539/-382/-525 
usemtl Windows_Type1
f -482/-301/-465 -481/-300/-465 -480/-299/-468 -479/-298/-468 
usemtl Roof
f -596/-297/-423 -478/-296/-422 -477/-295/-421 -522/-294/-420 
usemtl Windows_Type1
f -476/-293/-470 -475/-292/-470 -474/-291/-470 -473/-290/-470 
usemtl Wall_Color
f -483/-332/-465 -488/-345/-470 -489/-289/-465 -472/-369/-465 
usemtl White
f -599/-381/-554 -607/-385/-554 -611/-388/-554 -612/-389/-554 
f -471/-288/-419 -470/-287/-418 -609/-386/-552 -610/-387/-553 
f -592/-378/-547 -598/-381/-547 -603/-389/-547 -604/-384/-547 
f -469/-286/-417 -468/-285/-416 -601/-383/-545 -602/-386/-546 
usemtl Red_Trim
f -522/-412/-540 -591/-378/-540 -595/-384/-540 -596/-380/-540 
f -467/-284/-415 -466/-283/-414 -593/-379/-538 -594/-383/-539 
usemtl Wall_Color
f -533/-388/-468 -608/-385/-468 -517/-324/-468 -532/-336/-468 
usemtl White
f -465/-282/-413 -471/-288/-412 -610/-387/-463 -531/-387/-464 
f -607/-385/-550 -608/-385/-551 -533/-388/-461 -611/-388/-462 
f -609/-386/-459 -470/-287/-411 -469/-286/-410 -602/-386/-458 
f -603/-389/-457 -598/-381/-542 -599/-381/-543 -612/-389/-460 
usemtl Red_Trim
f -601/-383/-456 -468/-285/-409 -467/-284/-408 -594/-383/-455 
f -595/-384/-536 -591/-378/-536 -592/-378/-537 -604/-384/-536 
usemtl Windows_Type1
f -464/-281/-407 -463/-280/-454 -462/-279/-454 -461/-278/-407 
usemtl Wall_Color
f -532/-277/-468 -517/-339/-468 -483/-332/-465 
usemtl Windows_Type1
f -460/-276/-468 -459/-275/-468 -458/-274/-468 -457/-273/-468 
f -456/-272/-470 -455/-271/-406 -454/-270/-406 -453/-269/-470 
f -452/-268/-468 -451/-267/-465 -450/-266/-465 -449/-265/-468 
usemtl Wall_Color
f -487/-308/-465 -484/-303/-468 -485/-341/-470 -490/-327/-470 
f -472/-264/-465 -489/-309/-465 -524/-328/-470 -525/-329/-470 
f -489/-309/-437 -487/-308/-436 -490/-327/-438 -524/-328/-439 
usemtl Windows_Type1
f -448/-263/-465 -447/-262/-468 -446/-261/-470 -445/-293/-470 
f -444/-260/-454 -443/-259/-465 -442/-269/-406 -441/-258/-406 
f -440/-257/-470 -439/-293/-470 -438/-256/-465 -437/-259/-465 
usemtl Wall_Color
f -436/-255/-465 -435/-254/-405 -434/-254/-468 -433/-255/-468 
f -435/-254/-405 -432/-254/-465 -434/-254/-468 
f -531/-253/-467 -532/-277/-468 -431/-277/-468 -430/-253/-468 
f -532/-277/-468 -429/-277/-468 -431/-277/-468 
f -428/-252/-470 -427/-251/-404 -426/-251/-470 -425/-252/-470 
f -427/-251/-404 -424/-251/-470 -426/-251/-470 
f -423/-250/-403 -422/-249/-465 -421/-249/-470 -420/-250/-465 
f -422/-249/-465 -419/-249/-465 -421/-249/-470 
f -435/-254/-405 -418/-248/-402 -417/-408/-401 -432/-254/-465 
f -532/-277/-468 -483/-332/-465 -416/-332/-465 -429/-277/-468 
f -483/-332/-465 -472/-369/-465 -415/-369/-465 -416/-332/-465 
f -472/-369/-465 -436/-255/-465 -414/-255/-468 -415/-369/-465 
f -427/-251/-404 -413/-247/-400 -412/-246/-399 -424/-251/-470 
f -436/-245/-465 -472/-264/-465 -411/-264/-470 -410/-245/-465 
f -472/-264/-465 -525/-329/-470 -409/-329/-468 -411/-264/-470 
f -525/-329/-470 -422/-249/-465 -408/-249/-465 -409/-329/-468 
f -423/-250/-403 -407/-250/-465 -406/-250/-465 
f -435/-244/-405 -436/-245/-465 -405/-245/-465 -404/-244/-465 
f -436/-245/-465 -410/-245/-465 -405/-245/-465 
f -422/-249/-465 -423/-250/-403 -406/-250/-465 -403/-249/-465 
f -423/-250/-403 -402/-243/-398 -401/-242/-397 -407/-250/-465 
f -525/-329/-470 -526/-330/-470 -400/-330/-470 -399/-329/-465 
f -526/-330/-470 -428/-252/-470 -398/-252/-470 -400/-330/-470 
f -422/-249/-465 -525/-329/-470 -399/-329/-465 -419/-249/-465 
usemtl White
f -397/-255/-407 -396/-254/-465 -395/-254/-465 -394/-255/-407 
f -396/-254/-465 -393/-253/-468 -392/-253/-468 -395/-254/-465 
f -393/-253/-468 -391/-277/-468 -390/-277/-468 -392/-253/-468 
f -391/-277/-468 -397/-255/-407 -394/-255/-407 -390/-277/-468 
f -389/-252/-470 -388/-251/-470 -387/-251/-470 -386/-252/-470 
f -388/-251/-470 -385/-250/-470 -384/-250/-470 -387/-251/-470 
f -385/-250/-470 -383/-249/-465 -382/-249/-465 -384/-250/-470 
f -383/-249/-465 -389/-252/-470 -386/-252/-470 -382/-249/-465 
f -381/-253/-407 -380/-254/-465 -379/-254/-465 -378/-253/-407 
f -380/-254/-465 -377/-408/-468 -376/-408/-396 -379/-254/-465 
f -377/-408/-468 -375/-241/-465 -374/-241/-465 -376/-408/-396 
f -375/-241/-465 -381/-253/-407 -378/-253/-407 -374/-241/-465 
f -373/-277/-468 -372/-332/-468 -371/-332/-468 -370/-277/-468 
f -372/-332/-468 -369/-369/-465 -368/-369/-465 -371/-332/-468 
f -369/-369/-465 -367/-255/-468 -366/-255/-465 -368/-369/-465 
f -367/-255/-468 -373/-277/-468 -370/-277/-468 -366/-255/-465 
f -365/-251/-395 -364/-246/-406 -363/-246/-406 -362/-251/-395 
f -364/-246/-406 -361/-242/-470 -360/-242/-470 -363/-246/-406 
f -361/-242/-470 -359/-250/-468 -358/-250/-468 -360/-242/-470 
f -359/-250/-468 -365/-251/-395 -362/-251/-395 -358/-250/-468 
f -357/-245/-468 -356/-264/-465 -355/-264/-465 -354/-245/-468 
f -356/-264/-465 -353/-329/-465 -352/-329/-465 -355/-264/-465 
f -353/-329/-465 -351/-249/-465 -350/-249/-465 -352/-329/-465 
f -351/-249/-465 -357/-245/-468 -354/-245/-468 -350/-249/-465 
f -349/-250/-406 -348/-244/-470 -347/-244/-470 -346/-250/-406 
f -348/-244/-470 -345/-245/-465 -344/-245/-465 -347/-244/-470 
f -345/-245/-465 -343/-249/-407 -342/-249/-407 -344/-245/-465 
f -343/-249/-407 -349/-250/-406 -346/-250/-406 -342/-249/-407 
f -341/-242/-465 -340/-240/-470 -339/-240/-470 -338/-242/-468 
f -340/-240/-470 -337/-244/-468 -336/-244/-468 -339/-240/-470 
f -337/-244/-468 -335/-250/-407 -334/-250/-395 -336/-244/-468 
f -335/-250/-407 -341/-242/-465 -338/-242/-468 -334/-250/-395 
f -333/-239/-524 -332/-330/-465 -331/-330/-465 -330/-329/-524 
f -332/-330/-465 -329/-252/-465 -328/-252/-465 -331/-330/-465 
f -329/-252/-465 -327/-249/-470 -326/-249/-470 -328/-252/-465 
f -327/-249/-470 -333/-239/-524 -330/-329/-524 -326/-249/-470 
f -433/-255/-579 -434/-254/-579 -396/-254/-579 -397/-255/-579 
f -434/-254/-394 -430/-253/-394 -393/-253/-394 -396/-254/-394 
f -430/-253/-446 -431/-277/-446 -391/-277/-446 -393/-253/-446 
f -431/-277/-393 -433/-255/-393 -397/-255/-393 -391/-277/-393 
f -325/-254/-392 -324/-255/-392 -394/-255/-446 -395/-254/-446 
f -324/-255/-391 -323/-277/-391 -390/-277/-390 -394/-255/-390 
f -323/-277/-579 -322/-253/-579 -392/-253/-579 -390/-277/-579 
f -322/-253/-389 -325/-254/-389 -395/-254/-388 -392/-253/-388 
f -425/-252/-579 -426/-251/-579 -388/-251/-579 -389/-252/-579 
f -426/-251/-387 -420/-250/-387 -385/-250/-387 -388/-251/-387 
f -420/-250/-446 -421/-249/-446 -383/-249/-446 -385/-250/-446 
f -421/-249/-386 -425/-252/-386 -389/-252/-386 -383/-249/-386 
f -321/-251/-392 -320/-252/-392 -386/-252/-446 -387/-251/-446 
f -320/-252/-385 -319/-249/-385 -382/-249/-384 -386/-252/-384 
f -319/-249/-579 -318/-250/-579 -384/-250/-579 -382/-249/-579 
f -318/-250/-383 -321/-251/-383 -387/-251/-382 -384/-250/-382 
f -317/-253/-388 -432/-254/-388 -380/-254/-388 -381/-253/-388 
f -432/-254/-579 -417/-408/-579 -377/-408/-579 -380/-254/-579 
f -417/-408/-381 -316/-241/-381 -375/-241/-381 -377/-408/-381 
f -316/-241/-380 -317/-253/-380 -381/-253/-380 -375/-241/-380 
f -315/-254/-379 -314/-253/-379 -378/-253/-394 -379/-254/-394 
f -314/-253/-516 -313/-241/-516 -374/-241/-516 -378/-253/-516 
f -313/-241/-378 -312/-408/-378 -376/-408/-377 -374/-241/-377 
f -312/-408/-392 -315/-254/-392 -379/-254/-446 -376/-408/-446 
f -429/-277/-376 -416/-332/-376 -372/-332/-376 -373/-277/-376 
f -416/-332/-375 -415/-369/-375 -369/-369/-375 -372/-332/-375 
f -415/-369/-579 -414/-255/-579 -367/-255/-579 -369/-369/-579 
f -414/-255/-390 -429/-277/-390 -373/-277/-390 -367/-255/-390 
f -311/-332/-374 -310/-277/-374 -370/-277/-374 -371/-332/-374 
f -310/-277/-373 -309/-255/-373 -366/-255/-393 -370/-277/-393 
f -309/-255/-446 -308/-369/-446 -368/-369/-446 -366/-255/-446 
f -308/-369/-372 -311/-332/-372 -371/-332/-371 -368/-369/-371 
f -424/-251/-579 -412/-246/-579 -364/-246/-579 -365/-251/-579 
f -412/-246/-370 -307/-242/-370 -361/-242/-370 -364/-246/-370 
f -307/-242/-446 -306/-250/-446 -359/-250/-446 -361/-242/-446 
f -306/-250/-382 -424/-251/-382 -365/-251/-382 -359/-250/-382 
f -305/-246/-392 -304/-251/-392 -362/-251/-446 -363/-246/-446 
f -304/-251/-369 -303/-250/-369 -358/-250/-368 -362/-251/-368 
f -303/-250/-579 -302/-242/-579 -360/-242/-579 -358/-250/-579 
f -302/-242/-378 -305/-246/-378 -363/-246/-377 -360/-242/-377 
f -410/-245/-446 -411/-264/-446 -356/-264/-446 -357/-245/-446 
f -411/-264/-367 -409/-329/-367 -353/-329/-367 -356/-264/-367 
f -409/-329/-579 -408/-249/-579 -351/-249/-579 -353/-329/-579 
f -408/-249/-366 -410/-245/-366 -357/-245/-366 -351/-249/-366 
f -301/-264/-579 -300/-245/-579 -354/-245/-579 -355/-264/-579 
f -300/-245/-365 -299/-249/-365 -350/-249/-364 -354/-245/-364 
f -299/-249/-392 -298/-329/-392 -352/-329/-446 -350/-249/-446 
f -298/-329/-363 -301/-264/-363 -355/-264/-362 -352/-329/-362 
f -406/-250/-387 -404/-244/-387 -348/-244/-387 -349/-250/-387 
f -404/-244/-446 -405/-245/-446 -345/-245/-446 -348/-244/-446 
f -405/-245/-364 -403/-249/-364 -343/-249/-364 -345/-245/-364 
f -403/-249/-579 -406/-250/-579 -349/-250/-579 -343/-249/-579 
f -297/-244/-361 -296/-250/-361 -346/-250/-360 -347/-244/-360 
f -296/-250/-392 -295/-249/-392 -342/-249/-446 -346/-250/-446 
f -295/-249/-359 -294/-245/-359 -344/-245/-366 -342/-249/-366 
f -294/-245/-358 -297/-244/-358 -347/-244/-579 -344/-245/-579 
f -401/-242/-370 -293/-240/-370 -340/-240/-370 -341/-242/-370 
f -293/-240/-446 -292/-244/-446 -337/-244/-446 -340/-240/-446 
f -292/-244/-382 -407/-250/-382 -335/-250/-382 -337/-244/-382 
f -407/-250/-579 -401/-242/-579 -341/-242/-579 -335/-250/-579 
f -291/-240/-378 -290/-242/-378 -338/-242/-377 -339/-240/-377 
f -290/-242/-392 -289/-250/-392 -334/-250/-446 -338/-242/-446 
f -289/-250/-369 -288/-244/-369 -336/-244/-368 -334/-250/-368 
f -288/-244/-358 -291/-240/-358 -339/-240/-579 -336/-244/-579 
f -399/-329/-357 -400/-330/-357 -332/-330/-357 -333/-239/-357 
f -400/-330/-579 -398/-252/-579 -329/-252/-579 -332/-330/-579 
f -398/-252/-384 -419/-249/-384 -327/-249/-384 -329/-252/-384 
f -419/-249/-446 -399/-329/-446 -333/-239/-446 -327/-249/-446 
f -287/-330/-363 -286/-329/-363 -330/-329/-362 -331/-330/-362 
f -286/-329/-579 -285/-249/-579 -326/-249/-579 -330/-329/-579 
f -285/-249/-356 -284/-252/-356 -328/-252/-386 -326/-249/-386 
f -284/-252/-392 -287/-330/-392 -331/-330/-446 -328/-252/-446 
f -324/-255/-392 -325/-254/-392 -481/-238/-355 -482/-255/-355 
f -325/-254/-389 -322/-253/-389 -480/-253/-354 -481/-238/-354 
f -322/-253/-579 -323/-277/-579 -479/-277/-579 -480/-253/-579 
f -323/-277/-391 -324/-255/-391 -482/-255/-353 -479/-277/-353 
f -320/-252/-392 -321/-251/-392 -476/-251/-355 -473/-252/-355 
f -321/-251/-383 -318/-250/-383 -475/-250/-352 -476/-251/-352 
f -318/-250/-579 -319/-249/-579 -474/-249/-579 -475/-250/-579 
f -319/-249/-385 -320/-252/-385 -473/-252/-351 -474/-249/-351 
f -314/-253/-379 -315/-254/-379 -463/-254/-350 -464/-253/-350 
f -315/-254/-392 -312/-408/-392 -462/-408/-355 -463/-254/-355 
f -312/-408/-378 -313/-241/-378 -461/-241/-349 -462/-408/-349 
f -313/-241/-516 -314/-253/-516 -464/-253/-516 -461/-241/-516 
f -310/-277/-374 -311/-332/-374 -459/-332/-374 -460/-277/-374 
f -311/-332/-372 -308/-369/-372 -458/-369/-348 -459/-332/-348 
f -308/-369/-446 -309/-255/-446 -457/-255/-446 -458/-369/-446 
f -309/-255/-373 -310/-277/-373 -460/-277/-347 -457/-255/-347 
f -304/-251/-392 -305/-246/-392 -456/-246/-355 -453/-251/-355 
f -305/-246/-378 -302/-242/-378 -455/-242/-349 -456/-246/-349 
f -302/-242/-579 -303/-250/-579 -454/-250/-579 -455/-242/-579 
f -303/-250/-369 -304/-251/-369 -453/-251/-346 -454/-250/-346 
f -300/-245/-579 -301/-264/-579 -452/-264/-579 -449/-245/-579 
f -301/-264/-363 -298/-329/-363 -451/-329/-345 -452/-264/-345 
f -298/-329/-392 -299/-249/-392 -450/-249/-392 -451/-329/-392 
f -299/-249/-365 -300/-245/-365 -449/-245/-344 -450/-249/-344 
f -296/-250/-361 -297/-244/-361 -448/-244/-343 -445/-250/-343 
f -297/-244/-358 -294/-245/-358 -447/-245/-342 -448/-244/-342 
f -294/-245/-359 -295/-249/-359 -446/-249/-341 -447/-245/-341 
f -295/-249/-392 -296/-250/-392 -445/-250/-392 -446/-249/-392 
f -290/-242/-378 -291/-240/-378 -444/-240/-349 -441/-242/-349 
f -291/-240/-358 -288/-244/-358 -443/-244/-342 -444/-240/-342 
f -288/-244/-369 -289/-250/-369 -442/-250/-346 -443/-244/-346 
f -289/-250/-392 -290/-242/-392 -441/-242/-392 -442/-250/-392 
f -286/-329/-363 -287/-330/-363 -440/-330/-345 -437/-329/-345 
f -287/-330/-392 -284/-252/-392 -439/-252/-355 -440/-330/-355 
f -284/-252/-356 -285/-249/-356 -438/-249/-340 -439/-252/-340 
f -285/-249/-579 -286/-329/-579 -437/-329/-579 -438/-249/-579 
usemtl Roof
f -283/-237/-339 -282/-236/-338 -477/-295/-337 -478/-296/-336 
usemtl Red_Trim
f -281/-235/-335 -280/-234/-334 -279/-233/-333 
f -278/-330/-332 -277/-232/-331 -276/-231/-331 -275/-230/-332 
f -274/-252/-330 -273/-229/-330 -272/-228/-329 -271/-249/-328 
usemtl Wall_Color
f -477/-227/-327 -270/-226/-327 -269/-225/-327 
f -478/-224/-326 -268/-223/-326 -267/-223/-326 
usemtl Roof
f -266/-222/-325 -278/-221/-324 -265/-220/-323 -264/-219/-322 
f -274/-218/-321 -263/-217/-320 -264/-216/-319 -265/-215/-318 
usemtl Red_Trim
f -274/-252/-317 -265/-214/-316 -262/-234/-315 -273/-229/-317 
usemtl Roof
f -261/-213/-314 -269/-212/-314 -279/-211/-314 
f -260/-210/-313 -268/-209/-313 -259/-208/-313 
usemtl Red_Trim
f -260/-207/-312 -280/-234/-334 -281/-235/-335 
f -278/-330/-311 -275/-230/-310 -262/-234/-315 -265/-214/-316 
f -279/-233/-309 -280/-234/-308 -262/-234/-307 -275/-230/-306 
f -280/-234/-305 -260/-207/-304 -273/-229/-303 -262/-234/-302 
usemtl Roof
f -278/-221/-324 -266/-222/-325 -277/-206/-301 
usemtl Red_Trim
f -261/-231/-300 -279/-205/-309 -275/-230/-306 -276/-231/-299 
usemtl Roof
f -263/-217/-320 -274/-218/-321 -271/-204/-298 
usemtl Red_Trim
f -260/-203/-304 -259/-228/-297 -272/-228/-296 -273/-229/-303 
usemtl Roof
f -264/-219/-322 -258/-202/-295 -266/-222/-325 
f -264/-216/-319 -263/-217/-320 -258/-201/-294 
f -271/-200/-293 -272/-199/-292 -593/-198/-291 -557/-197/-290 
f -593/-198/-291 -272/-199/-292 -268/-196/-289 -478/-296/-422 
f -276/-195/-288 -257/-194/-287 -269/-193/-286 
f -277/-192/-285 -266/-191/-284 -256/-190/-283 
f -261/-189/-282 -276/-195/-288 -269/-193/-286 
f -268/-196/-289 -272/-199/-292 -259/-188/-281 
f -593/-198/-291 -478/-296/-422 -596/-297/-423 
f -522/-294/-420 -477/-295/-421 -549/-187/-280 
f -263/-186/-279 -271/-200/-293 -557/-197/-290 
f -258/-185/-278 -263/-186/-279 -557/-197/-290 -558/-184/-277 
f -258/-185/-278 -558/-184/-277 -256/-190/-283 -266/-191/-284 
usemtl Windows_Type2
f -255/-183/-276 -254/-182/-275 -253/-181/-274 -252/-180/-273 
f -253/-181/-274 -251/-179/-272 -250/-178/-271 -252/-180/-273 
usemtl Red_Trim
f -267/-223/-270 -268/-223/-269 -249/-177/-268 
f -268/-176/-269 -260/-203/-312 -248/-207/-267 -249/-177/-268 
f -260/-207/-312 -281/-235/-335 -247/-235/-266 -248/-207/-267 
f -281/-235/-335 -279/-233/-333 -246/-233/-265 -247/-235/-266 
f -279/-205/-333 -269/-175/-264 -282/-174/-263 -246/-233/-265 
f -269/-225/-264 -270/-226/-262 -282/-174/-263 
usemtl Roof
f -478/-296/-336 -249/-173/-261 -283/-237/-339 
f -478/-296/-336 -267/-172/-260 -249/-173/-261 
f -282/-236/-338 -270/-171/-259 -477/-295/-337 
usemtl Red_Trim
f -249/-177/-268 -248/-207/-267 -245/-207/-258 -244/-177/-257 
f -248/-207/-267 -247/-235/-266 -243/-235/-256 -245/-207/-258 
f -247/-235/-266 -246/-233/-265 -242/-233/-255 -243/-235/-256 
f -246/-233/-265 -282/-174/-263 -241/-174/-254 -242/-233/-255 
f -282/-174/-263 -283/-170/-253 -240/-169/-253 -241/-174/-254 
f -283/-170/-253 -249/-177/-268 -244/-177/-257 -240/-169/-253 
usemtl White
f -244/-177/-252 -245/-207/-252 -250/-207/-252 -251/-177/-252 
f -245/-207/-251 -243/-235/-250 -252/-235/-250 -250/-207/-251 
f -243/-235/-250 -242/-233/-249 -255/-233/-249 -252/-235/-250 
f -242/-233/-248 -241/-174/-248 -254/-174/-248 -255/-233/-248 
f -241/-174/-247 -240/-169/-247 -253/-169/-247 -254/-174/-247 
f -240/-169/-247 -244/-177/-247 -251/-177/-247 -253/-169/-247 
usemtl Roof
f -269/-193/-286 -239/-168/-246 -238/-167/-245 -549/-187/-280 
f -549/-187/-280 -477/-295/-421 -269/-193/-286 
f -237/-166/-244 -546/-349/-476 -236/-165/-243 
f -256/-190/-283 -237/-166/-244 -236/-165/-243 
f -549/-187/-280 -235/-164/-242 -234/-163/-241 -233/-162/-240 
f -551/-161/-239 -549/-187/-280 -233/-162/-240 
f -232/-160/-238 -551/-161/-239 -233/-162/-240 -547/-350/-477 
f -549/-187/-280 -546/-349/-476 -547/-350/-477 -235/-164/-242 
usemtl Roof_Windows
f -233/-159/-237 -234/-158/-236 -231/-157/-235 
usemtl Red_Trim
f -233/-342/-234 -231/-156/-233 -547/-155/-232 
usemtl Roof_Windows
f -231/-157/-235 -234/-158/-236 -230/-154/-231 
usemtl Red_Trim
f -547/-155/-232 -231/-156/-233 -230/-153/-230 
usemtl Roof_Windows
f -230/-154/-231 -234/-158/-236 -229/-152/-229 
usemtl Red_Trim
f -547/-155/-232 -230/-153/-230 -229/-151/-228 
usemtl Roof_Windows
f -229/-152/-229 -234/-158/-236 -228/-150/-227 
usemtl Red_Trim
f -547/-155/-232 -229/-151/-228 -228/-149/-226 
usemtl Roof_Windows
f -228/-150/-227 -234/-158/-236 -235/-148/-225 
usemtl Red_Trim
f -235/-147/-224 -547/-155/-232 -228/-149/-226 
usemtl Roof_Windows
f -238/-146/-223 -239/-145/-222 -227/-144/-221 
usemtl Red_Trim
f -238/-342/-220 -227/-143/-219 -236/-142/-218 
usemtl Roof_Windows
f -227/-144/-221 -239/-145/-222 -226/-141/-217 
usemtl Red_Trim
f -236/-142/-218 -227/-143/-219 -226/-140/-216 
usemtl Roof_Windows
f -226/-141/-217 -239/-145/-222 -225/-139/-215 
usemtl Red_Trim
f -236/-142/-218 -226/-140/-216 -225/-138/-214 
usemtl Roof_Windows
f -225/-139/-215 -239/-145/-222 -224/-137/-213 
usemtl Red_Trim
f -236/-142/-218 -225/-138/-214 -224/-136/-212 
usemtl Roof_Windows
f -224/-137/-213 -239/-145/-222 -257/-135/-211 
usemtl Red_Trim
f -257/-147/-210 -236/-142/-218 -224/-136/-212 
usemtl Roof
f -223/-134/-209 -222/-133/-208 -221/-132/-207 -562/-359/-497 
f -220/-131/-206 -219/-130/-205 -614/-392/-557 
f -218/-129/-204 -217/-128/-203 -216/-127/-202 
f -215/-126/-201 -232/-125/-200 -218/-129/-204 
f -557/-124/-492 -214/-123/-199 -556/-122/-491 
f -546/-121/-198 -213/-120/-197 -217/-128/-203 -548/-119/-196 
usemtl Dark_Grey
f -212/-398/-446 -211/-398/-446 -210/-118/-446 -209/-118/-446 
usemtl White
f -213/-398/-195 -208/-398/-195 -207/-398/-194 
f -220/-117/-193 -216/-116/-193 -206/-118/-192 -205/-398/-192 
f -216/-116/-191 -204/-118/-191 -206/-118/-191 
f -217/-118/-190 -213/-398/-190 -207/-398/-190 -203/-118/-190 
usemtl Roof
f -620/-360/-498 -202/-115/-189 -201/-114/-188 -616/-394/-559 
f -623/-390/-555 -620/-360/-498 -616/-394/-559 
usemtl Dark_Grey
f -200/-113/-446 -199/-112/-446 -198/-111/-446 -197/-110/-446 
usemtl Roof
f -256/-109/-187 -558/-355/-493 -613/-391/-556 -196/-108/-186 
f -196/-108/-186 -613/-391/-556 -614/-392/-557 -219/-130/-205 
usemtl White
f -237/-107/-185 -256/-106/-185 -195/-105/-185 -194/-104/-185 
f -256/-103/-184 -193/-102/-184 -195/-105/-183 
f -196/-101/-182 -219/-100/-182 -192/-100/-182 -191/-101/-182 
f -219/-100/-181 -190/-99/-181 -192/-100/-181 
usemtl Roof
f -223/-134/-209 -215/-126/-201 -189/-98/-180 -222/-133/-208 
f -218/-129/-204 -188/-97/-179 -189/-98/-180 -215/-126/-201 
usemtl Dark_Grey
f -187/-96/-446 -186/-95/-446 -185/-94/-446 -184/-93/-446 
usemtl Roof
f -218/-129/-204 -562/-359/-497 -221/-132/-207 -188/-97/-179 
usemtl White
f -221/-92/-178 -222/-91/-178 -183/-95/-178 -182/-92/-178 
f -222/-91/-177 -189/-94/-177 -181/-94/-177 -180/-94/-177 
f -189/-94/-176 -188/-92/-175 -179/-95/-175 -181/-94/-176 
f -188/-92/-174 -221/-92/-174 -182/-92/-174 -178/-92/-174 
usemtl Roof
f -556/-122/-491 -177/-90/-173 -176/-89/-172 -566/-88/-171 
f -175/-87/-170 -174/-86/-169 -173/-85/-168 -172/-84/-167 
usemtl Dark_Grey
f -171/-83/-446 -170/-82/-446 -169/-81/-446 -168/-80/-446 
usemtl White
f -172/-82/-166 -176/-81/-166 -167/-81/-166 -166/-82/-166 
f -176/-81/-165 -177/-80/-165 -165/-80/-165 -167/-81/-165 
f -177/-80/-164 -175/-83/-164 -164/-83/-164 -165/-80/-164 
f -175/-83/-163 -172/-82/-163 -166/-82/-163 -164/-83/-163 
usemtl Roof
f -562/-359/-497 -218/-129/-204 -163/-79/-162 -561/-358/-496 
f -216/-127/-202 -162/-78/-161 -161/-77/-160 
f -220/-131/-206 -620/-360/-498 -559/-356/-494 -216/-127/-202 
f -216/-127/-202 -559/-356/-494 -160/-76/-159 
f -218/-129/-204 -159/-75/-158 -163/-79/-162 
f -620/-360/-498 -220/-131/-206 -158/-74/-157 -202/-115/-189 
f -220/-131/-206 -614/-392/-557 -157/-73/-156 -156/-72/-155 
f -614/-392/-557 -155/-71/-154 -157/-73/-156 
f -614/-392/-557 -615/-393/-558 -155/-71/-154 
f -220/-131/-206 -156/-72/-155 -158/-74/-157 
usemtl Red_Trim
f -615/-342/-153 -154/-70/-152 -155/-69/-151 
usemtl Roof_Windows
f -616/-68/-150 -201/-67/-150 -154/-66/-150 
usemtl Red_Trim
f -155/-69/-151 -153/-65/-149 -157/-64/-148 
usemtl Roof_Windows
f -154/-66/-150 -201/-67/-150 -153/-63/-150 
usemtl Red_Trim
f -157/-64/-148 -153/-65/-149 -156/-62/-147 
usemtl Roof_Windows
f -153/-63/-150 -201/-67/-150 -152/-61/-150 
usemtl Red_Trim
f -156/-62/-147 -152/-60/-146 -158/-147/-145 
usemtl Roof_Windows
f -152/-61/-150 -201/-67/-150 -202/-59/-150 
usemtl Red_Trim
f -615/-342/-153 -616/-58/-144 -154/-70/-152 
f -202/-57/-143 -158/-147/-145 -152/-60/-146 
f -155/-69/-151 -154/-70/-152 -153/-65/-149 
f -152/-60/-146 -156/-62/-147 -153/-65/-149 
f -160/-342/-142 -151/-70/-141 -162/-69/-140 
usemtl Roof_Windows
f -559/-56/-139 -560/-55/-139 -151/-54/-139 
usemtl Red_Trim
f -162/-69/-140 -150/-65/-138 -161/-64/-137 
usemtl Roof_Windows
f -151/-54/-139 -560/-55/-139 -150/-53/-139 
usemtl Red_Trim
f -161/-64/-137 -150/-65/-138 -159/-62/-136 
usemtl Roof_Windows
f -150/-53/-139 -560/-55/-139 -149/-52/-139 
usemtl Red_Trim
f -159/-62/-136 -149/-60/-135 -163/-147/-134 
usemtl Roof_Windows
f -149/-52/-139 -560/-55/-139 -561/-51/-139 
usemtl Red_Trim
f -160/-342/-142 -559/-58/-133 -151/-70/-141 
f -561/-57/-132 -163/-147/-134 -149/-60/-135 
f -162/-69/-140 -151/-70/-141 -150/-65/-138 
f -149/-60/-135 -159/-62/-136 -150/-65/-138 
usemtl Roof
f -216/-127/-202 -160/-76/-159 -162/-78/-161 
f -161/-77/-160 -159/-75/-158 -218/-129/-204 -216/-127/-202 
usemtl Red_Trim
f -148/-342/-131 -147/-70/-141 -146/-69/-140 
usemtl Roof_Windows
f -145/-50/-139 -144/-49/-130 -147/-48/-130 
usemtl Red_Trim
f -146/-69/-140 -143/-65/-138 -142/-64/-137 
usemtl Roof_Windows
f -147/-48/-130 -144/-49/-130 -143/-47/-129 
usemtl Red_Trim
f -142/-64/-137 -143/-65/-138 -141/-62/-128 
usemtl Roof_Windows
f -143/-47/-129 -144/-49/-130 -140/-46/-130 
usemtl Red_Trim
f -141/-62/-128 -140/-60/-135 -139/-147/-127 
usemtl Roof_Windows
f -140/-46/-130 -144/-49/-130 -138/-45/-126 
usemtl Red_Trim
f -148/-342/-131 -145/-58/-125 -147/-70/-141 
f -138/-57/-132 -139/-147/-127 -140/-60/-135 
f -146/-69/-140 -147/-70/-141 -143/-65/-138 
f -140/-60/-135 -141/-62/-128 -143/-65/-138 
usemtl Roof
f -138/-44/-124 -623/-390/-555 -613/-391/-556 -139/-43/-123 
f -145/-42/-122 -148/-41/-121 -556/-353/-491 -566/-40/-171 
f -144/-39/-120 -145/-42/-122 -566/-40/-171 
f -138/-44/-124 -144/-39/-120 -566/-40/-171 -623/-390/-555 
f -142/-38/-119 -141/-37/-118 -613/-391/-556 -556/-353/-491 
f -613/-391/-556 -141/-37/-118 -139/-43/-123 
f -146/-36/-117 -142/-38/-119 -556/-353/-491 
f -148/-41/-121 -146/-36/-117 -556/-353/-491 
usemtl Dark_Grey
f -137/-398/-446 -136/-398/-446 -135/-118/-446 -134/-118/-446 
f -133/-398/-446 -132/-398/-446 -131/-118/-446 -130/-118/-446 
f -129/-118/-446 -128/-118/-446 -127/-398/-446 -126/-398/-446 
f -125/-118/-446 -124/-118/-446 -123/-398/-446 -122/-398/-446 
f -121/-35/-446 -120/-101/-446 -119/-100/-446 -118/-99/-446 
f -117/-34/-446 -116/-35/-446 -115/-99/-446 -114/-33/-446 
f -113/-112/-446 -112/-34/-446 -111/-33/-446 -110/-111/-446 
f -109/-32/-446 -108/-104/-446 -107/-105/-446 -106/-102/-446 
f -105/-110/-446 -104/-32/-446 -103/-102/-446 -102/-113/-446 
usemtl Red_Trim
f -101/-398/-446 -100/-398/-446 -99/-398/-446 -98/-398/-446 
f -100/-398/-446 -97/-118/-446 -96/-118/-446 -99/-398/-446 
f -97/-118/-446 -95/-118/-446 -94/-118/-446 -96/-118/-446 
f -95/-118/-446 -101/-398/-446 -98/-398/-446 -94/-118/-446 
f -93/-398/-446 -205/-398/-446 -92/-398/-446 -91/-398/-446 
f -205/-398/-446 -206/-118/-446 -90/-118/-446 -92/-398/-446 
f -206/-118/-446 -204/-118/-446 -89/-118/-446 -90/-118/-446 
f -204/-118/-446 -93/-398/-446 -91/-398/-446 -89/-118/-446 
f -100/-398/-446 -93/-398/-446 -88/-398/-446 -87/-398/-446 
f -93/-398/-446 -204/-118/-446 -86/-118/-446 -88/-398/-446 
f -204/-118/-446 -97/-118/-446 -85/-118/-446 -86/-118/-446 
f -97/-118/-446 -100/-398/-446 -87/-398/-446 -85/-118/-446 
f -84/-118/-446 -203/-118/-446 -83/-118/-446 -82/-118/-446 
f -203/-118/-446 -207/-398/-446 -81/-398/-446 -83/-118/-446 
f -207/-398/-446 -208/-398/-446 -80/-398/-446 -81/-398/-446 
f -208/-398/-446 -84/-118/-446 -82/-118/-446 -80/-398/-446 
f -95/-118/-446 -84/-118/-446 -79/-118/-446 -78/-118/-446 
f -84/-118/-446 -208/-398/-446 -77/-398/-446 -79/-118/-446 
f -208/-398/-446 -101/-398/-446 -76/-398/-446 -77/-398/-446 
f -101/-398/-446 -95/-118/-446 -78/-118/-446 -76/-398/-446 
usemtl Dark_Grey
f -98/-398/-116 -99/-398/-116 -211/-398/-116 -212/-398/-116 
f -99/-398/-115 -96/-118/-115 -210/-118/-115 -211/-398/-115 
f -96/-118/-114 -94/-118/-113 -209/-118/-114 -210/-118/-113 
f -94/-118/-112 -98/-398/-112 -212/-398/-112 -209/-118/-112 
f -91/-398/-111 -92/-398/-111 -136/-398/-111 -137/-398/-111 
f -92/-398/-110 -90/-118/-110 -135/-118/-110 -136/-398/-110 
f -90/-118/-109 -89/-118/-109 -134/-118/-109 -135/-118/-109 
f -89/-118/-108 -91/-398/-108 -137/-398/-108 -134/-118/-108 
f -87/-398/-116 -88/-398/-116 -132/-398/-116 -133/-398/-116 
f -88/-398/-107 -86/-118/-107 -131/-118/-107 -132/-398/-107 
f -86/-118/-114 -85/-118/-114 -130/-118/-114 -131/-118/-114 
f -85/-118/-106 -87/-398/-106 -133/-398/-106 -130/-118/-106 
f -82/-118/-114 -83/-118/-114 -128/-118/-114 -129/-118/-114 
f -83/-118/-105 -81/-398/-105 -127/-398/-105 -128/-118/-105 
f -81/-398/-116 -80/-398/-116 -126/-398/-116 -127/-398/-116 
f -80/-398/-104 -82/-118/-104 -129/-118/-104 -126/-398/-104 
f -78/-118/-114 -79/-118/-114 -124/-118/-114 -125/-118/-114 
f -79/-118/-103 -77/-398/-103 -123/-398/-103 -124/-118/-103 
f -77/-398/-116 -76/-398/-116 -122/-398/-116 -123/-398/-116 
f -76/-398/-102 -78/-118/-102 -125/-118/-102 -122/-398/-102 
usemtl Red_Trim
f -75/-113/-446 -74/-112/-446 -73/-112/-446 -72/-113/-446 
f -74/-112/-446 -71/-111/-446 -70/-111/-446 -73/-112/-446 
f -71/-111/-446 -69/-110/-446 -68/-110/-446 -70/-111/-446 
f -69/-110/-446 -75/-113/-446 -72/-113/-446 -68/-110/-446 
f -67/-35/-446 -191/-101/-446 -66/-101/-446 -65/-35/-446 
f -191/-101/-446 -192/-100/-446 -64/-100/-446 -66/-101/-446 
f -192/-100/-446 -190/-99/-446 -63/-99/-446 -64/-100/-446 
f -190/-99/-446 -67/-35/-446 -65/-35/-446 -63/-99/-446 
f -62/-34/-446 -67/-35/-446 -61/-35/-446 -60/-34/-446 
f -67/-35/-446 -190/-99/-446 -59/-99/-446 -61/-35/-446 
f -190/-99/-446 -58/-33/-446 -57/-33/-446 -59/-99/-446 
f -58/-33/-446 -62/-34/-446 -60/-34/-446 -57/-33/-446 
f -74/-112/-446 -62/-34/-446 -56/-34/-446 -55/-112/-446 
f -62/-34/-446 -58/-33/-446 -54/-33/-446 -56/-34/-446 
f -58/-33/-446 -71/-111/-446 -53/-111/-446 -54/-33/-446 
f -71/-111/-446 -74/-112/-446 -55/-112/-446 -53/-111/-446 
f -52/-32/-446 -194/-104/-446 -51/-104/-446 -50/-32/-446 
f -194/-104/-446 -195/-105/-446 -49/-105/-446 -51/-104/-446 
f -195/-105/-446 -193/-102/-446 -48/-102/-446 -49/-105/-446 
f -193/-102/-446 -52/-32/-446 -50/-32/-446 -48/-102/-446 
f -69/-110/-446 -52/-32/-446 -47/-32/-446 -46/-110/-446 
f -52/-32/-446 -193/-102/-446 -45/-102/-446 -47/-32/-446 
f -193/-102/-446 -75/-113/-446 -44/-113/-446 -45/-102/-446 
f -75/-113/-446 -69/-110/-446 -46/-110/-446 -44/-113/-446 
usemtl Dark_Grey
f -72/-113/-101 -73/-112/-101 -199/-112/-101 -200/-113/-101 
f -73/-112/-100 -70/-111/-100 -198/-111/-100 -199/-112/-100 
f -70/-111/-99 -68/-110/-99 -197/-110/-99 -198/-111/-99 
f -68/-110/-98 -72/-113/-98 -200/-113/-98 -197/-110/-98 
f -65/-35/-97 -66/-101/-97 -120/-101/-97 -121/-35/-97 
f -66/-101/-96 -64/-100/-96 -119/-100/-96 -120/-101/-96 
f -64/-100/-95 -63/-99/-95 -118/-99/-95 -119/-100/-95 
f -63/-99/-94 -65/-35/-94 -121/-35/-94 -118/-99/-94 
f -60/-34/-101 -61/-35/-101 -116/-35/-101 -117/-34/-101 
f -61/-35/-93 -59/-99/-93 -115/-99/-93 -116/-35/-93 
f -59/-99/-95 -57/-33/-95 -114/-33/-95 -115/-99/-95 
f -57/-33/-92 -60/-34/-92 -117/-34/-92 -114/-33/-92 
f -55/-112/-97 -56/-34/-97 -112/-34/-97 -113/-112/-97 
f -56/-34/-91 -54/-33/-91 -111/-33/-91 -112/-34/-91 
f -54/-33/-99 -53/-111/-99 -110/-111/-99 -111/-33/-99 
f -53/-111/-90 -55/-112/-90 -113/-112/-90 -110/-111/-90 
f -50/-32/-99 -51/-104/-99 -108/-104/-99 -109/-32/-99 
f -51/-104/-89 -49/-105/-89 -107/-105/-89 -108/-104/-89 
f -49/-105/-101 -48/-102/-101 -106/-102/-101 -107/-105/-101 
f -48/-102/-88 -50/-32/-88 -109/-32/-88 -106/-102/-88 
f -46/-110/-99 -47/-32/-99 -104/-32/-99 -105/-110/-99 
f -47/-32/-87 -45/-102/-87 -103/-102/-87 -104/-32/-87 
f -45/-102/-101 -44/-113/-101 -102/-113/-101 -103/-102/-101 
f -44/-113/-86 -46/-110/-86 -105/-110/-86 -102/-113/-86 
usemtl Red_Trim
f -165/-80/-446 -164/-83/-446 -43/-83/-446 -42/-80/-446 
f -164/-83/-446 -166/-82/-446 -41/-82/-446 -43/-83/-446 
f -166/-82/-446 -167/-81/-446 -40/-81/-446 -41/-82/-446 
f -167/-81/-446 -165/-80/-446 -42/-80/-446 -40/-81/-446 
usemtl Dark_Grey
f -42/-80/-85 -43/-83/-85 -171/-83/-85 -168/-80/-85 
f -43/-83/-84 -41/-82/-84 -170/-82/-84 -171/-83/-84 
f -41/-82/-83 -40/-81/-83 -169/-81/-83 -170/-82/-83 
f -40/-81/-82 -42/-80/-82 -168/-80/-82 -169/-81/-82 
usemtl Roof
f -269/-193/-286 -257/-194/-287 -239/-168/-246 
f -548/-351/-478 -232/-160/-238 -547/-350/-477 
f -549/-187/-280 -238/-167/-245 -236/-165/-243 -546/-349/-476 
f -277/-192/-285 -256/-190/-283 -236/-165/-243 
f -276/-195/-288 -277/-192/-285 -236/-165/-243 -257/-194/-287 
f -218/-129/-204 -232/-125/-200 -548/-119/-196 -217/-128/-203 
usemtl Wall_Color
f -582/-374/-528 -618/-396/-560 -639/-413/-585 
f -640/-413/-586 -581/-373/-527 -582/-374/-528 
usemtl Roof
f -213/-120/-197 -546/-121/-198 -237/-31/-81 -219/-130/-205 
f -220/-131/-206 -213/-120/-197 -219/-130/-205 
usemtl Red_Trim
f -563/-395/-502 -223/-396/-80 -562/-361/-501 
usemtl Wall_Color
f -429/-277/-468 -414/-255/-468 -433/-255/-468 -431/-277/-468 
f -317/-253/-79 -531/-253/-467 -430/-253/-468 
f -317/-253/-79 -430/-253/-468 -434/-254/-468 -432/-254/-465 
f -414/-255/-468 -436/-255/-465 -433/-255/-468 
f -292/-244/-78 -435/-244/-405 -404/-244/-465 
f -292/-244/-78 -404/-244/-465 -406/-250/-465 -407/-250/-465 
f -408/-249/-465 -422/-249/-465 -403/-249/-465 
f -408/-249/-465 -403/-249/-465 -405/-245/-465 -410/-245/-465 
f -306/-250/-77 -423/-250/-403 -420/-250/-465 
f -306/-250/-77 -420/-250/-465 -426/-251/-470 -424/-251/-470 
f -398/-252/-470 -428/-252/-470 -425/-252/-470 
f -398/-252/-470 -425/-252/-470 -421/-249/-470 -419/-249/-465 
usemtl Dark_Grey
f -39/-92/-446 -38/-92/-446 -37/-95/-446 -36/-95/-446 
usemtl Red_Trim
f -181/-94/-446 -179/-95/-446 -35/-95/-446 -34/-94/-446 
f -179/-95/-446 -183/-95/-446 -33/-95/-446 -35/-95/-446 
f -183/-95/-446 -180/-94/-446 -32/-94/-446 -33/-95/-446 
f -180/-94/-446 -181/-94/-446 -34/-94/-446 -32/-94/-446 
f -179/-95/-446 -178/-92/-446 -31/-92/-446 -30/-95/-446 
f -178/-92/-446 -182/-92/-446 -29/-92/-446 -31/-92/-446 
f -182/-92/-446 -183/-95/-446 -28/-95/-446 -29/-92/-446 
f -183/-95/-446 -179/-95/-446 -30/-95/-446 -28/-95/-446 
usemtl Dark_Grey
f -34/-94/-76 -35/-95/-76 -187/-96/-76 -184/-93/-76 
f -35/-95/-75 -33/-95/-75 -186/-95/-75 -187/-96/-75 
f -33/-95/-74 -32/-94/-74 -185/-94/-74 -186/-95/-74 
f -32/-94/-73 -34/-94/-73 -184/-93/-73 -185/-94/-73 
f -30/-95/-72 -31/-92/-72 -39/-92/-72 -36/-95/-72 
f -31/-92/-71 -29/-92/-71 -38/-92/-71 -39/-92/-71 
f -29/-92/-74 -28/-95/-74 -37/-95/-74 -38/-92/-74 
f -28/-95/-70 -30/-95/-70 -36/-95/-70 -37/-95/-70 
usemtl White
f -222/-91/-178 -180/-94/-178 -183/-95/-178 
f -188/-92/-175 -178/-92/-175 -179/-95/-175 
f -220/-117/-195 -205/-398/-194 -93/-398/-194 
f -220/-117/-195 -93/-398/-194 -100/-398/-194 
f -213/-398/-195 -101/-398/-194 -208/-398/-195 
f -213/-398/-195 -220/-117/-195 -100/-398/-194 -101/-398/-194 
f -217/-118/-191 -203/-118/-69 -84/-118/-69 
f -217/-118/-191 -84/-118/-69 -95/-118/-69 
f -216/-116/-191 -97/-118/-69 -204/-118/-191 
f -216/-116/-191 -217/-118/-191 -95/-118/-69 -97/-118/-69 
f -196/-101/-183 -191/-101/-183 -67/-35/-183 
f -196/-101/-183 -67/-35/-183 -62/-34/-183 
f -256/-103/-184 -196/-101/-183 -62/-34/-183 -74/-112/-183 
f -256/-103/-184 -74/-112/-183 -75/-113/-184 
f -256/-103/-184 -75/-113/-184 -193/-102/-184 
f -237/-104/-181 -194/-104/-181 -52/-32/-181 
f -237/-104/-181 -52/-32/-181 -69/-110/-181 
f -237/-104/-181 -69/-110/-181 -71/-111/-181 
f -219/-100/-181 -237/-104/-181 -71/-111/-181 -58/-33/-181 
f -219/-100/-181 -58/-33/-181 -190/-99/-181 
usemtl Wall_Color
f -539/-382/-525 -580/-302/-525 -637/-410/-68 -544/-347/-68 
usemtl White
f -580/-376/-488 -554/-376/-488 -585/-376/-67 -637/-410/-67 
f -554/-376/-490 -555/-375/-490 -584/-375/-66 -585/-376/-66 
f -555/-375/-483 -552/-375/-484 -583/-375/-65 -584/-375/-64 
f -552/-375/-487 -553/-377/-487 -588/-377/-63 -583/-375/-63 
usemtl Red_Trim
f -553/-377/-479 -550/-377/-479 -587/-377/-479 -588/-377/-479 
f -550/-377/-481 -551/-377/-482 -586/-377/-62 -587/-377/-61 
usemtl Roof
f -27/-30/-60 -26/-29/-60 -25/-28/-60 -24/-27/-60 
f -23/-26/-59 -22/-25/-59 -25/-24/-58 -26/-23/-58 
f -21/-22/-57 -20/-21/-59 -19/-20/-59 -18/-19/-56 
usemtl Red_Trim
f -223/-396/-80 -563/-395/-502 -617/-395/-55 -618/-396/-54 
f -563/-395/-516 -567/-397/-516 -619/-397/-516 -617/-395/-516 
usemtl White
f -567/-397/-510 -568/-403/-511 -624/-403/-53 -619/-397/-53 
f -568/-403/-508 -572/-403/-509 -630/-403/-52 -624/-403/-52 
f -572/-403/-517 -573/-402/-517 -629/-402/-53 -630/-403/-53 
f -573/-402/-516 -571/-410/-516 -638/-411/-516 -629/-402/-516 
usemtl Wall_Color
f -571/-410/-469 -534/-337/-469 -545/-348/-53 -638/-411/-53 
usemtl Red_Trim
f -551/-161/-51 -232/-160/-50 -26/-29/-50 -27/-30/-51 
f -232/-125/-50 -23/-26/-49 -26/-23/-50 
f -215/-126/-49 -223/-134/-49 -20/-21/-49 -21/-22/-48 
f -223/-396/-80 -618/-396/-54 -19/-20/-47 -20/-21/-47 
usemtl Wall_Color
f -618/-396/-560 -582/-374/-528 -18/-19/-46 -19/-20/-45 
f -582/-374/-528 -17/-18/-44 -18/-19/-46 
f -581/-373/-527 -586/-377/-532 -24/-27/-475 -25/-28/-46 
usemtl Red_Trim
f -586/-377/-62 -551/-377/-482 -27/-30/-43 -24/-27/-43 
usemtl Roof
f -21/-22/-57 -18/-19/-56 -17/-18/-42 -16/-17/-42 
usemtl Dark_Grey
f -15/-16/-446 -14/-15/-446 -13/-14/-446 -12/-13/-446 
usemtl White
f -17/-18/-44 -22/-25/-41 -11/-14/-40 -10/-15/-40 
f -22/-25/-68 -23/-26/-68 -9/-13/-68 -11/-14/-68 
f -23/-26/-49 -16/-17/-39 -8/-16/-38 -9/-13/-37 
f -16/-17/-36 -17/-18/-36 -10/-15/-36 -8/-16/-36 
f -10/-15/-446 -11/-14/-446 -7/-14/-446 -6/-15/-446 
f -11/-14/-446 -9/-13/-446 -5/-13/-446 -7/-14/-446 
f -9/-13/-446 -8/-16/-446 -4/-16/-446 -5/-13/-446 
f -8/-16/-446 -10/-15/-446 -6/-15/-446 -4/-16/-446 
usemtl Dark_Grey
f -6/-15/-35 -7/-14/-35 -13/-14/-35 -14/-15/-35 
f -7/-14/-34 -5/-13/-34 -12/-13/-34 -13/-14/-34 
f -5/-13/-528 -4/-16/-528 -15/-16/-528 -12/-13/-528 
f -4/-16/-68 -6/-15/-68 -14/-15/-68 -15/-16/-68 
usemtl Wall_Color
f -582/-374/-528 -581/-373/-527 -22/-25/-41 -17/-18/-44 
f -581/-373/-527 -25/-24/-46 -22/-25/-41 
usemtl Red_Trim
f -215/-126/-49 -21/-22/-48 -16/-17/-39 
f -232/-125/-50 -215/-126/-49 -16/-17/-39 -23/-26/-49 
usemtl Wall_Color
f -3/-12/-33 -492/-310/-449 -577/-370/-522 -578/-371/-523 
f -508/-315/-453 -492/-310/-449 -3/-12/-33 -541/-344/-472 
f -316/-241/-32 -417/-408/-401 -418/-248/-402 -465/-11/-31 
f -317/-253/-79 -316/-241/-32 -465/-11/-31 -531/-253/-467 
f -307/-242/-30 -412/-246/-399 -413/-247/-400 -402/-10/-398 
f -306/-250/-77 -307/-242/-30 -402/-10/-398 -423/-250/-403 
f -293/-240/-29 -401/-242/-397 -402/-243/-398 -418/-9/-402 
f -418/-9/-402 -435/-244/-405 -292/-244/-78 -293/-240/-29 
usemtl Roof
f -557/-197/-290 -593/-198/-291 -466/-8/-28 -214/-7/-27 
f -175/-87/-170 -177/-90/-173 -556/-122/-491 -214/-123/-199 
f -174/-86/-169 -175/-87/-170 -214/-123/-199 
f -566/-88/-171 -176/-89/-172 -172/-84/-167 -565/-6/-26 
f -565/-6/-26 -172/-84/-167 -173/-85/-168 
usemtl Wall_Color
f -174/-5/-25 -214/-4/-24 -2/-3/-23 -1/-5/-22 
f -1/-141/-21 -3/-272/-20 -578/-263/-19 -174/-145/-18 
f -173/-2/-17 -174/-5/-18 -578/-1/-19 
f -578/-141/-16 -574/-263/-16 -575/-262/-15 -173/-178/-14 
f -565/-180/-13 -173/-178/-14 -570/-265/-12 -564/-268/-11 
f -570/-366/-12 -173/-178/-14 -569/-365/-14 
f -173/-178/-14 -575/-262/-15 -569/-365/-14 
f -402/-259/-10 -2/-182/-23 -214/-293/-24 
f -418/-266/-9 -402/-259/-10 -214/-293/-24 
f -465/-291/-8 -418/-266/-9 -214/-293/-24 
f -471/-288/-7 -465/-282/-8 -470/-287/-6 
f -468/-285/-5 -469/-286/-4 -470/-287/-6 
f -465/-282/-8 -214/-293/-24 -470/-287/-6 
f -214/-293/-24 -468/-285/-5 -470/-287/-6 
f -214/-293/-24 -466/-8/-3 -468/-285/-5 
f -466/-8/-3 -467/-284/-2 -468/-285/-5 
f -402/-259/-10 -413/-292/-1 -2/-182/-23 
# 544 polygons - 173 triangles

