# 3ds Max Wavefront OBJ Exporter v0.97b - (c)2007 guruware
# File Created: 22.03.2012 15:01:40

mtllib Aida_7_1.mtl

#
# object aida_7_1
#

v  -66.8023 333.8493 14.8429
v  -66.8023 333.8493 19.0499
v  -66.3499 332.9070 19.0203
v  -66.3499 332.9070 14.8993
v  -67.5263 335.8141 14.8725
v  -67.5263 335.8141 19.1116
v  -67.5263 335.8141 17.7616
v  -67.5263 335.8141 15.2054
v  -67.1952 334.7915 17.7397
v  -67.1953 334.7915 15.2023
v  -67.1952 334.7914 19.0795
v  -67.1953 334.7915 14.8725
v  -64.6478 330.0803 18.9315
v  -64.6478 330.0803 14.9535
v  -65.3417 331.0464 14.8680
v  -65.3417 331.0464 18.9611
v  -65.8956 331.9868 14.8697
v  -65.8956 331.9868 18.9907
v  -62.8149 327.5049 18.9315
v  -62.8149 327.5049 15.0397
v  -64.6478 330.0803 20.3515
v  -65.2539 329.8463 20.6297
v  -63.3239 327.1190 20.6297
v  -62.8149 327.5049 20.3515
v  -65.8589 329.6093 19.0124
v  -65.8600 329.6122 14.3303
v  -63.8827 326.8114 14.4165
v  -63.8827 326.8114 19.4007
v  -65.8618 330.6951 20.6560
v  -66.3523 331.5337 20.6823
v  -66.7982 331.1173 20.3858
v  -66.3687 330.3821 20.3692
v  -66.7631 332.3593 20.7086
v  -67.1810 331.8268 20.4018
v  -67.1570 333.2035 20.7350
v  -67.5119 332.5636 20.4163
v  -67.5066 334.0420 20.7613
v  -67.8181 333.2988 20.4302
v  -67.7845 334.8792 20.7876
v  -68.0679 334.0407 20.4428
v  -68.0081 335.7178 20.8140
v  -68.2637 334.7759 20.4542
v  -65.8600 329.6122 20.3515
v  -68.4451 335.5892 20.4648
v  -67.7603 336.6854 18.8874
v  -67.7602 336.6854 20.5315
v  -67.5263 335.8141 20.5315
v  -68.6857 336.6678 19.0124
v  -68.2637 334.7759 19.0124
v  -68.6857 336.6678 20.4790
v  -68.0679 334.0407 19.0124
v  -67.8181 333.2988 19.0124
v  -67.5119 332.5636 19.0124
v  -67.1810 331.8268 19.0124
v  -66.7982 331.1173 19.0124
v  -66.3687 330.3821 19.0124
v  -63.8827 326.8114 20.3515
v  -65.3417 331.0464 20.3811
v  -65.8956 331.9868 20.4106
v  -66.3499 332.9070 20.4402
v  -66.8023 333.8492 20.4698
v  -67.1952 334.7915 20.4994
v  -68.2193 336.6746 20.8422
v  -67.7603 336.6855 14.7877
v  -82.0648 336.2532 14.3303
v  -77.7811 325.0477 14.3303
v  -77.7817 325.0491 19.5247
v  -82.0647 336.2512 19.5247
v  -77.6152 336.3611 25.4520
v  -73.1712 336.4755 19.5247
v  -73.1710 336.4757 19.0124
v  -73.1712 336.4775 14.3303
v  -69.9480 328.0438 14.3303
v  -69.9463 328.0459 19.0124
v  -69.9485 328.0452 19.5247
v  -65.8584 329.6080 14.3303
v  -73.8653 326.5490 25.4520
# 77 vertices

vn 0.9126 0.4088 0.0000
vn 0.9125 0.4090 0.0000
vn 0.8991 0.4378 0.0000
vn 0.8991 0.4377 0.0000
vn 0.9591 0.2831 0.0000
vn 0.9589 0.2838 0.0000
vn 0.9358 0.3525 0.0000
vn -0.0341 0.9994 0.0000
vn 0.9380 0.3467 0.0000
vn 0.9378 0.3471 0.0000
vn 0.8135 0.5816 0.0000
vn 0.8134 0.5817 0.0000
vn 0.8384 0.5451 0.0000
vn 0.8378 0.5460 0.0000
vn 0.8796 0.4757 0.0000
vn 0.8798 0.4754 0.0000
vn 0.8147 0.5798 0.0000
vn 0.3298 0.2334 0.9148
vn 0.3255 0.2316 0.9167
vn -0.8169 -0.5767 -0.0002
vn -0.8168 -0.5769 0.0000
vn -0.3688 -0.2439 0.8970
vn -0.3654 -0.2338 0.9010
vn -0.3813 -0.2182 0.8983
vn -0.3834 -0.2270 0.8953
vn -0.4057 -0.2171 0.8878
vn -0.4029 -0.1985 0.8935
vn -0.4340 -0.2085 0.8764
vn -0.4337 -0.1973 0.8792
vn -0.4844 -0.1877 0.8545
vn -0.4854 -0.1779 0.8560
vn -0.5380 -0.1694 0.8257
vn -0.5411 -0.1569 0.8262
vn -0.3194 -0.2570 0.9121
vn -0.3528 -0.2539 0.9006
vn -0.5919 -0.1424 0.7933
vn 0.9658 0.2593 0.0000
vn 0.9590 0.2835 0.0000
vn -0.9760 -0.2177 0.0000
vn -0.9714 -0.2375 0.0000
vn -0.9714 -0.2374 0.0000
vn -0.9575 -0.2884 0.0000
vn -0.9576 -0.2881 0.0000
vn -0.9360 -0.3520 0.0000
vn -0.9361 -0.3517 0.0000
vn -0.9178 -0.3971 0.0000
vn -0.9178 -0.3969 0.0000
vn -0.8967 -0.4426 0.0000
vn -0.8969 -0.4422 0.0000
vn -0.8719 -0.4897 0.0000
vn -0.8720 -0.4895 0.0000
vn -0.8494 -0.5278 0.0002
vn -0.8494 -0.5277 0.0000
vn -0.8347 -0.5507 0.0005
vn -0.8345 -0.5510 0.0002
vn -0.8169 -0.5767 0.0006
vn 0.8382 0.5454 0.0000
vn 0.8801 0.4748 0.0000
vn 0.9127 0.4086 0.0000
vn 0.9382 0.3460 0.0000
vn -0.3299 -0.2329 0.9148
vn -0.3281 -0.2322 0.9157
vn 0.3613 0.1840 0.9141
vn 0.3606 0.1822 0.9148
vn 0.3810 0.1588 0.9108
vn 0.3817 0.1610 0.9102
vn 0.3895 0.1586 0.9073
vn 0.3880 0.1526 0.9089
vn 0.4117 0.1434 0.9000
vn 0.4504 0.1180 0.8850
vn 0.4507 0.1217 0.8843
vn 0.4876 0.1028 0.8670
vn 0.3378 0.2146 0.9164
vn 0.3393 0.2145 0.9159
vn 0.5561 0.0984 0.8252
vn 0.9658 0.2594 0.0000
vn 0.4821 0.1294 0.8665
vn -0.6055 -0.1567 0.7802
vn -0.9341 -0.3571 0.0000
vn -0.9341 -0.3571 -0.0001
vn -0.0252 0.9997 0.0004
vn -0.0253 0.9997 0.0004
vn 0.3557 -0.9346 0.0003
vn 0.3572 -0.9340 0.0003
vn 0.3573 -0.9340 0.0003
vn 0.0000 0.0000 1.0000
vn -0.7624 -0.2915 0.5777
vn -0.7625 -0.2914 0.5776
vn 0.7626 0.2915 0.5774
vn 0.7626 0.2915 0.5775
vn 0.9340 0.3573 0.0043
vn 0.9340 0.3573 0.0045
vn 0.9341 0.3571 0.0005
vn 0.9341 0.3571 0.0004
# 94 vertex normals

vt 1.3818 -0.9077 -0.2594
vt 1.3818 1.1958 -0.2594
vt 0.9107 1.1810 -0.0332
vt 0.9107 -0.8795 -0.0332
vt 2.3240 -0.9501 -0.6107
vt 2.3240 1.2254 -0.6107
vt 2.3240 0.5325 -0.6107
vt 0.9995 0.0005 0.2996
vt 0.9995 0.9995 0.9995
vt 0.0005 0.9930 0.6954
vt 0.0005 0.0014 0.0005
vt 1.8529 0.5407 -0.4559
vt 1.8529 1.2106 -0.4559
vt 1.8529 -0.6911 -0.4559
vt 1.8530 -0.8929 -0.4559
vt -0.5027 1.1366 0.8178
vt -0.5027 -0.8524 0.8178
vt -0.0316 -0.8952 0.4615
vt -0.0316 1.1514 0.4615
vt 0.4396 -0.8943 0.1859
vt 0.4396 1.1662 0.1860
vt -1.7904 1.1366 1.7343
vt -1.7904 -0.8093 1.7343
vt 1.6420 -0.1435 0.0005
vt 1.7641 0.3605 0.9995
vt -0.8060 0.3593 0.9995
vt -0.7896 -0.1514 0.0005
vt -0.9916 0.9939 0.0890
vt -0.9916 -0.5399 0.0890
vt 0.1673 -0.5111 0.2755
vt 0.1673 1.1503 0.2755
vt 0.2545 0.6197 0.9127
vt 1.0018 0.6210 0.9930
vt 0.8976 1.1145 0.0310
vt 0.2426 1.1139 -0.0189
vt 0.1375 0.6170 0.9154
vt 0.8469 0.6178 0.9948
vt 0.6228 1.1248 0.0290
vt 0.0031 1.1018 -0.0181
vt -0.4421 0.6138 0.9175
vt 0.2744 0.6169 0.9956
vt -0.0579 1.1129 0.0249
vt -0.6792 1.1202 -0.0180
vt 0.1292 0.3621 0.9221
vt 0.8281 0.3610 0.9984
vt 0.3934 0.8536 0.0251
vt -0.2192 0.8550 -0.0152
vt -0.1716 0.3585 0.9259
vt 0.4584 0.3571 0.9995
vt -0.0456 0.8660 0.0355
vt -0.6048 0.8639 0.0005
vt 0.4567 0.3596 0.9287
vt 1.0512 0.3592 0.9995
vt 0.4731 0.8492 0.0312
vt -0.0480 0.8498 0.0005
vt 0.1557 0.8655 0.0005
vt 0.0369 0.3606 0.9131
vt 0.8399 0.3714 0.9995
vt 0.8653 0.8472 0.0586
vt 1.0433 0.8146 0.0599
vt 2.7952 1.2402 -0.7363
vt 2.7904 1.9501 -0.7343
vt 2.3193 1.9353 -0.6086
vt -3.5061 1.0665 0.2689
vt -2.8844 1.0477 0.1224
vt -2.8809 1.5210 0.1222
vt -3.1482 1.5291 0.1852
vt -3.5026 1.5399 0.2688
vt -2.6356 1.0400 0.0737
vt -2.6321 1.5133 0.0735
vt -2.3803 1.0323 0.0404
vt -2.3768 1.5056 0.0402
vt -2.1153 1.0246 0.0247
vt -2.1119 1.4979 0.0246
vt -1.8428 1.0169 0.0162
vt -1.8394 1.4902 0.0160
vt -1.5744 1.0093 0.0273
vt -1.5709 1.4826 0.0272
vt -1.2914 1.0016 0.0487
vt -1.2879 1.4749 0.0485
vt -0.9881 1.4672 0.0889
vt 0.1707 1.4672 0.2753
vt -0.5074 1.8466 0.8199
vt -1.7951 1.8466 1.7363
vt -0.0363 1.8614 0.4636
vt 0.4348 1.8762 0.1880
vt 0.9059 1.8909 -0.0311
vt 1.3770 1.9057 -0.2574
vt 1.8482 1.9205 -0.4538
vt 1.8863 0.8645 0.0005
vt -0.7510 0.8663 0.0005
vt 0.2861 0.0958 0.0530
vt 1.1258 0.1000 0.1432
vt 0.2934 0.1062 0.0907
vt 1.0828 0.1045 0.1805
vt -0.1931 0.1014 0.1287
vt 0.6109 0.1146 0.2160
vt 0.4820 -0.1370 0.1692
vt 1.2673 -0.1382 0.2549
vt 0.2657 -0.1487 0.1939
vt 1.0334 -0.1579 0.2837
vt 1.0297 -0.1311 0.2394
vt -0.0820 -0.1442 0.0005
vt 0.8329 -0.1307 0.0976
vt 0.1828 0.3548 0.9247
vt 0.8527 -0.1344 0.1771
vt 0.9358 0.3120 0.9995
vt 2.3240 -0.7414 -0.6107
vt 2.7952 -0.9353 -0.7363
vt 0.1587 -0.1356 0.1771
vt 1.0233 0.7643 0.0379
vt 0.1740 0.8102 0.0005
vt -2.2453 -2.2804 -3.5516
vt 3.3575 -2.2804 -1.4098
vt 3.3568 0.3168 -1.4100
vt -2.2443 0.3168 -3.5515
vt 4.5516 -2.2804 3.2453
vt 4.5515 0.3168 3.2443
vt 2.3268 3.2804 3.2993
vt 0.1048 0.3168 3.3565
vt 0.1047 0.0606 3.3566
vt 0.1048 -2.2804 3.3575
vt 0.3231 0.4377 0.0000
vt -5.3443 0.0985 0.0000
vt -6.9896 0.0000 0.0000
vt -1.4098 -2.2804 -2.3575
vt 2.5068 -2.2804 -0.8594
vt 2.5065 0.3168 -0.8587
vt -1.4100 0.3168 -2.3568
vt -1.4545 3.0745 -0.5000
vt -1.4346 -1.4383 1.5000
vt 2.8065 2.3676 0.0000
vt 4.5516 -2.2804 -0.0773
vt 4.5513 0.0606 -0.0766
vt 2.5076 0.0606 -0.8584
vt 2.9417 -1.4335 1.0000
vt 2.7396 -0.9818 1.0000
vt 2.5993 -0.5618 0.5000
vt 2.4934 -0.1623 0.5000
vt 2.4459 0.2409 0.5000
vt 2.4208 0.6389 0.5000
vt 2.4508 1.0300 0.5000
vt 2.5290 1.4084 0.5000
vt -3.4619 3.2640 0.7023
vt -4.6177 -1.9220 0.2490
vt 4.6092 -1.9436 0.2521
vt 4.6183 3.2451 0.7050
vt 3.8944 -2.1973 0.3188
vt 5.0398 2.9882 0.7721
vt -3.0404 3.0072 0.7694
vt -3.0494 -2.1810 0.3165
vt -0.8587 0.3168 2.5065
vt -0.8584 0.0606 2.5076
vt 3.3566 0.0606 0.8953
vt 3.3565 0.3168 0.8952
vt 0.5481 3.2804 -1.6068
# 156 texture coords

g aida_7_1
usemtl kr_sin
s 524288
f 1/1/1 2/2/2 3/3/3 
f 3/3/3 4/4/4 1/1/1 
f 5/5/5 6/6/6 7/7/7 
usemtl a7u1
f 8/8/8 7/9/7 9/10/9 
f 9/10/9 10/11/9 8/8/8 
usemtl kr_sin
f 9/12/9 11/13/9 2/2/2 
f 10/14/9 9/12/9 2/2/2 
f 12/15/10 10/14/9 2/2/2 
f 1/1/1 12/15/10 2/2/2 
f 13/16/11 14/17/12 15/18/13 
f 15/18/13 16/19/14 13/16/11 
f 16/19/14 15/18/13 17/20/15 
f 17/20/15 18/21/16 16/19/14 
f 18/21/16 17/20/15 4/4/4 
f 4/4/4 3/3/3 18/21/16 
f 14/17/12 13/16/11 19/22/17 
f 19/22/17 20/23/17 14/17/12 
usemtl kat
s off
f 21/24/18 22/25/18 23/26/18 
f 23/26/19 24/27/19 21/24/19 
usemtl paek
f 25/28/20 26/29/20 27/30/20 
f 27/30/21 28/31/21 25/28/21 
usemtl kat
f 29/32/22 30/33/22 31/34/22 
f 31/34/23 32/35/23 29/32/23 
f 30/36/24 33/37/24 34/38/24 
f 34/38/25 31/39/25 30/36/25 
f 33/40/26 35/41/26 36/42/26 
f 36/42/27 34/43/27 33/40/27 
f 35/44/28 37/45/28 38/46/28 
f 38/46/29 36/47/29 35/44/29 
f 37/48/30 39/49/30 40/50/30 
f 40/50/31 38/51/31 37/48/31 
f 39/52/32 41/53/32 42/54/32 
f 42/54/33 40/55/33 39/52/33 
f 43/56/34 22/57/34 29/58/34 
f 29/58/35 32/59/35 43/56/35 
f 42/54/36 41/53/36 44/60/36 
usemtl kr_sin
s 524288
f 6/6/6 45/61/37 46/62/37 
f 46/62/37 47/63/38 6/6/6 
usemtl paek
f 48/64/39 49/65/40 42/66/41 
f 48/64/39 42/66/41 44/67/39 
f 48/64/39 44/67/39 50/68/39 
f 49/65/40 51/69/42 40/70/43 
f 40/70/43 42/66/41 49/65/40 
f 51/69/42 52/71/44 38/72/45 
f 38/72/45 40/70/43 51/69/42 
f 52/71/44 53/73/46 36/74/47 
f 36/74/47 38/72/45 52/71/44 
f 53/73/46 54/75/48 34/76/49 
f 34/76/49 36/74/47 53/73/46 
f 54/75/48 55/77/50 31/78/51 
f 31/78/51 34/76/49 54/75/48 
f 55/77/50 56/79/52 32/80/53 
f 32/80/53 31/78/51 55/77/50 
f 56/79/52 25/28/54 43/81/55 
f 43/81/55 32/80/53 56/79/52 
s off
f 25/28/21 28/31/21 57/82/21 
f 57/82/56 43/81/56 25/28/56 
usemtl kr_sin
s 524288
f 19/22/17 13/16/11 21/83/11 
f 21/83/11 24/84/17 19/22/17 
f 13/16/11 16/19/14 58/85/57 
f 58/85/57 21/83/11 13/16/11 
f 16/19/14 18/21/16 59/86/58 
f 59/86/58 58/85/57 16/19/14 
f 18/21/16 3/3/3 60/87/4 
f 60/87/4 59/86/58 18/21/16 
f 3/3/3 2/2/2 61/88/59 
f 61/88/59 60/87/4 3/3/3 
f 2/2/2 11/13/9 62/89/60 
f 62/89/60 61/88/59 2/2/2 
f 11/13/9 6/6/6 47/63/38 
f 47/63/38 62/89/60 11/13/9 
usemtl kat
s off
f 22/25/61 43/90/61 57/91/61 
f 57/91/62 23/26/62 22/25/62 
f 58/92/63 59/93/63 30/33/63 
f 30/33/64 29/32/64 58/92/64 
f 59/94/65 60/95/65 33/37/65 
f 33/37/66 30/36/66 59/94/66 
f 60/96/67 61/97/67 35/41/67 
f 35/41/68 33/40/68 60/96/68 
f 61/98/69 62/99/69 37/45/69 
f 37/45/69 35/44/69 61/98/69 
f 62/100/70 47/101/70 39/49/70 
f 39/49/71 37/48/71 62/100/71 
f 39/52/72 47/102/72 41/53/72 
f 22/57/73 21/103/73 58/104/73 
f 58/104/74 29/58/74 22/57/74 
f 41/105/75 46/106/75 63/107/75 
usemtl kr_sin
s 524288
f 7/7/7 6/6/6 11/13/9 
f 11/13/9 9/12/9 7/7/7 
f 12/15/10 5/5/5 8/108/8 
f 8/108/8 10/14/9 12/15/10 
f 5/5/5 64/109/76 45/61/37 
f 45/61/37 6/6/6 5/5/5 
f 7/7/7 8/108/8 5/5/5 
usemtl kat
s off
f 47/110/77 46/106/77 41/105/77 
f 41/105/78 63/107/78 50/111/78 
f 50/111/36 44/112/36 41/105/36 
usemtl aida5_7SG
f 65/113/79 66/114/79 67/115/79 
f 67/115/80 68/116/80 65/113/80 
f 65/117/81 68/118/81 69/119/81 
f 69/119/82 70/120/82 71/121/82 
f 65/117/81 69/119/81 71/121/81 
f 72/122/81 65/117/81 71/121/81 
usemtl _2___Default
f 73/123/83 74/124/83 75/125/83 
usemtl aida5_7SG
f 66/126/84 73/127/84 75/128/84 
f 67/129/85 66/126/85 75/128/85 
usemtl ruberoid_h
f 71/130/86 74/131/86 48/132/86 
usemtl aida5_7SG
f 73/127/84 76/133/84 25/134/84 
f 25/134/85 74/135/85 73/127/85 
usemtl ruberoid_h
f 74/131/86 25/136/86 56/137/86 
f 74/131/86 56/137/86 55/138/86 
f 74/131/86 55/138/86 54/139/86 
f 74/131/86 54/139/86 53/140/86 
f 74/131/86 53/140/86 52/141/86 
f 74/131/86 52/141/86 51/142/86 
f 74/131/86 51/142/86 49/143/86 
f 74/131/86 49/143/86 48/132/86 
usemtl kat
f 69/144/87 68/145/87 67/146/87 
f 67/146/88 77/147/88 69/144/88 
f 70/148/89 69/149/89 77/150/89 
f 77/150/90 75/151/90 70/148/90 
usemtl aida5_7SG
s 1
f 75/152/91 74/153/92 71/154/93 
f 71/154/93 70/155/94 75/152/91 
s off
f 77/156/85 67/129/85 75/128/85 
# 124 faces

#
# object xxx
#

v  -67.7603 336.6854 18.8874
v  -68.6857 336.6678 19.0124
v  -68.6857 336.6678 20.4790
v  -68.2193 336.6746 20.8422
v  -67.7602 336.6854 20.5315
v  -73.1712 336.4775 14.3303
v  -73.1710 336.4757 19.0124
v  -67.7603 336.6855 14.7877
v  -62.8149 327.5049 15.0397
v  -62.8149 327.5049 18.9315
v  -63.8827 326.8114 19.4007
v  -63.8827 326.8114 14.4165
v  -62.8149 327.5049 20.3515
v  -63.3239 327.1190 20.6297
v  -63.8827 326.8114 20.3515
# 15 vertices

vn -0.0375 0.9993 -0.0017
vn -0.0374 0.9993 -0.0017
vn 0.5447 -0.8386 0.0000
vn 0.5445 -0.8383 -0.0273
# 4 vertex normals

vt 0.7454 0.3394 0.0000
vt 0.6561 0.3394 0.0000
vt 0.3231 0.0010 0.0000
vt 0.3231 0.3394 0.0000
vt 0.7454 0.0010 0.0000
vt 0.3934 0.8536 0.0251
vt -0.6792 1.1202 -0.0180
vt 0.8281 0.3610 0.9984
vt -1.7951 1.8466 1.7363
vt -0.8060 0.3593 0.9995
vt -0.7510 0.8663 0.0005
vt 0.1673 1.1503 0.2755
# 12 texture coords

g xxx
usemtl xxx
s off
f 78/157/95 79/158/95 80/157/95 
f 78/157/95 80/157/95 81/157/95 
f 78/157/96 81/157/96 82/157/96 
f 83/159/96 84/160/96 79/158/96 
f 83/159/95 79/158/95 78/157/95 
f 83/159/96 78/157/96 85/161/96 
s 1
f 86/162/97 87/163/97 88/164/97 
f 88/164/97 89/162/97 86/162/97 
s off
f 90/165/98 91/166/98 92/167/98 
f 92/167/98 87/163/98 90/165/98 
f 88/168/97 87/163/97 92/167/97 
# 11 faces

