# 3ds Max Wavefront OBJ Exporter v0.97b - (c)2007 guruware
# File Created: 16.03.2012 10:08:07

mtllib Ryytli_24_3-origo.mtl

#
# object Ryytli_24_3
#

v  542080.0133 6588789.1504 27.2234
v  542081.7534 6588792.4966 27.2234
v  542081.0646 6588792.8677 26.8827
v  542077.5154 6588790.6043 26.1453
v  542077.7571 6588790.4041 23.1963
v  542079.9924 6588789.125 23.1963
v  542077.7976 6588790.4544 25.7033
v  542082.7823 6588794.5122 23.1963
v  542082.4177 6588794.6874 23.1963
v  542082.4013 6588794.6955 25.7033
v  542080.3332 6588795.2143 23.1963
v  542080.3332 6588795.2143 25.7033
v  542080.5433 6588795.6097 25.7033
v  542080.5433 6588795.6097 23.1963
v  542077.7976 6588790.4544 26.1032
v  542080.0133 6588789.1504 27.0596
v  542077.7001 6588790.5062 26.1212
v  542082.7817 6588794.5125 27.0616
v  542082.8261 6588794.6006 27.1197
v  542082.101 6588793.1461 27.2234
v  542080.4806 6588795.7443 26.0578
v  542080.5438 6588795.6094 26.1010
v  542080.3332 6588795.2143 26.1028
v  542080.2334 6588795.2669 26.0605
v  542082.3936 6588794.6993 26.8291
v  542082.4371 6588794.789 26.8267
v  542082.8261 6588794.6006 27.0597
v  542081.7533 6588792.4966 29.2680
v  542082.101 6588793.1461 29.2680
v  542081.4026 6588793.4999 29.2680
v  542081.0646 6588792.8677 29.2680
v  542080.8689 6588795.6782 26.3509
v  542082.8699 6588794.6889 27.2234
v  542082.4802 6588794.8789 26.9889
v  542080.3487 6588795.9363 26.1449
v  542081.4026 6588793.4999 26.8829
v  542078.5096 6588792.4661 26.1452
v  542080.0462 6588795.3655 26.1450
v  542078.7624 6588792.9431 26.1451
v  542077.6287 6588790.8041 26.1453
v  542082.101 6588793.1461 27.4166
v  542081.7534 6588792.4966 27.4166
v  542081.4026 6588793.4999 27.0760
v  542081.0646 6588792.8677 27.0759
v  542082.1324 6588793.1559 29.2680
v  542081.7628 6588792.465 29.2680
v  542081.7628 6588792.465 29.1766
v  542082.1324 6588793.1559 29.1766
v  542081.3928 6588793.5314 29.2680
v  542081.3928 6588793.5314 29.1766
v  542081.033 6588792.8582 29.1766
v  542081.033 6588792.8582 29.2680
v  542081.1544 6588793.0855 29.1766
v  542081.7533 6588792.4966 29.1766
v  542082.101 6588793.1461 29.1766
v  542081.4026 6588793.4999 29.1766
v  542081.2921 6588793.2932 29.1766
v  542081.2713 6588793.3042 29.1766
v  542081.0646 6588792.8677 29.1766
v  542081.1751 6588793.0745 29.1766
v  542081.3459 6588793.2644 29.1766
v  542081.3459 6588793.2643 29.0431
v  542081.2289 6588793.0457 29.0431
v  542081.2289 6588793.0457 29.1766
v  542081.1751 6588793.0745 29.0431
v  542081.2921 6588793.2932 29.0431
v  542077.9114 6588790.6546 23.1963
v  542077.9114 6588790.6546 25.7033
v  542078.4232 6588791.6182 25.7033
v  542078.4232 6588791.6182 24.4498
v  542078.8061 6588792.9201 26.0819
v  542080.0898 6588795.3425 26.0816
v  542077.8137 6588790.7062 26.0612
v  542078.6955 6588792.3682 26.0609
v  542078.794 6588792.3163 26.1031
v  542077.9114 6588790.6546 26.1032
v  542078.4231 6588791.6182 23.1963
v  542078.4231 6588791.6182 25.7033
v  542078.6763 6588792.095 25.7033
v  542078.6763 6588792.095 23.1963
v  542078.5533 6588792.4431 26.0820
v  542078.9485 6588792.8451 26.0609
v  542079.0472 6588792.7931 26.1030
v  542080.7751 6588795.4957 25.7033
v  542080.7552 6588795.5054 23.1963
v  542082.8702 6588794.6887 27.1406
v  542082.4804 6588794.8788 26.9066
v  542080.824 6588795.586 26.1911
v  542080.7794 6588795.4935 26.1937
v  542080.8687 6588795.6783 26.2697
v  542077.7976 6588790.4544 25.8943
v  542082.4001 6588794.6961 25.8943
v  542078.5659 6588792.1536 25.8943
v  542080.2228 6588795.2729 25.8943
v  542080.2228 6588795.2729 25.7033
v  542078.5659 6588792.1536 25.7033
v  542078.4231 6588791.6182 25.8943
v  542078.6763 6588792.095 25.8943
v  542080.5433 6588795.6097 25.8943
v  542080.7766 6588795.4949 25.8943
v  542082.4565 6588794.8076 25.7033
v  542080.8303 6588795.6078 25.7033
v  542080.8318 6588795.6071 25.8943
v  542082.4552 6588794.8083 25.8943
v  542080.3332 6588795.2143 25.8943
v  542077.9114 6588790.6546 25.8943
v  542080.3831 6588795.9077 26.0798
v  542077.6724 6588790.781 26.0822
v  542077.559 6588790.5811 26.0822
v  542080.2334 6588795.2669 26.1205
v  542080.4806 6588795.7443 26.1179
v  542082.4371 6588794.789 26.8867
v  542077.8137 6588790.7062 26.1212
v  542078.6955 6588792.3682 26.1210
v  542078.9485 6588792.8451 26.1209
v  542080.824 6588795.586 26.2511
v  542077.7001 6588790.5062 26.0612
v  542082.101 6588793.1461 28.8450
v  542081.7533 6588792.4966 28.8450
v  542081.4026 6588793.4999 28.8450
v  542081.0646 6588792.8677 28.8450
v  542081.7533 6588792.4966 28.9510
v  542082.101 6588793.1461 28.9510
v  542081.4026 6588793.4999 28.9510
v  542081.0646 6588792.8677 28.9510
v  542081.7657 6588792.4554 28.8450
v  542082.142 6588793.1589 28.8450
v  542082.142 6588793.1589 28.9510
v  542081.7657 6588792.4554 28.9510
v  542081.3898 6588793.541 28.8450
v  542081.3898 6588793.541 28.9510
v  542081.0234 6588792.8554 28.8450
v  542081.0234 6588792.8554 28.9510
v  542078.4232 6588791.6182 23.1963
# 134 vertices

vn -0.3543 0.1842 0.9168
vn -0.3043 0.1719 0.9369
vn -0.4965 -0.8677 0.0254
vn 0.4332 0.9013 -0.0001
vn -0.8831 0.4692 0.0000
vn -0.5072 -0.8618 0.0000
vn -0.4783 -0.8752 -0.0728
vn 0.8947 -0.4465 -0.0065
vn 0.2967 -0.1624 -0.9411
vn 0.3096 -0.1656 -0.9364
vn 0.4181 -0.2263 -0.8798
vn 0.4163 -0.2287 -0.8800
vn 0.0000 0.0000 1.0000
vn 0.8500 -0.4549 -0.2655
vn 0.8865 -0.4577 -0.0678
vn -0.3258 0.1624 0.9314
vn 0.4557 0.8894 -0.0367
vn -0.2793 0.1885 0.9415
vn -0.3911 0.1077 0.9140
vn 0.8564 -0.4539 -0.2461
vn -0.8836 0.4683 -0.0080
vn -0.2966 0.1573 0.9420
vn -0.3048 0.1728 0.9366
vn -0.2964 0.1572 0.9421
vn -0.2967 0.1583 0.9417
vn 0.8817 -0.4719 0.0000
vn 0.4520 0.8920 0.0000
vn -0.8819 0.4715 0.0000
vn -0.4743 -0.8803 0.0000
vn 0.8818 -0.4717 0.0000
vn 0.4527 0.8917 0.0000
vn -0.8821 0.4711 0.0000
vn -0.4743 -0.8804 0.0000
vn 0.0000 0.0000 -1.0000
vn -0.8817 0.4718 -0.0000
vn -0.8817 0.4717 0.0000
vn 0.4721 0.8815 0.0000
vn -0.4719 -0.8816 0.0000
vn -0.4724 -0.8814 0.0003
vn -0.8819 0.4714 0.0007
vn -0.8819 0.4714 0.0009
vn -0.8818 0.4716 0.0000
vn -0.8831 0.4691 0.0000
vn -0.6962 0.3690 -0.6158
vn -0.6976 0.3696 -0.6138
vn 0.3130 -0.1662 -0.9351
vn 0.3138 -0.1667 -0.9347
vn -0.8832 0.4690 0.0000
vn -0.6963 0.3689 -0.6156
vn -0.6963 0.3689 -0.6158
vn 0.3118 -0.1658 -0.9356
vn 0.3131 -0.1661 -0.9351
vn 0.4414 0.8973 0.0000
vn 0.4416 0.8972 -0.0000
vn 0.4384 0.8988 0.0001
vn 0.4386 0.8987 -0.0008
vn 0.2892 -0.1664 -0.9427
vn 0.2893 -0.1660 -0.9427
vn 0.4415 0.8973 -0.0000
vn 0.4444 0.8958 0.0001
vn 0.4443 0.8959 0.0003
vn 0.2896 -0.1657 -0.9427
vn 0.2894 -0.1660 -0.9427
vn -0.5105 -0.8598 0.0084
vn -0.5181 -0.8553 0.0000
vn 0.8880 -0.4599 -0.0018
vn 0.8886 -0.4588 0.0002
vn 0.4336 0.9011 -0.0000
vn 0.4328 0.9015 -0.0001
vn 0.4415 0.8972 0.0003
vn 0.4415 0.8973 -0.0002
vn 0.4415 0.8973 -0.0003
vn 0.4338 0.9010 -0.0001
vn -0.8832 0.4691 0.0006
vn -0.8694 0.4941 0.0000
vn -0.8832 0.4690 0.0009
vn 0.4413 0.8973 0.0003
vn 0.4415 0.8972 0.0001
vn 0.4415 0.8973 0.0001
vn 0.3118 -0.1656 -0.9356
vn 0.3100 -0.1647 -0.9364
vn -0.7015 0.3621 -0.6138
vn -0.7332 0.3884 -0.5582
vn -0.8831 0.4692 0.0028
vn -0.8825 0.4703 0.0000
vn -0.4692 -0.8831 0.0000
vn 0.4688 0.8833 0.0000
vn 0.8971 -0.4417 0.0071
vn 0.8976 -0.4408 0.0077
vn -0.8972 0.4415 0.0089
vn -0.8971 0.4418 0.0086
vn 0.4808 0.8676 -0.1270
vn 0.4270 0.9042 0.0003
vn -0.6851 0.3886 -0.6161
vn -0.6849 0.3883 -0.6165
vn -0.8880 0.4598 0.0000
vn 0.4359 0.9000 0.0000
vn -0.8834 0.4687 0.0000
vn 0.4186 0.9082 0.0000
vn 0.4430 0.8965 0.0000
vn 0.2083 -0.1106 -0.9718
vn 0.2093 -0.1111 -0.9715
vn 0.2080 -0.1105 -0.9719
vn 0.2059 -0.1094 -0.9725
vn 0.2080 -0.1104 -0.9719
vn 0.2056 -0.1098 -0.9725
vn 0.1990 -0.1084 -0.9740
vn 0.3643 0.0002 -0.9313
vn 0.3658 0.0104 -0.9306
vn 0.3774 0.0232 -0.9258
vn 0.3700 0.0080 -0.9290
vn 0.4977 -0.0436 -0.8662
vn 0.4970 -0.0475 -0.8665
vn 0.8931 -0.4499 0.0000
vn 0.8938 -0.4484 0.0043
vn 0.8950 -0.4461 0.0018
vn 0.8872 -0.4614 0.0000
vn -0.4691 -0.8832 0.0005
vn -0.4691 -0.8832 0.0000
vn -0.4757 -0.8760 -0.0792
vn -0.8514 0.5245 0.0032
vn 0.3092 -0.1758 -0.9346
vn 0.3091 -0.1755 -0.9347
vn -0.6963 0.3690 -0.6156
vn -0.6956 0.3686 -0.6167
vn -0.8696 0.4938 0.0000
vn 0.2063 -0.1172 -0.9714
vn 0.2062 -0.1170 -0.9715
vn -0.4061 -0.9138 0.0000
vn -0.8831 0.4691 -0.0008
vn 0.8817 -0.4719 -0.0000
vn 0.4519 0.8920 0.0000
vn -0.8819 0.4714 -0.0000
vn -0.4743 -0.8804 -0.0000
vn -0.4743 -0.8803 -0.0000
vn -0.8819 0.4714 -0.0005
vn -0.8818 0.4717 0.0007
vn 0.4528 0.8916 0.0000
vn -0.8820 0.4713 0.0000
vn -0.4744 -0.8803 0.0000
vn -0.8819 0.4714 0.0000
# 141 vertex normals

vt 2.0567 1.2999 0.9996
vt 0.1773 1.3053 0.1643
vt 0.1726 0.7932 0.8447
vt 1.9884 -0.3038 0.5453
vt 0.0000 0.0000 0.0000
vt 1.0000 0.1250 0.0000
vt 0.0000 0.2500 0.0000
vt 0.0000 0.1250 0.0000
vt 0.3357 0.0000 0.0000
vt 0.3403 0.2500 0.0000
vt 0.2305 0.0000 0.0000
vt 0.2305 0.2500 0.0000
vt 0.0000 0.5000 0.0000
vt 1.0000 0.4375 0.0000
vt 1.0000 1.0000 0.0000
vt 0.2500 0.7500 0.0000
vt 0.8750 0.4375 0.0000
vt 1.0000 0.7500 0.0000
vt 0.7500 1.0000 0.0000
vt 0.1667 0.5000 0.0000
vt 0.2305 0.5000 0.0000
vt 0.3591 0.5000 0.0000
vt 0.0000 0.4375 0.0000
vt 0.3450 0.5000 0.0000
vt 0.2301 0.5000 0.0000
vt 1.0000 0.5000 0.0000
vt 0.5000 0.7500 0.0000
vt 0.5000 0.5000 0.0000
vt 0.5000 1.0000 0.0000
vt -1.0225 0.0016 0.7017
vt -0.1910 1.3064 0.0006
vt -1.0567 1.3061 0.0527
vt -1.0475 0.9555 0.2271
vt -1.0145 -0.3064 0.8549
vt -0.1858 0.7941 0.7361
vt 0.9492 -0.3047 0.6525
vt -0.6915 -0.3061 0.8217
vt 0.6793 -0.3049 0.6803
vt 1.8897 -0.3039 0.5555
vt 0.8750 0.8750 0.0000
vt 0.7500 0.7500 0.0000
vt 0.9375 0.5625 0.0000
vt 0.9688 0.7813 0.0000
vt 0.5000 0.5844 0.0000
vt 0.5000 0.6682 0.0000
vt 0.5000 0.6656 0.0000
vt 0.5000 0.5818 0.0000
vt 0.9935 0.0005 0.2500
vt 0.9935 0.9995 -0.2500
vt 0.0031 0.9995 0.5000
vt 0.0032 0.5000 0.7500
vt 0.4666 0.7276 0.0000
vt 0.2912 0.9553 0.0000
vt 0.2012 0.9360 0.0000
vt 0.3444 0.7180 0.0000
vt 0.8156 0.5000 0.0000
vt 0.6312 0.5000 0.0000
vt 0.5574 0.5000 0.0000
vt 0.7787 0.5000 0.0000
vt 0.5574 0.0000 0.0000
vt 0.5574 0.2500 0.0000
vt 0.4610 0.2500 0.0000
vt 0.4610 0.0000 0.0000
vt 0.5164 0.7316 0.0000
vt 0.3279 0.9631 0.0000
vt 0.5515 0.5000 0.0000
vt 0.4610 0.5000 0.0000
vt 1.0000 0.0000 0.0000
vt 1.0000 0.2500 0.0000
vt 0.6746 0.2500 0.0000
vt 0.6797 0.0000 0.0000
vt 0.2404 0.7356 0.0000
vt 0.3657 0.9712 0.0000
vt 0.6667 0.5000 0.0000
vt 0.4408 0.5000 0.0000
vt 0.6696 0.5000 0.0000
vt 0.0005 0.0005 0.1875
vt 0.9995 0.0005 1.0000
vt 0.9876 0.9995 0.8750
vt 0.0103 0.9995 0.0625
vt 0.2323 0.7235 0.0000
vt 0.2526 0.9470 0.0000
vt 0.0000 0.3750 0.0000
vt 0.3427 0.3750 0.0000
vt 0.4610 0.3750 0.0000
vt 0.2305 0.3750 0.0000
vt 0.5574 0.3750 0.0000
vt 1.0000 0.3750 0.0000
vt 0.6721 0.3750 0.0000
vt 0.7787 0.3750 0.0000
vt 0.9995 0.0005 0.3750
vt 0.9995 0.9995 -0.2500
vt 0.0005 0.9995 1.0000
vt 0.0005 0.0005 1.6250
vt 0.2222 0.7083 0.0000
vt 0.1111 0.9167 0.0000
vt 0.6332 0.7408 0.0000
vt 0.4140 0.9816 0.0000
vt 0.3361 0.3750 0.0000
vt 0.5000 0.4063 0.0000
vt 0.0000 1.0000 0.0000
vt 0.7787 0.0000 0.0000
vt 0.7787 0.2500 0.0000
vt 0.9995 0.9995 0.0000
vt 0.7784 0.6248 0.0000
vt -0.4214 0.8602 0.9917
vt -0.4214 0.1237 0.9744
vt 1.4304 0.1237 0.9744
vt 1.4304 0.8602 0.9917
vt 0.9914 -0.7619 0.1599
vt 0.9914 1.4304 0.1599
vt 0.0256 1.4304 0.1237
vt 0.0256 -0.4214 0.1237
vt -0.4304 0.8766 0.0258
vt -0.4304 0.1599 0.0086
vt 1.7619 0.1599 0.0086
vt 1.7621 0.8766 0.0258
vt 0.0258 -0.7621 0.8766
vt 0.9917 -0.4214 0.8602
vt 0.9917 1.4304 0.8602
vt 0.0258 1.4304 0.8766
vt 1.5364 0.8602 0.9917
vt 1.5364 0.1237 0.9744
vt 1.7621 0.1237 0.9744
vt 1.7621 0.8602 0.9917
vt 0.0256 1.5364 0.1237
vt 0.9914 1.5364 0.1599
vt 0.9914 1.7621 0.1599
vt 0.0256 1.7621 0.1237
vt -0.5364 0.1599 0.0086
vt -0.5364 0.8766 0.0258
vt -0.6903 0.6422 0.0202
vt -0.6903 0.3943 0.0142
vt 0.9917 1.5364 0.8602
vt 0.9917 1.7621 0.8602
vt 0.0258 1.7621 0.8766
vt 0.0258 1.5364 0.8766
vt 1.4304 0.8900 1.0227
vt 1.4304 0.0924 1.0039
vt 1.5364 0.0924 1.0039
vt 1.5364 0.8900 1.0227
vt -0.0039 1.5364 0.0924
vt -0.0039 1.4304 0.0924
vt 1.0227 1.4304 0.1304
vt 1.0227 1.5364 0.1304
vt -0.5364 0.1304 -0.0227
vt -0.4304 0.1304 -0.0227
vt -0.4304 0.9076 -0.0040
vt -0.5364 0.9076 -0.0040
vt 1.0227 1.4304 0.8900
vt 1.0227 1.5364 0.8900
vt -0.0040 1.5364 0.9076
vt -0.0040 1.4304 0.9076
vt 0.9744 0.1237 1.4304
vt 1.0039 0.0924 1.4304
vt 1.0227 0.8900 1.4304
vt 0.9917 0.8602 1.4304
vt 0.0086 0.1599 1.4304
vt -0.0227 0.1304 1.4304
vt 0.0258 0.8766 1.4304
vt -0.0040 0.9076 1.4304
vt -0.0227 0.8900 1.5364
vt -0.0039 0.0924 1.5364
vt 0.0256 0.1237 1.5364
vt 0.0083 0.8602 1.5364
vt 0.9742 0.8766 1.5364
vt 1.0040 0.9076 1.5364
vt 0.9914 0.1599 1.5364
vt 1.0227 0.1304 1.5364
vt -0.7621 0.8766 0.0258
vt -0.7621 0.6422 0.0202
vt -0.7621 0.3943 0.0142
vt -0.7621 0.1599 0.0086
vt 0.0031 0.0005 1.0000
# 174 texture coords

g Ryytli_24_3
usemtl Roof_Type1
s off
f 1/1/1 2/2/1 3/3/1 
f 3/3/2 4/4/2 1/1/2 
usemtl Wall_Cream
f 5/5/3 6/6/3 7/7/3 
f 8/8/4 9/9/4 10/10/4 
f 11/11/5 12/12/5 13/7/5 
f 13/7/5 14/5/5 11/11/5 
usemtl Red_Trim
f 15/13/6 16/14/6 1/15/6 
f 1/15/7 17/16/7 15/13/7 
usemtl Wall_Cream
f 18/17/8 19/18/8 20/19/8 
usemtl White_Paint
f 21/20/9 22/13/9 23/21/9 
f 23/21/10 24/22/10 21/20/10 
f 18/23/11 25/24/11 26/25/11 
f 26/25/12 27/13/12 18/23/12 
usemtl Red_Trim
f 28/26/13 29/18/13 30/27/13 
f 30/27/13 31/28/13 28/26/13 
usemtl Wall_Cream
f 18/17/14 20/19/14 2/29/14 
f 2/29/15 16/23/15 18/17/15 
usemtl Roof_Type1
f 32/30/16 20/31/16 33/32/16 
f 33/32/17 34/33/17 32/30/17 
f 20/31/18 32/30/18 35/34/18 
f 35/34/19 36/35/19 20/31/19 
f 37/36/20 35/34/20 38/37/20 
f 38/37/21 39/38/21 37/36/21 
f 3/3/22 37/36/22 40/39/22 
f 40/39/23 4/4/23 3/3/23 
f 36/35/24 35/34/24 37/36/24 
f 37/36/25 3/3/25 36/35/25 
usemtl Red_Trim
f 20/19/26 41/40/26 42/41/26 
f 42/41/26 2/29/26 20/19/26 
f 43/27/27 41/18/27 20/18/27 
f 20/18/27 36/27/27 43/27/27 
f 3/28/28 44/28/28 43/27/28 
f 43/27/28 36/27/28 3/28/28 
f 2/26/29 42/26/29 44/28/29 
f 44/28/29 3/28/29 2/26/29 
f 45/18/30 46/26/30 47/42/30 
f 47/42/30 48/43/30 45/18/30 
f 49/27/31 45/18/31 48/18/31 
f 48/18/31 50/27/31 49/27/31 
f 51/28/32 52/28/32 53/44/32 
f 51/28/33 47/26/33 46/26/33 
f 46/26/33 52/28/33 51/28/33 
f 46/26/13 45/18/13 29/18/13 
f 29/18/13 28/26/13 46/26/13 
f 31/28/13 52/28/13 46/26/13 
f 46/26/13 28/26/13 31/28/13 
f 31/28/13 30/27/13 49/27/13 
f 49/27/13 52/28/13 31/28/13 
f 45/18/13 49/27/13 30/27/13 
f 30/27/13 29/18/13 45/18/13 
f 47/42/34 54/42/34 55/43/34 
f 55/43/34 48/43/34 47/42/34 
f 55/18/34 56/27/34 50/27/34 
f 50/27/34 48/18/34 55/18/34 
f 57/45/34 58/46/34 50/27/34 
f 50/27/34 56/27/34 57/45/34 
f 51/28/34 59/28/34 54/26/34 
f 54/26/34 47/26/34 51/28/34 
f 53/44/34 60/47/34 59/28/34 
f 59/28/34 51/28/34 53/44/34 
f 58/46/34 57/45/34 60/47/34 
f 60/47/34 53/44/34 58/46/34 
usemtl Dark_Grey
f 61/45/35 62/45/35 63/47/35 
f 63/47/36 64/47/36 61/45/36 
f 63/47/37 65/47/37 60/47/37 
f 60/47/37 64/47/37 63/47/37 
f 61/45/34 64/47/34 60/47/34 
f 60/47/34 57/45/34 61/45/34 
f 61/45/38 57/45/38 66/45/38 
f 66/45/39 62/45/39 61/45/39 
f 63/47/13 62/45/13 66/45/13 
f 66/45/13 65/47/13 63/47/13 
usemtl Red_Trim
f 49/27/40 58/46/40 53/44/40 
f 53/44/41 52/28/41 49/27/41 
f 49/27/42 50/27/42 58/46/42 
usemtl Door02
f 67/48/43 68/49/43 69/50/43 
f 69/50/43 70/51/43 67/48/43 
usemtl Red_Trim
f 71/52/44 39/53/44 38/54/44 
f 38/54/45 72/55/45 71/52/45 
usemtl White_Paint
f 73/56/46 74/57/46 75/58/46 
f 75/58/47 76/59/47 73/56/47 
usemtl Wall_Cream
f 77/60/48 78/61/48 79/62/48 
f 79/62/48 80/63/48 77/60/48 
usemtl Red_Trim
f 71/52/49 81/64/49 37/65/49 
f 37/65/50 39/53/50 71/52/50 
usemtl White_Paint
f 82/66/51 83/67/51 75/58/51 
f 75/58/52 74/57/52 82/66/52 
usemtl Wall_Cream
f 14/68/53 13/69/53 84/70/53 
f 84/70/54 85/71/54 14/68/54 
usemtl Red_Trim
f 86/16/55 87/72/55 34/73/55 
f 34/73/56 33/29/56 86/16/56 
usemtl White_Paint
f 22/26/57 21/74/57 88/75/57 
f 88/75/58 89/76/58 22/26/58 
usemtl Rollup_Doors
f 9/77/59 85/78/59 84/79/59 
f 84/79/59 10/80/59 9/77/59 
usemtl Red_Trim
f 34/73/60 87/72/60 90/81/60 
f 90/81/61 32/82/61 34/73/61 
usemtl White_Paint
f 88/75/62 26/25/62 25/24/62 
f 25/24/63 89/76/63 88/75/63 
usemtl Wall_Cream
f 6/6/64 16/14/64 91/83/64 
f 91/83/65 7/7/65 6/6/65 
f 16/23/66 6/8/66 8/6/66 
f 8/6/67 18/17/67 16/23/67 
f 92/84/68 18/23/68 8/8/68 
f 8/8/69 10/10/69 92/84/69 
usemtl Dark_Grey
f 93/85/43 94/86/43 95/12/43 
f 95/12/43 96/62/43 93/85/43 
usemtl Wall_Cream
f 79/62/48 78/61/48 97/87/48 
f 97/87/48 98/85/48 79/62/48 
f 84/70/53 13/69/53 99/88/53 
f 99/88/70 100/89/70 84/70/70 
usemtl Dark_Grey
f 101/10/71 102/70/71 103/89/71 
f 103/89/72 104/84/72 101/10/72 
usemtl Wall_Cream
f 16/14/6 15/13/6 91/83/6 
f 92/84/73 25/24/73 18/23/73 
f 98/85/74 83/67/74 23/21/74 
f 23/21/43 105/86/43 98/85/43 
f 91/88/75 15/26/75 76/59/75 
f 76/59/75 106/90/75 91/88/75 
f 83/67/76 98/85/76 97/87/76 
f 97/87/76 75/58/76 83/67/76 
f 99/88/77 22/26/77 89/76/77 
f 89/76/78 100/89/78 99/88/78 
f 92/84/79 100/89/79 89/76/79 
f 89/76/59 25/24/59 92/84/59 
usemtl Rollup_Doors
f 80/91/43 79/92/43 12/93/43 
f 12/93/43 11/94/43 80/91/43 
usemtl White_Paint
f 83/67/80 82/66/80 24/22/80 
f 24/22/81 23/21/81 83/67/81 
usemtl Red_Trim
f 107/95/82 72/55/82 38/54/82 
f 38/54/83 35/96/83 107/95/83 
usemtl Wall_Cream
f 99/83/5 13/7/5 12/12/5 
f 12/12/5 105/86/5 99/83/5 
f 22/13/84 99/83/84 105/86/84 
f 105/86/85 23/21/85 22/13/85 
usemtl Dark_Grey
f 96/62/86 79/62/86 98/85/86 
f 98/85/86 93/85/86 96/62/86 
f 98/85/13 105/86/13 94/86/13 
f 94/86/13 93/85/13 98/85/13 
f 105/86/87 12/12/87 95/12/87 
f 95/12/87 94/86/87 105/86/87 
f 95/12/34 12/12/34 79/62/34 
f 79/62/34 96/62/34 95/12/34 
f 92/84/88 10/10/88 101/10/88 
f 101/10/89 104/84/89 92/84/89 
f 102/70/34 101/10/34 10/10/34 
f 10/10/34 84/70/34 102/70/34 
f 84/70/90 100/89/90 103/89/90 
f 103/89/91 102/70/91 84/70/91 
f 103/89/13 100/89/13 92/84/13 
f 92/84/13 104/84/13 103/89/13 
usemtl Red_Trim
f 107/95/92 35/96/92 32/82/92 
f 32/82/93 90/81/93 107/95/93 
f 108/97/94 109/41/94 4/29/94 
f 4/29/95 40/98/95 108/97/95 
usemtl White_Paint
f 24/22/96 110/22/96 111/20/96 
f 111/20/96 21/20/96 24/22/96 
f 112/25/97 19/13/97 27/13/97 
f 27/13/97 26/25/97 112/25/97 
f 73/56/98 113/56/98 114/57/98 
f 114/57/98 74/57/98 73/56/98 
f 115/66/98 82/66/98 74/57/98 
f 74/57/98 114/57/98 115/66/98 
f 111/74/99 116/75/99 88/75/99 
f 88/75/99 21/74/99 111/74/99 
f 112/25/100 26/25/100 88/75/100 
f 88/75/100 116/75/100 112/25/100 
f 110/22/98 24/22/98 82/66/98 
f 82/66/98 115/66/98 110/22/98 
usemtl Red_Trim
f 81/14/101 114/89/101 113/99/101 
f 113/99/102 108/100/102 81/14/102 
f 114/89/101 81/14/101 71/23/101 
f 71/23/103 115/84/103 114/89/103 
f 72/88/104 110/54/104 115/84/104 
f 115/84/105 71/23/105 72/88/105 
f 110/54/106 72/88/106 107/70/106 
f 107/70/107 111/87/107 110/54/107 
f 111/87/108 107/70/108 90/17/108 
f 90/17/109 116/21/109 111/87/109 
f 90/17/110 87/23/110 112/11/110 
f 112/11/111 116/21/111 90/17/111 
f 86/88/112 19/85/112 112/11/112 
f 112/11/113 87/23/113 86/88/113 
usemtl Wall_Cream
f 18/17/114 27/13/114 19/13/114 
f 33/29/115 19/18/115 86/88/115 
f 19/18/116 33/15/116 20/19/116 
f 2/29/117 1/101/117 16/23/117 
usemtl Red_Trim
f 4/29/118 109/41/118 17/83/118 
f 15/26/119 17/16/119 117/26/119 
f 1/15/120 4/29/120 17/16/120 
usemtl Wall_Cream
f 67/102/121 5/68/121 7/69/121 
f 7/69/75 68/103/75 67/102/75 
usemtl White_Paint
f 76/59/122 15/26/122 117/26/122 
f 117/26/123 73/56/123 76/59/123 
usemtl Wall_Cream
f 76/59/74 75/58/74 97/87/74 
f 97/87/48 106/90/48 76/59/48 
usemtl Red_Trim
f 37/65/124 81/64/124 108/97/124 
f 108/97/125 40/98/125 37/65/125 
usemtl White_Paint
f 117/26/126 17/26/126 113/56/126 
f 113/56/126 73/56/126 117/26/126 
usemtl Red_Trim
f 113/99/127 17/83/127 109/83/127 
f 109/83/128 108/100/128 113/99/128 
usemtl Wall_Cream
f 106/12/75 68/86/75 7/18/75 
f 7/18/75 91/45/75 106/12/75 
f 68/104/48 106/12/48 97/87/48 
f 97/87/129 78/61/129 69/105/129 
f 69/105/130 68/104/130 97/87/130 
usemtl White_Paint
f 42/106/26 41/107/26 118/108/26 
f 118/108/131 119/109/131 42/106/131 
f 43/110/132 120/111/132 118/112/132 
f 118/112/27 41/113/27 43/110/27 
f 121/114/133 120/115/133 43/116/133 
f 43/116/28 44/117/28 121/114/28 
f 44/118/134 42/119/134 119/120/134 
f 119/120/135 121/121/135 44/118/135 
f 122/122/26 123/123/26 55/124/26 
f 55/124/26 54/125/26 122/122/26 
f 123/126/132 124/127/132 56/128/132 
f 56/128/132 55/129/132 123/126/132 
f 124/130/136 125/131/136 65/132/136 
f 65/132/137 66/133/137 124/130/137 
f 122/134/29 54/135/29 59/136/29 
f 59/136/29 125/137/29 122/134/29 
f 126/138/30 127/139/30 128/140/30 
f 128/140/30 129/141/30 126/138/30 
f 128/142/138 127/143/138 130/144/138 
f 130/144/138 131/145/138 128/142/138 
f 131/146/139 130/147/139 132/148/139 
f 132/148/139 133/149/139 131/146/139 
f 126/150/140 129/151/140 133/152/140 
f 133/152/140 132/153/140 126/150/140 
f 118/154/34 127/155/34 126/156/34 
f 126/156/34 119/157/34 118/154/34 
f 118/154/34 120/158/34 130/159/34 
f 130/159/34 127/155/34 118/154/34 
f 130/159/34 120/158/34 121/160/34 
f 121/160/34 132/161/34 130/159/34 
f 126/156/34 132/161/34 121/160/34 
f 121/160/34 119/157/34 126/156/34 
f 129/162/13 128/163/13 123/164/13 
f 123/164/13 122/165/13 129/162/13 
f 125/166/13 133/167/13 129/162/13 
f 129/162/13 122/165/13 125/166/13 
f 133/167/13 125/166/13 124/168/13 
f 124/168/13 131/169/13 133/167/13 
f 128/163/13 131/169/13 124/168/13 
f 124/168/13 123/164/13 128/163/13 
f 65/132/139 125/131/139 59/170/139 
f 59/170/139 60/171/139 65/132/139 
f 124/130/141 66/133/141 57/172/141 
f 57/172/141 56/173/141 124/130/141 
usemtl Door02
f 134/174/43 67/48/43 70/51/43 
# 252 faces

