# 3ds Max Wavefront OBJ Exporter v0.97b - (c)2007 guruware
# File Created: 26.02.2012 19:52:17

mtllib Pikk_51_2-origo.mtl

#
# object Pikk_51_2
#

v  542371.530937 6589376.865662 20.317619
v  542356.174461 6589384.033569 20.317619
v  542370.133636 6589377.413116 20.317619
v  542357.557533 6589386.902435 20.050955
v  542372.952072 6589379.843506 20.050955
v  542371.530937 6589376.865692 16.845146
v  542372.70752 6589379.331085 16.845146
v  542357.311684 6589386.392548 16.845148
v  542356.174469 6589384.033569 16.845146
v  542370.133636 6589377.413116 16.845146
v  542372.70752 6589379.331085 19.801460
v  542357.311684 6589386.392548 19.801462
v  542357.557533 6589386.902435 19.801462
v  542372.952072 6589379.843506 19.801460
# 14 vertices

vn 0.029461 0.075197 0.996733
vn 0.029461 0.075197 0.996733
vn 0.029461 0.075197 0.996733
vn 0.034784 0.075858 0.996512
vn 0.034784 0.075858 0.996512
vn 0.034784 0.075858 0.996512
vn 0.033470 0.070571 0.996945
vn 0.033470 0.070571 0.996945
vn 0.033470 0.070571 0.996945
vn 0.902495 -0.430701 -0.000000
vn 0.902495 -0.430701 -0.000000
vn 0.902495 -0.430701 -0.000000
vn 0.902495 -0.430701 -0.000000
vn 0.902495 -0.430701 -0.000000
vn 0.902495 -0.430701 -0.000000
vn 0.416899 0.908953 0.000001
vn 0.416899 0.908953 0.000001
vn 0.416899 0.908953 0.000001
vn 0.416899 0.908953 0.000001
vn 0.416899 0.908953 0.000001
vn 0.416899 0.908953 0.000001
vn -0.900789 0.434258 0.000000
vn -0.900789 0.434258 0.000000
vn -0.900789 0.434258 0.000000
vn -0.900788 0.434258 0.000000
vn -0.900788 0.434258 0.000000
vn -0.900788 0.434258 0.000000
vn -0.428521 -0.903532 -0.000001
vn -0.428521 -0.903532 -0.000001
vn -0.428521 -0.903532 -0.000001
vn -0.428521 -0.903532 -0.000001
vn -0.428521 -0.903532 -0.000001
vn -0.428521 -0.903532 -0.000001
vn -0.364783 -0.931092 -0.000001
vn -0.364783 -0.931092 -0.000001
vn -0.364783 -0.931092 -0.000001
vn -0.364783 -0.931093 -0.000001
vn -0.364783 -0.931093 -0.000001
vn -0.364783 -0.931093 -0.000001
vn 0.000000 0.000000 -1.000000
vn 0.000000 0.000000 -1.000000
vn 0.000000 0.000000 -1.000000
vn 0.000000 0.000000 -1.000000
vn 0.000000 0.000000 -1.000000
vn 0.000000 0.000000 -1.000000
vn 0.416806 0.908995 0.000000
vn 0.416806 0.908995 0.000000
vn 0.416806 0.908995 0.000000
vn 0.416806 0.908995 0.000000
vn 0.416806 0.908995 0.000000
vn 0.416806 0.908995 0.000000
vn -0.900782 0.434271 0.000075
vn -0.900782 0.434271 0.000075
vn -0.900782 0.434271 0.000075
vn -0.900768 0.434301 0.000000
vn -0.900768 0.434301 0.000000
vn -0.900768 0.434301 0.000000
vn 0.902492 -0.430707 -0.000032
vn 0.902492 -0.430707 -0.000032
vn 0.902492 -0.430707 -0.000032
vn 0.902486 -0.430719 -0.000000
vn 0.902486 -0.430719 -0.000000
vn 0.902486 -0.430719 -0.000000
# 63 vertex normals

vt -2.894100 1.069634 0.999499
vt 3.883358 1.204142 0.999500
vt -2.295887 1.119493 0.999499
vt 3.892697 -0.069761 0.000500
vt -2.879212 -0.250103 0.000499
vt 2.164593 0.152753 0.936152
vt -1.207542 0.152753 0.391486
vt 0.176676 0.152753 2.173239
vt -1.216471 0.152753 0.698642
vt 1.864457 0.152753 0.934104
vt 0.063848 0.847247 -1.164593
vt 0.608514 0.744015 -1.207542
vt 0.176676 0.744016 2.173239
vt 0.698642 0.847247 2.216471
vt 1.864457 0.847247 0.934105
vt 0.063848 0.744016 2.163889
vt 0.721716 0.744015 -1.216471
vt 0.063848 0.793914 2.163889
vt 0.721716 0.793914 -1.216471
vt 0.063848 0.152753 -1.164593
vt 0.608514 0.152753 -1.207542
vt 0.608514 0.744015 -1.207542
vt 0.063848 0.152753 -1.164593
vt 0.608514 0.744015 -1.207542
vt 0.063848 0.847247 -1.164593
vt -1.207542 0.152753 0.391486
vt 2.173239 0.152753 0.176676
vt 2.173239 0.744016 0.176676
vt 2.173239 0.744016 0.176676
vt -1.207542 0.744015 0.391486
vt 0.176676 0.152753 2.173239
vt 0.698642 0.152753 2.216471
vt 0.698642 0.847247 2.216471
vt 0.698642 0.847247 2.216471
vt 0.176676 0.744016 2.173239
vt -1.216471 0.152753 0.698642
vt 1.864457 0.152753 0.934104
vt 1.864457 0.847247 0.934105
vt 1.864457 0.847247 0.934105
vt -1.216471 0.847247 0.698642
vt 1.864457 0.152753 0.934104
vt 2.164593 0.847247 0.936152
vt 2.164593 0.847247 0.936152
vt -1.163889 0.063848 0.744016
vt 2.216471 0.278284 0.744015
vt 2.207542 0.391486 0.744015
vt 2.207542 0.391486 0.744015
vt -1.173239 0.176676 0.744016
vt -1.163889 0.063848 0.744016
vt 2.163889 0.793914 0.063848
vt -1.216471 0.793914 0.278284
vt -1.216471 0.744015 0.278284
vt -1.216471 0.744015 0.278284
vt 2.163889 0.744016 0.063848
vt 2.163889 0.793914 0.063848
vt 0.063848 0.793914 2.163889
vt 0.176676 0.744016 2.173239
vt 0.608514 0.744015 -1.207542
vt 0.721716 0.793914 -1.216471
# 59 texture coords

g Pikk_51_2
usemtl pikk51_2_kat_plekk
s off
f -12/-57/-63 -14/-59/-62 -10/-55/-61 
f -10/-55/-60 -11/-56/-59 -13/-58/-58 
f -13/-58/-57 -12/-57/-56 -10/-55/-55 
usemtl pikk51_2_krhv
f -9/-40/-54 -8/-39/-53 -4/-38/-52 
f -9/-37/-51 -4/-36/-50 -14/-35/-49 
f -8/-34/-48 -7/-33/-47 -3/-32/-46 
f -8/-53/-45 -3/-31/-44 -4/-30/-43 
f -7/-29/-42 -6/-28/-41 -13/-27/-40 
f -7/-52/-39 -13/-26/-38 -3/-25/-37 
f -6/-24/-36 -5/-23/-35 -12/-22/-34 
f -6/-51/-33 -12/-21/-32 -13/-20/-31 
f -5/-19/-30 -9/-54/-29 -14/-18/-28 
f -5/-50/-27 -14/-17/-26 -12/-45/-25 
f -2/-16/-24 -1/-15/-23 -4/-14/-22 
f -4/-13/-21 -3/-12/-20 -2/-11/-19 
f -11/-10/-18 -10/-9/-17 -1/-8/-16 
f -1/-7/-15 -2/-6/-14 -11/-5/-13 
f -13/-46/-12 -11/-4/-11 -3/-3/-10 
f -2/-44/-9 -3/-47/-8 -11/-42/-7 
f -14/-49/-6 -4/-2/-5 -10/-1/-4 
f -4/-48/-3 -1/-43/-2 -10/-41/-1 
# 21 faces

