# 3ds Max Wavefront OBJ Exporter v0.97b - (c)2007 guruware
# File Created: 07.02.2012 10:47:47

mtllib Myyrivahe_48-origo.mtl

#
# object myyrivahe_48
#

v  542552.4614 6589087.7369 27.7440
v  542551.7468 6589089.649 27.7438
v  542547.1501 6589087.0139 36.7084
v  542550.2084 6589091.2538 27.6793
v  542548.8562 6589091.9374 27.7209
v  542547.2746 6589092.2062 27.7439
v  542545.4074 6589092.0521 27.7440
v  542543.5497 6589091.5048 27.7446
v  542543.1884 6589082.3786 27.7458
v  542545.9755 6589081.6183 27.7456
v  542548.1298 6589081.6459 27.7536
v  542549.9109 6589082.2781 27.7450
v  542551.4609 6589083.7227 27.7447
v  542552.4519 6589085.8558 27.7443
v  542551.9889 6589087.6528 27.8389
v  542551.3386 6589089.3927 27.8389
v  542549.9236 6589090.8689 27.7745
v  542548.7071 6589091.484 27.8160
v  542547.2543 6589091.7309 27.8389
v  542545.4947 6589091.5856 27.8389
v  542544.0084 6589091.1478 27.8389
v  542543.6754 6589082.7355 27.8389
v  542546.0514 6589082.0872 27.8389
v  542548.0424 6589082.1236 27.8471
v  542549.6473 6589082.678 27.8389
v  542551.0716 6589084.0054 27.8389
v  542551.9804 6589085.9614 27.8389
v  542544.4193 6589091.2508 28.4012
v  542545.2339 6589091.4935 28.4012
v  542545.4766 6589090.6788 28.4012
v  542544.662 6589090.4362 28.4012
v  542545.0688 6589090.9 33.4012
v  542545.0134 6589091.0867 33.4012
v  542544.8278 6589091.0308 33.4012
v  542544.8838 6589090.8451 33.4012
v  542545.4766 6589090.6788 32.8512
v  542544.662 6589090.4362 32.8512
v  542545.2339 6589091.4935 32.8512
v  542544.4193 6589091.2508 32.8512
v  542545.2805 6589090.7852 33.2179
v  542545.2011 6589090.7605 33.2179
v  542545.2443 6589090.7512 33.1792
v  542545.1285 6589091.299 33.2179
v  542545.15 6589091.2264 33.2179
v  542545.1581 6589091.2689 33.1796
v  542544.6997 6589091.0313 33.2746
v  542544.6067 6589091.1506 33.2179
v  542544.631 6589091.0697 33.2179
v  542544.4886 6589091.2132 33.0346
v  542544.5178 6589091.1144 33.0346
v  542544.5257 6589091.1143 33.0498
v  542545.371 6589090.8252 33.0373
v  542545.3633 6589090.825 33.0498
v  542545.3724 6589090.8251 33.0346
v  542545.4047 6589090.7178 33.0346
v  542544.7642 6589090.6246 33.2179
v  542544.7379 6589090.7125 33.2179
v  542544.7291 6589090.6698 33.1796
v  542544.666 6589090.6119 33.0346
v  542544.6982 6589090.5029 33.0346
v  542545.2213 6589091.3268 33.0346
v  542545.1935 6589091.419 33.0346
v  542545.2558 6589090.8689 33.2179
v  542545.2043 6589090.8991 33.2617
v  542545.2147 6589091.3223 33.0498
v  542544.7692 6589090.9167 33.3093
v  542544.7743 6589090.7827 33.2746
v  542544.7667 6589090.7681 33.2628
v  542544.6011 6589091.1007 33.1796
v  542545.2869 6589090.8382 33.1796
v  542544.6734 6589090.6167 33.0498
v  542544.6672 6589090.6127 33.0373
v  542545.1155 6589091.1568 33.2746
v  542545.1892 6589090.908 33.2746
v  542545.1214 6589091.023 33.3093
v  542545.0068 6589091.2093 33.2742
v  542545.0457 6589091.2755 33.2179
v  542545.0906 6589091.3889 33.0346
v  542545.0768 6589091.3061 33.1792
v  542544.8015 6589090.5343 33.0346
v  542544.8147 6589090.6193 33.1792
v  542544.6877 6589091.1737 33.2179
v  542544.6449 6589091.1814 33.1792
v  542544.5878 6589091.2422 33.0346
v  542545.3026 6589090.6868 33.0346
v  542544.8458 6589090.65 33.2179
v  542544.884 6589090.7182 33.2742
v  542544.8917 6589091.1417 33.3090
v  542544.7575 6589091.1373 33.2742
v  542544.9985 6589090.7879 33.3090
v  542545.1321 6589090.7945 33.2742
v  542545.2403 6589090.7201 31.2156
v  542545.1631 6589090.9757 31.2156
v  542544.757 6589090.8547 31.2156
v  542544.8349 6589090.5967 31.2156
v  542545.1966 6589091.0379 33.0346
v  542544.6946 6589090.8882 33.0346
v  542544.7281 6589090.9504 31.2156
v  542545.1342 6589091.0714 31.2156
v  542545.0571 6589091.3271 31.2156
v  542544.6502 6589091.2083 31.2156
v  542545.2403 6589090.7201 33.0346
v  542544.8349 6589090.5967 33.0346
v  542545.1631 6589090.9757 33.0346
v  542544.757 6589090.8547 33.0346
v  542544.6502 6589091.2083 33.0346
v  542545.0571 6589091.3271 33.0346
v  542544.7281 6589090.9504 33.0346
v  542545.1342 6589091.0714 33.0346
v  542549.0323 6589091.3585 25.7006
v  542549.993 6589090.8689 25.7037
v  542548.7875 6589091.484 25.6723
v  542548.7867 6589091.484 25.6942
v  542549.7461 6589090.9944 25.7192
v  542549.9923 6589090.8689 25.7256
v  542547.9312 6589082.1201 25.6879
v  542546.0987 6589082.0872 25.6289
v  542548.1292 6589082.1236 25.6700
v  542548.1283 6589082.1236 25.6919
v  542547.0347 6589082.104 25.6698
v  542546.1767 6589082.0886 25.6524
v  542546.0982 6589082.0872 25.6508
v  542549.5486 6589082.6187 25.7203
v  542549.7199 6589082.678 25.7018
v  542549.7191 6589082.678 25.7237
v  542548.7362 6589082.3357 25.7041
v  542551.7739 6589085.3864 25.8279
v  542551.1356 6589084.0054 25.7681
v  542552.0408 6589085.9614 25.8218
v  542552.0401 6589085.9614 25.8437
v  542551.4008 6589084.5804 25.8058
v  542551.1349 6589084.0054 25.7900
v  542551.5915 6589088.8812 25.8058
v  542552.0493 6589087.6528 25.8218
v  542551.402 6589089.3927 25.7681
v  542551.4013 6589089.3927 25.7900
v  542551.8583 6589088.1643 25.8279
v  542552.0487 6589087.6528 25.8437
v  542550.6218 6589090.2087 25.7544
v  542550.7706 6589090.0529 25.7612
v  542547.976 6589091.6233 25.6732
v  542547.3518 6589091.7309 25.6351
v  542547.3508 6589091.7309 25.6570
v  542548.1603 6589091.5916 25.6780
v  542545.9358 6589091.6167 25.6360
v  542545.5524 6589091.5856 25.6083
v  542545.5518 6589091.5856 25.6302
v  542546.8212 6589091.6882 25.6491
v  542550.5012 6589083.4118 25.7603
v  542550.3517 6589083.2716 25.7533
v  542552.0439 6589086.7014 25.8437
v  542552.0449 6589086.9128 25.8437
v  542544.0929 6589091.1478 25.5883
v  542544.0922 6589091.1478 25.6102
v  542543.9241 6589087.2922 26.0870
v  542544.0992 6589091.1478 25.4112
v  542543.9902 6589087.2981 24.2427
v  542543.7639 6589082.7355 25.6102
v  542543.7647 6589082.7355 25.5883
v  542548.3335 6589082.1236 20.1759
v  542546.195 6589082.0872 20.1434
v  542546.2054 6589082.0872 19.4226
v  542548.3589 6589082.1236 19.4539
v  542551.3253 6589084.0054 19.5205
v  542552.2274 6589085.9614 19.5583
v  542552.2058 6589085.9614 20.2860
v  542551.3035 6589084.0054 20.2463
v  542551.5688 6589089.3927 20.2463
v  542552.2144 6589087.6528 20.2860
v  542552.236 6589087.6528 19.5583
v  542551.5905 6589089.3927 19.5205
v  542550.1712 6589090.8689 20.1819
v  542550.194 6589090.8689 19.4561
v  542550.7288 6589090.0529 27.0884
v  542550.5796 6589090.2087 27.0817
v  542550.5703 6589090.2087 27.3730
v  542550.7195 6589090.0529 27.3798
v  542547.6018 6589091.7309 19.4269
v  542547.5745 6589091.7309 20.1480
v  542548.982 6589091.484 20.1695
v  542549.0064 6589091.484 19.4463
v  542547.9192 6589091.6233 27.0697
v  542547.9065 6589091.6233 27.3762
v  542548.0925 6589091.5916 27.3749
v  542548.1048 6589091.5916 27.0694
v  542545.6814 6589091.5856 19.4081
v  542545.6687 6589091.5856 20.1282
v  542549.9226 6589082.678 19.4739
v  542549.8997 6589082.678 20.1973
v  542550.3082 6589083.2716 27.1043
v  542550.4582 6589083.4118 27.1068
v  542550.4487 6589083.4118 27.4024
v  542550.2985 6589083.2716 27.4009
v  542551.9967 6589086.7014 27.4199
v  542552.0052 6589086.7014 27.1362
v  542552.0063 6589086.9128 27.1362
v  542551.9977 6589086.9128 27.4199
v  542544.2616 6589091.1478 20.1134
v  542544.3303 6589091.1478 17.1971
v  542545.5072 6589091.5856 27.3751
v  542544.0155 6589082.7355 17.1971
v  542543.9429 6589082.7355 20.1134
v  542543.9043 6589086.9226 26.2278
v  542543.8876 6589086.4964 26.2278
v  542543.8789 6589086.139 26.0870
v  542546.0617 6589082.0872 27.3794
v  542550.103 6589090.9158 19.4554
v  542550.6269 6589090.8689 5.0250
v  542549.7533 6589091.0965 19.4525
v  542549.4446 6589091.2564 19.4500
v  542549.0967 6589091.437 19.4471
v  542549.4499 6589091.484 5.0666
v  542550.0801 6589090.9158 20.1809
v  542548.794 6589091.484 25.4951
v  542549.9989 6589090.8689 25.5265
v  542549.73 6589091.0965 20.1773
v  542549.4209 6589091.2564 20.1741
v  542549.0724 6589091.437 20.1704
v  542546.3073 6589082.0872 5.0894
v  542548.8096 6589082.1236 5.0977
v  542548.1361 6589082.1236 25.4929
v  542546.1022 6589082.0872 25.4518
v  542548.5888 6589082.2055 19.4569
v  542548.9564 6589082.3362 19.4616
v  542549.3208 6589082.4654 19.4662
v  542549.6904 6589082.5961 19.4709
v  542550.3556 6589082.678 5.0894
v  542548.5638 6589082.2055 20.1791
v  542549.7258 6589082.678 25.5246
v  542548.932 6589082.3362 20.1841
v  542549.2971 6589082.4654 20.1891
v  542549.6671 6589082.5961 20.1941
v  542551.7532 6589084.0054 5.0894
v  542552.6573 6589085.9614 5.0894
v  542551.141 6589084.0054 25.5909
v  542552.0461 6589085.9614 25.6447
v  542552.6659 6589087.6528 5.0894
v  542552.0183 6589089.3927 5.0894
v  542551.4074 6589089.3927 25.5909
v  542552.0546 6589087.6528 25.6447
v  542548.0674 6589091.7309 5.0894
v  542547.3594 6589091.7309 25.4580
v  542545.8045 6589091.5856 5.0894
v  542545.5567 6589091.5856 25.4312
v  542552.2289 6589086.2492 19.5583
v  542552.2309 6589086.6492 19.5583
v  542552.2325 6589086.965 19.5583
v  542552.2345 6589087.365 19.5583
v  542552.2072 6589086.2492 20.2860
v  542552.2093 6589086.6492 20.2860
v  542552.2109 6589086.965 20.2860
v  542552.2129 6589087.365 20.2860
v  542544.4584 6589091.1478 5.0894
v  542543.7713 6589082.7355 25.4112
v  542543.9448 6589086.1267 24.2426
v  542544.1508 6589082.7355 5.0894
v  542552.2276 6589087.165 19.7583
v  542552.2178 6589087.165 20.0861
v  542552.2142 6589086.4492 20.0861
v  542552.224 6589086.4492 19.7583
v  542552.0327 6589086.966 19.5524
v  542552.031 6589086.6502 19.5524
v  542552.0277 6589087.166 19.7523
v  542552.0179 6589087.166 20.0801
v  542552.011 6589086.966 20.2801
v  542552.0094 6589086.6502 20.2801
v  542552.0143 6589086.4502 20.0801
v  542552.0241 6589086.4502 19.7523
v  542549.2639 6589091.3467 19.6484
v  542549.2532 6589091.3467 19.9723
v  542549.9113 6589091.0062 19.9792
v  542549.9217 6589091.0062 19.6538
v  542549.3564 6589091.078 19.4473
v  542549.6649 6589090.9181 19.4498
v  542549.1758 6589091.1683 19.6457
v  542549.165 6589091.1683 19.9697
v  542549.3326 6589091.0779 20.1714
v  542549.6415 6589090.9181 20.1746
v  542549.8228 6589090.8277 19.9765
v  542549.8332 6589090.8277 19.6512
v  542549.499 6589082.5307 19.6685
v  542549.4885 6589082.5307 19.9917
v  542548.7547 6589082.2709 19.9817
v  542548.7657 6589082.2709 19.6591
v  542548.8929 6589082.5252 19.4596
v  542549.2571 6589082.6544 19.4643
v  542549.4352 6589082.7198 19.6665
v  542549.4247 6589082.7198 19.9897
v  542549.2333 6589082.6544 20.1871
v  542548.8684 6589082.5252 20.1822
v  542548.6912 6589082.4599 19.9797
v  542548.7022 6589082.4599 19.6572
v  542549.6906 6589090.9944 27.3495
v  542549.324 6589091.1776 27.4914
v  542549.9383 6589090.8689 27.3442
v  542548.9717 6589091.3585 27.3651
v  542548.7241 6589091.484 27.3704
v  542546.5511 6589082.0962 27.5453
v  542547.867 6589082.1201 27.3930
v  542548.0608 6589082.1236 27.3945
v  542546.1392 6589082.0886 27.3800
v  542546.9848 6589082.104 27.3864
v  542548.6733 6589082.3357 27.3946
v  542549.0927 6589082.4828 27.5535
v  542549.6625 6589082.678 27.3947
v  542549.4909 6589082.6186 27.3947
v  542551.3518 6589084.5804 27.4119
v  542551.5407 6589084.9959 27.5466
v  542551.085 6589084.0054 27.4086
v  542551.993 6589085.9614 27.4199
v  542551.726 6589085.3864 27.4166
v  542551.8105 6589088.1643 27.4166
v  542551.6739 6589088.5194 27.5467
v  542552.0015 6589087.6528 27.4199
v  542551.3518 6589089.3927 27.4086
v  542551.5428 6589088.8812 27.4119
v  542547.2751 6589091.7309 27.3807
v  542546.7552 6589091.6882 27.3790
v  542546.2872 6589091.6501 27.4975
v  542545.881 6589091.6164 27.3762
v  542548.0731 6589082.1236 27.0880
v  542547.8788 6589082.1201 27.0861
v  542548.1195 6589082.6235 25.6917
v  542547.9225 6589082.62 25.6877
v  542548.0642 6589082.6235 27.0878
v  542547.8699 6589082.62 27.0859
v  542550.2629 6589089.8626 25.7437
v  542550.4116 6589089.7067 25.7505
v  542550.2184 6589089.8626 27.0709
v  542550.3677 6589089.7067 27.0777
v  542550.1621 6589083.7775 25.7502
v  542550.0127 6589083.6373 25.7432
v  542550.1169 6589083.7775 27.0967
v  542549.968 6589083.6373 27.0942
v  542551.5454 6589086.9153 25.8289
v  542551.5443 6589086.7039 25.8289
v  542551.5066 6589086.9153 27.1213
v  542551.5055 6589086.7039 27.1213
v  542547.893 6589091.1304 25.6707
v  542548.0773 6589091.0987 25.6755
v  542547.8357 6589091.1304 27.0672
v  542548.0213 6589091.0987 27.0670
v  542548.8979 6589091.0909 25.6966
v  542549.6115 6589090.7267 25.7152
v  542548.8365 6589091.0909 27.3610
v  542549.1876 6589090.91 27.4874
v  542549.5554 6589090.7267 27.3455
v  542547.0294 6589082.404 25.6698
v  542546.1715 6589082.3886 25.6524
v  542546.9795 6589082.404 27.3863
v  542546.5457 6589082.3962 27.5453
v  542546.1338 6589082.3886 27.3799
v  542549.4513 6589082.9022 25.7174
v  542548.6391 6589082.6192 25.7012
v  542549.3919 6589082.9022 27.3917
v  542548.9939 6589082.7663 27.5506
v  542548.5755 6589082.6192 27.3917
v  542551.5018 6589085.5128 25.8198
v  542551.1284 6589084.7067 25.7977
v  542551.454 6589085.5128 27.4085
v  542551.2687 6589085.1223 27.5385
v  542551.0798 6589084.7067 27.4038
v  542551.3103 6589088.7762 25.7974
v  542551.5773 6589088.0593 25.8196
v  542551.2618 6589088.7762 27.4036
v  542551.3929 6589088.4144 27.5383
v  542551.5296 6589088.0593 27.4082
v  542545.9595 6589091.3177 25.6363
v  542546.845 6589091.3892 25.6495
v  542545.905 6589091.3173 27.3766
v  542546.3113 6589091.3511 27.4979
v  542546.7793 6589091.3892 27.3793
v  542544.1832 6589086.4845 26.2278
v  542544.1741 6589086.1271 26.0870
v  542544.1999 6589086.9107 26.2278
v  542544.2193 6589087.2804 26.0870
v  542544.2809 6589087.2863 24.2426
v  542544.2356 6589086.1149 24.2426
v  542546.886 6589086.5082 37.9525
v  542546.8862 6589086.5077 38.2269
v  542546.8831 6589086.5094 38.2269
v  542546.8829 6589086.5098 37.9525
v  542547.13 6589086.9796 37.9342
v  542547.1269 6589086.9812 37.9342
v  542547.1357 6589086.9983 37.9342
v  542547.1389 6589086.9967 37.9342
v  542547.1272 6589086.9807 38.2464
v  542547.1303 6589086.979 38.2464
v  542547.1391 6589086.9961 38.2464
v  542547.136 6589086.9978 38.2464
v  542546.8831 6589086.5094 38.2458
v  542546.8863 6589086.5077 38.2458
v  542546.8829 6589086.5098 37.9336
v  542546.886 6589086.5083 37.9336
v  542547.1269 6589086.9811 37.9531
v  542547.1358 6589086.9982 37.9531
v  542547.1271 6589086.9808 38.2275
v  542547.1303 6589086.9791 38.2275
v  542547.1391 6589086.9962 38.2275
v  542547.13 6589086.9796 37.9531
v  542547.136 6589086.9978 38.2275
v  542547.1389 6589086.9967 37.9531
v  542547.1557 6589087.0317 37.9342
v  542547.1623 6589087.007 37.9342
v  542547.1616 6589087.0083 36.4176
v  542547.155 6589087.0331 36.4176
v  542547.1264 6589087.0211 37.9342
v  542547.1257 6589087.0225 36.4176
v  542547.135 6589086.9996 36.4176
v  542547.1381 6589086.9981 36.4176
v  542547.1607 6589087.0039 37.9342
v  542547.16 6589087.0053 36.4176
v  542547.1563 6589087.0308 38.5824
v  542547.1628 6589087.0061 38.5823
v  542547.1625 6589087.0064 38.2464
v  542547.156 6589087.0312 38.2464
v  542547.1269 6589087.0203 38.5824
v  542547.1266 6589087.0207 38.2464
v  542547.1363 6589086.9974 38.5824
v  542547.1394 6589086.9958 38.5823
v  542547.1612 6589087.003 38.5823
v  542547.161 6589087.0035 38.2464
v  542547.1463 6589087.0136 37.2552
v  542547.1624 6589086.9663 37.2418
v  542547.1839 6589086.9806 37.2418
v  542547.1953 6589087.0039 37.2418
v  542547.1937 6589087.0297 37.2418
v  542547.1793 6589087.0512 37.2418
v  542547.1561 6589087.0626 37.2418
v  542547.1302 6589087.0609 37.2418
v  542547.1087 6589087.0465 37.2418
v  542547.0973 6589087.0233 37.2418
v  542547.099 6589086.9975 37.2418
v  542547.1133 6589086.976 37.2418
v  542547.1366 6589086.9645 37.2418
v  542547.2114 6589086.9565 37.2052
v  542547.1742 6589086.9316 37.2052
v  542547.2312 6589086.9967 37.2052
v  542547.2283 6589087.0414 37.2052
v  542547.2034 6589087.0787 37.2052
v  542547.1632 6589087.0985 37.2052
v  542547.1185 6589087.0956 37.2052
v  542547.0812 6589087.0707 37.2052
v  542547.0614 6589087.0305 37.2052
v  542547.0643 6589086.9858 37.2052
v  542547.0892 6589086.9485 37.2052
v  542547.1294 6589086.9287 37.2052
v  542547.2215 6589086.9477 37.1552
v  542547.1785 6589086.9189 37.1552
v  542547.2444 6589086.9941 37.1552
v  542547.241 6589087.0458 37.1552
v  542547.2122 6589087.0888 37.1552
v  542547.1658 6589087.1117 37.1552
v  542547.1142 6589087.1083 37.1552
v  542547.0711 6589087.0795 37.1552
v  542547.0482 6589087.0331 37.1552
v  542547.0516 6589086.9814 37.1552
v  542547.0804 6589086.9384 37.1552
v  542547.1268 6589086.9155 37.1552
v  542547.2114 6589086.9565 37.1052
v  542547.1742 6589086.9316 37.1052
v  542547.2312 6589086.9967 37.1052
v  542547.2283 6589087.0414 37.1052
v  542547.2034 6589087.0787 37.1052
v  542547.1632 6589087.0985 37.1052
v  542547.1185 6589087.0956 37.1052
v  542547.0812 6589087.0707 37.1052
v  542547.0614 6589087.0305 37.1052
v  542547.0643 6589086.9858 37.1052
v  542547.0892 6589086.9485 37.1052
v  542547.1294 6589086.9287 37.1052
v  542547.1839 6589086.9806 37.0686
v  542547.1624 6589086.9663 37.0686
v  542547.1953 6589087.0039 37.0686
v  542547.1937 6589087.0297 37.0686
v  542547.1793 6589087.0512 37.0686
v  542547.1561 6589087.0626 37.0686
v  542547.1302 6589087.0609 37.0686
v  542547.1087 6589087.0465 37.0686
v  542547.0973 6589087.0233 37.0686
v  542547.099 6589086.9975 37.0686
v  542547.1133 6589086.976 37.0686
v  542547.1366 6589086.9645 37.0686
v  542547.1463 6589087.0136 37.0552
v  542547.1656 6589087.0484 38.6176
v  542547.1827 6589087.0039 38.6176
v  542547.1794 6589087.004 38.5823
v  542547.1639 6589087.0443 38.5824
v  542547.1086 6589087.0283 38.6177
v  542547.1124 6589087.0261 38.5824
v  542547.1216 6589086.9837 38.6176
v  542547.1241 6589086.9858 38.5823
v  542547.1379 6589086.9758 38.6176
v  542547.1389 6589086.9786 38.5823
v  542547.1743 6589086.9878 38.6175
v  542547.1718 6589086.9895 38.5823
v  542547.1376 6589087.014 38.6089
v  542547.1414 6589087.0019 38.6089
v  542547.1559 6589087.0066 38.6089
v  542547.1514 6589087.0189 38.6090
v  542550.0586 6589090.9491 25.5285
v  542548.8257 6589091.5788 25.4963
v  542548.8189 6589091.5789 25.6735
v  542550.0527 6589090.9491 25.7057
v  542546.0896 6589081.988 25.4515
v  542548.1538 6589082.0252 25.4935
v  542548.1465 6589082.0251 25.6707
v  542546.0861 6589081.988 25.6287
v  542549.7776 6589082.5925 25.5264
v  542549.7716 6589082.5924 25.7035
v  542551.222 6589083.9467 25.5934
v  542552.1436 6589085.9395 25.6476
v  542552.1384 6589085.9397 25.8248
v  542551.2167 6589083.9469 25.7706
v  542552.153 6589087.6704 25.6476
v  542551.492 6589089.4459 25.5935
v  542551.4868 6589089.4456 25.7707
v  542552.1478 6589087.6702 25.8248
v  542547.3641 6589091.8308 25.4582
v  542547.3561 6589091.8308 25.6353
v  542545.5383 6589091.6839 25.4307
v  542545.5338 6589091.6839 25.6079
v  542544.0704 6589091.2436 25.4102
v  542544.0642 6589091.2436 25.5873
v  542543.7446 6589082.6391 25.4102
v  542543.7379 6589082.6391 25.5873
# 526 vertices

vn 0.8091 0.3025 0.5038
vn 0.6168 0.6112 0.4959
vn 0.4036 0.7680 0.4973
vn 0.1524 0.8543 0.4969
vn -0.0713 0.8636 0.4992
vn -0.2428 0.8248 0.5107
vn -0.2241 -0.8217 0.5240
vn 0.0090 -0.8572 0.5149
vn 0.2889 -0.8069 0.5153
vn 0.5856 -0.6282 0.5123
vn 0.7808 -0.3627 0.5087
vn 0.8605 -0.0043 0.5095
vn -0.1847 -0.0691 -0.9804
vn -0.1224 -0.1583 -0.9798
vn -0.1142 -0.1632 -0.9800
vn -0.0474 -0.1919 -0.9803
vn 0.0162 -0.1964 -0.9804
vn 0.0553 -0.1884 -0.9805
vn 0.1942 -0.0078 -0.9809
vn 0.0509 0.1867 -0.9811
vn 0.0009 0.1936 -0.9811
vn -0.0686 0.1819 -0.9809
vn -0.1331 0.1427 -0.9808
vn -0.1777 0.0825 -0.9806
vn -0.1967 0.0009 -0.9805
vn -0.9209 0.0365 0.3882
vn 0.0000 0.0000 -1.0000
vn 0.0000 0.0000 1.0000
vn 0.2841 -0.9497 0.1320
vn 0.2841 -0.9495 0.1330
vn 0.2855 -0.9584 0.0000
vn 0.9490 0.2833 0.1384
vn 0.9489 0.2833 0.1389
vn 0.9584 0.2855 0.0000
vn -0.2810 0.9503 0.1337
vn -0.2824 0.9491 0.1394
vn -0.2855 0.9584 0.0000
vn -0.9505 -0.2824 0.1299
vn -0.9504 -0.2826 0.1303
vn -0.9584 -0.2855 0.0000
vn 0.2469 -0.7951 0.5539
vn 0.2299 -0.7383 0.6341
vn 0.2592 -0.8357 0.4841
vn 0.8068 0.2399 0.5400
vn 0.7488 0.2215 0.6247
vn 0.8481 0.2529 0.4656
vn -0.6885 -0.2063 0.6953
vn -0.6881 -0.2068 0.6956
vn -0.8052 -0.2399 0.5423
vn -0.7404 -0.2216 0.6345
vn -0.8964 -0.2658 0.3547
vn -0.9005 -0.2666 0.3436
vn -0.8531 -0.2523 0.4567
vn 0.8406 0.2563 0.4772
vn 0.8412 0.2549 0.4769
vn 0.8024 0.2364 0.5480
vn 0.8904 0.2682 0.3678
vn 0.8888 0.2679 0.3718
vn -0.8010 -0.2387 0.5490
vn -0.7364 -0.2205 0.6396
vn -0.8449 -0.2515 0.4721
vn -0.8953 -0.2653 0.3578
vn -0.8966 -0.2650 0.3548
vn 0.8949 0.2685 0.3565
vn 0.8909 0.2669 0.3676
vn 0.7450 0.2204 0.6296
vn 0.7022 0.2078 0.6809
vn 0.8502 0.2553 0.4605
vn -0.6878 -0.2070 0.6957
vn -0.6876 -0.2069 0.6960
vn -0.6876 -0.2063 0.6962
vn -0.6876 -0.2060 0.6962
vn -0.8506 -0.2531 0.4609
vn 0.8436 0.2444 0.4781
vn -0.8433 -0.2499 0.4759
vn -0.8379 -0.2485 0.4860
vn 0.7020 0.2080 0.6812
vn 0.7019 0.2077 0.6813
vn 0.7022 0.2079 0.6809
vn 0.7021 0.2081 0.6810
vn 0.7020 0.2081 0.6811
vn -0.2010 0.6991 0.6862
vn -0.2051 0.6971 0.6870
vn -0.2297 0.8060 0.5455
vn -0.2119 0.7461 0.6313
vn -0.2617 0.8930 0.3661
vn -0.2420 0.8483 0.4710
vn -0.2614 0.8917 0.3695
vn 0.2715 -0.8937 0.3572
vn 0.2622 -0.8453 0.4655
vn 0.2491 -0.8022 0.5426
vn 0.2713 -0.8926 0.3600
vn -0.2318 0.8138 0.5329
vn -0.2122 0.7475 0.6295
vn -0.2450 0.8591 0.4494
vn -0.2603 0.8987 0.3530
vn -0.2607 0.8996 0.3504
vn 0.2710 -0.8920 0.3617
vn 0.2708 -0.8910 0.3644
vn 0.2304 -0.7400 0.6319
vn 0.2140 -0.6909 0.6906
vn 0.2110 -0.6933 0.6890
vn -0.2052 0.6950 0.6891
vn -0.2031 0.6945 0.6902
vn -0.1984 0.6940 0.6921
vn 0.2099 -0.6946 0.6881
vn 0.2108 -0.6959 0.6865
vn 0.2145 -0.6954 0.6858
vn -0.3642 -0.7936 -0.4874
vn -0.2534 -0.5344 -0.8063
vn -0.2857 -0.6179 -0.7326
vn -0.1294 -0.2601 -0.9569
vn 0.0651 -0.2029 -0.9770
vn -0.5276 0.2671 -0.8064
vn -0.6033 0.3015 -0.7384
vn -0.7776 0.3908 -0.4925
vn -0.2576 0.1351 -0.9568
vn -0.5285 0.2688 -0.8053
vn -0.7908 0.3988 -0.4643
vn -0.2840 0.9456 -0.1590
vn -0.3909 -0.8224 -0.4133
vn 0.5112 -0.2803 -0.8124
vn 0.5994 -0.3279 -0.7302
vn 0.7649 -0.4245 -0.4846
vn 0.7962 -0.4363 -0.4193
vn 0.2516 -0.1392 -0.9578
vn 0.2930 0.5051 -0.8118
vn 0.3408 0.5857 -0.7354
vn 0.4347 0.7560 -0.4895
vn 0.4418 0.7711 -0.4585
vn -0.2861 0.9449 -0.1593
vn 0.1410 0.2512 -0.9576
vn 0.2927 0.5031 -0.8131
vn -0.2911 0.9567 0.0000
vn -0.9573 -0.2890 0.0000
vn 0.2856 -0.9583 0.0000
vn 0.9573 0.2890 0.0000
vn 0.2801 -0.9600 0.0000
vn -0.2856 0.9583 0.0000
vn 0.4539 0.8908 0.0204
vn 0.0179 -0.9998 0.0011
vn 0.3287 -0.9443 0.0178
vn 0.9067 -0.4205 0.0326
vn 0.9365 0.3494 0.0313
vn 0.7223 0.6908 0.0333
vn 0.1693 0.9855 0.0095
vn -0.0804 0.9967 -0.0048
vn 0.6829 -0.7299 0.0315
vn 0.9995 -0.0050 0.0299
vn -0.2872 0.9578 -0.0086
vn -0.9986 0.0391 -0.0356
vn -0.2675 -0.9635 -0.0077
vn 0.0169 -0.9999 0.0004
vn 0.9075 -0.4191 0.0271
vn 0.9370 0.3483 0.0280
vn 0.7257 0.6877 0.0223
vn 0.7217 0.6918 0.0230
vn 0.1729 0.9849 0.0062
vn 0.1682 0.9857 0.0069
vn -0.0757 0.9971 -0.0021
vn 0.6867 -0.7267 0.0212
vn 0.6821 -0.7309 0.0220
vn 0.9995 -0.0050 0.0300
vn -0.2977 0.9546 -0.0067
vn -0.2848 0.9585 -0.0090
vn -0.9990 0.0376 -0.0242
vn -0.9985 0.0393 -0.0388
vn -0.2772 -0.9608 -0.0063
vn -0.2653 -0.9641 -0.0081
vn 0.4616 0.8870 0.0141
vn 0.4567 0.8895 0.0154
vn 0.0156 -0.9999 0.0003
vn 0.0174 -0.9998 0.0005
vn 0.3358 -0.9419 0.0104
vn 0.3313 -0.9435 0.0115
vn 0.9075 -0.4193 0.0269
vn 0.9072 -0.4198 0.0273
vn 0.9369 0.3485 0.0278
vn 0.9368 0.3488 0.0281
vn 0.7264 0.6869 0.0217
vn 0.7242 0.6893 0.0226
vn 0.1745 0.9846 0.0055
vn 0.1711 0.9852 0.0065
vn -0.0693 0.9976 -0.0014
vn -0.0781 0.9969 -0.0024
vn 0.6877 -0.7257 0.0205
vn 0.6850 -0.7283 0.0216
vn 0.9995 -0.0051 0.0297
vn 0.9995 -0.0051 0.0298
vn -0.3066 0.9518 -0.0029
vn -0.2922 0.9563 -0.0076
vn -0.9988 0.0383 -0.0310
vn -0.2846 -0.9586 -0.0026
vn -0.2721 -0.9622 -0.0068
vn -0.0297 0.0002 0.9996
vn -0.0246 -0.7070 0.7067
vn -0.0050 -1.0000 -0.0001
vn 0.0175 -0.7071 -0.7068
vn 0.0297 -0.0002 -0.9996
vn 0.0246 0.7070 -0.7067
vn 0.0050 1.0000 0.0002
vn -0.0175 0.7072 0.7068
vn -0.0175 0.7071 0.7068
vn 0.4607 0.8874 0.0154
vn 0.4583 0.8887 0.0145
vn 0.4588 0.8884 0.0149
vn 0.4606 0.8875 0.0155
vn 0.4601 0.8878 0.0151
vn 0.4584 0.8886 0.0144
vn -0.0128 -0.0087 0.9999
vn 0.6241 -0.3190 0.7133
vn 0.8960 -0.4430 0.0298
vn 0.6563 -0.3142 -0.6860
vn 0.0145 0.0079 -0.9999
vn -0.6220 0.3194 -0.7149
vn -0.8952 0.4447 -0.0286
vn -0.6544 0.3140 0.6878
vn -0.6544 0.3140 0.6879
vn 0.3325 -0.9430 0.0107
vn 0.3350 -0.9421 0.0116
vn 0.3348 -0.9422 0.0116
vn 0.3332 -0.9428 0.0110
vn 0.3328 -0.9430 0.0106
vn 0.3343 -0.9424 0.0112
vn -0.0147 0.0054 0.9999
vn -0.6934 -0.2268 0.6839
vn -0.9469 -0.3200 -0.0308
vn -0.6595 -0.2300 -0.7156
vn 0.0154 -0.0051 -0.9999
vn 0.6952 0.2267 -0.6821
vn 0.9474 0.3184 0.0324
vn 0.6614 0.2294 0.7141
vn 0.4518 0.8920 0.0163
vn 0.0182 -0.9998 0.0006
vn 0.3268 -0.9450 0.0122
vn 0.9066 -0.4211 0.0276
vn 0.9364 0.3499 0.0284
vn 0.7214 0.6921 0.0232
vn 0.1679 0.9858 0.0070
vn -0.0821 0.9966 -0.0029
vn 0.6818 -0.7312 0.0222
vn -0.0811 0.9967 -0.0033
vn -0.0813 0.9967 -0.0022
vn 0.9365 0.3495 0.0285
vn 0.9364 0.3497 0.0281
vn 0.4528 0.8915 0.0153
vn 0.4533 0.8912 0.0167
vn 0.7220 0.6916 0.0224
vn 0.7223 0.6912 0.0236
vn 0.6828 -0.7303 0.0226
vn 0.6825 -0.7306 0.0214
vn 0.9067 -0.4209 0.0272
vn 0.9068 -0.4206 0.0278
vn 0.9995 -0.0051 0.0299
vn 0.3282 -0.9445 0.0126
vn 0.3277 -0.9447 0.0112
vn 0.0181 -0.9998 0.0004
vn 0.0180 -0.9998 0.0006
vn 0.0182 -0.9998 0.0007
vn 0.1686 0.9857 0.0065
vn 0.1687 0.9856 0.0072
vn -0.0202 0.0002 0.9998
vn -0.9991 -0.0177 -0.0396
vn 0.0099 -0.0003 -1.0000
vn 0.9991 0.0177 0.0375
vn -0.0374 0.0079 0.9993
vn 0.6926 -0.7210 0.0226
vn 0.6925 -0.7210 0.0226
vn 0.0373 -0.0079 -0.9993
vn -0.6926 0.7210 -0.0224
vn -0.0389 -0.0084 0.9992
vn -0.7316 -0.6813 -0.0240
vn 0.0227 -0.0066 -0.9997
vn 0.7323 0.6806 0.0239
vn -0.0298 0.0002 0.9996
vn -0.0050 -1.0000 -0.0002
vn -0.0260 -0.0007 0.9997
vn 0.9852 -0.1666 0.0403
vn -0.0003 0.0051 -1.0000
vn -0.9852 0.1666 -0.0394
vn -0.0268 -0.0016 0.9996
vn 0.8925 -0.4499 0.0327
vn 0.2773 -0.1263 -0.9525
vn -0.2857 0.1592 -0.9450
vn -0.8924 0.4502 -0.0306
vn -0.0203 -0.0002 0.9998
vn -0.9994 -0.0177 -0.0291
vn -0.3440 -0.0063 -0.9390
vn 0.3725 0.0065 -0.9280
vn 0.9996 0.0177 0.0218
vn -0.0210 0.0031 0.9998
vn -0.9444 -0.3272 -0.0330
vn -0.3307 -0.1250 -0.9354
vn 0.3215 0.1018 -0.9414
vn 0.9450 0.3251 0.0354
vn -0.0349 -0.0113 0.9993
vn -0.4209 -0.9070 -0.0127
vn -0.0980 -0.2722 -0.9572
vn 0.1427 0.2458 -0.9588
vn 0.4207 0.9071 0.0128
vn -0.0362 0.0174 0.9992
vn 0.3496 -0.9368 0.0106
vn 0.1404 -0.3005 -0.9434
vn -0.0886 0.3124 -0.9458
vn -0.3498 0.9368 -0.0105
vn -0.0149 -0.0001 0.9999
vn 0.9963 0.0797 0.0313
vn 0.2844 0.0218 -0.9585
vn -0.2439 -0.0207 -0.9696
vn -0.9961 -0.0798 -0.0379
vn -0.9986 0.0387 -0.0361
vn 0.0147 0.3663 -0.9304
vn -0.0143 -0.3553 -0.9346
vn -0.0405 -0.9992 -0.0046
vn 0.0405 0.9992 -0.0053
vn -0.0812 0.9967 -0.0027
vn 0.4531 0.8913 0.0163
vn 0.4597 0.8879 0.0150
vn 0.9364 0.3497 0.0282
vn 0.0180 -0.9998 0.0007
vn 0.7222 0.6912 0.0240
vn 0.6844 -0.7287 0.0228
vn 0.1688 0.9856 0.0069
vn 0.9067 -0.4209 0.0274
vn 0.3339 -0.9425 0.0112
vn 0.3281 -0.9446 0.0120
vn 0.0181 -0.9998 0.0005
vn -0.9987 0.0389 -0.0335
vn -0.4831 -0.8756 -0.0013
vn -0.4551 -0.8905 -0.0009
vn -0.0005 0.0015 -1.0000
vn 0.0004 -0.0015 1.0000
vn -0.4831 -0.8756 -0.0010
vn -0.4551 -0.8905 -0.0011
vn -0.8830 0.4694 0.0015
vn -0.8831 0.4692 0.0015
vn 0.8830 -0.4694 -0.0015
vn 0.8831 -0.4692 -0.0015
vn -0.8831 0.4692 0.0014
vn 0.8831 -0.4692 -0.0016
vn 0.4553 0.8904 0.0009
vn 0.4551 0.8905 0.0009
vn 0.4829 0.8757 0.0013
vn 0.4831 0.8756 0.0013
vn -0.0004 0.0015 -1.0000
vn 0.0005 -0.0015 1.0000
vn 0.9692 0.2461 -0.0002
vn 0.9695 0.2453 -0.0002
vn -0.3295 0.9442 0.0010
vn -0.3274 0.9449 0.0010
vn -0.9298 -0.3680 0.0001
vn -0.9294 -0.3690 0.0001
vn -0.4551 -0.8905 -0.0006
vn -0.4594 -0.8882 -0.0006
vn 0.3015 -0.9535 -0.0010
vn 0.3036 -0.9528 -0.0010
vn 0.8878 -0.4602 -0.0008
vn 0.8868 -0.4621 -0.0008
vn 0.9695 0.2453 -0.0004
vn 0.9694 0.2456 -0.0004
vn 0.9694 0.2456 -0.0003
vn 0.9692 0.2461 -0.0004
vn -0.3265 0.9452 0.0014
vn -0.3246 0.9458 0.0015
vn -0.3246 0.9458 0.0019
vn -0.3295 0.9442 0.0014
vn -0.9294 -0.3690 0.0002
vn -0.9298 -0.3680 0.0002
vn -0.4655 -0.8851 -0.0009
vn -0.4831 -0.8756 -0.0006
vn 0.3049 -0.9523 -0.0013
vn 0.3087 -0.9512 -0.0015
vn 0.3087 -0.9512 -0.0020
vn 0.3015 -0.9535 -0.0015
vn 0.8840 -0.4675 -0.0013
vn 0.8791 -0.4766 -0.0012
vn 0.8791 -0.4766 -0.0013
vn 0.8878 -0.4602 -0.0015
vn 0.1654 -0.5044 0.8475
vn 0.3954 -0.3543 0.8474
vn 0.5196 -0.1091 0.8474
vn 0.5046 0.1653 0.8474
vn 0.3542 0.3954 0.8474
vn 0.1090 0.5197 0.8474
vn -0.1654 0.5044 0.8475
vn -0.3954 0.3543 0.8474
vn -0.5196 0.1091 0.8474
vn -0.5046 -0.1653 0.8474
vn -0.3542 -0.3954 0.8474
vn -0.1090 -0.5197 0.8474
vn 0.6524 -0.5846 0.4823
vn 0.2727 -0.8325 0.4824
vn 0.8573 -0.1799 0.4824
vn 0.8325 0.2726 0.4823
vn 0.5845 0.6525 0.4823
vn 0.1799 0.8573 0.4824
vn -0.2727 0.8325 0.4824
vn -0.6524 0.5846 0.4823
vn -0.8573 0.1799 0.4824
vn -0.8325 -0.2726 0.4823
vn -0.5845 -0.6525 0.4823
vn -0.1799 -0.8573 0.4824
vn 0.7448 -0.6672 0.0000
vn 0.3114 -0.9503 0.0000
vn 0.9787 -0.2055 0.0000
vn 0.9503 0.3114 0.0001
vn 0.6672 0.7448 0.0000
vn 0.2055 0.9787 0.0000
vn -0.3114 0.9503 0.0000
vn -0.7448 0.6672 0.0000
vn -0.9787 0.2055 0.0000
vn -0.9503 -0.3114 0.0001
vn -0.6672 -0.7448 0.0000
vn -0.2055 -0.9787 0.0000
vn 0.6525 -0.5845 -0.4823
vn 0.2727 -0.8324 -0.4824
vn 0.8573 -0.1799 -0.4823
vn 0.8325 0.2726 -0.4824
vn 0.5845 0.6525 -0.4823
vn 0.1799 0.8573 -0.4824
vn -0.2727 0.8324 -0.4824
vn -0.6525 0.5845 -0.4823
vn -0.8573 0.1799 -0.4823
vn -0.8325 -0.2726 -0.4824
vn -0.5845 -0.6525 -0.4823
vn -0.1799 -0.8573 -0.4824
vn 0.3954 -0.3543 -0.8474
vn 0.1653 -0.5045 -0.8475
vn 0.5196 -0.1091 -0.8474
vn 0.5046 0.1654 -0.8474
vn 0.3543 0.3954 -0.8474
vn 0.1089 0.5197 -0.8474
vn -0.1653 0.5045 -0.8475
vn -0.3954 0.3543 -0.8474
vn -0.5196 0.1091 -0.8474
vn -0.5046 -0.1654 -0.8474
vn -0.3543 -0.3954 -0.8474
vn -0.1089 -0.5197 -0.8474
vn -0.4829 -0.8757 -0.0009
vn -0.4831 -0.8756 -0.0009
vn -0.4553 -0.8904 -0.0013
vn -0.4551 -0.8905 -0.0013
vn 0.9336 0.3477 -0.0871
vn 0.9339 0.3470 -0.0862
vn -0.3214 0.9421 -0.0956
vn -0.3206 0.9425 -0.0942
vn -0.9596 -0.2679 -0.0859
vn -0.9600 -0.2669 -0.0847
vn -0.4458 -0.8911 -0.0852
vn -0.4485 -0.8899 -0.0838
vn 0.3027 -0.9507 -0.0679
vn 0.3018 -0.9510 -0.0668
vn 0.8786 -0.4699 -0.0852
vn 0.8776 -0.4719 -0.0841
vn -0.0023 0.0016 -1.0000
vn -0.0006 0.0015 -1.0000
vn -0.0005 0.0031 -1.0000
vn -0.0002 0.0004 -1.0000
vn 0.0005 0.0005 -1.0000
vn -0.0014 0.0007 -1.0000
vn -0.0007 0.0010 -1.0000
vn -0.0001 0.0011 -1.0000
vn -0.0015 0.0014 -1.0000
vn -0.0016 0.0010 -1.0000
vn -0.0008 0.0004 -1.0000
vn -0.0008 0.0019 -1.0000
vn 0.0012 -0.0001 1.0000
vn 0.0004 -0.0022 1.0000
vn -0.3194 -0.1205 0.9399
vn -0.3160 -0.1124 0.9421
vn 0.1134 -0.3323 0.9363
vn 0.1140 -0.3327 0.9361
vn 0.3265 0.0901 0.9409
vn 0.3344 0.1010 0.9370
vn 0.1468 0.2923 0.9450
vn -0.1032 0.3276 0.9392
vn -0.1013 0.3266 0.9397
vn -0.2880 0.1527 0.9454
vn 0.4544 0.8907 0.0160
vn 0.0180 -0.9998 0.0004
vn 0.3294 -0.9441 0.0121
vn 0.9070 -0.4202 0.0274
vn 0.9365 0.3495 0.0282
vn 0.7230 0.6905 0.0232
vn 0.1696 0.9855 0.0068
vn -0.0802 0.9968 -0.0028
vn 0.6832 -0.7299 0.0221
vn 0.9995 -0.0054 0.0297
vn -0.2871 0.9579 -0.0086
vn -0.2672 -0.9636 -0.0077
vn 0.0278 0.0034 -0.9996
vn 0.0264 0.0021 -0.9997
vn 0.0149 -0.0002 -0.9999
vn 0.0150 -0.0039 -0.9999
vn -0.9572 -0.2876 -0.0338
vn -0.0150 0.0039 0.9999
vn -0.0150 0.0003 0.9999
vn -0.0263 -0.0021 0.9997
vn -0.0278 -0.0034 0.9996
vn -0.0380 0.0071 0.9993
vn -0.0367 0.0170 0.9992
vn -0.0299 0.0002 0.9996
vn -0.0352 -0.0110 0.9993
vn -0.0397 -0.0073 0.9992
vn -0.0218 0.0049 0.9998
vn -0.0203 0.0016 0.9998
vn -0.0183 -0.0028 0.9998
vn -0.9628 0.2678 -0.0359
vn 0.0183 0.0027 -0.9998
vn 0.0203 -0.0017 -0.9998
vn 0.0218 -0.0050 -0.9997
vn 0.0397 0.0073 -0.9992
vn 0.0352 0.0110 -0.9993
vn 0.0299 -0.0001 -0.9996
vn 0.0367 -0.0170 -0.9992
vn 0.0381 -0.0071 -0.9993
# 516 vertex normals

vt 1.5000 6.3700 0.0000
vt 0.0000 6.3700 0.0000
vt 0.0000 0.0000 0.0000
vt 0.7293 1.1143 1.4826
vt 0.7293 -1.9190 1.3307
vt 0.6768 -1.9190 1.2342
vt 0.6776 1.1209 1.3753
vt 0.6025 0.1404 1.0808
vt 0.6053 3.1825 1.2020
vt 0.5432 1.8526 1.1349
vt 0.5404 -1.1881 1.0278
vt 0.4723 1.1180 1.1656
vt 0.4689 -1.9190 1.0652
vt 0.4008 1.1135 1.3672
vt 0.3964 -1.9190 1.2686
vt 0.3508 -1.9190 1.5401
vt 0.3483 1.0940 1.7045
vt 0.1538 -1.9190 1.6034
vt 0.1559 1.0555 1.7751
vt 0.0745 1.0649 1.2865
vt 0.0780 -1.9190 1.1858
vt -0.0120 -2.1824 1.0366
vt -0.0150 0.8073 1.1420
vt 0.9850 0.8073 1.1420
vt 0.9880 -2.1824 1.0366
vt 0.9086 -1.9190 1.0837
vt 0.9053 1.0811 1.2026
vt 0.8355 -1.9190 1.2095
vt 0.8341 1.0920 1.3481
vt 0.7731 -1.9190 1.3366
vt 0.7731 1.1042 1.4892
vt -1.7626 -2.4123 0.1431
vt 2.7235 -2.4114 0.1054
vt 0.3867 3.9291 1.1044
vt 0.9250 0.9250 -2.0000
vt 0.0750 0.9250 -2.0000
vt 0.0750 0.0750 -2.0000
vt 0.9250 0.0750 -2.0000
vt 0.5973 0.4034 3.0000
vt 0.5975 0.5982 3.0000
vt 0.4036 0.5975 3.0000
vt 0.4043 0.4036 3.0000
vt 0.9250 2.4500 0.0750
vt 0.0750 2.4500 0.0750
vt 0.0750 -2.0000 0.0750
vt 0.9250 -2.0000 0.0750
vt 0.9250 2.4500 0.9250
vt 0.0750 2.4500 0.9250
vt 0.0750 -2.0000 0.9250
vt 0.9250 -2.0000 0.9250
vt 0.7674 2.8167 0.2329
vt 0.6843 2.8167 0.2319
vt 0.7230 2.7777 0.2113
vt 0.7688 2.8167 0.7684
vt 0.6930 2.8167 0.7683
vt 0.7314 2.7786 0.7886
vt 0.3654 2.8733 0.2811
vt 0.4025 3.0000 0.4036
vt 0.2245 2.8167 0.2260
vt 0.3090 2.8167 0.2261
vt 0.1308 2.6333 0.1307
vt 0.2338 2.6333 0.1304
vt 0.2362 2.6484 0.1383
vt 0.2454 2.6360 0.8655
vt 0.2474 2.6488 0.8585
vt 0.2329 2.8167 0.7674
vt 0.2450 2.6333 0.8669
vt 0.1329 2.6333 0.8672
vt 0.7736 2.8167 0.2268
vt 0.6818 2.8167 0.2266
vt 0.7202 2.7782 0.2062
vt 0.7577 2.6333 0.1290
vt 0.8714 2.6333 0.1287
vt 0.7689 2.6333 0.8653
vt 0.8651 2.6333 0.8650
vt 0.3202 2.8167 0.7676
vt 0.3638 2.8604 0.7269
vt 0.7664 2.6484 0.8573
vt 0.4951 2.9081 0.3149
vt 0.5964 3.0000 0.4043
vt 0.6250 2.8734 0.2815
vt 0.6367 2.8616 0.2701
vt 0.2707 2.7784 0.2062
vt 0.2819 2.7782 0.7884
vt 0.7552 2.6488 0.1371
vt 0.7573 2.6360 0.1304
vt 0.5982 3.0000 0.5975
vt 0.6362 2.8734 0.7154
vt 0.3766 2.8733 0.7150
vt 0.4034 3.0000 0.5973
vt 0.5063 2.9081 0.6828
vt 0.3738 2.8725 0.7170
vt 0.4025 3.0000 0.5982
vt 0.2316 2.8167 0.7688
vt 0.3177 2.8167 0.7698
vt 0.2422 2.6333 0.8657
vt 0.2791 2.7778 0.7900
vt 0.1350 2.6333 0.8651
vt 0.2367 2.6333 0.1292
vt 0.2736 2.7782 0.2066
vt 0.2268 2.8167 0.2264
vt 0.1287 2.6333 0.1286
vt 0.7740 2.8167 0.7755
vt 0.6898 2.8167 0.7745
vt 0.7286 2.7782 0.7945
vt 0.8693 2.6333 0.8692
vt 0.7660 2.6333 0.8687
vt 0.7605 2.6333 0.1323
vt 0.8672 2.6333 0.1329
vt 0.3122 2.8167 0.2275
vt 0.3683 2.8733 0.2816
vt 0.4043 3.0000 0.4036
vt 0.5034 2.9080 0.6858
vt 0.5964 3.0000 0.5975
vt 0.6333 2.8733 0.7200
vt 0.4979 2.9080 0.3157
vt 0.5973 3.0000 0.4034
vt 0.6278 2.8728 0.2844
vt 0.3135 2.9083 0.3148
vt 0.1029 2.5417 0.1028
vt 0.1284 3.5882 1.9915
vt -0.1958 3.5892 1.8318
vt 0.2112 3.5787 2.0324
vt 0.2114 3.5860 2.0324
vt -0.1126 3.5944 1.8727
vt -0.1956 3.5965 1.8318
vt 0.5345 3.5840 -1.0918
vt -0.0841 3.5643 -1.1093
vt 0.6011 3.5780 -1.0899
vt 0.6009 3.5853 -1.0899
vt 0.2323 3.5779 -1.1003
vt -0.0575 3.5721 -1.1086
vt -0.0841 3.5716 -1.1093
vt 1.0764 3.5947 -0.9198
vt 1.1336 3.5886 -0.8994
vt 1.1334 3.5959 -0.8994
vt 0.8046 3.5893 -1.0170
vt 0.0107 3.6306 1.8113
vt -0.4519 3.6107 1.6030
vt 0.2033 3.6286 1.8984
vt 0.2033 3.6359 1.8981
vt -0.2593 3.6232 1.6896
vt -0.4519 3.6180 1.6028
vt 1.1750 3.6232 1.7379
vt 0.7671 3.6286 1.8952
vt 1.3448 3.6107 1.6728
vt 1.3448 3.6180 1.6725
vt 0.9369 3.6306 1.8296
vt 0.7671 3.6359 1.8950
vt 1.6140 3.6061 1.4089
vt 1.8318 3.5892 1.1958
vt 1.8318 3.5965 1.1956
vt 1.5625 3.6084 1.4592
vt 0.4847 3.5791 2.0759
vt 0.6956 3.5664 2.1096
vt 0.6959 3.5737 2.1096
vt 0.4225 3.5806 2.0660
vt 1.1736 3.5666 2.0664
vt 1.3035 3.5574 2.0546
vt 1.3035 3.5647 2.0546
vt 0.8745 3.5710 2.0934
vt 1.3929 3.6081 -0.6520
vt 1.6030 3.6107 -0.4519
vt 1.6028 3.6180 -0.4519
vt 1.3433 3.6058 -0.6992
vt 0.4500 3.6359 1.8968
vt 0.5205 3.6359 1.8964
vt 1.7974 3.5508 1.9034
vt 1.7974 3.5581 1.9034
vt 0.3823 3.7170 -0.8345
vt -0.9034 3.5581 -0.7974
vt -0.9034 3.5508 -0.7974
vt -0.9034 3.4917 -0.7974
vt 0.3803 3.1022 -0.8344
vt -0.8784 3.5581 -0.9017
vt -0.8784 3.5508 -0.9017
vt 0.6556 1.7466 -1.0893
vt -0.0841 1.7358 -1.1093
vt -0.0841 1.4955 -1.1093
vt 0.6627 1.5060 -1.0892
vt -0.4512 1.5282 1.6649
vt 0.2040 1.5408 1.9605
vt 0.2039 1.7833 1.9533
vt -0.4513 1.7701 1.6577
vt 1.3453 1.7701 1.7275
vt 0.7677 1.7833 1.9501
vt 0.7678 1.5408 1.9573
vt 1.3454 1.5282 1.7347
vt 1.8323 1.7486 1.2506
vt 1.8324 1.5067 1.2578
vt 1.5624 4.0508 1.4461
vt 1.6138 4.0485 1.3957
vt 1.6138 4.1456 1.3928
vt 1.5624 4.1479 1.4432
vt 0.6341 1.4970 2.1102
vt 0.6412 1.7373 2.1102
vt 0.1566 1.7445 2.0330
vt 0.1494 1.5034 2.0331
vt 0.4986 4.0445 2.0758
vt 0.5016 4.1467 2.0758
vt 0.4394 4.1463 2.0659
vt 0.4363 4.0445 2.0659
vt 1.3035 1.4907 2.0546
vt 1.3035 1.7307 2.0546
vt 1.1954 1.5126 -0.8987
vt 1.6649 1.5282 -0.4512
vt 1.6577 1.7701 -0.4513
vt 1.1882 1.7537 -0.8988
vt 1.3299 4.0561 -0.6994
vt 1.3795 4.0569 -0.6521
vt 1.3766 4.1554 -0.6522
vt 1.3270 4.1549 -0.6994
vt 0.4498 4.1613 1.8811
vt 0.4499 4.0667 1.8839
vt 0.5203 4.0667 1.8835
vt 0.5203 4.1613 1.8807
vt 1.7974 1.7258 1.9034
vt 1.7974 0.7537 1.9034
vt 1.3035 4.3009 2.0546
vt 1.3035 4.1463 2.0546
vt 1.7974 4.3009 1.9034
vt -0.9034 0.7537 -0.7974
vt 1.9017 0.7537 -0.8784
vt 1.9017 1.7258 -0.8784
vt -0.9034 1.7258 -0.7974
vt 0.5055 3.7639 -0.8380
vt -0.9034 4.3009 -0.7974
vt 0.6477 3.7639 -0.8422
vt 1.9017 3.5581 -0.8784
vt 0.7668 3.7170 -0.8456
vt 1.9017 4.3009 -0.8784
vt -0.8784 1.7258 -0.9017
vt -0.8784 0.7537 -0.9017
vt -0.0841 4.3009 -1.1093
vt -0.8784 4.3009 -0.9017
vt -0.0841 4.1478 -1.1093
vt -0.2267 1.5064 1.8477
vt -0.2578 1.5067 1.8324
vt -0.4009 -3.3037 1.8340
vt -0.1071 1.5055 1.9067
vt -0.0012 1.5046 1.9588
vt 0.1183 1.5037 2.0178
vt 0.0068 -3.2898 2.0346
vt -0.2195 1.7483 1.8477
vt 0.2094 3.5197 2.0325
vt -0.1976 3.5302 1.8318
vt -0.2506 1.7486 1.8323
vt -0.0999 1.7471 1.9066
vt 0.0059 1.7460 1.9588
vt 0.1255 1.7448 2.0177
vt -0.0841 -3.2822 -1.1093
vt 0.8051 -3.2795 -1.0877
vt 0.6028 3.5189 -1.0899
vt -0.0841 3.5052 -1.1093
vt 0.7414 1.5069 -1.0611
vt 0.8670 1.5085 -1.0162
vt 0.9911 1.5100 -0.9718
vt 1.1167 1.5116 -0.9269
vt 1.3380 -3.2822 -0.8972
vt 0.7343 1.7477 -1.0611
vt 1.1354 3.5295 -0.8994
vt 0.8598 1.7493 -1.0162
vt 0.9840 1.7510 -0.9718
vt 1.1095 1.7527 -0.9269
vt -0.4497 -3.2822 1.8081
vt 0.2055 -3.2822 2.1040
vt -0.4518 3.5516 1.6047
vt 0.2034 3.5695 1.9001
vt 0.7693 -3.2822 2.1008
vt 1.3470 -3.2822 1.8778
vt 1.3448 3.5516 1.6745
vt 0.7672 3.5695 1.8969
vt 1.8340 -3.3037 1.4009
vt 1.8318 3.5302 1.1976
vt 0.4919 -3.2822 2.1117
vt 0.6939 3.5073 2.1096
vt 1.3035 -3.2822 2.0546
vt 1.3035 3.4984 2.0546
vt 1.8081 -3.2822 -0.4497
vt 1.6047 3.5516 -0.4518
vt 0.3000 1.5408 1.9599
vt 0.4333 1.5408 1.9592
vt 0.5385 1.5408 1.9586
vt 0.6719 1.5408 1.9578
vt 0.2999 1.7833 1.9527
vt 0.4332 1.7833 1.9520
vt 0.5385 1.7833 1.9514
vt 0.6718 1.7833 1.9506
vt 1.7974 -3.2822 1.9034
vt 1.7974 3.4917 1.9034
vt 1.9017 3.4917 -0.8784
vt 0.7709 3.1022 -0.8457
vt -0.8784 -3.2822 -0.9017
vt -0.8784 3.4917 -0.9017
vt 0.6052 1.6074 1.9562
vt 0.6051 1.7167 1.9530
vt 0.3666 1.7167 1.9543
vt 0.3666 1.6074 1.9576
vt 1.9586 0.5385 1.5408
vt 1.8920 0.5382 1.5388
vt 1.8926 0.4329 1.5388
vt 1.9592 0.4333 1.5408
vt 1.9562 1.6074 0.6052
vt 1.8896 1.6054 0.6048
vt 1.8920 1.5388 0.5382
vt 1.9586 1.5408 0.5385
vt 1.9530 1.7167 0.6051
vt 1.8863 1.7147 0.6048
vt 1.9514 1.7833 0.5385
vt 1.8847 1.7813 0.5381
vt -0.9520 0.4332 1.7833
vt -0.8853 0.4328 1.7813
vt -0.8847 0.5381 1.7813
vt -0.9514 0.5385 1.7833
vt -0.9543 1.7167 0.3666
vt -0.8877 1.7147 0.3662
vt -0.8853 1.7813 0.4328
vt -0.9520 1.7833 0.4332
vt -0.9576 1.6074 0.3666
vt -0.8909 1.6054 0.3662
vt -0.9592 1.5408 0.4333
vt -0.8926 1.5388 0.4329
vt 0.0605 1.5708 1.9883
vt 0.0637 1.6788 1.9883
vt -0.1617 1.6810 1.8771
vt -0.1649 1.5726 1.8772
vt 0.9718 1.8990 1.5037
vt 1.0776 1.8469 1.5046
vt 1.1071 1.9067 1.5055
vt 1.0012 1.9588 1.5046
vt 0.9100 1.9285 1.5699
vt 0.9395 1.9883 1.5708
vt 1.9883 1.6788 0.9363
vt 1.9285 1.6779 0.9068
vt 1.9285 1.5699 0.9100
vt 1.9883 1.5708 0.9395
vt 0.0932 1.9285 1.6779
vt 0.0637 1.9883 1.6788
vt 0.0059 1.9588 1.7460
vt 0.0354 1.8990 1.7451
vt -0.0999 1.9066 1.7471
vt -0.0705 1.8468 1.7462
vt -0.1617 1.8771 1.6810
vt -0.1322 1.8174 1.6801
vt -0.8772 1.5726 1.1649
vt -0.8174 1.5717 1.1355
vt -0.8174 1.6801 1.1322
vt -0.8771 1.6810 1.1617
vt 1.1355 1.8174 1.5717
vt 1.1649 1.8772 1.5726
vt 1.0519 1.5775 -0.9493
vt 1.0487 1.6852 -0.9494
vt 0.7990 1.6819 -1.0387
vt 0.8022 1.5744 -1.0386
vt 0.8445 -0.9534 1.5079
vt 0.8670 -1.0162 1.5085
vt 0.9911 -0.9718 1.5100
vt 0.9687 -0.9090 1.5094
vt 1.0519 -0.9493 1.5775
vt 1.0295 -0.8866 1.5768
vt 1.9494 1.6852 1.0487
vt 1.8866 1.6846 1.0263
vt 1.8866 1.5768 1.0295
vt 1.9493 1.5775 1.0519
vt 0.0385 -0.9091 1.7504
vt -0.0263 -0.8866 1.6846
vt -0.0487 -0.9494 1.6852
vt 0.0160 -0.9718 1.7510
vt 0.1626 -0.9535 1.7487
vt 0.1402 -1.0162 1.7493
vt 0.2234 -0.9759 1.6812
vt 0.2010 -1.0387 1.6819
vt -1.0386 1.5744 0.8022
vt -0.9759 1.5737 0.7798
vt -0.9759 1.6812 0.7766
vt -1.0387 1.6819 0.7990
vt 0.7798 -0.9759 1.5737
vt 0.8022 -1.0386 1.5744
vt -0.0964 4.1378 1.8725
vt 0.0264 4.1851 1.9323
vt -0.1753 4.2795 1.8315
vt -0.1795 4.1360 1.8316
vt 0.1449 4.1430 1.9913
vt 0.2280 4.1448 2.0323
vt 0.2324 4.2933 2.0322
vt 0.5795 4.3037 -1.0901
vt 0.0806 4.2031 -1.1046
vt 0.5193 4.1523 -1.0919
vt 0.5840 4.1528 -1.0901
vt -0.0582 4.1480 -1.1086
vt 0.2245 4.1501 -1.1004
vt 0.7878 4.1528 -1.0172
vt 0.9276 4.2058 -0.9666
vt 1.1168 4.1529 -0.8995
vt 1.0597 4.1529 -0.9200
vt 1.1124 4.3009 -0.8996
vt -0.2594 4.1586 1.6737
vt -0.1202 4.2035 1.7352
vt -0.4521 4.3009 1.5824
vt -0.4520 4.1575 1.5867
vt 0.2032 4.1613 1.8825
vt 0.0106 4.1602 1.7956
vt 0.2031 4.3009 1.8784
vt 0.9368 4.1602 1.8138
vt 1.0547 4.2035 1.7670
vt 0.7669 4.3009 1.8752
vt 0.7670 4.1613 1.8793
vt 1.3446 4.1575 1.6565
vt 1.1748 4.1586 1.7220
vt 1.3445 4.3009 1.6522
vt 1.8315 4.2795 1.1753
vt 1.8316 4.1360 1.1795
vt 0.7175 4.3009 2.1093
vt 0.7130 4.1482 2.1094
vt 0.8866 4.1477 2.0933
vt 1.0420 4.1872 2.0789
vt 1.1786 4.1467 2.0662
vt 1.5824 4.3009 -0.4521
vt 1.5867 4.1575 -0.4520
vt 0.5870 4.0507 -1.0900
vt 0.5220 4.0500 -1.0919
vt 0.6009 -1.0899 3.5853
vt 0.5961 -0.9233 3.5852
vt 0.5298 -0.9252 3.5839
vt 0.5345 -1.0918 3.5840
vt 2.0900 4.0507 0.5870
vt 1.9234 4.0506 0.5822
vt 1.9233 3.5852 0.5961
vt 2.0899 3.5853 0.6009
vt 0.4780 -1.0919 4.0500
vt 0.4828 -0.9253 4.0499
vt 0.4178 -0.9234 4.0506
vt 0.4130 -1.0900 4.0507
vt -1.0918 3.5840 0.5345
vt -0.9252 3.5839 0.5298
vt -0.9253 4.0499 0.5172
vt -1.0919 4.0500 0.5220
vt 1.4089 1.6140 3.6061
vt 1.2899 1.4973 3.6025
vt 1.3403 1.4459 3.6048
vt 1.4592 1.5625 3.6084
vt 1.3957 4.0485 1.6138
vt 1.2767 4.0450 1.4972
vt 1.2899 3.6025 1.4973
vt 1.4089 3.6061 1.6140
vt -0.4461 1.5624 4.0508
vt -0.3271 1.4457 4.0472
vt -0.2767 1.4972 4.0450
vt -0.3957 1.6138 4.0485
vt -0.4592 3.6084 1.5625
vt -0.3403 3.6048 1.4459
vt -0.3271 4.0472 1.4457
vt -0.4461 4.0508 1.5624
vt 1.3929 -0.6520 3.6081
vt 1.2780 -0.5313 3.6047
vt 1.2284 -0.5786 3.6024
vt 1.3433 -0.6992 3.6058
vt 1.6521 4.0569 1.3795
vt 1.5314 4.0535 1.2646
vt 1.5313 3.6047 1.2780
vt 1.6520 3.6081 1.3929
vt -0.3299 -0.6994 4.0561
vt -0.2150 -0.5787 4.0527
vt -0.2646 -0.5314 4.0535
vt -0.3795 -0.6521 4.0569
vt -0.6992 3.6058 1.3433
vt -0.5786 3.6024 1.2284
vt -0.5787 4.0527 1.2150
vt -0.6994 4.0561 1.3299
vt 1.8964 0.5205 3.6359
vt 1.7298 0.5195 3.6309
vt 1.7302 0.4491 3.6309
vt 1.8968 0.4500 3.6359
vt 1.8835 4.0667 0.5203
vt 1.7169 4.0617 0.5194
vt 1.7298 3.6309 0.5195
vt 1.8964 3.6359 0.5205
vt -0.8839 0.4499 4.0667
vt -0.7173 0.4489 4.0617
vt -0.7169 0.5194 4.0617
vt -0.8835 0.5203 4.0667
vt -0.8968 3.6359 0.4500
vt -0.7302 3.6309 0.4491
vt -0.7173 4.0617 0.4489
vt -0.8839 4.0667 0.4499
vt 0.5153 2.0759 3.5791
vt 0.4891 1.9114 3.5782
vt 0.5513 1.9015 3.5798
vt 0.5775 2.0660 3.5806
vt 2.0758 4.0445 0.5014
vt 1.9112 4.0437 0.4753
vt 1.9114 3.5782 0.4891
vt 2.0759 3.5791 0.5153
vt 0.4363 2.0659 4.0445
vt 0.4625 1.9013 4.0436
vt 0.5247 1.9112 4.0437
vt 0.4986 2.0758 4.0445
vt -1.0660 3.5806 0.5775
vt -0.9015 3.5798 0.5513
vt -0.9013 4.0436 0.5375
vt -1.0659 4.0445 0.5637
vt 0.8716 1.9915 3.5882
vt 0.8274 1.9018 3.5868
vt 1.0684 1.7830 3.5930
vt 1.1126 1.8727 3.5944
vt 1.9913 4.1430 0.8551
vt 1.9016 4.1417 0.8109
vt 1.9018 3.5868 0.8274
vt 1.9915 3.5882 0.8716
vt 0.0264 1.9323 4.1851
vt 0.0706 1.8426 4.1838
vt 0.1891 1.9016 4.1417
vt 0.1449 1.9913 4.1430
vt -0.0964 1.8725 4.1378
vt -0.0522 1.7828 4.1365
vt -0.8727 3.5944 1.1126
vt -0.7830 3.5930 1.0684
vt -0.7828 4.1365 1.0522
vt -0.8725 4.1378 1.0964
vt 0.2323 -1.1003 3.5779
vt 0.2295 -1.0004 3.5779
vt -0.0604 -1.0086 3.5721
vt -0.0575 -1.1086 3.5721
vt 2.1004 4.1501 0.2245
vt 2.0005 4.1501 0.2217
vt 2.0004 3.5779 0.2295
vt 2.1003 3.5779 0.2323
vt 0.9194 -1.1046 4.2031
vt 0.9223 -1.0046 4.2031
vt 0.7783 -1.0005 4.1501
vt 0.7755 -1.1004 4.1501
vt 1.0582 -1.1086 4.1480
vt 1.0610 -1.0086 4.1480
vt -1.1086 3.5721 -0.0575
vt -1.0086 3.5721 -0.0604
vt -1.0086 4.1480 -0.0610
vt -1.1086 4.1480 -0.0582
vt 1.0764 -0.9198 3.5947
vt 1.0427 -0.8256 3.5938
vt 0.7709 -0.9228 3.5884
vt 0.8046 -1.0170 3.5893
vt 1.9200 4.1529 1.0597
vt 1.8258 4.1519 1.0261
vt 1.8256 3.5938 1.0427
vt 1.9198 3.5947 1.0764
vt 0.0724 -0.9666 4.2058
vt 0.1060 -0.8725 4.2049
vt -0.0261 -0.8258 4.1519
vt -0.0597 -0.9200 4.1529
vt 0.2122 -1.0172 4.1528
vt 0.2459 -0.9230 4.1519
vt -1.0170 3.5893 0.8046
vt -0.9228 3.5884 0.7709
vt -0.9230 4.1519 0.7541
vt -1.0172 4.1528 0.7878
vt 1.8113 0.0107 3.6306
vt 1.7202 0.0519 3.6279
vt 1.5985 -0.2181 3.6205
vt 1.6896 -0.2593 3.6232
vt 1.7956 4.1602 0.0106
vt 1.7045 4.1575 0.0517
vt 1.7202 3.6279 0.0519
vt 1.8113 3.6306 0.0107
vt -0.7352 -0.1202 4.2035
vt -0.6441 -0.0791 4.2008
vt -0.7045 0.0517 4.1575
vt -0.7956 0.0106 4.1602
vt -0.6737 -0.2594 4.1586
vt -0.5826 -0.2183 4.1559
vt -0.6896 3.6232 -0.2593
vt -0.5985 3.6205 -0.2181
vt -0.5826 4.1559 -0.2183
vt -0.6737 4.1586 -0.2594
vt 1.7379 1.1750 3.6232
vt 1.6447 1.1390 3.6205
vt 1.7363 0.9009 3.6278
vt 1.8296 0.9369 3.6306
vt 1.7220 4.1586 1.1748
vt 1.6287 4.1558 1.1388
vt 1.6447 3.6205 1.1390
vt 1.7379 3.6232 1.1750
vt -0.7670 1.0547 4.2035
vt -0.6738 1.0187 4.2007
vt -0.6287 1.1388 4.1558
vt -0.7220 1.1748 4.1586
vt -0.8138 0.9368 4.1602
vt -0.7206 0.9008 4.1574
vt -0.8296 3.6306 0.9369
vt -0.7363 3.6278 0.9009
vt -0.7206 4.1574 0.9008
vt -0.8138 4.1602 0.9368
vt -0.1736 2.0664 3.5666
vt -0.1645 1.9668 3.5667
vt 0.1346 1.9938 3.5711
vt 0.1255 2.0934 3.5710
vt 2.0662 4.1467 -0.1786
vt 1.9666 4.1468 -0.1695
vt 1.9668 3.5667 -0.1645
vt 2.0664 3.5666 -0.1736
vt 1.0420 2.0789 4.1872
vt 1.0329 1.9793 4.1873
vt 1.1695 1.9666 4.1468
vt 1.1786 2.0662 4.1467
vt 0.8866 2.0933 4.1477
vt 0.8774 1.9937 4.1478
vt -1.0934 3.5710 0.1255
vt -0.9938 3.5711 0.1346
vt -0.9937 4.1478 0.1226
vt -1.0933 4.1477 0.1134
vt 1.9017 3.5508 -0.8784
vt 1.7422 0.3495 3.7639
vt 1.7456 0.2303 3.7170
vt 1.8456 0.2332 3.7170
vt 1.8422 0.3523 3.7639
vt 1.8380 0.4945 3.7639
vt 1.7381 0.4916 3.7639
vt 1.8345 0.6177 3.7170
vt 1.7345 0.6148 3.7170
vt -0.7345 3.7170 0.6148
vt -0.8345 3.7170 0.6177
vt -0.8344 3.1022 0.6197
vt -0.7345 3.1022 0.6168
vt -0.8457 0.2291 3.1022
vt -0.7458 0.2262 3.1022
vt -0.7345 0.6168 3.1022
vt -0.8344 0.6197 3.1022
vt 1.7456 3.7170 0.2303
vt 1.7458 3.1022 0.2262
vt 1.8457 3.1022 0.2291
vt 1.8456 3.7170 0.2332
vt 0.9831 0.0005 0.0005
vt 0.9995 0.9344 0.0642
vt 0.0399 0.9359 0.9995
vt 0.0005 0.0076 0.7746
vt 0.5507 0.9995 0.5146
vt 0.0509 0.9203 0.4202
vt 0.0005 0.0109 0.9995
vt 0.9995 0.9290 0.0005
vt 0.5325 0.9995 0.1614
vt 0.9481 0.0005 0.5919
vt 0.0005 0.2807 0.0005
vt 0.7192 0.0005 0.5802
vt 0.2809 0.9995 0.4203
vt 0.0119 0.7275 0.1152
vt 0.2555 0.0041 0.1647
vt 0.9882 0.2730 0.8854
vt 0.9995 0.7178 0.9995
vt 0.7445 0.9950 0.8354
vt 0.9995 0.9222 0.6277
vt 0.5075 0.9995 0.8670
vt 0.0005 0.0131 0.3791
vt 0.9786 0.0005 0.0005
vt 0.0212 0.9248 0.9995
vt 0.0005 0.2772 0.0875
vt 0.9995 0.7228 0.9125
vt 0.2803 0.9995 0.7931
vt 0.0010 0.7265 0.4446
vt 0.2792 0.0022 0.0005
vt 0.7197 0.0005 0.2069
vt 0.9990 0.2735 0.5554
vt 0.7208 0.9978 0.9995
vt -1.2189 -9.6190 -3.7546
vt -1.0198 -9.5622 -3.7489
vt -1.0614 10.3824 -3.7494
vt -1.2564 10.3550 -3.7550
vt 3.3585 -8.7222 1.2127
vt 3.5128 -8.8194 1.0616
vt 3.5124 10.1414 1.0221
vt 3.3581 10.2386 1.1732
vt 0.8770 -8.8259 -2.7148
vt 1.0257 -8.7259 -2.5730
vt 0.9857 10.5093 -2.5734
vt 0.8369 10.4741 -2.7152
vt 0.3681 -7.6023 2.3824
vt 0.5795 -7.6023 2.3812
vt 0.5791 10.8613 2.3427
vt 0.3677 10.8613 2.3439
vt 2.1957 10.0848 4.7248
vt 2.1543 -9.7931 4.7253
vt 2.3408 -9.8613 4.7550
vt 2.3824 10.0880 4.7545
vt 0.5026 0.9995 0.8882
vt 0.0223 0.0005 0.0005
vt 0.9995 0.0131 0.3493
vt 0.9779 0.9248 0.9995
vt 0.0005 0.9223 0.6579
vt 0.0115 0.2722 0.0005
vt 0.7580 0.0063 0.6945
vt 0.2420 0.9932 0.3054
vt 0.0005 0.7154 0.0398
vt 0.2667 0.0005 0.2174
vt 0.9995 0.2839 0.9601
vt 0.9884 0.7280 0.9995
vt 0.7332 0.9995 0.7826
vt 0.9478 0.9137 0.9045
vt 0.0005 0.9136 0.9238
vt 0.0527 0.0005 0.0111
vt 0.9995 0.0093 0.0005
vt 0.4883 0.9995 0.9995
vt 0.0005 0.9122 0.9734
vt 0.0028 0.0005 0.1043
vt 0.9727 0.9157 0.8614
vt 0.4776 0.9995 0.9995
vt 0.9995 0.0098 0.0005
vt 0.3208 0.9995 0.3208
vt 0.0055 0.9286 0.0055
vt 0.9890 0.9286 0.9890
vt 0.6843 0.9995 0.6843
vt 0.9995 0.0005 0.9995
vt 0.0005 0.0005 0.0005
vt 0.9987 0.0609 0.7676
vt 0.9994 0.9368 0.1006
vt 0.9993 0.9373 0.2900
vt 0.9988 0.0614 0.9551
vt 0.0354 0.0022 0.7617
vt 0.0355 0.0027 0.9492
vt 0.0005 0.0028 0.9482
vt 0.0005 0.0023 0.7607
vt 0.0360 0.9994 0.1953
vt 0.0361 0.9989 0.0049
vt 0.0012 0.9990 0.0029
vt 0.0011 0.9995 0.1924
vt 0.9994 0.9977 0.2441
vt 0.9995 0.9972 0.0547
vt 0.9988 0.0010 1.0010
vt 0.9987 0.0005 0.8125
vt 0.0355 0.0632 0.9033
vt 0.0005 0.0632 0.9023
vt 0.0359 0.9390 0.2402
vt 0.0361 0.9385 0.0498
vt 0.0012 0.9386 0.0488
vt 0.0355 0.0627 0.7168
vt 0.0010 0.9391 0.2383
vt 0.0005 0.0627 0.7158
vt 0.1209 0.6843 0.5738
vt 0.1081 0.6843 0.5651
vt 0.1089 0.0249 0.5638
vt 0.1217 0.0249 0.5726
vt 0.1206 0.6843 0.4181
vt 0.1214 0.0249 0.4167
vt 0.1083 0.6843 0.4255
vt 0.1090 0.0249 0.4244
vt 0.1070 0.6843 0.4377
vt 0.1078 0.0249 0.4365
vt 0.1069 0.6843 0.5527
vt 0.1077 0.0249 0.5516
vt 0.1204 0.9661 0.5747
vt 0.1076 0.9661 0.5659
vt 0.1078 0.8200 0.5654
vt 0.1206 0.8201 0.5742
vt 0.1201 0.9661 0.4189
vt 0.1204 0.8201 0.4184
vt 0.1078 0.9661 0.4265
vt 0.1080 0.8201 0.4260
vt 0.1065 0.9661 0.4386
vt 0.1067 0.8201 0.4380
vt 0.1064 0.9661 0.5537
vt 0.1067 0.8200 0.5533
vt 0.1138 0.3891 0.5000
vt 0.0889 0.3833 0.5001
vt 0.0922 0.3833 0.6249
vt 0.1013 0.3833 0.7164
vt 0.1138 0.3833 0.7498
vt 0.1263 0.3833 0.7164
vt 0.1355 0.3833 0.6249
vt 0.1388 0.3833 0.5001
vt 0.1355 0.3833 0.3752
vt 0.1263 0.3833 0.2838
vt 0.1138 0.3833 0.2502
vt 0.1013 0.3833 0.2838
vt 0.0922 0.3833 0.3752
vt 0.0763 0.3673 0.7163
vt 0.0705 0.3673 0.5001
vt 0.0922 0.3673 0.8746
vt 0.1138 0.3673 0.9326
vt 0.1355 0.3673 0.8747
vt 0.1513 0.3673 0.7163
vt 0.1571 0.3673 0.5000
vt 0.1513 0.3673 0.2838
vt 0.1355 0.3673 0.1254
vt 0.1138 0.3673 0.0675
vt 0.0922 0.3673 0.1254
vt 0.0764 0.3673 0.2838
vt 0.0705 0.3456 0.7498
vt 0.0638 0.3456 0.5001
vt 0.0889 0.3456 0.9326
vt 0.1138 0.3456 0.9996
vt 0.1388 0.3456 0.9326
vt 0.1572 0.3456 0.7498
vt 0.1638 0.3456 0.5001
vt 0.1571 0.3456 0.2503
vt 0.1388 0.3456 0.0674
vt 0.1138 0.3456 0.0005
vt 0.0889 0.3456 0.0674
vt 0.0705 0.3456 0.2503
vt 0.0763 0.3239 0.7163
vt 0.0705 0.3239 0.5001
vt 0.0922 0.3239 0.8746
vt 0.1138 0.3239 0.9326
vt 0.1355 0.3239 0.8747
vt 0.1513 0.3239 0.7163
vt 0.1571 0.3239 0.5000
vt 0.1513 0.3239 0.2838
vt 0.1355 0.3239 0.1254
vt 0.1138 0.3239 0.0675
vt 0.0922 0.3239 0.1254
vt 0.0764 0.3239 0.2838
vt 0.0922 0.3080 0.6249
vt 0.0889 0.3080 0.5001
vt 0.1013 0.3080 0.7164
vt 0.1138 0.3080 0.7498
vt 0.1263 0.3080 0.7164
vt 0.1355 0.3080 0.6249
vt 0.1388 0.3080 0.5001
vt 0.1355 0.3080 0.3752
vt 0.1263 0.3080 0.2838
vt 0.1138 0.3080 0.2502
vt 0.1013 0.3080 0.2838
vt 0.0922 0.3080 0.3752
vt 0.1138 0.3021 0.5000
vt 0.1272 0.9815 0.6472
vt 0.1034 0.9814 0.6567
vt 0.1040 0.9661 0.6411
vt 0.1255 0.9661 0.6326
vt 0.1269 0.9815 0.3455
vt 0.1252 0.9661 0.3600
vt 0.1037 0.9814 0.3353
vt 0.1043 0.9661 0.3506
vt 0.0973 0.9814 0.3997
vt 0.0985 0.9661 0.4086
vt 0.0971 0.9814 0.5911
vt 0.0983 0.9661 0.5817
vt 0.1154 0.9777 0.4595
vt 0.1091 0.9777 0.4581
vt 0.1090 0.9777 0.5340
vt 0.1155 0.9777 0.5327
vt -0.1821 0.4703 1.8584
vt 0.2311 0.4596 2.0639
vt 0.2333 0.5187 2.0639
vt -0.1802 0.5294 1.8584
vt -0.1088 0.4447 -1.1426
vt 0.5791 0.4587 -1.1229
vt 0.5767 0.5177 -1.1229
vt -0.1100 0.5037 -1.1426
vt 1.1183 0.4696 -0.9280
vt 1.1163 0.5287 -0.9280
vt -0.4715 0.4920 1.5949
vt 0.1961 0.5100 1.8950
vt 0.1961 0.5691 1.8932
vt -0.4714 0.5510 1.5931
vt 0.7730 0.5100 1.8919
vt 1.3625 0.4920 1.6653
vt 1.3623 0.5511 1.6635
vt 0.7729 0.5691 1.8902
vt 1.8584 0.4703 1.1821
vt 1.8584 0.5294 1.1802
vt 0.7191 0.4469 2.1426
vt 0.7218 0.5059 2.1426
vt 1.3272 0.4378 2.0872
vt 1.3287 0.4968 2.0871
vt 1.5949 0.4920 -0.4715
vt 1.5931 0.5510 -0.4714
vt 1.8148 0.4309 1.9352
vt 1.8169 0.4900 1.9351
vt -0.8928 0.4309 -0.9340
vt -0.8950 0.4900 -0.9340
vt -0.1625 1.8314 0.4697
vt 0.2413 2.0321 0.4592
vt 0.2311 2.0639 0.4596
vt -0.1821 1.8584 0.4703
vt 0.7203 2.1093 0.4468
vt 0.7191 2.1426 0.4469
vt 1.3207 2.0545 0.4379
vt 1.3272 2.0872 0.4378
vt 1.8148 1.9352 0.4309
vt 1.8049 1.9033 0.4312
vt -0.9033 0.4312 -0.8049
vt -0.9033 0.4903 -0.8070
vt -0.9351 0.4900 -0.8169
vt -0.9352 0.4309 -0.8148
vt -0.8169 1.9351 0.4900
vt -0.8070 1.9033 0.4903
vt -0.3221 2.0545 0.4970
vt -0.3287 2.0871 0.4968
vt 0.2771 2.1093 0.5059
vt 0.2782 2.1426 0.5059
vt 0.7566 2.0321 0.5183
vt 0.7667 2.0639 0.5187
vt 1.1606 1.8314 0.5287
vt 1.1802 1.8584 0.5294
vt 1.6355 1.3444 0.5502
vt 1.6635 1.3623 0.5511
vt 1.8574 0.7668 0.5681
vt 1.8902 0.7729 0.5691
vt 1.8606 0.2030 0.5681
vt 1.8932 0.1961 0.5691
vt 1.5659 -0.4522 0.5502
vt 1.5931 -0.4714 0.5510
vt 1.0987 -0.8997 0.5281
vt 1.1163 -0.9280 0.5287
vt 0.5705 -1.0902 0.5175
vt 0.5767 -1.1229 0.5177
vt -0.1061 -1.1095 0.5038
vt -0.1100 -1.1426 0.5037
vt -0.8950 -0.9340 0.4900
vt -0.8864 -0.9018 0.4903
vt 1.9018 0.4903 -0.8864
vt 1.9018 0.4312 -0.8842
vt 1.9340 0.4309 -0.8928
vt 1.9340 0.4900 -0.8950
vt 1.8928 -0.9340 0.4309
vt 1.8842 -0.9018 0.4312
vt 1.1050 -1.1095 0.4448
vt 1.1088 -1.1426 0.4447
vt 0.4272 -1.0901 0.4585
vt 0.4209 -1.1229 0.4587
vt -0.1007 -0.8997 0.4691
vt -0.1183 -0.9280 0.4696
vt -0.5677 -0.4522 0.4912
vt -0.5949 -0.4715 0.4920
vt -0.8624 0.2030 0.5091
vt -0.8950 0.1961 0.5100
vt -0.8592 0.7668 0.5091
vt -0.8919 0.7730 0.5100
vt -0.6373 1.3444 0.4912
vt -0.6653 1.3625 0.4920
# 926 texture coords

g myyrivahe_48
usemtl katus_kivi
s off
f 1/1/1 2/2/1 3/3/1 
f 2/1/2 4/2/2 3/3/2 
f 4/1/3 5/2/3 3/3/3 
f 5/1/4 6/2/4 3/3/4 
f 6/1/5 7/2/5 3/3/5 
f 7/1/6 8/2/6 3/3/6 
f 9/1/7 10/2/7 3/3/7 
f 10/1/8 11/2/8 3/3/8 
f 11/1/9 12/2/9 3/3/9 
f 12/1/10 13/2/10 3/3/10 
f 13/1/11 14/2/11 3/3/11 
f 14/1/12 1/2/12 3/3/12 
usemtl 50_puit2
f 1/4/13 15/5/13 16/6/13 2/7/13 
f 17/8/14 4/9/14 2/7/14 16/6/14 
f 5/10/15 4/9/15 17/8/15 18/11/15 
f 6/12/16 5/10/16 18/11/16 19/13/16 
f 7/14/17 6/12/17 19/13/17 20/15/17 
f 7/14/18 20/15/18 21/16/18 8/17/18 
f 22/18/19 9/19/19 8/17/19 21/16/19 
f 10/20/20 9/19/20 22/18/20 23/21/20 
f 24/22/21 11/23/21 10/20/21 23/21/21 
f 11/24/22 24/25/22 25/26/22 12/27/22 
f 12/27/23 25/26/23 26/28/23 13/29/23 
f 27/30/24 14/31/24 13/29/24 26/28/24 
f 1/4/25 14/31/25 27/30/25 15/5/25 
usemtl katus_kivi
f 8/32/26 9/33/26 3/34/26 
usemtl krohv_valge
s 2
f 28/35/27 29/36/27 30/37/27 31/38/27 
s 4
f 32/39/28 33/40/28 34/41/28 35/42/28 
s 8
f 36/43/29 37/44/30 31/45/31 30/46/31 
s 16
f 38/47/32 36/48/33 30/49/34 29/50/34 
s 32
f 39/47/35 38/48/36 29/49/37 28/50/37 
s 64
f 37/43/38 39/44/39 28/45/40 31/46/40 
s 8
f 40/51/41 41/52/42 42/53/43 
s 16
f 43/54/44 44/55/45 45/56/46 
s 64
f 46/57/47 34/58/48 47/59/49 48/60/50 
f 49/61/51 50/62/52 51/63/53 
s 16
f 52/64/54 53/65/55 40/66/56 54/67/57 
f 54/67/57 40/66/56 55/68/58 
s 64
f 56/69/59 57/70/60 58/71/61 
f 59/72/62 37/43/38 60/73/63 
s 16
f 61/74/64 36/48/33 38/47/32 62/75/65 
f 36/48/33 61/74/64 54/67/57 55/68/58 
f 40/66/56 63/76/66 64/77/67 
f 65/78/68 61/74/64 62/75/65 
f 43/54/44 45/56/46 65/78/68 62/75/65 
s 64
f 46/57/47 66/79/69 34/58/48 
f 35/80/70 34/58/48 66/79/69 67/81/71 
f 56/69/59 35/80/70 68/82/72 57/70/60 
f 68/82/72 35/80/70 67/81/71 
f 47/59/49 49/61/51 51/63/53 69/83/73 
f 69/83/73 48/60/50 47/59/49 
s 16
f 53/65/55 70/84/74 40/66/56 
f 70/84/74 63/76/66 40/66/56 
s 64
f 56/69/59 58/71/61 71/85/75 60/73/63 
f 60/73/63 71/85/75 72/86/76 59/72/62 
f 59/72/62 50/62/52 39/44/39 37/43/38 
f 39/44/39 50/62/52 49/61/51 
s 16
f 43/54/44 33/87/77 73/88/78 44/55/45 
f 40/66/56 64/77/67 74/89/79 32/90/80 
f 32/90/80 74/89/79 75/91/81 33/87/77 
f 75/91/81 73/88/78 33/87/77 
s 32
f 76/92/82 33/93/83 43/94/84 77/95/85 
f 78/96/86 79/97/87 43/94/84 62/98/88 
s 8
f 80/99/89 81/100/90 56/101/91 60/102/92 
s 32
f 47/103/93 82/104/94 83/105/95 
f 39/47/35 49/106/96 84/107/97 78/96/86 
s 8
f 85/108/98 37/44/30 36/43/29 55/109/99 
f 37/44/30 85/108/98 80/99/89 60/102/92 
f 56/101/91 86/110/100 87/111/101 35/112/102 
f 40/51/41 42/53/43 85/108/98 55/109/99 
s 32
f 33/93/83 76/92/82 88/113/103 34/114/104 
f 88/113/103 89/115/105 34/114/104 
f 47/103/93 34/114/104 89/115/105 82/104/94 
f 79/97/87 77/95/85 43/94/84 
s 8
f 81/100/90 86/110/100 56/101/91 
s 32
f 47/103/93 83/105/95 84/107/97 49/106/96 
f 38/48/36 39/47/35 78/96/86 62/98/88 
s 8
f 87/111/101 90/116/106 35/112/102 
f 32/117/107 35/112/102 90/116/106 91/118/108 
f 40/51/41 32/117/107 91/118/108 41/52/42 
s 1
f 65/45/109 45/49/109 79/69/109 78/59/109 
f 73/46/110 76/93/110 77/80/110 44/48/110 
s 2
f 44/48/111 77/80/111 79/69/111 45/49/111 
f 75/45/112 88/60/113 76/60/112 73/46/112 
s 1
f 64/117/114 63/68/114 41/98/114 91/114/114 
s 2
f 70/61/115 42/48/115 41/98/115 63/68/115 
s 1
f 53/69/116 85/58/116 42/48/116 70/61/116 
s 4
f 74/112/117 91/114/117 90/48/117 75/45/117 
s off
f 64/77/118 91/114/118 74/112/118 
s 2
f 92/58/28 93/119/28 94/120/28 95/61/28 
s 4
f 96/119/28 54/66/28 61/43/28 78/59/28 
f 54/66/28 96/119/28 85/58/28 
s 1
f 97/120/28 50/44/28 59/73/28 80/61/28 
f 50/44/28 97/120/28 84/44/28 
s off
f 54/67/119 85/58/119 53/69/119 
f 53/69/120 52/64/120 54/67/120 
f 65/78/121 78/59/121 61/43/121 
s 1
f 89/88/122 46/49/122 48/48/122 82/57/122 
s 2
f 82/57/123 48/48/123 69/50/123 83/43/123 
s 4
f 51/46/124 84/44/124 83/43/124 69/50/124 
s off
f 50/62/125 84/44/125 51/46/125 
s 2
f 88/94/113 66/50/126 46/49/126 89/88/126 
s 1
f 68/90/127 87/91/127 86/79/127 57/66/127 
s 2
f 58/59/128 57/66/128 86/79/128 81/73/128 
s 4
f 71/94/129 58/59/129 81/73/129 80/61/129 
s off
f 71/85/130 80/61/130 59/73/130 
f 59/73/131 72/86/131 71/85/131 
s 16
f 67/87/132 66/50/132 90/48/132 87/91/132 
s off
f 67/81/133 87/91/133 68/90/133 
s 1
f 88/94/27 75/45/27 90/48/27 66/50/27 
s 2
f 98/120/28 99/119/28 100/59/28 101/44/28 
s off
f 85/108/28 102/58/28 103/61/28 80/99/28 
f 96/119/28 104/119/28 102/58/28 85/58/28 
f 97/120/28 105/120/28 104/119/28 96/119/28 
f 80/61/28 103/61/28 105/120/28 97/120/28 
f 84/107/28 106/44/28 107/59/28 78/96/28 
f 97/120/28 108/120/28 106/44/28 84/44/28 
f 96/119/28 109/119/28 108/120/28 97/120/28 
f 78/59/28 107/59/28 109/119/28 96/119/28 
f 102/58/134 92/58/134 95/61/134 103/61/134 
f 104/119/135 93/119/135 92/58/135 102/58/135 
f 105/120/136 94/120/136 93/119/136 104/119/136 
f 103/61/137 95/61/137 94/120/137 105/120/137 
f 106/44/138 101/44/138 100/59/138 107/59/138 
f 108/120/137 98/120/137 101/44/137 106/44/137 
f 109/119/139 99/119/139 98/120/139 108/120/139 
f 107/59/135 100/59/135 99/119/135 109/119/135 
usemtl paekivi
f 110/121/140 111/122/140 112/123/140 113/124/140 
f 111/122/140 110/121/140 114/125/140 115/126/140 
f 116/127/141 117/128/141 118/129/141 119/130/141 
f 117/128/141 116/127/141 120/131/141 121/132/141 
f 117/128/141 121/132/141 122/133/141 
f 123/134/142 118/129/142 124/135/142 125/136/142 
f 118/129/142 123/134/142 126/137/142 119/130/142 
f 127/138/143 128/139/143 129/140/143 130/141/143 
f 128/139/143 127/138/143 131/142/143 132/143/143 
f 133/144/144 134/145/144 135/146/144 136/147/144 
f 134/145/144 133/144/144 137/148/144 138/149/144 
f 139/150/145 135/146/145 111/151/145 115/152/145 
f 135/146/145 139/150/145 140/153/145 136/147/145 
f 141/154/146 112/123/146 142/155/146 143/156/146 
f 112/123/146 141/154/146 144/157/146 113/124/146 
f 145/158/147 142/155/147 146/159/147 147/160/147 
f 142/155/147 145/158/147 148/161/147 143/156/147 
f 149/162/148 124/135/148 128/163/148 132/164/148 
f 124/135/148 149/162/148 150/165/148 125/136/148 
f 151/166/149 130/141/149 129/140/149 152/167/149 
f 134/145/149 138/149/149 152/167/149 129/140/149 
f 147/160/150 146/159/150 153/168/150 154/169/150 
f 155/170/151 154/171/151 153/172/151 156/173/151 
f 155/170/151 156/173/151 157/174/151 
f 158/175/152 159/176/152 117/128/152 122/133/152 
f 160/177/153 161/178/153 162/179/153 163/180/153 
f 164/181/154 165/182/154 166/183/154 167/184/154 
f 168/185/155 169/186/155 170/187/155 171/188/155 
f 172/189/156 168/185/156 171/188/156 173/190/156 
f 174/191/157 175/192/157 176/193/157 177/194/157 
f 178/195/158 179/196/158 180/197/158 181/198/158 
f 182/199/159 183/200/159 184/201/159 185/202/159 
f 186/203/160 187/204/160 179/196/160 178/195/160 
f 188/205/161 164/206/161 167/207/161 189/208/161 
f 190/209/162 191/210/162 192/211/162 193/212/162 
f 194/213/163 195/214/163 196/215/163 197/216/163 
f 198/217/164 187/204/164 186/203/164 199/218/164 
f 147/160/165 154/169/165 20/219/165 200/220/165 
f 21/221/165 20/219/165 154/169/165 
f 199/222/166 201/223/166 202/224/166 198/225/166 
f 155/170/167 203/226/167 21/227/167 154/171/167 
f 21/227/167 203/226/167 204/228/167 158/229/167 
f 204/228/167 205/230/167 158/229/167 
f 21/227/167 158/229/167 22/231/167 
f 162/179/168 161/178/168 202/232/168 201/233/168 
f 158/175/169 122/133/169 23/234/169 22/235/169 
f 206/236/169 23/234/169 122/133/169 
f 207/237/170 173/238/170 208/239/170 209/240/170 
f 210/241/170 209/240/170 208/239/170 211/242/170 
f 212/243/170 181/198/170 211/242/170 208/239/170 
f 213/244/171 214/245/171 215/246/171 172/247/171 
f 214/245/171 213/244/171 216/248/171 217/249/171 
f 214/245/171 217/249/171 218/250/171 180/197/171 
f 219/251/172 220/252/172 163/180/172 162/179/172 
f 161/178/173 160/177/173 221/253/173 222/254/173 
f 223/255/174 163/180/174 220/252/174 224/256/174 
f 225/257/174 224/256/174 220/252/174 226/258/174 
f 227/259/174 188/205/174 226/258/174 220/252/174 
f 228/260/175 229/261/175 221/253/175 160/177/175 
f 229/261/175 228/260/175 230/262/175 231/263/175 
f 229/261/175 231/263/175 232/264/175 189/208/175 
f 233/265/176 234/266/176 165/182/176 164/181/176 
f 235/267/177 167/184/177 166/183/177 236/268/177 
f 237/269/178 238/270/178 171/188/178 170/187/178 
f 169/186/179 168/185/179 239/271/179 240/272/179 
f 238/270/180 208/273/180 173/190/180 171/188/180 
f 168/185/181 172/189/181 215/274/181 239/271/181 
f 241/275/182 178/195/182 181/198/182 212/243/182 
f 214/245/183 180/197/183 179/196/183 242/276/183 
f 241/275/184 243/277/184 186/203/184 178/195/184 
f 242/276/185 179/196/185 187/204/185 244/278/185 
f 227/259/186 233/279/186 164/206/186 188/205/186 
f 235/280/187 229/261/187 189/208/187 167/207/187 
f 245/281/188 165/182/188 234/266/188 246/282/188 
f 247/283/188 246/282/188 234/266/188 248/284/188 
f 237/269/188 170/187/188 248/284/188 234/266/188 
f 249/285/189 240/272/189 236/268/189 166/183/189 
f 240/272/189 249/285/189 250/286/189 251/287/189 
f 240/272/189 251/287/189 252/288/189 169/186/189 
f 199/218/190 186/203/190 243/277/190 253/289/190 
f 244/278/191 187/204/191 198/217/191 156/290/191 
f 202/224/192 254/291/192 255/292/192 157/174/192 
f 198/225/192 202/224/192 157/174/192 156/173/192 
f 219/251/193 162/179/193 201/233/193 256/293/193 
f 202/232/194 161/178/194 222/254/194 254/294/194 
f 257/295/188 170/187/188 169/186/188 252/288/188 
f 252/288/188 258/296/188 257/295/188 
f 248/284/188 170/187/188 257/295/188 
f 259/297/188 166/183/188 165/182/188 245/281/188 
f 245/281/188 260/298/188 259/297/188 
f 249/285/188 166/183/188 259/297/188 
f 245/281/188 246/282/188 260/298/188 
f 248/284/188 257/295/188 247/283/188 
f 252/288/188 251/287/188 258/296/188 
f 249/285/188 259/297/188 250/286/188 
f 247/299/195 261/300/195 262/301/195 246/302/195 
f 257/303/196 263/304/196 261/305/196 247/306/196 
f 258/307/197 264/308/197 263/304/197 257/303/197 
f 251/309/198 265/310/198 264/308/198 258/307/198 
f 250/311/199 266/312/199 265/313/199 251/314/199 
f 259/315/200 267/316/200 266/317/200 250/318/200 
f 260/319/201 268/320/201 267/316/201 259/315/201 
f 246/321/202 262/322/202 268/320/202 260/319/203 
f 269/323/204 181/198/204 180/197/204 218/250/204 
f 218/250/204 270/324/204 269/323/204 
f 211/242/204 181/198/204 269/323/204 
f 271/325/205 172/247/205 173/238/205 207/237/205 
f 207/237/205 272/326/205 271/325/205 
f 213/244/205 172/247/205 271/325/205 
f 207/237/206 209/240/206 272/326/206 
f 211/242/207 269/323/207 210/241/207 
f 218/250/208 217/249/208 270/324/208 
f 213/244/209 271/325/209 216/248/209 
f 273/327/210 274/328/210 209/329/210 210/330/210 
f 275/331/211 273/327/211 210/330/211 269/332/211 
f 270/333/212 276/334/212 275/335/212 269/336/212 
f 276/337/213 270/338/213 217/339/213 277/340/213 
f 277/340/214 217/339/214 216/341/214 278/342/214 
f 278/342/215 216/341/215 271/343/215 279/344/215 
f 272/345/216 280/346/216 279/347/216 271/348/216 
f 274/328/217 280/349/217 272/350/218 209/329/218 
f 281/351/219 188/205/219 189/208/219 232/264/219 
f 232/264/219 282/352/219 281/351/219 
f 226/258/219 188/205/219 281/351/219 
f 283/353/220 160/177/220 163/180/220 223/255/220 
f 223/255/220 284/354/220 283/353/220 
f 228/260/220 160/177/220 283/353/220 
f 223/255/221 224/256/221 284/354/221 
f 226/258/222 281/351/222 225/257/222 
f 232/264/223 231/263/223 282/352/223 
f 228/260/224 283/353/224 230/262/224 
f 285/355/225 224/356/225 225/357/225 286/358/225 
f 286/358/226 225/357/226 281/359/226 287/360/226 
f 282/361/227 288/362/227 287/363/227 281/364/227 
f 289/365/228 288/366/228 282/367/228 231/368/228 
f 290/369/229 289/365/229 231/368/229 230/370/229 
f 291/371/230 290/369/230 230/370/230 283/372/230 
f 284/373/231 292/374/231 291/375/231 283/376/231 
f 292/377/232 284/378/232 224/356/232 285/355/232 
f 293/379/233 294/380/233 17/381/233 295/382/233 
f 294/380/233 296/383/233 297/384/233 17/381/233 
f 17/381/233 297/384/233 18/385/233 
f 24/386/234 298/387/234 299/388/234 300/389/234 
f 298/387/234 24/386/234 23/234/234 301/390/234 
f 23/234/234 206/236/234 301/390/234 
f 299/388/234 298/387/234 302/391/234 
f 303/392/235 304/393/235 24/386/235 300/389/235 
f 305/394/235 24/386/235 304/393/235 306/395/235 
f 24/386/235 305/394/235 25/396/235 
f 307/397/236 308/398/236 26/399/236 309/400/236 
f 310/401/236 26/399/236 308/398/236 311/402/236 
f 26/399/236 310/401/236 27/403/236 
f 312/404/237 313/405/237 15/406/237 314/407/237 
f 315/408/237 15/406/237 313/405/237 316/409/237 
f 15/406/237 315/408/237 16/410/237 
f 177/194/238 17/411/238 16/410/238 315/408/238 
f 17/411/238 177/194/238 176/193/238 295/412/238 
f 184/201/239 19/413/239 18/385/239 297/384/239 
f 19/413/239 184/201/239 183/200/239 317/414/239 
f 318/415/240 319/416/240 19/413/240 317/414/240 
f 319/416/240 320/417/240 200/220/240 19/413/240 
f 19/413/240 200/220/240 20/219/240 
f 193/212/241 26/418/241 25/396/241 305/394/241 
f 26/418/241 193/212/241 192/211/241 309/419/241 
f 194/213/163 15/406/163 27/403/163 310/401/163 
f 15/406/163 194/213/163 197/216/163 314/407/163 
f 148/161/242 318/415/242 317/414/242 143/156/242 
f 320/417/243 145/158/243 147/160/243 200/220/243 
f 136/147/244 315/408/244 316/409/244 133/144/244 
f 314/407/245 138/149/245 137/148/245 312/404/245 
f 114/125/246 293/379/246 295/382/246 115/126/246 
f 296/383/247 110/121/247 113/124/247 297/384/247 
f 174/191/248 315/408/248 136/147/248 140/153/248 
f 315/408/248 174/191/248 177/194/248 
f 115/152/249 295/412/249 175/192/249 139/150/249 
f 175/192/249 295/412/249 176/193/249 
f 305/394/250 125/136/250 190/209/250 193/212/250 
f 190/209/250 125/136/250 150/165/250 
f 191/210/251 132/164/251 309/419/251 192/211/251 
f 132/164/251 191/210/251 149/162/251 
f 130/141/252 310/401/252 311/402/252 127/138/252 
f 309/400/253 132/143/253 131/142/253 307/397/253 
f 310/401/254 130/141/254 195/214/254 194/213/254 
f 195/214/254 130/141/254 151/166/254 
f 196/215/149 138/149/149 314/407/149 197/216/149 
f 138/149/149 196/215/149 152/167/149 
f 303/392/255 300/389/255 321/420/255 119/130/255 
f 303/392/255 119/130/255 126/137/255 
f 125/136/256 305/394/256 306/395/256 123/134/256 
f 206/236/257 122/133/257 121/132/257 301/390/257 
f 322/421/258 299/388/258 120/131/258 116/127/258 
f 302/391/258 120/131/258 299/388/258 
f 322/421/259 321/420/259 300/389/259 299/388/259 
f 185/202/260 297/384/260 113/124/260 144/157/260 
f 297/384/260 185/202/260 184/201/260 
f 183/200/261 141/154/261 143/156/261 317/414/261 
f 182/199/261 141/154/261 183/200/261 
f 119/422/262 323/423/262 324/424/262 116/425/262 
f 321/426/263 325/427/263 323/428/263 119/429/263 
f 322/430/264 326/431/264 325/432/264 321/433/264 
f 116/434/265 324/435/265 326/436/265 322/437/265 
f 139/438/266 327/439/266 328/440/266 140/441/266 
f 175/442/267 329/443/267 327/444/268 139/445/268 
f 174/446/269 330/447/269 329/448/269 175/449/269 
f 140/450/270 328/451/270 330/452/270 174/453/270 
f 149/454/271 331/455/271 332/456/271 150/457/271 
f 191/458/272 333/459/272 331/460/272 149/461/272 
f 190/462/273 334/463/273 333/464/273 191/465/273 
f 150/466/274 332/467/274 334/468/274 190/469/274 
f 152/470/275 335/471/275 336/472/275 151/473/275 
f 196/474/276 337/475/276 335/476/276 152/477/276 
f 195/478/199 338/479/199 337/480/199 196/481/199 
f 151/482/201 336/483/201 338/484/201 195/485/201 
f 141/486/277 339/487/277 340/488/277 144/489/277 
f 182/490/278 341/491/278 339/492/278 141/493/278 
f 185/494/279 342/495/279 341/496/279 182/497/279 
f 144/498/280 340/499/280 342/500/280 185/501/280 
f 110/502/281 343/503/281 344/504/281 114/505/281 
f 296/506/282 345/507/282 343/508/282 110/509/282 
f 294/510/283 346/511/283 345/512/283 296/513/283 
f 293/514/284 347/515/284 346/511/284 294/510/284 
f 114/516/285 344/517/285 347/518/285 293/519/285 
f 120/520/286 348/521/286 349/522/286 121/523/286 
f 302/524/287 350/525/287 348/526/287 120/527/287 
f 298/528/288 351/529/288 350/530/288 302/531/288 
f 301/532/289 352/533/289 351/529/289 298/528/289 
f 121/534/290 349/535/290 352/536/290 301/537/290 
f 123/538/291 353/539/291 354/540/291 126/541/291 
f 306/542/292 355/543/292 353/544/292 123/545/292 
f 304/546/293 356/547/293 355/548/293 306/549/293 
f 303/550/294 357/551/294 356/547/294 304/546/294 
f 126/552/295 354/553/295 357/554/295 303/555/295 
f 127/556/296 358/557/296 359/558/296 131/559/296 
f 311/560/297 360/561/297 358/562/297 127/563/297 
f 308/564/298 361/565/298 360/566/298 311/567/298 
f 307/568/299 362/569/299 361/565/299 308/564/299 
f 131/570/300 359/571/300 362/572/300 307/573/300 
f 133/574/301 363/575/301 364/576/301 137/577/301 
f 316/578/302 365/579/302 363/580/302 133/581/302 
f 313/582/303 366/583/303 365/584/303 316/585/303 
f 312/586/304 367/587/304 366/583/304 313/582/304 
f 137/588/305 364/589/305 367/590/305 312/591/305 
f 145/592/306 368/593/306 369/594/306 148/595/306 
f 320/596/307 370/597/307 368/598/307 145/599/307 
f 319/600/308 371/601/308 370/602/308 320/603/308 
f 318/604/309 372/605/309 371/601/309 319/600/309 
f 148/606/310 369/607/310 372/608/310 318/609/310 
f 254/291/311 159/610/311 205/230/311 255/292/311 
f 205/230/311 159/610/311 158/229/311 
f 373/611/312 374/612/312 205/613/312 204/614/312 
f 203/615/27 375/616/27 373/611/27 204/614/27 
f 375/616/313 203/615/313 155/617/313 376/618/313 
f 376/619/314 155/620/314 157/621/314 377/622/314 
f 255/623/28 378/624/28 377/625/28 157/626/28 
f 374/627/315 378/628/315 255/629/315 205/630/315 
usemtl 48_aken
f 368/631/316 370/632/316 372/633/316 369/634/316 
f 371/635/316 372/633/316 370/632/316 
f 347/636/317 344/637/317 345/638/317 346/639/317 
f 343/640/317 345/638/317 344/637/317 
usemtl 48_aken_ymar
f 280/641/318 273/642/318 278/643/318 279/644/318 
f 280/641/318 274/645/318 273/642/318 
f 273/642/318 275/646/318 276/647/318 278/643/318 
f 277/648/318 278/643/318 276/647/318 
usemtl 48_aken
f 365/649/319 366/650/319 364/651/319 363/652/319 
f 367/653/319 364/651/319 366/650/319 
usemtl 48_aken_ymar
f 268/654/188 264/655/188 266/656/188 267/657/188 
f 268/654/188 262/658/188 261/659/188 264/655/188 
f 261/659/188 263/660/188 264/655/188 
f 265/661/188 266/656/188 264/655/188 
usemtl 50_puit2
f 324/662/320 323/663/320 325/664/320 326/665/320 
f 328/666/321 327/667/321 329/668/321 330/669/321 
f 332/670/322 331/671/322 333/672/322 334/673/322 
f 336/674/163 335/675/163 337/676/163 338/677/163 
f 342/678/323 340/679/323 339/680/323 341/681/323 
usemtl 48_aken
f 361/682/324 359/683/324 358/684/324 360/685/324 
f 362/686/324 359/683/324 361/682/324 
usemtl 48_aken_ymar
f 292/687/325 286/688/325 290/689/325 291/690/325 
f 292/687/325 285/691/325 286/688/325 
f 286/688/325 287/692/325 288/693/325 290/689/325 
f 289/694/325 290/689/325 288/693/325 
usemtl 48_aken
f 355/695/326 357/696/326 354/697/326 353/698/326 
f 356/699/326 357/696/326 355/695/326 
f 352/700/327 349/701/327 350/702/327 351/703/327 
f 348/704/327 350/702/327 349/701/327 
usemtl 48_luuk
f 375/705/328 376/706/328 374/707/328 373/708/328 
f 378/709/328 374/707/328 376/706/328 377/710/328 
usemtl Det_3
f 379/711/329 380/712/329 381/713/329 
f 381/713/330 382/714/330 379/711/330 
f 383/715/331 384/716/331 385/717/331 
f 385/717/331 386/718/331 383/715/331 
f 387/719/332 388/720/332 389/721/332 
f 389/721/332 390/722/332 387/719/332 
f 391/723/333 381/713/333 380/712/333 
f 380/712/333 392/724/333 391/723/333 
f 382/714/334 393/725/334 394/726/334 
f 394/726/334 379/711/334 382/714/334 
f 385/717/335 384/716/335 395/727/335 
f 395/727/335 396/728/335 385/717/335 
f 391/723/336 387/719/336 397/729/336 
f 397/729/336 381/713/336 391/723/336 
f 389/721/337 388/720/337 398/730/337 
f 398/730/337 399/731/337 389/721/337 
f 394/726/338 383/715/338 400/732/338 
f 400/732/338 379/711/338 394/726/338 
f 382/714/339 381/713/339 397/729/339 
f 397/729/339 395/727/339 382/714/339 
f 394/726/331 393/725/331 384/716/331 
f 384/716/331 383/715/331 394/726/331 
f 380/712/340 379/711/340 400/732/340 
f 400/732/340 398/730/340 380/712/340 
f 391/723/332 392/724/332 388/720/332 
f 388/720/332 387/719/332 391/723/332 
f 393/725/336 382/714/336 395/727/336 
f 395/727/336 384/716/336 393/725/336 
f 390/722/335 401/733/335 397/729/335 
f 397/729/335 387/719/335 390/722/335 
f 392/724/338 380/712/338 398/730/338 
f 398/730/338 388/720/338 392/724/338 
f 386/718/337 402/734/337 400/732/337 
f 400/732/337 383/715/337 386/718/337 
s 1
f 400/732/341 395/727/342 397/729/343 
f 397/729/343 398/730/344 400/732/341 
s 2
f 399/731/345 398/730/345 397/729/345 
f 397/729/345 401/733/345 399/731/345 
f 396/728/346 395/727/346 400/732/346 
f 400/732/346 402/734/346 396/728/346 
s off
f 403/735/347 404/736/347 405/737/347 
f 405/737/348 406/738/348 403/735/348 
f 407/739/349 403/735/349 406/738/349 
f 406/738/350 408/740/350 407/739/350 
f 385/741/351 407/739/351 408/740/351 
f 408/740/352 409/742/352 385/741/352 
f 386/743/353 385/741/353 409/742/353 
f 409/742/354 410/744/354 386/743/354 
f 411/745/355 386/743/355 410/744/355 
f 410/744/356 412/746/356 411/745/356 
f 404/736/357 411/745/357 412/746/357 
f 412/746/358 405/737/358 404/736/358 
f 413/747/359 414/748/359 415/749/359 
f 415/749/360 416/750/360 413/747/360 
f 416/750/361 415/749/361 404/736/361 
f 404/736/362 403/735/362 416/750/362 
f 417/751/363 413/747/363 416/750/363 
f 416/750/364 418/752/364 417/751/364 
f 418/752/365 416/750/365 403/735/365 
f 403/735/366 407/739/366 418/752/366 
f 419/753/367 417/751/367 418/752/367 
f 418/752/367 390/754/367 419/753/367 
f 390/754/352 418/752/352 407/739/352 
f 407/739/368 385/741/368 390/754/368 
f 420/755/369 419/753/369 390/754/369 
f 390/754/370 389/756/370 420/755/370 
f 421/757/371 420/755/371 389/756/371 
f 389/756/372 422/758/372 421/757/372 
f 422/758/373 389/756/373 386/743/373 
f 386/743/374 411/745/374 422/758/374 
f 414/748/375 421/757/375 422/758/375 
f 422/758/376 415/749/376 414/748/376 
f 415/749/377 422/758/377 411/745/377 
f 411/745/378 404/736/378 415/749/378 
s 1
f 423/759/28 424/760/379 425/761/380 
f 423/759/28 425/761/380 426/762/381 
f 423/759/28 426/762/381 427/763/382 
f 423/759/28 427/763/382 428/764/383 
f 423/759/28 428/764/383 429/765/384 
f 423/759/28 429/765/384 430/766/385 
f 423/759/28 430/766/385 431/767/386 
f 423/759/28 431/767/386 432/768/387 
f 423/759/28 432/768/387 433/769/388 
f 423/759/28 433/769/388 434/770/389 
f 423/759/28 434/770/389 435/771/390 
f 423/759/28 435/771/390 424/760/379 
f 436/772/391 425/761/380 424/760/379 
f 424/760/379 437/773/392 436/772/391 
f 438/774/393 426/762/381 425/761/380 
f 425/761/380 436/772/391 438/774/393 
f 439/775/394 427/763/382 426/762/381 
f 426/762/381 438/774/393 439/775/394 
f 440/776/395 428/764/383 427/763/382 
f 427/763/382 439/775/394 440/776/395 
f 441/777/396 429/765/384 428/764/383 
f 428/764/383 440/776/395 441/777/396 
f 442/778/397 430/766/385 429/765/384 
f 429/765/384 441/777/396 442/778/397 
f 443/779/398 431/767/386 430/766/385 
f 430/766/385 442/778/397 443/779/398 
f 444/780/399 432/768/387 431/767/386 
f 431/767/386 443/779/398 444/780/399 
f 445/781/400 433/769/388 432/768/387 
f 432/768/387 444/780/399 445/781/400 
f 446/782/401 434/770/389 433/769/388 
f 433/769/388 445/781/400 446/782/401 
f 447/783/402 435/771/390 434/770/389 
f 434/770/389 446/782/401 447/783/402 
f 437/773/392 424/760/379 435/771/390 
f 435/771/390 447/783/402 437/773/392 
f 448/784/403 436/772/391 437/773/392 
f 437/773/392 449/785/404 448/784/403 
f 450/786/405 438/774/393 436/772/391 
f 436/772/391 448/784/403 450/786/405 
f 451/787/406 439/775/394 438/774/393 
f 438/774/393 450/786/405 451/787/406 
f 452/788/407 440/776/395 439/775/394 
f 439/775/394 451/787/406 452/788/407 
f 453/789/408 441/777/396 440/776/395 
f 440/776/395 452/788/407 453/789/408 
f 454/790/409 442/778/397 441/777/396 
f 441/777/396 453/789/408 454/790/409 
f 455/791/410 443/779/398 442/778/397 
f 442/778/397 454/790/409 455/791/410 
f 456/792/411 444/780/399 443/779/398 
f 443/779/398 455/791/410 456/792/411 
f 457/793/412 445/781/400 444/780/399 
f 444/780/399 456/792/411 457/793/412 
f 458/794/413 446/782/401 445/781/400 
f 445/781/400 457/793/412 458/794/413 
f 459/795/414 447/783/402 446/782/401 
f 446/782/401 458/794/413 459/795/414 
f 449/785/404 437/773/392 447/783/402 
f 447/783/402 459/795/414 449/785/404 
f 460/796/415 448/784/403 449/785/404 
f 449/785/404 461/797/416 460/796/415 
f 462/798/417 450/786/405 448/784/403 
f 448/784/403 460/796/415 462/798/417 
f 463/799/418 451/787/406 450/786/405 
f 450/786/405 462/798/417 463/799/418 
f 464/800/419 452/788/407 451/787/406 
f 451/787/406 463/799/418 464/800/419 
f 465/801/420 453/789/408 452/788/407 
f 452/788/407 464/800/419 465/801/420 
f 466/802/421 454/790/409 453/789/408 
f 453/789/408 465/801/420 466/802/421 
f 467/803/422 455/791/410 454/790/409 
f 454/790/409 466/802/421 467/803/422 
f 468/804/423 456/792/411 455/791/410 
f 455/791/410 467/803/422 468/804/423 
f 469/805/424 457/793/412 456/792/411 
f 456/792/411 468/804/423 469/805/424 
f 470/806/425 458/794/413 457/793/412 
f 457/793/412 469/805/424 470/806/425 
f 471/807/426 459/795/414 458/794/413 
f 458/794/413 470/806/425 471/807/426 
f 461/797/416 449/785/404 459/795/414 
f 459/795/414 471/807/426 461/797/416 
f 472/808/427 460/796/415 461/797/416 
f 461/797/416 473/809/428 472/808/427 
f 474/810/429 462/798/417 460/796/415 
f 460/796/415 472/808/427 474/810/429 
f 475/811/430 463/799/418 462/798/417 
f 462/798/417 474/810/429 475/811/430 
f 476/812/431 464/800/419 463/799/418 
f 463/799/418 475/811/430 476/812/431 
f 477/813/432 465/801/420 464/800/419 
f 464/800/419 476/812/431 477/813/432 
f 478/814/433 466/802/421 465/801/420 
f 465/801/420 477/813/432 478/814/433 
f 479/815/434 467/803/422 466/802/421 
f 466/802/421 478/814/433 479/815/434 
f 480/816/435 468/804/423 467/803/422 
f 467/803/422 479/815/434 480/816/435 
f 481/817/436 469/805/424 468/804/423 
f 468/804/423 480/816/435 481/817/436 
f 482/818/437 470/806/425 469/805/424 
f 469/805/424 481/817/436 482/818/437 
f 483/819/438 471/807/426 470/806/425 
f 470/806/425 482/818/437 483/819/438 
f 473/809/428 461/797/416 471/807/426 
f 471/807/426 483/819/438 473/809/428 
f 484/820/27 472/808/427 473/809/428 
f 484/820/27 474/810/429 472/808/427 
f 484/820/27 475/811/430 474/810/429 
f 484/820/27 476/812/431 475/811/430 
f 484/820/27 477/813/432 476/812/431 
f 484/820/27 478/814/433 477/813/432 
f 484/820/27 479/815/434 478/814/433 
f 484/820/27 480/816/435 479/815/434 
f 484/820/27 481/817/436 480/816/435 
f 484/820/27 482/818/437 481/817/436 
f 484/820/27 483/819/438 482/818/437 
f 484/820/27 473/809/428 483/819/438 
f 389/756/439 390/754/440 385/741/441 
f 385/741/441 386/743/442 389/756/439 
s off
f 485/821/443 486/822/443 487/823/443 
f 487/823/444 488/824/444 485/821/444 
f 489/825/445 485/821/445 488/824/445 
f 488/824/446 490/826/446 489/825/446 
f 491/827/447 489/825/447 490/826/447 
f 490/826/448 492/828/448 491/827/448 
f 493/829/449 491/827/449 492/828/449 
f 492/828/450 494/830/450 493/829/450 
f 495/831/451 493/829/451 494/830/451 
f 494/830/452 496/832/452 495/831/452 
f 486/822/453 495/831/453 496/832/453 
f 496/832/454 487/823/454 486/822/454 
f 414/748/455 413/747/455 488/824/455 
f 488/824/456 487/823/456 414/748/456 
f 413/747/457 417/751/457 490/826/457 
f 490/826/458 488/824/458 413/747/458 
f 417/751/459 419/753/459 492/828/459 
f 492/828/460 490/826/460 417/751/460 
f 419/753/461 420/755/461 494/830/461 
f 494/830/462 492/828/462 419/753/462 
f 420/755/463 421/757/463 496/832/463 
f 496/832/464 494/830/464 420/755/464 
f 421/757/465 414/748/465 487/823/465 
f 487/823/466 496/832/466 421/757/466 
f 497/833/467 498/834/467 499/835/467 
f 499/835/468 500/836/468 497/833/468 
f 486/822/469 485/821/469 500/836/469 
f 500/836/470 499/835/470 486/822/470 
f 485/821/471 489/825/471 497/833/471 
f 497/833/472 500/836/472 485/821/472 
f 489/825/473 491/827/473 498/834/473 
f 498/834/474 497/833/474 489/825/474 
f 491/827/475 493/829/475 498/834/475 
f 493/829/476 495/831/476 499/835/476 
f 499/835/477 498/834/477 493/829/477 
f 495/831/478 486/822/478 499/835/478 
usemtl paekivi
f 501/837/479 502/838/479 503/839/479 504/840/479 
f 505/841/480 506/842/480 507/843/480 508/844/480 
f 506/842/481 509/845/481 510/846/481 507/843/481 
f 511/847/482 512/848/482 513/849/482 514/850/482 
f 515/851/483 516/852/483 517/853/483 518/854/483 
f 516/852/484 501/855/484 504/856/484 517/853/484 
f 502/838/485 519/857/485 520/858/485 503/839/485 
f 519/857/486 521/859/486 522/860/486 520/858/486 
f 509/845/487 511/861/487 514/862/487 510/846/487 
f 512/848/488 515/851/488 518/854/488 513/849/488 
f 521/859/489 523/863/489 524/864/489 522/860/489 
f 525/865/490 505/841/490 508/844/490 526/866/490 
f 215/867/491 214/868/491 502/869/491 501/870/491 
f 214/868/492 242/871/492 519/872/492 502/869/492 
f 242/871/493 244/873/493 521/874/493 519/872/493 
f 523/875/494 521/874/494 244/873/494 156/876/494 
f 156/877/495 153/878/495 524/879/495 523/880/495 
f 524/881/496 153/882/496 146/883/496 522/884/496 
f 146/883/497 142/885/497 520/886/497 522/884/497 
f 142/885/498 112/887/498 503/888/498 520/886/498 
f 112/887/499 111/889/499 504/890/499 503/888/499 
f 111/889/500 135/891/500 517/892/500 504/890/500 
f 135/891/501 134/893/501 518/894/501 517/892/501 
f 134/893/502 129/895/502 513/896/502 518/894/502 
f 129/895/503 128/897/503 514/898/503 513/896/503 
f 128/897/504 124/899/504 510/900/504 514/898/504 
f 124/899/505 118/901/505 507/902/505 510/900/505 
f 118/901/506 117/903/506 508/904/506 507/902/506 
f 526/905/507 508/904/507 117/903/507 159/906/507 
f 159/907/508 254/908/508 525/909/508 526/910/508 
f 525/911/509 254/912/509 222/913/509 505/914/509 
f 222/913/510 221/915/510 506/916/510 505/914/510 
f 221/915/511 229/917/511 509/918/511 506/916/511 
f 229/917/512 235/919/512 511/920/512 509/918/512 
f 235/919/513 236/921/513 512/922/513 511/920/513 
f 236/921/514 240/923/514 515/924/514 512/922/514 
f 240/923/515 239/925/515 516/926/515 515/924/515 
f 239/925/516 215/867/516 501/870/516 516/926/516 
# 348 polygons - 335 triangles

#
# object xxx
#

v  542544.4584 6589091.1478 5.0894
v  542544.1508 6589082.7355 5.0894
v  542544.0155 6589082.7355 17.1971
v  542544.3303 6589091.1478 17.1971
# 4 vertices

vn -0.9993 0.0369 -0.0109
vn -0.9993 0.0365 -0.0112
vn -0.9993 0.0371 -0.0108
vn -0.9992 0.0374 -0.0106
# 4 vertex normals

vt 0.0005 0.0063 0.9995
vt 0.9981 0.0005 0.8156
vt 0.9995 0.9938 0.0005
vt 0.0018 0.9995 0.1813
# 4 texture coords

g xxx
usemtl xxx
s 1
f 527/927/517 528/928/518 529/929/519 530/930/520 
# 1 polygons

