# 3ds Max Wavefront OBJ Exporter v0.97b - (c)2007 guruware
# File Created: 15.03.2012 17:08:43

mtllib Ryytli_30.mtl

#
# object Ryytli_30
#

v  -169.6438 -302.4467 27.3727
v  -168.1004 -307.2181 27.3158
v  -168.1015 -307.2183 27.2738
v  -169.6425 -302.4648 27.3375
v  -179.5489 -303.1263 27.2647
v  -179.5798 -303.0787 27.2665
v  -169.5274 -301.9366 27.3526
v  -169.4131 -302.4405 27.3300
v  -169.7267 -302.4777 27.3335
v  -168.1404 -307.2198 32.6099
v  -168.1461 -307.2290 32.1584
v  -167.8993 -307.1840 32.1646
v  -167.8746 -307.1930 32.6104
v  -168.1902 -307.2415 27.2794
v  -168.0094 -307.1912 27.3324
v  -169.5562 -302.4192 27.3896
v  -169.5612 -302.4214 27.4661
v  -168.0090 -307.1912 27.4098
v  -168.1950 -307.2221 27.4529
v  -168.0088 -307.1912 27.4524
v  -169.5639 -302.4226 27.5082
v  -169.7304 -302.4730 27.5082
v  -168.1903 -307.2361 27.4527
v  -169.3976 -302.4494 27.4856
v  -169.6524 -302.4771 27.4847
v  -169.5277 -301.8576 27.4953
v  -179.5780 -303.0468 27.3892
v  -175.9816 -303.1224 24.5275
v  -175.9834 -303.1273 24.3673
v  -179.2478 -303.4615 24.3955
v  -179.2519 -303.4524 24.5625
v  -175.9772 -303.1912 24.3297
v  -179.2454 -303.5219 24.3646
v  -179.2454 -303.5151 24.5645
v  -175.9751 -303.1851 24.5296
v  -175.9755 -303.1863 24.4885
v  -168.5669 -306.3371 29.6249
v  -168.5709 -306.3574 28.5932
v  -168.8368 -305.4925 28.5772
v  -168.8327 -305.4722 29.6089
v  -168.4557 -306.3033 29.6238
v  -168.4597 -306.3236 28.5921
v  -168.7216 -305.4384 29.6078
v  -168.7256 -305.4587 28.5761
v  -168.7567 -305.5032 26.8036
v  -169.2052 -304.1028 26.8039
v  -169.3229 -304.1387 25.1265
v  -169.3423 -304.1449 26.8022
v  -168.9107 -305.5508 26.8019
v  -168.8914 -305.5445 25.1263
v  -168.8762 -305.5396 23.9078
v  -168.8571 -305.5334 22.2320
v  -169.2912 -304.1284 22.2323
v  -169.3096 -304.1344 23.9081
v  -169.2023 -304.1017 25.1282
v  -169.6837 -302.5698 20.3493
v  -169.1973 -304.0999 22.2338
v  -168.7488 -305.5002 22.2337
v  -168.1931 -307.2249 20.5615
v  -168.7518 -305.5013 23.9094
v  -169.2002 -304.1010 23.9096
v  -168.7538 -305.5022 25.1279
v  -169.6924 -302.5510 21.7716
v  -169.6930 -302.5497 21.8697
v  -169.7092 -302.5152 24.4891
v  -175.9450 -303.0986 27.3316
v  -179.2454 -303.4202 27.3316
v  -174.5960 -303.2210 21.4700
v  -174.6041 -303.1438 24.4266
v  -173.6729 -303.0461 24.4266
v  -173.6649 -303.1233 21.4700
v  -173.6832 -302.9488 24.4240
v  -173.6751 -303.0260 21.4674
v  -174.6062 -303.1237 21.4674
v  -174.6143 -303.0465 24.4240
v  -174.9035 -303.0748 24.4885
v  -174.9093 -303.1144 23.0620
v  -176.0183 -303.3090 20.5106
v  -173.5999 -302.8655 27.1943
v  -174.7979 -302.9873 27.1942
v  -174.7798 -303.1645 25.5902
v  -174.7843 -303.1206 27.1979
v  -173.5863 -302.9988 27.1980
v  -173.5818 -303.0427 25.5902
v  -177.1898 -303.3615 27.1981
v  -175.9330 -303.2366 27.1856
v  -175.9480 -303.2863 25.5907
v  -177.1846 -303.4124 25.5906
v  -173.5953 -302.9094 25.5866
v  -175.9464 -303.1033 27.1815
v  -177.1980 -303.2791 25.5865
v  -178.2891 -303.3911 25.5864
v  -178.2946 -303.3379 27.1939
v  -177.2033 -303.2281 27.1940
v  -178.7199 -303.5542 22.0136
v  -179.2454 -303.6512 20.5928
v  -178.7267 -303.4885 24.0929
v  -178.7003 -303.7373 22.0194
v  -178.7071 -303.6715 24.0987
v  -176.3840 -303.4231 24.0985
v  -176.3772 -303.4889 22.0192
v  -179.1613 -303.4163 27.1920
v  -179.2454 -303.4250 27.1921
v  -176.3968 -303.3058 22.0134
v  -176.4036 -303.2401 24.0927
v  -175.9614 -303.1530 25.5865
v  -174.7934 -303.0312 25.5865
v  -179.2454 -303.4802 25.5823
v  -179.1597 -303.4709 25.5823
v  -179.1485 -303.6095 25.5867
v  -179.1485 -303.5549 27.1965
v  -178.2808 -303.4744 27.1985
v  -178.2752 -303.5284 25.5911
v  -173.4317 -302.8882 23.2358
v  -173.4313 -302.8927 23.0666
v  -173.4937 -302.8989 23.0664
v  -173.4942 -302.8944 23.2356
v  -173.4217 -302.9573 23.0536
v  -173.4944 -302.9650 23.0536
v  -173.4944 -302.9286 24.4463
v  -173.4973 -302.8622 24.4544
v  -173.4967 -302.8687 24.2121
v  -173.4966 -302.8698 24.1722
v  -173.4944 -302.8914 23.3484
v  -173.4320 -302.8853 23.3486
v  -173.4341 -302.8636 24.1724
v  -173.4342 -302.8625 24.2124
v  -173.4348 -302.8560 24.4546
v  -173.4327 -302.8760 24.4918
v  -173.4217 -302.9201 24.4885
v  -173.5872 -301.8615 24.1834
v  -173.5457 -301.8562 24.1836
v  -173.5456 -301.8582 24.1509
v  -173.5871 -301.8635 24.1506
v  -173.5549 -301.6953 24.4432
v  -173.5533 -301.7083 24.4140
v  -173.5549 -301.6617 24.4071
v  -173.5566 -301.6481 24.4426
v  -173.6096 -301.6669 24.4075
v  -173.6113 -301.6532 24.4436
v  -173.6048 -301.7473 24.3031
v  -173.6051 -301.7032 24.2809
v  -173.5992 -301.7530 24.2039
v  -173.5996 -301.7918 24.2343
v  -173.5437 -301.7871 24.2375
v  -173.5488 -301.7431 24.3056
v  -173.5447 -301.7473 24.2059
v  -173.5504 -301.6979 24.2821
v  -173.5944 -301.8062 24.1576
v  -173.5960 -301.8310 24.2002
v  -173.5402 -301.8256 24.2039
v  -173.5399 -301.7997 24.1602
v  -173.5800 -302.0095 24.0905
v  -173.5824 -302.0246 24.1363
v  -173.5266 -302.0195 24.1400
v  -173.5257 -302.0033 24.0930
v  -173.5626 -302.2536 24.0036
v  -173.5646 -302.2744 24.0475
v  -173.5089 -302.2700 24.0509
v  -173.5083 -302.2481 24.0058
v  -173.5464 -302.4546 23.8850
v  -173.5474 -302.4869 23.9222
v  -173.4917 -302.4831 23.9252
v  -173.4920 -302.4496 23.8868
v  -173.5280 -302.6315 23.6824
v  -173.5282 -302.6720 23.7101
v  -173.4724 -302.6687 23.7126
v  -173.4736 -302.6271 23.6837
v  -173.5103 -302.7726 23.4482
v  -173.5101 -302.8161 23.4705
v  -173.4544 -302.8130 23.4726
v  -173.4560 -302.7684 23.4490
v  -173.6109 -301.6993 24.4429
v  -173.6093 -301.7124 24.4131
v  -173.4952 -302.8822 24.4916
v  -174.8480 -303.0389 23.0664
v  -174.9069 -303.0452 23.0666
v  -174.9075 -303.0397 23.2766
v  -174.8486 -303.0334 23.2765
v  -174.8458 -303.1075 23.0620
v  -174.8488 -303.0315 23.3484
v  -174.8512 -303.0099 24.1722
v  -174.8513 -303.0088 24.2121
v  -174.8520 -303.0023 24.4544
v  -174.8458 -303.0700 24.4463
v  -174.8499 -303.0223 24.4916
v  -174.9089 -303.0286 24.4917
v  -174.9109 -303.0087 24.4546
v  -174.9102 -303.0151 24.2123
v  -174.9101 -303.0162 24.1723
v  -174.9077 -303.0378 23.3485
v  -175.0070 -302.0072 24.1835
v  -174.9726 -302.0018 24.1834
v  -174.9723 -302.0038 24.1506
v  -175.0067 -302.0092 24.1508
v  -175.0309 -301.8479 24.4432
v  -175.0389 -301.8014 24.4426
v  -175.0377 -301.8150 24.4071
v  -175.0299 -301.8610 24.4139
v  -174.9878 -301.7956 24.4436
v  -174.9867 -301.8093 24.4075
v  -174.9792 -301.8957 24.2039
v  -174.9837 -301.8458 24.2809
v  -174.9749 -301.8889 24.3031
v  -174.9709 -301.9336 24.2343
v  -175.0231 -301.9401 24.2374
v  -175.0271 -301.8959 24.3056
v  -175.0348 -301.8514 24.2821
v  -175.0303 -301.9008 24.2059
v  -174.9664 -301.9727 24.2002
v  -174.9731 -301.9487 24.1576
v  -175.0187 -301.9784 24.2039
v  -175.0242 -301.9531 24.1601
v  -174.9455 -302.1507 24.0905
v  -174.9401 -302.1650 24.1363
v  -174.9922 -302.1710 24.1399
v  -174.9965 -302.1553 24.0929
v  -174.9126 -302.3932 24.0036
v  -174.9064 -302.4131 24.0475
v  -174.9584 -302.4198 24.0509
v  -174.9634 -302.3986 24.0057
v  -174.8874 -302.5933 23.8850
v  -174.8798 -302.6247 23.9222
v  -174.9316 -302.6320 23.9251
v  -174.9381 -302.5992 23.8868
v  -174.8607 -302.8098 23.7101
v  -174.8692 -302.7702 23.6824
v  -174.9124 -302.8175 23.7126
v  -174.9198 -302.7766 23.6836
v  -174.8489 -302.9546 23.4705
v  -174.8576 -302.9119 23.4482
v  -174.9006 -302.9625 23.4725
v  -174.9081 -302.9185 23.4490
v  -174.9788 -301.8408 24.4429
v  -174.9777 -301.8539 24.4131
v  -174.9137 -302.6261 21.2793
v  -173.4879 -302.4759 21.2781
v  -173.4855 -302.4985 20.4454
v  -174.9113 -302.6482 20.4441
v  -174.8806 -302.9356 21.2857
v  -174.8557 -303.1833 20.4803
v  -173.4604 -302.7757 21.2851
v  -174.8812 -302.9299 21.4253
v  -174.8557 -303.1528 21.4327
v  -173.4404 -303.0072 21.4308
v  -173.4612 -302.7684 21.4235
v  -172.7695 -302.3874 21.7644
v  -172.7658 -302.4225 20.4427
v  -172.6770 -302.9084 21.8716
v  -172.7305 -302.3560 21.8573
v  -173.5340 -302.4408 21.8600
v  -173.4944 -302.9959 21.8716
v  -172.7217 -302.9169 21.7752
v  -173.4892 -302.4634 21.7672
v  -173.4405 -302.9934 21.7766
v  -172.7226 -302.9526 20.4247
v  -175.4217 -307.4853 34.7260
v  -175.4534 -307.1787 34.7199
v  -175.8451 -307.2198 34.7189
v  -175.8134 -307.5265 34.7250
v  -175.9249 -307.1564 34.7173
v  -175.3882 -307.1000 34.7187
v  -175.3736 -307.0987 30.9962
v  -175.9102 -307.1550 30.9949
v  -175.8175 -308.0708 31.0127
v  -175.8322 -308.0538 34.7351
v  -175.8785 -307.6051 34.7262
v  -175.2956 -307.9975 34.7365
v  -175.2809 -308.0145 31.0141
v  -175.3419 -307.5488 34.7276
v  -175.4071 -307.6274 34.7288
v  -175.7988 -307.6685 34.7278
v  -175.7670 -307.9752 34.7339
v  -175.3754 -307.9341 34.7349
v  -180.2461 -306.3163 29.7677
v  -180.2021 -306.2654 27.2733
v  -179.8386 -308.7822 27.2434
v  -179.9343 -308.7968 31.9956
v  -179.1102 -305.3610 27.3077
v  -180.1991 -306.2530 26.1961
v  -180.1991 -306.2529 26.1080
v  -179.8386 -308.7827 27.0140
v  -179.8401 -308.7976 20.5676
v  -180.2001 -306.2534 23.6393
v  -180.2017 -306.2534 23.0278
v  -180.2020 -306.2534 22.9067
v  -179.1153 -305.3610 20.5926
v  -179.1090 -305.3610 23.0001
v  -178.9064 -308.6507 32.5887
v  -179.9475 -308.7891 32.5866
v  -179.1071 -305.3610 23.7515
v  -179.1061 -305.3610 26.1182
v  -174.8810 -303.3470 24.4583
v  -174.8389 -303.3353 24.6972
v  -174.9763 -301.7617 24.6548
v  -175.0184 -301.7735 24.4159
v  -174.7148 -303.3159 24.9346
v  -174.8522 -301.7423 24.8922
v  -174.5238 -303.2912 25.1111
v  -174.6613 -301.7176 25.0688
v  -174.2889 -303.2642 25.2052
v  -174.4263 -301.6906 25.1628
v  -174.0383 -303.2382 25.2052
v  -174.1757 -301.6646 25.1628
v  -173.8028 -303.2163 25.1111
v  -173.9402 -301.6427 25.0688
v  -173.6108 -303.2012 24.9346
v  -173.7482 -301.6277 24.8922
v  -173.4854 -303.1948 24.6972
v  -173.6228 -301.6212 24.6548
v  -173.4417 -303.1976 24.4583
v  -173.5791 -301.6240 24.4159
v  -174.9532 -301.7658 24.4140
v  -174.9144 -301.7550 24.6663
v  -174.8014 -301.7373 24.8825
v  -174.6278 -301.7148 25.0429
v  -174.4145 -301.6903 25.1283
v  -174.1873 -301.6667 25.1283
v  -173.9735 -301.6469 25.0429
v  -173.7990 -301.6331 24.8825
v  -173.6848 -301.6273 24.6663
v  -173.6446 -301.6299 24.4140
v  -173.4884 -302.4714 21.4659
v  -172.7226 -302.8472 24.4885
v  -180.2812 -306.1218 30.1125
v  -180.2549 -306.2718 29.8581
v  -179.1061 -305.3610 26.2026
v  -179.2512 -305.5070 29.6785
v  -179.1087 -305.3610 23.1243
v  -180.2081 -306.2534 20.5594
# 330 vertices

vn 0.9435 0.3075 -0.1231
vn 0.9513 0.3079 -0.0144
vn 0.9513 0.3079 -0.0149
vn 0.9435 0.3075 -0.1239
vn 0.0041 0.0344 -0.9994
vn 0.1288 -0.9917 0.0033
vn 0.1472 -0.9890 0.0113
vn 0.1528 -0.9883 0.0032
vn 0.1003 -0.9946 -0.0257
vn 0.1267 0.0519 -0.9906
vn 0.1255 0.0515 -0.9907
vn -0.0168 0.0078 -0.9998
vn -0.0160 0.0081 -0.9998
vn 0.9510 0.3090 -0.0142
vn 0.9493 0.3063 0.0710
vn 0.9491 0.3068 0.0707
vn 0.9508 0.3093 -0.0148
vn -0.0073 -0.0141 0.9999
vn -0.0030 -0.0128 0.9999
vn 0.0034 -0.0103 0.9999
vn 0.0033 -0.0104 0.9999
vn 0.0783 -0.9953 0.0576
vn 0.0897 -0.9958 0.0177
vn 0.0704 -0.9975 0.0016
vn 0.1693 0.0663 -0.9833
vn 0.1708 0.0668 -0.9830
vn -0.3961 0.9124 0.1029
vn -0.2976 0.9547 0.0029
vn -0.3010 0.9536 0.0076
vn 0.9709 0.2240 -0.0842
vn 0.9698 0.2164 -0.1125
vn 0.9716 0.2181 -0.0920
vn 0.0784 -0.6864 -0.7230
vn 0.1412 -0.6729 -0.7261
vn 0.1397 -0.6733 -0.7261
vn 0.0770 -0.6866 -0.7229
vn 0.0283 -0.9968 -0.0750
vn 0.0568 -0.9955 -0.0761
vn 0.0912 -0.9936 -0.0663
vn 0.0966 -0.9924 -0.0768
vn -0.0668 -0.9967 -0.0457
vn -0.2918 -0.0832 -0.9529
vn 0.0926 -0.9945 0.0485
vn 0.1031 -0.9934 0.0506
vn 0.0455 -0.9988 0.0173
vn 0.9490 0.3074 0.0706
vn 0.9507 0.3096 -0.0150
vn 0.1336 -0.9910 0.0006
vn -0.2946 0.9555 -0.0131
vn -0.2896 0.9571 0.0085
vn -0.3102 0.9507 -0.0010
vn -0.0084 -0.0147 0.9999
vn 0.9663 0.2528 -0.0486
vn 0.9665 0.2519 -0.0497
vn 0.9699 0.2325 -0.0730
vn 0.9696 0.2151 -0.1171
vn -0.1028 0.9181 -0.3828
vn -0.1020 0.9943 -0.0304
vn -0.1020 0.9943 -0.0296
vn -0.1009 0.9933 -0.0558
vn -0.1008 0.9933 -0.0566
vn -0.0554 0.4535 -0.8895
vn -0.0589 0.5027 -0.8624
vn -0.0589 0.5021 -0.8628
vn -0.0553 0.4528 -0.8899
vn -0.9931 -0.1172 0.0040
vn -0.9960 -0.0896 -0.0013
vn -0.9993 -0.0280 -0.0231
vn -0.9944 -0.1053 -0.0007
vn 0.0074 0.0328 0.9994
vn 0.9946 0.1030 -0.0139
vn 0.9946 0.1031 -0.0139
vn 0.0282 0.8891 -0.4568
vn 0.9559 0.2937 -0.0095
vn 0.9517 0.3039 -0.0442
vn 0.9517 0.3038 -0.0443
vn 0.9517 0.3039 -0.0443
vn 0.9517 0.3038 -0.0441
vn 0.9557 0.2924 -0.0340
vn 0.9552 0.2939 -0.0344
vn 0.9551 0.2942 -0.0341
vn 0.9552 0.2939 -0.0343
vn 0.9553 0.2937 -0.0346
vn 0.9517 0.3038 -0.0442
vn -0.2934 0.9560 -0.0001
vn -0.2944 0.9557 0.0001
vn -0.2933 0.9560 -0.0001
vn 0.0319 0.0096 0.9994
vn 0.0330 0.0101 0.9994
vn 0.0318 0.0096 0.9994
vn 0.2932 -0.9561 0.0001
vn 0.2918 -0.9565 0.0000
vn 0.2933 -0.9560 0.0001
vn -0.0340 -0.0103 -0.9994
vn -0.0330 -0.0101 -0.9994
vn -0.0331 -0.0101 -0.9994
vn -0.0341 -0.0103 -0.9994
vn -0.2922 0.9564 -0.0001
vn -0.2937 0.9559 0.0000
vn -0.2936 0.9559 0.0000
vn -0.2921 0.9564 -0.0001
vn 0.0294 0.0088 0.9995
vn 0.0310 0.0095 0.9995
vn 0.0309 0.0094 0.9995
vn 0.0293 0.0088 0.9995
vn 0.2922 -0.9564 0.0001
vn 0.2903 -0.9569 0.0001
vn 0.2904 -0.9569 0.0001
vn 0.2922 -0.9563 0.0001
vn -0.0324 -0.0098 -0.9994
vn -0.0311 -0.0095 -0.9995
vn -0.0312 -0.0095 -0.9995
vn -0.0325 -0.0098 -0.9994
vn -0.2912 0.9565 -0.0177
vn 0.0039 0.0198 0.9998
vn 0.0040 0.0198 0.9998
vn 0.2912 -0.9565 0.0177
vn -0.0039 -0.0197 -0.9998
vn 0.0197 -0.1971 -0.9802
vn -0.1043 0.9942 -0.0262
vn -0.9945 -0.1044 0.0000
vn -0.0027 0.0260 0.9997
vn 0.9945 0.1044 0.0000
vn 0.0027 -0.0260 -0.9997
vn -0.1032 0.9943 -0.0280
vn -0.1069 0.9939 -0.0281
vn -0.1041 0.9941 -0.0293
vn -0.1041 0.9941 -0.0288
vn -0.1078 0.9937 -0.0294
vn -0.0995 0.9946 -0.0309
vn -0.1022 0.9945 -0.0241
vn -0.1007 0.9945 -0.0293
vn -0.1007 0.9943 -0.0345
vn -0.1011 0.9945 -0.0274
vn -0.1000 0.9945 -0.0308
vn -0.0991 0.9946 -0.0300
vn -0.1004 0.9945 -0.0311
vn -0.1014 0.9943 -0.0318
vn -0.1025 0.9944 -0.0264
vn -0.1003 0.9945 -0.0295
vn -0.1011 0.9944 -0.0294
vn -0.1026 0.9943 -0.0290
vn -0.0973 0.9948 -0.0309
vn -0.1002 0.9945 -0.0296
vn -0.0997 0.9924 -0.0723
vn -0.0980 0.9942 -0.0440
vn -0.0971 0.9948 -0.0317
vn -0.1029 0.9942 -0.0299
vn -0.0897 0.9950 -0.0437
vn -0.0951 0.9937 -0.0591
vn -0.1063 0.9938 -0.0318
vn -0.0954 0.9949 -0.0332
vn -0.0973 0.9948 -0.0305
vn -0.1032 0.9941 -0.0341
vn -0.1072 0.9938 -0.0293
vn -0.0990 0.9947 -0.0282
vn -0.1029 0.9943 -0.0293
vn -0.1023 0.9943 -0.0291
vn -0.1071 0.9937 -0.0340
vn -0.1015 0.9942 -0.0345
vn -0.0922 0.9952 -0.0337
vn -0.9949 -0.1011 -0.0001
vn -0.0028 0.0273 0.9996
vn 0.9949 0.1011 0.0001
vn 0.0028 -0.0273 -0.9996
vn -0.0032 0.0308 0.9995
vn 0.9950 0.1003 0.0001
vn -0.0068 -0.0318 -0.9995
vn -0.9949 -0.0999 0.0124
vn -0.9949 -0.1004 -0.0001
vn -0.9949 -0.1005 -0.0001
vn 0.0052 -0.0332 -0.9994
vn 0.0053 -0.0319 -0.9995
vn 0.0053 -0.0320 -0.9995
vn 0.0052 -0.0333 -0.9994
vn -0.9943 -0.1063 0.0001
vn -0.0033 0.0316 0.9995
vn 0.9943 0.1063 -0.0001
vn 0.0033 -0.0316 -0.9995
vn -0.0986 0.9948 -0.0264
vn -0.0181 0.1930 -0.9810
vn -0.0202 0.1905 -0.9815
vn -0.0182 0.1929 -0.9810
vn -0.0159 0.1956 -0.9805
vn -0.9991 -0.0413 -0.0014
vn -0.9991 -0.0428 -0.0015
vn -0.9983 -0.0585 -0.0011
vn -0.9983 -0.0583 -0.0010
vn -0.9968 -0.0794 -0.0056
vn -0.9985 -0.0551 -0.0011
vn -1.0000 0.0093 -0.0003
vn -0.9999 0.0107 -0.0003
vn 0.9889 0.1487 -0.0014
vn 0.9892 0.1469 -0.0013
vn 0.9878 0.1558 0.0024
vn 0.9756 0.2194 -0.0033
vn 0.9908 0.1351 -0.0010
vn 0.9909 0.1347 -0.0010
vn 0.9945 0.1051 0.0007
vn 0.9853 0.1710 -0.0028
vn 0.9698 0.2440 -0.0063
vn -0.0986 0.9948 -0.0267
vn -0.1268 0.9901 -0.0602
vn -0.1268 0.9901 -0.0603
vn 0.0080 -0.0205 -0.9998
vn 0.0081 -0.0205 -0.9998
vn 0.0057 -0.0208 -0.9998
vn 0.0057 -0.0209 -0.9998
vn -0.9960 -0.0896 0.0027
vn -0.9960 -0.0896 0.0028
vn -0.0089 0.0278 0.9996
vn -0.0090 0.0277 0.9996
vn -0.0064 0.0279 0.9996
vn 0.9939 0.1101 -0.0039
vn 0.9939 0.1100 -0.0040
vn 0.9976 0.0639 0.0263
vn 0.9976 0.0657 0.0234
vn 0.9987 0.0406 0.0311
vn 0.9987 0.0373 0.0333
vn -0.0909 0.9289 -0.3589
vn -0.0901 0.9434 -0.3192
vn -0.0933 0.9390 -0.3311
vn -0.0945 0.9295 -0.3565
vn -0.9988 -0.0260 -0.0425
vn -0.9987 -0.0272 -0.0424
vn -0.9977 -0.0357 -0.0574
vn -0.9977 -0.0359 -0.0577
vn 0.0256 -0.7564 0.6536
vn 0.0497 -0.9029 0.4270
vn 0.0486 -0.9017 0.4296
vn 0.0253 -0.7526 0.6579
vn 0.9982 0.0509 0.0312
vn 0.9976 0.0562 0.0394
vn 0.9982 0.0518 0.0311
vn -0.0785 0.9050 -0.4180
vn -0.0779 0.9059 -0.4164
vn -0.0557 0.7537 -0.6549
vn -0.0550 0.7502 -0.6589
vn -0.9970 -0.0433 -0.0637
vn -0.0104 -0.5008 0.8655
vn -0.0115 -0.4901 0.8716
vn 0.9976 0.0565 0.0396
vn -0.0188 0.5002 -0.8657
vn -0.0167 0.4876 -0.8729
vn -0.9966 -0.0478 -0.0666
vn -0.0318 -0.3256 0.9450
vn -0.0316 -0.3262 0.9448
vn 0.9976 0.0566 0.0399
vn 0.0052 0.3244 -0.9459
vn 0.0052 0.3251 -0.9457
vn -0.9968 -0.0450 -0.0656
vn -0.0213 -0.4231 0.9058
vn -0.0209 -0.4262 0.9044
vn 0.9976 0.0566 0.0403
vn -0.0066 0.4212 -0.9069
vn -0.0071 0.4255 -0.9049
vn -0.9973 -0.0394 -0.0618
vn -0.9973 -0.0393 -0.0618
vn 0.0018 -0.6374 0.7705
vn 0.0021 -0.6401 0.7683
vn 0.9976 0.0567 0.0405
vn 0.9976 0.0567 0.0406
vn -0.0316 0.6352 -0.7717
vn -0.0320 0.6385 -0.7690
vn -0.9978 -0.0348 -0.0571
vn -0.9978 -0.0348 -0.0570
vn 0.0220 -0.8074 0.5896
vn 0.0219 -0.8071 0.5900
vn 0.9975 0.0569 0.0407
vn -0.0517 0.8049 -0.5912
vn -0.0517 0.8049 -0.5911
vn -0.9966 -0.0522 -0.0634
vn -0.9962 -0.0441 -0.0755
vn 0.0354 -0.8563 0.5152
vn 0.0286 -0.8586 0.5118
vn 0.9953 0.0827 0.0514
vn 0.9963 0.0652 0.0559
vn -0.0600 0.8590 -0.5085
vn -0.0580 0.8588 -0.5091
vn 0.0818 -0.8435 0.5309
vn 0.0691 -0.8481 0.5253
vn -0.0805 0.8646 -0.4960
vn -0.0840 0.8646 -0.4954
vn -0.0005 0.0207 0.9998
vn 0.0157 0.0128 0.9998
vn 0.0032 -0.0075 1.0000
vn -0.0034 0.0040 1.0000
vn -0.9993 -0.0145 -0.0347
vn -0.9993 -0.0122 -0.0365
vn 0.0622 -0.9500 0.3061
vn 0.0641 -0.9496 0.3070
vn -0.9952 -0.0974 -0.0123
vn -0.9952 -0.0974 -0.0127
vn -0.9953 -0.0972 0.0031
vn -0.9953 -0.0972 0.0033
vn 0.0075 -0.0352 -0.9994
vn 0.0071 -0.0352 -0.9994
vn 0.0177 -0.0336 -0.9993
vn 0.0181 -0.0335 -0.9993
vn 0.0017 -0.0324 0.9995
vn -0.0017 -0.0195 0.9998
vn -0.1063 0.9940 -0.0264
vn -0.0101 0.0661 -0.9978
vn -0.0085 0.0648 -0.9979
vn -0.0068 0.0635 -0.9980
vn -0.0083 0.0647 -0.9979
vn 0.9994 0.0341 0.0019
vn 0.9995 0.0321 0.0020
vn 0.9993 0.0371 -0.0021
vn 0.9999 0.0161 0.0025
vn 0.9982 0.0605 0.0013
vn 0.9956 0.0942 -0.0014
vn 0.9958 0.0916 0.0005
vn 0.9959 0.0899 0.0000
vn 0.0051 -0.0713 0.9974
vn -0.0001 0.0289 0.9996
vn 0.0029 -0.0133 0.9999
vn 0.0073 -0.0696 0.9975
vn -0.9942 -0.1077 -0.0012
vn -0.9939 -0.1103 -0.0042
vn -0.9942 -0.1078 -0.0009
vn -0.9944 -0.1057 -0.0001
vn -0.9965 -0.0838 0.0036
vn -0.9995 0.0307 -0.0034
vn -0.9995 0.0314 0.0017
vn -0.9994 0.0353 -0.0038
vn -0.9978 0.0663 -0.0046
vn -0.1063 0.9940 -0.0267
vn -0.1559 0.9859 -0.0604
vn -0.0017 -0.0215 -0.9998
vn -0.0007 -0.0215 -0.9998
vn 0.9928 0.1196 0.0025
vn 0.9928 0.1196 0.0026
vn 0.0006 0.0286 0.9996
vn -0.0001 0.0285 0.9996
vn 0.0000 0.0285 0.9996
vn -0.9954 -0.0957 -0.0039
vn -0.9954 -0.0957 -0.0040
vn -0.9896 -0.1416 0.0263
vn -0.9852 -0.1679 0.0333
vn -0.9859 -0.1646 0.0311
vn -0.9899 -0.1399 0.0234
vn -0.1001 0.9280 -0.3589
vn -0.0972 0.9292 -0.3565
vn -0.1003 0.9382 -0.3312
vn -0.1040 0.9420 -0.3192
vn 0.9839 0.1692 -0.0574
vn 0.9832 0.1778 -0.0424
vn 0.9829 0.1789 -0.0425
vn 0.9839 0.1691 -0.0577
vn 0.1318 -0.7455 0.6534
vn 0.1313 -0.7415 0.6580
vn 0.1386 -0.8923 0.4297
vn 0.1377 -0.8938 0.4268
vn -0.9875 -0.1545 0.0312
vn -0.9876 -0.1536 0.0311
vn -0.9880 -0.1492 0.0394
vn -0.9880 -0.1491 0.0394
vn -0.0998 0.7492 -0.6547
vn -0.1088 0.9027 -0.4163
vn -0.1080 0.9020 -0.4181
vn -0.0998 0.7454 -0.6591
vn 0.9848 0.1617 -0.0637
vn 0.1154 -0.4879 0.8653
vn 0.1143 -0.4767 0.8716
vn -0.9881 -0.1489 0.0396
vn -0.0849 0.4936 -0.8655
vn -0.0844 0.4803 -0.8730
vn 0.9853 0.1572 -0.0666
vn 0.1009 -0.3117 0.9448
vn 0.1008 -0.3123 0.9446
vn -0.9881 -0.1488 0.0399
vn -0.0729 0.3162 -0.9459
vn -0.0730 0.3170 -0.9456
vn 0.9849 0.1600 -0.0656
vn 0.1104 -0.4093 0.9057
vn 0.1107 -0.4125 0.9042
vn -0.9880 -0.1488 0.0403
vn -0.0809 0.4134 -0.9069
vn -0.0813 0.4179 -0.9049
vn 0.9843 0.1656 -0.0618
vn 0.9842 0.1657 -0.0618
vn 0.1315 -0.6238 0.7704
vn 0.1318 -0.6266 0.7681
vn -0.9881 -0.1487 0.0405
vn -0.9881 -0.1487 0.0406
vn -0.0999 0.6281 -0.7717
vn -0.1002 0.6315 -0.7689
vn 0.9838 0.1702 -0.0570
vn 0.9838 0.1701 -0.0571
vn 0.1464 -0.7941 0.5899
vn 0.1464 -0.7944 0.5895
vn -0.9881 -0.1484 0.0407
vn -0.1149 0.7984 -0.5911
vn -0.1149 0.7983 -0.5912
vn 0.9856 0.1591 -0.0568
vn 0.9838 0.1688 -0.0600
vn 0.1428 -0.8419 0.5204
vn 0.1498 -0.8398 0.5218
vn -0.9886 -0.1373 0.0612
vn -0.9906 -0.1239 0.0584
vn -0.1171 0.8282 -0.5480
vn -0.1148 0.8282 -0.5486
vn 0.0928 -0.8534 0.5130
vn 0.1051 -0.8500 0.5162
vn -0.0927 0.8137 -0.5738
vn -0.0888 0.8147 -0.5731
vn -0.0045 0.0199 0.9998
vn 0.0021 0.0045 1.0000
vn -0.0025 -0.0078 1.0000
vn -0.0201 0.0090 0.9998
vn 0.9811 0.1903 -0.0347
vn 0.9806 0.1926 -0.0365
vn 0.1345 -0.9425 0.3061
vn 0.1326 -0.9424 0.3070
vn 0.9940 0.1084 -0.0123
vn 0.9941 0.1085 0.0033
vn 0.9941 0.1085 0.0031
vn 0.9940 0.1084 -0.0127
vn 0.0005 -0.0359 -0.9994
vn -0.0109 -0.0365 -0.9993
vn -0.0105 -0.0365 -0.9993
vn 0.0008 -0.0359 -0.9994
vn -0.0122 0.1183 -0.9929
vn -0.0122 0.1182 -0.9929
vn -0.0126 0.1209 -0.9926
vn -0.0127 0.1210 -0.9926
vn -0.0906 0.8757 0.4743
vn -0.0906 0.8757 0.4744
vn 0.0127 -0.1226 -0.9924
vn 0.0941 -0.9094 0.4050
vn 0.0941 -0.9094 0.4051
vn -0.1045 0.9942 -0.0269
vn -0.1047 0.9941 -0.0266
vn -0.1047 0.9941 -0.0270
vn -0.1044 0.9942 -0.0267
vn -0.9948 -0.1018 0.0006
vn -0.9945 -0.1051 0.0012
vn -0.9947 -0.1032 -0.0001
vn -0.9945 -0.1052 0.0009
vn -0.0021 0.0227 0.9997
vn -0.0013 0.0204 0.9998
vn -0.0014 0.0208 0.9998
vn -0.0022 0.0231 0.9997
vn -0.0021 0.0324 0.9995
vn -0.0020 0.0327 0.9995
vn -0.0022 0.0306 0.9995
vn -0.0022 0.0304 0.9995
vn -0.1128 0.9923 -0.0521
vn -0.1118 0.9929 -0.0412
vn -0.1119 0.9928 -0.0419
vn -0.1129 0.9922 -0.0528
vn -0.9936 -0.1132 0.0036
vn -0.9938 -0.1111 0.0031
vn -0.1040 0.9801 -0.1692
vn -0.1051 0.9941 -0.0267
vn -0.0027 0.0256 0.9997
vn -0.0013 0.0239 0.9997
vn 0.0012 0.0210 0.9998
vn -0.0003 0.0228 0.9997
vn 0.9708 0.0821 -0.2253
vn 0.9088 0.0742 -0.4106
vn 0.9016 0.0763 -0.4259
vn 0.9726 0.0850 -0.2165
vn -0.1041 0.9799 -0.1703
vn -0.1018 0.9543 -0.2810
vn -0.1018 0.9545 -0.2803
vn -0.8704 -0.0865 -0.4846
vn -0.9051 -0.0733 -0.4189
vn -0.9009 -0.0750 -0.4274
vn -0.8652 -0.0883 -0.4935
vn 0.9967 0.0812 0.0006
vn 0.9965 0.0833 -0.0003
vn -0.0076 0.0311 0.9995
vn -0.0081 0.0330 0.9994
vn -0.0081 0.0328 0.9994
vn -0.0076 0.0309 0.9995
vn 0.9967 0.0809 -0.0027
vn 0.9957 0.0923 -0.0021
vn 0.9958 0.0916 -0.0022
vn 0.9968 0.0803 -0.0028
vn -0.0046 0.0194 0.9998
vn -0.1044 0.9945 -0.0001
vn -0.9949 -0.1007 -0.0035
vn -0.9947 -0.1024 -0.0039
vn -0.9947 -0.1027 -0.0040
vn -0.9949 -0.1010 -0.0035
vn 0.1044 -0.9945 0.0050
vn 0.9949 0.1007 0.0040
vn 0.9947 0.1024 0.0035
vn 0.9947 0.1027 0.0035
vn 0.9949 0.1010 0.0039
vn -0.9896 -0.1427 -0.0204
vn -0.9976 -0.0695 0.0024
vn -0.9900 -0.1410 0.0002
vn -0.9925 -0.1222 0.0023
vn -0.9897 -0.1432 0.0026
vn -0.9897 -0.1431 0.0025
vn -0.9971 -0.0759 0.0026
vn 0.1321 -0.9912 0.0075
vn 0.1328 -0.9911 -0.0004
vn 0.1321 -0.9912 -0.0022
vn 0.1316 -0.9912 0.0170
vn -0.9973 -0.0737 0.0004
vn 0.0667 -0.9978 0.0024
vn 0.0661 -0.9978 0.0023
vn 0.0662 -0.9978 0.0025
vn 0.1311 -0.9913 0.0144
vn -0.0157 -0.0172 0.9997
vn -0.9809 -0.0809 0.1770
vn -0.9429 -0.0736 0.3248
vn -0.9424 -0.0735 0.3262
vn -0.7911 -0.0527 0.6094
vn -0.7898 -0.0525 0.6112
vn -0.5334 -0.0238 0.8455
vn -0.5306 -0.0235 0.8473
vn -0.1922 0.0097 0.9813
vn -0.1883 0.0100 0.9821
vn 0.1829 0.0424 0.9822
vn 0.1867 0.0427 0.9815
vn 0.5260 0.0688 0.8477
vn 0.5286 0.0689 0.8461
vn 0.7864 0.0851 0.6118
vn 0.7877 0.0852 0.6102
vn 0.9407 0.0909 0.3267
vn 0.9409 0.0909 0.3261
vn 0.9799 0.0904 0.1780
vn -0.1170 0.9928 -0.0246
vn -0.1147 0.9931 -0.0256
vn -0.1023 0.9943 -0.0299
vn -0.1035 0.9942 -0.0285
vn -0.1028 0.9943 -0.0278
vn -0.1028 0.9943 -0.0279
vn -0.1030 0.9943 -0.0278
vn -0.1031 0.9943 -0.0278
vn -0.1032 0.9943 -0.0275
vn -0.1033 0.9943 -0.0276
vn -0.1032 0.9943 -0.0272
vn -0.1030 0.9943 -0.0270
vn -0.1029 0.9943 -0.0271
vn -0.1028 0.9943 -0.0271
vn -0.1027 0.9943 -0.0270
vn -0.1013 0.9945 -0.0269
vn -0.0905 0.9955 -0.0278
vn -0.0884 0.9957 -0.0280
vn -0.9958 -0.0916 -0.0004
vn -0.9958 -0.0914 -0.0003
vn -0.9959 -0.0903 0.0005
vn -0.9960 -0.0896 0.0011
vn -0.9963 -0.0864 0.0032
vn -0.9958 -0.0913 -0.0004
vn -0.9958 -0.0914 -0.0004
vn -0.1058 0.9941 -0.0250
vn -0.1062 0.9939 -0.0304
vn -0.1053 0.9941 -0.0278
vn -0.1038 0.9943 -0.0261
vn -0.1041 0.9942 -0.0255
vn -0.1037 0.9943 -0.0260
vn -0.1039 0.9941 -0.0315
vn -0.1068 0.9923 -0.0627
vn -0.1074 0.9939 -0.0265
vn -0.1033 0.9943 -0.0274
vn -0.1110 0.9934 -0.0300
vn -0.1083 0.9936 -0.0318
vn -0.1067 0.9940 -0.0260
vn -0.1157 0.9925 -0.0396
vn -0.0894 0.9949 -0.0469
vn -0.0977 0.9898 -0.1038
vn -0.1035 0.9943 -0.0258
vn -0.1040 0.9944 -0.0205
vn -0.1033 0.9944 -0.0231
vn -0.1052 0.9942 -0.0233
vn -0.1061 0.9941 -0.0229
vn -0.1069 0.9940 -0.0237
vn -0.1081 0.9938 -0.0262
vn -0.1071 0.9938 -0.0310
vn -0.9896 -0.1422 -0.0197
vn -0.9890 -0.1461 -0.0242
vn -0.9972 -0.0751 -0.0037
vn -0.0906 0.6750 0.7322
vn -0.0906 0.6711 0.7358
vn -0.0868 0.6716 0.7358
vn -0.0873 0.6724 0.7350
vn 0.2418 0.0288 -0.9699
vn -0.6380 0.7700 0.0095
vn -0.5899 0.6674 -0.4546
vn -0.5998 0.6934 -0.3992
vn -0.9947 -0.0955 0.0394
vn -0.7797 -0.4912 -0.3883
vn -0.9786 -0.1935 -0.0701
vn -0.6308 0.7760 0.0047
vn -0.9971 -0.0758 0.0026
vn -0.6325 0.7745 0.0016
vn -0.9973 -0.0738 0.0002
vn -0.6324 0.7747 0.0002
vn -0.6351 0.7724 0.0023
vn -0.6323 0.7748 0.0002
vn -0.6325 0.7745 0.0017
vn -0.9897 -0.1431 0.0026
vn -0.9900 -0.1408 0.0005
vn -0.9897 -0.1429 -0.0044
# 601 vertex normals

vt 1.7722 0.6263 3.0080
vt -1.0244 0.5945 3.4862
vt -1.0244 0.5730 3.4859
vt 1.7631 0.6088 3.0076
vt 0.8648 5.0324 0.1303
vt 0.9800 5.0543 0.1705
vt 1.0064 -5.0628 0.9995
vt -0.1427 -5.1201 0.5220
vt -0.1452 -4.7969 0.5583
vt 0.4158 0.6129 0.4973
vt 0.4124 0.3871 0.4930
vt 0.5759 0.3899 0.5070
vt 0.5876 0.6127 0.5010
vt -1.9613 1.7623 0.6058
vt -2.0076 1.7631 0.6088
vt -2.4859 -1.0244 0.5730
vt -2.4462 -1.0307 0.5736
vt -1.0210 0.6021 3.5044
vt 1.7756 0.6340 3.0247
vt 1.7748 0.6722 3.0221
vt -1.0212 0.6409 3.5050
vt 3.3971 -0.6927 0.6668
vt 3.5053 -1.0214 0.6622
vt 3.0206 1.7744 0.6933
vt 2.9635 1.7645 0.6941
vt 3.4472 0.6630 -1.0306
vt 3.5050 0.6409 -1.0212
vt 3.5053 0.6622 -1.0214
vt -2.0247 1.7756 0.6340
vt -2.5044 -1.0210 0.6021
vt -2.4862 -1.0244 0.5945
vt -2.0080 1.7722 0.6263
vt 1.0000 1.0000 0.0000
vt 0.9863 -0.0083 0.0000
vt 0.9862 0.6894 0.0000
vt 0.9047 0.1552 0.0000
vt 0.7711 1.0000 0.0000
vt 0.9929 1.0000 0.0000
vt 1.7510 0.6827 2.9636
vt -0.6927 0.6668 3.3971
vt 1.7645 0.6941 2.9635
vt 3.4462 0.5736 -1.0307
vt 3.4859 0.5730 -1.0244
vt 3.4862 0.5945 -1.0244
vt 0.0000 0.8603 0.0000
vt 0.9999 0.8623 0.0000
vt 0.9999 0.9915 0.0000
vt -0.0001 0.9833 0.0000
vt 3.5044 0.6021 -1.0210
vt 3.4472 -1.0306 0.6630
vt 0.0038 0.9477 0.0000
vt 0.0460 0.1565 0.0000
vt 0.9925 0.9686 0.0000
vt 0.6082 0.9038 0.9125
vt 0.4975 0.9032 0.1058
vt 0.4977 0.0004 1.0081
vt 0.7175 0.0014 0.0095
vt 0.9501 0.4370 0.0000
vt 0.9496 0.1571 0.0000
vt 0.0324 0.1510 0.0000
vt 0.0312 0.4980 0.0000
vt 0.9514 0.0913 0.0000
vt 0.0331 0.1523 0.0000
vt 0.0331 0.5015 0.0000
vt 0.9520 0.4405 0.0000
vt 0.9519 0.3688 0.0000
vt 0.0126 0.9995 0.0144
vt 0.0005 0.0099 0.9993
vt 0.9874 0.0005 0.9849
vt 0.9995 0.9901 0.0005
vt -0.2208 1.7523 3.3239
vt -0.6991 3.0196 3.4210
vt -0.2306 1.2364 3.3206
vt 0.2246 1.7443 3.2447
vt 0.2148 1.2284 3.2415
vt 1.7623 0.6058 2.9613
vt -1.0307 0.5736 3.4462
vt 0.1959 0.3412 3.2252
vt 0.9203 0.3412 3.0989
vt 0.9738 0.0005 32.5000
vt 0.9738 0.9995 32.5000
vt 0.0263 0.9995 33.5000
vt 0.0263 0.0005 32.5000
vt 0.0263 0.9994 0.0010
vt 0.0264 0.0005 0.9961
vt 0.9737 0.0005 0.0010
vt 0.9736 0.9995 0.9980
vt 0.9153 -0.4963 3.0709
vt 1.6908 -2.8841 2.8471
vt 0.9065 -1.9426 3.0206
vt 0.1826 -1.9426 3.1496
vt -1.0212 -2.7640 3.3358
vt 0.1878 -1.1052 3.1787
vt 0.9116 -1.1052 3.0497
vt 0.1913 -0.4963 3.1987
vt 1.7054 -2.1734 2.8704
vt 1.7064 -2.1244 2.8720
vt 1.7332 -0.8155 2.9148
vt 0.5274 0.1012 0.3362
vt 0.4994 0.9386 0.3412
vt 0.4327 0.9363 0.3529
vt 0.4607 0.0989 0.3480
vt 0.3450 1.0603 0.1012
vt 0.4726 0.3362 0.1012
vt 0.5393 0.3480 0.0989
vt 0.4116 1.0721 0.0989
vt 0.3730 0.9386 1.0653
vt 0.3450 0.1012 1.0603
vt 0.4116 0.0989 1.0721
vt 0.4396 0.9363 1.0770
vt 0.4994 0.3412 0.9386
vt 0.6270 1.0653 0.9386
vt 0.5604 1.0770 0.9363
vt 0.4327 0.3529 0.9363
vt 0.5753 -1.3452 0.3277
vt 0.5472 -0.5078 0.3327
vt 0.4805 -0.5101 0.3445
vt 0.5087 -1.3475 0.3396
vt 0.2957 1.0516 -1.3452
vt 0.4247 0.3277 -1.3452
vt 0.4913 0.3396 -1.3475
vt 0.3623 1.0634 -1.3475
vt 0.3242 -0.5077 1.0566
vt 0.2957 -1.3452 1.0516
vt 0.3623 -1.3475 1.0634
vt 0.3909 -0.5101 1.0684
vt 0.5472 0.3327 -0.5078
vt 0.6758 1.0566 -0.5077
vt 0.6091 1.0684 -0.5101
vt 0.4805 0.3445 -0.5101
vt 0.3562 1.8317 -0.0770
vt 0.3529 2.3475 -0.0672
vt 0.2957 2.3470 -0.0572
vt 0.2989 1.8311 -0.0670
vt 0.5647 0.3684 1.8237
vt 0.6438 -0.0770 1.8317
vt 0.7011 -0.0670 1.8311
vt 0.6219 0.3784 1.8231
vt 0.5679 2.3395 0.3783
vt 0.5647 1.8237 0.3684
vt 0.6219 1.8231 0.3784
vt 0.6252 2.3390 0.3883
vt 0.3529 -0.0672 2.3475
vt 0.4321 0.3783 2.3395
vt 0.3748 0.3883 2.3390
vt 0.2957 -0.0572 2.3470
vt 0.0269 1.4444 0.5569
vt 0.1160 4.6768 0.5562
vt 0.9995 0.0005 0.5000
vt 0.9995 0.9995 0.0000
vt 0.0005 0.9995 0.0000
vt 0.0005 0.0005 1.5000
vt 0.5480 -0.2421 0.7332
vt 0.5092 1.2433 0.7339
vt 0.4603 1.2421 0.7348
vt 0.4991 -0.2433 0.7341
vt 0.2652 0.4603 -0.2421
vt 0.7332 0.4520 -0.2421
vt 0.7341 0.5009 -0.2433
vt 0.2661 0.5092 -0.2433
vt 0.4991 1.2433 0.2659
vt 0.4603 -0.2421 0.2652
vt 0.5092 -0.2433 0.2661
vt 0.5480 1.2421 0.2668
vt 0.2661 0.4908 1.2433
vt 0.7341 0.4991 1.2433
vt 0.7332 0.5480 1.2421
vt 0.2652 0.5397 1.2421
vt 0.6385 -0.8159 1.7847
vt 0.6438 -1.5315 1.7636
vt 1.1804 -0.8952 1.7895
vt 1.1793 -0.8158 1.7918
vt 1.2080 -2.8047 1.7336
vt 1.1588 0.6058 1.8335
vt -1.9613 0.6058 1.7623
vt -0.0131 0.5374 1.8052
vt 0.5856 0.5372 1.8188
vt 0.9995 0.0005 0.9995
vt 0.9995 0.9995 0.3657
vt 0.0005 0.9995 0.0005
vt 0.0005 0.0005 0.6342
vt 0.9995 0.9995 0.9996
vt 0.0005 0.9917 0.0005
vt 0.0163 0.0005 0.1133
vt 0.9994 0.0005 0.1589
vt -0.0185 -0.2668 1.7874
vt 1.1598 0.5308 1.8313
vt 1.7916 -0.2667 1.8197
vt 1.1790 -0.7952 1.7924
vt 2.7805 -0.7778 1.8232
vt 2.3399 -0.2668 1.8313
vt 2.3394 0.5370 1.8581
vt 1.7911 0.5370 1.8458
vt 2.5637 -2.0532 1.7764
vt 2.7888 -2.7636 1.7557
vt 2.7809 -0.8777 1.8198
vt 2.5630 -1.0136 1.8113
vt 0.9995 0.0006 0.0006
vt 0.9994 0.9995 0.1053
vt 0.0005 0.9994 0.9996
vt 0.0006 0.0005 0.8949
vt 2.7747 0.6058 1.8703
vt 2.7366 0.5361 1.8671
vt 2.7750 0.5361 1.8679
vt 1.3956 -2.0533 1.7582
vt 1.3950 -1.0136 1.7899
vt 1.1702 -0.2667 1.8079
vt 0.5826 -0.2668 1.7985
vt 2.7784 -0.2688 1.8406
vt 2.7422 -0.2687 1.8398
vt 0.9995 0.0005 0.0006
vt 0.9932 0.9984 0.9996
vt 0.0006 0.9995 0.4387
vt 0.0005 0.0031 0.3369
vt 0.5502 0.9922 1.8977
vt 0.5281 1.7960 1.8981
vt 0.4611 1.7942 1.8995
vt 0.4832 0.9903 1.8991
vt 1.2957 0.4626 0.9921
vt 1.8977 0.4498 0.9922
vt 1.8991 0.5168 0.9903
vt 1.2971 0.5295 0.9903
vt 0.4846 1.7960 1.2961
vt 0.4626 0.9921 1.2957
vt 0.5295 0.9903 1.2971
vt 0.5516 1.7942 1.2976
vt -0.8981 0.4719 1.7960
vt -0.2961 0.4846 1.7960
vt -0.2976 0.5516 1.7942
vt -0.8995 0.5389 1.7942
vt 0.0872 0.4864 0.9924
vt 0.7086 0.4735 0.9924
vt 0.7101 0.5404 0.9903
vt 0.0887 0.5534 0.9903
vt 0.5120 1.7961 0.0877
vt 0.4864 0.9924 0.0872
vt 0.5534 0.9903 0.0887
vt 0.5790 1.7941 0.0892
vt 0.2810 0.4972 1.7899
vt 0.9123 0.5120 1.7961
vt 0.9108 0.5790 1.7941
vt 0.2795 0.5642 1.7878
vt 0.5265 0.9924 0.7086
vt 0.5028 1.7899 0.7190
vt 0.4358 1.7878 0.7205
vt 0.4596 0.9903 0.7101
vt 0.5026 0.9925 -0.4611
vt 0.4758 1.7963 -0.4606
vt 0.4089 1.7940 -0.4591
vt 0.4356 0.9903 -0.4596
vt 1.4606 0.5242 1.7963
vt 1.8961 0.5339 1.7954
vt 1.8530 0.5999 1.7932
vt 1.4591 0.5911 1.7940
vt 0.6009 -0.7933 0.4832
vt 0.5678 0.2463 0.4838
vt 0.4758 0.2434 0.4853
vt 0.5088 -0.7963 0.4846
vt -0.6848 0.4177 -0.7932
vt 0.4832 0.3991 -0.7933
vt 0.4846 0.4912 -0.7963
vt -0.6834 0.5098 -0.7962
vt 0.4508 0.2464 -0.6842
vt 0.4177 -0.7932 -0.6848
vt 0.5098 -0.7962 -0.6834
vt 0.5428 0.2435 -0.6827
vt 0.5162 0.4322 0.2463
vt 1.6842 0.4508 0.2464
vt 1.6827 0.5428 0.2435
vt 0.5147 0.5242 0.2434
vt 0.0000 0.1168 0.0000
vt 0.0000 0.0000 0.0000
vt 1.0000 0.0000 0.0000
vt 1.0000 0.1168 0.0000
vt 0.0000 1.0000 0.0000
vt 0.9618 0.0000 0.0000
vt 0.9618 1.0000 0.0000
vt 0.7922 1.0000 0.0000
vt 0.7635 1.0000 0.0000
vt 0.1947 1.0000 0.0000
vt 0.1168 1.0000 0.0000
vt 0.8832 1.0000 0.0000
vt 0.8053 1.0000 0.0000
vt 0.2365 1.0000 0.0000
vt 0.2078 1.0000 0.0000
vt 0.0382 1.0000 0.0000
vt 0.0000 0.7922 0.0000
vt 1.0000 0.7922 0.0000
vt 1.0000 0.9618 0.0000
vt 0.0000 0.9618 0.0000
vt 0.0000 0.7635 0.0000
vt 1.0000 0.7635 0.0000
vt -0.6388 0.4947 0.0443
vt -0.6273 0.4655 0.0428
vt -0.6721 0.4586 0.0426
vt -0.6839 0.4941 0.0441
vt -0.6700 0.4592 0.0911
vt -0.6818 0.4953 0.0927
vt -0.5956 0.3853 0.0891
vt -0.6387 0.3630 0.0871
vt -0.5934 0.2860 0.0821
vt -0.5551 0.3164 0.0846
vt -0.5566 0.3194 0.0345
vt -0.5967 0.3875 0.0389
vt -0.5961 0.2878 0.0337
vt -0.6409 0.3640 0.0386
vt -0.5438 0.2398 0.0786
vt -0.5185 0.2823 0.0820
vt -0.5207 0.2858 0.0320
vt -0.5471 0.2421 0.0303
vt -0.3494 0.1727 0.0709
vt -0.3336 0.2185 0.0747
vt -0.3355 0.2219 0.0248
vt -0.3525 0.1749 0.0227
vt -0.1149 0.0858 0.0614
vt -0.0940 0.1297 0.0650
vt -0.0953 0.1328 0.0151
vt -0.1173 0.0877 0.0132
vt 0.0785 -0.0329 0.0512
vt 0.1105 0.0043 0.0542
vt 0.1097 0.0071 0.0044
vt 0.0767 -0.0313 0.0031
vt 0.2493 -0.2355 0.0371
vt 0.2892 -0.2077 0.0394
vt 0.2889 -0.2055 -0.0103
vt 0.2479 -0.2344 -0.0110
vt 0.3868 -0.4697 0.0222
vt 0.4298 -0.4473 0.0241
vt 0.4298 -0.4455 -0.0256
vt 0.3857 -0.4691 -0.0260
vt 0.5755 -0.7001 0.0086
vt 0.5316 -0.7206 0.0067
vt 0.5755 -0.6984 -0.0412
vt 0.5305 -0.7201 -0.0414
vt -0.6378 0.4946 0.0945
vt -0.6263 0.4648 0.0930
vt 0.0000 0.1450 0.0000
vt 1.0000 0.1450 0.0000
vt 0.1450 1.0000 0.0000
vt 0.8550 1.0000 0.0000
vt 0.5213 -0.6060 0.0144
vt 0.4777 -0.6272 0.0125
vt 0.5213 -0.6043 -0.0354
vt 0.4766 -0.6267 -0.0356
vt 1.4258 0.9114 0.8313
vt -0.4258 0.9114 0.8313
vt -0.4258 -0.1330 0.8318
vt 1.4258 -0.1330 0.8318
vt 0.9088 0.4421 1.4258
vt 0.9114 0.8313 1.4258
vt -0.1330 0.8318 1.4258
vt -0.1334 -0.0417 1.4258
vt 1.4258 0.8313 0.9114
vt -0.4258 0.8313 0.9114
vt -0.4258 0.4421 0.9088
vt 1.4258 0.4421 0.9088
vt -0.4258 0.4445 1.1401
vt -0.4258 -0.0419 1.1401
vt 1.4258 -0.0419 1.1401
vt 1.4258 0.4445 1.1401
vt -0.4258 0.9088 0.4421
vt 1.4258 0.9088 0.4421
vt 1.4258 1.0835 0.4435
vt -0.4258 1.0833 0.4435
vt 1.1072 -0.0419 1.4258
vt 1.0835 0.4446 1.4258
vt 0.8619 0.6456 0.6592
vt 0.1381 1.1130 0.6592
vt 0.1381 -0.2092 0.6592
vt 0.8619 -0.2065 0.6592
vt 0.9040 0.3239 1.2065
vt 0.9040 0.6761 1.2065
vt 0.0960 0.6761 1.2092
vt 0.0960 0.3239 1.2092
vt -0.1130 0.6592 0.1381
vt -0.2065 0.6761 0.0960
vt -0.2065 0.3239 0.0960
vt -0.1130 0.3408 0.1381
vt 0.8619 1.1157 0.6592
vt 0.9040 1.2092 0.6761
vt 0.0960 1.2065 0.6761
vt 1.2092 0.3239 0.9040
vt 1.2092 0.6761 0.9040
vt 1.1157 0.6592 0.8619
vt 1.1157 0.3408 0.8619
vt 1.2092 0.6592 0.1381
vt 1.2092 0.3408 0.1381
vt -0.8995 0.5065 0.9905
vt -0.4611 0.4974 0.9925
vt -0.4596 0.5644 0.9903
vt -0.8582 0.5727 0.9884
vt 0.5207 0.0965 0.5203
vt 0.5479 0.9013 0.5228
vt 0.4784 0.9035 0.5207
vt 0.4513 0.0986 0.5174
vt 0.5228 0.0965 0.5213
vt 0.5194 0.9013 0.5487
vt 0.4772 0.9013 0.5479
vt 0.4797 0.0965 0.5207
vt 0.1934 0.5261 2.3610
vt 0.1925 0.2103 2.3612
vt 0.8119 0.2103 2.3612
vt 0.8127 0.5261 2.3610
vt 0.8119 2.3612 0.2103
vt 0.1925 2.3612 0.2103
vt 0.1864 -1.3605 0.1581
vt 0.8057 -1.3605 0.1581
vt 0.8024 -1.3612 0.8097
vt 0.8419 2.3609 0.8136
vt 0.5261 2.3610 0.8127
vt 0.1581 -1.3605 0.8057
vt 0.2103 2.3612 0.8119
vt 0.8057 2.3609 0.8419
vt 0.1864 2.3609 0.8419
vt 0.1903 -1.3612 0.8024
vt 0.8097 -1.3612 0.8024
vt 0.8419 -1.3605 0.1864
vt 0.7897 2.3612 0.1925
vt 0.4739 2.3610 0.1934
vt 0.1976 -1.3612 0.1903
vt 0.1581 2.3609 0.1943
vt 0.8136 0.8419 2.3609
vt 0.1943 0.8419 2.3609
vt 0.6723 0.1828 1.0068
vt 0.3265 0.1828 1.0078
vt 0.2624 0.1231 1.1035
vt 0.7361 0.1231 1.1025
vt 0.6727 0.4403 0.5986
vt 0.7368 0.5000 0.5059
vt 0.3269 0.4403 0.5996
vt 0.2631 0.5000 0.5068
vt 0.6733 0.8173 0.0039
vt 0.6729 0.5597 0.4111
vt 0.7375 0.8769 -0.0889
vt 0.3276 0.8173 0.0039
vt 0.2638 0.8769 -0.0889
vt 0.3272 0.5597 0.4121
vt 0.5006 1.8238 -2.4897
vt 0.4989 0.5764 -2.4643
vt 1.7473 0.5617 -2.4381
vt 1.7506 2.9378 -2.4864
vt -0.8679 0.5361 -1.7750
vt 0.4931 0.5891 -1.7786
vt -0.8703 0.6058 -1.7747
vt 0.1372 0.0522 -1.7798
vt 0.1373 0.0085 -1.7794
vt 1.7269 0.4592 -1.7810
vt 1.7267 0.5740 -1.7822
vt 1.7358 -2.7639 -1.7839
vt 0.1281 -1.2070 -1.7805
vt 0.1390 -1.5246 -1.7818
vt 0.1411 -1.5869 -1.7820
vt -0.7557 -2.7636 -1.7888
vt 0.1412 -2.7637 -1.7870
vt 0.1002 -1.5567 -1.7820
vt -0.8198 -0.8777 -1.7809
vt 1.0278 1.0000 1.0000
vt 0.7913 1.0000 0.0000
vt -0.8406 -0.2688 -1.7784
vt 0.0869 -1.1670 -1.7804
vt 0.0965 -0.0031 -1.7793
vt -1.8589 2.0085 0.2118
vt -1.8597 -1.2148 0.2043
vt 3.3159 -1.2156 0.5470
vt 3.4653 2.1228 0.5655
vt 3.4631 2.2118 0.5716
vt -1.8589 2.1231 0.2120
vt 3.4631 0.5716 2.2118
vt 3.3565 0.8900 2.2156
vt -2.1621 0.1610 2.1170
vt 0.7500 0.0000 1.0000
vt 0.8056 0.0000 1.0000
vt 0.8056 1.0000 1.0000
vt 0.7500 1.0000 1.0000
vt 0.8611 0.0000 1.0000
vt 0.8611 1.0000 1.0000
vt 0.9167 0.0000 1.0000
vt 0.9167 1.0000 1.0000
vt 0.9722 0.0000 1.0000
vt 0.9722 1.0000 1.0000
vt 1.0278 0.0000 1.0000
vt 0.0278 0.0000 1.0000
vt 0.0833 0.0000 1.0000
vt 0.0833 1.0000 1.0000
vt 0.0278 1.0000 1.0000
vt 0.1389 0.0000 1.0000
vt 0.1389 1.0000 1.0000
vt 0.1944 0.0000 1.0000
vt 0.1944 1.0000 1.0000
vt 0.2500 0.0000 1.0000
vt 0.2500 1.0000 1.0000
vt 0.8143 0.6592 0.8619
vt 0.7092 0.4807 0.8619
vt 0.7968 0.3349 0.8619
vt 0.6456 0.6592 0.8619
vt 0.6456 0.4793 0.8619
vt 0.8619 0.8143 0.6592
vt -0.4796 -2.1286 1.7301
vt -0.0916 -2.1300 1.7361
vt -0.1061 -1.5365 1.7529
vt -0.4572 -0.8159 1.7656
vt -0.1076 -0.8160 1.7733
vt 0.4927 -0.8482 1.7818
vt 0.4935 -2.3335 1.7380
vt 0.6118 -1.5317 1.7632
vt 0.6095 -0.8370 1.7837
vt 0.6145 -2.3494 1.7391
vt 0.6213 -2.8199 1.7253
vt -0.0695 -1.5366 1.7535
vt -0.0890 -2.1792 1.7347
vt -0.0862 -2.3504 1.7299
vt 0.0237 -2.3336 1.7318
vt -0.0713 -0.8371 1.7737
vt 0.0230 -0.8483 1.7756
vt 1.0000 0.1947 0.0000
vt 0.0000 0.1947 0.0000
vt -1.9148 -0.8155 1.7332
vt -1.8720 -2.1244 1.7064
vt -1.8704 -2.1734 1.7054
vt -1.8471 -2.8841 1.6908
vt -0.4552 -2.8479 1.7103
vt -0.4566 -2.1778 1.7292
vt 0.1188 0.2109 0.0000
vt 0.1023 0.9878 0.0000
vt 0.5244 0.9158 0.0000
vt 0.5324 0.4510 0.0000
vt 0.5092 0.2388 0.0000
vt 0.0965 0.0388 -1.7798
vt -0.7897 -0.4425 0.5644
vt 1.7256 1.4748 0.3910
vt -0.9884 1.4298 -0.1295
vt -1.0552 1.4301 -0.1544
vt 1.9982 0.5670 0.7999
vt 1.9880 1.4792 0.4413
vt 1.7255 0.4017 0.8105
vt 1.7396 -0.4413 1.1354
vt 3.4643 0.5011 0.5764
vt -0.8232 -0.7778 -1.7805
vt 0.0980 -1.4928 -1.7817
vt 0.1811 -2.7637 -1.7870
vt 0.5287 0.5887 -1.7787
# 541 texture coords

g Ryytli_30
usemtl Material__25
s off
f 1/1/1 2/2/2 3/3/3 
f 3/3/3 4/4/4 1/1/1 
usemtl Material__28
f 5/5/5 6/6/5 7/7/5 
f 5/5/5 7/7/5 8/8/5 
f 9/9/5 5/5/5 8/8/5 
usemtl Material__25
f 10/10/6 11/11/7 12/12/8 
f 12/12/8 13/13/9 10/10/6 
f 9/14/10 4/15/11 3/16/12 
f 3/16/12 14/17/13 9/14/10 
f 15/18/14 16/19/15 17/20/16 
f 17/20/16 18/21/17 15/18/14 
f 19/22/18 20/23/19 21/24/20 
f 21/24/20 22/25/21 19/22/18 
f 23/26/22 18/27/23 20/28/24 
f 16/29/25 15/30/26 2/31/26 
f 2/31/26 1/32/25 16/29/25 
f 1/33/27 17/33/28 16/33/29 
usemtl Material__26
f 8/34/30 7/35/31 24/36/32 
usemtl Material__25
f 24/37/33 12/33/34 11/33/35 
f 11/33/35 25/37/36 24/37/33 
f 25/37/37 9/37/38 8/37/39 
f 8/37/39 24/37/40 25/37/37 
f 25/37/37 22/33/41 9/38/38 
f 25/39/42 19/40/42 22/41/42 
f 14/42/43 3/43/44 2/44/45 
f 2/44/45 23/26/22 14/42/43 
usemtl Material__26
f 18/45/17 17/46/16 21/47/46 
f 21/47/46 20/48/47 18/45/17 
usemtl Material__25
f 2/44/45 15/49/48 18/27/23 
f 18/27/23 23/26/22 2/44/45 
f 22/33/49 21/33/50 17/33/28 
f 17/33/28 9/33/51 22/33/49 
f 19/22/18 23/50/52 20/23/19 
usemtl Material__26
f 13/51/53 12/52/54 24/36/32 
f 24/36/32 26/53/55 13/51/53 
f 26/53/56 24/36/32 7/35/31 
usemtl Material__28
f 6/54/57 27/55/57 26/56/57 
f 26/56/57 7/57/57 6/54/57 
usemtl Material__27
f 28/58/58 29/59/59 30/60/60 
f 30/60/60 31/61/61 28/58/58 
f 30/60/62 29/59/63 32/62/64 
f 32/62/64 33/63/65 30/60/62 
f 34/64/66 31/61/67 30/60/68 
f 30/60/68 33/63/69 34/64/66 
f 28/58/70 31/61/70 34/64/70 
f 34/64/70 35/65/70 28/58/70 
f 36/66/71 32/62/72 29/59/72 
f 29/59/72 35/65/71 36/66/71 
f 35/65/71 29/59/72 28/58/71 
usemtl Material__25
f 1/33/73 4/33/73 9/33/73 
usemtl Material__30
f 37/67/74 38/68/74 39/69/74 
f 39/69/74 40/70/74 37/67/74 
usemtl Material__25
f 41/71/74 11/72/74 19/40/74 
f 19/40/74 42/73/74 41/71/74 
f 43/74/74 44/75/74 25/39/74 
f 19/40/74 25/39/74 44/75/74 
f 44/75/74 42/73/74 19/40/74 
f 41/71/74 43/74/74 11/72/74 
f 9/76/75 14/77/76 45/78/77 
f 45/78/77 46/79/78 9/76/75 
usemtl Material__29
f 47/80/79 48/81/79 49/82/79 
f 49/82/79 50/83/79 47/80/79 
usemtl Material__25
f 43/74/74 25/39/74 11/72/74 
usemtl Material__29
f 51/84/80 52/85/81 53/86/82 
f 53/86/82 54/87/83 51/84/80 
usemtl Material__25
f 46/79/78 55/88/84 9/76/75 
f 56/89/76 57/90/76 58/91/76 
f 58/91/76 59/92/76 56/89/76 
f 58/91/76 60/93/84 59/92/76 
f 60/93/84 61/94/75 55/88/84 
f 55/88/84 62/95/84 60/93/84 
f 14/77/76 59/92/76 60/93/84 
f 60/93/84 62/95/84 14/77/76 
f 62/95/84 45/78/77 14/77/76 
f 61/94/75 56/89/76 63/96/75 
f 63/96/75 55/88/84 61/94/75 
f 63/96/75 64/97/75 65/98/75 
f 65/98/75 55/88/84 63/96/75 
f 55/88/84 65/98/75 9/76/75 
f 50/99/85 49/100/86 45/101/86 
f 45/101/86 62/102/87 50/99/85 
f 47/103/88 50/104/89 62/105/89 
f 62/105/89 55/106/90 47/103/88 
f 48/107/91 47/108/92 55/109/92 
f 55/109/92 46/110/93 48/107/91 
f 49/111/94 48/112/95 46/113/96 
f 46/113/96 45/114/97 49/111/94 
f 52/115/98 51/116/99 60/117/100 
f 60/117/100 58/118/101 52/115/98 
f 53/119/102 52/120/103 58/121/104 
f 58/121/104 57/122/105 53/119/102 
f 54/123/106 53/124/107 57/125/108 
f 57/125/108 61/126/109 54/123/106 
f 51/127/110 54/128/111 61/129/112 
f 61/129/112 60/130/113 51/127/110 
f 38/131/114 37/132/114 41/133/114 
f 41/133/114 42/134/114 38/131/114 
f 39/135/115 38/136/116 42/137/115 
f 42/137/115 44/138/115 39/135/115 
f 40/139/117 39/140/117 44/141/117 
f 44/141/117 43/142/117 40/139/117 
f 37/143/118 40/144/118 43/145/118 
f 43/145/118 41/146/118 37/143/118 
usemtl Material__28
f 66/147/119 67/148/119 5/5/119 
f 5/5/119 9/9/119 66/147/119 
usemtl Material__25
f 1/33/27 9/33/51 17/33/28 
f 61/94/75 57/90/76 56/89/76 
usemtl Material__33
f 68/149/120 69/150/120 70/151/120 
f 70/151/120 71/152/120 68/149/120 
usemtl Material__25
f 71/153/121 70/154/121 72/155/121 
f 72/155/121 73/156/121 71/153/121 
f 68/157/122 71/158/122 73/159/122 
f 73/159/122 74/160/122 68/157/122 
f 69/161/123 68/162/123 74/163/123 
f 74/163/123 75/164/123 69/161/123 
f 70/165/124 69/166/124 75/167/124 
f 75/167/124 72/168/124 70/165/124 
f 76/169/125 77/170/126 32/171/127 
f 32/171/127 36/172/128 76/169/125 
f 32/171/127 77/170/126 78/173/129 
f 66/174/130 9/175/131 79/176/132 
f 79/176/132 80/177/133 66/174/130 
usemtl Material__34
f 81/178/134 82/179/134 83/180/134 
f 83/180/134 84/181/134 81/178/134 
f 85/182/135 86/183/136 87/184/137 
f 87/184/137 88/185/138 85/182/135 
usemtl Material__25
f 89/186/139 79/176/132 9/175/131 
f 80/177/133 90/187/140 66/174/130 
f 91/188/141 35/189/142 34/190/143 
f 34/190/143 92/191/144 91/188/141 
f 91/188/141 92/191/144 93/192/145 
f 93/192/145 94/193/146 91/188/141 
f 95/194/147 96/195/148 33/196/149 
f 33/196/149 97/197/150 95/194/147 
usemtl Material__37
f 98/198/151 99/199/151 100/200/151 
f 100/200/151 101/201/151 98/198/151 
usemtl Material__25
f 67/202/152 102/203/153 103/204/154 
f 78/173/129 96/195/148 95/194/147 
f 95/194/147 104/205/155 78/173/129 
f 104/205/155 105/206/156 32/171/127 
f 32/171/127 78/173/129 104/205/155 
f 97/197/150 33/196/149 32/171/127 
f 32/171/127 105/206/156 97/197/150 
f 94/193/146 93/192/145 67/202/152 
f 67/202/152 66/174/130 94/193/146 
f 91/188/141 106/207/157 35/189/142 
f 94/193/146 66/174/130 90/187/140 
f 107/208/158 106/207/157 90/187/140 
f 90/187/140 80/177/133 107/208/158 
f 34/190/143 108/209/159 109/210/160 
usemtl Material__36
f 110/211/161 111/212/161 112/213/161 
f 112/213/161 113/214/161 110/211/161 
usemtl Material__25
f 84/215/162 83/216/162 79/217/162 
f 79/217/162 89/218/162 84/215/162 
f 81/219/163 84/220/163 89/221/163 
f 89/221/163 107/222/163 81/219/163 
f 82/223/164 81/224/164 107/225/164 
f 107/225/164 80/226/164 82/223/164 
f 83/227/165 82/228/165 80/229/165 
f 80/229/165 79/230/165 83/227/165 
f 88/231/166 87/232/166 106/233/166 
f 106/233/166 91/234/166 88/231/166 
f 85/235/167 88/236/167 91/237/167 
f 91/237/167 94/238/167 85/235/167 
f 86/239/168 85/240/168 94/241/168 
f 94/241/168 90/242/168 86/239/168 
f 87/243/169 86/244/169 90/245/169 
f 90/245/169 106/246/169 87/243/169 
f 113/247/170 112/248/171 93/249/171 
f 93/249/171 92/250/170 113/247/170 
f 112/251/172 111/252/173 102/253/174 
f 102/253/174 93/254/175 112/251/172 
f 101/255/176 100/256/176 105/257/176 
f 105/257/176 104/258/176 101/255/176 
f 98/259/177 101/260/177 104/261/177 
f 104/261/177 95/262/177 98/259/177 
f 99/263/178 98/264/178 95/265/178 
f 95/265/178 97/266/178 99/263/178 
f 100/267/179 99/268/179 97/269/179 
f 97/269/179 105/270/179 100/267/179 
usemtl Material__38
f 114/271/180 115/272/180 116/273/180 
f 116/273/180 117/274/180 114/271/180 
f 118/272/181 119/273/182 116/33/183 
f 116/33/183 115/275/184 118/272/181 
f 120/276/185 121/277/186 122/278/187 
f 122/278/187 123/279/188 120/276/185 
f 120/276/185 123/279/188 124/280/189 
f 124/280/189 117/281/190 120/276/185 
f 117/281/190 116/275/191 119/272/192 
f 119/272/192 120/276/185 117/281/190 
f 118/273/193 115/33/194 114/282/195 
f 114/282/195 125/283/196 118/273/193 
f 118/273/193 125/283/196 126/284/197 
f 126/284/197 127/285/198 118/273/193 
f 127/285/198 128/286/199 129/275/200 
f 129/275/200 118/273/193 127/285/198 
f 130/272/201 118/273/193 129/275/200 
f 127/287/202 122/288/202 121/289/202 
f 121/289/202 128/290/202 127/287/202 
f 131/288/203 132/287/203 133/291/204 
f 133/291/204 134/292/203 131/288/203 
f 134/292/205 133/291/206 126/291/207 
f 126/291/207 123/292/208 134/292/205 
f 131/288/209 134/292/210 123/279/188 
f 123/279/188 122/278/187 131/288/209 
f 132/287/211 131/288/212 122/288/213 
f 122/288/213 127/287/213 132/287/211 
f 133/291/214 132/287/215 127/285/198 
f 127/285/198 126/284/197 133/291/214 
f 135/293/216 136/294/217 137/295/218 
f 137/295/218 138/296/219 135/293/216 
f 138/296/220 137/295/221 139/297/222 
f 139/297/222 140/298/223 138/296/220 
f 141/299/224 142/300/225 143/301/226 
f 143/301/226 144/302/227 141/299/224 
f 145/303/228 146/304/229 141/299/230 
f 141/299/230 144/302/231 145/303/228 
f 146/304/232 145/303/233 147/305/233 
f 147/305/233 148/306/234 146/304/232 
f 142/300/235 148/306/236 147/305/237 
f 147/305/237 143/301/238 142/300/235 
f 143/301/226 149/307/239 150/308/239 
f 150/308/239 144/302/227 143/301/226 
f 151/309/240 145/303/228 144/302/231 
f 144/302/231 150/308/241 151/309/240 
f 145/303/233 151/309/242 152/310/242 
f 152/310/242 147/305/233 145/303/233 
f 143/301/238 147/305/237 152/310/243 
f 152/310/243 149/307/244 143/301/238 
f 150/308/239 149/307/239 153/311/245 
f 153/311/245 154/312/245 150/308/239 
f 155/313/246 151/309/240 150/308/241 
f 150/308/241 154/312/247 155/313/246 
f 156/314/248 152/310/242 151/309/242 
f 151/309/242 155/313/248 156/314/248 
f 149/307/244 152/310/243 156/314/249 
f 156/314/249 153/311/250 149/307/244 
f 154/312/245 153/311/245 157/315/251 
f 157/315/251 158/316/251 154/312/245 
f 159/317/252 155/313/246 154/312/247 
f 154/312/247 158/316/253 159/317/252 
f 160/318/254 156/314/248 155/313/248 
f 155/313/248 159/317/254 160/318/254 
f 153/311/250 156/314/249 160/318/255 
f 160/318/255 157/315/256 153/311/250 
f 158/316/251 157/315/251 161/319/257 
f 161/319/257 162/320/258 158/316/251 
f 163/321/259 159/317/252 158/316/253 
f 158/316/253 162/320/260 163/321/259 
f 164/322/261 160/318/254 159/317/254 
f 159/317/254 163/321/262 164/322/261 
f 157/315/256 160/318/255 164/322/263 
f 164/322/263 161/319/264 157/315/256 
f 161/319/257 165/323/265 166/324/266 
f 166/324/266 162/320/258 161/319/257 
f 162/320/260 166/324/267 167/325/268 
f 167/325/268 163/321/259 162/320/260 
f 163/321/262 167/325/269 168/326/269 
f 168/326/269 164/322/261 163/321/262 
f 164/322/263 168/326/270 165/323/271 
f 165/323/271 161/319/264 164/322/263 
f 165/323/265 169/327/272 170/328/273 
f 170/328/273 166/324/266 165/323/265 
f 166/324/267 170/328/274 171/329/275 
f 171/329/275 167/325/268 166/324/267 
f 167/325/269 171/329/276 172/330/277 
f 172/330/277 168/326/269 167/325/269 
f 168/326/270 172/330/278 169/327/279 
f 169/327/279 165/323/271 168/326/270 
f 124/331/189 170/328/273 169/327/272 
f 169/327/272 117/332/190 124/331/189 
f 171/329/275 170/328/274 124/331/280 
f 124/331/280 125/333/281 171/329/275 
f 172/330/277 171/329/276 125/333/196 
f 125/333/196 114/334/195 172/330/277 
f 117/332/282 169/327/279 172/330/278 
f 172/330/278 114/334/283 117/332/282 
f 135/293/284 138/296/285 140/298/286 
f 140/298/286 173/335/287 135/293/284 
f 139/297/288 142/300/225 141/299/224 
f 141/299/224 174/336/289 139/297/288 
f 174/336/290 141/299/230 146/304/229 
f 146/304/229 136/294/291 174/336/290 
f 146/304/232 148/306/234 137/295/218 
f 137/295/218 136/294/217 146/304/232 
f 142/300/235 139/297/222 137/295/221 
f 137/295/221 148/306/236 142/300/235 
f 173/335/292 174/336/293 121/277/294 
f 121/277/294 175/33/295 173/335/292 
f 128/290/296 121/289/297 174/336/298 
f 174/336/298 136/294/299 128/290/296 
f 135/293/216 129/275/200 128/286/199 
f 128/286/199 136/294/217 135/293/216 
f 175/275/300 129/33/301 135/293/284 
f 135/293/284 173/335/287 175/275/300 
f 176/273/302 177/272/302 178/337/302 
f 178/337/302 179/338/302 176/273/302 
f 177/275/303 176/33/304 180/273/305 
f 180/273/305 77/272/306 177/275/303 
f 180/272/307 176/275/308 179/339/309 
f 179/339/309 181/280/310 180/272/307 
f 180/272/307 181/280/310 182/279/311 
f 182/279/311 183/278/312 180/272/307 
f 183/278/312 184/277/313 185/276/314 
f 185/276/314 180/272/307 183/278/312 
f 130/273/315 129/33/301 175/275/300 
f 175/275/300 186/275/316 130/273/315 
f 186/275/316 187/33/317 76/273/318 
f 76/273/318 130/273/315 186/275/316 
f 76/272/319 187/275/320 188/286/321 
f 188/286/321 189/285/322 76/272/319 
f 76/272/319 189/285/322 190/284/323 
f 190/284/323 77/273/324 76/272/319 
f 178/340/325 177/33/326 77/273/324 
f 77/273/324 191/283/327 178/340/325 
f 190/284/323 191/283/327 77/273/324 
f 189/287/328 188/290/328 184/289/328 
f 184/289/328 183/288/328 189/287/328 
f 192/287/329 193/288/329 194/292/329 
f 194/292/329 195/291/329 192/287/329 
f 194/292/330 182/292/331 190/291/331 
f 190/291/331 195/291/330 194/292/330 
f 193/288/332 183/278/312 182/279/311 
f 182/279/311 194/292/333 193/288/332 
f 192/287/334 189/287/335 183/288/336 
f 183/288/336 193/288/334 192/287/334 
f 195/291/337 190/284/323 189/285/322 
f 189/285/322 192/287/338 195/291/337 
f 196/293/339 197/296/340 198/295/341 
f 198/295/341 199/294/342 196/293/339 
f 197/296/343 200/298/344 201/297/345 
f 201/297/345 198/295/346 197/296/343 
f 202/301/347 203/300/348 204/299/349 
f 204/299/349 205/302/350 202/301/347 
f 206/303/351 205/302/352 204/299/353 
f 204/299/353 207/304/354 206/303/351 
f 207/304/355 208/306/356 209/305/357 
f 209/305/357 206/303/358 207/304/355 
f 209/305/359 208/306/360 203/300/361 
f 203/300/361 202/301/362 209/305/359 
f 202/301/347 205/302/350 210/308/363 
f 210/308/363 211/307/363 202/301/347 
f 212/309/364 210/308/365 205/302/352 
f 205/302/352 206/303/351 212/309/364 
f 206/303/358 209/305/357 213/310/366 
f 213/310/366 212/309/366 206/303/358 
f 213/310/367 209/305/359 202/301/362 
f 202/301/362 211/307/368 213/310/367 
f 214/311/369 211/307/363 210/308/363 
f 210/308/363 215/312/369 214/311/369 
f 216/313/370 215/312/371 210/308/365 
f 210/308/365 212/309/364 216/313/370 
f 217/314/372 216/313/372 212/309/366 
f 212/309/366 213/310/366 217/314/372 
f 217/314/373 213/310/367 211/307/368 
f 211/307/368 214/311/374 217/314/373 
f 218/315/375 214/311/369 215/312/369 
f 215/312/369 219/316/375 218/315/375 
f 220/317/376 219/316/377 215/312/371 
f 215/312/371 216/313/370 220/317/376 
f 221/318/378 220/317/378 216/313/372 
f 216/313/372 217/314/372 221/318/378 
f 221/318/379 217/314/373 214/311/374 
f 214/311/374 218/315/380 221/318/379 
f 222/319/381 218/315/375 219/316/375 
f 219/316/375 223/320/382 222/319/381 
f 224/321/383 223/320/384 219/316/377 
f 219/316/377 220/317/376 224/321/383 
f 225/322/385 224/321/386 220/317/378 
f 220/317/378 221/318/378 225/322/385 
f 225/322/387 221/318/379 218/315/380 
f 218/315/380 222/319/388 225/322/387 
f 222/319/381 223/320/382 226/324/389 
f 226/324/389 227/323/390 222/319/381 
f 223/320/384 224/321/383 228/325/391 
f 228/325/391 226/324/392 223/320/384 
f 224/321/386 225/322/385 229/326/393 
f 229/326/393 228/325/393 224/321/386 
f 225/322/387 222/319/388 227/323/394 
f 227/323/394 229/326/395 225/322/387 
f 227/323/390 226/324/389 230/328/396 
f 230/328/396 231/327/397 227/323/390 
f 226/324/392 228/325/391 232/329/398 
f 232/329/398 230/328/399 226/324/392 
f 228/325/393 229/326/393 233/330/400 
f 233/330/400 232/329/401 228/325/393 
f 229/326/395 227/323/394 231/327/402 
f 231/327/402 233/330/403 229/326/395 
f 181/341/310 179/342/309 231/327/397 
f 231/327/397 230/328/396 181/341/310 
f 232/329/398 191/343/404 181/341/405 
f 181/341/405 230/328/399 232/329/398 
f 233/330/400 178/344/325 191/343/327 
f 191/343/327 232/329/401 233/330/400 
f 233/330/403 231/327/402 179/342/406 
f 179/342/406 178/344/407 233/330/403 
f 196/293/408 234/335/409 200/298/410 
f 200/298/410 197/296/411 196/293/408 
f 201/297/412 235/336/413 204/299/349 
f 204/299/349 203/300/348 201/297/412 
f 235/336/414 199/294/415 207/304/354 
f 207/304/354 204/299/353 235/336/414 
f 207/304/355 199/294/342 198/295/341 
f 198/295/341 208/306/356 207/304/355 
f 203/300/361 208/306/360 198/295/346 
f 198/295/346 201/297/345 203/300/361 
f 234/335/416 186/33/417 184/277/418 
f 184/277/418 235/336/419 234/335/416 
f 188/290/420 199/294/421 235/336/422 
f 235/336/422 184/289/423 188/290/420 
f 188/286/321 187/275/320 196/293/339 
f 196/293/339 199/294/342 188/286/321 
f 186/275/316 234/335/409 196/293/408 
f 196/293/408 187/33/317 186/275/316 
f 185/276/424 184/277/425 121/277/426 
f 121/277/426 120/276/427 185/276/424 
f 184/277/428 186/33/428 175/33/429 
f 175/33/429 121/277/429 184/277/428 
f 235/336/430 201/297/430 139/297/430 
f 139/297/430 174/336/430 235/336/430 
f 234/335/431 235/336/431 174/336/432 
f 174/336/432 173/335/432 234/335/431 
f 200/298/410 234/335/409 173/335/287 
f 173/335/287 140/298/286 200/298/410 
f 201/297/345 200/298/344 140/298/223 
f 140/298/223 139/297/222 201/297/345 
usemtl Material__41
f 236/345/433 237/346/434 238/347/435 
f 238/347/435 239/348/436 236/345/433 
f 240/349/437 236/350/438 239/351/439 
f 239/351/439 241/352/440 240/349/437 
f 237/353/441 236/354/442 240/355/443 
f 240/355/443 242/356/444 237/353/441 
f 243/357/445 244/358/446 245/359/447 
f 245/359/447 246/360/448 243/357/445 
f 242/361/449 240/362/450 243/363/451 
f 243/363/451 246/364/452 242/361/449 
f 244/365/453 243/366/454 240/349/437 
f 240/349/437 241/352/440 244/365/453 
usemtl Material__39
f 237/367/434 247/368/455 248/369/456 
f 248/369/456 238/370/435 237/367/434 
usemtl Material__40
f 249/371/457 250/372/458 251/373/459 
f 251/373/459 252/374/460 249/371/457 
f 247/375/461 250/376/462 249/377/463 
f 249/377/463 253/378/464 247/375/461 
f 247/368/455 254/379/465 251/380/466 
f 251/380/466 250/381/467 247/368/455 
f 252/382/468 251/383/469 254/384/470 
f 254/384/470 255/385/471 252/382/468 
usemtl Material__39
f 248/386/472 247/375/461 253/378/464 
f 253/378/464 256/387/473 248/386/472 
usemtl Material__25
f 110/388/474 113/389/475 92/390/476 
f 92/390/476 109/391/477 110/388/474 
f 109/392/478 102/393/479 111/394/480 
f 111/394/480 110/395/481 109/392/478 
f 109/210/160 92/191/144 34/190/143 
f 67/202/152 93/192/145 102/203/153 
f 108/396/159 103/397/154 102/398/153 
f 102/398/153 109/399/160 108/396/159 
usemtl Material__38
f 257/400/482 258/401/482 259/402/482 
f 259/402/482 260/403/482 257/400/482 
usemtl Material__45
f 261/404/483 262/405/483 263/406/483 
f 263/406/483 264/407/483 261/404/483 
f 265/408/484 266/409/485 267/410/486 
f 267/410/486 264/411/487 265/408/484 
f 264/411/487 267/410/486 261/412/486 
f 268/413/488 266/414/488 265/415/488 
f 265/415/488 269/416/488 268/413/488 
f 263/417/489 262/418/490 270/419/491 
f 270/419/491 269/420/492 263/417/489 
f 269/420/492 270/419/491 268/421/491 
usemtl Material__38
f 271/400/482 272/403/482 273/422/482 
f 273/422/482 274/423/482 271/400/482 
usemtl Material__45
f 259/424/482 258/425/482 262/426/482 
f 262/426/482 261/427/482 259/424/482 
f 260/428/482 259/424/482 261/427/482 
f 261/427/482 267/429/482 260/428/482 
f 257/430/482 260/428/482 267/429/482 
f 267/429/482 270/431/482 257/430/482 
f 258/425/482 257/430/482 270/431/482 
f 270/431/482 262/426/482 258/425/482 
f 273/432/482 272/433/482 267/429/482 
f 267/429/482 266/434/482 273/432/482 
f 274/435/482 273/432/482 266/434/482 
f 266/434/482 268/436/482 274/435/482 
f 271/437/482 274/435/482 268/436/482 
f 268/436/482 270/431/482 271/437/482 
f 272/433/482 271/437/482 270/431/482 
f 270/431/482 267/429/482 272/433/482 
usemtl Material__27
f 275/438/493 276/439/493 277/440/493 
f 277/440/493 278/441/493 275/438/493 
f 103/442/494 279/443/494 67/444/494 
f 280/445/495 281/446/495 282/447/495 
f 282/447/495 277/448/495 280/445/495 
f 283/449/496 284/450/497 285/451/497 
f 283/449/496 285/451/498 286/452/498 
f 96/453/499 287/454/499 288/455/499 
f 288/455/499 33/456/499 96/453/499 
f 278/33/500 277/457/501 19/444/502 
f 19/444/502 11/3/7 278/33/500 
f 11/3/503 10/33/503 289/458/503 
f 11/3/503 289/458/503 290/37/503 
f 11/3/503 290/37/503 278/33/503 
f 108/459/504 291/460/504 292/461/504 
f 282/462/505 283/463/506 59/464/507 
f 59/464/507 14/465/43 282/462/505 
f 23/466/22 277/467/508 282/462/505 
f 282/462/505 14/465/43 23/466/22 
usemtl Material__25
f 23/468/509 19/469/509 277/470/509 
usemtl Material__38
f 293/471/510 294/472/511 295/473/512 
f 295/473/512 296/474/510 293/471/510 
f 294/472/511 297/475/513 298/476/514 
f 298/476/514 295/473/512 294/472/511 
f 297/475/513 299/477/515 300/478/516 
f 300/478/516 298/476/514 297/475/513 
f 299/477/515 301/479/517 302/480/518 
f 302/480/518 300/478/516 299/477/515 
f 302/480/518 301/479/517 303/481/519 
f 303/481/519 304/457/520 302/480/518 
f 303/482/519 305/483/521 306/484/522 
f 306/484/522 304/485/520 303/482/519 
f 305/483/521 307/486/523 308/487/524 
f 308/487/524 306/484/522 305/483/521 
f 307/486/523 309/488/525 310/489/526 
f 310/489/526 308/487/524 307/486/523 
f 309/488/525 311/490/527 312/491/527 
f 312/491/527 310/489/526 309/488/525 
f 313/474/528 296/474/529 295/473/530 
f 295/473/530 314/473/531 313/474/528 
f 314/473/531 295/473/530 298/476/532 
f 298/476/532 315/476/533 314/473/531 
f 315/476/533 298/476/532 300/478/534 
f 300/478/534 316/478/535 315/476/533 
f 316/478/535 300/478/534 302/480/536 
f 302/480/536 317/480/537 316/478/535 
f 302/480/536 304/457/538 318/457/538 
f 318/457/538 317/480/537 302/480/536 
f 319/484/539 318/485/538 304/485/538 
f 304/485/538 306/484/539 319/484/539 
f 320/487/540 319/484/539 306/484/539 
f 306/484/539 308/487/541 320/487/540 
f 321/489/542 320/487/540 308/487/541 
f 308/487/541 310/489/543 321/489/542 
f 322/491/544 321/489/542 310/489/543 
f 310/489/543 312/491/545 322/491/544 
usemtl Material__39
f 254/384/546 323/492/547 246/493/548 
f 246/493/548 255/385/549 254/384/546 
f 245/494/550 255/385/549 246/493/548 
f 246/493/548 323/492/547 237/495/551 
f 237/495/551 242/496/552 246/493/548 
f 323/497/553 254/379/465 247/368/455 
f 237/367/434 323/497/553 247/368/455 
usemtl Material__25
f 76/169/125 36/172/128 35/189/142 
f 35/189/142 106/207/157 76/169/125 
f 249/498/554 252/499/555 118/500/556 
f 118/500/556 324/501/557 249/498/554 
f 130/502/558 324/501/557 118/500/556 
f 75/503/559 74/504/560 180/505/561 
f 180/505/561 185/506/562 75/503/559 
f 244/507/563 241/508/564 78/173/129 
f 78/173/129 77/170/126 244/507/563 
f 180/505/561 244/507/563 77/170/126 
f 118/500/556 252/499/555 119/509/565 
f 106/207/157 107/208/158 76/169/125 
f 255/510/566 245/511/567 73/512/568 
f 73/512/568 252/499/555 255/510/566 
f 119/509/565 252/499/555 73/512/568 
f 73/512/568 120/513/569 119/509/565 
f 120/513/569 73/512/568 72/514/570 
f 120/513/569 72/514/570 75/503/559 
f 75/503/559 185/506/562 120/513/569 
f 89/186/139 324/501/557 130/502/558 
f 89/186/139 130/502/558 76/169/125 
f 76/169/125 107/208/158 89/186/139 
usemtl Material__38
f 181/515/302 191/516/302 190/291/302 
f 190/291/302 182/292/302 181/515/302 
f 125/516/180 124/515/180 123/292/180 
f 123/292/180 126/291/180 125/516/180 
usemtl Material__25
f 65/517/571 64/518/572 249/498/554 
f 249/498/554 324/501/557 65/517/571 
f 63/519/573 56/520/574 256/521/575 
f 256/521/575 253/522/576 63/519/573 
f 63/519/573 253/522/576 249/498/554 
f 249/498/554 64/518/572 63/519/573 
f 245/511/567 244/507/563 74/504/560 
f 74/504/560 73/512/568 245/511/567 
f 74/504/560 244/507/563 180/505/561 
f 89/186/139 9/175/131 65/517/571 
f 65/517/571 324/501/557 89/186/139 
usemtl Material__26
f 278/523/577 290/524/577 325/525/577 
f 325/525/577 326/526/577 278/523/577 
f 275/527/578 278/523/578 326/526/578 
usemtl Material__27
f 108/459/579 327/528/579 279/443/579 
f 103/442/494 108/459/494 279/443/494 
usemtl katus
f 26/529/580 289/530/580 10/531/580 
f 10/531/580 13/532/580 26/529/580 
f 325/533/581 290/534/581 289/530/581 
f 289/530/581 328/535/581 325/533/581 
f 26/529/582 328/535/582 289/530/582 
f 26/529/583 27/536/583 328/535/583 
usemtl Material__27
f 279/443/584 5/5/584 67/148/584 
f 279/443/585 276/537/585 328/535/585 
f 326/526/586 325/525/586 328/535/586 
f 275/438/587 326/526/587 328/535/587 
usemtl Material__25
f 328/535/588 27/536/588 6/54/588 
f 328/535/589 6/54/589 5/5/589 
usemtl Material__27
f 279/443/590 328/535/590 5/5/590 
f 276/537/591 275/438/591 328/535/591 
f 291/460/499 108/459/499 34/538/499 
f 34/538/499 329/539/499 291/460/499 
f 329/539/592 34/538/592 33/456/592 
f 33/456/592 288/455/592 329/539/592 
f 287/454/593 330/540/593 286/452/593 
f 286/452/593 288/455/593 287/454/593 
f 327/528/594 108/459/594 292/461/594 
f 291/460/595 284/450/595 281/446/595 
f 281/446/595 292/461/595 291/460/595 
f 327/528/596 280/445/596 276/541/596 
f 276/541/596 279/443/596 327/528/596 
f 327/528/597 292/461/597 281/446/597 
f 281/446/597 280/445/597 327/528/597 
f 284/450/598 291/460/598 329/539/598 
f 329/539/598 285/451/598 284/450/598 
f 285/451/593 329/539/593 288/455/593 
f 288/455/593 286/452/593 285/451/593 
f 330/540/599 283/449/599 286/452/599 
f 284/450/600 283/449/600 282/447/600 
f 282/447/600 281/446/600 284/450/600 
f 280/445/601 277/448/601 276/541/601 
# 628 faces

