# This file uses centimeters as units for non-parametric coordinates.

mtllib Tp8-origo.mtl
g default
v  541733.398437 6588645.37402 21.139944
v  541733.342041 6588645.36267 21.252840
v  541733.254089 6588645.34497 21.342838
v  541733.143433 6588645.32269 21.400393
v  541733.02063 6588645.29797 21.419939
v  541732.897827 6588645.27325 21.400110
v  541732.787292 6588645.25101 21.342377
v  541732.699402 6588645.23334 21.252735
v  541732.660706 6588645.22553 21.175768
v  541732.642883 6588645.22195 21.140213
v  541732.623413 6588645.21802 21.015001
v  541732.643005 6588645.22195 20.889521
v  541732.699341 6588645.23331 20.776894
v  541732.787231 6588645.25101 20.687254
v  541732.702393 6588645.23392 20.773800
v  541732.897888 6588645.27328 20.629372
v  541733.02063 6588645.29797 20.609556
v  541733.143433 6588645.32269 20.629238
v  541733.151184 6588645.32425 20.633280
v  541733.25415 6588645.345 20.686749
v  541733.342041 6588645.36267 20.776596
v  541733.398376 6588645.37402 20.889521
v  541733.417786 6588645.37793 21.014732
v  541730.512207 6588644.79303 21.459606
v  541734.97998 6588645.69238 21.459606
v  541734.97998 6588645.69238 20.060633
v  541730.512207 6588644.79306 20.060633
v  541734.97998 6588645.69269 19.087004
v  541730.512207 6588644.79306 19.087004
v  541729.761719 6588645.26514 22.267000
v  541731.220886 6588638.02475 22.267000
v  541738.063965 6588646.93826 22.267000
v  541739.523132 6588639.69782 22.267000
v  541731.178162 6588644.37851 22.944204
v  541732.13562 6588643.81039 23.621408
v  541732.832092 6588643.38388 24.298611
v  541733.455078 6588643.00446 24.975817
v  541734.05011 6588642.66675 25.653023
v  541732.193115 6588639.40744 22.944202
v  541732.864075 6588640.31576 23.621408
v  541733.349792 6588640.99249 24.298611
v  541733.787354 6588641.59811 24.975817
v  541734.189392 6588642.05148 25.653023
v  541738.106689 6588640.58441 22.944202
v  541737.149414 6588641.15259 23.621408
v  541736.45282 6588641.5791 24.298611
v  541735.830811 6588641.95868 24.975817
v  541735.259827 6588642.23831 25.653023
v  541737.091797 6588645.55554 22.944202
v  541736.420959 6588644.64719 23.621408
v  541735.935181 6588643.97049 24.298611
v  541735.489014 6588643.41211 24.975817
v  541735.103821 6588642.87042 25.653023
v  541734.150146 6588642.66812 24.886639
v  541734.277649 6588642.03537 24.886639
v  541734.150146 6588642.66812 25.943638
v  541734.277649 6588642.03537 25.943638
v  541735.028625 6588642.84518 25.943638
v  541735.156128 6588642.21243 25.943638
v  541735.028625 6588642.84518 24.886639
v  541735.156128 6588642.21243 24.886639
v  541737.556641 6588646.21143 22.003643
v  541738.773926 6588640.1713 22.005283
v  541737.556641 6588646.21143 19.087004
v  541738.773926 6588640.1713 19.086029
v  541737.556641 6588646.21143 20.060633
v  541738.773987 6588640.17136 20.060150
v  541737.556641 6588646.21143 21.459606
v  541738.773987 6588640.17136 21.460430
v  541738.370056 6588642.17392 22.003643
v  541738.370056 6588642.17392 21.290527
v  541738.370056 6588642.17392 20.060633
v  541738.370056 6588642.17392 19.087004
v  541738.577332 6588641.14471 22.003643
v  541738.577332 6588641.14471 21.290527
v  541738.577332 6588641.14471 20.060633
v  541738.577332 6588641.14471 19.087004
v  541738.153015 6588643.2511 22.003643
v  541738.153015 6588643.2511 21.459606
v  541738.153015 6588643.2511 20.060633
v  541738.153015 6588643.2511 19.087004
v  541737.711121 6588645.44507 22.003643
v  541737.711121 6588645.44507 21.459606
v  541737.711121 6588645.44507 20.060633
v  541737.711121 6588645.44507 19.087004
v  541737.539612 6588645.41052 21.459606
v  541737.539612 6588645.41052 20.060633
v  541737.981567 6588643.2168 21.459606
v  541737.981567 6588643.2168 20.060633
v  541738.287537 6588642.15756 21.290527
v  541738.287537 6588642.15756 20.060633
v  541738.495178 6588641.12796 21.290527
v  541738.495178 6588641.12796 20.060633
v  541738.287537 6588642.15756 19.087004
v  541738.495178 6588641.12796 19.087004
v  541730.512207 6588644.79306 22.003643
v  541737.081482 6588646.11551 19.087004
v  541737.081482 6588646.11551 20.060633
v  541737.081482 6588646.11551 21.459606
v  541737.081482 6588646.11551 22.003643
v  541734.97998 6588645.69269 22.003643
v  541737.12085 6588645.92062 20.060633
v  541737.12085 6588645.92062 21.459606
v  541735.01886 6588645.4975 20.060633
v  541735.01886 6588645.4975 21.459606
v  541731.728394 6588638.75143 22.005047
v  541731.727905 6588638.75153 21.460316
v  541731.727905 6588638.75153 20.060219
v  541731.728394 6588638.75143 19.086170
v  541730.660461 6588644.05634 19.086906
v  541730.660767 6588644.05624 20.060585
v  541730.660767 6588644.05624 21.459694
v  541730.660461 6588644.05634 22.003811
v  541730.85437 6588643.08951 19.086750
v  541730.855164 6588643.08936 20.060509
v  541730.855164 6588643.08936 21.459827
v  541730.85437 6588643.08951 22.004074
v  541730.912292 6588642.80453 19.086697
v  541730.91272 6588642.80447 20.060482
v  541730.91272 6588642.80447 21.459875
v  541730.912292 6588642.80453 22.004166
v  541731.101196 6588641.86575 19.086536
v  541731.101196 6588641.86575 20.060402
v  541731.101196 6588641.86575 21.460005
v  541731.101196 6588641.86575 22.004429
v  541731.221191 6588641.26993 19.086418
v  541731.221436 6588641.2699 20.382671
v  541731.221436 6588641.2699 21.460108
v  541731.221191 6588641.26993 22.004627
v  541731.528625 6588639.7428 19.086266
v  541731.528625 6588639.74286 20.382591
v  541731.528625 6588639.74286 21.460236
v  541731.528625 6588639.7428 22.004890
v  541730.839172 6588644.09216 19.086885
v  541730.839294 6588644.09219 20.060574
v  541731.033508 6588643.12524 19.086729
v  541731.033813 6588643.1254 20.060503
v  541730.839294 6588644.09219 21.459694
v  541731.033813 6588643.1254 21.459827
v  541731.090576 6588642.84049 19.086664
v  541731.091248 6588642.84036 20.060467
v  541731.280029 6588641.90182 19.086510
v  541731.280334 6588641.90161 20.060390
v  541731.091248 6588642.84036 21.459875
v  541731.280334 6588641.90161 21.460005
v  541731.400146 6588641.30588 20.382671
v  541731.400146 6588641.30588 21.460108
v  541731.707581 6588639.77887 20.382591
v  541731.707581 6588639.77887 21.460236
v  541737.880066 6588646.69806 22.003643
v  541738.116211 6588645.5267 22.003643
v  541738.775146 6588642.25558 22.003643
v  541738.982788 6588641.22626 22.003643
v  541739.260681 6588639.84793 22.005283
v  541738.558167 6588643.3327 22.003643
v  541736.999756 6588646.52063 22.003643
v  541736.999878 6588646.52069 22.003557
v  541734.898071 6588646.09781 22.003563
v  541730.025513 6588645.11649 22.003578
v  541730.255615 6588643.97473 22.003731
v  541731.404724 6588638.2648 22.004978
v  541730.449829 6588643.00787 22.003950
v  541730.506958 6588642.72302 22.004032
v  541730.696228 6588641.78436 22.004305
v  541730.81604 6588641.18839 22.004509
v  541731.122986 6588639.66132 22.004757
v  541737.880066 6588646.69806 22.249458
v  541738.116211 6588645.5267 22.249458
v  541738.775146 6588642.25558 22.249458
v  541738.982788 6588641.22626 22.249458
v  541738.982971 6588641.22656 22.249458
v  541739.260864 6588639.84818 22.251099
v  541738.558167 6588643.3327 22.249458
v  541737.081421 6588646.1156 22.249458
v  541736.999756 6588646.52063 22.249458
v  541736.999878 6588646.52072 22.249378
v  541734.898071 6588646.09781 22.249382
v  541730.025513 6588645.11655 22.249393
v  541730.255371 6588643.97479 22.249544
v  541731.404968 6588638.26474 22.250792
v  541739.260681 6588639.84793 22.251099
v  541730.449768 6588643.00809 22.249769
v  541730.506897 6588642.72299 22.249846
v  541730.696167 6588641.78436 22.250126
v  541730.815979 6588641.18842 22.250324
v  541731.122925 6588639.66128 22.250576
v  541731.404724 6588638.2648 22.250792
v  541733.437073 6588645.18054 20.889521
v  541733.380615 6588645.16928 20.776566
v  541733.292664 6588645.15173 20.686926
v  541733.181946 6588645.12964 20.629372
v  541733.059143 6588645.10513 20.609541
v  541732.93634 6588645.08066 20.629372
v  541732.825623 6588645.05856 20.686926
v  541732.737671 6588645.04102 20.776566
v  541732.681213 6588645.02976 20.889521
v  541732.661804 6588645.02588 21.014732
v  541732.681213 6588645.02976 21.139944
v  541732.737671 6588645.04102 21.252899
v  541732.825623 6588645.05856 21.342541
v  541732.93634 6588645.08066 21.400095
v  541733.059143 6588645.10513 21.419924
v  541733.181946 6588645.12964 21.400095
v  541733.292664 6588645.15173 21.342541
v  541733.380615 6588645.16928 21.252899
v  541733.437073 6588645.18054 21.139944
v  541733.456482 6588645.18442 21.014732
v  541733.059143 6588645.10513 21.014732
v  541732.636169 6588645.25574 21.139944
v  541732.616699 6588645.25186 21.014732
v  541732.636169 6588645.25574 20.889521
v  541732.692627 6588645.267 20.776566
v  541732.780518 6588645.28455 20.686926
v  541732.891296 6588645.30664 20.629372
v  541733.014038 6588645.33112 20.609541
v  541733.136841 6588645.35559 20.629372
v  541733.24762 6588645.37769 20.686926
v  541733.335571 6588645.39526 20.776566
v  541733.391968 6588645.40649 20.889521
v  541733.411377 6588645.4104 21.014732
v  541733.391968 6588645.40649 21.139944
v  541733.335571 6588645.39526 21.252899
v  541733.24762 6588645.37769 21.342541
v  541733.136841 6588645.35559 21.400095
v  541733.014038 6588645.33112 21.419924
v  541732.891296 6588645.30664 21.400095
v  541732.780518 6588645.28455 21.342541
v  541732.692627 6588645.267 21.252899
v  541732.500916 6588645.22879 21.184757
v  541732.474487 6588645.22354 21.014732
v  541732.500916 6588645.22879 20.844707
v  541732.577576 6588645.24408 20.691359
v  541732.69696 6588645.26788 20.569656
v  541732.847351 6588645.29785 20.491510
v  541733.013977 6588645.33112 20.464584
v  541733.180725 6588645.36438 20.491508
v  541733.331177 6588645.39435 20.569637
v  541733.450623 6588645.41818 20.691368
v  541733.527222 6588645.43347 20.844767
v  541733.553589 6588645.43878 21.014732
v  541733.527222 6588645.43347 21.184698
v  541733.450623 6588645.41818 21.338095
v  541733.331177 6588645.39435 21.459827
v  541733.180725 6588645.36438 21.537958
v  541733.014038 6588645.33112 21.564880
v  541732.847412 6588645.29785 21.537956
v  541732.69696 6588645.26788 21.459808
v  541732.577576 6588645.24408 21.338104
v  541732.507019 6588645.19791 21.184759
v  541732.480591 6588645.19266 21.014732
v  541732.507019 6588645.19791 20.844706
v  541732.583679 6588645.2132 20.691353
v  541732.703064 6588645.237 20.569656
v  541732.853455 6588645.26697 20.491514
v  541733.020081 6588645.30023 20.464584
v  541733.186829 6588645.3335 20.491503
v  541733.33728 6588645.36346 20.569637
v  541733.456726 6588645.3873 20.691372
v  541733.533325 6588645.40259 20.844770
v  541733.559692 6588645.4079 21.014732
v  541733.533325 6588645.40259 21.184692
v  541733.456726 6588645.3873 21.338089
v  541733.33728 6588645.36346 21.459829
v  541733.186829 6588645.3335 21.537970
v  541733.020142 6588645.30023 21.564884
v  541732.853516 6588645.26697 21.537951
v  541732.703064 6588645.237 21.459805
v  541732.583679 6588645.2132 21.338108
vt 0.607274 0.932603
vt -1.252640 0.932603
vt 0.607274 1.625339
vt -1.252640 1.625339
vt -0.757825 0.225396
vt 1.753291 0.211127
vt 1.757841 0.953323
vt -0.753275 0.967592
vt 0.214216 0.552056
vt 0.271914 0.523361
vt 0.524615 0.596478
vt 0.526340 0.598109
vt 0.558370 0.657681
vt 0.569790 0.724190
vt 0.559254 0.790680
vt 0.549352 0.809600
vt 0.527853 0.850557
vt 0.478746 0.898395
vt 0.416808 0.929378
vt 0.347851 0.940290
vt 0.278766 0.930312
vt 0.216384 0.900131
vt 0.166658 0.852665
vt 0.134593 0.792951
vt 0.123311 0.726584
vt 0.133813 0.660094
vt 0.165109 0.600004
vt 0.476649 0.550833
vt 0.524615 0.596478
vt 0.271914 0.523361
vt 0.276258 0.521192
vt 0.345215 0.510358
vt 0.414266 0.520479
vt 2.053492 -4.909336
vt 2.710359 -4.893689
vt 2.739869 -3.762347
vt 2.062349 -3.791552
vt -7.161088 0.449051
vt -7.161088 -8.372071
vt 0.531860 -8.372071
vt 0.531826 0.448984
vt -7.161088 0.550949
vt 0.531826 0.551016
vt -0.679932 1.828154
vt -5.964384 1.814731
vt -1.469277 2.700151
vt -5.187292 2.675450
vt 5.177609 -5.958084
vt 1.459596 -5.958084
vt 2.050628 -6.663431
vt 4.598833 -6.663431
vt 2.578926 -7.368780
vt 4.083228 -7.368780
vt 2.959125 -8.074126
vt 3.615991 -8.074126
vt -4.171739 4.254064
vt 4.649314 4.254030
vt 3.385537 5.450710
vt -2.894601 5.465822
vt 2.525014 6.227820
vt -2.022605 6.255166
vt 6.009905 -1.544604
vt 1.462286 -1.544604
vt 2.085768 -2.249951
vt 5.374740 -2.249951
vt 2.642701 -2.955299
vt 4.803344 -2.955299
vt 3.168205 -3.660646
vt 4.299546 -3.660646
vt 0.531860 9.372070
vt -7.161088 9.372070
vt -5.949330 8.094928
vt -0.664820 8.108293
vt -5.159917 7.223068
vt -1.441931 7.247769
vt 3.075177 -8.993108
vt 6.793164 -8.993107
vt 6.202203 -8.287762
vt 3.653992 -8.287762
vt 5.723865 -7.582413
vt 4.169552 -7.582413
vt 5.250061 -6.877065
vt 4.572540 -6.877065
vt -11.278584 4.253989
vt -2.457462 4.253989
vt -3.721244 5.450692
vt -10.001440 5.465747
vt -4.581963 6.227785
vt -9.129581 6.255159
vt 6.009902 -3.751328
vt 1.462284 -3.751328
vt 2.085635 -4.456676
vt 5.374659 -4.456675
vt 2.643643 -5.162023
vt 4.804232 -5.162024
vt 3.181696 -5.867371
vt 4.299478 -5.867372
vt 0.168220 -0.827119
vt 0.831780 -0.827119
vt 0.831780 -0.163559
vt 0.168220 -0.163559
vt -0.002788 -0.001697
vt 1.002788 -0.001697
vt 1.002788 1.003879
vt -0.002788 1.003879
vt 0.168220 0.500000
vt 0.831780 0.500000
vt 0.831780 1.163559
vt 0.168220 1.163559
vt 0.831780 1.827119
vt 0.168220 1.827119
vt 0.831780 -0.827119
vt 1.495339 -0.827119
vt 1.495339 -0.163559
vt 0.831780 -0.163559
vt -0.495339 -0.827119
vt 0.168220 -0.827119
vt 0.168220 -0.163559
vt -0.495339 -0.163559
vt 2.239770 0.226577
vt 1.798349 0.226579
vt 1.798345 -0.322994
vt 2.239767 -0.322996
vt 2.239774 1.016241
vt 1.798353 1.016243
vt 2.239776 1.323328
vt 1.798355 1.323329
vt -0.085935 1.323330
vt -0.678770 1.323331
vt -0.678772 0.920806
vt -0.085937 0.920806
vt 0.988075 0.441852
vt 0.988075 1.000000
vt 0.011925 1.000000
vt 0.011925 0.441852
vt 0.988075 0.000000
vt 0.011925 0.000000
vt -1.239566 1.324266
vt -1.239514 1.016719
vt -0.678777 0.226581
vt -1.239519 0.226318
vt -0.678780 -0.322992
vt -1.239576 -0.323534
vt 0.534561 1.323329
vt 0.534559 1.016243
vt 0.534554 0.226579
vt -0.085941 0.226580
vt 0.534552 -0.322994
vt -0.085944 -0.322993
vt 0.000000 1.000000
vt 0.000000 0.000000
vt 1.000000 0.000000
vt 1.000000 1.000000
vt 1.798353 1.013456
vt 1.798349 0.223792
vt 0.534692 1.013458
vt 0.534687 0.223794
vt -0.085778 0.919466
vt -0.085782 0.225240
vt -0.678879 0.919470
vt -0.678883 0.225244
vt -0.085785 -0.324333
vt -0.678886 -0.324329
vt 1.679925 -0.449848
vt 1.679925 -0.062765
vt 1.482123 -0.062765
vt 1.482123 -0.449848
vt 1.679925 0.932603
vt 1.679925 1.625339
vt 1.482123 1.625339
vt 1.482123 0.932603
vt 0.607274 1.625339
vt 0.607274 0.932603
vt 1.000031 0.167227
vt 1.000031 0.832773
vt 0.000031 0.832773
vt 0.000031 0.167227
vt 0.607274 -0.062765
vt 0.607274 -0.449848
vt 1.498505 0.932603
vt 1.498505 -0.062765
vt 0.623480 0.932603
vt 0.623480 -0.062765
vt -2.405249 -0.439719
vt -2.405249 -0.056782
vt -1.933683 -0.056844
vt -1.934690 -0.439837
vt -2.405249 0.927926
vt -2.405249 1.613243
vt -1.934690 1.613311
vt -1.933683 0.927958
vt -0.852461 -0.695314
vt -0.852461 -0.208122
vt 2.416683 -0.208224
vt 2.416650 -0.695527
vt -0.852461 1.044090
vt -0.852461 1.915253
vt 2.416650 1.915379
vt 2.416683 1.044151
vt 0.005399 0.410369
vt 0.005436 0.000066
vt 0.994616 0.000000
vt 0.994543 0.410339
vt 0.005399 0.999944
vt 0.994543 1.000000
vt -1.369528 -0.056939
vt -1.370533 -0.440023
vt -1.369528 0.928012
vt -1.370533 1.613421
vt -1.188034 1.613459
vt -1.186919 0.928031
vt -1.186919 -0.056973
vt -1.188034 -0.440087
vt -0.000802 0.410347
vt -0.001067 0.000065
vt 1.000802 -0.000001
vt 1.001067 0.410315
vt -0.000802 0.999944
vt -0.000802 0.410347
vt 1.001067 0.410315
vt 1.001067 0.999999
vt -0.535200 -0.057063
vt -0.535762 -0.440273
vt -0.535200 0.928088
vt -0.535762 1.613572
vt -0.154886 1.613657
vt -0.154103 0.701251
vt -0.154103 -0.057134
vt -0.154886 -0.440411
vt 0.821009 1.613764
vt 0.821345 0.701307
vt 0.000027 0.845785
vt 0.000063 0.154104
vt 1.000002 0.154105
vt 0.999966 0.845920
vt 0.821345 -0.057224
vt 0.821009 -0.440595
vt 1.455055 1.613830
vt 1.455055 0.928219
vt 1.455055 -0.057281
vt 1.455055 -0.440705
vt -1.367403 1.613325
vt -1.367067 0.927968
vt -0.802577 0.928017
vt -0.802687 1.613435
vt -1.367067 -0.056844
vt -0.802577 -0.056939
vt -0.621755 1.613482
vt -0.620189 0.928042
vt 0.032869 0.928096
vt 0.031862 1.613590
vt -0.620189 -0.056973
vt 0.032869 -0.057063
vt 0.413184 0.701251
vt 0.413184 -0.057134
vt 1.388968 0.701307
vt 1.388968 -0.057224
vt 1.923519 -0.694062
vt 1.851839 -0.694062
vt 2.001902 -0.694062
vt 2.111474 -0.694062
vt 2.325583 -0.694060
vt 2.229269 -0.694062
vt 2.417222 -0.694062
vt 2.513570 -0.694060
vt 2.416650 -0.695527
vt 2.642513 -0.695527
vt 2.128556 -0.694062
vt 2.316543 -0.694062
vt 1.448098 -0.449848
vt 1.814560 -0.449848
vt 0.573219 -0.449790
vt 1.448142 -0.449787
vt -1.252640 -0.449848
vt -1.455253 -0.449801
vt -3.220115 -0.439781
vt -3.950110 -0.439673
vt 2.642513 -0.695527
vt -1.002621 -0.695253
vt -2.656185 -0.439935
vt -2.474246 -0.439994
vt -1.821190 -0.440183
vt -1.440872 -0.440327
vt -0.465089 -0.440502
vt 0.427833 -0.440657
vt 2.001902 -0.913913
vt 2.111474 -0.913913
vt 2.417222 -0.913913
vt 2.513570 -0.913911
vt 2.513652 -0.913911
vt 2.642595 -0.915378
vt 2.316543 -0.913913
vt 1.482094 -0.624745
vt 1.448098 -0.624745
vt 1.814560 -0.624745
vt 1.448142 -0.624687
vt 0.573249 -0.624690
vt -1.455253 -0.624698
vt -3.220563 -0.612804
vt -3.950110 -0.612697
vt 2.642513 -0.915378
vt -1.002523 -0.915102
vt -2.656408 -0.612962
vt -2.474246 -0.613017
vt -1.821410 -0.613212
vt -1.441095 -0.613352
vt -0.465200 -0.613528
vt 0.427720 -0.613680
vt 0.494855 0.857311
vt 0.494885 0.857304
vt 0.602893 0.840212
vt 0.602893 0.840183
vt 0.700371 0.790530
vt 0.700369 0.790515
vt 0.777712 0.713177
vt 0.777696 0.713213
vt 0.827364 0.615697
vt 0.827350 0.615733
vt 0.844472 0.507709
vt 0.844472 0.507687
vt 0.827353 0.399688
vt 0.827341 0.399695
vt 0.777691 0.302251
vt 0.777691 0.302222
vt 0.700351 0.224893
vt 0.700351 0.224871
vt 0.602889 0.175211
vt 0.602875 0.175247
vt 0.494856 0.158126
vt 0.494856 0.158105
vt 0.386818 0.175255
vt 0.386818 0.175226
vt 0.289367 0.224893
vt 0.289354 0.224901
vt 0.212028 0.302225
vt 0.212028 0.302203
vt 0.162376 0.399640
vt 0.162361 0.399676
vt 0.145268 0.507693
vt 0.145252 0.507729
vt 0.162385 0.615735
vt 0.162383 0.615720
vt 0.212021 0.713216
vt 0.212021 0.713187
vt 0.289391 0.790538
vt 0.289360 0.790545
vt 0.386847 0.840162
vt 0.386833 0.840198
vt 0.494855 0.507704
vt 0.654497 0.024481
vt 0.499983 0.000021
vt 0.793880 0.095510
vt 0.904474 0.206130
vt 0.975468 0.345522
vt 0.999952 0.500003
vt 0.975498 0.654423
vt 0.904490 0.793812
vt 0.793890 0.904449
vt 0.654474 0.975552
vt 0.499954 0.999966
vt 0.345516 0.975508
vt 0.206160 0.904510
vt 0.095524 0.793946
vt 0.024521 0.654477
vt 0.000067 0.499961
vt 0.024523 0.345482
vt 0.095518 0.206215
vt 0.206131 0.095561
vt 0.345507 0.024519
vt 0.654514 0.024443
vt 0.499998 -0.000010
vt 0.793900 0.095480
vt 0.904480 0.206093
vt 0.975485 0.345461
vt 0.999964 0.499941
vt 0.975515 0.654362
vt 0.904510 0.793753
vt 0.793907 0.904411
vt 0.654490 0.975482
vt 0.499968 0.999934
vt 0.345518 0.975447
vt 0.206182 0.904481
vt 0.095547 0.793879
vt 0.024536 0.654438
vt 0.000074 0.499897
vt 0.024538 0.345450
vt 0.095524 0.206155
vt 0.206152 0.095500
vt 0.345505 0.024480
vt 0.607274 -0.449848
vt 0.607274 -0.062765
vt -1.252640 -0.062765
vt -1.252640 -0.449848
vn -0.197344 0.980334 0.000000
vn -0.197344 0.980334 0.000000
vn -0.197344 0.980334 0.000000
vn -0.197344 0.980334 0.000000
vn -0.197344 0.980334 0.000000
vn -0.197344 0.980334 0.000000
vn -0.197344 0.980334 0.000000
vn -0.197344 0.980334 0.000000
vn -0.197344 0.980334 0.000000
vn -0.197344 0.980334 0.000000
vn -0.197344 0.980334 0.000000
vn -0.197344 0.980334 0.000000
vn -0.197344 0.980334 0.000000
vn -0.197344 0.980334 0.000000
vn -0.197344 0.980334 0.000000
vn -0.197344 0.980334 0.000000
vn -0.197344 0.980334 0.000000
vn -0.197344 0.980334 0.000000
vn -0.197344 0.980334 0.000000
vn -0.197344 0.980334 0.000000
vn -0.197344 0.980334 0.000000
vn -0.197344 0.980334 0.000000
vn -0.197335 0.980336 0.000034
vn -0.197335 0.980336 0.000034
vn -0.197335 0.980336 0.000034
vn -0.197335 0.980336 0.000034
vn -0.197335 0.980336 0.000034
vn -0.197335 0.980336 0.000034
vn -0.197335 0.980336 0.000034
vn -0.197335 0.980336 0.000034
vn -0.197335 0.980336 0.000034
vn -0.197364 0.980330 0.000138
vn -0.197364 0.980330 0.000138
vn -0.197364 0.980330 0.000138
vn -0.197364 0.980330 0.000138
vn 0.000000 0.000000 1.000000
vn 0.000000 0.000000 1.000000
vn 0.000000 0.000000 1.000000
vn 0.000000 0.000000 1.000000
vn 0.000000 0.000000 -1.000000
vn 0.000000 0.000000 -1.000000
vn 0.000000 0.000000 -1.000000
vn 0.000000 0.000000 -1.000000
vn -0.475721 -0.096384 0.874299
vn -0.475721 -0.096384 0.874299
vn -0.549194 -0.112305 0.828114
vn -0.549194 -0.112305 0.828114
vn -0.676335 -0.141391 0.722896
vn -0.676335 -0.141391 0.722896
vn -0.746173 -0.162588 0.645593
vn -0.746173 -0.162588 0.645593
vn -0.773157 -0.176791 0.609076
vn -0.773157 -0.176791 0.609076
vn -0.784193 -0.182986 0.592923
vn -0.784193 -0.182986 0.592923
vn 0.099350 -0.495550 0.862879
vn 0.099350 -0.495550 0.862879
vn 0.115083 -0.579018 0.807152
vn 0.115083 -0.579018 0.807152
vn 0.137989 -0.708055 0.692544
vn 0.137989 -0.708055 0.692544
vn 0.145614 -0.773501 0.616841
vn 0.145614 -0.773501 0.616841
vn 0.148770 -0.827675 0.541130
vn 0.148770 -0.827675 0.541130
vn 0.151409 -0.861264 0.485078
vn 0.151409 -0.861264 0.485078
vn 0.475728 0.096384 0.874296
vn 0.475728 0.096384 0.874296
vn 0.549233 0.112313 0.828088
vn 0.549233 0.112313 0.828088
vn 0.676344 0.141399 0.722886
vn 0.676344 0.141399 0.722886
vn 0.746588 0.162571 0.645117
vn 0.746588 0.162571 0.645117
vn 0.774012 0.178965 0.607353
vn 0.774012 0.178965 0.607353
vn 0.785014 0.187367 0.590463
vn 0.785014 0.187367 0.590463
vn -0.099352 0.495538 0.862885
vn -0.099352 0.495538 0.862885
vn -0.115085 0.579011 0.807156
vn -0.115085 0.579011 0.807156
vn -0.137991 0.708059 0.692540
vn -0.137991 0.708059 0.692540
vn -0.150593 0.779814 0.607628
vn -0.150593 0.779814 0.607628
vn -0.158466 0.809384 0.565497
vn -0.158466 0.809384 0.565497
vn -0.161574 0.816074 0.554903
vn -0.161574 0.816074 0.554903
vn -0.980297 -0.197528 0.000000
vn -0.980297 -0.197528 0.000000
vn -0.980297 -0.197528 0.000000
vn -0.980297 -0.197528 0.000000
vn -0.000001 0.000000 1.000000
vn -0.000001 0.000000 1.000000
vn -0.000001 0.000000 1.000000
vn -0.000001 0.000000 1.000000
vn 0.980280 0.197614 0.000000
vn 0.980280 0.197614 0.000000
vn 0.980280 0.197614 0.000000
vn 0.980280 0.197614 0.000000
vn 0.000002 0.000000 -1.000000
vn 0.000002 0.000000 -1.000000
vn 0.000002 0.000000 -1.000000
vn 0.000002 0.000000 -1.000000
vn 0.197575 -0.980288 0.000000
vn 0.197575 -0.980288 0.000000
vn 0.197575 -0.980288 0.000000
vn 0.197575 -0.980288 0.000000
vn -0.197588 0.980285 0.000000
vn -0.197588 0.980285 0.000000
vn -0.197588 0.980285 0.000000
vn -0.197588 0.980285 0.000000
vn 0.980289 0.197571 0.000000
vn 0.980297 0.197529 0.000000
vn 0.980300 0.197514 0.000000
vn 0.980286 0.197583 0.000000
vn 0.980286 0.197584 0.000000
vn 0.980295 0.197541 0.000000
vn 0.980281 0.197608 0.000000
vn 0.980296 0.197532 0.000000
vn 0.980308 0.197476 0.000000
vn 0.980265 0.197689 0.000024
vn 0.980244 0.197793 0.000016
vn 0.980305 0.197489 0.000000
vn 0.980266 0.197681 0.000000
vn 0.980265 0.197687 0.000000
vn 0.980265 0.197687 0.000000
vn 0.980266 0.197681 0.000000
vn 0.980268 0.197675 0.000000
vn 0.980268 0.197675 0.000000
vn 0.980217 0.197929 0.000049
vn 0.980209 0.197964 0.000024
vn 0.980203 0.197994 -0.000016
vn 0.980203 0.197994 -0.000016
vn 0.980204 0.197988 -0.000032
vn 0.980204 0.197988 -0.000032
vn 0.980307 0.197480 0.000000
vn 0.980305 0.197491 0.000000
vn 0.980305 0.197490 0.000000
vn 0.980301 0.197512 0.000000
vn 0.980307 0.197477 0.000000
vn 0.980301 0.197509 0.000000
vn 0.980304 0.197496 0.000000
vn 0.980304 0.197496 0.000000
vn 0.980304 0.197496 0.000000
vn 0.980304 0.197496 0.000000
vn 0.197463 -0.980310 0.000000
vn 0.197463 -0.980310 0.000000
vn 0.197463 -0.980310 0.000000
vn 0.197463 -0.980310 0.000000
vn -0.000002 0.000000 -1.000000
vn -0.000002 0.000000 -1.000000
vn -0.000002 0.000000 -1.000000
vn -0.000002 0.000000 -1.000000
vn -0.196170 0.980570 0.000000
vn -0.196170 0.980570 0.000000
vn -0.196170 0.980570 0.000000
vn -0.196170 0.980570 0.000000
vn -0.000002 0.000000 1.000000
vn -0.000002 0.000000 1.000000
vn -0.000002 0.000000 1.000000
vn -0.000002 0.000000 1.000000
vn 0.194456 -0.980911 0.000000
vn 0.194421 -0.980918 0.000000
vn 0.194421 -0.980918 0.000000
vn 0.194456 -0.980911 0.000000
vn 0.000009 0.000000 -1.000000
vn 0.000009 0.000000 -1.000000
vn 0.000009 0.000000 -1.000000
vn 0.000009 0.000000 -1.000000
vn -0.199760 0.979845 0.000000
vn -0.199756 0.979846 0.000000
vn -0.199756 0.979846 0.000000
vn -0.199760 0.979845 0.000000
vn 0.194491 -0.980904 0.000000
vn 0.194491 -0.980904 0.000000
vn -0.199752 0.979846 0.000000
vn -0.199752 0.979846 0.000000
vn -0.197887 0.980225 0.000000
vn -0.197879 0.980227 0.000000
vn -0.197690 0.980265 -0.000122
vn -0.197600 0.980283 -0.000183
vn -0.197868 0.980229 0.000000
vn -0.197864 0.980229 0.000000
vn -0.197590 0.980285 0.000102
vn -0.197684 0.980266 0.000068
vn -0.197315 0.980340 0.000205
vn -0.197315 0.980340 0.000205
vn -0.197340 0.980335 0.000000
vn -0.197340 0.980335 0.000000
vn -0.197340 0.980335 0.000000
vn -0.197340 0.980335 0.000000
vn -0.197312 0.980341 -0.000366
vn -0.197312 0.980341 -0.000366
vn -0.980215 -0.197934 0.000000
vn -0.980215 -0.197934 0.000000
vn -0.980215 -0.197934 0.000000
vn -0.980215 -0.197934 0.000000
vn -0.000001 0.000000 1.000000
vn -0.000001 0.000000 1.000000
vn -0.000001 0.000000 1.000000
vn -0.000001 0.000000 1.000000
vn 0.980639 0.195824 0.000000
vn 0.980639 0.195824 0.000000
vn 0.980639 0.195824 0.000000
vn 0.980639 0.195824 0.000000
vn 0.000000 0.000000 -1.000000
vn 0.000000 0.000000 -1.000000
vn 0.000000 0.000000 -1.000000
vn 0.000000 0.000000 -1.000000
vn -0.980303 -0.197497 -0.000252
vn -0.980290 -0.197565 -0.000130
vn -0.980339 -0.197323 -0.000399
vn -0.980370 -0.197167 -0.000595
vn -0.980282 -0.197606 0.000069
vn -0.980287 -0.197578 0.000146
vn -0.980287 -0.197578 0.000146
vn -0.980282 -0.197606 0.000069
vn 0.197547 -0.980293 -0.000125
vn 0.197542 -0.980294 -0.000062
vn 0.197542 -0.980294 -0.000062
vn 0.197547 -0.980293 -0.000125
vn 0.197542 -0.980294 0.000035
vn 0.197546 -0.980294 0.000070
vn 0.197546 -0.980294 0.000070
vn 0.197542 -0.980294 0.000035
vn -0.980358 -0.197227 0.000115
vn -0.980368 -0.197178 0.000230
vn -0.980368 -0.197178 0.000230
vn -0.980358 -0.197227 0.000115
vn -0.980348 -0.197276 0.000000
vn -0.980348 -0.197276 0.000000
vn -0.980249 -0.197768 -0.000666
vn -0.980265 -0.197685 -0.001000
vn -0.980139 -0.198312 0.000296
vn -0.980063 -0.198688 0.000593
vn -0.980063 -0.198688 0.000593
vn -0.980139 -0.198312 0.000296
vn -0.980232 -0.197851 -0.000480
vn -0.980240 -0.197808 -0.000721
vn -0.980298 -0.197522 0.000225
vn -0.980287 -0.197578 0.000450
vn -0.980287 -0.197578 0.000450
vn -0.980298 -0.197522 0.000225
vn -0.980310 -0.197466 0.000000
vn -0.980310 -0.197466 0.000000
vn -0.980298 -0.197522 -0.000196
vn -0.980325 -0.197391 -0.000294
vn -0.980271 -0.197656 0.000050
vn -0.980297 -0.197529 0.000100
vn -0.980323 -0.197401 0.000095
vn -0.980297 -0.197528 0.000063
vn -0.980285 -0.197589 -0.000141
vn -0.980304 -0.197492 -0.000212
vn -0.980344 -0.197294 -0.000054
vn -0.980358 -0.197228 -0.000036
vn -0.980327 -0.197378 0.000000
vn -0.980327 -0.197378 0.000000
vn -0.980327 -0.197378 0.000000
vn -0.980327 -0.197378 0.000000
vn -0.980358 -0.197228 0.000067
vn -0.980345 -0.197293 0.000100
vn -0.980340 -0.197315 -0.000199
vn -0.980362 -0.197206 -0.000100
vn -0.980364 -0.197199 0.000208
vn -0.980343 -0.197300 0.000416
vn 0.197218 -0.980360 -0.000022
vn 0.197013 -0.980401 -0.000043
vn 0.197013 -0.980401 -0.000043
vn 0.197218 -0.980360 -0.000022
vn -0.196673 0.980469 0.000129
vn -0.197212 0.980361 0.000064
vn -0.197212 0.980361 0.000064
vn -0.196673 0.980469 0.000129
vn 0.197424 -0.980318 0.000000
vn 0.197424 -0.980318 0.000000
vn -0.197752 0.980252 0.000000
vn -0.197752 0.980252 0.000000
vn 0.000020 -0.000133 -1.000000
vn 0.000020 -0.000133 -1.000000
vn 0.000020 -0.000133 -1.000000
vn 0.000020 -0.000133 -1.000000
vn 0.197231 -0.980357 -0.000086
vn 0.197367 -0.980330 -0.000172
vn 0.197367 -0.980330 -0.000172
vn 0.197231 -0.980357 -0.000086
vn -0.197106 0.980382 0.000129
vn -0.196691 0.980465 0.000064
vn -0.196691 0.980465 0.000064
vn -0.197106 0.980382 0.000129
vn 0.197094 -0.980385 0.000000
vn 0.197094 -0.980385 0.000000
vn -0.196277 0.980549 0.000000
vn -0.196277 0.980549 0.000000
vn 0.000023 -0.000133 -1.000000
vn 0.000023 -0.000133 -1.000000
vn 0.000023 -0.000133 -1.000000
vn 0.000023 -0.000133 -1.000000
vn 0.197416 -0.980320 0.000000
vn 0.197416 -0.980320 0.000000
vn 0.197416 -0.980320 0.000000
vn 0.197416 -0.980320 0.000000
vn 0.000012 -0.000050 1.000000
vn 0.000012 -0.000050 1.000000
vn 0.000012 -0.000050 1.000000
vn 0.000012 -0.000050 1.000000
vn -0.197253 0.980353 0.000000
vn -0.197253 0.980353 0.000000
vn -0.197253 0.980353 0.000000
vn -0.197253 0.980353 0.000000
vn 0.000022 -0.000080 -1.000000
vn 0.000022 -0.000080 -1.000000
vn 0.000022 -0.000080 -1.000000
vn 0.000022 -0.000080 -1.000000
vn -0.000005 0.000000 -1.000000
vn -0.000005 0.000000 -1.000000
vn -0.000005 0.000000 -1.000000
vn -0.000005 0.000000 -1.000000
vn -0.000001 0.000000 -1.000000
vn -0.000001 0.000000 -1.000000
vn -0.000001 0.000000 -1.000000
vn -0.000001 0.000000 -1.000000
vn -0.000403 -0.001475 -0.999999
vn -0.000403 -0.001475 -0.999999
vn -0.000403 -0.001475 -0.999999
vn -0.000403 -0.001475 -0.999999
vn 0.000000 0.000000 -1.000000
vn 0.000000 0.000000 -1.000000
vn 0.000000 0.000000 -1.000000
vn 0.000000 0.000000 -1.000000
vn -0.000000 0.000000 -1.000000
vn -0.000000 0.000000 -1.000000
vn -0.000000 0.000000 -1.000000
vn -0.000000 0.000000 -1.000000
vn 0.000000 0.000000 -1.000000
vn 0.000000 0.000000 -1.000000
vn 0.000000 0.000000 -1.000000
vn 0.000000 0.000000 -1.000000
vn 0.000039 -0.000197 -1.000000
vn 0.000039 -0.000197 -1.000000
vn 0.000039 -0.000197 -1.000000
vn 0.000039 -0.000197 -1.000000
vn 0.000033 -0.000173 -1.000000
vn 0.000033 -0.000173 -1.000000
vn 0.000033 -0.000173 -1.000000
vn 0.000033 -0.000173 -1.000000
vn 0.000122 -0.000146 -1.000000
vn 0.000122 -0.000146 -1.000000
vn 0.000122 -0.000146 -1.000000
vn 0.000122 -0.000146 -1.000000
vn 0.000018 0.000089 -1.000000
vn 0.000018 0.000089 -1.000000
vn 0.000018 0.000089 -1.000000
vn 0.000018 0.000089 -1.000000
vn 0.000289 -0.000191 -1.000000
vn 0.000289 -0.000191 -1.000000
vn 0.000289 -0.000191 -1.000000
vn 0.000289 -0.000191 -1.000000
vn 0.000361 -0.000231 -1.000000
vn 0.000361 -0.000231 -1.000000
vn 0.000361 -0.000231 -1.000000
vn 0.000361 -0.000231 -1.000000
vn 0.000356 -0.000213 -1.000000
vn 0.000356 -0.000213 -1.000000
vn 0.000356 -0.000213 -1.000000
vn 0.000356 -0.000213 -1.000000
vn 0.000358 -0.000267 -1.000000
vn 0.000358 -0.000267 -1.000000
vn 0.000358 -0.000267 -1.000000
vn 0.000358 -0.000267 -1.000000
vn 0.000328 -0.000101 -1.000000
vn 0.000328 -0.000101 -1.000000
vn 0.000328 -0.000101 -1.000000
vn 0.000328 -0.000101 -1.000000
vn 0.000348 -0.000088 -1.000000
vn 0.000348 -0.000088 -1.000000
vn 0.000348 -0.000088 -1.000000
vn 0.000348 -0.000088 -1.000000
vn 0.980280 0.197612 0.000000
vn 0.980280 0.197612 0.000000
vn 0.980280 0.197612 0.000000
vn 0.980280 0.197612 0.000000
vn 0.980255 0.197739 0.000000
vn 0.980255 0.197739 0.000000
vn 0.980255 0.197739 0.000000
vn 0.980255 0.197739 0.000000
vn 0.980282 0.197601 -0.000919
vn 0.980282 0.197601 -0.000919
vn 0.980282 0.197601 -0.000919
vn 0.980282 0.197601 -0.000919
vn 0.980313 0.197451 0.000000
vn 0.980313 0.197451 0.000000
vn 0.980313 0.197451 0.000000
vn 0.980313 0.197451 0.000000
vn 0.980307 0.197477 0.000000
vn 0.980307 0.197477 0.000000
vn 0.980307 0.197477 0.000000
vn 0.980307 0.197477 0.000000
vn -0.980265 -0.197687 -0.000075
vn -0.980265 -0.197687 -0.000075
vn -0.980265 -0.197687 -0.000075
vn -0.980265 -0.197687 -0.000075
vn -0.197574 0.980288 0.000000
vn -0.197574 0.980288 0.000000
vn -0.197574 0.980288 0.000000
vn -0.197574 0.980288 0.000000
vn 0.980331 0.197360 0.000081
vn 0.980331 0.197360 0.000081
vn 0.980331 0.197360 0.000081
vn 0.980331 0.197360 0.000081
vn -0.197250 0.980353 0.000000
vn -0.197250 0.980353 0.000000
vn -0.197250 0.980353 0.000000
vn -0.197250 0.980353 0.000000
vn -0.197426 0.980318 -0.000200
vn -0.197426 0.980318 -0.000200
vn -0.197426 0.980318 -0.000200
vn -0.197426 0.980318 -0.000200
vn -0.980320 -0.197414 -0.000453
vn -0.980320 -0.197414 -0.000453
vn -0.980320 -0.197414 -0.000453
vn -0.980320 -0.197414 -0.000453
vn 0.197557 -0.980291 -0.000215
vn 0.197557 -0.980291 -0.000215
vn 0.197557 -0.980291 -0.000215
vn 0.197557 -0.980291 -0.000215
vn -0.980385 -0.197089 -0.000510
vn -0.980385 -0.197089 -0.000510
vn -0.980385 -0.197089 -0.000510
vn -0.980385 -0.197089 -0.000510
vn -0.980506 -0.196491 -0.000167
vn -0.980506 -0.196491 -0.000167
vn -0.980506 -0.196491 -0.000167
vn -0.980506 -0.196491 -0.000167
vn -0.980283 -0.197596 -0.000285
vn -0.980283 -0.197596 -0.000285
vn -0.980283 -0.197596 -0.000285
vn -0.980283 -0.197596 -0.000285
vn -0.980368 -0.197176 -0.000244
vn -0.980368 -0.197176 -0.000244
vn -0.980368 -0.197176 -0.000244
vn -0.980368 -0.197176 -0.000244
vn -0.980398 -0.197026 -0.000229
vn -0.980398 -0.197026 -0.000229
vn -0.980398 -0.197026 -0.000229
vn -0.980398 -0.197026 -0.000229
vn -0.980231 -0.197857 -0.000137
vn -0.980231 -0.197857 -0.000137
vn -0.980231 -0.197857 -0.000137
vn -0.980231 -0.197857 -0.000137
vn -0.932754 -0.186048 0.308799
vn -0.932754 -0.186048 0.308799
vn -0.793400 -0.158139 0.587800
vn -0.793400 -0.158139 0.587800
vn -0.576376 -0.114893 0.809067
vn -0.576376 -0.114893 0.809067
vn -0.303070 -0.060467 0.951048
vn -0.303070 -0.060467 0.951048
vn 0.000021 0.000002 1.000000
vn 0.000021 0.000002 1.000000
vn 0.303035 0.060451 0.951060
vn 0.303035 0.060451 0.951060
vn 0.576378 0.114883 0.809067
vn 0.576378 0.114883 0.809067
vn 0.793387 0.158060 0.587839
vn 0.793387 0.158060 0.587839
vn 0.932732 0.185832 0.308993
vn 0.932732 0.185832 0.308993
vn 0.980720 0.195417 0.000015
vn 0.980720 0.195417 0.000015
vn 0.932728 0.185833 -0.309006
vn 0.932728 0.185833 -0.309006
vn 0.793401 0.158061 -0.587820
vn 0.793401 0.158061 -0.587820
vn 0.576471 0.114898 -0.808999
vn 0.576471 0.114898 -0.808999
vn 0.303091 0.060464 -0.951042
vn 0.303091 0.060464 -0.951042
vn 0.000022 0.000020 -1.000000
vn 0.000022 0.000020 -1.000000
vn -0.303064 -0.060450 -0.951051
vn -0.303064 -0.060450 -0.951051
vn -0.576340 -0.114886 -0.809094
vn -0.576340 -0.114886 -0.809094
vn -0.793376 -0.158133 -0.587834
vn -0.793376 -0.158133 -0.587834
vn -0.932759 -0.186048 -0.308783
vn -0.932759 -0.186048 -0.308783
vn -0.980667 -0.195683 0.000017
vn -0.980667 -0.195683 0.000017
vn -0.195677 0.980668 0.000301
vn -0.195641 0.980676 -0.000000
vn -0.195702 0.980664 0.000113
vn -0.195655 0.980673 -0.000150
vn -0.195718 0.980660 -0.000075
vn -0.195597 0.980684 0.000000
vn -0.195527 0.980698 0.000000
vn -0.195671 0.980669 0.000150
vn -0.195602 0.980683 0.000150
vn -0.195576 0.980689 0.000113
vn -0.195641 0.980676 -0.000000
vn -0.195575 0.980689 -0.000113
vn -0.195605 0.980683 -0.000150
vn -0.195673 0.980669 -0.000150
vn -0.195527 0.980698 0.000000
vn -0.195602 0.980683 0.000000
vn -0.195723 0.980659 0.000075
vn -0.195658 0.980672 0.000150
vn -0.195677 0.980668 -0.000301
vn -0.195702 0.980663 -0.000113
vn -0.195714 0.980661 -0.000000
vn -0.195181 0.980767 -0.000000
vn -0.195181 0.980767 -0.000000
vn -0.195281 0.980747 -0.000156
vn -0.195281 0.980747 -0.000156
vn -0.195282 0.980747 0.000156
vn -0.195282 0.980747 0.000156
vn -0.195452 0.980713 0.000178
vn -0.195452 0.980713 0.000178
vn -0.195543 0.980695 -0.000089
vn -0.195543 0.980695 -0.000089
vn -0.195598 0.980684 0.000000
vn -0.195598 0.980684 0.000000
vn -0.195598 0.980684 0.000000
vn -0.195598 0.980684 0.000000
vn -0.195582 0.980687 0.000089
vn -0.195582 0.980687 0.000089
vn -0.195657 0.980672 -0.000178
vn -0.195657 0.980672 -0.000178
vn -0.195609 0.980682 -0.000223
vn -0.195609 0.980682 -0.000223
vn -0.195600 0.980684 -0.000067
vn -0.195600 0.980684 -0.000067
vn -0.195695 0.980665 -0.000000
vn -0.195695 0.980665 -0.000000
vn -0.195599 0.980684 0.000067
vn -0.195599 0.980684 0.000067
vn -0.195590 0.980686 0.000134
vn -0.195590 0.980686 0.000134
vn -0.195622 0.980679 -0.000000
vn -0.195622 0.980679 -0.000000
vn -0.195564 0.980691 -0.000267
vn -0.195564 0.980691 -0.000267
vn -0.195665 0.980671 0.000000
vn -0.195665 0.980671 0.000000
vn -0.195663 0.980671 0.000178
vn -0.195663 0.980671 0.000178
vn -0.195539 0.980696 0.000089
vn -0.195539 0.980696 0.000089
vn -0.195450 0.980714 -0.000267
vn -0.195450 0.980714 -0.000267
vn -0.981031 -0.193851 -0.000001
vn -0.981031 -0.193851 -0.000001
vn -0.932837 -0.184568 0.309436
vn -0.932837 -0.184568 0.309436
vn -0.932955 -0.183878 -0.309491
vn -0.932955 -0.183878 -0.309491
vn -0.793606 -0.156094 -0.588068
vn -0.793606 -0.156094 -0.588068
vn -0.576658 -0.114053 -0.808985
vn -0.576658 -0.114053 -0.808985
vn -0.303126 -0.060316 -0.951040
vn -0.303126 -0.060316 -0.951040
vn -0.000022 0.000000 -1.000000
vn -0.000022 0.000000 -1.000000
vn 0.303088 0.059963 -0.951074
vn 0.303088 0.059963 -0.951074
vn 0.576506 0.113656 -0.809149
vn 0.576506 0.113656 -0.809149
vn 0.793721 0.156072 -0.587919
vn 0.793721 0.156072 -0.587919
vn 0.933111 0.183916 -0.308996
vn 0.933111 0.183916 -0.308996
vn 0.981018 0.193918 -0.000001
vn 0.981018 0.193918 -0.000001
vn 0.933111 0.183916 0.308996
vn 0.933111 0.183916 0.308996
vn 0.793721 0.156072 0.587918
vn 0.793721 0.156072 0.587918
vn 0.576512 0.113656 0.809145
vn 0.576512 0.113656 0.809145
vn 0.303077 0.059963 0.951078
vn 0.303077 0.059963 0.951078
vn -0.000054 0.000000 1.000000
vn -0.000054 0.000000 1.000000
vn -0.303157 -0.059961 0.951052
vn -0.303157 -0.059961 0.951052
vn -0.576676 -0.113701 0.809022
vn -0.576676 -0.113701 0.809022
vn -0.793499 -0.156789 0.588028
vn -0.793499 -0.156789 0.588028
vn -0.197368 0.980329 -0.000295
vn -0.197368 0.980329 -0.000295
vn -0.197368 0.980329 -0.000295
vn -0.197368 0.980329 -0.000295
vn 0.197368 -0.980329 0.000295
vn 0.197368 -0.980329 0.000295
vn 0.197368 -0.980329 0.000295
vn 0.197368 -0.980329 0.000295
s off
g polySurface7
usemtl lambert2SG
f 21/27/1 22/26/2 23/25/3 1/24/4 2/23/5 3/22/6 4/21/7 5/20/8 6/19/9 7/18/10 8/17/11 9/16/12 10/15/13 11/14/14 12/13/15 13/12/16 15/11/17 24/7/18 25/8/19 26/5/20 19/10/21 20/9/22
f 16/33/23 17/32/24 18/31/25 19/30/26 26/5/27 27/6/28 24/7/29 15/29/30 14/28/31
f 26/1/32 28/3/33 29/4/34 27/2/35
usemtl lambert10SG
f 38/34/36 43/35/37 48/36/38 53/37/39
f 30/38/40 32/39/41 33/40/42 31/41/43
s 1
f 30/42/44 31/43/45 39/44/46 34/45/47
f 34/45/47 39/44/46 40/46/48 35/47/49
f 35/48/49 40/49/48 41/50/50 36/51/51
f 36/51/51 41/50/50 42/52/52 37/53/53
f 37/53/53 42/52/52 43/54/54 38/55/55
s 2
f 31/56/56 33/57/57 44/58/58 39/59/59
f 39/59/59 44/58/58 45/60/60 40/61/61
f 40/62/61 45/63/60 46/64/62 41/65/63
f 41/65/63 46/64/62 47/66/64 42/67/65
f 42/67/65 47/66/64 48/68/66 43/69/67
s 3
f 33/70/68 32/71/69 49/72/70 44/73/71
f 44/73/71 49/72/70 50/74/72 45/75/73
f 45/76/73 50/77/72 51/78/74 46/79/75
f 46/79/75 51/78/74 52/80/76 47/81/77
f 47/81/77 52/80/76 53/82/78 48/83/79
s 4
f 32/84/80 30/85/81 34/86/82 49/87/83
f 49/87/83 34/86/82 35/88/84 50/89/85
f 50/90/85 35/91/84 36/92/86 51/93/87
f 51/93/87 36/92/86 37/94/88 52/95/89
f 52/95/89 37/94/88 38/96/90 53/97/91
s off
usemtl lambert6SG
f 54/98/92 55/99/93 57/100/94 56/101/95
usemtl lambert7SG
f 56/102/96 57/103/97 59/104/98 58/105/99
usemtl lambert6SG
f 58/106/100 59/107/101 61/108/102 60/109/103
f 60/109/104 61/108/105 55/110/106 54/111/107
f 55/112/108 61/113/109 59/114/110 57/115/111
f 60/116/112 54/117/113 56/118/114 58/119/115
s 5
usemtl lambert2SG
f 66/120/116 84/121/117 85/122/118 64/123/119
f 68/124/120 83/125/121 84/121/117 66/120/116
f 62/126/122 82/127/123 83/125/121 68/124/120
f 70/128/124 74/129/125 75/130/126 71/131/127
s 7
usemtl lambert4SG
f 91/132/128 90/133/129 92/134/130 93/135/131
f 94/136/132 91/132/128 93/135/131 95/137/133
s 5
usemtl lambert2SG
f 74/129/125 63/138/134 69/139/135 75/130/126
f 76/140/136 75/130/126 69/139/135 67/141/137
f 77/142/138 76/140/136 67/141/137 65/143/139
f 78/144/140 70/128/124 71/131/127 79/145/141
f 80/146/142 79/145/141 71/131/127 72/147/143
f 81/148/144 80/146/142 72/147/143 73/149/145
f 82/127/123 78/144/140 79/145/141 83/125/121
s off
usemtl lambert3SG
f 87/150/146 86/151/147 88/152/148 89/153/149
s 5
usemtl lambert2SG
f 85/122/118 84/121/117 80/146/142 81/148/144
s off
usemtl lambert11SG
f 84/121/150 83/125/151 86/154/152 87/155/153
f 83/125/154 79/145/155 88/156/156 86/154/157
f 79/145/158 80/146/159 89/157/160 88/156/161
f 80/146/162 84/121/163 87/155/164 89/157/165
s 8
f 72/147/166 71/131/167 90/158/168 91/159/169
s off
f 71/131/170 75/130/171 92/160/172 90/158/173
s 9
f 75/130/174 76/140/175 93/161/176 92/160/177
s 8
f 73/149/178 72/147/166 91/159/169 94/162/179
s 9
f 76/140/175 77/142/180 95/163/181 93/161/176
s 10
usemtl lambert2SG
f 62/164/182 68/165/183 99/166/184 100/167/185
f 66/168/186 64/169/187 97/170/188 98/171/189
f 68/165/183 66/168/186 98/171/189 99/166/184
f 98/171/189 97/170/188 28/172/190 26/173/191
s off
usemtl lambert3SG
f 103/174/192 102/175/193 104/176/194 105/177/195
s 10
usemtl lambert2SG
f 100/167/185 99/166/184 25/178/196 101/179/197
s off
usemtl lambert11SG
f 99/166/198 98/171/199 102/180/200 103/181/201
f 98/171/202 26/173/203 104/182/204 102/180/205
f 26/173/206 25/178/207 105/183/208 104/182/209
f 25/178/210 99/166/211 103/181/212 105/183/213
s 12
usemtl lambert2SG
f 96/184/214 24/185/215 112/186/216 113/187/217
f 27/188/218 29/189/219 110/190/220 111/191/221
f 24/185/215 27/188/218 111/191/221 112/186/216
s 13
f 106/192/222 107/193/223 69/194/224 63/195/225
f 108/196/226 109/197/227 65/198/228 67/199/229
f 107/193/223 108/196/226 67/199/229 69/194/224
s 14
usemtl lambert4SG
f 135/200/230 134/201/231 136/202/232 137/203/233
f 138/204/234 135/200/230 137/203/233 139/205/235
s 12
usemtl lambert2SG
f 113/187/217 112/186/216 116/206/236 117/207/237
usemtl lambert11SG
f 115/208/238 114/209/239 118/210/240 119/211/241
f 116/206/236 115/208/238 119/211/241 120/212/242
usemtl lambert2SG
f 117/207/237 116/206/236 120/212/242 121/213/243
s 16
usemtl lambert4SG
f 141/214/244 140/215/245 142/216/246 143/217/247
f 144/218/248 141/219/244 143/220/247 145/221/249
s 12
usemtl lambert2SG
f 121/213/243 120/212/242 124/222/250 125/223/251
f 123/224/252 122/225/253 126/226/254 127/227/255
f 124/222/250 123/224/252 127/227/255 128/228/256
f 125/223/251 124/222/250 128/228/256 129/229/257
f 127/227/255 126/226/254 130/230/258 131/231/259
s off
usemtl lambert3SG
f 147/232/260 146/233/261 148/234/262 149/235/263
s 12
usemtl lambert2SG
f 129/229/257 128/228/256 132/236/264 133/237/265
f 131/231/259 130/230/258 109/238/266 108/239/267
f 132/236/264 131/231/259 108/239/267 107/240/268
f 133/237/265 132/236/264 107/240/268 106/241/269
s 18
usemtl lambert11SG
f 111/191/270 110/190/271 134/242/272 135/243/273
s 19
f 114/209/274 115/208/275 137/244/276 136/245/277
s 18
f 112/186/278 111/191/270 135/243/273 138/246/279
s 19
f 115/208/275 116/206/280 139/247/281 137/244/276
s off
f 116/206/282 112/186/283 138/246/284 139/247/285
s 20
f 119/211/286 118/210/287 140/248/288 141/249/289
s 21
f 122/225/290 123/224/291 143/250/292 142/251/293
s 20
f 120/212/294 119/211/286 141/249/289 144/252/295
s 21
f 123/224/291 124/222/296 145/253/297 143/250/292
s off
f 124/222/298 120/212/299 144/252/300 145/253/301
f 128/228/302 127/227/303 146/254/304 147/255/305
f 127/227/306 131/231/307 148/256/308 146/254/309
f 131/231/310 132/236/311 149/257/312 148/256/313
f 132/236/314 128/228/315 147/255/316 149/257/317
usemtl lambert5SG
f 82/258/318 62/259/319 150/260/320 151/261/321
f 74/262/322 70/263/323 152/264/324 153/265/325
f 63/266/326 74/262/327 153/265/328 154/267/329
f 70/263/330 78/268/331 155/269/332 152/264/333
f 78/268/334 82/258/335 151/261/336 155/269/337
f 62/164/338 100/167/339 156/270/340 150/271/341
f 100/167/342 101/179/343 158/272/344 157/273/345
f 101/179/346 96/274/347 159/275/348 158/272/349
f 96/184/350 113/187/351 160/276/352 159/277/353
f 106/192/354 63/195/355 154/278/356 161/279/357
f 113/187/358 117/207/359 162/280/360 160/276/361
f 117/207/362 121/213/363 163/281/364 162/280/365
f 121/213/366 125/223/367 164/282/368 163/281/369
f 125/223/370 129/229/371 165/283/372 164/282/373
f 129/229/374 133/237/375 166/284/376 165/283/377
f 133/237/378 106/241/379 161/285/380 166/284/381
f 151/261/382 150/260/383 167/286/384 168/287/385
f 153/265/386 152/264/387 169/288/388 170/289/389
f 154/267/390 153/265/391 171/290/392 172/291/393
f 152/264/394 155/269/395 173/292/396 169/288/397
f 155/269/398 151/261/399 168/287/400 173/292/401
f 156/270/402 100/167/403 174/293/404 175/294/405
f 150/271/406 156/270/407 175/294/408 167/295/409
f 100/167/410 157/273/411 176/296/412 174/293/413
f 157/273/414 158/272/415 177/297/416 176/296/417
f 158/272/418 159/275/419 178/298/420 177/297/421
f 159/277/422 160/276/423 179/299/424 178/300/425
f 161/279/426 154/278/427 181/301/428 180/302/429
f 160/276/430 162/280/431 182/303/432 179/299/433
f 162/280/434 163/281/435 183/304/436 182/303/437
f 163/281/438 164/282/439 184/305/440 183/304/441
f 164/282/442 165/283/443 185/306/444 184/305/445
f 165/283/446 166/284/447 186/307/448 185/306/449
f 166/284/450 161/285/451 187/308/452 186/307/453
s 22
usemtl lambert9SG
f 188/309/454 219/310/455 218/311/456 189/312/457
f 189/312/457 218/311/456 217/313/458 190/314/459
f 190/314/459 217/313/458 216/315/460 191/316/461
f 191/316/461 216/315/460 215/317/462 192/318/463
f 192/318/463 215/317/462 214/319/464 193/320/465
f 193/320/465 214/319/464 213/321/466 194/322/467
f 194/322/467 213/321/466 212/323/468 195/324/469
f 195/324/469 212/323/468 211/325/470 196/326/471
f 196/326/471 211/325/470 210/327/472 197/328/473
f 197/328/473 210/327/472 209/329/474 198/330/475
f 198/330/475 209/329/474 228/331/476 199/332/477
f 199/332/477 228/331/476 227/333/478 200/334/479
f 200/334/479 227/333/478 226/335/480 201/336/481
f 201/336/481 226/335/480 225/337/482 202/338/483
f 202/338/483 225/337/482 224/339/484 203/340/485
f 203/340/485 224/339/484 223/341/486 204/342/487
f 204/342/487 223/341/486 222/343/488 205/344/489
f 205/344/489 222/343/488 221/345/490 206/346/491
f 206/346/491 221/345/490 220/347/492 207/348/493
f 207/348/493 220/347/492 219/310/455 188/309/454
s 23
usemtl lambert8SG
f 189/312/494 208/349/495 188/309/496
f 190/314/497 208/349/495 189/312/494
f 191/316/498 208/349/495 190/314/497
f 192/318/499 208/349/495 191/316/498
f 193/320/500 208/349/495 192/318/499
f 194/322/501 208/349/495 193/320/500
f 195/324/502 208/349/495 194/322/501
f 196/326/503 208/349/495 195/324/502
f 197/328/504 208/349/495 196/326/503
f 198/330/505 208/349/495 197/328/504
f 199/332/506 208/349/495 198/330/505
f 200/334/507 208/349/495 199/332/506
f 201/336/508 208/349/495 200/334/507
f 202/338/509 208/349/495 201/336/508
f 203/340/510 208/349/495 202/338/509
f 204/342/511 208/349/495 203/340/510
f 205/344/512 208/349/495 204/342/511
f 206/346/513 208/349/495 205/344/512
f 207/348/514 208/349/495 206/346/513
f 188/309/496 208/349/495 207/348/514
s 24
f 210/327/515 230/350/516 229/351/517 209/329/518
f 211/325/519 231/352/520 230/350/516 210/327/515
f 212/323/521 232/353/522 231/352/520 211/325/519
f 213/321/523 233/354/524 232/353/522 212/323/521
f 214/319/525 234/355/526 233/354/524 213/321/523
f 215/317/527 235/356/528 234/355/526 214/319/525
f 216/315/529 236/357/530 235/356/528 215/317/527
f 217/313/531 237/358/532 236/357/530 216/315/529
f 218/311/533 238/359/534 237/358/532 217/313/531
f 219/310/535 239/360/536 238/359/534 218/311/533
f 220/347/537 240/361/538 239/360/536 219/310/535
f 221/345/539 241/362/540 240/361/538 220/347/537
f 222/343/541 242/363/542 241/362/540 221/345/539
f 223/341/543 243/364/544 242/363/542 222/343/541
f 224/339/545 244/365/546 243/364/544 223/341/543
f 225/337/547 245/366/548 244/365/546 224/339/545
f 226/335/549 246/367/550 245/366/548 225/337/547
f 227/333/551 247/368/552 246/367/550 226/335/549
f 228/331/553 248/369/554 247/368/552 227/333/551
f 209/329/518 229/351/517 248/369/554 228/331/553
s 25
f 230/350/555 250/370/556 249/371/557 229/351/558
f 231/352/559 251/372/560 250/370/556 230/350/555
f 232/353/561 252/373/562 251/372/560 231/352/559
f 233/354/563 253/374/564 252/373/562 232/353/561
f 234/355/565 254/375/566 253/374/564 233/354/563
f 235/356/567 255/376/568 254/375/566 234/355/565
f 236/357/569 256/377/570 255/376/568 235/356/567
f 237/358/571 257/378/572 256/377/570 236/357/569
f 238/359/573 258/379/574 257/378/572 237/358/571
f 239/360/575 259/380/576 258/379/574 238/359/573
f 240/361/577 260/381/578 259/380/576 239/360/575
f 241/362/579 261/382/580 260/381/578 240/361/577
f 242/363/581 262/383/582 261/382/580 241/362/579
f 243/364/583 263/384/584 262/383/582 242/363/581
f 244/365/585 264/385/586 263/384/584 243/364/583
f 245/366/587 265/386/588 264/385/586 244/365/585
f 246/367/589 266/387/590 265/386/588 245/366/587
f 247/368/591 267/388/592 266/387/590 246/367/589
f 248/369/593 268/389/594 267/388/592 247/368/591
f 229/351/558 249/371/557 268/389/594 248/369/593
s off
usemtl lambert2SG
f 101/390/595 25/391/596 24/392/597 96/393/598
usemtl initialShadingGroup
f 24/392/599 25/391/600 101/390/601 96/393/602
