# 3ds Max Wavefront OBJ Exporter v0.94b - (c)2007 guruware
# File Created: 25.02.2011 13:57:14

mtllib Ryytli12_res.mtl

#
# object Ryytli12
#

v  -177.8801 -210.1835 30.5352
v  -177.9181 -210.9695 31.8435
v  -177.9270 -210.9693 31.4634
v  -177.8861 -210.1835 30.1788
v  -178.4956 -215.5825 38.0787
v  -178.6340 -215.4436 32.2185
v  -178.5727 -215.0021 32.2811
v  -178.5580 -215.0327 32.9632
v  -178.5521 -215.0451 33.2400
v  -178.4373 -215.2849 38.5886
v  -178.6526 -215.2325 29.9724
v  -178.5701 -214.3330 29.9710
v  -178.5507 -214.1986 30.2617
v  -178.6226 -214.9858 30.2627
v  -179.3326 -220.1462 29.9835
v  -179.1863 -219.1835 29.9811
v  -179.1844 -219.1835 30.0883
v  -179.3309 -220.1461 30.0907
v  -177.9294 -211.2036 32.2334
v  -177.9427 -211.4783 32.6907
v  -177.9528 -211.4782 32.2955
v  -177.9509 -211.4404 32.2337
v  -179.3930 -220.1362 30.2751
v  -179.3962 -220.1362 30.0918
v  -179.2496 -219.1736 30.0894
v  -179.2081 -219.1905 31.8953
v  -178.6585 -215.2305 29.7371
v  -178.5757 -214.3329 29.7358
v  -179.4018 -220.1362 29.7493
v  -179.2559 -219.1735 29.7470
v  -179.2515 -219.1736 29.9822
v  -179.3978 -220.1362 29.9846
v  -178.7000 -215.2164 28.0608
v  -178.6160 -214.3323 28.0594
v  -179.4303 -220.1362 28.0727
v  -179.2873 -219.1730 28.0704
v  -178.7227 -215.2088 27.1447
v  -178.6380 -214.3319 27.1433
v  -179.4459 -220.1362 27.1566
v  -179.3045 -219.1727 27.1543
v  -178.7283 -215.2069 26.9207
v  -178.6434 -214.3318 26.9193
v  -179.4497 -220.1362 26.9325
v  -179.3087 -219.1726 26.9302
v  -178.8291 -215.1727 22.8501
v  -178.7900 -214.6880 22.8508
v  -178.7617 -214.6686 23.9057
v  -178.7760 -215.1907 24.9936
v  -178.7160 -214.2228 23.9126
v  -178.6899 -214.3311 24.9922
v  -179.5193 -220.1362 22.8417
v  -179.3851 -219.1714 22.8434
v  -179.3448 -219.1720 25.0029
v  -179.4825 -220.1362 25.0052
v  -178.7306 -215.2061 26.8267
v  -178.6457 -214.3318 26.8253
v  -179.4513 -220.1362 26.8385
v  -179.3104 -219.1726 26.8362
v  -178.7615 -215.1956 25.5812
v  -178.6937 -214.5640 25.7881
v  -179.4725 -220.1362 25.5929
v  -179.3338 -219.1722 25.5906
v  -178.7702 -215.1927 25.2278
v  -178.7072 -214.5639 25.2368
v  -179.4785 -220.1362 25.2394
v  -179.3404 -219.1721 25.2371
v  -179.1118 -218.6933 29.9799
v  -179.1099 -218.6932 30.0871
v  -179.1075 -218.5916 32.2553
v  -179.1670 -218.9799 32.2563
v  -179.1751 -218.6833 30.0882
v  -179.1605 -218.5432 29.7454
v  -179.1770 -218.6833 29.9810
v  -179.1950 -218.5426 27.9846
v  -179.2189 -218.5898 27.1529
v  -179.2234 -218.5897 26.9288
v  -179.3041 -218.5883 22.8444
v  -179.2615 -218.5891 25.0016
v  -179.2252 -218.5896 26.8348
v  -179.3970 -218.5680 25.5922
v  -179.3724 -218.5684 26.8378
v  -179.4576 -219.1513 26.8392
v  -179.4809 -219.1510 25.5936
v  -179.4040 -218.5678 25.2387
v  -179.4876 -219.1508 25.2401
v  -179.4087 -218.5678 25.0045
v  -179.4919 -219.1508 25.0059
v  -179.0902 -218.5919 32.9212
v  -178.9527 -217.5804 32.2528
v  -178.8903 -217.5814 34.6530
v  -178.9007 -216.8652 29.9764
v  -178.8923 -216.8654 30.3425
v  -179.0013 -217.5796 30.3443
v  -179.0093 -217.5794 29.9782
v  -178.8434 -216.8662 32.2510
v  -178.9062 -216.8651 29.7412
v  -179.0144 -217.5793 29.7430
v  -179.0215 -216.8529 28.0829
v  -178.9851 -216.8535 29.6629
v  -179.0932 -217.5677 29.6647
v  -179.1275 -217.5672 28.0847
v  -178.9657 -216.8642 27.1487
v  -178.9462 -216.8644 27.9805
v  -179.0521 -217.5787 27.9822
v  -179.0705 -217.5784 27.1504
v  -178.9708 -216.8641 26.9246
v  -179.0753 -217.5783 26.9264
v  -178.9730 -216.8640 26.8307
v  -179.0774 -217.5783 26.8324
v  -179.0015 -216.8636 25.5852
v  -179.1043 -217.5779 25.5868
v  -179.0096 -216.8634 25.2317
v  -179.1119 -217.5777 25.2334
v  -179.0150 -216.8633 24.9975
v  -179.1170 -217.5777 24.9992
v  -178.7492 -216.8677 35.8762
v  -178.7508 -215.8782 29.9740
v  -178.7423 -215.8782 30.2649
v  -178.6977 -215.8784 32.0351
v  -178.7842 -216.0603 29.7392
v  -178.9137 -216.1272 28.0812
v  -178.8751 -216.1278 29.6611
v  -178.8208 -215.8770 27.1463
v  -178.8266 -216.0596 27.9785
v  -178.8263 -215.8769 26.9223
v  -178.9268 -215.8753 22.8490
v  -178.8739 -215.8761 24.9952
v  -179.0641 -216.8625 22.8473
v  -178.8287 -215.8769 26.8283
v  -179.0065 -215.8551 25.5897
v  -178.9758 -215.8556 26.8351
v  -179.1201 -216.8428 26.8375
v  -179.1486 -216.8423 25.5920
v  -179.0153 -215.8550 25.2362
v  -179.1567 -216.8422 25.2385
v  -179.0210 -215.8549 25.0020
v  -179.1621 -216.8421 25.0043
v  -179.2274 -218.4525 29.6669
v  -179.2586 -218.4520 28.0868
v  -179.1462 -217.5772 23.6458
v  -179.1634 -217.5769 22.8461
v  -179.2515 -217.5566 25.5898
v  -179.2246 -217.5570 26.8353
v  -179.2591 -217.5565 25.2364
v  -179.2642 -217.5564 25.0022
v  -178.5540 -215.8813 37.5667
v  -179.0950 -214.9315 30.4097
v  -179.0526 -214.9463 32.1015
v  -179.1077 -215.3384 32.0460
v  -179.1513 -215.6357 31.9206
v  -179.1893 -215.6355 30.4114
v  -178.9086 -215.1744 25.5881
v  -178.8777 -215.1848 26.8335
v  -178.9173 -215.1714 25.2346
v  -178.9231 -215.1694 25.0004
v  -179.0403 -214.3334 30.4089
v  -179.0220 -214.5905 32.0548
v  -179.0020 -214.3338 31.9266
v  -178.5276 -213.8706 29.9703
v  -178.5255 -213.8706 30.0563
v  -178.0827 -214.3721 37.5082
v  -178.1062 -214.8588 38.3183
v  -178.1178 -214.8386 37.7924
v  -178.0943 -214.3596 37.0089
v  -178.5008 -213.5205 29.7346
v  -178.5388 -213.5199 28.0581
v  -178.5596 -213.5195 27.1420
v  -178.5647 -213.5195 26.9180
v  -178.5668 -213.5194 26.8240
v  -178.5471 -213.0547 25.6757
v  -178.6480 -214.1028 25.7949
v  -178.5896 -213.3948 25.2801
v  -178.6611 -214.1040 25.2426
v  -178.6077 -213.5087 24.9908
v  -178.5060 -214.1990 32.0318
v  -178.4391 -213.5215 32.2443
v  -178.0434 -213.5591 36.1548
v  -178.0550 -213.5589 35.6991
v  -178.3631 -212.8009 29.9673
v  -178.3609 -212.8009 30.0534
v  -178.4598 -213.8766 30.0550
v  -178.4619 -213.8766 29.9690
v  -178.4339 -212.7948 29.7335
v  -178.4288 -212.7948 29.9687
v  -178.4698 -212.7942 28.0570
v  -178.4895 -212.7939 27.1409
v  -178.4944 -212.7938 26.9168
v  -178.9723 -212.5574 23.1129
v  -178.9322 -212.5573 24.9979
v  -178.9994 -213.2176 24.9512
v  -179.0408 -213.2169 23.1121
v  -178.4964 -212.7937 26.8228
v  -178.4825 -212.4472 25.8701
v  -178.9272 -212.5573 25.2321
v  -178.9082 -212.4462 25.6030
v  -178.9533 -212.8697 25.4674
v  -178.9866 -213.1366 25.1569
v  -178.4267 -212.7949 30.0547
v  -178.3731 -212.7958 32.2432
v  -178.0082 -212.8329 34.9457
v  -178.0193 -212.8327 34.5112
v  -178.2388 -211.4473 29.9653
v  -178.2375 -211.4473 30.0513
v  -178.3090 -211.4412 29.7314
v  -178.3045 -211.4413 29.9666
v  -178.4907 -211.4267 28.0579
v  -178.4585 -211.4272 29.7344
v  -178.5833 -212.7808 29.7365
v  -178.6193 -212.7802 28.0600
v  -178.3588 -211.4404 27.1388
v  -178.3412 -211.4407 28.0549
v  -178.3631 -211.4403 26.9147
v  -178.8852 -211.7155 23.1143
v  -178.8478 -211.7153 24.9965
v  -178.3888 -211.4380 26.8212
v  -178.3870 -211.4380 26.9152
v  -178.5182 -212.7914 26.9173
v  -178.5202 -212.7914 26.8233
v  -178.4116 -211.7227 25.8497
v  -178.3649 -211.4403 26.8207
v  -178.8432 -211.7154 25.2307
v  -178.8456 -211.8145 25.6088
v  -178.3032 -211.4413 30.0527
v  -178.2501 -211.4422 32.2412
v  -178.1921 -210.9388 29.9645
v  -178.1907 -210.9389 30.0506
v  -178.2621 -210.9327 29.7306
v  -178.2578 -210.9328 29.9659
v  -178.2929 -210.9322 28.0541
v  -178.3097 -210.9319 27.1379
v  -178.3139 -210.9319 26.9139
v  -178.8103 -210.9974 23.1155
v  -178.7872 -211.1039 24.9732
v  -178.3156 -210.9318 26.8199
v  -178.3590 -211.1479 25.6166
v  -178.7877 -211.1503 25.1834
v  -178.7745 -211.3266 25.3909
v  -178.1200 -210.1536 29.9634
v  -178.1185 -210.1536 30.0490
v  -178.1897 -210.1476 29.7294
v  -178.1857 -210.1476 29.9647
v  -178.2184 -210.1476 28.0528
v  -178.2340 -210.1476 27.1367
v  -178.2378 -210.1476 26.9126
v  -178.3070 -210.1476 22.8585
v  -178.2707 -210.1476 24.9853
v  -178.3386 -210.8311 25.0186
v  -178.3741 -210.7935 22.8575
v  -178.2394 -210.1476 26.8186
v  -178.2607 -210.1476 25.5730
v  -178.2667 -210.1476 25.2195
v  -178.3405 -210.8996 25.2816
v  -178.6043 -214.1925 30.2630
v  -178.6762 -214.9797 30.2641
v  -178.5596 -214.1929 32.0332
v  -178.5365 -214.5893 32.2269
v  -178.5901 -214.5832 32.2282
v  -178.6263 -214.9960 32.2824
v  -178.6877 -215.4375 32.2199
v  -178.7513 -215.8723 32.0364
v  -178.7959 -215.8721 30.2662
v  -178.6182 -214.3817 30.3981
v  -178.6728 -214.9798 30.3989
v  -178.5798 -214.3821 31.9158
v  -178.5999 -214.6388 32.0440
v  -178.6305 -214.9946 32.0907
v  -178.6855 -215.3867 32.0352
v  -178.7292 -215.6840 31.9098
v  -178.7671 -215.6838 30.4006
v  -178.9491 -217.5891 29.7415
v  -178.8409 -216.8749 29.7398
v  -179.0952 -218.5530 29.7439
v  -179.1297 -218.5524 27.9831
v  -178.9868 -217.5885 27.9808
v  -178.8809 -216.8742 27.9790
v  -178.7613 -216.0694 27.9771
v  -178.7190 -216.0701 29.7378
v  -178.9508 -217.5891 29.6616
v  -178.8427 -216.8748 29.6598
v  -179.0850 -218.4738 29.6638
v  -179.1162 -218.4733 28.0837
v  -178.9851 -217.5885 28.0815
v  -178.8791 -216.8743 28.0798
v  -178.7713 -216.1486 28.0780
v  -178.7328 -216.1492 29.6580
v  -178.1843 -210.1476 30.0504
v  -178.2564 -210.9328 30.0519
v  -178.3589 -210.8463 24.9885
v  -178.3980 -210.7911 22.8580
v  -178.3574 -210.9048 25.2580
v  -178.3828 -211.1455 25.6171
v  -178.4355 -211.7203 25.8502
v  -178.5064 -212.4448 25.8706
v  -178.5709 -213.0522 25.6762
v  -178.6134 -213.3924 25.2806
v  -178.6316 -213.5063 24.9913
v  -178.6559 -213.5079 22.8534
v  -178.6798 -213.5054 22.8538
v  -178.9775 -212.5565 22.8630
v  -179.0467 -213.2242 22.8622
v  -178.8900 -211.7146 22.8644
v  -178.4223 -211.0245 22.8576
v  -178.4184 -211.0373 23.1075
v  -178.3953 -211.1438 24.9652
v  -178.3958 -211.1902 25.1754
v  -178.3686 -211.3695 25.3805
v  -178.4538 -211.8544 25.6008
v  -178.5163 -212.4860 25.5949
v  -178.5614 -212.9096 25.4594
v  -178.5947 -213.1765 25.1489
v  -178.6075 -213.2575 24.9432
v  -178.6489 -213.2568 23.1041
v  -178.6548 -213.2641 22.8541
v  -178.8142 -210.9846 22.8656
v  -179.0697 -217.0338 23.6516
v  -179.0873 -217.0292 22.8470
v  -179.2519 -217.5645 22.8480
v  -179.1758 -217.0168 22.8490
v  -179.1582 -217.0215 23.6535
v  -179.2347 -217.5648 23.6478
v  -178.6761 -214.2291 22.8500
v  -178.6505 -214.2296 23.9110
v  -178.6962 -214.6754 23.9041
v  -178.7245 -214.6947 22.8492
v  -178.6913 -213.9820 23.9163
v  -178.7151 -213.9682 22.8521
v  -178.6496 -213.9749 22.8505
v  -178.6258 -213.9888 23.9147
v  -178.7416 -214.2224 22.8516
v  -178.1298 -215.3454 39.1285
v  -178.1415 -215.3208 38.5812
v  -177.2451 -215.0126 32.9370
v  -177.2369 -215.0018 33.2201
v  -177.2519 -215.1633 33.2068
v  -177.2578 -215.1509 32.9300
v  -178.5453 -214.8943 32.9702
v  -178.5371 -214.8836 33.2533
v  -185.3192 -209.4578 33.6126
v  -185.4550 -210.1276 33.6398
v  -184.8026 -210.1999 33.6397
v  -184.7170 -209.5357 33.6128
v  -178.8141 -215.5636 38.6292
v  -178.7571 -215.2806 39.1322
v  -190.8924 -214.2242 38.9983
v  -190.9494 -214.3932 38.6292
v  -178.5699 -211.4068 32.6999
v  -178.5566 -211.1315 32.2430
v  -190.6921 -209.8067 32.3232
v  -190.7054 -210.1044 32.7659
v  -179.7190 -220.1043 30.5881
v  -179.5312 -219.1620 32.2568
v  -191.6666 -217.9915 32.2568
v  -191.7254 -218.2867 31.5772
v  -191.8544 -218.9339 30.5881
v  -179.4113 -218.5601 33.3227
v  -179.2099 -217.5496 35.1121
v  -191.3452 -216.3792 35.1121
v  -191.5466 -217.3896 33.3227
v  -179.0677 -216.8360 36.3759
v  -191.2030 -215.6656 36.3759
v  -178.8711 -215.8497 38.1226
v  -191.0065 -214.6793 38.1226
v  -178.7441 -215.0121 38.6851
v  -178.7100 -214.3070 37.5134
v  -190.8453 -213.2398 37.4298
v  -190.8798 -213.9799 38.5792
v  -178.6707 -213.4922 36.1611
v  -190.8060 -212.3589 36.1195
v  -178.6355 -212.7643 34.9530
v  -190.7709 -211.5720 34.9490
v  -178.5453 -210.8968 31.8535
v  -184.8071 -210.2034 31.9011
v  -185.4595 -210.1311 31.9061
v  -190.6807 -209.5530 31.9458
v  -185.3237 -209.4613 30.8430
v  -190.6427 -208.7014 30.6792
v  -184.7215 -209.5392 30.8495
v  -178.5073 -210.1091 30.5462
v  -178.1797 -210.1476 30.3169
v  -190.6427 -208.7014 22.9611
v  -191.8544 -218.9339 22.9647
v  -203.1462 -217.3292 30.5491
v  -202.6347 -213.0094 30.4363
v  -202.6970 -213.5355 22.9244
v  -203.1462 -217.3292 22.9258
v  -203.0173 -216.6821 31.5383
v  -192.5152 -214.0749 30.3382
v  -191.8618 -208.5571 30.3874
v  -191.8618 -208.5571 22.9611
v  -192.5554 -214.4144 22.9632
v  -191.3363 -214.5587 22.9632
v  -191.2961 -214.2193 30.6300
v  -191.3429 -214.6141 30.4753
v  -191.4052 -215.1402 22.9634
v  -203.9718 -209.2253 33.9522
v  -206.8691 -206.5757 30.1402
v  -206.9221 -207.0272 30.1402
v  -204.0144 -209.6315 33.9506
v  -201.2406 -217.4217 22.8417
v  -201.2406 -217.4217 30.1402
v  -208.0487 -216.6224 30.1402
v  -208.0487 -216.6224 22.8417
v  -200.0611 -207.3750 22.8417
v  -200.0611 -207.3750 30.1402
v  -200.1181 -207.8609 30.1402
v  -206.8691 -206.5757 22.8417
v  -206.5192 -206.6168 30.1402
v  -200.3679 -207.3390 30.1402
v  -203.6954 -209.8322 33.9040
v  -203.6352 -209.2359 33.9046
v  -203.8422 -209.3437 34.1226
v  -204.4235 -217.0407 33.8969
v  -204.6147 -217.0179 34.1226
v  -203.7511 -209.1307 33.7533
v  -204.7869 -216.9980 33.9230
v  -178.1868 -215.6315 38.6218
v  -178.1998 -215.6184 38.0713
v  -178.2438 -215.9176 38.1151
v  -178.2582 -215.9173 37.5592
v  -178.4404 -216.9039 36.3685
v  -178.4534 -216.9037 35.8687
v  -178.5826 -217.6175 35.1047
v  -178.5945 -217.6173 34.6456
v  -178.7840 -218.6280 33.3153
v  -178.7944 -218.6278 32.9138
v  -178.9039 -219.2299 32.2494
v  -178.8712 -219.0158 32.2488
v  -178.9122 -219.2265 31.8879
v  -179.0917 -220.1722 30.5806
v  -179.0972 -220.1721 30.2677
v  -178.4136 -214.8027 37.7998
v  -178.3901 -214.3237 37.0163
v  -178.3508 -213.5230 35.7066
v  -178.3151 -212.7967 34.5186
v  -178.2486 -211.4422 32.3030
v  -178.2467 -211.4044 32.2412
v  -178.2229 -210.9333 31.4708
v  -178.1819 -210.1476 30.1862
v  -203.7970 -209.1550 33.8024
# 439 vertices

vt 1.1454 0.8690 -0.0032
vt 0.9427 0.8890 -0.0033
vt 0.9858 0.1403 0.2345
vt 1.1858 0.1675 0.9946
vt -0.0715 1.4918 -0.7123
vt -0.0444 0.5651 -0.7087
vt 0.0417 0.5752 -0.7139
vt 0.0357 0.6830 -0.7142
vt 0.0333 0.7268 -0.7143
vt -0.0135 1.5725 -0.7166
vt -0.0033 0.2100 -0.7102
vt 0.1722 0.2100 -0.7174
vt 0.1984 0.2560 -0.7186
vt 0.0449 0.2560 -0.7124
vt -2.2193 2.9257 1.4157
vt -1.6957 2.9257 1.1822
vt -1.6957 3.0969 1.1820
vt -2.2193 3.0969 1.4160
vt 0.8823 0.8949 -0.0035
vt 0.8115 0.9018 -0.0036
vt 0.8563 0.1234 -0.0034
vt 0.8659 0.1246 -0.0034
vt -0.9599 0.2560 -0.6460
vt -0.9599 0.2270 -0.6460
vt -0.7721 0.2270 -0.6586
vt -0.7754 0.5126 -0.6596
vt -0.0029 0.1728 -0.7101
vt 0.1722 0.1728 -0.7172
vt -0.9599 0.1728 -0.6460
vt -0.7721 0.1728 -0.6585
vt -0.7721 0.2100 -0.6586
vt -0.9599 0.2100 -0.6460
vt -0.0001 -0.0922 -0.7089
vt 0.1724 -0.0922 -0.7161
vt -0.9599 -0.0922 -0.6459
vt -0.7720 -0.0922 -0.6582
vt 0.0014 -0.2371 -0.7082
vt 0.1724 -0.2371 -0.7155
vt -0.9599 -0.2371 -0.6458
vt -0.7719 -0.2371 -0.6580
vt 0.0017 -0.2725 -0.7080
vt 0.1724 -0.2725 -0.7154
vt -0.9599 -0.2725 -0.6458
vt -0.7719 -0.2725 -0.6580
vt 0.0084 -0.9162 -0.7051
vt 0.1030 -0.9160 -0.7085
vt 0.1067 -0.7492 -0.7094
vt 0.0049 -0.5773 -0.7066
vt 0.1937 -0.7480 -0.7134
vt 0.1726 -0.5773 -0.7141
vt -0.9599 -0.9193 -0.6456
vt -0.7717 -0.9187 -0.6572
vt -0.7718 -0.5773 -0.6576
vt -0.9599 -0.5773 -0.6457
vt 0.0019 -0.2874 -0.7080
vt 0.1725 -0.2874 -0.7153
vt -0.9599 -0.2874 -0.6458
vt -0.7719 -0.2874 -0.6580
vt 0.0039 -0.4843 -0.7071
vt 0.1726 -0.4843 -0.7145
vt -0.9599 -0.4843 -0.6457
vt -0.7718 -0.4843 -0.6577
vt 0.0045 -0.5402 -0.7068
vt 0.1726 -0.5402 -0.7142
vt -0.9599 -0.5402 -0.6457
vt -0.7718 -0.5402 -0.6576
vt -1.4291 2.9257 1.0632
vt -1.4290 3.0969 1.0631
vt -0.6586 0.5697 -0.6678
vt -0.7343 0.5697 -0.6627
vt -0.6765 0.2270 -0.6650
vt -0.6491 0.1728 -0.6668
vt -0.6765 0.2100 -0.6650
vt -0.6490 -0.1023 -0.6663
vt -0.6582 -0.2371 -0.6654
vt -0.6582 -0.2725 -0.6653
vt -0.6579 -0.9183 -0.6642
vt -0.6581 -0.5773 -0.6648
vt -0.6582 -0.2874 -0.6653
vt 0.6341 0.3207 0.6406
vt 0.6344 0.9995 0.6230
vt 0.9995 0.9995 0.9818
vt 0.9993 0.3207 0.9938
vt 0.6340 0.1281 0.6456
vt 0.9992 0.1281 0.9972
vt 0.6340 0.0005 0.6489
vt 0.9991 0.0005 0.9995
vt -0.6586 0.6750 -0.6683
vt -0.4613 0.5697 -0.6811
vt -0.4615 0.9493 -0.6831
vt -0.3218 0.2100 -0.6888
vt -0.3218 0.2679 -0.6890
vt -0.4611 0.2679 -0.6796
vt -0.4611 0.2100 -0.6795
vt -0.3220 0.5697 -0.6906
vt -0.3218 0.1728 -0.6887
vt -0.4611 0.1728 -0.6794
vt 0.3183 0.1265 0.5387
vt 0.3186 0.9219 0.5185
vt 0.6047 0.9219 0.7292
vt 0.6045 0.1265 0.7455
vt -0.3216 -0.2371 -0.6872
vt -0.3216 -0.1023 -0.6877
vt -0.4610 -0.1023 -0.6786
vt -0.4609 -0.2371 -0.6782
vt -0.3216 -0.2725 -0.6871
vt -0.4609 -0.2725 -0.6781
vt -0.3215 -0.2874 -0.6871
vt -0.4609 -0.2874 -0.6781
vt -0.3215 -0.4843 -0.6864
vt -0.4608 -0.4843 -0.6775
vt -0.3214 -0.5402 -0.6862
vt -0.4608 -0.5402 -0.6773
vt -0.3214 -0.5773 -0.6860
vt -0.4608 -0.5773 -0.6772
vt -0.3223 1.1430 -0.6936
vt -0.1292 0.2100 -0.7018
vt -0.1292 0.2560 -0.7021
vt -0.1293 0.5360 -0.7034
vt -0.1647 0.1728 -0.6992
vt 0.0276 0.1265 0.3286
vt 0.0278 0.9219 0.3040
vt -0.1290 -0.2371 -0.6997
vt -0.1646 -0.1023 -0.6980
vt -0.1290 -0.2725 -0.6996
vt -0.1287 -0.9166 -0.6967
vt -0.1288 -0.5773 -0.6982
vt -0.3213 -0.9173 -0.6848
vt -0.1290 -0.2874 -0.6995
vt 0.4099 0.3207 0.4263
vt 0.4102 0.9995 0.3858
vt 0.9995 0.9995 0.9528
vt 0.9992 0.3207 0.9845
vt 0.4098 0.1281 0.4378
vt 0.9991 0.1281 0.9935
vt 0.4097 0.0005 0.4454
vt 0.9592 0.9219 0.9909
vt 0.9590 0.1265 1.0011
vt -0.4607 -0.7913 -0.6766
vt -0.4606 -0.9177 -0.6763
vt 0.0006 0.3207 0.0278
vt 0.0009 0.9995 0.0005
vt 0.0006 0.1281 0.0355
vt 0.0005 0.0005 0.0406
vt -0.1298 1.4107 -0.7080
vt 0.4643 0.0369 0.8415
vt 0.4731 0.8743 0.8173
vt 0.7063 0.8463 0.9070
vt 0.8831 0.7839 0.9759
vt 0.8830 0.0369 0.9977
vt 0.0034 0.3207 0.0414
vt 0.0097 0.9995 0.0005
vt 0.0017 0.1281 0.0530
vt 0.0005 0.0005 0.0607
vt 0.1086 0.0369 0.7509
vt 0.2615 0.8514 0.7654
vt 0.1089 0.7881 0.7287
vt 0.2624 0.2100 -0.7210
vt 0.2624 0.2236 -0.7211
vt 0.0652 0.9751 -0.0043
vt -0.0603 0.9875 -0.0045
vt 0.0008 0.0162 -0.0023
vt 0.1227 0.0315 -0.0013
vt 0.3307 0.1728 -0.7237
vt 0.3308 -0.0922 -0.7228
vt 0.3309 -0.2371 -0.7223
vt 0.3309 -0.2725 -0.7221
vt 0.3309 -0.2874 -0.7221
vt 0.4216 -0.4688 -0.7254
vt 0.2649 -0.4786 -0.7185
vt 0.3552 -0.5315 -0.7223
vt 0.2607 -0.5360 -0.7181
vt 0.3330 -0.5773 -0.7212
vt 0.1984 0.5360 -0.7200
vt 0.3305 0.5697 -0.7254
vt 0.2749 0.9546 -0.0042
vt 0.3266 0.0570 -0.0040
vt 1.7761 2.9253 -0.1320
vt 1.7761 3.0626 -0.1332
vt 1.1909 3.0626 0.0246
vt 1.1909 2.9253 0.0258
vt 0.4723 0.1728 -0.7294
vt 0.4723 0.2100 -0.7295
vt 0.4724 -0.0922 -0.7287
vt 0.4725 -0.2371 -0.7283
vt 0.4725 -0.2725 -0.7282
vt 0.3524 0.1145 0.8140
vt 0.3639 0.7178 1.0094
vt 0.1332 0.7062 1.1295
vt 0.1221 0.1175 0.5225
vt 0.4725 -0.2874 -0.7282
vt 0.5401 -0.4379 -0.7307
vt 0.3653 0.7928 1.0323
vt 0.4064 0.9110 1.0445
vt 0.2578 0.8697 1.1640
vt 0.1627 0.7716 1.1855
vt 0.4723 0.2236 -0.7296
vt 0.4721 0.5697 -0.7311
vt 0.4621 0.9362 -0.0040
vt 0.5115 0.0802 -0.0038
vt 2.5124 2.9253 -0.3304
vt 2.5124 3.0626 -0.3303
vt 0.7364 0.1728 -0.7402
vt 0.7363 0.2100 -0.7403
vt 0.0005 0.0005 0.0355
vt 0.9995 0.9995 0.9361
vt 0.7365 -0.2371 -0.7396
vt 0.7365 -0.0922 -0.7398
vt 0.7365 -0.2725 -0.7395
vt 0.6463 0.1108 1.1120
vt 0.6578 0.7132 0.8364
vt 2.5175 -2.0967 -0.1733
vt 2.5174 -1.9467 -0.1738
vt 1.7812 -1.9467 0.0357
vt 1.7812 -2.0967 0.0365
vt 0.6814 -0.4410 -0.7369
vt 0.7365 -0.2874 -0.7395
vt 0.6592 0.7882 0.8008
vt 0.6269 0.9097 0.7609
vt 0.7363 0.2236 -0.7403
vt 0.7362 0.5697 -0.7417
vt 2.7890 2.9253 -0.4049
vt 2.7889 3.0626 -0.4050
vt 0.8356 0.1728 -0.7443
vt 0.8355 0.2100 -0.7443
vt 0.8357 -0.0922 -0.7440
vt 0.8357 -0.2371 -0.7438
vt 0.8357 -0.2725 -0.7438
vt 0.8971 0.1076 1.4669
vt 0.8711 0.7027 0.6810
vt 0.8357 -0.2874 -0.7438
vt 0.7936 -0.4777 -0.7417
vt 0.8561 0.7702 0.6547
vt 0.8067 0.8487 0.6319
vt 3.2161 2.9253 -0.5200
vt 3.2161 3.0621 -0.5201
vt 0.9887 0.1728 -0.7505
vt 0.9887 0.2100 -0.7505
vt 0.9887 -0.0922 -0.7504
vt 0.9887 -0.2371 -0.7504
vt 0.9887 -0.2725 -0.7503
vt 0.9887 -0.9135 -0.7501
vt 0.9887 -0.5773 -0.7502
vt 0.8554 -0.5722 -0.7443
vt 0.8627 -0.9139 -0.7443
vt 0.9887 -0.2874 -0.7503
vt 0.9887 -0.4843 -0.7503
vt 0.9887 -0.5402 -0.7502
vt 0.8420 -0.5306 -0.7438
vt 0.0449 -0.7124 0.2560
vt 0.1984 -0.7186 0.2560
vt 0.1996 -0.7140 0.2561
vt 0.0461 -0.7078 0.2561
vt 0.2560 -0.7186 0.8016
vt 0.5360 -0.7200 0.8016
vt 0.5360 -0.7153 0.8005
vt 0.2561 -0.7140 0.8004
vt 0.8016 -0.7200 0.5360
vt 0.8778 -0.7171 0.5667
vt 0.8766 -0.7124 0.5668
vt 0.8005 -0.7153 0.5360
vt 0.9583 -0.7139 0.5752
vt 0.9571 -0.7092 0.5753
vt 1.0444 -0.7087 0.5651
vt 1.0432 -0.7040 0.5652
vt 1.1293 -0.7034 0.5360
vt 1.1281 -0.6988 0.5360
vt 0.4640 -0.7034 1.1293
vt 0.7440 -0.7021 1.1292
vt 0.7439 -0.6975 1.1280
vt 0.4640 -0.6988 1.1281
vt -0.1292 -0.7021 0.2560
vt -0.1280 -0.6975 0.2561
vt 0.4930 -0.0318 0.1438
vt 0.0248 -0.0317 0.0246
vt 0.1373 0.0350 0.0512
vt 0.4931 0.0350 0.1418
vt 0.0251 0.8445 -0.0013
vt 0.1376 0.7862 0.0290
vt 0.2572 0.9407 0.0546
vt 0.2902 0.8495 0.0657
vt 0.5026 0.9672 0.1160
vt 0.5018 0.8723 0.1176
vt 0.7652 0.9358 0.2159
vt 0.7350 0.8444 0.2073
vt 1.0238 0.8445 0.3164
vt 0.9118 0.7820 0.2762
vt 1.0237 -0.0317 0.3421
vt 0.9117 0.0350 0.2980
vt 0.0460 -0.7079 0.2774
vt 0.1627 -0.7126 0.2774
vt 0.1721 -0.6762 0.2780
vt 0.0555 -0.6715 0.2780
vt 0.2774 -0.7126 0.8373
vt 0.5174 -0.7138 0.8374
vt 0.5180 -0.6773 0.8279
vt 0.2780 -0.6762 0.8279
vt 0.8374 -0.7138 0.5174
vt 0.8874 -0.7119 0.5376
vt 0.8780 -0.6754 0.5383
vt 0.8279 -0.6773 0.5180
vt 0.9568 -0.7092 0.5449
vt 0.9474 -0.6727 0.5456
vt 1.0333 -0.7045 0.5360
vt 1.0239 -0.6681 0.5366
vt 1.0913 -0.7009 0.5161
vt 1.0819 -0.6645 0.5167
vt 0.4839 -0.7009 1.0913
vt 0.7226 -0.6998 1.0913
vt 0.7220 -0.6633 1.0819
vt 0.4833 -0.6645 1.0819
vt -0.0913 -0.6998 0.2774
vt -0.0819 -0.6633 0.2780
vt 0.2636 -0.7402 0.1728
vt 0.5277 -0.7294 0.1728
vt 0.5250 -0.7165 0.1729
vt 0.2609 -0.7273 0.1729
vt 0.8272 -0.7294 0.5277
vt 1.0922 -0.7287 0.5276
vt 1.0921 -0.7158 0.5248
vt 0.8271 -0.7165 0.5250
vt 0.4724 -0.7287 -0.0922
vt 0.7365 -0.7398 -0.0922
vt 0.7392 -0.7269 -0.0921
vt 0.4752 -0.7158 -0.0921
vt -0.0922 -0.7398 0.2635
vt 0.1728 -0.7402 0.2636
vt 0.1729 -0.7273 0.2609
vt -0.0921 -0.7269 0.2608
vt 0.3232 0.9620 0.3671
vt 0.6094 0.9620 0.5781
vt 0.6133 0.9618 0.4508
vt 0.3272 0.9618 0.2398
vt 0.9956 0.9620 0.8630
vt 0.9995 0.9618 0.7357
vt 0.9953 0.0755 0.8739
vt 0.9993 0.0753 0.7467
vt 0.6091 0.0755 0.5952
vt 0.6131 0.0753 0.4680
vt 0.3230 0.0755 0.3887
vt 0.3269 0.0753 0.2615
vt 0.0005 0.0755 0.1555
vt 0.0044 0.0753 0.0283
vt 0.0008 0.9620 0.1294
vt 0.0047 0.9618 0.0021
vt 0.6133 0.9215 0.4516
vt 0.3271 0.9215 0.2408
vt 0.9678 0.9215 0.7133
vt 0.9676 0.1261 0.7235
vt 0.6131 0.1261 0.4679
vt 0.3269 0.1261 0.2611
vt 0.0361 0.1261 0.0509
vt 0.0364 0.9215 0.0264
vt 3.0969 1.5201 3.2139
vt 2.9257 1.5199 3.2140
vt 2.9257 1.4157 3.2193
vt 3.0969 1.4160 3.2193
vt 3.2140 1.5199 2.9257
vt 2.6903 1.2863 2.9257
vt 2.6957 1.1822 2.9257
vt 3.2193 1.4157 2.9257
vt 2.4237 1.1674 2.9257
vt 2.4291 1.0632 2.9257
vt -1.9257 1.1674 2.4237
vt -2.0969 1.1672 2.4236
vt -2.0969 1.0631 2.4290
vt -1.9257 1.0632 2.4291
vt -1.4236 1.1672 3.0969
vt -1.6903 1.2862 3.0969
vt -1.6957 1.1820 3.0969
vt -1.4290 1.0631 3.0969
vt -2.2139 1.5201 3.0969
vt -2.2193 1.4160 3.0969
vt -1.9257 -0.4151 -2.2194
vt -2.0625 -0.4152 -2.2194
vt -2.0621 -0.5201 -2.2161
vt -1.9253 -0.5200 -2.2161
vt 3.2194 -0.4152 3.0625
vt 2.7922 -0.3001 3.0631
vt 2.7889 -0.4050 3.0626
vt 3.2161 -0.5201 3.0621
vt 2.5156 -0.2254 3.0631
vt 2.5124 -0.3303 3.0626
vt 1.7794 -0.0282 3.0631
vt 1.7761 -0.1332 3.0626
vt 1.1942 0.1295 3.0631
vt 1.1909 0.0246 3.0626
vt 3.0631 0.1295 -0.1942
vt 2.9257 0.1307 -0.1942
vt 2.9253 0.0258 -0.1909
vt 3.0626 0.0246 -0.1909
vt -0.1942 0.1307 2.9257
vt -0.7794 -0.0271 2.9257
vt -0.7761 -0.1320 2.9253
vt -0.1909 0.0258 2.9253
vt -1.5156 -0.2255 2.9257
vt -1.5124 -0.3304 2.9253
vt -1.7923 -0.3000 2.9257
vt -1.7890 -0.4049 2.9253
vt -2.2194 -0.4151 2.9257
vt -2.2161 -0.5200 2.9253
vt -0.7718 -0.6576 -0.5773
vt -0.6581 -0.6648 -0.5773
vt -0.6539 -0.6521 -0.5772
vt -0.7676 -0.6449 -0.5772
vt -0.4608 -0.6772 -0.5773
vt -0.4566 -0.6645 -0.5772
vt -0.5773 -0.6772 1.4608
vt -0.5402 -0.6773 1.4608
vt -0.5401 -0.6646 1.4566
vt -0.5772 -0.6645 1.4566
vt -0.4843 -0.6775 1.4608
vt -0.4842 -0.6648 1.4566
vt -0.2874 -0.6781 1.4609
vt -0.2873 -0.6654 1.4567
vt 1.4609 -0.6781 -0.2874
vt 1.6582 -0.6653 -0.2874
vt 1.6540 -0.6526 -0.2873
vt 1.4567 -0.6654 -0.2873
vt 1.7719 -0.6580 -0.2874
vt 1.7678 -0.6453 -0.2873
vt 1.2874 -0.6580 1.7719
vt 1.4843 -0.6577 1.7718
vt 1.4842 -0.6450 1.7677
vt 1.2873 -0.6453 1.7678
vt 1.5402 -0.6576 1.7718
vt 1.5401 -0.6449 1.7677
vt 1.5773 -0.6576 1.7718
vt 1.5772 -0.6449 1.7676
vt -0.4843 -0.7071 0.9961
vt -0.2874 -0.7080 0.9981
vt -0.2867 -0.6953 0.9940
vt -0.4836 -0.6944 0.9919
vt 0.9981 -0.7080 -0.2874
vt 1.1290 -0.6995 -0.2874
vt 1.1248 -0.6868 -0.2867
vt 0.9940 -0.6953 -0.2867
vt 1.3215 -0.6871 -0.2874
vt 1.3174 -0.6744 -0.2867
vt 1.2874 -0.6871 1.3215
vt 1.4843 -0.6864 1.3215
vt 1.4836 -0.6737 1.3173
vt 1.2867 -0.6744 1.3174
vt 1.5402 -0.6862 1.3214
vt 1.5395 -0.6735 1.3173
vt 1.5773 -0.6860 1.3214
vt 1.5766 -0.6733 1.3173
vt -0.3214 -0.6860 -0.5773
vt -0.1288 -0.6982 -0.5773
vt -0.1247 -0.6855 -0.5766
vt -0.3173 -0.6733 -0.5766
vt 0.0049 -0.7066 -0.5773
vt 0.0090 -0.6940 -0.5766
vt -0.5773 -0.7066 0.9951
vt -0.5402 -0.7068 0.9955
vt -0.5395 -0.6941 0.9913
vt -0.5766 -0.6940 0.9910
vt -1.5162 -0.2119 -1.9468
vt -0.7800 -0.0024 -1.9468
vt -0.7812 0.0357 -1.9467
vt -1.5174 -0.1738 -1.9467
vt 2.9468 -0.0024 -0.7800
vt 3.0969 -0.0017 -0.7800
vt 3.0967 0.0365 -0.7812
vt 2.9467 0.0357 -0.7812
vt 1.7800 -0.0017 -2.0969
vt 2.5162 -0.2115 -2.0969
vt 2.5175 -0.1733 -2.0967
vt 1.7812 0.0365 -2.0967
vt -2.0969 -0.2115 -1.5162
vt -1.9468 -0.2119 -1.5162
vt -1.9467 -0.1738 -1.5174
vt -2.0967 -0.1733 -1.5175
vt -0.9139 -0.7443 0.1373
vt -0.5722 -0.7443 0.1446
vt -0.5781 -0.7419 0.1514
vt -0.9138 -0.7423 0.1368
vt -0.5306 -0.7438 0.1580
vt -0.5368 -0.7414 0.1638
vt -0.4777 -0.7417 0.2064
vt -0.4777 -0.7397 0.2060
vt 0.2064 -0.7417 -0.4777
vt 0.3186 -0.7369 -0.4410
vt 0.3181 -0.7348 -0.4410
vt 0.2060 -0.7397 -0.4777
vt 0.4599 -0.7307 -0.4379
vt 0.4594 -0.7287 -0.4379
vt 0.5784 -0.7254 -0.4688
vt 0.5779 -0.7234 -0.4688
vt 1.4688 -0.7254 0.5784
vt 1.5315 -0.7223 0.6448
vt 1.5315 -0.7203 0.6443
vt 1.4688 -0.7234 0.5779
vt 1.5773 -0.7212 0.6670
vt 1.5772 -0.7191 0.6665
vt 1.9152 -0.7200 0.6668
vt 1.9152 -0.7180 0.6663
vt 0.3512 0.0345 0.7896
vt 0.1180 0.0375 0.5326
vt 0.6451 0.0308 1.1517
vt 0.8846 0.0156 0.0386
vt 0.9928 0.0196 0.0013
vt 0.8892 0.0983 0.0390
vt 0.9891 0.6773 0.0072
vt 0.8941 0.6625 0.0504
vt 0.9278 0.8088 0.0161
vt 0.8299 0.7751 0.0565
vt 0.8335 0.9082 0.0477
vt 0.7770 0.8348 0.0779
vt 0.6384 0.9981 0.1346
vt 0.6086 0.9080 0.1565
vt 0.3776 0.9989 0.2444
vt 0.3790 0.8983 0.2527
vt 0.1870 0.9211 0.3388
vt 0.2480 0.8438 0.3186
vt 0.0686 0.8031 0.3943
vt 0.1534 0.7652 0.3622
vt 0.0091 0.6680 0.4150
vt 0.0856 0.6485 0.3767
vt 0.0094 0.0111 0.4351
vt 0.0840 0.0941 0.3939
vt 0.0813 0.0113 0.3966
vt 0.9000 0.0276 1.4658
vt 0.9023 0.0988 0.6427
vt 0.8977 0.0161 0.6423
vt 0.9090 0.6630 0.6541
vt 0.8448 0.7756 0.6602
vt 0.7920 0.8353 0.6815
vt 0.6236 0.9086 0.7602
vt 0.3939 0.8988 0.8564
vt 0.2630 0.8444 0.9223
vt 0.1684 0.7658 0.9659
vt 0.1006 0.6490 0.9803
vt 0.0990 0.0946 0.9976
vt 0.0962 0.0119 1.0003
vt -0.3547 -0.7901 -0.6832
vt -0.3538 -0.9174 -0.6828
vt 0.0010 0.0005 0.9995
vt 0.9995 0.0032 0.0543
vt 0.9911 0.9995 0.0005
vt 0.0005 0.9908 0.9484
vt -0.4606 -0.6763 -0.9177
vt -0.3538 -0.6828 -0.9174
vt -0.3514 -0.6752 -0.9173
vt -0.4582 -0.6687 -0.9176
vt -0.9174 -0.6828 1.3538
vt -0.7901 -0.6832 1.3547
vt -0.7901 -0.6756 1.3523
vt -0.9173 -0.6752 1.3514
vt 1.3547 -0.6832 -0.7901
vt 1.4607 -0.6766 -0.7913
vt 1.4583 -0.6690 -0.7912
vt 1.3523 -0.6756 -0.7901
vt 1.7913 -0.6766 1.4607
vt 1.9177 -0.6763 1.4606
vt 1.9176 -0.6687 1.4582
vt 1.7912 -0.6690 1.4583
vt 0.6407 0.0020 0.2239
vt 0.6401 0.9952 0.1680
vt 0.0271 0.9880 0.4785
vt 0.0005 0.0005 0.5532
vt 0.2407 -0.7473 -0.7155
vt 0.3332 -0.9152 -0.7200
vt 0.2434 -0.9156 -0.7149
vt 0.9902 0.0029 0.0436
vt 0.9712 0.9990 0.0005
vt 0.6500 0.0025 0.6702
vt 0.9995 0.0034 0.4899
vt 0.9805 0.9995 0.4468
vt 0.6494 0.9956 0.6143
vt 0.0364 0.9885 0.9248
vt 0.0098 0.0010 0.9995
vt -0.1858 0.9998 -0.0045
vt -0.1220 0.0008 -0.0032
vt 0.5389 0.0243 0.0032
vt 0.5772 0.9603 0.0005
vt 0.0005 0.9156 0.0117
vt 0.0448 0.0005 0.0128
vt 0.9548 0.9984 0.5772
vt 0.0397 0.9995 0.5329
vt 0.0005 0.0128 0.9552
vt 0.9156 0.0117 0.9995
vt 0.5329 0.9995 0.0397
vt 0.0388 0.9899 0.0634
vt 0.4611 0.0032 0.0243
vt 0.9552 0.0128 0.0005
vt 0.9366 0.9899 0.0388
vt 0.0005 0.9872 0.0005
vt 0.0397 0.0005 0.4228
vt 0.9757 0.0032 0.4611
vt 0.9995 0.9872 0.9995
vt 0.4228 0.9984 0.9548
vt 0.0005 0.0117 0.9156
vt 0.5772 0.0005 0.9603
vt 1.1233 -0.1303 0.7681
vt 0.9926 -0.1185 0.7721
vt 0.9785 -0.1748 0.7738
vt 1.1081 -0.1822 0.7697
vt -0.9532 -0.4302 0.5000
vt -0.9612 -0.5656 0.5000
vt 1.9729 -0.5473 0.5076
vt 1.9831 -0.4531 0.5000
vt -1.1351 -0.2316 0.4762
vt -1.1319 -0.3554 0.4730
vt 1.8081 -0.3569 0.5187
vt 1.8044 -0.2332 0.5155
vt -0.8271 1.7199 0.5000
vt -0.8533 1.2737 0.5000
vt 2.0831 1.2508 0.5000
vt 2.0915 1.4222 0.4819
vt 2.1092 1.6970 0.5000
vt -0.8700 0.9887 0.5000
vt -0.8981 0.5103 0.5000
vt 2.0383 0.4874 0.5000
vt 2.0663 0.9658 0.5000
vt -0.9179 0.1723 0.5000
vt 2.0185 0.1494 0.5000
vt -0.9453 -0.2947 0.5000
vt 1.9911 -0.3176 0.5000
vt -1.1741 1.2917 0.5149
vt -1.1685 1.0724 0.5093
vt 1.7657 1.0707 0.4824
vt 1.7591 1.2899 0.4768
vt -1.1591 0.7060 0.5000
vt 1.7765 0.7044 0.4917
vt -1.1507 0.3788 0.4917
vt 1.7863 0.3771 0.5000
vt -1.1292 -0.4609 0.4703
vt 0.4259 -0.4617 0.4973
vt 0.5797 -0.4618 0.5000
vt 1.8112 -0.4624 0.5213
vt -1.1797 1.5109 0.5205
vt 1.7542 1.5005 0.4849
vt 0.5633 -0.7547 0.5007
vt 1.8217 -0.8165 0.5303
vt 0.4210 -0.7510 0.4974
vt -1.1201 -0.8150 0.4613
vt 0.4980 -0.1206 0.0081
vt 0.4989 -0.1768 0.0222
vt 0.7738 -0.1748 0.0215
vt 0.7721 -0.1185 0.0074
vt 0.9778 0.4989 -0.1768
vt 1.1074 0.3329 -0.1857
vt 1.1081 0.7697 -0.1822
vt 0.9785 0.7738 -0.1748
vt 0.6671 -0.1857 -0.1074
vt 0.6697 -0.1338 -0.1226
vt 0.2319 -0.1303 -0.1233
vt 0.2303 -0.1822 -0.1081
vt -0.1226 0.3303 -0.1338
vt 0.0081 0.4980 -0.1206
vt 0.0074 0.7721 -0.1185
vt -0.1233 0.7681 -0.1303
vt 0.7094 0.3246 -0.2708
vt 0.6986 -0.7505 0.0113
vt 0.7343 -0.7505 0.0113
vt 1.9135 -0.7501 0.0113
vt 1.9293 0.3137 -0.2708
vt 0.3055 -0.6460 1.9599
vt 0.2731 0.4290 1.7253
vt -0.9319 0.4182 1.7253
vt -0.9193 -0.6456 1.9599
vt 1.4123 0.2376 1.4026
vt 0.5696 0.2211 1.3583
vt 0.6722 -0.9664 1.3531
vt 1.4123 -0.9674 1.3918
vt 1.2860 0.3943 1.3929
vt 0.7774 0.2319 0.4856
vt -0.2990 0.2414 0.4293
vt -0.2990 -0.9325 0.4188
vt 0.8437 -0.9340 0.4786
vt 1.9325 0.4188 -0.2990
vt 0.7586 0.4293 -0.2990
vt -0.9308 0.3735 0.8718
vt 0.2812 0.3809 0.8056
vt 0.2319 0.4856 0.7774
vt -0.9340 0.4786 0.8437
vt -0.1280 0.3958 0.5000
vt 1.1748 0.3967 0.5000
vt 1.1740 0.6896 0.5000
vt -0.1288 0.6887 0.5000
vt 0.8395 1.5465 0.3623
vt 0.8066 1.6050 0.3579
vt 0.7174 1.4811 0.3548
vt 0.8953 1.4663 0.3665
vt 1.0877 1.1897 0.3810
vt 1.2270 0.9895 0.3915
vt -0.1047 0.4908 0.3297
vt -0.2708 0.2906 0.3246
vt 0.8056 0.2812 0.3809
vt -0.0552 0.5504 0.3312
vt 0.0028 0.6203 0.3330
vt 0.2892 0.9652 0.3417
vt 0.4427 1.1502 0.3464
vt 0.6145 1.3572 0.3517
vt 1.4241 0.7062 0.4063
vt 1.5415 0.5374 0.4151
vt 1.5991 0.4298 0.4193
vt 0.8826 0.2566 0.3847
vt 0.8718 -0.9308 0.3735
vt 0.9852 -0.9309 0.3794
vt 0.2376 1.4026 1.4123
vt -0.9674 1.3918 1.4123
vt -4.4510 5.4939 -4.4939
vt -4.4939 4.7230 5.4939
vt 5.4510 4.0600 5.4939
vt 5.4939 4.8309 -4.4939
vt -4.4582 -3.8309 5.4939
vt 5.4867 -4.4939 5.4939
vt 0.7434 0.3847 0.8826
vt 1.9309 0.3794 0.9852
vt 1.9664 1.3531 0.6722
vt 0.7789 1.3583 0.5696
vt 1.3097 -0.0148 0.4994
vt 1.8373 1.1429 0.4872
vt 1.7308 1.1420 0.4878
vt 1.2140 -0.0161 0.4988
vt -0.9757 1.2274 1.4303
vt 0.1779 1.2377 1.4303
vt 0.1603 1.8247 1.2744
vt -0.9934 1.8144 1.2744
vt -0.4303 -0.9757 1.2274
vt 1.5296 -0.9726 1.1256
vt 1.5296 0.1810 1.1360
vt 1.4348 0.1809 1.1409
vt -0.4303 0.1779 1.2377
vt 1.9903 1.7127 -0.6855
vt 0.8367 1.7230 -0.6855
vt 0.8358 1.6928 -0.6775
vt 0.8198 1.1624 -0.5366
vt 0.8190 1.1360 -0.5296
vt 1.9726 1.1256 -0.5296
vt -0.6855 -0.9903 1.7127
vt 1.2744 -0.9934 1.8144
vt 1.2744 0.1603 1.8247
vt -0.5975 0.1632 1.7276
vt -0.6855 0.1633 1.7230
vt 0.8529 0.9535 0.4889
vt 0.9934 0.9540 0.4880
vt 0.9632 1.0218 0.4873
vt -0.8457 0.9474 0.4993
vt -0.8450 1.0163 0.5000
vt 4.8411 0.0388 0.5881
vt 4.0496 -0.9724 0.5481
vt 4.1220 -0.9732 0.5494
vt 4.8705 -0.0024 0.5876
vt 0.7637 1.5109 1.0277
vt 0.7989 1.5273 1.0035
vt 0.7669 1.5422 1.0171
vt -0.1960 0.0194 -63.8385
vt -0.2569 1.0171 -72.9042
vt -0.1795 0.9915 -58.5680
vt -0.1175 0.0215 -49.4063
vt -0.1021 0.9659 -44.2316
vt -0.0386 0.0237 -34.9379
vt 0.1647 0.8776 5.1902
vt 0.2218 0.0307 13.5499
vt 0.3577 0.8137 40.9503
vt 0.4102 0.0358 48.6294
vt 0.6311 0.7233 91.5828
vt 0.6770 0.0429 98.2984
vt 0.7939 0.6694 121.7432
vt 0.7794 0.0457 117.3696
vt 0.8350 0.0472 127.5319
vt 1.0488 0.5850 168.9609
vt 1.0846 0.0542 173.3093
vt 0.0648 0.7289 -0.7156
vt 0.1222 0.5667 -0.7171
vt 0.0627 0.6842 -0.7153
vt 0.0806 1.4479 -0.7198
vt 0.1740 1.3241 -0.7229
vt 0.3302 1.1172 -0.7281
vt 0.4719 0.9295 -0.7329
vt 0.7362 0.5795 -0.7418
vt 0.7435 0.5697 -0.7420
vt 0.8355 0.2236 -0.7443
vt 0.8354 0.4480 -0.7452
vt 0.9887 0.2236 -0.7505
vt 0.9887 0.2451 -0.7505
vt 0.2560 -0.6460 1.9599
vt 0.2556 -0.6715 1.9669
vt 0.3050 -0.6715 1.9669
vt 0.7440 -0.6460 1.9599
vt 0.4874 -0.6596 1.7754
vt 0.4879 -0.6851 1.7824
vt 0.7444 -0.6715 1.9669
vt 0.4303 -0.6627 1.7343
vt 0.4307 -0.6882 1.7413
vt 0.3250 -0.6683 1.6586
vt 0.3254 -0.6938 1.6656
vt 0.0507 -0.6831 1.4615
vt 0.0511 -0.7086 1.4685
vt -0.1430 -0.6936 1.3223
vt -0.1426 -0.7191 1.3293
vt -0.4107 -0.7080 1.1298
vt -0.4103 -0.7335 1.1369
vt -0.4918 -0.7123 1.0715
vt -0.4914 -0.7378 1.0785
vt -0.5725 -0.7166 1.0135
vt -0.5721 -0.7421 1.0205
vt 1.5725 -0.7166 1.0135
vt 1.4479 -0.7198 0.9194
vt 1.4475 -0.7453 0.9264
vt 1.5721 -0.7421 1.0205
vt 1.3241 -0.7229 0.8260
vt 1.3237 -0.7484 0.8330
vt 1.1172 -0.7281 0.6698
vt 1.1168 -0.7537 0.6768
vt 0.9295 -0.7329 0.5281
vt 0.9291 -0.7584 0.5351
vt 0.5795 -0.7418 0.2638
vt 0.5791 -0.7673 0.2708
vt 0.5697 -0.7420 0.2565
vt 0.5693 -0.7675 0.2635
vt 0.4480 -0.7452 0.1646
vt 0.4476 -0.7707 0.1716
vt 0.2451 -0.7505 0.0113
vt 0.2447 -0.7760 0.0183
vt 0.7549 -0.7505 0.0113
vt 0.6990 -0.7761 0.0183
vt 0.7553 -0.7760 0.0183
vt -1.1990 -0.4615 0.4679
vt -1.1899 -0.8156 0.4589
vt -1.2017 -0.3560 0.4705
vt -1.2049 -0.2322 0.4737
vt -1.2205 0.3782 0.4892
vt -1.2289 0.7055 0.4975
vt -1.2383 1.0718 0.5068
vt -1.2439 1.2911 0.5124
vt -1.2495 1.5104 0.5180
vt -1.0230 -0.4273 0.5006
vt -1.0310 -0.5627 0.5006
vt -1.0151 -0.2918 0.5006
vt -0.9877 0.1752 0.5006
vt -0.9679 0.5132 0.5006
vt -0.9398 0.9916 0.5006
vt -0.9231 1.2766 0.5006
vt -0.8969 1.7228 0.5006
vt -0.5224 -0.0399 0.4878
vt -0.5218 -0.1012 0.4872
vt 1.2861 -0.0666 0.5000
vt -0.8563 -0.1987 0.4873
vt 1.4005 -0.2162 0.4994
vt 5.5738 -0.9882 0.5768
vt 1.5152 -0.2171 0.5000
vt -0.5342 1.1226 0.5000
vt 4.9199 0.0509 0.5899
vt 4.8807 0.0108 0.5882
vt 5.6564 -0.9890 0.5783
vt 4.8869 0.0974 0.5904
vt 0.0389 0.9995 0.8281
vt 0.0005 0.0159 0.0015
vt 0.9585 0.0005 1.0000
vt 0.9995 0.9857 0.2676
# 854 texture coords

g Ryytli12
usemtl Material__122
s 1
f 1/1 2/2 3/3 4/4 
usemtl Material__106
f 5/5 6/6 7/7 8/8 
f 5/5 8/8 9/9 10/10 
f 11/11 12/12 13/13 14/14 
usemtl Material__115
f 15/15 16/16 17/17 18/18 
usemtl Material__122
f 19/19 20/20 21/21 22/22 
usemtl Material__106
f 23/23 24/24 25/25 26/26 
f 27/27 28/28 12/12 11/11 
f 29/29 30/30 31/31 32/32 
f 33/33 34/34 28/28 27/27 
f 35/35 36/36 30/30 29/29 
f 37/37 38/38 34/34 33/33 
f 39/39 40/40 36/36 35/35 
f 41/41 42/42 38/38 37/37 
f 43/43 44/44 40/40 39/39 
f 45/45 46/46 47/47 48/48 
f 47/47 49/49 50/50 48/48 
f 51/51 52/52 53/53 54/54 
f 55/55 56/56 42/42 41/41 
f 57/57 58/58 44/44 43/43 
f 59/59 60/60 56/56 55/55 
f 61/61 62/62 58/58 57/57 
f 63/63 64/64 60/60 59/59 
f 65/65 66/66 62/62 61/61 
f 48/48 50/50 64/64 63/63 
f 54/54 53/53 66/66 65/65 
usemtl Material__115
f 67/67 68/68 17/17 16/16 
usemtl Material__106
f 69/69 70/70 26/26 71/71 
f 25/25 71/71 26/26 
f 72/72 73/73 31/31 30/30 
f 74/74 72/72 30/30 36/36 
f 75/75 74/74 36/36 40/40 
f 76/76 75/75 40/40 44/44 
f 77/77 78/78 53/53 52/52 
f 79/79 76/76 44/44 58/58 
usemtl Material__112
f 80/80 81/81 82/82 83/83 
f 84/84 80/80 83/83 85/85 
f 86/86 84/84 85/85 87/87 
usemtl Material__106
f 88/88 69/69 89/89 90/90 
f 91/91 92/92 93/93 94/94 
f 92/92 95/95 89/89 93/93 
f 96/96 91/91 94/94 97/97 
usemtl Material__107
f 98/98 99/99 100/100 101/101 
usemtl Material__106
f 102/102 103/103 104/104 105/105 
f 106/106 102/102 105/105 107/107 
f 108/108 106/106 107/107 109/109 
f 110/110 108/108 109/109 111/111 
f 112/112 110/110 111/111 113/113 
f 114/114 112/112 113/113 115/115 
f 90/90 89/89 95/95 116/116 
f 117/117 118/118 92/92 91/91 
f 118/118 119/119 95/95 92/92 
f 120/120 117/117 91/91 96/96 
usemtl Material__107
f 121/121 122/122 99/99 98/98 
usemtl Material__106
f 123/123 124/124 103/103 102/102 
f 125/125 123/123 102/102 106/106 
f 126/126 127/127 114/114 128/128 
f 129/129 125/125 106/106 108/108 
usemtl Material__112
f 130/130 131/131 132/132 133/133 
f 134/134 130/130 133/133 135/135 
f 136/136 134/134 135/135 137/87 
usemtl Material__106
f 94/94 93/93 71/71 73/73 
f 93/93 89/89 69/69 71/71 
f 97/97 94/94 73/73 72/72 
usemtl Material__107
f 101/101 100/100 138/137 139/138 
usemtl Material__106
f 105/105 104/104 74/74 75/75 
f 107/107 105/105 75/75 76/76 
f 140/139 115/115 78/78 141/140 
f 77/77 141/140 78/78 
f 109/109 107/107 76/76 79/79 
usemtl Material__112
f 142/141 143/142 81/81 80/80 
f 144/143 142/141 80/80 84/84 
f 145/144 144/143 84/84 86/86 
usemtl Material__106
f 70/70 69/69 88/88 
f 116/116 95/95 119/119 146/145 
f 11/11 14/14 118/118 117/117 
usemtl Material__111
f 147/146 148/147 149/148 150/149 
f 151/150 147/146 150/149 
usemtl Material__106
f 27/27 11/11 117/117 120/120 
f 33/33 27/27 120/120 124/124 
f 37/37 33/33 124/124 123/123 
f 41/41 37/37 123/123 125/125 
f 45/45 48/48 127/127 126/126 
f 55/55 41/41 125/125 129/129 
usemtl Material__112
f 152/151 153/152 131/131 130/130 
f 154/153 152/151 130/130 134/134 
f 155/154 154/153 134/134 136/136 
usemtl Material__111
f 148/147 147/146 156/155 157/156 
f 158/157 157/156 156/155 
usemtl Material__106
f 159/158 160/159 13/13 12/12 
usemtl Material__122
f 161/160 162/161 163/162 164/163 
usemtl Material__106
f 165/164 159/158 12/12 28/28 
f 166/165 165/164 28/28 34/34 
f 167/166 166/165 34/34 38/38 
f 168/167 167/166 38/38 42/42 
f 169/168 168/167 42/42 56/56 
f 170/169 169/168 56/56 171/170 
f 60/60 171/170 56/56 
f 172/171 170/169 171/170 173/172 
f 174/173 172/171 173/172 64/64 
f 50/50 174/173 64/64 
f 175/174 13/13 160/159 176/175 
usemtl Material__122
f 177/176 161/160 164/163 178/177 
usemtl Material__115
f 179/178 180/179 181/180 182/181 
usemtl Material__106
f 183/182 184/183 159/158 165/164 
f 185/184 183/182 165/164 166/165 
f 186/185 185/184 166/165 167/166 
f 187/186 186/185 167/166 168/167 
usemtl Material__114
f 188/187 189/188 190/189 191/190 
usemtl Material__106
f 192/191 187/186 168/167 169/168 
f 193/192 192/191 169/168 170/169 
usemtl Material__114
f 194/193 195/194 196/195 197/196 
f 189/188 194/193 197/196 190/189 
usemtl Material__106
f 176/175 160/159 198/197 199/198 
usemtl Material__122
f 200/199 177/176 178/177 201/200 
usemtl Material__115
f 202/201 203/202 180/179 179/178 
usemtl Material__106
f 204/203 205/204 184/183 183/182 
usemtl Material__112
f 206/205 207/142 208/206 209/87 
usemtl Material__106
f 210/207 211/208 185/184 186/185 
f 212/209 210/207 186/185 187/186 
usemtl Material__114
f 213/210 214/211 189/188 188/187 
usemtl Material__115
f 215/212 216/213 217/214 218/215 
usemtl Material__106
f 219/216 220/217 192/191 193/192 
usemtl Material__114
f 221/218 222/219 195/194 194/193 
f 214/211 221/218 194/193 189/188 
usemtl Material__106
f 199/198 198/197 223/220 224/221 
usemtl Material__122
f 20/20 200/199 201/200 21/21 
usemtl Material__115
f 225/222 226/223 203/202 202/201 
usemtl Material__106
f 227/224 228/225 205/204 204/203 
f 229/226 227/224 204/203 211/208 
f 230/227 229/226 211/208 210/207 
f 231/228 230/227 210/207 212/209 
usemtl Material__114
f 232/229 233/230 214/211 213/210 
usemtl Material__106
f 234/231 231/228 212/209 220/217 
f 235/232 234/231 220/217 219/216 
usemtl Material__114
f 236/233 237/234 222/219 221/218 
f 233/230 236/233 221/218 214/211 
usemtl Material__122
f 2/2 19/19 22/22 3/3 
usemtl Material__115
f 238/235 239/236 226/223 225/222 
usemtl Material__106
f 240/237 241/238 228/225 227/224 
f 242/239 240/237 227/224 229/226 
f 243/240 242/239 229/226 230/227 
f 244/241 243/240 230/227 231/228 
f 245/242 246/243 247/244 248/245 
f 249/246 244/241 231/228 234/231 
f 250/247 249/246 234/231 235/232 
f 251/248 250/247 235/232 252/249 
f 246/243 251/248 252/249 247/244 
f 146/145 119/119 6/6 5/5 
s off
f 14/250 13/251 253/252 254/253 
f 13/254 175/255 255/256 253/257 
f 175/258 256/259 257/260 255/261 
f 256/259 7/262 258/263 257/260 
f 7/262 6/264 259/265 258/263 
f 6/264 119/266 260/267 259/265 
f 119/268 118/269 261/270 260/271 
f 118/272 14/250 254/253 261/273 
usemtl Material__111
f 254/274 253/275 262/276 263/277 
f 253/275 255/278 264/279 262/276 
f 255/278 257/280 265/281 264/279 
f 257/280 258/282 266/283 265/281 
f 258/282 259/284 267/285 266/283 
f 259/284 260/286 268/287 267/285 
f 260/286 261/288 269/289 268/287 
f 261/288 254/274 263/277 269/289 
usemtl Material__106
f 263/290 262/291 156/292 147/293 
f 262/294 264/295 158/296 156/297 
f 264/298 265/299 157/300 158/301 
f 265/299 266/302 148/303 157/300 
f 266/302 267/304 149/305 148/303 
f 267/304 268/306 150/307 149/305 
f 268/308 269/309 151/310 150/311 
f 269/312 263/290 147/293 151/313 
f 204/314 183/315 208/316 207/317 
f 183/318 185/319 209/320 208/321 
f 185/322 211/323 206/324 209/325 
f 211/326 204/327 207/328 206/329 
usemtl Material__107
f 96/330 97/331 270/332 271/333 
f 97/331 72/334 272/335 270/332 
f 72/334 74/336 273/337 272/335 
f 74/336 104/338 274/339 273/337 
f 104/338 103/340 275/341 274/339 
f 103/340 124/342 276/343 275/341 
f 124/342 120/344 277/345 276/343 
f 120/344 96/330 271/333 277/345 
f 271/333 270/332 278/346 279/347 
f 270/332 272/335 280/348 278/346 
f 272/335 273/337 281/349 280/348 
f 273/337 274/339 282/350 281/349 
f 274/339 275/341 283/351 282/350 
f 275/341 276/343 284/352 283/351 
f 276/343 277/345 285/353 284/352 
f 277/345 271/333 279/347 285/353 
f 279/347 278/346 100/100 99/99 
f 278/346 280/348 138/137 100/100 
f 280/348 281/349 139/138 138/137 
f 281/349 282/350 101/101 139/138 
f 282/350 283/351 98/98 101/101 
f 283/351 284/352 121/121 98/98 
f 284/352 285/353 122/122 121/121 
f 285/353 279/347 99/99 122/122 
usemtl Material__115
f 24/354 32/355 15/356 18/357 
f 32/358 31/359 16/360 15/361 
f 31/359 73/362 67/363 16/360 
f 73/364 71/365 68/366 67/367 
f 71/368 25/369 17/370 68/371 
f 25/369 24/372 18/373 17/370 
f 241/374 286/375 239/376 238/377 
f 286/378 287/379 226/380 239/381 
f 287/379 223/382 203/383 226/380 
f 223/382 198/384 180/385 203/383 
f 198/384 160/386 181/387 180/385 
f 160/388 159/389 182/390 181/391 
f 159/392 184/393 179/394 182/395 
f 184/393 205/396 202/397 179/394 
f 205/396 228/398 225/399 202/397 
f 228/398 241/400 238/401 225/399 
usemtl Material__106
f 53/402 78/403 86/404 87/405 
f 78/403 115/406 145/407 86/404 
f 115/408 113/409 144/410 145/411 
f 113/409 111/412 142/413 144/410 
f 111/412 109/414 143/415 142/413 
f 109/416 79/417 81/418 143/419 
f 79/417 58/420 82/421 81/418 
f 58/422 62/423 83/424 82/425 
f 62/423 66/426 85/427 83/424 
f 66/426 53/428 87/429 85/427 
f 59/430 55/431 153/432 152/433 
f 55/434 129/435 131/436 153/437 
f 129/435 108/438 132/439 131/436 
f 108/440 110/441 133/442 132/443 
f 110/441 112/444 135/445 133/442 
f 112/444 114/446 137/447 135/445 
f 114/448 127/449 136/450 137/451 
f 127/449 48/452 155/453 136/450 
f 48/454 63/455 154/456 155/457 
f 63/455 59/430 152/433 154/456 
usemtl Material__115
f 212/458 187/459 217/460 216/461 
f 187/462 192/463 218/464 217/465 
f 192/466 220/467 215/468 218/469 
f 220/470 212/471 216/472 215/473 
usemtl Material__106
f 248/474 247/475 288/476 289/477 
f 247/475 252/478 290/479 288/476 
f 252/478 235/480 291/481 290/479 
f 235/482 219/483 292/484 291/485 
f 219/483 193/486 293/487 292/484 
f 193/486 170/488 294/489 293/487 
f 170/490 172/491 295/492 294/493 
f 172/491 174/494 296/495 295/492 
f 174/494 297/496 298/497 296/495 
usemtl Material__114
f 299/498 188/187 191/190 300/499 
f 299/498 301/500 213/210 188/187 
f 302/501 289/502 303/503 
f 289/502 288/504 304/505 303/503 
f 288/504 290/506 305/507 304/505 
f 290/506 291/508 306/509 305/507 
f 291/508 292/510 307/511 306/509 
f 292/510 293/512 308/513 307/511 
f 293/512 294/514 309/515 308/513 
f 294/514 295/516 310/517 309/515 
f 295/516 296/518 311/519 310/517 
f 296/518 298/520 312/521 311/519 
f 312/521 298/520 313/522 
f 301/500 314/523 232/229 213/210 
f 302/501 303/503 232/524 314/525 
f 303/503 304/505 233/526 232/524 
f 304/505 305/507 236/527 233/526 
f 305/507 306/509 237/528 236/527 
f 306/509 307/511 222/529 237/528 
f 307/511 308/513 195/530 222/529 
f 308/513 309/515 196/531 195/530 
f 309/515 310/517 197/532 196/531 
f 310/517 311/519 190/533 197/532 
f 311/519 312/521 191/534 190/533 
f 312/521 313/522 300/535 191/534 
usemtl Material__106
s 1
f 115/115 140/139 315/536 114/114 
f 128/128 114/114 315/536 316/537 
usemtl Material__109
f 317/538 318/539 319/540 320/541 
usemtl Material__106
s off
f 141/542 316/543 318/544 317/545 
f 316/546 315/547 319/548 318/549 
f 315/550 140/551 320/552 319/553 
f 140/554 141/555 317/556 320/557 
usemtl Material__113
s 1
f 321/558 322/559 323/560 324/561 
usemtl Material__106
f 50/50 49/49 325/562 174/173 
f 297/563 174/173 325/562 326/564 
usemtl Material__113
f 322/559 321/558 327/565 328/566 
s off
f 329/567 326/568 327/565 321/558 
f 326/568 325/569 328/566 327/565 
f 325/569 49/570 322/559 328/566 
f 49/570 47/571 323/560 322/559 
f 47/571 46/572 324/561 323/560 
f 46/572 329/567 321/558 324/561 
usemtl Material__122
s 1
f 162/161 330/573 331/574 163/162 
usemtl Material__110
f 332/575 333/576 334/577 335/578 
s off
f 9/579 8/580 335/581 334/582 
f 8/583 336/584 332/585 335/586 
f 336/587 337/588 333/589 332/590 
f 337/591 9/592 334/593 333/594 
usemtl Material__106
f 338/595 339/596 340/597 341/598 
usemtl Material__120
f 342/599 343/600 344/601 345/602 
usemtl Material__117
f 346/603 347/604 348/605 349/606 
f 350/607 351/608 352/609 353/610 
f 350/607 353/610 354/611 
f 355/612 356/613 357/614 358/615 
f 356/613 359/616 360/617 357/614 
f 351/608 355/612 358/615 352/609 
f 359/616 361/618 362/619 360/617 
f 363/620 364/621 365/622 366/623 
f 364/621 367/624 368/625 365/622 
f 367/624 369/626 370/627 368/625 
f 369/626 346/603 349/606 370/627 
f 347/604 371/628 372/629 373/630 
f 347/604 373/630 374/631 348/605 
usemtl Material__120
f 343/632 363/620 366/623 344/633 
usemtl Material__117
f 361/618 342/599 345/602 362/619 
f 374/631 373/630 375/634 376/635 
f 376/635 375/634 377/636 378/637 
f 371/628 378/637 377/636 372/629 
usemtl Material__106
f 373/638 372/639 340/640 339/641 
f 372/642 377/643 341/644 340/645 
f 377/646 375/647 338/648 341/649 
f 375/650 373/651 339/652 338/653 
f 376/654 378/655 379/656 245/657 
f 376/654 245/657 380/658 
f 350/659 354/660 381/661 51/662 
f 382/663 383/664 384/665 385/666 
f 383/664 382/663 386/667 
f 387/668 388/669 389/670 390/671 
f 376/654 380/658 389/672 388/673 
f 391/674 392/675 387/676 390/677 
usemtl Material__117
f 392/678 376/679 388/680 387/681 
usemtl Material__106
f 345/682 344/683 366/684 362/685 
f 360/686 362/685 366/684 357/687 
f 374/688 376/689 392/690 348/691 
f 349/692 348/691 392/690 370/693 
f 368/694 370/693 392/690 365/695 
f 366/684 365/695 392/690 357/687 
f 358/696 357/687 392/690 352/697 
f 353/698 352/697 392/690 393/699 
f 393/699 392/690 391/700 394/701 
f 381/661 354/660 382/702 385/703 
usemtl Material__118
f 354/704 353/705 386/706 382/707 
f 353/705 393/708 383/709 386/706 
usemtl Material__106
f 393/710 394/711 384/712 383/713 
usemtl Material__120
f 395/714 396/715 397/716 398/717 
usemtl Material__106
f 399/718 400/719 401/720 402/721 
f 399/722 403/723 404/724 405/725 
f 399/722 405/725 400/726 
f 406/727 396/728 407/729 408/730 
f 406/727 408/730 404/731 403/732 
f 406/733 402/734 401/735 397/736 
f 406/733 397/736 396/737 
usemtl Material__120
f 409/738 410/739 411/740 412/741 
f 413/742 412/741 411/740 
f 410/743 404/744 408/745 414/746 
usemtl Material__106
f 412/747 413/748 415/749 400/719 
f 400/719 415/749 401/720 
usemtl Material__122
s 1
f 331/750 330/751 416/752 417/753 
f 417/753 416/752 418/754 419/755 
f 419/755 418/754 420/756 421/757 
f 421/757 420/756 422/758 423/759 
f 423/759 422/758 424/760 425/761 
f 425/761 424/760 426/762 427/763 
f 427/763 426/762 428/764 
f 428/764 426/762 429/765 430/766 
usemtl Material__106
f 10/10 9/9 337/767 256/768 
f 336/769 8/8 7/7 256/768 
f 337/767 336/769 256/768 
f 10/10 256/768 431/770 
f 256/768 175/174 432/771 431/770 
f 175/174 176/175 433/772 432/771 
f 176/175 199/198 434/773 433/772 
f 199/198 224/221 435/774 434/773 
f 435/774 224/221 436/775 
f 223/220 287/776 437/777 224/221 
f 436/775 224/221 437/777 
f 287/776 286/778 438/779 437/777 
s off
f 350/659 23/780 430/781 429/782 
f 23/783 26/784 428/785 430/786 
f 26/784 70/787 427/788 428/785 
f 70/787 88/789 425/790 427/788 
f 88/789 90/791 423/792 425/790 
f 90/791 116/793 421/794 423/792 
f 116/793 146/795 419/796 421/794 
f 146/795 5/797 417/798 419/796 
f 5/797 10/799 331/800 417/798 
f 10/801 431/802 163/803 331/804 
f 431/802 432/805 164/806 163/803 
f 432/805 433/807 178/808 164/806 
f 433/807 434/809 201/810 178/808 
f 434/809 435/811 21/812 201/810 
f 435/811 436/813 22/814 21/812 
f 436/813 437/815 3/816 22/814 
f 437/815 438/817 4/818 3/816 
f 438/819 378/655 1/820 4/821 
usemtl Material__119
f 378/637 371/628 2/822 1/823 
f 371/628 347/604 19/824 2/822 
f 347/604 346/603 20/825 19/824 
f 346/603 369/626 200/826 20/825 
f 369/626 367/624 177/827 200/826 
f 367/624 364/621 161/828 177/827 
f 364/621 363/620 162/829 161/828 
f 363/620 343/632 330/830 162/829 
f 343/600 342/599 416/831 330/832 
f 342/599 361/618 418/833 416/831 
f 361/618 359/616 420/834 418/833 
f 359/616 356/613 422/835 420/834 
f 356/613 355/612 424/836 422/835 
f 355/612 351/608 426/837 424/836 
f 351/608 350/607 429/838 426/837 
usemtl Material__120
f 415/839 413/840 411/841 398/717 
f 411/841 395/714 398/717 
usemtl Material__117
f 400/842 405/843 409/738 412/741 
f 408/745 407/844 414/746 
usemtl Material__120
f 405/843 404/845 410/739 409/738 
usemtl Material__117
f 401/846 415/839 398/717 397/716 
usemtl Material__120
f 395/847 439/848 414/746 396/849 
f 407/844 396/849 414/746 
f 439/848 395/847 411/850 410/743 
f 414/746 439/848 410/743 
usemtl Material__121
s 1
f 60/851 64/852 173/853 171/854 
# 396 polygons - 25 triangles

