# 3ds Max Wavefront OBJ Exporter v0.97b - (c)2007 guruware
# File Created: 14.03.2012 22:18:48

mtllib Ryytli_26-origo.mtl

#
# object Ryytli_26
#

v  542096.0986 6588787.5389 29.9954
v  542097.3653 6588786.7129 29.9931
v  542097.3637 6588786.7275 28.6219
v  542096.0994 6588787.5439 28.6243
v  542087.1197 6588793.1776 30.0600
v  542088.4182 6588792.455 30.0601
v  542088.4142 6588792.4628 28.6231
v  542087.1292 6588793.1781 28.6230
v  542086.631 6588793.9809 33.3228
v  542089.5238 6588792.3603 33.2711
v  542089.5136 6588792.3701 32.7368
v  542086.6348 6588793.981 32.7883
v  542093.9167 6588780.1566 33.1678
v  542094.3468 6588779.9007 33.1802
v  542098.4339 6588786.2795 33.2099
v  542098.0038 6588786.5586 33.2127
v  542087.515 6588793.2657 26.6103
v  542088.6973 6588792.6076 26.6103
v  542088.6921 6588792.618 24.8947
v  542087.5274 6588793.2663 24.8947
v  542080.1187 6588788.1943 32.7025
v  542083.8048 6588795.278 33.3709
v  542083.3143 6588795.5527 33.3798
v  542079.6283 6588788.4699 32.7275
v  542093.9167 6588780.1566 32.4440
v  542095.9072 6588787.9195 33.2266
v  542085.3624 6588785.2473 32.4350
v  542093.6231 6588789.402 33.2417
v  542091.5089 6588790.7742 33.2557
v  542089.3946 6588792.1465 33.2697
v  542086.5113 6588793.7617 33.3219
v  542080.1181 6588788.1954 32.4518
v  542094.4342 6588779.8447 33.1802
v  542098.5354 6588786.3017 33.2099
v  542083.3651 6588795.6433 33.3798
v  542086.5611 6588793.8528 33.3223
v  542089.4483 6588792.2353 33.2703
v  542091.5589 6588790.8571 33.2563
v  542091.6291 6588790.9734 33.2571
v  542091.619 6588790.983 32.7388
v  542094.5574 6588779.7664 32.7452
v  542098.6781 6588786.3323 32.7456
v  542098.6787 6588786.3296 33.2099
v  542094.5574 6588779.7664 33.1802
v  542094.4342 6588779.8447 32.7452
v  542098.5354 6588786.3015 32.7456
v  542095.9393 6588787.9976 32.7428
v  542095.9996 6588788.097 32.7430
v  542089.438 6588792.2452 32.7359
v  542086.5648 6588793.8529 32.7877
v  542083.4363 6588795.7707 32.8454
v  542083.365 6588795.6433 32.8454
v  542083.4364 6588795.7707 33.3798
v  542085.7802 6588793.9232 30.0601
v  542085.7897 6588793.9236 28.6230
v  542084.527 6588794.6265 28.6230
v  542084.5312 6588794.6183 30.0601
v  542085.9252 6588794.1507 26.6103
v  542085.9376 6588794.1512 24.8947
v  542084.8299 6588794.7678 24.8947
v  542084.8351 6588794.7574 26.6103
v  542084.7836 6588794.9417 23.0295
v  542084.7842 6588794.9433 23.7403
v  542086.0326 6588794.2485 23.7403
v  542086.0364 6588794.2447 22.9505
v  542095.2505 6588788.0862 29.9858
v  542095.2545 6588788.0975 28.6210
v  542093.9511 6588788.9412 28.6233
v  542093.9511 6588788.9337 29.9881
v  542095.9499 6588787.9899 33.2271
v  542096.0093 6588788.088 33.2278
v  542093.659 6588789.4875 32.7404
v  542093.7245 6588789.5959 32.7408
v  542095.1042 6588788.2141 26.6630
v  542095.1074 6588788.2392 24.8337
v  542094.1364 6588788.8605 24.8347
v  542094.1366 6588788.8426 26.6640
v  542094.1416 6588789.0319 22.3452
v  542094.1425 6588789.025 23.4641
v  542095.323 6588788.2669 23.4641
v  542095.322 6588788.2771 22.2510
v  542093.6695 6588789.4789 33.2422
v  542093.7345 6588789.5865 33.2430
v  542093.1439 6588789.455 30.0578
v  542093.1455 6588789.4661 28.6207
v  542091.7827 6588790.349 28.6236
v  542091.7846 6588790.3418 30.0607
v  542091.5485 6588790.8663 32.7382
v  542092.9027 6588789.6381 26.5987
v  542092.9041 6588789.6572 24.8928
v  542091.9571 6588790.2629 24.8944
v  542091.9596 6588790.2507 26.5997
v  542092.0377 6588790.3784 22.5088
v  542092.0388 6588790.3754 23.4644
v  542093.0086 6588789.7527 23.4644
v  542093.0082 6588789.7579 22.4313
v  542090.7048 6588791.0418 30.0597
v  542090.7045 6588791.0516 28.6226
v  542089.6638 6588791.7245 28.6238
v  542089.6676 6588791.7186 30.0609
v  542090.8099 6588790.9904 26.6740
v  542090.8091 6588791.0062 24.8935
v  542089.8615 6588791.6125 24.8950
v  542089.8663 6588791.6039 26.6728
v  542089.8695 6588791.7666 22.6822
v  542089.8703 6588791.7663 23.4646
v  542090.9147 6588791.0971 23.4646
v  542090.9137 6588791.098 22.5988
v  542095.343 6588781.7637 24.7544
v  542094.6035 6588780.6455 24.7544
v  542094.6281 6588780.645 21.5307
v  542095.3612 6588781.7777 21.5512
v  542092.3087 6588784.8683 33.3209
v  542092.4767 6588784.7713 33.3209
v  542092.5737 6588784.9393 33.3209
v  542092.4057 6588785.0363 33.3209
v  542095.596 6588783.1523 33.5127
v  542095.8381 6588782.9827 33.5127
v  542095.9815 6588783.1875 33.5127
v  542095.7394 6588783.3571 33.5127
v  542095.8828 6588783.5619 33.5127
v  542096.1249 6588783.3923 33.5127
v  542096.2683 6588783.5971 33.5127
v  542096.0262 6588783.7666 33.5127
v  542095.8381 6588782.9827 33.7100
v  542095.9815 6588783.1875 33.7100
v  542095.7394 6588783.3571 33.7100
v  542095.596 6588783.1523 33.7100
v  542096.1249 6588783.3923 33.7100
v  542096.2683 6588783.5971 33.7100
v  542096.0262 6588783.7666 33.7100
v  542095.8828 6588783.5619 33.7100
v  542092.4767 6588784.7713 33.5181
v  542092.5737 6588784.9393 33.5181
v  542092.4057 6588785.0363 33.5181
v  542092.3087 6588784.8683 33.5181
v  542088.1204 6588792.6058 31.8967
v  542088.1915 6588792.5671 31.7240
v  542087.7775 6588792.7988 31.6070
v  542088.1995 6588792.5637 31.5335
v  542088.1432 6588792.5961 31.3543
v  542088.0313 6588792.6594 31.2135
v  542087.8807 6588792.7439 31.1326
v  542087.7144 6588792.8367 31.1239
v  542087.5577 6588792.9238 31.1889
v  542087.4345 6588792.9919 31.3174
v  542087.3634 6588793.0305 31.4901
v  542087.3554 6588793.0339 31.6805
v  542087.4117 6588793.0015 31.8598
v  542087.5236 6588792.9383 32.0006
v  542087.6742 6588792.8538 32.0815
v  542087.8405 6588792.7609 32.0901
v  542087.9972 6588792.6738 32.0252
v  542094.89 6588788.3113 31.2584
v  542094.7513 6588788.4018 31.1481
v  542094.5878 6588788.507 31.6195
v  542094.5877 6588788.5082 31.1096
v  542094.4241 6588788.6145 31.1487
v  542094.2855 6588788.7045 31.2594
v  542094.1929 6588788.7643 31.4250
v  542094.1604 6588788.785 31.6202
v  542094.1929 6588788.7634 31.8153
v  542094.2856 6588788.7028 31.9806
v  542094.4243 6588788.6123 32.0909
v  542094.5879 6588788.5059 32.1294
v  542094.7515 6588788.3996 32.0903
v  542094.8902 6588788.3096 31.9796
v  542094.9828 6588788.2498 31.8140
v  542095.0153 6588788.2291 31.6188
v  542094.9827 6588788.2507 31.4237
v  542092.7071 6588789.731 31.2629
v  542092.5715 6588789.8195 31.1621
v  542092.4264 6588789.9123 31.6193
v  542092.4139 6588789.9221 31.1310
v  542092.2582 6588790.0233 31.1742
v  542092.1281 6588790.1075 31.2852
v  542092.0433 6588790.162 31.4471
v  542092.0169 6588790.1785 31.6351
v  542092.0529 6588790.1544 31.8208
v  542092.1457 6588790.0936 31.9758
v  542092.2812 6588790.0051 32.0766
v  542092.4388 6588789.9024 32.1077
v  542092.5945 6588789.8013 32.0645
v  542092.7247 6588789.7171 31.9535
v  542092.8094 6588789.6626 31.7916
v  542092.8358 6588789.6461 31.6035
v  542092.7999 6588789.6701 31.4179
v  542090.5981 6588791.1025 31.2891
v  542090.464 6588791.1902 31.1862
v  542090.3132 6588791.286 31.6405
v  542090.3069 6588791.2925 31.1525
v  542090.1508 6588791.3939 31.1930
v  542090.0194 6588791.4788 31.3017
v  542089.9328 6588791.5343 31.4620
v  542089.9041 6588791.552 31.6494
v  542089.9377 6588791.5293 31.8355
v  542090.0284 6588791.4695 31.9919
v  542090.1625 6588791.3817 32.0948
v  542090.3196 6588791.2794 32.1286
v  542090.4757 6588791.1781 32.0880
v  542090.6071 6588791.0932 31.9793
v  542090.6937 6588791.0377 31.8190
v  542090.7224 6588791.0199 31.6316
v  542090.6888 6588791.0427 31.4455
v  542083.2952 6588795.5909 24.1551
v  542083.2929 6588795.5924 23.1137
v  542079.6756 6588788.5134 21.0974
v  542083.3057 6588795.57 27.6102
v  542079.6276 6588788.4712 30.2472
v  542083.3136 6588795.5542 30.7216
v  542083.3143 6588795.5527 32.7213
v  542094.3468 6588779.9007 32.6210
v  542094.3468 6588779.9007 28.5654
v  542094.5167 6588780.1658 28.6231
v  542098.4339 6588786.2795 32.6214
v  542098.4339 6588786.2795 29.8782
v  542093.942 6588780.1566 21.5634
v  542094.3721 6588779.9007 21.5684
v  542089.3217 6588792.2364 24.1551
v  542089.4478 6588792.4615 24.1551
v  542089.4578 6588792.4415 27.4882
v  542089.3322 6588792.2155 27.6102
v  542083.419 6588795.8175 23.1147
v  542083.4213 6588795.816 24.1551
v  542083.4313 6588795.796 27.4882
v  542086.5521 6588793.7629 27.6102
v  542086.6768 6588793.9895 27.4882
v  542091.546 6588790.8685 32.6140
v  542089.4356 6588792.2475 32.6117
v  542094.4342 6588779.8447 32.6210
v  542098.5354 6588786.3014 32.6214
v  542085.4092 6588785.2473 21.2803
v  542080.1646 6588788.2351 21.1130
v  542095.8941 6588787.9291 32.6185
v  542095.9367 6588787.9995 32.6186
v  542089.382 6588792.1586 32.6111
v  542086.5159 6588793.7618 32.6631
v  542086.5657 6588793.8529 32.6635
v  542083.365 6588795.6433 32.7213
v  542098.4031 6588786.3983 24.1551
v  542095.8523 6588788.0381 24.1551
v  542095.8502 6588787.9895 27.7905
v  542098.4231 6588786.3213 27.8616
v  542094.542 6588780.1658 21.5716
v  542094.5167 6588780.1658 25.0729
v  542089.4444 6588792.4653 22.7348
v  542086.7092 6588793.9871 22.9072
v  542086.7008 6588793.9905 24.1551
v  542089.3183 6588792.2402 22.7338
v  542098.3924 6588786.4396 21.8817
v  542095.8497 6588788.0624 22.2124
v  542086.5336 6588793.7621 30.6699
v  542093.6101 6588789.4125 32.6159
v  542093.6564 6588789.4895 32.6162
v  542091.496 6588790.7856 32.6135
v  542088.3026 6588792.7662 31.7251
v  542088.2315 6588792.8049 31.8978
v  542089.3398 6588792.2003 30.6247
v  542087.9918 6588792.943 31.1337
v  542088.1424 6588792.8585 31.2146
v  542087.4745 6588793.2296 31.4912
v  542087.5456 6588793.191 31.3185
v  542087.7853 6588793.0529 32.0826
v  542087.6347 6588793.1374 32.0017
v  542095.8446 6588787.9653 30.4475
v  542094.8756 6588788.5929 31.1485
v  542095.0143 6588788.5025 31.2588
v  542093.5634 6588789.4504 30.5097
v  542094.3172 6588788.9555 31.4255
v  542094.4098 6588788.8956 31.2599
v  542094.5486 6588788.8035 32.0913
v  542094.4099 6588788.8939 31.9810
v  542095.1071 6588788.4409 31.8144
v  542095.0145 6588788.5008 31.9800
v  542092.6958 6588790.0107 31.1628
v  542092.8314 6588789.9221 31.2635
v  542091.4516 6588790.8253 30.5672
v  542092.1676 6588790.3531 31.4477
v  542092.2523 6588790.2986 31.2859
v  542092.5631 6588790.0936 32.1084
v  542092.4055 6588790.1962 32.0773
v  542092.27 6588790.2847 31.9765
v  542092.9337 6588789.8537 31.7923
v  542092.849 6588789.9082 31.9542
v  542090.5883 6588791.3814 31.1871
v  542090.7224 6588791.2936 31.2901
v  542090.0571 6588791.7254 31.4629
v  542090.1437 6588791.6699 31.3027
v  542090.2868 6588791.5729 32.0958
v  542090.1527 6588791.6606 31.9929
v  542090.818 6588791.2288 31.8200
v  542090.7314 6588791.2843 31.9803
v  542088.3106 6588792.7628 31.5347
v  542088.2543 6588792.7952 31.3554
v  542087.8255 6588793.0358 31.1251
v  542087.6688 6588793.1229 31.1900
v  542087.4665 6588793.233 31.6817
v  542087.5228 6588793.2006 31.8609
v  542087.9516 6588792.96 32.0912
v  542088.1083 6588792.8729 32.0263
v  542094.712 6588788.6994 31.1100
v  542094.5484 6588788.8057 31.1491
v  542094.2847 6588788.9762 31.6206
v  542094.3172 6588788.9546 31.8157
v  542094.7122 6588788.697 32.1298
v  542094.8758 6588788.5907 32.0907
v  542095.1396 6588788.4202 31.6192
v  542095.107 6588788.4418 31.4241
v  542092.5382 6588790.1133 31.1317
v  542092.3825 6588790.2144 31.1749
v  542092.1412 6588790.3696 31.6358
v  542092.1772 6588790.3456 31.8215
v  542092.7188 6588789.9925 32.0652
v  542092.9601 6588789.8372 31.6042
v  542092.9242 6588789.8613 31.4185
v  542090.4312 6588791.4837 31.1534
v  542090.2751 6588791.585 31.1940
v  542090.0284 6588791.7432 31.6504
v  542090.062 6588791.7204 31.8365
v  542090.4439 6588791.4706 32.1295
v  542090.6 6588791.3692 32.0890
v  542090.8467 6588791.2111 31.6326
v  542090.8131 6588791.2338 31.4465
v  542097.4874 6588786.919 28.6238
v  542097.4898 6588786.9039 29.9950
v  542096.2231 6588787.7355 28.6250
v  542096.2232 6588787.7299 29.9962
v  542088.5251 6588792.662 28.6238
v  542088.529 6588792.6542 30.0609
v  542087.2401 6588793.3773 28.6237
v  542087.2306 6588793.3768 30.0608
v  542084.6379 6588794.8257 28.6238
v  542085.9006 6588794.1229 28.6238
v  542084.642 6588794.8175 30.0609
v  542085.891 6588794.1224 30.0609
v  542093.5638 6588789.4719 27.7273
v  542094.075 6588789.1326 28.6244
v  542095.3784 6588788.2889 28.6229
v  542094.0757 6588789.1246 29.9891
v  542095.3751 6588788.2771 29.9877
v  542091.448 6588790.8437 27.6688
v  542091.9067 6588790.5403 28.6244
v  542093.2694 6588789.6574 28.6223
v  542091.9092 6588790.5328 30.0615
v  542093.2685 6588789.6459 30.0594
v  542089.7876 6588791.916 28.6243
v  542090.8283 6588791.2431 28.6238
v  542089.7921 6588791.9095 30.0613
v  542090.8294 6588791.2328 30.0609
v  542088.803 6588792.8172 24.8956
v  542088.8082 6588792.8069 26.6112
v  542087.6382 6588793.4655 24.8956
v  542087.6259 6588793.465 26.6112
v  542084.9408 6588794.967 24.8956
v  542086.0485 6588794.3504 24.8956
v  542084.946 6588794.9567 26.6112
v  542086.0361 6588794.3499 26.6112
v  542093.562 6588789.5104 24.1551
v  542094.2593 6588789.0525 24.8365
v  542095.2303 6588788.4313 24.8366
v  542094.2608 6588789.0338 26.6658
v  542095.2283 6588788.4053 26.6658
v  542091.4419 6588790.8734 24.1551
v  542092.08 6588790.455 24.8956
v  542093.0269 6588789.8492 24.8951
v  542092.0838 6588790.4419 26.6009
v  542093.0269 6588789.8293 26.6009
v  542089.9844 6588791.8046 24.8956
v  542090.932 6588791.1983 24.8951
v  542089.9905 6588791.7951 26.6734
v  542090.9342 6588791.1816 26.6756
v  542084.8333 6588795.0316 23.7406
v  542084.8327 6588795.0299 23.0297
v  542086.0817 6588794.3367 23.7406
v  542086.0855 6588794.333 22.9507
v  542093.5602 6588789.5269 22.3951
v  542094.197 6588789.11 23.4651
v  542094.1961 6588789.1169 22.3462
v  542095.3775 6588788.3519 23.4651
v  542095.3766 6588788.3621 22.2520
v  542091.4392 6588790.8836 22.5645
v  542092.0933 6588790.4604 23.4651
v  542092.0921 6588790.4634 22.5095
v  542093.0631 6588789.8377 23.4651
v  542093.0627 6588789.8429 22.4320
v  542089.925 6588791.8517 23.4651
v  542089.9238 6588791.8512 22.6826
v  542090.969 6588791.1817 23.4651
v  542090.9684 6588791.1834 22.5993
v  542094.7611 6588780.5532 24.7541
v  542095.4838 6588781.6836 24.7541
v  542095.8126 6588782.1885 25.0729
v  542094.7857 6588780.5527 21.5304
v  542095.8083 6588782.2053 21.8252
v  542095.502 6588781.6976 21.5509
v  542095.4219 6588783.1216 33.7100
v  542095.4219 6588783.1216 32.1581
v  542095.8688 6588782.8086 32.1581
v  542095.8688 6588782.8086 33.7100
v  542096.1556 6588783.2182 32.1581
v  542096.1556 6588783.2182 33.7100
v  542096.4424 6588783.6278 33.7100
v  542096.4424 6588783.6278 32.1581
v  542095.9955 6588783.9407 32.1581
v  542095.9955 6588783.9407 33.7100
v  542095.7087 6588783.5312 32.1581
v  542095.7087 6588783.5312 33.7100
v  542092.168 6588784.8306 33.5181
v  542092.168 6588784.8306 32.3347
v  542092.5144 6588784.6306 32.3347
v  542092.5144 6588784.6306 33.5181
v  542092.7144 6588784.9771 32.3347
v  542092.7144 6588784.9771 33.5181
v  542092.368 6588785.177 32.3347
v  542092.368 6588785.177 33.5181
# 415 vertices

vn 0.5462 0.8376 0.0083
vn 0.5425 0.8401 0.0034
vn 0.4863 0.8738 0.0034
vn 0.4864 0.8738 0.0035
vn 0.4888 0.8723 0.0067
vn 0.4884 0.8726 0.0035
vn -0.0228 0.0100 0.9997
vn 0.0015 -0.0079 1.0000
vn 0.4864 0.8738 0.0038
vn -0.0268 -0.0801 0.9964
vn -0.0006 -0.0914 0.9958
vn -0.0502 -0.0874 0.9949
vn -0.0527 -0.0868 0.9948
vn -0.0519 -0.0900 0.9946
vn -0.0518 -0.0900 0.9946
vn -0.0372 -0.0986 0.9944
vn -0.0512 -0.0966 0.9940
vn -0.0420 -0.1071 0.9934
vn -0.0021 -0.0033 1.0000
vn 0.0012 -0.0053 1.0000
vn 0.0138 -0.0077 0.9999
vn 0.0121 -0.0107 0.9999
vn 0.0134 -0.0081 0.9999
vn 0.0015 -0.0078 1.0000
vn 0.0016 -0.0078 1.0000
vn 0.0017 -0.0076 1.0000
vn 0.5501 0.8351 0.0048
vn 0.5501 0.8351 0.0049
vn 0.8470 -0.5316 -0.0042
vn 0.8469 -0.5318 0.0000
vn 0.0010 -0.0051 1.0000
vn -0.5362 -0.8441 0.0000
vn -0.0000 0.0001 -1.0000
vn 0.0000 0.0000 -1.0000
vn 0.0016 0.0009 -1.0000
vn 0.0002 -0.0011 -1.0000
vn -0.0106 0.0133 -0.9999
vn -0.0120 0.0106 -0.9999
vn -0.8726 0.4884 0.0001
vn -0.8725 0.4887 0.0002
vn 0.0137 -0.0077 0.9999
vn 0.0119 -0.0105 0.9999
vn 0.4863 0.8738 0.0036
vn 0.4888 0.8724 0.0000
vn 0.4863 0.8738 0.0038
vn 0.0106 -0.0133 0.9999
vn -0.0121 0.0106 -0.9999
vn -0.0136 0.0076 -0.9999
vn 0.0121 -0.0106 0.9999
vn 0.0105 -0.0132 0.9999
vn 0.4863 0.8738 -0.0024
vn 0.4861 0.8739 -0.0018
vn 0.5434 0.8394 0.0086
vn 0.5463 0.8376 0.0046
vn 0.0016 -0.0077 1.0000
vn 0.5501 0.8351 0.0045
vn 0.5502 0.8351 0.0043
vn 0.0025 0.0024 -1.0000
vn 0.5389 0.8423 0.0125
vn 0.5447 0.8386 0.0082
vn 0.5404 0.8414 0.0047
vn 0.5391 0.8422 0.0067
vn 0.5501 0.8351 0.0047
vn 0.5437 0.8392 0.0071
vn 0.5464 0.8375 0.0035
vn 0.0026 0.0023 -1.0000
vn 0.0033 0.0035 -1.0000
vn 0.5389 0.8423 0.0098
vn 0.5447 0.8386 0.0052
vn 0.5403 0.8415 0.0020
vn 0.5389 0.8424 0.0040
vn 0.5430 0.8397 0.0056
vn 0.5464 0.8375 0.0021
vn 0.0039 0.0045 -1.0000
vn 0.5389 0.8423 0.0072
vn 0.5451 0.8384 0.0026
vn 0.5395 0.8420 -0.0002
vn 0.5393 0.8421 0.0002
vn 0.8341 -0.5516 0.0064
vn 0.8395 -0.5434 0.0024
vn 0.0000 0.0000 1.0000
vn -0.8192 0.5735 0.0000
vn -0.5735 -0.8192 0.0000
vn 0.8191 -0.5736 0.0000
vn 0.5736 0.8192 0.0000
vn -0.8660 0.5000 0.0000
vn -0.5000 -0.8660 0.0000
vn 0.8661 -0.5000 0.0000
vn 0.4999 0.8661 0.0000
vn 0.4873 0.8732 0.0049
vn 0.4873 0.8732 0.0048
vn 0.4873 0.8732 0.0050
vn 0.4874 0.8732 0.0050
vn 0.4872 0.8732 0.0050
vn 0.4874 0.8732 0.0049
vn 0.4872 0.8733 0.0050
vn 0.5452 0.8383 0.0019
vn 0.5452 0.8383 0.0018
vn 0.5451 0.8383 0.0019
vn 0.5451 0.8383 0.0018
vn 0.5452 0.8383 0.0030
vn 0.5451 0.8384 0.0030
vn 0.5451 0.8383 0.0030
vn 0.5452 0.8383 0.0029
vn 0.5452 0.8383 0.0031
vn 0.5451 0.8384 0.0029
vn 0.5452 0.8383 0.0042
vn 0.5451 0.8384 0.0042
vn -0.8908 0.4544 0.0026
vn -0.8913 0.4535 0.0054
vn -0.8883 0.4593 -0.0025
vn -0.8872 0.4614 0.0046
vn -0.8871 0.4616 0.0007
vn -0.8870 0.4618 0.0000
vn -0.8871 0.4616 0.0005
vn 0.8420 -0.5395 0.0000
vn 0.8420 -0.5395 -0.0000
vn -0.5114 -0.8594 -0.0012
vn -0.4899 -0.8718 0.0000
vn -0.5264 -0.8503 -0.0019
vn -0.5114 -0.8593 0.0000
vn 0.8725 -0.4886 -0.0056
vn 0.8727 -0.4882 -0.0056
vn -0.8724 0.4888 0.0027
vn -0.8725 0.4886 0.0026
vn 0.2076 0.3729 0.9043
vn 0.5470 0.8371 0.0049
vn 0.5469 0.8372 0.0037
vn 0.8441 -0.5362 0.0004
vn 0.8441 -0.5362 0.0000
vn -0.5114 -0.8593 -0.0021
vn -0.5123 -0.8588 -0.0012
vn -0.4945 -0.8692 -0.0066
vn -0.4078 -0.9131 -0.0004
vn -0.4911 -0.8711 -0.0051
vn -0.4900 -0.8717 -0.0026
vn -0.4950 -0.8689 -0.0021
vn -0.4900 -0.8717 -0.0051
vn -0.8429 0.5381 0.0000
vn 0.8872 -0.4613 -0.0040
vn -0.5394 -0.8420 0.0000
vn 0.0016 0.0008 -1.0000
vn 0.0003 -0.0012 -1.0000
vn -0.0107 0.0133 -0.9999
vn -0.8724 0.4888 0.0001
vn -0.8727 0.4882 0.0000
vn 0.4884 0.8726 0.0067
vn 0.4882 0.8727 0.0035
vn 0.5407 0.8411 0.0116
vn 0.5437 0.8392 0.0145
vn 0.8420 -0.5395 0.0061
vn 0.8601 -0.5101 0.0031
vn 0.4862 0.8738 0.0012
vn 0.4864 0.8738 0.0008
vn 0.8725 -0.4886 -0.0034
vn 0.8725 -0.4887 -0.0034
vn -0.8727 0.4882 0.0056
vn -0.8725 0.4886 0.0056
vn 0.5391 0.8421 0.0128
vn 0.5407 0.8411 0.0098
vn 0.4882 0.8727 0.0005
vn 0.4864 0.8737 0.0044
vn -0.0122 0.0107 -0.9999
vn -0.0137 0.0077 -0.9999
vn 0.4883 0.8727 0.0000
vn 0.5470 0.8372 0.0012
vn 0.5470 0.8371 -0.0003
vn 0.0025 0.0023 -1.0000
vn 0.5470 0.8372 0.0026
vn 0.5470 0.8371 0.0012
vn 0.5470 0.8372 0.0037
vn 0.5470 0.8371 0.0026
vn 0.0034 0.0034 -1.0000
vn 0.0040 0.0045 -1.0000
vn 0.4854 0.8742 0.0097
vn 0.4887 0.8724 0.0057
vn 0.4884 0.8726 0.0022
vn 0.5448 0.8386 0.0023
vn 0.5465 0.8375 0.0029
vn 0.5451 0.8383 0.0020
vn 0.5443 0.8389 0.0012
vn 0.5446 0.8387 0.0041
vn 0.5469 0.8372 0.0042
vn 0.5447 0.8386 0.0018
vn 0.5451 0.8383 0.0032
vn 0.5443 0.8389 0.0024
vn 0.5443 0.8388 0.0057
vn 0.5473 0.8369 0.0058
vn 0.5451 0.8383 0.0043
vn 0.5443 0.8389 0.0035
vn -0.7897 0.4432 -0.4242
vn -0.8722 0.4870 -0.0453
vn -0.8722 0.4870 -0.0454
vn -0.8219 0.4568 0.3404
vn -0.8219 0.4567 0.3404
vn -0.6465 0.3569 0.6743
vn -0.6464 0.3569 0.6743
vn -0.3726 0.2028 0.9056
vn -0.0420 0.0178 0.9990
vn -0.0421 0.0178 0.9990
vn 0.2949 -0.1700 0.9403
vn 0.2951 -0.1699 0.9402
vn 0.5871 -0.3318 0.7384
vn 0.5870 -0.3318 0.7385
vn 0.7897 -0.4432 0.4242
vn 0.7898 -0.4431 0.4241
vn 0.8722 -0.4870 0.0453
vn 0.8219 -0.4567 -0.3404
vn 0.8219 -0.4568 -0.3404
vn 0.6464 -0.3570 -0.6743
vn 0.6464 -0.3569 -0.6744
vn 0.3726 -0.2028 -0.9056
vn 0.3727 -0.2029 -0.9055
vn 0.0420 -0.0178 -0.9990
vn 0.0420 -0.0177 -0.9990
vn -0.2950 0.1699 -0.9403
vn -0.2949 0.1699 -0.9403
vn -0.5871 0.3318 -0.7384
vn -0.5871 0.3319 -0.7384
vn -0.4656 0.3009 0.8323
vn -0.1634 0.1041 0.9811
vn -0.1633 0.1041 0.9811
vn 0.1637 -0.1086 0.9805
vn 0.4659 -0.3048 0.8307
vn 0.6971 -0.4546 0.5544
vn 0.8223 -0.5352 0.1936
vn 0.8222 -0.5343 -0.1965
vn 0.6969 -0.4520 -0.5567
vn 0.4656 -0.3010 -0.8323
vn 0.4656 -0.3009 -0.8323
vn 0.1633 -0.1041 -0.9811
vn -0.1637 0.1086 -0.9805
vn -0.4659 0.3048 -0.8307
vn -0.6972 0.4545 -0.5544
vn -0.8223 0.5351 -0.1937
vn -0.8223 0.5352 -0.1936
vn -0.8222 0.5343 0.1965
vn -0.6969 0.4520 0.5568
vn -0.4443 0.2859 0.8490
vn -0.4444 0.2859 0.8490
vn -0.1385 0.0865 0.9866
vn 0.1884 -0.1261 0.9740
vn 0.1885 -0.1261 0.9740
vn 0.4867 -0.3194 0.8131
vn 0.7108 -0.4642 0.5284
vn 0.7109 -0.4641 0.5284
vn 0.8268 -0.5382 0.1632
vn 0.8268 -0.5383 0.1633
vn 0.8169 -0.5304 -0.2267
vn 0.6826 -0.4418 -0.5822
vn 0.4444 -0.2859 -0.8490
vn 0.1385 -0.0865 -0.9866
vn -0.1884 0.1261 -0.9740
vn -0.4867 0.3194 -0.8131
vn -0.4867 0.3195 -0.8131
vn -0.7109 0.4642 -0.5284
vn -0.8268 0.5383 -0.1633
vn -0.8169 0.5304 0.2267
vn -0.6826 0.4418 0.5821
vn -0.6825 0.4418 0.5822
vn -0.4549 0.2916 0.8415
vn -0.1508 0.0931 0.9842
vn 0.1763 -0.1195 0.9770
vn 0.4765 -0.3140 0.8212
vn 0.7042 -0.4607 0.5403
vn 0.8246 -0.5372 0.1771
vn 0.8247 -0.5372 0.1771
vn 0.8196 -0.5319 -0.2129
vn 0.6897 -0.4457 -0.5707
vn 0.4549 -0.2916 -0.8415
vn 0.1508 -0.0931 -0.9842
vn 0.1508 -0.0932 -0.9842
vn -0.1763 0.1195 -0.9771
vn -0.1763 0.1196 -0.9770
vn -0.4765 0.3140 -0.8212
vn -0.7042 0.4606 -0.5403
vn -0.8247 0.5372 -0.1771
vn -0.8196 0.5319 0.2130
vn -0.6897 0.4457 0.5707
vn 0.5431 0.8396 0.0083
vn 0.5528 0.8332 0.0143
vn 0.5424 0.8400 0.0133
vn 0.5438 0.8392 0.0095
vn 0.5309 0.8474 0.0034
vn 0.5495 0.8355 0.0088
vn 0.5430 0.8397 0.0045
vn 0.5461 0.8374 0.0214
vn 0.4872 0.8733 0.0032
vn 0.4867 0.8735 0.0034
vn 0.4864 0.8738 0.0023
vn 0.4861 0.8739 0.0035
vn 0.4854 0.8743 0.0032
vn 0.4864 0.8738 0.0041
vn 0.4863 0.8738 0.0023
vn 0.4859 0.8740 0.0032
vn 0.4863 0.8738 0.0039
vn 0.4864 0.8738 0.0037
vn 0.4874 0.8732 0.0032
vn 0.4866 0.8736 0.0035
vn 0.5439 0.8391 0.0075
vn 0.5434 0.8395 0.0061
vn 0.5400 0.8417 0.0046
vn 0.5450 0.8384 0.0065
vn 0.5463 0.8375 0.0101
vn 0.5458 0.8378 0.0128
vn 0.5468 0.8372 0.0088
vn 0.5474 0.8368 0.0086
vn 0.5439 0.8391 0.0053
vn 0.5437 0.8392 0.0049
vn 0.5414 0.8407 0.0035
vn 0.5449 0.8385 0.0046
vn 0.5464 0.8375 0.0057
vn 0.5458 0.8379 0.0090
vn 0.5473 0.8369 0.0065
vn 0.5450 0.8384 0.0071
vn 0.5430 0.8397 0.0041
vn 0.5440 0.8391 0.0020
vn 0.5425 0.8401 0.0021
vn 0.5449 0.8385 0.0029
vn 0.5457 0.8380 0.0038
vn 0.5464 0.8375 0.0066
vn 0.5468 0.8373 0.0046
vn 0.5446 0.8386 0.0056
vn -0.8376 0.5462 0.0075
vn -0.8401 0.5424 0.0067
vn -0.0038 -0.0074 1.0000
vn -0.0005 -0.0037 1.0000
vn 0.8401 -0.5425 -0.0022
vn 0.8376 -0.5462 -0.0015
vn 0.0012 0.0032 -1.0000
vn 0.0032 0.0078 -1.0000
vn -0.8738 0.4863 0.0050
vn -0.0017 -0.0030 1.0000
vn -0.0018 -0.0030 1.0000
vn 0.8737 -0.4864 0.0056
vn 0.0017 0.0030 -1.0000
vn 0.0017 0.0029 -1.0000
vn -0.0017 -0.0031 1.0000
vn 0.8738 -0.4863 -0.0053
vn 0.8738 -0.4862 -0.0053
vn 0.0017 0.0031 -1.0000
vn -0.8738 0.4863 -0.0057
vn -0.8737 0.4864 -0.0057
vn -0.0039 -0.0077 1.0000
vn -0.0012 -0.0047 1.0000
vn 0.8395 -0.5434 -0.0036
vn 0.8375 -0.5464 -0.0030
vn 0.0017 0.0043 -1.0000
vn 0.0034 0.0080 -1.0000
vn -0.8376 0.5463 0.0027
vn -0.8395 0.5434 0.0021
vn -0.0027 -0.0066 1.0000
vn -0.0004 -0.0039 1.0000
vn 0.8392 -0.5437 -0.0043
vn 0.8375 -0.5464 -0.0038
vn 0.0008 0.0036 -1.0000
vn 0.0023 0.0069 -1.0000
vn -0.8375 0.5464 0.0038
vn -0.8392 0.5437 0.0033
vn -0.0027 -0.0049 1.0000
vn -0.0003 -0.0023 1.0000
vn 0.8398 -0.5429 -0.0051
vn 0.8375 -0.5464 -0.0044
vn 0.0008 0.0019 -1.0000
vn 0.0022 0.0052 -1.0000
vn -0.8375 0.5464 0.0046
vn -0.8398 0.5429 0.0039
vn 0.4864 0.8737 0.0038
vn 0.5407 0.8411 0.0119
vn 0.5389 0.8423 0.0059
vn 0.5417 0.8405 0.0088
vn 0.5433 0.8395 0.0082
vn 0.5447 0.8386 0.0088
vn 0.5438 0.8392 0.0107
vn 0.5441 0.8390 0.0125
vn 0.5413 0.8408 0.0116
vn 0.5407 0.8411 0.0093
vn 0.5416 0.8406 0.0062
vn 0.5440 0.8390 0.0052
vn 0.5447 0.8386 0.0065
vn 0.5438 0.8391 0.0081
vn 0.5445 0.8387 0.0098
vn 0.5413 0.8408 0.0088
vn 0.5408 0.8412 0.0066
vn 0.5389 0.8423 0.0015
vn 0.5416 0.8406 0.0034
vn 0.5439 0.8392 0.0026
vn 0.5451 0.8384 0.0033
vn 0.5439 0.8391 0.0057
vn 0.5448 0.8385 0.0072
vn 0.5411 0.8409 0.0062
vn -0.8738 0.4863 0.0056
vn -0.0018 -0.0033 1.0000
vn 0.8737 -0.4864 0.0061
vn 0.0018 0.0033 -1.0000
vn 0.8738 -0.4863 -0.0056
vn -0.8737 0.4864 -0.0061
vn -0.0068 -0.0106 0.9999
vn -0.0037 -0.0074 1.0000
vn 0.8424 -0.5389 -0.0062
vn 0.8386 -0.5447 -0.0054
vn 0.0044 0.0068 -1.0000
vn 0.0061 0.0109 -0.9999
vn -0.8386 0.5447 0.0068
vn -0.8424 0.5389 0.0059
vn -0.0049 -0.0085 1.0000
vn -0.0017 -0.0052 1.0000
vn 0.8424 -0.5388 -0.0060
vn 0.8386 -0.5447 -0.0051
vn 0.0028 0.0044 -1.0000
vn 0.0046 0.0087 -1.0000
vn -0.8387 0.5446 0.0063
vn -0.8424 0.5387 0.0054
vn -0.0036 -0.0063 1.0000
vn -0.0003 -0.0029 1.0000
vn 0.8423 -0.5389 -0.0058
vn 0.8384 -0.5450 -0.0049
vn 0.0031 0.0011 -1.0000
vn 0.0048 0.0054 -1.0000
vn -0.8384 0.5450 0.0061
vn -0.8423 0.5389 0.0051
vn 0.4857 0.8741 0.0002
vn 0.4865 0.8737 -0.0024
vn 0.4863 0.8738 0.0033
vn 0.4864 0.8738 0.0033
vn 0.4849 0.8746 -0.0018
vn 0.4876 0.8731 0.0008
vn 0.5390 0.8422 0.0073
vn 0.5422 0.8402 0.0047
vn 0.5404 0.8414 0.0108
vn 0.5407 0.8411 0.0095
vn 0.5354 0.8446 0.0067
vn 0.5414 0.8407 0.0098
vn 0.5389 0.8424 0.0045
vn 0.5413 0.8408 0.0020
vn 0.5403 0.8415 0.0085
vn 0.5407 0.8412 0.0070
vn 0.5363 0.8440 0.0040
vn 0.5414 0.8407 0.0073
vn 0.5384 0.8427 0.0010
vn 0.5404 0.8414 -0.0014
vn 0.5401 0.8416 0.0059
vn 0.5408 0.8412 0.0039
vn 0.5372 0.8435 0.0013
vn 0.5416 0.8406 0.0045
vn 0.8739 -0.4862 0.0004
vn 0.8738 -0.4863 0.0004
vn 0.0013 0.0023 -1.0000
vn -0.8738 0.4863 -0.0065
vn 0.8419 -0.5397 -0.0040
vn 0.8418 -0.5398 -0.0040
vn 0.0052 0.0080 -1.0000
vn -0.8418 0.5397 0.0052
vn -0.8416 0.5401 0.0052
vn 0.8420 -0.5394 -0.0027
vn 0.8419 -0.5397 -0.0027
vn 0.0039 0.0060 -1.0000
vn -0.8419 0.5397 0.0030
vn -0.8418 0.5398 0.0030
vn 0.8418 -0.5398 -0.0010
vn 0.8420 -0.5395 -0.0010
vn 0.0024 0.0038 -1.0000
vn -0.8420 0.5395 0.0015
vn -0.8419 0.5396 0.0016
vn 0.8425 -0.5387 -0.0087
vn 0.8419 -0.5394 -0.0140
vn 0.8465 -0.5324 0.0065
vn 0.8480 -0.5299 0.0061
vn 0.8391 -0.5439 -0.0039
vn 0.8556 -0.5176 0.0026
vn -0.0015 0.0010 -1.0000
vn -0.0013 0.0009 -1.0000
vn 0.5053 0.8630 0.0037
vn -0.4947 -0.8691 -0.0066
vn 0.5447 0.8386 0.0016
vn 0.5516 0.8341 0.0000
vn -0.5736 -0.8191 0.0000
vn 0.8192 -0.5736 0.0000
vn 0.5736 0.8191 0.0000
vn -0.8192 0.5736 0.0000
vn 0.8660 -0.5000 0.0000
vn 0.5000 0.8661 0.0000
vn 0.5450 0.8384 0.0018
vn 0.5462 0.8376 0.0030
vn 0.5469 0.8372 0.0023
vn 0.5443 0.8389 0.0037
vn 0.5441 0.8390 0.0034
vn 0.5436 0.8393 0.0031
vn 0.5440 0.8391 0.0027
vn 0.5451 0.8384 0.0019
vn 0.5449 0.8385 -0.0001
vn 0.5447 0.8386 0.0005
vn 0.5446 0.8387 0.0020
vn 0.5449 0.8385 0.0012
vn 0.5445 0.8388 0.0020
vn 0.5441 0.8390 0.0016
vn 0.5441 0.8390 0.0015
vn 0.5445 0.8388 0.0009
vn 0.5461 0.8377 0.0035
vn 0.5457 0.8379 0.0065
vn 0.5450 0.8384 0.0048
vn 0.5456 0.8380 0.0046
vn 0.5457 0.8380 0.0043
vn 0.5450 0.8384 0.0028
vn 0.5464 0.8375 0.0050
vn 0.5465 0.8374 0.0044
vn 0.5475 0.8368 0.0035
vn 0.5451 0.8383 0.0031
vn 0.5450 0.8384 0.0030
vn 0.5440 0.8391 0.0052
vn 0.5434 0.8395 0.0046
vn 0.5448 0.8385 0.0067
vn 0.5469 0.8372 0.0059
vn 0.5480 0.8364 0.0048
vn 0.5467 0.8373 0.0067
vn 0.5459 0.8378 0.0087
vn 0.5447 0.8386 0.0029
vn 0.5452 0.8383 0.0044
vn 0.5450 0.8384 0.0041
vn 0.5433 0.8395 0.0045
vn 0.5439 0.8391 0.0040
vn 0.5446 0.8387 0.0030
vn 0.5449 0.8385 0.0023
vn 0.4889 0.8723 0.0033
vn 0.4894 0.8721 0.0041
vn 0.4882 0.8727 0.0020
vn 0.4876 0.8731 -0.0001
vn 0.4828 0.8757 0.0047
vn 0.4855 0.8742 0.0080
vn 0.4870 0.8733 0.0112
vn 0.4864 0.8736 0.0134
vn 0.4846 0.8747 0.0077
vn 0.4839 0.8751 0.0064
vn 0.4896 0.8719 0.0044
vn 0.4891 0.8722 0.0051
vn 0.4884 0.8726 0.0063
vn 0.4881 0.8728 0.0072
vn 0.8519 -0.5236 -0.0065
vn 0.8536 -0.5208 -0.0135
vn 0.8528 -0.5222 -0.0101
vn 0.8513 -0.5247 -0.0039
vn 0.8436 -0.5368 -0.0119
vn 0.8433 -0.5371 -0.0157
vn 0.8442 -0.5360 -0.0025
vn 0.8443 -0.5358 0.0000
vn 0.8501 -0.5265 -0.0155
vn 0.8420 -0.5394 0.0113
# 547 vertex normals

vt 0.9981 0.9995 0.2670
vt 0.0005 0.9978 0.0005
vt 0.0066 0.0005 0.9996
vt 0.9995 0.0022 0.3351
vt 0.9995 0.9995 0.0005
vt 0.0005 0.9994 0.9987
vt 0.0056 0.0005 0.9995
vt 0.9943 0.0006 0.0124
vt 1.1507 1.6410 3.6303
vt 0.5722 1.6307 3.3062
vt 0.5742 1.5238 3.3082
vt 1.1500 1.5341 3.6304
vt 8.4580 -3.6283 0.9817
vt 8.9585 -3.6319 0.9986
vt 9.2753 3.9206 0.3259
vt 8.7632 3.9452 0.3274
vt 0.9995 0.9995 0.1084
vt 0.0005 0.9990 0.9995
vt 0.0078 0.0005 0.8784
vt 0.9920 0.0010 0.0005
vt -7.5104 -3.6696 0.3647
vt -7.8951 4.3337 0.5018
vt -8.4572 4.3246 0.5145
vt -8.0729 -3.6768 0.3988
vt 8.4580 -3.6795 0.0206
vt 6.2664 4.0651 0.3346
vt -1.4960 -3.5927 0.0005
vt 3.5465 4.1957 0.3424
vt 1.0288 4.3166 0.3497
vt -1.4888 4.4375 0.3569
vt -4.7933 4.3840 0.4317
vt -7.5114 -3.6867 0.0317
vt 9.0622 -3.6362 0.9990
vt 9.3517 3.9907 0.3193
vt -8.4590 4.4282 0.5048
vt -4.7962 4.4875 0.4224
vt -1.4872 4.5410 0.3480
vt 1.0303 4.4132 0.3413
vt 0.1511 1.6279 3.0288
vt 0.1531 1.5242 3.0308
vt 0.7874 1.5255 1.4346
vt 2.1006 1.5256 2.2587
vt 2.1001 1.6184 2.2588
vt 0.7874 1.6125 1.4346
vt 9.2081 -3.6417 0.9995
vt 9.4615 4.0867 0.3103
vt 1.4346 1.6125 0.7874
vt 1.4099 1.6125 0.8031
vt 1.4099 1.5255 0.8031
vt 1.4346 1.5255 0.7874
vt -1.2302 2.0944 1.5256
vt -1.2587 2.1006 1.5256
vt -0.4346 0.7874 1.5255
vt -0.4099 0.8031 1.5255
vt -0.7109 2.4337 1.5250
vt -0.7230 2.4536 1.5250
vt 0.5742 3.3082 1.5238
vt 0.5893 3.2832 1.5236
vt 1.1640 3.6047 1.5340
vt 1.1500 3.6304 1.5341
vt -2.9883 1.5455 -0.7897
vt -2.9628 1.5455 -0.8039
vt -2.9628 1.6524 -0.8039
vt -2.9883 1.6524 -0.7896
vt -8.4615 4.5738 0.4910
vt -4.8002 4.6330 0.4094
vt -1.4849 4.6867 0.3354
vt 1.0324 4.5487 0.3296
vt 0.0059 0.9993 0.9866
vt 0.0005 0.0005 0.9995
vt 0.9995 0.0007 0.0033
vt 0.9940 0.9995 0.0005
vt 1.7897 1.5455 3.9883
vt 1.7896 1.6524 3.9883
vt 0.0085 0.9990 0.9995
vt 0.0005 0.0005 0.8852
vt 0.9995 0.0010 0.0005
vt 0.9917 0.9995 0.1288
vt 1.8039 3.9628 1.5455
vt 1.7897 3.9883 1.5455
vt 0.9995 0.7143 0.0718
vt 0.9981 0.9939 0.1180
vt 0.0025 0.9934 1.0708
vt 0.0005 0.6743 1.0224
vt 0.0005 0.9978 0.0004
vt 0.0023 0.0005 0.9995
vt 0.9995 0.0022 0.5665
vt 0.9968 0.9995 0.2808
vt 6.2678 4.1473 0.3275
vt -0.7230 1.5250 2.4536
vt -0.7249 1.6220 2.4518
vt -1.2588 1.6184 2.1001
vt -1.2587 1.5256 2.1006
vt -0.2549 2.7316 1.5245
vt -0.2680 2.7533 1.5246
vt 6.2697 4.2616 0.3176
vt 0.0005 0.9990 0.0010
vt 0.0098 0.0005 0.9998
vt 0.9995 0.0010 0.0010
vt 0.9911 0.9995 0.9995
vt 0.9995 0.5012 1.0701
vt 0.9946 0.9848 1.4851
vt 0.0005 0.9848 2.0549
vt 0.0067 0.4541 2.0693
vt 3.5478 4.2854 0.3347
vt -0.2700 1.6250 2.7515
vt -0.2680 1.5246 2.7533
vt 3.5497 4.4107 0.3238
vt 0.0005 0.9975 0.0004
vt 0.0034 0.0005 0.9995
vt 0.9995 0.0025 0.5256
vt 0.9961 0.9995 0.4158
vt 0.1672 3.0074 1.5241
vt 0.1531 3.0308 1.5242
vt 0.0005 0.9989 0.5596
vt 0.0086 0.0005 0.4535
vt 0.9995 0.0014 0.0004
vt 0.9919 0.9995 0.9996
vt 0.9995 0.6001 1.0508
vt 0.9952 1.0020 1.6649
vt 0.0005 1.0020 2.0500
vt 0.0053 0.5613 1.6870
vt 0.0005 0.9987 0.0007
vt 0.0050 0.0005 0.9998
vt 0.9995 0.0013 0.1267
vt 0.9944 0.9995 0.4966
vt 0.0005 0.9995 0.6858
vt 0.0086 0.0005 0.2802
vt 0.9995 0.0014 0.0005
vt 0.9919 0.9988 0.9995
vt 0.9995 0.6808 0.9197
vt 0.9969 0.9962 1.4393
vt 0.0005 0.9962 1.9186
vt 0.0035 0.6391 1.3300
vt 0.9995 0.9896 0.9994
vt 0.0439 0.9995 0.3869
vt 0.0005 0.0040 0.0004
vt 0.9631 0.0005 0.5194
vt 0.9848 1.8078 1.6406
vt 1.0184 1.7884 1.6406
vt 1.0378 1.8220 1.6406
vt 1.0042 1.8414 1.6406
vt 1.6423 1.4646 1.6790
vt 1.6907 1.4307 1.6790
vt 1.7194 1.4717 1.6790
vt 1.6710 1.5056 1.6790
vt 1.6996 1.5465 1.6790
vt 1.7481 1.5126 1.6790
vt 1.7767 1.5536 1.6790
vt 1.7283 1.5875 1.6790
vt -0.4307 1.6790 1.6907
vt -0.4307 1.7184 1.6907
vt -0.4717 1.7184 1.7194
vt -0.4717 1.6790 1.7194
vt 1.7194 1.6790 1.4717
vt 1.7194 1.7184 1.4717
vt 1.6710 1.7184 1.5056
vt 1.6710 1.6790 1.5056
vt 1.5056 1.6790 1.6710
vt 1.5056 1.7184 1.6710
vt 1.4646 1.7184 1.6423
vt 1.4646 1.6790 1.6423
vt -0.6423 1.6790 1.4646
vt -0.6423 1.7184 1.4646
vt -0.6907 1.7184 1.4307
vt -0.6907 1.6790 1.4307
vt -0.5126 1.6790 1.7481
vt -0.5126 1.7184 1.7481
vt -0.5536 1.7184 1.7767
vt -0.5536 1.6790 1.7767
vt 1.7767 1.6790 1.5536
vt 1.7767 1.7184 1.5536
vt 1.7283 1.7184 1.5875
vt 1.7283 1.6790 1.5875
vt 1.5875 1.6790 1.7283
vt 1.5875 1.7184 1.7283
vt 1.5465 1.7184 1.6996
vt 1.5465 1.6790 1.6996
vt -0.6996 1.6790 1.5465
vt -0.6996 1.7184 1.5465
vt -0.7481 1.7184 1.5126
vt -0.7481 1.6790 1.5126
vt -0.7884 1.6406 1.0184
vt -0.7884 1.6801 1.0184
vt -0.8220 1.6801 1.0378
vt -0.8220 1.6406 1.0378
vt 1.0378 1.6406 1.8220
vt 1.0378 1.6801 1.8220
vt 1.0042 1.6801 1.8414
vt 1.0042 1.6406 1.8414
vt 1.8414 1.6406 1.0042
vt 1.8414 1.6801 1.0042
vt 1.8078 1.6801 0.9848
vt 1.8078 1.6406 0.9848
vt 0.0152 1.6406 1.8078
vt 0.0152 1.6801 1.8078
vt -0.0184 1.6801 1.7884
vt -0.0184 1.6406 1.7884
vt 0.0929 0.7994 0.8966
vt 0.0094 0.6209 0.9850
vt 0.5000 0.5000 0.5000
vt 0.0005 0.4239 0.9995
vt 0.0677 0.2386 0.9379
vt 0.2007 0.0930 0.8097
vt 0.3792 0.0094 0.6343
vt 0.5762 0.0005 0.4385
vt 0.7615 0.0677 0.2520
vt 0.9071 0.2006 0.1033
vt 0.9906 0.3792 0.0150
vt 0.9995 0.5761 0.0005
vt 0.9323 0.7615 0.0620
vt 0.7993 0.9070 0.1902
vt 0.6208 0.9906 0.3656
vt 0.4238 0.9995 0.5614
vt 0.2385 0.9324 0.7479
vt 0.1473 0.1463 0.0000
vt 0.3095 0.0382 0.5000
vt 0.5000 0.5000 1.0000
vt 0.5007 0.0005 0.5000
vt 0.6918 0.0388 0.5000
vt 0.8537 0.1473 0.5000
vt 0.9618 0.3095 0.5000
vt 0.9995 0.5007 0.5000
vt 0.9612 0.6918 0.5000
vt 0.8527 0.8537 1.5000
vt 0.6905 0.9618 0.0000
vt 0.4993 0.9995 0.5000
vt 0.3082 0.9612 0.5000
vt 0.1463 0.8527 0.5000
vt 0.0382 0.6905 1.0000
vt 0.0005 0.4993 0.5000
vt 0.0388 0.3082 0.5000
vt 0.1582 0.1354 0.0000
vt 0.3238 0.0323 0.0000
vt 0.5162 0.0005 0.0000
vt 0.7061 0.0447 0.5000
vt 0.8646 0.1582 0.5000
vt 0.9677 0.3238 0.0000
vt 0.9995 0.5162 -0.5000
vt 0.9553 0.7061 0.0000
vt 0.8418 0.8646 0.5000
vt 0.6762 0.9677 0.5000
vt 0.4838 0.9995 0.5000
vt 0.2939 0.9553 0.5000
vt 0.1354 0.8418 0.0000
vt 0.0323 0.6762 0.5000
vt 0.0005 0.4838 0.5000
vt 0.0447 0.2939 0.5000
vt 0.1533 0.1404 0.8564
vt 0.3173 0.0350 0.9629
vt 0.5000 0.5000 0.4990
vt 0.5091 0.0005 0.9990
vt 0.6996 0.0420 0.9590
vt 0.8596 0.1533 0.8486
vt 0.9650 0.3173 0.6855
vt 0.9995 0.5091 0.4951
vt 0.9580 0.6996 0.3037
vt 0.8467 0.8596 0.1416
vt 0.6827 0.9650 0.0352
vt 0.4909 0.9995 0.0000
vt 0.3004 0.9580 0.0381
vt 0.1403 0.8467 0.1494
vt 0.0350 0.6827 0.3115
vt 0.0005 0.4909 0.5039
vt 0.0420 0.3004 0.6953
vt -3.2521 4.1751 9.4464
vt -4.1419 4.1783 9.4514
vt -4.1419 -3.7913 8.9631
vt 0.2030 4.1626 9.4266
vt 2.8400 -3.8166 8.9232
vt 3.3144 4.1531 9.4117
vt 5.3140 4.1522 9.4103
vt 5.9726 4.1522 9.4103
vt 5.3203 -3.8174 8.9220
vt -4.2138 -3.5820 -8.1077
vt -0.1582 -3.5820 -8.1077
vt -0.2159 -3.2673 -8.1168
vt -4.2141 3.9907 -8.3258
vt -1.4709 3.9907 -8.3258
vt 8.6073 5.0367 -3.5842
vt 8.6073 -5.0512 -3.5842
vt 9.1077 -5.0462 -3.5820
vt 8.6073 5.7606 -3.5842
vt 9.1077 1.1582 -3.5820
vt 9.1077 5.2138 -3.5820
vt 9.1077 5.7730 -3.5820
vt 4.2521 4.4036 2.5530
vt 4.2521 4.6615 2.5608
vt 0.9190 4.6495 2.5419
vt 0.7970 4.3911 2.5332
vt -4.1409 4.4362 9.4593
vt -3.2521 4.4330 9.4542
vt -8.4353 4.4210 0.0810
vt -8.4266 4.1626 0.2030
vt -4.7132 4.2857 0.2030
vt -4.7230 4.5441 0.0810
vt -0.0581 5.2067 4.3767
vt 2.4611 5.2045 4.4718
vt 2.4578 5.3287 4.4711
vt -0.0614 5.3309 4.3762
vt -4.2138 -3.5850 -8.2115
vt -4.2141 4.0618 -8.4015
vt -4.3383 4.0618 -8.4014
vt -4.3380 -3.5850 -8.2115
vt -1.3471 5.0278 -3.6264
vt -1.3471 -4.6633 -3.6264
vt -7.9232 2.8400 -3.8166
vt -7.9631 -4.1419 -3.7913
vt -7.3994 -4.1726 -3.7773
vt -7.9220 5.3203 -3.8174
vt -7.3607 5.0445 -3.8004
vt -7.3597 5.2953 -3.8010
vt 5.8055 4.0085 -7.8133
vt 5.0367 -3.5842 -7.6073
vt 5.7606 -3.5842 -7.6073
vt -4.2953 -3.8010 8.3597
vt -4.0445 -3.8004 8.3607
vt -4.9637 4.1693 8.8484
vt 9.2115 5.2138 -3.5850
vt 9.2115 5.3380 -3.5850
vt 9.2115 5.7730 -3.5850
vt -8.3258 3.9907 5.2141
vt -8.4015 4.0618 5.2141
vt -8.2115 -3.5850 5.2138
vt -8.1077 -3.5820 5.2138
vt -5.2991 4.0966 5.2112
vt -5.2994 4.1789 5.2114
vt 2.4611 4.4718 5.2045
vt 2.4612 4.3680 5.2039
vt 5.7436 4.2661 5.2559
vt 5.7479 4.3698 5.2563
vt 5.9726 4.2560 9.4135
vt 5.4382 4.2560 9.4135
vt 5.3140 4.2560 9.4135
vt 5.7486 5.3805 4.3693
vt 5.7479 5.2563 4.3698
vt -8.2382 -3.2521 4.0767
vt -5.2072 -3.2521 4.1685
vt -5.2304 0.3832 4.1257
vt -8.2949 0.4544 4.0210
vt 6.0462 -3.5820 -8.1077
vt 6.0429 -3.2673 -8.1168
vt 3.3343 -3.2673 -8.1168
vt 2.5608 -3.2521 4.6615
vt 2.5680 -4.5208 4.6661
vt 5.6964 -4.3484 4.5617
vt 5.7030 -3.2521 4.5574
vt 5.5218 4.4082 2.5602
vt 5.5208 4.6661 2.5680
vt 0.0810 4.4210 9.4353
vt -8.2077 -5.2462 4.1066
vt -5.1900 -5.0432 4.1911
vt -1.5332 4.3911 0.2030
vt -1.5419 4.6495 0.0810
vt 9.4117 3.3144 4.1531
vt 9.4103 5.3140 4.1522
vt 5.7436 5.2559 4.2661
vt 5.7286 3.2626 4.2754
vt 9.4103 4.1522 5.3140
vt 9.4135 4.2560 5.3140
vt 9.4135 5.3140 4.2560
vt 9.4135 5.4382 4.2560
vt -5.2994 5.2114 4.1789
vt -5.3026 5.3356 4.1786
vt -8.4014 5.3383 4.0618
vt -8.4015 5.2141 4.0618
vt -2.5773 4.1918 5.2087
vt -2.5773 4.2816 5.2090
vt -2.5773 5.2090 4.2816
vt -2.5806 5.3332 4.2812
vt -0.0580 4.2799 5.2063
vt -0.0581 4.3767 5.2067
vt 2.4612 5.2039 4.3680
vt 3.6994 4.3179 4.3329
vt 3.7802 4.4905 4.3294
vt 2.5189 3.2175 4.3820
vt 4.0568 3.7265 4.3244
vt 3.8842 3.8074 4.3295
vt 4.6479 4.0840 4.3036
vt 4.5671 3.9113 4.3071
vt 4.2905 4.6754 4.3122
vt 4.4631 4.5945 4.3070
vt -5.2380 3.0403 4.1021
vt -4.0842 3.7413 4.1410
vt -4.2497 3.8516 4.1349
vt -2.5178 3.1024 4.2003
vt -3.4188 4.0182 4.1642
vt -3.5290 3.8526 4.1606
vt -2.5773 5.2087 4.1918
vt -3.6955 4.6841 4.1531
vt -3.5300 4.5738 4.1592
vt -5.2991 5.2112 4.0966
vt -4.3609 4.4071 4.1300
vt -4.2507 4.5727 4.1336
vt -1.4856 3.7556 4.2336
vt -1.6473 3.8563 4.2275
vt 0.0005 3.1600 4.2911
vt -0.8564 4.0405 4.2551
vt -0.9571 3.8786 4.2520
vt -0.0580 5.2063 4.2799
vt -1.3291 4.7011 4.2363
vt -1.1411 4.6700 4.2431
vt -0.9794 4.5693 4.2492
vt -1.7703 4.3851 4.2216
vt -1.6696 4.5469 4.2247
vt 1.0270 3.7799 4.3231
vt 0.8668 3.8828 4.3170
vt 1.6594 4.0557 4.3444
vt 1.5566 3.8954 4.3414
vt 1.3840 4.6885 4.3320
vt 1.5441 4.5856 4.3381
vt 0.7514 4.4128 4.3106
vt 0.8543 4.5730 4.3136
vt 4.4894 4.1016 3.7729
vt 4.4905 4.3294 3.7802
vt 4.3179 4.3329 3.6994
vt 4.3168 4.1050 3.6921
vt 4.1274 4.3341 3.6908
vt 4.1263 4.1062 3.6835
vt 3.9482 4.3329 3.7557
vt 3.9470 4.1050 3.7484
vt 3.8074 4.3295 3.8842
vt 3.8062 4.1016 3.8769
vt -2.8769 4.1016 3.8062
vt -2.8842 4.3295 3.8074
vt -3.0568 4.3244 3.7265
vt -3.0495 4.0965 3.7254
vt -3.2472 4.3183 3.7178
vt -3.2399 4.0904 3.7167
vt -3.4264 4.3123 3.7827
vt -3.4190 4.0844 3.7816
vt -3.5671 4.3071 3.9113
vt -3.5597 4.0792 3.9102
vt -2.9102 4.0792 4.5597
vt -2.9113 4.3071 4.5671
vt -3.0840 4.3036 4.6479
vt -3.0828 4.0758 4.6405
vt -3.2744 4.3024 4.6565
vt -3.2733 4.0746 4.6492
vt -3.4537 4.3036 4.5916
vt -3.4526 4.0757 4.5843
vt -3.5945 4.3070 4.4631
vt -3.5933 4.0792 4.4557
vt 4.4557 4.0792 4.5933
vt 4.4631 4.3070 4.5945
vt 4.2905 4.3122 4.6754
vt 4.2832 4.0843 4.6742
vt 4.1001 4.3182 4.6840
vt 4.0928 4.0903 4.6829
vt 3.9209 4.3243 4.6191
vt 3.9136 4.0964 4.6180
vt 3.7802 4.3294 4.4905
vt 3.7729 4.1016 4.4894
vt 5.2416 3.9071 3.8512
vt 5.2497 4.1349 3.8516
vt 5.0842 4.1410 3.7413
vt 5.0761 3.9132 3.7409
vt 4.8891 4.1480 3.7028
vt 4.8810 3.9202 3.7023
vt 4.6942 4.1549 3.7419
vt 4.6861 3.9270 3.7414
vt 4.5290 4.1606 3.8526
vt 4.5209 3.9327 3.8522
vt -2.8522 3.9327 -3.5209
vt -2.8526 4.1606 -3.5290
vt -3.0182 4.1642 -3.4188
vt -3.0178 3.9363 -3.4107
vt -3.2134 4.1652 -3.3802
vt -3.2130 3.9373 -3.3721
vt -3.4085 4.1635 -3.4193
vt -3.4081 3.9356 -3.4112
vt -3.5738 4.1592 -3.5300
vt -3.5733 3.9313 -3.5219
vt -3.5219 3.9313 4.5733
vt -3.5300 4.1592 4.5738
vt -3.6955 4.1531 4.6841
vt -3.6874 3.9253 4.6836
vt -3.8905 4.1461 4.7226
vt -3.8824 3.9183 4.7222
vt -4.0855 4.1393 4.6835
vt -4.0774 3.9114 4.6831
vt -4.2507 4.1336 4.5727
vt -4.2426 3.9057 4.5723
vt 4.5723 3.9057 -4.2426
vt 4.5727 4.1336 -4.2507
vt 4.4071 4.1300 -4.3609
vt 4.4067 3.9021 -4.3528
vt 4.2119 4.1290 -4.3994
vt 4.2115 3.9011 -4.3913
vt 4.0169 4.1307 -4.3604
vt 4.0164 3.9028 -4.3523
vt 3.8516 4.1349 -4.2497
vt 3.8512 3.9071 -4.2416
vt 2.6392 3.9997 3.8556
vt 2.6473 4.2275 3.8563
vt 2.4856 4.2336 3.7556
vt 2.4775 4.0058 3.7549
vt 2.2976 4.2404 3.7244
vt 2.2895 4.0125 3.7238
vt 2.1120 4.2469 3.7677
vt 2.1039 4.0190 3.7670
vt 1.9571 4.2520 3.8786
vt 1.9490 4.0242 3.8780
vt -2.8780 4.0242 -0.9490
vt -2.8786 4.2520 -0.9571
vt -3.0405 4.2551 -0.8564
vt -3.0398 4.0273 -0.8483
vt -3.2286 4.2557 -0.8253
vt -3.2279 4.0278 -0.8172
vt -3.4143 4.2536 -0.8685
vt -3.4136 4.0257 -0.8604
vt -3.5693 4.2492 -0.9794
vt -3.5686 4.0213 -0.9713
vt -0.9713 4.0213 4.5686
vt -0.9794 4.2492 4.5693
vt -1.1411 4.2431 4.6700
vt -1.1330 4.0153 4.6693
vt -1.3291 4.2363 4.7011
vt -1.3210 4.0085 4.7005
vt -1.5147 4.2299 4.6579
vt -1.5065 4.0020 4.6572
vt -1.6696 4.2247 4.5469
vt -1.6615 3.9968 4.5462
vt 4.5462 3.9968 -1.6615
vt 4.5469 4.2247 -1.6696
vt 4.3851 4.2216 -1.7703
vt 4.3844 3.9937 -1.7622
vt 4.1970 4.2210 -1.8014
vt 4.1963 3.9932 -1.7933
vt 4.0113 4.2231 -1.7582
vt 4.0106 3.9953 -1.7501
vt 3.8563 4.2275 -1.6473
vt 3.8556 3.9997 -1.6392
vt 0.1251 4.0891 3.8819
vt 0.1332 4.3170 3.8828
vt -0.0270 4.3231 3.7799
vt -0.0351 4.0952 3.7790
vt -0.2143 4.3299 3.7462
vt -0.2224 4.1020 3.7452
vt -0.4003 4.3363 3.7867
vt -0.4084 4.1085 3.7858
vt -0.5566 4.3414 3.8954
vt -0.5647 4.1136 3.8945
vt -2.8945 4.1136 1.5647
vt -2.8954 4.3414 1.5566
vt -3.0557 4.3444 1.6594
vt -3.0547 4.1165 1.6676
vt -3.2431 4.3448 1.6932
vt -3.2422 4.1170 1.7013
vt -3.4292 4.3426 1.6527
vt -3.4283 4.1147 1.6608
vt -3.5856 4.3381 1.5441
vt -3.5847 4.1102 1.5522
vt 1.5522 4.1102 4.5847
vt 1.5441 4.3381 4.5856
vt 1.3840 4.3320 4.6885
vt 1.3920 4.1041 4.6876
vt 1.1966 4.3252 4.7223
vt 1.2047 4.0973 4.7213
vt 1.0106 4.3187 4.6817
vt 1.0187 4.0909 4.6808
vt 0.8543 4.3136 4.5730
vt 0.8624 4.0857 4.5721
vt 4.5721 4.0857 0.8624
vt 4.5730 4.3136 0.8543
vt 4.4128 4.3106 0.7514
vt 4.4118 4.0828 0.7595
vt 4.2253 4.3102 0.7177
vt 4.2244 4.0823 0.7258
vt 4.0392 4.3124 0.7582
vt 4.0383 4.0846 0.7663
vt 3.8828 4.3170 0.8668
vt 3.8819 4.0891 0.8749
vt -7.1850 1.2166 4.0514
vt -7.1949 2.5877 4.0397
vt -8.3258 2.4709 3.9907
vt -5.6808 1.2178 4.1001
vt -5.6837 2.5889 4.0953
vt -8.3258 5.2141 3.9907
vt 2.5332 0.2030 4.3911
vt 3.4550 1.2166 4.3582
vt 3.4476 2.6537 4.3535
vt 5.7132 0.2030 4.2857
vt 4.9249 1.2165 4.3094
vt 4.9328 2.6536 4.3042
vt 9.4266 0.2030 4.1626
vt 7.9014 1.2166 4.2108
vt 6.4570 1.2166 4.2587
vt 7.8936 2.6537 4.2059
vt 6.4650 2.6537 4.2533
vt -2.5071 0.3200 4.2188
vt -3.1200 1.2171 4.1913
vt -4.6717 1.2157 4.1394
vt -3.1247 2.5819 4.1848
vt -4.6749 2.5805 4.1276
vt 0.0131 0.2615 4.3049
vt -0.5363 1.2172 4.2812
vt -2.1592 1.2151 4.2263
vt -0.5423 2.6543 4.2760
vt -2.1643 2.6522 4.2159
vt 1.9886 1.2170 4.3690
vt 0.7500 1.2166 4.3282
vt 1.9814 2.6541 4.3658
vt 0.7437 2.6537 4.3199
vt 2.5859 3.8119 -7.1865
vt 2.5877 4.0397 -7.1949
vt 1.2166 4.0514 -7.1850
vt 1.2147 3.8235 -7.1777
vt 8.1777 3.8235 1.2147
vt 8.1850 4.0514 1.2166
vt 6.6808 4.1001 1.2178
vt 6.6734 3.8722 1.2170
vt -0.2170 3.8722 -5.6734
vt -0.2178 4.1001 -5.6808
vt -1.5889 4.0953 -5.6837
vt -1.5882 3.8675 -5.6753
vt -5.6753 3.8675 2.5882
vt -5.6837 4.0953 2.5889
vt -7.1949 4.0397 2.5877
vt -7.1865 3.8119 2.5859
vt 2.6529 4.1256 3.4401
vt 2.6537 4.3535 3.4476
vt 1.2166 4.3582 3.4550
vt 1.2158 4.1303 3.4474
vt -2.4474 4.1303 1.2158
vt -2.4550 4.3582 1.2166
vt -3.9249 4.3094 1.2165
vt -3.9173 4.0816 1.2157
vt -0.2157 4.0816 4.9173
vt -0.2165 4.3094 4.9249
vt -1.6536 4.3042 4.9328
vt -1.6528 4.0763 4.9252
vt 4.9252 4.0763 2.6528
vt 4.9328 4.3042 2.6536
vt 3.4476 4.3535 2.6537
vt 3.4401 4.1256 2.6529
vt -5.4495 4.0308 1.2158
vt -5.4570 4.2587 1.2166
vt -6.9014 4.2108 1.2166
vt -6.8938 3.9829 1.2158
vt -0.2158 3.9829 7.8938
vt -0.2166 4.2108 7.9014
vt -1.6537 4.2059 7.8936
vt -1.6529 3.9780 7.8860
vt 7.8860 3.9780 2.6529
vt 7.8936 4.2059 2.6537
vt 6.4650 4.2533 2.6537
vt 6.4574 4.0255 2.6529
vt 2.6529 4.0255 6.4574
vt 2.6537 4.2533 6.4650
vt 1.2166 4.2587 6.4570
vt 1.2158 4.0308 6.4495
vt 5.6641 3.9115 1.2138
vt 5.6717 4.1394 1.2157
vt 4.1200 4.1913 1.2171
vt 4.1124 3.9634 1.2161
vt -0.2161 3.9634 -3.1124
vt -0.2171 4.1913 -3.1200
vt -1.5819 4.1848 -3.1247
vt -1.5808 3.9570 -3.1162
vt -3.1162 3.9570 2.5808
vt -3.1247 4.1848 2.5819
vt -4.6749 4.1276 2.5805
vt -4.6665 3.8997 2.5785
vt 2.5785 3.8997 -4.6665
vt 2.5805 4.1276 -4.6749
vt 1.2157 4.1394 -4.6717
vt 1.2138 3.9115 -4.6641
vt 3.1514 3.9984 1.2135
vt 3.1592 4.2263 1.2151
vt 1.5363 4.2812 1.2172
vt 1.5286 4.0533 1.2164
vt -0.2164 4.0533 -0.5286
vt -0.2172 4.2812 -0.5363
vt -1.6543 4.2760 -0.5423
vt -1.6535 4.0482 -0.5339
vt -0.5339 4.0482 2.6535
vt -0.5423 4.2760 2.6543
vt -2.1643 4.2159 2.6522
vt -2.1558 3.9881 2.6506
vt 2.6506 3.9881 -2.1558
vt 2.6522 4.2159 -2.1643
vt 1.2151 4.2263 -2.1592
vt 1.2135 3.9984 -2.1514
vt 0.2425 4.1003 1.2153
vt 0.2500 4.3282 1.2166
vt -0.9886 4.3690 1.2170
vt -0.9961 4.1411 1.2165
vt -0.2165 4.1411 1.9961
vt -0.2170 4.3690 1.9886
vt -1.6541 4.3658 1.9814
vt -1.6536 4.1379 1.9898
vt 1.9898 4.1379 2.6536
vt 1.9814 4.3658 2.6541
vt 0.7437 4.3199 2.6537
vt 0.7521 4.0921 2.6524
vt 2.6524 4.0921 0.7521
vt 2.6537 4.3199 0.7437
vt 1.2166 4.3282 0.7500
vt 1.2153 4.1003 0.7575
vt 3.2967 -2.5116 4.6343
vt 3.2870 -0.7961 4.6281
vt 2.5419 0.0810 4.6495
vt 4.6290 -2.5116 4.5901
vt 5.7230 0.0810 4.5441
vt 4.6394 -0.7961 4.5833
vt 9.4542 -3.2521 4.4330
vt 7.7145 -2.5116 4.4879
vt 6.4475 -2.5116 4.5299
vt 9.4353 0.0810 4.4210
vt 7.7048 -0.7961 4.4817
vt 6.4578 -0.7961 4.5230
vt -2.4856 -3.2521 4.2509
vt -3.3192 -2.5707 4.2176
vt -4.4715 -2.5707 4.1852
vt -3.3301 -0.7414 4.2023
vt -4.4832 -0.7414 4.1619
vt 0.0336 -3.2521 4.3273
vt -0.7288 -2.5117 4.2973
vt -1.8525 -2.5122 4.2658
vt -0.7388 -0.8064 4.2880
vt -1.8627 -0.8064 4.2487
vt 2.5530 -3.2521 4.4036
vt 1.7625 -2.5117 4.3748
vt 0.6380 -2.5121 4.3432
vt 1.7524 -0.7339 4.3698
vt 0.6276 -0.7316 4.3300
vt -0.7970 4.4003 3.2794
vt -0.7961 4.6281 3.2870
vt -2.5116 4.6343 3.2967
vt -2.5125 4.4064 3.2891
vt -2.2891 4.4064 -2.5125
vt -2.2967 4.6343 -2.5116
vt -3.6290 4.5901 -2.5116
vt -3.6215 4.3623 -2.5125
vt 3.5125 4.3623 4.6215
vt 3.5116 4.5901 4.6290
vt 1.7961 4.5833 4.6394
vt 1.7970 4.3554 4.6318
vt 4.6318 4.3554 -0.7970
vt 4.6394 4.5833 -0.7961
vt 3.2870 4.6281 -0.7961
vt 3.2794 4.4003 -0.7970
vt -5.4399 4.3020 -2.5125
vt -5.4475 4.5299 -2.5116
vt -6.7145 4.4879 -2.5116
vt -6.7069 4.2600 -2.5125
vt 3.5125 4.2600 7.7069
vt 3.5116 4.4879 7.7145
vt 1.7961 4.4817 7.7048
vt 1.7970 4.2538 7.6972
vt 7.6972 4.2538 -0.7970
vt 7.7048 4.4817 -0.7961
vt 6.4578 4.5230 -0.7961
vt 6.4503 4.2952 -0.7970
vt -0.7970 4.2952 6.4503
vt -0.7961 4.5230 6.4578
vt -2.5116 4.5299 6.4475
vt -2.5125 4.3020 6.4399
vt 5.4651 3.9573 -2.5735
vt 5.4715 4.1852 -2.5707
vt 4.3192 4.2176 -2.5707
vt 4.3128 3.9897 -2.5726
vt 3.5726 3.9897 -3.3128
vt 3.5707 4.2176 -3.3192
vt 1.7414 4.2023 -3.3301
vt 1.7433 3.9744 -3.3221
vt -3.3221 3.9744 -0.7433
vt -3.3301 4.2023 -0.7414
vt -4.4832 4.1619 -0.7414
vt -4.4752 3.9341 -0.7443
vt -0.7443 3.9341 -4.4752
vt -0.7414 4.1619 -4.4832
vt -2.5707 4.1852 -4.4715
vt -2.5735 3.9573 -4.4651
vt 2.8461 4.0378 -2.5144
vt 2.8525 4.2658 -2.5122
vt 1.7288 4.2973 -2.5117
vt 1.7224 4.0694 -2.5129
vt 3.5129 4.0694 -0.7224
vt 3.5117 4.2973 -0.7288
vt 1.8064 4.2880 -0.7388
vt 1.8075 4.0602 -0.7308
vt -0.7308 4.0602 -0.8075
vt -0.7388 4.2880 -0.8064
vt -1.8627 4.2487 -0.8064
vt -1.8548 4.0208 -0.8086
vt -0.8086 4.0208 -1.8548
vt -0.8064 4.2487 -1.8627
vt -2.5122 4.2658 -1.8525
vt -2.5144 4.0378 -1.8461
vt 0.3556 4.1153 -2.5138
vt 0.3620 4.3432 -2.5121
vt -0.7625 4.3748 -2.5117
vt -0.7689 4.1469 -2.5123
vt 3.5123 4.1469 1.7689
vt 3.5117 4.3748 1.7625
vt 1.7339 4.3698 1.7524
vt 1.7345 4.1420 1.7604
vt 1.7604 4.1420 -0.7345
vt 1.7524 4.3698 -0.7339
vt 0.6276 4.3300 -0.7316
vt 0.6356 4.1021 -0.7333
vt -0.7333 4.1021 0.6356
vt -0.7316 4.3300 0.6276
vt -2.5121 4.3432 0.6380
vt -2.5138 4.1153 0.6444
vt 9.4593 -4.1409 4.4362
vt 7.8399 -3.6666 4.4879
vt 7.8419 -4.2259 4.4893
vt 6.4120 -3.6666 4.5352
vt 6.4091 -4.3049 4.5370
vt -2.4733 -4.8605 4.2672
vt -3.2362 -3.9421 4.2348
vt -3.2296 -4.9094 4.2432
vt -4.6385 -3.9421 4.1929
vt -4.6302 -5.0036 4.2043
vt 0.0435 -4.6911 4.3377
vt -0.7374 -3.9421 4.3088
vt -0.7326 -4.7461 4.3138
vt -1.8894 -3.9421 4.2745
vt -1.8841 -4.8236 4.2818
vt 2.5602 -4.5218 4.4082
vt 1.8377 -3.9421 4.3846
vt 1.8409 -4.5730 4.3867
vt 0.5978 -3.9421 4.3480
vt 0.6014 -4.6563 4.3522
vt 5.2261 4.3883 7.8385
vt 5.2259 4.4893 7.8419
vt 4.6666 4.4879 7.8399
vt 4.6669 4.3870 7.8366
vt 7.8366 4.3870 -3.6669
vt 7.8399 4.4879 -3.6666
vt 6.4120 4.5352 -3.6666
vt 6.4086 4.4343 -3.6669
vt -3.6669 4.4343 6.4086
vt -3.6666 4.5352 6.4120
vt -4.3049 4.5370 6.4091
vt -4.3051 4.4361 6.4057
vt 5.9104 4.1423 -3.2266
vt 5.9094 4.2432 -3.2296
vt 4.9421 4.2348 -3.2362
vt 4.9431 4.1339 -3.2332
vt -3.2332 4.1339 -3.9431
vt -3.2362 4.2348 -3.9421
vt -4.6385 4.1929 -3.9421
vt -4.6355 4.0920 -3.9431
vt -3.9431 4.0920 -4.6355
vt -3.9421 4.1929 -4.6385
vt -5.0036 4.2043 -4.6302
vt -5.0046 4.1033 -4.6272
vt 5.7468 4.2129 -0.7297
vt 5.7461 4.3138 -0.7326
vt 4.9421 4.3088 -0.7374
vt 4.9429 4.2078 -0.7345
vt -0.7345 4.2078 -3.9429
vt -0.7374 4.3088 -3.9421
vt -1.8894 4.2745 -3.9421
vt -1.8865 4.1736 -3.9429
vt -3.9429 4.1736 -1.8865
vt -3.9421 4.2745 -1.8894
vt -4.8236 4.2818 -1.8841
vt -4.8243 4.1808 -1.8812
vt 5.5734 4.2861 1.8438
vt 5.5730 4.3867 1.8409
vt 4.9421 4.3846 1.8377
vt 4.9426 4.2832 1.8406
vt 1.8406 4.2832 -3.9426
vt 1.8377 4.3846 -3.9421
vt 0.5978 4.3480 -3.9421
vt 0.6007 4.2475 -3.9426
vt -3.9426 4.2475 0.6007
vt -3.9421 4.3480 0.5978
vt -4.6563 4.3522 0.6014
vt -4.6568 4.2508 0.6043
vt 3.6532 -2.8093 -8.1268
vt 3.6532 -1.4681 -8.1641
vt 3.3343 -0.8660 -8.1859
vt 6.0841 -2.8101 -8.1264
vt 6.3027 -0.8539 -8.1735
vt 6.2304 -1.4571 -8.1553
vt -8.0021 -1.4720 -2.6529
vt -8.1641 -1.4681 -2.6532
vt -8.1268 -2.8093 -2.6532
vt -7.9441 -2.8114 -2.6529
vt -7.9441 -2.6529 -2.8114
vt -8.1268 -2.6532 -2.8093
vt -8.1264 -5.0841 -2.8101
vt -7.9438 -5.0838 -2.8122
vt 8.9934 -5.2302 -1.4609
vt 9.1553 -5.2304 -1.4571
vt 9.1641 -2.6532 -1.4681
vt 9.0021 -2.6529 -1.4720
vt 8.3704 6.3027 -0.2675
vt 8.3704 4.7508 -0.2675
vt 8.9147 4.7508 -0.3055
vt 8.9147 6.3027 -0.3055
vt -5.3027 -0.3055 -7.9147
vt -3.7508 -0.3055 -7.9147
vt -3.7508 0.1933 -7.9495
vt -5.3027 0.1933 -7.9495
vt -7.9844 6.3027 0.6920
vt -7.9844 4.7508 0.6920
vt -7.4401 4.7508 0.7301
vt -7.4401 6.3027 0.7301
vt 6.3027 0.7301 -7.4401
vt 4.7508 0.7301 -7.4401
vt 4.7508 0.2313 -7.4053
vt 6.3027 0.2313 -7.4053
vt 4.7010 6.1109 -0.4784
vt 4.7010 4.9274 -0.4784
vt 5.1010 4.9274 -0.4714
vt 5.1010 6.1109 -0.4714
vt -5.1109 -0.4714 -4.1010
vt -3.9274 -0.4714 -4.1010
vt -3.9274 -0.0715 -4.0940
vt -5.1109 -0.0715 -4.0940
vt -4.0940 6.1109 -0.0715
vt -4.0940 4.9274 -0.0715
vt -3.6940 4.9274 -0.0785
vt -3.6940 6.1109 -0.0785
vt 6.1109 -0.0785 -3.6940
vt 4.9274 -0.0785 -3.6940
vt 4.9274 -0.4784 -3.7010
vt 6.1109 -0.4784 -3.7010
vt -3.7508 0.6920 -7.9844
vt -5.3027 0.6920 -7.9844
vt 4.7508 -0.2675 -7.3704
vt 6.3027 -0.2675 -7.3704
vt 8.7987 -0.1721 6.3027
vt 8.9147 -0.3055 6.3027
vt 8.9495 0.1933 6.3027
vt 8.8161 0.0773 6.3027
vt 8.4053 0.2313 6.3027
vt 8.5212 0.0979 6.3027
vt 8.3704 -0.2675 6.3027
vt 8.5038 -0.1515 6.3027
vt 8.8336 0.3267 6.3027
vt 8.9844 0.6920 6.3027
vt 8.8510 0.5761 6.3027
vt 8.4401 0.7301 6.3027
vt 8.5561 0.5967 6.3027
vt 8.5387 0.3473 6.3027
vt 4.9962 -0.3702 6.1109
vt 5.1010 -0.4714 6.1109
vt 5.0940 -0.0715 6.1109
vt 4.9928 -0.1763 6.1109
vt 4.6940 -0.0785 6.1109
vt 4.7988 -0.1796 6.1109
vt 4.7010 -0.4784 6.1109
vt 4.8022 -0.3736 6.1109
vt -3.4193 4.4085 4.1635
vt -3.3802 4.2134 4.1652
vt -1.7582 4.0113 4.2231
vt -1.8014 4.1970 4.2210
vt -4.0855 4.6835 4.1393
vt -3.8905 4.7226 4.1461
vt -1.5147 4.6579 4.2299
vt -4.3604 4.0169 4.1307
vt -4.3994 4.2119 4.1290
vt -3.6942 3.7419 4.1549
vt -1.2976 3.7244 4.2404
vt -3.8891 3.7028 4.1480
vt -1.1120 3.7677 4.2469
vt -0.8253 4.2286 4.2557
vt -0.8685 4.4143 4.2536
vt 0.7582 4.0392 4.3124
vt 0.7177 4.2253 4.3102
vt 1.2143 3.7462 4.3299
vt 1.6932 4.2431 4.3448
vt 1.4003 3.7867 4.3363
vt 1.1966 4.7223 4.3252
vt 1.6527 4.4292 4.3426
vt 1.0106 4.6817 4.3187
vt 4.5916 4.4537 4.3036
vt 4.6565 4.2744 4.3024
vt 4.1001 4.6840 4.3182
vt 3.6908 4.1274 4.3341
vt 3.9209 4.6191 4.3243
vt 4.2472 3.7178 4.3183
vt 3.7557 3.9482 4.3329
vt 4.4264 3.7827 4.3123
vt 6.2462 4.1066 -8.2077
vt 4.2521 4.0767 -8.2382
vt 0.5456 4.0210 -8.2949
# 985 texture coords

g Ryytli_26
usemtl Windows_Top_Right
s off
f 1/1/1 2/2/1 3/3/1 
f 3/3/2 4/4/2 1/1/2 
f 5/5/3 6/6/3 7/7/3 
f 7/7/4 8/8/4 5/5/4 
usemtl Wall_Cream
f 9/9/5 10/10/5 11/11/5 
f 11/11/6 12/12/6 9/9/6 
usemtl Roof_LightGrey_Tin
f 13/13/7 14/14/7 15/15/7 
f 15/15/8 16/16/8 13/13/8 
usemtl Windows_Bottom_Right
f 17/17/9 18/18/9 19/19/9 
f 19/19/9 20/20/9 17/17/9 
usemtl Roof_LightGrey_Tin
f 21/21/10 22/22/10 23/23/10 
f 23/23/11 24/24/11 21/21/11 
f 25/25/12 16/16/12 26/26/12 
f 26/26/13 27/27/13 25/25/13 
f 27/27/14 26/26/14 28/28/14 
f 28/28/15 29/29/15 27/27/15 
f 27/27/14 29/29/14 30/30/14 
f 27/27/16 30/30/16 31/31/16 
f 31/31/17 32/32/17 27/27/17 
f 32/32/18 31/31/18 22/22/18 
f 15/15/19 14/14/19 33/33/19 
f 33/33/20 34/34/20 15/15/20 
f 23/23/21 22/22/21 35/35/21 
f 22/22/22 31/31/22 36/36/22 
f 36/36/23 35/35/23 22/22/23 
f 37/37/24 30/30/24 29/29/24 
f 29/29/25 38/38/25 37/37/25 
f 16/16/26 15/15/26 34/34/26 
usemtl Wall_Cream
f 10/10/27 39/39/27 40/40/27 
f 40/40/28 11/11/28 10/10/28 
f 41/41/29 42/42/29 43/43/29 
f 43/43/30 44/44/30 41/41/30 
usemtl Roof_LightGrey_Tin
f 34/34/19 33/33/19 44/45/19 
f 44/45/31 43/46/31 34/34/31 
usemtl Wall_Cream
f 44/47/32 33/48/32 45/49/32 
f 45/49/32 41/50/32 44/47/32 
f 46/51/33 42/52/33 41/53/33 
f 41/53/34 45/54/34 46/51/34 
f 46/51/35 47/55/35 48/56/35 
f 48/56/36 42/52/36 46/51/36 
f 11/57/37 49/58/37 50/59/37 
f 50/59/38 12/60/38 11/57/38 
f 51/61/39 52/62/39 35/63/39 
f 35/63/40 53/64/40 51/61/40 
usemtl Roof_LightGrey_Tin
f 53/65/41 35/35/41 36/36/41 
f 36/36/42 9/66/42 53/65/42 
f 10/67/24 37/37/24 38/38/24 
f 38/38/25 39/68/25 10/67/25 
usemtl Windows_Top_Right
f 54/69/4 55/70/4 56/71/4 
f 56/71/43 57/72/43 54/69/43 
usemtl Wall_Cream
f 51/73/44 53/74/44 9/9/44 
f 9/9/6 12/12/6 51/73/6 
usemtl Windows_Bottom_Right
f 58/75/45 59/76/45 60/77/45 
f 60/77/45 61/78/45 58/75/45 
usemtl Roof_LightGrey_Tin
f 36/36/22 31/31/22 30/30/22 
f 30/30/46 37/37/46 36/36/46 
usemtl Wall_Cream
f 12/60/47 50/59/47 52/79/47 
f 52/79/48 51/80/48 12/60/48 
usemtl Roof_LightGrey_Tin
f 9/66/49 36/36/49 37/37/49 
f 37/37/50 10/67/50 9/66/50 
usemtl Windows_Bottom_Right
f 62/81/51 63/82/51 64/83/51 
f 64/83/52 65/84/52 62/81/52 
usemtl Windows_Top_Right
f 66/85/53 67/86/53 68/87/53 
f 68/87/54 69/88/54 66/85/54 
usemtl Roof_LightGrey_Tin
f 16/16/55 34/34/55 70/89/55 
f 70/89/55 26/26/55 16/16/55 
usemtl Wall_Cream
f 48/90/56 71/91/56 43/92/56 
f 43/92/57 42/93/57 48/90/57 
f 48/56/35 47/55/35 72/94/35 
f 72/94/58 73/95/58 48/56/58 
usemtl Roof_LightGrey_Tin
f 34/34/8 43/46/8 71/96/8 
f 71/96/24 70/89/24 34/34/24 
usemtl Windows_Bottom_Right
f 74/97/59 75/98/59 76/99/59 
f 76/99/60 77/100/60 74/97/60 
f 78/101/61 79/102/61 80/103/61 
f 80/103/62 81/104/62 78/101/62 
usemtl Roof_LightGrey_Tin
f 82/105/55 28/28/55 26/26/55 
f 26/26/55 70/89/55 82/105/55 
usemtl Wall_Cream
f 83/106/56 71/91/56 48/90/56 
f 48/90/63 73/107/63 83/106/63 
usemtl Roof_LightGrey_Tin
f 83/108/24 82/105/24 70/89/24 
f 70/89/24 71/96/24 83/108/24 
usemtl Windows_Top_Right
f 84/109/64 85/110/64 86/111/64 
f 86/111/65 87/112/65 84/109/65 
usemtl Wall_Cream
f 73/95/66 72/94/66 88/113/66 
f 88/113/67 40/114/67 73/95/67 
usemtl Windows_Bottom_Right
f 89/115/68 90/116/68 91/117/68 
f 91/117/69 92/118/69 89/115/69 
f 93/119/70 94/120/70 95/121/70 
f 95/121/71 96/122/71 93/119/71 
usemtl Roof_LightGrey_Tin
f 38/38/25 29/29/25 28/28/25 
f 28/28/55 82/105/55 38/38/55 
usemtl Wall_Cream
f 39/39/63 83/106/63 73/107/63 
f 73/107/27 40/40/27 39/39/27 
usemtl Roof_LightGrey_Tin
f 39/68/25 38/38/25 82/105/25 
f 82/105/24 83/108/24 39/68/24 
usemtl Windows_Top_Right
f 97/123/72 98/124/72 99/125/72 
f 99/125/73 100/126/73 97/123/73 
usemtl Wall_Cream
f 40/114/67 88/113/67 49/58/67 
f 49/58/74 11/57/74 40/114/74 
usemtl Windows_Bottom_Right
f 101/127/75 102/128/75 103/129/75 
f 103/129/76 104/130/76 101/127/76 
f 105/131/77 106/132/77 107/133/77 
f 107/133/78 108/134/78 105/131/78 
usemtl Doors
f 109/135/79 110/136/79 111/137/79 
f 111/137/80 112/138/80 109/135/80 
usemtl Dark_Grey
f 113/139/81 114/140/81 115/141/81 
f 115/141/81 116/142/81 113/139/81 
f 117/143/81 118/144/81 119/145/81 
f 119/145/81 120/146/81 117/143/81 
f 121/147/81 122/148/81 123/149/81 
f 123/149/81 124/150/81 121/147/81 
f 118/151/82 125/152/82 126/153/82 
f 126/153/82 119/154/82 118/151/82 
f 119/155/83 126/156/83 127/157/83 
f 127/157/83 120/158/83 119/155/83 
f 120/159/84 127/160/84 128/161/84 
f 128/161/84 117/162/84 120/159/84 
f 117/163/85 128/164/85 125/165/85 
f 125/165/85 118/166/85 117/163/85 
f 122/167/82 129/168/82 130/169/82 
f 130/169/82 123/170/82 122/167/82 
f 123/171/83 130/172/83 131/173/83 
f 131/173/83 124/174/83 123/171/83 
f 124/175/84 131/176/84 132/177/84 
f 132/177/84 121/178/84 124/175/84 
f 121/179/85 132/180/85 129/181/85 
f 129/181/85 122/182/85 121/179/85 
f 114/183/86 133/184/86 134/185/86 
f 134/185/86 115/186/86 114/183/86 
f 115/187/87 134/188/87 135/189/87 
f 135/189/87 116/190/87 115/187/87 
f 116/191/88 135/192/88 136/193/88 
f 136/193/88 113/194/88 116/191/88 
f 113/195/89 136/196/89 133/197/89 
f 133/197/89 114/198/89 113/195/89 
usemtl Windows_Round
f 137/199/90 138/200/90 139/201/90 
f 138/200/91 140/202/91 139/201/91 
f 140/202/92 141/203/92 139/201/92 
f 141/203/90 142/204/90 139/201/90 
f 142/204/93 143/205/93 139/201/93 
f 143/205/94 144/206/94 139/201/94 
f 144/206/95 145/207/95 139/201/95 
f 145/207/92 146/208/92 139/201/92 
f 146/208/90 147/209/90 139/201/90 
f 147/209/92 148/210/92 139/201/92 
f 148/210/92 149/211/92 139/201/92 
f 149/211/90 150/212/90 139/201/90 
f 150/212/90 151/213/90 139/201/90 
f 151/213/90 152/214/90 139/201/90 
f 152/214/95 153/215/95 139/201/95 
f 153/215/96 137/199/96 139/201/96 
f 154/216/97 155/217/97 156/218/97 
f 155/217/97 157/219/97 156/218/97 
f 157/219/97 158/220/97 156/218/97 
f 158/220/98 159/221/98 156/218/98 
f 159/221/97 160/222/97 156/218/97 
f 160/222/97 161/223/97 156/218/97 
f 161/223/98 162/224/98 156/218/98 
f 162/224/98 163/225/98 156/218/98 
f 163/225/97 164/226/97 156/218/97 
f 164/226/98 165/227/98 156/218/98 
f 165/227/98 166/228/98 156/218/98 
f 166/228/97 167/229/97 156/218/97 
f 167/229/97 168/230/97 156/218/97 
f 168/230/99 169/231/99 156/218/99 
f 169/231/100 170/232/100 156/218/100 
f 170/232/100 154/216/100 156/218/100 
f 171/233/101 172/234/101 173/201/101 
f 172/234/101 174/235/101 173/201/101 
f 174/235/102 175/236/102 173/201/102 
f 175/236/101 176/237/101 173/201/101 
f 176/237/103 177/238/103 173/201/103 
f 177/238/104 178/239/104 173/201/104 
f 178/239/105 179/240/105 173/201/105 
f 179/240/106 180/241/106 173/201/106 
f 180/241/101 181/242/101 173/201/101 
f 181/242/101 182/243/101 173/201/101 
f 182/243/102 183/244/102 173/201/102 
f 183/244/101 184/245/101 173/201/101 
f 184/245/103 185/246/103 173/201/103 
f 185/246/104 186/247/104 173/201/104 
f 186/247/105 187/248/105 173/201/105 
f 187/248/106 171/233/106 173/201/106 
f 188/249/107 189/250/107 190/251/107 
f 189/250/108 191/252/108 190/251/108 
f 191/252/107 192/253/107 190/251/107 
f 192/253/107 193/254/107 190/251/107 
f 193/254/107 194/255/107 190/251/107 
f 194/255/107 195/256/107 190/251/107 
f 195/256/107 196/257/107 190/251/107 
f 196/257/107 197/258/107 190/251/107 
f 197/258/107 198/259/107 190/251/107 
f 198/259/108 199/260/108 190/251/108 
f 199/260/107 200/261/107 190/251/107 
f 200/261/107 201/262/107 190/251/107 
f 201/262/107 202/263/107 190/251/107 
f 202/263/107 203/264/107 190/251/107 
f 203/264/107 204/265/107 190/251/107 
f 204/265/107 188/249/107 190/251/107 
usemtl Wall_White
f 205/266/109 206/267/109 207/268/109 
f 207/268/110 208/269/110 205/266/110 
f 208/269/111 207/268/111 209/270/111 
f 209/270/112 210/271/112 208/269/112 
f 211/272/113 210/271/113 209/270/113 
f 209/270/114 23/273/114 211/272/114 
f 23/273/115 209/270/115 24/274/115 
f 212/275/116 213/276/116 214/277/116 
f 214/277/117 215/278/117 212/275/117 
f 216/279/116 215/278/116 214/277/116 
f 25/280/118 217/281/118 218/282/118 
f 218/282/119 13/283/119 25/280/119 
f 13/283/120 218/282/120 213/284/120 
f 213/284/121 212/285/121 13/283/121 
f 14/286/121 13/283/121 212/285/121 
f 219/287/122 220/288/122 221/289/122 
f 221/289/123 222/290/123 219/287/123 
f 223/291/124 206/267/124 205/266/124 
f 205/266/125 224/292/125 223/291/125 
f 225/293/126 208/294/126 226/295/126 
f 226/295/126 227/296/126 225/293/126 
f 228/297/127 229/298/127 49/299/127 
f 49/299/128 88/300/128 228/297/128 
f 230/301/129 231/302/129 46/303/129 
f 46/303/130 45/304/130 230/301/130 
f 25/280/131 27/305/131 232/306/131 
f 232/306/132 217/281/132 25/280/132 
f 209/307/133 207/308/133 233/309/133 
f 233/309/134 24/310/134 209/307/134 
f 24/310/135 233/309/135 32/311/135 
f 32/311/136 21/312/136 24/310/136 
f 233/309/137 232/306/137 27/305/137 
f 27/305/138 32/311/138 233/309/138 
f 16/313/139 25/314/139 13/315/139 
f 21/316/140 32/317/140 22/318/140 
f 212/285/141 230/319/141 45/320/141 
f 45/320/141 14/286/141 212/285/141 
f 14/286/141 45/320/141 33/321/141 
f 215/322/33 231/323/33 230/324/33 
f 230/324/34 212/325/34 215/322/34 
f 215/322/142 234/326/142 235/327/142 
f 235/327/143 231/323/143 215/322/143 
f 229/328/144 236/329/144 237/330/144 
f 237/330/47 238/331/47 229/328/47 
f 23/273/145 35/332/145 52/333/145 
f 52/333/146 211/272/146 23/273/146 
f 211/272/146 52/333/146 239/334/146 
f 50/335/147 49/299/147 229/298/147 
f 229/298/148 238/336/148 50/335/148 
f 240/337/149 241/338/149 242/339/149 
f 242/339/150 243/340/150 240/337/150 
f 218/341/151 244/342/151 245/343/151 
f 213/276/152 218/341/152 245/343/152 
f 245/343/116 214/277/116 213/276/116 
f 220/344/153 246/345/153 247/346/153 
f 247/346/154 248/347/154 220/344/154 
f 220/288/155 219/287/155 249/348/155 
f 249/348/156 246/349/156 220/288/156 
f 205/266/157 208/269/157 225/350/157 
f 225/350/158 224/292/158 205/266/158 
f 240/337/159 250/351/159 251/352/159 
f 251/352/160 241/338/160 240/337/160 
f 227/296/126 226/295/126 222/353/126 
f 222/353/126 221/354/126 227/296/126 
f 210/355/161 211/356/161 237/357/161 
f 237/357/162 252/358/162 210/355/162 
f 238/331/163 237/330/163 211/359/163 
f 211/359/164 239/360/164 238/331/164 
f 50/335/148 238/336/148 239/361/148 
f 239/361/165 52/362/165 50/335/165 
f 235/363/166 47/364/166 46/365/166 
f 46/365/167 231/366/167 235/363/167 
f 235/327/142 234/326/142 253/367/142 
f 253/367/168 254/368/168 235/327/168 
f 254/369/169 72/370/169 47/364/169 
f 47/364/170 235/363/170 254/369/170 
f 254/368/66 253/367/66 255/371/66 
f 255/371/67 228/372/67 254/368/67 
f 228/297/171 88/300/171 72/370/171 
f 72/370/172 254/369/172 228/297/172 
f 228/372/173 255/371/173 236/329/173 
f 236/329/174 229/328/174 228/372/174 
f 236/373/93 256/374/93 257/375/93 
f 258/376/175 259/377/175 260/378/175 
f 252/358/176 261/379/176 262/380/176 
f 237/357/177 263/381/177 264/382/177 
f 265/383/178 266/384/178 267/385/178 
f 268/386/179 269/387/179 270/388/179 
f 253/389/180 271/390/180 272/391/180 
f 234/392/181 273/393/181 274/394/181 
f 268/386/182 275/395/182 276/396/182 
f 277/397/183 278/398/183 279/399/183 
f 255/400/184 253/389/184 280/401/184 
f 280/401/102 281/402/102 255/400/102 
f 255/400/185 281/402/185 282/403/185 
f 253/389/186 283/404/186 284/405/186 
f 277/397/187 285/406/187 286/407/187 
f 258/376/188 287/408/188 288/409/188 
f 236/373/189 289/410/189 290/411/189 
f 255/400/190 291/412/190 292/413/190 
f 137/414/191 257/415/191 256/416/191 
f 256/416/191 138/417/191 137/414/191 
f 138/417/192 256/416/192 293/418/192 
f 293/418/193 140/419/193 138/417/193 
f 140/419/194 293/418/194 294/420/194 
f 294/420/195 141/421/195 140/419/195 
f 141/421/196 294/420/196 260/422/196 
f 260/422/197 142/423/197 141/421/197 
f 142/424/198 260/425/198 259/426/198 
f 259/426/198 143/427/198 142/424/198 
f 143/427/199 259/426/199 295/428/199 
f 295/428/200 144/429/200 143/427/200 
f 144/429/201 295/428/201 296/430/201 
f 296/430/202 145/431/202 144/429/202 
f 145/431/203 296/430/203 262/432/203 
f 262/432/204 146/433/204 145/431/204 
f 146/434/205 262/435/205 261/436/205 
f 261/436/206 147/437/206 146/434/206 
f 147/437/207 261/436/207 297/438/207 
f 297/438/207 148/439/207 147/437/207 
f 148/439/208 297/438/208 298/440/208 
f 298/440/209 149/441/209 148/439/209 
f 149/441/210 298/440/210 264/442/210 
f 264/442/211 150/443/211 149/441/211 
f 150/444/212 264/445/212 263/446/212 
f 263/446/213 151/447/213 150/444/213 
f 151/447/214 263/446/214 299/448/214 
f 299/448/215 152/449/215 151/447/215 
f 152/449/216 299/448/216 300/450/216 
f 300/450/217 153/451/217 152/449/217 
f 153/451/218 300/450/218 257/452/218 
f 257/452/219 137/453/219 153/451/219 
f 154/454/220 267/455/220 266/456/220 
f 266/456/220 155/457/220 154/454/220 
f 155/457/221 266/456/221 301/458/221 
f 301/458/222 157/459/222 155/457/222 
f 157/459/223 301/458/223 302/460/223 
f 302/460/223 158/461/223 157/459/223 
f 158/461/224 302/460/224 270/462/224 
f 270/462/224 159/463/224 158/461/224 
f 159/464/225 270/465/225 269/466/225 
f 269/466/225 160/467/225 159/464/225 
f 160/467/226 269/466/226 303/468/226 
f 303/468/226 161/469/226 160/467/226 
f 161/469/227 303/468/227 304/470/227 
f 304/470/227 162/471/227 161/469/227 
f 162/471/228 304/470/228 272/472/228 
f 272/472/228 163/473/228 162/471/228 
f 163/474/229 272/475/229 271/476/229 
f 271/476/230 164/477/230 163/474/230 
f 164/477/231 271/476/231 305/478/231 
f 305/478/231 165/479/231 164/477/231 
f 165/479/232 305/478/232 306/480/232 
f 306/480/232 166/481/232 165/479/232 
f 166/481/233 306/480/233 274/482/233 
f 274/482/233 167/483/233 166/481/233 
f 167/484/234 274/485/234 273/486/234 
f 273/486/234 168/487/234 167/484/234 
f 168/487/235 273/486/235 307/488/235 
f 307/488/236 169/489/236 168/487/236 
f 169/489/237 307/488/237 308/490/237 
f 308/490/237 170/491/237 169/489/237 
f 170/491/238 308/490/238 267/492/238 
f 267/492/238 154/493/238 170/491/238 
f 171/494/239 276/495/239 275/496/239 
f 275/496/240 172/497/240 171/494/240 
f 172/497/241 275/496/241 309/498/241 
f 309/498/241 174/499/241 172/497/241 
f 174/499/242 309/498/242 310/500/242 
f 310/500/243 175/501/243 174/499/243 
f 175/501/244 310/500/244 279/502/244 
f 279/502/244 176/503/244 175/501/244 
f 176/504/245 279/505/245 278/506/245 
f 278/506/246 177/507/246 176/504/246 
f 177/507/247 278/506/247 311/508/247 
f 311/508/248 178/509/248 177/507/248 
f 178/509/249 311/508/249 312/510/249 
f 312/510/249 179/511/249 178/509/249 
f 179/511/250 312/510/250 282/512/250 
f 282/512/250 180/513/250 179/511/250 
f 180/514/251 282/515/251 281/516/251 
f 281/516/251 181/517/251 180/514/251 
f 181/517/252 281/516/252 280/518/252 
f 280/518/252 182/519/252 181/517/252 
f 182/519/253 280/518/253 313/520/253 
f 313/520/253 183/521/253 182/519/253 
f 183/521/254 313/520/254 284/522/254 
f 284/522/255 184/523/255 183/521/255 
f 184/524/256 284/525/256 283/526/256 
f 283/526/256 185/527/256 184/524/256 
f 185/527/257 283/526/257 314/528/257 
f 314/528/257 186/529/257 185/527/257 
f 186/529/258 314/528/258 315/530/258 
f 315/530/258 187/531/258 186/529/258 
f 187/531/259 315/530/259 276/532/259 
f 276/532/260 171/533/260 187/531/260 
f 188/534/261 286/535/261 285/536/261 
f 285/536/261 189/537/261 188/534/261 
f 189/537/262 285/536/262 316/538/262 
f 316/538/262 191/539/262 189/537/262 
f 191/539/263 316/538/263 317/540/263 
f 317/540/263 192/541/263 191/539/263 
f 192/541/264 317/540/264 288/542/264 
f 288/542/264 193/543/264 192/541/264 
f 193/544/265 288/545/265 287/546/265 
f 287/546/265 194/547/265 193/544/265 
f 194/547/266 287/546/266 318/548/266 
f 318/548/267 195/549/267 194/547/267 
f 195/549/268 318/548/268 319/550/268 
f 319/550/268 196/551/268 195/549/268 
f 196/551/269 319/550/269 290/552/269 
f 290/552/269 197/553/269 196/551/269 
f 197/554/270 290/555/270 289/556/270 
f 289/556/270 198/557/270 197/554/270 
f 198/557/271 289/556/271 320/558/271 
f 320/558/272 199/559/272 198/557/272 
f 199/559/273 320/558/273 321/560/273 
f 321/560/274 200/561/274 199/559/274 
f 200/561/275 321/560/275 292/562/275 
f 292/562/275 201/563/275 200/561/275 
f 201/564/276 292/565/276 291/566/276 
f 291/566/276 202/567/276 201/564/276 
f 202/567/277 291/566/277 322/568/277 
f 322/568/277 203/569/277 202/567/277 
f 203/569/278 322/568/278 323/570/278 
f 323/570/278 204/571/278 203/569/278 
f 204/571/279 323/570/279 286/572/279 
f 286/572/279 188/573/279 204/571/279 
f 243/340/280 324/574/280 325/575/280 
f 325/575/281 216/576/281 243/340/281 
f 242/339/282 326/577/282 324/574/282 
f 324/574/283 243/340/283 242/339/283 
f 265/383/284 327/578/284 326/577/284 
f 326/577/285 242/339/285 265/383/285 
f 265/383/286 215/579/286 325/575/286 
f 325/575/287 327/578/287 265/383/287 
f 258/376/288 222/580/288 328/581/288 
f 328/581/289 329/582/289 258/376/289 
f 226/583/290 330/584/290 328/581/290 
f 328/581/290 222/580/290 226/583/290 
f 252/358/291 331/585/291 330/584/291 
f 330/584/292 226/583/292 252/358/292 
f 252/358/293 258/376/293 329/582/293 
f 329/582/45 331/585/45 252/358/45 
f 226/583/290 208/586/290 332/587/290 
f 332/587/294 333/588/294 226/583/294 
f 210/355/43 334/589/43 332/587/43 
f 332/587/295 208/586/295 210/355/295 
f 252/358/296 335/590/296 334/589/296 
f 334/589/297 210/355/297 252/358/297 
f 252/358/298 226/583/298 333/588/298 
f 333/588/299 335/590/299 252/358/299 
f 242/339/300 336/591/300 337/592/300 
f 337/592/301 338/593/301 242/339/301 
f 268/386/302 339/594/302 337/592/302 
f 337/592/303 336/591/303 268/386/303 
f 265/383/304 340/595/304 339/594/304 
f 339/594/305 268/386/305 265/383/305 
f 265/383/306 242/339/306 338/593/306 
f 338/593/307 340/595/307 265/383/307 
f 336/591/308 341/596/308 342/597/308 
f 342/597/309 343/598/309 336/591/309 
f 277/397/310 344/599/310 342/597/310 
f 342/597/311 341/596/311 277/397/311 
f 268/386/312 345/600/312 344/599/312 
f 344/599/313 277/397/313 268/386/313 
f 268/386/314 336/591/314 343/598/314 
f 343/598/315 345/600/315 268/386/315 
f 222/580/316 346/601/316 347/602/316 
f 347/602/317 341/596/317 222/580/317 
f 258/376/318 348/603/318 346/601/318 
f 346/601/319 222/580/319 258/376/319 
f 258/376/320 277/397/320 349/604/320 
f 349/604/321 348/603/321 258/376/321 
f 277/397/322 341/596/322 347/602/322 
f 347/602/323 349/604/323 277/397/323 
f 2/605/324 325/606/324 324/607/324 
f 324/607/325 3/608/325 2/605/325 
f 3/609/326 324/610/326 326/611/326 
f 326/611/327 4/612/327 3/609/327 
f 4/613/328 326/614/328 327/615/328 
f 327/615/329 1/616/329 4/613/329 
f 1/617/330 327/618/330 325/619/330 
f 325/619/331 2/620/331 1/617/331 
f 6/621/332 329/622/332 328/623/332 
f 328/623/332 7/624/332 6/621/332 
f 7/625/333 328/626/333 330/627/333 
f 330/627/334 8/628/334 7/625/334 
f 8/629/335 330/630/335 331/631/335 
f 331/631/335 5/632/335 8/629/335 
f 5/633/336 331/634/336 329/635/336 
f 329/635/337 6/636/337 5/633/337 
f 55/637/338 333/638/338 332/639/338 
f 332/639/338 56/640/338 55/637/338 
f 56/641/339 332/642/339 334/643/339 
f 334/643/340 57/644/340 56/641/340 
f 57/645/341 334/646/341 335/647/341 
f 335/647/341 54/648/341 57/645/341 
f 54/649/342 335/650/342 333/651/342 
f 333/651/343 55/652/343 54/649/343 
f 67/653/344 338/654/344 337/655/344 
f 337/655/345 68/656/345 67/653/345 
f 68/657/346 337/658/346 339/659/346 
f 339/659/347 69/660/347 68/657/347 
f 69/661/348 339/662/348 340/663/348 
f 340/663/349 66/664/349 69/661/349 
f 66/665/350 340/666/350 338/667/350 
f 338/667/351 67/668/351 66/665/351 
f 85/669/352 343/670/352 342/671/352 
f 342/671/353 86/672/353 85/669/353 
f 86/673/354 342/674/354 344/675/354 
f 344/675/355 87/676/355 86/673/355 
f 87/677/356 344/678/356 345/679/356 
f 345/679/357 84/680/357 87/677/357 
f 84/681/358 345/682/358 343/683/358 
f 343/683/359 85/684/359 84/681/359 
f 98/685/360 347/686/360 346/687/360 
f 346/687/361 99/688/361 98/685/361 
f 99/689/362 346/690/362 348/691/362 
f 348/691/363 100/692/363 99/689/363 
f 100/693/364 348/694/364 349/695/364 
f 349/695/365 97/696/365 100/693/365 
f 97/697/366 349/698/366 347/699/366 
f 347/699/367 98/700/367 97/697/367 
f 220/344/9 350/701/9 351/702/9 
f 351/702/45 221/703/45 220/344/45 
f 220/344/9 248/347/9 352/704/9 
f 352/704/9 350/701/9 220/344/9 
f 248/347/368 227/705/368 353/706/368 
f 353/706/368 352/704/368 248/347/368 
f 221/703/9 351/702/9 353/706/9 
f 353/706/9 227/705/9 221/703/9 
f 248/347/45 224/707/45 354/708/45 
f 354/708/45 355/709/45 248/347/45 
f 224/707/9 225/710/9 356/711/9 
f 356/711/9 354/708/9 224/707/9 
f 227/705/45 357/712/45 356/711/45 
f 356/711/9 225/710/9 227/705/9 
f 248/347/45 355/709/45 357/712/45 
f 357/712/45 227/705/45 248/347/45 
f 241/338/369 358/713/369 359/714/369 
f 359/714/370 360/715/370 241/338/370 
f 358/713/371 336/591/371 361/716/371 
f 361/716/372 359/714/372 358/713/372 
f 242/339/373 362/717/373 361/716/373 
f 361/716/374 336/591/374 242/339/374 
f 241/338/375 360/715/375 362/717/375 
f 362/717/376 242/339/376 241/338/376 
f 358/713/377 363/718/377 364/719/377 
f 364/719/71 365/720/71 358/713/71 
f 363/718/378 341/596/378 366/721/378 
f 366/721/379 364/719/379 363/718/379 
f 336/591/380 367/722/380 366/721/380 
f 366/721/381 341/596/381 336/591/381 
f 358/713/382 365/720/382 367/722/382 
f 367/722/383 336/591/383 358/713/383 
f 363/718/384 219/723/384 368/724/384 
f 368/724/385 369/725/385 363/718/385 
f 219/723/386 222/580/386 370/726/386 
f 370/726/387 368/724/387 219/723/387 
f 341/596/388 371/727/388 370/726/388 
f 370/726/389 222/580/389 341/596/389 
f 363/718/390 369/725/390 371/727/390 
f 371/727/391 341/596/391 363/718/391 
f 18/728/392 351/729/392 350/730/392 
f 350/730/392 19/731/392 18/728/392 
f 19/732/393 350/733/393 352/734/393 
f 352/734/393 20/735/393 19/732/393 
f 20/736/394 352/737/394 353/738/394 
f 353/738/394 17/739/394 20/736/394 
f 17/740/395 353/741/395 351/742/395 
f 351/742/395 18/743/395 17/740/395 
f 59/744/393 355/745/393 354/746/393 
f 354/746/393 60/747/393 59/744/393 
f 60/748/396 354/749/396 356/750/396 
f 356/750/396 61/751/396 60/748/396 
f 61/752/395 356/753/395 357/754/395 
f 357/754/395 58/755/395 61/752/395 
f 58/756/397 357/757/397 355/758/397 
f 355/758/397 59/759/397 58/756/397 
f 75/760/398 360/761/398 359/762/398 
f 359/762/399 76/763/399 75/760/399 
f 76/764/400 359/765/400 361/766/400 
f 361/766/401 77/767/401 76/764/401 
f 77/768/402 361/769/402 362/770/402 
f 362/770/403 74/771/403 77/768/403 
f 74/772/404 362/773/404 360/774/404 
f 360/774/405 75/775/405 74/772/405 
f 90/776/406 365/777/406 364/778/406 
f 364/778/407 91/779/407 90/776/407 
f 91/780/408 364/781/408 366/782/408 
f 366/782/409 92/783/409 91/780/409 
f 92/784/410 366/785/410 367/786/410 
f 367/786/411 89/787/411 92/784/411 
f 89/788/412 367/789/412 365/790/412 
f 365/790/413 90/791/413 89/788/413 
f 102/792/414 369/793/414 368/794/414 
f 368/794/415 103/795/415 102/792/415 
f 103/796/416 368/797/416 370/798/416 
f 370/798/417 104/799/417 103/796/417 
f 104/800/418 370/801/418 371/802/418 
f 371/802/419 101/803/419 104/800/419 
f 101/804/420 371/805/420 369/806/420 
f 369/806/421 102/807/421 101/804/421 
f 223/808/422 224/707/422 372/809/422 
f 372/809/423 373/810/423 223/808/423 
f 248/347/424 374/811/424 372/809/424 
f 372/809/425 224/707/425 248/347/425 
f 247/346/426 375/812/426 374/811/426 
f 374/811/427 248/347/427 247/346/427 
f 376/813/428 358/713/428 377/814/428 
f 377/814/429 378/815/429 376/813/429 
f 241/338/430 379/816/430 377/814/430 
f 377/814/431 358/713/431 241/338/431 
f 251/352/432 380/817/432 379/816/432 
f 379/816/433 241/338/433 251/352/433 
f 381/818/434 363/718/434 382/819/434 
f 382/819/435 383/820/435 381/818/435 
f 358/713/436 384/821/436 382/819/436 
f 382/819/437 363/718/437 358/713/437 
f 376/813/438 385/822/438 384/821/438 
f 384/821/439 358/713/439 376/813/439 
f 249/823/440 219/723/440 386/824/440 
f 386/824/441 387/825/441 249/823/441 
f 363/718/442 388/826/442 386/824/442 
f 386/824/443 219/723/443 363/718/443 
f 381/818/444 389/827/444 388/826/444 
f 388/826/445 363/718/445 381/818/445 
f 62/828/446 373/829/446 372/830/446 
f 372/830/447 63/831/447 62/828/447 
f 63/832/448 372/833/448 374/834/448 
f 374/834/448 64/835/448 63/832/448 
f 64/836/449 374/837/449 375/838/449 
f 375/838/449 65/839/449 64/836/449 
f 78/840/450 378/841/450 377/842/450 
f 377/842/451 79/843/451 78/840/451 
f 79/844/452 377/845/452 379/846/452 
f 379/846/452 80/847/452 79/844/452 
f 80/848/453 379/849/453 380/850/453 
f 380/850/454 81/851/454 80/848/454 
f 93/852/455 383/853/455 382/854/455 
f 382/854/456 94/855/456 93/852/456 
f 94/856/457 382/857/457 384/858/457 
f 384/858/457 95/859/457 94/856/457 
f 95/860/458 384/861/458 385/862/458 
f 385/862/459 96/863/459 95/860/459 
f 105/864/460 387/865/460 386/866/460 
f 386/866/461 106/867/461 105/864/461 
f 106/868/462 386/869/462 388/870/462 
f 388/870/462 107/871/462 106/868/462 
f 107/872/463 388/873/463 389/874/463 
f 389/874/464 108/875/464 107/872/464 
f 245/343/465 390/876/465 391/877/465 
f 391/877/466 392/878/466 245/343/466 
f 244/342/467 393/879/467 390/876/467 
f 390/876/468 245/343/468 244/342/468 
f 394/880/469 392/878/469 391/877/469 
f 391/877/470 395/881/470 394/880/470 
f 109/882/471 391/883/471 390/884/471 
f 390/884/472 110/885/472 109/882/472 
f 110/886/473 390/887/473 393/888/473 
f 393/888/473 111/889/473 110/886/473 
f 112/890/474 395/891/474 391/892/474 
f 391/892/133 109/893/133 112/890/133 
f 215/579/475 265/383/475 234/392/475 
f 215/579/476 216/576/476 325/575/476 
f 396/894/477 397/895/477 398/896/477 
f 398/896/477 399/897/477 396/894/477 
f 399/898/478 398/899/478 400/900/478 
f 400/900/478 401/901/478 399/898/478 
f 402/902/479 403/903/479 404/904/479 
f 404/904/479 405/905/479 402/902/479 
f 405/906/480 404/907/480 406/908/480 
f 406/908/480 407/909/480 405/906/480 
f 408/910/87 409/911/87 410/912/87 
f 410/912/87 411/913/87 408/910/87 
f 411/914/481 410/915/481 412/916/481 
f 412/916/481 413/917/481 411/914/481 
f 413/918/482 412/919/482 414/920/482 
f 414/920/482 415/921/482 413/918/482 
f 415/922/86 414/923/86 409/924/86 
f 409/924/86 408/925/86 415/922/86 
f 401/901/478 400/900/478 403/926/478 
f 403/926/478 402/927/478 401/901/478 
f 407/909/480 406/908/480 397/928/480 
f 397/928/480 396/929/480 407/909/480 
f 125/930/81 399/931/81 401/932/81 
f 401/932/81 126/933/81 125/930/81 
f 126/933/81 401/932/81 407/934/81 
f 407/934/81 127/935/81 126/933/81 
f 127/935/81 407/934/81 396/936/81 
f 396/936/81 128/937/81 127/935/81 
f 128/937/81 396/936/81 399/931/81 
f 399/931/81 125/930/81 128/937/81 
f 129/938/81 401/932/81 402/939/81 
f 402/939/81 130/940/81 129/938/81 
f 130/940/81 402/939/81 405/941/81 
f 405/941/81 131/942/81 130/940/81 
f 131/942/81 405/941/81 407/934/81 
f 407/934/81 132/943/81 131/942/81 
f 132/943/81 407/934/81 401/932/81 
f 401/932/81 129/938/81 132/943/81 
f 133/944/81 411/945/81 413/946/81 
f 413/946/81 134/947/81 133/944/81 
f 134/947/81 413/946/81 415/948/81 
f 415/948/81 135/949/81 134/947/81 
f 135/949/81 415/948/81 408/950/81 
f 408/950/81 136/951/81 135/949/81 
f 136/951/81 408/950/81 411/945/81 
f 411/945/81 133/944/81 136/951/81 
f 253/389/483 304/952/483 303/953/483 
f 303/953/484 268/386/484 253/389/484 
f 268/386/485 303/953/485 269/387/485 
f 268/386/486 276/396/486 315/954/486 
f 268/386/487 315/954/487 314/955/487 
f 253/389/488 268/386/488 314/955/488 
f 314/955/489 283/404/489 253/389/489 
f 253/389/490 272/391/490 304/952/490 
f 234/392/491 306/956/491 305/957/491 
f 305/957/492 253/389/492 234/392/492 
f 253/389/180 305/957/180 271/390/180 
f 253/389/493 284/405/493 313/958/493 
f 253/389/494 313/958/494 280/401/494 
f 265/383/495 308/959/495 307/960/495 
f 307/960/496 234/392/496 265/383/496 
f 234/392/497 307/960/497 273/393/497 
f 234/392/498 274/394/498 306/956/498 
f 265/383/178 267/385/178 308/959/178 
f 268/386/499 270/388/499 302/961/499 
f 268/386/500 277/397/500 309/962/500 
f 309/962/501 275/395/501 268/386/501 
f 268/386/502 302/961/502 301/963/502 
f 301/963/503 265/383/503 268/386/503 
f 265/383/504 301/963/504 266/384/504 
f 277/397/505 279/399/505 310/964/505 
f 277/397/500 310/964/500 309/962/500 
f 277/397/506 255/400/506 311/965/506 
f 311/965/507 278/398/507 277/397/507 
f 255/400/508 282/403/508 312/966/508 
f 255/400/509 312/966/509 311/965/509 
f 277/397/510 286/407/510 323/967/510 
f 277/397/511 323/967/511 322/968/511 
f 277/397/313 258/376/313 316/969/313 
f 316/969/512 285/406/512 277/397/512 
f 258/376/513 236/373/513 318/970/513 
f 318/970/514 287/408/514 258/376/514 
f 258/376/515 288/409/515 317/971/515 
f 258/376/516 317/971/516 316/969/516 
f 236/373/517 255/400/517 320/972/517 
f 320/972/518 289/410/518 236/373/518 
f 236/373/519 290/411/519 319/973/519 
f 236/373/108 319/973/108 318/970/108 
f 255/400/520 277/397/520 322/968/520 
f 322/968/521 291/412/521 255/400/521 
f 255/400/522 292/413/522 321/974/522 
f 255/400/523 321/974/523 320/972/523 
f 237/357/524 264/382/524 298/975/524 
f 237/357/525 298/975/525 297/976/525 
f 237/357/526 236/373/526 299/977/526 
f 299/977/527 263/381/527 237/357/527 
f 258/376/528 293/978/528 256/374/528 
f 256/374/529 236/373/529 258/376/529 
f 236/373/93 257/375/93 300/979/93 
f 236/373/93 300/979/93 299/977/93 
f 252/358/530 295/980/530 259/377/530 
f 259/377/531 258/376/531 252/358/531 
f 258/376/532 260/378/532 294/981/532 
f 258/376/533 294/981/533 293/978/533 
f 252/358/534 237/357/534 297/976/534 
f 297/976/535 261/379/535 252/358/535 
f 252/358/536 262/380/536 296/982/536 
f 252/358/537 296/982/537 295/980/537 
s 1
f 394/880/538 250/983/539 240/984/540 
f 240/984/540 392/878/541 394/880/538 
f 243/985/542 216/279/543 214/277/544 
f 214/277/544 245/343/545 243/985/542 
s off
f 243/985/546 392/878/546 240/984/546 
f 243/985/547 245/343/547 392/878/547 
# 778 faces

