# 3ds Max Wavefront OBJ Exporter v0.97b - (c)2007 guruware
# File Created: 09.01.2012 13:47:25

mtllib Suur-Karja_21-origo.mtl

#
# object Suur_Karja_21
#

v  542404.0199 6588820.7938 30.5236
v  542404.0199 6588820.7938 29.6232
v  542403.6525 6588820.7938 29.6232
v  542403.6525 6588820.7938 30.5236
v  542403.4688 6588820.4756 29.6232
v  542403.4688 6588820.4756 30.5236
v  542403.6525 6588820.1574 29.6232
v  542403.6525 6588820.1574 30.5236
v  542404.0199 6588820.1574 29.6232
v  542404.0199 6588820.1574 30.5236
v  542404.2036 6588820.4756 29.6232
v  542404.2036 6588820.4756 30.5236
v  542403.9388 6588820.6532 30.9610
v  542403.7337 6588820.6532 30.9610
v  542403.8362 6588820.4756 30.9610
v  542403.6311 6588820.4756 30.9609
v  542403.7337 6588820.2979 30.9610
v  542403.9388 6588820.2979 30.9610
v  542404.0414 6588820.4756 30.9610
v  542411.8557 6588822.265 30.5509
v  542412.251 6588821.7461 30.5509
v  542413.1675 6588822.4441 30.5509
v  542412.7723 6588822.9631 30.5509
v  542413.1675 6588822.4441 28.4843
v  542412.251 6588821.7461 28.4843
v  542411.8557 6588822.265 28.4843
v  542412.7723 6588822.9631 28.4843
v  542407.7055 6588830.385 30.3920
v  542407.9984 6588830.0003 30.3920
v  542408.4941 6588830.3778 30.3920
v  542408.2011 6588830.7625 30.3920
v  542408.4941 6588830.3778 28.8968
v  542407.9984 6588830.0003 28.8968
v  542407.7055 6588830.385 28.8968
v  542408.2011 6588830.7625 28.8968
v  542402.5533 6588826.4744 30.2820
v  542402.8462 6588826.0898 30.2820
v  542403.3419 6588826.4673 30.2820
v  542403.0489 6588826.8519 30.2820
v  542403.3419 6588826.4673 28.8195
v  542402.8462 6588826.0898 28.8195
v  542402.5533 6588826.4744 28.8195
v  542403.0489 6588826.8519 28.8195
v  542397.9799 6588819.1697 30.3605
v  542398.4062 6588818.2172 30.3605
v  542399.4577 6588818.6878 30.3605
v  542399.0315 6588819.6402 30.3605
v  542399.4577 6588818.6878 27.8862
v  542398.4062 6588818.2172 27.8862
v  542397.9799 6588819.1697 27.8862
v  542399.0315 6588819.6402 27.8862
v  542400.2113 6588812.7448 28.6010
v  542400.2113 6588812.7448 28.8757
v  542396.0962 6588821.9905 28.8994
v  542396.0962 6588821.9905 28.5237
v  542412.5187 6588834.2975 28.5237
v  542412.5187 6588834.2975 28.8994
v  542418.494 6588825.5592 28.9766
v  542418.494 6588825.5592 28.6010
v  542410.9302 6588820.1783 28.6010
v  542410.9302 6588820.1783 28.9588
v  542400.4267 6588814.4736 28.6289
v  542400.2113 6588812.7448 28.6075
v  542397.2142 6588821.855 28.5237
v  542417.4308 6588825.856 28.6010
v  542412.2862 6588833.4518 28.5237
v  542410.787 6588820.4481 28.6042
v  542400.0276 6588812.6467 23.8259
v  542400.0167 6588812.5521 24.3367
v  542400.0175 6588813.0263 24.3367
v  542400.0182 6588812.9041 23.7701
v  542400.0276 6588812.6467 19.7864
v  542400.0167 6588812.5521 20.2972
v  542400.0175 6588813.0263 20.2972
v  542400.0182 6588812.9041 19.7306
v  542403.1314 6588814.5862 23.7599
v  542403.7592 6588816.4406 23.7599
v  542403.803 6588816.4318 23.8282
v  542403.1829 6588814.5426 23.8212
v  542401.9787 6588813.3849 23.7701
v  542402.014 6588813.3049 23.8189
v  542402.0291 6588813.2204 24.3367
v  542403.6567 6588816.326 24.3367
v  542403.1389 6588814.59 24.3367
v  542403.3008 6588814.5195 24.3367
v  542403.9548 6588816.5074 24.3367
v  542401.9619 6588813.3724 24.3367
v  542403.1314 6588814.5862 19.7204
v  542403.7592 6588816.4406 19.7204
v  542403.803 6588816.4318 19.7887
v  542403.1829 6588814.5426 19.7817
v  542401.9787 6588813.3849 19.7306
v  542402.014 6588813.3049 19.7794
v  542402.0291 6588813.2204 20.2972
v  542403.6567 6588816.326 20.2972
v  542403.1389 6588814.59 20.2972
v  542403.3008 6588814.5195 20.2972
v  542403.9548 6588816.5074 20.2972
v  542401.9619 6588813.3724 20.2972
v  542403.5819 6588816.1596 25.7433
v  542403.5819 6588816.1596 28.0921
v  542403.1214 6588814.7473 28.0937
v  542403.1214 6588814.7473 25.7465
v  542403.0378 6588814.5555 25.7471
v  542403.0378 6588814.5555 28.0940
v  542401.9587 6588813.4638 28.0958
v  542401.9587 6588813.4638 25.7507
v  542401.7679 6588813.378 25.7513
v  542401.7679 6588813.378 28.0961
v  542400.361 6588812.9012 28.0977
v  542400.361 6588812.9012 25.7544
v  542401.7679 6588813.378 21.6569
v  542401.7679 6588813.378 23.6766
v  542400.361 6588812.9012 23.6830
v  542400.361 6588812.9012 21.6648
v  542403.0378 6588814.5555 23.6682
v  542401.9587 6588813.4638 23.6755
v  542401.9587 6588813.4638 21.6555
v  542403.0378 6588814.5555 21.6464
v  542403.1214 6588814.7473 23.6671
v  542403.1214 6588814.7473 21.6450
v  542403.5819 6588816.1596 21.6371
v  542403.5819 6588816.1596 23.6608
v  542403.1214 6588814.7473 17.6200
v  542403.5819 6588816.1596 17.6074
v  542403.5819 6588816.1596 19.5941
v  542403.1214 6588814.7473 19.6052
v  542401.9587 6588813.4638 17.6369
v  542403.0378 6588814.5555 17.6223
v  542403.0378 6588814.5555 19.6072
v  542401.9587 6588813.4638 19.6199
v  542400.361 6588812.9012 17.6518
v  542401.7679 6588813.378 17.6392
v  542401.7679 6588813.378 19.6219
v  542400.361 6588812.9012 19.6330
v  542400.2113 6588812.7448 16.3686
v  542396.4129 6588821.9759 28.8012
v  542396.4129 6588821.9759 11.7302
v  542400.2113 6588812.7448 13.5654
v  542412.4113 6588833.9339 28.8014
v  542412.4113 6588833.9339 11.7304
v  542417.9304 6588825.6535 28.8759
v  542410.787 6588820.4481 21.5655
v  542417.9304 6588825.6535 11.7300
v  542400.2113 6588812.7448 17.6534
v  542400.2113 6588812.7448 19.6344
v  542400.2113 6588812.7448 20.1969
v  542400.2113 6588812.7448 21.6658
v  542400.2113 6588812.7448 23.6838
v  542400.2113 6588812.7448 24.2343
v  542400.2113 6588812.7448 25.7549
v  542400.2113 6588812.7448 28.0979
v  542410.787 6588820.4481 12.7994
v  542404.0631 6588816.4909 13.5654
v  542404.0631 6588816.4909 16.3150
v  542403.7365 6588816.3111 16.3150
v  542403.7365 6588816.3111 13.5654
v  542403.7365 6588816.3111 17.6058
v  542403.7365 6588816.3111 19.5927
v  542403.7365 6588816.3111 20.1611
v  542403.7365 6588816.3111 21.6361
v  542403.7365 6588816.3111 23.6600
v  542403.7365 6588816.3111 24.2164
v  542403.7365 6588816.3111 25.7429
v  542403.7365 6588816.3111 28.0919
v  542403.7365 6588816.3111 28.8757
v  542403.7365 6588816.3111 29.1671
v  542404.0631 6588816.4909 29.1737
v  542403.1089 6588814.4852 16.3336
v  542402.0298 6588813.3935 16.3500
v  542402.1071 6588814.6628 16.3398
v  542402.5135 6588815.0738 16.3336
v  542401.4343 6588813.9821 16.3500
v  542403.2164 6588814.7163 16.3310
v  542403.1569 6588814.5337 16.3329
v  542402.5614 6588815.1224 16.3329
v  542403.677 6588816.1286 16.3168
v  542401.3864 6588813.9336 16.3507
v  542401.9819 6588813.345 16.3507
v  542401.8 6588813.2833 16.3526
v  542400.3931 6588812.8065 16.3668
v  542403.2164 6588814.7163 28.8757
v  542403.677 6588816.1286 28.8757
v  542403.1089 6588814.4852 28.0940
v  542403.1089 6588814.4852 28.8757
v  542402.0298 6588813.3935 28.8757
v  542402.0298 6588813.3935 28.0958
v  542403.1089 6588814.4852 24.2226
v  542403.1089 6588814.4852 25.7471
v  542402.0298 6588813.3935 25.7507
v  542402.0298 6588813.3935 24.2281
v  542403.1089 6588814.4852 23.6682
v  542402.0298 6588813.3935 23.6755
v  542403.1089 6588814.4852 17.6223
v  542402.0298 6588813.3935 17.6369
v  542402.0298 6588813.3935 20.1845
v  542402.0298 6588813.3935 19.6199
v  542403.1089 6588814.4852 19.6072
v  542403.1089 6588814.4852 20.1735
v  542403.1089 6588814.4852 21.6464
v  542402.0298 6588813.3935 21.6555
v  542403.677 6588816.1286 17.6074
v  542403.2164 6588814.7163 17.6200
v  542403.2164 6588814.7163 20.1718
v  542403.2164 6588814.7163 19.6052
v  542403.677 6588816.1286 19.5941
v  542403.677 6588816.1286 20.1623
v  542403.677 6588816.1286 21.6371
v  542403.2164 6588814.7163 21.6450
v  542403.677 6588816.1286 28.0921
v  542403.2164 6588814.7163 28.0937
v  542403.677 6588816.1286 24.2170
v  542403.677 6588816.1286 25.7433
v  542403.2164 6588814.7163 25.7465
v  542403.2164 6588814.7163 24.2217
v  542403.677 6588816.1286 23.6608
v  542403.2164 6588814.7163 23.6671
v  542401.8 6588813.2833 28.0961
v  542401.8 6588813.2833 28.8757
v  542400.3931 6588812.8065 28.8757
v  542400.3931 6588812.8065 28.0977
v  542401.8 6588813.2833 24.2289
v  542401.8 6588813.2833 25.7513
v  542400.3931 6588812.8065 25.7544
v  542400.3931 6588812.8065 24.2337
v  542401.8 6588813.2833 23.6766
v  542400.3931 6588812.8065 23.6830
v  542401.8 6588813.2833 17.6392
v  542400.3931 6588812.8065 17.6518
v  542400.3931 6588812.8065 20.1956
v  542400.3931 6588812.8065 19.6330
v  542401.8 6588813.2833 19.6219
v  542401.8 6588813.2833 20.1862
v  542401.8 6588813.2833 21.6569
v  542400.3931 6588812.8065 21.6648
v  542401.9819 6588813.345 23.6758
v  542401.9819 6588813.345 21.6559
v  542403.1569 6588814.5337 21.6460
v  542403.1569 6588814.5337 23.6679
v  542401.9819 6588813.345 28.8757
v  542401.9819 6588813.345 28.0959
v  542403.1569 6588814.5337 28.0939
v  542403.1569 6588814.5337 28.8757
v  542401.9819 6588813.345 25.7509
v  542403.1569 6588814.5337 25.7469
v  542401.9819 6588813.345 24.2283
v  542403.1569 6588814.5337 24.2224
v  542403.1569 6588814.5337 17.6217
v  542401.9819 6588813.345 17.6376
v  542403.1569 6588814.5337 19.6066
v  542401.9819 6588813.345 19.6205
v  542403.1569 6588814.5337 20.1730
v  542401.9819 6588813.345 20.1849
v  542401.9614 6588820.0645 30.0606
v  542411.926 6588827.1676 30.1499
v  542410.3445 6588821.2796 29.2356
v  542402.103 6588814.6586 13.5654
v  542400.2113 6588812.7448 13.3480
v  542402.103 6588814.6585 13.3480
v  542403.7365 6588816.3111 13.3480
v  542404.0631 6588816.4909 13.3480
# 261 vertices

vn 0.0000 0.9879 0.1549
vn 0.0000 1.0000 0.0000
vn -0.8556 0.4940 0.1548
vn -0.8660 0.5000 0.0000
vn -0.8556 -0.4940 0.1548
vn -0.8660 -0.5000 0.0000
vn 0.0000 -0.9879 0.1548
vn 0.0000 -1.0000 0.0000
vn 0.8556 -0.4940 0.1548
vn 0.8660 -0.5000 0.0000
vn 0.8556 0.4940 0.1548
vn 0.8660 0.5000 0.0000
vn 0.0000 0.0000 1.0000
vn 0.0000 0.9520 0.3060
vn -0.8245 0.4760 0.3059
vn -0.8245 -0.4760 0.3059
vn 0.0000 -0.9521 0.3059
vn 0.8245 -0.4760 0.3059
vn 0.8245 0.4760 0.3059
vn 0.6059 -0.7955 0.0000
vn -0.7955 -0.6059 0.0000
vn 0.7955 0.6059 0.0000
vn -0.6059 0.7955 0.0000
vn 0.4085 -0.9128 0.0000
vn -0.9128 -0.4085 0.0000
vn 0.9128 0.4085 0.0000
vn -0.4085 0.9128 0.0000
vn -0.9192 -0.3938 0.0000
vn -0.9136 -0.4066 0.0000
vn 0.8249 0.5653 0.0000
vn 0.8255 0.5645 0.0000
vn -0.5995 0.8004 0.0000
vn -0.5997 0.8002 0.0000
vn 0.5797 -0.8148 0.0000
vn 0.5795 -0.8149 0.0000
vn 0.0230 -0.0012 -0.9997
vn 0.0022 -0.0032 -1.0000
vn 0.0012 -0.0038 -1.0000
vn -0.0017 0.0020 -1.0000
vn -0.9999 -0.0126 -0.0105
vn -0.9794 0.2018 -0.0095
vn 0.7319 -0.2428 -0.6366
vn 0.4306 -0.4124 -0.8028
vn 0.3103 -0.9363 -0.1643
vn 0.9251 -0.3036 -0.2280
vn 0.7111 -0.6840 -0.1627
vn 0.0807 -0.2854 -0.9550
vn 0.9507 -0.3100 0.0000
vn 0.7112 -0.7030 0.0000
vn 0.3210 -0.9471 0.0000
vn -0.9248 -0.3805 0.0000
vn -0.5987 0.8010 0.0000
vn 0.5889 -0.8082 0.0000
vn 0.8321 0.5546 0.0000
vn 0.4822 -0.8761 0.0000
vn -0.0075 -0.0076 -0.9999
vn 0.7113 -0.7029 0.0000
vn 0.3211 -0.9471 0.0000
vn -0.0033 -0.0034 -1.0000
vn 0.7031 0.7111 0.0000
vn 0.0042 0.0042 1.0000
vn -0.7030 -0.7112 0.0000
vn 0.0016 0.0050 1.0000
vn -0.3101 -0.9507 0.0000
vn -0.0013 -0.0040 -1.0000
vn 0.3101 0.9507 0.0000
vn -0.0040 -0.0014 -1.0000
vn 0.9471 0.3211 0.0000
vn 0.0050 0.0017 1.0000
vn -0.9471 -0.3211 0.0000
vn -0.0008 -0.0008 -1.0000
vn 0.0017 0.0017 1.0000
vn 0.0067 0.0068 1.0000
vn -0.0058 -0.0059 -1.0000
vn 0.0026 0.0081 1.0000
vn -0.0023 -0.0071 -1.0000
vn -0.0003 -0.0010 -1.0000
vn 0.0007 0.0020 1.0000
vn -0.0010 -0.0003 -1.0000
vn 0.0020 0.0007 1.0000
vn 0.0080 0.0027 1.0000
vn -0.0070 -0.0024 -1.0000
vn -0.2256 -0.1029 0.9688
vn -0.0864 -0.0128 0.9962
vn -0.1797 0.0487 0.9825
vn 0.0551 0.0413 0.9976
vn 0.1682 -0.0293 0.9853
vn 0.0196 0.1701 0.9852
vn 0.2337 -0.2310 0.9445
vn 0.0413 -0.1218 0.9917
vn 0.1220 -0.1791 0.9762
vn 0.1248 -0.1817 0.9754
vn 0.1277 -0.1843 0.9745
vn 0.1046 -0.1832 0.9775
vn 0.0858 -0.1922 0.9776
vn 0.7112 -0.7030 0.0001
vn 0.4822 -0.8761 0.0002
vn -0.9248 -0.3805 0.0002
# 98 vertex normals

vt 1.1789 0.7925 -0.0837
vt 1.1789 0.5613 -0.0837
vt 1.2438 0.5613 -0.0350
vt 1.2438 0.7925 -0.0350
vt 1.3110 0.5613 -0.0786
vt 1.3110 0.7925 -0.0786
vt 1.0786 0.7925 -0.3110
vt 1.0786 0.5613 -0.3110
vt 1.1710 0.5613 -0.3135
vt 1.1710 0.7925 -0.3135
vt -0.3135 0.7925 -0.1710
vt -0.3135 0.5613 -0.1710
vt -0.2486 0.5613 -0.2197
vt -0.2486 0.7925 -0.2197
vt -0.1814 0.5613 -0.1760
vt -0.1814 0.7925 -0.1760
vt -0.1760 0.7925 -0.1814
vt -0.1760 0.5613 -0.1814
vt -0.0837 0.5613 -0.1789
vt -0.0837 0.7925 -0.1789
vt -0.2087 -0.1030 0.9047
vt -0.2449 -0.0758 0.9047
vt -0.2462 -0.1273 0.9047
vt -0.2824 -0.1001 0.9047
vt -0.2838 -0.1517 0.9047
vt -0.2476 -0.1789 0.9047
vt -0.2100 -0.1545 0.9047
vt 1.2087 0.9047 -0.1030
vt 1.2449 0.9047 -0.0758
vt 1.2824 0.9047 -0.1001
vt 1.1001 0.9047 -0.2824
vt 1.1517 0.9047 -0.2838
vt -0.2838 0.9047 -0.1517
vt -0.2476 0.9047 -0.1789
vt -0.2100 0.9047 -0.1545
vt -0.1545 0.9047 -0.2100
vt -0.1030 0.9047 -0.2087
vt 0.0044 0.8902 0.5000
vt 0.0024 0.0434 0.5000
vt 0.9720 0.0380 0.5000
vt 0.9740 0.8848 0.5000
vt 1.6162 0.2689 -0.9438
vt 1.6162 0.7995 -0.9438
vt 1.3780 0.7995 -0.9714
vt 1.3780 0.2689 -0.9714
vt 1.9714 0.2689 1.3780
vt 1.9714 0.7995 1.3780
vt 1.8081 0.7995 1.3650
vt 1.8081 0.2689 1.3650
vt -0.7805 0.2689 1.6032
vt -0.7805 0.7995 1.6032
vt -0.9438 0.7995 1.6162
vt -0.9438 0.2689 1.6162
vt -0.3650 0.2689 -0.8081
vt -0.3650 0.7995 -0.8081
vt -0.6032 0.7995 -0.7805
vt -0.6032 0.2689 -0.7805
vt 0.0581 0.9339 0.5000
vt 0.0593 0.0602 0.5000
vt 0.3712 0.0659 0.5000
vt 0.3700 0.9395 0.5000
vt 1.6601 0.3748 1.3709
vt 1.6601 0.7587 1.3709
vt 1.5313 0.7587 1.3559
vt 1.5313 0.3748 1.3559
vt -0.3559 0.3748 1.5313
vt -0.3559 0.7587 1.5313
vt -0.4769 0.7587 1.5217
vt -0.4769 0.3748 1.5217
vt 1.4919 0.3748 1.6506
vt 1.4919 0.7587 1.6506
vt 1.3709 0.7587 1.6601
vt 1.3709 0.3748 1.6601
vt -0.5217 0.3748 1.4769
vt -0.5217 0.7587 1.4769
vt -0.6506 0.7587 1.4919
vt -0.6506 0.3748 1.4919
vt 0.0586 0.9340 0.5000
vt 0.0598 0.0603 0.5000
vt 0.3716 0.0660 0.5000
vt 0.3704 0.9397 0.5000
vt 0.3226 0.3550 1.2183
vt 0.3226 0.7305 1.2183
vt 0.1938 0.7305 1.2034
vt 0.1938 0.3550 1.2034
vt -0.2034 0.3550 0.1938
vt -0.2034 0.7305 0.1938
vt -0.3244 0.7305 0.1843
vt -0.3244 0.3550 0.1843
vt 1.3394 0.3550 0.3131
vt 1.3394 0.7305 0.3131
vt 1.2183 0.7305 0.3226
vt 1.2183 0.3550 0.3226
vt 0.8157 0.3550 1.3244
vt 0.8157 0.7305 1.3244
vt 0.6869 0.7305 1.3394
vt 0.6869 0.3550 1.3394
vt 0.3235 0.9056 0.5000
vt 0.3299 0.0538 0.5000
vt 0.9396 0.0647 0.5000
vt 0.9331 0.9166 0.5000
vt -1.2147 0.1154 0.0711
vt -1.2147 0.7506 0.0711
vt -1.4518 0.7506 0.1100
vt -1.4518 0.1154 0.1100
vt 0.8900 0.1154 -1.4518
vt 0.8900 0.7506 -1.4518
vt 0.6300 0.7506 -1.4227
vt 0.6300 0.1154 -1.4227
vt 0.3311 0.1154 -1.1856
vt 0.3311 0.7506 -1.1856
vt 0.0711 0.7506 -1.2147
vt 0.0711 0.1154 -1.2147
vt 2.4227 0.1154 0.3700
vt 2.4227 0.7506 0.3700
vt 2.1856 0.7506 0.3311
vt 2.1856 0.1154 0.3311
vt 0.8259 0.4875 -0.4014
vt 0.8259 0.5165 -0.4014
vt 0.0645 0.5125 -0.2247
vt 0.0645 0.4810 -0.2247
vt 0.9517 0.4810 1.3109
vt 0.9517 0.5125 1.3109
vt 0.1474 0.5190 1.2856
vt 0.1474 0.4875 1.2856
vt 1.2247 0.4810 0.9355
vt 1.2247 0.5125 0.9355
vt -0.3109 0.5125 0.9517
vt -0.3109 0.4810 0.9517
vt 0.5894 0.4875 0.1572
vt 1.2856 0.4875 0.1474
vt 1.2856 0.5190 0.1474
vt 0.5894 0.5175 0.1572
vt 1.4014 0.1741 0.4875
vt 1.2247 0.9355 0.4810
vt 1.2950 0.2763 0.4898
vt 1.3765 0.1980 0.4880
vt 1.1634 0.8585 0.4810
vt -0.3109 0.9517 0.4810
vt -0.2856 0.1474 0.4875
vt -0.2239 0.2121 0.4875
vt -0.2491 0.8917 0.4810
vt 0.4106 0.1572 0.4875
vt 0.4058 0.2097 0.4881
vt 1.7132 0.1220 0.8840
vt 1.7201 0.9481 0.8831
vt 1.6167 0.9458 0.9295
vt 1.6491 0.0304 0.9152
vt 1.0395 -0.0076 0.5212
vt -0.0517 -0.0316 0.5163
vt -0.0544 0.0943 0.5130
vt 1.0458 0.1184 0.5187
vt 1.0192 0.0001 0.5741
vt -0.0321 -0.0229 0.5692
vt -0.0323 0.1030 0.5652
vt 1.0228 0.1261 0.5708
vt 1.0207 0.1710 0.5142
vt -0.0198 0.1482 0.5127
vt -0.0364 0.9545 0.4904
vt 1.0158 0.9407 0.5010
vt 1.0398 1.0333 2.4772
vt -0.0593 0.9046 2.4772
vt -0.1093 0.7976 2.4772
vt 1.1006 0.7778 2.4772
vt 1.0563 0.7712 2.4772
vt 1.0582 0.9416 2.4772
vt -0.0485 0.9361 2.4772
vt -0.0711 0.7816 2.4772
vt 0.0021 1.2103 0.5000
vt 0.0045 0.8126 0.5000
vt 1.0296 0.8369 0.5000
vt 1.0033 0.9872 0.5000
vt -0.0720 0.9006 0.4918
vt 1.0858 0.9260 0.5021
vt -0.0332 0.9096 0.5400
vt 1.0455 0.9333 0.5500
vt 1.0154 0.0450 0.5163
vt -0.0172 0.0224 0.5162
vt 0.9995 0.0005 0.0007
vt 0.9995 0.9988 0.0007
vt 0.0005 0.9995 0.9996
vt 0.0005 0.0018 0.9996
vt 0.9995 0.0005 0.0005
vt 0.9995 0.9987 0.0005
vt 0.0005 0.9995 0.9990
vt 0.0005 0.0021 0.9990
vt 0.0005 0.0005 0.0005
vt 0.0005 0.9988 0.0005
vt 0.9995 0.9995 0.9993
vt 0.9995 0.0018 0.9993
vt 0.0005 0.9964 0.0005
vt 0.9995 0.0044 0.9993
vt 0.9995 0.9959 0.0000
vt 0.0005 0.0050 0.9990
vt 0.9995 0.0005 0.0000
vt 0.0005 0.0044 0.9996
vt 0.9995 0.0005 0.0006
vt 0.9995 0.9964 0.0006
vt 0.0005 0.0068 0.9996
vt 0.9995 0.9940 0.0007
vt 0.0005 0.0078 0.9990
vt 0.9995 0.9931 0.0000
vt 0.9995 0.0068 0.9993
vt 0.0005 0.9940 0.0005
vt 5.7973 -1.5416 -2.9802
vt 1.1817 4.6747 -4.8794
vt 1.1817 -3.8608 -4.8794
vt 5.7973 -2.9432 -2.9802
vt 5.8794 -3.8608 -0.1817
vt 5.8794 4.6747 -0.1817
vt -2.1198 4.6748 5.7973
vt -2.1198 -3.8607 5.7973
vt 5.8794 4.7120 1.6571
vt 2.3077 4.5762 -0.9456
vt 2.3077 1.0568 -0.9456
vt 5.7973 -3.8607 3.1198
vt 5.7973 4.6748 3.1198
vt 1.6571 4.7120 5.8794
vt 1.6571 -3.8609 5.8794
vt 5.7973 -0.8992 -2.9802
vt 5.7973 0.0913 -2.9802
vt 5.7973 0.3725 -2.9802
vt 5.7973 1.1070 -2.9802
vt 5.7973 2.1160 -2.9802
vt 5.7973 2.3912 -2.9802
vt 5.7973 3.1515 -2.9802
vt 5.7973 4.3230 -2.9802
vt 5.7973 4.7119 -2.9802
vt 5.8794 -3.8609 1.6571
vt 2.3077 -3.3262 -0.9456
vt -1.0543 -2.9432 -2.9242
vt -1.0543 -1.5684 -2.9242
vt -1.2176 -1.5684 -3.0141
vt -1.2176 -2.9432 -3.0141
vt -1.2176 -0.9230 -3.0141
vt -1.2176 0.0704 -3.0141
vt -1.2176 0.3546 -3.0141
vt -1.2176 1.0921 -3.0141
vt -1.2176 2.1040 -3.0141
vt -1.2176 2.3823 -3.0141
vt -1.2176 3.1455 -3.0141
vt -1.2176 4.3200 -3.0141
vt -1.2176 4.7119 -3.0141
vt -1.2176 4.8576 -3.0141
vt -1.0543 4.8609 -2.9242
vt 2.5314 -3.9271 -1.5591
vt 3.0709 -4.4729 -1.5509
vt 3.0323 -3.8383 -1.5560
vt 2.8291 -3.6328 -1.5591
vt 3.3687 -4.1786 -1.5509
vt 2.4776 -3.8115 -1.5604
vt 2.5074 -3.9028 -1.5595
vt 2.8051 -3.6085 -1.5595
vt 2.2473 -3.1054 -1.5675
vt 2.2176 -3.0141 -1.5684
vt 3.3926 -4.2029 -1.5506
vt 3.0949 -4.4972 -1.5506
vt 3.1858 -4.5280 -1.5496
vt 3.8893 -4.7664 -1.5426
vt 3.9802 -4.7973 -1.5416
vt -3.8115 4.7119 -1.4776
vt -3.1054 4.7119 -1.2473
vt -3.0141 4.8576 -1.2176
vt -3.9271 4.3211 -1.5314
vt -3.9271 4.7119 -1.5314
vt -4.4729 4.7119 -2.0709
vt -4.4729 4.3220 -2.0709
vt -3.9271 2.3854 -1.5314
vt -3.9271 3.1476 -1.5314
vt -4.4729 3.1494 -2.0709
vt -4.4729 2.3881 -2.0709
vt -3.9271 2.1082 -1.5314
vt -4.4729 2.1118 -2.0709
vt -4.4729 -1.5509 -2.0709
vt -3.9271 -1.5591 -1.5314
vt -3.9271 -0.9148 -1.5314
vt -4.4729 -0.9075 -2.0709
vt -4.4729 0.3663 -2.0709
vt -4.4729 0.0840 -2.0709
vt -3.9271 0.0776 -1.5314
vt -3.9271 0.3608 -1.5314
vt -3.9271 1.0973 -1.5314
vt -4.4729 1.1018 -2.0709
vt -3.8115 -1.5604 -1.4776
vt -3.1054 -1.5675 -1.2473
vt -3.1054 -0.9222 -1.2473
vt -3.8115 -0.9159 -1.4776
vt -3.8115 0.3600 -1.4776
vt -3.8115 0.0766 -1.4776
vt -3.1054 0.0711 -1.2473
vt -3.1054 0.3552 -1.2473
vt -3.1054 1.0926 -1.2473
vt -3.8115 1.0966 -1.4776
vt -3.1054 4.3201 -1.2473
vt -3.8115 4.3209 -1.4776
vt -3.1054 2.3826 -1.2473
vt -3.1054 3.1457 -1.2473
vt -3.8115 3.1473 -1.4776
vt -3.8115 2.3849 -1.4776
vt -3.1054 2.1045 -1.2473
vt -3.8115 2.1076 -1.4776
vt -2.1858 4.3221 -4.5280
vt -2.1858 4.7119 -4.5280
vt -2.8893 4.7119 -4.7664
vt -2.8893 4.3229 -4.7664
vt -2.1858 2.3885 -4.5280
vt -2.1858 3.1497 -4.5280
vt -2.8893 3.1513 -4.7664
vt -2.8893 2.3909 -4.7664
vt -2.1858 2.1124 -4.5280
vt -2.8893 2.1155 -4.7664
vt -2.8893 -1.5426 -4.7664
vt -2.1858 -1.5496 -4.5280
vt -2.1858 -0.9063 -4.5280
vt -2.8893 -0.9000 -4.7664
vt -2.8893 0.3719 -4.7664
vt -2.8893 0.0905 -4.7664
vt -2.1858 0.0850 -4.5280
vt -2.1858 0.3672 -4.5280
vt -2.1858 1.1025 -4.5280
vt -2.8893 1.1065 -4.7664
vt -4.4972 2.1120 -2.0949
vt -4.4972 1.1020 -2.0949
vt -3.9028 1.0971 -1.5074
vt -3.9028 2.1080 -1.5074
vt -4.4972 4.7119 -2.0949
vt -4.4972 4.3220 -2.0949
vt -3.9028 4.3210 -1.5074
vt -3.9028 4.7119 -1.5074
vt -4.4972 3.1495 -2.0949
vt -3.9028 3.1475 -1.5074
vt -4.4972 2.3882 -2.0949
vt -3.9028 2.3852 -1.5074
vt -3.9028 -1.5595 -1.5074
vt -3.9028 -0.9151 -1.5074
vt -4.4972 -0.9072 -2.0949
vt -4.4972 -1.5506 -2.0949
vt -3.9028 0.0774 -1.5074
vt -4.4972 0.0843 -2.0949
vt -3.9028 0.3606 -1.5074
vt -4.4972 0.3665 -2.0949
vt -2.9802 2.1160 -4.7973
vt -2.9802 1.1070 -4.7973
vt -2.0949 1.1020 -4.4972
vt -2.0949 2.1120 -4.4972
vt -2.9802 4.7119 -4.7973
vt -2.9802 4.3230 -4.7973
vt -2.0949 4.3220 -4.4972
vt -2.0949 4.7119 -4.4972
vt -2.9802 3.1515 -4.7973
vt -2.0949 3.1495 -4.4972
vt -2.9802 2.3912 -4.7973
vt -2.0949 2.3882 -4.4972
vt -2.0949 -1.5506 -4.4972
vt -2.0949 -0.9072 -4.4972
vt -2.9802 -0.8992 -4.7973
vt -2.9802 -1.5416 -4.7973
vt -2.0949 0.0843 -4.4972
vt -2.9802 0.0913 -4.7973
vt -2.0949 0.3665 -4.4972
vt -2.9802 0.3725 -4.7973
vt -3.0141 1.0921 -1.2176
vt -3.0141 2.1040 -1.2176
vt -3.0141 4.7119 -1.2176
vt -3.0141 -1.5684 -1.2176
vt -3.0141 -0.9230 -1.2176
vt -3.0141 0.0704 -1.2176
vt -3.0141 0.3546 -1.2176
vt -3.0141 4.3200 -1.2176
vt -3.0141 3.1455 -1.2176
vt -3.0141 2.3823 -1.2176
vt 3.1065 -4.4378 2.1118
vt 2.5669 -3.8919 2.1082
vt 2.5314 -3.9271 2.1082
vt 3.0709 -4.4729 2.1118
vt 3.1065 1.1018 -4.4378
vt 3.1065 2.1118 -4.4378
vt 3.0709 2.1118 -4.4729
vt 3.0709 1.1018 -4.4729
vt -1.5669 -3.8919 1.0973
vt -2.1065 -4.4378 1.1018
vt -2.0709 -4.4729 1.1018
vt -1.5314 -3.9271 1.0973
vt -1.5669 2.1082 -3.8919
vt -1.5669 1.0973 -3.8919
vt -1.5314 1.0973 -3.9271
vt -1.5314 2.1082 -3.9271
vt -1.2949 -3.0899 1.0926
vt -1.5251 -3.7960 1.0966
vt -1.4776 -3.8115 1.0966
vt -1.2473 -3.1054 1.0926
vt -1.2949 2.1045 -3.0899
vt -1.2949 1.0926 -3.0899
vt -1.2473 1.0926 -3.1054
vt -1.2473 2.1045 -3.1054
vt 2.5251 -3.7960 2.1076
vt 2.2949 -3.0899 2.1045
vt 2.2473 -3.1054 2.1045
vt 2.4776 -3.8115 2.1076
vt 2.5251 1.0966 -3.7960
vt 2.5251 2.1076 -3.7960
vt 2.4776 2.1076 -3.8115
vt 2.4776 1.0966 -3.8115
vt 3.9053 -4.7191 2.1155
vt 3.2019 -4.4807 2.1124
vt 3.1858 -4.5280 2.1124
vt 3.8893 -4.7664 2.1155
vt -4.7191 1.1065 -2.9053
vt -4.7191 2.1155 -2.9053
vt -4.7664 2.1155 -2.8893
vt -4.7664 1.1065 -2.8893
vt -2.2019 -4.4807 1.1025
vt -2.9053 -4.7191 1.1065
vt -2.8893 -4.7664 1.1065
vt -2.1858 -4.5280 1.1025
vt 5.4807 2.1124 -2.2019
vt 5.4807 1.1025 -2.2019
vt 5.5280 1.1025 -2.1858
vt 5.5280 2.1124 -2.1858
vt 3.1065 -4.4378 4.3220
vt 2.5669 -3.8919 4.3211
vt 2.5314 -3.9271 4.3211
vt 3.0709 -4.4729 4.3220
vt 3.1065 3.1494 -4.4378
vt 3.1065 4.3220 -4.4378
vt 3.0709 4.3220 -4.4729
vt 3.0709 3.1494 -4.4729
vt -1.5669 -3.8919 3.1476
vt -2.1065 -4.4378 3.1494
vt -2.0709 -4.4729 3.1494
vt -1.5314 -3.9271 3.1476
vt -1.5669 4.3211 -3.8919
vt -1.5669 3.1476 -3.8919
vt -1.5314 3.1476 -3.9271
vt -1.5314 4.3211 -3.9271
vt -1.5669 -3.8919 -0.9148
vt -2.1065 -4.4378 -0.9075
vt -2.0709 -4.4729 -0.9075
vt -1.5314 -3.9271 -0.9148
vt -1.5669 0.0776 -3.8919
vt -1.5669 -0.9148 -3.8919
vt -1.5314 -0.9148 -3.9271
vt -1.5314 0.0776 -3.9271
vt 3.1065 -4.4378 0.0840
vt 2.5669 -3.8919 0.0776
vt 2.5314 -3.9271 0.0776
vt 3.0709 -4.4729 0.0840
vt 3.1065 -0.9075 -4.4378
vt 3.1065 0.0840 -4.4378
vt 3.0709 0.0840 -4.4729
vt 3.0709 -0.9075 -4.4729
vt -1.2949 -3.0899 -0.9222
vt -1.5251 -3.7960 -0.9159
vt -1.4776 -3.8115 -0.9159
vt -1.2473 -3.1054 -0.9222
vt -1.2949 0.0711 -3.0899
vt -1.2949 -0.9222 -3.0899
vt -1.2473 -0.9222 -3.1054
vt -1.2473 0.0711 -3.1054
vt 2.5251 -3.7960 0.0766
vt 2.2949 -3.0899 0.0711
vt 2.2473 -3.1054 0.0711
vt 2.4776 -3.8115 0.0766
vt 2.5251 -0.9159 -3.7960
vt 2.5251 0.0766 -3.7960
vt 2.4776 0.0766 -3.8115
vt 2.4776 -0.9159 -3.8115
vt 2.5251 -3.7960 4.3209
vt 2.2949 -3.0899 4.3201
vt 2.2473 -3.1054 4.3201
vt 2.4776 -3.8115 4.3209
vt 2.5251 3.1473 -3.7960
vt 2.5251 4.3209 -3.7960
vt 2.4776 4.3209 -3.8115
vt 2.4776 3.1473 -3.8115
vt -1.2949 -3.0899 3.1457
vt -1.5251 -3.7960 3.1473
vt -1.4776 -3.8115 3.1473
vt -1.2473 -3.1054 3.1457
vt -1.2949 4.3201 -3.0899
vt -1.2949 3.1457 -3.0899
vt -1.2473 3.1457 -3.1054
vt -1.2473 4.3201 -3.1054
vt 3.9053 -4.7191 4.3229
vt 3.2019 -4.4807 4.3221
vt 3.1858 -4.5280 4.3221
vt 3.8893 -4.7664 4.3229
vt -4.7191 3.1513 -2.9053
vt -4.7191 4.3229 -2.9053
vt -4.7664 4.3229 -2.8893
vt -4.7664 3.1513 -2.8893
vt -2.2019 -4.4807 3.1497
vt -2.9053 -4.7191 3.1513
vt -2.8893 -4.7664 3.1513
vt -2.1858 -4.5280 3.1497
vt 5.4807 4.3221 -2.2019
vt 5.4807 3.1497 -2.2019
vt 5.5280 3.1497 -2.1858
vt 5.5280 4.3221 -2.1858
vt -2.2019 -4.4807 -0.9063
vt -2.9053 -4.7191 -0.9000
vt -2.8893 -4.7664 -0.9000
vt -2.1858 -4.5280 -0.9063
vt 5.4807 0.0850 -2.2019
vt 5.4807 -0.9063 -2.2019
vt 5.5280 -0.9063 -2.1858
vt 5.5280 0.0850 -2.1858
vt 3.9053 -4.7191 0.0905
vt 3.2019 -4.4807 0.0850
vt 3.1858 -4.5280 0.0850
vt 3.8893 -4.7664 0.0905
vt -4.7191 -0.9000 -2.9053
vt -4.7191 0.0905 -2.9053
vt -4.7664 0.0905 -2.8893
vt -4.7664 -0.9000 -2.8893
vt 1.4414 -5.5032 0.0005
vt 0.4484 -2.6753 0.9295
vt -0.5435 -4.5134 0.0191
vt 0.4395 3.4432 0.9995
vt 1.4607 5.6599 0.0796
vt -0.6563 5.7439 0.0191
vt -0.7619 -1.5511 0.2289
vt -1.3910 -2.2552 0.0005
vt -1.0618 -2.1092 0.0005
vt -1.7494 -1.9889 0.0005
vt -0.6183 0.4936 0.9295
vt -0.6878 -1.5720 0.2342
vt 0.8909 -1.4309 0.2826
vt 1.8292 0.5159 0.9995
vt 0.8593 -2.0496 0.0657
vt 2.7158 -2.0371 0.0796
vt 2.7494 3.2552 0.0191
vt -1.3535 2.9733 0.0191
vt 0.6279 1.0021 0.4948
vt 0.0201 1.0041 0.4845
vt 0.0249 -0.0098 0.4845
vt 0.6528 1.0020 0.4953
vt 1.0059 -0.0067 0.5012
vt 1.0008 1.0009 0.5012
vt 0.9995 -0.0061 0.3208
vt 0.9995 0.9841 0.7676
vt 0.2809 0.9905 0.6997
vt 0.0005 -0.0061 0.2231
vt 0.2515 0.9908 0.6973
vt 0.0030 0.9930 0.6738
# 545 texture coords

g Suur_Karja_21
usemtl Suur_Karja_21_Tex6
s 1
f 1/1/1 2/2/2 3/3/2 4/4/1 
s 2
f 4/4/3 3/3/4 5/5/4 6/6/3 
s 3
f 6/7/5 5/8/6 7/9/6 8/10/5 
s 4
f 8/11/7 7/12/8 9/13/8 10/14/7 
s 5
f 10/14/9 9/13/10 11/15/10 12/16/9 
s 6
f 12/17/11 11/18/12 2/19/12 1/20/11 
s 7
f 13/21/13 14/22/13 15/23/13 
f 15/23/13 14/22/13 16/24/13 17/25/13 
f 17/25/13 18/26/13 15/23/13 
f 15/23/13 18/26/13 19/27/13 13/21/13 
s 1
f 13/28/14 1/1/1 4/4/1 14/29/14 
s 2
f 14/29/15 4/4/3 6/6/3 16/30/15 
s 3
f 16/31/16 6/7/5 8/10/5 17/32/16 
s 4
f 17/33/17 8/11/7 10/14/7 18/34/17 
s 5
f 18/34/18 10/14/9 12/16/9 19/35/18 
s 6
f 19/36/19 12/17/11 1/20/11 13/37/19 
usemtl Suur_Karja_21_Tex8
s off
f 20/38/13 21/39/13 22/40/13 23/41/13 
usemtl Suur_Karja_21_Tex6
f 24/42/20 22/43/20 21/44/20 25/45/20 
f 25/46/21 21/47/21 20/48/21 26/49/21 
f 27/50/22 23/51/22 22/52/22 24/53/22 
f 26/54/23 20/55/23 23/56/23 27/57/23 
usemtl Suur_Karja_21_Tex8
f 28/58/13 29/59/13 30/60/13 31/61/13 
usemtl Suur_Karja_21_Tex6
f 32/62/20 30/63/20 29/64/20 33/65/20 
f 33/66/21 29/67/21 28/68/21 34/69/21 
f 35/70/22 31/71/22 30/72/22 32/73/22 
f 34/74/23 28/75/23 31/76/23 35/77/23 
usemtl Suur_Karja_21_Tex8
f 36/78/13 37/79/13 38/80/13 39/81/13 
usemtl Suur_Karja_21_Tex6
f 40/82/20 38/83/20 37/84/20 41/85/20 
f 41/86/21 37/87/21 36/88/21 42/89/21 
f 43/90/22 39/91/22 38/92/22 40/93/22 
f 42/94/23 36/95/23 39/96/23 43/97/23 
usemtl Suur_Karja_21_Tex8
f 44/98/13 45/99/13 46/100/13 47/101/13 
usemtl Suur_Karja_21_Tex6
f 48/102/24 46/103/24 45/104/24 49/105/24 
f 49/106/25 45/107/25 44/108/25 50/109/25 
f 51/110/26 47/111/26 46/112/26 48/113/26 
f 50/114/27 44/115/27 47/116/27 51/117/27 
f 52/118/28 53/119/29 54/120/28 55/121/28 
f 56/122/30 57/123/31 58/124/31 59/125/30 
f 55/126/32 54/127/32 57/128/33 56/129/32 
f 60/130/34 59/131/35 58/132/34 61/133/34 
s 12
f 52/134/36 55/135/36 62/136/36 63/137/36 
f 62/136/36 55/135/36 64/138/36 
f 56/139/37 59/140/37 65/141/37 66/142/37 
f 56/139/37 66/142/37 64/138/38 55/135/38 
f 65/141/39 59/140/39 60/143/39 67/144/39 
usemtl Suur_Karja_21_Tex7
s off
f 68/145/40 69/146/40 70/147/41 71/148/41 
f 72/145/40 73/146/40 74/147/41 75/148/41 
f 76/149/42 77/150/42 78/151/42 79/152/42 
f 80/153/43 76/154/43 79/155/43 81/156/43 
f 68/157/44 81/158/44 82/159/44 69/160/44 
s 8
f 83/161/13 84/162/13 85/163/13 86/164/13 
f 85/165/13 84/166/13 87/167/13 82/168/13 
f 70/169/13 69/170/13 82/171/13 87/172/13 
s off
f 78/151/45 86/173/45 85/174/45 79/152/45 
f 79/155/46 85/175/46 82/176/46 81/156/46 
f 71/177/47 80/178/47 81/158/47 68/157/47 
f 88/149/42 89/150/42 90/151/42 91/152/42 
f 92/153/43 88/154/43 91/155/43 93/156/43 
f 72/157/44 93/158/44 94/159/44 73/160/44 
s 8
f 95/161/13 96/162/13 97/163/13 98/164/13 
f 97/165/13 96/166/13 99/167/13 94/168/13 
f 74/169/13 73/170/13 94/171/13 99/172/13 
s off
f 90/151/45 98/173/45 97/174/45 91/152/45 
f 91/155/46 97/175/46 94/176/46 93/156/46 
f 75/177/47 92/178/47 93/158/47 72/157/47 
usemtl Suur_Karja_21_Tex2
s 1
f 100/179/48 101/180/48 102/181/48 103/182/48 
s off
f 104/183/49 105/184/49 106/185/49 107/186/49 
s 1
f 108/187/50 109/188/50 110/189/50 111/190/50 
f 112/187/50 113/191/50 114/189/50 115/192/50 
s off
f 116/193/49 117/185/49 118/194/49 119/195/49 
s 1
f 120/181/48 121/196/48 122/197/48 123/198/48 
f 124/199/48 125/179/48 126/200/48 127/181/48 
s off
f 128/201/49 129/195/49 130/202/49 131/185/49 
s 1
f 132/203/50 133/187/50 134/204/50 135/189/50 
usemtl Suur_Karja_21_Tex1
s off
f 136/205/51 137/206/51 138/207/51 139/208/51 
f 138/209/52 137/210/52 140/211/52 141/212/52 
f 142/213/53 67/214/53 143/215/53 
f 141/216/54 140/217/54 142/218/54 144/219/54 
f 137/206/51 136/205/51 145/220/51 146/221/51 
f 137/206/51 146/221/51 147/222/51 148/223/51 
f 137/206/51 148/223/51 149/224/51 150/225/51 
f 137/206/51 150/225/51 151/226/51 152/227/51 
f 53/228/51 137/206/51 152/227/51 
f 144/229/53 142/213/53 143/215/53 153/230/53 
f 154/231/55 155/232/55 156/233/55 157/234/55 
f 158/235/55 156/233/55 155/232/55 159/236/55 
f 160/237/55 159/236/55 155/232/55 161/238/55 
f 162/239/55 161/238/55 155/232/55 163/240/55 
f 164/241/55 163/240/55 155/232/55 165/242/55 
f 166/243/55 165/242/55 155/232/55 167/244/55 
f 167/244/55 155/232/55 168/245/55 
f 169/246/56 170/247/56 171/248/56 172/249/56 
f 173/250/56 171/248/56 170/247/56 
f 174/251/56 175/252/56 176/253/56 177/254/56 
f 156/255/56 177/254/56 176/253/56 
f 178/256/56 179/257/56 180/258/56 181/259/56 
f 178/256/56 181/259/56 136/260/56 
s 2
f 182/261/48 183/262/48 167/263/48 
s off
f 184/264/49 185/265/49 186/266/49 187/267/49 
f 188/268/49 189/269/49 190/270/49 191/271/49 
f 192/272/49 188/268/49 191/271/49 193/273/49 
f 170/274/49 169/275/49 194/276/49 195/277/49 
f 196/278/49 197/279/49 198/280/49 199/281/49 
f 196/278/49 199/281/49 200/282/49 201/283/49 
s 1
f 174/284/48 177/285/48 202/286/48 203/287/48 
f 204/288/48 205/289/48 206/290/48 207/291/48 
f 204/288/48 207/291/48 208/292/48 209/293/48 
f 210/294/48 183/262/48 182/261/48 211/295/48 
f 212/296/48 213/297/48 214/298/48 215/299/48 
f 216/300/48 212/296/48 215/299/48 217/301/48 
f 218/302/50 219/303/50 220/304/50 221/305/50 
f 222/306/50 223/307/50 224/308/50 225/309/50 
f 226/310/50 222/306/50 225/309/50 227/311/50 
f 181/312/50 180/313/50 228/314/50 229/315/50 
f 230/316/50 231/317/50 232/318/50 233/319/50 
f 230/316/50 233/319/50 234/320/50 235/321/50 
s off
f 201/283/57 193/273/57 236/322/57 237/323/57 
f 192/272/49 200/282/49 238/324/49 239/325/49 
f 169/246/56 172/249/56 176/253/56 175/252/56 
f 173/250/56 170/247/56 179/257/56 178/256/56 
f 187/267/57 186/266/57 240/326/57 241/327/57 
f 185/265/49 184/264/49 242/328/49 243/329/49 
f 190/270/57 187/267/57 241/327/57 244/330/57 
f 184/264/49 189/269/49 245/331/49 242/328/49 
f 191/271/57 190/270/57 244/330/57 246/332/57 
f 189/269/49 188/268/49 247/333/49 245/331/49 
f 193/273/57 191/271/57 246/332/57 236/322/57 
f 188/268/49 192/272/49 239/325/49 247/333/49 
f 194/276/49 169/275/49 175/334/49 248/335/49 
f 170/274/57 195/277/57 249/336/57 179/337/57 
f 198/280/49 194/276/49 248/335/49 250/338/49 
f 195/277/57 197/279/57 251/339/57 249/336/57 
f 199/281/49 198/280/49 250/338/49 252/340/49 
f 197/279/57 196/278/57 253/341/57 251/339/57 
f 200/282/49 199/281/49 252/340/49 238/324/49 
f 196/278/57 201/283/57 237/323/57 253/341/57 
s 1
f 235/321/50 227/311/50 149/342/58 148/343/58 
f 226/310/50 234/320/50 237/344/58 236/345/58 
f 221/305/50 220/304/50 53/346/58 152/347/58 
f 219/303/50 218/302/50 241/348/58 240/349/58 
f 224/308/50 221/305/50 152/347/58 151/350/58 
f 218/302/50 223/307/50 244/351/58 241/348/58 
f 225/309/50 224/308/50 151/350/58 150/352/58 
f 223/307/50 222/306/50 246/353/58 244/351/58 
f 227/311/50 225/309/50 150/352/58 149/342/58 
f 222/306/50 226/310/50 236/345/58 246/353/58 
f 228/314/50 180/313/50 179/354/58 249/355/58 
f 181/312/50 229/315/50 145/356/58 136/357/58 
f 232/318/50 228/314/50 249/355/58 251/358/58 
f 229/315/50 231/317/50 146/359/58 145/356/58 
f 233/319/50 232/318/50 251/358/58 253/360/58 
f 231/317/50 230/316/50 147/361/58 146/359/58 
f 234/320/50 233/319/50 253/360/58 237/344/58 
f 230/316/50 235/321/50 148/343/58 147/361/58 
f 216/300/48 208/292/48 161/362/48 162/363/48 
f 209/293/48 217/301/48 239/325/48 238/324/48 
s 2
f 183/262/48 166/364/48 167/263/48 
f 167/263/48 243/329/48 182/261/48 
s 1
f 202/286/48 177/285/48 156/365/48 158/366/48 
f 174/284/48 203/287/48 248/335/48 175/334/48 
f 206/290/48 202/286/48 158/366/48 159/367/48 
f 203/287/48 205/289/48 250/338/48 248/335/48 
f 207/291/48 206/290/48 159/367/48 160/368/48 
f 205/289/48 204/288/48 252/340/48 250/338/48 
f 208/292/48 207/291/48 160/368/48 161/362/48 
f 204/288/48 209/293/48 238/324/48 252/340/48 
f 211/295/48 182/261/48 243/329/48 242/328/48 
f 183/262/48 210/294/48 165/369/48 166/364/48 
f 214/298/48 211/295/48 242/328/48 245/331/48 
f 210/294/48 213/297/48 164/370/48 165/369/48 
f 215/299/48 214/298/48 245/331/48 247/333/48 
f 213/297/48 212/296/48 163/371/48 164/370/48 
f 217/301/48 215/299/48 247/333/48 239/325/48 
f 212/296/48 216/300/48 162/363/48 163/371/48 
s off
f 117/372/59 116/373/59 192/374/59 193/375/59 
f 118/376/60 117/377/60 193/378/60 201/379/60 
f 119/380/61 118/381/61 201/382/61 200/383/61 
f 116/384/62 119/385/62 200/386/62 192/387/62 
f 122/388/63 121/389/63 209/390/63 208/391/63 
f 123/392/64 122/393/64 208/394/64 216/395/64 
f 120/396/65 123/397/65 216/398/65 217/399/65 
f 121/400/66 120/401/66 217/402/66 209/403/66 
f 114/404/67 113/405/67 226/406/67 227/407/67 
f 115/408/68 114/409/68 227/410/68 235/411/68 
f 112/412/69 115/413/69 235/414/69 234/415/69 
f 113/416/70 112/417/70 234/418/70 226/419/70 
f 106/420/71 105/421/71 184/422/71 187/423/71 
f 107/424/60 106/425/60 187/426/60 190/427/60 
f 104/428/72 107/429/72 190/430/72 189/431/72 
f 105/432/62 104/433/62 189/434/62 184/435/62 
f 129/436/73 128/437/73 195/438/73 194/439/73 
f 130/440/62 129/441/62 194/442/62 198/443/62 
f 131/444/74 130/445/74 198/446/74 197/447/74 
f 128/448/60 131/449/60 197/450/60 195/451/60 
f 125/452/75 124/453/75 203/454/75 202/455/75 
f 126/456/64 125/457/64 202/458/64 206/459/64 
f 127/460/76 126/461/76 206/462/76 205/463/76 
f 124/464/66 127/465/66 205/466/66 203/467/66 
f 102/468/77 101/469/77 210/470/77 211/471/77 
f 103/472/66 102/473/66 211/474/66 214/475/66 
f 100/476/78 103/477/78 214/478/78 213/479/78 
f 101/480/64 100/481/64 213/482/64 210/483/64 
f 110/484/79 109/485/79 218/486/79 221/487/79 
f 111/488/68 110/489/68 221/490/68 224/491/68 
f 108/492/80 111/493/80 224/494/80 223/495/80 
f 109/496/70 108/497/70 223/498/70 218/499/70 
f 133/500/81 132/501/81 229/502/81 228/503/81 
f 134/504/70 133/505/70 228/506/70 232/507/70 
f 135/508/82 134/509/82 232/510/82 231/511/82 
f 132/512/68 135/513/68 231/514/68 229/515/68 
usemtl plk_kat
s 10
f 53/516/83 254/517/84 54/518/85 
f 255/519/86 58/520/87 57/521/88 
s off
f 167/522/89 240/523/89 243/524/89 
f 53/525/90 240/523/90 167/522/90 
s 10
f 254/526/84 168/527/91 256/528/92 255/529/86 
f 61/530/93 58/531/87 255/529/86 256/528/92 
s off
f 167/522/94 254/526/94 53/525/94 
s 1
f 167/522/95 168/527/95 254/526/95 
s 10
f 255/529/86 57/532/88 54/533/85 254/526/84 
usemtl Suur_Karja_21_Tex4
s off
f 178/534/49 136/535/49 139/536/49 173/537/49 
f 173/537/49 139/536/49 257/538/49 171/539/49 
usemtl sk21_u1
f 157/540/49 156/541/49 176/542/49 257/543/49 
f 257/543/49 176/542/49 172/544/49 171/545/49 
usemtl Suur_Karja_21_Tex1
f 258/536/96 259/538/96 257/538/96 139/536/96 
f 260/234/97 261/231/97 154/231/97 157/234/97 
f 259/543/96 260/540/96 157/540/96 257/543/96 
f 258/536/98 139/536/98 138/536/98 
# 208 polygons - 19 triangles

#
# object xxx
#

v  542410.9302 6588820.1783 28.6010
v  542410.9302 6588820.1783 28.9588
v  542410.3445 6588821.2796 29.2356
v  542410.787 6588820.4481 28.6042
v  542404.0631 6588816.4909 29.1737
v  542410.3445 6588821.2796 28.6042
v  542404.0631 6588816.4909 16.3150
v  542410.3445 6588821.2796 15.7454
v  542410.787 6588820.4481 21.5655
v  542404.0631 6588816.4909 13.5654
v  542410.3445 6588821.2796 12.9958
v  542410.787 6588820.4481 12.7994
# 12 vertices

vn -0.8834 -0.4687 0.0000
vn -0.8831 -0.4691 -0.0004
vn -0.8830 -0.4694 -0.0007
vn -0.8831 -0.4692 -0.0005
vn 0.6063 -0.7953 0.0000
vn -0.8827 -0.4699 0.0000
# 6 vertex normals

vt 0.6528 1.0020 0.4953
vt 1.0131 1.0008 0.5014
vt 0.4562 0.1699 -0.3023
vt -0.8152 0.1443 -0.4884
# 4 texture coords

g xxx
usemtl xxx
s 1
f 262/546/99 263/546/100 264/546/101 265/547/102 
s off
f 264/548/103 266/549/103 267/548/103 
f 265/547/104 264/546/104 267/546/104 
f 266/549/103 268/549/103 269/548/103 267/548/103 
f 267/546/104 269/546/104 270/547/104 265/547/104 
f 271/549/103 272/548/103 269/548/103 268/549/103 
f 272/546/104 273/547/104 270/547/104 269/546/104 
# 5 polygons - 2 triangles

