# 3ds Max Wavefront OBJ Exporter v0.97b - (c)2007 guruware
# File Created: 21.05.2011 17:22:15

mtllib Uus_27-origo.mtl

#
# object polySurface10
#

v  542521.9101 6589444.7123 14.5158
v  542521.339 6589444.8433 14.5158
v  542521.339 6589444.8433 13.4061
v  542521.9101 6589444.7123 13.4061
v  542522.0961 6589445.5237 13.4061
v  542521.5251 6589445.6546 13.4061
v  542521.5251 6589445.6546 14.5158
v  542522.0961 6589445.5237 14.5158
v  542521.8812 6589444.783 14.5158
v  542521.3958 6589444.8941 14.5158
v  542522.0394 6589445.4726 14.5158
v  542521.5539 6589445.5838 14.5158
v  542521.8812 6589444.783 16.9718
v  542521.3958 6589444.8941 16.9718
v  542522.0394 6589445.4726 16.9718
v  542521.5539 6589445.5838 16.9718
v  542521.8392 6589444.9124 17.0192
v  542521.49 6589444.9925 17.0192
v  542521.3958 6589444.8941 17.0192
v  542521.8812 6589444.783 17.0192
v  542521.9451 6589445.3743 17.0192
v  542522.0394 6589445.4726 17.0192
v  542521.5959 6589445.4544 17.0192
v  542521.5539 6589445.5838 17.0192
v  542521.8392 6589444.9124 16.8713
v  542521.49 6589444.9925 16.8713
v  542521.9451 6589445.3743 16.8713
v  542521.5959 6589445.4544 16.8713
v  542521.5424 6589445.6023 17.0192
v  542522.0578 6589445.4843 17.0192
v  542522.0578 6589445.4843 16.9718
v  542521.5424 6589445.6023 16.9718
v  542521.8927 6589444.7645 17.0192
v  542521.8927 6589444.7645 16.9718
v  542521.3773 6589444.8826 17.0192
v  542521.3773 6589444.8826 16.9718
v  542520.6142 6589439.0596 12.3441
v  542513.875 6589440.9386 10.5698
v  542513.8782 6589440.9378 10.1297
v  542520.6142 6589439.0596 11.7085
v  542520.9068 6589442.8698 13.9909
v  542516.1194 6589446.0138 11.8083
v  542515.8142 6589445.3481 11.7593
v  542520.8075 6589442.3884 13.9909
v  542522.5764 6589451.7567 11.8988
v  542518.5509 6589452.2527 10.7400
v  542518.5518 6589452.2524 11.2556
v  542522.5851 6589451.7542 12.5578
v  542520.7208 6589442.4279 6.5748
v  542515.8319 6589445.3431 6.5748
v  542516.1344 6589446.0096 6.5748
v  542520.7375 6589442.9306 6.5748
v  542526.5108 6589444.3828 9.5669
v  542526.3095 6589443.5152 9.5811
v  542526.294 6589443.5083 9.2007
v  542526.4953 6589444.3871 9.2373
v  542527.6463 6589449.6055 9.2373
v  542522.5147 6589450.5304 11.9696
v  542522.534 6589450.525 12.6375
v  542527.6614 6589449.6013 9.5669
v  542526.3699 6589444.4224 6.5748
v  542526.1692 6589443.5434 6.5748
v  542526.3348 6589443.508 10.1242
v  542526.5362 6589444.3756 10.1073
v  542522.6023 6589451.7494 13.8711
v  542518.5536 6589452.2519 12.2830
v  542518.3989 6589451.1964 12.2827
v  542522.5252 6589450.5142 13.9909
v  542518.5436 6589452.2547 6.5751
v  542522.5068 6589451.7762 6.5751
v  542522.3586 6589450.5743 6.5748
v  542518.389 6589451.1992 6.5748
v  542515.5104 6589452.6281 10.2736
v  542515.5153 6589452.6267 9.8662
v  542515.3558 6589451.7333 9.8659
v  542515.3508 6589451.7347 10.2733
v  542514.911 6589449.8355 10.2733
v  542514.9159 6589449.8341 9.8659
v  542521.6792 6589447.331 6.5748
v  542517.444 6589449.0242 6.5748
v  542527.5243 6589449.6398 6.5748
v  542527.0449 6589447.3108 6.5748
v  542527.1835 6589447.2718 9.5669
v  542527.1683 6589447.2761 9.1745
v  542527.2086 6589447.2648 10.1073
v  542527.6862 6589449.5943 10.1073
v  542521.8469 6589447.2706 13.9909
v  542517.4435 6589449.0244 12.0839
v  542514.9558 6589449.8229 6.5748
v  542515.3956 6589451.722 6.5748
v  542515.5552 6589452.6155 6.5751
v  542515.5006 6589452.6308 11.0855
v  542515.341 6589451.7374 11.0852
v  542514.9011 6589449.8383 11.0852
v  542515.819 6589445.3467 10.3578
v  542515.8174 6589445.3472 10.8261
v  542516.1221 6589446.013 10.8663
v  542516.1234 6589446.0126 10.3936
v  542514.3014 6589447.2033 10.2733
v  542514.3063 6589447.2019 9.8659
v  542523.1791 6589431.5263 9.6719
v  542518.7977 6589432.7571 11.3056
v  542518.7977 6589432.7571 10.7845
v  542523.1631 6589431.5308 9.3307
v  542525.032 6589437.8132 10.2314
v  542519.8149 6589436.3779 12.3441
v  542524.2389 6589435.1351 10.2314
v  542524.0726 6589435.1818 6.5748
v  542519.8149 6589436.3779 6.5748
v  542520.6142 6589439.0596 6.5748
v  542524.8891 6589438.0223 6.5748
v  542525.0072 6589437.9838 9.6719
v  542524.2134 6589435.1423 9.6719
v  542524.1979 6589435.1466 9.3307
v  542524.9921 6589437.988 9.3307
v  542519.8149 6589436.3779 11.7085
v  542520.3472 6589439.118 13.3443
v  542513.8713 6589440.9397 11.1024
v  542515.8155 6589445.3477 11.3929
v  542516.1204 6589446.0135 11.4385
v  542514.2954 6589447.205 10.7664
v  542514.905 6589449.8372 10.7664
v  542515.3448 6589451.7363 10.7664
v  542515.5044 6589452.6298 10.7667
v  542518.5529 6589452.2521 11.8796
v  542522.5955 6589451.7513 13.3554
v  542522.5287 6589450.5184 13.4595
v  542527.6764 6589449.597 9.8951
v  542527.6655 6589449.6001 9.6565
v  542527.7519 6589449.5801 9.5624
v  542527.756 6589449.579 9.6520
v  542527.2782 6589447.2495 9.6520
v  542527.2741 6589447.2507 9.5624
v  542526.6056 6589444.3605 9.6520
v  542526.4042 6589443.4926 9.6667
v  542526.4 6589443.4938 9.5767
v  542526.6013 6589444.3617 9.5624
v  542525.0972 6589437.9604 9.6675
v  542525.1013 6589437.9593 9.7603
v  542524.3074 6589435.1168 9.7603
v  542524.3032 6589435.1179 9.6675
v  542523.1835 6589431.5251 9.7647
v  542518.7977 6589432.7571 11.4778
v  542520.1746 6589439.1557 13.9909
v  542527.2991 6589447.2437 10.1029
v  542527.7767 6589449.5732 10.1028
v  542526.4253 6589443.4866 10.1197
v  542526.6268 6589444.3545 10.1029
v  542524.3287 6589435.1108 10.2269
v  542525.122 6589437.9535 10.2269
v  542523.2686 6589431.5007 9.6675
v  542523.2729 6589431.4995 9.7603
v  542513.8689 6589440.9403 11.4468
v  542514.2915 6589447.2061 11.0852
v  542527.767 6589449.5759 9.8906
v  542527.8127 6589449.5653 9.8884
v  542527.8225 6589449.5625 10.1006
v  542527.3449 6589447.2329 10.1006
v  542527.3351 6589447.2358 9.8884
v  542526.6725 6589444.3438 10.1006
v  542526.471 6589443.4758 10.1175
v  542526.4611 6589443.4786 9.9042
v  542526.6626 6589444.3467 9.8884
v  542525.1674 6589437.9417 10.2247
v  542524.374 6589435.0985 10.2247
v  542524.364 6589435.1013 10.0051
v  542525.1577 6589437.9445 10.0051
v  542523.2846 6589431.4962 10.0073
v  542523.2949 6589431.4933 10.2269
v  542523.2055 6589431.5189 10.2314
v  542523.1951 6589431.5218 10.0117
v  542518.7977 6589432.7571 12.3441
v  542518.7977 6589432.7571 11.9363
v  542527.8018 6589449.5684 9.6497
v  542527.324 6589447.2389 9.6498
v  542526.4499 6589443.4818 9.6645
v  542526.6513 6589444.3499 9.6498
v  542525.1468 6589437.9475 9.7580
v  542524.3528 6589435.1044 9.7580
v  542523.3297 6589431.4833 10.0051
v  542523.3401 6589431.4804 10.2247
v  542523.3181 6589431.4866 9.7580
v  542523.6463 6589432.8214 9.6675
v  542523.3639 6589431.8339 9.6675
v  542523.2744 6589431.8594 9.6719
v  542523.5568 6589432.8466 9.6719
v  542523.2584 6589431.8639 9.3307
v  542523.5409 6589432.851 9.3307
v  542523.1292 6589431.9002 6.5748
v  542518.8914 6589433.0907 6.5748
v  542519.1691 6589434.0791 6.5748
v  542523.4129 6589432.887 6.5748
v  542518.8914 6589433.0907 11.7085
v  542518.8914 6589433.0907 12.3441
v  542519.1691 6589434.0791 12.3441
v  542519.1691 6589434.0791 11.7085
v  542523.5828 6589432.8392 10.2314
v  542523.3007 6589431.8521 10.2314
v  542523.3901 6589431.8266 10.2269
v  542523.6723 6589432.8141 10.2269
v  542523.4354 6589431.8138 10.2247
v  542523.7176 6589432.8015 10.2247
v  542523.425 6589431.8166 10.0051
v  542523.7074 6589432.8043 10.0051
v  542523.4134 6589431.8199 9.7580
v  542523.6959 6589432.8075 9.7580
v  542523.3682 6589431.8328 9.7603
v  542523.6507 6589432.8203 9.7603
v  542523.0335 6589431.5672 6.5748
v  542518.7977 6589432.7571 6.5748
v  542523.9952 6589433.8542 9.7580
v  542523.9499 6589433.8668 9.7603
v  542523.9457 6589433.8679 9.6675
v  542523.856 6589433.8927 9.6719
v  542523.8403 6589433.8971 9.3307
v  542519.4634 6589435.1266 6.5748
v  542523.7135 6589433.9327 6.5748
v  542519.4634 6589435.1266 12.3441
v  542519.4634 6589435.1266 11.7085
v  542523.8818 6589433.8854 10.2314
v  542523.9714 6589433.8607 10.2269
v  542524.0167 6589433.8482 10.2247
v  542524.0066 6589433.851 10.0051
v  542525.1202 6589438.3889 9.6653
v  542525.1051 6589438.3632 9.2222
v  542524.9829 6589438.4274 6.5748
v  542520.622 6589439.4579 6.5748
v  542513.9032 6589440.9307 6.5748
v  542514.0445 6589441.4055 6.5748
v  542514.0173 6589441.4131 10.5886
v  542514.0203 6589441.4123 10.1464
v  542514.0137 6589441.4142 11.1237
v  542514.0113 6589441.4148 11.4696
v  542520.2209 6589439.5441 13.9909
v  542525.145 6589438.3819 10.2235
v  542525.2351 6589438.3587 10.2191
v  542525.2805 6589438.347 10.2169
v  542525.2708 6589438.3497 9.9977
v  542525.2598 6589438.3528 9.7512
v  542525.2144 6589438.3645 9.7534
v  542525.2103 6589438.3657 9.6608
v  542525.4039 6589439.6116 9.6452
v  542525.3887 6589439.6399 9.2044
v  542525.2659 6589439.6504 6.5748
v  542520.6455 6589440.1663 6.5748
v  542514.4708 6589442.3448 6.5748
v  542514.4467 6589442.3515 10.6452
v  542514.4493 6589442.3508 10.1968
v  542514.4435 6589442.3524 11.1879
v  542514.4414 6589442.353 11.5387
v  542520.3608 6589440.2226 13.9909
v  542525.4288 6589439.6046 10.1998
v  542525.519 6589439.5818 10.1954
v  542525.5645 6589439.5703 10.1932
v  542525.5547 6589439.5731 9.9754
v  542525.5437 6589439.5762 9.7305
v  542525.4982 6589439.5877 9.7327
v  542525.494 6589439.5888 9.6408
v  542525.9576 6589441.9985 9.6060
v  542525.9423 6589442.0122 9.2229
v  542525.8182 6589442.047 6.5748
v  542520.6916 6589441.5492 6.5748
v  542515.3031 6589444.1782 6.5748
v  542515.2849 6589444.1833 10.7558
v  542515.2869 6589444.1827 10.2953
v  542515.2824 6589444.184 11.3133
v  542515.2809 6589444.1844 11.6736
v  542520.6339 6589441.5469 13.9909
v  542525.9828 6589441.9915 10.1535
v  542526.0732 6589441.9695 10.1491
v  542526.1188 6589441.9584 10.1469
v  542526.1089 6589441.9612 9.9319
v  542526.0978 6589441.9644 9.6901
v  542526.0522 6589441.9755 9.6924
v  542526.048 6589441.9766 9.6016
v  542526.901 6589446.0585 9.5669
v  542526.8856 6589446.0629 9.1745
v  542526.7614 6589446.0977 6.5748
v  542521.2837 6589445.483 6.5748
v  542516.894 6589447.7581 6.5748
v  542514.6998 6589448.7175 6.5748
v  542514.6599 6589448.7287 9.8659
v  542514.655 6589448.7301 10.2733
v  542514.649 6589448.7318 10.7664
v  542514.6451 6589448.7328 11.0852
v  542516.8874 6589447.76 11.9682
v  542521.4521 6589445.4224 13.9909
v  542526.9262 6589446.0515 10.1073
v  542527.0168 6589446.0303 10.1029
v  542527.0625 6589446.0196 10.1006
v  542527.0526 6589446.0225 9.8884
v  542527.0415 6589446.0256 9.6498
v  542526.9957 6589446.0363 9.6520
v  542526.9915 6589446.0374 9.5624
v  542514.3462 6589447.1907 6.5748
v  542523.3785 6589432.8975 9.3389
v  542523.0961 6589431.9103 9.3389
v  542523.0095 6589431.9347 7.4929
v  542523.2928 6589432.9216 7.4929
v  542523.4551 6589432.8751 7.4847
v  542523.7554 6589433.9209 7.4847
v  542524.1117 6589435.1713 9.3350
v  542523.7541 6589433.9218 9.3350
v  542523.6692 6589433.9456 7.4889
v  542524.0278 6589435.1949 7.4889
v  542524.114 6589435.1702 7.4847
v  542524.9104 6589438.011 7.4847
v  542525.0232 6589438.3862 7.4177
v  542525.2222 6589439.6785 9.2123
v  542524.9386 6589438.4019 9.2302
v  542524.8568 6589438.4249 7.4256
v  542525.14 6589439.7017 7.4197
v  542525.3064 6589439.663 7.4118
v  542525.8592 6589442.0355 7.4653
v  542526.1081 6589443.5515 9.2099
v  542525.7564 6589442.0553 9.2320
v  542525.6732 6589442.0786 7.4745
v  542526.0245 6589443.5749 7.4672
v  542526.2104 6589443.5318 7.4580
v  542526.4113 6589444.4107 7.4538
v  542526.8025 6589446.0862 7.3778
v  542526.6042 6589446.1324 7.3876
v  542526.8874 6589447.3455 7.3876
v  542526.97 6589447.3223 9.1843
v  542526.6874 6589446.109 9.1843
v  542527.0856 6589447.2993 7.3778
v  542527.5646 6589449.6285 7.4538
v  542522.4101 6589450.5598 8.3559
v  542522.5298 6589451.7698 8.3327
v  542518.546 6589452.254 7.9502
v  542515.542 6589452.6192 7.6617
v  542515.3824 6589451.7258 7.6614
v  542514.9426 6589449.8266 7.6614
v  542514.6866 6589448.7212 7.6614
v  542514.333 6589447.1944 7.6614
v  542516.1308 6589446.0106 7.8356
v  542515.8276 6589445.3443 7.8238
v  542515.2977 6589444.1797 7.8031
v  542514.4637 6589442.3467 7.7706
v  542514.0365 6589441.4078 7.7540
v  542513.895 6589440.933 7.7485
v  542520.6141 6589439.0596 8.2697
v  542519.8149 6589436.3779 8.2697
v  542519.4633 6589435.1266 8.2697
v  542519.1691 6589434.0791 8.2697
v  542518.8914 6589433.0907 8.2697
v  542518.7977 6589432.7571 7.9646
v  542523.0763 6589431.5552 7.4847
v  542523.1718 6589431.8882 7.4847
v  542525.6322 6589442.09 6.5840
v  542525.9832 6589443.5863 6.5840
v  542522.9669 6589431.9467 6.5830
v  542523.2505 6589432.9335 6.5830
v  542523.4173 6589431.5796 6.8737
v  542522.8154 6589431.7801 6.8737
v  542522.8154 6589431.7801 6.8100
v  542523.4173 6589431.5796 6.8100
v  542523.6201 6589432.3358 6.8737
v  542523.1067 6589432.5069 6.8737
v  542522.8744 6589431.8097 6.8737
v  542523.3878 6589431.6386 6.8737
v  542523.6791 6589432.3653 6.8100
v  542523.0771 6589432.5659 6.8100
v  542523.0771 6589432.5659 6.8737
v  542523.6791 6589432.3653 6.8737
v  542523.3878 6589431.6386 6.6702
v  542522.8744 6589431.8097 6.6702
v  542523.1067 6589432.5069 6.6702
v  542523.6201 6589432.3358 6.6702
v  542523.1067 6589432.5069 6.8100
v  542523.6201 6589432.3358 6.8100
v  542522.8744 6589431.8097 6.8100
v  542523.3878 6589431.6386 6.8100
v  542523.4079 6589431.5515 6.7212
v  542522.806 6589431.752 6.7212
v  542522.806 6589431.752 6.6575
v  542523.4079 6589431.5515 6.6575
v  542523.8038 6589432.8872 6.7212
v  542523.2904 6589433.0582 6.7212
v  542522.8651 6589431.7816 6.7212
v  542523.3784 6589431.6105 6.7212
v  542523.8628 6589432.9167 6.6575
v  542523.2608 6589433.1172 6.6575
v  542523.2608 6589433.1172 6.7212
v  542523.8628 6589432.9167 6.7212
v  542523.3784 6589431.6105 6.5176
v  542522.8651 6589431.7816 6.5176
v  542523.2904 6589433.0582 6.5176
v  542523.8038 6589432.8872 6.5176
v  542523.2904 6589433.0582 6.6575
v  542523.8038 6589432.8872 6.6575
v  542522.8651 6589431.7816 6.6575
v  542523.3784 6589431.6105 6.6575
v  542526.1536 6589441.8148 6.7212
v  542525.5388 6589441.9718 6.7212
v  542525.5388 6589441.9718 6.6575
v  542526.1536 6589441.8148 6.6575
v  542526.5143 6589443.5239 6.7212
v  542525.99 6589443.6577 6.7212
v  542525.5957 6589442.0055 6.7212
v  542526.1199 6589441.8716 6.7212
v  542526.571 6589443.5575 6.6575
v  542525.9563 6589443.7145 6.6575
v  542525.9563 6589443.7145 6.7212
v  542526.571 6589443.5575 6.7212
v  542526.1199 6589441.8716 6.5176
v  542525.5957 6589442.0055 6.5176
v  542525.99 6589443.6577 6.5176
v  542526.5143 6589443.5239 6.5176
v  542525.99 6589443.6577 6.6575
v  542526.5143 6589443.5239 6.6575
v  542525.5957 6589442.0055 6.6575
v  542526.1199 6589441.8716 6.6575
v  542520.2515 6589435.6252 12.9543
v  542519.6911 6589435.796 12.9543
v  542519.6911 6589435.796 11.8446
v  542520.2515 6589435.6252 11.8446
v  542520.4572 6589436.3044 11.8446
v  542519.8968 6589436.4754 11.8446
v  542519.8968 6589436.4754 12.9543
v  542520.4572 6589436.3044 12.9543
v  542520.1994 6589435.7834 12.9543
v  542519.8226 6589435.8984 12.9543
v  542520.3256 6589436.202 12.9543
v  542519.9487 6589436.3169 12.9543
# 425 vertices

vn -0.2236 -0.9747 -0.0000
vn 0.2235 0.9747 -0.0000
vn 0.0000 0.0000 -1.0000
vn 0.9747 -0.2235 -0.0000
vn -0.9747 0.2235 -0.0000
vn -0.0000 0.0000 1.0000
vn -0.2233 -0.9748 -0.0000
vn 0.9747 -0.2236 -0.0000
vn 0.2232 0.9748 -0.0000
vn 0.0000 0.0000 1.0000
vn -0.2235 -0.9747 -0.0000
vn 0.2233 0.9748 -0.0000
vn -0.0000 0.0000 -1.0000
vn -0.2677 -0.9635 -0.0049
vn -0.2686 -0.9633 -0.0000
vn 0.1254 -0.0238 0.9918
vn -0.3560 0.0786 0.9312
vn -0.3621 0.0880 0.9280
vn 0.1280 -0.0186 0.9916
vn 0.1216 0.9926 0.0013
vn 0.1219 0.9925 0.0003
vn 0.1225 0.9925 0.0003
vn 0.1222 0.9925 0.0012
vn 0.9733 -0.2256 -0.0430
vn 0.9733 -0.2259 -0.0415
vn 0.9735 -0.2245 -0.0441
vn 0.9732 -0.2255 -0.0459
vn 0.1790 0.9839 0.0034
vn 0.1804 0.9836 0.0055
vn 0.1961 0.9806 0.0046
vn 0.5853 -0.1205 0.8018
vn 0.5852 -0.1249 0.8012
vn -0.3620 0.0851 0.9283
vn -0.3594 0.0712 0.9305
vn -0.3594 0.0735 0.9303
vn -0.0562 0.0157 0.9983
vn 0.9979 -0.0611 -0.0214
vn 0.9988 -0.0476 -0.0124
vn 0.0000 0.0003 -1.0000
vn 0.0000 0.0001 -1.0000
vn -0.9843 0.1758 -0.0125
vn -0.9796 0.2008 -0.0126
vn -0.9741 0.2256 -0.0126
vn 0.9787 -0.1999 -0.0455
vn 0.9788 -0.2002 -0.0435
vn 0.9760 -0.2135 -0.0420
vn 0.9770 -0.2089 -0.0439
vn 0.5826 -0.1249 0.8031
vn 0.5826 -0.1208 0.8037
vn 0.1220 -0.0268 0.9922
vn -0.3576 0.0754 0.9308
vn 0.0000 0.0002 -1.0000
vn 0.1221 0.9925 -0.0007
vn 0.1228 0.9924 -0.0007
vn -0.3568 0.0572 0.9324
vn -0.3527 0.0655 0.9334
vn -0.3452 0.0726 0.9357
vn -0.9095 0.4156 -0.0036
vn -0.9092 0.4163 -0.0036
vn -0.9092 0.4163 -0.0032
vn -0.9096 0.4156 -0.0032
vn -0.5467 -0.8373 -0.0022
vn -0.5477 -0.8367 -0.0022
vn -0.2718 -0.9623 0.0001
vn -0.2704 -0.9627 -0.0000
vn 0.1714 -0.0443 0.9842
vn 0.4006 -0.1190 0.9085
vn 0.4014 -0.1165 0.9085
vn 0.2312 -0.0670 0.9706
vn 0.9621 -0.2688 -0.0466
vn 0.9612 -0.2718 -0.0470
vn 0.9614 -0.2710 -0.0469
vn 0.9620 -0.2690 -0.0466
vn -0.9606 0.2781 0.0000
vn -0.9606 0.2781 -0.0000
vn -0.9583 0.2856 -0.0000
vn -0.9583 0.2856 0.0000
vn -0.2675 -0.9635 -0.0099
vn -0.9091 0.4166 -0.0036
vn -0.9091 0.4166 -0.0032
vn -0.5462 -0.8377 -0.0022
vn -0.9843 0.1759 -0.0125
vn 0.1231 0.9924 -0.0007
vn 0.1228 0.9924 0.0003
vn 0.1225 0.9925 0.0013
vn 0.9986 -0.0533 -0.0034
vn 0.1814 0.9834 0.0077
vn 0.2043 0.9789 0.0049
vn 0.2121 0.9772 0.0041
vn 0.9785 -0.2007 -0.0478
vn 0.9757 -0.2136 -0.0480
vn 0.9728 -0.2265 -0.0486
vn 0.9728 -0.2265 -0.0483
vn 0.9621 -0.2687 -0.0464
vn 0.9612 -0.2717 -0.0468
vn -0.2726 -0.9621 0.0002
vn -0.2797 -0.9599 -0.0186
vn -0.0472 0.0097 -0.9988
vn -0.0470 0.0103 -0.9988
vn 0.2270 0.9739 0.0023
vn 0.2273 0.9738 0.0027
vn 0.0470 -0.0103 0.9988
vn 0.0472 -0.0097 0.9988
vn 0.0469 -0.0103 0.9988
vn -0.0484 0.0030 -0.9988
vn -0.0502 -0.0048 -0.9987
vn 0.0508 0.0076 0.9987
vn 0.0487 -0.0016 0.9988
vn -0.0476 0.0051 -0.9989
vn -0.0456 0.0129 -0.9989
vn 0.0492 -0.0140 0.9987
vn 0.0503 -0.0048 0.9987
vn -0.2747 -0.9615 0.0004
vn -0.2748 -0.9615 0.0003
vn -0.2681 -0.9633 -0.0100
vn -0.9090 0.4168 -0.0036
vn -0.9090 0.4168 -0.0032
vn -0.5459 -0.8378 -0.0022
vn -0.9796 0.2008 -0.0125
vn 0.1233 0.9924 -0.0007
vn 0.1229 0.9924 0.0003
vn 0.1226 0.9925 0.0013
vn 0.9983 -0.0585 -0.0035
vn 0.1812 0.9834 0.0077
vn 0.2272 0.9739 0.0023
vn 0.2270 0.9739 0.0022
vn 0.9785 -0.2006 -0.0478
vn 0.9758 -0.2135 -0.0481
vn 0.9757 -0.2136 -0.0481
vn 0.9728 -0.2266 -0.0486
vn 0.9728 -0.2267 -0.0483
vn 0.9728 -0.2266 -0.0484
vn 0.9621 -0.2685 -0.0467
vn 0.9613 -0.2715 -0.0472
vn 0.9613 -0.2716 -0.0471
vn 0.9621 -0.2686 -0.0466
vn -0.2748 -0.9615 0.0002
vn -0.2746 -0.9616 0.0003
vn -0.2727 -0.9621 0.0001
vn -0.2726 -0.9621 0.0001
vn -0.2705 -0.9627 -0.0000
vn 0.9728 -0.2265 -0.0487
vn 0.9621 -0.2687 -0.0466
vn 0.9613 -0.2716 -0.0470
vn 0.2272 0.9739 0.0025
vn 0.2269 0.9739 0.0023
vn 0.0471 -0.0103 0.9988
vn 0.0473 -0.0097 0.9988
vn 0.0509 0.0075 0.9987
vn 0.0488 -0.0017 0.9988
vn 0.0456 -0.0129 0.9989
vn 0.0480 -0.0037 0.9988
vn -0.2744 -0.9616 0.0004
vn -0.0470 0.0096 -0.9988
vn -0.0468 0.0102 -0.9989
vn 0.2266 0.9740 0.0022
vn -0.0483 0.0028 -0.9988
vn -0.0501 -0.0053 -0.9987
vn -0.0475 0.0048 -0.9989
vn -0.0454 0.0128 -0.9989
vn -0.2752 -0.9614 0.0002
vn -0.0455 0.0130 -0.9989
vn 0.9603 -0.2747 -0.0482
vn 0.9603 -0.2748 -0.0486
vn 0.9602 -0.2749 -0.0486
vn 0.9603 -0.2749 -0.0481
vn -0.9627 0.2704 -0.0000
vn -0.9627 0.2705 -0.0000
vn 0.2283 -0.0647 0.9714
vn 0.4027 -0.1141 0.9082
vn 0.4030 -0.1142 0.9081
vn 0.2284 -0.0648 0.9714
vn 0.0456 -0.0130 0.9989
vn 0.9604 -0.2745 -0.0483
vn 0.9604 -0.2745 -0.0487
vn 0.9603 -0.2745 -0.0487
vn 0.9603 -0.2746 -0.0487
vn 0.9603 -0.2746 -0.0483
vn -0.0454 0.0130 -0.9989
vn 0.9603 -0.2747 -0.0480
vn 0.9603 -0.2746 -0.0484
vn 0.9603 -0.2748 -0.0487
vn 0.9602 -0.2750 -0.0487
vn -0.9628 0.2704 -0.0000
vn 0.4031 -0.1142 0.9080
vn 0.2285 -0.0648 0.9714
vn 0.9604 -0.2744 -0.0488
vn 0.9603 -0.2745 -0.0489
vn 0.9603 -0.2746 -0.0489
vn 0.9603 -0.2746 -0.0486
vn 0.9604 -0.2747 -0.0474
vn 0.9603 -0.2748 -0.0477
vn 0.9603 -0.2749 -0.0478
vn -0.9627 0.2704 0.0000
vn 0.2281 -0.0647 0.9715
vn 0.4023 -0.1140 0.9084
vn 0.9604 -0.2745 -0.0479
vn 0.9604 -0.2745 -0.0478
vn 0.9604 -0.2746 -0.0478
vn 0.9672 -0.2520 -0.0317
vn 0.9589 -0.2821 -0.0293
vn 0.9563 -0.2900 -0.0379
vn 0.9629 -0.2674 -0.0366
vn -0.9579 0.2869 -0.0072
vn -0.9578 0.2874 -0.0072
vn -0.9357 0.3528 -0.0069
vn -0.9359 0.3521 -0.0069
vn -0.9577 0.2877 -0.0072
vn -0.9356 0.3531 -0.0069
vn -0.9577 0.2878 -0.0072
vn -0.9355 0.3532 -0.0068
vn 0.1323 -0.0210 0.9910
vn -0.3575 0.0696 0.9313
vn -0.3609 0.0543 0.9310
vn 0.1324 -0.0216 0.9910
vn 0.5923 -0.0921 0.8004
vn 0.5888 -0.1063 0.8013
vn 0.0493 0.0065 0.9988
vn 0.0481 0.0066 0.9988
vn 0.0506 0.0064 0.9987
vn 0.9677 -0.2480 -0.0461
vn 0.9620 -0.2692 -0.0460
vn 0.9677 -0.2480 -0.0462
vn 0.9620 -0.2692 -0.0461
vn 0.9677 -0.2480 -0.0463
vn -0.0499 -0.0041 -0.9987
vn 0.9677 -0.2479 -0.0464
vn 0.9620 -0.2692 -0.0463
vn -0.0498 -0.0037 -0.9987
vn 0.9737 -0.2241 -0.0409
vn 0.9734 -0.2248 -0.0433
vn -0.9092 0.4164 -0.0059
vn -0.9095 0.4157 -0.0059
vn -0.9090 0.4167 -0.0059
vn -0.9089 0.4169 -0.0059
vn 0.1314 -0.0199 0.9911
vn -0.3555 0.0856 0.9308
vn 0.5852 -0.1204 0.8019
vn 0.9728 -0.2267 -0.0467
vn 0.9729 -0.2266 -0.0468
vn -0.0502 -0.0052 -0.9987
vn 0.9729 -0.2265 -0.0468
vn -0.0501 -0.0048 -0.9987
vn 0.9728 -0.2272 -0.0445
vn 0.9729 -0.2268 -0.0457
vn -0.9092 0.4163 -0.0046
vn -0.9095 0.4156 -0.0046
vn -0.9090 0.4167 -0.0046
vn -0.9090 0.4168 -0.0046
vn 0.1296 -0.0192 0.9914
vn -0.3590 0.0868 0.9293
vn 0.5853 -0.1204 0.8019
vn 0.9728 -0.2267 -0.0476
vn 0.9728 -0.2266 -0.0476
vn 0.9728 -0.2266 -0.0477
vn 0.9729 -0.2265 -0.0476
vn 0.9730 -0.2270 -0.0424
vn 0.9727 -0.2276 -0.0444
vn -0.3381 0.0700 0.9385
vn -0.3541 0.0743 0.9322
vn 0.1228 -0.0290 0.9920
vn 0.5838 -0.1291 0.8016
vn 0.0467 -0.0109 0.9989
vn 0.0467 -0.0109 0.9988
vn 0.9728 -0.2264 -0.0484
vn 0.9728 -0.2264 -0.0485
vn 0.9728 -0.2265 -0.0485
vn -0.0465 0.0108 -0.9989
vn 0.9728 -0.2265 -0.0484
vn -0.0467 0.0109 -0.9989
vn -0.3344 0.0687 0.9399
vn 0.9602 -0.2752 -0.0484
vn 0.9601 -0.2755 -0.0484
vn 0.9601 -0.2755 -0.0480
vn 0.9601 -0.2756 -0.0478
vn 0.9602 -0.2752 -0.0475
vn 0.9611 -0.2727 -0.0435
vn 0.9617 -0.2711 -0.0415
vn 0.9594 -0.2785 -0.0441
vn 0.9647 -0.2593 -0.0463
vn 0.9751 -0.2169 -0.0473
vn 0.9734 -0.2240 -0.0482
vn 0.9731 -0.2256 -0.0470
vn 0.9722 -0.2289 -0.0494
vn 0.9723 -0.2286 -0.0487
vn 0.9738 -0.2223 -0.0489
vn 0.9730 -0.2254 -0.0492
vn 0.9723 -0.2280 -0.0506
vn 0.9728 -0.2268 -0.0478
vn 0.9766 -0.2091 -0.0500
vn 0.9786 -0.2001 -0.0487
vn 0.1785 0.9839 0.0034
vn 0.9955 -0.0928 -0.0215
vn 0.1207 0.9927 0.0013
vn 0.1208 0.9927 0.0003
vn 0.1210 0.9927 -0.0007
vn -0.5495 -0.8355 -0.0023
vn -0.9101 0.4144 -0.0032
vn -0.9101 0.4144 -0.0036
vn -0.9101 0.4144 -0.0046
vn -0.9100 0.4145 -0.0059
vn -0.9363 0.3510 -0.0069
vn -0.9582 0.2859 -0.0072
vn -0.2686 -0.9633 0.0000
vn -0.2704 -0.9627 0.0000
vn 0.9601 -0.2755 -0.0487
vn 0.9600 -0.2758 -0.0477
vn 0.9607 -0.2744 -0.0420
vn 0.9613 -0.2729 -0.0365
vn 0.9650 -0.2590 -0.0417
vn 0.9697 -0.2399 -0.0462
vn 0.9737 -0.2229 -0.0482
vn 0.9733 -0.2250 -0.0458
vn 0.9724 -0.2283 -0.0481
vn 0.9737 -0.2226 -0.0486
vn 0.9730 -0.2254 -0.0497
vn 0.9724 -0.2277 -0.0518
vn 0.9755 -0.2138 -0.0513
vn 0.9784 -0.2005 -0.0498
vn 0.1782 0.9840 0.0034
vn 0.9936 -0.1105 -0.0216
vn 0.1202 0.9927 0.0013
vn 0.1202 0.9927 0.0003
vn 0.1203 0.9927 -0.0007
vn -0.5505 -0.8348 -0.0023
vn -0.9104 0.4137 -0.0032
vn -0.9104 0.4138 -0.0036
vn -0.9104 0.4138 -0.0046
vn -0.9104 0.4138 -0.0059
vn -0.9366 0.3504 -0.0069
vn -0.9584 0.2854 -0.0072
vn 0.9600 -0.2757 -0.0487
vn 0.9600 -0.2758 -0.0484
vn 0.9600 -0.2758 -0.0480
vn -0.2754 -0.9613 0.0002
vn -0.0465 0.0133 -0.9988
vn 0.2754 0.9613 -0.0002
vn 0.2752 0.9614 -0.0003
vn 0.0465 -0.0134 0.9988
vn -0.2756 -0.9613 0.0002
vn 0.2756 0.9613 -0.0002
vn 0.0456 -0.0131 0.9989
vn -0.2757 -0.9612 0.0003
vn -0.0456 0.0130 -0.9989
vn 0.2757 0.9612 -0.0003
vn 0.0462 -0.0056 0.9989
vn -0.2262 -0.9741 -0.0022
vn -0.0483 -0.0032 -0.9988
vn 0.2262 0.9741 0.0022
vn -0.2260 -0.9741 -0.0023
vn -0.2257 -0.9742 -0.0022
vn -0.0500 -0.0030 -0.9987
vn 0.2257 0.9742 0.0022
vn 0.2260 0.9741 0.0022
vn 0.0467 -0.0110 0.9988
vn -0.2255 -0.9742 -0.0022
vn 0.2255 0.9742 0.0022
vn -0.0469 0.0109 -0.9988
vn 0.2268 0.9739 0.0021
vn 0.0469 -0.0110 0.9988
vn -0.2268 -0.9739 -0.0021
vn -0.3161 -0.9487 -0.0000
vn 0.3161 0.9487 -0.0000
vn 0.9487 -0.3161 -0.0000
vn -0.9487 0.3160 -0.0000
vn -0.9487 0.3161 -0.0000
vn -0.3162 -0.9487 -0.0000
vn -0.2475 -0.9689 -0.0000
vn 0.2474 0.9689 -0.0000
vn 0.9725 -0.2329 -0.0000
vn -0.9725 0.2329 -0.0000
vn -0.9727 0.2321 -0.0000
vn 0.9727 -0.2321 -0.0000
vn -0.2916 -0.9565 -0.0000
vn 0.2918 0.9565 -0.0000
vn 0.9571 -0.2898 -0.0000
vn -0.9571 0.2898 -0.0000
# 377 vertex normals

vt 1.8037 -0.7787 0.0000
vt 1.0906 -0.7787 0.0000
vt 1.0906 -2.1644 0.0000
vt 1.8037 -2.1644 0.0000
vt 2.5560 -0.7787 0.0000
vt 1.8429 -0.7787 0.0000
vt 1.8429 -2.1644 0.0000
vt 2.5560 -2.1644 0.0000
vt -0.4040 2.0987 0.0000
vt -1.1171 1.9352 0.0000
vt -0.8848 0.9220 0.0000
vt -0.1717 1.0856 0.0000
vt 2.8899 0.6265 0.0000
vt 1.8768 0.6265 0.0000
vt 1.8768 -0.7592 0.0000
vt 2.8899 -0.7592 0.0000
vt 0.8337 0.9220 0.0000
vt 1.8468 0.9220 0.0000
vt 1.8468 2.3077 0.0000
vt 0.8337 2.3077 0.0000
vt 0.5352 1.0103 0.0000
vt -0.0709 1.1491 0.0000
vt -0.1417 1.0856 0.0000
vt 0.5714 0.9220 0.0000
vt 0.7328 1.8715 0.0000
vt 0.8037 1.9352 0.0000
vt 0.1266 2.0103 0.0000
vt 0.0906 2.0987 0.0000
vt -1.3706 0.9025 0.0000
vt -1.9767 0.9025 0.0000
vt -1.9767 -2.1644 0.0000
vt -1.3706 -2.1644 0.0000
vt -0.4765 0.9025 0.0000
vt -1.3377 0.9025 0.0000
vt -1.3377 -2.1644 0.0000
vt -0.4765 -2.1644 0.0000
vt -0.4426 -2.1644 0.0000
vt 0.1636 -2.1644 0.0000
vt 0.1636 0.9025 0.0000
vt -0.4426 0.9025 0.0000
vt 0.1955 -2.1644 0.0000
vt 1.0566 -2.1644 0.0000
vt 1.0566 0.9025 0.0000
vt 0.1955 0.9025 0.0000
vt 0.5586 0.0233 0.0000
vt 0.4618 0.0272 0.0000
vt 0.4357 0.0224 0.0000
vt 0.5702 0.0170 0.0000
vt 0.5879 0.0458 0.0000
vt 0.6140 0.0506 0.0000
vt 0.4911 0.0498 0.0000
vt 0.4795 0.0561 0.0000
vt 0.8983 0.0242 0.0000
vt 0.8983 0.0413 0.0000
vt 0.8573 0.0413 0.0000
vt 0.8573 0.0242 0.0000
vt 0.7601 0.0386 0.0000
vt 0.7601 0.0161 0.0000
vt 0.8011 0.0161 0.0000
vt 0.8011 0.0386 0.0000
vt 0.8087 0.0331 0.0000
vt 0.8087 0.0161 0.0000
vt 0.8497 0.0161 0.0000
vt 0.8497 0.0331 0.0000
vt 0.7525 0.0161 0.0000
vt 0.7525 0.0386 0.0000
vt 0.7116 0.0386 0.0000
vt 0.7116 0.0161 0.0000
vt 0.6693 0.0412 0.0000
vt 0.6693 0.0161 0.0000
vt 0.6824 0.0161 0.0000
vt 0.6824 0.0412 0.0000
vt 0.6482 0.0512 0.0000
vt 0.6482 0.0161 0.0000
vt 0.6613 0.0161 0.0000
vt 0.6613 0.0512 0.0000
vt 0.7036 0.0161 0.0000
vt 0.7036 0.0412 0.0000
vt 0.6904 0.0412 0.0000
vt 0.6904 0.0161 0.0000
vt 0.6402 0.0161 0.0000
vt 0.6402 0.0512 0.0000
vt 0.6271 0.0512 0.0000
vt 0.6271 0.0161 0.0000
vt 0.2796 0.0161 0.0000
vt 0.4224 0.0218 0.0000
vt 0.4173 0.0224 0.0000
vt 0.2828 0.0170 0.0000
vt 0.6191 0.0512 0.0000
vt 0.4763 0.0570 0.0000
vt 0.3767 0.0570 0.0000
vt 0.3735 0.0561 0.0000
vt 0.5734 0.0161 0.0000
vt 0.2339 0.0512 0.0000
vt 0.2390 0.0507 0.0000
vt 0.4306 0.0218 0.0000
vt 0.5000 0.2050 0.0000
vt 0.4075 0.2050 0.0000
vt 0.4075 0.1824 0.0000
vt 0.5000 0.1824 0.0000
vt 1.1933 -0.1800 0.0000
vt 2.8685 5.4749 0.0000
vt 2.1727 5.5950 0.0000
vt 0.7212 -0.2100 0.0000
vt 0.5000 0.5676 0.0000
vt 0.4075 0.5676 0.0000
vt 0.4075 0.5450 0.0000
vt 0.5000 0.5450 0.0000
vt 0.5000 0.8783 0.0000
vt 0.4075 0.8783 0.0000
vt 0.4075 0.8592 0.0000
vt 0.5000 0.8592 0.0000
vt 0.7658 0.2050 0.0000
vt 0.7467 0.2050 0.0000
vt 0.7467 0.1824 0.0000
vt 0.7658 0.1824 0.0000
vt 0.6250 0.5676 0.0000
vt 0.6250 0.5450 0.0000
vt 0.6250 0.8592 0.0000
vt 0.6250 0.8783 0.0000
vt 3.2400 -6.2884 0.0000
vt 4.0967 -6.2608 0.0000
vt 9.8632 0.5379 0.0000
vt 9.2819 4.7095 0.0000
vt 8.2626 4.5889 0.0000
vt 8.6352 0.2479 0.0000
vt 0.4075 0.7500 0.0000
vt 0.5000 0.7500 0.0000
vt 0.3750 0.5450 0.0000
vt 0.3750 0.5676 0.0000
vt 0.1708 0.2050 0.0000
vt 0.1250 0.2050 0.0000
vt 0.1250 0.1824 0.0000
vt 0.1708 0.1824 0.0000
vt 0.5000 0.7958 0.0000
vt 0.4075 0.7958 0.0000
vt 0.6250 0.7500 0.0000
vt 0.6250 0.7958 0.0000
vt 0.8750 0.1824 0.0000
vt 0.8750 0.2050 0.0000
vt 0.8292 0.2050 0.0000
vt 0.8292 0.1824 0.0000
vt 6.9480 -6.1383 0.0000
vt 9.0052 -6.0500 0.0000
vt 5.5165 0.0686 0.0000
vt 6.0019 4.9602 0.0000
vt 0.3750 0.7958 0.0000
vt 0.3750 0.7500 0.0000
vt 8.8437 7.8552 0.0000
vt 7.9740 7.7779 0.0000
vt 6.1002 7.7006 0.0000
vt 0.4075 0.4720 0.0000
vt 0.4075 0.4385 0.0000
vt 0.4075 0.4751 0.0000
vt 0.4075 0.5174 0.0000
vt 0.2596 0.3597 0.0000
vt 0.2723 0.4147 0.0000
vt 0.6250 0.2050 0.0000
vt 0.3750 0.2050 0.0000
vt 0.3750 0.1824 0.0000
vt 0.6250 0.1824 0.0000
vt -2.2212 -6.4645 0.0000
vt -2.1116 -1.6000 0.0000
vt -4.9474 -1.5361 0.0000
vt -5.0568 -6.3890 0.0000
vt 0.6250 0.8600 0.0000
vt 0.3750 0.8600 0.0000
vt 0.7650 0.2050 0.0000
vt 0.7650 0.1824 0.0000
vt 0.2350 0.2225 0.0000
vt 0.2350 0.2500 0.0000
vt 0.1250 0.2500 0.0000
vt 0.1250 0.2225 0.0000
vt 0.5000 0.2323 0.0000
vt 0.4075 0.2323 0.0000
vt 0.4075 0.3979 0.0000
vt 0.4075 0.4239 0.0000
vt 0.2442 0.2931 0.0000
vt 0.1708 0.2323 0.0000
vt 0.1250 0.2323 0.0000
vt 0.3750 0.5177 0.0000
vt 0.4075 0.5177 0.0000
vt 0.5000 0.5177 0.0000
vt 0.6250 0.5177 0.0000
vt 0.6250 0.5375 0.0000
vt 0.9193 0.2859 0.0000
vt 0.9193 0.3623 0.0000
vt 0.6587 0.3623 0.0000
vt 0.6587 0.2859 0.0000
vt 0.5986 0.3623 0.0000
vt 0.5802 0.3623 0.0000
vt 0.5802 0.2859 0.0000
vt 0.5986 0.2859 0.0000
vt 0.4633 0.2859 0.0000
vt 0.4633 0.3623 0.0000
vt 0.4043 0.3623 0.0000
vt 0.4043 0.2859 0.0000
vt 0.6250 0.2125 0.0000
vt 0.3750 0.2125 0.0000
vt 0.4509 0.3482 0.0000
vt 0.3750 0.5000 0.0000
vt 0.6250 0.2500 0.0000
vt 0.5000 0.2500 0.0000
vt 0.8750 0.2125 0.0000
vt 6.9518 -6.2278 0.0000
vt 9.0090 -6.1395 0.0000
vt 3.2426 -6.3780 0.0000
vt 4.1002 -6.3503 0.0000
vt -5.0579 -6.4784 0.0000
vt -2.2213 -6.5539 0.0000
vt 0.2079 0.2859 0.0000
vt 0.2079 0.3623 0.0000
vt 0.1982 0.3623 0.0000
vt 0.1982 0.2859 0.0000
vt 0.4075 0.2500 0.0000
vt 0.4075 0.3717 0.0000
vt 0.4075 0.3908 0.0000
vt 0.2342 0.2500 0.0000
vt 0.1708 0.2500 0.0000
vt 0.4075 0.5000 0.0000
vt 0.5000 0.5000 0.0000
vt 0.6250 0.5000 0.0000
vt 0.9330 0.9745 0.0000
vt 0.9193 0.9745 0.0000
vt 0.9193 0.7364 0.0000
vt 0.9330 0.7364 0.0000
vt 0.9187 0.7364 0.0000
vt 0.9187 0.9284 0.0000
vt 0.6587 0.9284 0.0000
vt 0.6587 0.7364 0.0000
vt 0.5986 0.9284 0.0000
vt 0.5802 0.9284 0.0000
vt 0.5802 0.7364 0.0000
vt 0.5986 0.7364 0.0000
vt 0.4633 0.9284 0.0000
vt 0.4043 0.9284 0.0000
vt 0.4043 0.7364 0.0000
vt 0.4633 0.7364 0.0000
vt 0.2079 0.7364 0.0000
vt 0.2079 0.9745 0.0000
vt 0.1982 0.9745 0.0000
vt 0.1982 0.7364 0.0000
vt 0.3750 0.2500 0.0000
vt 0.3750 0.2323 0.0000
vt 0.6250 0.2323 0.0000
vt 0.9330 0.3623 0.0000
vt 0.9187 0.3967 0.0000
vt 0.6587 0.3967 0.0000
vt 0.5802 0.3967 0.0000
vt 0.5986 0.3967 0.0000
vt 0.4633 0.3967 0.0000
vt 0.4043 0.3967 0.0000
vt 0.6587 0.9745 0.0000
vt 0.5986 0.9745 0.0000
vt 0.5802 0.9745 0.0000
vt 0.4633 0.9745 0.0000
vt 0.4043 0.9745 0.0000
vt 0.2120 0.7364 0.0000
vt 0.2120 0.9284 0.0000
vt 0.2120 0.3967 0.0000
vt 0.6761 0.2050 0.0000
vt 0.6379 0.2050 0.0000
vt 0.6379 0.1824 0.0000
vt 0.6761 0.1824 0.0000
vt 0.6250 0.9871 0.0000
vt 0.3750 0.9871 0.0000
vt 0.3750 0.9489 0.0000
vt 0.6250 0.9489 0.0000
vt 0.3621 0.2225 0.0000
vt 0.3621 0.2500 0.0000
vt 0.3239 0.2500 0.0000
vt 0.3239 0.2225 0.0000
vt -7.3477 -6.3280 0.0000
vt -7.2384 -1.4845 0.0000
vt -8.2236 -1.4622 0.0000
vt -8.3327 -6.3017 0.0000
vt -8.3350 -6.3911 0.0000
vt -7.3496 -6.4173 0.0000
vt 0.2453 0.9745 0.0000
vt 0.2453 0.9284 0.0000
vt 0.3592 0.9284 0.0000
vt 0.3592 0.9745 0.0000
vt 0.2453 0.7364 0.0000
vt 0.3592 0.7364 0.0000
vt 0.2453 0.3967 0.0000
vt 0.3592 0.3967 0.0000
vt 0.2453 0.3623 0.0000
vt 0.3592 0.3623 0.0000
vt 0.3592 0.2859 0.0000
vt 0.2453 0.2859 0.0000
vt 0.6250 1.0000 0.0000
vt 0.3750 1.0000 0.0000
vt -8.5560 -1.4548 0.0000
vt -8.6651 -6.2929 0.0000
vt -8.6675 -6.3822 0.0000
vt 0.3791 0.3967 0.0000
vt 0.3791 0.3623 0.0000
vt 0.3791 0.2859 0.0000
vt 0.7166 0.2050 0.0000
vt 0.7166 0.1824 0.0000
vt 0.3750 0.9084 0.0000
vt 0.6250 0.9084 0.0000
vt 0.2834 0.2500 0.0000
vt 0.2834 0.2225 0.0000
vt -6.3037 -6.3558 0.0000
vt -6.1944 -1.5080 0.0000
vt -6.3053 -6.4451 0.0000
vt 0.3791 0.9284 0.0000
vt 0.3791 0.9745 0.0000
vt 0.3791 0.7364 0.0000
vt 0.6339 0.2050 0.0000
vt 0.6339 0.1824 0.0000
vt 0.6250 0.9911 0.0000
vt 0.5000 1.0000 0.0000
vt 0.5000 0.9911 0.0000
vt 0.4075 1.0000 0.0000
vt 0.4075 0.9911 0.0000
vt 0.4075 0.2221 0.0000
vt 0.4075 0.2036 0.0000
vt 0.4075 0.2445 0.0000
vt 0.4075 0.2589 0.0000
vt -2.0675 -0.3877 0.0000
vt -1.9385 6.3057 0.0000
vt -2.2633 6.3618 0.0000
vt -2.2879 -0.4017 0.0000
vt -1.8213 -6.4516 0.0000
vt -1.8205 -6.5412 0.0000
vt 0.4714 0.9284 0.0000
vt 0.4714 0.9745 0.0000
vt 0.4714 0.7364 0.0000
vt 0.4714 0.3967 0.0000
vt 0.4714 0.3623 0.0000
vt 0.4714 0.2859 0.0000
vt 0.6608 0.2050 0.0000
vt 0.6608 0.1824 0.0000
vt 0.6250 0.9642 0.0000
vt 0.5000 0.9642 0.0000
vt 0.4075 0.9642 0.0000
vt 0.4075 0.2737 0.0000
vt 0.4075 0.2676 0.0000
vt 0.4075 0.2811 0.0000
vt 0.4075 0.2858 0.0000
vt -1.4024 -0.3453 0.0000
vt -0.9578 6.1361 0.0000
vt -0.6141 -6.4127 0.0000
vt -0.6128 -6.5022 0.0000
vt 0.4971 0.9284 0.0000
vt 0.4971 0.9745 0.0000
vt 0.4971 0.7364 0.0000
vt 0.4971 0.3967 0.0000
vt 0.4971 0.3623 0.0000
vt 0.4971 0.2859 0.0000
vt 0.7133 0.2050 0.0000
vt 0.7133 0.1824 0.0000
vt 0.6250 0.9117 0.0000
vt 0.5000 0.9117 0.0000
vt 0.4075 0.9117 0.0000
vt 0.4075 0.3745 0.0000
vt 0.4075 0.3926 0.0000
vt 0.4075 0.3525 0.0000
vt 0.4075 0.3383 0.0000
vt -0.1039 -0.2626 0.0000
vt 0.9564 5.8052 0.0000
vt 1.7426 -6.3366 0.0000
vt 1.7447 -6.4262 0.0000
vt 0.5479 0.9284 0.0000
vt 0.5479 0.9745 0.0000
vt 0.5479 0.7364 0.0000
vt 0.5479 0.3967 0.0000
vt 0.5479 0.3623 0.0000
vt 0.5479 0.2859 0.0000
vt 0.8026 0.2050 0.0000
vt 0.8026 0.1824 0.0000
vt 0.6250 0.8224 0.0000
vt 0.5000 0.8224 0.0000
vt 0.4075 0.8224 0.0000
vt 0.3750 0.8224 0.0000
vt 0.1974 0.1824 0.0000
vt 0.1974 0.2050 0.0000
vt 0.1974 0.2323 0.0000
vt 0.1974 0.2500 0.0000
vt 5.0094 7.6557 0.0000
vt 4.6860 5.1763 0.0000
vt 3.7009 -0.0358 0.0000
vt 5.7506 -6.1898 0.0000
vt 5.7544 -6.2792 0.0000
vt 0.6337 0.9745 0.0000
vt 0.6337 0.9284 0.0000
vt 0.6337 0.7364 0.0000
vt 0.6337 0.3967 0.0000
vt 0.6337 0.3623 0.0000
vt 0.6337 0.2859 0.0000
vt 0.3750 0.8592 0.0000
vt 0.2342 0.1824 0.0000
vt 0.2342 0.2050 0.0000
vt 0.2342 0.2323 0.0000
vt 3.5030 7.5937 0.0000
vt 0.9594 1.0000 0.0000
vt -0.0000 0.9940 0.0000
vt 0.0272 0.2545 0.0000
vt 0.9866 0.2606 0.0000
vt 0.6761 0.0602 0.0000
vt 0.7166 0.0602 0.0000
vt 0.9782 1.0000 0.0000
vt -0.0000 0.9886 0.0000
vt 0.0218 -0.0000 0.0000
vt 1.0000 0.0114 0.0000
vt 0.7650 0.0602 0.0000
vt 0.8750 0.0602 0.0000
vt 0.6250 0.0602 0.0000
vt 0.6339 0.0602 0.0000
vt 0.9755 1.0000 0.0000
vt -0.0000 0.9973 0.0000
vt 0.0245 -0.0000 0.0000
vt 0.9999 0.0093 0.0000
vt 0.6608 0.0602 0.0000
vt 0.7133 0.0602 0.0000
vt 0.9686 0.9979 0.0000
vt -0.0009 0.9956 0.0000
vt 0.0195 0.2270 0.0000
vt 0.9889 0.2348 0.0000
vt 0.7467 0.0602 0.0000
vt 0.7658 0.0602 0.0000
vt 0.8026 0.0602 0.0000
vt 0.0158 -0.0000 0.0000
vt 0.9999 0.0005 0.0000
vt 0.9842 1.0000 0.0000
vt -0.0000 0.9994 0.0000
vt 0.8292 0.0602 0.0000
vt 0.6250 0.6898 0.0000
vt 0.5000 0.6898 0.0000
vt 0.4075 0.6898 0.0000
vt 0.3750 0.6898 0.0000
vt 0.1250 0.0602 0.0000
vt 0.1708 0.0602 0.0000
vt 0.1974 0.0602 0.0000
vt 0.2342 0.0602 0.0000
vt 0.3411 0.7125 0.0000
vt 0.4075 0.7464 0.0000
vt 0.4075 0.6533 0.0000
vt 0.4075 0.4907 0.0000
vt 0.4075 0.2348 0.0000
vt 0.4075 0.1037 0.0000
vt 0.4075 0.0602 0.0000
vt 0.5000 0.0602 0.0000
vt 0.1250 0.0734 0.0000
vt 0.2350 0.0734 0.0000
vt 0.2834 0.0734 0.0000
vt 0.3239 0.0734 0.0000
vt 0.3621 0.0734 0.0000
vt 0.3750 0.0602 0.0000
vt 0.6379 0.0602 0.0000
vt 0.7166 0.0000 0.0000
vt 0.7650 0.0000 0.0000
vt 0.8750 0.0000 0.0000
vt 0.6250 0.0000 0.0000
vt 0.6339 0.0000 0.0000
vt 0.6608 0.0000 0.0000
vt 0.7133 0.0000 0.0000
vt 0.0298 -0.0446 0.0000
vt 0.9991 -0.0340 0.0000
vt 0.7467 0.0000 0.0000
vt 0.7658 0.0000 0.0000
vt 0.8026 0.0000 0.0000
vt 0.8292 0.0000 0.0000
vt 0.1250 0.0000 0.0000
vt 0.1708 0.0000 0.0000
vt 0.1974 0.0000 0.0000
vt 0.2342 0.0000 0.0000
vt 0.4075 0.7427 0.0000
vt 0.4075 0.5391 0.0000
vt 0.4075 0.2186 0.0000
vt 0.4075 0.0544 0.0000
vt 0.4075 0.0000 0.0000
vt 0.5000 0.0000 0.0000
vt 0.2350 0.0000 0.0000
vt 0.2834 0.0000 0.0000
vt 0.3239 0.0000 0.0000
vt 0.3621 0.0000 0.0000
vt 0.3750 0.0000 0.0000
vt 0.6379 0.0000 0.0000
vt 0.0406 -0.0552 0.0000
vt 1.0000 -0.0492 0.0000
vt 0.6761 0.0000 0.0000
vt 0.4951 0.0223 0.0000
vt 0.4570 0.0223 0.0000
vt 0.4570 0.0186 0.0000
vt 0.4951 0.0186 0.0000
vt 0.4951 0.0339 0.0000
vt 0.4570 0.0339 0.0000
vt 0.4951 0.0375 0.0000
vt 0.4570 0.0375 0.0000
vt 0.4951 0.0572 0.0000
vt 0.4570 0.0572 0.0000
vt 0.4570 0.0455 0.0000
vt 0.4951 0.0455 0.0000
vt 0.5332 0.0223 0.0000
vt 0.5332 0.0186 0.0000
vt 0.4189 0.0223 0.0000
vt 0.4189 0.0186 0.0000
vt 0.4189 0.0106 0.0000
vt 0.4570 0.0106 0.0000
vt 0.4951 0.0106 0.0000
vt 0.5332 0.0106 0.0000
vt 0.8736 0.0957 0.0000
vt 0.8269 0.0957 0.0000
vt 0.8269 0.0048 0.0000
vt 0.8736 0.0048 0.0000
vt 0.9229 0.0957 0.0000
vt 0.8762 0.0957 0.0000
vt 0.8762 0.0048 0.0000
vt 0.9229 0.0048 0.0000
vt 0.6167 0.2155 0.0000
vt 0.6144 0.1258 0.0000
vt 0.7418 0.1226 0.0000
vt 0.7441 0.2123 0.0000
vt 0.6160 0.0984 0.0000
vt 0.5496 0.0984 0.0000
vt 0.5496 0.0076 0.0000
vt 0.6160 0.0076 0.0000
vt 0.8760 0.1257 0.0000
vt 0.9424 0.1257 0.0000
vt 0.9424 0.2165 0.0000
vt 0.8760 0.2165 0.0000
vt 0.7931 0.0201 0.0000
vt 0.7396 0.0195 0.0000
vt 0.7269 0.0026 0.0000
vt 0.8064 0.0036 0.0000
vt 0.7921 0.0737 0.0000
vt 0.8049 0.0906 0.0000
vt 0.7386 0.0731 0.0000
vt 0.7254 0.0897 0.0000
# 532 texture coords

g polySurface10
usemtl lambert8SG
s off
f 1/1/1 2/2/1 3/3/1 4/4/1 
f 5/5/2 6/6/2 7/7/2 8/8/2 
f 4/9/3 3/10/3 6/11/3 5/12/3 
f 8/13/4 1/14/4 4/15/4 5/16/4 
f 2/17/5 7/18/5 6/19/5 3/20/5 
s 6
f 9/21/6 10/22/6 2/23/6 1/24/6 
f 11/25/6 9/21/6 1/24/6 8/26/6 
f 12/27/6 11/25/6 8/26/6 7/28/6 
f 10/22/6 12/27/6 7/28/6 2/23/6 
s off
f 13/29/7 14/30/7 10/31/7 9/32/7 
f 15/33/8 13/34/8 9/35/8 11/36/8 
f 16/37/9 15/38/9 11/39/9 12/40/9 
f 14/41/5 16/42/5 12/43/5 10/44/5 
usemtl lambert3SG
s 11
f 17/45/10 18/46/10 19/47/10 20/48/6 
f 21/49/10 17/45/10 20/48/6 22/50/6 
f 23/51/10 21/49/10 22/50/6 24/52/10 
f 18/46/6 23/51/6 24/52/10 19/47/10 
s off
f 25/53/2 26/54/2 18/55/2 17/56/2 
f 27/57/5 25/58/5 17/59/5 21/60/5 
f 28/61/11 27/62/11 21/63/11 23/64/11 
f 26/65/4 28/66/4 23/67/4 18/68/4 
f 29/69/12 30/70/12 31/71/12 32/72/12 
f 30/73/8 33/74/8 34/75/8 31/76/8 
f 33/77/7 35/78/7 36/79/7 34/80/7 
f 35/81/5 29/82/5 32/83/5 36/84/5 
s 20
f 32/85/13 31/86/13 15/87/13 16/88/13 
s 11
f 30/89/6 29/90/10 24/52/10 22/50/6 
s 20
f 31/86/13 34/91/13 13/92/13 15/87/13 
s 11
f 33/93/6 30/89/6 22/50/6 20/48/6 
s 20
f 34/91/13 36/94/3 14/95/3 13/92/13 
s 11
f 35/96/10 33/93/6 20/48/6 19/47/10 
s 20
f 36/94/3 32/85/13 16/88/13 14/95/3 
s 11
f 29/90/10 35/96/10 19/47/10 24/52/10 
usemtl lambert2SG
s 21
f 37/97/14 38/98/14 39/99/15 40/100/15 
usemtl lambert7SG
s 22
f 41/101/16 42/102/17 43/103/18 44/104/19 
usemtl lambert2SG
s 23
f 45/105/20 46/106/21 47/107/22 48/108/23 
s 24
f 49/109/3 50/110/3 51/111/3 52/112/3 
s 25
f 53/113/24 54/114/25 55/115/26 56/116/27 
s 26
f 57/117/28 58/105/28 59/108/29 60/118/30 
s 24
f 61/119/3 62/120/3 49/109/3 52/112/3 
usemtl lambert7SG
s 22
f 63/121/31 64/122/32 41/101/16 44/104/19 
f 65/123/33 66/124/34 67/125/35 68/126/36 
usemtl lambert2SG
s 27
f 45/105/37 48/108/38 59/108/38 58/105/37 
s 24
f 69/127/39 70/128/39 71/128/40 72/127/40 
s 28
f 73/129/41 74/130/41 75/130/42 76/129/42 
f 77/131/43 76/132/42 75/133/42 78/134/43 
s 24
f 79/135/3 80/136/3 72/127/40 71/128/40 
f 71/128/40 81/137/3 82/138/3 79/135/3 
s 25
f 57/139/44 60/140/45 83/141/46 84/142/47 
usemtl lambert7SG
s 22
f 85/143/48 86/144/49 68/126/36 87/145/50 
f 87/145/50 68/126/36 67/125/35 88/146/51 
usemtl lambert2SG
s 24
f 80/136/3 89/147/3 90/148/52 72/127/40 
f 90/148/52 91/148/39 69/127/39 72/127/40 
s 23
f 46/106/21 74/130/53 73/129/54 47/107/22 
usemtl lambert7SG
s 22
f 66/124/34 92/149/55 93/150/56 67/125/35 
f 67/125/35 93/150/56 94/151/57 88/146/51 
usemtl lambert2SG
s 29
f 95/152/58 96/153/59 97/154/60 98/155/61 
s 30
f 97/154/62 99/156/62 100/157/63 98/155/63 
s 31
f 101/158/64 102/159/65 103/160/65 104/161/65 
usemtl lambert7SG
s 32
f 105/162/66 37/163/67 106/164/68 107/165/69 
usemtl lambert2SG
s 33
f 108/166/3 109/167/3 110/148/3 111/137/3 
s 34
f 112/140/70 113/168/71 114/169/72 115/139/73 
s 35
f 116/170/74 106/171/75 37/172/76 40/173/77 
s 21
f 117/174/78 118/175/78 38/98/14 37/97/14 
s 29
f 96/153/59 119/176/79 120/177/80 97/154/60 
s 30
f 120/177/81 121/178/81 99/156/62 97/154/62 
s 28
f 122/179/43 123/180/42 76/132/42 77/131/43 
f 123/181/42 124/181/82 73/129/41 76/129/42 
s 23
f 47/107/22 73/129/54 124/181/83 125/182/84 
f 48/108/23 47/107/22 125/182/84 126/183/85 
s 27
f 48/108/38 126/183/86 127/183/86 59/108/38 
s 26
f 127/183/87 128/184/88 129/185/89 60/118/30 
f 127/183/87 60/118/30 59/108/29 
usemtl lambert6SG
s 36
f 130/186/90 131/187/90 132/188/91 133/189/91 
f 134/190/92 135/191/93 136/192/93 137/193/92 
s 37
f 138/194/94 139/195/94 140/196/95 141/197/95 
usemtl lambert2SG
s 31
f 142/198/96 143/199/65 102/159/65 101/158/64 
s off
f 117/200/97 37/201/97 105/202/97 144/203/97 
s 39
f 60/140/98 130/140/98 133/141/99 83/141/99 
s 26
f 131/204/100 130/140/101 60/140/30 129/204/89 
usemtl lambert7SG
s 32
f 145/205/102 146/206/103 86/144/103 85/143/104 
usemtl lambert2SG
s 39
f 53/113/105 137/113/105 136/114/106 54/114/106 
usemtl lambert7SG
s 32
f 147/207/107 148/208/108 64/122/108 63/121/107 
usemtl lambert2SG
s 39
f 138/140/109 141/168/110 113/168/110 112/140/109 
usemtl lambert7SG
s 32
f 149/209/111 150/210/112 105/162/66 107/165/69 
usemtl lambert6SG
s 31
f 151/211/113 152/212/114 142/213/96 101/214/64 
usemtl lambert2SG
s 21
f 144/203/115 153/215/115 118/175/78 117/174/78 
s 29
f 119/176/79 43/216/116 42/217/117 120/177/80 
s 30
f 42/217/118 154/218/118 121/178/81 120/177/81 
s 28
f 94/219/43 93/172/119 123/180/42 122/179/43 
f 93/201/119 92/201/82 124/181/82 123/181/42 
s 23
f 125/182/84 124/181/83 92/201/120 66/220/121 
f 126/183/85 125/182/84 66/220/121 65/221/122 
s 27
f 126/183/86 65/221/123 68/221/123 127/183/86 
s 26
f 128/184/88 127/183/87 68/221/124 86/222/88 
usemtl lambert6SG
f 86/223/88 146/224/125 155/225/126 128/226/88 
s 40
f 156/227/127 157/228/127 158/229/128 159/230/129 
f 160/231/130 161/232/131 162/233/132 163/234/92 
s 41
f 164/235/133 165/236/134 166/237/135 167/238/136 
s 31
f 168/239/137 169/240/138 170/241/139 171/242/140 
usemtl lambert2SG
f 170/202/139 172/243/141 173/244/141 171/245/140 
usemtl lambert6SG
s 26
f 155/225/126 131/187/100 129/246/89 128/226/88 
s 40
f 174/247/90 156/227/127 159/230/129 175/248/129 
f 163/234/92 162/233/132 176/249/132 177/250/142 
s 41
f 178/251/143 167/238/136 166/237/135 179/252/144 
s 31
f 152/212/114 168/239/137 171/242/140 142/213/96 
usemtl lambert2SG
f 171/245/140 173/244/141 143/199/65 142/198/96 
usemtl lambert6SG
s 26
f 157/228/145 156/227/146 155/225/126 146/224/125 
s 32
f 158/229/147 157/228/148 146/224/103 145/253/102 
f 161/232/149 160/231/150 148/254/108 147/255/107 
f 165/236/151 164/235/152 150/256/112 149/257/111 
s 31
f 180/258/114 181/259/153 169/240/138 168/239/137 
s 42
f 174/247/154 175/248/155 132/188/155 131/187/154 
s 26
f 156/227/146 174/247/156 131/187/100 155/225/126 
s 42
f 177/250/157 176/249/158 135/191/158 134/190/157 
f 178/251/159 179/252/160 140/196/160 139/195/159 
s 31
f 182/260/161 180/258/114 168/239/137 152/212/114 
usemtl lambert2SG
s 39
f 183/261/162 184/262/162 185/262/162 186/261/162 
s 34
f 186/261/163 185/262/164 187/263/165 188/264/166 
s 33
f 189/265/3 190/266/3 191/267/3 192/268/3 
s 35
f 193/269/167 194/270/167 195/271/168 196/272/168 
usemtl lambert7SG
s 32
f 197/273/169 195/274/170 194/275/171 198/276/172 
f 198/276/172 199/277/173 200/278/173 197/273/169 
usemtl lambert6SG
f 199/279/173 201/280/173 202/281/173 200/282/173 
s 41
f 202/281/174 201/280/175 203/283/176 204/284/174 
f 204/284/174 203/283/176 205/285/177 206/286/178 
s 42
f 206/286/179 205/285/179 207/287/179 208/288/179 
s 37
f 183/289/180 208/288/180 207/287/181 184/290/181 
usemtl lambert2SG
s 39
f 184/262/162 151/158/162 101/158/162 185/262/162 
s 34
f 185/262/164 101/158/182 104/161/183 187/263/165 
s 33
f 209/291/3 210/292/3 190/266/3 189/265/3 
s 35
f 194/270/167 193/269/167 103/160/184 102/159/184 
f 194/270/167 102/159/184 143/199/184 173/244/184 
f 194/270/167 173/244/184 172/243/184 
usemtl lambert7SG
s 32
f 198/276/172 194/275/171 172/293/185 170/294/186 
f 170/294/186 169/295/173 199/277/173 198/276/172 
usemtl lambert6SG
f 169/240/173 181/259/173 201/280/173 199/279/173 
s 41
f 201/280/175 181/259/187 180/258/188 203/283/176 
f 203/283/176 180/258/188 182/260/189 205/285/177 
s 42
f 205/285/179 182/260/179 152/212/179 207/287/179 
s 37
f 207/287/181 152/212/190 151/211/190 184/290/181 
s 42
f 211/296/179 206/286/179 208/288/179 212/297/179 
s 37
f 213/298/191 212/297/191 208/288/180 183/289/180 
usemtl lambert2SG
s 39
f 213/299/162 183/261/162 186/261/162 214/299/162 
s 34
f 214/299/192 186/261/163 188/264/166 215/300/193 
s 33
f 192/268/3 191/267/3 216/301/3 217/302/3 
s 35
f 196/272/168 195/271/168 218/303/167 219/304/194 
usemtl lambert7SG
s 32
f 220/305/195 218/306/196 195/274/170 197/273/169 
f 197/273/169 200/278/173 221/307/173 220/305/195 
usemtl lambert6SG
f 200/282/173 202/281/173 222/308/173 221/309/173 
s 41
f 222/308/197 202/281/174 204/284/174 223/310/198 
f 223/310/198 204/284/174 206/286/178 211/296/199 
s 42
f 179/252/160 211/296/179 212/297/179 140/196/160 
s 37
f 141/197/95 140/196/95 212/297/191 213/298/191 
usemtl lambert2SG
s 39
f 141/168/110 213/299/162 214/299/162 113/168/110 
s 34
f 113/168/71 214/299/192 215/300/193 114/169/72 
s 33
f 217/302/3 216/301/3 109/167/3 108/166/3 
s 35
f 219/304/194 218/303/167 106/171/75 116/170/74 
usemtl lambert7SG
s 32
f 107/165/69 106/164/68 218/306/196 220/305/195 
f 220/305/195 221/307/173 149/209/111 107/165/69 
usemtl lambert6SG
f 221/309/173 222/308/173 165/236/151 149/257/111 
s 41
f 165/236/134 222/308/197 223/310/198 166/237/135 
f 179/252/144 166/237/135 223/310/198 211/296/199 
usemtl lambert2SG
s 25
f 224/311/200 112/158/201 115/161/202 225/312/203 
s 24
f 226/313/3 111/291/3 110/314/3 227/315/3 
f 110/314/3 228/316/3 229/317/3 227/315/3 
s 29
f 39/99/204 38/98/205 230/318/206 231/319/207 
f 38/98/205 118/175/208 232/320/209 230/318/206 
f 118/175/208 153/215/210 233/321/211 232/320/209 
usemtl lambert7SG
s 22
f 234/322/212 233/323/213 153/324/214 144/325/215 
f 144/325/215 105/162/216 235/326/217 234/322/212 
s 32
f 105/162/66 150/210/112 236/327/218 235/326/219 
usemtl lambert6SG
f 150/256/112 164/235/152 237/328/220 236/329/218 
s 40
f 237/328/221 164/235/222 167/238/222 238/330/223 
f 238/330/223 167/238/222 178/251/224 239/331/225 
s 42
f 239/331/226 178/251/159 139/195/159 240/332/226 
s 36
f 240/332/227 139/195/228 138/194/228 241/333/227 
usemtl lambert2SG
s 39
f 241/311/229 138/158/109 112/158/109 224/311/229 
s 25
f 242/334/230 224/311/200 225/312/203 243/335/231 
s 24
f 244/336/3 226/313/3 227/315/3 245/337/3 
f 227/315/3 229/317/3 246/338/3 245/337/3 
s 29
f 231/319/207 230/318/206 247/339/232 248/340/233 
f 230/318/206 232/320/209 249/341/234 247/339/232 
f 232/320/209 233/321/211 250/342/235 249/341/234 
usemtl lambert7SG
s 22
f 251/343/236 250/344/237 233/323/213 234/322/212 
f 234/322/212 235/326/217 252/345/238 251/343/236 
s 32
f 235/326/219 236/327/218 253/346/149 252/345/107 
usemtl lambert6SG
f 236/329/218 237/328/220 254/347/149 253/348/149 
s 40
f 254/347/239 237/328/221 238/330/223 255/349/240 
f 255/349/240 238/330/223 239/331/225 256/350/240 
s 42
f 256/350/241 239/331/226 240/332/226 257/351/241 
s 36
f 257/351/242 240/332/227 241/333/227 258/352/242 
usemtl lambert2SG
s 39
f 242/334/243 258/334/243 241/311/229 224/311/229 
s 25
f 259/353/244 242/334/230 243/335/231 260/354/245 
s 24
f 261/355/3 244/336/3 245/337/3 262/356/3 
f 245/337/3 246/338/3 263/357/3 262/356/3 
s 29
f 248/340/233 247/339/232 264/358/246 265/359/247 
f 247/339/232 249/341/234 266/360/248 264/358/246 
f 249/341/234 250/342/235 267/361/249 266/360/248 
usemtl lambert7SG
s 22
f 268/362/250 267/363/251 250/344/237 251/343/236 
f 251/343/236 252/345/238 269/364/252 268/362/250 
s 32
f 252/345/107 253/346/149 270/365/107 269/364/107 
usemtl lambert6SG
f 253/348/149 254/347/149 271/366/149 270/367/107 
s 40
f 271/366/253 254/347/239 255/349/240 272/368/254 
f 272/368/254 255/349/240 256/350/240 273/369/255 
s 42
f 273/369/241 256/350/241 257/351/241 274/370/241 
s 36
f 274/370/256 257/351/242 258/352/242 275/371/256 
usemtl lambert2SG
s 39
f 259/353/106 275/353/106 258/334/243 242/334/243 
s 25
f 54/114/25 259/353/244 260/354/245 55/115/26 
s 24
f 62/120/3 261/355/3 262/356/3 49/109/3 
f 262/356/3 263/357/3 50/110/3 49/109/3 
s 29
f 265/359/247 264/358/246 96/153/59 95/152/58 
f 264/358/246 266/360/248 119/176/79 96/153/59 
f 266/360/248 267/361/249 43/216/116 119/176/79 
usemtl lambert7SG
s 22
f 44/104/19 43/103/18 267/363/251 268/362/250 
f 268/362/250 269/364/252 63/121/31 44/104/19 
s 32
f 269/364/107 270/365/107 147/207/107 63/121/107 
usemtl lambert6SG
f 270/367/107 271/366/149 161/232/149 147/255/107 
s 40
f 161/232/131 271/366/253 272/368/254 162/233/132 
f 162/233/132 272/368/254 273/369/255 176/249/132 
s 42
f 176/249/158 273/369/241 274/370/241 135/191/158 
s 36
f 135/191/93 274/370/256 275/371/256 136/192/93 
usemtl lambert2SG
s 39
f 54/114/106 136/114/106 275/353/106 259/353/106 
s 25
f 84/142/47 83/141/46 276/372/257 277/373/258 
s 24
f 79/135/3 82/138/3 278/374/3 279/375/3 
f 279/375/3 280/376/3 80/136/3 79/135/3 
f 280/376/3 281/377/3 89/147/3 80/136/3 
s 28
f 282/378/43 283/379/43 77/131/43 78/134/43 
f 283/379/43 284/380/43 122/179/43 77/131/43 
f 284/380/43 285/381/43 94/219/43 122/179/43 
usemtl lambert7SG
s 22
f 88/146/51 94/151/57 285/382/259 286/383/260 
f 286/383/260 287/384/261 87/145/50 88/146/51 
f 287/384/261 288/385/262 85/143/48 87/145/50 
s 32
f 288/385/263 289/386/264 145/205/102 85/143/104 
usemtl lambert6SG
f 289/387/264 290/388/264 158/229/147 145/253/102 
s 40
f 159/230/129 158/229/128 290/388/265 291/389/266 
f 175/248/129 159/230/129 291/389/266 292/390/267 
s 42
f 175/248/155 292/390/268 293/391/268 132/188/155 
s 36
f 133/189/91 132/188/91 293/391/269 294/392/269 
usemtl lambert2SG
s 39
f 83/141/99 133/141/99 294/372/270 276/372/270 
s 25
f 277/373/258 276/372/257 53/113/24 56/116/27 
s 24
f 279/375/3 278/374/3 61/119/3 52/112/3 
f 52/112/3 51/111/3 280/376/3 279/375/3 
f 51/111/3 295/393/3 281/377/3 280/376/3 
s 28
f 100/394/43 99/395/43 283/379/43 282/378/43 
f 99/395/43 121/396/43 284/380/43 283/379/43 
f 121/396/43 154/218/43 285/381/43 284/380/43 
usemtl lambert7SG
s 22
f 286/383/260 285/382/259 154/397/271 42/102/17 
f 42/102/17 41/101/16 287/384/261 286/383/260 
f 41/101/16 64/122/32 288/385/262 287/384/261 
s 32
f 64/122/108 148/208/108 289/386/264 288/385/263 
usemtl lambert6SG
f 148/254/108 160/231/150 290/388/264 289/387/264 
s 40
f 291/389/266 290/388/265 160/231/130 163/234/92 
f 292/390/267 291/389/266 163/234/92 177/250/142 
s 42
f 292/390/268 177/250/157 134/190/157 293/391/268 
s 36
f 294/392/269 293/391/269 134/190/92 137/193/92 
usemtl lambert2SG
s 39
f 294/372/270 137/113/105 53/113/105 276/372/270 
usemtl lambert3SG
s 43
f 296/398/272 297/399/272 298/400/273 299/401/273 
usemtl lambert2SG
s 34
f 215/300/193 188/264/166 300/402/274 301/403/275 
usemtl lambert4SG
s off
f 302/404/276 303/405/276 304/406/276 305/407/276 
usemtl lambert2SG
s 34
f 115/139/73 114/169/72 306/408/277 307/409/278 
s 25
f 225/312/203 115/161/202 307/410/279 308/411/280 
usemtl lambert4SG
s off
f 309/412/281 310/413/281 311/414/281 312/415/281 
usemtl lambert2SG
s 25
f 260/354/245 243/335/231 313/416/282 314/417/283 
usemtl lambert5SG
s 46
f 315/418/284 316/419/284 317/420/285 318/421/285 
usemtl lambert2SG
s 25
f 56/116/27 55/115/26 319/422/286 320/423/287 
f 320/423/287 321/424/288 277/373/258 56/116/27 
usemtl lambert4SG
s off
f 322/425/289 323/426/289 324/427/289 325/428/289 
usemtl lambert2SG
s 25
f 326/429/290 327/409/291 57/139/44 84/142/47 
s 26
f 327/430/292 328/431/292 58/105/28 57/117/28 
s 27
f 328/431/293 329/431/293 45/105/37 58/105/37 
s 23
f 329/431/294 330/432/295 46/106/21 45/105/20 
f 330/432/295 331/433/296 74/130/53 46/106/21 
s 28
f 74/130/41 331/433/41 332/433/119 75/130/42 
f 78/134/43 75/133/42 332/434/119 333/435/43 
f 333/435/43 334/436/43 282/378/43 78/134/43 
f 334/436/43 335/437/43 100/394/43 282/378/43 
s 30
f 98/155/63 100/157/63 335/438/297 336/439/297 
s 29
f 336/439/298 337/440/299 95/152/58 98/155/61 
f 337/440/299 338/441/300 265/359/247 95/152/58 
f 338/441/300 339/442/301 248/340/233 265/359/247 
f 339/442/301 340/443/302 231/319/207 248/340/233 
f 340/443/302 341/444/303 39/99/204 231/319/207 
s 21
f 40/100/15 39/99/15 341/444/304 342/445/304 
s 35
f 342/446/76 343/447/75 116/170/74 40/173/77 
f 343/447/75 344/448/167 219/304/194 116/170/74 
f 344/448/167 345/449/167 196/272/168 219/304/194 
f 345/449/167 346/450/167 193/269/167 196/272/168 
f 346/450/167 347/451/184 103/160/184 193/269/167 
s 31
f 104/161/65 103/160/65 347/451/305 348/410/305 
s 34
f 187/263/165 104/161/183 348/410/306 349/452/306 
f 306/408/277 301/403/275 217/453/307 108/454/308 
f 307/409/278 306/408/277 108/454/308 111/455/309 
s 25
f 308/411/280 307/410/279 111/456/310 226/457/311 
f 313/416/282 308/411/280 226/457/311 244/458/312 
f 314/417/283 313/416/282 244/458/312 261/459/313 
usemtl lambert5SG
s 46
f 318/421/285 317/420/285 350/460/314 351/461/314 
usemtl lambert2SG
s 25
f 320/423/287 319/422/286 62/462/315 61/463/316 
f 61/463/316 278/464/317 321/424/288 320/423/287 
f 278/464/317 82/465/318 326/429/290 321/424/288 
f 82/465/318 81/455/319 327/409/291 326/429/290 
s 26
f 81/137/320 71/128/320 328/431/292 327/430/292 
s 27
f 71/128/321 70/128/321 329/431/293 328/431/293 
s 23
f 70/128/322 69/127/323 330/432/295 329/431/294 
f 69/127/323 91/148/324 331/433/296 330/432/295 
s 28
f 331/433/41 91/148/41 90/148/42 332/433/119 
f 333/435/43 332/434/119 90/466/42 89/467/43 
f 89/467/43 281/468/43 334/436/43 333/435/43 
f 281/468/43 295/469/43 335/437/43 334/436/43 
s 30
f 336/439/297 335/438/297 295/393/325 51/111/325 
s 29
f 51/111/326 50/470/327 337/440/299 336/439/298 
f 50/470/327 263/471/328 338/441/300 337/440/299 
f 263/471/328 246/472/329 339/442/301 338/441/300 
f 246/472/329 229/473/330 340/443/302 339/442/301 
f 229/473/330 228/474/331 341/444/303 340/443/302 
s 21
f 342/445/304 341/444/304 228/474/304 110/475/304 
s 35
f 110/466/76 109/476/75 343/447/75 342/446/76 
f 109/476/75 216/477/167 344/448/167 343/447/75 
f 216/477/167 191/478/167 345/449/167 344/448/167 
f 191/478/167 190/479/167 346/450/167 345/449/167 
f 190/479/167 210/480/184 347/451/184 346/450/167 
s 31
f 348/410/305 347/451/305 210/480/305 209/456/305 
s 34
f 349/452/306 348/410/306 209/456/332 189/481/332 
usemtl lambert3SG
s 43
f 299/401/273 298/400/273 352/482/333 353/483/333 
usemtl lambert2SG
s 34
f 301/403/275 300/402/274 192/484/334 217/453/307 
s 48
f 296/264/161 299/402/335 300/402/335 188/264/161 
s off
f 297/263/336 296/264/336 188/264/336 187/263/336 
s 50
f 298/452/337 297/263/338 187/263/338 349/452/337 
s off
f 353/484/339 352/481/339 189/481/339 192/484/339 
s 48
f 299/402/335 353/484/340 192/484/340 300/402/335 
s 50
f 352/481/341 298/452/337 349/452/337 189/481/341 
s off
f 305/408/342 304/403/342 301/403/342 306/408/342 
f 302/169/343 305/408/343 306/408/343 114/169/343 
f 303/300/344 302/169/344 114/169/344 215/300/344 
f 304/403/345 303/300/345 215/300/345 301/403/345 
f 312/416/346 311/411/346 308/411/346 313/416/346 
f 309/335/347 312/416/347 313/416/347 243/335/347 
f 310/312/348 309/335/348 243/335/348 225/312/348 
f 311/411/349 310/312/349 225/312/349 308/411/349 
s 60
f 315/115/350 318/422/351 319/422/351 55/115/350 
s off
f 316/354/352 315/115/352 55/115/352 260/354/352 
s 62
f 317/417/353 316/354/354 260/354/354 314/417/353 
s off
f 351/462/355 350/459/355 261/459/355 62/462/355 
s 60
f 318/422/351 351/462/356 62/462/356 319/422/351 
s 62
f 350/459/357 317/417/353 314/417/353 261/459/357 
s off
f 325/373/358 324/142/358 84/142/358 277/373/358 
f 322/424/359 325/373/359 277/373/359 321/424/359 
f 323/429/360 322/424/360 321/424/360 326/429/360 
f 324/142/361 323/429/361 326/429/361 84/142/361 
usemtl lambert3SG
f 354/485/362 355/486/362 356/487/362 357/488/362 
s 69
f 358/489/6 359/490/6 360/486/6 361/485/10 
s off
f 362/491/363 363/492/363 364/490/363 365/489/363 
f 366/493/3 367/494/3 368/495/3 369/496/3 
f 365/497/364 354/485/364 357/488/364 362/498/364 
f 355/486/365 364/499/365 363/500/365 356/487/365 
f 369/496/363 368/495/363 370/492/363 371/491/363 
f 372/487/366 370/500/366 368/501/366 367/502/366 
f 373/488/362 372/487/362 367/502/362 366/503/362 
f 371/498/364 373/488/364 366/503/364 369/504/364 
s 78
f 357/488/3 356/487/3 372/487/3 373/488/3 
s 69
f 355/486/6 354/485/10 361/485/10 360/486/6 
f 365/489/6 364/490/6 359/490/6 358/489/6 
s 78
f 363/492/13 362/491/3 371/491/3 370/492/13 
f 362/498/3 357/488/3 373/488/3 371/498/3 
s 69
f 354/485/10 365/497/6 358/497/6 361/485/10 
s 78
f 356/487/3 363/500/13 370/500/13 372/487/3 
s 69
f 364/499/6 355/486/6 360/486/6 359/499/6 
s off
f 374/485/367 375/486/367 376/487/367 377/488/367 
s 80
f 378/489/10 379/490/6 380/486/6 381/485/10 
s off
f 382/491/363 383/492/363 384/490/363 385/489/363 
f 386/493/3 387/494/3 388/495/3 389/496/3 
f 385/497/364 374/485/364 377/488/364 382/498/364 
f 375/486/366 384/499/366 383/500/366 376/487/366 
f 389/496/363 388/495/363 390/492/363 391/491/363 
f 392/487/366 390/500/366 388/501/366 387/502/366 
f 393/488/367 392/487/367 387/502/367 386/503/367 
f 391/498/364 393/488/364 386/503/364 389/504/364 
s 89
f 377/488/3 376/487/13 392/487/13 393/488/3 
s 80
f 375/486/6 374/485/10 381/485/10 380/486/6 
f 385/489/10 384/490/6 379/490/6 378/489/10 
s 89
f 383/492/13 382/491/3 391/491/3 390/492/13 
f 382/498/3 377/488/3 393/488/3 391/498/3 
s 80
f 374/485/10 385/497/10 378/497/10 381/485/10 
s 89
f 376/487/13 383/500/13 390/500/13 392/487/13 
s 80
f 384/499/6 375/486/6 380/486/6 379/499/6 
s off
f 394/485/368 395/486/368 396/487/368 397/488/368 
s 91
f 398/489/10 399/490/6 400/486/6 401/485/10 
s off
f 402/491/369 403/492/369 404/490/369 405/489/369 
f 406/493/3 407/494/3 408/495/3 409/496/3 
f 405/497/370 394/485/370 397/488/370 402/498/370 
f 395/486/371 404/499/371 403/500/371 396/487/371 
f 409/496/369 408/495/369 410/492/369 411/491/369 
f 412/487/372 410/500/372 408/501/372 407/502/372 
f 413/488/368 412/487/368 407/502/368 406/503/368 
f 411/498/373 413/488/373 406/503/373 409/504/373 
s 100
f 397/488/3 396/487/13 412/487/13 413/488/3 
s 91
f 395/486/6 394/485/6 401/485/10 400/486/6 
f 405/489/10 404/490/6 399/490/6 398/489/10 
s 100
f 403/492/13 402/491/3 411/491/3 410/492/13 
f 402/498/3 397/488/3 413/488/3 411/498/3 
s 91
f 394/485/6 405/497/10 398/497/10 401/485/10 
s 100
f 396/487/13 403/500/13 410/500/13 412/487/13 
s 91
f 404/499/6 395/486/6 400/486/6 399/499/6 
usemtl lambert8SG
s off
f 414/505/374 415/506/374 416/507/374 417/508/374 
f 418/509/375 419/510/375 420/511/375 421/512/375 
f 417/513/3 416/514/3 419/515/3 418/516/3 
f 421/517/376 414/518/376 417/519/376 418/520/376 
f 415/521/377 420/522/377 419/523/377 416/524/377 
s 106
f 422/525/6 423/526/10 415/527/10 414/528/6 
f 424/529/6 422/525/6 414/528/6 421/530/6 
f 425/531/10 424/529/6 421/530/6 420/532/10 
f 423/526/10 425/531/10 420/532/10 415/527/10 
# 410 polygons - 2 triangles

