# This file uses centimeters as units for non-parametric coordinates.

mtllib estonia6a_2.mtl
g default
v 135.803391 -405.590576 17.107855
v 137.452454 -403.578705 17.107855
v 135.803391 -405.590576 14.510521
v 137.452454 -403.578705 14.510521
v 138.072037 -407.568512 17.107855
v 138.072037 -407.568512 14.510521
v 139.672943 -405.732391 17.107855
v 139.672943 -405.732391 14.510521
v 135.555969 -405.590027 17.107855
v 137.415756 -403.321106 17.107855
v 138.114532 -407.820709 17.107855
v 139.919952 -405.750031 17.107855
v 135.555969 -405.590027 17.135695
v 137.415756 -403.321106 17.135695
v 138.114532 -407.820709 17.135695
v 139.919952 -405.750031 17.135695
vt 0.000000 0.000000
vt 1.000000 0.000000
vt 1.000000 1.000000
vt 0.000000 1.000000
vt 0.000000 0.000000
vt 1.000000 0.000000
vt 1.000000 1.000000
vt 0.000000 1.000000
vt 0.000000 0.000000
vt 1.000000 0.000000
vt 1.000000 1.000000
vt 0.000000 1.000000
vt 0.000000 0.000000
vt 1.000000 0.000000
vt 1.000000 1.000000
vt 0.000000 1.000000
vt 1.000000 0.000000
vt 0.000000 0.000000
vt 0.000000 0.000000
vt 0.000000 0.000000
vt 0.000000 0.000000
vt 1.000000 0.000000
vt 0.000000 0.000000
vt 0.000000 0.000000
vn -0.773394 0.633926 0.000000
vn -0.773394 0.633926 0.000000
vn -0.773394 0.633926 0.000000
vn -0.773394 0.633926 0.000000
vn -0.657162 -0.753749 0.000000
vn -0.657162 -0.753749 0.000000
vn -0.657162 -0.753749 0.000000
vn -0.657162 -0.753749 0.000000
vn 0.753733 -0.657181 0.000000
vn 0.753733 -0.657181 0.000000
vn 0.753733 -0.657181 0.000000
vn 0.753733 -0.657181 0.000000
vn 0.696226 0.717823 0.000000
vn 0.696226 0.717823 0.000000
vn 0.696226 0.717823 0.000000
vn 0.696226 0.717823 0.000000
vn 0.000000 0.000000 1.000000
vn 0.000000 0.000000 1.000000
vn 0.000000 0.000000 1.000000
vn 0.000000 0.000000 1.000000
vn 0.000002 0.000000 -1.000000
vn 0.000003 0.000000 -1.000000
vn 0.000003 0.000000 -1.000000
vn 0.000002 0.000000 -1.000000
vn 0.000000 0.000000 -1.000000
vn 0.000000 0.000000 -1.000000
vn -0.000001 0.000000 -1.000000
vn -0.000001 0.000000 -1.000000
vn -0.773397 0.633922 0.000000
vn -0.773397 0.633922 0.000000
vn -0.773397 0.633922 0.000000
vn -0.773397 0.633922 0.000000
vn -0.657169 -0.753743 0.000000
vn -0.657169 -0.753743 0.000000
vn -0.657169 -0.753743 0.000000
vn -0.657169 -0.753743 0.000000
vn 0.753739 -0.657174 0.000000
vn 0.753739 -0.657174 0.000000
vn 0.753739 -0.657174 0.000000
vn 0.753739 -0.657174 0.000000
vn 0.696231 0.717818 0.000000
vn 0.696231 0.717818 0.000000
vn 0.696231 0.717818 0.000000
vn 0.696231 0.717818 0.000000
s off
g polySurface1
usemtl blinn1SG
f 1/1/1 2/2/2 4/3/3 3/4/4
f 1/5/5 3/6/6 6/7/7 5/8/8
f 5/9/9 6/10/10 8/11/11 7/12/12
f 7/13/13 8/14/14 4/15/15 2/16/16
f 14/17/17 13/18/18 15/19/19 16/20/20
s 1
f 2/2/21 1/5/22 9/21/23 10/22/24
f 1/5/22 5/9/25 11/23/26 9/21/23
f 5/9/25 7/13/27 12/24/28 11/23/26
f 7/13/27 2/2/21 10/22/24 12/24/28
s off
f 10/22/29 9/21/30 13/18/31 14/17/32
f 9/21/33 11/23/34 15/19/35 13/18/36
f 11/23/37 12/24/38 16/20/39 15/19/40
f 12/24/41 10/22/42 14/17/43 16/20/44
