# This file uses centimeters as units for non-parametric coordinates.

mtllib estonia6a_2-origo.mtl
g default
v  542420.803391 6588664.40942 17.107855
v  542422.452454 6588666.4213 17.107855
v  542420.803391 6588664.40942 14.510521
v  542422.452454 6588666.4213 14.510521
v  542423.072037 6588662.43149 17.107855
v  542423.072037 6588662.43149 14.510521
v  542424.672943 6588664.26761 17.107855
v  542424.672943 6588664.26761 14.510521
v  542420.555969 6588664.40997 17.107855
v  542422.415756 6588666.67889 17.107855
v  542423.114532 6588662.17929 17.107855
v  542424.919952 6588664.24997 17.107855
v  542420.555969 6588664.40997 17.135695
v  542422.415756 6588666.67889 17.135695
v  542423.114532 6588662.17929 17.135695
v  542424.919952 6588664.24997 17.135695
vt 0.000000 0.000000
vt 1.000000 0.000000
vt 1.000000 1.000000
vt 0.000000 1.000000
vt 0.000000 0.000000
vt 1.000000 0.000000
vt 1.000000 1.000000
vt 0.000000 1.000000
vt 0.000000 0.000000
vt 1.000000 0.000000
vt 1.000000 1.000000
vt 0.000000 1.000000
vt 0.000000 0.000000
vt 1.000000 0.000000
vt 1.000000 1.000000
vt 0.000000 1.000000
vt 1.000000 0.000000
vt 0.000000 0.000000
vt 0.000000 0.000000
vt 0.000000 0.000000
vt 0.000000 0.000000
vt 1.000000 0.000000
vt 0.000000 0.000000
vt 0.000000 0.000000
vn -0.773394 0.633926 0.000000
vn -0.773394 0.633926 0.000000
vn -0.773394 0.633926 0.000000
vn -0.773394 0.633926 0.000000
vn -0.657162 -0.753749 0.000000
vn -0.657162 -0.753749 0.000000
vn -0.657162 -0.753749 0.000000
vn -0.657162 -0.753749 0.000000
vn 0.753733 -0.657181 0.000000
vn 0.753733 -0.657181 0.000000
vn 0.753733 -0.657181 0.000000
vn 0.753733 -0.657181 0.000000
vn 0.696226 0.717823 0.000000
vn 0.696226 0.717823 0.000000
vn 0.696226 0.717823 0.000000
vn 0.696226 0.717823 0.000000
vn 0.000000 0.000000 1.000000
vn 0.000000 0.000000 1.000000
vn 0.000000 0.000000 1.000000
vn 0.000000 0.000000 1.000000
vn 0.000002 0.000000 -1.000000
vn 0.000003 0.000000 -1.000000
vn 0.000003 0.000000 -1.000000
vn 0.000002 0.000000 -1.000000
vn 0.000000 0.000000 -1.000000
vn 0.000000 0.000000 -1.000000
vn -0.000001 0.000000 -1.000000
vn -0.000001 0.000000 -1.000000
vn -0.773397 0.633922 0.000000
vn -0.773397 0.633922 0.000000
vn -0.773397 0.633922 0.000000
vn -0.773397 0.633922 0.000000
vn -0.657169 -0.753743 0.000000
vn -0.657169 -0.753743 0.000000
vn -0.657169 -0.753743 0.000000
vn -0.657169 -0.753743 0.000000
vn 0.753739 -0.657174 0.000000
vn 0.753739 -0.657174 0.000000
vn 0.753739 -0.657174 0.000000
vn 0.753739 -0.657174 0.000000
vn 0.696231 0.717818 0.000000
vn 0.696231 0.717818 0.000000
vn 0.696231 0.717818 0.000000
vn 0.696231 0.717818 0.000000
s off
g polySurface1
usemtl blinn1SG
f 1/1/1 2/2/2 4/3/3 3/4/4
f 1/5/5 3/6/6 6/7/7 5/8/8
f 5/9/9 6/10/10 8/11/11 7/12/12
f 7/13/13 8/14/14 4/15/15 2/16/16
f 14/17/17 13/18/18 15/19/19 16/20/20
s 1
f 2/2/21 1/5/22 9/21/23 10/22/24
f 1/5/22 5/9/25 11/23/26 9/21/23
f 5/9/25 7/13/27 12/24/28 11/23/26
f 7/13/27 2/2/21 10/22/24 12/24/28
s off
f 10/22/29 9/21/30 13/18/31 14/17/32
f 9/21/33 11/23/34 15/19/35 13/18/36
f 11/23/37 12/24/38 16/20/39 15/19/40
f 12/24/41 10/22/42 14/17/43 16/20/44
