# 3ds Max Wavefront OBJ Exporter v0.97b - (c)2007 guruware
# File Created: 28.03.2012 10:37:27

mtllib Pikk_jalg_16_myyr.mtl

#
# object Pikk_jalg_16_myyr
#

v  -244.437698 -121.989876 47.348560
v  -260.085632 -126.196411 47.299591
v  -244.437729 -121.989876 39.583241
v  -260.085632 -126.196411 39.534267
v  -260.085632 -126.196411 47.502319
v  -244.437714 -121.989876 47.551292
v  -244.682739 -120.945763 47.551292
v  -260.399841 -125.168533 47.502319
v  -258.397095 -131.466660 39.558754
v  -258.397125 -131.466660 43.084206
v  -258.267151 -131.874115 43.752598
v  -258.378204 -131.526672 43.084206
v  -258.377991 -131.526596 43.339085
v  -258.352386 -131.607437 43.339085
v  -258.352234 -131.607376 43.458923
v  -258.311798 -131.734436 43.458923
v  -258.311707 -131.734406 43.606197
v  -258.267151 -131.874115 43.606197
v  -258.226135 -132.002258 44.927296
v  -258.226166 -132.002258 43.084206
v  -258.226166 -132.002258 39.558754
v  -261.142517 -135.413040 44.927296
v  -261.142578 -135.413055 39.558754
v  -261.326508 -125.465332 47.502319
v  -261.012268 -126.493210 47.502319
v  -259.313263 -131.798141 44.927296
v  -262.311768 -134.952347 44.927296
v  -261.326508 -125.465332 42.123657
v  -261.012268 -126.493210 42.123657
v  -259.313263 -131.798141 39.548634
v  -262.311768 -134.952347 39.548634
v  -244.682739 -120.945770 42.280540
v  -260.399872 -125.168549 42.231567
v  -262.799530 -117.676323 47.502319
v  -263.726227 -117.973114 47.502319
v  -263.726227 -117.973122 42.123657
v  -262.799591 -117.676346 42.231567
v  -260.837006 -126.307343 47.502319
v  -244.475388 -121.872231 47.551292
v  -244.475388 -121.872231 48.855156
v  -260.837006 -126.307343 48.806183
v  -263.526794 -117.909241 48.806183
v  -263.526794 -117.909241 47.502319
v  -293.472565 -143.993698 46.279255
v  -293.472656 -143.993729 43.084206
v  -294.045898 -143.339401 46.279255
v  -294.045929 -143.339417 43.051380
v  -293.996704 -144.062744 46.304592
v  -293.996796 -144.062805 43.084206
v  -294.387909 -143.961288 46.350101
v  -294.388000 -143.961349 43.084206
v  -294.671600 -143.739990 46.378475
v  -294.671661 -143.740036 43.084206
v  -294.828796 -143.531555 46.397434
v  -294.828796 -143.531586 43.084206
v  -296.927612 -133.122955 44.309532
v  -296.927582 -133.122940 47.504581
v  -297.710449 -133.315094 47.622761
v  -297.710480 -133.315125 44.309532
v  -297.864380 -130.229080 44.309532
v  -297.864380 -130.229065 47.504581
v  -298.622925 -130.469437 47.622761
v  -298.622955 -130.469467 44.309532
v  -298.208130 -129.239532 44.309532
v  -298.208099 -129.239517 47.504581
v  -298.966431 -129.488571 47.622761
v  -298.966461 -129.488602 44.309532
v  -298.535187 -130.433243 44.864616
v  -298.535187 -130.433243 47.440327
v  -298.074127 -131.808746 44.864616
v  -298.074127 -131.808746 47.440327
v  -297.585205 -133.282944 44.864616
v  -297.585205 -133.282944 47.440327
v  -258.843597 -131.679504 44.927296
v  -261.841125 -135.169434 44.927296
v  -261.841125 -135.169434 46.411793
v  -258.843597 -131.679504 46.411793
v  -288.436127 -142.159790 46.767799
v  -288.436127 -142.159790 45.283302
v  -259.515533 -129.687775 45.088852
v  -259.515533 -129.687775 46.573349
# 81 vertices

vn 0.259607 -0.965714 0.000000
vn 0.259607 -0.965714 0.000000
vn 0.259607 -0.965714 0.000000
vn 0.259607 -0.965714 -0.000001
vn 0.259607 -0.965714 -0.000001
vn 0.259607 -0.965714 -0.000001
vn 0.259607 -0.965714 0.000020
vn 0.259607 -0.965714 0.000020
vn 0.259607 -0.965714 0.000020
vn 0.259607 -0.965714 0.000000
vn 0.259607 -0.965714 0.000000
vn 0.259607 -0.965714 0.000000
vn 0.259607 -0.965714 0.000020
vn 0.259607 -0.965714 0.000020
vn 0.259607 -0.965714 0.000020
vn 0.259607 -0.965714 0.000000
vn 0.259607 -0.965714 0.000000
vn 0.259607 -0.965714 0.000000
vn -0.002941 -0.000699 0.999995
vn -0.002879 -0.000880 0.999995
vn -0.002879 -0.000880 0.999995
vn -0.002944 -0.000691 0.999995
vn -0.002944 -0.000691 0.999995
vn -0.002941 -0.000699 0.999995
vn 0.953704 0.300685 0.006086
vn 0.953704 0.300685 0.006086
vn 0.953704 0.300685 0.006086
vn 0.953326 0.301941 -0.001368
vn 0.953326 0.301940 -0.001368
vn 0.953326 0.301940 -0.001368
vn 0.952909 0.303256 -0.000655
vn 0.952909 0.303256 -0.000655
vn 0.952909 0.303256 -0.000655
vn 0.952723 0.303839 0.000000
vn 0.952723 0.303839 0.000000
vn -0.952575 -0.304304 -0.000488
vn 0.952129 0.305696 -0.000890
vn 0.952129 0.305696 -0.000890
vn 0.952129 0.305696 -0.000890
vn 0.952486 0.304580 0.000779
vn 0.952486 0.304580 0.000779
vn 0.952486 0.304580 0.000779
vn 0.952461 0.304659 0.000650
vn 0.952461 0.304659 0.000650
vn 0.952461 0.304659 0.000650
vn 0.952465 0.304647 0.000668
vn 0.952465 0.304648 0.000668
vn 0.952465 0.304648 0.000668
vn 0.952320 0.305102 0.000008
vn 0.952320 0.305102 0.000008
vn 0.952320 0.305102 0.000008
vn 0.952316 0.305113 0.000000
vn 0.952316 0.305113 0.000000
vn 0.952316 0.305113 0.000000
vn 0.259607 -0.965714 0.000000
vn 0.259607 -0.965714 0.000000
vn 0.259607 -0.965714 0.000000
vn 0.259607 -0.965714 -0.000001
vn 0.259607 -0.965714 -0.000001
vn 0.259607 -0.965714 -0.000001
vn 0.952349 0.305010 0.000020
vn 0.952349 0.305010 0.000020
vn 0.952349 0.305010 0.000020
vn 0.952345 0.305022 0.000000
vn 0.952345 0.305022 0.000000
vn 0.952345 0.305022 0.000000
vn 0.952445 0.304710 -0.000016
vn 0.952445 0.304710 -0.000016
vn 0.952445 0.304710 -0.000016
vn 0.952469 0.304636 0.000000
vn 0.952469 0.304636 0.000000
vn 0.952469 0.304636 0.000000
vn 0.952723 0.303839 0.000216
vn 0.952723 0.303839 0.000216
vn 0.952723 0.303839 0.000216
vn 0.952909 0.303255 0.001017
vn 0.952909 0.303255 0.001017
vn 0.952909 0.303255 0.001017
vn 0.953318 0.301938 0.004382
vn 0.953318 0.301938 0.004382
vn 0.953318 0.301938 0.004382
vn 0.952510 0.304505 -0.000889
vn 0.952510 0.304505 -0.000889
vn 0.952510 0.304505 -0.000889
vn 0.952252 0.305309 -0.001368
vn 0.952252 0.305309 -0.001368
vn 0.952252 0.305309 -0.001368
vn 0.952231 0.305379 -0.000655
vn 0.952231 0.305379 -0.000655
vn 0.952231 0.305379 -0.000655
vn 0.953722 0.300690 0.000567
vn 0.953722 0.300690 0.000567
vn 0.953722 0.300690 0.000567
vn 0.952511 0.304505 0.000000
vn 0.952511 0.304505 0.000000
vn 0.952511 0.304505 0.000000
vn 0.952663 0.304029 0.000008
vn 0.952663 0.304029 0.000008
vn 0.952663 0.304029 0.000008
vn 0.760044 -0.649871 -0.000007
vn 0.760044 -0.649871 -0.000007
vn 0.760044 -0.649871 -0.000007
vn 0.760043 -0.649873 -0.000013
vn 0.760043 -0.649873 -0.000013
vn 0.760043 -0.649873 -0.000013
vn 0.760041 -0.649875 0.000000
vn 0.760041 -0.649875 0.000000
vn 0.760041 -0.649875 0.000000
vn 0.000000 0.000000 1.000000
vn 0.000000 0.000000 1.000000
vn 0.000000 0.000000 1.000000
vn 0.000000 0.000000 1.000000
vn 0.000000 0.000000 1.000000
vn 0.000000 0.000000 1.000000
vn -0.085839 -0.457180 0.885222
vn -0.085839 -0.457180 0.885222
vn -0.085839 -0.457180 0.885222
vn 0.118688 -0.370557 0.921195
vn 0.118688 -0.370557 0.921195
vn 0.118688 -0.370557 0.921195
vn 0.000000 0.000000 1.000000
vn 0.000000 0.000000 1.000000
vn 0.000000 0.000000 1.000000
vn 0.000000 0.000000 1.000000
vn 0.000000 0.000000 1.000000
vn 0.000000 0.000000 1.000000
vn -0.956308 -0.292360 0.000000
vn -0.956308 -0.292360 0.000000
vn -0.956308 -0.292360 0.000000
vn -0.956308 -0.292360 0.000000
vn -0.956308 -0.292360 0.000000
vn -0.956308 -0.292360 0.000000
vn -0.952350 -0.305008 0.000000
vn -0.952350 -0.305008 0.000000
vn -0.952350 -0.305008 0.000000
vn -0.952350 -0.305008 0.000000
vn -0.952350 -0.305008 0.000000
vn -0.952350 -0.305008 0.000000
vn -0.724769 0.688992 0.000000
vn -0.724769 0.688992 0.000000
vn -0.724769 0.688992 0.000000
vn -0.724769 0.688992 0.000000
vn -0.724769 0.688992 0.000000
vn -0.724769 0.688992 0.000000
vn -0.259472 0.965751 -0.000001
vn -0.259472 0.965751 -0.000001
vn -0.259472 0.965751 -0.000001
vn -0.259472 0.965751 -0.000001
vn -0.259472 0.965751 -0.000001
vn -0.259472 0.965751 -0.000001
vn 0.000000 0.000000 1.000000
vn 0.000000 0.000000 1.000000
vn 0.000000 0.000000 1.000000
vn 0.000000 0.000000 1.000000
vn 0.000000 0.000000 1.000000
vn 0.000000 0.000000 1.000000
vn -0.952343 -0.305031 0.000000
vn -0.952343 -0.305031 0.000000
vn -0.952342 -0.305031 0.000000
vn -0.952343 -0.305030 0.000000
vn -0.952343 -0.305030 0.000000
vn -0.952343 -0.305030 0.000000
vn 0.952344 0.305027 -0.000012
vn 0.952344 0.305027 -0.000012
vn 0.952344 0.305027 -0.000012
vn 0.952342 0.305031 -0.000006
vn 0.952342 0.305031 -0.000006
vn 0.952342 0.305031 -0.000006
vn -0.305007 0.952350 -0.000001
vn -0.305007 0.952350 -0.000001
vn -0.305007 0.952350 -0.000001
vn -0.305011 0.952349 -0.000001
vn -0.305011 0.952349 -0.000001
vn -0.305011 0.952349 -0.000001
vn 0.973553 0.228459 -0.000002
vn 0.973553 0.228459 -0.000002
vn 0.973553 0.228459 -0.000002
vn 0.973552 0.228467 -0.000000
vn 0.973552 0.228467 -0.000000
vn 0.973552 0.228467 -0.000000
vn 0.261627 -0.965169 0.000000
vn 0.261627 -0.965169 0.000000
vn 0.261627 -0.965169 0.000000
vn 0.261627 -0.965169 0.000000
vn 0.261627 -0.965169 0.000000
vn 0.261627 -0.965169 0.000000
vn -0.952345 -0.305022 0.000000
vn -0.952345 -0.305022 0.000000
vn -0.952345 -0.305022 0.000000
vn -0.952345 -0.305022 0.000000
vn -0.952345 -0.305022 0.000000
vn -0.952345 -0.305022 0.000000
vn 0.256527 -0.966537 0.000002
vn 0.256527 -0.966537 0.000002
vn 0.256527 -0.966537 0.000002
vn 0.256527 -0.966537 -0.000000
vn 0.256527 -0.966537 -0.000000
vn 0.256527 -0.966537 -0.000000
vn 0.033893 0.029699 0.998984
vn 0.033893 0.029699 0.998984
vn 0.033893 0.029699 0.998984
vn 0.025437 0.064560 0.997590
vn 0.025437 0.064560 0.997590
vn 0.025437 0.064560 0.997590
vn -0.255518 0.966804 -0.000002
vn -0.255518 0.966804 -0.000002
vn -0.255518 0.966804 -0.000002
vn -0.255518 0.966804 0.000000
vn -0.255518 0.966804 0.000000
vn -0.255518 0.966804 0.000000
vn 0.130661 -0.991427 0.000015
vn 0.130661 -0.991427 0.000015
vn 0.130661 -0.991427 0.000015
vn 0.130604 -0.991435 0.000006
vn 0.130604 -0.991435 0.000006
vn 0.130604 -0.991435 0.000006
vn -0.251037 -0.967977 0.000025
vn -0.251037 -0.967978 0.000025
vn -0.251037 -0.967978 0.000025
vn -0.251034 -0.967978 0.000025
vn -0.251034 -0.967978 0.000025
vn -0.251034 -0.967978 0.000025
vn -0.615132 -0.788424 0.000022
vn -0.615132 -0.788424 0.000022
vn -0.615132 -0.788424 0.000022
vn -0.615063 -0.788478 0.000032
vn -0.615062 -0.788478 0.000032
vn -0.615063 -0.788478 0.000032
vn -0.798532 -0.601953 0.000006
vn -0.798532 -0.601953 0.000006
vn -0.798532 -0.601953 0.000006
vn -0.798397 -0.602131 0.000023
vn -0.798397 -0.602131 0.000023
vn -0.798397 -0.602131 0.000023
vn 0.122572 0.107405 0.986631
vn 0.122572 0.107405 0.986631
vn 0.122572 0.107405 0.986631
vn 0.075304 -0.033856 0.996586
vn 0.075304 -0.033856 0.996586
vn 0.075304 -0.033856 0.996586
vn 0.076067 -0.030271 0.996643
vn 0.076067 -0.030271 0.996643
vn 0.076067 -0.030271 0.996643
vn 0.070018 -0.170866 0.982803
vn 0.070018 -0.170866 0.982803
vn 0.070018 -0.170866 0.982803
vn 0.962447 0.271472 -0.000010
vn 0.962446 0.271472 -0.000010
vn 0.962446 0.271472 -0.000010
vn 0.962447 0.271472 -0.000010
vn 0.962446 0.271472 -0.000010
vn 0.962446 0.271472 -0.000010
vn -0.962446 -0.271472 0.000011
vn -0.962447 -0.271472 0.000011
vn -0.962446 -0.271472 0.000011
vn -0.962448 -0.271468 0.000003
vn -0.962447 -0.271468 0.000003
vn -0.962447 -0.271468 0.000003
vn 0.165942 -0.071160 0.983565
vn 0.165942 -0.071160 0.983565
vn 0.165942 -0.071160 0.983565
vn 0.165936 -0.071161 0.983566
vn 0.165936 -0.071161 0.983566
vn 0.165936 -0.071161 0.983566
vn -0.238374 0.971173 -0.000007
vn -0.238374 0.971173 -0.000007
vn -0.238374 0.971173 -0.000007
vn -0.238391 0.971169 -0.000002
vn -0.238391 0.971169 -0.000002
vn -0.238391 0.971169 -0.000002
vn 0.944636 0.328119 -0.000011
vn 0.944636 0.328119 -0.000011
vn 0.944636 0.328119 -0.000011
vn 0.944627 0.328145 -0.000002
vn 0.944627 0.328145 -0.000002
vn 0.944627 0.328145 -0.000002
vn -0.943797 -0.330524 0.000012
vn -0.943797 -0.330524 0.000012
vn -0.943797 -0.330524 0.000012
vn -0.943797 -0.330524 0.000012
vn -0.943797 -0.330524 0.000012
vn -0.943797 -0.330524 0.000012
vn 0.138258 0.048419 0.989212
vn 0.138258 0.048419 0.989212
vn 0.138258 0.048419 0.989212
vn 0.138825 0.048221 0.989142
vn 0.138825 0.048221 0.989142
vn 0.138825 0.048221 0.989142
vn -0.312044 0.950068 -0.000002
vn -0.312044 0.950068 -0.000002
vn -0.312044 0.950068 -0.000002
vn -0.312027 0.950073 -0.000006
vn -0.312027 0.950073 -0.000006
vn -0.312027 0.950073 -0.000006
vn 0.302082 -0.953282 0.000005
vn 0.302082 -0.953282 0.000005
vn 0.302082 -0.953282 0.000005
vn 0.302087 -0.953280 0.000006
vn 0.302087 -0.953280 0.000006
vn 0.302087 -0.953280 0.000006
vn -0.948153 -0.317814 0.000000
vn -0.948153 -0.317815 0.000000
vn -0.948153 -0.317814 0.000000
vn -0.948153 -0.317814 0.000000
vn -0.948153 -0.317815 0.000000
vn -0.948153 -0.317814 0.000000
vn -0.949161 -0.314792 0.000000
vn -0.949161 -0.314792 0.000000
vn -0.949161 -0.314792 0.000000
vn -0.949161 -0.314792 0.000000
vn -0.949161 -0.314792 0.000000
vn -0.949161 -0.314792 0.000000
vn 0.758595 -0.651563 0.000000
vn 0.758595 -0.651563 0.000000
vn 0.758595 -0.651563 0.000000
vn 0.758595 -0.651563 0.000000
vn 0.758595 -0.651563 0.000000
vn 0.758595 -0.651563 0.000000
vn 0.254210 -0.967149 0.000000
vn 0.254210 -0.967149 0.000000
vn 0.254210 -0.967149 0.000000
vn 0.254210 -0.967149 0.000000
vn 0.254210 -0.967149 0.000000
vn 0.254210 -0.967149 0.000000
vn 0.947532 0.319662 0.000000
vn 0.947532 0.319662 0.000000
vn 0.947532 0.319662 0.000000
vn 0.947532 0.319662 0.000000
vn 0.947532 0.319662 0.000000
vn 0.947532 0.319662 0.000000
# 330 vertex normals

vt 1.000000 1.000000 1.000000
vt 1.000000 1.000000 1.000000
vt 1.000000 1.000000 1.000000
vt 0.500000 0.500000 0.000000
vt 1.000000 1.000000 1.000000
vt 1.000000 1.000000 1.000000
vt 3.198799 0.474409 -0.367935
vt -2.198807 0.458015 1.367905
vt -2.198814 0.525592 1.367905
vt 3.198799 0.541985 -0.367935
vt 3.198799 0.541985 -0.367935
vt 1.000000 1.000000 1.000000
vt 1.000000 1.000000 1.000000
vt 1.000000 1.000000 1.000000
vt 0.500000 0.500000 0.000000
vt 3.198799 0.541985 -0.367935
vt -2.198814 0.525592 1.367905
vt -2.198814 0.525592 1.367905
vt -2.198814 0.525592 1.367905
vt -2.198814 0.525592 1.367905
vt 3.198799 0.541985 -0.367935
vt 3.198799 0.541985 -0.367935
vt 0.935547 0.999508 0.999496
vt -127.470215 0.989971 0.024315
vt -127.469971 0.000496 0.000530
vt 0.935791 0.010029 0.975714
vt 0.500000 0.500000 0.000000
vt 0.500000 0.500000 0.000000
vt 0.500000 0.500000 0.000000
vt 0.500000 0.500000 0.000000
vt 0.000505 0.001369 0.000732
vt 0.000505 0.999502 0.584229
vt 0.999506 0.998634 0.999756
vt 0.999506 0.000502 0.416260
vt 0.999502 0.001360 0.000488
vt 0.999502 0.999500 0.585693
vt 0.000502 0.998640 0.999756
vt 0.000502 0.000500 0.414551
vt 9.075287 18.783722 -7.116501
vt 2.857475 9.280777 -2.796013
vt 3.864227 9.043854 -2.687584
vt 10.052795 18.506058 -6.989418
vt 2.528824 8.704407 -2.532219
vt 3.535591 8.467514 -2.423805
vt 8.778564 5.282257 -2.482475
vt 9.602303 5.746826 -2.695099
vt 9.455589 2.576782 -1.244225
vt 10.532867 2.984070 -1.430634
vt -4.547325 10.952972 -3.561348
vt -4.876015 10.376602 -3.297554
vt -3.209015 -15.429672 7.793198
vt -2.340912 -15.394089 7.776909
vt -3.533173 -15.802338 8.033356
vt -3.272110 -15.818436 8.029564
vt -2.923843 -15.783646 7.996918
vt -2.605209 -15.662552 7.914696
vt -13.068535 -12.002197 6.946121
vt -13.392662 -12.374832 7.186272
vt -16.928986 -11.153748 6.557808
vt -17.193054 -11.535950 6.802330
vt -16.205757 -11.740219 6.895821
vt -15.934669 -11.361237 6.652771
vt 4.103622 0.358467 -0.486858
vt 2.560658 1.772366 -0.856922
vt 4.121113 0.358366 -0.482567
vt 4.144741 0.443187 -0.476547
vt 4.121155 0.443323 -0.482319
vt 4.144772 0.483133 -0.476437
vt 4.181896 0.482920 -0.467384
vt 4.181915 0.532009 -0.467236
vt 4.222767 0.531775 -0.457287
vt 4.222767 0.580573 -0.457130
vt 4.103630 -0.816639 -0.490658
vt 2.560658 -0.815977 -0.865292
vt 2.560658 1.839939 -0.856701
vt 4.260273 0.971910 -0.446754
vt 4.260265 0.357570 -0.448738
vt 4.260265 -0.817536 -0.452538
vt 4.220280 0.958859 0.107288
vt 4.220268 -0.830586 0.101509
vt 2.085854 0.046501 -0.836224
vt 2.382874 0.044753 -0.761990
vt 2.382874 1.837572 -0.756191
vt 2.085854 1.839320 -0.830425
vt 3.935833 -0.822438 -0.387646
vt 3.935833 0.970381 -0.381847
vt 3.820744 -0.835058 0.148151
vt 3.820744 0.957761 0.153950
vt 5.449310 0.139481 -2.563461
vt 2.263638 0.084837 -0.936615
vt 2.263645 1.841688 -0.930935
vt 5.449306 1.896331 -2.557779
vt -0.107468 1.851865 -1.363018
vt -0.107464 0.059046 -1.368814
vt 0.070324 0.097382 -1.469204
vt 0.070339 1.854233 -1.463531
vt -2.354778 1.330913 3.445137
vt -2.354801 0.265937 3.441704
vt -2.640568 0.255424 3.423424
vt -2.640553 1.331342 3.426899
vt -2.476074 1.338243 3.492531
vt -2.476086 0.264821 3.489071
vt -2.598698 1.352925 3.513245
vt -2.598705 0.264334 3.509739
vt -2.718616 1.362364 3.514088
vt -2.718620 0.264316 3.510544
vt -2.803059 1.368866 3.506317
vt -2.803051 0.264499 3.502750
vt -5.530201 0.692615 2.668171
vt -5.530193 1.757590 2.671612
vt -5.692692 1.795115 2.751030
vt -5.692692 0.690747 2.747463
vt -6.676556 0.699050 2.394966
vt -6.676556 1.764026 2.398403
vt -6.379921 1.762418 2.466663
vt -6.379925 0.697442 2.463226
vt -6.820751 1.801466 2.481377
vt -6.820751 0.697099 2.477814
vt -6.526012 0.695510 2.545258
vt -6.526009 1.799877 2.548824
vt -6.379925 0.697442 2.463226
vt -6.379925 1.762418 2.466667
vt 1.102516 0.949594 1.916227
vt 1.102501 -0.839919 1.916222
vt 2.581825 0.335232 1.998455
vt 2.581833 0.949594 1.998459
vt 2.581825 -0.839919 1.998455
vt 2.447502 -0.843293 1.871231
vt 1.026207 -0.843292 1.763607
vt 1.026207 0.949594 1.763607
vt 2.447502 0.949594 1.871231
vt -44.095078 0.999504 0.000473
vt -44.095078 0.000504 0.000473
vt 0.977495 0.000500 0.999466
vt 0.977495 0.999500 0.999466
vt 2.002388 0.999500 0.999504
vt 0.000999 0.999500 0.000504
vt 2.002388 0.000502 0.999504
vt 0.000999 0.000502 0.000504
vt 0.999498 0.000500 0.000366
vt 0.999498 0.999500 0.000366
vt 0.000500 0.999500 0.999268
vt 0.000500 0.000500 0.999268
vt -8.004143 0.999502 0.999512
vt -8.004143 0.000504 0.999512
vt 0.995483 0.000498 0.000511
vt 0.995483 0.999496 0.000511
vt 5.046341 0.743655 3.234089
vt 5.046333 1.848064 3.234087
vt 4.873497 1.808673 3.157852
vt 4.873497 0.743656 3.157856
# 151 texture coords

g Pikk_jalg_16_myyr
usemtl xxx
s off
f -78/-148/-330 -79/-149/-329 -80/-150/-328 
f -81/-151/-327 -80/-150/-326 -79/-149/-325 
usemtl PJ_16_myyr_aed1
f -76/-146/-324 -77/-147/-323 -81/-151/-322 
f -80/-150/-321 -81/-151/-320 -77/-147/-319 
usemtl PJ_16_myyr_paas
f -76/-142/-318 -77/-143/-317 -81/-145/-316 
f -80/-144/-315 -81/-145/-314 -77/-143/-313 
usemtl Pikk_jalg_16_myyr_bet
f -75/-113/-312 -74/-112/-311 -77/-111/-310 
f -77/-111/-309 -76/-110/-308 -75/-113/-307 
usemtl xxx
f -72/-89/-306 -80/-88/-305 -70/-87/-304 
f -68/-86/-303 -69/-85/-302 -67/-84/-301 
f -66/-83/-300 -67/-84/-299 -65/-82/-298 
f -64/-81/-297 -65/-82/-296 -71/-80/-295 
f -70/-87/-294 -80/-88/-293 -69/-85/-292 
f -71/-80/-291 -65/-82/-290 -80/-88/-289 
f -69/-85/-288 -80/-88/-287 -67/-84/-286 
f -65/-82/-285 -67/-84/-284 -80/-88/-283 
f -73/-79/-282 -80/-88/-281 -72/-89/-280 
f -78/-78/-279 -80/-88/-278 -73/-79/-277 
f -78/-137/-276 -79/-138/-275 -80/-139/-274 
f -81/-140/-273 -80/-139/-272 -79/-138/-271 
usemtl PJ_16_myyr_paas
f -77/-77/-270 -63/-76/-269 -71/-80/-268 
f -71/-80/-267 -80/-88/-266 -77/-77/-265 
f -63/-76/-264 -62/-75/-263 -71/-80/-262 
f -62/-75/-261 -64/-81/-260 -71/-80/-259 
f -62/-75/-258 -65/-82/-257 -64/-81/-256 
f -62/-75/-255 -67/-84/-254 -66/-83/-253 
f -62/-75/-252 -69/-85/-251 -68/-86/-250 
f -62/-75/-249 -70/-87/-248 -69/-85/-247 
f -62/-75/-246 -68/-86/-245 -67/-84/-244 
f -62/-75/-243 -66/-83/-242 -65/-82/-241 
f -61/-74/-240 -72/-89/-239 -70/-87/-238 
f -70/-87/-237 -62/-75/-236 -61/-74/-235 
f -61/-74/-234 -73/-79/-233 -72/-89/-232 
f -60/-29/-231 -59/-28/-230 -62/-27/-229 
f -62/-27/-228 -63/-26/-227 -60/-29/-226 
f -61/-25/-225 -62/-27/-224 -59/-28/-223 
usemtl Pikk_jalg_16_myyr_bet
f -58/-109/-222 -57/-108/-221 -77/-111/-220 
f -77/-111/-219 -74/-112/-218 -58/-109/-217 
f -57/-108/-216 -56/-107/-215 -63/-106/-214 
f -63/-106/-213 -77/-111/-212 -57/-108/-211 
f -56/-107/-210 -55/-105/-209 -60/-104/-208 
f -60/-104/-207 -63/-106/-206 -56/-107/-205 
usemtl PJ_16_myyr_paas
f -54/-71/-204 -53/-70/-203 -57/-69/-202 
f -57/-69/-201 -58/-68/-200 -54/-71/-199 
f -53/-70/-198 -52/-67/-197 -56/-66/-196 
f -56/-66/-195 -57/-69/-194 -53/-70/-193 
f -52/-24/-192 -51/-23/-191 -55/-22/-190 
f -55/-22/-189 -56/-21/-188 -52/-24/-187 
f -50/-63/-186 -49/-62/-185 -74/-61/-184 
f -74/-61/-183 -75/-60/-182 -50/-63/-181 
usemtl Pikk_jalg_16_myyr_bet
f -48/-103/-180 -47/-102/-179 -58/-109/-178 
f -58/-109/-177 -74/-112/-176 -48/-103/-175 
usemtl PJ_16_myyr_paas
f -47/-59/-174 -46/-58/-173 -54/-71/-172 
f -54/-71/-171 -58/-68/-170 -47/-59/-169 
f -45/-57/-168 -48/-56/-167 -74/-61/-166 
f -74/-61/-165 -49/-62/-164 -45/-57/-163 
usemtl xxx
f -46/-133/-162 -47/-132/-161 -48/-135/-160 
f -48/-135/-159 -45/-134/-158 -46/-133/-157 
f -76/-131/-156 -79/-130/-155 -50/-136/-154 
f -50/-136/-153 -75/-141/-152 -76/-131/-151 
usemtl PJ_16_myyr_aed1
f -42/-129/-150 -41/-128/-149 -44/-127/-148 
f -44/-127/-147 -43/-126/-146 -42/-129/-145 
f -40/-20/-144 -39/-19/-143 -44/-18/-142 
f -44/-18/-141 -41/-17/-140 -40/-20/-139 
usemtl PJ_16_myyr_paas
f -38/-55/-138 -37/-54/-137 -59/-72/-136 
f -59/-72/-135 -60/-73/-134 -38/-55/-133 
usemtl Pikk_jalg_16_myyr_bet
f -36/-101/-132 -38/-100/-131 -60/-104/-130 
f -60/-104/-129 -55/-105/-128 -36/-101/-127 
usemtl PJ_16_myyr_paas
f -35/-53/-126 -36/-52/-125 -55/-64/-124 
f -55/-64/-123 -51/-65/-122 -35/-53/-121 
f -34/-51/-120 -33/-50/-119 -37/-54/-118 
f -37/-54/-117 -38/-55/-116 -34/-51/-115 
f -32/-49/-114 -31/-48/-113 -33/-50/-112 
f -33/-50/-111 -34/-51/-110 -32/-49/-109 
f -30/-47/-108 -29/-46/-107 -31/-48/-106 
f -31/-48/-105 -32/-49/-104 -30/-47/-103 
f -28/-45/-102 -27/-44/-101 -29/-46/-100 
f -29/-46/-99 -30/-47/-98 -28/-45/-97 
usemtl Pikk_jalg_16_myyr_bet
f -38/-100/-96 -36/-101/-95 -28/-99/-94 
f -38/-100/-93 -28/-99/-92 -30/-98/-91 
f -38/-100/-90 -30/-98/-89 -32/-97/-88 
f -38/-100/-87 -32/-97/-86 -34/-96/-85 
usemtl PJ_16_myyr_paas
f -26/-43/-84 -25/-42/-83 -36/-52/-82 
f -36/-52/-81 -35/-53/-80 -26/-43/-79 
f -24/-41/-78 -23/-40/-77 -27/-44/-76 
f -27/-44/-75 -28/-45/-74 -24/-41/-73 
usemtl Pikk_jalg_16_myyr_bet
f -25/-95/-72 -24/-94/-71 -28/-99/-70 
f -28/-99/-69 -36/-101/-68 -25/-95/-67 
usemtl PJ_16_myyr_paas
f -23/-4/-66 -24/-3/-65 -25/-2/-64 
f -25/-2/-63 -26/-1/-62 -23/-4/-61 
f -18/-39/-60 -17/-38/-59 -21/-37/-58 
f -21/-37/-57 -22/-36/-56 -18/-39/-55 
f -16/-35/-54 -15/-34/-53 -19/-33/-52 
f -19/-33/-51 -20/-32/-50 -16/-35/-49 
usemtl Pikk_jalg_16_myyr_bet
f -17/-93/-48 -16/-92/-47 -20/-91/-46 
f -20/-91/-45 -21/-90/-44 -17/-93/-43 
usemtl xxx
f -17/-123/-42 -18/-122/-41 -15/-124/-40 
f -15/-124/-39 -16/-125/-38 -17/-123/-37 
usemtl PJ_16_myyr_paas
f -22/-31/-36 -21/-30/-35 -20/-32/-34 
f -20/-32/-33 -19/-33/-32 -22/-31/-31 
usemtl Pikk_jalg_16_myyr_v1
f -12/-121/-30 -11/-120/-29 -13/-119/-28 
f -13/-119/-27 -14/-118/-26 -12/-121/-25 
f -10/-117/-24 -9/-116/-23 -11/-115/-22 
f -11/-115/-21 -12/-114/-20 -10/-117/-19 
usemtl Pikk_jalg_16_aed2
f -5/-16/-18 -6/-15/-17 -8/-14/-16 
f -7/-13/-15 -8/-14/-14 -6/-15/-13 
f -4/-8/-12 -3/-7/-11 -7/-6/-10 
f -7/-6/-9 -6/-5/-8 -4/-8/-7 
f -2/-12/-6 -1/-11/-5 -5/-10/-4 
f -5/-10/-3 -8/-9/-2 -2/-12/-1 
# 110 faces

