# This file uses centimeters as units for non-parametric coordinates.

mtllib Vabaduse_valjak_1a.mtl
g default
v -11.173820 -455.944214 20.496567
v -3.809701 -456.830963 20.496578
v -10.577703 -451.068268 20.496567
v -3.207274 -451.988220 20.496578
v -3.567289 -454.882446 20.496578
v -10.926788 -453.923370 20.496567
v -14.450407 -453.492767 20.496555
v -14.450407 -453.492767 21.101027
v -0.364479 -455.279572 20.496590
v -0.364479 -455.279572 21.101061
v -14.997595 -457.858978 21.101027
v -0.907111 -459.573822 21.101061
v -0.907111 -459.573822 20.496590
v -14.997595 -457.858978 20.496555
v -0.418032 -455.304962 20.496590
v -0.956667 -459.527313 20.496590
v -3.597505 -454.914307 20.496578
v -10.903358 -453.971405 20.496567
v -14.401310 -453.547852 20.496555
v -14.944550 -457.841370 20.496555
v -0.418032 -455.304962 20.730358
v -0.956667 -459.527313 20.730358
v -3.597505 -454.914307 20.730347
v -3.838146 -456.830353 20.730347
v -11.148579 -455.958099 20.730335
v -10.903358 -453.971405 20.730335
v -14.401310 -453.547852 20.730324
v -14.944550 -457.841370 20.730324
v -3.809701 -456.830963 20.111668
v -11.173820 -455.944214 20.111656
v -10.577703 -451.068268 20.127899
v -3.207274 -451.988220 20.127911
v -10.432688 -451.254120 20.127899
v -10.988153 -455.798737 20.111656
v -10.988153 -455.798737 17.574707
v -10.432688 -451.254120 17.574707
v -3.955408 -456.644409 20.111668
v -3.955408 -456.644409 17.574718
v -3.393643 -452.133240 20.127911
v -3.393643 -452.133240 17.574718
v -10.849406 -454.663727 20.115713
v -10.850570 -454.673126 17.574707
v -3.809335 -455.471405 17.574718
v -3.816263 -455.527191 20.115690
v -3.651920 -455.562561 20.496578
v -3.651528 -455.559326 20.115932
v -11.014770 -454.643250 20.115990
v -11.013575 -454.633453 20.496567
v -11.840028 -456.196106 18.962946
v -11.452834 -456.224548 18.962946
v -11.786332 -455.463928 18.962946
v -11.399120 -455.492340 18.962946
v -11.786332 -455.463928 17.784657
v -11.399120 -455.492340 17.784657
v -11.840028 -456.196106 17.784657
v -11.452834 -456.224548 17.784657
v -11.559954 -456.216675 18.962946
v -11.506253 -455.484467 18.962946
v -11.506253 -455.484467 17.784657
v -11.559954 -456.216675 17.784657
v -11.712641 -456.205475 18.962946
v -11.658925 -455.473236 18.962946
v -11.658925 -455.473236 17.784657
v -11.712641 -456.205475 17.784657
v -11.547471 -456.046509 18.962946
v -11.700150 -456.035248 18.962946
v -11.827555 -456.026001 18.962946
v -11.827555 -456.026001 17.784657
v -11.700150 -456.035248 17.784657
v -11.547471 -456.046509 17.784657
v -11.440351 -456.054352 17.784657
v -11.440351 -456.054352 18.962946
v -11.518083 -455.645844 18.962946
v -11.670772 -455.634644 18.962946
v -11.798163 -455.625305 18.962946
v -11.798163 -455.625305 17.784657
v -11.670772 -455.634644 17.784657
v -11.518083 -455.645844 17.784657
v -11.410970 -455.653748 17.784657
v -11.410970 -455.653748 18.962946
v -11.840028 -456.196106 20.796291
v -11.712641 -456.205475 20.796291
v -11.700150 -456.035248 20.796291
v -11.827555 -456.026001 20.796291
v -11.559954 -456.216675 20.796291
v -11.452834 -456.224548 20.796291
v -11.440351 -456.054352 20.796291
v -11.547471 -456.046509 20.796291
v -11.670772 -455.634644 20.796291
v -11.798163 -455.625305 20.796291
v -11.658925 -455.473236 20.796291
v -11.786332 -455.463928 20.796291
v -11.410970 -455.653748 20.796291
v -11.518083 -455.645844 20.796291
v -11.399120 -455.492340 20.796291
v -11.506253 -455.484467 20.796291
v -11.827555 -456.026001 17.548256
v -11.700150 -456.035248 17.548256
v -11.712641 -456.205475 17.548256
v -11.840028 -456.196106 17.548256
v -11.547471 -456.046509 17.548256
v -11.559954 -456.216675 17.548256
v -11.440351 -456.054352 17.548256
v -11.452834 -456.224548 17.548256
v -11.786332 -455.463928 17.548256
v -11.658925 -455.473236 17.548256
v -11.670772 -455.634644 17.548256
v -11.798163 -455.625305 17.548256
v -11.518083 -455.645844 17.548256
v -11.410970 -455.653748 17.548256
v -11.506253 -455.484467 17.548256
v -11.399120 -455.492340 17.548256
v -3.578044 -457.482849 18.962938
v -3.190856 -457.511292 18.962938
v -3.524336 -456.750641 18.962938
v -3.137136 -456.779083 18.962938
v -3.524336 -456.750641 17.784649
v -3.137136 -456.779083 17.784649
v -3.578044 -457.482849 17.784649
v -3.190856 -457.511292 17.784649
v -3.297973 -457.503418 18.962938
v -3.244252 -456.771179 18.962938
v -3.244252 -456.771179 17.784649
v -3.297973 -457.503418 17.784649
v -3.450644 -457.492188 18.962938
v -3.396945 -456.759979 18.962938
v -3.396945 -456.759979 17.784649
v -3.450644 -457.492188 17.784649
v -3.285477 -457.333069 18.962938
v -3.438170 -457.321991 18.962938
v -3.565574 -457.312744 18.962938
v -3.565574 -457.312744 17.784649
v -3.438170 -457.321991 17.784649
v -3.285477 -457.333069 17.784649
v -3.178367 -457.341064 17.784649
v -3.178367 -457.341064 18.962938
v -3.256079 -456.932373 18.962938
v -3.408774 -456.921387 18.962938
v -3.536189 -456.912048 18.962938
v -3.536189 -456.912048 17.784649
v -3.408774 -456.921387 17.784649
v -3.256079 -456.932373 17.784649
v -3.148973 -456.940460 17.784649
v -3.148973 -456.940460 18.962938
v -3.578044 -457.482849 20.796284
v -3.450644 -457.492188 20.796284
v -3.438170 -457.321991 20.796284
v -3.565574 -457.312744 20.796284
v -3.297973 -457.503418 20.796284
v -3.190856 -457.511292 20.796284
v -3.178367 -457.341064 20.796284
v -3.285477 -457.333069 20.796284
v -3.408774 -456.921387 20.796284
v -3.536189 -456.912048 20.796284
v -3.396945 -456.759979 20.796284
v -3.524336 -456.750641 20.796284
v -3.148973 -456.940460 20.796284
v -3.256079 -456.932373 20.796284
v -3.137136 -456.779083 20.796284
v -3.244252 -456.771179 20.796284
v -3.565574 -457.312744 17.548248
v -3.438170 -457.321991 17.548248
v -3.450644 -457.492188 17.548248
v -3.578044 -457.482849 17.548248
v -3.285477 -457.333069 17.548248
v -3.297973 -457.503418 17.548248
v -3.178367 -457.341064 17.548248
v -3.190856 -457.511292 17.548248
v -3.524336 -456.750641 17.548248
v -3.396945 -456.759979 17.548248
v -3.408774 -456.921387 17.548248
v -3.536189 -456.912048 17.548248
v -3.256079 -456.932373 17.548248
v -3.148973 -456.940460 17.548248
v -3.244252 -456.771179 17.548248
v -3.137136 -456.779083 17.548248
vt 0.998630 0.622480
vt 0.962757 0.722239
vt 3.089759 -0.521553
vt 0.000000 0.000000
vt -2.036218 -0.555489
vt 0.597641 0.000000
vt 7.929807 0.996704
vt 0.000000 0.000000
vt 0.035614 0.718934
vt 0.000000 0.000000
vt -2.045192 -4.416042
vt 0.597641 0.000000
vt 3.084874 -4.435985
vt 5.318796 -0.533711
vt 5.320235 5.275659
vt 1.000000 0.000000
vt 0.000000 0.000000
vt 1.000000 0.000000
vt 0.597641 0.000000
vt 0.597641 0.000000
vt 0.000000 0.000000
vt 0.000000 0.000000
vt 0.000000 0.000000
vt 1.000000 0.000000
vt 0.597641 0.000000
vt 0.597641 0.000000
vt 0.000000 0.000000
vt 0.000000 0.000000
vt 0.000000 0.000000
vt 1.000000 0.131734
vt 0.131734 1.000000
vt 1.000000 0.000000
vt 0.000000 0.131734
vt 0.126176 0.000000
vt 0.000000 0.000000
vt 0.126176 0.000000
vt 0.126176 1.000000
vt 0.001735 0.718934
vt 0.996478 0.722239
vt 14.004709 1.007517
vt 0.131734 1.000000
vt 0.126176 0.000000
vt 3.025885 0.000000
vt 0.000000 0.000000
vt 0.000000 0.131734
vt 1.000000 0.131734
vt 1.000000 0.000000
vt 0.000000 0.000000
vt 0.126176 1.000000
vt 0.126176 0.000000
vt 5.989678 0.000000
vt 0.000000 0.000000
vt 0.000000 1.000000
vt 1.000000 1.000000
vt 13.988967 0.007517
vt 0.000000 1.000000
vt 1.000000 1.000000
vt 0.000000 1.000000
vt 3.025885 1.000000
vt 0.000000 1.000000
vt 5.989678 1.000000
vt 2.987564 1.000000
vt 0.267169 0.719759
vt 2.995538 0.000000
vt 0.000000 1.000000
vt 0.000000 0.000000
vt 1.000000 0.000000
vt 1.000000 1.000000
vt 0.130358 0.752317
vt 0.000000 0.000000
vt 0.000000 1.000000
vt 0.130275 0.737413
vt 0.267109 0.719816
vt 9.000525 0.000000
vt 9.000525 1.000000
vt 0.000000 1.000000
vt 7.931534 -0.003293
vt 13.001601 -0.003296
vt 13.004655 0.996704
vt 12.038834 0.996704
vt 19.034872 0.007517
vt 19.036583 0.976309
vt 15.006787 1.001303
vt 9.040424 0.000000
vt 9.040424 1.000000
vt 0.000000 1.000000
vt 0.000000 0.000000
vt 0.000000 0.000000
vt 20.008177 0.000000
vt 20.008177 1.000000
vt 0.000000 1.000000
vt 0.000000 0.000000
vt 9.028515 0.000000
vt 9.028515 1.000000
vt 0.000000 1.000000
vt -21.844873 1.001805
vt -21.938370 0.018208
vt -11.758082 0.016522
vt -11.727582 0.462743
vt 11.669694 0.464818
vt 11.651667 0.002233
vt 22.849304 0.001805
vt 22.930260 1.001805
vt -0.001369 0.622476
vt -0.001369 0.000485
vt 0.998630 0.000489
vt 0.995028 1.000487
vt 0.002447 1.000295
vt -10.618724 1.001998
vt -10.618724 -0.002045
vt -5.298608 -0.002029
vt 5.824459 -0.002015
vt 10.661298 -0.001998
vt 10.661297 1.002045
vt -4.483401 5.372227
vt -4.487970 -0.533748
vt 0.195732 0.001521
vt 0.314606 0.000000
vt 0.314606 0.981983
vt 0.195732 0.981983
vt 0.195732 1.000000
vt 0.195732 0.651484
vt 0.002169 0.653145
vt 0.000000 0.001521
vt 0.114233 0.978183
vt 0.000000 0.978183
vt 0.000000 0.000000
vt 0.114233 0.005175
vt 0.114233 0.650447
vt 0.114233 1.000000
vt 0.302323 0.005175
vt 0.300206 0.645615
vt 0.241137 0.999999
vt 0.411487 0.999999
vt 0.411487 0.000000
vt 0.241137 0.000000
vt 0.217494 0.000001
vt 0.403402 0.000001
vt 0.403402 1.000001
vt 0.217494 1.000001
vt 0.999939 0.999997
vt 0.999939 -0.000004
vt 0.767517 -0.000004
vt 0.767517 0.999997
vt 0.000000 0.000002
vt 0.000000 1.000001
vt 0.232300 1.000001
vt 0.232300 0.000002
vt 0.615629 0.000000
vt 0.615629 0.999999
vt 0.758871 0.999999
vt 0.758871 0.000000
vt 0.626196 1.000001
vt 0.626196 0.000001
vt 0.782506 0.000001
vt 0.782506 1.000001
vt 0.311442 0.639203
vt 0.389043 0.639203
vt 0.389042 0.684943
vt 0.311442 0.684955
vt 0.411487 0.000000
vt 0.411487 0.999999
vt 0.615629 0.999999
vt 0.615629 0.000000
vt 0.510299 0.836013
vt 0.510299 0.790260
vt 0.587900 0.790272
vt 0.587900 0.836013
vt 0.389043 0.792639
vt 0.311442 0.792627
vt 0.246690 0.684931
vt 0.246689 0.792627
vt 0.232300 0.000002
vt 0.232300 1.000001
vt 0.779602 1.000001
vt 0.779602 0.000002
vt 0.445546 0.682589
vt 0.510299 0.682589
vt 0.445548 0.790285
vt 0.587900 0.682577
vt 0.642344 0.790260
vt 0.642343 0.682589
vt 0.767517 0.999997
vt 0.767517 -0.000004
vt 0.220398 -0.000004
vt 0.220398 0.999997
vt 0.443487 0.684955
vt 0.443486 0.792627
vt 0.389042 0.836000
vt 0.311442 0.836012
vt 0.779602 0.000002
vt 0.779602 1.000001
vt 1.000061 1.000001
vt 1.000061 0.000002
vt 0.510299 0.639203
vt 0.587900 0.639215
vt 0.220398 0.999997
vt 0.220398 -0.000004
vt 0.000000 -0.000004
vt 0.000000 0.999997
vt 0.000000 0.000000
vt 1.000000 0.000000
vt 1.000000 1.000000
vt 0.000000 1.000000
vt 0.000000 0.000000
vt 1.000000 0.000000
vt 1.000000 1.000000
vt 0.000000 1.000000
vt 0.000000 0.000000
vt 1.000000 0.000000
vt 1.000000 1.000000
vt 0.000000 1.000000
vt 0.000000 0.000000
vt 1.000000 0.000000
vt 1.000000 1.000000
vt 0.000000 1.000000
vt 0.000000 0.000000
vt 1.000000 0.000000
vt 1.000000 1.000000
vt 0.000000 1.000000
vt 0.000000 0.000000
vt 1.000000 0.000000
vt 1.000000 1.000000
vt 0.000000 1.000000
vt 0.000000 0.000000
vt 1.000000 0.000000
vt 1.000000 1.000000
vt 0.000000 1.000000
vt 0.000000 0.000000
vt 1.000000 0.000000
vt 1.000000 1.000000
vt 0.000000 1.000000
vt 0.000000 0.000000
vt 1.000000 0.000000
vt 1.000000 1.000000
vt 0.000000 1.000000
vt 0.000000 0.000000
vt 1.000000 0.000000
vt 1.000000 1.000000
vt 0.000000 1.000000
vt 0.000000 0.000000
vt 1.000000 0.000000
vt 1.000000 1.000000
vt 0.000000 1.000000
vt 0.000000 0.000000
vt 1.000000 0.000000
vt 1.000000 1.000000
vt 0.000000 1.000000
vt 0.000000 0.000000
vt 1.000000 0.000000
vt 1.000000 1.000000
vt 0.000000 1.000000
vt 0.000000 0.000000
vt 1.000000 0.000000
vt 1.000000 1.000000
vt 0.000000 1.000000
vt 0.000000 0.000000
vt 1.000000 0.000000
vt 1.000000 1.000000
vt 0.000000 1.000000
vt 0.000000 0.000000
vt 1.000000 0.000000
vt 1.000000 1.000000
vt 0.000000 1.000000
vt 0.000000 0.000000
vt 1.000000 0.000000
vt 1.000000 1.000000
vt 0.000000 1.000000
vt 0.000000 0.000000
vt 1.000000 0.000000
vt 1.000000 1.000000
vt 0.000000 1.000000
vt 0.000000 0.000000
vt 1.000000 0.000000
vt 1.000000 1.000000
vt 0.000000 1.000000
vt 0.000000 0.000000
vt 1.000000 0.000000
vt 1.000000 1.000000
vt 0.000000 1.000000
vt 0.000000 0.000000
vt 1.000000 0.000000
vt 1.000000 1.000000
vt 0.000000 1.000000
vt 0.000000 0.000000
vt 1.000000 0.000000
vt 1.000000 1.000000
vt 0.000000 1.000000
vt 0.000000 0.000000
vt 1.000000 0.000000
vt 1.000000 1.000000
vt 0.000000 1.000000
vt 0.000000 0.000000
vt 1.000000 0.000000
vt 1.000000 1.000000
vt 0.000000 1.000000
vt 0.400928 0.592680
vt 0.465681 0.592680
vt 0.465681 0.639203
vt 0.400928 0.639203
vt 0.478021 0.882535
vt 0.434635 0.882535
vt 0.434635 0.836012
vt 0.478021 0.836012
vt 0.151371 0.639203
vt 0.151371 0.703956
vt 0.104849 0.703956
vt 0.104849 0.639203
vt 0.353969 0.592680
vt 0.397342 0.592680
vt 0.397342 0.639203
vt 0.353969 0.639203
vt 0.335094 0.836012
vt 0.335094 0.890455
vt 0.288571 0.890455
vt 0.288571 0.836012
vt 0.481451 0.836012
vt 0.524812 0.836012
vt 0.524812 0.882535
vt 0.481451 0.882535
vt 0.543281 0.592680
vt 0.597726 0.592680
vt 0.597726 0.639203
vt 0.543281 0.639203
vt 0.798095 0.046523
vt 0.754721 0.046523
vt 0.754721 0.000000
vt 0.798095 0.000000
vt 0.242086 0.999998
vt 0.411794 0.999998
vt 0.411794 -0.000002
vt 0.242086 -0.000002
vt 0.285435 0.000001
vt 0.426636 0.000001
vt 0.426636 1.000001
vt 0.285435 1.000001
vt 1.000061 0.999998
vt 1.000061 -0.000002
vt 0.767578 -0.000002
vt 0.767578 0.999998
vt 0.000000 -0.000002
vt 0.000000 0.999998
vt 0.232300 0.999998
vt 0.232300 -0.000002
vt 0.615199 -0.000002
vt 0.615199 0.999998
vt 0.757899 0.999998
vt 0.757899 -0.000002
vt 0.595856 1.000001
vt 0.595856 0.000001
vt 0.714581 0.000001
vt 0.714581 1.000001
vt 0.311442 0.639203
vt 0.389043 0.639203
vt 0.389042 0.684943
vt 0.311442 0.684955
vt 0.411794 -0.000002
vt 0.411794 0.999998
vt 0.615199 0.999998
vt 0.615199 -0.000002
vt 0.000000 0.000000
vt 1.000000 0.000000
vt 1.000000 1.000000
vt 0.000000 1.000000
vt 0.389043 0.792639
vt 0.311442 0.792627
vt 0.246690 0.684931
vt 0.246689 0.792627
vt 0.232300 -0.000002
vt 0.232300 0.999998
vt 0.779541 0.999998
vt 0.779541 -0.000002
vt 0.000000 0.000000
vt 1.000000 0.000000
vt 1.000000 1.000000
vt 0.000000 1.000000
vt 0.000000 0.000000
vt 1.000000 0.000000
vt 1.000000 1.000000
vt 0.000000 1.000000
vt 0.000000 0.000000
vt 1.000000 0.000000
vt 1.000000 1.000000
vt 0.000000 1.000000
vt 0.767578 0.999998
vt 0.767578 -0.000002
vt 0.220459 -0.000002
vt 0.220459 0.999998
vt 0.443487 0.684955
vt 0.443486 0.792627
vt 0.389042 0.836000
vt 0.311442 0.836012
vt 0.779541 -0.000002
vt 0.779541 0.999998
vt 1.000000 0.999998
vt 1.000000 -0.000002
vt 0.000000 0.000000
vt 1.000000 0.000000
vt 1.000000 1.000000
vt 0.000000 1.000000
vt 0.220459 0.999998
vt 0.220459 -0.000002
vt 0.000061 -0.000002
vt 0.000061 0.999998
vt 0.000000 0.000000
vt 1.000000 0.000000
vt 1.000000 1.000000
vt 0.000000 1.000000
vt 0.000000 0.000000
vt 1.000000 0.000000
vt 1.000000 1.000000
vt 0.000000 1.000000
vt 0.000000 0.000000
vt 1.000000 0.000000
vt 1.000000 1.000000
vt 0.000000 1.000000
vt 0.000000 0.000000
vt 1.000000 0.000000
vt 1.000000 1.000000
vt 0.000000 1.000000
vt 0.000000 0.000000
vt 1.000000 0.000000
vt 1.000000 1.000000
vt 0.000000 1.000000
vt 0.000000 0.000000
vt 1.000000 0.000000
vt 1.000000 1.000000
vt 0.000000 1.000000
vt 0.000000 0.000000
vt 1.000000 0.000000
vt 1.000000 1.000000
vt 0.000000 1.000000
vt 0.000000 0.000000
vt 1.000000 0.000000
vt 1.000000 1.000000
vt 0.000000 1.000000
vt 0.000000 0.000000
vt 1.000000 0.000000
vt 1.000000 1.000000
vt 0.000000 1.000000
vt 0.000000 0.000000
vt 1.000000 0.000000
vt 1.000000 1.000000
vt 0.000000 1.000000
vt 0.000000 0.000000
vt 1.000000 0.000000
vt 1.000000 1.000000
vt 0.000000 1.000000
vt 0.000000 0.000000
vt 1.000000 0.000000
vt 1.000000 1.000000
vt 0.000000 1.000000
vt 0.000000 0.000000
vt 1.000000 0.000000
vt 1.000000 1.000000
vt 0.000000 1.000000
vt 0.000000 0.000000
vt 1.000000 0.000000
vt 1.000000 1.000000
vt 0.000000 1.000000
vt 0.000000 0.000000
vt 1.000000 0.000000
vt 1.000000 1.000000
vt 0.000000 1.000000
vt 0.000000 0.000000
vt 1.000000 0.000000
vt 1.000000 1.000000
vt 0.000000 1.000000
vt 0.000000 0.000000
vt 1.000000 0.000000
vt 1.000000 1.000000
vt 0.000000 1.000000
vt 0.000000 0.000000
vt 1.000000 0.000000
vt 1.000000 1.000000
vt 0.000000 1.000000
vt 0.000000 0.000000
vt 1.000000 0.000000
vt 1.000000 1.000000
vt 0.000000 1.000000
vt 0.000000 0.000000
vt 1.000000 0.000000
vt 1.000000 1.000000
vt 0.000000 1.000000
vt 0.000000 0.000000
vt 1.000000 0.000000
vt 1.000000 1.000000
vt 0.000000 1.000000
vt 0.000000 0.000000
vt 1.000000 0.000000
vt 1.000000 1.000000
vt 0.000000 1.000000
vt 0.000000 0.000000
vt 1.000000 0.000000
vt 1.000000 1.000000
vt 0.000000 1.000000
vt 0.000000 0.000000
vt 1.000000 0.000000
vt 1.000000 1.000000
vt 0.000000 1.000000
vt 0.000000 0.000000
vt 1.000000 0.000000
vt 1.000000 1.000000
vt 0.000000 1.000000
vt 0.000000 0.000000
vt 1.000000 0.000000
vt 1.000000 1.000000
vt 0.000000 1.000000
vt 0.000000 0.000000
vt 1.000000 0.000000
vt 1.000000 1.000000
vt 0.000000 1.000000
vt 0.000000 0.000000
vt 1.000000 0.000000
vt 1.000000 1.000000
vt 0.000000 1.000000
vt 0.000000 0.000000
vt 1.000000 0.000000
vt 1.000000 1.000000
vt 0.000000 1.000000
vt 0.000000 0.000000
vt 1.000000 0.000000
vt 1.000000 1.000000
vt 0.000000 1.000000
vt 0.000000 0.000000
vt 1.000000 0.000000
vt 1.000000 1.000000
vt 0.000000 1.000000
vt 0.000000 0.000000
vt 1.000000 0.000000
vt 1.000000 1.000000
vt 0.000000 1.000000
vn -0.119552 -0.992828 0.000000
vn -0.119552 -0.992828 0.000000
vn -0.119552 -0.992828 0.000000
vn -0.119552 -0.992828 0.000000
vn -0.992614 0.121318 0.000003
vn -0.992614 0.121318 0.000003
vn -0.992614 0.121318 0.000003
vn -0.992614 0.121318 0.000003
vn 0.123856 0.992300 0.000000
vn 0.123856 0.992300 0.000000
vn 0.123856 0.992300 0.000000
vn 0.123856 0.992300 0.000000
vn 0.992336 -0.123570 -0.000003
vn 0.992336 -0.123570 -0.000003
vn 0.992336 -0.123570 -0.000003
vn 0.992336 -0.123570 -0.000003
vn -0.000002 0.000000 1.000000
vn -0.000002 0.000000 1.000000
vn -0.000002 0.000000 1.000000
vn -0.000002 0.000000 1.000000
vn 0.992111 -0.125365 0.000000
vn 0.992111 -0.125365 0.000000
vn 0.992111 -0.125365 0.000000
vn 0.992111 -0.125365 0.000000
vn 0.125841 0.992039 0.004765
vn 0.125841 0.992039 0.004765
vn 0.125841 0.992039 0.004765
vn 0.125841 0.992039 0.004765
vn 0.125841 0.992039 0.004765
vn 0.125841 0.992039 0.004765
vn 0.000003 -0.000000 -1.000000
vn 0.000003 -0.000000 -1.000000
vn 0.000003 -0.000000 -1.000000
vn 0.000003 -0.000000 -1.000000
vn 0.000003 -0.000000 -1.000000
vn 0.000003 -0.000000 -1.000000
vn 0.000003 -0.000000 -1.000000
vn 0.000003 -0.000000 -1.000000
vn -0.120811 -0.992676 0.000000
vn -0.120811 -0.992676 0.000000
vn -0.120811 -0.992676 0.000000
vn -0.120811 -0.992676 0.000000
vn -0.000002 0.000000 1.000000
vn -0.000002 0.000000 1.000000
vn -0.000002 0.000000 1.000000
vn -0.000002 0.000000 1.000000
vn -0.992238 0.124351 0.000000
vn -0.992238 0.124351 0.000000
vn -0.992238 0.124351 0.000000
vn -0.992238 0.124351 0.000000
vn -0.000017 -0.000000 -1.000000
vn -0.000017 -0.000000 -1.000000
vn -0.000021 -0.000002 -1.000000
vn -0.000021 -0.000002 -1.000000
vn -0.000009 -0.000004 -1.000000
vn -0.000009 -0.000004 -1.000000
vn -0.118965 -0.992472 -0.029101
vn -0.118965 -0.992472 -0.029101
vn -0.118965 -0.992472 -0.029101
vn -0.118965 -0.992472 -0.029101
vn 0.000000 0.000003 -1.000000
vn 0.000000 0.000003 -1.000000
vn -0.000016 0.000001 -1.000000
vn -0.000016 0.000001 -1.000000
vn -0.000016 -0.000000 -1.000000
vn -0.000016 -0.000000 -1.000000
vn -0.991961 0.126542 0.000000
vn -0.991961 0.126542 0.000000
vn -0.991961 0.126542 0.000000
vn -0.991961 0.126542 0.000000
vn -0.121951 -0.992536 0.000000
vn -0.121951 -0.992536 0.000000
vn -0.121951 -0.992536 0.000000
vn -0.121951 -0.992536 0.000000
vn 0.986335 -0.116536 0.116457
vn 0.986335 -0.116536 0.116457
vn 0.986335 -0.116536 0.116457
vn 0.986335 -0.116536 0.116457
vn 0.986335 -0.116536 0.116457
vn 0.986335 -0.116536 0.116457
vn -0.984471 0.128217 0.119901
vn -0.984471 0.128217 0.119901
vn -0.984471 0.128217 0.119901
vn -0.984471 0.128217 0.119901
vn -0.984471 0.128217 0.119901
vn -0.984471 0.128217 0.119901
vn -0.120208 -0.992749 0.000000
vn -0.120208 -0.992749 0.000000
vn -0.120208 -0.992749 0.000000
vn -0.120208 -0.992749 0.000000
vn 0.992091 -0.125524 0.000000
vn 0.992091 -0.125524 0.000000
vn 0.992091 -0.125524 0.000000
vn 0.992091 -0.125524 0.000000
vn 0.119662 0.992815 0.000000
vn 0.119662 0.992815 0.000000
vn 0.119662 0.992815 0.000000
vn 0.119662 0.992815 0.000000
vn -0.119388 -0.992848 0.000000
vn -0.119388 -0.992848 0.000000
vn -0.119388 -0.992848 0.000000
vn -0.119388 -0.992848 0.000000
vn 0.123929 0.992291 0.000000
vn 0.123929 0.992291 0.000000
vn 0.123929 0.992291 0.000000
vn 0.123929 0.992291 0.000000
vn -0.992610 0.121352 0.000000
vn -0.992610 0.121352 0.000000
vn -0.992610 0.121352 0.000000
vn -0.992610 0.121352 0.000000
vn 0.992352 -0.123439 -0.000022
vn 0.992352 -0.123439 -0.000022
vn 0.992352 -0.123439 -0.000022
vn 0.992352 -0.123439 -0.000022
vn 0.000213 0.001699 -0.999999
vn 0.000213 0.001699 -0.999999
vn 0.000425 0.003397 -0.999994
vn 0.000213 0.001699 -0.999999
vn 0.000213 0.001699 -0.999999
vn 0.000425 0.003397 -0.999994
vn 0.000217 0.001710 -0.999999
vn 0.000217 0.001710 -0.999999
vn 0.000433 0.003420 -0.999994
vn 0.000217 0.001710 -0.999999
vn 0.000217 0.001710 -0.999999
vn 0.000433 0.003420 -0.999994
vn -0.992612 0.121334 0.000003
vn -0.992612 0.121334 0.000003
vn -0.992612 0.121334 0.000003
vn -0.992612 0.121334 0.000003
vn 0.992334 -0.123583 -0.000003
vn 0.992334 -0.123583 -0.000003
vn 0.992334 -0.123583 -0.000003
vn 0.992334 -0.123583 -0.000003
vn 0.992351 -0.123449 -0.000057
vn 0.992351 -0.123449 -0.000057
vn 0.992351 -0.123449 -0.000057
vn 0.992351 -0.123449 -0.000057
vn 0.992351 -0.123449 -0.000057
vn -0.992609 0.121354 -0.000047
vn -0.992609 0.121354 -0.000047
vn -0.992609 0.121354 -0.000047
vn -0.992609 0.121354 -0.000047
vn -0.992609 0.121354 -0.000047
vn 0.072862 0.997342 0.000000
vn 0.072862 0.997342 0.000000
vn 0.072862 0.997342 0.000000
vn 0.072862 0.997342 0.000000
vn -0.073349 -0.997306 0.000000
vn -0.073349 -0.997306 0.000000
vn -0.073348 -0.997306 0.000000
vn -0.073348 -0.997306 0.000000
vn 0.997321 -0.073147 0.000000
vn 0.997321 -0.073145 0.000000
vn 0.997321 -0.073145 0.000000
vn 0.997321 -0.073147 0.000000
vn -0.997322 0.073131 0.000000
vn -0.997322 0.073132 0.000000
vn -0.997322 0.073132 0.000000
vn -0.997322 0.073131 0.000000
vn 0.073296 0.997310 0.000000
vn 0.073296 0.997310 0.000000
vn 0.073296 0.997310 0.000000
vn 0.073296 0.997310 0.000000
vn -0.073305 -0.997310 0.000000
vn -0.073304 -0.997310 0.000000
vn -0.073304 -0.997310 0.000000
vn -0.073305 -0.997310 0.000000
vn 0.000000 0.000000 1.000000
vn 0.000000 0.000000 1.000000
vn 0.000000 0.000000 1.000000
vn 0.000000 0.000000 1.000000
vn 0.073361 0.997305 0.000000
vn 0.073361 0.997305 0.000000
vn 0.073361 0.997305 0.000000
vn 0.073361 0.997305 0.000000
vn 0.000000 0.000000 -1.000000
vn 0.000000 0.000000 -1.000000
vn 0.000000 0.000000 -1.000000
vn 0.000000 0.000000 -1.000000
vn -0.073156 -0.997321 0.000000
vn -0.073156 -0.997321 0.000000
vn -0.073156 -0.997321 0.000000
vn -0.073156 -0.997321 0.000000
vn 0.000000 0.000000 1.000000
vn 0.000000 0.000000 1.000000
vn 0.000000 0.000000 1.000000
vn 0.000000 0.000000 1.000000
vn 0.000000 0.000000 1.000000
vn 0.000000 0.000000 1.000000
vn 0.000000 0.000000 1.000000
vn 0.000000 0.000000 1.000000
vn -0.997321 0.073153 0.000000
vn -0.997321 0.073153 0.000000
vn -0.997321 0.073153 0.000000
vn -0.997321 0.073153 0.000000
vn 0.000000 0.000000 -1.000000
vn 0.000000 0.000000 -1.000000
vn 0.000000 0.000000 -1.000000
vn 0.000000 0.000000 -1.000000
vn 0.000000 0.000000 -1.000000
vn 0.000000 0.000000 -1.000000
vn 0.000000 0.000000 -1.000000
vn 0.000000 0.000000 -1.000000
vn 0.000000 0.000000 -1.000000
vn 0.000000 0.000000 -1.000000
vn 0.000000 0.000000 -1.000000
vn 0.000000 0.000000 -1.000000
vn 0.997321 -0.073147 0.000000
vn 0.997321 -0.073147 0.000000
vn 0.997321 -0.073147 0.000000
vn 0.997321 -0.073147 0.000000
vn 0.000000 0.000000 1.000000
vn 0.000000 0.000000 1.000000
vn 0.000000 0.000000 1.000000
vn 0.000000 0.000000 1.000000
vn 0.000000 0.000000 1.000000
vn 0.000000 0.000000 1.000000
vn 0.000000 0.000000 1.000000
vn 0.000000 0.000000 1.000000
vn -0.997323 0.073118 0.000000
vn -0.997323 0.073118 0.000000
vn -0.997323 0.073118 0.000000
vn -0.997323 0.073118 0.000000
vn 0.000000 0.000000 -1.000000
vn 0.000000 0.000000 -1.000000
vn 0.000000 0.000000 -1.000000
vn 0.000000 0.000000 -1.000000
vn 0.997316 -0.073216 0.000000
vn 0.997316 -0.073215 0.000000
vn 0.997316 -0.073215 0.000000
vn 0.997316 -0.073216 0.000000
vn -0.073348 -0.997306 0.000000
vn -0.073348 -0.997306 0.000000
vn 0.997318 -0.073186 0.000000
vn 0.997318 -0.073186 0.000000
vn 0.997318 -0.073186 0.000000
vn 0.997318 -0.073186 0.000000
vn 0.072388 0.997377 0.000000
vn 0.072388 0.997377 0.000000
vn 0.072388 0.997377 0.000000
vn 0.072388 0.997377 0.000000
vn -0.997322 0.073135 0.000000
vn -0.997322 0.073135 0.000000
vn -0.073305 -0.997310 0.000000
vn -0.073305 -0.997310 0.000000
vn 0.997321 -0.073150 0.000000
vn 0.997321 -0.073150 0.000000
vn 0.073022 0.997330 0.000000
vn 0.073022 0.997330 0.000000
vn 0.073022 0.997330 0.000000
vn 0.073022 0.997330 0.000000
vn -0.997320 0.073157 0.000000
vn -0.997320 0.073157 0.000000
vn -0.997320 0.073157 0.000000
vn -0.997320 0.073157 0.000000
vn -0.073108 -0.997324 0.000000
vn -0.073108 -0.997324 0.000000
vn -0.073108 -0.997324 0.000000
vn -0.073108 -0.997324 0.000000
vn 0.997317 -0.073199 0.000000
vn 0.997317 -0.073199 0.000000
vn 0.997317 -0.073199 0.000000
vn 0.997317 -0.073199 0.000000
vn 0.072862 0.997342 0.000000
vn 0.072862 0.997342 0.000000
vn -0.997323 0.073117 0.000000
vn -0.997323 0.073117 0.000000
vn -0.073592 -0.997288 0.000000
vn -0.073592 -0.997288 0.000000
vn -0.073592 -0.997288 0.000000
vn -0.073592 -0.997288 0.000000
vn 0.997316 -0.073218 0.000000
vn 0.997316 -0.073218 0.000000
vn 0.073296 0.997310 0.000000
vn 0.073296 0.997310 0.000000
vn -0.997324 0.073110 0.000000
vn -0.997324 0.073110 0.000000
vn -0.997324 0.073110 0.000000
vn -0.997324 0.073110 0.000000
vn 0.072388 0.997377 0.000000
vn 0.072388 0.997377 0.000000
vn 0.072388 0.997377 0.000000
vn 0.072388 0.997377 0.000000
vn 0.997318 -0.073186 0.000000
vn 0.997318 -0.073186 0.000000
vn 0.997318 -0.073186 0.000000
vn 0.997318 -0.073186 0.000000
vn -0.073349 -0.997306 0.000000
vn -0.073349 -0.997306 0.000000
vn -0.997322 0.073132 0.000000
vn -0.997322 0.073132 0.000000
vn -0.997320 0.073159 0.000000
vn -0.997320 0.073159 0.000000
vn -0.997320 0.073159 0.000000
vn -0.997320 0.073159 0.000000
vn 0.073022 0.997330 0.000000
vn 0.073022 0.997330 0.000000
vn 0.073022 0.997330 0.000000
vn 0.073022 0.997330 0.000000
vn 0.997321 -0.073146 0.000000
vn 0.997321 -0.073146 0.000000
vn -0.073304 -0.997310 0.000000
vn -0.073304 -0.997310 0.000000
vn 0.072862 0.997342 0.000000
vn 0.072862 0.997342 0.000000
vn 0.997317 -0.073197 0.000000
vn 0.997317 -0.073197 0.000000
vn 0.997317 -0.073197 0.000000
vn 0.997317 -0.073197 0.000000
vn -0.073108 -0.997324 0.000000
vn -0.073108 -0.997324 0.000000
vn -0.073108 -0.997324 0.000000
vn -0.073108 -0.997324 0.000000
vn -0.997323 0.073117 0.000000
vn -0.997323 0.073117 0.000000
vn -0.073592 -0.997288 0.000000
vn -0.073592 -0.997288 0.000000
vn -0.073592 -0.997288 0.000000
vn -0.073592 -0.997288 0.000000
vn -0.997324 0.073111 0.000000
vn -0.997324 0.073111 0.000000
vn -0.997324 0.073111 0.000000
vn -0.997324 0.073111 0.000000
vn 0.073295 0.997310 0.000000
vn 0.073295 0.997310 0.000000
vn 0.997316 -0.073215 0.000000
vn 0.997316 -0.073215 0.000000
vn 0.073109 0.997324 0.000000
vn 0.073109 0.997324 0.000000
vn 0.073109 0.997324 0.000000
vn 0.073109 0.997324 0.000000
vn -0.073104 -0.997324 0.000000
vn -0.073104 -0.997324 0.000000
vn -0.073104 -0.997324 0.000000
vn -0.073104 -0.997324 0.000000
vn 0.997319 -0.073170 0.000000
vn 0.997320 -0.073170 0.000000
vn 0.997320 -0.073170 0.000000
vn 0.997319 -0.073170 0.000000
vn -0.997324 0.073114 0.000000
vn -0.997324 0.073114 0.000000
vn -0.997324 0.073114 0.000000
vn -0.997324 0.073114 0.000000
vn 0.073590 0.997289 0.000000
vn 0.073589 0.997289 0.000000
vn 0.073589 0.997289 0.000000
vn 0.073590 0.997289 0.000000
vn -0.073306 -0.997309 0.000000
vn -0.073306 -0.997310 0.000000
vn -0.073306 -0.997310 0.000000
vn -0.073306 -0.997309 0.000000
vn -0.000009 0.000000 1.000000
vn -0.000009 0.000000 1.000000
vn -0.000009 0.000000 1.000000
vn -0.000009 0.000000 1.000000
vn 0.073153 0.997321 0.000000
vn 0.073153 0.997321 0.000000
vn 0.073153 0.997321 0.000000
vn 0.073153 0.997321 0.000000
vn -0.000001 0.000000 -1.000000
vn -0.000001 0.000000 -1.000000
vn -0.000001 0.000000 -1.000000
vn -0.000001 0.000000 -1.000000
vn -0.073361 -0.997306 0.000000
vn -0.073361 -0.997306 0.000000
vn -0.073361 -0.997306 0.000000
vn -0.073361 -0.997306 0.000000
vn 0.000000 0.000000 1.000000
vn 0.000000 0.000000 1.000000
vn 0.000000 0.000000 1.000000
vn 0.000000 0.000000 1.000000
vn 0.000000 0.000000 1.000000
vn 0.000000 0.000000 1.000000
vn 0.000000 0.000000 1.000000
vn 0.000000 0.000000 1.000000
vn -0.997322 0.073139 0.000000
vn -0.997322 0.073139 0.000000
vn -0.997322 0.073139 0.000000
vn -0.997322 0.073139 0.000000
vn 0.000009 0.000000 -1.000000
vn 0.000009 0.000000 -1.000000
vn 0.000009 0.000000 -1.000000
vn 0.000009 0.000000 -1.000000
vn -0.000008 0.000000 -1.000000
vn -0.000008 0.000000 -1.000000
vn -0.000008 0.000000 -1.000000
vn -0.000008 0.000000 -1.000000
vn 0.000011 0.000000 -1.000000
vn 0.000011 0.000000 -1.000000
vn 0.000011 0.000000 -1.000000
vn 0.000011 0.000000 -1.000000
vn 0.997319 -0.073176 0.000000
vn 0.997319 -0.073176 0.000000
vn 0.997319 -0.073176 0.000000
vn 0.997319 -0.073176 0.000000
vn 0.000011 0.000000 1.000000
vn 0.000011 0.000000 1.000000
vn 0.000011 0.000000 1.000000
vn 0.000011 0.000000 1.000000
vn 0.000000 0.000000 1.000000
vn 0.000000 0.000000 1.000000
vn 0.000000 0.000000 1.000000
vn 0.000000 0.000000 1.000000
vn -0.997315 0.073234 0.000000
vn -0.997315 0.073234 0.000000
vn -0.997315 0.073234 0.000000
vn -0.997315 0.073234 0.000000
vn 0.000000 0.000000 -1.000000
vn 0.000000 0.000000 -1.000000
vn 0.000000 0.000000 -1.000000
vn 0.000000 0.000000 -1.000000
vn 0.997321 -0.073155 0.000000
vn 0.997321 -0.073155 0.000000
vn 0.997321 -0.073155 0.000000
vn 0.997321 -0.073155 0.000000
vn -0.073104 -0.997324 0.000000
vn -0.073104 -0.997324 0.000000
vn 0.997325 -0.073097 0.000000
vn 0.997325 -0.073097 0.000000
vn 0.997325 -0.073097 0.000000
vn 0.997325 -0.073097 0.000000
vn 0.072389 0.997377 0.000000
vn 0.072389 0.997377 0.000000
vn 0.072389 0.997377 0.000000
vn 0.072389 0.997377 0.000000
vn -0.997324 0.073115 0.000000
vn -0.997324 0.073115 0.000000
vn -0.073307 -0.997310 0.000000
vn -0.073307 -0.997310 0.000000
vn 0.997320 -0.073170 0.000000
vn 0.997320 -0.073170 0.000000
vn 0.074442 0.997225 0.000000
vn 0.074442 0.997225 0.000000
vn 0.074442 0.997225 0.000000
vn 0.074442 0.997225 0.000000
vn -0.997320 0.073159 0.000000
vn -0.997320 0.073159 0.000000
vn -0.997320 0.073159 0.000000
vn -0.997320 0.073159 0.000000
vn -0.073095 -0.997325 0.000000
vn -0.073095 -0.997325 0.000000
vn -0.073095 -0.997325 0.000000
vn -0.073095 -0.997325 0.000000
vn 0.997326 -0.073087 0.000000
vn 0.997326 -0.073087 0.000000
vn 0.997326 -0.073087 0.000000
vn 0.997326 -0.073087 0.000000
vn 0.073109 0.997324 0.000000
vn 0.073109 0.997324 0.000000
vn -0.997315 0.073234 0.000000
vn -0.997315 0.073234 0.000000
vn -0.075292 -0.997162 0.000000
vn -0.075292 -0.997162 0.000000
vn -0.075292 -0.997162 0.000000
vn -0.075292 -0.997162 0.000000
vn 0.997321 -0.073155 0.000000
vn 0.997321 -0.073155 0.000000
vn 0.073589 0.997289 0.000000
vn 0.073589 0.997289 0.000000
vn -0.997319 0.073174 0.000000
vn -0.997319 0.073174 0.000000
vn -0.997319 0.073174 0.000000
vn -0.997319 0.073174 0.000000
vn 0.072389 0.997377 0.000000
vn 0.072389 0.997377 0.000000
vn 0.072389 0.997377 0.000000
vn 0.072389 0.997377 0.000000
vn 0.997325 -0.073096 0.000000
vn 0.997325 -0.073096 0.000000
vn 0.997325 -0.073096 0.000000
vn 0.997325 -0.073096 0.000000
vn -0.073104 -0.997324 0.000000
vn -0.073104 -0.997324 0.000000
vn -0.997324 0.073113 0.000000
vn -0.997324 0.073113 0.000000
vn -0.997320 0.073159 0.000000
vn -0.997320 0.073159 0.000000
vn -0.997320 0.073159 0.000000
vn -0.997320 0.073159 0.000000
vn 0.074442 0.997225 0.000000
vn 0.074442 0.997225 0.000000
vn 0.074442 0.997225 0.000000
vn 0.074442 0.997225 0.000000
vn 0.997320 -0.073170 0.000000
vn 0.997320 -0.073170 0.000000
vn -0.073306 -0.997310 0.000000
vn -0.073306 -0.997310 0.000000
vn 0.073109 0.997324 0.000000
vn 0.073109 0.997324 0.000000
vn 0.997326 -0.073088 0.000000
vn 0.997326 -0.073088 0.000000
vn 0.997326 -0.073088 0.000000
vn 0.997326 -0.073088 0.000000
vn -0.073095 -0.997325 0.000000
vn -0.073095 -0.997325 0.000000
vn -0.073095 -0.997325 0.000000
vn -0.073095 -0.997325 0.000000
vn -0.997315 0.073234 0.000000
vn -0.997315 0.073234 0.000000
vn -0.075292 -0.997162 0.000000
vn -0.075292 -0.997162 0.000000
vn -0.075292 -0.997162 0.000000
vn -0.075292 -0.997162 0.000000
vn -0.997319 0.073175 0.000000
vn -0.997319 0.073175 0.000000
vn -0.997319 0.073175 0.000000
vn -0.997319 0.073175 0.000000
vn 0.073590 0.997289 0.000000
vn 0.073590 0.997289 0.000000
vn 0.997321 -0.073155 0.000000
vn 0.997321 -0.073155 0.000000
s off
g polySurface1
usemtl blinn7SG
f 1/1/1 30/106/2 29/105/3 2/104/4
usemtl blinn2SG
f 33/56/5 36/35/6 42/64/7 41/62/8
usemtl blinn4SG
f 3/74/9 4/4/10 32/76/11 31/75/12
usemtl blinn2SG
f 43/70/13 40/43/14 39/59/15 44/71/16
usemtl blinn11SG
f 5/3/17 4/13/18 3/11/19 6/5/20
usemtl blinn5SG
f 10/84/21 12/87/22 13/86/23 9/85/24
f 8/109/25 10/114/26 9/113/27 5/112/28 6/111/29 7/110/30
usemtl blinn6SG
f 22/96/31 28/103/32 27/102/33 26/101/34 25/100/35 24/99/36 23/98/37 21/97/38
usemtl blinn5SG
f 11/88/39 14/91/40 13/90/41 12/89/42
usemtl blinn10SG
f 10/14/43 8/116/44 11/115/45 12/15/46
usemtl blinn5SG
f 8/92/47 7/95/48 14/94/49 11/93/50
s 1
usemtl blinn7SG
f 13/16/51 16/18/52 15/19/53 9/12/54
f 9/12/54 15/19/53 17/20/55 5/6/56
s off
f 2/104/57 24/108/58 25/107/59 1/1/60
s 1
f 6/8/61 18/21/62 19/22/63 7/10/64
f 7/10/64 19/22/63 20/23/65 14/17/66
f 14/17/66 20/23/65 16/18/52 13/16/51
s off
f 16/18/67 22/24/68 21/25/69 15/19/70
f 15/19/71 21/25/72 23/26/73 17/20/74
f 2/117/75 45/122/76 5/121/77 17/120/78 23/119/79 24/118/80
f 18/125/81 6/130/82 48/129/83 1/128/84 25/127/85 26/126/86
f 18/21/87 26/27/88 27/28/89 19/22/90
f 19/22/91 27/28/92 28/29/93 20/23/94
f 20/23/95 28/29/96 22/24/97 16/18/98
usemtl blinn1SG
f 34/53/99 35/48/100 38/47/101 37/54/102
usemtl blinn2SG
f 39/60/103 40/52/104 36/51/105 33/61/106
usemtl blinn7SG
f 1/128/107 48/129/108 47/132/109 30/131/110
f 45/122/111 2/117/112 29/124/113 46/123/114
s 3
f 31/39/115 33/2/116 41/63/117 34/9/118 30/38/119 47/73/120
f 29/31/121 37/41/122 44/69/123 39/42/124 32/36/125 46/72/126
f 30/33/119 34/45/118 37/46/122 29/30/121
f 32/37/125 39/49/124 33/50/116 31/34/115
s off
usemtl blinn3SG
f 41/65/127 42/66/128 35/32/129 34/57/130
f 38/44/131 43/67/132 44/68/133 37/58/134
usemtl blinn4SG
f 4/7/135 5/80/136 45/79/137 46/78/138 32/77/139
f 48/40/140 6/83/141 3/82/142 31/81/143 47/55/144
s 4
usemtl blinn9SG
f 51/133/145 62/134/146 63/135/147 53/136/148
s 5
f 55/137/149 64/138/150 61/139/151 49/140/152
s 6
f 50/141/153 56/142/154 71/143/155 72/144/156
s 7
f 55/145/157 49/146/158 67/147/159 68/148/160
s 8
f 59/149/161 58/150/162 52/151/163 54/152/164
s 9
f 57/153/165 60/154/166 56/155/167 50/156/168
s off
usemtl blinn8SG
f 61/157/169 57/158/170 65/159/171 66/160/172
usemtl blinn9SG
f 63/161/173 62/162/174 58/163/175 59/164/176
usemtl blinn8SG
f 64/165/177 69/166/178 70/167/179 60/168/180
usemtl blinn9SG
f 61/139/181 64/138/182 60/154/183 57/153/184
usemtl blinn8SG
f 66/160/185 65/159/186 73/169/187 74/170/188
f 67/171/189 66/160/190 74/170/191 75/172/192
usemtl blinn9SG
f 68/173/193 67/174/194 75/175/195 76/176/196
usemtl blinn8SG
f 76/177/197 77/178/198 69/166/199 68/179/200
f 70/167/201 69/166/202 77/178/203 78/180/204
f 71/181/205 70/167/206 78/180/207 79/182/208
usemtl blinn9SG
f 72/183/209 71/184/210 79/185/211 80/186/212
usemtl blinn8SG
f 65/159/213 72/187/214 80/188/215 73/169/216
f 74/170/217 73/169/218 58/189/219 62/190/220
s 10
usemtl blinn9SG
f 76/191/221 75/192/222 51/193/223 53/194/224
s off
usemtl blinn8SG
f 78/180/225 77/178/226 63/195/227 59/196/228
s 11
usemtl blinn9SG
f 80/197/229 79/198/230 54/199/231 52/200/232
s 5
usemtl blinn8SG
f 49/201/152 61/202/151 82/203/233 81/204/234
s off
f 61/205/235 66/206/236 83/207/237 82/208/238
f 66/209/239 67/210/240 84/211/241 83/212/242
s 7
f 67/213/159 49/214/158 81/215/243 84/216/244
s 9
f 57/217/165 50/218/168 86/219/245 85/220/246
s 6
f 50/221/153 72/222/156 87/223/247 86/224/248
s off
f 72/225/249 65/226/250 88/227/251 87/228/252
f 65/229/253 57/230/254 85/231/255 88/232/256
f 75/233/257 74/234/258 89/235/259 90/236/260
f 74/237/261 62/238/262 91/239/263 89/240/264
s 4
f 62/241/146 51/242/145 92/243/265 91/244/266
s 10
f 51/245/223 75/246/222 90/247/267 92/248/268
s off
f 73/249/269 80/250/270 93/251/271 94/252/272
s 11
f 80/253/229 52/254/232 95/255/273 93/256/274
s 8
f 52/257/163 58/258/162 96/259/275 95/260/276
s off
f 58/261/277 73/262/278 94/263/279 96/264/280
f 68/265/281 69/266/282 98/267/283 97/268/284
f 69/269/285 64/270/286 99/271/287 98/272/288
s 5
f 64/273/150 55/274/149 100/275/289 99/276/290
s 7
f 55/277/157 68/278/160 97/279/291 100/280/292
s off
f 60/281/293 70/282/294 101/283/295 102/284/296
f 70/285/297 71/286/298 103/287/299 101/288/300
s 6
f 71/289/155 56/290/154 104/291/301 103/292/302
s 9
f 56/293/167 60/294/166 102/295/303 104/296/304
s 4
f 53/297/148 63/298/147 106/299/305 105/300/306
s off
f 63/301/307 77/302/308 107/303/309 106/304/310
f 77/305/311 76/306/312 108/307/313 107/308/314
s 10
f 76/309/221 53/310/224 105/311/315 108/312/316
s off
f 79/313/317 78/314/318 109/315/319 110/316/320
f 78/317/321 59/318/322 111/319/323 109/320/324
s 8
f 59/321/161 54/322/164 112/323/325 111/324/326
s 11
f 54/325/231 79/326/230 110/327/327 112/328/328
s 12
usemtl blinn9SG
f 115/329/329 126/330/330 127/331/331 117/332/332
s 13
f 119/333/333 128/334/334 125/335/335 113/336/336
s 14
f 114/337/337 120/338/338 135/339/339 136/340/340
s 15
f 119/341/341 113/342/342 131/343/343 132/344/344
s 16
f 123/345/345 122/346/346 116/347/347 118/348/348
s 17
f 121/349/349 124/350/350 120/351/351 114/352/352
s off
usemtl blinn8SG
f 125/353/353 121/354/354 129/355/355 130/356/356
usemtl blinn9SG
f 127/357/357 126/358/358 122/359/359 123/360/360
usemtl blinn8SG
f 128/361/361 133/362/362 134/363/363 124/364/364
usemtl blinn9SG
f 125/335/365 128/334/366 124/350/367 121/349/368
usemtl blinn8SG
f 130/356/369 129/355/370 137/365/371 138/366/372
f 131/367/373 130/356/374 138/366/375 139/368/376
usemtl blinn9SG
f 132/369/377 131/370/378 139/371/379 140/372/380
usemtl blinn8SG
f 140/373/381 141/374/382 133/375/383 132/376/384
f 134/377/385 133/378/386 141/379/387 142/380/388
f 135/381/389 134/382/390 142/383/391 143/384/392
usemtl blinn9SG
f 136/385/393 135/386/394 143/387/395 144/388/396
usemtl blinn8SG
f 129/355/397 136/389/398 144/390/399 137/365/400
f 138/366/401 137/365/402 122/391/403 126/392/404
s 18
usemtl blinn9SG
f 140/393/405 139/394/406 115/395/407 117/396/408
s off
usemtl blinn8SG
f 142/397/409 141/398/410 127/399/411 123/400/412
s 19
usemtl blinn9SG
f 144/401/413 143/402/414 118/403/415 116/404/416
s 13
usemtl blinn8SG
f 113/405/336 125/406/335 146/407/417 145/408/418
s off
f 125/409/419 130/410/420 147/411/421 146/412/422
f 130/413/423 131/414/424 148/415/425 147/416/426
s 15
f 131/417/343 113/418/342 145/419/427 148/420/428
s 17
f 121/421/349 114/422/352 150/423/429 149/424/430
s 14
f 114/425/337 136/426/340 151/427/431 150/428/432
s off
f 136/429/433 129/430/434 152/431/435 151/432/436
f 129/433/437 121/434/438 149/435/439 152/436/440
f 139/437/441 138/438/442 153/439/443 154/440/444
f 138/441/445 126/442/446 155/443/447 153/444/448
s 12
f 126/445/330 115/446/329 156/447/449 155/448/450
s 18
f 115/449/407 139/450/406 154/451/451 156/452/452
s off
f 137/453/453 144/454/454 157/455/455 158/456/456
s 19
f 144/457/413 116/458/416 159/459/457 157/460/458
s 16
f 116/461/347 122/462/346 160/463/459 159/464/460
s off
f 122/465/461 137/466/462 158/467/463 160/468/464
f 132/469/465 133/470/466 162/471/467 161/472/468
f 133/473/469 128/474/470 163/475/471 162/476/472
s 13
f 128/477/334 119/478/333 164/479/473 163/480/474
s 15
f 119/481/341 132/482/344 161/483/475 164/484/476
s off
f 124/485/477 134/486/478 165/487/479 166/488/480
f 134/489/481 135/490/482 167/491/483 165/492/484
s 14
f 135/493/339 120/494/338 168/495/485 167/496/486
s 17
f 120/497/351 124/498/350 166/499/487 168/500/488
s 12
f 117/501/332 127/502/331 170/503/489 169/504/490
s off
f 127/505/491 141/506/492 171/507/493 170/508/494
f 141/509/495 140/510/496 172/511/497 171/512/498
s 18
f 140/513/405 117/514/408 169/515/499 172/516/500
s off
f 143/517/501 142/518/502 173/519/503 174/520/504
f 142/521/505 123/522/506 175/523/507 173/524/508
s 16
f 123/525/345 118/526/348 176/527/509 175/528/510
s 19
f 118/529/415 143/530/414 174/531/511 176/532/512
