# 3ds Max Wavefront OBJ Exporter v0.97b - (c)2007 guruware
# File Created: 03.01.2012 15:45:27

mtllib Vana-posti_3_3a-origo.mtl

#
# object Vana_Post_3_3a
#

v  542285.4806 6588910.4723 18.5893
v  542285.4589 6588910.4278 18.5884
v  542297.0584 6588903.3401 18.5936
v  542303.7885 6588909.415 18.7260
v  542288.6952 6588917.0774 18.6467
v  542288.6952 6588917.0774 19.8312
v  542292.0378 6588923.943 19.8312
v  542285.7511 6588927.0033 19.8312
v  542285.101 6588909.6925 19.8312
v  542285.6629 6588926.8221 20.1949
v  542291.9496 6588923.7618 20.1949
v  542292.0378 6588923.943 20.1949
v  542285.5699 6588927.0915 20.1949
v  542285.6629 6588926.8221 19.8312
v  542291.9496 6588923.7618 19.8312
v  542285.5699 6588927.0915 19.8312
v  542278.9024 6588912.934 20.1949
v  542278.633 6588912.841 20.1949
v  542278.9024 6588912.934 19.8312
v  542278.633 6588912.841 19.8312
v  542278.5424 6588912.8851 20.1949
v  542285.4793 6588927.1356 20.1949
v  542285.4793 6588927.1356 19.8312
v  542278.5424 6588912.8851 19.8312
v  542285.1892 6588909.8737 20.1949
v  542285.101 6588909.6925 20.1949
v  542285.1892 6588909.8737 19.8312
v  542278.8142 6588912.7528 19.8312
v  542279.223 6588912.5537 19.8312
v  542281.8674 6588911.2666 19.8312
v  542282.3302 6588911.041 19.8312
v  542284.6908 6588909.8922 19.8312
v  542300.2576 6588901.4723 18.5949
v  542292.858 6588906.143 15.5502
v  542292.858 6588906.143 18.1725
v  542289.3716 6588908.2733 18.1725
v  542289.3716 6588908.2733 15.5502
v  542296.754 6588903.7624 15.5329
v  542296.754 6588903.7623 18.1725
v  542293.2676 6588905.8927 18.1725
v  542293.266 6588905.8923 15.5502
v  542288.962 6588908.5236 15.5502
v  542288.962 6588908.5236 18.1725
v  542285.8851 6588910.4037 18.1725
v  542285.8851 6588910.4037 15.5329
v  542279.3112 6588912.735 18.5900
v  542279.3112 6588912.735 15.5514
v  542281.9556 6588911.4478 15.5514
v  542281.9556 6588911.4478 18.5900
v  542284.7792 6588910.0737 15.5514
v  542284.7792 6588910.0737 18.5900
v  542282.4184 6588911.2222 18.5900
v  542282.4184 6588911.2222 15.5514
v  542292.0378 6588923.943 15.5872
v  542288.6952 6588917.0774 15.5186
v  542288.6952 6588917.0774 19.2332
v  542285.101 6588909.6925 15.5514
v  542285.4516 6588910.4259 15.5387
v  542285.5699 6588927.0915 15.5514
v  542300.257 6588901.4721 15.5394
v  542297.0588 6588903.3399 15.5394
v  542278.633 6588912.841 18.5900
v  542278.633 6588912.841 15.5514
v  542281.8675 6588911.2665 18.5900
v  542279.223 6588912.5537 18.5900
v  542284.6908 6588909.8922 18.5900
v  542282.3302 6588911.041 18.5900
v  542289.2665 6588908.1013 18.1552
v  542285.78 6588910.2317 18.1552
v  542285.7762 6588910.2308 15.5329
v  542296.6489 6588903.5904 18.1552
v  542296.6498 6588903.5867 15.5329
v  542293.1625 6588905.7207 18.1552
v  542285.8851 6588910.4037 18.1552
v  542289.3716 6588908.2733 18.1552
v  542293.2675 6588905.8927 18.1552
v  542296.754 6588903.7624 18.1552
v  542293.1625 6588905.7207 15.5502
v  542293.1625 6588905.7207 18.1725
v  542292.7529 6588905.971 18.1725
v  542292.7529 6588905.971 15.5502
v  542289.2665 6588908.1013 15.5502
v  542289.2665 6588908.1013 18.1725
v  542288.857 6588908.3516 18.1725
v  542288.857 6588908.3516 15.5502
v  542281.8675 6588911.2665 15.5514
v  542282.3302 6588911.041 15.5514
v  542279.223 6588912.5537 15.5514
v  542284.6908 6588909.8922 15.5514
v  542285.101 6588909.6925 18.5900
# 90 vertices

vn -0.0082 -0.0127 0.9999
vn -0.0078 -0.0049 1.0000
vn 0.0000 0.0000 1.0000
vn -0.4377 -0.8991 0.0000
vn 0.0000 0.0000 -1.0000
vn 0.4377 0.8991 0.0000
vn 0.8991 -0.4377 0.0000
vn -0.8991 0.4377 0.0000
vn 0.4376 0.8991 0.0000
vn -0.4376 -0.8991 0.0000
vn -0.0080 -0.0130 0.9999
vn -0.5214 -0.8533 0.0000
vn -0.5214 -0.8533 -0.0000
vn -0.5212 -0.8535 0.0004
vn -0.4375 -0.8992 -0.0000
vn -0.4375 -0.8992 0.0000
vn 0.9022 -0.4313 -0.0019
vn -0.5042 -0.8636 0.0002
vn -0.5043 -0.8635 0.0000
vn -0.5214 -0.8533 -0.0001
vn -0.5203 -0.8540 0.0011
vn -0.5151 -0.8571 0.0018
vn -0.5167 -0.8562 0.0010
vn -0.5215 -0.8533 0.0000
vn 0.8461 -0.5329 -0.0010
vn 0.8533 -0.5214 0.0000
vn -0.8533 0.5214 -0.0010
vn -0.8602 0.5100 0.0000
vn 0.8533 -0.5214 -0.0004
vn 0.8563 -0.5165 0.0000
vn -0.8533 0.5214 0.0000
vn -0.5215 -0.8532 0.0000
vn -0.8535 0.5210 0.0000
vn -0.4381 -0.8989 0.0000
vn -0.4382 -0.8989 0.0000
vn -0.4378 -0.8991 0.0000
vn -0.4379 -0.8990 0.0000
vn -0.4376 -0.8992 0.0000
vn -0.8994 0.4371 0.0000
vn 0.8992 -0.4375 -0.0000
vn 0.8992 -0.4375 0.0000
vn -0.8990 0.4379 0.0000
vn -0.8990 0.4379 -0.0000
vn 0.8992 -0.4376 0.0000
vn 0.8991 -0.4377 0.0001
# 45 vertex normals

vt -0.4804 -1.4513 0.0005
vt -0.4814 -1.4638 0.0005
vt 3.4204 -1.5904 0.0005
vt 4.4759 0.3996 0.0005
vt -0.3475 0.5561 0.0005
vt -0.4544 0.9541 0.9995
vt -0.4049 3.0344 0.9995
vt -2.4123 3.0829 0.9995
vt -0.5140 -1.5502 0.9995
vt -1.8381 2.9595 0.9995
vt 2.6797 2.8858 0.9995
vt 2.6751 2.9491 0.9995
vt -1.9730 3.0249 0.9995
vt -1.8381 0.0005 2.9595
vt 2.6797 0.0005 2.8858
vt 2.6797 0.9995 2.8858
vt -1.8381 0.9995 2.9595
vt 2.9730 3.0249 0.0005
vt -1.6751 2.9491 0.0005
vt -1.6797 2.8858 0.0005
vt 2.8381 2.9595 0.0005
vt 2.9730 0.9995 3.0249
vt -1.6751 0.9995 2.9491
vt -1.6751 0.0005 2.9491
vt 2.9730 0.0005 3.0249
vt -1.4843 -1.8890 0.9995
vt -1.6099 -1.9501 0.9995
vt -1.8890 0.0005 -1.4843
vt 2.9595 0.0005 -1.8381
vt 2.9595 0.9995 -1.8381
vt -1.8890 0.9995 -1.4843
vt 2.6099 -1.9501 0.0005
vt 2.4843 -1.8890 0.0005
vt 2.9491 0.9995 -1.6751
vt -2.0260 0.9995 -2.0381
vt -2.0260 0.0005 -2.0381
vt 2.9491 0.0005 -1.6751
vt 3.0335 -1.9627 0.9995
vt 3.0381 -2.0260 0.9995
vt -2.0335 0.0005 -1.9627
vt 2.4843 0.0005 -1.8890
vt 2.4843 0.9995 -1.8890
vt -2.0335 0.9995 -1.9627
vt -2.0381 -2.0260 0.0005
vt -2.0335 -1.9627 0.0005
vt 3.0381 0.9995 -2.0260
vt -1.6099 0.9995 -1.9501
vt -1.6099 0.0005 -1.9501
vt 3.0381 0.0005 -2.0260
vt 2.9491 0.9995 2.6751
vt 2.8858 0.9995 2.6797
vt 2.8858 0.0005 2.6797
vt 2.9491 0.0005 2.6751
vt -1.9627 0.0005 3.0335
vt -1.9627 0.9995 3.0335
vt -2.0260 0.9995 3.0381
vt -2.0260 0.0005 3.0381
vt 3.0381 0.0005 3.0260
vt 3.0381 0.9995 3.0260
vt 2.6751 -1.9491 0.0005
vt 3.0381 3.0260 0.0005
vt -1.6751 0.9995 -1.9491
vt -1.6751 0.0005 -1.9491
vt -2.0381 3.0260 0.9995
vt -1.6751 -1.9491 0.9995
vt -2.5215 -1.5017 0.9995
vt -2.1200 -1.5114 0.9995
vt -1.7185 -1.5211 0.9995
vt -1.3170 -1.5308 0.9995
vt -0.9155 -1.5405 0.9995
vt 4.4113 -1.6225 0.0005
vt 1.0000 0.0000 0.0000
vt 1.0000 1.0000 0.0000
vt 0.0000 1.0000 0.0000
vt 0.0000 0.0000 0.0000
vt 3.7090 -0.1416 0.8774
vt 3.7090 1.1536 0.8774
vt 1.5961 0.7603 -0.1511
vt 1.5961 -0.1416 -0.1511
vt 1.5536 1.1536 -0.1718
vt 1.5737 0.9676 -0.1620
vt -0.7960 0.7393 -1.3156
vt -1.0411 -0.1416 -1.4349
vt -0.7960 -0.1470 -1.3155
vt 0.1226 -0.1427 3.7090
vt 2.2786 -0.1427 4.7585
vt 2.2786 1.1536 4.7585
vt 0.1226 1.1536 3.7090
vt 3.5328 -0.1467 -3.7586
vt 3.5328 0.7415 -3.7586
vt 2.5509 0.7411 -3.1586
vt 2.5509 -0.1467 -3.1586
vt 0.9916 0.7399 -3.5909
vt 0.9916 1.1536 -3.5909
vt -3.7585 1.1536 -1.2786
vt 0.9916 -0.1427 -3.5909
vt -3.7585 -0.1427 -1.2786
vt 3.5127 -0.5165 0.7399
vt 4.3942 -0.0874 0.7399
vt 4.3648 -0.0270 0.7399
vt 3.4833 -0.4560 0.7399
vt 2.5716 -0.9746 0.7399
vt 3.3585 -0.5916 0.7399
vt 3.3291 -0.5312 0.7399
vt 2.5421 -0.9141 0.7399
vt 1.2104 0.6388 0.5054
vt 5.1064 0.8580 -1.8752
vt -0.6934 0.8554 1.6686
vt -0.5329 0.6388 1.5706
vt -0.5329 -0.4768 1.5706
vt -0.6934 -0.4740 1.6687
vt 4.9016 0.6388 -1.7501
vt 4.9016 -0.4768 -1.7501
vt 5.1063 -0.4736 -1.8752
vt 3.1584 0.6388 -0.6849
vt 1.5706 0.6388 -0.5329
vt 1.5706 -0.4768 -0.5329
vt 1.6566 -0.4768 -0.4803
vt 1.6566 0.6388 -0.4803
vt -0.2104 0.5054 0.6388
vt 1.5329 1.5706 0.6388
vt 1.4803 1.6566 0.6388
vt -0.2629 0.5914 0.6388
vt -2.1584 -0.6849 0.6388
vt -2.2109 -0.5989 0.6388
vt -3.9016 -1.7501 0.6388
vt -3.9541 -1.6641 0.6388
vt 2.7501 -0.4768 4.9016
vt 2.7501 0.6388 4.9016
vt 2.6641 0.6388 4.9541
vt 2.6641 -0.4768 4.9541
vt 3.1584 -0.4682 -0.6849
vt 3.1584 0.6475 -0.6849
vt 2.9536 0.6475 -0.5598
vt 2.9536 -0.4682 -0.5598
vt -0.5989 -0.4682 3.2109
vt -0.5989 0.6475 3.2109
vt -0.6849 0.6475 3.1584
vt -0.6849 -0.4682 3.1584
vt 1.5598 -0.4682 2.9536
vt 1.5598 0.6475 2.9536
vt 1.4738 0.6475 3.0061
vt 1.4738 -0.4682 3.0061
vt 2.9536 -0.5598 0.6475
vt 3.1584 -0.6849 0.6475
vt 3.2109 -0.5989 0.6475
vt 3.0061 -0.4738 0.6475
vt 1.2104 -0.4682 0.5054
vt 1.2104 0.6475 0.5054
vt 1.0056 0.6475 0.6305
vt 1.0056 -0.4682 0.6305
vt 0.5914 -0.4682 1.2629
vt 0.5914 0.6475 1.2629
vt 0.5054 0.6475 1.2104
vt 0.5054 -0.4682 1.2104
vt 0.3695 -0.4682 1.0056
vt 0.3695 0.6475 1.0056
vt 0.2835 0.6475 1.0581
vt 0.2835 -0.4682 1.0581
vt 1.0056 0.6305 0.6475
vt 1.2104 0.5054 0.6475
vt 1.2629 0.5914 0.6475
vt 1.0581 0.7165 0.6475
vt -2.4891 0.8562 2.0880
vt -2.4891 -0.4676 2.0880
vt -2.2578 -0.4676 1.9752
vt -2.2578 0.8562 1.9752
vt -2.4892 1.4768 2.0880
vt -2.2578 1.4768 1.9752
vt -4.1064 0.8562 2.8752
vt -4.1064 -0.4676 2.8752
vt -3.8114 -0.4676 2.7316
vt -3.8114 0.8562 2.7316
vt -1.0775 -0.4676 1.4008
vt -0.8724 -0.4676 1.3010
vt -0.8724 0.8562 1.3010
vt -1.0775 0.8562 1.4008
vt -4.0158 1.4768 2.8311
vt -4.1064 1.4768 2.8752
vt -3.8114 1.4768 2.7316
vt -0.8724 1.4768 1.3010
vt -1.0775 1.4768 1.4008
vt -1.0880 -0.4676 -2.4891
vt -1.0880 0.8562 -2.4891
vt -1.1786 0.8562 -2.4451
vt -1.1786 -0.4676 -2.4451
vt 2.7316 0.8562 -3.8114
vt 2.7316 -0.4676 -3.8114
vt 2.8222 -0.4676 -3.7673
vt 2.8222 0.8562 -3.7673
vt -0.4008 -0.4676 -1.0775
vt -0.4008 0.8562 -1.0775
vt -0.4916 0.8562 -1.0333
vt -0.4916 -0.4676 -1.0333
vt 1.9752 0.8562 -2.2578
vt 1.9752 -0.4676 -2.2578
vt 2.0658 -0.4676 -2.2137
vt 2.0658 0.8562 -2.2137
vt -1.0411 0.7399 -1.4349
vt -1.0411 1.1536 -1.4349
vt -0.7812 0.7396 -1.3083
# 201 texture coords

g Vana_Post_3_3a
usemtl 03___Default
s off
f 1/1/1 2/2/1 3/3/1 4/4/1 
f 1/1/2 4/4/2 5/5/2 
f 6/6/3 7/7/3 8/8/3 9/9/3 
usemtl 02___Default
f 10/10/3 11/11/3 12/12/3 
f 12/12/3 13/13/3 10/10/3 
f 14/14/4 15/15/4 11/16/4 
f 11/16/4 10/17/4 14/14/4 
f 16/18/5 7/19/5 15/20/5 
f 15/20/5 14/21/5 16/18/5 
f 13/22/6 12/23/6 7/24/6 
f 7/24/6 16/25/6 13/22/6 
f 17/26/3 10/10/3 13/13/3 
f 13/13/3 18/27/3 17/26/3 
f 19/28/7 14/29/7 10/30/7 
f 10/30/7 17/31/7 19/28/7 
f 20/32/5 16/18/5 14/21/5 
f 14/21/5 19/33/5 20/32/5 
f 21/34/8 22/35/8 23/36/8 
f 23/36/8 24/37/8 21/34/8 
f 25/38/3 17/26/3 18/27/3 
f 18/27/3 26/39/3 25/38/3 
f 27/40/6 19/41/6 17/42/6 
f 17/42/6 25/43/6 27/40/6 
f 9/44/5 20/32/5 19/33/5 
f 19/33/5 27/45/5 9/44/5 
f 26/46/4 18/47/4 20/48/4 
f 20/48/4 9/49/4 26/46/4 
f 12/50/7 11/51/7 15/52/7 
f 15/52/7 7/53/7 12/50/7 
f 27/54/7 25/55/7 26/56/7 
f 26/56/7 9/57/7 27/54/7 
f 13/22/9 16/25/9 23/58/9 
f 23/58/9 22/59/9 13/22/9 
f 16/18/5 20/32/5 24/60/5 
f 24/60/5 23/61/5 16/18/5 
f 20/48/10 18/47/10 21/62/10 
f 21/62/10 24/63/10 20/48/10 
f 18/27/3 13/13/3 22/64/3 
f 22/64/3 21/65/3 18/27/3 
usemtl 03___Default
f 28/66/3 29/67/3 30/68/3 
f 28/66/5 30/68/5 31/69/5 
f 28/66/3 31/69/3 32/70/3 
f 28/66/5 32/70/5 9/9/5 
f 8/8/3 28/66/3 9/9/3 
f 3/3/11 33/71/11 4/4/11 
usemtl 03___Default11
f 34/72/12 35/73/12 36/74/12 
f 36/74/12 37/75/12 34/72/12 
f 38/72/13 39/73/13 40/74/13 
f 40/74/14 41/75/14 38/72/14 
f 42/72/12 43/73/12 44/74/12 
f 44/74/12 45/75/12 42/72/12 
f 46/74/4 47/75/4 48/72/4 
f 48/72/4 49/73/4 46/74/4 
f 50/72/15 51/73/15 52/74/15 
f 52/74/16 53/75/16 50/72/16 
usemtl 03___Default1
f 54/76/7 7/77/7 5/78/7 55/79/7 
f 7/77/7 6/80/7 56/81/7 
f 5/78/7 7/77/7 56/81/7 
f 2/82/17 57/83/17 58/84/17 
f 54/85/6 59/86/6 16/87/6 
f 16/87/6 7/88/6 54/85/6 
f 60/89/18 33/90/18 3/91/18 
f 3/91/19 61/92/19 60/89/19 
f 62/93/8 20/94/8 16/95/8 
f 63/96/8 62/93/8 16/95/8 
f 63/96/8 16/95/8 59/97/8 
f 64/98/5 65/99/5 46/100/5 
f 46/100/5 49/101/5 64/98/5 
f 66/102/5 67/103/5 52/104/5 
f 52/104/5 51/105/5 66/102/5 
usemtl 12___Default
f 68/106/13 3/107/13 2/108/13 
f 69/109/20 68/106/20 2/108/20 
f 70/110/21 69/109/21 2/108/21 
f 2/108/22 58/111/22 70/110/22 
f 71/112/23 72/113/23 61/114/23 
f 71/112/24 61/114/24 3/107/24 
f 73/115/20 71/112/20 3/107/20 
f 68/106/13 73/115/13 3/107/13 
f 69/116/25 70/117/25 45/118/25 
f 45/118/26 74/119/26 69/116/26 
f 68/120/5 69/121/5 74/122/5 
f 74/122/5 75/123/5 68/120/5 
f 73/124/5 68/120/5 75/123/5 
f 75/123/5 76/125/5 73/124/5 
f 71/126/5 73/124/5 76/125/5 
f 76/125/5 77/127/5 71/126/5 
f 72/128/27 71/129/27 77/130/27 
f 77/130/28 38/131/28 72/128/28 
f 78/132/12 79/133/12 80/134/12 
f 80/134/12 81/135/12 78/132/12 
f 41/136/29 40/137/29 79/138/29 
f 79/138/30 78/139/30 41/136/30 
f 81/140/31 80/141/31 35/142/31 
f 35/142/31 34/143/31 81/140/31 
f 80/144/3 79/145/3 40/146/3 
f 40/146/3 35/147/3 80/144/3 
f 82/148/32 83/149/32 84/150/32 
f 84/150/32 85/151/32 82/148/32 
f 37/152/26 36/153/26 83/154/26 
f 83/154/26 82/155/26 37/152/26 
f 85/156/33 84/157/33 43/158/33 
f 43/158/33 42/159/33 85/156/33 
f 84/160/3 83/161/3 36/162/3 
f 36/162/3 43/163/3 84/160/3 
f 64/164/34 86/165/34 87/166/34 
f 87/166/34 67/167/34 64/164/34 
f 30/168/34 64/164/34 67/167/34 
f 67/167/35 31/169/35 30/168/35 
f 62/170/36 63/171/36 88/172/36 
f 88/172/36 65/173/36 62/170/36 
f 89/174/4 57/175/4 90/176/4 
f 90/176/4 66/177/4 89/174/4 
f 28/178/10 20/179/10 62/170/10 
f 28/178/36 62/170/36 65/173/36 
f 29/180/37 28/178/37 65/173/37 
f 29/180/4 65/173/4 64/164/4 
f 64/164/38 30/168/38 29/180/38 
f 90/176/4 9/181/4 32/182/4 
f 32/182/4 66/177/4 90/176/4 
f 66/177/38 32/182/38 31/169/38 
f 31/169/38 67/167/38 66/177/38 
f 86/183/39 64/184/39 49/185/39 
f 49/185/39 48/186/39 86/183/39 
f 65/187/40 88/188/40 47/189/40 
f 47/189/41 46/190/41 65/187/41 
f 89/191/42 66/192/42 51/193/42 
f 51/193/43 50/194/43 89/191/43 
f 67/195/7 87/196/7 53/197/7 
f 53/197/7 52/198/7 67/195/7 
usemtl 03___Default1
f 90/199/44 56/81/44 6/80/44 9/200/44 
f 90/199/45 57/83/45 2/82/45 56/81/45 
f 56/81/44 2/82/44 1/201/44 5/78/44 
# 6 polygons - 126 triangles

#
# object xxx
#

v  542288.6952 6588917.0774 18.6467
v  542303.7885 6588909.415 18.7260
v  542303.7888 6588909.4148 15.5186
v  542288.6952 6588917.0774 15.5186
v  542300.257 6588901.4721 15.5394
v  542300.2576 6588901.4723 18.5949
# 6 vertices

vn 0.4527 0.8917 -0.0000
vn 0.4527 0.8917 0.0000
vn 0.9137 -0.4063 0.0001
vn 0.9138 -0.4062 -0.0002
# 4 vertex normals

vt 1.1511 0.7603 1.5961
vt -3.5909 0.7852 -1.2935
vt -3.5909 -0.1536 -1.2935
vt 1.1511 -0.1476 1.5961
vt -3.7586 -0.1467 3.5328
vt -1.2935 -0.1536 4.5909
vt -1.2935 0.7852 4.5909
vt -3.7586 0.7415 3.5328
# 8 texture coords

g xxx
usemtl 03___Default1
s off
f 91/202/46 92/203/46 93/204/46 
f 94/205/47 91/202/47 93/204/47 
f 95/206/48 93/207/48 92/208/48 
f 92/208/49 96/209/49 95/206/49 
# 0 polygons - 4 triangles

