# 3ds Max Wavefront OBJ Exporter v0.97b - (c)2007 guruware
# File Created: 19.02.2012 22:15:36

mtllib Vene_8_2.mtl

#
# object Vene_8_2
#

v  167.047485 -4.739695 8.625082
v  167.430908 0.641924 8.625082
v  162.169373 0.797330 8.625082
v  162.112869 0.203959 8.625082
v  153.642090 0.500645 8.625082
v  153.396286 -4.127048 8.625082
v  167.047485 -4.739695 15.174227
v  167.430908 0.641923 11.401657
v  162.169373 0.797330 11.401657
v  162.112869 0.203959 11.269054
v  153.642090 0.500645 11.269054
v  153.396286 -4.127049 15.174227
v  162.112869 0.203959 13.735126
v  153.642090 0.500645 13.735126
v  162.301971 -4.509164 8.625082
v  162.301971 -4.509164 15.174227
v  167.430908 0.641923 10.945707
v  162.169373 0.797330 10.945707
v  167.449875 1.283994 10.945707
v  162.188339 1.439401 10.945707
v  167.046616 -2.487754 13.589334
v  166.023041 -2.451903 13.589334
v  166.023041 -2.451903 18.010862
v  167.046616 -2.487753 18.010862
v  167.028137 -3.015243 13.589334
v  166.004562 -2.979392 13.589334
v  166.004562 -2.979392 18.010862
v  167.028137 -3.015243 18.010862
v  163.385712 -4.554707 15.174227
v  163.385712 -4.554707 8.625082
# 30 vertices

vn 0.997472 -0.071067 -0.000000
vn 0.997472 -0.071067 -0.000000
vn 0.997472 -0.071067 -0.000000
vn 0.997472 -0.071067 -0.000000
vn 0.997472 -0.071067 -0.000000
vn 0.997472 -0.071067 -0.000000
vn 0.029523 0.999564 -0.000000
vn 0.029523 0.999564 -0.000000
vn 0.029523 0.999564 0.000000
vn 0.029523 0.999564 0.000000
vn 0.029523 0.999564 0.000000
vn 0.029523 0.999564 -0.000000
vn -0.995497 0.094795 -0.000000
vn -0.995497 0.094795 -0.000000
vn -0.995497 0.094795 -0.000000
vn -0.995497 0.094795 -0.000000
vn -0.995497 0.094795 0.000000
vn -0.995497 0.094795 -0.000000
vn -0.995497 0.094795 -0.000000
vn -0.995497 0.094795 -0.000000
vn -0.995497 0.094795 -0.000000
vn 0.035003 0.999387 0.000000
vn 0.035003 0.999387 -0.000000
vn 0.035003 0.999387 -0.000000
vn 0.035003 0.999387 -0.000000
vn 0.035003 0.999387 0.000000
vn 0.035003 0.999387 0.000000
vn -0.998592 0.053041 0.000000
vn -0.998592 0.053041 0.000000
vn -0.998592 0.053041 0.000000
vn -0.998592 0.053041 0.000000
vn -0.998592 0.053041 0.000000
vn -0.998592 0.053041 0.000000
vn -0.042427 -0.999100 -0.000000
vn -0.042427 -0.999100 -0.000000
vn -0.042867 -0.999081 -0.000000
vn -0.042867 -0.999081 -0.000000
vn -0.042867 -0.999081 -0.000000
vn -0.042427 -0.999100 -0.000000
vn 0.035003 0.999387 0.000000
vn 0.035003 0.999387 0.000000
vn 0.035003 0.999387 0.000000
vn 0.035003 0.999387 0.000000
vn 0.035003 0.999387 0.000000
vn 0.035003 0.999387 0.000000
vn -0.998592 0.053041 0.000000
vn -0.998592 0.053041 0.000000
vn -0.998592 0.053041 0.000000
vn -0.046221 -0.998931 -0.000000
vn -0.046221 -0.998931 -0.000000
vn -0.042427 -0.999100 -0.000000
vn -0.042427 -0.999100 -0.000000
vn -0.042427 -0.999100 -0.000000
vn -0.046221 -0.998931 -0.000000
vn 0.011071 0.293706 0.955832
vn 0.010241 0.292390 0.956244
vn 0.011922 0.295055 0.955406
vn 0.011922 0.295055 0.955406
vn 0.012714 0.296309 0.955007
vn 0.011071 0.293706 0.955832
vn 0.999196 0.040092 0.000000
vn 0.999196 0.040092 0.000000
vn 0.999196 0.040092 0.000000
vn 0.028917 0.572395 0.819468
vn 0.028917 0.572395 0.819468
vn 0.028917 0.572395 0.819468
vn 0.017089 0.578569 0.815455
vn 0.017089 0.578569 0.815455
vn 0.017089 0.578569 0.815455
vn 0.017089 0.578569 0.815455
vn 0.017089 0.578569 0.815455
vn 0.017089 0.578569 0.815455
vn 0.999564 -0.029523 0.000000
vn 0.999564 -0.029523 0.000000
vn 0.999564 -0.029523 0.000000
vn 0.000000 0.000000 -1.000000
vn 0.000000 0.000000 -1.000000
vn 0.000000 0.000000 -1.000000
vn 0.000000 0.000000 -1.000000
vn 0.000000 0.000000 -1.000000
vn 0.000000 0.000000 -1.000000
vn -0.999564 0.029523 0.000000
vn -0.999564 0.029523 0.000000
vn -0.999564 0.029523 0.000000
vn -0.989677 0.065788 0.127324
vn -0.989677 0.065788 0.127324
vn -0.989677 0.065788 0.127324
vn 0.035003 0.999387 -0.000000
vn 0.035003 0.999387 -0.000000
vn 0.035003 0.999387 -0.000000
vn 0.035003 0.999387 -0.000000
vn 0.035003 0.999387 -0.000000
vn 0.035003 0.999387 -0.000000
vn -0.999387 0.035008 0.000000
vn -0.999387 0.035008 0.000000
vn -0.999387 0.035008 0.000000
vn -0.999387 0.035008 0.000000
vn -0.999387 0.035008 0.000000
vn -0.999387 0.035008 0.000000
vn 0.999387 -0.035002 0.000000
vn 0.999387 -0.035002 0.000000
vn 0.999387 -0.035002 0.000000
vn 0.999387 -0.035002 0.000000
vn 0.999387 -0.035002 0.000000
vn 0.999387 -0.035002 0.000000
vn -0.035003 -0.999387 0.000000
vn -0.035003 -0.999387 0.000000
vn -0.035003 -0.999387 0.000000
vn -0.035003 -0.999387 0.000000
vn -0.035003 -0.999387 0.000000
vn -0.035003 -0.999387 0.000000
vn 0.000000 0.000000 1.000000
vn 0.000000 0.000000 1.000000
vn 0.000000 0.000000 1.000000
vn 0.000000 0.000000 1.000000
vn 0.000000 0.000000 1.000000
vn 0.000000 0.000000 1.000000
vn 0.997472 -0.071067 -0.000000
vn 0.997472 -0.071067 -0.000000
vn 0.997472 -0.071067 -0.000000
vn -0.050454 -0.998726 -0.000000
vn -0.050454 -0.998726 -0.000000
vn -0.046221 -0.998931 -0.000000
vn -0.046221 -0.998931 -0.000000
vn -0.046221 -0.998931 -0.000000
vn -0.050454 -0.998726 -0.000000
vn 0.024360 0.579660 0.814494
vn 0.024360 0.579660 0.814494
vn 0.024360 0.579660 0.814494
vn 0.017091 0.578647 0.815399
vn 0.017091 0.578647 0.815399
vn 0.017091 0.578647 0.815399
# 132 vertex normals

vt -0.249567 -0.220582 2.152357
vt 1.104756 -0.220582 -1.255995
vt -0.249567 1.220582 2.152357
vt 1.104756 1.220582 -1.255995
vt 0.035003 0.999387 0.000000
vt -0.199301 1.220582 0.969272
vt 0.239486 -0.605382 0.622909
vt 0.751276 -0.605382 0.640835
vt 0.751275 1.605382 0.640835
vt 0.239486 1.605382 0.622910
vt 0.622910 -0.605382 0.239486
vt 0.622909 1.605382 0.239486
vt 0.359165 1.605382 0.751277
vt 0.359165 -0.605382 0.751277
vt 0.359165 1.605382 0.248725
vt 0.359165 -0.605382 0.248724
vt 0.622909 -0.605382 0.760514
vt 0.622910 1.605382 0.760514
vt 0.751277 -0.605382 0.359165
vt 0.751277 1.605382 0.359165
vt 0.239486 1.605382 0.377091
vt 0.239486 -0.605382 0.377090
vt 0.000000 0.000000 0.000000
vt 1.000000 0.000000 0.000000
vt 1.000000 1.000000 0.000000
vt 0.000000 1.000000 0.000000
vt -0.788995 -0.625676 0.108219
vt 1.842787 -0.652202 0.108219
vt 1.725882 1.922713 0.999501
vt -0.641795 1.977209 0.999501
vt 1.839550 -0.973362 0.000499
vt -0.792232 -0.946835 0.000499
vt -1.725267 -0.525089 0.999501
vt 2.725267 -0.714180 0.999501
vt 2.630209 1.565836 0.000500
vt -1.605180 1.714180 0.000500
vt -0.210862 1.220582 1.241382
vt 1.181316 1.935247 0.999501
vt -0.030448 0.718794 0.495042
vt -0.272387 -0.045762 2.156101
vt 1.073017 0.341009 2.251957
vt 1.073017 0.417000 2.251957
vt -0.272387 1.045762 2.156101
vt -1.251957 -0.045762 1.073017
vt 0.063427 -0.045762 1.111869
vt 0.063427 0.341009 1.111869
vt 0.036473 -0.045762 0.922447
vt 0.036473 0.394900 0.922447
vt -0.111869 0.417000 0.936573
vt 2.195247 -0.045762 1.037699
vt 2.195247 0.394900 1.037699
vt 1.119225 -0.045762 -1.256698
vt 1.119225 1.045762 -1.256698
vt 2.195247 0.805912 1.037699
vt 0.077553 0.805912 0.963527
vt -0.214754 1.045762 0.969724
vt 1.233535 0.341009 2.256699
vt 0.058686 1.272387 0.341009
vt -1.251957 0.341009 1.073017
vt -0.111869 -0.045762 0.936573
vt -0.111869 0.341009 0.936573
vt 0.077553 -0.045762 0.963527
vt 0.077553 0.394900 0.963527
vt -0.037699 -0.045762 -1.195247
vt -0.037699 0.394900 -1.195247
vt 0.077553 0.394900 0.963527
vt -0.037699 0.394900 -1.195247
vt -0.037699 0.805912 -1.195247
vt 0.963527 0.394900 0.922447
vt 0.963527 0.805912 0.922447
vt -1.251957 1.073017 0.341009
vt 0.063427 1.111869 0.341009
vt -1.256699 1.233535 0.341009
vt -0.111869 0.341009 0.936573
vt -0.272387 0.341009 0.941314
vt 1.214754 1.045762 0.969724
vt 1.073017 -0.045762 2.251957
# 77 texture coords

g Vene_8_2
usemtl Vene_8_2_seinad
s 1
f -30/-38/-132 -14/-37/-131 -23/-36/-130 
f -23/-36/-129 -24/-35/-128 -30/-38/-127 
s 4
f -28/-33/-126 -13/-32/-125 -14/-19/-124 
f -14/-19/-123 -29/-34/-122 -28/-33/-121 
s 2
f -28/-18/-120 -27/-31/-119 -21/-30/-118 
f -21/-30/-117 -22/-29/-116 -13/-17/-115 
f -28/-18/-114 -21/-30/-113 -13/-17/-112 
s 4
f -20/-27/-111 -21/-15/-110 -27/-16/-109 
f -27/-16/-108 -26/-28/-107 -20/-27/-106 
s 2
f -19/-25/-105 -20/-13/-104 -26/-14/-103 
f -26/-14/-102 -25/-26/-101 -19/-25/-100 
usemtl xxx
s 4
f -16/-73/-99 -15/-72/-98 -19/-74/-97 
f -19/-74/-96 -25/-76/-95 -16/-73/-94 
usemtl Vene_8_2_seinad
s off
f -21/-12/-93 -20/-27/-92 -17/-24/-91 
f -17/-24/-90 -18/-23/-89 -21/-12/-88 
f -20/-11/-87 -19/-25/-86 -17/-10/-85 
usemtl xxx
s 4
f -1/-39/-84 -2/-41/-83 -15/-72/-82 
f -15/-72/-81 -16/-73/-80 -1/-39/-79 
usemtl Vene_8_2_katuseplekk
s 1
f -15/-44/-78 -18/-43/-77 -17/-42/-76 
f -17/-42/-75 -19/-45/-74 -15/-44/-73 
usemtl Vene_8_2_seinad
s off
f -21/-9/-72 -18/-8/-71 -15/-22/-70 
usemtl Vene_8_2_katusekivi
f -23/-51/-69 -2/-40/-68 -24/-48/-67 
s 4
f -11/-47/-66 -22/-50/-65 -23/-51/-64 
f -23/-51/-63 -12/-46/-62 -11/-47/-61 
usemtl Vene_8_2_seinad
s off
f -23/-36/-60 -14/-37/-59 -12/-21/-58 
f -14/-7/-57 -13/-6/-56 -11/-20/-55 
f -11/-20/-54 -12/-5/-53 -14/-7/-52 
f -13/-4/-51 -22/-29/-50 -11/-3/-49 
f -22/-29/-48 -21/-30/-47 -15/-2/-46 
usemtl Vene_8_2_valge
s 4
f -8/-69/-45 -7/-68/-44 -10/-71/-43 
f -10/-71/-42 -9/-70/-41 -8/-69/-40 
s off
f -8/-63/-39 -9/-62/-38 -5/-67/-37 
f -5/-67/-36 -4/-66/-35 -8/-63/-34 
f -10/-61/-33 -7/-60/-32 -3/-65/-31 
f -3/-65/-30 -6/-64/-29 -10/-61/-28 
s 1
f -3/-58/-27 -4/-57/-26 -5/-56/-25 
f -5/-56/-24 -6/-59/-23 -3/-58/-22 
s off
f -4/-54/-21 -3/-53/-20 -7/-52/-19 
f -7/-52/-18 -8/-55/-17 -4/-54/-16 
usemtl Vene_8_2_seinad
s 1
f -30/-38/-15 -29/-1/-14 -14/-37/-13 
usemtl xxx
s 4
f -30/-77/-12 -24/-75/-11 -2/-41/-10 
f -2/-41/-9 -1/-39/-8 -30/-77/-7 
usemtl Vene_8_2_katusekivi
s off
f -22/-50/-6 -15/-49/-5 -2/-40/-4 
f -23/-51/-3 -22/-50/-2 -2/-40/-1 
# 44 faces

