# 3ds Max Wavefront OBJ Exporter v0.97b - (c)2007 guruware
# File Created: 06.09.2011 23:26:46

mtllib Laboratooriumi_22.mtl

#
# object Laboratooriumi_22
#

v  39.893684 447.568848 14.596715
v  28.330023 434.179993 14.596715
v  39.893665 447.568848 20.183975
v  28.330086 434.179932 19.142242
v  33.581135 440.259949 14.596715
v  33.581085 440.259918 20.183975
v  31.955957 438.378235 22.179966
v  33.581131 440.259949 22.179966
v  32.372765 438.860840 20.021515
v  31.955961 438.378235 14.596715
v  32.372765 438.860840 22.179966
v  33.581135 440.259949 16.502796
v  32.372765 438.860840 16.502796
v  32.537952 439.052094 16.316423
v  32.757450 439.306244 16.164894
v  32.976952 439.560394 16.102293
v  33.196445 439.814514 16.164894
v  33.415943 440.068665 16.316423
v  33.285130 440.253143 22.049953
v  33.285133 440.253143 17.866222
v  33.059967 440.185425 17.679844
v  32.837639 440.029083 17.528318
v  32.659389 439.834656 17.465717
v  32.492973 439.630005 17.528318
v  32.370636 439.387299 17.679846
v  32.336414 439.154694 17.866222
v  32.336411 439.154694 22.049953
v  32.399059 439.420227 21.962914
v  32.507183 439.646484 21.928459
v  32.659386 439.834656 21.916220
v  32.823421 440.012634 21.928457
v  33.031540 440.152527 21.962914
v  31.731928 438.118866 14.596715
v  29.954617 436.061005 14.596715
v  31.731926 438.118866 17.615299
v  29.954615 436.061005 17.615299
v  30.186821 436.329865 18.033867
v  30.515045 436.709900 18.282078
v  30.843269 437.089935 18.347080
v  31.171494 437.469971 18.282078
v  31.499718 437.850006 18.033867
v  31.807608 438.053497 14.596715
v  30.030296 435.995667 14.596715
v  30.030296 435.995667 17.615299
v  30.262501 436.264496 18.033867
v  30.590725 436.644531 18.282078
v  30.918949 437.024567 18.347080
v  31.247175 437.404602 18.282078
v  31.575399 437.784637 18.033867
v  31.807608 438.053497 17.615299
v  35.001858 441.904938 20.183975
v  36.191692 443.282532 14.596715
v  35.868603 442.908478 20.183975
v  34.407040 441.216187 16.909662
v  35.555687 442.546143 16.909662
v  34.407040 441.216187 14.852650
v  35.555687 442.546143 14.852650
v  34.975780 441.874695 17.569744
v  35.894234 442.938141 17.569744
v  34.975780 441.874695 19.109585
v  35.894234 442.938141 19.109585
v  35.100224 442.018799 19.220650
v  35.267616 442.212616 19.325047
v  35.435005 442.406433 19.357460
v  35.602398 442.600220 19.325047
v  35.769791 442.794037 19.220650
v  37.746227 445.082428 18.499680
v  37.895927 445.255768 18.499680
v  37.746227 445.082428 19.003151
v  37.895927 445.255768 19.003151
v  36.305149 443.413910 18.432701
v  36.516911 443.659088 18.432701
v  36.305149 443.413910 19.064587
v  36.516907 443.659088 19.064587
v  34.482719 441.150848 16.909662
v  35.631367 442.480774 16.909662
v  35.631367 442.480774 14.852650
v  34.482719 441.150848 14.852650
v  35.051460 441.809357 17.569744
v  35.051460 441.809357 19.109585
v  35.175903 441.953430 19.220650
v  35.343296 442.147247 19.325047
v  35.510689 442.341064 19.357460
v  35.678078 442.534882 19.325047
v  35.845470 442.728668 19.220650
v  35.969913 442.872772 19.109585
v  35.969913 442.872772 17.569744
v  37.821911 445.017059 18.499680
v  37.821911 445.017059 19.003151
v  37.971607 445.190399 19.003151
v  37.971607 445.190399 18.499680
v  36.380833 443.348541 18.432701
v  36.380829 443.348541 19.064587
v  36.592590 443.593719 19.064587
v  36.592590 443.593719 18.432701
v  34.487759 442.346252 22.181223
v  35.355846 443.351349 22.181217
v  35.001869 441.904907 21.101366
v  35.868618 442.908478 21.101366
v  35.422771 441.541382 20.021515
v  36.289520 442.544952 20.021515
v  36.634296 440.495026 22.181219
v  37.501045 441.498566 22.181219
v  35.872818 441.152710 21.101368
v  36.739563 442.156250 21.101368
v  36.389164 440.211212 22.182442
v  37.746174 441.782410 22.182442
v  37.718590 440.434601 23.364071
v  35.110043 442.030151 20.021515
v  35.760448 442.783234 20.021515
v  34.595242 442.470673 22.181223
v  35.247677 443.226105 22.181217
v  35.110043 442.030151 21.101366
v  35.760448 442.783234 21.101366
v  35.110043 442.030151 20.275591
v  35.760448 442.783234 20.275593
v  35.227512 441.928711 22.291754
v  35.877918 442.681763 22.291754
v  35.877918 442.681763 21.128906
v  35.877918 442.681763 20.396545
v  35.227512 441.928711 20.396545
v  35.227512 441.928711 21.128906
v  34.596256 442.471863 22.291754
v  33.752712 442.696899 22.181829
v  33.649494 442.577393 22.182442
v  35.006508 444.148590 22.182442
v  34.328003 443.363007 23.364069
v  34.903294 444.029083 22.181829
v  33.800938 442.762482 22.281015
v  34.845440 443.971832 22.281013
v  34.323189 443.367157 23.236614
v  36.492504 440.330841 22.182442
v  37.642838 441.662750 22.182442
v  34.347210 442.183502 22.181961
v  35.497738 443.515625 22.181963
v  35.444736 443.454254 22.291754
v  35.247677 443.226105 22.291754
v  34.400230 442.244904 22.291754
v  34.994530 443.843079 22.291754
v  33.950027 442.633698 22.291754
v  34.472279 443.238403 23.236616
v  35.303467 443.396576 19.745298
v  39.328529 448.056946 19.745298
v  43.096523 444.499023 25.234377
v  34.436722 442.393036 19.745298
v  33.015949 440.748016 19.745296
v  37.260479 441.706360 22.489838
v  36.393738 440.702820 22.489838
v  39.504284 447.905151 19.637901
v  35.479218 443.244781 19.637901
v  34.612476 442.241241 19.637901
v  33.191704 440.596222 19.637901
v  31.955925 438.378265 19.142107
v  31.203119 431.602905 23.202442
v  34.876373 435.855957 23.202442
v  28.072262 434.402618 18.903374
v  31.698200 438.600861 18.903374
v  31.782412 438.528137 18.907396
v  28.156473 434.329895 18.907398
v  36.929970 437.367554 23.257011
v  31.439835 438.824005 21.766336
v  33.065010 440.705688 21.766335
v  33.085217 440.688263 21.727655
v  31.460041 438.806549 21.727655
v  34.437817 436.234711 24.456404
v  35.304840 435.485901 25.234377
v  46.960613 440.832123 20.183979
v  35.725906 435.973419 25.234377
v  34.858845 436.722198 24.456404
v  36.929977 437.367554 25.234377
v  35.304859 435.485870 26.473057
v  35.725925 435.973419 26.473057
v  34.858864 436.722168 26.473057
v  34.437836 436.234711 26.473057
v  35.292397 436.347809 26.914917
v  34.871349 435.860291 26.914917
v  35.304852 435.485870 25.304180
v  35.725918 435.973419 25.304180
v  34.858852 436.722198 25.304180
v  34.437828 436.234711 25.304180
v  35.009750 436.591888 25.304180
v  35.575020 436.103729 25.304180
v  35.153961 435.616211 25.304180
v  34.588718 436.104401 25.304180
v  35.009762 436.591858 26.293625
v  35.575027 436.103729 26.293627
v  35.153969 435.616180 26.293627
v  34.588730 436.104370 26.293625
v  35.073772 436.536591 26.382822
v  35.183083 436.442200 26.442028
v  35.292393 436.347809 26.461277
v  35.401707 436.253387 26.442028
v  35.511017 436.158997 26.382822
v  35.089962 435.671478 26.382822
v  34.980656 435.765869 26.442028
v  34.871349 435.860291 26.461277
v  34.762039 435.954681 26.442028
v  34.652733 436.049103 26.382822
v  35.294559 427.605225 20.183979
v  39.356812 431.986267 20.183979
v  46.960617 440.832123 14.596718
v  35.294563 427.605225 14.596724
v  39.356812 431.986267 14.596720
v  34.277824 441.066589 14.852650
v  33.581135 440.259949 14.852650
v  34.277824 441.066589 16.320236
v  33.581135 440.259949 16.320236
v  34.057930 429.042419 21.176495
v  34.057945 429.042419 19.979538
v  34.057945 429.042419 14.596722
v  41.868202 437.950806 23.459305
v  42.756775 438.979614 21.911842
v  40.979630 436.921967 21.911844
v  42.621605 438.823120 21.911041
v  41.114803 437.078491 21.911043
v  39.648048 439.868317 23.459307
v  40.962845 440.528992 21.911844
v  39.185699 438.471375 21.911844
v  44.123631 440.562225 23.459305
v  43.235058 439.533386 21.911844
v  43.370232 439.689911 21.911043
v  44.877029 441.434540 21.911041
v  45.012207 441.591034 21.911844
v  41.903473 442.479736 23.459307
v  43.218269 443.140411 21.911844
v  41.441128 441.082794 21.911844
# 226 vertices

vn -0.756812 0.653632 -0.000001
vn -0.756812 0.653632 -0.000001
vn -0.756812 0.653632 -0.000001
vn -0.756811 0.653634 -0.000005
vn -0.756811 0.653634 -0.000005
vn -0.756811 0.653634 -0.000005
vn -0.756878 0.653557 -0.000000
vn -0.756878 0.653557 -0.000000
vn -0.756878 0.653557 -0.000000
vn -0.756808 0.653638 -0.000009
vn -0.756808 0.653638 -0.000009
vn -0.756808 0.653638 -0.000009
vn -0.756807 0.653638 -0.000001
vn -0.756808 0.653637 -0.000001
vn -0.756808 0.653637 -0.000001
vn -0.756808 0.653637 -0.000001
vn -0.756807 0.653638 -0.000000
vn -0.756807 0.653638 -0.000001
vn -0.756792 0.653656 -0.000009
vn -0.756792 0.653656 -0.000009
vn -0.756792 0.653656 -0.000009
vn -0.999848 0.015999 -0.006909
vn -0.999896 0.014426 -0.000001
vn -0.948078 0.318037 0.001265
vn -0.948078 0.318037 0.001265
vn -0.954790 0.291012 -0.060729
vn -0.999848 0.015999 -0.006909
vn -0.756807 0.653638 -0.000000
vn -0.756807 0.653639 -0.000001
vn -0.756807 0.653638 -0.000000
vn -0.756807 0.653639 -0.000001
vn -0.756807 0.653638 -0.000001
vn -0.756807 0.653638 -0.000000
vn -0.756807 0.653638 -0.000000
vn -0.756807 0.653638 -0.000000
vn -0.756807 0.653638 -0.000000
vn -0.756807 0.653638 -0.000000
vn -0.756807 0.653638 -0.000000
vn -0.756807 0.653638 -0.000001
vn -0.756807 0.653639 -0.000001
vn -0.756806 0.653639 -0.000001
vn -0.756807 0.653639 -0.000001
vn -0.756807 0.653639 -0.000001
vn -0.756807 0.653639 -0.000001
vn -0.756807 0.653638 -0.000001
vn -0.022927 0.999737 -0.000008
vn -0.022885 0.999738 -0.000001
vn -0.159756 0.987157 -0.000005
vn -0.542697 0.817300 -0.193653
vn -0.426850 0.902281 -0.060730
vn -0.161305 0.986880 -0.006908
vn -0.619031 0.742760 -0.255163
vn -0.626330 0.768118 -0.133062
vn -0.426850 0.902281 -0.060730
vn -0.667940 0.687883 -0.284030
vn -0.724855 0.626042 -0.287499
vn -0.626330 0.768118 -0.133062
vn -0.724855 0.626042 -0.287499
vn -0.851082 0.507893 -0.133061
vn -0.745835 0.644163 -0.169658
vn -0.777755 0.560735 -0.284030
vn -0.824932 0.504361 -0.255162
vn -0.851082 0.507893 -0.133061
vn -0.824932 0.504361 -0.255162
vn -0.887571 0.417991 -0.193650
vn -0.954790 0.291012 -0.060729
vn -0.887571 0.417991 -0.193650
vn -0.992435 -0.122771 -0.000001
vn -0.999848 0.015999 -0.006909
vn -0.452610 0.891708 0.001265
vn -0.159756 0.987157 -0.000005
vn -0.161305 0.986880 -0.006908
vn -0.161305 0.986880 -0.006908
vn -0.426850 0.902281 -0.060730
vn -0.452610 0.891708 0.001265
vn -0.646601 0.762827 0.001465
vn -0.452610 0.891708 0.001265
vn -0.426850 0.902281 -0.060730
vn -0.426850 0.902281 -0.060730
vn -0.626330 0.768118 -0.133062
vn -0.646601 0.762827 0.001465
vn -0.756807 0.653638 0.000153
vn -0.646601 0.762827 0.001465
vn -0.626330 0.768118 -0.133062
vn -0.626330 0.768118 -0.133062
vn -0.745835 0.644163 -0.169658
vn -0.756807 0.653638 0.000153
vn -0.756807 0.653638 0.000153
vn -0.745835 0.644163 -0.169658
vn -0.851082 0.507893 -0.133061
vn -0.851082 0.507893 -0.133061
vn -0.848797 0.528717 0.001465
vn -0.756807 0.653638 0.000153
vn -0.848797 0.528717 0.001465
vn -0.851082 0.507893 -0.133061
vn -0.954790 0.291012 -0.060729
vn -0.954790 0.291012 -0.060729
vn -0.948078 0.318037 0.001265
vn -0.848797 0.528717 0.001465
vn -0.992435 -0.122771 -0.000001
vn -0.999896 0.014426 -0.000001
vn -0.999848 0.015999 -0.006909
vn -0.022885 0.999738 -0.000001
vn -0.542697 0.817300 -0.193653
vn -0.161305 0.986880 -0.006908
vn -0.756807 0.653639 -0.000000
vn -0.756807 0.653639 -0.000000
vn -0.756807 0.653639 -0.000000
vn -0.756807 0.653639 -0.000000
vn -0.756807 0.653639 -0.000000
vn -0.756807 0.653639 -0.000000
vn -0.756807 0.653639 -0.000000
vn -0.756807 0.653639 -0.000000
vn -0.756807 0.653639 -0.000000
vn -0.756807 0.653639 -0.000000
vn -0.756807 0.653639 -0.000000
vn -0.756807 0.653639 -0.000000
vn -0.756807 0.653639 -0.000000
vn -0.756807 0.653639 -0.000000
vn -0.756807 0.653639 -0.000000
vn -0.756807 0.653639 -0.000000
vn -0.756807 0.653639 -0.000000
vn -0.756807 0.653639 -0.000000
vn -0.756807 0.653639 -0.000000
vn -0.756807 0.653639 -0.000000
vn -0.756807 0.653639 -0.000000
vn -0.756823 0.653620 0.000020
vn -0.756823 0.653620 0.000020
vn -0.756823 0.653620 0.000020
vn -0.756807 0.653639 -0.000000
vn -0.756807 0.653639 -0.000000
vn -0.756807 0.653639 -0.000000
vn -0.756823 0.653620 0.000020
vn -0.756823 0.653620 0.000020
vn -0.756823 0.653620 0.000020
vn -0.756822 0.653621 0.000003
vn -0.756822 0.653621 0.000003
vn -0.756822 0.653621 0.000003
vn -0.756810 0.653635 -0.000037
vn -0.756810 0.653635 -0.000037
vn -0.756810 0.653635 -0.000037
vn -0.756813 0.653632 0.000072
vn -0.756813 0.653632 0.000072
vn -0.756813 0.653632 0.000072
vn -0.756819 0.653625 0.000037
vn -0.756819 0.653625 0.000037
vn -0.756819 0.653625 0.000037
vn -0.756822 0.653621 -0.000020
vn -0.756822 0.653621 -0.000020
vn -0.756822 0.653621 -0.000020
vn -0.756815 0.653629 -0.000026
vn -0.756815 0.653629 -0.000026
vn -0.756815 0.653629 -0.000026
vn 0.653640 0.756805 0.000000
vn 0.653640 0.756805 0.000000
vn 0.653640 0.756805 0.000000
vn 0.653640 0.756805 0.000000
vn 0.653640 0.756805 0.000000
vn 0.653640 0.756805 0.000000
vn 0.498346 0.577001 -0.647086
vn 0.498346 0.577001 -0.647086
vn 0.498346 0.577001 -0.647086
vn 0.498346 0.577001 -0.647086
vn 0.498346 0.577001 -0.647086
vn 0.498346 0.577001 -0.647086
vn 0.289643 0.335357 -0.896461
vn 0.289643 0.335357 -0.896461
vn 0.289643 0.335357 -0.896461
vn 0.289643 0.335357 -0.896461
vn 0.289643 0.335357 -0.896461
vn 0.289643 0.335357 -0.896461
vn 0.083910 0.097153 -0.991726
vn 0.083910 0.097153 -0.991726
vn 0.083910 0.097153 -0.991726
vn 0.083910 0.097153 -0.991726
vn 0.083910 0.097153 -0.991726
vn 0.083910 0.097153 -0.991726
vn -0.083910 -0.097154 -0.991726
vn -0.083910 -0.097154 -0.991726
vn -0.083910 -0.097154 -0.991726
vn -0.083910 -0.097154 -0.991726
vn -0.083910 -0.097154 -0.991726
vn -0.083910 -0.097154 -0.991726
vn -0.289641 -0.335358 -0.896461
vn -0.289641 -0.335358 -0.896461
vn -0.289641 -0.335358 -0.896461
vn -0.289642 -0.335357 -0.896461
vn -0.289642 -0.335357 -0.896461
vn -0.289642 -0.335357 -0.896461
vn -0.498343 -0.577000 -0.647089
vn -0.498343 -0.577000 -0.647089
vn -0.498343 -0.577000 -0.647089
vn -0.498343 -0.577000 -0.647089
vn -0.498343 -0.577000 -0.647089
vn -0.498343 -0.577000 -0.647089
vn -0.653638 -0.756807 -0.000000
vn -0.653638 -0.756807 -0.000000
vn -0.653638 -0.756807 -0.000000
vn -0.653638 -0.756807 -0.000000
vn -0.653638 -0.756807 -0.000000
vn -0.653638 -0.756807 -0.000000
vn -0.756807 0.653639 -0.000001
vn -0.756807 0.653639 -0.000001
vn -0.756807 0.653639 -0.000001
vn -0.756807 0.653639 -0.000002
vn -0.756807 0.653639 -0.000002
vn -0.756807 0.653639 -0.000002
vn -0.756807 0.653639 -0.000001
vn -0.756807 0.653639 -0.000001
vn -0.756807 0.653639 -0.000001
vn -0.756807 0.653639 -0.000001
vn -0.756807 0.653639 -0.000001
vn -0.756807 0.653639 -0.000001
vn -0.756807 0.653639 -0.000001
vn -0.756807 0.653639 -0.000001
vn -0.756807 0.653639 -0.000001
vn -0.756807 0.653639 -0.000001
vn -0.756807 0.653639 -0.000001
vn -0.756807 0.653639 -0.000001
vn -0.756807 0.653639 -0.000001
vn -0.756807 0.653639 -0.000001
vn -0.756807 0.653639 -0.000001
vn -0.756807 0.653639 -0.000000
vn -0.756807 0.653639 -0.000000
vn -0.756807 0.653639 -0.000000
vn -0.756807 0.653639 -0.000000
vn -0.756807 0.653639 -0.000000
vn -0.756807 0.653639 -0.000000
vn -0.756807 0.653639 -0.000000
vn -0.756807 0.653639 -0.000000
vn -0.756807 0.653639 -0.000000
vn -0.756807 0.653639 -0.000000
vn -0.756807 0.653639 -0.000000
vn -0.756807 0.653639 -0.000000
vn -0.756807 0.653639 -0.000000
vn -0.756807 0.653639 -0.000000
vn -0.756807 0.653639 -0.000000
vn -0.756807 0.653639 -0.000001
vn -0.756807 0.653639 -0.000001
vn -0.756807 0.653639 -0.000001
vn -0.756807 0.653639 -0.000000
vn -0.756807 0.653639 -0.000000
vn -0.756807 0.653639 -0.000000
vn -0.756797 0.653650 -0.000025
vn -0.756797 0.653650 -0.000025
vn -0.756797 0.653650 -0.000025
vn -0.756650 0.653820 0.000082
vn -0.756650 0.653820 0.000082
vn -0.756650 0.653820 0.000082
vn -0.756800 0.653647 -0.000026
vn -0.756800 0.653647 -0.000026
vn -0.756800 0.653647 -0.000026
vn -0.756816 0.653628 -0.000025
vn -0.756816 0.653628 -0.000025
vn -0.756816 0.653628 -0.000025
vn -0.756814 0.653631 -0.000026
vn -0.756814 0.653631 -0.000026
vn -0.756814 0.653631 -0.000026
vn -0.756807 0.653639 -0.000001
vn -0.756807 0.653639 -0.000001
vn -0.756807 0.653639 -0.000001
vn -0.756807 0.653639 -0.000001
vn -0.756807 0.653639 -0.000001
vn -0.756807 0.653639 -0.000001
vn -0.756807 0.653639 -0.000001
vn -0.756807 0.653639 -0.000001
vn -0.756807 0.653639 -0.000001
vn -0.756807 0.653639 -0.000001
vn -0.756807 0.653639 -0.000001
vn -0.756807 0.653639 -0.000001
vn -0.756807 0.653639 -0.000001
vn -0.756807 0.653639 -0.000001
vn -0.756807 0.653639 -0.000001
vn -0.756807 0.653639 -0.000001
vn -0.756807 0.653639 -0.000001
vn -0.756807 0.653639 -0.000001
vn -0.756807 0.653639 -0.000001
vn -0.756807 0.653639 -0.000001
vn -0.756807 0.653639 -0.000001
vn -0.756807 0.653639 -0.000000
vn -0.756807 0.653639 -0.000000
vn -0.756807 0.653639 -0.000000
vn -0.756807 0.653639 -0.000022
vn -0.756807 0.653639 -0.000022
vn -0.756807 0.653639 -0.000022
vn -0.756807 0.653639 -0.000001
vn -0.756807 0.653639 -0.000001
vn -0.756807 0.653639 -0.000001
vn -0.756807 0.653638 -0.000025
vn -0.756807 0.653638 -0.000025
vn -0.756807 0.653638 -0.000025
vn -0.756807 0.653639 -0.000023
vn -0.756807 0.653639 -0.000023
vn -0.756807 0.653639 -0.000023
vn -0.756807 0.653639 -0.000001
vn -0.756807 0.653639 -0.000001
vn -0.756807 0.653639 -0.000001
vn -0.756807 0.653639 -0.000001
vn -0.756807 0.653639 -0.000001
vn -0.756807 0.653639 -0.000001
vn -0.756807 0.653639 -0.000024
vn -0.756807 0.653639 -0.000024
vn -0.756807 0.653639 -0.000024
vn -0.756808 0.653637 -0.000025
vn -0.756808 0.653637 -0.000025
vn -0.756808 0.653637 -0.000025
vn -0.756807 0.653639 -0.000001
vn -0.756807 0.653639 -0.000001
vn -0.756807 0.653639 -0.000001
vn -0.756807 0.653638 -0.000001
vn -0.756807 0.653638 -0.000001
vn -0.756807 0.653638 -0.000001
vn -0.756807 0.653639 -0.000001
vn -0.756807 0.653639 -0.000001
vn -0.756807 0.653639 -0.000001
vn -0.756807 0.653639 -0.000000
vn -0.756807 0.653639 -0.000000
vn -0.756807 0.653639 -0.000000
vn -0.756799 0.653648 -0.000000
vn -0.756799 0.653648 -0.000000
vn -0.756799 0.653648 -0.000000
vn -0.756804 0.653641 -0.000008
vn -0.756804 0.653641 -0.000008
vn -0.756804 0.653641 -0.000008
vn -0.756807 0.653639 -0.000025
vn -0.756807 0.653639 -0.000025
vn -0.756807 0.653639 -0.000025
vn 0.000000 -0.000000 -1.000000
vn 0.000000 -0.000000 -1.000000
vn 0.000000 -0.000000 -1.000000
vn 0.000000 -0.000000 -1.000000
vn 0.000000 -0.000000 -1.000000
vn 0.000000 -0.000000 -1.000000
vn -0.653639 -0.756807 -0.000000
vn -0.653639 -0.756807 -0.000000
vn -0.653639 -0.756807 -0.000000
vn -0.653638 -0.756807 -0.000000
vn -0.653638 -0.756807 -0.000000
vn -0.653638 -0.756807 -0.000000
vn -0.000000 0.000000 1.000000
vn -0.000000 0.000000 1.000000
vn -0.000000 0.000000 1.000000
vn -0.000000 0.000000 1.000000
vn -0.000000 0.000000 1.000000
vn -0.000000 0.000000 1.000000
vn 0.653638 0.756807 0.000000
vn 0.653638 0.756807 0.000000
vn 0.653638 0.756807 0.000000
vn 0.653638 0.756807 0.000000
vn 0.653638 0.756807 0.000000
vn 0.653638 0.756807 0.000000
vn 0.653639 0.756807 -0.000000
vn 0.653639 0.756807 -0.000000
vn 0.653639 0.756807 -0.000000
vn 0.653639 0.756807 -0.000000
vn 0.653639 0.756807 -0.000000
vn 0.653639 0.756807 -0.000000
vn 0.329368 0.381354 -0.863763
vn 0.329368 0.381354 -0.863763
vn 0.329368 0.381354 -0.863763
vn 0.329368 0.381354 -0.863763
vn 0.329368 0.381354 -0.863763
vn 0.329368 0.381354 -0.863763
vn 0.246743 0.285688 -0.926013
vn 0.246743 0.285688 -0.926013
vn 0.246743 0.285688 -0.926013
vn 0.246743 0.285688 -0.926013
vn 0.246743 0.285688 -0.926013
vn 0.246743 0.285688 -0.926013
vn 0.082076 0.095030 -0.992085
vn 0.082076 0.095030 -0.992085
vn 0.082076 0.095030 -0.992085
vn 0.082076 0.095030 -0.992085
vn 0.082076 0.095030 -0.992085
vn 0.082076 0.095030 -0.992085
vn -0.082076 -0.095031 -0.992085
vn -0.082076 -0.095031 -0.992085
vn -0.082076 -0.095031 -0.992085
vn -0.082076 -0.095031 -0.992085
vn -0.082076 -0.095031 -0.992085
vn -0.082076 -0.095031 -0.992085
vn -0.246743 -0.285689 -0.926013
vn -0.246743 -0.285689 -0.926013
vn -0.246743 -0.285689 -0.926013
vn -0.246743 -0.285689 -0.926013
vn -0.246743 -0.285689 -0.926013
vn -0.246743 -0.285689 -0.926013
vn -0.329368 -0.381355 -0.863762
vn -0.329368 -0.381355 -0.863762
vn -0.329368 -0.381355 -0.863762
vn -0.329368 -0.381355 -0.863762
vn -0.329368 -0.381355 -0.863762
vn -0.329368 -0.381355 -0.863762
vn -0.653639 -0.756807 0.000000
vn -0.653639 -0.756807 0.000000
vn -0.653639 -0.756807 0.000000
vn -0.653639 -0.756807 0.000000
vn -0.653639 -0.756807 0.000000
vn -0.653639 -0.756807 0.000000
vn -0.000000 0.000000 1.000000
vn -0.000000 0.000000 1.000000
vn -0.000000 0.000000 1.000000
vn -0.000000 0.000000 1.000000
vn -0.000000 0.000000 1.000000
vn -0.000000 0.000000 1.000000
vn 0.653640 0.756805 0.000000
vn 0.653640 0.756805 0.000000
vn 0.653640 0.756805 0.000000
vn 0.653637 0.756808 0.000001
vn 0.653637 0.756808 0.000001
vn 0.653637 0.756808 0.000001
vn 0.000000 -0.000000 -1.000000
vn 0.000000 -0.000000 -1.000000
vn 0.000000 -0.000000 -1.000000
vn 0.000000 -0.000000 -1.000000
vn 0.000000 -0.000000 -1.000000
vn 0.000000 -0.000000 -1.000000
vn -0.653637 -0.756808 -0.000000
vn -0.653637 -0.756808 -0.000000
vn -0.653637 -0.756808 -0.000000
vn -0.653640 -0.756805 -0.000001
vn -0.653640 -0.756805 -0.000001
vn -0.653640 -0.756805 -0.000001
vn -0.000000 0.000000 1.000000
vn -0.000000 0.000000 1.000000
vn -0.000000 0.000000 1.000000
vn -0.000000 0.000000 1.000000
vn -0.000000 0.000000 1.000000
vn -0.000000 0.000000 1.000000
vn 0.653639 0.756807 -0.000000
vn 0.653639 0.756807 -0.000000
vn 0.653639 0.756807 -0.000000
vn 0.653639 0.756807 -0.000000
vn 0.653639 0.756807 -0.000000
vn 0.653639 0.756807 -0.000000
vn 0.000000 -0.000000 -1.000000
vn 0.000000 -0.000000 -1.000000
vn 0.000000 -0.000000 -1.000000
vn 0.000000 -0.000000 -1.000000
vn 0.000000 -0.000000 -1.000000
vn 0.000000 -0.000000 -1.000000
vn -0.653639 -0.756807 -0.000000
vn -0.653639 -0.756807 -0.000000
vn -0.653639 -0.756807 -0.000000
vn -0.653639 -0.756807 -0.000000
vn -0.653639 -0.756807 -0.000000
vn -0.653639 -0.756807 -0.000000
vn -0.000000 0.000000 1.000000
vn -0.000000 0.000000 1.000000
vn -0.000000 0.000000 1.000000
vn -0.000000 0.000000 1.000000
vn -0.000000 0.000000 1.000000
vn -0.000000 0.000000 1.000000
vn -0.756807 0.653639 -0.000000
vn -0.756807 0.653639 -0.000000
vn -0.756807 0.653639 -0.000000
vn -0.756807 0.653639 -0.000000
vn -0.756807 0.653639 -0.000000
vn -0.756807 0.653639 -0.000000
vn -0.756807 0.653639 -0.000000
vn -0.756807 0.653639 -0.000000
vn -0.756807 0.653639 -0.000000
vn -0.756807 0.653639 -0.000000
vn -0.756807 0.653639 -0.000000
vn -0.756807 0.653639 -0.000000
vn -0.653654 -0.756794 -0.000010
vn -0.653654 -0.756794 -0.000010
vn -0.653654 -0.756794 -0.000010
vn -0.653639 -0.756807 -0.000000
vn -0.653639 -0.756807 -0.000000
vn -0.653639 -0.756807 -0.000000
vn 0.653639 0.756807 0.000000
vn 0.653639 0.756807 0.000000
vn 0.653639 0.756807 0.000000
vn 0.653639 0.756807 -0.000000
vn 0.653639 0.756807 -0.000000
vn 0.653639 0.756807 -0.000000
vn -0.653638 -0.756805 -0.001899
vn -0.653638 -0.756805 -0.001899
vn -0.653638 -0.756805 -0.001899
vn -0.653091 -0.757279 -0.000674
vn -0.653091 -0.757279 -0.000674
vn -0.653091 -0.757279 -0.000674
vn 0.653639 0.756807 0.000002
vn 0.653639 0.756807 0.000002
vn 0.653639 0.756807 0.000002
vn 0.653641 0.756805 -0.000001
vn 0.653641 0.756805 -0.000001
vn 0.653641 0.756805 -0.000001
vn -0.491064 -0.568571 0.659987
vn -0.491064 -0.568571 0.659987
vn -0.491064 -0.568571 0.659987
vn -0.491064 -0.568572 0.659986
vn -0.491064 -0.568572 0.659986
vn -0.491064 -0.568572 0.659986
vn 0.491064 0.568572 0.659987
vn 0.491064 0.568572 0.659987
vn 0.491064 0.568572 0.659987
vn 0.491064 0.568572 0.659986
vn 0.491064 0.568572 0.659986
vn 0.491064 0.568572 0.659986
vn -0.756703 0.653758 -0.000000
vn -0.756703 0.653758 -0.000000
vn -0.756703 0.653758 -0.000000
vn -0.756900 0.653531 0.000028
vn -0.756900 0.653531 0.000028
vn -0.756900 0.653531 0.000028
vn -0.756807 0.653639 -0.000000
vn -0.756807 0.653639 -0.000000
vn -0.756807 0.653639 -0.000000
vn -0.641066 0.553675 -0.531487
vn -0.641066 0.553675 -0.531487
vn -0.641066 0.553675 -0.531487
vn -0.641066 0.553675 -0.531487
vn -0.641066 0.553675 -0.531487
vn -0.641066 0.553675 -0.531487
vn -0.641069 0.553674 -0.531485
vn -0.641069 0.553674 -0.531485
vn -0.641069 0.553674 -0.531485
vn -0.641067 0.553676 -0.531485
vn -0.641067 0.553676 -0.531485
vn -0.641067 0.553676 -0.531485
vn -0.756807 0.653639 -0.000000
vn -0.756807 0.653639 -0.000000
vn -0.756807 0.653639 -0.000000
vn -0.756807 0.653639 -0.000000
vn -0.756807 0.653639 -0.000000
vn -0.756807 0.653639 -0.000000
vn 0.000000 -0.000000 -1.000000
vn 0.000000 -0.000000 -1.000000
vn 0.000000 -0.000000 -1.000000
vn 0.000000 -0.000000 -1.000000
vn 0.000000 -0.000000 -1.000000
vn 0.000000 -0.000000 -1.000000
vn -0.653638 -0.756807 0.000001
vn -0.653638 -0.756807 0.000001
vn -0.653638 -0.756807 0.000001
vn -0.653638 -0.756807 0.000001
vn -0.653638 -0.756807 0.000001
vn -0.653638 -0.756807 0.000001
vn -0.653638 -0.756808 -0.000000
vn -0.653638 -0.756808 -0.000000
vn -0.653638 -0.756808 -0.000000
vn -0.653638 -0.756808 -0.000000
vn -0.653638 -0.756808 -0.000000
vn -0.653638 -0.756808 -0.000000
vn -0.465182 0.401768 0.788789
vn -0.465182 0.401768 0.788789
vn -0.465182 0.401768 0.788789
vn -0.465181 0.401767 0.788790
vn -0.465181 0.401767 0.788790
vn -0.465181 0.401767 0.788790
vn 0.653637 0.756808 0.000000
vn 0.653637 0.756808 0.000000
vn 0.653637 0.756808 0.000000
vn 0.653639 0.756807 -0.000000
vn 0.653639 0.756807 -0.000000
vn 0.653639 0.756807 -0.000000
vn 0.650765 0.759279 0.000494
vn 0.650765 0.759279 0.000494
vn 0.650765 0.759279 0.000494
vn 0.653637 0.756808 -0.000000
vn 0.653637 0.756808 -0.000000
vn 0.653637 0.756808 -0.000000
vn -0.653638 -0.756807 -0.000002
vn -0.653638 -0.756807 -0.000002
vn -0.653638 -0.756807 -0.000002
vn 0.652163 0.757949 -0.014029
vn 0.652163 0.757949 -0.014029
vn 0.652163 0.757949 -0.014029
vn -0.756807 0.653639 -0.000001
vn -0.756807 0.653639 -0.000001
vn -0.756807 0.653639 -0.000001
vn -0.755427 0.652120 -0.063795
vn -0.755427 0.652120 -0.063795
vn -0.755427 0.652120 -0.063795
vn -0.791678 0.608909 0.049761
vn -0.791678 0.608909 0.049761
vn -0.791678 0.608909 0.049761
vn -0.782254 0.622036 0.033904
vn -0.782254 0.622036 0.033904
vn -0.782254 0.622036 0.033904
vn -0.755104 0.652493 -0.063797
vn -0.755104 0.652493 -0.063797
vn -0.755104 0.652493 -0.063797
vn -0.728416 0.684157 0.036592
vn -0.728416 0.684157 0.036592
vn -0.728416 0.684157 0.036592
vn -0.715632 0.696703 0.049752
vn -0.715632 0.696703 0.049752
vn -0.715632 0.696703 0.049752
vn -0.002532 -0.002932 -0.999992
vn -0.002532 -0.002932 -0.999992
vn -0.002532 -0.002932 -0.999992
vn 0.000114 -0.000126 -1.000000
vn 0.000114 -0.000126 -1.000000
vn 0.000114 -0.000126 -1.000000
vn 0.000128 -0.000111 -1.000000
vn 0.000128 -0.000111 -1.000000
vn 0.000128 -0.000111 -1.000000
vn -0.000001 -0.000001 -1.000000
vn -0.000001 -0.000001 -1.000000
vn -0.000001 -0.000001 -1.000000
vn 0.002657 0.002817 -0.999992
vn 0.002657 0.002817 -0.999992
vn 0.002657 0.002817 -0.999992
vn 0.002663 0.002822 -0.999992
vn 0.002663 0.002822 -0.999992
vn 0.002663 0.002822 -0.999992
vn -0.002114 -0.002707 -0.999994
vn -0.002114 -0.002707 -0.999994
vn -0.002114 -0.002707 -0.999994
vn -0.003683 -0.004269 -0.999984
vn -0.003683 -0.004269 -0.999984
vn -0.003683 -0.004269 -0.999984
vn 0.003686 0.004268 -0.999984
vn 0.003686 0.004268 -0.999984
vn 0.003686 0.004268 -0.999984
vn 0.002373 0.002489 -0.999994
vn 0.002373 0.002489 -0.999994
vn 0.002373 0.002489 -0.999994
vn -0.756807 0.653639 -0.000000
vn -0.756807 0.653639 -0.000000
vn -0.756807 0.653639 -0.000000
vn -0.756807 0.653639 0.000000
vn -0.756807 0.653639 0.000000
vn -0.756807 0.653639 0.000000
vn -0.756807 0.653639 -0.000001
vn -0.756807 0.653639 -0.000001
vn -0.756807 0.653639 -0.000001
vn -0.756806 0.653639 0.000000
vn -0.756806 0.653639 0.000000
vn -0.756806 0.653639 0.000000
vn -0.756807 0.653639 -0.000001
vn -0.756807 0.653639 -0.000001
vn -0.756807 0.653639 -0.000001
vn -0.756807 0.653639 0.000000
vn -0.756807 0.653639 0.000000
vn -0.756807 0.653639 0.000000
vn 0.501453 0.580600 -0.641443
vn 0.501453 0.580600 -0.641443
vn 0.501453 0.580600 -0.641443
vn 0.525424 0.554539 -0.645304
vn 0.525424 0.554539 -0.645304
vn 0.525424 0.554539 -0.645304
vn -0.474700 -0.603087 -0.641051
vn -0.474700 -0.603087 -0.641051
vn -0.474700 -0.603087 -0.641051
vn -0.499111 -0.577889 -0.645703
vn -0.499111 -0.577889 -0.645703
vn -0.499111 -0.577889 -0.645703
vn 0.000000 -0.000000 -1.000000
vn 0.000000 -0.000000 -1.000000
vn 0.000000 -0.000000 -1.000000
vn 0.000000 -0.000000 -1.000000
vn 0.000000 -0.000000 -1.000000
vn 0.000000 -0.000000 -1.000000
vn 0.000000 -0.000000 -1.000000
vn 0.000000 -0.000000 -1.000000
vn 0.000000 -0.000000 -1.000000
vn 0.000000 -0.000000 -1.000000
vn 0.000000 -0.000000 -1.000000
vn 0.000000 -0.000000 -1.000000
vn 0.532366 0.563728 -0.631504
vn 0.532366 0.563728 -0.631504
vn 0.532366 0.563728 -0.631504
vn 0.525891 0.608807 -0.593964
vn 0.525891 0.608807 -0.593964
vn 0.525891 0.608807 -0.593964
vn 0.525708 0.608710 -0.594225
vn 0.525708 0.608710 -0.594225
vn 0.525708 0.608710 -0.594225
vn -0.480257 -0.608726 -0.631510
vn -0.480257 -0.608726 -0.631510
vn -0.480257 -0.608726 -0.631510
vn -0.525800 -0.608880 -0.593970
vn -0.525800 -0.608880 -0.593970
vn -0.525800 -0.608880 -0.593970
vn -0.525768 -0.608791 -0.594089
vn -0.525768 -0.608791 -0.594089
vn -0.525768 -0.608791 -0.594089
vn -0.756807 0.653639 0.000028
vn -0.756807 0.653639 0.000028
vn -0.756807 0.653639 0.000028
vn -0.756703 0.653758 -0.000000
vn -0.756703 0.653758 -0.000000
vn -0.756703 0.653758 -0.000000
vn -0.756910 0.653519 -0.000000
vn -0.756910 0.653519 -0.000000
vn -0.756910 0.653519 -0.000000
vn -0.756807 0.653639 -0.000001
vn -0.756807 0.653639 -0.000001
vn -0.756807 0.653639 -0.000001
vn -0.756807 0.653639 -0.000001
vn -0.756807 0.653639 -0.000001
vn -0.756807 0.653639 -0.000001
vn -0.756963 0.653457 0.000083
vn -0.756963 0.653457 0.000083
vn -0.756963 0.653457 0.000083
vn -0.756807 0.653639 -0.000001
vn -0.756807 0.653639 -0.000001
vn -0.756807 0.653639 -0.000001
vn -0.550388 0.476246 0.685757
vn -0.550388 0.476246 0.685757
vn -0.550388 0.476246 0.685757
vn -0.550553 0.475502 0.686140
vn -0.550553 0.475502 0.686140
vn -0.550553 0.475502 0.686140
vn -0.550827 0.475738 0.685757
vn -0.550827 0.475738 0.685757
vn -0.550827 0.475738 0.685757
vn -0.550348 0.475882 0.686042
vn -0.550348 0.475882 0.686042
vn -0.550348 0.475882 0.686042
vn -0.550828 0.475738 0.685757
vn -0.550828 0.475738 0.685757
vn -0.550828 0.475738 0.685757
vn -0.550827 0.475738 0.685757
vn -0.550827 0.475738 0.685757
vn -0.550827 0.475738 0.685757
vn 0.550827 -0.475738 -0.685757
vn 0.550827 -0.475738 -0.685757
vn 0.550827 -0.475738 -0.685757
vn 0.550827 -0.475738 -0.685757
vn 0.550827 -0.475738 -0.685757
vn 0.550827 -0.475738 -0.685757
vn -0.317666 0.274362 -0.907642
vn -0.317666 0.274362 -0.907642
vn -0.317666 0.274362 -0.907642
vn -0.317665 0.274361 -0.907643
vn -0.317665 0.274361 -0.907643
vn -0.317665 0.274361 -0.907643
vn -0.317665 0.274361 -0.907642
vn -0.317665 0.274361 -0.907642
vn -0.317665 0.274361 -0.907642
vn -0.317665 0.274361 -0.907642
vn -0.317665 0.274361 -0.907642
vn -0.317665 0.274361 -0.907642
vn 0.550828 -0.475738 -0.685757
vn 0.550828 -0.475738 -0.685757
vn 0.550828 -0.475738 -0.685757
vn 0.550828 -0.475738 -0.685756
vn 0.550828 -0.475738 -0.685756
vn 0.550828 -0.475738 -0.685756
vn -0.022885 0.999738 -0.000001
vn -0.161305 0.986880 -0.006908
vn -0.159756 0.987157 -0.000005
vn -0.992435 -0.122771 -0.000001
vn -0.992435 -0.122772 -0.000000
vn -0.999896 0.014426 -0.000001
vn -0.756807 0.653638 -0.000000
vn -0.756807 0.653638 -0.000000
vn -0.756807 0.653638 -0.000000
vn -0.756781 0.653669 0.000011
vn -0.756781 0.653669 0.000011
vn -0.756781 0.653669 0.000011
vn -0.653639 -0.756806 0.000000
vn -0.653639 -0.756806 0.000000
vn -0.653639 -0.756806 0.000000
vn -0.653639 -0.756806 0.000001
vn -0.653639 -0.756806 0.000001
vn -0.653639 -0.756806 0.000001
vn 0.653639 0.756807 0.000000
vn 0.653639 0.756807 -0.000000
vn 0.653639 0.756807 0.000000
vn 0.653639 0.756807 0.000000
vn 0.653639 0.756807 0.000000
vn 0.653639 0.756807 0.000000
vn -0.653638 -0.756807 -0.000001
vn -0.653638 -0.756807 -0.000001
vn -0.653638 -0.756807 -0.000001
vn -0.653638 -0.756807 -0.000001
vn -0.653638 -0.756807 -0.000001
vn -0.653638 -0.756807 -0.000001
vn -0.541379 0.467578 0.698770
vn -0.541379 0.467578 0.698770
vn -0.541379 0.467578 0.698770
vn -0.541379 0.467578 0.698770
vn -0.541379 0.467578 0.698770
vn -0.541379 0.467578 0.698770
vn 0.541379 -0.467578 -0.698770
vn 0.541379 -0.467578 -0.698770
vn 0.541379 -0.467578 -0.698770
vn 0.541379 -0.467578 -0.698770
vn 0.541379 -0.467578 -0.698770
vn 0.541379 -0.467578 -0.698770
vn 0.027354 -0.023625 -0.999347
vn 0.027354 -0.023625 -0.999347
vn 0.027354 -0.023625 -0.999347
vn 0.027344 -0.023617 -0.999347
vn 0.027344 -0.023617 -0.999347
vn 0.027344 -0.023617 -0.999347
vn -0.653638 -0.756807 0.000003
vn -0.653638 -0.756807 0.000003
vn -0.653638 -0.756807 0.000003
vn -0.653639 -0.756807 -0.000000
vn -0.653639 -0.756807 -0.000000
vn -0.653639 -0.756807 -0.000000
vn -0.653633 -0.756811 -0.000011
vn -0.653633 -0.756811 -0.000011
vn -0.653633 -0.756811 -0.000011
vn 0.653658 0.756790 -0.000022
vn 0.653658 0.756790 -0.000022
vn 0.653658 0.756790 -0.000022
vn 0.653638 0.756807 0.000001
vn 0.653638 0.756807 0.000001
vn 0.653638 0.756807 0.000001
vn -0.653636 -0.756809 -0.000006
vn -0.653636 -0.756809 -0.000006
vn -0.653636 -0.756809 -0.000006
vn -0.622837 0.537932 -0.568070
vn -0.622837 0.537932 -0.568070
vn -0.622837 0.537932 -0.568070
vn -0.622837 0.537931 -0.568071
vn -0.622837 0.537931 -0.568071
vn -0.622837 0.537931 -0.568071
vn 0.429919 -0.371312 -0.822980
vn 0.429919 -0.371312 -0.822980
vn 0.429919 -0.371312 -0.822980
vn 0.429920 -0.371313 -0.822980
vn 0.429920 -0.371313 -0.822980
vn 0.429920 -0.371313 -0.822980
vn -0.653639 -0.756807 0.000001
vn -0.653639 -0.756807 0.000001
vn -0.653639 -0.756807 0.000001
vn 0.653638 0.756807 0.000000
vn 0.653638 0.756807 0.000000
vn 0.653638 0.756807 0.000000
vn 0.520724 -0.450266 0.725332
vn 0.520724 -0.450266 0.725332
vn 0.520724 -0.450266 0.725332
vn -0.425167 0.367205 0.827281
vn -0.425167 0.367205 0.827281
vn -0.425167 0.367205 0.827281
vn 0.653579 0.756858 0.000128
vn 0.653579 0.756858 0.000128
vn 0.653579 0.756858 0.000128
vn 0.519310 -0.448507 0.727433
vn 0.519310 -0.448507 0.727433
vn 0.519310 -0.448507 0.727433
vn -0.462246 0.399228 0.791799
vn -0.462246 0.399228 0.791799
vn -0.462246 0.399228 0.791799
vn -0.462243 0.399229 0.791800
vn -0.462243 0.399229 0.791800
vn -0.462243 0.399229 0.791800
vn -0.425167 0.367207 0.827280
vn -0.425167 0.367207 0.827280
vn -0.425167 0.367207 0.827280
vn -0.425165 0.367206 0.827281
vn -0.425165 0.367206 0.827281
vn -0.425165 0.367206 0.827281
vn -0.425165 0.367206 0.827281
vn -0.425165 0.367206 0.827281
vn -0.425165 0.367206 0.827281
vn 0.653595 0.756845 -0.000006
vn 0.653595 0.756845 -0.000006
vn 0.653595 0.756845 -0.000006
vn -0.756808 0.653637 0.000016
vn -0.756808 0.653637 0.000016
vn -0.756808 0.653637 0.000016
vn -0.756808 0.653637 0.000016
vn -0.756808 0.653637 0.000016
vn -0.756808 0.653637 0.000016
vn -0.653638 -0.756807 0.000000
vn -0.653638 -0.756807 0.000000
vn -0.653638 -0.756807 0.000000
vn 0.756814 -0.653631 -0.000191
vn 0.756814 -0.653631 -0.000191
vn 0.756814 -0.653631 -0.000191
vn 0.756814 -0.653630 -0.000198
vn 0.756814 -0.653630 -0.000198
vn 0.756814 -0.653630 -0.000198
vn 0.462248 -0.399225 0.791799
vn 0.462248 -0.399225 0.791799
vn 0.462248 -0.399225 0.791799
vn 0.462246 -0.399226 0.791800
vn 0.462246 -0.399226 0.791800
vn 0.462246 -0.399226 0.791800
vn 0.519306 -0.448512 0.727433
vn 0.519306 -0.448512 0.727433
vn 0.519306 -0.448512 0.727433
vn 0.520656 -0.447552 0.727059
vn 0.520656 -0.447552 0.727059
vn 0.520656 -0.447552 0.727059
vn -0.756808 0.653638 0.000011
vn -0.756808 0.653638 0.000011
vn -0.756808 0.653638 0.000011
vn -0.756808 0.653637 0.000011
vn -0.756808 0.653637 0.000011
vn -0.756808 0.653637 0.000011
vn 0.756814 -0.653630 -0.000012
vn 0.756814 -0.653630 -0.000012
vn 0.756814 -0.653630 -0.000012
vn 0.756814 -0.653631 -0.000011
vn 0.756814 -0.653631 -0.000011
vn 0.756814 -0.653631 -0.000011
vn 0.653593 0.756846 0.000023
vn 0.653593 0.756846 0.000023
vn 0.653593 0.756846 0.000023
vn -0.653640 -0.756805 0.000002
vn -0.653640 -0.756805 0.000002
vn -0.653640 -0.756805 0.000002
vn 0.653595 0.756845 0.000000
vn 0.653595 0.756845 0.000000
vn 0.653595 0.756845 0.000000
vn 0.653595 0.756845 0.000000
vn 0.653595 0.756845 0.000000
vn 0.653595 0.756845 0.000000
vn 0.653594 0.756845 0.000000
vn 0.653594 0.756845 0.000000
vn 0.653594 0.756845 0.000000
vn 0.653595 0.756845 0.000000
vn 0.653595 0.756845 0.000000
vn 0.653595 0.756845 0.000000
vn -0.653638 -0.756807 -0.000000
vn -0.653638 -0.756807 -0.000000
vn -0.653638 -0.756807 -0.000000
vn -0.653637 -0.756808 0.000000
vn -0.653637 -0.756808 0.000000
vn -0.653637 -0.756808 0.000000
vn -0.653639 -0.756806 -0.000000
vn -0.653639 -0.756806 -0.000000
vn -0.653639 -0.756806 -0.000000
vn -0.653638 -0.756807 0.000000
vn -0.653638 -0.756807 0.000000
vn -0.653638 -0.756807 0.000000
vn -0.000000 0.000000 1.000000
vn -0.000000 0.000000 1.000000
vn -0.000000 0.000000 1.000000
vn -0.000000 0.000000 1.000000
vn -0.000000 0.000000 1.000000
vn -0.000000 0.000000 1.000000
vn 0.756809 -0.653636 -0.000013
vn 0.702988 -0.607152 -0.370371
vn 0.702989 -0.607153 -0.370366
vn 0.702989 -0.607153 -0.370366
vn 0.756809 -0.653636 -0.000013
vn 0.756809 -0.653636 -0.000013
vn 0.702988 -0.607152 -0.370371
vn 0.427646 -0.369345 -0.825048
vn 0.427647 -0.369347 -0.825046
vn 0.427647 -0.369347 -0.825046
vn 0.702989 -0.607153 -0.370366
vn 0.702988 -0.607152 -0.370371
vn 0.427646 -0.369345 -0.825048
vn 0.195118 -0.168517 -0.966194
vn 0.195119 -0.168519 -0.966194
vn 0.195119 -0.168519 -0.966194
vn 0.427647 -0.369347 -0.825046
vn 0.427646 -0.369345 -0.825048
vn 0.195118 -0.168517 -0.966194
vn -0.000002 0.000002 -1.000000
vn -0.000001 0.000000 -1.000000
vn -0.000001 0.000000 -1.000000
vn 0.195119 -0.168519 -0.966194
vn 0.195118 -0.168517 -0.966194
vn -0.000002 0.000002 -1.000000
vn -0.195123 0.168520 -0.966193
vn -0.195119 0.168518 -0.966194
vn -0.195119 0.168518 -0.966194
vn -0.000001 0.000000 -1.000000
vn -0.000002 0.000002 -1.000000
vn -0.195123 0.168520 -0.966193
vn -0.427648 0.369342 -0.825048
vn -0.427645 0.369340 -0.825050
vn -0.427645 0.369340 -0.825050
vn -0.195119 0.168518 -0.966194
vn -0.195123 0.168520 -0.966193
vn -0.427648 0.369342 -0.825048
vn -0.702996 0.607151 -0.370358
vn -0.702996 0.607150 -0.370360
vn -0.702996 0.607150 -0.370360
vn -0.427645 0.369340 -0.825050
vn -0.427648 0.369342 -0.825048
vn -0.702996 0.607151 -0.370358
vn -0.756813 0.653632 0.000013
vn -0.756813 0.653631 0.000014
vn -0.756813 0.653631 0.000014
vn -0.702996 0.607150 -0.370360
vn -0.702996 0.607151 -0.370358
vn 0.653595 0.756845 0.000000
vn 0.653595 0.756845 0.000000
vn 0.653595 0.756845 0.000000
vn 0.653596 0.756844 -0.000000
vn 0.653596 0.756844 -0.000000
vn 0.653596 0.756844 -0.000000
vn 0.653595 0.756844 -0.000004
vn 0.653595 0.756844 -0.000004
vn 0.653595 0.756844 -0.000004
vn -0.653639 -0.756807 0.000004
vn -0.653639 -0.756807 0.000004
vn -0.653639 -0.756807 0.000004
vn -0.653639 -0.756806 0.000001
vn -0.653639 -0.756806 0.000001
vn -0.653639 -0.756806 0.000001
vn -0.653638 -0.756807 0.000006
vn -0.653638 -0.756807 0.000006
vn -0.653638 -0.756807 0.000006
vn -0.653643 -0.756803 -0.000002
vn -0.653643 -0.756803 -0.000002
vn -0.653643 -0.756803 -0.000002
vn -0.653640 -0.756805 -0.000004
vn -0.653640 -0.756805 -0.000004
vn -0.653640 -0.756805 -0.000004
vn -0.653640 -0.756805 0.000001
vn -0.653640 -0.756805 0.000001
vn -0.653640 -0.756805 0.000001
vn -0.653637 -0.756808 -0.000000
vn -0.653637 -0.756808 -0.000000
vn -0.653637 -0.756808 -0.000000
vn -0.653636 -0.756809 0.000005
vn -0.653636 -0.756809 0.000005
vn -0.653636 -0.756809 0.000005
vn -0.653637 -0.756808 -0.000004
vn -0.653637 -0.756808 -0.000004
vn -0.653637 -0.756808 -0.000004
vn -0.653635 -0.756810 -0.000002
vn -0.653635 -0.756810 -0.000002
vn -0.653635 -0.756810 -0.000002
vn 0.653606 0.756835 0.000002
vn 0.653606 0.756835 0.000002
vn 0.653606 0.756835 0.000002
vn 0.653600 0.756840 0.000002
vn 0.653600 0.756840 0.000002
vn 0.653600 0.756840 0.000002
vn 0.653593 0.756846 -0.000003
vn 0.653593 0.756846 -0.000003
vn 0.653593 0.756846 -0.000003
vn 0.653588 0.756851 0.000010
vn 0.653588 0.756851 0.000010
vn 0.653588 0.756851 0.000010
vn 0.653594 0.756845 -0.000015
vn 0.653594 0.756845 -0.000015
vn 0.653594 0.756845 -0.000015
vn 0.653592 0.756847 0.000005
vn 0.653592 0.756847 0.000005
vn 0.653592 0.756847 0.000005
vn 0.653584 0.756854 -0.000015
vn 0.653584 0.756854 -0.000015
vn 0.653584 0.756854 -0.000015
vn 0.342265 -0.317974 0.884165
vn 0.342265 -0.317974 0.884165
vn 0.342265 -0.317974 0.884165
vn 0.343762 -0.296900 0.890886
vn 0.343762 -0.296900 0.890886
vn 0.343762 -0.296900 0.890886
vn 0.758338 -0.651861 0.000001
vn 0.758338 -0.651861 0.000001
vn 0.758338 -0.651861 0.000001
vn 0.758338 -0.651861 0.000001
vn 0.758338 -0.651861 0.000001
vn 0.758338 -0.651861 0.000001
vn 0.733284 -0.679923 0.000000
vn 0.733284 -0.679923 0.000000
vn 0.733284 -0.679923 0.000000
vn 0.733284 -0.679923 0.000001
vn 0.733284 -0.679923 0.000001
vn 0.733284 -0.679923 0.000001
vn 0.689995 0.723815 0.000000
vn 0.689994 0.723815 -0.000000
vn 0.689994 0.723815 0.000000
vn 0.689994 0.723815 0.000000
vn 0.689995 0.723814 0.000001
vn 0.689995 0.723815 0.000000
vn 0.608312 0.788193 0.093315
vn 0.608312 0.788193 0.093315
vn 0.608312 0.788193 0.093315
vn 0.689993 0.723812 0.002382
vn 0.689993 0.723812 0.002382
vn 0.689993 0.723812 0.002382
vn -0.758026 -0.652224 -0.000000
vn -0.758026 -0.652224 -0.000000
vn -0.758026 -0.652224 -0.000000
vn -0.758026 -0.652224 -0.000001
vn -0.758026 -0.652224 -0.000001
vn -0.758026 -0.652224 -0.000001
vn -0.653069 -0.757098 -0.017441
vn -0.653069 -0.757098 -0.017441
vn -0.653069 -0.757098 -0.017441
vn -0.104290 -0.871431 -0.479304
vn -0.104290 -0.871431 -0.479304
vn -0.104290 -0.871431 -0.479304
vn -0.667700 -0.744430 -0.000021
vn -0.667700 -0.744430 -0.000021
vn -0.667700 -0.744430 -0.000021
vn -0.667701 -0.744430 -0.000021
vn -0.667701 -0.744430 -0.000021
vn -0.667701 -0.744430 -0.000021
vn -0.756807 0.653639 -0.000001
vn -0.756807 0.653639 -0.000001
vn -0.756807 0.653639 -0.000001
vn -0.756807 0.653639 -0.000001
vn -0.756807 0.653639 -0.000001
vn -0.756807 0.653639 -0.000001
vn -0.756807 0.653639 -0.000001
vn -0.756807 0.653639 -0.000001
vn -0.756807 0.653639 -0.000001
vn -0.756807 0.653638 0.000002
vn -0.756807 0.653638 0.000002
vn -0.756807 0.653638 0.000002
vn -0.756807 0.653639 -0.000001
vn -0.756807 0.653639 -0.000001
vn -0.756807 0.653639 -0.000001
vn -0.756807 0.653638 -0.000001
vn -0.756807 0.653638 -0.000001
vn -0.756807 0.653638 -0.000001
vn -0.756807 0.653638 -0.000001
vn -0.756807 0.653638 -0.000001
vn -0.756807 0.653638 -0.000001
vn -0.756807 0.653639 -0.000001
vn -0.756807 0.653639 -0.000001
vn -0.756807 0.653639 -0.000001
vn -0.756807 0.653638 -0.000001
vn -0.756808 0.653637 -0.000001
vn -0.756808 0.653637 -0.000001
vn 0.653638 0.756807 0.000002
vn 0.653638 0.756807 0.000002
vn 0.653638 0.756807 0.000002
vn -0.756770 0.653681 -0.000001
vn -0.756770 0.653681 -0.000001
vn -0.756770 0.653681 -0.000001
vn -0.619031 0.742760 -0.255163
vn -0.667940 0.687883 -0.284030
vn -0.626330 0.768118 -0.133062
vn -0.724855 0.626042 -0.287499
vn -0.745835 0.644163 -0.169658
vn -0.626330 0.768118 -0.133062
vn -0.724855 0.626042 -0.287499
vn -0.777755 0.560735 -0.284030
vn -0.851082 0.507893 -0.133061
vn -0.824932 0.504361 -0.255162
vn -0.954790 0.291012 -0.060729
vn -0.851082 0.507893 -0.133061
vn -0.542697 0.817300 -0.193653
vn -0.619031 0.742760 -0.255163
vn -0.426850 0.902281 -0.060730
vn -0.887571 0.417991 -0.193650
vn -0.999848 0.015999 -0.006909
vn -0.954790 0.291012 -0.060729
vn 0.653650 0.756797 -0.000016
vn 0.653650 0.756797 -0.000016
vn 0.653650 0.756797 -0.000016
vn 0.653650 0.756797 -0.000016
vn 0.653650 0.756797 -0.000016
vn 0.653650 0.756797 -0.000016
vn 0.341779 -0.316908 0.884735
vn 0.341779 -0.316908 0.884735
vn 0.341779 -0.316908 0.884735
vn -0.667703 -0.744428 -0.000001
vn -0.667703 -0.744428 -0.000001
vn -0.667703 -0.744428 -0.000001
vn -0.667702 -0.744428 -0.000001
vn -0.667702 -0.744428 -0.000001
vn -0.667702 -0.744428 -0.000001
vn -0.758025 -0.652226 -0.000020
vn -0.758025 -0.652226 -0.000020
vn -0.758025 -0.652226 -0.000020
vn 0.756801 -0.653632 0.004171
vn 0.756801 -0.653632 0.004171
vn 0.756801 -0.653632 0.004171
vn 0.756806 -0.653639 -0.000001
vn 0.756806 -0.653639 -0.000001
vn 0.756806 -0.653639 -0.000001
vn 0.756803 -0.653643 -0.000005
vn 0.756803 -0.653643 -0.000005
vn 0.756803 -0.653643 -0.000005
vn 0.491064 0.568571 0.659987
vn 0.491064 0.568571 0.659987
vn 0.491064 0.568571 0.659987
vn 0.491064 0.568571 0.659987
vn 0.491064 0.568571 0.659987
vn 0.491064 0.568571 0.659987
vn -0.491064 -0.568571 0.659987
vn -0.491064 -0.568571 0.659987
vn -0.491064 -0.568571 0.659987
vn -0.491064 -0.568572 0.659987
vn -0.491064 -0.568572 0.659987
vn -0.491064 -0.568572 0.659987
vn 0.756801 -0.653632 0.004172
vn 0.756801 -0.653632 0.004172
vn 0.756801 -0.653632 0.004172
vn 0.756806 -0.653639 -0.000001
vn 0.756806 -0.653639 -0.000001
vn 0.756806 -0.653639 -0.000001
vn 0.756803 -0.653643 -0.000005
vn 0.756803 -0.653643 -0.000005
vn 0.756803 -0.653643 -0.000005
vn 0.491064 0.568571 0.659987
vn 0.491064 0.568571 0.659987
vn 0.491064 0.568571 0.659987
vn 0.491064 0.568571 0.659987
vn 0.491064 0.568571 0.659987
vn 0.491064 0.568571 0.659987
vn -0.491064 -0.568571 0.659987
vn -0.491064 -0.568571 0.659987
vn -0.491064 -0.568571 0.659987
vn -0.491064 -0.568572 0.659987
vn -0.491064 -0.568572 0.659987
vn -0.491064 -0.568572 0.659987
# 1200 vertex normals

vt -0.012512 -0.999921 -0.000005
vt -0.012528 -0.999922 -0.000005
vt -0.012570 -0.999921 -0.000000
vt -0.012609 -0.999921 -0.000005
vt -0.012811 -0.999918 0.000083
vt 0.994555 0.993972 0.505365
vt 0.005445 0.993972 0.494635
vt 0.005445 0.006028 0.494635
vt 0.994555 0.006028 0.505365
vt -0.005277 -0.419711 -0.907642
vt 0.009150 0.727773 -0.685757
vt -0.750027 -0.661408 -0.000000
vt 0.999921 -0.012573 0.000000
vt -0.999921 0.012572 0.000000
vt -0.008993 -0.715290 0.698770
vt 0.999921 -0.012572 0.000001
vt 0.999921 -0.012568 -0.000006
vt 0.999921 -0.012572 0.000001
vt -0.007063 -0.561743 0.827281
vt 0.999921 -0.012569 0.000005
vt 0.999921 -0.012567 -0.000002
vt -0.999922 0.012529 0.000002
vt 0.002274 0.006773 0.494364
vt 1.001274 0.006773 0.503470
vt 1.001275 0.800748 0.503470
vt 0.870755 0.910843 0.502281
vt 0.686265 0.976130 0.500599
vt 0.501775 0.993227 0.498917
vt 0.317284 0.976130 0.497236
vt 0.132794 0.910843 0.495554
vt 0.002274 0.800748 0.494364
vt 0.000000 0.000000 0.000000
vt 1.000000 0.000000 0.000000
vt 1.000000 1.000000 0.000000
vt 0.000000 1.000000 0.000000
vt 0.000000 0.000000 0.000000
vt 1.000000 0.000000 0.000000
vt 1.000000 1.000000 0.000000
vt 0.000000 1.000000 0.000000
vt 0.999500 0.984406 0.503297
vt 0.000499 0.984406 0.496703
vt 0.000500 0.385236 0.496703
vt 0.999500 0.385236 0.503297
vt 0.999500 0.007879 0.503297
vt 0.000500 0.007879 0.496703
vt 0.999501 0.008647 0.504561
vt 0.999500 0.991353 0.504561
vt 0.000499 0.991353 0.495439
vt 0.000500 0.008647 0.495439
vt -3.955539 -2.100890 0.105483
vt -0.876815 -2.139600 0.105484
vt -0.860559 -0.846759 0.447714
vt -3.923027 0.484791 0.789945
vt -0.197597 -0.855094 0.447714
vt 0.905391 0.424082 0.789945
vt -0.213853 -2.147935 0.105483
vt 0.872879 -2.161598 0.105483
vt 2.118492 -1.974153 0.000499
vt 4.891929 -2.009024 0.000499
vt 4.918324 0.090535 0.536573
vt 2.144886 0.125406 0.536573
vt 0.873265 -2.129207 0.357497
vt 1.819205 -0.160265 0.692936
vt 1.826373 0.412504 0.789945
vt 2.141244 -0.164300 0.944403
vt 2.144845 0.122086 0.999501
vt 1.822789 0.126133 0.999500
vt 1.819205 -0.160251 0.944403
vt 2.116342 -2.144836 0.357497
vt 2.141244 -0.164314 0.692936
vt 2.148446 0.408472 0.944403
vt 1.826373 0.412518 0.944403
vt 1.186669 -0.030360 0.000500
vt 1.623206 0.483215 0.999501
vt -0.616681 0.511378 0.999500
vt -0.623206 -0.007604 0.000500
vt 1.199720 1.007603 0.000500
vt -0.610155 1.030360 0.000500
vt 4.954079 -0.058957 -1.984784
vt 4.950845 0.214080 -1.727551
vt 1.872121 0.214080 -1.766261
vt 1.875355 -0.058957 -2.023494
vt 1.876815 -2.139600 -0.005259
vt 4.955539 -2.100890 -0.005259
vt 1.212393 -2.031829 -0.058957
vt 0.125661 -2.045493 -0.058957
vt 0.127121 -2.161598 -0.005259
vt 1.213853 -2.147935 -0.005259
vt 0.122427 0.214079 -1.788260
vt 1.209159 0.214079 -1.774596
vt 0.424082 2.739280 0.905391
vt -0.846759 1.367011 -0.860559
vt -1.119192 -0.424210 -1.918520
vt -1.120633 -0.306855 -1.803894
vt -3.894071 -0.306787 -1.838700
vt -3.892629 -0.424209 -1.953392
vt -3.891929 -2.009024 -0.426221
vt -1.118492 -1.974153 -0.426221
vt -1.803876 1.212075 2.120629
vt 3.085263 0.214080 2.182102
vt 0.408458 2.739280 2.148446
vt -0.164314 2.350293 2.141244
vt 2.788247 1.212075 0.877552
vt -2.144837 1.005260 2.116342
vt 0.873433 0.985919 -2.115859
vt 2.116510 0.985920 -2.131488
vt 0.873265 1.005260 -2.129208
vt 0.587496 2.739280 1.826373
vt 0.687170 2.774181 1.825126
vt 0.587489 2.774181 1.826373
vt 1.819205 2.350293 -0.160265
vt 2.141244 2.774181 -0.164307
vt 1.819205 2.774181 -0.160259
vt -0.064625 2.774181 2.142497
vt -1.148445 2.774181 0.408465
vt 2.141244 3.358620 -0.164300
vt 1.819205 3.358620 -0.160252
vt -0.826373 3.358620 0.412518
vt -1.148446 3.358620 0.408472
vt 0.946078 3.343105 1.821885
vt 1.018288 3.313503 1.820980
vt 0.194296 3.343105 2.145752
vt 0.266506 3.313503 2.146660
vt 0.687163 3.268904 1.825126
vt 1.060578 2.774181 1.820452
vt 1.060571 3.268904 1.820452
vt -0.064619 3.268904 2.142497
vt 0.308784 2.774181 2.147192
vt 0.308791 3.268904 2.147192
vt -1.143029 3.313503 -0.022336
vt -1.143936 0.049875 3.343105
vt -0.822789 0.126132 3.352730
vt -1.144845 0.122085 3.352730
vt -0.823694 0.198342 3.343105
vt -0.824598 0.270552 3.313503
vt 0.122086 3.579550 2.144845
vt 0.873867 3.579550 1.822789
vt 4.889371 0.214080 3.161598
vt -1.182102 -2.579549 3.085265
vt 4.889371 -2.579550 3.161598
vt -3.955539 0.214080 3.050390
vt -3.955538 -2.579548 3.050390
vt 4.954079 -1.984784 -0.058957
vt 1.875355 -2.023494 -0.058957
vt 0.125661 -0.058957 -2.045493
vt 1.212393 -0.058957 -2.031829
vt -2.045493 -0.058957 0.874339
vt -1.788260 0.214079 0.877573
vt -2.161598 -0.005259 0.872879
vt -2.023494 -0.058957 -0.875355
vt -1.766261 0.214080 -0.872121
vt -2.139600 -0.005259 -0.876815
vt -1.119192 -1.918520 -0.424210
vt -3.892629 -1.953392 -0.424209
vt -1.803894 -0.306855 2.120633
vt 2.116342 1.005260 -2.144837
vt 0.122448 -1.788247 1.212075
vt -1.120629 -1.803876 1.212075
vt -1.116510 -2.131488 0.985920
vt 0.126567 -2.115859 0.985919
vt -2.131488 0.985920 2.116510
vt 3.129208 1.005260 0.873265
vt 3.115859 0.985919 0.873433
vt 3.129208 1.005260 0.873265
vt 0.575918 2.739280 0.905391
vt 2.141244 2.350293 -0.164314
vt -0.164307 2.774181 2.141244
vt -0.826373 2.739280 0.412504
vt -0.826373 2.774181 0.412511
vt -1.148446 2.739280 0.408458
vt -0.826373 2.774181 0.412511
vt 1.160252 3.358620 1.819205
vt 0.408472 3.358620 2.148446
vt 0.587482 3.358620 1.826373
vt 1.160259 2.774181 1.819205
vt 1.160252 3.358620 1.819205
vt -0.164300 3.358620 2.141244
vt -0.164307 2.774181 2.141244
vt 0.408465 2.774181 2.148445
vt 0.408472 3.358620 2.148446
vt 1.825126 0.312830 2.774181
vt 1.820452 -0.060578 2.774181
vt 2.142497 -0.064625 2.774181
vt 2.147192 0.308784 2.774181
vt -0.820452 2.774181 -0.060578
vt -0.820452 3.268904 -0.060571
vt -1.142497 3.268904 -0.064619
vt -1.142497 2.774181 -0.064625
vt -0.820452 3.268904 -0.060571
vt -0.820980 3.313503 -0.018288
vt -1.142497 3.268904 -0.064619
vt -0.820980 -0.018288 3.313503
vt -0.821885 0.053922 3.343105
vt -1.143029 -0.022336 3.313503
vt -0.821885 0.053922 3.343105
vt -1.145752 0.194296 3.343105
vt -1.146660 0.266506 3.313503
vt -1.145752 0.194296 3.343105
vt 1.824598 3.313503 0.270552
vt 1.825126 3.268904 0.312837
vt 2.147192 3.268904 0.308791
vt 2.146660 3.313503 0.266506
vt 1.825126 3.268904 0.312837
vt 1.825126 2.774181 0.312830
vt 2.147192 2.774181 0.308784
vt 2.147192 3.268904 0.308791
vt 1.160265 2.350293 1.819205
vt 1.160259 2.774181 1.819205
vt 1.160265 2.350293 1.819205
vt 0.408465 2.774181 2.148445
vt 0.049875 3.343105 2.143936
vt 0.122085 3.352730 2.144845
vt 0.408472 3.358620 2.148446
vt 0.408472 3.358620 2.148446
vt -0.164300 3.358620 2.141244
vt -0.022336 3.313503 2.143029
vt -0.164300 3.358620 2.141244
vt -0.022336 3.313503 2.143029
vt 0.049875 3.343105 2.143936
vt -0.164300 3.358620 2.141244
vt 0.049875 3.343105 2.143936
vt 0.122085 3.352730 2.144845
vt 0.801658 3.343105 1.823694
vt 0.873868 3.352730 1.822789
vt 0.873868 3.352730 1.822789
vt 0.587482 3.358620 1.826373
vt 0.801658 3.343105 1.823694
vt 0.587482 3.358620 1.826373
vt 0.729448 3.313503 1.824598
vt 0.587482 3.358620 1.826373
vt 0.729448 3.313503 1.824598
vt 0.801658 3.343105 1.823694
vt 1.160252 3.358620 1.819205
vt 1.160252 3.358620 1.819205
vt -1.182102 0.214080 3.085263
vt -1.182102 0.214080 3.085263
vt 0.146396 -0.091426 1.158602
vt 0.146370 -1.008817 1.158592
vt 0.702507 -1.171277 1.165594
vt 1.297122 -0.091426 1.173071
vt 0.836933 -0.091426 -0.167329
vt 1.514425 0.988425 -0.175847
vt -1.319888 0.988425 -0.140210
vt -0.313793 -0.091426 -0.152860
vt -0.531122 0.988431 1.152134
vt 2.303217 0.988425 1.185720
vt 0.836959 -1.008817 -0.167331
vt 0.280822 -1.171277 -0.160337
vt -0.001853 -0.091426 0.160986
vt -0.001853 -0.917201 0.160986
vt -0.010371 0.988425 -0.516506
vt 0.993126 -0.091426 0.148476
vt 0.987709 0.988430 -0.529055
vt 0.013841 -0.529035 1.098961
vt 1.010371 -0.516506 1.098961
vt 0.999902 0.316192 1.098961
vt 0.004923 0.303682 1.098961
vt 0.316192 -0.063887 0.000099
vt 0.316193 -0.796247 0.000098
vt 0.993126 0.148477 -0.917201
vt 0.995077 0.303682 -0.796247
vt 0.696318 -0.063887 0.995077
vt -0.319287 1.098961 -1.107528
vt 1.278569 1.098961 -1.127618
vt 0.479641 2.043823 -1.117573
vt 1.515207 0.989648 -1.321248
vt 1.276093 1.088222 -1.324603
vt 1.357311 0.989037 -1.319263
vt 0.477244 2.171277 -1.308198
vt 0.477165 2.043823 -1.314558
vt -0.560719 0.989649 -1.295147
vt -0.402823 0.989037 -1.297132
vt -0.321764 1.088222 -1.304512
vt -0.560719 2.298502 0.989649
vt -0.367145 -0.533826 0.989169
vt -0.402632 2.300489 0.989649
vt 1.515206 2.324603 0.989649
vt 1.357120 2.322615 0.989649
vt 1.392906 -0.511696 0.989170
vt -0.311826 1.098961 -0.512716
vt 1.286036 1.098961 -0.532806
vt -0.167329 -0.091426 0.163067
vt -0.167331 -1.008817 0.163041
vt -0.175847 0.988425 -0.514425
vt -0.167329 -0.091426 0.163067
vt 1.158602 -0.091426 0.146396
vt 1.152134 0.988431 -0.531122
vt -0.516506 0.988425 -0.010371
vt 0.160986 -0.091426 -0.001853
vt 0.316192 1.098961 0.000098
vt 0.160986 -0.091426 -0.001853
vt 0.160986 -0.917201 -0.001853
vt -0.001853 0.160986 -0.917201
vt 0.000098 0.316193 -0.796247
vt 0.851523 -0.917201 0.993126
vt 0.851524 -0.091426 0.993126
vt 0.696318 -0.796247 0.995077
vt 0.851524 -0.091426 0.993126
vt 1.529055 0.988430 0.987709
vt 0.696318 1.098961 0.995077
vt -0.516506 0.988425 -0.010371
vt 0.316192 1.098961 0.000098
vt -0.516506 1.098961 -0.010371
vt 0.696318 1.098961 0.995077
vt 1.529055 0.988430 0.987709
vt 1.529035 1.098961 0.986159
vt -0.515207 -1.321248 0.989648
vt -0.357311 -1.319263 0.989037
vt 1.560719 -1.295147 0.989649
vt 1.402823 -1.297132 0.989037
vt -0.152134 -0.531122 0.988431
vt -0.185720 2.303217 0.988425
vt 1.140210 2.319888 0.988425
vt 1.175847 -0.514425 0.988425
vt -0.175847 0.988425 -0.514425
vt -0.010371 1.098961 -0.516506
vt 1.152134 0.988431 -0.531122
vt 0.986159 1.098961 -0.529035
vt 1.152134 0.988431 -0.531122
vt 1.367145 0.989169 -0.533826
vt -0.392906 0.989170 -0.511696
vt -0.175847 0.988425 -0.514425
vt 2.324603 1.088222 1.276093
vt 2.314558 2.043823 0.477165
vt 2.117573 2.043823 0.479641
vt 2.127618 1.098961 1.278569
vt -1.314558 2.043823 0.477165
vt -1.304512 1.088222 -0.321764
vt -1.107528 1.098961 -0.319287
vt -1.117573 2.043823 0.479641
vt -0.286036 -0.532806 1.098961
vt -0.278569 -1.127618 1.098961
vt 1.319287 -1.107528 1.098961
vt 1.311826 -0.512716 1.098961
vt 1.533826 0.989169 1.367145
vt 2.319263 0.989037 1.357311
vt 2.324603 1.088222 1.276093
vt 2.127618 1.098961 1.278569
vt 1.532806 1.098961 1.286036
vt 1.533826 0.989169 1.367145
vt 2.127618 1.098961 1.278569
vt -1.107528 1.098961 -0.319287
vt -1.304512 1.088222 -0.321764
vt -1.297132 0.989037 -0.402823
vt -0.511696 0.989170 -0.392906
vt -1.107528 1.098961 -0.319287
vt -0.511696 0.989170 -0.392906
vt -0.512716 1.098961 -0.311826
vt 1.158592 -1.008817 0.146370
vt 1.158602 -0.091426 0.146396
vt 0.993126 -0.917201 0.148477
vt -3.923027 2.767342 0.789945
vt 0.905391 2.828051 0.789945
vt -3.889371 0.090535 0.160184
vt 2.148446 2.843674 0.789945
vt 2.182102 0.166869 0.160185
vt 1.826373 2.839628 0.789945
vt 0.000500 0.011599 0.467655
vt 0.173089 0.549712 0.472717
vt 0.173089 0.619127 0.472717
vt 0.000499 0.781931 0.467659
vt 0.686250 0.011599 0.487768
vt 0.705605 0.011599 0.488336
vt 0.705605 0.427780 0.488336
vt 0.686251 0.638286 0.487773
vt 0.545849 0.011599 0.483650
vt 0.560120 0.248700 0.484069
vt 0.545849 0.249226 0.483650
vt 0.545849 0.046886 0.483650
vt 0.650242 0.274396 0.486712
vt 0.638870 0.462376 0.515308
vt 0.638870 1.039199 0.515308
vt 0.625120 1.027199 0.531525
vt 0.627576 0.436679 0.531596
vt 0.598046 0.219178 0.485181
vt 0.617008 0.227809 0.485737
vt 0.579083 0.227809 0.484625
vt 0.635971 0.248700 0.486293
vt 0.545849 1.057124 0.483650
vt 0.545852 0.781931 0.483654
vt 0.556909 1.039199 0.512904
vt 0.545849 0.274396 0.483650
vt 0.568024 0.436679 0.529850
vt 0.556909 0.462376 0.512904
vt 0.582865 0.415788 0.538989
vt 0.612641 0.415788 0.539862
vt 0.597748 0.407157 0.540455
vt 0.650242 0.759532 0.486712
vt 0.570480 1.027198 0.529922
vt 0.584093 1.022448 0.539025
vt 0.597748 1.020761 0.540455
vt 0.611413 1.022448 0.539826
vt 0.859149 0.011599 0.492839
vt 0.999500 0.011599 0.496956
vt 0.999501 0.638304 0.496944
vt 0.859149 0.427780 0.492839
vt 0.839089 0.485489 0.492251
vt 0.782377 0.528673 0.490588
vt 0.754021 0.519711 0.489756
vt 0.810733 0.519711 0.491419
vt 0.725666 0.485489 0.488924
vt 0.859220 0.427780 0.479667
vt 0.859220 0.011599 0.479666
vt 0.839160 0.485489 0.479078
vt 0.810804 0.519711 0.478246
vt 0.782448 0.528673 0.477415
vt 0.754092 0.519711 0.476583
vt 0.725737 0.485489 0.475751
vt 0.705676 0.427780 0.475163
vt 0.705676 0.011599 0.475163
vt 0.320320 0.011599 0.477035
vt 0.474498 0.046886 0.481558
vt 0.375265 0.046886 0.478647
vt 0.474498 0.330492 0.481558
vt 0.425364 0.421499 0.480117
vt 0.346018 0.421499 0.477789
vt 0.375265 0.330492 0.478647
vt 0.485661 0.046886 0.481885
vt 0.425435 0.421499 0.466944
vt 0.425435 0.633802 0.466944
vt 0.414684 0.649115 0.466629
vt 0.400223 0.663508 0.466204
vt 0.385762 0.667977 0.465780
vt 0.371300 0.663508 0.465356
vt 0.356839 0.649115 0.464932
vt 0.346089 0.633802 0.464617
vt 0.346089 0.421499 0.464617
vt 0.425364 0.633802 0.480117
vt 0.423109 0.781931 0.480054
vt 0.414613 0.649115 0.479801
vt 0.413765 0.759532 0.479776
vt 0.400152 0.663508 0.479377
vt 0.348230 0.781931 0.477858
vt 0.346018 0.633802 0.477789
vt 0.356768 0.649115 0.478105
vt 0.371229 0.663508 0.478529
vt 0.292224 0.540478 0.476212
vt 0.292224 0.627598 0.476212
vt 0.186021 0.619127 0.473097
vt 0.186021 0.549712 0.473097
vt 0.310518 0.627598 0.476748
vt 0.310518 0.540478 0.476748
vt 0.375336 0.330492 0.465474
vt 0.474569 0.330492 0.468385
vt 0.375336 0.046886 0.465474
vt 0.474569 0.046886 0.468385
vt 0.385691 0.667977 0.478953
vt 0.186092 0.619127 0.459924
vt 0.186092 0.549712 0.459924
vt 0.173160 0.619127 0.459545
vt 0.173160 0.549712 0.459545
vt 0.310589 0.627598 0.463575
vt 0.310589 0.540478 0.463575
vt 0.292295 0.627598 0.463039
vt 0.292295 0.540478 0.463039
vt 0.357575 0.759532 0.478128
vt 0.413765 0.794562 0.479776
vt 0.357575 0.794562 0.478128
vt 0.650242 1.057124 0.486712
vt 0.686250 1.057124 0.487768
vt 0.485661 0.249226 0.481885
vt 1.166300 0.772731 1.530914
vt 1.166303 0.431139 1.530920
vt 1.664223 -0.091588 1.522572
vt 1.664221 0.246816 1.522573
vt 0.999921 -0.012570 0.000003
vt 0.801212 -0.206337 0.000003
vt -0.806147 -0.186162 0.000001
vt 1.931944 2.039318 0.999501
vt -0.875684 1.927551 0.999500
vt -0.835295 0.010550 0.328986
vt 2.049687 -0.918432 0.000500
vt -0.937573 -0.931912 0.000500
vt -0.616681 0.511378 0.999500
vt -0.623206 -0.007604 0.000500
vt -0.610155 1.030360 0.000500
vt 1.515207 0.989648 -1.321248
vt 1.357311 0.989037 -1.319263
vt 0.477244 2.171277 -1.308198
vt -0.560719 0.989649 -1.295147
vt -0.402823 0.989037 -1.297132
vt 0.503262 0.497297 0.999500
vt 0.281732 -0.018982 0.000500
vt 0.294782 1.018981 0.000500
vt 0.477244 2.171277 -1.308198
vt -0.560719 0.989649 -1.295147
vt -0.402823 0.989037 -1.297132
vt 1.357311 0.989037 -1.319263
vt 1.515207 0.989648 -1.321248
vt 0.503262 0.497297 0.999500
vt -0.616681 0.511378 0.999500
vt -0.623206 -0.007604 0.000500
vt 0.281732 -0.018982 0.000500
vt 0.294782 1.018981 0.000500
vt -0.610155 1.030360 0.000500
# 495 texture coords

g Laboratooriumi_22
usemtl Laboratooriumi_22_paekivi
s off
f -159/-137/-1200 -157/-136/-1199 -224/-135/-1198 
f -224/-135/-1197 -226/-138/-1196 -159/-137/-1195 
f -194/-133/-1194 -192/-132/-1193 -74/-131/-1192 
f -74/-131/-1191 -217/-134/-1190 -194/-133/-1189 
s 1
f -209/-129/-1188 -20/-128/-1187 -22/-127/-1186 
f -22/-127/-1185 -222/-130/-1184 -209/-129/-1183 
s off
f -217/-134/-1182 -74/-131/-1181 -214/-126/-1180 
s 2
f -201/-125/-1179 -200/-124/-1178 -199/-123/-1177 
f -199/-123/-1176 -202/-122/-1175 -201/-125/-1174 
s 1
f -222/-130/-1173 -217/-134/-1172 -211/-121/-1171 
f -217/-134/-1170 -212/-120/-1169 -211/-121/-1168 
f -222/-130/-1167 -211/-121/-1166 -210/-119/-1165 
f -222/-130/-1164 -210/-119/-1163 -209/-129/-1162 
f -217/-134/-1161 -214/-126/-1160 -213/-118/-1159 
f -217/-134/-1158 -213/-118/-1157 -212/-120/-1156 
s 2
f -219/-117/-1155 -221/-116/-1154 -208/-115/-1153 
f -215/-114/-1152 -206/-113/-1151 -207/-112/-1150 
f -209/-129/-1149 -205/-111/-1148 -206/-113/-1147 
f -210/-119/-1146 -211/-121/-1145 -205/-111/-1144 
f -211/-121/-1143 -203/-110/-1142 -204/-109/-1141 
f -212/-120/-1140 -213/-118/-1139 -203/-110/-1138 
f -213/-118/-1137 -214/-126/-1136 -202/-122/-1135 
f -214/-126/-1134 -218/-108/-1133 -201/-125/-1132 
f -195/-107/-1131 -208/-115/-1130 -207/-112/-1129 
f -207/-112/-1128 -206/-113/-1127 -195/-107/-1126 
f -196/-106/-1125 -195/-107/-1124 -206/-113/-1123 
f -206/-113/-1122 -205/-111/-1121 -196/-106/-1120 
f -197/-105/-1119 -196/-106/-1118 -205/-111/-1117 
f -205/-111/-1116 -204/-109/-1115 -197/-105/-1114 
f -197/-105/-1113 -204/-109/-1112 -203/-110/-1111 
f -203/-110/-1110 -198/-104/-1109 -197/-105/-1108 
f -198/-104/-1107 -203/-110/-1106 -202/-122/-1105 
f -202/-122/-1104 -199/-123/-1103 -198/-104/-1102 
f -218/-108/-1101 -200/-124/-1100 -201/-125/-1099 
f -221/-116/-1098 -215/-114/-1097 -207/-112/-1096 
usemtl Laboratooriumi_22_uks_2
s 1
f -184/-472/-1095 -183/-471/-1094 -182/-470/-1093 
f -184/-472/-1092 -182/-470/-1091 -181/-469/-1090 
f -184/-472/-1089 -181/-469/-1088 -180/-468/-1087 
f -184/-472/-1086 -180/-468/-1085 -179/-467/-1084 
f -184/-472/-1083 -179/-467/-1082 -178/-466/-1081 
f -184/-472/-1080 -178/-466/-1079 -177/-465/-1078 
f -185/-473/-1077 -184/-472/-1076 -177/-465/-1075 
usemtl Laboratooriumi_22_paekivi
s off
f -225/-102/-1074 -223/-101/-1073 -191/-100/-1072 
f -191/-100/-1071 -193/-103/-1070 -225/-102/-1069 
f -191/-100/-1068 -223/-101/-1067 -190/-99/-1066 
f -223/-101/-1065 -74/-131/-1064 -188/-98/-1063 
f -74/-131/-1062 -187/-97/-1061 -188/-98/-1060 
f -223/-101/-1059 -188/-98/-1058 -189/-96/-1057 
f -223/-101/-1056 -189/-96/-1055 -190/-99/-1054 
f -74/-131/-1053 -192/-132/-1052 -186/-95/-1051 
f -74/-131/-1050 -186/-95/-1049 -187/-97/-1048 
f -193/-103/-1047 -191/-100/-1046 -183/-94/-1045 
f -183/-94/-1044 -184/-93/-1043 -193/-103/-1042 
f -191/-100/-1041 -190/-99/-1040 -182/-92/-1039 
f -182/-92/-1038 -183/-94/-1037 -191/-100/-1036 
f -190/-99/-1035 -189/-96/-1034 -181/-91/-1033 
f -181/-91/-1032 -182/-92/-1031 -190/-99/-1030 
f -189/-96/-1029 -188/-98/-1028 -180/-90/-1027 
f -180/-90/-1026 -181/-91/-1025 -189/-96/-1024 
f -188/-98/-1023 -187/-97/-1022 -179/-89/-1021 
f -179/-89/-1020 -180/-90/-1019 -188/-98/-1018 
f -187/-97/-1017 -186/-95/-1016 -178/-88/-1015 
f -178/-88/-1014 -179/-89/-1013 -187/-97/-1012 
f -186/-95/-1011 -192/-132/-1010 -177/-87/-1009 
f -177/-87/-1008 -178/-88/-1007 -186/-95/-1006 
f -192/-132/-1005 -194/-133/-1004 -185/-86/-1003 
f -185/-86/-1002 -177/-87/-1001 -192/-132/-1000 
f -175/-85/-999 -222/-130/-998 -171/-84/-997 
f -171/-84/-996 -170/-83/-995 -175/-85/-994 
f -169/-81/-993 -168/-80/-992 -172/-79/-991 
f -172/-79/-990 -173/-82/-989 -169/-81/-988 
usemtl Laboratooriumi_22_uks_1
f -152/-490/-987 -151/-489/-986 -150/-488/-985 
f -150/-488/-984 -149/-487/-983 -152/-490/-982 
usemtl Laboratooriumi_22_paekivi
f -222/-130/-981 -22/-127/-980 -23/-78/-979 
f -142/-71/-978 -141/-70/-977 -140/-69/-976 
f -143/-72/-975 -142/-71/-974 -140/-69/-973 
f -144/-73/-972 -143/-72/-971 -140/-69/-970 
f -145/-74/-969 -144/-73/-968 -140/-69/-967 
f -146/-75/-966 -145/-74/-965 -140/-69/-964 
f -147/-76/-963 -146/-75/-962 -140/-69/-961 
f -148/-77/-960 -147/-76/-959 -140/-69/-958 
f -167/-68/-957 -176/-67/-956 -165/-66/-955 
f -176/-67/-954 -118/-65/-953 -164/-64/-952 
f -176/-67/-951 -164/-64/-950 -165/-66/-949 
f -174/-63/-948 -166/-62/-947 -161/-61/-946 
f -174/-63/-945 -161/-61/-944 -162/-60/-943 
usemtl Laboratooriumi_22_aken_1
f -138/-463/-942 -137/-462/-941 -136/-461/-940 
f -136/-461/-939 -139/-464/-938 -138/-463/-937 
f -134/-459/-936 -133/-458/-935 -132/-457/-934 
f -132/-457/-933 -135/-460/-932 -134/-459/-931 
usemtl Laboratooriumi_22_paekivi
f -153/-58/-930 -158/-57/-929 -160/-56/-928 
f -160/-56/-927 -155/-59/-926 -153/-58/-925 
f -166/-62/-924 -154/-55/-923 -156/-54/-922 
f -156/-54/-921 -168/-80/-920 -166/-62/-919 
f -157/-136/-918 -158/-57/-917 -224/-135/-916 
f -226/-138/-915 -160/-56/-914 -159/-137/-913 
f -158/-57/-912 -153/-58/-911 -174/-63/-910 
f -174/-63/-909 -224/-135/-908 -158/-57/-907 
f -175/-85/-906 -155/-59/-905 -160/-56/-904 
f -160/-56/-903 -226/-138/-902 -175/-85/-901 
f -153/-58/-900 -154/-55/-899 -174/-63/-898 
f -154/-55/-897 -166/-62/-896 -174/-63/-895 
f -175/-85/-894 -168/-80/-893 -155/-59/-892 
f -170/-83/-891 -172/-79/-890 -168/-80/-889 
f -168/-80/-888 -175/-85/-887 -170/-83/-886 
f -168/-80/-885 -156/-54/-884 -155/-59/-883 
f -221/-116/-882 -167/-68/-881 -169/-81/-880 
f -169/-81/-879 -215/-114/-878 -221/-116/-877 
f -221/-116/-876 -176/-67/-875 -167/-68/-874 
f -173/-82/-873 -172/-79/-872 -151/-53/-871 
f -151/-53/-870 -152/-52/-869 -173/-82/-868 
f -172/-79/-867 -170/-83/-866 -150/-51/-865 
f -150/-51/-864 -151/-53/-863 -172/-79/-862 
f -170/-83/-861 -171/-84/-860 -149/-50/-859 
f -149/-50/-858 -150/-51/-857 -170/-83/-856 
f -171/-84/-855 -173/-82/-854 -152/-52/-853 
f -152/-52/-852 -149/-50/-851 -171/-84/-850 
f -169/-81/-849 -167/-68/-848 -147/-76/-847 
f -147/-76/-846 -148/-77/-845 -169/-81/-844 
f -167/-68/-843 -165/-66/-842 -146/-75/-841 
f -146/-75/-840 -147/-76/-839 -167/-68/-838 
f -165/-66/-837 -164/-64/-836 -145/-74/-835 
f -145/-74/-834 -146/-75/-833 -165/-66/-832 
f -164/-64/-831 -163/-49/-830 -144/-73/-829 
f -144/-73/-828 -145/-74/-827 -164/-64/-826 
f -163/-49/-825 -162/-60/-824 -143/-72/-823 
f -143/-72/-822 -144/-73/-821 -163/-49/-820 
f -162/-60/-819 -161/-61/-818 -142/-71/-817 
f -142/-71/-816 -143/-72/-815 -162/-60/-814 
f -161/-61/-813 -166/-62/-812 -141/-70/-811 
f -141/-70/-810 -142/-71/-809 -161/-61/-808 
f -166/-62/-807 -168/-80/-806 -140/-69/-805 
f -140/-69/-804 -141/-70/-803 -166/-62/-802 
f -168/-80/-801 -169/-81/-800 -148/-77/-799 
f -148/-77/-798 -140/-69/-797 -168/-80/-796 
f -160/-56/-795 -158/-57/-794 -138/-48/-793 
f -138/-48/-792 -139/-47/-791 -160/-56/-790 
f -158/-57/-789 -157/-136/-788 -137/-46/-787 
f -137/-46/-786 -138/-48/-785 -158/-57/-784 
f -157/-136/-783 -159/-137/-782 -136/-45/-781 
f -136/-45/-780 -137/-46/-779 -157/-136/-778 
f -159/-137/-777 -160/-56/-776 -139/-47/-775 
f -139/-47/-774 -136/-45/-773 -159/-137/-772 
f -156/-54/-771 -154/-55/-770 -134/-44/-769 
f -134/-44/-768 -135/-43/-767 -156/-54/-766 
f -154/-55/-765 -153/-58/-764 -133/-42/-763 
f -133/-42/-762 -134/-44/-761 -154/-55/-760 
f -153/-58/-759 -155/-59/-758 -132/-41/-757 
f -132/-41/-756 -133/-42/-755 -153/-58/-754 
f -155/-59/-753 -156/-54/-752 -135/-43/-751 
f -135/-43/-750 -132/-41/-749 -155/-59/-748 
f -118/-65/-747 -112/-39/-746 -111/-38/-745 
f -111/-38/-744 -117/-40/-743 -118/-65/-742 
usemtl Laboratooriumi_22_uks_3
f -109/-455/-741 -108/-454/-740 -105/-453/-739 
f -105/-453/-738 -110/-456/-737 -109/-455/-736 
usemtl Laboratooriumi_22_puit
f -129/-259/-735 -176/-258/-734 -127/-257/-733 
f -127/-257/-732 -123/-256/-731 -129/-259/-730 
f -128/-255/-729 -130/-254/-728 -124/-253/-727 
f -124/-253/-726 -122/-252/-725 -128/-255/-724 
f -131/-251/-723 -129/-259/-722 -123/-256/-721 
f -123/-256/-720 -125/-250/-719 -131/-251/-718 
f -174/-249/-717 -128/-255/-716 -122/-252/-715 
f -122/-252/-714 -126/-248/-713 -174/-249/-712 
usemtl Laboratooriumi_22_katus
f -119/-422/-711 -100/-421/-710 -102/-420/-709 
f -102/-420/-708 -121/-423/-707 -119/-422/-706 
f -120/-419/-705 -101/-418/-704 -100/-421/-703 
f -100/-421/-702 -119/-422/-701 -120/-419/-700 
usemtl Laboratooriumi_22_paekivi
f -118/-65/-699 -176/-67/-698 -112/-39/-697 
usemtl Laboratooriumi_22_puit
f -128/-214/-696 -174/-213/-695 -111/-246/-694 
f -111/-246/-693 -113/-247/-692 -128/-214/-691 
f -130/-212/-690 -128/-211/-689 -113/-247/-688 
f -113/-247/-687 -115/-245/-686 -130/-212/-685 
f -129/-210/-684 -131/-209/-683 -116/-243/-682 
f -116/-243/-681 -114/-244/-680 -129/-210/-679 
usemtl Laboratooriumi_22_uks_3
f -105/-453/-678 -108/-454/-677 -107/-451/-676 
f -107/-451/-675 -106/-452/-674 -105/-453/-673 
usemtl Laboratooriumi_22_puit
f -104/-242/-672 -90/-241/-671 -109/-240/-670 
f -109/-240/-669 -110/-239/-668 -104/-242/-667 
f -108/-238/-666 -109/-206/-665 -115/-208/-664 
f -115/-208/-663 -113/-207/-662 -108/-238/-661 
f -113/-205/-660 -111/-204/-659 -107/-237/-658 
f -107/-237/-657 -108/-238/-656 -113/-205/-655 
f -111/-203/-654 -112/-236/-653 -106/-235/-652 
f -106/-235/-651 -107/-202/-650 -111/-203/-649 
f -112/-201/-648 -114/-200/-647 -105/-234/-646 
f -105/-234/-645 -106/-199/-644 -112/-201/-643 
f -114/-198/-642 -116/-197/-641 -110/-196/-640 
f -110/-196/-639 -105/-234/-638 -114/-198/-637 
f -115/-195/-636 -109/-194/-635 -90/-193/-634 
f -110/-192/-633 -116/-191/-632 -104/-190/-631 
f -88/-233/-630 -87/-232/-629 -86/-231/-628 
f -102/-230/-627 -98/-229/-626 -103/-228/-625 
f -102/-230/-624 -100/-227/-623 -96/-226/-622 
f -96/-226/-621 -98/-229/-620 -102/-230/-619 
f -101/-225/-618 -99/-224/-617 -97/-223/-616 
f -100/-227/-615 -101/-225/-614 -97/-223/-613 
f -97/-223/-612 -96/-226/-611 -100/-227/-610 
f -121/-222/-609 -102/-189/-608 -103/-188/-607 
f -121/-222/-606 -103/-188/-605 -93/-221/-604 
f -121/-222/-603 -93/-221/-602 -95/-220/-601 
f -101/-187/-600 -120/-219/-599 -94/-218/-598 
f -101/-187/-597 -94/-218/-596 -92/-217/-595 
f -101/-187/-594 -92/-217/-593 -99/-186/-592 
f -95/-220/-591 -93/-221/-590 -131/-185/-589 
f -131/-185/-588 -125/-184/-587 -95/-220/-586 
f -94/-218/-585 -124/-183/-584 -130/-182/-583 
f -130/-182/-582 -92/-217/-581 -94/-218/-580 
f -130/-181/-579 -115/-245/-578 -90/-180/-577 
f -90/-180/-576 -91/-216/-575 -130/-181/-574 
f -116/-243/-573 -131/-179/-572 -89/-215/-571 
f -89/-215/-570 -104/-178/-569 -116/-243/-568 
f -131/-177/-567 -93/-176/-566 -89/-215/-565 
f -92/-175/-564 -130/-174/-563 -91/-216/-562 
f -98/-173/-561 -96/-172/-560 -86/-171/-559 
f -86/-171/-558 -87/-170/-557 -98/-173/-556 
f -96/-169/-555 -97/-168/-554 -88/-167/-553 
f -88/-167/-552 -86/-166/-551 -96/-169/-550 
f -104/-242/-549 -89/-165/-548 -87/-164/-547 
f -87/-164/-546 -88/-163/-545 -91/-162/-544 
f -87/-164/-543 -91/-162/-542 -90/-241/-541 
f -104/-242/-540 -87/-164/-539 -90/-241/-538 
f -103/-160/-537 -98/-159/-536 -87/-158/-535 
f -87/-158/-534 -93/-161/-533 -103/-160/-532 
f -89/-157/-531 -93/-156/-530 -87/-155/-529 
f -88/-154/-528 -97/-153/-527 -99/-152/-526 
f -99/-152/-525 -92/-151/-524 -88/-154/-523 
f -88/-150/-522 -92/-149/-521 -91/-148/-520 
f -176/-147/-519 -129/-146/-518 -114/-244/-517 
f -114/-244/-516 -112/-145/-515 -176/-147/-514 
usemtl Laboratooriumi_22_paekivi
f -174/-63/-513 -117/-40/-512 -111/-38/-511 
f -117/-40/-510 -162/-60/-509 -163/-49/-508 
f -118/-65/-507 -117/-40/-506 -163/-49/-505 
f -117/-40/-504 -174/-63/-503 -162/-60/-502 
f -118/-65/-501 -163/-49/-500 -164/-64/-499 
usemtl Laboratooriumi_22_katus
f -85/-445/-498 -80/-444/-497 -83/-443/-496 
f -83/-443/-495 -84/-446/-494 -85/-445/-493 
f -80/-444/-492 -79/-442/-491 -57/-441/-490 
f -57/-441/-489 -83/-443/-488 -80/-444/-487 
f -79/-442/-486 -82/-440/-485 -81/-439/-484 
f -81/-439/-483 -57/-441/-482 -79/-442/-481 
usemtl Laboratooriumi_22_plaster
f -224/-416/-480 -174/-415/-479 -77/-414/-478 
f -77/-414/-477 -78/-417/-476 -224/-416/-475 
f -77/-352/-474 -85/-413/-473 -84/-412/-472 
f -84/-412/-471 -78/-353/-470 -77/-352/-469 
f -75/-410/-468 -81/-409/-467 -82/-408/-466 
f -82/-408/-465 -76/-411/-464 -75/-410/-463 
f -75/-351/-462 -76/-350/-461 -176/-406/-460 
f -176/-406/-459 -221/-407/-458 -75/-351/-457 
usemtl Laboratooriumi_22_paekivi
s 2
f -221/-116/-456 -207/-112/-455 -208/-115/-454 
f -218/-108/-453 -216/-37/-452 -200/-124/-451 
s off
f -220/-36/-450 -216/-37/-449 -218/-108/-448 
f -218/-108/-447 -74/-131/-446 -220/-36/-445 
usemtl Laboratooriumi_22_plaster
f -221/-348/-444 -57/-405/-443 -81/-347/-442 
f -81/-347/-441 -75/-349/-440 -221/-348/-439 
s 1
f -176/-491/-438 -76/-481/-437 -82/-484/-436 
f -82/-484/-435 -79/-483/-434 -176/-491/-433 
f -174/-345/-432 -80/-404/-431 -85/-344/-430 
f -85/-344/-429 -77/-346/-428 -174/-345/-427 
usemtl Laboratooriumi_22_katus
s off
f -71/-437/-426 -73/-436/-425 -72/-435/-424 
f -72/-435/-423 -70/-438/-422 -71/-437/-421 
usemtl Laboratooriumi_22_plaster
f -74/-402/-420 -223/-401/-419 -68/-400/-418 
f -68/-400/-417 -69/-403/-416 -74/-402/-415 
f -68/-342/-414 -71/-399/-413 -70/-398/-412 
f -70/-398/-411 -69/-343/-410 -68/-342/-409 
f -220/-397/-408 -74/-341/-407 -27/-396/-406 
f -220/-397/-405 -27/-396/-404 -61/-395/-403 
f -220/-397/-402 -61/-395/-401 -62/-394/-400 
usemtl Laboratooriumi_22_paekivi
f -221/-34/-399 -219/-33/-398 -57/-32/-397 
f -57/-32/-396 -67/-31/-395 -221/-34/-394 
usemtl Laboratooriumi_22_plaster
f -220/-397/-393 -62/-394/-392 -66/-392/-391 
f -64/-391/-390 -63/-390/-389 -66/-340/-388 
f -66/-340/-387 -65/-389/-386 -64/-391/-385 
f -219/-339/-384 -220/-338/-383 -63/-337/-382 
f -63/-337/-381 -64/-336/-380 -219/-339/-379 
f -220/-397/-378 -66/-392/-377 -63/-335/-376 
f -65/-334/-375 -219/-393/-374 -64/-333/-373 
usemtl Laboratooriumi_22_katus
f -83/-144/-372 -57/-143/-371 -60/-142/-370 
f -65/-434/-369 -58/-433/-368 -57/-441/-367 
usemtl Laboratooriumi_22_plaster
f -65/-332/-366 -57/-331/-365 -219/-393/-364 
usemtl Laboratooriumi_22_katus
f -61/-141/-363 -27/-140/-362 -59/-139/-361 
f -51/-430/-360 -52/-429/-359 -54/-428/-358 
f -54/-428/-357 -53/-431/-356 -51/-430/-355 
f -59/-432/-354 -57/-441/-353 -58/-433/-352 
f -66/-427/-351 -62/-426/-350 -58/-433/-349 
f -58/-433/-348 -65/-434/-347 -66/-427/-346 
usemtl Laboratooriumi_22_plaster
f -59/-388/-345 -45/-387/-344 -49/-386/-343 
f -62/-330/-342 -47/-384/-341 -48/-383/-340 
f -48/-383/-339 -58/-385/-338 -62/-330/-337 
f -62/-394/-336 -43/-382/-335 -47/-329/-334 
f -49/-327/-333 -50/-381/-332 -61/-326/-331 
f -61/-326/-330 -59/-328/-329 -49/-327/-328 
usemtl Laboratooriumi_22_katus
f -56/-425/-327 -55/-424/-326 -52/-429/-325 
f -52/-429/-324 -51/-430/-323 -56/-425/-322 
f -57/-143/-321 -59/-139/-320 -27/-140/-319 
f -27/-140/-318 -60/-142/-317 -57/-143/-316 
usemtl Laboratooriumi_22_plaster
f -53/-380/-315 -54/-379/-314 -48/-383/-313 
f -48/-383/-312 -47/-384/-311 -53/-380/-310 
f -55/-378/-309 -56/-377/-308 -50/-381/-307 
f -50/-381/-306 -49/-325/-305 -55/-378/-304 
f -54/-324/-303 -37/-376/-302 -38/-375/-301 
f -56/-323/-300 -32/-374/-299 -33/-373/-298 
f -55/-322/-297 -49/-386/-296 -45/-387/-295 
f -45/-387/-294 -41/-372/-293 -55/-322/-292 
f -48/-321/-291 -54/-320/-290 -42/-370/-289 
f -42/-370/-288 -46/-371/-287 -48/-321/-286 
f -53/-319/-285 -47/-318/-284 -43/-382/-283 
f -43/-382/-282 -39/-369/-281 -53/-319/-280 
f -50/-317/-279 -56/-316/-278 -40/-367/-277 
f -40/-367/-276 -44/-368/-275 -50/-317/-274 
s 1
f -45/-315/-273 -46/-314/-272 -43/-313/-271 
f -43/-313/-270 -44/-312/-269 -45/-315/-268 
s 2
f -46/-311/-267 -42/-310/-266 -39/-309/-265 
f -39/-309/-264 -43/-308/-263 -46/-311/-262 
f -42/-307/-261 -38/-306/-260 -29/-366/-259 
f -29/-366/-258 -39/-305/-257 -42/-307/-256 
f -38/-304/-255 -37/-303/-254 -30/-365/-253 
f -30/-365/-252 -29/-302/-251 -38/-304/-250 
f -37/-301/-249 -36/-364/-248 -31/-363/-247 
f -31/-363/-246 -30/-365/-245 -37/-301/-244 
f -36/-364/-243 -35/-362/-242 -32/-300/-241 
f -32/-300/-240 -31/-363/-239 -36/-364/-238 
f -35/-362/-237 -34/-361/-236 -33/-299/-235 
f -33/-299/-234 -32/-298/-233 -35/-362/-232 
f -34/-297/-231 -41/-296/-230 -40/-295/-229 
f -40/-295/-228 -33/-294/-227 -34/-297/-226 
f -41/-293/-225 -45/-292/-224 -44/-291/-223 
f -44/-291/-222 -40/-290/-221 -41/-293/-220 
s off
f -58/-289/-219 -48/-288/-218 -46/-371/-217 
f -59/-388/-216 -58/-287/-215 -46/-371/-214 
f -46/-371/-213 -45/-387/-212 -59/-388/-211 
f -61/-395/-210 -44/-368/-209 -43/-382/-208 
f -43/-382/-207 -62/-394/-206 -61/-395/-205 
f -61/-395/-204 -50/-286/-203 -44/-368/-202 
f -51/-360/-201 -30/-285/-200 -31/-284/-199 
f -56/-283/-198 -51/-360/-197 -32/-374/-196 
f -33/-373/-195 -40/-367/-194 -56/-282/-193 
f -53/-281/-192 -39/-369/-191 -29/-280/-190 
f -53/-279/-189 -29/-278/-188 -30/-277/-187 
f -51/-360/-186 -53/-276/-185 -30/-275/-184 
f -51/-360/-183 -31/-274/-182 -32/-374/-181 
f -52/-359/-180 -35/-273/-179 -36/-272/-178 
f -52/-359/-177 -36/-271/-176 -37/-376/-175 
f -52/-359/-174 -55/-270/-173 -35/-269/-172 
f -55/-268/-171 -41/-372/-170 -34/-267/-169 
f -55/-266/-168 -34/-265/-167 -35/-264/-166 
f -54/-263/-165 -52/-359/-164 -37/-376/-163 
f -38/-375/-162 -42/-370/-161 -54/-262/-160 
usemtl Laboratooriumi_22_katus
f -73/-26/-159 -19/-25/-158 -27/-24/-157 
f -27/-24/-156 -72/-27/-155 -73/-26/-154 
usemtl Laboratooriumi_22_plaster
f -60/-358/-153 -27/-261/-152 -24/-357/-151 
f -24/-357/-150 -26/-356/-149 -60/-358/-148 
f -27/-260/-147 -28/-355/-146 -25/-354/-145 
f -25/-354/-144 -24/-357/-143 -27/-260/-142 
usemtl xxx
s 1
f -26/-475/-141 -226/-495/-140 -224/-493/-139 
f -224/-493/-138 -60/-477/-137 -26/-475/-136 
s off
f -83/-485/-135 -224/-493/-134 -84/-486/-133 
f -83/-485/-132 -60/-477/-131 -224/-493/-130 
f -25/-474/-129 -28/-476/-128 -18/-29/-127 
f -18/-29/-126 -17/-28/-125 -25/-474/-124 
f -73/-480/-123 -71/-479/-122 -68/-478/-121 
f -68/-478/-120 -223/-492/-119 -73/-480/-118 
f -19/-30/-117 -73/-480/-116 -223/-492/-115 
f -223/-492/-114 -18/-29/-113 -19/-30/-112 
usemtl Laboratooriumi_22_paekivi
f -21/-35/-111 -20/-128/-110 -173/-82/-109 
usemtl Laboratooriumi_22_uks_4
f -20/-449/-108 -21/-448/-107 -23/-447/-106 
f -23/-447/-105 -22/-450/-104 -20/-449/-103 
usemtl Laboratooriumi_22_paekivi
f -222/-130/-102 -23/-78/-101 -171/-84/-100 
f -215/-114/-99 -169/-81/-98 -173/-82/-97 
f -171/-84/-96 -23/-78/-95 -21/-35/-94 
f -21/-35/-93 -173/-82/-92 -171/-84/-91 
f -20/-128/-90 -215/-114/-89 -173/-82/-88 
s 1
f -209/-129/-87 -215/-114/-86 -20/-128/-85 
usemtl xxx
s off
f -224/-493/-84 -78/-482/-83 -84/-486/-82 
usemtl Laboratooriumi_22_paekivi
f -74/-131/-81 -218/-108/-80 -214/-126/-79 
s 2
f -209/-129/-78 -210/-119/-77 -205/-111/-76 
f -211/-121/-75 -204/-109/-74 -205/-111/-73 
f -211/-121/-72 -212/-120/-71 -203/-110/-70 
f -213/-118/-69 -202/-122/-68 -203/-110/-67 
f -215/-114/-66 -209/-129/-65 -206/-113/-64 
f -214/-126/-63 -201/-125/-62 -202/-122/-61 
usemtl Laboratooriumi_22_plaster
s 1
f -74/-343/-60 -69/-338/-59 -70/-339/-58 
f -70/-339/-57 -72/-341/-56 -74/-343/-55 
usemtl Laboratooriumi_22_katus
s off
f -19/-25/-54 -28/-23/-53 -27/-24/-52 
usemtl xxx
f -223/-492/-51 -225/-494/-50 -17/-28/-49 
f -17/-28/-48 -18/-29/-47 -223/-492/-46 
f -18/-29/-45 -28/-476/-44 -19/-30/-43 
usemtl Laboratooriumi_22_puit
f -14/-16/-42 -12/-15/-41 -13/-18/-40 
f -16/-17/-39 -14/-16/-38 -13/-18/-37 
f -16/-17/-36 -13/-18/-35 -15/-19/-34 
usemtl Laboratooriumi_22_katus
f -16/-22/-33 -15/-21/-32 -10/-13/-31 
f -10/-13/-30 -11/-14/-29 -16/-22/-28 
f -9/-12/-27 -14/-20/-26 -16/-22/-25 
f -16/-22/-24 -11/-14/-23 -9/-12/-22 
usemtl Laboratooriumi_22_puit
f -7/-10/-21 -6/-9/-20 -5/-8/-19 
f -8/-11/-18 -7/-10/-17 -5/-8/-16 
f -8/-11/-15 -5/-8/-14 -4/-7/-13 
usemtl Laboratooriumi_22_katus
f -8/-5/-12 -4/-4/-11 -2/-3/-10 
f -2/-3/-9 -3/-6/-8 -8/-5/-7 
f -1/-2/-6 -7/-1/-5 -8/-5/-4 
f -8/-5/-3 -3/-6/-2 -1/-2/-1 
# 400 faces

