# 3ds Max Wavefront OBJ Exporter v0.97b - (c)2007 guruware
# File Created: 13.08.2011 18:55:01

mtllib Toom-Kooli_5_1-origo.mtl

#
# object Toom_Kooli_5_1
#

v  541900.753632 6588916.20845 45.463593
v  541909.899963 6588927.23558 55.981781
v  541910.298309 6588927.271606 56.416409
v  541899.585266 6588926.300812 56.478851
v  541899.585266 6588926.300812 46.269775
v  541900.753662 6588916.208466 58.642296
v  541901.842285 6588921.383453 57.998013
v  541900.163818 6588921.114044 57.999226
v  541900.512085 6588918.188354 61.571880
v  541894.148682 6588920.272598 50.308018
v  541900.26413 6588920.271332 50.308018
v  541899.585266 6588926.300812 53.388004
v  541894.154999 6588925.809586 53.388004
v  541894.148682 6588920.272598 45.557175
v  541900.26413 6588920.271317 45.486671
v  541894.154999 6588925.80957 46.201004
v  541900.163818 6588921.114044 56.415436
v  541904.837524 6588926.775894 61.571877
v  541910.028229 6588927.245453 46.045860
v  541909.899963 6588927.23558 56.416409
v  541910.531616 6588919.526749 61.575027
v  541910.699097 6588917.66214 58.890785
v  541908.322144 6588917.436981 58.890785
v  541910.363831 6588921.394669 58.886024
v  541908.135742 6588921.186981 58.886024
v  541910.548584 6588917.780899 56.814003
v  541910.873657 6588917.833359 45.479233
v  541910.240601 6588921.213806 56.416157
v  541910.73291 6588921.256805 56.416412
v  541905.807922 6588917.021881 61.488251
v  541903.173645 6588916.596924 58.631310
v  541894.384674 6588924.908478 52.856232
v  541894.987396 6588925.463776 54.628246
v  541894.340576 6588925.401917 54.628246
v  541894.384674 6588924.908478 54.628246
v  541895.036346 6588924.952087 54.628246
v  541895.036346 6588924.952087 52.879627
v  541894.987396 6588925.463776 53.160824
v  541894.340576 6588925.401917 53.126831
v  541904.026184 6588920.45372 60.097870
v  541905.025543 6588921.236221 61.143982
v  541903.247498 6588925.613037 59.879620
v  541903.150726 6588926.310608 59.868111
v  541904.61795 6588925.808548 62.799610
v  541903.222809 6588925.612823 62.765797
v  541903.125824 6588926.310394 62.763321
v  541904.530304 6588926.506012 62.802055
v  541904.520508 6588926.50592 61.182526
v  541904.611786 6588925.808487 61.196564
v  541904.006897 6588920.453552 62.345085
v  541903.931488 6588921.113525 62.343197
v  541905.033966 6588921.236298 62.373245
v  541905.109344 6588920.576324 62.375141
v  541903.950928 6588921.113693 60.090797
v  541905.100769 6588920.576248 61.151051
v  541910.240601 6588921.213806 56.795635
v  541910.240601 6588921.213806 58.774139
v  541910.548615 6588917.780899 58.774139
v  541910.378662 6588921.229553 58.774139
v  541910.686188 6588917.802963 58.774139
v  541908.150574 6588921.021881 58.774143
v  541908.306244 6588917.606964 58.774143
v  541910.240601 6588921.213806 55.981785
v  541910.393555 6588919.511017 61.282681
v  541910.531616 6588919.526749 61.282681
v  541910.777161 6588917.819092 48.841118
v  541910.736053 6588917.81308 50.272575
v  541910.583771 6588917.78653 55.933182
v  541910.839355 6588918.215424 48.750751
v  541910.832001 6588918.297073 48.913681
v  541910.806122 6588918.585281 49.048965
v  541910.753235 6588919.174179 49.166348
v  541910.691467 6588919.861145 49.153351
v  541910.645416 6588920.374054 49.016449
v  541910.614563 6588920.717484 48.509384
v  541910.616119 6588920.70047 45.627121
v  541910.41806 6588920.291397 53.303471
v  541910.550781 6588918.813843 53.303471
v  541910.550781 6588918.813843 55.265858
v  541910.41806 6588920.291397 55.265858
v  541910.148163 6588923.296249 53.268555
v  541910.282227 6588921.803513 53.268555
v  541910.282257 6588921.803513 55.294865
v  541910.148163 6588923.296249 55.294865
v  541909.991486 6588926.2164 53.298218
v  541910.122864 6588924.754044 53.298218
v  541910.122864 6588924.754044 55.286800
v  541909.991486 6588926.2164 55.286800
v  541910.526703 6588920.258408 50.273300
v  541910.656067 6588918.818085 50.273300
v  541910.551178 6588918.810013 52.355541
v  541910.421783 6588920.250336 52.355541
v  541910.261627 6588923.209457 50.324287
v  541910.389679 6588921.783951 50.324287
v  541910.28476 6588921.775864 52.335461
v  541910.156708 6588923.20137 52.335464
v  541909.991577 6588926.2155 50.281757
v  541910.125793 6588924.721237 50.281757
v  541910.125793 6588924.721237 52.309612
v  541909.991577 6588926.2155 52.309612
v  541910.38269 6588923.298782 46.074032
v  541910.51236 6588921.855164 46.074032
v  541910.51236 6588921.855164 48.989113
v  541910.38269 6588923.298782 48.989113
v  541910.121918 6588926.202316 47.182793
v  541910.252197 6588924.751877 47.182793
v  541910.252197 6588924.751877 48.998627
v  541910.121918 6588926.202316 48.998627
v  541910.141327 6588925.985962 46.340580
v  541910.211609 6588925.203552 46.340580
v  541910.211609 6588925.203552 47.154045
v  541910.141327 6588925.985962 47.154045
v  541910.331757 6588920.199142 56.667912
v  541910.456146 6588918.814362 56.667912
v  541910.456146 6588918.814362 58.668262
v  541910.331757 6588920.199142 58.668262
v  541910.720795 6588919.534622 49.176327
v  541910.623535 6588920.617645 48.816631
v  541910.634155 6588920.499481 48.924389
v  541910.618958 6588920.668167 48.688972
v  541910.840942 6588918.197464 45.600822
v  541910.041718 6588925.97702 47.154045
v  541910.112 6588925.194611 47.154045
v  541910.112 6588925.194611 46.340580
v  541910.041718 6588925.97702 46.340580
v  541910.022308 6588926.193375 48.998631
v  541910.152618 6588924.74292 48.998631
v  541910.152618 6588924.74292 47.182793
v  541910.022308 6588926.193375 47.182793
v  541909.842194 6588923.25589 48.989117
v  541909.971863 6588921.812271 48.989117
v  541909.971863 6588921.812271 46.074036
v  541909.842194 6588923.25589 46.074036
v  541909.891968 6588926.206543 52.309612
v  541910.026184 6588924.712296 52.309608
v  541910.026184 6588924.712296 50.281757
v  541909.891968 6588926.206543 50.281757
v  541910.057098 6588923.192429 52.335461
v  541910.18515 6588921.766922 52.335461
v  541910.29007 6588921.774994 50.324287
v  541910.162018 6588923.2005 50.324287
v  541910.322174 6588920.241379 52.355541
v  541910.451569 6588918.801056 52.355541
v  541910.556488 6588918.809143 50.273300
v  541910.427094 6588920.249466 50.273300
v  541909.891907 6588926.207443 55.286800
v  541910.023254 6588924.745087 55.286804
v  541910.023254 6588924.745087 53.298218
v  541909.891907 6588926.207443 53.298218
v  541910.048553 6588923.287308 55.294865
v  541910.182648 6588921.794571 55.294865
v  541910.182648 6588921.794571 53.268555
v  541910.048553 6588923.287308 53.268555
v  541910.318481 6588920.282455 55.265858
v  541910.451202 6588918.804901 55.265858
v  541910.451202 6588918.804901 53.303471
v  541910.318481 6588920.282455 53.303471
v  541910.096161 6588920.62822 45.784752
v  541910.097076 6588920.618057 48.383923
v  541910.148895 6588920.041031 48.877407
v  541910.174133 6588919.76001 48.933315
v  541910.233063 6588919.104568 48.951340
v  541910.274445 6588918.643875 48.799034
v  541910.286224 6588918.512466 48.710735
v  541910.293274 6588918.434265 48.601871
v  541910.232147 6588920.190201 58.668262
v  541910.356537 6588918.80542 58.668262
v  541910.356537 6588918.80542 56.667912
v  541910.232147 6588920.190201 56.667912
v  541910.115875 6588920.408615 48.701359
v  541910.128601 6588920.267059 48.798904
v  541910.103668 6588920.544418 48.573795
v  541910.325562 6588918.357742 45.768047
v  541910.198639 6588919.487473 48.966370
v  541907.908722 6588921.107269 58.739342
v  541909.557709 6588922.31839 59.810856
v  541909.640717 6588921.240555 58.739338
v  541909.474152 6588923.361038 58.739338
v  541908.129456 6588923.257553 58.739342
v  541909.583221 6588921.64003 57.563087
v  541908.145782 6588921.529404 58.602898
v  541909.583221 6588921.64003 58.602894
v  541909.478973 6588922.994171 57.563087
v  541908.291718 6588922.902817 58.602898
v  541909.478973 6588922.994171 58.602894
v  541909.557678 6588922.318665 59.613590
v  541909.619751 6588921.513245 58.775139
v  541909.499695 6588923.072006 58.775139
v  541909.531036 6588922.317078 59.506474
v  541909.58017 6588921.679276 58.800255
v  541909.483856 6588922.929779 58.800255
v  541900.512085 6588918.188339 61.488251
v  541905.586365 6588919.07103 61.488247
v  541908.327515 6588921.037735 58.928101
v  541908.306213 6588917.606949 58.928093
v  541905.231293 6588919.313736 61.159779
v  541900.548462 6588917.890076 61.130547
v  541905.511566 6588916.97406 61.166859
v  541905.905762 6588918.907196 61.214390
v  541904.538788 6588926.748871 61.282192
v  541905.32251 6588918.720673 61.166630
v  541905.862122 6588919.334686 61.211979
v  541900.476562 6588918.486633 61.207626
v  541906.104523 6588917.069351 61.195816
v  541905.136292 6588926.803024 61.289810
v  541910.509583 6588919.765503 61.231232
v  541910.553772 6588919.280106 61.219967
v  541907.121185 6588922.128769 59.810860
v  541907.4104 6588922.45253 59.503525
v  541909.533752 6588922.617447 59.503513
v  541909.580719 6588922.019348 59.513569
v  541907.340027 6588921.844925 59.513123
# 212 vertices

vn -0.090100 0.995933 0.000327
vn -0.090071 0.995935 0.000356
vn -0.090071 0.995935 0.000356
vn -0.090255 0.995919 0.000000
vn -0.090256 0.995919 -0.000000
vn -0.090256 0.995919 -0.000000
vn -0.090089 0.995934 0.000001
vn -0.090089 0.995934 0.000001
vn -0.090089 0.995934 0.000001
vn -0.158481 0.987362 0.000000
vn -0.158481 0.987362 0.000000
vn -0.158481 0.987362 0.000000
vn -0.992820 -0.119620 0.000001
vn -0.992820 -0.119620 0.000001
vn -0.992820 -0.119619 0.000002
vn -0.992831 -0.119521 -0.001095
vn -0.992831 -0.119520 -0.001092
vn -0.992831 -0.119521 -0.001095
vn -0.992849 -0.119380 0.000000
vn -0.992849 -0.119380 0.000000
vn -0.992849 -0.119380 0.000000
vn -0.992857 -0.119309 0.000155
vn -0.992857 -0.119310 0.000155
vn -0.992857 -0.119310 0.000155
vn -0.000209 -1.000000 0.000003
vn -0.000209 -1.000000 0.000003
vn -0.000209 -1.000000 0.000003
vn -0.000207 -1.000000 0.000000
vn -0.000207 -1.000000 0.000000
vn -0.000207 -1.000000 0.000000
vn -0.090094 0.995933 -0.000000
vn -0.090094 0.995933 -0.000000
vn -0.090094 0.995933 -0.000000
vn -0.090095 0.995933 0.000001
vn -0.090095 0.995933 0.000001
vn -0.090095 0.995933 0.000001
vn -0.999999 0.001141 0.000000
vn -0.999999 0.001141 0.000000
vn -0.999999 0.001141 0.000000
vn -0.999999 0.001141 0.000000
vn -0.999999 0.001141 0.000000
vn -0.999999 0.001141 0.000000
vn -0.992819 -0.119623 0.000002
vn -0.992819 -0.119623 0.000002
vn -0.992819 -0.119623 0.000002
vn -0.993838 -0.110841 -0.001030
vn -0.993837 -0.110844 -0.001029
vn -0.993837 -0.110844 -0.001029
vn -0.993721 -0.111885 0.000003
vn -0.993721 -0.111885 0.000003
vn -0.993721 -0.111884 0.000000
vn -0.090212 0.995923 -0.000175
vn -0.090212 0.995923 -0.000175
vn -0.090212 0.995923 -0.000175
vn -0.090255 0.995919 0.000000
vn -0.090255 0.995919 0.000004
vn -0.090255 0.995919 0.000004
vn -0.090254 0.995919 0.000176
vn -0.090254 0.995919 0.000176
vn -0.090254 0.995919 0.000175
vn -0.090100 0.995933 0.000004
vn -0.090100 0.995933 0.000004
vn -0.090071 0.995935 0.000000
vn -0.000101 -0.486112 0.873897
vn -0.000101 -0.486112 0.873897
vn -0.000101 -0.486112 0.873897
vn 0.040788 -0.450883 0.891651
vn 0.040788 -0.450883 0.891651
vn 0.040788 -0.450883 0.891651
vn 0.158098 -0.987423 0.000004
vn 0.158098 -0.987423 0.000004
vn 0.158521 -0.987356 0.000001
vn 0.158534 -0.987354 -0.000013
vn 0.158534 -0.987354 -0.000013
vn 0.158533 -0.987354 0.000117
vn 0.159449 -0.987206 -0.000180
vn 0.159449 -0.987206 -0.000180
vn 0.158489 -0.987361 0.000001
vn 0.158492 -0.987360 0.000001
vn 0.158492 -0.987360 0.000001
vn 0.158489 -0.987361 0.000001
vn -0.095196 0.995459 0.000000
vn -0.095196 0.995459 0.000000
vn -0.095196 0.995459 0.000000
vn -0.095196 0.995459 0.000000
vn -0.095196 0.995459 0.000000
vn -0.095196 0.995459 0.000000
vn -0.996029 -0.089028 0.000000
vn -0.996029 -0.089028 0.000000
vn -0.996029 -0.089028 0.000000
vn -0.996029 -0.089028 0.000000
vn -0.996029 -0.089028 0.000000
vn -0.996029 -0.089028 0.000000
vn 0.066766 -0.997769 0.000000
vn 0.066766 -0.997769 0.000000
vn 0.066766 -0.997769 0.000000
vn 0.066766 -0.997769 0.000000
vn 0.066766 -0.997769 0.000000
vn 0.066766 -0.997769 0.000000
vn 0.995459 0.095195 0.000000
vn 0.995459 0.095195 0.000000
vn 0.995459 0.095195 0.000000
vn 0.995459 0.095195 0.000000
vn 0.995459 0.095195 0.000000
vn 0.995459 0.095195 0.000000
vn 0.992177 0.124691 -0.006017
vn 0.992177 0.124691 -0.006017
vn 0.992177 0.124691 -0.006017
vn 0.991547 0.129694 -0.003822
vn 0.991547 0.129694 -0.003822
vn 0.991547 0.129694 -0.003822
vn 0.138942 -0.990300 -0.000501
vn 0.138942 -0.990300 -0.000501
vn 0.138942 -0.990300 -0.000501
vn 0.140747 -0.990045 0.001129
vn 0.140747 -0.990045 0.001129
vn 0.140747 -0.990045 0.001129
vn -0.990429 -0.137765 -0.008480
vn -0.990429 -0.137765 -0.008480
vn -0.990429 -0.137765 -0.008480
vn -0.990460 -0.137532 -0.008537
vn -0.990460 -0.137532 -0.008537
vn -0.990460 -0.137532 -0.008537
vn -0.137916 0.990443 -0.001113
vn -0.137916 0.990443 -0.001113
vn -0.137916 0.990443 -0.001113
vn -0.141921 0.989878 0.000808
vn -0.141921 0.989878 0.000808
vn -0.141921 0.989878 0.000808
vn -0.993499 -0.113518 -0.008533
vn -0.993499 -0.113518 -0.008533
vn -0.993499 -0.113518 -0.008533
vn -0.993515 -0.113374 -0.008576
vn -0.993515 -0.113374 -0.008576
vn -0.993515 -0.113374 -0.008576
vn -0.110655 0.993858 -0.000879
vn -0.110655 0.993858 -0.000879
vn -0.110655 0.993858 -0.000879
vn -0.113987 0.993482 0.000723
vn -0.113987 0.993482 0.000723
vn -0.113987 0.993482 0.000723
vn 0.993517 0.113476 -0.006825
vn 0.993517 0.113476 -0.006825
vn 0.993517 0.113476 -0.006825
vn 0.993547 0.113211 -0.006969
vn 0.993547 0.113211 -0.006969
vn 0.993547 0.113211 -0.006969
vn 0.110699 -0.993854 -0.000714
vn 0.110699 -0.993854 -0.000714
vn 0.110699 -0.993854 -0.000714
vn 0.112427 -0.993660 0.000889
vn 0.112427 -0.993660 0.000889
vn 0.112427 -0.993660 0.000889
vn 0.087033 -0.996206 0.000010
vn 0.087011 -0.996207 0.000000
vn 0.087033 -0.996206 0.000010
vn -0.063408 0.555922 -0.828812
vn -0.063388 0.555923 -0.828814
vn -0.063388 0.555923 -0.828814
vn 0.100903 -0.629142 -0.770713
vn 0.100890 -0.629115 -0.770737
vn 0.100890 -0.629115 -0.770737
vn -0.091448 0.995810 0.000000
vn -0.091448 0.995810 0.000000
vn -0.091448 0.995810 0.000000
vn 0.077335 -0.997005 -0.000001
vn 0.077338 -0.997005 0.000006
vn 0.077338 -0.997005 0.000006
vn -0.051918 0.557004 -0.828885
vn -0.051922 0.557026 -0.828871
vn -0.051922 0.557026 -0.828871
vn -0.050515 0.550087 -0.833578
vn -0.050517 0.550096 -0.833572
vn -0.050517 0.550096 -0.833572
vn 0.043629 -0.562483 -0.825657
vn 0.043634 -0.562517 -0.825634
vn 0.043634 -0.562517 -0.825634
vn 0.062327 -0.658020 -0.750416
vn 0.062334 -0.658051 -0.750389
vn 0.062334 -0.658051 -0.750389
vn 0.659530 0.037308 -0.750752
vn 0.659504 0.037307 -0.750775
vn 0.659504 0.037307 -0.750775
vn 0.733976 0.053033 -0.677102
vn 0.733976 0.053033 -0.677102
vn 0.733966 0.053036 -0.677113
vn 0.995991 0.089458 -0.000006
vn 0.995990 0.089465 0.000000
vn 0.995990 0.089465 0.000000
vn 0.995990 0.089467 -0.000000
vn 0.995990 0.089467 -0.000000
vn 0.995990 0.089465 0.000000
vn 0.995990 0.089463 -0.000000
vn 0.995990 0.089461 0.000000
vn 0.995990 0.089461 0.000000
vn 0.995885 0.090617 -0.000907
vn 0.995885 0.090617 -0.000907
vn 0.995890 0.090569 -0.000871
vn -0.093133 0.816922 -0.569179
vn -0.093133 0.816922 -0.569179
vn -0.093133 0.816922 -0.569179
vn -0.130446 0.813358 -0.566951
vn -0.130446 0.813358 -0.566951
vn -0.130446 0.813358 -0.566951
vn 0.093617 -0.821093 -0.563065
vn 0.093617 -0.821093 -0.563065
vn 0.093617 -0.821093 -0.563065
vn 0.093608 -0.821093 -0.563066
vn 0.093608 -0.821093 -0.563066
vn 0.093608 -0.821093 -0.563066
vn 0.087033 -0.996205 0.000018
vn 0.087011 -0.996207 0.000000
vn 0.087033 -0.996205 0.000018
vn 0.159835 -0.987144 0.000400
vn 0.159358 -0.987221 0.000385
vn 0.159835 -0.987144 0.000400
vn 0.159941 -0.987126 0.000442
vn 0.159479 -0.987201 0.000434
vn 0.159941 -0.987126 0.000442
vn 0.158079 -0.987426 -0.000378
vn 0.157651 -0.987495 -0.000391
vn 0.158079 -0.987426 -0.000378
vn 0.997740 0.007636 0.066758
vn 0.998933 0.021947 -0.040641
vn 0.995657 0.084089 0.039950
vn 0.998511 0.053831 0.008790
vn 0.999078 0.042926 0.000773
vn 0.999094 0.042537 0.001319
vn 0.993898 0.090042 0.063707
vn 0.997021 0.062235 0.045552
vn 0.993850 0.080413 0.076134
vn 0.997021 0.062235 0.045552
vn 0.993898 0.090042 0.063707
vn 0.993820 0.089202 0.066071
vn 0.995994 0.089415 -0.000675
vn 0.995991 0.089448 0.000052
vn 0.995994 0.089424 -0.000036
vn 0.995994 0.089415 -0.000675
vn 0.995994 0.089424 -0.000036
vn 0.995990 0.089467 -0.000025
vn 0.995988 0.089488 -0.000650
vn 0.995994 0.089415 -0.000675
vn 0.995990 0.089467 -0.000025
vn 0.994367 0.104303 0.018819
vn 0.994545 0.103724 0.011037
vn 0.998664 0.051679 0.000167
vn 0.992932 0.078866 0.088687
vn 0.995826 0.064662 0.064422
vn 0.996940 0.003426 0.078101
vn 0.994545 0.103724 0.011037
vn 0.994367 0.104303 0.018819
vn 0.995831 0.089671 0.016713
vn 0.993850 0.080413 0.076134
vn 0.998511 0.053831 0.008790
vn 0.992654 0.090981 0.079753
vn 0.993898 0.090042 0.063707
vn 0.993850 0.080413 0.076134
vn 0.992654 0.090981 0.079753
vn 0.998511 0.053831 0.008790
vn 0.993850 0.080413 0.076134
vn 0.999078 0.042926 0.000773
vn 0.995990 0.089467 -0.000025
vn 0.993820 0.089202 0.066071
vn 0.995991 0.089455 0.000058
vn 0.993820 0.089202 0.066071
vn 0.995990 0.089467 -0.000025
vn 0.993776 0.088903 0.067123
vn 0.997021 0.062235 0.045552
vn 0.993820 0.089202 0.066071
vn 0.993776 0.088903 0.067123
vn 0.998933 0.021947 -0.040641
vn 0.999094 0.042537 0.001319
vn 0.997023 0.043576 0.063611
vn 0.996896 0.075602 0.021988
vn 0.997023 0.043576 0.063611
vn 0.995991 0.089459 -0.000013
vn 0.999094 0.042537 0.001319
vn 0.998933 0.021947 -0.040641
vn 0.999204 0.039804 0.002675
vn 0.998511 0.053831 0.008790
vn 0.999094 0.042537 0.001319
vn 0.999204 0.039804 0.002675
vn 0.995814 0.088032 0.024606
vn 0.999204 0.039804 0.002675
vn 0.995918 0.090260 0.000010
vn 0.995990 0.089460 -0.000003
vn 0.999078 0.042926 0.000773
vn 0.995991 0.089454 -0.000001
vn 0.993898 0.090042 0.063707
vn 0.992654 0.090981 0.079753
vn 0.991126 0.110124 0.074446
vn 0.997021 0.062235 0.045552
vn 0.993776 0.088903 0.067123
vn 0.966580 0.240647 0.088386
vn 0.997740 0.007636 0.066758
vn 0.995657 0.084089 0.039950
vn 0.995814 0.088032 0.024606
vn 0.995918 0.090260 0.000010
vn 0.997740 0.007636 0.066758
vn 0.995814 0.088032 0.024606
vn 0.991126 0.110124 0.074446
vn 0.995814 0.088032 0.024606
vn 0.992430 0.095708 0.076963
vn 0.993898 0.090042 0.063707
vn 0.991126 0.110124 0.074446
vn 0.992430 0.095708 0.076963
vn 0.993898 0.090042 0.063707
vn 0.992430 0.095708 0.076963
vn 0.995990 0.089465 -0.000000
vn 0.996896 0.075602 0.021988
vn 0.995991 0.089459 -0.000013
vn 0.995990 0.089460 -0.000003
vn 0.996896 0.075602 0.021988
vn 0.995991 0.089454 -0.000001
vn 0.997021 0.062235 0.045552
vn 0.995348 0.096016 0.007927
vn 0.997021 0.062235 0.045552
vn 0.966580 0.240647 0.088386
vn 0.995348 0.096016 0.007927
vn 0.966580 0.240647 0.088386
vn 0.995994 0.089424 -0.000036
vn 0.992932 0.078866 0.088687
vn 0.996940 0.003426 0.078101
vn 0.992531 0.046450 0.112805
vn 0.995348 0.096016 0.007927
vn 0.995994 0.089424 -0.000036
vn 0.995991 0.089448 0.000052
vn 0.995989 0.089471 0.000030
vn 0.993898 0.090042 0.063707
vn 0.995992 0.089438 0.000083
vn 0.995989 0.089471 0.000030
vn 0.995992 0.089438 0.000083
vn 0.995989 0.089478 0.000016
vn 0.992932 0.078866 0.088687
vn 0.992531 0.046450 0.112805
vn 0.990458 0.078659 0.113161
vn 0.993565 0.060352 0.095847
vn 0.992932 0.078866 0.088687
vn 0.990458 0.078659 0.113161
vn 0.993565 0.060352 0.095847
vn 0.990458 0.078659 0.113161
vn 0.989215 0.089268 0.116121
vn 0.993565 0.060352 0.095847
vn 0.988539 0.105437 0.108047
vn 0.992430 0.095708 0.076963
vn 0.994545 0.103724 0.011037
vn 0.995814 0.088032 0.024606
vn 0.995657 0.084089 0.039950
vn 0.988228 0.136489 0.069108
vn 0.994545 0.103724 0.011037
vn 0.995657 0.084089 0.039950
vn 0.997034 0.065485 0.040442
vn 0.995657 0.084089 0.039950
vn 0.993679 0.107606 0.031980
vn 0.995990 0.089467 0.000016
vn 0.995988 0.089488 -0.000650
vn 0.995990 0.089467 -0.000025
vn 0.995990 0.089467 0.000016
vn 0.995990 0.089467 -0.000025
vn 0.995991 0.089455 0.000058
vn 0.995991 0.089455 0.000058
vn 0.995989 0.089471 0.000030
vn 0.995989 0.089478 0.000016
vn 0.995991 0.089455 0.000058
vn 0.995989 0.089478 0.000016
vn 0.995348 0.096016 0.007927
vn 0.995990 0.089467 0.000016
vn 0.995991 0.089455 0.000058
vn 0.995348 0.096016 0.007927
vn 0.995990 0.089467 0.000016
vn 0.995348 0.096016 0.007927
vn 0.995991 0.089448 0.000052
vn 0.995990 0.089467 0.000006
vn 0.995989 0.089471 0.000009
vn 0.995994 0.089421 0.000009
vn 0.995996 0.089400 0.000607
vn 0.995990 0.089467 0.000006
vn 0.995994 0.089421 0.000009
vn 0.995996 0.089400 0.000607
vn 0.995994 0.089421 0.000009
vn 0.996011 0.089235 0.000064
vn 0.995961 0.089725 0.003359
vn 0.995996 0.089400 0.000607
vn 0.996011 0.089235 0.000064
vn 0.995961 0.089725 0.003359
vn 0.999011 0.029202 0.033527
vn 0.996834 0.072519 0.032612
vn 0.993679 0.107606 0.031980
vn 0.995961 0.089725 0.003359
vn 0.996834 0.072519 0.032612
vn 0.995990 0.089467 0.000006
vn 0.993679 0.107606 0.031980
vn 0.995657 0.084089 0.039950
vn 0.995989 0.089471 0.000009
vn 0.995990 0.089467 0.000006
vn 0.995657 0.084089 0.039950
vn 0.995999 0.089365 -0.000070
vn 0.996011 0.089235 0.000064
vn 0.995994 0.089421 0.000009
vn 0.993565 0.060352 0.095847
vn 0.989215 0.089268 0.116121
vn 0.988539 0.105437 0.108047
vn 0.993898 0.090042 0.063707
vn 0.995992 0.089447 -0.000036
vn 0.995992 0.089438 0.000083
vn 0.993898 0.090042 0.063707
vn 0.995990 0.089465 -0.000000
vn 0.995989 0.089478 -0.000084
vn 0.993898 0.090042 0.063707
vn 0.995989 0.089478 -0.000084
vn 0.995992 0.089447 -0.000036
vn 0.994545 0.103724 0.011037
vn 0.995831 0.089671 0.016713
vn 0.995814 0.088032 0.024606
vn 0.995831 0.089671 0.016713
vn 0.993565 0.060352 0.095847
vn 0.995814 0.088032 0.024606
vn 0.993565 0.060352 0.095847
vn 0.992430 0.095708 0.076963
vn 0.995814 0.088032 0.024606
vn 0.995814 0.088032 0.024606
vn 0.998511 0.053831 0.008790
vn 0.999204 0.039804 0.002675
vn 0.999078 0.042926 0.000773
vn 0.995990 0.089460 -0.000003
vn 0.999094 0.042537 0.001319
vn 0.997023 0.043576 0.063611
vn 0.996896 0.075602 0.021988
vn 0.995657 0.084089 0.039950
vn 0.998933 0.021947 -0.040641
vn 0.997023 0.043576 0.063611
vn 0.995657 0.084089 0.039950
vn 0.995826 0.064662 0.064422
vn 0.992482 -0.117747 0.033400
vn 0.996940 0.003426 0.078101
vn 0.994367 0.104303 0.018819
vn 0.996834 0.072519 0.032612
vn 0.995826 0.064662 0.064422
vn 0.992932 0.078866 0.088687
vn 0.994367 0.104303 0.018819
vn 0.995826 0.064662 0.064422
vn 0.996896 0.075602 0.021988
vn 0.995990 0.089460 -0.000003
vn 0.995991 0.089454 -0.000001
vn 0.995348 0.096016 0.007927
vn 0.996896 0.075602 0.021988
vn 0.997021 0.062235 0.045552
vn 0.992482 -0.117747 0.033400
vn 0.997781 0.066521 0.002699
vn 0.995988 0.089490 -0.000003
vn 0.992482 -0.117747 0.033400
vn 0.988482 -0.148770 0.027749
vn 0.997781 0.066521 0.002699
vn 0.992482 -0.117747 0.033400
vn 0.995826 0.064662 0.064422
vn 0.988482 -0.148770 0.027749
vn 0.998664 0.051679 0.000167
vn 0.997034 0.065485 0.040442
vn 0.996834 0.072519 0.032612
vn 0.994367 0.104303 0.018819
vn 0.998664 0.051679 0.000167
vn 0.996834 0.072519 0.032612
vn 0.988228 0.136489 0.069108
vn 0.995657 0.084089 0.039950
vn 0.997034 0.065485 0.040442
vn 0.997034 0.065485 0.040442
vn 0.993679 0.107606 0.031980
vn 0.996834 0.072519 0.032612
vn -0.000019 -0.000002 -1.000000
vn -0.000019 -0.000002 -1.000000
vn -0.000019 -0.000002 -1.000000
vn -0.000019 -0.000002 -1.000000
vn -0.000019 -0.000002 -1.000000
vn -0.000019 -0.000002 -1.000000
vn -0.089474 0.995989 0.000001
vn -0.089474 0.995989 0.000001
vn -0.089474 0.995989 0.000001
vn -0.089474 0.995989 0.000001
vn -0.089474 0.995989 0.000001
vn -0.089474 0.995989 0.000001
vn 0.000009 0.000001 1.000000
vn 0.000009 0.000001 1.000000
vn 0.000009 0.000001 1.000000
vn 0.000009 0.000001 1.000000
vn 0.000009 0.000001 1.000000
vn 0.000009 0.000001 1.000000
vn 0.089464 -0.995990 -0.000001
vn 0.089464 -0.995990 -0.000001
vn 0.089464 -0.995990 -0.000001
vn 0.089474 -0.995989 -0.000002
vn 0.089474 -0.995989 -0.000002
vn 0.089474 -0.995989 -0.000002
vn -0.000019 -0.000002 -1.000000
vn -0.000019 -0.000002 -1.000000
vn -0.000019 -0.000002 -1.000000
vn -0.000019 -0.000002 -1.000000
vn -0.000019 -0.000002 -1.000000
vn -0.000019 -0.000002 -1.000000
vn -0.089464 0.995990 -0.000001
vn -0.089464 0.995990 -0.000001
vn -0.089464 0.995990 -0.000001
vn -0.089464 0.995990 -0.000001
vn -0.089464 0.995990 -0.000001
vn -0.089464 0.995990 -0.000001
vn 0.000019 0.000002 1.000000
vn 0.000019 0.000002 1.000000
vn 0.000019 0.000002 1.000000
vn 0.000019 0.000002 1.000000
vn 0.000019 0.000002 1.000000
vn 0.000019 0.000002 1.000000
vn 0.089464 -0.995990 0.000001
vn 0.089464 -0.995990 0.000001
vn 0.089464 -0.995990 0.000001
vn 0.089474 -0.995989 0.000001
vn 0.089474 -0.995989 0.000001
vn 0.089474 -0.995989 0.000001
vn -0.000007 -0.000001 -1.000000
vn -0.000007 -0.000001 -1.000000
vn -0.000007 -0.000001 -1.000000
vn -0.000007 -0.000001 -1.000000
vn -0.000007 -0.000001 -1.000000
vn -0.000007 -0.000001 -1.000000
vn -0.079114 0.996866 0.000000
vn -0.079114 0.996866 0.000000
vn -0.079114 0.996866 0.000000
vn -0.079116 0.996865 -0.000000
vn -0.079116 0.996865 -0.000000
vn -0.079116 0.996865 -0.000000
vn 0.000007 0.000001 1.000000
vn 0.000007 0.000001 1.000000
vn 0.000007 0.000001 1.000000
vn 0.000007 0.000001 1.000000
vn 0.000007 0.000001 1.000000
vn 0.000007 0.000001 1.000000
vn 0.079114 -0.996866 0.000000
vn 0.079114 -0.996866 0.000000
vn 0.079114 -0.996866 0.000000
vn 0.079115 -0.996865 -0.000000
vn 0.079115 -0.996865 -0.000000
vn 0.079115 -0.996865 -0.000000
vn 0.000009 0.000001 -1.000000
vn 0.000009 0.000001 -1.000000
vn 0.000009 0.000001 -1.000000
vn 0.000009 0.000001 -1.000000
vn 0.000009 0.000001 -1.000000
vn 0.000009 0.000001 -1.000000
vn -0.089464 0.995990 -0.000000
vn -0.089464 0.995990 -0.000000
vn -0.089464 0.995990 -0.000000
vn -0.089455 0.995991 0.000000
vn -0.089455 0.995991 0.000000
vn -0.089455 0.995991 0.000000
vn 0.000000 0.000000 1.000000
vn 0.000000 0.000000 1.000000
vn 0.000000 0.000000 1.000000
vn 0.000000 0.000000 1.000000
vn 0.000000 0.000000 1.000000
vn 0.000000 0.000000 1.000000
vn 0.089474 -0.995989 0.000000
vn 0.089474 -0.995989 0.000000
vn 0.089474 -0.995989 0.000000
vn 0.089474 -0.995989 0.000000
vn 0.089474 -0.995989 0.000000
vn 0.089474 -0.995989 0.000000
vn 0.000009 0.000001 -1.000000
vn 0.000009 0.000001 -1.000000
vn 0.000009 0.000001 -1.000000
vn 0.000019 0.000002 -1.000000
vn 0.000019 0.000002 -1.000000
vn 0.000019 0.000002 -1.000000
vn -0.089464 0.995990 -0.000666
vn -0.089464 0.995990 -0.000666
vn -0.089464 0.995990 -0.000666
vn -0.089455 0.995991 -0.000666
vn -0.089455 0.995991 -0.000666
vn -0.089455 0.995991 -0.000666
vn 0.000009 0.000001 1.000000
vn 0.000009 0.000001 1.000000
vn 0.000009 0.000001 1.000000
vn 0.000009 0.000001 1.000000
vn 0.000009 0.000001 1.000000
vn 0.000009 0.000001 1.000000
vn 0.089455 -0.995991 0.000666
vn 0.089455 -0.995991 0.000666
vn 0.089455 -0.995991 0.000666
vn 0.089464 -0.995990 0.000666
vn 0.089464 -0.995990 0.000666
vn 0.089464 -0.995990 0.000666
vn 0.000000 0.000000 -1.000000
vn 0.000000 0.000000 -1.000000
vn 0.000000 0.000000 -1.000000
vn 0.000000 0.000000 -1.000000
vn 0.000000 0.000000 -1.000000
vn 0.000000 0.000000 -1.000000
vn -0.089464 0.995990 -0.000644
vn -0.089464 0.995990 -0.000644
vn -0.089464 0.995990 -0.000644
vn -0.089467 0.995990 -0.000644
vn -0.089467 0.995990 -0.000644
vn -0.089467 0.995990 -0.000644
vn 0.000000 0.000000 1.000000
vn 0.000000 0.000000 1.000000
vn 0.000000 0.000000 1.000000
vn 0.000000 0.000000 1.000000
vn 0.000000 0.000000 1.000000
vn 0.000000 0.000000 1.000000
vn 0.089464 -0.995990 0.000643
vn 0.089464 -0.995990 0.000643
vn 0.089464 -0.995990 0.000643
vn 0.089462 -0.995990 0.000643
vn 0.089462 -0.995990 0.000643
vn 0.089462 -0.995990 0.000643
vn -0.000002 -0.000001 -1.000000
vn -0.000002 -0.000001 -1.000000
vn -0.000002 -0.000001 -1.000000
vn -0.000002 -0.000001 -1.000000
vn -0.000002 -0.000001 -1.000000
vn -0.000002 -0.000001 -1.000000
vn -0.089493 0.995987 -0.000000
vn -0.089493 0.995987 -0.000000
vn -0.089493 0.995987 -0.000000
vn -0.089483 0.995988 -0.000000
vn -0.089483 0.995988 -0.000000
vn -0.089483 0.995988 -0.000000
vn 0.000000 0.000000 1.000000
vn 0.000000 0.000000 1.000000
vn 0.000000 0.000000 1.000000
vn 0.000000 0.000000 1.000000
vn 0.000000 0.000000 1.000000
vn 0.000000 0.000000 1.000000
vn 0.089464 -0.995990 0.000001
vn 0.089464 -0.995990 0.000001
vn 0.089464 -0.995990 0.000001
vn 0.089483 -0.995988 0.000000
vn 0.089483 -0.995988 0.000000
vn 0.089483 -0.995988 0.000000
vn -0.000002 -0.000000 -1.000000
vn -0.000002 -0.000000 -1.000000
vn -0.000002 -0.000000 -1.000000
vn -0.000007 -0.000001 -1.000000
vn -0.000007 -0.000001 -1.000000
vn -0.000007 -0.000001 -1.000000
vn -0.089460 0.995990 0.000000
vn -0.089460 0.995990 0.000000
vn -0.089460 0.995990 0.000000
vn -0.089465 0.995990 0.000000
vn -0.089465 0.995990 0.000000
vn -0.089465 0.995990 0.000000
vn 0.000000 0.000000 1.000000
vn 0.000000 0.000000 1.000000
vn 0.000000 0.000000 1.000000
vn 0.000010 0.000000 1.000000
vn 0.000010 0.000000 1.000000
vn 0.000010 0.000000 1.000000
vn 0.089464 -0.995990 -0.000000
vn 0.089464 -0.995990 -0.000000
vn 0.089464 -0.995990 -0.000000
vn 0.089469 -0.995990 -0.000000
vn 0.089469 -0.995990 -0.000000
vn 0.089469 -0.995990 -0.000000
vn 0.000009 0.000001 -1.000000
vn 0.000009 0.000001 -1.000000
vn 0.000009 0.000001 -1.000000
vn 0.000005 0.000000 -1.000000
vn 0.000005 0.000000 -1.000000
vn 0.000005 0.000000 -1.000000
vn -0.089462 0.995990 -0.000000
vn -0.089462 0.995990 -0.000000
vn -0.089462 0.995990 -0.000000
vn -0.089460 0.995990 -0.000000
vn -0.089460 0.995990 -0.000000
vn -0.089460 0.995990 -0.000000
vn 0.000000 -0.000001 1.000000
vn 0.000000 -0.000001 1.000000
vn 0.000000 -0.000001 1.000000
vn -0.000009 -0.000001 1.000000
vn -0.000009 -0.000001 1.000000
vn -0.000009 -0.000001 1.000000
vn 0.089457 -0.995991 0.000000
vn 0.089457 -0.995991 0.000000
vn 0.089457 -0.995991 0.000000
vn 0.089467 -0.995990 -0.000000
vn 0.089467 -0.995990 -0.000000
vn 0.089467 -0.995990 -0.000000
vn 0.287265 0.021979 0.957599
vn 0.287265 0.021979 0.957599
vn 0.287265 0.021979 0.957599
vn 0.189588 -0.981856 -0.003906
vn 0.189588 -0.981856 -0.003906
vn 0.189588 -0.981856 -0.003906
vn 0.139375 -0.990222 0.005922
vn 0.139375 -0.990222 0.005922
vn 0.139375 -0.990222 0.005922
vn 0.382495 -0.500733 -0.776508
vn 0.382495 -0.500733 -0.776508
vn 0.382495 -0.500733 -0.776508
vn 0.243039 -0.933846 -0.262419
vn 0.243039 -0.933846 -0.262419
vn 0.243039 -0.933846 -0.262419
vn 0.410829 -0.142266 -0.900544
vn 0.410829 -0.142266 -0.900544
vn 0.410829 -0.142266 -0.900544
vn 0.388910 -0.204816 -0.898220
vn 0.388910 -0.204816 -0.898220
vn 0.388910 -0.204816 -0.898220
vn 0.431817 0.317851 -0.844100
vn 0.431817 0.317851 -0.844100
vn 0.431817 0.317851 -0.844100
vn 0.348700 0.213236 -0.912655
vn 0.348700 0.213236 -0.912655
vn 0.348700 0.213236 -0.912655
vn 0.470446 0.520904 -0.712278
vn 0.470446 0.520904 -0.712278
vn 0.470446 0.520904 -0.712278
vn 0.424027 0.415760 -0.804577
vn 0.424027 0.415760 -0.804577
vn 0.424027 0.415760 -0.804577
vn 0.436154 0.743939 -0.506285
vn 0.436154 0.743939 -0.506285
vn 0.436154 0.743939 -0.506285
vn 0.458616 0.802573 -0.381508
vn 0.458616 0.802573 -0.381508
vn 0.458616 0.802573 -0.381508
vn 0.373174 0.927747 -0.005101
vn 0.373174 0.927747 -0.005101
vn 0.373174 0.927747 -0.005101
vn 0.995990 0.089464 -0.000001
vn 0.995990 0.089464 -0.000001
vn 0.995990 0.089464 -0.000001
vn 0.995990 0.089463 -0.000000
vn 0.995990 0.089463 -0.000000
vn 0.995990 0.089463 -0.000000
vn 0.995990 0.089466 -0.000001
vn 0.995990 0.089466 -0.000001
vn 0.995990 0.089466 -0.000001
vn 0.995990 0.089465 -0.000001
vn 0.995990 0.089465 -0.000001
vn 0.995990 0.089465 -0.000001
vn 0.995990 0.089464 0.000000
vn 0.995990 0.089464 0.000000
vn 0.995990 0.089464 0.000000
vn 0.995990 0.089464 -0.000000
vn 0.995990 0.089464 -0.000000
vn 0.995990 0.089464 -0.000000
vn 0.995990 0.089465 -0.000001
vn 0.995990 0.089465 -0.000001
vn 0.995990 0.089465 -0.000001
vn 0.995990 0.089463 -0.000000
vn 0.995990 0.089463 -0.000000
vn 0.995990 0.089463 -0.000000
vn 0.994630 0.089343 0.052243
vn 0.994630 0.089343 0.052243
vn 0.994630 0.089343 0.052243
vn 0.994630 0.089342 0.052244
vn 0.994630 0.089342 0.052244
vn 0.994630 0.089342 0.052244
vn 0.994721 0.089352 0.050464
vn 0.994721 0.089352 0.050464
vn 0.994721 0.089352 0.050464
vn 0.994721 0.089351 0.050465
vn 0.994721 0.089351 0.050465
vn 0.994721 0.089351 0.050465
vn 0.995990 0.089464 -0.000001
vn 0.995990 0.089464 -0.000001
vn 0.995990 0.089464 -0.000001
vn 0.995990 0.089464 -0.000001
vn 0.995990 0.089464 -0.000001
vn 0.995990 0.089464 -0.000001
vn 0.995990 0.089464 -0.000001
vn 0.995990 0.089464 -0.000001
vn 0.995990 0.089464 -0.000001
vn 0.995990 0.089464 -0.000001
vn 0.995990 0.089464 -0.000001
vn 0.995990 0.089464 -0.000001
vn 0.995990 0.089462 0.000000
vn 0.995990 0.089462 0.000000
vn 0.995990 0.089462 0.000000
vn 0.995990 0.089464 -0.000001
vn 0.995990 0.089464 -0.000001
vn 0.995990 0.089464 -0.000001
vn 0.994904 0.100459 0.008632
vn 0.994904 0.100459 0.008632
vn 0.994904 0.100459 0.008632
vn 0.995989 0.089479 0.000004
vn 0.995989 0.089479 0.000004
vn 0.995989 0.089479 0.000004
vn 0.995989 0.089481 0.000037
vn 0.995989 0.089481 0.000037
vn 0.995989 0.089481 0.000037
vn 0.995989 0.089477 0.000062
vn 0.995989 0.089477 0.000062
vn 0.995989 0.089477 0.000062
vn 0.995988 0.089485 -0.000031
vn 0.995988 0.089485 -0.000031
vn 0.995988 0.089485 -0.000031
vn 0.995991 0.089452 0.000004
vn 0.995991 0.089452 0.000004
vn 0.995991 0.089452 0.000004
vn -0.000002 -0.000000 -1.000000
vn -0.000002 -0.000000 -1.000000
vn -0.000002 -0.000000 -1.000000
vn -0.000000 0.000000 -1.000000
vn -0.000000 0.000000 -1.000000
vn -0.000000 0.000000 -1.000000
vn -0.089467 0.995990 0.000000
vn -0.089467 0.995990 0.000000
vn -0.089467 0.995990 0.000000
vn -0.089472 0.995989 0.000000
vn -0.089472 0.995989 0.000000
vn -0.089472 0.995989 0.000000
vn 0.000002 0.000000 1.000000
vn 0.000002 0.000000 1.000000
vn 0.000002 0.000000 1.000000
vn -0.000000 0.000000 1.000000
vn -0.000000 0.000000 1.000000
vn -0.000000 0.000000 1.000000
vn 0.089462 -0.995990 0.000000
vn 0.089462 -0.995990 0.000000
vn 0.089462 -0.995990 0.000000
vn 0.089466 -0.995990 -0.000000
vn 0.089466 -0.995990 -0.000000
vn 0.089466 -0.995990 -0.000000
vn 0.995990 0.089464 -0.000000
vn 0.995990 0.089464 -0.000000
vn 0.995990 0.089464 -0.000000
vn 0.995990 0.089465 -0.000001
vn 0.995990 0.089465 -0.000001
vn 0.995990 0.089465 -0.000001
vn -0.995990 -0.089468 -0.000064
vn -0.995990 -0.089468 -0.000064
vn -0.995990 -0.089468 -0.000064
vn 0.396025 -0.029036 -0.917780
vn 0.396025 -0.029036 -0.917780
vn 0.396025 -0.029036 -0.917780
vn 0.374530 0.059326 -0.925315
vn 0.374530 0.059326 -0.925315
vn 0.374530 0.059326 -0.925315
vn 0.517986 -0.475376 -0.711132
vn 0.517986 -0.475376 -0.711132
vn 0.517986 -0.475376 -0.711132
vn 0.995988 0.089481 0.000029
vn 0.995988 0.089481 0.000029
vn 0.995988 0.089481 0.000029
vn 0.292548 -0.888058 -0.354640
vn 0.292548 -0.888058 -0.354640
vn 0.292548 -0.888058 -0.354640
vn 0.438100 -0.583942 -0.683433
vn 0.438100 -0.583942 -0.683433
vn 0.438100 -0.583942 -0.683433
vn 0.350237 -0.279072 -0.894121
vn 0.350237 -0.279072 -0.894121
vn 0.350237 -0.279072 -0.894121
vn 0.995989 0.089480 0.000043
vn 0.995989 0.089480 0.000043
vn 0.995989 0.089480 0.000043
vn 0.423343 -0.837110 -0.346449
vn 0.423343 -0.837110 -0.346449
vn 0.423343 -0.837110 -0.346449
vn 0.310636 -0.635832 -0.706557
vn 0.310636 -0.635832 -0.706557
vn 0.310636 -0.635832 -0.706557
vn 0.995988 0.089481 0.000031
vn 0.995988 0.089481 0.000031
vn 0.995988 0.089481 0.000031
vn 0.290222 0.956694 -0.022524
vn 0.290222 0.956694 -0.022524
vn 0.290222 0.956694 -0.022524
vn 0.313698 0.018204 0.949348
vn 0.313698 0.018204 0.949348
vn 0.313698 0.018204 0.949348
vn 0.377983 -0.077914 -0.922528
vn 0.377983 -0.077914 -0.922528
vn 0.377983 -0.077914 -0.922528
vn 0.366769 0.069387 -0.927721
vn 0.366769 0.069387 -0.927721
vn 0.366769 0.069387 -0.927721
vn 0.995985 0.089515 -0.000090
vn 0.995985 0.089515 -0.000090
vn 0.995985 0.089515 -0.000090
vn 0.995986 0.089513 -0.000083
vn 0.995986 0.089513 -0.000083
vn 0.995986 0.089513 -0.000083
vn 0.995961 0.089725 0.003359
vn 0.996011 0.089235 0.000064
vn 0.999011 0.029202 0.033527
vn 0.076725 -0.997052 -0.000000
vn 0.076725 -0.997052 -0.000000
vn 0.076725 -0.997052 -0.000000
vn -0.076715 0.997053 0.000001
vn -0.076715 0.997053 0.000001
vn -0.076715 0.997053 0.000001
vn 0.024619 -0.319959 -0.947111
vn 0.024619 -0.319959 -0.947111
vn 0.024621 -0.319951 -0.947114
vn 0.024620 -0.319956 -0.947113
vn 0.024620 -0.319956 -0.947113
vn 0.024621 -0.319953 -0.947113
vn 0.982723 0.075670 -0.168908
vn 0.982723 0.075670 -0.168908
vn 0.982760 0.075657 -0.168696
vn 0.979260 0.076921 -0.187436
vn 0.979260 0.076921 -0.187436
vn 0.979240 0.076926 -0.187540
vn -0.026790 0.348150 -0.937056
vn -0.026790 0.348150 -0.937056
vn -0.026793 0.348167 -0.937050
vn -0.026796 0.348154 -0.937054
vn -0.026796 0.348154 -0.937054
vn -0.026791 0.348147 -0.937057
vn 0.997047 0.076788 0.000024
vn 0.997047 0.076788 0.000024
vn 0.997047 0.076788 0.000024
vn 0.997059 0.076639 0.000149
vn 0.997059 0.076639 0.000149
vn 0.997047 0.076791 0.000027
vn 0.997049 0.076770 0.000044
vn 0.997049 0.076770 0.000044
vn 0.997040 0.076890 -0.000047
vn 0.993827 0.078066 -0.078827
vn 0.993827 0.078066 -0.078827
vn 0.993870 0.078075 -0.078268
vn 0.997047 0.076789 0.000043
vn 0.997047 0.076789 0.000043
vn 0.997047 0.076793 -0.001032
vn 0.996808 0.079839 -0.000043
vn 0.996808 0.079839 -0.000043
vn 0.996802 0.079912 0.000048
vn 0.995934 0.089364 0.011400
vn 0.995934 0.089364 0.011400
vn 0.995926 0.089438 0.011485
vn 0.951972 0.252949 -0.172531
vn 0.951972 0.252949 -0.172531
vn 0.951972 0.252949 -0.172531
vn 0.915558 0.328095 -0.232612
vn 0.915558 0.328095 -0.232612
vn 0.915558 0.328095 -0.232612
vn 0.683206 0.052618 0.728327
vn 0.683206 0.052618 0.728327
vn 0.683206 0.052618 0.728327
vn 0.683175 0.052615 0.728357
vn 0.683175 0.052615 0.728357
vn 0.683175 0.052615 0.728357
vn 0.953827 -0.187614 -0.234552
vn 0.953827 -0.187614 -0.234552
vn 0.953827 -0.187614 -0.234552
vn 0.972069 -0.141226 -0.187449
vn 0.972069 -0.141226 -0.187449
vn 0.972069 -0.141226 -0.187449
vn 0.997049 0.076773 -0.000000
vn 0.997049 0.076773 -0.000000
vn 0.997049 0.076773 -0.000000
vn 0.997049 0.076773 0.000001
vn 0.997049 0.076773 0.000001
vn 0.997049 0.076773 0.000001
vn 0.000000 0.000000 1.000000
vn 0.000000 0.000000 1.000000
vn 0.000000 0.000000 1.000000
vn 0.000000 0.000000 1.000000
vn 0.000000 0.000000 1.000000
vn 0.000000 0.000000 1.000000
vn -0.024255 0.000172 0.999706
vn -0.024255 0.000172 0.999706
vn -0.024255 0.000172 0.999706
vn -0.026613 -0.006847 0.999622
vn -0.026613 -0.006847 0.999622
vn -0.026613 -0.006847 0.999622
vn -0.027220 -0.000245 0.999629
vn -0.027220 -0.000245 0.999629
vn -0.027220 -0.000245 0.999629
vn -0.027224 -0.000240 0.999629
vn -0.027224 -0.000240 0.999629
vn -0.027224 -0.000240 0.999629
vn 0.685441 0.071092 0.724649
vn 0.691546 0.068564 0.719071
vn 0.700153 0.074215 0.710125
vn 0.682871 0.061598 0.727937
vn 0.718981 0.051951 0.693085
vn 0.693696 0.069541 0.716903
vn 0.137605 -0.815350 0.562378
vn 0.137605 -0.815350 0.562378
vn 0.137605 -0.815350 0.562378
vn 0.132980 -0.812367 0.567782
vn 0.132980 -0.812367 0.567782
vn 0.132980 -0.812367 0.567782
vn -0.126549 0.727492 0.674345
vn -0.126549 0.727492 0.674345
vn -0.126549 0.727492 0.674345
vn -0.121858 0.762058 0.635939
vn -0.121858 0.762058 0.635939
vn -0.121858 0.762058 0.635939
vn -0.676367 -0.084391 0.731715
vn -0.676367 -0.084391 0.731715
vn -0.676367 -0.084391 0.731715
vn -0.690565 -0.076161 0.719249
vn -0.690565 -0.076161 0.719249
vn -0.690565 -0.076161 0.719249
vn 0.670922 0.057305 0.739311
vn 0.682871 0.061598 0.727937
vn 0.677787 0.064776 0.732399
vn -0.704649 -0.076142 0.705459
vn -0.704649 -0.076142 0.705459
vn -0.704649 -0.076142 0.705459
vn 0.131297 -0.754778 0.642707
vn 0.131297 -0.754778 0.642707
vn 0.131297 -0.754778 0.642707
vn -0.727030 -0.078606 0.682092
vn -0.727030 -0.078606 0.682092
vn -0.727030 -0.078606 0.682092
vn -0.727033 -0.078606 0.682088
vn -0.727033 -0.078606 0.682088
vn -0.727033 -0.078606 0.682088
vn 0.674271 0.065450 0.735578
vn 0.691546 0.068564 0.719071
vn 0.685441 0.071092 0.724649
vn -0.688666 -0.093975 0.718963
vn -0.688666 -0.093975 0.718963
vn -0.688666 -0.093975 0.718963
vn -0.727048 -0.078608 0.682072
vn -0.727048 -0.078608 0.682072
vn -0.727048 -0.078608 0.682072
vn -0.704950 -0.077267 0.705036
vn -0.704950 -0.077267 0.705036
vn -0.704950 -0.077267 0.705036
vn -0.126261 0.762540 0.634501
vn -0.126261 0.762540 0.634501
vn -0.126261 0.762540 0.634501
vn -0.109908 0.674080 0.730436
vn -0.109908 0.674080 0.730436
vn -0.109908 0.674080 0.730436
vn 0.119893 -0.718860 0.684738
vn 0.119893 -0.718860 0.684738
vn 0.119893 -0.718860 0.684738
vn 0.640898 0.319494 0.697977
vn 0.685441 0.071092 0.724649
vn 0.700153 0.074215 0.710125
vn 0.624372 0.362228 0.692063
vn 0.640898 0.319494 0.697977
vn 0.700153 0.074215 0.710125
vn 0.682337 0.058710 0.728676
vn 0.674271 0.065450 0.735578
vn 0.670922 0.057305 0.739311
vn 0.670922 0.057305 0.739311
vn 0.677787 0.064776 0.732399
vn 0.682337 0.058710 0.728676
vn 0.682871 0.061598 0.727937
vn 0.693696 0.069541 0.716903
vn 0.677787 0.064776 0.732399
vn -0.075955 0.814853 0.574670
vn -0.075955 0.814853 0.574670
vn -0.075955 0.814853 0.574670
vn -0.078058 0.816494 0.572052
vn -0.078058 0.816494 0.572052
vn -0.078058 0.816494 0.572052
vn 0.065308 -0.817623 0.572038
vn 0.065308 -0.817623 0.572038
vn 0.065308 -0.817623 0.572038
vn 0.064914 -0.817656 0.572035
vn 0.064914 -0.817656 0.572035
vn 0.064914 -0.817656 0.572035
vn 0.076241 -0.804861 0.588545
vn 0.076241 -0.804861 0.588545
vn 0.076241 -0.804861 0.588545
vn -0.072847 0.756816 0.649556
vn -0.072847 0.756816 0.649556
vn -0.072847 0.756816 0.649556
vn -0.085217 0.815807 0.572011
vn -0.085217 0.815807 0.572011
vn -0.085217 0.815807 0.572011
vn -0.089640 0.815355 0.571980
vn -0.089640 0.815355 0.571980
vn -0.089640 0.815355 0.571980
vn 0.065188 -0.821003 0.567190
vn 0.065188 -0.821003 0.567190
vn 0.065188 -0.821003 0.567190
vn 0.054622 -0.701853 0.710224
vn 0.054622 -0.701853 0.710224
vn 0.054622 -0.701853 0.710224
vn -0.055491 0.713037 0.698927
vn -0.055491 0.713037 0.698927
vn -0.055491 0.713037 0.698927
vn -0.054851 0.712770 0.699250
vn -0.054851 0.712770 0.699250
vn -0.054851 0.712770 0.699250
vn -0.055407 0.713429 0.698533
vn -0.055407 0.713429 0.698533
vn -0.055407 0.713429 0.698533
vn -0.055408 0.713438 0.698524
vn -0.055408 0.713438 0.698524
vn -0.055408 0.713438 0.698524
vn 0.054016 -0.701901 0.710223
vn 0.054016 -0.701901 0.710223
vn 0.054016 -0.701901 0.710223
vn 0.054536 -0.702401 0.709689
vn 0.054536 -0.702401 0.709689
vn 0.054536 -0.702401 0.709689
vn 0.054535 -0.702391 0.709700
vn 0.054535 -0.702391 0.709700
vn 0.054535 -0.702391 0.709700
# 1098 vertex normals

vt 1.000000 1.000000 0.000000
vt 1.000000 1.000000 0.000000
vt 1.000000 1.000000 0.000000
vt 1.000000 1.000000 0.000000
vt 1.000000 1.000000 0.000000
vt 1.000000 1.000000 0.000000
vt 0.000000 1.000000 0.000000
vt 0.000000 1.000000 0.000000
vt 1.000000 0.767549 0.000000
vt 1.000000 0.773578 0.000000
vt 1.000000 0.767549 0.000000
vt 1.000000 0.620183 0.000000
vt 1.000000 0.526517 0.000000
vt 1.000000 0.470269 0.000000
vt 1.000000 0.612078 0.000000
vt 1.000000 0.744168 0.000000
vt 1.000000 0.526517 0.000000
vt 1.000000 0.744168 0.000000
vt 1.000000 0.728700 0.000000
vt 1.000000 0.620183 0.000000
vt 1.000000 0.526517 0.000000
vt 1.000000 0.728700 0.000000
vt 0.497771 0.012557 -1.539824
vt 0.495280 0.489525 -1.545228
vt 0.495280 0.489525 0.000500
vt 0.495280 0.489525 0.000500
vt 0.497771 0.012557 0.000500
vt 0.497771 0.012557 -1.539824
vt 0.024720 0.010475 -1.492834
vt 0.024720 0.010475 0.999501
vt 0.022229 0.487443 0.999501
vt 0.022229 0.487443 0.999501
vt 0.022229 0.487443 -1.518115
vt 0.024720 0.010475 -1.492834
vt 0.024720 0.010475 -1.492834
vt 0.497771 0.012557 -1.539824
vt 0.497771 0.012557 0.000500
vt 0.497771 0.012557 0.000500
vt 0.024720 0.010475 0.999501
vt 0.024720 0.010475 -1.492834
vt 1.000000 0.620183 0.000000
vt 1.000000 0.728700 0.000000
vt 1.000000 1.000000 0.000000
vt 1.000000 0.620183 0.000000
vt 1.000000 1.000000 0.000000
vt 0.715308 1.000000 0.000000
vt 0.226142 1.000000 0.000000
vt 1.000000 0.877662 0.000000
vt 1.000000 0.489032 0.000000
vt 1.000000 0.600455 0.000000
vt 1.000000 1.000000 0.000000
vt 1.000000 1.000000 0.000000
vt 1.821180 0.436122 0.730042
vt 1.818447 -0.499936 0.270772
vt -0.916424 0.443876 0.729503
vt 0.493803 -0.496071 0.270773
vt 0.992391 0.651122 0.567198
vt 0.992391 0.677888 0.567198
vt 0.992391 0.677888 0.999500
vt 2.940298 -0.903327 0.000499
vt -1.940298 1.856335 0.999501
vt 2.859720 1.903327 0.999499
vt -0.066548 0.446388 0.487201
vt -1.776148 0.460621 0.487200
vt -1.785506 -0.663993 0.077543
vt -0.077575 -0.878194 0.000500
vt 2.955020 0.445384 0.429799
vt 1.857113 1.820505 0.999500
vt 2.887658 1.818001 0.999501
vt -0.891778 -0.882698 0.000500
vt 2.154340 -0.894912 0.000499
vt 1.859164 1.872139 0.999500
vt -0.881512 1.920702 0.999500
vt -0.742087 -0.637583 0.180595
vt 0.483028 -0.607228 0.177524
vt -0.729144 0.359624 0.999501
vt 1.884375 0.456984 0.999501
vt 0.855981 -0.853660 0.000500
vt 1.710068 -0.832304 0.000839
vt 1.729144 0.640383 0.999501
vt -0.884376 0.543024 0.999501
vt 1.000000 0.466138 0.000000
vt 1.000000 0.466138 0.000000
vt 1.000000 0.466138 0.000000
vt 0.239806 0.454074 0.487413
vt 0.405259 0.465887 0.823912
vt 0.405259 0.465887 0.823912
vt 0.405259 0.465887 0.823912
vt 0.239806 0.454074 0.487413
vt 0.239806 0.454074 0.487413
vt 1.000000 0.425064 0.000000
vt 1.000000 0.402883 0.000000
vt 1.000000 0.402883 0.000000
vt 0.000500 0.999501 0.007131
vt 0.000500 0.999501 0.039835
vt 0.000500 0.999501 0.997483
vt 0.996265 0.999501 0.999501
vt 0.996265 0.172218 0.999501
vt 0.000500 0.153054 0.007131
vt 0.000500 0.000500 0.039835
vt 0.000500 0.013690 0.997483
vt 0.992869 0.999501 0.999500
vt 0.000499 0.999501 0.996265
vt 0.000499 0.172218 0.996265
vt 0.000499 0.172218 0.996265
vt 0.992869 0.153054 0.999500
vt 0.992869 0.999501 0.999500
vt 0.960165 0.999501 0.000500
vt 0.000500 0.153054 0.007131
vt 0.960165 0.000500 0.000500
vt 0.960165 0.999501 0.000500
vt 0.000500 0.000500 0.039835
vt 0.997483 0.013690 0.000500
vt 0.997483 0.999501 0.000500
vt 0.997483 0.999501 0.000500
vt 0.996265 0.999501 0.999501
vt 0.000500 0.013690 0.997483
vt 0.999501 0.986312 0.923338
vt 0.996631 0.987154 0.020226
vt 0.999501 0.998668 0.079724
vt 0.013745 0.999501 0.998355
vt 0.020544 0.448055 0.999499
vt 0.995224 0.452835 0.080441
vt 0.999501 0.004419 0.037328
vt 0.982228 0.000500 0.920437
vt 0.999499 0.448055 0.979456
vt 0.998355 0.999501 0.986255
vt 0.079724 0.998668 0.999501
vt 0.079724 0.998668 0.999501
vt 0.080441 0.452835 0.995224
vt 0.999499 0.448055 0.979456
vt 0.995224 0.452835 0.080441
vt 0.020226 0.987154 0.003369
vt 0.020226 0.987154 0.003369
vt 0.037328 0.004419 0.000499
vt 0.999501 0.004419 0.037328
vt 0.076662 0.986312 0.000499
vt 0.076662 0.986312 0.000499
vt 0.079563 0.000500 0.017772
vt 0.982228 0.000500 0.920437
vt 0.013745 0.999501 0.998355
vt 0.998398 0.998672 0.990118
vt 0.999500 0.985530 0.977253
vt 0.009883 0.986357 0.003016
vt 0.999501 0.999500 0.024162
vt 0.027019 0.003591 0.000500
vt 0.982238 0.000500 0.974718
vt 0.999501 0.461083 0.982621
vt 0.991878 0.464175 0.025281
vt 0.999500 0.003591 0.027019
vt 0.996984 0.986357 0.009883
vt 0.022747 0.985530 0.000500
vt 0.022747 0.985530 0.000500
vt 0.025282 0.000500 0.017762
vt 0.999500 0.003591 0.027019
vt 0.982238 0.000500 0.974718
vt 0.009882 0.998672 0.998398
vt 0.009882 0.998672 0.998398
vt 0.017379 0.461083 0.999501
vt 0.999501 0.461083 0.982621
vt 0.024162 0.999500 0.999501
vt 0.024162 0.999500 0.999501
vt 0.025281 0.464175 0.991878
vt 0.991878 0.464175 0.025281
vt 0.009883 0.986357 0.003016
vt 0.368651 0.677376 0.396062
vt 0.370323 0.674155 0.222687
vt 0.365697 0.707115 0.387128
vt -1.659001 -1.523198 0.000500
vt 2.435930 -1.642370 0.000500
vt 2.831041 2.642371 0.956117
vt -1.336545 2.642342 0.956132
vt -1.659001 -1.523177 -0.654310
vt 2.435931 -1.642350 -0.654311
vt 2.831042 2.642422 -0.654276
vt -1.336545 2.642392 -0.654260
vt 2.528929 -0.995048 0.097752
vt 2.528932 -0.995029 -0.654305
vt 2.933818 -1.688286 0.132881
vt 2.933818 -1.688280 -0.129978
vt 3.031659 -1.000610 0.226848
vt 3.031661 -1.000611 -0.080935
vt 2.037892 -5.111603 0.134122
vt 2.037883 -5.111577 -0.654340
vt 2.533100 -5.180479 0.134122
vt 2.533090 -5.180474 -0.130007
vt 2.435934 -1.642366 0.132942
vt 2.528934 -0.995048 0.226674
vt 2.798605 -0.998033 0.295776
vt -0.937493 0.726664 0.000427
vt -1.631960 0.740523 0.576672
vt 2.569114 0.251812 0.008216
vt 2.577526 0.751716 0.008221
vt -0.922793 0.226882 0.000798
vt -1.576613 0.240822 0.575601
vt -1.606302 0.508871 0.999392
vt 2.572830 0.472666 0.431434
vt -0.930423 0.486281 0.423822
vt 0.994529 0.650842 0.858152
vt 0.994555 0.677550 0.999500
vt 0.198080 0.994555 0.999491
vt 0.005445 0.829604 0.999493
vt 0.005446 0.829604 0.063265
vt 0.391055 0.829312 0.999495
vt 0.391056 0.829311 0.000500
vt 0.022160 0.701983 0.858144
vt 0.373997 0.677535 0.858140
vt 0.373997 0.822436 0.858140
vt 0.022161 0.822436 0.858139
vt 0.373997 0.822436 0.999495
vt 0.022161 0.822436 0.999493
vt 0.373996 0.677550 0.999493
vt 0.373998 0.822436 0.000499
vt 0.022161 0.822436 0.063267
vt 0.373996 0.650842 0.858144
vt 0.198080 0.976590 0.858136
vt 0.198080 0.976590 0.999491
vt 1.000000 0.466138 0.000000
vt 1.000000 0.466138 0.000000
vt 1.000000 0.466138 0.000000
vt 0.994011 0.650036 0.749351
vt 0.994011 0.040418 0.878586
vt 0.023048 0.647054 0.828869
vt 0.024294 0.005652 0.999501
vt 0.375173 0.676687 0.626100
vt 0.375173 0.821361 0.626111
vt 0.024297 0.821361 0.669864
vt 0.375172 0.650036 0.626108
vt 0.199736 0.975273 0.647989
vt 0.063658 0.206376 0.994592
vt 0.072070 0.216373 0.993543
vt 0.101763 0.224673 0.989840
vt 0.162437 0.231875 0.982271
vt 0.233215 0.231078 0.973413
vt 0.286058 0.222678 0.966824
vt 0.321442 0.191567 0.962420
vt 0.319689 0.014726 0.962651
vt 0.279393 0.485709 0.732725
vt 0.127162 0.485709 0.751706
vt 0.127162 0.606111 0.751707
vt 0.279393 0.606111 0.732724
vt 0.588979 0.483566 0.694120
vt 0.435184 0.483566 0.713298
vt 0.435184 0.607890 0.713301
vt 0.588979 0.607890 0.694121
vt 0.889006 0.485386 0.762428
vt 0.738341 0.485386 0.781215
vt 0.738341 0.607396 0.781216
vt 0.889006 0.607396 0.762428
vt 0.275162 0.299792 0.838994
vt 0.126767 0.299793 0.857497
vt 0.126767 0.427548 0.751787
vt 0.275162 0.427548 0.733284
vt 0.579204 0.302921 0.801081
vt 0.432335 0.302921 0.819395
vt 0.432335 0.426316 0.713685
vt 0.579204 0.426316 0.695370
vt 0.888913 0.300311 0.762436
vt 0.734962 0.300311 0.781631
vt 0.734962 0.424730 0.781631
vt 0.888913 0.424730 0.762437
vt 0.587390 0.042146 0.929252
vt 0.438656 0.042146 0.947796
vt 0.438656 0.221001 0.947797
vt 0.587390 0.221001 0.929251
vt 0.886537 0.110174 0.891988
vt 0.737100 0.110174 0.910621
vt 0.737100 0.221585 0.910623
vt 0.886538 0.221585 0.891988
vt 0.864247 0.058500 0.894736
vt 0.783637 0.058500 0.904788
vt 0.783636 0.108411 0.904789
vt 0.864247 0.108411 0.894736
vt 0.270633 0.692134 0.639137
vt 0.127961 0.692134 0.656931
vt 0.127961 0.814865 0.656932
vt 0.270633 0.814865 0.639139
vt 0.199573 0.232488 0.977581
vt 0.311156 0.210418 0.963696
vt 0.298982 0.217030 0.965212
vt 0.316361 0.202586 0.963014
vt 0.024295 0.299748 0.860104
vt 0.061808 0.013113 0.994815
vt 0.024295 0.211921 0.901731
vt 0.024294 0.005652 0.999501
vt 0.063658 0.206376 0.994592
vt 0.072070 0.216373 0.993543
vt 0.101763 0.224673 0.989840
vt 0.162437 0.231875 0.982271
vt 0.233215 0.231078 0.973413
vt 0.286058 0.222678 0.966824
vt 0.321442 0.191567 0.962420
vt 0.319689 0.014726 0.962651
vt 0.279393 0.485709 0.732725
vt 0.127162 0.485709 0.751706
vt 0.127162 0.606111 0.751707
vt 0.279393 0.606111 0.732724
vt 0.588979 0.483566 0.694120
vt 0.435184 0.483566 0.713298
vt 0.435184 0.607890 0.713301
vt 0.588979 0.607890 0.694121
vt 0.889006 0.485386 0.762428
vt 0.738341 0.485386 0.781215
vt 0.738341 0.607396 0.781216
vt 0.889006 0.607396 0.762428
vt 0.275162 0.299792 0.838994
vt 0.126767 0.299793 0.857497
vt 0.126767 0.427548 0.751787
vt 0.275162 0.427548 0.733284
vt 0.579204 0.302921 0.801081
vt 0.432335 0.302921 0.819395
vt 0.432335 0.426316 0.713685
vt 0.579204 0.426316 0.695370
vt 0.888913 0.300311 0.762436
vt 0.734962 0.300311 0.781631
vt 0.734962 0.424730 0.781631
vt 0.888913 0.424730 0.762437
vt 0.587390 0.042146 0.929252
vt 0.438656 0.042146 0.947796
vt 0.438656 0.221001 0.947797
vt 0.587390 0.221001 0.929251
vt 0.886537 0.110174 0.891988
vt 0.737100 0.110174 0.910621
vt 0.737100 0.221585 0.910623
vt 0.886538 0.221585 0.891988
vt 0.864247 0.058500 0.894736
vt 0.783637 0.058500 0.904788
vt 0.783636 0.108411 0.904789
vt 0.864247 0.108411 0.894736
vt 0.270633 0.692134 0.639137
vt 0.127961 0.692134 0.656931
vt 0.127961 0.814865 0.656932
vt 0.270633 0.814865 0.639139
vt 0.199573 0.232488 0.977581
vt 0.311156 0.210418 0.963696
vt 0.298982 0.217030 0.965212
vt 0.316361 0.202586 0.963014
vt 0.061808 0.013113 0.994815
vt 0.864116 0.108411 0.794280
vt 0.783506 0.108411 0.804330
vt 0.783506 0.058500 0.804330
vt 0.864116 0.058500 0.794279
vt 0.886407 0.221585 0.791533
vt 0.736969 0.221585 0.810166
vt 0.736969 0.110174 0.810166
vt 0.886407 0.110174 0.791532
vt 0.587259 0.221001 0.828794
vt 0.438526 0.221001 0.847337
vt 0.438526 0.042146 0.847337
vt 0.587259 0.042146 0.828794
vt 0.888782 0.424730 0.661983
vt 0.734831 0.424730 0.681176
vt 0.734831 0.300311 0.681175
vt 0.888782 0.300311 0.661980
vt 0.579073 0.426316 0.594915
vt 0.432205 0.426316 0.613226
vt 0.432205 0.302921 0.718938
vt 0.579073 0.302921 0.700625
vt 0.275031 0.427548 0.632826
vt 0.126636 0.427548 0.651331
vt 0.126636 0.299793 0.757041
vt 0.275031 0.299792 0.738537
vt 0.888875 0.607396 0.661974
vt 0.738210 0.607396 0.680758
vt 0.738210 0.485386 0.680758
vt 0.888875 0.485386 0.661973
vt 0.588848 0.607890 0.593667
vt 0.435053 0.607890 0.612842
vt 0.435054 0.483566 0.612841
vt 0.588848 0.483566 0.593666
vt 0.279262 0.606111 0.632270
vt 0.127032 0.606111 0.651249
vt 0.127032 0.485708 0.651248
vt 0.279262 0.485709 0.632271
vt 0.316393 0.024398 0.436265
vt 0.315346 0.183870 0.436384
vt 0.255895 0.214147 0.443789
vt 0.226943 0.217578 0.447400
vt 0.159412 0.218683 0.455853
vt 0.111948 0.209339 0.461777
vt 0.098410 0.203921 0.463464
vt 0.090353 0.197242 0.464467
vt 0.270503 0.814865 0.538685
vt 0.127830 0.814865 0.556475
vt 0.127830 0.692134 0.556472
vt 0.270503 0.692134 0.538684
vt 0.293768 0.203346 0.439069
vt 0.279184 0.209331 0.440886
vt 0.307759 0.195519 0.437325
vt 0.082268 0.023373 0.490932
vt 0.198863 0.219606 0.450916
vt 0.024296 0.701097 0.669863
vt -0.001351 0.582081 0.000509
vt 0.489642 0.985835 0.999483
vt 0.012236 0.587225 0.999501
vt 0.996334 0.588787 0.999481
vt 0.996334 0.588787 0.000505
vt 0.138951 0.001951 0.000508
vt 0.002113 0.485956 0.000508
vt 0.138122 0.490303 0.920865
vt 0.832880 0.001951 0.000500
vt 0.999855 0.491751 0.000500
vt 0.832052 0.490303 0.920856
vt 0.499689 0.898788 0.999484
vt 0.060522 0.559277 0.999498
vt 0.936747 0.555189 0.999482
vt 0.480584 0.787369 0.920845
vt 0.217564 0.585547 0.920859
vt 0.743631 0.586404 0.920843
vt 0.138950 0.001951 0.920866
vt 0.138122 0.490303 0.920865
vt 0.832880 0.001951 0.920857
vt 0.832052 0.490303 0.920856
vt 1.101371 -0.068499 0.000504
vt -0.007694 0.492022 0.999499
vt -0.007714 -0.068538 0.000501
vt -0.007701 1.057400 0.000498
vt 0.861380 1.057438 0.000501
vt 1.532767 0.491038 0.999500
vt -0.823914 -0.373829 0.269958
vt -0.821179 0.563887 0.730042
vt 1.916425 0.556131 0.729503
vt 0.438933 -0.377953 0.269958
vt -1.978293 -0.809665 0.012786
vt 0.540872 0.046773 0.307106
vt 2.046066 1.820505 0.999500
vt 0.545150 -0.781344 0.000500
vt -1.805502 1.829657 0.999499
vt 0.000000 1.000000 0.999501
vt 0.000000 0.000000 0.999501
vt 1.000000 0.000000 0.999501
vt 0.000000 1.000000 0.999501
vt 1.000000 0.000000 0.999501
vt 1.000000 1.000000 0.999501
vt 0.000000 1.000000 0.936312
vt 0.000000 0.000000 0.936312
vt 3.000000 0.000000 0.936312
vt 3.000000 0.000000 0.936312
vt 3.000000 1.000000 0.936312
vt 0.000000 1.000000 0.936312
vt 2.000000 1.000000 0.998672
vt 0.000000 1.000000 0.985530
vt 0.000000 0.000000 0.986357
vt 0.009883 0.003016 0.986357
vt 2.000000 0.000000 0.999500
vt 2.000000 1.000000 0.998672
vt 2.435930 -1.642370 0.000500
vt 2.831041 2.642371 0.956117
vt -1.336545 2.642342 0.956132
vt 2.528929 -0.995048 0.097752
vt -1.532050 0.116777 0.376733
vt -1.411721 0.106272 0.373624
vt -1.528949 -1.526983 0.000500
vt -1.659001 -1.523198 0.000500
vt 2.435930 -1.642370 0.000500
vt -1.659001 -1.523177 -0.654310
vt 2.435931 -1.642350 -0.654311
vt -1.659001 -1.523198 0.000500
vt -1.336545 2.642342 0.956132
vt -1.659001 -1.523177 -0.654310
vt -1.336545 2.642392 -0.654260
vt -1.659001 -1.523177 -0.654310
vt -1.659001 -1.523198 0.000500
vt -1.659001 -1.523177 -0.654310
vt -1.659001 -1.523198 0.000500
vt -0.934396 1.866183 0.999501
vt 3.098132 -2.181808 0.000688
vt -1.956601 0.458626 0.012778
vt -2.734423 1.182545 0.431665
vt 0.103134 0.966211 0.306918
vt 0.952435 1.000052 0.307153
vt -2.717511 2.179688 0.982699
vt 0.652258 0.514927 0.000500
vt 3.035442 0.559097 0.998890
vt -0.833492 0.446000 0.982698
vt -1.644829 -1.985824 0.077670
vt 0.082920 -2.195281 0.000688
vt -1.863216 0.404740 0.982699
vt 0.054950 -0.987930 0.487002
vt -1.655800 -0.861327 0.487001
vt -1.509209 1.208015 0.429537
vt -1.456119 2.195438 0.919100
vt -2.720058 2.029472 0.913440
vt 2.952980 2.993068 0.920471
vt -0.926018 0.292206 0.929767
vt -1.958339 2.945500 0.942802
vt -0.298571 2.111534 0.920426
vt -0.711281 0.299515 0.929207
vt 0.953565 2.323030 0.928364
vt -1.849553 0.255180 0.926078
vt 3.038872 0.409135 0.944276
vt 0.942842 -1.321774 0.999500
vt 0.943554 -2.257835 0.479777
vt -1.540251 -1.329429 0.982698
vt -0.250214 -2.264558 0.479777
vt -1.513751 -0.333634 0.478855
vt -0.395006 -0.315719 0.478855
vt -1.523808 0.484139 0.932934
vt 0.942936 -1.445593 0.930753
vt -1.388447 -1.425188 0.929580
vt 0.809619 0.520313 0.929207
vt -0.293348 -0.418312 0.450455
vt 0.581612 0.111734 0.657921
vt 0.575140 -0.428739 0.450454
vt -1.145790 -1.348098 0.450454
vt -0.471461 -1.348178 0.450454
vt -0.640251 0.125351 0.657922
vt -0.082053 -0.974493 0.598416
vt -1.146924 -0.975113 0.598414
vt -1.146924 -0.975113 0.598414
vt 0.579817 -0.038217 0.600361
vt -0.543859 -0.025713 0.600274
vt -0.543859 -0.025713 0.600274
vt -1.525612 0.604012 0.999500
vt 0.957215 0.641161 0.982698
vt -1.147381 -0.825104 0.657921
vt 0.074558 -0.824207 0.657922
vt 0.593108 1.362842 0.306918
vt -1.958444 3.095480 0.998890
vt 1.912038 3.124029 0.982698
vt 2.942418 3.142784 0.982699
vt 3.036302 1.811924 0.429537
vt 1.775296 2.958054 0.919100
vt 2.074720 2.976977 0.920426
vt 0.953693 2.473228 0.982699
vt -1.617943 2.337070 0.982698
vt -0.143747 2.266838 0.982698
# 527 texture coords

g Toom_Kooli_5_1
usemtl xxxx
s off
f -193/-476/-1098 -195/-526/-1097 -210/-525/-1096 
f -209/-522/-1095 -211/-482/-1094 -201/-481/-1093 
f -201/-481/-1092 -194/-521/-1091 -208/-520/-1090 
usemtl TK_5_roosa
f -206/-519/-1089 -196/-518/-1088 -205/-517/-1087 
f -202/-516/-1086 -212/-479/-1085 -207/-515/-1084 
f -207/-514/-1083 -204/-513/-1082 -205/-512/-1081 
f -207/-511/-1080 -205/-510/-1079 -196/-509/-1078 
f -202/-508/-1077 -207/-507/-1076 -196/-506/-1075 
f -199/-505/-1074 -198/-504/-1073 -202/-503/-1072 
f -202/-502/-1071 -203/-501/-1070 -199/-500/-1069 
f -197/-499/-1068 -200/-498/-1067 -201/-497/-1066 
f -201/-496/-1065 -208/-495/-1064 -197/-494/-1063 
f -197/-493/-1062 -199/-492/-1061 -203/-491/-1060 
f -203/-490/-1059 -200/-489/-1058 -197/-488/-1057 
f -202/-516/-1056 -198/-478/-1055 -212/-479/-1054 
f -202/-487/-1053 -196/-486/-1052 -209/-485/-1051 
f -201/-480/-1050 -202/-484/-1049 -209/-483/-1048 
usemtl xxxx
f -201/-481/-1047 -211/-482/-1046 -194/-521/-1045 
f -209/-524/-1044 -193/-477/-1043 -211/-523/-1042 
f -209/-527/-1041 -195/-526/-1040 -193/-476/-1039 
f -211/-471/-1038 -193/-470/-1037 -210/-469/-1036 
usemtl TK5_katus
f -200/-455/-1035 -203/-458/-1034 -202/-457/-1033 
f -200/-455/-1032 -202/-457/-1031 -201/-456/-1030 
usemtl xxxx
f -187/-445/-1029 -183/-446/-1028 -145/-308/-1027 
f -212/-443/-1026 -186/-442/-1025 -183/-441/-1024 
f -183/-440/-1023 -182/-439/-1022 -212/-438/-1021 
f -182/-437/-1020 -207/-436/-1019 -212/-435/-1018 
usemtl TK5_korsten
f -179/-426/-1017 -180/-425/-1016 -175/-424/-1015 
f -175/-423/-1014 -174/-422/-1013 -179/-421/-1012 
f -178/-420/-1011 -179/-434/-1010 -174/-419/-1009 
f -174/-429/-1008 -181/-418/-1007 -178/-417/-1006 
f -181/-416/-1005 -176/-415/-1004 -177/-414/-1003 
f -181/-428/-1002 -177/-413/-1001 -178/-433/-1000 
f -180/-412/-999 -177/-432/-998 -176/-411/-997 
f -176/-427/-996 -175/-430/-995 -180/-431/-994 
f -165/-402/-993 -166/-401/-992 -169/-400/-991 
f -169/-399/-990 -164/-398/-989 -165/-397/-988 
f -164/-396/-987 -169/-408/-986 -168/-395/-985 
f -168/-394/-984 -171/-393/-983 -164/-405/-982 
f -171/-392/-981 -168/-409/-980 -167/-391/-979 
f -167/-390/-978 -170/-389/-977 -171/-404/-976 
f -170/-388/-975 -167/-410/-974 -166/-387/-973 
f -166/-407/-972 -165/-406/-971 -170/-403/-970 
f -173/-378/-969 -163/-377/-968 -162/-376/-967 
f -162/-375/-966 -159/-374/-965 -173/-373/-964 
f -159/-372/-963 -162/-385/-962 -161/-371/-961 
f -161/-370/-960 -172/-369/-959 -159/-381/-958 
f -172/-368/-957 -161/-386/-956 -160/-367/-955 
f -160/-366/-954 -158/-365/-953 -172/-380/-952 
f -158/-364/-951 -160/-383/-950 -163/-363/-949 
f -163/-384/-948 -173/-382/-947 -158/-379/-946 
usemtl xxxx
f -185/-362/-945 -184/-361/-944 -157/-360/-943 
usemtl TK5
f -189/-324/-942 -154/-318/-941 -156/-320/-940 
f -191/-326/-939 -155/-319/-938 -153/-317/-937 
f -185/-321/-936 -152/-315/-935 -156/-320/-934 
f -187/-322/-933 -155/-319/-932 -151/-314/-931 
f -152/-315/-930 -188/-323/-929 -189/-324/-928 
f -189/-324/-927 -156/-320/-926 -152/-315/-925 
f -190/-325/-924 -151/-314/-923 -155/-319/-922 
f -155/-319/-921 -191/-326/-920 -190/-325/-919 
f -184/-316/-918 -150/-313/-917 -211/-329/-916 
f -210/-328/-915 -184/-316/-914 -211/-329/-913 
f -154/-318/-912 -189/-324/-911 -192/-327/-910 
f -148/-311/-909 -154/-318/-908 -192/-327/-907 
f -148/-311/-906 -192/-327/-905 -191/-326/-904 
f -153/-317/-903 -148/-311/-902 -191/-326/-901 
f -155/-319/-900 -149/-312/-899 -148/-311/-898 
f -148/-311/-897 -153/-317/-896 -155/-319/-895 
f -149/-312/-894 -156/-320/-893 -154/-318/-892 
f -154/-318/-891 -148/-311/-890 -149/-312/-889 
f -150/-313/-888 -184/-316/-887 -185/-321/-886 
usemtl xxxx
f -147/-310/-885 -183/-446/-884 -186/-444/-883 
f -146/-309/-882 -183/-446/-881 -147/-310/-880 
f -145/-308/-879 -183/-446/-878 -146/-309/-877 
usemtl TK5
s 1
f -130/-284/-876 -129/-283/-875 -150/-300/-874 
f -117/-271/-873 -114/-268/-872 -127/-281/-871 
f -110/-264/-870 -116/-270/-869 -115/-269/-868 
f -116/-270/-867 -110/-264/-866 -109/-263/-865 
f -101/-255/-864 -104/-258/-863 -108/-262/-862 
f -101/-255/-861 -108/-262/-860 -107/-261/-859 
f -102/-256/-858 -101/-255/-857 -107/-261/-856 
f -122/-276/-855 -136/-290/-854 -135/-289/-853 
f -123/-277/-852 -146/-246/-851 -143/-297/-850 
f -136/-290/-849 -122/-276/-848 -121/-275/-847 
f -115/-269/-846 -117/-271/-845 -120/-274/-844 
f -110/-264/-843 -115/-269/-842 -120/-274/-841 
f -117/-271/-840 -115/-269/-839 -114/-268/-838 
f -107/-261/-837 -109/-263/-836 -112/-266/-835 
f -109/-263/-834 -107/-261/-833 -106/-260/-832 
f -116/-270/-831 -109/-263/-830 -106/-260/-829 
f -129/-283/-828 -127/-281/-827 -126/-280/-826 
f -211/-307/-825 -126/-280/-824 -125/-279/-823 
f -127/-281/-822 -129/-283/-821 -132/-286/-820 
f -117/-271/-819 -127/-281/-818 -132/-286/-817 
f -118/-272/-816 -132/-286/-815 -131/-285/-814 
f -128/-282/-813 -114/-268/-812 -113/-267/-811 
f -110/-264/-810 -120/-274/-809 -119/-273/-808 
f -116/-270/-807 -106/-260/-806 -105/-259/-805 
f -130/-284/-804 -150/-300/-803 -118/-272/-802 
f -131/-285/-801 -130/-284/-800 -118/-272/-799 
f -119/-273/-798 -118/-272/-797 -139/-293/-796 
f -110/-264/-795 -119/-273/-794 -139/-293/-793 
f -110/-264/-792 -139/-293/-791 -94/-248/-790 
f -211/-307/-789 -125/-279/-788 -128/-282/-787 
f -211/-307/-786 -113/-267/-785 -116/-270/-784 
f -194/-306/-783 -116/-270/-782 -105/-259/-781 
f -194/-306/-780 -105/-259/-779 -108/-262/-778 
f -123/-277/-777 -143/-297/-776 -142/-296/-775 
f -194/-306/-774 -108/-262/-773 -104/-258/-772 
f -111/-265/-771 -110/-264/-770 -138/-292/-769 
f -111/-265/-768 -138/-292/-767 -137/-291/-766 
f -123/-277/-765 -142/-296/-764 -141/-295/-763 
f -124/-278/-762 -123/-277/-761 -141/-295/-760 
f -124/-278/-759 -141/-295/-758 -96/-250/-757 
f -124/-278/-756 -140/-294/-755 -139/-293/-754 
f -136/-290/-753 -118/-272/-752 -150/-300/-751 
f -133/-287/-750 -136/-290/-749 -150/-300/-748 
f -134/-288/-747 -150/-300/-746 -99/-253/-745 
f -103/-257/-744 -102/-256/-743 -107/-261/-742 
f -103/-257/-741 -107/-261/-740 -112/-266/-739 
f -112/-266/-738 -111/-265/-737 -137/-291/-736 
f -112/-266/-735 -137/-291/-734 -194/-306/-733 
f -103/-257/-732 -112/-266/-731 -194/-306/-730 
f -103/-257/-729 -194/-306/-728 -104/-258/-727 
f -100/-254/-726 -185/-303/-725 -156/-302/-724 
f -97/-251/-723 -100/-254/-722 -156/-302/-721 
f -97/-251/-720 -156/-302/-719 -155/-301/-718 
f -98/-252/-717 -97/-251/-716 -155/-301/-715 
f -98/-252/-714 -187/-136/-713 -145/-305/-712 
f -99/-253/-711 -98/-252/-710 -145/-305/-709 
f -100/-254/-708 -99/-253/-707 -150/-300/-706 
f -185/-303/-705 -100/-254/-704 -150/-300/-703 
f -149/-299/-702 -155/-301/-701 -156/-302/-700 
f -124/-278/-699 -96/-250/-698 -140/-294/-697 
f -110/-264/-696 -93/-247/-695 -138/-292/-694 
f -110/-264/-693 -94/-248/-692 -95/-249/-691 
f -110/-264/-690 -95/-249/-689 -93/-247/-688 
f -136/-290/-687 -121/-275/-686 -118/-272/-685 
f -121/-275/-684 -124/-278/-683 -118/-272/-682 
f -124/-278/-681 -139/-293/-680 -118/-272/-679 
f -118/-272/-678 -117/-271/-677 -132/-286/-676 
f -114/-268/-675 -128/-282/-674 -127/-281/-673 
f -126/-280/-672 -211/-307/-671 -150/-300/-670 
f -129/-283/-669 -126/-280/-668 -150/-300/-667 
f -146/-246/-666 -144/-298/-665 -143/-297/-664 
f -122/-276/-663 -145/-305/-662 -146/-246/-661 
f -123/-277/-660 -122/-276/-659 -146/-246/-658 
f -211/-307/-657 -128/-282/-656 -113/-267/-655 
f -194/-306/-654 -211/-307/-653 -116/-270/-652 
f -144/-298/-651 -186/-304/-650 -92/-245/-649 
f -144/-298/-648 -147/-244/-647 -186/-304/-646 
f -144/-298/-645 -146/-246/-644 -147/-244/-643 
f -135/-289/-642 -134/-288/-641 -145/-305/-640 
f -122/-276/-639 -135/-289/-638 -145/-305/-637 
f -133/-287/-636 -150/-300/-635 -134/-288/-634 
f -134/-288/-633 -99/-253/-632 -145/-305/-631 
s off
f -90/-188/-630 -91/-189/-629 -102/-200/-628 
f -102/-200/-627 -91/-189/-626 -101/-199/-625 
f -89/-187/-624 -90/-188/-623 -103/-201/-622 
f -103/-201/-621 -90/-188/-620 -102/-200/-619 
f -88/-186/-618 -89/-187/-617 -104/-202/-616 
f -104/-202/-615 -89/-187/-614 -103/-201/-613 
f -91/-189/-612 -88/-186/-611 -101/-199/-610 
f -101/-199/-609 -88/-186/-608 -104/-202/-607 
f -86/-184/-606 -87/-185/-605 -106/-204/-604 
f -106/-204/-603 -87/-185/-602 -105/-203/-601 
f -85/-183/-600 -86/-184/-599 -107/-205/-598 
f -107/-205/-597 -86/-184/-596 -106/-204/-595 
f -84/-182/-594 -85/-183/-593 -108/-206/-592 
f -108/-206/-591 -85/-183/-590 -107/-205/-589 
f -87/-185/-588 -84/-182/-587 -105/-203/-586 
f -105/-203/-585 -84/-182/-584 -108/-206/-583 
f -82/-180/-582 -83/-181/-581 -110/-208/-580 
f -110/-208/-579 -83/-181/-578 -109/-207/-577 
f -81/-179/-576 -82/-180/-575 -111/-209/-574 
f -111/-209/-573 -82/-180/-572 -110/-208/-571 
f -80/-178/-570 -81/-179/-569 -112/-210/-568 
f -112/-210/-567 -81/-179/-566 -111/-209/-565 
f -83/-181/-564 -80/-178/-563 -109/-207/-562 
f -109/-207/-561 -80/-178/-560 -112/-210/-559 
f -78/-176/-558 -79/-177/-557 -114/-212/-556 
f -114/-212/-555 -79/-177/-554 -113/-211/-553 
f -77/-175/-552 -78/-176/-551 -115/-213/-550 
f -115/-213/-549 -78/-176/-548 -114/-212/-547 
f -76/-174/-546 -77/-175/-545 -116/-214/-544 
f -116/-214/-543 -77/-175/-542 -115/-213/-541 
f -79/-177/-540 -76/-174/-539 -113/-211/-538 
f -113/-211/-537 -76/-174/-536 -116/-214/-535 
f -74/-172/-534 -75/-173/-533 -118/-216/-532 
f -118/-216/-531 -75/-173/-530 -117/-215/-529 
f -73/-171/-528 -74/-172/-527 -119/-217/-526 
f -119/-217/-525 -74/-172/-524 -118/-216/-523 
f -72/-170/-522 -73/-171/-521 -120/-218/-520 
f -120/-218/-519 -73/-171/-518 -119/-217/-517 
f -75/-173/-516 -72/-170/-515 -117/-215/-514 
f -117/-215/-513 -72/-170/-512 -120/-218/-511 
f -70/-168/-510 -71/-169/-509 -122/-220/-508 
f -122/-220/-507 -71/-169/-506 -121/-219/-505 
f -69/-167/-504 -70/-168/-503 -123/-221/-502 
f -123/-221/-501 -70/-168/-500 -122/-220/-499 
f -68/-166/-498 -69/-167/-497 -124/-222/-496 
f -124/-222/-495 -69/-167/-494 -123/-221/-493 
f -71/-169/-492 -68/-166/-491 -121/-219/-490 
f -121/-219/-489 -68/-166/-488 -124/-222/-487 
f -66/-164/-486 -67/-165/-485 -126/-224/-484 
f -126/-224/-483 -67/-165/-482 -125/-223/-481 
f -65/-163/-480 -66/-164/-479 -127/-225/-478 
f -127/-225/-477 -66/-164/-476 -126/-224/-475 
f -64/-162/-474 -65/-163/-473 -128/-226/-472 
f -128/-226/-471 -65/-163/-470 -127/-225/-469 
f -67/-165/-468 -64/-162/-467 -125/-223/-466 
f -125/-223/-465 -64/-162/-464 -128/-226/-463 
f -62/-160/-462 -63/-161/-461 -130/-228/-460 
f -130/-228/-459 -63/-161/-458 -129/-227/-457 
f -61/-159/-456 -62/-160/-455 -131/-229/-454 
f -131/-229/-453 -62/-160/-452 -130/-228/-451 
f -60/-158/-450 -61/-159/-449 -132/-230/-448 
f -132/-230/-447 -61/-159/-446 -131/-229/-445 
f -63/-161/-444 -60/-158/-443 -129/-227/-442 
f -129/-227/-441 -60/-158/-440 -132/-230/-439 
f -58/-156/-438 -59/-157/-437 -134/-232/-436 
f -134/-232/-435 -59/-157/-434 -133/-231/-433 
f -57/-155/-432 -58/-156/-431 -135/-233/-430 
f -135/-233/-429 -58/-156/-428 -134/-232/-427 
f -56/-154/-426 -57/-155/-425 -136/-234/-424 
f -136/-234/-423 -57/-155/-422 -135/-233/-421 
f -59/-157/-420 -56/-154/-419 -133/-231/-418 
f -133/-231/-417 -56/-154/-416 -136/-234/-415 
f -55/-153/-414 -40/-138/-413 -137/-235/-412 
f -54/-152/-411 -55/-153/-410 -138/-236/-409 
f -138/-236/-408 -55/-153/-407 -137/-235/-406 
f -42/-140/-405 -43/-141/-404 -95/-193/-403 
f -93/-191/-402 -54/-152/-401 -138/-236/-400 
f -52/-150/-399 -53/-151/-398 -140/-238/-397 
f -140/-238/-396 -53/-151/-395 -139/-237/-394 
f -50/-148/-393 -51/-149/-392 -142/-240/-391 
f -142/-240/-390 -51/-149/-389 -141/-239/-388 
f -49/-147/-387 -50/-148/-386 -143/-241/-385 
f -143/-241/-384 -50/-148/-383 -142/-240/-382 
f -48/-146/-381 -49/-147/-380 -144/-242/-379 
f -144/-242/-378 -49/-147/-377 -143/-241/-376 
f -92/-190/-375 -48/-146/-374 -144/-242/-373 
f -91/-189/-372 -89/-187/-371 -88/-186/-370 
f -91/-189/-369 -90/-188/-368 -89/-187/-367 
f -87/-185/-366 -85/-183/-365 -84/-182/-364 
f -87/-185/-363 -86/-184/-362 -85/-183/-361 
f -83/-181/-360 -81/-179/-359 -80/-178/-358 
f -83/-181/-357 -82/-180/-356 -81/-179/-355 
f -79/-177/-354 -77/-175/-353 -76/-174/-352 
f -79/-177/-351 -78/-176/-350 -77/-175/-349 
f -75/-173/-348 -73/-171/-347 -72/-170/-346 
f -75/-173/-345 -74/-172/-344 -73/-171/-343 
f -71/-169/-342 -69/-167/-341 -68/-166/-340 
f -71/-169/-339 -70/-168/-338 -69/-167/-337 
f -67/-165/-336 -65/-163/-335 -64/-162/-334 
f -67/-165/-333 -66/-164/-332 -65/-163/-331 
f -63/-161/-330 -61/-159/-329 -60/-158/-328 
f -63/-161/-327 -62/-160/-326 -61/-159/-325 
f -59/-157/-324 -57/-155/-323 -56/-154/-322 
f -59/-157/-321 -58/-156/-320 -57/-155/-319 
f -55/-153/-318 -48/-146/-317 -40/-138/-316 
f -54/-152/-315 -48/-146/-314 -55/-153/-313 
f -42/-140/-312 -48/-146/-311 -43/-141/-310 
f -52/-150/-309 -48/-146/-308 -53/-151/-307 
f -50/-148/-306 -48/-146/-305 -51/-149/-304 
f -49/-147/-303 -48/-146/-302 -50/-148/-301 
f -46/-144/-300 -47/-145/-299 -98/-196/-298 
f -98/-196/-297 -47/-145/-296 -97/-195/-295 
f -45/-143/-294 -46/-144/-293 -99/-197/-292 
f -99/-197/-291 -46/-144/-290 -98/-196/-289 
f -44/-142/-288 -45/-143/-287 -100/-198/-286 
f -100/-198/-285 -45/-143/-284 -99/-197/-283 
f -47/-145/-282 -44/-142/-281 -97/-195/-280 
f -97/-195/-279 -44/-142/-278 -100/-198/-277 
f -47/-145/-276 -45/-143/-275 -44/-142/-274 
f -47/-145/-273 -46/-144/-272 -45/-143/-271 
f -137/-235/-270 -186/-243/-269 -92/-190/-268 
f -96/-194/-267 -52/-150/-266 -140/-238/-265 
f -51/-149/-264 -96/-194/-263 -141/-239/-262 
f -53/-151/-261 -94/-192/-260 -139/-237/-259 
f -41/-139/-258 -48/-146/-257 -54/-152/-256 
f -41/-139/-255 -54/-152/-254 -93/-191/-253 
f -42/-140/-252 -95/-193/-251 -94/-192/-250 
f -53/-151/-249 -42/-140/-248 -94/-192/-247 
f -53/-151/-246 -48/-146/-245 -42/-140/-244 
f -43/-141/-243 -93/-191/-242 -95/-193/-241 
f -43/-141/-240 -41/-139/-239 -93/-191/-238 
f -43/-141/-237 -48/-146/-236 -41/-139/-235 
f -40/-138/-234 -48/-146/-233 -92/-190/-232 
f -40/-138/-231 -92/-190/-230 -137/-235/-229 
f -96/-194/-228 -39/-137/-227 -52/-150/-226 
f -96/-194/-225 -51/-149/-224 -39/-137/-223 
f -51/-149/-222 -48/-146/-221 -39/-137/-220 
f -39/-137/-219 -48/-146/-218 -52/-150/-217 
s 1
f -98/-252/-216 -155/-301/-215 -187/-136/-214 
usemtl TK5_katuseaknad
s off
f -31/-128/-213 -32/-129/-212 -33/-130/-211 
f -30/-127/-210 -29/-126/-209 -28/-125/-208 
f -32/-129/-207 -31/-128/-206 -36/-133/-205 
f -36/-133/-204 -38/-135/-203 -32/-129/-202 
f -31/-128/-201 -28/-125/-200 -35/-132/-199 
f -35/-132/-198 -36/-133/-197 -31/-128/-196 
f -28/-125/-195 -29/-126/-194 -34/-131/-193 
f -34/-131/-192 -35/-132/-191 -28/-125/-190 
f -23/-120/-189 -22/-119/-188 -24/-121/-187 
f -37/-134/-186 -36/-133/-185 -26/-123/-184 
f -26/-123/-183 -27/-124/-182 -37/-134/-181 
f -36/-133/-180 -35/-132/-179 -25/-122/-178 
f -25/-122/-177 -26/-123/-176 -36/-133/-175 
f -35/-132/-174 -37/-134/-173 -27/-124/-172 
f -27/-124/-171 -25/-122/-170 -35/-132/-169 
f -27/-124/-168 -26/-123/-167 -23/-120/-166 
f -23/-120/-165 -24/-121/-164 -27/-124/-163 
f -26/-123/-162 -25/-122/-161 -22/-119/-160 
f -22/-119/-159 -23/-120/-158 -26/-123/-157 
f -25/-122/-156 -27/-124/-155 -24/-121/-154 
f -24/-121/-153 -22/-119/-152 -25/-122/-151 
f -33/-118/-150 -30/-116/-149 -28/-115/-148 
f -28/-115/-147 -31/-117/-146 -33/-118/-145 
usemtl TK5_korstnaots
f -179/-99/-144 -178/-98/-143 -177/-97/-142 
f -179/-96/-141 -177/-95/-140 -180/-94/-139 
f -167/-93/-138 -168/-92/-137 -169/-91/-136 
f -169/-90/-135 -166/-89/-134 -167/-88/-133 
f -161/-87/-132 -162/-86/-131 -163/-85/-130 
f -163/-84/-129 -160/-83/-128 -161/-82/-127 
usemtl Kat_kivi_valge
s 2
f -14/-43/-126 -183/-50/-125 -9/-38/-124 
usemtl TK5_katus
f -19/-49/-123 -184/-51/-122 -210/-61/-121 
s off
f -16/-45/-120 -207/-59/-119 -12/-41/-118 
f -182/-47/-117 -12/-41/-116 -207/-59/-115 
usemtl Kat_kivi_valge
f -21/-3/-114 -20/-2/-113 -17/-46/-112 
usemtl TK5_katus
f -205/-57/-111 -10/-39/-110 -206/-58/-109 
f -209/-60/-108 -196/-55/-107 -206/-10/-106 
usemtl Kat_kivi_valge
f -17/-5/-105 -195/-9/-104 -13/-42/-103 
usemtl TK5_katus
s 2
f -11/-40/-102 -19/-49/-101 -8/-37/-100 
usemtl Kat_kivi_valge
s off
f -20/-8/-99 -195/-9/-98 -17/-5/-97 
f -20/-1/-96 -21/-56/-95 -16/-45/-94 
f -183/-7/-93 -20/-8/-92 -15/-44/-91 
f -20/-8/-90 -12/-4/-89 -15/-44/-88 
s 2
f -20/-53/-87 -183/-50/-86 -14/-43/-85 
usemtl TK5_katus
s off
f -209/-60/-84 -206/-10/-83 -13/-42/-82 
f -182/-6/-81 -15/-44/-80 -12/-4/-79 
f -17/-5/-78 -13/-42/-77 -206/-10/-76 
f -17/-46/-75 -206/-58/-74 -10/-39/-73 
usemtl Kat_kivi_valge
f -17/-46/-72 -10/-39/-71 -21/-3/-70 
f -16/-45/-69 -12/-41/-68 -20/-1/-67 
usemtl TK5_katus
s 2
f -18/-48/-66 -14/-43/-65 -9/-38/-64 
f -187/-52/-63 -18/-48/-62 -9/-38/-61 
usemtl Kat_kivi_valge
f -195/-54/-60 -20/-53/-59 -11/-40/-58 
f -11/-40/-57 -8/-37/-56 -195/-54/-55 
usemtl TK5_katus
f -19/-49/-54 -210/-61/-53 -8/-37/-52 
s off
f -188/-31/-51 -11/-27/-50 -189/-32/-49 
f -7/-30/-48 -189/-32/-47 -11/-27/-46 
usemtl Kat_kivi_valge
f -20/-34/-45 -6/-29/-44 -192/-36/-43 
usemtl TK5_katus
f -6/-29/-42 -14/-28/-41 -191/-35/-40 
f -190/-33/-39 -191/-35/-38 -14/-28/-37 
usemtl Kat_kivi_valge
f -7/-30/-36 -11/-27/-35 -20/-13/-34 
f -20/-13/-33 -192/-14/-32 -7/-30/-31 
usemtl TK5_katus
f -189/-32/-30 -7/-30/-29 -192/-14/-28 
usemtl Kat_kivi_valge
f -6/-29/-27 -20/-34/-26 -14/-28/-25 
f -37/-25/-24 -5/-21/-23 -2/-17/-22 
f -5/-11/-21 -37/-12/-20 -4/-20/-19 
usemtl TK5_katus
f -35/-23/-18 -34/-22/-17 -4/-20/-16 
f -4/-20/-15 -3/-18/-14 -35/-23/-13 
usemtl Kat_kivi_valge
f -4/-20/-12 -37/-12/-11 -3/-19/-10 
usemtl TK5_katus
f -38/-26/-9 -36/-24/-8 -2/-17/-7 
f -2/-17/-6 -1/-15/-5 -38/-26/-4 
usemtl Kat_kivi_valge
f -2/-17/-3 -5/-21/-2 -1/-16/-1 
# 366 faces

