# 3ds Max Wavefront OBJ Exporter v0.97b - (c)2007 guruware
# File Created: 24.04.2012 10:49:27

mtllib Ryytli_tn_8_1.mtl

#
# object polySurface1
#

v  -212.2383 -172.3457 25.3029
v  -212.0702 -170.1779 25.3029
v  -212.0702 -170.1779 27.4888
v  -212.2383 -172.3457 27.4888
v  -212.0595 -170.1787 25.3029
v  -211.9350 -168.5725 25.3029
v  -211.9350 -168.5725 27.4888
v  -212.0595 -170.1787 27.4888
v  -211.9457 -168.5717 25.3029
v  -211.7426 -165.9501 25.3029
v  -211.7426 -165.9501 27.4888
v  -211.9457 -168.5717 27.4888
v  -211.2375 -159.4367 25.3029
v  -211.1645 -158.4932 25.3029
v  -211.1645 -158.4932 27.4888
v  -211.2375 -159.4367 27.4888
v  -211.7318 -165.9509 25.3029
v  -211.6051 -164.3175 25.3029
v  -211.6051 -164.3175 27.4888
v  -211.7318 -165.9509 27.4888
v  -211.6159 -164.3167 25.3029
v  -211.5714 -163.7424 25.3029
v  -211.5714 -163.7424 27.4888
v  -211.6159 -164.3167 27.4888
v  -211.5607 -163.7432 25.3029
v  -211.4452 -162.2541 25.3029
v  -211.4452 -162.2541 27.4888
v  -211.5607 -163.7432 27.4888
v  -211.4558 -162.2533 25.3029
v  -211.3563 -160.9693 25.3029
v  -211.3563 -160.9693 27.4888
v  -211.4558 -162.2533 27.4888
v  -211.3455 -160.9701 25.3029
v  -211.2267 -159.4376 25.3029
v  -211.2267 -159.4376 27.4888
v  -211.3455 -160.9701 27.4888
v  -212.0702 -170.1779 28.1819
v  -212.2383 -172.3457 28.1819
v  -211.9457 -168.5717 28.1819
v  -211.7370 -165.8790 28.1819
v  -211.6185 -164.3506 28.1819
v  -211.5706 -163.7311 28.1819
v  -211.4558 -162.2533 28.1819
v  -211.3563 -160.9693 28.1819
v  -211.2375 -159.4367 28.1819
v  -211.1645 -158.4932 28.1819
v  -218.9623 -171.8245 28.1819
v  -218.9623 -171.8245 27.4888
v  -218.9623 -171.8245 25.3029
v  -219.4917 -157.8236 28.1819
v  -219.4917 -157.8236 27.4888
v  -219.4917 -157.8236 25.3029
v  -211.5940 -163.7292 28.1819
v  -211.4794 -162.2514 28.1819
v  -211.4794 -162.2514 28.8533
v  -211.5940 -163.7292 28.8533
v  -211.3563 -160.9693 28.8533
v  -211.4558 -162.2533 28.8533
v  -211.2375 -159.4367 28.8533
v  -211.1645 -158.4932 28.8533
v  -219.4917 -157.8236 28.8533
v  -218.9623 -171.8245 28.8533
v  -212.2383 -172.3457 28.8533
v  -212.0702 -170.1779 28.8533
v  -211.9457 -168.5717 28.8533
v  -211.7370 -165.8790 28.8533
v  -211.7651 -165.8768 28.1819
v  -211.6466 -164.3484 28.1819
v  -211.6466 -164.3484 28.8533
v  -211.7651 -165.8768 28.8533
v  -211.5706 -163.7311 28.8533
v  -211.6185 -164.3506 28.8533
v  -211.5576 -163.7416 29.7198
v  -211.4422 -162.2543 29.7198
v  -211.4422 -162.2543 29.8919
v  -211.5577 -163.7435 29.8919
v  -211.3426 -160.9704 29.7198
v  -211.3426 -160.9704 29.8919
v  -211.2238 -159.4378 29.7198
v  -211.2238 -159.4378 29.8919
v  -211.1508 -158.4943 29.7198
v  -211.1508 -158.4943 29.8919
v  -211.1645 -158.4932 29.7198
v  -219.4917 -157.8236 29.7198
v  -219.4917 -157.8236 29.8919
v  -211.1645 -158.4932 29.8919
v  -218.9623 -171.8245 29.7198
v  -218.9623 -171.8245 29.8919
v  -212.2383 -172.3457 29.7198
v  -212.2383 -172.3457 29.8919
v  -212.2246 -172.3468 29.7198
v  -212.0565 -170.1790 29.7198
v  -212.0565 -170.1790 29.8919
v  -212.2246 -172.3468 29.8919
v  -211.9320 -168.5728 29.7198
v  -211.9320 -168.5728 29.8919
v  -211.7279 -165.9394 29.7198
v  -211.7289 -165.9512 29.8919
v  -211.6026 -164.3233 29.7198
v  -211.6022 -164.3177 29.8919
v  -211.8681 -162.4527 29.6462
v  -211.7788 -161.2669 29.6462
v  -211.6721 -159.8516 29.6462
v  -212.5988 -172.1426 29.6462
v  -219.0517 -158.0152 29.6462
v  -211.5798 -158.6336 29.6462
v  -218.6322 -171.6612 29.6462
v  -212.0117 -164.3582 29.6462
v  -212.1254 -165.8667 29.6462
v  -212.3076 -168.2878 29.6462
v  -212.4194 -169.7711 29.6462
v  -211.9718 -163.8279 29.6462
v  -212.5988 -172.1426 29.8919
v  -212.0702 -170.1779 29.8919
v  -212.4194 -169.7711 29.8919
v  -218.6322 -171.6612 29.8919
v  -219.0517 -158.0152 29.8919
v  -211.5798 -158.6336 29.8919
v  -211.6721 -159.8516 29.8919
v  -211.2375 -159.4367 29.8919
v  -211.7788 -161.2669 29.8919
v  -211.3563 -160.9693 29.8919
v  -211.8681 -162.4527 29.8919
v  -211.4558 -162.2533 29.8919
v  -211.9718 -163.8279 29.8919
v  -211.5714 -163.7424 29.8919
v  -212.0117 -164.3582 29.8919
v  -211.6159 -164.3167 29.8919
v  -212.1254 -165.8667 29.8919
v  -211.7426 -165.9501 29.8919
v  -212.3076 -168.2878 29.8919
v  -211.9457 -168.5717 29.8919
v  -212.2383 -172.3457 24.8262
v  -212.0702 -170.1779 24.8262
v  -211.9457 -168.5717 24.8262
v  -211.7426 -165.9501 24.8262
v  -211.6159 -164.3167 24.8262
v  -211.5714 -163.7424 24.8262
v  -211.4558 -162.2533 24.8262
v  -211.3563 -160.9693 24.8262
v  -211.2375 -159.4367 24.8262
v  -211.1645 -158.4932 24.8262
v  -218.9623 -171.8245 24.8262
v  -219.4917 -157.8236 24.8262
v  -211.7416 -165.9383 29.7198
v  -211.9457 -168.5717 29.7198
v  -212.0702 -170.1779 29.7198
v  -211.2375 -159.4367 29.7198
v  -211.3563 -160.9693 29.7198
v  -211.4558 -162.2533 29.7198
v  -211.5713 -163.7405 29.7198
v  -211.6163 -164.3223 29.7198
v  -212.5872 -170.1978 25.2938
v  -211.5808 -170.2758 25.2938
v  -211.4454 -168.5286 25.2938
v  -212.4517 -168.4506 25.2938
v  -212.5872 -170.1978 24.8582
v  -212.4517 -168.4506 24.8582
v  -211.5808 -170.2758 24.8582
v  -211.4454 -168.5286 24.8582
v  -212.2942 -170.2206 25.1434
v  -211.2879 -170.2986 25.1434
v  -211.1524 -168.5513 25.1434
v  -212.1588 -168.4733 25.1434
v  -212.2942 -170.2206 24.7078
v  -212.1588 -168.4733 24.7078
v  -211.2879 -170.2986 24.7078
v  -211.1524 -168.5513 24.7078
v  -212.1462 -165.9980 25.1770
v  -211.1399 -166.0760 25.1770
v  -211.0044 -164.3288 25.1770
v  -212.0108 -164.2507 25.1770
v  -212.1462 -165.9980 24.7415
v  -212.0108 -164.2507 24.7415
v  -211.1399 -166.0760 24.7415
v  -211.0044 -164.3288 24.7415
v  -212.3401 -165.9830 25.3340
v  -211.3337 -166.0610 25.3340
v  -211.1982 -164.3138 25.3340
v  -212.2046 -164.2357 25.3340
v  -212.3401 -165.9830 24.8984
v  -212.2046 -164.2357 24.8984
v  -211.3337 -166.0610 24.8984
v  -211.1982 -164.3138 24.8984
v  -211.9713 -163.7416 25.1770
v  -210.9650 -163.8196 25.1770
v  -210.8434 -162.2518 25.1770
v  -211.8498 -162.1738 25.1770
v  -211.9713 -163.7416 24.7415
v  -211.8498 -162.1738 24.7415
v  -210.9650 -163.8196 24.7415
v  -210.8434 -162.2518 24.7415
v  -212.1651 -163.7265 25.3340
v  -211.1588 -163.8046 25.3340
v  -211.0372 -162.2368 25.3340
v  -212.0436 -162.1587 25.3340
v  -212.1651 -163.7265 24.8984
v  -212.0436 -162.1587 24.8984
v  -211.1588 -163.8046 24.8984
v  -211.0372 -162.2368 24.8984
v  -211.7563 -160.9687 25.1770
v  -210.7500 -161.0467 25.1770
v  -210.6234 -159.4138 25.1770
v  -211.6297 -159.3358 25.1770
v  -211.7563 -160.9687 24.7415
v  -211.6297 -159.3358 24.7415
v  -210.7500 -161.0467 24.7415
v  -210.6234 -159.4138 24.7415
v  -211.9502 -160.9537 25.3340
v  -210.9438 -161.0317 25.3340
v  -210.8172 -159.3988 25.3340
v  -211.8236 -159.3208 25.3340
v  -211.9502 -160.9537 24.8984
v  -211.8236 -159.3208 24.8984
v  -210.9438 -161.0317 24.8984
v  -210.8172 -159.3988 24.8984
# 216 vertices

vn 0.9970 -0.0773 0.0000
vn 0.9970 -0.0772 0.0000
vn 0.9970 -0.0773 -0.0001
vn 0.9970 -0.0773 -0.0000
vn 0.9970 -0.0772 -0.0000
vn -0.0773 -0.9970 0.0000
vn -0.9993 -0.0378 0.0000
vn 0.0802 0.9968 0.0000
vn 0.9970 -0.0773 0.0001
vn 0.9970 -0.0771 0.0000
vn 0.0790 0.9969 0.0000
vn 0.0784 0.9969 0.0000
vn -0.0768 -0.9970 0.0000
vn -0.0765 -0.9971 0.0000
vn -0.0000 0.0000 -1.0000
vn -0.0780 -0.9970 0.0000
vn -0.0000 0.0000 1.0000
vn 0.0786 0.9969 0.0000
vn -0.0001 0.0000 -1.0000
vn -0.0774 -0.9970 0.0000
vn 0.0769 0.9970 0.0000
vn -0.0001 0.0000 1.0000
vn 0.0754 0.9972 0.0000
vn 0.0000 0.0000 -1.0000
vn -0.0772 -0.9970 0.0000
vn 0.0736 0.9973 0.0000
vn -0.0002 0.0000 -1.0000
vn 0.0756 0.9971 0.0000
vn 0.0001 0.0000 -1.0000
vn -0.0763 -0.9971 0.0000
vn 0.0763 0.9971 0.0000
vn -0.0764 -0.9971 0.0000
vn 0.0000 0.0000 1.0000
vn -0.9971 0.0755 0.0000
vn 0.0795 0.9968 0.0000
vn 0.9995 0.0307 0.0000
vn -0.0825 -0.9966 0.0000
vn -0.9971 0.0756 0.0000
vn -0.9972 0.0751 0.0000
vn -0.9972 0.0752 0.0000
vn 0.9970 -0.0774 0.0000
vn 0.0001 0.0000 1.0000
vn 0.0767 0.9971 0.0000
vn -0.0757 -0.9971 0.0000
vn 0.0773 0.9970 0.0000
# 45 vertex normals

vt 2.9904 0.0000 0.0000
vt 3.9904 0.0000 0.0000
vt 3.9904 1.0000 0.0000
vt 2.9904 1.0000 0.0000
vt 2.9904 1.0000 0.0000
vt 3.9904 1.0000 0.0000
vt 3.9904 0.0000 0.0000
vt 2.9904 0.0000 0.0000
vt 2.9904 1.0000 0.0000
vt 3.9904 1.0000 0.0000
vt 3.9904 0.0000 0.0000
vt 2.9904 0.0000 0.0000
vt 2.9904 0.0000 0.0000
vt 3.9904 0.0000 0.0000
vt 3.9904 1.0000 0.0000
vt 2.9904 1.0000 0.0000
vt 4.9960 0.0000 0.0000
vt 5.9960 0.0000 0.0000
vt 5.9960 1.0000 0.0000
vt 4.9960 1.0000 0.0000
vt 4.9960 0.0000 0.0000
vt 5.9960 0.0000 0.0000
vt 5.9960 1.0000 0.0000
vt 4.9960 1.0000 0.0000
vt -17.4769 15.3765 0.0000
vt -17.4769 14.1277 0.0000
vt -16.2215 14.1277 0.0000
vt -16.2215 15.3765 0.0000
vt -17.8749 15.3765 0.0000
vt -17.8749 14.1277 0.0000
vt -15.9477 14.1277 0.0000
vt -15.9477 15.3765 0.0000
vt -18.2605 15.3765 0.0000
vt -18.2605 14.1277 0.0000
vt -17.8749 13.2025 0.0000
vt -17.4769 13.2025 0.0000
vt -16.2215 13.2025 0.0000
vt -15.9477 13.2025 0.0000
vt -18.7581 15.3765 0.0000
vt -18.7581 14.1277 0.0000
vt -18.2605 13.2025 0.0000
vt -17.8749 11.6513 0.0000
vt -17.4768 11.6923 0.0000
vt -16.2214 11.6924 0.0000
vt -15.9477 11.6924 0.0000
vt -18.7581 13.2025 0.0000
vt -18.2605 11.6513 0.0000
vt -17.8749 10.7709 0.0000
vt -17.4769 10.7513 0.0000
vt -16.2215 10.7514 0.0000
vt -15.9477 10.7514 0.0000
vt -16.2214 10.4206 0.0000
vt -15.9477 10.4206 0.0000
vt -17.4768 10.4206 0.0000
vt -16.2215 9.5628 0.0000
vt -15.9477 9.5627 0.0000
vt -16.2215 8.8232 0.0000
vt -15.9477 8.8232 0.0000
vt -17.4768 9.5627 0.0000
vt -17.4769 8.8232 0.0000
vt -16.2215 7.9404 0.0000
vt -15.9477 7.9404 0.0000
vt -17.8748 9.5628 0.0000
vt -17.8749 8.8231 0.0000
vt -16.2214 7.3969 0.0000
vt -15.9477 7.3970 0.0000
vt -18.2605 9.5628 0.0000
vt -18.2605 8.8231 0.0000
vt -17.8749 7.9403 0.0000
vt -17.4769 7.9404 0.0000
vt -17.4768 7.3969 0.0000
vt -18.7581 9.5627 0.0000
vt -18.7581 8.8231 0.0000
vt -18.2605 7.9403 0.0000
vt -17.8749 7.3969 0.0000
vt -18.7581 7.9403 0.0000
vt -18.7582 10.4194 0.0000
vt -18.2606 10.4140 0.0000
vt -18.2605 7.3968 0.0000
vt -18.7581 7.3968 0.0000
vt -9.8251 7.7134 0.0000
vt -17.8749 10.4140 0.0000
vt -17.4769 10.4206 0.0000
vt -6.1232 8.7453 0.0000
vt -6.1233 7.8989 0.0000
vt -6.1133 7.8989 0.0000
vt -7.4558 1.6245 0.0000
vt -7.0577 1.8705 0.0000
vt -9.2368 5.3963 0.0000
vt -9.6349 5.1503 0.0000
vt -5.8023 2.6464 0.0000
vt -7.9814 6.1722 0.0000
vt -7.8414 1.3862 0.0000
vt -10.0204 4.9120 0.0000
vt -5.5286 2.8156 0.0000
vt -7.7077 6.3414 0.0000
vt -10.5181 4.6044 0.0000
vt -8.3390 1.0786 0.0000
vt -8.4379 1.0175 0.0000
vt -10.6169 4.5433 0.0000
vt -8.3346 1.0715 0.0000
vt -8.4334 1.0104 0.0000
vt -19.3762 3.6756 0.0000
vt -19.3762 3.2776 0.0000
vt -16.1681 3.8891 0.0000
vt -16.1681 4.2871 0.0000
vt -19.3762 2.0222 0.0000
vt -16.1681 2.6337 0.0000
vt -19.3762 4.0612 0.0000
vt -16.1681 4.6727 0.0000
vt -19.3762 1.7484 0.0000
vt -16.1681 2.3599 0.0000
vt -16.1681 5.1703 0.0000
vt -19.3762 4.5588 0.0000
vt -19.3762 4.6577 0.0000
vt -16.1681 5.2692 0.0000
vt -15.0175 0.5008 0.0000
vt -15.4156 0.7468 0.0000
vt -18.1163 -3.6231 0.0000
vt -17.7183 -3.8691 0.0000
vt -19.3717 -2.8472 0.0000
vt -16.6710 1.5227 0.0000
vt -14.6319 0.2625 0.0000
vt -17.3327 -4.1074 0.0000
vt -16.9447 1.6919 0.0000
vt -19.6455 -2.6780 0.0000
vt -16.8351 -4.4149 0.0000
vt -14.1343 -0.0451 0.0000
vt -14.0354 -0.1062 0.0000
vt -16.7362 -4.4760 0.0000
vt -16.8395 -4.4221 0.0000
vt -16.7406 -4.4832 0.0000
vt -18.2606 10.7709 0.0000
vt -6.1132 8.7453 0.0000
vt -6.1232 8.4528 0.0000
vt -6.1133 8.4528 0.0000
vt -14.5600 7.0294 0.0000
vt -14.5600 6.6851 0.0000
vt -14.5600 6.3882 0.0000
vt -14.5600 7.1621 0.0000
vt -14.5600 6.0339 0.0000
vt -14.5600 7.5398 0.0000
vt -14.5600 5.8158 0.0000
vt -14.5600 8.1458 0.0000
vt -14.5600 8.5172 0.0000
vt -14.5600 9.0184 0.0000
vt -14.4611 8.5172 0.0000
vt -14.4611 9.0184 0.0000
vt -9.6340 8.0040 0.0000
vt -9.6341 7.7134 0.0000
vt -9.6170 7.7134 0.0000
vt -9.6170 8.0040 0.0000
vt -7.3877 8.1066 0.0000
vt -7.6260 7.7210 0.0000
vt -7.6136 7.7134 0.0000
vt -7.3753 8.0990 0.0000
vt -9.7382 8.0040 0.0000
vt -9.7380 7.7134 0.0000
vt -9.7211 7.7134 0.0000
vt -9.7211 8.0040 0.0000
vt -7.7252 8.1066 0.0000
vt -7.9635 7.7210 0.0000
vt -7.9513 7.7134 0.0000
vt -7.7130 8.0990 0.0000
vt -9.2331 8.0140 0.0000
vt -9.2331 7.7134 0.0000
vt -9.2127 7.7134 0.0000
vt -9.2127 8.0140 0.0000
vt -7.2883 8.0990 0.0000
vt -7.0500 7.7134 0.0000
vt -7.0353 7.7225 0.0000
vt -7.2736 8.1081 0.0000
vt -9.3404 8.0140 0.0000
vt -9.3404 7.7134 0.0000
vt -9.3201 7.7134 0.0000
vt -9.3200 8.0140 0.0000
vt -6.9483 8.0990 0.0000
vt -6.7100 7.7134 0.0000
vt -6.6953 7.7225 0.0000
vt -6.9336 8.1081 0.0000
vt -8.8338 7.7134 0.0000
vt -8.8338 8.0293 0.0000
vt -8.8415 8.0293 0.0000
vt -8.8415 7.7134 0.0000
vt -7.8672 6.4014 0.0000
vt -8.6431 7.6568 0.0000
vt -8.6487 7.6533 0.0000
vt -7.8728 6.3979 0.0000
vt -8.9285 7.7134 0.0000
vt -8.9285 8.0293 0.0000
vt -8.9362 8.0293 0.0000
vt -8.9362 7.7134 0.0000
vt -6.0993 6.4014 0.0000
vt -6.8752 7.6568 0.0000
vt -6.8808 7.6533 0.0000
vt -6.1049 6.3979 0.0000
vt -8.6442 7.7134 0.0000
vt -8.6442 8.0346 0.0000
vt -8.6520 8.0346 0.0000
vt -8.6520 7.7134 0.0000
vt -10.5190 6.5515 0.0000
vt -11.2949 7.8069 0.0000
vt -11.3005 7.8034 0.0000
vt -10.5246 6.5480 0.0000
vt -8.7390 7.7134 0.0000
vt -8.7390 8.0346 0.0000
vt -8.7468 8.0346 0.0000
vt -8.7468 7.7134 0.0000
vt -12.2868 6.5515 0.0000
vt -13.0627 7.8069 0.0000
vt -13.0684 7.8034 0.0000
vt -12.2925 6.5480 0.0000
vt -9.4274 7.7134 0.0000
vt -9.4275 8.0063 0.0000
vt -9.4352 8.0063 0.0000
vt -9.4352 7.7134 0.0000
vt -6.9833 6.4014 0.0000
vt -7.7591 7.6568 0.0000
vt -7.7647 7.6533 0.0000
vt -6.9889 6.3979 0.0000
vt -9.5223 7.7134 0.0000
vt -9.5222 8.0063 0.0000
vt -9.5300 8.0063 0.0000
vt -9.5300 7.7134 0.0000
vt -11.4029 6.5515 0.0000
vt -12.1788 7.8069 0.0000
vt -12.1844 7.8034 0.0000
vt -11.4086 6.5480 0.0000
vt -9.0232 7.7134 0.0000
vt -9.0232 8.0148 0.0000
vt -9.0310 8.0148 0.0000
vt -9.0310 7.7134 0.0000
vt -9.6350 6.4014 0.0000
vt -10.4109 7.6568 0.0000
vt -10.4166 7.6533 0.0000
vt -9.6407 6.3979 0.0000
vt -9.1180 7.7134 0.0000
vt -9.1180 8.0148 0.0000
vt -9.1258 8.0148 0.0000
vt -9.1258 7.7134 0.0000
vt -8.7511 6.4014 0.0000
vt -9.5270 7.6568 0.0000
vt -9.5326 7.6533 0.0000
vt -8.7567 6.3979 0.0000
vt -11.1302 1.6189 0.0000
vt -10.7039 1.6189 0.0000
vt -10.7381 1.8900 0.0000
vt -11.2045 1.8931 0.0000
vt -11.1302 1.6090 0.0000
vt -10.7039 1.6090 0.0000
vt -10.7039 6.4914 0.0000
vt -10.7408 6.2628 0.0000
vt -11.4461 1.6189 0.0000
vt -11.4461 1.6090 0.0000
vt -11.9617 1.6190 0.0000
vt -11.9617 1.6091 0.0000
vt -11.4961 1.8954 0.0000
vt -11.9722 1.8994 0.0000
vt -12.2829 1.6189 0.0000
vt -12.2829 1.6090 0.0000
vt -12.2688 1.9018 0.0000
vt -12.3958 1.6190 0.0000
vt -12.3958 1.6091 0.0000
vt -12.3730 1.9026 0.0000
vt -12.6887 1.6189 0.0000
vt -12.6887 1.6090 0.0000
vt -12.6435 1.9047 0.0000
vt -12.9412 1.6189 0.0000
vt -12.9412 1.6090 0.0000
vt -12.8766 1.9066 0.0000
vt -13.2426 1.6189 0.0000
vt -13.2426 1.6090 0.0000
vt -13.1549 1.9088 0.0000
vt -13.4281 1.6190 0.0000
vt -13.4281 1.6091 0.0000
vt -13.3944 1.9103 0.0000
vt -11.1957 0.3892 0.0000
vt -13.9247 1.5524 0.0000
vt -13.8939 1.2248 0.0000
vt -11.2327 0.1606 0.0000
vt -13.9200 -4.4832 0.0000
vt -13.8862 -4.1919 0.0000
vt -8.5572 8.0293 0.0000
vt -8.5572 7.7134 0.0000
vt -8.2830 7.7876 0.0000
vt -8.2807 8.0793 0.0000
vt -13.4228 9.1225 0.0000
vt -13.4244 9.6706 0.0000
vt -13.5656 9.6706 0.0000
vt -13.5639 9.1225 0.0000
vt -13.4216 8.7796 0.0000
vt -13.5627 8.7796 0.0000
vt -13.4195 8.2199 0.0000
vt -13.5606 8.2199 0.0000
vt -13.4182 7.8713 0.0000
vt -13.5594 7.8713 0.0000
vt -13.4178 7.7487 0.0000
vt -13.5590 7.7487 0.0000
vt -13.4167 7.4308 0.0000
vt -13.5578 7.4308 0.0000
vt -13.4157 7.1567 0.0000
vt -13.5569 7.1567 0.0000
vt -13.4145 6.8295 0.0000
vt -13.5557 6.8295 0.0000
vt -13.4138 6.5480 0.0000
vt -13.5549 6.5480 0.0000
vt -19.5043 5.3258 0.0000
vt -17.5479 8.4914 0.0000
vt -17.6890 8.5786 0.0000
vt -19.6455 5.4130 0.0000
vt -14.3667 8.9443 0.0000
vt -13.8072 5.8158 0.0000
vt -13.6660 5.8158 0.0000
vt -14.2255 8.9443 0.0000
vt -13.6563 5.7592 0.0000
vt -16.0811 1.8357 0.0000
vt -15.9400 1.7484 0.0000
vt -13.5151 5.6720 0.0000
vt -9.8351 7.7134 0.0000
vt -18.7582 11.6855 0.0000
vt -9.8252 7.8278 0.0000
vt -9.8351 7.8278 0.0000
vt -18.7582 10.7546 0.0000
vt -6.1233 8.2003 0.0000
vt -6.1133 8.2003 0.0000
vt -6.1231 7.7134 0.0000
vt -13.2832 6.5480 0.0000
vt -13.2831 6.7661 0.0000
vt -13.2831 7.1205 0.0000
vt -13.2831 7.4173 0.0000
vt -13.2832 7.7611 0.0000
vt -13.2831 7.8956 0.0000
vt -13.2832 8.2692 0.0000
vt -13.2831 8.8780 0.0000
vt -13.2831 9.2494 0.0000
vt -13.1689 7.6996 0.0000
vt -13.1689 8.1259 0.0000
vt -13.1788 8.1259 0.0000
vt -13.1789 7.6996 0.0000
vt -13.1689 7.3837 0.0000
vt -13.1789 7.3837 0.0000
vt -13.1688 6.8658 0.0000
vt -13.1788 6.8658 0.0000
vt -13.1689 6.5480 0.0000
vt -13.1788 6.5480 0.0000
vt -6.1132 7.7134 0.0000
vt 0.3750 0.0000 0.0000
vt 0.6250 0.0000 0.0000
vt 0.6250 0.2500 0.0000
vt 0.3750 0.2500 0.0000
vt 0.6250 0.5000 0.0000
vt 0.3750 0.5000 0.0000
vt 0.6250 0.7500 0.0000
vt 0.3750 0.7500 0.0000
vt 0.6250 1.0000 0.0000
vt 0.3750 1.0000 0.0000
vt 0.8750 0.0000 0.0000
vt 0.8750 0.2500 0.0000
vt 0.1250 0.0000 0.0000
vt 0.1250 0.2500 0.0000
vt 0.3750 0.0000 0.0000
vt 0.6250 0.0000 0.0000
vt 0.6250 0.2500 0.0000
vt 0.3750 0.2500 0.0000
vt 0.6250 0.5000 0.0000
vt 0.3750 0.5000 0.0000
vt 0.6250 0.7500 0.0000
vt 0.3750 0.7500 0.0000
vt 0.6250 1.0000 0.0000
vt 0.3750 1.0000 0.0000
vt 0.8750 0.0000 0.0000
vt 0.8750 0.2500 0.0000
vt 0.1250 0.0000 0.0000
vt 0.1250 0.2500 0.0000
vt 0.3750 0.0000 0.0000
vt 0.6250 0.0000 0.0000
vt 0.6250 0.2500 0.0000
vt 0.3750 0.2500 0.0000
vt 0.6250 0.5000 0.0000
vt 0.3750 0.5000 0.0000
vt 0.6250 0.7500 0.0000
vt 0.3750 0.7500 0.0000
vt 0.6250 1.0000 0.0000
vt 0.3750 1.0000 0.0000
vt 0.8750 0.0000 0.0000
vt 0.8750 0.2500 0.0000
vt 0.1250 0.0000 0.0000
vt 0.1250 0.2500 0.0000
vt 0.3750 0.0000 0.0000
vt 0.6250 0.0000 0.0000
vt 0.6250 0.2500 0.0000
vt 0.3750 0.2500 0.0000
vt 0.6250 0.5000 0.0000
vt 0.3750 0.5000 0.0000
vt 0.6250 0.7500 0.0000
vt 0.3750 0.7500 0.0000
vt 0.6250 1.0000 0.0000
vt 0.3750 1.0000 0.0000
vt 0.8750 0.0000 0.0000
vt 0.8750 0.2500 0.0000
vt 0.1250 0.0000 0.0000
vt 0.1250 0.2500 0.0000
vt 0.3750 0.0000 0.0000
vt 0.6250 0.0000 0.0000
vt 0.6250 0.2500 0.0000
vt 0.3750 0.2500 0.0000
vt 0.6250 0.5000 0.0000
vt 0.3750 0.5000 0.0000
vt 0.6250 0.7500 0.0000
vt 0.3750 0.7500 0.0000
vt 0.6250 1.0000 0.0000
vt 0.3750 1.0000 0.0000
vt 0.8750 0.0000 0.0000
vt 0.8750 0.2500 0.0000
vt 0.1250 0.0000 0.0000
vt 0.1250 0.2500 0.0000
vt 0.3750 0.0000 0.0000
vt 0.6250 0.0000 0.0000
vt 0.6250 0.2500 0.0000
vt 0.3750 0.2500 0.0000
vt 0.6250 0.5000 0.0000
vt 0.3750 0.5000 0.0000
vt 0.6250 0.7500 0.0000
vt 0.3750 0.7500 0.0000
vt 0.6250 1.0000 0.0000
vt 0.3750 1.0000 0.0000
vt 0.8750 0.0000 0.0000
vt 0.8750 0.2500 0.0000
vt 0.1250 0.0000 0.0000
vt 0.1250 0.2500 0.0000
vt 0.3750 0.0000 0.0000
vt 0.6250 0.0000 0.0000
vt 0.6250 0.2500 0.0000
vt 0.3750 0.2500 0.0000
vt 0.6250 0.5000 0.0000
vt 0.3750 0.5000 0.0000
vt 0.6250 0.7500 0.0000
vt 0.3750 0.7500 0.0000
vt 0.6250 1.0000 0.0000
vt 0.3750 1.0000 0.0000
vt 0.8750 0.0000 0.0000
vt 0.8750 0.2500 0.0000
vt 0.1250 0.0000 0.0000
vt 0.1250 0.2500 0.0000
vt 0.3750 0.0000 0.0000
vt 0.6250 0.0000 0.0000
vt 0.6250 0.2500 0.0000
vt 0.3750 0.2500 0.0000
vt 0.6250 0.5000 0.0000
vt 0.3750 0.5000 0.0000
vt 0.6250 0.7500 0.0000
vt 0.3750 0.7500 0.0000
vt 0.6250 1.0000 0.0000
vt 0.3750 1.0000 0.0000
vt 0.8750 0.0000 0.0000
vt 0.8750 0.2500 0.0000
vt 0.1250 0.0000 0.0000
vt 0.1250 0.2500 0.0000
vt -2.7310 -0.9265 0.0481
vt -2.7270 -1.5138 -0.1379
vt -2.7222 -2.2147 -0.3599
vt -2.7188 -2.8179 -0.5510
vt 4.7787 -2.8328 -0.5557
vt 3.2898 3.8691 1.5672
vt -2.7628 3.8723 1.5682
vt -2.7556 2.6979 1.1962
vt -2.7507 1.9633 0.9635
vt -2.7424 0.7642 0.5837
vt -2.7373 0.0172 0.3471
vt -2.7355 -0.2454 0.2639
# 470 texture coords

g polySurface1
usemtl lambert5SG
s 1
f 1/28/1 2/27/1 3/26/1 4/25/1 
usemtl lambert3SG
s off
f 5/4/1 6/3/1 7/2/1 8/1/1 
usemtl lambert5SG
s 1
f 9/37/2 10/44/2 11/43/3 12/36/4 
f 13/61/2 14/65/2 15/71/2 16/70/2 
usemtl lambert4SG
s off
f 17/8/1 18/7/1 19/6/1 20/5/1 
usemtl lambert5SG
s 1
f 21/50/2 22/52/2 23/54/2 24/49/5 
usemtl lambert4SG
s off
f 25/12/1 26/11/1 27/10/1 28/9/1 
usemtl lambert5SG
s 1
f 29/55/1 30/57/1 31/60/1 32/59/1 
usemtl lambert3SG
s off
f 33/16/1 34/15/1 35/14/1 36/13/1 
usemtl lambert5SG
s 1
f 4/25/1 3/26/1 37/30/1 38/29/1 
f 3/26/1 12/36/4 39/35/4 37/30/1 
f 11/43/3 40/42/3 39/35/4 12/36/4 
f 24/49/5 41/48/5 40/42/3 11/43/3 
f 24/49/5 23/83/2 42/82/2 41/48/5 
f 32/59/1 43/63/1 42/82/2 23/83/2 
f 32/59/1 31/60/1 44/64/1 43/63/1 
f 31/60/1 16/70/2 45/69/2 44/64/1 
f 16/70/2 15/71/2 46/75/2 45/69/2 
s 6
f 47/90/6 48/89/6 4/88/6 38/87/6 
f 48/89/6 49/92/6 1/91/6 4/88/6 
s 7
f 50/106/7 51/105/7 48/104/7 47/103/7 
s off
f 51/105/7 52/108/7 49/107/7 48/104/7 
s 8
f 46/120/8 15/119/8 51/118/8 50/117/8 
s off
f 52/122/8 51/118/8 15/119/8 14/121/8 
usemtl lambert2SG
f 53/20/1 54/19/1 55/18/1 56/17/1 
usemtl lambert5SG
s 1
f 43/63/1 44/64/1 57/68/1 58/67/4 
f 44/64/1 45/69/2 59/74/2 57/68/1 
f 45/69/2 46/75/2 60/79/2 59/74/2 
s 8
f 60/124/8 46/120/8 50/117/8 61/123/8 
s 7
f 61/110/7 50/106/7 47/103/7 62/109/7 
s 6
f 62/94/6 47/90/6 38/87/6 63/93/6 
s 1
f 38/29/1 37/30/1 64/34/1 63/33/1 
f 37/30/1 39/35/4 65/41/1 64/34/1 
f 39/35/4 40/42/3 66/47/1 65/41/1 
usemtl lambert2SG
s off
f 67/24/1 68/23/1 69/22/1 70/21/1 
usemtl lambert5SG
s 1
f 41/48/5 42/82/2 71/78/5 72/133/2 
usemtl lambert6SG
s 9
f 73/331/9 74/330/1 75/138/1 76/137/9 
f 74/330/1 77/329/1 78/139/1 75/138/1 
f 77/329/1 79/328/2 80/141/2 78/139/1 
f 79/328/2 81/327/10 82/143/10 80/141/2 
s 8
f 83/127/11 84/128/8 85/129/8 86/130/12 
s 7
f 84/113/7 87/114/7 88/115/7 85/116/7 
s 6
f 87/97/6 89/98/13 90/99/14 88/100/6 
s 9
f 91/148/1 92/147/1 93/145/1 94/146/1 
f 92/335/1 95/334/1 96/144/1 93/145/1 
f 95/334/1 97/333/9 98/142/9 96/144/1 
f 97/333/9 99/332/9 100/140/9 98/142/9 
f 73/331/9 76/137/9 100/140/9 99/332/9 
usemtl lambert5SG
s off
f 56/152/15 55/151/15 58/150/15 71/149/15 
f 55/156/16 54/155/16 43/154/16 58/153/16 
f 54/160/17 53/159/17 42/158/17 43/157/17 
f 53/164/18 56/163/18 71/162/18 42/161/18 
f 70/168/19 69/167/19 72/166/19 66/165/19 
f 69/172/20 68/171/20 41/170/20 72/169/20 
f 68/176/17 67/175/17 40/174/17 41/173/17 
f 67/180/21 70/179/21 66/178/21 40/177/21 
f 8/184/22 7/183/22 12/182/22 3/181/22 
f 7/188/23 6/187/23 9/186/23 12/185/23 
f 6/192/24 5/191/24 2/190/24 9/189/24 
f 5/196/25 8/195/25 3/194/25 2/193/25 
f 20/200/22 19/199/22 24/198/22 11/197/22 
f 19/204/26 18/203/26 21/202/26 24/201/26 
f 18/208/27 17/207/27 10/206/27 21/205/27 
f 17/212/20 20/211/20 11/210/20 10/209/20 
f 28/216/22 27/215/22 32/214/22 23/213/22 
f 27/220/28 26/219/28 29/218/28 32/217/28 
f 26/224/29 25/223/29 22/222/29 29/221/29 
f 25/228/30 28/227/30 23/226/30 22/225/30 
f 36/232/22 35/231/22 16/230/22 31/229/22 
f 35/236/31 34/235/31 13/234/31 16/233/31 
f 34/240/29 33/239/29 30/238/29 13/237/29 
f 33/244/32 36/243/32 31/242/32 30/241/32 
usemtl lambert7SG
f 101/459/33 102/460/33 103/461/33 104/465/33 
f 105/463/33 104/465/33 103/461/33 106/462/33 
f 105/463/33 107/464/33 104/465/33 
f 108/469/33 101/459/33 104/465/33 109/468/33 
f 110/467/33 109/468/33 104/465/33 111/466/33 
f 101/459/33 108/469/33 112/470/33 
usemtl lambert6SG
s 12
f 113/247/17 90/246/33 114/245/33 115/248/17 
f 113/247/17 116/252/17 88/251/17 90/246/33 
f 116/280/17 117/279/17 85/278/17 88/277/17 
f 117/279/17 118/282/17 86/281/33 85/278/17 
f 118/276/17 119/273/17 120/271/17 86/274/33 
f 119/273/17 121/270/17 122/268/17 120/271/17 
f 121/270/17 123/267/17 124/265/33 122/268/17 
f 123/267/17 125/264/17 126/262/33 124/265/33 
f 125/264/17 127/261/17 128/259/33 126/262/33 
f 127/261/17 129/258/33 130/255/22 128/259/33 
f 131/257/33 132/253/17 130/255/22 129/258/33 
f 115/285/17 114/284/33 132/283/17 131/286/33 
s off
f 111/290/34 104/289/34 113/288/34 115/287/34 
f 104/310/35 107/309/35 116/308/35 113/307/35 
f 107/314/36 105/313/36 117/312/36 116/311/36 
f 105/318/37 106/317/37 118/316/37 117/315/37 
f 106/306/38 103/304/38 119/303/38 118/305/38 
f 103/304/39 102/302/39 121/301/39 119/303/39 
f 102/302/39 101/300/39 123/299/39 121/301/39 
f 101/300/40 112/298/40 125/297/40 123/299/40 
f 112/298/39 108/296/39 127/295/39 125/297/39 
f 108/296/39 109/294/39 129/293/39 127/295/39 
f 109/294/39 110/292/39 131/291/39 129/293/39 
f 110/292/39 111/290/39 115/287/39 131/291/39 
usemtl lambert5SG
f 133/32/1 134/31/1 2/27/1 1/28/1 
f 134/31/1 135/38/1 9/37/1 2/27/1 
f 135/38/2 136/45/2 10/44/2 9/37/2 
f 136/45/1 137/51/1 21/50/1 10/44/1 
f 137/51/10 138/53/10 22/52/10 21/50/10 
f 138/53/41 139/56/41 29/55/41 22/52/41 
f 139/56/1 140/58/1 30/57/1 29/55/1 
f 140/58/1 141/62/1 13/61/1 30/57/1 
f 141/62/2 142/66/2 14/65/2 13/61/2 
f 143/96/6 133/95/6 1/91/6 49/92/6 
f 144/112/7 143/111/7 49/107/7 52/108/7 
f 142/126/8 144/125/8 52/122/8 14/121/8 
s 1
f 65/41/1 66/47/1 145/320/9 146/46/1 
f 64/34/1 65/41/1 146/46/1 147/40/1 
f 63/33/1 64/34/1 147/40/1 89/39/1 
s 6
f 62/94/6 63/93/6 89/98/13 87/97/6 
s 7
f 61/110/7 62/109/7 87/114/7 84/113/7 
s 8
f 60/124/8 61/123/8 84/128/8 83/127/11 
s 1
f 59/74/2 60/79/2 83/80/2 148/76/2 
f 57/68/1 59/74/2 148/76/2 149/73/1 
f 58/67/4 57/68/1 149/73/1 150/72/4 
f 71/78/5 58/67/4 150/72/4 151/77/4 
f 71/78/5 151/77/4 152/323/2 72/133/2 
f 66/47/1 72/133/2 152/323/2 145/320/9 
usemtl lambert6SG
s 12
f 76/263/42 75/266/42 124/265/33 126/262/33 
f 75/266/42 78/269/17 122/268/17 124/265/33 
f 78/269/17 80/272/17 120/271/17 122/268/17 
f 80/272/17 82/275/42 86/274/33 120/271/17 
s 8
f 81/131/43 83/127/11 86/130/12 82/132/43 
s 12
f 94/250/42 93/249/42 114/245/33 90/246/33 
f 93/249/42 96/254/17 132/253/17 114/245/33 
f 96/254/17 98/256/22 130/255/22 132/253/17 
f 98/256/22 100/260/33 128/259/33 130/255/22 
f 100/260/33 76/263/42 126/262/33 128/259/33 
s 13
f 92/339/19 91/338/19 89/337/19 147/336/19 
s 6
f 90/99/14 89/98/13 91/101/44 94/102/44 
s 13
f 81/326/24 79/85/15 148/86/15 83/346/24 
f 79/85/15 77/324/19 149/325/19 148/86/15 
f 77/324/19 74/135/19 150/136/19 149/325/19 
f 74/135/19 73/84/15 151/134/15 150/136/19 
f 73/319/15 99/322/29 152/321/29 151/81/15 
f 99/345/29 97/343/24 145/342/24 152/344/29 
f 97/343/24 95/341/19 146/340/19 145/342/24 
f 95/341/19 92/339/19 147/336/19 146/340/19 
usemtl lambert7SG
s off
f 153/350/33 154/347/33 155/348/33 156/349/33 
f 157/352/1 158/351/1 156/349/1 153/350/1 
f 154/356/1 159/354/1 160/353/1 155/355/1 
f 156/349/45 155/348/45 160/357/45 158/358/45 
f 157/360/6 159/359/6 154/347/6 153/350/6 
f 161/364/17 162/361/17 163/362/17 164/363/17 
f 165/366/1 166/365/1 164/363/1 161/364/1 
f 162/370/1 167/368/1 168/367/1 163/369/1 
f 164/363/45 163/362/45 168/371/45 166/372/45 
f 165/374/6 167/373/6 162/361/6 161/364/6 
f 169/378/33 170/375/33 171/376/33 172/377/33 
f 173/380/1 174/379/1 172/377/1 169/378/1 
f 170/384/1 175/382/1 176/381/1 171/383/1 
f 172/377/45 171/376/45 176/385/45 174/386/45 
f 173/388/6 175/387/6 170/375/6 169/378/6 
f 177/392/33 178/389/33 179/390/33 180/391/33 
f 181/394/1 182/393/1 180/391/1 177/392/1 
f 178/398/1 183/396/1 184/395/1 179/397/1 
f 180/391/45 179/390/45 184/399/45 182/400/45 
f 181/402/6 183/401/6 178/389/6 177/392/6 
f 185/406/33 186/403/33 187/404/33 188/405/33 
f 189/408/1 190/407/1 188/405/1 185/406/1 
f 186/412/1 191/410/1 192/409/1 187/411/1 
f 188/405/45 187/404/45 192/413/45 190/414/45 
f 189/416/6 191/415/6 186/403/6 185/406/6 
f 193/420/33 194/417/33 195/418/33 196/419/33 
f 197/422/1 198/421/1 196/419/1 193/420/1 
f 194/426/1 199/424/1 200/423/1 195/425/1 
f 196/419/45 195/418/45 200/427/45 198/428/45 
f 197/430/6 199/429/6 194/417/6 193/420/6 
f 201/434/33 202/431/33 203/432/33 204/433/33 
f 205/436/1 206/435/1 204/433/1 201/434/1 
f 202/440/1 207/438/1 208/437/1 203/439/1 
f 204/433/45 203/432/45 208/441/45 206/442/45 
f 205/444/6 207/443/6 202/431/6 201/434/6 
f 209/448/33 210/445/33 211/446/33 212/447/33 
f 213/450/1 214/449/1 212/447/1 209/448/1 
f 210/454/1 215/452/1 216/451/1 211/453/1 
f 212/447/45 211/446/45 216/455/45 214/456/45 
f 213/458/6 215/457/6 210/445/6 209/448/6 
# 184 polygons - 2 triangles

