# 3ds Max Wavefront OBJ Exporter v0.97b - (c)2007 guruware
# File Created: 05.02.2012 19:29:41

mtllib Rataskaevu_22_2.mtl

#
# object Rataskaevu_22_2
#

v  -202.586960 -78.980080 36.582249
v  -197.649155 -81.520805 32.676277
v  -195.487274 -82.633186 28.889875
v  -196.275635 -82.771561 28.889875
v  -196.431229 -82.147484 24.784620
v  -202.586975 -78.980072 24.784620
v  -207.458862 -100.585617 32.844490
v  -205.296982 -101.697998 28.889877
v  -205.864014 -101.406235 28.889877
v  -212.952057 -97.759109 25.343977
v  -212.952057 -97.759109 36.750462
v  -205.864014 -101.406235 25.343977
v  -208.143677 -88.363853 36.582249
v  -208.143707 -88.363861 24.784620
v  -204.897400 -100.921410 28.889875
v  -212.552475 -96.982529 36.582249
v  -205.296982 -101.697998 29.083464
v  -204.897400 -100.921410 29.083464
v  -207.059280 -99.809029 32.844490
v  -212.552490 -96.982529 36.750462
v  -207.059280 -99.809021 32.676277
v  -206.913422 -96.187843 33.010963
v  -207.264450 -96.904137 33.010963
v  -207.730743 -97.855614 33.010963
v  -207.730743 -97.855629 33.649239
v  -207.690277 -97.773041 34.052162
v  -207.576874 -97.541641 34.375282
v  -207.413025 -97.207275 34.554600
v  -207.231140 -96.836159 34.554600
v  -207.067276 -96.501816 34.375282
v  -206.953888 -96.270393 34.052162
v  -206.913437 -96.187820 33.649239
v  -208.772583 -95.241898 33.010963
v  -209.589890 -96.909691 33.010963
v  -209.589890 -96.909683 33.649239
v  -209.549454 -96.827103 34.052162
v  -209.436066 -96.595695 34.375282
v  -209.272186 -96.261337 34.554600
v  -209.090317 -95.890221 34.554600
v  -208.926453 -95.555862 34.375282
v  -208.813065 -95.324486 34.052162
v  -208.772583 -95.241898 33.649239
v  -205.206848 -92.871193 33.010963
v  -205.557892 -93.587486 33.010963
v  -206.024170 -94.538963 33.010963
v  -206.024185 -94.538979 33.649239
v  -205.983704 -94.456390 34.052162
v  -205.870300 -94.224991 34.375282
v  -205.706467 -93.890625 34.554600
v  -205.524582 -93.519516 34.554600
v  -205.360718 -93.185165 34.375282
v  -205.247314 -92.953743 34.052162
v  -205.206863 -92.871170 33.649239
v  -207.066010 -91.925247 33.010963
v  -207.883316 -93.593040 33.010963
v  -207.883331 -93.593033 33.649239
v  -207.842880 -93.510452 34.052162
v  -207.729492 -93.279045 34.375282
v  -207.565628 -92.944687 34.554600
v  -207.383743 -92.573578 34.554600
v  -207.219894 -92.239212 34.375282
v  -207.106506 -92.007843 34.052162
v  -207.066010 -91.925247 33.649239
v  -201.750854 -86.154579 33.010963
v  -202.101883 -86.870872 33.010963
v  -202.568176 -87.822350 33.010963
v  -202.568176 -87.822365 33.649239
v  -202.527710 -87.739777 34.052162
v  -202.414307 -87.508377 34.375282
v  -202.250458 -87.174011 34.554600
v  -202.068573 -86.802902 34.554600
v  -201.904724 -86.468552 34.375282
v  -201.791321 -86.237137 34.052162
v  -201.750870 -86.154556 33.649239
v  -203.610016 -85.208633 33.010963
v  -204.427322 -86.876427 33.010963
v  -204.427338 -86.876419 33.649239
v  -204.386887 -86.793846 34.052162
v  -204.273499 -86.562431 34.375282
v  -204.109634 -86.228073 34.554600
v  -203.927750 -85.856964 34.554600
v  -203.763885 -85.522598 34.375282
v  -203.650497 -85.291229 34.052162
v  -203.610016 -85.208633 33.649239
v  -200.086624 -82.920212 33.010963
v  -200.437653 -83.636505 33.010963
v  -200.903946 -84.587982 33.010963
v  -200.903946 -84.587990 33.649239
v  -200.863480 -84.505409 34.052162
v  -200.750076 -84.274010 34.375282
v  -200.586227 -83.939636 34.554600
v  -200.404343 -83.568527 34.554600
v  -200.240494 -83.234184 34.375282
v  -200.127090 -83.002762 34.052162
v  -200.086639 -82.920189 33.649239
v  -201.945786 -81.974266 33.010963
v  -202.763092 -83.642059 33.010963
v  -202.763107 -83.642052 33.649239
v  -202.722656 -83.559471 34.052162
v  -202.609268 -83.328064 34.375282
v  -202.445404 -82.993706 34.554600
v  -202.263519 -82.622589 34.554600
v  -202.099655 -82.288223 34.375282
v  -201.986267 -82.056854 34.052162
v  -201.945786 -81.974266 33.649239
v  -199.305511 -87.792038 32.412369
v  -198.151917 -85.546234 32.412369
v  -201.450165 -86.692230 32.412369
v  -200.296555 -84.446365 32.412369
v  -198.724533 -86.660805 33.156746
v  -200.869125 -85.560966 33.156746
v  -198.597092 -86.412766 32.991089
v  -200.744614 -85.318573 32.994858
v  -201.000870 -85.817482 32.987942
v  -198.853394 -86.911705 32.991646
v  -201.450180 -86.692245 30.458069
v  -200.296585 -84.446411 30.458069
v  -199.305527 -87.792038 30.458069
v  -198.151947 -85.546242 30.458069
v  -198.724564 -86.660820 30.458069
v  -201.904755 -92.843559 32.412369
v  -200.751160 -90.597763 32.412369
v  -204.049393 -91.743759 32.412369
v  -202.895782 -89.497887 32.412369
v  -201.323776 -91.712326 33.156746
v  -203.468369 -90.612488 33.156746
v  -201.196335 -91.464294 32.991089
v  -203.343842 -90.370094 32.994858
v  -203.600113 -90.869011 32.987942
v  -201.452621 -91.963226 32.991646
v  -204.049408 -91.743767 30.458069
v  -202.895828 -89.497940 30.458069
v  -201.904755 -92.843567 30.458069
v  -200.751190 -90.597763 30.458069
v  -201.323792 -91.712341 30.458069
v  -204.513596 -97.913773 32.412369
v  -203.360001 -95.667969 32.412369
v  -206.658249 -96.813965 32.412369
v  -205.504639 -94.568100 32.412369
v  -203.932632 -96.782539 33.156746
v  -206.077209 -95.682693 33.156746
v  -203.805176 -96.534500 32.991089
v  -205.952698 -95.440300 32.994858
v  -206.208969 -95.939217 32.987942
v  -204.061478 -97.033432 32.991646
v  -206.658264 -96.813980 30.458069
v  -205.504669 -94.568146 30.458069
v  -204.513611 -97.913773 30.458069
v  -203.360031 -95.667969 30.458069
v  -203.932648 -96.782555 30.458069
v  -207.050812 -88.055977 37.056683
v  -206.573563 -87.205070 37.056683
v  -207.222107 -86.841339 37.056683
v  -207.699341 -87.692215 37.056683
v  -206.573563 -87.205070 35.791485
v  -207.222107 -86.841339 35.791485
v  -207.050812 -88.055977 35.791485
v  -207.699341 -87.692215 35.791485
v  -208.262787 -98.777267 34.515850
v  -207.872589 -98.039658 34.515850
v  -208.678101 -97.617073 34.515850
v  -209.068344 -98.354645 34.515850
v  -207.872589 -98.039658 33.250652
v  -208.678101 -97.617073 33.250652
v  -208.262787 -98.777267 33.250652
v  -209.068344 -98.354645 33.250652
v  -203.138504 -89.543488 36.637024
v  -202.543808 -89.802345 36.637024
v  -202.879639 -88.948799 36.637024
v  -202.284958 -89.207649 36.637024
v  -202.879639 -88.948799 32.186714
v  -202.284927 -89.207657 32.186714
v  -203.138489 -89.543465 32.186714
v  -202.543762 -89.802330 32.186714
v  -204.018143 -87.587936 34.500351
v  -204.430725 -88.394478 34.500351
v  -203.431717 -88.905510 33.796440
v  -203.019135 -88.098969 33.796440
v  -203.947189 -87.624237 34.627422
v  -204.359756 -88.430779 34.627422
v  -203.360748 -88.941811 33.923508
v  -202.948166 -88.135269 33.923508
v  -196.431229 -82.147484 28.889875
v  -196.275635 -82.771561 24.784620
# 184 vertices

vn 0.457530 0.889194 -0.000000
vn 0.457530 0.889194 -0.000000
vn 0.457530 0.889194 -0.000000
vn 0.457530 0.889194 -0.000000
vn 0.457530 0.889194 -0.000000
vn 0.457530 0.889194 -0.000000
vn 0.457530 0.889194 -0.000000
vn 0.457530 0.889194 -0.000000
vn 0.457530 0.889194 -0.000000
vn 0.457530 0.889194 -0.000000
vn 0.457530 0.889194 -0.000000
vn 0.457530 0.889194 -0.000000
vn -0.000000 0.000000 -1.000000
vn -0.000000 0.000000 -1.000000
vn -0.000000 0.000000 -1.000000
vn -0.000000 -0.000000 -1.000000
vn -0.000000 -0.000000 -1.000000
vn -0.000000 -0.000000 -1.000000
vn -0.890280 0.455414 0.000185
vn -0.890280 0.455414 0.000185
vn -0.890280 0.455414 0.000185
vn 0.889194 -0.457530 0.000000
vn 0.889194 -0.457530 0.000000
vn 0.889194 -0.457530 0.000000
vn 0.889194 -0.457530 0.000000
vn 0.889194 -0.457530 0.000000
vn 0.889194 -0.457530 0.000000
vn -0.457530 -0.889194 0.000000
vn -0.457530 -0.889194 0.000000
vn -0.457530 -0.889194 0.000000
vn -0.457530 -0.889194 0.000000
vn -0.457530 -0.889194 0.000000
vn -0.457530 -0.889194 0.000000
vn -0.457530 -0.889194 0.000000
vn -0.457530 -0.889194 0.000000
vn -0.457530 -0.889194 0.000000
vn -0.457530 -0.889194 0.000000
vn -0.457530 -0.889194 0.000000
vn -0.457530 -0.889194 0.000000
vn -0.890191 0.455588 0.000001
vn -0.890191 0.455588 0.000001
vn -0.890191 0.455588 0.000001
vn -0.860453 0.509529 0.000001
vn -0.860453 0.509529 0.000001
vn -0.860453 0.509529 0.000001
vn -0.860454 0.509529 0.000001
vn -0.860454 0.509529 0.000001
vn -0.860454 0.509529 0.000001
vn 0.085107 -0.043791 -0.995409
vn 0.085107 -0.043791 -0.995409
vn 0.085107 -0.043791 -0.995409
vn -0.000000 -0.000000 -1.000000
vn -0.000000 -0.000000 -1.000000
vn -0.000000 -0.000000 -1.000000
vn -0.889195 0.457528 0.000000
vn -0.889195 0.457528 0.000000
vn -0.889195 0.457528 0.000000
vn -0.889200 0.457519 -0.000007
vn -0.889200 0.457519 -0.000007
vn -0.889200 0.457519 -0.000007
vn -0.889196 0.457527 0.000033
vn -0.889196 0.457527 0.000033
vn -0.889196 0.457527 0.000033
vn -0.457530 -0.889194 0.000000
vn -0.457530 -0.889194 0.000000
vn -0.457530 -0.889194 0.000000
vn 0.746758 -0.384224 0.542886
vn 0.746758 -0.384224 0.542886
vn 0.746758 -0.384224 0.542886
vn 0.746756 -0.384228 0.542885
vn 0.746756 -0.384228 0.542885
vn 0.746756 -0.384228 0.542885
vn 0.475197 -0.244500 0.845227
vn 0.475197 -0.244500 0.845227
vn 0.475197 -0.244500 0.845227
vn 0.475197 -0.244500 0.845227
vn 0.475197 -0.244500 0.845227
vn 0.475197 -0.244500 0.845227
vn 0.457593 0.889162 0.000045
vn 0.457593 0.889162 0.000045
vn 0.457593 0.889162 0.000045
vn 0.457556 0.889181 0.000020
vn 0.457556 0.889181 0.000020
vn 0.457556 0.889181 0.000020
vn 0.457563 0.889177 0.000057
vn 0.457563 0.889177 0.000057
vn 0.457563 0.889177 0.000057
vn 0.457556 0.889181 0.000045
vn 0.457556 0.889181 0.000045
vn 0.457556 0.889181 0.000045
vn -0.889202 0.457515 -0.000077
vn -0.889202 0.457515 -0.000077
vn -0.889202 0.457515 -0.000077
vn 0.748226 -0.384996 0.540312
vn 0.748226 -0.384996 0.540312
vn 0.748226 -0.384996 0.540312
vn 0.748226 -0.384996 0.540311
vn 0.748226 -0.384996 0.540311
vn 0.748226 -0.384996 0.540311
vn 0.475193 -0.244508 0.845226
vn 0.475193 -0.244508 0.845226
vn 0.475193 -0.244508 0.845226
vn 0.473094 -0.242006 0.847122
vn 0.473094 -0.242006 0.847122
vn 0.473094 -0.242006 0.847122
vn 0.495619 -0.293487 0.817451
vn 0.495619 -0.293487 0.817451
vn 0.495619 -0.293487 0.817451
vn -0.450633 -0.885678 0.111826
vn -0.450621 -0.885654 0.112061
vn -0.453479 -0.891267 -0.000004
vn -0.453479 -0.891267 -0.000004
vn -0.453473 -0.891270 -0.000024
vn -0.450633 -0.885678 0.111826
vn -0.408755 -0.803372 0.433029
vn -0.408391 -0.802664 0.434681
vn -0.450621 -0.885654 0.112061
vn -0.450621 -0.885654 0.112061
vn -0.450633 -0.885678 0.111826
vn -0.408755 -0.803372 0.433029
vn -0.283339 -0.556882 0.780769
vn -0.282160 -0.554566 0.782842
vn -0.408391 -0.802664 0.434681
vn -0.408391 -0.802664 0.434681
vn -0.408755 -0.803372 0.433029
vn -0.283339 -0.556882 0.780769
vn -0.101833 -0.200146 0.974460
vn -0.100004 -0.196551 0.975380
vn -0.282160 -0.554566 0.782842
vn -0.282160 -0.554566 0.782842
vn -0.283339 -0.556882 0.780769
vn -0.101833 -0.200146 0.974460
vn 0.100007 0.196557 0.975379
vn 0.101834 0.200145 0.974460
vn -0.100004 -0.196551 0.975380
vn -0.100004 -0.196551 0.975380
vn -0.101833 -0.200146 0.974460
vn 0.100007 0.196557 0.975379
vn 0.282160 0.554559 0.782847
vn 0.283344 0.556899 0.780756
vn 0.101834 0.200145 0.974460
vn 0.101834 0.200145 0.974460
vn 0.100007 0.196557 0.975379
vn 0.282160 0.554559 0.782847
vn 0.408385 0.802664 0.434686
vn 0.408748 0.803380 0.433020
vn 0.283344 0.556899 0.780756
vn 0.283344 0.556899 0.780756
vn 0.282160 0.554559 0.782847
vn 0.408385 0.802664 0.434686
vn 0.450612 0.885660 0.112048
vn 0.450630 0.885676 0.111853
vn 0.408748 0.803380 0.433020
vn 0.408748 0.803380 0.433020
vn 0.408385 0.802664 0.434686
vn 0.450612 0.885660 0.112048
vn 0.453475 0.891269 -0.000020
vn 0.453480 0.891266 -0.000000
vn 0.450630 0.885676 0.111853
vn 0.450630 0.885676 0.111853
vn 0.450612 0.885660 0.112048
vn 0.453475 0.891269 -0.000020
vn 0.897978 -0.440040 -0.000021
vn 0.897978 -0.440040 -0.000021
vn 0.897978 -0.440040 -0.000021
vn 0.897952 -0.440093 -0.000031
vn 0.897952 -0.440093 -0.000031
vn 0.897952 -0.440093 -0.000031
vn 0.897999 -0.439998 -0.000062
vn 0.897999 -0.439998 -0.000062
vn 0.897999 -0.439998 -0.000062
vn 0.897960 -0.440077 0.000048
vn 0.897960 -0.440077 0.000048
vn 0.897960 -0.440077 0.000048
vn 0.897980 -0.440036 0.000000
vn 0.897980 -0.440036 0.000000
vn 0.897980 -0.440036 0.000000
vn 0.897968 -0.440060 0.000003
vn 0.897968 -0.440060 0.000003
vn 0.897968 -0.440060 0.000003
vn 0.897965 -0.440066 -0.000003
vn 0.897965 -0.440066 -0.000003
vn 0.897965 -0.440066 -0.000003
vn 0.897983 -0.440031 -0.000016
vn 0.897983 -0.440031 -0.000016
vn 0.897983 -0.440031 -0.000016
vn 0.897964 -0.440068 0.000035
vn 0.897964 -0.440068 0.000035
vn 0.897964 -0.440068 0.000035
vn -0.450633 -0.885678 0.111826
vn -0.450621 -0.885654 0.112061
vn -0.453479 -0.891267 -0.000004
vn -0.453479 -0.891267 -0.000004
vn -0.453473 -0.891270 -0.000024
vn -0.450633 -0.885678 0.111826
vn -0.408755 -0.803372 0.433029
vn -0.408391 -0.802664 0.434681
vn -0.450621 -0.885654 0.112061
vn -0.450621 -0.885654 0.112061
vn -0.450633 -0.885678 0.111826
vn -0.408755 -0.803372 0.433029
vn -0.283339 -0.556882 0.780769
vn -0.282160 -0.554566 0.782842
vn -0.408391 -0.802664 0.434681
vn -0.408391 -0.802664 0.434681
vn -0.408755 -0.803372 0.433029
vn -0.283339 -0.556882 0.780769
vn -0.101833 -0.200146 0.974460
vn -0.100004 -0.196551 0.975380
vn -0.282160 -0.554566 0.782842
vn -0.282160 -0.554566 0.782842
vn -0.283339 -0.556882 0.780769
vn -0.101833 -0.200146 0.974460
vn 0.100007 0.196557 0.975379
vn 0.101834 0.200145 0.974460
vn -0.100004 -0.196551 0.975380
vn -0.100004 -0.196551 0.975380
vn -0.101833 -0.200146 0.974460
vn 0.100007 0.196557 0.975379
vn 0.282160 0.554559 0.782847
vn 0.283344 0.556899 0.780756
vn 0.101834 0.200145 0.974460
vn 0.101834 0.200145 0.974460
vn 0.100007 0.196557 0.975379
vn 0.282160 0.554559 0.782847
vn 0.408385 0.802664 0.434686
vn 0.408748 0.803380 0.433020
vn 0.283344 0.556899 0.780756
vn 0.283344 0.556899 0.780756
vn 0.282160 0.554559 0.782847
vn 0.408385 0.802664 0.434686
vn 0.450612 0.885660 0.112048
vn 0.450630 0.885676 0.111853
vn 0.408748 0.803380 0.433020
vn 0.408748 0.803380 0.433020
vn 0.408385 0.802664 0.434686
vn 0.450612 0.885660 0.112048
vn 0.453475 0.891269 -0.000020
vn 0.453480 0.891266 -0.000000
vn 0.450630 0.885676 0.111853
vn 0.450630 0.885676 0.111853
vn 0.450612 0.885660 0.112048
vn 0.453475 0.891269 -0.000020
vn 0.897978 -0.440040 -0.000021
vn 0.897978 -0.440040 -0.000021
vn 0.897978 -0.440040 -0.000021
vn 0.897952 -0.440093 -0.000031
vn 0.897952 -0.440093 -0.000031
vn 0.897952 -0.440093 -0.000031
vn 0.897999 -0.439998 -0.000062
vn 0.897999 -0.439998 -0.000062
vn 0.897999 -0.439998 -0.000062
vn 0.897960 -0.440077 0.000048
vn 0.897960 -0.440077 0.000048
vn 0.897960 -0.440077 0.000048
vn 0.897980 -0.440036 0.000000
vn 0.897980 -0.440036 0.000000
vn 0.897980 -0.440036 0.000000
vn 0.897968 -0.440060 0.000003
vn 0.897968 -0.440060 0.000003
vn 0.897968 -0.440060 0.000003
vn 0.897965 -0.440066 -0.000003
vn 0.897965 -0.440066 -0.000003
vn 0.897965 -0.440066 -0.000003
vn 0.897983 -0.440031 -0.000016
vn 0.897983 -0.440031 -0.000016
vn 0.897983 -0.440031 -0.000016
vn 0.897964 -0.440068 0.000035
vn 0.897964 -0.440068 0.000035
vn 0.897964 -0.440068 0.000035
vn -0.450633 -0.885678 0.111826
vn -0.450621 -0.885654 0.112061
vn -0.453479 -0.891267 -0.000004
vn -0.453479 -0.891267 -0.000004
vn -0.453473 -0.891270 -0.000024
vn -0.450633 -0.885678 0.111826
vn -0.408755 -0.803372 0.433029
vn -0.408391 -0.802664 0.434681
vn -0.450621 -0.885654 0.112061
vn -0.450621 -0.885654 0.112061
vn -0.450633 -0.885678 0.111826
vn -0.408755 -0.803372 0.433029
vn -0.283339 -0.556882 0.780769
vn -0.282160 -0.554566 0.782842
vn -0.408391 -0.802664 0.434681
vn -0.408391 -0.802664 0.434681
vn -0.408755 -0.803372 0.433029
vn -0.283339 -0.556882 0.780769
vn -0.101833 -0.200146 0.974460
vn -0.100004 -0.196551 0.975380
vn -0.282160 -0.554566 0.782842
vn -0.282160 -0.554566 0.782842
vn -0.283339 -0.556882 0.780769
vn -0.101833 -0.200146 0.974460
vn 0.100007 0.196557 0.975379
vn 0.101834 0.200145 0.974460
vn -0.100004 -0.196551 0.975380
vn -0.100004 -0.196551 0.975380
vn -0.101833 -0.200146 0.974460
vn 0.100007 0.196557 0.975379
vn 0.282160 0.554559 0.782847
vn 0.283344 0.556899 0.780756
vn 0.101834 0.200145 0.974460
vn 0.101834 0.200145 0.974460
vn 0.100007 0.196557 0.975379
vn 0.282160 0.554559 0.782847
vn 0.408385 0.802664 0.434686
vn 0.408748 0.803380 0.433020
vn 0.283344 0.556899 0.780756
vn 0.283344 0.556899 0.780756
vn 0.282160 0.554559 0.782847
vn 0.408385 0.802664 0.434686
vn 0.450612 0.885660 0.112048
vn 0.450630 0.885676 0.111853
vn 0.408748 0.803380 0.433020
vn 0.408748 0.803380 0.433020
vn 0.408385 0.802664 0.434686
vn 0.450612 0.885660 0.112048
vn 0.453475 0.891269 -0.000020
vn 0.453480 0.891266 -0.000000
vn 0.450630 0.885676 0.111853
vn 0.450630 0.885676 0.111853
vn 0.450612 0.885660 0.112048
vn 0.453475 0.891269 -0.000020
vn 0.897978 -0.440040 -0.000021
vn 0.897978 -0.440040 -0.000021
vn 0.897978 -0.440040 -0.000021
vn 0.897952 -0.440093 -0.000031
vn 0.897952 -0.440093 -0.000031
vn 0.897952 -0.440093 -0.000031
vn 0.897999 -0.439998 -0.000062
vn 0.897999 -0.439998 -0.000062
vn 0.897999 -0.439998 -0.000062
vn 0.897960 -0.440077 0.000048
vn 0.897960 -0.440077 0.000048
vn 0.897960 -0.440077 0.000048
vn 0.897980 -0.440036 0.000000
vn 0.897980 -0.440036 0.000000
vn 0.897980 -0.440036 0.000000
vn 0.897968 -0.440060 0.000003
vn 0.897968 -0.440060 0.000003
vn 0.897968 -0.440060 0.000003
vn 0.897965 -0.440066 -0.000003
vn 0.897965 -0.440066 -0.000003
vn 0.897965 -0.440066 -0.000003
vn 0.897983 -0.440031 -0.000016
vn 0.897983 -0.440031 -0.000016
vn 0.897983 -0.440031 -0.000016
vn 0.897964 -0.440068 0.000035
vn 0.897964 -0.440068 0.000035
vn 0.897964 -0.440068 0.000035
vn -0.450633 -0.885678 0.111826
vn -0.450621 -0.885654 0.112061
vn -0.453479 -0.891267 -0.000004
vn -0.453479 -0.891267 -0.000004
vn -0.453473 -0.891270 -0.000024
vn -0.450633 -0.885678 0.111826
vn -0.408755 -0.803372 0.433029
vn -0.408391 -0.802664 0.434681
vn -0.450621 -0.885654 0.112061
vn -0.450621 -0.885654 0.112061
vn -0.450633 -0.885678 0.111826
vn -0.408755 -0.803372 0.433029
vn -0.283339 -0.556882 0.780769
vn -0.282160 -0.554566 0.782842
vn -0.408391 -0.802664 0.434681
vn -0.408391 -0.802664 0.434681
vn -0.408755 -0.803372 0.433029
vn -0.283339 -0.556882 0.780769
vn -0.101833 -0.200146 0.974460
vn -0.100004 -0.196551 0.975380
vn -0.282160 -0.554566 0.782842
vn -0.282160 -0.554566 0.782842
vn -0.283339 -0.556882 0.780769
vn -0.101833 -0.200146 0.974460
vn 0.100007 0.196557 0.975379
vn 0.101834 0.200145 0.974460
vn -0.100004 -0.196551 0.975380
vn -0.100004 -0.196551 0.975380
vn -0.101833 -0.200146 0.974460
vn 0.100007 0.196557 0.975379
vn 0.282160 0.554559 0.782847
vn 0.283344 0.556899 0.780756
vn 0.101834 0.200145 0.974460
vn 0.101834 0.200145 0.974460
vn 0.100007 0.196557 0.975379
vn 0.282160 0.554559 0.782847
vn 0.408385 0.802664 0.434686
vn 0.408748 0.803380 0.433020
vn 0.283344 0.556899 0.780756
vn 0.283344 0.556899 0.780756
vn 0.282160 0.554559 0.782847
vn 0.408385 0.802664 0.434686
vn 0.450612 0.885660 0.112048
vn 0.450630 0.885676 0.111853
vn 0.408748 0.803380 0.433020
vn 0.408748 0.803380 0.433020
vn 0.408385 0.802664 0.434686
vn 0.450612 0.885660 0.112048
vn 0.453475 0.891269 -0.000020
vn 0.453480 0.891266 -0.000000
vn 0.450630 0.885676 0.111853
vn 0.450630 0.885676 0.111853
vn 0.450612 0.885660 0.112048
vn 0.453475 0.891269 -0.000020
vn 0.897978 -0.440040 -0.000021
vn 0.897978 -0.440040 -0.000021
vn 0.897978 -0.440040 -0.000021
vn 0.897952 -0.440093 -0.000031
vn 0.897952 -0.440093 -0.000031
vn 0.897952 -0.440093 -0.000031
vn 0.897999 -0.439998 -0.000062
vn 0.897999 -0.439998 -0.000062
vn 0.897999 -0.439998 -0.000062
vn 0.897960 -0.440077 0.000048
vn 0.897960 -0.440077 0.000048
vn 0.897960 -0.440077 0.000048
vn 0.897980 -0.440036 0.000000
vn 0.897980 -0.440036 0.000000
vn 0.897980 -0.440036 0.000000
vn 0.897968 -0.440060 0.000003
vn 0.897968 -0.440060 0.000003
vn 0.897968 -0.440060 0.000003
vn 0.897965 -0.440066 -0.000003
vn 0.897965 -0.440066 -0.000003
vn 0.897965 -0.440066 -0.000003
vn 0.897983 -0.440031 -0.000016
vn 0.897983 -0.440031 -0.000016
vn 0.897983 -0.440031 -0.000016
vn 0.897964 -0.440068 0.000035
vn 0.897964 -0.440068 0.000035
vn 0.897964 -0.440068 0.000035
vn -0.230530 -0.449510 0.863016
vn -0.230530 -0.449510 0.863016
vn -0.230530 -0.449510 0.863016
vn -0.230527 -0.449507 0.863018
vn -0.230527 -0.449507 0.863018
vn -0.230527 -0.449507 0.863018
vn 0.233062 0.454450 0.859743
vn 0.233062 0.454450 0.859743
vn 0.233062 0.454450 0.859743
vn 0.233067 0.454464 0.859734
vn 0.233067 0.454464 0.859734
vn 0.233067 0.454464 0.859734
vn 0.233061 0.454443 0.859746
vn 0.233061 0.454443 0.859746
vn 0.233061 0.454443 0.859746
vn 0.233061 0.454452 0.859742
vn 0.233061 0.454452 0.859742
vn 0.233061 0.454452 0.859742
vn -0.230510 -0.449502 0.863025
vn -0.230510 -0.449502 0.863025
vn -0.230510 -0.449502 0.863025
vn -0.230511 -0.449474 0.863040
vn -0.230511 -0.449474 0.863040
vn -0.230511 -0.449474 0.863040
vn 0.889546 -0.456845 -0.000004
vn 0.889546 -0.456845 -0.000004
vn 0.889546 -0.456845 -0.000004
vn 0.889545 -0.456847 -0.000003
vn 0.889545 -0.456847 -0.000003
vn 0.889545 -0.456847 -0.000003
vn 0.889484 -0.456967 -0.000003
vn 0.889484 -0.456967 -0.000003
vn 0.889484 -0.456967 -0.000003
vn 0.889475 -0.456984 -0.000012
vn 0.889475 -0.456984 -0.000012
vn 0.889475 -0.456984 -0.000012
vn 0.456320 0.889816 -0.000031
vn 0.456320 0.889816 -0.000031
vn 0.456320 0.889816 -0.000031
vn 0.456337 0.889807 -0.000008
vn 0.456337 0.889807 -0.000008
vn 0.456337 0.889807 -0.000008
vn -0.456311 -0.889820 0.000008
vn -0.456311 -0.889820 0.000008
vn -0.456311 -0.889820 0.000008
vn -0.456308 -0.889822 0.000004
vn -0.456308 -0.889822 0.000004
vn -0.456308 -0.889822 0.000004
vn -0.230530 -0.449510 0.863016
vn -0.230530 -0.449510 0.863016
vn -0.230530 -0.449510 0.863016
vn -0.230527 -0.449507 0.863018
vn -0.230527 -0.449507 0.863018
vn -0.230527 -0.449507 0.863018
vn 0.233062 0.454450 0.859743
vn 0.233062 0.454450 0.859743
vn 0.233062 0.454450 0.859743
vn 0.233067 0.454464 0.859734
vn 0.233067 0.454464 0.859734
vn 0.233067 0.454464 0.859734
vn 0.233061 0.454443 0.859746
vn 0.233061 0.454443 0.859746
vn 0.233061 0.454443 0.859746
vn 0.233061 0.454452 0.859742
vn 0.233061 0.454452 0.859742
vn 0.233061 0.454452 0.859742
vn -0.230510 -0.449502 0.863025
vn -0.230510 -0.449502 0.863025
vn -0.230510 -0.449502 0.863025
vn -0.230511 -0.449474 0.863040
vn -0.230511 -0.449474 0.863040
vn -0.230511 -0.449474 0.863040
vn 0.889546 -0.456845 -0.000004
vn 0.889546 -0.456845 -0.000004
vn 0.889546 -0.456845 -0.000004
vn 0.889545 -0.456847 -0.000003
vn 0.889545 -0.456847 -0.000003
vn 0.889545 -0.456847 -0.000003
vn 0.889484 -0.456967 -0.000003
vn 0.889484 -0.456967 -0.000003
vn 0.889484 -0.456967 -0.000003
vn 0.889475 -0.456984 -0.000012
vn 0.889475 -0.456984 -0.000012
vn 0.889475 -0.456984 -0.000012
vn 0.456320 0.889816 -0.000031
vn 0.456320 0.889816 -0.000031
vn 0.456320 0.889816 -0.000031
vn 0.456337 0.889807 -0.000008
vn 0.456337 0.889807 -0.000008
vn 0.456337 0.889807 -0.000008
vn -0.456311 -0.889820 0.000008
vn -0.456311 -0.889820 0.000008
vn -0.456311 -0.889820 0.000008
vn -0.456308 -0.889822 0.000004
vn -0.456308 -0.889822 0.000004
vn -0.456308 -0.889822 0.000004
vn -0.230530 -0.449510 0.863016
vn -0.230530 -0.449510 0.863016
vn -0.230530 -0.449510 0.863016
vn -0.230527 -0.449507 0.863018
vn -0.230527 -0.449507 0.863018
vn -0.230527 -0.449507 0.863018
vn 0.233062 0.454450 0.859743
vn 0.233062 0.454450 0.859743
vn 0.233062 0.454450 0.859743
vn 0.233067 0.454464 0.859734
vn 0.233067 0.454464 0.859734
vn 0.233067 0.454464 0.859734
vn 0.233061 0.454443 0.859746
vn 0.233061 0.454443 0.859746
vn 0.233061 0.454443 0.859746
vn 0.233061 0.454452 0.859742
vn 0.233061 0.454452 0.859742
vn 0.233061 0.454452 0.859742
vn -0.230510 -0.449502 0.863025
vn -0.230510 -0.449502 0.863025
vn -0.230510 -0.449502 0.863025
vn -0.230511 -0.449474 0.863040
vn -0.230511 -0.449474 0.863040
vn -0.230511 -0.449474 0.863040
vn 0.889546 -0.456845 -0.000004
vn 0.889546 -0.456845 -0.000004
vn 0.889546 -0.456845 -0.000004
vn 0.889545 -0.456847 -0.000003
vn 0.889545 -0.456847 -0.000003
vn 0.889545 -0.456847 -0.000003
vn 0.889484 -0.456967 -0.000003
vn 0.889484 -0.456967 -0.000003
vn 0.889484 -0.456967 -0.000003
vn 0.889475 -0.456984 -0.000012
vn 0.889475 -0.456984 -0.000012
vn 0.889475 -0.456984 -0.000012
vn 0.456320 0.889816 -0.000031
vn 0.456320 0.889816 -0.000031
vn 0.456320 0.889816 -0.000031
vn 0.456337 0.889807 -0.000008
vn 0.456337 0.889807 -0.000008
vn 0.456337 0.889807 -0.000008
vn -0.456311 -0.889820 0.000008
vn -0.456311 -0.889820 0.000008
vn -0.456311 -0.889820 0.000008
vn -0.456308 -0.889822 0.000004
vn -0.456308 -0.889822 0.000004
vn -0.456308 -0.889822 0.000004
vn 0.000000 0.000000 1.000000
vn 0.000000 0.000000 1.000000
vn 0.000000 0.000000 1.000000
vn 0.000000 0.000000 1.000000
vn 0.000000 0.000000 1.000000
vn 0.000000 0.000000 1.000000
vn 0.489168 0.872190 -0.000000
vn 0.489168 0.872190 -0.000000
vn 0.489168 0.872190 -0.000000
vn 0.489168 0.872190 -0.000000
vn 0.489168 0.872190 -0.000000
vn 0.489168 0.872190 -0.000000
vn -0.000000 -0.000000 -1.000000
vn -0.000000 -0.000000 -1.000000
vn -0.000000 -0.000000 -1.000000
vn -0.000000 -0.000000 -1.000000
vn -0.000000 -0.000000 -1.000000
vn -0.000000 -0.000000 -1.000000
vn -0.489203 -0.872170 0.000000
vn -0.489203 -0.872170 0.000000
vn -0.489203 -0.872170 0.000000
vn -0.489203 -0.872170 0.000000
vn -0.489203 -0.872170 0.000000
vn -0.489203 -0.872170 0.000000
vn 0.872183 -0.489180 0.000000
vn 0.872183 -0.489180 0.000000
vn 0.872183 -0.489180 0.000000
vn 0.872183 -0.489180 0.000000
vn 0.872183 -0.489180 0.000000
vn 0.872183 -0.489180 0.000000
vn -0.872175 0.489195 -0.000000
vn -0.872175 0.489195 -0.000000
vn -0.872175 0.489195 -0.000000
vn -0.872175 0.489195 -0.000000
vn -0.872175 0.489195 -0.000000
vn -0.872175 0.489195 -0.000000
vn 0.000000 0.000000 1.000000
vn 0.000000 0.000000 1.000000
vn 0.000000 0.000000 1.000000
vn 0.000000 0.000000 1.000000
vn 0.000000 0.000000 1.000000
vn 0.000000 0.000000 1.000000
vn 0.464571 0.885536 -0.000000
vn 0.464571 0.885536 -0.000000
vn 0.464571 0.885536 -0.000000
vn 0.464571 0.885536 -0.000000
vn 0.464571 0.885536 -0.000000
vn 0.464571 0.885536 -0.000000
vn -0.000000 -0.000000 -1.000000
vn -0.000000 -0.000000 -1.000000
vn -0.000000 -0.000000 -1.000000
vn -0.000000 -0.000000 -1.000000
vn -0.000000 -0.000000 -1.000000
vn -0.000000 -0.000000 -1.000000
vn -0.464586 -0.885528 0.000000
vn -0.464586 -0.885528 0.000000
vn -0.464586 -0.885528 0.000000
vn -0.464586 -0.885528 0.000000
vn -0.464586 -0.885528 0.000000
vn -0.464586 -0.885528 0.000000
vn 0.883933 -0.467614 0.000000
vn 0.883933 -0.467614 0.000000
vn 0.883933 -0.467614 0.000000
vn 0.883933 -0.467614 0.000000
vn 0.883933 -0.467614 0.000000
vn 0.883933 -0.467614 0.000000
vn -0.883907 0.467663 -0.000000
vn -0.883907 0.467663 -0.000000
vn -0.883907 0.467663 -0.000000
vn -0.883907 0.467663 -0.000000
vn -0.883907 0.467663 -0.000000
vn -0.883907 0.467663 -0.000000
vn 0.000000 0.000000 1.000000
vn 0.000000 0.000000 1.000000
vn 0.000000 0.000000 1.000000
vn 0.000000 0.000000 1.000000
vn 0.000000 0.000000 1.000000
vn 0.000000 0.000000 1.000000
vn 0.399110 0.916903 -0.000000
vn 0.399110 0.916903 -0.000000
vn 0.399110 0.916903 -0.000000
vn 0.399107 0.916904 -0.000000
vn 0.399107 0.916904 -0.000000
vn 0.399107 0.916904 -0.000000
vn -0.000000 -0.000000 -1.000000
vn -0.000000 -0.000000 -1.000000
vn -0.000000 -0.000000 -1.000000
vn -0.000000 -0.000000 -1.000000
vn -0.000000 -0.000000 -1.000000
vn -0.000000 -0.000000 -1.000000
vn -0.399109 -0.916904 -0.000006
vn -0.399109 -0.916904 -0.000006
vn -0.399109 -0.916904 -0.000006
vn -0.399111 -0.916903 -0.000007
vn -0.399111 -0.916903 -0.000007
vn -0.399111 -0.916903 -0.000007
vn 0.916914 -0.399084 0.000007
vn 0.916914 -0.399084 0.000007
vn 0.916914 -0.399084 0.000007
vn 0.916913 -0.399087 0.000007
vn 0.916913 -0.399087 0.000007
vn 0.916913 -0.399087 0.000007
vn -0.916904 0.399109 0.000000
vn -0.916904 0.399109 0.000000
vn -0.916904 0.399109 0.000000
vn -0.916905 0.399106 -0.000000
vn -0.916905 0.399106 -0.000000
vn -0.916905 0.399106 -0.000000
vn 0.473094 -0.242006 0.847122
vn 0.473094 -0.242006 0.847122
vn 0.473094 -0.242006 0.847122
vn 0.473094 -0.242006 0.847122
vn 0.473094 -0.242006 0.847122
vn 0.473094 -0.242006 0.847122
vn 0.754175 -0.385791 -0.531399
vn 0.754175 -0.385791 -0.531399
vn 0.754175 -0.385791 -0.531399
vn 0.754175 -0.385791 -0.531399
vn 0.754175 -0.385791 -0.531399
vn 0.754175 -0.385791 -0.531399
vn 0.455413 0.890280 -0.000001
vn 0.455413 0.890280 -0.000001
vn 0.455413 0.890280 -0.000001
vn 0.455413 0.890280 -0.000001
vn 0.455413 0.890280 -0.000001
vn 0.455413 0.890280 -0.000001
vn -0.455416 -0.890279 -0.000005
vn -0.455416 -0.890279 -0.000005
vn -0.455416 -0.890279 -0.000005
vn -0.455413 -0.890280 0.000001
vn -0.455413 -0.890280 0.000001
vn -0.455413 -0.890280 0.000001
vn -0.754176 0.385791 0.531398
vn -0.754176 0.385791 0.531398
vn -0.754176 0.385791 0.531398
vn -0.754177 0.385791 0.531397
vn -0.754177 0.385791 0.531397
vn -0.754177 0.385791 0.531397
vn 0.970303 0.241893 -0.000000
vn 0.970303 0.241893 -0.000000
vn 0.970303 0.241893 -0.000000
vn 0.970303 0.241893 -0.000000
vn 0.970303 0.241893 -0.000000
vn 0.970303 0.241893 -0.000000
vn -0.000000 0.000000 1.000000
vn -0.000000 0.000000 1.000000
vn -0.000000 0.000000 1.000000
# 723 vertex normals

vt 4.483645 7.147662 0.000000
vt -1.069478 3.241691 0.000000
vt -3.500753 -0.544710 0.000000
vt -2.863057 -0.544710 0.000000
vt -2.863057 -4.649966 0.000000
vt 4.483661 -4.649966 0.000000
vt -1.069478 3.409904 -21.440552
vt -3.500753 -0.544710 -21.440552
vt -2.863057 -0.544710 -21.440552
vt 5.108256 -4.649966 -21.440552
vt 5.108256 7.315875 -21.440552
vt -2.863057 -4.649966 -21.440552
vt 5.131290 7.147662 -10.886366
vt 5.131304 -4.649966 -10.886370
vt 5.131308 -4.649965 -10.886386
vt -3.500746 -0.544710 -20.567190
vt 5.108248 7.147662 -20.567183
vt -3.500766 -0.351123 -21.440552
vt 5.108272 7.315875 -20.567200
vt 5.108272 7.147662 -20.567200
vt 0.128765 -1.453397 0.000000
vt 0.128765 2.454337 0.000000
vt 0.314383 -1.453397 0.000000
vt 0.314383 2.454337 0.000000
vt 0.500000 -1.453397 0.000000
vt 0.500000 2.454337 0.000000
vt 0.685617 -1.453397 0.000000
vt 0.685617 2.454337 0.000000
vt 0.871234 -1.453397 0.000000
vt 0.871234 2.454337 0.000000
vt 1.056852 -1.453397 0.000000
vt 1.056852 2.454337 0.000000
vt 1.242469 -1.453397 0.000000
vt 1.242469 2.454337 0.000000
vt 1.428086 -1.453397 0.000000
vt 1.428086 2.454337 0.000000
vt 1.613703 -1.453397 0.000000
vt 1.613703 2.454337 0.000000
vt 1.799321 -1.453397 0.000000
vt 1.799321 2.454337 0.000000
vt 0.910909 0.310929 0.177917
vt 0.870334 0.558026 0.327087
vt 0.756631 0.722950 0.520447
vt 0.592327 0.814270 0.719910
vt 0.409966 0.813897 0.885864
vt 0.245668 0.721908 0.985779
vt 0.131959 0.556519 0.999451
vt 0.091378 0.309256 0.924377
vt 0.091384 -0.016987 0.746826
vt 0.558924 -0.016034 0.321106
vt 0.910909 -0.015314 0.000488
vt 0.128765 -1.453397 0.000000
vt 0.128765 2.454337 0.000000
vt 0.314383 -1.453397 0.000000
vt 0.314383 2.454337 0.000000
vt 0.500000 -1.453397 0.000000
vt 0.500000 2.454337 0.000000
vt 0.685617 -1.453397 0.000000
vt 0.685617 2.454337 0.000000
vt 0.871234 -1.453397 0.000000
vt 0.871234 2.454337 0.000000
vt 1.056852 -1.453397 0.000000
vt 1.056852 2.454337 0.000000
vt 1.242469 -1.453397 0.000000
vt 1.242469 2.454337 0.000000
vt 1.428086 -1.453397 0.000000
vt 1.428086 2.454337 0.000000
vt 1.613703 -1.453397 0.000000
vt 1.613703 2.454337 0.000000
vt 1.799321 -1.453397 0.000000
vt 1.799321 2.454337 0.000000
vt 0.910909 0.310929 0.177917
vt 0.870334 0.558026 0.327087
vt 0.756631 0.722950 0.520447
vt 0.592327 0.814270 0.719910
vt 0.409966 0.813897 0.885864
vt 0.245668 0.721908 0.985779
vt 0.131959 0.556519 0.999451
vt 0.091378 0.309256 0.924377
vt 0.091384 -0.016987 0.746826
vt 0.558924 -0.016034 0.321106
vt 0.910909 -0.015314 0.000488
vt 0.128765 -1.453397 0.000000
vt 0.128765 2.454337 0.000000
vt 0.314383 -1.453397 0.000000
vt 0.314383 2.454337 0.000000
vt 0.500000 -1.453397 0.000000
vt 0.500000 2.454337 0.000000
vt 0.685617 -1.453397 0.000000
vt 0.685617 2.454337 0.000000
vt 0.871234 -1.453397 0.000000
vt 0.871234 2.454337 0.000000
vt 1.056852 -1.453397 0.000000
vt 1.056852 2.454337 0.000000
vt 1.242469 -1.453397 0.000000
vt 1.242469 2.454337 0.000000
vt 1.428086 -1.453397 0.000000
vt 1.428086 2.454337 0.000000
vt 1.613703 -1.453397 0.000000
vt 1.613703 2.454337 0.000000
vt 1.799321 -1.453397 0.000000
vt 1.799321 2.454337 0.000000
vt 0.910909 0.310929 0.177917
vt 0.870334 0.558026 0.327087
vt 0.756631 0.722950 0.520447
vt 0.592327 0.814270 0.719910
vt 0.409966 0.813897 0.885864
vt 0.245668 0.721908 0.985779
vt 0.131959 0.556519 0.999451
vt 0.091378 0.309256 0.924377
vt 0.091384 -0.016987 0.746826
vt 0.558924 -0.016034 0.321106
vt 0.910909 -0.015314 0.000488
vt 0.128765 -1.453397 0.000000
vt 0.128765 2.454337 0.000000
vt 0.314383 -1.453397 0.000000
vt 0.314383 2.454337 0.000000
vt 0.500000 -1.453397 0.000000
vt 0.500000 2.454337 0.000000
vt 0.685617 -1.453397 0.000000
vt 0.685617 2.454337 0.000000
vt 0.871234 -1.453397 0.000000
vt 0.871234 2.454337 0.000000
vt 1.056852 -1.453397 0.000000
vt 1.056852 2.454337 0.000000
vt 1.242469 -1.453397 0.000000
vt 1.242469 2.454337 0.000000
vt 1.428086 -1.453397 0.000000
vt 1.428086 2.454337 0.000000
vt 1.613703 -1.453397 0.000000
vt 1.613703 2.454337 0.000000
vt 1.799321 -1.453397 0.000000
vt 1.799321 2.454337 0.000000
vt 0.910909 0.310929 0.177917
vt 0.870334 0.558026 0.327087
vt 0.756631 0.722950 0.520447
vt 0.592327 0.814270 0.719910
vt 0.409966 0.813897 0.885864
vt 0.245668 0.721908 0.985779
vt 0.131959 0.556519 0.999451
vt 0.091378 0.309256 0.924377
vt 0.091384 -0.016987 0.746826
vt 0.558924 -0.016034 0.321106
vt 0.910909 -0.015314 0.000488
vt 1.102531 0.509567 0.998905
vt -0.102554 0.512726 0.998611
vt -0.104614 -0.135742 0.059784
vt 1.100487 -0.138878 0.060078
vt 1.104630 1.122726 -0.058174
vt -0.100471 1.125900 -0.058472
vt 1.102998 0.646021 0.763660
vt -0.102101 0.646081 0.768713
vt -0.103021 0.365672 0.785713
vt 1.102078 0.365744 0.790676
vt 0.625000 0.000000 0.000000
vt 0.875000 0.000000 0.000000
vt 0.875000 0.250000 0.000000
vt 0.625000 0.250000 0.000000
vt 0.125000 0.000000 0.000000
vt 0.375000 0.000000 0.000000
vt 0.375000 0.250000 0.000000
vt 0.125000 0.250000 0.000000
vt 0.503681 1.128948 0.453125
vt 0.000492 0.853642 1.007813
vt 0.000492 0.130846 1.007813
vt 0.503681 0.130845 0.445313
vt 0.999493 0.130845 0.000000
vt 0.999489 0.853642 0.007813
vt 1.102531 0.509567 0.998905
vt -0.102554 0.512726 0.998611
vt -0.104614 -0.135742 0.059784
vt 1.100487 -0.138878 0.060078
vt 1.104630 1.122726 -0.058174
vt -0.100471 1.125900 -0.058472
vt 1.102998 0.646021 0.763660
vt -0.102101 0.646081 0.768713
vt -0.103021 0.365672 0.785713
vt 1.102078 0.365744 0.790676
vt 0.625000 0.000000 0.000000
vt 0.875000 0.000000 0.000000
vt 0.875000 0.250000 0.000000
vt 0.625000 0.250000 0.000000
vt 0.125000 0.000000 0.000000
vt 0.375000 0.000000 0.000000
vt 0.375000 0.250000 0.000000
vt 0.125000 0.250000 0.000000
vt 0.503681 1.128948 0.453125
vt 0.000492 0.853642 1.007813
vt 0.000492 0.130846 1.007813
vt 0.503681 0.130845 0.445313
vt 0.999493 0.130845 0.000000
vt 0.999489 0.853642 0.007813
vt 1.102531 0.509567 0.998905
vt -0.102554 0.512726 0.998611
vt -0.104614 -0.135742 0.059784
vt 1.100487 -0.138878 0.060078
vt 1.104630 1.122726 -0.058174
vt -0.100471 1.125900 -0.058472
vt 1.102998 0.646021 0.763660
vt -0.102101 0.646081 0.768713
vt -0.103021 0.365672 0.785713
vt 1.102078 0.365744 0.790676
vt 0.625000 0.000000 0.000000
vt 0.875000 0.000000 0.000000
vt 0.875000 0.250000 0.000000
vt 0.625000 0.250000 0.000000
vt 0.125000 0.000000 0.000000
vt 0.375000 0.000000 0.000000
vt 0.375000 0.250000 0.000000
vt 0.125000 0.250000 0.000000
vt 0.503681 1.128948 0.453125
vt 0.000492 0.853642 1.007813
vt 0.000492 0.130846 1.007813
vt 0.503681 0.130845 0.445313
vt 0.999493 0.130845 0.000000
vt 0.999489 0.853642 0.007813
vt 0.442981 -6.182268 -2.305590
vt 0.544318 -6.190729 -2.302201
vt 0.544318 -6.231659 -2.515590
vt 0.442981 -6.223198 -2.518980
vt 0.544317 -6.190732 -2.302201
vt 0.547903 -3.541382 1.100647
vt 0.446567 -3.532928 1.097261
vt 0.442981 -6.182278 -2.305587
vt 0.557015 1.995739 3.518542
vt 0.455678 2.004194 3.515155
vt 0.544317 -6.231663 -2.515590
vt 0.547903 -3.576948 0.915229
vt 0.557015 1.960174 3.333124
vt -4.637264 -0.467238 0.500375
vt -4.631490 -1.748185 0.320693
vt 5.651989 -1.699373 0.320527
vt 5.646215 -0.418426 0.500210
vt -4.651934 2.687863 0.679512
vt 0.188368 2.722348 0.679395
vt 5.633028 2.424563 0.680405
vt 0.221977 0.459430 1.235527
vt 0.341938 0.606399 0.741989
vt 0.237816 0.704760 0.411682
vt 0.117851 0.557796 0.905205
vt 0.341938 0.192474 0.220009
vt 0.237816 0.290835 -0.110298
vt 0.221977 0.045506 0.713547
vt 0.117851 0.143871 0.383224
vt 0.221977 0.459430 1.235527
vt 0.341938 0.606399 0.741989
vt 0.237816 0.704760 0.411682
vt 0.117851 0.557796 0.905205
vt 0.341938 0.192474 0.220009
vt 0.237816 0.290835 -0.110298
vt 0.221977 0.045506 0.713547
vt 0.117851 0.143871 0.383224
vt 0.000000 0.000000 0.000000
vt 1.000000 0.000000 0.000000
vt 1.000000 1.000000 0.000000
vt 0.000000 1.000000 0.000000
vt 0.000000 0.000000 0.000000
vt 1.000000 0.000000 0.000000
vt 1.000000 1.000000 0.000000
vt 0.000000 1.000000 0.000000
vt 0.000000 0.000000 0.000000
vt 1.000000 0.000000 0.000000
vt 1.000000 1.000000 0.000000
vt 0.000000 1.000000 0.000000
vt 0.000000 0.000000 0.000000
vt 1.000000 0.000000 0.000000
vt 1.000000 1.000000 0.000000
vt 0.000000 1.000000 0.000000
vt 0.000000 0.000000 0.000000
vt 1.000000 0.000000 0.000000
vt 1.000000 1.000000 0.000000
vt 0.000000 1.000000 0.000000
vt 0.000000 0.000000 0.000000
vt 1.000000 0.000000 0.000000
vt 1.000000 1.000000 0.000000
vt 0.000000 1.000000 0.000000
vt 0.999500 0.999500 0.000500
vt 0.000500 0.999501 0.000500
vt 0.000500 0.000500 0.000500
vt 0.999500 0.000500 0.000500
vt 0.999500 0.999500 0.999501
vt 0.000500 0.999501 0.999501
vt 0.000500 0.000500 0.999501
vt 0.999500 0.000500 0.999501
vt 0.500000 0.500000 0.000000
vt 0.500000 0.500000 0.000000
# 286 texture coords

g Rataskaevu_22_2
usemtl Rataskaevu22_10SG
s off
f -183/-285/-723 -182/-284/-722 -2/-283/-721 
f -179/-281/-720 -184/-286/-719 -183/-285/-718 
f -180/-282/-717 -179/-281/-716 -183/-285/-715 
f -180/-282/-714 -183/-285/-713 -2/-283/-712 
f -170/-271/-711 -176/-278/-710 -181/-283/-709 
f -2/-283/-708 -182/-284/-707 -170/-271/-706 
usemtl xxx
f -175/-277/-705 -169/-270/-704 -172/-274/-703 
usemtl Rataskaevu22_10SG
f -176/-278/-702 -173/-275/-701 -1/-282/-700 
f -1/-282/-699 -181/-283/-698 -176/-278/-697 
f -174/-276/-696 -175/-277/-695 -173/-275/-694 
f -176/-278/-693 -168/-269/-692 -178/-280/-691 
f -178/-280/-690 -174/-276/-689 -173/-275/-688 
f -173/-275/-687 -176/-278/-686 -178/-280/-685 
usemtl xxx
f -175/-277/-684 -172/-274/-683 -171/-272/-682 
f -184/-286/-681 -179/-281/-680 -171/-273/-679 
f -171/-272/-678 -172/-274/-677 -184/-286/-676 
usemtl Rataskaevu22_10SG
f -170/-271/-675 -182/-284/-674 -177/-279/-673 
f -177/-279/-672 -176/-278/-671 -170/-271/-670 
usemtl xxx
f -175/-277/-669 -174/-276/-668 -169/-270/-667 
usemtl Rataskaevu22_16SG
f -168/-70/-666 -167/-69/-665 -170/-68/-664 
f -170/-68/-663 -177/-67/-662 -168/-70/-661 
usemtl Rataskaevu22_10SG
f -176/-278/-660 -177/-279/-659 -168/-269/-658 
usemtl Rataskaevu22_16SG
f -167/-66/-657 -166/-65/-656 -178/-64/-655 
f -178/-64/-654 -168/-63/-653 -167/-66/-652 
f -166/-65/-651 -165/-62/-650 -174/-61/-649 
f -174/-61/-648 -178/-64/-647 -166/-65/-646 
f -170/-60/-645 -164/-59/-644 -166/-65/-643 
f -166/-65/-642 -167/-66/-641 -170/-60/-640 
f -164/-59/-639 -169/-58/-638 -165/-62/-637 
f -165/-62/-636 -166/-65/-635 -164/-59/-634 
usemtl xxx
f -174/-276/-633 -165/-268/-632 -169/-267/-631 
usemtl Rataskaevu22_37SG
f -164/-57/-630 -170/-56/-629 -182/-55/-628 
f -182/-55/-627 -183/-54/-626 -164/-57/-625 
f -169/-53/-624 -164/-57/-623 -183/-54/-622 
f -183/-54/-621 -172/-52/-620 -169/-53/-619 
f -183/-54/-618 -184/-51/-617 -172/-52/-616 
usemtl Rataskaevu22_16SG
s 24
f -160/-264/-615 -150/-263/-614 -151/-265/-613 
f -151/-265/-612 -161/-266/-611 -160/-264/-610 
f -159/-262/-609 -149/-261/-608 -150/-263/-607 
f -150/-263/-606 -160/-264/-605 -159/-262/-604 
f -158/-260/-603 -148/-259/-602 -149/-261/-601 
f -149/-261/-600 -159/-262/-599 -158/-260/-598 
f -157/-258/-597 -147/-257/-596 -148/-259/-595 
f -148/-259/-594 -158/-260/-593 -157/-258/-592 
f -156/-256/-591 -146/-255/-590 -147/-257/-589 
f -147/-257/-588 -157/-258/-587 -156/-256/-586 
f -155/-254/-585 -145/-253/-584 -146/-255/-583 
f -146/-255/-582 -156/-256/-581 -155/-254/-580 
f -154/-252/-579 -144/-251/-578 -145/-253/-577 
f -145/-253/-576 -155/-254/-575 -154/-252/-574 
f -153/-250/-573 -143/-249/-572 -144/-251/-571 
f -144/-251/-570 -154/-252/-569 -153/-250/-568 
f -163/-248/-567 -152/-247/-566 -143/-249/-565 
f -143/-249/-564 -153/-250/-563 -163/-248/-562 
usemtl Rataskaevu22_222SG
s off
f -153/-246/-561 -154/-245/-560 -155/-244/-559 
f -155/-244/-558 -156/-243/-557 -157/-242/-556 
f -157/-242/-555 -158/-241/-554 -159/-240/-553 
f -155/-244/-552 -157/-242/-551 -159/-240/-550 
f -159/-240/-549 -160/-239/-548 -161/-238/-547 
f -159/-240/-546 -161/-238/-545 -162/-237/-544 
f -155/-244/-543 -159/-240/-542 -162/-237/-541 
f -153/-246/-540 -155/-244/-539 -162/-237/-538 
f -163/-236/-537 -153/-246/-536 -162/-237/-535 
usemtl Rataskaevu22_16SG
s 24
f -139/-233/-534 -129/-232/-533 -130/-234/-532 
f -130/-234/-531 -140/-235/-530 -139/-233/-529 
f -138/-231/-528 -128/-230/-527 -129/-232/-526 
f -129/-232/-525 -139/-233/-524 -138/-231/-523 
f -137/-229/-522 -127/-228/-521 -128/-230/-520 
f -128/-230/-519 -138/-231/-518 -137/-229/-517 
f -136/-227/-516 -126/-226/-515 -127/-228/-514 
f -127/-228/-513 -137/-229/-512 -136/-227/-511 
f -135/-225/-510 -125/-224/-509 -126/-226/-508 
f -126/-226/-507 -136/-227/-506 -135/-225/-505 
f -134/-223/-504 -124/-222/-503 -125/-224/-502 
f -125/-224/-501 -135/-225/-500 -134/-223/-499 
f -133/-221/-498 -123/-220/-497 -124/-222/-496 
f -124/-222/-495 -134/-223/-494 -133/-221/-493 
f -132/-219/-492 -122/-218/-491 -123/-220/-490 
f -123/-220/-489 -133/-221/-488 -132/-219/-487 
f -142/-217/-486 -131/-216/-485 -122/-218/-484 
f -122/-218/-483 -132/-219/-482 -142/-217/-481 
usemtl Rataskaevu22_222SG
s off
f -132/-215/-480 -133/-214/-479 -134/-213/-478 
f -134/-213/-477 -135/-212/-476 -136/-211/-475 
f -136/-211/-474 -137/-210/-473 -138/-209/-472 
f -134/-213/-471 -136/-211/-470 -138/-209/-469 
f -138/-209/-468 -139/-208/-467 -140/-207/-466 
f -138/-209/-465 -140/-207/-464 -141/-206/-463 
f -134/-213/-462 -138/-209/-461 -141/-206/-460 
f -132/-215/-459 -134/-213/-458 -141/-206/-457 
f -142/-205/-456 -132/-215/-455 -141/-206/-454 
usemtl Rataskaevu22_16SG
s 24
f -118/-202/-453 -108/-201/-452 -109/-203/-451 
f -109/-203/-450 -119/-204/-449 -118/-202/-448 
f -117/-200/-447 -107/-199/-446 -108/-201/-445 
f -108/-201/-444 -118/-202/-443 -117/-200/-442 
f -116/-198/-441 -106/-197/-440 -107/-199/-439 
f -107/-199/-438 -117/-200/-437 -116/-198/-436 
f -115/-196/-435 -105/-195/-434 -106/-197/-433 
f -106/-197/-432 -116/-198/-431 -115/-196/-430 
f -114/-194/-429 -104/-193/-428 -105/-195/-427 
f -105/-195/-426 -115/-196/-425 -114/-194/-424 
f -113/-192/-423 -103/-191/-422 -104/-193/-421 
f -104/-193/-420 -114/-194/-419 -113/-192/-418 
f -112/-190/-417 -102/-189/-416 -103/-191/-415 
f -103/-191/-414 -113/-192/-413 -112/-190/-412 
f -111/-188/-411 -101/-187/-410 -102/-189/-409 
f -102/-189/-408 -112/-190/-407 -111/-188/-406 
f -121/-186/-405 -110/-185/-404 -101/-187/-403 
f -101/-187/-402 -111/-188/-401 -121/-186/-400 
usemtl Rataskaevu22_222SG
s off
f -111/-184/-399 -112/-183/-398 -113/-182/-397 
f -113/-182/-396 -114/-181/-395 -115/-180/-394 
f -115/-180/-393 -116/-179/-392 -117/-178/-391 
f -113/-182/-390 -115/-180/-389 -117/-178/-388 
f -117/-178/-387 -118/-177/-386 -119/-176/-385 
f -117/-178/-384 -119/-176/-383 -120/-175/-382 
f -113/-182/-381 -117/-178/-380 -120/-175/-379 
f -111/-184/-378 -113/-182/-377 -120/-175/-376 
f -121/-174/-375 -111/-184/-374 -120/-175/-373 
usemtl Rataskaevu22_16SG
s 24
f -97/-171/-372 -87/-170/-371 -88/-172/-370 
f -88/-172/-369 -98/-173/-368 -97/-171/-367 
f -96/-169/-366 -86/-168/-365 -87/-170/-364 
f -87/-170/-363 -97/-171/-362 -96/-169/-361 
f -95/-167/-360 -85/-166/-359 -86/-168/-358 
f -86/-168/-357 -96/-169/-356 -95/-167/-355 
f -94/-165/-354 -84/-164/-353 -85/-166/-352 
f -85/-166/-351 -95/-167/-350 -94/-165/-349 
f -93/-163/-348 -83/-162/-347 -84/-164/-346 
f -84/-164/-345 -94/-165/-344 -93/-163/-343 
f -92/-161/-342 -82/-160/-341 -83/-162/-340 
f -83/-162/-339 -93/-163/-338 -92/-161/-337 
f -91/-159/-336 -81/-158/-335 -82/-160/-334 
f -82/-160/-333 -92/-161/-332 -91/-159/-331 
f -90/-157/-330 -80/-156/-329 -81/-158/-328 
f -81/-158/-327 -91/-159/-326 -90/-157/-325 
f -100/-155/-324 -89/-154/-323 -80/-156/-322 
f -80/-156/-321 -90/-157/-320 -100/-155/-319 
usemtl Rataskaevu22_222SG
s off
f -90/-153/-318 -91/-152/-317 -92/-151/-316 
f -92/-151/-315 -93/-150/-314 -94/-149/-313 
f -94/-149/-312 -95/-148/-311 -96/-147/-310 
f -92/-151/-309 -94/-149/-308 -96/-147/-307 
f -96/-147/-306 -97/-146/-305 -98/-145/-304 
f -96/-147/-303 -98/-145/-302 -99/-144/-301 
f -92/-151/-300 -96/-147/-299 -99/-144/-298 
f -90/-153/-297 -92/-151/-296 -99/-144/-295 
f -100/-143/-294 -90/-153/-293 -99/-144/-292 
usemtl Rataskaevu22_katvalge
f -74/-141/-291 -71/-134/-290 -70/-133/-289 
f -70/-133/-288 -75/-142/-287 -74/-141/-286 
f -74/-141/-285 -75/-142/-284 -73/-136/-283 
f -73/-136/-282 -72/-135/-281 -74/-141/-280 
usemtl Rataskaevu22_37SG
f -78/-138/-279 -76/-137/-278 -72/-135/-277 
f -72/-135/-276 -73/-136/-275 -78/-138/-274 
f -77/-140/-273 -79/-139/-272 -70/-133/-271 
f -70/-133/-270 -71/-134/-269 -77/-140/-268 
usemtl Rataskaevu22_23SG
f -75/-124/-267 -79/-123/-266 -67/-122/-265 
f -75/-124/-264 -67/-122/-263 -65/-121/-262 
f -75/-124/-261 -65/-121/-260 -66/-120/-259 
f -75/-124/-258 -66/-120/-257 -78/-119/-256 
usemtl Rataskaevu22_24SG
f -66/-131/-255 -68/-130/-254 -76/-129/-253 
usemtl Rataskaevu22_10SG
f -76/-129/-252 -78/-132/-251 -66/-131/-250 
f -79/-127/-249 -77/-126/-248 -69/-125/-247 
f -69/-125/-246 -67/-128/-245 -79/-127/-244 
usemtl Rataskaevu22_katvalge
f -59/-117/-243 -56/-110/-242 -55/-109/-241 
f -55/-109/-240 -60/-118/-239 -59/-117/-238 
f -59/-117/-237 -60/-118/-236 -58/-112/-235 
f -58/-112/-234 -57/-111/-233 -59/-117/-232 
usemtl Rataskaevu22_37SG
f -63/-114/-231 -61/-113/-230 -57/-111/-229 
f -57/-111/-228 -58/-112/-227 -63/-114/-226 
f -62/-116/-225 -64/-115/-224 -55/-109/-223 
f -55/-109/-222 -56/-110/-221 -62/-116/-220 
usemtl Rataskaevu22_23SG
f -60/-100/-219 -64/-99/-218 -52/-98/-217 
f -60/-100/-216 -52/-98/-215 -50/-97/-214 
f -60/-100/-213 -50/-97/-212 -51/-96/-211 
f -60/-100/-210 -51/-96/-209 -63/-95/-208 
usemtl Rataskaevu22_24SG
f -51/-107/-207 -53/-106/-206 -61/-105/-205 
usemtl Rataskaevu22_10SG
f -61/-105/-204 -63/-108/-203 -51/-107/-202 
f -64/-103/-201 -62/-102/-200 -54/-101/-199 
f -54/-101/-198 -52/-104/-197 -64/-103/-196 
usemtl Rataskaevu22_katvalge
f -44/-93/-195 -41/-86/-194 -40/-85/-193 
f -40/-85/-192 -45/-94/-191 -44/-93/-190 
f -44/-93/-189 -45/-94/-188 -43/-88/-187 
f -43/-88/-186 -42/-87/-185 -44/-93/-184 
usemtl Rataskaevu22_37SG
f -48/-90/-183 -46/-89/-182 -42/-87/-181 
f -42/-87/-180 -43/-88/-179 -48/-90/-178 
f -47/-92/-177 -49/-91/-176 -40/-85/-175 
f -40/-85/-174 -41/-86/-173 -47/-92/-172 
usemtl Rataskaevu22_23SG
f -45/-76/-171 -49/-75/-170 -37/-74/-169 
f -45/-76/-168 -37/-74/-167 -35/-73/-166 
f -45/-76/-165 -35/-73/-164 -36/-72/-163 
f -45/-76/-162 -36/-72/-161 -48/-71/-160 
usemtl Rataskaevu22_24SG
f -36/-83/-159 -38/-82/-158 -46/-81/-157 
usemtl Rataskaevu22_10SG
f -46/-81/-156 -48/-84/-155 -36/-83/-154 
f -49/-79/-153 -47/-78/-152 -39/-77/-151 
f -39/-77/-150 -37/-80/-149 -49/-79/-148 
usemtl Rataskaevu22_16SG
f -34/-50/-147 -33/-49/-146 -32/-48/-145 
f -32/-48/-144 -31/-47/-143 -34/-50/-142 
f -33/-49/-141 -30/-46/-140 -29/-45/-139 
f -29/-45/-138 -32/-48/-137 -33/-49/-136 
f -30/-46/-135 -28/-44/-134 -27/-43/-133 
f -27/-43/-132 -29/-45/-131 -30/-46/-130 
f -28/-44/-129 -34/-50/-128 -31/-47/-127 
f -31/-47/-126 -27/-43/-125 -28/-44/-124 
f -28/-44/-123 -30/-46/-122 -33/-49/-121 
f -33/-49/-120 -34/-50/-119 -28/-44/-118 
f -31/-47/-117 -32/-48/-116 -29/-45/-115 
f -29/-45/-114 -27/-43/-113 -31/-47/-112 
f -26/-42/-111 -25/-41/-110 -24/-40/-109 
f -24/-40/-108 -23/-39/-107 -26/-42/-106 
f -25/-41/-105 -22/-38/-104 -21/-37/-103 
f -21/-37/-102 -24/-40/-101 -25/-41/-100 
f -22/-38/-99 -20/-36/-98 -19/-35/-97 
f -19/-35/-96 -21/-37/-95 -22/-38/-94 
f -20/-36/-93 -26/-42/-92 -23/-39/-91 
f -23/-39/-90 -19/-35/-89 -20/-36/-88 
f -20/-36/-87 -22/-38/-86 -25/-41/-85 
f -25/-41/-84 -26/-42/-83 -20/-36/-82 
f -23/-39/-81 -24/-40/-80 -21/-37/-79 
f -21/-37/-78 -19/-35/-77 -23/-39/-76 
usemtl Rataskaevu22_38SG
f -17/-33/-75 -15/-32/-74 -16/-31/-73 
f -16/-31/-72 -18/-34/-71 -17/-33/-70 
usemtl Rataskaevu22_10SG
f -15/-29/-69 -13/-28/-68 -14/-27/-67 
f -14/-27/-66 -16/-30/-65 -15/-29/-64 
usemtl Rataskaevu22_24SG
f -13/-25/-63 -11/-24/-62 -12/-23/-61 
f -12/-23/-60 -14/-26/-59 -13/-25/-58 
usemtl Rataskaevu22_10SG
f -11/-21/-57 -17/-20/-56 -18/-19/-55 
f -18/-19/-54 -12/-22/-53 -11/-21/-52 
f -11/-17/-51 -13/-16/-50 -15/-15/-49 
f -15/-15/-48 -17/-18/-47 -11/-17/-46 
f -18/-13/-45 -16/-12/-44 -14/-11/-43 
f -14/-11/-42 -12/-14/-41 -18/-13/-40 
usemtl Rataskaevu22_17SG
s 1
f -4/-4/-39 -3/-3/-38 -6/-6/-37 
f -5/-5/-36 -4/-4/-35 -6/-6/-34 
s off
f -8/-8/-33 -7/-7/-32 -3/-3/-31 
f -3/-3/-30 -4/-4/-29 -8/-8/-28 
f -7/-7/-27 -10/-10/-26 -6/-6/-25 
f -6/-6/-24 -3/-3/-23 -7/-7/-22 
f -9/-9/-21 -8/-8/-20 -4/-4/-19 
f -4/-4/-18 -5/-5/-17 -9/-9/-16 
f -10/-10/-15 -9/-9/-14 -5/-5/-13 
f -5/-5/-12 -6/-6/-11 -10/-10/-10 
usemtl Rataskaevu22_10SG
f -2/-2/-9 -181/-283/-8 -180/-282/-7 
f -1/-1/-6 -180/-282/-5 -181/-283/-4 
f -170/-271/-3 -181/-283/-2 -2/-2/-1 
# 241 faces

