# 3ds Max Wavefront OBJ Exporter v0.97b - (c)2007 guruware
# File Created: 06.09.2011 20:28:10

mtllib Toompuiestee_8b-origo.mtl

#
# object Box001
#

v  541751.261047 6588624.62503 20.312366
v  541751.259949 6588624.62448 20.617628
v  541751.304443 6588624.54114 20.617645
v  541751.267578 6588624.62842 18.408218
v  541751.316711 6588624.54239 18.408201
v  541745.873352 6588635.16834 21.747004
v  541745.871948 6588635.17273 21.831329
v  541747.102661 6588632.80496 21.798798
v  541747.096558 6588632.78674 20.617645
v  541745.862366 6588635.15793 20.617638
v  541751.557495 6588624.53549 21.836088
v  541751.558594 6588624.5307 21.949665
v  541748.452087 6588622.85272 21.136257
v  541748.452209 6588622.85263 21.043987
v  541745.989868 6588635.23273 21.861193
v  541749.42865 6588628.33066 21.741835
v  541751.521973 6588624.60782 21.699787
v  541751.398132 6588624.54159 21.684856
v  541742.965698 6588633.69986 20.985350
v  541742.894043 6588633.66367 20.966578
v  541742.890259 6588633.6713 21.142582
v  541745.720581 6588635.09113 21.707016
v  541745.985474 6588635.23767 21.982216
v  541745.821716 6588635.14218 21.733507
v  541749.421509 6588628.31995 20.617645
v  541751.369995 6588624.5755 20.617645
v  541750.800659 6588625.51285 20.617628
v  541749.929382 6588627.19821 20.617634
v  541749.181824 6588628.64414 20.617638
v  541745.876648 6588635.03717 20.617651
v  541745.824158 6588635.13879 20.617653
v  541749.126099 6588628.75192 20.617638
v  541751.239014 6588624.50598 20.617601
v  541751.239014 6588624.50061 18.408199
v  541751.371704 6588624.57648 20.825251
v  541751.239807 6588624.50568 20.825249
v  541745.945496 6588635.31467 21.981934
v  541742.852966 6588633.74246 21.141600
v  541742.85437 6588633.73975 21.224087
v  541745.946533 6588635.31055 22.080471
v  541750.184814 6588627.16962 21.979504
v  541748.088257 6588626.06033 21.420467
v  541747.621948 6588625.8122 21.293293
v  541747.081665 6588625.51843 21.155193
v  541749.921814 6588627.67474 21.985376
v  541751.517761 6588624.61182 21.835684
v  541742.8927 6588633.66785 18.408243
v  541748.391663 6588622.96988 18.408165
v  541748.388367 6588622.97519 20.825216
v  541748.408264 6588622.93808 20.825310
v  541748.408264 6588622.93814 20.852341
v  541748.409485 6588622.93564 21.042192
v  541748.388611 6588622.97473 20.615635
v  541746.819031 6588626.02927 21.159044
v  541751.396851 6588624.54233 21.594288
v  541747.929199 6588626.10532 21.336905
v  541747.776428 6588626.40118 21.332750
v  541747.522217 6588626.26633 21.354261
v  541747.674866 6588625.97 21.358831
v  541747.361816 6588626.31711 21.298916
v  541747.623901 6588625.80695 22.927433
v  541747.359253 6588626.32202 21.298967
v  541747.361206 6588626.31677 22.919811
v  541748.09021 6588626.05505 22.907761
v  541747.828003 6588626.56433 21.416534
v  541747.825439 6588626.5693 21.416594
v  541747.827393 6588626.56403 22.901386
v  541747.674866 6588625.97 22.921423
v  541747.522217 6588626.26633 22.917154
v  541747.929199 6588626.10532 22.910833
v  541747.776428 6588626.40118 22.906967
v  541751.391663 6588624.5394 20.825342
v  541745.87854 6588635.03656 20.312384
v  541745.825439 6588635.13931 20.312382
v  541746.268311 6588634.28265 20.312386
v  541746.278992 6588634.2804 18.408216
v  541745.889343 6588635.03424 18.408199
v  541747.108887 6588632.65655 20.312386
v  541747.119568 6588632.65436 18.408224
v  541748.444214 6588623.00516 20.825216
v  541751.239014 6588624.50525 20.825249
v  541748.444214 6588623.00458 20.615673
v  541748.444214 6588622.99811 18.408165
v  541749.181824 6588628.64685 20.312374
v  541749.244202 6588628.52618 20.312374
v  541749.244385 6588628.54303 18.408218
v  541749.181824 6588628.66409 18.408218
v  541749.126099 6588628.75464 20.312376
v  541748.676636 6588629.62405 20.312382
v  541748.095032 6588630.74911 20.312380
v  541745.833313 6588635.14258 18.408197
v  541745.723511 6588635.08759 18.408213
v  541742.965393 6588633.70429 18.408241
v  541749.126099 6588628.77191 18.408218
v  541750.801453 6588625.51401 20.312368
v  541748.100342 6588630.75662 18.408218
v  541748.678772 6588629.63742 18.408222
v  541749.637512 6588627.76547 20.312372
v  541749.638916 6588627.77966 18.408218
v  541749.931335 6588627.20859 19.007835
v  541749.932068 6588627.21246 18.408218
v  541749.929749 6588627.20019 20.312370
v  541750.804871 6588625.51859 19.007833
v  541750.806458 6588625.52069 18.408218
# 104 vertices

vn 0.882207 0.470845 0.003879
vn 0.868323 0.495972 0.005103
vn 0.887209 0.461225 -0.011516
vn 0.886961 0.461664 -0.012918
vn 0.480189 -0.876882 -0.022291
vn 0.199765 0.116570 -0.972885
vn 0.091574 0.062716 -0.993821
vn -0.440151 0.896622 -0.048329
vn -0.438827 0.896834 -0.055859
vn -0.439017 0.896824 -0.054499
vn -0.440152 0.896622 -0.048324
vn 0.000201 0.000100 -1.000000
vn 0.000152 0.000081 -1.000000
vn 0.000110 0.000058 -1.000000
vn -0.000283 -0.000144 -1.000000
vn 0.000287 0.000146 -1.000000
vn 0.473391 -0.880850 0.002138
vn 0.470107 -0.882607 -0.002087
vn 0.473247 -0.880924 -0.003125
vn -0.449617 0.893214 -0.003774
vn -0.461340 0.886331 0.039779
vn -0.199331 -0.115579 0.973092
vn -0.196535 -0.106849 0.974658
vn 0.887008 0.461663 0.009128
vn 0.886999 0.461642 0.010933
vn 0.886986 0.461641 0.011975
vn 0.886975 0.461616 0.013622
vn 0.212004 0.102260 -0.971904
vn -0.889378 -0.457172 -0.000214
vn -0.880782 -0.473522 -0.000467
vn -0.889346 -0.457234 0.000060
vn -0.889382 -0.457162 0.001582
vn -0.889380 -0.457169 0.000005
vn -0.889327 -0.457217 -0.007170
vn -0.885736 -0.464189 -0.000105
vn 0.462482 -0.885471 0.045301
vn 0.477528 -0.878491 -0.014845
vn 0.475506 -0.879608 -0.013574
vn 0.200233 0.090122 -0.975595
vn 0.060720 0.046007 0.997094
vn -0.888950 -0.458004 -0.000408
vn -0.888946 -0.458012 -0.000412
vn 0.470070 -0.882622 -0.003572
vn 0.888560 0.458761 0.000453
vn 0.888559 0.458763 0.000452
vn -0.468858 0.883267 0.003591
vn -0.190376 -0.114688 0.974989
vn -0.201981 -0.117262 0.972344
vn -0.185750 -0.114049 0.975956
vn -0.209887 -0.116110 0.970807
vn -0.192301 -0.108068 0.975368
vn -0.204659 -0.107975 0.972860
vn 0.025931 0.028099 0.999269
vn 0.027181 0.027778 0.999245
vn 0.026715 0.026508 0.999292
vn 0.025457 0.026828 0.999316
vn 0.888948 0.458007 -0.000000
vn -0.469751 0.882799 -0.000000
vn -0.888561 -0.458758 -0.000000
vn 0.468563 -0.883430 0.000000
vn 0.472907 -0.881113 0.000251
vn 0.888305 0.459231 0.004615
vn 0.888316 0.459211 0.004450
vn 0.888317 0.459209 0.004444
vn 0.887073 0.461501 -0.010901
vn 0.887151 0.461400 -0.008524
vn 0.887048 0.461570 -0.009986
vn 0.887219 0.461275 -0.008229
vn 0.001065 -0.001964 -0.999998
vn 0.001041 -0.001918 -0.999997
vn 0.001039 -0.001910 -0.999998
vn 0.473375 -0.880857 0.002584
vn 0.473087 -0.881016 -0.000339
vn 0.888333 0.459181 0.004154
vn 0.472877 -0.881123 -0.003124
vn 0.473379 -0.880856 0.002362
vn 0.473089 -0.881011 0.002474
vn 0.888300 0.459244 0.004156
vn 0.888304 0.459235 0.004397
vn 0.888314 0.459214 0.004621
vn 0.888316 0.459211 0.004454
vn -0.385320 0.922783 -0.000014
vn -0.434921 0.900466 -0.001953
vn -0.448013 0.894027 -0.000323
vn -0.449543 0.893259 -0.000070
vn -0.449713 0.893171 0.001639
vn 0.888333 0.459181 0.004162
vn 0.888302 0.459243 0.003905
vn 0.888303 0.459240 0.004098
vn 0.888332 0.459180 0.004372
vn 0.888332 0.459181 0.004262
vn 0.888333 0.459181 0.004193
vn 0.888333 0.459181 0.004123
vn 0.888360 0.459129 0.004057
vn 0.888306 0.459233 0.004097
vn 0.888325 0.459198 0.004002
vn 0.888306 0.459236 0.003946
vn 0.888363 0.459124 0.003879
vn 0.888306 0.459233 0.004095
vn 0.888302 0.459243 0.004040
vn 0.888351 0.459148 0.004001
vn 0.888304 0.459239 0.003974
# 102 vertex normals

vt 0.861475 0.000492 0.472969
vt 0.999501 0.000492 0.472969
vt 0.999501 0.951401 0.000504
vt 0.000500 0.000496 0.472954
vt 0.000500 0.999496 0.999504
vt 1.615203 0.930185 0.985540
vt 1.619191 0.999500 0.999498
vt 0.008714 0.972649 0.215969
vt 0.000809 0.000505 0.000500
vt 1.615223 0.000500 0.763849
vt 0.923365 0.581589 0.578743
vt 0.929590 0.916210 0.585954
vt -0.077332 0.915550 0.617460
vt -0.085904 0.627354 0.617139
vt 0.692649 0.351899 0.689831
vt 0.026440 0.365417 0.779675
vt 0.025579 0.607970 0.861195
vt 1.952462 0.326605 0.532970
vt 3.018991 0.561886 0.417179
vt 3.019300 0.304688 0.376064
vt 0.976495 0.002382 0.525210
vt 0.999028 0.002044 0.531990
vt 0.984984 0.591949 0.531994
vt 0.110073 0.015363 0.264517
vt 0.005241 0.630508 0.252296
vt 0.010534 0.277252 0.252258
vt 0.052773 0.277328 0.249172
vt 0.058930 0.016129 0.249129
vt 0.078265 0.015840 0.254947
vt 1.155317 0.833542 0.997353
vt -0.500223 0.812059 0.996796
vt -0.500281 0.491487 0.998604
vt -0.465802 0.492813 0.998610
vt -0.044018 0.509042 0.998691
vt 0.671183 0.536560 0.998827
vt 1.309941 0.561136 0.998949
vt 3.130330 0.856915 0.998024
vt 4.134179 0.669801 0.999487
vt 4.179061 0.671528 0.999496
vt 4.178775 0.869318 0.998382
vt 1.357557 0.562968 0.998958
vt 0.913696 0.970396 0.174362
vt 0.000768 0.999504 0.004601
vt 0.000770 0.000503 0.000484
vt 0.913715 0.129267 0.170704
vt 0.913718 -0.708109 0.160538
vt 0.999502 -0.730858 0.172825
vt 0.999498 0.963644 0.180695
vt 0.493004 0.000498 2.750000
vt 0.535385 0.000511 3.726563
vt 0.536086 0.987577 3.656738
vt 0.478622 0.999500 2.727539
vt 0.005160 0.629807 0.477547
vt 0.984623 0.590782 0.750837
vt 0.978042 0.866936 0.750837
vt 0.001035 0.941284 0.478096
vt 6.008922 2.016990 0.897865
vt 6.025856 0.664192 0.372612
vt 6.030518 0.361028 0.220936
vt 7.950806 2.018991 0.864914
vt 6.039438 0.011365 0.098621
vt 7.996005 0.001009 0.000500
vt 0.992863 0.839066 0.992452
vt 0.999792 0.837479 0.999388
vt 0.999293 0.998672 0.994374
vt 0.292069 1.002571 0.290451
vt 0.245280 1.003510 0.243849
vt 0.000826 1.009785 0.000318
vt 0.001107 0.823822 0.006245
vt 0.992155 0.641209 0.998994
vt 0.008176 0.821568 0.013353
vt 0.007596 0.599266 0.021136
vt 0.984623 0.750837 0.590782
vt 0.005160 0.477547 0.629807
vt 0.005241 0.252296 0.630508
vt 0.984984 0.531994 0.591949
vt -0.408156 1.049227 1.015312
vt -0.408026 -0.784057 1.017383
vt 1.388477 -0.784113 -0.006895
vt -0.408183 1.175674 1.015158
vt 1.387544 0.948112 -0.008252
vt 1.393835 0.948178 -0.009078
vt 1.393822 0.967550 -0.009095
vt 1.394243 1.103611 -0.009493
vt 1.408183 1.104897 -0.017302
vt 1.408165 1.171024 -0.017382
vt 0.960498 1.184595 0.237082
vt 1.387623 0.797911 -0.008136
vt 0.874710 1.187355 0.285846
vt -0.420425 1.234010 1.022036
vt -0.420425 1.174806 1.022119
vt 0.869328 0.261208 0.816754
vt 0.915930 0.207081 0.813055
vt 0.923458 0.579952 0.808526
vt -0.102972 0.031990 0.873805
vt -0.085357 0.624832 0.866280
vt 0.861601 0.000950 0.820008
vt 0.076635 0.578743 0.581589
vt 1.085904 0.617139 0.627354
vt 1.085357 0.866280 0.624832
vt 0.076542 0.808526 0.579952
vt 0.394758 0.374083 0.500000
vt 0.397802 0.438063 0.500000
vt 0.278174 0.438667 0.500000
vt 0.275010 0.374613 0.500000
vt 0.009989 0.008794 0.025890
vt 0.981319 0.000499 0.001966
vt 0.990844 0.999500 0.000500
vt 0.000499 0.008874 0.026124
vt 0.010025 0.999500 0.024657
vt 0.974800 0.999500 0.000500
vt 0.000500 0.999500 0.009156
vt 0.001966 0.000499 0.018681
vt 0.976266 0.105586 0.010026
vt 0.980092 0.113075 0.999274
vt 0.989636 0.113149 0.999501
vt 0.980111 0.999500 0.998035
vt 0.010026 0.105586 0.976266
vt 0.000500 0.999500 0.974800
vt 0.975343 0.999500 0.989975
vt 0.001965 0.999500 0.980111
vt 0.000499 0.113149 0.989636
vt 0.973876 0.008874 0.999501
vt 5.664494 0.013349 0.117420
vt 5.659763 0.362737 0.239853
vt 5.656141 0.362754 0.240036
vt 0.019284 2.010819 0.999500
vt 5.651953 0.665512 0.389412
vt 5.655596 0.665499 0.389248
vt 5.637237 2.016607 0.904171
vt 0.003995 0.042840 0.397842
vt 0.262368 0.309686 0.500000
vt 0.274619 0.530529 0.500000
vt 0.085892 0.610905 0.500000
vt 0.064814 0.230940 0.500000
vt 0.726019 0.307857 0.500000
vt 0.914913 0.227586 0.500000
vt 0.737803 0.528445 0.500000
vt 0.935186 0.607084 0.500000
vt 0.008706 0.000499 0.000499
vt 0.999500 0.000499 0.026241
vt 0.999501 0.999500 0.026242
vt 0.008706 0.999500 0.000499
vt 0.025260 0.000499 0.000501
vt 0.999501 0.000499 0.008706
vt 0.999501 0.999500 0.008706
vt 0.025260 0.999500 0.000501
vt 0.009850 0.000499 0.999501
vt 0.999499 0.000499 0.974740
vt 0.999499 0.999500 0.974740
vt 0.009849 0.999500 0.999501
vt 0.026241 0.000499 0.999500
vt 0.999501 0.000499 0.990150
vt 0.999501 0.999500 0.990151
vt 0.026242 0.999500 0.999501
vt -0.154139 0.316043 0.999512
vt -0.154110 0.300005 0.995488
vt 1.151839 0.300016 0.000536
vt 1.154139 0.756465 0.004425
vt 0.844386 0.058922 0.112083
vt 0.844385 0.998283 0.313370
vt 0.979720 0.999500 0.199265
vt 0.979719 0.070770 0.000549
vt 2.381997 0.999500 0.762521
vt 2.373442 0.000508 0.836764
vt 3.394231 0.000499 0.999502
vt 3.402885 0.999499 0.925158
vt 0.004325 0.999499 0.000502
vt 0.000500 0.000503 0.174751
vt 0.995635 0.000499 0.999502
vt 0.999501 0.999499 0.825041
vt 4.881237 0.070313 0.726319
vt 4.888103 0.973841 0.785241
vt 2.243039 0.929041 0.380687
vt 2.239901 0.035410 0.332993
vt 0.001851 0.874662 0.086064
vt 0.001765 0.224057 0.020533
vt 0.024928 0.225062 0.023213
vt 2.348826 0.999500 0.999501
vt 0.024947 0.000500 0.000501
vt 2.345537 0.038134 0.873858
vt 0.001174 0.951292 0.094016
vt 0.892944 0.498565 1.000174
vt -0.105945 0.499039 0.750193
vt -0.105925 0.500026 0.015805
vt -0.087226 0.500017 0.020777
vt 0.848612 0.499573 0.269613
vt 0.848892 0.499572 0.269688
vt 0.893056 0.499552 0.281431
vt 0.912894 0.004837 0.864929
vt 0.912878 0.998989 0.918762
vt 0.000500 0.993526 0.048828
vt 0.000500 0.053566 0.000549
vt 1.218371 0.006971 0.078054
vt 1.218154 0.928942 0.046134
vt -0.259137 0.928798 0.980936
vt -0.258968 -0.001585 0.955876
vt 0.137590 0.581479 0.940834
vt 0.102377 0.581479 0.940040
vt 0.108772 -0.774954 0.943385
vt 0.144029 -0.774954 0.944193
vt 1.218596 0.928942 0.045855
vt 0.017896 0.797530 -1.054976
vt 0.017044 -0.774992 -1.056448
vt 0.892251 -0.774967 -1.060818
vt 0.892960 0.798903 -1.059594
vt 0.999501 0.000500 0.941772
vt 0.999501 0.999500 0.999451
vt 4.134171 0.999476 0.668240
vt 1.357554 0.998953 0.562343
vt 1.359352 -0.000056 0.561115
vt 1.711731 0.000010 0.574984
vt 2.240300 0.000109 0.595787
vt 3.121248 0.000275 0.630459
vt 3.784873 0.000397 0.657024
vt 4.133638 0.000398 0.670582
vt -1.060938 0.439440 0.000511
vt 2.060936 0.435063 0.760437
vt 2.060940 0.509274 0.999512
vt -1.060934 0.509823 0.227104
vt 0.017272 0.798932 2.030866
vt 0.017170 0.581474 2.031325
vt 0.012653 -0.774960 2.033422
vt 0.041743 0.274719 0.876221
vt 0.950952 0.270750 0.999634
vt 0.958257 0.679163 0.210815
vt 0.650663 0.670197 0.245972
vt 0.041743 0.729251 0.000732
vt 0.898588 1.060639 2.060282
vt 0.050556 1.573316 2.035003
vt 0.047413 -0.774960 2.034475
vt 0.898053 -0.774937 2.060257
vt 0.899891 0.098492 0.999512
vt 0.906450 0.885279 0.249756
vt 0.006449 0.901505 0.000610
vt 0.006450 0.104156 0.758423
vt 0.861474 0.050071 0.107437
vt 0.000500 0.151696 0.784500
vt 0.000500 0.965979 0.999466
vt 0.861475 0.864170 0.321198
vt -0.464687 -0.000398 0.489326
vt -0.042696 -0.000319 0.505934
vt -0.044019 0.998690 0.508888
vt -0.465802 0.998610 0.492802
vt 0.999501 0.848103 0.214157
vt 0.999501 0.034023 0.000549
vt 0.180075 0.999500 0.411633
vt -2.402886 0.999497 0.000501
vt -2.397992 0.000509 0.074445
vt 0.171611 0.000512 0.485786
vt 0.435189 0.999500 0.372154
vt 0.439955 0.000502 0.518511
vt 0.999501 0.000500 0.999498
vt 0.997693 0.999499 0.852892
vt 0.000500 0.999497 0.000498
vt 0.007239 0.000500 0.146690
vt 0.982655 0.999501 0.690681
vt 0.000500 0.999500 0.000504
vt 0.014025 0.000500 0.303207
vt 0.999501 0.000500 0.999500
vt -0.280571 -0.347816 0.933505
vt -0.278708 -0.774958 0.934510
vt -0.113525 -0.774956 0.938293
vt -0.284623 0.581479 0.931321
vt -0.119645 0.581479 0.935038
vt 0.000500 0.999498 0.000502
vt 0.001749 0.000499 0.113037
vt 0.999501 0.000501 0.999502
vt 0.996036 0.999500 0.881828
vt -0.753710 -0.347819 0.922724
vt -0.757361 0.581479 0.920669
vt -1.036194 0.581479 0.914386
vt -0.752032 -0.774963 0.923668
vt -1.031211 -0.774966 0.917273
vt 1.258448 -0.000075 0.557144
vt 1.311741 -0.000065 0.559241
vt 1.309938 0.998944 0.560526
vt 0.922437 -0.000138 0.543919
vt 0.672755 -0.000184 0.534092
vt 0.671181 0.998824 0.536165
# 280 texture coords

g Box001
usemtl Material__174
f -104/-280/-102 -103/-279/-102 -102/-278/-102 -101/-277/-102 
f -102/-278/-101 -100/-276/-101 -101/-277/-101 
usemtl Material__62
f -99/-275/-100 -98/-274/-100 -97/-273/-100 -96/-272/-100 
f -99/-275/-99 -96/-272/-99 -95/-271/-99 
usemtl Material__49
f -94/-270/-98 -93/-269/-98 -92/-268/-98 -91/-267/-98 
usemtl Material__111
f -97/-266/-97 -98/-265/-97 -90/-264/-97 -89/-263/-97 
f -90/-264/-96 -88/-262/-96 -87/-261/-96 -89/-263/-96 
usemtl Material__49
f -86/-260/-95 -85/-259/-95 -84/-258/-95 -83/-257/-95 
f -82/-256/-94 -90/-255/-94 -98/-254/-94 -84/-258/-94 
f -84/-258/-93 -98/-254/-93 -99/-253/-93 -81/-252/-93 
f -84/-258/-92 -81/-252/-92 -83/-257/-92 
usemtl Material__149
f -80/-251/-91 -79/-250/-91 -102/-249/-91 -103/-248/-91 
f -80/-251/-90 -103/-248/-90 -78/-247/-90 -77/-246/-90 
f -80/-251/-89 -77/-246/-89 -76/-245/-89 -96/-244/-89 
f -75/-243/-88 -74/-242/-88 -95/-241/-88 -73/-240/-88 
f -73/-240/-87 -95/-241/-87 -96/-244/-87 -76/-245/-87 
usemtl Material__174
f -72/-239/-86 -71/-238/-86 -100/-237/-86 -102/-236/-86 
f -79/-235/-85 -70/-234/-85 -69/-233/-85 -102/-236/-85 
f -72/-239/-84 -102/-236/-84 -69/-233/-84 
usemtl Material__62
f -95/-232/-83 -74/-231/-83 -81/-230/-83 -99/-229/-83 
usemtl Material__49
f -68/-228/-82 -67/-227/-82 -66/-226/-82 -65/-225/-82 
usemtl Material__25
f -64/-224/-81 -63/-223/-81 -62/-222/-81 -93/-221/-81 
f -61/-220/-80 -92/-219/-80 -93/-221/-80 -62/-222/-80 
usemtl Material__111
f -82/-218/-79 -68/-217/-79 -65/-216/-79 -60/-215/-79 
f -64/-214/-78 -93/-213/-78 -94/-212/-78 -60/-215/-78 
f -82/-218/-77 -60/-215/-77 -94/-212/-77 -90/-211/-77 
f -90/-211/-76 -94/-212/-76 -59/-210/-76 -88/-209/-76 
usemtl Material__49
f -67/-208/-75 -68/-207/-75 -82/-206/-75 -84/-205/-75 
usemtl Material__137
f -85/-204/-74 -58/-203/-74 -57/-202/-74 -84/-201/-74 
f -56/-200/-73 -55/-199/-73 -54/-198/-73 -53/-197/-73 
f -53/-197/-72 -91/-196/-72 -92/-195/-72 -61/-194/-72 
f -56/-200/-71 -53/-197/-71 -61/-194/-71 -52/-193/-71 
f -57/-202/-70 -52/-193/-70 -61/-194/-70 -84/-201/-70 
f -84/-201/-69 -61/-194/-69 -51/-192/-69 -66/-191/-69 
f -84/-201/-68 -66/-191/-68 -67/-190/-68 
usemtl Material__49
f -87/-189/-67 -88/-188/-67 -59/-187/-67 -54/-186/-67 
f -59/-187/-66 -53/-185/-66 -54/-186/-66 
f -87/-189/-65 -54/-186/-65 -50/-184/-65 
f -94/-183/-64 -91/-182/-64 -53/-181/-64 -59/-180/-64 
usemtl Material__37
f -49/-179/-63 -48/-178/-63 -47/-177/-63 -46/-176/-63 
f -45/-175/-62 -62/-174/-62 -44/-173/-62 -43/-172/-62 
f -44/-173/-61 -42/-171/-61 -43/-172/-61 
f -41/-170/-60 -44/-169/-60 -62/-168/-60 -63/-167/-60 
f -40/-166/-59 -39/-165/-59 -38/-164/-59 -63/-163/-59 
f -38/-164/-58 -41/-162/-58 -63/-163/-58 
f -42/-161/-57 -38/-160/-57 -39/-159/-57 -43/-158/-57 
usemtl Material__25
f -51/-157/-56 -45/-156/-56 -43/-155/-56 -65/-154/-56 
f -39/-153/-55 -40/-152/-55 -60/-151/-55 -65/-154/-55 
f -43/-155/-54 -39/-153/-54 -65/-154/-54 
f -51/-157/-53 -65/-154/-53 -66/-150/-53 
f -62/-222/-52 -45/-156/-52 -51/-157/-52 -61/-220/-52 
f -40/-152/-51 -63/-223/-51 -64/-224/-51 -60/-151/-51 
usemtl Material__37
f -37/-149/-50 -36/-148/-50 -42/-147/-50 -44/-146/-50 
f -35/-145/-49 -37/-149/-49 -44/-146/-49 -41/-144/-49 
f -34/-143/-48 -35/-145/-48 -41/-144/-48 -38/-142/-48 
f -36/-148/-47 -34/-143/-47 -38/-142/-47 -42/-147/-47 
f -46/-141/-46 -47/-140/-46 -36/-139/-46 -37/-138/-46 
f -49/-137/-45 -46/-136/-45 -37/-135/-45 -35/-134/-45 
f -48/-133/-44 -49/-132/-44 -35/-131/-44 -34/-130/-44 
f -47/-129/-43 -48/-128/-43 -34/-127/-43 -36/-126/-43 
usemtl Material__137
f -54/-125/-42 -55/-124/-42 -33/-123/-42 -50/-122/-42 
usemtl Material__174
f -32/-121/-41 -31/-120/-41 -74/-119/-41 -75/-118/-41 
usemtl Material__296
f -30/-117/-40 -29/-116/-40 -28/-115/-40 -32/-114/-40 
usemtl Material__283
f -27/-113/-39 -26/-112/-39 -29/-111/-39 -30/-110/-39 
usemtl Material__63
f -96/-109/-38 -97/-108/-38 -89/-107/-38 -80/-106/-38 
usemtl Material__62
f -50/-105/-37 -33/-104/-37 -70/-103/-37 -89/-102/-37 
f -79/-101/-36 -80/-100/-36 -89/-102/-36 -70/-103/-36 
f -50/-105/-35 -89/-102/-35 -87/-99/-35 
usemtl Material__137
f -33/-98/-34 -55/-97/-34 -56/-96/-34 -25/-95/-34 
f -33/-98/-33 -25/-95/-33 -24/-94/-33 -69/-93/-33 
f -33/-98/-32 -69/-93/-32 -70/-92/-32 
usemtl Material__174
f -23/-91/-31 -52/-90/-31 -57/-89/-31 -22/-88/-31 
usemtl Material__149
f -72/-87/-30 -24/-86/-30 -25/-85/-30 -23/-84/-30 
usemtl Material__137
f -21/-83/-29 -20/-82/-29 -19/-81/-29 -18/-80/-29 
usemtl Material__149
f -69/-79/-28 -24/-86/-28 -72/-87/-28 
usemtl Material__137
f -23/-78/-27 -22/-77/-27 -71/-76/-27 -72/-75/-27 
usemtl Material__174
f -23/-91/-26 -25/-74/-26 -56/-73/-26 -52/-90/-26 
usemtl Material__149
f -75/-72/-25 -73/-71/-25 -17/-70/-25 -16/-69/-25 
f -75/-72/-24 -16/-69/-24 -15/-68/-24 -27/-67/-24 
f -75/-72/-23 -27/-67/-23 -30/-66/-23 -32/-65/-23 
usemtl Material__296
f -32/-64/-22 -28/-63/-22 -14/-62/-22 -31/-61/-22 
usemtl Material__137
f -74/-60/-21 -31/-59/-21 -14/-58/-21 
usemtl Material__174
f -13/-57/-20 -83/-56/-20 -81/-55/-20 -74/-54/-20 
f -13/-57/-19 -74/-54/-19 -14/-53/-19 
usemtl Material__137
f -86/-52/-18 -83/-51/-18 -13/-50/-18 -12/-49/-18 
usemtl Material__174
f -85/-48/-17 -86/-47/-17 -12/-46/-17 -58/-45/-17 
f -21/-44/-16 -18/-43/-16 -11/-42/-16 -17/-41/-16 
usemtl Material__149
f -104/-40/-15 -10/-39/-15 -78/-38/-15 -103/-37/-15 
usemtl Material__174
f -21/-44/-14 -17/-41/-14 -73/-36/-14 -76/-35/-14 
usemtl Material__296
f -27/-34/-13 -15/-33/-13 -9/-32/-13 -26/-31/-13 
usemtl Material__336
f -16/-30/-12 -8/-29/-12 -9/-28/-12 -15/-27/-12 
f -16/-30/-11 -17/-26/-11 -11/-25/-11 -8/-29/-11 
usemtl Material__351
f -20/-24/-10 -7/-23/-10 -6/-22/-10 -19/-21/-10 
usemtl Material__137
f -5/-20/-9 -4/-19/-9 -6/-18/-9 -3/-17/-9 
f -7/-16/-8 -3/-17/-8 -6/-18/-8 
usemtl Material__367
f -10/-15/-7 -2/-14/-7 -5/-13/-7 -3/-12/-7 
usemtl Material__137
f -2/-11/-6 -10/-10/-6 -104/-9/-6 -1/-8/-6 
f -104/-9/-5 -101/-7/-5 -1/-8/-5 
usemtl Material__149
f -20/-6/-4 -21/-5/-4 -76/-4/-4 -7/-3/-4 
f -3/-2/-3 -7/-3/-3 -76/-4/-3 -77/-1/-3 
usemtl Material__137
f -4/-19/-2 -5/-20/-2 -2/-11/-2 -1/-8/-2 
usemtl Material__149
f -3/-2/-1 -77/-1/-1 -78/-38/-1 -10/-39/-1 
# 84 polygons - 18 triangles

