# 3ds Max Wavefront OBJ Exporter v0.97b - (c)2007 guruware
# File Created: 25.01.2012 10:34:31

mtllib Myyrivahe_23-origo.mtl

#
# object Myyrivahe_23
#

v  542495.2074 6588913.242 13.1646
v  542495.2099 6588913.2329 13.5596
v  542495.0371 6588913.1013 13.2317
v  542495.0412 6588913.1065 13.1646
v  542495.2617 6588913.1698 13.5605
v  542497.5757 6588915.1236 13.5698
v  542497.5788 6588915.1176 13.6336
v  542495.2617 6588913.1698 13.6212
v  542491.4663 6588910.3871 13.5866
v  542493.9986 6588912.204 13.5790
v  542493.9986 6588912.204 13.6396
v  542491.4688 6588910.383 13.6464
v  542494.0564 6588912.2902 13.6726
v  542493.9819 6588912.2296 13.6736
v  542493.9802 6588912.2308 13.5790
v  542494.1452 6588912.3749 13.2317
v  542494.0575 6588912.2887 13.7626
v  542494.1525 6588912.3661 13.7613
v  542494.0591 6588912.2837 13.9524
v  542493.9119 6588912.1328 15.0779
v  542494.0002 6588912.2062 15.0215
v  542494.0692 6588912.2629 15.0297
v  542494.6554 6588912.7089 16.1636
v  542494.7309 6588912.6102 16.1643
v  542495.4799 6588913.1872 15.0520
v  542495.5644 6588913.249 15.1209
v  542494.7404 6588912.6172 16.4112
v  542493.8967 6588911.9703 15.1442
v  542493.9878 6588912.0403 15.0881
v  542497.5221 6588915.1786 13.5755
v  542495.1939 6588913.2172 13.6569
v  542495.2438 6588913.156 13.6560
v  542495.1948 6588913.2155 13.7465
v  542491.4497 6588910.4009 13.5851
v  542493.9986 6588912.204 13.6740
v  542497.5952 6588915.1009 13.6304
v  542497.5989 6588915.0954 13.6680
v  542495.281 6588913.1468 13.6555
v  542495.281 6588913.1468 13.6212
v  542494.0159 6588912.1795 13.6396
v  542494.0159 6588912.1795 13.6740
v  542491.4904 6588910.3634 13.6809
v  542491.4883 6588910.3664 13.6472
v  542495.263 6588913.133 13.6555
v  542497.7184 6588914.973 13.6489
v  542497.7518 6588914.9381 13.6637
v  542495.4344 6588912.9639 13.6725
v  542495.3953 6588913.0103 13.6393
v  542494.1246 6588912.0254 13.6543
v  542494.1541 6588911.9819 13.6940
v  542491.6712 6588910.2032 13.7099
v  542491.6284 6588910.2426 13.6618
v  542495.3026 6588913.0858 13.6782
v  542495.3205 6588913.0997 13.6782
v  542497.6411 6588915.0509 13.6908
v  542491.5352 6588910.3237 13.7037
v  542494.0513 6588912.1292 13.6966
v  542494.0921 6588912.2379 13.6730
v  542494.1276 6588912.1877 13.6956
v  542495.4168 6588912.9497 13.6731
v  542495.3774 6588912.9965 13.6393
v  542494.2314 6588912.0391 13.6948
v  542494.2009 6588912.0839 13.6533
v  542495.364 6588913.3162 15.0703
v  542494.32 6588914.3236 15.1720
v  542492.4069 6588914.7242 16.4889
v  542492.7366 6588913.0109 15.1281
v  542493.0954 6588913.0674 14.9860
v  542495.2821 6588913.2529 15.0042
v  542494.2985 6588914.0855 15.0297
v  542494.0748 6588912.2625 13.6730
v  542495.2114 6588913.2315 13.6567
v  542495.2617 6588913.1698 13.6560
v  542495.0441 6588913.0927 13.7487
v  542493.1594 6588913.1244 14.9933
v  542495.2113 6588913.1937 15.0113
v  542494.2233 6588914.0336 15.0378
v  542495.1969 6588913.21 13.9638
v  542495.0599 6588913.0732 14.9139
v  542494.3232 6588912.7716 10.6892
v  542493.8478 6588912.4049 10.6899
v  542493.8227 6588912.4391 8.6651
v  542494.299 6588912.8069 8.6535
v  542495.1229 6588913.3885 10.6888
v  542495.1011 6588913.4261 8.6354
v  542492.4111 6588911.3503 8.6612
v  542492.4451 6588911.3228 10.6885
v  542497.2579 6588915.3263 10.5068
v  542495.5848 6588913.837 10.5053
v  542495.563 6588913.8808 8.6280
v  542497.2431 6588915.3773 8.5996
v  542495.5561 6588913.5587 10.9040
v  542495.5956 6588913.6023 10.5470
v  542496.106 6588914.0351 10.6772
v  542496.0458 6588913.9731 11.0595
v  542497.0235 6588914.8163 10.6712
v  542497.5294 6588915.2621 10.5813
v  542497.5377 6588915.2545 10.9105
v  542496.5622 6588914.4102 11.1218
v  542496.5538 6588914.4162 10.7061
v  542497.0775 6588914.8464 11.0692
v  542497.0605 6588914.8645 11.0702
v  542497.5377 6588915.2545 10.9208
v  542496.5455 6588914.4286 11.1227
v  542496.0278 6588913.9923 11.0601
v  542495.5352 6588913.5813 10.9044
v  542495.5743 6588913.6255 10.5475
v  542495.6842 6588913.718 10.5781
v  542496.0598 6588914.0872 10.6790
v  542495.6578 6588913.7493 10.5792
v  542497.3686 6588915.1945 10.5942
v  542497.395 6588915.1631 10.5932
v  542496.9806 6588914.8649 10.6734
v  542496.5103 6588914.4666 10.7081
v  542495.6569 6588913.7511 10.5025
v  542497.3679 6588915.1968 10.5025
v  542495.6617 6588913.7633 8.6242
v  542497.3799 6588915.216 8.5943
v  542494.2955 6588912.8148 8.2530
v  542495.0988 6588913.4345 8.2523
v  542492.4788 6588911.2625 8.6589
v  542494.1684 6588912.3465 14.9299
v  542493.9749 6588912.238 13.1646
v  542494.1399 6588912.3724 13.1646
v  542494.9489 6588913.0944 13.3055
v  542494.955 6588913.087 13.7498
v  542494.176 6588912.4522 13.7624
v  542494.1698 6588912.4598 13.3055
v  542494.9698 6588913.0687 14.8434
v  542494.191 6588912.4339 14.8573
v  542494.9943 6588913.0387 13.3039
v  542495.0497 6588913.0858 13.2313
v  542495.0567 6588913.0771 13.7482
v  542495.0004 6588913.0312 13.7482
v  542495.0152 6588913.013 14.8419
v  542495.0726 6588913.0576 14.9135
v  542494.181 6588912.331 14.9295
v  542494.2364 6588912.3782 14.8558
v  542494.1651 6588912.3506 13.7609
v  542494.2215 6588912.3965 13.7609
v  542494.2152 6588912.4041 13.3039
v  542494.1579 6588912.3594 13.2313
v  542494.9817 6588913.0542 13.3044
v  542494.9877 6588913.0468 13.7487
v  542495.0026 6588913.0285 14.8423
v  542494.2237 6588912.3937 14.8562
v  542494.2088 6588912.412 13.7613
v  542494.2026 6588912.4196 13.3044
v  542497.5156 6588915.2748 10.5834
v  542497.5278 6588915.2636 10.5798
v  542494.3957 6588912.6813 8.6240
v  542494.396 6588912.6807 8.6500
v  542493.9294 6588912.3004 8.6613
v  542493.9278 6588912.3002 8.6353
v  542492.4908 6588911.2466 8.6583
v  542492.4908 6588911.2475 8.6323
v  542497.3928 6588915.202 8.5644
v  542497.3928 6588915.2007 8.5937
v  542495.6746 6588913.7481 8.6236
v  542495.6746 6588913.7491 8.5944
v  542492.4788 6588911.2635 8.6329
v  542493.9158 6588912.3162 8.6358
v  542494.3837 6588912.6973 8.6246
v  542495.6617 6588913.7644 8.5950
v  542497.3799 6588915.2172 8.5650
v  542494.1522 6588912.3824 13.1646
v  542489.7636 6588920.6416 18.0569
v  542490.2169 6588920.1481 18.0569
v  542490.7104 6588920.6013 18.0569
v  542490.2572 6588921.0949 18.0569
v  542490.7015 6588920.6102 17.4532
v  542490.2483 6588921.1038 16.8339
v  542489.7732 6588920.6317 16.8498
v  542490.2246 6588920.1405 17.4664
v  542497.5215 6588915.2693 10.9252
v  542494.5148 6588912.3793 8.2391
v  542494.5142 6588912.3808 8.1470
v  542495.4455 6588913.1578 8.1057
v  542495.4478 6588913.153 8.2391
v  542495.2309 6588913.4161 8.1167
v  542495.2332 6588913.4113 8.2501
v  542495.1628 6588913.3515 8.2501
v  542494.3799 6588912.7054 8.2501
v  542494.3002 6588912.6376 8.2501
v  542494.2996 6588912.6391 8.1580
v  542494.5135 6588912.3811 7.6730
v  542495.4448 6588913.1581 7.6317
v  542495.2302 6588913.4164 7.6427
v  542494.2989 6588912.6395 7.6840
v  542495.1697 6588913.3372 8.6330
v  542491.4258 6588910.5135 8.6576
v  542491.4234 6588910.5247 8.1678
v  542493.9121 6588912.332 8.1748
v  542497.4653 6588915.3209 8.0491
v  542497.4658 6588915.3205 8.0709
v  542497.479 6588915.3083 8.5961
v  542497.4788 6588915.3086 8.5841
v  542497.4731 6588915.3137 8.2800
v  542491.4227 6588910.525 7.6938
v  542493.9114 6588912.3323 7.7008
v  542497.4646 6588915.3213 7.5752
v  542497.4653 6588915.3209 7.8355
v  542497.5324 6588915.2593 11.4903
v  542492.508 6588911.2413 10.6863
v  542485.9157 6588922.1138 8.1470
v  542485.9682 6588922.0578 13.4772
v  542487.9902 6588924.0106 13.4513
v  542487.979 6588924.0208 12.3956
v  542483.0453 6588917.8843 8.1491
v  542482.975 6588917.825 14.6692
v  542484.9917 6588920.3316 14.0018
v  542485.0664 6588920.3859 8.1460
v  542486.1015 6588921.8796 13.6816
v  542486.143 6588921.8335 8.1470
v  542495.1923 6588913.2985 10.6864
v  542497.5092 6588915.2807 10.2305
v  542494.409 6588912.6605 10.6863
v  542493.9433 6588912.2812 10.6866
v  542486.6568 6588914.5268 8.1574
v  542486.5312 6588914.4312 19.2669
v  542488.3779 6588912.823 17.2142
v  542488.4145 6588912.9605 8.1613
v  542487.9352 6588924.061 8.1520
v  542487.9352 6588924.061 8.1001
v  542485.9104 6588922.1164 5.9123
v  542485.0611 6588920.3885 5.9113
v  542483.0399 6588917.8869 5.9144
v  542486.1376 6588921.8361 5.9123
v  542486.6514 6588914.5294 5.9227
v  542488.4138 6588912.9608 7.6874
v  542497.5699 6588915.225 13.5775
v  542487.9298 6588924.0636 5.9174
v  542495.7789 6588916.8675 16.0185
v  542492.9534 6588919.4588 19.2789
v  542492.8758 6588919.53 19.3683
v  542489.6844 6588916.8418 19.3408
v  542492.7942 6588919.6048 19.4612
v  542497.8154 6588914.9998 13.6663
v  542485.28 6588918.5759 15.4705
v  542484.7215 6588918.023 15.5507
v  542485.6023 6588919.7066 14.8237
v  542486.0467 6588919.3488 15.3500
v  542485.0593 6588919.1586 14.9095
v  542485.5038 6588918.8008 15.4358
v  542484.8351 6588918.9474 14.9337
v  542484.2766 6588918.3945 15.0140
v  542492.4322 6588919.9368 19.0077
v  542492.5382 6588919.8396 19.1404
v  542488.0221 6588923.9813 13.4912
v  542489.4193 6588922.7 15.2373
v  542492.6567 6588919.7309 19.2890
v  542485.0674 6588919.2432 14.9724
v  542485.4297 6588918.8012 15.4977
v  542486.0295 6588919.294 15.4986
v  542485.6672 6588919.736 14.9733
v  542484.5675 6588918.1037 15.4885
v  542485.1826 6588918.5992 15.4966
v  542484.8221 6588919.0556 14.9621
v  542484.2069 6588918.5601 14.9540
v  542485.7119 6588919.6817 14.8968
v  542486.0742 6588919.2397 15.4221
v  542485.1121 6588919.189 14.8959
v  542485.4744 6588918.7469 15.4211
v  542484.2515 6588918.506 14.8777
v  542484.8667 6588919.0014 14.8857
v  542484.6121 6588918.0495 15.4121
v  542485.2274 6588918.5449 15.4201
# 267 vertices

vn 0.6314 -0.7752 -0.0216
vn 0.6419 -0.7597 -0.1037
vn 0.6435 -0.7655 0.0000
vn 0.5830 -0.8125 0.0000
vn 0.5822 -0.8091 -0.0794
vn 0.6314 -0.7751 -0.0256
vn 0.6357 -0.7719 -0.0090
vn 0.6330 -0.7738 -0.0230
vn 0.5974 -0.8018 -0.0137
vn 0.6077 -0.7942 -0.0008
vn 0.6093 -0.7930 -0.0009
vn 0.6087 -0.7934 -0.0001
vn 0.0113 -0.0053 -0.9999
vn -0.0460 0.0592 -0.9972
vn -0.7750 -0.6319 -0.0041
vn 0.0400 -0.0587 -0.9975
vn -0.0020 -0.0014 -1.0000
vn 0.8393 0.5437 0.0000
vn 0.8340 0.5517 -0.0087
vn 0.8250 0.5652 0.0000
vn 0.6343 -0.7534 -0.1732
vn 0.6452 -0.7641 0.0000
vn 0.5838 -0.8119 0.0000
vn 0.5793 -0.8080 -0.1074
vn -0.7663 -0.6424 0.0075
vn 0.0032 0.0026 -1.0000
vn -0.0859 0.1064 -0.9906
vn 0.0169 -0.0272 -0.9995
vn 0.8169 0.5768 0.0000
vn 0.1877 -0.2246 -0.9562
vn 0.3119 -0.3649 -0.8772
vn 0.3480 -0.4929 -0.7975
vn 0.3740 -0.5269 -0.7632
vn -0.7678 -0.6406 0.0047
vn 0.2253 -0.2620 -0.9384
vn 0.2271 -0.2641 -0.9374
vn 0.2114 -0.2975 -0.9310
vn 0.1997 -0.2820 -0.9384
vn 0.8186 0.5743 -0.0085
vn -0.7657 -0.6431 0.0127
vn -0.7659 -0.6429 0.0035
vn -0.2005 0.2446 -0.9486
vn -0.2285 0.2751 -0.9339
vn -0.1935 0.2660 -0.9443
vn -0.1858 0.2561 -0.9486
vn 0.8199 0.5723 0.0161
vn 0.8200 0.5724 -0.0043
vn -0.2911 -0.3379 -0.8950
vn 0.6186 0.4350 -0.6543
vn 0.6014 0.4555 -0.6564
vn -0.6020 -0.4656 -0.6488
vn -0.6101 -0.4565 -0.6476
vn 0.3551 0.4359 -0.8270
vn 0.5416 0.5772 0.6111
vn 0.5269 0.5806 0.6207
vn -0.5197 -0.5695 0.6369
vn -0.5139 -0.5920 0.6209
vn -0.2869 -0.3388 -0.8961
vn -0.2979 -0.3459 -0.8897
vn -0.2889 -0.3404 -0.8948
vn 0.3419 0.4294 -0.8359
vn 0.3582 0.4537 -0.8160
vn 0.3595 0.4549 -0.8148
vn 0.8325 0.5541 -0.0009
vn 0.8168 0.5768 -0.0106
vn -0.7727 -0.6347 0.0000
vn -0.7740 -0.6331 0.0027
vn -0.7748 -0.6322 0.0000
vn -0.7667 -0.6420 0.0000
vn 0.6314 -0.7752 -0.0215
vn 0.6313 -0.7752 -0.0216
vn 0.3649 -0.4811 -0.7971
vn 0.3642 -0.4887 -0.7928
vn -0.2006 0.2455 -0.9484
vn 0.2024 -0.2801 -0.9384
vn 0.2024 -0.2800 -0.9384
vn -0.0092 -0.0051 -0.9999
vn -0.0011 -0.0156 -0.9999
vn -0.0017 -0.0141 -0.9999
vn 0.0820 0.0445 -0.9956
vn 0.0778 0.0406 -0.9961
vn -0.0156 0.0023 -0.9999
vn -0.0052 0.0067 -1.0000
vn -0.0097 0.0126 -0.9999
vn 0.2108 -0.2740 -0.9383
vn 0.2110 -0.2740 -0.9383
vn -0.1932 0.2508 -0.9486
vn -0.1931 0.2509 -0.9486
vn 0.2951 -0.3835 -0.8751
vn 0.2834 -0.3886 -0.8767
vn -0.0628 -0.0437 -0.9971
vn -0.0710 -0.0521 -0.9961
vn 0.6477 0.7619 0.0029
vn 0.8215 0.5702 0.0077
vn -0.6874 -0.7262 -0.0076
vn -0.7687 -0.6396 -0.0088
vn 0.6308 -0.7757 -0.0207
vn 0.6276 -0.7782 -0.0216
vn 0.6106 -0.7916 -0.0210
vn 0.6107 -0.7916 -0.0210
vn 0.6647 -0.7467 -0.0252
vn 0.6647 -0.7467 -0.0251
vn 0.6497 -0.7599 -0.0209
vn 0.6574 -0.7528 -0.0340
vn 0.6472 -0.7620 -0.0242
vn 0.6441 -0.7644 -0.0295
vn 0.6474 -0.7618 -0.0216
vn 0.6489 -0.7605 -0.0242
vn 0.1983 0.1298 0.9715
vn 0.0837 0.0209 0.9963
vn 0.0795 0.0262 0.9965
vn -0.0458 -0.0883 0.9950
vn -0.0526 -0.0796 0.9954
vn -0.1585 -0.1779 0.9712
vn -0.1640 -0.1708 0.9716
vn -0.7254 -0.6689 -0.1625
vn -0.7299 -0.6641 -0.1619
vn 0.1435 0.1534 -0.9777
vn 0.0746 0.2057 -0.9758
vn 0.1238 0.1422 -0.9821
vn 0.1269 0.1391 -0.9821
vn -0.1327 -0.0801 -0.9879
vn -0.1365 -0.0766 -0.9877
vn -0.0639 -0.0121 -0.9979
vn -0.0616 -0.0142 -0.9980
vn 0.0180 0.0546 -0.9983
vn 0.0210 0.0517 -0.9984
vn 0.6469 -0.7622 -0.0252
vn 0.6447 -0.7643 -0.0162
vn 0.6448 -0.7640 -0.0240
vn 0.6453 -0.7637 -0.0208
vn 0.6458 -0.7634 -0.0127
vn 0.0263 -0.0106 0.9996
vn 0.0263 -0.0105 0.9996
vn -0.0162 0.0192 -0.9997
vn 0.0111 -0.0179 0.9998
vn 0.6313 -0.7752 -0.0222
vn 0.6314 -0.7752 -0.0214
vn 0.6314 -0.7751 -0.0215
vn 0.6316 -0.7750 -0.0215
vn 0.6313 -0.7751 -0.0258
vn 0.6315 -0.7751 -0.0216
vn 0.6362 -0.7712 -0.0216
vn 0.6318 -0.7748 -0.0208
vn 0.6313 -0.7752 -0.0215
vn 0.6314 -0.7751 -0.0216
vn 0.6313 -0.7753 -0.0215
vn 0.6313 -0.7753 -0.0216
vn -0.7753 -0.6316 -0.0001
vn -0.7753 -0.6316 -0.0000
vn -0.0244 0.0080 -0.9997
vn -0.0243 0.0079 -0.9997
vn 0.7752 0.6317 -0.0000
vn 0.7753 0.6316 -0.0000
vn 0.0136 -0.0167 0.9998
vn 0.7759 0.6309 0.0001
vn 0.7752 0.6317 0.0000
vn 0.0244 -0.0079 0.9997
vn 0.0243 -0.0079 0.9997
vn -0.7752 -0.6317 0.0000
vn -0.0136 0.0167 -0.9998
vn -0.7756 -0.6313 -0.0001
vn 0.7756 0.6313 -0.0001
vn 0.7752 0.6317 -0.0001
vn -0.0244 0.0079 -0.9997
vn -0.7756 -0.6313 -0.0000
vn -0.1843 0.1136 -0.9763
vn 0.6313 -0.7752 -0.0231
vn 0.6307 -0.7753 -0.0326
vn 0.5907 -0.8063 -0.0299
vn 0.5908 -0.8063 -0.0295
vn 0.6449 -0.7635 -0.0331
vn 0.6452 -0.7636 -0.0268
vn 0.0117 -0.0186 0.9998
vn 0.0159 -0.0245 0.9996
vn -0.0160 0.0246 -0.9996
vn -0.0159 0.0245 -0.9996
vn -0.0334 0.0114 -0.9994
vn 0.0287 -0.0056 0.9996
vn 0.0294 -0.0141 0.9995
vn 0.0293 -0.0141 0.9995
vn -0.7637 -0.6452 -0.0233
vn -0.0294 0.0141 -0.9995
vn 0.7644 0.6442 0.0275
vn 0.7648 0.6437 0.0279
vn 0.6316 -0.7750 -0.0214
vn 0.6308 -0.7757 -0.0220
vn 0.6374 -0.7687 -0.0536
vn 0.0000 0.0000 1.0000
vn 0.7368 0.6761 -0.0004
vn 0.7365 0.6764 -0.0009
vn -0.6764 0.7365 -0.0114
vn -0.7046 0.7095 0.0103
vn -0.7365 -0.6764 -0.0009
vn -0.7362 -0.6768 -0.0003
vn 0.7013 -0.7126 -0.0208
vn 0.6763 -0.7364 0.0183
vn 0.6571 -0.7532 -0.0313
vn 0.2821 0.0224 0.9591
vn 0.2967 -0.5008 -0.8131
vn 0.6400 -0.7681 -0.0175
vn 0.6379 -0.7692 -0.0382
vn 0.7694 0.6387 0.0097
vn 0.0212 -0.0249 0.9995
vn 0.0209 -0.0253 0.9995
vn 0.0208 -0.0251 0.9995
vn -0.7693 -0.6389 -0.0052
vn -0.7693 -0.6389 -0.0051
vn 0.0134 -0.0162 0.9998
vn 0.6406 -0.7679 -0.0015
vn 0.7692 0.6390 -0.0007
vn -0.7692 -0.6390 0.0007
vn 0.6469 -0.7615 -0.0401
vn 0.6538 -0.7557 -0.0379
vn 0.5796 -0.8146 -0.0214
vn 0.5794 -0.8145 -0.0301
vn 0.6534 -0.7561 -0.0380
vn 0.6483 -0.7609 -0.0267
vn 0.6483 -0.7610 -0.0231
vn 0.6312 -0.7754 -0.0170
vn 0.7919 0.6106 0.0052
vn 0.7918 0.6108 0.0053
vn 0.5870 -0.8081 -0.0484
vn 0.5907 -0.8062 -0.0324
vn 0.6221 -0.7823 -0.0318
vn 0.6206 -0.7839 -0.0175
vn 0.6480 -0.7611 -0.0294
vn 0.6816 -0.7310 -0.0319
vn 0.6810 -0.7319 -0.0249
vn 0.5876 -0.8092 -0.0014
vn 0.6212 -0.7837 -0.0014
vn 0.6487 -0.7611 -0.0019
vn 0.6445 -0.7631 -0.0475
vn 0.6488 -0.7610 0.0000
vn 0.6550 -0.7552 -0.0260
vn 0.5858 -0.8102 -0.0216
vn 0.5859 -0.8101 -0.0210
vn -0.6945 0.7194 0.0144
vn -0.7795 0.6264 -0.0027
vn -0.7778 0.6285 -0.0041
vn -0.8132 0.5820 -0.0050
vn -0.8024 0.5967 -0.0110
vn -0.8001 -0.5999 -0.0010
vn -0.7768 -0.6297 0.0010
vn 0.6457 -0.7633 -0.0215
vn 0.6451 -0.7637 -0.0240
vn 0.6542 -0.7559 -0.0244
vn 0.6474 -0.7618 -0.0251
vn 0.6446 -0.7642 -0.0230
vn 0.6438 -0.7649 -0.0224
vn 0.6457 -0.7633 -0.0206
vn 0.6445 -0.7643 -0.0213
vn 0.6443 -0.7644 -0.0214
vn 0.6817 -0.7312 -0.0250
vn 0.7639 0.6453 0.0062
vn -0.7631 -0.6461 -0.0113
vn -0.7639 -0.6452 -0.0107
vn -0.7628 -0.6465 -0.0113
vn -0.7626 -0.6468 -0.0113
vn 0.7661 0.6427 0.0062
vn 0.7655 0.6434 0.0061
vn -0.7918 -0.6108 -0.0028
vn -0.7918 -0.6107 -0.0028
vn -0.0131 0.0163 -0.9998
vn -0.0136 0.0159 -0.9998
vn -0.0136 0.0160 -0.9998
vn -0.0122 0.0171 -0.9998
vn 0.7917 0.6109 -0.0050
vn -0.7919 -0.6106 -0.0086
vn -0.7918 -0.6107 -0.0086
vn 0.5795 -0.8148 -0.0168
vn 0.5852 -0.8106 -0.0214
vn 0.6316 -0.7750 -0.0216
vn -0.6808 -0.7323 -0.0140
vn -0.6425 -0.7656 -0.0331
vn -0.6621 -0.7491 -0.0228
vn -0.6481 -0.7611 -0.0270
vn -0.6388 -0.7690 -0.0256
vn -0.6503 -0.7583 -0.0450
vn -0.6601 -0.7488 -0.0606
vn -0.7996 -0.6002 -0.0222
vn -0.7992 -0.6007 -0.0227
vn 0.7991 0.6012 0.0051
vn 0.7929 0.6093 0.0133
vn 0.6441 -0.7646 -0.0214
vn 0.5865 -0.8096 -0.0216
vn -0.6652 -0.7465 -0.0140
vn -0.6654 -0.7463 -0.0139
vn -0.6291 -0.7772 -0.0147
vn -0.6295 -0.7769 -0.0143
vn -0.6378 -0.7697 -0.0262
vn -0.6941 0.7199 0.0024
vn -0.7778 0.6285 0.0026
vn -0.8024 0.5967 0.0026
vn -0.8024 0.5968 0.0026
vn -0.7768 -0.6297 0.0011
vn -0.6809 -0.7324 0.0008
vn -0.6653 -0.7466 0.0007
vn -0.6653 -0.7466 0.0005
vn -0.6292 -0.7772 0.0004
vn 0.6968 -0.7168 -0.0243
vn -0.6941 0.7198 0.0140
vn 0.6781 -0.7346 -0.0245
vn -0.6941 0.7199 0.0026
vn 0.3850 -0.5283 0.7568
vn 0.3832 -0.5281 0.7578
vn 0.4219 -0.4932 0.7608
vn 0.4226 -0.4926 0.7608
vn 0.4224 -0.4949 0.7594
vn 0.4226 -0.4929 0.7606
vn 0.4193 -0.4964 0.7601
vn 0.4221 -0.4930 0.7607
vn 0.3832 -0.5282 0.7578
vn 0.3830 -0.5282 0.7578
vn 0.3849 -0.5267 0.7579
vn 0.3857 -0.5253 0.7585
vn 0.4125 -0.4975 0.7631
vn 0.4361 -0.4818 0.7601
vn -0.4273 0.5372 0.7273
vn -0.4276 0.5370 0.7272
vn -0.4703 0.4928 0.7321
vn -0.4651 0.4942 0.7344
vn -0.4277 0.5376 0.7267
vn -0.4274 0.5373 0.7271
vn -0.4279 0.5368 0.7272
vn -0.4278 0.5376 0.7267
vn -0.4684 0.4913 0.7343
vn -0.4659 0.4936 0.7344
vn -0.4663 0.4927 0.7347
vn -0.4668 0.4935 0.7339
vn -0.4765 0.4923 0.7284
vn -0.4666 0.4929 0.7343
vn -0.4684 0.4912 0.7343
vn -0.4665 0.4942 0.7336
vn 0.6759 0.7370 -0.0008
vn 0.6759 0.7370 -0.0009
vn 0.7594 0.0920 -0.6441
vn 0.6765 0.7364 -0.0000
vn 0.6762 0.7367 0.0000
vn 0.6744 0.7384 0.0001
vn 0.6802 0.7331 -0.0002
vn 0.6739 0.7389 0.0001
vn 0.6746 0.7382 0.0001
vn 0.6759 0.7370 0.0000
vn 0.6757 0.7372 0.0000
vn 0.6757 0.7371 0.0000
vn 0.6758 0.7371 0.0001
vn 0.6759 0.7370 -0.0000
vn 0.6927 0.7207 0.0275
vn -0.4361 0.4818 -0.7601
vn -0.4212 0.4960 -0.7593
vn 0.7197 0.6919 0.0581
vn 0.8135 0.5121 0.2756
vn 0.8465 -0.0538 -0.5296
vn -0.4303 0.5223 0.7362
vn -0.4303 0.5223 0.7363
vn 0.7726 0.6349 0.0014
vn 0.7727 0.6348 0.0013
vn -0.4667 0.5694 -0.6767
vn -0.4667 0.5694 -0.6768
vn -0.7726 -0.6349 -0.0014
vn -0.7726 -0.6349 -0.0013
vn 0.4667 -0.5694 0.6767
vn 0.4667 -0.5695 0.6767
vn -0.4565 0.5778 -0.6766
vn -0.4564 0.5777 -0.6767
vn -0.7788 -0.6272 -0.0101
vn 0.4564 -0.5778 0.6766
vn 0.4564 -0.5778 0.6767
vn 0.7787 0.6273 0.0103
# 370 vertex normals

vt -1.1420 -0.2683 0.7056
vt -0.7094 -0.2645 0.6443
vt -1.0685 -0.0474 0.6597
vt -1.1420 -0.0539 0.6711
vt 1.3789 0.4482 3.6969
vt 2.8397 0.4525 3.6780
vt 2.8922 0.4845 3.6769
vt 1.3789 0.4785 3.6965
vt -0.9712 0.4595 3.5770
vt 0.5842 0.4570 3.6723
vt 0.5842 0.4874 3.6719
vt -0.9715 0.4894 3.5789
vt -0.5857 1.2252 0.3889
vt -0.5846 1.3212 0.3733
vt -0.6882 1.3218 0.3879
vt -1.0685 1.1028 0.4761
vt -0.4871 1.2253 0.3752
vt -0.4886 1.1028 0.3948
vt -0.2793 1.2271 0.6968
vt 0.9531 1.4366 0.3704
vt 0.8914 1.3219 0.4324
vt 0.9004 1.2325 0.1797
vt 2.1420 0.4964 0.1240
vt 0.9964 1.7507 3.7275
vt 1.4689 1.1947 3.7483
vt 1.5212 1.2292 3.7506
vt 1.0023 1.8741 3.7260
vt 0.4709 1.2404 3.7195
vt 0.5283 1.2124 3.7215
vt 1.3789 3.6969 0.4482
vt 1.3787 3.6561 0.4471
vt 2.8895 3.6318 0.4533
vt 2.8397 3.6780 0.4525
vt 0.5042 3.6564 1.3675
vt 0.5041 3.6959 1.3675
vt 0.4594 3.6567 1.3673
vt -0.9712 3.5770 0.4595
vt -0.9733 3.5664 0.4586
vt 0.5855 3.6561 0.4568
vt 0.5842 3.6723 0.4570
vt 0.5041 3.6565 0.5858
vt 0.5046 3.6716 0.5842
vt 0.4874 3.6719 0.5842
vt 0.4568 3.6561 0.5855
vt 0.4570 3.6723 0.5842
vt 2.8401 0.4831 3.6925
vt 2.8930 0.5019 3.6916
vt 1.3791 0.4959 3.7112
vt 1.3791 0.4787 3.7114
vt 0.5831 0.4876 3.6868
vt 0.5831 0.5047 3.6866
vt -0.9694 0.5069 3.5931
vt -0.9692 0.4900 3.5915
vt 0.5041 3.7109 1.3677
vt 1.3791 3.7114 0.4787
vt 1.3789 3.6965 0.4785
vt 2.8922 3.6730 0.4829
vt 2.8401 3.6925 0.4831
vt -0.9692 3.5915 0.4900
vt -0.9715 3.5789 0.4894
vt 0.5842 3.6719 0.4874
vt 0.5831 3.6868 0.4876
vt 0.5047 3.6866 0.5831
vt 0.4876 3.6868 0.5831
vt 2.8475 3.7809 0.4936
vt 2.9025 3.7967 0.4978
vt 1.3808 3.8304 0.5061
vt 1.3803 3.8003 0.4891
vt 0.5767 3.7808 0.4962
vt 0.5744 3.8067 0.5165
vt -0.9498 3.7121 0.5231
vt -0.9540 3.6836 0.4986
vt 0.4924 3.7415 1.3682
vt 1.3795 3.7418 0.5077
vt 1.3791 3.7112 0.4959
vt 2.8930 3.6886 0.4992
vt 2.8953 3.7191 0.5110
vt -0.9646 3.6225 0.5187
vt -0.9694 3.5931 0.5069
vt 0.5831 3.6866 0.5047
vt 0.5810 3.7171 0.5165
vt 0.5043 3.6880 0.6312
vt 0.5487 3.6568 0.6338
vt 0.5160 3.7185 0.6291
vt 0.4936 3.8304 1.3695
vt 0.5109 3.8000 1.3690
vt 2.8953 3.7180 0.5135
vt 0.5170 3.8089 0.6224
vt 0.4958 3.7822 0.6247
vt 1.1756 0.6865 3970.0000
vt 1.0777 0.5238 752.0000
vt 1.1961 0.5463 1932.5000
vt 0.6020 1.0172 1598.8002
vt 0.4733 1.0124 1610.2537
vt 0.4630 1.2297 0.9993
vt 0.5967 1.2299 0.0000
vt 0.4033 -0.2067 -0.0002
vt 0.5891 -0.2299 0.9990
vt 0.0605 0.5643 3204.0000
vt -0.1336 0.6729 -1601.5000
vt -0.1119 0.5357 -1000.0000
vt 0.0000 0.0000 0.0000
vt 1.1129 1.1091 0.0000
vt -0.9828 1.0437 0.0000
vt -1.0952 -0.0546 0.0000
vt -1.0388 0.0029 0.0000
vt 0.1426 1.0934 0.0000
vt -1.9530 1.1604 0.0000
vt -0.1551 0.3355 6731.2500
vt -0.3829 0.6873 -4528.7500
vt 1.0938 0.3828 -1324.5000
vt 0.0793 0.4294 -4962.0000
vt 1.3682 0.4115 -3996.0000
vt 1.5114 0.6764 -27233.5000
vt 0.5037 3.6564 0.6338
vt 0.5041 3.6731 0.6322
vt 0.5529 3.6561 1.3787
vt 0.5518 3.6969 1.3789
vt 0.5215 3.6965 1.3789
vt 0.5043 3.6564 1.3788
vt 0.5041 3.6962 1.3789
vt 0.5041 3.7112 1.3791
vt 0.5213 3.7114 1.3791
vt -0.6029 -0.2422 0.6260
vt -0.5047 -0.2418 0.6123
vt -0.5024 -0.0474 0.5808
vt 0.6224 3.8089 0.5170
vt 0.6247 3.7822 0.4958
vt 0.6291 3.7185 0.5160
vt 0.6312 3.6880 0.5043
vt 0.5842 3.6716 0.5046
vt 0.6322 3.6731 0.5041
vt 0.5858 3.6565 0.5041
vt 0.6338 3.6564 0.5037
vt -0.1454 0.2545 -180813.2500
vt 1.1074 0.2992 -197928.0000
vt 1.3675 3.6959 0.4959
vt 1.3675 3.6564 0.4958
vt 1.3788 3.6564 0.4957
vt 1.3789 3.6962 0.4959
vt 1.3677 3.7109 0.4959
vt 1.3682 3.7415 0.5076
vt 1.3690 3.8000 0.4891
vt 1.3695 3.8304 0.5064
vt 0.0943 0.3499 -242303.0000
vt 1.3913 0.3347 -238274.5000
vt 0.0491 0.7621 -10407.0000
vt 0.0707 -0.4018 35818.2500
vt 1.3459 0.7915 -11577.7500
vt 0.6436 3.6578 0.6329
vt 1.1264 1.0985 1.0000
vt -0.1264 1.0581 0.7500
vt 1.1049 -0.0985 0.7500
vt 0.3508 3.6580 1.3664
vt -0.2669 -0.2400 1.0007
vt 0.8802 -0.2409 0.4485
vt 0.7736 -0.0473 0.4021
vt 0.7002 0.9992 0.0000
vt 0.5238 0.9995 0.5000
vt 0.5241 0.1697 -0.5000
vt 0.7009 0.1649 -0.5000
vt 0.9969 0.9991 -0.5000
vt 0.9985 0.1575 -0.5000
vt 0.0005 0.1681 0.0000
vt 0.0035 0.9989 0.5000
vt 0.9894 0.9995 0.0313
vt 0.0005 0.9987 1.0234
vt 0.0062 0.0154 0.0313
vt 0.9995 0.0005 1.0234
vt 0.0005 0.6002 0.9235
vt 0.0226 0.0867 0.9995
vt 0.2764 0.2739 0.8098
vt 0.2438 0.8238 0.7340
vt 0.7334 0.2652 0.7019
vt 0.9888 0.1354 0.0286
vt 0.9893 0.6092 0.2284
vt 0.5004 0.9133 0.6965
vt 0.4994 0.3154 0.7123
vt 0.7564 0.8377 0.8420
vt 0.7907 0.4664 0.2378
vt 0.7910 0.9849 0.2411
vt 1.0488 0.4864 1.0995
vt 0.5232 0.3029 0.0005
vt 0.5231 0.9640 0.0023
vt 0.2548 0.1511 0.2876
vt 0.2549 0.9704 0.2875
vt 0.0005 0.0005 0.9995
vt 0.0005 0.9995 0.9980
vt 0.3168 0.9987 -0.0762
vt 0.2721 1.0040 0.9199
vt 0.2689 0.1370 -0.0781
vt 0.3134 0.1316 0.9229
vt 0.0106 0.2714 0.9995
vt 0.0686 0.2930 0.8081
vt 0.0105 0.9995 0.9980
vt 0.2810 0.9782 0.1847
vt 0.2813 0.0823 0.1843
vt 0.0690 0.0005 0.8080
vt 0.9743 0.3809 0.7062
vt 0.9739 0.6734 0.7063
vt 0.7682 0.9655 0.2193
vt 0.7685 0.2897 0.2146
vt 0.5187 0.9671 0.0033
vt 0.5194 0.1843 0.0005
vt 1.9779 -0.9940 3.6140
vt 1.7154 -1.0438 3.6188
vt 1.7156 -1.0821 3.6184
vt 2.2724 -0.9795 3.6090
vt 2.8354 -1.0824 3.5982
vt 2.8349 -1.0366 3.5986
vt 2.5805 -0.9969 3.6033
vt -0.7201 3.5519 -2.0204
vt -0.7213 3.6286 -2.0212
vt -1.8461 3.6083 -2.0365
vt -1.8440 3.5025 -2.0354
vt 2.8337 3.5132 -1.0815
vt 2.8354 3.5982 -1.0824
vt 1.7156 3.6184 -1.0821
vt 1.7148 3.5623 -1.0815
vt 0.7015 0.0008 0.0000
vt 0.9995 0.0005 -1.0000
vt 1.3023 3.5928 -2.0044
vt 0.4097 3.5610 -2.0018
vt 1.3008 3.5374 -2.0040
vt 0.7911 1.1028 0.2158
vt -1.1420 1.3213 0.4514
vt -1.1420 1.1085 0.4854
vt -0.6031 -0.2648 0.6294
vt 0.9995 0.0005 0.5000
vt 0.9995 0.2865 0.5000
vt 0.0005 0.2946 0.5000
vt 0.0005 0.0005 0.5000
vt 0.9995 0.9905 -0.5000
vt 0.0005 0.9995 -0.5000
vt 1.2338 0.3194 3.6651
vt 1.2701 0.2831 3.6649
vt 1.2701 0.5416 3.6667
vt 1.2338 0.5416 3.6667
vt 1.2338 1.0885 3.6706
vt 1.2701 1.1244 3.6709
vt 0.6950 1.1323 3.6710
vt 0.7314 1.0955 3.6707
vt 0.6950 0.5479 3.6668
vt 0.7314 0.5479 3.6668
vt 0.7314 0.3194 3.6651
vt 0.6950 0.2831 3.6649
vt 0.6803 3.6292 1.2338
vt 0.6805 3.6551 1.2338
vt 0.4583 3.6567 1.2338
vt 0.4581 3.6308 1.2338
vt -0.0886 3.6607 1.2338
vt -0.0888 3.6347 1.2338
vt 1.2338 3.6347 1.0888
vt 1.2338 3.6607 1.0886
vt 0.7314 3.6607 1.0956
vt 0.7314 3.6347 1.0958
vt 1.0958 3.6347 0.7314
vt 1.0956 3.6607 0.7314
vt 0.5480 3.6568 0.7314
vt 0.5482 3.6308 0.7314
vt 0.3195 3.6551 0.7314
vt 0.3197 3.6292 0.7314
vt 0.2686 3.6292 0.3197
vt 0.2686 3.6551 0.3195
vt -0.2338 3.6551 0.3195
vt -0.2338 3.6292 0.3197
vt 0.2831 3.6649 1.2701
vt 0.2831 3.6549 1.2701
vt 0.5417 3.6567 1.2701
vt 0.5416 3.6667 1.2701
vt 1.1244 3.6609 1.2701
vt 1.1244 3.6709 1.2701
vt -0.2701 3.6709 1.1244
vt -0.2701 3.6609 1.1244
vt 0.3050 3.6610 1.1324
vt 0.3050 3.6710 1.1323
vt -0.1323 3.6710 0.6950
vt -0.1324 3.6610 0.6950
vt 0.4520 3.6568 0.6950
vt 0.4521 3.6668 0.6950
vt 0.7169 3.6549 0.6950
vt 0.7169 3.6649 0.6950
vt 0.6950 3.6649 0.2831
vt 0.6950 3.6549 0.2831
vt 1.2701 3.6549 0.2831
vt 1.2701 3.6649 0.2831
vt 0.4584 3.6667 1.2338
vt 0.6806 3.6651 1.2338
vt -0.2338 3.6651 0.3194
vt 0.2686 3.6651 0.3194
vt 0.3194 3.6651 0.7314
vt 0.5479 3.6668 0.7314
vt 1.0955 3.6707 0.7314
vt 0.7314 3.6707 1.0955
vt 1.2338 3.6706 1.0885
vt -0.0885 3.6706 1.2338
vt 1.0495 0.6043 0.8942
vt 1.0393 0.8101 0.8723
vt 0.8889 -2.0211 3.6483
vt 0.8888 -2.0081 3.6484
vt 0.5878 -2.0024 3.6485
vt 0.5872 -2.0154 3.6482
vt -0.3026 -2.0045 3.6028
vt -0.3023 -2.0175 3.6026
vt 2.8467 -2.0513 3.6180
vt 2.8463 -2.0366 3.6183
vt 1.7215 -2.0214 3.6386
vt 1.7219 -2.0360 3.6384
vt 0.4122 3.6485 -2.0024
vt 1.3026 3.6028 -2.0045
vt -0.3023 3.6026 -2.0175
vt -0.3020 3.5926 -2.0174
vt 0.5875 3.6382 -2.0153
vt 0.5872 3.6482 -2.0154
vt 0.8892 3.6383 -2.0209
vt 0.8889 3.6483 -2.0211
vt 0.1112 3.6484 -2.0081
vt 0.1090 3.5689 -2.0075
vt -1.8463 3.6183 -2.0366
vt -0.7215 3.6386 -2.0214
vt 3.0214 3.6386 1.7215
vt 3.0212 3.6286 1.7213
vt 3.0359 3.6284 1.7217
vt 3.0360 3.6384 1.7219
vt 1.7219 3.6384 -2.0360
vt 1.7217 3.6284 -2.0359
vt 2.8465 3.6080 -2.0511
vt 2.8467 3.6180 -2.0513
vt -2.0513 3.6180 2.8467
vt -2.0511 3.6080 2.8465
vt -2.0365 3.6083 2.8461
vt -2.0366 3.6183 2.8463
vt -1.1420 1.0927 0.4880
vt 0.9448 -0.4366 0.5552
vt 0.8724 -0.3331 0.0020
vt -3.6590 3.2038 0.0000
vt -4.1745 3.8191 0.0000
vt -4.9625 2.9015 0.0000
vt -4.2737 3.0587 0.0000
vt -4.6204 2.8719 0.0000
vt -3.9343 2.7542 0.0000
vt -3.3044 3.0730 0.0000
vt -3.8809 3.8270 0.0000
vt 0.9894 0.6238 0.2333
vt 1.0361 0.4053 1.0567
vt 1.0488 0.4794 1.0994
vt 1.0391 0.8388 0.8733
vt 0.1432 0.7967 -0.0276
vt 0.1425 0.7046 -0.0261
vt 1.0739 0.6633 0.7509
vt 1.0761 0.7967 0.7462
vt 0.7509 0.6633 1.0739
vt 1.0092 0.6743 0.8593
vt 1.0045 0.8077 0.8615
vt 0.7462 0.7967 1.0761
vt 0.8615 1.0045 0.8077
vt 0.7911 0.9447 0.8077
vt 1.0761 0.7462 0.7967
vt 0.0082 0.2986 0.8077
vt 0.1432 -0.0276 0.7967
vt -0.0714 0.2307 0.8077
vt 1.0276 0.7967 0.1432
vt 0.7693 0.8077 -0.0714
vt 0.7677 0.7156 -0.0721
vt 1.0261 0.7046 0.1425
vt -0.0761 0.4079 0.8106
vt 0.7271 1.0276 0.8099
vt 0.1418 0.2307 -0.0257
vt 1.0732 0.1894 0.7512
vt 0.7512 0.1894 1.0732
vt 1.0095 0.2004 0.8586
vt 0.7674 0.2417 -0.0728
vt 1.0257 0.2307 0.1418
vt 1.2188 1.0160 0.9198
vt 1.2119 0.6330 0.9341
vt 1.2823 0.6330 0.9940
vt 1.7108 1.0072 1.3459
vt -2.5251 1.0406 -1.9039
vt -2.5275 0.5507 -1.8927
vt -1.4721 1.0159 -1.1539
vt -1.4721 1.0419 -1.1549
vt 1.2800 0.4996 0.9987
vt 1.7109 0.9779 1.3470
vt 0.3494 0.6330 0.2202
vt 0.4290 0.6330 0.2881
vt 0.4328 1.0075 0.2799
vt -0.0351 1.0188 -0.1012
vt 0.3974 0.6359 0.3447
vt 0.3895 1.0364 0.3481
vt 0.2799 1.0075 0.4328
vt 0.2881 0.6330 0.4290
vt -0.0388 0.5578 -0.0854
vt 0.3487 0.5409 0.2217
vt 3.5144 0.4321 2.9035
vt 3.5149 0.4539 2.9031
vt 3.5282 0.9790 2.8909
vt 3.4290 0.9772 2.7986
vt 3.4290 0.9480 2.7999
vt 3.5279 0.9671 2.8912
vt 3.5223 0.6630 2.8963
vt -2.5282 0.0768 -1.8923
vt -0.0395 0.0838 -0.0851
vt 0.3480 0.0670 0.2221
vt 1.2794 0.0257 0.9990
vt 3.5137 -0.0419 2.9039
vt 3.5144 0.2185 2.9035
vt 7.6269 1.4863 -1.4549
vt 7.1653 -1.0189 -1.7689
vt 7.6263 -1.1640 -1.3641
vt 7.6372 -0.5989 -1.3741
vt 4.0797 1.0754 -4.3954
vt 4.0850 1.4898 -4.4026
vt 1.5545 1.4960 -6.2325
vt 2.6128 -1.4028 -5.3921
vt 4.9795 -3.9421 5.4804
vt 4.9270 1.3881 5.4244
vt 2.9050 1.3622 7.3771
vt 2.9162 0.3065 7.3874
vt -0.2509 -3.9401 -6.8499
vt -0.1915 2.5800 -6.9202
vt -2.6982 1.9127 -4.9035
vt -2.7525 -3.9431 -4.8288
vt -4.2462 1.5924 -3.7937
vt -4.2000 -3.9421 -3.7522
vt -4.4244 1.3881 -3.9270
vt -4.4804 -3.9421 -3.9795
vt 5.2971 -1.4027 -3.3349
vt 5.2745 -3.4561 -3.2962
vt 5.6791 -1.5416 -3.0079
vt 5.6400 -1.1847 -3.0522
vt 5.7665 -3.4649 -2.8701
vt 5.7890 -1.5110 -2.9155
vt 6.6503 -0.9665 -2.2049
vt 5.3147 1.4705 -3.4005
vt 6.1326 -1.0290 -2.6411
vt 5.3122 1.0754 -3.3915
vt 7.4847 -3.4949 -1.4175
vt 7.5838 -3.4931 -1.3251
vt 7.6140 -1.8587 -1.3528
vt -2.8824 -1.5867 5.7617
vt -2.8842 -1.5100 5.7626
vt -2.9155 -1.5110 5.7890
vt -2.8701 -3.4649 5.7665
vt 2.4367 -1.5867 7.4727
vt 2.4175 -3.4949 7.4847
vt 2.4703 -1.4960 7.4998
vt 2.4390 -1.4950 7.4734
vt 2.2562 -3.4896 7.3479
vt 2.3071 -1.5824 7.3627
vt -2.7965 -1.5838 5.6896
vt -2.7526 -3.4611 5.6678
vt 4.2074 -3.4538 5.2059
vt 4.2962 -3.4561 5.2745
vt 4.3349 -1.4027 5.2971
vt 4.2449 -1.4003 5.2277
vt -4.2277 -3.2449 -1.4003
vt -4.2971 -3.3349 -1.4027
vt -3.5137 -3.9729 -1.4028
vt -3.4280 -3.8618 -1.3999
vt -2.9526 -4.2286 -1.3993
vt -3.0480 -4.3523 -1.4025
vt -1.6128 -5.3921 -1.4028
vt -1.5499 -5.3106 -1.4007
vt -5.3106 -1.4007 2.5499
vt -5.3921 -1.4028 2.6128
vt -5.3709 -3.4302 2.5836
vt -5.2831 -3.4279 2.5159
vt 4.1990 -3.8369 5.2036
vt 4.2819 -3.8391 5.2676
vt 1.5305 -3.4315 -6.1199
vt 2.5836 -3.4302 -5.3709
vt 4.0480 -1.4025 -4.3523
vt 4.5137 -1.4028 -3.9729
vt 4.2570 1.0754 -4.2510
vt 4.2447 1.0754 -4.2610
vt 5.1460 1.0754 -3.5269
vt -3.2384 -3.9318 -2.1067
vt -3.3640 7.1778 -2.2022
vt -6.9202 2.5800 1.1915
vt -6.8499 -3.9401 1.2509
vt 1.5736 1.5573 -6.2504
vt 1.5952 1.5917 -6.2700
vt -1.5173 5.1251 -3.8105
vt 1.7760 1.6208 -6.4302
vt 1.6400 1.6146 -6.3098
vt 1.7332 1.5726 -6.3909
vt 1.5931 1.5581 -6.2670
vt 1.5711 1.4974 -6.2463
vt 6.3869 -3.4308 2.5956
vt 6.3709 -3.4302 2.5836
vt 6.3699 -3.4562 2.5836
vt 6.3859 -3.4568 2.5956
vt -3.9527 -3.4392 4.5007
vt -3.9521 -3.4652 4.5005
vt -3.9362 -3.4646 4.4885
vt -3.8266 -3.4357 4.4038
vt -1.4807 -3.9278 -3.6730
vt 1.5282 -3.9214 -6.1087
vt 2.9600 -3.9371 7.4276
vt 2.9600 -3.9890 7.4276
vt 4.9848 -6.1768 5.4830
vt -2.7551 -6.1778 -4.8341
vt -0.2535 -6.1747 -6.8553
vt -4.2026 -6.1768 -3.7576
vt -4.4830 -6.1768 -3.9848
vt -6.8553 -6.1747 1.2535
vt -3.2438 -6.1665 -2.1041
vt -1.4814 -4.4018 -3.6726
vt 1.5275 -4.3953 -6.1084
vt 7.6747 1.4883 -1.4085
vt 7.6204 -1.5057 -1.3587
vt 7.4998 -1.4960 -1.4703
vt 2.9654 -6.1718 7.4302
vt 3.4446 4.0353 0.5095
vt 1.2099 2.4036 0.5208
vt 4.0101 -0.4928 0.5006
vt 0.8003 3.9442 0.5257
vt 0.9563 2.6068 0.5227
vt 0.9110 4.2662 0.5256
vt 0.8312 4.2718 0.5261
vt -0.4215 3.9881 0.5257
vt -0.4115 4.3611 0.5265
vt -0.4303 4.3623 0.5264
vt -2.9656 4.4283 0.5143
vt -0.3576 2.6178 0.5233
vt -2.8291 1.4084 0.5104
vt -2.5373 -2.7754 0.5054
vt -0.5041 2.4382 0.5223
vt -2.5293 -2.8902 0.5052
vt 0.4520 0.7227 0.5228
vt -0.2820 2.6058 0.5236
vt 0.8847 2.6033 0.5231
vt 0.9468 -2.9736 0.5139
vt 4.2492 -3.1447 0.4947
vt -2.5208 -3.0103 0.5049
vt -3.0394 4.4250 0.5137
vt 2.5298 -0.9215 0.5425
vt 3.1806 -0.8238 0.5453
vt 3.8907 3.6132 0.3866
vt 0.5883 3.6905 0.3510
vt 0.2638 -3.1507 0.6240
vt 1.7291 -1.6953 0.5633
vt 1.6290 -1.0680 0.5390
vt 1.7970 -2.6751 0.6004
vt 2.3674 -1.5909 0.5658
vt 2.2673 -0.9636 0.5415
vt 2.6231 -1.5613 0.5672
vt 4.4143 -1.8713 0.5966
vt 3.2740 -1.4635 0.5701
vt -2.8191 3.1070 0.3805
vt -2.0166 0.5302 0.4813
vt -2.0510 1.2751 0.4517
vt -2.8367 3.2660 0.3742
vt -1.4605 0.5787 0.4784
vt -2.0855 -3.5063 0.6426
vt -2.3178 -1.4121 0.5594
vt -1.4950 1.3204 0.4489
vt -2.8793 3.6503 0.3591
vt -2.8564 3.4440 0.3672
vt -2.0802 -3.5541 0.6445
vt 0.2566 -3.3975 0.6338
vt 5.4374 -4.0892 5.0602
vt -4.0927 -4.3537 -3.6799
vt -4.0920 -4.6141 -3.6796
vt 5.4428 -6.2719 5.0628
vt -4.2030 1.3805 -3.8772
vt -4.1495 1.3862 -3.8223
vt -4.1973 1.3882 -3.7759
vt -4.2062 1.4444 -3.8833
vt -4.1598 -0.6990 -3.7415
vt -4.1489 -1.2641 -3.7315
vt -4.0932 -4.1183 -3.6803
vt -4.1651 -1.2685 -3.7463
vt -4.1651 -1.2787 -3.7463
vt -4.1552 -1.6095 -3.7373
vt -4.1568 -1.6080 -3.7387
vt -4.1430 -1.6059 -3.7261
vt -4.1366 -1.9588 -3.7202
vt -4.1064 -3.5932 -3.6925
vt -4.1062 -3.6051 -3.6923
vt -4.1005 -3.9092 -3.6871
vt -4.0927 -4.1401 -3.6799
vt 5.4374 -4.0372 5.0602
vt 5.3936 0.2064 5.0200
vt 5.3505 1.3019 4.9805
vt 5.3824 1.2620 5.0097
vt 3.9533 3.0481 3.6991
vt 0.7159 7.0997 0.7300
vt 0.5784 7.2719 0.6040
vt 0.4968 7.1790 0.5291
vt 0.8344 6.9511 0.8387
vt 0.9404 6.8185 0.9360
vt 0.4192 7.0897 0.4579
vt -2.4063 3.8292 -2.1334
vt -4.4428 1.4771 -4.0010
vt -4.3792 1.4744 -4.0628
vt -4.3458 1.4597 -4.0278
vt -4.2685 1.5015 -3.9500
vt -4.2263 1.4787 -3.9055
vt -4.2225 1.4412 -3.9000
vt 0.9400 0.0022 0.9996
vt 0.9485 0.9919 0.9568
vt 0.0653 0.9995 0.4670
vt 0.0569 0.0098 0.5098
vt 0.9474 0.9995 0.9626
vt 0.0568 0.9992 0.4650
vt 0.0557 0.0018 0.5019
vt 0.9464 0.0021 0.9994
vt 0.0735 0.0081 0.0437
vt 0.0820 0.9977 0.0006
vt 0.9566 0.0005 0.5339
vt 0.9651 0.9901 0.4908
vt 0.9628 0.0008 0.5356
vt 0.0722 0.0005 0.0376
vt 0.9639 0.9981 0.4984
vt 0.0733 0.9978 0.0004
# 616 texture coords

g Myyrivahe_23
usemtl WoodStrips_LightGreen
s off
f 1/1/1 2/2/1 3/3/1 
f 3/3/1 4/4/1 1/1/1 
usemtl Cornice
f 5/5/2 6/6/2 7/7/2 
f 7/7/3 8/8/3 5/5/3 
f 9/9/4 10/10/4 11/11/4 
f 11/11/5 12/12/5 9/9/5 
usemtl WoodStrips_LightGreen
f 13/13/1 14/14/1 15/15/1 
f 15/15/1 16/16/1 13/13/1 
f 17/17/6 18/18/6 19/19/6 
f 20/20/7 21/21/7 22/22/7 
f 22/22/8 23/23/8 20/20/8 
usemtl Pink
f 24/24/9 25/25/9 26/26/9 
f 26/26/10 27/27/10 24/24/10 
f 24/24/11 27/27/11 28/28/11 
f 28/28/12 29/29/12 24/24/12 
usemtl Cornice
f 5/30/13 2/31/13 30/32/13 
f 30/32/14 6/33/14 5/30/14 
usemtl Pink
f 31/34/15 32/35/15 33/36/15 
usemtl Cornice
f 9/37/16 34/38/16 15/39/16 
f 15/39/17 10/40/17 9/37/17 
f 14/41/18 35/42/18 11/43/18 
f 11/43/19 15/44/19 14/41/19 
f 15/44/20 11/43/20 10/45/20 
f 36/46/21 37/47/21 38/48/21 
f 38/48/22 39/49/22 36/46/22 
f 40/50/23 41/51/23 42/52/23 
f 42/52/24 43/53/24 40/50/24 
usemtl Pink
f 32/35/25 44/54/25 33/36/25 
usemtl Cornice
f 39/55/26 8/56/26 7/57/26 
f 7/57/27 36/58/27 39/55/27 
f 43/59/28 12/60/28 11/61/28 
f 11/61/17 40/62/17 43/59/17 
f 11/43/29 35/42/29 41/63/29 
f 41/63/29 40/64/29 11/43/29 
usemtl Pink
f 45/65/30 46/66/30 47/67/30 
f 47/67/31 48/68/31 45/65/31 
f 49/69/32 50/70/32 51/71/32 
f 51/71/33 52/72/33 49/69/33 
f 44/54/34 53/73/34 33/36/34 
f 54/74/35 38/75/35 37/76/35 
f 37/76/36 55/77/36 54/74/36 
f 56/78/37 42/79/37 41/80/37 
f 41/80/38 57/81/38 56/78/38 
f 58/82/39 17/83/39 59/84/39 
f 60/85/40 33/36/40 53/73/40 
f 53/73/41 61/86/41 60/85/41 
f 48/68/42 54/74/42 55/87/42 
f 55/87/43 45/65/43 48/68/43 
f 52/72/44 56/78/44 57/81/44 
f 57/81/45 49/69/45 52/72/45 
f 62/88/46 63/89/46 59/84/46 
f 59/84/47 17/83/47 62/88/47 
usemtl WoodStrips_Pink
f 28/90/48 20/91/48 29/92/48 
usemtl WoodStrips_LightGreen
f 29/93/49 20/94/49 23/95/49 
f 23/95/50 24/96/50 29/93/50 
f 24/96/51 23/95/51 64/97/51 
f 64/97/52 25/98/52 24/96/52 
usemtl WoodStrips_Pink
f 64/99/53 26/100/53 25/101/53 
usemtl Roof
f 65/102/54 66/103/54 27/104/54 
f 27/104/55 26/105/55 65/102/55 
f 67/106/56 28/102/56 27/107/56 
f 27/107/57 66/108/57 67/106/57 
usemtl WoodStrips_Pink
f 68/109/58 20/91/58 28/90/58 
f 28/90/59 67/110/59 68/109/59 
f 21/111/60 20/91/60 68/109/60 
f 64/99/61 69/112/61 70/113/61 
f 65/114/62 26/100/62 64/99/62 
f 64/99/63 70/113/63 65/114/63 
usemtl Pink
f 13/115/64 17/83/64 71/116/64 
f 71/116/65 17/83/65 58/82/65 
usemtl Cornice
f 2/117/66 5/118/66 8/119/66 
f 8/119/67 72/120/67 2/117/67 
f 72/120/68 8/119/68 73/121/68 
f 38/122/69 73/121/69 8/119/69 
f 8/119/69 39/123/69 38/122/69 
usemtl WoodStrips_LightGreen
f 31/124/70 33/125/70 74/126/70 
f 74/126/71 3/3/71 31/124/71 
usemtl Pink
f 62/127/72 50/70/72 49/69/72 
f 49/69/73 63/128/73 62/127/73 
f 63/128/74 49/69/74 57/81/74 
f 57/81/74 59/129/74 63/128/74 
f 59/129/75 57/81/75 41/80/75 
f 41/80/76 58/130/76 59/129/76 
f 58/130/77 41/80/77 35/131/77 
f 35/131/77 71/132/77 58/130/77 
f 71/132/78 35/131/78 14/133/78 
f 14/133/79 13/134/79 71/132/79 
usemtl WoodStrips_Pink
f 75/135/80 22/136/80 21/111/80 
f 21/111/81 68/109/81 75/135/81 
usemtl Pink
f 32/137/82 31/138/82 72/139/82 
f 72/139/83 73/140/83 32/137/83 
f 44/141/84 32/137/84 73/140/84 
f 73/140/84 38/75/84 44/141/84 
f 53/142/85 44/141/85 38/75/85 
f 38/75/86 54/74/86 53/142/86 
f 61/143/87 53/142/87 54/74/87 
f 54/74/88 48/68/88 61/143/88 
f 60/144/89 61/143/89 48/68/89 
f 48/68/90 47/67/90 60/144/90 
usemtl WoodStrips_Pink
f 70/113/91 69/112/91 76/145/91 
f 76/145/92 77/146/92 70/113/92 
f 76/147/93 78/148/93 77/149/93 
usemtl Pink
f 62/88/94 17/83/94 19/150/94 
usemtl WoodStrips_Pink
f 22/151/95 75/152/95 19/153/95 
usemtl Pink
f 33/36/96 60/85/96 78/154/96 
usemtl WoodStrips_LightGreen
f 78/155/97 76/156/97 79/157/97 
f 79/157/98 74/126/98 78/155/98 
usemtl Door_Window
f 80/158/99 81/159/99 82/160/99 
f 82/160/100 83/161/100 80/158/100 
f 84/162/100 80/158/100 83/161/100 
f 83/161/100 85/163/100 84/162/100 
f 86/164/100 82/160/100 81/159/100 
f 81/159/100 87/165/100 86/164/100 
usemtl Window_Side
f 88/166/101 89/167/101 90/168/101 
f 90/168/102 91/169/102 88/166/102 
usemtl Brick_Arch
f 92/170/103 93/171/103 94/172/103 
f 94/172/103 95/173/103 92/170/103 
f 96/174/104 97/175/104 98/176/104 
f 99/177/105 100/178/105 96/174/105 
f 96/174/106 101/179/106 99/177/106 
f 99/177/107 95/173/107 94/172/107 
f 94/172/108 100/178/108 99/177/108 
f 102/180/109 101/181/109 103/182/109 
f 101/181/110 102/180/110 104/183/110 
f 104/183/111 99/184/111 101/181/111 
f 99/184/112 104/183/112 105/185/112 
f 105/185/113 95/186/113 99/184/113 
f 95/186/114 105/185/114 106/187/114 
f 106/187/115 92/188/115 95/186/115 
f 92/189/116 106/190/116 107/191/116 
f 107/191/117 93/192/117 92/189/117 
f 107/193/118 108/194/118 93/195/118 
f 108/194/119 94/196/119 93/195/119 
f 109/197/120 94/196/120 108/194/120 
f 108/194/121 110/198/121 109/197/121 
f 111/199/122 112/200/122 96/201/122 
f 96/201/123 113/202/123 111/199/123 
f 113/202/124 96/201/124 100/203/124 
f 100/203/125 114/204/125 113/202/125 
f 114/204/126 100/203/126 94/196/126 
f 94/196/127 109/197/127 114/204/127 
usemtl Wood
f 109/205/128 110/206/128 115/207/128 
f 115/207/129 114/208/129 109/205/129 
f 116/209/130 111/210/130 114/208/130 
f 114/208/131 115/207/131 116/209/131 
f 114/208/132 111/210/132 113/211/132 
usemtl Tin
f 90/212/133 117/213/133 118/214/133 
f 118/214/134 91/215/134 90/212/134 
usemtl Wood
f 88/216/135 116/217/135 115/218/135 
f 115/218/135 89/219/135 88/216/135 
usemtl Door_Window
f 119/220/100 120/221/100 85/163/100 
f 85/163/100 83/161/100 119/220/100 
usemtl Tin
f 121/222/136 82/223/136 86/224/136 
usemtl WoodStrips_LightGreen
f 79/157/137 76/156/137 22/22/137 
f 22/22/1 122/225/1 79/157/1 
f 123/226/138 124/227/138 16/16/138 
f 16/16/139 15/15/139 123/226/139 
f 31/124/1 3/3/1 2/2/1 
f 2/2/140 72/228/140 31/124/140 
f 74/126/141 33/125/141 78/155/141 
f 18/18/142 17/17/142 13/13/142 
f 13/13/142 16/16/142 18/18/142 
f 19/19/143 18/18/143 122/225/143 
f 122/225/144 22/22/144 19/19/144 
usemtl Window_Top
f 125/229/1 126/230/1 127/231/1 
f 127/231/1 128/232/1 125/229/1 
f 127/231/1 126/230/1 129/233/1 
f 129/233/1 130/234/1 127/231/1 
usemtl Pink
f 131/235/145 132/236/145 133/237/145 
f 133/237/1 134/238/1 131/235/1 
f 135/239/1 134/238/1 133/237/1 
f 133/237/71 136/240/71 135/239/71 
f 135/239/1 136/240/1 137/241/1 
f 137/241/1 138/242/1 135/239/1 
f 138/242/146 137/241/146 139/243/146 
f 139/243/147 140/244/147 138/242/147 
f 141/245/148 140/244/148 139/243/148 
f 139/243/146 142/246/146 141/245/146 
f 141/245/70 142/246/70 132/236/70 
f 132/236/70 131/235/70 141/245/70 
f 125/247/149 143/248/149 144/249/149 
f 144/249/149 126/250/149 125/247/149 
f 126/250/150 144/249/150 145/251/150 
f 145/251/150 129/252/150 126/250/150 
f 129/253/151 145/254/151 146/255/151 
f 146/255/152 130/256/152 129/253/152 
f 130/257/153 146/258/153 147/259/153 
f 147/259/154 127/260/154 130/257/154 
f 127/260/154 147/259/154 148/261/154 
f 148/261/154 128/262/154 127/260/154 
f 128/263/155 148/264/155 143/265/155 
f 143/265/155 125/266/155 128/263/155 
f 132/267/156 3/268/156 74/269/156 
f 74/269/157 133/270/157 132/267/157 
f 133/270/157 74/269/157 79/271/157 
f 79/271/157 136/272/157 133/270/157 
f 136/273/158 79/274/158 122/275/158 
f 122/275/159 137/276/159 136/273/159 
f 137/277/160 122/278/160 18/279/160 
f 18/279/160 139/280/160 137/277/160 
f 139/280/160 18/279/160 16/281/160 
f 16/281/160 142/282/160 139/280/160 
f 142/283/161 16/284/161 3/285/161 
f 3/285/161 132/286/161 142/283/161 
f 134/287/162 144/249/162 143/248/162 
f 143/248/162 131/288/162 134/287/162 
f 131/289/155 143/265/155 148/264/155 
f 148/264/155 141/290/155 131/289/155 
f 141/291/163 148/261/163 147/259/163 
f 147/259/164 140/292/164 141/291/164 
f 140/292/153 147/259/153 146/258/153 
f 146/258/153 138/293/153 140/292/153 
f 138/294/165 146/255/165 145/254/165 
f 145/254/151 135/295/151 138/294/151 
f 135/296/166 145/251/166 144/249/166 
f 144/249/166 134/287/166 135/296/166 
usemtl Brick_Arch
f 112/200/167 149/297/167 150/298/167 
usemtl Tin
f 151/299/168 152/300/168 153/301/168 
f 153/301/169 154/302/169 151/299/169 
f 154/302/170 153/301/170 155/303/170 
f 155/303/171 156/304/171 154/302/171 
f 157/305/172 158/306/172 159/307/172 
f 159/307/173 160/308/173 157/305/173 
f 153/309/174 82/223/174 121/222/174 
f 121/222/175 155/310/175 153/309/175 
f 156/311/176 161/312/176 162/313/176 
f 162/313/177 154/314/177 156/311/177 
f 154/314/178 162/313/178 163/315/178 
f 163/315/178 151/316/178 154/314/178 
f 152/317/179 83/318/179 82/223/179 
f 82/223/179 153/309/179 152/317/179 
f 158/319/180 118/214/180 117/213/180 
f 117/213/181 159/320/181 158/319/181 
f 159/321/182 117/322/182 164/323/182 
f 164/323/182 160/324/182 159/321/182 
f 160/325/183 164/326/183 165/327/183 
f 165/327/183 157/328/183 160/325/183 
f 157/329/184 165/330/184 118/331/184 
f 118/331/185 158/332/185 157/329/185 
usemtl WoodStrips_LightGreen
f 166/333/186 16/16/186 124/227/186 
f 166/333/1 4/4/1 3/3/1 
f 3/3/138 16/16/138 166/333/138 
f 22/22/70 76/156/70 23/23/70 
f 64/334/187 23/23/187 76/156/187 
f 76/156/188 69/335/188 64/334/188 
usemtl Pink
f 167/336/189 168/337/189 169/338/189 
f 169/338/189 170/339/189 167/336/189 
f 171/340/190 172/341/190 170/339/190 
f 170/339/191 169/338/191 171/340/191 
f 173/342/192 167/336/192 170/339/192 
f 170/339/193 172/341/193 173/342/193 
f 174/343/194 168/337/194 167/336/194 
f 167/336/195 173/342/195 174/343/195 
f 174/343/196 171/340/196 169/338/196 
f 169/338/197 168/337/197 174/343/197 
usemtl Brick_Arch
f 96/174/198 98/176/198 103/344/198 101/179/198 
f 175/345/199 102/180/199 103/346/199 
f 97/347/200 96/201/200 112/200/200 150/298/200 
usemtl Step
f 176/348/201 177/349/201 178/350/201 
f 178/350/202 179/351/202 176/348/202 
f 178/352/203 180/353/203 181/354/203 
f 181/354/203 179/355/203 178/352/203 
f 181/356/204 182/357/204 179/358/204 
f 179/358/205 182/357/205 183/359/205 
f 183/359/206 176/360/206 179/358/206 
f 183/359/204 184/361/204 176/360/204 
f 176/362/207 184/363/207 185/364/207 
f 185/364/208 177/365/208 176/362/208 
f 119/366/209 183/359/209 182/357/209 
f 182/357/209 120/367/209 119/366/209 
f 178/350/210 177/349/210 186/368/210 
f 186/368/210 187/369/210 178/350/210 
f 178/352/211 187/370/211 188/371/211 
f 188/371/211 180/353/211 178/352/211 
f 177/365/212 185/364/212 189/372/212 
f 189/372/212 186/373/212 177/365/212 
usemtl Brown_Strip
f 190/374/213 182/375/213 181/376/213 
f 181/376/214 117/377/214 190/374/214 
f 191/378/215 192/379/215 161/380/215 
f 161/380/216 121/381/216 191/378/216 
f 181/376/217 180/382/217 164/383/217 
f 164/383/218 117/377/218 181/376/218 
f 184/384/219 183/385/219 163/386/219 
f 163/386/220 162/387/220 184/384/220 
f 119/388/221 83/389/221 163/390/221 
f 163/390/222 183/391/222 119/388/222 
f 161/380/223 192/379/223 193/392/223 
f 193/392/224 162/387/224 161/380/224 
f 184/384/225 162/387/225 193/392/225 
f 193/392/226 185/393/226 184/384/226 
f 164/383/227 180/382/227 194/394/227 195/395/227 
f 196/396/228 118/397/228 165/398/228 197/399/228 
f 165/398/229 198/400/229 197/399/229 
f 192/379/230 199/401/230 200/402/230 
f 200/402/230 193/392/230 192/379/230 
f 185/393/231 193/392/231 200/402/231 
f 200/402/231 189/403/231 185/393/231 
f 180/382/232 188/404/232 201/405/232 202/406/232 
f 195/395/233 198/400/233 165/398/233 164/383/233 
f 194/394/234 180/382/234 202/406/234 
usemtl Walls
f 30/407/235 102/408/235 175/409/235 203/410/235 
f 123/411/236 15/412/236 34/413/236 
f 34/413/237 204/414/237 123/411/237 
f 205/415/238 206/416/238 207/417/238 208/418/238 
f 209/419/239 210/420/239 211/421/239 
f 211/421/240 212/422/240 209/419/240 
f 212/422/241 211/421/241 213/423/241 
f 213/423/242 214/424/242 212/422/242 
f 214/424/243 213/423/243 206/425/243 
f 206/425/244 205/426/244 214/424/244 
f 215/427/245 190/428/245 107/429/245 
f 215/427/246 107/429/246 106/430/246 
f 107/429/247 190/428/247 117/431/247 
f 117/431/248 108/432/248 107/429/248 
f 30/407/249 104/433/249 102/408/249 
f 104/433/250 30/407/250 2/434/250 
f 2/434/251 105/435/251 104/433/251 
f 1/436/252 106/430/252 105/435/252 
f 105/435/253 2/434/253 1/436/253 
f 118/437/254 196/438/254 216/439/254 
f 115/440/255 110/441/255 108/442/255 
f 108/442/255 117/443/255 115/440/255 
f 116/444/256 118/445/256 112/446/256 
f 112/446/257 111/447/257 116/444/257 
f 91/448/258 118/445/258 116/444/258 
f 116/444/259 88/449/259 91/448/259 
f 89/450/260 115/440/260 117/443/260 
f 117/443/261 90/451/261 89/450/261 
f 85/452/262 190/453/262 215/454/262 
f 215/454/263 84/455/263 85/452/263 
f 84/456/264 215/457/264 217/458/264 
f 217/458/264 80/459/264 84/456/264 
f 81/460/265 80/459/265 217/458/265 
f 217/458/266 218/461/266 81/460/266 
f 81/460/267 218/461/267 204/462/267 
f 204/462/267 87/463/267 81/460/267 
f 87/464/268 204/465/268 121/466/268 
f 121/466/268 86/467/268 87/464/268 
f 85/452/269 120/468/269 182/469/269 
f 182/469/270 190/453/270 85/452/270 
f 191/470/271 121/471/271 204/414/271 
f 204/414/272 34/413/272 191/470/272 
f 218/472/1 217/473/1 166/474/1 
f 166/474/273 124/475/273 218/472/273 
f 4/476/1 166/474/1 217/473/1 
f 217/473/1 215/427/1 4/476/1 
f 219/477/274 220/478/274 210/479/274 
f 210/479/274 209/480/274 219/477/274 
f 12/481/275 42/482/275 221/483/275 
f 51/484/276 56/485/276 52/486/276 
f 42/482/277 12/481/277 43/487/277 
f 9/488/278 12/481/278 34/413/278 
f 42/482/279 56/485/279 221/483/279 
f 56/485/280 51/484/280 221/483/280 
f 155/489/281 121/490/281 161/491/281 
f 161/491/282 156/492/282 155/489/282 
f 152/493/283 151/494/283 163/495/283 
f 163/495/284 83/496/284 152/493/284 
f 4/476/1 215/427/1 1/436/1 
f 123/411/1 218/472/1 124/475/1 
f 1/436/285 215/427/285 106/430/285 
f 204/414/286 218/472/286 123/411/286 
f 219/477/287 222/497/287 221/483/287 
f 221/483/288 220/478/288 219/477/288 
f 222/497/289 191/470/289 34/413/289 
f 34/413/290 221/483/290 222/497/290 
f 222/497/289 192/498/289 191/470/289 
f 221/483/291 34/413/291 12/481/291 
f 223/499/292 224/500/292 225/501/292 205/415/292 
f 212/422/293 226/502/293 227/503/293 
f 227/503/293 209/419/293 212/422/293 
f 214/424/294 228/504/294 226/502/294 
f 226/502/295 212/422/295 214/424/295 
f 205/426/296 225/505/296 228/504/296 
f 228/504/296 214/424/296 205/426/296 
f 209/480/297 227/506/297 229/507/297 
f 229/507/297 219/477/297 209/480/297 
f 219/477/298 229/507/298 230/508/298 
f 230/508/299 222/497/299 219/477/299 
f 222/497/300 230/508/300 199/509/300 
f 199/509/300 192/498/300 222/497/300 
f 30/407/301 203/410/301 231/510/301 
f 223/499/302 205/415/302 208/418/302 
f 118/437/303 216/439/303 149/511/303 112/512/303 
f 232/513/304 225/501/304 224/500/304 
usemtl Roof
f 51/514/305 67/515/305 221/516/305 
f 19/517/306 68/518/306 50/519/306 
f 50/519/306 62/520/306 19/517/306 
f 78/521/307 60/522/307 47/523/307 
f 47/523/308 46/524/308 78/521/308 
f 46/524/308 70/525/308 78/521/308 
f 233/526/309 234/527/309 65/528/309 46/524/309 
f 46/524/310 65/528/310 70/525/310 
f 234/527/311 235/529/311 66/530/311 65/528/311 
f 70/525/312 77/531/312 78/521/312 
f 51/514/306 68/518/306 67/515/306 
f 51/514/306 50/519/306 68/518/306 
f 19/517/313 75/532/313 68/518/313 
f 67/515/314 66/530/314 236/533/314 
f 236/533/315 220/534/315 67/515/315 
f 67/515/316 220/534/316 221/516/316 
f 235/529/317 237/535/317 236/533/317 66/530/317 
usemtl Pink
f 233/526/318 46/524/318 238/536/318 
usemtl Roof
f 239/537/319 240/538/319 220/539/319 
f 220/539/320 236/540/320 239/537/320 
f 213/541/321 241/542/321 242/543/321 
f 242/543/322 236/540/322 213/541/322 
f 211/544/323 243/545/323 241/542/323 
f 244/546/324 236/540/324 242/543/324 
f 243/545/323 211/544/323 245/547/323 
f 210/548/325 220/539/325 240/538/325 
f 240/538/326 246/549/326 210/548/326 
f 243/545/323 245/547/323 239/537/323 
f 239/537/323 244/546/323 243/545/323 
f 247/550/327 172/551/327 171/552/327 248/553/327 
f 213/541/328 173/554/328 172/551/328 
f 249/555/329 213/541/329 172/551/329 250/556/329 
f 236/540/328 174/557/328 173/554/328 
f 173/554/328 213/541/328 236/540/328 
f 237/558/330 251/559/330 174/557/330 236/540/330 
f 210/548/326 246/549/326 245/547/326 
f 245/547/326 211/544/326 210/548/326 
f 236/540/324 244/546/324 239/537/324 
f 213/541/331 211/544/331 241/542/331 
f 207/560/332 206/561/332 213/541/332 249/555/332 
f 250/556/333 172/551/333 247/550/333 
f 248/553/334 171/552/334 174/557/334 251/559/334 
f 245/547/326 246/549/326 240/538/326 239/537/326 
f 243/545/326 244/546/326 242/543/326 241/542/326 
usemtl Walls
s 1
f 224/562/335 202/563/336 201/564/336 232/565/335 
s off
f 6/566/337 30/567/337 231/568/337 7/569/337 
f 231/568/338 203/570/338 175/571/338 195/572/338 
f 175/571/339 103/573/339 98/574/339 150/575/339 
f 98/574/340 97/576/340 150/575/340 
f 175/571/341 150/575/341 149/577/341 195/572/341 
f 216/578/342 196/579/342 197/580/342 149/577/342 
f 197/580/343 198/581/343 195/572/343 149/577/343 
f 194/582/344 202/563/344 224/562/344 195/572/344 
f 224/562/345 223/583/345 208/584/345 249/585/345 
f 208/584/346 207/586/346 249/585/346 
f 195/572/344 224/562/344 249/585/344 250/587/344 
f 251/588/347 237/589/347 235/590/347 248/591/347 
f 247/592/344 248/591/344 235/590/344 250/587/344 
f 195/572/348 250/587/348 235/590/348 231/568/348 
f 235/590/349 234/593/349 233/594/349 
f 233/594/350 238/595/350 46/596/350 
f 235/590/351 233/594/351 46/596/351 
f 46/596/352 45/597/352 55/598/352 235/590/352 
f 235/590/353 55/598/353 37/599/353 231/568/353 
f 37/599/354 36/600/354 7/569/354 231/568/354 
usemtl Roof_Windows
f 252/601/355 253/602/355 254/603/355 
f 254/603/355 255/604/355 252/601/355 
f 256/605/356 257/606/356 258/607/356 
f 258/607/355 259/608/355 256/605/355 
f 260/609/357 255/604/357 254/603/357 
f 254/603/358 261/610/358 260/609/358 
f 262/611/359 252/601/359 255/604/359 
f 255/604/360 260/609/360 262/611/360 
f 263/612/361 253/602/361 252/601/361 
f 252/601/362 262/611/362 263/612/362 
f 261/610/363 254/603/363 253/602/363 
f 253/602/364 263/612/364 261/610/364 
f 264/613/365 259/608/365 258/607/365 
f 258/607/366 265/614/366 264/613/366 
f 266/615/367 256/605/367 259/608/367 
f 259/608/367 264/613/367 266/615/367 
f 267/616/368 257/606/368 256/605/368 
f 256/605/369 266/615/369 267/616/369 
f 265/614/370 258/607/370 257/606/370 
f 257/606/370 267/616/370 265/614/370 
# 36 polygons - 434 triangles

