# 3ds Max Wavefront OBJ Exporter v0.97b - (c)2007 guruware
# File Created: 28.02.2012 19:23:53

mtllib Vene_10_2.mtl

#
# object Vene_10_2
#

v  217.913757 6.606025 5.087965
v  210.112701 7.415364 5.087963
v  210.112686 7.415363 13.880201
v  217.913757 6.606025 13.880203
v  218.345779 10.770277 5.087965
v  210.544724 11.579617 5.087964
v  210.544724 11.579616 12.788670
v  218.345779 10.770278 12.788671
# 8 vertices

vn 0.103193 0.994661 -0.000000
vn 0.103193 0.994661 -0.000000
vn 0.103193 0.994661 -0.000000
vn 0.103194 0.994661 0.000000
vn 0.103194 0.994661 0.000000
vn 0.103194 0.994661 0.000000
vn -0.994661 0.103192 -0.000000
vn -0.994661 0.103192 -0.000000
vn -0.994661 0.103192 -0.000000
vn -0.994661 0.103193 -0.000001
vn -0.994661 0.103193 -0.000001
vn -0.994661 0.103193 -0.000001
vn 0.026034 0.250940 0.967653
vn 0.026034 0.250940 0.967653
vn 0.026034 0.250940 0.967653
vn 0.026034 0.250940 0.967653
vn 0.026034 0.250940 0.967653
vn 0.026034 0.250940 0.967653
vn 0.994661 -0.103193 -0.000001
vn 0.994661 -0.103193 -0.000001
vn 0.994661 -0.103193 -0.000001
vn 0.994661 -0.103192 -0.000000
vn 0.994661 -0.103192 -0.000000
vn 0.994661 -0.103192 -0.000000
vn -0.103193 -0.994661 -0.000000
vn -0.103193 -0.994661 -0.000000
vn -0.103193 -0.994661 -0.000000
vn -0.103193 -0.994661 -0.000000
vn -0.103193 -0.994661 -0.000000
vn -0.103193 -0.994661 -0.000000
# 30 vertex normals

vt 0.728796 0.749030 1.759000
vt -1.221470 0.749030 1.556665
vt -1.221470 -0.534421 1.556665
vt 0.728794 -0.534421 1.759001
vt 0.282062 -0.534421 0.163198
vt 0.282063 0.930952 0.163198
vt -0.759000 0.749030 0.271204
vt -0.759001 -0.534421 0.271206
vt 0.515602 0.930952 2.113464
vt 0.515602 -0.534421 2.113462
vt 1.556665 -0.534421 2.221470
vt 1.556665 0.749030 2.221470
vt 2.450094 1.566339 0.999499
vt -1.471175 1.526854 0.999501
vt -1.450095 -0.566342 0.000502
vt 2.471173 -0.526857 0.000500
# 16 texture coords

g Vene_10_2
usemtl Vene_10_2_paekivi
s off
f -2/-16/-30 -1/-15/-29 -4/-14/-28 
f -4/-14/-27 -3/-13/-26 -2/-16/-25 
f -7/-12/-24 -6/-11/-23 -2/-10/-22 
f -2/-10/-21 -3/-9/-20 -7/-12/-19 
usemtl Vene_10_2_katus
f -6/-4/-18 -5/-3/-17 -1/-2/-16 
f -1/-2/-15 -2/-1/-14 -6/-4/-13 
usemtl Vene_10_2_paekivi
f -5/-8/-12 -8/-7/-11 -4/-6/-10 
f -4/-6/-9 -1/-5/-8 -5/-8/-7 
usemtl xxx
s 1
f -5/-13/-6 -6/-14/-5 -7/-15/-4 
f -7/-15/-3 -8/-16/-2 -5/-13/-1 
# 10 faces

