# 3ds Max Wavefront OBJ Exporter v0.97b - (c)2007 guruware
# File Created: 26.03.2012 11:21:41

mtllib Pikk_68_2.mtl

#
# object Pikk_68_2
#

v  247.3797 538.5652 18.1092
v  247.3396 543.4918 17.0905
v  233.4893 544.0276 17.0727
v  232.1251 536.4210 18.5373
v  244.6732 532.7365 19.2345
v  242.0632 534.9872 18.7844
v  243.1698 533.1751 19.1496
v  243.2384 532.7770 19.3631
v  246.7989 543.4677 13.4935
v  233.5014 544.0457 13.4757
v  248.6028 538.1606 19.2887
v  248.2578 555.1288 19.2887
v  246.7547 555.0874 21.0164
v  247.0997 538.1192 21.0164
v  246.8457 535.0504 21.0164
v  248.2896 534.3771 19.2887
v  245.7636 531.7557 19.3456
v  244.9795 533.1138 21.0584
v  243.3719 531.2523 19.3962
v  243.2393 532.7669 21.0933
v  248.1993 538.1779 18.3639
v  247.8543 555.1461 18.3639
v  247.8395 555.1174 19.2881
v  248.1845 538.1492 19.2881
v  248.2129 538.2041 17.5429
v  247.8679 555.1723 17.5429
v  248.2337 538.2443 16.3033
v  247.8887 555.2125 16.3033
v  248.2435 538.2311 14.6522
v  247.8985 555.1993 14.6522
v  248.1888 538.2078 11.3494
v  247.8438 555.1760 12.5274
v  247.8997 534.5589 18.3639
v  247.8877 534.5645 19.2881
v  247.9107 534.5538 17.5429
v  247.9275 534.5460 16.3033
v  247.9380 534.5410 14.6522
v  247.8873 534.5648 11.3494
v  245.5518 532.1224 18.4168
v  245.5453 532.1337 19.3408
v  245.5578 532.1121 17.5959
v  245.5669 532.0963 16.3565
v  245.5726 532.0864 14.7054
v  245.5450 532.1342 11.4022
v  243.3361 531.6612 18.4631
v  243.3350 531.6738 19.3871
v  243.3371 531.6497 17.6424
v  243.3385 531.6321 16.4031
v  243.3396 531.6210 14.7522
v  243.3349 531.6743 11.4484
v  246.7447 555.0874 19.2864
v  247.0897 538.1192 19.2864
v  246.7278 555.1194 18.3639
v  247.0728 538.1513 18.3639
v  246.7124 555.1487 17.5429
v  247.0574 538.1805 17.5429
v  246.8360 535.0549 19.2864
v  246.8172 535.0637 18.3639
v  246.8000 535.0717 17.5429
v  244.9742 533.1229 19.3284
v  244.9640 533.1406 18.4056
v  246.6888 543.4200 16.3026
v  246.6888 555.1935 16.3026
v  246.6888 555.1935 14.6516
v  246.6888 543.4200 14.6516
v  246.6888 555.1935 12.5271
v  246.6888 543.4200 12.5271
v  240.1230 535.9059 18.6131
v  238.0576 535.7677 18.6430
v  236.6773 534.8256 18.9278
v  246.8461 534.6960 18.7899
v  243.2355 532.8100 12.6035
# 72 vertices

vn 0.0046 0.1860 0.9825
vn 0.0031 0.1940 0.9810
vn 0.0042 0.2028 0.9792
vn 0.0199 0.2419 0.9701
vn 0.0049 0.1862 0.9825
vn 0.0319 0.2941 0.9553
vn 0.0917 0.4828 0.8709
vn 0.0410 0.9992 -0.0039
vn 0.7544 0.0000 0.6564
vn 0.7537 -0.0624 0.6542
vn 0.5487 -0.5144 0.6590
vn 0.1902 -0.7250 0.6619
vn 0.9999 0.0000 0.0161
vn 0.0015 0.0000 -1.0000
vn 0.9999 0.0000 0.0165
vn 0.9999 0.0000 0.0168
vn 1.0000 0.0000 0.0059
vn 0.9997 0.0000 -0.0257
vn 0.9965 -0.0825 0.0135
vn 0.0015 -0.0001 -1.0000
vn 0.9965 -0.0825 0.0138
vn 0.9965 -0.0825 0.0140
vn 0.9966 -0.0825 0.0066
vn 0.9963 -0.0825 -0.0247
vn 0.7202 -0.6937 0.0136
vn -0.0059 -0.0160 -0.9999
vn 0.7202 -0.6937 0.0139
vn 0.7202 -0.6937 0.0141
vn 0.7201 -0.6938 0.0066
vn 0.7196 -0.6940 -0.0249
vn 0.2339 -0.9722 0.0135
vn -0.0185 -0.0233 -0.9996
vn 0.2339 -0.9722 0.0139
vn 0.2339 -0.9722 0.0141
vn 0.2338 -0.9723 0.0066
vn 0.2330 -0.9722 -0.0249
vn -1.0000 0.0000 0.0058
vn -0.9998 0.0000 0.0183
vn -0.9998 0.0000 0.0188
vn -0.9966 0.0825 0.0058
vn -0.9964 0.0825 0.0211
vn -0.9964 0.0825 0.0216
vn -0.7200 0.6940 0.0058
vn -0.7197 0.6940 0.0213
vn -0.2335 0.9723 0.0058
vn -0.9998 0.0000 0.0190
vn -1.0000 0.0000 0.0000
vn 0.0018 0.1815 0.9834
vn 0.0040 0.1995 0.9799
vn 0.0128 0.2720 0.9622
vn 0.0101 0.1842 0.9828
vn -0.2026 0.9792 0.0068
# 52 vertex normals

vt 2.1197 0.4642 0.4363
vt 2.0656 0.0829 0.0006
vt -0.9872 0.0839 0.0005
vt -1.1476 0.7133 0.6214
vt 1.6881 0.8716 0.9185
vt 1.0523 0.7395 0.7337
vt 1.3458 0.8528 0.8830
vt 1.3574 0.9083 0.9706
vt -4.6881 0.1450 -5.8860
vt 8.5729 -1.2077 -1.0426
vt 8.6285 2.2751 -0.1409
vt -4.6325 3.6278 -4.9843
vt -14.9668 -0.3003 -0.0088
vt 1.6908 -0.3003 -0.0088
vt 1.6494 1.2819 0.9902
vt -15.0082 1.2820 0.9902
vt -0.8533 1.2803 0.9995
vt -1.3983 -0.2956 0.0005
vt 2.3982 -0.2769 0.0005
vt 2.2260 1.2955 0.9995
vt -1.0909 -0.2847 0.0326
vt 2.5494 -0.3156 0.0005
vt 2.0444 1.2751 0.9758
vt -0.6450 1.2979 0.9995
vt -0.6548 -0.2661 0.0294
vt 1.4999 -0.2973 0.0005
vt 1.0756 1.2918 0.9796
vt -0.4091 1.3133 0.9995
vt -1.1848 1.2142 1.2600
vt 4.4712 1.2142 1.1451
vt 4.4616 1.5222 1.1401
vt -1.1944 1.5222 1.2551
vt -0.2551 -1.1944 1.5222
vt -0.1401 4.4616 1.5222
vt -0.2795 4.4655 1.5224
vt -0.3945 -1.1906 1.5224
vt -1.1761 0.9405 1.2646
vt 4.4799 0.9405 1.1496
vt -1.1627 0.5273 1.2715
vt 4.4934 0.5273 1.1565
vt -1.1671 -0.0231 1.2748
vt 4.4890 -0.0231 1.1598
vt -1.1749 -1.1240 1.2565
vt 4.4812 -0.7313 1.1415
vt -2.3912 1.2142 1.1602
vt -2.3893 1.5222 1.1562
vt -0.1562 -2.3893 1.5222
vt -0.2901 -2.4518 1.5224
vt -2.3929 0.9405 1.1638
vt -2.3955 0.5273 1.1694
vt -2.3971 -0.0231 1.1730
vt -2.3892 -1.1240 1.1561
vt -3.2034 1.2318 0.3775
vt -3.1996 1.5398 0.3754
vt 0.5518 -3.3256 1.5414
vt 0.6246 -3.1996 1.5398
vt -3.2068 0.9582 0.3795
vt -3.2120 0.5450 0.3826
vt -3.2153 -0.0053 0.3845
vt -3.1994 -1.1064 0.3753
vt -0.3610 1.2472 -3.3571
vt 0.3775 1.2318 -3.2034
vt 0.3754 1.5398 -3.1996
vt -0.3614 1.5552 -3.3529
vt 1.3491 -3.4934 1.5583
vt 1.3614 -3.3529 1.5552
vt -0.3607 0.9737 -3.3609
vt 0.3795 0.9582 -3.2068
vt -0.3602 0.5606 -3.3668
vt 0.3826 0.5450 -3.2120
vt -0.3598 0.0103 -3.3705
vt 0.3845 -0.0053 -3.2153
vt -0.3614 -1.0910 -3.3527
vt 0.3753 -1.1064 -3.1994
vt 2.2044 2.0983 0.8935
vt -3.4517 2.0983 0.7785
vt -3.4517 1.5217 0.7752
vt 2.2044 1.5217 0.8902
vt -3.4623 1.2142 0.7695
vt 2.1937 1.2142 0.8846
vt -3.4721 0.9405 0.7644
vt 2.1840 0.9405 0.8794
vt 3.2259 1.5217 0.8056
vt 3.2273 2.0983 0.8089
vt 3.2229 1.2142 0.7993
vt 3.2202 0.9405 0.7936
vt 3.8698 1.5357 0.1850
vt 3.8729 2.1123 0.1868
vt 3.8639 1.2281 0.1816
vt 1.3936 1.5472 -2.9852
vt 1.3933 2.1240 -2.9885
vt 0.8132 2.1123 -2.8729
vt 0.8150 1.5357 -2.8698
vt 0.4375 0.5271 0.7565
vt -3.4870 0.5271 0.7565
vt -3.4870 -0.0233 0.7565
vt 0.4375 -0.0233 0.7565
vt -3.4870 -0.7314 0.7565
vt 0.4375 -0.7314 0.7565
vt 0.6008 0.6918 0.6588
vt 0.1512 0.7154 0.6712
vt -0.1245 0.8106 0.7911
vt 2.0824 0.7112 0.7277
vt 1.3945 -0.7060 -2.9742
vt 0.8184 1.2281 -2.8639
# 105 texture coords

g Pikk_68_2
usemtl plekk_v_rvitu
s 1
f 1/1/1 2/2/2 3/3/2 
f 3/3/2 4/4/3 1/1/1 
f 5/5/4 6/6/5 7/7/6 
f 8/8/7 5/5/4 7/7/6 
usemtl krohv_kollane
s off
f 9/9/8 10/10/8 3/11/8 
f 3/11/8 2/12/8 9/9/8 
usemtl kivika
f 11/13/9 12/14/9 13/15/9 
f 13/15/9 14/16/9 11/13/9 
f 15/17/10 16/18/10 11/19/10 
f 11/19/10 14/20/10 15/17/10 
f 17/21/11 16/22/11 15/23/11 
f 15/23/11 18/24/11 17/21/11 
f 19/25/12 17/26/12 18/27/12 
f 18/27/12 20/28/12 19/25/12 
usemtl paek1
f 21/29/13 22/30/13 23/31/13 
f 23/31/13 24/32/13 21/29/13 
f 24/33/14 23/34/14 12/35/14 
f 12/35/14 11/36/14 24/33/14 
f 25/37/15 26/38/15 22/30/15 
f 22/30/15 21/29/15 25/37/15 
f 27/39/16 28/40/16 26/38/16 
f 26/38/16 25/37/16 27/39/16 
f 29/41/17 30/42/17 28/40/17 
f 28/40/17 27/39/17 29/41/17 
f 31/43/18 32/44/18 30/42/18 
f 30/42/18 29/41/18 31/43/18 
f 33/45/19 21/29/19 24/32/19 
f 24/32/19 34/46/19 33/45/19 
f 34/47/20 24/33/20 11/36/20 
f 11/36/20 16/48/20 34/47/20 
f 35/49/21 25/37/21 21/29/21 
f 21/29/21 33/45/21 35/49/21 
f 36/50/22 27/39/22 25/37/22 
f 25/37/22 35/49/22 36/50/22 
f 29/41/23 27/39/23 36/50/23 
f 36/50/23 37/51/23 29/41/23 
f 31/43/24 29/41/24 37/51/24 
f 37/51/24 38/52/24 31/43/24 
f 39/53/25 33/45/25 34/46/25 
f 34/46/25 40/54/25 39/53/25 
f 17/55/26 40/56/26 34/47/26 
f 34/47/26 16/48/26 17/55/26 
f 41/57/27 35/49/27 33/45/27 
f 33/45/27 39/53/27 41/57/27 
f 42/58/28 36/50/28 35/49/28 
f 35/49/28 41/57/28 42/58/28 
f 43/59/29 37/51/29 36/50/29 
f 36/50/29 42/58/29 43/59/29 
f 44/60/30 38/52/30 37/51/30 
f 37/51/30 43/59/30 44/60/30 
f 45/61/31 39/62/31 40/63/31 
f 40/63/31 46/64/31 45/61/31 
f 19/65/32 46/66/32 40/56/32 
f 40/56/32 17/55/32 19/65/32 
f 47/67/33 41/68/33 39/62/33 
f 39/62/33 45/61/33 47/67/33 
f 48/69/34 42/70/34 41/68/34 
f 41/68/34 47/67/34 48/69/34 
f 49/71/35 43/72/35 42/70/35 
f 42/70/35 48/69/35 49/71/35 
f 50/73/36 44/74/36 43/72/36 
f 43/72/36 49/71/36 50/73/36 
f 14/75/37 13/76/37 51/77/37 
f 51/77/37 52/78/37 14/75/37 
f 52/78/38 51/77/38 53/79/38 
f 53/79/38 54/80/38 52/78/38 
f 54/80/39 53/79/39 55/81/39 
f 55/81/39 56/82/39 54/80/39 
f 14/75/40 52/78/40 57/83/40 
f 57/83/40 15/84/40 14/75/40 
f 58/85/41 57/83/41 52/78/41 
f 52/78/41 54/80/41 58/85/41 
f 59/86/42 58/85/42 54/80/42 
f 54/80/42 56/82/42 59/86/42 
f 60/87/43 18/88/43 15/84/43 
f 15/84/43 57/83/43 60/87/43 
f 61/89/44 60/87/44 57/83/44 
f 57/83/44 58/85/44 61/89/44 
f 8/90/45 20/91/45 18/92/45 
f 18/92/45 60/93/45 8/90/45 
f 62/94/46 56/82/46 55/81/46 
f 55/81/46 63/95/46 62/94/46 
f 62/94/47 63/95/47 64/96/47 
f 64/96/47 65/97/47 62/94/47 
f 65/97/47 64/96/47 66/98/47 
f 66/98/47 67/99/47 65/97/47 
usemtl plekk_v_rvitu
s 1
f 68/100/48 6/6/5 1/1/1 
f 1/1/1 4/4/3 69/101/49 
f 68/100/48 1/1/1 69/101/49 
f 69/101/49 4/4/3 70/102/50 
f 6/6/5 71/103/51 1/1/1 
f 6/6/5 5/5/4 71/103/51 
usemtl paek1
s 2
f 72/104/52 8/90/52 60/93/52 
f 60/93/52 61/105/52 72/104/52 
# 0 polygons - 94 triangles

#
# object xxx
#

v  242.0632 534.9872 18.7844
v  240.1230 535.9059 18.6131
v  240.1351 535.9240 13.4757
v  242.0753 535.0052 13.4757
v  238.0576 535.7677 18.6430
v  238.0697 535.7858 13.4757
v  236.6773 534.8256 18.9278
v  236.6894 534.8436 13.4757
v  243.1698 533.1751 19.1496
v  243.1819 533.1932 13.4757
v  243.2384 532.7770 19.3631
v  243.2505 532.7950 13.4757
v  232.1251 536.4210 18.5373
v  233.4893 544.0276 17.0727
v  233.5014 544.0457 13.4757
v  232.1372 536.4391 13.4757
v  243.3350 531.6738 19.3871
v  243.3719 531.2523 19.3962
v  243.2393 532.7669 21.0933
v  243.2355 532.8100 12.6035
v  243.3349 531.6743 11.4484
v  243.3396 531.6210 14.7522
v  243.3385 531.6321 16.4031
v  243.3371 531.6497 17.6424
v  243.3361 531.6612 18.4631
# 25 vertices

vn -0.4277 -0.9039 -0.0042
vn -0.4280 -0.9038 -0.0040
vn 0.0667 -0.9978 -0.0033
vn 0.0668 -0.9978 -0.0034
vn 0.5636 -0.8261 -0.0015
vn 0.5638 -0.8259 -0.0016
vn -0.8531 -0.5217 -0.0037
vn -0.8534 -0.5212 -0.0035
vn -0.9852 -0.1713 -0.0026
vn -0.9854 -0.1700 -0.0025
vn -0.9844 0.1761 -0.0024
vn -0.9843 0.1765 -0.0017
vn -0.3304 -0.9438 -0.0042
vn -0.3308 -0.9437 -0.0039
vn -0.9962 -0.0872 0.0000
vn -0.9962 -0.0872 0.0001
vn -0.9962 -0.0871 0.0000
vn -0.9969 -0.0792 -0.0001
# 18 vertex normals

vt 1.0523 0.7395 0.7337
vt 0.6008 0.6918 0.6588
vt 0.1512 0.7154 0.6712
vt -0.1245 0.8106 0.7911
vt 1.3458 0.8528 0.8830
vt 1.3574 0.9083 0.9706
vt -1.1476 0.7133 0.6214
vt -0.9872 0.0839 0.0005
vt 8.7267 2.6331 0.9544
vt -0.8533 1.2803 0.9995
vt 2.2260 1.2955 0.9995
vt 1.2472 -0.0922 -10.4876
vt 2.1172 2.5935 -10.6964
vt 2.1150 1.7432 -10.7206
vt 2.1155 1.0829 -10.7156
vt 2.1162 0.5872 -10.7076
vt 2.1166 0.2589 -10.7024
vt 2.1171 -0.1107 -10.6965
vt 1.6181 0.9788 -9.2190
# 19 texture coords

g xxx
usemtl krohv_kollane
s off
f 73/106/53 74/107/53 75/107/53 
f 75/107/54 76/106/54 73/106/54 
f 74/107/55 77/108/55 78/108/55 
f 78/108/56 75/107/56 74/107/56 
f 77/108/57 79/109/57 80/109/57 
f 80/109/58 78/108/58 77/108/58 
f 81/110/59 73/106/59 76/106/59 
f 76/106/60 82/110/60 81/110/60 
f 83/111/61 81/110/61 82/110/61 
f 82/110/62 84/111/62 83/111/62 
f 85/112/63 86/113/63 87/113/63 
f 87/113/64 88/112/64 85/112/64 
f 79/109/65 85/112/65 88/112/65 
f 88/112/66 80/109/66 79/109/66 
s 1
f 89/114/67 90/115/68 91/116/67 
f 91/116/67 83/117/69 89/114/67 
s 2
f 92/118/69 93/118/69 94/119/69 
f 94/119/69 95/120/70 96/121/69 
f 92/118/69 94/119/69 96/121/69 
f 97/122/67 89/123/69 83/124/69 
f 96/121/69 97/122/67 83/124/69 
f 92/118/69 96/121/69 83/124/69 
# 0 polygons - 22 triangles

