# 3ds Max Wavefront OBJ Exporter v0.97b - (c)2007 guruware
# File Created: 03.04.2011 11:46:25

mtllib Pikk_64_1.mtl

#
# object Pikk_64_1
#

v  209.5005 489.2929 15.5613
v  209.2841 488.0467 15.5452
v  209.2841 488.0467 16.9985
v  209.5005 489.2929 16.5347
v  210.5015 495.0599 16.9985
v  209.3638 488.0783 16.9985
v  210.5775 495.0457 16.9989
v  210.2803 493.3564 17.4222
v  210.0787 492.1954 17.4222
v  209.6410 487.6427 15.5141
v  209.3826 486.1550 15.5141
v  209.3827 486.1550 19.3602
v  209.6410 487.6427 19.3602
v  209.3638 488.0783 20.5824
v  209.3638 488.0783 19.5560
v  208.9727 485.8261 19.5560
v  209.0664 485.8751 15.5452
v  208.9117 485.9019 15.5452
v  208.9117 485.9019 16.9985
v  209.0664 485.8751 16.9985
v  209.4389 488.0198 16.9985
v  209.4389 488.0198 15.5452
v  208.9727 485.8261 16.9985
v  209.1274 485.7993 16.9985
v  209.5185 488.0515 16.9985
v  209.1274 485.7993 19.5560
v  209.5185 488.0515 19.5560
v  209.3848 487.7088 15.5452
v  209.3848 487.7088 16.9985
v  209.4532 487.6753 16.9985
v  209.1182 486.1732 16.9985
v  209.1948 486.1876 16.9985
v  209.1182 486.1732 15.5452
v  209.4532 487.6753 15.5452
v  209.1948 486.1876 15.5452
v  209.4532 487.6753 19.3602
v  209.1949 486.1876 19.3602
v  209.6735 490.2888 16.5347
v  210.1949 493.2917 15.5452
v  210.1949 493.2917 16.5347
v  210.5058 495.0597 15.5456
v  209.6735 490.2888 15.5613
v  210.0174 492.2694 16.5347
v  210.0174 492.2694 15.5452
v  209.6050 489.2748 15.5613
v  209.6050 489.2748 16.5347
v  209.7780 490.2707 16.5347
v  209.7780 490.2707 15.5613
v  210.1216 492.2513 16.5347
v  210.2991 493.2737 16.5347
v  210.1216 492.2513 15.5452
v  210.2991 493.2737 15.5452
v  209.7717 490.4275 19.4749
v  209.5518 489.1608 19.4749
v  210.2803 493.3564 19.4238
v  210.5773 495.0442 20.5828
v  209.7717 490.4275 17.4355
v  210.0787 492.1954 19.4238
v  210.4469 493.3275 17.4222
v  210.2453 492.1665 17.4222
v  210.2453 492.1665 19.4238
v  210.4469 493.3275 19.4238
v  209.5518 489.1608 17.4355
v  209.9795 490.3914 17.4355
v  209.7596 489.1248 17.4355
v  209.7596 489.1248 19.4749
v  209.9795 490.3914 19.4749
v  208.2767 482.4154 15.5527
v  208.2767 482.4154 16.5347
v  208.3699 482.8744 16.9985
v  208.3699 482.8744 15.5452
v  207.0441 475.5801 16.9985
v  207.1159 475.5667 16.9985
v  208.4337 482.8172 16.9985
v  207.4373 477.3341 17.4222
v  207.6480 478.4935 17.4222
v  208.7705 483.2422 17.4119
v  208.7705 483.2422 19.4144
v  208.9907 484.4502 19.4144
v  208.9907 484.4502 17.4119
v  208.4337 482.8172 20.5824
v  208.8340 485.0199 19.5560
v  208.4337 482.8172 19.5560
v  208.9052 484.9417 15.5452
v  208.9052 484.9417 16.9985
v  208.7507 484.9697 16.9985
v  208.7507 484.9697 15.5452
v  208.5244 482.8463 16.9985
v  208.5244 482.8463 15.5452
v  208.9885 484.9918 16.9985
v  208.8340 485.0199 16.9985
v  208.5882 482.7891 16.9985
v  208.9885 484.9918 19.5560
v  208.5882 482.7891 19.5560
v  208.6730 483.2608 17.4119
v  208.6730 483.2608 19.4144
v  208.8932 484.4688 19.4144
v  208.8932 484.4688 17.4119
v  208.0960 481.4209 16.5347
v  207.7263 479.4414 15.5452
v  207.0442 475.5807 15.5452
v  207.7263 479.4414 16.5347
v  208.0960 481.4209 15.5527
v  207.9036 480.4140 15.5452
v  207.9036 480.4140 16.5347
v  208.3810 482.3964 15.5527
v  208.2003 481.4019 15.5527
v  208.2003 481.4019 16.5347
v  208.3810 482.3964 16.5347
v  208.0076 480.3951 16.5347
v  207.8304 479.4225 16.5347
v  208.0076 480.3951 15.5452
v  207.8304 479.4225 15.5452
v  207.9720 480.2776 19.4154
v  208.1928 481.4897 19.4154
v  207.1156 475.5652 20.5824
v  207.4373 477.3341 19.4238
v  207.6480 478.4935 19.4238
v  207.9720 480.2776 17.4355
v  207.6036 477.3038 17.4222
v  207.6036 477.3038 19.4238
v  207.8143 478.4632 19.4238
v  207.8143 478.4632 17.4222
v  208.1928 481.4897 17.4355
v  208.1386 480.2469 17.4355
v  208.1386 480.2469 19.4154
v  208.3594 481.4590 19.4154
v  208.3594 481.4590 17.4355
v  210.4009 495.0770 21.0020
v  206.9435 475.5972 21.0020
v  210.6015 495.0394 21.1153
v  207.1397 475.5605 21.1149
v  210.6875 495.0207 27.3630
v  207.2256 475.5417 27.3626
v  210.6051 495.0361 27.3851
v  207.1477 475.5563 27.3851
v  210.6051 495.0359 27.7565
v  207.1477 475.5562 27.7565
v  210.3565 495.0824 27.8366
v  206.8990 475.6026 27.8366
v  210.0540 495.1389 28.2112
v  206.5966 475.6591 28.2112
v  216.0632 482.2267 32.1414
v  218.1157 493.6290 32.1418
v  231.4029 483.3807 27.4766
v  228.7441 474.7455 27.5033
v  228.7409 474.7413 15.3790
v  231.4023 483.3810 15.3763
v  227.4084 474.1564 15.4079
v  227.4112 474.1548 27.5213
v  218.2840 476.9709 15.3647
v  218.2899 476.9693 27.4067
v  230.6249 484.1974 27.4885
v  230.6234 484.2037 15.3564
v  228.3840 484.8887 27.5199
v  228.4467 484.8600 15.3462
v  230.1722 490.2867 27.5038
v  230.1254 490.2961 15.1798
v  226.0254 492.1564 15.4515
v  226.0562 492.1446 29.7191
v  218.6860 475.9735 28.1410
v  214.6563 474.1496 32.1417
v  218.2651 473.4762 28.1392
v  230.4634 490.1988 28.2111
v  229.3107 475.4235 28.2009
v  229.0714 474.6464 28.2004
v  227.3451 473.7038 28.1995
v  218.8590 476.3226 28.2005
v  231.7302 483.2817 28.2065
v  230.7596 484.6064 28.2074
v  228.8014 485.2107 28.2076
v  221.0252 482.0029 30.6509
v  227.8092 479.6808 30.6829
v  217.6052 473.6051 15.3624
v  217.6093 473.5992 27.4043
v  210.2908 493.5804 20.9140
v  210.0081 491.9863 20.9138
v  210.0409 491.9799 23.4716
v  210.3235 493.5740 23.4718
v  210.3127 491.9291 23.4717
v  210.2800 491.9355 20.9139
v  210.5626 493.5295 20.9140
v  210.5954 493.5231 23.4719
v  210.5988 493.5434 24.3685
v  210.1516 493.6273 23.8931
v  209.8534 491.9498 23.8929
v  210.3006 491.8659 24.3683
v  210.3029 493.4640 23.5888
v  210.0614 492.0898 23.5887
v  210.5748 493.4131 23.5889
v  210.3333 492.0389 23.5888
v  210.3080 493.4918 23.7065
v  210.0561 492.0620 23.7064
v  210.5799 493.4409 23.7066
v  210.3280 492.0111 23.7065
v  210.2234 493.5076 23.7065
v  209.9715 492.0778 23.7064
v  210.5990 493.5435 23.8901
v  210.3008 491.8660 23.9224
v  210.3229 493.5727 24.7733
v  210.0403 491.9787 24.7731
v  210.0732 491.9724 26.9924
v  210.3558 493.5664 26.9926
v  210.3450 491.9215 26.9925
v  210.3121 491.9278 24.7732
v  210.5948 493.5218 24.7734
v  210.6276 493.5156 26.9927
v  210.5529 493.6223 24.6890
v  210.2368 491.8494 24.6886
v  209.9861 491.8963 24.6885
v  210.3021 493.6691 24.6889
v  210.1975 491.7826 24.8136
v  209.9150 491.8355 24.8135
v  210.2578 493.7515 24.8139
v  210.5404 493.6986 24.8140
v  210.3600 493.5483 24.5879
v  210.3192 493.3237 24.5882
v  210.3057 493.6325 24.7276
v  210.3444 493.5699 24.4531
v  210.2973 493.3094 24.4535
v  210.4459 493.6063 24.7277
v  210.4491 493.5316 24.5880
v  210.4525 493.5496 24.4532
v  210.4038 493.2895 24.4536
v  210.4071 493.3073 24.5882
v  210.1171 492.1844 24.5873
v  210.0763 491.9598 24.5876
v  209.9951 491.9009 24.7272
v  210.1024 492.2112 24.4696
v  210.0535 491.9403 24.4700
v  210.1642 491.9434 24.5876
v  210.1343 491.8749 24.7273
v  210.2062 492.1678 24.5874
v  210.2106 492.1909 24.4696
v  210.1600 491.9204 24.4700
v  209.7605 490.6286 20.9127
v  209.4779 489.0346 20.9125
v  209.5106 489.0282 23.4704
v  209.7932 490.6223 23.4706
v  209.7825 488.9774 23.4705
v  209.7497 488.9837 20.9126
v  210.0324 490.5778 20.9128
v  210.0651 490.5714 23.4707
v  210.0686 490.5916 24.3673
v  209.6214 490.6756 23.8919
v  209.3231 488.9980 23.8917
v  209.7703 488.9142 24.3671
v  209.7726 490.5123 23.5876
v  209.5311 489.1381 23.5875
v  210.0445 490.4614 23.5877
v  209.8030 489.0872 23.5876
v  209.7778 490.5401 23.7053
v  209.5259 489.1103 23.7052
v  210.0497 490.4892 23.7054
v  209.7977 489.0594 23.7053
v  209.6931 490.5559 23.7053
v  209.4412 489.1261 23.7051
v  210.0688 490.5918 23.8888
v  209.7705 488.9143 23.9211
v  209.7926 490.6210 24.7720
v  209.5100 489.0269 24.7719
v  209.5429 489.0207 26.9911
v  209.8255 490.6147 26.9913
v  209.8148 488.9698 26.9912
v  209.7819 488.9761 24.7719
v  210.0645 490.5701 24.7721
v  210.0974 490.5638 26.9914
v  210.0226 490.6705 24.6877
v  209.7065 488.8977 24.6873
v  209.4558 488.9446 24.6872
v  209.7719 490.7174 24.6876
v  209.6673 488.8309 24.8124
v  209.3847 488.8838 24.8123
v  209.7276 490.7997 24.8127
v  210.0101 490.7469 24.8128
v  209.8298 490.5966 24.5867
v  209.7889 490.3720 24.5869
v  209.7754 490.6808 24.7264
v  209.8141 490.6181 24.4519
v  209.7671 490.3577 24.4523
v  209.9157 490.6546 24.7264
v  209.9189 490.5799 24.5867
v  209.9223 490.5979 24.4519
v  209.8736 490.3377 24.4523
v  209.8769 490.3555 24.5870
v  209.5869 489.2327 24.5861
v  209.5460 489.0081 24.5864
v  209.4649 488.9492 24.7260
v  209.5722 489.2594 24.4683
v  209.5232 488.9886 24.4687
v  209.6340 488.9916 24.5864
v  209.6040 488.9232 24.7260
v  209.6760 489.2160 24.5861
v  209.6803 489.2392 24.4683
v  209.6297 488.9687 24.4688
v  209.2411 487.7932 20.9115
v  208.9585 486.1992 20.9113
v  208.9912 486.1928 23.4692
v  209.2739 487.7868 23.4694
v  209.2631 486.1419 23.4693
v  209.2304 486.1483 20.9114
v  209.5130 487.7423 20.9116
v  209.5457 487.7360 23.4695
v  209.5492 487.7562 24.3661
v  209.1020 487.8401 23.8907
v  208.8037 486.1626 23.8905
v  209.2509 486.0787 24.3659
v  209.2533 487.6769 23.5864
v  209.0117 486.3027 23.5863
v  209.5251 487.6260 23.5865
v  209.2836 486.2518 23.5864
v  209.2584 487.7047 23.7041
v  209.0065 486.2748 23.7040
v  209.5303 487.6538 23.7042
v  209.2784 486.2240 23.7041
v  209.1737 487.7205 23.7041
v  208.9218 486.2907 23.7039
v  209.5494 487.7564 23.8876
v  209.2511 486.0789 23.9199
v  209.2733 487.7856 24.7708
v  208.9906 486.1915 24.7707
v  209.0235 486.1853 26.9899
v  209.3061 487.7793 26.9901
v  209.2954 486.1344 26.9900
v  209.2625 486.1407 24.7708
v  209.5451 487.7347 24.7709
v  209.5780 487.7284 26.9902
v  209.5032 487.8351 24.6865
v  209.1872 486.0623 24.6861
v  208.9364 486.1092 24.6860
v  209.2525 487.8820 24.6864
v  209.1479 485.9955 24.8112
v  208.8654 486.0484 24.8111
v  209.2082 487.9643 24.8115
v  209.4907 487.9115 24.8116
v  209.3104 487.7612 24.5855
v  209.2695 487.5366 24.5857
v  209.2560 487.8454 24.7252
v  209.2947 487.7827 24.4507
v  209.2477 487.5222 24.4511
v  209.3963 487.8192 24.7252
v  209.3995 487.7445 24.5855
v  209.4029 487.7625 24.4507
v  209.3542 487.5023 24.4511
v  209.3575 487.5201 24.5858
v  209.0675 486.3973 24.5849
v  209.0266 486.1727 24.5852
v  208.9455 486.1138 24.7248
v  209.0528 486.4240 24.4671
v  209.0038 486.1532 24.4675
v  209.1146 486.1562 24.5852
v  209.0846 486.0877 24.7248
v  209.1566 486.3806 24.5849
v  209.1610 486.4038 24.4671
v  209.1103 486.1332 24.4676
v  208.6944 484.7582 20.9102
v  208.4118 483.1642 20.9100
v  208.4445 483.1578 23.4679
v  208.7272 484.7519 23.4681
v  208.7164 483.1070 23.4680
v  208.6837 483.1133 20.9101
v  208.9663 484.7074 20.9103
v  208.9990 484.7010 23.4682
v  209.0025 484.7213 24.3648
v  208.5553 484.8052 23.8894
v  208.2570 483.1277 23.8892
v  208.7042 483.0438 24.3646
v  208.7065 484.6419 23.5851
v  208.4650 483.2677 23.5850
v  208.9784 484.5910 23.5852
v  208.7369 483.2168 23.5851
v  208.7117 484.6697 23.7028
v  208.4598 483.2399 23.7027
v  208.9836 484.6188 23.7029
v  208.7317 483.1890 23.7028
v  208.6270 484.6855 23.7028
v  208.3751 483.2557 23.7027
v  209.0027 484.7214 23.8864
v  208.7044 483.0439 23.9187
v  208.7265 484.7506 24.7696
v  208.4439 483.1566 24.7694
v  208.4768 483.1503 26.9887
v  208.7594 484.7443 26.9888
v  208.7487 483.0994 26.9888
v  208.7158 483.1057 24.7695
v  208.9984 484.6997 24.7697
v  209.0313 484.6935 26.9889
v  208.9565 484.8001 24.6852
v  208.6405 483.0273 24.6848
v  208.3897 483.0742 24.6848
v  208.7058 484.8470 24.6851
v  208.6012 482.9605 24.8099
v  208.3186 483.0134 24.8098
v  208.6615 484.9294 24.8102
v  208.9440 484.8765 24.8103
v  208.7637 484.7262 24.5842
v  208.7228 484.5016 24.5845
v  208.7093 484.8104 24.7239
v  208.7480 484.7477 24.4494
v  208.7010 484.4873 24.4498
v  208.8496 484.7842 24.7239
v  208.8528 484.7095 24.5842
v  208.8562 484.7275 24.4495
v  208.8075 484.4673 24.4499
v  208.8108 484.4851 24.5845
v  208.5208 483.3623 24.5836
v  208.4799 483.1377 24.5839
v  208.3988 483.0788 24.7235
v  208.5061 483.3890 24.4658
v  208.4571 483.1182 24.4662
v  208.5679 483.1212 24.5839
v  208.5379 483.0528 24.7236
v  208.6099 483.3456 24.5837
v  208.6143 483.3688 24.4659
v  208.5636 483.0983 24.4663
v  208.1515 481.7009 20.9089
v  207.8689 480.1069 20.9088
v  207.9017 480.1005 23.4666
v  208.1843 481.6945 23.4668
v  208.1735 480.0497 23.4667
v  208.1408 480.0560 20.9089
v  208.4234 481.6501 20.9090
v  208.4561 481.6437 23.4669
v  208.4596 481.6639 24.3635
v  208.0124 481.7479 23.8881
v  207.7141 480.0703 23.8879
v  208.1614 479.9865 24.3633
v  208.1637 481.5846 23.5838
v  207.9222 480.2104 23.5837
v  208.4355 481.5337 23.5839
v  208.1940 480.1595 23.5838
v  208.1688 481.6124 23.7015
v  207.9169 480.1826 23.7014
v  208.4407 481.5615 23.7016
v  208.1888 480.1317 23.7015
v  208.0842 481.6282 23.7015
v  207.8322 480.1984 23.7014
v  208.4598 481.6641 23.8851
v  208.1616 479.9866 23.9174
v  208.1837 481.6933 24.7683
v  207.9010 480.0992 24.7681
v  207.9339 480.0930 26.9874
v  208.2166 481.6870 26.9876
v  208.2058 480.0421 26.9875
v  208.1729 480.0484 24.7682
v  208.4555 481.6424 24.7684
v  208.4884 481.6361 26.9877
v  208.4137 481.7428 24.6840
v  208.0976 479.9700 24.6836
v  207.8468 480.0169 24.6835
v  208.1629 481.7897 24.6839
v  208.0583 479.9032 24.8086
v  207.7758 479.9561 24.8085
v  208.1186 481.8720 24.8089
v  208.4011 481.8192 24.8090
v  208.2208 481.6689 24.5829
v  208.1799 481.4443 24.5832
v  208.1664 481.7531 24.7226
v  208.2051 481.6904 24.4481
v  208.1581 481.4300 24.4485
v  208.3067 481.7269 24.7227
v  208.3099 481.6522 24.5830
v  208.3133 481.6702 24.4482
v  208.2646 481.4100 24.4486
v  208.2679 481.4278 24.5832
v  207.9779 480.3050 24.5823
v  207.9371 480.0804 24.5826
v  207.8559 480.0215 24.7222
v  207.9632 480.3317 24.4645
v  207.9142 480.0609 24.4650
v  208.0250 480.0639 24.5826
v  207.9951 479.9955 24.7223
v  208.0670 480.2883 24.5824
v  208.0714 480.3115 24.4646
v  208.0208 480.0410 24.4650
v  207.6430 478.7045 20.9077
v  207.3604 477.1105 20.9075
v  207.3931 477.1041 23.4654
v  207.6757 478.6982 23.4656
v  207.6650 477.0533 23.4655
v  207.6322 477.0596 20.9076
v  207.9149 478.6537 20.9078
v  207.9476 478.6473 23.4656
v  207.9511 478.6675 24.3623
v  207.5038 478.7515 23.8869
v  207.2056 477.0739 23.8867
v  207.6528 476.9901 24.3620
v  207.6551 478.5882 23.5826
v  207.4136 477.2140 23.5825
v  207.9270 478.5373 23.5827
v  207.6855 477.1631 23.5826
v  207.6603 478.6160 23.7003
v  207.4084 477.1862 23.7002
v  207.9321 478.5651 23.7004
v  207.6802 477.1353 23.7003
v  207.5756 478.6318 23.7003
v  207.3237 477.2020 23.7001
v  207.9513 478.6677 23.8838
v  207.6530 476.9902 23.9161
v  207.6751 478.6969 24.7670
v  207.3925 477.1028 24.7668
v  207.4254 477.0966 26.9861
v  207.7080 478.6906 26.9863
v  207.6973 477.0457 26.9862
v  207.6644 477.0520 24.7669
v  207.9470 478.6460 24.7671
v  207.9799 478.6397 26.9864
v  207.9051 478.7464 24.6827
v  207.5890 476.9736 24.6823
v  207.3383 477.0205 24.6822
v  207.6544 478.7933 24.6826
v  207.5497 476.9068 24.8073
v  207.2672 476.9597 24.8072
v  207.6101 478.8756 24.8077
v  207.8926 478.8228 24.8078
v  207.7123 478.6725 24.5817
v  207.6714 478.4479 24.5819
v  207.6579 478.7567 24.7214
v  207.6966 478.6940 24.4469
v  207.6496 478.4336 24.4473
v  207.7982 478.7305 24.7214
v  207.8013 478.6558 24.5817
v  207.8048 478.6738 24.4469
v  207.7561 478.4136 24.4473
v  207.7594 478.4314 24.5820
v  207.4694 477.3086 24.5811
v  207.4285 477.0840 24.5814
v  207.3474 477.0251 24.7210
v  207.4547 477.3353 24.4633
v  207.4057 477.0645 24.4637
v  207.5165 477.0675 24.5814
v  207.4865 476.9991 24.7210
v  207.5585 477.2919 24.5811
v  207.5628 477.3151 24.4633
v  207.5122 477.0446 24.4637
v  218.3694 474.0525 28.7534
v  214.7567 474.7267 32.6935
v  214.6780 474.2668 32.6936
v  218.2868 473.5934 28.7532
v  206.6914 476.2373 28.5264
v  206.6184 475.7764 28.5268
v  217.9464 474.1285 28.3527
v  217.8636 473.6694 28.3526
v  214.5977 474.2823 31.9310
v  206.8810 475.7325 28.0030
v  206.9539 476.1935 28.0025
v  214.6764 474.7422 31.9307
v  217.9450 492.6882 32.6169
v  218.0713 493.3923 32.6169
v  210.0344 495.0347 28.6863
v  209.9084 494.3152 28.6864
v  225.9943 491.8147 30.1941
v  225.7110 491.2057 30.2445
v  230.2639 489.5927 28.6859
v  230.4591 490.1765 28.6863
v  210.4275 494.9651 27.8533
v  218.1373 493.3811 31.7580
v  225.7286 491.8736 29.3115
v  230.1902 490.2545 27.8061
v  229.9933 489.6716 27.8063
v  225.4434 491.2654 29.3625
v  218.0110 492.6770 31.7580
v  210.3016 494.2455 27.8535
v  214.6461 484.1577 30.4545
v  214.6787 484.1513 33.1864
v  214.5875 483.5804 33.1866
v  214.5549 483.5869 30.4547
v  213.7833 484.2955 30.4663
v  213.6921 483.7247 30.4665
v  213.7248 483.7183 33.1984
v  213.8160 484.2891 33.1982
v  214.6637 494.2166 29.7598
v  214.6961 494.2100 33.0071
v  214.6127 493.6808 33.0074
v  214.5803 493.6874 29.7601
v  214.0954 494.2993 29.7717
v  214.0119 493.7701 29.7720
v  214.0444 493.7635 33.0193
v  214.1278 494.2928 33.0190
v  225.2086 491.1508 29.5157
v  225.2470 491.1433 32.7008
v  225.1489 490.5207 32.7011
v  225.1104 490.5282 29.5160
v  224.5399 491.2482 29.5297
v  224.4418 490.6255 29.5300
v  224.4802 490.6180 32.7151
v  224.5784 491.2406 32.7148
v  219.3203 492.8925 30.4840
v  219.3587 492.8849 33.7434
v  218.9837 490.7824 33.7431
v  218.9453 490.7899 30.4836
v  218.6517 492.9898 30.4980
v  218.2767 490.8873 30.4976
v  218.3151 490.8798 33.7571
v  218.6901 492.9822 33.7574
v  214.6890 479.8401 30.1065
v  214.7274 479.8326 33.3659
v  214.3181 477.5464 33.3655
v  214.2796 477.5540 30.1061
v  214.0203 479.9374 30.1205
v  213.6110 477.6513 30.1201
v  213.6494 477.6438 33.3795
v  214.0587 479.9299 33.3799
v  217.8795 486.6561 31.0590
v  217.9121 486.6496 33.9193
v  217.8209 486.0788 33.9195
v  217.7883 486.0853 31.0592
v  217.2886 486.7430 31.0709
v  217.1974 486.1722 31.0711
v  217.2300 486.1657 33.9314
v  217.3212 486.7366 33.9312
v  219.4725 479.9131 29.4993
v  219.5050 479.9066 32.4145
v  219.4138 479.3358 32.4148
v  219.3813 479.3423 29.4996
v  218.8815 480.0001 29.5112
v  218.7903 479.4292 29.5115
v  218.8229 479.4227 32.4267
v  218.9141 479.9936 32.4264
v  221.9997 481.4380 29.5009
v  222.0321 481.4313 32.9291
v  221.9409 480.8604 32.9293
v  221.9085 480.8671 29.5011
v  220.9239 481.6156 29.5126
v  220.8327 481.0448 29.5129
v  220.8650 481.0381 32.9411
v  220.9562 481.6089 32.9408
v  224.7974 480.3605 29.5013
v  224.8307 480.3473 32.9295
v  224.6396 479.8017 32.9297
v  224.6063 479.8149 29.5015
v  223.7701 480.7262 29.5139
v  223.5791 480.1806 29.5141
v  223.6124 480.1674 32.9423
v  223.8034 480.7130 32.9421
v  226.5588 479.3331 29.4919
v  226.5921 479.3198 33.0510
v  226.2221 478.3453 33.0510
v  226.1888 478.3586 29.4920
v  225.5316 479.6988 29.5046
v  225.1616 478.7243 29.5046
v  225.1948 478.7110 33.0637
v  225.5648 479.6855 33.0636
v  227.2038 484.1577 28.4413
v  227.2145 484.1890 31.8695
v  227.7693 484.0264 31.8698
v  227.7586 483.9952 28.4416
v  226.8917 483.1129 28.4531
v  227.4465 482.9504 28.4533
v  227.4572 482.9816 31.8815
v  226.9024 483.1442 31.8813
v  221.4263 485.9633 30.4824
v  221.4647 485.9557 33.7841
v  221.0443 483.6102 33.7837
v  221.0059 483.6177 30.4820
v  218.6357 486.4576 30.4957
v  218.2152 484.1121 30.4953
v  218.2536 484.1045 33.7970
v  218.6741 486.4500 33.7974
v  221.2457 483.3080 33.7399
v  217.9586 483.8891 33.7561
v  218.4727 486.7522 33.7567
v  221.7598 486.1712 33.7404
v  219.5933 484.8704 34.2993
v  219.6651 485.2707 34.2994
v  220.0528 484.7892 34.2971
v  220.1247 485.1895 34.2971
v  219.7948 484.9914 34.7304
v  219.8121 485.0877 34.7304
v  219.9055 484.9718 34.7298
v  219.9228 485.0682 34.7299
v  230.4000 478.9633 30.2431
v  231.5035 482.5454 28.2060
v  229.2620 474.5892 28.2000
v  230.5904 478.9059 30.7006
v  229.3006 476.3287 24.8674
v  229.6674 477.5500 24.8614
v  229.6735 477.5578 26.8430
v  229.3066 476.3365 26.8490
v  229.4655 477.6225 26.8464
v  229.4594 477.6146 24.8648
v  229.0925 476.3934 24.8707
v  229.0986 476.4012 26.8524
v  229.1139 476.3110 24.7299
v  229.5233 477.6691 24.7231
v  229.7151 477.6095 24.7200
v  229.3058 476.2514 24.7268
v  229.5628 477.7177 24.8950
v  229.7790 477.6505 24.8915
v  229.3356 476.1829 24.8988
v  229.1194 476.2501 24.9023
v  229.9325 478.4102 24.8939
v  230.2993 479.6315 24.8879
v  230.3054 479.6393 26.8696
v  229.9386 478.4180 26.8755
v  230.0974 479.7039 26.8729
v  230.0913 479.6961 24.8913
v  229.7245 478.4749 24.8973
v  229.7305 478.4827 26.8789
v  229.7459 478.3925 24.7564
v  230.1552 479.7506 24.7496
v  230.3471 479.6909 24.7465
v  229.9377 478.3329 24.7533
v  230.1948 479.7992 24.9215
v  230.4109 479.7320 24.9180
v  229.9675 478.2644 24.9254
v  229.7514 478.3316 24.9289
v  230.5546 480.4596 24.9200
v  230.9214 481.6809 24.9141
v  230.9275 481.6887 26.8957
v  230.5606 480.4675 26.9016
v  230.7195 481.7534 26.8991
v  230.7134 481.7455 24.9174
v  230.3465 480.5243 24.9234
v  230.3526 480.5321 26.9050
v  230.3679 480.4419 24.7825
v  230.7773 481.8000 24.7757
v  230.9691 481.7404 24.7726
v  230.5598 480.3823 24.7794
v  230.8168 481.8487 24.9476
v  231.0330 481.7814 24.9441
v  230.5896 480.3138 24.9515
v  230.3734 480.3810 24.9550
v  229.2984 476.3217 21.2067
v  229.6653 477.5430 21.2007
v  229.6713 477.5508 23.1823
v  229.3045 476.3296 23.1883
v  229.4633 477.6155 23.1857
v  229.4572 477.6077 21.2041
v  229.0904 476.3864 21.2100
v  229.0965 476.3942 23.1917
v  229.1118 476.3040 21.0692
v  229.5211 477.6621 21.0624
v  229.7130 477.6025 21.0593
v  229.3036 476.2444 21.0661
v  229.5607 477.7108 21.2343
v  229.7769 477.6436 21.2308
v  229.3334 476.1759 21.2381
v  229.1173 476.2431 21.2416
v  229.9304 478.4032 21.2332
v  230.2972 479.6245 21.2272
v  230.3033 479.6323 23.2089
v  229.9364 478.4111 23.2148
v  230.0953 479.6970 23.2122
v  230.0892 479.6891 21.2306
v  229.7224 478.4679 21.2366
v  229.7284 478.4757 23.2182
v  229.7438 478.3855 21.0957
v  230.1531 479.7436 21.0889
v  230.3450 479.6840 21.0858
v  229.9356 478.3259 21.0926
v  230.1927 479.7923 21.2608
v  230.4088 479.7250 21.2573
v  229.9654 478.2574 21.2647
v  229.7493 478.3246 21.2682
v  230.5524 480.4527 21.2593
v  230.9193 481.6740 21.2534
v  230.9253 481.6817 23.2350
v  230.5585 480.4605 23.2409
v  230.7173 481.7464 23.2384
v  230.7112 481.7386 21.2567
v  230.3444 480.5173 21.2627
v  230.3504 480.5251 23.2443
v  230.3658 480.4349 21.1218
v  230.7751 481.7931 21.1150
v  230.9670 481.7334 21.1119
v  230.5576 480.3753 21.1187
v  230.8147 481.8417 21.2869
v  231.0309 481.7745 21.2834
v  230.5874 480.3069 21.2908
v  230.3713 480.3741 21.2943
v  229.2840 476.2964 17.5592
v  229.6508 477.5177 17.5532
v  229.6569 477.5255 19.5349
v  229.2900 476.3043 19.5408
v  229.4489 477.5902 19.5382
v  229.4428 477.5823 17.5566
v  229.0760 476.3611 17.5625
v  229.0820 476.3689 19.5442
v  229.0974 476.2787 17.4217
v  229.5067 477.6368 17.4149
v  229.6986 477.5772 17.4118
v  229.2892 476.2191 17.4186
v  229.5463 477.6855 17.5868
v  229.7624 477.6182 17.5833
v  229.3190 476.1506 17.5907
v  229.1029 476.2178 17.5942
v  229.9221 478.3760 17.5857
v  230.2890 479.5973 17.5798
v  230.2950 479.6051 19.5614
v  229.9282 478.3839 19.5673
v  230.0870 479.6698 19.5647
v  230.0809 479.6620 17.5831
v  229.7141 478.4407 17.5891
v  229.7202 478.4485 19.5707
v  229.7355 478.3583 17.4482
v  230.1449 479.7164 17.4414
v  230.3367 479.6568 17.4383
v  229.9274 478.2987 17.4451
v  230.1844 479.7651 17.6133
v  230.4006 479.6978 17.6098
v  229.9571 478.2302 17.6172
v  229.7410 478.2974 17.6207
v  230.5575 480.4215 17.6118
v  230.9243 481.6428 17.6058
v  230.9304 481.6505 19.5875
v  230.5636 480.4293 19.5934
v  230.7224 481.7152 19.5908
v  230.7163 481.7074 17.6092
v  230.3495 480.4861 17.6152
v  230.3555 480.4940 19.5968
v  230.3709 480.4037 17.4743
v  230.7802 481.7619 17.4675
v  230.9721 481.7022 17.4644
v  230.5627 480.3441 17.4712
v  230.8198 481.8105 17.6394
v  231.0359 481.7433 17.6359
v  230.5925 480.2757 17.6433
v  230.3764 480.3429 17.6468
v  231.9208 483.2244 28.2062
v  230.5905 478.9061 30.2427
v  231.6941 482.4881 28.2057
v  229.5013 475.3662 28.2006
v  208.9668 485.7565 24.6565
v  208.9668 485.7565 23.9205
v  208.8649 485.1664 23.9205
v  208.8649 485.1664 24.6565
v  208.9276 485.7633 20.4424
v  208.9276 485.7633 19.7064
v  208.8256 485.1731 19.7064
v  208.8256 485.1731 20.4424
# 831 vertices

vn -0.9853 0.1711 0.0000
vn -0.9853 0.1711 -0.0000
vn -0.0047 0.0008 1.0000
vn -0.0000 0.0000 1.0000
vn -0.9851 0.1719 -0.0055
vn -0.9849 0.1730 -0.0010
vn -0.9852 0.1710 -0.0063
vn -0.9852 0.1714 -0.0008
vn -0.9855 0.1696 0.0021
vn 0.1710 0.9853 0.0000
vn -0.1710 -0.9853 0.0000
vn 0.0000 0.0000 1.0000
vn 0.0000 0.0000 -1.0000
vn -0.4396 -0.8982 0.0000
vn -0.1836 0.9830 0.0000
vn 0.1710 0.9853 -0.0000
vn -0.9851 0.1718 -0.0013
vn -0.9853 0.1710 -0.0006
vn -0.9851 0.1722 -0.0018
vn -0.9849 0.1732 -0.0030
vn -0.9853 0.1710 -0.0005
vn 0.1712 0.9852 0.0000
vn -0.1712 -0.9852 0.0000
vn -0.9853 0.1711 -0.0002
vn -0.9851 0.1721 0.0018
vn -0.9850 0.1726 0.0009
vn -0.9852 0.1714 -0.0019
vn -0.9852 0.1714 0.0013
vn -0.9852 0.1712 -0.0003
vn -0.9800 0.1989 0.0000
vn -0.9820 0.1888 0.0103
vn -0.9818 0.1896 0.0103
vn -0.0000 -0.0000 1.0000
vn -0.9839 0.1789 0.0003
vn -0.9839 0.1787 0.0009
vn -0.9839 0.1789 0.0001
vn -0.9838 0.1793 0.0000
vn -0.9840 0.1782 -0.0014
vn -0.9850 0.1727 -0.0051
vn -0.9839 0.1788 -0.0001
vn -0.1788 -0.9839 0.0000
vn 0.1788 0.9839 0.0000
vn -0.1790 -0.9839 0.0000
vn 0.1790 0.9839 0.0000
vn -0.9839 0.1788 0.0000
vn -0.9840 0.1779 -0.0010
vn -0.9841 0.1778 -0.0010
vn -0.9842 0.1773 0.0012
vn -0.9840 0.1781 0.0038
vn -0.9838 0.1793 0.0003
vn -0.9838 0.1792 -0.0003
vn -0.9823 0.1871 -0.0037
vn -0.9847 0.1740 -0.0000
vn -0.9847 0.1744 0.0031
vn -0.9837 0.1773 0.0291
vn -0.9822 0.1877 0.0000
vn -0.9830 0.1821 0.0252
vn -0.1787 -0.9839 0.0000
vn 0.1790 0.9838 0.0000
vn 0.1789 0.9839 0.0000
vn -0.9839 0.1787 0.0002
vn -0.9838 0.1790 -0.0043
vn -0.9839 0.1789 -0.0001
vn -0.1791 -0.9838 0.0000
vn -0.9839 0.1790 0.0013
vn -0.9839 0.1786 0.0002
vn -0.9838 0.1792 0.0000
vn -0.1811 -0.9835 0.0000
vn 0.1813 0.9834 0.0000
vn -0.9854 0.1702 0.0000
vn -0.9855 0.1695 0.0000
vn -0.1875 -0.9823 0.0000
vn 0.1875 0.9823 -0.0000
vn -0.8917 0.1576 -0.4244
vn -0.9049 0.1578 -0.3952
vn -0.9057 0.1578 -0.3935
vn -0.9080 0.1650 -0.3850
vn -0.9071 0.1647 -0.3873
vn -0.8848 0.1571 -0.4387
vn -0.4780 0.0848 0.8743
vn -0.4779 0.0848 0.8743
vn -0.4847 0.0861 0.8704
vn -0.9845 0.1750 0.0141
vn -0.9845 0.1750 0.0140
vn -0.2518 0.0448 -0.9667
vn -0.2691 0.0478 -0.9619
vn -0.2692 0.0478 -0.9619
vn -0.9846 0.1748 0.0000
vn -0.9846 0.1748 -0.0000
vn -0.2971 0.0527 -0.9534
vn -0.7608 0.1350 -0.6347
vn -0.4262 0.0755 0.9015
vn -0.4253 0.0765 0.9018
vn -0.4259 0.0762 0.9015
vn 0.9557 -0.2943 -0.0001
vn 0.9557 -0.2944 -0.0001
vn 0.4022 -0.9156 0.0002
vn 0.4019 -0.9157 0.0002
vn 0.4049 -0.9144 -0.0002
vn 0.4051 -0.9143 -0.0002
vn -0.2948 -0.9556 -0.0000
vn -0.2948 -0.9556 -0.0001
vn -0.2948 -0.9555 0.0000
vn 0.7242 0.6896 -0.0000
vn 0.7241 0.6897 -0.0000
vn 0.7261 0.6876 0.0003
vn 0.7262 0.6875 0.0003
vn 0.2941 0.9558 0.0003
vn 0.2948 0.9556 0.0005
vn 0.2894 0.9572 -0.0006
vn 0.2887 0.9574 -0.0008
vn 0.9510 -0.3091 0.0030
vn 0.9493 -0.3144 0.0056
vn 0.9538 -0.3005 -0.0013
vn 0.9554 -0.2952 -0.0039
vn 0.1839 0.9829 0.0004
vn 0.1840 0.9829 0.0004
vn 0.1839 0.9829 0.0003
vn 0.1838 0.9830 0.0004
vn 0.4127 0.9108 -0.0003
vn 0.4132 0.9106 -0.0001
vn 0.4091 0.9125 -0.0062
vn 0.4022 0.9153 -0.0204
vn 0.7269 -0.1249 0.6753
vn 0.7272 -0.1266 0.6747
vn 0.7270 -0.1256 0.6750
vn 0.7267 -0.1229 0.6759
vn 0.3901 0.9196 -0.0464
vn 0.8585 -0.2652 -0.4389
vn 0.8581 -0.2639 -0.4405
vn 0.8582 -0.2647 -0.4397
vn 0.3827 -0.8104 -0.4436
vn 0.3462 -0.7964 -0.4958
vn 0.4302 -0.8241 -0.3685
vn 0.4525 -0.8284 -0.3302
vn -0.2499 -0.8293 -0.4998
vn -0.2501 -0.8306 -0.4975
vn -0.2460 -0.7982 -0.5499
vn -0.2457 -0.7960 -0.5532
vn 0.7187 0.6189 -0.3171
vn 0.7040 0.6739 -0.2243
vn 0.7241 0.5729 -0.3841
vn 0.7249 0.5314 -0.4383
vn 0.2471 0.8193 -0.5174
vn 0.2463 0.8218 -0.5138
vn 0.2489 0.8132 -0.5261
vn 0.2498 0.8098 -0.5309
vn 0.8722 -0.2901 -0.3938
vn 0.8723 -0.2901 -0.3937
vn 0.8717 -0.2902 -0.3948
vn 0.8717 -0.2902 -0.3949
vn -0.1187 -0.3633 0.9241
vn -0.1103 -0.3579 0.9272
vn -0.1214 -0.3651 0.9230
vn -0.1315 -0.3716 0.9190
vn 0.1229 0.3870 0.9138
vn 0.1278 0.3860 0.9136
vn 0.1263 0.3863 0.9137
vn 0.1197 0.3877 0.9140
vn 0.2120 -0.3890 0.8965
vn 0.3422 0.2502 0.9057
vn 0.4045 -0.4808 0.7780
vn 0.8117 -0.4631 0.3559
vn 0.2446 -0.4520 0.8578
vn 0.2381 -0.4506 0.8604
vn 0.2965 -0.0705 0.9524
vn 0.2958 -0.0582 0.9535
vn 0.3135 -0.0821 0.9460
vn 0.2843 -0.0954 0.9540
vn 0.2833 -0.0519 0.9576
vn 0.2852 -0.0514 0.9571
vn -0.4263 0.0750 0.9015
vn -0.4259 0.0742 0.9017
vn 0.7410 -0.1745 -0.6485
vn 0.7480 -0.1747 -0.6403
vn 0.6940 -0.2276 -0.6830
vn 0.9803 -0.1977 -0.0005
vn 0.9802 -0.1979 -0.0004
vn 0.9802 -0.1980 -0.0004
vn 0.7388 -0.1299 -0.6612
vn 0.7302 -0.1226 -0.6721
vn -0.1839 -0.9829 -0.0004
vn -0.1840 -0.9829 -0.0004
vn -0.1842 -0.9829 -0.0004
vn -0.9846 0.1746 0.0130
vn -0.9847 0.1741 0.0114
vn -0.9846 0.1746 0.0054
vn -0.1839 -0.9829 -0.0001
vn 0.1839 0.9829 0.0001
vn -0.7113 0.1264 0.6915
vn -0.9848 0.1739 -0.0039
vn -0.9849 0.1733 0.0045
vn 0.1327 0.7106 0.6910
vn -0.1333 -0.7111 0.6904
vn -0.9849 0.1731 0.0020
vn -0.9848 0.1735 -0.0029
vn 0.1789 0.9558 -0.2333
vn -0.1787 -0.9557 -0.2340
vn -0.8838 0.1559 -0.4411
vn -0.8844 0.1558 -0.4400
vn -0.8798 0.1564 -0.4489
vn -0.8795 0.1564 -0.4495
vn -0.1321 -0.7914 -0.5969
vn -0.1440 -0.7709 -0.6204
vn -0.1246 -0.8038 -0.5817
vn -0.1159 -0.8175 -0.5641
vn 0.0004 0.0000 -1.0000
vn 0.1587 0.8567 -0.4908
vn 0.1606 0.8578 -0.4882
vn 0.1580 0.8573 -0.4900
vn -0.1440 -0.7710 -0.6204
vn 0.1588 0.8555 -0.4929
vn 0.1600 0.8543 -0.4945
vn -0.9845 0.1746 0.0151
vn -0.1839 -0.9829 -0.0000
vn 0.1839 0.9829 0.0000
vn 0.0004 0.0002 -1.0000
vn -0.1588 -0.8493 -0.5035
vn -0.1589 -0.8493 -0.5033
vn -0.1588 -0.8493 -0.5034
vn -0.1587 -0.8492 -0.5036
vn 0.1591 0.8496 -0.5029
vn 0.1591 0.8497 -0.5027
vn 0.1591 0.8496 -0.5028
vn 0.1590 0.8496 -0.5029
vn -0.8897 0.1588 -0.4281
vn -0.8927 0.1598 -0.4214
vn -0.8926 0.1598 -0.4216
vn -0.8895 0.1587 -0.4285
vn -0.0004 -0.0002 1.0000
vn -0.8834 0.1602 -0.4404
vn -0.8861 0.1579 -0.4357
vn -0.8841 0.1591 -0.4393
vn -0.9741 0.1770 0.1408
vn -0.9744 0.1762 0.1394
vn -0.9743 0.1765 0.1400
vn -0.9739 0.1773 0.1416
vn 0.1633 0.8717 -0.4621
vn 0.1632 0.8717 -0.4620
vn 0.1632 0.8717 -0.4621
vn 0.1821 0.9740 0.1345
vn -0.1823 -0.9742 0.1332
vn -0.1822 -0.9742 0.1332
vn -0.1823 -0.9742 0.1331
vn 0.0001 -0.0016 -1.0000
vn -0.8806 0.1582 -0.4467
vn -0.8813 0.1598 -0.4448
vn -0.8808 0.1590 -0.4460
vn -0.9711 0.1765 0.1607
vn -0.9714 0.1759 0.1593
vn -0.9713 0.1761 0.1598
vn -0.9709 0.1768 0.1614
vn -0.1629 -0.8716 -0.4624
vn -0.1628 -0.8716 -0.4623
vn 0.1802 0.9639 0.1962
vn -0.1804 -0.9641 0.1948
vn -0.1803 -0.9641 0.1949
vn 0.0001 -0.0015 -1.0000
vn 0.0005 0.0006 -1.0000
vn -0.0004 -0.0001 1.0000
vn 0.7201 -0.1295 0.6817
vn 0.7209 -0.1231 0.6820
vn 0.7208 -0.1235 0.6820
vn 0.7201 -0.1299 0.6816
vn -0.4466 0.0763 0.8915
vn -0.4472 0.0716 0.8916
vn -0.4472 0.0717 0.8915
vn -0.4466 0.0765 0.8915
vn 0.6711 -0.1205 -0.7315
vn 0.6713 -0.1204 -0.7314
vn 0.6710 -0.1207 -0.7316
vn -0.1803 -0.9836 0.0031
vn -0.1799 -0.9837 0.0033
vn -0.1840 -0.9829 -0.0003
vn -0.1844 -0.9829 -0.0007
vn -0.8806 0.1389 -0.4529
vn -0.8806 0.1390 -0.4530
vn -0.8807 0.1389 -0.4529
vn -0.1808 -0.9835 -0.0079
vn -0.1806 -0.9835 -0.0082
vn 0.1803 0.9836 0.0076
vn 0.1801 0.9836 0.0079
vn 0.1841 0.9829 0.0009
vn 0.1841 0.9829 0.0005
vn 0.1807 0.9835 -0.0035
vn 0.1804 0.9836 -0.0038
vn -0.4255 0.0762 0.9018
vn -0.4254 0.0763 0.9018
vn -0.4259 0.0747 0.9017
vn -0.4259 0.0746 0.9017
vn 0.2935 -0.0594 0.9541
vn 0.2918 -0.0568 0.9548
vn 0.2880 -0.0936 0.9531
vn 0.2865 -0.0965 0.9532
vn 0.2829 -0.0508 0.9578
vn 0.2829 -0.0507 0.9578
vn 0.1957 0.9806 0.0098
vn 0.1954 0.9807 0.0102
vn 0.1978 0.9802 0.0028
vn 0.1980 0.9802 0.0025
vn 0.2661 0.9638 -0.0147
vn 0.2655 0.9640 -0.0157
vn 0.3351 0.9419 -0.0211
vn 0.3354 0.9419 -0.0190
vn 0.9029 -0.3038 -0.3042
vn 0.9039 -0.3020 -0.3028
vn 0.9033 -0.3031 -0.3036
vn 0.9022 -0.3049 -0.3049
vn -0.3279 -0.9445 0.0185
vn -0.3288 -0.9442 0.0166
vn -0.2563 -0.9665 0.0112
vn -0.2561 -0.9666 0.0125
vn -0.1923 -0.9813 -0.0023
vn -0.1921 -0.9814 -0.0022
vn -0.8883 0.1554 -0.4322
vn -0.8883 0.1554 -0.4323
vn -0.8883 0.1553 -0.4322
vn -0.1947 -0.9808 -0.0094
vn -0.1946 -0.9808 -0.0098
vn 0.9874 -0.1578 -0.0122
vn -0.9874 0.1578 0.0122
vn -0.1577 -0.9875 -0.0004
vn 0.1577 0.9875 0.0004
vn 0.0134 -0.0017 0.9999
vn 0.9878 -0.1557 -0.0102
vn -0.9878 0.1557 0.0102
vn -0.1441 -0.9896 -0.0006
vn 0.1441 0.9896 0.0006
vn 0.0205 -0.0027 0.9998
vn 0.0206 -0.0027 0.9998
vn 0.9877 -0.1557 -0.0123
vn -0.9877 0.1557 0.0123
vn 0.1440 0.9896 0.0006
vn 0.9844 -0.1756 -0.0120
vn -0.9844 0.1756 0.0120
vn 0.0204 -0.0038 0.9998
vn 0.9843 -0.1762 -0.0120
vn -0.9843 0.1762 0.0120
vn 0.9874 -0.1578 -0.0116
vn -0.9874 0.1578 0.0116
vn -0.1456 -0.9893 -0.0006
vn 0.1456 0.9893 0.0006
vn 0.0197 -0.0027 0.9998
vn 0.9874 -0.1578 -0.0114
vn -0.9874 0.1578 0.0114
vn 0.9874 -0.1578 -0.0096
vn -0.9874 0.1578 0.0096
vn -0.1629 -0.9866 -0.0004
vn 0.1629 0.9866 0.0004
vn 0.0107 -0.0013 0.9999
vn 0.9438 -0.3304 -0.0104
vn -0.9438 0.3304 0.0104
vn -0.3354 -0.9421 -0.0004
vn 0.3354 0.9421 0.0004
vn 0.0111 -0.0034 0.9999
vn 0.9348 -0.3549 -0.0101
vn -0.9348 0.3549 0.0101
vn 0.0108 -0.0041 0.9999
vn 0.2812 0.9596 -0.0096
vn -0.2812 -0.9596 0.0096
vn 0.9582 -0.2862 -0.0004
vn -0.9582 0.2862 0.0004
vn 0.0026 0.0104 0.9999
vn 0.9842 -0.1764 -0.0118
vn 0.9842 -0.1764 -0.0119
vn -0.9842 0.1764 0.0119
vn -0.1744 -0.9847 -0.0002
vn 0.1744 0.9847 0.0002
vn -0.0048 0.0010 -1.0000
vn -0.3482 0.0624 0.9353
vn -0.0657 -0.3972 0.9154
vn 0.3559 -0.0641 0.9323
vn 0.0744 0.3953 0.9155
vn -0.9105 0.1635 0.3799
vn -0.9104 0.1635 0.3799
vn -0.9105 0.1634 0.3799
vn -0.9105 0.1634 0.3798
vn -0.1623 -0.9277 0.3362
vn 0.9108 -0.1636 0.3791
vn 0.1655 0.9268 0.3370
vn 0.0048 -0.0010 1.0000
vn 0.9557 -0.2943 0.0003
vn -0.1372 -0.4646 0.8748
vn -0.1379 -0.4644 0.8749
vn -0.1353 -0.4652 0.8748
vn -0.1352 -0.4653 0.8748
vn 0.9577 -0.2877 -0.0018
vn 0.2969 0.9549 -0.0047
vn 0.2967 0.9550 -0.0047
vn -0.2968 -0.9549 0.0047
vn -0.2967 -0.9550 0.0047
vn -0.0162 -0.0001 -0.9999
vn 0.2766 0.9062 -0.3200
vn 0.2767 0.9062 -0.3199
vn 0.2765 0.9062 -0.3201
vn -0.2867 -0.9062 -0.3109
vn -0.2868 -0.9062 -0.3107
vn -0.2865 -0.9062 -0.3110
vn 0.9201 -0.2788 -0.2753
vn 0.9211 -0.2797 -0.2707
vn 0.9211 -0.2796 -0.2710
vn 0.9199 -0.2787 -0.2758
vn 0.0162 0.0001 0.9999
vn 0.0162 0.0000 0.9999
vn 0.8651 -0.2662 -0.4252
vn 0.8655 -0.2662 -0.4243
vn -0.1389 -0.4569 -0.8786
vn -0.0015 0.0012 -1.0000
vn 0.1365 0.4635 0.8755
vn 0.1244 0.4667 0.8756
vn 0.1248 0.4666 0.8756
vn 0.1406 0.4624 0.8755
vn 0.1374 0.4629 -0.8757
# 413 vertex normals

vt -1.3035 0.0097 0.4105
vt -0.7386 0.0097 0.4099
vt -0.7395 0.9623 0.6081
vt -1.3041 0.6452 0.5433
vt -1.7238 0.9680 0.0000
vt 0.4106 0.9680 0.0000
vt 0.3974 0.9906 0.0000
vt -1.7232 0.9906 0.0000
vt -17.5095 -3.0551 4.3984
vt -21.2864 -3.9501 5.2324
vt -14.9137 -3.0515 3.3379
vt 0.0005 0.0005 -6.1755
vt 0.9994 0.0005 -5.8577
vt 0.9995 0.9995 -5.1765
vt 0.0006 0.9995 -5.4939
vt -5.7186 3.6888 -1.4648
vt -5.7153 1.4978 -1.1270
vt -0.6797 1.5048 -3.1836
vt 0.2336 0.0105 0.1060
vt 0.2336 0.0105 0.4125
vt 0.2326 0.9674 0.6108
vt 0.2327 0.9674 0.3043
vt -0.7395 0.9623 0.3017
vt -0.7386 0.0097 0.1034
vt 0.5101 0.9882 0.0000
vt 0.4611 0.9882 0.0000
vt 0.4831 0.9687 0.0000
vt 0.5319 0.9687 0.0000
vt -0.1320 0.9870 0.0000
vt -0.1669 0.9861 0.0000
vt -0.1892 0.9723 0.0000
vt -0.1536 0.9732 0.0000
vt -0.4546 0.1220 0.0000
vt -0.4546 0.0439 0.0000
vt 0.4693 0.0439 0.0000
vt 0.4693 0.1220 0.0000
vt 0.4641 0.3655 0.0000
vt -0.4347 0.3607 0.0000
vt -0.4340 0.2318 0.0000
vt 0.4648 0.2365 0.0000
vt -0.5976 0.0097 0.1038
vt -0.5985 0.9623 0.3021
vt -0.1540 0.9679 0.0000
vt -0.0591 0.9679 0.0000
vt -0.0525 0.9898 0.0000
vt -0.1672 0.9898 0.0000
vt 0.2771 0.9690 0.0000
vt 0.3676 0.9690 0.0000
vt 0.3871 0.9909 0.0000
vt 0.2692 0.9909 0.0000
vt 0.0984 0.0105 0.1057
vt 0.0975 0.9674 0.3040
vt -0.5881 0.0097 -0.0388
vt -0.5890 0.9623 0.1595
vt 0.0854 0.9674 0.1613
vt 0.0863 0.0105 -0.0369
vt -4.8677 -3.9396 -35.9395
vt -4.8751 1.0822 -36.7207
vt -5.7167 1.4973 -36.4375
vt -5.7086 -3.9396 -35.5957
vt -1.5487 1.0868 -38.0781
vt -0.6812 1.5043 -38.4961
vt -1.5413 -3.9338 -37.2969
vt -0.6731 -3.9338 -37.6543
vt 0.4603 0.4067 0.0000
vt 0.1154 0.4480 0.0000
vt -0.4329 0.4432 0.0000
vt -0.4325 0.3989 0.0000
vt -0.4554 0.4389 0.0000
vt -0.4554 0.3929 0.0000
vt 0.1148 0.3929 0.0000
vt 0.4732 0.4389 0.0000
vt 0.4657 0.3929 0.0000
vt 0.4527 0.4509 0.0000
vt -1.7555 0.6442 0.5421
vt -3.1160 -0.0031 0.4034
vt -3.1166 0.6414 0.5384
vt -3.9183 0.9623 0.6005
vt -3.9176 -0.0031 0.3939
vt -1.7549 0.0049 0.4093
vt -2.6532 0.6424 0.5396
vt -2.6526 0.0049 0.4046
vt 0.9995 0.0005 0.4248
vt 0.9995 0.9993 0.0005
vt 0.0005 0.9995 0.5752
vt 0.0005 0.0006 0.9995
vt 0.1162 0.3239 0.0000
vt 0.1162 0.2481 0.0000
vt 0.8254 0.2481 0.0000
vt 0.8254 0.3239 0.0000
vt 0.9995 0.9993 -0.0005
vt 0.0005 0.9995 0.5781
vt 0.0005 0.0007 0.9990
vt 0.9994 0.0005 0.4204
vt -10.9673 1.3182 1.0449
vt -8.1353 1.3221 -0.1152
vt -17.5159 1.2004 3.7383
vt -21.2946 3.6888 4.0293
vt -10.9608 -3.0178 1.7168
vt -14.9200 1.2040 2.6777
vt 0.1286 0.0070 0.9971
vt 0.8729 0.0076 0.3799
vt 0.8711 0.7203 -0.0039
vt 0.1267 0.7197 0.6133
vt -8.1288 -3.0139 0.5566
vt -5.7073 -3.9501 -0.2852
vt 0.1304 0.0063 1.0303
vt 0.8675 0.0069 0.3574
vt 0.8658 0.7209 -0.0342
vt 0.1287 0.7203 0.6387
vt 1.8161 0.0105 0.4746
vt 1.8155 0.6504 0.6086
vt 1.6061 0.9674 0.6455
vt 1.6071 0.0105 0.4472
vt 3.5141 0.9651 0.0000
vt 3.5141 0.9869 0.0000
vt 1.3056 0.9869 0.0000
vt 1.2918 0.9651 0.0000
vt 18.3369 -3.0054 3.2109
vt 15.7412 -3.0090 2.1934
vt 22.2955 -3.9236 4.9414
vt 0.8529 0.0057 1.0410
vt 0.8512 0.7068 0.6553
vt 0.1472 0.7061 -0.0430
vt 0.1488 0.0051 0.3428
vt 6.0507 3.6888 -2.6309
vt 1.1223 1.5073 -4.2188
vt 6.0540 1.5141 -2.2930
vt 0.6566 0.0105 0.1056
vt 0.6557 0.9674 0.3039
vt 0.6551 0.9674 0.6103
vt 0.6560 0.0105 0.4120
vt 1.6067 0.9674 0.3390
vt 1.6077 0.0105 0.1407
vt 0.7322 0.9694 0.0000
vt 0.7551 0.9871 0.0000
vt 0.7153 0.9892 0.0000
vt 0.6924 0.9715 0.0000
vt 1.1894 0.9723 0.0000
vt 1.1673 0.9860 0.0000
vt 1.0941 0.9854 0.0000
vt 1.1160 0.9717 0.0000
vt 0.7942 0.9891 0.0000
vt 0.8130 0.9672 0.0000
vt 1.4515 0.9672 0.0000
vt 1.4653 0.9891 0.0000
vt 5.0062 -3.0465 -37.1016
vt 6.0634 -3.9236 -36.7598
vt 6.0553 1.5137 -37.6016
vt 4.9999 1.2112 -37.7637
vt 1.1237 1.5068 -39.5293
vt 2.2950 1.2074 -38.9629
vt 2.3014 -3.0503 -38.3047
vt 1.1317 -3.9236 -38.6875
vt 2.2668 0.6510 0.6252
vt 3.1667 0.0094 0.5425
vt 4.9175 0.0094 0.5699
vt 4.9168 0.9674 0.7682
vt 3.1661 0.6517 0.6775
vt 2.2675 0.0097 0.4912
vt 2.7252 0.0097 0.5253
vt 2.7246 0.6512 0.6603
vt 0.0005 0.0006 0.9990
vt 0.9995 0.0005 0.7051
vt 0.9995 0.9994 -0.0020
vt 0.0005 0.9995 0.2920
vt 0.0005 0.9995 0.2568
vt 0.9995 0.0005 0.7422
vt 0.9995 0.9994 0.0000
vt 11.7405 1.2232 0.0195
vt 9.0265 1.2194 -1.1641
vt 22.2876 3.6888 3.7656
vt 18.3306 1.2502 2.5508
vt 15.7349 1.2465 1.5332
vt 11.7468 -2.9863 0.6719
vt 0.8600 0.0071 0.9873
vt 0.8582 0.7182 0.6035
vt 0.1302 0.7176 0.0127
vt 0.1320 0.0065 0.3965
vt 9.0328 -2.9901 -0.5117
vt 6.0620 -3.9236 -1.4512
vt 0.8668 0.0032 1.0313
vt 0.8651 0.7159 0.6514
vt 0.1302 0.7153 -0.0342
vt 0.1319 0.0026 0.3457
vt 0.4411 0.9890 0.0000
vt 0.4216 0.9670 0.0000
vt 0.7055 0.9670 0.0000
vt 0.6866 0.9890 0.0000
vt -0.6716 -3.9236 -2.3418
vt 1.1304 -3.9236 -3.3770
vt -9.7095 -0.0053 -1.1992
vt -10.0665 0.7910 -0.2250
vt -10.0665 -0.0053 -1.0820
vt 8.2044 -0.0053 -1.0876
vt 8.2044 0.7910 -0.2517
vt 7.8323 -0.0053 -1.2240
vt -10.0665 0.9920 -1.2038
vt 8.2044 0.9920 -1.2094
vt -3.6638 1.7630 -41.2612
vt -3.6614 -0.7744 -37.0923
vt 4.6638 -0.7630 -37.1426
vt 4.6615 1.7744 -41.3052
vt -12.8839 0.0614 -0.7177
vt -12.8828 -0.0016 -0.8475
vt 13.8920 -0.0016 -0.8491
vt 13.8910 0.0614 -0.7263
vt -12.8844 0.4845 -0.7185
vt 13.8904 0.4845 -0.7272
vt -12.8876 0.5700 -0.3265
vt 13.8873 0.5700 -0.3351
vt -12.8918 0.9983 0.1499
vt 13.8831 0.9983 0.1412
vt 2.2921 5.1935 -63.6563
vt -9.6603 5.2325 -67.2285
vt -9.7502 -4.2077 -54.5522
vt 0.5939 0.7147 0.0005
vt 0.1564 0.7297 0.0552
vt 0.1406 0.0353 0.0553
vt 0.5784 0.0217 0.0005
vt 0.8922 0.0382 0.8978
vt 0.9447 0.0353 0.8594
vt 0.9448 0.7297 0.8436
vt 0.8923 0.7319 0.8823
vt 0.4868 0.0336 0.8317
vt 0.4870 0.7233 0.8163
vt 0.0389 0.7144 0.3726
vt 0.0005 0.7147 0.4061
vt 0.0005 0.0217 0.4216
vt 0.0390 0.0195 0.3879
vt 0.1385 0.7157 0.3563
vt 0.1356 0.0185 0.3728
vt 0.9181 0.7063 0.0990
vt 0.6437 0.7157 0.1385
vt 0.6272 0.0185 0.1356
vt 0.9024 0.0005 0.1010
vt 0.9599 0.3379 0.0102
vt 0.9609 0.3074 0.0109
vt 0.9686 0.3314 0.0101
vt 0.6321 0.9698 0.0067
vt 0.9561 0.6957 0.0024
vt 0.9597 0.6970 0.0023
vt 0.9597 0.7183 0.0018
vt 0.9705 0.7229 0.0014
vt 0.9837 0.7443 0.0005
vt 0.2871 0.0142 0.0387
vt 0.9609 0.1022 0.0154
vt 0.2858 0.8314 0.0208
vt 0.9640 0.0189 0.0171
vt 0.9642 0.1021 0.0153
vt 0.1010 0.0005 0.0976
vt 0.0990 0.7063 0.0819
vt -1.2217 -2.3232 -34.4375
vt 4.7271 3.2293 39.3496
vt -3.7303 3.3232 20.9648
vt -3.8344 -2.3058 -38.3535
vt 0.0860 0.7469 0.0830
vt -1.1499 3.9907 0.0000
vt -1.0599 3.9907 0.0000
vt -1.0599 2.9907 0.0000
vt -0.9126 1.0113 0.0000
vt -0.5210 0.0173 0.0000
vt 1.5534 0.0173 0.0000
vt 1.8957 1.0113 0.0000
vt -4.4053 1.0124 0.0000
vt -5.2576 0.0173 0.0000
vt 5.8189 0.0173 0.0000
vt 5.9000 1.0124 0.0000
vt -0.7603 1.0118 0.0000
vt -0.3505 0.0136 0.0000
vt 1.3264 0.0136 0.0000
vt 1.7016 1.0118 0.0000
vt -0.8611 1.0114 0.0000
vt -0.8512 0.0130 0.0000
vt 1.9882 0.0130 0.0000
vt 1.6202 1.0114 0.0000
vt -2.8103 1.0112 0.0000
vt -3.3874 0.0097 0.0000
vt 4.1161 0.0097 0.0000
vt 4.1275 1.0112 0.0000
vt -3.5695 3.9254 -74.3125
vt -3.8841 -2.7961 129.0430
vt 5.2772 -2.6790 114.7500
vt 3.8272 3.8419 -56.6914
vt -1.3369 -3.4568 63.0703
vt 5.0702 2.8224 -199.6406
vt -2.3260 2.7241 -177.4297
vt -3.4484 -3.5436 75.3125
vt 0.4290 4.0708 -29.6563
vt -1.5806 -2.3543 -26.4277
vt 0.3980 -1.9012 -25.1191
vt 1.8254 -2.2217 -9.2578
vt 0.0112 4.0061 8.1172
vt 0.1366 -2.0863 -13.7148
vt 2.9023 -2.7896 -113.7383
vt 2.9476 -2.4245 -149.8203
vt 2.9455 4.1974 -465.5313
vt -2.0606 3.6793 -96.5469
vt 5.8575 2.4650 41.1143
vt -5.2553 3.9853 21.6836
vt 0.3704 -2.9102 -40.0996
vt 5.5492 -2.7634 14.4922
vt -5.2510 -0.3108 -12.0381
vt 5.8641 -4.0459 7.3936
vt 6.1680 4.7028 14.0342
vt -5.7791 5.0459 -6.3936
vt 10.6605 -4.2290 -52.7876
vt 10.7504 5.2093 -65.2876
vt 0.1840 1.0120 0.0000
vt 0.7135 0.0182 0.0000
vt 0.5465 1.0120 0.0000
vt 0.0005 0.0386 0.5194
vt 0.1683 0.0336 0.5132
vt 0.1837 0.7233 0.5130
vt 0.0157 0.7283 0.5192
vt -1.0982 0.0175 0.0000
vt 2.4823 0.0175 0.0000
vt 1.5274 1.0123 0.0000
vt -1.1114 1.0123 0.0000
vt 0.0242 0.3676 0.9777
vt 0.4806 0.0386 0.9995
vt 0.4808 0.7283 0.9843
vt 0.0279 0.7254 0.9700
vt 0.0231 0.1319 0.9829
vt 0.0200 0.1319 0.9828
vt 0.0200 0.0486 0.9846
vt 0.0156 0.3611 0.9776
vt 0.0231 0.3371 0.9784
vt 0.3520 0.9995 0.9742
vt 0.0245 0.7480 0.9694
vt 0.0245 0.7267 0.9698
vt 0.5094 0.7704 0.9843
vt 0.0137 0.7526 0.9689
vt 0.0005 0.7740 0.9680
vt 0.0026 -0.0399 0.0000
vt 0.9991 -0.0400 0.0000
vt 0.9995 0.8106 0.0000
vt 0.0030 0.8107 0.0000
vt 0.0649 0.2267 0.0000
vt 0.1050 0.2260 0.0000
vt 0.1067 0.5966 0.0000
vt 0.0666 0.5974 0.0000
vt 0.0243 1.0381 0.0000
vt 0.0121 0.9462 0.0000
vt 0.9915 0.9460 0.0000
vt 0.9832 1.0380 0.0000
vt 0.0659 0.8439 0.0000
vt 0.0019 0.8102 0.0000
vt 0.9983 0.8101 0.0000
vt 0.9348 0.8439 0.0000
vt 0.0522 0.8924 0.0000
vt 0.9486 0.8923 0.0000
vt 0.0485 0.8951 0.0000
vt 0.9367 0.8946 0.0000
vt 0.3727 0.9439 0.0000
vt 0.2710 1.0440 0.0000
vt 0.2709 0.9433 0.0000
vt 0.3957 0.9450 0.0000
vt 0.4216 0.9102 0.0000
vt 0.4627 0.9094 0.0000
vt 0.4634 0.9477 0.0000
vt 0.8161 0.8492 0.0000
vt 0.8156 0.8866 0.0000
vt 0.1842 0.8866 0.0000
vt 0.1842 0.8492 0.0000
vt 0.3328 0.8968 0.0000
vt 0.3520 0.8968 0.0000
vt 0.4088 0.9105 0.0000
vt 0.4649 1.0079 0.0000
vt 0.2709 0.8968 0.0000
vt 0.0015 0.1703 0.0000
vt 0.9983 0.1702 0.0000
vt 0.9985 0.9999 0.0000
vt 0.0018 1.0000 0.0000
vt 0.0245 0.2284 0.0000
vt 0.1082 0.2269 0.0000
vt 0.1098 0.8981 0.0000
vt 0.0261 0.8996 0.0000
vt 0.6597 0.0051 0.0000
vt 0.6606 0.0525 0.0000
vt 0.2799 0.0534 0.0000
vt 0.2791 0.0060 0.0000
vt 0.4660 0.1884 0.0000
vt 0.3143 0.1884 0.0000
vt 0.3453 0.1182 0.0000
vt 0.4800 0.1182 0.0000
vt 0.4731 0.1879 0.0000
vt 0.3312 0.1879 0.0000
vt 0.3182 0.1183 0.0000
vt 0.4441 0.1183 0.0000
vt 1.0020 0.1896 0.0000
vt 0.0020 0.1826 0.0000
vt 0.0396 0.1187 0.0000
vt 0.9648 0.1187 0.0000
vt 0.6597 0.0562 0.0000
vt 0.6606 0.0660 0.0000
vt 0.2799 0.0669 0.0000
vt 0.2791 0.0571 0.0000
vt -0.9934 0.0612 0.0000
vt -0.8636 0.0612 0.0000
vt -1.0350 0.1497 0.0000
vt 0.0123 0.0045 0.0000
vt 0.1241 0.0047 0.0000
vt 0.1165 0.0759 0.0000
vt 0.0201 0.0758 0.0000
vt 0.0586 0.1184 0.0000
vt 0.0526 0.0747 0.0000
vt 0.0852 0.0747 0.0000
vt 0.1100 0.1184 0.0000
vt 0.1223 0.0102 0.0000
vt 0.0154 0.0102 0.0000
vt 0.0154 0.0021 0.0000
vt 0.1223 0.0021 0.0000
vt -0.1326 0.0612 0.0000
vt -0.0029 0.0612 0.0000
vt 0.0383 0.1497 0.0000
vt -2.3112 -1.2165 -0.2616
vt -2.3117 -0.0789 0.8467
vt -2.4506 -0.0789 0.8445
vt -2.4501 -1.2165 -0.2626
vt -2.3117 0.8467 -0.0789
vt -2.3117 3.2973 -1.3035
vt -2.4506 3.2934 -1.3033
vt -2.4506 0.8445 -0.0789
vt 3.3121 -0.1335 -1.3336
vt 3.3112 -0.2616 -1.2165
vt 3.4501 -0.2626 -1.2165
vt 3.4510 -0.1345 -1.3336
vt 1.1345 -1.3336 -2.4510
vt 1.2626 -1.2165 -2.4501
vt 0.1555 -0.0789 -2.4506
vt 0.1324 -0.3004 -2.4505
vt 3.4490 -1.4550 3.2127
vt 3.4506 -1.3033 3.2934
vt 3.3117 -1.3035 3.2973
vt 3.3101 -1.4551 3.2166
vt -2.2934 -1.3033 -2.4506
vt -2.2127 -1.4550 -2.4490
vt 3.2166 -1.4551 -2.3101
vt 3.2973 -1.3035 -2.3117
vt 0.8467 -0.0789 -2.3117
vt 0.8697 -0.3005 -2.3116
vt -0.2616 -1.2165 -2.3112
vt -0.1335 -1.3336 -2.3121
vt 3.1198 0.8979 -0.1018
vt 3.3328 0.8996 -0.1018
vt 3.3730 3.3496 -1.2577
vt 3.1556 3.3470 -1.2577
vt 3.3052 -1.5249 -0.7910
vt 3.1115 -1.4750 -0.7766
vt 2.8889 -2.9075 -1.2207
vt 3.0704 -2.9328 -1.2205
vt 3.2284 -1.4989 3.3742
vt 3.3496 -1.2577 3.3730
vt 0.8996 -0.1018 3.3328
vt 0.8780 -0.3511 3.3331
vt -1.4451 -1.0477 3.3079
vt -1.5249 -0.7910 3.3052
vt -2.9328 -1.2205 3.0704
vt -2.8509 -1.4765 3.0785
vt 3.0785 -1.4765 -2.8509
vt 3.0704 -1.2205 -2.9328
vt 2.8889 -1.2207 -2.9075
vt 2.8971 -1.4766 -2.8251
vt 3.8251 -1.4766 2.8971
vt 3.9075 -1.2207 2.8889
vt 2.4750 -0.7766 3.1115
vt 2.3945 -1.0332 3.1143
vt 0.1021 -0.1018 3.1198
vt 0.1237 -0.3511 3.1202
vt -2.1567 -1.4988 3.2258
vt -2.1556 -1.2577 3.3470
vt -2.3730 -1.2577 3.3496
vt -2.3742 -1.4989 3.2284
vt -2.3470 -1.2577 3.1556
vt -2.2258 -1.4988 3.1567
vt 0.4424 -0.7325 1.3951
vt 0.4423 0.0608 1.3901
vt 0.2703 0.0609 1.3855
vt 0.2703 -0.7324 1.3905
vt 0.5646 -0.7306 1.6568
vt 0.7366 -0.7305 1.6522
vt 0.7367 0.0628 1.6472
vt 0.5646 0.0627 1.6518
vt -0.3905 -0.7324 0.2703
vt -0.3855 0.0609 0.2703
vt -0.6472 0.0628 0.2633
vt -0.6522 -0.7305 0.2634
vt 1.3901 0.0608 0.4423
vt 1.3951 -0.7325 0.4424
vt 1.6568 -0.7306 0.4354
vt 1.6518 0.0627 0.4354
vt 0.9003 0.6596 0.4392
vt 0.0951 0.6588 0.4360
vt 0.0999 0.3541 0.5608
vt 0.9052 0.3549 0.5640
vt 3.3873 -0.9377 1.9432
vt 3.3872 0.0053 1.9393
vt 3.2278 0.0054 1.9347
vt 3.2278 -0.9376 1.9386
vt -2.3804 -0.9352 2.1152
vt -2.2209 -0.9351 2.1106
vt -2.2208 0.0079 2.1066
vt -2.3803 0.0078 2.1112
vt -0.9386 -0.9376 3.2278
vt -0.9347 0.0054 3.2278
vt -1.1066 0.0079 3.2208
vt -1.1106 -0.9351 3.2209
vt 1.9393 0.0053 3.3872
vt 1.9432 -0.9377 3.3873
vt 2.1152 -0.9352 3.3804
vt 2.1112 0.0078 3.3803
vt 0.1532 0.5113 0.4402
vt 0.1509 0.3530 0.4138
vt 0.8380 0.3544 0.5598
vt 0.8402 0.5127 0.5862
vt 3.0679 -0.9891 -1.3314
vt 3.0678 -0.0642 -1.3373
vt 2.8802 -0.0640 -1.3427
vt 2.8803 -0.9890 -1.3368
vt -2.0597 -0.9862 -1.1291
vt -1.8721 -0.9861 -1.1345
vt -1.8721 -0.0612 -1.1404
vt -2.0597 -0.0613 -1.1350
vt 2.3368 -0.9890 2.8803
vt 2.3427 -0.0640 2.8802
vt 2.1404 -0.0612 2.8721
vt 2.1345 -0.9861 2.8721
vt -1.3373 -0.0642 3.0678
vt -1.3314 -0.9891 3.0679
vt -1.1291 -0.9862 3.0597
vt -1.1350 -0.0613 3.0597
vt 2.8802 -1.3427 -0.0640
vt 3.0678 -1.3373 -0.0642
vt 3.0597 -1.1350 -0.0613
vt 2.8721 -1.1404 -0.0612
vt 3.2550 -0.7188 0.5003
vt 3.2549 0.2277 0.4946
vt 2.6190 0.2277 0.4891
vt 2.6190 -0.7188 0.4948
vt -2.2468 -0.7159 0.7026
vt -1.6109 -0.7160 0.6971
vt -1.6109 0.2306 0.6914
vt -2.2468 0.2306 0.6968
vt 0.5052 -0.7188 2.6190
vt 0.5109 0.2277 2.6190
vt 0.3086 0.2306 2.6109
vt 0.3029 -0.7160 2.6109
vt 0.4946 0.2277 3.2549
vt 0.5003 -0.7188 3.2550
vt 0.7026 -0.7159 3.2468
vt 0.6968 0.2306 3.2468
vt 0.0195 0.9918 0.4508
vt 0.0399 -0.0039 0.3480
vt 0.9805 0.0083 0.5490
vt 0.9601 1.0040 0.6520
vt -0.8189 -0.8320 1.1438
vt -0.8190 0.1145 1.1380
vt -1.5105 0.1145 1.1325
vt -1.5104 -0.8320 1.1383
vt 1.8271 -0.8291 1.3461
vt 2.5186 -0.8291 1.3406
vt 2.5186 0.1174 1.3348
vt 1.8271 0.1174 1.3403
vt -0.1383 -0.8320 -1.5104
vt -0.1325 0.1145 -1.5105
vt -0.3348 0.1174 -1.5186
vt -0.3406 -0.8291 -1.5186
vt 1.1380 0.1145 -0.8190
vt 1.1438 -0.8320 -0.8189
vt 1.3461 -0.8291 -0.8271
vt 1.3403 0.1174 -0.8271
vt 0.0005 0.9884 0.3561
vt 0.0212 0.0005 0.0005
vt 0.9995 0.0116 0.6437
vt 0.9788 0.9995 0.9995
vt 1.3508 -0.5522 0.5818
vt 1.3507 0.2784 0.5771
vt 1.1787 0.2785 0.5725
vt 1.1787 -0.5521 0.5772
vt -0.3439 -0.5498 0.7606
vt -0.1718 -0.5497 0.7560
vt -0.1717 0.2809 0.7513
vt -0.3438 0.2808 0.7559
vt 0.4228 -0.5521 1.1787
vt 0.4275 0.2785 1.1787
vt 0.2487 0.2809 1.1717
vt 0.2440 -0.5497 1.1718
vt 0.5771 0.2784 1.3507
vt 0.5818 -0.5522 1.3508
vt 0.7606 -0.5498 1.3439
vt 0.7559 0.2808 1.3438
vt 0.1222 0.5147 0.4315
vt 0.1145 0.3515 0.3989
vt 0.8625 0.3518 0.5686
vt 0.8701 0.5150 0.6012
vt -0.5355 -1.0000 -0.2619
vt -0.5355 -0.1534 -0.2665
vt -0.7076 -0.1533 -0.2711
vt -0.7075 -0.9999 -0.2665
vt 1.5424 -0.9976 -0.0831
vt 1.7144 -0.9975 -0.0877
vt 1.7145 -0.1509 -0.0923
vt 1.5424 -0.1510 -0.0877
vt 1.2665 -0.9999 -0.7075
vt 1.2711 -0.1533 -0.7076
vt 1.0923 -0.1509 -0.7145
vt 1.0877 -0.9975 -0.7144
vt -0.2665 -0.1534 -0.5355
vt -0.2619 -1.0000 -0.5355
vt -0.0831 -0.9976 -0.5424
vt -0.0877 -0.1510 -0.5424
vt 0.0871 0.5193 0.4314
vt 0.0844 0.3492 0.3987
vt 0.9164 0.3508 0.5687
vt 0.9191 0.5208 0.6013
vt 0.0493 -0.9956 -0.9220
vt 0.0492 -0.0001 -0.9257
vt -0.1228 -0.0000 -0.9303
vt -0.1227 -0.9955 -0.9266
vt 0.9576 -0.9942 -0.5954
vt 1.1297 -0.9941 -0.6000
vt 1.1298 0.0014 -0.6036
vt 0.9577 0.0013 -0.5990
vt 1.9266 -0.9955 -0.1227
vt 1.9303 -0.0000 -0.1228
vt 1.6036 0.0014 -0.1298
vt 1.6000 -0.9941 -0.1297
vt -0.9257 -0.0001 0.0492
vt -0.9220 -0.9956 0.0493
vt -0.5954 -0.9942 0.0424
vt -0.5990 0.0013 0.0423
vt 0.1667 0.3597 0.3909
vt 0.8284 0.3600 0.3869
vt 0.8328 0.6583 0.6094
vt 0.1711 0.6580 0.6134
vt -0.1127 -0.9903 -1.8053
vt -0.1147 0.0052 -1.8095
vt -0.2848 0.0052 -1.7833
vt -0.2829 -0.9904 -1.7791
vt 1.0620 -0.9885 -1.4826
vt 1.2321 -0.9886 -1.4564
vt 1.2341 0.0069 -1.4607
vt 1.0639 0.0070 -1.4868
vt 2.7791 -0.9904 -0.2829
vt 2.7833 0.0052 -0.2848
vt 2.4607 0.0069 -0.2341
vt 2.4564 -0.9886 -0.2321
vt -1.8095 0.0052 -0.1147
vt -1.8053 -0.9903 -0.1127
vt -1.4826 -0.9885 -0.0620
vt -1.4868 0.0070 -0.0639
vt 0.8569 0.6593 0.4387
vt 0.1402 0.6581 0.4355
vt 0.1428 0.3538 0.5610
vt 0.8594 0.3549 0.5642
vt -0.3169 -0.9896 -2.3806
vt -0.3189 0.0439 -2.3846
vt -0.6244 0.0436 -2.3294
vt -0.6224 -0.9899 -2.3254
vt 1.2662 -0.9878 -2.0579
vt 1.5716 -0.9881 -2.0027
vt 1.5736 0.0454 -2.0067
vt 1.2681 0.0457 -2.0619
vt 3.3254 -0.9899 -0.6224
vt 3.3294 0.0436 -0.6244
vt 3.0067 0.0454 -0.5736
vt 3.0027 -0.9881 -0.5716
vt -2.3846 0.0439 -0.3189
vt -2.3806 -0.9896 -0.3169
vt -2.0579 -0.9878 -0.2662
vt -2.0619 0.0457 -0.2681
vt 0.8492 0.6601 0.4362
vt -0.8792 0.6640 0.4374
vt -0.8648 0.3482 0.5641
vt 0.8636 0.3443 0.5629
vt -2.3065 -1.2952 1.1305
vt -2.3016 -0.2997 1.1403
vt -2.4739 -0.2986 1.1231
vt -2.4788 -1.2941 1.1133
vt 3.2722 -1.2920 0.8076
vt 3.4445 -1.2909 0.7904
vt 3.4396 -0.2954 0.8002
vt 3.2673 -0.2965 0.8174
vt 1.1133 -1.2941 -2.4788
vt 1.1231 -0.2986 -2.4739
vt 0.8002 -0.2954 -2.4396
vt 0.7904 -1.2909 -2.4445
vt -0.1403 -0.2997 -2.3016
vt -0.1305 -1.2952 -2.3065
vt 0.1924 -1.2920 -2.2722
vt 0.1826 -0.2965 -2.2673
vt 0.0930 0.3546 0.3907
vt 0.8983 0.3554 0.3868
vt 0.9012 0.8064 0.6093
vt 0.0960 0.8056 0.6132
vt 1.3424 -0.7132 -0.5019
vt 1.3423 0.2456 -0.5076
vt 0.6328 0.2455 -0.5131
vt 0.6328 -0.7132 -0.5074
vt -0.3341 -0.7144 0.3472
vt 0.3754 -0.7144 0.3416
vt 0.3754 0.2444 0.3360
vt -0.3341 0.2444 0.3415
vt 1.5074 -0.7132 0.6328
vt 1.5131 0.2455 0.6328
vt 0.6640 0.2444 0.6246
vt 0.6584 -0.7144 0.6246
vt -0.5076 0.2456 1.3423
vt -0.5019 -0.7132 1.3424
vt 0.3472 -0.7144 1.3341
vt 0.3415 0.2444 1.3341
vt 0.0005 0.0253 0.9739
vt 0.0301 0.9995 0.0005
vt 0.9995 0.9747 0.0261
vt 0.9699 0.0005 0.9995
vt 0.7139 0.2968 -121.5977
vt 0.2944 0.3069 -121.5122
vt -1.0354 -0.8622 -242.9346
vt 1.9644 -0.9341 -243.5454
vt 0.2808 0.6801 -119.6733
vt 0.7622 0.6723 -119.2500
vt 2.2694 1.8172 -226.3740
vt -1.1738 1.8728 -229.4102
vt 0.3073 0.7009 -119.4224
vt 0.7267 0.6909 -119.5073
vt 2.0560 1.8846 -228.6030
vt -0.9438 1.9565 -227.9917
vt 0.7535 0.2967 -121.4707
vt 0.2722 0.3044 -121.8936
vt -1.2355 -0.8142 -245.2910
vt 2.2077 -0.8697 -242.2559
vt 0.6136 0.9348 0.8872
vt 0.3802 0.9365 0.8813
vt 0.0006 0.0074 0.9747
vt 0.9700 0.0005 0.9995
vt 0.3474 0.9978 0.3793
vt 0.1128 0.9348 0.3864
vt 0.0005 0.0005 0.0300
vt 0.9747 0.2623 0.0004
vt 0.6127 0.9995 0.6467
vt 0.3793 0.9978 0.6526
vt 0.0004 0.2623 0.0253
vt 0.9697 0.2692 0.0005
vt 0.8813 0.9365 0.6198
vt 0.6467 0.9995 0.6127
vt 0.0005 0.2692 0.9697
vt 0.9747 0.0074 0.9994
vt 0.6127 0.6467 0.9995
vt 0.6198 0.8813 0.9365
vt 0.3864 0.8872 0.9348
vt 0.3793 0.6526 0.9978
vt 0.4970 0.9995 0.0447
vt 0.0005 0.0005 0.0009
vt 0.9995 0.0035 0.9998
vt 1.7355 -2.3724 9.1875
vt 1.9407 -2.3733 9.2188
vt 1.9900 2.9392 -132.5078
vt -0.9882 2.8892 -129.6055
vt 0.0030 0.1812 0.0000
vt 0.9970 0.1812 0.0000
vt 0.9970 0.9988 0.0000
vt 0.0030 0.9988 0.0000
vt 0.0368 0.2489 0.0000
vt 0.1014 0.2479 0.0000
vt 0.1024 0.8352 0.0000
vt 0.0379 0.8362 0.0000
vt 0.5853 0.0704 0.0000
vt 0.3269 0.0704 0.0000
vt 0.3265 0.0323 0.0000
vt 0.5848 0.0323 0.0000
vt 0.6591 0.1929 0.0000
vt 0.3351 0.1929 0.0000
vt 0.3472 0.0764 0.0000
vt 0.6469 0.0764 0.0000
vt 0.8463 0.1929 0.0000
vt 0.1479 0.1929 0.0000
vt 0.1738 0.0764 0.0000
vt 0.8200 0.0764 0.0000
vt 0.5848 0.1740 0.0000
vt 0.5853 0.1899 0.0000
vt 0.3269 0.1899 0.0000
vt 0.3265 0.1740 0.0000
vt 7.8150 1.0219 0.0000
vt -5.8643 1.0219 0.0000
vt -5.2756 -0.0042 0.0000
vt 6.0299 -0.0042 0.0000
vt -6.1388 1.0217 0.0000
vt -4.3109 0.0013 0.0000
vt 6.5565 0.0013 0.0000
vt 7.1265 1.0217 0.0000
vt -2.0599 2.9907 0.0000
vt -1.9747 3.9907 0.0000
vt -2.0599 3.9907 0.0000
vt 1.4706 0.0597 0.0000
vt 1.4703 0.1541 0.0000
vt -0.5372 0.1541 0.0000
vt -0.5368 0.0597 0.0000
vt 0.1170 0.0521 0.0000
vt 0.5156 0.0521 0.0000
vt 0.5156 0.1497 0.0000
vt 0.1170 0.1497 0.0000
vt -0.7384 -2.5249 -79.4531
vt 1.9803 2.9165 -32.4648
vt -0.9966 2.8224 -24.7813
vt -0.9436 -2.5283 -79.5859
vt 0.0004 0.9945 0.3574
vt 0.0065 0.0005 1.0020
vt 0.9995 0.0055 0.6465
vt 0.9934 0.9995 0.0020
# 810 texture coords

g Pikk_64_1
usemtl Pikk_64_1_Tex2
s 1
f 1/1/1 2/2/1 3/3/2 4/4/1 
s 2
f 5/5/3 3/6/4 6/7/4 7/8/3 
usemtl Pikk_64_1_Tex4
s 1
f 8/9/5 7/10/6 9/11/7 
usemtl Pikk_64_1_Tex12
f 10/12/1 11/13/1 12/14/1 13/15/1 
usemtl Pikk_64_1_Tex4
f 14/16/8 15/17/2 16/18/9 
usemtl Pikk_64_1_Tex2
f 17/19/10 18/20/10 19/21/10 20/22/10 
s 4
f 21/23/11 3/3/11 2/2/11 22/24/11 
s 2
f 20/25/12 19/26/12 23/27/12 24/28/12 
f 25/29/12 6/30/4 3/31/4 21/32/12 
usemtl Pikk_64_1_Tex4
s 4
f 24/33/10 23/34/10 16/35/10 26/36/10 
f 27/33/11 15/34/11 6/35/11 25/36/11 
s 2
f 26/37/13 16/38/13 15/39/13 27/40/13 
usemtl Pikk_64_1_Tex2
s 1
f 22/24/1 28/41/1 29/42/1 21/23/1 
s 2
f 21/43/12 29/44/12 30/45/12 25/46/12 
f 31/47/12 20/48/12 24/49/12 32/50/12 
s 4
f 33/51/1 17/19/1 20/22/1 31/52/1 
f 34/53/14 30/54/14 29/42/14 28/41/14 
s 1
f 33/51/15 31/52/15 32/55/15 35/56/15 
usemtl Pikk_64_1_Tex4
s 8
f 30/57/1 36/58/2 27/59/2 25/60/1 
f 36/58/2 37/61/2 26/62/2 27/59/2 
f 32/63/1 24/64/1 26/62/2 37/61/2 
s 4
f 11/65/16 32/66/16 37/67/16 12/68/16 
s 16
f 13/69/11 36/70/11 30/71/11 10/72/11 
s 2
f 12/37/13 37/38/13 36/39/13 13/40/13 
s 16
f 34/73/11 10/72/11 30/71/11 
s 4
f 32/66/16 11/65/16 35/74/10 
usemtl Pikk_64_1_Tex2
s 1
f 3/3/2 38/75/2 4/4/1 
f 39/76/17 40/77/18 5/78/19 41/79/20 
f 42/80/1 38/75/2 43/81/21 44/82/1 
usemtl Pikk_64_1_Tex1
f 45/83/1 46/84/1 47/85/1 48/86/1 
usemtl Pikk_64_1_Tex2
f 43/81/21 38/75/2 3/3/2 5/78/19 
f 5/78/19 40/77/18 43/81/21 
s 2
f 46/87/13 4/88/13 38/89/13 47/90/13 
s 4
f 45/87/10 1/88/10 4/89/10 46/90/10 
f 47/87/11 38/88/11 42/89/11 48/90/11 
s 2
f 49/87/13 43/88/13 40/89/13 50/90/13 
s 4
f 51/87/22 44/88/22 43/89/22 49/90/22 
f 50/87/23 40/88/23 39/89/23 52/90/23 
usemtl Pikk_64_1_Tex1
s 1
f 49/91/1 50/92/1 52/93/1 51/94/1 
usemtl Pikk_64_1_Tex4
f 53/95/2 54/96/24 15/17/2 14/16/8 
f 8/9/5 55/97/25 56/98/26 7/10/6 
f 9/11/7 57/99/27 53/95/2 58/100/28 
usemtl Pikk_64_1_Tex3
f 59/101/1 60/102/1 61/103/1 62/104/1 
usemtl Pikk_64_1_Tex4
s 2
f 60/33/10 9/34/10 58/35/10 61/36/10 
s 4
f 59/37/12 8/38/12 9/39/12 60/40/12 
s 2
f 62/33/11 55/34/11 8/35/11 59/36/11 
s 4
f 61/37/13 58/38/13 55/39/13 62/40/13 
s 1
f 63/105/1 6/106/29 15/17/2 54/96/24 
usemtl Pikk_64_1_Tex3
f 64/107/1 65/108/1 66/109/1 67/110/1 
usemtl Pikk_64_1_Tex4
s 2
f 65/33/10 63/34/10 54/35/10 66/36/10 
s 4
f 64/37/12 57/38/12 63/39/12 65/40/12 
s 2
f 67/33/11 53/34/11 57/35/11 64/36/11 
s 4
f 66/37/13 54/38/13 53/39/13 67/40/13 
s 1
f 58/100/28 53/95/2 14/16/8 56/98/26 
f 56/98/26 55/97/25 58/100/28 
f 57/99/27 9/11/7 7/10/6 6/106/29 
f 6/106/29 63/105/1 57/99/27 
usemtl Pikk_64_1_Tex2
f 68/111/30 69/112/31 70/113/32 71/114/30 
s 2
f 72/115/33 73/116/33 74/117/33 70/118/33 
usemtl Pikk_64_1_Tex4
s 1
f 75/119/34 76/120/35 73/121/36 
usemtl Pikk_64_1_Tex3
f 77/122/37 78/123/37 79/124/37 80/125/37 
usemtl Pikk_64_1_Tex4
f 81/126/38 82/127/39 83/128/40 
usemtl Pikk_64_1_Tex2
f 84/129/41 85/130/41 86/131/41 87/132/41 
s 4
f 88/133/42 89/134/42 71/114/42 70/113/42 
s 2
f 85/135/12 90/136/12 91/137/12 86/138/12 
f 92/139/12 88/140/12 70/141/33 74/142/33 
usemtl Pikk_64_1_Tex4
s 4
f 90/33/43 93/34/43 82/35/43 91/36/43 
f 94/33/44 92/34/44 74/35/44 83/36/44 
s 2
f 93/37/13 94/38/13 83/39/13 82/40/13 
usemtl Pikk_64_1_Tex2
s 8
f 84/129/45 89/134/45 88/133/45 85/130/45 
s 2
f 90/143/12 85/144/12 88/145/12 92/146/12 
usemtl Pikk_64_1_Tex4
s 1
f 95/147/46 92/148/47 94/149/48 96/150/49 
f 96/150/49 94/149/48 93/151/50 97/152/37 
f 98/153/37 97/152/37 93/151/50 90/154/51 
s 2
f 79/37/13 78/38/13 96/39/13 97/40/13 
usemtl Pikk_64_1_Tex2
s 1
f 70/113/32 69/112/31 99/155/52 
f 100/156/53 101/157/53 72/158/54 102/159/55 
f 103/160/56 104/161/56 105/162/57 99/155/52 
usemtl Pikk_64_1_Tex1
f 106/163/45 107/164/45 108/165/45 109/166/45 
usemtl Pikk_64_1_Tex2
f 105/162/57 72/158/54 70/113/32 99/155/52 
f 72/158/54 105/162/57 102/159/55 
s 2
f 109/87/13 108/88/13 99/89/13 69/90/13 
s 4
f 106/87/58 109/88/58 69/89/58 68/90/58 
f 108/87/59 107/88/59 103/89/59 99/90/59 
s 2
f 110/87/13 111/88/13 102/89/13 105/90/13 
s 4
f 112/87/58 110/88/58 105/89/58 104/90/58 
f 111/87/60 113/88/60 100/89/60 102/90/60 
usemtl Pikk_64_1_Tex1
s 1
f 110/167/37 112/163/37 113/168/37 111/169/37 
usemtl Pikk_64_1_Tex4
f 114/170/61 81/126/38 83/128/40 115/171/62 
f 75/119/34 73/121/36 116/172/63 117/173/63 
f 76/120/35 118/174/40 114/170/61 119/175/40 
usemtl Pikk_64_1_Tex3
f 120/176/45 121/177/45 122/178/45 123/179/45 
usemtl Pikk_64_1_Tex4
s 2
f 123/33/64 122/34/64 118/35/64 76/36/64 
s 4
f 120/37/12 123/38/12 76/39/12 75/40/12 
s 2
f 121/33/60 120/34/60 75/35/60 117/36/60 
s 4
f 122/37/13 121/38/13 117/39/13 118/40/13 
s 1
f 124/180/65 115/171/62 83/128/40 74/181/66 
usemtl Pikk_64_1_Tex3
f 125/182/67 126/183/67 127/184/67 128/185/67 
usemtl Pikk_64_1_Tex4
s 2
f 128/33/68 127/34/68 115/35/68 124/36/68 
s 4
f 125/37/12 128/38/12 124/39/12 119/40/12 
s 2
f 126/33/69 125/34/69 119/35/69 114/36/69 
s 4
f 127/37/13 126/38/13 114/39/13 115/40/13 
s 1
f 118/174/40 116/172/63 81/126/38 114/170/61 
f 116/172/63 118/174/40 117/173/63 
f 119/175/40 74/181/66 73/121/36 76/120/35 
f 74/181/66 119/175/40 124/180/65 
usemtl Pikk_64_1_Tex2
s 4
f 19/21/70 18/20/70 87/132/70 86/131/70 
s 2
f 23/186/12 19/187/12 86/188/12 91/189/12 
usemtl Pikk_64_1_Tex4
s 1
f 16/18/9 23/190/71 91/191/71 82/127/39 
f 14/16/8 16/18/9 82/127/39 81/126/38 
s 4
f 80/33/72 79/34/72 97/35/72 98/36/72 
f 78/33/73 77/34/73 95/35/73 96/36/73 
s 1
f 90/154/51 92/148/47 95/147/46 98/153/37 
s 2
f 98/37/12 95/38/12 77/39/12 80/40/12 
usemtl Pikk_64_1_Tex5
f 14/192/74 129/193/75 56/194/76 
f 116/195/77 130/196/78 81/197/79 
f 129/193/75 14/192/74 81/197/79 130/196/78 
s 1
f 131/198/80 129/193/81 130/196/82 132/199/82 
usemtl Pikk_64_1_Tex6
s 2
f 133/200/83 131/201/83 132/202/83 134/203/84 
usemtl Pikk_64_1_Tex8
s 1
f 135/204/85 133/205/85 134/206/86 136/207/87 
s 2
f 137/208/88 135/204/88 136/207/89 138/209/89 
s 1
f 139/210/90 137/208/90 138/209/90 140/211/90 
s 2
f 141/212/91 139/210/91 140/211/91 142/213/91 
usemtl Pikk_64_1_Tex9
s 1
f 143/214/92 144/215/93 141/216/94 
usemtl Pikk_64_1_Tex6
f 145/217/95 146/218/95 147/219/95 148/220/96 
s 2
f 149/221/97 147/222/98 146/223/99 150/224/100 
s 1
f 151/225/101 149/221/102 150/224/101 152/226/103 
s 2
f 153/227/104 145/228/105 148/229/106 154/230/107 
s 1
f 155/231/108 153/227/109 154/230/110 156/232/111 
s 2
f 157/233/112 155/234/113 156/235/114 158/236/115 
s 4
f 131/237/116 56/238/116 129/239/117 
f 144/240/116 133/241/118 135/242/118 137/243/116 
f 144/240/116 137/243/116 139/244/116 141/245/116 
f 56/238/116 159/246/116 7/247/116 
f 133/241/118 144/240/116 160/248/116 131/237/116 
f 159/246/116 56/238/116 131/237/116 160/248/116 
f 7/247/116 159/246/116 41/249/116 5/250/119 
s 1
f 158/251/120 159/246/121 160/248/122 157/252/123 
usemtl Pikk_64_1_Tex9
s 2
f 161/253/124 143/254/125 162/255/126 163/256/127 
usemtl Pikk_64_1_Tex6
s 1
f 157/252/123 160/248/122 164/257/128 
usemtl Pikk_64_1_Tex5
s 4
f 165/258/129 166/259/130 146/260/131 
s 8
f 167/261/132 150/262/133 146/263/134 166/264/135 
s 4
f 168/265/136 152/266/137 150/267/138 167/268/139 
s 8
f 169/269/140 145/270/141 153/271/142 170/272/143 
s 4
f 170/273/144 153/274/145 155/275/146 171/276/147 
s 8
f 171/277/148 155/278/149 157/279/150 164/280/151 
usemtl Pikk_64_1_Tex9
s 1
f 172/281/152 168/282/153 167/283/154 173/284/155 
s 2
f 171/285/156 172/286/157 173/287/158 170/288/159 
s 16
f 173/289/160 167/290/160 166/291/160 
s 32
f 170/292/161 173/293/161 169/294/161 
s 8
f 161/295/162 168/296/163 172/297/164 143/298/165 
s 16
f 160/299/166 172/300/167 171/301/168 164/302/169 
f 172/303/167 160/304/166 144/305/170 143/306/171 
s 1
f 143/214/92 141/216/94 142/307/172 162/308/173 
usemtl Pikk_64_1_Tex5
s 16
f 161/309/174 152/310/175 168/311/176 
usemtl Pikk_64_1_Tex6
s 2
f 174/312/177 151/313/177 152/314/178 175/315/179 
usemtl Pikk_64_1_Tex5
s 16
f 175/316/180 152/317/175 161/318/174 163/319/181 
usemtl Pikk_64_1_Tex6
s 4
f 132/320/182 174/321/182 175/322/182 134/323/182 
f 73/324/183 72/325/184 101/326/182 174/321/182 
f 130/327/183 116/328/182 132/320/182 
f 73/324/183 174/321/182 116/328/182 
f 116/328/182 174/321/182 132/320/182 
f 162/329/182 138/330/182 136/331/182 163/332/182 
f 175/322/182 163/332/182 136/331/182 134/323/182 
f 140/333/182 138/330/182 162/329/182 142/334/182 
usemtl Pikk_64_1_Tex3
s 1
f 176/335/185 177/336/185 178/337/186 179/338/187 
s 2
f 180/339/188 178/340/188 177/341/188 181/342/188 
f 182/339/189 176/340/189 179/341/189 183/342/189 
s 1
f 184/343/190 185/344/190 186/345/190 187/346/190 
f 188/347/191 179/348/187 178/349/186 189/350/192 
s 4
f 190/339/193 183/340/193 179/341/193 188/342/193 
f 189/339/194 178/340/194 180/341/194 191/342/194 
s 1
f 192/351/195 188/347/191 189/350/192 193/352/196 
s 2
f 194/339/197 190/340/197 188/341/197 192/342/197 
f 193/339/198 189/340/198 191/341/198 195/342/198 
f 185/344/199 196/353/200 197/354/201 186/345/202 
s 4
f 185/355/117 184/356/117 198/357/117 
f 186/358/203 193/359/204 195/360/205 199/361/206 
s 8
f 196/362/207 192/363/207 193/364/207 197/365/207 
s 16
f 192/366/208 196/367/209 185/355/210 
s 4
f 186/358/203 197/368/211 193/359/204 
s 8
f 199/361/182 187/369/182 186/358/182 
s 16
f 198/357/212 194/370/213 192/366/208 185/355/210 
usemtl Pikk_64_1_Tex7
s 1
f 200/371/214 201/372/214 202/373/214 203/374/214 
s 2
f 204/375/215 202/376/215 201/377/215 205/378/215 
f 206/375/216 200/376/216 203/377/216 207/378/216 
s 1
f 208/379/217 209/380/217 210/381/217 211/382/217 
s 2
f 212/383/218 213/384/219 210/385/220 209/386/221 
f 214/387/222 215/388/223 208/389/224 211/390/225 
s 4
f 213/391/226 214/392/227 211/393/228 210/394/229 
s 1
f 213/395/230 212/396/230 215/397/230 214/398/230 
f 216/399/231 217/400/232 218/401/233 
s 2
f 219/402/234 220/403/235 217/404/236 216/405/237 
s 4
f 221/406/238 222/407/239 216/408/240 218/409/238 
s 8
f 222/405/241 223/402/241 219/403/241 216/404/241 
s 4
f 224/405/242 225/402/243 217/403/243 220/404/244 
s 1
f 223/410/245 224/411/245 220/412/245 219/413/245 
f 226/414/246 227/415/247 228/416/248 
s 2
f 229/402/249 230/403/250 227/404/251 226/405/252 
s 4
f 231/406/253 232/407/253 228/408/253 227/409/254 
f 233/405/255 234/402/255 229/403/255 226/404/255 
s 8
f 235/405/256 231/402/257 227/403/256 230/404/256 
s 1
f 234/410/258 235/411/258 230/412/258 229/413/258 
f 226/414/246 228/416/248 218/401/233 217/400/232 
s 8
f 233/379/259 226/380/259 217/381/259 225/382/259 
s 4
f 203/375/260 202/376/260 204/377/260 207/378/260 
usemtl Pikk_64_1_Tex3
s 1
f 236/335/185 237/336/185 238/337/186 239/338/187 
s 2
f 240/339/188 238/340/188 237/341/188 241/342/188 
f 242/339/189 236/340/189 239/341/189 243/342/189 
s 1
f 244/343/190 245/344/190 246/345/190 247/346/190 
f 248/347/191 239/348/187 238/349/186 249/350/192 
s 4
f 250/339/193 243/340/193 239/341/193 248/342/193 
f 249/339/194 238/340/194 240/341/194 251/342/194 
s 1
f 252/351/195 248/347/191 249/350/192 253/352/196 
s 2
f 254/339/197 250/340/197 248/341/197 252/342/197 
f 253/339/198 249/340/198 251/341/198 255/342/198 
f 245/344/199 256/353/200 257/354/201 246/345/202 
s 4
f 245/355/117 244/356/117 258/357/117 
f 246/358/203 253/359/204 255/360/205 259/361/206 
s 8
f 256/362/207 252/363/207 253/364/207 257/365/207 
s 16
f 252/366/208 256/367/209 245/355/210 
s 4
f 246/358/203 257/368/211 253/359/204 
s 8
f 259/361/182 247/369/182 246/358/182 
s 16
f 258/357/212 254/370/213 252/366/208 245/355/210 
usemtl Pikk_64_1_Tex7
s 1
f 260/371/214 261/372/214 262/373/214 263/374/214 
s 2
f 264/375/215 262/376/215 261/377/215 265/378/215 
f 266/375/216 260/376/216 263/377/216 267/378/216 
s 1
f 268/379/217 269/380/217 270/381/217 271/382/217 
s 2
f 272/383/218 273/384/219 270/385/220 269/386/221 
f 274/387/222 275/388/223 268/389/224 271/390/225 
s 4
f 273/391/226 274/392/227 271/393/228 270/394/229 
s 1
f 273/395/230 272/396/230 275/397/230 274/398/230 
f 276/399/231 277/400/232 278/401/233 
s 2
f 279/402/234 280/403/235 277/404/236 276/405/237 
s 4
f 281/406/238 282/407/239 276/408/240 278/409/238 
s 8
f 282/405/241 283/402/241 279/403/241 276/404/241 
s 4
f 284/405/242 285/402/243 277/403/243 280/404/244 
s 1
f 283/410/245 284/411/245 280/412/245 279/413/245 
f 286/414/246 287/415/247 288/416/248 
s 2
f 289/402/249 290/403/250 287/404/251 286/405/252 
s 4
f 291/406/253 292/407/253 288/408/253 287/409/254 
f 293/405/255 294/402/255 289/403/255 286/404/255 
s 8
f 295/405/256 291/402/257 287/403/256 290/404/256 
s 1
f 294/410/258 295/411/258 290/412/258 289/413/258 
f 286/414/246 288/416/248 278/401/233 277/400/232 
s 8
f 293/379/259 286/380/259 277/381/259 285/382/259 
s 4
f 263/375/260 262/376/260 264/377/260 267/378/260 
usemtl Pikk_64_1_Tex3
s 1
f 296/335/185 297/336/185 298/337/186 299/338/187 
s 2
f 300/339/188 298/340/188 297/341/188 301/342/188 
f 302/339/189 296/340/189 299/341/189 303/342/189 
s 1
f 304/343/190 305/344/190 306/345/190 307/346/190 
f 308/347/191 299/348/187 298/349/186 309/350/192 
s 4
f 310/339/193 303/340/193 299/341/193 308/342/193 
f 309/339/194 298/340/194 300/341/194 311/342/194 
s 1
f 312/351/195 308/347/191 309/350/192 313/352/196 
s 2
f 314/339/197 310/340/197 308/341/197 312/342/197 
f 313/339/198 309/340/198 311/341/198 315/342/198 
f 305/344/199 316/353/200 317/354/201 306/345/202 
s 4
f 305/355/117 304/356/117 318/357/117 
f 306/358/203 313/359/204 315/360/205 319/361/206 
s 8
f 316/362/207 312/363/207 313/364/207 317/365/207 
s 16
f 312/366/208 316/367/209 305/355/210 
s 4
f 306/358/203 317/368/211 313/359/204 
s 8
f 319/361/182 307/369/182 306/358/182 
s 16
f 318/357/212 314/370/213 312/366/208 305/355/210 
usemtl Pikk_64_1_Tex7
s 1
f 320/371/214 321/372/214 322/373/214 323/374/214 
s 2
f 324/375/215 322/376/215 321/377/215 325/378/215 
f 326/375/216 320/376/216 323/377/216 327/378/216 
s 1
f 328/379/217 329/380/217 330/381/217 331/382/217 
s 2
f 332/383/218 333/384/219 330/385/220 329/386/221 
f 334/387/222 335/388/223 328/389/224 331/390/225 
s 4
f 333/391/226 334/392/227 331/393/228 330/394/229 
s 1
f 333/395/230 332/396/230 335/397/230 334/398/230 
f 336/399/231 337/400/232 338/401/233 
s 2
f 339/402/234 340/403/235 337/404/236 336/405/237 
s 4
f 341/406/238 342/407/239 336/408/240 338/409/238 
s 8
f 342/405/241 343/402/241 339/403/241 336/404/241 
s 4
f 344/405/242 345/402/243 337/403/243 340/404/244 
s 1
f 343/410/245 344/411/245 340/412/245 339/413/245 
f 346/414/246 347/415/247 348/416/248 
s 2
f 349/402/249 350/403/250 347/404/251 346/405/252 
s 4
f 351/406/253 352/407/253 348/408/253 347/409/254 
f 353/405/255 354/402/255 349/403/255 346/404/255 
s 8
f 355/405/256 351/402/257 347/403/256 350/404/256 
s 1
f 354/410/258 355/411/258 350/412/258 349/413/258 
f 346/414/246 348/416/248 338/401/233 337/400/232 
s 8
f 353/379/259 346/380/259 337/381/259 345/382/259 
s 4
f 323/375/260 322/376/260 324/377/260 327/378/260 
usemtl Pikk_64_1_Tex3
s 1
f 356/335/185 357/336/185 358/337/186 359/338/187 
s 2
f 360/339/188 358/340/188 357/341/188 361/342/188 
f 362/339/189 356/340/189 359/341/189 363/342/189 
s 1
f 364/343/190 365/344/190 366/345/190 367/346/190 
f 368/347/191 359/348/187 358/349/186 369/350/192 
s 4
f 370/339/193 363/340/193 359/341/193 368/342/193 
f 369/339/194 358/340/194 360/341/194 371/342/194 
s 1
f 372/351/195 368/347/191 369/350/192 373/352/196 
s 2
f 374/339/197 370/340/197 368/341/197 372/342/197 
f 373/339/198 369/340/198 371/341/198 375/342/198 
f 365/344/199 376/353/200 377/354/201 366/345/202 
s 4
f 365/355/117 364/356/117 378/357/117 
f 366/358/203 373/359/204 375/360/205 379/361/206 
s 8
f 376/362/207 372/363/207 373/364/207 377/365/207 
s 16
f 372/366/208 376/367/209 365/355/210 
s 4
f 366/358/203 377/368/211 373/359/204 
s 8
f 379/361/182 367/369/182 366/358/182 
s 16
f 378/357/212 374/370/213 372/366/208 365/355/210 
usemtl Pikk_64_1_Tex7
s 1
f 380/371/214 381/372/214 382/373/214 383/374/214 
s 2
f 384/375/215 382/376/215 381/377/215 385/378/215 
f 386/375/216 380/376/216 383/377/216 387/378/216 
s 1
f 388/379/217 389/380/217 390/381/217 391/382/217 
s 2
f 392/383/218 393/384/219 390/385/220 389/386/221 
f 394/387/222 395/388/223 388/389/224 391/390/225 
s 4
f 393/391/226 394/392/227 391/393/228 390/394/229 
s 1
f 393/395/230 392/396/230 395/397/230 394/398/230 
f 396/399/231 397/400/232 398/401/233 
s 2
f 399/402/234 400/403/235 397/404/236 396/405/237 
s 4
f 401/406/238 402/407/239 396/408/240 398/409/238 
s 8
f 402/405/241 403/402/241 399/403/241 396/404/241 
s 4
f 404/405/242 405/402/243 397/403/243 400/404/244 
s 1
f 403/410/245 404/411/245 400/412/245 399/413/245 
f 406/414/246 407/415/247 408/416/248 
s 2
f 409/402/249 410/403/250 407/404/251 406/405/252 
s 4
f 411/406/253 412/407/253 408/408/253 407/409/254 
f 413/405/255 414/402/255 409/403/255 406/404/255 
s 8
f 415/405/256 411/402/257 407/403/256 410/404/256 
s 1
f 414/410/258 415/411/258 410/412/258 409/413/258 
f 406/414/246 408/416/248 398/401/233 397/400/232 
s 8
f 413/379/259 406/380/259 397/381/259 405/382/259 
s 4
f 383/375/260 382/376/260 384/377/260 387/378/260 
usemtl Pikk_64_1_Tex3
s 1
f 416/335/185 417/336/185 418/337/186 419/338/187 
s 2
f 420/339/188 418/340/188 417/341/188 421/342/188 
f 422/339/189 416/340/189 419/341/189 423/342/189 
s 1
f 424/343/190 425/344/190 426/345/190 427/346/190 
f 428/347/191 419/348/187 418/349/186 429/350/192 
s 4
f 430/339/193 423/340/193 419/341/193 428/342/193 
f 429/339/194 418/340/194 420/341/194 431/342/194 
s 1
f 432/351/195 428/347/191 429/350/192 433/352/196 
s 2
f 434/339/197 430/340/197 428/341/197 432/342/197 
f 433/339/198 429/340/198 431/341/198 435/342/198 
f 425/344/199 436/353/200 437/354/201 426/345/202 
s 4
f 425/355/117 424/356/117 438/357/117 
f 426/358/203 433/359/204 435/360/205 439/361/206 
s 8
f 436/362/207 432/363/207 433/364/207 437/365/207 
s 16
f 432/366/208 436/367/209 425/355/210 
s 4
f 426/358/203 437/368/211 433/359/204 
s 8
f 439/361/182 427/369/182 426/358/182 
s 16
f 438/357/212 434/370/213 432/366/208 425/355/210 
usemtl Pikk_64_1_Tex7
s 1
f 440/371/214 441/372/214 442/373/214 443/374/214 
s 2
f 444/375/215 442/376/215 441/377/215 445/378/215 
f 446/375/216 440/376/216 443/377/216 447/378/216 
s 1
f 448/379/217 449/380/217 450/381/217 451/382/217 
s 2
f 452/383/218 453/384/219 450/385/220 449/386/221 
f 454/387/222 455/388/223 448/389/224 451/390/225 
s 4
f 453/391/226 454/392/227 451/393/228 450/394/229 
s 1
f 453/395/230 452/396/230 455/397/230 454/398/230 
f 456/399/231 457/400/232 458/401/233 
s 2
f 459/402/234 460/403/235 457/404/236 456/405/237 
s 4
f 461/406/238 462/407/239 456/408/240 458/409/238 
s 8
f 462/405/241 463/402/241 459/403/241 456/404/241 
s 4
f 464/405/242 465/402/243 457/403/243 460/404/244 
s 1
f 463/410/245 464/411/245 460/412/245 459/413/245 
f 466/414/246 467/415/247 468/416/248 
s 2
f 469/402/249 470/403/250 467/404/251 466/405/252 
s 4
f 471/406/253 472/407/253 468/408/253 467/409/254 
f 473/405/255 474/402/255 469/403/255 466/404/255 
s 8
f 475/405/256 471/402/257 467/403/256 470/404/256 
s 1
f 474/410/258 475/411/258 470/412/258 469/413/258 
f 466/414/246 468/416/248 458/401/233 457/400/232 
s 8
f 473/379/259 466/380/259 457/381/259 465/382/259 
s 4
f 443/375/260 442/376/260 444/377/260 447/378/260 
usemtl Pikk_64_1_Tex3
s 1
f 476/335/185 477/336/185 478/337/186 479/338/187 
s 2
f 480/339/188 478/340/188 477/341/188 481/342/188 
f 482/339/189 476/340/189 479/341/189 483/342/189 
s 1
f 484/343/190 485/344/190 486/345/190 487/346/190 
f 488/347/191 479/348/187 478/349/186 489/350/192 
s 4
f 490/339/193 483/340/193 479/341/193 488/342/193 
f 489/339/194 478/340/194 480/341/194 491/342/194 
s 1
f 492/351/195 488/347/191 489/350/192 493/352/196 
s 2
f 494/339/197 490/340/197 488/341/197 492/342/197 
f 493/339/198 489/340/198 491/341/198 495/342/198 
f 485/344/199 496/353/200 497/354/201 486/345/202 
s 4
f 485/355/117 484/356/117 498/357/117 
f 486/358/203 493/359/204 495/360/205 499/361/206 
s 8
f 496/362/207 492/363/207 493/364/207 497/365/207 
s 16
f 492/366/208 496/367/209 485/355/210 
s 4
f 486/358/203 497/368/211 493/359/204 
s 8
f 499/361/182 487/369/182 486/358/182 
s 16
f 498/357/212 494/370/213 492/366/208 485/355/210 
usemtl Pikk_64_1_Tex7
s 1
f 500/371/214 501/372/214 502/373/214 503/374/214 
s 2
f 504/375/215 502/376/215 501/377/215 505/378/215 
f 506/375/216 500/376/216 503/377/216 507/378/216 
s 1
f 508/379/217 509/380/217 510/381/217 511/382/217 
s 2
f 512/383/218 513/384/219 510/385/220 509/386/221 
f 514/387/222 515/388/223 508/389/224 511/390/225 
s 4
f 513/391/226 514/392/227 511/393/228 510/394/229 
s 1
f 513/395/230 512/396/230 515/397/230 514/398/230 
f 516/399/231 517/400/232 518/401/233 
s 2
f 519/402/234 520/403/235 517/404/236 516/405/237 
s 4
f 521/406/238 522/407/239 516/408/240 518/409/238 
s 8
f 522/405/241 523/402/241 519/403/241 516/404/241 
s 4
f 524/405/242 525/402/243 517/403/243 520/404/244 
s 1
f 523/410/245 524/411/245 520/412/245 519/413/245 
f 526/414/246 527/415/247 528/416/248 
s 2
f 529/402/249 530/403/250 527/404/251 526/405/252 
s 4
f 531/406/253 532/407/253 528/408/253 527/409/254 
f 533/405/255 534/402/255 529/403/255 526/404/255 
s 8
f 535/405/256 531/402/257 527/403/256 530/404/256 
s 1
f 534/410/258 535/411/258 530/412/258 529/413/258 
f 526/414/246 528/416/248 518/401/233 517/400/232 
s 8
f 533/379/259 526/380/259 517/381/259 525/382/259 
s 4
f 503/375/260 502/376/260 504/377/260 507/378/260 
usemtl Pikk_64_1_Tex10
s 1
f 536/417/261 537/418/262 538/419/263 539/420/264 
s 2
f 537/421/265 540/422/266 541/423/267 538/424/268 
f 542/425/269 536/426/270 539/427/269 543/428/271 
s 4
f 543/429/272 539/430/273 538/431/274 544/432/275 
s 1
f 545/433/276 541/434/277 540/435/277 546/436/278 
s 4
f 544/432/275 538/431/274 541/437/279 545/438/280 
f 546/439/281 540/440/282 537/441/283 547/442/284 
f 547/442/284 537/441/283 536/443/285 542/444/286 
s 1
f 548/445/287 549/446/288 550/447/289 551/448/290 
s 2
f 552/449/291 553/450/292 554/451/293 555/452/294 
f 553/450/292 552/449/291 549/446/295 548/445/296 
s 4
f 556/453/297 550/454/298 549/455/299 557/456/300 
f 558/457/301 552/458/302 555/459/303 559/460/304 
f 557/456/300 549/455/299 552/458/302 558/457/301 
s 1
f 559/461/305 555/462/306 554/463/307 560/464/308 
s 4
f 560/465/309 554/466/310 553/467/311 561/468/312 
f 561/468/312 553/467/311 548/469/313 562/470/314 
s 2
f 563/471/315 551/472/316 550/473/315 556/474/317 
s 4
f 562/470/314 548/469/313 551/475/318 563/476/319 
s 1
f 564/477/320 565/478/320 566/479/320 567/480/320 
f 568/481/321 569/482/321 570/483/321 571/484/321 
s 2
f 567/485/322 566/486/322 570/487/322 569/488/322 
f 565/489/323 564/490/323 568/491/323 571/492/323 
usemtl Pikk_64_1_Tex11
s 4
f 566/493/324 565/494/324 571/495/324 570/496/324 
usemtl Pikk_64_1_Tex10
s 1
f 572/497/325 573/498/325 574/499/325 575/500/325 
f 576/501/326 577/502/326 578/503/326 579/504/326 
s 2
f 575/505/327 574/506/327 578/507/327 577/508/327 
f 573/509/328 572/510/328 576/511/328 579/512/328 
usemtl Pikk_64_1_Tex11
s 4
f 574/513/329 573/514/329 579/515/329 578/516/330 
usemtl Pikk_64_1_Tex10
s 1
f 580/517/331 581/518/331 582/519/331 583/520/331 
f 584/521/332 585/522/332 586/523/332 587/524/332 
s 2
f 583/525/327 582/526/327 586/527/327 585/528/327 
f 581/529/333 580/530/333 584/531/333 587/532/333 
usemtl Pikk_64_1_Tex11
s 4
f 582/533/329 581/534/329 587/535/329 586/536/330 
usemtl Pikk_64_1_Tex10
s 1
f 588/537/334 589/538/334 590/539/334 591/540/334 
f 592/541/335 593/542/335 594/543/335 595/544/335 
s 2
f 591/545/327 590/546/327 594/547/327 593/548/327 
f 589/549/333 588/550/333 592/551/333 595/552/333 
usemtl Pikk_64_1_Tex11
s 4
f 590/553/336 589/554/336 595/555/336 594/556/336 
usemtl Pikk_64_1_Tex10
s 1
f 596/557/337 597/558/337 598/559/337 599/560/337 
f 600/561/338 601/562/338 602/563/338 603/564/338 
s 2
f 599/565/327 598/566/327 602/567/327 601/568/327 
f 597/569/333 596/570/333 600/571/333 603/572/333 
usemtl Pikk_64_1_Tex11
s 4
f 598/573/336 597/574/336 603/575/336 602/576/336 
usemtl Pikk_64_1_Tex10
s 1
f 604/577/339 605/578/339 606/579/339 607/580/339 
f 608/581/340 609/582/340 610/583/340 611/584/340 
s 2
f 607/585/341 606/586/341 610/587/341 609/588/341 
f 605/589/342 604/590/342 608/591/342 611/592/342 
usemtl Pikk_64_1_Tex11
s 4
f 606/593/343 605/594/343 611/595/343 610/596/343 
usemtl Pikk_64_1_Tex10
s 1
f 612/597/344 613/598/344 614/599/344 615/600/344 
f 616/601/345 617/602/345 618/603/345 619/604/345 
s 2
f 615/605/341 614/606/341 618/607/341 617/608/341 
f 613/609/342 612/610/342 616/611/342 619/612/342 
usemtl Pikk_64_1_Tex11
s 4
f 614/613/343 613/614/343 619/615/343 618/616/343 
usemtl Pikk_64_1_Tex10
s 1
f 620/617/346 621/618/346 622/619/346 623/620/346 
f 624/621/347 625/622/347 626/623/347 627/624/347 
s 2
f 623/625/348 622/626/348 626/627/348 625/628/348 
f 621/629/349 620/630/349 624/631/349 627/632/349 
usemtl Pikk_64_1_Tex11
s 4
f 622/633/350 621/634/350 627/635/350 626/636/350 
usemtl Pikk_64_1_Tex10
s 1
f 628/637/351 629/638/351 630/639/351 631/640/351 
f 632/641/352 633/642/352 634/643/352 635/644/352 
s 2
f 631/645/353 630/646/353 634/647/353 633/648/353 
f 629/649/354 628/650/354 632/651/354 635/652/354 
usemtl Pikk_64_1_Tex11
s 4
f 630/653/355 629/654/355 635/655/355 634/656/355 
usemtl Pikk_64_1_Tex10
s 1
f 636/657/356 637/658/356 638/659/356 639/660/356 
f 640/661/357 641/662/357 642/663/357 643/664/357 
s 2
f 639/665/353 638/666/353 642/667/353 641/668/353 
f 637/669/354 636/670/354 640/671/354 643/672/354 
usemtl Pikk_64_1_Tex11
s 4
f 638/673/358 637/674/358 643/675/358 642/676/358 
usemtl Pikk_64_1_Tex10
s 1
f 644/677/359 645/678/359 646/679/359 647/680/359 
f 648/681/360 649/682/360 650/683/360 651/684/360 
s 2
f 647/685/361 646/686/361 650/687/361 649/688/361 
f 645/689/362 644/690/362 648/691/362 651/692/362 
usemtl Pikk_64_1_Tex11
s 4
f 646/693/363 645/694/363 651/695/363 650/696/363 
usemtl Pikk_64_1_Tex10
s 1
f 652/697/364 653/698/364 654/699/364 655/700/365 
f 656/701/366 657/702/366 658/703/366 659/704/366 
s 2
f 655/705/367 654/706/367 658/707/367 657/708/367 
f 653/709/368 652/710/368 656/711/368 659/712/368 
s 1
f 660/713/369 661/714/369 662/715/369 663/716/369 
usemtl Pikk_64_1_Tex9
s 2
f 664/717/370 665/718/370 662/719/370 661/720/370 
s 4
f 666/721/371 664/722/371 661/723/371 660/724/371 
s 2
f 667/725/372 666/726/372 660/727/372 663/728/372 
s 4
f 665/729/373 667/730/373 663/731/373 662/732/373 
usemtl Pikk_64_1_Tex10
s 1
f 668/733/374 669/734/375 665/735/376 664/736/377 
s 8
f 670/737/378 668/738/378 664/739/378 666/740/378 
s 1
f 671/741/379 670/742/379 666/743/379 667/744/379 
s 8
f 669/745/380 671/746/380 667/747/380 665/748/380 
s 2
f 671/749/381 669/750/381 668/751/381 670/752/381 
usemtl Pikk_64_1_Tex6
s 1
f 672/753/382 165/754/382 673/755/382 
usemtl Pikk_64_1_Tex9
s 64
f 166/756/383 674/757/384 675/758/385 173/759/386 
usemtl Pikk_64_1_Tex7
s 1
f 676/760/387 677/761/387 678/762/387 679/763/387 
s 2
f 680/764/388 678/765/388 677/766/389 681/767/389 
f 682/764/390 676/765/390 679/766/391 683/767/391 
s 1
f 684/768/392 685/769/392 686/770/392 687/771/392 
s 2
f 688/772/393 689/773/394 686/774/393 685/775/395 
f 690/772/396 691/773/397 684/774/396 687/775/398 
s 4
f 689/776/399 690/777/400 687/778/401 686/779/402 
s 1
f 689/780/403 688/781/403 691/782/403 690/783/403 
s 4
f 679/764/404 678/765/404 680/766/404 683/767/404 
s 1
f 692/760/387 693/761/387 694/762/387 695/763/387 
s 2
f 696/764/388 694/765/388 693/766/389 697/767/389 
f 698/764/390 692/765/390 695/766/391 699/767/391 
s 1
f 700/768/392 701/769/392 702/770/392 703/771/392 
s 2
f 704/772/393 705/773/394 702/774/393 701/775/395 
f 706/772/396 707/773/397 700/774/396 703/775/398 
s 4
f 705/776/399 706/777/400 703/778/401 702/779/402 
s 1
f 705/780/403 704/781/403 707/782/403 706/783/403 
s 4
f 695/764/404 694/765/404 696/766/404 699/767/404 
s 1
f 708/760/387 709/761/387 710/762/387 711/763/387 
s 2
f 712/764/388 710/765/388 709/766/389 713/767/389 
f 714/764/390 708/765/390 711/766/391 715/767/391 
s 1
f 716/768/392 717/769/392 718/770/392 719/771/392 
s 2
f 720/772/393 721/773/394 718/774/393 717/775/395 
f 722/772/396 723/773/397 716/774/396 719/775/398 
s 4
f 721/776/399 722/777/400 719/778/401 718/779/402 
s 1
f 721/780/403 720/781/403 723/782/403 722/783/403 
s 4
f 711/764/404 710/765/404 712/766/404 715/767/404 
s 1
f 724/760/387 725/761/387 726/762/387 727/763/387 
s 2
f 728/764/388 726/765/388 725/766/389 729/767/389 
f 730/764/390 724/765/390 727/766/391 731/767/391 
s 1
f 732/768/392 733/769/392 734/770/392 735/771/392 
s 2
f 736/772/393 737/773/394 734/774/393 733/775/395 
f 738/772/396 739/773/397 732/774/396 735/775/398 
s 4
f 737/776/399 738/777/400 735/778/401 734/779/402 
s 1
f 737/780/403 736/781/403 739/782/403 738/783/403 
s 4
f 727/764/404 726/765/404 728/766/404 731/767/404 
s 1
f 740/760/387 741/761/387 742/762/387 743/763/387 
s 2
f 744/764/388 742/765/388 741/766/389 745/767/389 
f 746/764/390 740/765/390 743/766/391 747/767/391 
s 1
f 748/768/392 749/769/392 750/770/392 751/771/392 
s 2
f 752/772/393 753/773/394 750/774/393 749/775/395 
f 754/772/396 755/773/397 748/774/396 751/775/398 
s 4
f 753/776/399 754/777/400 751/778/401 750/779/402 
s 1
f 753/780/403 752/781/403 755/782/403 754/783/403 
s 4
f 743/764/404 742/765/404 744/766/404 747/767/404 
s 1
f 756/760/387 757/761/387 758/762/387 759/763/387 
s 2
f 760/764/388 758/765/388 757/766/389 761/767/389 
f 762/764/390 756/765/390 759/766/391 763/767/391 
s 1
f 764/768/392 765/769/392 766/770/392 767/771/392 
s 2
f 768/772/393 769/773/394 766/774/393 765/775/395 
f 770/772/396 771/773/397 764/774/396 767/775/398 
s 4
f 769/776/399 770/777/400 767/778/401 766/779/402 
s 1
f 769/780/403 768/781/403 771/782/403 770/783/403 
s 4
f 759/764/404 758/765/404 760/766/404 763/767/404 
s 1
f 772/760/387 773/761/387 774/762/387 775/763/387 
s 2
f 776/764/388 774/765/388 773/766/389 777/767/389 
f 778/764/390 772/765/390 775/766/391 779/767/391 
s 1
f 780/768/392 781/769/392 782/770/392 783/771/392 
s 2
f 784/772/393 785/773/394 782/774/393 781/775/395 
f 786/772/396 787/773/397 780/774/396 783/775/398 
s 4
f 785/776/399 786/777/400 783/778/401 782/779/402 
s 1
f 785/780/403 784/781/403 787/782/403 786/783/403 
s 4
f 775/764/404 774/765/404 776/766/404 779/767/404 
s 1
f 788/760/387 789/761/387 790/762/387 791/763/387 
s 2
f 792/764/388 790/765/388 789/766/389 793/767/389 
f 794/764/390 788/765/390 791/766/391 795/767/391 
s 1
f 796/768/392 797/769/392 798/770/392 799/771/392 
s 2
f 800/772/393 801/773/394 798/774/393 797/775/395 
f 802/772/396 803/773/397 796/774/396 799/775/398 
s 4
f 801/776/399 802/777/400 799/778/401 798/779/402 
s 1
f 801/780/403 800/781/403 803/782/403 802/783/403 
s 4
f 791/764/404 790/765/404 792/766/404 795/767/404 
s 1
f 804/760/387 805/761/387 806/762/387 807/763/387 
s 2
f 808/764/388 806/765/388 805/766/389 809/767/389 
f 810/764/390 804/765/390 807/766/391 811/767/391 
s 1
f 812/768/392 813/769/392 814/770/392 815/771/392 
s 2
f 816/772/393 817/773/394 814/774/393 813/775/395 
f 818/772/396 819/773/397 812/774/396 815/775/398 
s 4
f 817/776/399 818/777/400 815/778/401 814/779/402 
s 1
f 817/780/403 816/781/403 819/782/403 818/783/403 
s 4
f 807/764/404 806/765/404 808/766/404 811/767/404 
usemtl Pikk_64_1_Tex5
s 1
f 820/784/382 675/785/382 821/786/382 822/787/382 
f 674/788/382 823/789/382 821/790/382 675/791/382 
s 4
f 165/258/129 146/260/131 145/792/405 673/793/406 
f 145/792/405 169/794/406 673/793/406 
s 2
f 822/795/407 821/796/407 672/797/407 673/798/407 
s 16
f 820/799/408 822/800/408 673/801/408 169/802/408 
usemtl Pikk_64_1_Tex9
s 128
f 169/803/409 173/804/410 675/805/411 820/806/412 
usemtl Pikk_64_1_Tex5
s 2
f 823/799/408 674/800/408 166/801/408 165/802/408 
s 8
f 821/798/413 823/795/413 165/796/413 672/797/413 
usemtl Pikk_64_1_Tex13
s 4
f 824/807/70 825/808/70 826/809/70 827/810/70 
f 828/807/70 829/808/70 830/809/70 831/810/70 
# 528 polygons - 65 triangles

