# 3ds Max Wavefront OBJ Exporter v0.97b - (c)2007 guruware
# File Created: 03.04.2011 11:46:25

mtllib Pikk_64_1-origo.mtl

#
# object Pikk_64_1
#

v  542494.5005 6589559.2929 15.5613
v  542494.2841 6589558.0467 15.5452
v  542494.2841 6589558.0467 16.9985
v  542494.5005 6589559.2929 16.5347
v  542495.5015 6589565.0599 16.9985
v  542494.3638 6589558.0783 16.9985
v  542495.5775 6589565.0457 16.9989
v  542495.2803 6589563.3564 17.4222
v  542495.0787 6589562.1954 17.4222
v  542494.641 6589557.6427 15.5141
v  542494.3826 6589556.155 15.5141
v  542494.3827 6589556.155 19.3602
v  542494.641 6589557.6427 19.3602
v  542494.3638 6589558.0783 20.5824
v  542494.3638 6589558.0783 19.5560
v  542493.9727 6589555.8261 19.5560
v  542494.0664 6589555.8751 15.5452
v  542493.9117 6589555.9019 15.5452
v  542493.9117 6589555.9019 16.9985
v  542494.0664 6589555.8751 16.9985
v  542494.4389 6589558.0198 16.9985
v  542494.4389 6589558.0198 15.5452
v  542493.9727 6589555.8261 16.9985
v  542494.1274 6589555.7993 16.9985
v  542494.5185 6589558.0515 16.9985
v  542494.1274 6589555.7993 19.5560
v  542494.5185 6589558.0515 19.5560
v  542494.3848 6589557.7088 15.5452
v  542494.3848 6589557.7088 16.9985
v  542494.4532 6589557.6753 16.9985
v  542494.1182 6589556.1732 16.9985
v  542494.1948 6589556.1876 16.9985
v  542494.1182 6589556.1732 15.5452
v  542494.4532 6589557.6753 15.5452
v  542494.1948 6589556.1876 15.5452
v  542494.4532 6589557.6753 19.3602
v  542494.1949 6589556.1876 19.3602
v  542494.6735 6589560.2888 16.5347
v  542495.1949 6589563.2917 15.5452
v  542495.1949 6589563.2917 16.5347
v  542495.5058 6589565.0597 15.5456
v  542494.6735 6589560.2888 15.5613
v  542495.0174 6589562.2694 16.5347
v  542495.0174 6589562.2694 15.5452
v  542494.605 6589559.2748 15.5613
v  542494.605 6589559.2748 16.5347
v  542494.778 6589560.2707 16.5347
v  542494.778 6589560.2707 15.5613
v  542495.1216 6589562.2513 16.5347
v  542495.2991 6589563.2737 16.5347
v  542495.1216 6589562.2513 15.5452
v  542495.2991 6589563.2737 15.5452
v  542494.7717 6589560.4275 19.4749
v  542494.5518 6589559.1608 19.4749
v  542495.2803 6589563.3564 19.4238
v  542495.5773 6589565.0442 20.5828
v  542494.7717 6589560.4275 17.4355
v  542495.0787 6589562.1954 19.4238
v  542495.4469 6589563.3275 17.4222
v  542495.2453 6589562.1665 17.4222
v  542495.2453 6589562.1665 19.4238
v  542495.4469 6589563.3275 19.4238
v  542494.5518 6589559.1608 17.4355
v  542494.9795 6589560.3914 17.4355
v  542494.7596 6589559.1248 17.4355
v  542494.7596 6589559.1248 19.4749
v  542494.9795 6589560.3914 19.4749
v  542493.2767 6589552.4154 15.5527
v  542493.2767 6589552.4154 16.5347
v  542493.3699 6589552.8744 16.9985
v  542493.3699 6589552.8744 15.5452
v  542492.0441 6589545.5801 16.9985
v  542492.1159 6589545.5667 16.9985
v  542493.4337 6589552.8172 16.9985
v  542492.4373 6589547.3341 17.4222
v  542492.648 6589548.4935 17.4222
v  542493.7705 6589553.2422 17.4119
v  542493.7705 6589553.2422 19.4144
v  542493.9907 6589554.4502 19.4144
v  542493.9907 6589554.4502 17.4119
v  542493.4337 6589552.8172 20.5824
v  542493.834 6589555.0199 19.5560
v  542493.4337 6589552.8172 19.5560
v  542493.9052 6589554.9417 15.5452
v  542493.9052 6589554.9417 16.9985
v  542493.7507 6589554.9697 16.9985
v  542493.7507 6589554.9697 15.5452
v  542493.5244 6589552.8463 16.9985
v  542493.5244 6589552.8463 15.5452
v  542493.9885 6589554.9918 16.9985
v  542493.834 6589555.0199 16.9985
v  542493.5882 6589552.7891 16.9985
v  542493.9885 6589554.9918 19.5560
v  542493.5882 6589552.7891 19.5560
v  542493.673 6589553.2608 17.4119
v  542493.673 6589553.2608 19.4144
v  542493.8932 6589554.4688 19.4144
v  542493.8932 6589554.4688 17.4119
v  542493.096 6589551.4209 16.5347
v  542492.7263 6589549.4414 15.5452
v  542492.0442 6589545.5807 15.5452
v  542492.7263 6589549.4414 16.5347
v  542493.096 6589551.4209 15.5527
v  542492.9036 6589550.414 15.5452
v  542492.9036 6589550.414 16.5347
v  542493.381 6589552.3964 15.5527
v  542493.2003 6589551.4019 15.5527
v  542493.2003 6589551.4019 16.5347
v  542493.381 6589552.3964 16.5347
v  542493.0076 6589550.3951 16.5347
v  542492.8304 6589549.4225 16.5347
v  542493.0076 6589550.3951 15.5452
v  542492.8304 6589549.4225 15.5452
v  542492.972 6589550.2776 19.4154
v  542493.1928 6589551.4897 19.4154
v  542492.1156 6589545.5652 20.5824
v  542492.4373 6589547.3341 19.4238
v  542492.648 6589548.4935 19.4238
v  542492.972 6589550.2776 17.4355
v  542492.6036 6589547.3038 17.4222
v  542492.6036 6589547.3038 19.4238
v  542492.8143 6589548.4632 19.4238
v  542492.8143 6589548.4632 17.4222
v  542493.1928 6589551.4897 17.4355
v  542493.1386 6589550.2469 17.4355
v  542493.1386 6589550.2469 19.4154
v  542493.3594 6589551.459 19.4154
v  542493.3594 6589551.459 17.4355
v  542495.4009 6589565.077 21.0020
v  542491.9435 6589545.5972 21.0020
v  542495.6015 6589565.0394 21.1153
v  542492.1397 6589545.5605 21.1149
v  542495.6875 6589565.0207 27.3630
v  542492.2256 6589545.5417 27.3626
v  542495.6051 6589565.0361 27.3851
v  542492.1477 6589545.5563 27.3851
v  542495.6051 6589565.0359 27.7565
v  542492.1477 6589545.5562 27.7565
v  542495.3565 6589565.0824 27.8366
v  542491.899 6589545.6026 27.8366
v  542495.054 6589565.1389 28.2112
v  542491.5966 6589545.6591 28.2112
v  542501.0632 6589552.2267 32.1414
v  542503.1157 6589563.629 32.1418
v  542516.4029 6589553.3807 27.4766
v  542513.7441 6589544.7455 27.5033
v  542513.7409 6589544.7413 15.3790
v  542516.4023 6589553.381 15.3763
v  542512.4084 6589544.1564 15.4079
v  542512.4112 6589544.1548 27.5213
v  542503.284 6589546.9709 15.3647
v  542503.2899 6589546.9693 27.4067
v  542515.6249 6589554.1974 27.4885
v  542515.6234 6589554.2037 15.3564
v  542513.384 6589554.8887 27.5199
v  542513.4467 6589554.86 15.3462
v  542515.1722 6589560.2867 27.5038
v  542515.1254 6589560.2961 15.1798
v  542511.0254 6589562.1564 15.4515
v  542511.0562 6589562.1446 29.7191
v  542503.686 6589545.9735 28.1410
v  542499.6563 6589544.1496 32.1417
v  542503.2651 6589543.4762 28.1392
v  542515.4634 6589560.1988 28.2111
v  542514.3107 6589545.4235 28.2009
v  542514.0714 6589544.6464 28.2004
v  542512.3451 6589543.7038 28.1995
v  542503.859 6589546.3226 28.2005
v  542516.7302 6589553.2817 28.2065
v  542515.7596 6589554.6064 28.2074
v  542513.8014 6589555.2107 28.2076
v  542506.0252 6589552.0029 30.6509
v  542512.8092 6589549.6808 30.6829
v  542502.6052 6589543.6051 15.3624
v  542502.6093 6589543.5992 27.4043
v  542495.2908 6589563.5804 20.9140
v  542495.0081 6589561.9863 20.9138
v  542495.0409 6589561.9799 23.4716
v  542495.3235 6589563.574 23.4718
v  542495.3127 6589561.9291 23.4717
v  542495.28 6589561.9355 20.9139
v  542495.5626 6589563.5295 20.9140
v  542495.5954 6589563.5231 23.4719
v  542495.5988 6589563.5434 24.3685
v  542495.1516 6589563.6273 23.8931
v  542494.8534 6589561.9498 23.8929
v  542495.3006 6589561.8659 24.3683
v  542495.3029 6589563.464 23.5888
v  542495.0614 6589562.0898 23.5887
v  542495.5748 6589563.4131 23.5889
v  542495.3333 6589562.0389 23.5888
v  542495.308 6589563.4918 23.7065
v  542495.0561 6589562.062 23.7064
v  542495.5799 6589563.4409 23.7066
v  542495.328 6589562.0111 23.7065
v  542495.2234 6589563.5076 23.7065
v  542494.9715 6589562.0778 23.7064
v  542495.599 6589563.5435 23.8901
v  542495.3008 6589561.866 23.9224
v  542495.3229 6589563.5727 24.7733
v  542495.0403 6589561.9787 24.7731
v  542495.0732 6589561.9724 26.9924
v  542495.3558 6589563.5664 26.9926
v  542495.345 6589561.9215 26.9925
v  542495.3121 6589561.9278 24.7732
v  542495.5948 6589563.5218 24.7734
v  542495.6276 6589563.5156 26.9927
v  542495.5529 6589563.6223 24.6890
v  542495.2368 6589561.8494 24.6886
v  542494.9861 6589561.8963 24.6885
v  542495.3021 6589563.6691 24.6889
v  542495.1975 6589561.7826 24.8136
v  542494.915 6589561.8355 24.8135
v  542495.2578 6589563.7515 24.8139
v  542495.5404 6589563.6986 24.8140
v  542495.36 6589563.5483 24.5879
v  542495.3192 6589563.3237 24.5882
v  542495.3057 6589563.6325 24.7276
v  542495.3444 6589563.5699 24.4531
v  542495.2973 6589563.3094 24.4535
v  542495.4459 6589563.6063 24.7277
v  542495.4491 6589563.5316 24.5880
v  542495.4525 6589563.5496 24.4532
v  542495.4038 6589563.2895 24.4536
v  542495.4071 6589563.3073 24.5882
v  542495.1171 6589562.1844 24.5873
v  542495.0763 6589561.9598 24.5876
v  542494.9951 6589561.9009 24.7272
v  542495.1024 6589562.2112 24.4696
v  542495.0535 6589561.9403 24.4700
v  542495.1642 6589561.9434 24.5876
v  542495.1343 6589561.8749 24.7273
v  542495.2062 6589562.1678 24.5874
v  542495.2106 6589562.1909 24.4696
v  542495.16 6589561.9204 24.4700
v  542494.7605 6589560.6286 20.9127
v  542494.4779 6589559.0346 20.9125
v  542494.5106 6589559.0282 23.4704
v  542494.7932 6589560.6223 23.4706
v  542494.7825 6589558.9774 23.4705
v  542494.7497 6589558.9837 20.9126
v  542495.0324 6589560.5778 20.9128
v  542495.0651 6589560.5714 23.4707
v  542495.0686 6589560.5916 24.3673
v  542494.6214 6589560.6756 23.8919
v  542494.3231 6589558.998 23.8917
v  542494.7703 6589558.9142 24.3671
v  542494.7726 6589560.5123 23.5876
v  542494.5311 6589559.1381 23.5875
v  542495.0445 6589560.4614 23.5877
v  542494.803 6589559.0872 23.5876
v  542494.7778 6589560.5401 23.7053
v  542494.5259 6589559.1103 23.7052
v  542495.0497 6589560.4892 23.7054
v  542494.7977 6589559.0594 23.7053
v  542494.6931 6589560.5559 23.7053
v  542494.4412 6589559.1261 23.7051
v  542495.0688 6589560.5918 23.8888
v  542494.7705 6589558.9143 23.9211
v  542494.7926 6589560.621 24.7720
v  542494.51 6589559.0269 24.7719
v  542494.5429 6589559.0207 26.9911
v  542494.8255 6589560.6147 26.9913
v  542494.8148 6589558.9698 26.9912
v  542494.7819 6589558.9761 24.7719
v  542495.0645 6589560.5701 24.7721
v  542495.0974 6589560.5638 26.9914
v  542495.0226 6589560.6705 24.6877
v  542494.7065 6589558.8977 24.6873
v  542494.4558 6589558.9446 24.6872
v  542494.7719 6589560.7174 24.6876
v  542494.6673 6589558.8309 24.8124
v  542494.3847 6589558.8838 24.8123
v  542494.7276 6589560.7997 24.8127
v  542495.0101 6589560.7469 24.8128
v  542494.8298 6589560.5966 24.5867
v  542494.7889 6589560.372 24.5869
v  542494.7754 6589560.6808 24.7264
v  542494.8141 6589560.6181 24.4519
v  542494.7671 6589560.3577 24.4523
v  542494.9157 6589560.6546 24.7264
v  542494.9189 6589560.5799 24.5867
v  542494.9223 6589560.5979 24.4519
v  542494.8736 6589560.3377 24.4523
v  542494.8769 6589560.3555 24.5870
v  542494.5869 6589559.2327 24.5861
v  542494.546 6589559.0081 24.5864
v  542494.4649 6589558.9492 24.7260
v  542494.5722 6589559.2594 24.4683
v  542494.5232 6589558.9886 24.4687
v  542494.634 6589558.9916 24.5864
v  542494.604 6589558.9232 24.7260
v  542494.676 6589559.216 24.5861
v  542494.6803 6589559.2392 24.4683
v  542494.6297 6589558.9687 24.4688
v  542494.2411 6589557.7932 20.9115
v  542493.9585 6589556.1992 20.9113
v  542493.9912 6589556.1928 23.4692
v  542494.2739 6589557.7868 23.4694
v  542494.2631 6589556.1419 23.4693
v  542494.2304 6589556.1483 20.9114
v  542494.513 6589557.7423 20.9116
v  542494.5457 6589557.736 23.4695
v  542494.5492 6589557.7562 24.3661
v  542494.102 6589557.8401 23.8907
v  542493.8037 6589556.1626 23.8905
v  542494.2509 6589556.0787 24.3659
v  542494.2533 6589557.6769 23.5864
v  542494.0117 6589556.3027 23.5863
v  542494.5251 6589557.626 23.5865
v  542494.2836 6589556.2518 23.5864
v  542494.2584 6589557.7047 23.7041
v  542494.0065 6589556.2748 23.7040
v  542494.5303 6589557.6538 23.7042
v  542494.2784 6589556.224 23.7041
v  542494.1737 6589557.7205 23.7041
v  542493.9218 6589556.2907 23.7039
v  542494.5494 6589557.7564 23.8876
v  542494.2511 6589556.0789 23.9199
v  542494.2733 6589557.7856 24.7708
v  542493.9906 6589556.1915 24.7707
v  542494.0235 6589556.1853 26.9899
v  542494.3061 6589557.7793 26.9901
v  542494.2954 6589556.1344 26.9900
v  542494.2625 6589556.1407 24.7708
v  542494.5451 6589557.7347 24.7709
v  542494.578 6589557.7284 26.9902
v  542494.5032 6589557.8351 24.6865
v  542494.1872 6589556.0623 24.6861
v  542493.9364 6589556.1092 24.6860
v  542494.2525 6589557.882 24.6864
v  542494.1479 6589555.9955 24.8112
v  542493.8654 6589556.0484 24.8111
v  542494.2082 6589557.9643 24.8115
v  542494.4907 6589557.9115 24.8116
v  542494.3104 6589557.7612 24.5855
v  542494.2695 6589557.5366 24.5857
v  542494.256 6589557.8454 24.7252
v  542494.2947 6589557.7827 24.4507
v  542494.2477 6589557.5222 24.4511
v  542494.3963 6589557.8192 24.7252
v  542494.3995 6589557.7445 24.5855
v  542494.4029 6589557.7625 24.4507
v  542494.3542 6589557.5023 24.4511
v  542494.3575 6589557.5201 24.5858
v  542494.0675 6589556.3973 24.5849
v  542494.0266 6589556.1727 24.5852
v  542493.9455 6589556.1138 24.7248
v  542494.0528 6589556.424 24.4671
v  542494.0038 6589556.1532 24.4675
v  542494.1146 6589556.1562 24.5852
v  542494.0846 6589556.0877 24.7248
v  542494.1566 6589556.3806 24.5849
v  542494.161 6589556.4038 24.4671
v  542494.1103 6589556.1332 24.4676
v  542493.6944 6589554.7582 20.9102
v  542493.4118 6589553.1642 20.9100
v  542493.4445 6589553.1578 23.4679
v  542493.7272 6589554.7519 23.4681
v  542493.7164 6589553.107 23.4680
v  542493.6837 6589553.1133 20.9101
v  542493.9663 6589554.7074 20.9103
v  542493.999 6589554.701 23.4682
v  542494.0025 6589554.7213 24.3648
v  542493.5553 6589554.8052 23.8894
v  542493.257 6589553.1277 23.8892
v  542493.7042 6589553.0438 24.3646
v  542493.7065 6589554.6419 23.5851
v  542493.465 6589553.2677 23.5850
v  542493.9784 6589554.591 23.5852
v  542493.7369 6589553.2168 23.5851
v  542493.7117 6589554.6697 23.7028
v  542493.4598 6589553.2399 23.7027
v  542493.9836 6589554.6188 23.7029
v  542493.7317 6589553.189 23.7028
v  542493.627 6589554.6855 23.7028
v  542493.3751 6589553.2557 23.7027
v  542494.0027 6589554.7214 23.8864
v  542493.7044 6589553.0439 23.9187
v  542493.7265 6589554.7506 24.7696
v  542493.4439 6589553.1566 24.7694
v  542493.4768 6589553.1503 26.9887
v  542493.7594 6589554.7443 26.9888
v  542493.7487 6589553.0994 26.9888
v  542493.7158 6589553.1057 24.7695
v  542493.9984 6589554.6997 24.7697
v  542494.0313 6589554.6935 26.9889
v  542493.9565 6589554.8001 24.6852
v  542493.6405 6589553.0273 24.6848
v  542493.3897 6589553.0742 24.6848
v  542493.7058 6589554.847 24.6851
v  542493.6012 6589552.9605 24.8099
v  542493.3186 6589553.0134 24.8098
v  542493.6615 6589554.9294 24.8102
v  542493.944 6589554.8765 24.8103
v  542493.7637 6589554.7262 24.5842
v  542493.7228 6589554.5016 24.5845
v  542493.7093 6589554.8104 24.7239
v  542493.748 6589554.7477 24.4494
v  542493.701 6589554.4873 24.4498
v  542493.8496 6589554.7842 24.7239
v  542493.8528 6589554.7095 24.5842
v  542493.8562 6589554.7275 24.4495
v  542493.8075 6589554.4673 24.4499
v  542493.8108 6589554.4851 24.5845
v  542493.5208 6589553.3623 24.5836
v  542493.4799 6589553.1377 24.5839
v  542493.3988 6589553.0788 24.7235
v  542493.5061 6589553.389 24.4658
v  542493.4571 6589553.1182 24.4662
v  542493.5679 6589553.1212 24.5839
v  542493.5379 6589553.0528 24.7236
v  542493.6099 6589553.3456 24.5837
v  542493.6143 6589553.3688 24.4659
v  542493.5636 6589553.0983 24.4663
v  542493.1515 6589551.7009 20.9089
v  542492.8689 6589550.1069 20.9088
v  542492.9017 6589550.1005 23.4666
v  542493.1843 6589551.6945 23.4668
v  542493.1735 6589550.0497 23.4667
v  542493.1408 6589550.056 20.9089
v  542493.4234 6589551.6501 20.9090
v  542493.4561 6589551.6437 23.4669
v  542493.4596 6589551.6639 24.3635
v  542493.0124 6589551.7479 23.8881
v  542492.7141 6589550.0703 23.8879
v  542493.1614 6589549.9865 24.3633
v  542493.1637 6589551.5846 23.5838
v  542492.9222 6589550.2104 23.5837
v  542493.4355 6589551.5337 23.5839
v  542493.194 6589550.1595 23.5838
v  542493.1688 6589551.6124 23.7015
v  542492.9169 6589550.1826 23.7014
v  542493.4407 6589551.5615 23.7016
v  542493.1888 6589550.1317 23.7015
v  542493.0842 6589551.6282 23.7015
v  542492.8322 6589550.1984 23.7014
v  542493.4598 6589551.6641 23.8851
v  542493.1616 6589549.9866 23.9174
v  542493.1837 6589551.6933 24.7683
v  542492.901 6589550.0992 24.7681
v  542492.9339 6589550.093 26.9874
v  542493.2166 6589551.687 26.9876
v  542493.2058 6589550.0421 26.9875
v  542493.1729 6589550.0484 24.7682
v  542493.4555 6589551.6424 24.7684
v  542493.4884 6589551.6361 26.9877
v  542493.4137 6589551.7428 24.6840
v  542493.0976 6589549.97 24.6836
v  542492.8468 6589550.0169 24.6835
v  542493.1629 6589551.7897 24.6839
v  542493.0583 6589549.9032 24.8086
v  542492.7758 6589549.9561 24.8085
v  542493.1186 6589551.872 24.8089
v  542493.4011 6589551.8192 24.8090
v  542493.2208 6589551.6689 24.5829
v  542493.1799 6589551.4443 24.5832
v  542493.1664 6589551.7531 24.7226
v  542493.2051 6589551.6904 24.4481
v  542493.1581 6589551.43 24.4485
v  542493.3067 6589551.7269 24.7227
v  542493.3099 6589551.6522 24.5830
v  542493.3133 6589551.6702 24.4482
v  542493.2646 6589551.41 24.4486
v  542493.2679 6589551.4278 24.5832
v  542492.9779 6589550.305 24.5823
v  542492.9371 6589550.0804 24.5826
v  542492.8559 6589550.0215 24.7222
v  542492.9632 6589550.3317 24.4645
v  542492.9142 6589550.0609 24.4650
v  542493.025 6589550.0639 24.5826
v  542492.9951 6589549.9955 24.7223
v  542493.067 6589550.2883 24.5824
v  542493.0714 6589550.3115 24.4646
v  542493.0208 6589550.041 24.4650
v  542492.643 6589548.7045 20.9077
v  542492.3604 6589547.1105 20.9075
v  542492.3931 6589547.1041 23.4654
v  542492.6757 6589548.6982 23.4656
v  542492.665 6589547.0533 23.4655
v  542492.6322 6589547.0596 20.9076
v  542492.9149 6589548.6537 20.9078
v  542492.9476 6589548.6473 23.4656
v  542492.9511 6589548.6675 24.3623
v  542492.5038 6589548.7515 23.8869
v  542492.2056 6589547.0739 23.8867
v  542492.6528 6589546.9901 24.3620
v  542492.6551 6589548.5882 23.5826
v  542492.4136 6589547.214 23.5825
v  542492.927 6589548.5373 23.5827
v  542492.6855 6589547.1631 23.5826
v  542492.6603 6589548.616 23.7003
v  542492.4084 6589547.1862 23.7002
v  542492.9321 6589548.5651 23.7004
v  542492.6802 6589547.1353 23.7003
v  542492.5756 6589548.6318 23.7003
v  542492.3237 6589547.202 23.7001
v  542492.9513 6589548.6677 23.8838
v  542492.653 6589546.9902 23.9161
v  542492.6751 6589548.6969 24.7670
v  542492.3925 6589547.1028 24.7668
v  542492.4254 6589547.0966 26.9861
v  542492.708 6589548.6906 26.9863
v  542492.6973 6589547.0457 26.9862
v  542492.6644 6589547.052 24.7669
v  542492.947 6589548.646 24.7671
v  542492.9799 6589548.6397 26.9864
v  542492.9051 6589548.7464 24.6827
v  542492.589 6589546.9736 24.6823
v  542492.3383 6589547.0205 24.6822
v  542492.6544 6589548.7933 24.6826
v  542492.5497 6589546.9068 24.8073
v  542492.2672 6589546.9597 24.8072
v  542492.6101 6589548.8756 24.8077
v  542492.8926 6589548.8228 24.8078
v  542492.7123 6589548.6725 24.5817
v  542492.6714 6589548.4479 24.5819
v  542492.6579 6589548.7567 24.7214
v  542492.6966 6589548.694 24.4469
v  542492.6496 6589548.4336 24.4473
v  542492.7982 6589548.7305 24.7214
v  542492.8013 6589548.6558 24.5817
v  542492.8048 6589548.6738 24.4469
v  542492.7561 6589548.4136 24.4473
v  542492.7594 6589548.4314 24.5820
v  542492.4694 6589547.3086 24.5811
v  542492.4285 6589547.084 24.5814
v  542492.3474 6589547.0251 24.7210
v  542492.4547 6589547.3353 24.4633
v  542492.4057 6589547.0645 24.4637
v  542492.5165 6589547.0675 24.5814
v  542492.4865 6589546.9991 24.7210
v  542492.5585 6589547.2919 24.5811
v  542492.5628 6589547.3151 24.4633
v  542492.5122 6589547.0446 24.4637
v  542503.3694 6589544.0525 28.7534
v  542499.7567 6589544.7267 32.6935
v  542499.678 6589544.2668 32.6936
v  542503.2868 6589543.5934 28.7532
v  542491.6914 6589546.2373 28.5264
v  542491.6184 6589545.7764 28.5268
v  542502.9464 6589544.1285 28.3527
v  542502.8636 6589543.6694 28.3526
v  542499.5977 6589544.2823 31.9310
v  542491.881 6589545.7325 28.0030
v  542491.9539 6589546.1935 28.0025
v  542499.6764 6589544.7422 31.9307
v  542502.945 6589562.6882 32.6169
v  542503.0713 6589563.3923 32.6169
v  542495.0344 6589565.0347 28.6863
v  542494.9084 6589564.3152 28.6864
v  542510.9943 6589561.8147 30.1941
v  542510.711 6589561.2057 30.2445
v  542515.2639 6589559.5927 28.6859
v  542515.4591 6589560.1765 28.6863
v  542495.4275 6589564.9651 27.8533
v  542503.1373 6589563.3811 31.7580
v  542510.7286 6589561.8736 29.3115
v  542515.1902 6589560.2545 27.8061
v  542514.9933 6589559.6716 27.8063
v  542510.4434 6589561.2654 29.3625
v  542503.011 6589562.677 31.7580
v  542495.3016 6589564.2455 27.8535
v  542499.6461 6589554.1577 30.4545
v  542499.6787 6589554.1513 33.1864
v  542499.5875 6589553.5804 33.1866
v  542499.5549 6589553.5869 30.4547
v  542498.7833 6589554.2955 30.4663
v  542498.6921 6589553.7247 30.4665
v  542498.7248 6589553.7183 33.1984
v  542498.816 6589554.2891 33.1982
v  542499.6637 6589564.2166 29.7598
v  542499.6961 6589564.21 33.0071
v  542499.6127 6589563.6808 33.0074
v  542499.5803 6589563.6874 29.7601
v  542499.0954 6589564.2993 29.7717
v  542499.0119 6589563.7701 29.7720
v  542499.0444 6589563.7635 33.0193
v  542499.1278 6589564.2928 33.0190
v  542510.2086 6589561.1508 29.5157
v  542510.247 6589561.1433 32.7008
v  542510.1489 6589560.5207 32.7011
v  542510.1104 6589560.5282 29.5160
v  542509.5399 6589561.2482 29.5297
v  542509.4418 6589560.6255 29.5300
v  542509.4802 6589560.618 32.7151
v  542509.5784 6589561.2406 32.7148
v  542504.3203 6589562.8925 30.4840
v  542504.3587 6589562.8849 33.7434
v  542503.9837 6589560.7824 33.7431
v  542503.9453 6589560.7899 30.4836
v  542503.6517 6589562.9898 30.4980
v  542503.2767 6589560.8873 30.4976
v  542503.3151 6589560.8798 33.7571
v  542503.6901 6589562.9822 33.7574
v  542499.689 6589549.8401 30.1065
v  542499.7274 6589549.8326 33.3659
v  542499.3181 6589547.5464 33.3655
v  542499.2796 6589547.554 30.1061
v  542499.0203 6589549.9374 30.1205
v  542498.611 6589547.6513 30.1201
v  542498.6494 6589547.6438 33.3795
v  542499.0587 6589549.9299 33.3799
v  542502.8795 6589556.6561 31.0590
v  542502.9121 6589556.6496 33.9193
v  542502.8209 6589556.0788 33.9195
v  542502.7883 6589556.0853 31.0592
v  542502.2886 6589556.743 31.0709
v  542502.1974 6589556.1722 31.0711
v  542502.23 6589556.1657 33.9314
v  542502.3212 6589556.7366 33.9312
v  542504.4725 6589549.9131 29.4993
v  542504.505 6589549.9066 32.4145
v  542504.4138 6589549.3358 32.4148
v  542504.3813 6589549.3423 29.4996
v  542503.8815 6589550.0001 29.5112
v  542503.7903 6589549.4292 29.5115
v  542503.8229 6589549.4227 32.4267
v  542503.9141 6589549.9936 32.4264
v  542506.9997 6589551.438 29.5009
v  542507.0321 6589551.4313 32.9291
v  542506.9409 6589550.8604 32.9293
v  542506.9085 6589550.8671 29.5011
v  542505.9239 6589551.6156 29.5126
v  542505.8327 6589551.0448 29.5129
v  542505.865 6589551.0381 32.9411
v  542505.9562 6589551.6089 32.9408
v  542509.7974 6589550.3605 29.5013
v  542509.8307 6589550.3473 32.9295
v  542509.6396 6589549.8017 32.9297
v  542509.6063 6589549.8149 29.5015
v  542508.7701 6589550.7262 29.5139
v  542508.5791 6589550.1806 29.5141
v  542508.6124 6589550.1674 32.9423
v  542508.8034 6589550.713 32.9421
v  542511.5588 6589549.3331 29.4919
v  542511.5921 6589549.3198 33.0510
v  542511.2221 6589548.3453 33.0510
v  542511.1888 6589548.3586 29.4920
v  542510.5316 6589549.6988 29.5046
v  542510.1616 6589548.7243 29.5046
v  542510.1948 6589548.711 33.0637
v  542510.5648 6589549.6855 33.0636
v  542512.2038 6589554.1577 28.4413
v  542512.2145 6589554.189 31.8695
v  542512.7693 6589554.0264 31.8698
v  542512.7586 6589553.9952 28.4416
v  542511.8917 6589553.1129 28.4531
v  542512.4465 6589552.9504 28.4533
v  542512.4572 6589552.9816 31.8815
v  542511.9024 6589553.1442 31.8813
v  542506.4263 6589555.9633 30.4824
v  542506.4647 6589555.9557 33.7841
v  542506.0443 6589553.6102 33.7837
v  542506.0059 6589553.6177 30.4820
v  542503.6357 6589556.4576 30.4957
v  542503.2152 6589554.1121 30.4953
v  542503.2536 6589554.1045 33.7970
v  542503.6741 6589556.45 33.7974
v  542506.2457 6589553.308 33.7399
v  542502.9586 6589553.8891 33.7561
v  542503.4727 6589556.7522 33.7567
v  542506.7598 6589556.1712 33.7404
v  542504.5933 6589554.8704 34.2993
v  542504.6651 6589555.2707 34.2994
v  542505.0528 6589554.7892 34.2971
v  542505.1247 6589555.1895 34.2971
v  542504.7948 6589554.9914 34.7304
v  542504.8121 6589555.0877 34.7304
v  542504.9055 6589554.9718 34.7298
v  542504.9228 6589555.0682 34.7299
v  542515.4 6589548.9633 30.2431
v  542516.5035 6589552.5454 28.2060
v  542514.262 6589544.5892 28.2000
v  542515.5904 6589548.9059 30.7006
v  542514.3006 6589546.3287 24.8674
v  542514.6674 6589547.55 24.8614
v  542514.6735 6589547.5578 26.8430
v  542514.3066 6589546.3365 26.8490
v  542514.4655 6589547.6225 26.8464
v  542514.4594 6589547.6146 24.8648
v  542514.0925 6589546.3934 24.8707
v  542514.0986 6589546.4012 26.8524
v  542514.1139 6589546.311 24.7299
v  542514.5233 6589547.6691 24.7231
v  542514.7151 6589547.6095 24.7200
v  542514.3058 6589546.2514 24.7268
v  542514.5628 6589547.7177 24.8950
v  542514.779 6589547.6505 24.8915
v  542514.3356 6589546.1829 24.8988
v  542514.1194 6589546.2501 24.9023
v  542514.9325 6589548.4102 24.8939
v  542515.2993 6589549.6315 24.8879
v  542515.3054 6589549.6393 26.8696
v  542514.9386 6589548.418 26.8755
v  542515.0974 6589549.7039 26.8729
v  542515.0913 6589549.6961 24.8913
v  542514.7245 6589548.4749 24.8973
v  542514.7305 6589548.4827 26.8789
v  542514.7459 6589548.3925 24.7564
v  542515.1552 6589549.7506 24.7496
v  542515.3471 6589549.6909 24.7465
v  542514.9377 6589548.3329 24.7533
v  542515.1948 6589549.7992 24.9215
v  542515.4109 6589549.732 24.9180
v  542514.9675 6589548.2644 24.9254
v  542514.7514 6589548.3316 24.9289
v  542515.5546 6589550.4596 24.9200
v  542515.9214 6589551.6809 24.9141
v  542515.9275 6589551.6887 26.8957
v  542515.5606 6589550.4675 26.9016
v  542515.7195 6589551.7534 26.8991
v  542515.7134 6589551.7455 24.9174
v  542515.3465 6589550.5243 24.9234
v  542515.3526 6589550.5321 26.9050
v  542515.3679 6589550.4419 24.7825
v  542515.7773 6589551.8 24.7757
v  542515.9691 6589551.7404 24.7726
v  542515.5598 6589550.3823 24.7794
v  542515.8168 6589551.8487 24.9476
v  542516.033 6589551.7814 24.9441
v  542515.5896 6589550.3138 24.9515
v  542515.3734 6589550.381 24.9550
v  542514.2984 6589546.3217 21.2067
v  542514.6653 6589547.543 21.2007
v  542514.6713 6589547.5508 23.1823
v  542514.3045 6589546.3296 23.1883
v  542514.4633 6589547.6155 23.1857
v  542514.4572 6589547.6077 21.2041
v  542514.0904 6589546.3864 21.2100
v  542514.0965 6589546.3942 23.1917
v  542514.1118 6589546.304 21.0692
v  542514.5211 6589547.6621 21.0624
v  542514.713 6589547.6025 21.0593
v  542514.3036 6589546.2444 21.0661
v  542514.5607 6589547.7108 21.2343
v  542514.7769 6589547.6436 21.2308
v  542514.3334 6589546.1759 21.2381
v  542514.1173 6589546.2431 21.2416
v  542514.9304 6589548.4032 21.2332
v  542515.2972 6589549.6245 21.2272
v  542515.3033 6589549.6323 23.2089
v  542514.9364 6589548.4111 23.2148
v  542515.0953 6589549.697 23.2122
v  542515.0892 6589549.6891 21.2306
v  542514.7224 6589548.4679 21.2366
v  542514.7284 6589548.4757 23.2182
v  542514.7438 6589548.3855 21.0957
v  542515.1531 6589549.7436 21.0889
v  542515.345 6589549.684 21.0858
v  542514.9356 6589548.3259 21.0926
v  542515.1927 6589549.7923 21.2608
v  542515.4088 6589549.725 21.2573
v  542514.9654 6589548.2574 21.2647
v  542514.7493 6589548.3246 21.2682
v  542515.5524 6589550.4527 21.2593
v  542515.9193 6589551.674 21.2534
v  542515.9253 6589551.6817 23.2350
v  542515.5585 6589550.4605 23.2409
v  542515.7173 6589551.7464 23.2384
v  542515.7112 6589551.7386 21.2567
v  542515.3444 6589550.5173 21.2627
v  542515.3504 6589550.5251 23.2443
v  542515.3658 6589550.4349 21.1218
v  542515.7751 6589551.7931 21.1150
v  542515.967 6589551.7334 21.1119
v  542515.5576 6589550.3753 21.1187
v  542515.8147 6589551.8417 21.2869
v  542516.0309 6589551.7745 21.2834
v  542515.5874 6589550.3069 21.2908
v  542515.3713 6589550.3741 21.2943
v  542514.284 6589546.2964 17.5592
v  542514.6508 6589547.5177 17.5532
v  542514.6569 6589547.5255 19.5349
v  542514.29 6589546.3043 19.5408
v  542514.4489 6589547.5902 19.5382
v  542514.4428 6589547.5823 17.5566
v  542514.076 6589546.3611 17.5625
v  542514.082 6589546.3689 19.5442
v  542514.0974 6589546.2787 17.4217
v  542514.5067 6589547.6368 17.4149
v  542514.6986 6589547.5772 17.4118
v  542514.2892 6589546.2191 17.4186
v  542514.5463 6589547.6855 17.5868
v  542514.7624 6589547.6182 17.5833
v  542514.319 6589546.1506 17.5907
v  542514.1029 6589546.2178 17.5942
v  542514.9221 6589548.376 17.5857
v  542515.289 6589549.5973 17.5798
v  542515.295 6589549.6051 19.5614
v  542514.9282 6589548.3839 19.5673
v  542515.087 6589549.6698 19.5647
v  542515.0809 6589549.662 17.5831
v  542514.7141 6589548.4407 17.5891
v  542514.7202 6589548.4485 19.5707
v  542514.7355 6589548.3583 17.4482
v  542515.1449 6589549.7164 17.4414
v  542515.3367 6589549.6568 17.4383
v  542514.9274 6589548.2987 17.4451
v  542515.1844 6589549.7651 17.6133
v  542515.4006 6589549.6978 17.6098
v  542514.9571 6589548.2302 17.6172
v  542514.741 6589548.2974 17.6207
v  542515.5575 6589550.4215 17.6118
v  542515.9243 6589551.6428 17.6058
v  542515.9304 6589551.6505 19.5875
v  542515.5636 6589550.4293 19.5934
v  542515.7224 6589551.7152 19.5908
v  542515.7163 6589551.7074 17.6092
v  542515.3495 6589550.4861 17.6152
v  542515.3555 6589550.494 19.5968
v  542515.3709 6589550.4037 17.4743
v  542515.7802 6589551.7619 17.4675
v  542515.9721 6589551.7022 17.4644
v  542515.5627 6589550.3441 17.4712
v  542515.8198 6589551.8105 17.6394
v  542516.0359 6589551.7433 17.6359
v  542515.5925 6589550.2757 17.6433
v  542515.3764 6589550.3429 17.6468
v  542516.9208 6589553.2244 28.2062
v  542515.5905 6589548.9061 30.2427
v  542516.6941 6589552.4881 28.2057
v  542514.5013 6589545.3662 28.2006
v  542493.9668 6589555.7565 24.6565
v  542493.9668 6589555.7565 23.9205
v  542493.8649 6589555.1664 23.9205
v  542493.8649 6589555.1664 24.6565
v  542493.9276 6589555.7633 20.4424
v  542493.9276 6589555.7633 19.7064
v  542493.8256 6589555.1731 19.7064
v  542493.8256 6589555.1731 20.4424
# 831 vertices

vn -0.9853 0.1711 0.0000
vn -0.9853 0.1711 -0.0000
vn -0.0047 0.0008 1.0000
vn -0.0000 0.0000 1.0000
vn -0.9851 0.1719 -0.0055
vn -0.9849 0.1730 -0.0010
vn -0.9852 0.1710 -0.0063
vn -0.9852 0.1714 -0.0008
vn -0.9855 0.1696 0.0021
vn 0.1710 0.9853 0.0000
vn -0.1710 -0.9853 0.0000
vn 0.0000 0.0000 1.0000
vn 0.0000 0.0000 -1.0000
vn -0.4396 -0.8982 0.0000
vn -0.1836 0.9830 0.0000
vn 0.1710 0.9853 -0.0000
vn -0.9851 0.1718 -0.0013
vn -0.9853 0.1710 -0.0006
vn -0.9851 0.1722 -0.0018
vn -0.9849 0.1732 -0.0030
vn -0.9853 0.1710 -0.0005
vn 0.1712 0.9852 0.0000
vn -0.1712 -0.9852 0.0000
vn -0.9853 0.1711 -0.0002
vn -0.9851 0.1721 0.0018
vn -0.9850 0.1726 0.0009
vn -0.9852 0.1714 -0.0019
vn -0.9852 0.1714 0.0013
vn -0.9852 0.1712 -0.0003
vn -0.9800 0.1989 0.0000
vn -0.9820 0.1888 0.0103
vn -0.9818 0.1896 0.0103
vn -0.0000 -0.0000 1.0000
vn -0.9839 0.1789 0.0003
vn -0.9839 0.1787 0.0009
vn -0.9839 0.1789 0.0001
vn -0.9838 0.1793 0.0000
vn -0.9840 0.1782 -0.0014
vn -0.9850 0.1727 -0.0051
vn -0.9839 0.1788 -0.0001
vn -0.1788 -0.9839 0.0000
vn 0.1788 0.9839 0.0000
vn -0.1790 -0.9839 0.0000
vn 0.1790 0.9839 0.0000
vn -0.9839 0.1788 0.0000
vn -0.9840 0.1779 -0.0010
vn -0.9841 0.1778 -0.0010
vn -0.9842 0.1773 0.0012
vn -0.9840 0.1781 0.0038
vn -0.9838 0.1793 0.0003
vn -0.9838 0.1792 -0.0003
vn -0.9823 0.1871 -0.0037
vn -0.9847 0.1740 -0.0000
vn -0.9847 0.1744 0.0031
vn -0.9837 0.1773 0.0291
vn -0.9822 0.1877 0.0000
vn -0.9830 0.1821 0.0252
vn -0.1787 -0.9839 0.0000
vn 0.1790 0.9838 0.0000
vn 0.1789 0.9839 0.0000
vn -0.9839 0.1787 0.0002
vn -0.9838 0.1790 -0.0043
vn -0.9839 0.1789 -0.0001
vn -0.1791 -0.9838 0.0000
vn -0.9839 0.1790 0.0013
vn -0.9839 0.1786 0.0002
vn -0.9838 0.1792 0.0000
vn -0.1811 -0.9835 0.0000
vn 0.1813 0.9834 0.0000
vn -0.9854 0.1702 0.0000
vn -0.9855 0.1695 0.0000
vn -0.1875 -0.9823 0.0000
vn 0.1875 0.9823 -0.0000
vn -0.8917 0.1576 -0.4244
vn -0.9049 0.1578 -0.3952
vn -0.9057 0.1578 -0.3935
vn -0.9080 0.1650 -0.3850
vn -0.9071 0.1647 -0.3873
vn -0.8848 0.1571 -0.4387
vn -0.4780 0.0848 0.8743
vn -0.4779 0.0848 0.8743
vn -0.4847 0.0861 0.8704
vn -0.9845 0.1750 0.0141
vn -0.9845 0.1750 0.0140
vn -0.2518 0.0448 -0.9667
vn -0.2691 0.0478 -0.9619
vn -0.2692 0.0478 -0.9619
vn -0.9846 0.1748 0.0000
vn -0.9846 0.1748 -0.0000
vn -0.2971 0.0527 -0.9534
vn -0.7608 0.1350 -0.6347
vn -0.4262 0.0755 0.9015
vn -0.4253 0.0765 0.9018
vn -0.4259 0.0762 0.9015
vn 0.9557 -0.2943 -0.0001
vn 0.9557 -0.2944 -0.0001
vn 0.4022 -0.9156 0.0002
vn 0.4019 -0.9157 0.0002
vn 0.4049 -0.9144 -0.0002
vn 0.4051 -0.9143 -0.0002
vn -0.2948 -0.9556 -0.0000
vn -0.2948 -0.9556 -0.0001
vn -0.2948 -0.9555 0.0000
vn 0.7242 0.6896 -0.0000
vn 0.7241 0.6897 -0.0000
vn 0.7261 0.6876 0.0003
vn 0.7262 0.6875 0.0003
vn 0.2941 0.9558 0.0003
vn 0.2948 0.9556 0.0005
vn 0.2894 0.9572 -0.0006
vn 0.2887 0.9574 -0.0008
vn 0.9510 -0.3091 0.0030
vn 0.9493 -0.3144 0.0056
vn 0.9538 -0.3005 -0.0013
vn 0.9554 -0.2952 -0.0039
vn 0.1839 0.9829 0.0004
vn 0.1840 0.9829 0.0004
vn 0.1839 0.9829 0.0003
vn 0.1838 0.9830 0.0004
vn 0.4127 0.9108 -0.0003
vn 0.4132 0.9106 -0.0001
vn 0.4091 0.9125 -0.0062
vn 0.4022 0.9153 -0.0204
vn 0.7269 -0.1249 0.6753
vn 0.7272 -0.1266 0.6747
vn 0.7270 -0.1256 0.6750
vn 0.7267 -0.1229 0.6759
vn 0.3901 0.9196 -0.0464
vn 0.8585 -0.2652 -0.4389
vn 0.8581 -0.2639 -0.4405
vn 0.8582 -0.2647 -0.4397
vn 0.3827 -0.8104 -0.4436
vn 0.3462 -0.7964 -0.4958
vn 0.4302 -0.8241 -0.3685
vn 0.4525 -0.8284 -0.3302
vn -0.2499 -0.8293 -0.4998
vn -0.2501 -0.8306 -0.4975
vn -0.2460 -0.7982 -0.5499
vn -0.2457 -0.7960 -0.5532
vn 0.7187 0.6189 -0.3171
vn 0.7040 0.6739 -0.2243
vn 0.7241 0.5729 -0.3841
vn 0.7249 0.5314 -0.4383
vn 0.2471 0.8193 -0.5174
vn 0.2463 0.8218 -0.5138
vn 0.2489 0.8132 -0.5261
vn 0.2498 0.8098 -0.5309
vn 0.8722 -0.2901 -0.3938
vn 0.8723 -0.2901 -0.3937
vn 0.8717 -0.2902 -0.3948
vn 0.8717 -0.2902 -0.3949
vn -0.1187 -0.3633 0.9241
vn -0.1103 -0.3579 0.9272
vn -0.1214 -0.3651 0.9230
vn -0.1315 -0.3716 0.9190
vn 0.1229 0.3870 0.9138
vn 0.1278 0.3860 0.9136
vn 0.1263 0.3863 0.9137
vn 0.1197 0.3877 0.9140
vn 0.2120 -0.3890 0.8965
vn 0.3422 0.2502 0.9057
vn 0.4045 -0.4808 0.7780
vn 0.8117 -0.4631 0.3559
vn 0.2446 -0.4520 0.8578
vn 0.2381 -0.4506 0.8604
vn 0.2965 -0.0705 0.9524
vn 0.2958 -0.0582 0.9535
vn 0.3135 -0.0821 0.9460
vn 0.2843 -0.0954 0.9540
vn 0.2833 -0.0519 0.9576
vn 0.2852 -0.0514 0.9571
vn -0.4263 0.0750 0.9015
vn -0.4259 0.0742 0.9017
vn 0.7410 -0.1745 -0.6485
vn 0.7480 -0.1747 -0.6403
vn 0.6940 -0.2276 -0.6830
vn 0.9803 -0.1977 -0.0005
vn 0.9802 -0.1979 -0.0004
vn 0.9802 -0.1980 -0.0004
vn 0.7388 -0.1299 -0.6612
vn 0.7302 -0.1226 -0.6721
vn -0.1839 -0.9829 -0.0004
vn -0.1840 -0.9829 -0.0004
vn -0.1842 -0.9829 -0.0004
vn -0.9846 0.1746 0.0130
vn -0.9847 0.1741 0.0114
vn -0.9846 0.1746 0.0054
vn -0.1839 -0.9829 -0.0001
vn 0.1839 0.9829 0.0001
vn -0.7113 0.1264 0.6915
vn -0.9848 0.1739 -0.0039
vn -0.9849 0.1733 0.0045
vn 0.1327 0.7106 0.6910
vn -0.1333 -0.7111 0.6904
vn -0.9849 0.1731 0.0020
vn -0.9848 0.1735 -0.0029
vn 0.1789 0.9558 -0.2333
vn -0.1787 -0.9557 -0.2340
vn -0.8838 0.1559 -0.4411
vn -0.8844 0.1558 -0.4400
vn -0.8798 0.1564 -0.4489
vn -0.8795 0.1564 -0.4495
vn -0.1321 -0.7914 -0.5969
vn -0.1440 -0.7709 -0.6204
vn -0.1246 -0.8038 -0.5817
vn -0.1159 -0.8175 -0.5641
vn 0.0004 0.0000 -1.0000
vn 0.1587 0.8567 -0.4908
vn 0.1606 0.8578 -0.4882
vn 0.1580 0.8573 -0.4900
vn -0.1440 -0.7710 -0.6204
vn 0.1588 0.8555 -0.4929
vn 0.1600 0.8543 -0.4945
vn -0.9845 0.1746 0.0151
vn -0.1839 -0.9829 -0.0000
vn 0.1839 0.9829 0.0000
vn 0.0004 0.0002 -1.0000
vn -0.1588 -0.8493 -0.5035
vn -0.1589 -0.8493 -0.5033
vn -0.1588 -0.8493 -0.5034
vn -0.1587 -0.8492 -0.5036
vn 0.1591 0.8496 -0.5029
vn 0.1591 0.8497 -0.5027
vn 0.1591 0.8496 -0.5028
vn 0.1590 0.8496 -0.5029
vn -0.8897 0.1588 -0.4281
vn -0.8927 0.1598 -0.4214
vn -0.8926 0.1598 -0.4216
vn -0.8895 0.1587 -0.4285
vn -0.0004 -0.0002 1.0000
vn -0.8834 0.1602 -0.4404
vn -0.8861 0.1579 -0.4357
vn -0.8841 0.1591 -0.4393
vn -0.9741 0.1770 0.1408
vn -0.9744 0.1762 0.1394
vn -0.9743 0.1765 0.1400
vn -0.9739 0.1773 0.1416
vn 0.1633 0.8717 -0.4621
vn 0.1632 0.8717 -0.4620
vn 0.1632 0.8717 -0.4621
vn 0.1821 0.9740 0.1345
vn -0.1823 -0.9742 0.1332
vn -0.1822 -0.9742 0.1332
vn -0.1823 -0.9742 0.1331
vn 0.0001 -0.0016 -1.0000
vn -0.8806 0.1582 -0.4467
vn -0.8813 0.1598 -0.4448
vn -0.8808 0.1590 -0.4460
vn -0.9711 0.1765 0.1607
vn -0.9714 0.1759 0.1593
vn -0.9713 0.1761 0.1598
vn -0.9709 0.1768 0.1614
vn -0.1629 -0.8716 -0.4624
vn -0.1628 -0.8716 -0.4623
vn 0.1802 0.9639 0.1962
vn -0.1804 -0.9641 0.1948
vn -0.1803 -0.9641 0.1949
vn 0.0001 -0.0015 -1.0000
vn 0.0005 0.0006 -1.0000
vn -0.0004 -0.0001 1.0000
vn 0.7201 -0.1295 0.6817
vn 0.7209 -0.1231 0.6820
vn 0.7208 -0.1235 0.6820
vn 0.7201 -0.1299 0.6816
vn -0.4466 0.0763 0.8915
vn -0.4472 0.0716 0.8916
vn -0.4472 0.0717 0.8915
vn -0.4466 0.0765 0.8915
vn 0.6711 -0.1205 -0.7315
vn 0.6713 -0.1204 -0.7314
vn 0.6710 -0.1207 -0.7316
vn -0.1803 -0.9836 0.0031
vn -0.1799 -0.9837 0.0033
vn -0.1840 -0.9829 -0.0003
vn -0.1844 -0.9829 -0.0007
vn -0.8806 0.1389 -0.4529
vn -0.8806 0.1390 -0.4530
vn -0.8807 0.1389 -0.4529
vn -0.1808 -0.9835 -0.0079
vn -0.1806 -0.9835 -0.0082
vn 0.1803 0.9836 0.0076
vn 0.1801 0.9836 0.0079
vn 0.1841 0.9829 0.0009
vn 0.1841 0.9829 0.0005
vn 0.1807 0.9835 -0.0035
vn 0.1804 0.9836 -0.0038
vn -0.4255 0.0762 0.9018
vn -0.4254 0.0763 0.9018
vn -0.4259 0.0747 0.9017
vn -0.4259 0.0746 0.9017
vn 0.2935 -0.0594 0.9541
vn 0.2918 -0.0568 0.9548
vn 0.2880 -0.0936 0.9531
vn 0.2865 -0.0965 0.9532
vn 0.2829 -0.0508 0.9578
vn 0.2829 -0.0507 0.9578
vn 0.1957 0.9806 0.0098
vn 0.1954 0.9807 0.0102
vn 0.1978 0.9802 0.0028
vn 0.1980 0.9802 0.0025
vn 0.2661 0.9638 -0.0147
vn 0.2655 0.9640 -0.0157
vn 0.3351 0.9419 -0.0211
vn 0.3354 0.9419 -0.0190
vn 0.9029 -0.3038 -0.3042
vn 0.9039 -0.3020 -0.3028
vn 0.9033 -0.3031 -0.3036
vn 0.9022 -0.3049 -0.3049
vn -0.3279 -0.9445 0.0185
vn -0.3288 -0.9442 0.0166
vn -0.2563 -0.9665 0.0112
vn -0.2561 -0.9666 0.0125
vn -0.1923 -0.9813 -0.0023
vn -0.1921 -0.9814 -0.0022
vn -0.8883 0.1554 -0.4322
vn -0.8883 0.1554 -0.4323
vn -0.8883 0.1553 -0.4322
vn -0.1947 -0.9808 -0.0094
vn -0.1946 -0.9808 -0.0098
vn 0.9874 -0.1578 -0.0122
vn -0.9874 0.1578 0.0122
vn -0.1577 -0.9875 -0.0004
vn 0.1577 0.9875 0.0004
vn 0.0134 -0.0017 0.9999
vn 0.9878 -0.1557 -0.0102
vn -0.9878 0.1557 0.0102
vn -0.1441 -0.9896 -0.0006
vn 0.1441 0.9896 0.0006
vn 0.0205 -0.0027 0.9998
vn 0.0206 -0.0027 0.9998
vn 0.9877 -0.1557 -0.0123
vn -0.9877 0.1557 0.0123
vn 0.1440 0.9896 0.0006
vn 0.9844 -0.1756 -0.0120
vn -0.9844 0.1756 0.0120
vn 0.0204 -0.0038 0.9998
vn 0.9843 -0.1762 -0.0120
vn -0.9843 0.1762 0.0120
vn 0.9874 -0.1578 -0.0116
vn -0.9874 0.1578 0.0116
vn -0.1456 -0.9893 -0.0006
vn 0.1456 0.9893 0.0006
vn 0.0197 -0.0027 0.9998
vn 0.9874 -0.1578 -0.0114
vn -0.9874 0.1578 0.0114
vn 0.9874 -0.1578 -0.0096
vn -0.9874 0.1578 0.0096
vn -0.1629 -0.9866 -0.0004
vn 0.1629 0.9866 0.0004
vn 0.0107 -0.0013 0.9999
vn 0.9438 -0.3304 -0.0104
vn -0.9438 0.3304 0.0104
vn -0.3354 -0.9421 -0.0004
vn 0.3354 0.9421 0.0004
vn 0.0111 -0.0034 0.9999
vn 0.9348 -0.3549 -0.0101
vn -0.9348 0.3549 0.0101
vn 0.0108 -0.0041 0.9999
vn 0.2812 0.9596 -0.0096
vn -0.2812 -0.9596 0.0096
vn 0.9582 -0.2862 -0.0004
vn -0.9582 0.2862 0.0004
vn 0.0026 0.0104 0.9999
vn 0.9842 -0.1764 -0.0118
vn 0.9842 -0.1764 -0.0119
vn -0.9842 0.1764 0.0119
vn -0.1744 -0.9847 -0.0002
vn 0.1744 0.9847 0.0002
vn -0.0048 0.0010 -1.0000
vn -0.3482 0.0624 0.9353
vn -0.0657 -0.3972 0.9154
vn 0.3559 -0.0641 0.9323
vn 0.0744 0.3953 0.9155
vn -0.9105 0.1635 0.3799
vn -0.9104 0.1635 0.3799
vn -0.9105 0.1634 0.3799
vn -0.9105 0.1634 0.3798
vn -0.1623 -0.9277 0.3362
vn 0.9108 -0.1636 0.3791
vn 0.1655 0.9268 0.3370
vn 0.0048 -0.0010 1.0000
vn 0.9557 -0.2943 0.0003
vn -0.1372 -0.4646 0.8748
vn -0.1379 -0.4644 0.8749
vn -0.1353 -0.4652 0.8748
vn -0.1352 -0.4653 0.8748
vn 0.9577 -0.2877 -0.0018
vn 0.2969 0.9549 -0.0047
vn 0.2967 0.9550 -0.0047
vn -0.2968 -0.9549 0.0047
vn -0.2967 -0.9550 0.0047
vn -0.0162 -0.0001 -0.9999
vn 0.2766 0.9062 -0.3200
vn 0.2767 0.9062 -0.3199
vn 0.2765 0.9062 -0.3201
vn -0.2867 -0.9062 -0.3109
vn -0.2868 -0.9062 -0.3107
vn -0.2865 -0.9062 -0.3110
vn 0.9201 -0.2788 -0.2753
vn 0.9211 -0.2797 -0.2707
vn 0.9211 -0.2796 -0.2710
vn 0.9199 -0.2787 -0.2758
vn 0.0162 0.0001 0.9999
vn 0.0162 0.0000 0.9999
vn 0.8651 -0.2662 -0.4252
vn 0.8655 -0.2662 -0.4243
vn -0.1389 -0.4569 -0.8786
vn -0.0015 0.0012 -1.0000
vn 0.1365 0.4635 0.8755
vn 0.1244 0.4667 0.8756
vn 0.1248 0.4666 0.8756
vn 0.1406 0.4624 0.8755
vn 0.1374 0.4629 -0.8757
# 413 vertex normals

vt -1.3035 0.0097 0.4105
vt -0.7386 0.0097 0.4099
vt -0.7395 0.9623 0.6081
vt -1.3041 0.6452 0.5433
vt -1.7238 0.9680 0.0000
vt 0.4106 0.9680 0.0000
vt 0.3974 0.9906 0.0000
vt -1.7232 0.9906 0.0000
vt -17.5095 -3.0551 4.3984
vt -21.2864 -3.9501 5.2324
vt -14.9137 -3.0515 3.3379
vt 0.0005 0.0005 -6.1755
vt 0.9994 0.0005 -5.8577
vt 0.9995 0.9995 -5.1765
vt 0.0006 0.9995 -5.4939
vt -5.7186 3.6888 -1.4648
vt -5.7153 1.4978 -1.1270
vt -0.6797 1.5048 -3.1836
vt 0.2336 0.0105 0.1060
vt 0.2336 0.0105 0.4125
vt 0.2326 0.9674 0.6108
vt 0.2327 0.9674 0.3043
vt -0.7395 0.9623 0.3017
vt -0.7386 0.0097 0.1034
vt 0.5101 0.9882 0.0000
vt 0.4611 0.9882 0.0000
vt 0.4831 0.9687 0.0000
vt 0.5319 0.9687 0.0000
vt -0.1320 0.9870 0.0000
vt -0.1669 0.9861 0.0000
vt -0.1892 0.9723 0.0000
vt -0.1536 0.9732 0.0000
vt -0.4546 0.1220 0.0000
vt -0.4546 0.0439 0.0000
vt 0.4693 0.0439 0.0000
vt 0.4693 0.1220 0.0000
vt 0.4641 0.3655 0.0000
vt -0.4347 0.3607 0.0000
vt -0.4340 0.2318 0.0000
vt 0.4648 0.2365 0.0000
vt -0.5976 0.0097 0.1038
vt -0.5985 0.9623 0.3021
vt -0.1540 0.9679 0.0000
vt -0.0591 0.9679 0.0000
vt -0.0525 0.9898 0.0000
vt -0.1672 0.9898 0.0000
vt 0.2771 0.9690 0.0000
vt 0.3676 0.9690 0.0000
vt 0.3871 0.9909 0.0000
vt 0.2692 0.9909 0.0000
vt 0.0984 0.0105 0.1057
vt 0.0975 0.9674 0.3040
vt -0.5881 0.0097 -0.0388
vt -0.5890 0.9623 0.1595
vt 0.0854 0.9674 0.1613
vt 0.0863 0.0105 -0.0369
vt -4.8677 -3.9396 -35.9395
vt -4.8751 1.0822 -36.7207
vt -5.7167 1.4973 -36.4375
vt -5.7086 -3.9396 -35.5957
vt -1.5487 1.0868 -38.0781
vt -0.6812 1.5043 -38.4961
vt -1.5413 -3.9338 -37.2969
vt -0.6731 -3.9338 -37.6543
vt 0.4603 0.4067 0.0000
vt 0.1154 0.4480 0.0000
vt -0.4329 0.4432 0.0000
vt -0.4325 0.3989 0.0000
vt -0.4554 0.4389 0.0000
vt -0.4554 0.3929 0.0000
vt 0.1148 0.3929 0.0000
vt 0.4732 0.4389 0.0000
vt 0.4657 0.3929 0.0000
vt 0.4527 0.4509 0.0000
vt -1.7555 0.6442 0.5421
vt -3.1160 -0.0031 0.4034
vt -3.1166 0.6414 0.5384
vt -3.9183 0.9623 0.6005
vt -3.9176 -0.0031 0.3939
vt -1.7549 0.0049 0.4093
vt -2.6532 0.6424 0.5396
vt -2.6526 0.0049 0.4046
vt 0.9995 0.0005 0.4248
vt 0.9995 0.9993 0.0005
vt 0.0005 0.9995 0.5752
vt 0.0005 0.0006 0.9995
vt 0.1162 0.3239 0.0000
vt 0.1162 0.2481 0.0000
vt 0.8254 0.2481 0.0000
vt 0.8254 0.3239 0.0000
vt 0.9995 0.9993 -0.0005
vt 0.0005 0.9995 0.5781
vt 0.0005 0.0007 0.9990
vt 0.9994 0.0005 0.4204
vt -10.9673 1.3182 1.0449
vt -8.1353 1.3221 -0.1152
vt -17.5159 1.2004 3.7383
vt -21.2946 3.6888 4.0293
vt -10.9608 -3.0178 1.7168
vt -14.9200 1.2040 2.6777
vt 0.1286 0.0070 0.9971
vt 0.8729 0.0076 0.3799
vt 0.8711 0.7203 -0.0039
vt 0.1267 0.7197 0.6133
vt -8.1288 -3.0139 0.5566
vt -5.7073 -3.9501 -0.2852
vt 0.1304 0.0063 1.0303
vt 0.8675 0.0069 0.3574
vt 0.8658 0.7209 -0.0342
vt 0.1287 0.7203 0.6387
vt 1.8161 0.0105 0.4746
vt 1.8155 0.6504 0.6086
vt 1.6061 0.9674 0.6455
vt 1.6071 0.0105 0.4472
vt 3.5141 0.9651 0.0000
vt 3.5141 0.9869 0.0000
vt 1.3056 0.9869 0.0000
vt 1.2918 0.9651 0.0000
vt 18.3369 -3.0054 3.2109
vt 15.7412 -3.0090 2.1934
vt 22.2955 -3.9236 4.9414
vt 0.8529 0.0057 1.0410
vt 0.8512 0.7068 0.6553
vt 0.1472 0.7061 -0.0430
vt 0.1488 0.0051 0.3428
vt 6.0507 3.6888 -2.6309
vt 1.1223 1.5073 -4.2188
vt 6.0540 1.5141 -2.2930
vt 0.6566 0.0105 0.1056
vt 0.6557 0.9674 0.3039
vt 0.6551 0.9674 0.6103
vt 0.6560 0.0105 0.4120
vt 1.6067 0.9674 0.3390
vt 1.6077 0.0105 0.1407
vt 0.7322 0.9694 0.0000
vt 0.7551 0.9871 0.0000
vt 0.7153 0.9892 0.0000
vt 0.6924 0.9715 0.0000
vt 1.1894 0.9723 0.0000
vt 1.1673 0.9860 0.0000
vt 1.0941 0.9854 0.0000
vt 1.1160 0.9717 0.0000
vt 0.7942 0.9891 0.0000
vt 0.8130 0.9672 0.0000
vt 1.4515 0.9672 0.0000
vt 1.4653 0.9891 0.0000
vt 5.0062 -3.0465 -37.1016
vt 6.0634 -3.9236 -36.7598
vt 6.0553 1.5137 -37.6016
vt 4.9999 1.2112 -37.7637
vt 1.1237 1.5068 -39.5293
vt 2.2950 1.2074 -38.9629
vt 2.3014 -3.0503 -38.3047
vt 1.1317 -3.9236 -38.6875
vt 2.2668 0.6510 0.6252
vt 3.1667 0.0094 0.5425
vt 4.9175 0.0094 0.5699
vt 4.9168 0.9674 0.7682
vt 3.1661 0.6517 0.6775
vt 2.2675 0.0097 0.4912
vt 2.7252 0.0097 0.5253
vt 2.7246 0.6512 0.6603
vt 0.0005 0.0006 0.9990
vt 0.9995 0.0005 0.7051
vt 0.9995 0.9994 -0.0020
vt 0.0005 0.9995 0.2920
vt 0.0005 0.9995 0.2568
vt 0.9995 0.0005 0.7422
vt 0.9995 0.9994 0.0000
vt 11.7405 1.2232 0.0195
vt 9.0265 1.2194 -1.1641
vt 22.2876 3.6888 3.7656
vt 18.3306 1.2502 2.5508
vt 15.7349 1.2465 1.5332
vt 11.7468 -2.9863 0.6719
vt 0.8600 0.0071 0.9873
vt 0.8582 0.7182 0.6035
vt 0.1302 0.7176 0.0127
vt 0.1320 0.0065 0.3965
vt 9.0328 -2.9901 -0.5117
vt 6.0620 -3.9236 -1.4512
vt 0.8668 0.0032 1.0313
vt 0.8651 0.7159 0.6514
vt 0.1302 0.7153 -0.0342
vt 0.1319 0.0026 0.3457
vt 0.4411 0.9890 0.0000
vt 0.4216 0.9670 0.0000
vt 0.7055 0.9670 0.0000
vt 0.6866 0.9890 0.0000
vt -0.6716 -3.9236 -2.3418
vt 1.1304 -3.9236 -3.3770
vt -9.7095 -0.0053 -1.1992
vt -10.0665 0.7910 -0.2250
vt -10.0665 -0.0053 -1.0820
vt 8.2044 -0.0053 -1.0876
vt 8.2044 0.7910 -0.2517
vt 7.8323 -0.0053 -1.2240
vt -10.0665 0.9920 -1.2038
vt 8.2044 0.9920 -1.2094
vt -3.6638 1.7630 -41.2612
vt -3.6614 -0.7744 -37.0923
vt 4.6638 -0.7630 -37.1426
vt 4.6615 1.7744 -41.3052
vt -12.8839 0.0614 -0.7177
vt -12.8828 -0.0016 -0.8475
vt 13.8920 -0.0016 -0.8491
vt 13.8910 0.0614 -0.7263
vt -12.8844 0.4845 -0.7185
vt 13.8904 0.4845 -0.7272
vt -12.8876 0.5700 -0.3265
vt 13.8873 0.5700 -0.3351
vt -12.8918 0.9983 0.1499
vt 13.8831 0.9983 0.1412
vt 2.2921 5.1935 -63.6563
vt -9.6603 5.2325 -67.2285
vt -9.7502 -4.2077 -54.5522
vt 0.5939 0.7147 0.0005
vt 0.1564 0.7297 0.0552
vt 0.1406 0.0353 0.0553
vt 0.5784 0.0217 0.0005
vt 0.8922 0.0382 0.8978
vt 0.9447 0.0353 0.8594
vt 0.9448 0.7297 0.8436
vt 0.8923 0.7319 0.8823
vt 0.4868 0.0336 0.8317
vt 0.4870 0.7233 0.8163
vt 0.0389 0.7144 0.3726
vt 0.0005 0.7147 0.4061
vt 0.0005 0.0217 0.4216
vt 0.0390 0.0195 0.3879
vt 0.1385 0.7157 0.3563
vt 0.1356 0.0185 0.3728
vt 0.9181 0.7063 0.0990
vt 0.6437 0.7157 0.1385
vt 0.6272 0.0185 0.1356
vt 0.9024 0.0005 0.1010
vt 0.9599 0.3379 0.0102
vt 0.9609 0.3074 0.0109
vt 0.9686 0.3314 0.0101
vt 0.6321 0.9698 0.0067
vt 0.9561 0.6957 0.0024
vt 0.9597 0.6970 0.0023
vt 0.9597 0.7183 0.0018
vt 0.9705 0.7229 0.0014
vt 0.9837 0.7443 0.0005
vt 0.2871 0.0142 0.0387
vt 0.9609 0.1022 0.0154
vt 0.2858 0.8314 0.0208
vt 0.9640 0.0189 0.0171
vt 0.9642 0.1021 0.0153
vt 0.1010 0.0005 0.0976
vt 0.0990 0.7063 0.0819
vt -1.2217 -2.3232 -34.4375
vt 4.7271 3.2293 39.3496
vt -3.7303 3.3232 20.9648
vt -3.8344 -2.3058 -38.3535
vt 0.0860 0.7469 0.0830
vt -1.1499 3.9907 0.0000
vt -1.0599 3.9907 0.0000
vt -1.0599 2.9907 0.0000
vt -0.9126 1.0113 0.0000
vt -0.5210 0.0173 0.0000
vt 1.5534 0.0173 0.0000
vt 1.8957 1.0113 0.0000
vt -4.4053 1.0124 0.0000
vt -5.2576 0.0173 0.0000
vt 5.8189 0.0173 0.0000
vt 5.9000 1.0124 0.0000
vt -0.7603 1.0118 0.0000
vt -0.3505 0.0136 0.0000
vt 1.3264 0.0136 0.0000
vt 1.7016 1.0118 0.0000
vt -0.8611 1.0114 0.0000
vt -0.8512 0.0130 0.0000
vt 1.9882 0.0130 0.0000
vt 1.6202 1.0114 0.0000
vt -2.8103 1.0112 0.0000
vt -3.3874 0.0097 0.0000
vt 4.1161 0.0097 0.0000
vt 4.1275 1.0112 0.0000
vt -3.5695 3.9254 -74.3125
vt -3.8841 -2.7961 129.0430
vt 5.2772 -2.6790 114.7500
vt 3.8272 3.8419 -56.6914
vt -1.3369 -3.4568 63.0703
vt 5.0702 2.8224 -199.6406
vt -2.3260 2.7241 -177.4297
vt -3.4484 -3.5436 75.3125
vt 0.4290 4.0708 -29.6563
vt -1.5806 -2.3543 -26.4277
vt 0.3980 -1.9012 -25.1191
vt 1.8254 -2.2217 -9.2578
vt 0.0112 4.0061 8.1172
vt 0.1366 -2.0863 -13.7148
vt 2.9023 -2.7896 -113.7383
vt 2.9476 -2.4245 -149.8203
vt 2.9455 4.1974 -465.5313
vt -2.0606 3.6793 -96.5469
vt 5.8575 2.4650 41.1143
vt -5.2553 3.9853 21.6836
vt 0.3704 -2.9102 -40.0996
vt 5.5492 -2.7634 14.4922
vt -5.2510 -0.3108 -12.0381
vt 5.8641 -4.0459 7.3936
vt 6.1680 4.7028 14.0342
vt -5.7791 5.0459 -6.3936
vt 10.6605 -4.2290 -52.7876
vt 10.7504 5.2093 -65.2876
vt 0.1840 1.0120 0.0000
vt 0.7135 0.0182 0.0000
vt 0.5465 1.0120 0.0000
vt 0.0005 0.0386 0.5194
vt 0.1683 0.0336 0.5132
vt 0.1837 0.7233 0.5130
vt 0.0157 0.7283 0.5192
vt -1.0982 0.0175 0.0000
vt 2.4823 0.0175 0.0000
vt 1.5274 1.0123 0.0000
vt -1.1114 1.0123 0.0000
vt 0.0242 0.3676 0.9777
vt 0.4806 0.0386 0.9995
vt 0.4808 0.7283 0.9843
vt 0.0279 0.7254 0.9700
vt 0.0231 0.1319 0.9829
vt 0.0200 0.1319 0.9828
vt 0.0200 0.0486 0.9846
vt 0.0156 0.3611 0.9776
vt 0.0231 0.3371 0.9784
vt 0.3520 0.9995 0.9742
vt 0.0245 0.7480 0.9694
vt 0.0245 0.7267 0.9698
vt 0.5094 0.7704 0.9843
vt 0.0137 0.7526 0.9689
vt 0.0005 0.7740 0.9680
vt 0.0026 -0.0399 0.0000
vt 0.9991 -0.0400 0.0000
vt 0.9995 0.8106 0.0000
vt 0.0030 0.8107 0.0000
vt 0.0649 0.2267 0.0000
vt 0.1050 0.2260 0.0000
vt 0.1067 0.5966 0.0000
vt 0.0666 0.5974 0.0000
vt 0.0243 1.0381 0.0000
vt 0.0121 0.9462 0.0000
vt 0.9915 0.9460 0.0000
vt 0.9832 1.0380 0.0000
vt 0.0659 0.8439 0.0000
vt 0.0019 0.8102 0.0000
vt 0.9983 0.8101 0.0000
vt 0.9348 0.8439 0.0000
vt 0.0522 0.8924 0.0000
vt 0.9486 0.8923 0.0000
vt 0.0485 0.8951 0.0000
vt 0.9367 0.8946 0.0000
vt 0.3727 0.9439 0.0000
vt 0.2710 1.0440 0.0000
vt 0.2709 0.9433 0.0000
vt 0.3957 0.9450 0.0000
vt 0.4216 0.9102 0.0000
vt 0.4627 0.9094 0.0000
vt 0.4634 0.9477 0.0000
vt 0.8161 0.8492 0.0000
vt 0.8156 0.8866 0.0000
vt 0.1842 0.8866 0.0000
vt 0.1842 0.8492 0.0000
vt 0.3328 0.8968 0.0000
vt 0.3520 0.8968 0.0000
vt 0.4088 0.9105 0.0000
vt 0.4649 1.0079 0.0000
vt 0.2709 0.8968 0.0000
vt 0.0015 0.1703 0.0000
vt 0.9983 0.1702 0.0000
vt 0.9985 0.9999 0.0000
vt 0.0018 1.0000 0.0000
vt 0.0245 0.2284 0.0000
vt 0.1082 0.2269 0.0000
vt 0.1098 0.8981 0.0000
vt 0.0261 0.8996 0.0000
vt 0.6597 0.0051 0.0000
vt 0.6606 0.0525 0.0000
vt 0.2799 0.0534 0.0000
vt 0.2791 0.0060 0.0000
vt 0.4660 0.1884 0.0000
vt 0.3143 0.1884 0.0000
vt 0.3453 0.1182 0.0000
vt 0.4800 0.1182 0.0000
vt 0.4731 0.1879 0.0000
vt 0.3312 0.1879 0.0000
vt 0.3182 0.1183 0.0000
vt 0.4441 0.1183 0.0000
vt 1.0020 0.1896 0.0000
vt 0.0020 0.1826 0.0000
vt 0.0396 0.1187 0.0000
vt 0.9648 0.1187 0.0000
vt 0.6597 0.0562 0.0000
vt 0.6606 0.0660 0.0000
vt 0.2799 0.0669 0.0000
vt 0.2791 0.0571 0.0000
vt -0.9934 0.0612 0.0000
vt -0.8636 0.0612 0.0000
vt -1.0350 0.1497 0.0000
vt 0.0123 0.0045 0.0000
vt 0.1241 0.0047 0.0000
vt 0.1165 0.0759 0.0000
vt 0.0201 0.0758 0.0000
vt 0.0586 0.1184 0.0000
vt 0.0526 0.0747 0.0000
vt 0.0852 0.0747 0.0000
vt 0.1100 0.1184 0.0000
vt 0.1223 0.0102 0.0000
vt 0.0154 0.0102 0.0000
vt 0.0154 0.0021 0.0000
vt 0.1223 0.0021 0.0000
vt -0.1326 0.0612 0.0000
vt -0.0029 0.0612 0.0000
vt 0.0383 0.1497 0.0000
vt -2.3112 -1.2165 -0.2616
vt -2.3117 -0.0789 0.8467
vt -2.4506 -0.0789 0.8445
vt -2.4501 -1.2165 -0.2626
vt -2.3117 0.8467 -0.0789
vt -2.3117 3.2973 -1.3035
vt -2.4506 3.2934 -1.3033
vt -2.4506 0.8445 -0.0789
vt 3.3121 -0.1335 -1.3336
vt 3.3112 -0.2616 -1.2165
vt 3.4501 -0.2626 -1.2165
vt 3.4510 -0.1345 -1.3336
vt 1.1345 -1.3336 -2.4510
vt 1.2626 -1.2165 -2.4501
vt 0.1555 -0.0789 -2.4506
vt 0.1324 -0.3004 -2.4505
vt 3.4490 -1.4550 3.2127
vt 3.4506 -1.3033 3.2934
vt 3.3117 -1.3035 3.2973
vt 3.3101 -1.4551 3.2166
vt -2.2934 -1.3033 -2.4506
vt -2.2127 -1.4550 -2.4490
vt 3.2166 -1.4551 -2.3101
vt 3.2973 -1.3035 -2.3117
vt 0.8467 -0.0789 -2.3117
vt 0.8697 -0.3005 -2.3116
vt -0.2616 -1.2165 -2.3112
vt -0.1335 -1.3336 -2.3121
vt 3.1198 0.8979 -0.1018
vt 3.3328 0.8996 -0.1018
vt 3.3730 3.3496 -1.2577
vt 3.1556 3.3470 -1.2577
vt 3.3052 -1.5249 -0.7910
vt 3.1115 -1.4750 -0.7766
vt 2.8889 -2.9075 -1.2207
vt 3.0704 -2.9328 -1.2205
vt 3.2284 -1.4989 3.3742
vt 3.3496 -1.2577 3.3730
vt 0.8996 -0.1018 3.3328
vt 0.8780 -0.3511 3.3331
vt -1.4451 -1.0477 3.3079
vt -1.5249 -0.7910 3.3052
vt -2.9328 -1.2205 3.0704
vt -2.8509 -1.4765 3.0785
vt 3.0785 -1.4765 -2.8509
vt 3.0704 -1.2205 -2.9328
vt 2.8889 -1.2207 -2.9075
vt 2.8971 -1.4766 -2.8251
vt 3.8251 -1.4766 2.8971
vt 3.9075 -1.2207 2.8889
vt 2.4750 -0.7766 3.1115
vt 2.3945 -1.0332 3.1143
vt 0.1021 -0.1018 3.1198
vt 0.1237 -0.3511 3.1202
vt -2.1567 -1.4988 3.2258
vt -2.1556 -1.2577 3.3470
vt -2.3730 -1.2577 3.3496
vt -2.3742 -1.4989 3.2284
vt -2.3470 -1.2577 3.1556
vt -2.2258 -1.4988 3.1567
vt 0.4424 -0.7325 1.3951
vt 0.4423 0.0608 1.3901
vt 0.2703 0.0609 1.3855
vt 0.2703 -0.7324 1.3905
vt 0.5646 -0.7306 1.6568
vt 0.7366 -0.7305 1.6522
vt 0.7367 0.0628 1.6472
vt 0.5646 0.0627 1.6518
vt -0.3905 -0.7324 0.2703
vt -0.3855 0.0609 0.2703
vt -0.6472 0.0628 0.2633
vt -0.6522 -0.7305 0.2634
vt 1.3901 0.0608 0.4423
vt 1.3951 -0.7325 0.4424
vt 1.6568 -0.7306 0.4354
vt 1.6518 0.0627 0.4354
vt 0.9003 0.6596 0.4392
vt 0.0951 0.6588 0.4360
vt 0.0999 0.3541 0.5608
vt 0.9052 0.3549 0.5640
vt 3.3873 -0.9377 1.9432
vt 3.3872 0.0053 1.9393
vt 3.2278 0.0054 1.9347
vt 3.2278 -0.9376 1.9386
vt -2.3804 -0.9352 2.1152
vt -2.2209 -0.9351 2.1106
vt -2.2208 0.0079 2.1066
vt -2.3803 0.0078 2.1112
vt -0.9386 -0.9376 3.2278
vt -0.9347 0.0054 3.2278
vt -1.1066 0.0079 3.2208
vt -1.1106 -0.9351 3.2209
vt 1.9393 0.0053 3.3872
vt 1.9432 -0.9377 3.3873
vt 2.1152 -0.9352 3.3804
vt 2.1112 0.0078 3.3803
vt 0.1532 0.5113 0.4402
vt 0.1509 0.3530 0.4138
vt 0.8380 0.3544 0.5598
vt 0.8402 0.5127 0.5862
vt 3.0679 -0.9891 -1.3314
vt 3.0678 -0.0642 -1.3373
vt 2.8802 -0.0640 -1.3427
vt 2.8803 -0.9890 -1.3368
vt -2.0597 -0.9862 -1.1291
vt -1.8721 -0.9861 -1.1345
vt -1.8721 -0.0612 -1.1404
vt -2.0597 -0.0613 -1.1350
vt 2.3368 -0.9890 2.8803
vt 2.3427 -0.0640 2.8802
vt 2.1404 -0.0612 2.8721
vt 2.1345 -0.9861 2.8721
vt -1.3373 -0.0642 3.0678
vt -1.3314 -0.9891 3.0679
vt -1.1291 -0.9862 3.0597
vt -1.1350 -0.0613 3.0597
vt 2.8802 -1.3427 -0.0640
vt 3.0678 -1.3373 -0.0642
vt 3.0597 -1.1350 -0.0613
vt 2.8721 -1.1404 -0.0612
vt 3.2550 -0.7188 0.5003
vt 3.2549 0.2277 0.4946
vt 2.6190 0.2277 0.4891
vt 2.6190 -0.7188 0.4948
vt -2.2468 -0.7159 0.7026
vt -1.6109 -0.7160 0.6971
vt -1.6109 0.2306 0.6914
vt -2.2468 0.2306 0.6968
vt 0.5052 -0.7188 2.6190
vt 0.5109 0.2277 2.6190
vt 0.3086 0.2306 2.6109
vt 0.3029 -0.7160 2.6109
vt 0.4946 0.2277 3.2549
vt 0.5003 -0.7188 3.2550
vt 0.7026 -0.7159 3.2468
vt 0.6968 0.2306 3.2468
vt 0.0195 0.9918 0.4508
vt 0.0399 -0.0039 0.3480
vt 0.9805 0.0083 0.5490
vt 0.9601 1.0040 0.6520
vt -0.8189 -0.8320 1.1438
vt -0.8190 0.1145 1.1380
vt -1.5105 0.1145 1.1325
vt -1.5104 -0.8320 1.1383
vt 1.8271 -0.8291 1.3461
vt 2.5186 -0.8291 1.3406
vt 2.5186 0.1174 1.3348
vt 1.8271 0.1174 1.3403
vt -0.1383 -0.8320 -1.5104
vt -0.1325 0.1145 -1.5105
vt -0.3348 0.1174 -1.5186
vt -0.3406 -0.8291 -1.5186
vt 1.1380 0.1145 -0.8190
vt 1.1438 -0.8320 -0.8189
vt 1.3461 -0.8291 -0.8271
vt 1.3403 0.1174 -0.8271
vt 0.0005 0.9884 0.3561
vt 0.0212 0.0005 0.0005
vt 0.9995 0.0116 0.6437
vt 0.9788 0.9995 0.9995
vt 1.3508 -0.5522 0.5818
vt 1.3507 0.2784 0.5771
vt 1.1787 0.2785 0.5725
vt 1.1787 -0.5521 0.5772
vt -0.3439 -0.5498 0.7606
vt -0.1718 -0.5497 0.7560
vt -0.1717 0.2809 0.7513
vt -0.3438 0.2808 0.7559
vt 0.4228 -0.5521 1.1787
vt 0.4275 0.2785 1.1787
vt 0.2487 0.2809 1.1717
vt 0.2440 -0.5497 1.1718
vt 0.5771 0.2784 1.3507
vt 0.5818 -0.5522 1.3508
vt 0.7606 -0.5498 1.3439
vt 0.7559 0.2808 1.3438
vt 0.1222 0.5147 0.4315
vt 0.1145 0.3515 0.3989
vt 0.8625 0.3518 0.5686
vt 0.8701 0.5150 0.6012
vt -0.5355 -1.0000 -0.2619
vt -0.5355 -0.1534 -0.2665
vt -0.7076 -0.1533 -0.2711
vt -0.7075 -0.9999 -0.2665
vt 1.5424 -0.9976 -0.0831
vt 1.7144 -0.9975 -0.0877
vt 1.7145 -0.1509 -0.0923
vt 1.5424 -0.1510 -0.0877
vt 1.2665 -0.9999 -0.7075
vt 1.2711 -0.1533 -0.7076
vt 1.0923 -0.1509 -0.7145
vt 1.0877 -0.9975 -0.7144
vt -0.2665 -0.1534 -0.5355
vt -0.2619 -1.0000 -0.5355
vt -0.0831 -0.9976 -0.5424
vt -0.0877 -0.1510 -0.5424
vt 0.0871 0.5193 0.4314
vt 0.0844 0.3492 0.3987
vt 0.9164 0.3508 0.5687
vt 0.9191 0.5208 0.6013
vt 0.0493 -0.9956 -0.9220
vt 0.0492 -0.0001 -0.9257
vt -0.1228 -0.0000 -0.9303
vt -0.1227 -0.9955 -0.9266
vt 0.9576 -0.9942 -0.5954
vt 1.1297 -0.9941 -0.6000
vt 1.1298 0.0014 -0.6036
vt 0.9577 0.0013 -0.5990
vt 1.9266 -0.9955 -0.1227
vt 1.9303 -0.0000 -0.1228
vt 1.6036 0.0014 -0.1298
vt 1.6000 -0.9941 -0.1297
vt -0.9257 -0.0001 0.0492
vt -0.9220 -0.9956 0.0493
vt -0.5954 -0.9942 0.0424
vt -0.5990 0.0013 0.0423
vt 0.1667 0.3597 0.3909
vt 0.8284 0.3600 0.3869
vt 0.8328 0.6583 0.6094
vt 0.1711 0.6580 0.6134
vt -0.1127 -0.9903 -1.8053
vt -0.1147 0.0052 -1.8095
vt -0.2848 0.0052 -1.7833
vt -0.2829 -0.9904 -1.7791
vt 1.0620 -0.9885 -1.4826
vt 1.2321 -0.9886 -1.4564
vt 1.2341 0.0069 -1.4607
vt 1.0639 0.0070 -1.4868
vt 2.7791 -0.9904 -0.2829
vt 2.7833 0.0052 -0.2848
vt 2.4607 0.0069 -0.2341
vt 2.4564 -0.9886 -0.2321
vt -1.8095 0.0052 -0.1147
vt -1.8053 -0.9903 -0.1127
vt -1.4826 -0.9885 -0.0620
vt -1.4868 0.0070 -0.0639
vt 0.8569 0.6593 0.4387
vt 0.1402 0.6581 0.4355
vt 0.1428 0.3538 0.5610
vt 0.8594 0.3549 0.5642
vt -0.3169 -0.9896 -2.3806
vt -0.3189 0.0439 -2.3846
vt -0.6244 0.0436 -2.3294
vt -0.6224 -0.9899 -2.3254
vt 1.2662 -0.9878 -2.0579
vt 1.5716 -0.9881 -2.0027
vt 1.5736 0.0454 -2.0067
vt 1.2681 0.0457 -2.0619
vt 3.3254 -0.9899 -0.6224
vt 3.3294 0.0436 -0.6244
vt 3.0067 0.0454 -0.5736
vt 3.0027 -0.9881 -0.5716
vt -2.3846 0.0439 -0.3189
vt -2.3806 -0.9896 -0.3169
vt -2.0579 -0.9878 -0.2662
vt -2.0619 0.0457 -0.2681
vt 0.8492 0.6601 0.4362
vt -0.8792 0.6640 0.4374
vt -0.8648 0.3482 0.5641
vt 0.8636 0.3443 0.5629
vt -2.3065 -1.2952 1.1305
vt -2.3016 -0.2997 1.1403
vt -2.4739 -0.2986 1.1231
vt -2.4788 -1.2941 1.1133
vt 3.2722 -1.2920 0.8076
vt 3.4445 -1.2909 0.7904
vt 3.4396 -0.2954 0.8002
vt 3.2673 -0.2965 0.8174
vt 1.1133 -1.2941 -2.4788
vt 1.1231 -0.2986 -2.4739
vt 0.8002 -0.2954 -2.4396
vt 0.7904 -1.2909 -2.4445
vt -0.1403 -0.2997 -2.3016
vt -0.1305 -1.2952 -2.3065
vt 0.1924 -1.2920 -2.2722
vt 0.1826 -0.2965 -2.2673
vt 0.0930 0.3546 0.3907
vt 0.8983 0.3554 0.3868
vt 0.9012 0.8064 0.6093
vt 0.0960 0.8056 0.6132
vt 1.3424 -0.7132 -0.5019
vt 1.3423 0.2456 -0.5076
vt 0.6328 0.2455 -0.5131
vt 0.6328 -0.7132 -0.5074
vt -0.3341 -0.7144 0.3472
vt 0.3754 -0.7144 0.3416
vt 0.3754 0.2444 0.3360
vt -0.3341 0.2444 0.3415
vt 1.5074 -0.7132 0.6328
vt 1.5131 0.2455 0.6328
vt 0.6640 0.2444 0.6246
vt 0.6584 -0.7144 0.6246
vt -0.5076 0.2456 1.3423
vt -0.5019 -0.7132 1.3424
vt 0.3472 -0.7144 1.3341
vt 0.3415 0.2444 1.3341
vt 0.0005 0.0253 0.9739
vt 0.0301 0.9995 0.0005
vt 0.9995 0.9747 0.0261
vt 0.9699 0.0005 0.9995
vt 0.7139 0.2968 -121.5977
vt 0.2944 0.3069 -121.5122
vt -1.0354 -0.8622 -242.9346
vt 1.9644 -0.9341 -243.5454
vt 0.2808 0.6801 -119.6733
vt 0.7622 0.6723 -119.2500
vt 2.2694 1.8172 -226.3740
vt -1.1738 1.8728 -229.4102
vt 0.3073 0.7009 -119.4224
vt 0.7267 0.6909 -119.5073
vt 2.0560 1.8846 -228.6030
vt -0.9438 1.9565 -227.9917
vt 0.7535 0.2967 -121.4707
vt 0.2722 0.3044 -121.8936
vt -1.2355 -0.8142 -245.2910
vt 2.2077 -0.8697 -242.2559
vt 0.6136 0.9348 0.8872
vt 0.3802 0.9365 0.8813
vt 0.0006 0.0074 0.9747
vt 0.9700 0.0005 0.9995
vt 0.3474 0.9978 0.3793
vt 0.1128 0.9348 0.3864
vt 0.0005 0.0005 0.0300
vt 0.9747 0.2623 0.0004
vt 0.6127 0.9995 0.6467
vt 0.3793 0.9978 0.6526
vt 0.0004 0.2623 0.0253
vt 0.9697 0.2692 0.0005
vt 0.8813 0.9365 0.6198
vt 0.6467 0.9995 0.6127
vt 0.0005 0.2692 0.9697
vt 0.9747 0.0074 0.9994
vt 0.6127 0.6467 0.9995
vt 0.6198 0.8813 0.9365
vt 0.3864 0.8872 0.9348
vt 0.3793 0.6526 0.9978
vt 0.4970 0.9995 0.0447
vt 0.0005 0.0005 0.0009
vt 0.9995 0.0035 0.9998
vt 1.7355 -2.3724 9.1875
vt 1.9407 -2.3733 9.2188
vt 1.9900 2.9392 -132.5078
vt -0.9882 2.8892 -129.6055
vt 0.0030 0.1812 0.0000
vt 0.9970 0.1812 0.0000
vt 0.9970 0.9988 0.0000
vt 0.0030 0.9988 0.0000
vt 0.0368 0.2489 0.0000
vt 0.1014 0.2479 0.0000
vt 0.1024 0.8352 0.0000
vt 0.0379 0.8362 0.0000
vt 0.5853 0.0704 0.0000
vt 0.3269 0.0704 0.0000
vt 0.3265 0.0323 0.0000
vt 0.5848 0.0323 0.0000
vt 0.6591 0.1929 0.0000
vt 0.3351 0.1929 0.0000
vt 0.3472 0.0764 0.0000
vt 0.6469 0.0764 0.0000
vt 0.8463 0.1929 0.0000
vt 0.1479 0.1929 0.0000
vt 0.1738 0.0764 0.0000
vt 0.8200 0.0764 0.0000
vt 0.5848 0.1740 0.0000
vt 0.5853 0.1899 0.0000
vt 0.3269 0.1899 0.0000
vt 0.3265 0.1740 0.0000
vt 7.8150 1.0219 0.0000
vt -5.8643 1.0219 0.0000
vt -5.2756 -0.0042 0.0000
vt 6.0299 -0.0042 0.0000
vt -6.1388 1.0217 0.0000
vt -4.3109 0.0013 0.0000
vt 6.5565 0.0013 0.0000
vt 7.1265 1.0217 0.0000
vt -2.0599 2.9907 0.0000
vt -1.9747 3.9907 0.0000
vt -2.0599 3.9907 0.0000
vt 1.4706 0.0597 0.0000
vt 1.4703 0.1541 0.0000
vt -0.5372 0.1541 0.0000
vt -0.5368 0.0597 0.0000
vt 0.1170 0.0521 0.0000
vt 0.5156 0.0521 0.0000
vt 0.5156 0.1497 0.0000
vt 0.1170 0.1497 0.0000
vt -0.7384 -2.5249 -79.4531
vt 1.9803 2.9165 -32.4648
vt -0.9966 2.8224 -24.7813
vt -0.9436 -2.5283 -79.5859
vt 0.0004 0.9945 0.3574
vt 0.0065 0.0005 1.0020
vt 0.9995 0.0055 0.6465
vt 0.9934 0.9995 0.0020
# 810 texture coords

g Pikk_64_1
usemtl Pikk_64_1_Tex2
s 1
f 1/1/1 2/2/1 3/3/2 4/4/1 
s 2
f 5/5/3 3/6/4 6/7/4 7/8/3 
usemtl Pikk_64_1_Tex4
s 1
f 8/9/5 7/10/6 9/11/7 
usemtl Pikk_64_1_Tex12
f 10/12/1 11/13/1 12/14/1 13/15/1 
usemtl Pikk_64_1_Tex4
f 14/16/8 15/17/2 16/18/9 
usemtl Pikk_64_1_Tex2
f 17/19/10 18/20/10 19/21/10 20/22/10 
s 4
f 21/23/11 3/3/11 2/2/11 22/24/11 
s 2
f 20/25/12 19/26/12 23/27/12 24/28/12 
f 25/29/12 6/30/4 3/31/4 21/32/12 
usemtl Pikk_64_1_Tex4
s 4
f 24/33/10 23/34/10 16/35/10 26/36/10 
f 27/33/11 15/34/11 6/35/11 25/36/11 
s 2
f 26/37/13 16/38/13 15/39/13 27/40/13 
usemtl Pikk_64_1_Tex2
s 1
f 22/24/1 28/41/1 29/42/1 21/23/1 
s 2
f 21/43/12 29/44/12 30/45/12 25/46/12 
f 31/47/12 20/48/12 24/49/12 32/50/12 
s 4
f 33/51/1 17/19/1 20/22/1 31/52/1 
f 34/53/14 30/54/14 29/42/14 28/41/14 
s 1
f 33/51/15 31/52/15 32/55/15 35/56/15 
usemtl Pikk_64_1_Tex4
s 8
f 30/57/1 36/58/2 27/59/2 25/60/1 
f 36/58/2 37/61/2 26/62/2 27/59/2 
f 32/63/1 24/64/1 26/62/2 37/61/2 
s 4
f 11/65/16 32/66/16 37/67/16 12/68/16 
s 16
f 13/69/11 36/70/11 30/71/11 10/72/11 
s 2
f 12/37/13 37/38/13 36/39/13 13/40/13 
s 16
f 34/73/11 10/72/11 30/71/11 
s 4
f 32/66/16 11/65/16 35/74/10 
usemtl Pikk_64_1_Tex2
s 1
f 3/3/2 38/75/2 4/4/1 
f 39/76/17 40/77/18 5/78/19 41/79/20 
f 42/80/1 38/75/2 43/81/21 44/82/1 
usemtl Pikk_64_1_Tex1
f 45/83/1 46/84/1 47/85/1 48/86/1 
usemtl Pikk_64_1_Tex2
f 43/81/21 38/75/2 3/3/2 5/78/19 
f 5/78/19 40/77/18 43/81/21 
s 2
f 46/87/13 4/88/13 38/89/13 47/90/13 
s 4
f 45/87/10 1/88/10 4/89/10 46/90/10 
f 47/87/11 38/88/11 42/89/11 48/90/11 
s 2
f 49/87/13 43/88/13 40/89/13 50/90/13 
s 4
f 51/87/22 44/88/22 43/89/22 49/90/22 
f 50/87/23 40/88/23 39/89/23 52/90/23 
usemtl Pikk_64_1_Tex1
s 1
f 49/91/1 50/92/1 52/93/1 51/94/1 
usemtl Pikk_64_1_Tex4
f 53/95/2 54/96/24 15/17/2 14/16/8 
f 8/9/5 55/97/25 56/98/26 7/10/6 
f 9/11/7 57/99/27 53/95/2 58/100/28 
usemtl Pikk_64_1_Tex3
f 59/101/1 60/102/1 61/103/1 62/104/1 
usemtl Pikk_64_1_Tex4
s 2
f 60/33/10 9/34/10 58/35/10 61/36/10 
s 4
f 59/37/12 8/38/12 9/39/12 60/40/12 
s 2
f 62/33/11 55/34/11 8/35/11 59/36/11 
s 4
f 61/37/13 58/38/13 55/39/13 62/40/13 
s 1
f 63/105/1 6/106/29 15/17/2 54/96/24 
usemtl Pikk_64_1_Tex3
f 64/107/1 65/108/1 66/109/1 67/110/1 
usemtl Pikk_64_1_Tex4
s 2
f 65/33/10 63/34/10 54/35/10 66/36/10 
s 4
f 64/37/12 57/38/12 63/39/12 65/40/12 
s 2
f 67/33/11 53/34/11 57/35/11 64/36/11 
s 4
f 66/37/13 54/38/13 53/39/13 67/40/13 
s 1
f 58/100/28 53/95/2 14/16/8 56/98/26 
f 56/98/26 55/97/25 58/100/28 
f 57/99/27 9/11/7 7/10/6 6/106/29 
f 6/106/29 63/105/1 57/99/27 
usemtl Pikk_64_1_Tex2
f 68/111/30 69/112/31 70/113/32 71/114/30 
s 2
f 72/115/33 73/116/33 74/117/33 70/118/33 
usemtl Pikk_64_1_Tex4
s 1
f 75/119/34 76/120/35 73/121/36 
usemtl Pikk_64_1_Tex3
f 77/122/37 78/123/37 79/124/37 80/125/37 
usemtl Pikk_64_1_Tex4
f 81/126/38 82/127/39 83/128/40 
usemtl Pikk_64_1_Tex2
f 84/129/41 85/130/41 86/131/41 87/132/41 
s 4
f 88/133/42 89/134/42 71/114/42 70/113/42 
s 2
f 85/135/12 90/136/12 91/137/12 86/138/12 
f 92/139/12 88/140/12 70/141/33 74/142/33 
usemtl Pikk_64_1_Tex4
s 4
f 90/33/43 93/34/43 82/35/43 91/36/43 
f 94/33/44 92/34/44 74/35/44 83/36/44 
s 2
f 93/37/13 94/38/13 83/39/13 82/40/13 
usemtl Pikk_64_1_Tex2
s 8
f 84/129/45 89/134/45 88/133/45 85/130/45 
s 2
f 90/143/12 85/144/12 88/145/12 92/146/12 
usemtl Pikk_64_1_Tex4
s 1
f 95/147/46 92/148/47 94/149/48 96/150/49 
f 96/150/49 94/149/48 93/151/50 97/152/37 
f 98/153/37 97/152/37 93/151/50 90/154/51 
s 2
f 79/37/13 78/38/13 96/39/13 97/40/13 
usemtl Pikk_64_1_Tex2
s 1
f 70/113/32 69/112/31 99/155/52 
f 100/156/53 101/157/53 72/158/54 102/159/55 
f 103/160/56 104/161/56 105/162/57 99/155/52 
usemtl Pikk_64_1_Tex1
f 106/163/45 107/164/45 108/165/45 109/166/45 
usemtl Pikk_64_1_Tex2
f 105/162/57 72/158/54 70/113/32 99/155/52 
f 72/158/54 105/162/57 102/159/55 
s 2
f 109/87/13 108/88/13 99/89/13 69/90/13 
s 4
f 106/87/58 109/88/58 69/89/58 68/90/58 
f 108/87/59 107/88/59 103/89/59 99/90/59 
s 2
f 110/87/13 111/88/13 102/89/13 105/90/13 
s 4
f 112/87/58 110/88/58 105/89/58 104/90/58 
f 111/87/60 113/88/60 100/89/60 102/90/60 
usemtl Pikk_64_1_Tex1
s 1
f 110/167/37 112/163/37 113/168/37 111/169/37 
usemtl Pikk_64_1_Tex4
f 114/170/61 81/126/38 83/128/40 115/171/62 
f 75/119/34 73/121/36 116/172/63 117/173/63 
f 76/120/35 118/174/40 114/170/61 119/175/40 
usemtl Pikk_64_1_Tex3
f 120/176/45 121/177/45 122/178/45 123/179/45 
usemtl Pikk_64_1_Tex4
s 2
f 123/33/64 122/34/64 118/35/64 76/36/64 
s 4
f 120/37/12 123/38/12 76/39/12 75/40/12 
s 2
f 121/33/60 120/34/60 75/35/60 117/36/60 
s 4
f 122/37/13 121/38/13 117/39/13 118/40/13 
s 1
f 124/180/65 115/171/62 83/128/40 74/181/66 
usemtl Pikk_64_1_Tex3
f 125/182/67 126/183/67 127/184/67 128/185/67 
usemtl Pikk_64_1_Tex4
s 2
f 128/33/68 127/34/68 115/35/68 124/36/68 
s 4
f 125/37/12 128/38/12 124/39/12 119/40/12 
s 2
f 126/33/69 125/34/69 119/35/69 114/36/69 
s 4
f 127/37/13 126/38/13 114/39/13 115/40/13 
s 1
f 118/174/40 116/172/63 81/126/38 114/170/61 
f 116/172/63 118/174/40 117/173/63 
f 119/175/40 74/181/66 73/121/36 76/120/35 
f 74/181/66 119/175/40 124/180/65 
usemtl Pikk_64_1_Tex2
s 4
f 19/21/70 18/20/70 87/132/70 86/131/70 
s 2
f 23/186/12 19/187/12 86/188/12 91/189/12 
usemtl Pikk_64_1_Tex4
s 1
f 16/18/9 23/190/71 91/191/71 82/127/39 
f 14/16/8 16/18/9 82/127/39 81/126/38 
s 4
f 80/33/72 79/34/72 97/35/72 98/36/72 
f 78/33/73 77/34/73 95/35/73 96/36/73 
s 1
f 90/154/51 92/148/47 95/147/46 98/153/37 
s 2
f 98/37/12 95/38/12 77/39/12 80/40/12 
usemtl Pikk_64_1_Tex5
f 14/192/74 129/193/75 56/194/76 
f 116/195/77 130/196/78 81/197/79 
f 129/193/75 14/192/74 81/197/79 130/196/78 
s 1
f 131/198/80 129/193/81 130/196/82 132/199/82 
usemtl Pikk_64_1_Tex6
s 2
f 133/200/83 131/201/83 132/202/83 134/203/84 
usemtl Pikk_64_1_Tex8
s 1
f 135/204/85 133/205/85 134/206/86 136/207/87 
s 2
f 137/208/88 135/204/88 136/207/89 138/209/89 
s 1
f 139/210/90 137/208/90 138/209/90 140/211/90 
s 2
f 141/212/91 139/210/91 140/211/91 142/213/91 
usemtl Pikk_64_1_Tex9
s 1
f 143/214/92 144/215/93 141/216/94 
usemtl Pikk_64_1_Tex6
f 145/217/95 146/218/95 147/219/95 148/220/96 
s 2
f 149/221/97 147/222/98 146/223/99 150/224/100 
s 1
f 151/225/101 149/221/102 150/224/101 152/226/103 
s 2
f 153/227/104 145/228/105 148/229/106 154/230/107 
s 1
f 155/231/108 153/227/109 154/230/110 156/232/111 
s 2
f 157/233/112 155/234/113 156/235/114 158/236/115 
s 4
f 131/237/116 56/238/116 129/239/117 
f 144/240/116 133/241/118 135/242/118 137/243/116 
f 144/240/116 137/243/116 139/244/116 141/245/116 
f 56/238/116 159/246/116 7/247/116 
f 133/241/118 144/240/116 160/248/116 131/237/116 
f 159/246/116 56/238/116 131/237/116 160/248/116 
f 7/247/116 159/246/116 41/249/116 5/250/119 
s 1
f 158/251/120 159/246/121 160/248/122 157/252/123 
usemtl Pikk_64_1_Tex9
s 2
f 161/253/124 143/254/125 162/255/126 163/256/127 
usemtl Pikk_64_1_Tex6
s 1
f 157/252/123 160/248/122 164/257/128 
usemtl Pikk_64_1_Tex5
s 4
f 165/258/129 166/259/130 146/260/131 
s 8
f 167/261/132 150/262/133 146/263/134 166/264/135 
s 4
f 168/265/136 152/266/137 150/267/138 167/268/139 
s 8
f 169/269/140 145/270/141 153/271/142 170/272/143 
s 4
f 170/273/144 153/274/145 155/275/146 171/276/147 
s 8
f 171/277/148 155/278/149 157/279/150 164/280/151 
usemtl Pikk_64_1_Tex9
s 1
f 172/281/152 168/282/153 167/283/154 173/284/155 
s 2
f 171/285/156 172/286/157 173/287/158 170/288/159 
s 16
f 173/289/160 167/290/160 166/291/160 
s 32
f 170/292/161 173/293/161 169/294/161 
s 8
f 161/295/162 168/296/163 172/297/164 143/298/165 
s 16
f 160/299/166 172/300/167 171/301/168 164/302/169 
f 172/303/167 160/304/166 144/305/170 143/306/171 
s 1
f 143/214/92 141/216/94 142/307/172 162/308/173 
usemtl Pikk_64_1_Tex5
s 16
f 161/309/174 152/310/175 168/311/176 
usemtl Pikk_64_1_Tex6
s 2
f 174/312/177 151/313/177 152/314/178 175/315/179 
usemtl Pikk_64_1_Tex5
s 16
f 175/316/180 152/317/175 161/318/174 163/319/181 
usemtl Pikk_64_1_Tex6
s 4
f 132/320/182 174/321/182 175/322/182 134/323/182 
f 73/324/183 72/325/184 101/326/182 174/321/182 
f 130/327/183 116/328/182 132/320/182 
f 73/324/183 174/321/182 116/328/182 
f 116/328/182 174/321/182 132/320/182 
f 162/329/182 138/330/182 136/331/182 163/332/182 
f 175/322/182 163/332/182 136/331/182 134/323/182 
f 140/333/182 138/330/182 162/329/182 142/334/182 
usemtl Pikk_64_1_Tex3
s 1
f 176/335/185 177/336/185 178/337/186 179/338/187 
s 2
f 180/339/188 178/340/188 177/341/188 181/342/188 
f 182/339/189 176/340/189 179/341/189 183/342/189 
s 1
f 184/343/190 185/344/190 186/345/190 187/346/190 
f 188/347/191 179/348/187 178/349/186 189/350/192 
s 4
f 190/339/193 183/340/193 179/341/193 188/342/193 
f 189/339/194 178/340/194 180/341/194 191/342/194 
s 1
f 192/351/195 188/347/191 189/350/192 193/352/196 
s 2
f 194/339/197 190/340/197 188/341/197 192/342/197 
f 193/339/198 189/340/198 191/341/198 195/342/198 
f 185/344/199 196/353/200 197/354/201 186/345/202 
s 4
f 185/355/117 184/356/117 198/357/117 
f 186/358/203 193/359/204 195/360/205 199/361/206 
s 8
f 196/362/207 192/363/207 193/364/207 197/365/207 
s 16
f 192/366/208 196/367/209 185/355/210 
s 4
f 186/358/203 197/368/211 193/359/204 
s 8
f 199/361/182 187/369/182 186/358/182 
s 16
f 198/357/212 194/370/213 192/366/208 185/355/210 
usemtl Pikk_64_1_Tex7
s 1
f 200/371/214 201/372/214 202/373/214 203/374/214 
s 2
f 204/375/215 202/376/215 201/377/215 205/378/215 
f 206/375/216 200/376/216 203/377/216 207/378/216 
s 1
f 208/379/217 209/380/217 210/381/217 211/382/217 
s 2
f 212/383/218 213/384/219 210/385/220 209/386/221 
f 214/387/222 215/388/223 208/389/224 211/390/225 
s 4
f 213/391/226 214/392/227 211/393/228 210/394/229 
s 1
f 213/395/230 212/396/230 215/397/230 214/398/230 
f 216/399/231 217/400/232 218/401/233 
s 2
f 219/402/234 220/403/235 217/404/236 216/405/237 
s 4
f 221/406/238 222/407/239 216/408/240 218/409/238 
s 8
f 222/405/241 223/402/241 219/403/241 216/404/241 
s 4
f 224/405/242 225/402/243 217/403/243 220/404/244 
s 1
f 223/410/245 224/411/245 220/412/245 219/413/245 
f 226/414/246 227/415/247 228/416/248 
s 2
f 229/402/249 230/403/250 227/404/251 226/405/252 
s 4
f 231/406/253 232/407/253 228/408/253 227/409/254 
f 233/405/255 234/402/255 229/403/255 226/404/255 
s 8
f 235/405/256 231/402/257 227/403/256 230/404/256 
s 1
f 234/410/258 235/411/258 230/412/258 229/413/258 
f 226/414/246 228/416/248 218/401/233 217/400/232 
s 8
f 233/379/259 226/380/259 217/381/259 225/382/259 
s 4
f 203/375/260 202/376/260 204/377/260 207/378/260 
usemtl Pikk_64_1_Tex3
s 1
f 236/335/185 237/336/185 238/337/186 239/338/187 
s 2
f 240/339/188 238/340/188 237/341/188 241/342/188 
f 242/339/189 236/340/189 239/341/189 243/342/189 
s 1
f 244/343/190 245/344/190 246/345/190 247/346/190 
f 248/347/191 239/348/187 238/349/186 249/350/192 
s 4
f 250/339/193 243/340/193 239/341/193 248/342/193 
f 249/339/194 238/340/194 240/341/194 251/342/194 
s 1
f 252/351/195 248/347/191 249/350/192 253/352/196 
s 2
f 254/339/197 250/340/197 248/341/197 252/342/197 
f 253/339/198 249/340/198 251/341/198 255/342/198 
f 245/344/199 256/353/200 257/354/201 246/345/202 
s 4
f 245/355/117 244/356/117 258/357/117 
f 246/358/203 253/359/204 255/360/205 259/361/206 
s 8
f 256/362/207 252/363/207 253/364/207 257/365/207 
s 16
f 252/366/208 256/367/209 245/355/210 
s 4
f 246/358/203 257/368/211 253/359/204 
s 8
f 259/361/182 247/369/182 246/358/182 
s 16
f 258/357/212 254/370/213 252/366/208 245/355/210 
usemtl Pikk_64_1_Tex7
s 1
f 260/371/214 261/372/214 262/373/214 263/374/214 
s 2
f 264/375/215 262/376/215 261/377/215 265/378/215 
f 266/375/216 260/376/216 263/377/216 267/378/216 
s 1
f 268/379/217 269/380/217 270/381/217 271/382/217 
s 2
f 272/383/218 273/384/219 270/385/220 269/386/221 
f 274/387/222 275/388/223 268/389/224 271/390/225 
s 4
f 273/391/226 274/392/227 271/393/228 270/394/229 
s 1
f 273/395/230 272/396/230 275/397/230 274/398/230 
f 276/399/231 277/400/232 278/401/233 
s 2
f 279/402/234 280/403/235 277/404/236 276/405/237 
s 4
f 281/406/238 282/407/239 276/408/240 278/409/238 
s 8
f 282/405/241 283/402/241 279/403/241 276/404/241 
s 4
f 284/405/242 285/402/243 277/403/243 280/404/244 
s 1
f 283/410/245 284/411/245 280/412/245 279/413/245 
f 286/414/246 287/415/247 288/416/248 
s 2
f 289/402/249 290/403/250 287/404/251 286/405/252 
s 4
f 291/406/253 292/407/253 288/408/253 287/409/254 
f 293/405/255 294/402/255 289/403/255 286/404/255 
s 8
f 295/405/256 291/402/257 287/403/256 290/404/256 
s 1
f 294/410/258 295/411/258 290/412/258 289/413/258 
f 286/414/246 288/416/248 278/401/233 277/400/232 
s 8
f 293/379/259 286/380/259 277/381/259 285/382/259 
s 4
f 263/375/260 262/376/260 264/377/260 267/378/260 
usemtl Pikk_64_1_Tex3
s 1
f 296/335/185 297/336/185 298/337/186 299/338/187 
s 2
f 300/339/188 298/340/188 297/341/188 301/342/188 
f 302/339/189 296/340/189 299/341/189 303/342/189 
s 1
f 304/343/190 305/344/190 306/345/190 307/346/190 
f 308/347/191 299/348/187 298/349/186 309/350/192 
s 4
f 310/339/193 303/340/193 299/341/193 308/342/193 
f 309/339/194 298/340/194 300/341/194 311/342/194 
s 1
f 312/351/195 308/347/191 309/350/192 313/352/196 
s 2
f 314/339/197 310/340/197 308/341/197 312/342/197 
f 313/339/198 309/340/198 311/341/198 315/342/198 
f 305/344/199 316/353/200 317/354/201 306/345/202 
s 4
f 305/355/117 304/356/117 318/357/117 
f 306/358/203 313/359/204 315/360/205 319/361/206 
s 8
f 316/362/207 312/363/207 313/364/207 317/365/207 
s 16
f 312/366/208 316/367/209 305/355/210 
s 4
f 306/358/203 317/368/211 313/359/204 
s 8
f 319/361/182 307/369/182 306/358/182 
s 16
f 318/357/212 314/370/213 312/366/208 305/355/210 
usemtl Pikk_64_1_Tex7
s 1
f 320/371/214 321/372/214 322/373/214 323/374/214 
s 2
f 324/375/215 322/376/215 321/377/215 325/378/215 
f 326/375/216 320/376/216 323/377/216 327/378/216 
s 1
f 328/379/217 329/380/217 330/381/217 331/382/217 
s 2
f 332/383/218 333/384/219 330/385/220 329/386/221 
f 334/387/222 335/388/223 328/389/224 331/390/225 
s 4
f 333/391/226 334/392/227 331/393/228 330/394/229 
s 1
f 333/395/230 332/396/230 335/397/230 334/398/230 
f 336/399/231 337/400/232 338/401/233 
s 2
f 339/402/234 340/403/235 337/404/236 336/405/237 
s 4
f 341/406/238 342/407/239 336/408/240 338/409/238 
s 8
f 342/405/241 343/402/241 339/403/241 336/404/241 
s 4
f 344/405/242 345/402/243 337/403/243 340/404/244 
s 1
f 343/410/245 344/411/245 340/412/245 339/413/245 
f 346/414/246 347/415/247 348/416/248 
s 2
f 349/402/249 350/403/250 347/404/251 346/405/252 
s 4
f 351/406/253 352/407/253 348/408/253 347/409/254 
f 353/405/255 354/402/255 349/403/255 346/404/255 
s 8
f 355/405/256 351/402/257 347/403/256 350/404/256 
s 1
f 354/410/258 355/411/258 350/412/258 349/413/258 
f 346/414/246 348/416/248 338/401/233 337/400/232 
s 8
f 353/379/259 346/380/259 337/381/259 345/382/259 
s 4
f 323/375/260 322/376/260 324/377/260 327/378/260 
usemtl Pikk_64_1_Tex3
s 1
f 356/335/185 357/336/185 358/337/186 359/338/187 
s 2
f 360/339/188 358/340/188 357/341/188 361/342/188 
f 362/339/189 356/340/189 359/341/189 363/342/189 
s 1
f 364/343/190 365/344/190 366/345/190 367/346/190 
f 368/347/191 359/348/187 358/349/186 369/350/192 
s 4
f 370/339/193 363/340/193 359/341/193 368/342/193 
f 369/339/194 358/340/194 360/341/194 371/342/194 
s 1
f 372/351/195 368/347/191 369/350/192 373/352/196 
s 2
f 374/339/197 370/340/197 368/341/197 372/342/197 
f 373/339/198 369/340/198 371/341/198 375/342/198 
f 365/344/199 376/353/200 377/354/201 366/345/202 
s 4
f 365/355/117 364/356/117 378/357/117 
f 366/358/203 373/359/204 375/360/205 379/361/206 
s 8
f 376/362/207 372/363/207 373/364/207 377/365/207 
s 16
f 372/366/208 376/367/209 365/355/210 
s 4
f 366/358/203 377/368/211 373/359/204 
s 8
f 379/361/182 367/369/182 366/358/182 
s 16
f 378/357/212 374/370/213 372/366/208 365/355/210 
usemtl Pikk_64_1_Tex7
s 1
f 380/371/214 381/372/214 382/373/214 383/374/214 
s 2
f 384/375/215 382/376/215 381/377/215 385/378/215 
f 386/375/216 380/376/216 383/377/216 387/378/216 
s 1
f 388/379/217 389/380/217 390/381/217 391/382/217 
s 2
f 392/383/218 393/384/219 390/385/220 389/386/221 
f 394/387/222 395/388/223 388/389/224 391/390/225 
s 4
f 393/391/226 394/392/227 391/393/228 390/394/229 
s 1
f 393/395/230 392/396/230 395/397/230 394/398/230 
f 396/399/231 397/400/232 398/401/233 
s 2
f 399/402/234 400/403/235 397/404/236 396/405/237 
s 4
f 401/406/238 402/407/239 396/408/240 398/409/238 
s 8
f 402/405/241 403/402/241 399/403/241 396/404/241 
s 4
f 404/405/242 405/402/243 397/403/243 400/404/244 
s 1
f 403/410/245 404/411/245 400/412/245 399/413/245 
f 406/414/246 407/415/247 408/416/248 
s 2
f 409/402/249 410/403/250 407/404/251 406/405/252 
s 4
f 411/406/253 412/407/253 408/408/253 407/409/254 
f 413/405/255 414/402/255 409/403/255 406/404/255 
s 8
f 415/405/256 411/402/257 407/403/256 410/404/256 
s 1
f 414/410/258 415/411/258 410/412/258 409/413/258 
f 406/414/246 408/416/248 398/401/233 397/400/232 
s 8
f 413/379/259 406/380/259 397/381/259 405/382/259 
s 4
f 383/375/260 382/376/260 384/377/260 387/378/260 
usemtl Pikk_64_1_Tex3
s 1
f 416/335/185 417/336/185 418/337/186 419/338/187 
s 2
f 420/339/188 418/340/188 417/341/188 421/342/188 
f 422/339/189 416/340/189 419/341/189 423/342/189 
s 1
f 424/343/190 425/344/190 426/345/190 427/346/190 
f 428/347/191 419/348/187 418/349/186 429/350/192 
s 4
f 430/339/193 423/340/193 419/341/193 428/342/193 
f 429/339/194 418/340/194 420/341/194 431/342/194 
s 1
f 432/351/195 428/347/191 429/350/192 433/352/196 
s 2
f 434/339/197 430/340/197 428/341/197 432/342/197 
f 433/339/198 429/340/198 431/341/198 435/342/198 
f 425/344/199 436/353/200 437/354/201 426/345/202 
s 4
f 425/355/117 424/356/117 438/357/117 
f 426/358/203 433/359/204 435/360/205 439/361/206 
s 8
f 436/362/207 432/363/207 433/364/207 437/365/207 
s 16
f 432/366/208 436/367/209 425/355/210 
s 4
f 426/358/203 437/368/211 433/359/204 
s 8
f 439/361/182 427/369/182 426/358/182 
s 16
f 438/357/212 434/370/213 432/366/208 425/355/210 
usemtl Pikk_64_1_Tex7
s 1
f 440/371/214 441/372/214 442/373/214 443/374/214 
s 2
f 444/375/215 442/376/215 441/377/215 445/378/215 
f 446/375/216 440/376/216 443/377/216 447/378/216 
s 1
f 448/379/217 449/380/217 450/381/217 451/382/217 
s 2
f 452/383/218 453/384/219 450/385/220 449/386/221 
f 454/387/222 455/388/223 448/389/224 451/390/225 
s 4
f 453/391/226 454/392/227 451/393/228 450/394/229 
s 1
f 453/395/230 452/396/230 455/397/230 454/398/230 
f 456/399/231 457/400/232 458/401/233 
s 2
f 459/402/234 460/403/235 457/404/236 456/405/237 
s 4
f 461/406/238 462/407/239 456/408/240 458/409/238 
s 8
f 462/405/241 463/402/241 459/403/241 456/404/241 
s 4
f 464/405/242 465/402/243 457/403/243 460/404/244 
s 1
f 463/410/245 464/411/245 460/412/245 459/413/245 
f 466/414/246 467/415/247 468/416/248 
s 2
f 469/402/249 470/403/250 467/404/251 466/405/252 
s 4
f 471/406/253 472/407/253 468/408/253 467/409/254 
f 473/405/255 474/402/255 469/403/255 466/404/255 
s 8
f 475/405/256 471/402/257 467/403/256 470/404/256 
s 1
f 474/410/258 475/411/258 470/412/258 469/413/258 
f 466/414/246 468/416/248 458/401/233 457/400/232 
s 8
f 473/379/259 466/380/259 457/381/259 465/382/259 
s 4
f 443/375/260 442/376/260 444/377/260 447/378/260 
usemtl Pikk_64_1_Tex3
s 1
f 476/335/185 477/336/185 478/337/186 479/338/187 
s 2
f 480/339/188 478/340/188 477/341/188 481/342/188 
f 482/339/189 476/340/189 479/341/189 483/342/189 
s 1
f 484/343/190 485/344/190 486/345/190 487/346/190 
f 488/347/191 479/348/187 478/349/186 489/350/192 
s 4
f 490/339/193 483/340/193 479/341/193 488/342/193 
f 489/339/194 478/340/194 480/341/194 491/342/194 
s 1
f 492/351/195 488/347/191 489/350/192 493/352/196 
s 2
f 494/339/197 490/340/197 488/341/197 492/342/197 
f 493/339/198 489/340/198 491/341/198 495/342/198 
f 485/344/199 496/353/200 497/354/201 486/345/202 
s 4
f 485/355/117 484/356/117 498/357/117 
f 486/358/203 493/359/204 495/360/205 499/361/206 
s 8
f 496/362/207 492/363/207 493/364/207 497/365/207 
s 16
f 492/366/208 496/367/209 485/355/210 
s 4
f 486/358/203 497/368/211 493/359/204 
s 8
f 499/361/182 487/369/182 486/358/182 
s 16
f 498/357/212 494/370/213 492/366/208 485/355/210 
usemtl Pikk_64_1_Tex7
s 1
f 500/371/214 501/372/214 502/373/214 503/374/214 
s 2
f 504/375/215 502/376/215 501/377/215 505/378/215 
f 506/375/216 500/376/216 503/377/216 507/378/216 
s 1
f 508/379/217 509/380/217 510/381/217 511/382/217 
s 2
f 512/383/218 513/384/219 510/385/220 509/386/221 
f 514/387/222 515/388/223 508/389/224 511/390/225 
s 4
f 513/391/226 514/392/227 511/393/228 510/394/229 
s 1
f 513/395/230 512/396/230 515/397/230 514/398/230 
f 516/399/231 517/400/232 518/401/233 
s 2
f 519/402/234 520/403/235 517/404/236 516/405/237 
s 4
f 521/406/238 522/407/239 516/408/240 518/409/238 
s 8
f 522/405/241 523/402/241 519/403/241 516/404/241 
s 4
f 524/405/242 525/402/243 517/403/243 520/404/244 
s 1
f 523/410/245 524/411/245 520/412/245 519/413/245 
f 526/414/246 527/415/247 528/416/248 
s 2
f 529/402/249 530/403/250 527/404/251 526/405/252 
s 4
f 531/406/253 532/407/253 528/408/253 527/409/254 
f 533/405/255 534/402/255 529/403/255 526/404/255 
s 8
f 535/405/256 531/402/257 527/403/256 530/404/256 
s 1
f 534/410/258 535/411/258 530/412/258 529/413/258 
f 526/414/246 528/416/248 518/401/233 517/400/232 
s 8
f 533/379/259 526/380/259 517/381/259 525/382/259 
s 4
f 503/375/260 502/376/260 504/377/260 507/378/260 
usemtl Pikk_64_1_Tex10
s 1
f 536/417/261 537/418/262 538/419/263 539/420/264 
s 2
f 537/421/265 540/422/266 541/423/267 538/424/268 
f 542/425/269 536/426/270 539/427/269 543/428/271 
s 4
f 543/429/272 539/430/273 538/431/274 544/432/275 
s 1
f 545/433/276 541/434/277 540/435/277 546/436/278 
s 4
f 544/432/275 538/431/274 541/437/279 545/438/280 
f 546/439/281 540/440/282 537/441/283 547/442/284 
f 547/442/284 537/441/283 536/443/285 542/444/286 
s 1
f 548/445/287 549/446/288 550/447/289 551/448/290 
s 2
f 552/449/291 553/450/292 554/451/293 555/452/294 
f 553/450/292 552/449/291 549/446/295 548/445/296 
s 4
f 556/453/297 550/454/298 549/455/299 557/456/300 
f 558/457/301 552/458/302 555/459/303 559/460/304 
f 557/456/300 549/455/299 552/458/302 558/457/301 
s 1
f 559/461/305 555/462/306 554/463/307 560/464/308 
s 4
f 560/465/309 554/466/310 553/467/311 561/468/312 
f 561/468/312 553/467/311 548/469/313 562/470/314 
s 2
f 563/471/315 551/472/316 550/473/315 556/474/317 
s 4
f 562/470/314 548/469/313 551/475/318 563/476/319 
s 1
f 564/477/320 565/478/320 566/479/320 567/480/320 
f 568/481/321 569/482/321 570/483/321 571/484/321 
s 2
f 567/485/322 566/486/322 570/487/322 569/488/322 
f 565/489/323 564/490/323 568/491/323 571/492/323 
usemtl Pikk_64_1_Tex11
s 4
f 566/493/324 565/494/324 571/495/324 570/496/324 
usemtl Pikk_64_1_Tex10
s 1
f 572/497/325 573/498/325 574/499/325 575/500/325 
f 576/501/326 577/502/326 578/503/326 579/504/326 
s 2
f 575/505/327 574/506/327 578/507/327 577/508/327 
f 573/509/328 572/510/328 576/511/328 579/512/328 
usemtl Pikk_64_1_Tex11
s 4
f 574/513/329 573/514/329 579/515/329 578/516/330 
usemtl Pikk_64_1_Tex10
s 1
f 580/517/331 581/518/331 582/519/331 583/520/331 
f 584/521/332 585/522/332 586/523/332 587/524/332 
s 2
f 583/525/327 582/526/327 586/527/327 585/528/327 
f 581/529/333 580/530/333 584/531/333 587/532/333 
usemtl Pikk_64_1_Tex11
s 4
f 582/533/329 581/534/329 587/535/329 586/536/330 
usemtl Pikk_64_1_Tex10
s 1
f 588/537/334 589/538/334 590/539/334 591/540/334 
f 592/541/335 593/542/335 594/543/335 595/544/335 
s 2
f 591/545/327 590/546/327 594/547/327 593/548/327 
f 589/549/333 588/550/333 592/551/333 595/552/333 
usemtl Pikk_64_1_Tex11
s 4
f 590/553/336 589/554/336 595/555/336 594/556/336 
usemtl Pikk_64_1_Tex10
s 1
f 596/557/337 597/558/337 598/559/337 599/560/337 
f 600/561/338 601/562/338 602/563/338 603/564/338 
s 2
f 599/565/327 598/566/327 602/567/327 601/568/327 
f 597/569/333 596/570/333 600/571/333 603/572/333 
usemtl Pikk_64_1_Tex11
s 4
f 598/573/336 597/574/336 603/575/336 602/576/336 
usemtl Pikk_64_1_Tex10
s 1
f 604/577/339 605/578/339 606/579/339 607/580/339 
f 608/581/340 609/582/340 610/583/340 611/584/340 
s 2
f 607/585/341 606/586/341 610/587/341 609/588/341 
f 605/589/342 604/590/342 608/591/342 611/592/342 
usemtl Pikk_64_1_Tex11
s 4
f 606/593/343 605/594/343 611/595/343 610/596/343 
usemtl Pikk_64_1_Tex10
s 1
f 612/597/344 613/598/344 614/599/344 615/600/344 
f 616/601/345 617/602/345 618/603/345 619/604/345 
s 2
f 615/605/341 614/606/341 618/607/341 617/608/341 
f 613/609/342 612/610/342 616/611/342 619/612/342 
usemtl Pikk_64_1_Tex11
s 4
f 614/613/343 613/614/343 619/615/343 618/616/343 
usemtl Pikk_64_1_Tex10
s 1
f 620/617/346 621/618/346 622/619/346 623/620/346 
f 624/621/347 625/622/347 626/623/347 627/624/347 
s 2
f 623/625/348 622/626/348 626/627/348 625/628/348 
f 621/629/349 620/630/349 624/631/349 627/632/349 
usemtl Pikk_64_1_Tex11
s 4
f 622/633/350 621/634/350 627/635/350 626/636/350 
usemtl Pikk_64_1_Tex10
s 1
f 628/637/351 629/638/351 630/639/351 631/640/351 
f 632/641/352 633/642/352 634/643/352 635/644/352 
s 2
f 631/645/353 630/646/353 634/647/353 633/648/353 
f 629/649/354 628/650/354 632/651/354 635/652/354 
usemtl Pikk_64_1_Tex11
s 4
f 630/653/355 629/654/355 635/655/355 634/656/355 
usemtl Pikk_64_1_Tex10
s 1
f 636/657/356 637/658/356 638/659/356 639/660/356 
f 640/661/357 641/662/357 642/663/357 643/664/357 
s 2
f 639/665/353 638/666/353 642/667/353 641/668/353 
f 637/669/354 636/670/354 640/671/354 643/672/354 
usemtl Pikk_64_1_Tex11
s 4
f 638/673/358 637/674/358 643/675/358 642/676/358 
usemtl Pikk_64_1_Tex10
s 1
f 644/677/359 645/678/359 646/679/359 647/680/359 
f 648/681/360 649/682/360 650/683/360 651/684/360 
s 2
f 647/685/361 646/686/361 650/687/361 649/688/361 
f 645/689/362 644/690/362 648/691/362 651/692/362 
usemtl Pikk_64_1_Tex11
s 4
f 646/693/363 645/694/363 651/695/363 650/696/363 
usemtl Pikk_64_1_Tex10
s 1
f 652/697/364 653/698/364 654/699/364 655/700/365 
f 656/701/366 657/702/366 658/703/366 659/704/366 
s 2
f 655/705/367 654/706/367 658/707/367 657/708/367 
f 653/709/368 652/710/368 656/711/368 659/712/368 
s 1
f 660/713/369 661/714/369 662/715/369 663/716/369 
usemtl Pikk_64_1_Tex9
s 2
f 664/717/370 665/718/370 662/719/370 661/720/370 
s 4
f 666/721/371 664/722/371 661/723/371 660/724/371 
s 2
f 667/725/372 666/726/372 660/727/372 663/728/372 
s 4
f 665/729/373 667/730/373 663/731/373 662/732/373 
usemtl Pikk_64_1_Tex10
s 1
f 668/733/374 669/734/375 665/735/376 664/736/377 
s 8
f 670/737/378 668/738/378 664/739/378 666/740/378 
s 1
f 671/741/379 670/742/379 666/743/379 667/744/379 
s 8
f 669/745/380 671/746/380 667/747/380 665/748/380 
s 2
f 671/749/381 669/750/381 668/751/381 670/752/381 
usemtl Pikk_64_1_Tex6
s 1
f 672/753/382 165/754/382 673/755/382 
usemtl Pikk_64_1_Tex9
s 64
f 166/756/383 674/757/384 675/758/385 173/759/386 
usemtl Pikk_64_1_Tex7
s 1
f 676/760/387 677/761/387 678/762/387 679/763/387 
s 2
f 680/764/388 678/765/388 677/766/389 681/767/389 
f 682/764/390 676/765/390 679/766/391 683/767/391 
s 1
f 684/768/392 685/769/392 686/770/392 687/771/392 
s 2
f 688/772/393 689/773/394 686/774/393 685/775/395 
f 690/772/396 691/773/397 684/774/396 687/775/398 
s 4
f 689/776/399 690/777/400 687/778/401 686/779/402 
s 1
f 689/780/403 688/781/403 691/782/403 690/783/403 
s 4
f 679/764/404 678/765/404 680/766/404 683/767/404 
s 1
f 692/760/387 693/761/387 694/762/387 695/763/387 
s 2
f 696/764/388 694/765/388 693/766/389 697/767/389 
f 698/764/390 692/765/390 695/766/391 699/767/391 
s 1
f 700/768/392 701/769/392 702/770/392 703/771/392 
s 2
f 704/772/393 705/773/394 702/774/393 701/775/395 
f 706/772/396 707/773/397 700/774/396 703/775/398 
s 4
f 705/776/399 706/777/400 703/778/401 702/779/402 
s 1
f 705/780/403 704/781/403 707/782/403 706/783/403 
s 4
f 695/764/404 694/765/404 696/766/404 699/767/404 
s 1
f 708/760/387 709/761/387 710/762/387 711/763/387 
s 2
f 712/764/388 710/765/388 709/766/389 713/767/389 
f 714/764/390 708/765/390 711/766/391 715/767/391 
s 1
f 716/768/392 717/769/392 718/770/392 719/771/392 
s 2
f 720/772/393 721/773/394 718/774/393 717/775/395 
f 722/772/396 723/773/397 716/774/396 719/775/398 
s 4
f 721/776/399 722/777/400 719/778/401 718/779/402 
s 1
f 721/780/403 720/781/403 723/782/403 722/783/403 
s 4
f 711/764/404 710/765/404 712/766/404 715/767/404 
s 1
f 724/760/387 725/761/387 726/762/387 727/763/387 
s 2
f 728/764/388 726/765/388 725/766/389 729/767/389 
f 730/764/390 724/765/390 727/766/391 731/767/391 
s 1
f 732/768/392 733/769/392 734/770/392 735/771/392 
s 2
f 736/772/393 737/773/394 734/774/393 733/775/395 
f 738/772/396 739/773/397 732/774/396 735/775/398 
s 4
f 737/776/399 738/777/400 735/778/401 734/779/402 
s 1
f 737/780/403 736/781/403 739/782/403 738/783/403 
s 4
f 727/764/404 726/765/404 728/766/404 731/767/404 
s 1
f 740/760/387 741/761/387 742/762/387 743/763/387 
s 2
f 744/764/388 742/765/388 741/766/389 745/767/389 
f 746/764/390 740/765/390 743/766/391 747/767/391 
s 1
f 748/768/392 749/769/392 750/770/392 751/771/392 
s 2
f 752/772/393 753/773/394 750/774/393 749/775/395 
f 754/772/396 755/773/397 748/774/396 751/775/398 
s 4
f 753/776/399 754/777/400 751/778/401 750/779/402 
s 1
f 753/780/403 752/781/403 755/782/403 754/783/403 
s 4
f 743/764/404 742/765/404 744/766/404 747/767/404 
s 1
f 756/760/387 757/761/387 758/762/387 759/763/387 
s 2
f 760/764/388 758/765/388 757/766/389 761/767/389 
f 762/764/390 756/765/390 759/766/391 763/767/391 
s 1
f 764/768/392 765/769/392 766/770/392 767/771/392 
s 2
f 768/772/393 769/773/394 766/774/393 765/775/395 
f 770/772/396 771/773/397 764/774/396 767/775/398 
s 4
f 769/776/399 770/777/400 767/778/401 766/779/402 
s 1
f 769/780/403 768/781/403 771/782/403 770/783/403 
s 4
f 759/764/404 758/765/404 760/766/404 763/767/404 
s 1
f 772/760/387 773/761/387 774/762/387 775/763/387 
s 2
f 776/764/388 774/765/388 773/766/389 777/767/389 
f 778/764/390 772/765/390 775/766/391 779/767/391 
s 1
f 780/768/392 781/769/392 782/770/392 783/771/392 
s 2
f 784/772/393 785/773/394 782/774/393 781/775/395 
f 786/772/396 787/773/397 780/774/396 783/775/398 
s 4
f 785/776/399 786/777/400 783/778/401 782/779/402 
s 1
f 785/780/403 784/781/403 787/782/403 786/783/403 
s 4
f 775/764/404 774/765/404 776/766/404 779/767/404 
s 1
f 788/760/387 789/761/387 790/762/387 791/763/387 
s 2
f 792/764/388 790/765/388 789/766/389 793/767/389 
f 794/764/390 788/765/390 791/766/391 795/767/391 
s 1
f 796/768/392 797/769/392 798/770/392 799/771/392 
s 2
f 800/772/393 801/773/394 798/774/393 797/775/395 
f 802/772/396 803/773/397 796/774/396 799/775/398 
s 4
f 801/776/399 802/777/400 799/778/401 798/779/402 
s 1
f 801/780/403 800/781/403 803/782/403 802/783/403 
s 4
f 791/764/404 790/765/404 792/766/404 795/767/404 
s 1
f 804/760/387 805/761/387 806/762/387 807/763/387 
s 2
f 808/764/388 806/765/388 805/766/389 809/767/389 
f 810/764/390 804/765/390 807/766/391 811/767/391 
s 1
f 812/768/392 813/769/392 814/770/392 815/771/392 
s 2
f 816/772/393 817/773/394 814/774/393 813/775/395 
f 818/772/396 819/773/397 812/774/396 815/775/398 
s 4
f 817/776/399 818/777/400 815/778/401 814/779/402 
s 1
f 817/780/403 816/781/403 819/782/403 818/783/403 
s 4
f 807/764/404 806/765/404 808/766/404 811/767/404 
usemtl Pikk_64_1_Tex5
s 1
f 820/784/382 675/785/382 821/786/382 822/787/382 
f 674/788/382 823/789/382 821/790/382 675/791/382 
s 4
f 165/258/129 146/260/131 145/792/405 673/793/406 
f 145/792/405 169/794/406 673/793/406 
s 2
f 822/795/407 821/796/407 672/797/407 673/798/407 
s 16
f 820/799/408 822/800/408 673/801/408 169/802/408 
usemtl Pikk_64_1_Tex9
s 128
f 169/803/409 173/804/410 675/805/411 820/806/412 
usemtl Pikk_64_1_Tex5
s 2
f 823/799/408 674/800/408 166/801/408 165/802/408 
s 8
f 821/798/413 823/795/413 165/796/413 672/797/413 
usemtl Pikk_64_1_Tex13
s 4
f 824/807/70 825/808/70 826/809/70 827/810/70 
f 828/807/70 829/808/70 830/809/70 831/810/70 
# 528 polygons - 65 triangles

