# 3ds Max Wavefront OBJ Exporter v0.97b - (c)2007 guruware
# File Created: 28.10.2011 08:10:20

mtllib Munga_5a-origo.mtl

#
# object Munga_5a
#

v  542510.248138 6589179.29675 5.428611
v  542513.718826 6589178.84047 5.306888
v  542510.246994 6589179.29702 6.261840
v  542504.383224 6589179.61089 9.461912
v  542504.380157 6589179.61113 9.355355
v  542509.245468 6589179.02791 10.586649
v  542509.231735 6589179.02972 10.706686
v  542514.337097 6589178.41402 9.194001
v  542514.328354 6589178.41487 9.047159
v  542515.448746 6589192.52151 9.291681
v  542515.442627 6589192.52328 9.159777
v  542510.449142 6589193.26503 10.678130
v  542510.436447 6589193.26476 10.782562
v  542505.603149 6589194.00299 9.522581
v  542505.594254 6589194.00498 9.409762
v  542505.042496 6589187.46363 9.385036
v  542505.471603 6589187.25678 9.498209
v  542504.867081 6589180.00524 9.474093
v  542509.276871 6589179.42568 10.592639
v  542513.71347 6589178.84228 9.246570
v  542505.048737 6589187.4623 9.495009
v  542509.887894 6589186.78297 10.748013
v  542514.702759 6589192.04474 9.361767
v  542514.934448 6589186.08897 9.108417
v  542514.262466 6589186.16894 9.310498
v  542508.294678 6589179.71422 6.261908
v  542509.269836 6589179.58433 6.261893
v  542509.279816 6589179.5651 8.856858
v  542508.29863 6589179.69579 8.856853
v  542514.70192 6589192.04354 5.292440
v  542510.330185 6589192.74237 5.445787
v  542510.378525 6589192.73853 10.678632
v  542505.990555 6589193.43607 5.598007
v  542505.47966 6589187.33379 5.606804
v  542505.986862 6589193.43755 9.518764
v  542510.258606 6589179.45261 6.261903
v  542510.249985 6589179.43588 8.856861
v  542514.20845 6589185.44329 8.781250
v  542510.239746 6589179.29878 8.856913
v  542509.270035 6589179.42626 8.856911
v  542508.287338 6589179.55543 8.856909
v  542511.215256 6589179.14026 8.737806
v  542511.215393 6589179.14007 8.179237
v  542512.162079 6589179.01562 8.179230
v  542512.162552 6589179.01573 8.737805
v  542506.468887 6589179.76402 8.179448
v  542507.423782 6589179.63848 8.179443
v  542507.423843 6589179.63866 8.738523
v  542506.468704 6589179.76422 8.738527
v  542508.281937 6589179.55534 6.261836
v  542507.42775 6589179.6684 8.738513
v  542507.427689 6589179.66823 8.179434
v  542506.472794 6589179.79376 8.179439
v  542504.866028 6589180.00432 5.617370
v  542506.47261 6589179.79397 8.738518
v  542512.165985 6589179.04536 8.179220
v  542511.219299 6589179.16982 8.179228
v  542512.166458 6589179.04548 8.737796
v  542511.219162 6589179.17001 8.737797
v  542508.281189 6589179.55533 5.497595
v  542509.238663 6589179.591 5.464044
v  542510.259979 6589179.4552 5.428224
v  542508.294159 6589179.71658 5.497169
v  542514.941757 6589186.08755 9.247132
v  542514.092392 6589186.77565 6.069334
v  542514.091278 6589186.77662 8.652153
v  542514.002609 6589185.59299 8.647636
v  542514.004242 6589185.59161 6.069334
v  542514.31842 6589186.89302 5.298077
v  542514.318268 6589186.89315 6.069456
v  542514.317062 6589186.89418 8.786786
v  542514.210373 6589185.442 5.299664
v  542514.308273 6589186.75952 6.069456
v  542514.220123 6589185.57549 6.069456
v  542514.277176 6589186.89716 8.786763
v  542514.168549 6589185.44627 8.781228
v  542514.178604 6589185.57984 8.647737
v  542514.267273 6589186.76347 8.652252
v  542514.170273 6589185.44513 6.069433
v  542514.180237 6589185.57847 6.069433
v  542514.278381 6589186.89613 6.069433
v  542514.268387 6589186.76251 6.069433
v  542514.210159 6589185.44215 6.069456
# 83 vertices

vn -0.130341 -0.991469 0.000139
vn -0.130310 -0.991473 0.000259
vn -0.130325 -0.991471 0.000230
vn -0.119329 -0.992854 0.001232
vn -0.119328 -0.992854 0.001231
vn -0.119347 -0.992852 0.001302
vn -0.119329 -0.992854 0.001378
vn -0.119329 -0.992854 0.001379
vn 0.148878 0.988834 0.006572
vn 0.148838 0.988841 0.006422
vn 0.149550 0.988541 0.020527
vn 0.148926 0.988633 0.020632
vn 0.149182 0.988792 0.005845
vn 0.149219 0.988788 0.005686
vn 0.247142 -0.017372 -0.968824
vn 0.247141 -0.017381 -0.968824
vn 0.247176 -0.013417 -0.968878
vn 0.247289 -0.013630 -0.968846
vn 0.245208 -0.005073 -0.969457
vn 0.245273 -0.004765 -0.969442
vn -0.285681 0.036915 -0.957613
vn -0.285679 0.036974 -0.957612
vn -0.287127 0.033431 -0.957309
vn -0.288081 0.032084 -0.957068
vn -0.249264 0.016584 0.968294
vn -0.249775 0.017091 0.968153
vn -0.248738 0.016667 0.968428
vn -0.248183 0.016209 0.968578
vn -0.283605 0.033815 -0.958345
vn -0.283081 0.033079 -0.958525
vn -0.284616 0.029717 -0.958181
vn -0.284618 0.029688 -0.958181
vn -0.131992 -0.991238 -0.004937
vn -0.132021 -0.991234 -0.005005
vn -0.132032 -0.991222 -0.006834
vn -0.132028 -0.991222 -0.006837
vn 0.158034 0.987433 -0.000549
vn 0.157837 0.987465 -0.000323
vn 0.157812 0.987469 -0.000519
vn 0.157786 0.987473 -0.000733
vn -0.996532 0.083204 -0.000771
vn -0.996514 0.083429 -0.000413
vn -0.996523 0.083311 -0.000410
vn -0.996542 0.083080 -0.000970
vn -0.132047 -0.991230 -0.005066
vn -0.132031 -0.991222 -0.006830
vn 0.157839 0.987465 -0.000226
vn 0.157587 0.987505 -0.000503
vn 0.997207 -0.074680 0.001354
vn 0.997212 -0.074613 0.000734
vn 0.997207 -0.074685 0.000564
vn -0.130324 -0.991471 0.000232
vn -0.130335 -0.991470 0.000191
vn -0.130333 -0.991470 0.000182
vn -0.130342 -0.991469 0.000236
vn -0.130337 -0.991470 0.000309
vn -0.130338 -0.991470 0.000307
vn -0.130335 -0.991470 0.000311
vn -0.130334 -0.991470 0.000314
vn -0.130341 -0.991469 0.000324
vn -0.130342 -0.991469 0.000325
vn -0.130342 -0.991469 0.000324
vn -0.130341 -0.991469 0.000323
vn -0.997224 0.074428 -0.002121
vn -0.997224 0.074433 -0.002122
vn -0.997219 0.074474 -0.002833
vn -0.997219 0.074475 -0.002833
vn -0.000047 -0.000372 -1.000000
vn -0.000047 -0.000374 -1.000000
vn -0.000047 -0.000375 -1.000000
vn -0.000047 -0.000395 -1.000000
vn -0.000047 -0.000397 -1.000000
vn 0.996778 -0.080180 -0.002072
vn 0.996777 -0.080189 -0.002072
vn 0.996797 -0.079955 -0.001507
vn 0.996799 -0.079935 -0.001502
vn -0.130342 -0.991469 0.000304
vn -0.130339 -0.991469 0.000310
vn -0.130350 -0.991468 0.000223
vn -0.130352 -0.991468 0.000289
vn -0.130363 -0.991466 0.000257
vn -0.130332 -0.991470 0.000299
vn -0.130351 -0.991468 0.000263
vn -0.130315 -0.991473 0.000293
vn -0.130330 -0.991471 0.000312
vn -0.130314 -0.991473 0.000270
vn -0.130329 -0.991471 0.000312
vn -0.130330 -0.991471 0.000255
vn -0.285623 0.037397 -0.957612
vn 0.250136 -0.032940 -0.967650
vn 0.250068 -0.034463 -0.967615
vn 0.247776 -0.015202 -0.968698
vn 0.248023 -0.014464 -0.968646
vn -0.130343 -0.991469 0.000137
vn -0.131945 -0.991252 -0.003102
vn -0.131993 -0.991245 -0.003232
vn -0.131892 -0.991260 -0.002966
vn 0.996780 -0.080179 -0.000974
vn 0.996783 -0.080147 -0.000968
vn -0.997219 0.074508 -0.001396
vn -0.997219 0.074519 -0.001394
vn 0.995521 -0.078138 -0.053223
vn 0.995517 -0.078138 -0.053301
vn 0.995818 -0.078143 -0.047330
vn 0.995822 -0.078142 -0.047247
vn -0.994813 0.083885 0.057539
vn -0.994827 0.083891 0.057293
vn -0.993328 0.083489 0.079559
vn -0.993309 0.083482 0.079797
vn 0.280993 -0.028846 0.959276
vn 0.281042 -0.028898 0.959260
vn 0.280947 -0.028858 0.959289
vn 0.280894 -0.028811 0.959306
vn 0.000042 0.000315 1.000000
vn -0.991488 0.130198 -0.000288
vn -0.000049 -0.000314 -1.000000
vn 0.991488 -0.130198 -0.000813
vn -0.991488 0.130198 -0.000373
vn -0.000046 -0.000315 -1.000000
vn 0.991488 -0.130198 -0.000067
vn 0.000046 0.000315 1.000000
vn -0.247425 0.016181 0.968772
vn -0.246869 0.015728 0.968921
vn -0.996534 0.083186 0.000044
vn -0.996543 0.083076 0.000252
vn 0.997231 -0.074370 0.000613
vn 0.997206 -0.074703 0.000459
vn 0.997215 -0.074577 0.000517
vn 0.997240 -0.074244 0.000671
vn 0.995159 -0.078120 -0.059630
vn 0.995155 -0.078120 -0.059704
vn -0.996015 0.084299 0.029110
vn -0.996022 0.084305 0.028856
vn 0.280830 -0.028813 0.959325
vn 0.280777 -0.028767 0.959342
vn 0.997238 -0.074269 0.000229
vn 0.997222 -0.074491 0.000038
vn 0.997233 -0.074335 0.000302
vn 0.997213 -0.074601 0.000384
vn 0.997238 -0.074266 0.000271
vn 0.997230 -0.074379 0.000231
vn 0.997230 -0.074375 0.000262
vn 0.997219 -0.074529 0.000611
vn 0.997220 -0.074509 0.000516
vn 0.997221 -0.074504 0.000526
vn 0.997218 -0.074534 0.000640
vn 0.997218 -0.074537 0.000662
vn 0.997218 -0.074531 0.000662
vn 0.997218 -0.074534 0.000460
vn 0.997218 -0.074540 0.000459
vn 0.997231 -0.074363 0.000423
vn 0.074476 0.997223 -0.000373
vn -0.000565 0.000042 1.000000
vn -0.000564 0.000042 1.000000
vn -0.074482 -0.997222 0.000343
vn 0.000847 0.003752 -0.999993
vn -0.074474 -0.997223 0.000343
vn 0.074474 0.997223 -0.000484
vn -0.000563 0.000042 1.000000
vn 0.997216 -0.074557 0.001138
vn 0.997209 -0.074659 -0.000141
# 161 vertex normals

vt -0.886127 0.018569 2.183405
vt -0.947708 -1.730089 2.258276
vt -0.469512 0.018974 2.183258
vt 0.095350 0.501859 0.000000
vt 0.091809 0.502810 0.000000
vt 0.090647 0.262809 0.000000
vt 0.101873 0.263693 0.000000
vt 0.104439 0.010531 0.000000
vt 0.086637 0.008081 0.000000
vt 0.463942 0.038523 0.000000
vt 0.469446 0.037128 0.000000
vt 0.467142 0.288505 0.000000
vt 0.461778 0.287879 0.000000
vt 0.459738 0.526233 0.000000
vt 0.465673 0.527934 0.000000
vt -3.233914 0.904009 0.207392
vt -3.009310 0.824752 0.276691
vt -2.911874 -2.812291 0.261925
vt -3.132241 -3.034873 0.189217
vt -0.682277 -3.057776 0.943177
vt -0.688495 -2.858367 0.946844
vt 1.548418 -2.904881 0.122605
vt 1.877454 -3.083560 0.000499
vt -3.239014 2.032822 2.425903
vt -3.406570 -3.013504 2.320679
vt 0.044004 -2.912505 0.621163
vt 0.160214 2.132481 0.355329
vt 1.315692 3.710761 0.193143
vt 1.657136 3.989183 0.069459
vt 1.757615 0.763574 0.038009
vt 1.419267 0.766448 0.161750
vt 0.000496 0.000505 0.000977
vt 0.496536 0.000500 0.077148
vt 0.502785 0.999500 0.923340
vt 0.003685 0.999498 0.846191
vt -0.079757 -1.672073 -0.947205
vt 1.954906 -1.670861 -0.946448
vt 1.877325 0.537215 -1.102558
vt -0.739088 0.511879 -1.102890
vt -1.256935 -0.800310 2.728889
vt 0.253125 -0.794026 2.729411
vt 0.271740 1.149739 2.729720
vt -1.258217 1.160066 2.730164
vt 0.999496 0.000503 0.156250
vt 0.996284 0.999501 0.999512
vt 1.800313 2.729079 -1.257523
vt -0.160066 2.730164 -1.258217
vt -1.257538 1.022134 -1.728142
vt 0.343483 0.789477 -1.700195
vt 0.520926 1.054068 -1.697137
vt 0.828025 0.022125 2.182701
vt 1.696088 0.506927 2.161781
vt 0.828225 0.510712 2.161789
vt 0.828428 1.005829 2.140602
vt 0.000488 0.999499 0.999512
vt 0.000656 0.000514 0.999512
vt 0.998993 0.000500 0.999512
vt 0.999481 0.999497 0.999512
vt 0.000717 0.000509 0.999512
vt 0.999481 0.000501 0.999512
vt 0.999512 0.999491 0.999512
vt 0.000504 0.999499 0.999512
vt 2.105255 -0.469481 0.020020
vt 2.183258 -0.469512 0.018974
vt 2.182701 0.828025 0.022125
vt 2.113976 0.828000 0.023048
vt 2.113976 0.023048 0.828000
vt 2.182701 0.022125 0.828025
vt 2.161789 0.510712 0.828225
vt 2.092209 0.511932 0.828200
vt 2.140602 1.005829 0.828428
vt 2.070198 1.006371 0.828401
vt -1.070198 0.828401 1.006371
vt -1.140602 0.828428 1.005829
vt -1.140884 -0.469107 1.009056
vt -1.061188 -0.469071 1.009682
vt 0.769408 1.438950 2.122078
vt 0.489869 1.439087 2.122169
vt -0.469107 1.009056 2.140884
vt 0.490069 1.920212 2.101570
vt -0.790632 2.730263 2.067321
vt 0.769608 1.920197 2.101479
vt 1.137729 2.728981 2.066750
vt 0.488780 -0.948250 2.224335
vt 0.488980 -0.471275 2.203918
vt 1.022134 -1.728142 2.257538
vt 0.768068 -0.948601 2.224266
vt 0.768265 -0.471313 2.203835
vt -0.865226 4.083838 0.999193
vt -0.871434 3.818305 0.999500
vt -3.092358 3.924746 0.289277
vt -3.318610 4.185205 0.222533
vt -0.851229 1.009576 2.140994
vt -0.469280 0.518280 2.083069
vt -0.868214 0.533933 2.079648
vt -0.886309 0.019569 2.102429
vt -0.469481 0.020020 2.105255
vt -0.469071 1.009682 2.061188
vt -0.851432 1.010140 2.058574
vt -1.140927 -0.851228 1.010049
vt -1.060055 -0.851440 1.010675
vt 2.103896 -0.886318 0.019005
vt 2.183335 -0.886126 0.017944
vt 0.300110 0.027736 0.000000
vt 0.299416 0.022244 0.000000
vt 0.464243 0.033004 0.000000
vt 0.293058 0.517376 0.000000
vt 0.294719 0.512801 0.000000
vt 0.459348 0.532417 0.000000
vt -3.087433 6.566681 -87.622925
vt 0.249882 6.700054 -90.507385
vt 0.999466 0.999497 0.000977
vt 0.000473 0.999499 0.000977
vt 0.000656 0.000514 0.000977
vt 0.999008 0.000500 0.000977
vt 0.000488 0.999500 0.000977
vt 0.000702 0.000509 0.000977
vt 0.999466 0.000500 0.000977
vt 0.999512 0.999491 0.000977
vt 4.205338 -2.824768 -1.379883
vt 4.215134 2.214584 -1.737793
vt 2.067285 -0.790632 2.730227
vt 2.066750 1.137729 2.728981
vt 1.007643 0.000510 -166.910156
vt 1.008017 0.999510 -165.915039
vt 0.508205 0.997764 -166.911133
vt 0.507680 0.000510 -165.912109
vt 0.102549 0.005073 0.000000
vt 0.092229 0.504214 0.000000
vt 4.229141 6.818085 -93.131958
vt 0.695001 -0.831151 -1.620555
vt 1.944852 -0.894342 -1.636312
vt 0.697439 -0.661672 -1.751412
vt 0.695670 0.792160 -1.694094
vt 0.687214 -1.577716 -0.353502
vt 0.346905 -2.023300 -0.219360
vt 0.704728 -0.702639 -2.136358
vt 0.354470 -0.417544 -1.944090
vt 0.343971 -0.560887 -1.697479
vt 0.341044 -1.064601 -1.623221
vt -1.249588 -0.950293 -1.731966
vt 1.947205 1.079757 -1.672073
# 142 texture coords

g Munga_5a
usemtl Walls
f -83/-142/-161 -82/-141/-160 -81/-140/-159 
usemtl Roof
f -80/-139/-158 -79/-138/-157 -78/-137/-156 -77/-136/-156 
f -76/-135/-155 -77/-136/-156 -78/-137/-156 -75/-134/-154 
f -74/-133/-153 -73/-132/-152 -72/-131/-151 -71/-130/-150 
f -70/-129/-149 -71/-130/-150 -72/-131/-151 -69/-128/-148 
usemtl Ceiling
f -68/-127/-147 -67/-126/-146 -66/-125/-145 -79/-124/-144 
f -78/-123/-143 -79/-124/-144 -66/-125/-145 -65/-122/-142 
f -78/-123/-141 -65/-122/-140 -64/-121/-139 -75/-120/-138 
usemtl Roof
f -71/-119/-137 -70/-118/-136 -63/-117/-135 -62/-116/-134 
usemtl Ceiling
f -61/-115/-133 -73/-114/-132 -60/-113/-131 -59/-112/-130 
usemtl Doors_Front
f -58/-111/-129 -57/-110/-128 -56/-109/-127 -55/-108/-126 
usemtl Walls
f -61/-107/-125 -54/-106/-124 -53/-105/-123 -52/-104/-122 
f -51/-103/-121 -50/-102/-120 -67/-101/-119 -49/-100/-118 
usemtl Doors_Front
f -48/-99/-117 -47/-98/-116 -56/-109/-127 -57/-110/-128 
usemtl Walls
f -53/-105/-123 -51/-97/-115 -49/-96/-114 -52/-104/-122 
f -64/-95/-113 -46/-94/-112 -59/-93/-111 
f -45/-92/-110 -65/-91/-109 -44/-90/-108 
f -44/-90/-108 -65/-91/-109 -43/-89/-107 
usemtl Grid
f -42/-88/-106 -41/-87/-105 -40/-86/-104 -39/-85/-103 
f -38/-84/-102 -37/-83/-101 -36/-82/-100 -35/-81/-99 
usemtl Walls
f -48/-80/-98 -81/-79/-97 -45/-78/-96 -47/-77/-95 
f -47/-76/-94 -45/-75/-94 -44/-74/-93 -56/-73/-92 
f -56/-73/-92 -44/-74/-93 -43/-72/-91 -55/-71/-90 
f -55/-70/-89 -43/-69/-88 -34/-68/-87 -58/-67/-86 
f -43/-89/-107 -33/-66/-85 -32/-65/-84 -34/-64/-83 
f -34/-64/-83 -32/-65/-84 -31/-63/-82 -30/-62/-81 
f -31/-63/-82 -29/-61/-80 -66/-60/-79 -30/-62/-81 
f -29/-61/-80 -33/-66/-85 -43/-89/-107 -66/-60/-79 
f -81/-140/-159 -82/-141/-160 -28/-59/-78 -27/-58/-77 
f -64/-57/-76 -26/-56/-75 -28/-59/-78 -82/-141/-160 
f -45/-92/-110 -81/-140/-159 -27/-58/-77 -25/-55/-74 
f -26/-56/-75 -64/-57/-76 -45/-92/-110 -25/-55/-74 
usemtl Ceiling
f -72/-54/-73 -73/-114/-132 -61/-115/-133 -52/-53/-73 
f -72/-54/-72 -52/-53/-71 -49/-52/-70 -69/-51/-69 
usemtl Walls
f -34/-64/-83 -30/-62/-81 -24/-50/-68 
f -57/-49/-128 -23/-48/-67 -22/-47/-66 -48/-46/-117 
f -58/-45/-129 -21/-44/-65 -23/-48/-67 -57/-49/-128 
f -34/-68/-87 -24/-43/-64 -21/-42/-63 -58/-67/-86 
f -81/-79/-97 -48/-80/-98 -22/-41/-62 -83/-40/-61 
f -45/-92/-110 -64/-57/-76 -65/-91/-109 
f -65/-91/-109 -66/-60/-79 -43/-89/-107 
usemtl Roof
f -20/-39/-60 -60/-38/-59 -73/-37/-58 -74/-133/-57 
f -68/-36/-56 -63/-35/-55 -70/-129/-54 -69/-34/-53 
f -74/-33/-52 -71/-119/-51 -62/-116/-50 -20/-32/-49 
usemtl Grid
f -39/-85/-48 -26/-31/-48 -25/-30/-48 -42/-88/-48 
f -42/-88/-47 -25/-30/-47 -27/-29/-47 -41/-87/-47 
f -41/-87/-46 -27/-29/-46 -28/-28/-46 -40/-86/-46 
f -40/-86/-45 -28/-28/-45 -26/-31/-45 -39/-85/-45 
f -35/-81/-44 -29/-27/-44 -31/-26/-44 -38/-84/-44 
f -38/-84/-43 -31/-26/-43 -32/-25/-43 -37/-83/-43 
f -37/-83/-42 -32/-25/-42 -33/-24/-42 -36/-82/-42 
f -36/-82/-41 -33/-24/-41 -29/-27/-41 -35/-81/-41 
usemtl Roof
f -80/-23/-40 -77/-22/-39 -62/-116/-134 -63/-117/-135 
usemtl Ceiling
f -60/-113/-131 -75/-120/-138 -64/-121/-139 -59/-112/-130 
usemtl Walls
f -30/-21/-38 -66/-20/-37 -67/-101/-119 -50/-102/-120 
usemtl Doors_Front
f -19/-19/-36 -18/-18/-35 -17/-17/-34 -16/-16/-33 
usemtl Roof
f -76/-135/-32 -75/-15/-31 -60/-38/-59 -20/-39/-60 
f -79/-14/-30 -80/-139/-29 -63/-35/-55 -68/-36/-56 
f -77/-22/-28 -76/-13/-27 -20/-32/-49 -62/-116/-50 
usemtl Ceiling
f -68/-127/-147 -69/-51/-69 -49/-52/-70 -67/-126/-146 
usemtl Walls
f -15/-12/-26 -54/-11/-25 -14/-10/-24 
f -13/-9/-23 -59/-93/-111 -46/-94/-112 
f -12/-8/-22 -15/-7/-26 -11/-6/-21 -10/-5/-20 
f -15/-12/-26 -14/-10/-24 -11/-6/-21 
f -9/-9/-19 -8/-94/-18 -7/-94/-17 -6/-9/-16 
f -8/-94/-18 -5/-4/-15 -4/-5/-14 -7/-94/-17 
f -3/-10/-13 -9/-9/-19 -6/-9/-16 -2/-6/-12 
f -1/-4/-11 -12/-3/-22 -10/-5/-20 
f -46/-94/-10 -1/-4/-10 -5/-4/-10 -8/-94/-10 
f -1/-4/-9 -10/-5/-9 -4/-5/-8 -5/-4/-9 
f -10/-5/-9 -11/-6/-9 -2/-6/-8 -4/-5/-8 
f -11/-6/-9 -14/-10/-9 -3/-10/-9 -2/-6/-8 
f -14/-10/-7 -13/-9/-7 -9/-9/-7 -3/-10/-7 
f -13/-9/-6 -46/-94/-6 -8/-94/-6 -9/-9/-6 
f -2/-6/-5 -6/-9/-5 -18/-9/-5 -19/-6/-5 
f -6/-9/-6 -7/-94/-6 -17/-94/-6 -18/-9/-6 
f -7/-94/-4 -4/-5/-4 -16/-5/-4 -17/-94/-4 
f -4/-5/-8 -2/-6/-8 -19/-6/-3 -16/-5/-3 
f -82/-2/-2 -12/-3/-22 -1/-4/-11 
f -54/-11/-25 -61/-1/-1 -13/-9/-23 -14/-10/-24 
f -82/-2/-2 -1/-4/-11 -46/-94/-112 -64/-95/-113 
f -61/-1/-1 -59/-93/-111 -13/-9/-23 
# 69 polygons - 13 triangles

