# 3ds Max Wavefront OBJ Exporter v0.97b - (c)2007 guruware
# File Created: 12.03.2012 17:19:08

mtllib Pikk_30a.mtl

#
# object Pikk_30a
#

v  143.6558 218.6407 7.3043
v  143.6558 218.6407 17.5447
v  139.2927 202.8560 17.5447
v  139.2927 202.8560 7.3043
v  138.1456 219.5853 7.3043
v  133.9310 204.3380 7.3043
v  133.9310 204.3381 15.9423
v  138.1456 219.5854 15.9423
v  139.2927 202.8560 17.7529
v  143.6558 218.6407 17.7529
v  137.7591 219.6573 16.0376
v  133.5534 204.4424 16.0376
v  133.6068 204.4276 15.8454
v  137.8125 219.6425 15.8454
# 14 vertices

vn 0.9639 -0.2664 0.0000
vn 0.9639 -0.2664 -0.0000
vn -0.9639 0.2664 -0.0000
vn -0.2664 -0.9639 0.0000
vn -0.2664 -0.9639 -0.0000
vn -0.2668 0.0738 0.9609
vn 0.2668 -0.0737 -0.9609
vn -0.9262 0.2560 -0.2768
vn -0.2664 -0.9639 -0.0001
# 9 vertex normals

vt 4.5942 -2.0601 -0.8907
vt 4.5942 3.0601 -0.8907
vt -3.5942 3.0601 -0.8907
vt -3.5941 -2.0601 -0.8907
vt -3.3154 -2.0601 1.8907
vt 4.5942 -2.0601 1.8907
vt 4.5942 2.2589 1.8907
vt -3.3154 2.2589 1.8907
vt -2.0601 -0.8907 4.5941
vt 3.0601 -0.8907 4.5942
vt 2.2589 1.8907 4.5942
vt -2.0601 1.8907 4.5942
vt 8.6842 1.9942 0.6600
vt -7.6924 1.9830 0.6600
vt -7.0931 -0.9938 0.3722
vt 8.6924 -0.9830 0.3722
vt -7.1272 -0.7980 0.3562
vt 8.6918 -0.7872 0.3562
vt 8.6923 -0.9553 0.3400
vt -7.0931 -0.9662 0.3400
vt 8.6842 1.9942 0.6251
vt -7.6924 1.9830 0.6251
# 22 texture coords

g Pikk_30a
usemtl kr_roh
s 2
f 1/1/1 2/2/1 3/3/1 4/4/2 
s 4
f 5/5/3 6/6/3 7/7/3 8/8/3 
s 16
f 4/9/4 3/10/5 7/11/5 6/12/4 
usemtl plk_kat
s 32
f 9/13/6 10/14/6 11/15/6 12/16/6 
s off
f 8/17/7 7/18/7 13/19/7 14/20/7 
f 3/21/2 2/22/2 10/14/2 9/13/2 
f 14/20/8 13/19/8 12/16/8 11/15/8 
f 7/18/9 3/21/9 9/13/9 13/19/9 
f 13/19/4 9/13/4 12/16/4 
# 8 polygons - 1 triangles

#
# object xxx
#

v  143.6558 218.6407 17.5447
v  137.8125 219.6425 15.8454
v  137.7591 219.6573 16.0376
v  143.6558 218.6407 17.7529
v  138.1456 219.5854 15.9423
v  143.6558 218.6407 7.3043
v  138.1456 219.5853 7.3043
# 7 vertices

vn 0.1732 0.9848 -0.0132
vn 0.1690 0.9856 -0.0000
# 2 vertex normals

vt -7.6924 1.9830 0.6251
vt -7.0931 -0.9662 0.3400
vt -7.0931 -0.9938 0.3722
vt -7.6924 1.9830 0.6600
vt -7.1272 -0.7980 0.3562
vt 8.6918 -0.7872 0.3562
vt 8.6842 1.9942 0.6600
# 7 texture coords

g xxx
usemtl xxx
s off
f 15/23/10 16/24/10 17/25/10 18/26/10 
s 1
f 19/27/11 15/28/11 20/29/11 21/25/11 
# 2 polygons

