# 3ds Max Wavefront OBJ Exporter v0.97b - (c)2007 guruware
# File Created: 23.12.2010 15:09:48

mtllib Suur-Karia_12-origo.mtl

#
# object Suur_Karia_12
#

v  542354.4764 6588862.1283 26.2710
v  542352.6013 6588871.8646 26.2710
v  542353.1097 6588871.8646 26.7298
v  542356.4769 6588851.741 26.2710
v  542356.9853 6588851.6752 26.7298
v  542345.4987 6588872.2749 31.0713
v  542349.2092 6588852.6284 31.0713
v  542340.492 6588865.1771 26.4810
v  542340.4084 6588872.5816 26.4810
v  542340.4084 6588872.5816 13.9405
v  542340.6209 6588853.7562 26.4810
v  542340.6209 6588853.7562 13.9405
v  542344.5335 6588865.4381 29.0015
v  542343.0458 6588872.4249 28.8594
v  542340.492 6588865.1771 28.6026
v  542340.4084 6588872.5816 28.6026
v  542352.602 6588871.8643 18.6520
v  542352.6023 6588871.8642 13.9209
v  542356.4779 6588851.7405 13.9209
v  542356.4775 6588851.7407 18.5871
v  542356.4772 6588851.7408 22.1182
v  542342.8588 6588859.6046 27.9335
v  542342.971 6588859.0223 27.9335
v  542342.971 6588859.0223 28.2852
v  542342.8589 6588859.6047 28.2852
v  542344.5534 6588859.2485 28.6509
v  542342.9166 6588858.8794 28.4152
v  542342.9165 6588858.8794 27.5364
v  542344.5422 6588859.2463 28.7301
v  542344.3809 6588860.084 28.7301
v  542342.7442 6588859.715 28.4943
v  542342.9055 6588858.8773 28.4943
v  542344.3921 6588860.0862 28.6509
v  542342.7552 6588859.7171 27.5364
v  542342.7553 6588859.7171 28.4152
v  542342.5609 6588859.6797 28.3867
v  542342.7223 6588858.842 28.3867
v  542342.7111 6588858.8398 28.4659
v  542342.5498 6588859.6775 28.4659
v  542342.892 6588859.007 27.9335
v  542342.7799 6588859.5894 27.9335
v  542342.892 6588859.0071 28.2852
v  542342.7799 6588859.5894 28.2852
v  542354.5446 6588855.7214 27.7014
v  542354.4324 6588856.3038 27.7014
v  542354.4324 6588856.3038 28.1462
v  542354.5446 6588855.7214 28.1462
v  542352.85 6588856.0776 28.5120
v  542354.4868 6588856.4467 28.2762
v  542354.4869 6588856.4467 27.3974
v  542352.8612 6588856.0798 28.5912
v  542353.0225 6588855.2421 28.5912
v  542354.6593 6588855.6111 28.3554
v  542354.498 6588856.4488 28.3554
v  542353.0114 6588855.2399 28.5120
v  542354.6482 6588855.609 27.3974
v  542354.6481 6588855.609 28.2762
v  542354.8425 6588855.6464 28.2478
v  542354.6812 6588856.4841 28.2478
v  542354.6924 6588856.4863 28.3270
v  542354.8537 6588855.6486 28.3270
v  542354.5114 6588856.319 27.7014
v  542354.6236 6588855.7366 27.7014
v  542354.5114 6588856.319 28.1462
v  542354.6235 6588855.7366 28.1462
v  542352.4554 6588866.5695 27.7014
v  542352.3433 6588867.1519 27.7014
v  542352.3432 6588867.1519 28.1462
v  542352.4554 6588866.5695 28.1462
v  542350.7608 6588866.9257 28.5120
v  542352.3976 6588867.2947 28.2762
v  542352.3977 6588867.2947 27.3974
v  542350.772 6588866.9278 28.5912
v  542350.9333 6588866.0901 28.5912
v  542352.5701 6588866.4592 28.3554
v  542352.4088 6588867.2969 28.3554
v  542350.9222 6588866.088 28.5120
v  542352.559 6588866.457 27.3974
v  542352.5589 6588866.457 28.2762
v  542352.7533 6588866.4945 28.2478
v  542352.592 6588867.3322 28.2478
v  542352.6032 6588867.3343 28.3270
v  542352.7645 6588866.4966 28.3270
v  542352.4222 6588867.1671 27.7014
v  542352.5344 6588866.5847 27.7014
v  542352.4222 6588867.1671 28.1462
v  542352.5344 6588866.5847 28.1462
v  542352.9453 6588869.1281 15.7266
v  542352.6888 6588870.4603 15.7266
v  542352.6886 6588870.4603 17.8253
v  542352.9452 6588869.1281 17.8253
v  542353.001 6588869.2649 14.3593
v  542352.7967 6588870.3258 14.3593
v  542352.7967 6588870.3258 14.9085
v  542353.001 6588869.2649 14.9085
v  542354.2824 6588862.6113 14.3593
v  542354.0781 6588863.6722 14.3593
v  542354.0781 6588863.6721 14.9085
v  542354.2824 6588862.6113 14.9085
v  542354.0321 6588863.4848 15.7266
v  542353.7756 6588864.8169 15.7266
v  542353.7754 6588864.8169 17.8253
v  542354.032 6588863.4847 17.8253
v  542354.0321 6588863.4848 19.3443
v  542353.7756 6588864.8169 19.3443
v  542353.7754 6588864.8169 21.4431
v  542354.032 6588863.4847 21.4431
v  542353.4796 6588866.3539 19.3443
v  542353.223 6588867.6861 19.3443
v  542353.2229 6588867.686 21.4431
v  542353.4794 6588866.3539 21.4431
v  542353.6978 6588866.1719 21.6631
v  542353.698 6588866.1719 19.1243
v  542353.6563 6588866.3879 19.3443
v  542353.6562 6588866.3879 21.4431
v  542353.3582 6588867.9361 19.1243
v  542353.3998 6588867.7201 19.3443
v  542353.358 6588867.9361 21.6631
v  542353.3996 6588867.7201 21.4431
v  542352.9453 6588869.1281 19.3443
v  542352.6888 6588870.4603 19.3443
v  542352.6886 6588870.4603 21.4431
v  542352.9452 6588869.1281 21.4431
v  542352.9453 6588869.1281 22.7644
v  542352.6888 6588870.4603 22.7644
v  542352.6886 6588870.4603 24.8632
v  542352.9452 6588869.1281 24.8632
v  542353.5352 6588866.3646 22.7644
v  542353.2786 6588867.6968 22.7644
v  542353.2785 6588867.6967 24.8632
v  542353.5351 6588866.3646 24.8632
v  542353.7534 6588866.1826 25.0832
v  542353.7536 6588866.1826 22.7630
v  542353.712 6588866.3986 22.7644
v  542353.7118 6588866.3986 24.8632
v  542353.4138 6588867.9468 22.7630
v  542353.4136 6588867.9468 25.0832
v  542353.4552 6588867.7308 24.8632
v  542353.4554 6588867.7308 22.7644
v  542354.0321 6588863.4848 22.7644
v  542353.7756 6588864.8169 22.7644
v  542353.7754 6588864.8169 24.8632
v  542354.032 6588863.4847 24.8632
v  542354.8112 6588859.4394 15.7266
v  542354.5546 6588860.7716 15.7266
v  542354.5545 6588860.7716 17.8253
v  542354.8111 6588859.4394 17.8253
v  542355.0294 6588859.2574 18.0454
v  542355.0296 6588859.2574 15.5066
v  542354.988 6588859.4735 15.7266
v  542354.9878 6588859.4734 17.8254
v  542354.6898 6588861.0217 15.5066
v  542354.7314 6588860.8056 15.7266
v  542354.6896 6588861.0217 18.0454
v  542354.7312 6588860.8056 17.8254
v  542354.8112 6588859.4394 19.3443
v  542354.5546 6588860.7716 19.3443
v  542354.5545 6588860.7716 21.4431
v  542354.8111 6588859.4394 21.4431
v  542355.0294 6588859.2574 21.6631
v  542355.0296 6588859.2574 19.1243
v  542354.988 6588859.4735 19.3443
v  542354.9878 6588859.4734 21.4431
v  542354.6898 6588861.0217 19.1243
v  542354.7314 6588860.8056 19.3443
v  542354.6896 6588861.0217 21.6631
v  542354.7313 6588860.8056 21.4431
v  542354.8112 6588859.4394 22.7644
v  542354.5546 6588860.7716 22.7644
v  542354.5545 6588860.7716 24.8632
v  542354.8111 6588859.4394 24.8632
v  542355.0294 6588859.2574 25.0832
v  542355.0296 6588859.2574 22.5444
v  542354.988 6588859.4735 22.7644
v  542354.9878 6588859.4734 24.8632
v  542354.6898 6588861.0217 22.5444
v  542354.7314 6588860.8056 22.7644
v  542354.6896 6588861.0217 25.0832
v  542354.7313 6588860.8056 24.8632
v  542355.3702 6588856.537 22.7644
v  542355.1136 6588857.8691 22.7644
v  542355.1135 6588857.8691 24.8632
v  542355.37 6588856.5369 24.8632
v  542355.5884 6588856.3549 25.0832
v  542355.5886 6588856.355 22.5444
v  542355.5469 6588856.571 22.7644
v  542355.5468 6588856.571 24.8632
v  542355.2488 6588858.1192 22.5444
v  542355.2904 6588857.9032 22.7644
v  542355.2486 6588858.1192 25.0832
v  542355.2902 6588857.9032 24.8632
v  542355.9349 6588853.6048 22.7644
v  542355.6783 6588854.9369 22.7644
v  542355.6782 6588854.9369 24.8632
v  542355.9347 6588853.6047 24.8632
v  542356.1531 6588853.4227 25.0832
v  542356.1533 6588853.4228 22.5444
v  542356.1116 6588853.6388 22.7644
v  542356.1115 6588853.6388 24.8632
v  542355.8135 6588855.187 22.5444
v  542355.8551 6588854.971 22.7644
v  542355.8133 6588855.187 25.0832
v  542355.8549 6588854.9709 24.8632
v  542355.9349 6588853.6048 19.3443
v  542355.6783 6588854.9369 19.3443
v  542355.6782 6588854.9369 21.4431
v  542355.9347 6588853.6047 21.4431
v  542356.1531 6588853.4227 21.6631
v  542356.1533 6588853.4228 19.1243
v  542356.1116 6588853.6388 19.3443
v  542356.1115 6588853.6388 21.4431
v  542355.8135 6588855.187 19.1243
v  542355.8551 6588854.971 19.3443
v  542355.8133 6588855.187 21.6631
v  542355.8549 6588854.9709 21.4431
v  542355.3702 6588856.537 19.3443
v  542355.1136 6588857.8691 19.3443
v  542355.1135 6588857.8691 21.4431
v  542355.37 6588856.5369 21.4431
v  542355.5884 6588856.3549 21.6631
v  542355.5886 6588856.355 19.1243
v  542355.5469 6588856.571 19.3443
v  542355.5468 6588856.571 21.4431
v  542355.2488 6588858.1192 19.1243
v  542355.2904 6588857.9032 19.3443
v  542355.2486 6588858.1192 21.6631
v  542355.2902 6588857.9032 21.4431
v  542355.9349 6588853.6048 15.7266
v  542355.6783 6588854.9369 15.7266
v  542355.6782 6588854.9369 17.8253
v  542355.9347 6588853.6047 17.8253
v  542356.1531 6588853.4227 18.0454
v  542356.1533 6588853.4228 15.5066
v  542356.1116 6588853.6388 15.7266
v  542356.1115 6588853.6388 17.8254
v  542355.8135 6588855.187 15.5066
v  542355.8551 6588854.971 15.7266
v  542355.8133 6588855.187 18.0454
v  542355.8549 6588854.9709 17.8254
v  542355.9958 6588853.7149 14.3593
v  542355.7914 6588854.7757 14.3593
v  542355.7914 6588854.7757 14.9085
v  542355.9957 6588853.7149 14.9085
v  542355.3702 6588856.537 15.7266
v  542355.1136 6588857.8691 15.7266
v  542355.1135 6588857.8691 17.8253
v  542355.37 6588856.5369 17.8253
v  542355.5884 6588856.3549 18.0454
v  542355.5885 6588856.355 15.5066
v  542355.5469 6588856.571 15.7266
v  542355.5468 6588856.571 17.8254
v  542355.2488 6588858.1192 15.5066
v  542355.2904 6588857.9032 15.7266
v  542355.2486 6588858.1192 18.0454
v  542355.2902 6588857.9032 17.8254
v  542355.4328 6588856.6378 14.3593
v  542355.2285 6588857.6987 14.3593
v  542355.2285 6588857.6987 14.9085
v  542355.4328 6588856.6378 14.9085
v  542354.8699 6588859.5608 14.3593
v  542354.6656 6588860.6217 14.3593
v  542354.6656 6588860.6217 14.9085
v  542354.8699 6588859.5608 14.9085
v  542353.6978 6588866.1719 25.0832
v  542353.698 6588866.1719 22.7630
v  542353.3582 6588867.9361 22.7630
v  542353.358 6588867.9361 25.0832
v  542353.0005 6588866.1905 16.4436
v  542352.7242 6588867.6253 16.4436
v  542352.7242 6588867.6253 16.5733
v  542352.7343 6588867.5729 16.9071
v  542352.7305 6588867.5929 16.8229
v  542352.7431 6588867.5272 17.0088
v  542352.7697 6588867.3893 17.2483
v  542352.8216 6588867.1194 17.6097
v  542352.7969 6588867.2479 17.4481
v  542352.8432 6588867.0077 17.7140
v  542352.8624 6588866.9079 17.7931
v  542352.9031 6588866.6964 17.6097
v  542352.8816 6588866.8081 17.7140
v  542352.9278 6588866.568 17.4481
v  542352.9551 6588866.4265 17.2483
v  542352.9904 6588866.2429 16.9071
v  542352.9816 6588866.2887 17.0088
v  542352.9943 6588866.2229 16.8229
v  542353.0005 6588866.1905 16.5733
v  542353.7912 6588865.6808 16.4436
v  542353.7685 6588865.7987 16.4436
v  542353.7685 6588865.7987 16.6082
v  542353.7912 6588865.6808 16.6161
v  542353.2691 6588868.3922 14.9527
v  542353.2918 6588868.2744 14.9527
v  542353.2918 6588868.2744 14.6716
v  542353.2692 6588868.3922 14.6731
v  542353.269 6588868.3922 16.6161
v  542353.2772 6588868.3498 16.9422
v  542353.2995 6588868.2338 16.9202
v  542353.2917 6588868.2744 16.6082
v  542353.2853 6588868.3075 17.1207
v  542353.3069 6588868.1956 17.0812
v  542353.3016 6588868.2227 17.3092
v  542353.3218 6588868.1181 17.2538
v  542353.3343 6588868.0533 17.6036
v  542353.3533 6588867.9544 17.5380
v  542353.3669 6588867.8838 17.8429
v  542353.385 6588867.7902 17.7700
v  542353.3996 6588867.7144 18.0562
v  542353.4161 6588867.6283 17.9738
v  542353.4322 6588867.5449 18.2144
v  542353.4467 6588867.4695 18.1220
v  542353.4648 6588867.3754 18.3443
v  542353.4775 6588867.3097 18.2445
v  542353.5301 6588867.0365 18.5332
v  542353.5301 6588867.0365 18.4038
v  542353.5954 6588866.6976 18.3443
v  542353.5827 6588866.7634 18.2445
v  542353.628 6588866.5281 18.2144
v  542353.6135 6588866.6036 18.1220
v  542353.6606 6588866.3587 18.0562
v  542353.6441 6588866.4448 17.9738
v  542353.6933 6588866.1892 17.8429
v  542353.6752 6588866.2829 17.7700
v  542353.7259 6588866.0198 17.6036
v  542353.7069 6588866.1186 17.5380
v  542353.7585 6588865.8503 17.3092
v  542353.7384 6588865.955 17.2538
v  542353.7749 6588865.7656 17.1207
v  542353.7533 6588865.8774 17.0812
v  542353.783 6588865.7232 16.9422
v  542353.7607 6588865.8392 16.9202
v  542353.1522 6588868.2055 16.9202
v  542353.1444 6588868.246 16.6764
v  542353.1596 6588868.1672 17.0812
v  542353.1745 6588868.0897 17.2538
v  542353.206 6588867.9261 17.5380
v  542353.2377 6588867.7618 17.7700
v  542353.2688 6588867.5999 17.9737
v  542353.2994 6588867.4411 18.1220
v  542353.3302 6588867.2813 18.2445
v  542353.3828 6588867.0081 18.4038
v  542353.4354 6588866.735 18.2445
v  542353.4662 6588866.5752 18.1220
v  542353.4968 6588866.4164 17.9737
v  542353.5279 6588866.2545 17.7700
v  542353.5596 6588866.0902 17.5380
v  542353.5911 6588865.9266 17.2538
v  542353.606 6588865.8491 17.0812
v  542353.6134 6588865.8108 16.9202
v  542353.6212 6588865.7703 16.6764
v  542353.1857 6588868.0315 16.8872
v  542353.1785 6588868.0692 16.5963
v  542353.1919 6588867.9994 17.0221
v  542353.2048 6588867.9327 17.1706
v  542353.2346 6588867.7778 17.4396
v  542353.2647 6588867.6213 17.6607
v  542353.2937 6588867.4708 17.8501
v  542353.3212 6588867.328 17.9835
v  542353.349 6588867.1839 18.0939
v  542353.3828 6588867.0081 18.1964
v  542353.4166 6588866.8324 18.0939
v  542353.4444 6588866.6884 17.9835
v  542353.4719 6588866.5455 17.8501
v  542353.5009 6588866.395 17.6607
v  542353.531 6588866.2385 17.4396
v  542353.5609 6588866.0836 17.1706
v  542353.5737 6588866.0169 17.0221
v  542353.5799 6588865.9848 16.8871
v  542353.5872 6588865.9471 16.5963
v  542353.009 6588867.9974 16.8871
v  542353.0017 6588868.0352 16.6646
v  542353.0151 6588867.9654 17.0221
v  542353.028 6588867.8987 17.1706
v  542353.0578 6588867.7438 17.4396
v  542353.088 6588867.5873 17.6607
v  542353.117 6588867.4367 17.8501
v  542353.1445 6588867.2939 17.9835
v  542353.1722 6588867.1498 18.0939
v  542353.2061 6588866.9741 18.1964
v  542353.2399 6588866.7984 18.0939
v  542353.2676 6588866.6543 17.9835
v  542353.2952 6588866.5115 17.8501
v  542353.3241 6588866.361 17.6607
v  542353.3543 6588866.2044 17.4396
v  542353.3841 6588866.0496 17.1706
v  542353.397 6588865.9828 17.0221
v  542353.4031 6588865.9508 16.8871
v  542353.4104 6588865.913 16.6646
v  542353.0499 6588867.7848 16.8468
v  542353.0433 6588867.8192 16.5818
v  542353.0546 6588867.7603 16.9498
v  542353.065 6588867.7068 17.0689
v  542353.0927 6588867.5626 17.3194
v  542353.121 6588867.4155 17.5270
v  542353.1474 6588867.2789 17.6990
v  542353.1711 6588867.1556 17.8141
v  542353.2061 6588866.9741 17.9429
v  542353.241 6588866.7926 17.8141
v  542353.2648 6588866.6693 17.6990
v  542353.2911 6588866.5327 17.5270
v  542353.3194 6588866.3856 17.3194
v  542353.3472 6588866.2415 17.0689
v  542353.3575 6588866.1879 16.9498
v  542353.3622 6588866.1635 16.8468
v  542353.3688 6588866.1291 16.5818
v  542352.7553 6588867.728 16.8467
v  542352.7487 6588867.7624 16.6501
v  542352.7601 6588867.7036 16.9498
v  542352.7704 6588867.65 17.0689
v  542352.7981 6588867.5058 17.3193
v  542352.8265 6588867.3588 17.5270
v  542352.8528 6588867.2222 17.6990
v  542352.8765 6588867.0989 17.8141
v  542352.9115 6588866.9174 17.9429
v  542352.9464 6588866.7359 17.8141
v  542352.9702 6588866.6126 17.6990
v  542352.9965 6588866.476 17.5270
v  542353.0248 6588866.3289 17.3193
v  542353.0526 6588866.1847 17.0689
v  542353.0629 6588866.1312 16.9498
v  542353.0676 6588866.1067 16.8467
v  542353.0742 6588866.0723 16.6501
v  542352.7795 6588867.6024 16.8229
v  542352.7733 6588867.6348 16.5733
v  542352.7834 6588867.5824 16.9071
v  542352.7922 6588867.5367 17.0088
v  542352.8188 6588867.3988 17.2483
v  542352.846 6588867.2573 17.4481
v  542352.8707 6588867.1289 17.6097
v  542352.8923 6588867.0172 17.7140
v  542352.9115 6588866.9174 17.7931
v  542352.9307 6588866.8176 17.7140
v  542352.9522 6588866.7059 17.6097
v  542352.977 6588866.5774 17.4481
v  542353.0042 6588866.436 17.2483
v  542353.0307 6588866.2981 17.0088
v  542353.0395 6588866.2524 16.9071
v  542353.0434 6588866.2324 16.8229
v  542353.0496 6588866.2 16.5733
v  542353.0496 6588866.2 16.4436
v  542352.7734 6588867.6348 14.9526
v  542352.7243 6588867.6253 14.9526
v  542352.7243 6588867.6253 14.6710
v  542352.7734 6588867.6348 14.6710
v  542353.0006 6588866.1906 14.6710
v  542353.0006 6588866.1905 14.9526
v  542353.7913 6588865.6809 14.6731
v  542353.7686 6588865.7987 14.6716
v  542353.7686 6588865.7987 14.9527
v  542353.7913 6588865.6809 14.9527
v  542353.0497 6588866.2 14.6710
v  542353.0497 6588866.2 14.9526
v  542353.269 6588868.3922 16.4436
v  542353.2917 6588868.2744 16.4436
v  542353.1444 6588868.246 16.3711
v  542353.1445 6588868.246 15.0469
v  542353.1785 6588868.0692 16.4436
v  542353.1786 6588868.0693 14.9527
v  542353.0017 6588868.0352 16.3711
v  542353.0018 6588868.0352 15.0468
v  542353.0433 6588867.8192 16.4436
v  542353.0434 6588867.8192 14.9527
v  542352.7487 6588867.7624 16.3710
v  542352.7488 6588867.7625 15.0468
v  542352.7733 6588867.6348 16.4436
v  542353.6213 6588865.7703 15.0469
v  542353.6212 6588865.7703 16.3711
v  542353.5873 6588865.9471 14.9527
v  542353.5872 6588865.9471 16.4436
v  542353.4105 6588865.9131 15.0468
v  542353.4104 6588865.913 16.3711
v  542353.3689 6588866.1291 14.9527
v  542353.3688 6588866.1291 16.4436
v  542353.0743 6588866.0723 15.0468
v  542353.0742 6588866.0723 16.3710
v  542353.3689 6588866.1291 14.6726
v  542353.5873 6588865.9471 14.6736
v  542353.0434 6588867.8192 14.6726
v  542353.1786 6588868.0693 14.6736
v  542352.8655 6588870.4944 19.3443
v  542352.8654 6588870.4943 17.8254
v  542354.2087 6588863.5188 17.8254
v  542354.2089 6588863.5188 19.3443
v  542354.477 6588862.1283 18.6520
v  542353.1221 6588869.1622 22.7644
v  542353.1219 6588869.1621 21.4431
v  542352.8654 6588870.4943 21.4431
v  542352.8655 6588870.4944 22.7644
v  542354.2089 6588863.5188 22.7644
v  542354.2087 6588863.5188 21.4431
v  542353.9522 6588864.851 21.4431
v  542353.9523 6588864.851 22.7644
v  542353.1221 6588869.1622 19.3443
v  542353.9523 6588864.851 19.3443
v  542353.1219 6588869.1621 24.8632
v  542353.9522 6588864.851 24.8632
v  542353.7318 6588865.9898 14.4872
v  542353.3411 6588868.0185 14.4872
v  542353.6357 6588868.0752 14.4872
v  542354.0264 6588866.0465 14.4872
v  542354.0264 6588866.0465 13.9400
v  542353.6357 6588868.0752 13.9400
v  542353.7318 6588865.9898 13.9400
v  542353.3411 6588868.0185 13.9400
v  542353.266 6588868.4098 13.9381
v  542353.0992 6588869.2838 14.3593
v  542353.7901 6588865.6878 13.9385
v  542352.8949 6588870.3447 14.3593
v  542352.8949 6588870.3447 14.9085
v  542353.0992 6588869.2838 14.9085
v  542354.1763 6588863.6911 14.3593
v  542354.1763 6588863.6911 14.9085
v  542354.4773 6588862.1283 13.9209
v  542354.3806 6588862.6302 14.3593
v  542354.3806 6588862.6302 14.9085
v  542354.2089 6588863.5188 15.7266
v  542353.9523 6588864.851 15.7266
v  542353.1221 6588869.1622 15.7266
v  542352.8655 6588870.4944 15.7266
v  542353.9522 6588864.851 17.8254
v  542353.1219 6588869.1621 17.8254
v  542354.4767 6588862.1283 22.1182
v  542352.8654 6588870.4943 24.8632
v  542354.2087 6588863.5188 24.8632
v  542354.7638 6588860.6406 14.9085
v  542354.9681 6588859.5797 14.9085
v  542355.3267 6588857.7176 14.9085
v  542355.531 6588856.6568 14.9085
v  542355.8896 6588854.7946 14.9085
v  542356.0939 6588853.7338 14.9085
v  542355.3267 6588857.7176 14.3593
v  542354.9681 6588859.5798 14.3593
v  542355.8896 6588854.7947 14.3593
v  542355.531 6588856.6568 14.3593
v  542354.7638 6588860.6406 14.3593
v  542356.0939 6588853.7338 14.3593
v  542353.4174 6588867.9466 22.4930
v  542353.3618 6588867.9359 22.4930
v  542353.7012 6588866.1734 22.4930
v  542353.7568 6588866.1841 22.4930
v  542353.5905 6588867.9809 22.7653
v  542353.9303 6588866.2166 22.7653
# 541 vertices

vn 0.6645 0.1280 -0.7362
vn 0.6705 0.1289 -0.7306
vn 0.4956 0.0944 0.8634
vn -0.9999 -0.0113 0.0000
vn -0.6705 -0.1266 0.7310
vn -0.6685 -0.1274 0.7327
vn -0.5289 -0.0060 0.8487
vn -0.4743 -0.0310 0.8798
vn -0.0979 -0.0008 0.9952
vn -0.0982 -0.0007 0.9952
vn -0.0973 -0.0010 0.9953
vn -0.0970 -0.0011 0.9953
vn 0.0645 -0.9979 0.0000
vn 0.0330 0.9988 -0.0365
vn 0.0587 0.9983 -0.0000
vn 0.0591 0.9982 0.0022
vn 0.0593 0.9982 0.0000
vn 0.0587 0.9983 0.0006
vn -0.1261 -0.9920 0.0000
vn -0.1242 -0.9922 -0.0047
vn -0.1262 -0.9920 -0.0077
vn -0.9820 -0.1891 0.0001
vn 0.2200 -0.9755 -0.0000
vn -0.1367 -0.0263 0.9903
vn -0.2200 0.9755 0.0000
vn 0.9720 0.1872 0.1422
vn -0.2193 0.9756 -0.0044
vn -0.9720 -0.1872 -0.1422
vn 0.2193 -0.9756 0.0044
vn 0.1396 0.0269 -0.9898
vn 0.1891 -0.9820 0.0000
vn -0.1396 -0.0269 0.9898
vn -0.1891 0.9820 -0.0000
vn 0.0001 0.0000 1.0000
vn -0.0001 -0.0000 -1.0000
vn 0.9820 0.1891 0.0001
vn -0.2200 0.9755 -0.0000
vn 0.1367 0.0263 0.9903
vn 0.2200 -0.9755 0.0000
vn -0.9720 -0.1872 0.1422
vn 0.2193 -0.9756 -0.0044
vn 0.9720 0.1872 -0.1422
vn -0.2193 0.9756 0.0044
vn -0.1396 -0.0269 -0.9898
vn -0.1891 0.9820 0.0000
vn 0.1396 0.0269 0.9898
vn 0.1891 -0.9820 -0.0000
vn -0.0001 -0.0000 1.0000
vn 0.0001 0.0000 -1.0000
vn 0.9819 0.1892 0.0001
vn 0.9820 0.1891 0.0000
vn 0.9820 0.1891 -0.0000
vn 0.9819 0.1895 0.0000
vn 0.9820 0.1889 -0.0002
vn 0.9819 0.1896 0.0005
vn 0.9821 0.1886 0.0005
vn 0.9820 0.1890 0.0000
vn 0.9819 0.1893 -0.0001
vn 0.9820 0.1887 0.0000
vn 0.9821 0.1886 0.0001
vn 0.1542 -0.9771 -0.1468
vn 0.1838 -0.9545 -0.2350
vn 0.1720 -0.8929 -0.4161
vn 0.1632 -0.8471 -0.5058
vn 0.1534 -0.7965 -0.5848
vn 0.1470 -0.7633 -0.6291
vn 0.1278 -0.6637 -0.7370
vn 0.1138 -0.5906 -0.7989
vn 0.0940 -0.4879 -0.8678
vn -0.0939 0.4880 -0.8678
vn -0.1137 0.5906 -0.7989
vn -0.1278 0.6637 -0.7370
vn -0.1470 0.7633 -0.6291
vn -0.1534 0.7965 -0.5849
vn -0.1631 0.8471 -0.5058
vn -0.1719 0.8929 -0.4161
vn -0.1838 0.9545 -0.2350
vn -0.2197 0.9644 -0.1468
vn 0.1594 -0.9760 -0.1481
vn -0.2145 0.9654 -0.1481
vn 0.9819 0.1892 0.0000
vn 0.1702 -0.9739 -0.1501
vn 0.1081 -0.5613 -0.8205
vn -0.1081 0.5613 -0.8205
vn -0.2037 0.9675 -0.1501
vn 0.9819 0.1891 0.0000
vn 0.1875 -0.9735 -0.1311
vn 0.1161 -0.6028 -0.7894
vn -0.1161 0.6028 -0.7894
vn -0.1875 0.9735 -0.1311
vn 0.2169 0.9762 0.0000
vn 0.6402 0.7682 0.0001
vn 0.6333 0.7739 0.0001
vn 0.5639 -0.8258 0.0000
vn 0.8797 -0.4755 0.0001
vn 0.8754 -0.4834 0.0001
vn 0.3494 -0.5117 0.7849
vn 0.4926 -0.2663 0.8285
vn 0.5539 -0.3059 0.7743
vn 0.4007 0.4897 0.7743
vn 0.3585 0.4302 0.8285
vn 0.1344 0.6049 0.7849
vn 0.5640 -0.8258 0.0000
vn 0.8797 -0.4754 0.0001
vn 0.3059 0.4412 0.8436
vn 0.2657 0.3890 0.8821
vn 0.0943 0.5265 0.8449
vn 0.3374 0.4122 -0.8463
vn 0.2957 0.3547 -0.8870
vn 0.1127 0.5071 -0.8545
vn 0.2831 -0.4539 0.8449
vn 0.3911 -0.2625 0.8821
vn 0.4479 -0.2961 0.8436
vn 0.2930 -0.4290 -0.8545
vn 0.4062 -0.2195 -0.8870
vn 0.4663 -0.2574 -0.8463
vn 0.9820 0.1889 -0.0001
vn 0.9819 0.1894 -0.0001
vn 0.9820 0.1891 -0.0001
vn 0.0058 0.0006 1.0000
vn -0.0044 -0.0007 1.0000
vn -0.0041 -0.0010 1.0000
vn -0.0050 -0.0010 1.0000
vn 0.5081 0.6130 0.6050
vn -0.0000 0.0000 1.0000
vn 0.9823 0.1873 0.0002
vn 0.9819 0.1894 0.0001
vn 0.9820 0.1888 -0.0021
vn 0.9823 0.1872 0.0001
vn 0.9818 0.1900 0.0001
vn 0.9820 0.1891 0.0007
vn 0.9818 0.1900 -0.0006
vn 0.9819 0.1895 0.0001
vn 0.9823 0.1872 0.0004
vn 0.9819 0.1895 0.0006
vn 0.9820 0.1888 0.0001
vn 0.9823 0.1876 0.0001
vn 0.9817 0.1905 0.0001
vn 0.9823 0.1872 -0.0003
vn 0.9816 0.1909 -0.0002
vn 0.9822 0.1877 0.0001
vn 0.9821 0.1882 -0.0006
vn 0.9822 0.1881 -0.0004
vn 0.9818 0.1901 -0.0003
vn 0.9817 0.1902 -0.0010
vn 0.9818 0.1898 -0.0012
vn 0.9822 0.1880 -0.0010
vn 0.9821 0.1884 -0.0012
vn 0.9820 0.1891 -0.0022
vn 0.9820 0.1887 -0.0005
vn 0.9819 0.1895 -0.0005
vn 0.9820 0.1889 0.0001
vn 0.9821 0.1886 -0.0001
vn 0.9819 0.1893 0.0001
vn 0.9819 0.1896 -0.0001
vn 0.9820 0.1891 -0.0002
vn 0.9820 0.1891 0.0009
vn 0.9819 0.1893 0.0004
vn 0.9820 0.1889 0.0005
vn 0.9819 0.1893 -0.0002
vn 0.9820 0.1888 -0.0002
vn 0.9820 0.1890 -0.0002
vn 0.9819 0.1892 -0.0002
vn 0.9820 0.1887 0.0001
vn -0.1891 0.9820 -0.0033
vn 0.1891 -0.9820 -0.0033
vn -0.0138 0.0040 0.9999
vn -0.0113 -0.0089 0.9999
vn 0.1891 -0.9819 -0.0033
vn 0.0591 0.9982 -0.0000
vn 0.9824 0.1870 0.0021
vn 0.9818 0.1898 -0.0044
vn -0.0026 -0.0002 1.0000
vn -0.0025 -0.0007 1.0000
vn 0.9819 0.1891 -0.0044
vn 0.8239 0.1587 -0.5440
vn 0.9820 0.1891 0.0002
vn 0.9818 0.1899 0.0002
vn 0.9819 0.1895 -0.0012
# 179 vertex normals

vt 0.5201 0.0005 1.0679
vt 0.9956 0.0005 0.2531
vt 0.9901 0.9995 -0.9734
vt 0.0129 0.0005 1.9373
vt 0.0044 0.9995 0.7469
vt 9.1685 8.7538 0.0005
vt -1.9526 8.7597 0.0005
vt -2.9485 4.1362 0.9995
vt 7.8673 4.0931 0.9995
vt -2.5487 4.4849 -7.7048
vt -9.9532 4.4849 -7.7884
vt -9.9532 -8.0557 -7.7884
vt 8.8722 4.4849 -7.5759
vt 8.8722 -8.0557 -7.5759
vt 9.9849 7.5119 0.9995
vt -3.4192 7.4891 0.9995
vt 0.9673 6.1506 0.5490
vt -3.8203 6.0421 0.5181
vt 0.6415 3.7097 0.0005
vt 8.1837 2.5127 0.0005
vt -2.5487 6.6065 -7.7048
vt -9.9532 6.6065 -7.7884
vt 3.5234 0.8706 0.0005
vt 3.3559 2.8931 0.9995
vt -0.9049 2.1369 0.6436
vt -0.9952 0.8165 0.0005
vt -3.6633 7.0053 3.8098
vt -7.7048 6.6065 3.5487
vt -7.7048 4.4849 3.5487
vt -3.4045 4.2748 10.2363
vt 3.6981 9.0752 10.6465
vt -3.9129 4.7337 10.2363
vt 8.7884 -8.0557 10.9532
vt 8.7884 4.4849 10.9532
vt -3.4052 -3.3442 10.2360
vt -3.4055 -8.0752 10.2358
vt 6.1510 6.8632 10.7966
vt 8.7884 6.6065 10.9532
vt -7.5759 -8.0557 -7.8722
vt 8.2811 -8.0752 -9.8879
vt 8.2807 -3.4090 -9.8877
vt 8.2804 0.1220 -9.8876
vt 8.2801 4.2748 -9.8874
vt -7.5759 4.4849 -7.8722
vt 8.7884 4.7337 -9.9532
vt 1.0124 9.0752 -9.0000
vt 0.0000 0.0000 0.0000
vt 1.0000 0.0000 0.0000
vt 1.0000 1.0000 0.0000
vt 0.0000 1.0000 0.0000
vt 0.0005 0.0005 0.9995
vt 0.9995 0.0005 0.0011
vt 0.9995 0.9995 0.0005
vt 0.0005 0.9995 0.9989
vt 0.9995 0.0005 0.0007
vt 0.0005 0.9995 0.9993
vt -0.4045 0.0593 0.5536
vt -0.4045 -2.4794 0.5538
vt -0.1884 -2.2594 0.5122
vt -0.1885 -0.1607 0.5120
vt 1.3598 -2.4794 0.2140
vt 1.1437 -2.2594 0.2556
vt 1.3597 0.0593 0.2139
vt 1.1437 -0.1607 0.2555
vt 0.9953 0.9995 0.9995
vt 0.9995 0.9993 0.0005
vt 0.0040 0.0005 0.0011
vt 0.0005 0.0006 0.9048
vt 0.0047 0.9995 0.0005
vt 0.0005 0.9994 0.9995
vt 0.9960 0.0005 0.9048
vt 0.9995 0.0006 0.0011
vt 0.0005 0.9995 0.9995
vt 0.1228 0.0005 0.8772
vt 0.8772 0.0005 0.1229
vt 2.5352 -1.7495 0.1755
vt 2.5352 -4.2883 0.1757
vt 2.7513 -4.0683 0.1341
vt 2.7512 -1.9695 0.1339
vt 4.2995 -4.2883 -0.1641
vt 4.0834 -4.0683 -0.1225
vt 4.2994 -1.7495 -0.1642
vt 4.0834 -1.9695 -0.1226
vt 2.5352 1.8682 0.1755
vt 2.5352 -0.6706 0.1757
vt 2.7513 -0.4506 0.1341
vt 2.7512 1.6482 0.1339
vt 4.2995 -0.6706 -0.1641
vt 4.0834 -0.4506 -0.1225
vt 4.2994 1.8682 -0.1642
vt 4.0834 1.6482 -0.1226
vt 2.5352 5.2883 0.1755
vt 2.5352 2.7495 0.1757
vt 2.7513 2.9695 0.1341
vt 2.7512 5.0683 0.1339
vt 4.2995 2.7495 -0.1641
vt 4.0834 2.9695 -0.1225
vt 4.2994 5.2883 -0.1642
vt 4.0834 5.0683 -0.1226
vt -0.3673 5.2883 0.7345
vt -0.3672 2.7495 0.7347
vt -0.1512 2.9695 0.6931
vt -0.1512 5.0683 0.6929
vt 1.3970 2.7495 0.3949
vt 1.1810 2.9695 0.4365
vt 1.3970 5.2883 0.3947
vt 1.1809 5.0683 0.4363
vt -3.2995 5.2883 1.2992
vt -3.2994 2.7495 1.2994
vt -3.0834 2.9695 1.2578
vt -3.0834 5.0683 1.2576
vt -1.5352 2.7495 0.9596
vt -1.7512 2.9695 1.0012
vt -1.5352 5.2883 0.9594
vt -1.7513 5.0683 1.0011
vt -3.2995 1.8682 1.2992
vt -3.2994 -0.6706 1.2994
vt -3.0834 -0.4506 1.2578
vt -3.0834 1.6482 1.2576
vt -1.5352 -0.6706 0.9596
vt -1.7512 -0.4506 1.0012
vt -1.5352 1.8682 0.9594
vt -1.7513 1.6482 1.0011
vt -0.3673 1.8682 0.7345
vt -0.3672 -0.6706 0.7347
vt -0.1512 -0.4506 0.6931
vt -0.1512 1.6482 0.6929
vt 1.3970 -0.6706 0.3949
vt 1.1810 -0.4506 0.4365
vt 1.3970 1.8682 0.3947
vt 1.1809 1.6482 0.4363
vt -3.2995 -1.7495 1.2992
vt -3.2994 -4.2883 1.2994
vt -3.0834 -4.0683 1.2578
vt -3.0834 -1.9695 1.2576
vt -1.5352 -4.2883 0.9596
vt -1.7512 -4.0683 1.0012
vt -1.5352 -1.7495 0.9594
vt -1.7513 -1.9695 1.0011
vt -0.3673 -1.7495 0.7345
vt -0.3672 -4.2883 0.7347
vt -0.1512 -4.0683 0.6931
vt -0.1512 -1.9695 0.6929
vt 1.3970 -4.2883 0.3949
vt 1.1810 -4.0683 0.4365
vt 1.3970 -1.7495 0.3947
vt 1.1809 -1.9695 0.4363
vt 0.5536 3.4794 -0.4045
vt 0.5538 1.1592 -0.4045
vt 0.6094 1.1592 -0.3938
vt 0.6092 3.4794 -0.3938
vt 0.7860 1.1592 1.3598
vt 0.7861 3.4794 1.3597
vt 0.7305 3.4794 1.3704
vt 0.7304 1.1592 1.3705
vt 0.2139 1.3597 3.4794
vt 0.5536 -0.4045 3.4794
vt 0.6092 -0.3938 3.4794
vt 0.2695 1.3704 3.4794
vt 0.2541 0.5173 1.2021
vt 0.7392 0.5173 -0.2026
vt 0.7392 0.5453 -0.2026
vt 0.7215 0.6174 -0.1513
vt 0.7282 0.5992 -0.1709
vt 0.7060 0.6393 -0.1065
vt 0.6594 0.6910 0.0285
vt 0.5681 0.7691 0.2927
vt 0.6116 0.7342 0.1669
vt 0.5304 0.7916 0.4021
vt 0.4966 0.8086 0.4998
vt 0.4251 0.7691 0.7068
vt 0.4629 0.7916 0.5975
vt 0.3817 0.7342 0.8326
vt 0.3339 0.6910 0.9711
vt 0.2718 0.6174 1.1508
vt 0.2872 0.6393 1.1060
vt 0.2650 0.5992 1.1703
vt 0.2541 0.5453 1.2020
vt -0.8557 1.2699 1.0212
vt -0.7378 1.2699 0.9985
vt -0.7378 1.4345 0.9985
vt -0.8557 1.4424 1.0212
vt 1.8557 -0.2210 0.4991
vt 1.7378 -0.2210 0.5218
vt 1.7378 -0.5021 0.5218
vt 1.8557 -0.5007 0.4991
vt 0.9450 0.5063 0.0000
vt 0.9337 0.5774 0.0000
vt 0.8912 0.5719 0.0000
vt 0.9018 0.5043 0.0000
vt 0.9182 0.6214 0.0000
vt 0.8772 0.6116 0.0000
vt 0.9008 0.6738 0.0000
vt 0.8624 0.6602 0.0000
vt 0.8625 0.7405 0.0000
vt 0.8263 0.7243 0.0000
vt 0.8055 0.8046 0.0000
vt 0.7712 0.7866 0.0000
vt 0.7451 0.8615 0.0000
vt 0.7135 0.8411 0.0000
vt 0.6889 0.9073 0.0000
vt 0.6613 0.8845 0.0000
vt 0.6276 0.9444 0.0000
vt 0.6035 0.9198 0.0000
vt 0.5000 0.9817 0.0000
vt 0.5000 0.9498 0.0000
vt 0.3646 0.9416 0.0000
vt 0.3887 0.9170 0.0000
vt 0.3025 0.9096 0.0000
vt 0.3302 0.8868 0.0000
vt 0.2437 0.8673 0.0000
vt 0.2752 0.8470 0.0000
vt 0.1894 0.8114 0.0000
vt 0.2237 0.7934 0.0000
vt 0.1351 0.7511 0.0000
vt 0.1714 0.7349 0.0000
vt 0.0835 0.6752 0.0000
vt 0.1219 0.6615 0.0000
vt 0.0616 0.6241 0.0000
vt 0.1026 0.6144 0.0000
vt 0.0513 0.5801 0.0000
vt 0.0939 0.5747 0.0000
vt 0.0445 0.5061 0.0000
vt 0.0877 0.5042 0.0000
vt 0.8796 0.6005 0.0000
vt 0.8652 0.6433 0.0000
vt 0.8275 0.6303 0.0000
vt 0.8390 0.5902 0.0000
vt 0.8420 0.6883 0.0000
vt 0.8044 0.6729 0.0000
vt 0.8192 0.7213 0.0000
vt 0.7847 0.7065 0.0000
vt 0.7709 0.7789 0.0000
vt 0.7399 0.7606 0.0000
vt 0.7224 0.8266 0.0000
vt 0.6963 0.8060 0.0000
vt 0.6746 0.8686 0.0000
vt 0.6483 0.8409 0.0000
vt 0.6271 0.8995 0.0000
vt 0.6055 0.8697 0.0000
vt 0.5806 0.9257 0.0000
vt 0.5617 0.8946 0.0000
vt 0.4921 0.9520 0.0000
vt 0.4915 0.9135 0.0000
vt 0.4102 0.9276 0.0000
vt 0.4246 0.8906 0.0000
vt 0.3631 0.9053 0.0000
vt 0.3855 0.8720 0.0000
vt 0.3169 0.8754 0.0000
vt 0.3445 0.8473 0.0000
vt 0.2521 0.8242 0.0000
vt 0.2857 0.7975 0.0000
vt 0.2010 0.7648 0.0000
vt 0.2330 0.7392 0.0000
vt 0.1396 0.6831 0.0000
vt 0.1787 0.6667 0.0000
vt 0.1200 0.6456 0.0000
vt 0.1598 0.6279 0.0000
vt 0.1067 0.6179 0.0000
vt 0.1490 0.6047 0.0000
vt 0.1000 0.5779 0.0000
vt 0.1460 0.5780 0.0000
vt 0.5356 0.9384 0.0000
vt 0.4899 0.9447 0.0000
vt 0.4894 0.8934 0.0000
vt 0.4560 0.9367 0.0000
vt 0.0000 0.9318 0.0000
vt 1.0000 0.1480 0.0000
vt 0.9844 1.0000 0.0000
vt 0.9688 1.0000 0.0000
vt 0.9375 1.0000 0.0000
vt 0.8750 1.0000 0.0000
vt 0.8125 1.0000 0.0000
vt 0.7500 1.0000 0.0000
vt 0.6875 1.0000 0.0000
vt 0.6250 1.0000 0.0000
vt 0.3125 1.0000 0.0000
vt 0.2500 1.0000 0.0000
vt 0.1875 1.0000 0.0000
vt 0.1250 1.0000 0.0000
vt 0.0625 1.0000 0.0000
vt 0.0312 1.0000 0.0000
vt 0.0156 1.0000 0.0000
vt 0.2541 0.1346 1.2026
vt 0.7392 0.1346 -0.2020
vt 0.7392 0.1954 -0.2021
vt 0.2541 0.1954 1.2025
vt -0.8557 -0.5007 1.0213
vt -0.7378 -0.5021 0.9986
vt -0.7378 -0.2210 0.9986
vt -0.8557 -0.2210 1.0213
vt 0.0000 0.1976 0.0000
vt 0.9450 0.4638 0.0000
vt 0.9018 0.4638 0.0000
vt 0.9028 0.1755 0.0000
vt 0.9460 0.1755 0.0000
vt 0.8975 0.5020 0.0000
vt 0.8513 0.5029 0.0000
vt 0.8518 0.2443 0.0000
vt 0.8959 0.2444 0.0000
vt 1.0000 0.9318 0.0000
vt 0.0464 0.1707 0.0000
vt 0.0896 0.1707 0.0000
vt 0.0877 0.4636 0.0000
vt 0.0445 0.4636 0.0000
vt 0.0964 0.2359 0.0000
vt 0.1486 0.2358 0.0000
vt 0.1485 0.4944 0.0000
vt 0.0964 0.4944 0.0000
vt 1.8557 1.2699 0.4990
vt 1.8557 1.4424 0.4990
vt 1.7378 1.4345 0.5217
vt 1.7378 1.2699 0.5217
vt 0.7203 -0.2211 -0.3365
vt 0.4011 -0.2211 -0.4075
vt 0.4011 -0.5012 -0.4074
vt 0.7203 -0.5027 -0.3365
vt 0.1828 -0.2211 -0.5894
vt 0.1827 -0.5002 -0.5894
vt 0.0014 -0.2210 -0.7378
vt 0.0014 -0.5021 -0.7378
vt 0.0034 -0.5027 1.0983
vt 0.2734 -0.5012 1.2827
vt 0.2734 -0.2211 1.2827
vt 0.0034 -0.2211 1.0983
vt 1.2827 -0.5012 0.2734
vt 1.5327 -0.5002 0.4086
vt 1.5327 -0.2211 0.4085
vt 1.2827 -0.2211 0.2734
vt -0.0212 1.2259 -0.1269
vt 0.0034 1.0983 -0.2211
vt 0.2734 1.2827 -0.2211
vt 0.4085 1.5327 -0.2211
vt 0.2318 1.4987 -0.1269
vt 0.5218 1.7378 -0.2210
vt 0.3745 1.7095 -0.1269
vt 0.8172 -0.5894 -0.2211
vt 0.8513 -0.7662 -0.1269
vt 0.9986 -0.7378 -0.2210
vt 0.5989 -0.4075 -0.2211
vt 0.6405 -0.6235 -0.1269
vt 0.2797 -0.3365 -0.2211
vt 0.3043 -0.4642 -0.1269
vt 0.0033 1.3995 1.0982
vt 0.0033 1.2698 1.0982
vt 0.2733 1.2699 1.2826
vt 0.2733 1.4081 1.2826
vt 1.2826 1.4081 0.2733
vt 1.2826 1.2699 0.2733
vt 1.5327 1.2699 0.4084
vt 1.5327 1.4226 0.4084
vt 0.1829 1.4226 -0.5895
vt 0.0015 1.4345 -0.7378
vt 0.0015 1.2699 -0.7378
vt 0.1829 1.2699 -0.5895
vt 0.7204 1.3995 -0.3366
vt 0.4012 1.4081 -0.4075
vt 0.4012 1.2699 -0.4075
vt 0.7204 1.2698 -0.3365
vt 0.8171 -0.5895 1.4226
vt 0.8512 -0.7662 1.5027
vt 0.9985 -0.7378 1.4345
vt 0.5988 -0.4075 1.4081
vt 0.6404 -0.6235 1.4908
vt 0.2796 -0.3366 1.3995
vt 0.3042 -0.4642 1.4763
vt 0.0015 -0.7378 1.2699
vt 0.1488 -0.7662 1.1974
vt 0.1829 -0.5895 1.2699
vt 0.3596 -0.6235 1.1973
vt 0.4012 -0.4075 1.2699
vt 0.6958 -0.4642 1.1973
vt 0.7204 -0.3365 1.2698
vt 0.2733 1.2826 1.4081
vt -0.0213 1.2259 1.4763
vt 0.0033 1.0982 1.3995
vt 0.4084 1.5327 1.4226
vt 0.2317 1.4987 1.4908
vt 0.5217 1.7378 1.4345
vt 0.3744 1.7095 1.5027
vt 0.9967 1.0982 1.2698
vt 1.0213 1.2259 1.1973
vt 0.7267 1.2826 1.2699
vt 0.7683 1.4987 1.1973
vt 0.5916 1.5327 1.2699
vt 0.6256 1.7095 1.1974
vt 0.4783 1.7378 1.2699
vt 3.9979 -0.2516 -0.1738
vt 3.9979 -1.7706 -0.1740
vt 5.3679 -0.9440 -0.4374
vt -2.9777 -1.7706 1.1694
vt -2.9776 -0.2516 1.1695
vt -4.3682 -0.9440 1.4376
vt 2.6657 3.1685 0.0827
vt 2.6657 1.8471 0.0826
vt 3.9979 1.8471 -0.1740
vt 3.9979 3.1685 -0.1738
vt -2.9776 3.1685 1.1695
vt -2.9777 1.8471 1.1694
vt -1.6455 1.8471 0.9128
vt -1.6455 3.1685 0.9130
vt 1.4397 2.0671 0.3187
vt 1.4397 -0.4716 0.3188
vt 2.6657 -0.2516 0.0827
vt -0.3246 2.0671 0.6584
vt -1.6455 -0.2516 0.9130
vt -0.3245 -0.4716 0.6586
vt 1.4397 3.1670 0.3188
vt 2.6657 5.2672 0.0826
vt 1.4397 5.4872 0.3187
vt -0.3245 3.1670 0.6586
vt -0.3246 5.4872 0.6584
vt -1.6455 5.2672 0.9128
vt 0.8933 -0.7378 0.5912
vt 0.4165 1.7378 0.5912
vt 0.3032 1.5327 0.5932
vt 0.4935 -0.4075 0.5922
vt -0.1019 1.0983 0.5906
vt -0.1510 1.0888 0.5906
vt 0.1253 -0.3460 0.5906
vt 0.1681 1.2826 0.5922
vt 0.1744 -0.3365 0.5906
vt 0.7119 -0.5894 0.5932
vt 0.0776 0.0005 0.9224
vt 0.8962 0.0005 0.1038
vt 0.9995 0.0005 0.0005
vt 0.4658 1.4820 0.4068
vt 0.8565 -0.5468 0.4068
vt 1.1510 -0.4900 0.4068
vt 0.7603 1.5387 0.4068
vt 0.0005 0.9995 0.0005
vt 0.0005 0.0005 0.0005
vt 0.9995 0.0005 0.9995
vt 0.9995 0.9995 0.9995
vt 1.8958 -4.9229 0.2298
vt 1.9102 -5.5273 0.2276
vt 2.7874 -5.2367 0.0599
vt -0.8156 -4.9229 0.7520
vt -0.8091 -5.6008 0.7510
vt -0.5067 -5.6559 0.6925
vt -0.6977 -4.9243 0.7293
vt -0.5067 -5.1087 0.6925
vt 5.3677 -5.6750 -0.4370
vt 3.8482 -5.2367 -0.1444
vt 3.8482 -4.6874 -0.1444
vt 2.7874 -4.6874 0.0599
vt 1.8958 -4.6433 0.2298
vt -2.8054 -5.2367 1.1370
vt -2.8054 -4.6874 1.1369
vt -0.8156 -4.6433 0.7520
vt -4.3682 -5.6750 1.4380
vt -3.8662 -5.2367 1.3413
vt -3.8662 -4.6874 1.3412
vt -2.9776 -3.8694 1.1695
vt -1.6455 -3.8694 0.9130
vt 2.6657 -3.8694 0.0827
vt 3.9979 -3.8694 -0.1738
vt 1.8957 -3.1523 0.2297
vt -0.8156 -3.1523 0.7518
vt -0.8156 -2.9799 0.7518
vt 1.8957 -2.9799 0.2297
vt 1.8534 -2.6537 0.2378
vt -0.7732 -2.6537 0.7437
vt -1.6455 -1.7706 0.9128
vt 2.6657 -1.7706 0.0826
vt 1.3874 -1.7530 0.3276
vt 1.5568 -1.9924 0.2949
vt 1.7263 -2.2867 0.2623
vt 1.8110 -2.4753 0.2460
vt -0.4767 -1.9924 0.6866
vt -0.3072 -1.7530 0.6539
vt -0.6462 -2.2867 0.7192
vt -0.7309 -2.4753 0.7355
vt -0.1378 -1.5398 0.6213
vt 0.0317 -1.3815 0.5887
vt 0.2012 -1.2516 0.5560
vt 0.5401 -1.0627 0.4908
vt 1.2179 -1.5398 0.3602
vt 1.0485 -1.3815 0.3928
vt 0.8790 -1.2516 0.4255
vt -4.3682 2.5222 1.4374
vt -4.3682 6.6750 1.4371
vt 5.3682 6.6750 -0.4380
vt 3.9979 5.2672 -0.1740
vt -2.9777 5.2672 1.1694
vt 2.8231 2.9485 0.0524
vt 2.8230 2.0671 0.0522
vt 4.5873 2.0671 -0.2875
vt 4.5873 2.9485 -0.2873
vt 2.8231 -0.4716 0.0524
vt 2.8230 -1.5506 0.0522
vt 4.5873 -1.5506 -0.2875
vt 4.5873 -0.4716 -0.2873
vt 4.2062 -4.6874 -0.2134
vt 4.5873 -4.0894 -0.2873
vt 2.8231 -4.0894 0.0524
vt 3.1454 -4.6874 -0.0091
vt 1.2832 -4.6874 0.3495
vt 1.6848 -4.0894 0.2716
vt -0.0794 -4.0894 0.6114
vt 0.2224 -4.6874 0.5538
vt -1.6397 -4.6874 0.9124
vt -1.2474 -4.0894 0.8363
vt -3.0116 -4.0894 1.1761
vt -2.7006 -4.6874 1.1168
vt -1.2474 -1.5506 0.8362
vt -1.2474 -0.4716 0.8363
vt -3.0116 -0.4716 1.1761
vt -3.0117 -1.5506 1.1759
vt -1.2474 2.0671 0.8362
vt -1.2474 2.9485 0.8363
vt -3.0116 2.9485 1.1761
vt -3.0117 2.0671 1.1759
vt 1.6848 2.0671 0.2715
vt 1.6848 2.9485 0.2716
vt -0.0794 2.9485 0.6114
vt -0.0794 2.0671 0.6112
vt 1.6848 -1.5506 0.2715
vt 1.6848 -0.4716 0.2716
vt -0.0794 -0.4716 0.6114
vt -0.0794 -1.5506 0.6112
vt -0.0794 5.4872 0.6112
vt -1.2474 5.4872 0.8362
vt 2.8230 5.4872 0.0522
vt 1.6848 5.4872 0.2715
vt 1.2832 -5.2367 0.3496
vt 3.1454 -5.2367 -0.0090
vt -1.6397 -5.2367 0.9125
vt 0.2224 -5.2367 0.5539
vt 5.6939 -5.6750 -0.4998
vt 4.2062 -5.2367 -0.2134
vt -2.7006 -5.2367 1.1168
vt -4.6939 -5.6750 1.5007
vt -4.6937 -1.0089 1.5003
vt 5.6939 -0.9440 -0.5002
vt 5.6939 2.5222 -0.5004
vt -4.6936 2.5222 1.5001
vt 4.5873 5.4872 -0.2875
vt 5.6939 6.6750 -0.5007
vt -4.6934 6.6750 1.4997
vt -3.0117 5.4872 1.1759
vt 0.3228 5.7519 0.3458
vt 0.3227 3.6532 0.3458
vt 0.4994 3.6532 0.3118
vt 0.4996 5.7519 0.3117
vt 0.4208 3.6532 1.6780
vt 0.4206 5.7519 1.6780
vt 0.2439 5.7519 1.6439
vt 0.2440 3.6532 1.6439
vt 0.5794 1.6780 5.7519
vt 0.3228 0.3458 5.7519
vt 0.4996 0.3117 5.7519
vt 0.7561 1.6439 5.7519
vt 0.9127 5.7519 3.1093
vt 0.9126 3.6532 3.1093
vt 1.0893 3.6532 3.0753
vt 1.0895 5.7519 3.0753
vt 0.0874 3.1093 3.6532
vt -0.1691 4.4415 3.6532
vt -0.3459 4.4075 3.6532
vt -0.0893 3.0753 3.6532
vt -0.1691 3.6532 4.4415
vt -0.1693 5.7519 4.4415
vt -0.3460 5.7519 4.4075
vt -0.3459 3.6532 4.4075
vt 1.1693 4.4415 5.7519
vt 0.9127 3.1093 5.7519
vt 1.0895 3.0753 5.7519
vt 1.3460 4.4075 5.7519
vt -0.1741 5.7519 -2.5341
vt -0.1743 3.6532 -2.5340
vt 0.0025 3.6532 -2.5681
vt 0.0026 5.7519 -2.5681
vt 1.1743 -2.5340 3.6532
vt 0.9177 -1.2018 3.6532
vt 0.7410 -1.2359 3.6532
vt 0.9975 -2.5681 3.6532
vt 0.9177 3.6532 -1.2018
vt 0.9176 5.7519 -1.2019
vt 0.7408 5.7519 -1.2359
vt 0.7410 3.6532 -1.2359
vt 0.0824 -1.2019 5.7519
vt -0.1741 -2.5341 5.7519
vt 0.0026 -2.5681 5.7519
vt 0.2592 -1.2359 5.7519
vt -0.1741 2.3319 -2.5341
vt -0.1743 0.2331 -2.5340
vt 0.0025 0.2331 -2.5681
vt 0.0026 2.3318 -2.5681
vt 1.1743 -2.5340 0.2331
vt 0.9177 -1.2018 0.2331
vt 0.7410 -1.2359 0.2331
vt 0.9975 -2.5681 0.2331
vt 0.9177 0.2331 -1.2018
vt 0.9176 2.3319 -1.2019
vt 0.7408 2.3318 -1.2359
vt 0.7410 0.2331 -1.2359
vt 0.0824 -1.2019 2.3319
vt -0.1741 -2.5341 2.3319
vt 0.0026 -2.5681 2.3318
vt 0.2592 -1.2359 2.3318
vt 0.3784 2.3319 0.3351
vt 0.3783 0.2331 0.3351
vt 0.5550 0.2331 0.3011
vt 0.5552 2.3318 0.3010
vt 0.6217 0.3351 0.2331
vt 0.3652 1.6673 0.2331
vt 0.1884 1.6332 0.2331
vt 0.4450 0.3011 0.2331
vt 0.3652 0.2331 1.6673
vt 0.3650 2.3319 1.6672
vt 0.1883 2.3318 1.6332
vt 0.1884 0.2331 1.6332
vt 0.6350 1.6672 2.3319
vt 0.3784 0.3351 2.3319
vt 0.5552 0.3010 2.3318
vt 0.8117 1.6332 2.3318
vt 0.9127 2.3319 3.1093
vt 0.9126 0.2331 3.1093
vt 1.0893 0.2331 3.0753
vt 1.0895 2.3318 3.0753
vt 0.0874 3.1093 0.2331
vt -0.1691 4.4415 0.2331
vt -0.3459 4.4075 0.2331
vt -0.0893 3.0753 0.2331
vt -0.1691 0.2331 4.4415
vt -0.1693 2.3319 4.4415
vt -0.3460 2.3318 4.4075
vt -0.3459 0.2331 4.4075
vt 1.1693 4.4415 2.3319
vt 0.9127 3.1093 2.3319
vt 1.0895 3.0753 2.3318
vt 1.3460 4.4075 2.3318
vt 0.9127 -1.2859 3.1093
vt 0.9126 -3.3847 3.1093
vt 1.0893 -3.3847 3.0753
vt 1.0895 -1.2859 3.0753
vt 0.0874 3.1093 -3.3847
vt -0.1691 4.4415 -3.3847
vt -0.3459 4.4075 -3.3847
vt -0.0893 3.0753 -3.3847
vt -0.1691 -3.3847 4.4415
vt -0.1693 -1.2859 4.4415
vt -0.3460 -1.2859 4.4075
vt -0.3459 -3.3847 4.4075
vt 1.1693 4.4415 -1.2859
vt 0.9127 3.1093 -1.2859
vt 1.0895 3.0753 -1.2859
vt 1.3460 4.4075 -1.2859
vt -0.1741 -1.2859 -2.5341
vt -0.1743 -3.3847 -2.5340
vt 0.0025 -3.3847 -2.5681
vt 0.0026 -1.2859 -2.5681
vt 1.1743 -2.5340 -3.3847
vt 0.9177 -1.2018 -3.3847
vt 0.7410 -1.2359 -3.3847
vt 0.9975 -2.5681 -3.3847
vt 0.9177 -3.3847 -1.2018
vt 0.9176 -1.2859 -1.2019
vt 0.7408 -1.2859 -1.2359
vt 0.7410 -3.3847 -1.2359
vt 0.0824 -1.2019 -1.2859
vt -0.1741 -2.5341 -1.2859
vt 0.0026 -2.5681 -1.2859
vt 0.2592 -1.2359 -1.2859
vt 0.8661 -1.9695 2.7512
vt 0.8659 -4.0683 2.7513
vt 1.0427 -4.0683 2.7172
vt 1.0428 -1.9695 2.7172
vt 0.1341 2.7513 -4.0683
vt -0.1225 4.0834 -4.0683
vt -0.2992 4.0494 -4.0683
vt -0.0427 2.7172 -4.0683
vt -0.1225 -4.0683 4.0834
vt -0.1226 -1.9695 4.0834
vt -0.2994 -1.9695 4.0494
vt -0.2992 -4.0683 4.0494
vt 1.1226 4.0834 -1.9695
vt 0.8661 2.7512 -1.9695
vt 1.0428 2.7172 -1.9695
vt 1.2994 4.0494 -1.9695
vt -0.2576 -1.9695 -3.0834
vt -0.2578 -4.0683 -3.0834
vt -0.0810 -4.0683 -3.1175
vt -0.0809 -1.9695 -3.1175
vt 1.2578 -3.0834 -4.0683
vt 1.0012 -1.7512 -4.0683
vt 0.8244 -1.7853 -4.0683
vt 1.0810 -3.1175 -4.0683
vt 1.0012 -4.0683 -1.7512
vt 1.0011 -1.9695 -1.7513
vt 0.8243 -1.9695 -1.7853
vt 0.8244 -4.0683 -1.7853
vt -0.0011 -1.7513 -1.9695
vt -0.2576 -3.0834 -1.9695
vt -0.0809 -3.1175 -1.9695
vt 0.1757 -1.7853 -1.9695
vt 0.3071 -1.9695 -0.1512
vt 0.3069 -4.0683 -0.1512
vt 0.4837 -4.0683 -0.1852
vt 0.4838 -1.9695 -0.1853
vt 0.6931 -0.1512 -4.0683
vt 0.4365 1.1810 -4.0683
vt 0.2597 1.1469 -4.0683
vt 0.5163 -0.1852 -4.0683
vt 0.4365 -4.0683 1.1810
vt 0.4363 -1.9695 1.1809
vt 0.2596 -1.9695 1.1469
vt 0.2597 -4.0683 1.1469
vt 0.5637 1.1809 -1.9695
vt 0.3071 -0.1512 -1.9695
vt 0.4838 -0.1853 -1.9695
vt 0.7404 1.1469 -1.9695
vt 0.8661 1.6482 2.7512
vt 0.8659 -0.4506 2.7513
vt 1.0427 -0.4506 2.7172
vt 1.0428 1.6482 2.7172
vt 0.1341 2.7513 -0.4506
vt -0.1225 4.0834 -0.4506
vt -0.2992 4.0494 -0.4506
vt -0.0427 2.7172 -0.4506
vt -0.1225 -0.4506 4.0834
vt -0.1226 1.6482 4.0834
vt -0.2994 1.6482 4.0494
vt -0.2992 -0.4506 4.0494
vt 1.1226 4.0834 1.6482
vt 0.8661 2.7512 1.6482
vt 1.0428 2.7172 1.6482
vt 1.2994 4.0494 1.6482
vt 0.8661 5.0683 2.7512
vt 0.8659 2.9695 2.7513
vt 1.0427 2.9695 2.7172
vt 1.0428 5.0683 2.7172
vt 0.1341 2.7513 2.9695
vt -0.1225 4.0834 2.9695
vt -0.2992 4.0494 2.9695
vt -0.0427 2.7172 2.9695
vt -0.1225 2.9695 4.0834
vt -0.1226 5.0683 4.0834
vt -0.2994 5.0683 4.0494
vt -0.2992 2.9695 4.0494
vt 1.1226 4.0834 5.0683
vt 0.8661 2.7512 5.0683
vt 1.0428 2.7172 5.0683
vt 1.2994 4.0494 5.0683
vt 0.3071 5.0683 -0.1512
vt 0.3069 2.9695 -0.1512
vt 0.4837 2.9695 -0.1852
vt 0.4838 5.0683 -0.1853
vt 0.6931 -0.1512 2.9695
vt 0.4365 1.1810 2.9695
vt 0.2597 1.1469 2.9695
vt 0.5163 -0.1852 2.9695
vt 0.4365 2.9695 1.1810
vt 0.4363 5.0683 1.1809
vt 0.2596 5.0683 1.1469
vt 0.2597 2.9695 1.1469
vt 0.5637 1.1809 5.0683
vt 0.3071 -0.1512 5.0683
vt 0.4838 -0.1853 5.0683
vt 0.7404 1.1469 5.0683
vt -0.2576 5.0683 -3.0834
vt -0.2578 2.9695 -3.0834
vt -0.0810 2.9695 -3.1175
vt -0.0809 5.0683 -3.1175
vt 1.2578 -3.0834 2.9695
vt 1.0012 -1.7512 2.9695
vt 0.8245 -1.7853 2.9695
vt 1.0810 -3.1175 2.9695
vt 1.0012 2.9695 -1.7512
vt 1.0011 5.0683 -1.7513
vt 0.8243 5.0683 -1.7853
vt 0.8245 2.9695 -1.7853
vt -0.0011 -1.7513 5.0683
vt -0.2576 -3.0834 5.0683
vt -0.0809 -3.1175 5.0683
vt 0.1757 -1.7853 5.0683
vt -0.2576 1.6482 -3.0834
vt -0.2578 -0.4506 -3.0834
vt -0.0810 -0.4506 -3.1175
vt -0.0809 1.6482 -3.1175
vt 1.2578 -3.0834 -0.4506
vt 1.0012 -1.7512 -0.4506
vt 0.8245 -1.7853 -0.4506
vt 1.0810 -3.1175 -0.4506
vt 1.0012 -0.4506 -1.7512
vt 1.0011 1.6482 -1.7513
vt 0.8243 1.6482 -1.7853
vt 0.8245 -0.4506 -1.7853
vt -0.0011 -1.7513 1.6482
vt -0.2576 -3.0834 1.6482
vt -0.0809 -3.1175 1.6482
vt 0.1757 -1.7853 1.6482
vt 0.3071 1.6482 -0.1512
vt 0.3069 -0.4506 -0.1512
vt 0.4837 -0.4506 -0.1852
vt 0.4838 1.6482 -0.1853
vt 0.6931 -0.1512 -0.4506
vt 0.4365 1.1810 -0.4506
vt 0.2597 1.1469 -0.4506
vt 0.5163 -0.1852 -0.4506
vt 0.4365 -0.4506 1.1810
vt 0.4363 1.6482 1.1809
vt 0.2596 1.6482 1.1469
vt 0.2597 -0.4506 1.1469
vt 0.5637 1.1809 1.6482
vt 0.3071 -0.1512 1.6482
vt 0.4838 -0.1853 1.6482
vt 0.7404 1.1469 1.6482
vt 0.7268 0.8892 1.3702
vt 0.7824 0.8892 1.3595
vt 0.5570 0.8892 -0.4029
vt 0.6126 0.8892 -0.3922
vt -1.1838 2.2755 0.0005
vt -0.7184 2.2701 0.6279
vt -1.1802 2.7384 0.9995
vt 0.5536 1.1615 1.4045
vt 2.1515 2.2376 0.6279
vt 2.6169 2.2324 0.0005
vt 2.6205 2.6953 0.9990
vt 0.7862 1.1615 -0.3597
vt 1.4395 2.8970 0.3224
vt -0.3230 2.8970 0.6618
vt -0.7219 1.8072 0.6226
vt 2.1480 1.7746 0.6226
vt 2.0780 4.3835 0.0005
vt -1.0757 4.4005 0.0005
vt -1.0759 4.1570 0.0005
vt 2.0778 4.1400 0.0005
vt -1.0782 3.3979 0.9995
vt 2.0787 3.3809 0.9995
vt 0.9354 -4.2027 3.2310
vt 0.9354 -4.7519 3.2310
vt 1.0336 -4.7519 3.2121
vt 1.0336 -4.2027 3.2121
vt 0.0646 3.2310 -4.7519
vt -0.1397 4.2919 -4.7519
vt -0.2379 4.2729 -4.7519
vt -0.0336 3.2121 -4.7519
vt -0.1397 -4.7519 4.2919
vt -0.1397 -4.2027 4.2919
vt -0.2379 -4.2027 4.2729
vt -0.2379 -4.7519 4.2729
vt 1.1397 4.2919 -4.2027
vt 0.9354 3.2310 -4.2027
vt 1.0336 3.2121 -4.2027
vt 1.2379 4.2729 -4.2027
vt -0.3460 -4.2027 -3.4226
vt -0.3460 -4.7519 -3.4226
vt -0.2478 -4.7519 -3.4415
vt -0.2478 -4.2027 -3.4415
vt 1.3460 -3.4226 -4.7519
vt 1.1417 -2.3618 -4.7519
vt 1.0435 -2.3807 -4.7519
vt 1.2478 -3.4415 -4.7519
vt 1.1417 -4.7519 -2.3618
vt 1.1417 -4.2027 -2.3618
vt 1.0435 -4.2027 -2.3807
vt 1.0435 -4.7519 -2.3807
vt -0.1417 -2.3618 -4.2027
vt -0.3460 -3.4226 -4.2027
vt -0.2478 -3.4415 -4.2027
vt -0.0435 -2.3807 -4.2027
vt -0.2142 0.7746 -2.9439
vt -0.2142 0.2254 -2.9439
vt -0.1160 0.2254 -2.9628
vt -0.1160 0.7746 -2.9629
vt 1.2142 -2.9439 0.2254
vt 1.0099 -1.8831 0.2254
vt 0.9117 -1.9020 0.2254
vt 1.1160 -2.9628 0.2254
vt 1.0099 0.2254 -1.8831
vt 1.0098 0.7746 -1.8831
vt 0.9117 0.7746 -1.9020
vt 0.9117 0.2254 -1.9020
vt -0.0098 -1.8831 0.7746
vt -0.2142 -2.9439 0.7746
vt -0.1160 -2.9629 0.7746
vt 0.0883 -1.9020 0.7746
vt 0.3488 0.7746 -0.0210
vt 0.3487 0.2254 -0.0210
vt 0.4469 0.2254 -0.0399
vt 0.4470 0.7746 -0.0399
vt 0.6513 -0.0210 0.2254
vt 0.4470 1.0399 0.2254
vt 0.3488 1.0210 0.2254
vt 0.5531 -0.0399 0.2254
vt 0.4470 0.2254 1.0399
vt 0.4469 0.7746 1.0399
vt 0.3487 0.7746 1.0209
vt 0.3488 0.2254 1.0210
vt 0.5531 1.0399 0.7746
vt 0.3488 -0.0210 0.7746
vt 0.4470 -0.0399 0.7746
vt 0.6513 1.0209 0.7746
vt 0.9117 0.7746 2.9020
vt 0.9116 0.2254 2.9020
vt 1.0098 0.2254 2.8831
vt 1.0099 0.7746 2.8831
vt 0.0884 2.9020 0.2254
vt -0.1160 3.9629 0.2254
vt -0.2141 3.9439 0.2254
vt -0.0098 2.8831 0.2254
vt -0.1160 0.2254 3.9629
vt -0.1160 0.7746 3.9628
vt -0.2142 0.7746 3.9439
vt -0.2141 0.2254 3.9439
vt 1.1160 3.9628 0.7746
vt 0.9117 2.9020 0.7746
vt 1.0099 2.8831 0.7746
vt 1.2142 3.9439 0.7746
vt 1.5221 -5.1087 0.3018
vt 1.5221 -5.6559 0.3018
vt 1.7779 -4.9243 0.2525
# 914 texture coords

g Suur_Karia_12
usemtl ribbon
s off
f 1/1/1 2/2/1 3/3/1 1/1/1 
f 4/4/2 1/1/2 3/3/2 5/5/2 
usemtl 06___Default
f 5/6/3 3/7/3 6/8/3 7/9/3 
usemtl ivory_plaster
f 8/10/4 9/11/4 10/12/4 11/13/4 
f 11/13/4 10/12/4 12/14/4 
usemtl 06___Default
f 7/15/5 6/16/5 13/17/5 
f 6/16/6 14/18/6 13/17/6 
f 8/19/7 11/20/7 13/17/7 
f 11/20/8 7/15/8 13/17/8 
usemtl ivory_plaster
f 9/11/4 8/10/4 15/21/4 16/22/4 
usemtl 06___Default
s 1
f 15/23/9 13/24/10 14/25/11 16/26/12 
usemtl ivory_plaster
s off
f 13/27/13 15/28/13 8/29/13 
f 2/30/14 6/31/14 3/32/14 
f 10/33/15 9/34/15 2/30/15 17/35/15 
f 18/36/15 10/33/15 17/35/15 
f 14/37/16 6/31/16 2/30/16 
f 14/37/17 9/34/17 16/38/17 
f 2/30/18 9/34/18 14/37/18 
f 12/39/19 19/40/19 20/41/19 21/42/19 
f 12/39/19 21/42/19 4/43/19 11/44/19 
f 5/45/20 7/46/20 4/43/20 
f 7/46/21 11/44/21 4/43/21 
usemtl 09___Default
s 4
f 22/47/22 23/48/22 24/49/22 25/50/22 
usemtl ivory_plaster
s 16
f 26/48/23 27/49/23 28/50/23 
usemtl 06___Default
s 32
f 29/47/24 30/48/24 31/49/24 32/50/24 
usemtl ivory_plaster
s 64
f 33/48/25 34/49/25 35/50/25 
usemtl blank
s off
f 26/50/26 33/48/26 30/48/26 29/47/26 
usemtl 08___Default
f 33/48/27 35/50/27 31/49/27 30/48/27 
f 36/50/28 37/49/28 38/50/28 39/49/28 
f 27/49/29 26/48/29 29/47/29 32/50/29 
f 35/50/30 27/49/30 37/49/30 36/50/30 
f 27/49/31 32/50/31 38/50/31 37/49/31 
usemtl 06___Default
f 32/50/32 31/49/32 39/49/32 38/50/32 
usemtl 08___Default
f 31/49/33 35/50/33 36/50/33 39/49/33 
usemtl ivory_plaster
f 34/47/22 28/48/22 40/48/22 41/47/22 
f 28/50/22 27/49/22 42/49/22 40/48/22 
f 27/49/22 35/50/22 43/50/22 42/49/22 
f 35/50/22 34/49/22 41/47/22 43/50/22 
usemtl white_plaster
f 41/47/34 40/48/34 23/48/34 22/47/34 
f 40/48/33 42/49/33 24/49/33 23/48/33 
f 42/49/35 43/50/35 25/50/35 24/49/35 
f 43/50/31 41/47/31 22/47/31 25/50/31 
usemtl 09___Default
s 4
f 44/47/36 45/48/36 46/49/36 47/50/36 
usemtl ivory_plaster
s 16
f 48/48/37 49/49/37 50/50/37 
usemtl 06___Default
s 32
f 51/47/38 52/48/38 53/49/38 54/50/38 
usemtl ivory_plaster
s 64
f 55/48/39 56/49/39 57/50/39 
usemtl blank
s off
f 48/50/40 55/48/40 52/48/40 51/47/40 
usemtl 08___Default
f 55/48/41 57/50/41 53/49/41 52/48/41 
f 58/50/42 59/49/42 60/50/42 61/49/42 
f 49/49/43 48/48/43 51/47/43 54/50/43 
f 57/50/44 49/49/44 59/49/44 58/50/44 
f 49/49/45 54/50/45 60/50/45 59/49/45 
usemtl 06___Default
f 54/50/46 53/49/46 61/49/46 60/50/46 
usemtl 08___Default
f 53/49/47 57/50/47 58/50/47 61/49/47 
usemtl ivory_plaster
f 56/47/36 50/48/36 62/48/36 63/47/36 
f 50/50/36 49/49/36 64/49/36 62/48/36 
f 49/49/36 57/50/36 65/50/36 64/49/36 
f 57/50/36 56/49/36 63/47/36 65/50/36 
usemtl white_plaster
f 63/47/48 62/48/48 45/48/48 44/47/48 
f 62/48/47 64/49/47 46/49/47 45/48/47 
f 64/49/49 65/50/49 47/50/49 46/49/49 
f 65/50/45 63/47/45 44/47/45 47/50/45 
usemtl 09___Default
s 4
f 66/47/36 67/48/36 68/49/36 69/50/36 
usemtl ivory_plaster
s 16
f 70/48/37 71/49/37 72/50/37 
usemtl 06___Default
s 32
f 73/47/38 74/48/38 75/49/38 76/50/38 
usemtl ivory_plaster
s 64
f 77/48/39 78/49/39 79/50/39 
usemtl blank
s off
f 70/50/40 77/48/40 74/48/40 73/47/40 
usemtl 08___Default
f 77/48/41 79/50/41 75/49/41 74/48/41 
f 80/50/42 81/49/42 82/50/42 83/49/42 
f 71/49/43 70/48/43 73/47/43 76/50/43 
f 79/50/44 71/49/44 81/49/44 80/50/44 
f 71/49/45 76/50/45 82/50/45 81/49/45 
usemtl 06___Default
f 76/50/46 75/49/46 83/49/46 82/50/46 
usemtl 08___Default
f 75/49/47 79/50/47 80/50/47 83/49/47 
usemtl ivory_plaster
f 78/47/36 72/48/36 84/48/36 85/47/36 
f 72/50/36 71/49/36 86/49/36 84/48/36 
f 71/49/36 79/50/36 87/50/36 86/49/36 
f 79/50/36 78/49/36 85/47/36 87/50/36 
usemtl white_plaster
f 85/47/48 84/48/48 67/48/48 66/47/48 
f 84/48/47 86/49/47 68/49/47 67/48/47 
f 86/49/49 87/50/49 69/50/49 68/49/49 
f 87/50/45 85/47/45 66/47/45 69/50/45 
usemtl window
s 1
f 88/51/36 89/52/36 90/53/36 91/54/36 
usemtl 09___Default
f 92/51/36 93/55/36 94/53/36 95/56/36 
f 96/51/36 97/55/36 98/53/36 99/56/36 
usemtl window
f 100/51/36 101/52/36 102/53/36 103/54/36 
f 104/51/36 105/52/36 106/53/36 107/54/36 
f 108/51/36 109/52/36 110/53/36 111/54/36 
usemtl white_plaster
s off
f 112/57/36 113/58/36 114/59/36 115/60/36 
f 113/58/36 116/61/36 117/62/36 114/59/36 
f 116/61/36 118/63/36 119/64/36 117/62/36 
f 118/63/36 112/57/36 115/60/36 119/64/36 
usemtl window
s 1
f 120/51/36 121/52/36 122/53/36 123/54/36 
f 124/51/36 125/52/36 126/53/36 127/54/36 
f 128/51/36 129/52/36 130/53/36 131/54/36 
usemtl outline_ribbon
s off
f 132/65/50 133/66/50 134/67/50 135/68/50 
f 136/69/36 137/70/36 138/71/36 139/72/36 
f 137/53/36 132/73/36 135/74/36 138/75/36 
usemtl window
s 1
f 140/51/36 141/52/36 142/53/36 143/54/36 
f 144/47/36 145/48/36 146/49/36 147/50/36 
usemtl white_plaster
s off
f 148/76/36 149/77/36 150/78/36 151/79/36 
f 149/77/36 152/80/36 153/81/36 150/78/36 
f 152/80/36 154/82/36 155/83/36 153/81/36 
f 154/82/36 148/76/36 151/79/36 155/83/36 
usemtl window
s 1
f 156/47/36 157/48/36 158/49/36 159/50/36 
usemtl white_plaster
s off
f 160/84/36 161/85/36 162/86/36 163/87/36 
f 161/85/36 164/88/36 165/89/36 162/86/36 
f 164/88/36 166/90/36 167/91/36 165/89/36 
f 166/90/36 160/84/36 163/87/36 167/91/36 
usemtl window
s 1
f 168/47/36 169/48/36 170/49/36 171/50/36 
usemtl white_plaster
s off
f 172/92/36 173/93/36 174/94/36 175/95/36 
f 173/93/36 176/96/36 177/97/36 174/94/36 
f 176/96/36 178/98/36 179/99/36 177/97/36 
f 178/98/36 172/92/36 175/95/36 179/99/36 
usemtl window
s 1
f 180/47/36 181/48/36 182/49/36 183/50/36 
usemtl white_plaster
s off
f 184/100/36 185/101/36 186/102/36 187/103/36 
f 185/101/36 188/104/36 189/105/36 186/102/36 
f 188/104/36 190/106/36 191/107/36 189/105/36 
f 190/106/36 184/100/36 187/103/36 191/107/36 
usemtl window
s 1
f 192/47/36 193/48/36 194/49/36 195/50/36 
usemtl white_plaster
s off
f 196/108/36 197/109/36 198/110/36 199/111/36 
f 197/109/36 200/112/36 201/113/36 198/110/36 
f 200/112/36 202/114/36 203/115/36 201/113/36 
f 202/114/36 196/108/36 199/111/36 203/115/36 
usemtl window
s 1
f 204/47/36 205/48/36 206/49/36 207/50/36 
usemtl white_plaster
s off
f 208/116/36 209/117/36 210/118/36 211/119/36 
f 209/117/36 212/120/36 213/121/36 210/118/36 
f 212/120/36 214/122/36 215/123/36 213/121/36 
f 214/122/36 208/116/36 211/119/36 215/123/36 
usemtl window
s 1
f 216/47/36 217/48/36 218/49/36 219/50/36 
usemtl white_plaster
s off
f 220/124/36 221/125/36 222/126/36 223/127/36 
f 221/125/36 224/128/36 225/129/36 222/126/36 
f 224/128/36 226/130/36 227/131/36 225/129/36 
f 226/130/36 220/124/36 223/127/36 227/131/36 
usemtl window
s 1
f 228/47/36 229/48/36 230/49/36 231/50/36 
usemtl white_plaster
s off
f 232/132/36 233/133/36 234/134/36 235/135/36 
f 233/133/36 236/136/36 237/137/36 234/134/36 
f 236/136/36 238/138/36 239/139/36 237/137/36 
f 238/138/36 232/132/36 235/135/36 239/139/36 
usemtl 09___Default
s 1
f 240/51/36 241/55/36 242/53/36 243/56/36 
usemtl window
f 244/47/36 245/48/36 246/49/36 247/50/36 
usemtl white_plaster
s off
f 248/140/36 249/141/36 250/142/36 251/143/36 
f 249/141/36 252/144/36 253/145/36 250/142/36 
f 252/144/36 254/146/36 255/147/36 253/145/36 
f 254/146/36 248/140/36 251/143/36 255/147/36 
usemtl 09___Default
s 1
f 256/51/36 257/55/36 258/53/36 259/56/36 
f 260/51/36 261/55/36 262/53/36 263/56/36 
usemtl white_plaster
s off
f 264/148/47 265/149/47 133/150/47 132/151/47 
f 266/152/33 267/153/33 137/154/33 136/155/33 
f 267/156/48 264/157/48 132/158/48 137/159/48 
usemtl portal
s 1
f 268/160/51 269/161/36 270/162/51 271/163/52 
f 270/162/51 272/164/53 271/163/52 
f 271/163/52 273/165/54 274/166/52 275/167/52 
f 274/166/52 276/168/52 275/167/52 
f 275/167/52 277/169/55 278/170/52 279/171/52 
f 278/170/52 280/172/56 279/171/52 
f 279/171/52 281/173/57 282/174/52 283/175/52 
f 282/174/52 284/176/58 283/175/52 
f 275/167/52 279/171/52 283/175/52 271/163/52 
f 268/160/51 271/163/52 283/175/52 285/177/59 
f 286/178/60 268/160/51 285/177/59 
usemtl stonewall
s off
f 287/179/36 288/180/36 289/181/36 290/182/36 
f 291/183/36 292/184/36 293/185/36 294/186/36 
usemtl portal
f 295/187/52 296/188/52 297/189/52 298/190/52 
f 296/188/52 299/191/52 300/192/52 297/189/52 
f 299/191/51 301/193/51 302/194/51 300/192/51 
f 301/193/51 303/195/51 304/196/51 302/194/51 
f 303/195/51 305/197/51 306/198/51 304/196/51 
f 305/197/51 307/199/51 308/200/51 306/198/51 
f 307/199/51 309/201/51 310/202/51 308/200/51 
f 309/201/51 311/203/51 312/204/51 310/202/51 
f 311/203/51 313/205/51 314/206/51 312/204/51 
f 313/205/51 315/207/51 316/208/51 314/206/51 
f 315/207/51 317/209/51 318/210/51 316/208/51 
f 317/209/51 319/211/51 320/212/51 318/210/51 
f 319/211/51 321/213/51 322/214/51 320/212/51 
f 321/213/51 323/215/51 324/216/51 322/214/51 
f 323/215/51 325/217/51 326/218/51 324/216/51 
f 325/217/51 327/219/51 328/220/51 326/218/51 
f 327/219/51 329/221/51 330/222/51 328/220/51 
f 329/221/51 290/223/51 289/224/51 330/222/51 
f 298/187/61 297/188/61 331/189/61 332/190/61 
f 297/188/62 300/191/62 333/192/62 331/189/62 
f 300/191/63 302/193/63 334/194/63 333/192/63 
f 302/193/64 304/195/64 335/196/64 334/194/64 
f 304/195/65 306/197/65 336/198/65 335/196/65 
f 306/197/66 308/199/66 337/200/66 336/198/66 
f 308/199/67 310/201/67 338/202/67 337/200/67 
f 310/201/68 312/203/68 339/204/68 338/202/68 
f 312/203/69 314/205/69 340/206/69 339/204/69 
f 314/205/70 316/207/70 341/208/70 340/206/70 
f 316/207/71 318/209/71 342/210/71 341/208/71 
f 318/209/72 320/211/72 343/212/72 342/210/72 
f 320/211/73 322/213/73 344/214/73 343/212/73 
f 322/213/74 324/215/74 345/216/74 344/214/74 
f 324/215/75 326/217/75 346/218/75 345/216/75 
f 326/217/76 328/219/76 347/220/76 346/218/76 
f 328/219/77 330/221/77 348/222/77 347/220/77 
f 330/221/78 289/223/78 349/224/78 348/222/78 
f 332/225/52 331/226/52 350/227/52 351/228/52 
f 331/226/52 333/229/52 352/230/52 350/227/52 
f 333/229/51 334/231/51 353/232/51 352/230/51 
f 334/231/51 335/233/51 354/234/51 353/232/51 
f 335/233/51 336/235/51 355/236/51 354/234/51 
f 336/235/51 337/237/51 356/238/51 355/236/51 
f 337/237/51 338/239/51 357/240/51 356/238/51 
f 338/239/51 339/241/51 358/242/51 357/240/51 
f 339/241/51 340/243/51 359/244/51 358/242/51 
f 340/243/51 341/245/51 360/246/51 359/244/51 
f 341/245/51 342/247/51 361/248/51 360/246/51 
f 342/247/51 343/249/51 362/250/51 361/248/51 
f 343/249/51 344/251/51 363/252/51 362/250/51 
f 344/251/51 345/253/51 364/254/51 363/252/51 
f 345/253/51 346/255/51 365/256/51 364/254/51 
f 346/255/51 347/257/51 366/258/51 365/256/51 
f 347/257/52 348/259/52 367/260/52 366/258/52 
f 348/259/52 349/261/52 368/262/52 367/260/52 
f 351/225/79 350/226/79 369/227/79 370/228/79 
f 350/226/62 352/229/62 371/230/62 369/227/62 
f 352/229/63 353/231/63 372/232/63 371/230/63 
f 353/231/64 354/233/64 373/234/64 372/232/64 
f 354/233/65 355/235/65 374/236/65 373/234/65 
f 355/235/66 356/237/66 375/238/66 374/236/66 
f 356/237/67 357/239/67 376/240/67 375/238/67 
f 357/239/68 358/241/68 377/242/68 376/240/68 
f 358/241/69 359/243/69 378/244/69 377/242/69 
f 359/243/70 360/245/70 379/246/70 378/244/70 
f 360/245/71 361/247/71 380/248/71 379/246/71 
f 361/247/72 362/249/72 381/250/72 380/248/72 
f 362/249/73 363/251/73 382/252/73 381/250/73 
f 363/251/74 364/253/74 383/254/74 382/252/74 
f 364/253/75 365/255/75 384/256/75 383/254/75 
f 365/255/76 366/257/76 385/258/76 384/256/76 
f 366/257/77 367/259/77 386/260/77 385/258/77 
f 367/259/80 368/261/80 387/262/80 386/260/80 
f 370/225/52 369/226/52 388/227/52 389/228/52 
f 369/226/52 371/229/52 390/230/52 388/227/52 
f 371/229/52 372/231/52 391/232/52 390/230/52 
f 372/231/51 373/233/51 392/234/51 391/232/51 
f 373/233/51 374/235/51 393/236/51 392/234/51 
f 374/235/51 375/237/51 394/238/51 393/236/51 
f 375/237/51 376/239/51 395/240/51 394/238/51 
f 376/239/81 377/241/81 396/242/81 395/240/81 
f 377/263/81 378/264/81 396/265/81 
f 378/264/51 379/266/51 396/265/51 
f 379/245/51 380/247/51 397/248/51 396/246/51 
f 380/247/51 381/249/51 398/250/51 397/248/51 
f 381/249/51 382/251/51 399/252/51 398/250/51 
f 382/251/51 383/253/51 400/254/51 399/252/51 
f 383/253/51 384/255/51 401/256/51 400/254/51 
f 384/255/52 385/257/52 402/258/52 401/256/52 
f 385/257/52 386/259/52 403/260/52 402/258/52 
f 386/259/52 387/261/52 404/262/52 403/260/52 
f 389/225/82 388/226/82 405/227/82 406/228/82 
f 388/226/62 390/229/62 407/230/62 405/227/62 
f 390/229/63 391/231/63 408/232/63 407/230/63 
f 391/231/64 392/233/64 409/234/64 408/232/64 
f 392/233/65 393/235/65 410/236/65 409/234/65 
f 393/235/66 394/237/66 411/238/66 410/236/66 
f 394/237/67 395/239/67 412/240/67 411/238/67 
f 395/239/83 396/241/83 413/242/83 412/240/83 
f 396/245/84 397/247/84 414/248/84 413/246/84 
f 397/247/72 398/249/72 415/250/72 414/248/72 
f 398/249/73 399/251/73 416/252/73 415/250/73 
f 399/251/74 400/253/74 417/254/74 416/252/74 
f 400/253/75 401/255/75 418/256/75 417/254/75 
f 401/255/76 402/257/76 419/258/76 418/256/76 
f 402/257/77 403/259/77 420/260/77 419/258/77 
f 403/259/85 404/261/85 421/262/85 420/260/85 
f 406/225/52 405/226/52 422/227/52 423/228/52 
f 405/226/52 407/229/52 424/230/52 422/227/52 
f 407/229/52 408/231/52 425/232/52 424/230/52 
f 408/231/51 409/233/51 426/234/51 425/232/51 
f 409/233/51 410/235/51 427/236/51 426/234/51 
f 410/235/86 411/237/86 428/238/86 427/236/86 
f 411/237/86 412/239/86 429/240/86 428/238/86 
f 412/239/81 413/241/81 430/242/81 429/240/81 
f 413/245/57 414/247/57 431/248/57 430/246/57 
f 414/247/51 415/249/51 432/250/51 431/248/51 
f 415/249/51 416/251/51 433/252/51 432/250/51 
f 416/251/51 417/253/51 434/254/51 433/252/51 
f 417/253/51 418/255/51 435/256/51 434/254/51 
f 418/255/52 419/257/52 436/258/52 435/256/52 
f 419/257/52 420/259/52 437/260/52 436/258/52 
f 420/259/52 421/261/52 438/262/52 437/260/52 
f 439/267/45 268/267/45 286/50/45 438/50/45 
f 440/268/31 441/268/31 442/48/31 443/48/31 
f 423/49/87 422/269/87 272/269/87 270/49/87 
f 422/269/62 424/270/62 271/270/62 272/269/62 
f 424/270/63 425/271/63 273/271/63 271/270/63 
f 425/271/64 426/272/64 274/272/64 273/271/64 
f 426/272/65 427/273/65 276/273/65 274/272/65 
f 427/273/66 428/274/66 275/274/66 276/273/66 
f 428/274/67 429/275/67 277/275/67 275/274/67 
f 429/275/88 430/276/88 278/276/88 277/275/88 
f 430/276/89 431/277/89 280/277/89 278/276/89 
f 431/277/72 432/278/72 279/278/72 280/277/72 
f 432/278/73 433/279/73 281/279/73 279/278/73 
f 433/279/74 434/280/74 282/280/74 281/279/74 
f 434/280/75 435/281/75 284/281/75 282/280/75 
f 435/281/76 436/282/76 283/282/76 284/281/76 
f 436/282/77 437/283/77 285/283/77 283/282/77 
f 437/283/90 438/50/90 286/50/90 285/283/90 
s 1
f 444/284/36 442/285/36 441/286/36 445/287/36 
usemtl stonewall
s off
f 446/288/50 447/289/50 448/290/50 449/291/50 
usemtl portal
f 450/47/33 444/47/33 445/292/33 451/292/33 
f 452/293/36 453/294/36 292/295/36 291/296/36 
f 453/297/47 454/298/47 455/299/47 292/300/47 
f 454/297/36 456/298/36 457/299/36 455/300/36 
f 456/297/31 458/298/31 459/299/31 457/300/31 
f 458/297/36 460/298/36 461/299/36 459/300/36 
f 460/297/31 462/298/31 463/299/31 461/300/31 
f 462/297/36 464/298/36 440/299/36 463/300/36 
f 464/301/47 269/301/47 441/268/47 440/268/47 
s 1
f 445/287/36 441/286/36 269/161/36 268/160/51 
s off
f 449/302/36 448/303/36 288/304/36 287/305/36 
f 448/306/45 465/307/45 466/308/45 288/309/45 
f 465/306/36 467/307/36 468/308/36 466/309/36 
f 467/306/33 469/307/33 470/308/33 468/309/33 
f 469/306/36 471/307/36 472/308/36 470/309/36 
f 471/306/45 473/307/45 474/308/45 472/309/45 
f 473/306/36 451/307/36 439/308/36 474/309/36 
f 451/292/33 445/292/33 268/267/33 439/267/33 
usemtl stonewall
f 452/310/36 295/311/36 298/312/36 453/313/36 
usemtl portal
f 423/49/31 270/49/31 269/301/31 464/301/31 
usemtl stonewall
s 1
f 451/314/91 471/315/91 475/316/91 450/317/91 
s 2
f 471/315/92 467/318/92 476/319/92 475/316/92 
s 1
f 467/318/93 448/320/93 447/321/93 476/319/93 
f 443/322/94 477/323/94 461/324/94 440/325/94 
s 2
f 477/326/95 478/327/95 457/328/95 461/329/95 
s 1
f 478/327/96 293/185/96 292/184/96 457/328/96 
s off
f 463/330/97 440/331/97 461/332/97 
f 457/333/98 459/334/98 461/332/98 
f 292/335/99 455/336/99 457/333/99 
f 467/337/100 465/338/100 448/339/100 
f 471/340/101 469/341/101 467/337/101 
f 451/342/102 473/343/102 471/340/102 
s 1
f 423/344/103 464/345/103 460/346/103 389/347/103 
s 2
f 389/348/104 460/349/104 456/350/104 351/351/104 
s 1
f 351/351/96 456/350/96 453/313/96 298/312/96 
f 368/352/93 289/353/93 288/354/93 468/355/93 
f 438/356/91 404/357/91 472/358/91 439/359/91 
s 2
f 404/357/92 368/352/92 468/355/92 472/358/92 
s off
f 368/360/105 349/361/105 289/362/105 
f 404/363/106 387/364/106 368/360/106 
f 438/365/107 421/366/107 404/363/107 
f 288/367/108 466/368/108 468/369/108 
f 468/369/109 470/370/109 472/371/109 
f 472/371/110 474/372/110 439/373/110 
f 389/374/111 406/375/111 423/376/111 
f 351/377/112 370/378/112 389/374/112 
f 298/379/113 332/380/113 351/377/113 
f 464/381/114 462/382/114 460/383/114 
f 460/383/115 458/384/115 456/385/115 
f 456/385/116 454/386/116 453/387/116 
usemtl ivory_plaster
f 479/388/117 480/389/117 17/390/117 
f 481/391/118 482/392/118 483/393/118 
s 2
f 484/394/119 485/395/119 486/396/119 487/397/119 
f 488/398/119 489/399/119 490/400/119 491/401/119 
s 4
f 485/395/36 118/402/36 116/403/36 492/404/36 
f 112/405/36 490/400/36 493/406/36 113/407/36 
f 266/408/36 484/394/36 494/409/36 267/410/36 
f 491/401/36 265/411/36 264/412/36 495/413/36 
usemtl 11___Default
s off
f 447/414/120 293/415/120 478/416/120 475/417/120 
f 443/418/121 442/419/121 444/420/121 477/421/121 
f 478/416/122 477/421/122 444/420/122 450/422/122 
f 478/416/123 450/422/123 475/417/123 
f 447/414/124 475/417/124 476/423/124 
usemtl step
f 293/53/51 447/73/51 496/424/51 497/425/51 
f 498/53/51 499/73/51 500/51/51 501/426/51 
usemtl 11___Default
f 497/427/125 496/428/125 499/429/125 498/430/125 
usemtl step
f 496/431/31 502/432/31 500/433/31 499/434/31 
f 503/426/45 497/53/45 498/73/45 501/51/45 
usemtl ivory_plaster
f 294/435/126 504/436/126 505/437/126 
usemtl 11___Default
f 446/438/127 506/439/127 502/440/127 447/441/127 
f 496/442/51 447/441/51 502/440/51 
usemtl ivory_plaster
f 505/437/128 504/436/128 18/443/128 507/444/128 
f 18/443/36 508/445/36 507/444/36 
f 505/437/129 509/446/129 294/435/129 
f 509/446/129 291/447/129 294/435/129 
f 510/448/130 446/438/130 511/449/130 
f 511/449/130 446/438/130 449/450/130 
f 512/451/36 513/452/36 514/453/36 
f 514/453/36 483/393/36 512/451/36 
f 511/449/131 515/454/131 514/453/131 
f 511/449/131 516/455/131 515/454/131 
f 511/449/132 449/450/132 516/455/132 
f 481/391/133 483/393/133 514/453/133 515/454/133 
f 509/446/134 517/456/134 291/447/134 
f 508/445/131 518/457/131 517/456/131 509/446/131 
f 508/445/135 18/443/135 518/457/135 
f 518/457/136 17/390/136 480/389/136 
f 518/457/136 18/443/136 17/390/136 
f 517/456/137 452/458/137 291/447/137 
f 287/459/138 516/455/138 449/450/138 
f 287/459/138 290/460/138 516/455/138 
f 295/461/137 452/458/137 517/456/137 
f 517/456/139 296/462/139 295/461/139 
f 329/463/140 516/455/140 290/460/140 
f 329/463/138 519/464/138 516/455/138 
f 517/456/141 520/465/141 296/462/141 
f 520/465/142 305/466/142 303/467/142 301/468/142 
f 520/465/143 301/468/143 299/469/143 296/462/143 
f 323/470/132 321/471/132 519/464/132 325/472/132 
f 327/473/144 325/472/144 519/464/144 329/463/144 
f 113/407/145 321/471/145 319/474/145 317/475/145 
f 113/407/146 317/475/146 315/476/146 313/477/146 
f 307/478/147 305/466/147 116/403/147 309/479/147 
f 311/480/148 309/479/148 116/403/148 313/477/148 
f 116/403/149 113/407/149 313/477/149 
f 116/403/150 305/466/150 520/465/150 492/404/150 
f 480/389/119 479/388/119 492/404/119 520/465/119 
f 113/407/151 493/406/151 519/464/151 321/471/151 
f 482/392/119 481/391/119 519/464/119 493/406/119 
f 486/396/152 479/388/152 17/390/152 
f 17/390/153 487/397/153 486/396/153 
f 489/399/154 483/393/154 482/392/154 
f 489/399/155 488/398/155 483/393/155 
f 521/481/36 483/393/36 488/398/36 1/482/36 
f 2/483/36 487/397/36 17/390/36 
f 487/397/36 2/483/36 522/484/36 
f 488/398/36 523/485/36 1/482/36 
f 495/413/36 264/412/36 1/482/36 
f 267/410/36 494/409/36 2/483/36 
f 494/409/36 522/484/36 2/483/36 
f 264/412/36 267/410/36 2/483/36 1/482/36 
f 523/485/36 495/413/36 1/482/36 1/482/36 
usemtl red_plaster
s 1
f 173/486/156 160/487/156 166/488/156 176/489/156 
f 161/490/156 148/491/156 154/492/156 164/493/156 
s 2
f 524/494/157 152/495/157 149/496/157 525/497/157 
f 526/498/157 252/499/157 249/500/157 527/501/157 
f 528/502/157 236/503/157 233/504/157 529/505/157 
s 1
f 238/506/156 212/507/156 209/508/156 232/509/156 
f 214/510/156 200/511/156 197/512/156 208/513/156 
f 226/514/156 188/515/156 185/516/156 220/517/156 
f 254/518/156 224/519/156 221/520/156 248/521/156 
s off
f 200/511/36 185/516/36 184/522/36 202/523/36 
f 172/524/36 190/525/36 188/515/36 173/486/36 
f 224/519/36 161/490/36 160/487/36 226/514/36 
f 188/515/156 226/514/156 160/487/156 173/486/156 
f 185/516/156 200/511/156 214/510/156 220/517/156 
f 220/517/36 214/510/36 212/507/36 221/520/36 
f 221/520/156 212/507/156 238/506/156 248/521/156 
f 161/490/156 224/519/156 254/518/156 148/491/156 
f 252/499/36 149/496/36 148/491/36 254/518/36 
f 236/503/36 249/500/36 248/521/36 238/506/36 
f 525/497/36 526/498/36 530/526/36 531/527/36 
f 252/499/157 526/498/157 525/497/157 149/496/157 
f 527/501/36 528/502/36 532/528/36 533/529/36 
f 236/503/157 528/502/157 527/501/157 249/500/157 
f 512/530/36 534/531/36 531/527/36 530/526/36 
f 512/530/36 530/526/36 533/529/36 532/528/36 
f 512/530/36 532/528/36 535/532/36 19/533/36 
f 152/495/158 524/494/158 534/531/158 512/530/158 
f 535/532/159 529/505/159 233/504/159 19/533/159 
f 232/509/160 209/508/160 20/534/160 
f 154/492/161 483/535/161 164/493/161 
f 166/488/162 521/536/162 176/489/162 
f 197/512/163 21/537/163 208/513/163 
f 172/524/36 178/538/36 1/539/36 190/525/36 
f 184/522/36 190/525/36 1/539/36 202/523/36 
f 202/523/36 1/539/36 4/540/36 196/541/36 
f 521/536/36 1/539/36 178/538/36 176/489/36 
f 164/493/152 483/535/152 521/536/152 166/488/152 
f 152/495/164 512/530/164 483/535/164 154/492/164 
f 20/534/127 19/533/127 233/504/127 232/509/127 
f 209/508/154 208/513/154 21/537/154 20/534/154 
f 196/541/36 4/540/36 21/537/36 197/512/36 
usemtl white_plaster
f 135/542/33 134/543/33 128/544/33 131/545/33 
f 139/546/47 138/547/47 130/548/47 129/549/47 
f 138/550/49 135/551/49 131/552/49 130/553/49 
f 494/554/33 484/555/33 124/556/33 127/557/33 
f 484/558/48 487/559/48 125/560/48 124/561/48 
f 487/562/47 522/563/47 126/564/47 125/565/47 
f 522/566/49 494/567/49 127/568/49 126/569/49 
f 523/570/45 488/571/45 140/572/45 143/573/45 
f 488/574/48 491/575/48 141/576/48 140/577/48 
f 491/578/47 495/579/47 142/580/47 141/581/47 
f 495/582/49 523/583/49 143/584/49 142/585/49 
f 489/586/45 482/587/45 104/588/45 107/589/45 
f 482/590/48 493/591/48 105/592/48 104/593/48 
f 493/594/47 490/595/47 106/596/47 105/597/47 
f 490/598/49 489/599/49 107/600/49 106/601/49 
f 115/602/45 114/603/45 108/604/45 111/605/45 
f 114/606/48 117/607/48 109/608/48 108/609/48 
f 117/610/47 119/611/47 110/612/47 109/613/47 
f 119/614/49 115/615/49 111/616/49 110/617/49 
f 485/618/33 492/619/33 120/620/33 123/621/33 
f 492/622/48 479/623/48 121/624/48 120/625/48 
f 479/626/47 486/627/47 122/628/47 121/629/47 
f 486/630/49 485/631/49 123/632/49 122/633/49 
f 520/634/45 517/635/45 88/636/45 91/637/45 
f 517/638/48 518/639/48 89/640/48 88/641/48 
f 518/642/47 480/643/47 90/644/47 89/645/47 
f 480/646/49 520/647/49 91/648/49 90/649/49 
f 481/650/45 515/651/45 100/652/45 103/653/45 
f 515/654/48 516/655/48 101/656/48 100/657/48 
f 516/658/47 519/659/47 102/660/47 101/661/47 
f 519/662/49 481/663/49 103/664/49 102/665/49 
f 151/666/45 150/667/45 144/668/45 147/669/45 
f 150/670/48 153/671/48 145/672/48 144/673/48 
f 153/674/47 155/675/47 146/676/47 145/677/47 
f 155/678/49 151/679/49 147/680/49 146/681/49 
f 235/682/33 234/683/33 228/684/33 231/685/33 
f 234/686/48 237/687/48 229/688/48 228/689/48 
f 237/690/47 239/691/47 230/692/47 229/693/47 
f 239/694/49 235/695/49 231/696/49 230/697/49 
f 251/698/45 250/699/45 244/700/45 247/701/45 
f 250/702/48 253/703/48 245/704/48 244/705/48 
f 253/706/47 255/707/47 246/708/47 245/709/47 
f 255/710/49 251/711/49 247/712/49 246/713/49 
f 163/714/45 162/715/45 156/716/45 159/717/45 
f 162/718/48 165/719/48 157/720/48 156/721/48 
f 165/722/47 167/723/47 158/724/47 157/725/47 
f 167/726/49 163/727/49 159/728/49 158/729/49 
f 175/730/45 174/731/45 168/732/45 171/733/45 
f 174/734/48 177/735/48 169/736/48 168/737/48 
f 177/738/47 179/739/47 170/740/47 169/741/47 
f 179/742/49 175/743/49 171/744/49 170/745/49 
f 187/746/45 186/747/45 180/748/45 183/749/45 
f 186/750/48 189/751/48 181/752/48 180/753/48 
f 189/754/47 191/755/47 182/756/47 181/757/47 
f 191/758/49 187/759/49 183/760/49 182/761/49 
f 199/762/45 198/763/45 192/764/45 195/765/45 
f 198/766/48 201/767/48 193/768/48 192/769/48 
f 201/770/47 203/771/47 194/772/47 193/773/47 
f 203/774/49 199/775/49 195/776/49 194/777/49 
f 211/778/45 210/779/45 204/780/45 207/781/45 
f 210/782/48 213/783/48 205/784/48 204/785/48 
f 213/786/47 215/787/47 206/788/47 205/789/47 
f 215/790/49 211/791/49 207/792/49 206/793/49 
f 223/794/45 222/795/45 216/796/45 219/797/45 
f 222/798/48 225/799/48 217/800/48 216/801/48 
f 225/802/47 227/803/47 218/804/47 217/805/47 
f 227/806/49 223/807/49 219/808/49 218/809/49 
f 266/152/165 136/155/165 536/810/165 537/811/165 
f 133/150/166 265/149/166 538/812/166 539/813/166 
usemtl 07___Default
f 136/814/167 139/815/167 540/816/167 
usemtl white_plaster
f 536/810/165 136/155/165 540/817/165 
usemtl 07___Default
f 134/818/168 133/819/168 541/820/168 
usemtl white_plaster
f 133/150/169 539/813/169 541/821/169 
usemtl ivory_plaster
f 118/402/119 485/395/119 484/394/119 266/408/119 
f 537/822/170 118/402/170 266/408/170 
f 538/823/171 265/411/171 491/401/171 490/400/171 
f 112/405/172 538/823/172 490/400/172 
usemtl 07___Default
f 139/815/173 129/824/173 128/825/173 540/816/173 
f 540/816/174 128/825/174 134/818/174 541/820/174 
usemtl ivory_plaster
f 118/402/175 537/822/175 538/823/175 112/405/175 
usemtl ribbon
s 1
f 538/826/49 537/827/49 536/828/49 539/829/49 
s 2
f 539/829/176 536/828/176 540/830/176 541/831/176 
usemtl white_plaster
s off
f 509/832/33 505/833/33 92/834/33 95/835/33 
f 505/836/48 507/837/48 93/838/48 92/839/48 
f 507/840/47 508/841/47 94/842/47 93/843/47 
f 508/844/49 509/845/49 95/846/49 94/847/49 
f 514/848/45 513/849/45 96/850/45 99/851/45 
f 513/852/48 510/853/48 97/854/48 96/855/48 
f 510/856/47 511/857/47 98/858/47 97/859/47 
f 511/860/49 514/861/49 99/862/49 98/863/49 
f 529/864/45 535/865/45 240/866/45 243/867/45 
f 535/868/48 532/869/48 241/870/48 240/871/48 
f 532/872/47 528/873/47 242/874/47 241/875/47 
f 528/876/49 529/877/49 243/878/49 242/879/49 
f 527/880/45 533/881/45 256/882/45 259/883/45 
f 533/884/48 530/885/48 257/886/48 256/887/48 
f 530/888/47 526/889/47 258/890/47 257/891/47 
f 526/892/49 527/893/49 259/894/49 258/895/49 
f 525/896/45 531/897/45 260/898/45 263/899/45 
f 531/900/48 534/901/48 261/902/48 260/903/48 
f 534/904/47 524/905/47 262/906/47 261/907/47 
f 524/908/49 525/909/49 263/910/49 262/911/49 
usemtl 11___Default
f 497/912/136 503/913/136 504/436/136 293/914/136 
f 294/435/177 293/914/177 504/436/177 
usemtl ivory_plaster
f 446/438/178 510/448/178 506/439/178 
f 510/448/179 513/452/179 512/451/179 506/439/179 
# 479 polygons - 95 triangles

