# This file uses centimeters as units for non-parametric coordinates.

mtllib valli1a-origo.mtl
g default
v  542545.614258 6588906.88145 11.686766
v  542547.083954 6588906.6232 11.700029
v  542545.629944 6588906.84677 9.258882
v  542547.099579 6588906.58849 9.272141
v  542544.314117 6588908.03838 11.706749
v  542544.329742 6588908.00389 9.267269
v  542543.867859 6588909.51538 11.693036
v  542543.883301 6588909.48076 9.243328
v  542544.881775 6588910.59119 11.684372
v  542544.897888 6588910.55647 9.234656
v  542548.117798 6588907.72365 11.746252
v  542548.133911 6588907.68855 9.296537
v  542545.521454 6588906.68883 11.688890
v  542547.145752 6588906.43764 11.703059
v  542545.519806 6588906.69167 11.879229
v  542547.144867 6588906.43979 11.862213
v  542544.133789 6588907.92331 11.707214
v  542544.132721 6588907.92586 11.889125
v  542543.680359 6588909.55959 11.691212
v  542543.679352 6588909.56236 11.878647
v  542544.720093 6588910.74355 11.681159
v  542544.719147 6588910.74634 11.868602
v  542548.279602 6588907.57132 11.749477
v  542548.279114 6588907.57317 11.876217
v  542545.478394 6588906.6039 11.880022
v  542547.172455 6588906.35426 11.863297
v  542545.479279 6588906.60533 12.029541
v  542547.171997 6588906.3558 12.012793
v  542544.050446 6588907.87457 11.889499
v  542544.087036 6588907.84468 12.028996
v  542543.592865 6588909.58212 11.878010
v  542543.591522 6588909.5838 12.027510
v  542544.64328 6588910.8129 11.867357
v  542544.689941 6588910.86287 12.023781
v  542548.350555 6588907.50174 11.877563
v  542548.348206 6588907.50304 12.027067
v  542545.013275 6588905.88472 11.909500
v  542547.384827 6588905.43248 11.934308
v  542543.411011 6588907.37175 11.972868
v  542542.70874 6588909.67622 11.957439
v  542544.21875 6588911.31837 11.946815
v  542549.039734 6588907.0843 11.885126
v  542546.572815 6588909.26446 12.797762
v  542543.064636 6588908.54811 11.972123
v  542546.538361 6588909.26843 12.790294
v  542546.466492 6588909.20081 12.770025
v  542543.092163 6588908.45461 11.972185
v  542543.823975 6588908.71878 12.033345
v  542543.843201 6588908.64664 12.033834
v  542542.725464 6588909.62332 11.958128
v  542546.325012 6588909.22427 12.740124
v  542542.723541 6588909.62933 11.958059
v  542543.606049 6588909.53024 12.027876
v  542543.547607 6588910.58874 11.951534
v  542546.519623 6588909.31085 12.778539
v  542543.516449 6588910.55472 11.951758
v  542546.487885 6588909.27391 12.779323
v  542544.18399 6588910.27835 12.021507
v  542544.149597 6588910.23752 12.021865
v  542546.534729 6588909.18213 12.777454
v  542543.451721 6588907.33226 11.972372
v  542544.138428 6588907.79881 12.028648
v  542545.106018 6588905.8694 11.910423
v  542546.587158 6588909.1981 12.782811
v  542545.554932 6588906.59427 12.028780
v  542544.169189 6588906.63644 11.943637
v  542546.489655 6588909.15506 12.765676
v  542546.468475 6588909.03676 12.739878
v  542544.23349 6588906.57376 11.941065
v  542544.750671 6588907.254 12.029056
v  542544.809021 6588907.20201 12.029096
v  542546.157715 6588905.63603 11.921908
v  542546.536957 6588909.08366 12.753355
v  542546.601929 6588909.12715 12.766815
v  542546.228333 6588905.62425 11.922623
v  542546.276917 6588906.48782 12.021638
v  542546.35321 6588906.47646 12.020891
v  542548.896484 6588906.94141 11.889375
v  542548.947662 6588906.99208 11.887863
v  542547.306 6588905.44553 11.933521
v  542546.57962 6588908.91486 12.715670
v  542547.090881 6588906.36783 12.013597
v  542548.208649 6588906.25487 11.909828
v  542546.607483 6588909.10159 12.761027
v  542546.664429 6588909.06795 12.743063
v  542548.262024 6588906.3082 11.908229
v  542547.803345 6588906.97183 12.020446
v  542547.851746 6588907.01903 12.021038
v  542546.397247 6588909.36372 12.744396
v  542544.164368 6588911.25922 11.947196
v  542544.628357 6588910.79334 12.020773
v  542548.311401 6588907.46718 12.026613
v  542547.144867 6588906.43979 11.862213
v  542548.279114 6588907.57317 11.876217
v  542545.519806 6588906.69167 11.879229
v  542544.132721 6588907.92586 11.889125
v  542543.679352 6588909.56236 11.878647
v  542544.719147 6588910.74634 11.868602
v  542548.921265 6588906.94615 12.142849
v  542548.932465 6588906.95819 12.141952
v  542548.835449 6588907.01332 11.970984
v  542548.846649 6588907.02535 11.970086
v  542548.675323 6588907.16321 11.979161
v  542548.686523 6588907.17525 11.978264
v  542548.852478 6588906.99196 11.897523
v  542548.863678 6588907.00398 11.896625
v  542548.283386 6588906.27905 12.162885
v  542548.296417 6588906.28905 12.161838
v  542548.211517 6588906.35445 11.988069
v  542548.224548 6588906.36444 11.987021
v  542548.078033 6588906.52867 11.989945
v  542548.091064 6588906.53867 11.988898
v  542548.225586 6588906.32852 11.915453
v  542548.238617 6588906.33852 11.914406
v  542547.372284 6588905.39677 12.181637
v  542547.388245 6588905.4008 12.181309
v  542547.346313 6588905.485 12.000110
v  542547.362274 6588905.48903 11.999783
v  542547.29248 6588905.69743 11.987650
v  542547.308441 6588905.70146 11.987322
v  542547.35321 6588905.45187 11.929419
v  542547.369171 6588905.4559 11.929091
v  542546.177582 6588905.58243 12.177280
v  542546.194 6588905.58156 12.177930
v  542546.189941 6588905.68311 12.000861
v  542546.20639 6588905.68222 12.001511
v  542546.201752 6588905.90227 11.999772
v  542546.21817 6588905.9014 12.000422
v  542546.191193 6588905.65288 11.928555
v  542546.207611 6588905.65201 11.929204
v  542545.035309 6588905.83684 12.161894
v  542545.049988 6588905.82936 12.161706
v  542545.076172 6588905.92154 11.981429
v  542545.09082 6588905.91406 11.981242
v  542545.175598 6588906.11696 11.971530
v  542545.190277 6588906.10948 11.971342
v  542545.060455 6588905.89252 11.910338
v  542545.075134 6588905.88504 11.910151
v  542544.160858 6588906.59164 12.202046
v  542544.173218 6588906.58076 12.201986
v  542544.227173 6588906.66788 12.025404
v  542544.239532 6588906.65698 12.025344
v  542544.372314 6588906.83253 12.024126
v  542544.384674 6588906.82165 12.024066
v  542544.207031 6588906.64542 11.953068
v  542544.219391 6588906.63452 11.953008
v  542543.382507 6588907.34859 12.221280
v  542543.391541 6588907.33482 12.220945
v  542543.463348 6588907.40611 12.043617
v  542543.472412 6588907.39235 12.043283
v  542543.646667 6588907.52681 12.040024
v  542543.655701 6588907.51305 12.039689
v  542543.436707 6588907.39034 11.971618
v  542543.44577 6588907.37657 11.971283
vt 4.560735 0.927311
vt 4.028407 0.927311
vt 4.007059 0.004574
vt 4.560735 0.000008
vt 3.558030 0.931475
vt 3.558030 0.000000
vt 3.025136 0.012535
vt 3.025136 0.931475
vt 2.025158 0.940143
vt 2.003157 0.012227
vt 2.562875 0.000000
vt 2.562882 0.940143
vt 0.940753 0.928921
vt 0.940762 0.000000
vt 0.002473 0.000002
vt 0.002487 0.928922
vt 0.000000 0.000000
vt 1.000000 0.000000
vt 1.000000 1.000000
vt 0.986008 2.006709
vt 0.986008 2.936991
vt 0.000016 2.936991
vt 0.000016 2.006709
vt 0.000000 0.000000
vt 1.000000 0.000000
vt 0.000000 0.000000
vt 1.000000 0.000000
vt 0.000000 0.000000
vt 1.000000 0.000000
vt 0.000000 0.000000
vt 0.000000 0.000000
vt 1.000000 0.000000
vt 0.000000 1.000000
vt 1.000000 1.000000
vt 1.000000 0.000000
vt 0.000000 0.000000
vt 0.000000 1.000000
vt 1.000000 1.000000
vt 1.000000 0.000000
vt 0.000000 0.000000
vt 0.000000 1.000000
vt 1.000000 1.000000
vt 1.000000 0.000000
vt 0.000000 0.000000
vt 0.000000 1.000000
vt 1.000000 0.000000
vt 1.000000 1.000000
vt 0.000000 0.000000
vt 0.000000 0.000000
vt 1.000000 1.000000
vt 1.000000 0.000000
vt 0.000000 1.000000
vt 0.000000 1.000000
vt 1.000000 1.000000
vt 0.000008 1.000005
vt 0.000008 0.000497
vt 0.000000 1.000000
vt 1.000000 1.000000
vt 1.000008 0.000004
vt 1.000008 0.999998
vt 0.000000 1.000000
vt 1.000000 1.000000
vt 0.999992 0.021798
vt 0.999992 0.999437
vt 0.000000 1.000000
vt 1.000000 1.000000
vt 1.000000 1.000000
vt 0.999992 0.000289
vt 0.000000 1.000000
vt 1.000000 1.000000
vt 0.000008 0.999662
vt 0.000000 0.000000
vt 1.000000 0.000000
vt 1.000000 1.000000
vt 0.000000 1.000000
vt 0.000000 0.000000
vt 1.000000 0.000000
vt 1.000000 1.000000
vt 0.000000 1.000000
vt 0.000000 0.000000
vt 1.000000 0.000000
vt 1.000000 1.000000
vt 0.000000 1.000000
vt 0.000000 0.000000
vt 1.000000 0.000000
vt 1.000000 1.000000
vt 0.000000 1.000000
vt 0.000000 0.000000
vt 1.000000 0.000000
vt 1.000000 1.000000
vt 0.000000 1.000000
vt 0.000000 0.000000
vt 1.000000 0.000000
vt 0.500000 1.000000
vt 0.000000 0.000000
vt 1.000000 0.000000
vt 0.500000 1.000000
vt 0.000000 0.000000
vt 1.000000 0.000000
vt 0.500000 1.000000
vt 0.000000 0.000000
vt 1.000000 0.000000
vt 0.500000 1.000000
vt 0.000000 0.000000
vt 1.000000 0.000000
vt 0.500000 1.000000
vt 0.503323 0.000000
vt 0.503323 1.000000
vt 0.504518 0.990964
vt 0.495482 0.990964
vt 0.516812 0.966376
vt 0.483188 0.966376
vt 0.463331 0.000000
vt 0.463331 1.000000
vt 0.493577 0.000000
vt 0.000191 0.999994
vt 0.451251 0.000000
vt 0.000137 0.969277
vt 0.976712 0.000000
vt 0.976712 1.000000
vt 0.504445 0.930186
vt 0.979353 0.000000
vt 0.979353 1.000000
vt 0.968561 0.000000
vt -0.000008 0.504667
vt 0.555608 0.000000
vt 0.555608 1.000000
vt 0.511295 0.977409
vt 0.511295 1.000000
vt 0.534979 0.000000
vt 0.534979 1.000000
vt 0.511046 0.977908
vt 0.488954 0.977908
vt 0.563997 0.000000
vt 1.000000 0.960063
vt 0.530949 0.000000
vt -0.000008 0.999996
vt 0.512021 0.975957
vt 0.487979 0.975957
vt 0.974160 0.000000
vt 0.974160 1.000000
vt 0.963897 0.000000
vt 0.065369 0.975667
vt 0.961054 1.000000
vt 0.961054 0.000000
vt 0.508657 0.982685
vt 0.491343 0.982685
vt 1.000015 -0.000005
vt 0.955249 0.000000
vt 0.523719 0.000000
vt 0.523719 1.000000
vt 0.495094 0.961674
vt 0.533167 0.933666
vt 0.466833 0.933666
vt 0.483201 0.000000
vt 0.483201 1.000000
vt 0.523775 0.000000
vt 0.065392 0.939571
vt 0.481893 0.000000
vt 0.035553 0.510896
vt 0.515119 1.000000
vt 0.515119 0.000000
vt 0.507215 0.949478
vt 0.517915 0.964170
vt 0.482085 0.964170
vt 0.485523 1.000000
vt 0.485523 0.000000
vt 0.999931 0.044658
vt 0.528541 0.000000
vt 0.999847 0.470658
vt 0.483554 0.000000
vt 0.086572 1.000000
vt 0.086572 0.000000
vt 0.055806 1.000000
vt 0.055806 0.000000
vt 0.033106 1.000000
vt 0.033106 0.000000
vt 0.482294 0.905744
vt 0.999863 0.515666
vt 0.047938 0.000000
vt 0.502188 1.000000
vt 0.502188 0.000000
vt 0.521270 0.957459
vt 0.478730 0.957459
vt 0.506230 0.938051
vt 0.469836 1.000000
vt 0.469836 0.000000
vt 0.000000 0.000007
vt 0.463153 0.000000
vt 0.999779 0.001260
vt 0.421945 0.000000
vt 0.513125 0.937060
vt 0.963969 0.000000
vt 0.963969 1.000000
vt 0.957888 0.000000
vt 0.022980 0.944916
vt 0.999840 0.537448
vt 0.031326 0.000000
vt 0.999996 0.928921
vt 0.000010 0.928924
vt -0.000009 1.000000
vt 0.999992 0.999997
vt 2.565162 0.940143
vt 2.024854 0.940143
vt 2.024848 1.000001
vt 2.565171 1.000001
vt 3.558030 0.931475
vt 3.025136 0.931475
vt 3.025136 1.000000
vt 3.558030 1.000000
vt 4.028407 0.927311
vt 4.560735 0.927311
vt 4.560735 1.000000
vt 4.028407 1.000000
vt 0.000016 2.936991
vt 0.986008 2.936991
vt 0.986008 3.006709
vt 0.000016 3.006709
vt 1.000000 0.000000
vt 1.000000 1.000000
vt 0.000000 0.000000
vt 0.000000 1.000000
vt 0.999794 0.950856
vt 0.999786 0.998759
vt 0.032692 0.470033
vt 0.000000 0.000605
vt 0.000015 0.463336
vt 0.061317 -0.000003
vt 0.046646 0.541486
vt 0.046638 0.509792
vt 0.046700 0.000004
vt 0.999886 0.578566
vt 0.999947 0.968778
vt 1.000008 1.000015
vt 1.000000 0.000000
vt 1.000000 1.000000
vt 0.000000 0.000000
vt 0.000000 1.000000
vt 1.000000 1.000000
vt 0.000000 1.000000
vt 0.000000 0.699349
vt 0.000000 0.364746
vt 0.000000 0.000000
vt 1.000000 0.000000
vt 0.375000 0.000000
vt 0.625000 0.000000
vt 0.625000 0.250000
vt 0.375000 0.250000
vt 0.625000 0.500000
vt 0.375000 0.500000
vt 0.625000 0.750000
vt 0.375000 0.750000
vt 0.625000 1.000000
vt 0.375000 1.000000
vt 0.875000 0.000000
vt 0.875000 0.250000
vt 0.125000 0.000000
vt 0.125000 0.250000
vt 0.375000 0.000000
vt 0.625000 0.000000
vt 0.625000 0.250000
vt 0.375000 0.250000
vt 0.625000 0.500000
vt 0.375000 0.500000
vt 0.625000 0.750000
vt 0.375000 0.750000
vt 0.625000 1.000000
vt 0.375000 1.000000
vt 0.875000 0.000000
vt 0.875000 0.250000
vt 0.125000 0.000000
vt 0.125000 0.250000
vt 0.375000 0.000000
vt 0.625000 0.000000
vt 0.625000 0.250000
vt 0.375000 0.250000
vt 0.625000 0.500000
vt 0.375000 0.500000
vt 0.625000 0.750000
vt 0.375000 0.750000
vt 0.625000 1.000000
vt 0.375000 1.000000
vt 0.875000 0.000000
vt 0.875000 0.250000
vt 0.125000 0.000000
vt 0.125000 0.250000
vt 0.375000 0.000000
vt 0.625000 0.000000
vt 0.625000 0.250000
vt 0.375000 0.250000
vt 0.625000 0.500000
vt 0.375000 0.500000
vt 0.625000 0.750000
vt 0.375000 0.750000
vt 0.625000 1.000000
vt 0.375000 1.000000
vt 0.875000 0.000000
vt 0.875000 0.250000
vt 0.125000 0.000000
vt 0.125000 0.250000
vt 0.375000 0.000000
vt 0.625000 0.000000
vt 0.625000 0.250000
vt 0.375000 0.250000
vt 0.625000 0.500000
vt 0.375000 0.500000
vt 0.625000 0.750000
vt 0.375000 0.750000
vt 0.625000 1.000000
vt 0.375000 1.000000
vt 0.875000 0.000000
vt 0.875000 0.250000
vt 0.125000 0.000000
vt 0.125000 0.250000
vt 0.375000 0.000000
vt 0.625000 0.000000
vt 0.625000 0.250000
vt 0.375000 0.250000
vt 0.625000 0.500000
vt 0.375000 0.500000
vt 0.625000 0.750000
vt 0.375000 0.750000
vt 0.625000 1.000000
vt 0.375000 1.000000
vt 0.875000 0.000000
vt 0.875000 0.250000
vt 0.125000 0.000000
vt 0.125000 0.250000
vt 0.375000 0.000000
vt 0.625000 0.000000
vt 0.625000 0.250000
vt 0.375000 0.250000
vt 0.625000 0.500000
vt 0.375000 0.500000
vt 0.625000 0.750000
vt 0.375000 0.750000
vt 0.625000 1.000000
vt 0.375000 1.000000
vt 0.875000 0.000000
vt 0.875000 0.250000
vt 0.125000 0.000000
vt 0.125000 0.250000
vn -0.173183 -0.984804 0.012958
vn -0.173183 -0.984804 0.012958
vn -0.173183 -0.984804 0.012958
vn -0.173183 -0.984804 0.012958
vn -0.664731 -0.747056 0.006342
vn -0.664731 -0.747056 0.006342
vn -0.664731 -0.747056 0.006342
vn -0.664731 -0.747056 0.006342
vn -0.957228 -0.289327 -0.001991
vn -0.957228 -0.289327 -0.001991
vn -0.957228 -0.289327 -0.001991
vn -0.957228 -0.289327 -0.001991
vn -0.727583 0.685869 -0.014393
vn -0.727583 0.685869 -0.014393
vn -0.727583 0.685869 -0.014393
vn -0.727583 0.685869 -0.014393
vn 0.728365 -0.685035 0.014547
vn 0.728365 -0.685035 0.014547
vn 0.728365 -0.685035 0.014547
vn 0.728365 -0.685035 0.014547
vn -0.152971 -0.988144 0.013064
vn -0.152971 -0.988144 0.013064
vn -0.152971 -0.988144 0.013064
vn -0.152971 -0.988144 0.013064
vn -0.664653 -0.747128 0.006005
vn -0.664653 -0.747128 0.006005
vn -0.664653 -0.747128 0.006005
vn -0.664653 -0.747128 0.006005
vn -0.963691 -0.267015 -0.001581
vn -0.963691 -0.267015 -0.001581
vn -0.963691 -0.267015 -0.001581
vn -0.963691 -0.267015 -0.001581
vn -0.751380 0.659727 -0.013741
vn -0.751380 0.659727 -0.013741
vn -0.751380 0.659727 -0.013741
vn -0.751380 0.659727 -0.013741
vn 0.706716 -0.707373 0.013249
vn 0.706716 -0.707373 0.013249
vn 0.706716 -0.707373 0.013249
vn 0.706716 -0.707373 0.013249
vn 0.021632 -0.004181 -0.999757
vn 0.021632 -0.004181 -0.999757
vn -0.002806 -0.005898 -0.999979
vn -0.002806 -0.005898 -0.999979
vn -0.003451 -0.002833 -0.999990
vn -0.003451 -0.002833 -0.999990
vn 0.005850 -0.011092 -0.999921
vn 0.005850 -0.011092 -0.999921
vn 0.006456 -0.014151 -0.999879
vn 0.006456 -0.014151 -0.999879
vn 0.036723 0.005801 -0.999309
vn 0.036723 0.005801 -0.999309
vn -0.145702 -0.989273 0.010494
vn -0.145702 -0.989273 0.010494
vn -0.145702 -0.989273 0.010494
vn -0.145702 -0.989273 0.010494
vn -0.145702 -0.989273 0.010494
vn -0.145702 -0.989273 0.010494
vn -0.145702 -0.989273 0.010494
vn -0.145702 -0.989273 0.010494
vn -0.664767 -0.746944 0.012652
vn -0.664767 -0.746944 0.012652
vn -0.664767 -0.746944 0.012652
vn -0.664767 -0.746944 0.012652
vn -0.664767 -0.746944 0.012652
vn -0.664767 -0.746944 0.012652
vn -0.664767 -0.746944 0.012652
vn -0.963104 -0.266195 0.039645
vn -0.963104 -0.266195 0.039645
vn -0.963104 -0.266195 0.039645
vn -0.963104 -0.266195 0.039645
vn -0.963104 -0.266195 0.039645
vn -0.963104 -0.266195 0.039645
vn -0.963104 -0.266195 0.039645
vn -0.759611 0.650322 -0.008533
vn -0.759611 0.650322 -0.008533
vn -0.759611 0.650322 -0.008533
vn -0.759611 0.650322 -0.008533
vn -0.759611 0.650322 -0.008533
vn -0.759611 0.650322 -0.008533
vn -0.759611 0.650322 -0.008533
vn 0.697839 -0.716120 0.013846
vn 0.697839 -0.716120 0.013846
vn 0.697839 -0.716120 0.013846
vn 0.697839 -0.716120 0.013846
vn 0.697839 -0.716120 0.013846
vn 0.697839 -0.716120 0.013846
vn 0.697839 -0.716120 0.013846
vn 0.002645 -0.007346 -0.999970
vn 0.002645 -0.007346 -0.999970
vn -0.009835 -0.005585 -0.999936
vn -0.009835 -0.005585 -0.999936
vn -0.002687 -0.003557 -0.999990
vn -0.002687 -0.003557 -0.999990
vn 0.003731 -0.009293 -0.999950
vn 0.003731 -0.009293 -0.999950
vn 0.004824 -0.012740 -0.999907
vn 0.004824 -0.012740 -0.999907
vn 0.661942 0.747705 -0.052629
vn 0.661942 0.747705 -0.052629
vn 0.661942 0.747705 -0.052629
vn 0.661942 0.747705 -0.052629
vn 0.661942 0.747705 -0.052629
vn 0.661942 0.747705 -0.052629
vn 0.661942 0.747705 -0.052629
vn 0.661942 0.747705 -0.052629
vn 0.661942 0.747705 -0.052629
vn 0.661942 0.747705 -0.052629
vn 0.661942 0.747705 -0.052629
vn 0.661942 0.747705 -0.052629
vn 0.661942 0.747705 -0.052629
vn 0.661942 0.747705 -0.052629
vn 0.661942 0.747705 -0.052629
vn 0.661942 0.747705 -0.052629
vn 0.016949 -0.004788 -0.999845
vn 0.016949 -0.004788 -0.999845
vn 0.024114 0.147829 -0.988719
vn 0.024114 0.147829 -0.988719
vn 0.046052 0.124305 -0.991175
vn 0.046052 0.124305 -0.991175
vn 0.043268 0.056555 -0.997461
vn 0.043268 0.056555 -0.997461
vn 0.057322 0.040036 -0.997553
vn 0.057322 0.040036 -0.997553
vn 0.076701 0.018327 -0.996886
vn 0.076701 0.018327 -0.996886
vn 0.076701 0.018327 -0.996886
vn 0.076701 0.018327 -0.996886
vn 0.095293 -0.065595 -0.993286
vn 0.095293 -0.065595 -0.993286
vn 0.095293 -0.065595 -0.993286
vn 0.095293 -0.065595 -0.993286
vn -0.090781 0.080224 -0.992634
vn -0.090781 0.080224 -0.992634
vn -0.038530 0.084614 -0.995669
vn -0.038530 0.084614 -0.995669
vn -0.048053 -0.229229 0.972186
vn -0.048053 -0.229229 0.972186
vn -0.048053 -0.229229 0.972186
vn -0.048053 -0.229229 0.972186
vn -0.048053 -0.229229 0.972186
vn -0.048053 -0.229229 0.972186
vn -0.152479 -0.169712 0.973626
vn -0.152479 -0.169712 0.973626
vn -0.152479 -0.169712 0.973626
vn -0.152479 -0.169712 0.973626
vn -0.152479 -0.169712 0.973626
vn -0.152479 -0.169712 0.973626
vn -0.216325 -0.063040 0.974284
vn -0.216325 -0.063040 0.974284
vn -0.216325 -0.063040 0.974284
vn -0.216325 -0.063040 0.974284
vn -0.216325 -0.063040 0.974284
vn -0.216325 -0.063040 0.974284
vn -0.190507 0.181397 0.964781
vn -0.190507 0.181397 0.964781
vn -0.190507 0.181397 0.964781
vn 0.201997 -0.174415 0.963731
vn 0.201997 -0.174415 0.963731
vn 0.201997 -0.174415 0.963731
vn 0.201997 -0.174415 0.963731
vn 0.201997 -0.174415 0.963731
vn -0.217898 -0.056058 0.974360
vn -0.217898 -0.056058 0.974360
vn -0.217898 -0.056058 0.974360
vn -0.216408 -0.063103 0.974262
vn -0.216408 -0.063103 0.974262
vn -0.216408 -0.063103 0.974262
vn 0.080495 0.013690 -0.996661
vn 0.080495 0.013690 -0.996661
vn 0.076581 -0.029182 -0.996636
vn 0.076581 -0.029182 -0.996636
vn 0.071349 0.023498 -0.997175
vn 0.071349 0.023498 -0.997175
vn -0.217867 -0.055427 0.974403
vn -0.217867 -0.055427 0.974403
vn -0.217867 -0.055427 0.974403
vn -0.217867 -0.055427 0.974403
vn -0.217867 -0.055427 0.974403
vn -0.217867 -0.055427 0.974403
vn 0.078993 0.013044 -0.996790
vn 0.078993 0.013044 -0.996790
vn 0.078993 0.013044 -0.996790
vn 0.078993 0.013044 -0.996790
vn 0.078993 0.013044 -0.996790
vn -0.190724 0.181102 0.964794
vn -0.190724 0.181102 0.964794
vn -0.190724 0.181102 0.964794
vn -0.190724 0.181102 0.964794
vn -0.189946 0.182585 0.964667
vn -0.189946 0.182585 0.964667
vn -0.189946 0.182585 0.964667
vn -0.189946 0.182585 0.964667
vn -0.189946 0.182585 0.964667
vn -0.189946 0.182585 0.964667
vn -0.189946 0.182585 0.964667
vn 0.073934 -0.072430 -0.994630
vn 0.073934 -0.072430 -0.994630
vn 0.073934 -0.072430 -0.994630
vn 0.073934 -0.072430 -0.994630
vn 0.072526 -0.071999 -0.994764
vn 0.072526 -0.071999 -0.994764
vn -0.142231 -0.186300 0.972143
vn -0.142231 -0.186300 0.972143
vn -0.142231 -0.186300 0.972143
vn -0.142231 -0.186300 0.972143
vn -0.142231 -0.186300 0.972143
vn 0.058311 0.084313 -0.994732
vn 0.058311 0.084313 -0.994732
vn 0.058311 0.084313 -0.994732
vn 0.058311 0.084313 -0.994732
vn -0.039894 -0.236803 0.970738
vn -0.039894 -0.236803 0.970738
vn -0.039894 -0.236803 0.970738
vn -0.039894 -0.236803 0.970738
vn -0.039894 -0.236803 0.970738
vn -0.039894 -0.236803 0.970738
vn -0.039894 -0.236803 0.970738
vn 0.026849 0.127469 -0.991479
vn 0.026849 0.127469 -0.991479
vn 0.026849 0.127469 -0.991479
vn 0.026849 0.127469 -0.991479
vn -0.141949 -0.186499 0.972146
vn -0.141949 -0.186499 0.972146
vn -0.141949 -0.186499 0.972146
vn -0.132738 -0.194742 0.971831
vn -0.132738 -0.194742 0.971831
vn -0.132738 -0.194742 0.971831
vn 0.047934 0.074120 -0.996097
vn 0.047934 0.074120 -0.996097
vn 0.047934 0.074120 -0.996097
vn 0.047934 0.074120 -0.996097
vn 0.067943 0.100653 -0.992599
vn 0.067943 0.100653 -0.992599
vn -0.061125 -0.227652 0.971822
vn -0.061125 -0.227652 0.971822
vn -0.061125 -0.227652 0.971822
vn -0.047458 -0.229160 0.972231
vn -0.047458 -0.229160 0.972231
vn -0.047458 -0.229160 0.972231
vn -0.047458 -0.229160 0.972231
vn -0.047458 -0.229160 0.972231
vn 0.017565 0.112925 -0.993448
vn 0.017565 0.112925 -0.993448
vn 0.017565 0.112925 -0.993448
vn 0.017565 0.112925 -0.993448
vn 0.017944 0.100882 -0.994737
vn 0.017944 0.100882 -0.994737
vn 0.017944 0.100882 -0.994737
vn 0.017944 0.100882 -0.994737
vn 0.202219 -0.174570 0.963656
vn 0.202219 -0.174570 0.963656
vn 0.202219 -0.174570 0.963656
vn 0.202219 -0.174570 0.963656
vn 0.202219 -0.174570 0.963656
vn 0.203007 -0.173782 0.963633
vn 0.203007 -0.173782 0.963633
vn 0.203007 -0.173782 0.963633
vn 0.203007 -0.173782 0.963633
vn -0.047844 -0.229194 0.972204
vn -0.047844 -0.229194 0.972204
vn -0.047844 -0.229194 0.972204
vn 0.013828 0.088771 -0.995956
vn 0.013828 0.088771 -0.995956
vn 0.202549 -0.174227 0.963649
vn 0.202549 -0.174227 0.963649
vn 0.202549 -0.174227 0.963649
vn 0.202548 -0.174253 0.963644
vn 0.202548 -0.174253 0.963644
vn 0.202548 -0.174253 0.963644
vn -0.104077 0.095498 -0.989974
vn -0.104077 0.095498 -0.989974
vn -0.104077 0.095498 -0.989974
vn -0.104077 0.095498 -0.989974
vn -0.116591 0.105837 -0.987525
vn -0.116591 0.105837 -0.987525
vn -0.116591 0.105837 -0.987525
vn -0.116591 0.105837 -0.987525
vn -0.190439 0.181438 0.964787
vn -0.190439 0.181438 0.964787
vn -0.190439 0.181438 0.964787
vn 0.077660 -0.073772 -0.994247
vn 0.077660 -0.073772 -0.994247
vn 0.077660 -0.073772 -0.994247
vn 0.077660 -0.073772 -0.994247
vn -0.127196 0.117351 -0.984911
vn -0.127196 0.117351 -0.984911
vn -0.127196 0.117351 -0.984911
vn -0.127196 0.117351 -0.984911
vn -0.137002 0.107561 -0.984714
vn -0.137002 0.107561 -0.984714
vn -0.137002 0.107561 -0.984714
vn 0.003631 0.001330 0.999993
vn 0.003631 0.001330 0.999993
vn 0.003631 0.001330 0.999993
vn 0.003631 0.001330 0.999993
vn 0.003631 0.001330 0.999993
vn 0.003631 0.001330 0.999993
vn -0.599610 0.597029 0.532939
vn -0.599610 0.597029 0.532939
vn -0.599610 0.597029 0.532939
vn -0.599610 0.597029 0.532939
vn 0.064474 0.014379 0.997816
vn 0.064474 0.014379 0.997816
vn 0.064474 0.014379 0.997816
vn 0.064474 0.014379 0.997816
vn -0.265783 0.176259 -0.947783
vn -0.265783 0.176259 -0.947783
vn -0.265783 0.176259 -0.947783
vn -0.265783 0.176259 -0.947783
vn 0.683195 -0.659032 -0.314518
vn 0.683195 -0.659032 -0.314518
vn 0.683195 -0.659032 -0.314518
vn 0.683195 -0.659032 -0.314518
vn 0.680808 0.730416 -0.054701
vn 0.680808 0.730416 -0.054701
vn 0.680808 0.730416 -0.054701
vn 0.680808 0.730416 -0.054701
vn -0.681076 -0.730170 0.054656
vn -0.681076 -0.730170 0.054656
vn -0.681076 -0.730170 0.054656
vn -0.681076 -0.730170 0.054656
vn -0.497293 0.703900 0.507172
vn -0.497293 0.703900 0.507172
vn -0.497293 0.703900 0.507172
vn -0.497293 0.703900 0.507172
vn 0.055705 0.031920 0.997937
vn 0.055705 0.031920 0.997937
vn 0.055705 0.031920 0.997937
vn 0.055705 0.031920 0.997937
vn -0.223313 0.191507 -0.955749
vn -0.223313 0.191507 -0.955749
vn -0.223313 0.191507 -0.955749
vn -0.223313 0.191507 -0.955749
vn 0.568002 -0.771431 -0.286825
vn 0.568002 -0.771431 -0.286825
vn 0.568002 -0.771431 -0.286825
vn 0.568002 -0.771431 -0.286825
vn 0.791883 0.607380 -0.063330
vn 0.791883 0.607380 -0.063330
vn 0.791883 0.607380 -0.063330
vn 0.791883 0.607380 -0.063330
vn -0.791681 -0.607632 0.063448
vn -0.791681 -0.607632 0.063448
vn -0.791681 -0.607632 0.063448
vn -0.791681 -0.607632 0.063448
vn -0.209944 0.866719 0.452462
vn -0.209944 0.866719 0.452462
vn -0.209944 0.866719 0.452462
vn -0.209944 0.866719 0.452462
vn 0.005345 0.059912 0.998189
vn 0.005345 0.059912 0.998189
vn 0.005345 0.059912 0.998189
vn 0.005345 0.059912 0.998189
vn -0.073740 0.212629 -0.974347
vn -0.073740 0.212629 -0.974347
vn -0.073740 0.212629 -0.974347
vn -0.073740 0.212629 -0.974347
vn 0.233930 -0.946059 -0.224164
vn 0.233930 -0.946059 -0.224164
vn 0.233930 -0.946059 -0.224164
vn 0.233930 -0.946059 -0.224164
vn 0.969256 0.245244 -0.019970
vn 0.969256 0.245244 -0.019970
vn 0.969256 0.245244 -0.019970
vn 0.969256 0.245244 -0.019970
vn -0.969570 -0.243992 0.020043
vn -0.969570 -0.243992 0.020043
vn -0.969570 -0.243992 0.020043
vn -0.969570 -0.243992 0.020043
vn 0.026714 0.867377 0.496935
vn 0.026714 0.867377 0.496935
vn 0.026714 0.867377 0.496935
vn 0.026714 0.867377 0.496935
vn -0.039111 0.007057 0.999210
vn -0.039111 0.007057 0.999210
vn -0.039111 0.007057 0.999210
vn -0.039111 0.007057 0.999210
vn 0.052413 0.272389 -0.960759
vn 0.052413 0.272389 -0.960759
vn 0.052413 0.272389 -0.960759
vn 0.052413 0.272389 -0.960759
vn -0.040010 -0.960912 -0.273947
vn -0.040010 -0.960912 -0.273947
vn -0.040010 -0.960912 -0.273947
vn -0.040010 -0.960912 -0.273947
vn 0.997771 -0.053975 0.039245
vn 0.997771 -0.053975 0.039245
vn 0.997771 -0.053975 0.039245
vn 0.997771 -0.053975 0.039245
vn -0.997778 0.053568 -0.039625
vn -0.997778 0.053568 -0.039625
vn -0.997778 0.053568 -0.039625
vn -0.997778 0.053568 -0.039625
vn 0.407082 0.788287 0.461398
vn 0.407082 0.788287 0.461398
vn 0.407082 0.788287 0.461398
vn 0.407082 0.788287 0.461398
vn 0.030622 0.035044 0.998917
vn 0.030622 0.035044 0.998917
vn 0.030622 0.035044 0.998917
vn 0.030622 0.035044 0.998917
vn 0.097116 0.214748 -0.971829
vn 0.097116 0.214748 -0.971829
vn 0.097116 0.214748 -0.971829
vn 0.097116 0.214748 -0.971829
vn -0.443030 -0.865031 -0.235471
vn -0.443030 -0.865031 -0.235471
vn -0.443030 -0.865031 -0.235471
vn -0.443030 -0.865031 -0.235471
vn 0.890941 -0.453979 -0.011289
vn 0.890941 -0.453979 -0.011289
vn 0.890941 -0.453979 -0.011289
vn 0.890941 -0.453979 -0.011289
vn -0.890908 0.454038 0.011490
vn -0.890908 0.454038 0.011490
vn -0.890908 0.454038 0.011490
vn -0.890908 0.454038 0.011490
vn 0.575604 0.649230 0.497173
vn 0.575604 0.649230 0.497173
vn 0.575604 0.649230 0.497173
vn 0.575604 0.649230 0.497173
vn 0.006593 0.001953 0.999976
vn 0.006593 0.001953 0.999976
vn 0.006593 0.001953 0.999976
vn 0.006593 0.001953 0.999976
vn 0.178340 0.207450 -0.961852
vn 0.178340 0.207450 -0.961852
vn 0.178340 0.207450 -0.961852
vn 0.178340 0.207450 -0.961852
vn -0.637291 -0.720223 -0.274115
vn -0.637291 -0.720223 -0.274115
vn -0.637291 -0.720223 -0.274115
vn -0.637291 -0.720223 -0.274115
vn 0.750153 -0.661255 -0.003540
vn 0.750153 -0.661255 -0.003540
vn 0.750153 -0.661255 -0.003540
vn 0.750153 -0.661255 -0.003540
vn -0.750294 0.661094 0.003607
vn -0.750294 0.661094 0.003607
vn -0.750294 0.661094 0.003607
vn -0.750294 0.661094 0.003607
vn 0.735305 0.471199 0.487133
vn 0.735305 0.471199 0.487133
vn 0.735305 0.471199 0.487133
vn 0.735305 0.471199 0.487133
vn 0.024781 -0.007942 0.999661
vn 0.024781 -0.007942 0.999661
vn 0.024781 -0.007942 0.999661
vn 0.024781 -0.007942 0.999661
vn 0.209497 0.161040 -0.964457
vn 0.209497 0.161040 -0.964457
vn 0.209497 0.161040 -0.964457
vn 0.209497 0.161040 -0.964457
vn -0.808750 -0.525791 -0.263566
vn -0.808750 -0.525791 -0.263566
vn -0.808750 -0.525791 -0.263566
vn -0.808750 -0.525791 -0.263566
vn 0.549538 -0.835215 -0.020573
vn 0.549538 -0.835215 -0.020573
vn 0.549538 -0.835215 -0.020573
vn 0.549538 -0.835215 -0.020573
vn -0.549529 0.835228 0.020306
vn -0.549529 0.835228 0.020306
vn -0.549529 0.835228 0.020306
vn -0.549529 0.835228 0.020306
s off
g polySurface1
usemtl blinn2SG
f 1/1/1 3/4/2 4/3/3 2/2/4
f 1/5/5 5/8/6 6/7/7 3/6/8
f 5/9/9 7/12/10 8/11/11 6/10/12
usemtl blinn1SG
f 7/13/13 9/16/14 10/15/15 8/14/16
usemtl blinn3SG
f 4/20/17 12/23/18 11/22/19 2/21/20
usemtl blinn2SG
f 14/211/21 16/214/22 15/213/23 13/212/24
f 13/207/25 15/210/26 18/209/27 17/208/28
f 17/203/29 18/206/30 20/205/31 19/204/32
usemtl blinn1SG
f 19/199/33 20/202/34 22/201/35 21/200/36
usemtl blinn3SG
f 23/215/37 24/218/38 16/217/39 14/216/40
s 1
usemtl blinn4SG
f 2/24/41 14/33/42 13/34/43 1/25/44
f 1/26/44 13/37/43 17/38/45 5/27/46
f 5/28/46 17/41/45 19/42/47 7/29/48
f 7/30/48 19/45/47 21/220/49 9/219/50
f 11/221/51 23/222/52 14/50/42 2/32/41
s off
f 26/55/53 28/224/54 82/223/55 77/179/56 76/170/57 65/168/58 27/148/59 25/56/60
f 25/59/61 27/226/62 71/225/63 70/160/64 62/158/65 30/143/66 29/60/67
f 29/63/68 30/228/69 49/227/70 48/125/71 53/118/72 32/116/73 31/64/74
f 31/68/75 32/231/76 59/230/77 58/229/78 91/196/79 34/137/80 33/135/81
f 35/71/82 36/234/83 92/233/84 88/232/85 87/197/86 28/190/87 26/188/88
s 2
f 16/36/89 26/53/90 25/54/91 15/35/92
f 15/40/92 25/57/91 29/58/93 18/39/94
f 18/44/94 29/61/93 31/62/95 20/43/96
f 20/48/96 31/65/95 33/236/97 22/235/98
s off
usemtl blinn6SG
f 34/67/99 41/86/100 55/129/101 43/103/102 42/104/103 36/88/104 35/69/105 24/52/106 23/49/107 11/31/108 12/19/109 10/18/110 9/17/111 21/46/112 22/47/113 33/66/114
s 2
usemtl blinn4SG
f 24/237/115 35/238/116 26/70/90 16/51/89
s 3
usemtl blinn6SG
f 65/149/117 63/144/118 37/74/119 27/73/120
s 4
f 62/142/121 61/141/122 39/78/123 30/77/124
s off
f 49/117/125 47/114/126 44/108/127 48/115/128
f 91/195/129 90/194/130 41/86/131 34/85/132
s 5
usemtl blinn5SG
f 87/189/133 83/181/134 38/90/135 28/89/136
s off
usemtl blinn6SG
f 75/167/137 81/178/138 74/165/139 64/147/140 73/163/141 72/162/142
f 61/140/143 67/152/144 60/139/145 43/97/146 46/111/147 39/96/148
f 47/113/149 46/112/150 43/100/151 45/109/152 51/121/153 44/107/154
usemtl blinn5SG
f 40/101/155 57/133/156 56/130/157
usemtl blinn6SG
f 86/187/158 85/185/159 74/164/160 84/183/161 83/182/162
usemtl blinn5SG
f 44/107/163 51/121/164 50/119/165
f 39/98/166 46/112/167 47/113/168
s 6
usemtl blinn6SG
f 53/124/169 52/123/170 40/82/171 32/81/172
s 4
usemtl blinn5SG
f 30/80/124 39/83/123 47/114/173 49/117/174
s off
usemtl blinn6SG
f 50/119/175 51/121/176 45/109/177 57/132/178 40/99/179 52/122/180
usemtl blinn5SG
f 48/115/181 44/108/182 50/120/183 52/123/184 53/124/185
usemtl blinn6SG
f 90/193/186 89/192/187 55/128/188 41/102/189
f 56/130/190 57/133/191 45/110/192 43/103/193 55/128/194 89/192/195 54/126/196
f 59/136/197 56/131/198 54/127/199 58/134/200
s 6
usemtl blinn5SG
f 32/84/172 40/87/171 56/131/201 59/136/202
s off
usemtl blinn6SG
f 69/155/203 68/154/204 60/139/205 67/152/206 66/150/207
f 71/159/208 69/156/209 66/151/210 70/157/211
f 63/145/212 73/163/213 64/147/214 43/94/215 60/138/216 68/153/217 37/93/218
usemtl blinn5SG
f 76/169/219 72/161/220 63/144/221 65/149/222
f 66/150/223 67/152/224 61/140/225
f 37/95/226 68/154/227 69/155/228
f 70/157/229 66/151/230 61/141/231 62/142/232
s 3
f 27/76/120 37/79/119 69/156/233 71/159/234
s off
f 72/162/235 73/163/236 63/145/237
usemtl blinn6SG
f 38/92/238 84/184/239 74/165/240 81/178/241 80/177/242
f 77/171/243 75/166/244 72/161/245 76/169/246
usemtl blinn5SG
f 82/180/247 80/176/248 75/166/249 77/171/250
usemtl blinn6SG
f 79/175/251 64/146/252 74/164/253 85/185/254 78/173/255
usemtl blinn5SG
f 42/104/256 43/106/257 64/146/258 79/175/259
f 80/177/260 81/178/261 75/167/262
s 5
usemtl blinn6SG
f 28/72/136 38/75/135 80/176/263 82/180/264
s off
usemtl blinn5SG
f 83/182/265 84/183/266 38/105/267
f 78/173/268 85/185/269 86/187/270
usemtl blinn6SG
f 88/191/271 86/186/272 83/181/273 87/189/274
usemtl blinn5SG
f 92/198/275 78/172/276 86/186/277 88/191/278
f 54/126/279 89/192/280 90/193/281
f 58/134/282 54/127/283 90/194/284 91/195/285
usemtl blinn6SG
f 36/88/286 79/174/287 78/172/288 92/198/289
usemtl blinn5SG
f 36/88/290 42/91/291 79/174/292
usemtl blinn6SG
f 97/243/293 96/242/294 95/241/295 93/240/296 94/239/297 98/244/298
usemtl blinn7SG
f 99/245/299 100/246/300 102/247/301 101/248/302
f 101/248/303 102/247/304 104/249/305 103/250/306
f 103/250/307 104/249/308 106/251/309 105/252/310
f 105/252/311 106/251/312 100/253/313 99/254/314
f 100/246/315 106/255/316 104/256/317 102/247/318
f 105/257/319 99/245/320 101/248/321 103/258/322
f 107/259/323 108/260/324 110/261/325 109/262/326
f 109/262/327 110/261/328 112/263/329 111/264/330
f 111/264/331 112/263/332 114/265/333 113/266/334
f 113/266/335 114/265/336 108/267/337 107/268/338
f 108/260/339 114/269/340 112/270/341 110/261/342
f 113/271/343 107/259/344 109/262/345 111/272/346
f 115/273/347 116/274/348 118/275/349 117/276/350
f 117/276/351 118/275/352 120/277/353 119/278/354
f 119/278/355 120/277/356 122/279/357 121/280/358
f 121/280/359 122/279/360 116/281/361 115/282/362
f 116/274/363 122/283/364 120/284/365 118/275/366
f 121/285/367 115/273/368 117/276/369 119/286/370
f 123/287/371 124/288/372 126/289/373 125/290/374
f 125/290/375 126/289/376 128/291/377 127/292/378
f 127/292/379 128/291/380 130/293/381 129/294/382
f 129/294/383 130/293/384 124/295/385 123/296/386
f 124/288/387 130/297/388 128/298/389 126/289/390
f 129/299/391 123/287/392 125/290/393 127/300/394
f 131/301/395 132/302/396 134/303/397 133/304/398
f 133/304/399 134/303/400 136/305/401 135/306/402
f 135/306/403 136/305/404 138/307/405 137/308/406
f 137/308/407 138/307/408 132/309/409 131/310/410
f 132/302/411 138/311/412 136/312/413 134/303/414
f 137/313/415 131/301/416 133/304/417 135/314/418
f 139/315/419 140/316/420 142/317/421 141/318/422
f 141/318/423 142/317/424 144/319/425 143/320/426
f 143/320/427 144/319/428 146/321/429 145/322/430
f 145/322/431 146/321/432 140/323/433 139/324/434
f 140/316/435 146/325/436 144/326/437 142/317/438
f 145/327/439 139/315/440 141/318/441 143/328/442
f 147/329/443 148/330/444 150/331/445 149/332/446
f 149/332/447 150/331/448 152/333/449 151/334/450
f 151/334/451 152/333/452 154/335/453 153/336/454
f 153/336/455 154/335/456 148/337/457 147/338/458
f 148/330/459 154/339/460 152/340/461 150/331/462
f 153/341/463 147/329/464 149/332/465 151/342/466
