# 3ds Max Wavefront OBJ Exporter v0.97b - (c)2007 guruware
# File Created: 28.03.2012 13:59:01

mtllib Myyrivahe_62-origo.mtl

#
# object Myyrivahe_62
#

v  542519.4472 6589224.6926 14.4009
v  542519.0011 6589221.5195 13.1116
v  542521.8306 6589222.2571 15.7071
v  542520.886 6589225.1036 15.7087
v  542518.5584 6589224.4387 13.5930
v  542518.0178 6589224.2843 13.1017
v  542518.429 6589223.5248 7.4332
v  542518.8095 6589222.4551 7.4332
v  542518.8094 6589222.4553 8.7951
v  542518.4289 6589223.525 8.7951
v  542518.9768 6589230.9099 13.9273
v  542518.3341 6589230.6958 13.9291
v  542518.3359 6589230.6964 14.6066
v  542518.9786 6589230.9105 14.6047
v  542518.4348 6589221.3181 12.6528
v  542517.4207 6589224.1694 12.6426
v  542515.4187 6589229.7984 12.6222
v  542515.985 6589229.9999 13.0810
v  542515.985 6589229.9999 12.8816
v  542515.506 6589229.8295 12.4935
v  542519.0011 6589221.5195 12.8969
v  542518.5221 6589221.3492 12.5088
v  542517.508 6589224.2004 12.5037
v  542517.987 6589224.3708 12.8918
v  542516.3284 6589230.1143 5.6128
v  542515.985 6589229.9999 5.6128
v  542515.9842 6589230.0017 9.0004
v  542516.3285 6589230.1143 9.3404
v  542516.3284 6589230.1143 9.6330
v  542515.9847 6589229.9998 9.9340
v  542518.4291 6589223.5246 12.0151
v  542518.429 6589223.5246 10.4321
v  542518.8095 6589222.455 10.4321
v  542518.8095 6589222.455 12.0170
v  542519.3465 6589231.1194 12.7505
v  542519.0746 6589230.5623 15.7170
v  542516.9729 6589227.2221 13.0912
v  542519.884 6589228.1232 15.7104
v  542520.1041 6589227.4601 15.7050
v  542519.9899 6589227.804 15.7078
v  542518.9212 6589226.2253 14.3992
v  542519.1842 6589225.459 14.4001
v  542522.5258 6589217.0026 14.7912
v  542521.0293 6589215.817 13.1320
v  542522.7646 6589216.1799 14.7560
v  542522.713 6589216.4538 14.7921
v  542520.0152 6589218.6683 13.1218
v  542521.772 6589219.0816 14.7494
v  542519.995 6589220.6775 13.7014
v  542520.4562 6589219.3602 13.7048
v  542519.9412 6589217.6906 5.8997
v  542520.3545 6589216.5285 5.8997
v  542520.3542 6589216.5287 5.9207
v  542519.9412 6589217.6904 5.9207
v  542519.4432 6589220.6734 7.4332
v  542519.8236 6589219.6038 7.4332
v  542519.8236 6589219.6039 8.7951
v  542519.4431 6589220.6736 8.7951
v  542516.7812 6589228.1583 8.7951
v  542516.4003 6589229.2289 8.7951
v  542516.4006 6589229.228 7.4332
v  542516.7812 6589228.158 7.4332
v  542517.7952 6589225.3067 8.7951
v  542517.4147 6589226.3764 8.7951
v  542517.4149 6589226.3761 7.4332
v  542517.7953 6589225.3065 7.4332
v  542516.4066 6589227.0206 12.6324
v  542520.463 6589215.6156 12.6732
v  542519.4489 6589218.4668 12.6630
v  542521.0293 6589215.817 12.9070
v  542520.5503 6589215.6466 12.5189
v  542519.5362 6589218.4979 12.5139
v  542520.0152 6589218.6683 12.9019
v  542516.9729 6589227.2221 12.8867
v  542516.4939 6589227.0517 12.4986
v  542516.4009 6589229.2271 12.0049
v  542516.4007 6589229.2271 10.4319
v  542516.7812 6589228.1576 10.4320
v  542516.7813 6589228.1575 12.0068
v  542517.415 6589226.3759 12.0100
v  542517.4149 6589226.3759 10.4321
v  542517.7953 6589225.3063 10.4321
v  542517.7954 6589225.3063 12.0119
v  542519.8236 6589219.6037 10.4321
v  542519.8237 6589219.6037 12.0221
v  542519.4432 6589220.6733 12.0202
v  542519.4432 6589220.6734 10.4321
v  542515.9847 6589229.9998 9.2930
v  542520.8502 6589216.8398 8.8990
v  542520.5221 6589217.7622 8.8990
v  542520.5222 6589217.7622 6.1891
v  542520.8502 6589216.8398 6.1891
v  542520.5659 6589216.7571 6.1687
v  542520.2495 6589217.6468 6.1687
v  542520.2493 6589217.6474 6.0615
v  542520.5661 6589216.7566 6.0615
v  542520.7491 6589216.6095 5.9209
v  542520.6224 6589216.5634 5.9208
v  542520.6224 6589216.5633 5.8998
v  542520.7491 6589216.6095 5.8998
v  542520.6801 6589216.7988 6.1687
v  542520.6803 6589216.7982 6.0615
v  542520.6863 6589216.7815 6.1891
v  542520.3582 6589217.7039 6.1891
v  542520.2311 6589217.6586 6.1891
v  542520.5591 6589216.7363 6.1891
v  542520.3582 6589217.7039 6.1687
v  542520.2311 6589217.6586 6.1687
v  542520.3582 6589217.7039 6.0420
v  542520.2311 6589217.6586 6.0419
v  542520.2311 6589217.6586 6.0615
v  542520.3582 6589217.7039 6.0615
v  542520.5591 6589216.7363 6.0615
v  542520.1039 6589217.6134 6.0615
v  542520.432 6589216.691 6.0615
v  542520.1039 6589217.6134 6.0419
v  542520.5591 6589216.7363 6.1687
v  542520.6863 6589216.7815 6.1687
v  542520.3642 6589217.6872 6.0615
v  542520.3644 6589217.6867 6.1687
v  542520.432 6589216.691 6.0419
v  542520.6863 6589216.7815 6.0615
v  542520.5591 6589216.7363 6.0419
v  542520.6863 6589216.7815 6.0420
v  542520.2983 6589217.877 5.8999
v  542520.1708 6589217.8328 5.8999
v  542520.1708 6589217.8327 5.9209
v  542520.2984 6589217.8769 5.9209
v  542520.5536 6589216.7519 6.0419
v  542520.6804 6589216.7981 6.0420
v  542520.4394 6589216.7102 6.0419
v  542520.1218 6589217.6033 6.0419
v  542520.2366 6589217.6431 6.0420
v  542520.3641 6589217.6873 6.0420
v  542519.7913 6589217.5629 8.8883
v  542520.1557 6589216.5385 8.8883
v  542520.7002 6589216.7322 8.9615
v  542520.3359 6589217.7566 8.9615
v  542520.1557 6589216.5385 8.8571
v  542519.7913 6589217.5629 8.8571
v  542520.7002 6589216.7322 8.5513
v  542520.7002 6589216.7322 8.9464
v  542520.1557 6589216.5385 8.5513
v  542520.3359 6589217.7566 8.5513
v  542519.7913 6589217.5629 8.5513
v  542520.3359 6589217.7566 8.9464
v  542518.0265 6589225.9591 13.5903
v  542522.1993 6589221.146 15.7056
v  542521.7849 6589220.9911 15.3089
v  542522.2726 6589219.498 15.3005
v  542522.7599 6589219.4565 15.7064
v  542521.2503 6589219.585 14.4490
v  542522.8038 6589219.3243 15.7054
v  542521.8832 6589222.0985 15.7050
v  542520.7938 6589220.9137 14.4466
v  542521.9053 6589222.0319 15.7051
v  542521.5588 6589221.6833 15.3128
v  542520.2086 6589220.5128 13.8342
v  542520.3727 6589220.0443 13.8352
v  542520.2153 6589220.4076 14.1252
v  542520.2858 6589220.1605 14.3173
v  542520.3807 6589219.8903 14.3155
v  542520.4785 6589219.6558 14.1276
v  542520.5327 6589219.5875 13.8366
v  542518.2035 6589225.8365 13.7011
v  542518.4178 6589225.224 13.7021
v  542518.1965 6589225.6951 14.0156
v  542518.2758 6589225.3755 14.2773
v  542518.4035 6589225.0115 14.2757
v  542518.5399 6589224.7134 14.0183
v  542518.6249 6589224.6323 13.7031
v  542524.1759 6589216.4751 16.0769
v  542524.0697 6589216.7972 16.0769
v  542521.6648 6589221.3588 15.3109
v  542519.3465 6589231.1194 16.0769
v  542519.0336 6589231.0152 14.6894
v  542518.2296 6589230.7474 14.6918
v  542519.0313 6589231.0144 13.8420
v  542518.2273 6589230.7467 13.8444
v  542523.6544 6589216.8145 17.4054
v  542524.1174 6589216.9317 17.4054
v  542523.9951 6589217.3024 17.4054
v  542523.5365 6589217.1661 17.4054
v  542522.8045 6589216.5993 17.4054
v  542523.2674 6589216.7165 17.4054
v  542523.1548 6589217.0527 17.4054
v  542522.6963 6589216.9165 17.4054
v  542524.1174 6589216.9317 17.9631
v  542523.9951 6589217.3024 17.9631
v  542523.5365 6589217.1661 17.9631
v  542523.6544 6589216.8145 17.9631
v  542523.1548 6589217.0527 17.9631
v  542522.6963 6589216.9165 17.9631
v  542522.8045 6589216.5993 17.9631
v  542523.2674 6589216.7165 17.9631
v  542523.4802 6589217.2862 15.7039
v  542522.0869 6589221.4848 15.7056
v  542519.4852 6589230.6979 16.0769
v  542521.0293 6589215.817 9.9342
v  542521.0293 6589215.817 9.2930
v  542524.1759 6589216.4751 5.6128
v  542521.0293 6589215.817 5.6128
v  542517.9868 6589224.371 9.9342
v  542517.9867 6589224.3715 9.2930
v  542519.0009 6589221.52 9.2930
v  542519.001 6589221.5196 9.9342
v  542520.0151 6589218.6684 9.9342
v  542516.9726 6589227.2223 9.9342
v  542516.9725 6589227.2229 9.2930
v  542520.0151 6589218.6685 9.2930
v  542517.987 6589224.3708 5.6128
v  542519.0011 6589221.5195 5.6128
v  542518.719 6589222.3127 7.3294
v  542518.269 6589223.578 7.3294
v  542518.7189 6589222.3129 8.8990
v  542518.2688 6589223.5782 8.8990
v  542518.269 6589223.5779 12.1188
v  542518.719 6589222.3126 12.1210
v  542518.2689 6589223.5779 10.3283
v  542518.7189 6589222.3126 10.3283
v  542520.6863 6589216.7815 8.8990
v  542520.3582 6589217.7039 8.8990
v  542520.0152 6589218.6683 5.6128
v  542520.3633 6589217.6894 5.6384
v  542519.7331 6589219.4614 7.3294
v  542519.2831 6589220.7267 7.3294
v  542519.7331 6589219.4615 8.8990
v  542519.283 6589220.7268 8.8990
v  542517.2546 6589226.4296 8.8990
v  542517.7047 6589225.1643 8.8990
v  542517.2548 6589226.4294 7.3294
v  542516.9729 6589227.2221 5.6128
v  542517.7048 6589225.1641 7.3294
v  542516.6908 6589228.0151 12.1108
v  542516.2408 6589229.2803 12.1086
v  542516.2406 6589229.2803 10.3281
v  542516.6906 6589228.0152 10.3282
v  542517.2549 6589226.4291 12.1137
v  542517.7049 6589225.1639 12.1159
v  542517.2547 6589226.4292 10.3283
v  542517.7048 6589225.1639 10.3283
v  542519.7331 6589219.4613 10.3283
v  542519.2831 6589220.7266 10.3283
v  542519.7331 6589219.4613 12.1261
v  542519.2831 6589220.7266 12.1239
v  542516.6907 6589228.0156 7.3294
v  542516.2406 6589229.2812 7.3294
v  542516.6906 6589228.0159 8.8989
v  542516.2402 6589229.2822 8.8989
v  542520.6806 6589216.7975 5.9205
v  542520.6806 6589216.7973 5.8995
v  542520.6811 6589216.796 5.6384
v  542520.3639 6589217.688 5.9205
v  542520.3638 6589217.6881 5.8995
v  542524.4416 6589216.5924 16.1567
v  542524.1759 6589216.4751 15.8887
v  542524.3354 6589216.9145 16.1567
v  542518.6842 6589222.4106 7.4332
v  542518.3037 6589223.4802 7.4332
v  542518.6841 6589222.4107 8.7951
v  542518.3036 6589223.4804 8.7951
v  542518.3038 6589223.48 12.0151
v  542518.6842 6589222.4104 12.0170
v  542518.3037 6589223.4801 10.4321
v  542518.6841 6589222.4104 10.4321
v  542519.6983 6589219.5592 7.4332
v  542519.3179 6589220.6289 7.4332
v  542519.6983 6589219.5593 8.7951
v  542519.3178 6589220.629 8.7951
v  542516.275 6589229.1843 8.7951
v  542516.6559 6589228.1137 8.7951
v  542516.2753 6589229.1834 7.4332
v  542516.6559 6589228.1134 7.4332
v  542517.2894 6589226.3318 8.7951
v  542517.6699 6589225.2621 8.7951
v  542517.2896 6589226.3316 7.4332
v  542517.67 6589225.2619 7.4332
v  542516.2756 6589229.1825 12.0049
v  542516.656 6589228.1129 12.0068
v  542516.2754 6589229.1825 10.4319
v  542516.6559 6589228.113 10.4320
v  542517.2897 6589226.3313 12.0100
v  542517.6701 6589225.2617 12.0119
v  542517.2895 6589226.3314 10.4321
v  542517.67 6589225.2617 10.4321
v  542519.6983 6589219.5592 10.4321
v  542519.3178 6589220.6288 10.4321
v  542519.6983 6589219.5591 12.0221
v  542519.3179 6589220.6288 12.0202
v  542522.5871 6589221.2909 18.4665
v  542522.484 6589221.6035 18.4665
v  542521.6648 6589221.3588 18.4665
v  542521.7849 6589220.9911 18.4665
v  542522.0869 6589221.4848 17.3668
v  542522.484 6589221.6035 17.3668
v  542522.484 6589221.6035 17.5063
v  542522.0869 6589221.4848 17.2353
v  542522.5871 6589221.2909 17.3668
v  542522.5871 6589221.2909 17.5063
v  542522.5362 6589221.2719 17.3668
v  542518.9527 6589230.9883 14.6047
v  542518.31 6589230.7742 14.6066
v  542518.9509 6589230.9877 13.9273
v  542518.3082 6589230.7736 13.9291
v  542523.2824 6589217.2982 17.9631
v  542523.488 6589217.3593 17.3668
v  542523.4588 6589217.3506 17.3668
v  542522.4411 6589217.0482 17.9631
v  542522.4411 6589217.0482 13.9142
v  542523.4588 6589217.3506 16.4874
v  542523.4588 6589217.3506 14.8876
v  542524.1236 6589217.5481 17.9631
v  542524.1236 6589217.5481 17.5131
v  542524.1236 6589217.5481 17.3668
v  542522.6754 6589216.3614 13.9154
v  542522.6754 6589216.3614 17.9631
v  542524.3734 6589216.7912 15.5234
v  542524.3733 6589216.7911 17.5135
v  542524.3733 6589216.7911 17.9631
v  542523.5244 6589216.5763 17.9631
v  542524.1419 6589217.4925 17.3668
v  542524.1236 6589217.5481 15.5234
v  542522.1993 6589221.146 16.4441
v  542522.1993 6589221.146 17.3668
v  542520.8014 6589220.4423 14.3158
v  542520.8825 6589220.2083 14.3166
v  542520.957 6589219.9722 14.3112
v  542519.1531 6589225.1468 14.2867
v  542519.0581 6589225.4362 14.2897
v  542518.9592 6589225.7243 14.2893
v  542524.0697 6589216.7972 15.8887
v  542520.1216 6589217.6039 5.9205
v  542520.4396 6589216.7096 5.9205
v  542519.9409 6589217.6922 5.6387
v  542520.3551 6589216.5271 5.6387
v  542520.6229 6589216.5619 5.6388
v  542520.7496 6589216.6081 5.6388
v  542520.5539 6589216.7513 5.9205
v  542520.2363 6589217.6437 5.9205
v  542520.2978 6589217.8784 5.6388
v  542520.1703 6589217.8342 5.6388
v  542520.1211 6589217.6054 5.6384
v  542520.4401 6589216.7081 5.6384
v  542520.5544 6589216.7498 5.6384
v  542520.2358 6589217.6452 5.6384
# 345 vertices

vn -0.6291 -0.2151 0.7470
vn -0.6248 -0.2078 0.7527
vn -0.6215 -0.2183 0.7524
vn -0.9422 -0.3351 0.0000
vn -0.3160 0.9487 0.0000
vn -0.3161 0.9487 0.0000
vn -0.5726 -0.2008 0.7949
vn -0.5725 -0.2008 0.7949
vn -0.3352 0.9421 0.0000
vn -0.3353 0.9421 0.0002
vn 0.5722 0.2021 -0.7949
vn 0.5721 0.2021 -0.7949
vn -0.3161 0.9487 -0.0006
vn -0.3109 0.9505 0.0000
vn -0.9422 -0.3352 0.0001
vn -0.3160 0.9488 0.0000
vn -0.6111 -0.2145 0.7620
vn -0.6181 -0.2072 0.7583
vn -0.6168 -0.2110 0.7583
vn -0.6169 -0.2109 0.7583
vn 0.8931 0.3061 -0.3296
vn -0.6422 -0.2179 0.7349
vn -0.6423 -0.2179 0.7349
vn -0.6384 -0.2244 0.7362
vn -0.6358 -0.2156 0.7411
vn -0.6294 -0.2212 0.7449
vn -0.6343 -0.2202 0.7411
vn -0.9422 -0.3350 -0.0061
vn -0.9421 -0.3352 0.0000
vn -0.9422 -0.3351 0.0001
vn -0.9422 -0.3351 -0.0001
vn -0.5726 -0.2007 0.7949
vn 0.5720 0.2020 -0.7950
vn 0.5722 0.2020 -0.7949
vn -0.9421 -0.3352 0.0001
vn -0.9422 -0.3350 0.0000
vn 0.3425 -0.9395 0.0048
vn 0.3781 -0.9258 0.0000
vn 0.0000 0.0000 1.0000
vn -0.3357 0.9420 0.0000
vn -0.3348 0.9423 0.0000
vn 0.1283 -0.9917 0.0077
vn 0.3348 -0.9423 0.0000
vn -0.2918 0.9565 0.0000
vn -0.3275 0.9448 0.0055
vn -0.5267 0.8500 0.0072
vn 0.3358 -0.9419 0.0000
vn 0.0000 0.0000 -1.0000
vn 0.0007 0.0002 -1.0000
vn 0.0023 -0.0048 -1.0000
vn 0.0018 -0.0050 -1.0000
vn -0.1184 -0.0421 0.9921
vn 0.1675 0.0596 -0.9841
vn 0.3352 -0.9422 0.0000
vn -0.3351 0.9422 0.0000
vn -0.6170 -0.2109 0.7582
vn -0.6169 -0.2109 0.7582
vn -0.6183 -0.2173 0.7553
vn -0.6336 -0.2111 0.7443
vn -0.6362 -0.2107 0.7422
vn -0.6348 -0.2149 0.7422
vn -0.6347 -0.2197 0.7409
vn -0.6356 -0.2167 0.7410
vn -0.6356 -0.2166 0.7410
vn -0.6356 -0.2165 0.7410
vn -0.6333 -0.2091 0.7451
vn -0.8335 0.4005 0.3807
vn -0.6282 -0.2183 0.7468
vn -0.6282 -0.2182 0.7468
vn -0.6221 -0.2163 0.7525
vn -0.6182 -0.2172 0.7554
vn -0.9392 -0.3292 -0.0974
vn -0.9377 -0.3360 -0.0880
vn -0.9398 -0.3295 -0.0900
vn -0.9424 -0.3227 -0.0877
vn -0.9392 -0.3293 -0.0976
vn -0.9305 -0.3258 -0.1672
vn -0.9287 -0.3440 -0.1387
vn -0.9339 -0.3270 -0.1444
vn -0.9404 -0.3107 -0.1385
vn -0.9305 -0.3260 -0.1670
vn -0.6437 -0.2123 0.7352
vn -0.6415 -0.2178 0.7356
vn -0.6313 -0.2156 0.7450
vn -0.6361 -0.2119 0.7420
vn -0.6321 -0.2108 0.7456
vn -0.6323 -0.2106 0.7456
vn -0.3159 0.9488 0.0000
vn -0.3160 0.9488 0.0001
vn -0.9497 -0.3133 0.0000
vn 0.2849 -0.9586 0.0000
vn 0.9481 0.3179 0.0000
vn -0.2454 0.9694 0.0000
vn 0.2848 -0.9586 0.0000
vn 0.9465 0.3228 0.0000
vn -0.2455 0.9694 0.0000
vn -0.9482 -0.3176 0.0000
vn -0.3159 0.9488 -0.0001
vn -0.6252 -0.2063 0.7527
vn -0.6359 -0.2157 0.7410
vn -0.6414 -0.2134 0.7370
vn -0.6332 -0.2112 0.7446
vn -0.6330 -0.2094 0.7452
vn -0.6077 -0.2000 0.7686
vn -0.6164 -0.1924 0.7635
vn 0.2047 -0.9788 0.0000
vn 0.3350 -0.9422 0.0002
vn 0.3351 -0.9422 0.0000
vn 0.2050 -0.9788 -0.0003
vn -0.9422 -0.3351 -0.0002
vn -0.9422 -0.3352 -0.0001
vn -0.9422 -0.3350 -0.0001
vn -0.9422 -0.3352 0.0000
vn -0.9422 -0.3351 0.0002
vn -0.9422 -0.3350 0.0001
vn -0.9422 -0.3351 -0.0004
vn -0.9422 -0.3351 -0.0007
vn -0.9422 -0.3351 -0.0006
vn 0.3350 -0.9422 0.0000
vn -0.9417 -0.3364 0.0000
vn -0.9419 -0.3360 0.0001
vn -0.9414 -0.3374 0.0002
vn 0.4038 -0.9148 0.0000
vn -0.2527 -0.0833 0.9639
vn -0.7835 -0.2797 -0.5548
vn -0.7917 -0.2835 -0.5412
vn -0.7643 -0.2729 -0.5843
vn -0.7739 -0.2773 -0.5694
vn -0.7742 -0.2764 -0.5694
vn -0.7832 -0.2806 -0.5548
vn -0.8072 -0.2889 -0.5147
vn -0.7999 -0.2854 -0.5279
vn -0.7996 -0.2863 -0.5279
vn -0.7920 -0.2826 -0.5412
vn -0.9422 -0.3351 0.0003
vn -0.9422 -0.3352 -0.0009
vn -0.9421 -0.3353 0.0000
vn -0.9423 -0.3348 0.0000
vn -0.9424 -0.3344 -0.0001
vn -0.9421 -0.3354 0.0001
vn -0.9421 -0.3352 -0.0009
vn -0.9424 -0.3344 0.0000
vn -0.9423 -0.3349 0.0000
vn -0.9422 -0.3351 -0.0008
vn -0.9421 -0.3353 0.0001
vn -0.9422 -0.3352 -0.0002
vn -0.9421 -0.3353 -0.0001
vn -0.9421 -0.3352 -0.0001
vn -0.9422 -0.3351 0.0008
vn -0.9422 -0.3352 -0.0008
vn -0.3353 0.9421 -0.0001
vn -0.3347 0.9423 -0.0002
vn 0.3353 -0.9421 0.0002
vn 0.3354 -0.9421 0.0002
vn 0.0006 -0.0016 -1.0000
vn 0.3346 -0.9424 -0.0001
vn 0.3354 -0.9421 0.0000
vn -0.3354 0.9421 0.0000
vn -0.3354 0.9421 -0.0001
vn 0.3346 -0.9424 0.0001
vn 0.3353 -0.9421 0.0007
vn -0.3353 0.9421 -0.0002
vn 0.3346 -0.9424 0.0002
vn 0.3353 -0.9421 0.0003
vn -0.3354 0.9421 -0.0002
vn 0.0000 0.0001 1.0000
vn -0.3354 0.9421 0.0001
vn -0.3352 0.9421 0.0001
vn 0.3344 -0.9424 -0.0001
vn -0.3353 0.9421 0.0000
vn -0.3351 0.9422 0.0001
vn -0.3347 0.9423 0.0000
vn -0.2862 0.9582 -0.0001
vn -0.2864 0.9581 0.0000
vn 1.0000 0.0000 0.0000
vn -0.2860 0.9582 0.0000
vn -0.9506 -0.3105 0.0000
vn 0.3496 -0.9369 0.0000
vn -0.3160 0.9488 0.0005
vn -0.3160 0.9487 0.0001
vn -0.3152 0.9490 0.0000
vn -0.3155 0.9489 0.0000
vn -0.3159 0.9488 0.0004
vn -0.3160 0.9487 -0.0009
vn -0.3161 0.9487 0.0001
vn -0.0027 -0.0009 -1.0000
vn -0.9488 -0.3159 0.0028
vn -0.9488 -0.3160 0.0028
vn 0.0025 0.0008 1.0000
vn 0.9488 0.3159 -0.0028
vn 0.9497 0.3132 0.0000
vn -0.2854 0.9584 -0.0002
vn -0.2849 0.9586 0.0000
vn -0.2848 0.9586 0.0000
vn -0.2847 0.9586 0.0000
vn -0.9464 -0.3229 0.0000
vn 0.2454 -0.9694 0.0000
vn 0.2453 -0.9694 0.0000
vn 0.9497 0.3133 0.0000
vn 0.9496 0.3134 0.0000
vn 0.9498 0.3128 0.0000
vn 0.3501 -0.9367 0.0000
vn -0.2854 0.9584 0.0000
vn 0.9496 0.3133 0.0001
vn 0.9497 0.3133 -0.0002
vn 0.3501 -0.9367 -0.0002
vn 0.3500 -0.9367 0.0000
vn -0.6323 -0.2166 0.7438
vn -0.6316 -0.2196 0.7435
vn -0.6307 -0.2189 0.7445
vn -0.6314 -0.2189 0.7439
vn -0.6341 -0.2170 0.7422
vn -0.6342 -0.2163 0.7423
vn -0.6351 -0.2174 0.7412
vn -0.6342 -0.2165 0.7422
vn -0.6229 -0.2140 0.7525
vn -0.6228 -0.2141 0.7525
vn -0.6209 -0.2123 0.7546
vn -0.6218 -0.2119 0.7540
vn -0.6217 -0.2124 0.7539
vn -0.6218 -0.2125 0.7538
vn -0.6212 -0.2161 0.7532
vn -0.6208 -0.2159 0.7536
vn -0.6203 -0.2158 0.7541
vn -0.6309 -0.2169 0.7449
vn -0.6307 -0.2173 0.7450
vn -0.6196 -0.2127 0.7555
vn -0.6199 -0.2122 0.7555
vn 0.4424 -0.8325 0.3335
vn -0.0121 -0.0143 0.9998
vn 0.1011 -0.6233 0.7754
vn -0.0151 -0.0097 0.9998
vn -0.0155 -0.0039 0.9999
vn -0.2989 0.5591 0.7733
vn -0.1780 0.8990 0.4002
vn 0.4512 -0.8465 0.2827
vn 0.0911 -0.5993 0.7953
vn 0.0102 -0.0196 0.9998
vn 0.0017 -0.0061 1.0000
vn 0.0009 0.0037 1.0000
vn -0.2898 0.5345 0.7939
vn -0.1650 0.9263 0.3387
vn 0.6458 0.2129 -0.7333
vn 0.3425 -0.9395 0.0056
vn 0.3425 -0.9395 0.0055
vn 0.1287 -0.9917 0.0056
vn -0.3276 0.9448 0.0054
vn -0.5264 0.8502 0.0056
vn -0.0018 -0.0006 -1.0000
vn 0.0007 -0.0018 -1.0000
vn 0.0005 -0.0018 -1.0000
vn 0.9395 0.3425 -0.0002
vn 0.9395 0.3425 0.0001
vn -0.0008 0.0017 1.0000
vn -0.0007 0.0017 1.0000
vn 0.0018 0.0006 1.0000
vn 0.0005 -0.0019 1.0000
vn 0.0007 -0.0017 1.0000
vn 0.9448 0.3275 -0.0004
vn 0.9448 0.3275 -0.0003
vn -0.0008 0.0017 -1.0000
vn -0.0006 0.0018 -1.0000
# 262 vertex normals

vt -0.2906 0.6765 0.5041
vt 1.1381 -0.2936 0.4933
vt 1.2476 1.6579 0.5157
vt -0.2519 1.6694 0.5107
vt -0.3145 0.0632 0.5001
vt -0.3290 -0.3098 0.4976
vt 0.0007 0.0005 0.9994
vt 0.9995 0.0005 0.0017
vt 0.9994 0.9995 0.0005
vt 0.0005 0.9995 0.9995
vt 0.0048 0.0473 -90.5000
vt 0.9981 0.0498 -90.5000
vt 0.9953 0.9526 -90.5000
vt 0.0020 0.9501 -91.5000
vt 1.1416 -0.6711 0.5054
vt -0.3714 -0.6878 0.5098
vt 1.4819 1.3887 0.1698
vt 1.1988 1.6181 0.2705
vt 1.1988 1.5184 0.2705
vt 1.4383 1.3243 0.1853
vt -2.1815 0.6715 0.3984
vt -2.1822 0.2451 0.3828
vt -0.1647 0.2395 0.4063
vt -0.1640 0.6659 0.3906
vt 1.0271 -2.1160 0.3277
vt 1.1988 -2.1160 0.2705
vt 1.1992 -0.4222 0.2714
vt 1.0270 -0.2522 0.3277
vt 1.0271 -0.1059 0.3277
vt 1.1990 0.0446 0.2705
vt 0.0006 0.9983 0.9877
vt 0.0005 0.0005 0.9995
vt 0.9995 0.0005 0.0107
vt 0.9995 0.9995 0.0005
vt -0.4820 1.4528 0.8303
vt -3.1606 1.6927 0.4997
vt -3.4010 -0.3439 0.5066
vt -1.8879 -0.3271 0.5021
vt -1.8425 1.6815 0.5053
vt -1.4932 1.6772 0.5054
vt -1.6744 1.6794 0.5053
vt -1.1008 0.6756 0.5039
vt -0.6957 0.6760 0.5040
vt 3.8458 0.9631 0.5108
vt 4.1641 -0.2600 0.4844
vt 4.2736 0.9362 0.5108
vt 4.1357 0.9632 0.5112
vt 2.6511 -0.2768 0.4889
vt 2.7402 0.9346 0.5091
vt 1.6974 0.1517 0.4975
vt 2.3952 0.1564 0.4965
vt 12.1104 -2.4813 0.7572
vt 13.0625 -2.4813 0.7572
vt 13.0625 -2.4741 0.7572
vt 12.1104 -2.4741 0.7572
vt 0.0006 0.0005 0.9995
vt 0.9995 0.0005 0.0034
vt 0.0005 0.9995 0.9982
vt 0.9993 0.9995 0.0005
vt 0.0005 0.9995 0.9961
vt 0.0013 0.0005 0.9995
vt 0.9995 0.0005 0.0102
vt 0.9993 0.9995 0.0006
vt 0.0007 0.0005 0.9983
vt 0.9995 0.0005 0.0005
vt -3.3974 -0.7214 0.5187
vt -1.8844 -0.7046 0.5143
vt 4.1676 -0.6375 0.4966
vt 2.6546 -0.6543 0.5010
vt -6.2164 0.6827 0.3906
vt -6.2172 0.2563 0.3281
vt -4.1997 0.2507 0.3672
vt -4.1989 0.6771 0.3828
vt 3.8703 0.2283 0.4453
vt 3.8710 0.6547 0.4141
vt 1.8535 0.6603 0.4141
vt 1.8528 0.2339 0.4219
vt 0.0005 0.9983 0.9834
vt 0.9994 0.0005 0.0138
vt 0.0006 0.9983 0.9862
vt 0.9994 0.0005 0.0123
vt 0.9995 0.0005 0.0081
vt 0.0005 0.9983 0.9894
vt 1.1990 -0.2759 0.2705
vt 0.0005 0.9995 0.9935
vt 0.0006 0.0005 0.9994
vt 0.9995 0.0005 0.0078
vt 13.0625 -2.2631 0.6222
vt 12.1104 -2.2631 0.6222
vt 12.1104 -2.3992 0.6222
vt 13.0625 -2.3992 0.6223
vt -2.4742 0.5007 13.0570
vt -2.4742 0.6357 13.0570
vt -2.4814 0.6357 13.0570
vt -2.4814 0.5007 13.0570
vt -2.2631 0.5007 13.0570
vt -2.2631 0.6222 13.0625
vt -2.3992 0.6223 13.0625
vt -2.3992 0.5007 13.0570
vt -12.0760 0.5007 -2.2281
vt -11.0970 0.5007 -2.2281
vt -11.0970 0.6356 -2.2281
vt -12.0760 0.6357 -2.2281
vt 3.2631 0.5007 12.0970
vt 3.2631 0.6356 12.0970
vt 3.2281 0.6356 12.0970
vt 3.2281 0.5007 12.0970
vt 3.4328 0.5007 12.0970
vt 3.4328 0.6357 12.0970
vt 3.3992 0.6357 12.0970
vt 3.3992 0.5007 12.0970
vt -12.0760 0.6357 -2.3992
vt -11.0970 0.6357 -2.3992
vt -11.0970 0.7706 -2.3992
vt -12.0760 0.7707 -2.3992
vt 3.4327 0.7706 12.0970
vt 3.3992 0.7706 12.0970
vt -2.4741 0.7572 13.0625
vt -2.4813 0.7572 13.0625
vt -12.0760 0.3267 -2.2281
vt -11.0970 0.3267 -2.2281
vt 13.0760 -2.2281 0.6357
vt 12.0970 -2.2281 0.6356
vt 12.0970 -2.2631 0.6356
vt 13.0760 -2.2631 0.6357
vt -2.2281 0.5007 13.0760
vt -2.2281 0.6357 13.0760
vt -2.2631 0.6357 13.0760
vt -2.2631 0.5007 13.0760
vt 3.3992 0.5007 12.1160
vt 3.3992 0.6222 12.1104
vt 3.2631 0.6222 12.1104
vt 3.2631 0.5007 12.1160
vt 13.0760 -2.3992 0.7707
vt 12.0970 -2.3992 0.7706
vt 12.0970 -2.4327 0.7706
vt 13.0760 -2.4327 0.7707
vt -2.3992 0.5007 13.0760
vt -2.3992 0.6357 13.0760
vt -2.4328 0.6357 13.0760
vt -2.4328 0.5007 13.0760
vt 3.4814 0.5007 12.1160
vt 3.4814 0.6357 12.1160
vt 3.4742 0.6357 12.1160
vt 3.4742 0.5007 12.1160
vt 3.4813 0.7572 12.1104
vt 3.4741 0.7572 12.1104
vt -2.3992 0.7707 13.0760
vt -2.4327 0.7707 13.0760
vt 13.0625 0.6222 -2.2631
vt 13.0570 0.5007 -2.2631
vt 13.0760 0.5007 -2.2631
vt 13.0760 0.6357 -2.2631
vt 12.0970 0.6356 -2.2631
vt 12.1104 0.6222 -2.2631
vt 12.0970 0.5007 -2.2631
vt 12.1160 0.5007 -2.2631
vt -11.1104 0.6222 -2.3992
vt -11.1160 0.5007 -2.3992
vt -11.0970 0.5007 -2.3992
vt -12.0625 0.6223 -2.3992
vt -12.0760 0.5007 -2.3992
vt -12.0570 0.5007 -2.3992
vt 13.0760 0.5007 -2.4328
vt 13.0760 0.6357 -2.4328
vt 13.0570 0.6357 -2.4328
vt 13.0570 0.5007 -2.4328
vt 13.0625 0.7572 -2.4327
vt 13.0760 0.7707 -2.4327
vt 12.0970 0.7706 -2.4327
vt 12.1104 0.7572 -2.4327
vt 12.0970 0.6357 -2.4328
vt 12.1160 0.6357 -2.4328
vt 12.0970 0.5007 -2.4328
vt 12.1160 0.5007 -2.4328
vt 26.7027 -1.1317 27.8004
vt 27.6593 -1.1195 27.3139
vt 27.6497 -0.7578 19.7578
vt 26.6931 -0.7700 20.2444
vt 27.6593 -1.1258 25.1251
vt 26.7027 -1.1379 25.6116
vt 26.6931 -0.7761 18.1137
vt 27.6497 -0.7639 17.6271
vt 0.9879 -0.0009 0.9375
vt 0.9879 0.9898 0.0000
vt 0.0005 0.8388 0.1875
vt 0.0005 -0.0009 0.9375
vt 0.9995 -0.0011 -56946.8125
vt 0.0005 -0.0011 -56946.6875
vt 0.0005 0.7707 -56947.4375
vt 0.9995 0.9979 -56947.7500
vt -1.1198 0.0583 0.5014
vt 1.8330 1.6531 0.5175
vt 1.8391 1.3562 0.5134
vt 2.6244 1.3449 0.5158
vt 2.7229 1.6469 0.5209
vt 2.4176 0.7114 0.5051
vt 2.7926 1.6461 0.5209
vt 1.3312 1.6566 0.5156
vt 1.7151 0.7101 0.5049
vt 1.3663 1.6564 0.5157
vt 1.4750 1.3614 0.5124
vt 0.0247 0.0556 0.5190
vt 0.5060 0.0527 0.2731
vt 0.1175 0.5870 0.1203
vt 0.3586 0.9144 0.0826
vt 0.6560 0.9128 0.4202
vt 0.8960 0.5828 1.0043
vt 0.9752 0.0503 0.0053
vt 0.0044 0.0614 0.7175
vt 0.5054 0.0584 0.3564
vt 0.1010 0.5833 0.2732
vt 0.3521 0.9048 0.1718
vt 0.6616 0.9031 0.4520
vt 0.9115 0.5788 1.0066
vt 0.9892 0.0556 0.0076
vt 4.3626 1.9092 0.5321
vt 4.1931 1.9107 0.5314
vt 1.6457 1.3589 0.5129
vt -0.4820 3.1160 0.8303
vt -0.3255 2.4223 0.7782
vt 0.0765 2.4235 0.6443
vt -0.3244 1.9986 0.7778
vt 0.0776 1.9998 0.6439
vt -12.9850 -2.1592 8.2762
vt -13.0208 -2.5392 8.2761
vt -12.7090 -2.5464 8.2761
vt -12.6887 -2.1646 8.2762
vt -12.9194 -1.4618 8.2763
vt -12.9552 -1.8417 8.2762
vt -12.6719 -1.8469 8.2762
vt -12.6517 -1.4653 8.2763
vt 14.0208 8.2761 -2.5392
vt 14.0208 8.7217 -2.5393
vt 13.7090 8.7217 -2.5465
vt 13.7090 8.2761 -2.5464
vt 8.2761 -2.5464 13.7090
vt 8.7217 -2.5465 13.7090
vt 8.7217 -2.1647 13.6887
vt 8.2762 -2.1646 13.6887
vt -12.6887 8.2762 -2.1646
vt -12.6887 8.7217 -2.1647
vt -12.9850 8.7217 -2.1593
vt -12.9850 8.2762 -2.1592
vt -7.2762 -2.1592 13.9850
vt -7.7217 -2.1593 13.9850
vt -7.7217 -2.5393 14.0208
vt -7.2761 -2.5392 14.0208
vt 8.2762 -1.8469 13.6719
vt 8.7218 -1.8470 13.6719
vt 8.7219 -1.4654 13.6517
vt 8.2763 -1.4653 13.6517
vt -12.6517 8.2763 -1.4653
vt -12.6517 8.7219 -1.4654
vt -12.9194 8.7219 -1.4619
vt -12.9194 8.2763 -1.4618
vt -7.2763 -1.4618 13.9194
vt -7.7219 -1.4619 13.9194
vt -7.7218 -1.8418 13.9552
vt -7.2762 -1.8417 13.9552
vt 13.9552 8.2762 -1.8417
vt 13.9552 8.7218 -1.8418
vt 13.6719 8.7218 -1.8470
vt 13.6719 8.2762 -1.8469
vt 3.8663 1.6378 0.5245
vt 1.6545 1.6544 0.5169
vt -3.1583 1.9740 0.5001
vt -3.3859 1.9759 0.4992
vt 1.0496 0.0247 -3.2753
vt 1.0496 -0.2959 -3.2753
vt 2.6229 3.0961 -2.9462
vt 1.0496 1.5111 -3.2753
vt 2.6229 -2.1360 -2.9462
vt 1.0496 -2.1360 -3.2753
vt 0.7664 1.3942 -3.3760
vt 0.8101 1.3171 -3.3605
vt 1.0496 1.6236 -3.2753
vt -0.0017 0.0247 -0.4717
vt -0.0020 -0.2959 -0.4717
vt 1.4238 -0.2959 0.0354
vt 1.4240 0.0247 0.0354
vt 1.9172 2.4356 -3.0938
vt 4.2753 0.0247 1.0496
vt 4.2753 1.5111 1.0496
vt 2.8496 1.5086 0.5425
vt 2.8496 0.0247 0.5425
vt -1.4274 0.0247 -0.9788
vt -2.8161 0.0246 -1.4727
vt -2.8161 -0.2959 -1.4727
vt -1.4277 -0.2959 -0.9788
vt 4.2753 -0.2959 1.0496
vt 2.8495 -0.2959 0.5425
vt -0.0016 -2.1360 -0.4716
vt 1.4240 -2.1360 0.0355
vt 1.0274 -1.2777 -0.1056
vt 0.3948 -1.2777 -0.3306
vt 1.0273 -0.4929 -0.1056
vt 0.3947 -0.4929 -0.3307
vt 1.4240 1.5061 0.0355
vt -0.0016 1.5035 -0.4716
vt 0.3948 1.1170 -0.3306
vt 1.0275 1.1181 -0.1056
vt 0.3948 0.2218 -0.3306
vt 1.0275 0.2218 -0.1056
vt 3.7930 -1.8478 0.8781
vt 4.2753 -2.1360 1.0496
vt 3.7930 -0.4929 0.8781
vt 3.7930 -1.8580 0.8781
vt 3.7930 -1.9116 0.8781
vt 3.7930 -1.9214 0.8781
vt 3.3318 -0.4929 0.7140
vt 3.3318 -1.9214 0.7140
vt 2.8496 -2.1360 0.5425
vt 3.3391 -2.1232 0.7166
vt 3.3318 -1.9116 0.7140
vt 3.3318 -1.8580 0.7140
vt 3.3318 -1.8478 0.7140
vt 2.4531 -1.2777 0.4015
vt 1.8204 -1.2777 0.1765
vt 2.4530 -0.4929 0.4015
vt 1.8204 -0.4929 0.1764
vt -1.0310 -0.4929 -0.8378
vt -0.3984 -0.4929 -0.6127
vt -1.0309 -1.2777 -0.8377
vt -1.4273 -2.1360 -0.9786
vt -0.3983 -1.2777 -0.6127
vt -1.8238 1.1130 -1.1197
vt -1.4273 1.5010 -0.9786
vt -2.8162 1.4984 -1.4726
vt -2.4564 1.1119 -1.3447
vt -2.4564 0.2217 -1.3448
vt -1.8238 0.2217 -1.1198
vt -1.0308 1.1145 -0.8376
vt -0.3982 1.1156 -0.6126
vt -1.0308 0.2218 -0.8377
vt -0.3982 0.2218 -0.6127
vt 2.4531 0.2218 0.4015
vt 1.8205 0.2218 0.1765
vt 2.4531 1.1207 0.4015
vt 1.8205 1.1196 0.1765
vt -2.8162 -2.1360 -1.4726
vt -1.8240 -1.2777 -1.1197
vt -2.4568 -1.2777 -1.3448
vt -1.8242 -0.4929 -1.1198
vt -2.4573 -0.4929 -1.3450
vt -2.8171 -0.4422 -1.4730
vt 0.1219 -2.7930 -0.4929
vt 0.2860 -2.3318 -0.4929
vt 0.2040 -2.3027 -0.4929
vt 0.0400 -2.7639 -0.4929
vt 0.7140 -0.4929 -2.3318
vt 0.7140 -1.8478 -2.3318
vt 0.7960 -1.8478 -2.3027
vt 0.7960 -0.4929 -2.3027
vt 0.1219 -1.8478 -2.7930
vt 0.1219 -0.4929 -2.7930
vt 0.0400 -0.4929 -2.7639
vt 0.0400 -1.8478 -2.7639
vt 3.7844 -1.8580 0.8750
vt 3.7847 -1.9116 0.8751
vt 3.3402 -1.9116 0.7170
vt 3.3404 -1.8580 0.7171
vt 3.7847 -1.9214 0.8751
vt 3.7850 -1.9821 0.8752
vt 3.7851 -1.9926 0.8752
vt 3.7858 -2.1232 0.8755
vt 3.3398 -1.9821 0.7169
vt 3.3401 -1.9214 0.7170
vt 3.3397 -1.9926 0.7168
vt 2.7557 3.1360 -2.8876
vt 2.6229 3.0020 -2.9462
vt 0.5648 0.6005 0.5636
vt 0.3953 0.6042 0.5473
vt 0.4062 0.4546 0.1930
vt 0.5757 0.4510 0.2093
vt -0.3540 0.2447 -1.9754
vt -0.3850 0.1058 -1.8881
vt 2.4662 0.1109 -0.8740
vt 2.4973 0.2549 -0.9613
vt -5.9830 0.2243 -3.9774
vt -6.0141 0.0956 -3.8901
vt -3.2363 0.1007 -2.9022
vt -3.2052 0.2345 -2.9895
vt 8.1688 0.1210 1.1542
vt 8.1998 0.2753 1.0669
vt 5.3486 0.2651 0.0528
vt 5.3175 0.1160 0.1401
vt 0.2374 -5.0685 -1.1271
vt 1.5027 -5.0685 -0.6771
vt 1.4048 -4.9647 -0.7119
vt 0.3352 -4.9647 -1.0924
vt 1.5025 -3.4989 -0.6772
vt 1.4047 -3.6028 -0.7120
vt 0.2372 -3.4989 -1.1273
vt 0.3350 -3.6028 -1.0925
vt 1.5028 -0.2769 -0.6771
vt 0.2375 -0.2791 -1.1271
vt 0.3354 -0.3828 -1.0923
vt 1.4050 -0.3809 -0.7119
vt 0.2375 -2.0696 -1.1272
vt 0.3353 -1.9658 -1.0924
vt 1.5028 -2.0696 -0.6772
vt 1.4050 -1.9658 -0.7120
vt 3.0887 -5.0685 -0.1130
vt 4.3540 -5.0685 0.3370
vt 4.2562 -4.9647 0.3022
vt 3.1865 -4.9647 -0.0782
vt 4.3539 -3.4989 0.3370
vt 4.2561 -3.6028 0.3022
vt 3.0886 -3.4989 -0.1131
vt 3.1864 -3.6028 -0.0783
vt -4.2005 -3.4990 -2.7055
vt -5.4668 -3.4990 -3.1559
vt -5.3689 -3.6028 -3.1211
vt -4.2983 -3.6028 -2.7402
vt -5.4658 -5.0685 -3.1555
vt -5.3680 -4.9647 -3.1208
vt -4.2002 -5.0685 -2.7054
vt -4.2980 -4.9647 -2.7402
vt -1.3489 -3.4989 -1.6914
vt -2.6142 -3.4989 -2.1415
vt -2.5164 -3.6028 -2.1067
vt -1.4467 -3.6028 -1.7262
vt -2.6140 -5.0685 -2.1413
vt -2.5162 -4.9647 -2.1065
vt -1.3487 -5.0685 -1.6913
vt -1.4465 -4.9647 -1.7261
vt -4.1997 -0.2871 -2.7053
vt -5.4649 -0.2893 -3.1553
vt -5.3671 -0.3930 -3.1205
vt -4.2975 -0.3911 -2.7401
vt -5.4649 -2.0698 -3.1555
vt -5.3671 -1.9660 -3.1207
vt -4.1998 -2.0697 -2.7055
vt -4.2976 -1.9659 -2.7402
vt -1.3485 -0.2820 -1.6912
vt -2.6137 -0.2842 -2.1412
vt -2.5159 -0.3879 -2.1064
vt -1.4463 -0.3860 -1.7260
vt -2.6138 -2.0696 -2.1414
vt -2.5160 -1.9658 -2.1066
vt -1.3485 -2.0696 -1.6913
vt -1.4463 -1.9658 -1.7261
vt 3.0888 -2.0696 -0.1130
vt 4.3541 -2.0696 0.3370
vt 4.2562 -1.9658 0.3022
vt 3.1866 -1.9658 -0.0783
vt 4.3541 -0.2718 0.3370
vt 4.2563 -0.3758 0.3022
vt 3.0888 -0.2740 -0.1130
vt 3.1866 -0.3777 -0.0782
vt -1.0924 0.6648 -4.9647
vt -0.7119 -0.4048 -4.9647
vt -0.5866 -0.3603 -4.9647
vt -0.9671 0.7094 -4.9647
vt 1.7119 -4.9647 -0.4048
vt 1.7120 -3.6028 -0.4047
vt 1.5867 -3.6028 -0.3601
vt 1.5866 -4.9647 -0.3603
vt 1.7120 -0.4047 -3.6028
vt 2.0925 0.6650 -3.6028
vt 1.9672 0.7096 -3.6028
vt 1.5867 -0.3601 -3.6028
vt -1.0925 -3.6028 0.6650
vt -1.0924 -4.9647 0.6648
vt -0.9671 -4.9647 0.7094
vt -0.9672 -3.6028 0.7096
vt 1.7119 -0.4050 -0.3809
vt 2.0923 0.6646 -0.3828
vt 1.9670 0.7092 -0.3828
vt 1.5866 -0.3604 -0.3809
vt -1.0923 -0.3828 0.6646
vt -1.0924 -1.9658 0.6647
vt -0.9671 -1.9658 0.7092
vt -0.9670 -0.3828 0.7092
vt -1.0924 0.6647 -1.9658
vt -0.7120 -0.4050 -1.9658
vt -0.5866 -0.3604 -1.9658
vt -0.9671 0.7092 -1.9658
vt 1.7120 -1.9658 -0.4050
vt 1.7119 -0.3809 -0.4050
vt 1.5866 -0.3809 -0.3604
vt 1.5866 -1.9658 -0.3604
vt -0.0782 -2.1865 -4.9647
vt 0.3022 -3.2562 -4.9647
vt 0.4275 -3.2116 -4.9647
vt 0.0471 -2.1420 -4.9647
vt 0.6978 -4.9647 -3.2562
vt 0.6978 -3.6028 -3.2561
vt 0.5725 -3.6028 -3.2115
vt 0.5725 -4.9647 -3.2116
vt 0.6978 -3.2561 -3.6028
vt 1.0783 -2.1864 -3.6028
vt 0.9530 -2.1418 -3.6028
vt 0.5725 -3.2115 -3.6028
vt -0.0783 -3.6028 -2.1864
vt -0.0782 -4.9647 -2.1865
vt 0.0471 -4.9647 -2.1420
vt 0.0470 -3.6028 -2.1418
vt 3.7402 5.2983 -3.6028
vt 4.1211 6.3689 -3.6028
vt 3.9958 6.4135 -3.6028
vt 3.6149 5.3429 -3.6028
vt -3.1211 -3.6028 6.3689
vt -3.1208 -4.9647 6.3680
vt -2.9955 -4.9647 6.4126
vt -2.9958 -3.6028 6.4135
vt -3.1208 6.3680 -4.9647
vt -2.7402 5.2980 -4.9647
vt -2.6149 5.3426 -4.9647
vt -2.9955 6.4126 -4.9647
vt 3.7402 -4.9647 5.2980
vt 3.7402 -3.6028 5.2983
vt 3.6149 -3.6028 5.3429
vt 3.6149 -4.9647 5.3426
vt 2.7262 2.4467 -3.6028
vt 3.1067 3.5164 -3.6028
vt 2.9814 3.5610 -3.6028
vt 2.6009 2.4913 -3.6028
vt -2.1067 -3.6028 3.5164
vt -2.1065 -4.9647 3.5162
vt -1.9812 -4.9647 3.5607
vt -1.9814 -3.6028 3.5610
vt -2.1065 3.5162 -4.9647
vt -1.7261 2.4465 -4.9647
vt -1.6008 2.4911 -4.9647
vt -1.9812 3.5607 -4.9647
vt 2.7261 -4.9647 2.4465
vt 2.7262 -3.6028 2.4467
vt 2.6009 -3.6028 2.4913
vt 2.6008 -4.9647 2.4911
vt 3.7401 5.2975 -0.3911
vt 4.1205 6.3671 -0.3930
vt 3.9952 6.4117 -0.3930
vt 3.6148 5.3421 -0.3911
vt -3.1205 -0.3930 6.3671
vt -3.1207 -1.9660 6.3671
vt -2.9954 -1.9660 6.4117
vt -2.9952 -0.3930 6.4117
vt -3.1207 6.3671 -1.9660
vt -2.7402 5.2976 -1.9659
vt -2.6149 5.3422 -1.9659
vt -2.9954 6.4117 -1.9660
vt 3.7402 -1.9659 5.2976
vt 3.7401 -0.3911 5.2975
vt 3.6148 -0.3911 5.3421
vt 3.6149 -1.9659 5.3422
vt 2.7260 2.4463 -0.3860
vt 3.1064 3.5159 -0.3879
vt 2.9811 3.5605 -0.3879
vt 2.6007 2.4909 -0.3860
vt -2.1064 -0.3879 3.5159
vt -2.1066 -1.9658 3.5160
vt -1.9812 -1.9658 3.5605
vt -1.9811 -0.3879 3.5605
vt -2.1066 3.5160 -1.9658
vt -1.7261 2.4463 -1.9658
vt -1.6008 2.4909 -1.9658
vt -1.9812 3.5605 -1.9658
vt 2.7261 -1.9658 2.4463
vt 2.7260 -0.3860 2.4463
vt 2.6007 -0.3860 2.4909
vt 2.6008 -1.9658 2.4909
vt -0.0783 -2.1866 -1.9658
vt 0.3022 -3.2562 -1.9658
vt 0.4275 -3.2117 -1.9658
vt 0.0471 -2.1420 -1.9658
vt 0.6978 -1.9658 -3.2562
vt 0.6978 -0.3758 -3.2563
vt 0.5724 -0.3758 -3.2117
vt 0.5725 -1.9658 -3.2117
vt 0.6978 -3.2563 -0.3758
vt 1.0782 -2.1866 -0.3777
vt 0.9529 -2.1421 -0.3777
vt 0.5724 -3.2117 -0.3758
vt -0.0782 -0.3777 -2.1866
vt -0.0783 -1.9658 -2.1866
vt 0.0471 -1.9658 -2.1420
vt 0.0471 -0.3777 -2.1421
vt 3.1910 -1.5245 6.0686
vt 3.0879 -1.2119 6.0686
vt 2.2687 -1.4566 6.0686
vt 2.3888 -1.8243 6.0686
vt -1.6908 4.9689 -1.3306
vt -1.2687 6.0686 -1.4566
vt -2.0879 6.0686 -1.2119
vt -2.0879 4.9689 -1.2119
vt -1.2119 5.1084 3.0879
vt -1.2119 4.9689 3.0879
vt -1.2119 6.0686 3.0879
vt -1.6908 4.8374 -1.3306
vt -1.6908 3.3077 -1.3306
vt -1.2687 2.9130 -1.4566
vt 2.4566 2.9130 2.2687
vt 2.8243 2.9110 2.3888
vt 2.8243 6.0686 2.3888
vt 2.4566 6.0686 2.2687
vt 3.1910 4.9689 -1.5245
vt 3.1910 5.1084 -1.5245
vt 3.1401 4.9689 -1.5435
vt 2.1664 2.2939 7.9320
vt 1.3624 2.2915 8.1998
vt 1.4433 2.2068 8.1729
vt 2.0860 2.2087 7.9588
vt 1.3647 1.4441 8.1990
vt 1.4451 1.5294 8.1723
vt 2.1687 1.4465 7.9313
vt 2.0878 1.5312 7.9582
vt 2.0860 7.9588 2.2087
vt 1.4433 8.1729 2.2068
vt 1.4174 8.0951 2.2068
vt 2.0601 7.8810 2.2087
vt -7.1729 2.2068 -0.4433
vt -7.1723 1.5294 -0.4451
vt -7.0945 1.5294 -0.4192
vt -7.0951 2.2068 -0.4174
vt -0.4451 8.1723 1.5294
vt -1.0878 7.9582 1.5312
vt -1.0619 7.8804 1.5312
vt -0.4192 8.0945 1.5294
vt 7.9582 1.5312 -1.0878
vt 7.9588 2.2087 -1.0860
vt 7.8810 2.2087 -1.0601
vt 7.8804 1.5312 -1.0619
vt -1.5245 5.1084 3.1910
vt -1.5245 6.0686 3.1910
vt -2.8863 5.5652 -5.5172
vt -3.0919 4.9689 -5.4561
vt -3.0627 4.9689 -5.4648
vt -2.0450 5.5652 -5.7672
vt -2.0450 1.5163 -5.7672
vt -3.0627 4.0895 -5.4648
vt -3.0627 2.4897 -5.4648
vt -3.7275 5.5652 -5.2673
vt -3.7275 5.1152 -5.2673
vt -3.7275 4.9689 -5.2673
vt 6.7672 5.5652 3.0450
vt 6.7672 1.5163 3.0450
vt 7.4540 1.5175 3.2793
vt 7.4540 5.5652 3.2793
vt 3.2793 1.5175 -6.4540
vt 4.9773 3.1255 -6.0242
vt 4.9772 5.1156 -6.0243
vt 4.9772 5.5652 -6.0243
vt 4.1283 5.5652 -6.2391
vt 3.2793 5.5652 -6.4540
vt 4.7213 -5.8837 5.5652
vt 4.9772 -6.0243 5.5652
vt 4.7275 -5.2673 5.5652
vt 4.5990 -5.5130 5.5652
vt 4.1404 -5.6493 5.5652
vt 3.8863 -5.5172 5.5652
vt 4.1283 -6.2391 5.5652
vt 4.2583 -6.0009 5.5652
vt 3.3002 -5.8989 5.5652
vt 3.7587 -5.7627 5.5652
vt 3.0450 -5.7672 5.5652
vt 3.2793 -6.4540 5.5652
vt 3.4084 -6.2161 5.5652
vt 3.8713 -6.0989 5.5652
vt -6.0243 5.1156 4.9772
vt -5.2673 5.1152 4.7275
vt -5.2673 5.5652 4.7275
vt -6.0243 5.5652 4.9772
vt -5.3229 4.9689 4.7458
vt -6.0242 3.1255 4.9773
vt -5.2673 3.1255 4.7275
vt -5.2673 4.9689 4.7275
vt 2.8032 4.0462 -1.6694
vt 2.3888 2.9110 -1.8243
vt 2.8032 3.3077 -1.6694
vt 2.3888 6.0686 -1.8243
vt 2.8032 4.9689 -1.6694
vt -3.7275 3.1255 -5.2673
vt 3.1910 6.0686 -1.5245
vt -1.5245 4.9689 3.1910
vt 1.0173 -4.3434 0.0060
vt 0.6529 -3.3190 0.0060
vt 0.6529 -3.3190 0.0005
vt 1.0173 -4.3434 0.0005
vt 1.5618 -4.1497 0.0191
vt 1.1975 -3.1253 0.0191
vt 1.6554 0.0318 0.9991
vt 1.6630 -0.4396 0.9757
vt 1.7441 -0.6736 0.9758
vt 1.2343 -0.8376 0.8898
vt 1.0702 -0.3691 0.8897
vt 0.8566 -0.2044 0.8659
vt 1.3178 -1.5217 0.8665
vt 1.3943 -1.2944 0.8901
vt 2.1119 -1.2969 0.9995
vt 1.8186 -0.9097 0.9749
vt -0.5135 3.7504 0.8662
vt -0.5800 3.5568 0.8466
vt 0.3088 3.8107 0.9909
vt 0.0147 4.2649 0.9705
vt 0.0458 4.5771 0.9908
vt -0.0803 4.5543 0.9710
vt -0.1792 4.8424 0.9710
vt -0.2172 5.3434 0.9906
vt -1.1119 5.0772 0.8461
vt -0.7206 4.3421 0.8661
vt -0.9349 4.9546 0.8659
vt -0.5985 3.8315 0.9226
vt -0.7349 4.1296 0.9685
vt -0.8626 4.4936 0.9688
vt -0.9419 4.8132 0.9221
vt 1.3401 -1.2261 0.9421
vt 1.2423 -0.9916 0.9756
vt 1.1474 -0.7214 0.9760
vt 1.0769 -0.4743 0.9417
vt 13.0625 -2.4327 0.7572
vt 12.1104 -2.4327 0.7572
vt 12.1104 -2.5703 0.7572
vt 13.0625 -2.5703 0.7573
vt -2.5703 0.6357 13.0570
vt -2.5703 0.5008 13.0570
vt -2.4328 0.5007 13.0570
vt -2.4328 0.6357 13.0570
vt -2.5703 0.7573 13.0625
vt -2.4327 0.7572 13.0625
vt 3.4328 0.6357 12.1160
vt 3.4328 0.5007 12.1160
vt 3.5703 0.5007 12.1160
vt 3.5703 0.6357 12.1160
vt 3.4327 0.7572 12.1104
vt 3.5703 0.7572 12.1104
vt 6.5182 -4.7319 1.1030
vt 6.5124 -4.2826 1.1009
vt 6.5120 -4.2465 1.1008
vt 5.6200 -4.2465 0.7835
vt 5.6196 -4.2826 0.7834
vt 5.6138 -4.7319 0.7813
# 733 texture coords

g Myyrivahe_62
usemtl Roof_Type1
s off
f 1/1/1 2/2/1 3/3/1 
f 3/3/2 4/4/2 1/1/2 
f 5/5/3 6/6/3 2/2/3 
f 2/2/3 1/1/3 5/5/3 
usemtl Windows_Type2
f 7/7/4 8/8/4 9/9/4 
f 9/9/4 10/10/4 7/7/4 
usemtl Windows_Type1
f 11/11/5 12/12/5 13/13/5 
f 13/13/6 14/14/6 11/11/6 
usemtl Roof_Type1
f 15/15/7 2/2/7 6/6/7 
f 6/6/8 16/16/8 15/15/8 
usemtl cream
f 17/17/9 18/18/9 19/19/9 
f 19/19/10 20/20/10 17/17/10 
usemtl Ceiling
f 21/21/11 22/22/11 23/23/11 
f 23/23/12 24/24/12 21/21/12 
usemtl cream
f 25/25/13 26/26/13 27/27/13 
f 27/27/14 28/28/14 25/25/14 
f 29/29/6 30/30/6 19/19/6 
usemtl Windows_Type2
f 31/31/15 32/32/15 33/33/15 
f 33/33/4 34/34/4 31/31/4 
usemtl cream
f 35/35/16 29/29/16 19/19/16 
usemtl Roof_Type1
f 36/36/17 18/37/17 37/38/17 
f 37/38/18 38/39/18 36/36/18 
f 39/40/19 40/41/19 41/42/19 
f 41/42/20 1/1/20 39/40/20 
f 42/43/21 1/1/21 41/42/21 
f 43/44/22 44/45/22 45/46/22 
f 45/46/23 46/47/23 43/44/23 
f 47/48/24 44/45/24 43/44/24 
f 43/44/25 48/49/25 47/48/25 
f 49/50/26 2/2/26 47/48/26 
f 47/48/27 50/51/27 49/50/27 
usemtl Steps
f 51/52/28 52/53/28 53/54/28 54/55/28 
usemtl Windows_Type2
f 55/56/4 56/57/4 57/9/4 
f 57/9/4 58/58/4 55/56/4 
f 59/59/29 60/60/29 61/61/29 
f 61/61/30 62/62/30 59/59/30 
f 63/63/31 64/10/31 65/64/31 
f 65/64/4 66/65/4 63/63/4 
usemtl Roof_Type1
f 18/37/32 17/66/32 67/67/32 
f 67/67/32 37/38/32 18/37/32 
f 16/16/8 6/6/8 37/38/8 
f 37/38/7 67/67/7 16/16/7 
f 68/68/7 44/45/7 47/48/7 
f 47/48/7 69/69/7 68/68/7 
f 69/69/7 47/48/7 2/2/7 
f 2/2/7 15/15/7 69/69/7 
usemtl Ceiling
f 70/70/12 71/71/12 72/72/12 
f 72/72/33 73/73/33 70/70/33 
f 73/73/33 72/72/33 22/22/33 
f 22/22/11 21/21/11 73/73/11 
f 20/74/34 19/75/34 74/76/34 
f 74/76/34 75/77/34 20/74/34 
f 75/77/12 74/76/12 24/24/12 
f 24/24/12 23/23/12 75/77/12 
usemtl Windows_Type2
f 76/78/35 77/32/35 78/79/35 
f 78/79/4 79/34/4 76/78/4 
f 80/80/30 81/32/30 82/81/30 
f 82/81/30 83/34/30 80/80/30 
f 84/82/15 85/34/15 86/83/15 
f 86/83/36 87/32/36 84/82/36 
usemtl cream
f 29/29/6 88/84/6 30/30/6 
usemtl Doors_Single
f 89/34/4 90/85/4 91/86/4 
f 91/86/36 92/87/36 89/34/36 
usemtl Steps
f 93/88/4 94/89/4 95/90/4 
f 95/90/4 96/91/4 93/88/4 
f 97/92/37 98/93/37 99/94/37 100/95/37 
f 101/96/38 93/97/38 96/98/38 
f 96/98/38 102/99/38 101/96/38 
f 103/100/39 104/101/39 105/102/39 
f 105/102/39 106/103/39 103/100/39 
f 107/104/40 108/105/40 105/106/40 
f 105/106/40 104/107/40 107/104/40 
f 109/108/40 110/109/40 111/110/40 
f 111/110/40 112/111/40 109/108/40 
f 113/112/39 111/113/39 114/114/39 
f 114/114/39 115/115/39 113/112/39 
f 110/109/41 116/116/41 114/117/41 
f 114/117/41 111/110/41 110/109/41 
f 98/93/42 53/118/42 52/119/42 99/94/42 
f 104/101/39 103/100/39 92/120/39 
f 92/120/39 91/121/39 104/101/39 
f 106/122/4 105/123/4 108/124/4 
f 108/124/4 117/125/4 106/122/4 
f 103/126/43 106/127/43 117/128/43 
f 117/128/43 118/129/43 103/126/43 
f 119/130/44 95/131/44 94/132/44 
f 94/132/44 120/133/44 119/130/44 
f 115/134/4 114/135/4 116/136/4 
f 116/136/4 121/137/4 115/134/4 
f 122/138/43 113/139/43 123/140/43 
f 123/140/43 124/141/43 122/138/43 
f 125/142/45 126/143/45 127/144/45 128/145/45 
f 126/143/46 51/146/46 54/147/46 127/144/46 
f 113/139/47 115/148/47 121/149/47 
f 121/149/47 123/140/47 113/139/47 
f 93/150/48 101/151/48 118/152/48 
f 118/152/48 117/153/48 93/150/48 
f 117/153/48 108/154/48 94/155/48 
f 94/155/48 93/150/48 117/153/48 
f 94/155/48 108/154/48 107/156/48 
f 107/156/48 120/157/48 94/155/48 
f 95/158/39 119/159/39 112/160/39 
f 112/160/39 111/113/39 95/158/39 
f 111/113/39 113/112/39 96/161/39 
f 96/161/39 95/158/39 111/113/39 
f 96/161/39 113/112/39 122/162/39 
f 122/162/39 102/163/39 96/161/39 
f 124/164/49 123/165/49 129/166/49 
f 129/166/49 130/167/49 124/164/49 
f 131/168/48 129/166/48 123/165/48 
f 123/165/48 121/169/48 131/168/48 
f 121/169/48 116/170/48 132/171/48 
f 132/171/48 131/168/48 121/169/48 
f 132/171/48 116/170/48 110/172/48 
f 110/172/50 133/173/50 132/171/50 
f 110/172/49 109/174/49 134/175/49 
f 134/175/51 133/173/51 110/172/51 
usemtl Roof_Type3
f 135/176/52 136/177/52 137/178/52 
f 137/178/52 138/179/52 135/176/52 
f 139/180/53 140/181/53 138/182/53 
f 138/182/53 137/183/53 139/180/53 
usemtl det1
f 141/184/54 142/185/54 139/186/54 
f 139/186/54 143/187/54 141/184/54 
f 144/188/55 145/189/55 140/190/55 
f 140/190/55 146/191/55 144/188/55 
usemtl Roof_Type1
f 41/42/56 40/41/56 38/39/56 
f 38/39/57 37/38/57 41/42/57 
f 41/42/58 37/38/58 147/192/58 
f 148/193/59 149/194/59 150/195/59 
f 150/195/60 151/196/60 148/193/60 
f 48/49/61 152/197/61 50/51/61 
f 50/51/62 47/48/62 48/49/62 
f 153/198/63 151/196/63 150/195/63 
f 150/195/64 48/49/64 153/198/64 
f 48/49/65 150/195/65 152/197/65 
f 154/199/66 49/50/66 155/200/66 
f 155/200/66 156/201/66 154/199/66 
f 157/202/67 156/201/67 155/200/67 
f 3/3/68 2/2/68 49/50/68 
f 49/50/69 154/199/69 3/3/69 
f 6/6/70 5/5/70 147/192/70 
f 147/192/71 37/38/71 6/6/71 
usemtl Roof_Windows
f 158/203/72 159/204/72 160/205/72 
f 160/205/73 159/204/73 161/206/73 
f 161/206/74 159/204/74 162/207/74 
f 162/207/75 159/204/75 163/208/75 
f 163/208/76 159/204/76 164/209/76 
f 165/210/77 166/211/77 167/212/77 
f 167/212/78 166/211/78 168/213/78 
f 168/213/79 166/211/79 169/214/79 
f 169/214/80 166/211/80 170/215/80 
f 170/215/81 166/211/81 171/216/81 
usemtl Roof_Type1
f 45/46/82 172/217/82 173/218/82 
f 173/218/83 46/47/83 45/46/83 
f 149/194/84 155/200/84 152/197/84 
f 152/197/85 150/195/85 149/194/85 
f 174/219/86 157/202/86 155/200/86 
f 155/200/87 149/194/87 174/219/87 
usemtl cream
f 175/220/16 176/221/16 177/222/16 
f 176/221/16 175/220/16 35/35/16 
f 35/35/6 178/223/6 176/221/6 
f 179/224/88 178/223/88 35/35/88 
f 35/35/16 19/19/16 179/224/16 
f 18/18/89 177/222/89 179/224/89 
f 179/224/16 19/19/16 18/18/16 
usemtl Dark_Grey
f 180/225/39 181/226/39 182/227/39 
f 182/227/39 183/228/39 180/225/39 
f 184/229/39 185/230/39 186/231/39 
f 186/231/39 187/232/39 184/229/39 
f 181/233/90 188/234/90 189/235/90 
f 189/235/90 182/236/90 181/233/90 
f 182/237/91 189/238/91 190/239/91 
f 190/239/91 183/240/91 182/237/91 
f 183/241/92 190/242/92 191/243/92 
f 191/243/92 180/244/92 183/241/92 
f 180/245/93 191/246/93 188/247/93 
f 188/247/93 181/248/93 180/245/93 
f 186/249/94 192/250/94 193/251/94 
f 193/251/94 187/252/94 186/249/94 
f 187/253/95 193/254/95 194/255/95 
f 194/255/95 184/256/95 187/253/95 
f 184/257/96 194/258/96 195/259/96 
f 195/259/96 185/260/96 184/257/96 
f 185/261/97 195/262/97 192/263/97 
f 192/263/97 186/264/97 185/261/97 
usemtl cream
f 177/222/98 18/18/98 175/220/98 
usemtl Roof_Type1
f 39/40/99 1/1/99 4/4/99 
f 153/198/100 48/49/100 43/44/100 
f 43/44/101 196/265/101 153/198/101 
f 157/202/102 174/219/102 197/266/102 
f 197/266/103 156/201/103 157/202/103 
f 36/36/104 198/267/104 175/268/104 
f 175/268/105 18/37/105 36/36/105 
usemtl Walls_Blue
f 199/269/106 200/270/106 172/271/106 
f 172/271/106 70/272/106 199/269/106 
f 201/273/106 172/271/106 200/270/106 
f 200/270/106 202/274/106 201/273/106 
f 68/275/107 71/276/107 70/272/107 
f 70/272/108 44/277/108 68/275/108 
f 203/278/31 204/279/31 205/280/31 
f 205/280/31 206/281/31 203/278/31 
f 45/282/106 44/277/106 70/272/106 
f 70/272/109 172/271/109 45/282/109 
f 199/283/4 70/284/4 73/285/4 
f 73/285/4 207/286/4 199/283/4 
f 208/287/4 30/288/4 88/289/4 
f 88/289/110 209/290/110 208/287/110 
f 208/287/110 209/290/110 204/279/110 
f 204/279/31 203/278/31 208/287/31 
f 200/291/4 199/283/4 207/286/4 
f 207/286/31 210/292/31 200/291/31 
f 210/292/31 207/286/31 206/281/31 
f 206/281/31 205/280/31 210/292/31 
f 211/293/4 212/294/4 213/295/4 
f 213/295/4 214/296/4 211/293/4 
f 213/295/4 212/294/4 205/280/4 
f 205/280/4 215/297/4 213/295/4 
f 205/280/30 204/279/30 216/298/30 
f 216/298/111 215/297/111 205/280/111 
f 214/296/112 216/298/112 204/279/112 
f 204/279/113 211/293/113 214/296/113 
f 21/299/4 24/300/4 217/301/4 
f 217/301/4 218/302/4 21/299/4 
f 217/301/4 24/300/4 203/278/4 
f 203/278/4 219/303/4 217/301/4 
f 203/278/31 206/281/31 220/304/31 
f 220/304/30 219/303/30 203/278/30 
f 218/302/113 220/304/113 206/281/113 
f 206/281/4 21/299/4 218/302/4 
f 103/305/4 202/306/4 200/291/4 
f 200/291/4 221/307/4 103/305/4 
f 118/308/4 122/309/4 202/306/4 
f 202/306/4 103/305/4 118/308/4 
f 124/310/4 202/306/4 122/309/4 
f 200/291/4 210/292/4 222/311/4 
f 222/311/31 221/307/31 200/291/31 
f 109/312/4 210/292/4 223/313/4 
f 223/313/4 224/314/4 109/312/4 
f 112/315/4 107/316/4 210/292/4 
f 210/292/4 109/312/4 112/315/4 
f 104/317/4 222/311/4 210/292/4 
f 210/292/4 107/316/4 104/317/4 
f 212/294/4 223/313/4 225/318/4 
f 225/318/4 226/319/4 212/294/4 
f 225/318/4 223/313/4 210/292/4 
f 210/292/4 227/320/4 225/318/4 
f 210/292/4 205/280/4 228/321/4 
f 228/321/110 227/320/110 210/292/110 
f 226/319/4 228/321/4 205/280/4 
f 205/280/4 212/294/4 226/319/4 
f 204/279/114 209/290/114 229/322/114 
f 229/322/111 230/323/111 204/279/111 
f 231/324/112 229/322/112 209/290/112 
f 209/290/4 232/325/4 231/324/4 
f 232/325/4 211/293/4 233/326/4 
f 233/326/4 231/324/4 232/325/4 
f 233/326/4 211/293/4 204/279/4 
f 204/279/4 230/323/4 233/326/4 
f 234/327/30 74/328/30 19/329/30 
f 19/329/114 235/330/114 234/327/114 
f 235/330/115 19/329/115 30/288/115 
f 30/288/30 236/331/30 235/330/30 
f 30/288/4 208/287/4 237/332/4 
f 237/332/4 236/331/4 30/288/4 
f 234/327/30 237/332/30 208/287/30 
f 208/287/30 74/328/30 234/327/30 
f 24/300/30 74/328/30 238/333/30 
f 238/333/4 239/334/4 24/300/4 
f 238/333/30 74/328/30 208/287/30 
f 208/287/30 240/335/30 238/333/30 
f 208/287/30 203/278/30 241/336/30 
f 241/336/111 240/335/111 208/287/111 
f 239/334/4 241/336/4 203/278/4 
f 203/278/4 24/300/4 239/334/4 
f 206/281/4 207/286/4 242/337/4 
f 242/337/30 243/338/30 206/281/30 
f 244/339/4 242/337/4 207/286/4 
f 207/286/113 73/285/113 244/339/113 
f 73/285/4 21/299/4 245/340/4 
f 245/340/30 244/339/30 73/285/30 
f 245/340/4 21/299/4 206/281/4 
f 206/281/4 243/338/4 245/340/4 
f 26/341/4 232/325/4 246/342/4 
f 246/342/4 247/343/4 26/341/4 
f 246/342/36 232/325/36 209/290/36 
f 209/290/36 248/344/36 246/342/36 
f 248/344/116 209/290/116 88/289/116 
f 88/289/117 249/345/117 248/344/117 
f 88/289/118 27/346/118 249/345/118 
f 247/343/29 249/345/29 27/346/29 
f 27/346/113 26/341/113 247/343/113 
f 221/347/48 222/348/48 90/349/48 
f 90/349/48 89/350/48 221/347/48 
f 222/351/119 104/352/119 91/353/119 
f 91/353/54 90/354/54 222/351/54 
f 103/355/55 221/356/55 89/357/55 
f 89/357/55 92/358/55 103/355/55 
f 122/309/120 118/308/120 101/359/120 
f 101/359/120 102/360/120 122/309/120 
f 107/316/120 112/315/120 119/361/120 
f 119/361/120 120/362/120 107/316/120 
f 124/310/121 130/363/121 250/364/121 251/365/121 
f 124/310/121 251/365/121 252/366/121 
f 253/367/122 134/368/122 109/312/122 254/369/122 
f 224/314/122 254/369/122 109/312/122 
f 124/310/4 252/366/4 202/306/4 
f 255/370/123 172/271/123 256/371/123 
usemtl Roof_Type1
f 255/372/124 257/373/124 173/374/124 172/375/124 
usemtl White_Paint
f 16/376/125 23/377/125 22/378/125 
f 22/378/126 15/379/126 16/376/126 
f 17/380/127 20/381/127 75/382/127 
f 75/382/128 67/383/128 17/380/128 
f 67/383/129 75/382/129 23/377/129 
f 23/377/130 16/376/130 67/383/130 
f 71/384/131 68/385/131 69/386/131 
f 69/386/132 72/387/132 71/384/132 
f 72/387/133 69/386/133 15/379/133 
f 15/379/134 22/378/134 72/387/134 
f 214/388/135 213/389/135 258/390/135 
f 258/390/136 259/391/136 214/388/136 
f 213/389/137 215/392/137 260/393/137 
f 260/393/138 258/390/138 213/389/138 
f 215/392/111 216/394/111 261/395/111 
f 261/395/30 260/393/30 215/392/30 
f 216/394/139 214/388/139 259/391/139 
f 259/391/29 261/395/29 216/394/29 
f 218/396/30 217/397/30 262/398/30 
f 262/398/30 263/399/30 218/396/30 
f 217/397/4 219/400/4 264/401/4 
f 264/401/36 262/398/36 217/397/36 
f 219/400/110 220/402/110 265/403/110 
f 265/403/30 264/401/30 219/400/30 
f 220/402/4 218/396/4 263/399/4 
f 263/399/140 265/403/140 220/402/140 
f 226/404/4 225/405/4 266/406/4 
f 266/406/135 267/407/135 226/404/135 
f 225/405/113 227/408/113 268/409/113 
f 268/409/4 266/406/4 225/405/4 
f 227/408/4 228/410/4 269/411/4 
f 269/411/4 268/409/4 227/408/4 
f 228/410/137 226/404/137 267/407/137 
f 267/407/31 269/411/31 228/410/31 
f 248/412/135 249/413/135 270/414/135 
f 270/414/141 271/415/141 248/412/141 
f 249/413/142 247/416/142 272/417/142 
f 272/417/143 270/414/143 249/413/143 
f 247/416/110 246/418/110 273/419/110 
f 273/419/144 272/417/144 247/416/144 
f 246/418/142 248/412/142 271/415/142 
f 271/415/145 273/419/145 246/418/145 
f 230/420/146 229/421/146 274/422/146 
f 274/422/4 275/423/4 230/420/4 
f 229/421/147 231/424/147 276/425/147 
f 276/425/148 274/422/148 229/421/148 
f 231/424/110 233/426/110 277/427/110 
f 277/427/30 276/425/30 231/424/30 
f 233/426/113 230/420/113 275/423/113 
f 275/423/29 277/427/29 233/426/29 
f 234/428/110 235/429/110 278/430/110 
f 278/430/30 279/431/30 234/428/30 
f 235/429/15 236/432/15 280/433/15 
f 280/433/140 278/430/140 235/429/140 
f 236/432/149 237/434/149 281/435/149 
f 281/435/15 280/433/15 236/432/15 
f 237/434/30 234/428/30 279/431/30 
f 279/431/142 281/435/142 237/434/142 
f 239/436/110 238/437/110 282/438/110 
f 282/438/4 283/439/4 239/436/4 
f 238/437/35 240/440/35 284/441/35 
f 284/441/140 282/438/140 238/437/140 
f 240/440/111 241/442/111 285/443/111 
f 285/443/114 284/441/114 240/440/114 
f 241/442/4 239/436/4 283/439/4 
f 283/439/145 285/443/145 241/442/145 
f 243/444/135 242/445/135 286/446/135 
f 286/446/150 287/447/150 243/444/150 
f 242/445/113 244/448/113 288/449/113 
f 288/449/138 286/446/138 242/445/138 
f 244/448/110 245/450/110 289/451/110 
f 289/451/30 288/449/30 244/448/30 
f 245/450/142 243/444/142 287/447/142 
f 287/447/140 289/451/140 245/450/140 
f 259/452/39 258/453/39 8/454/39 
f 8/454/39 7/455/39 259/452/39 
f 258/456/151 260/457/151 9/458/151 
f 9/458/152 8/459/152 258/456/152 
f 260/460/48 261/461/48 10/462/48 
f 10/462/48 9/463/48 260/460/48 
f 261/464/153 259/465/153 7/466/153 
f 7/466/154 10/467/154 261/464/154 
f 263/468/155 262/469/155 31/470/155 
f 31/470/155 34/471/155 263/468/155 
f 262/472/156 264/473/156 32/474/156 
f 32/474/157 31/475/157 262/472/157 
f 264/476/39 265/477/39 33/478/39 
f 33/478/39 32/479/39 264/476/39 
f 265/480/158 263/481/158 34/482/158 
f 34/482/55 33/483/55 265/480/55 
f 267/484/39 266/485/39 56/486/39 
f 56/486/39 55/487/39 267/484/39 
f 266/488/159 268/489/159 57/490/159 
f 57/490/159 56/491/159 266/488/159 
f 268/492/48 269/493/48 58/494/48 
f 58/494/48 57/495/48 268/492/48 
f 269/496/160 267/497/160 55/498/160 
f 55/498/153 58/499/153 269/496/153 
f 271/500/48 270/501/48 60/502/48 
f 60/502/48 59/503/48 271/500/48 
f 270/504/161 272/505/161 61/506/161 
f 61/506/161 60/507/161 270/504/161 
f 272/508/39 273/509/39 62/510/39 
f 62/510/39 61/511/39 272/508/39 
f 273/512/162 271/513/162 59/514/162 
f 59/514/162 62/515/162 273/512/162 
f 275/516/48 274/517/48 64/518/48 
f 64/518/48 63/519/48 275/516/48 
f 274/520/163 276/521/163 65/522/163 
f 65/522/164 64/523/164 274/520/164 
f 276/524/39 277/525/39 66/526/39 
f 66/526/39 65/527/39 276/524/39 
f 277/528/165 275/529/165 63/530/165 
f 63/530/162 66/531/162 277/528/162 
f 279/532/155 278/533/155 76/534/155 
f 76/534/155 79/535/155 279/532/155 
f 278/536/157 280/537/157 77/538/157 
f 77/538/157 76/539/157 278/536/157 
f 280/540/166 281/541/166 78/542/166 
f 78/542/166 77/543/166 280/540/166 
f 281/544/167 279/545/167 79/546/167 
f 79/546/168 78/547/168 281/544/168 
f 283/548/155 282/549/155 80/550/155 
f 80/550/155 83/551/155 283/548/155 
f 282/552/169 284/553/169 81/554/169 
f 81/554/157 80/555/157 282/552/157 
f 284/556/39 285/557/39 82/558/39 
f 82/558/39 81/559/39 284/556/39 
f 285/560/158 283/561/158 83/562/158 
f 83/562/170 82/563/170 285/560/170 
f 287/564/39 286/565/39 84/566/39 
f 84/566/39 87/567/39 287/564/39 
f 286/568/171 288/569/171 85/570/171 
f 85/570/172 84/571/172 286/568/172 
f 288/572/155 289/573/155 86/574/155 
f 86/574/155 85/575/155 288/572/155 
f 289/576/108 287/577/108 87/578/108 
f 87/578/156 86/579/156 289/576/156 
f 290/580/39 291/581/39 292/582/39 
f 292/582/39 293/583/39 290/580/39 
f 294/584/173 292/585/173 291/586/173 
f 291/586/174 295/587/174 294/584/174 
f 296/588/175 295/589/175 291/590/175 
f 297/591/176 197/592/176 174/593/176 
f 174/593/176 292/585/176 297/591/176 
f 174/594/177 149/595/177 293/596/177 
f 293/596/177 292/597/177 174/594/177 
f 298/598/178 299/599/178 300/600/178 
f 177/601/179 176/602/179 301/603/179 
f 301/603/180 302/604/180 177/601/180 
f 176/602/181 178/605/181 303/606/181 
f 303/606/182 301/603/182 176/602/182 
f 178/605/183 179/607/183 304/608/183 
f 304/608/184 303/606/184 178/605/184 
f 179/607/185 177/601/185 302/604/185 
f 302/604/182 304/608/182 179/607/182 
f 302/609/186 301/610/186 14/611/186 
f 14/611/186 13/612/186 302/609/186 
f 301/613/187 303/614/187 11/615/187 
f 11/615/188 14/616/188 301/613/188 
f 303/617/189 304/618/189 12/619/189 
f 12/619/189 11/620/189 303/617/189 
f 304/621/190 302/622/190 13/623/190 
f 13/623/190 12/624/190 304/621/190 
f 299/625/191 296/588/191 291/590/191 
f 291/590/191 290/626/191 299/625/191 
f 305/627/192 306/628/192 307/629/192 
f 307/629/193 308/630/193 305/627/193 
f 309/631/194 308/630/194 310/632/194 
f 310/632/194 311/633/194 309/631/194 
f 305/627/194 312/634/194 313/635/194 
f 306/628/194 305/627/194 313/635/194 
f 313/635/195 314/636/195 306/628/195 
f 308/637/196 309/638/196 315/639/196 
f 315/639/196 316/640/196 308/637/196 
f 315/641/197 317/642/197 318/643/197 
f 318/643/198 319/644/198 315/641/198 
f 315/641/198 319/644/198 320/645/198 
f 320/645/197 316/646/197 315/641/197 
f 188/647/39 319/648/39 312/649/39 
f 312/649/39 189/650/39 188/647/39 
f 190/651/39 189/650/39 312/649/39 
f 312/649/39 305/652/39 190/651/39 
f 190/651/39 305/652/39 320/653/39 
f 320/653/39 191/654/39 190/651/39 
f 188/647/39 191/654/39 320/653/39 
f 320/653/39 319/648/39 188/647/39 
f 193/655/39 192/656/39 305/652/39 
f 305/652/39 308/657/39 193/655/39 
f 193/655/39 308/657/39 316/658/39 
f 316/658/39 194/659/39 193/655/39 
f 195/660/39 194/659/39 316/658/39 
f 316/658/39 320/653/39 195/660/39 
f 195/660/39 320/653/39 305/652/39 
f 305/652/39 192/656/39 195/660/39 
f 318/661/199 313/662/199 312/663/199 
f 312/663/199 319/664/199 318/661/199 
f 321/665/200 317/666/200 322/667/200 
f 322/667/201 314/668/201 321/665/201 
f 323/669/202 149/670/202 148/671/202 
f 293/672/202 149/670/202 323/669/202 
f 323/669/202 324/673/202 293/672/202 
f 310/632/203 307/629/203 306/628/203 
f 306/628/194 322/674/194 310/632/194 
f 314/668/201 313/662/201 321/665/201 
f 314/636/195 322/674/195 306/628/195 
f 318/661/204 317/666/204 321/665/204 
f 321/665/205 313/662/205 318/661/205 
f 310/632/194 322/674/194 311/633/194 
f 294/584/176 297/591/176 292/585/176 
f 307/629/194 310/632/194 308/630/194 
f 324/673/206 300/600/206 299/599/206 
f 299/599/207 290/675/207 324/673/207 
f 324/673/202 290/675/202 293/672/202 
f 295/589/191 296/588/191 299/625/191 
f 299/625/191 298/676/191 295/589/191 
usemtl Roof_Windows_Color
f 136/677/4 135/678/4 140/679/4 
f 140/679/4 139/680/4 136/677/4 
f 136/677/54 139/680/54 137/681/54 
f 135/678/55 138/682/55 140/679/55 
f 155/683/208 325/684/208 326/685/208 
f 159/686/209 158/687/209 49/688/209 
f 49/688/210 50/689/210 159/686/210 
f 50/689/211 164/690/211 159/686/211 
f 164/690/212 50/689/212 152/691/212 
f 152/691/213 327/692/213 164/690/213 
f 326/685/214 327/692/214 152/691/214 
f 152/691/215 155/683/215 326/685/215 
f 171/693/216 5/694/216 1/695/216 
f 1/695/217 328/696/217 171/693/217 
f 328/696/218 1/695/218 42/697/218 
f 42/697/219 329/698/219 328/696/219 
f 330/699/220 329/698/220 42/697/220 
f 42/697/221 41/700/221 330/699/221 
f 147/701/222 166/702/222 165/703/222 
f 166/702/223 147/701/223 5/694/223 
f 5/694/224 171/693/224 166/702/224 
f 158/687/225 325/684/225 155/683/225 
f 155/683/226 49/688/226 158/687/226 
f 165/703/227 330/699/227 41/700/227 
f 41/700/228 147/701/228 165/703/228 
f 171/693/229 328/696/229 170/704/229 
f 328/696/230 329/698/230 169/705/230 
f 169/705/231 170/704/231 328/696/231 
f 169/705/232 329/698/232 168/706/232 
f 168/706/233 329/698/233 330/699/233 
f 330/699/234 167/707/234 168/706/234 
f 167/707/235 330/699/235 165/703/235 
f 164/690/236 327/692/236 163/708/236 
f 162/709/237 163/708/237 327/692/237 
f 327/692/238 326/685/238 162/709/238 
f 162/709/239 326/685/239 161/710/239 
f 161/710/240 326/685/240 325/684/240 
f 325/684/241 160/711/241 161/710/241 
f 160/711/242 325/684/242 158/687/242 
usemtl xxx
f 331/217/243 257/217/243 255/217/243 256/217/243 
usemtl Steps
f 332/55/112 333/54/112 131/712/112 132/713/112 
f 52/53/118 51/52/118 334/714/118 335/715/118 
f 100/95/244 99/94/244 336/716/244 337/717/244 
f 338/93/245 250/92/245 130/718/245 129/719/245 
f 99/94/246 52/119/246 335/720/246 336/716/246 
f 333/118/245 338/93/245 129/719/245 131/721/245 
f 253/145/45 339/144/45 133/722/45 134/723/45 
f 126/143/45 125/142/45 340/724/45 341/725/45 
f 339/144/247 332/147/247 132/726/247 133/722/247 
f 51/146/248 126/143/248 341/725/248 334/727/248 
f 335/715/249 334/714/249 342/714/249 343/715/249 
f 343/720/250 344/716/250 336/716/250 335/720/250 
f 337/717/251 336/716/251 344/716/251 252/717/251 
f 100/95/252 337/717/252 252/728/252 251/729/252 
f 97/92/253 100/95/253 251/729/253 250/730/253 
f 98/93/254 97/92/254 250/92/254 338/93/254 
f 333/118/255 53/118/255 98/93/255 338/93/255 
f 54/55/256 53/54/256 333/54/256 332/55/256 
f 332/147/257 339/144/257 127/144/257 54/147/257 
f 128/145/258 127/144/258 339/144/258 253/145/258 
f 125/142/259 128/145/259 253/731/259 254/732/259 
f 340/724/260 125/142/260 254/732/260 224/733/260 
f 341/725/261 340/724/261 224/724/261 345/725/261 
f 342/727/262 334/727/262 341/725/262 345/725/262 
# 33 polygons - 555 triangles

#
# object xxx
#

v  542522.1993 6589221.146 16.4441
v  542522.1993 6589221.146 15.7056
v  542522.0869 6589221.4848 15.7056
v  542522.0869 6589221.4848 17.2353
v  542522.5871 6589221.2909 17.3668
v  542522.5362 6589221.2719 17.3668
v  542522.1993 6589221.146 17.3668
v  542522.484 6589221.6035 17.3668
v  542522.0869 6589221.4848 17.3668
v  542519.4852 6589230.6979 12.7505
v  542519.3465 6589231.1194 12.7505
v  542519.3465 6589231.1194 16.0769
v  542519.4852 6589230.6979 16.0769
v  542519.0746 6589230.5623 15.7170
v  542519.0746 6589230.5623 12.7505
v  542522.7599 6589219.4565 15.7064
v  542522.8038 6589219.3243 15.7054
v  542523.4802 6589217.2862 15.7039
v  542523.4802 6589217.2862 12.7374
v  542521.8832 6589222.0985 15.7050
v  542521.9053 6589222.0319 15.7051
v  542520.886 6589225.1036 15.7087
v  542521.8306 6589222.2571 15.7071
v  542520.1041 6589227.4601 15.7050
v  542519.9899 6589227.804 15.7078
v  542519.884 6589228.1232 15.7104
v  542524.1759 6589216.4751 5.6128
v  542524.0697 6589216.7972 9.8054
v  542524.0697 6589216.7972 16.0769
v  542524.1759 6589216.4751 16.0769
v  542524.0697 6589216.7972 5.6215
v  542524.3734 6589216.7912 15.5234
v  542522.6754 6589216.3614 13.9154
v  542523.4588 6589217.3506 14.8876
v  542524.1236 6589217.5481 15.5234
v  542523.4802 6589217.2862 9.8054
v  542519.0746 6589230.5623 9.8184
v  542519.4852 6589230.6979 9.8184
v  542519.0746 6589230.5623 5.6128
v  542519.4852 6589230.6979 5.6128
v  542523.4802 6589217.2862 5.6084
v  542524.0697 6589216.7972 5.6084
v  542519.3465 6589231.1194 9.8184
v  542519.3465 6589231.1194 5.6128
v  542516.3285 6589230.1143 9.3404
v  542515.9842 6589230.0017 9.0004
v  542515.9847 6589229.9998 9.2930
v  542516.3284 6589230.1143 9.6330
v  542516.3284 6589230.1143 5.6128
# 49 vertices

vn 0.9491 0.3149 0.0000
vn 0.0000 0.0000 -1.0000
vn 0.9498 0.3127 0.0000
vn 0.3138 -0.9495 0.0000
vn 0.9491 0.3150 0.0000
vn 0.9497 0.3133 0.0000
vn 0.6422 0.2128 -0.7364
vn 0.6425 0.2142 -0.7357
vn 0.6424 0.2136 -0.7360
vn 0.6419 0.2118 -0.7369
vn 0.6384 0.7697 0.0000
vn -0.3162 0.9487 0.0018
vn -0.3168 0.9485 0.0067
vn -0.3166 0.9485 0.0049
vn -0.3160 0.9488 0.0000
# 15 vertex normals

vt 0.9995 0.0005 0.0081
vt 0.0006 0.9983 0.9862
vt 14.0997 3.7637 0.4996
vt 14.0997 0.7909 0.5002
vt -6.2164 0.6827 0.3906
vt 8.0031 -2.7490 9.4652
vt 8.1018 -2.3894 9.4710
vt -7.0111 -2.8110 9.1354
vt -7.2014 -2.3971 9.1140
vt 7.1790 -2.3893 9.4710
vt -3.1583 1.9740 0.5001
vt -3.3859 1.9759 0.4992
vt -3.1606 1.6927 0.4997
vt 2.7229 1.6469 0.5209
vt 2.7926 1.6461 0.5209
vt 3.8663 1.6378 0.5245
vt 1.6545 1.6544 0.5169
vt 1.8330 1.6531 0.5175
vt 1.3312 1.6566 0.5156
vt 1.3663 1.6564 0.5157
vt -0.2519 1.6694 0.5107
vt 1.2476 1.6579 0.5157
vt -1.4932 1.6772 0.5054
vt -1.6744 1.6794 0.5053
vt -1.8425 1.6815 0.5053
vt 4.3626 1.9092 0.5321
vt 4.1931 1.9107 0.5314
vt 4.1641 -0.2600 0.4844
vt -1.1008 0.6756 0.5039
vt -1.0316 3.3502 1.0076
vt 4.2736 0.9362 0.5108
vt 1.9947 3.4892 1.1003
vt 8.4639 -1.1196 -34.2410
vt 13.0760 -2.3079 0.5007
vt 13.0760 -2.2281 0.5007
vt 0.9953 0.9526 -90.5000
vt 7.2314 3.2447 0.5105
vt 6.7880 3.2516 0.5096
vt 16.1024 1.6074 2.1525
vt 16.5122 1.6090 2.2413
vt 0.0005 0.0005 0.9995
vt 0.9995 0.9995 0.0005
vt 0.9995 0.0005 0.0052
vt 9.1038 -2.5268 -3.2515
vt 0.0005 0.9980 0.9948
vt 8.0470 0.7909 0.5001
vt -2.6065 -3.0432 -0.9598
# 47 texture coords

g xxx
usemtl xxx
s off
f 346/734/263 347/735/263 348/736/263 349/737/263 
f 350/738/264 351/739/264 352/740/264 353/741/264 
f 353/741/264 352/740/264 354/742/264 
f 349/737/263 354/742/263 352/740/263 346/743/263 
f 355/744/265 356/745/265 357/745/265 358/744/265 
f 358/744/266 359/746/266 360/746/266 355/744/266 
f 361/747/267 362/748/267 363/749/267 364/749/267 
f 364/749/267 348/750/267 347/751/267 361/747/267 
f 364/749/267 365/752/267 366/753/267 348/750/267 
f 364/749/263 367/754/263 368/755/263 365/752/263 
f 369/756/267 367/754/267 364/749/267 370/757/267 
f 359/746/267 371/758/267 370/757/267 364/749/267 
f 359/746/267 364/749/267 360/746/267 
f 372/759/268 373/760/268 374/760/268 375/759/268 
f 372/759/268 376/760/268 373/760/268 
s 1
f 377/761/269 378/762/270 379/763/271 380/764/272 
f 363/765/273 373/766/273 381/767/273 364/768/273 
f 374/769/273 373/766/273 363/765/273 
s off
f 382/746/266 383/744/266 355/744/266 360/746/266 
f 382/746/267 360/746/267 364/749/267 381/749/267 
f 382/746/266 384/746/266 385/744/266 383/744/266 
f 386/749/267 384/746/267 382/746/267 381/749/267 
f 373/766/273 387/766/273 386/767/273 381/767/273 
f 355/770/265 383/770/265 388/771/265 356/771/265 
f 388/772/265 383/773/265 385/773/265 389/772/265 
s 1
f 390/774/274 391/775/275 392/776/276 393/777/277 
s 2
f 394/778/277 390/774/277 388/779/277 389/780/277 
s off
f 393/777/277 356/780/277 388/771/277 390/774/277 
# 24 polygons - 4 triangles

