# 3ds Max Wavefront OBJ Exporter v0.97b - (c)2007 guruware
# File Created: 20.10.2011 14:19:16

mtllib Uus_29_2-origo.mtl

#
# object uus29_2
#

v  542513.4948 6589486.5601 15.4243
v  542512.5416 6589499.8895 15.4243
v  542510.139 6589487.1443 16.0809
v  542510.1976 6589486.3242 16.0809
v  542510.0343 6589488.6077 16.0809
v  542509.9406 6589489.9182 16.0809
v  542509.713 6589493.101 16.0809
v  542509.8228 6589491.5646 16.0809
v  542509.5925 6589494.786 16.0809
v  542509.4754 6589496.4235 16.0809
v  542509.2444 6589499.6538 16.0809
v  542509.3596 6589498.0422 16.0809
v  542510.139 6589487.1443 15.8729
v  542512.5416 6589499.8895 15.2163
v  542513.4948 6589486.5601 15.2163
v  542510.1976 6589486.3243 15.8729
v  542510.0343 6589488.6077 15.8729
v  542509.9406 6589489.9182 15.8729
v  542509.713 6589493.1011 15.8729
v  542509.8228 6589491.5646 15.8729
v  542509.5925 6589494.786 15.8729
v  542509.4754 6589496.4235 15.8729
v  542509.3596 6589498.0422 15.8729
v  542509.2443 6589499.6538 15.8729
v  542512.1331 6589499.3431 15.3227
v  542511.9837 6589499.3318 15.3227
v  542511.9836 6589499.3318 12.4118
v  542512.1331 6589499.3432 12.4118
v  542512.1217 6589499.4928 15.3227
v  542512.1217 6589499.4928 12.4118
v  542511.9721 6589499.4814 15.3227
v  542511.9721 6589499.4814 12.4118
v  542512.2055 6589498.3309 15.3227
v  542512.056 6589498.3195 15.3227
v  542512.056 6589498.3195 12.4118
v  542512.2055 6589498.3309 12.4118
v  542512.1941 6589498.4804 15.3227
v  542512.1941 6589498.4804 12.4118
v  542512.0445 6589498.469 15.3227
v  542512.0445 6589498.469 12.4118
v  542512.2805 6589497.2821 15.3227
v  542512.1309 6589497.2708 15.3227
v  542512.1309 6589497.2708 12.4118
v  542512.2805 6589497.2821 12.4118
v  542512.2691 6589497.4317 15.3227
v  542512.2691 6589497.4317 12.4118
v  542512.1194 6589497.4203 15.3227
v  542512.1194 6589497.4203 12.4118
v  542512.3497 6589496.3142 15.3227
v  542512.2002 6589496.3028 15.3227
v  542512.2002 6589496.3028 12.4118
v  542512.3497 6589496.3142 12.4118
v  542512.3384 6589496.4638 15.3227
v  542512.3384 6589496.4637 12.4118
v  542512.1886 6589496.4524 15.3227
v  542512.1886 6589496.4524 12.4118
v  542512.4228 6589495.2914 15.3227
v  542512.2733 6589495.28 15.3227
v  542512.2733 6589495.28 12.4118
v  542512.4228 6589495.2914 12.4118
v  542512.4114 6589495.4409 15.3227
v  542512.4114 6589495.4409 12.4118
v  542512.2618 6589495.4296 15.3227
v  542512.2618 6589495.4296 12.4118
v  542512.4835 6589494.4439 15.3227
v  542512.334 6589494.4326 15.3227
v  542512.3339 6589494.4325 12.4118
v  542512.4835 6589494.4439 12.4118
v  542512.4721 6589494.5934 15.3227
v  542512.4721 6589494.5934 12.4118
v  542512.3225 6589494.5822 15.3227
v  542512.3224 6589494.5822 12.4118
v  542512.5613 6589493.3556 15.3227
v  542512.4117 6589493.3441 15.3227
v  542512.4117 6589493.3441 12.4118
v  542512.5613 6589493.3556 12.4118
v  542512.5499 6589493.5052 15.3227
v  542512.5499 6589493.5052 12.4118
v  542512.4002 6589493.4937 15.3227
v  542512.4002 6589493.4937 12.4118
v  542512.71 6589491.2766 15.3227
v  542512.5604 6589491.2652 15.3227
v  542512.5604 6589491.2652 12.4118
v  542512.71 6589491.2766 12.4118
v  542512.6986 6589491.4261 15.3227
v  542512.6986 6589491.4261 12.4118
v  542512.5489 6589491.4147 15.3227
v  542512.5489 6589491.4147 12.4118
v  542512.7769 6589490.3403 15.3227
v  542512.6274 6589490.3289 15.3227
v  542512.6274 6589490.3289 12.4118
v  542512.7769 6589490.3403 12.4118
v  542512.7656 6589490.4899 15.3227
v  542512.7656 6589490.4898 12.4118
v  542512.6159 6589490.4784 15.3227
v  542512.6159 6589490.4784 12.4118
v  542512.8521 6589489.2887 15.3227
v  542512.7026 6589489.2773 15.3227
v  542512.7026 6589489.2772 12.4118
v  542512.8521 6589489.2886 12.4118
v  542512.8407 6589489.4382 15.3227
v  542512.8407 6589489.4382 12.4118
v  542512.6911 6589489.4268 15.3227
v  542512.6911 6589489.4268 12.4118
v  542512.9233 6589488.293 15.3227
v  542512.7738 6589488.2816 15.3227
v  542512.7738 6589488.2816 12.4118
v  542512.9233 6589488.293 12.4118
v  542512.9119 6589488.4425 15.3227
v  542512.9119 6589488.4425 12.4118
v  542512.7623 6589488.4312 15.3227
v  542512.7623 6589488.4312 12.4118
v  542513.0444 6589486.599 15.3227
v  542512.8949 6589486.5877 15.3227
v  542512.8949 6589486.5876 12.4118
v  542513.0444 6589486.599 12.4118
v  542513.033 6589486.7487 15.3227
v  542513.033 6589486.7487 12.4118
v  542512.8834 6589486.7372 15.3227
v  542512.8834 6589486.7372 12.4118
v  542509.3927 6589499.3115 15.9487
v  542509.2432 6589499.3001 15.9487
v  542509.2432 6589499.3001 12.5156
v  542509.3928 6589499.3115 12.5156
v  542509.3814 6589499.4611 15.9487
v  542509.3814 6589499.4611 12.5156
v  542509.2317 6589499.4496 15.9487
v  542509.2317 6589499.4496 12.5156
v  542510.3158 6589486.4039 15.9487
v  542510.1662 6589486.3924 15.9487
v  542510.1662 6589486.3925 13.6033
v  542510.3158 6589486.4039 13.6033
v  542510.3044 6589486.5535 15.9487
v  542510.3044 6589486.5535 13.6033
v  542510.1547 6589486.5421 15.9487
v  542510.1547 6589486.5421 13.6033
v  542512.6336 6589492.3447 15.3227
v  542512.484 6589492.3333 15.3227
v  542512.484 6589492.3333 12.4118
v  542512.6336 6589492.3446 12.4118
v  542512.6222 6589492.4942 15.3227
v  542512.6222 6589492.4942 12.4118
v  542512.4725 6589492.4828 15.3227
v  542512.4725 6589492.4828 12.4118
v  542512.9842 6589487.4406 15.3227
v  542512.8347 6589487.4292 15.3227
v  542512.8347 6589487.4292 12.4118
v  542512.9842 6589487.4405 12.4118
v  542512.9728 6589487.5902 15.3227
v  542512.9728 6589487.5902 12.4118
v  542512.8232 6589487.5788 15.3227
v  542512.8232 6589487.5787 12.4118
v  542513.4948 6589486.5601 13.9029
v  542513.0843 6589492.3011 13.9029
v  542510.139 6589487.1443 13.9029
v  542510.1976 6589486.3242 13.9029
v  542513.0027 6589493.4413 13.9029
v  542512.5416 6589499.8895 13.9029
v  542510.0343 6589488.6077 13.9029
v  542509.9406 6589489.9182 13.9029
v  542509.713 6589493.101 13.9029
v  542509.8228 6589491.5646 13.9029
v  542509.5925 6589494.786 13.9029
v  542509.4754 6589496.4235 13.9029
v  542509.2444 6589499.6538 13.9029
v  542509.3596 6589498.0422 13.9029
v  542512.5416 6589499.8895 8.5916
v  542509.2444 6589499.6538 8.5916
v  542510.1976 6589486.3243 8.5916
v  542513.4948 6589486.5601 8.5916
v  542513.0026 6589493.4413 13.2991
v  542513.0027 6589493.4413 11.3408
v  542513.0027 6589493.4413 8.5916
v  542513.0027 6589493.4413 11.5014
v  542513.0027 6589493.4413 11.6763
v  542513.0843 6589492.3011 8.5916
v  542513.0843 6589492.3011 11.3408
v  542513.0843 6589492.3011 11.5014
v  542513.0843 6589492.3011 11.6763
v  542513.0843 6589492.3011 13.2991
v  542513.3019 6589493.4627 11.5014
v  542513.3835 6589492.3225 11.5014
v  542513.3835 6589492.3225 11.3408
v  542513.3019 6589493.4627 11.3408
v  542513.1523 6589493.452 11.6763
v  542513.2339 6589492.3118 11.6763
v  542513.2339 6589492.3118 11.5014
v  542513.1523 6589493.452 11.5014
v  542513.5331 6589492.3333 8.5916
v  542513.4516 6589493.4734 8.5916
v  542513.4515 6589493.4734 11.3408
v  542513.5331 6589492.3332 11.3408
v  542513.2339 6589492.3118 11.3408
v  542513.2339 6589492.3118 8.5916
v  542513.1523 6589493.452 11.3408
v  542513.1523 6589493.452 8.5916
v  542513.3835 6589492.3225 8.5916
v  542513.3019 6589493.4627 8.5916
# 198 vertices

vn 0.1943 0.0139 0.9808
vn -0.1943 -0.0139 -0.9808
vn 0.9975 0.0713 -0.0000
vn 0.9975 0.0713 -0.0001
vn -0.0713 0.9975 0.0000
vn 0.0714 -0.9975 0.0001
vn 0.0713 -0.9975 -0.0006
vn 0.0757 -0.9971 -0.0000
vn 0.0759 -0.9971 -0.0000
vn 0.9971 0.0761 -0.0000
vn 0.9971 0.0760 -0.0000
vn 0.9971 0.0760 0.0000
vn -0.0761 0.9971 0.0000
vn -0.9970 -0.0771 0.0000
vn -0.9970 -0.0768 0.0000
vn 0.0759 -0.9971 0.0000
vn 0.9971 0.0758 0.0000
vn -0.0763 0.9971 0.0000
vn -0.9971 -0.0767 0.0000
vn -0.9971 -0.0766 0.0000
vn -0.0760 0.9971 0.0000
vn 0.0761 -0.9971 0.0000
vn 0.9971 0.0758 -0.0000
vn -0.0758 0.9971 -0.0000
vn 0.9971 0.0759 -0.0000
vn -0.0759 0.9971 -0.0000
vn -0.0755 0.9971 -0.0000
vn -0.0755 0.9971 0.0000
vn 0.9971 0.0762 0.0000
vn -0.0753 0.9972 0.0000
vn -0.9971 -0.0765 0.0000
vn 0.0765 -0.9971 0.0000
vn -0.9970 -0.0769 0.0000
vn 0.0755 -0.9971 0.0000
vn 0.9972 0.0754 -0.0000
vn 0.9972 0.0754 0.0000
vn -0.0764 0.9971 -0.0000
vn 0.9971 0.0759 0.0000
vn 0.0763 -0.9971 0.0000
vn 0.0757 -0.9971 0.0000
vn 0.9971 0.0762 -0.0000
vn 0.9971 0.0761 0.0000
vn -0.0761 0.9971 -0.0000
vn -0.0763 0.9971 -0.0000
vn 0.0763 -0.9971 -0.0000
vn 0.0761 -0.9971 -0.0000
vn -0.0758 0.9971 0.0000
vn -0.0756 0.9971 0.0000
vn -0.9970 -0.0770 0.0000
vn 0.0000 0.0000 1.0000
vn 0.0714 -0.9975 -0.0000
vn 0.0714 -0.9974 -0.0000
vn 0.0713 -0.9975 -0.0000
vn 0.0713 -0.9975 0.0000
vn 0.9975 0.0713 0.0000
vn 0.9975 0.0714 -0.0001
vn -0.0000 0.0000 -1.0000
vn 0.0000 -0.0000 -1.0000
vn -0.0000 -0.0000 -1.0000
vn 0.0000 0.0000 -1.0000
vn 0.9974 0.0714 0.0000
vn 0.9975 0.0714 0.0000
vn -0.0000 -0.0000 1.0000
vn 0.0713 -0.9975 0.0001
vn 0.0714 -0.9974 0.0000
vn -0.0714 0.9974 -0.0000
vn -0.0714 0.9974 0.0000
# 67 vertex normals

vt 5.9972 -9.6109 -1.9393
vt 32.7243 -9.5301 -1.9393
vt 7.6214 -2.9946 -1.8141
vt 5.9772 -2.9996 -1.8141
vt 10.5556 -2.9858 -1.8141
vt 13.1833 -2.9778 -1.8141
vt 19.5653 -2.9585 -1.8141
vt 16.4846 -2.9678 -1.8141
vt 22.9438 -2.9483 -1.8141
vt 26.2272 -2.9384 -1.8141
vt 32.7043 -2.9188 -1.8141
vt 29.4727 -2.9286 -1.8141
vt 7.6214 -2.9946 -1.8538
vt 32.7243 -9.5301 -1.9789
vt 5.9972 -9.6109 -1.9789
vt 5.9772 -2.9996 -1.8538
vt 10.5556 -2.9858 -1.8538
vt 13.1833 -2.9778 -1.8538
vt 19.5653 -2.9585 -1.8538
vt 16.4846 -2.9678 -1.8538
vt 22.9438 -2.9483 -1.8538
vt 26.2272 -2.9384 -1.8538
vt 29.4727 -2.9286 -1.8538
vt 32.7043 -2.9188 -1.8538
vt 3.1965 15.2478 123.6642
vt 3.1965 15.5307 123.5642
vt -2.6253 15.5307 123.5642
vt -2.6253 15.2478 123.6642
vt -2.1965 123.9470 15.3479
vt -2.1965 123.6642 15.2478
vt 3.6253 123.6642 15.2478
vt 3.6253 123.9470 15.3479
vt -2.1965 15.6308 123.8470
vt -2.1965 15.3479 123.9470
vt 3.6253 15.3479 123.9470
vt 3.6253 15.6308 123.8470
vt 3.1965 123.5642 15.5307
vt 3.1965 123.8470 15.6308
vt -2.6253 123.8470 15.6308
vt -2.6253 123.5642 15.5307
vt 1.2084 -1.6823 1.3852
vt 1.0716 0.2314 1.3852
vt 0.0898 -1.4875 1.3852
vt 0.1093 -1.7609 1.3852
vt 1.0444 0.6115 1.3852
vt 0.8907 2.7609 1.3852
vt 0.0549 -0.9997 1.3852
vt 0.0237 -0.5629 1.3852
vt -0.0522 0.4980 1.3852
vt -0.0156 -0.0141 1.3852
vt -0.0924 1.0597 1.3852
vt -0.1314 1.6055 1.3852
vt -0.2084 2.6823 1.3852
vt -0.1700 2.1451 1.3852
vt 1.2084 1.3852 2.6823
vt 0.1093 1.3852 2.7609
vt 0.1093 -0.3852 2.7609
vt 1.2084 -0.3852 2.6823
vt 1.2084 1.3852 -1.6823
vt 0.1093 1.3852 -1.7609
vt 0.1093 -0.3852 -1.7608
vt 1.2084 -0.3852 -1.6823
vt 0.6115 1.1840 1.0444
vt 2.7609 -0.3852 0.8907
vt 2.7609 1.3852 0.8907
vt 0.6115 1.3852 1.0444
vt 0.6115 0.5312 1.0444
vt 0.6115 -0.3852 1.0444
vt 0.6115 0.5847 1.0444
vt 0.6115 0.6430 1.0444
vt -1.6823 -0.3852 1.2084
vt 0.2314 -0.3852 1.0716
vt 0.2314 0.5312 1.0716
vt 0.2314 0.5847 1.0716
vt 0.2314 0.6430 1.0716
vt -1.6823 1.3852 1.2084
vt 0.2314 1.1840 1.0716
vt 0.2314 1.3852 1.0716
vt 0.2493 2.6287 0.8882
vt 0.2455 2.5788 0.8882
vt 0.2953 2.5750 0.8882
vt 0.2992 2.6248 0.8882
vt 0.2252 2.2912 0.8882
vt 0.2214 2.2414 0.8882
vt 0.2712 2.2376 0.8882
vt 0.2750 2.2874 0.8882
vt 0.2002 1.9416 0.8882
vt 0.1964 1.8918 0.8882
vt 0.2462 1.8880 0.8882
vt 0.2501 1.9378 0.8882
vt 0.1771 1.6190 0.8882
vt 0.1733 1.5691 0.8882
vt 0.2231 1.5653 0.8882
vt 0.2270 1.6152 0.8882
vt 0.1527 1.2780 0.8882
vt 0.1489 1.2282 0.8882
vt 0.1988 1.2244 0.8882
vt 0.2026 1.2742 0.8882
vt 0.1325 0.9955 0.8882
vt 0.1287 0.9457 0.8882
vt 0.1786 0.9419 0.8882
vt 0.1824 0.9918 0.8882
vt 0.1066 0.6328 0.8882
vt 0.1028 0.5829 0.8882
vt 0.1526 0.5791 0.8882
vt 0.1565 0.6290 0.8882
vt 0.0570 -0.0602 0.8882
vt 0.0532 -0.1101 0.8882
vt 0.1031 -0.1139 0.8882
vt 0.1069 -0.0640 0.8882
vt 0.0347 -0.3723 0.8882
vt 0.0309 -0.4222 0.8882
vt 0.0807 -0.4260 0.8882
vt 0.0846 -0.3761 0.8882
vt 0.0096 -0.7229 0.8882
vt 0.0058 -0.7727 0.8882
vt 0.0557 -0.7765 0.8882
vt 0.0595 -0.7267 0.8882
vt -0.0141 -1.0548 0.8882
vt -0.0179 -1.1046 0.8882
vt 0.0319 -1.1084 0.8882
vt 0.0358 -1.0586 0.8882
vt -0.0545 -1.6194 0.8882
vt -0.0583 -1.6693 0.8882
vt -0.0085 -1.6731 0.8882
vt -0.0046 -1.6232 0.8882
vt 0.0825 0.2958 0.8882
vt 0.0787 0.2459 0.8882
vt 0.1285 0.2421 0.8882
vt 0.1324 0.2920 0.8882
vt -0.0344 -1.3389 0.8882
vt -0.0382 -1.3888 0.8882
vt 0.0116 -1.3925 0.8882
vt 0.0155 -1.3427 0.8882
vt 1.0754 1.8674 0.5340
vt -0.0647 1.8674 0.6156
vt -0.0647 1.7068 0.6156
vt 1.0754 1.7068 0.5340
vt 1.0647 2.0424 0.3844
vt -0.0754 2.0424 0.4660
vt -0.0754 1.8674 0.4660
vt 1.0647 1.8674 0.3844
vt -0.0540 -1.0424 0.7652
vt 1.0862 -1.0424 0.6837
vt 1.0862 1.7068 0.6836
vt -0.0540 1.7068 0.7652
vt 0.2348 1.0540 2.0424
vt 0.3164 -0.0862 2.0424
vt 0.4660 -0.0754 2.0424
vt 0.3844 1.0647 2.0424
vt 0.3164 2.0424 -0.0862
vt 0.3164 1.8674 -0.0862
vt 0.4660 1.8674 -0.0754
vt 0.4660 2.0424 -0.0754
vt 0.3164 1.7068 -0.0862
vt 0.4660 1.7068 -0.0754
vt 0.3164 -1.0424 -0.0861
vt 0.4660 -1.0424 -0.0754
vt 0.7652 -1.0424 1.0540
vt 0.7652 1.7068 1.0540
vt 0.6156 1.7068 1.0647
vt 0.6156 -1.0424 1.0647
vt 0.7652 1.8674 1.0540
vt 0.6156 1.8674 1.0647
vt 0.7652 2.0424 1.0540
vt 0.6156 2.0424 1.0647
vt 0.3844 1.0647 1.8674
vt 0.4660 -0.0754 1.8674
vt 0.6156 -0.0647 1.8674
vt 0.5340 1.0754 1.8674
vt 0.6156 1.7068 -0.0647
vt 0.6156 1.8674 -0.0647
vt 0.6156 -1.0424 -0.0647
vt 0.4660 1.7068 1.0754
vt 0.4660 -1.0424 1.0754
vt 0.4660 1.8674 1.0754
vt 0.5340 1.0754 1.7068
vt 0.6156 -0.0647 1.7068
vt 0.7652 -0.0540 1.7068
vt 0.6836 1.0862 1.7068
vt 0.7652 -1.0424 -0.0540
vt 0.7652 1.7068 -0.0540
vt 0.3164 1.7068 1.0862
vt 0.3163 -1.0424 1.0862
vt 0.0757 0.0064 0.2500
vt 0.0757 1.0021 0.0000
vt 0.9243 1.0021 0.5000
vt 0.9243 0.0064 1.0000
# 188 texture coords

g uus29_2
usemtl kivikatus
s off
f 1/1/1 2/2/1 3/3/1 4/4/1 
f 5/5/1 3/3/1 2/2/1 6/6/1 
f 7/7/1 8/8/1 6/6/1 2/2/1 
f 9/9/1 7/7/1 2/2/1 10/10/1 
f 11/11/1 12/12/1 10/10/1 2/2/1 
f 13/13/2 14/14/2 15/15/2 16/16/2 
f 14/14/2 13/13/2 17/17/2 18/18/2 
f 19/19/2 14/14/2 18/18/2 20/20/2 
f 14/14/2 19/19/2 21/21/2 22/22/2 
f 14/14/2 22/22/2 23/23/2 24/24/2 
s 1
f 15/15/3 14/14/4 2/2/4 1/1/3 
s 2
f 2/2/5 14/14/5 24/24/5 11/11/5 
f 1/1/6 4/4/7 16/16/7 15/15/6 
usemtl m__r_post_puit
s 8
f 25/25/8 26/26/8 27/27/9 28/28/9 
s 16
f 29/29/10 25/30/10 28/31/11 30/32/12 
s 32
f 31/33/13 29/34/13 30/35/13 32/36/13 
s 64
f 26/37/14 31/38/14 32/39/15 27/40/15 
s 8
f 33/25/9 34/26/9 35/27/9 36/28/16 
s 16
f 37/29/17 33/30/17 36/31/17 38/32/17 
s 32
f 39/33/18 37/34/18 38/35/18 40/36/18 
s 64
f 34/37/19 39/38/19 40/39/20 35/40/20 
s 8
f 41/25/16 42/26/16 43/27/16 44/28/16 
s 16
f 45/29/12 41/30/12 44/31/12 46/32/12 
s 32
f 47/33/21 45/34/21 46/35/21 48/36/21 
s 64
f 42/37/15 47/38/15 48/39/15 43/40/15 
s 8
f 49/25/22 50/26/22 51/27/22 52/28/22 
s 16
f 53/29/23 49/30/17 52/31/23 54/32/23 
s 32
f 55/33/24 53/34/24 54/35/24 56/36/24 
s 64
f 50/37/15 55/38/15 56/39/15 51/40/15 
s 8
f 57/25/9 58/26/16 59/27/9 60/28/9 
s 16
f 61/29/25 57/30/25 60/31/11 62/32/11 
s 32
f 63/33/26 61/34/26 62/35/27 64/36/28 
s 64
f 58/37/20 63/38/20 64/39/19 59/40/19 
s 8
f 65/25/16 66/26/16 67/27/22 68/28/22 
s 16
f 69/29/29 65/30/29 68/31/29 70/32/29 
s 32
f 71/33/30 69/34/30 70/35/30 72/36/30 
s 64
f 66/37/20 71/38/20 72/39/31 67/40/31 
s 8
f 73/25/32 74/26/32 75/27/32 76/28/32 
s 16
f 77/29/12 73/30/12 76/31/12 78/32/12 
s 32
f 79/33/21 77/34/21 78/35/21 80/36/21 
s 64
f 74/37/15 79/38/15 80/39/33 75/40/33 
s 8
f 81/25/16 82/26/9 83/27/34 84/28/34 
s 16
f 85/29/11 81/30/11 84/31/11 86/32/12 
s 32
f 87/33/21 85/34/21 86/35/21 88/36/21 
s 64
f 82/37/33 87/38/33 88/39/15 83/40/15 
s 8
f 89/25/34 90/26/34 91/27/34 92/28/34 
s 16
f 93/29/35 89/30/36 92/31/35 94/32/35 
s 32
f 95/33/37 93/34/37 94/35/21 96/36/21 
s 64
f 90/37/19 95/38/19 96/39/15 91/40/15 
s 8
f 97/25/22 98/26/22 99/27/22 100/28/22 
s 16
f 101/29/38 97/30/38 100/31/12 102/32/12 
s 32
f 103/33/13 101/34/13 102/35/13 104/36/13 
s 64
f 98/37/15 103/38/15 104/39/33 99/40/33 
s 8
f 105/25/32 106/26/32 107/27/39 108/28/39 
s 16
f 109/29/11 105/30/10 108/31/11 110/32/12 
s 32
f 111/33/28 109/34/28 110/35/28 112/36/28 
s 64
f 106/37/20 111/38/20 112/39/20 107/40/20 
s 8
f 113/25/40 114/26/40 115/27/40 116/28/40 
s 16
f 117/29/41 113/30/41 116/31/10 118/32/42 
s 32
f 119/33/43 117/34/13 118/35/44 120/36/44 
s 64
f 114/37/19 119/38/19 120/39/33 115/40/33 
s 8
f 121/25/40 122/26/40 123/27/40 124/28/40 
s 16
f 125/29/36 121/30/36 124/31/29 126/32/29 
s 32
f 127/33/21 125/34/21 126/35/21 128/36/21 
s 8
f 129/25/45 130/26/45 131/27/46 132/28/22 
s 16
f 133/29/42 129/30/42 132/31/42 134/32/42 
s 32
f 135/33/47 133/34/47 134/35/48 136/36/48 
s 8
f 137/25/46 138/26/46 139/27/40 140/28/40 
s 16
f 141/29/11 137/30/11 140/31/11 142/32/12 
s 32
f 143/33/21 141/34/21 142/35/21 144/36/21 
s 64
f 138/37/49 143/38/49 144/39/15 139/40/15 
s 8
f 145/25/40 146/26/40 147/27/40 148/28/40 
s 16
f 149/29/41 145/30/41 148/31/41 150/32/41 
s 32
f 151/33/13 149/34/13 150/35/44 152/36/44 
s 64
f 146/37/20 151/38/20 152/39/15 147/40/15 
usemtl paekivi
s off
f 153/41/50 154/42/50 155/43/50 156/44/50 
f 155/43/50 154/42/50 157/45/50 158/46/50 
f 159/47/50 155/43/50 158/46/50 160/48/50 
f 161/49/50 162/50/50 160/48/50 158/46/50 
f 163/51/50 161/49/50 158/46/50 164/52/50 
f 165/53/50 166/54/50 164/52/50 158/46/50 
s 2
f 165/55/5 158/56/5 167/57/5 168/58/5 
f 153/59/51 156/60/52 169/61/53 170/62/54 
s 1
f 171/63/4 167/64/55 158/65/3 157/66/56 
f 172/67/55 173/68/55 167/64/55 174/69/55 
f 175/70/55 174/69/55 167/64/55 171/63/4 
f 170/71/55 176/72/55 177/73/55 178/74/56 
f 170/71/55 178/74/56 179/75/3 153/76/3 
f 153/76/3 179/75/3 180/77/3 154/78/56 
f 171/63/4 157/66/56 154/78/56 180/77/3 
usemtl m__r_post_puit
s 2
f 30/79/57 28/80/58 27/81/58 32/82/57 
f 38/83/59 36/84/59 35/85/59 40/86/58 
f 46/87/60 44/88/60 43/89/60 48/90/57 
f 54/91/60 52/92/60 51/93/60 56/94/60 
f 62/95/59 60/96/58 59/97/59 64/98/59 
f 70/99/60 68/100/60 67/101/60 72/102/60 
f 78/103/60 76/104/60 75/105/60 80/106/60 
f 86/107/59 84/108/59 83/109/59 88/110/58 
f 94/111/59 92/112/58 91/113/59 96/114/59 
f 102/115/60 100/116/60 99/117/60 104/118/60 
f 110/119/60 108/120/60 107/121/60 112/122/60 
f 118/123/59 116/124/59 115/125/59 120/126/59 
f 142/127/58 140/128/60 139/129/58 144/130/58 
f 150/131/60 148/132/60 147/133/60 152/134/60 
usemtl paekivi
s 1
f 181/135/61 182/136/61 183/137/61 184/138/61 
f 185/139/61 186/140/61 187/141/61 188/142/61 
f 189/143/62 190/144/62 191/145/61 192/146/61 
s off
f 175/147/63 179/148/63 186/149/63 185/150/63 
f 179/151/64 178/152/64 187/153/64 186/154/64 
f 178/152/65 177/155/65 193/156/65 187/153/65 
f 177/155/52 176/157/52 194/158/52 193/156/52 
f 173/159/66 172/160/66 195/161/66 196/162/66 
f 172/160/67 174/163/67 188/164/67 195/161/67 
f 174/163/67 175/165/67 185/166/67 188/164/67 
f 188/167/63 187/168/63 182/169/63 181/170/63 
f 187/153/65 193/156/65 183/171/65 182/172/65 
f 193/156/52 194/158/52 197/173/52 183/171/52 
f 196/162/66 195/161/66 184/174/66 198/175/66 
f 195/161/67 188/164/67 181/176/67 184/174/67 
f 184/177/63 183/178/63 192/179/63 191/180/63 
f 183/171/52 197/173/52 189/181/52 192/182/52 
f 198/175/66 184/174/66 191/183/66 190/184/66 
usemtl uks
s 1
f 175/185/61 171/186/61 180/187/61 179/188/61 
# 123 polygons

#
# object xxx
#

v  542509.2432 6589499.3001 15.9487
v  542509.2317 6589499.4496 15.9487
v  542509.2317 6589499.4496 12.5156
v  542509.2432 6589499.3001 12.5156
v  542510.1662 6589486.3924 15.9487
v  542510.1547 6589486.5421 15.9487
v  542510.1547 6589486.5421 13.6033
v  542510.1662 6589486.3925 13.6033
v  542509.3596 6589498.0422 13.9029
v  542509.2444 6589499.6538 13.9029
v  542509.2444 6589499.6538 8.5916
v  542509.4754 6589496.4235 13.9029
v  542509.5925 6589494.786 13.9029
v  542509.713 6589493.101 13.9029
v  542509.8228 6589491.5646 13.9029
v  542509.9406 6589489.9182 13.9029
v  542510.0343 6589488.6077 13.9029
v  542510.139 6589487.1443 13.9029
v  542510.1976 6589486.3242 13.9029
v  542510.1976 6589486.3243 8.5916
v  542509.3596 6589498.0422 16.0809
v  542509.2444 6589499.6538 16.0809
v  542509.2443 6589499.6538 15.8729
v  542509.4754 6589496.4235 16.0809
v  542509.5925 6589494.786 16.0809
v  542509.713 6589493.101 16.0809
v  542509.8228 6589491.5646 16.0809
v  542509.9406 6589489.9182 16.0809
v  542510.0343 6589488.6077 16.0809
v  542510.139 6589487.1443 16.0809
v  542510.1976 6589486.3242 16.0809
v  542509.3596 6589498.0422 15.8729
v  542509.4754 6589496.4235 15.8729
v  542509.5925 6589494.786 15.8729
v  542509.713 6589493.1011 15.8729
v  542509.8228 6589491.5646 15.8729
v  542509.9406 6589489.9182 15.8729
v  542510.0343 6589488.6077 15.8729
v  542510.139 6589487.1443 15.8729
v  542510.1976 6589486.3243 15.8729
# 40 vertices

vn -0.9971 -0.0765 -0.0000
vn -0.9971 -0.0765 0.0000
vn -0.9971 -0.0766 -0.0000
vn -0.9971 -0.0767 -0.0000
vn -0.9971 -0.0768 -0.0000
vn -0.9975 -0.0713 -0.0000
vn -0.9975 -0.0713 0.0000
vn -0.9975 -0.0714 -0.0000
vn -0.9975 -0.0714 -0.0001
vn -0.9975 -0.0713 0.0002
vn -0.9975 -0.0713 0.0004
vn -0.9975 -0.0713 0.0006
vn -0.9975 -0.0713 0.0003
vn -0.9975 -0.0713 -0.0006
vn -0.9975 -0.0713 -0.0005
vn -0.9975 -0.0713 0.0005
vn -0.9975 -0.0713 -0.0003
# 17 vertex normals

vt -0.0000 631.6172 0.9819
vt -0.0000 646.5703 0.9819
vt -0.0000 646.5703 0.5239
vt -0.0000 631.6172 0.5239
vt -0.0000 -659.1523 0.9819
vt -0.0000 -644.1875 0.9819
vt -0.0000 -644.1836 0.6690
vt -0.0000 -659.1484 0.6690
vt -0.0000 505.8242 0.7090
vt -0.0000 666.9844 0.7090
vt -0.0000 666.9844 0.0005
vt -0.0000 343.9492 0.7090
vt -0.0000 180.2031 0.7090
vt -0.0000 11.7031 0.7090
vt -0.0000 -141.9336 0.7090
vt -0.0000 -306.5781 0.7090
vt -0.0000 -437.6211 0.7090
vt -0.0000 -583.9688 0.7090
vt -0.0000 -665.9805 0.7090
vt -0.0000 -665.9688 0.0005
vt -0.0000 505.8242 0.9995
vt -0.0000 666.9844 0.9995
vt -0.0000 666.9844 0.9718
vt -0.0000 343.9492 0.9995
vt -0.0000 180.2031 0.9995
vt -0.0000 11.7031 0.9995
vt -0.0000 -141.9336 0.9995
vt -0.0000 -306.5781 0.9995
vt -0.0000 -437.6289 0.9995
vt -0.0000 -583.9688 0.9995
vt -0.0000 -665.9805 0.9995
vt -0.0000 505.8242 0.9718
vt -0.0000 343.9492 0.9718
vt -0.0000 180.2031 0.9718
vt -0.0000 11.7109 0.9718
vt -0.0000 -141.9336 0.9718
vt -0.0000 -306.5781 0.9718
vt -0.0000 -437.6289 0.9718
vt -0.0000 -583.9688 0.9718
vt -0.0000 -665.9688 0.9718
# 40 texture coords

g xxx
usemtl xxx
s 64
f 199/189/68 200/190/69 201/191/70 202/192/70 
f 203/193/71 204/194/72 205/195/71 206/196/70 
s 1
f 207/197/73 208/198/74 209/199/73 210/200/73 
f 211/201/73 210/200/73 209/199/73 212/202/74 
f 213/203/75 212/202/74 209/199/73 214/204/73 
f 215/205/76 214/204/73 209/199/73 216/206/77 
f 217/207/74 216/206/77 209/199/73 218/208/73 
s off
f 219/209/78 220/210/78 221/211/78 222/212/78 
f 223/213/79 222/212/79 221/211/79 224/214/79 
f 225/215/80 224/214/80 221/211/80 226/216/80 
f 227/217/81 226/216/81 221/211/81 228/218/81 
f 229/219/77 228/218/77 221/211/77 230/220/77 
f 229/219/82 230/220/82 231/221/82 232/222/82 
f 229/219/83 232/222/83 233/223/83 234/224/83 
f 229/219/84 234/224/84 235/225/84 236/226/84 
f 229/219/84 236/226/84 237/227/84 238/228/84 
# 16 polygons

