# 3ds Max Wavefront OBJ Exporter v0.97b - (c)2007 guruware
# File Created: 19.12.2011 09:59:30

mtllib Suur-Kloostri_7_2.mtl

#
# object Box001
#

v  -146.4008 167.2107 17.7668
v  -145.5447 167.3411 17.7668
v  -145.5447 167.3411 20.2306
v  -146.4008 167.2107 20.2306
v  -143.9906 167.5777 20.2306
v  -143.9906 167.5777 17.7668
v  -144.6663 172.0153 17.7668
v  -144.6663 172.0153 20.2306
v  -146.2209 171.7786 17.7668
v  -146.2209 171.7786 20.2306
v  -147.0765 171.6483 20.2306
v  -147.0765 171.6483 17.7668
v  -143.8767 167.4939 20.2306
v  -144.5825 172.1292 20.2306
v  -147.1904 171.7321 20.2306
v  -146.4846 167.0968 20.2306
v  -145.2524 167.7667 20.7043
v  -145.8147 171.4593 20.7043
# 18 vertices

vn 0.1505 -0.9886 0.0000
vn 0.9886 0.1505 0.0000
vn -0.1505 0.9886 0.0000
vn -0.9886 -0.1505 0.0000
vn 0.0000 0.0000 -1.0000
vn 0.3341 0.0509 0.9411
vn -0.1061 0.6968 0.7094
vn -0.3341 -0.0509 0.9411
vn 0.1061 -0.6968 0.7094
# 9 vertex normals

vt 0.4771 0.0005 91779.5000
vt 0.6215 0.0005 91778.5000
vt 0.6215 0.9995 91778.5000
vt 0.4771 0.9995 91779.5000
vt 0.0000 1.0000 0.0000
vt 0.0000 0.0000 0.0000
vt 1.0000 0.0000 0.0000
vt 1.0000 1.0000 0.0000
vt 0.4758 0.0005 1.0363
vt 0.7640 0.0005 1.0363
vt 0.7640 0.9995 1.0363
vt 0.4758 0.9995 1.0363
vt -0.1595 -0.6722 0.3816
vt -0.1095 -0.6222 0.3816
vt -0.1095 1.6222 0.3816
vt -0.1595 1.6722 0.3816
vt 0.6768 1.6222 0.3816
vt 1.1095 1.6222 0.3816
vt 1.1595 1.6722 0.3816
vt 1.1095 -0.6222 0.3816
vt 1.1595 -0.6722 0.3816
vt 0.6765 -0.6222 0.3816
vt 0.5000 -0.4338 0.6184
vt 0.5000 1.4338 0.6184
vt 0.6192 0.0005 732141.5000
vt 0.7635 0.0005 732142.5000
vt 0.7635 0.9995 732142.5000
vt 0.6192 0.9995 732141.5000
vt 0.4756 0.0005 91779.5000
vt 0.7647 0.0005 91778.5000
vt 0.7647 0.9995 91778.5000
vt 0.4756 0.9995 91779.5000
# 32 texture coords

g Box001
usemtl Material__2
s 1
f 1/1/1 2/2/1 3/3/1 4/4/1 
f 5/5/2 6/6/2 7/7/2 8/8/2 
f 7/9/3 9/10/3 10/11/3 8/12/3 
f 11/5/4 12/6/4 1/7/4 4/8/4 
usemtl Material__14
f 13/13/5 5/14/5 8/15/5 14/16/5 
f 10/17/5 11/18/5 15/19/5 8/15/5 
f 8/15/5 15/19/5 14/16/5 
f 15/19/5 11/18/5 4/20/5 16/21/5 
f 3/22/5 5/14/5 13/13/5 4/20/5 
f 4/20/5 13/13/5 16/21/5 
f 17/23/6 13/21/6 14/19/6 18/24/6 
f 14/19/7 15/16/7 18/24/7 
f 18/24/8 15/16/8 16/13/8 17/23/8 
f 16/13/9 13/21/9 17/23/9 
usemtl Material__2
f 9/25/3 12/26/3 11/27/3 10/28/3 
f 2/29/1 6/30/1 5/31/1 3/32/1 
# 12 polygons - 4 triangles

