# 3ds Max Wavefront OBJ Exporter v0.97b - (c)2007 guruware
# File Created: 20.08.2011 22:56:27

mtllib Toompuiestee_30_2-origo.mtl

#
# object Toompuiestee_30_2
#

v  541658.7052 6589026.973434 15.849745
v  541659.001648 6589027.844357 15.849745
v  541658.7052 6589026.973434 16.989744
v  541659.001648 6589027.844357 16.989744
v  541655.75061 6589026.589386 15.849745
v  541656.621521 6589026.292904 15.849745
v  541655.75061 6589026.589386 16.989744
v  541656.621521 6589026.292904 16.989744
v  541653.772583 6589027.104301 17.748959
v  541658.374817 6589025.537567 17.748959
v  541654.072449 6589027.985184 17.748959
v  541654.742065 6589029.95203 17.748959
v  541654.981995 6589030.50148 17.500149
v  541659.536865 6589028.950912 17.748959
v  541653.094666 6589028.37088 17.500149
v  541658.343628 6589025.601025 17.500147
v  541653.836121 6589027.135502 17.500147
v  541659.489441 6589028.967041 17.500149
v  541654.773315 6589029.888596 17.500147
v  541654.135986 6589028.016384 17.500149
v  541653.03125 6589028.339653 17.748959
v  541653.700806 6589030.306515 17.748959
v  541653.732056 6589030.243088 17.500147
v  541659.411072 6589028.736851 17.748959
v  541654.934509 6589030.517654 17.748959
v  541654.981995 6589030.50148 17.748957
v  541653.604187 6589030.022739 17.748959
v  541653.132385 6589028.636875 17.748959
v  541653.367859 6589029.328529 18.523666
v  541653.552795 6589029.716587 16.189909
v  541653.259705 6589028.855564 16.189909
v  541653.647461 6589029.684361 16.189909
v  541653.35437 6589028.823338 16.189909
v  541653.35437 6589028.823338 14.350033
v  541653.647461 6589029.684361 14.350033
v  541653.587341 6589029.81802 16.564411
v  541653.223572 6589028.749454 16.564411
v  541653.367859 6589029.328526 18.314817
v  541653.65155 6589030.006626 17.748959
v  541653.415222 6589029.312412 18.314817
v  541653.179749 6589028.620762 17.748959
v  541655.882141 6589028.472599 18.523666
v  541656.86499 6589028.645157 18.944401
v  541657.235718 6589029.734272 18.944401
v  541653.836121 6589027.135506 14.538509
v  541658.343628 6589025.601025 14.728451
v  541654.135986 6589028.016384 14.538509
v  541659.620361 6589029.350025 14.986019
v  541654.773315 6589029.888596 14.350033
v  541655.112854 6589030.884495 14.350033
v  541657.15741 6589029.504082 17.989103
v  541655.112854 6589030.884487 17.811960
v  541655.864075 6589030.628742 18.265440
v  541656.615295 6589030.372997 18.729486
v  541657.366577 6589030.117249 19.196409
v  541658.117798 6589029.861504 18.884897
v  541658.86908 6589029.605755 18.536678
v  541659.620361 6589029.350014 17.500149
v  541655.718384 6589026.49472 15.849745
v  541656.589294 6589026.198238 15.849745
v  541658.799866 6589026.941208 15.849745
v  541659.096313 6589027.81213 15.849745
v  541655.718384 6589026.49472 16.989744
v  541656.589294 6589026.198238 16.989744
v  541658.799866 6589026.941208 16.989744
v  541659.096313 6589027.81213 16.989744
v  541655.112854 6589030.884487 17.500149
v  541653.094666 6589028.37088 14.350033
v  541653.732056 6589030.243088 14.350033
v  541653.259705 6589028.855564 14.350033
v  541653.552795 6589029.716587 14.350033
v  541654.981934 6589030.501492 17.811960
v  541659.620361 6589029.350014 18.159847
v  541656.484497 6589029.989933 18.729486
v  541657.15741 6589029.504082 19.196409
v  541657.90863 6589029.248299 18.884897
v  541658.659851 6589028.992535 18.536678
v  541659.411072 6589028.736851 18.159847
v  541653.772583 6589027.104298 17.500147
v  541658.374817 6589025.537567 17.500147
v  541659.536865 6589028.950912 17.500149
v  541654.742065 6589029.95203 17.500147
v  541653.03125 6589028.339653 17.500149
v  541654.072449 6589027.98518 17.500149
v  541653.700806 6589030.306515 17.500147
v  541659.489441 6589028.967041 17.748959
v  541654.934509 6589030.517654 17.500149
# 87 vertices

vn -0.322266 -0.946649 -0.000000
vn -0.322266 -0.946649 -0.000000
vn -0.322266 -0.946649 -0.000000
vn -0.322266 -0.946649 0.000000
vn -0.322266 -0.946649 0.000000
vn -0.322266 -0.946649 0.000000
vn -0.946649 0.322265 0.000001
vn -0.946649 0.322265 0.000001
vn -0.946649 0.322265 0.000001
vn -0.946649 0.322266 0.000001
vn -0.946649 0.322266 0.000001
vn -0.946649 0.322266 0.000001
vn -0.946649 0.322266 -0.000000
vn -0.946649 0.322266 -0.000000
vn -0.946649 0.322266 -0.000000
vn -0.946649 0.322266 -0.000000
vn -0.946649 0.322266 -0.000000
vn -0.946649 0.322266 -0.000000
vn -0.946650 0.322264 0.000006
vn -0.946650 0.322264 0.000006
vn -0.946650 0.322264 0.000006
vn -0.946649 0.322267 0.000007
vn -0.946649 0.322267 0.000007
vn -0.946649 0.322267 0.000007
vn -0.946650 0.322265 0.000007
vn -0.946650 0.322265 0.000007
vn -0.946650 0.322265 0.000007
vn -0.946647 0.322272 -0.000002
vn -0.946647 0.322272 -0.000002
vn -0.946647 0.322272 -0.000002
vn -0.946650 0.322265 0.000008
vn -0.946650 0.322265 0.000008
vn -0.946650 0.322265 0.000008
vn 0.000005 -0.000001 1.000000
vn 0.000005 -0.000001 1.000000
vn 0.000005 -0.000001 1.000000
vn 0.000005 -0.000001 1.000000
vn 0.000005 -0.000001 1.000000
vn 0.000005 -0.000001 1.000000
vn -0.196874 -0.578307 -0.791708
vn -0.196874 -0.578307 -0.791708
vn -0.196874 -0.578307 -0.791708
vn -0.196879 -0.578305 -0.791708
vn -0.196879 -0.578305 -0.791708
vn -0.196879 -0.578305 -0.791708
vn 0.197320 0.579649 -0.790615
vn 0.197320 0.579649 -0.790615
vn 0.197320 0.579649 -0.790615
vn 0.197324 0.579648 -0.790615
vn 0.197324 0.579648 -0.790615
vn 0.197324 0.579648 -0.790615
vn 0.946649 -0.322265 -0.000000
vn 0.946649 -0.322265 -0.000000
vn 0.946649 -0.322265 -0.000000
vn 0.946649 -0.322265 -0.000000
vn 0.946649 -0.322265 -0.000000
vn 0.946649 -0.322265 -0.000000
vn -0.408066 0.116448 0.905495
vn -0.408066 0.116448 0.905495
vn -0.408066 0.116448 0.905495
vn -0.424792 0.144611 0.893666
vn -0.424792 0.144611 0.893666
vn -0.424792 0.144611 0.893666
vn -0.412050 0.159719 0.897054
vn -0.412050 0.159719 0.897054
vn -0.412050 0.159719 0.897054
vn -0.421912 0.143631 0.895187
vn -0.421912 0.143631 0.895187
vn -0.421912 0.143631 0.895187
vn -0.392067 0.171186 0.903869
vn -0.392067 0.171186 0.903869
vn -0.392067 0.171186 0.903869
vn 0.417764 -0.142223 0.897355
vn 0.417764 -0.142223 0.897355
vn 0.417764 -0.142223 0.897355
vn 0.424798 -0.144613 0.893663
vn 0.424798 -0.144613 0.893663
vn 0.424798 -0.144613 0.893663
vn -0.419164 0.246306 -0.873862
vn -0.419164 0.246306 -0.873862
vn -0.419164 0.246306 -0.873862
vn 0.000027 -0.000010 1.000000
vn 0.000027 -0.000010 1.000000
vn 0.000027 -0.000010 1.000000
vn -0.191970 -0.563907 0.803217
vn -0.191970 -0.563907 0.803217
vn -0.191970 -0.563907 0.803217
vn -0.191970 -0.563907 0.803217
vn -0.191970 -0.563907 0.803217
vn -0.191970 -0.563907 0.803217
vn 0.193341 0.567934 0.800044
vn 0.193341 0.567934 0.800044
vn 0.193341 0.567934 0.800044
vn 0.193341 0.567934 0.800044
vn 0.193341 0.567934 0.800044
vn 0.193341 0.567934 0.800044
vn -0.141077 -0.414410 0.899089
vn -0.141077 -0.414410 0.899089
vn -0.141077 -0.414410 0.899089
vn -0.469490 0.160421 0.868242
vn -0.469490 0.160421 0.868242
vn -0.469490 0.160421 0.868242
vn -0.470277 0.184497 0.863018
vn -0.470277 0.184497 0.863018
vn -0.470277 0.184497 0.863018
vn -0.479878 0.163929 0.861884
vn -0.479878 0.163929 0.861884
vn -0.479878 0.163929 0.861884
vn 0.345821 -0.117982 0.930853
vn 0.345821 -0.117982 0.930853
vn 0.345821 -0.117982 0.930853
vn 0.380288 -0.129740 0.915723
vn 0.380288 -0.129740 0.915723
vn 0.380288 -0.129740 0.915723
vn 0.405960 -0.138499 0.903335
vn 0.405960 -0.138499 0.903335
vn 0.405960 -0.138499 0.903335
vn -0.322266 -0.946649 0.000000
vn -0.322266 -0.946649 0.000000
vn -0.322266 -0.946649 0.000000
vn -0.322266 -0.946649 0.000000
vn -0.322266 -0.946649 0.000000
vn -0.322266 -0.946649 0.000000
vn -0.322266 -0.946649 0.000000
vn -0.322266 -0.946649 0.000000
vn -0.322266 -0.946649 0.000000
vn -0.322266 -0.946649 0.000000
vn -0.322266 -0.946649 0.000000
vn -0.322266 -0.946649 0.000000
vn -0.322266 -0.946649 0.000000
vn -0.322266 -0.946649 0.000000
vn -0.322266 -0.946649 0.000000
vn -0.322266 -0.946649 -0.000000
vn -0.322266 -0.946649 -0.000000
vn -0.322266 -0.946649 -0.000000
vn -0.322266 -0.946649 0.000000
vn -0.322266 -0.946649 0.000000
vn -0.322266 -0.946649 0.000000
vn -0.322266 -0.946649 -0.000001
vn -0.322266 -0.946649 -0.000001
vn -0.322266 -0.946649 -0.000001
vn 0.946649 -0.322266 0.000000
vn 0.946649 -0.322266 0.000000
vn 0.946649 -0.322266 0.000000
vn 0.946609 -0.322384 0.000261
vn 0.946609 -0.322384 0.000261
vn 0.946609 -0.322384 0.000261
vn 0.946649 -0.322265 -0.000001
vn 0.946649 -0.322265 -0.000001
vn 0.946649 -0.322265 -0.000001
vn 0.946563 -0.322519 -0.000006
vn 0.946563 -0.322519 -0.000006
vn 0.946563 -0.322519 -0.000006
vn 0.946649 -0.322266 -0.000000
vn 0.946649 -0.322266 -0.000000
vn 0.946649 -0.322266 -0.000000
vn 0.946561 -0.322524 -0.000000
vn 0.946561 -0.322524 -0.000000
vn 0.946561 -0.322524 -0.000000
vn 0.946649 -0.322265 0.000002
vn 0.946649 -0.322265 0.000002
vn 0.946649 -0.322265 0.000002
vn 0.946255 -0.323407 0.002973
vn 0.946255 -0.323407 0.002973
vn 0.946255 -0.323407 0.002973
vn 0.946653 -0.322254 0.000058
vn 0.946653 -0.322254 0.000058
vn 0.946653 -0.322254 0.000058
vn 0.322263 0.946650 0.000003
vn 0.322263 0.946650 0.000003
vn 0.322263 0.946650 0.000003
vn 0.322263 0.946650 0.000002
vn 0.322263 0.946650 0.000002
vn 0.322263 0.946650 0.000002
vn 0.322263 0.946650 0.000008
vn 0.322263 0.946650 0.000008
vn 0.322263 0.946650 0.000008
vn 0.322265 0.946649 -0.000001
vn 0.322265 0.946649 -0.000001
vn 0.322265 0.946649 -0.000001
vn 0.322265 0.946649 -0.000001
vn 0.322265 0.946649 -0.000001
vn 0.322265 0.946649 -0.000001
vn 0.322275 0.946646 -0.000015
vn 0.322275 0.946646 -0.000015
vn 0.322275 0.946646 -0.000015
vn 0.322275 0.946646 -0.000015
vn 0.322275 0.946646 -0.000015
vn 0.322275 0.946646 -0.000015
vn 0.322261 0.946651 -0.000000
vn 0.322261 0.946651 -0.000000
vn 0.322261 0.946651 -0.000000
vn -0.946649 0.322266 -0.000000
vn -0.946649 0.322266 -0.000000
vn -0.946649 0.322266 -0.000000
vn -0.946649 0.322267 0.000000
vn -0.946649 0.322267 0.000000
vn -0.946649 0.322267 0.000000
vn -0.946649 0.322265 -0.000000
vn -0.946649 0.322265 -0.000000
vn -0.946649 0.322265 -0.000000
vn -0.946649 0.322266 0.000000
vn -0.946649 0.322266 0.000000
vn -0.946649 0.322266 0.000000
vn -0.946518 0.322650 0.000000
vn -0.946518 0.322650 0.000000
vn -0.946518 0.322650 0.000000
vn -0.946649 0.322266 0.000000
vn -0.946649 0.322266 0.000000
vn -0.946649 0.322266 0.000000
vn -0.946649 0.322266 0.000000
vn -0.946649 0.322266 0.000000
vn -0.946649 0.322266 0.000000
vn -0.946649 0.322266 0.000000
vn -0.946649 0.322266 0.000000
vn -0.946649 0.322266 0.000000
vn 0.322266 0.946649 0.000000
vn 0.322266 0.946649 0.000000
vn 0.322266 0.946649 0.000000
vn 0.322266 0.946649 0.000000
vn 0.322266 0.946649 0.000000
vn 0.322266 0.946649 0.000000
vn -0.322266 -0.946649 0.000000
vn -0.322266 -0.946649 0.000000
vn -0.322266 -0.946649 0.000000
vn -0.322266 -0.946649 -0.000000
vn -0.322266 -0.946649 -0.000000
vn -0.322266 -0.946649 -0.000000
vn 0.000000 0.000000 1.000000
vn 0.000000 0.000000 1.000000
vn 0.000000 0.000000 1.000000
vn 0.000000 0.000000 1.000000
vn 0.000000 0.000000 1.000000
vn 0.000000 0.000000 1.000000
vn 0.946649 -0.322268 -0.000000
vn 0.946649 -0.322268 -0.000000
vn 0.946649 -0.322268 -0.000000
vn 0.946649 -0.322268 -0.000000
vn 0.946649 -0.322268 -0.000000
vn 0.946649 -0.322268 -0.000000
vn -0.946648 0.322268 0.000000
vn -0.946648 0.322268 0.000000
vn -0.946648 0.322268 0.000000
vn -0.946648 0.322269 -0.000000
vn -0.946648 0.322269 -0.000000
vn -0.946648 0.322269 -0.000000
vn 0.000000 0.000000 -1.000000
vn 0.000000 0.000000 -1.000000
vn 0.000000 0.000000 -1.000000
vn 0.000000 0.000000 -1.000000
vn 0.000000 0.000000 -1.000000
vn 0.000000 0.000000 -1.000000
vn 0.000005 -0.000002 1.000000
vn 0.000005 -0.000002 1.000000
vn 0.000005 -0.000002 1.000000
vn 0.000005 -0.000002 1.000000
vn 0.000005 -0.000002 1.000000
vn 0.000005 -0.000002 1.000000
vn 0.322266 0.946649 0.000000
vn 0.322266 0.946649 0.000000
vn 0.322266 0.946649 0.000000
vn 0.322266 0.946649 -0.000000
vn 0.322266 0.946649 -0.000000
vn 0.322266 0.946649 -0.000000
vn -0.322267 -0.946649 -0.000000
vn -0.322267 -0.946649 -0.000000
vn -0.322267 -0.946649 -0.000000
vn -0.322267 -0.946649 0.000000
vn -0.322267 -0.946649 0.000000
vn -0.322267 -0.946649 0.000000
vn 0.000000 0.000000 -1.000000
vn 0.000000 0.000000 -1.000000
vn 0.000000 0.000000 -1.000000
vn 0.000000 0.000000 -1.000000
vn 0.000000 0.000000 -1.000000
vn 0.000000 0.000000 -1.000000
vn -0.322266 -0.946649 0.000000
vn -0.322266 -0.946649 0.000000
vn -0.322266 -0.946649 0.000000
vn 0.322266 0.946649 -0.000000
vn 0.322266 0.946649 -0.000000
vn 0.322266 0.946649 -0.000000
vn 0.322266 0.946649 -0.000000
vn 0.322266 0.946649 -0.000000
vn 0.322266 0.946649 -0.000000
vn 0.000000 0.000000 -1.000000
vn 0.000000 0.000000 -1.000000
vn 0.000000 0.000000 -1.000000
vn -0.322267 -0.946649 0.000000
vn -0.322267 -0.946649 0.000000
vn -0.322267 -0.946649 0.000000
vn 0.000000 0.000000 -1.000000
vn 0.000000 0.000000 -1.000000
vn 0.000000 0.000000 -1.000000
vn -0.946648 0.322268 0.000001
vn -0.946648 0.322268 0.000001
vn -0.946648 0.322268 0.000001
vn -0.946307 0.323268 -0.000002
vn -0.946307 0.323268 -0.000002
vn -0.946307 0.323268 -0.000002
vn -0.946307 0.323268 0.000001
vn -0.946307 0.323268 0.000001
vn -0.946307 0.323268 0.000001
vn -0.473600 0.161785 0.865753
vn -0.473600 0.161785 0.865753
vn -0.473600 0.161785 0.865753
vn -0.479871 0.163715 0.861929
vn -0.479871 0.163715 0.861929
vn -0.479871 0.163715 0.861929
vn 0.345821 -0.117982 0.930853
vn 0.345821 -0.117982 0.930853
vn 0.345821 -0.117982 0.930853
vn 0.380288 -0.129741 0.915723
vn 0.380288 -0.129741 0.915723
vn 0.380288 -0.129741 0.915723
vn 0.405972 -0.138546 0.903323
vn 0.405972 -0.138546 0.903323
vn 0.405972 -0.138546 0.903323
vn 0.946259 -0.323408 -0.001178
vn 0.946259 -0.323408 -0.001178
vn 0.946259 -0.323408 -0.001178
vn -0.946284 0.323338 -0.000097
vn -0.946284 0.323338 -0.000097
vn -0.946284 0.323338 -0.000097
vn 0.322252 0.946654 -0.000000
vn 0.322252 0.946654 -0.000000
vn 0.322252 0.946654 -0.000000
vn 0.946406 -0.322980 0.000000
vn 0.946406 -0.322980 0.000000
vn 0.946406 -0.322980 0.000000
vn 0.946406 -0.322979 -0.000001
vn 0.946406 -0.322979 -0.000001
vn 0.946406 -0.322979 -0.000001
vn -0.946648 0.322268 -0.000135
vn -0.946648 0.322268 -0.000135
vn -0.946648 0.322268 -0.000135
vn -0.322310 -0.946634 0.000019
vn -0.322310 -0.946634 0.000019
vn -0.322310 -0.946634 0.000019
vn -0.585378 -0.810760 0.000000
vn -0.585378 -0.810760 0.000000
vn -0.585378 -0.810760 0.000000
vn -0.322272 -0.946647 -0.000036
vn -0.322272 -0.946647 -0.000036
vn -0.322272 -0.946647 -0.000036
vn -0.322310 -0.946634 0.000000
vn -0.322310 -0.946634 0.000000
vn -0.322310 -0.946634 0.000000
vn -0.322350 -0.946621 -0.000152
vn -0.322350 -0.946621 -0.000152
vn -0.322350 -0.946621 -0.000152
vn -0.322207 -0.946669 -0.000000
vn -0.322207 -0.946669 -0.000000
vn -0.322207 -0.946669 -0.000000
vn -0.946650 0.322263 -0.000000
vn -0.946650 0.322263 -0.000000
vn -0.946650 0.322263 -0.000000
vn -0.946649 0.322266 0.000000
vn -0.946649 0.322266 0.000000
vn -0.946649 0.322266 0.000000
vn -0.426457 -0.883813 0.192379
vn -0.426457 -0.883813 0.192379
vn -0.426457 -0.883813 0.192379
vn -0.322266 -0.946649 0.000002
vn -0.322266 -0.946649 0.000002
vn -0.322266 -0.946649 0.000002
vn -0.322266 -0.946649 0.000001
vn -0.322266 -0.946649 0.000001
vn -0.322266 -0.946649 0.000001
vn 0.946646 -0.322276 0.000002
vn 0.946646 -0.322276 0.000002
vn 0.946646 -0.322276 0.000002
vn 0.946646 -0.322276 0.000000
vn 0.946646 -0.322276 0.000000
vn 0.946646 -0.322276 0.000000
vn -0.946706 0.322100 -0.000001
vn -0.946706 0.322100 -0.000001
vn -0.946706 0.322100 -0.000001
vn -0.946705 0.322101 -0.000000
vn -0.946705 0.322101 -0.000000
vn -0.946705 0.322101 -0.000000
vn -0.946649 0.322266 0.000002
vn -0.946649 0.322266 0.000002
vn -0.946649 0.322266 0.000002
vn -0.946649 0.322265 0.000007
vn -0.946649 0.322265 0.000007
vn -0.946649 0.322265 0.000007
vn -0.946647 0.322272 -0.000002
vn -0.946647 0.322272 -0.000002
vn -0.946647 0.322272 -0.000002
vn -0.946649 0.322267 -0.000000
vn -0.946649 0.322267 -0.000000
vn -0.946649 0.322267 -0.000000
vn -0.946649 0.322266 -0.000002
vn -0.946649 0.322266 -0.000002
vn -0.946649 0.322266 -0.000002
vn 0.322266 0.946649 -0.000000
vn 0.322266 0.946649 -0.000000
vn 0.322266 0.946649 -0.000000
vn 0.322266 0.946649 -0.000000
vn 0.322266 0.946649 -0.000000
vn 0.322266 0.946649 -0.000000
vn -0.322266 -0.946649 0.000000
vn -0.322266 -0.946649 0.000000
vn -0.322266 -0.946649 0.000000
vn -0.322266 -0.946649 0.000000
vn -0.322266 -0.946649 0.000000
vn -0.322266 -0.946649 0.000000
vn 0.000000 0.000000 -1.000000
vn 0.000000 0.000000 -1.000000
vn 0.000000 0.000000 -1.000000
vn 0.000000 0.000000 -1.000000
vn 0.000000 0.000000 -1.000000
vn 0.000000 0.000000 -1.000000
vn 0.000000 0.000000 -1.000000
vn 0.000000 0.000000 -1.000000
vn 0.000000 0.000000 -1.000000
vn 0.000000 0.000000 -1.000000
vn 0.000000 0.000000 -1.000000
vn 0.000000 0.000000 -1.000000
vn 0.000003 0.000002 -1.000000
vn 0.000003 0.000002 -1.000000
vn 0.000003 0.000002 -1.000000
vn 0.000000 -0.000000 -1.000000
vn 0.000000 -0.000000 -1.000000
vn 0.000000 -0.000000 -1.000000
vn -0.000000 -0.000000 -1.000000
vn -0.000000 -0.000000 -1.000000
vn -0.000000 -0.000000 -1.000000
vn -0.000000 0.000001 -1.000000
vn -0.000000 0.000001 -1.000000
vn -0.000000 0.000001 -1.000000
vn -0.000000 0.000001 -1.000000
vn -0.000000 0.000001 -1.000000
vn -0.000000 0.000001 -1.000000
vn 0.000000 0.000000 -1.000000
vn 0.000000 0.000000 -1.000000
vn 0.000000 0.000000 -1.000000
vn 0.000000 0.000000 -1.000000
vn 0.000000 0.000000 -1.000000
vn 0.000000 0.000000 -1.000000
vn 0.000000 0.000000 -1.000000
vn 0.000000 0.000000 -1.000000
vn 0.000000 0.000000 -1.000000
vn 0.000000 0.000000 -1.000000
vn 0.000000 0.000000 -1.000000
vn 0.000000 0.000000 -1.000000
vn 0.000018 -0.000005 -1.000000
vn 0.000018 -0.000005 -1.000000
vn 0.000018 -0.000005 -1.000000
vn 0.322601 0.946535 0.000001
vn 0.322601 0.946535 0.000001
vn 0.322601 0.946535 0.000001
vn 0.322594 0.946537 -0.000000
vn 0.322594 0.946537 -0.000000
vn 0.322594 0.946537 -0.000000
vn 0.322018 0.946733 -0.000003
vn 0.322018 0.946733 -0.000003
vn 0.322018 0.946733 -0.000003
vn 0.322002 0.946739 0.000000
vn 0.322002 0.946739 0.000000
vn 0.322002 0.946739 0.000000
vn -0.946650 0.322264 0.000000
vn -0.946650 0.322264 0.000000
vn -0.946650 0.322264 0.000000
# 465 vertex normals

vt 2.280768 -0.509412 1.499712
vt 2.280768 0.410596 1.499712
vt 2.280768 -0.509412 2.639711
vt 2.280768 0.410596 2.639711
vt 0.000500 0.000500 -0.250000
vt 0.999500 0.000499 0.000000
vt 0.000500 0.999501 0.000000
vt 0.999500 0.999501 0.500000
vt 0.999500 0.960759 -0.021157
vt 0.000500 0.960759 1.325923
vt -0.021157 0.960759 0.258311
vt 1.021147 0.960759 0.833960
vt 1.007283 0.039244 0.999489
vt -0.325933 0.960760 0.999500
vt 1.312077 0.272166 0.039239
vt -0.312067 0.014355 0.039237
vt 1.007284 0.014355 0.039237
vt -0.312054 0.039240 0.999497
vt 1.007284 0.820114 0.039237
vt 1.007284 0.272166 0.039239
vt -0.325934 0.960759 0.258311
vt 0.166040 0.960759 -0.325934
vt 1.312077 0.820114 0.039237
vt 1.021157 0.000500 0.039237
vt -0.325923 0.000500 0.039237
vt -0.325934 0.039240 0.999501
vt 1.021147 0.833960 0.039237
vt 1.325933 0.258311 0.039239
vt 1.021157 0.258311 0.039239
vt 0.166040 0.039237 -0.325934
vt -0.312054 0.960760 0.999497
vt 1.021176 0.960760 0.999494
vt 1.021176 0.039240 0.999494
vt 1.007283 0.960755 0.999489
vt 0.249093 0.960757 -0.325933
vt 0.654700 0.960762 -0.325933
vt -0.021157 0.039237 0.000500
vt 1.325923 0.039237 0.000500
vt 1.325923 0.960759 0.000500
vt 1.325923 0.960759 0.000500
vt -0.021157 0.960759 0.000500
vt -0.021157 0.039237 0.000500
vt 0.000500 0.039237 1.325923
vt 0.999501 0.039240 1.325934
vt 0.999500 0.960760 1.325933
vt 0.999500 0.960760 1.325933
vt 0.000500 0.039237 1.325923
vt 0.000506 0.039240 -0.021176
vt 0.166040 0.039237 -0.021147
vt 0.166040 0.960759 -0.021147
vt 0.166040 0.960759 -0.021147
vt 0.000506 0.960760 -0.021176
vt 0.000506 0.039240 -0.021176
vt 0.166040 0.039237 -0.325934
vt 0.741689 0.039239 -0.325933
vt 0.249093 0.960757 -0.325933
vt 0.654700 0.960762 -0.325933
vt 0.249093 0.960757 -0.325933
vt 0.741689 0.039239 -0.325933
vt 0.741689 0.960759 -0.325934
vt 0.741689 0.039239 -0.325933
vt 0.741689 0.039239 -0.021157
vt 0.999500 0.039237 -0.021157
vt 0.999500 0.960759 -0.021157
vt 0.741689 0.960759 -0.021157
vt 0.741689 0.039239 -0.021157
vt 1.021147 0.960759 0.833960
vt 1.021147 0.039237 0.833960
vt 1.325934 0.039237 0.833960
vt 1.325934 0.039237 0.833960
vt 1.325934 0.960759 0.833960
vt -0.021157 0.039239 0.258311
vt -0.325934 0.960759 0.258311
vt -0.325933 0.039239 0.258311
vt -0.021157 0.039239 0.258311
vt 1.007284 0.014355 0.039237
vt -0.312067 0.014355 0.039237
vt 1.021157 0.000500 0.039237
vt -0.325923 0.000500 0.039237
vt 1.021157 0.000500 0.039237
vt -0.312067 0.014355 0.039237
vt -0.312067 0.014355 0.039237
vt -0.312054 0.999497 0.039240
vt -0.325934 0.999501 0.039240
vt -0.325934 0.999501 0.039240
vt 1.007283 0.999489 0.039244
vt 1.007284 0.820114 0.039237
vt 1.021147 0.833960 0.039237
vt 1.312077 0.820114 0.039237
vt 1.312077 0.272166 0.039239
vt 1.325933 0.258311 0.039239
vt 1.325933 0.258311 0.039239
vt 1.325934 0.833960 0.039237
vt 1.312077 0.820114 0.039237
vt 1.007284 0.272166 0.039239
vt 1.021157 0.000500 0.039237
vt 1.021157 0.258311 0.039239
vt 1.007284 0.272166 0.039239
vt 1.007284 0.820114 0.039237
vt 1.325934 0.833960 0.039237
vt 1.325934 0.833960 0.039237
vt 1.021147 0.833960 0.039237
vt 1.312077 0.272166 0.039239
vt 1.021157 0.258311 0.039239
vt 1.021176 0.999494 0.039240
vt 1.007283 0.999489 0.039244
vt 1.021176 0.960760 0.999494
vt 1.007283 0.039244 0.999489
vt -0.312054 0.039240 0.999497
vt -0.325933 0.960760 0.999500
vt -0.421831 1.715396 0.000500
vt -0.421832 -0.715410 0.000500
vt 0.043432 1.715396 0.000501
vt 0.565735 0.937379 0.647904
vt 1.082285 1.715377 0.000500
vt 1.381030 -0.715429 0.000501
vt 1.381023 -0.690384 0.000501
vt 1.381018 1.715429 0.000501
vt 1.381010 1.690360 0.000499
vt 0.565735 0.499977 0.999501
vt 1.381026 0.499977 0.999501
vt -0.829615 -0.240038 0.000500
vt 1.601191 -0.240039 0.000500
vt -0.829615 0.225226 0.000500
vt -0.051598 0.747528 0.647903
vt -0.829596 1.264079 0.000500
vt -1.379585 0.225226 0.000500
vt -1.379581 0.747529 0.647903
vt -1.379584 1.264079 0.000500
vt 0.385803 0.747528 0.999500
vt 0.995054 -0.064716 0.194835
vt 0.004946 -0.008783 0.988424
vt 0.194835 -0.064716 0.237578
vt 0.011504 0.067065 0.995054
vt 0.805165 -0.120218 0.732008
vt 0.004949 -0.120218 0.194906
vt 0.591630 0.951403 0.893873
vt 0.106135 0.807417 0.194835
vt 0.004951 0.899238 0.194907
vt 0.327171 0.995050 1.032778
vt 0.459436 0.995050 1.169428
vt 0.591701 0.995050 1.306926
vt 0.723966 0.995050 1.215193
vt 0.143769 1.112651 0.995050
vt 0.995053 0.807417 0.988498
vt 0.407035 0.492002 0.011502
vt 0.634422 0.492002 0.011502
vt 0.011502 0.807417 0.237578
vt 0.004946 0.321412 0.526229
vt 0.995054 0.321412 0.679561
vt 0.004946 0.807417 0.988424
vt 0.011576 0.321412 0.358874
vt 0.988424 0.321412 0.588876
vt 0.473771 0.004946 0.657115
vt 0.320439 0.004946 0.657115
vt 0.011576 0.358874 0.657115
vt 0.011576 0.588876 0.657115
vt 0.995054 0.807417 0.194835
vt 0.893872 0.807417 0.988417
vt 0.004951 0.807417 0.194907
vt 0.267992 0.807417 0.194835
vt 0.194835 0.807417 0.237578
vt 0.011502 -0.120218 0.237578
vt 0.267992 -0.120218 0.011502
vt 0.267992 0.807417 0.011502
vt 0.634422 -0.120218 0.011502
vt 0.011502 -0.120218 0.592965
vt 0.971832 0.592965 0.492002
vt 0.971832 0.365578 0.492002
vt 0.029946 0.321412 0.526229
vt 0.970054 0.321412 0.679561
vt 0.028242 0.321412 0.358874
vt 0.971758 0.321412 0.588876
vt 0.473771 0.029946 0.657115
vt 0.320439 0.029946 0.657115
vt 0.028242 0.358874 0.657115
vt 0.028242 0.588876 0.657115
vt 0.971832 -0.120218 0.365578
vt 0.028168 -0.120218 0.592965
vt 0.988417 0.880686 0.893871
vt 0.327100 1.032778 0.893872
vt 0.995053 1.001683 0.988498
vt 0.194830 0.899238 0.893865
vt 0.459365 1.169428 0.893851
vt 0.591630 1.306926 0.893873
vt 0.723895 1.215193 0.893864
vt 0.856160 1.112651 0.893859
vt 0.988417 1.001683 0.893871
vt 0.194835 0.880686 0.893865
vt 0.380247 0.602284 0.011502
vt 0.662444 0.602283 0.011502
vt 0.327171 0.995050 1.032778
vt 0.194907 0.995049 0.899238
vt 0.194830 0.893865 0.899238
vt 0.459436 0.995050 1.169428
vt 0.327171 0.995050 1.032778
vt 0.327100 0.893872 1.032778
vt 0.591701 0.995050 1.306926
vt 0.459436 0.995050 1.169428
vt 0.459365 0.893851 1.169428
vt 0.723966 0.995050 1.215193
vt 0.591701 0.995050 1.306926
vt 0.591630 0.893873 1.306926
vt 0.856231 0.995050 1.112651
vt 0.723966 0.995050 1.215193
vt 0.723895 0.893864 1.215193
vt 0.988498 0.995053 1.001683
vt 0.856231 0.995050 1.112651
vt 0.856160 0.893859 1.112651
vt 0.194835 -0.064716 0.004946
vt 0.988424 -0.008783 0.004946
vt 0.679561 0.321412 0.004946
vt 0.679561 0.321412 0.004946
vt 0.526229 0.321412 0.004946
vt 0.194835 -0.064716 0.004946
vt 0.194835 -0.064716 0.004946
vt 0.526229 0.321412 0.004946
vt 0.526229 0.657115 0.004946
vt 0.679561 0.321412 0.004946
vt 0.988424 -0.008783 0.004946
vt 0.988424 0.807417 0.004946
vt 0.988424 0.807417 0.004946
vt 0.679561 0.657115 0.004946
vt 0.679561 0.321412 0.004946
vt 0.194835 -0.064716 0.004946
vt 0.526229 0.657115 0.004946
vt 0.194835 0.807417 0.004946
vt 0.526229 0.657115 0.004946
vt 0.679561 0.657115 0.004946
vt 0.988424 0.807417 0.004946
vt 0.988424 0.807417 0.004946
vt 0.194835 0.807417 0.004946
vt 0.526229 0.657115 0.004946
vt 0.358874 0.321412 0.988424
vt 0.004946 0.807417 0.988424
vt 0.004946 -0.008783 0.988424
vt 0.004946 -0.008783 0.988424
vt 0.995054 0.067065 0.988496
vt 0.588876 0.321412 0.988424
vt 0.588876 0.321412 0.988424
vt 0.358874 0.321412 0.988424
vt 0.995053 0.807417 0.988498
vt 0.588876 0.321412 0.988424
vt 0.995054 0.067065 0.988496
vt 0.004946 0.807417 0.988424
vt 0.358874 0.321412 0.988424
vt 0.358874 0.657115 0.988424
vt 0.995053 0.807417 0.988498
vt 0.588876 0.657115 0.988424
vt 0.588876 0.321412 0.988424
vt 0.358874 0.657115 0.988424
vt 0.588876 0.657115 0.988424
vt 0.004946 0.807417 0.988424
vt 0.588876 0.657115 0.988424
vt 0.995053 0.807417 0.988498
vt 0.893872 0.807417 0.988417
vt 0.893872 0.807417 0.988417
vt 0.588876 0.657115 0.988424
vt 0.805093 0.807417 0.995049
vt 0.011502 0.807417 0.995053
vt 0.011504 0.067065 0.995054
vt 0.805094 -0.120218 0.995051
vt 0.805093 0.807417 0.995049
vt 0.011502 0.807417 0.995053
vt 0.805093 0.807417 0.995049
vt 0.143769 1.112651 0.995050
vt 0.276034 1.215193 0.995050
vt 0.143769 1.112651 0.995050
vt 0.805093 0.807417 0.995049
vt 0.408299 1.306926 0.995050
vt 0.276034 1.215193 0.995050
vt 0.805093 0.807417 0.995049
vt 0.540564 1.169428 0.995050
vt 0.408299 1.306926 0.995050
vt 0.805093 0.807417 0.995049
vt 0.672829 1.032778 0.995050
vt 0.540564 1.169428 0.995050
vt 0.805093 0.807417 0.995049
vt 0.805093 0.899238 0.995049
vt 0.672829 1.032778 0.995050
vt 0.805093 0.807417 0.995049
vt 0.267992 -0.120218 0.011502
vt 0.407035 -0.120218 0.011502
vt 0.407035 0.492002 0.011502
vt 0.634422 -0.120218 0.011502
vt 0.762422 -0.120218 0.011502
vt 0.762422 0.807417 0.011502
vt 0.762422 0.807417 0.011502
vt 0.662444 0.602283 0.011502
vt 0.634422 -0.120218 0.011502
vt 0.380247 0.602284 0.011502
vt 0.662444 0.602283 0.011502
vt 0.762422 0.807417 0.011502
vt 0.004949 -0.120218 0.194906
vt 0.267992 -0.120218 0.194835
vt 0.267992 0.807417 0.194835
vt 0.762422 0.807417 0.011502
vt 0.267992 0.807417 0.011502
vt 0.380247 0.602284 0.011502
vt 0.762422 -0.064716 0.194835
vt 0.995054 0.807417 0.194835
vt 0.762422 0.807417 0.194835
vt 0.762422 -0.064716 0.194835
vt 0.805165 0.807417 0.732008
vt 0.988498 -0.120218 0.732008
vt 0.988498 -0.120218 0.732008
vt 0.988498 0.807417 0.732008
vt 0.805165 0.807417 0.732008
vt 0.194835 -0.064716 0.237578
vt 0.011502 0.807417 0.237578
vt 0.526229 0.004946 0.321412
vt 0.679561 0.004946 0.321412
vt 0.679561 0.029946 0.321412
vt 0.679561 0.029946 0.321412
vt 0.526229 0.029946 0.321412
vt 0.526229 0.004946 0.321412
vt 0.004946 0.657115 0.526229
vt 0.029946 0.321412 0.526229
vt 0.029946 0.657115 0.526229
vt 0.004946 0.657115 0.526229
vt 0.995054 0.321412 0.679561
vt 0.995054 0.657115 0.679561
vt 0.970054 0.657115 0.679561
vt 0.970054 0.657115 0.679561
vt 0.320439 0.004946 0.657115
vt 0.473771 0.029946 0.657115
vt 0.988424 0.358874 0.321412
vt 0.988424 0.588876 0.321412
vt 0.971758 0.588876 0.321412
vt 0.971758 0.588876 0.321412
vt 0.971758 0.358874 0.321412
vt 0.988424 0.358874 0.321412
vt 0.011576 0.657115 0.358874
vt 0.028242 0.321412 0.358874
vt 0.028242 0.657115 0.358874
vt 0.011576 0.657115 0.358874
vt 0.988424 0.321412 0.588876
vt 0.988424 0.657115 0.588876
vt 0.971758 0.657115 0.588876
vt 0.971758 0.657115 0.588876
vt 0.011576 0.588876 0.657115
vt 0.028242 0.358874 0.657115
vt 0.011502 0.492002 0.592965
vt 0.028168 -0.120218 0.592965
vt 0.988498 -0.120218 0.365578
vt 0.988498 0.492002 0.365578
vt 0.971832 0.492002 0.365578
vt 0.971832 0.492002 0.365578
vt 0.988498 -0.120218 0.365578
vt 0.971832 0.592965 0.492002
vt 0.988498 0.365578 0.492002
vt 0.028168 0.492002 0.592965
vt 0.011502 0.492002 0.592965
vt 0.988498 0.365578 0.492002
vt 0.988498 0.592965 0.492002
vt 0.380247 0.602284 0.011502
vt 0.267992 -0.120218 0.011502
vt 0.106135 0.807417 0.194835
vt 0.004951 0.899238 0.194907
vt 0.004951 0.807417 0.194907
vt 0.106135 0.807417 0.194835
vt 0.004949 -0.120218 0.194906
vt 0.194830 0.893865 0.899238
vt 0.327100 0.893872 1.032778
vt 0.327100 0.893872 1.032778
vt 0.459365 0.893851 1.169428
vt 0.459365 0.893851 1.169428
vt 0.591630 0.893873 1.306926
vt 0.591630 0.893873 1.306926
vt 0.723895 0.893864 1.215193
vt 0.723895 0.893864 1.215193
vt 0.856160 0.893859 1.112651
vt 0.856231 0.995050 1.112651
vt 0.856160 0.893859 1.112651
vt 0.988417 0.893871 1.001683
vt 0.988498 0.995053 1.001683
vt 0.995053 0.807417 0.988498
vt 0.893871 0.880686 0.988417
vt 0.106135 0.807417 0.194835
vt 0.106135 0.899238 0.194830
vt 0.011502 1.001683 0.995053
vt 0.011502 0.807417 0.995053
vt 0.893871 0.880686 0.988417
vt 0.995053 1.001683 0.988498
vt 0.893871 1.001683 0.988417
vt 0.893871 0.880686 0.988417
vt 0.459365 1.169428 0.893851
vt 0.327100 1.032778 0.893872
vt 0.194835 0.880686 0.893865
vt 0.194835 0.880686 0.893865
vt 0.591630 0.951403 0.893873
vt 0.591630 1.306926 0.893873
vt 0.591630 1.306926 0.893873
vt 0.194835 0.880686 0.893865
vt 0.591630 0.951403 0.893873
vt 0.988417 0.880686 0.893871
vt 0.723895 1.215193 0.893864
vt 0.723895 1.215193 0.893864
vt 0.856160 1.112651 0.893859
vt 0.988417 0.880686 0.893871
vt 0.095331 0.000499 0.500000
vt 0.900298 0.000499 0.500000
vt 0.000499 0.999500 0.500000
vt 0.999501 0.999498 -0.500000
vt 0.000500 0.999501 0.000000
vt 0.999501 0.999500 0.000000
vt 0.999500 0.000499 0.000000
vt 0.000499 0.000500 0.500000
vt 1.009694 0.000500 0.999489
vt 0.497178 0.999501 0.999359
vt -0.009694 0.000501 0.999496
vt 0.137381 0.000500 0.999481
vt 0.497179 0.730186 0.999390
vt 0.855650 0.000502 0.999451
vt 0.137381 0.000500 0.000603
vt 0.497179 0.730186 0.000496
vt 0.855650 0.000501 0.000565
vt 0.000500 0.000500 1.250000
vt 0.999500 0.000499 0.500000
vt 0.000500 0.999501 1.250000
vt 0.999501 0.999501 0.500000
vt 0.031667 0.503367 0.363083
vt 0.968333 0.503367 0.586225
vt 0.031667 0.363083 1.003350
vt 0.031667 0.586225 1.003350
vt 0.043966 0.503367 0.526039
vt 0.956034 0.503367 0.678257
vt 0.473961 0.043966 1.003350
vt 0.321743 0.043966 1.003350
vt 0.117883 1.227205 0.197051
vt 0.015048 1.227204 0.245405
vt 0.019711 1.227204 0.984878
vt 0.980289 1.227204 0.197050
vt 0.882124 1.227204 0.984871
vt 0.274912 1.227204 0.197051
vt 0.197051 1.227204 0.245405
vt 0.274912 1.227204 0.015048
vt 0.984871 1.336328 0.882124
vt 0.197051 1.336327 0.882117
vt 0.980289 -0.071718 0.197050
vt 0.019711 0.011587 0.984878
vt 0.197050 -0.071718 0.245405
vt 0.015051 0.124552 0.980289
vt 0.802949 -0.154380 0.725088
vt 0.019714 -0.154380 0.197121
vt 0.590965 1.441651 0.882126
vt 0.019716 1.363959 0.197122
vt 0.328426 0.980285 1.562847
vt 0.459731 0.980285 1.766370
vt 0.591035 0.980285 1.971154
vt 0.722340 0.980285 1.834530
vt 0.146355 1.681808 0.980285
vt 0.980287 1.227204 0.984952
vt 0.409808 0.652557 0.015048
vt 0.630412 0.652557 0.015048
vt 0.019711 0.503367 0.526039
vt 0.980289 0.503367 0.678257
vt 0.015122 0.503367 0.363083
vt 0.984878 0.503367 0.586225
vt 0.473961 0.019711 1.003350
vt 0.321743 0.019711 1.003350
vt 0.015122 0.363083 1.003350
vt 0.015122 0.586225 1.003350
vt 0.019716 1.227204 0.197122
vt 0.015048 -0.154380 0.245405
vt 0.274911 -0.154380 0.015048
vt 0.630412 -0.154380 0.015048
vt 0.015048 -0.154380 0.590192
vt 0.968406 0.590192 0.652557
vt 0.968406 0.369588 0.652557
vt 0.968406 -0.154380 0.369588
vt 0.031594 -0.154380 0.590192
vt 0.328355 1.562847 0.882125
vt 0.980287 1.516536 0.984952
vt 0.197046 1.363959 0.882118
vt 0.459660 1.766370 0.882104
vt 0.590965 1.971154 0.882126
vt 0.722269 1.834530 0.882116
vt 0.853574 1.681808 0.882112
vt 0.984871 1.516536 0.882124
vt 0.383819 0.816806 0.015048
vt 0.657599 0.816806 0.015048
vt 0.328426 0.980285 1.562847
vt 0.197122 0.980284 1.363959
vt 0.197046 0.882118 1.363959
vt 0.459731 0.980285 1.766370
vt 0.328426 0.980285 1.562847
vt 0.328355 0.882125 1.562847
vt 0.591035 0.980285 1.971154
vt 0.459731 0.980285 1.766370
vt 0.459660 0.882104 1.766370
vt 0.722340 0.980285 1.834530
vt 0.591035 0.980285 1.971154
vt 0.590965 0.882126 1.971154
vt 0.853645 0.980285 1.681808
vt 0.722340 0.980285 1.834530
vt 0.722269 0.882116 1.834530
vt 0.984952 0.980287 1.516536
vt 0.853645 0.980285 1.681808
vt 0.853574 0.882112 1.681808
vt 0.197050 -0.071718 0.019711
vt 0.984878 0.011587 0.019711
vt 0.678257 0.503367 0.019711
vt 0.678257 0.503367 0.019711
vt 0.526039 0.503367 0.019711
vt 0.197050 -0.071718 0.019711
vt 0.197050 -0.071718 0.019711
vt 0.526039 0.503367 0.019711
vt 0.526039 1.003350 0.019711
vt 0.678257 0.503367 0.019711
vt 0.984878 0.011587 0.019711
vt 0.984878 1.227204 0.019711
vt 0.984878 1.227204 0.019711
vt 0.678257 1.003350 0.019711
vt 0.678257 0.503367 0.019711
vt 0.197050 -0.071718 0.019711
vt 0.526039 1.003350 0.019711
vt 0.197050 1.227204 0.019711
vt 0.526039 1.003350 0.019711
vt 0.678257 1.003350 0.019711
vt 0.984878 1.227204 0.019711
vt 0.984878 1.227204 0.019711
vt 0.197050 1.227204 0.019711
vt 0.526039 1.003350 0.019711
vt 0.363083 0.503367 0.984878
vt 0.019711 1.227204 0.984878
vt 0.019711 0.011587 0.984878
vt 0.019711 0.011587 0.984878
vt 0.980289 0.124552 0.984949
vt 0.586225 0.503367 0.984878
vt 0.586225 0.503367 0.984878
vt 0.363083 0.503367 0.984878
vt 0.980287 1.227204 0.984952
vt 0.586225 0.503367 0.984878
vt 0.980289 0.124552 0.984949
vt 0.019711 1.227204 0.984878
vt 0.363083 0.503367 0.984878
vt 0.363083 1.003350 0.984878
vt 0.980287 1.227204 0.984952
vt 0.586225 1.003350 0.984878
vt 0.586225 0.503367 0.984878
vt 0.363083 1.003350 0.984878
vt 0.586225 1.003350 0.984878
vt 0.019711 1.227204 0.984878
vt 0.586225 1.003350 0.984878
vt 0.980287 1.227204 0.984952
vt 0.882124 1.227204 0.984871
vt 0.882124 1.227204 0.984871
vt 0.586225 1.003350 0.984878
vt 0.802878 1.227204 0.980284
vt 0.015048 1.227204 0.980287
vt 0.015051 0.124552 0.980289
vt 0.802879 -0.154380 0.980286
vt 0.802878 1.227204 0.980284
vt 0.015048 1.227204 0.980287
vt 0.802878 1.227204 0.980284
vt 0.146355 1.681808 0.980285
vt 0.277660 1.834530 0.980285
vt 0.146355 1.681808 0.980285
vt 0.802878 1.227204 0.980284
vt 0.408965 1.971154 0.980285
vt 0.277660 1.834530 0.980285
vt 0.802878 1.227204 0.980284
vt 0.540269 1.766370 0.980285
vt 0.408965 1.971154 0.980285
vt 0.802878 1.227204 0.980284
vt 0.671574 1.562847 0.980285
vt 0.540269 1.766370 0.980285
vt 0.802878 1.227204 0.980284
vt 0.802878 1.363959 0.980284
vt 0.671574 1.562847 0.980285
vt 0.802878 1.227204 0.980284
vt 0.274911 -0.154380 0.015048
vt 0.409808 -0.154380 0.015048
vt 0.409808 0.652557 0.015048
vt 0.630412 -0.154380 0.015048
vt 0.754595 -0.154380 0.015048
vt 0.754595 1.227204 0.015048
vt 0.754595 1.227204 0.015048
vt 0.657599 0.816806 0.015048
vt 0.630412 -0.154380 0.015048
vt 0.383819 0.816806 0.015048
vt 0.657599 0.816806 0.015048
vt 0.754595 1.227204 0.015048
vt 0.019714 -0.154380 0.197121
vt 0.274912 -0.154380 0.197051
vt 0.274912 1.227204 0.197051
vt 0.754595 1.227204 0.015048
vt 0.274912 1.227204 0.015048
vt 0.383819 0.816806 0.015048
vt 0.754595 -0.071718 0.197050
vt 0.980289 1.227204 0.197050
vt 0.754595 1.227204 0.197051
vt 0.754595 -0.071718 0.197050
vt 0.802949 1.227204 0.725088
vt 0.984952 -0.154380 0.725089
vt 0.984952 -0.154380 0.725089
vt 0.984952 1.227204 0.725088
vt 0.802949 1.227204 0.725088
vt 0.197050 -0.071718 0.245405
vt 0.015048 1.227204 0.245405
vt 0.526039 0.019711 0.503367
vt 0.678257 0.019711 0.503367
vt 0.678257 0.043966 0.503367
vt 0.678257 0.043966 0.503367
vt 0.526039 0.043966 0.503367
vt 0.526039 0.019711 0.503367
vt 0.019711 1.003350 0.526039
vt 0.043966 0.503367 0.526039
vt 0.043966 1.003350 0.526039
vt 0.019711 1.003350 0.526039
vt 0.980289 0.503367 0.678257
vt 0.980289 1.003350 0.678257
vt 0.956034 1.003350 0.678257
vt 0.956034 1.003350 0.678257
vt 0.321743 0.019711 1.003350
vt 0.473961 0.043966 1.003350
vt 0.984878 0.363083 0.503367
vt 0.984878 0.586225 0.503367
vt 0.968333 0.586225 0.503367
vt 0.968333 0.586225 0.503367
vt 0.968333 0.363083 0.503367
vt 0.984878 0.363083 0.503367
vt 0.015122 1.003350 0.363083
vt 0.031667 0.503367 0.363083
vt 0.031667 1.003350 0.363083
vt 0.015122 1.003350 0.363083
vt 0.984878 0.503367 0.586225
vt 0.984878 1.003350 0.586225
vt 0.968333 1.003350 0.586225
vt 0.968333 1.003350 0.586225
vt 0.015122 0.586225 1.003350
vt 0.031667 0.363083 1.003350
vt 0.015048 0.652557 0.590192
vt 0.031594 -0.154380 0.590192
vt 0.984952 -0.154380 0.369588
vt 0.984952 0.652557 0.369588
vt 0.968406 0.652557 0.369588
vt 0.968406 0.652557 0.369588
vt 0.984952 -0.154380 0.369588
vt 0.968406 0.590192 0.652557
vt 0.984952 0.369588 0.652557
vt 0.031594 0.652557 0.590192
vt 0.015048 0.652557 0.590192
vt 0.984952 0.369588 0.652557
vt 0.984952 0.590192 0.652557
vt 0.383819 0.816806 0.015048
vt 0.274911 -0.154380 0.015048
vt 0.117883 1.227205 0.197051
vt 0.019716 1.363959 0.197122
vt 0.019716 1.227204 0.197122
vt 0.117883 1.227205 0.197051
vt 0.019714 -0.154380 0.197121
vt 0.197046 0.882118 1.363959
vt 0.328355 0.882125 1.562847
vt 0.328355 0.882125 1.562847
vt 0.459660 0.882104 1.766370
vt 0.459660 0.882104 1.766370
vt 0.590965 0.882126 1.971154
vt 0.590965 0.882126 1.971154
vt 0.722269 0.882116 1.834530
vt 0.722269 0.882116 1.834530
vt 0.853574 0.882112 1.681808
vt 0.853645 0.980285 1.681808
vt 0.853574 0.882112 1.681808
vt 0.984871 0.882124 1.516536
vt 0.984952 0.980287 1.516536
vt 0.980287 1.227204 0.984952
vt 0.882124 1.336328 0.984871
vt 0.117883 1.227205 0.197051
vt 0.117882 1.363959 0.197046
vt 0.015048 1.516536 0.980287
vt 0.015048 1.227204 0.980287
vt 0.882124 1.336328 0.984871
vt 0.980287 1.516536 0.984952
vt 0.882124 1.516536 0.984871
vt 0.882124 1.336328 0.984871
vt 0.459660 1.766370 0.882104
vt 0.328355 1.562847 0.882125
vt 0.197051 1.336327 0.882117
vt 0.197051 1.336327 0.882117
vt 0.590965 1.441651 0.882126
vt 0.590965 1.971154 0.882126
vt 0.590965 1.971154 0.882126
vt 0.197051 1.336327 0.882117
vt 0.590965 1.441651 0.882126
vt 0.984871 1.336328 0.882124
vt 0.722269 1.834530 0.882116
vt 0.722269 1.834530 0.882116
vt 0.853574 1.681808 0.882112
vt 0.984871 1.336328 0.882124
vt -0.421831 1.715396 0.000500
vt 0.043432 1.715396 0.000501
vt 0.565735 0.937379 0.647904
vt 1.082285 1.715377 0.000500
vt 1.381010 1.690360 0.000499
vt 0.804882 0.499977 0.999501
vt 1.381026 0.499977 0.999501
vt -0.516732 -0.715410 0.000500
vt 1.286130 -0.715429 0.000501
vt 1.487318 -0.715429 0.000501
vt 0.706186 0.503773 0.999501
vt 1.597397 0.499977 0.999501
vt 1.093377 0.503773 0.999501
vt -0.421831 1.715396 0.000500
vt -0.421832 -0.715410 0.000500
vt 0.043432 1.715396 0.000501
vt 0.565735 0.937379 0.647904
vt 1.082285 1.715377 0.000500
vt 1.381030 -0.715429 0.000501
vt 1.381023 -0.690384 0.000501
vt 1.381018 1.715429 0.000501
vt 1.381010 1.690360 0.000499
vt 0.565735 0.499977 0.999501
vt 1.381026 0.499977 0.999501
vt -0.829615 -0.240038 0.000500
vt 1.601191 -0.240039 0.000500
vt -0.829615 0.225226 0.000500
vt -0.051598 0.747528 0.647903
vt -0.829596 1.264079 0.000500
vt -1.379585 0.225226 0.000500
vt -1.379581 0.747529 0.647903
vt -1.379584 1.264079 0.000500
vt 0.385803 0.747528 0.999500
vt 0.017617 0.436604 0.357607
vt 0.982383 0.436604 0.589674
vt 0.017617 0.357607 0.888512
vt 0.017617 0.589674 0.888512
vt 0.025724 0.436604 0.526820
vt 0.974276 0.436604 0.683605
vt 0.473180 0.025724 0.888511
vt 0.316395 0.025724 0.888511
vt 0.102598 1.090842 0.187962
vt 0.000500 1.090841 0.235221
vt 0.000500 1.090841 0.999425
vt 0.999500 1.090841 0.187962
vt 0.897409 1.090841 0.999417
vt 0.265908 1.090841 0.187962
vt 0.187962 1.090841 0.235221
vt 0.265908 1.090841 0.000500
vt 0.999417 1.189472 0.836072
vt 0.187962 1.189472 0.897402
vt 0.406200 0.571448 0.000500
vt 0.635629 0.571448 0.000500
vt 0.982458 0.593800 0.571448
vt 0.982458 0.364371 0.571448
vt 0.982458 -0.157898 0.364371
vt 0.017542 -0.157898 0.593800
vt 0.379172 0.719905 0.000500
vt 0.663903 0.719905 0.000500
vt 0.999500 -0.083184 0.187962
vt 0.000500 -0.007889 0.999425
vt 0.187962 -0.083184 0.235221
vt 0.000502 0.094213 0.999500
vt 0.812038 -0.157898 0.734092
vt 0.000503 -0.157898 0.188035
vt 0.593693 1.284668 0.836074
vt 0.000505 1.214447 0.188035
vt 0.676721 1.394211 0.999496
vt 0.458522 0.999496 1.578164
vt 0.593766 0.999496 1.763257
vt 0.729010 0.999496 1.639771
vt 0.135746 1.501733 0.999496
vt 0.999499 1.090841 0.999500
vt 0.000500 0.436604 0.526820
vt 0.999500 0.436604 0.683605
vt 0.000575 0.436603 0.357607
vt 0.999425 0.436603 0.589674
vt 0.473180 0.000500 0.888511
vt 0.316395 0.000500 0.888511
vt 0.000575 0.357607 0.888512
vt 0.000575 0.589674 0.888512
vt 0.000505 1.090841 0.188035
vt 0.000500 -0.157898 0.235221
vt 0.265908 -0.157898 0.000500
vt 0.635629 -0.157898 0.000500
vt 0.000500 -0.157898 0.593800
vt 0.187957 1.214447 0.897402
vt 0.999499 1.352353 0.999500
vt 0.458450 1.578164 0.897388
vt 0.593693 1.763257 0.836074
vt 0.728937 1.639771 0.836064
vt 0.864181 1.501733 0.836060
vt 0.999417 1.352353 0.836072
vt 0.323279 0.999496 1.394211
vt 0.188035 0.999495 1.214447
vt 0.187957 0.897402 1.214447
vt 0.458522 0.999496 1.578164
vt 0.323279 0.999496 1.394211
vt 0.187957 0.897402 1.214447
vt 0.593766 0.999496 1.763257
vt 0.458522 0.999496 1.578164
vt 0.458450 0.897388 1.578164
vt 0.729010 0.999496 1.639771
vt 0.593766 0.999496 1.763257
vt 0.593693 0.836074 1.763257
vt 0.864254 0.999496 1.501733
vt 0.729010 0.999496 1.639771
vt 0.728937 0.836064 1.639771
vt 0.999500 0.999499 1.352353
vt 0.864254 0.999496 1.501733
vt 0.864181 0.836060 1.501733
vt 0.187962 -0.083184 0.000500
vt 0.999425 -0.007889 0.000500
vt 0.683605 0.436604 0.000500
vt 0.683605 0.436604 0.000500
vt 0.526820 0.436604 0.000500
vt 0.187962 -0.083184 0.000500
vt 0.187962 -0.083184 0.000500
vt 0.526820 0.436604 0.000500
vt 0.526820 0.888511 0.000500
vt 0.683605 0.436604 0.000500
vt 0.999425 -0.007889 0.000500
vt 0.999425 1.090841 0.000500
vt 0.999425 1.090841 0.000500
vt 0.683605 0.888511 0.000500
vt 0.683605 0.436604 0.000500
vt 0.187962 -0.083184 0.000500
vt 0.526820 0.888511 0.000500
vt 0.187962 1.090841 0.000500
vt 0.526820 0.888511 0.000500
vt 0.683605 0.888511 0.000500
vt 0.999425 1.090841 0.000500
vt 0.999425 1.090841 0.000500
vt 0.187962 1.090841 0.000500
vt 0.526820 0.888511 0.000500
vt 0.357607 0.436603 0.999425
vt 0.000500 1.090841 0.999425
vt 0.000500 -0.007889 0.999425
vt 0.000500 -0.007889 0.999425
vt 0.999500 0.094213 0.999498
vt 0.589674 0.436603 0.999425
vt 0.589674 0.436603 0.999425
vt 0.357607 0.436603 0.999425
vt 0.999499 1.090841 0.999500
vt 0.589674 0.436603 0.999425
vt 0.999500 0.094213 0.999498
vt 0.000500 1.090841 0.999425
vt 0.357607 0.436603 0.999425
vt 0.357607 0.888512 0.999425
vt 0.999499 1.090841 0.999500
vt 0.589674 0.888512 0.999425
vt 0.589674 0.436603 0.999425
vt 0.357607 0.888512 0.999425
vt 0.589674 0.888512 0.999425
vt 0.000500 1.090841 0.999425
vt 0.589674 0.888512 0.999425
vt 0.999499 1.090841 0.999500
vt 0.897409 1.090841 0.999417
vt 0.897409 1.090841 0.999417
vt 0.589674 0.888512 0.999425
vt 0.811965 1.090841 0.999495
vt 0.000500 1.090841 0.999499
vt 0.000502 0.094213 0.999500
vt 0.811965 -0.157898 0.999497
vt 0.811965 1.090841 0.999495
vt 0.000500 1.090841 0.999499
vt 0.811965 1.090841 0.999495
vt 0.135746 1.501733 0.999496
vt 0.270990 1.639771 0.999496
vt 0.135746 1.501733 0.999496
vt 0.811965 1.090841 0.999495
vt 0.406234 1.763257 0.999496
vt 0.270990 1.639771 0.999496
vt 0.811965 1.090841 0.999495
vt 0.541478 1.578164 0.999496
vt 0.406234 1.763257 0.999496
vt 0.811965 1.090841 0.999495
vt 0.676721 1.394211 0.999496
vt 0.541478 1.578164 0.999496
vt 0.811965 1.090841 0.999495
vt 0.811965 1.214447 0.999495
vt 0.811965 1.090841 0.999495
vt 0.265908 -0.157898 0.000500
vt 0.406200 -0.157898 0.000500
vt 0.406200 0.571448 0.000500
vt 0.635629 -0.157898 0.000500
vt 0.764779 -0.157898 0.000500
vt 0.764779 1.090841 0.000500
vt 0.764779 1.090841 0.000500
vt 0.663903 0.719905 0.000500
vt 0.635629 -0.157898 0.000500
vt 0.379172 0.719905 0.000500
vt 0.663903 0.719905 0.000500
vt 0.764779 1.090841 0.000500
vt 0.000503 -0.157898 0.188035
vt 0.265908 -0.157898 0.187962
vt 0.265908 1.090841 0.187962
vt 0.764779 1.090841 0.000500
vt 0.265908 1.090841 0.000500
vt 0.379172 0.719905 0.000500
vt 0.764779 -0.083184 0.187962
vt 0.999500 1.090841 0.187962
vt 0.764779 1.090841 0.187962
vt 0.764779 -0.083184 0.187962
vt 0.812038 1.090841 0.734092
vt 0.999500 -0.157898 0.734092
vt 0.999500 -0.157898 0.734092
vt 0.999500 1.090841 0.734092
vt 0.812038 1.090841 0.734092
vt 0.187962 -0.083184 0.235221
vt 0.000500 1.090841 0.235221
vt 0.526820 0.000500 0.436604
vt 0.683605 0.000500 0.436604
vt 0.683605 0.025724 0.436604
vt 0.683605 0.025724 0.436604
vt 0.526820 0.025724 0.436604
vt 0.526820 0.000500 0.436604
vt 0.000500 0.888511 0.526820
vt 0.025724 0.436604 0.526820
vt 0.025724 0.888511 0.526820
vt 0.000500 0.888511 0.526820
vt 0.999500 0.436604 0.683605
vt 0.999500 0.888511 0.683605
vt 0.974276 0.888511 0.683605
vt 0.974276 0.888511 0.683605
vt 0.316395 0.000500 0.888511
vt 0.473180 0.025724 0.888511
vt 0.999425 0.357607 0.436603
vt 0.999425 0.589674 0.436603
vt 0.982383 0.589674 0.436604
vt 0.982383 0.589674 0.436604
vt 0.982383 0.357607 0.436604
vt 0.999425 0.357607 0.436603
vt 0.000575 0.888512 0.357607
vt 0.017617 0.436604 0.357607
vt 0.017617 0.888512 0.357607
vt 0.000575 0.888512 0.357607
vt 0.999425 0.436603 0.589674
vt 0.999425 0.888512 0.589674
vt 0.982383 0.888512 0.589674
vt 0.982383 0.888512 0.589674
vt 0.000575 0.589674 0.888512
vt 0.017617 0.357607 0.888512
vt 0.000500 0.571448 0.593800
vt 0.017542 -0.157898 0.593800
vt 0.999500 -0.157898 0.364371
vt 0.999500 0.571448 0.364371
vt 0.982458 0.571448 0.364371
vt 0.982458 0.571448 0.364371
vt 0.999500 -0.157898 0.364371
vt 0.982458 0.593800 0.571448
vt 0.999500 0.364371 0.571448
vt 0.017542 0.571448 0.593800
vt 0.000500 0.571448 0.593800
vt 0.999500 0.364371 0.571448
vt 0.999500 0.593800 0.571448
vt 0.379172 0.719905 0.000500
vt 0.265908 -0.157898 0.000500
vt 0.102598 1.090842 0.187962
vt 0.000505 1.214447 0.188035
vt 0.000505 1.090841 0.188035
vt 0.102598 1.090842 0.187962
vt 0.000503 -0.157898 0.188035
vt 0.187957 0.897402 1.214447
vt 0.458450 0.897388 1.578164
vt 0.458450 0.897388 1.578164
vt 0.593693 0.836074 1.763257
vt 0.593693 0.836074 1.763257
vt 0.728937 0.836064 1.639771
vt 0.728937 0.836064 1.639771
vt 0.864181 0.836060 1.501733
vt 0.864254 0.999496 1.501733
vt 0.864181 0.836060 1.501733
vt 0.999417 0.836072 1.352353
vt 0.999500 0.999499 1.352353
vt 0.999499 1.090841 0.999500
vt 0.836072 1.189472 0.999417
vt 0.102598 1.090842 0.187962
vt 0.102598 1.214447 0.187957
vt 0.000500 1.352353 0.999499
vt 0.000500 1.090841 0.999499
vt 0.836072 1.189472 0.999417
vt 0.999499 1.352353 0.999500
vt 0.836072 1.352353 0.999417
vt 0.836072 1.189472 0.999417
vt 0.458450 1.578164 0.897388
vt 0.187962 1.189472 0.897402
vt 0.458450 1.578164 0.897388
vt 0.593693 1.284668 0.836074
vt 0.593693 1.763257 0.836074
vt 0.593693 1.284668 0.836074
vt 0.999417 1.189472 0.836072
vt 0.728937 1.639771 0.836064
vt 0.728937 1.639771 0.836064
vt 0.593693 1.284668 0.836074
vt 0.864181 1.501733 0.836060
vt 0.999417 1.189472 0.836072
vt 13.167746 0.960759 -0.021157
vt -12.167751 0.960759 1.325923
vt -12.716982 0.960759 0.258311
vt 13.716726 0.960759 0.833960
vt 13.365129 0.039244 0.999489
vt -20.446373 0.960760 0.999500
vt 21.094967 0.272166 0.039239
vt -20.094696 0.014355 0.039237
vt 13.365148 0.014355 0.039237
vt -20.094387 0.039240 0.999497
vt 13.365142 0.820114 0.039237
vt 13.365142 0.272166 0.039239
vt -20.446375 0.960759 0.258311
vt -7.969513 0.960759 -0.325934
vt 21.094967 0.820114 0.039237
vt 13.716988 0.000500 0.039237
vt -20.446106 0.000500 0.039237
vt -20.446375 0.039240 0.999501
vt 13.716722 0.833960 0.039237
vt 21.446373 0.258311 0.039239
vt 13.716985 0.258311 0.039239
vt -7.969511 0.039237 -0.325934
vt -20.094385 0.960760 0.999497
vt 13.717453 0.960760 0.999494
vt 13.717453 0.039240 0.999494
vt 13.365129 0.960755 0.999489
vt -5.863212 0.960757 -0.325933
vt 4.423312 0.960762 -0.325933
vt -12.716985 0.039237 0.000500
vt 21.446106 0.039237 0.000500
vt 21.446106 0.960759 0.000500
vt -12.716985 0.960759 0.000500
vt -12.167754 0.039237 1.325923
vt 13.167758 0.039240 1.325934
vt 13.167757 0.960760 1.325933
vt -12.167589 0.039240 -0.021176
vt -7.969510 0.039237 -0.021147
vt -7.969511 0.960759 -0.021147
vt -12.167587 0.960760 -0.021176
vt 6.629428 0.039239 -0.325933
vt 6.629428 0.960759 -0.325934
vt 6.629431 0.039239 -0.021157
vt 13.167746 0.039237 -0.021157
vt 6.629428 0.960759 -0.021157
vt 13.716722 0.039237 0.833960
vt 21.446375 0.039237 0.833960
vt 21.446375 0.960759 0.833960
vt -12.716979 0.039239 0.258311
vt -20.446373 0.039239 0.258311
vt -20.094387 0.999497 0.039240
vt -20.446375 0.999501 0.039240
vt 13.365129 0.999489 0.039244
vt 21.446379 0.833960 0.039237
vt 13.717453 0.999494 0.039240
# 1042 texture coords

g Toompuiestee_30_2
usemtl TP_30_k_AKEN
s off
f -83/-1038/-465 -82/-1037/-464 -80/-1035/-463 
f -80/-1035/-462 -81/-1036/-461 -83/-1038/-460 
usemtl TP_30_k_sillus
f -58/-642/-459 -57/-641/-458 -52/-640/-457 
f -52/-640/-456 -57/-641/-455 -51/-639/-454 
usemtl TP_30_k_UKS
f -53/-635/-453 -54/-636/-452 -55/-637/-451 
f -55/-637/-450 -56/-638/-449 -53/-635/-448 
usemtl TP_30_k_viilualune
f -59/-633/-447 -66/-632/-446 -61/-631/-445 
f -67/-634/-444 -59/-633/-443 -50/-630/-442 
f -59/-633/-441 -61/-631/-440 -50/-630/-439 
f -67/-634/-438 -50/-630/-437 -60/-629/-436 
f -48/-627/-435 -49/-628/-434 -47/-626/-433 
f -61/-631/-432 -60/-629/-431 -47/-626/-430 
f -47/-626/-429 -49/-628/-428 -61/-631/-427 
f -50/-630/-426 -61/-631/-425 -49/-628/-424 
f -49/-628/-423 -48/-627/-422 -50/-630/-421 
f -60/-629/-420 -50/-630/-419 -48/-627/-418 
f -48/-627/-417 -47/-626/-416 -60/-629/-415 
usemtl TP_30_k_AKEN
f -87/-625/-414 -86/-624/-413 -84/-622/-412 
f -84/-622/-411 -85/-623/-410 -87/-625/-409 
usemtl TP_30_k_katus
f -46/-349/-408 -79/-351/-407 -45/-346/-406 
f -44/-345/-405 -62/-347/-404 -45/-346/-403 
f -62/-347/-402 -46/-349/-401 -45/-346/-400 
f -77/-350/-399 -79/-351/-398 -46/-349/-397 
f -62/-347/-396 -76/-348/-395 -46/-349/-394 
f -45/-341/-393 -78/-344/-392 -74/-343/-391 
f -64/-342/-390 -44/-340/-389 -45/-339/-388 
f -74/-333/-387 -64/-332/-386 -45/-329/-385 
f -76/-334/-384 -62/-330/-383 -63/-331/-382 
f -77/-325/-381 -46/-324/-380 -59/-321/-379 
f -59/-321/-378 -67/-322/-377 -77/-325/-376 
f -59/-321/-375 -76/-323/-374 -66/-320/-373 
f -46/-324/-372 -76/-323/-371 -59/-321/-370 
f -79/-327/-369 -78/-326/-368 -45/-319/-367 
usemtl TP_30_k_paekivisein
f -35/-258/-366 -36/-257/-365 -16/-256/-364 
f -34/-255/-363 -35/-254/-362 -16/-253/-361 
f -33/-252/-360 -34/-251/-359 -14/-250/-358 
f -32/-249/-357 -33/-248/-356 -13/-247/-355 
f -31/-246/-354 -32/-245/-353 -12/-244/-352 
f -15/-243/-351 -31/-242/-350 -11/-241/-349 
f -43/-240/-348 -42/-239/-347 -28/-238/-346 
f -28/-237/-345 -29/-236/-344 -43/-235/-343 
f -43/-234/-342 -29/-233/-341 -25/-232/-340 
f -28/-231/-339 -42/-230/-338 -72/-229/-337 
f -72/-228/-336 -24/-227/-335 -28/-226/-334 
f -43/-225/-333 -25/-224/-332 -71/-223/-331 
f -25/-222/-330 -24/-221/-329 -72/-220/-328 
f -72/-219/-327 -71/-218/-326 -25/-217/-325 
f -27/-216/-324 -72/-215/-323 -42/-214/-322 
f -42/-213/-321 -40/-212/-320 -26/-211/-319 
f -26/-210/-318 -27/-209/-317 -42/-291/-316 
f -30/-208/-315 -26/-207/-314 -40/-206/-313 
f -72/-205/-312 -27/-204/-311 -23/-203/-310 
f -30/-202/-309 -22/-201/-308 -26/-200/-307 
f -23/-199/-306 -22/-198/-305 -72/-197/-304 
f -22/-196/-303 -30/-195/-302 -70/-194/-301 
f -70/-193/-300 -72/-308/-299 -22/-192/-298 
f -21/-191/-297 -30/-190/-296 -40/-189/-295 
f -40/-289/-294 -38/-188/-293 -21/-187/-292 
f -30/-186/-291 -21/-185/-290 -31/-184/-289 
f -32/-183/-288 -31/-182/-287 -21/-181/-286 
f -33/-180/-285 -32/-179/-284 -21/-178/-283 
f -34/-177/-282 -33/-176/-281 -21/-175/-280 
f -35/-174/-279 -34/-173/-278 -21/-172/-277 
f -36/-171/-276 -35/-284/-275 -21/-170/-274 
f -19/-169/-273 -17/-168/-272 -58/-167/-271 
f -18/-166/-270 -20/-165/-269 -73/-164/-268 
f -73/-163/-267 -51/-162/-266 -18/-161/-265 
f -52/-160/-264 -51/-159/-263 -73/-158/-262 
f -38/-157/-261 -39/-156/-260 -69/-155/-259 
f -73/-154/-258 -65/-153/-257 -52/-152/-256 
f -41/-151/-255 -43/-292/-254 -71/-150/-253 
f -71/-307/-252 -68/-149/-251 -41/-148/-250 
f -69/-147/-249 -39/-288/-248 -19/-146/-247 
f -19/-145/-246 -65/-144/-245 -69/-143/-244 
f -41/-142/-243 -68/-304/-242 -73/-141/-241 
f -73/-309/-240 -20/-269/-239 -41/-290/-238 
f -29/-140/-237 -28/-139/-236 -82/-138/-235 
f -82/-137/-234 -83/-136/-233 -29/-135/-232 
f -25/-134/-231 -29/-278/-230 -83/-133/-229 
f -83/-314/-228 -81/-132/-227 -25/-131/-226 
f -28/-130/-225 -24/-129/-224 -80/-128/-223 
f -80/-127/-222 -82/-313/-221 -28/-277/-220 
f -24/-126/-219 -25/-274/-218 -81/-125/-217 
f -81/-312/-216 -80/-311/-215 -24/-273/-214 
f -27/-124/-213 -26/-123/-212 -86/-122/-211 
f -86/-121/-210 -87/-120/-209 -27/-119/-208 
f -23/-118/-207 -27/-276/-206 -87/-117/-205 
f -87/-318/-204 -85/-116/-203 -23/-115/-202 
f -26/-114/-201 -22/-113/-200 -84/-112/-199 
f -84/-111/-198 -86/-317/-197 -26/-275/-196 
f -22/-110/-195 -23/-272/-194 -85/-109/-193 
f -85/-316/-192 -84/-315/-191 -22/-271/-190 
f -58/-108/-189 -17/-266/-188 -53/-107/-187 
f -18/-106/-186 -57/-105/-185 -55/-104/-184 
f -55/-103/-183 -54/-296/-182 -18/-102/-181 
f -56/-101/-180 -55/-297/-179 -57/-100/-178 
f -53/-295/-177 -56/-99/-176 -58/-98/-175 
f -57/-97/-174 -58/-96/-173 -56/-298/-172 
f -58/-300/-171 -52/-95/-170 -19/-94/-169 
f -75/-93/-168 -36/-92/-167 -21/-91/-166 
f -75/-90/-165 -21/-270/-164 -38/-89/-163 
f -16/-88/-162 -14/-87/-161 -34/-283/-160 
f -14/-86/-159 -13/-85/-158 -33/-282/-157 
f -13/-84/-156 -12/-83/-155 -32/-281/-154 
f -12/-82/-153 -11/-81/-152 -31/-80/-151 
f -11/-79/-150 -10/-78/-149 -15/-77/-148 
f -70/-306/-147 -30/-76/-146 -64/-75/-145 
f -36/-285/-144 -75/-74/-143 -16/-73/-142 
f -31/-280/-141 -15/-72/-140 -30/-71/-139 
f -64/-70/-138 -30/-279/-137 -15/-69/-136 
f -15/-264/-135 -10/-68/-134 -64/-67/-133 
f -69/-305/-132 -75/-310/-131 -38/-287/-130 
f -14/-66/-129 -16/-265/-128 -62/-65/-127 
f -14/-64/-126 -37/-63/-125 -13/-62/-124 
f -37/-61/-123 -64/-60/-122 -12/-59/-121 
f -12/-58/-120 -13/-262/-119 -37/-57/-118 
f -11/-56/-117 -12/-261/-116 -64/-55/-115 
f -10/-259/-114 -11/-260/-113 -64/-302/-112 
f -51/-293/-111 -57/-299/-110 -18/-267/-109 
f -52/-294/-108 -65/-303/-107 -19/-268/-106 
f -62/-301/-105 -37/-286/-104 -14/-263/-103 
usemtl TP_30_k_karniis
f -9/-26/-102 -8/-25/-101 -78/-24/-100 
f -78/-24/-99 -79/-23/-98 -9/-26/-97 
f -8/-22/-96 -7/-21/-95 -74/-20/-94 
f -74/-20/-93 -78/-53/-92 -8/-22/-91 
f -1/-19/-90 -6/-18/-89 -76/-17/-88 
f -76/-17/-87 -63/-16/-86 -1/-19/-85 
f -3/-33/-84 -5/-15/-83 -61/-28/-82 
f -60/-27/-81 -61/-28/-80 -5/-15/-79 
f -67/-14/-78 -60/-27/-77 -5/-15/-76 
f -4/-13/-75 -9/-12/-74 -79/-54/-73 
f -79/-54/-72 -77/-11/-71 -4/-13/-70 
f -76/-51/-69 -6/-10/-68 -3/-9/-67 
f -3/-9/-66 -66/-8/-65 -76/-51/-64 
f -4/-7/-63 -77/-52/-62 -67/-42/-61 
f -67/-42/-60 -5/-6/-59 -4/-7/-58 
f -71/-46/-57 -72/-47/-56 -9/-39/-55 
f -8/-38/-54 -9/-39/-53 -72/-47/-52 
f -72/-47/-51 -70/-5/-50 -7/-4/-49 
f -7/-4/-48 -8/-38/-47 -72/-47/-46 
f -75/-3/-45 -69/-44/-44 -6/-36/-43 
f -65/-40/-42 -73/-48/-41 -5/-35/-40 
f -5/-35/-39 -3/-2/-38 -65/-40/-37 
f -68/-43/-36 -71/-46/-35 -9/-39/-34 
f -9/-39/-33 -4/-34/-32 -68/-43/-31 
f -69/-44/-30 -65/-40/-29 -3/-2/-28 
f -3/-2/-27 -6/-36/-26 -69/-44/-25 
f -73/-48/-24 -68/-43/-23 -4/-34/-22 
f -4/-34/-21 -5/-35/-20 -73/-48/-19 
f -6/-36/-18 -1/-1/-17 -75/-3/-16 
f -1/-30/-15 -63/-31/-14 -75/-50/-13 
f -62/-29/-12 -75/-50/-11 -63/-31/-10 
f -70/-45/-9 -2/-32/-8 -74/-49/-7 
f -74/-49/-6 -7/-37/-5 -70/-45/-4 
f -3/-33/-3 -61/-28/-2 -66/-41/-1 
# 155 faces

