####
#
#	OBJ File Generated by LightWave3D
#	LightWave3D OBJ Export v2.3
#
####
o 6_2_puhas.obj
mtllib suurtyki_6_2.mtl
g default
v -86.6686 532.391 18.175
v -86.6686 532.391 17.86
v -86.6489 532.368 18.175
v -86.6489 532.368 17.86
v -86.6489 532.368 15.9
v -86.6489 532.368 13.94
v -85.2055 533.649 17.86
v -85.2055 533.649 17.55
v -85.2055 533.649 15.9
v -85.2055 533.649 13.94
v -85.1924 533.634 17.86
v -85.1924 533.634 15.9
v -85.1924 533.634 13.94
v -85.0545 533.78 17.55
v -85.0545 533.78 17.45
v -85.0545 533.78 14.04
v -85.0545 533.78 13.94
v -84.9942 533.833 17.45
v -84.9942 533.833 15.75
v -84.9942 533.833 15.65
v -84.9942 533.833 14.04
v -84.4809 534.279 17.45
v -84.4809 534.279 15.75
v -84.4809 534.279 15.65
v -84.4809 534.279 14.04
v -84.4206 534.332 17.55
v -84.4206 534.332 17.45
v -84.4206 534.332 14.04
v -84.4206 534.332 13.94
v -84.3602 534.384 17.45
v -84.3602 534.384 15.75
v -84.3602 534.384 15.65
v -84.3602 534.384 14.04
v -83.8319 534.843 17.45
v -83.8319 534.843 15.75
v -83.8319 534.843 15.65
v -83.8319 534.843 14.04
v -83.7715 534.896 17.55
v -83.7715 534.896 17.45
v -83.7715 534.896 14.04
v -83.7715 534.896 13.94
v -83.6206 535.027 17.86
v -83.6206 535.027 17.55
v -83.6206 535.027 15.9
v -83.6206 535.027 13.94
v -83.6075 535.012 17.86
v -83.6075 535.012 15.9
v -83.6075 535.012 13.94
v -83.3818 528.609 16.1
v -83.3818 528.609 15.9
v -83.3818 528.609 13.94
v -82.2309 536.248 18.175
v -82.2309 536.248 17.86
v -82.2113 536.226 18.175
v -82.2113 536.226 17.86
v -82.2113 536.226 15.9
v -82.2113 536.226 13.94
v -78.9441 532.467 16.1
v -78.9441 532.467 15.9
v -78.9441 532.467 13.94
vt -0.121922 5.99176
vt -0.0110606 -4.21039
vt -0.0110606 0.999726
vt 0.00888677 -3.67135
vt 0.00888677 0.547146
vt 0.00888677 4.63651
vt 0.0121951 0.0359636
vt 0.0121951 0.963237
vt 0.0192233 -0.713104
vt 0.0192233 4.75877
vt 0.0192233 -0.191974
vt 0.0210839 0.0437055
vt 0.0210839 0.445094
vt 0.0210839 0.525372
vt 0.0210839 0.926761
vt 0.0283656 0.639194
vt 0.0283656 -3.63421
vt 0.0283656 4.78179
vt 0.0315613 0.0698722
vt 0.0315613 0.454594
vt 0.0315613 0.531539
vt 0.0315613 0.916261
vt 0.0417989 0.86921
vt 0.0628156 -1.93264
vt 0.0628156 3.69716
vt 0.200953 0.982146
vt 0.201432 0.953926
vt 0.217467 0.00854609
vt 0.217945 -0.0196743
vt 0.232824 0.95449
vt 0.240961 0.474745
vt 0.24144 0.446524
vt 0.248859 0.00911001
vt 0.291906 0.700489
vt 0.291906 1.78938
vt 0.291906 2.00716
vt 0.291906 3.09604
vt 0.49347 0.0698722
vt 0.49347 0.454594
vt 0.49347 0.531539
vt 0.49347 0.916261
vt 0.50744 0.959423
vt 0.508358 -3.67135
vt 0.508358 0.547146
vt 0.508358 4.63651
vt 0.515577 0.479678
vt 0.516055 0.451457
vt 0.523474 0.0140431
vt 0.538353 0.988207
vt 0.538832 0.959987
vt 0.554867 0.014607
vt 0.555345 -0.0136134
vt 0.570212 0.960551
vt 0.578349 0.480805
vt 0.578828 0.452585
vt 0.586247 0.0151707
vt 0.81499 -3.63421
vt 0.81499 0.639194
vt 0.81499 4.78179
vt 0.836249 -12.8153
vt 0.836998 0.965343
vt 0.845135 0.485598
vt 0.845613 0.457377
vt 0.853032 0.0199631
vt 0.867899 0.994127
vt 0.868378 0.965907
vt 0.869088 -0.713104
vt 0.869088 -0.191974
vt 0.869088 4.75877
vt 0.884413 0.0205268
vt 0.884891 -0.00769361
vt 0.895447 -6.38941
vt 0.913757 -12.8153
vt 0.913757 0.86921
vt 0.940294 0.700489
vt 0.940294 1.78938
vt 0.940294 2.00716
vt 0.940294 3.09604
vt 0.941239 0.0698722
vt 0.941239 0.454594
vt 0.941239 0.531539
vt 0.941239 0.916261
vt 0.950116 0.0437055
vt 0.950116 0.445094
vt 0.950116 0.525372
vt 0.950116 0.926761
vt 0.972864 -1.93264
vt 0.972864 3.69716
vt 0.987805 0.0359636
vt 0.987805 0.963237
vt 0.993506 -6.38941
vt 0.993506 5.99176
vt 1.03609 -4.21039
vt 1.03609 0.999726
vn -0.997564 0.0697562 -0
vn -0.997564 0.0697563 -0
vn -0.997564 0.0697584 -0
vn -0.997507 0.0705646 -0
vn -0.997507 0.0705711 -0
vn -0.997507 0.0705712 -0
vn -0.814681 0.0576367 0.577038
vn -0.814679 0.0576415 0.57704
vn -0.814509 0.0569576 -0.577348
vn -0.814508 0.0569613 -0.57735
vn -0.755777 -0.654829 -0
vn -0.755777 -0.654829 -0
vn -0.754711 -0.656058 -0
vn -0.656132 0.754647 -0
vn -0.656084 0.754688 -0
vn -0.65607 0.7547 -0
vn -0.65607 0.7547 -0
vn -0.656063 0.754706 -0
vn -0.656063 0.754706 -0
vn -0.656059 0.75471 -0
vn -0.656059 0.75471 -0
vn -0.656056 0.754712 -0
vn -0.656056 0.754713 -0
vn -0.656056 0.754713 -0
vn -0.656048 0.754719 -0
vn -0.656044 0.754723 -0
vn -0.656044 0.754723 -0
vn -0.656024 0.75474 -0
vn -0.655999 0.754762 -0
vn -0.655999 0.754762 -0
vn -0.655997 0.754763 -0
vn -0.655914 0.754836 -0
vn -0.655902 0.754846 -0
vn -0.0697552 -0.997564 -0
vn -0.0697552 -0.997564 -0
vn -0.0697552 -0.997564 -0
vn 0.0569173 0.81452 0.577337
vn 0.0569298 0.814523 0.577331
vn 0.0570302 0.814473 -0.577391
vn 0.0570338 0.814474 -0.57739
vn 0.0697084 0.997567 -0
vn 0.0697084 0.997567 -0
vn 0.0697514 0.997564 -0
vn 0.0697515 0.997564 -0
vn 0.0697882 0.997562 -0
vn 0.0698542 0.997557 -0
vn 0.754655 0.656122 -0
vn 0.754655 0.656122 -0
vn 0.754776 0.655982 -0
vn 0.997564 -0.0697592 -0
vn 0.997564 -0.0697592 -0
vn 0.997564 -0.0697593 -0
usemtl LAUDIS
s off
f 5/94/2 6/93/1 51/2/36 50/3/35
f 60/24/51 57/87/44 56/88/43 59/25/50
f 51/10/36 60/69/51 59/68/50 50/11/35
f 3/23/13 5/74/2 50/73/35 49/60/34
f 59/91/50 56/92/43 54/1/49 58/72/52
f 50/11/35 59/68/50 58/67/52 49/9/34
usemtl PRUSS1
s off
f 52/75/46 53/76/40 2/35/9 1/34/3
usemtl Default
s off
f 1//3 2//9 4//10 3//13
usemtl PRUSS1
s off
f 2/37/9 53/78/40 55/77/39 4/36/10
usemtl Default
s off
f 55//39 53//40 52//46 54//49
usemtl LAUDIS
s off
f 56/58/43 47/16/41 46/17/37 55/57/39
f 48/18/42 47/16/41 56/58/43 57/59/44
f 4/4/10 11/43/7 12/44/6 5/5/2
f 5/5/2 12/44/6 13/45/5 6/6/1
usemtl uks2
s off
f 47/38/41 44/39/48 42/20/38 46/19/37
usemtl Default
s off
f 46//37 42//38 7//8 11//7
usemtl uks2
s off
f 7/22/8 9/41/11 12/40/6 11/21/7
f 48/79/42 45/80/45 44/39/47 47/38/41
f 9/41/12 10/82/4 13/81/5 12/40/6
f 42/8/38 43/7/31 8/89/22 7/90/8
usemtl PRUSS1
s off
f 45/85/45 41/86/30 38/15/29 43/14/31
f 8/13/22 14/12/18 17/83/19 10/84/4
usemtl uks1
s off
f 17/71/19 16/70/33 28/51/17 29/52/24
f 28/51/17 40/28/26 41/29/30 29/52/24
f 26/49/23 27/50/16 15/66/33 14/65/18
f 38/26/29 39/27/27 27/50/16 26/49/23
f 40/28/26 37/33/25 34/30/25 39/27/27
f 30/42/28 33/48/28 28/51/17 27/50/16
f 28/51/17 25/56/14 22/53/14 27/50/16
f 15/66/33 18/61/32 21/64/32 16/70/33
f 21/64/32 20/63/15 24/55/15 25/56/14
f 33/48/28 32/47/20 36/32/20 37/33/25
f 20/63/15 19/62/15 23/54/15 24/55/15
f 22/53/14 23/54/15 19/62/15 18/61/32
f 31/46/21 35/31/21 36/32/20 32/47/20
f 34/30/25 35/31/21 31/46/21 30/42/28
v -87.0229 532.493 18.37
v -87.0229 532.493 18.29
v -83.2637 528.169 16
v -83.2637 528.169 15.92
v -82.2833 536.613 18.37
v -82.2833 536.613 18.29
v -78.5241 532.289 16
v -78.5241 532.289 15.92
vt -4.42567 0.126174
vt -4.42567 0.43713
vt -4.42567 0.499321
vt -4.42567 0.810276
vt 0.0142144 0.243635
vt 0.0148214 0.420433
vt 0.0225016 0.381121
vt 0.0231086 0.55792
vt 0.0274732 -8.56739
vt 0.0274732 7.70579
vt 0.98693 0.246242
vt 0.987537 0.423041
vt 0.993327 -8.56739
vt 0.993327 7.70579
vt 0.995218 0.383731
vt 0.995825 0.56053
vt 14.7851 0.126174
vt 14.7851 0.43713
vt 14.7851 0.499321
vt 14.7851 0.810276
vn -0.997564 0.0697568 -0
vn -0.85636 0.199519 -0.476276
vn -0.233685 -0.750617 -0.618034
vn -0.0783938 0.875795 -0.476275
vn -0.0697563 -0.997564 -0
vn 0.0697572 0.997564 -0
vn 0.775834 0.126946 -0.618034
vn 0.997564 -0.0697569 -0
usemtl pruss_ots
s off
f 64/96/55 68/112/59 67/111/60 63/95/57
usemtl katuseLaud
s off
f 61/99/53 62/101/54 64/109/55 63/105/57
usemtl pruss_ots
s off
f 65/113/58 66/114/56 62/98/54 61/97/53
usemtl katuseLaud
s off
f 68/110/59 66/102/56 65/100/58 67/106/60
f 62/108/54 66/107/56 68/103/59 64/104/55
v -86.7044 532.386 18.22
v -86.7044 532.386 13.89
v -86.5535 532.212 18.08
v -86.5535 532.212 13.89
v -86.5308 532.537 18.22
v -86.5308 532.537 13.89
v -86.3799 532.363 18.08
v -86.3799 532.363 13.89
v -83.5356 528.741 16.22
v -83.5356 528.741 13.89
v -83.3847 528.567 16.12
v -83.3847 528.567 13.89
v -83.362 528.892 16.22
v -83.362 528.892 13.89
v -83.2111 528.718 16.12
v -83.2111 528.718 13.89
v -82.4025 536.126 18.22
v -82.4025 536.126 13.89
v -82.2516 535.952 18.08
v -82.2516 535.952 13.89
v -82.2289 536.276 18.22
v -82.2289 536.276 13.89
v -82.078 536.103 18.08
v -82.078 536.103 13.89
v -79.2338 532.48 16.22
v -79.2338 532.48 13.89
v -79.0829 532.307 16.12
v -79.0829 532.307 13.89
v -79.0602 532.631 16.22
v -79.0602 532.631 13.89
v -78.9093 532.458 16.12
v -78.9093 532.458 13.89
vt 0.0133462 -0.206821
vt 0.0133462 0.531916
vt 0.0229674 1.67763
vt 0.0239679 3.35152
vt 0.0239679 5.08608
vt 0.0239679 6.73491
vt 0.026039 0.608136
vt 0.026039 1.34101
vt 0.0261382 1.34687
vt 0.0261382 2.07975
vt 0.0542473 -0.939696
vt 0.0542473 -0.200958
vt 0.0547121 0.0288015
vt 0.0557126 1.70269
vt 0.190613 3.38449
vt 0.190613 5.03332
vt 0.794789 0.608136
vt 0.794789 1.34101
vt 0.941798 -0.939696
vt 0.941798 -0.206821
vt 0.941798 -0.200958
vt 0.941798 0.531916
vt 0.95459 1.34687
vt 0.95459 2.07975
vt 0.991185 0.0288015
vt 0.991185 1.67763
vt 0.992185 1.70269
vt 0.992185 3.35152
vt 0.992185 5.08608
vt 0.992185 6.73491
vt 0.992289 3.38449
vt 0.992289 5.03332
vn -0.997569 0.0696802 -0
vn -0.997562 0.0697801 -0
vn -0.997562 0.0697818 -0
vn -0.997556 0.0698669 -0
vn -0.0697926 -0.997561 -0
vn -0.0697801 -0.997562 -0
vn -0.0697671 -0.997563 -0
vn -0.0696802 -0.997569 -0
vn 0.0696802 0.997569 -0
vn 0.0697693 0.997563 -0
vn 0.0697801 0.997562 -0
vn 0.997562 -0.0697801 -0
vn 0.997569 -0.0696802 -0
usemtl PRUSS1
s off
f 69/117/62 70/140/62 72/139/66 71/127/66
f 73/119/71 74/143/71 70/144/62 69/120/62
f 76/141/72 74/142/71 73/118/71 75/128/72
f 72/146/66 76/145/72 75/129/72 71/130/66
f 78/134/61 80/133/68 79/125/68 77/115/61
f 80/132/68 84/131/73 83/121/73 79/122/68
f 83/126/73 84/135/73 82/136/69 81/116/69
f 81/123/69 82/137/69 78/138/61 77/124/61
f 92/139/73 90/140/71 89/117/71 91/127/73
f 90/144/71 86/143/64 85/119/64 89/120/71
f 85/118/64 86/142/64 88/141/67 87/128/67
f 87/129/67 88/145/67 92/146/73 91/130/73
f 99/125/72 100/133/72 98/134/70 97/115/70
f 95/121/65 96/131/65 100/132/72 99/122/72
f 94/136/63 96/135/65 95/126/65 93/116/63
f 98/138/70 94/137/63 93/123/63 97/124/70
v -86.5656 532.242 16
v -86.5656 532.242 15.85
v -86.5279 532.274 16
v -86.5279 532.274 15.85
v -83.4953 528.71 16
v -83.4953 528.71 15.85
v -83.4575 528.742 16
v -83.4575 528.742 15.85
v -82.143 536.086 16
v -82.143 536.086 15.85
v -82.1053 536.119 16
v -82.1053 536.119 15.85
v -79.0726 532.554 16
v -79.0726 532.554 15.85
v -79.0349 532.587 16
v -79.0349 532.587 15.85
vt 0.00240693 -0.486379
vt 0.00240693 -0.0524627
vt 0.00240693 0.0343206
vt 0.00240693 0.468237
vt 0.00240693 0.555021
vt 0.00240693 0.988937
vt 0.998729 -0.486379
vt 0.998729 -0.0524627
vt 0.998729 0.0343206
vt 0.998729 0.468237
vt 0.998729 0.555021
vt 0.998729 0.988937
vn -0.814459 0.0570787 0.577407
vn -0.814459 0.0570787 -0.577407
vn -0.464234 0.533373 0.707107
vn -0.464234 0.533373 -0.707107
vn -0.463743 0.5338 0.707107
vn -0.463743 0.5338 -0.707107
vn -0.0567004 -0.81444 0.577471
vn -0.0567004 -0.81444 -0.577471
vn 0.0567009 0.81444 0.577471
vn 0.0567009 0.81444 -0.577471
vn 0.463796 -0.533754 0.707107
vn 0.463796 -0.533754 -0.707107
vn 0.464234 -0.533373 0.707107
vn 0.464234 -0.533373 -0.707107
vn 0.814475 -0.0570394 0.577388
vn 0.814475 -0.0570394 -0.577388
usemtl pruss2
s off
f 107/151/86 103/157/78 101/158/74 105/152/80
f 101/156/74 102/155/75 106/149/81 105/150/80
usemtl Default
s off
f 103//78 104//79 102//75 101//74
f 106//81 108//87 107//86 105//80
usemtl pruss2
s off
f 102/154/75 104/153/79 108/147/87 106/148/81
f 111/158/82 109/157/76 113/151/84 115/152/88
f 116/149/89 112/155/83 111/156/82 115/150/88
usemtl Default
s off
f 112//83 110//77 109//76 111//82
f 113//84 114//85 116//89 115//88
usemtl pruss2
s off
f 114/147/85 110/153/77 112/154/83 116/148/89
v -86.7625 532.239 18.1654
v -86.7471 532.253 18.035
v -86.6946 532.298 17.8646
v -86.6542 532.115 18.1454
v -86.641 532.126 18.035
v -86.5863 532.174 17.8646
v -85.0141 530.228 17.0554
v -84.9987 530.241 16.925
v -84.9462 530.287 16.7546
v -84.9058 530.104 17.0354
v -84.8926 530.115 16.925
v -84.8379 530.163 16.7546
v -83.6298 528.636 16.1804
v -83.6144 528.649 16.05
v -83.5619 528.695 15.8796
v -83.5216 528.511 16.1604
v -83.5083 528.523 16.05
v -83.4537 528.57 15.8796
v -82.1436 536.255 17.8646
v -82.0858 536.305 18.035
v -82.0682 536.32 18.1654
v -82.0354 536.13 17.8646
v -81.9745 536.183 18.035
v -81.9599 536.196 18.1454
v -80.3953 534.243 16.7546
v -80.3374 534.293 16.925
v -80.3198 534.309 17.0554
v -80.287 534.119 16.7546
v -80.2261 534.172 16.925
v -80.2115 534.184 17.0354
v -79.011 532.651 15.8796
v -78.9531 532.701 16.05
v -78.9355 532.716 16.1804
v -78.9027 532.526 15.8796
v -78.8418 532.579 16.05
v -78.8273 532.592 16.1604
vt -0.282761 0.734169
vt -0.277561 0.736058
vt -0.205955 0.0226308
vt -0.200755 0.0389423
vt 0.0272992 2.84014
vt 0.0272992 3.71957
vt 0.0273979 -0.325801
vt 0.0273979 0.729513
vt 0.0273979 1.60894
vt 0.0273979 1.78483
vt 0.0299983 0.0199596
vt 0.0304151 2.16607
vt 0.0407537 0.553627
vt 0.0407537 2.66426
vt 0.218001 0.0226308
vt 0.218001 0.734169
vt 0.223201 0.0389422
vt 0.223201 0.736058
vt 0.79186 2.84014
vt 0.79186 3.71957
vt 0.872361 0.0226308
vt 0.872361 0.734169
vt 0.877561 0.0389423
vt 0.877561 0.736058
vt 0.935943 0.553627
vt 0.935943 2.66426
vt 0.947319 2.16607
vt 0.947922 0.0199596
vt 0.95079 -0.325801
vt 0.95079 0.729513
vt 0.95079 1.60894
vt 0.95079 1.78483
vn -0.977641 0.0941986 -0.188005
vn -0.977635 0.0942 -0.188033
vn -0.977621 0.0941949 -0.188105
vn -0.846401 0.0180148 0.532241
vn -0.846379 0.0180094 0.532277
vn -0.698954 0.0760696 -0.711109
vn -0.69888 0.0760586 -0.711184
vn -0.0509795 -0.980539 -0.18959
vn -0.0509776 -0.980536 -0.189605
vn -0.0219399 -0.702674 -0.711174
vn -0.0126924 -0.870003 0.492883
vn -0.0126909 -0.870013 0.492865
vn 0.0164973 0.692207 -0.72151
vn 0.0165182 0.692342 -0.721381
vn 0.0370078 0.977627 -0.207064
vn 0.0370078 0.977624 -0.207077
vn 0.0370183 0.977615 -0.207119
vn 0.0968772 0.847608 0.521704
vn 0.0968773 0.847597 0.521723
vn 0.0969084 0.84751 0.521858
vn 0.687783 -0.0800169 -0.721493
vn 0.687832 -0.0799854 -0.721449
vn 0.868093 -0.108993 0.484288
vn 0.868158 -0.109009 0.484169
vn 0.868158 -0.109011 0.484168
vn 0.973797 -0.0889512 -0.209303
vn 0.973806 -0.0889726 -0.20925
usemtl pruss3
s off
f 140/188/113 137/189/107 117/167/93 120/166/101
f 119/164/95 135/178/103 138/177/111 122/163/99
usemtl pruss_ots
s off
f 122/181/99 121/175/98 118/176/91 119/182/95
f 121/175/98 120/162/101 117/160/93 118/176/91
usemtl pruss3
s off
f 135/184/103 119/172/95 118/170/91 136/185/105
f 137/190/107 136/185/105 118/170/91 117/168/93
usemtl pruss_ots
s off
f 136/174/105 139/173/115 138/179/111 135/180/103
f 140/161/113 139/173/115 136/174/105 137/159/107
usemtl pruss3
s off
f 122/171/99 138/183/111 139/186/115 121/169/98
f 120/165/101 121/169/98 139/186/115 140/187/113
f 152/188/112 149/189/109 129/167/94 132/166/100
f 131/164/96 147/178/102 150/177/110 134/163/99
usemtl pruss_ots
s off
f 134/181/99 133/175/97 130/176/92 131/182/96
f 133/175/97 132/162/100 129/160/94 130/176/92
usemtl pruss3
s off
f 147/184/102 131/172/96 130/170/92 148/185/106
f 149/190/109 148/185/106 130/170/92 129/168/94
usemtl pruss_ots
s off
f 148/174/106 151/173/116 150/179/110 147/180/102
f 152/161/112 151/173/116 148/174/106 149/159/109
usemtl pruss3
s off
f 134/171/99 150/183/110 151/186/116 133/169/97
f 132/165/100 133/169/97 151/186/116 152/187/112
f 146/188/114 143/189/108 123/167/94 126/166/100
f 125/164/95 141/178/103 144/177/111 128/163/99
usemtl pruss_ots
s off
f 128/181/99 127/175/97 124/176/90 125/182/95
f 127/175/97 126/162/100 123/160/94 124/176/90
usemtl pruss3
s off
f 141/184/103 125/172/95 124/170/90 142/185/104
f 143/190/108 142/185/104 124/170/90 123/168/94
usemtl pruss_ots
s off
f 142/174/104 145/173/115 144/179/111 141/180/103
f 146/161/114 145/173/115 142/174/104 143/159/108
usemtl pruss3
s off
f 128/171/99 144/183/111 145/186/115 127/169/97
f 126/165/100 127/169/97 145/186/115 146/187/114
v -86.7591 532.656 18.205
v -86.7579 532.655 18.2746
v -86.6982 532.586 18.1286
v -86.6836 532.722 18.205
v -86.6824 532.72 18.2746
v -86.6774 532.562 18.0614
v -86.6227 532.652 18.1286
v -86.6019 532.628 18.0614
v -85.9176 533.388 18.205
v -85.9164 533.386 18.2746
v -85.8567 533.318 18.1286
v -85.8421 533.453 18.205
v -85.841 533.452 18.2746
v -85.8359 533.294 18.0614
v -85.7812 533.383 18.1286
v -85.7604 533.359 18.0614
v -85.0761 534.119 18.205
v -85.0749 534.118 18.2746
v -85.0152 534.049 18.1286
v -85.0006 534.185 18.205
v -84.9994 534.183 18.2746
v -84.9944 534.025 18.0614
v -84.9397 534.115 18.1286
v -84.9189 534.091 18.0614
v -84.2346 534.851 18.205
v -84.2334 534.849 18.2746
v -84.1737 534.781 18.1286
v -84.1591 534.916 18.205
v -84.1579 534.915 18.2746
v -84.1529 534.757 18.0614
v -84.0982 534.846 18.1286
v -84.0774 534.822 18.0614
v -83.3931 535.582 18.205
v -83.3919 535.581 18.2746
v -83.3322 535.512 18.1286
v -83.3176 535.648 18.205
v -83.3165 535.646 18.2746
v -83.3114 535.488 18.0614
v -83.2567 535.578 18.1286
v -83.251 528.621 15.9089
v -83.2359 535.554 18.0614
v -83.2008 528.563 15.9367
v -83.1755 528.686 15.9089
v -83.1436 528.497 15.9385
v -83.1253 528.628 15.9367
v -83.1103 528.459 15.9824
v -83.0681 528.563 15.9385
v -83.0348 528.524 15.9824
v -82.5516 536.314 18.205
v -82.5504 536.312 18.2746
v -82.4907 536.244 18.1286
v -82.4761 536.379 18.205
v -82.4749 536.378 18.2746
v -82.4699 536.22 18.0614
v -82.4152 536.309 18.1286
v -82.4095 529.352 15.9089
v -82.3944 536.285 18.0614
v -82.3593 529.294 15.9367
v -82.334 529.418 15.9089
v -82.3021 529.228 15.9385
v -82.2838 529.36 15.9367
v -82.2688 529.19 15.9824
v -82.2266 529.294 15.9385
v -82.1933 529.256 15.9824
v -81.568 530.084 15.9089
v -81.5178 530.026 15.9367
v -81.4925 530.149 15.9089
v -81.4605 529.96 15.9385
v -81.4423 530.091 15.9367
v -81.4273 529.922 15.9824
v -81.3851 530.026 15.9385
v -81.3518 529.987 15.9824
v -80.7265 530.815 15.9089
v -80.6763 530.757 15.9367
v -80.651 530.881 15.9089
v -80.619 530.692 15.9385
v -80.6008 530.823 15.9367
v -80.5858 530.653 15.9824
v -80.5436 530.757 15.9385
v -80.5103 530.719 15.9824
v -79.885 531.547 15.9089
v -79.8348 531.489 15.9367
v -79.8095 531.612 15.9089
v -79.7775 531.423 15.9385
v -79.7593 531.555 15.9367
v -79.7443 531.385 15.9824
v -79.7021 531.489 15.9385
v -79.6688 531.45 15.9824
v -79.0435 532.278 15.9089
v -78.9933 532.22 15.9367
v -78.968 532.344 15.9089
v -78.936 532.155 15.9385
v -78.9178 532.286 15.9367
v -78.9028 532.116 15.9824
v -78.8606 532.22 15.9385
v -78.8273 532.182 15.9824
vt -0.00235314 -1.81935
vt -0.00235314 -1.01056
vt -0.00225111 -0.848797
vt -0.00225111 -0.040003
vt -0.00225111 0.930549
vt -0.00225111 1.9011
vt 0.00281903 0.607024
vt 0.00281903 1.57758
vt 0.0163428 0.418316
vt 0.0163428 1.38887
vt 0.026483 0.121756
vt 0.026483 1.09231
vt 0.0437848 0.0752624
vt 0.0437848 0.332945
vt 0.0437848 0.871022
vt 0.0437848 0.988007
vt 0.138748 0.0169145
vt 0.138748 0.194929
vt 0.138748 0.669756
vt 0.138748 1.02579
vt 0.780088 0.0752624
vt 0.780088 0.332945
vt 0.780088 0.871022
vt 0.780088 0.988007
vt 0.788305 -1.81935
vt 0.788305 -1.01056
vt 0.800652 0.0169145
vt 0.800652 0.194929
vt 0.800652 0.669756
vt 0.800652 1.02579
vt 0.919701 0.121756
vt 0.919701 1.09231
vt 0.929006 0.39135
vt 0.929006 1.3619
vt 0.948435 0.580068
vt 0.948435 1.55062
vt 0.95266 -0.848797
vt 0.95266 -0.040003
vt 0.95266 0.930549
vt 0.95266 1.9011
vn -0.960295 -0.0292558 -0.277447
vn -0.960288 -0.0292566 -0.277471
vn -0.960243 -0.0291756 -0.277635
vn -0.960238 -0.0291766 -0.277653
vn -0.96023 -0.0291642 -0.277682
vn -0.901702 -0.0537679 -0.429001
vn -0.901698 -0.0537702 -0.429009
vn -0.901688 -0.053763 -0.429033
vn -0.901677 -0.0537598 -0.429056
vn -0.767759 -0.125177 0.628392
vn -0.767756 -0.12517 0.628398
vn -0.767743 -0.125193 0.628408
vn -0.767549 -0.125284 0.628628
vn -0.767501 -0.125273 0.628688
vn -0.755153 0.148452 -0.638519
vn -0.755141 0.148472 -0.638528
vn -0.75514 0.148474 -0.638528
vn -0.755126 0.148464 -0.638548
vn -0.755108 0.148533 -0.638553
vn -0.452802 -0.564304 -0.690313
vn -0.452788 -0.564372 -0.690267
vn -0.452769 -0.564351 -0.690296
vn -0.452766 -0.56431 -0.690331
vn -0.452765 -0.564317 -0.690326
vn -0.388588 -0.663491 -0.639358
vn -0.388588 -0.663491 -0.639358
vn -0.388584 -0.663529 -0.639321
vn -0.388572 -0.66354 -0.639318
vn -0.38851 -0.663773 -0.639113
vn -0.388502 -0.663793 -0.639097
vn -0.368741 -0.296124 -0.881102
vn -0.368702 -0.296187 -0.881097
vn -0.368697 -0.296195 -0.881097
vn -0.368691 -0.296194 -0.8811
vn -0.051678 -0.991853 0.116435
vn -0.0516777 -0.991853 0.116434
vn -0.0516342 -0.991853 0.116457
vn -0.051408 -0.991805 0.116963
vn -0.0513641 -0.9918 0.117024
vn -0.0418938 0.768552 -0.638414
vn -0.0418739 0.768562 -0.638404
vn -0.0418702 0.768561 -0.638405
vn -0.04185 0.768563 -0.638404
vn -0.0418068 0.768586 -0.638379
vn 0.162432 0.946791 -0.277856
vn 0.162432 0.94679 -0.277856
vn 0.162434 0.94681 -0.277788
vn 0.162444 0.946802 -0.277808
vn 0.162586 0.946874 -0.27748
vn 0.162587 0.946867 -0.277502
vn 0.17869 0.885418 -0.429074
vn 0.178693 0.885418 -0.429073
vn 0.178697 0.885433 -0.429042
vn 0.178727 0.885433 -0.429027
vn 0.178867 0.885531 -0.428766
vn 0.230801 0.74275 0.628533
vn 0.230807 0.742773 0.628504
vn 0.230826 0.742816 0.628446
vn 0.230827 0.742778 0.62849
vn 0.230835 0.74278 0.628485
vn 0.344727 0.323935 -0.881039
vn 0.34479 0.323881 -0.881034
vn 0.344798 0.323876 -0.881033
vn 0.344802 0.323881 -0.881029
vn 0.344827 0.323875 -0.881022
vn 0.621763 0.369872 -0.690366
vn 0.621796 0.369801 -0.690374
vn 0.621847 0.369827 -0.690315
vn 0.621875 0.369817 -0.690295
vn 0.6221 0.369794 -0.690104
vn 0.710988 0.292501 -0.639484
vn 0.711003 0.292497 -0.639469
vn 0.711024 0.292492 -0.639447
vn 0.711367 0.292363 -0.639125
vn 0.711384 0.292354 -0.639111
vn 0.989339 -0.0870533 0.116747
vn 0.989349 -0.0870124 0.11669
vn 0.989373 -0.0868852 0.116583
vn 0.989375 -0.086893 0.116566
vn 0.989375 -0.0868929 0.116566
usemtl pruss3
s off
f 158/216/134 160/215/159 195/191/181 192/192/149
f 200/193/195 157/227/172 154/228/128 198/194/151
f 159/223/170 197/199/185 195/201/181 160/221/159
f 192/202/149 194/200/140 155/224/125 158/222/134
usemtl pruss_ots
s off
f 197/219/185 194/209/140 192/210/149 195/220/181
f 158/203/134 155/204/125 159/212/170 160/211/159
usemtl pruss3
s off
f 194/200/140 196/198/141 153/226/120 155/224/125
f 154/230/128 153/226/120 196/198/141 198/196/151
f 159/223/170 156/225/163 199/197/189 197/199/185
f 200/195/195 199/197/189 156/225/163 157/229/172
usemtl pruss_ots
s off
f 197/219/185 199/218/189 196/208/141 194/209/140
f 198/207/151 196/208/141 199/218/189 200/217/195
f 155/204/125 153/205/120 156/213/163 159/212/170
f 157/214/172 156/213/163 153/205/120 154/206/128
usemtl pruss3
s off
f 166/216/133 168/215/158 211/191/179 208/192/149
f 216/193/193 165/227/174 162/228/130 214/194/155
f 167/223/171 213/199/186 211/201/179 168/221/158
f 208/202/149 210/200/138 163/224/123 166/222/133
usemtl pruss_ots
s off
f 213/219/186 210/209/138 208/210/149 211/220/179
f 166/203/133 163/204/123 167/212/171 168/211/158
usemtl pruss3
s off
f 210/200/138 212/198/146 161/226/117 163/224/123
f 162/230/130 161/226/117 212/198/146 214/196/155
f 167/223/171 164/225/166 215/197/190 213/199/186
f 216/195/193 215/197/190 164/225/166 165/229/174
usemtl pruss_ots
s off
f 213/219/186 215/218/190 212/208/146 210/209/138
f 214/207/155 212/208/146 215/218/190 216/217/193
f 163/204/123 161/205/117 164/213/166 167/212/171
f 165/214/174 164/213/166 161/205/117 162/206/130
usemtl pruss3
s off
f 174/216/132 176/215/157 219/191/177 217/192/147
f 224/193/196 173/227/175 170/228/126 222/194/152
f 175/223/167 221/199/182 219/201/177 176/221/157
f 217/202/147 218/200/136 171/224/122 174/222/132
usemtl pruss_ots
s off
f 221/219/182 218/209/136 217/210/147 219/220/177
f 174/203/132 171/204/122 175/212/167 176/211/157
usemtl pruss3
s off
f 218/200/136 220/198/143 169/226/119 171/224/122
f 170/230/126 169/226/119 220/198/143 222/196/152
f 175/223/167 172/225/161 223/197/187 221/199/182
f 224/195/196 223/197/187 172/225/161 173/229/175
usemtl pruss_ots
s off
f 221/219/182 223/218/187 220/208/143 218/209/136
f 222/207/152 220/208/143 223/218/187 224/217/196
f 171/204/122 169/205/119 172/213/161 175/212/167
f 173/214/175 172/213/161 169/205/119 170/206/126
usemtl pruss3
s off
f 182/216/131 184/215/156 227/191/178 225/192/148
f 232/193/196 181/227/175 178/228/126 230/194/152
f 183/223/169 229/199/184 227/201/178 184/221/156
f 225/202/148 226/200/139 179/224/124 182/222/131
usemtl pruss_ots
s off
f 229/219/184 226/209/139 225/210/148 227/220/178
f 182/203/131 179/204/124 183/212/169 184/211/156
usemtl pruss3
s off
f 226/200/139 228/198/142 177/226/121 179/224/124
f 178/230/126 177/226/121 228/198/142 230/196/152
f 183/223/169 180/225/164 231/197/189 229/199/184
f 232/195/196 231/197/189 180/225/164 181/229/175
usemtl pruss_ots
s off
f 229/219/184 231/218/189 228/208/142 226/209/139
f 230/207/152 228/208/142 231/218/189 232/217/196
f 179/204/124 177/205/121 180/213/164 183/212/169
f 181/214/175 180/213/164 177/205/121 178/206/126
usemtl pruss3
s off
f 190/216/133 193/215/158 235/191/179 233/192/149
f 240/193/192 189/227/173 186/228/129 238/194/154
f 191/223/171 237/199/186 235/201/179 193/221/158
f 233/202/149 234/200/138 187/224/123 190/222/133
usemtl pruss_ots
s off
f 237/219/186 234/209/138 233/210/149 235/220/179
f 190/203/133 187/204/123 191/212/171 193/211/158
usemtl pruss3
s off
f 234/200/138 236/198/145 185/226/118 187/224/123
f 186/230/129 185/226/118 236/198/145 238/196/154
f 191/223/171 188/225/165 239/197/191 237/199/186
f 240/195/192 239/197/191 188/225/165 189/229/173
usemtl pruss_ots
s off
f 237/219/186 239/218/191 236/208/145 234/209/138
f 238/207/154 236/208/145 239/218/191 240/217/192
f 187/204/123 185/205/118 188/213/165 191/212/171
f 189/214/173 188/213/165 185/205/118 186/206/129
usemtl pruss3
s off
f 206/216/135 209/215/160 243/191/180 241/192/150
f 248/193/194 205/227/176 202/228/127 246/194/153
f 207/223/168 245/199/183 243/201/180 209/221/160
f 241/202/150 242/200/137 203/224/122 206/222/135
usemtl pruss_ots
s off
f 245/219/183 242/209/137 241/210/150 243/220/180
f 206/203/135 203/204/122 207/212/168 209/211/160
usemtl pruss3
s off
f 242/200/137 244/198/144 201/226/119 203/224/122
f 202/230/127 201/226/119 244/198/144 246/196/153
f 207/223/168 204/225/162 247/197/188 245/199/183
f 248/195/194 247/197/188 204/225/162 205/229/176
usemtl pruss_ots
s off
f 245/219/183 247/218/188 244/208/144 242/209/137
f 246/207/153 244/208/144 247/218/188 248/217/194
f 203/204/122 201/205/119 204/213/162 207/212/168
f 205/214/176 204/213/162 201/205/119 202/206/127
v -87.1069 532.496 18.4114
v -83.2736 528.086 15.9947
v -82.274 536.697 18.4114
v -78.4407 532.287 15.9947
vt -0.242124 0.134575
vt -0.242124 2.99865
vt 2.03734 0.134575
vt 2.03734 2.99865
vn 0.250753 -0.288457 0.924076
usemtl KATUS
s off
f 252/233/197 251/234/197 249/232/197 250/231/197
v -87.1069 532.496 18.4114
v -83.2736 528.086 15.9947
v -82.274 536.697 18.4114
v -78.4407 532.287 15.9947
vt -0.242124 0.134575
vt -0.242124 2.99865
vt 2.03734 0.134575
vt 2.03734 2.99865
vn -0.250753 0.288457 -0.924076
usemtl KATUS
s off
f 253/236/198 255/238/198 256/237/198 254/235/198
