# 3ds Max Wavefront OBJ Exporter v0.97b - (c)2007 guruware
# File Created: 16.03.2012 09:57:43

mtllib Ryytli_24_2.mtl

#
# object Ryytli_24_2
#

v  -214.3770 -268.7159 29.6809
v  -214.3770 -267.6403 29.6809
v  -216.0321 -267.6403 30.3839
v  -216.0321 -268.7159 30.3839
v  -216.0321 -268.7159 31.6042
v  -216.0321 -267.6403 31.6042
v  -217.5053 -267.7068 32.2825
v  -217.4681 -268.7818 32.2845
v  -214.3770 -268.7159 28.4402
v  -212.7218 -268.7159 27.7871
v  -212.7218 -267.6403 27.7871
v  -214.3770 -267.6403 28.4402
v  -217.5069 -267.7070 30.4120
v  -217.4702 -268.7820 29.8392
v  -217.4697 -268.7820 30.4140
v  -212.7218 -268.7159 27.3439
v  -212.7218 -267.6403 27.7185
v  -212.7218 -268.7159 27.4891
v  -214.3770 -268.7159 29.6007
v  -214.3770 -267.6403 29.6007
v  -216.0994 -267.6403 30.3149
v  -216.0341 -268.7609 30.2915
v  -214.3320 -268.7609 29.5830
v  -214.3320 -268.7609 29.6632
v  -216.0321 -268.7609 30.3839
v  -216.0321 -267.6403 31.5093
v  -216.0321 -268.7159 31.5093
v  -217.5054 -267.7068 32.1876
v  -217.4682 -268.7818 32.1896
v  -212.7665 -276.3719 27.2242
v  -212.0171 -276.8109 27.0901
v  -212.0191 -276.8105 27.2125
v  -214.4588 -268.7159 28.1954
v  -212.7218 -268.7159 27.7185
v  -214.3999 -268.7159 28.3716
v  -216.0341 -268.7159 30.2915
v  -212.9378 -269.8763 26.0915
v  -212.9378 -270.5311 24.3785
v  -212.9378 -269.2214 24.3785
v  -212.9378 -269.5488 26.0719
v  -217.4762 -268.7828 23.0731
v  -217.3964 -271.0884 23.0713
v  -217.3905 -271.0876 29.8374
v  -212.9245 -272.0879 28.8120
v  -212.9246 -272.0879 29.3581
v  -212.9245 -272.6203 28.8120
v  -216.2711 -272.0879 29.4796
v  -216.2710 -273.1527 28.9318
v  -212.9245 -273.1527 28.9320
v  -212.9246 -272.0879 29.4799
v  -212.9245 -271.0229 28.9320
v  -216.2710 -271.0229 28.9318
v  -215.6658 -270.7908 28.6901
v  -215.9612 -270.7908 28.8101
v  -212.5245 -270.7908 28.8103
v  -212.5245 -270.7908 28.6903
v  -212.9770 -273.1527 27.5932
v  -212.9245 -273.1527 27.5719
v  -212.9245 -273.1527 28.8120
v  -212.9770 -273.1527 28.8120
v  -212.9245 -271.0229 28.8120
v  -212.9245 -271.0229 27.5719
v  -212.9809 -271.0229 27.5948
v  -212.9809 -271.0229 28.8120
v  -215.6735 -273.3849 28.6901
v  -212.5245 -273.3849 28.6903
v  -212.5245 -273.3849 28.8103
v  -215.9688 -273.3849 28.8101
v  -212.9245 -271.0848 28.8437
v  -212.9245 -271.0848 28.8120
v  -215.9757 -273.1527 28.8117
v  -212.5246 -272.1533 29.3245
v  -212.5246 -272.1531 29.4462
v  -212.5246 -272.0879 29.4799
v  -212.9245 -273.0883 28.8451
v  -212.5246 -272.0225 29.3245
v  -212.5246 -272.0879 29.3581
v  -212.5246 -272.0226 29.4462
v  -217.1223 -272.0879 29.5663
v  -217.5091 -267.7072 27.9494
v  -212.6768 -267.5953 27.7694
v  -212.6768 -267.5953 27.7008
v  -214.4269 -267.5953 28.3716
v  -214.3770 -267.5953 28.4402
v  -212.6768 -268.7609 27.7694
v  -212.6768 -268.7609 27.7008
v  -214.3999 -268.7609 28.3716
v  -214.3770 -268.7609 28.4402
v  -214.3320 -267.5953 29.5830
v  -214.3320 -267.5953 29.6632
v  -216.0994 -267.5953 30.3149
v  -216.0321 -267.5953 30.3839
v  -215.9871 -267.5953 31.4916
v  -215.9871 -267.5953 31.5865
v  -215.9871 -268.7609 31.5865
v  -215.9871 -268.7609 31.4916
v  -217.5069 -267.6619 32.1876
v  -217.5068 -267.6618 32.2825
v  -217.4665 -268.8268 32.2845
v  -217.4666 -268.8268 32.1896
v  -214.4269 -267.6403 28.3716
v  -215.2909 -267.6403 26.9336
v  -216.0651 -268.7159 28.8481
v  -212.7218 -271.0229 27.1995
v  -212.7216 -271.4617 26.3044
v  -212.7216 -271.3493 26.0048
v  -212.9156 -274.8547 24.3785
v  -212.9156 -274.5309 26.0719
v  -212.9156 -274.8547 25.9927
v  -212.7218 -268.6501 23.0430
v  -212.7218 -269.2214 25.9927
v  -212.7218 -269.2214 24.3785
v  -212.7218 -268.8199 23.0430
v  -212.7218 -268.7159 27.1995
v  -212.7218 -269.5488 26.0719
v  -212.7218 -273.1527 27.1995
v  -212.7644 -273.8833 26.0719
v  -212.7644 -273.5595 25.9927
v  -212.6965 -276.4883 23.0682
v  -212.7218 -273.1680 23.0430
v  -212.7644 -274.8547 24.3785
v  -212.7644 -274.8547 25.9927
v  -212.7644 -273.5595 24.3785
v  -212.7213 -272.8245 23.8866
v  -212.7216 -272.8252 25.8645
v  -212.7216 -272.1843 26.7143
v  -212.7216 -272.4592 26.5505
v  -212.7216 -272.1776 26.6208
v  -212.7216 -271.9904 26.7143
v  -212.7216 -271.9971 26.6208
v  -212.7216 -271.7153 26.5505
v  -212.7216 -272.8252 26.0048
v  -212.7216 -272.7128 26.3044
v  -212.8456 -271.5093 25.8645
v  -212.8456 -272.6652 25.8645
v  -212.8454 -272.6647 23.8865
v  -212.8454 -271.5087 23.8865
v  -212.7216 -272.6653 25.8645
v  -212.7213 -272.6646 23.8866
v  -212.9378 -269.2214 25.9927
v  -212.7218 -269.8763 26.0915
v  -212.7218 -270.2037 26.0719
v  -212.9378 -270.2037 26.0719
v  -212.9378 -270.5311 25.9927
v  -212.7218 -270.5311 25.9927
v  -212.7218 -270.5311 24.3785
v  -212.9156 -273.5595 25.9927
v  -212.9156 -273.5595 24.3785
v  -212.9156 -273.8833 26.0719
v  -212.7644 -274.2071 26.0915
v  -212.7644 -274.5309 26.0719
v  -212.9156 -274.2071 26.0915
v  -215.2923 -265.1862 26.7383
v  -215.2923 -267.6403 26.7383
v  -215.2923 -267.6403 23.0430
v  -215.2923 -265.1862 23.0430
v  -215.2909 -265.1862 26.9336
v  -214.8370 -265.1862 26.7909
v  -214.8355 -265.1862 26.6046
v  -212.7218 -267.6403 23.0430
v  -214.8355 -267.6403 26.6046
v  -214.8370 -267.6403 26.7909
v  -213.3272 -267.6403 23.0430
v  -216.8991 -265.9966 27.5114
v  -216.8392 -266.0282 27.4926
v  -216.8350 -266.0282 28.3528
v  -216.8953 -265.9986 28.3528
v  -216.7728 -266.0060 27.4717
v  -216.7726 -266.0037 28.3528
v  -216.7438 -265.9367 28.3528
v  -216.7410 -265.9369 27.4617
v  -216.7680 -265.8653 27.4702
v  -216.7681 -265.8676 28.3528
v  -216.8330 -265.8380 27.4906
v  -216.8289 -265.8383 28.3528
v  -216.8949 -265.8652 27.5101
v  -216.8909 -265.8633 28.3528
v  -216.9222 -265.9300 27.5187
v  -216.9194 -265.9299 28.3528
v  -216.8368 -266.0891 28.6587
v  -216.9403 -266.0396 28.6587
v  -216.9403 -266.0396 28.4278
v  -216.8367 -266.0891 28.4278
v  -216.7302 -266.0474 28.4278
v  -216.7302 -266.0474 28.6587
v  -216.6830 -265.9388 28.4278
v  -216.6830 -265.9388 28.6587
v  -216.7228 -265.8270 28.6587
v  -216.7228 -265.8270 28.4278
v  -216.8263 -265.7774 28.6587
v  -216.8263 -265.7774 28.4278
v  -216.9329 -265.8192 28.4278
v  -216.9329 -265.8192 28.6587
v  -216.9801 -265.9278 28.4278
v  -216.9801 -265.9278 28.6587
v  -216.8354 -266.0543 28.6896
v  -216.9146 -266.0164 28.6896
v  -216.7543 -266.0224 28.6896
v  -216.7173 -265.9376 28.6896
v  -216.7484 -265.8501 28.6896
v  -216.8276 -265.8123 28.6896
v  -216.9089 -265.8441 28.6896
v  -216.9457 -265.9290 28.6896
v  -216.8315 -265.9333 28.6896
v  -212.7216 -271.3493 25.8645
v  -212.9245 -273.0883 27.5719
v  -212.9245 -273.0883 28.8120
v  -212.9855 -271.6054 28.7620
v  -212.9855 -272.0879 28.7620
v  -212.9855 -272.0879 27.5720
v  -212.9855 -271.6054 27.5720
v  -212.9245 -271.0848 27.5719
v  -212.9245 -271.5554 28.8120
v  -212.9245 -271.5554 27.5719
v  -212.9855 -272.5703 27.5720
v  -212.9855 -272.5703 28.7620
v  -212.9245 -271.6054 28.7620
v  -212.9245 -271.6054 27.5720
v  -212.9245 -272.0879 28.7620
v  -212.9245 -272.5703 28.7620
v  -212.9245 -272.6203 27.5719
v  -212.9245 -272.5703 27.5720
v  -212.9245 -272.0879 27.5720
v  -215.9757 -271.0229 28.8117
v  -216.2431 -274.3430 28.9067
v  -217.3010 -273.6758 29.7945
v  -217.3011 -273.8433 23.0292
v  -217.5133 -267.7078 23.0711
v  -212.7218 -267.9156 23.0430
v  -217.3228 -273.2169 23.0715
v  -217.3168 -273.2162 29.8376
v  -217.6078 -264.9773 23.0427
v  -217.6115 -264.8697 23.0708
v  -217.6073 -264.8692 27.9491
v  -212.7218 -271.0077 23.0430
v  -212.7213 -271.3487 23.8866
v  -212.7216 -271.5093 25.8645
v  -212.7213 -271.5086 23.8866
v  -211.9528 -271.0229 27.1770
v  -211.9528 -273.1527 27.1770
v  -211.9528 -271.0229 27.0546
v  -211.9528 -268.7159 27.0546
v  -211.9528 -268.7159 27.1770
v  -211.9528 -273.1527 27.0546
v  -212.5066 -272.0407 29.2486
v  -212.5066 -272.1350 29.2486
v  -212.5065 -272.1051 29.2294
v  -212.5065 -272.0706 29.2294
v  -212.5066 -272.1523 29.4750
v  -212.5066 -272.1523 29.2818
v  -212.5066 -272.0235 29.4750
v  -212.5066 -272.0235 29.2818
v  -212.5246 -272.0707 29.2295
v  -212.5246 -272.1050 29.2295
v  -212.5246 -272.1351 29.2486
v  -212.5246 -272.0406 29.2486
v  -212.5246 -272.1533 29.2826
v  -212.5246 -272.0225 29.2826
v  -212.5246 -272.1351 29.5083
v  -212.5246 -272.1051 29.5273
v  -212.5246 -272.0233 29.4750
v  -212.5246 -272.0706 29.5273
v  -212.5246 -272.1523 29.4750
v  -212.5066 -272.1350 29.5082
v  -212.5066 -272.1051 29.5273
v  -212.5066 -272.0706 29.5273
v  -212.5066 -272.0407 29.5082
v  -212.5246 -272.0406 29.5083
v  -212.1612 -272.1257 26.9750
v  -212.7218 -272.1257 27.0806
v  -212.7218 -272.0500 27.0806
v  -212.1612 -272.0500 26.9750
v  -212.0885 -272.1257 27.0353
v  -212.0885 -272.0500 27.0353
v  -212.0885 -272.0500 27.0802
v  -212.0885 -272.1257 27.0802
v  -212.1294 -272.0500 26.9736
v  -212.1294 -272.1257 26.9736
v  -212.1067 -272.0500 26.9832
v  -212.1067 -272.1257 26.9832
v  -212.0930 -272.1257 27.0038
v  -212.0930 -272.0500 27.0038
v  -212.7218 -272.1257 27.1992
v  -212.7218 -272.0500 27.1992
v  -212.1612 -271.1318 26.9750
v  -212.1612 -271.2075 26.9750
v  -212.7218 -271.2075 27.0806
v  -212.7218 -271.1318 27.0806
v  -212.0885 -271.1318 27.0353
v  -212.0885 -271.1318 27.0802
v  -212.0885 -271.2075 27.0802
v  -212.0885 -271.2075 27.0353
v  -212.1294 -271.1318 26.9736
v  -212.1294 -271.2075 26.9736
v  -212.1067 -271.1318 26.9832
v  -212.1067 -271.2075 26.9832
v  -212.0930 -271.1318 27.0038
v  -212.0930 -271.2075 27.0038
v  -212.7218 -271.2075 27.1992
v  -212.7218 -271.1318 27.1992
v  -212.7218 -270.3250 27.0806
v  -212.7218 -270.2493 27.0806
v  -212.1612 -270.2493 26.9750
v  -212.1612 -270.3250 26.9750
v  -212.0885 -270.3250 27.0802
v  -212.0885 -270.3250 27.0353
v  -212.0885 -270.2493 27.0353
v  -212.0885 -270.2493 27.0802
v  -212.1294 -270.2493 26.9736
v  -212.1294 -270.3250 26.9736
v  -212.1067 -270.2493 26.9832
v  -212.1067 -270.3250 26.9832
v  -212.0930 -270.2493 27.0038
v  -212.0930 -270.3250 27.0038
v  -212.7218 -270.3250 27.1992
v  -212.7218 -270.2493 27.1992
v  -212.7218 -269.3536 27.0806
v  -212.1612 -269.3536 26.9750
v  -212.1612 -269.4292 26.9750
v  -212.7218 -269.4292 27.0806
v  -212.0885 -269.3536 27.0353
v  -212.0885 -269.3536 27.0802
v  -212.0885 -269.4292 27.0802
v  -212.0885 -269.4292 27.0353
v  -212.1294 -269.3536 26.9736
v  -212.1294 -269.4292 26.9736
v  -212.1067 -269.3536 26.9832
v  -212.1067 -269.4292 26.9832
v  -212.0930 -269.4292 27.0038
v  -212.0930 -269.3536 27.0038
v  -212.7218 -269.4292 27.1992
v  -212.7218 -269.3536 27.1992
v  -212.1612 -275.7231 26.9750
v  -212.7218 -275.7231 27.0806
v  -212.7218 -275.6474 27.0806
v  -212.1612 -275.6474 26.9750
v  -212.0885 -275.7231 27.0353
v  -212.0885 -275.6474 27.0353
v  -212.0885 -275.6474 27.0802
v  -212.0885 -275.7231 27.0802
v  -212.1294 -275.6474 26.9736
v  -212.1294 -275.7231 26.9736
v  -212.1067 -275.6474 26.9832
v  -212.1067 -275.7231 26.9832
v  -212.0930 -275.6474 27.0038
v  -212.0930 -275.7231 27.0038
v  -212.7218 -275.7231 27.1992
v  -212.7218 -275.6474 27.1992
v  -212.7218 -274.7517 27.0806
v  -212.1612 -274.7517 26.9750
v  -212.1612 -274.8274 26.9750
v  -212.7218 -274.8274 27.0806
v  -212.0885 -274.7517 27.0353
v  -212.0885 -274.7517 27.0802
v  -212.0885 -274.8274 27.0802
v  -212.0885 -274.8274 27.0353
v  -212.1294 -274.7517 26.9736
v  -212.1294 -274.8274 26.9736
v  -212.1067 -274.7517 26.9832
v  -212.1067 -274.8274 26.9832
v  -212.0930 -274.7517 27.0038
v  -212.0930 -274.8274 27.0038
v  -212.7218 -274.8274 27.1992
v  -212.7218 -274.7517 27.1992
v  -212.1612 -273.9711 26.9750
v  -212.7218 -273.9711 27.0806
v  -212.7218 -273.8955 27.0806
v  -212.1612 -273.8955 26.9750
v  -212.0885 -273.9711 27.0802
v  -212.0885 -273.9711 27.0353
v  -212.0885 -273.8955 27.0353
v  -212.0885 -273.8955 27.0802
v  -212.1294 -273.9711 26.9736
v  -212.1294 -273.8955 26.9736
v  -212.1067 -273.8955 26.9832
v  -212.1067 -273.9711 26.9832
v  -212.0930 -273.8955 27.0038
v  -212.0930 -273.9711 27.0038
v  -212.7218 -273.9711 27.1992
v  -212.7218 -273.8955 27.1992
v  -212.7218 -273.0754 27.0806
v  -212.7218 -272.9998 27.0806
v  -212.1612 -272.9998 26.9750
v  -212.1612 -273.0754 26.9750
v  -212.0885 -272.9998 27.0802
v  -212.0885 -273.0754 27.0802
v  -212.0885 -273.0754 27.0353
v  -212.0885 -272.9998 27.0353
v  -212.1294 -272.9998 26.9736
v  -212.1294 -273.0754 26.9736
v  -212.1067 -272.9998 26.9832
v  -212.1067 -273.0754 26.9832
v  -212.0930 -272.9998 27.0038
v  -212.0930 -273.0754 27.0038
v  -212.7218 -273.0754 27.1992
v  -212.7218 -272.9998 27.1992
v  -212.8456 -271.5093 25.9787
v  -212.8456 -272.6652 25.9787
v  -212.6996 -271.6008 26.2225
v  -212.6996 -271.5093 25.9787
v  -212.6996 -271.3493 26.0048
v  -212.6996 -271.4617 26.3044
v  -212.6996 -271.7973 26.4131
v  -212.6996 -271.7153 26.5505
v  -212.6996 -271.9970 26.6208
v  -212.6996 -272.0065 26.4694
v  -212.6846 -271.9971 26.6208
v  -212.6846 -272.1777 26.6208
v  -212.6888 -272.1680 26.4595
v  -212.6888 -272.0065 26.4595
v  -212.6996 -272.1776 26.6208
v  -212.6996 -272.4592 26.5505
v  -212.6996 -272.3773 26.4131
v  -212.6996 -272.1681 26.4694
v  -212.6996 -272.7128 26.3044
v  -212.6996 -272.5737 26.2225
v  -212.6996 -272.8252 26.0048
v  -212.6996 -272.6652 25.9787
v  -212.6996 -272.8252 25.8645
v  -212.6996 -272.6652 25.8645
v  -212.6846 -271.9904 26.7143
v  -212.6846 -272.1843 26.7143
v  -212.6996 -271.3494 25.8645
v  -212.6996 -271.5093 25.8645
v  -212.6996 -271.5093 25.7699
v  -212.6996 -271.3493 25.7699
v  -212.6996 -272.8252 25.7699
v  -212.6996 -272.6652 25.7699
v  -212.7216 -271.6008 26.2225
v  -212.8456 -271.6008 26.2225
v  -212.7216 -271.5093 25.9787
v  -212.8456 -271.7973 26.4131
v  -212.7216 -271.7973 26.4131
v  -212.7216 -272.0065 26.4694
v  -212.8456 -272.0065 26.4694
v  -212.7216 -272.1680 26.4694
v  -212.8456 -272.1680 26.4694
v  -212.7216 -272.3773 26.4131
v  -212.8456 -272.3773 26.4131
v  -212.7216 -272.5737 26.2225
v  -212.8456 -272.5737 26.2225
v  -212.7216 -272.6652 25.9787
v  -212.6996 -271.9904 26.7143
v  -212.6996 -272.1843 26.7143
v  -212.7216 -272.8252 25.7699
v  -212.7216 -272.6653 25.7699
v  -212.7216 -272.0065 26.4552
v  -212.7216 -272.1680 26.4552
v  -212.7216 -271.5093 25.7699
v  -212.7216 -271.3493 25.7699
# 450 vertices

vn 0.3909 0.0000 0.9204
vn 0.4182 0.0000 0.9084
vn 0.4275 0.0165 0.9039
vn 0.3670 0.0000 0.9302
vn -0.9994 -0.0346 0.0009
vn 1.0000 0.0000 0.0000
vn 0.0000 1.0000 0.0000
vn 0.0000 -1.0000 0.0000
vn -0.0452 0.9990 0.0000
vn -0.0451 0.9990 -0.0001
vn 0.0459 -0.9989 0.0000
vn 0.0458 -0.9989 0.0001
vn -0.5062 -0.8624 -0.0056
vn 0.0459 -0.9989 -0.0010
vn 0.0460 -0.9989 0.0001
vn 1.0000 0.0000 0.0002
vn -0.0001 -0.4575 0.8892
vn -0.0001 0.4574 0.8893
vn -0.0001 0.4575 0.8892
vn -0.0001 0.4645 0.8856
vn 0.0000 -0.4644 -0.8856
vn -0.0001 -0.4643 0.8857
vn 0.0001 0.4641 -0.8858
vn 0.0001 0.4643 -0.8857
vn 1.0000 0.0001 -0.0000
vn 1.0000 0.0001 0.0000
vn 0.0041 -0.4587 0.8886
vn 0.0003 -0.4575 0.8892
vn 0.0000 -0.4591 0.8884
vn -0.0054 0.4570 -0.8895
vn -0.0001 -0.4563 -0.8898
vn -0.0045 -0.4578 -0.8891
vn 0.0000 -0.4570 -0.8895
vn 0.0000 0.4587 0.8886
vn 0.0003 0.4575 0.8892
vn 0.0042 0.4587 0.8886
vn 0.0902 -0.4556 0.8856
vn 0.0902 0.4555 0.8856
vn -0.0473 0.9989 -0.0001
vn -0.0439 0.9990 -0.0003
vn -0.0438 0.9990 0.0000
vn -0.9994 -0.0346 0.0008
vn -0.9994 -0.0346 0.0010
vn 0.0445 -0.9990 -0.0000
vn 0.0445 -0.9990 0.0000
vn 0.3901 0.0281 0.9203
vn -0.9998 0.0000 0.0216
vn -0.3848 0.0000 -0.9230
vn -0.3842 -0.0211 -0.9230
vn 0.3670 -0.0011 0.9302
vn -0.3579 -0.0094 -0.9337
vn -0.3577 0.0000 -0.9338
vn -0.8087 0.0000 0.5882
vn 0.3670 0.0011 0.9302
vn -0.9485 0.0000 0.3167
vn -0.3627 0.0000 -0.9319
vn -0.3628 0.0038 -0.9319
vn 0.3901 -0.0281 0.9203
vn -0.3830 0.0000 -0.9237
vn -0.3825 0.0192 -0.9237
vn -0.7159 0.0000 0.6982
vn 0.4176 0.0144 0.9085
vn 0.4178 -0.0613 0.9065
vn -0.4176 -0.0145 -0.9085
vn -0.4178 0.0612 -0.9065
vn -0.9994 -0.0343 0.0008
vn 0.4232 0.0679 0.9035
vn 0.4275 0.0149 0.9039
vn -0.4275 -0.0149 -0.9039
vn -0.4232 -0.0679 -0.9035
vn 0.3661 0.0000 0.9306
vn -0.3661 0.0000 -0.9306
vn -0.0443 0.9981 0.0432
vn -0.0339 0.9994 -0.0081
vn 0.0463 -0.9989 -0.0010
vn 1.0000 0.0003 0.0001
vn 0.9994 -0.0080 -0.0326
vn 0.9991 0.0079 0.0419
vn 0.9995 0.0287 0.0160
vn 1.0000 -0.0014 0.0000
vn 0.9988 -0.0463 0.0183
vn 0.9983 -0.0584 0.0001
vn 1.0000 -0.0001 0.0002
vn 1.0000 0.0000 -0.0002
vn 1.0000 0.0001 0.0003
vn 1.0000 0.0000 0.0003
vn 1.0000 -0.0003 0.0001
vn 1.0000 0.0001 0.0002
vn 1.0000 0.0002 0.0009
vn 1.0000 0.0000 0.0001
vn 1.0000 -0.0000 0.0001
vn 1.0000 0.0001 0.0001
vn -0.0007 1.0000 0.0003
vn 0.0005 1.0000 0.0003
vn 0.0000 -0.2351 -0.9720
vn 0.0000 0.0598 -0.9982
vn 0.0000 0.0000 1.0000
vn 0.0000 -0.2376 -0.9714
vn 0.0000 0.0604 -0.9982
vn 1.0000 -0.0001 0.0016
vn -0.4658 -0.8849 0.0023
vn -0.4407 -0.8977 -0.0001
vn 0.3180 -0.9481 0.0024
vn 0.3655 -0.9308 -0.0018
vn 0.9187 -0.3949 0.0007
vn 0.9086 -0.4176 0.0029
vn 0.9433 0.3319 0.0010
vn 0.9361 0.3516 0.0028
vn 0.3877 0.9218 0.0025
vn 0.4345 0.9007 -0.0018
vn -0.3742 0.9273 -0.0003
vn -0.4016 0.9158 0.0022
vn -0.9194 0.3933 0.0031
vn -0.9214 0.3887 0.0035
vn -0.9436 -0.3310 0.0032
vn -0.9447 -0.3280 0.0035
vn -0.4315 -0.9021 0.0000
vn -0.4314 -0.9022 -0.0000
vn 0.3645 -0.9312 0.0000
vn 0.3644 -0.9312 0.0000
vn 0.9171 -0.3987 0.0001
vn 0.9171 -0.3986 0.0000
vn 0.9421 0.3353 0.0001
vn 0.9421 0.3354 0.0000
vn 0.4321 0.9018 0.0000
vn -0.3651 0.9310 0.0000
vn -0.9171 0.3986 -0.0001
vn -0.9171 0.3987 0.0000
vn -0.9421 -0.3353 -0.0001
vn -0.9421 -0.3354 0.0000
vn -0.3516 -0.7163 -0.6027
vn -0.3463 -0.7242 -0.5964
vn -0.7542 -0.2684 -0.5993
vn -0.7533 -0.2642 -0.6023
vn -0.7344 0.3192 -0.5989
vn -0.7337 0.3139 -0.6026
vn -0.2987 0.7402 -0.6024
vn -0.2931 0.7472 -0.5964
vn 0.3482 0.7219 -0.5980
vn 0.3458 0.7217 -0.5997
vn 0.7521 0.2678 -0.6022
vn 0.7548 0.2655 -0.5998
vn 0.7329 -0.3150 -0.6030
vn 0.7334 -0.3189 -0.6003
vn 0.2919 -0.7458 -0.5988
vn 0.2926 -0.7450 -0.5995
vn -0.2998 -0.6269 0.7191
vn -0.2999 -0.6260 0.7199
vn 0.2537 -0.6458 0.7202
vn 0.2534 -0.6474 0.7188
vn 0.6364 -0.2766 0.7200
vn 0.6368 -0.2772 0.7195
vn 0.6551 0.2332 0.7187
vn 0.6547 0.2327 0.7192
vn 0.3001 0.6263 0.7195
vn 0.2999 0.6276 0.7185
vn -0.2536 0.6467 0.7193
vn -0.2534 0.6479 0.7183
vn -0.6378 0.2773 0.7186
vn -0.6369 0.2760 0.7199
vn -0.6545 -0.2329 0.7193
vn -0.6542 -0.2329 0.7196
vn -0.0000 -0.0000 1.0000
vn 0.0000 -0.0000 1.0000
vn 0.9996 -0.0141 -0.0250
vn 1.0000 0.0003 0.0000
vn 0.9983 -0.0582 0.0000
vn 0.9982 -0.0579 -0.0157
vn 0.0000 0.0000 -1.0000
vn 1.0000 -0.0000 0.0002
vn -0.0064 -0.4557 -0.8901
vn -0.0001 0.4563 -0.8898
vn 0.0000 0.4570 -0.8895
vn -0.0046 0.4578 -0.8890
vn 0.0000 0.4643 -0.8857
vn 0.0001 -0.4642 -0.8857
vn 0.0001 -0.4645 -0.8856
vn -0.5206 -0.8535 0.0211
vn 0.0899 0.9960 0.0000
vn 0.9995 0.0000 0.0319
vn 1.0000 0.0007 -0.0003
vn 1.0000 0.0005 0.0001
vn 1.0000 -0.0002 0.0001
vn 1.0000 -0.0001 0.0001
vn 0.0005 -1.0000 -0.0003
vn -0.0002 -1.0000 -0.0003
vn -0.4982 -0.8669 0.0160
vn -0.4981 -0.8670 0.0159
vn 0.1352 0.9908 -0.0010
vn 0.1244 0.9920 -0.0219
vn 0.9994 0.0347 -0.0009
vn 1.0000 -0.0001 -0.0000
vn 1.0000 -0.0001 0.0000
vn 0.0000 -0.0597 -0.9982
vn 0.0000 -0.0604 -0.9982
vn 0.0000 0.2351 -0.9720
vn 0.0000 0.2376 -0.9714
vn 0.9993 -0.0022 -0.0363
vn 1.0000 -0.0003 0.0013
vn 1.0000 0.0000 0.0081
vn -0.1852 0.0000 -0.9827
vn 0.9997 -0.0180 0.0166
vn -0.1852 -0.0063 -0.9827
vn -0.2809 0.0000 -0.9597
vn 1.0000 0.0000 0.0056
vn 0.0417 -0.9991 0.0015
vn 0.0542 -0.9985 0.0000
vn 0.0559 0.9984 0.0000
vn 0.0475 0.9989 0.0010
vn -1.0000 0.0000 0.0000
vn 0.0060 0.8878 -0.4603
vn 0.0285 0.8824 -0.4697
vn -0.0083 0.5406 -0.8413
vn 0.0036 0.5355 -0.8445
vn -0.0055 0.0000 -1.0000
vn 0.0027 -0.5402 -0.8415
vn -0.0073 -0.5359 -0.8443
vn 0.0269 -0.8814 -0.4715
vn 0.0045 -0.8868 -0.4622
vn 0.0000 -0.8884 0.4592
vn 0.0071 -0.8868 0.4622
vn 0.0075 -0.5382 0.8428
vn 0.0000 -0.5350 0.8448
vn 0.0000 0.5386 0.8425
vn 0.0084 0.5350 0.8448
vn 0.0105 0.8877 0.4602
vn 0.0086 0.8873 0.4611
vn 0.0000 -0.9996 0.0275
vn 0.0119 0.9997 0.0233
vn -0.1851 0.0000 -0.9827
vn -0.0440 0.0000 -0.9990
vn 0.3896 0.0000 -0.9210
vn 0.8326 0.0000 -0.5538
vn 0.9899 0.0000 -0.1415
vn 1.0000 0.0000 -0.0000
vn 0.9997 -0.0000 -0.0258
vn 0.9997 0.0003 -0.0261
vn 1.0000 -0.0001 0.0003
vn 1.0000 -0.0000 -0.0000
vn 1.0000 -0.0000 -0.0001
vn -0.0005 -0.9362 -0.3514
vn -0.0002 -0.9362 -0.3515
vn -0.0003 -0.6963 -0.7178
vn -0.0004 -0.6962 -0.7178
vn -0.0001 -0.2599 -0.9656
vn -0.0000 -0.2598 -0.9657
vn 0.0000 -0.0000 -1.0000
vn -0.0000 -0.0000 -1.0000
vn -0.0001 0.2598 -0.9657
vn 0.0000 0.2599 -0.9656
vn 0.0002 0.6964 -0.7177
vn 0.0002 0.9362 -0.3514
vn 0.0005 1.0000 -0.0003
vn 0.0002 1.0000 0.0000
vn -0.0002 -1.0000 0.0000
vn -0.0012 0.9363 0.3511
vn 0.0014 0.9363 0.3513
vn -0.0001 0.6963 0.7177
vn -0.0008 0.6963 0.7177
vn -0.0008 0.2422 0.9702
vn -0.0001 0.2422 0.9702
vn -0.0028 0.9975 -0.0713
vn -0.0014 0.9975 -0.0710
vn 0.0001 0.0000 1.0000
vn 0.0002 -0.0000 1.0000
vn -0.0000 -0.9975 -0.0706
vn 0.0014 -0.9975 -0.0710
vn 0.0001 -0.2423 0.9702
vn 0.0003 -0.2423 0.9702
vn 0.0001 -0.6964 0.7177
vn 0.0000 -0.9363 0.3512
vn -0.0013 -0.9363 0.3511
vn -0.0000 -1.0000 0.0002
vn -0.0014 -1.0000 0.0000
vn 0.0002 -0.0000 -1.0000
vn -0.0014 1.0000 -0.0000
vn -0.0014 1.0000 0.0000
vn -0.0014 1.0000 -0.0003
vn -0.0013 0.9362 -0.3514
vn -0.0001 0.6964 -0.7176
vn -0.0009 0.6964 -0.7177
vn 0.0006 0.2598 -0.9657
vn -0.0001 0.2599 -0.9656
vn 0.1316 0.0001 -0.9913
vn 0.1314 0.0000 -0.9913
vn 0.0001 -0.2599 -0.9656
vn 0.0003 -0.2599 -0.9656
vn 0.0009 -0.6962 -0.7178
vn 0.0014 -0.9362 -0.3515
vn 0.0013 -0.9362 -0.3515
vn 0.0014 -1.0000 -0.0000
vn -0.0000 -1.0000 0.0003
vn 0.0014 -1.0000 0.0000
vn 0.0000 -1.0000 -0.0003
vn -0.0001 0.0000 -1.0000
vn 0.0001 -0.0000 -1.0000
vn 0.0014 1.0000 0.0000
vn 0.0028 1.0000 0.0003
vn 0.0028 1.0000 -0.0002
vn -1.0000 -0.0002 0.0000
vn -0.0012 1.0000 0.0018
vn 0.0041 0.9980 -0.0628
vn -0.0548 0.9969 -0.0569
vn 0.0000 0.9974 -0.0716
vn 0.0040 0.9975 -0.0710
vn -0.0003 0.0000 1.0000
vn 0.0000 -0.9975 -0.0703
vn -0.0041 -0.9975 -0.0710
vn -0.0041 -0.9980 -0.0630
vn -0.0476 -0.9971 -0.0586
vn -0.0028 -1.0000 0.0000
vn 0.0007 -1.0000 -0.0054
vn 1.0000 0.0001 0.0012
vn 1.0000 -0.0000 0.0004
vn 1.0000 -0.0000 -0.0002
vn -0.0004 -0.0000 1.0000
vn 1.0000 -0.0001 -0.0006
vn 1.0000 0.0000 -0.0005
vn 0.2999 0.0000 0.9540
vn 0.4127 0.0850 0.9069
vn 0.3413 0.0000 0.9399
vn 0.3856 -0.1152 0.9154
vn 0.5435 0.0189 0.8392
vn 0.2554 -0.0886 0.9628
vn 0.3101 -0.0317 0.9502
vn 0.3548 -0.0280 0.9345
vn 0.3356 0.0143 0.9419
vn 0.1621 -0.3133 0.9357
vn 0.3568 -0.1511 0.9219
vn 0.7116 -0.3784 -0.5919
vn 0.4603 0.0626 0.8856
vn 0.3765 0.0002 0.9264
vn 0.3761 0.0000 0.9266
vn 0.3765 0.0000 0.9264
vn 0.3759 0.0020 0.9266
vn 0.6547 -0.0006 0.7559
vn 0.6227 -0.0516 0.7807
vn 0.5769 -0.0219 0.8165
vn 0.6281 0.0211 0.7779
vn 0.3764 0.0048 0.9264
vn 0.3764 0.0019 0.9264
vn 0.3764 0.0019 0.9265
vn 0.3766 0.0022 0.9264
vn 0.3662 -0.0111 0.9305
vn 0.3648 0.0012 0.9311
vn 0.6507 0.0696 0.7562
vn 0.6298 -0.0414 0.7756
vn 0.7575 0.0263 0.6523
vn 0.3767 0.0001 0.9263
vn 0.3762 0.0002 0.9265
vn 0.3766 0.0000 0.9264
vn 0.3756 -0.0019 0.9268
vn 0.3756 0.0019 0.9268
vn 0.3778 0.0010 0.9259
vn 0.3764 -0.0172 0.9263
vn 0.3765 0.0022 0.9264
vn 0.9998 -0.0176 0.0000
vn -0.1791 -0.0051 -0.9838
vn -0.5062 -0.8624 -0.0059
vn 0.3764 -0.0144 0.9263
vn 0.3679 -0.0086 0.9298
# 361 vertex normals

vt 0.6667 0.5000 0.0000
vt 0.6667 1.0000 0.0000
vt 0.4167 1.0000 0.0000
vt 0.3333 0.5000 0.0000
vt 0.3333 1.0000 0.0000
vt 0.0000 1.0000 0.0000
vt 0.0000 0.5000 0.0000
vt 1.0000 0.5000 0.0000
vt 1.0000 1.0000 0.0000
vt 0.5000 1.0000 0.0000
vt 1.0467 -3.8717 -2.3525
vt -0.0288 -3.1533 -2.3559
vt -0.0288 -3.8717 -2.3559
vt 1.0468 -0.0719 3.3525
vt -0.0288 -0.5401 3.3559
vt 1.0468 -0.2533 3.3525
vt 1.0416 -2.8929 1.6973
vt 1.0416 -1.4422 1.6973
vt -0.0340 -1.4422 1.7007
vt -0.0340 -2.8929 1.7007
vt 1.7007 -1.4422 1.0340
vt -0.0218 -3.7855 1.0394
vt 1.7007 -2.8929 1.0340
vt 0.0000 0.7500 0.0000
vt 0.8837 0.9647 0.0000
vt 0.8784 1.0960 0.0000
vt 1.0364 -3.8718 0.0421
vt -0.0392 -3.8718 0.0455
vt -0.0392 -5.2785 0.0455
vt 1.0364 -5.2785 0.0421
vt 0.0455 -5.2785 1.0392
vt 0.0455 -3.8718 1.0392
vt -2.3525 -3.8717 1.0467
vt -2.3525 -6.0912 1.0467
vt -0.0288 -6.0912 -2.3559
vt 1.0467 -6.0912 -2.3525
vt 3.3559 -3.8717 -0.0288
vt 0.9579 -3.8718 -0.0364
vt 0.9579 -5.2785 -0.0364
vt 3.3559 -6.0912 -0.0288
vt 1.0000 0.7083 0.0000
vt -0.6155 -1.1361 -0.0413
vt -2.3525 -0.2533 -0.0468
vt -2.3525 -0.5401 -0.0468
vt -0.6744 -1.3565 -0.0415
vt 0.9598 -3.7563 -0.0364
vt 3.3559 -3.1533 -0.0288
vt 0.5000 0.9995 0.0000
vt 0.0005 0.0005 0.7500
vt 0.9995 0.0005 0.2500
vt 0.7498 0.9881 0.0000
vt 0.5000 0.1744 0.0000
vt 0.6667 0.1744 0.0000
vt 0.4983 0.9337 0.4966
vt 0.4983 1.6164 0.4964
vt -0.1672 0.9337 0.2348
vt -0.4329 0.8697 0.4990
vt -0.4334 0.3907 0.4997
vt 0.9052 0.3893 0.5004
vt 0.9057 0.8683 0.4996
vt 0.0278 0.2934 0.5004
vt 1.3664 0.2946 0.4999
vt 1.3660 0.7736 0.4993
vt 0.0274 0.7724 0.4999
vt 0.1667 0.3333 0.0000
vt 0.1111 0.2222 0.0000
vt 0.7222 0.3889 0.0000
vt 0.4259 0.2963 0.0000
vt 0.2361 0.5208 0.0000
vt 0.2222 0.5556 0.0000
vt 0.6111 0.3889 0.0000
vt 0.2222 0.4444 0.0000
vt 0.1944 0.3889 0.0000
vt 0.3889 0.3611 0.0000
vt 0.2500 0.4861 0.0000
vt 0.1852 0.5185 0.0000
vt 0.4630 0.4074 0.0000
vt 0.2778 0.4167 0.0000
vt 0.2222 0.4722 0.0000
vt 0.2222 0.4583 0.0000
vt 1.2426 0.1896 0.4995
vt -0.1321 0.1884 0.5000
vt -0.3127 0.2857 0.4994
vt 1.0651 0.2842 0.5000
vt 0.0926 0.2593 0.0000
vt 0.5648 0.7037 0.0000
vt 1.0656 0.8388 0.4997
vt 1.0657 0.8681 0.4997
vt 0.2222 0.5278 0.0000
vt 0.2130 0.1481 0.0000
vt 0.2222 0.5000 0.0000
vt 0.0093 -0.0130 0.0000
vt -0.1326 0.7723 0.4999
vt -0.1326 0.7429 0.4999
vt -0.9696 0.8703 0.4987
vt 1.9027 0.7741 0.4991
vt -2.3538 -0.7935 1.0468
vt 0.6667 0.8750 0.0000
vt 0.5000 0.7500 0.0000
vt 0.7917 0.3750 0.0000
vt 0.5833 1.0000 0.0000
vt 0.7083 0.7500 0.0000
vt -0.6973 -1.4422 -0.0416
vt -0.6973 -2.8929 -0.0416
vt 0.3750 1.0000 0.0000
vt 0.1250 1.0000 0.0000
vt 0.9922 1.1970 0.0000
vt 0.2500 0.8125 0.0000
vt 1.0000 0.7500 0.0000
vt 0.7500 0.2500 0.0000
vt 0.8750 0.6250 0.0000
vt 1.0000 0.8125 0.0000
vt 0.7867 0.4410 1.0369
vt 1.6508 -1.3565 1.0342
vt 0.9908 -1.9520 -0.0363
vt 0.2994 0.4472 0.0000
vt 0.2954 0.3333 0.0000
vt 0.3142 0.3333 0.0000
vt 0.0005 0.0005 1.0000
vt 0.2503 0.9881 0.5000
vt 0.0005 0.9419 0.5000
vt 0.5337 0.1838 0.0000
vt 0.5000 0.3333 0.0000
vt 0.5000 0.1667 0.0000
vt 0.5169 0.1433 0.0000
vt 0.5000 0.4167 0.0000
vt 0.4583 0.3333 0.0000
vt 0.1938 0.4411 0.0000
vt 0.1511 0.3405 0.0000
vt 0.1772 0.3476 0.0000
vt 0.0381 0.1615 0.0000
vt 0.1747 0.1722 0.0000
vt 0.0833 0.1667 0.0000
vt 0.0278 0.3889 0.0000
vt 0.0833 0.3333 0.0000
vt 0.1738 0.2187 0.0000
vt 0.1798 0.1502 0.0000
vt 0.1858 0.2478 0.0000
vt 0.2412 0.4167 0.0000
vt 0.2303 0.3333 0.0000
vt 0.2430 0.3333 0.0000
vt 0.2588 0.4167 0.0000
vt 0.2570 0.3333 0.0000
vt 0.2697 0.3333 0.0000
vt 0.1858 0.3333 0.0000
vt 0.2046 0.3333 0.0000
vt 0.9956 0.9995 0.0005
vt 0.0005 0.9983 0.9946
vt 0.0043 0.0005 0.9990
vt 0.9995 0.0017 0.0054
vt 0.2132 0.2478 0.0000
vt 0.2023 0.1542 0.0000
vt 0.2123 0.1542 0.0000
vt 0.4167 0.3333 0.0000
vt 0.3684 0.3416 0.0000
vt 0.3750 0.3333 0.0000
vt 0.3333 0.3333 0.0000
vt 0.3201 0.3499 0.0000
vt 0.3244 0.2203 0.0000
vt 0.3333 0.1667 0.0000
vt 0.1667 0.1667 0.0000
vt 0.1458 0.3333 0.0000
vt 0.1250 0.3333 0.0000
vt 0.1042 0.3333 0.0000
vt 0.5000 0.2500 0.0000
vt 0.5000 0.0697 0.0000
vt 0.5000 0.5000 0.0000
vt 3.3559 -0.5401 1.0288
vt 3.3559 5.3043 1.0288
vt 1.2422 0.8524 1.0355
vt 1.2407 0.6195 1.0355
vt 2.7505 5.3043 1.0307
vt 0.7854 5.3043 1.0369
vt 0.7854 0.6852 1.0369
vt 0.7500 0.5000 0.0000
vt 0.2503 0.9881 0.2500
vt 0.9995 0.0005 0.5000
vt 0.7498 0.9881 0.2500
vt 0.5000 0.9995 0.2500
vt 0.3142 0.2478 0.0000
vt 1.0468 -0.5401 3.3525
vt 1.0468 0.1087 3.3525
vt 0.2222 0.5417 0.0000
vt 0.9995 0.9995 1.0313
vt 0.5000 0.9995 0.0156
vt 0.5000 0.0005 0.2031
vt 0.9995 0.0005 0.1719
vt 1.7522 -0.6164 0.9952
vt 1.7522 0.9337 0.9995
vt 1.1639 0.9337 0.7635
vt 1.1639 -0.6164 0.7616
vt 0.0005 0.0005 0.0781
vt 0.0005 0.9995 0.9531
vt -0.7522 0.9750 0.0046
vt -0.7522 0.9337 0.0046
vt 0.2222 0.5139 0.0000
vt 0.2222 0.4861 0.0000
vt 1.7522 0.9733 0.9994
vt -0.7522 -0.6164 0.0005
vt -0.1672 -0.6164 0.2328
vt -0.5559 -0.4442 0.4973
vt 3.1876 1.0770 0.5016
vt -0.5559 1.0773 0.5017
vt 1.2660 1.0757 0.5016
vt -2.4824 1.0754 0.5017
vt 1.2660 -0.4477 0.4972
vt 1.0468 -0.7935 -2.3538
vt 0.3782 1.0067 0.0000
vt 0.0000 0.1744 0.0000
vt -0.0288 5.3044 -2.3559
vt 1.0467 5.3044 -2.3528
vt -0.0288 5.3043 3.3559
vt 0.2464 5.3043 3.3550
vt 0.8333 0.1744 0.0000
vt 0.8333 1.0000 0.0000
vt 0.8605 0.0697 0.0000
vt 0.9717 0.1133 0.0000
vt 0.1133 0.1133 0.0000
vt 0.8750 0.5000 0.0000
vt 1.0000 0.1744 0.0000
vt 0.3242 0.1732 0.0000
vt 0.3202 0.1502 0.0000
vt 0.2868 0.2478 0.0000
vt 0.2977 0.1542 0.0000
vt 0.2877 0.1542 0.0000
vt 1.0000 0.2433 0.0000
vt 0.9809 5.3043 3.3527
vt 0.6944 0.6944 0.0000
vt 0.9995 0.9419 -0.2500
vt 0.0005 0.9419 0.2500
vt 0.9995 0.9419 0.0000
vt 6.2089 -0.9614 -0.7130
vt 6.2089 -0.7751 -0.7145
vt 3.7548 -0.7751 -0.7145
vt 3.7548 -0.9614 -0.7130
vt 0.3722 -0.3889 2.1698
vt -1.7576 -0.3889 2.1698
vt 0.3722 -0.5113 2.1698
vt 0.3722 1.4008 -0.3665
vt 0.3722 2.1698 -0.5113
vt -1.7576 1.4008 -0.3664
vt -0.3665 1.4008 2.6792
vt -0.2220 1.4008 2.6792
vt -0.5113 2.1698 2.6792
vt -5.2089 -0.3889 2.1698
vt -5.2089 -0.5113 2.1698
vt 2.6792 -0.3889 2.1698
vt 2.6792 2.1698 -0.5113
vt 2.6792 1.4008 -0.3665
vt -1.7576 2.1698 -0.5113
vt -5.2089 2.1698 -0.5113
vt 3.7548 -1.1698 -0.8277
vt 6.2089 -1.1698 -0.8277
vt 6.2089 -0.7130 -0.9614
vt 3.7548 -0.7130 -0.9614
vt -0.6456 1.6826 1.6160
vt -0.7399 1.6826 1.6160
vt -0.7100 1.6634 1.6160
vt -0.6755 1.6634 1.6160
vt -0.9090 1.6160 -0.7571
vt -0.8803 1.5980 -0.7580
vt -0.7585 1.5980 -0.7581
vt -0.7158 1.6160 -0.7571
vt 1.9090 1.6160 -0.6284
vt 1.7158 1.6160 -0.6284
vt 1.7585 1.5980 -0.6273
vt 1.8803 1.5980 -0.6275
vt 1.6756 1.6635 1.5980
vt 1.7099 1.6635 1.5980
vt 1.6927 1.7922 1.5980
vt 1.7400 1.6827 1.5980
vt 1.6455 1.6827 1.5980
vt 1.7581 1.7166 1.5980
vt 1.7581 1.7585 1.5980
vt 1.6273 1.7585 1.5980
vt 1.6273 1.7166 1.5980
vt 1.6826 1.6160 -0.6456
vt 1.6827 1.5980 -0.6455
vt 1.7166 1.5980 -0.6273
vt -0.6456 1.6160 1.6826
vt -0.6755 1.6160 1.6634
vt -0.6756 1.5980 1.6635
vt -0.6455 1.5980 1.6827
vt -0.7100 1.6160 1.6634
vt -0.7099 1.5980 1.6635
vt -0.7399 1.6160 1.6826
vt -0.7400 1.5980 1.6827
vt -0.7166 1.5980 -0.7581
vt -0.6827 1.5980 -0.7400
vt -0.6826 1.6160 -0.7399
vt 1.6927 1.9139 1.5980
vt 1.7400 1.9423 1.5980
vt 1.7100 1.9614 1.5980
vt 1.6275 1.8803 1.5980
vt 1.6282 1.9090 1.5980
vt 1.6755 1.9614 1.5980
vt -0.9423 1.5980 -0.7400
vt -0.9090 1.5980 -0.7572
vt -0.9422 1.6160 -0.7399
vt 1.7400 1.5980 1.9423
vt 1.7399 1.6160 1.9422
vt 1.7100 1.6160 1.9614
vt 1.7100 1.5980 1.9614
vt 1.6755 1.6160 1.9614
vt 1.6755 1.5980 1.9614
vt 1.6456 1.6160 1.9422
vt 1.6454 1.5980 1.9423
vt 1.9422 1.6160 -0.6456
vt 1.9090 1.5980 -0.6282
vt 1.9423 1.5980 -0.6454
vt 1.7572 1.9090 1.5980
vt 1.6454 1.9423 1.5980
vt 1.7580 1.8803 1.5980
vt -0.6284 1.7158 1.6160
vt -0.7571 1.7158 1.6160
vt -0.7571 1.9090 1.6160
vt -0.6284 1.9090 1.6160
vt -0.7399 1.9422 1.6160
vt -0.6456 1.9422 1.6160
vt -0.7100 1.9614 1.6160
vt -0.6755 1.9614 1.6160
vt -0.7306 1.9613 -0.5910
vt -0.7306 1.4008 -0.4854
vt -0.6549 1.4008 -0.4854
vt -0.6549 1.9613 -0.5910
vt -0.7306 -0.5307 2.0340
vt -0.6549 -0.5307 2.0340
vt -0.6549 -0.4858 2.0340
vt -0.7306 -0.4858 2.0340
vt -0.6549 1.9931 -0.5923
vt -0.7306 1.9931 -0.5923
vt -0.6549 2.0159 -0.5827
vt -0.7306 2.0159 -0.5827
vt -0.7306 -0.5622 2.0295
vt -0.7306 -0.5827 2.0159
vt -0.6549 -0.5827 2.0159
vt -0.6549 -0.5622 2.0295
vt 1.5622 2.0295 -0.7306
vt 1.4858 2.0340 -0.7306
vt 1.5923 1.9931 -0.7306
vt 1.5827 2.0159 -0.7306
vt 1.5307 2.0340 -0.7306
vt 1.3668 1.4008 -0.7306
vt 1.4854 1.4008 -0.7306
vt 1.5910 1.9613 -0.7306
vt -0.4858 2.0340 -0.6549
vt -0.5307 2.0340 -0.6549
vt -0.5910 1.9613 -0.6549
vt -0.3668 1.4008 -0.6549
vt -0.5827 2.0159 -0.6549
vt -0.5622 2.0295 -0.6549
vt -0.5923 1.9931 -0.6549
vt -0.4854 1.4008 -0.6549
vt 0.2633 1.9613 -0.5910
vt 0.1877 1.9613 -0.5910
vt 0.1877 1.4008 -0.4854
vt 0.2633 1.4008 -0.4854
vt 0.2633 -0.5307 2.0340
vt 0.2633 -0.4858 2.0340
vt 0.1877 -0.4858 2.0340
vt 0.1877 -0.5307 2.0340
vt 0.2633 1.9931 -0.5923
vt 0.1877 1.9931 -0.5923
vt 0.2633 2.0159 -0.5827
vt 0.1877 2.0159 -0.5827
vt 0.2633 -0.5622 2.0295
vt 0.1877 -0.5622 2.0295
vt 0.1877 -0.5827 2.0159
vt 0.2633 -0.5827 2.0159
vt 1.5923 1.9931 0.1877
vt 1.5827 2.0159 0.1877
vt 1.5622 2.0295 0.1877
vt 1.4858 2.0340 0.1877
vt 1.5307 2.0340 0.1877
vt 1.4854 1.4008 0.1877
vt 1.3668 1.4008 0.1877
vt 1.5910 1.9613 0.1877
vt -0.5910 1.9613 0.2633
vt -0.3668 1.4008 0.2633
vt -0.4858 2.0340 0.2633
vt -0.5307 2.0340 0.2633
vt -0.5827 2.0159 0.2633
vt -0.5622 2.0295 0.2633
vt -0.5923 1.9931 0.2633
vt -0.4854 1.4008 0.2633
vt 1.0702 1.4008 -0.4854
vt 1.1458 1.4008 -0.4854
vt 1.1458 1.9613 -0.5910
vt 1.0702 1.9613 -0.5910
vt 1.0702 -0.4858 2.0340
vt 1.0702 -0.5307 2.0340
vt 1.1458 -0.5307 2.0340
vt 1.1458 -0.4858 2.0340
vt 1.1458 1.9931 -0.5923
vt 1.0702 1.9931 -0.5923
vt 1.1458 2.0159 -0.5827
vt 1.0702 2.0159 -0.5827
vt 1.0702 -0.5827 2.0159
vt 1.1458 -0.5827 2.0159
vt 1.1458 -0.5622 2.0295
vt 1.0702 -0.5622 2.0295
vt 1.5622 2.0295 1.0702
vt 1.4858 2.0340 1.0702
vt 1.5923 1.9931 1.0702
vt 1.5827 2.0159 1.0702
vt 1.5307 2.0340 1.0702
vt 1.3668 1.4008 1.0702
vt 1.4854 1.4008 1.0702
vt 1.5910 1.9613 1.0702
vt -0.5910 1.9613 1.1458
vt -0.3668 1.4008 1.1458
vt -0.4858 2.0340 1.1458
vt -0.5307 2.0340 1.1458
vt -0.5827 2.0159 1.1458
vt -0.5622 2.0295 1.1458
vt -0.5923 1.9931 1.1458
vt -0.4854 1.4008 1.1458
vt 2.0415 1.4008 -0.4854
vt 2.0415 1.9613 -0.5910
vt 1.9659 1.9613 -0.5910
vt 1.9659 1.4008 -0.4854
vt 2.0415 -0.5307 2.0340
vt 2.0415 -0.4858 2.0340
vt 1.9659 -0.4858 2.0340
vt 1.9659 -0.5307 2.0340
vt 2.0415 1.9931 -0.5923
vt 1.9659 1.9931 -0.5923
vt 2.0415 2.0159 -0.5827
vt 1.9659 2.0159 -0.5827
vt 1.9659 -0.5622 2.0295
vt 1.9659 -0.5827 2.0159
vt 2.0415 -0.5827 2.0159
vt 2.0415 -0.5622 2.0295
vt 1.5923 1.9931 1.9659
vt 1.5827 2.0159 1.9659
vt 1.5622 2.0295 1.9659
vt 1.4858 2.0340 1.9659
vt 1.5307 2.0340 1.9659
vt 1.3668 1.4008 1.9659
vt 1.4854 1.4008 1.9659
vt 1.5910 1.9613 1.9659
vt -0.4858 2.0340 2.0415
vt -0.5307 2.0340 2.0415
vt -0.5910 1.9613 2.0415
vt -0.3668 1.4008 2.0415
vt -0.5827 2.0159 2.0415
vt -0.5622 2.0295 2.0415
vt -0.5923 1.9931 2.0415
vt -0.4854 1.4008 2.0415
vt -4.3279 1.9613 -0.5910
vt -4.3279 1.4008 -0.4854
vt -4.2523 1.4008 -0.4854
vt -4.2523 1.9613 -0.5910
vt -4.3279 -0.5307 2.0340
vt -4.2523 -0.5307 2.0340
vt -4.2523 -0.4858 2.0340
vt -4.3279 -0.4858 2.0340
vt -4.2523 1.9931 -0.5923
vt -4.3279 1.9931 -0.5923
vt -4.2523 2.0159 -0.5827
vt -4.3279 2.0159 -0.5827
vt -4.2523 -0.5622 2.0295
vt -4.3279 -0.5622 2.0295
vt -4.3279 -0.5827 2.0159
vt -4.2523 -0.5827 2.0159
vt 1.5923 1.9931 -4.3279
vt 1.5827 2.0159 -4.3279
vt 1.5622 2.0295 -4.3279
vt 1.4858 2.0340 -4.3279
vt 1.5307 2.0340 -4.3279
vt 1.3668 1.4008 -4.3279
vt 1.4854 1.4008 -4.3279
vt 1.5910 1.9613 -4.3279
vt -0.5910 1.9613 -4.2523
vt -0.3668 1.4008 -4.2523
vt -0.4858 2.0340 -4.2523
vt -0.5307 2.0340 -4.2523
vt -0.5827 2.0159 -4.2523
vt -0.5622 2.0295 -4.2523
vt -0.5923 1.9931 -4.2523
vt -0.4854 1.4008 -4.2523
vt -3.3566 1.4008 -0.4854
vt -3.3566 1.9613 -0.5910
vt -3.4323 1.9613 -0.5910
vt -3.4323 1.4008 -0.4854
vt -3.3566 -0.5307 2.0340
vt -3.3566 -0.4858 2.0340
vt -3.4323 -0.4858 2.0340
vt -3.4323 -0.5307 2.0340
vt -3.3566 1.9931 -0.5923
vt -3.4323 1.9931 -0.5923
vt -3.3566 2.0159 -0.5827
vt -3.4323 2.0159 -0.5827
vt -3.4323 -0.5827 2.0159
vt -3.3566 -0.5827 2.0159
vt -3.3566 -0.5622 2.0295
vt -3.4323 -0.5622 2.0295
vt 1.5923 1.9931 -3.4323
vt 1.5827 2.0159 -3.4323
vt 1.5622 2.0295 -3.4323
vt 1.4858 2.0340 -3.4323
vt 1.5307 2.0340 -3.4323
vt 1.3668 1.4008 -3.4323
vt 1.4854 1.4008 -3.4323
vt 1.5910 1.9613 -3.4323
vt -0.5910 1.9613 -3.3566
vt -0.3668 1.4008 -3.3566
vt -0.4858 2.0340 -3.3566
vt -0.5307 2.0340 -3.3566
vt -0.5622 2.0295 -3.3566
vt -0.5827 2.0159 -3.3566
vt -0.5923 1.9931 -3.3566
vt -0.4854 1.4008 -3.3566
vt -2.5760 1.9613 -0.5910
vt -2.5760 1.4008 -0.4854
vt -2.5004 1.4008 -0.4854
vt -2.5004 1.9613 -0.5910
vt -2.5760 -0.4858 2.0340
vt -2.5760 -0.5307 2.0340
vt -2.5004 -0.5307 2.0340
vt -2.5004 -0.4858 2.0340
vt -2.5760 1.9931 -0.5923
vt -2.5004 1.9931 -0.5923
vt -2.5004 2.0159 -0.5827
vt -2.5760 2.0159 -0.5827
vt -2.5004 -0.5622 2.0295
vt -2.5760 -0.5622 2.0295
vt -2.5760 -0.5827 2.0159
vt -2.5004 -0.5827 2.0159
vt 1.5622 2.0295 -2.5760
vt 1.4858 2.0340 -2.5760
vt 1.5923 1.9931 -2.5760
vt 1.5827 2.0159 -2.5760
vt 1.5307 2.0340 -2.5760
vt 1.3668 1.4008 -2.5760
vt 1.4854 1.4008 -2.5760
vt 1.5910 1.9613 -2.5760
vt -0.4858 2.0340 -2.5004
vt -0.5307 2.0340 -2.5004
vt -0.5910 1.9613 -2.5004
vt -0.3668 1.4008 -2.5004
vt -0.5827 2.0159 -2.5004
vt -0.5622 2.0295 -2.5004
vt -0.5923 1.9931 -2.5004
vt -0.4854 1.4008 -2.5004
vt -1.6803 1.4008 -0.4854
vt -1.6047 1.4008 -0.4854
vt -1.6047 1.9613 -0.5910
vt -1.6803 1.9613 -0.5910
vt -1.6047 -0.4858 2.0340
vt -1.6803 -0.4858 2.0340
vt -1.6803 -0.5307 2.0340
vt -1.6047 -0.5307 2.0340
vt -1.6047 1.9931 -0.5923
vt -1.6803 1.9931 -0.5923
vt -1.6047 2.0159 -0.5827
vt -1.6803 2.0159 -0.5827
vt -1.6047 -0.5622 2.0295
vt -1.6803 -0.5622 2.0295
vt -1.6803 -0.5827 2.0159
vt -1.6047 -0.5827 2.0159
vt 1.5923 1.9931 -1.6803
vt 1.5827 2.0159 -1.6803
vt 1.5622 2.0295 -1.6803
vt 1.4858 2.0340 -1.6803
vt 1.5307 2.0340 -1.6803
vt 1.3668 1.4008 -1.6803
vt 1.4854 1.4008 -1.6803
vt 1.5910 1.9613 -1.6803
vt -0.4858 2.0340 -1.6047
vt -0.5307 2.0340 -1.6047
vt -0.5910 1.9613 -1.6047
vt -0.3668 1.4008 -1.6047
vt -0.5622 2.0295 -1.6047
vt -0.5827 2.0159 -1.6047
vt -0.5923 1.9931 -1.6047
vt -0.4854 1.4008 -1.6047
vt 0.9995 0.0005 0.9988
vt 0.9995 0.1891 0.9995
vt 0.0005 0.1891 0.0013
vt 0.0005 0.0005 0.0006
vt 0.1858 0.2710 0.0000
vt 0.1858 0.2744 0.0000
vt 0.3142 0.2710 0.0000
vt 0.3142 0.2744 0.0000
vt 0.2133 0.2652 0.0000
vt 0.2867 0.2652 0.0000
vt 0.7506 0.9065 0.7543
vt 0.5698 0.9995 0.5737
vt 0.4302 0.9995 0.4342
vt 0.2494 0.9065 0.2534
vt 0.9204 0.5916 0.9223
vt 0.0796 0.5916 0.0821
vt 2.4700 0.2564 0.2464
vt 1.5936 0.2564 0.2464
vt 1.5936 0.1033 0.3096
vt 2.4700 0.1033 0.3096
vt 1.5936 1.0927 0.0005
vt 2.1806 0.8164 0.0387
vt 2.1772 0.7739 0.0563
vt 2.6078 1.0926 0.0005
vt 2.2275 0.7722 0.0570
vt 2.2275 0.8150 0.0393
vt 2.1693 0.7962 0.0471
vt 2.2019 0.7631 0.0607
vt 2.2372 0.7941 0.0479
vt 2.2044 0.8242 0.0355
vt 2.1123 -0.2854 0.1704
vt 1.1882 -0.2139 0.1791
vt 1.1962 -0.6020 0.0395
vt 2.1186 -0.5926 0.0600
vt 0.3366 -0.2226 0.1601
vt 0.3446 -0.6108 0.0205
vt 0.3623 -0.2223 0.1607
vt -1.1186 -0.5993 0.0005
vt 0.3361 -0.2016 0.1677
vt -0.1666 1.0983 0.6214
vt 0.3089 1.1143 0.6408
vt 0.2701 1.5313 0.9593
vt 0.0868 1.5231 0.9401
vt 1.1606 1.1230 0.6598
vt 2.0847 1.0502 0.6507
vt 2.0424 1.6108 0.9995
vt 1.1209 1.5695 0.9783
vt 0.2210 0.8746 0.5533
vt 0.3114 0.9963 0.5984
vt 1.2583 0.8822 0.5764
vt 2.0980 0.4085 0.4200
vt 1.2559 1.0002 0.6188
vt 0.2186 0.9926 0.5957
vt 0.7257 1.4356 0.8496
vt 1.1877 -0.1913 0.1872
vt 0.9552 -0.2162 0.1739
vt 0.7623 -0.2182 0.1696
vt 0.5694 -0.2202 0.1654
vt 0.5494 -0.2204 0.1649
vt 1.1634 -0.2141 0.1785
vt 0.9753 -0.2160 0.1744
vt 1.1630 1.0051 0.6173
vt -1.7576 -0.5113 2.1698
vt 2.6792 -0.5113 2.1698
vt -5.2089 1.4008 -0.3664
vt -0.3889 2.1698 2.6792
vt -0.0769 1.4008 2.6792
vt 1.1347 1.0202 0.0000
# 645 texture coords

g Ryytli_24_2
usemtl Stone_Color
s off
f 1/1/1 2/2/1 3/3/1 
f 3/3/1 4/4/1 1/1/1 
f 5/4/2 6/5/2 7/6/2 
f 7/6/3 8/7/3 5/4/3 
f 9/1/4 10/8/4 11/9/4 
f 11/9/4 12/10/4 9/1/4 
usemtl Brick
f 13/11/5 14/12/5 15/13/5 
f 16/14/6 17/15/6 18/16/6 
f 19/17/6 9/18/6 12/19/6 
f 12/19/6 20/20/6 19/17/6 
f 12/21/7 21/22/7 20/23/7 
usemtl Stone_Color
f 22/24/8 23/25/8 24/26/8 
f 24/26/8 25/6/8 22/24/8 
usemtl Brick
f 4/27/6 3/28/6 26/29/6 
f 26/29/6 27/30/6 4/27/6 
f 26/31/9 3/32/9 13/33/9 
f 13/33/10 28/34/10 26/31/10 
f 29/35/5 28/36/5 13/11/5 
f 13/11/5 15/13/5 29/35/5 
f 15/37/11 4/38/11 27/39/11 
f 27/39/12 29/40/12 15/37/12 
usemtl Wall_Cream
f 30/41/13 31/7/13 32/6/13 
usemtl Brick
f 33/42/8 18/43/8 34/44/8 
f 34/44/8 35/45/8 33/42/8 
f 36/46/14 4/38/14 15/37/14 
f 15/37/15 14/47/15 36/46/15 
usemtl Windows_Type2
f 37/48/6 38/49/6 39/50/6 
f 39/50/6 40/51/6 37/48/6 
usemtl Wall_Cream
f 14/10/5 41/52/5 42/53/5 
f 42/53/5 43/2/5 14/10/5 
usemtl Red_Wood_Strips
f 44/54/16 45/55/16 46/56/16 
usemtl Roof_Type1
f 47/57/17 48/58/17 49/59/17 
f 49/59/17 50/60/17 47/57/17 
f 51/61/18 52/62/18 47/63/18 
f 47/63/19 50/64/19 51/61/19 
usemtl Red_Trim
f 53/65/7 54/66/7 55/67/7 
f 55/67/7 56/68/7 53/65/7 
usemtl Red_Wood_Color
f 57/69/8 58/70/8 59/70/8 
f 59/70/8 60/69/8 57/69/8 
f 61/71/7 62/72/7 63/73/7 
f 63/73/7 64/74/7 61/71/7 
usemtl Red_Trim
f 65/75/8 66/76/8 67/77/8 
f 67/77/8 68/78/8 65/75/8 
usemtl Red_Wood_Color
f 61/72/6 69/79/6 70/80/6 
usemtl Roof_Type1
f 54/81/20 52/62/20 51/61/20 
f 51/61/20 55/82/20 54/81/20 
usemtl Red_Trim
f 61/71/21 64/74/21 56/68/21 
usemtl Roof_Type1
f 49/59/22 48/58/22 68/83/22 
f 68/83/22 67/84/22 49/59/22 
usemtl Red_Trim
f 65/75/23 71/75/23 60/69/23 
f 60/69/24 66/76/24 65/75/24 
f 72/85/25 73/86/25 67/77/25 
f 67/77/26 66/76/26 72/85/26 
usemtl Roof_Type1
f 49/59/27 67/84/27 73/87/27 
f 73/87/28 50/60/28 49/59/28 
f 50/60/29 73/87/29 74/88/29 
usemtl Red_Trim
f 59/70/30 75/89/30 66/76/30 
f 76/90/31 45/91/31 69/79/31 
f 69/79/32 56/68/32 76/90/32 
f 45/91/33 76/90/33 77/92/33 
usemtl Roof_Type1
f 50/64/34 74/93/34 78/94/34 
f 78/94/35 51/61/35 50/64/35 
f 51/61/36 78/94/36 55/82/36 
f 47/57/37 79/95/37 48/58/37 
f 47/63/38 52/62/38 79/96/38 
usemtl Brick
f 80/97/39 13/33/39 21/22/39 
usemtl Stone_Color
f 81/9/7 82/98/7 83/99/7 
f 83/99/7 84/10/7 81/9/7 
f 85/8/6 86/100/6 82/98/6 
f 82/98/6 81/9/6 85/8/6 
f 87/99/8 86/100/8 85/8/8 
f 85/8/8 88/9/8 87/99/8 
f 24/26/6 23/25/6 89/101/6 
f 89/101/6 90/2/6 24/26/6 
f 91/102/7 92/3/7 90/2/7 
f 90/2/7 89/101/7 91/102/7 
usemtl Brick
f 35/45/8 9/103/8 19/104/8 
f 19/104/8 36/46/8 35/45/8 
usemtl Stone_Color
f 93/105/6 94/5/6 95/4/6 
f 95/4/6 96/4/6 93/105/6 
f 97/106/40 98/6/40 94/5/40 
f 94/5/41 93/105/41 97/106/41 
f 8/7/42 7/6/42 28/106/42 
f 28/106/43 29/7/43 8/7/43 
f 95/4/44 99/7/44 100/7/44 
f 100/7/45 96/4/45 95/4/45 
f 25/6/46 24/26/46 1/1/46 
f 1/1/1 4/4/1 25/6/1 
f 25/6/47 4/6/47 36/24/47 
f 36/24/47 22/24/47 25/6/47 
f 22/24/48 36/24/48 19/107/48 
f 19/107/49 23/25/49 22/24/49 
f 11/9/50 81/9/50 84/10/50 
f 84/10/4 12/10/4 11/9/4 
f 83/99/51 82/98/51 17/108/51 
f 17/108/52 101/99/52 83/99/52 
f 83/99/53 101/99/53 12/10/53 
f 12/10/53 84/10/53 83/99/53 
f 88/9/54 85/8/54 10/8/54 
f 10/8/4 9/1/4 88/9/4 
f 9/9/55 35/109/55 87/99/55 
f 87/99/55 88/9/55 9/9/55 
f 87/99/56 35/99/56 34/110/56 
f 34/110/57 86/100/57 87/99/57 
f 2/2/58 90/2/58 92/3/58 
f 92/3/1 3/3/1 2/2/1 
f 20/101/59 21/102/59 91/102/59 
f 91/102/60 89/101/60 20/101/60 
f 92/3/61 91/102/61 21/102/61 
f 21/102/61 3/3/61 92/3/61 
f 98/6/62 7/6/62 6/5/62 
f 6/5/63 94/5/63 98/6/63 
f 26/105/64 28/106/64 97/106/64 
f 97/106/65 93/105/65 26/105/65 
f 98/6/43 97/106/43 28/106/43 
f 28/106/66 7/6/66 98/6/66 
f 99/7/67 95/4/67 5/4/67 
f 5/4/68 8/7/68 99/7/68 
f 99/7/43 8/7/43 29/7/43 
f 29/7/43 100/7/43 99/7/43 
f 100/7/69 29/7/69 27/4/69 
f 27/4/70 96/4/70 100/7/70 
f 10/8/71 85/8/71 81/9/71 
f 81/9/71 11/9/71 10/8/71 
f 34/111/72 17/112/72 82/98/72 
f 82/98/72 86/100/72 34/111/72 
f 90/2/71 2/2/71 1/1/71 
f 1/1/71 24/26/71 90/2/71 
f 89/101/72 23/25/72 19/1/72 
f 19/1/72 20/101/72 89/101/72 
f 95/4/71 94/5/71 6/5/71 
f 6/5/71 5/4/71 95/4/71 
f 93/105/72 96/4/72 27/4/72 
f 27/4/72 26/105/72 93/105/72 
usemtl Brick
f 13/33/73 3/32/73 21/22/73 
f 102/113/74 80/97/74 21/22/74 
f 21/22/7 101/114/7 102/113/7 
f 103/115/8 33/42/8 35/45/8 
f 35/45/8 36/46/8 103/115/8 
f 12/21/7 101/114/7 21/22/7 
f 14/47/75 103/115/75 36/46/75 
usemtl Wall_Cream
f 104/116/76 105/117/76 106/118/76 
usemtl Windows_Type2
f 107/119/6 108/120/6 109/121/6 
usemtl Wall_Cream
f 110/122/6 111/123/6 112/124/6 
f 112/124/6 113/125/6 110/122/6 
f 114/126/6 111/123/6 110/122/6 
f 114/126/6 115/127/6 111/123/6 
f 116/128/77 117/129/77 118/130/77 
f 119/131/78 120/132/78 121/133/78 
f 121/133/79 30/134/79 119/131/79 
f 30/134/80 121/133/80 122/135/80 
f 123/136/81 120/132/81 124/137/81 
f 124/137/82 125/138/82 123/136/82 
f 126/139/83 116/128/83 127/140/83 
f 127/140/84 128/141/84 126/139/84 
f 129/142/85 130/143/85 131/144/85 
f 131/144/86 104/116/86 129/142/86 
f 116/128/87 132/145/87 133/146/87 
f 104/116/88 131/144/88 105/117/88 
f 116/128/83 133/146/83 127/140/83 
f 129/142/86 104/116/86 116/128/86 
f 116/128/89 126/139/89 129/142/89 
usemtl Door
f 134/147/90 135/148/90 136/149/90 
f 136/149/91 137/150/91 134/147/91 
usemtl Wall_Cream
f 138/151/92 125/138/92 124/137/92 
f 124/137/90 139/152/90 138/151/90 
f 138/151/93 139/152/93 136/153/93 
f 136/153/94 135/151/94 138/151/94 
f 39/124/8 112/124/8 111/123/8 
f 111/123/8 140/123/8 39/124/8 
f 111/123/95 115/127/95 40/127/95 
f 40/127/95 140/123/95 111/123/95 
f 141/154/96 142/155/96 143/156/96 
f 143/156/96 37/154/96 141/154/96 
f 144/157/7 145/158/7 146/159/7 
f 146/159/7 38/160/7 144/157/7 
f 38/160/97 146/159/97 112/124/97 
f 112/124/97 39/124/97 38/160/97 
f 147/65/8 148/161/8 123/136/8 
f 123/136/8 118/130/8 147/65/8 
f 118/130/98 117/129/98 149/162/98 
f 149/162/98 147/65/98 118/130/98 
f 150/163/99 151/164/99 108/164/99 
f 108/164/99 152/163/99 150/163/99 
f 121/133/7 107/133/7 109/135/7 
f 109/135/7 122/135/7 121/133/7 
f 123/136/97 148/161/97 107/133/97 
f 107/133/97 121/133/97 123/136/97 
f 114/126/6 104/116/6 141/154/6 
f 30/134/100 151/164/100 150/163/100 
f 153/165/6 154/165/6 155/166/6 
f 155/166/6 156/166/6 153/165/6 
usemtl White_Paint
f 153/165/7 157/167/7 158/167/7 
f 158/167/7 159/165/7 153/165/7 
usemtl Brick
f 17/168/7 160/169/7 161/170/7 
f 161/170/7 162/171/7 17/168/7 
f 161/170/7 160/169/7 163/172/7 
f 161/170/7 163/172/7 155/173/7 
f 155/173/7 154/174/7 161/170/7 
f 162/171/7 102/113/7 101/114/7 
f 101/114/7 17/168/7 162/171/7 
usemtl Red_Trim
f 164/8/101 165/175/101 166/175/101 
f 166/175/102 167/8/102 164/8/102 
f 165/175/103 168/167/103 169/167/103 
f 169/167/104 166/175/104 165/175/104 
f 170/167/105 169/167/105 168/167/105 
f 168/167/106 171/167/106 170/167/106 
f 172/167/107 173/167/107 170/167/107 
f 170/167/108 171/167/108 172/167/108 
f 173/167/109 172/167/109 174/175/109 
f 174/175/110 175/175/110 173/167/110 
f 176/8/111 177/8/111 175/175/111 
f 175/175/112 174/175/112 176/8/112 
f 178/8/113 179/8/113 177/8/113 
f 177/8/114 176/8/114 178/8/114 
f 167/8/115 179/8/115 178/8/115 
f 178/8/116 164/8/116 167/8/116 
f 180/175/117 181/8/117 182/8/117 
f 182/8/118 183/175/118 180/175/118 
f 183/175/119 184/167/119 185/167/119 
f 185/167/120 180/175/120 183/175/120 
f 184/167/121 186/167/121 187/167/121 
f 187/167/122 185/167/122 184/167/122 
f 188/167/123 187/167/123 186/167/123 
f 186/167/124 189/167/124 188/167/124 
f 190/175/125 188/167/125 189/167/125 
f 189/167/125 191/175/125 190/175/125 
f 192/8/126 193/8/126 190/175/126 
f 190/175/126 191/175/126 192/8/126 
f 192/8/127 194/8/127 195/8/127 
f 195/8/128 193/8/128 192/8/128 
f 195/8/129 194/8/129 182/8/129 
f 182/8/130 181/8/130 195/8/130 
f 182/8/131 167/8/131 166/175/131 
f 166/175/132 183/175/132 182/8/132 
f 167/8/133 182/8/133 194/8/133 
f 194/8/134 179/8/134 167/8/134 
f 194/8/135 192/8/135 177/8/135 
f 177/8/136 179/8/136 194/8/136 
f 175/175/137 177/8/137 192/8/137 
f 192/8/138 191/175/138 175/175/138 
f 173/167/139 175/175/139 191/175/139 
f 191/175/140 189/167/140 173/167/140 
f 189/167/141 186/167/141 170/167/141 
f 170/167/142 173/167/142 189/167/142 
f 169/167/143 170/167/143 186/167/143 
f 186/167/144 184/167/144 169/167/144 
f 184/167/145 183/175/145 166/175/145 
f 166/175/146 169/167/146 184/167/146 
f 181/8/147 180/175/147 196/175/147 
f 196/175/148 197/8/148 181/8/148 
f 185/167/149 198/167/149 196/175/149 
f 196/175/150 180/175/150 185/167/150 
f 198/167/151 185/167/151 187/167/151 
f 187/167/152 199/167/152 198/167/152 
f 187/167/153 188/167/153 200/167/153 
f 200/167/154 199/167/154 187/167/154 
f 188/167/155 190/175/155 201/175/155 
f 201/175/156 200/167/156 188/167/156 
f 201/175/157 190/175/157 193/8/157 
f 193/8/158 202/8/158 201/175/158 
f 202/8/159 193/8/159 195/8/159 
f 195/8/160 203/8/160 202/8/160 
f 181/8/161 197/8/161 203/8/161 
f 203/8/162 195/8/162 181/8/162 
f 197/8/163 196/175/163 204/175/163 
f 196/175/164 198/167/164 204/175/164 
f 198/167/164 199/167/164 204/175/164 
f 199/167/97 200/167/97 204/175/97 
f 200/167/97 201/175/97 204/175/97 
f 201/175/97 202/8/97 204/175/97 
f 202/8/163 203/8/163 204/175/163 
f 203/8/163 197/8/163 204/175/163 
usemtl Wall_Cream
f 116/128/165 30/134/165 150/163/165 
f 104/116/6 142/155/6 141/154/6 
usemtl Windows_Type2
f 37/48/6 143/176/6 38/49/6 
f 148/177/6 149/178/6 152/179/6 
usemtl Wall_Cream
f 104/116/76 106/118/76 145/158/76 
f 205/180/166 146/159/166 145/158/166 
f 118/130/167 125/138/167 132/145/167 
f 132/145/168 116/128/168 118/130/168 
f 118/130/167 123/136/167 125/138/167 
usemtl Brick
f 17/15/6 34/181/6 18/16/6 
f 17/15/6 16/14/6 114/182/6 
usemtl Red_Wood_Color
f 59/70/6 58/70/6 206/183/6 
f 206/183/6 207/183/6 59/70/6 
usemtl Windows_Type1
f 208/184/6 209/185/6 210/186/6 
f 210/186/6 211/187/6 208/184/6 
usemtl Red_Wood_Strips
f 212/188/6 70/189/6 213/190/6 
f 213/190/6 214/191/6 212/188/6 
usemtl Windows_Type1
f 215/192/6 210/186/6 209/185/6 
f 209/185/6 216/193/6 215/192/6 
usemtl Red_Wood_Strips
f 46/56/16 45/55/16 75/194/16 
f 75/194/6 207/195/6 46/56/6 
f 45/55/16 44/54/16 213/190/16 
usemtl Red_Wood_Color
f 214/79/6 213/79/6 217/79/6 
f 217/79/6 218/79/6 214/79/6 
f 217/79/6 213/79/6 44/91/6 
f 44/91/6 219/91/6 217/79/6 
f 44/91/6 46/89/6 220/89/6 
f 220/89/6 219/91/6 44/91/6 
f 220/89/6 46/89/6 221/89/6 
f 221/89/6 222/89/6 220/89/6 
f 222/196/97 223/91/97 210/91/97 
f 210/91/97 215/89/97 222/196/97 
f 210/91/97 223/91/97 218/197/97 
f 218/197/97 211/79/97 210/91/97 
f 218/79/8 217/79/8 208/79/8 
f 208/79/8 211/79/8 218/79/8 
f 219/91/169 209/91/169 208/79/169 
f 208/79/169 217/79/169 219/91/169 
f 209/91/169 219/91/169 220/89/169 
f 220/89/169 216/89/169 209/91/169 
f 216/89/7 220/89/7 222/89/7 
f 222/89/7 215/89/7 216/89/7 
usemtl Red_Wood_Strips
f 213/190/6 70/189/6 69/198/6 
f 69/198/170 45/55/170 213/190/170 
usemtl Red_Wood_Color
f 62/72/6 61/72/6 70/80/6 
f 70/80/6 212/80/6 62/72/6 
usemtl Red_Wood_Strips
f 206/199/6 221/200/6 46/56/6 
f 46/56/6 207/195/6 206/199/6 
usemtl Red_Wood_Color
f 75/89/6 59/70/6 207/183/6 
usemtl Red_Wood_Strips
f 63/201/7 224/202/7 64/203/7 
f 60/204/8 71/205/8 57/206/8 
usemtl Red_Trim
f 69/79/171 61/72/171 56/68/171 
f 72/85/172 75/89/172 45/91/172 
f 45/91/173 77/92/173 72/85/173 
f 75/89/174 72/85/174 66/76/174 
f 60/69/175 59/70/175 66/76/175 
f 64/74/176 224/65/176 53/65/176 
f 53/65/177 56/68/177 64/74/177 
usemtl Brick
f 14/12/5 13/11/5 80/207/5 
usemtl Wall_Cream
f 225/208/178 226/6/178 227/209/178 
usemtl Brick
f 41/210/5 14/12/5 80/207/5 
f 80/207/5 228/211/5 41/210/5 
f 160/212/6 17/15/6 114/182/6 
f 114/182/6 229/213/6 160/212/6 
usemtl Wall_Cream
f 43/2/5 42/53/5 230/214/5 
f 230/214/5 231/215/5 43/2/5 
f 232/216/179 153/165/179 156/166/179 
f 233/217/5 228/218/5 80/167/5 
f 80/167/5 234/219/5 233/217/5 
f 227/220/5 226/9/5 231/215/5 
f 231/215/5 230/214/5 227/220/5 
f 146/159/6 235/221/6 113/125/6 
f 113/125/6 112/124/6 146/159/6 
f 120/132/180 123/136/180 121/133/180 
f 236/222/181 235/221/181 146/159/181 
f 146/159/182 205/180/182 236/222/182 
f 205/180/183 237/223/183 238/224/183 
f 238/224/184 236/222/184 205/180/184 
f 134/223/185 137/225/185 238/224/185 
f 238/224/186 237/223/186 134/223/186 
f 30/41/187 225/208/187 227/209/187 
f 227/209/188 119/226/188 30/41/188 
f 234/219/189 157/167/189 153/165/189 
f 153/165/190 232/216/190 234/219/190 
f 233/217/191 234/219/191 232/216/191 
usemtl Brick
f 229/213/6 114/182/6 110/227/6 
usemtl Red_Trim
f 55/67/192 78/228/192 76/90/192 
f 76/90/193 56/68/193 55/67/193 
usemtl Wall_Cream
f 115/127/194 141/154/194 37/154/194 
f 37/154/194 40/127/194 115/127/194 
f 152/163/195 149/162/195 117/129/195 
f 117/129/195 150/163/195 152/163/195 
f 144/157/196 143/156/196 142/155/196 
f 142/155/196 145/158/196 144/157/196 
f 151/164/197 122/135/197 109/135/197 
f 109/135/197 108/164/197 151/164/197 
f 114/126/6 141/154/6 115/127/6 
f 104/116/6 145/158/6 142/155/6 
usemtl Windows_Type2
f 39/50/6 140/229/6 40/51/6 
f 143/176/6 144/230/6 38/49/6 
usemtl Wall_Cream
f 116/128/198 150/163/198 117/129/198 
f 30/134/199 122/135/199 151/164/199 
usemtl Windows_Type2
f 148/177/6 147/231/6 149/178/6 
f 152/179/6 108/120/6 107/119/6 
f 107/119/6 148/177/6 152/179/6 
usemtl White_Paint
f 159/232/200 158/233/200 162/234/200 
f 162/234/200 161/235/200 159/232/200 
f 239/236/6 240/237/6 241/238/6 
f 104/239/201 241/240/201 116/241/201 
f 114/242/7 16/243/7 242/244/7 
f 32/245/202 31/246/202 240/237/202 
f 239/236/6 241/238/6 243/247/6 
f 242/248/201 241/240/201 114/249/201 
f 244/250/203 31/251/203 116/241/203 
f 154/252/204 153/253/204 159/254/204 
f 159/254/204 161/255/204 154/252/204 
f 245/256/205 246/257/205 247/258/205 
f 247/258/205 248/259/205 245/256/205 
f 249/260/206 73/261/206 72/262/206 
f 72/262/207 250/263/207 249/260/207 
f 251/264/208 252/265/208 76/266/208 
f 76/266/209 78/267/209 251/264/209 
f 253/268/210 254/269/210 77/270/210 
f 254/269/210 255/271/210 77/270/210 
f 77/270/210 256/272/210 253/268/210 
f 257/273/210 72/274/210 77/270/210 
f 77/270/210 76/275/210 258/276/210 
f 258/276/210 256/272/210 77/270/210 
f 77/270/210 255/271/210 257/273/210 
f 252/265/211 245/277/211 256/278/211 
f 256/278/212 258/279/212 252/265/212 
f 245/280/213 248/281/213 253/282/213 
f 253/282/214 256/283/214 245/280/214 
f 248/281/215 247/284/215 254/285/215 
f 254/285/215 253/282/215 248/281/215 
f 247/284/216 246/286/216 255/287/216 
f 255/287/217 254/285/217 247/284/217 
f 250/263/218 257/288/218 255/289/218 
f 255/289/219 246/290/219 250/263/219 
f 74/291/210 259/292/210 260/293/210 
f 78/294/210 74/291/210 261/295/210 
f 262/296/210 74/291/210 260/293/210 
f 259/297/220 263/298/220 249/260/220 
f 249/260/221 264/299/221 259/297/221 
f 259/300/222 264/301/222 265/302/222 
f 265/302/223 260/303/223 259/300/223 
f 260/303/97 265/302/97 266/304/97 
f 266/304/97 262/305/97 260/303/97 
f 262/305/224 266/304/224 267/306/224 
f 267/306/225 268/307/225 262/305/225 
f 267/308/226 251/264/226 261/309/226 
f 261/309/227 268/310/227 267/308/227 
f 249/260/228 263/298/228 73/261/228 
f 78/267/229 261/309/229 251/264/229 
f 74/291/210 263/311/210 259/292/210 
f 74/291/210 262/296/210 268/312/210 
f 74/291/210 268/312/210 261/295/210 
f 74/291/210 73/313/210 263/311/210 
f 72/262/207 257/288/207 250/263/207 
f 252/265/208 258/279/208 76/266/208 
f 252/314/6 250/315/6 246/257/6 
f 246/257/6 245/256/6 252/314/6 
f 249/316/6 250/315/6 252/314/6 
f 252/314/6 251/317/6 249/316/6 
f 264/318/6 249/316/6 251/317/6 
f 251/317/6 267/319/6 264/318/6 
f 265/320/6 264/318/6 267/319/6 
f 267/319/6 266/321/6 265/320/6 
f 269/322/230 270/323/230 271/324/230 
f 271/324/230 272/325/230 269/322/230 
f 273/326/6 274/327/6 275/328/6 
f 275/328/6 276/329/6 273/326/6 
f 277/330/231 278/331/231 269/322/231 
f 269/322/231 272/325/231 277/330/231 
f 277/330/232 279/332/232 280/333/232 
f 280/333/232 278/331/232 277/330/232 
f 281/334/233 280/335/233 279/336/233 
f 279/336/233 282/337/233 281/334/233 
f 274/327/234 273/326/234 281/334/234 
f 281/334/234 282/337/234 274/327/234 
f 281/338/8 276/339/8 278/340/8 
f 278/340/8 280/341/8 281/338/8 
f 281/338/8 273/342/8 276/339/8 
f 276/339/8 283/343/8 270/344/8 
f 270/344/8 278/340/8 276/339/8 
f 269/345/8 278/340/8 270/344/8 
f 275/346/7 274/347/7 272/348/7 
f 272/348/7 284/349/7 275/346/7 
f 279/350/7 272/348/7 274/347/7 
f 274/347/7 282/351/7 279/350/7 
f 279/350/7 277/352/7 272/348/7 
f 271/353/7 284/349/7 272/348/7 
f 285/354/230 286/355/230 287/356/230 
f 287/356/230 288/357/230 285/354/230 
f 289/358/6 290/359/6 291/360/6 
f 291/360/6 292/361/6 289/358/6 
f 286/355/231 285/354/231 293/362/231 
f 293/362/231 294/363/231 286/355/231 
f 294/363/232 293/362/232 295/364/232 
f 295/364/232 296/365/232 294/363/232 
f 297/366/233 298/367/233 296/368/233 
f 296/368/233 295/369/233 297/366/233 
f 289/358/234 292/361/234 298/367/234 
f 298/367/234 297/366/234 289/358/234 
f 294/370/8 296/371/8 298/372/8 
f 298/372/8 291/373/8 294/370/8 
f 298/372/8 292/374/8 291/373/8 
f 287/375/8 294/370/8 291/373/8 
f 291/373/8 299/376/8 287/375/8 
f 286/377/8 294/370/8 287/375/8 
f 285/378/7 300/379/7 290/380/7 
f 290/380/7 289/381/7 285/378/7 
f 295/382/7 285/378/7 289/381/7 
f 289/381/7 297/383/7 295/382/7 
f 295/382/7 293/384/7 285/378/7 
f 288/385/7 300/379/7 285/378/7 
f 301/386/230 302/387/230 303/388/230 
f 303/388/230 304/389/230 301/386/230 
f 305/390/6 306/391/6 307/392/6 
f 307/392/6 308/393/6 305/390/6 
f 309/394/231 310/395/231 304/389/231 
f 304/389/231 303/388/231 309/394/231 
f 310/395/232 309/394/232 311/396/232 
f 311/396/232 312/397/232 310/395/232 
f 312/398/233 311/399/233 313/400/233 
f 313/400/233 314/401/233 312/398/233 
f 313/400/234 307/392/234 306/391/234 
f 306/391/234 314/401/234 313/400/234 
f 314/402/8 305/403/8 310/404/8 
f 310/404/8 312/405/8 314/402/8 
f 314/402/8 306/406/8 305/403/8 
f 305/403/8 315/407/8 301/408/8 
f 301/408/8 310/404/8 305/403/8 
f 304/409/8 310/404/8 301/408/8 
f 303/410/7 316/411/7 308/412/7 
f 308/412/7 307/413/7 303/410/7 
f 311/414/7 303/410/7 307/413/7 
f 307/413/7 313/415/7 311/414/7 
f 311/414/7 309/416/7 303/410/7 
f 302/417/7 316/411/7 303/410/7 
f 317/418/230 318/419/230 319/420/230 
f 319/420/230 320/421/230 317/418/230 
f 321/422/6 322/423/6 323/424/6 
f 323/424/6 324/425/6 321/422/6 
f 318/419/231 325/426/231 326/427/231 
f 326/427/231 319/420/231 318/419/231 
f 327/428/232 328/429/232 326/427/232 
f 326/427/232 325/426/232 327/428/232 
f 329/430/233 328/431/233 327/432/233 
f 327/432/233 330/433/233 329/430/233 
f 329/430/234 330/433/234 321/422/234 
f 321/422/234 324/425/234 329/430/234 
f 326/434/8 328/435/8 329/436/8 
f 329/436/8 323/437/8 326/434/8 
f 329/436/8 324/438/8 323/437/8 
f 326/434/8 323/437/8 331/439/8 
f 331/439/8 320/440/8 326/434/8 
f 319/441/8 326/434/8 320/440/8 
f 322/442/7 321/443/7 318/444/7 
f 318/444/7 332/445/7 322/442/7 
f 327/446/7 318/444/7 321/443/7 
f 321/443/7 330/447/7 327/446/7 
f 327/446/7 325/448/7 318/444/7 
f 317/449/7 332/445/7 318/444/7 
f 333/450/230 334/451/230 335/452/230 
f 335/452/230 336/453/230 333/450/230 
f 337/454/6 338/455/6 339/456/6 
f 339/456/6 340/457/6 337/454/6 
f 341/458/231 342/459/231 333/450/231 
f 333/450/231 336/453/231 341/458/231 
f 343/460/232 344/461/232 342/459/232 
f 342/459/232 341/458/232 343/460/232 
f 345/462/233 346/463/233 344/464/233 
f 344/464/233 343/465/233 345/462/233 
f 346/463/234 345/462/234 338/455/234 
f 338/455/234 337/454/234 346/463/234 
f 342/466/8 344/467/8 346/468/8 
f 346/468/8 340/469/8 342/466/8 
f 346/468/8 337/470/8 340/469/8 
f 347/471/8 334/472/8 342/466/8 
f 342/466/8 340/469/8 347/471/8 
f 333/473/8 342/466/8 334/472/8 
f 336/474/7 348/475/7 339/476/7 
f 339/476/7 338/477/7 336/474/7 
f 343/478/7 336/474/7 338/477/7 
f 338/477/7 345/479/7 343/478/7 
f 343/478/7 341/480/7 336/474/7 
f 335/481/7 348/475/7 336/474/7 
f 349/482/230 350/483/230 351/484/230 
f 351/484/230 352/485/230 349/482/230 
f 353/486/6 354/487/6 355/488/6 
f 355/488/6 356/489/6 353/486/6 
f 357/490/231 358/491/231 351/484/231 
f 351/484/231 350/483/231 357/490/231 
f 358/491/232 357/490/232 359/492/232 
f 359/492/232 360/493/232 358/491/232 
f 360/494/233 359/495/233 361/496/233 
f 361/496/233 362/497/233 360/494/233 
f 362/497/234 361/496/234 353/486/234 
f 353/486/234 356/489/234 362/497/234 
f 358/498/8 360/499/8 362/500/8 
f 362/500/8 355/501/8 358/498/8 
f 362/500/8 356/502/8 355/501/8 
f 355/501/8 363/503/8 352/504/8 
f 352/504/8 358/498/8 355/501/8 
f 351/505/8 358/498/8 352/504/8 
f 350/506/7 364/507/7 354/508/7 
f 354/508/7 353/509/7 350/506/7 
f 353/509/7 361/510/7 359/511/7 
f 359/511/7 350/506/7 353/509/7 
f 359/511/7 357/512/7 350/506/7 
f 349/513/7 364/507/7 350/506/7 
f 365/514/230 366/515/230 367/516/230 
f 367/516/230 368/517/230 365/514/230 
f 369/518/6 370/519/6 371/520/6 
f 371/520/6 372/521/6 369/518/6 
f 373/522/231 365/514/231 368/517/231 
f 368/517/231 374/523/231 373/522/231 
f 373/522/232 374/523/232 375/524/232 
f 375/524/232 376/525/232 373/522/232 
f 377/526/233 378/527/233 376/528/233 
f 376/528/233 375/529/233 377/526/233 
f 378/527/234 377/526/234 371/520/234 
f 371/520/234 370/519/234 378/527/234 
f 378/530/8 369/531/8 373/532/8 
f 373/532/8 376/533/8 378/530/8 
f 378/530/8 370/534/8 369/531/8 
f 373/532/8 369/531/8 379/535/8 
f 379/535/8 366/536/8 373/532/8 
f 365/537/8 373/532/8 366/536/8 
f 372/538/7 371/539/7 368/540/7 
f 368/540/7 380/541/7 372/538/7 
f 375/542/7 368/540/7 371/539/7 
f 371/539/7 377/543/7 375/542/7 
f 375/542/7 374/544/7 368/540/7 
f 367/545/7 380/541/7 368/540/7 
f 381/546/230 382/547/230 383/548/230 
f 383/548/230 384/549/230 381/546/230 
f 385/550/6 386/551/6 387/552/6 
f 387/552/6 388/553/6 385/550/6 
f 384/549/231 383/548/231 389/554/231 
f 389/554/231 390/555/231 384/549/231 
f 389/554/232 391/556/232 392/557/232 
f 392/557/232 390/555/232 389/554/232 
f 393/558/233 394/559/233 392/560/233 
f 392/560/233 391/561/233 393/558/233 
f 393/558/234 388/553/234 387/552/234 
f 387/552/234 394/559/234 393/558/234 
f 390/562/8 392/563/8 394/564/8 
f 394/564/8 386/565/8 390/562/8 
f 394/564/8 387/566/8 386/565/8 
f 395/567/8 381/568/8 390/562/8 
f 390/562/8 386/565/8 395/567/8 
f 384/569/8 390/562/8 381/568/8 
f 385/570/7 388/571/7 383/572/7 
f 383/572/7 396/573/7 385/570/7 
f 388/571/7 393/574/7 391/575/7 
f 391/575/7 383/572/7 388/571/7 
f 391/575/7 389/576/7 383/572/7 
f 382/577/7 396/573/7 383/572/7 
usemtl Wall_Cream
f 106/118/166 205/180/166 145/158/166 
usemtl Window_HalfRound
f 134/578/6 397/579/6 398/580/6 
f 398/580/6 135/581/6 134/578/6 
usemtl Window_Detail
f 399/117/26 400/118/26 401/118/26 
f 401/118/235 402/117/235 399/117/235 
f 403/144/235 399/117/235 402/117/235 
f 402/117/88 404/144/88 403/144/88 
f 405/143/91 406/143/91 403/144/91 
f 403/144/16 404/144/16 405/143/16 
f 407/143/236 408/141/236 409/141/236 
f 409/141/237 410/143/237 407/143/237 
f 411/141/238 412/140/238 413/140/238 
f 413/140/26 414/141/26 411/141/26 
f 413/140/238 412/140/238 415/146/238 
f 415/146/239 416/146/239 413/140/239 
f 416/146/6 415/146/6 417/145/6 
f 417/145/6 418/145/6 416/146/6 
f 419/582/6 420/583/6 418/145/6 
f 418/145/6 417/145/6 419/582/6 
f 407/143/88 421/142/88 422/139/88 
f 422/139/6 408/141/6 407/143/6 
f 423/584/25 401/118/25 400/118/25 
f 400/118/240 424/585/240 423/584/240 
f 425/180/26 426/180/26 423/584/26 
f 423/584/16 424/585/16 425/180/16 
f 427/138/6 428/138/6 420/583/6 
f 420/583/6 419/582/6 427/138/6 
usemtl Wall_Cream
f 429/117/241 430/117/241 397/118/241 
f 397/118/242 431/118/242 429/117/242 
f 432/144/243 430/117/243 429/117/243 
f 429/117/244 433/144/244 432/144/244 
f 432/144/245 433/144/245 434/143/245 
f 434/143/246 435/143/246 432/144/246 
f 434/143/247 436/141/247 437/141/247 
f 437/141/248 435/143/248 434/143/248 
f 437/141/249 436/141/249 438/140/249 
f 438/140/250 439/140/250 437/141/250 
f 439/140/251 438/140/251 440/146/251 
f 440/146/251 441/146/251 439/140/251 
f 442/145/252 398/145/252 441/146/252 
f 441/146/252 440/146/252 442/145/252 
f 442/145/253 138/586/253 135/586/253 
f 135/586/254 398/145/254 442/145/254 
f 397/118/255 134/587/255 237/587/255 
f 237/587/255 431/118/255 397/118/255 
usemtl Window_Detail
f 105/117/256 402/117/256 401/118/256 
f 401/118/257 106/118/257 105/117/257 
f 105/117/258 131/144/258 404/144/258 
f 404/144/259 402/117/259 105/117/259 
f 131/144/260 130/143/260 405/143/260 
f 405/143/261 404/144/261 131/144/261 
f 405/143/262 130/143/262 129/142/262 
f 129/142/263 443/142/263 405/143/263 
f 126/139/264 444/139/264 443/142/264 
f 443/142/265 129/142/265 126/139/265 
f 444/139/266 126/139/266 128/141/266 
f 128/141/267 411/141/267 444/139/267 
f 128/141/268 127/140/268 412/140/268 
f 412/140/269 411/141/269 128/141/269 
f 127/140/270 133/146/270 415/146/270 
f 415/146/270 412/140/270 127/140/270 
f 417/145/271 415/146/271 133/146/271 
f 133/146/272 132/145/272 417/145/272 
f 132/145/273 125/582/273 419/582/273 
f 419/582/274 417/145/274 132/145/274 
f 445/138/8 427/138/8 419/582/8 
f 419/582/8 125/582/8 445/138/8 
f 428/138/275 427/138/275 445/138/275 
f 445/138/169 446/151/169 428/138/169 
f 428/138/276 446/151/276 138/586/276 
f 138/586/277 420/583/277 428/138/277 
f 418/145/278 420/583/278 138/586/278 
f 138/586/278 442/145/278 418/145/278 
f 418/145/279 442/145/279 440/146/279 
f 440/146/279 416/146/279 418/145/279 
f 438/140/280 413/140/280 416/146/280 
f 416/146/281 440/146/281 438/140/281 
f 438/140/282 436/141/282 414/141/282 
f 414/141/283 413/140/283 438/140/283 
f 447/143/284 410/143/284 409/141/284 
f 409/141/285 448/141/285 447/143/285 
f 403/144/286 406/143/286 434/143/286 
f 434/143/287 433/144/287 403/144/287 
f 403/144/288 433/144/288 429/117/288 
f 429/117/288 399/117/288 403/144/288 
f 429/117/289 431/118/289 400/118/289 
f 400/118/290 399/117/290 429/117/290 
f 400/118/291 431/118/291 237/587/291 
f 237/587/292 424/585/292 400/118/292 
f 237/587/293 449/223/293 425/180/293 
f 425/180/294 424/585/294 237/587/294 
f 449/223/295 450/180/295 426/180/295 
f 426/180/296 425/180/296 449/223/296 
f 426/180/297 450/180/297 205/584/297 
f 205/584/298 423/584/298 426/180/298 
f 205/584/297 106/118/297 401/118/297 
f 401/118/299 423/584/299 205/584/299 
f 448/141/300 436/141/300 434/143/300 
f 434/143/300 447/143/300 448/141/300 
f 406/143/301 410/143/301 447/143/301 
f 447/143/7 434/143/7 406/143/7 
f 406/143/302 405/143/302 407/143/302 
f 407/143/303 410/143/303 406/143/303 
f 443/142/304 421/142/304 407/143/304 
f 407/143/305 405/143/305 443/142/305 
f 444/139/306 422/139/306 421/142/306 
f 421/142/97 443/142/97 444/139/97 
f 408/141/307 422/139/307 444/139/307 
f 444/139/308 411/141/308 408/141/308 
f 408/141/309 411/141/309 414/141/309 
f 414/141/310 409/141/310 408/141/310 
f 414/141/311 436/141/311 448/141/311 
f 448/141/312 409/141/312 414/141/312 
usemtl Window_HalfRound
f 432/588/313 435/589/313 437/590/313 
f 437/590/314 439/591/314 432/588/314 
f 430/592/315 432/588/315 439/591/315 
f 439/591/235 441/593/235 430/592/235 
f 430/592/235 441/593/235 398/580/235 
f 398/580/6 397/579/6 430/592/6 
usemtl Wall_Cream
f 137/116/316 136/115/316 139/118/316 
f 139/118/316 238/196/316 137/116/316 
f 238/196/317 235/194/317 236/195/317 
f 139/118/318 124/107/318 120/106/318 
f 139/118/318 120/106/318 235/194/318 
f 235/194/318 238/196/318 139/118/318 
usemtl Roof_Type1
f 157/594/319 102/595/319 162/596/319 
f 162/596/319 158/597/319 157/594/319 
f 80/598/320 102/595/320 164/599/320 
f 102/595/321 157/594/321 168/600/321 
f 157/594/322 234/601/322 172/602/322 
f 234/601/323 80/598/323 176/603/323 
f 164/599/324 102/595/324 165/604/324 
f 102/595/325 168/600/325 165/604/325 
f 168/600/326 157/594/326 171/605/326 
f 157/594/327 172/602/327 171/605/327 
f 172/602/328 234/601/328 174/606/328 
f 234/601/329 176/603/329 174/606/329 
f 176/603/330 80/598/330 178/607/330 
f 80/598/331 164/599/331 178/607/331 
f 18/608/332 62/609/332 239/610/332 
f 239/610/333 243/611/333 18/608/333 
f 58/612/334 240/613/334 206/614/334 
f 32/615/335 58/612/335 57/616/335 
f 225/617/336 48/618/336 231/619/336 
f 231/619/337 226/620/337 225/617/337 
f 52/621/338 103/622/338 14/623/338 
f 14/623/339 43/624/339 52/621/339 
f 65/625/340 57/616/340 71/626/340 
f 53/627/341 33/628/341 103/622/341 
f 103/622/342 54/629/342 53/627/342 
f 65/625/343 32/615/343 57/616/343 
f 68/630/344 48/618/344 225/617/344 
f 52/621/345 54/629/345 103/622/345 
f 48/618/346 79/631/346 231/619/346 
f 79/631/347 52/621/347 43/624/347 
f 231/619/348 79/631/348 43/624/348 
f 18/608/349 33/628/349 63/632/349 
f 63/632/350 62/609/350 18/608/350 
f 239/610/351 218/633/351 223/634/351 
f 240/613/352 222/635/352 221/636/352 
f 239/610/334 212/637/334 214/638/334 
f 239/610/353 214/638/353 218/633/353 
f 223/634/351 222/635/351 240/613/351 
f 240/613/351 239/610/351 223/634/351 
f 239/610/334 62/609/334 212/637/334 
f 240/613/334 221/636/334 206/614/334 
f 33/628/354 53/627/354 63/632/354 
f 53/627/355 224/639/355 63/632/355 
f 32/615/356 240/613/356 58/612/356 
usemtl White_Paint
f 240/237/6 244/640/6 241/238/6 
f 241/238/6 242/641/6 243/247/6 
f 31/246/357 244/640/357 240/237/357 
f 241/240/201 104/239/201 114/249/201 
f 241/240/201 244/250/201 116/241/201 
f 31/251/358 30/642/358 116/241/358 
f 16/243/7 243/643/7 242/244/7 
f 16/243/7 18/644/7 243/643/7 
usemtl Wall_Cream
f 30/41/359 32/645/359 225/208/359 
usemtl Roof_Type1
f 65/625/360 68/630/360 225/617/360 
f 225/617/361 32/615/361 65/625/361 
# 813 faces

