# 3ds Max Wavefront OBJ Exporter v0.94b - (c)2007 guruware
# File Created: 21.11.2010 10:05:25

mtllib Wismari7_2.mtl

#
# object W7_BuildingA01
#

v  -434.7582 -532.5460 28.6473
v  -431.1251 -531.5110 30.1233
v  -436.1033 -514.1742 30.1233
v  -434.9144 -531.9974 28.6473
v  -435.6165 -529.5330 28.6473
v  -436.0049 -528.1693 28.6473
v  -436.6541 -525.8904 28.6473
v  -436.7636 -525.5058 28.6473
v  -436.9881 -524.7178 28.6473
v  -437.3946 -523.2906 28.6473
v  -437.7404 -522.0768 28.6473
v  -438.5717 -519.1584 28.6473
v  -438.8940 -518.0272 28.6473
v  -439.4819 -515.9632 28.6473
v  -439.8035 -514.8342 28.6473
v  -439.9618 -514.2786 28.6473
v  -440.2531 -513.2559 28.6473
v  -440.5818 -512.1018 28.6473
v  -427.4920 -530.4761 24.5961
v  -427.4920 -530.4761 28.3839
v  -425.4469 -537.6557 28.3839
v  -425.4469 -537.6557 24.9496
v  -435.8016 -510.7401 27.7905
v  -435.8016 -510.7401 28.3840
v  -433.3157 -510.0320 28.3840
v  -435.8016 -510.7401 24.7700
v  -435.8016 -510.7401 24.3128
v  -433.3157 -510.0320 24.3128
v  -440.5818 -512.1018 24.3128
v  -440.5818 -512.1018 28.3840
v  -438.1693 -511.4146 28.3840
v  -438.1693 -511.4146 27.7905
v  -438.1693 -511.4146 27.4649
v  -438.1693 -511.4146 24.7700
v  -438.1693 -511.4146 24.3128
v  -438.9644 -508.6235 26.7860
v  -438.4537 -508.4780 26.7860
v  -438.4537 -508.4780 24.7700
v  -438.9644 -508.6235 24.7700
v  -436.9854 -511.0774 28.3840
v  -436.9854 -511.0774 28.2797
v  -438.3457 -511.4648 27.7905
v  -439.0616 -508.9520 27.7905
v  -439.0616 -508.9520 27.4649
v  -438.3457 -511.4648 27.4649
v  -437.7013 -508.5645 28.2797
v  -438.8851 -508.9017 27.7905
v  -436.5174 -508.2273 27.7905
v  -436.5174 -508.2273 24.7700
v  -432.7130 -539.7255 28.6473
v  -429.0800 -538.6906 30.1233
v  -434.5253 -532.7260 27.0081
v  -434.5253 -532.7260 28.1563
v  -434.5955 -532.4996 28.1563
v  -434.5253 -532.7260 24.7729
v  -434.5955 -532.4996 24.5961
v  -432.7130 -539.7255 28.1563
v  -432.7130 -539.7255 28.3839
v  -434.7582 -532.5460 28.3839
v  -434.7582 -532.5460 28.1563
v  -433.8838 -534.9780 28.1563
v  -433.3576 -536.8254 28.1563
v  -432.6931 -539.1580 28.1563
v  -432.3958 -539.6351 28.1563
v  -434.7582 -532.5460 24.5961
v  -433.7773 -534.9476 24.8612
v  -433.7773 -534.9476 27.0523
v  -434.4188 -532.6956 27.0081
v  -434.4188 -532.6956 24.7729
v  -433.3576 -536.8254 24.8833
v  -433.3576 -536.8254 27.0634
v  -433.8838 -534.9780 27.0523
v  -433.8838 -534.9780 24.8612
v  -432.3958 -539.6351 24.9496
v  -432.6931 -539.1580 27.0744
v  -432.6931 -539.1580 24.9054
v  -432.5866 -539.1276 24.9054
v  -432.5866 -539.1276 27.0744
v  -433.2510 -536.7950 27.0634
v  -433.2510 -536.7950 24.8833
v  -440.4834 -513.3234 28.3835
v  -440.4839 -513.3217 28.6473
v  -440.7916 -511.9852 28.6473
v  -440.7916 -511.9851 28.3840
v  -434.9890 -532.6117 28.3839
v  -432.9438 -539.7913 28.3839
v  -432.9438 -539.7913 28.6473
v  -434.9890 -532.6117 28.6473
v  -425.4469 -537.6557 28.6473
v  -427.4920 -530.4761 28.6473
v  -433.3157 -510.0320 28.6473
v  -436.9866 -511.0732 28.6469
v  -434.9132 -532.0018 24.5822
v  -434.9131 -532.0022 28.3839
v  -434.9007 -532.0457 27.0343
v  -434.8051 -531.9711 24.5822
v  -434.7927 -532.0149 27.0343
v  -435.4937 -529.5541 27.0343
v  -435.5061 -529.5103 24.5822
v  -435.6017 -529.5848 27.0343
v  -435.6141 -529.5414 28.3839
v  -436.0063 -528.1646 28.3556
v  -435.6142 -529.5410 24.5822
v  -436.0063 -528.1646 27.0440
v  -436.0063 -528.1646 24.4783
v  -435.8982 -528.1337 24.4783
v  -435.8982 -528.1337 27.0440
v  -436.5481 -525.8525 27.0493
v  -436.5481 -525.8525 24.4747
v  -437.3961 -523.2855 24.7352
v  -437.7404 -522.0766 24.7220
v  -437.7404 -522.0766 24.6935
v  -437.3961 -523.2855 24.7088
v  -436.6561 -525.8833 27.0493
v  -436.6561 -525.8833 28.3698
v  -436.7671 -525.4937 28.3715
v  -436.6561 -525.8833 24.4747
v  -436.7671 -525.4937 27.3766
v  -436.7671 -525.4937 26.0238
v  -436.7671 -525.4937 24.4554
v  -436.9854 -524.7274 26.0088
v  -436.9854 -524.7274 24.4348
v  -438.5731 -519.1536 24.3564
v  -438.5731 -519.1536 25.4324
v  -438.8957 -518.0211 25.4265
v  -438.8957 -518.0211 24.3484
v  -438.8957 -518.0211 27.3280
v  -438.8957 -518.0211 28.3808
v  -439.4832 -515.9587 28.3821
v  -439.4832 -515.9587 27.3521
v  -439.4832 -515.9587 25.4008
v  -439.4832 -515.9587 24.3338
v  -439.8060 -514.8256 25.3966
v  -439.8060 -514.8256 24.3280
v  -439.9625 -514.2760 24.7348
v  -440.2526 -513.2576 24.7308
v  -440.2526 -513.2576 24.7011
v  -439.9625 -514.2760 24.7011
v  -438.5731 -519.1536 28.3801
v  -438.5731 -519.1536 27.3317
v  -439.8060 -514.8256 28.3826
v  -439.8060 -514.8256 27.3494
v  -439.9625 -514.2760 28.3830
v  -440.2526 -513.2576 28.3835
v  -440.2526 -513.2576 27.3756
v  -439.9625 -514.2760 27.3782
v  -437.3961 -523.2855 28.3757
v  -437.7404 -522.0766 28.3773
v  -437.7404 -522.0766 27.3774
v  -437.3961 -523.2855 27.3856
v  -436.9854 -524.7274 28.3733
v  -436.9854 -524.7274 27.3672
v  -436.6230 -525.4527 26.0238
v  -436.6230 -525.4527 27.3766
v  -436.8413 -524.6863 27.3672
v  -436.8413 -524.6863 26.0088
v  -437.7805 -508.2863 28.2797
v  -436.5966 -507.9490 27.7905
v  -436.5966 -507.9490 26.7860
v  -438.9644 -508.6235 27.7905
v  -437.1073 -508.0945 26.7860
v  -438.9644 -508.6235 27.4649
v  -436.5966 -507.9490 24.7700
v  -437.1073 -508.0945 24.7700
v  -438.3848 -508.7200 26.7860
v  -437.0384 -508.3364 26.7860
v  -437.0384 -508.3364 24.7700
v  -438.3848 -508.7200 24.7700
v  -430.5850 -519.6182 24.4457
v  -440.3896 -512.7768 24.3160
v  -440.3897 -512.7764 24.5253
v  -440.3182 -513.0273 24.7011
v  -440.3182 -513.0273 24.5253
v  -440.5365 -513.0895 24.5253
v  -440.4709 -513.3198 24.5253
v  -440.4709 -513.3198 24.7011
v  -440.5365 -513.0895 24.7011
v  -440.1808 -514.3382 24.5253
v  -440.1808 -514.3382 24.7011
v  -439.9045 -514.4797 24.7011
v  -439.8224 -514.7680 24.5253
v  -439.9045 -514.4797 24.5253
v  -439.8224 -514.7680 24.3276
v  -440.1228 -514.5419 24.5253
v  -440.1228 -514.5419 24.7011
v  -440.0406 -514.8301 24.5253
v  -440.0406 -514.8301 24.3276
v  -440.6080 -512.8386 24.5253
v  -440.6078 -512.8390 24.3160
v  -440.7500 -513.1503 24.5253
v  -440.8215 -512.8994 24.5253
v  -440.8214 -512.8998 24.3160
v  -440.6844 -513.3806 24.3183
v  -440.6844 -513.3806 24.5253
v  -440.3943 -514.3990 24.3238
v  -440.3943 -514.3990 24.5253
v  -440.2542 -514.8910 24.3276
v  -440.2542 -514.8910 24.5253
v  -440.3363 -514.6027 24.5253
v  -437.8539 -521.6782 24.3849
v  -437.8539 -521.6782 24.6886
v  -438.4052 -521.8353 24.6886
v  -438.4052 -521.8353 24.3849
v  -438.2917 -522.2336 24.3895
v  -438.2917 -522.2336 24.6935
v  -437.9473 -523.4426 24.4075
v  -437.9473 -523.4426 24.7088
v  -437.2620 -523.7562 24.7147
v  -437.2620 -523.7562 24.4165
v  -437.8133 -523.9131 24.4165
v  -437.8133 -523.9131 24.7147
v  -433.3812 -509.8011 28.6473
v  -433.3814 -509.8012 28.3840
v  -435.8672 -510.5093 28.3820
v  -437.0512 -510.8466 28.3801
v  -437.0524 -510.8425 28.6430
v  -438.2352 -511.1838 28.3820
v  -436.8869 -525.9490 28.3698
v  -436.8849 -525.9562 28.6473
v  -436.9944 -525.5716 28.6473
v  -436.9979 -525.5595 28.3715
v  -436.2371 -528.2303 28.3556
v  -436.2357 -528.2350 28.6473
v  -435.8449 -529.6071 28.3839
v  -435.8473 -529.5988 28.6473
v  -435.1439 -532.0680 28.3839
v  -435.1453 -532.0632 28.6473
v  -437.2189 -524.7836 28.6473
v  -437.2162 -524.7932 28.3733
v  -437.6255 -523.3564 28.6473
v  -437.6269 -523.3513 28.3757
v  -437.9712 -522.1426 28.6473
v  -437.9713 -522.1424 28.3773
v  -438.8026 -519.2242 28.6473
v  -438.8039 -519.2194 28.3801
v  -439.1248 -518.0930 28.6473
v  -439.1265 -518.0869 28.3808
v  -439.7127 -516.0289 28.6473
v  -439.7140 -516.0244 28.3821
v  -440.0343 -514.9000 28.6473
v  -440.0368 -514.8913 28.3826
v  -440.1926 -514.3443 28.6473
v  -440.1933 -514.3418 28.3830
v  -438.5632 -518.0200 25.5170
v  -438.2899 -518.9794 25.5219
v  -438.2899 -518.9794 27.2414
v  -438.5632 -518.0200 27.2383
v  -439.4735 -514.8244 25.4869
v  -439.2000 -515.7844 25.4905
v  -439.2000 -515.7844 27.2619
v  -439.4735 -514.8244 27.2596
v  -438.8710 -518.1077 27.2383
v  -438.5977 -519.0671 27.2414
v  -438.8710 -518.1077 25.5170
v  -438.5977 -519.0671 25.5219
v  -439.7813 -514.9121 27.2596
v  -439.5078 -515.8721 27.2619
v  -439.7813 -514.9121 25.4869
v  -439.5078 -515.8721 25.4905
v  -440.0850 -513.3035 24.7589
v  -439.8442 -514.1487 24.7623
v  -439.8442 -514.1487 27.2879
v  -440.0850 -513.3035 27.2858
v  -437.5729 -522.1225 27.2880
v  -437.5729 -522.1225 24.7507
v  -437.2778 -523.1583 24.7620
v  -437.2778 -523.1583 27.2950
v  -440.2280 -513.3442 27.2858
v  -439.9872 -514.1895 27.2879
v  -440.2280 -513.3442 24.7589
v  -439.9872 -514.1895 24.7623
v  -437.7158 -522.1632 27.2880
v  -437.4207 -523.1990 27.2950
v  -437.7158 -522.1632 24.7507
v  -437.4207 -523.1990 24.7620
v  -439.1408 -508.6738 27.7905
v  -439.1408 -508.6738 27.4649
v  -437.7805 -508.2863 28.7688
v  -438.9644 -508.6235 28.2796
v  -438.8851 -508.9017 28.2796
v  -437.7013 -508.5645 28.7688
v  -436.5966 -507.9490 28.2796
v  -436.5174 -508.2273 28.2796
v  -438.8851 -508.9017 24.7700
v  -438.8851 -508.9017 27.4649
v  -433.2932 -520.4027 30.3758
v  -433.9070 -520.6014 30.3765
v  -433.7625 -521.0758 30.3692
v  -433.1487 -520.8770 30.3685
v  -433.0581 -520.9568 31.4534
v  -433.7914 -521.1942 31.4542
v  -433.8096 -521.1414 28.8336
v  -433.0764 -520.9039 28.8328
v  -433.2538 -520.3144 31.4633
v  -433.2721 -520.2615 28.8427
v  -433.9871 -520.5518 31.4641
v  -434.0053 -520.4990 28.8436
v  -433.1434 -520.8922 31.4548
v  -433.7572 -521.0909 31.4555
v  -433.2879 -520.4178 31.4621
v  -433.9017 -520.6166 31.4628
v  -435.3841 -516.7686 30.5147
v  -435.5320 -516.2952 30.5220
v  -436.3934 -516.5645 30.5226
v  -436.2455 -517.0379 30.5153
v  -435.1993 -516.8349 28.9190
v  -435.1897 -516.8615 30.2574
v  -436.3535 -517.2253 30.2584
v  -436.3635 -517.1989 28.9199
v  -435.4421 -516.0590 28.9318
v  -435.4321 -516.0854 30.2703
v  -436.6058 -516.4228 28.9329
v  -436.5963 -516.4494 30.2713
v  -435.3785 -516.7836 31.6009
v  -436.2399 -517.0529 31.6016
v  -436.2975 -517.1629 31.6004
v  -435.2685 -516.8412 31.5996
v  -435.5265 -516.3102 31.6082
v  -435.4689 -516.2002 31.6095
v  -436.3879 -516.5795 31.6089
v  -436.4979 -516.5219 31.6103
v  -436.3072 -517.1367 30.3183
v  -435.2782 -516.8149 30.3175
v  -435.4786 -516.1739 30.3273
v  -436.5076 -516.4956 30.3282
# 325 vertices

vt 5.9481 -0.2555 0.0005
vt 5.9481 0.5000 0.9995
vt -3.0706 0.4924 0.9995
vt 5.6629 -0.2555 0.0005
vt 4.3817 -0.2555 0.0005
vt 3.6727 -0.2555 0.0005
vt 2.4879 -0.2555 0.0005
vt 2.2880 -0.2555 0.0005
vt 1.8783 -0.2555 0.0005
vt 1.1363 -0.2555 0.0005
vt 0.5053 -0.2555 0.0005
vt -1.0120 -0.2555 0.0005
vt -1.6001 -0.2555 0.0005
vt -2.6732 -0.2555 0.0005
vt -3.2601 -0.2555 0.0005
vt -3.5490 -0.2555 0.0005
vt -4.0807 -0.2555 0.0005
vt -4.6806 -0.2555 0.0005
vt -1.1694 0.1232 1.3128
vt -1.1694 0.8808 1.3128
vt -2.6625 0.8808 1.3128
vt -2.6625 0.1939 1.3128
vt 0.2041 0.7621 -2.0820
vt 0.2041 0.8808 -2.0820
vt -0.3128 0.8808 -2.0820
vt 0.2041 0.1580 -2.0820
vt 0.2041 0.0665 -2.0820
vt -0.3128 0.0665 -2.0820
vt 1.1982 0.0665 -2.0820
vt 1.1982 0.8808 -2.0820
vt 0.6965 0.8808 -2.0820
vt 0.6965 0.7621 -2.0820
vt 0.6965 0.6890 -2.0820
vt 0.6965 0.1580 -2.0820
vt 0.6965 0.0665 -2.0820
vt 0.6965 0.5612 -2.6625
vt 0.5903 0.5612 -2.6625
vt 0.5903 0.1580 -2.6625
vt 0.6965 0.1580 -2.6625
vt 0.4503 0.8808 -2.0820
vt 0.4503 0.8599 -2.0820
vt 1.9691 0.9995 0.9995
vt -0.6762 0.9995 0.9995
vt -0.6762 0.0005 0.9995
vt 1.9691 0.0005 0.9995
vt 3.3709 0.5000 0.9995
vt 1.6291 0.5000 0.9995
vt 1.6291 0.2538 0.0005
vt 3.3709 0.2538 0.0005
vt 3.3709 0.7462 0.0005
vt 1.6291 0.7462 0.0005
vt 3.0820 0.1580 0.7959
vt 3.3723 0.1580 0.7959
vt 3.3723 0.7621 0.7959
vt 3.0820 0.7621 0.7959
vt 9.6806 -0.2555 0.0005
vt 9.6806 0.5000 0.9995
vt 2.2168 0.6056 -0.1322
vt 2.2168 0.8353 -0.1322
vt 2.1694 0.8353 -0.1322
vt 2.2168 0.1586 -0.1322
vt 2.1694 0.1232 -0.1322
vt 3.6625 0.8353 -0.1982
vt 3.6625 0.8808 -0.1982
vt 2.1694 0.8808 -0.1982
vt 2.1694 0.8353 -0.1982
vt -2.6625 -0.1982 0.8353
vt -1.1694 -0.1982 0.8353
vt -1.1694 -0.1322 0.8353
vt -1.2168 -0.1322 0.8353
vt -1.6851 -0.1322 0.8353
vt -2.0693 -0.1322 0.8353
vt -2.5544 -0.1322 0.8353
vt -2.6625 -0.1322 0.8353
vt -0.1982 0.8353 2.1694
vt -0.1982 0.1232 2.1694
vt -0.1322 0.1232 2.1694
vt -0.1322 0.8353 2.1694
vt 1.0000 0.0000 0.0000
vt 1.0000 1.0000 0.0000
vt 0.0000 1.0000 0.0000
vt 0.0000 0.0000 0.0000
vt 3.0693 0.1807 -0.1322
vt 3.0693 0.6167 -0.1322
vt 2.6851 0.6144 -0.1322
vt 2.6851 0.1762 -0.1322
vt 3.6625 0.1939 -0.1322
vt 3.6625 0.8353 -0.1322
vt 3.5544 0.8353 -0.1322
vt 3.5544 0.6189 -0.1322
vt 3.5544 0.1851 -0.1322
vt 2.6851 0.8353 -0.1322
vt 3.0693 0.8353 -0.1322
vt 13.5374 0.0959 0.9995
vt 13.5392 0.9995 0.9995
vt 14.9088 0.9995 0.9905
vt 14.9089 0.0975 0.9905
vt -6.5183 0.0975 0.9995
vt -13.9834 0.0975 0.9995
vt -13.9834 0.9995 0.9995
vt -6.5183 0.9995 0.9995
vt -0.1982 0.8808 3.6625
vt 1.3128 0.8808 3.6625
vt 1.3128 0.9335 3.6625
vt 0.5573 0.9335 3.6625
vt -0.1982 0.9335 3.6625
vt -1.1694 0.9335 1.3128
vt -2.6625 0.9335 1.3128
vt 3.0820 0.8808 1.3128
vt 3.0820 0.9335 1.3128
vt 0.3400 0.1776 0.0005
vt 0.3400 0.8224 0.9995
vt -1.6307 0.1784 0.0008
vt 2.2712 0.1784 0.0008
vt 2.0563 0.1204 -0.1982
vt 2.1694 0.1232 -0.1982
vt 2.0564 0.8808 -0.1982
vt 2.0654 0.6109 -0.1982
vt 1.5537 0.6109 -0.1982
vt 1.5446 0.8808 -0.1982
vt 1.2583 0.8751 -0.1982
vt 1.5445 0.1204 -0.1982
vt 1.2583 0.6128 -0.1982
vt 1.2583 0.0996 -0.1982
vt 0.2437 0.1510 -0.1982
vt -0.0077 0.1484 -0.1982
vt -0.0077 0.1427 -0.1982
vt 0.2437 0.1457 -0.1982
vt 0.7839 0.6138 -0.1982
vt 0.7839 0.8779 -0.1982
vt 0.7029 0.8783 -0.1982
vt 0.7839 0.0989 -0.1982
vt 0.7029 0.6793 -0.1982
vt 0.7029 0.4087 -0.1982
vt 0.7029 0.0951 -0.1982
vt 0.5435 0.4057 -0.1982
vt 0.5435 0.0909 -0.1982
vt -0.6156 0.0753 -0.1982
vt -0.6156 0.2905 -0.1982
vt -0.8511 0.2893 -0.1982
vt -0.8511 0.0737 -0.1982
vt -0.8511 0.6696 -0.1982
vt -0.8511 0.8802 -0.1982
vt -1.2800 0.8804 -0.1982
vt -1.2800 0.6744 -0.1982
vt -1.2800 0.2841 -0.1982
vt -1.2800 0.0707 -0.1982
vt -1.5156 0.2833 -0.1982
vt -1.5156 0.0696 -0.1982
vt -1.6299 0.1510 -0.1982
vt -1.8417 0.1501 -0.1982
vt -1.8417 0.1442 -0.1982
vt -1.6299 0.1442 -0.1982
vt -0.6156 0.8800 -0.1982
vt -0.6156 0.6703 -0.1982
vt -1.5156 0.8805 -0.1982
vt -1.5156 0.6739 -0.1982
vt -1.6299 0.8806 -0.1982
vt -1.8417 0.8807 -0.1982
vt -1.8417 0.6791 -0.1982
vt -1.6299 0.6796 -0.1982
vt 0.2437 0.8791 -0.1982
vt -0.0077 0.8794 -0.1982
vt -0.0077 0.6795 -0.1982
vt 0.2437 0.6811 -0.1982
vt 0.5435 0.8786 -0.1982
vt 0.5435 0.6774 -0.1982
vt 0.9995 0.2671 -0.5000
vt 0.9995 0.7381 -1.5000
vt 0.0005 0.7349 -0.5000
vt 0.0005 0.2619 0.5000
vt 0.4503 0.8599 -2.6625
vt 0.2041 0.7621 -2.6625
vt 0.2041 0.5612 -2.6625
vt 0.6965 0.7621 -2.6625
vt 0.3103 0.5612 -2.6625
vt 0.6965 0.7015 -2.6625
vt 0.2041 0.1580 -2.6625
vt 0.3103 0.1580 -2.6625
vt 1.0018 0.7995 0.5000
vt 0.4859 0.7995 0.5000
vt 0.4859 0.0206 0.5000
vt 1.0018 0.0206 0.5000
vt 3.6625 0.1580 0.4097
vt 3.6625 0.5612 0.4097
vt 3.6122 0.5612 0.4097
vt 3.6122 0.1580 0.4097
vt 3.6625 0.4097 0.5612
vt 3.6625 0.6897 0.5612
vt 3.6122 0.6897 0.5612
vt 3.6122 0.4097 0.5612
vt -2.6625 0.5612 0.6897
vt -2.6625 0.1580 0.6897
vt -2.6122 0.1580 0.6897
vt -2.6122 0.5612 0.6897
vt 1.0885 0.0931 1.3128
vt 3.0820 0.0665 1.3128
vt -2.0820 0.0665 -0.1982
vt -1.9417 0.0672 -0.1982
vt -1.9418 0.1090 -0.1982
vt -1.8896 0.1442 -0.1982
vt -1.8896 0.1090 -0.1982
vt -2.0820 0.8808 -0.1982
vt -10.3948 0.5199 0.6192
vt -9.9158 0.5199 0.6192
vt -9.9158 0.8715 0.6192
vt -10.3948 0.8715 0.6192
vt -7.7980 0.5199 0.6192
vt -7.7980 0.8715 0.6192
vt -1.5876 0.1442 -0.1982
vt -1.5276 0.1090 -0.1982
vt -1.5876 0.1090 -0.1982
vt -1.5276 0.0695 -0.1982
vt -7.3745 0.5199 0.6192
vt -7.3745 0.8715 0.6192
vt 1.0732 0.1245 -6.7749
vt 1.0732 0.5199 -6.7749
vt 0.6192 0.5199 -6.7749
vt 0.6192 0.1245 -6.7749
vt -6.7749 1.0732 0.5199
vt -7.3745 1.0732 0.5199
vt -7.3745 0.6192 0.5199
vt -6.7749 0.6192 0.5199
vt 1.0732 0.5199 -7.3745
vt 1.0732 0.8715 -7.3745
vt 0.6192 0.8715 -7.3745
vt 0.6192 0.5199 -7.3745
vt -7.3745 1.0732 0.8715
vt -7.7980 1.0732 0.8715
vt -7.7980 0.6192 0.8715
vt -7.3745 0.6192 0.8715
vt -9.9158 1.0732 0.8715
vt -9.9158 0.6192 0.8715
vt -10.3948 1.0731 0.8715
vt -10.3948 0.6192 0.8715
vt -0.0731 0.8715 -10.3948
vt -0.0731 0.5199 -10.3948
vt 0.3808 0.5199 -10.3948
vt 0.3808 0.8715 -10.3948
vt -10.3948 1.0731 0.5199
vt -10.9165 1.0731 0.5199
vt -10.9165 0.6192 0.5199
vt -10.3948 0.6192 0.5199
vt -0.0731 0.5199 -10.9165
vt -0.0732 0.1013 -10.9157
vt 0.3808 0.1013 -10.9157
vt 0.3808 0.5199 -10.9165
vt -10.3948 0.5199 0.1752
vt -10.9165 0.5199 0.1752
vt -10.9157 0.1013 0.1752
vt -9.9158 0.1058 0.1752
vt -9.9158 0.5199 0.1752
vt -7.7980 0.1169 0.1752
vt -7.7980 0.5199 0.1752
vt -6.7749 0.1245 0.1752
vt -6.7749 0.5199 0.1752
vt -7.3745 0.5199 0.1752
vt 0.1752 0.5199 -6.7749
vt 0.1752 0.1245 -6.7749
vt -7.3745 0.1752 0.5199
vt -6.7749 0.1752 0.5199
vt -7.7980 0.6192 0.5199
vt -7.7980 0.1752 0.5199
vt -9.9158 0.6192 0.5199
vt -9.9158 0.1752 0.5199
vt -10.3948 0.1752 0.5199
vt -10.9165 0.1752 0.5199
vt 0.8248 0.1013 -10.9157
vt 0.8248 0.5199 -10.9165
vt -0.0906 0.0810 -0.1982
vt -0.0906 0.1417 -0.1982
vt 7.5954 0.8465 -0.0732
vt 7.5954 0.2390 -0.0732
vt 8.4239 0.2482 -0.0732
vt 8.4239 0.8563 -0.0732
vt 10.9379 0.2844 -0.0732
vt 10.9379 0.8869 -0.0732
vt 0.3415 0.1469 -0.1982
vt 0.3415 0.0873 -0.1982
vt 11.9165 0.3023 -0.0732
vt 11.9165 0.8987 -0.0732
vt 1.0732 0.3023 11.9165
vt 1.0732 0.8987 11.9165
vt -0.0732 0.8987 11.9165
vt -0.0732 0.3023 11.9165
vt 11.9165 1.0732 0.8987
vt 10.9379 1.0732 0.8869
vt 10.9379 -0.0732 0.8869
vt 11.9165 -0.0732 0.8987
vt 8.4239 1.0732 0.8563
vt 8.4239 -0.0732 0.8563
vt 7.5954 1.0732 0.8465
vt 7.5954 -0.0732 0.8465
vt -0.0732 0.8465 7.5954
vt -0.0732 0.2390 7.5954
vt 1.0732 0.2390 7.5954
vt 1.0732 0.8465 7.5954
vt 1.1982 0.1204 2.0563
vt 1.1982 0.6109 2.0654
vt 1.1757 0.6109 2.0654
vt 1.1757 0.1204 2.0563
vt -1.0654 -0.1982 0.6109
vt -0.5537 -0.1982 0.6109
vt -0.5537 -0.1757 0.6109
vt -1.0654 -0.1757 0.6109
vt -0.1982 0.6109 1.5537
vt -0.1982 0.1204 1.5445
vt -0.1757 0.1204 1.5445
vt -0.1757 0.6109 1.5537
vt 1.1982 0.0996 1.2583
vt 1.1982 0.6128 1.2583
vt 1.1757 0.6128 1.2583
vt 1.1757 0.0996 1.2583
vt -0.2583 -0.1982 0.6128
vt 0.2161 -0.1982 0.6138
vt 0.2161 -0.1757 0.6138
vt -0.2583 -0.1757 0.6128
vt -0.1982 0.6138 0.7839
vt -0.1982 0.0989 0.7839
vt -0.1757 0.0989 0.7839
vt -0.1757 0.6138 0.7839
vt 0.2971 -0.1982 0.6793
vt 0.4565 -0.1982 0.6774
vt 0.4565 -0.1682 0.6774
vt 0.2971 -0.1682 0.6793
vt -0.1982 0.6774 0.5435
vt -0.1982 0.4057 0.5435
vt -0.1682 0.4057 0.5435
vt -0.1682 0.6774 0.5435
vt 0.5435 -0.1982 0.4057
vt 0.7029 -0.1982 0.4087
vt 0.7029 -0.1682 0.4087
vt 0.5435 -0.1682 0.4057
vt 1.1982 0.4087 0.7029
vt 1.1982 0.6793 0.7029
vt 1.1682 0.6793 0.7029
vt 1.1682 0.4087 0.7029
vt -2.6625 0.5497 0.8599
vt -2.6625 0.7621 0.3035
vt 2.1694 1.3128 0.9335
vt -2.0820 0.3035 0.9335
vt 9.6806 1.2555 0.0005
vt 5.9481 1.2555 0.0005
vt -4.6806 1.2555 0.0005
vt 14.9792 0.9995 0.0005
vt 14.9792 0.0975 0.0005
vt 14.9792 0.0909 0.3318
vt 14.9791 0.0842 0.4895
vt 14.9834 0.9847 0.4895
vt 14.9792 0.0909 0.6473
vt 0.4094 0.0490 0.9995
vt 0.4020 0.9995 0.9995
vt 0.8019 0.9995 0.9995
vt 0.8145 0.0548 0.9995
vt -1.9625 0.0005 0.9995
vt -1.9675 0.9995 0.9995
vt -3.3941 0.0975 0.9995
vt -3.3855 0.9995 0.9995
vt -5.9529 0.0975 0.9995
vt -5.9479 0.9995 0.9995
vt 1.6213 0.9995 0.9995
vt 1.6113 0.0610 0.9995
vt 3.1053 0.9995 0.9995
vt 3.1106 0.0692 0.9995
vt 4.3673 0.9995 0.9995
vt 4.3676 0.0746 0.9995
vt 7.4019 0.9995 0.9995
vt 7.4069 0.0845 0.9995
vt 8.5781 0.9995 0.9995
vt 8.5844 0.0869 0.9995
vt 10.7242 0.9995 0.9995
vt 10.7289 0.0913 0.9995
vt 11.8980 0.9995 0.9995
vt 11.9071 0.0930 0.9995
vt 12.4758 0.9995 0.9995
vt 12.4785 0.0942 0.9995
vt 14.7392 0.0975 0.9687
vt 13.5374 0.0959 0.9687
vt 12.4785 0.0942 0.9687
vt 11.9071 0.0930 0.9687
vt 10.7289 0.0913 0.9687
vt 8.5844 0.0869 0.9687
vt 7.4069 0.0845 0.9687
vt 4.3676 0.0746 0.9687
vt 3.1106 0.0692 0.9687
vt 1.6113 0.0610 0.9687
vt 0.8145 0.0548 0.9687
vt 0.4094 0.0490 0.9687
vt -1.9625 0.0005 0.9687
vt -3.3941 0.0975 0.9687
vt -5.9529 0.0975 0.9687
vt -6.5183 0.0975 0.9687
vt -13.9834 0.0975 0.9687
vt -13.9834 0.9995 0.9687
vt -6.5183 0.9995 0.9687
vt -5.9479 0.9995 0.9687
vt -3.3855 0.9995 0.9687
vt -1.9675 0.9995 0.9687
vt 0.4020 0.9995 0.9687
vt 0.8019 0.9995 0.9687
vt 1.6213 0.9995 0.9687
vt 3.1053 0.9995 0.9687
vt 4.3673 0.9995 0.9687
vt 7.4019 0.9995 0.9687
vt 8.5781 0.9995 0.9687
vt 10.7242 0.9995 0.9687
vt 11.8980 0.9995 0.9687
vt 12.4758 0.9995 0.9687
vt 13.5392 0.9995 0.9687
vt 14.7392 0.9995 0.9687
vt 14.7434 0.9980 0.4895
vt 14.7392 0.9995 0.0005
vt 14.7392 0.0975 0.0005
vt 14.7392 0.0975 0.3318
vt 14.7392 0.0975 0.4895
vt 14.7392 0.0975 0.6473
vt 0.0005 0.0005 3.5000
vt 0.9995 0.0034 1.5000
vt 0.9995 0.9995 1.5000
vt 0.0005 0.9977 3.5000
vt 0.0005 0.0005 0.5000
vt 0.9995 0.0025 0.5000
vt 0.9995 0.9995 0.5000
vt 0.0005 0.9983 0.5000
vt -0.0026 0.0005 1.0000
vt 0.5242 0.0018 1.0000
vt 0.5242 0.9995 0.0000
vt -0.0026 0.9987 0.0000
vt 0.0164 0.9967 0.5000
vt 0.0164 0.0005 2.0000
vt 0.5335 0.0049 0.5000
vt 0.5335 0.9995 -0.5000
vt -0.9691 0.9995 0.9995
vt -0.9691 0.0005 0.9995
vt -2.6625 0.3035 0.7621
vt -2.3723 0.3035 0.7621
vt -2.3723 0.5497 0.8599
vt -2.6625 0.7959 0.7621
vt -2.3723 0.7959 0.7621
vt 3.6625 0.1580 0.7959
vt 3.6625 0.5612 0.7959
vt 3.6625 0.7621 0.7959
vt -2.6625 0.5612 0.3035
vt -2.6625 0.1580 0.3035
vt -2.3723 0.1580 0.3035
vt -2.6625 0.7015 0.3035
vt -2.3723 0.7003 0.3035
vt -2.0820 0.1580 0.3035
vt -2.0820 0.6890 0.3035
vt -2.3723 0.7621 0.3035
vt 1.9691 0.9995 0.0005
vt -0.6762 0.9995 0.0005
vt -0.9691 0.9995 0.0005
vt -0.9691 0.0005 0.0005
vt -0.6762 0.0005 0.0005
vt 1.9691 0.0005 0.0005
vt 1.7675 1.9307 1.1110
vt 1.7760 1.3369 1.1114
vt 1.9597 1.3453 1.1062
vt 1.9512 1.9390 1.1057
vt 1.9990 1.8862 1.9888
vt 1.2898 1.8867 1.9990
vt 1.2869 0.0016 1.9783
vt 1.9962 0.0010 1.9681
vt 0.2600 1.8933 1.9877
vt 0.0112 1.8862 1.9990
vt 0.0319 0.0010 1.9962
vt 0.2807 0.0081 1.9849
vt 0.7215 1.8939 1.7502
vt 0.0123 1.8933 1.7400
vt 0.0151 0.0081 1.7193
vt 0.7243 0.0088 1.7295
vt 1.9990 1.8867 1.2898
vt 1.7502 1.8939 1.2785
vt 1.7295 0.0088 1.2757
vt 1.9783 0.0016 1.2869
vt 1.9571 1.9398 1.8871
vt 1.9656 1.3461 1.8876
vt 1.9990 1.2898 1.8867
vt 1.9888 1.9990 1.8862
vt 1.7734 1.9315 1.8924
vt 1.7400 1.9877 1.8933
vt 1.7819 1.3377 1.8929
vt 1.7502 1.2785 1.8939
vt 0.0610 1.1057 1.9512
vt 0.6547 1.1062 1.9597
vt 0.6539 1.8876 1.9656
vt 0.0602 1.8871 1.9571
vt 1.7675 1.1110 1.9307
vt 1.9512 1.1057 1.9390
vt 1.9571 1.8871 1.9398
vt 1.7734 1.8924 1.9315
vt 1.3369 1.1114 1.7760
vt 1.9307 1.1110 1.7675
vt 1.9315 1.8924 1.7734
vt 1.3377 1.8929 1.7819
vt 0.0403 1.1062 1.3453
vt 0.2240 1.1114 1.3369
vt 0.2181 1.8929 1.3377
vt 0.0344 1.8876 1.3461
vt 0.2598 0.9957 1.2109
vt 0.0761 0.9841 1.2161
vt 0.0846 0.1533 1.2166
vt 0.2684 0.1650 1.2113
vt 1.1427 0.0630 0.3022
vt 1.1444 1.0258 0.3127
vt 0.0221 1.0265 0.3242
vt 0.0198 0.0637 0.3137
vt 1.6978 0.0630 1.1427
vt 1.9990 0.0722 1.1233
vt 1.9885 1.0350 1.1256
vt 1.6873 1.0258 1.1444
vt 1.9990 0.0730 0.0125
vt 1.9973 1.0358 0.0230
vt 0.8744 1.0350 0.0115
vt 0.8767 0.0722 0.0010
vt 0.3137 0.0637 0.0198
vt 0.3242 1.0265 0.0221
vt 0.0230 1.0358 0.0027
vt 0.0125 0.0730 0.0010
vt 0.2657 0.9968 1.9923
vt 0.2743 0.1661 1.9928
vt 0.3076 0.0873 1.9919
vt 0.2974 1.0797 1.9913
vt 0.0820 0.9852 1.9975
vt 0.0486 1.0640 1.9984
vt 0.0905 0.1545 1.9980
vt 0.0588 0.0716 1.9990
vt 1.0043 1.2109 0.2598
vt 1.8350 1.2113 0.2684
vt 1.8339 1.9928 0.2743
vt 1.0032 1.9923 0.2657
vt 0.2598 1.2109 0.9957
vt 0.2657 1.9923 0.9968
vt 0.0820 1.9975 0.9852
vt 0.0761 1.2161 0.9841
vt 0.9841 1.2161 0.0761
vt 0.9852 1.9975 0.0820
vt 0.1545 1.9980 0.0905
vt 0.1533 1.2166 0.0846
vt 1.9154 1.2166 0.1533
vt 1.9095 1.9980 0.1545
vt 1.7257 1.9928 0.1661
vt 1.7316 1.2113 0.1650
vt 1.0797 1.9913 0.2974
vt 0.0873 1.9919 0.3076
vt 0.0854 1.0696 0.2973
vt 1.0778 1.0690 0.2871
vt 1.9514 1.9984 1.0640
vt 1.7026 1.9913 1.0797
vt 1.7129 1.0690 1.0778
vt 1.9617 1.0761 1.0620
vt 1.9284 1.9990 0.0588
vt 0.9360 1.9984 0.0486
vt 0.9380 1.0761 0.0383
vt 1.9304 1.0767 0.0484
vt 0.2973 1.0696 0.0854
vt 0.3076 1.9919 0.0873
vt 0.0588 1.9990 0.0716
vt 0.0484 1.0767 0.0696
vt 0.2871 1.0778 1.0690
vt 0.2973 0.0854 1.0696
vt 0.3242 0.0221 1.0265
vt 0.3127 1.1444 1.0258
vt 0.0484 0.0696 1.0767
vt 0.0383 1.0620 1.0761
vt 0.0115 1.1256 1.0350
vt 0.0230 0.0027 1.0358
# 568 texture coords

g W7_BuildingA01
usemtl W7_Roof01
s 1
f 1/1 2/2 3/3 4/4 
f 5/5 4/4 3/3 6/6 
f 7/7 6/6 3/3 8/8 
f 9/9 8/8 3/3 10/10 
f 11/11 10/10 3/3 12/12 
f 13/13 12/12 3/3 14/14 
f 15/15 14/14 3/3 16/16 
f 17/17 16/16 3/3 18/18 
usemtl W7_YellowPlasterWall
s 2
f 19/19 20/20 21/21 22/22 
s 1
f 23/23 24/24 25/25 26/26 
f 27/27 26/26 25/25 28/28 
f 29/29 30/30 31/31 32/32 
f 29/29 32/32 33/33 34/34 
f 35/35 29/29 34/34 
f 35/35 34/34 26/26 27/27 
f 36/36 37/37 38/38 39/39 
f 31/31 40/40 41/41 32/32 
f 24/24 23/23 41/41 40/40 
usemtl W7_MetalTin
s 2
f 42/42 43/43 44/44 45/45 
usemtl W7_Roof01
s 4
f 41/46 46/47 47/48 32/49 
f 23/50 48/51 46/47 41/46 
usemtl W7_YellowPlasterWall
s 2
f 26/52 49/53 48/54 23/55 
usemtl W7_Roof01
s 1
f 50/56 51/57 2/2 1/1 
usemtl W7_YellowPlasterWall
f 52/58 53/59 54/60 55/61 
f 56/62 55/61 54/60 
s 2
f 57/63 58/64 59/65 60/66 
s 4
f 57/67 60/68 54/69 53/70 
f 57/67 53/70 61/71 62/72 
f 57/67 62/72 63/73 64/74 
s 8
f 60/75 65/76 56/77 54/78 
usemtl W7_Door03
s 1
f 66/79 67/80 68/81 69/82 
usemtl W7_YellowPlasterWall
f 70/83 71/84 72/85 73/86 
f 74/87 64/88 63/89 75/90 
f 76/91 74/87 75/90 
usemtl W7_Door03
f 77/79 78/80 79/81 80/82 
usemtl W7_YellowPlasterWall
f 72/85 61/92 53/59 52/58 
f 62/93 61/92 72/85 71/84 
f 63/89 62/93 71/84 75/90 
usemtl W7_MetalTin
s 2
f 81/94 82/95 83/96 84/97 
f 85/98 86/99 87/100 88/101 
usemtl xxx
s 8
f 58/102 21/103 89/104 51/105 
f 58/102 51/105 50/106 
usemtl W7_YellowPlasterWall
s 2
f 21/21 20/20 90/107 89/108 
f 20/20 25/109 91/110 90/107 
usemtl W7_Roof01
s 1
f 92/111 3/112 91/113 
f 18/114 3/112 92/111 
usemtl W7_YellowPlasterWall
s 2
f 93/115 65/116 60/66 59/65 
f 59/65 94/117 95/118 93/115 
usemtl W7_Door03
s 1
f 96/79 97/80 98/81 99/82 
usemtl W7_YellowPlasterWall
s 2
f 100/119 101/120 102/121 103/122 
f 103/122 102/121 104/123 105/124 
usemtl W7_Door03
s 1
f 106/79 107/80 108/81 109/82 
usemtl W7_YellowPlasterWall
s 2
f 110/125 111/126 112/127 113/128 
f 114/129 115/130 116/131 117/132 
f 117/132 116/131 118/133 119/134 
f 120/135 117/132 119/134 
f 120/135 119/134 121/136 122/137 
f 123/138 124/139 125/140 126/141 
f 127/142 128/143 129/144 125/140 
f 126/141 125/140 129/144 130/145 
f 126/141 130/145 131/146 132/147 
f 132/147 131/146 133/148 134/149 
f 135/150 136/151 137/152 138/153 
f 139/154 128/143 127/142 140/155 
f 129/144 141/156 142/157 130/145 
f 143/158 144/159 145/160 146/161 
f 147/162 148/163 149/164 150/165 
f 116/131 151/166 152/167 118/133 
usemtl W7_Window10
s 1
f 153/168 154/169 155/170 156/171 
usemtl W7_YellowPlasterWall
s 2
f 102/121 115/130 114/129 104/123 
f 94/117 101/120 100/119 95/118 
s 1
f 157/172 158/173 159/174 160/175 
f 159/174 161/176 37/37 160/175 
f 162/177 160/175 37/37 36/36 
f 159/174 163/178 164/179 161/176 
usemtl W7_Door01
f 165/180 166/181 167/182 168/183 
usemtl W7_YellowPlasterWall
s 2
f 38/184 37/185 165/186 168/187 
s 4
f 37/188 161/189 166/190 165/191 
s 2
f 161/192 164/193 167/194 166/195 
f 169/196 28/197 25/109 19/19 
f 19/19 25/109 20/20 
f 29/198 170/199 171/200 172/201 
f 171/200 173/202 172/201 
f 30/203 29/198 172/201 144/159 
f 145/160 144/159 172/201 136/151 
f 137/152 136/151 172/201 
usemtl W7_Pillar01
s 1
f 174/204 175/205 176/206 177/207 
f 175/205 178/208 179/209 176/206 
usemtl W7_YellowPlasterWall
s 2
f 142/157 141/156 143/158 146/161 
f 135/150 138/153 180/210 146/161 
f 142/157 146/161 180/210 181/211 
f 180/210 182/212 181/211 
f 133/148 142/157 181/211 134/149 
f 183/213 134/149 181/211 
usemtl W7_Pillar01
s 1
f 184/214 185/215 179/209 178/208 
f 183/216 181/217 186/218 187/219 
s 4
f 181/220 182/221 184/222 186/223 
s 8
f 182/224 180/225 185/226 184/227 
s 4
f 180/228 138/229 179/230 185/231 
f 138/229 137/232 176/233 179/230 
f 137/232 172/234 177/235 176/233 
s 8
f 172/236 173/237 174/238 177/239 
s 4
f 173/240 171/241 188/242 174/243 
s 1
f 171/244 170/245 189/246 188/247 
s 2
f 190/248 191/249 192/250 193/251 
f 190/248 193/251 194/252 
f 193/251 195/253 196/254 194/252 
f 195/253 197/255 198/256 199/257 
f 196/254 195/253 199/257 
s 1
f 187/219 186/218 198/258 197/259 
s 4
f 186/223 184/222 199/260 198/261 
f 184/222 178/262 196/263 199/260 
f 178/262 175/264 194/265 196/263 
f 175/264 174/243 190/266 194/265 
f 174/243 188/242 191/267 190/266 
s 1
f 188/247 189/246 192/268 191/269 
usemtl W7_YellowPlasterWall
s 2
f 124/139 123/138 200/270 140/155 
f 140/155 200/270 201/271 139/154 
f 148/163 139/154 201/271 149/164 
f 111/126 149/164 201/271 112/127 
usemtl W7_Pillar01
s 1
f 202/272 203/273 204/274 205/275 
f 205/275 204/274 206/276 207/277 
usemtl W7_YellowPlasterWall
s 2
f 152/167 151/166 147/162 208/278 
f 110/125 113/128 208/278 150/165 
f 147/162 150/165 208/278 
f 121/136 152/167 208/278 122/137 
f 209/279 122/137 208/278 
usemtl W7_Pillar01
s 1
f 206/276 210/280 211/281 207/277 
s 4
f 209/282 208/283 211/284 210/285 
s 8
f 208/286 113/287 207/288 211/289 
f 113/287 112/290 205/291 207/288 
f 112/290 201/292 202/293 205/291 
s 4
f 201/294 200/295 203/296 202/297 
usemtl W7_YellowPlasterWall
f 93/298 95/299 97/300 96/301 
s 8
f 95/302 100/303 98/304 97/305 
s 4
f 100/306 103/307 99/308 98/309 
f 105/310 104/311 107/312 106/313 
s 8
f 104/314 114/315 108/316 107/317 
s 4
f 114/318 117/319 109/320 108/321 
f 118/322 152/323 155/324 154/325 
s 8
f 152/326 121/327 156/328 155/329 
s 4
f 121/330 119/331 153/332 156/333 
s 8
f 119/334 118/335 154/336 153/337 
s 2
f 73/86 72/85 67/85 66/86 
s 4
f 72/85 52/58 68/58 67/85 
s 2
f 52/58 55/61 69/61 68/58 
f 76/91 75/90 78/90 77/91 
s 4
f 75/90 71/84 79/84 78/90 
s 2
f 71/84 70/83 80/83 79/84 
usemtl xxx
s 8
f 64/338 74/339 22/340 21/341 
f 58/102 57/63 64/74 21/341 
usemtl W7_Roof01
s 67108864
f 89/342 90/343 2/2 51/57 
f 2/2 90/343 91/344 3/3 
usemtl W7_MetalTin
s 4
f 212/345 213/346 214/347 215/348 
f 212/345 215/348 216/349 
f 216/349 215/348 217/350 84/97 
f 216/349 84/97 83/96 
s 2
f 218/351 219/352 220/353 221/354 
f 222/355 223/356 219/352 218/351 
f 224/357 225/358 223/356 222/355 
f 224/357 226/359 227/360 225/358 
f 221/354 220/353 228/361 229/362 
f 229/362 228/361 230/363 231/364 
f 231/364 230/363 232/365 233/366 
f 233/366 232/365 234/367 235/368 
f 235/368 234/367 236/369 237/370 
f 237/370 236/369 238/371 239/372 
f 239/372 238/371 240/373 241/374 
f 241/374 240/373 242/375 243/376 
f 243/376 242/375 82/95 81/94 
f 226/359 85/98 88/101 227/360 
s 16
f 30/377 144/378 81/94 84/97 
f 144/378 143/379 243/376 81/94 
f 143/379 141/380 241/374 243/376 
f 141/380 129/381 239/372 241/374 
f 129/381 128/382 237/370 239/372 
f 128/382 139/383 235/368 237/370 
f 139/383 148/384 233/366 235/368 
f 148/384 147/385 231/364 233/366 
f 147/385 151/386 229/362 231/364 
f 151/386 116/387 221/354 229/362 
f 116/387 115/388 218/351 221/354 
f 115/388 102/389 222/355 218/351 
f 102/389 101/390 224/357 222/355 
f 101/390 94/391 226/359 224/357 
f 94/391 59/392 85/98 226/359 
f 59/392 58/393 86/99 85/98 
s 8
f 58/393 50/394 87/100 86/99 
s 1
f 50/394 1/395 88/101 87/100 
f 1/395 4/396 227/360 88/101 
f 4/396 5/397 225/358 227/360 
f 5/397 6/398 223/356 225/358 
f 6/398 7/399 219/352 223/356 
f 7/399 8/400 220/353 219/352 
f 8/400 9/401 228/361 220/353 
f 9/401 10/402 230/363 228/361 
f 10/402 11/403 232/365 230/363 
f 11/403 12/404 234/367 232/365 
f 12/404 13/405 236/369 234/367 
f 13/405 14/406 238/371 236/369 
f 14/406 15/407 240/373 238/371 
f 15/407 16/408 242/375 240/373 
f 16/408 17/409 82/95 242/375 
f 17/409 18/410 83/96 82/95 
f 18/410 92/411 216/349 83/96 
f 92/411 91/412 212/345 216/349 
s 2
f 91/412 25/413 213/346 212/345 
s 16
f 25/413 24/414 214/347 213/346 
f 24/414 40/415 215/348 214/347 
f 40/415 31/416 217/350 215/348 
f 31/416 30/377 84/97 217/350 
usemtl W7_Window01
s 1
f 244/417 245/418 246/419 247/420 
f 248/421 249/422 250/423 251/424 
usemtl W7_PlasterWall
s 2
f 140/155 127/142 252/142 253/155 
f 127/142 125/140 254/140 252/142 
f 125/140 124/139 255/139 254/140 
f 124/139 140/155 253/155 255/139 
f 130/145 142/157 256/157 257/145 
f 142/157 133/148 258/148 256/157 
f 133/148 131/146 259/146 258/148 
f 131/146 130/145 257/145 259/146 
s 4
f 253/155 252/142 247/142 246/155 
s 8
f 252/142 254/140 244/140 247/142 
s 4
f 254/140 255/139 245/139 244/140 
s 8
f 255/139 253/155 246/155 245/139 
s 4
f 257/145 256/157 251/157 250/145 
s 8
f 256/157 258/148 248/148 251/157 
s 4
f 258/148 259/146 249/146 248/148 
s 8
f 259/146 257/145 250/145 249/146 
usemtl W7_Door02
s 1
f 260/425 261/426 262/427 263/428 
f 264/429 265/430 266/431 267/432 
usemtl W7_PlasterWall
s 2
f 146/161 145/160 268/160 269/161 
f 145/160 136/151 270/151 268/160 
f 136/151 135/150 271/150 270/151 
f 135/150 146/161 269/161 271/150 
f 150/165 149/164 272/164 273/165 
f 149/164 111/126 274/126 272/164 
f 111/126 110/125 275/125 274/126 
f 110/125 150/165 273/165 275/125 
s 4
f 269/161 268/160 263/160 262/161 
s 8
f 268/160 270/151 260/151 263/160 
s 4
f 270/151 271/150 261/150 260/151 
s 8
f 271/150 269/161 262/161 261/150 
s 4
f 273/165 272/164 264/164 267/165 
s 8
f 272/164 274/126 265/126 264/164 
s 4
f 274/126 275/125 266/125 265/126 
s 8
f 275/125 273/165 267/165 266/125 
usemtl W7_MetalTin
s 2
f 43/43 276/433 277/434 44/44 
usemtl W7_PlasterWall
s 4
f 278/338 279/435 280/436 281/437 
f 282/438 278/338 281/437 283/439 
usemtl W7_YellowPlasterWall
s 2
f 49/53 163/440 159/441 158/442 
f 49/53 158/442 48/54 
f 36/443 39/444 284/445 162/446 
f 162/446 284/445 285/447 
f 284/445 34/448 33/449 285/447 
s 1
f 157/172 160/175 279/435 278/338 
usemtl W7_PlasterWall
s 2
f 160/339 47/450 280/436 279/435 
usemtl W7_YellowPlasterWall
s 1
f 47/48 46/47 281/437 280/436 
f 46/47 48/51 283/439 281/437 
s 2
f 48/54 158/442 282/438 283/439 
s 1
f 158/173 157/172 278/338 282/438 
usemtl W7_MetalTin
s 4
f 32/451 47/452 43/43 42/42 
f 47/452 160/453 276/433 43/43 
s 1
f 160/453 162/454 277/434 276/433 
s 4
f 162/454 285/455 44/44 277/434 
f 285/455 33/456 45/45 44/44 
s 8
f 33/456 32/451 42/42 45/45 
usemtl W7_PlasterWall
s 1
f 286/457 287/458 288/459 289/460 
f 290/461 291/462 292/463 293/464 
s 2
f 294/465 290/466 293/467 295/468 
s 1
f 296/469 294/470 295/471 297/472 
s 2
f 291/473 296/474 297/475 292/476 
s 4
f 298/477 299/478 291/479 290/480 
f 300/481 298/477 290/480 294/482 
f 301/483 300/481 294/482 296/484 
f 299/478 301/483 296/484 291/479 
s 2
f 289/485 288/486 299/487 298/488 
s 8
f 286/489 289/490 298/491 300/492 
s 2
f 287/493 286/494 300/495 301/496 
s 8
f 288/497 287/498 301/499 299/500 
s 1
f 302/501 303/502 304/503 305/504 
f 306/505 307/506 308/507 309/508 
s 2
f 306/509 310/510 311/511 307/512 
s 1
f 312/513 313/514 311/515 310/516 
s 2
f 309/517 308/518 313/519 312/520 
s 1
f 314/521 315/522 316/523 317/524 
f 318/525 314/521 317/524 319/526 
f 320/527 318/525 319/526 321/528 
f 315/522 320/527 321/528 316/523 
s 2
f 302/529 305/530 315/531 314/532 
s 4
f 302/533 314/534 318/535 303/536 
s 2
f 303/537 318/538 320/539 304/540 
s 4
f 304/541 320/542 315/543 305/544 
s 2
f 317/545 316/546 322/547 323/548 
s 4
f 319/549 317/550 323/551 324/552 
s 2
f 321/553 319/554 324/555 325/556 
s 4
f 322/557 316/558 321/559 325/560 
s 8
f 323/561 322/562 308/563 307/564 
s 16
f 322/557 325/560 313/519 308/518 
s 8
f 325/565 324/566 311/567 313/568 
s 16
f 324/552 323/551 307/512 311/511 
# 281 polygons - 20 triangles

