# 3ds Max Wavefront OBJ Exporter v0.97b - (c)2007 guruware
# File Created: 14.02.2012 09:04:39

mtllib Kooli_9_2-origo.mtl

#
# object Kooli_9_2
#

v  542192.1858 6589439.204 16.7517
v  542192.1858 6589439.204 17.5059
v  542192.3984 6589439.2991 17.4740
v  542192.3984 6589439.2991 16.7517
v  542191.8528 6589439.0551 16.7517
v  542191.8528 6589439.0551 17.5147
v  542191.5095 6589438.9015 16.7517
v  542191.335 6589438.8236 16.7517
v  542191.335 6589438.8236 17.4740
v  542191.5095 6589438.9015 17.5059
v  542192.1075 6589439.3789 16.7517
v  542191.7722 6589439.2352 16.7517
v  542192.3215 6589439.4708 16.7517
v  542192.3021 6589439.4623 16.7517
v  542192.3215 6589439.4708 17.1417
v  542192.3215 6589439.4708 17.4740
v  542192.1075 6589439.3789 17.5059
v  542191.7722 6589439.2352 17.5147
v  542191.4265 6589439.0872 17.5059
v  542191.2508 6589439.012 17.4740
v  542191.2508 6589439.012 17.1417
v  542191.2508 6589439.012 16.7517
v  542191.4265 6589439.0872 16.7517
v  542188.7903 6589437.7375 16.7517
v  542188.6158 6589437.6595 16.7517
v  542188.6158 6589437.6595 17.4740
v  542188.7903 6589437.7375 17.5059
v  542189.1336 6589437.8911 17.5147
v  542189.1336 6589437.8911 16.7517
v  542189.4666 6589438.0399 17.5059
v  542189.4666 6589438.0399 16.7517
v  542189.6791 6589438.1353 17.4740
v  542189.6791 6589438.1353 16.7517
v  542189.3896 6589438.212 17.5059
v  542189.5769 6589438.2946 17.4779
v  542189.6028 6589438.3058 17.4740
v  542189.0559 6589438.0646 17.5147
v  542188.712 6589437.9127 17.5059
v  542188.5372 6589437.8354 17.4740
v  542188.5372 6589437.8354 17.1417
v  542188.5372 6589437.8354 16.7517
v  542188.712 6589437.9127 16.7517
v  542189.0559 6589438.0646 16.7517
v  542189.3896 6589438.212 16.7517
v  542189.5769 6589438.2946 16.7517
v  542189.6028 6589438.3058 16.7517
v  542189.6028 6589438.3058 17.1417
v  542193.9649 6589439.9999 16.7517
v  542193.7904 6589439.9218 16.7517
v  542193.7904 6589439.9218 17.4740
v  542193.9649 6589439.9999 17.5059
v  542194.6411 6589440.3023 16.7517
v  542194.6411 6589440.3023 17.5059
v  542194.8537 6589440.3974 17.4740
v  542194.8537 6589440.3974 16.7517
v  542194.3082 6589440.1533 16.7517
v  542194.3082 6589440.1533 17.5147
v  542193.8962 6589440.1534 17.5059
v  542193.7209 6589440.0773 17.4740
v  542193.7209 6589440.0773 16.7517
v  542193.7209 6589440.0773 17.1417
v  542193.8962 6589440.1534 16.7517
v  542194.2413 6589440.3029 16.7517
v  542194.576 6589440.448 16.7517
v  542194.7558 6589440.5259 16.7517
v  542194.7895 6589440.5409 16.7517
v  542194.7895 6589440.5409 17.1417
v  542194.7895 6589440.5409 17.4740
v  542194.7558 6589440.5259 17.4791
v  542194.576 6589440.448 17.5059
v  542194.2413 6589440.3029 17.5147
v  542197.1079 6589441.4057 16.7517
v  542197.1079 6589441.4057 17.5059
v  542197.3205 6589441.5007 17.4740
v  542197.3205 6589441.5007 16.7517
v  542196.7749 6589441.2569 16.7517
v  542196.7749 6589441.2569 17.5147
v  542196.4316 6589441.1032 17.5059
v  542196.4316 6589441.1032 16.7517
v  542196.2572 6589441.0252 16.7517
v  542196.2572 6589441.0252 17.4740
v  542196.3674 6589441.2468 16.7517
v  542196.193 6589441.1687 16.7517
v  542196.7107 6589441.4004 16.7517
v  542197.0438 6589441.5493 16.7517
v  542197.2563 6589441.6444 16.7517
v  542197.2563 6589441.6444 17.1417
v  542197.2563 6589441.6444 17.4740
v  542197.0438 6589441.5493 17.5059
v  542196.7107 6589441.4004 17.5147
v  542196.3674 6589441.2468 17.5059
v  542196.193 6589441.1687 17.4740
v  542196.193 6589441.1687 17.1417
v  542199.6616 6589442.5481 16.7517
v  542199.6616 6589442.5481 17.5059
v  542199.8888 6589442.6497 17.4740
v  542199.8888 6589442.6497 16.7517
v  542199.3055 6589442.3889 16.7517
v  542199.3055 6589442.3889 17.5147
v  542198.9385 6589442.2247 17.5059
v  542198.9385 6589442.2247 16.7517
v  542198.752 6589442.1413 16.7517
v  542198.752 6589442.1413 17.4740
v  542198.8744 6589442.3682 16.7517
v  542198.6878 6589442.2848 16.7517
v  542199.2414 6589442.5323 16.7517
v  542199.5974 6589442.6917 16.7517
v  542199.8247 6589442.7932 16.7517
v  542199.8247 6589442.7932 17.1417
v  542199.8247 6589442.7932 17.4740
v  542199.5974 6589442.6917 17.5059
v  542199.2414 6589442.5323 17.5147
v  542198.8744 6589442.3682 17.5059
v  542198.6878 6589442.2848 17.4740
v  542198.6878 6589442.2848 17.1417
v  542202.4209 6589443.7823 16.7517
v  542202.4209 6589443.7823 17.5059
v  542202.6481 6589443.8839 17.4740
v  542202.6481 6589443.8839 16.7517
v  542202.0648 6589443.6231 16.7517
v  542202.0648 6589443.6231 17.5147
v  542201.6978 6589443.4589 17.5059
v  542201.6978 6589443.4589 16.7517
v  542201.5112 6589443.3755 16.7517
v  542201.5112 6589443.3755 17.4740
v  542201.6336 6589443.6024 16.7517
v  542201.4471 6589443.519 16.7517
v  542202.0006 6589443.7668 16.7517
v  542202.3567 6589443.9258 16.7517
v  542202.5839 6589444.0275 16.7517
v  542202.5839 6589444.0275 17.1417
v  542202.5839 6589444.0275 17.4740
v  542202.3567 6589443.9258 17.5059
v  542202.0006 6589443.7668 17.5147
v  542201.6336 6589443.6024 17.5059
v  542201.4471 6589443.519 17.4740
v  542201.4471 6589443.519 17.1417
v  542205.1288 6589444.9937 16.7517
v  542205.1288 6589444.9937 17.5059
v  542205.356 6589445.0954 17.4740
v  542205.356 6589445.0954 16.7517
v  542204.7728 6589444.8344 16.7517
v  542204.7728 6589444.8344 17.5147
v  542204.4058 6589444.6702 17.5059
v  542204.4058 6589444.6702 16.7517
v  542204.2192 6589444.5868 16.7517
v  542204.2192 6589444.5868 17.4740
v  542204.3416 6589444.8137 16.7517
v  542204.1551 6589444.7303 16.7517
v  542204.7086 6589444.9779 16.7517
v  542205.0646 6589445.1372 16.7517
v  542205.2919 6589445.2388 16.7517
v  542205.2919 6589445.2388 17.1417
v  542205.2919 6589445.2388 17.4740
v  542205.0646 6589445.1372 17.5059
v  542204.7086 6589444.9779 17.5147
v  542204.3416 6589444.8137 17.5059
v  542204.1551 6589444.7303 17.4740
v  542204.1551 6589444.7303 17.1417
v  542202.6869 6589436.9047 18.2952
v  542210.2345 6589440.1604 18.2952
v  542204.2099 6589437.5858 19.7854
v  542202.4231 6589437.137 18.2952
v  542202.4231 6589437.137 19.7854
v  542194.2584 6589433.2589 19.7854
v  542188.388 6589430.6328 18.2952
v  542194.3865 6589433.4904 19.7854
v  542185.7492 6589437.0497 18.2260
v  542189.1707 6589438.5589 18.2561
v  542194.7104 6589433.6137 19.7854
v  542196.2277 6589434.3549 19.7854
v  542197.2911 6589434.6745 19.7854
v  542194.5252 6589440.8578 18.2952
v  542191.9885 6589439.7616 18.2952
v  542204.0755 6589437.9631 19.7854
v  542207.426 6589446.7228 18.2627
v  542208.6306 6589442.5188 14.8172
v  542208.6306 6589442.5188 17.2294
v  542209.4877 6589440.4911 17.2290
v  542209.4856 6589440.4962 14.8172
v  542202.6869 6589436.9047 19.7854
v  542192.1568 6589439.4006 17.8496
v  542192.3774 6589439.4956 17.8128
v  542191.7826 6589439.2397 17.8604
v  542191.3878 6589439.0701 17.8509
v  542191.1704 6589438.9766 17.8081
v  542189.4395 6589438.2341 17.8495
v  542189.6459 6589438.3254 17.8147
v  542189.66 6589438.3311 17.8126
v  542189.0664 6589438.0692 17.8604
v  542188.6734 6589437.8955 17.8509
v  542188.4569 6589437.7997 17.8081
v  542193.6406 6589440.0417 17.8081
v  542193.8576 6589440.1362 17.8509
v  542194.8231 6589440.5556 17.8162
v  542194.8483 6589440.5672 17.8124
v  542194.6268 6589440.4702 17.8493
v  542194.2517 6589440.3074 17.8604
v  542197.0908 6589441.5703 17.8499
v  542197.3536 6589441.6879 17.8066
v  542196.7211 6589441.405 17.8604
v  542196.3289 6589441.2296 17.8509
v  542196.1129 6589441.1328 17.8081
v  542199.6437 6589442.7123 17.8501
v  542199.9225 6589442.837 17.8071
v  542199.2518 6589442.537 17.8604
v  542198.8364 6589442.3511 17.8511
v  542198.6084 6589442.2491 17.8085
v  542202.403 6589443.9466 17.8501
v  542202.6817 6589444.0713 17.8071
v  542202.0111 6589443.7712 17.8604
v  542201.5956 6589443.5855 17.8511
v  542201.3676 6589443.4835 17.8085
v  542205.111 6589445.1578 17.8501
v  542205.3897 6589445.2825 17.8071
v  542204.719 6589444.9825 17.8604
v  542204.3036 6589444.7968 17.8511
v  542204.0756 6589444.6947 17.8085
v  542187.1751 6589435.2044 17.4474
v  542187.1751 6589435.2044 14.9690
v  542187.9793 6589433.2396 14.9690
v  542187.9793 6589433.2396 17.4474
v  542188.0946 6589432.5983 17.4474
v  542188.0946 6589432.5983 14.9690
v  542188.5899 6589431.3842 14.9690
v  542188.5899 6589431.3842 17.4474
v  542186.9652 6589435.1136 17.4474
v  542187.7694 6589433.1489 17.4474
v  542187.7999 6589433.0806 17.7408
v  542186.9347 6589435.182 17.7514
v  542188.0084 6589432.5632 17.4474
v  542188.5037 6589431.3492 17.4474
v  542188.5321 6589431.2856 17.7180
v  542187.9799 6589432.6268 17.7394
v  542209.759 6589440.0718 17.2290
v  542209.5589 6589440.5212 17.2290
v  542209.5477 6589440.3491 17.2290
v  542208.6849 6589442.5735 17.6151
v  542209.5845 6589440.4472 17.6072
v  542209.5506 6589440.5272 17.2294
v  542208.6967 6589442.5471 17.2294
v  542188.5037 6589431.3492 18.2952
v  542188.5918 6589431.1331 18.2952
v  542186.2664 6589436.8327 18.2952
v  542186.9652 6589435.1136 18.2952
v  542187.7694 6589433.1489 18.2952
v  542188.0084 6589432.5632 18.2952
v  542189.5769 6589438.2946 18.2952
v  542192.3021 6589439.4623 18.2952
v  542207.1501 6589446.07 18.2952
v  542194.7558 6589440.5259 18.2952
v  542209.754 6589440.0701 18.2952
v  542208.664 6589442.6203 18.2952
v  542207.1833 6589446.0849 18.2952
v  542209.754 6589440.0701 17.2294
v  542208.6967 6589442.5471 14.8172
v  542202.4041 6589437.2594 17.1417
v  542202.404 6589437.2594 14.9690
v  542209.6878 6589440.042 14.8172
v  542207.1833 6589446.0849 17.1417
v  542207.1833 6589446.0849 14.9690
v  542202.4041 6589437.2594 18.2952
v  542202.1811 6589437.412 18.2952
v  542207.1501 6589446.07 14.9690
v  542207.1501 6589446.07 17.1417
v  542202.1811 6589437.412 14.9690
v  542202.1811 6589437.412 17.1417
v  542188.5918 6589431.1331 14.9690
v  542188.5918 6589431.1331 17.4474
v  542188.5037 6589431.3492 14.9690
v  542189.5769 6589438.2946 14.9690
v  542186.2664 6589436.8327 14.9690
v  542186.2664 6589436.8327 17.1417
v  542192.3021 6589439.4623 14.9690
v  542194.7558 6589440.5259 14.9690
v  542186.9652 6589435.1136 14.9690
v  542187.7694 6589433.1489 14.9690
v  542188.0084 6589432.5632 14.9690
v  542209.5569 6589440.5262 14.8172
v  542209.759 6589440.072 14.8172
v  542208.6306 6589442.5188 12.7738
v  542208.6967 6589442.5471 12.7738
v  542202.404 6589437.2594 12.7738
v  542209.6878 6589440.042 12.7738
v  542207.1833 6589446.0849 12.7738
v  542209.4856 6589440.4962 12.7738
v  542207.1501 6589446.07 12.7738
v  542202.1811 6589437.412 12.7738
v  542188.5918 6589431.1331 12.7738
v  542186.2664 6589436.8327 12.7738
v  542186.9652 6589435.1136 12.7738
v  542189.5769 6589438.2946 12.7738
v  542192.3021 6589439.4623 12.7738
v  542194.7558 6589440.5259 12.7738
v  542187.7694 6589433.1489 12.7738
v  542188.0084 6589432.5632 12.7738
v  542188.5037 6589431.3492 12.7738
v  542187.9793 6589433.2396 12.7738
v  542187.1751 6589435.2044 12.7738
v  542188.5899 6589431.3842 12.7738
v  542188.0946 6589432.5983 12.7738
# 301 vertices

vn -0.4083 0.9128 0.0000
vn -0.4084 0.9128 0.0000
vn -0.4081 0.9130 0.0000
vn -0.4077 0.9131 0.0000
vn 0.0000 0.0000 1.0000
vn -0.9128 -0.4085 0.0000
vn -0.1238 -0.0554 -0.9908
vn -0.0730 -0.0327 -0.9968
vn -0.0003 -0.0002 -1.0000
vn 0.0859 0.0384 -0.9956
vn 0.1502 0.0671 -0.9864
vn 0.9129 0.4082 0.0000
vn -0.4081 0.9129 0.0000
vn -0.4079 0.9130 0.0000
vn -0.4082 0.9129 0.0000
vn -0.4088 0.9126 0.0000
vn -0.4095 0.9123 0.0000
vn -0.0003 -0.0001 -1.0000
vn 0.0860 0.0384 -0.9956
vn 0.9129 0.4081 0.0000
vn 0.1501 0.0671 -0.9864
vn 0.9130 0.4081 0.0000
vn -0.9129 -0.4082 0.0000
vn -0.0730 -0.0326 -0.9968
vn -0.4080 0.9130 0.0000
vn -0.4083 0.9129 0.0000
vn -0.4085 0.9128 0.0000
vn -0.9131 -0.4078 0.0000
vn -0.1238 -0.0553 -0.9908
vn 0.0860 0.0385 -0.9956
vn 0.1502 0.0672 -0.9864
vn 0.9128 0.4084 0.0000
vn -0.9130 -0.4080 0.0000
vn -0.0683 -0.0306 -0.9972
vn -0.1159 -0.0519 -0.9919
vn 0.0805 0.0360 -0.9961
vn 0.1407 0.0629 -0.9881
vn -0.9128 -0.4083 0.0000
vn 0.1407 0.0629 -0.9880
vn 0.9130 0.4079 0.0000
vn -0.9127 -0.4086 0.0000
vn 0.9130 0.4080 0.0000
vn 0.3960 -0.9181 0.0149
vn 0.4234 -0.9052 -0.0362
vn -0.2095 -0.0690 0.9754
vn -0.0940 0.1977 0.9758
vn -0.0797 0.2028 0.9760
vn -0.0915 0.2003 0.9755
vn 0.9211 0.3894 0.0000
vn -0.6609 -0.7504 0.0000
vn -0.0959 0.1942 0.9763
vn 0.4082 -0.9129 0.0000
vn 0.2035 0.0908 0.9749
vn -0.3952 0.9186 -0.0017
vn -0.3949 0.9187 -0.0012
vn -0.3943 0.9190 0.0000
vn -0.3945 0.9189 0.0013
vn -0.3949 0.9187 0.0019
vn -0.3958 0.9183 -0.0025
vn -0.4043 0.9146 -0.0003
vn -0.3872 0.9220 -0.0045
vn -0.4041 0.9147 0.0000
vn -0.4043 0.9146 0.0002
vn -0.4045 0.9145 0.0004
vn -0.3987 0.9171 0.0013
vn -0.3984 0.9172 0.0009
vn -0.4114 0.9115 0.0014
vn -0.4048 0.9144 0.0002
vn -0.3982 0.9173 -0.0007
vn -0.3981 0.9174 0.0001
vn -0.4086 0.9127 0.0002
vn -0.4083 0.9128 0.0001
vn -0.4082 0.9129 0.0001
vn -0.4085 0.9127 -0.0001
vn -0.4086 0.9127 -0.0002
vn -0.4081 0.9130 -0.0001
vn -0.4084 0.9128 0.0001
vn -0.4083 0.9128 0.0002
vn -0.4082 0.9129 0.0003
vn -0.4085 0.9128 -0.0002
vn -0.4083 0.9129 0.0002
vn -0.4083 0.9128 -0.0001
vn -0.4082 0.9129 -0.0003
vn -0.4082 0.9129 0.0002
vn -0.4083 0.9128 -0.0002
vn -0.4084 0.9128 -0.0002
vn -0.9255 -0.3788 0.0000
vn -0.9259 -0.3777 0.0000
vn -0.9258 -0.3779 0.0000
vn -0.9263 -0.3768 0.0000
vn -0.9259 -0.3778 0.0000
vn -0.9256 -0.3785 0.0000
vn -0.9264 -0.3766 0.0000
vn -0.9267 -0.3759 0.0000
vn -0.9262 -0.3770 0.0000
vn -0.9260 -0.3775 0.0000
vn 0.0000 -0.0002 1.0000
vn 0.9210 0.3895 0.0007
vn 0.0844 0.0289 -0.9960
vn 0.0557 -0.1162 -0.9917
vn 0.0237 -0.0390 -0.9990
vn 0.0139 -0.0336 -0.9993
vn -0.0300 -0.0157 -0.9994
vn 0.0026 0.0012 -1.0000
vn 0.3930 -0.9195 0.0000
vn 0.3930 -0.9196 -0.0001
vn 0.3970 -0.9178 -0.0001
vn 0.9195 0.3932 0.0006
vn 0.9194 0.3933 0.0000
vn 0.9209 0.3898 0.0008
vn 0.0000 0.0000 -1.0000
vn -0.4100 0.9121 0.0000
vn -0.5650 -0.8251 0.0000
vn 0.4194 -0.9078 0.0000
vn -0.9259 -0.3779 0.0000
vn -0.9281 -0.3724 0.0000
vn -0.9266 -0.3761 0.0000
vn -0.9271 -0.3748 0.0000
vn -0.4040 0.9148 0.0000
vn -0.3939 0.9192 0.0000
vn -0.3977 0.9175 0.0000
vn -0.4046 0.9145 0.0000
vn -0.9261 -0.3773 0.0000
vn -0.9258 -0.3781 0.0000
vn -0.9266 -0.3760 0.0000
vn -0.9262 -0.3771 0.0000
vn -0.9275 -0.3738 0.0000
vn -0.9267 -0.3757 0.0000
vn -0.3969 0.9179 0.0000
vn 0.3969 -0.9179 0.0000
vn -0.3770 0.9262 0.0000
vn 0.3769 -0.9262 0.0000
vn 0.9212 0.3892 0.0000
vn 0.3890 -0.9212 -0.0001
vn -0.3891 0.9212 0.0022
vn 0.3970 -0.9178 0.0000
vn 0.9210 0.3895 0.0000
# 137 vertex normals

vt 3.1883 0.0165 0.0000
vt 3.1883 0.9859 0.0000
vt 2.9885 0.9449 0.0000
vt 2.9885 0.0165 0.0000
vt 3.5012 0.0165 0.0000
vt 3.5012 0.9972 0.0000
vt 3.8238 0.0165 0.0000
vt 3.9878 0.0165 0.0000
vt 3.9878 0.9449 0.0000
vt 3.8238 0.9859 0.0000
vt 1.3875 1.7593 0.2111
vt 1.3757 1.6689 0.2109
vt 1.4233 1.6627 0.2118
vt 1.4364 1.7530 0.2120
vt 1.3683 1.6111 0.2108
vt 1.4149 1.6051 0.2116
vt 1.4156 1.6103 0.2116
vt 1.4166 0.1141 1.6051
vt 1.4149 0.2116 1.6051
vt 1.3683 0.2108 1.6111
vt 1.3714 0.0303 1.6111
vt 1.4180 0.0311 1.6051
vt -0.4180 1.6051 0.0311
vt -0.3714 1.6111 0.0303
vt -0.3790 1.6689 0.0224
vt -0.4265 1.6627 0.0232
vt -0.3908 1.7593 0.0204
vt -0.4398 1.7530 0.0213
vt -0.4029 1.8526 0.0228
vt -0.4533 1.8460 0.0237
vt -0.4090 1.8999 0.0309
vt -0.4601 1.8933 0.0318
vt -0.4586 0.1149 1.8933
vt -0.4601 0.0318 1.8933
vt -0.4090 0.0309 1.8999
vt -0.4058 0.2115 1.8999
vt -0.4569 0.2124 1.8933
vt 1.4058 1.8999 0.2115
vt 1.3996 1.8526 0.2114
vt 1.4500 1.8460 0.2122
vt 1.4569 1.8933 0.2124
vt -0.4785 2.3428 0.0321
vt -0.4861 2.4006 0.0243
vt -0.5328 2.3945 0.0251
vt -0.5258 2.3438 0.0320
vt -0.5248 2.3368 0.0329
vt -0.4979 2.4910 0.0223
vt -0.5450 2.4849 0.0231
vt -0.5100 2.5842 0.0247
vt -0.5575 2.5780 0.0255
vt -0.5160 2.6316 0.0328
vt -0.5637 2.6254 0.0336
vt -0.5623 0.1167 2.6254
vt -0.5637 0.0336 2.6254
vt -0.5160 0.0328 2.6316
vt -0.5128 0.2133 2.6316
vt -0.5606 0.2142 2.6254
vt 1.5067 2.5842 0.2132
vt 1.5542 2.5780 0.2141
vt 1.5606 2.6254 0.2142
vt 1.5128 2.6316 0.2133
vt 1.4946 2.4910 0.2130
vt 1.5417 2.4849 0.2138
vt 1.4828 2.4006 0.2128
vt 1.5295 2.3945 0.2136
vt 1.5227 2.3438 0.2135
vt 1.4754 2.3428 0.2127
vt 1.5217 2.3368 0.2135
vt 1.4754 0.2127 2.3428
vt 1.4785 0.0321 2.3428
vt 1.5248 0.0329 2.3368
vt 1.5234 0.1160 2.3368
vt 1.5217 0.2135 2.3368
vt -0.3580 1.1803 0.0220
vt -0.3163 1.1857 0.0213
vt -0.3223 1.2331 0.0294
vt -0.3645 1.2276 0.0301
vt -0.3223 0.0294 1.2331
vt -0.3192 0.2100 1.2331
vt -0.3614 0.2107 1.2276
vt -0.3631 0.1132 1.2276
vt -0.3645 0.0301 1.2276
vt 1.3192 1.2331 0.2100
vt 1.3130 1.1857 0.2098
vt 1.3547 1.1803 0.2106
vt 1.3614 1.2276 0.2107
vt 1.3009 1.0925 0.2096
vt 1.3415 1.0872 0.2103
vt 1.2892 1.0020 0.2094
vt 1.3287 0.9969 0.2101
vt 1.3218 0.9484 0.2100
vt 1.2817 0.9443 0.2093
vt 1.3206 0.9392 0.2100
vt 1.3223 0.1125 0.9392
vt 1.3206 0.2100 0.9392
vt 1.2817 0.2093 0.9443
vt 1.2848 0.0287 0.9443
vt 1.3238 0.0294 0.9392
vt -0.3250 0.9484 0.0282
vt -0.3238 0.9392 0.0294
vt -0.2848 0.9443 0.0287
vt -0.2924 1.0020 0.0209
vt -0.3320 0.9969 0.0216
vt -0.3042 1.0925 0.0189
vt -0.3448 1.0872 0.0196
vt 1.2260 0.5158 0.2083
vt 1.2650 0.5107 0.2090
vt 1.2711 0.5581 0.2091
vt 1.2322 0.5631 0.2084
vt 1.2139 0.4225 0.2081
vt 1.2529 0.4174 0.2088
vt 1.2021 0.3321 0.2079
vt 1.2411 0.3270 0.2086
vt 1.1946 0.2744 0.2078
vt 1.2336 0.2693 0.2085
vt 1.2353 0.1110 0.2693
vt 1.2336 0.2085 0.2693
vt 1.1946 0.2078 0.2744
vt 1.1978 0.0272 0.2744
vt 1.2368 0.0279 0.2693
vt -0.2054 0.3321 0.0194
vt -0.2444 0.3270 0.0201
vt -0.2368 0.2693 0.0279
vt -0.1978 0.2744 0.0272
vt -0.2172 0.4225 0.0174
vt -0.2562 0.4174 0.0181
vt -0.2293 0.5158 0.0198
vt -0.2683 0.5107 0.0205
vt -0.2353 0.5631 0.0279
vt -0.2743 0.5581 0.0286
vt -0.2353 0.0279 0.5631
vt -0.2322 0.2084 0.5631
vt -0.2711 0.2091 0.5581
vt -0.2728 0.1116 0.5581
vt -0.2743 0.0286 0.5581
vt 1.1376 -0.1651 0.2068
vt 1.1766 -0.1702 0.2075
vt 1.1832 -0.1195 0.2076
vt 1.1442 -0.1145 0.2069
vt 1.1247 -0.2648 0.2066
vt 1.1636 -0.2698 0.2072
vt 1.1121 -0.3615 0.2063
vt 1.1511 -0.3666 0.2070
vt 1.1041 -0.4232 0.2062
vt 1.1430 -0.4283 0.2069
vt 1.1447 0.1094 -0.4283
vt 1.1430 0.2069 -0.4283
vt 1.1041 0.2062 -0.4232
vt 1.1072 0.0257 -0.4232
vt 1.1462 0.0263 -0.4283
vt -0.1154 -0.3615 0.0178
vt -0.1544 -0.3666 0.0185
vt -0.1462 -0.4283 0.0263
vt -0.1072 -0.4232 0.0257
vt -0.1280 -0.2648 0.0158
vt -0.1669 -0.2698 0.0165
vt -0.1409 -0.1651 0.0183
vt -0.1799 -0.1702 0.0189
vt -0.1473 -0.1145 0.0264
vt -0.1863 -0.1195 0.0270
vt -0.1473 0.0264 -0.1145
vt -0.1442 0.2069 -0.1145
vt -0.1832 0.2076 -0.1195
vt -0.1849 0.1101 -0.1195
vt -0.1863 0.0270 -0.1195
vt 1.0403 -0.9145 0.2051
vt 1.0792 -0.9196 0.2058
vt 1.0858 -0.8689 0.2059
vt 1.0469 -0.8638 0.2052
vt 1.0273 -1.0142 0.2049
vt 1.0664 -1.0193 0.2055
vt 1.0148 -1.1109 0.2046
vt 1.0537 -1.1159 0.2053
vt 1.0067 -1.1726 0.2045
vt 1.0457 -1.1776 0.2052
vt 1.0474 0.1077 -1.1776
vt 1.0457 0.2052 -1.1776
vt 1.0067 0.2045 -1.1726
vt 1.0099 0.0240 -1.1726
vt 1.0489 0.0246 -1.1776
vt -0.0180 -1.1109 0.0161
vt -0.0570 -1.1159 0.0168
vt -0.0489 -1.1776 0.0246
vt -0.0099 -1.1726 0.0240
vt -0.0307 -1.0142 0.0141
vt -0.0697 -1.0193 0.0148
vt -0.0436 -0.9145 0.0166
vt -0.0825 -0.9196 0.0172
vt -0.0500 -0.8638 0.0247
vt -0.0890 -0.8689 0.0253
vt -0.0500 0.0247 -0.8638
vt -0.0469 0.2052 -0.8638
vt -0.0858 0.2059 -0.8689
vt -0.0875 0.1084 -0.8689
vt -0.0890 0.0253 -0.8689
vt 0.9448 -1.6500 0.2034
vt 0.9837 -1.6550 0.2041
vt 0.9903 -1.6044 0.2042
vt 0.9514 -1.5993 0.2035
vt 0.9318 -1.7496 0.2032
vt 0.9708 -1.7547 0.2039
vt 0.9193 -1.8463 0.2030
vt 0.9583 -1.8514 0.2037
vt 0.9113 -1.9080 0.2028
vt 0.9502 -1.9131 0.2035
vt 0.9519 0.1060 -1.9131
vt 0.9502 0.2035 -1.9131
vt 0.9113 0.2028 -1.9080
vt 0.9144 0.0223 -1.9080
vt 0.9534 0.0230 -1.9131
vt 0.0774 -1.8463 0.0145
vt 0.0385 -1.8514 0.0151
vt 0.0466 -1.9131 0.0230
vt 0.0856 -1.9080 0.0223
vt 0.0648 -1.7496 0.0125
vt 0.0259 -1.7547 0.0132
vt 0.0519 -1.6500 0.0149
vt 0.0130 -1.6550 0.0156
vt 0.0455 -1.5993 0.0230
vt 0.0065 -1.6044 0.0237
vt 0.0455 0.0230 -1.5993
vt 0.0486 0.2035 -1.5993
vt 0.0097 0.2042 -1.6044
vt 0.0080 0.1067 -1.6044
vt 0.0065 0.0237 -1.6044
vt -34.5120 3.1587 0.0000
vt -38.2116 3.7319 0.0000
vt -35.3667 2.6042 0.0000
vt -34.5605 3.1349 0.0000
vt -34.5265 2.4455 0.0000
vt -30.3455 2.6518 0.0000
vt -27.4052 3.4898 0.0000
vt -31.1628 -4.7064 0.0000
vt -31.1859 -1.5657 0.0000
vt -31.2628 -1.4693 0.0000
vt -34.4630 -4.6392 0.0000
vt -29.0502 -0.6746 0.0000
vt -27.2721 -0.6254 0.0000
vt -30.4420 2.5749 0.0000
vt -30.6033 2.5799 0.0000
vt -31.3817 2.4755 0.0000
vt -31.8918 2.4907 0.0000
vt -31.8229 -0.7210 0.0000
vt -30.5072 -0.6962 0.0000
vt -35.3810 2.4165 0.0000
vt -38.4966 -0.8025 0.0000
vt -2.1822 4.3263 0.0000
vt -3.4391 4.3263 0.0000
vt -3.4391 2.7734 0.0000
vt -2.1822 2.7771 0.0000
vt -34.6296 2.5382 0.0000
vt -34.3534 3.1178 0.0000
vt -31.2721 6.6282 0.0000
vt -34.6402 6.5853 0.0000
vt -31.4212 3.4697 0.0000
vt -31.2334 3.4554 0.0000
vt 0.0641 0.0320 0.0000
vt 0.2414 0.0320 0.0000
vt 0.2001 1.0032 0.0000
vt 0.0174 0.9077 0.0000
vt 0.5190 0.0320 0.0000
vt 0.5102 1.0320 0.0000
vt 0.8053 0.0320 0.0000
vt 0.8372 1.0083 0.0000
vt 0.9508 0.0320 0.0000
vt 1.0174 0.8982 0.0000
vt 0.0866 0.0320 0.0000
vt 0.2422 0.0320 0.0000
vt 0.2005 1.0029 0.0000
vt 0.0290 0.9125 0.0000
vt 0.0652 0.0320 0.0000
vt 0.0174 0.9071 0.0000
vt 0.5196 0.0320 0.0000
vt 0.5107 1.0320 0.0000
vt 0.8055 0.0320 0.0000
vt 0.8374 1.0083 0.0000
vt 0.9310 0.0000 0.0000
vt 1.0000 0.8509 0.0000
vt 0.8206 0.9657 0.0000
vt 0.7861 0.0858 0.0000
vt 0.0466 0.0271 0.0000
vt 0.0747 0.0391 0.0000
vt 0.0211 0.9015 0.0000
vt 0.0000 0.8925 0.0000
vt 0.2236 0.1031 0.0000
vt 0.1839 0.9813 0.0000
vt 0.5006 0.1170 0.0000
vt 0.4944 1.0000 0.0000
vt 0.0960 0.0320 0.0000
vt 0.2673 0.0320 0.0000
vt 0.2292 1.0040 0.0000
vt 0.0174 0.8914 0.0000
vt 0.5357 0.0320 0.0000
vt 0.5271 1.0320 0.0000
vt 0.8124 0.0320 0.0000
vt 0.8432 1.0083 0.0000
vt 0.9530 0.0320 0.0000
vt 0.0919 0.0320 0.0000
vt 0.2649 0.0320 0.0000
vt 0.2294 1.0046 0.0000
vt 0.0174 0.8926 0.0000
vt 0.5358 0.0320 0.0000
vt 0.5277 1.0320 0.0000
vt 0.8151 0.0320 0.0000
vt 0.8438 1.0090 0.0000
vt 0.9571 0.0320 0.0000
vt 1.0174 0.8995 0.0000
vt 0.0920 0.0320 0.0000
vt 0.8152 0.0320 0.0000
vt 0.8439 1.0090 0.0000
vt 0.0005 0.9894 0.9995
vt 0.0005 0.0005 0.9475
vt 0.9995 0.0106 0.0005
vt 0.9995 0.9995 0.0525
vt 0.0000 1.0000 0.0000
vt 0.0000 0.0000 0.0000
vt 1.0000 0.0000 0.0000
vt 1.0000 1.0000 0.0000
vt 4.4698 9.5720 0.0000
vt 3.4992 9.5608 0.0000
vt 3.4648 9.4450 0.0000
vt 4.5069 9.4512 0.0000
vt 3.1999 9.5574 0.0000
vt 2.5798 9.5502 0.0000
vt 2.5480 9.4453 0.0000
vt 3.2342 9.4422 0.0000
vt -3.4391 2.6647 0.0000
vt -0.0091 1.0127 0.0000
vt 0.9909 1.0127 0.0000
vt 0.9538 0.0321 0.0000
vt 0.0040 0.0127 0.0000
vt 0.8107 3.4798 -0.1957
vt 0.8682 3.4892 -0.1967
vt 0.9483 3.5980 -0.1981
vt -0.7637 3.3223 -0.1509
vt -0.6502 3.2404 -0.1702
vt -0.1925 3.3160 -0.1782
vt 0.3312 3.4012 -0.1873
vt 0.4873 3.4268 -0.1901
vt -0.6386 2.3958 -0.1606
vt -0.5294 2.3438 -0.1723
vt -0.5271 1.6381 -0.1724
vt -0.4223 1.6103 -0.1742
vt 0.1086 -2.4178 -0.1834
vt -0.3286 0.9484 -0.1758
vt -0.4294 0.9542 -0.1741
vt 0.0056 -2.5619 -0.1735
vt 1.7709 -2.3033 -0.2125
vt 1.7274 -2.1891 -0.2117
vt 1.0415 -2.2899 -0.1997
vt 0.1097 -2.4268 -0.1835
vt 1.6081 -2.2054 0.0569
vt 1.7321 -2.1891 0.0547
vt 1.6457 -2.1816 0.0563
vt 1.6076 -2.1873 0.0570
vt 1.0635 -2.2695 0.0664
vt 1.0661 -2.2873 0.0663
vt -2.2695 0.0664 1.0635
vt -2.2695 0.6693 1.0740
vt -2.2873 0.6693 1.0766
vt -2.2873 0.0663 1.0661
vt -2.1816 0.0563 1.6457
vt -0.2552 0.0829 1.3716
vt -0.2552 0.6260 1.3810
vt -2.1713 0.6577 1.7399
vt 1.0572 -0.0299 -2.2882
vt 1.0661 0.0663 -2.2873
vt 0.1148 0.1049 -2.4268
vt 0.1097 -0.1835 -2.4268
vt 1.0415 -0.1997 -2.2899
vt 1.0766 0.6693 -2.2873
vt 0.1243 0.6480 -2.4268
vt 1.7321 0.0547 -2.1891
vt 1.6081 0.0569 -2.2054
vt 1.6279 -0.0379 -2.2022
vt 1.7274 -0.2117 -2.1891
vt 1.4790 -0.2692 -0.2074
vt 1.3665 -0.2552 -0.2054
vt 1.3951 -0.2433 -0.2059
vt 1.3049 -0.2276 -0.2043
vt 3.4178 0.6480 0.1231
vt 3.4178 0.1049 0.1136
vt 3.4268 0.1049 0.1148
vt 3.4268 0.6480 0.1243
vt 3.4178 -0.1834 0.1086
vt 3.4268 -0.1835 0.1097
vt -2.1891 -0.2117 1.7274
vt -0.2552 -0.2054 1.3665
vt -0.7274 -0.2117 -2.1891
vt -0.6457 0.0563 -2.1816
vt -0.7321 0.0547 -2.1891
vt -0.3194 0.6271 -0.2276
vt -0.3810 0.6260 -0.2552
vt -0.3716 0.0829 -0.2552
vt -0.3099 0.0840 -0.2276
vt -0.3665 -0.2054 -0.2552
vt -0.3049 -0.2043 -0.2276
vt 3.4892 0.6347 0.8828
vt -0.2276 0.6271 1.3194
vt -0.2276 0.0840 1.3099
vt 3.4892 0.0152 0.8719
vt -0.2276 -0.2043 1.3049
vt 3.4892 -0.1967 0.8682
vt 0.1748 0.6357 3.4798
vt 0.1172 0.6347 3.4892
vt 0.1281 0.0152 3.4892
vt 0.1856 0.0162 3.4798
vt 0.1318 -0.1967 3.4892
vt 0.1893 -0.1957 3.4798
vt 0.1695 -0.0517 3.4820
vt -1.3438 0.6591 -0.5149
vt -2.2404 0.6612 -0.6357
vt -2.2404 0.1181 -0.6452
vt -1.6254 0.1167 -0.5623
vt -1.6254 0.2142 -0.5606
vt -1.5780 0.2141 -0.5542
vt -1.4849 0.2138 -0.5417
vt -1.3945 0.2136 -0.5295
vt -1.3438 0.2135 -0.5227
vt -0.6627 0.2118 -0.4233
vt -0.6103 0.2116 -0.4156
vt -0.6103 0.6572 -0.4078
vt -1.3368 0.2135 -0.5217
vt -1.3368 0.1160 -0.5234
vt -0.8933 0.1149 -0.4586
vt -0.8933 0.2124 -0.4569
vt -0.8460 0.2122 -0.4500
vt -0.7530 0.2120 -0.4364
vt 0.0031 0.2101 -0.3287
vt 0.0516 0.2100 -0.3218
vt 0.0516 0.6556 -0.3141
vt -0.6051 0.2116 -0.4149
vt -0.6051 0.1141 -0.4166
vt -0.2276 0.1132 -0.3631
vt -0.2276 0.2107 -0.3614
vt -0.1803 0.2106 -0.3547
vt -0.0872 0.2103 -0.3415
vt 1.4283 0.2069 -0.1430
vt 1.4283 0.1094 -0.1447
vt 1.8689 0.1084 -0.0875
vt 1.8689 0.2059 -0.0858
vt 2.1776 0.2052 -0.0457
vt 2.1776 0.1077 -0.0474
vt 2.6044 0.1067 0.0080
vt 2.6044 0.2042 0.0097
vt 2.9131 0.2035 0.0498
vt 2.9131 0.1060 0.0481
vt 2.8514 0.2037 0.0417
vt 2.7547 0.2039 0.0292
vt 2.6550 0.2041 0.0163
vt 2.1159 0.2053 -0.0537
vt 2.0193 0.2055 -0.0664
vt 1.9196 0.2058 -0.0792
vt 0.0608 0.2100 -0.3206
vt 0.0608 0.1125 -0.3223
vt 0.4419 0.1116 -0.2728
vt 0.4419 0.2091 -0.2711
vt 0.4893 0.2090 -0.2650
vt 0.5826 0.2088 -0.2529
vt 0.6730 0.2086 -0.2411
vt 0.7307 0.2085 -0.2336
vt 0.7307 0.1110 -0.2353
vt 1.1195 0.1101 -0.1849
vt 1.1195 0.2076 -0.1832
vt 1.1702 0.2075 -0.1766
vt 1.2698 0.2072 -0.1636
vt 1.3666 0.2070 -0.1511
vt -0.3232 0.9233 -0.0552
vt -0.3240 0.9302 -0.0561
vt -0.3316 0.9832 -0.0643
vt -0.2494 -0.0533 -0.3689
vt -0.2276 0.0301 -0.3645
vt -0.6051 0.0311 -0.4180
vt -0.5899 -0.0536 -0.4175
vt -0.1908 -0.0642 -0.3609
vt -0.6494 -0.0627 -0.4262
vt -0.0844 -0.0668 -0.3459
vt -0.7502 -0.0651 -0.4408
vt -0.9150 -0.0517 -0.4645
vt -0.8933 0.0318 -0.4601
vt -1.3368 0.0329 -0.5248
vt -1.3213 -0.0517 -0.5242
vt -0.8565 -0.0625 -0.4562
vt -1.3251 -0.0523 -0.5249
vt -1.3810 -0.0608 -0.5325
vt -1.6472 -0.0498 -0.5681
vt -1.6254 0.0336 -0.5637
vt -2.2404 -0.1702 -0.6502
vt -1.5885 -0.0607 -0.5604
vt -1.4820 -0.0633 -0.5461
vt -1.3438 -0.1723 -0.5294
vt 2.9131 0.0230 0.0466
vt 2.9397 -0.0604 0.0486
vt 2.8640 -0.0709 0.0386
vt 0.0516 -0.1758 -0.3286
vt -0.6103 -0.1742 -0.4223
vt 0.0386 -1.8640 -0.0709
vt 0.0247 -1.7575 -0.0733
vt 2.5828 -0.0599 0.0023
vt 2.6044 0.0237 0.0065
vt 2.1776 0.0246 -0.0489
vt 2.2042 -0.0587 -0.0469
vt 2.6447 -0.0707 0.0101
vt 2.1285 -0.0693 -0.0569
vt 2.7575 -0.0733 0.0247
vt 2.0221 -0.0716 -0.0707
vt 1.8473 -0.0582 -0.0932
vt 1.8689 0.0253 -0.0890
vt 1.4283 0.0263 -0.1462
vt 1.4548 -0.0570 -0.1442
vt 1.9092 -0.0690 -0.0854
vt 1.3791 -0.0676 -0.1542
vt 1.2727 -0.0699 -0.1681
vt 1.0979 -0.0565 -0.1905
vt 1.1195 0.0270 -0.1863
vt 0.7307 0.0279 -0.2368
vt 0.7571 -0.0553 -0.2348
vt 1.1599 -0.0673 -0.1827
vt 0.6858 -0.0659 -0.2442
vt 0.5854 -0.0683 -0.2573
vt 0.0168 -0.0643 -0.3316
vt 0.4789 -0.0657 -0.2712
vt 0.0767 -0.0552 -0.3232
vt 0.4202 -0.0549 -0.2785
vt 0.4419 0.0286 -0.2743
vt 0.0608 0.0294 -0.3238
vt 1.2087 -0.0419 3.3136
vt 1.1925 -0.1782 3.3160
vt 1.6502 -0.1702 3.2404
vt 1.6452 0.1181 3.2404
vt 1.1888 0.0337 3.3160
vt 1.1780 0.6532 3.3160
vt 1.6357 0.6612 3.2404
vt 0.6478 -0.0491 3.4036
vt 0.6688 -0.1873 3.4012
vt 0.6651 0.0246 3.4012
vt 0.5090 0.0219 3.4268
vt 0.5276 -0.0508 3.4246
vt 0.5127 -0.1901 3.4268
vt 0.6543 0.6441 3.4012
vt 0.4982 0.6414 3.4268
vt -2.3446 0.0244 0.3430
vt -2.3446 0.6439 0.3538
vt -2.4012 0.6441 0.3457
vt -2.4012 0.0246 0.3349
vt -0.1808 3.2594 0.0336
vt 0.3430 3.3446 0.0244
vt 0.3349 3.4012 0.0246
vt -0.1888 3.3160 0.0337
vt 3.2594 0.6531 -0.1700
vt 3.2594 0.0336 -0.1808
vt 3.3160 0.0337 -0.1888
vt 3.3160 0.6532 -0.1780
vt -2.4568 0.0161 0.8182
vt -2.4568 0.6356 0.8290
vt -2.4798 0.6357 0.8252
vt -2.4798 0.0162 0.8144
vt 0.4947 3.4038 0.0218
vt 0.8182 3.4568 0.0161
vt 0.8144 3.4798 0.0162
vt 0.4910 3.4268 0.0219
vt 3.4038 0.6413 0.5056
vt 3.4038 0.0218 0.4947
vt 3.4268 0.0219 0.4910
vt 3.4268 0.6414 0.5018
vt 1.6196 0.6598 -2.2067
vt 1.6105 0.0569 -2.2064
vt 1.7324 0.0548 -2.1904
vt 1.7428 0.6577 -2.1904
vt -0.7428 0.6577 -2.1904
vt -0.7324 0.0548 -2.1904
vt -2.1904 0.6577 1.7428
vt 1.6196 -2.2067 0.6598
vt 1.7428 -2.1904 0.6577
vt 1.7399 -2.1713 0.6577
vt 1.6167 -2.1875 0.6599
vt 3.2064 0.0569 1.6105
vt 3.2067 0.6598 1.6196
vt 3.1875 0.6599 1.6167
vt 3.1873 0.0570 1.6076
vt -2.2695 1.1801 1.0829
vt -2.2873 1.1801 1.0855
vt -0.2552 1.1747 1.3906
vt -2.1713 1.1685 1.7489
vt 1.0855 1.1801 -2.2873
vt 0.1338 1.1967 -2.4268
vt 1.7489 1.1685 -2.1713
vt 1.6256 1.1706 -2.1875
vt 1.6167 0.6599 -2.1875
vt 1.7399 0.6577 -2.1713
vt 3.4268 1.1967 0.1338
vt 3.4178 1.1967 0.1327
vt -0.3290 1.1758 -0.2276
vt -0.3906 1.1747 -0.2552
vt 3.4892 1.1834 0.8923
vt -0.2276 1.1758 1.3290
vt 1.6261 1.2099 3.2404
vt 1.1684 1.2019 3.3160
vt -1.3438 1.2078 -0.5053
vt -2.2404 1.2099 -0.6261
vt -0.6103 1.2060 -0.3983
vt 0.0516 1.2043 -0.3045
vt 0.6447 1.1928 3.4012
vt 0.4886 1.1901 3.4268
vt 0.1652 1.1844 3.4798
vt 0.1077 1.1834 3.4892
vt -2.3446 1.1927 0.3634
vt -2.4012 1.1928 0.3553
vt 3.3160 1.2019 -0.1684
vt 3.2594 1.2018 -0.1604
vt 1.1604 1.2018 3.2594
vt 0.6366 1.1927 3.3446
vt 0.6462 0.6439 3.3446
vt 1.1700 0.6531 3.2594
vt -2.4568 1.1844 0.8386
vt -2.4798 1.1844 0.8348
vt 3.4268 1.1901 0.5114
vt 3.4038 1.1900 0.5151
vt 0.4849 1.1900 3.4038
vt 0.1614 1.1844 3.4568
vt 0.1710 0.6356 3.4568
vt 0.4944 0.6413 3.4038
vt 1.0829 1.1801 -2.2695
vt 1.0740 0.6693 -2.2695
# 624 texture coords

g Kooli_9_2
usemtl lambert2SG
s 1
f 1/1/1 2/2/1 3/3/2 
f 3/3/2 4/4/2 1/1/1 
f 5/5/1 6/6/1 2/2/1 
f 2/2/1 1/1/1 5/5/1 
f 7/7/3 8/8/4 9/9/4 
f 9/9/4 10/10/3 7/7/3 
f 10/10/3 6/6/1 5/5/1 
f 5/5/1 7/7/3 10/10/3 
usemtl lambert4SG
s 2
f 5/11/5 1/12/5 11/13/5 
f 11/13/5 12/14/5 5/11/5 
f 1/12/5 4/15/5 13/16/5 
f 1/12/5 13/16/5 14/17/5 
f 1/12/5 14/17/5 11/13/5 
s off
f 15/18/6 13/19/6 4/20/6 
f 15/18/6 4/20/6 3/21/6 
f 15/18/6 3/21/6 16/22/6 
s 3
f 16/23/7 3/24/7 2/25/8 
f 2/25/8 17/26/8 16/23/7 
f 17/26/8 2/25/8 6/27/9 
f 6/27/9 18/28/9 17/26/8 
f 18/28/9 6/27/9 10/29/10 
f 10/29/10 19/30/10 18/28/9 
f 19/30/10 10/29/10 9/31/11 
f 9/31/11 20/32/11 19/30/10 
s off
f 21/33/12 20/34/12 9/35/12 
f 21/33/12 9/35/12 8/36/12 
f 21/33/12 8/36/12 22/37/12 
s 2
f 8/38/5 7/39/5 23/40/5 
f 23/40/5 22/41/5 8/38/5 
f 7/39/5 5/11/5 12/14/5 
f 12/14/5 23/40/5 7/39/5 
usemtl lambert2SG
s 4
f 24/7/13 25/8/14 26/9/14 
f 26/9/14 27/10/13 24/7/13 
f 27/10/13 28/6/15 29/5/15 
f 29/5/15 24/7/13 27/10/13 
f 29/5/15 28/6/15 30/2/16 
f 30/2/16 31/1/16 29/5/15 
f 31/1/16 30/2/16 32/3/17 
f 32/3/17 33/4/17 31/1/16 
usemtl lambert4SG
s 5
f 32/42/7 30/43/8 34/44/8 
f 32/42/7 34/44/8 35/45/7 
f 32/42/7 35/45/7 36/46/7 
f 28/47/18 37/48/18 34/44/8 
f 34/44/8 30/43/8 28/47/18 
f 27/49/19 38/50/19 37/48/18 
f 37/48/18 28/47/18 27/49/19 
f 26/51/11 39/52/11 38/50/19 
f 38/50/19 27/49/19 26/51/11 
s off
f 40/53/20 39/54/20 26/55/20 
f 40/53/20 26/55/20 25/56/20 
f 40/53/20 25/56/20 41/57/20 
s 6
f 24/58/5 42/59/5 41/60/5 
f 41/60/5 25/61/5 24/58/5 
f 29/62/5 43/63/5 42/59/5 
f 42/59/5 24/58/5 29/62/5 
f 31/64/5 44/65/5 43/63/5 
f 43/63/5 29/62/5 31/64/5 
f 45/66/5 44/65/5 31/64/5 
f 45/66/5 31/64/5 33/67/5 
f 45/66/5 33/67/5 46/68/5 
s off
f 33/69/6 32/70/6 36/71/6 
f 33/69/6 36/71/6 47/72/6 
f 33/69/6 47/72/6 46/73/6 
usemtl lambert2SG
s 7
f 48/7/2 49/8/16 50/9/16 
f 50/9/16 51/10/2 48/7/2 
f 52/1/2 53/2/2 54/3/1 
f 54/3/1 55/4/1 52/1/2 
f 56/5/15 57/6/15 53/2/2 
f 53/2/2 52/1/2 56/5/15 
f 51/10/2 57/6/15 56/5/15 
f 56/5/15 48/7/2 51/10/2 
usemtl lambert4SG
s 9
f 58/74/10 51/75/10 50/76/21 
f 50/76/21 59/77/21 58/74/10 
s off
f 50/78/22 49/79/22 60/80/22 
f 50/78/22 60/80/22 61/81/22 
f 50/78/22 61/81/22 59/82/22 
s 10
f 49/83/5 48/84/5 62/85/5 
f 62/85/5 60/86/5 49/83/5 
f 56/87/5 63/88/5 62/85/5 
f 62/85/5 48/84/5 56/87/5 
f 52/89/5 64/90/5 63/88/5 
f 63/88/5 56/87/5 52/89/5 
f 65/91/5 64/90/5 52/89/5 
f 65/91/5 52/89/5 55/92/5 
f 65/91/5 55/92/5 66/93/5 
s off
f 67/94/23 66/95/23 55/96/23 
f 67/94/23 55/96/23 54/97/23 
f 67/94/23 54/97/23 68/98/23 
s 9
f 69/99/7 68/100/7 54/101/7 
f 69/99/7 54/101/7 53/102/24 
f 69/99/7 53/102/24 70/103/24 
f 57/104/18 71/105/18 70/103/24 
f 70/103/24 53/102/24 57/104/18 
f 51/75/10 58/74/10 71/105/18 
f 71/105/18 57/104/18 51/75/10 
usemtl lambert2SG
s 12
f 72/1/25 73/2/25 74/3/3 
f 74/3/3 75/4/3 72/1/25 
f 76/5/26 77/6/26 73/2/25 
f 73/2/25 72/1/25 76/5/26 
f 78/10/27 77/6/26 76/5/26 
f 76/5/26 79/7/27 78/10/27 
f 79/7/27 80/8/2 81/9/2 
f 81/9/2 78/10/27 79/7/27 
usemtl lambert4SG
s 13
f 79/106/5 82/107/5 83/108/5 
f 83/108/5 80/109/5 79/106/5 
f 76/110/5 84/111/5 82/107/5 
f 82/107/5 79/106/5 76/110/5 
f 72/112/5 85/113/5 84/111/5 
f 84/111/5 76/110/5 72/112/5 
f 75/114/5 86/115/5 85/113/5 
f 85/113/5 72/112/5 75/114/5 
s off
f 87/116/28 86/117/28 75/118/28 
f 87/116/28 75/118/28 74/119/28 
f 87/116/28 74/119/28 88/120/28 
s 14
f 73/121/24 89/122/24 88/123/29 
f 88/123/29 74/124/29 73/121/24 
f 77/125/18 90/126/18 89/122/24 
f 89/122/24 73/121/24 77/125/18 
f 78/127/30 91/128/30 90/126/18 
f 90/126/18 77/125/18 78/127/30 
f 81/129/31 92/130/31 91/128/30 
f 91/128/30 78/127/30 81/129/31 
s off
f 81/131/32 80/132/32 83/133/32 
f 81/131/32 83/133/32 93/134/32 
f 81/131/32 93/134/32 92/135/32 
usemtl lambert2SG
s 15
f 94/1/15 95/2/15 96/3/13 
f 96/3/13 97/4/13 94/1/15 
f 98/5/1 99/6/1 95/2/15 
f 95/2/15 94/1/15 98/5/1 
f 100/10/26 99/6/1 98/5/1 
f 98/5/1 101/7/26 100/10/26 
f 101/7/26 102/8/25 103/9/25 
f 103/9/25 100/10/26 101/7/26 
usemtl lambert4SG
s 16
f 101/136/5 104/137/5 105/138/5 
f 105/138/5 102/139/5 101/136/5 
f 98/140/5 106/141/5 104/137/5 
f 104/137/5 101/136/5 98/140/5 
f 94/142/5 107/143/5 106/141/5 
f 106/141/5 98/140/5 94/142/5 
f 97/144/5 108/145/5 107/143/5 
f 107/143/5 94/142/5 97/144/5 
s off
f 109/146/33 108/147/33 97/148/33 
f 109/146/33 97/148/33 96/149/33 
f 109/146/33 96/149/33 110/150/33 
s 17
f 95/151/34 111/152/34 110/153/35 
f 110/153/35 96/154/35 95/151/34 
f 99/155/18 112/156/18 111/152/34 
f 111/152/34 95/151/34 99/155/18 
f 100/157/36 113/158/36 112/156/18 
f 112/156/18 99/155/18 100/157/36 
f 103/159/37 114/160/37 113/158/36 
f 113/158/36 100/157/36 103/159/37 
s off
f 103/161/12 102/162/12 105/163/12 
f 103/161/12 105/163/12 115/164/12 
f 103/161/12 115/164/12 114/165/12 
usemtl lambert2SG
s 18
f 116/1/15 117/2/15 118/3/15 
f 118/3/15 119/4/15 116/1/15 
f 120/5/26 121/6/26 117/2/15 
f 117/2/15 116/1/15 120/5/26 
f 122/10/2 121/6/26 120/5/26 
f 120/5/26 123/7/2 122/10/2 
f 123/7/2 124/8/1 125/9/1 
f 125/9/1 122/10/2 123/7/2 
usemtl lambert4SG
s 19
f 123/166/5 126/167/5 127/168/5 
f 127/168/5 124/169/5 123/166/5 
f 120/170/5 128/171/5 126/167/5 
f 126/167/5 123/166/5 120/170/5 
f 116/172/5 129/173/5 128/171/5 
f 128/171/5 120/170/5 116/172/5 
f 119/174/5 130/175/5 129/173/5 
f 129/173/5 116/172/5 119/174/5 
s off
f 131/176/38 130/177/38 119/178/38 
f 131/176/38 119/178/38 118/179/38 
f 131/176/38 118/179/38 132/180/38 
s 20
f 117/181/34 133/182/34 132/183/35 
f 132/183/35 118/184/35 117/181/34 
f 121/185/18 134/186/18 133/182/34 
f 133/182/34 117/181/34 121/185/18 
f 122/187/36 135/188/36 134/186/18 
f 134/186/18 121/185/18 122/187/36 
f 125/189/39 136/190/39 135/188/36 
f 135/188/36 122/187/36 125/189/39 
s off
f 125/191/40 124/192/40 127/193/40 
f 125/191/40 127/193/40 137/194/40 
f 125/191/40 137/194/40 136/195/40 
usemtl lambert2SG
s 21
f 138/1/27 139/2/27 140/3/16 
f 140/3/16 141/4/16 138/1/27 
f 142/5/1 143/6/1 139/2/27 
f 139/2/27 138/1/27 142/5/1 
f 144/10/1 143/6/1 142/5/1 
f 142/5/1 145/7/1 144/10/1 
f 145/7/1 146/8/26 147/9/26 
f 147/9/26 144/10/1 145/7/1 
usemtl lambert4SG
s 22
f 145/196/5 148/197/5 149/198/5 
f 149/198/5 146/199/5 145/196/5 
f 142/200/5 150/201/5 148/197/5 
f 148/197/5 145/196/5 142/200/5 
f 138/202/5 151/203/5 150/201/5 
f 150/201/5 142/200/5 138/202/5 
f 141/204/5 152/205/5 151/203/5 
f 151/203/5 138/202/5 141/204/5 
s off
f 153/206/41 152/207/41 141/208/41 
f 153/206/41 141/208/41 140/209/41 
f 153/206/41 140/209/41 154/210/41 
s 23
f 139/211/34 155/212/34 154/213/35 
f 154/213/35 140/214/35 139/211/34 
f 143/215/18 156/216/18 155/212/34 
f 155/212/34 139/211/34 143/215/18 
f 144/217/36 157/218/36 156/216/18 
f 156/216/18 143/215/18 144/217/36 
f 147/219/37 158/220/37 157/218/36 
f 157/218/36 144/217/36 147/219/37 
s off
f 147/221/42 146/222/42 149/223/42 
f 147/221/42 149/223/42 159/224/42 
f 147/221/42 159/224/42 158/225/42 
usemtl lambert5SG
f 160/226/43 161/227/43 162/228/43 
f 163/229/44 164/230/44 165/231/44 
f 165/231/44 166/232/44 163/229/44 
f 166/233/45 165/234/45 167/235/45 
f 167/235/45 168/236/45 166/233/45 
f 169/237/46 168/238/46 167/239/46 
f 167/239/46 170/240/46 169/237/46 
f 171/241/47 172/242/47 173/243/47 
f 173/243/47 174/244/47 171/241/47 
f 173/243/48 172/242/48 175/245/48 
f 175/245/48 176/246/48 173/243/48 
usemtl lambert7SG
f 177/247/49 178/248/49 179/249/49 
f 179/249/49 180/250/49 177/247/49 
usemtl lambert5SG
f 181/251/50 164/230/50 163/252/50 
f 163/252/50 160/226/50 181/251/50 
f 174/244/51 169/237/51 170/240/51 
f 170/240/51 171/241/51 174/244/51 
f 175/245/5 164/230/5 181/251/5 
f 181/251/5 162/228/5 175/245/5 
f 170/240/5 167/239/5 165/231/5 
f 165/231/5 164/230/5 175/245/5 
f 165/231/5 175/245/5 172/242/5 
f 170/240/5 165/231/5 172/242/5 
f 170/240/5 172/242/5 171/241/5 
f 181/251/52 160/226/52 162/228/52 
f 161/253/53 176/254/53 175/255/53 
f 175/255/53 162/256/53 161/253/53 
usemtl lambert6SG
s 26
f 16/257/54 17/258/55 182/259/55 
f 182/259/55 183/260/54 16/257/54 
f 17/258/55 18/261/56 184/262/56 
f 184/262/56 182/259/55 17/258/55 
f 19/263/57 185/264/57 184/262/56 
f 184/262/56 18/261/56 19/263/57 
f 20/265/58 186/266/58 185/264/57 
f 185/264/57 19/263/57 20/265/58 
s 27
f 35/267/59 34/268/60 187/269/60 
f 187/269/60 188/270/59 35/267/59 
f 36/271/61 35/267/59 188/270/59 
f 188/270/59 189/272/61 36/271/61 
f 34/268/60 37/273/62 190/274/62 
f 190/274/62 187/269/60 34/268/60 
f 38/275/63 191/276/63 190/274/62 
f 190/274/62 37/273/62 38/275/63 
f 39/265/64 192/266/64 191/276/63 
f 191/276/63 38/275/63 39/265/64 
s 28
f 59/277/65 193/278/65 194/279/66 
f 194/279/66 58/280/66 59/277/65 
f 68/281/67 69/282/68 195/283/68 
f 195/283/68 196/284/67 68/281/67 
f 69/282/68 70/285/69 197/286/69 
f 197/286/69 195/283/68 69/282/68 
f 70/285/69 71/287/70 198/288/70 
f 198/288/70 197/286/69 70/285/69 
f 58/280/66 194/279/66 198/288/70 
f 198/288/70 71/287/70 58/280/66 
s 30
f 88/289/71 89/290/72 199/291/72 
f 199/291/72 200/292/71 88/289/71 
f 89/290/72 90/293/73 201/294/73 
f 201/294/73 199/291/72 89/290/72 
f 91/295/74 202/296/74 201/294/73 
f 201/294/73 90/293/73 91/295/74 
f 92/297/75 203/266/75 202/296/74 
f 202/296/74 91/295/74 92/297/75 
s 31
f 110/298/76 111/299/15 204/300/15 
f 204/300/15 205/301/76 110/298/76 
f 111/299/15 112/302/77 206/303/77 
f 206/303/77 204/300/15 111/299/15 
f 113/304/78 207/305/78 206/303/77 
f 206/303/77 112/302/77 113/304/78 
f 114/306/79 208/307/79 207/305/78 
f 207/305/78 113/304/78 114/306/79 
s 32
f 132/308/80 133/299/1 209/300/1 
f 209/300/1 210/301/80 132/308/80 
f 133/299/1 134/302/81 211/303/81 
f 211/303/81 209/300/1 133/299/1 
f 135/309/82 212/310/82 211/303/81 
f 211/303/81 134/302/81 135/309/82 
f 136/306/83 213/307/83 212/310/82 
f 212/310/82 135/309/82 136/306/83 
s 33
f 154/308/84 155/299/78 214/300/78 
f 214/300/78 215/301/84 154/308/84 
f 155/299/78 156/302/1 216/303/1 
f 216/303/1 214/300/78 155/299/78 
f 157/304/85 217/305/85 216/303/1 
f 216/303/1 156/302/1 157/304/85 
f 158/306/86 218/307/86 217/305/85 
f 217/305/85 157/304/85 158/306/86 
usemtl lambert8SG
s off
f 219/311/87 220/312/87 221/313/87 
f 221/313/87 222/314/87 219/311/87 
usemtl Material__422
f 223/315/88 224/316/88 225/317/88 
f 225/317/88 226/318/88 223/315/88 
usemtl lambert6SG
s 25
f 227/319/89 228/320/90 229/321/91 
f 229/321/91 230/322/92 227/319/89 
f 231/323/93 232/324/94 233/325/95 
f 233/325/95 234/326/96 231/323/93 
usemtl lambert7SG
s off
f 235/327/97 236/249/97 179/249/97 
f 179/249/97 237/327/97 235/327/97 
usemtl lambert6SG
f 238/328/98 239/329/98 240/330/98 
f 240/330/98 241/331/98 238/328/98 
usemtl lambert4SG
f 242/332/99 243/333/99 166/334/99 
f 166/334/99 168/335/99 244/336/99 
f 166/334/99 244/336/99 245/337/99 
f 245/337/99 246/338/99 247/339/99 
f 166/334/99 245/337/99 247/339/99 
f 242/332/99 166/334/99 247/339/99 
f 169/340/100 248/341/100 244/336/100 
f 244/336/100 168/335/100 169/340/100 
f 174/342/101 249/343/101 248/341/101 
f 248/341/101 169/340/101 174/342/101 
f 250/344/102 251/345/102 173/346/102 
f 173/346/102 176/347/102 250/344/102 
f 176/347/103 161/348/103 252/349/103 
f 176/347/103 252/349/103 253/350/103 
f 176/347/103 253/350/103 254/351/103 
f 176/347/103 254/351/103 250/344/103 
f 240/352/104 255/353/104 237/354/104 
f 240/352/104 237/354/104 179/355/104 
f 240/352/104 179/355/104 178/356/104 
f 240/352/104 178/356/104 241/357/104 
f 178/358/105 177/359/105 256/360/105 
f 256/360/105 241/361/105 178/358/105 
s 24
f 237/362/106 257/363/107 258/364/107 
f 258/364/107 259/365/106 237/362/106 
s off
f 238/366/108 241/367/108 260/368/108 
f 238/366/108 260/368/108 254/369/108 
f 238/366/108 254/369/108 253/370/108 
f 241/367/109 256/371/109 261/372/109 
f 261/372/109 260/368/109 241/367/109 
f 255/373/110 240/374/110 239/375/110 
f 239/375/110 238/366/110 253/370/110 
f 239/375/110 253/370/110 252/376/110 
f 255/373/110 239/375/110 252/376/110 
f 252/349/111 161/348/111 160/377/111 
f 160/377/111 262/378/111 252/349/111 
f 262/378/111 160/377/111 163/379/111 
f 163/379/111 263/380/111 262/378/111 
f 243/333/111 263/380/111 163/379/111 
f 163/379/111 166/334/111 243/333/111 
f 249/343/111 174/342/111 173/346/111 
f 173/346/111 251/345/111 249/343/111 
f 264/381/112 265/382/112 260/383/112 
f 260/383/112 261/384/112 264/381/112 
f 265/382/112 250/385/112 254/386/112 
f 254/386/112 260/383/112 265/382/112 
f 252/387/107 262/388/107 257/363/107 
f 252/387/107 257/363/107 237/362/107 
f 252/389/107 237/390/107 255/391/107 
f 266/392/113 258/393/113 257/394/113 
f 257/394/113 267/395/113 266/392/113 
f 267/395/113 257/394/113 262/396/113 
f 262/396/113 263/397/113 267/395/113 
f 268/398/114 266/399/114 267/400/114 
f 267/400/114 269/401/114 268/398/114 
f 269/401/114 267/400/114 263/402/114 
f 263/402/114 243/403/114 269/401/114 
f 270/404/115 268/405/115 269/406/115 
f 269/406/115 232/407/115 270/404/115 
s 25
f 243/408/116 242/409/117 233/410/118 
f 243/408/116 233/410/118 232/407/116 
f 243/408/116 232/407/116 269/406/116 
s off
f 271/411/119 272/412/119 273/413/119 
f 273/413/119 40/414/119 41/415/119 
f 271/411/119 273/413/119 41/415/119 
f 271/411/119 41/415/119 42/416/119 
f 271/411/119 42/416/119 43/417/119 
f 271/411/119 43/417/119 44/418/119 
f 271/411/119 44/418/119 45/419/119 
f 11/420/120 14/421/120 274/422/120 
f 274/422/120 271/411/120 45/419/120 
f 274/422/120 45/419/120 46/423/120 
f 46/423/120 47/424/120 21/425/120 
f 46/423/120 21/425/120 22/426/120 
f 274/422/120 46/423/120 22/426/120 
f 274/422/120 22/426/120 23/427/120 
f 274/422/120 23/427/120 12/428/120 
f 11/420/120 274/422/120 12/428/120 
f 64/429/121 65/430/121 275/431/121 
f 275/431/121 274/422/121 14/421/121 
f 275/431/121 14/421/121 13/432/121 
f 13/432/121 15/433/121 61/434/121 
f 13/432/121 61/434/121 60/435/121 
f 275/431/121 13/432/121 60/435/121 
f 275/431/121 60/435/121 62/436/121 
f 275/431/121 62/436/121 63/437/121 
f 64/429/121 275/431/121 63/437/121 
f 108/438/1 109/439/1 137/440/1 
f 108/438/1 137/440/1 127/441/1 
f 130/442/1 131/443/1 159/444/1 
f 130/442/1 159/444/1 149/445/1 
f 152/446/1 153/447/1 265/382/1 
f 152/446/1 265/382/1 264/381/1 
f 151/448/1 152/446/1 264/381/1 
f 150/449/1 151/448/1 264/381/1 
f 148/450/1 150/449/1 264/381/1 
f 149/445/1 148/450/1 264/381/1 
f 130/442/1 149/445/1 264/381/1 
f 129/451/1 130/442/1 264/381/1 
f 128/452/1 129/451/1 264/381/1 
f 126/453/1 128/452/1 264/381/1 
f 127/441/1 126/453/1 264/381/1 
f 108/438/1 127/441/1 264/381/1 
f 264/381/1 275/431/1 65/430/1 
f 264/381/1 65/430/1 66/454/1 
f 66/454/1 67/455/1 93/456/1 
f 66/454/1 93/456/1 83/457/1 
f 264/381/1 66/454/1 83/457/1 
f 264/381/1 83/457/1 82/458/1 
f 264/381/1 82/458/1 84/459/1 
f 264/381/1 84/459/1 85/460/1 
f 264/381/1 85/460/1 86/461/1 
f 86/461/1 87/462/1 115/463/1 
f 86/461/1 115/463/1 105/464/1 
f 264/381/1 86/461/1 105/464/1 
f 264/381/1 105/464/1 104/465/1 
f 264/381/1 104/465/1 106/466/1 
f 264/381/1 106/466/1 107/467/1 
f 108/438/1 264/381/1 107/467/1 
f 196/468/122 195/469/122 197/470/122 
f 193/471/122 59/472/122 61/434/122 
f 61/434/122 15/433/122 16/473/122 
f 193/471/122 61/434/122 16/473/122 
f 193/471/122 16/473/122 183/474/122 
f 194/475/122 193/471/122 183/474/122 
f 194/475/122 183/474/122 182/476/122 
f 198/477/122 194/475/122 182/476/122 
f 198/477/122 182/476/122 184/478/122 
f 186/479/122 20/480/122 21/425/122 
f 21/425/122 47/424/122 36/481/122 
f 186/479/122 21/425/122 36/481/122 
f 186/479/122 36/481/122 189/482/122 
f 185/483/122 186/479/122 189/482/122 
f 184/478/122 185/483/122 189/482/122 
f 184/478/122 189/482/122 188/484/122 
f 184/478/122 188/484/122 187/485/122 
f 192/486/122 39/487/122 40/414/122 
f 40/414/122 273/413/122 244/488/122 
f 192/486/122 40/414/122 244/488/122 
f 191/489/122 192/486/122 244/488/122 
f 190/490/122 191/489/122 244/488/122 
f 187/485/122 190/490/122 244/488/122 
f 187/485/122 244/488/122 248/491/122 
f 184/478/122 187/485/122 248/491/122 
f 198/477/122 184/478/122 248/491/122 
f 250/385/122 265/382/122 153/447/122 
f 153/447/122 154/492/122 215/493/122 
f 250/385/122 153/447/122 215/493/122 
f 250/385/122 215/493/122 214/494/122 
f 251/495/122 250/385/122 214/494/122 
f 249/496/122 251/495/122 214/494/122 
f 248/491/122 249/496/122 214/494/122 
f 248/341/122 214/497/122 216/498/122 
f 218/499/122 158/500/122 159/444/122 
f 159/444/122 131/443/122 132/501/122 
f 218/499/122 159/444/122 132/501/122 
f 218/499/122 132/501/122 210/502/122 
f 217/503/122 218/499/122 210/502/122 
f 217/503/122 210/502/122 209/504/122 
f 216/505/122 217/503/122 209/504/122 
f 216/505/122 209/504/122 211/506/122 
f 248/491/122 216/505/122 211/506/122 
f 213/507/122 136/508/122 137/440/122 
f 137/440/122 109/439/122 110/509/122 
f 213/507/122 137/440/122 110/509/122 
f 213/507/122 110/509/122 205/510/122 
f 212/511/122 213/507/122 205/510/122 
f 212/511/122 205/510/122 204/512/122 
f 211/506/122 212/511/122 204/512/122 
f 211/506/122 204/512/122 206/513/122 
f 248/491/122 211/506/122 206/513/122 
f 208/514/122 114/515/122 115/463/122 
f 115/463/122 87/462/122 88/516/122 
f 208/514/122 115/463/122 88/516/122 
f 208/514/122 88/516/122 200/517/122 
f 207/518/122 208/514/122 200/517/122 
f 207/518/122 200/517/122 199/519/122 
f 206/513/122 207/518/122 199/519/122 
f 206/513/122 199/519/122 201/520/122 
f 248/491/122 206/513/122 201/520/122 
f 198/477/122 248/491/122 201/520/122 
f 197/521/122 198/477/122 201/520/122 
f 197/521/122 201/520/122 202/522/122 
f 196/523/122 197/521/122 202/522/122 
f 196/523/122 202/522/122 203/524/122 
f 203/524/122 92/525/122 93/456/122 
f 196/523/122 203/524/122 93/456/122 
f 196/523/122 93/456/122 67/455/122 
f 196/523/122 67/455/122 68/526/122 
s 25
f 230/527/123 245/528/124 244/529/125 
f 230/527/123 244/529/125 273/530/125 
f 230/527/123 273/530/125 227/531/125 
s off
f 276/532/93 227/531/93 273/530/93 
f 273/530/93 272/533/93 276/532/93 
s 25
f 230/527/123 229/534/94 246/535/126 
f 246/535/126 245/528/124 230/527/123 
f 229/534/94 228/536/127 231/537/127 
f 229/534/94 231/537/127 234/538/128 
f 229/534/94 234/538/128 247/539/90 
f 229/534/94 247/539/90 246/535/126 
s off
f 228/536/91 277/540/91 278/541/91 
f 278/541/91 231/537/91 228/536/91 
s 25
f 242/409/117 247/539/90 234/538/128 
f 234/538/128 233/410/118 242/409/117 
s off
f 222/542/129 221/543/129 277/544/129 
f 277/544/129 228/545/129 222/542/129 
f 219/546/111 222/547/111 228/548/111 
f 228/548/111 227/549/111 219/546/111 
f 220/550/130 219/551/130 227/552/130 
f 227/552/130 276/553/130 220/550/130 
f 226/554/131 225/555/131 270/556/131 
f 270/556/131 232/557/131 226/554/131 
f 223/558/111 226/559/111 232/560/111 
f 232/560/111 231/561/111 223/558/111 
f 224/562/132 223/563/132 231/564/132 
f 231/564/132 278/565/132 224/562/132 
f 279/566/133 236/567/133 235/568/133 
f 235/568/133 280/569/133 279/566/133 
s 24
f 280/570/134 235/571/134 237/390/106 
f 237/362/106 259/365/106 280/572/134 
s off
f 279/573/111 280/574/111 259/575/111 
f 259/575/111 180/576/111 279/573/111 
f 236/577/135 279/578/135 180/579/135 
f 180/579/135 179/580/135 236/577/135 
f 281/581/105 282/582/105 256/360/105 
f 256/360/105 177/359/105 281/581/105 
f 283/583/136 284/584/136 259/365/136 
f 259/365/136 258/364/136 283/583/136 
f 256/371/109 282/585/109 285/586/109 
f 285/586/109 261/372/109 256/371/109 
f 284/587/137 286/588/137 180/589/137 
f 180/589/137 259/590/137 284/587/137 
f 285/591/112 287/592/112 264/381/112 
f 264/381/112 261/384/112 285/591/112 
f 288/593/113 283/594/113 258/393/113 
f 258/393/113 266/392/113 288/593/113 
f 289/595/114 288/596/114 266/399/114 
f 266/399/114 268/398/114 289/595/114 
f 290/597/93 291/598/93 276/532/93 
f 276/532/93 272/533/93 290/597/93 
f 292/599/119 290/600/119 272/412/119 
f 272/412/119 271/411/119 292/599/119 
f 293/601/120 292/599/120 271/411/120 
f 271/411/120 274/422/120 293/601/120 
f 294/602/121 293/601/121 274/422/121 
f 274/422/121 275/431/121 294/602/121 
f 287/592/1 294/602/1 275/431/1 
f 275/431/1 264/381/1 287/592/1 
f 295/603/91 296/604/91 278/541/91 
f 278/541/91 277/540/91 295/603/91 
f 297/605/115 289/606/115 268/405/115 
f 268/405/115 270/404/115 297/605/115 
f 298/607/129 295/608/129 277/544/129 
f 277/544/129 221/543/129 298/607/129 
f 291/609/130 299/610/130 220/550/130 
f 220/550/130 276/553/130 291/609/130 
f 299/611/87 298/612/87 221/613/87 
f 221/613/87 220/614/87 299/611/87 
f 300/615/131 297/616/131 270/556/131 
f 270/556/131 225/555/131 300/615/131 
f 296/617/132 301/618/132 224/562/132 
f 224/562/132 278/565/132 296/617/132 
f 301/619/88 300/620/88 225/621/88 
f 225/621/88 224/622/88 301/619/88 
f 286/588/49 281/623/49 177/624/49 
f 177/624/49 180/589/49 286/588/49 
# 0 polygons - 579 triangles

