# 3ds Max Wavefront OBJ Exporter v0.97b - (c)2007 guruware
# File Created: 20.10.2011 12:48:47

mtllib Myyrivahe_60.mtl

#
# object myv_60
#

v  236.4360 144.7796 11.6844
v  242.7050 124.7525 12.6062
v  235.9100 146.4600 12.6062
v  235.9100 146.4600 11.6844
v  236.8412 143.4854 11.6844
v  237.2111 142.3037 11.6844
v  237.6162 141.0095 11.6844
v  237.9835 139.8363 11.6844
v  238.3886 138.5421 11.6844
v  238.7523 137.3802 11.6844
v  239.1574 136.0860 11.6844
v  239.5223 134.9203 11.6844
v  239.9274 133.6261 11.6844
v  240.6813 131.2178 11.6844
v  241.0858 129.9258 11.6844
v  241.6941 127.9825 11.6844
v  242.0969 126.6958 11.6844
v  242.7051 124.7525 12.0024
v  242.7052 124.7525 11.6844
v  242.0970 126.6958 9.8699
v  242.0971 126.6959 8.4822
v  242.7054 124.7527 8.4822
v  242.7053 124.7526 9.8699
v  240.6815 131.2179 8.4822
v  241.0860 129.9259 8.4822
v  241.0859 129.9258 9.8699
v  240.6814 131.2178 9.8699
v  239.9276 133.6262 8.4822
v  239.9275 133.6262 9.8699
v  236.4360 144.7796 9.8699
v  235.9100 146.4600 9.8699
v  235.9100 146.4600 8.4822
v  236.4361 144.7796 8.4822
v  236.8412 143.4854 9.8699
v  236.8412 143.4855 8.4822
v  237.2111 142.3037 9.8699
v  237.2111 142.3037 8.4822
v  237.6163 141.0095 9.8699
v  237.6163 141.0095 8.4822
v  237.9835 139.8363 9.8699
v  237.9836 139.8363 8.4822
v  238.3886 138.5421 9.8699
v  238.3887 138.5421 8.4822
v  238.7523 137.3802 9.8699
v  238.7524 137.3802 8.4822
v  239.1575 136.0860 9.8699
v  239.1575 136.0860 8.4822
v  239.5224 134.9204 9.8699
v  239.5224 134.9204 8.4822
v  235.9100 146.4600 6.7156
v  236.4361 144.7797 6.7156
v  236.8412 143.4855 6.7156
v  237.2112 142.3037 6.7156
v  237.6163 141.0095 6.7156
v  237.9836 139.8363 6.7156
v  239.1576 136.0861 6.7156
v  239.5225 134.9205 6.7156
v  238.3887 138.5421 6.7156
v  238.7525 137.3803 6.7156
v  241.6942 127.9826 9.8699
v  242.0972 126.6959 6.7156
v  242.7055 124.7528 6.7156
v  241.0861 129.9259 6.1959
v  241.1814 129.9558 8.4822
v  241.0861 129.9259 5.9193
v  241.1815 129.9558 5.9193
v  240.7769 131.2478 8.4822
v  240.6816 131.2179 6.1959
v  240.6816 131.2179 5.9193
v  240.7771 131.2478 5.9193
v  238.4840 138.5719 11.6844
v  238.0789 139.8661 11.6844
v  238.0789 139.8661 9.8699
v  238.4841 138.5719 9.8699
v  238.4842 138.5720 6.7156
v  238.4841 138.5720 8.4822
v  238.0790 139.8662 8.4822
v  238.0790 139.8662 6.7156
v  241.1812 129.9557 11.6844
v  240.7768 131.2477 11.6844
v  240.7769 131.2477 9.8699
v  241.1813 129.9557 9.8699
v  240.0229 133.6560 11.6844
v  239.6177 134.9502 11.6844
v  239.6178 134.9503 9.8699
v  240.0229 133.6561 9.8699
v  239.2529 136.1159 11.6844
v  238.8477 137.4100 11.6844
v  238.8478 137.4101 9.8699
v  239.2529 136.1159 9.8699
v  236.9366 143.5153 11.6844
v  236.5315 144.8095 11.6844
v  236.5315 144.8095 9.8699
v  236.9366 143.5153 9.8699
v  237.7117 141.0393 11.6844
v  237.3065 142.3335 11.6844
v  237.3065 142.3336 9.8699
v  237.7117 141.0394 9.8699
v  236.9366 143.5153 6.7156
v  236.9366 143.5153 8.4822
v  236.5315 144.8095 8.4822
v  236.5315 144.8095 6.7156
v  237.7117 141.0394 6.7156
v  237.7117 141.0394 8.4822
v  237.3066 142.3336 8.4822
v  237.3066 142.3336 6.7156
v  240.0231 133.6561 6.7156
v  239.9277 133.6263 6.7156
v  240.0230 133.6561 8.4822
v  239.6179 134.9503 8.4822
v  239.6179 134.9503 6.7156
v  239.2530 136.1160 6.7156
v  239.2530 136.1159 8.4822
v  238.8478 137.4101 8.4822
v  238.8479 137.4102 6.7156
v  242.1923 126.7257 11.6844
v  241.7895 128.0124 11.6844
v  241.7896 128.0125 9.8699
v  242.1924 126.7257 9.8699
v  242.1925 126.7258 8.4822
v  241.6943 127.9826 8.4822
v  241.7897 128.0125 8.4822
v  241.6944 127.9827 6.7156
v  241.7898 128.0125 6.7156
v  242.1927 126.7258 6.7156
v  241.2974 129.2510 6.1959
v  242.7056 124.7528 6.1959
v  240.4198 132.0545 6.1959
v  235.9100 146.4600 6.1959
v  240.6816 131.2180 5.8692
v  235.9100 146.4600 5.0834
v  240.6817 131.2180 5.0834
v  241.0861 129.9259 5.8692
v  242.7057 124.7528 5.0834
v  241.0862 129.9260 5.0834
v  241.1790 129.7970 8.5960
v  241.0236 130.2935 9.0323
v  240.4980 129.5838 8.5960
v  240.8298 130.9125 9.0323
v  240.6850 131.3750 8.5960
v  240.0040 131.1618 8.5960
v  239.1646 147.4774 16.1567
v  235.9109 146.4601 13.2891
v  242.6133 125.0451 13.2891
v  245.9690 125.7362 16.1568
v  235.4271 146.3087 12.8565
v  242.1144 124.9475 12.8565
v  240.3954 131.1283 5.0833
v  240.7999 129.8363 5.0833
v  240.7998 129.8363 5.8692
v  240.3954 131.1283 5.8692
v  240.7998 129.8363 5.9193
v  240.3953 131.1283 5.9193
v  240.6711 131.2517 5.9193
v  240.6711 131.2517 5.8692
v  240.3510 131.1515 5.8692
v  240.3510 131.1515 5.9193
v  240.7766 129.7920 5.8692
v  240.7766 129.7920 5.9193
v  241.0967 129.8922 5.8692
v  241.0967 129.8922 5.9193
v  242.4136 124.6919 12.6062
v  235.6257 146.3710 12.6062
v  242.2094 124.6442 12.8565
v  242.7050 124.7524 12.8506
v  246.0559 125.4565 12.0323
v  244.2153 125.0697 12.8506
v  244.8605 125.2053 12.8506
v  246.0561 125.4565 12.8506
v  243.8145 124.9855 13.7913
v  246.0565 125.4565 15.6924
v  246.0566 125.4565 16.1568
v  242.7049 124.7524 13.2891
v  239.8627 134.6815 14.9106
v  242.4317 135.4857 15.4397
v  242.8022 135.2874 15.4975
v  239.7695 134.6523 14.8914
v  239.5782 134.2781 14.8335
v  241.9914 136.8922 15.4397
v  242.1827 137.2664 15.4975
v  239.4224 136.0880 14.9106
v  239.3292 136.0588 14.8914
v  238.9587 136.2571 14.8335
v  239.0477 135.9727 14.8335
v  242.7746 135.2787 15.6447
v  242.1551 137.2578 15.6447
v  239.8627 134.6815 13.4263
v  239.4224 136.0880 13.4263
v  239.7194 134.8126 14.8914
v  239.7394 134.7485 14.8914
v  239.4579 134.6625 14.8335
v  239.0779 135.8765 14.8335
v  239.3794 135.8985 14.8914
v  239.3594 135.9626 14.8914
v  239.4880 134.5662 14.8335
v  239.7194 134.8126 14.5579
v  239.7394 134.7485 13.3533
v  239.7194 134.8126 13.4537
v  239.7194 134.8126 13.3533
v  239.3794 135.8985 13.4537
v  239.3593 135.9626 13.3533
v  239.3794 135.8985 13.3533
v  239.3794 135.8985 14.5579
v  239.7695 134.6523 13.3533
v  239.3292 136.0588 13.3533
v  239.3294 136.0591 14.7457
v  239.3595 135.9628 14.7457
v  239.2092 135.9168 14.7523
v  239.1790 136.0130 14.7523
v  239.7396 134.7488 14.7457
v  239.7697 134.6525 14.7457
v  239.6194 134.6065 14.7523
v  239.5892 134.7028 14.7523
v  239.6955 134.8889 13.5337
v  239.6955 134.8889 14.4779
v  239.4033 135.8222 14.4779
v  239.4033 135.8222 13.5337
v  239.6764 134.8830 13.5337
v  239.7003 134.8066 13.4537
v  239.7003 134.8066 14.5579
v  239.6764 134.8830 14.4779
v  239.3603 135.8925 14.5579
v  239.3842 135.8162 14.4779
v  239.3603 135.8925 13.4537
v  239.3842 135.8162 13.5337
v  239.5506 134.2694 14.9807
v  238.9311 136.2485 14.9807
v  237.6803 141.6528 14.9106
v  240.2492 142.4570 15.4397
v  240.6198 142.2587 15.4975
v  237.5871 141.6236 14.8914
v  237.3958 141.2494 14.8335
v  239.8089 143.8635 15.4397
v  240.0002 144.2378 15.4975
v  237.2400 143.0593 14.9106
v  237.1468 143.0301 14.8914
v  236.7762 143.2285 14.8335
v  236.8653 142.9440 14.8335
v  240.5922 142.2500 15.6447
v  239.9726 144.2291 15.6447
v  237.6803 141.6528 13.4263
v  237.2399 143.0593 13.4263
v  237.5369 141.7839 14.8914
v  237.5570 141.7199 14.8914
v  237.2755 141.6338 14.8335
v  236.8954 142.8478 14.8335
v  237.1970 142.8698 14.8914
v  237.1769 142.9339 14.8914
v  237.3056 141.5376 14.8335
v  237.5369 141.7839 14.5579
v  237.5570 141.7199 13.3533
v  237.5369 141.7839 13.4537
v  237.5369 141.7839 13.3533
v  237.1970 142.8698 13.4537
v  237.1769 142.9339 13.3533
v  237.1970 142.8698 13.3533
v  237.1970 142.8698 14.5579
v  237.5871 141.6236 13.3533
v  237.1468 143.0301 13.3533
v  237.1469 143.0304 14.7457
v  237.1771 142.9341 14.7457
v  237.0267 142.8881 14.7523
v  236.9966 142.9843 14.7523
v  237.5571 141.7201 14.7457
v  237.5873 141.6239 14.7457
v  237.4369 141.5779 14.7523
v  237.4068 141.6741 14.7523
v  237.5130 141.8603 13.5337
v  237.5130 141.8603 14.4779
v  237.2209 142.7935 14.4779
v  237.2209 142.7935 13.5337
v  237.4939 141.8543 13.5337
v  237.5178 141.7779 13.4537
v  237.5178 141.7779 14.5579
v  237.4939 141.8543 14.4779
v  237.1779 142.8638 14.5579
v  237.2018 142.7875 14.4779
v  237.1779 142.8638 13.4537
v  237.2018 142.7875 13.5337
v  237.3682 141.2407 14.9807
v  236.7486 143.2198 14.9807
v  241.7839 128.2180 14.8914
v  241.8770 128.2472 14.9106
v  244.4460 129.0514 15.4397
v  244.8166 128.8531 15.4975
v  241.5926 127.8438 14.8335
v  244.0057 130.4579 15.4397
v  244.1970 130.8322 15.4975
v  241.4367 129.6537 14.9106
v  241.3436 129.6245 14.8914
v  240.9730 129.8229 14.8335
v  241.0620 129.5385 14.8335
v  244.7890 128.8444 15.6447
v  244.1694 130.8235 15.6447
v  241.8770 128.2472 13.4263
v  241.4367 129.6537 13.4263
v  241.7337 128.3783 14.8914
v  241.7537 128.3143 14.8914
v  241.4722 128.2282 14.8335
v  241.0922 129.4422 14.8335
v  241.3937 129.4642 14.8914
v  241.3737 129.5283 14.8914
v  241.5023 128.1320 14.8335
v  241.7337 128.3783 14.5579
v  241.7537 128.3143 13.3533
v  241.7337 128.3783 13.4537
v  241.7337 128.3783 13.3533
v  241.3937 129.4642 13.4537
v  241.3737 129.5283 13.3533
v  241.3937 129.4642 13.3533
v  241.3937 129.4642 14.5579
v  241.7839 128.2180 13.3533
v  241.3435 129.6245 13.3533
v  241.3437 129.6248 14.7457
v  241.3738 129.5285 14.7457
v  241.2235 129.4825 14.7523
v  241.1934 129.5787 14.7523
v  241.7539 128.3145 14.7457
v  241.7840 128.2183 14.7457
v  241.6337 128.1722 14.7523
v  241.6036 128.2685 14.7523
v  241.7098 128.4547 13.5337
v  241.7098 128.4547 14.4779
v  241.4176 129.3879 14.4779
v  241.4176 129.3879 13.5337
v  241.6907 128.4487 13.5337
v  241.7146 128.3723 13.4537
v  241.7146 128.3723 14.5579
v  241.6907 128.4487 14.4779
v  241.3746 129.4583 14.5579
v  241.3985 129.3819 14.4779
v  241.3746 129.4583 13.4537
v  241.3985 129.3819 13.5337
v  241.5650 127.8351 14.9807
v  240.9454 129.8142 14.9807
v  246.0548 125.4564 5.0834
v  244.2153 125.0697 13.7913
v  244.8606 125.2053 13.7913
v  246.0562 125.4565 13.7913
v  244.8400 125.3031 13.7913
v  244.1947 125.1676 13.7913
v  244.1947 125.1676 12.8506
v  244.8400 125.3032 12.8506
v  245.2334 128.1090 14.5486
v  244.7564 127.9590 14.5486
v  244.6065 128.4360 14.5486
v  245.0834 128.5859 14.5486
v  244.7564 127.9590 17.2103
v  245.2334 128.1090 17.2103
v  245.0834 128.5859 17.2103
v  244.6065 128.4360 17.2103
v  244.8218 128.0844 17.2103
v  245.1080 128.1744 17.2103
v  245.0180 128.4606 17.2103
v  244.7318 128.3706 17.2103
v  244.8218 128.0844 16.1218
v  245.1080 128.1744 16.1218
v  245.0180 128.4606 16.1218
v  244.7318 128.3706 16.1218
v  240.5265 129.6213 8.5881
v  240.5265 129.6213 7.4683
v  241.1233 129.8082 7.4683
v  241.1233 129.8081 8.5881
v  240.6489 131.3326 7.4712
v  240.0495 131.1449 7.4712
v  240.0495 131.1450 8.5910
v  240.6489 131.3326 8.5910
# 367 vertices

vn -0.9543 -0.2987 -0.0002
vn -0.9543 -0.2987 0.0000
vn -0.9543 -0.2987 -0.0001
vn -0.9543 -0.2988 -0.0001
vn -0.9543 -0.2988 0.0000
vn -0.2987 0.9543 0.0000
vn -0.2988 0.9543 0.0000
vn 0.0001 0.0000 -1.0000
vn 0.2988 -0.9543 0.0000
vn 0.0000 0.0000 -1.0000
vn 0.2987 -0.9543 0.0000
vn -0.0001 0.0000 1.0000
vn 0.0000 0.0000 1.0000
vn 0.1920 -0.6133 0.7662
vn -0.1999 0.6385 0.7432
vn -0.4978 -0.1559 0.8532
vn -0.6143 -0.1923 0.7653
vn -0.6143 -0.1923 0.7652
vn -0.6207 -0.1943 0.7596
vn -0.6195 -0.1940 0.7606
vn -0.6195 -0.1939 0.7606
vn -0.7323 -0.2292 -0.6412
vn -0.7337 -0.2297 -0.6395
vn -0.7323 -0.2293 -0.6412
vn -0.7337 -0.2297 -0.6394
vn 0.2035 -0.9791 -0.0001
vn 0.2056 -0.9786 -0.0001
vn 0.2056 -0.9786 0.0000
vn 0.2132 -0.9770 -0.0044
vn 0.1841 0.0576 -0.9812
vn 0.9364 0.2932 0.1929
vn -0.0401 -0.0126 -0.9991
vn 0.2926 -0.9562 -0.0013
vn -0.4858 -0.1521 -0.8608
vn -0.2926 0.9562 0.0013
vn -0.9364 -0.2932 -0.1929
vn -0.1841 -0.0576 0.9812
vn 0.2056 -0.9786 -0.0000
vn 0.9786 0.2056 0.0000
vn -0.9786 -0.2056 0.0001
vn 0.3000 -0.9540 0.0000
vn 0.9540 0.3000 0.0000
vn -0.2999 0.9540 0.0000
vn -0.9540 -0.3000 0.0000
vn 0.2988 -0.9543 -0.0001
vn -0.2988 0.9543 -0.0001
vn 0.2056 -0.9786 0.0001
# 47 vertex normals

vt -9.2775 1.5644 -0.9520
vt 11.7079 2.4861 -0.9526
vt -11.0383 2.4861 -0.9519
vt -11.0383 1.5644 -0.9519
vt -7.9214 1.5644 -0.9520
vt -6.6831 1.5644 -0.9520
vt -5.3269 1.5644 -0.9521
vt -4.0976 1.5644 -0.9521
vt -2.7415 1.5644 -0.9521
vt -1.5240 1.5644 -0.9522
vt -0.1679 1.5644 -0.9522
vt 1.0535 1.5644 -0.9522
vt 2.4097 1.5644 -0.9523
vt 4.9333 1.5644 -0.9523
vt 6.2871 1.5644 -0.9524
vt 8.3233 1.5644 -0.9524
vt 9.6716 1.5644 -0.9524
vt 11.7079 1.8824 -0.9526
vt 11.7079 1.5644 -0.9525
vt 9.6716 -0.2502 -0.9523
vt 9.6716 -1.6378 -0.9522
vt 11.7078 -1.6378 -0.9522
vt 11.7078 -0.2502 -0.9524
vt 4.9332 -1.6378 -0.9521
vt 6.2870 -1.6378 -0.9521
vt 6.2871 -0.2502 -0.9523
vt 4.9332 -0.2502 -0.9522
vt 2.4096 -1.6378 -0.9521
vt 2.4096 -0.2502 -0.9522
vt -9.2775 -0.2502 -0.9519
vt -11.0383 -0.2502 -0.9519
vt -11.0383 -1.6378 -0.9519
vt -9.2775 -1.6378 -0.9519
vt -7.9214 -0.2502 -0.9520
vt -7.9214 -1.6378 -0.9520
vt -6.6831 -0.2502 -0.9520
vt -6.6831 -1.6378 -0.9520
vt -5.3270 -0.2502 -0.9520
vt -5.3270 -1.6378 -0.9520
vt -4.0976 -0.2502 -0.9520
vt -4.0976 -1.6378 -0.9520
vt -2.7415 -0.2502 -0.9521
vt -2.7415 -1.6378 -0.9520
vt -1.5240 -0.2502 -0.9521
vt -1.5240 -1.6378 -0.9520
vt -0.1679 -0.2502 -0.9521
vt -0.1679 -1.6378 -0.9521
vt 1.0535 -0.2502 -0.9522
vt 1.0535 -1.6378 -0.9521
vt -11.0383 -3.4044 -0.9519
vt -9.2775 -3.4044 -0.9519
vt -7.9214 -3.4044 -0.9519
vt -6.6831 -3.4044 -0.9519
vt -5.3270 -3.4044 -0.9520
vt -4.0976 -3.4044 -0.9520
vt -0.1679 -3.4044 -0.9520
vt 1.0535 -3.4044 -0.9520
vt -2.7415 -3.4044 -0.9520
vt -1.5241 -3.4044 -0.9520
vt 8.3233 -0.2502 -0.9523
vt 9.6716 -3.4044 -0.9521
vt 11.7078 -3.4044 -0.9521
vt 0.5498 -2.0234 -5.5900
vt 0.5500 0.1804 -5.5900
vt 0.4500 0.1804 -5.5900
vt 0.5498 -2.3825 -5.5900
vt 0.4498 -2.3825 -5.5900
vt 0.4500 -5.5900 0.1804
vt 0.5500 -5.5900 0.1804
vt 0.5499 -4.2362 0.1804
vt 0.4499 -4.2362 0.1804
vt 0.4502 -1.9459 -4.2361
vt 0.4502 -2.3825 -4.2361
vt 0.5502 -2.3825 -4.2361
vt 0.4501 0.1804 -4.2362
vt 0.5501 0.1804 -4.2362
vt 0.4499 3.4385 3.3825
vt 0.5499 3.4385 3.3825
vt 0.5499 4.7947 3.3825
vt 0.4499 4.7946 3.3825
vt 0.5501 3.3825 4.7946
vt 0.4501 3.3825 4.7947
vt 0.4501 1.5680 4.7947
vt 0.5501 1.5680 4.7947
vt 0.4499 1.5680 3.4385
vt 0.5499 1.5680 3.4385
vt 0.5499 3.3825 3.4385
vt 0.4499 3.3825 3.4385
vt 0.4498 -1.5863 3.4386
vt 0.5498 -1.5863 3.4386
vt 0.5498 0.1804 3.4385
vt 0.4498 0.1804 3.4385
vt 0.4498 3.4385 0.1804
vt 0.5498 3.4385 0.1804
vt 0.5498 4.7947 0.1804
vt 0.4498 4.7947 0.1804
vt 0.5502 0.1804 4.7947
vt 0.4502 0.1804 4.7947
vt 0.4502 -1.5863 4.7947
vt 0.5502 -1.5863 4.7947
vt 0.4502 -5.5900 3.3825
vt 0.5502 -5.5900 3.3825
vt 0.5501 -4.2362 3.3825
vt 0.4501 -4.2362 3.3825
vt 0.5499 3.3825 -4.2362
vt 0.4499 3.3825 -4.2362
vt 0.4500 1.5680 -4.2362
vt 0.5500 1.5680 -4.2362
vt 0.4501 1.5680 -5.5900
vt 0.5501 1.5680 -5.5900
vt 0.5502 3.3825 -5.5900
vt 0.4502 3.3825 -5.5900
vt 0.4501 -1.7126 3.3825
vt 0.5501 -1.7126 3.3825
vt 0.5500 -0.3565 3.3825
vt 0.4500 -0.3565 3.3825
vt 0.5500 3.3825 -0.3565
vt 0.4500 3.3825 -0.3565
vt 0.4500 1.5680 -0.3565
vt 0.5500 1.5680 -0.3565
vt 0.4500 1.5680 -1.7126
vt 0.5500 1.5680 -1.7126
vt 0.5501 3.3825 -1.7126
vt 0.4501 3.3825 -1.7126
vt 0.4500 0.8649 3.3825
vt 0.5500 0.8649 3.3825
vt 0.5500 2.2211 3.3825
vt 0.4500 2.2211 3.3825
vt 0.5500 3.3825 2.2211
vt 0.4500 3.3825 2.2211
vt 0.4501 1.5680 2.2211
vt 0.5501 1.5680 2.2211
vt 0.4499 1.5680 0.8649
vt 0.5499 1.5680 0.8649
vt 0.5500 3.3825 0.8649
vt 0.4500 3.3825 0.8649
vt 0.4498 8.6184 3.3825
vt 0.5498 8.6185 3.3825
vt 0.5498 9.9746 3.3825
vt 0.4498 9.9746 3.3825
vt 0.5502 3.3825 9.9746
vt 0.4502 3.3825 9.9746
vt 0.4502 1.5680 9.9746
vt 0.5502 1.5680 9.9746
vt 0.4498 1.5680 8.6185
vt 0.5498 1.5680 8.6185
vt 0.5498 3.3825 8.6185
vt 0.4498 3.3825 8.6184
vt 0.4499 6.0240 3.3825
vt 0.5499 6.0240 3.3825
vt 0.5498 7.3801 3.3825
vt 0.4498 7.3801 3.3825
vt 0.5502 3.3825 7.3801
vt 0.4502 3.3825 7.3801
vt 0.4502 1.5680 7.3801
vt 0.5502 1.5680 7.3801
vt 0.4498 1.5680 6.0240
vt 0.5498 1.5680 6.0240
vt 0.5499 3.3825 6.0240
vt 0.4499 3.3825 6.0240
vt 0.4497 -1.5863 8.6185
vt 0.5497 -1.5863 8.6185
vt 0.5498 0.1804 8.6185
vt 0.4498 0.1804 8.6185
vt 0.4498 8.6185 0.1804
vt 0.5498 8.6185 0.1804
vt 0.5497 9.9746 0.1804
vt 0.4497 9.9746 0.1804
vt 0.5503 0.1804 9.9746
vt 0.4503 0.1804 9.9746
vt 0.4503 -1.5863 9.9746
vt 0.5503 -1.5863 9.9746
vt 0.4498 -1.5863 6.0240
vt 0.5498 -1.5863 6.0240
vt 0.5498 0.1804 6.0240
vt 0.4498 0.1804 6.0240
vt 0.4498 6.0240 0.1804
vt 0.5498 6.0240 0.1804
vt 0.5498 7.3801 0.1804
vt 0.4498 7.3801 0.1804
vt 0.5502 0.1804 7.3801
vt 0.4502 0.1804 7.3801
vt 0.4502 -1.5863 7.3802
vt 0.5502 -1.5863 7.3802
vt 0.4498 -1.5863 -1.7126
vt 0.5498 -1.5863 -1.7125
vt 0.5499 0.1804 -1.7126
vt 0.4499 0.1804 -1.7126
vt 0.4499 -1.7126 0.1804
vt 0.5499 -1.7126 0.1804
vt 0.5499 -0.3564 0.1804
vt 0.4499 -0.3564 0.1804
vt 0.5501 0.1804 -0.3564
vt 0.4501 0.1804 -0.3564
vt 0.4502 -1.5863 -0.3564
vt 0.5502 -1.5863 -0.3564
vt 0.4498 -1.5863 0.8650
vt 0.5498 -1.5863 0.8650
vt 0.5499 0.1804 0.8650
vt 0.4499 0.1804 0.8650
vt 0.4499 0.8650 0.1804
vt 0.5499 0.8650 0.1804
vt 0.5499 2.2211 0.1804
vt 0.4499 2.2211 0.1804
vt 0.5501 0.1804 2.2211
vt 0.4501 0.1804 2.2211
vt 0.4502 -1.5863 2.2211
vt 0.5502 -1.5863 2.2211
vt 0.4503 -8.9746 3.3825
vt 0.5503 -8.9746 3.3825
vt 0.5502 -7.6263 3.3825
vt 0.4502 -7.6263 3.3825
vt 0.5498 3.3825 -7.6263
vt 0.4498 3.3825 -7.6263
vt 0.4499 1.5680 -7.6262
vt 0.5499 1.5680 -7.6262
vt 0.4501 1.5680 -8.9746
vt 0.5501 1.5680 -8.9746
vt 0.5503 3.3825 -8.9746
vt 0.4503 3.3825 -8.9746
vt 0.4500 -8.9746 0.1804
vt 0.5500 -8.9746 0.1804
vt 0.5500 -7.6262 0.1804
vt 0.4500 -7.6262 0.1804
vt 0.5500 0.1804 -7.6262
vt 0.4500 0.1804 -7.6262
vt 0.4501 -1.5863 -7.6262
vt 0.5501 -1.5863 -7.6262
vt 0.4499 -1.5863 -8.9745
vt 0.5499 -1.5863 -8.9745
vt 0.5500 0.1804 -8.9746
vt 0.4500 0.1804 -8.9746
vt 8.3233 -3.4044 -0.9520
vt 7.2054 -3.8416 -0.9520
vt 11.7078 -3.8416 -0.9520
vt 8.3233 -1.6378 -0.9522
vt 6.2870 -3.8416 -0.9520
vt 3.5670 -3.7696 -0.9520
vt 2.4096 -3.4044 -0.9520
vt 4.9332 -3.7641 -0.9520
vt -11.0383 -3.8287 -0.9519
vt 5.0985 0.7295 0.5000
vt -10.8730 1.0563 0.5001
vt -10.8730 -0.0563 0.5001
vt 5.0985 -0.0563 0.5000
vt 4.2219 1.0563 0.5000
vt 5.0985 0.7797 0.5000
vt 6.4523 0.7797 0.5000
vt 7.1596 1.0563 0.5000
vt 6.4523 1.0563 0.5000
vt 5.0985 1.0563 0.5000
vt 6.4523 0.7295 0.5000
vt 11.8730 -0.0563 0.5000
vt 11.8730 1.0563 0.4999
vt 6.4523 -0.0563 0.5000
vt 0.0005 0.0005 0.0005
vt 0.9995 0.0005 0.0023
vt 0.9995 0.9995 0.0036
vt 0.0005 0.9995 0.0017
vt 0.0005 0.0005 0.9977
vt 0.9995 0.0005 0.9995
vt 0.9995 0.0005 0.0025
vt 0.9995 0.9995 0.0038
vt 0.0005 0.0005 0.9975
vt 0.0005 0.9995 0.0015
vt 0.9995 0.9995 0.0032
vt 0.0005 0.9995 0.0013
vt 0.9995 0.0005 0.5249
vt 0.9995 0.9995 1.0005
vt 0.0005 0.9995 0.4385
vt 0.8568 -0.2123 0.2818
vt 0.8568 0.2359 0.7182
vt 0.1432 -0.2123 0.2818
vt 0.1432 0.7182 0.7947
vt 0.1432 0.2818 1.2123
vt 0.8568 0.2818 1.2123
vt 0.1432 1.2123 0.2818
vt 0.8568 0.7947 0.7182
vt 0.9995 0.9995 0.0034
vt 0.0005 0.9995 0.0011
vt 0.9995 0.9995 0.0030
vt 0.9995 0.9995 0.0028
vt 0.0005 0.9995 0.0009
vt 0.0005 0.9995 0.0007
vt 0.9995 0.9995 0.0027
vt 0.0005 0.9995 0.0006
vt 0.9995 0.9995 0.0025
vt -11.0370 2.9651 1.5052
vt -11.0382 -1.4880 0.6712
vt 11.3834 -1.4894 0.6784
vt 11.6532 2.9637 1.5129
vt -11.0382 -2.1540 0.5140
vt 11.3894 -2.1541 0.5142
vt -0.3360 1.8538 0.8645
vt -0.3360 -0.8538 0.8645
vt 1.2356 -0.8538 0.8646
vt 1.2356 1.8538 0.8646
vt -0.8538 0.8646 1.3360
vt -0.8538 0.2646 1.3360
vt 1.8538 0.2646 1.3360
vt 1.8538 0.8646 1.3360
vt -0.3360 0.2646 1.9245
vt -0.2357 0.2646 1.9245
vt -0.2356 0.9353 1.9245
vt -0.3359 0.9354 1.9245
vt -0.8538 0.8645 -0.3360
vt -0.8538 0.2645 -0.3360
vt 1.8538 0.2645 -0.3360
vt 1.8538 0.8645 -0.3360
vt -0.3360 0.2645 -0.8538
vt 1.2357 0.2646 -0.8538
vt 1.2356 0.8646 -0.8538
vt -0.3360 0.8645 -0.8538
vt 1.2356 -0.9245 0.9354
vt 1.3359 -0.9245 0.9354
vt 1.3359 1.9245 0.9354
vt 1.2356 1.9245 0.9353
vt -0.2357 0.2646 1.8538
vt 1.3360 0.2645 1.8538
vt 1.3360 0.8645 1.8538
vt -0.2356 0.8646 1.8538
vt 1.2357 0.2646 -0.9245
vt 1.3360 0.2646 -0.9245
vt 1.3359 0.9354 -0.9245
vt 1.2356 0.9354 -0.9245
vt -0.9245 0.2646 1.2357
vt -0.8538 0.2646 1.2357
vt -0.8538 0.8646 1.2356
vt -0.9245 0.9353 1.2356
vt 1.8538 0.8646 1.2356
vt 1.9245 0.9354 1.2356
vt 1.9245 0.2646 1.2357
vt 1.8538 0.2646 1.2357
vt -0.9245 0.2646 1.3360
vt -0.9245 0.9354 1.3359
vt 1.9245 0.9354 1.3359
vt 1.9245 0.2646 1.3360
vt 1.8538 0.0646 1.3360
vt -0.8538 0.0646 1.3360
vt 0.4998 0.0649 1.4425
vt 0.4999 2.0080 1.3561
vt -56.8660 2.0476 1.3543
vt -56.8660 0.0937 1.4413
vt -0.3030 3.0667 0.6708
vt -56.8654 3.0995 0.6694
vt 0.5000 3.0663 0.6709
vt 0.4998 -0.2409 0.8330
vt -0.9526 2.4861 -10.7079
vt -0.9526 1.8824 -10.7079
vt 2.4555 1.9122 -11.0369
vt -0.9527 2.7305 -10.7079
vt 0.5754 3.0096 -10.8554
vt 1.2345 3.1301 -10.9190
vt 2.4558 3.3532 -11.0369
vt 1.1150 0.6921 0.2837
vt 2.4570 1.8109 0.1540
vt 2.4571 2.2753 0.1540
vt -0.9519 -0.5924 0.4834
vt -0.9518 -1.0309 0.4834
vt -1.4571 -1.0250 0.5282
vt -1.2480 -1.2753 0.5127
vt -0.9518 0.7901 -0.5924
vt -1.4571 0.8460 -1.0250
vt -1.4571 0.5282 -1.0250
vt -0.9519 0.4834 -0.5924
vt 2.4571 0.4471 2.2753
vt 2.4571 0.1540 2.2753
vt 1.8220 -0.2369 1.1796
vt -0.9215 -0.2369 1.1796
vt -1.2215 -0.5369 1.1796
vt 1.9215 -0.2369 1.1796
vt 2.2215 -0.5369 1.1796
vt -0.9215 1.2369 1.1796
vt -1.2215 1.5369 1.1796
vt 1.8220 1.2369 1.1796
vt 1.9215 1.2369 1.1796
vt 2.2215 1.5369 1.1796
vt 2.2215 1.2389 1.1796
vt -0.5369 1.3296 2.2215
vt -0.5369 1.1796 2.2215
vt 1.5369 1.1796 2.2215
vt 1.5369 1.3296 2.2215
vt -1.1082 -0.2768 -0.2369
vt 1.9215 1.1796 -0.2369
vt -0.8220 1.1796 -0.2369
vt 1.8220 1.1796 1.2369
vt -0.9215 1.1796 1.2369
vt 2.1082 -0.2768 1.2369
vt 1.9215 -0.0689 1.1796
vt 1.9215 -0.1361 1.1796
vt 2.2215 -0.1341 1.1796
vt 2.2215 1.1380 1.1796
vt 1.9215 1.0689 1.1796
vt 1.9215 1.1361 1.1796
vt 2.2215 -0.2349 1.1796
vt 1.0689 0.8524 -0.9858
vt 1.1361 -0.3296 -1.2181
vt 1.1361 1.1796 -0.9215
vt 1.0689 1.1796 -0.9215
vt 1.0689 -0.2311 -1.1988
vt 1.0689 -0.3296 -1.2181
vt -0.0689 -0.2311 -1.1987
vt -0.1361 1.1796 -0.9215
vt -0.1361 -0.3296 -1.2181
vt -0.0689 -0.3296 -1.2181
vt -0.0689 0.8524 -0.9858
vt -0.0689 1.1796 -0.9215
vt 0.4135 -0.2018 -0.2379
vt 0.6998 1.2546 -0.2379
vt 0.6002 1.2546 -0.2379
vt 0.3036 -0.2546 -0.2379
vt 0.5865 -0.2018 1.2359
vt 0.6964 -0.2546 1.2359
vt 0.3998 1.2546 1.2359
vt 0.3002 1.2546 1.2359
vt 1.1370 -0.2546 0.3036
vt 1.2379 -0.2546 0.3036
vt 1.2379 1.2546 0.6002
vt 1.1370 1.2546 0.6002
vt -0.1351 1.2546 0.6002
vt -0.2359 1.2546 0.6002
vt -0.2359 -0.2546 0.3036
vt -0.1351 -0.2546 0.3036
vt 0.4276 1.2361 1.1116
vt 0.4276 1.1353 1.1116
vt 0.5806 1.1363 1.1484
vt 0.5806 1.2371 1.1484
vt 0.4276 -0.1369 1.1116
vt 0.4276 -0.2377 1.1116
vt 0.5806 -0.2367 1.1484
vt 0.5806 -0.1359 1.1484
vt 0.4194 1.1484 1.1363
vt 0.5724 1.1116 1.1353
vt 0.6002 1.2546 1.1351
vt 0.3002 1.2546 1.1370
vt 0.6998 1.1370 1.2546
vt 0.6998 1.2379 1.2546
vt 0.5806 1.1484 1.2371
vt 0.6998 1.2546 1.2379
vt 0.4276 1.1116 1.2361
vt 0.4194 1.1484 -0.2367
vt 0.5724 1.1116 -0.2377
vt 0.3002 1.2546 -0.2359
vt 0.6998 -0.2359 1.2546
vt 0.6998 -0.1351 1.2546
vt 0.5806 1.1484 -0.1359
vt 0.6998 1.2546 -0.1351
vt 0.3998 1.2546 -0.1370
vt 0.4276 1.1116 -0.1369
vt 0.9995 0.0013 0.9995
vt 0.9988 0.9995 0.3132
vt 0.0005 0.9987 0.0005
vt 0.0012 0.0005 0.6867
vt 0.9889 0.0387 0.3991
vt 1.0689 -0.0398 0.3837
vt 1.0689 1.0437 0.5967
vt 0.9889 0.9652 0.5812
vt -0.0689 1.0437 0.5967
vt 0.0111 0.9652 0.5812
vt -0.0689 -0.0398 0.3837
vt 0.0111 0.0387 0.3991
vt 0.3837 -0.0398 -0.0689
vt 0.4033 -0.0437 -0.0689
vt 0.6163 1.0398 -0.0689
vt 0.5967 1.0437 -0.0689
vt 0.5967 -0.0689 1.0437
vt 0.6163 -0.0689 1.0398
vt 0.6163 1.0689 1.0398
vt 0.5967 1.0689 1.0437
vt 0.4033 1.0437 1.0689
vt 0.3837 1.0398 1.0689
vt 0.5967 -0.0437 1.0689
vt 0.6163 -0.0398 1.0689
vt 0.6163 1.0689 -0.0398
vt 0.5967 1.0689 -0.0437
vt 0.5967 -0.0689 -0.0437
vt 0.6163 -0.0689 -0.0398
vt 0.4188 0.9652 0.0111
vt 0.3991 0.9613 0.0111
vt 0.5812 0.0348 0.0111
vt 0.6009 0.0387 0.0111
vt 0.3991 0.0111 0.0387
vt 0.4188 0.0111 0.0348
vt 0.4188 0.9889 0.0348
vt 0.3991 0.9889 0.0387
vt 0.3991 0.0387 0.9889
vt 0.4188 0.0348 0.9889
vt 0.6009 0.9613 0.9889
vt 0.5812 0.9652 0.9889
vt 0.4188 0.9889 0.9652
vt 0.3991 0.9889 0.9613
vt 0.3991 0.0111 0.9613
vt 0.4188 0.0111 0.9652
vt -1.2215 0.5750 -0.5369
vt -1.2215 0.4250 -0.5369
vt 2.2215 0.4250 -0.5369
vt 2.2215 0.5750 -0.5369
vt -1.2215 0.5750 1.5369
vt -1.2215 0.4250 1.5369
vt 2.2215 0.4250 1.5369
vt 2.2215 0.5750 1.5369
vt 1.2349 0.4250 -1.2215
vt 1.5369 0.4250 -1.2215
vt 1.5369 0.5750 -1.2215
vt 1.1341 0.4250 -1.2215
vt -0.1380 0.4250 -1.2215
vt -0.2389 0.4250 -1.2215
vt -0.5369 0.5750 -1.2215
vt -0.5369 0.4250 -1.2215
vt -1.4279 0.0778 0.1964
vt 0.6459 0.0736 0.2035
vt 0.6528 3.5152 1.1954
vt -1.4210 3.5193 1.1883
vt 2.4545 -5.0367 -11.0369
vt -0.9521 -3.4044 -10.7078
vt -0.9520 -3.8416 -10.7078
vt -0.9519 -5.0367 -10.7077
vt 2.4561 5.5723 -11.0369
vt 1.1141 4.4535 -10.9074
vt 1.1990 4.4718 -10.9156
vt 1.6396 4.5668 -10.9581
vt 2.4560 4.7428 -11.0369
vt 0.9986 0.9995 0.0068
vt 0.0005 0.9990 0.9994
vt 0.0015 0.0005 0.9928
vt 0.9995 0.0010 0.0002
vt 0.0029 0.0005 16.9346
vt 1.0009 0.0010 15.9420
vt 0.1670 0.5180 0.9704
vt 0.1766 0.4185 0.9704
vt 0.8330 0.4819 0.9704
vt 0.8234 0.5815 0.9704
vt 0.5815 0.9704 0.1766
vt 0.4819 0.9704 0.1670
vt 0.4820 0.0296 0.1670
vt 0.5815 0.0296 0.1766
vt 0.4819 0.0296 0.8329
vt 0.5815 0.0296 0.8233
vt 0.5815 0.9704 0.8234
vt 0.4820 0.9704 0.8330
vt 0.4392 0.4256 0.0707
vt 0.6005 0.4256 0.0707
vt 0.6005 0.5869 0.0707
vt 0.4392 0.5869 0.0707
vt 0.3995 0.9293 0.4256
vt 0.3995 0.0707 0.4256
vt 0.5608 0.0707 0.4256
vt 0.5608 0.9293 0.4256
vt 0.4256 0.9293 0.5608
vt 0.4256 0.0707 0.5608
vt 0.5869 0.0707 0.5608
vt 0.5869 0.9293 0.5608
vt 0.4392 0.9293 0.5869
vt 0.4392 0.0707 0.5869
vt 0.6005 0.0707 0.5869
vt 0.6005 0.9293 0.5869
vt 0.4131 0.9293 0.3995
vt 0.4131 0.0707 0.3995
vt 0.5744 0.0707 0.3995
vt 0.5744 0.9293 0.3995
vt 0.4318 0.4578 0.9293
vt 0.3995 0.4256 0.9293
vt 0.5608 0.4256 0.9293
vt 0.5286 0.4578 0.9293
vt 0.5608 0.5869 0.9293
vt 0.5286 0.5546 0.9293
vt 0.3995 0.5869 0.9293
vt 0.4318 0.5546 0.9293
vt 0.5682 0.5782 0.4578
vt 0.5682 0.9293 0.4578
vt 0.4714 0.9293 0.4578
vt 0.4714 0.5782 0.4578
vt 0.5422 0.5782 0.5286
vt 0.5422 0.9293 0.5286
vt 0.4454 0.9293 0.5286
vt 0.4454 0.5782 0.5286
vt 0.5286 0.5782 0.5546
vt 0.5286 0.9293 0.5546
vt 0.4318 0.9293 0.5546
vt 0.4318 0.5782 0.5546
vt 0.5546 0.5782 0.4318
vt 0.5546 0.9293 0.4318
vt 0.4578 0.9293 0.4318
vt 0.4578 0.5782 0.4318
vt 0.0005 0.9995 0.5000
vt 0.0005 0.0005 0.5000
vt 0.9995 0.0005 0.5000
vt 0.9995 0.9995 0.5000
vt 0.0005 0.9990 0.9995
vt 0.0014 0.0005 0.9112
vt 0.9995 0.0010 0.0005
vt 0.9986 0.9995 0.0888
vt -0.9524 -0.2502 -10.7078
vt -0.9522 -1.6378 -10.7078
vt -0.9525 1.5644 -10.7079
# 595 texture coords

g myv_60
usemtl 60_krohv_roheline
s 4
f 1/1/1 2/2/1 3/3/2 4/4/2 
f 2/2/1 1/1/1 5/5/3 6/6/3 
f 2/2/1 6/6/3 7/7/3 8/8/3 
f 2/2/1 8/8/3 9/9/3 10/10/3 
f 2/2/1 10/10/3 11/11/3 12/12/3 
f 2/2/1 12/12/3 13/13/3 14/14/3 
f 2/2/1 14/14/3 15/15/3 16/16/3 
f 17/17/3 18/18/1 2/2/1 16/16/3 
f 19/19/3 18/18/1 17/17/3 
f 20/20/3 21/21/3 22/22/3 23/23/3 
f 24/24/3 25/25/3 26/26/3 27/27/3 
f 28/28/4 24/24/3 27/27/3 29/29/3 
f 30/30/2 31/31/5 32/32/5 33/33/5 
f 34/34/2 30/30/2 33/33/5 35/35/2 
f 36/36/2 34/34/2 35/35/2 37/37/2 
f 38/38/2 36/36/2 37/37/2 39/39/2 
f 40/40/2 38/38/2 39/39/2 41/41/2 
f 42/42/2 40/40/2 41/41/2 43/43/2 
f 44/44/2 42/42/2 43/43/2 45/45/2 
f 46/46/2 44/44/2 45/45/2 47/47/2 
f 48/48/3 46/46/2 47/47/2 49/49/2 
f 29/29/3 48/48/3 49/49/2 28/28/4 
f 46/46/2 48/48/3 12/12/3 11/11/3 
f 42/42/2 44/44/2 10/10/3 9/9/3 
f 1/1/1 4/4/2 31/31/5 30/30/2 
f 6/6/3 5/5/3 34/34/2 36/36/2 
f 8/8/3 7/7/3 38/38/2 40/40/2 
f 33/33/5 32/32/5 50/50/5 51/51/5 
f 37/37/2 35/35/2 52/52/5 53/53/4 
f 41/41/2 39/39/2 54/54/5 55/55/4 
f 56/56/4 57/57/4 49/49/2 47/47/2 
f 58/58/5 59/59/4 45/45/2 43/43/2 
f 14/14/3 13/13/3 29/29/3 27/27/3 
f 20/20/3 23/23/3 19/19/3 17/17/3 
f 16/16/3 15/15/3 26/26/3 60/60/3 
f 61/61/4 62/62/4 22/22/3 21/21/4 
usemtl krohv_valge
s off
f 63/63/6 25/64/6 64/65/6 65/66/6 
f 65/66/7 64/65/7 66/67/7 
f 64/68/8 25/69/8 24/70/8 67/71/8 
f 68/72/9 69/73/9 70/74/9 24/75/9 
f 24/75/9 70/74/9 67/76/9 
f 71/77/10 9/78/10 8/79/10 72/80/10 
f 72/81/11 8/82/11 40/83/11 73/84/11 
f 74/85/6 42/86/6 9/87/6 71/88/6 
f 75/89/7 58/90/7 43/91/7 76/92/7 
f 76/93/10 43/94/10 41/95/10 77/96/10 
f 77/97/9 41/98/9 55/99/9 78/100/9 
f 79/101/8 15/102/8 14/103/8 80/104/8 
f 80/105/11 14/106/11 27/107/11 81/108/11 
f 82/109/6 26/110/6 15/111/6 79/112/6 
f 83/113/10 13/114/10 12/115/10 84/116/10 
f 84/117/11 12/118/11 48/119/11 85/120/11 
f 86/121/6 29/122/6 13/123/6 83/124/6 
f 87/125/10 11/126/10 10/127/10 88/128/10 
f 88/129/11 10/130/11 44/131/11 89/132/11 
f 90/133/6 46/134/6 11/135/6 87/136/6 
f 91/137/10 5/138/10 1/139/10 92/140/10 
f 92/141/11 1/142/11 30/143/11 93/144/11 
f 94/145/6 34/146/6 5/147/6 91/148/6 
f 95/149/10 7/150/10 6/151/10 96/152/10 
f 96/153/11 6/154/11 36/155/11 97/156/11 
f 98/157/6 38/158/6 7/159/6 95/160/6 
f 99/161/7 52/162/7 35/163/7 100/164/7 
f 100/165/10 35/166/10 33/167/10 101/168/10 
f 101/169/9 33/170/9 51/171/9 102/172/9 
f 103/173/7 54/174/7 39/175/7 104/176/7 
f 104/177/10 39/178/10 37/179/10 105/180/10 
f 105/181/9 37/182/9 53/183/9 106/184/9 
f 107/185/7 108/186/7 28/187/7 109/188/7 
f 109/189/10 28/190/10 49/191/10 110/192/10 
f 110/193/9 49/194/9 57/195/9 111/196/9 
f 112/197/7 56/198/7 47/199/7 113/200/7 
f 113/201/10 47/202/10 45/203/10 114/204/10 
f 114/205/9 45/206/9 59/207/9 115/208/9 
f 116/209/8 17/210/8 16/211/8 117/212/8 
f 117/213/11 16/214/11 60/215/11 118/216/11 
f 119/217/6 20/218/6 17/219/6 116/220/6 
f 120/221/8 21/222/8 121/223/8 122/224/8 
f 122/225/9 121/226/9 123/227/9 124/228/9 
f 125/229/7 61/230/7 21/231/7 120/232/7 
usemtl 60_krohv_roheline
s 4
f 61/61/4 123/233/4 126/234/4 62/62/4 
f 127/235/4 62/62/4 126/234/4 
f 126/234/4 123/233/4 121/236/4 25/25/3 
f 126/234/4 25/25/3 63/237/4 
f 128/238/4 24/24/3 28/28/4 108/239/4 
f 68/240/4 24/24/3 128/238/4 
f 128/238/4 108/239/4 57/57/4 56/56/4 
f 128/238/4 56/56/4 59/59/4 58/58/5 
f 128/238/4 58/58/5 55/55/4 54/54/5 
f 128/238/4 54/54/5 53/53/4 52/52/5 
f 128/238/4 52/52/5 51/51/5 50/50/5 
f 128/238/4 50/50/5 129/241/5 
usemtl 60_krohv_tumeroheline
f 130/242/4 129/243/5 131/244/5 132/245/4 
f 128/246/4 129/243/5 130/242/4 69/247/4 
f 65/248/4 126/249/4 63/250/4 
f 128/246/4 69/247/4 68/251/4 
f 126/249/4 133/252/4 134/253/4 127/254/4 
f 126/249/4 65/248/4 133/252/4 
f 135/255/4 134/253/4 133/252/4 
usemtl 58_aken
f 124/256/4 125/257/4 120/258/4 122/259/4 
s off
f 124/256/12 123/260/12 61/261/12 125/257/12 
s 4
f 118/256/3 119/262/3 116/263/3 117/259/3 
s off
f 118/256/12 60/264/12 20/261/12 119/262/12 
s 4
f 81/256/3 82/262/3 79/258/3 80/265/3 
s off
f 81/256/12 27/264/12 26/261/12 82/262/12 
s 4
f 111/256/5 107/257/5 109/266/5 110/267/5 
s off
f 111/256/13 57/260/13 108/261/13 107/257/13 
usemtl 60_uks
s 4
f 70/256/4 66/268/4 64/269/4 67/270/4 
usemtl 60_plekk
s off
f 136/271/14 137/272/14 138/273/14 
f 139/274/15 140/275/15 141/276/15 
f 141/277/16 138/273/16 137/272/16 139/278/16 
usemtl 58_aken
s 4
f 85/256/2 86/262/2 83/279/2 84/267/2 
s off
f 85/256/13 48/264/13 29/261/13 86/262/13 
s 4
f 89/256/2 90/262/2 87/266/2 88/280/2 
s off
f 89/256/13 44/264/13 46/261/13 90/262/13 
s 4
f 115/256/5 112/257/5 113/281/5 114/280/5 
s off
f 115/256/13 59/260/13 56/261/13 112/257/13 
s 4
f 76/282/5 77/283/5 78/256/5 75/257/5 
s off
f 78/256/13 55/260/13 58/261/13 75/257/13 
s 4
f 73/256/2 74/262/2 71/281/2 72/283/2 
s off
f 73/256/13 40/264/13 42/261/13 74/262/13 
s 4
f 95/282/2 96/284/2 97/256/2 98/262/2 
s off
f 97/256/13 36/264/13 38/261/13 98/262/13 
s 4
f 91/285/2 92/286/2 93/256/2 94/262/2 
s off
f 93/256/13 30/264/13 34/261/13 94/262/13 
s 4
f 100/287/5 101/286/5 102/256/5 99/257/5 
s off
f 102/256/13 51/260/13 52/261/13 99/257/13 
s 4
f 104/285/5 105/284/5 106/256/5 103/257/5 
s off
f 106/256/13 53/260/13 54/261/13 103/257/13 
usemtl katus_kivi
s 1
f 142/288/17 143/289/17 144/290/18 145/291/18 
s 4
f 144/290/19 143/289/20 146/292/21 147/293/19 
usemtl kivi
f 148/294/4 149/295/4 150/296/4 151/297/4 
s off
f 152/298/12 65/299/12 69/300/12 153/301/12 
f 154/302/6 155/303/6 156/304/6 157/305/6 
f 148/306/8 132/307/8 135/308/8 149/309/8 
f 135/310/9 133/311/9 150/312/9 149/313/9 
s 4
f 158/314/4 159/315/4 157/316/4 156/317/4 
s off
f 130/318/7 132/319/7 148/320/7 151/321/7 
f 160/322/9 161/323/9 159/324/9 158/325/9 
f 155/326/8 130/327/8 151/328/8 156/329/8 
f 156/329/8 151/328/8 150/330/8 158/331/8 
f 160/332/8 158/331/8 150/330/8 133/333/8 
f 161/334/12 65/299/12 152/298/12 159/335/12 
f 159/335/12 152/298/12 153/301/12 157/336/12 
f 154/337/12 157/336/12 153/301/12 69/300/12 
f 70/338/12 69/300/12 65/299/12 66/339/12 
usemtl 60_laud_valge
s 1
f 2/340/10 162/341/10 163/342/10 3/343/10 
s 2
f 147/344/22 146/345/23 162/341/24 164/346/24 
f 163/342/25 162/341/24 146/345/23 
s off
f 162/341/26 2/340/26 165/347/26 
usemtl 60_krohv_roheline
s 2
f 2/348/27 18/349/28 166/350/28 165/351/27 
f 167/352/28 165/351/27 166/350/28 168/353/28 
f 169/354/28 168/353/28 166/350/28 
usemtl 60_plekk
f 170/355/28 171/356/28 172/357/28 173/358/27 
f 173/358/27 165/359/27 170/355/28 
s off
f 164/360/29 162/361/29 165/359/29 173/358/29 
s 4
f 144/362/19 147/363/19 164/364/19 173/365/19 
s 1
f 145/366/18 144/362/18 173/365/18 172/367/18 
usemtl krohv_valge
s off
f 174/368/30 175/369/30 176/370/30 177/371/30 
f 177/371/30 176/370/30 178/372/30 
f 176/370/30 175/369/30 179/373/30 180/374/30 
f 181/375/30 182/376/30 183/377/30 179/373/30 
f 179/373/30 183/377/30 180/374/30 
f 182/376/30 184/378/30 183/377/30 
f 185/379/31 176/380/31 180/381/31 186/382/31 
s 8
f 187/383/9 175/384/9 174/385/9 
s 32
f 181/386/7 179/387/7 188/388/7 
s off
f 189/389/30 190/390/30 191/391/30 192/392/30 
f 193/393/30 189/389/30 192/392/30 194/394/30 
f 177/371/30 178/372/30 195/395/30 
s 64
f 196/396/5 197/397/5 190/398/5 189/399/5 
f 197/397/5 196/396/5 198/400/5 199/401/5 
f 200/402/5 194/403/5 201/404/5 202/405/5 
f 194/403/5 200/402/5 203/406/5 193/407/5 
f 196/396/5 189/399/5 193/407/5 203/406/5 
f 200/402/5 202/405/5 199/401/5 198/400/5 
usemtl 60_pruun
s 8
f 187/408/9 174/409/9 177/410/9 204/411/9 
s 32
f 188/412/7 205/413/7 182/414/7 181/415/7 
s 64
f 197/416/5 204/417/5 177/418/5 190/419/5 
f 194/420/5 182/421/5 205/422/5 201/423/5 
s off
f 206/424/32 207/425/32 208/426/32 209/427/32 
f 210/428/32 211/429/32 212/430/32 213/431/32 
f 208/432/33 207/433/33 194/434/33 192/435/33 
f 208/426/34 192/436/34 184/437/34 209/427/34 
f 209/438/35 184/439/35 182/414/35 206/440/35 
f 212/441/33 211/442/33 177/410/33 195/443/33 
f 212/430/34 195/444/34 191/445/34 213/431/34 
f 213/446/35 191/447/35 190/448/35 210/449/35 
usemtl 60_aken
s 64
f 214/450/5 215/451/5 216/452/5 217/453/5 
usemtl 60_pruun
s off
f 218/454/5 219/455/5 220/456/5 221/457/5 
f 221/457/5 220/456/5 222/458/5 223/459/5 
f 223/459/5 222/458/5 224/460/5 225/461/5 
f 225/461/5 224/460/5 219/455/5 218/454/5 
f 219/462/9 198/463/9 196/464/9 220/465/9 
f 220/466/13 196/467/13 203/468/13 222/469/13 
f 222/470/7 203/471/7 200/472/7 224/473/7 
f 224/474/10 200/475/10 198/476/10 219/477/10 
f 221/478/7 215/479/7 214/480/7 218/481/7 
f 218/482/13 214/483/13 217/484/13 225/485/13 
f 225/486/9 217/487/9 216/488/9 223/489/9 
f 223/490/10 216/491/10 215/492/10 221/493/10 
usemtl plekk_punane
f 226/494/9 178/495/9 176/496/9 185/497/9 
f 186/498/7 180/499/7 183/500/7 227/501/7 
f 195/502/36 178/503/36 226/504/36 191/505/36 
f 192/506/36 191/505/36 226/504/36 184/507/36 
f 227/508/36 183/509/36 184/507/36 226/504/36 
usemtl katus_kivi
s 4
f 227/510/37 226/511/37 185/512/37 186/513/37 
usemtl krohv_valge
s off
f 228/368/30 229/369/30 230/370/30 231/371/30 
f 231/371/30 230/370/30 232/372/30 
f 230/370/30 229/369/30 233/373/30 234/374/30 
f 235/375/30 236/376/30 237/377/30 233/373/30 
f 233/373/30 237/377/30 234/374/30 
f 236/376/30 238/378/30 237/377/30 
f 239/379/31 230/380/31 234/381/31 240/382/31 
s 8
f 241/383/9 229/384/9 228/385/9 
s 32
f 235/386/7 233/387/7 242/388/7 
s off
f 243/389/30 244/390/30 245/391/30 246/392/30 
f 247/393/30 243/389/30 246/392/30 248/394/30 
f 231/371/30 232/372/30 249/395/30 
s 64
f 250/396/5 251/397/5 244/398/5 243/399/5 
f 251/397/5 250/396/5 252/400/5 253/401/5 
f 254/402/5 248/403/5 255/404/5 256/405/5 
f 248/403/5 254/402/5 257/406/5 247/407/5 
f 250/396/5 243/399/5 247/407/5 257/406/5 
f 254/402/5 256/405/5 253/401/5 252/400/5 
usemtl 60_pruun
s 8
f 241/408/9 228/409/9 231/410/9 258/411/9 
s 32
f 242/412/7 259/413/7 236/414/7 235/415/7 
s 64
f 251/416/5 258/417/5 231/418/5 244/419/5 
f 248/420/5 236/421/5 259/422/5 255/423/5 
s off
f 260/424/32 261/425/32 262/426/32 263/427/32 
f 264/428/32 265/429/32 266/430/32 267/431/32 
f 262/432/33 261/433/33 248/434/33 246/435/33 
f 262/426/34 246/436/34 238/437/34 263/427/34 
f 263/438/35 238/439/35 236/414/35 260/440/35 
f 266/441/33 265/442/33 231/410/33 249/443/33 
f 266/430/34 249/444/34 245/445/34 267/431/34 
f 267/446/35 245/447/35 244/448/35 264/449/35 
usemtl 60_aken
s 64
f 268/450/5 269/451/5 270/452/5 271/453/5 
usemtl 60_pruun
s off
f 272/454/5 273/455/5 274/456/5 275/457/5 
f 275/457/5 274/456/5 276/458/5 277/459/5 
f 277/459/5 276/458/5 278/460/5 279/461/5 
f 279/461/5 278/460/5 273/455/5 272/454/5 
f 273/462/9 252/463/9 250/464/9 274/465/9 
f 274/466/13 250/467/13 257/468/13 276/469/13 
f 276/470/7 257/471/7 254/472/7 278/473/7 
f 278/474/10 254/475/10 252/476/10 273/477/10 
f 275/478/7 269/479/7 268/480/7 272/481/7 
f 272/482/13 268/483/13 271/484/13 279/485/13 
f 279/486/9 271/487/9 270/488/9 277/489/9 
f 277/490/10 270/491/10 269/492/10 275/493/10 
usemtl plekk_punane
f 280/494/9 232/495/9 230/496/9 239/497/9 
f 240/498/7 234/499/7 237/500/7 281/501/7 
f 249/502/36 232/503/36 280/504/36 245/505/36 
f 246/506/36 245/505/36 280/504/36 238/507/36 
f 281/508/36 237/509/36 238/507/36 280/504/36 
usemtl katus_kivi
s 4
f 281/510/37 280/511/37 239/512/37 240/513/37 
usemtl krohv_valge
s off
f 282/371/30 283/368/30 284/369/30 285/370/30 
f 282/371/30 285/370/30 286/372/30 
f 285/370/30 284/369/30 287/373/30 288/374/30 
f 289/375/30 290/376/30 291/377/30 287/373/30 
f 287/373/30 291/377/30 288/374/30 
f 290/376/30 292/378/30 291/377/30 
f 293/379/31 285/380/31 288/381/31 294/382/31 
s 8
f 295/383/9 284/384/9 283/385/9 
s 32
f 289/386/7 287/387/7 296/388/7 
s off
f 297/389/30 298/390/30 299/391/30 300/392/30 
f 301/393/30 297/389/30 300/392/30 302/394/30 
f 282/371/30 286/372/30 303/395/30 
s 64
f 304/396/5 305/397/5 298/398/5 297/399/5 
f 305/397/5 304/396/5 306/400/5 307/401/5 
f 308/402/5 302/403/5 309/404/5 310/405/5 
f 302/403/5 308/402/5 311/406/5 301/407/5 
f 304/396/5 297/399/5 301/407/5 311/406/5 
f 308/402/5 310/405/5 307/401/5 306/400/5 
usemtl 60_pruun
s 8
f 295/408/9 283/409/9 282/410/9 312/411/9 
s 32
f 296/412/7 313/413/7 290/414/7 289/415/7 
s 64
f 305/416/5 312/417/5 282/418/5 298/419/5 
f 302/420/5 290/421/5 313/422/5 309/423/5 
s off
f 314/424/32 315/425/32 316/426/32 317/427/32 
f 318/428/32 319/429/32 320/430/32 321/431/32 
f 316/432/33 315/433/33 302/434/33 300/435/33 
f 316/426/34 300/436/34 292/437/34 317/427/34 
f 317/438/35 292/439/35 290/414/35 314/440/35 
f 320/441/33 319/442/33 282/410/33 303/443/33 
f 320/430/34 303/444/34 299/445/34 321/431/34 
f 321/446/35 299/447/35 298/448/35 318/449/35 
usemtl 60_aken
s 64
f 322/450/5 323/451/5 324/452/5 325/453/5 
usemtl 60_pruun
s off
f 326/454/5 327/455/5 328/456/5 329/457/5 
f 329/457/5 328/456/5 330/458/5 331/459/5 
f 331/459/5 330/458/5 332/460/5 333/461/5 
f 333/461/5 332/460/5 327/455/5 326/454/5 
f 327/462/9 306/463/9 304/464/9 328/465/9 
f 328/466/13 304/467/13 311/468/13 330/469/13 
f 330/470/7 311/471/7 308/472/7 332/473/7 
f 332/474/10 308/475/10 306/476/10 327/477/10 
f 329/478/7 323/479/7 322/480/7 326/481/7 
f 326/482/13 322/483/13 325/484/13 333/485/13 
f 333/486/9 325/487/9 324/488/9 331/489/9 
f 331/490/10 324/491/10 323/492/10 329/493/10 
usemtl plekk_punane
f 334/494/9 286/495/9 285/496/9 293/497/9 
f 294/498/7 288/499/7 291/500/7 335/501/7 
f 303/502/36 286/503/36 334/504/36 299/505/36 
f 300/506/36 299/505/36 334/504/36 292/507/36 
f 335/508/36 291/509/36 292/507/36 334/504/36 
usemtl katus_kivi
s 4
f 335/510/37 334/511/37 293/512/37 294/513/37 
usemtl 60_krohv_roheline
s 2
f 336/514/38 62/515/38 127/516/28 
f 127/516/28 134/517/28 336/514/28 
f 171/518/28 170/519/28 337/520/28 338/521/28 
f 339/522/28 171/518/28 338/521/28 
f 167/352/28 337/520/28 170/519/28 165/351/27 
f 168/353/28 169/354/28 339/522/28 338/521/28 
usemtl 60_aken_2
f 340/523/28 341/524/28 342/525/28 343/526/28 
s off
f 342/525/13 167/527/13 168/528/13 343/526/13 
usemtl krohv_valge
f 340/529/10 338/530/10 337/531/10 341/532/10 
f 341/533/39 337/534/39 167/535/39 342/536/39 
f 343/537/40 168/538/40 338/539/40 340/540/40 
usemtl 60_tellis_vana
s 2
f 344/541/10 345/542/10 346/543/10 347/544/10 
s 8
f 348/545/41 345/546/41 344/547/41 349/548/41 
s 16
f 349/549/42 344/550/42 347/551/42 350/552/42 
s 32
f 350/553/43 347/554/43 346/555/43 351/556/43 
s 64
f 351/557/44 346/558/44 345/559/44 348/560/44 
s off
f 352/561/13 348/562/13 349/563/13 353/564/13 
f 353/564/13 349/563/13 350/565/13 354/566/13 
f 354/566/13 350/565/13 351/567/13 355/568/13 
f 355/568/13 351/567/13 348/562/13 352/561/13 
f 356/569/43 352/570/43 353/571/43 357/572/43 
f 357/573/44 353/574/44 354/575/44 358/576/44 
f 358/577/41 354/578/41 355/579/41 359/580/41 
f 359/581/42 355/582/42 352/583/42 356/584/42 
usemtl must_tekstuur
s 4
f 359/585/13 356/586/13 357/587/13 358/588/13 
usemtl 60_metall
s 1
f 360/589/45 361/590/45 362/591/45 363/592/45 
f 364/591/46 365/590/46 366/589/46 367/592/46 
usemtl 60_krohv_roheline
s 2
f 166/350/38 23/593/27 22/594/38 
f 166/350/38 19/595/28 23/593/27 
f 166/350/38 18/349/47 19/595/28 
f 166/350/38 22/594/38 62/515/38 
f 336/514/38 166/350/38 62/515/38 
s 4
f 26/26/3 25/25/3 121/236/3 60/60/3 
f 20/20/3 60/60/3 121/236/3 21/21/3 
# 296 polygons - 43 triangles

#
# object xxx
#

v  235.9100 146.4600 6.7156
v  239.1624 147.4782 5.0834
v  235.9100 146.4600 5.0834
v  235.9100 146.4600 6.1959
v  235.9100 146.4600 8.4822
v  235.9100 146.4600 9.8699
v  235.9100 146.4600 11.6844
v  235.9100 146.4600 12.6062
v  239.1624 147.4782 12.6062
v  239.1637 147.4773 15.4739
v  246.0552 125.4551 12.6062
v  246.0548 125.4564 5.0834
v  246.0560 125.4553 15.4739
v  239.1646 147.4774 16.1567
v  246.0566 125.4565 16.1568
v  235.9109 146.4601 13.2891
v  235.6257 146.3710 12.6062
v  235.4271 146.3087 12.8565
# 18 vertices

vn -0.2988 0.9543 0.0000
vn -0.2988 0.9543 0.0004
vn 0.9544 0.2987 -0.0002
vn 0.9543 0.2987 -0.0001
vn 0.9543 0.2987 0.0000
vn 0.9544 0.2987 -0.0008
vn 0.9544 0.2987 -0.0013
vn -0.2987 0.9544 0.0003
vn -0.2989 0.9543 0.0004
# 9 vertex normals

vt 0.8704 0.1478 0.9995
vt 0.0010 0.0005 0.9995
vt 0.8704 0.0005 0.9995
vt 0.8704 0.1009 0.9995
vt 0.8704 0.3071 0.9995
vt 0.8704 0.4323 0.9995
vt 0.8704 0.5960 0.9995
vt 0.8704 0.6792 0.9995
vt 0.0010 0.6792 0.9995
vt 0.0007 0.9379 0.9994
vt 0.9995 0.6792 0.9990
vt 0.0005 0.6792 0.9986
vt 0.0006 0.0005 0.9986
vt 0.9995 0.0005 0.9990
vt 0.0005 0.9379 0.9988
vt 0.9994 0.9379 0.9993
vt 0.9994 0.9995 0.9995
vt 0.0005 0.9995 0.9990
vt 0.0005 0.9995 0.9994
vt 0.8702 0.7408 0.9995
vt 0.9464 0.6792 0.9995
vt 0.9995 0.7018 0.9995
# 22 texture coords

g xxx
usemtl xxx
s off
f 368/596/48 369/597/48 370/598/48 371/599/48 
f 369/597/48 368/596/48 372/600/48 373/601/48 
f 369/597/48 373/601/48 374/602/48 375/603/48 
f 369/597/48 375/603/48 376/604/48 
s 8
f 376/604/49 375/603/49 377/605/49 
s 2
f 376/606/50 378/607/51 379/608/52 369/609/52 
f 380/610/53 378/607/51 376/606/50 377/611/53 
f 380/610/53 377/611/53 381/612/54 382/613/54 
s off
f 381/614/55 377/605/55 375/603/55 383/615/55 
f 383/615/56 375/603/56 384/616/56 385/617/56 
# 8 polygons - 2 triangles

