# 3ds Max Wavefront OBJ Exporter v0.97b - (c)2007 guruware
# File Created: 09.04.2012 11:39:50

mtllib Parnu_9a-origo.mtl

#
# object Parnu_mnt_9a
#

v  542431.8646 6588716.4148 14.7192
v  542430.8346 6588715.2524 14.7192
v  542430.8346 6588715.2524 17.1225
v  542431.8646 6588716.4148 17.1225
v  542438.2785 6588710.8398 18.4819
v  542438.2785 6588710.8398 17.5503
v  542438.8605 6588710.3241 17.5503
v  542439.7421 6588709.5428 17.5503
v  542440.686 6588708.7064 17.5503
v  542441.4745 6588708.0076 17.5503
v  542442.8551 6588706.7842 17.5503
v  542442.8551 6588706.7842 18.4819
v  542442.8053 6588706.7281 19.0814
v  542431.8477 6588716.4383 19.0814
v  542431.8477 6588716.4383 18.4819
v  542442.8053 6588706.7281 18.4819
v  542442.8551 6588706.7842 21.7922
v  542442.4919 6588707.1061 21.7922
v  542442.4919 6588707.1061 20.7308
v  542442.8551 6588706.7842 20.7308
v  542431.8974 6588716.4944 18.4819
v  542437.2857 6588711.7195 18.4819
v  542431.86 6588716.5276 19.0814
v  542431.86 6588716.5276 18.4819
v  542431.8103 6588716.4715 18.4819
v  542431.8103 6588716.4715 19.0814
v  542431.8974 6588716.4944 19.0814
v  542433.1491 6588715.3852 19.0814
v  542434.3232 6588714.3448 19.0814
v  542442.8551 6588706.7842 19.0814
v  542442.0736 6588707.4767 19.0814
v  542440.8857 6588708.5294 19.0814
v  542440.0919 6588709.2328 19.0814
v  542438.956 6588710.2394 19.0814
v  542438.175 6588710.9315 19.0814
v  542437.0051 6588711.9683 19.0814
v  542436.2511 6588712.6363 19.0814
v  542435.1119 6588713.6459 19.0814
v  542442.8428 6588706.6949 19.0814
v  542442.8925 6588706.751 19.0814
v  542442.8925 6588706.751 18.4819
v  542442.8428 6588706.6949 18.4819
v  542442.0736 6588707.4767 20.7308
v  542440.8857 6588708.5294 20.7308
v  542440.0919 6588709.2328 20.7308
v  542438.956 6588710.2394 20.7308
v  542438.175 6588710.9315 20.7308
v  542437.0051 6588711.9683 20.7308
v  542436.2511 6588712.6363 20.7308
v  542435.1119 6588713.6459 20.7308
v  542434.3232 6588714.3448 20.7308
v  542433.1491 6588715.3852 20.7308
v  542432.1612 6588716.2607 20.7308
v  542431.8974 6588716.4944 20.7308
v  542436.4899 6588710.8214 17.3704
v  542437.4826 6588709.9417 17.3704
v  542437.4826 6588709.9417 17.4459
v  542436.4899 6588710.8214 17.4459
v  542437.2857 6588711.7195 17.5503
v  542437.2857 6588711.7195 17.5333
v  542438.2785 6588710.8398 17.5333
v  542436.439 6588710.8184 17.4459
v  542437.4857 6588709.8909 17.4459
v  542437.4857 6588709.8909 17.4607
v  542436.439 6588710.8184 17.4607
v  542441.4745 6588708.0076 16.3498
v  542442.8551 6588706.7842 16.3498
v  542431.8974 6588716.4944 17.5503
v  542435.0797 6588713.6744 17.5503
v  542435.9492 6588712.9039 17.5503
v  542431.8974 6588716.4944 16.3498
v  542435.0797 6588713.6744 16.3498
v  542438.8605 6588710.3241 16.3498
v  542438.2785 6588710.8398 16.3498
v  542438.2785 6588710.8398 15.8759
v  542442.8551 6588706.7842 15.8759
v  542439.7421 6588709.5428 16.3498
v  542440.686 6588708.7064 16.3498
v  542431.8643 6588716.457 14.7192
v  542437.2526 6588711.6821 14.7192
v  542437.2526 6588711.6821 15.8759
v  542431.8643 6588716.457 15.8759
v  542437.2857 6588711.7195 17.0415
v  542438.2785 6588710.8398 17.0415
v  542438.2785 6588710.8398 17.3704
v  542437.2857 6588711.7195 17.3704
v  542438.2785 6588710.8398 17.5184
v  542435.9492 6588712.9039 16.3498
v  542437.2857 6588711.7195 16.3498
v  542437.2857 6588711.7195 17.5184
v  542440.9852 6588708.6416 20.7308
v  542442.1731 6588707.589 20.7308
v  542442.1731 6588707.589 19.0814
v  542440.9852 6588708.6416 19.0814
v  542439.0555 6588710.3517 20.7308
v  542440.1913 6588709.3452 20.7308
v  542440.1913 6588709.3452 19.0814
v  542439.0555 6588710.3517 19.0814
v  542437.1046 6588712.0805 20.7308
v  542438.2744 6588711.0438 20.7308
v  542438.2744 6588711.0438 19.0814
v  542437.1046 6588712.0805 19.0814
v  542433.2486 6588715.4975 20.7308
v  542434.4227 6588714.457 20.7308
v  542434.4227 6588714.457 19.0814
v  542433.2486 6588715.4975 19.0814
v  542436.3506 6588712.7486 19.0814
v  542435.2113 6588713.7582 19.0814
v  542435.2113 6588713.7582 20.7308
v  542436.3506 6588712.7486 20.7308
v  542438.96 6588710.4363 16.3498
v  542438.96 6588710.4363 17.5503
v  542439.8415 6588709.6551 17.5503
v  542439.8415 6588709.6551 16.3498
v  542440.7854 6588708.8187 16.3498
v  542440.7854 6588708.8187 17.5503
v  542441.574 6588708.1199 17.5503
v  542441.574 6588708.1199 16.3498
v  542436.0487 6588713.0162 17.5503
v  542436.0487 6588713.0162 16.3498
v  542435.1792 6588713.7867 16.3498
v  542435.1792 6588713.7867 17.5503
v  542432.1612 6588716.2607 21.7922
v  542431.8974 6588716.4944 21.7922
v  542437.2588 6588711.7434 17.5333
v  542437.2588 6588711.7434 17.5184
v  542436.4899 6588710.8214 17.4968
v  542437.4826 6588709.9417 17.4968
v  542438.2785 6588710.8398 17.5693
v  542437.2857 6588711.7195 17.5693
v  542438.3055 6588710.8159 17.5184
v  542438.3055 6588710.8159 17.5333
v  542436.4899 6588710.8214 17.4607
v  542437.4826 6588709.9417 17.4607
v  542442.8219 6588706.7468 15.8759
v  542438.2453 6588710.8024 15.8759
v  542438.2453 6588710.8024 14.7192
v  542442.8219 6588706.7468 14.7192
v  542431.8974 6588716.4944 15.8759
v  542437.2857 6588711.7195 15.8759
v  542431.86 6588716.5276 15.8759
v  542431.86 6588716.5276 14.7192
v  542431.8268 6588716.4902 14.7192
v  542431.8268 6588716.4902 15.8759
v  542437.2857 6588711.7195 14.7192
v  542442.8593 6588706.7137 15.8759
v  542442.8593 6588706.7137 14.7192
v  542442.8925 6588706.751 14.7192
v  542442.8925 6588706.751 15.8759
v  542438.2785 6588710.8398 14.7192
v  542438.4048 6588710.9823 17.0415
v  542438.4048 6588710.9823 16.3498
v  542437.412 6588711.8621 16.3498
v  542437.412 6588711.8621 17.0415
v  542438.4048 6588710.9823 15.8759
v  542438.4048 6588710.9823 14.7192
v  542437.412 6588711.8621 15.8759
v  542437.412 6588711.8621 14.7192
v  542448.1008 6588712.812 17.5503
v  542448.1008 6588712.812 18.4819
v  542448.1385 6588712.7792 18.4819
v  542448.1385 6588712.7792 19.0814
v  542442.8928 6588706.7514 19.0814
v  542442.8928 6588706.7514 18.4819
v  542448.1008 6588712.812 22.3855
v  542445.6657 6588710.0138 22.3855
v  542448.1008 6588712.812 20.7308
v  542448.1008 6588712.812 19.0814
v  542448.1008 6588712.812 16.3498
v  542448.1008 6588712.812 15.8759
v  542442.8551 6588706.7842 22.3855
v  542442.4919 6588707.1061 22.7831
v  542447.7224 6588713.1187 22.7831
v  542448.1385 6588712.7792 14.7192
v  542448.1385 6588712.7792 15.8759
v  542442.8928 6588706.7514 15.8759
v  542442.8928 6588706.7514 14.7192
v  542436.6303 6588722.1069 22.7831
v  542436.9051 6588721.8843 22.7831
v  542436.9051 6588721.8842 20.7308
v  542436.6303 6588722.1069 20.7308
v  542436.6303 6588722.1069 19.0814
v  542447.7224 6588713.1187 20.7308
v  542436.6303 6588722.1069 18.4819
v  542436.6303 6588722.1069 17.5503
v  542436.6303 6588722.1069 16.3498
v  542436.6303 6588722.1069 15.8759
v  542448.1008 6588712.812 14.7192
v  542436.6303 6588722.1069 14.7192
v  542431.8592 6588716.5267 19.0814
v  542431.8592 6588716.5267 18.4819
v  542436.5921 6588722.1392 18.4819
v  542436.5921 6588722.1392 19.0814
v  542436.5921 6588722.1392 14.7192
v  542436.5921 6588722.1392 15.8759
v  542448.1008 6588712.812 22.7831
v  542435.5985 6588720.8834 20.4142
v  542435.5985 6588720.8834 19.0814
v  542435.5985 6588720.8834 20.7308
v  542434.7312 6588719.8549 22.3855
v  542436.6303 6588722.1069 22.3855
v  542436.4463 6588721.8887 20.7308
v  542436.3539 6588721.7792 20.7308
v  542435.6916 6588720.9937 20.7308
v  542435.6929 6588720.9944 17.8455
v  542435.6931 6588720.9943 17.5503
v  542434.9624 6588720.1269 17.5503
v  542433.2487 6588718.1486 17.5503
v  542435.6925 6588720.9948 18.4819
v  542433.2487 6588718.1486 16.3256
v  542431.8592 6588716.5267 14.7192
v  542431.8592 6588716.5267 15.8759
v  542436.3585 6588721.7843 16.3498
v  542434.9624 6588720.1269 16.3256
v  542435.6931 6588720.9943 16.3498
v  542436.3584 6588721.7845 18.4819
v  542435.6916 6588720.9937 19.0814
v  542436.3539 6588721.7792 19.0814
v  542436.4463 6588721.8887 19.0814
v  542432.1612 6588716.2607 22.7831
v  542431.8974 6588716.4944 22.3855
v  542435.6931 6588720.9943 17.0011
v  542436.3585 6588721.7843 17.5503
v  542436.3585 6588721.7843 17.8455
v  542436.3585 6588721.7843 17.0011
v  542436.3539 6588721.7792 20.4142
v  542435.6916 6588720.9937 20.4142
v  542436.4463 6588721.8887 20.4142
v  542433.3242 6588718.0831 17.5503
v  542435.038 6588720.0614 17.5503
v  542435.038 6588720.0614 16.3498
v  542433.3242 6588718.0831 16.3498
v  542436.435 6588721.7198 17.0253
v  542436.435 6588721.7198 17.5503
v  542435.7696 6588720.9299 17.0253
v  542435.7696 6588720.9299 17.5503
v  542436.435 6588721.7199 17.8456
v  542435.7694 6588720.93 17.8456
v  542436.4304 6588721.7147 20.2739
v  542436.3539 6588721.7792 20.2739
v  542436.4304 6588721.7147 19.0814
v  542435.768 6588720.9292 19.0814
v  542435.6916 6588720.9937 20.2739
v  542435.768 6588720.9292 20.2739
v  542436.3356 6588721.7946 20.4142
v  542436.3356 6588721.7946 20.2739
v  542435.6733 6588721.0091 20.2739
v  542435.6733 6588721.0091 20.4142
v  542436.428 6588721.9041 20.4142
v  542436.428 6588721.9041 19.0814
v  542436.3356 6588721.7946 19.0814
v  542435.6733 6588721.0091 19.0814
v  542435.5802 6588720.8988 19.0814
v  542435.5802 6588720.8988 20.4142
v  542438.202 6588710.7535 14.7192
v  542438.202 6588710.7535 14.8453
v  542437.2093 6588711.6333 14.8453
v  542437.2093 6588711.6333 14.7192
v  542438.4048 6588710.9823 14.8453
v  542437.412 6588711.8621 14.8453
v  542438.4047 6588710.9823 14.8453
v  542438.4047 6588710.9823 14.7192
v  542442.8551 6588706.7842 22.7831
v  542436.6303 6588722.107 22.7831
v  542431.8974 6588716.4944 22.7831
v  542436.8768 6588721.8843 22.7831
v  542442.8551 6588706.7843 21.7922
v  542436.6303 6588722.107 22.3855
v  542442.8555 6588706.7839 21.6277
v  542431.8974 6588716.4944 21.6277
v  542431.8974 6588716.4944 21.6935
v  542442.8555 6588706.7839 21.6935
v  542431.8643 6588716.457 21.6935
v  542431.8643 6588716.457 21.6277
v  542442.8223 6588706.7465 21.6277
v  542442.8223 6588706.7465 21.6935
v  542431.8974 6588716.4944 21.5910
v  542442.8555 6588706.7839 21.5910
v  542442.8389 6588706.7652 21.5910
v  542431.8808 6588716.4757 21.5910
v  542442.8389 6588706.7652 21.6277
v  542431.8808 6588716.4757 21.6277
v  542431.8241 6588716.4117 21.7922
v  542442.7822 6588706.7012 21.7922
v  542442.8555 6588706.7839 21.7922
v  542431.8248 6588716.4125 21.7513
v  542442.7829 6588706.702 21.7513
v  542431.8397 6588716.4293 21.7513
v  542442.7978 6588706.7188 21.7513
v  542431.8397 6588716.4293 21.7343
v  542442.7978 6588706.7188 21.7343
v  542431.8506 6588716.4417 21.7343
v  542442.8087 6588706.7311 21.7343
v  542431.8518 6588716.4429 21.7314
v  542442.8098 6588706.7324 21.7314
v  542431.8528 6588716.4441 21.7285
v  542442.8109 6588706.7336 21.7285
v  542431.8538 6588716.4452 21.7254
v  542442.8119 6588706.7347 21.7254
v  542431.8549 6588716.4464 21.7225
v  542442.8129 6588706.7359 21.7225
v  542431.8561 6588716.4478 21.7197
v  542442.8141 6588706.7372 21.7197
v  542431.8575 6588716.4494 21.7172
v  542442.8155 6588706.7388 21.7172
v  542431.8592 6588716.4513 21.7151
v  542442.8173 6588706.7408 21.7151
v  542431.8613 6588716.4536 21.7135
v  542442.8193 6588706.7431 21.7135
v  542431.8636 6588716.4563 21.7122
v  542442.8217 6588706.7458 21.7122
v  542431.8662 6588716.4592 21.7113
v  542442.8243 6588706.7487 21.7113
v  542431.8689 6588716.4622 21.7105
v  542442.827 6588706.7517 21.7105
v  542431.8717 6588716.4654 21.7098
v  542442.8297 6588706.7548 21.7098
v  542431.8744 6588716.4684 21.7090
v  542442.8325 6588706.7579 21.7090
v  542431.877 6588716.4714 21.7081
v  542442.8351 6588706.7609 21.7081
v  542431.8849 6588716.4803 21.7075
v  542442.843 6588706.7698 21.7075
v  542431.8849 6588716.4803 21.6935
v  542442.843 6588706.7698 21.6935
v  542434.3546 6588712.1332 14.7192
v  542431.8049 6588716.4677 17.3371
v  542431.8055 6588716.4672 17.1222
v  542430.7264 6588715.2455 17.1223
v  542430.7259 6588715.246 17.3372
v  542434.3022 6588712.0741 14.7192
v  542434.6038 6588711.8068 14.7192
v  542431.864 6588716.4153 17.3374
v  542434.6562 6588711.866 14.7192
v  542435.6862 6588713.0283 14.7192
v  542447.8694 6588712.5413 18.3509
v  542443.3881 6588707.3947 16.9202
v  542448.5211 6588702.846 16.9202
v  542453.047 6588707.9532 18.3509
v  542443.3881 6588707.3947 16.5635
v  542445.9324 6588705.14 16.5635
v  542448.5211 6588702.846 16.5635
v  542448.3808 6588702.9703 16.3761
v  542448.3808 6588702.9703 14.7527
v  542448.5211 6588702.846 14.7192
v  542445.9324 6588705.14 14.7192
v  542446.0727 6588705.0157 14.7527
v  542446.0727 6588705.0157 16.3761
v  542445.7921 6588705.2643 14.7527
v  542443.3881 6588707.3947 14.7192
v  542443.5284 6588707.2703 14.7527
v  542443.5284 6588707.2703 16.3761
v  542445.7921 6588705.2643 16.3761
v  542453.047 6588707.9532 14.7192
v  542453.2728 6588708.2081 14.7192
v  542448.0953 6588712.7962 14.7192
v  542448.0953 6588712.7962 18.3509
v  542453.2728 6588708.2081 18.3509
v  542453.2728 6588708.2081 18.8793
v  542448.0953 6588712.7962 18.8793
v  542447.8694 6588712.5413 18.8793
v  542453.047 6588707.9532 18.8793
v  542447.8694 6588712.5413 14.7192
v  542448.3808 6588702.9704 14.7527
# 364 vertices

vn -0.7484 0.6632 0.0000
vn -0.6632 -0.7484 0.0000
vn -0.6633 -0.7484 -0.0001
vn -0.6632 -0.7484 0.0001
vn -0.6633 -0.7484 0.0000
vn 0.0000 0.0000 -1.0000
vn -0.7485 0.6632 0.0000
vn 0.0000 0.0000 1.0000
vn -0.7487 0.6630 0.0000
vn -0.6631 -0.7485 0.0001
vn -0.6631 -0.7485 0.0000
vn -0.6633 -0.7484 0.0001
vn -0.6631 -0.7486 0.0000
vn -0.6632 -0.7485 0.0000
vn -0.6632 -0.7484 -0.0001
vn -0.6633 -0.7484 -0.0005
vn -0.6632 -0.7484 0.0002
vn -0.6633 -0.7484 -0.0002
vn 0.7484 -0.6633 0.0000
vn 0.7482 -0.6635 0.0000
vn -0.7492 0.6624 0.0000
vn 0.7485 -0.6632 0.0000
vn -0.7488 0.6628 0.0000
vn 0.7488 -0.6628 0.0000
vn -0.6631 -0.7485 0.0007
vn -0.6633 -0.7484 -0.0003
vn -0.6632 -0.7484 -0.0000
vn -0.6631 -0.7485 0.0013
vn 0.7484 -0.6632 0.0000
vn -0.7484 0.6633 0.0000
vn -0.0400 -0.0451 0.9982
vn -0.0592 0.9982 0.0000
vn 0.9981 0.0608 0.0000
vn 0.6641 0.7476 0.0000
vn 0.0049 -0.0826 0.9966
vn -0.0401 -0.0452 0.9982
vn 0.0592 -0.9982 0.0000
vn 0.0401 0.0451 -0.9982
vn -0.0049 0.0824 -0.9966
vn 0.6632 0.7485 0.0000
vn 0.6633 0.7483 0.0000
vn 0.0825 0.0050 -0.9966
vn 0.0400 0.0451 -0.9982
vn -0.9981 -0.0608 0.0000
vn -0.0826 -0.0050 0.9966
vn -0.6632 -0.7484 0.0003
vn -0.7477 0.6641 0.0000
vn 0.7489 -0.6627 0.0000
vn 0.7469 -0.6650 0.0000
vn -0.7479 0.6638 0.0000
vn -0.7483 0.6633 0.0000
vn 0.7486 -0.6631 0.0000
vn 0.7543 -0.6565 0.0000
vn 0.7544 -0.6565 -0.0001
vn -0.7545 0.6563 0.0000
vn 0.6294 0.7771 -0.0000
vn 0.6296 0.7769 0.0000
vn 0.6297 0.7769 -0.0010
vn -0.6639 -0.7478 0.0000
vn 0.6639 0.7478 0.0000
vn 0.6460 0.7634 0.0000
vn -0.6456 -0.7637 0.0000
vn 0.6628 0.7488 0.0000
vn 0.6564 0.7544 0.0000
vn -0.6564 -0.7544 0.0000
vn -0.6625 -0.7490 0.0000
vn -0.6628 -0.7488 0.0000
vn 0.6297 0.7769 0.0000
vn 0.6296 0.7769 -0.0000
vn -0.7645 0.6447 0.0000
vn -0.7645 0.6446 -0.0001
vn -0.7642 0.6449 0.0006
vn -0.7642 0.6450 0.0003
vn -0.7648 0.6443 -0.0007
vn -0.7542 0.6533 0.0661
vn -0.7646 0.6446 -0.0022
vn -0.7645 0.6447 -0.0009
vn -0.7744 0.6326 0.0000
vn -0.7648 0.6443 0.0000
vn -0.7451 0.6046 -0.2816
vn -0.7535 0.6527 0.0792
vn -0.7648 0.6442 0.0034
vn -0.7648 0.6442 -0.0001
vn 0.7644 -0.6448 0.0000
vn -0.7645 0.6447 -0.0003
vn -0.7645 0.6446 -0.0003
vn -0.7647 0.6444 -0.0009
vn -0.7648 0.6442 0.0000
vn -0.7645 0.6446 0.0000
vn -0.7642 0.6449 0.0000
vn -0.6548 -0.7558 0.0000
vn -0.1779 0.1541 0.9719
vn -0.1778 0.1540 0.9720
vn 0.6553 0.7554 0.0000
vn -0.6447 -0.7644 0.0000
vn -0.1799 0.1515 0.9719
vn -0.1798 0.1514 0.9720
vn 0.6439 0.7651 0.0000
vn -0.6440 -0.7650 0.0000
vn -0.6447 -0.7644 0.0003
vn 0.6439 0.7651 0.0002
vn 0.6440 0.7650 0.0002
vn 0.0008 -0.0006 -1.0000
vn -0.6446 -0.7645 0.0000
vn 0.6452 0.7640 0.0000
vn -0.7642 0.6450 0.0000
vn -0.7644 0.6448 0.0000
vn -0.6443 -0.7648 0.0000
vn -0.6435 -0.7654 0.0000
vn 0.6432 0.7657 0.0000
vn -0.7485 0.6631 0.0000
vn 0.7485 -0.6631 0.0000
vn -0.0777 -0.0959 0.9923
vn -0.0886 -0.0999 0.9910
vn -0.6632 -0.7485 -0.0001
vn 0.6632 0.7484 0.0000
vn 0.7479 -0.6638 0.0000
vn -0.7487 0.6629 0.0003
vn -0.7474 0.6644 0.0000
vn -0.7490 0.6625 0.0009
vn -0.7495 0.6620 0.0009
vn -0.7487 0.6629 0.0000
vn -0.6630 -0.7482 -0.0259
vn -0.5791 -0.6535 -0.4875
vn -0.5752 -0.6491 -0.4979
vn -0.5733 -0.6469 -0.5029
vn -0.5731 -0.6467 -0.5034
vn -0.5915 -0.6675 -0.4523
vn -0.5878 -0.6633 -0.4632
vn -0.5878 -0.6633 -0.4631
vn -0.5915 -0.6675 -0.4522
vn -0.5660 -0.6387 -0.5213
vn -0.5728 -0.6463 -0.5042
vn -0.5310 -0.5992 -0.5991
vn -0.5339 -0.6025 -0.5932
vn -0.4658 -0.5256 -0.7119
vn -0.4589 -0.5179 -0.7219
vn -0.3645 -0.4113 -0.8355
vn -0.3595 -0.4057 -0.8404
vn -0.2659 -0.3001 -0.9161
vn -0.2678 -0.3022 -0.9149
vn -0.1893 -0.2136 -0.9584
vn -0.1876 -0.2117 -0.9592
vn -0.1393 -0.1572 -0.9777
vn -0.1389 -0.1568 -0.9778
vn -0.1183 -0.1335 -0.9840
vn -0.1200 -0.1354 -0.9835
vn -0.1181 -0.1333 -0.9840
vn -0.1379 -0.1556 -0.9782
vn -0.1358 -0.1532 -0.9788
vn -0.1471 -0.1660 -0.9751
vn -0.0334 -0.0377 -0.9987
vn -0.0333 -0.0376 -0.9987
vn -0.7499 0.6615 -0.0077
vn -0.7128 0.6848 0.1514
vn -0.7577 0.6517 -0.0340
vn -0.7440 0.6682 -0.0034
vn -0.7460 0.6659 0.0076
vn -0.6977 0.7138 0.0613
vn -0.7482 0.6635 -0.0012
vn -0.7503 0.6611 -0.0055
vn -0.7518 0.6594 0.0000
vn -0.7544 0.6564 -0.0053
vn -0.7477 0.6641 0.0001
vn -0.7483 0.6634 0.0000
vn -0.7482 0.6634 0.0000
vn -0.7483 0.6633 -0.0001
vn -0.7486 0.6630 -0.0004
vn -0.7605 0.6482 -0.0391
vn -0.7439 0.6682 0.0144
vn -0.7507 0.6606 -0.0090
vn -0.7472 0.6646 0.0052
vn 0.6042 -0.6589 -0.4480
vn 0.7198 -0.6771 -0.1532
vn -0.7303 0.5520 -0.4024
vn 0.7484 -0.6633 0.0001
vn 0.7499 -0.6616 -0.0028
vn 0.7483 -0.6633 0.0000
vn 0.7483 -0.6633 -0.0000
vn 0.7483 -0.6634 0.0000
vn 0.7520 -0.6592 -0.0021
vn 0.7483 -0.6634 0.0005
vn 0.7482 -0.6635 0.0001
vn 0.7483 -0.6634 0.0004
vn 0.7457 -0.6663 0.0024
vn 0.7462 -0.6657 0.0019
vn 0.7496 -0.6619 -0.0015
vn 0.7491 -0.6625 -0.0008
vn 0.7475 -0.6642 0.0008
vn 0.7464 -0.6655 0.0025
vn 0.7482 -0.6635 -0.0004
vn 0.7512 -0.6600 -0.0042
vn 0.7455 -0.6665 0.0043
vn 0.7488 -0.6628 -0.0013
vn 0.7484 -0.6633 -0.0000
vn -0.7495 0.6620 -0.0037
vn -0.7495 0.6620 -0.0032
vn -0.6635 -0.7482 0.0002
vn -0.6633 -0.7484 0.0007
vn 0.0028 -0.0025 -1.0000
vn 0.0020 -0.0018 -1.0000
vn 0.6634 0.7482 0.0000
vn -0.0353 0.5779 -0.8153
vn -0.3405 0.3018 -0.8905
vn 0.3414 -0.3026 0.8899
vn -0.0028 0.0026 1.0000
vn 0.3235 -0.3150 0.8923
vn 0.3376 -0.2988 0.8926
vn -0.7558 0.6548 0.0000
vn -0.7648 0.6443 -0.0001
vn -0.7647 0.6444 -0.0003
vn -0.1361 -0.1536 0.9787
vn 0.6632 0.7484 0.0008
vn 0.6632 0.7484 0.0002
vn 0.6632 0.7484 0.0023
vn -0.6635 -0.7482 0.0000
vn -0.6632 -0.7484 0.0004
# 217 vertex normals

vt 0.0005 0.0005 1.2926
vt 0.9995 0.0005 -1.2916
vt 0.9995 0.9995 -0.2926
vt 0.9995 0.9995 -0.2926
vt 0.0005 0.9995 2.2916
vt 0.0005 0.0005 1.2926
vt 0.2409 0.3362 1.3155
vt 0.2409 0.1848 1.3155
vt 0.0854 0.1848 1.3155
vt 0.2409 0.3362 1.3155
vt 0.0854 0.1848 1.3155
vt -0.1502 0.1848 1.3155
vt 0.2409 0.3362 1.3155
vt -0.1502 0.1848 1.3155
vt -0.4025 0.1848 1.3155
vt 0.2409 0.3362 1.3155
vt -0.4025 0.1848 1.3155
vt -0.6132 0.1848 1.3155
vt 0.2409 0.3362 1.3155
vt -0.6132 0.1848 1.3155
vt -0.9821 0.1848 1.3155
vt 0.2409 0.3362 1.3155
vt -0.9821 0.1848 1.3155
vt -0.9821 0.3362 1.3155
vt -0.9821 0.4337 1.3305
vt 1.9461 0.4337 1.3305
vt 1.9461 0.3362 1.3305
vt 1.9461 0.3362 1.3305
vt -0.9821 0.3362 1.3305
vt -0.9821 0.4337 1.3305
vt -0.9821 0.8745 1.3155
vt -0.8851 0.8745 1.3155
vt -0.8851 0.7019 1.3155
vt -0.8851 0.7019 1.3155
vt -0.9821 0.7019 1.3155
vt -0.9821 0.8745 1.3155
vt 1.9461 1.3305 0.3362
vt 1.9461 1.3155 0.3362
vt 0.5062 1.3155 0.3362
vt 0.5062 1.3155 0.3362
vt 0.2409 1.3155 0.3362
vt -0.9821 1.3155 0.3362
vt 1.9461 1.3305 0.3362
vt 0.5062 1.3155 0.3362
vt -0.9821 1.3155 0.3362
vt 1.9461 1.3305 0.3362
vt -0.9821 1.3155 0.3362
vt -0.9821 1.3305 0.3362
vt 1.3155 0.4337 1.9561
vt 1.3155 0.3362 1.9561
vt 1.3305 0.3362 1.9561
vt 1.3305 0.3362 1.9561
vt 1.3305 0.4337 1.9561
vt 1.3155 0.4337 1.9561
vt -0.9461 1.3155 0.4337
vt -0.9461 1.3305 0.4337
vt 1.9821 1.3305 0.4337
vt -0.6116 1.3155 0.4337
vt -0.9461 1.3155 0.4337
vt 1.9821 1.3305 0.4337
vt -0.2978 1.3155 0.4337
vt -0.6116 1.3155 0.4337
vt 1.9821 1.3305 0.4337
vt 1.9821 1.3305 0.4337
vt 1.9821 1.3155 0.4337
vt 1.7733 1.3155 0.4337
vt 1.9821 1.3305 0.4337
vt 1.7733 1.3155 0.4337
vt 1.4558 1.3155 0.4337
vt 1.9821 1.3305 0.4337
vt 1.4558 1.3155 0.4337
vt 1.2437 1.3155 0.4337
vt 1.9821 1.3305 0.4337
vt 1.2437 1.3155 0.4337
vt 0.9402 1.3155 0.4337
vt 1.9821 1.3305 0.4337
vt 0.9402 1.3155 0.4337
vt 0.7315 1.3155 0.4337
vt 1.9821 1.3305 0.4337
vt 0.7315 1.3155 0.4337
vt 0.4188 1.3155 0.4337
vt 1.9821 1.3305 0.4337
vt 0.4188 1.3155 0.4337
vt 0.2174 1.3155 0.4337
vt -0.2978 1.3155 0.4337
vt 1.9821 1.3305 0.4337
vt 0.2174 1.3155 0.4337
vt -0.2978 1.3155 0.4337
vt 0.2174 1.3155 0.4337
vt -0.0871 1.3155 0.4337
vt 1.3305 0.4337 -0.9921
vt 1.3155 0.4337 -0.9921
vt 1.3155 0.3362 -0.9921
vt 1.3155 0.3362 -0.9921
vt 1.3305 0.3362 -0.9921
vt 1.3305 0.4337 -0.9921
vt -0.9821 0.4337 1.3155
vt -0.9821 0.7019 1.3155
vt -0.8851 0.7019 1.3155
vt -0.9821 0.4337 1.3155
vt -0.8851 0.7019 1.3155
vt -0.7733 0.7019 1.3155
vt -0.9821 0.4337 1.3155
vt -0.7733 0.7019 1.3155
vt -0.7733 0.4337 1.3155
vt -0.4558 0.4337 1.3155
vt -0.4558 0.7019 1.3155
vt -0.2437 0.7019 1.3155
vt -0.2437 0.7019 1.3155
vt -0.2437 0.4337 1.3155
vt -0.4558 0.4337 1.3155
vt 0.0598 0.4337 1.3155
vt 0.0598 0.7019 1.3155
vt 0.2686 0.7019 1.3155
vt 0.2686 0.7019 1.3155
vt 0.2685 0.4337 1.3155
vt 0.0598 0.4337 1.3155
vt 0.5812 0.4337 1.3155
vt 0.5812 0.7019 1.3155
vt 0.7826 0.7019 1.3155
vt 0.7826 0.7019 1.3155
vt 0.7826 0.4337 1.3155
vt 0.5812 0.4337 1.3155
vt 1.0871 0.4337 1.3155
vt 1.0871 0.7019 1.3155
vt 1.2978 0.7019 1.3155
vt 1.2978 0.7019 1.3155
vt 1.2978 0.4337 1.3155
vt 1.0871 0.4337 1.3155
vt 1.9461 0.4337 1.3155
vt 1.6116 0.4337 1.3155
vt 1.6116 0.7019 1.3155
vt 1.9461 0.4337 1.3155
vt 1.6116 0.7019 1.3155
vt 1.8756 0.7019 1.3155
vt 1.9461 0.4337 1.3155
vt 1.8756 0.7019 1.3155
vt 1.9461 0.7019 1.3155
vt 0.5062 0.1555 1.5555
vt 0.2409 0.1555 1.5555
vt 0.2409 0.1678 1.5555
vt 0.2409 0.1678 1.5555
vt 0.5062 0.1678 1.5555
vt 0.5062 0.1555 1.5555
vt 0.2409 0.3362 1.3155
vt 0.5062 0.3362 1.3155
vt 0.5062 0.1848 1.3155
vt 0.2409 0.3362 1.3155
vt 0.5062 0.1848 1.3155
vt 0.5062 0.1820 1.3155
vt 0.2409 0.1848 1.3155
vt 0.2409 0.3362 1.3155
vt 0.5062 0.1820 1.3155
vt 0.2409 0.1848 1.3155
vt 0.5062 0.1820 1.3155
vt 0.2409 0.1820 1.3155
vt 0.5134 0.1678 1.5627
vt 0.2337 0.1678 1.5627
vt 0.2337 0.1702 1.5627
vt 0.2337 0.1702 1.5627
vt 0.5134 0.1702 1.5627
vt 0.5134 0.1678 1.5627
vt -0.9821 0.1848 1.3155
vt -0.6132 0.1848 1.3155
vt -0.6132 -0.0104 1.3155
vt -0.6132 -0.0104 1.3155
vt -0.9821 -0.0104 1.3155
vt -0.9821 0.1848 1.3155
vt 1.9461 0.3362 1.3155
vt 1.9461 0.1848 1.3155
vt 1.0957 0.1848 1.3155
vt 1.9461 0.3362 1.3155
vt 1.0957 0.1848 1.3155
vt 0.8633 0.1848 1.3155
vt 1.9461 0.3362 1.3155
vt 0.8633 0.1848 1.3155
vt 0.5062 0.1848 1.3155
vt 1.9461 0.3362 1.3155
vt 0.5062 0.1848 1.3155
vt 0.5062 0.3362 1.3155
vt 1.9461 -0.0104 1.3155
vt 1.0957 -0.0104 1.3155
vt 1.0957 0.1848 1.3155
vt 1.0957 0.1848 1.3155
vt 1.9461 0.1848 1.3155
vt 1.9461 -0.0104 1.3155
vt 0.0854 -0.0104 1.3155
vt 0.2409 -0.0104 1.3155
vt 0.2409 -0.0875 1.3155
vt 0.0854 -0.0104 1.3155
vt 0.2409 -0.0875 1.3155
vt -0.9821 -0.0875 1.3155
vt -0.1502 -0.0104 1.3155
vt 0.0854 -0.0104 1.3155
vt -0.9821 -0.0875 1.3155
vt -0.4025 -0.0104 1.3155
vt -0.1502 -0.0104 1.3155
vt -0.9821 -0.0875 1.3155
vt -0.6132 -0.0104 1.3155
vt -0.4025 -0.0104 1.3155
vt -0.9821 -0.0875 1.3155
vt -0.6132 -0.0104 1.3155
vt -0.9821 -0.0875 1.3155
vt -0.9821 -0.0104 1.3155
vt 0.0159 0.9762 0.1602
vt 0.4979 0.9761 0.1602
vt 0.4979 0.0274 0.1602
vt 0.4979 0.0274 0.1602
vt 0.0159 0.0274 0.1602
vt 0.0159 0.9762 0.1602
vt 0.5062 0.1020 1.3155
vt 0.2409 0.1020 1.3155
vt 0.2409 0.1555 1.3155
vt 0.2409 0.1555 1.3155
vt 0.5062 0.1555 1.3155
vt 0.5062 0.1020 1.3155
vt 0.0854 -0.0104 1.3155
vt 0.0854 0.1848 1.3155
vt 0.2409 0.1848 1.3155
vt 0.0854 -0.0104 1.3155
vt 0.2409 0.1848 1.3155
vt 0.2409 0.1820 1.3155
vt 0.0854 -0.0104 1.3155
vt 0.2409 0.1820 1.3155
vt 0.2409 0.1796 1.3155
vt 0.0854 -0.0104 1.3155
vt 0.2409 0.1796 1.3155
vt 0.2409 0.1555 1.3155
vt 0.0854 -0.0104 1.3155
vt 0.2409 0.1555 1.3155
vt 0.2409 0.1020 1.3155
vt 0.0854 -0.0104 1.3155
vt 0.2409 0.1020 1.3155
vt 0.2409 -0.0104 1.3155
vt -0.4025 -0.0104 1.3155
vt -0.4025 0.1848 1.3155
vt -0.1502 0.1848 1.3155
vt -0.1502 0.1848 1.3155
vt -0.1502 -0.0104 1.3155
vt -0.4025 -0.0104 1.3155
vt 0.8633 -0.0104 1.3155
vt 0.5062 -0.0104 1.3155
vt 0.5062 0.1020 1.3155
vt 0.8633 -0.0104 1.3155
vt 0.5062 0.1020 1.3155
vt 0.5062 0.1555 1.3155
vt 0.8633 -0.0104 1.3155
vt 0.5062 0.1555 1.3155
vt 0.5062 0.1796 1.3155
vt 0.8633 -0.0104 1.3155
vt 0.5062 0.1796 1.3155
vt 0.5062 0.1820 1.3155
vt 0.8633 -0.0104 1.3155
vt 0.5062 0.1820 1.3155
vt 0.5062 0.1848 1.3155
vt 0.8633 -0.0104 1.3155
vt 0.5062 0.1848 1.3155
vt 0.8633 0.1848 1.3155
vt -0.4558 1.2855 0.7019
vt -0.7733 1.2855 0.7019
vt -0.7733 1.3155 0.7019
vt -0.7733 1.3155 0.7019
vt -0.4558 1.3155 0.7019
vt -0.4558 1.2855 0.7019
vt -0.2855 0.7019 -0.7733
vt -0.3155 0.7019 -0.7733
vt -0.3155 0.4337 -0.7733
vt -0.3155 0.4337 -0.7733
vt -0.2855 0.4337 -0.7733
vt -0.2855 0.7019 -0.7733
vt 0.0000 1.0000 0.0000
vt 1.0000 1.0000 0.0000
vt 1.0000 0.0000 0.0000
vt 1.0000 0.0000 0.0000
vt 0.0000 0.0000 0.0000
vt 0.0000 1.0000 0.0000
vt 1.2855 0.4337 -0.4558
vt 1.2855 0.7019 -0.4558
vt 1.3155 0.7019 -0.4558
vt 1.3155 0.7019 -0.4558
vt 1.3155 0.4337 -0.4558
vt 1.2855 0.4337 -0.4558
vt 0.0598 1.2855 0.7019
vt -0.2437 1.2855 0.7019
vt -0.2437 1.3155 0.7019
vt -0.2437 1.3155 0.7019
vt 0.0598 1.3155 0.7019
vt 0.0598 1.2855 0.7019
vt -0.2855 0.7019 -0.2437
vt -0.2855 0.4337 -0.2437
vt -0.3155 0.4337 -0.2437
vt -0.3155 0.4337 -0.2437
vt -0.3155 0.7019 -0.2437
vt -0.2855 0.7019 -0.2437
vt 0.0000 1.0000 0.0000
vt 1.0000 1.0000 0.0000
vt 1.0000 0.0000 0.0000
vt 1.0000 0.0000 0.0000
vt 0.0000 0.0000 0.0000
vt 0.0000 1.0000 0.0000
vt 1.2855 0.4337 0.0598
vt 1.2855 0.7019 0.0598
vt 1.3155 0.7019 0.0598
vt 1.3155 0.7019 0.0598
vt 1.3155 0.4337 0.0598
vt 1.2855 0.4337 0.0598
vt 0.5812 1.2855 0.7019
vt 0.2686 1.2855 0.7019
vt 0.2686 1.3155 0.7019
vt 0.2686 1.3155 0.7019
vt 0.5812 1.3155 0.7019
vt 0.5812 1.2855 0.7019
vt -0.2855 0.7019 0.2686
vt -0.2855 0.4337 0.2685
vt -0.3155 0.4337 0.2685
vt -0.3155 0.4337 0.2685
vt -0.3155 0.7019 0.2686
vt -0.2855 0.7019 0.2686
vt 0.0000 1.0000 0.0000
vt 1.0000 1.0000 0.0000
vt 1.0000 0.0000 0.0000
vt 1.0000 0.0000 0.0000
vt 0.0000 0.0000 0.0000
vt 0.0000 1.0000 0.0000
vt 1.2855 0.4337 0.5812
vt 1.2855 0.7019 0.5812
vt 1.3155 0.7019 0.5812
vt 1.3155 0.7019 0.5812
vt 1.3155 0.4337 0.5812
vt 1.2855 0.4337 0.5812
vt 1.6116 1.2855 0.7019
vt 1.6116 1.3155 0.7019
vt 1.2978 1.3155 0.7019
vt 1.2978 1.3155 0.7019
vt 1.2978 1.2855 0.7019
vt 1.6116 1.2855 0.7019
vt -0.2855 0.7019 1.2978
vt -0.3155 0.7019 1.2978
vt -0.3155 0.4337 1.2978
vt -0.3155 0.4337 1.2978
vt -0.2855 0.4337 1.2978
vt -0.2855 0.7019 1.2978
vt 0.0000 1.0000 0.0000
vt 0.0000 0.0000 0.0000
vt 1.0000 0.0000 0.0000
vt 1.0000 0.0000 0.0000
vt 1.0000 1.0000 0.0000
vt 0.0000 1.0000 0.0000
vt 1.2855 0.4337 1.6116
vt 1.3155 0.4337 1.6116
vt 1.3155 0.7019 1.6116
vt 1.3155 0.7019 1.6116
vt 1.2855 0.7019 1.6116
vt 1.2855 0.4337 1.6116
vt 0.0000 1.0000 0.0000
vt 1.0000 1.0000 0.0000
vt 1.0000 0.0000 0.0000
vt 1.0000 0.0000 0.0000
vt 0.0000 0.0000 0.0000
vt 0.0000 1.0000 0.0000
vt 1.2855 0.4337 1.0871
vt 1.3155 0.4337 1.0871
vt 1.3155 0.7019 1.0871
vt 1.3155 0.7019 1.0871
vt 1.2855 0.7019 1.0871
vt 1.2855 0.4337 1.0871
vt 1.0871 1.2855 0.7019
vt 0.7826 1.2855 0.7019
vt 0.7826 1.3155 0.7019
vt 0.7826 1.3155 0.7019
vt 1.0871 1.3155 0.7019
vt 1.0871 1.2855 0.7019
vt -0.2855 0.7019 0.7826
vt -0.2855 0.4337 0.7826
vt -0.3155 0.4337 0.7826
vt -0.3155 0.4337 0.7826
vt -0.3155 0.7019 0.7826
vt -0.2855 0.7019 0.7826
vt 1.2855 -0.0104 0.0854
vt 1.2855 0.1848 0.0854
vt 1.3155 0.1848 0.0854
vt 1.3155 0.1848 0.0854
vt 1.3155 -0.0104 0.0854
vt 1.2855 -0.0104 0.0854
vt 0.0854 1.2855 0.1848
vt -0.1502 1.2855 0.1848
vt -0.1502 1.3155 0.1848
vt -0.1502 1.3155 0.1848
vt 0.0854 1.3155 0.1848
vt 0.0854 1.2855 0.1848
vt -0.2855 0.1848 -0.1502
vt -0.2855 -0.0104 -0.1502
vt -0.3155 -0.0104 -0.1502
vt -0.3155 -0.0104 -0.1502
vt -0.3155 0.1848 -0.1502
vt -0.2855 0.1848 -0.1502
vt 0.0000 1.0000 0.0000
vt 1.0000 1.0000 0.0000
vt 1.0000 0.0000 0.0000
vt 1.0000 0.0000 0.0000
vt 0.0000 0.0000 0.0000
vt 0.0000 1.0000 0.0000
vt 1.2855 -0.0104 -0.4025
vt 1.2855 0.1848 -0.4025
vt 1.3155 0.1848 -0.4025
vt 1.3155 0.1848 -0.4025
vt 1.3155 -0.0104 -0.4025
vt 1.2855 -0.0104 -0.4025
vt -0.4025 1.2855 0.1848
vt -0.6132 1.2855 0.1848
vt -0.6132 1.3155 0.1848
vt -0.6132 1.3155 0.1848
vt -0.4025 1.3155 0.1848
vt -0.4025 1.2855 0.1848
vt -0.2855 0.1848 -0.6132
vt -0.2855 -0.0104 -0.6132
vt -0.3155 -0.0104 -0.6132
vt -0.3155 -0.0104 -0.6132
vt -0.3155 0.1848 -0.6132
vt -0.2855 0.1848 -0.6132
vt 0.0000 1.0000 0.0000
vt 1.0000 1.0000 0.0000
vt 1.0000 0.0000 0.0000
vt 1.0000 0.0000 0.0000
vt 0.0000 0.0000 0.0000
vt 0.0000 1.0000 0.0000
vt -0.2855 0.1848 0.8633
vt -0.3155 0.1848 0.8633
vt -0.3155 -0.0104 0.8633
vt -0.3155 -0.0104 0.8633
vt -0.2855 -0.0104 0.8633
vt -0.2855 0.1848 0.8633
vt 0.0000 1.0000 0.0000
vt 0.0000 0.0000 0.0000
vt 1.0000 0.0000 0.0000
vt 1.0000 0.0000 0.0000
vt 1.0000 1.0000 0.0000
vt 0.0000 1.0000 0.0000
vt 1.2855 -0.0104 1.0957
vt 1.3155 -0.0104 1.0957
vt 1.3155 0.1848 1.0957
vt 1.3155 0.1848 1.0957
vt 1.2855 0.1848 1.0957
vt 1.2855 -0.0104 1.0957
vt 1.0957 1.2855 0.1848
vt 1.0957 1.3155 0.1848
vt 0.8633 1.3155 0.1848
vt 0.8633 1.3155 0.1848
vt 0.8633 1.2855 0.1848
vt 1.0957 1.2855 0.1848
vt 1.8756 0.7019 1.3155
vt 1.8756 0.8745 1.3155
vt 1.9461 0.8745 1.3155
vt 1.9461 0.8745 1.3155
vt 1.9461 0.7019 1.3155
vt 1.8756 0.7019 1.3155
vt 1.8756 0.8745 1.3155
vt 1.8756 0.7019 1.3155
vt 1.6116 0.7019 1.3155
vt 1.8756 0.8745 1.3155
vt 1.6116 0.7019 1.3155
vt 1.2978 0.7019 1.3155
vt 1.8756 0.8745 1.3155
vt 1.2978 0.7019 1.3155
vt 1.0871 0.7019 1.3155
vt 1.8756 0.8745 1.3155
vt 1.0871 0.7019 1.3155
vt 0.7826 0.7019 1.3155
vt 1.8756 0.8745 1.3155
vt 0.7826 0.7019 1.3155
vt 0.5812 0.7019 1.3155
vt 1.8756 0.8745 1.3155
vt 0.5812 0.7019 1.3155
vt 0.2686 0.7019 1.3155
vt 1.8756 0.8745 1.3155
vt 0.2686 0.7019 1.3155
vt 0.0598 0.7019 1.3155
vt 1.8756 0.8745 1.3155
vt 0.0598 0.7019 1.3155
vt -0.2437 0.7019 1.3155
vt 1.8756 0.8745 1.3155
vt -0.2437 0.7019 1.3155
vt -0.4558 0.7019 1.3155
vt 1.8756 0.8745 1.3155
vt -0.4558 0.7019 1.3155
vt -0.7733 0.7019 1.3155
vt 1.8756 0.8745 1.3155
vt -0.7733 0.7019 1.3155
vt -0.8851 0.7019 1.3155
vt 1.8756 0.8745 1.3155
vt -0.8851 0.7019 1.3155
vt -0.8851 0.8745 1.3155
vt 1.5555 0.1678 0.2409
vt 1.5555 0.1555 0.2409
vt 1.3155 0.1555 0.2409
vt 1.3155 0.1555 0.2409
vt 1.3155 0.1796 0.2409
vt 1.5555 0.1678 0.2409
vt 0.2409 1.5555 0.1555
vt 0.5062 1.5555 0.1555
vt 0.5062 1.3155 0.1555
vt 0.5062 1.3155 0.1555
vt 0.2409 1.3155 0.1555
vt 0.2409 1.5555 0.1555
vt -0.5555 0.1678 0.5062
vt -0.3155 0.1796 0.5062
vt -0.3155 0.1555 0.5062
vt -0.3155 0.1555 0.5062
vt -0.5555 0.1555 0.5062
vt -0.5555 0.1678 0.5062
vt -0.5627 0.1678 0.5134
vt -0.5627 0.1702 0.5134
vt -0.3155 0.1820 0.5134
vt -0.3155 0.1820 0.5134
vt -0.3155 0.1796 0.5134
vt -0.5627 0.1678 0.5134
vt 0.1708 0.2015 1.9612
vt 0.8340 0.2066 1.9274
vt 0.8292 0.7985 -0.9612
vt 0.8292 0.7985 -0.9612
vt 0.1660 0.7934 -0.9272
vt 0.1708 0.2015 1.9612
vt 1.5627 0.1702 0.2337
vt 1.5627 0.1678 0.2337
vt 1.3155 0.1796 0.2337
vt 1.3155 0.1796 0.2337
vt 1.3155 0.1820 0.2337
vt 1.5627 0.1702 0.2337
vt 0.4938 0.1702 1.5555
vt 0.4866 0.1678 1.5627
vt 0.4866 0.1702 1.5627
vt 0.4866 0.1678 1.5627
vt 0.4938 0.1702 1.5555
vt 0.4938 0.1678 1.5555
vt 0.4866 1.5627 0.1702
vt 0.7663 1.5627 0.1702
vt 0.7591 1.5555 0.1702
vt 0.7591 1.5555 0.1702
vt 0.4938 1.5555 0.1702
vt 0.4866 1.5627 0.1702
vt 0.7591 0.1678 1.5555
vt 0.7663 0.1702 1.5627
vt 0.7663 0.1678 1.5627
vt 0.7663 0.1702 1.5627
vt 0.7591 0.1678 1.5555
vt 0.7591 0.1702 1.5555
vt 0.2337 1.5627 0.1678
vt 0.5134 1.5627 0.1678
vt 0.5062 1.5555 0.1678
vt 0.5062 1.5555 0.1678
vt 0.2409 1.5555 0.1678
vt 0.2337 1.5627 0.1678
vt 0.4866 0.1796 1.3155
vt 0.4866 0.1820 1.3155
vt 0.4938 0.1820 1.3155
vt 0.4938 0.1820 1.3155
vt 0.4938 0.1796 1.3155
vt 0.4866 0.1796 1.3155
vt 0.4866 1.3155 0.1820
vt 0.4866 1.5627 0.1702
vt 0.4938 1.5555 0.1702
vt 0.4938 1.5555 0.1702
vt 0.4938 1.3155 0.1820
vt 0.4866 1.3155 0.1820
vt 0.5062 0.1678 1.5555
vt 0.5134 0.1702 1.5627
vt 0.5134 0.1678 1.5627
vt 0.5134 0.1702 1.5627
vt 0.5062 0.1678 1.5555
vt 0.5062 0.1702 1.5555
vt 0.5062 1.5555 0.1678
vt 0.5134 1.3155 0.1796
vt 0.5062 1.3155 0.1796
vt 0.5134 1.3155 0.1796
vt 0.5062 1.5555 0.1678
vt 0.5134 1.5627 0.1678
vt 0.4938 0.1879 1.3155
vt 0.7591 0.1879 1.3155
vt 0.7591 0.1820 1.3155
vt 0.7591 0.1820 1.3155
vt 0.4938 0.1820 1.3155
vt 0.4938 0.1879 1.3155
vt 1.3155 0.1879 0.2409
vt 1.5555 0.1761 0.2409
vt 1.5555 0.1702 0.2409
vt 1.5555 0.1702 0.2409
vt 1.3155 0.1820 0.2409
vt 1.3155 0.1879 0.2409
vt 0.2409 0.1761 1.5555
vt 0.5062 0.1761 1.5555
vt 0.5062 0.1702 1.5555
vt 0.5062 0.1702 1.5555
vt 0.2409 0.1702 1.5555
vt 0.2409 0.1761 1.5555
vt -0.5555 0.1761 0.5062
vt -0.3155 0.1879 0.5062
vt -0.3155 0.1820 0.5062
vt -0.3155 0.1820 0.5062
vt -0.5555 0.1702 0.5062
vt -0.5555 0.1761 0.5062
vt 0.7663 0.1820 1.3155
vt 0.7663 0.1796 1.3155
vt 0.7591 0.1796 1.3155
vt 0.7591 0.1796 1.3155
vt 0.7591 0.1820 1.3155
vt 0.7663 0.1820 1.3155
vt 0.2337 1.3155 0.1796
vt 0.2337 1.5627 0.1678
vt 0.2409 1.5555 0.1678
vt 0.2409 1.5555 0.1678
vt 0.2409 1.3155 0.1796
vt 0.2337 1.3155 0.1796
vt 0.2409 0.1702 1.5555
vt 0.2337 0.1678 1.5627
vt 0.2337 0.1702 1.5627
vt 0.2337 0.1678 1.5627
vt 0.2409 0.1702 1.5555
vt 0.2409 0.1678 1.5555
vt 0.7591 1.5555 0.1702
vt 0.7663 1.3155 0.1820
vt 0.7591 1.3155 0.1820
vt 0.7663 1.3155 0.1820
vt 0.7591 1.5555 0.1702
vt 0.7663 1.5627 0.1702
vt 0.9962 0.0274 0.1602
vt 0.5867 0.0274 0.1602
vt 0.5867 0.9761 0.1602
vt 0.5867 0.9761 0.1602
vt 0.9962 0.9761 0.1602
vt 0.9962 0.0274 0.1602
vt 1.9461 -0.0875 1.3155
vt 0.5062 -0.0875 1.3155
vt 0.5062 -0.0104 1.3155
vt 1.9461 -0.0875 1.3155
vt 0.5062 -0.0104 1.3155
vt 0.8633 -0.0104 1.3155
vt 1.9461 -0.0875 1.3155
vt 0.8633 -0.0104 1.3155
vt 1.0957 -0.0104 1.3155
vt 1.9461 -0.0875 1.3155
vt 1.0957 -0.0104 1.3155
vt 1.9461 -0.0104 1.3155
vt 0.1652 0.0274 0.9874
vt 0.1652 0.9762 0.9874
vt 0.1602 0.9762 0.9874
vt 0.1602 0.9762 0.9874
vt 0.1602 0.0274 0.9874
vt 0.1652 0.0274 0.9874
vt -0.9461 1.3255 -0.0875
vt 0.4938 1.3255 -0.0875
vt 0.4938 1.3155 -0.0875
vt 0.4938 1.3155 -0.0875
vt -0.9461 1.3155 -0.0875
vt -0.9461 1.3255 -0.0875
vt 0.1602 0.0274 0.5021
vt 0.1602 0.9761 0.5021
vt 0.1652 0.9761 0.5021
vt 0.1652 0.9761 0.5021
vt 0.1652 0.0274 0.5021
vt 0.1602 0.0274 0.5021
vt 0.1602 0.0274 0.0005
vt 0.1602 0.9761 0.0005
vt 0.1652 0.9761 0.0005
vt 0.1652 0.9761 0.0005
vt 0.1652 0.0274 0.0005
vt 0.1602 0.0274 0.0005
vt 0.8398 0.9761 0.4133
vt 0.8398 0.0274 0.4133
vt 0.8348 0.0274 0.4133
vt 0.8348 0.0274 0.4133
vt 0.8348 0.9761 0.4133
vt 0.8398 0.9761 0.4133
vt 0.7591 1.3255 -0.0875
vt 1.9821 1.3255 -0.0875
vt 1.9821 1.3155 -0.0875
vt 1.9821 1.3155 -0.0875
vt 0.7591 1.3155 -0.0875
vt 0.7591 1.3255 -0.0875
vt -0.2774 0.1020 0.2409
vt -0.2774 -0.0104 0.2409
vt -0.3155 -0.0104 0.2409
vt -0.3155 -0.0104 0.2409
vt -0.3155 0.1020 0.2409
vt -0.2774 0.1020 0.2409
vt 1.2774 -0.0104 0.5062
vt 1.2774 0.1020 0.5062
vt 1.3155 0.1020 0.5062
vt 1.3155 0.1020 0.5062
vt 1.3155 -0.0104 0.5062
vt 1.2774 -0.0104 0.5062
vt 0.8159 0.0274 0.4133
vt 0.8159 0.9761 0.4133
vt 0.8348 0.9761 0.4133
vt 0.8348 0.9761 0.4133
vt 0.8348 0.0274 0.4133
vt 0.8159 0.0274 0.4133
vt 1.2774 -0.0875 0.5062
vt 1.2774 -0.0104 0.5062
vt 1.3155 -0.0104 0.5062
vt 1.3155 -0.0104 0.5062
vt 1.3155 -0.0875 0.5062
vt 1.2774 -0.0875 0.5062
vt 0.5062 1.2774 0.1020
vt 0.2409 1.2774 0.1020
vt 0.2409 1.3155 0.1020
vt 0.2409 1.3155 0.1020
vt 0.5062 1.3155 0.1020
vt 0.5062 1.2774 0.1020
vt -0.2774 -0.0104 0.2409
vt -0.2774 -0.0875 0.2409
vt -0.3155 -0.0875 0.2409
vt -0.3155 -0.0875 0.2409
vt -0.3155 -0.0104 0.2409
vt -0.2774 -0.0104 0.2409
vt 0.1841 0.9761 0.5021
vt 0.1841 0.0274 0.5021
vt 0.1652 0.0274 0.5021
vt 0.1652 0.0274 0.5021
vt 0.1652 0.9761 0.5021
vt 0.1841 0.9761 0.5021
vt -0.2826 0.1848 -0.9678
vt -0.2826 0.3362 -0.9678
vt 1.3155 0.3362 -0.9821
vt 1.3155 0.3362 -0.9821
vt 1.3155 0.1848 -0.9821
vt -0.2826 0.1848 -0.9678
vt -0.2826 0.3362 -0.9778
vt -0.2826 0.4337 -0.9778
vt 1.3154 0.4337 -0.9921
vt 1.3154 0.4337 -0.9921
vt 1.3154 0.3362 -0.9921
vt -0.2826 0.3362 -0.9778
vt -0.2826 0.9710 -0.9678
vt 0.4593 0.9710 -0.9744
vt 1.3155 0.8745 -0.9821
vt -0.2826 0.7019 -0.9678
vt -0.2826 0.9710 -0.9678
vt 1.3155 0.8745 -0.9821
vt -0.2826 0.7019 -0.9678
vt 1.3155 0.8745 -0.9821
vt 1.3155 0.7019 -0.9821
vt -0.2826 0.4337 -0.9678
vt -0.2826 0.7019 -0.9678
vt 1.3155 0.7019 -0.9821
vt 1.3155 0.7019 -0.9821
vt 1.3155 0.4337 -0.9821
vt -0.2826 0.4337 -0.9678
vt -0.2826 -0.0104 -0.9678
vt -0.2826 0.1848 -0.9678
vt 1.3155 0.1848 -0.9821
vt 1.3155 0.1848 -0.9821
vt 1.3155 -0.0104 -0.9821
vt -0.2826 -0.0104 -0.9678
vt -0.2826 -0.0875 -0.9678
vt -0.2826 -0.0104 -0.9678
vt 1.3155 -0.0104 -0.9821
vt 1.3155 -0.0104 -0.9821
vt 1.3155 -0.0875 -0.9821
vt -0.2826 -0.0875 -0.9678
vt 1.3155 0.8745 -0.9821
vt 0.4593 0.9710 -0.9744
vt 1.3155 0.9710 -0.9821
vt 1.3155 1.0356 -0.8851
vt -0.2783 1.0356 -0.8705
vt 1.3155 0.8745 -0.8851
vt 0.9573 0.9761 0.0053
vt 0.9573 0.0274 0.0053
vt 0.1652 0.0274 0.0005
vt 0.1652 0.0274 0.0005
vt 0.1652 0.9761 0.0005
vt 0.9573 0.9761 0.0053
vt -0.9821 1.0356 -0.1524
vt -0.9114 1.0356 -0.1555
vt -0.9114 0.7019 -0.1555
vt -0.9114 0.7019 -0.1555
vt -0.9821 0.7019 -0.1524
vt -0.9821 1.0356 -0.1524
vt -0.9821 0.4337 -0.1524
vt -0.9821 0.7019 -0.1524
vt -0.9114 0.7019 -0.1555
vt -0.9821 0.4337 -0.1524
vt -0.9114 0.7019 -0.1555
vt 1.8705 0.7019 -0.2783
vt -0.9821 0.4337 -0.1524
vt 1.8705 0.7019 -0.2783
vt 1.9678 0.7019 -0.2826
vt -0.9821 0.4337 -0.1524
vt 1.9678 0.7019 -0.2826
vt 1.9678 0.4337 -0.2826
vt -0.9821 0.4337 -0.1524
vt 1.9678 0.4337 -0.2826
vt 1.9678 0.3362 -0.2826
vt 1.9678 0.3362 -0.2826
vt -0.9821 0.3362 -0.1524
vt -0.9821 0.4337 -0.1524
vt -0.9821 0.3362 -0.1524
vt 1.9678 0.3362 -0.2826
vt 1.9678 0.1848 -0.2826
vt 1.9678 0.1848 -0.2826
vt -0.9821 0.1848 -0.1524
vt -0.9821 0.3362 -0.1524
vt -0.9821 0.1848 -0.1524
vt 1.9678 0.1848 -0.2826
vt 1.9678 -0.0104 -0.2826
vt 1.9678 -0.0104 -0.2826
vt -0.9821 -0.0104 -0.1524
vt -0.9821 0.1848 -0.1524
vt 0.9962 0.0274 0.8928
vt 0.0086 0.0274 0.9573
vt 0.0086 0.9761 0.9573
vt 0.0086 0.9761 0.9573
vt 0.9962 0.9762 0.8928
vt 0.9962 0.0274 0.8928
vt -0.9821 -0.0104 -0.1524
vt 1.9678 -0.0104 -0.2826
vt 1.9678 -0.0875 -0.2826
vt 1.9678 -0.0875 -0.2826
vt -0.9821 -0.0875 -0.1524
vt -0.9821 -0.0104 -0.1524
vt -0.9461 0.3362 1.3155
vt -0.9461 0.4337 1.3155
vt -0.9561 0.4337 1.3155
vt -0.9561 0.4337 1.3155
vt -0.9561 0.3362 1.3155
vt -0.9461 0.3362 1.3155
vt -0.9461 1.3155 0.4337
vt -0.9461 1.3305 0.4337
vt -0.9561 1.3305 0.4337
vt -0.9561 1.3305 0.4337
vt -0.9561 1.3155 0.4337
vt -0.9461 1.3155 0.4337
vt 1.9461 0.4337 1.3305
vt 1.9461 0.3362 1.3305
vt 1.9561 0.3362 1.3305
vt 1.9561 0.3362 1.3305
vt 1.9561 0.4337 1.3305
vt 1.9461 0.4337 1.3305
vt 1.9461 1.3305 0.3362
vt 1.9461 1.3155 0.3362
vt 1.9561 1.3155 0.3362
vt 1.9561 1.3155 0.3362
vt 1.9561 1.3305 0.3362
vt 1.9461 1.3305 0.3362
vt 1.9561 0.4337 1.3158
vt 1.9461 0.4337 1.3155
vt 1.9461 0.3362 1.3155
vt 1.9461 0.3362 1.3155
vt 1.9561 0.3362 1.3158
vt 1.9561 0.4337 1.3158
vt -0.9921 0.3362 -0.1521
vt -0.9821 0.3362 -0.1524
vt -0.9821 0.4337 -0.1524
vt -0.9821 0.4337 -0.1524
vt -0.9921 0.4337 -0.1521
vt -0.9921 0.3362 -0.1521
vt 1.9921 0.4337 1.3155
vt 1.9821 0.4337 1.3155
vt 1.9821 0.3362 1.3155
vt 1.9821 0.3362 1.3155
vt 1.9921 0.3362 1.3155
vt 1.9921 0.4337 1.3155
vt -0.9921 1.3155 0.3362
vt -0.9821 1.3155 0.3362
vt -0.9821 1.3305 0.3362
vt -0.9821 1.3305 0.3362
vt -0.9921 1.3305 0.3362
vt -0.9921 1.3155 0.3362
vt -0.9921 0.3362 1.3305
vt -0.9821 0.3362 1.3305
vt -0.9821 0.4337 1.3305
vt -0.9821 0.4337 1.3305
vt -0.9921 0.4337 1.3305
vt -0.9921 0.3362 1.3305
vt 1.9921 1.3305 0.4337
vt 1.9821 1.3305 0.4337
vt 1.9821 1.3155 0.4337
vt 1.9821 1.3155 0.4337
vt 1.9921 1.3155 0.4337
vt 1.9921 1.3305 0.4337
vt -0.9921 0.3362 1.3154
vt -0.9821 0.3362 1.3155
vt -0.9821 0.4337 1.3155
vt -0.9821 0.4337 1.3155
vt -0.9921 0.4337 1.3154
vt -0.9921 0.3362 1.3154
vt 1.9921 1.3154 0.4337
vt 1.9821 1.3155 0.4337
vt 1.9678 -0.2826 0.4337
vt 1.9678 -0.2826 0.4337
vt 1.9778 -0.2826 0.4337
vt 1.9921 1.3154 0.4337
vt 1.9778 0.4337 -0.2826
vt 1.9678 0.4337 -0.2826
vt 1.9678 0.3362 -0.2826
vt 1.9678 0.3362 -0.2826
vt 1.9778 0.3362 -0.2826
vt 1.9778 0.4337 -0.2826
vt -0.9778 -0.2826 0.3362
vt -0.9678 -0.2826 0.3362
vt -0.9821 1.3155 0.3362
vt -0.9821 1.3155 0.3362
vt -0.9921 1.3154 0.3362
vt -0.9778 -0.2826 0.3362
vt 0.9995 0.9761 0.1602
vt 0.9995 0.0274 0.1602
vt 0.9962 0.0274 0.1602
vt 0.9962 0.0274 0.1602
vt 0.9962 0.9761 0.1602
vt 0.9995 0.9761 0.1602
vt 1.9921 1.3255 -0.0875
vt 1.9921 1.3155 -0.0875
vt 1.9821 1.3155 -0.0875
vt 1.9821 1.3155 -0.0875
vt 1.9821 1.3255 -0.0875
vt 1.9921 1.3255 -0.0875
vt 1.9921 1.3154 -0.0875
vt 1.9778 -0.2826 -0.0875
vt 1.9678 -0.2826 -0.0875
vt 1.9678 -0.2826 -0.0875
vt 1.9821 1.3155 -0.0875
vt 1.9921 1.3154 -0.0875
vt 0.0053 0.0274 0.9573
vt 0.0086 0.0274 0.9573
vt 0.0086 0.9761 0.9573
vt 0.0086 0.9761 0.9573
vt 0.0053 0.9761 0.9573
vt 0.0053 0.0274 0.9573
vt -0.9461 1.3155 -0.0875
vt -0.9461 1.3255 -0.0875
vt -0.9561 1.3255 -0.0875
vt -0.9561 1.3255 -0.0875
vt -0.9561 1.3155 -0.0875
vt -0.9461 1.3155 -0.0875
vt 0.0159 0.0274 0.1602
vt 0.0126 0.9762 0.1602
vt 0.0159 0.9762 0.1602
vt 0.0126 0.9762 0.1602
vt 0.0159 0.0274 0.1602
vt 0.0126 0.0274 0.1602
vt 0.9995 0.9762 0.8926
vt 0.9962 0.9762 0.8928
vt 0.9962 0.0274 0.8928
vt 0.9962 0.0274 0.8928
vt 0.9995 0.0274 0.8926
vt 0.9995 0.9762 0.8926
vt 1.9678 0.9710 -0.2826
vt 1.9678 0.7019 -0.2826
vt 1.8705 0.7019 -0.2783
vt 1.9678 0.9710 -0.2826
vt 1.8705 0.7019 -0.2783
vt 1.8705 1.0356 -0.2783
vt 1.9678 0.9710 -0.2826
vt 1.8705 1.0356 -0.2783
vt 1.9678 1.0356 -0.2826
vt -0.9114 0.7019 -0.1555
vt -0.9114 1.0356 -0.1555
vt 1.8705 1.0356 -0.2783
vt 1.8705 1.0356 -0.2783
vt 1.8705 0.7019 -0.2783
vt -0.9114 0.7019 -0.1555
vt -0.1521 0.4337 1.9921
vt -0.1521 0.3362 1.9921
vt 1.3158 0.3362 1.9561
vt 1.3158 0.3362 1.9561
vt 1.3158 0.4337 1.9561
vt -0.1521 0.4337 1.9921
vt 0.1676 0.6504 1.9743
vt 0.1676 0.4337 1.9743
vt 1.3155 0.4337 1.9461
vt 0.1676 0.6504 1.9743
vt 1.3155 0.4337 1.9461
vt 1.3155 0.7019 1.9461
vt 0.1676 0.6504 1.9743
vt 1.3155 0.7019 1.9461
vt 0.1676 0.7019 1.9743
vt 0.4366 0.9710 1.9677
vt -0.1524 0.9710 1.9821
vt -0.1524 0.7019 1.9821
vt 0.4366 0.9710 1.9677
vt -0.1524 0.7019 1.9821
vt -0.0953 0.7019 1.9807
vt 0.4366 0.9710 1.9677
vt -0.0953 0.7019 1.9807
vt -0.0666 0.7019 1.9800
vt 0.4366 0.9710 1.9677
vt -0.0666 0.7019 1.9800
vt 0.1388 0.7019 1.9750
vt 0.4366 0.9710 1.9677
vt 0.1388 0.7019 1.9750
vt 0.1676 0.7019 1.9743
vt 0.4366 0.9710 1.9677
vt 0.1676 0.7019 1.9743
vt 1.3155 0.7019 1.9461
vt 0.4366 0.9710 1.9677
vt 1.3155 0.7019 1.9461
vt 1.3155 0.8745 1.9461
vt 0.1385 0.2328 1.9749
vt 0.1385 0.1848 1.9748
vt 0.3653 0.1848 1.9691
vt 0.3653 0.1848 1.9691
vt 0.8887 0.1848 1.9632
vt 1.3155 0.3362 1.9461
vt 0.1385 0.2328 1.9749
vt 0.3653 0.1848 1.9691
vt 1.3155 0.3362 1.9461
vt 0.1385 0.2328 1.9749
vt 1.3155 0.3362 1.9461
vt 0.1385 0.3362 1.9750
vt 1.3155 0.3362 1.9461
vt 0.8887 0.1848 1.9632
vt 1.3155 0.1848 1.9461
vt 0.8887 0.1848 1.9632
vt 0.8887 -0.0144 1.9632
vt 1.3155 -0.0104 1.9461
vt 0.8887 0.1848 1.9632
vt 1.3155 -0.0104 1.9461
vt 1.3155 0.1848 1.9461
vt 0.8926 0.0274 0.9995
vt 0.8926 0.9762 0.9995
vt 0.1651 0.9762 0.9874
vt 0.1651 0.9762 0.9874
vt 0.1651 0.0274 0.9874
vt 0.8926 0.0274 0.9995
vt -0.0680 -0.0104 1.9800
vt -0.1524 -0.0104 1.9821
vt -0.1524 -0.0875 1.9821
vt -0.1524 -0.0875 1.9821
vt 1.3155 -0.0875 1.9461
vt 1.3155 -0.0104 1.9461
vt -0.1524 -0.0875 1.9821
vt 1.3155 -0.0104 1.9461
vt 0.8887 -0.0144 1.9632
vt -0.1524 -0.0875 1.9821
vt 0.8887 -0.0144 1.9632
vt 0.3653 -0.0144 1.9691
vt 0.3653 -0.0144 1.9691
vt 0.1385 -0.0104 1.9748
vt -0.0680 -0.0104 1.9800
vt -0.1524 -0.0875 1.9821
vt 0.3653 -0.0144 1.9691
vt -0.0680 -0.0104 1.9800
vt -0.9921 -0.1521 0.3362
vt -0.9821 -0.1524 0.3362
vt -0.9800 -0.0680 0.3362
vt -0.9750 0.1385 0.3362
vt -0.9461 1.3155 0.3362
vt -0.9921 -0.1521 0.3362
vt -0.9921 -0.1521 0.3362
vt -0.9800 -0.0680 0.3362
vt -0.9750 0.1385 0.3362
vt -0.9921 -0.1521 0.3362
vt -0.9461 1.3155 0.3362
vt -0.9561 1.3158 0.3362
vt 1.9561 1.3158 0.4337
vt 1.9461 1.3155 0.4337
vt 1.9743 0.1676 0.4337
vt 1.9561 1.3158 0.4337
vt 1.9743 0.1676 0.4337
vt 1.9750 0.1388 0.4337
vt 1.9561 1.3158 0.4337
vt 1.9750 0.1388 0.4337
vt 1.9800 -0.0666 0.4337
vt 1.9561 1.3158 0.4337
vt 1.9800 -0.0666 0.4337
vt 1.9807 -0.0953 0.4337
vt 1.9561 1.3158 0.4337
vt 1.9807 -0.0953 0.4337
vt 1.9821 -0.1524 0.4337
vt 1.9561 1.3158 0.4337
vt 1.9821 -0.1524 0.4337
vt 1.9921 -0.1521 0.4337
vt 0.9874 0.1651 0.9762
vt 0.9995 0.8926 0.9762
vt 0.9962 0.8928 0.9762
vt 1.9921 -0.1521 -0.0875
vt 1.9561 1.3158 -0.0875
vt 1.9461 1.3155 -0.0875
vt 1.9461 1.3155 -0.0875
vt 1.9821 -0.1524 -0.0875
vt 1.9921 -0.1521 -0.0875
vt 1.3155 0.8745 1.8756
vt -0.1555 1.0356 1.9114
vt 1.3155 1.0356 1.8756
vt 0.4366 0.9710 1.9677
vt 1.3155 0.8745 1.9461
vt 1.3155 0.9710 1.9461
vt 0.1385 -0.0104 1.9748
vt 0.3653 -0.0144 1.9691
vt 0.3653 0.1848 1.9691
vt 0.3653 0.1848 1.9691
vt 0.1385 0.1848 1.9748
vt 0.1385 0.0955 1.9748
vt 0.1385 -0.0104 1.9748
vt 0.3653 0.1848 1.9691
vt 0.1385 0.0955 1.9748
vt -0.1524 0.3362 1.9821
vt -0.1524 0.1848 1.9821
vt -0.0680 0.1848 1.9800
vt -0.0680 0.2328 1.9800
vt -0.0680 0.3362 1.9800
vt -0.1524 0.3362 1.9821
vt -0.1524 0.3362 1.9821
vt -0.0680 0.1848 1.9800
vt -0.0680 0.2328 1.9800
vt -0.1524 0.1848 1.9821
vt -0.0680 -0.0104 1.9800
vt -0.0680 0.0955 1.9800
vt -0.0680 0.0955 1.9800
vt -0.0680 0.1848 1.9800
vt -0.1524 0.1848 1.9821
vt -0.0680 -0.0104 1.9800
vt -0.1524 0.1848 1.9821
vt -0.1524 -0.0104 1.9821
vt 0.1385 0.3362 1.9750
vt -0.0680 0.3362 1.9800
vt -0.0680 0.2328 1.9800
vt -0.0680 0.2328 1.9800
vt 0.1385 0.2328 1.9749
vt 0.1385 0.3362 1.9750
vt -0.0680 0.0955 1.9800
vt -0.0680 -0.0104 1.9800
vt 0.1385 -0.0104 1.9748
vt 0.1385 -0.0104 1.9748
vt 0.1385 0.0955 1.9748
vt -0.0680 0.0955 1.9800
vt 0.1388 0.7019 1.9750
vt -0.0666 0.7019 1.9800
vt -0.0666 0.6504 1.9800
vt -0.0666 0.6504 1.9800
vt 0.1388 0.6504 1.9750
vt 0.1388 0.7019 1.9750
vt -0.0666 0.7019 1.9800
vt -0.0953 0.7019 1.9807
vt -0.0953 0.6504 1.9807
vt -0.0953 0.6504 1.9807
vt -0.0666 0.6504 1.9800
vt -0.0666 0.7019 1.9800
vt -0.9432 0.8885 0.1848
vt -0.9632 0.8887 0.1848
vt -0.9691 0.3653 0.1848
vt -0.9691 0.3653 0.1848
vt -0.9491 0.3650 0.1848
vt -0.9432 0.8885 0.1848
vt -0.9691 0.1848 0.3653
vt -0.9691 -0.0144 0.3653
vt -0.9491 -0.0104 0.3650
vt -0.9491 -0.0104 0.3650
vt -0.9491 0.1848 0.3650
vt -0.9691 0.1848 0.3653
vt 0.0000 0.0000 0.0000
vt 1.0000 0.0000 0.0000
vt 1.0000 1.0000 0.0000
vt 1.0000 1.0000 0.0000
vt 0.0000 1.0000 0.0000
vt 0.0000 0.0000 0.0000
vt 1.9632 0.1848 0.8887
vt 1.9432 0.1848 0.8885
vt 1.9432 -0.0104 0.8885
vt 1.9432 -0.0104 0.8885
vt 1.9632 -0.0144 0.8887
vt 1.9632 0.1848 0.8887
vt -0.9800 0.1848 -0.0680
vt -0.9800 0.0955 -0.0680
vt -0.9600 0.0994 -0.0685
vt -0.9600 0.0994 -0.0685
vt -0.9600 0.1848 -0.0685
vt -0.9800 0.1848 -0.0680
vt 0.0000 0.0000 0.0000
vt 1.0000 0.0000 0.0000
vt 1.0000 1.0000 0.0000
vt 1.0000 1.0000 0.0000
vt 0.0000 1.0000 0.0000
vt 0.0000 0.0000 0.0000
vt 1.9548 0.0994 0.1380
vt 1.9748 0.0955 0.1385
vt 1.9748 0.1848 0.1385
vt 1.9748 0.1848 0.1385
vt 1.9548 0.1848 0.1380
vt 1.9548 0.0994 0.1380
vt -0.9600 0.2328 -0.0685
vt -0.9800 0.2328 -0.0680
vt -0.9800 0.1848 -0.0680
vt -0.9800 0.1848 -0.0680
vt -0.9600 0.1848 -0.0685
vt -0.9600 0.2328 -0.0685
vt 1.9548 0.1848 0.1380
vt 1.9748 0.1848 0.1385
vt 1.9749 0.2328 0.1385
vt 1.9749 0.2328 0.1385
vt 1.9549 0.2328 0.1380
vt 1.9548 0.1848 0.1380
vt -0.9549 0.1380 0.2328
vt -0.9749 0.1385 0.2328
vt -0.9800 -0.0680 0.2328
vt -0.9800 -0.0680 0.2328
vt -0.9600 -0.0685 0.2328
vt -0.9549 0.1380 0.2328
vt -0.9600 0.6276 -0.0671
vt -0.9800 0.6276 -0.0666
vt -0.9800 0.4337 -0.0666
vt -0.9800 0.4337 -0.0666
vt -0.9600 0.4337 -0.0671
vt -0.9600 0.6276 -0.0671
vt 1.9600 -0.0671 0.4337
vt 1.9800 -0.0666 0.4337
vt 1.9750 0.1388 0.4337
vt 1.9750 0.1388 0.4337
vt 1.9550 0.1383 0.4337
vt 1.9600 -0.0671 0.4337
vt 1.9550 0.4337 0.1383
vt 1.9750 0.4337 0.1388
vt 1.9750 0.6276 0.1388
vt 1.9750 0.6276 0.1388
vt 1.9550 0.6276 0.1383
vt 1.9550 0.4337 0.1383
vt -0.9550 0.1383 0.6276
vt -0.9750 0.1388 0.6276
vt -0.9800 -0.0666 0.6276
vt -0.9800 -0.0666 0.6276
vt -0.9600 -0.0671 0.6276
vt -0.9550 0.1383 0.6276
vt 0.1676 0.7019 1.9743
vt 0.1388 0.7019 1.9750
vt 0.1388 0.6504 1.9750
vt 0.1388 0.6504 1.9750
vt 0.1676 0.6504 1.9743
vt 0.1676 0.7019 1.9743
vt -0.1524 0.7019 1.9821
vt -0.1524 0.4337 1.9821
vt -0.0953 0.4337 1.9807
vt -0.0953 0.6504 1.9807
vt -0.0953 0.7019 1.9807
vt -0.1524 0.7019 1.9821
vt -0.1524 0.7019 1.9821
vt -0.0953 0.4337 1.9807
vt -0.0953 0.6504 1.9807
vt -0.0665 0.6504 1.9848
vt -0.0665 0.6276 1.9848
vt 0.1389 0.6276 1.9797
vt 0.1389 0.6276 1.9797
vt 0.1389 0.6504 1.9797
vt -0.0665 0.6504 1.9848
vt -0.0952 0.6504 1.9855
vt -0.0952 0.4337 1.9855
vt -0.0665 0.4337 1.9848
vt -0.0952 0.6504 1.9855
vt -0.0665 0.4337 1.9848
vt -0.0665 0.6276 1.9848
vt -0.0952 0.6504 1.9855
vt -0.0665 0.6276 1.9848
vt -0.0665 0.6504 1.9848
vt 0.1389 0.6276 1.9797
vt 0.1389 0.4337 1.9797
vt 0.1678 0.4337 1.9790
vt 0.1389 0.6276 1.9797
vt 0.1678 0.4337 1.9790
vt 0.1678 0.6504 1.9790
vt 0.1389 0.6276 1.9797
vt 0.1678 0.6504 1.9790
vt 0.1389 0.6504 1.9797
vt -0.9797 0.1389 0.4337
vt -0.9750 0.1388 0.4337
vt -0.9743 0.1676 0.4337
vt -0.9743 0.1676 0.4337
vt -0.9790 0.1678 0.4337
vt -0.9797 0.1389 0.4337
vt -0.9790 0.4337 0.1678
vt -0.9743 0.4337 0.1676
vt -0.9743 0.6504 0.1676
vt -0.9743 0.6504 0.1676
vt -0.9790 0.6504 0.1678
vt -0.9790 0.4337 0.1678
vt 1.9790 0.1678 0.6504
vt 1.9743 0.1676 0.6504
vt 1.9750 0.1388 0.6504
vt 1.9750 0.1388 0.6504
vt 1.9797 0.1389 0.6504
vt 1.9790 0.1678 0.6504
vt 1.9797 0.1389 0.6504
vt 1.9750 0.1388 0.6504
vt 1.9800 -0.0666 0.6504
vt 1.9800 -0.0666 0.6504
vt 1.9848 -0.0665 0.6504
vt 1.9797 0.1389 0.6504
vt 1.9848 -0.0665 0.6504
vt 1.9800 -0.0666 0.6504
vt 1.9807 -0.0953 0.6504
vt 1.9807 -0.0953 0.6504
vt 1.9855 -0.0952 0.6504
vt 1.9848 -0.0665 0.6504
vt 1.9855 0.6504 -0.0952
vt 1.9807 0.6504 -0.0953
vt 1.9807 0.4337 -0.0953
vt 1.9807 0.4337 -0.0953
vt 1.9855 0.4337 -0.0952
vt 1.9855 0.6504 -0.0952
vt -0.9855 -0.0952 0.4337
vt -0.9807 -0.0953 0.4337
vt -0.9800 -0.0666 0.4337
vt -0.9800 -0.0666 0.4337
vt -0.9848 -0.0665 0.4337
vt -0.9855 -0.0952 0.4337
vt -0.9848 0.4337 -0.0665
vt -0.9800 0.4337 -0.0666
vt -0.9800 0.6276 -0.0666
vt -0.9800 0.6276 -0.0666
vt -0.9848 0.6276 -0.0665
vt -0.9848 0.4337 -0.0665
vt -0.9848 -0.0665 0.6276
vt -0.9800 -0.0666 0.6276
vt -0.9750 0.1388 0.6276
vt -0.9750 0.1388 0.6276
vt -0.9797 0.1389 0.6276
vt -0.9848 -0.0665 0.6276
vt 1.9797 0.6276 0.1389
vt 1.9750 0.6276 0.1388
vt 1.9750 0.4337 0.1388
vt 1.9750 0.4337 0.1388
vt 1.9797 0.4337 0.1389
vt 1.9797 0.6276 0.1389
vt 0.0000 0.0000 0.0000
vt 0.0000 1.0000 0.0000
vt 1.0000 1.0000 0.0000
vt 1.0000 1.0000 0.0000
vt 1.0000 0.0000 0.0000
vt 0.0000 0.0000 0.0000
vt 0.0000 0.0000 0.0000
vt 0.0000 1.0000 0.0000
vt 1.0000 1.0000 0.0000
vt 1.0000 1.0000 0.0000
vt 1.0000 0.0000 0.0000
vt 0.0000 0.0000 0.0000
vt 0.0000 0.0000 0.0000
vt 0.0000 1.0000 0.0000
vt 1.0000 1.0000 0.0000
vt 1.0000 1.0000 0.0000
vt 1.0000 0.0000 0.0000
vt 0.0000 0.0000 0.0000
vt 0.0000 0.0000 0.0000
vt 0.0000 1.0000 0.0000
vt 1.0000 1.0000 0.0000
vt 1.0000 1.0000 0.0000
vt 1.0000 0.0000 0.0000
vt 0.0000 0.0000 0.0000
vt 0.0000 0.0000 0.0000
vt 0.0000 1.0000 0.0000
vt 1.0000 1.0000 0.0000
vt 1.0000 1.0000 0.0000
vt 1.0000 0.0000 0.0000
vt 0.0000 0.0000 0.0000
vt 0.0000 0.0000 0.0000
vt 0.0000 1.0000 0.0000
vt 1.0000 1.0000 0.0000
vt 1.0000 1.0000 0.0000
vt 1.0000 0.0000 0.0000
vt 0.0000 0.0000 0.0000
vt 0.0000 0.0000 0.0000
vt 0.0000 1.0000 0.0000
vt 1.0000 1.0000 0.0000
vt 1.0000 1.0000 0.0000
vt 1.0000 0.0000 0.0000
vt 0.0000 0.0000 0.0000
vt 0.0000 0.0000 0.0000
vt 0.0000 1.0000 0.0000
vt 1.0000 1.0000 0.0000
vt 1.0000 1.0000 0.0000
vt 1.0000 0.0000 0.0000
vt 0.0000 0.0000 0.0000
vt 0.0000 0.0000 0.0000
vt 0.0000 1.0000 0.0000
vt 1.0000 1.0000 0.0000
vt 1.0000 1.0000 0.0000
vt 1.0000 0.0000 0.0000
vt 0.0000 0.0000 0.0000
vt 0.0000 0.0000 0.0000
vt 0.0000 1.0000 0.0000
vt 1.0000 1.0000 0.0000
vt 1.0000 1.0000 0.0000
vt 1.0000 0.0000 0.0000
vt 0.0000 0.0000 0.0000
vt 0.0000 1.0000 0.0000
vt 1.0000 1.0000 0.0000
vt 1.0000 0.0000 0.0000
vt 1.0000 0.0000 0.0000
vt 0.0000 0.0000 0.0000
vt 0.0000 1.0000 0.0000
vt 0.0000 1.0000 0.0000
vt 1.0000 1.0000 0.0000
vt 1.0000 0.0000 0.0000
vt 1.0000 0.0000 0.0000
vt 0.0000 0.0000 0.0000
vt 0.0000 1.0000 0.0000
vt 0.0000 1.0000 0.0000
vt 1.0000 1.0000 0.0000
vt 1.0000 0.0000 0.0000
vt 1.0000 0.0000 0.0000
vt 0.0000 0.0000 0.0000
vt 0.0000 1.0000 0.0000
vt 2.1112 -1.4236 0.9260
vt 2.2517 2.5888 0.9044
vt -4.7098 2.5911 0.9043
vt -4.7098 2.5911 0.9043
vt -4.7836 -1.1200 0.9115
vt 2.1112 -1.4236 0.9260
vt 1.9842 0.1207 0.9995
vt 2.0155 0.5986 0.9995
vt 1.9094 0.5981 0.9995
vt 1.9094 0.5981 0.9995
vt 1.8785 0.1215 0.9995
vt 1.9842 0.1207 0.9995
vt -1.2005 0.5835 0.9995
vt -1.2044 0.1443 0.9995
vt -1.1277 0.1438 0.9995
vt -1.1277 0.1438 0.9995
vt -1.1282 0.5827 0.9995
vt -1.2005 0.5835 0.9995
vt 1.8785 0.1215 0.0005
vt 1.9842 0.1207 0.9995
vt 1.8785 0.1215 0.9995
vt 1.9842 0.1207 0.9995
vt 1.8785 0.1215 0.0005
vt 1.9842 0.1207 0.0005
vt 2.0155 0.5986 0.9995
vt 1.9842 0.1207 0.5986
vt 2.0155 0.5986 0.5986
vt 1.9842 0.1207 0.5986
vt 2.0155 0.5986 0.9995
vt 1.9842 0.1207 0.9995
vt -1.2044 0.1443 0.9995
vt -1.2044 0.1443 0.0005
vt -1.1277 0.1438 0.0005
vt -1.1277 0.1438 0.0005
vt -1.1277 0.1438 0.9995
vt -1.2044 0.1443 0.9995
vt -1.2044 0.1443 0.5986
vt -1.2044 0.1443 0.9995
vt -1.2005 0.5835 0.9995
vt -1.2005 0.5835 0.9995
vt -1.2005 0.5835 0.5986
vt -1.2044 0.1443 0.5986
vt -0.5423 0.3982 0.2498
vt 1.5493 0.3983 0.2501
vt 1.5493 0.9706 0.2501
vt 1.5493 0.9706 0.2501
vt -0.5423 0.9706 0.2498
vt -0.5423 0.3982 0.2498
vt -0.5493 0.9706 0.7501
vt -0.5493 0.3983 0.7501
vt 1.5423 0.3982 0.7498
vt 1.5423 0.3982 0.7498
vt 1.5423 0.9706 0.7498
vt -0.5493 0.9706 0.7501
vt -0.5493 0.2501 0.0794
vt 1.5423 0.2498 0.0794
vt 1.5423 0.4998 0.0794
vt 1.5423 0.4998 0.0794
vt -0.5493 0.5001 0.0794
vt -0.5493 0.2501 0.0794
vt 0.9706 0.7498 1.5423
vt 0.3982 0.7498 1.5423
vt 0.3982 0.4998 1.5423
vt 0.9706 0.7498 1.5423
vt 0.3982 0.4998 1.5423
vt 0.3982 0.2498 1.5423
vt 0.9706 0.7498 1.5423
vt 0.3982 0.2498 1.5423
vt 0.9706 0.2498 1.5423
vt -0.5423 0.7498 0.9706
vt -0.5423 0.2498 0.9706
vt 1.5493 0.2501 0.9706
vt 1.5493 0.2501 0.9706
vt 1.5493 0.7501 0.9706
vt -0.5423 0.7498 0.9706
vt 0.0294 0.2501 -0.5493
vt 0.6017 0.2501 -0.5493
vt 0.6017 0.5001 -0.5493
vt 0.0294 0.2501 -0.5493
vt 0.6017 0.5001 -0.5493
vt 0.6017 0.7501 -0.5493
vt 0.0294 0.2501 -0.5493
vt 0.6017 0.7501 -0.5493
vt 0.0294 0.7501 -0.5493
vt 1.5423 0.4998 0.3982
vt 1.5423 0.7498 0.3982
vt -0.5493 0.7501 0.3983
vt -0.5493 0.7501 0.3983
vt -0.5493 0.5001 0.3983
vt 1.5423 0.4998 0.3982
vt 1.5493 0.0794 0.2501
vt 1.5493 0.3983 0.2501
vt -0.5423 0.3982 0.2498
vt -0.5423 0.3982 0.2498
vt -0.5423 0.0794 0.2498
vt 1.5493 0.0794 0.2501
vt 0.0794 0.2498 1.5423
vt 0.3982 0.2498 1.5423
vt 0.3982 0.4998 1.5423
vt 0.3982 0.4998 1.5423
vt 0.0794 0.4998 1.5423
vt 0.0794 0.2498 1.5423
vt 1.5423 0.0794 0.4998
vt 1.5423 0.3982 0.4998
vt -0.5493 0.3983 0.5001
vt -0.5493 0.3983 0.5001
vt -0.5493 0.0794 0.5001
vt 1.5423 0.0794 0.4998
vt 0.9206 0.5001 -0.5493
vt 0.6017 0.5001 -0.5493
vt 0.6017 0.2501 -0.5493
vt 0.6017 0.2501 -0.5493
vt 0.9206 0.2501 -0.5493
vt 0.9206 0.5001 -0.5493
vt 74.6299 1.0136 0.4962
vt -73.6299 1.0136 0.4962
vt -73.6299 1.0136 0.5038
vt -73.6299 1.0136 0.5038
vt 74.6299 1.0136 0.5038
vt 74.6299 1.0136 0.4962
vt 74.6299 0.5242 0.4963
vt -73.6299 0.5242 0.4963
vt -73.6299 1.0136 0.4962
vt -73.6299 1.0136 0.4962
vt 74.6299 1.0136 0.4962
vt 74.6299 0.5242 0.4963
vt 74.6299 0.5242 0.4978
vt -73.6299 0.5242 0.4978
vt -73.6299 0.5242 0.4963
vt -73.6299 0.5242 0.4963
vt 74.6299 0.5242 0.4963
vt 74.6299 0.5242 0.4978
vt 74.6299 0.3207 0.4978
vt -73.6299 0.3207 0.4978
vt -73.6299 0.5242 0.4978
vt -73.6299 0.5242 0.4978
vt 74.6299 0.5242 0.4978
vt 74.6299 0.3207 0.4978
vt 74.6299 0.3207 0.4990
vt -73.6299 0.3207 0.4990
vt -73.6299 0.3207 0.4978
vt -73.6299 0.3207 0.4978
vt 74.6299 0.3207 0.4978
vt 74.6299 0.3207 0.4990
vt 74.6299 0.2867 0.4991
vt -73.6299 0.2867 0.4991
vt -73.6299 0.3207 0.4990
vt -73.6299 0.3207 0.4990
vt 74.6299 0.3207 0.4990
vt 74.6299 0.2867 0.4991
vt 74.6299 0.2510 0.4992
vt -73.6299 0.2509 0.4992
vt -73.6299 0.2867 0.4991
vt -73.6299 0.2867 0.4991
vt 74.6299 0.2867 0.4991
vt 74.6299 0.2510 0.4992
vt 74.6299 0.2148 0.4993
vt -73.6299 0.2148 0.4993
vt -73.6299 0.2509 0.4992
vt -73.6299 0.2509 0.4992
vt 74.6299 0.2510 0.4992
vt 74.6299 0.2148 0.4993
vt 74.6299 0.1795 0.4994
vt -73.6299 0.1795 0.4994
vt -73.6299 0.2148 0.4993
vt -73.6299 0.2148 0.4993
vt 74.6299 0.2148 0.4993
vt 74.6299 0.1795 0.4994
vt 74.6299 0.1463 0.4995
vt -73.6299 0.1463 0.4995
vt -73.6299 0.1795 0.4994
vt -73.6299 0.1795 0.4994
vt 74.6299 0.1795 0.4994
vt 74.6299 0.1463 0.4995
vt 74.6299 0.1165 0.4997
vt -73.6299 0.1165 0.4997
vt -73.6299 0.1463 0.4995
vt -73.6299 0.1463 0.4995
vt 74.6299 0.1463 0.4995
vt 74.6299 0.1165 0.4997
vt 74.6299 0.0914 0.4998
vt -73.6299 0.0914 0.4998
vt -73.6299 0.1165 0.4997
vt -73.6299 0.1165 0.4997
vt 74.6299 0.1165 0.4997
vt 74.6299 0.0914 0.4998
vt 74.6299 0.0717 0.5001
vt -73.6299 0.0717 0.5001
vt -73.6299 0.0914 0.4998
vt -73.6299 0.0914 0.4998
vt 74.6299 0.0914 0.4998
vt 74.6299 0.0717 0.5001
vt 74.6299 0.0567 0.5003
vt -73.6299 0.0567 0.5003
vt -73.6299 0.0717 0.5001
vt -73.6299 0.0717 0.5001
vt 74.6299 0.0717 0.5001
vt 74.6299 0.0567 0.5003
vt 74.6299 0.0451 0.5006
vt -73.6299 0.0451 0.5006
vt -73.6299 0.0567 0.5003
vt -73.6299 0.0567 0.5003
vt 74.6299 0.0567 0.5003
vt 74.6299 0.0451 0.5006
vt 74.6299 0.0357 0.5008
vt -73.6299 0.0356 0.5008
vt -73.6299 0.0451 0.5006
vt -73.6299 0.0451 0.5006
vt 74.6299 0.0451 0.5006
vt 74.6299 0.0357 0.5008
vt 74.6299 0.0270 0.5011
vt -73.6299 0.0270 0.5011
vt -73.6299 0.0356 0.5008
vt -73.6299 0.0356 0.5008
vt 74.6299 0.0357 0.5008
vt 74.6299 0.0270 0.5011
vt 74.6299 0.0179 0.5014
vt -73.6299 0.0179 0.5014
vt -73.6299 0.0270 0.5011
vt -73.6299 0.0270 0.5011
vt 74.6299 0.0270 0.5011
vt 74.6299 0.0179 0.5014
vt 74.6299 0.0072 0.5017
vt -73.6299 0.0072 0.5017
vt -73.6299 0.0179 0.5014
vt -73.6299 0.0179 0.5014
vt 74.6299 0.0179 0.5014
vt 74.6299 0.0072 0.5017
vt 74.6299 0.0001 0.5025
vt -73.6299 0.0001 0.5025
vt -73.6299 0.0072 0.5017
vt -73.6299 0.0072 0.5017
vt 74.6299 0.0072 0.5017
vt 74.6299 0.0001 0.5025
vt 74.6299 -0.1675 0.5025
vt -73.6299 -0.1675 0.5025
vt -73.6299 0.0001 0.5025
vt -73.6299 0.0001 0.5025
vt 74.6299 0.0001 0.5025
vt 74.6299 -0.1675 0.5025
vt -73.6299 -0.1675 0.5025
vt 74.6299 -0.1675 0.5025
vt 74.6299 -0.1675 0.5038
vt 74.6299 -0.1675 0.5038
vt -73.6299 -0.1675 0.5038
vt -73.6299 -0.1675 0.5025
vt -73.6299 -0.1675 0.5038
vt 74.6299 -0.1675 0.5038
vt 74.6299 1.0136 0.5038
vt 74.6299 1.0136 0.5038
vt -73.6299 1.0136 0.5038
vt -73.6299 -0.1675 0.5038
vt 74.6299 0.0451 0.5006
vt 74.6299 0.0567 0.5003
vt 74.6299 0.0717 0.5001
vt 74.6299 0.0717 0.5001
vt 74.6299 0.0914 0.4998
vt 74.6299 0.1165 0.4997
vt 74.6299 0.0451 0.5006
vt 74.6299 0.0717 0.5001
vt 74.6299 0.1165 0.4997
vt 74.6299 0.1165 0.4997
vt 74.6299 0.1463 0.4995
vt 74.6299 0.1795 0.4994
vt 74.6299 0.3207 0.4990
vt 74.6299 0.3207 0.4978
vt 74.6299 0.5242 0.4978
vt 74.6299 0.5242 0.4978
vt 74.6299 0.5242 0.4963
vt 74.6299 1.0136 0.4962
vt 74.6299 0.3207 0.4990
vt 74.6299 0.5242 0.4978
vt 74.6299 1.0136 0.4962
vt 74.6299 1.0136 0.4962
vt 74.6299 1.0136 0.5038
vt 74.6299 -0.1675 0.5038
vt 74.6299 -0.1675 0.5038
vt 74.6299 -0.1675 0.5025
vt 74.6299 0.0001 0.5025
vt 74.6299 1.0136 0.4962
vt 74.6299 -0.1675 0.5038
vt 74.6299 0.0001 0.5025
vt 74.6299 0.3207 0.4990
vt 74.6299 1.0136 0.4962
vt 74.6299 0.0001 0.5025
vt 74.6299 0.2867 0.4991
vt 74.6299 0.3207 0.4990
vt 74.6299 0.0001 0.5025
vt 74.6299 0.2510 0.4992
vt 74.6299 0.2867 0.4991
vt 74.6299 0.0001 0.5025
vt 74.6299 0.2148 0.4993
vt 74.6299 0.2510 0.4992
vt 74.6299 0.0001 0.5025
vt 74.6299 0.1795 0.4994
vt 74.6299 0.2148 0.4993
vt 74.6299 0.0001 0.5025
vt 74.6299 0.1795 0.4994
vt 74.6299 0.0001 0.5025
vt 74.6299 0.0072 0.5017
vt 74.6299 0.1165 0.4997
vt 74.6299 0.1795 0.4994
vt 74.6299 0.0072 0.5017
vt 74.6299 0.0451 0.5006
vt 74.6299 0.1165 0.4997
vt 74.6299 0.0072 0.5017
vt 74.6299 0.0072 0.5017
vt 74.6299 0.0179 0.5014
vt 74.6299 0.0270 0.5011
vt 74.6299 0.0451 0.5006
vt 74.6299 0.0072 0.5017
vt 74.6299 0.0270 0.5011
vt 74.6299 0.0451 0.5006
vt 74.6299 0.0270 0.5011
vt 74.6299 0.0357 0.5008
vt -73.6299 0.5242 0.4978
vt -73.6299 0.3207 0.4978
vt -73.6299 0.3207 0.4990
vt -73.6299 -0.1675 0.5025
vt -73.6299 -0.1675 0.5038
vt -73.6299 1.0136 0.5038
vt -73.6299 0.0001 0.5025
vt -73.6299 -0.1675 0.5025
vt -73.6299 1.0136 0.5038
vt -73.6299 0.0072 0.5017
vt -73.6299 0.0001 0.5025
vt -73.6299 1.0136 0.5038
vt -73.6299 0.0179 0.5014
vt -73.6299 0.0072 0.5017
vt -73.6299 1.0136 0.5038
vt -73.6299 0.0270 0.5011
vt -73.6299 0.0179 0.5014
vt -73.6299 1.0136 0.5038
vt -73.6299 0.0356 0.5008
vt -73.6299 0.0270 0.5011
vt -73.6299 1.0136 0.5038
vt -73.6299 0.0451 0.5006
vt -73.6299 0.0356 0.5008
vt -73.6299 1.0136 0.5038
vt -73.6299 0.0567 0.5003
vt -73.6299 0.0451 0.5006
vt -73.6299 1.0136 0.5038
vt -73.6299 0.0717 0.5001
vt -73.6299 0.0567 0.5003
vt -73.6299 1.0136 0.5038
vt -73.6299 0.0914 0.4998
vt -73.6299 0.0717 0.5001
vt -73.6299 1.0136 0.5038
vt -73.6299 0.1165 0.4997
vt -73.6299 0.0914 0.4998
vt -73.6299 1.0136 0.5038
vt -73.6299 0.1463 0.4995
vt -73.6299 0.1165 0.4997
vt -73.6299 1.0136 0.5038
vt -73.6299 0.1795 0.4994
vt -73.6299 0.1463 0.4995
vt -73.6299 1.0136 0.5038
vt -73.6299 0.2148 0.4993
vt -73.6299 0.1795 0.4994
vt -73.6299 1.0136 0.5038
vt -73.6299 0.2509 0.4992
vt -73.6299 0.2148 0.4993
vt -73.6299 1.0136 0.5038
vt -73.6299 0.2867 0.4991
vt -73.6299 0.2509 0.4992
vt -73.6299 1.0136 0.5038
vt -73.6299 0.3207 0.4990
vt -73.6299 0.2867 0.4991
vt -73.6299 1.0136 0.5038
vt -73.6299 0.5242 0.4978
vt -73.6299 0.3207 0.4990
vt -73.6299 1.0136 0.5038
vt -73.6299 1.0136 0.5038
vt -73.6299 1.0136 0.4962
vt -73.6299 0.5242 0.4963
vt -73.6299 0.5242 0.4978
vt -73.6299 1.0136 0.5038
vt -73.6299 0.5242 0.4963
vt 0.9352 0.0445 0.0489
vt 0.0005 0.9810 0.0489
vt 0.0005 0.0445 0.0489
vt 0.8820 0.5259 0.0005
vt 0.8820 0.4741 0.2211
vt 0.5499 0.4741 0.9995
vt 0.5499 0.4741 0.9995
vt 0.5499 0.5259 0.7788
vt 0.8820 0.5259 0.0005
vt 0.1263 0.0760 0.0018
vt 0.1393 0.0012 0.0018
vt 0.8577 -0.0012 0.0005
vt 0.8577 -0.0012 0.0005
vt 0.9061 0.0692 0.0005
vt 0.1263 0.0760 0.0018
vt 0.0005 1.0152 0.9809
vt 0.0005 0.9995 0.9810
vt 0.9511 0.9995 0.9810
vt 0.9511 0.9995 0.9810
vt 0.9982 1.0146 0.9809
vt 0.0005 1.0152 0.9809
vt 1.0153 1.0646 0.9995
vt 0.9996 1.0647 0.9995
vt 0.9995 0.9810 0.9995
vt 0.9995 0.9810 0.9995
vt 1.0152 0.9809 0.9995
vt 1.0153 1.0646 0.9995
vt 0.9995 0.0648 0.0445
vt 0.9982 1.0146 0.9809
vt 0.9511 0.9995 0.9810
vt 0.9511 0.9995 0.9810
vt 0.9511 0.0648 0.0445
vt 0.9995 0.0648 0.0445
vt 0.1061 -0.9432 0.4248
vt 0.8824 -0.9563 0.4291
vt 0.9290 1.9054 0.5874
vt 0.5656 0.6194 -1.2961
vt 0.5656 0.6242 -1.2964
vt 0.2105 0.6240 -1.2962
vt 0.1061 -0.9432 0.4248
vt 0.9290 1.9054 0.5874
vt 0.1149 1.9541 0.5715
vt 0.2272 0.3140 -3.9355
vt 0.2105 0.6240 -1.2962
vt 0.2100 0.3140 -3.9355
vt 0.0000 0.0000 0.0000
vt 1.0000 0.0000 0.0000
vt 1.0000 1.0000 0.0000
vt 1.0000 1.0000 0.0000
vt 0.0000 1.0000 0.0000
vt 0.0000 0.0000 0.0000
vt 0.0000 0.0000 0.0000
vt 1.0000 0.0000 0.0000
vt 1.0000 1.0000 0.0000
vt 1.0000 1.0000 0.0000
vt 0.0000 1.0000 0.0000
vt 0.0000 0.0000 0.0000
vt 0.0000 0.0000 0.0000
vt 1.0000 0.0000 0.0000
vt 1.0000 1.0000 0.0000
vt 1.0000 1.0000 0.0000
vt 0.0000 1.0000 0.0000
vt 0.0000 0.0000 0.0000
vt 2.4906 2.1040 0.1649
vt 2.3687 -1.3723 0.0853
vt 5.7945 -1.5232 0.0925
vt 5.7945 -1.5232 0.0925
vt 5.9461 1.9519 0.1722
vt 2.4906 2.1040 0.1649
vt 0.0005 0.9814 0.9995
vt 0.9909 0.9814 0.9995
vt 0.9909 0.8227 0.9995
vt 0.0005 0.9814 0.9995
vt 0.9909 0.8227 0.9995
vt 0.5000 0.8227 0.9995
vt 0.0005 0.9814 0.9995
vt 0.5000 0.8227 0.9995
vt 0.0005 0.8227 0.9995
vt 0.0276 0.7393 0.9995
vt 0.0276 0.0170 0.9995
vt 0.0005 0.0020 0.9995
vt 0.0005 0.0020 0.9995
vt 0.0005 0.8227 0.9995
vt 0.0276 0.7393 0.9995
vt 0.0276 0.0170 0.9995
vt 0.0005 0.0020 0.9995
vt 0.5000 0.0020 0.9995
vt 0.5000 0.0020 0.9995
vt 0.4729 0.0170 0.9995
vt 0.0276 0.0170 0.9995
vt 0.4729 0.7393 0.9995
vt 0.5000 0.8227 0.9995
vt 0.5000 0.0020 0.9995
vt 0.5000 0.0020 0.9995
vt 0.4729 0.0170 0.9995
vt 0.4729 0.7393 0.9995
vt 0.4729 0.7393 0.9995
vt 0.0276 0.7393 0.9995
vt 0.0005 0.8227 0.9995
vt 0.0005 0.8227 0.9995
vt 0.5000 0.8227 0.9995
vt 0.4729 0.7393 0.9995
vt 0.5271 0.0170 0.9995
vt 0.5000 0.0020 0.9995
vt 0.9909 0.0020 0.9995
vt 0.9909 0.0020 0.9995
vt 0.9638 0.0170 0.9995
vt 0.5271 0.0170 0.9995
vt 0.9638 0.7393 0.9995
vt 0.9909 0.8227 0.9995
vt 0.9909 0.0020 0.9995
vt 0.9909 0.0020 0.9995
vt 0.9638 0.0170 0.9995
vt 0.9638 0.7393 0.9995
vt 0.9638 0.7393 0.9995
vt 0.5271 0.7393 0.9995
vt 0.5000 0.8227 0.9995
vt 0.5000 0.8227 0.9995
vt 0.9909 0.8227 0.9995
vt 0.9638 0.7393 0.9995
vt 0.5271 0.7393 0.9995
vt 0.5271 0.0170 0.9995
vt 0.5000 0.0020 0.9995
vt 0.5000 0.0020 0.9995
vt 0.5000 0.8227 0.9995
vt 0.5271 0.7393 0.9995
vt 1.0173 0.9995 0.0005
vt 1.0173 0.0005 0.0005
vt 0.0005 0.3941 0.0005
vt 0.0005 0.3941 0.0005
vt 0.0005 0.9995 0.0005
vt 1.0173 0.9995 0.0005
vt 0.0005 0.9995 -0.0681
vt 0.9995 0.9995 -0.0681
vt 0.9995 0.0005 -0.0681
vt 0.9995 0.0005 -0.0681
vt 0.0005 0.0005 -0.0681
vt 0.0005 0.9995 -0.0681
vt -0.0681 0.0005 -0.1448
vt -0.0681 0.9995 -0.1448
vt -0.0173 0.9995 -0.1448
vt -0.0173 0.9995 -0.1448
vt -0.0173 0.0005 -0.1448
vt -0.0681 0.0005 -0.1448
vt 1.0681 1.6181 0.0005
vt 1.0173 1.6181 0.0005
vt 1.0173 0.0020 0.0005
vt 1.0173 0.0020 0.0005
vt 1.0681 0.0020 0.0005
vt 1.0681 1.6181 0.0005
vt -0.0681 0.0005 0.0020
vt -0.0173 0.0005 0.0020
vt -0.0173 0.9995 0.0020
vt -0.0173 0.9995 0.0020
vt -0.0681 0.9995 0.0020
vt -0.0681 0.0005 0.0020
vt 1.0681 0.9995 0.0005
vt 1.0681 0.0005 0.0005
vt 1.0173 0.0005 0.0005
vt 1.0173 0.0005 0.0005
vt 1.0173 0.9995 0.0005
vt 1.0681 0.9995 0.0005
vt 0.9995 -0.1448 -0.0173
vt 0.0005 -0.1448 -0.0173
vt 0.0005 0.0005 -0.0173
vt 0.0005 0.0005 -0.0173
vt 0.9995 0.0005 -0.0173
vt 0.9995 -0.1448 -0.0173
vt 1.0173 1.8532 0.0005
vt 1.0173 1.6181 0.0005
vt 1.0681 1.6181 0.0005
vt 1.0681 1.6181 0.0005
vt 1.0681 1.8532 0.0005
vt 1.0173 1.8532 0.0005
vt 0.9995 -0.1448 -0.0681
vt 0.0005 -0.1448 -0.0681
vt 0.0005 0.0005 -0.0681
vt 0.0005 0.0005 -0.0681
vt 0.9995 0.0005 -0.0681
vt 0.9995 -0.1448 -0.0681
vt 1.0681 -0.1448 0.0005
vt 1.0173 -0.1448 0.0005
vt 1.0173 0.0005 0.0005
vt 1.0173 0.0005 0.0005
vt 1.0681 0.0005 0.0005
vt 1.0681 -0.1448 0.0005
vt 0.0000 0.0000 0.0000
vt 0.0000 1.0000 0.0000
vt 1.0000 1.0000 0.0000
vt 1.0000 1.0000 0.0000
vt 1.0000 0.0000 0.0000
vt 0.0000 0.0000 0.0000
vt 0.0000 0.0000 0.0000
vt 0.0000 1.0000 0.0000
vt 1.0000 1.0000 0.0000
vt 1.0000 1.0000 0.0000
vt 1.0000 0.0000 0.0000
vt 0.0000 0.0000 0.0000
# 1974 texture coords

g Parnu_mnt_9a
usemtl Door_FL
s 2
f 1/1/1 2/2/1 3/3/1 
f 3/4/1 4/5/1 1/6/1 
usemtl WALLS_
s off
f 5/7/2 6/8/2 7/9/2 
f 5/10/3 7/11/3 8/12/3 
f 5/13/4 8/14/4 9/15/4 
f 5/16/3 9/17/3 10/18/3 
f 5/19/4 10/20/4 11/21/4 
f 5/22/2 11/23/2 12/24/2 
f 13/25/2 14/26/2 15/27/2 
f 15/28/2 16/29/2 13/30/2 
f 17/31/5 18/32/5 19/33/5 
f 19/34/5 20/35/5 17/36/5 
f 15/37/6 21/38/6 22/39/6 
f 22/40/6 5/41/6 12/42/6 
f 15/43/6 22/44/6 12/45/6 
f 15/46/6 12/47/6 16/48/6 
f 23/49/7 24/50/7 25/51/7 
f 25/52/7 26/53/7 23/54/7 
f 27/55/8 14/56/8 13/57/8 
f 28/58/8 27/59/8 13/60/8 
f 29/61/8 28/62/8 13/63/8 
f 13/64/8 30/65/8 31/66/8 
f 13/67/8 31/68/8 32/69/8 
f 13/70/8 32/71/8 33/72/8 
f 13/73/8 33/74/8 34/75/8 
f 13/76/8 34/77/8 35/78/8 
f 13/79/8 35/80/8 36/81/8 
f 13/82/8 36/83/8 37/84/8 
f 29/85/8 13/86/8 37/87/8 
f 29/88/8 37/89/8 38/90/8 
f 39/91/9 40/92/9 41/93/9 
f 41/94/9 42/95/9 39/96/9 
f 30/97/5 20/98/5 19/99/5 
f 30/100/10 19/101/10 43/102/10 
f 30/103/2 43/104/2 31/105/2 
f 32/106/2 44/107/2 45/108/2 
f 45/109/2 33/110/2 32/111/2 
f 34/112/2 46/113/2 47/114/2 
f 47/115/2 35/116/2 34/117/2 
f 36/118/11 48/119/11 49/120/11 
f 49/121/11 37/122/11 36/123/11 
f 38/124/2 50/125/2 51/126/2 
f 51/127/2 29/128/2 38/129/2 
f 27/130/2 28/131/2 52/132/2 
f 27/133/12 52/134/12 53/135/12 
f 27/136/13 53/137/13 54/138/13 
f 55/139/2 56/140/2 57/141/2 
f 57/142/2 58/143/2 55/144/2 
f 5/145/14 22/146/14 59/147/14 
f 5/148/14 59/149/14 60/150/14 
f 6/151/14 5/152/14 60/153/14 
f 6/154/14 60/155/14 61/156/14 
f 62/157/2 63/158/2 64/159/2 
f 64/160/2 65/161/2 62/162/2 
f 11/163/2 10/164/2 66/165/2 
f 66/166/2 67/167/2 11/168/2 
f 21/169/2 68/170/2 69/171/2 
f 21/172/2 69/173/2 70/174/2 
f 21/175/15 70/176/15 59/177/15 
f 21/178/2 59/179/2 22/180/2 
f 71/181/2 72/182/2 69/183/2 
f 69/184/2 68/185/2 71/186/2 
f 73/187/2 74/188/2 75/189/2 
f 73/190/2 75/191/2 76/192/2 
f 77/193/16 73/194/16 76/195/16 
f 78/196/17 77/197/17 76/198/17 
f 66/199/18 78/200/18 76/201/18 
f 66/202/2 76/203/2 67/204/2 
usemtl Down
f 79/205/2 80/206/2 81/207/2 
f 81/208/2 82/209/2 79/210/2 
usemtl WALLS_
f 83/211/14 84/212/14 85/213/14 
f 85/214/14 86/215/14 83/216/14 
f 73/217/2 7/218/2 6/219/2 
f 73/220/2 6/221/2 61/222/2 
f 73/223/2 61/224/2 87/225/2 
f 73/226/2 87/227/2 85/228/2 
f 73/229/2 85/230/2 84/231/2 
f 73/232/2 84/233/2 74/234/2 
f 78/235/2 9/236/2 8/237/2 
f 8/238/2 77/239/2 78/240/2 
f 88/241/2 89/242/2 83/243/2 
f 88/244/2 83/245/2 86/246/2 
f 88/247/2 86/248/2 90/249/2 
f 88/250/2 90/251/2 60/252/2 
f 88/253/2 60/254/2 59/255/2 
f 88/256/2 59/257/2 70/258/2 
f 91/259/6 92/260/6 43/261/6 
f 43/262/6 44/263/6 91/264/6 
f 92/265/19 43/266/19 31/267/19 
f 31/268/19 93/269/19 92/270/19 
usemtl Podokonnik
f 93/271/8 94/272/8 32/273/8 
f 32/274/8 31/275/8 93/276/8 
usemtl WALLS_
f 94/277/20 91/278/20 44/279/20 
f 44/280/20 32/281/20 94/282/20 
f 95/283/6 96/284/6 45/285/6 
f 45/286/6 46/287/6 95/288/6 
f 96/289/21 97/290/21 33/291/21 
f 33/292/21 45/293/21 96/294/21 
usemtl Podokonnik
f 97/295/8 98/296/8 34/297/8 
f 34/298/8 33/299/8 97/300/8 
usemtl WALLS_
f 98/301/22 95/302/22 46/303/22 
f 46/304/22 34/305/22 98/306/22 
f 99/307/6 100/308/6 47/309/6 
f 47/310/6 48/311/6 99/312/6 
f 100/313/23 101/314/23 35/315/23 
f 35/316/23 47/317/23 100/318/23 
usemtl Podokonnik
f 101/319/8 102/320/8 36/321/8 
f 36/322/8 35/323/8 101/324/8 
usemtl WALLS_
f 102/325/20 99/326/20 48/327/20 
f 48/328/20 36/329/20 102/330/20 
f 103/331/8 52/332/8 51/333/8 
f 51/334/8 104/335/8 103/336/8 
f 104/337/20 51/338/20 29/339/20 
f 29/340/20 105/341/20 104/342/20 
usemtl Podokonnik
f 105/343/6 29/344/6 28/345/6 
f 28/346/6 106/347/6 105/348/6 
usemtl WALLS_
f 106/349/7 28/350/7 52/351/7 
f 52/352/7 103/353/7 106/354/7 
usemtl Podokonnik
f 107/355/8 108/356/8 38/357/8 
f 38/358/8 37/359/8 107/360/8 
usemtl WALLS_
f 108/361/23 38/362/23 50/363/23 
f 50/364/23 109/365/23 108/366/23 
f 109/367/6 110/368/6 49/369/6 
f 49/370/6 50/371/6 109/372/6 
f 110/373/7 107/374/7 37/375/7 
f 37/376/7 49/377/7 110/378/7 
f 111/379/20 112/380/20 7/381/20 
f 7/382/20 73/383/20 111/384/20 
f 112/385/6 113/386/6 8/387/6 
f 8/388/6 7/389/6 112/390/6 
f 113/391/23 114/392/23 77/393/23 
f 77/394/23 8/395/23 113/396/23 
usemtl Podokonnik
f 114/397/8 111/398/8 73/399/8 
f 73/400/8 77/401/8 114/402/8 
usemtl WALLS_
f 115/403/24 116/404/24 9/405/24 
f 9/406/24 78/407/24 115/408/24 
f 116/409/6 117/410/6 10/411/6 
f 10/412/6 9/413/6 116/414/6 
f 117/415/7 118/416/7 66/417/7 
f 66/418/7 10/419/7 117/420/7 
usemtl Podokonnik
f 118/421/8 115/422/8 78/423/8 
f 78/424/8 66/425/8 118/426/8 
usemtl WALLS_
f 119/427/22 70/428/22 88/429/22 
f 88/430/22 120/431/22 119/432/22 
usemtl Podokonnik
f 120/433/6 88/434/6 72/435/6 
f 72/436/6 121/437/6 120/438/6 
usemtl WALLS_
f 121/439/7 72/440/7 69/441/7 
f 69/442/7 122/443/7 121/444/7 
f 122/445/8 69/446/8 70/447/8 
f 70/448/8 119/449/8 122/450/8 
f 53/451/13 123/452/13 124/453/13 
f 124/454/13 54/455/13 53/456/13 
f 123/457/5 53/458/5 52/459/5 
f 123/460/4 52/461/4 51/462/4 
f 123/463/4 51/464/4 50/465/4 
f 123/466/18 50/467/18 49/468/18 
f 123/469/25 49/470/25 48/471/25 
f 123/472/26 48/473/26 47/474/26 
f 123/475/2 47/476/2 46/477/2 
f 123/478/15 46/479/15 45/480/15 
f 123/481/17 45/482/17 44/483/17 
f 123/484/27 44/485/27 43/486/27 
f 123/487/28 43/488/28 19/489/28 
f 123/490/2 19/491/2 18/492/2 
f 57/493/29 56/494/29 85/495/29 
f 85/496/29 87/497/29 57/498/29 
f 56/499/6 55/500/6 86/501/6 
f 86/502/6 85/503/6 56/504/6 
f 58/505/1 90/506/1 86/507/1 
f 86/508/1 55/509/1 58/510/1 
f 62/511/30 65/512/30 125/513/30 
f 125/514/30 126/515/30 62/516/30 
usemtl Roof
f 127/517/31 128/518/31 129/519/31 
f 129/520/31 130/521/31 127/522/31 
usemtl WALLS_
f 64/523/19 63/524/19 131/525/19 
f 131/526/19 132/527/19 64/528/19 
f 133/529/32 62/530/32 65/531/32 
f 62/532/32 133/533/32 58/534/32 
f 65/535/8 64/536/8 134/537/8 
f 134/538/8 133/539/8 65/540/8 
f 57/541/33 64/542/33 63/543/33 
f 64/544/33 57/545/33 134/546/33 
f 63/547/6 62/548/6 58/549/6 
f 58/550/6 57/551/6 63/552/6 
f 126/553/34 125/554/34 60/555/34 
f 60/556/34 90/557/34 126/558/34 
f 125/559/35 65/560/35 133/561/35 
f 133/562/36 60/563/36 125/564/36 
f 58/565/37 65/566/37 62/567/37 
f 65/568/37 58/569/37 133/570/37 
f 58/571/38 126/572/38 90/573/38 
f 126/574/39 58/575/39 62/576/39 
f 130/577/40 129/578/40 61/579/40 
f 61/580/40 60/581/40 130/582/40 
f 129/583/29 128/584/29 134/585/29 
f 134/586/29 61/587/29 129/588/29 
f 128/589/2 127/590/2 133/591/2 
f 133/592/2 134/593/2 128/594/2 
f 127/595/1 130/596/1 60/597/1 
f 60/598/1 133/599/1 127/600/1 
f 132/601/41 131/602/41 87/603/41 
f 87/604/41 61/605/41 132/606/41 
f 131/607/42 63/608/42 57/609/42 
f 57/610/43 87/611/43 131/612/43 
f 134/613/44 63/614/44 64/615/44 
f 63/616/44 134/617/44 57/618/44 
f 134/619/36 132/620/36 61/621/36 
f 132/622/45 134/623/45 64/624/45 
usemtl Down
f 135/625/2 136/626/2 137/627/2 
f 137/628/2 138/629/2 135/630/2 
usemtl WALLS_
f 139/631/2 140/632/2 89/633/2 
f 139/634/46 89/635/46 88/636/46 
f 139/637/27 88/638/27 72/639/27 
f 139/640/2 72/641/2 71/642/2 
usemtl Down
f 141/643/47 142/644/47 143/645/47 
f 143/646/47 144/647/47 141/648/47 
usemtl WALLS_
f 82/649/8 81/650/8 140/651/8 
f 140/652/8 139/653/8 82/654/8 
f 81/655/48 80/656/48 145/657/48 
f 145/658/48 140/659/48 81/660/48 
usemtl Down
f 146/661/49 147/662/49 148/663/49 
f 148/664/49 149/665/49 146/666/49 
usemtl WALLS_
f 137/667/50 136/668/50 75/669/50 
f 75/670/50 150/671/50 137/672/50 
f 136/673/8 135/674/8 76/675/8 
f 76/676/8 75/677/8 136/678/8 
f 151/679/51 152/680/51 74/681/51 
f 74/682/51 84/683/51 151/684/51 
f 153/685/52 154/686/52 83/687/52 
f 83/688/52 89/689/52 153/690/52 
f 155/691/51 156/692/51 150/693/51 
f 150/694/51 75/695/51 155/696/51 
f 157/697/52 153/698/52 89/699/52 
f 89/700/52 140/701/52 157/702/52 
f 154/703/6 151/704/6 84/705/6 
f 84/706/6 83/707/6 154/708/6 
f 152/709/51 155/710/51 75/711/51 
f 75/712/51 74/713/51 152/714/51 
f 158/715/52 157/716/52 140/717/52 
f 140/718/52 145/719/52 158/720/52 
f 159/721/53 160/722/53 12/723/53 
f 12/724/53 11/725/53 159/726/53 
f 161/727/53 162/728/53 163/729/53 
f 163/730/53 164/731/53 161/732/53 
f 165/733/54 166/734/54 17/735/54 
f 167/736/53 165/737/53 17/738/53 
f 167/739/53 17/740/53 20/741/53 
f 168/742/53 167/743/53 20/744/53 
f 20/745/53 30/746/53 168/747/53 
f 169/748/53 159/749/53 11/750/53 
f 11/751/53 67/752/53 169/753/53 
f 170/754/53 169/755/53 67/756/53 
f 67/757/53 76/758/53 170/759/53 
f 17/760/53 166/761/53 171/762/53 
f 172/763/55 173/764/55 18/765/55 
usemtl Down
f 174/766/53 175/767/53 176/768/53 
f 176/769/53 177/770/53 174/771/53 
usemtl WALLS_
f 178/772/56 179/773/56 180/774/56 
f 180/775/57 181/776/57 178/777/57 
f 182/778/57 181/779/57 180/780/57 
f 182/781/57 180/782/57 183/783/57 
f 182/784/58 183/785/58 167/786/58 
f 182/787/57 167/788/57 168/789/57 
f 182/790/57 168/791/57 160/792/57 
f 160/793/57 184/794/57 182/795/57 
f 184/796/57 160/797/57 159/798/57 
f 159/799/57 185/800/57 184/801/57 
f 185/802/57 159/803/57 169/804/57 
f 169/805/57 186/806/57 185/807/57 
usemtl Down
f 187/808/57 170/809/57 188/810/57 
f 188/811/57 189/812/57 187/813/57 
usemtl WALLS_
f 186/814/57 169/815/57 170/816/57 
f 170/817/57 187/818/57 186/819/57 
f 21/820/59 27/821/59 23/822/59 
f 23/823/59 24/824/59 21/825/59 
f 27/826/6 14/827/6 26/828/6 
f 26/829/6 23/830/6 27/831/6 
f 14/832/60 15/833/60 25/834/60 
f 25/835/60 26/836/60 14/837/60 
f 15/838/8 21/839/8 24/840/8 
f 24/841/8 25/842/8 15/843/8 
f 190/844/61 27/845/61 21/846/61 
f 21/847/61 191/848/61 190/849/61 
f 192/850/62 184/851/62 182/852/62 
f 182/853/62 193/854/62 192/855/62 
f 40/856/59 30/857/59 12/858/59 
f 12/859/59 41/860/59 40/861/59 
f 41/862/8 12/863/8 16/864/8 
f 16/865/8 42/866/8 41/867/8 
f 42/868/63 16/869/63 13/870/63 
f 13/871/63 39/872/63 42/873/63 
f 39/874/6 13/875/6 30/876/6 
f 30/877/6 40/878/6 39/879/6 
f 164/880/64 12/881/64 30/882/64 
f 30/883/64 163/884/64 164/885/64 
f 163/886/6 30/887/6 168/888/6 
f 168/889/6 162/890/6 163/891/6 
f 162/892/65 168/893/65 160/894/65 
f 160/895/65 161/896/65 162/897/65 
f 161/898/8 160/899/8 12/900/8 
f 12/901/8 164/902/8 161/903/8 
usemtl Down
f 147/904/66 146/905/66 135/906/66 
f 135/907/66 138/908/66 147/909/66 
usemtl WALLS_
f 146/910/8 149/911/8 76/912/8 
f 76/913/8 135/914/8 146/915/8 
f 176/916/8 175/917/8 170/918/8 
f 170/919/8 76/920/8 176/921/8 
usemtl Down
f 175/922/65 170/923/65 188/924/65 
f 188/925/65 174/926/65 175/927/65 
usemtl WALLS_
f 139/928/6 82/929/6 144/930/6 
f 144/931/6 141/932/6 139/933/6 
usemtl Down
f 82/934/67 143/935/67 79/936/67 
f 143/937/67 82/938/67 144/939/67 
usemtl WALLS_
f 194/940/62 189/941/62 187/942/62 
f 187/943/62 195/944/62 194/945/62 
f 165/946/68 167/947/68 183/948/68 
f 165/949/68 183/950/68 173/951/68 
f 165/952/68 173/953/68 196/954/68 
f 180/955/69 179/956/69 173/957/69 
f 173/958/57 183/959/57 180/960/57 
f 193/961/70 192/962/70 191/963/70 
f 191/964/70 190/965/70 193/966/70 
f 197/967/70 198/968/70 27/969/70 
f 197/970/70 27/971/70 54/972/70 
f 197/973/70 54/974/70 199/975/70 
f 200/976/70 201/977/70 181/978/70 
f 200/979/71 181/980/71 202/981/71 
f 200/982/72 202/983/72 203/984/72 
f 200/985/71 203/986/71 204/987/71 
f 200/988/73 204/989/73 199/990/73 
f 200/991/70 199/992/70 54/993/70 
f 200/994/70 54/995/70 124/996/70 
f 205/997/74 206/998/74 207/999/74 
f 207/1000/75 208/1001/75 21/1002/75 
f 205/1003/76 207/1004/76 21/1005/76 
f 205/1006/77 21/1007/77 209/1008/77 
f 21/1009/78 208/1010/78 68/1011/78 
f 208/1012/78 210/1013/78 71/1014/78 
f 208/1015/78 71/1016/78 68/1017/78 
usemtl Down
f 195/1018/70 194/1019/70 211/1020/70 
f 211/1021/70 212/1022/70 195/1023/70 
usemtl WALLS_
f 213/1024/79 186/1025/79 187/1026/79 
f 187/1027/70 139/1028/70 71/1029/70 
f 187/1030/80 71/1031/80 210/1032/80 
f 187/1033/81 210/1034/81 214/1035/81 
f 214/1036/82 215/1037/82 213/1038/82 
f 187/1039/83 214/1040/83 213/1041/83 
f 192/1042/6 184/1043/6 216/1044/6 
f 209/1045/6 21/1046/6 192/1047/6 
f 192/1048/6 216/1049/6 209/1050/6 
f 192/1051/6 21/1052/6 191/1053/6 
f 190/1054/8 27/1055/8 198/1056/8 
f 190/1057/8 198/1058/8 217/1059/8 
f 190/1060/8 217/1061/8 218/1062/8 
f 190/1063/8 218/1064/8 219/1065/8 
f 190/1066/8 219/1067/8 182/1068/8 
f 190/1069/8 182/1070/8 193/1071/8 
f 211/1072/6 194/1073/6 189/1074/6 
f 195/1075/8 212/1076/8 139/1077/8 
f 139/1078/8 187/1079/8 195/1080/8 
f 123/1081/84 179/1082/84 220/1083/84 
f 200/1084/70 124/1085/70 221/1086/70 
f 215/1087/79 214/1088/79 207/1089/79 
f 207/1090/79 206/1091/79 222/1092/79 
f 215/1093/79 207/1094/79 222/1095/79 
f 184/1096/79 185/1097/79 223/1098/79 
f 224/1099/85 216/1100/85 184/1101/85 
f 184/1102/79 223/1103/79 224/1104/79 
f 185/1105/79 213/1106/79 225/1107/79 
f 225/1108/79 223/1109/79 185/1110/79 
f 213/1111/79 185/1112/79 186/1113/79 
f 209/1114/86 216/1115/86 224/1116/86 
f 224/1117/87 205/1118/87 209/1119/87 
f 225/1120/88 213/1121/88 215/1122/88 
f 215/1123/88 222/1124/88 225/1125/88 
f 204/1126/89 203/1127/89 226/1128/89 
f 226/1129/89 227/1130/89 204/1131/89 
f 203/1132/90 202/1133/90 228/1134/90 
f 228/1135/90 226/1136/90 203/1137/90 
f 229/1138/6 208/1139/6 207/1140/6 
f 207/1141/6 230/1142/6 229/1143/6 
f 207/1144/91 214/1145/91 231/1146/91 
f 231/1147/91 230/1148/91 207/1149/91 
usemtl Podokonnik
f 210/1150/92 232/1151/92 231/1152/92 
f 231/1153/93 214/1154/93 210/1155/93 
usemtl WALLS_
f 208/1156/94 229/1157/94 232/1158/94 
f 232/1159/94 210/1160/94 208/1161/94 
f 223/1162/95 225/1163/95 233/1164/95 
f 233/1165/95 234/1166/95 223/1167/95 
usemtl Podokonnik
f 222/1168/96 235/1169/96 233/1170/96 
f 233/1171/97 225/1172/97 222/1173/97 
usemtl WALLS_
f 235/1174/98 222/1175/98 206/1176/98 
f 206/1177/98 236/1178/98 235/1179/98 
f 237/1180/99 224/1181/99 223/1182/99 
f 223/1183/100 234/1184/100 237/1185/100 
f 236/1186/101 206/1187/101 205/1188/101 
f 205/1189/102 238/1190/102 236/1191/102 
f 238/1192/103 205/1193/103 224/1194/103 
f 224/1195/103 237/1196/103 238/1197/103 
f 239/1198/104 240/1199/104 218/1200/104 
f 218/1201/104 241/1202/104 239/1203/104 
usemtl Podokonnik
f 241/1204/8 218/1205/8 217/1206/8 
f 217/1207/8 242/1208/8 241/1209/8 
usemtl WALLS_
f 242/1210/105 217/1211/105 243/1212/105 
f 243/1213/105 244/1214/105 242/1215/105 
f 244/1216/6 243/1217/6 240/1218/6 
f 240/1219/6 239/1220/6 244/1221/6 
f 199/1222/106 204/1223/106 227/1224/106 
f 227/1225/106 197/1226/106 199/1227/106 
f 181/1228/89 182/1229/89 219/1230/89 
f 228/1231/89 202/1232/89 181/1233/89 
f 181/1234/89 219/1235/89 228/1236/89 
f 245/1237/89 246/1238/89 247/1239/89 
f 247/1240/89 248/1241/89 245/1242/89 
f 249/1243/107 250/1244/107 251/1245/107 
f 249/1246/107 251/1247/107 246/1248/107 
f 249/1249/107 246/1250/107 245/1251/107 
f 247/1252/106 252/1253/106 253/1254/106 
f 247/1255/106 253/1256/106 254/1257/106 
f 247/1258/106 254/1259/106 248/1260/106 
f 252/1261/6 217/1262/6 198/1263/6 
f 198/1264/6 253/1265/6 252/1266/6 
f 253/1267/108 198/1268/108 197/1269/108 
f 197/1270/108 254/1271/108 253/1272/108 
f 254/1273/8 197/1274/8 227/1275/8 
f 227/1276/8 248/1277/8 254/1278/8 
f 248/1279/8 227/1280/8 226/1281/8 
f 226/1282/8 245/1283/8 248/1284/8 
f 245/1285/8 226/1286/8 228/1287/8 
f 228/1288/8 249/1289/8 245/1290/8 
f 249/1291/98 228/1292/98 219/1293/98 
f 219/1294/98 250/1295/98 249/1296/98 
f 250/1297/6 219/1298/6 218/1299/6 
f 218/1300/6 251/1301/6 250/1302/6 
f 251/1303/109 218/1304/109 240/1305/109 
f 240/1306/109 246/1307/109 251/1308/109 
f 246/1309/6 240/1310/6 243/1311/6 
f 243/1312/6 247/1313/6 246/1314/6 
f 247/1315/110 243/1316/110 217/1317/110 
f 217/1318/110 252/1319/110 247/1320/110 
usemtl window
s 1
f 93/1321/2 92/1322/2 91/1323/2 
f 91/1324/2 94/1325/2 93/1326/2 
f 97/1327/2 96/1328/2 95/1329/2 
f 95/1330/2 98/1331/2 97/1332/2 
f 101/1333/5 100/1334/5 99/1335/5 
f 99/1336/5 102/1337/5 101/1338/5 
f 105/1339/2 104/1340/2 103/1341/2 
f 103/1342/2 106/1343/2 105/1344/2 
f 107/1345/2 110/1346/2 109/1347/2 
f 109/1348/2 108/1349/2 107/1350/2 
usemtl wind_01__one_
f 114/1351/5 113/1352/5 112/1353/5 
f 112/1354/5 111/1355/5 114/1356/5 
f 118/1357/2 117/1358/2 116/1359/2 
f 116/1360/2 115/1361/2 118/1362/2 
f 122/1363/2 121/1364/2 120/1365/2 
f 120/1366/2 119/1367/2 122/1368/2 
usemtl Krilco
f 255/1369/5 256/1370/5 257/1371/5 
f 257/1372/5 258/1373/5 255/1374/5 
usemtl DOor
f 259/1375/2 151/1376/2 154/1377/2 
f 154/1378/2 260/1379/2 259/1380/2 
usemtl Krilco
s off
f 258/1381/111 257/1382/111 260/1383/111 
f 260/1384/111 158/1385/111 258/1386/111 
f 257/1387/8 256/1388/8 261/1389/8 
f 261/1390/8 260/1391/8 257/1392/8 
f 256/1393/112 255/1394/112 262/1395/112 
f 262/1396/112 261/1397/112 256/1398/112 
usemtl Roof
s 1
f 18/1399/113 173/1400/113 179/1401/113 
f 179/1402/114 123/1403/114 18/1404/114 
f 263/1405/8 196/1406/8 173/1407/8 
f 173/1408/8 172/1409/8 263/1410/8 
f 264/1411/8 265/1412/8 220/1413/8 
f 220/1414/8 266/1415/8 264/1416/8 
s off
f 18/1417/5 263/1418/5 172/1419/5 
f 263/1420/115 18/1421/115 267/1422/115 
f 196/1423/53 171/1424/53 165/1425/53 
f 171/1426/53 196/1427/53 263/1428/53 
f 265/1429/13 124/1430/13 123/1431/13 
f 123/1432/13 220/1433/13 265/1434/13 
f 221/1435/70 265/1436/70 264/1437/70 
f 264/1438/70 268/1439/70 221/1440/70 
usemtl Balka
s 2
f 269/1441/116 270/1442/116 271/1443/116 
f 271/1444/116 272/1445/116 269/1446/116 
s 4
f 273/1447/2 274/1448/2 275/1449/2 
f 275/1450/2 276/1451/2 273/1452/2 
s 8
f 277/1453/6 278/1454/6 279/1455/6 
f 279/1456/6 280/1457/6 277/1458/6 
s 16
f 276/1459/117 275/1460/117 281/1461/117 
f 276/1462/117 281/1463/117 269/1464/117 
f 276/1465/117 269/1466/117 272/1467/117 
s 32
f 276/1468/8 272/1469/8 271/1470/8 
f 271/1471/8 273/1472/8 276/1473/8 
s 64
f 271/1474/118 270/1475/119 282/1476/120 
f 271/1477/118 282/1478/120 274/1479/121 
f 271/1480/118 274/1481/121 273/1482/122 
s 8
f 281/1483/6 275/1484/6 274/1485/6 
f 274/1486/6 282/1487/6 281/1488/6 
s off
f 277/1489/116 270/1490/116 269/1491/116 
f 269/1492/116 278/1493/116 277/1494/116 
f 278/1495/117 269/1496/117 281/1497/117 
f 281/1498/117 279/1499/117 278/1500/117 
f 279/1501/2 281/1502/2 282/1503/2 
f 282/1504/2 280/1505/2 279/1506/2 
f 280/1507/119 282/1508/119 270/1509/119 
f 270/1510/119 277/1511/119 280/1512/119 
usemtl Jelob
s 1
f 283/1513/8 284/1514/8 285/1515/8 
f 285/1516/8 124/1517/8 283/1518/8 
s 4
f 286/1519/123 287/1520/123 284/1521/123 
f 284/1522/123 283/1523/123 286/1524/123 
s 2
f 288/1525/6 289/1526/6 287/1527/6 
f 287/1528/6 286/1529/6 288/1530/6 
s 4
f 290/1531/2 291/1532/2 289/1533/2 
f 289/1534/2 288/1535/2 290/1536/2 
s 2
f 292/1537/6 293/1538/6 291/1539/6 
f 291/1540/6 290/1541/6 292/1542/6 
s 4
f 294/1543/124 295/1544/125 293/1545/126 
f 293/1546/126 292/1547/127 294/1548/124 
f 296/1549/128 297/1550/129 295/1551/125 
f 295/1552/125 294/1553/124 296/1554/128 
f 298/1555/130 299/1556/131 297/1557/129 
f 297/1558/129 296/1559/128 298/1560/130 
f 300/1561/132 301/1562/133 299/1563/131 
f 299/1564/131 298/1565/130 300/1566/132 
f 302/1567/134 303/1568/135 301/1569/133 
f 301/1570/133 300/1571/132 302/1572/134 
f 304/1573/136 305/1574/137 303/1575/135 
f 303/1576/135 302/1577/134 304/1578/136 
f 306/1579/138 307/1580/139 305/1581/137 
f 305/1582/137 304/1583/136 306/1584/138 
f 308/1585/140 309/1586/141 307/1587/139 
f 307/1588/139 306/1589/138 308/1590/140 
f 310/1591/142 311/1592/143 309/1593/141 
f 309/1594/141 308/1595/140 310/1596/142 
f 312/1597/144 313/1598/145 311/1599/143 
f 311/1600/143 310/1601/142 312/1602/144 
f 314/1603/146 315/1604/147 313/1605/145 
f 313/1606/145 312/1607/144 314/1608/146 
f 316/1609/148 317/1610/148 315/1611/147 
f 315/1612/147 314/1613/146 316/1614/148 
f 318/1615/149 319/1616/150 317/1617/148 
f 317/1618/148 316/1619/148 318/1620/149 
f 320/1621/151 321/1622/151 319/1623/150 
f 319/1624/150 318/1625/149 320/1626/151 
s 2
f 322/1627/152 323/1628/153 321/1629/153 
f 321/1630/153 320/1631/152 322/1632/152 
s 4
f 324/1633/2 325/1634/2 323/1635/2 
f 323/1636/2 322/1637/2 324/1638/2 
s 2
f 325/1639/6 324/1640/6 271/1641/6 
f 271/1642/6 272/1643/6 325/1644/6 
s 4
f 272/1645/116 271/1646/116 124/1647/116 
f 124/1648/116 285/1649/116 272/1650/116 
s 16
f 312/1651/154 310/1652/155 308/1653/156 
f 308/1654/156 306/1655/157 304/1656/158 
f 312/1657/154 308/1658/156 304/1659/158 
f 304/1660/158 302/1661/159 300/1662/160 
f 292/1663/161 290/1664/162 288/1665/163 
f 288/1666/163 286/1667/164 283/1668/165 
f 292/1669/161 288/1670/163 283/1671/165 
f 283/1672/165 124/1673/166 271/1674/167 
f 271/1675/167 324/1676/51 322/1677/168 
f 283/1678/165 271/1679/167 322/1680/168 
f 292/1681/161 283/1682/165 322/1683/168 
f 294/1684/169 292/1685/161 322/1686/168 
f 296/1687/170 294/1688/169 322/1689/168 
f 298/1690/171 296/1691/170 322/1692/168 
f 300/1693/160 298/1694/171 322/1695/168 
f 300/1696/160 322/1697/168 320/1698/172 
f 304/1699/158 300/1700/160 320/1701/172 
f 312/1702/154 304/1703/158 320/1704/172 
f 320/1705/172 318/1706/173 316/1707/174 
f 312/1708/154 320/1709/172 316/1710/174 
f 312/1711/154 316/1712/174 314/1713/175 
f 289/1714/176 291/1715/112 293/1716/177 
f 325/1717/178 272/1718/178 285/1719/179 
f 323/1720/180 325/1721/178 285/1722/179 
f 321/1723/181 323/1724/180 285/1725/179 
f 319/1726/182 321/1727/181 285/1728/179 
f 317/1729/183 319/1730/182 285/1731/179 
f 315/1732/184 317/1733/183 285/1734/179 
f 313/1735/185 315/1736/184 285/1737/179 
f 311/1738/186 313/1739/185 285/1740/179 
f 309/1741/187 311/1742/186 285/1743/179 
f 307/1744/188 309/1745/187 285/1746/179 
f 305/1747/189 307/1748/188 285/1749/179 
f 303/1750/190 305/1751/189 285/1752/179 
f 301/1753/191 303/1754/190 285/1755/179 
f 299/1756/192 301/1757/191 285/1758/179 
f 297/1759/193 299/1760/192 285/1761/179 
f 295/1762/194 297/1763/193 285/1764/179 
f 293/1765/177 295/1766/194 285/1767/179 
f 289/1768/176 293/1769/177 285/1770/179 
f 285/1771/179 284/1772/195 287/1773/178 
f 289/1774/176 285/1775/179 287/1776/178 
usemtl FLigel_door
s 64
f 326/1777/2 3/1778/2 2/1779/2 
s off
f 327/1780/196 328/1781/196 329/1782/196 
f 329/1783/197 330/1784/197 327/1785/197 
f 330/1786/198 329/1787/198 331/1788/198 
f 331/1789/199 332/1790/199 330/1791/199 
f 328/1792/200 4/1793/200 3/1794/200 
f 3/1795/201 329/1796/201 328/1797/201 
f 327/1798/202 333/1799/202 4/1800/202 
f 4/1801/202 328/1802/202 327/1803/202 
f 331/1804/203 329/1805/203 3/1806/203 
f 3/1807/204 326/1808/204 331/1809/204 
usemtl Roof
f 334/1810/205 335/1811/205 333/1812/205 
f 333/1813/206 327/1814/206 330/1815/206 
f 334/1816/207 333/1817/207 330/1818/207 
f 334/1819/208 330/1820/208 332/1821/208 
usemtl window2
f 229/1822/209 230/1823/209 231/1824/209 
f 231/1825/209 232/1826/209 229/1827/209 
usemtl window2_one
f 237/1828/210 233/1829/210 235/1830/210 
f 235/1831/211 238/1832/211 237/1833/211 
usemtl wind_01__one_
f 239/1834/70 241/1835/70 242/1836/70 
f 242/1837/70 244/1838/70 239/1839/70 
usemtl Roof
s 1
f 336/1840/212 337/1841/212 338/1842/212 
f 338/1843/212 339/1844/212 336/1845/212 
usemtl WALLS_
s off
f 338/1846/2 337/1847/2 340/1848/2 
f 338/1849/4 340/1850/4 341/1851/4 
f 338/1852/2 341/1853/2 342/1854/2 
f 343/1855/11 344/1856/11 345/1857/11 
f 345/1858/11 342/1859/11 343/1860/11 
f 344/1861/213 345/1862/213 346/1863/213 
f 346/1864/214 347/1865/214 344/1866/214 
f 348/1867/5 341/1868/5 346/1869/5 
f 346/1870/5 347/1871/5 348/1872/5 
f 348/1873/4 343/1874/4 342/1875/4 
f 342/1876/2 341/1877/2 348/1878/2 
f 349/1879/213 346/1880/213 350/1881/213 
f 350/1882/215 351/1883/215 349/1884/215 
f 352/1885/216 340/1886/216 350/1887/216 
f 350/1888/216 351/1889/216 352/1890/216 
f 352/1891/4 353/1892/4 341/1893/4 
f 341/1894/217 340/1895/217 352/1896/217 
f 353/1897/11 349/1898/11 346/1899/11 
f 346/1900/11 341/1901/11 353/1902/11 
f 354/1903/29 339/1904/29 338/1905/29 
f 338/1906/29 345/1907/29 354/1908/29 
f 355/1909/116 356/1910/116 357/1911/116 
f 357/1912/116 358/1913/116 355/1914/116 
f 359/1915/8 360/1916/8 361/1917/8 
f 361/1918/8 362/1919/8 359/1920/8 
f 357/1921/29 336/1922/29 363/1923/29 
f 363/1924/29 356/1925/29 357/1926/29 
f 356/1927/8 363/1928/8 354/1929/8 
f 354/1930/8 355/1931/8 356/1932/8 
f 355/1933/52 358/1934/52 339/1935/52 
f 339/1936/52 354/1937/52 355/1938/52 
f 362/1939/2 361/1940/2 336/1941/2 
f 336/1942/2 339/1943/2 362/1944/2 
f 361/1945/29 336/1946/29 357/1947/29 
f 357/1948/29 360/1949/29 361/1950/29 
f 360/1951/116 359/1952/116 358/1953/116 
f 358/1954/116 357/1955/116 360/1956/116 
f 359/1957/52 362/1958/52 339/1959/52 
f 339/1960/52 358/1961/52 359/1962/52 
usemtl GD2
f 348/1963/2 347/1964/2 364/1965/2 
f 364/1966/27 343/1967/27 348/1968/27 
usemtl GD1
f 349/1969/2 353/1970/2 352/1971/2 
f 352/1972/2 351/1973/2 349/1974/2 
# 0 polygons - 658 triangles

