# 3ds Max Wavefront OBJ Exporter v0.97b - (c)2007 guruware
# File Created: 11.08.2011 00:03:21

mtllib Toom-Kooli_15_2-origo.mtl

#
# object Toom_Kooli_15_2
#

v  541875.425171 6588991.080383 45.284355
v  541859.639923 6588994.173729 47.834335
v  541875.476532 6588991.835983 47.834335
v  541860.677887 6589001.218513 47.834335
v  541875.425171 6588991.080406 47.834332
v  541875.476532 6588991.835983 45.284355
v  541874.496368 6588991.217499 45.257210
v  541870.089325 6588992.631149 47.834335
v  541870.089325 6588992.631149 45.130478
v  541869.979034 6588991.88427 47.834332
v  541872.179779 6588991.559479 47.322319
v  541874.671936 6588991.954704 47.834335
v  541872.245514 6588992.004654 47.322319
v  541874.562103 6588991.662666 45.257210
v  541873.633331 6588991.799782 45.230068
v  541873.633331 6588991.799782 46.966072
v  541872.245514 6588992.004646 45.189507
v  541870.225616 6588992.302826 45.130478
v  541874.562103 6588991.662666 46.975128
v  541874.496368 6588991.217499 46.975124
v  541873.567627 6588991.354607 46.966072
v  541873.567627 6588991.354607 45.230068
v  541870.159912 6588991.857651 47.319565
v  541872.179779 6588991.559479 45.189507
v  541870.225616 6588992.302826 47.319565
v  541870.159912 6588991.857651 45.130478
v  541874.620575 6588991.19915 47.834328
v  541874.671936 6588991.954704 45.284355
v  541860.609772 6589006.631123 47.834332
v  541860.609772 6589006.631123 45.114147
v  541859.837097 6589001.41571 44.891888
v  541859.824554 6589001.329971 47.834332
v  541860.677917 6589001.218513 44.945400
v  541859.639923 6588994.173721 44.945400
v  541858.680267 6588993.552277 47.834332
v  541858.680267 6588993.552277 44.794994
v  541869.979034 6588991.88427 47.448788
v  541872.296082 6588991.542313 47.489361
v  541872.155609 6588991.563049 47.601994
v  541871.995544 6588991.58667 47.663071
v  541871.931854 6588991.596069 47.691589
v  541871.579834 6588991.64798 47.834332
v  541870.083008 6588991.868965 47.538395
v  541870.18866 6588991.853371 47.608879
v  541870.323853 6588991.833405 47.685997
v  541870.418854 6588991.819374 47.736008
v  541870.482452 6588991.80999 47.756847
v  541870.558655 6588991.798729 47.791965
v  541870.763702 6588991.768448 47.834332
v  541855.597931 6589007.779488 49.300789
v  541861.160736 6589007.53838 49.308174
v  541855.597931 6589007.779488 44.964581
v  541855.307526 6589007.118649 49.182095
v  541861.415802 6589006.559101 49.175789
v  541855.307526 6589007.118668 44.966568
v  541861.122589 6589007.282967 49.308174
v  541861.122589 6589007.282967 44.971962
v  541861.160736 6589007.53838 44.971962
v  541861.603363 6589007.498604 49.308769
v  541861.603363 6589007.498604 44.972557
v  541861.201691 6589007.160736 48.971031
v  541861.304108 6589007.789986 48.979801
v  541875.409882 6588990.855217 47.834335
v  541858.422394 6588993.3629 47.834335
v  541859.601013 6589001.359161 47.834332
v  541873.530853 6588999.408867 48.048447
v  541859.467377 6589001.205986 48.073341
v  541871.8685 6589001.633202 50.167419
v  541871.959564 6589002.971657 51.612156
v  541873.524933 6588999.356377 48.084831
v  541876.373962 6589005.126823 49.058659
v  541867.590118 6589006.870419 48.214592
v  541859.468048 6589001.206215 48.013344
v  541876.475555 6589006.0868 47.960281
v  541860.311707 6589007.258377 48.092140
v  541859.504913 6589001.232834 48.079903
v  541873.524933 6588999.356377 47.691631
v  541873.735046 6589001.414558 50.186607
v  541864.077423 6589007.383808 51.685081
v  541868.009674 6589007.015259 47.961063
v  541873.735046 6589001.414558 45.739952
v  541873.525574 6588999.356606 48.024834
v  541860.204681 6589001.731224 48.547810
v  541875.443146 6588991.345589 48.547810
v  541873.735046 6589001.414558 47.691631
v  541876.475586 6589006.086807 44.972710
v  541868.009674 6589007.015266 44.971962
v  541876.37439 6589005.124481 44.972702
v  541867.590118 6589006.870419 44.971947
v  541864.077484 6589007.383827 44.971954
v  541861.304047 6589007.789997 44.971954
v  541861.240753 6589007.411423 44.963184
v  541872.131927 6589005.496582 49.157597
v  541871.8685 6589001.633186 44.783512
v  541871.959564 6589002.971657 44.783508
v  541872.131927 6589005.496582 44.972702
v  541875.443146 6588991.345589 45.284355
v  541861.565216 6589007.243191 49.308769
v  541863.539734 6589003.988289 51.612862
v  541859.031158 6588993.768318 48.547806
v  541870.682648 6588992.235359 47.559944
v  541870.409088 6588992.275749 47.442501
v  541870.616882 6588991.790184 47.559944
v  541870.914337 6588991.746269 47.625240
v  541871.424591 6588991.670952 47.625824
v  541871.72226 6588991.627022 47.561150
v  541871.169434 6588991.708626 47.651112
v  541871.996124 6588991.586594 47.444847
v  541871.490326 6588992.116127 47.625824
v  541871.787994 6588992.072189 47.561150
v  541871.235138 6588992.153801 47.651108
v  541870.980072 6588992.191452 47.625240
v  541870.343353 6588991.830574 47.442501
v  541872.061798 6588992.031769 47.444847
v  541860.488556 6589007.226151 47.863903
v  541860.360046 6589007.248005 48.082443
v  541860.311676 6589007.25362 48.032127
v  541873.524933 6588999.356377 45.739952
v  541869.99707 6588992.644844 47.834335
# 119 vertices

vn 0.989283 -0.146010 0.000000
vn 0.989283 -0.146010 0.000000
vn 0.989283 -0.146010 0.000000
vn 0.989283 -0.146010 0.000000
vn 0.989283 -0.146010 0.000000
vn 0.989283 -0.146010 0.000000
vn -0.989273 0.146077 0.000000
vn -0.989273 0.146077 0.000000
vn -0.989273 0.146077 0.000000
vn -0.989273 0.146079 -0.000001
vn -0.989273 0.146079 -0.000001
vn -0.989273 0.146079 -0.000001
vn 0.989283 -0.146010 0.000000
vn 0.989283 -0.146010 0.000000
vn 0.989283 -0.146010 0.000000
vn 0.989283 -0.146010 0.000000
vn 0.989283 -0.146010 0.000000
vn 0.989283 -0.146010 0.000000
vn 0.009539 -0.001408 -0.999954
vn 0.009539 -0.001408 -0.999954
vn 0.009539 -0.001408 -0.999954
vn 0.009543 -0.001401 -0.999954
vn 0.009543 -0.001401 -0.999954
vn 0.009543 -0.001401 -0.999954
vn -0.989273 0.146079 0.000000
vn -0.989273 0.146079 0.000000
vn -0.989273 0.146079 0.000000
vn -0.989273 0.146079 0.000000
vn -0.989273 0.146079 0.000000
vn -0.989273 0.146079 0.000000
vn -0.989203 0.146553 0.000000
vn -0.989203 0.146553 0.000000
vn -0.989203 0.146553 0.000000
vn -0.989207 0.146523 0.000053
vn -0.989207 0.146523 0.000053
vn -0.989207 0.146523 0.000053
vn -0.989350 0.145557 0.000024
vn -0.989350 0.145557 0.000024
vn -0.989350 0.145557 0.000024
vn -0.989351 0.145548 0.000000
vn -0.989351 0.145548 0.000000
vn -0.989351 0.145548 0.000000
vn 0.989319 -0.145764 0.000000
vn 0.989319 -0.145764 0.000000
vn 0.989319 -0.145764 0.000000
vn 0.989319 -0.145768 0.000010
vn 0.989319 -0.145768 0.000010
vn 0.989319 -0.145768 0.000010
vn -0.146001 -0.989284 0.000009
vn -0.146001 -0.989284 0.000009
vn -0.146001 -0.989284 0.000009
vn -0.146043 -0.989278 -0.000005
vn -0.146043 -0.989278 -0.000005
vn -0.146043 -0.989278 -0.000005
vn 0.145973 0.989289 0.000000
vn 0.145973 0.989289 0.000000
vn 0.145973 0.989289 0.000000
vn 0.145973 0.989289 0.000000
vn 0.145973 0.989289 0.000000
vn 0.145973 0.989289 0.000000
vn -0.146037 -0.989279 0.000000
vn -0.146037 -0.989279 0.000000
vn -0.146037 -0.989279 0.000000
vn -0.146044 -0.989278 0.000000
vn -0.146044 -0.989278 0.000000
vn -0.146044 -0.989278 0.000000
vn 0.146041 0.989279 -0.000003
vn 0.146041 0.989279 -0.000003
vn 0.146041 0.989279 -0.000003
vn 0.146040 0.989279 0.000000
vn 0.146040 0.989279 0.000000
vn 0.146040 0.989279 0.000000
vn 0.146029 0.989280 0.000000
vn 0.146029 0.989280 0.000000
vn 0.146029 0.989280 0.000000
vn 0.146029 0.989280 0.000000
vn 0.146029 0.989280 0.000000
vn 0.146029 0.989280 0.000000
vn -0.146036 -0.989279 0.000000
vn -0.146036 -0.989279 0.000000
vn -0.146036 -0.989279 0.000000
vn -0.146036 -0.989279 0.000000
vn -0.146036 -0.989279 0.000000
vn -0.146036 -0.989279 0.000000
vn -0.145597 -0.989344 0.000000
vn -0.145597 -0.989344 0.000000
vn -0.145597 -0.989344 0.000000
vn -0.146141 -0.989264 0.000000
vn -0.146141 -0.989264 0.000000
vn -0.146141 -0.989264 0.000000
vn -0.146041 -0.989278 -0.000019
vn -0.146041 -0.989278 -0.000019
vn -0.146041 -0.989278 -0.000019
vn -0.146045 -0.989278 -0.000014
vn -0.146045 -0.989278 -0.000014
vn -0.146045 -0.989278 -0.000014
vn -0.145628 -0.989339 0.000000
vn -0.145628 -0.989339 0.000000
vn -0.145628 -0.989339 0.000000
vn -0.146049 -0.989277 0.000023
vn -0.146049 -0.989277 0.000023
vn -0.146049 -0.989277 0.000023
vn -0.146045 -0.989278 -0.000008
vn -0.146045 -0.989278 -0.000008
vn -0.146045 -0.989278 -0.000008
vn -0.146034 -0.989280 -0.000123
vn -0.146034 -0.989280 -0.000123
vn -0.146034 -0.989280 -0.000123
vn -0.146037 -0.989279 -0.000086
vn -0.146037 -0.989279 -0.000086
vn -0.146037 -0.989279 -0.000086
vn -0.146023 -0.989281 -0.000344
vn -0.146023 -0.989281 -0.000344
vn -0.146023 -0.989281 -0.000344
vn -0.146006 -0.989284 -0.000171
vn -0.146006 -0.989284 -0.000171
vn -0.146006 -0.989284 -0.000171
vn -0.145946 -0.989293 -0.000114
vn -0.145946 -0.989293 -0.000114
vn -0.145946 -0.989293 -0.000114
vn -0.145971 -0.989289 -0.000004
vn -0.145971 -0.989289 -0.000004
vn -0.145971 -0.989289 -0.000004
vn -0.146010 -0.989283 -0.000180
vn -0.146010 -0.989283 -0.000180
vn -0.146010 -0.989283 -0.000180
vn -0.146024 -0.989281 -0.000345
vn -0.146024 -0.989281 -0.000345
vn -0.146024 -0.989281 -0.000345
vn -0.146025 -0.989281 -0.000364
vn -0.146025 -0.989281 -0.000364
vn -0.146025 -0.989281 -0.000364
vn -0.146046 -0.989278 -0.000036
vn -0.146046 -0.989278 -0.000036
vn -0.146046 -0.989278 -0.000036
vn 0.089513 0.995986 0.000000
vn 0.089513 0.995986 0.000000
vn 0.089513 0.995986 0.000000
vn 0.089513 0.995986 0.000000
vn 0.089513 0.995986 0.000000
vn 0.089513 0.995986 0.000000
vn -0.091221 -0.995830 0.001346
vn -0.091221 -0.995830 0.001346
vn -0.091221 -0.995830 0.001346
vn -0.091562 -0.995799 -0.000005
vn -0.091562 -0.995799 -0.000005
vn -0.091562 -0.995799 -0.000005
vn -0.091564 -0.995799 0.000000
vn -0.091564 -0.995799 0.000000
vn -0.091564 -0.995799 0.000000
vn 0.089502 0.995987 0.000000
vn 0.089502 0.995987 0.000000
vn 0.089502 0.995987 0.000000
vn 0.089502 0.995987 0.000000
vn 0.089502 0.995987 0.000000
vn 0.089502 0.995987 0.000000
vn -0.989030 0.147716 0.000000
vn -0.989030 0.147716 0.000000
vn -0.989030 0.147716 0.000000
vn -0.989030 0.147716 0.000000
vn -0.989030 0.147716 0.000000
vn -0.989030 0.147716 0.000000
vn 0.054242 0.406585 -0.912001
vn 0.054242 0.406585 -0.912001
vn 0.054242 0.406585 -0.912001
vn -0.125619 -0.824357 -0.551957
vn -0.125619 -0.824357 -0.551957
vn -0.125619 -0.824357 -0.551957
vn -0.127244 -0.981004 0.146424
vn -0.127244 -0.981004 0.146424
vn -0.127244 -0.981004 0.146424
vn -0.130444 -0.991442 -0.005242
vn -0.130444 -0.991442 -0.005242
vn -0.130444 -0.991442 -0.005242
vn -0.130444 -0.991442 -0.005176
vn -0.130444 -0.991442 -0.005176
vn -0.130444 -0.991442 -0.005176
vn 0.994829 -0.101559 0.000000
vn 0.994829 -0.101559 0.000000
vn 0.994829 -0.101559 0.000000
vn 0.994412 -0.105075 0.010221
vn 0.994412 -0.105075 0.010221
vn 0.994412 -0.105075 0.010221
vn 0.995007 -0.097525 0.021210
vn 0.995007 -0.097525 0.021210
vn 0.995007 -0.097525 0.021210
vn 0.994828 -0.101559 -0.001566
vn 0.994828 -0.101559 -0.001566
vn 0.994828 -0.101559 -0.001566
vn 0.109017 0.994040 0.000003
vn 0.109017 0.994040 0.000003
vn 0.109017 0.994040 0.000003
vn 0.109017 0.994040 0.000004
vn 0.109017 0.994040 0.000004
vn 0.109017 0.994040 0.000004
vn 0.994516 -0.104581 0.000010
vn 0.994516 -0.104581 0.000010
vn 0.994516 -0.104581 0.000010
vn 0.994466 -0.105055 0.000164
vn 0.994466 -0.105055 0.000164
vn 0.994466 -0.105055 0.000164
vn 0.144624 0.989487 0.000004
vn 0.144624 0.989487 0.000004
vn 0.144624 0.989487 0.000004
vn 0.144616 0.989488 0.000000
vn 0.144616 0.989488 0.000000
vn 0.144616 0.989488 0.000000
vn -0.326340 0.945253 0.000000
vn -0.326340 0.945253 0.000000
vn -0.326340 0.945253 0.000000
vn -0.326323 0.945258 0.000002
vn -0.326323 0.945258 0.000002
vn -0.326323 0.945258 0.000002
vn -0.986313 0.164884 0.000700
vn -0.986313 0.164884 0.000700
vn -0.986313 0.164884 0.000700
vn -0.987012 0.160646 0.000015
vn -0.987012 0.160646 0.000015
vn -0.987012 0.160646 0.000015
vn 0.144904 0.989446 0.000001
vn 0.144904 0.989446 0.000001
vn 0.144904 0.989446 0.000001
vn 0.144909 0.989445 0.000004
vn 0.144909 0.989445 0.000004
vn 0.144909 0.989445 0.000004
vn -0.915501 0.402316 0.000002
vn -0.915501 0.402316 0.000002
vn -0.915501 0.402316 0.000002
vn -0.915497 0.402326 0.000000
vn -0.915497 0.402326 0.000000
vn -0.915497 0.402326 0.000000
vn 0.116336 0.993210 -0.000003
vn 0.116336 0.993210 -0.000003
vn 0.116336 0.993210 -0.000003
vn 0.116342 0.993209 0.000000
vn 0.116342 0.993209 0.000000
vn 0.116342 0.993209 0.000000
vn 0.997694 -0.067879 0.000000
vn 0.997694 -0.067879 0.000000
vn 0.997694 -0.067879 0.000000
vn 0.997693 -0.067880 0.000000
vn 0.997693 -0.067880 0.000000
vn 0.997693 -0.067880 0.000000
vn -0.087373 -0.996175 0.000562
vn -0.087373 -0.996175 0.000562
vn -0.087373 -0.996175 0.000562
vn -0.086836 -0.996223 0.000000
vn -0.086836 -0.996223 0.000000
vn -0.086836 -0.996223 0.000000
vn 0.997678 -0.068106 0.000000
vn 0.997678 -0.068106 0.000000
vn 0.997678 -0.068106 0.000000
vn 0.997678 -0.068106 0.000000
vn 0.997678 -0.068106 0.000000
vn 0.997678 -0.068106 0.000000
vn 0.997691 -0.067923 0.000000
vn 0.997691 -0.067923 0.000000
vn 0.997691 -0.067923 0.000000
vn 0.997691 -0.067923 0.000000
vn 0.997691 -0.067923 0.000000
vn 0.997691 -0.067923 0.000000
vn 0.997711 -0.067622 0.000000
vn 0.997711 -0.067622 0.000000
vn 0.997711 -0.067622 0.000000
vn 0.997710 -0.067629 0.000001
vn 0.997710 -0.067629 0.000001
vn 0.997710 -0.067629 0.000001
vn -0.014605 -0.170542 0.985242
vn -0.014605 -0.170542 0.985242
vn -0.014605 -0.170542 0.985242
vn -0.018117 -0.186969 0.982199
vn -0.018117 -0.186969 0.982199
vn -0.018117 -0.186969 0.982199
vn -0.018122 -0.186972 0.982198
vn -0.018122 -0.186972 0.982198
vn -0.018122 -0.186972 0.982198
vn -0.687187 0.093495 0.720440
vn -0.687187 0.093495 0.720440
vn -0.687187 0.093495 0.720440
vn -0.001327 0.000198 0.999999
vn -0.001327 0.000198 0.999999
vn -0.001327 0.000198 0.999999
vn -0.001327 0.000198 0.999999
vn -0.001327 0.000198 0.999999
vn -0.001327 0.000198 0.999999
vn -0.090034 -0.707062 0.701397
vn -0.090034 -0.707062 0.701397
vn -0.090034 -0.707062 0.701397
vn 0.688138 -0.124173 0.714876
vn 0.688138 -0.124173 0.714876
vn 0.688138 -0.124173 0.714876
vn -0.688280 0.091981 0.719590
vn -0.688280 0.091981 0.719590
vn -0.688280 0.091981 0.719590
vn -0.694230 0.094631 0.713505
vn -0.694230 0.094631 0.713505
vn -0.694230 0.094631 0.713505
vn -0.088239 -0.731273 0.676353
vn -0.088239 -0.731273 0.676353
vn -0.088239 -0.731273 0.676353
vn -0.089738 -0.727788 0.679905
vn -0.089738 -0.727788 0.679905
vn -0.089738 -0.727788 0.679905
vn -0.093758 -0.708238 0.699721
vn -0.093758 -0.708238 0.699721
vn -0.093758 -0.708238 0.699721
vn -0.120383 -0.815496 0.566104
vn -0.120383 -0.815496 0.566104
vn -0.120383 -0.815496 0.566104
vn -0.120383 -0.815494 0.566108
vn -0.120383 -0.815494 0.566108
vn -0.120383 -0.815494 0.566108
vn -0.787169 0.116008 0.605728
vn -0.787169 0.116008 0.605728
vn -0.787169 0.116008 0.605728
vn -0.787270 0.116041 0.605591
vn -0.787270 0.116041 0.605591
vn -0.787270 0.116041 0.605591
vn 0.787315 -0.116001 0.605540
vn 0.787315 -0.116001 0.605540
vn 0.787315 -0.116001 0.605540
vn 0.787169 -0.116008 0.605729
vn 0.787169 -0.116008 0.605729
vn 0.787169 -0.116008 0.605729
vn 0.120383 0.815498 0.566102
vn 0.120383 0.815498 0.566102
vn 0.120383 0.815498 0.566102
vn 0.120377 0.815474 0.566138
vn 0.120377 0.815474 0.566138
vn 0.120377 0.815474 0.566138
vn -0.686967 0.101783 0.719525
vn -0.686967 0.101783 0.719525
vn -0.686967 0.101783 0.719525
vn 0.081666 0.744090 0.663069
vn 0.081666 0.744090 0.663069
vn 0.081666 0.744090 0.663069
vn 0.080493 0.746808 0.660151
vn 0.080493 0.746808 0.660151
vn 0.080493 0.746808 0.660151
vn 0.106371 0.777286 0.620091
vn 0.106371 0.777286 0.620091
vn 0.106371 0.777286 0.620091
vn 0.083574 0.691667 0.717364
vn 0.083574 0.691667 0.717364
vn 0.083574 0.691667 0.717364
vn 0.072576 0.716299 0.694008
vn 0.072576 0.716299 0.694008
vn 0.072576 0.716299 0.694008
vn 0.546590 -0.080672 -0.833506
vn 0.546590 -0.080672 -0.833506
vn 0.546590 -0.080672 -0.833506
vn 0.546646 -0.080718 -0.833464
vn 0.546646 -0.080718 -0.833464
vn 0.546646 -0.080718 -0.833464
vn -0.146047 -0.989278 0.000203
vn -0.146047 -0.989278 0.000203
vn -0.146047 -0.989278 0.000203
vn -0.146028 -0.989280 -0.000136
vn -0.146028 -0.989280 -0.000136
vn -0.146028 -0.989280 -0.000136
vn -0.146041 -0.989279 -0.000006
vn -0.146041 -0.989279 -0.000006
vn -0.146041 -0.989279 -0.000006
vn -0.146044 -0.989278 0.000019
vn -0.146044 -0.989278 0.000019
vn -0.146044 -0.989278 0.000019
vn -0.145933 -0.989294 -0.000134
vn -0.145933 -0.989294 -0.000134
vn -0.145933 -0.989294 -0.000134
vn -0.145997 -0.989285 -0.000195
vn -0.145997 -0.989285 -0.000195
vn -0.145997 -0.989285 -0.000195
vn -0.146004 -0.989284 -0.000191
vn -0.146004 -0.989284 -0.000191
vn -0.146004 -0.989284 -0.000191
vn -0.145978 -0.989288 -0.000070
vn -0.145978 -0.989288 -0.000070
vn -0.145978 -0.989288 -0.000070
vn 0.209940 -0.030999 -0.977223
vn 0.209940 -0.030999 -0.977223
vn 0.209940 -0.030999 -0.977223
vn 0.209958 -0.031017 -0.977218
vn 0.209958 -0.031017 -0.977218
vn 0.209958 -0.031017 -0.977218
vn -0.146027 -0.989281 -0.000362
vn -0.146027 -0.989281 -0.000362
vn -0.146027 -0.989281 -0.000362
vn -0.146039 -0.989279 0.000004
vn -0.146039 -0.989279 0.000004
vn -0.146039 -0.989279 0.000004
vn -0.146019 -0.989282 -0.000015
vn -0.146019 -0.989282 -0.000015
vn -0.146019 -0.989282 -0.000015
vn -0.146042 -0.989278 0.000003
vn -0.146042 -0.989278 0.000003
vn -0.146042 -0.989278 0.000003
vn -0.146025 -0.989281 -0.000007
vn -0.146025 -0.989281 -0.000007
vn -0.146025 -0.989281 -0.000007
vn -0.146049 -0.989277 0.000005
vn -0.146049 -0.989277 0.000005
vn -0.146049 -0.989277 0.000005
vn -0.146030 -0.989280 -0.000003
vn -0.146030 -0.989280 -0.000003
vn -0.146030 -0.989280 -0.000003
vn -0.146042 -0.989278 0.000001
vn -0.146042 -0.989278 0.000001
vn -0.146042 -0.989278 0.000001
vn -0.146065 -0.989275 0.000005
vn -0.146065 -0.989275 0.000005
vn -0.146065 -0.989275 0.000005
vn -0.145998 -0.989285 0.000000
vn -0.145998 -0.989285 0.000000
vn -0.145998 -0.989285 0.000000
vn -0.146048 -0.989278 0.000000
vn -0.146048 -0.989278 0.000000
vn -0.146048 -0.989278 0.000000
vn -0.146048 -0.989277 0.000000
vn -0.146048 -0.989277 0.000000
vn -0.146048 -0.989277 0.000000
vn 0.386753 -0.057135 -0.920412
vn 0.386753 -0.057135 -0.920412
vn 0.386753 -0.057135 -0.920412
vn 0.386722 -0.057104 -0.920427
vn 0.386722 -0.057104 -0.920427
vn 0.386722 -0.057104 -0.920427
vn -0.096505 0.014235 -0.995231
vn -0.096505 0.014235 -0.995231
vn -0.096505 0.014235 -0.995231
vn -0.096529 0.014253 -0.995228
vn -0.096529 0.014253 -0.995228
vn -0.096529 0.014253 -0.995228
vn -0.544940 0.080466 -0.834605
vn -0.544940 0.080466 -0.834605
vn -0.544940 0.080466 -0.834605
vn -0.544827 0.080375 -0.834688
vn -0.544827 0.080375 -0.834688
vn -0.544827 0.080375 -0.834688
vn -0.207887 0.030697 -0.977671
vn -0.207887 0.030697 -0.977671
vn -0.207887 0.030697 -0.977671
vn -0.207888 0.030697 -0.977671
vn -0.207888 0.030697 -0.977671
vn -0.207888 0.030697 -0.977671
vn -0.383243 0.056591 -0.921912
vn -0.383243 0.056591 -0.921912
vn -0.383243 0.056591 -0.921912
vn -0.383178 0.056528 -0.921943
vn -0.383178 0.056528 -0.921943
vn -0.383178 0.056528 -0.921943
vn 0.098759 -0.014585 -0.995004
vn 0.098759 -0.014585 -0.995004
vn 0.098759 -0.014585 -0.995004
vn 0.098756 -0.014582 -0.995005
vn 0.098756 -0.014582 -0.995005
vn 0.098756 -0.014582 -0.995005
vn 0.994829 -0.101559 0.000000
vn 0.994829 -0.101559 0.000000
vn 0.994829 -0.101559 0.000000
vn 0.994829 -0.101559 0.000000
vn 0.994829 -0.101559 0.000000
vn 0.994829 -0.101559 0.000000
vn -0.944298 0.134371 -0.300410
vn -0.944298 0.134371 -0.300410
vn -0.944298 0.134371 -0.300410
vn -0.848803 0.130987 -0.512226
vn -0.848803 0.130987 -0.512226
vn -0.848803 0.130987 -0.512226
vn 0.888149 -0.122523 -0.442922
vn 0.888149 -0.122523 -0.442922
vn 0.888149 -0.122523 -0.442922
vn 0.711582 -0.100867 -0.695325
vn 0.711582 -0.100867 -0.695325
vn 0.711582 -0.100867 -0.695325
vn 0.115887 0.898451 -0.423505
vn 0.115887 0.898451 -0.423505
vn 0.115887 0.898451 -0.423505
vn -0.124779 0.023876 -0.991897
vn -0.124779 0.023876 -0.991897
vn -0.124779 0.023876 -0.991897
vn 0.000000 0.000000 -1.000000
vn 0.000000 0.000000 -1.000000
vn 0.000000 0.000000 -1.000000
vn -0.112936 -0.864880 -0.489110
vn -0.112936 -0.864880 -0.489110
vn -0.112936 -0.864880 -0.489110
vn -0.112962 -0.864862 -0.489136
vn -0.112962 -0.864862 -0.489136
vn -0.112962 -0.864862 -0.489136
vn -0.990350 0.138190 -0.010555
vn -0.990350 0.138190 -0.010555
vn -0.990350 0.138190 -0.010555
vn -0.990351 0.138189 -0.010450
vn -0.990351 0.138189 -0.010450
vn -0.990351 0.138189 -0.010450
vn -0.000016 0.000002 -1.000000
vn -0.000016 0.000002 -1.000000
vn -0.000016 0.000002 -1.000000
vn 0.000000 0.000000 -1.000000
vn 0.000000 0.000000 -1.000000
vn 0.000000 0.000000 -1.000000
vn -0.000002 -0.000017 -1.000000
vn -0.000002 -0.000017 -1.000000
vn -0.000002 -0.000017 -1.000000
vn -0.000002 -0.000017 -1.000000
vn -0.000002 -0.000017 -1.000000
vn -0.000002 -0.000017 -1.000000
vn 0.109719 0.840240 -0.530998
vn 0.109719 0.840240 -0.530998
vn 0.109719 0.840240 -0.530998
vn -0.143448 -0.989658 -0.000002
vn -0.143448 -0.989658 -0.000002
vn -0.143448 -0.989658 -0.000002
vn -0.143448 -0.989658 0.000000
vn -0.143448 -0.989658 0.000000
vn -0.143448 -0.989658 0.000000
vn 0.997703 -0.067739 0.000042
vn 0.997703 -0.067739 0.000042
vn 0.997703 -0.067739 0.000042
vn 0.120378 0.815475 0.566136
vn 0.120378 0.815475 0.566136
vn 0.120378 0.815475 0.566136
vn -0.146040 -0.989279 -0.000002
vn -0.146040 -0.989279 -0.000002
vn -0.146040 -0.989279 -0.000002
vn -0.146027 -0.989281 -0.000104
vn -0.146027 -0.989281 -0.000104
vn -0.146027 -0.989281 -0.000104
vn -0.146042 -0.989278 -0.000099
vn -0.146042 -0.989278 -0.000099
vn -0.146042 -0.989278 -0.000099
vn -0.146026 -0.989281 -0.000351
vn -0.146026 -0.989281 -0.000351
vn -0.146026 -0.989281 -0.000351
vn -0.145611 -0.989342 -0.000020
vn -0.145611 -0.989342 -0.000020
vn -0.145611 -0.989342 -0.000020
vn -0.145933 -0.989294 -0.000135
vn -0.145933 -0.989294 -0.000135
vn -0.145933 -0.989294 -0.000135
vn -0.145996 -0.989285 -0.000189
vn -0.145996 -0.989285 -0.000189
vn -0.145996 -0.989285 -0.000189
vn -0.146006 -0.989284 -0.000213
vn -0.146006 -0.989284 -0.000213
vn -0.146006 -0.989284 -0.000213
vn -0.145971 -0.989289 -0.000006
vn -0.145971 -0.989289 -0.000006
vn -0.145971 -0.989289 -0.000006
vn -0.146027 -0.989280 -0.000384
vn -0.146027 -0.989280 -0.000384
vn -0.146027 -0.989280 -0.000384
vn -0.146026 -0.989281 -0.000333
vn -0.146026 -0.989281 -0.000333
vn -0.146026 -0.989281 -0.000333
# 555 vertex normals

vt 2.586693 0.244972 -1.443842
vt 2.359619 0.876156 -0.670506
vt -1.599533 0.876156 -1.254942
vt 1.090691 0.876156 -1.100128
vt 2.586693 0.876155 -1.443836
vt -1.599533 0.244972 -1.254942
vt 2.354492 0.238254 -1.409563
vt -0.252731 0.876156 -1.056150
vt -0.252731 0.206884 -1.056150
vt 1.225159 0.876155 -1.242870
vt 1.775345 0.749419 -1.324068
vt -1.398384 0.876156 -1.225262
vt 2.212774 0.749419 1.791779
vt 2.298271 0.238254 2.370926
vt -1.263992 0.231535 2.138733
vt -1.138733 -1.263992 0.661239
vt 2.212776 0.221495 1.791779
vt -1.138231 0.206884 1.286804
vt 2.298271 0.663481 2.370926
vt 2.354492 0.663480 -1.409563
vt 2.122307 0.661239 -1.375286
vt 2.122307 0.231535 -1.375286
vt 1.270378 0.748737 -1.249525
vt 1.775345 0.221495 -1.324068
vt -1.138231 0.748737 1.286804
vt 1.270378 0.206884 -1.249525
vt 2.385544 0.876154 -1.414150
vt -1.398384 0.244972 -1.225262
vt -1.443844 0.876155 -1.117149
vt -1.443844 0.202842 -1.117149
vt -0.139990 0.147827 -1.310326
vt -0.118555 0.876155 -1.313461
vt 1.090691 0.161073 -1.100121
vt 2.359619 0.161073 -0.670507
vt -1.599533 0.876155 -0.825869
vt -1.599533 0.123843 -0.825869
vt 1.225159 0.780723 -1.242870
vt 1.804420 0.790766 -1.328360
vt 1.769302 0.818645 -1.323175
vt 1.729286 0.833763 -1.317270
vt 1.713364 0.840822 -1.314920
vt 1.625359 0.876155 -1.301943
vt 1.251152 0.802903 -1.246696
vt 1.277565 0.820350 -1.250595
vt 1.311363 0.839438 -1.255587
vt 1.335114 0.851817 -1.259094
vt 1.351013 0.856976 -1.261440
vt 1.370064 0.865668 -1.264256
vt 1.421326 0.876155 -1.271826
vt -1.375286 0.661239 2.122307
vt -1.375286 0.231535 2.122307
vt -1.263992 0.231535 2.138733
vt -1.263992 0.661239 2.138733
vt -1.375286 0.661239 2.122307
vt 2.324068 0.221495 1.775345
vt 2.324068 0.749419 1.775345
vt 2.212774 0.749419 1.791779
vt 2.324068 0.221495 1.775345
vt -1.249525 0.748737 1.270378
vt -1.249525 0.206884 1.270378
vt -1.138231 0.206884 1.286804
vt -1.249525 0.748737 1.270378
vt -1.354492 -1.409563 0.663480
vt -1.122307 -1.375286 0.661239
vt -1.138733 -1.263992 0.661239
vt -1.370926 -1.298271 0.663481
vt -1.354492 -1.409563 0.663480
vt 2.409563 0.238254 2.354492
vt 2.409563 0.663480 2.354492
vt 2.298271 0.663481 2.370926
vt 2.409563 0.238254 2.354492
vt -1.443844 0.876155 -1.117149
vt -0.139990 0.147827 -1.310326
vt -0.139990 0.147827 -1.310326
vt -0.118555 0.876155 -1.313461
vt 1.825869 0.876155 -1.599533
vt -0.139990 0.147827 -1.310326
vt 1.825869 0.123843 -1.599533
vt 1.825869 0.876155 -1.599533
vt 1.090691 0.876156 -1.100128
vt -0.670506 0.876156 -1.359619
vt -0.670507 0.161073 -1.359619
vt -0.670507 0.161073 -1.359619
vt 2.586693 0.244972 -1.443842
vt 2.385544 0.876154 -1.414150
vt 2.385544 0.876154 -1.414150
vt 2.354492 0.238254 -1.409563
vt -1.599533 0.876156 -1.254942
vt -1.398384 0.244972 -1.225262
vt -1.398384 0.244972 -1.225262
vt -1.398384 0.876156 -1.225262
vt -1.599533 0.876155 -0.825869
vt 1.270378 0.206884 -1.249525
vt 1.225159 0.780723 -1.242870
vt 1.225159 0.876155 -1.242870
vt -1.599533 0.876155 -0.825869
vt 2.359619 0.161073 -0.670507
vt -0.252731 0.876156 -1.056150
vt -0.252731 0.876156 -1.056150
vt -0.252731 0.206884 -1.056150
vt -0.252731 0.876156 -1.056150
vt -1.398384 0.244972 -1.225262
vt 1.775345 0.221495 -1.324068
vt 2.122307 0.661239 -1.375286
vt 2.122307 0.661239 -1.375286
vt 1.775345 0.749419 -1.324068
vt 1.225159 0.780723 -1.242870
vt 1.270378 0.206884 -1.249525
vt 2.385544 0.876154 -1.414150
vt 2.354492 0.663480 -1.409563
vt 1.775345 0.749419 -1.324068
vt 2.122307 0.661239 -1.375286
vt 2.385544 0.876154 -1.414150
vt 2.385544 0.876154 -1.414150
vt 1.251152 0.802903 -1.246696
vt 1.225159 0.876155 -1.242870
vt 1.225159 0.780723 -1.242870
vt 2.385544 0.876154 -1.414150
vt 1.804420 0.790766 -1.328360
vt 2.385544 0.876154 -1.414150
vt 1.769302 0.818645 -1.323175
vt 2.385544 0.876154 -1.414150
vt 1.729286 0.833763 -1.317270
vt 2.385544 0.876154 -1.414150
vt 1.713364 0.840822 -1.314920
vt 1.225159 0.876155 -1.242870
vt 1.277565 0.820350 -1.250595
vt 1.311363 0.839438 -1.255587
vt 1.225159 0.876155 -1.242870
vt 1.351013 0.856976 -1.261440
vt 1.225159 0.876155 -1.242870
vt 1.335114 0.851817 -1.259094
vt 1.225159 0.876155 -1.242870
vt 1.225159 0.876155 -1.242870
vt 1.370064 0.865668 -1.264256
vt 1.214378 0.997665 0.652549
vt 0.407729 0.999364 1.176323
vt 1.214378 0.000500 0.652549
vt -0.286980 0.970370 0.487339
vt 1.240089 0.968921 0.347451
vt 1.038582 0.660436 0.365458
vt -0.286980 0.000957 0.487344
vt 1.038582 0.034894 0.365458
vt 0.471582 0.999364 1.166786
vt 0.471582 0.002196 1.166786
vt 0.407729 0.002196 1.176323
vt -0.286980 0.999501 0.582327
vt -0.286980 0.002334 0.582327
vt 1.214378 0.997665 0.652549
vt -0.166786 0.999364 0.528418
vt -0.166786 0.002196 0.528418
vt -0.166786 0.002196 0.528418
vt -0.286980 0.970370 0.487339
vt 1.038582 0.660436 0.365458
vt -0.286980 0.000957 0.487344
vt 1.038582 0.660436 0.365458
vt -0.286980 0.999501 0.582327
vt -0.176323 0.002196 0.592271
vt -0.176323 0.002196 0.592271
vt -0.176323 0.999364 0.592271
vt 0.471582 0.002196 1.166786
vt 0.407729 0.999364 1.176323
vt 0.014045 0.525969 0.000000
vt 0.014045 0.213165 0.000000
vt 0.475952 0.765105 0.000000
vt 0.479913 0.689122 0.000000
vt 0.551060 0.692256 0.000000
vt 0.554993 0.565457 0.000000
vt 0.554903 0.568438 0.000000
vt 0.016965 0.540159 0.000000
vt 0.554903 0.568438 0.000000
vt 0.554972 0.565439 0.000000
vt 0.017036 0.543769 0.000000
vt 0.554993 0.565457 0.000000
vt 0.016965 0.540159 0.000000
vt 0.021737 0.566803 0.000000
vt 0.554624 0.581091 0.000000
vt 0.479913 0.689122 0.000000
vt 0.989025 0.161589 0.000000
vt 0.990228 0.195004 0.000000
vt 0.967844 0.984471 0.000000
vt 0.901080 0.880863 0.000000
vt 0.901045 0.879170 0.000000
vt 0.967844 0.862567 0.000000
vt 0.901098 0.878071 0.000000
vt 0.901080 0.862567 0.000000
vt 0.065068 0.546708 0.000000
vt 0.050041 0.911948 0.000000
vt 0.154278 0.936144 0.000000
vt 0.544573 0.912203 0.000000
vt 0.286416 0.935676 0.000000
vt 0.305610 0.960005 0.000000
vt 0.542792 0.972544 0.000000
vt 0.286416 0.935676 0.000000
vt 0.154278 0.936144 0.000000
vt 0.305610 0.960005 0.000000
vt 0.049930 0.936505 0.000000
vt 0.542792 0.972544 0.000000
vt 0.305610 0.960005 0.000000
vt 0.544573 0.912203 0.000000
vt 0.286416 0.935676 0.000000
vt 0.154278 0.936144 0.000000
vt 0.305610 0.960005 0.000000
vt 0.286416 0.935676 0.000000
vt 0.049930 0.936505 0.000000
vt 0.050041 0.911948 0.000000
vt 0.154278 0.936144 0.000000
vt 0.014045 0.213165 0.000000
vt 0.014045 0.525969 0.000000
vt 0.618119 0.916261 0.000000
vt 0.468746 0.903161 0.000000
vt 0.475952 0.765105 0.000000
vt 0.468746 0.903161 0.000000
vt 0.990228 0.195004 0.000000
vt 0.990879 0.152194 0.000000
vt 0.551060 0.692256 0.000000
vt 0.479913 0.689122 0.000000
vt 0.479913 0.689122 0.000000
vt 0.475952 0.765105 0.000000
vt 0.468746 0.903161 0.000000
vt 0.618119 0.916261 0.000000
vt 0.475952 0.765105 0.000000
vt 0.468746 0.903161 0.000000
vt 0.990228 0.195004 0.000000
vt 0.989025 0.161589 0.000000
vt 0.990879 0.152194 0.000000
vt 0.990228 0.195004 0.000000
vt -5.153214 4.022903 0.380943
vt -2.160049 4.145210 0.383014
vt -2.379761 4.265236 0.382859
vt -5.254196 3.676403 0.350150
vt -2.189606 3.796349 0.348515
vt -4.333284 -0.623374 0.295394
vt -4.651899 -0.613547 0.297669
vt -2.382050 4.136135 0.382859
vt -2.157730 4.274311 0.383014
vt -2.264328 -2.459209 0.000501
vt 5.769516 -3.078533 0.000501
vt -2.815170 -2.940388 0.000501
vt -0.969421 2.660034 0.980764
vt -1.353026 -1.039527 0.000500
vt -2.807312 1.015797 0.062507
vt 3.312759 2.034286 0.605773
vt 3.270844 2.703751 0.980581
vt 4.282043 1.013302 0.065487
vt -0.969421 3.142551 0.318128
vt 3.498597 2.849556 0.099151
vt -0.957336 2.660034 0.033175
vt -4.323797 -1.070929 0.067384
vt 4.252319 2.047310 0.610751
vt -4.630942 0.787759 0.999500
vt 3.300019 2.750458 0.033378
vt -2.539749 -2.699802 0.185596
vt -1.576746 -0.764457 0.185597
vt 5.738724 -2.587994 0.000501
vt 2.223809 -0.828237 0.000501
vt 5.754089 -2.833271 0.185597
vt 1.157624 3.235187 0.343795
vt -1.336154 -0.771917 0.000501
vt 2.687787 -1.103659 0.000501
vt -2.912634 0.742090 0.980764
vt -1.268397 -1.095801 0.062507
vt -2.938651 0.742090 0.099151
vt 2.447202 -0.828238 0.185596
vt 2.447202 -0.560278 0.185597
vt -1.576747 -0.496496 0.185596
vt -2.912634 2.516901 0.999500
vt -4.630942 2.562570 0.980764
vt 5.319077 4.541847 0.980764
vt 1.078812 4.498131 0.980581
vt 0.135315 0.916909 0.404022
vt 0.075890 0.878550 0.404007
vt 0.135300 0.916909 0.999451
vt 0.474815 0.839296 0.999420
vt 0.199921 0.938236 0.999451
vt 0.310760 0.938427 0.999435
vt 0.375420 0.917303 0.999420
vt 0.255325 0.946686 0.999420
vt 0.434914 0.879316 0.999420
vt 0.474823 0.839296 0.404007
vt 0.310760 0.938427 0.404022
vt 0.978065 0.164791 0.404022
vt 0.776306 0.155926 0.404022
vt 0.776306 0.722939 0.404022
vt 0.375427 0.917303 0.404022
vt 0.255325 0.946685 0.404022
vt 0.474823 0.142678 0.404022
vt 0.036026 0.123398 0.404022
vt 0.978065 0.725897 0.404022
vt 0.199921 0.938236 0.404022
vt 0.075882 0.878550 0.999420
vt 0.434906 0.879316 0.404022
vt 0.036026 0.838396 0.999420
vt 0.036026 0.838396 0.404022
vt 6.822968 8.074326 1.587727
vt -7.701584 1.587730 8.977112
vt 9.010376 -5.193901 1.587730
vt 7.608215 1.587727 2.773170
vt 7.831757 1.587727 2.802361
vt -6.098083 1.801842 0.852066
vt -1.649185 1.826736 -6.965393
vt 6.944183 8.669353 1.617298
vt 8.691208 1.835838 -6.072693
vt -1.649414 1.766739 -6.964722
vt -7.696823 1.785522 -6.121063
vt -7.701580 1.845535 -6.121033
vt -6.927856 1.833298 2.676033
vt 7.092163 1.445026 0.799576
vt -5.754852 -1.301205 2.661713
vt 2.857758 -0.506653 7.302277
vt 7.092163 -0.506653 0.799576
vt 7.228088 2.301205 3.174423
vt 8.752502 -5.004532 1.587727
vt -5.754852 1.587730 2.661713
vt -7.211212 2.301205 9.010376
vt -7.476402 1.587723 8.992401
vt 2.857758 1.445026 7.302277
vt 2.857758 1.445026 7.302277
vt 0.799576 1.445026 7.092163
vt 0.799576 -0.506653 7.092163
vt 0.799576 -0.506653 7.092163
vt -1.802361 1.587727 -6.831757
vt -1.676033 1.833298 -6.927856
vt -7.691208 1.835838 -6.072693
vt -7.691208 1.835838 -6.072693
vt -7.669353 1.617298 -5.944183
vt -1.802361 1.587727 -6.831757
vt 2.676033 1.833298 -6.927856
vt 2.649414 1.766739 -6.964722
vt 8.696823 1.785522 -6.121063
vt 8.696823 1.785522 -6.121063
vt 2.676033 1.833298 -6.927856
vt 7.964722 1.766739 2.649414
vt 7.927856 1.833298 2.676033
vt 7.831757 2.802361 1.587727
vt 6.822968 8.074326 1.587727
vt 7.608215 2.773170 1.587727
vt 7.831757 2.802361 1.587727
vt -6.927856 1.833298 2.676033
vt -6.831757 1.587727 2.802361
vt -6.608215 1.587727 2.773170
vt -6.608215 1.587727 2.773170
vt -5.754852 1.587730 2.661713
vt -1.649414 1.766739 -6.964722
vt -7.701580 1.845535 -6.121033
vt 8.752502 -5.004532 1.587727
vt 9.010376 -5.193901 1.587730
vt 7.831757 2.802361 1.587727
vt 7.831757 2.802361 1.587727
vt 7.608215 2.773170 1.587727
vt 8.752502 -5.004532 1.587727
vt 8.752502 -5.004532 1.587727
vt -7.992401 -7.476402 1.587723
vt -7.977112 -7.701584 1.587730
vt -7.977112 -7.701584 1.587730
vt 7.092163 1.445026 0.799576
vt -5.754852 -1.301205 2.661713
vt 2.969671 -2.543434 0.000501
vt -0.003258 0.880603 0.999542
vt 0.500075 0.893856 0.999424
vt 0.469555 0.930643 0.999425
vt 0.434790 0.950593 0.999438
vt 0.420953 0.959906 0.999427
vt 0.344487 1.006529 0.999511
vt 0.019326 0.909871 0.999472
vt 0.042278 0.932892 0.999472
vt 0.071647 0.958080 0.999493
vt 0.092286 0.974414 0.999499
vt 0.106098 0.981221 0.999491
vt 0.122650 0.992691 0.999508
vt 0.344487 1.006529 0.999511
vt 0.122650 0.992691 0.999508
vt 0.167198 1.006529 0.999527
# 373 texture coords

g Toom_Kooli_15_2
usemtl TK15_krohv
s off
f -99/-324/-555 -98/-323/-554 -105/-322/-553 
f -105/-359/-552 -104/-321/-551 -99/-320/-550 
f -96/-319/-549 -109/-318/-548 -107/-317/-547 
f -107/-361/-546 -103/-357/-545 -96/-316/-544 
f -97/-315/-543 -94/-314/-542 -102/-313/-541 
f -102/-356/-540 -95/-349/-539 -97/-312/-538 
f -100/-311/-537 -99/-310/-536 -104/-309/-535 
f -104/-358/-534 -101/-308/-533 -100/-307/-532 
f -113/-306/-531 -100/-305/-530 -101/-304/-529 
f -101/-355/-528 -106/-360/-527 -113/-303/-526 
f -91/-302/-525 -90/-344/-524 -89/-301/-523 
f -89/-300/-522 -88/-299/-521 -91/-345/-520 
f -85/-298/-519 -88/-342/-518 -89/-297/-517 
f -89/-343/-516 -84/-296/-515 -85/-295/-514 
f -116/-294/-513 -118/-293/-512 -86/-292/-511 
f -86/-291/-510 -87/-341/-509 -116/-370/-508 
f -119/-290/-507 -115/-369/-506 -93/-289/-505 
f -93/-288/-504 -113/-287/-503 -119/-373/-502 
f -117/-286/-501 -114/-368/-500 -92/-285/-499 
f -92/-284/-498 -108/-283/-497 -117/-371/-496 
f -85/-282/-495 -84/-338/-494 -94/-281/-493 
f -83/-280/-492 -110/-279/-491 -85/-278/-490 
f -86/-277/-489 -118/-372/-488 -112/-276/-487 
f -112/-275/-486 -111/-274/-485 -86/-340/-484 
f -112/-273/-483 -108/-362/-482 -92/-272/-481 
f -92/-346/-480 -111/-365/-479 -112/-366/-478 
f -96/-271/-477 -98/-352/-476 -99/-270/-475 
f -99/-269/-474 -109/-268/-473 -96/-350/-472 
f -97/-351/-471 -83/-267/-470 -94/-266/-469 
f -113/-367/-468 -93/-265/-467 -100/-264/-466 
f -109/-263/-465 -99/-262/-464 -93/-261/-463 
f -99/-353/-462 -100/-354/-461 -93/-260/-460 
f -77/-259/-459 -110/-258/-458 -83/-257/-457 
f -109/-363/-456 -93/-256/-455 -82/-255/-454 
f -93/-254/-453 -81/-253/-452 -82/-336/-451 
f -93/-252/-450 -80/-251/-449 -81/-335/-448 
f -93/-250/-447 -79/-249/-446 -80/-334/-445 
f -78/-332/-444 -79/-333/-443 -93/-347/-442 
f -110/-248/-441 -76/-247/-440 -75/-246/-439 
f -110/-245/-438 -77/-331/-437 -76/-330/-436 
f -73/-244/-435 -110/-243/-434 -74/-242/-433 
f -110/-241/-432 -75/-329/-431 -74/-328/-430 
f -110/-240/-429 -72/-239/-428 -71/-325/-427 
f -110/-364/-426 -73/-327/-425 -72/-326/-424 
f -94/-348/-423 -83/-337/-422 -85/-339/-421 
usemtl TK15_paekivi
f -70/-225/-420 -64/-224/-419 -63/-223/-418 
f -63/-222/-417 -68/-236/-416 -70/-238/-415 
f -67/-221/-414 -91/-220/-413 -66/-234/-412 
f -65/-219/-411 -91/-218/-410 -67/-235/-409 
f -90/-231/-408 -91/-233/-407 -65/-232/-406 
f -61/-217/-405 -60/-226/-404 -62/-216/-403 
f -62/-215/-402 -69/-214/-401 -61/-227/-400 
f -63/-213/-399 -64/-230/-398 -69/-212/-397 
f -69/-237/-396 -62/-228/-395 -63/-229/-394 
usemtl TK15_pruun
f -54/-205/-393 -38/-206/-392 -47/-204/-391 
f -44/-201/-390 -116/-187/-389 -43/-202/-388 
f -44/-201/-387 -43/-202/-386 -54/-203/-385 
f -50/-197/-384 -53/-198/-383 -47/-199/-382 
f -47/-199/-381 -38/-200/-380 -50/-197/-379 
f -35/-190/-378 -42/-193/-377 -50/-192/-376 
f -50/-192/-375 -38/-189/-374 -54/-191/-373 
f -35/-190/-372 -50/-192/-371 -54/-191/-370 
f -35/-190/-369 -54/-191/-368 -43/-188/-367 
usemtl XXX
f -34/-176/-366 -33/-175/-365 -40/-182/-364 
f -40/-182/-363 -46/-181/-362 -34/-176/-361 
f -32/-174/-360 -34/-176/-359 -46/-181/-358 
f -46/-181/-357 -49/-184/-356 -32/-174/-355 
f -31/-173/-354 -30/-172/-353 -41/-179/-352 
f -41/-179/-351 -48/-180/-350 -31/-173/-349 
f -33/-171/-348 -31/-170/-347 -48/-183/-346 
f -48/-183/-345 -40/-178/-344 -33/-171/-343 
f -29/-169/-342 -28/-168/-341 -59/-186/-340 
f -59/-186/-339 -58/-177/-338 -29/-169/-337 
f -30/-167/-336 -29/-169/-335 -58/-177/-334 
f -58/-177/-333 -41/-185/-332 -30/-167/-331 
f -65/-166/-330 -67/-165/-329 -70/-211/-328 
f -70/-211/-327 -68/-210/-326 -65/-166/-325 
f -39/-158/-324 -26/-157/-323 -52/-208/-322 
f -52/-208/-321 -42/-207/-320 -39/-158/-319 
f -26/-156/-318 -25/-155/-317 -51/-209/-316 
f -51/-209/-315 -52/-196/-314 -26/-156/-313 
f -24/-154/-312 -32/-153/-311 -49/-164/-310 
f -49/-164/-309 -27/-163/-308 -24/-154/-307 
f -25/-152/-306 -24/-151/-305 -27/-161/-304 
f -27/-161/-303 -51/-162/-302 -25/-152/-301 
f -23/-150/-300 -114/-149/-299 -117/-195/-298 
f -117/-195/-297 -36/-194/-296 -23/-150/-295 
f -119/-148/-294 -23/-147/-293 -36/-160/-292 
f -36/-160/-291 -115/-159/-290 -119/-148/-289 
usemtl TK15_katus_kivi_punane
f -70/-146/-288 -67/-143/-287 -66/-142/-286 
f -66/-142/-285 -64/-139/-284 -70/-146/-283 
f -22/-145/-282 -64/-139/-281 -66/-142/-280 
f -41/-123/-279 -59/-141/-278 -21/-113/-277 
f -64/-139/-276 -22/-145/-275 -61/-138/-274 
f -61/-138/-273 -69/-144/-272 -64/-139/-271 
f -42/-124/-270 -52/-131/-269 -50/-129/-268 
f -41/-107/-267 -21/-106/-266 -48/-111/-265 
f -53/-112/-264 -21/-113/-263 -59/-141/-262 
f -59/-141/-261 -45/-125/-260 -53/-112/-259 
f -51/-130/-258 -21/-134/-257 -53/-132/-256 
f -53/-132/-255 -52/-131/-254 -51/-130/-253 
f -53/-132/-252 -50/-129/-251 -52/-131/-250 
f -56/-135/-249 -57/-136/-248 -36/-117/-247 
f -36/-117/-246 -20/-121/-245 -56/-135/-244 
f -56/-114/-243 -20/-110/-242 -37/-120/-241 
f -37/-120/-240 -55/-133/-239 -56/-114/-238 
f -118/-115/-237 -116/-118/-236 -37/-109/-235 
f -37/-109/-234 -20/-108/-233 -118/-115/-232 
f -118/-137/-231 -20/-121/-230 -36/-117/-229 
f -36/-117/-228 -1/-16/-227 -118/-137/-226 
f -58/-140/-225 -59/-141/-224 -41/-123/-223 
f -46/-126/-222 -40/-122/-221 -27/-116/-220 
f -27/-116/-219 -49/-128/-218 -46/-126/-217 
f -48/-127/-216 -27/-116/-215 -40/-122/-214 
f -21/-105/-213 -51/-104/-212 -27/-116/-211 
f -27/-116/-210 -48/-127/-209 -21/-105/-208 
usemtl TK15_kuur_v_ravad
f -97/-81/-207 -95/-80/-206 -18/-102/-205 
f -18/-102/-204 -7/-83/-203 -97/-81/-202 
f -80/-12/-201 -13/-96/-200 -15/-98/-199 
f -81/-13/-198 -15/-98/-197 -14/-97/-196 
f -82/-14/-195 -14/-97/-194 -12/-95/-193 
f -109/-100/-192 -82/-14/-191 -12/-95/-190 
f -76/-8/-189 -77/-9/-188 -7/-83/-187 
f -76/-8/-186 -7/-83/-185 -17/-101/-184 
f -74/-6/-183 -75/-7/-182 -16/-99/-181 
f -13/-96/-180 -74/-6/-179 -16/-99/-178 
f -8/-84/-177 -16/-99/-176 -17/-101/-175 
f -17/-101/-174 -19/-103/-173 -8/-84/-172 
f -72/-4/-171 -73/-5/-170 -79/-11/-169 
f -102/-86/-168 -103/-87/-167 -107/-94/-166 
f -102/-86/-165 -107/-94/-164 -6/-82/-163 
f -102/-86/-162 -6/-82/-161 -10/-89/-160 
f -102/-86/-159 -10/-89/-158 -11/-93/-157 
f -102/-86/-156 -11/-93/-155 -9/-88/-154 
f -102/-86/-153 -9/-88/-152 -8/-84/-151 
f -102/-86/-150 -8/-84/-149 -19/-103/-148 
f -102/-86/-147 -19/-103/-146 -18/-102/-145 
f -102/-86/-144 -18/-102/-143 -95/-80/-142 
f -105/-91/-141 -106/-92/-140 -101/-85/-139 
f -101/-85/-138 -104/-90/-137 -105/-91/-136 
f -19/-103/-135 -17/-101/-134 -7/-83/-133 
f -7/-83/-132 -18/-102/-131 -19/-103/-130 
f -13/-96/-129 -9/-88/-128 -11/-93/-127 
f -11/-93/-126 -15/-98/-125 -13/-96/-124 
f -107/-94/-123 -109/-100/-122 -12/-95/-121 
f -12/-95/-120 -6/-82/-119 -107/-94/-118 
f -15/-98/-117 -11/-93/-116 -10/-89/-115 
f -10/-89/-114 -14/-97/-113 -15/-98/-112 
f -14/-97/-111 -10/-89/-110 -6/-82/-109 
f -6/-82/-108 -12/-95/-107 -14/-97/-106 
f -9/-88/-105 -13/-96/-104 -16/-99/-103 
f -16/-99/-102 -8/-84/-101 -9/-88/-100 
usemtl TK15_kr_kollane
f -35/-56/-99 -43/-55/-98 -2/-54/-97 
f -2/-53/-96 -39/-64/-95 -35/-57/-94 
f -55/-52/-93 -44/-51/-92 -4/-50/-91 
f -4/-49/-90 -5/-48/-89 -55/-47/-88 
f -44/-46/-87 -47/-45/-86 -3/-44/-85 
f -3/-43/-84 -4/-71/-83 -44/-42/-82 
f -47/-41/-81 -44/-40/-80 -54/-74/-79 
f -55/-39/-78 -5/-72/-77 -91/-38/-76 
f -91/-79/-75 -88/-37/-74 -55/-36/-73 
f -44/-35/-72 -55/-34/-71 -88/-33/-70 
f -44/-67/-69 -88/-32/-68 -116/-31/-67 
f -47/-30/-66 -53/-73/-65 -45/-29/-64 
f -45/-68/-63 -3/-69/-62 -47/-70/-61 
f -85/-28/-60 -56/-27/-59 -55/-26/-58 
f -55/-25/-57 -88/-24/-56 -85/-23/-55 
f -85/-22/-54 -115/-21/-53 -57/-20/-52 
f -57/-19/-51 -56/-77/-50 -85/-61/-49 
f -37/-62/-48 -88/-76/-47 -55/-75/-46 
f -43/-18/-45 -116/-60/-44 -87/-17/-43 
f -87/-65/-42 -2/-63/-41 -43/-66/-40 
f -115/-58/-39 -36/-59/-38 -57/-78/-37 
usemtl TK15_katus_kivi_punane
f -36/-117/-36 -117/-119/-35 -1/-16/-34 
usemtl TK15_kuur_v_ravad
f -81/-13/-33 -14/-97/-32 -82/-14/-31 
f -80/-12/-30 -15/-98/-29 -81/-13/-28 
f -79/-11/-27 -13/-96/-26 -80/-12/-25 
f -72/-4/-24 -79/-11/-23 -78/-10/-22 
f -97/-81/-21 -77/-9/-20 -83/-15/-19 
f -77/-9/-18 -97/-81/-17 -7/-83/-16 
f -75/-7/-15 -76/-8/-14 -17/-101/-13 
f -75/-7/-12 -17/-101/-11 -16/-99/-10 
f -13/-96/-9 -73/-5/-8 -74/-6/-7 
f -73/-5/-6 -13/-96/-5 -79/-11/-4 
f -71/-1/-3 -72/-2/-2 -78/-3/-1 
# 185 faces

