# 3ds Max Wavefront OBJ Exporter v0.94b - (c)2007 guruware
# File Created: 20.11.2010 15:58:02

mtllib Lai_30a_2-origo.mtl

#
# object Lai_30_garage
#

v  542328.4582 6589291.7534 16.8577
v  542326.821 6589289.4376 16.8639
v  542326.8265 6589289.4454 20.0257
v  542328.4337 6589291.7188 21.0373
v  542330.8183 6589286.6117 16.8639
v  542330.8238 6589286.6195 20.0257
v  542332.8917 6589289.5445 21.3272
v  542328.8944 6589292.3704 21.3272
v  542328.8944 6589292.3704 16.8560
v  542332.8917 6589289.5445 16.8560
v  542326.1762 6589294.2921 16.8560
v  542325.74 6589293.6751 16.8577
v  542325.7155 6589293.6404 21.0373
v  542326.1762 6589294.2921 21.3272
# 14 vertices

vt 2.8043 0.0020 0.0020
vt 3.9980 0.0078 0.0505
vt 3.9940 2.9579 0.0504
vt 2.8221 3.9018 0.0027
vt 0.0504 2.9579 0.0060
vt 0.0505 0.0078 0.0020
vt 2.4842 0.0078 0.0730
vt 2.4840 2.9579 0.0770
vt 10.6038 -0.0535 0.0005
vt 10.6656 6.9913 0.9995
vt 4.3821 7.1205 0.9995
vt 4.3683 5.5511 0.7770
vt 4.3203 0.0757 0.0005
vt 1.2828 -1.7356 0.4730
vt 1.2828 2.7356 0.4730
vt -3.6097 2.7356 0.6415
vt -3.6097 -1.7356 0.6415
vt 0.1012 -1.7356 -1.1772
vt 0.8564 -1.7339 -1.1512
vt 0.8988 2.4457 -1.1497
vt 0.1012 2.7356 -1.1772
vt -1.1497 2.4457 0.1012
vt -1.1512 -1.7339 0.1436
vt 2.1757 -1.7339 0.2582
vt 2.1772 2.4457 0.2158
vt 0.1092 7.2085 0.9995
vt 0.0955 5.6390 0.7770
vt 4.6097 -1.7356 0.3585
vt 4.6097 2.7356 0.3585
vt 0.3820 0.2360 0.0000
vt 0.4429 2.4753 0.0005
vt 0.7144 0.0851 0.0000
vt 0.1867 0.1703 0.0000
# 33 texture coords

g Lai_30_garage
usemtl white_plaster
s off
f 1/1 2/2 3/3 4/4 
f 3/5 2/6 5/7 6/8 
usemtl roof_stone
f 6/9 7/10 8/11 4/12 3/13 
usemtl stone_plaster
f 9/14 8/15 7/16 10/17 
f 11/18 12/19 13/20 14/21 
f 13/22 12/23 1/24 4/25 
usemtl roof_stone
f 14/26 13/27 4/12 8/11 
usemtl stone_plaster
f 11/28 14/29 8/15 9/14 
usemtl xxx
f 10/30 7/31 6/32 5/33 
# 9 polygons

