# 3ds Max Wavefront OBJ Exporter v0.97b - (c)2007 guruware
# File Created: 28.02.2012 17:55:55

mtllib Kiriku_8_3-origo.mtl

#
# object Kiriku_8_3
#

v  541913.758789 6589098.862448 48.950001
v  541911.552307 6589096.500229 53.817730
v  541917.716644 6589094.715788 48.949989
v  541917.212433 6589094.694353 45.957577
v  541913.497498 6589098.582756 45.847904
v  541913.497467 6589098.58271 48.950001
v  541917.212402 6589094.69422 48.949997
v  541906.102173 6589090.665377 45.282795
v  541906.102173 6589090.665377 48.626202
v  541907.19632 6589085.805099 45.346088
v  541907.196289 6589085.804925 48.949993
v  541907.006958 6589085.210985 48.949997
v  541905.89093 6589090.296219 48.626202
v  541908.141541 6589092.848709 53.817730
v  541911.933624 6589090.009254 49.224590
v  541912.995575 6589090.951756 49.224590
v  541912.995544 6589090.951777 50.035183
v  541911.933624 6589090.009253 50.035183
v  541912.40094 6589091.621681 50.035175
v  541911.33905 6589090.67922 50.035175
v  541911.787811 6589089.879831 50.035183
v  541911.193207 6589090.549801 50.035172
v  541913.165558 6589091.102564 50.035183
v  541912.570953 6589091.772512 50.035172
v  541911.787811 6589089.879829 50.236820
v  541911.052612 6589090.708302 50.236809
v  541913.165558 6589091.102608 50.236820
v  541912.430298 6589091.931015 50.236809
v  541912.494843 6589090.507244 50.998798
v  541907.19632 6589085.805009 48.327408
v  541911.200012 6589091.96629 50.998802
v  541906.102173 6589090.665379 49.215057
v  541906.102173 6589090.665377 48.626202
v  541906.102173 6589090.665377 48.626202
v  541906.102173 6589090.665377 48.626202
v  541913.497467 6589098.58271 48.950001
v  541913.497467 6589098.58271 48.950001
# 37 vertices

vn 0.725807 0.687899 0.000024
vn 0.725810 0.687896 0.000017
vn 0.725804 0.687902 0.000031
vn 0.725804 0.687902 0.000031
vn 0.725801 0.687905 0.000038
vn 0.725807 0.687899 0.000024
vn -0.663782 0.747926 0.000005
vn -0.663782 0.747926 0.000005
vn -0.663782 0.747926 0.000005
vn -0.663782 0.747926 0.000005
vn -0.663782 0.747926 0.000005
vn -0.663782 0.747926 0.000005
vn -0.964709 -0.263318 -0.000008
vn -0.964708 -0.263323 -0.000008
vn -0.964701 -0.263347 -0.000057
vn -0.964702 -0.263343 -0.000054
vn -0.964711 -0.263311 -0.000002
vn -0.964709 -0.263318 -0.000008
vn -0.000003 -0.000005 -1.000000
vn -0.000003 -0.000005 -1.000000
vn -0.000002 0.000002 -1.000000
vn -0.000002 0.000002 -1.000000
vn -0.000002 0.000002 -1.000000
vn -0.000003 -0.000005 -1.000000
vn -0.000015 0.000004 -1.000000
vn -0.000015 0.000002 -1.000000
vn -0.000003 -0.000005 -1.000000
vn -0.000003 -0.000005 -1.000000
vn -0.000015 0.000002 -1.000000
vn -0.000003 -0.000005 -1.000000
vn 1.000000 0.000000 0.000000
vn 0.002960 -0.003335 0.999990
vn -0.053555 0.060343 -0.996740
vn 1.000000 0.000000 0.000000
vn 1.000000 0.000000 0.000000
vn 1.000000 0.000000 0.000000
vn -0.730787 0.682605 -0.000002
vn -0.730787 0.682605 -0.000002
vn -0.663782 0.747926 -0.000007
vn -0.663784 0.747924 -0.000001
vn 1.000000 0.000000 0.000000
vn 1.000000 0.000000 0.000000
vn 0.663783 -0.747925 -0.000027
vn 0.663783 -0.747925 -0.000027
vn 0.663777 -0.747931 -0.000063
vn 0.663782 -0.747926 -0.000024
vn 0.663783 -0.747925 -0.000027
vn 0.663779 -0.747929 -0.000049
vn 0.663804 -0.747906 0.000029
vn 0.663811 -0.747901 0.000044
vn 0.663798 -0.747912 0.000013
vn 0.663798 -0.747912 0.000013
vn 0.663791 -0.747918 -0.000002
vn 0.663804 -0.747906 0.000029
vn 0.747889 0.663823 0.000011
vn 0.747889 0.663823 0.000011
vn 0.747889 0.663823 0.000011
vn -0.747937 -0.663769 -0.000002
vn -0.747937 -0.663769 -0.000002
vn -0.747937 -0.663769 -0.000002
vn 0.000006 -0.000006 -1.000000
vn 0.000006 -0.000006 -1.000000
vn 0.000006 -0.000006 -1.000000
vn 0.000023 0.000003 -1.000000
vn 0.000023 0.000003 -1.000000
vn 0.000023 0.000003 -1.000000
vn 0.000000 0.000000 -1.000000
vn 0.000000 0.000000 -1.000000
vn 0.000000 0.000000 -1.000000
vn 0.000000 0.000000 -1.000000
vn 0.000000 0.000000 -1.000000
vn 0.000000 0.000000 -1.000000
vn -0.000004 -0.000021 -1.000000
vn -0.000004 -0.000021 -1.000000
vn -0.000004 -0.000021 -1.000000
vn 0.000006 -0.000006 -1.000000
vn 0.000006 -0.000006 -1.000000
vn 0.000006 -0.000006 -1.000000
vn -0.747921 -0.663787 -0.000006
vn -0.747921 -0.663787 -0.000006
vn -0.747921 -0.663787 -0.000006
vn -0.747956 -0.663748 0.000228
vn -0.747956 -0.663748 0.000228
vn -0.747956 -0.663748 0.000228
vn 0.663792 -0.747917 0.000163
vn 0.663792 -0.747917 0.000163
vn 0.663792 -0.747917 0.000163
vn 0.663778 -0.747930 -0.000007
vn 0.663778 -0.747930 -0.000007
vn 0.663778 -0.747930 -0.000007
vn 0.747903 0.663808 -0.000092
vn 0.747903 0.663808 -0.000092
vn 0.747903 0.663808 -0.000092
vn 0.747911 0.663799 -0.000144
vn 0.747911 0.663799 -0.000144
vn 0.747911 0.663799 -0.000144
vn 0.663792 -0.747917 -0.000088
vn 0.663792 -0.747917 -0.000088
vn 0.663792 -0.747917 -0.000088
vn -0.000015 0.000004 -1.000000
vn -0.000001 0.000001 -1.000000
vn -0.000001 0.000000 -1.000000
vn -0.000001 0.000000 -1.000000
vn -0.000015 0.000002 -1.000000
vn -0.000015 0.000004 -1.000000
vn 0.663779 -0.747929 -0.000049
vn 0.663783 -0.747925 -0.000027
vn 0.663777 -0.747931 -0.000063
vn -0.964709 -0.263318 -0.000008
vn -0.964701 -0.263347 -0.000057
vn -0.964702 -0.263343 -0.000054
vn 0.603688 0.571409 0.555925
vn 0.603688 0.571409 0.555925
vn 0.603688 0.571409 0.555925
vn 0.447491 -0.500739 0.740954
vn 0.447219 -0.502822 0.739706
vn 0.447244 -0.502637 0.739817
vn -0.831087 -0.226713 0.507834
vn -0.876906 -0.167359 0.450585
vn -0.831087 -0.226713 0.507834
vn -0.469410 -0.416551 0.778550
vn -0.469410 -0.416551 0.778550
vn -0.469410 -0.416551 0.778550
vn -0.469407 -0.416578 0.778537
vn -0.469407 -0.416578 0.778537
vn -0.469407 -0.416578 0.778537
vn 0.484308 0.429798 0.762049
vn 0.484308 0.429798 0.762049
vn 0.484308 0.429798 0.762049
vn 0.484250 0.429811 0.762079
vn 0.484250 0.429811 0.762079
vn 0.484250 0.429811 0.762079
vn 0.447219 -0.502822 0.739706
vn 0.447095 -0.503771 0.739135
vn 0.447244 -0.502637 0.739817
vn -0.869715 -0.166843 0.464500
vn -0.869715 -0.166843 0.464500
vn -0.876906 -0.167359 0.450585
vn -0.730788 0.682605 -0.000002
vn -0.730788 0.682605 -0.000002
vn -0.730788 0.682605 -0.000002
vn 1.000000 0.000000 0.000000
vn 1.000000 0.000000 0.000000
vn 1.000000 0.000000 0.000000
vn 1.000000 0.000000 0.000000
vn 1.000000 0.000000 0.000000
vn 1.000000 0.000000 0.000000
vn 1.000000 0.000000 0.000000
vn 1.000000 0.000000 0.000000
vn 1.000000 0.000000 0.000000
vn -0.730789 0.682603 0.000002
vn -0.730789 0.682603 0.000002
vn -0.730789 0.682603 0.000002
vn 1.000000 0.000000 0.000000
vn 1.000000 0.000000 0.000000
vn 1.000000 0.000000 0.000000
vn -0.867944 0.496662 -0.000002
vn -0.867944 0.496662 -0.000002
vn -0.867944 0.496662 -0.000002
vn -0.730751 0.682644 0.000034
vn -0.730751 0.682644 0.000034
vn -0.730751 0.682644 0.000034
vn 1.000000 0.000000 0.000000
vn 1.000000 0.000000 0.000000
vn 1.000000 0.000000 0.000000
vn 1.000000 0.000000 0.000000
vn 1.000000 0.000000 0.000000
vn 1.000000 0.000000 0.000000
vn 1.000000 0.000000 0.000000
vn 1.000000 0.000000 0.000000
vn 1.000000 0.000000 0.000000
# 171 vertex normals

vt 0.000000 0.000000 0.000000
vt 1.000000 0.000000 0.000000
vt 1.000000 1.000000 0.000000
vt 0.000000 1.000000 0.000000
vt 0.986800 0.283200 0.000000
vt 0.471200 1.007700 0.000000
vt 0.500000 0.000000 0.000000
vt 0.008400 0.003800 0.000000
vt 1.003600 0.003800 0.000000
vt 1.003600 0.607500 0.000000
vt 0.008400 0.607500 0.000000
vt 0.316900 0.653700 0.000000
vt 0.372100 0.806200 0.000000
vt 0.263200 0.806200 0.000000
vt 0.372100 0.653700 0.000000
vt 0.372100 0.806100 0.000000
vt 0.130400 0.009700 0.000000
vt 0.113600 0.606900 0.000000
vt 0.000100 0.657300 0.000000
vt 0.013900 -0.001800 0.000000
vt 1.035400 0.109200 0.000000
vt 1.054000 0.612400 0.000000
vt 0.955300 0.689700 0.000000
vt 0.957500 0.036300 0.000000
vt 0.921600 0.602100 0.000000
vt 0.938400 0.029300 0.000000
vt 1.047800 0.042200 0.000000
vt 1.034100 0.670600 0.000000
vt -0.000400 0.000000 0.000000
vt 0.133900 0.000000 0.000000
vt 0.143800 0.052800 0.000000
vt -0.000400 0.052800 0.000000
vt 0.030200 0.594900 0.000000
vt 1.000000 0.594900 0.000000
vt 1.000000 0.748400 0.000000
vt 0.030200 0.748400 0.000000
vt 0.000700 -0.000000 0.000000
vt 0.125100 -0.000000 0.000000
vt 0.125100 0.040000 0.000000
vt 0.000700 0.040000 0.000000
vt 0.515100 0.996200 0.000000
vt 0.483307 0.584072 0.000000
vt 1.000000 0.579609 0.000000
vt 1.496811 1.654350 0.996265
vt 2.636154 -0.201195 0.000500
vt -2.089615 -0.201195 0.000501
vt -0.188477 1.654358 0.999498
vt 0.053377 0.546187 0.264594
vt 0.443786 0.546187 0.264593
vt 0.053385 -0.060744 0.264594
vt 0.443779 -0.060722 0.264593
vt 0.053354 0.234743 0.420974
vt 0.736777 0.234721 0.420974
vt 1.000000 1.000000 0.000000
vt 0.999298 0.961903 0.000000
vt 1.000000 0.958042 0.000000
vt 0.946494 1.000000 0.000000
vt 0.968750 0.959353 0.000000
vt 0.916916 1.000000 0.000000
vt 0.999316 0.937399 0.000000
vt 1.000000 0.933636 0.000000
vt 0.999977 0.031164 0.000000
vt 1.000000 0.031039 0.000000
vt 0.998966 0.031740 0.000000
vt 1.695129 -0.370113 0.553314
vt -0.116508 -0.151745 0.395576
vt -0.024960 -0.375095 0.406578
vt -0.567894 1.610903 0.287666
vt 1.204514 -0.350689 0.519501
vt 1.130249 1.500134 0.148731
vt -0.706123 -0.356621 0.532665
# 71 texture coords

g Kiriku_8_3
usemtl Kiriku_8_OrangePlaster
s 2
f -33/-70/-171 -32/-69/-170 -31/-68/-169 
f -31/-68/-168 -34/-71/-167 -33/-70/-166 
usemtl xxx
s off
f -30/-70/-165 -29/-69/-164 -32/-68/-163 
f -32/-68/-162 -33/-71/-161 -30/-70/-160 
usemtl Kiriku_8_OrangePlaster
s 2
f -30/-71/-159 -28/-70/-158 -8/-29/-157 
f -27/-69/-156 -29/-68/-155 -30/-71/-154 
s 1
f -27/-69/-153 -26/-68/-152 -25/-69/-151 
f -25/-69/-150 -29/-68/-149 -27/-69/-148 
f -31/-69/-147 -35/-71/-146 -27/-68/-145 
f -27/-68/-144 -35/-71/-143 -26/-68/-142 
usemtl xxx
s 4
f -5/-15/-141 -29/-69/-140 -25/-69/-139 
f -5/-16/-138 -3/-11/-137 -4/-14/-136 
s off
f -5/-17/-135 -6/-18/-134 -36/-67/-133 
f -36/-67/-132 -3/-12/-131 -5/-17/-130 
usemtl Kiriku_8_OrangePlaster
s 12
f -34/-70/-129 -31/-69/-128 -27/-66/-127 
f -28/-65/-126 -34/-70/-125 -8/-30/-124 
usemtl Kiriku_8_Dormer01
s 4
f -22/-63/-123 -21/-62/-122 -20/-61/-121 
f -20/-61/-120 -23/-64/-119 -22/-63/-118 
s 16
f -22/-60/-117 -19/-59/-116 -21/-58/-115 
s 64
f -18/-58/-114 -23/-57/-113 -20/-56/-112 
s off
f -18/-55/-111 -20/-54/-110 -17/-53/-109 
f -17/-53/-108 -16/-52/-107 -18/-55/-106 
f -21/-50/-105 -15/-49/-104 -17/-48/-103 
f -17/-48/-102 -20/-51/-101 -21/-50/-100 
f -19/-46/-99 -14/-45/-98 -15/-44/-97 
f -15/-44/-96 -21/-47/-95 -19/-46/-94 
f -16/-43/-93 -17/-42/-92 -13/-41/-91 
f -13/-41/-90 -12/-40/-89 -16/-43/-88 
f -15/-38/-87 -11/-37/-86 -13/-36/-85 
f -13/-36/-84 -17/-39/-83 -15/-38/-82 
f -14/-34/-81 -10/-33/-80 -11/-32/-79 
f -11/-32/-78 -15/-35/-77 -14/-34/-76 
f -13/-36/-75 -11/-37/-74 -9/-31/-73 
usemtl Kiriku_8_OrangePlaster
s 1
f -31/-68/-72 -32/-69/-71 -37/-70/-70 
f -37/-70/-69 -35/-71/-68 -31/-68/-67 
s 12
f -8/-30/-66 -34/-70/-65 -27/-66/-64 
s 2
f -30/-71/-63 -8/-29/-62 -27/-69/-61 
usemtl Kiriku_8_Roof01
f -37/-3/-60 -36/-2/-59 -35/-1/-58 
s 8
f -36/-28/-57 -24/-25/-56 -35/-27/-55 
s 2
f -26/-7/-54 -6/-6/-53 -25/-5/-52 
s off
f -12/-23/-51 -13/-24/-50 -9/-20/-49 
f -9/-20/-48 -7/-19/-47 -12/-23/-46 
f -10/-21/-45 -7/-19/-44 -9/-20/-43 
f -9/-20/-42 -11/-22/-41 -10/-21/-40 
s 8
f -24/-25/-39 -26/-26/-38 -35/-27/-37 
s 2
f -26/-7/-36 -24/-4/-35 -6/-6/-34 
usemtl xxx
s off
f -6/-18/-33 -24/-69/-32 -36/-67/-31 
s 4
f -4/-13/-30 -29/-69/-29 -5/-15/-28 
f -4/-14/-27 -1/-8/-26 -32/-68/-25 
f -32/-68/-24 -29/-69/-23 -4/-13/-22 
s off
f -36/-67/-21 -2/-10/-20 -3/-12/-19 
s 4
f -3/-11/-18 -2/-9/-17 -4/-14/-16 
s off
f -6/-18/-15 -5/-15/-14 -25/-69/-13 
f -36/-67/-12 -37/-70/-11 -2/-10/-10 
s 4
f -2/-9/-9 -1/-8/-8 -4/-14/-7 
f -2/-9/-6 -37/-70/-5 -1/-8/-4 
f -1/-8/-3 -37/-70/-2 -32/-68/-1 
# 57 faces

