# 3ds Max Wavefront OBJ Exporter v0.97b - (c)2007 guruware
# File Created: 19.04.2012 21:44:14

mtllib Myyrivahe_29.mtl

#
# object Myyrivahe_29
#

v  240.9181 -19.9438 20.5935
v  241.7227 -20.0662 20.5935
v  241.9837 -18.3508 20.5935
v  241.1791 -18.2284 20.5935
v  240.9181 -19.9438 20.5029
v  241.1791 -18.2284 20.5029
v  241.7227 -20.0662 20.5029
v  241.9837 -18.3508 20.5029
v  240.9181 -19.9438 18.4630
v  241.1791 -18.2284 18.4630
v  241.7227 -20.0662 18.4630
v  241.9837 -18.3508 18.4630
v  237.9047 -26.6818 17.4253
v  239.3490 -26.9015 17.5537
v  239.3295 -26.9052 17.7666
v  237.8853 -26.6855 17.6383
v  239.3136 -26.8464 18.0461
v  237.8693 -26.6267 17.9178
v  239.3169 -26.6861 18.2831
v  237.8726 -26.4664 18.1548
v  239.3390 -26.4488 18.4414
v  237.8947 -26.2291 18.3131
v  239.3763 -26.1707 18.4970
v  237.9321 -25.9510 18.3687
v  239.4234 -25.8940 18.4414
v  237.9791 -25.6743 18.3131
v  239.4729 -25.6609 18.2831
v  238.0286 -25.4412 18.1548
v  239.5174 -25.5069 18.0461
v  238.0732 -25.2872 17.9178
v  239.5501 -25.4554 17.7666
v  238.1058 -25.2357 17.6383
v  239.5676 -25.4648 17.5537
v  238.1233 -25.2451 17.4253
v  238.5991 -17.1500 8.3938
v  238.7740 -17.1766 8.4702
v  239.0083 -15.6371 8.4702
v  238.8333 -15.6105 8.3938
v  238.0681 -17.0693 7.9084
v  238.0681 -17.0693 7.9980
v  238.3023 -15.5297 7.9980
v  238.3023 -15.5297 7.9084
v  239.0083 -15.6371 8.1513
v  238.7740 -17.1766 8.1513
v  238.7740 -17.1766 8.3063
v  238.5991 -17.1500 8.2299
v  238.8333 -15.6105 8.2299
v  239.0083 -15.6371 8.3063
v  238.7340 -17.0842 8.7111
v  239.0261 -17.1286 8.7111
v  239.2400 -15.7223 8.7111
v  238.9480 -15.6779 8.7111
v  238.7340 -17.0842 8.6326
v  238.9480 -15.6779 8.6326
v  239.0261 -17.1286 8.6326
v  239.2400 -15.7223 8.6326
v  238.7340 -17.0842 11.1466
v  239.0261 -17.1286 11.1466
v  239.2400 -15.7223 11.1466
v  238.9480 -15.6779 11.1466
v  238.7340 -17.0842 11.0681
v  238.9480 -15.6779 11.0681
v  239.0261 -17.1286 11.0681
v  239.2400 -15.7223 11.0681
v  238.0553 -20.2437 6.8379
v  238.3474 -20.2882 6.8379
v  238.5471 -18.9752 6.8379
v  238.2551 -18.9308 6.8379
v  238.0553 -20.2437 6.7594
v  238.2551 -18.9308 6.7594
v  238.3474 -20.2882 6.7594
v  238.5471 -18.9752 6.7594
v  238.0553 -20.2437 10.2469
v  238.3474 -20.2882 10.2469
v  238.5471 -18.9752 10.2469
v  238.2551 -18.9308 10.2469
v  238.0553 -20.2437 10.1684
v  238.2551 -18.9308 10.1684
v  238.3474 -20.2882 10.1684
v  238.5471 -18.9752 10.1684
v  238.0553 -20.2437 13.5809
v  238.3474 -20.2882 13.5809
v  238.5471 -18.9752 13.5809
v  238.2551 -18.9308 13.5809
v  238.0553 -20.2437 13.5024
v  238.2551 -18.9308 13.5024
v  238.3474 -20.2882 13.5024
v  238.5471 -18.9752 13.5024
v  237.6932 -22.9450 13.5809
v  237.9852 -22.9894 13.5809
v  238.1755 -21.7387 13.5809
v  237.8835 -21.6942 13.5809
v  237.6932 -22.9450 13.5024
v  237.8835 -21.6942 13.5024
v  237.9852 -22.9894 13.5024
v  238.1755 -21.7387 13.5024
v  237.6932 -22.9450 9.3621
v  237.9852 -22.9894 9.3621
v  238.1755 -21.7387 9.3621
v  237.8835 -21.6942 9.3621
v  237.6932 -22.9450 9.2836
v  237.8835 -21.6942 9.2836
v  237.9852 -22.9894 9.2836
v  238.1755 -21.7387 9.2836
v  237.6932 -22.9450 6.8379
v  237.9852 -22.9894 6.8379
v  238.1755 -21.7387 6.8379
v  237.8835 -21.6942 6.8379
v  237.6932 -22.9450 6.7594
v  237.8835 -21.6942 6.7594
v  237.9852 -22.9894 6.7594
v  238.1755 -21.7387 6.7594
v  237.1015 -26.8341 13.6502
v  237.3936 -26.8786 13.6502
v  237.7374 -24.6189 13.6502
v  237.4453 -24.5745 13.6502
v  237.1015 -26.8341 13.5717
v  237.4453 -24.5745 13.5717
v  237.3936 -26.8786 13.5717
v  237.7374 -24.6189 13.5717
v  237.1036 -26.8206 10.2925
v  237.3957 -26.8650 10.2925
v  237.7394 -24.6054 10.2925
v  237.4474 -24.5610 10.2925
v  237.1036 -26.8206 10.2141
v  237.4474 -24.5610 10.2141
v  237.3957 -26.8650 10.2141
v  237.7394 -24.6054 10.2141
v  237.1015 -26.8341 6.8379
v  237.3936 -26.8786 6.8379
v  237.7374 -24.6189 6.8379
v  237.4453 -24.5745 6.8379
v  237.1015 -26.8341 6.7594
v  237.4453 -24.5745 6.7594
v  237.3936 -26.8786 6.7594
v  237.7374 -24.6189 6.7594
v  239.1178 -17.6563 17.2855
v  240.5621 -17.8760 17.4138
v  240.5358 -17.8788 17.7052
v  239.0916 -17.6591 17.5768
v  240.5200 -17.8199 17.9847
v  239.0757 -17.6002 17.8564
v  240.5233 -17.6596 18.2217
v  239.0789 -17.4399 18.0933
v  240.5453 -17.4224 18.3800
v  239.1010 -17.2026 18.2517
v  240.5827 -17.1442 18.4356
v  239.1384 -16.9245 18.3073
v  240.6297 -16.8675 18.3800
v  239.1855 -16.6478 18.2517
v  240.6792 -16.6344 18.2217
v  239.2349 -16.4147 18.0933
v  240.7238 -16.4804 17.9847
v  239.2795 -16.2607 17.8564
v  240.7564 -16.4289 17.7052
v  239.3121 -16.2092 17.5768
v  240.7807 -16.4394 17.4138
v  239.3364 -16.2197 17.2855
v  246.3133 -17.8690 8.5649
v  246.3133 -17.8690 5.5192
v  246.6716 -15.5134 5.5192
v  246.6717 -15.5133 15.8544
v  244.6571 -28.9877 15.8544
v  244.6571 -28.9877 5.5192
v  244.8994 -27.1634 5.5192
v  244.8994 -27.1634 8.5649
v  244.9324 -26.9462 8.7188
v  245.1258 -25.6749 8.8139
v  245.5610 -22.8141 8.8139
v  245.6679 -22.1114 8.8139
v  246.0869 -19.3575 8.8139
v  245.2453 -24.8892 8.5649
v  245.2453 -24.8892 5.5192
v  245.4415 -23.5999 5.5192
v  245.4415 -23.5999 8.5649
v  245.2123 -25.1063 8.7188
v  245.4745 -23.3827 8.7188
v  245.7875 -21.3257 8.5649
v  245.7874 -21.3257 5.5192
v  245.9673 -20.1432 5.5192
v  245.9673 -20.1432 8.5649
v  245.7544 -21.5428 8.7188
v  246.0004 -19.9260 8.7188
v  246.1938 -18.6547 8.8139
v  246.2803 -18.0861 8.7188
v  245.4704 -22.0813 8.8139
v  245.3635 -22.7841 8.8139
v  245.2770 -23.3527 8.7188
v  245.2440 -23.5698 8.5649
v  245.5900 -21.2956 8.5649
v  245.5569 -21.5128 8.7188
v  245.2440 -23.5698 5.5192
v  245.5900 -21.2956 5.5192
v  246.1158 -17.8389 5.5192
v  246.1158 -17.8389 8.5649
v  245.7699 -20.1131 8.5649
v  245.7699 -20.1131 5.5192
v  245.9963 -18.6247 8.8139
v  245.8894 -19.3274 8.8139
v  245.8029 -19.8960 8.7188
v  246.0828 -18.0561 8.7188
v  245.0479 -24.8591 5.5192
v  245.0479 -24.8591 8.5649
v  244.7019 -27.1333 8.5649
v  244.7019 -27.1333 5.5192
v  244.9283 -25.6448 8.8139
v  244.8214 -26.3476 8.8139
v  244.7349 -26.9161 8.7188
v  245.0148 -25.0763 8.7188
v  245.0189 -26.3776 8.8139
v  240.7916 -28.4770 20.2604
v  236.4564 -27.8757 16.2923
v  238.4311 -28.1474 16.2923
v  238.4368 -28.1481 15.8512
v  237.8296 -28.0660 15.8509
v  237.0035 -27.9542 15.8505
v  236.9949 -27.9532 5.5287
v  243.3011 -28.8043 15.8537
v  243.3003 -28.8042 16.2923
v  245.1661 -29.0614 16.2923
v  242.7729 -15.1197 20.0981
v  238.3713 -14.7410 16.2923
v  247.1608 -15.5697 16.2923
v  236.9978 -27.9544 15.4750
v  236.7818 -28.1282 15.8505
v  238.7609 -14.8003 15.7998
v  238.9503 -14.8305 15.4243
v  238.3713 -14.7410 15.7998
v  247.1608 -15.5697 15.8544
v  238.9497 -14.8290 15.7998
v  246.6716 -15.5134 4.7902
v  238.9497 -14.8290 5.6200
v  238.9497 -14.8290 5.6980
v  238.3239 -18.9428 11.7522
v  238.3239 -18.9428 13.4999
v  238.3407 -18.9428 15.0612
v  238.1251 -20.2489 6.7600
v  238.3238 -18.9428 5.6776
v  237.9044 -21.6996 5.6344
v  237.9044 -21.6996 8.3707
v  237.9045 -21.6996 9.3560
v  237.9261 -21.5572 9.3560
v  237.9044 -21.6996 6.7600
v  237.9252 -21.5630 10.2437
v  237.9044 -21.6996 10.2416
v  237.9044 -21.6996 11.7522
v  237.7144 -22.9494 11.7522
v  237.7144 -22.9494 10.2416
v  237.6889 -23.1165 10.2437
v  237.6910 -23.1030 9.3560
v  237.7144 -22.9494 9.3560
v  237.7144 -22.9494 8.3707
v  237.4687 -24.5644 8.3707
v  237.4687 -24.5644 10.2615
v  237.7144 -22.9494 6.7600
v  237.7144 -22.9494 5.6452
v  237.4687 -24.5644 5.6340
v  237.4687 -24.5644 6.7600
v  237.9213 -21.6996 15.1134
v  237.7312 -22.9494 15.1134
v  237.4855 -24.5644 15.1516
v  237.1214 -26.8497 6.7600
v  237.1204 -26.8496 5.5500
v  237.1227 -26.8498 8.3707
v  237.1243 -26.8500 10.2615
v  237.1286 -26.8486 15.1516
v  237.1271 -26.8503 13.5903
v  238.1420 -20.2489 15.0612
v  238.8995 -15.1591 5.7111
v  238.9163 -15.1591 15.1516
v  238.3239 -18.9428 8.3707
v  238.3239 -18.9428 10.1690
v  238.5276 -17.6041 5.7141
v  238.5444 -17.6041 15.1516
v  239.0410 -15.1806 5.6934
v  239.0578 -15.1806 15.1516
v  238.7510 -17.0868 10.3711
v  238.7510 -17.0868 8.6367
v  238.7351 -17.1913 7.6686
v  238.7351 -17.1913 5.6850
v  238.6691 -17.6256 5.6755
v  238.6859 -17.6256 15.1516
v  238.9650 -15.6810 10.3711
v  238.9625 -15.6967 5.6923
v  238.9625 -15.6967 7.6686
v  238.9650 -15.6810 8.6367
v  238.9649 -15.6810 11.0657
v  238.9649 -15.6810 14.5771
v  238.7510 -17.0868 14.5771
v  238.7510 -17.0868 11.0657
v  239.1536 -15.7258 7.6686
v  239.1536 -15.7258 5.6911
v  238.9262 -17.2204 7.6686
v  238.9262 -17.2204 5.6824
v  238.9625 -15.6967 5.6200
v  239.0410 -15.1806 5.6200
v  238.8995 -15.1591 5.6200
v  238.3239 -18.9428 6.7600
v  238.3239 -18.9428 5.5847
v  238.5276 -17.6041 5.6200
v  237.9045 -21.6996 5.5288
v  237.4687 -24.5644 5.4870
v  237.7144 -22.9494 5.5146
v  244.6571 -28.9878 4.7902
v  237.8440 -22.9691 10.2396
v  238.0341 -21.7193 10.2396
v  238.0341 -21.7193 11.7522
v  237.1210 -26.8496 5.3880
v  236.9975 -27.9535 5.3288
v  243.2219 -29.4470 16.2923
v  245.0836 -29.6725 16.2923
v  236.2969 -28.5209 16.2923
v  238.3527 -28.7649 16.2923
v  238.3584 -28.7657 15.8513
v  245.0836 -29.6725 15.8544
v  244.7921 -29.2045 15.8544
v  246.8154 -15.5299 15.8544
v  243.2227 -29.4471 15.8537
v  243.8547 -29.0762 15.8540
v  243.8765 -28.8821 15.8540
v  236.2969 -28.5209 15.8505
v  239.1536 -15.7258 5.6200
v  238.9262 -17.2204 5.6200
v  238.7351 -17.1913 5.6200
v  239.1911 -15.7154 8.6367
v  238.9772 -17.1212 8.6367
v  239.1911 -15.7154 10.3711
v  238.9772 -17.1212 10.3711
v  239.1911 -15.7154 11.0657
v  238.9772 -17.1212 11.0657
v  239.1911 -15.7154 14.5771
v  238.9772 -17.1212 14.5771
v  238.6691 -17.6256 5.6200
v  237.6641 -24.5942 6.7600
v  237.3164 -26.8793 6.7600
v  237.6641 -24.5942 8.3707
v  237.3164 -26.8793 8.3707
v  238.0999 -21.7294 6.7600
v  237.9098 -22.9791 6.7600
v  238.0999 -21.7294 8.3707
v  237.9098 -22.9791 8.3707
v  238.5193 -18.9725 6.7600
v  238.3206 -20.2787 6.7600
v  238.5193 -18.9725 8.3707
v  238.3206 -20.2787 8.3707
v  238.1251 -20.2489 8.3707
v  238.4535 -18.9625 10.1690
v  238.1251 -20.2489 10.1690
v  238.2548 -20.2687 10.1690
v  238.4535 -18.9625 11.7522
v  238.2548 -20.2687 11.7522
v  238.1251 -20.2489 11.7522
v  238.4535 -18.9625 13.4999
v  238.1251 -20.2489 13.4999
v  238.2548 -20.2687 13.4999
v  238.4703 -18.9625 15.0612
v  238.2716 -20.2687 15.0612
v  237.8440 -22.9691 11.7522
v  238.0341 -21.7193 13.4999
v  237.9044 -21.6996 13.4999
v  237.7144 -22.9494 13.4999
v  237.8440 -22.9691 13.4999
v  238.0509 -21.7193 15.1134
v  237.8608 -22.9691 15.1134
v  237.5983 -24.5842 10.2615
v  237.2506 -26.8693 10.2615
v  237.5983 -24.5842 11.8688
v  237.4687 -24.5644 11.8688
v  237.2506 -26.8693 11.8688
v  237.1256 -26.8502 11.8688
v  237.5983 -24.5842 13.5903
v  237.4687 -24.5644 13.5903
v  237.2506 -26.8693 13.5903
v  237.6151 -24.5842 15.1516
v  237.2675 -26.8693 15.1516
v  237.8111 -28.2985 15.8510
v  237.8297 -28.0662 15.4754
v  244.6572 -28.9876 15.4788
v  243.8767 -28.8821 15.4784
v  246.6717 -15.5133 15.4788
# 380 vertices

vn 0.0000 0.0000 1.0000
vn -0.9886 0.1504 0.0000
vn 0.9886 -0.1504 0.0000
vn 0.1504 0.9886 0.0000
vn -0.1504 -0.9886 0.0000
vn -0.1476 -0.9886 -0.0310
vn -0.1644 -0.9671 0.1943
vn -0.1731 -0.8147 0.5534
vn -0.1555 -0.5383 0.8283
vn -0.1142 -0.1800 0.9770
vn -0.0555 0.2058 0.9770
vn 0.0116 0.5602 0.8283
vn 0.0770 0.8293 0.5534
vn 0.1306 0.9722 0.1944
vn 0.1306 0.9722 0.1943
vn 0.1530 0.9877 -0.0310
vn -0.9849 0.1493 -0.0880
vn -0.9848 0.1498 -0.0874
vn -0.9848 0.1498 -0.0875
vn -0.9850 0.1485 -0.0874
vn -0.9847 0.1505 -0.0881
vn -0.9848 0.1499 -0.0875
vn -0.9847 0.1498 -0.0885
vn -0.3919 0.0596 0.9181
vn 0.3184 -0.0484 -0.9467
vn 0.1502 0.9886 0.0003
vn 0.0000 0.0000 -1.0000
vn -0.1484 -0.9887 -0.0227
vn 0.1523 0.9881 -0.0227
vn -0.9850 0.1486 -0.0874
vn -0.9848 0.1498 -0.0882
vn 0.9886 -0.1504 -0.0000
vn 0.9913 -0.1317 -0.0000
vn 0.9913 -0.1317 0.0000
vn 0.9890 -0.1476 -0.0041
vn 0.9890 -0.1479 -0.0037
vn 0.9886 -0.1504 -0.0001
vn 0.9886 -0.1504 0.0003
vn 0.9886 -0.1504 0.0001
vn 0.9886 -0.1504 -0.0003
vn 0.0863 0.5672 -0.8190
vn 0.0245 0.1613 -0.9866
vn -0.0245 -0.1613 -0.9866
vn -0.0863 -0.5672 -0.8190
vn -0.1504 -0.9886 -0.0000
vn 0.1504 0.9886 -0.0000
vn -0.1363 -0.9907 -0.0012
vn -0.1382 -0.9904 -0.0000
vn -0.1341 -0.9910 0.0000
vn -0.1338 -0.9910 -0.0000
vn -0.1337 -0.9910 -0.0025
vn -0.1293 -0.9916 0.0000
vn -0.1366 -0.9906 -0.0046
vn -0.6453 0.1049 0.7567
vn -0.6647 0.0969 0.7408
vn 0.6466 -0.0956 0.7568
vn 0.6626 -0.0892 0.7436
vn -0.8843 0.1296 -0.4486
vn -0.8811 0.1293 -0.4548
vn 0.1020 0.9948 -0.0000
vn 0.1184 0.9922 -0.0382
vn 0.0883 0.9961 -0.0000
vn 0.0883 0.9961 0.0000
vn 0.0000 1.0000 0.0000
vn -0.9887 0.1499 0.0001
vn -0.9886 0.1503 -0.0000
vn -0.9886 0.1507 -0.0000
vn -0.9886 0.1507 0.0000
vn -0.9886 0.1504 -0.0000
vn -0.9886 0.1504 -0.0007
vn -0.9936 0.1130 0.0008
vn -0.9936 0.1129 0.0008
vn -0.9858 0.1540 0.0672
vn -0.9862 0.1523 0.0643
vn -0.9877 0.1503 0.0424
vn -0.9953 0.0972 0.0018
vn -0.9892 0.1467 -0.0013
vn -0.9879 0.1552 0.0025
vn -0.9886 0.1503 0.0018
vn -0.1503 -0.9886 0.0003
vn -0.9886 0.1508 0.0000
vn -0.9887 0.1502 0.0018
vn -0.9936 0.1125 0.0000
vn -0.9861 0.1663 0.0018
vn -0.9882 0.1531 0.0000
vn -0.9830 0.1835 -0.0001
vn -0.9832 0.1826 0.0000
vn -0.9882 0.1503 0.0290
vn -0.9882 0.1503 0.0289
vn -0.9927 0.1205 0.0005
vn 0.1504 0.9886 -0.0003
vn 0.1503 0.9886 -0.0003
vn -0.9886 0.1505 0.0001
vn -0.9886 0.1505 -0.0015
vn -0.9886 0.1503 0.0000
vn -0.9886 0.1504 -0.0015
vn -0.9886 0.1507 0.0008
vn 0.9890 -0.1473 0.0101
vn 0.9890 -0.1479 0.0000
vn 0.0154 -0.0024 0.9999
vn 0.0154 -0.0023 0.9999
vn -0.9887 0.1499 -0.0000
vn -0.9886 0.1503 -0.0001
vn -0.9886 0.1507 0.0005
vn -0.9886 0.1504 -0.0001
vn -0.9936 0.1119 -0.0131
vn -0.9936 0.1131 -0.0043
vn 0.0000 -0.0000 1.0000
vn -0.0000 0.0000 1.0000
vn -0.1338 -0.9910 0.0000
vn -0.1338 -0.9910 -0.0003
vn 0.9919 -0.1260 0.0131
vn 0.9920 -0.1259 0.0130
vn 0.0000 -0.0000 -1.0000
vn -0.0000 0.0000 -1.0000
vn -0.9926 0.1211 -0.0017
vn 0.0005 0.0003 -1.0000
vn 0.0004 0.0001 -1.0000
vn 0.0005 -0.0001 -1.0000
vn -0.1179 -0.9930 0.0000
vn -0.1179 -0.9930 0.0002
vn 0.9892 -0.1463 0.0000
vn 0.9910 -0.1338 0.0000
vn 0.9892 -0.1457 0.0169
vn -0.1203 -0.9927 0.0000
vn -0.1503 -0.9886 0.0000
vn -0.0000 -0.0000 1.0000
vn -0.1505 -0.9886 0.0000
vn 0.1507 0.9886 0.0000
vn 0.1506 0.9886 0.0000
vn -0.1505 -0.9886 0.0016
vn 0.1506 0.9886 -0.0016
vn 0.1505 0.9886 -0.0000
vn -0.1504 -0.9886 0.0016
vn 0.1504 0.9886 -0.0016
vn -0.1506 -0.9886 0.0000
vn 0.1514 0.9885 -0.0000
vn 0.1518 0.9884 0.0000
vn -0.1506 -0.9886 0.0016
vn -0.0001 0.0000 -1.0000
vn 0.1522 0.9884 -0.0012
vn 0.1479 0.9890 -0.0016
vn -0.9886 0.1506 -0.0043
vn -0.9886 0.1503 -0.0007
vn -0.9887 0.1497 0.0008
vn -0.9888 0.1490 0.0000
vn -0.9886 0.1504 0.0001
vn -0.9886 0.1505 -0.0000
vn -0.9886 0.1505 0.0000
vn -0.9886 0.1504 0.0106
vn -0.9886 0.1504 0.0103
vn -0.9889 0.1484 0.0008
vn -0.9708 0.2399 0.0000
vn -0.9791 0.1427 0.1449
vn -0.9889 0.1489 0.0000
vn 0.0003 -0.0004 -1.0000
vn 0.0004 -0.0001 -1.0000
vn 0.0005 -0.0002 -1.0000
vn 0.0034 -0.0042 -1.0000
vn -0.0006 -0.0037 -1.0000
vn 0.1504 0.9886 -0.0038
vn 0.9969 -0.0791 0.0004
vn -0.1199 -0.8778 -0.4639
vn -0.1187 -0.8792 -0.4615
vn -0.9938 0.1114 -0.0005
vn 0.1146 0.9934 0.0000
vn 0.9229 -0.1380 -0.3594
vn 0.9054 -0.1340 -0.4028
vn -0.1427 -0.8643 -0.4823
vn -0.1130 -0.8425 -0.5267
vn -0.9885 0.1507 0.0104
vn -0.9886 0.1504 0.0107
vn -0.9885 0.1506 0.0106
vn -0.9885 0.1510 0.0103
vn -0.9890 0.1478 0.0000
vn 0.1146 0.9933 0.0132
vn 0.0883 0.9960 -0.0112
vn 0.9887 -0.1496 -0.0047
vn 0.9886 -0.1504 -0.0050
vn -0.1337 -0.9910 0.0000
vn -0.1340 -0.9910 -0.0001
vn -0.9872 0.1509 0.0508
vn -0.1340 -0.9910 0.0000
vn -0.9883 0.1503 -0.0256
vn -0.9876 0.1527 -0.0362
# 185 vertex normals

vt -0.1572 -3.1996 0.0000
vt 2.3478 -3.1996 0.0000
vt 2.3478 5.0677 0.0000
vt 2.3478 5.0677 0.0000
vt -0.1572 5.0677 0.0000
vt -0.1572 -3.1996 0.0000
vt -2.1603 1.1580 0.0000
vt -2.1603 0.2825 0.0000
vt -1.7853 0.2825 0.0000
vt -1.7853 0.2825 0.0000
vt -1.7853 1.1580 0.0000
vt -2.1603 1.1580 0.0000
vt -1.7853 1.1580 0.0000
vt -1.7853 0.2825 0.0000
vt -1.6418 0.2825 0.0000
vt -1.6418 0.2825 0.0000
vt -1.6418 1.1580 0.0000
vt -1.7853 1.1580 0.0000
vt -1.6418 1.1580 0.0000
vt -1.6418 0.2825 0.0000
vt -1.4983 0.2825 0.0000
vt -1.4983 0.2825 0.0000
vt -1.4983 1.1580 0.0000
vt -1.6418 1.1580 0.0000
vt -1.4983 1.1580 0.0000
vt -1.4983 0.2825 0.0000
vt -1.3547 0.2825 0.0000
vt -1.3547 0.2825 0.0000
vt -1.3547 1.1580 0.0000
vt -1.4983 1.1580 0.0000
vt -1.3547 1.1580 0.0000
vt -1.3547 0.2825 0.0000
vt -1.2112 0.2825 0.0000
vt -1.2112 0.2825 0.0000
vt -1.2112 1.1580 0.0000
vt -1.3547 1.1580 0.0000
vt -1.2112 1.1580 0.0000
vt -1.2112 0.2825 0.0000
vt -1.0677 0.2825 0.0000
vt -1.0677 0.2825 0.0000
vt -1.0677 1.1580 0.0000
vt -1.2112 1.1580 0.0000
vt -1.0677 1.1580 0.0000
vt -1.0677 0.2825 0.0000
vt -0.9241 0.2825 0.0000
vt -0.9241 0.2825 0.0000
vt -0.9241 1.1580 0.0000
vt -1.0677 1.1580 0.0000
vt -0.9241 1.1580 0.0000
vt -0.9241 0.2825 0.0000
vt -0.7806 0.2825 0.0000
vt -0.7806 0.2825 0.0000
vt -0.7806 1.1580 0.0000
vt -0.9241 1.1580 0.0000
vt -0.7806 1.1580 0.0000
vt -0.7806 0.2825 0.0000
vt -0.6371 0.2825 0.0000
vt -0.6371 0.2825 0.0000
vt -0.6371 1.1580 0.0000
vt -0.7806 1.1580 0.0000
vt -0.6371 1.1580 0.0000
vt -0.6371 0.2825 0.0000
vt -0.2621 0.2825 0.0000
vt -0.2621 0.2825 0.0000
vt -0.2621 1.1579 0.0000
vt -0.6371 1.1580 0.0000
vt 0.3188 0.9482 0.0000
vt 0.1566 0.7804 0.0000
vt 0.0482 0.5292 0.0000
vt 0.0101 0.2329 0.0000
vt 0.0147 0.0072 0.0000
vt 1.0056 0.0072 0.0000
vt 0.0482 0.5292 0.0000
vt 0.0101 0.2329 0.0000
vt 1.0056 0.0072 0.0000
vt 1.0056 0.0072 0.0000
vt 1.0101 0.2329 0.0000
vt 0.9721 0.5292 0.0000
vt 0.9721 0.5292 0.0000
vt 0.8637 0.7804 0.0000
vt 0.7015 0.9482 0.0000
vt 1.0056 0.0072 0.0000
vt 0.9721 0.5292 0.0000
vt 0.7015 0.9482 0.0000
vt 0.0482 0.5292 0.0000
vt 1.0056 0.0072 0.0000
vt 0.7015 0.9482 0.0000
vt 0.3188 0.9482 0.0000
vt 0.0482 0.5292 0.0000
vt 0.7015 0.9482 0.0000
vt 0.3188 0.9482 0.0000
vt 0.7015 0.9482 0.0000
vt 0.5101 1.0072 0.0000
vt 1.5524 2.9439 0.0000
vt 1.5524 3.4503 0.0000
vt -0.4910 3.4503 0.0000
vt -0.4910 3.4503 0.0000
vt -0.4910 2.9439 0.0000
vt 1.5524 2.9439 0.0000
vt 0.4588 0.6026 0.0000
vt 0.4588 0.4178 0.0000
vt 0.6436 0.4178 0.0000
vt 0.6436 0.4178 0.0000
vt 0.6436 0.6026 0.0000
vt 0.4588 0.6026 0.0000
vt -0.4910 -0.6364 0.0000
vt -0.4910 -2.6798 0.0000
vt 1.5524 -2.6798 0.0000
vt 1.5524 -2.6798 0.0000
vt 1.5524 -0.6364 0.0000
vt -0.4910 -0.6364 0.0000
vt 1.5524 3.4503 0.0000
vt 1.5524 3.4503 0.0000
vt 1.5524 2.9439 0.0000
vt 1.5524 1.4069 0.0000
vt 3.5958 1.4069 0.0000
vt 3.5958 3.4503 0.0000
vt 1.5524 2.9439 0.0000
vt 1.5524 1.4069 0.0000
vt 3.5958 3.4503 0.0000
vt 1.5524 2.9439 0.0000
vt 1.5524 2.9439 0.0000
vt 3.5958 3.4503 0.0000
vt 1.5524 3.4503 0.0000
vt 1.5524 2.9439 0.0000
vt 3.5958 3.4503 0.0000
vt 1.5524 1.4069 0.0000
vt 1.5524 2.9439 0.0000
vt -0.4910 2.9439 0.0000
vt -0.4910 2.9439 0.0000
vt -0.4910 1.4069 0.0000
vt 1.5524 1.4069 0.0000
vt -0.4910 3.4503 0.0000
vt -2.5343 3.4503 0.0000
vt -2.5343 1.4069 0.0000
vt -2.5343 1.4069 0.0000
vt -0.4910 1.4069 0.0000
vt -0.4910 2.9439 0.0000
vt -0.4910 3.4503 0.0000
vt -2.5343 1.4069 0.0000
vt -0.4910 2.9439 0.0000
vt -0.4910 2.9439 0.0000
vt -0.4910 2.9439 0.0000
vt -0.4910 3.4503 0.0000
vt -0.4910 3.4503 0.0000
vt -0.4910 2.9439 0.0000
vt -0.4910 3.4503 0.0000
vt -0.4910 2.9439 0.0000
vt -0.4910 2.9439 0.0000
vt 1.5524 2.9439 0.0000
vt 1.5524 2.9439 0.0000
vt 1.5524 2.9439 0.0000
vt -0.4910 2.9439 0.0000
vt 0.6973 0.0235 0.0000
vt 0.6973 0.0036 0.0000
vt 0.7171 0.0036 0.0000
vt 0.7171 0.0036 0.0000
vt 0.7171 0.0235 0.0000
vt 0.6973 0.0235 0.0000
vt 0.6973 0.0433 0.0000
vt 0.6973 0.0235 0.0000
vt 0.7171 0.0235 0.0000
vt 0.7171 0.0235 0.0000
vt 0.7171 0.0433 0.0000
vt 0.6973 0.0433 0.0000
vt 0.6973 0.0632 0.0000
vt 0.6973 0.0433 0.0000
vt 0.7171 0.0433 0.0000
vt 0.7171 0.0433 0.0000
vt 0.7171 0.0632 0.0000
vt 0.6973 0.0632 0.0000
vt 0.7171 0.0235 0.0000
vt 0.7171 0.0036 0.0000
vt 0.7370 0.0036 0.0000
vt 0.7370 0.0036 0.0000
vt 0.7370 0.0235 0.0000
vt 0.7171 0.0235 0.0000
vt 0.6774 0.0235 0.0000
vt 0.6774 0.0036 0.0000
vt 0.6973 0.0036 0.0000
vt 0.6973 0.0036 0.0000
vt 0.6973 0.0235 0.0000
vt 0.6774 0.0235 0.0000
vt 0.6973 0.0235 0.0000
vt 0.6973 0.0036 0.0000
vt 0.7171 0.0036 0.0000
vt 0.7171 0.0036 0.0000
vt 0.7171 0.0235 0.0000
vt 0.6973 0.0235 0.0000
vt 0.6973 0.0433 0.0000
vt 0.6973 0.0235 0.0000
vt 0.7171 0.0235 0.0000
vt 0.7171 0.0235 0.0000
vt 0.7171 0.0433 0.0000
vt 0.6973 0.0433 0.0000
vt 0.6973 0.0632 0.0000
vt 0.6973 0.0433 0.0000
vt 0.7171 0.0433 0.0000
vt 0.7171 0.0433 0.0000
vt 0.7171 0.0632 0.0000
vt 0.6973 0.0632 0.0000
vt 0.7171 0.0235 0.0000
vt 0.7171 0.0036 0.0000
vt 0.7370 0.0036 0.0000
vt 0.7370 0.0036 0.0000
vt 0.7370 0.0235 0.0000
vt 0.7171 0.0235 0.0000
vt 0.6774 0.0235 0.0000
vt 0.6774 0.0036 0.0000
vt 0.6973 0.0036 0.0000
vt 0.6973 0.0036 0.0000
vt 0.6973 0.0235 0.0000
vt 0.6774 0.0235 0.0000
vt 0.6973 0.0235 0.0000
vt 0.6973 0.0036 0.0000
vt 0.7171 0.0036 0.0000
vt 0.7171 0.0036 0.0000
vt 0.7171 0.0235 0.0000
vt 0.6973 0.0235 0.0000
vt 0.6973 0.0433 0.0000
vt 0.6973 0.0235 0.0000
vt 0.7171 0.0235 0.0000
vt 0.7171 0.0235 0.0000
vt 0.7171 0.0433 0.0000
vt 0.6973 0.0433 0.0000
vt 0.6973 0.0632 0.0000
vt 0.6973 0.0433 0.0000
vt 0.7171 0.0433 0.0000
vt 0.7171 0.0433 0.0000
vt 0.7171 0.0632 0.0000
vt 0.6973 0.0632 0.0000
vt 0.7171 0.0235 0.0000
vt 0.7171 0.0036 0.0000
vt 0.7370 0.0036 0.0000
vt 0.7370 0.0036 0.0000
vt 0.7370 0.0235 0.0000
vt 0.7171 0.0235 0.0000
vt 0.6774 0.0235 0.0000
vt 0.6774 0.0036 0.0000
vt 0.6973 0.0036 0.0000
vt 0.6973 0.0036 0.0000
vt 0.6973 0.0235 0.0000
vt 0.6774 0.0235 0.0000
vt 0.6973 0.0235 0.0000
vt 0.6973 0.0036 0.0000
vt 0.7171 0.0036 0.0000
vt 0.7171 0.0036 0.0000
vt 0.7171 0.0235 0.0000
vt 0.6973 0.0235 0.0000
vt 0.6973 0.0433 0.0000
vt 0.6973 0.0235 0.0000
vt 0.7171 0.0235 0.0000
vt 0.7171 0.0235 0.0000
vt 0.7171 0.0433 0.0000
vt 0.6973 0.0433 0.0000
vt 0.6973 0.0632 0.0000
vt 0.6973 0.0433 0.0000
vt 0.7171 0.0433 0.0000
vt 0.7171 0.0433 0.0000
vt 0.7171 0.0632 0.0000
vt 0.6973 0.0632 0.0000
vt 0.7171 0.0235 0.0000
vt 0.7171 0.0036 0.0000
vt 0.7370 0.0036 0.0000
vt 0.7370 0.0036 0.0000
vt 0.7370 0.0235 0.0000
vt 0.7171 0.0235 0.0000
vt 0.6774 0.0235 0.0000
vt 0.6774 0.0036 0.0000
vt 0.6973 0.0036 0.0000
vt 0.6973 0.0036 0.0000
vt 0.6973 0.0235 0.0000
vt 0.6774 0.0235 0.0000
vt 0.6973 0.0235 0.0000
vt 0.6973 0.0036 0.0000
vt 0.7171 0.0036 0.0000
vt 0.7171 0.0036 0.0000
vt 0.7171 0.0235 0.0000
vt 0.6973 0.0235 0.0000
vt 0.6973 0.0433 0.0000
vt 0.6973 0.0235 0.0000
vt 0.7171 0.0235 0.0000
vt 0.7171 0.0235 0.0000
vt 0.7171 0.0433 0.0000
vt 0.6973 0.0433 0.0000
vt 0.6973 0.0632 0.0000
vt 0.6973 0.0433 0.0000
vt 0.7171 0.0433 0.0000
vt 0.7171 0.0433 0.0000
vt 0.7171 0.0632 0.0000
vt 0.6973 0.0632 0.0000
vt 0.7171 0.0235 0.0000
vt 0.7171 0.0036 0.0000
vt 0.7370 0.0036 0.0000
vt 0.7370 0.0036 0.0000
vt 0.7370 0.0235 0.0000
vt 0.7171 0.0235 0.0000
vt 0.6774 0.0235 0.0000
vt 0.6774 0.0036 0.0000
vt 0.6973 0.0036 0.0000
vt 0.6973 0.0036 0.0000
vt 0.6973 0.0235 0.0000
vt 0.6774 0.0235 0.0000
vt 0.6973 0.0235 0.0000
vt 0.6973 0.0036 0.0000
vt 0.7171 0.0036 0.0000
vt 0.7171 0.0036 0.0000
vt 0.7171 0.0235 0.0000
vt 0.6973 0.0235 0.0000
vt 0.6973 0.0433 0.0000
vt 0.6973 0.0235 0.0000
vt 0.7171 0.0235 0.0000
vt 0.7171 0.0235 0.0000
vt 0.7171 0.0433 0.0000
vt 0.6973 0.0433 0.0000
vt 0.6973 0.0632 0.0000
vt 0.6973 0.0433 0.0000
vt 0.7171 0.0433 0.0000
vt 0.7171 0.0433 0.0000
vt 0.7171 0.0632 0.0000
vt 0.6973 0.0632 0.0000
vt 0.7171 0.0235 0.0000
vt 0.7171 0.0036 0.0000
vt 0.7370 0.0036 0.0000
vt 0.7370 0.0036 0.0000
vt 0.7370 0.0235 0.0000
vt 0.7171 0.0235 0.0000
vt 0.6774 0.0235 0.0000
vt 0.6774 0.0036 0.0000
vt 0.6973 0.0036 0.0000
vt 0.6973 0.0036 0.0000
vt 0.6973 0.0235 0.0000
vt 0.6774 0.0235 0.0000
vt 0.6973 0.0235 0.0000
vt 0.6973 0.0036 0.0000
vt 0.7171 0.0036 0.0000
vt 0.7171 0.0036 0.0000
vt 0.7171 0.0235 0.0000
vt 0.6973 0.0235 0.0000
vt 0.6973 0.0433 0.0000
vt 0.6973 0.0235 0.0000
vt 0.7171 0.0235 0.0000
vt 0.7171 0.0235 0.0000
vt 0.7171 0.0433 0.0000
vt 0.6973 0.0433 0.0000
vt 0.6973 0.0632 0.0000
vt 0.6973 0.0433 0.0000
vt 0.7171 0.0433 0.0000
vt 0.7171 0.0433 0.0000
vt 0.7171 0.0632 0.0000
vt 0.6973 0.0632 0.0000
vt 0.7171 0.0235 0.0000
vt 0.7171 0.0036 0.0000
vt 0.7370 0.0036 0.0000
vt 0.7370 0.0036 0.0000
vt 0.7370 0.0235 0.0000
vt 0.7171 0.0235 0.0000
vt 0.6774 0.0235 0.0000
vt 0.6774 0.0036 0.0000
vt 0.6973 0.0036 0.0000
vt 0.6973 0.0036 0.0000
vt 0.6973 0.0235 0.0000
vt 0.6774 0.0235 0.0000
vt 0.6973 0.0235 0.0000
vt 0.6973 0.0036 0.0000
vt 0.7171 0.0036 0.0000
vt 0.7171 0.0036 0.0000
vt 0.7171 0.0235 0.0000
vt 0.6973 0.0235 0.0000
vt 0.6973 0.0433 0.0000
vt 0.6973 0.0235 0.0000
vt 0.7171 0.0235 0.0000
vt 0.7171 0.0235 0.0000
vt 0.7171 0.0433 0.0000
vt 0.6973 0.0433 0.0000
vt 0.6973 0.0632 0.0000
vt 0.6973 0.0433 0.0000
vt 0.7171 0.0433 0.0000
vt 0.7171 0.0433 0.0000
vt 0.7171 0.0632 0.0000
vt 0.6973 0.0632 0.0000
vt 0.7171 0.0235 0.0000
vt 0.7171 0.0036 0.0000
vt 0.7370 0.0036 0.0000
vt 0.7370 0.0036 0.0000
vt 0.7370 0.0235 0.0000
vt 0.7171 0.0235 0.0000
vt 0.6774 0.0235 0.0000
vt 0.6774 0.0036 0.0000
vt 0.6973 0.0036 0.0000
vt 0.6973 0.0036 0.0000
vt 0.6973 0.0235 0.0000
vt 0.6774 0.0235 0.0000
vt 0.6973 0.0235 0.0000
vt 0.6973 0.0036 0.0000
vt 0.7171 0.0036 0.0000
vt 0.7171 0.0036 0.0000
vt 0.7171 0.0235 0.0000
vt 0.6973 0.0235 0.0000
vt 0.6973 0.0433 0.0000
vt 0.6973 0.0235 0.0000
vt 0.7171 0.0235 0.0000
vt 0.7171 0.0235 0.0000
vt 0.7171 0.0433 0.0000
vt 0.6973 0.0433 0.0000
vt 0.6973 0.0632 0.0000
vt 0.6973 0.0433 0.0000
vt 0.7171 0.0433 0.0000
vt 0.7171 0.0433 0.0000
vt 0.7171 0.0632 0.0000
vt 0.6973 0.0632 0.0000
vt 0.7171 0.0235 0.0000
vt 0.7171 0.0036 0.0000
vt 0.7370 0.0036 0.0000
vt 0.7370 0.0036 0.0000
vt 0.7370 0.0235 0.0000
vt 0.7171 0.0235 0.0000
vt 0.6774 0.0235 0.0000
vt 0.6774 0.0036 0.0000
vt 0.6973 0.0036 0.0000
vt 0.6973 0.0036 0.0000
vt 0.6973 0.0235 0.0000
vt 0.6774 0.0235 0.0000
vt 0.6973 0.0235 0.0000
vt 0.6973 0.0036 0.0000
vt 0.7171 0.0036 0.0000
vt 0.7171 0.0036 0.0000
vt 0.7171 0.0235 0.0000
vt 0.6973 0.0235 0.0000
vt 0.6973 0.0433 0.0000
vt 0.6973 0.0235 0.0000
vt 0.7171 0.0235 0.0000
vt 0.7171 0.0235 0.0000
vt 0.7171 0.0433 0.0000
vt 0.6973 0.0433 0.0000
vt 0.6973 0.0632 0.0000
vt 0.6973 0.0433 0.0000
vt 0.7171 0.0433 0.0000
vt 0.7171 0.0433 0.0000
vt 0.7171 0.0632 0.0000
vt 0.6973 0.0632 0.0000
vt 0.7171 0.0235 0.0000
vt 0.7171 0.0036 0.0000
vt 0.7370 0.0036 0.0000
vt 0.7370 0.0036 0.0000
vt 0.7370 0.0235 0.0000
vt 0.7171 0.0235 0.0000
vt 0.6774 0.0235 0.0000
vt 0.6774 0.0036 0.0000
vt 0.6973 0.0036 0.0000
vt 0.6973 0.0036 0.0000
vt 0.6973 0.0235 0.0000
vt 0.6774 0.0235 0.0000
vt 0.6973 0.0235 0.0000
vt 0.6973 0.0036 0.0000
vt 0.7171 0.0036 0.0000
vt 0.7171 0.0036 0.0000
vt 0.7171 0.0235 0.0000
vt 0.6973 0.0235 0.0000
vt 0.6973 0.0433 0.0000
vt 0.6973 0.0235 0.0000
vt 0.7171 0.0235 0.0000
vt 0.7171 0.0235 0.0000
vt 0.7171 0.0433 0.0000
vt 0.6973 0.0433 0.0000
vt 0.6973 0.0632 0.0000
vt 0.6973 0.0433 0.0000
vt 0.7171 0.0433 0.0000
vt 0.7171 0.0433 0.0000
vt 0.7171 0.0632 0.0000
vt 0.6973 0.0632 0.0000
vt 0.7171 0.0235 0.0000
vt 0.7171 0.0036 0.0000
vt 0.7370 0.0036 0.0000
vt 0.7370 0.0036 0.0000
vt 0.7370 0.0235 0.0000
vt 0.7171 0.0235 0.0000
vt 0.6774 0.0235 0.0000
vt 0.6774 0.0036 0.0000
vt 0.6973 0.0036 0.0000
vt 0.6973 0.0036 0.0000
vt 0.6973 0.0235 0.0000
vt 0.6774 0.0235 0.0000
vt -2.1603 1.1580 0.0000
vt -2.1603 0.2825 0.0000
vt -1.7853 0.2825 0.0000
vt -1.7853 0.2825 0.0000
vt -1.7853 1.1580 0.0000
vt -2.1603 1.1580 0.0000
vt -1.7853 1.1580 0.0000
vt -1.7853 0.2825 0.0000
vt -1.6418 0.2825 0.0000
vt -1.6418 0.2825 0.0000
vt -1.6418 1.1580 0.0000
vt -1.7853 1.1580 0.0000
vt -1.6418 1.1580 0.0000
vt -1.6418 0.2825 0.0000
vt -1.4983 0.2825 0.0000
vt -1.4983 0.2825 0.0000
vt -1.4983 1.1580 0.0000
vt -1.6418 1.1580 0.0000
vt -1.4983 1.1580 0.0000
vt -1.4983 0.2825 0.0000
vt -1.3547 0.2825 0.0000
vt -1.3547 0.2825 0.0000
vt -1.3547 1.1580 0.0000
vt -1.4983 1.1580 0.0000
vt -1.3547 1.1580 0.0000
vt -1.3547 0.2825 0.0000
vt -1.2112 0.2825 0.0000
vt -1.2112 0.2825 0.0000
vt -1.2112 1.1580 0.0000
vt -1.3547 1.1580 0.0000
vt -1.2112 1.1580 0.0000
vt -1.2112 0.2825 0.0000
vt -1.0677 0.2825 0.0000
vt -1.0677 0.2825 0.0000
vt -1.0677 1.1580 0.0000
vt -1.2112 1.1580 0.0000
vt -1.0677 1.1580 0.0000
vt -1.0677 0.2825 0.0000
vt -0.9241 0.2825 0.0000
vt -0.9241 0.2825 0.0000
vt -0.9241 1.1580 0.0000
vt -1.0677 1.1580 0.0000
vt -0.9241 1.1580 0.0000
vt -0.9241 0.2825 0.0000
vt -0.7806 0.2825 0.0000
vt -0.7806 0.2825 0.0000
vt -0.7806 1.1580 0.0000
vt -0.9241 1.1580 0.0000
vt -0.7806 1.1580 0.0000
vt -0.7806 0.2825 0.0000
vt -0.6371 0.2825 0.0000
vt -0.6371 0.2825 0.0000
vt -0.6371 1.1580 0.0000
vt -0.7806 1.1580 0.0000
vt -0.6371 1.1580 0.0000
vt -0.6371 0.2825 0.0000
vt -0.2621 0.2825 0.0000
vt -0.2621 0.2825 0.0000
vt -0.2621 1.1579 0.0000
vt -0.6371 1.1580 0.0000
vt 0.3188 0.9482 0.0000
vt 0.1566 0.7804 0.0000
vt 0.0482 0.5292 0.0000
vt 0.0101 0.2329 0.0000
vt 0.0147 0.0072 0.0000
vt 1.0056 0.0072 0.0000
vt 0.0482 0.5292 0.0000
vt 0.0101 0.2329 0.0000
vt 1.0056 0.0072 0.0000
vt 1.0056 0.0072 0.0000
vt 1.0101 0.2329 0.0000
vt 0.9721 0.5292 0.0000
vt 0.9721 0.5292 0.0000
vt 0.8637 0.7804 0.0000
vt 0.7015 0.9482 0.0000
vt 1.0056 0.0072 0.0000
vt 0.9721 0.5292 0.0000
vt 0.7015 0.9482 0.0000
vt 0.0482 0.5292 0.0000
vt 1.0056 0.0072 0.0000
vt 0.7015 0.9482 0.0000
vt 0.3188 0.9482 0.0000
vt 0.0482 0.5292 0.0000
vt 0.7015 0.9482 0.0000
vt 0.3188 0.9482 0.0000
vt 0.7015 0.9482 0.0000
vt 0.5101 1.0072 0.0000
vt 2.4856 -2.4288 0.0000
vt -5.0712 -2.4452 0.0000
vt -4.9331 -5.5864 0.0000
vt -4.9331 -5.5864 0.0000
vt 2.6195 -5.6279 0.0000
vt 2.4856 -2.4288 0.0000
vt 2.4519 0.7771 0.0000
vt -5.2180 0.6927 0.0000
vt -5.0712 -2.4452 0.0000
vt -5.0712 -2.4452 0.0000
vt 2.4856 -2.4288 0.0000
vt 2.4519 0.7771 0.0000
vt 0.0000 0.0000 0.0000
vt 0.0000 1.0000 0.0000
vt 1.0000 1.0000 0.0000
vt 1.0000 1.0000 0.0000
vt 1.0000 0.0000 0.0000
vt 0.0000 0.0000 0.0000
vt 34.7422 0.0769 0.0000
vt 34.7385 0.1368 0.0000
vt 35.0953 0.1591 0.0000
vt 35.0953 0.1591 0.0000
vt 35.0988 0.0982 0.0000
vt 34.7422 0.0769 0.0000
vt 35.2263 0.0944 0.0000
vt 35.2222 0.1700 0.0000
vt 35.4508 0.1735 0.0000
vt 35.4508 0.1735 0.0000
vt 35.4546 0.1036 0.0000
vt 35.2263 0.0944 0.0000
vt 33.5161 -1.6094 0.0000
vt 33.5097 -1.6926 0.0000
vt 34.4316 -1.7929 0.0000
vt 34.4316 -1.7929 0.0000
vt 34.4377 -1.7149 0.0000
vt 33.5161 -1.6094 0.0000
vt 31.6167 -1.4136 0.0000
vt 31.6095 -1.5082 0.0000
vt 33.5097 -1.6926 0.0000
vt 33.5097 -1.6926 0.0000
vt 33.5161 -1.6094 0.0000
vt 31.6167 -1.4136 0.0000
vt 29.6418 -1.2248 0.0000
vt 29.6317 -1.3564 0.0000
vt 30.7459 -1.4519 0.0000
vt 30.7459 -1.4519 0.0000
vt 30.7549 -1.3348 0.0000
vt 29.6418 -1.2248 0.0000
vt 8.3336 -0.3655 0.0000
vt 8.2834 -1.0186 0.0000
vt 10.2474 -1.0183 0.0000
vt 16.1006 -1.0173 0.0000
vt 17.9967 -1.0170 0.0000
vt 19.9972 -1.0167 0.0000
vt 15.0256 -1.0175 0.0000
vt 16.1006 -1.0173 0.0000
vt 19.9972 -1.0167 0.0000
vt 13.1294 -1.0178 0.0000
vt 15.0256 -1.0175 0.0000
vt 19.9972 -1.0167 0.0000
vt 12.1435 -1.0180 0.0000
vt 13.1294 -1.0178 0.0000
vt 19.9972 -1.0167 0.0000
vt 10.2474 -1.0183 0.0000
vt 12.1435 -1.0180 0.0000
vt 19.9972 -1.0167 0.0000
vt 8.3336 -0.3655 0.0000
vt 10.2474 -1.0183 0.0000
vt 19.9972 -1.0167 0.0000
vt 8.3336 -0.3655 0.0000
vt 19.9972 -1.0167 0.0000
vt 20.0437 -0.4124 0.0000
vt 2.8593 0.0050 0.0000
vt 2.9579 0.0050 0.0000
vt 2.9579 0.3848 0.0000
vt 1.9702 0.3848 0.0000
vt 1.9702 0.0050 0.0000
vt 2.0578 0.0050 0.0000
vt 2.0578 0.3848 0.0000
vt 1.9702 0.3848 0.0000
vt 2.0578 0.0050 0.0000
vt 2.8593 0.3848 0.0000
vt 2.0578 0.3848 0.0000
vt 2.0578 0.0050 0.0000
vt 2.9579 0.3848 0.0000
vt 2.8593 0.3848 0.0000
vt 2.0578 0.0050 0.0000
vt 2.8593 0.0050 0.0000
vt 2.9579 0.3848 0.0000
vt 2.0578 0.0050 0.0000
vt 28.0710 -1.0153 0.0000
vt 26.9174 -0.8805 0.0000
vt 26.9047 -1.0461 0.0000
vt 26.9047 -1.0461 0.0000
vt 28.0599 -1.1605 0.0000
vt 28.0710 -1.0153 0.0000
vt 0.6293 0.9982 0.0000
vt 0.7992 0.9982 0.0000
vt 0.8068 0.9982 0.0000
vt 0.8068 0.9982 0.0000
vt 0.6365 0.9982 0.0000
vt 0.6293 0.9982 0.0000
vt 20.0437 -0.4124 0.0000
vt 19.9972 -1.0167 0.0000
vt 26.9047 -1.0461 0.0000
vt 26.9047 -1.0461 0.0000
vt 26.9174 -0.8805 0.0000
vt 20.0437 -0.4124 0.0000
vt 0.0056 0.9982 0.0000
vt 0.0000 0.9982 0.0000
vt 0.1842 0.9982 0.0000
vt 0.1842 0.9982 0.0000
vt 0.1913 0.9982 0.0000
vt 0.0056 0.9982 0.0000
vt 0.1847 -0.0000 0.0000
vt 0.1918 -0.0000 0.0000
vt 0.1913 0.9982 0.0000
vt 0.1913 0.9982 0.0000
vt 0.1842 0.9982 0.0000
vt 0.1847 -0.0000 0.0000
vt 0.6293 0.9982 0.0000
vt 0.6365 0.9982 0.0000
vt 0.6366 -0.0000 0.0000
vt 0.6366 -0.0000 0.0000
vt 0.6294 -0.0000 0.0000
vt 0.6293 0.9982 0.0000
vt 0.6871 -0.0000 0.0000
vt 0.7726 -0.0000 0.0000
vt 0.7992 -0.0000 0.0000
vt 0.6871 -0.0000 0.0000
vt 0.7992 -0.0000 0.0000
vt 0.6294 -0.0000 0.0000
vt 0.6294 -0.0000 0.0000
vt 0.6366 -0.0000 0.0000
vt 0.6891 -0.0000 0.0000
vt 0.6871 -0.0000 0.0000
vt 0.6294 -0.0000 0.0000
vt 0.6891 -0.0000 0.0000
vt 0.0000 0.9982 0.0000
vt 0.0000 -0.0000 0.0000
vt 0.1847 -0.0000 0.0000
vt 0.1847 -0.0000 0.0000
vt 0.1842 0.9982 0.0000
vt 0.0000 0.9982 0.0000
vt 1.0000 -0.0000 0.0000
vt 1.0000 0.9982 0.0000
vt 0.8068 0.9982 0.0000
vt 0.8068 0.9982 0.0000
vt 0.7992 0.9982 0.0000
vt 0.7992 -0.0000 0.0000
vt 1.0000 -0.0000 0.0000
vt 0.8068 0.9982 0.0000
vt 0.7992 -0.0000 0.0000
vt 0.6293 0.9982 0.0000
vt 0.6294 -0.0000 0.0000
vt 0.7992 -0.0000 0.0000
vt 0.7992 -0.0000 0.0000
vt 0.7992 0.9982 0.0000
vt 0.6293 0.9982 0.0000
vt 34.5665 0.1366 0.0000
vt 34.7385 0.1368 0.0000
vt 34.7422 0.0769 0.0000
vt 34.7422 0.0769 0.0000
vt 34.5698 0.0825 0.0000
vt 34.5665 0.1366 0.0000
vt 0.5904 0.9132 0.0000
vt 0.5893 0.9284 0.0000
vt 0.5846 0.9284 0.0000
vt 0.5846 0.9284 0.0000
vt 0.5862 0.9132 0.0000
vt 0.5904 0.9132 0.0000
vt 8.0073 0.0000 0.0000
vt 7.0073 0.0000 0.0000
vt 7.0073 1.0000 0.0000
vt 7.0073 1.0000 0.0000
vt 8.0073 1.0000 0.0000
vt 8.0073 0.0000 0.0000
vt 8.0073 0.0123 0.0000
vt 7.0073 0.0123 0.0000
vt 7.0073 1.9884 0.0000
vt 7.0073 1.9884 0.0000
vt 8.0073 1.9884 0.0000
vt 8.0073 0.0123 0.0000
vt 0.5895 0.9550 0.0000
vt 0.5851 0.9550 0.0000
vt 0.5846 0.9284 0.0000
vt 0.5846 0.9284 0.0000
vt 0.5893 0.9284 0.0000
vt 0.5895 0.9550 0.0000
vt 34.4377 -1.7149 0.0000
vt 34.4316 -1.7929 0.0000
vt 34.5617 -1.7601 0.0000
vt 34.5617 -1.7601 0.0000
vt 34.5650 -1.7178 0.0000
vt 34.4377 -1.7149 0.0000
vt 35.2263 0.0944 0.0000
vt 35.0988 0.0982 0.0000
vt 35.0953 0.1591 0.0000
vt 35.0953 0.1591 0.0000
vt 35.2222 0.1700 0.0000
vt 35.2263 0.0944 0.0000
vt 29.6418 -1.2248 0.0000
vt 28.0710 -1.0153 0.0000
vt 28.0599 -1.1605 0.0000
vt 28.0599 -1.1605 0.0000
vt 29.6317 -1.3564 0.0000
vt 29.6418 -1.2248 0.0000
vt 31.6167 -1.4136 0.0000
vt 30.7549 -1.3348 0.0000
vt 30.7459 -1.4519 0.0000
vt 30.7459 -1.4519 0.0000
vt 31.6095 -1.5082 0.0000
vt 31.6167 -1.4136 0.0000
vt 3.0008 0.0000 0.0000
vt 2.0008 0.0000 0.0000
vt 2.0008 1.0000 0.0000
vt 2.0008 1.0000 0.0000
vt 3.0008 1.0000 0.0000
vt 3.0008 0.0000 0.0000
vt 2.0008 0.0000 0.0000
vt 3.0008 0.0000 0.0000
vt 3.0008 1.0000 0.0000
vt 3.0008 1.0000 0.0000
vt 2.0008 1.0000 0.0000
vt 2.0008 0.0000 0.0000
vt 4.0027 0.0000 0.0000
vt 5.0027 0.0000 0.0000
vt 5.0027 1.0000 0.0000
vt 5.0027 1.0000 0.0000
vt 4.0027 1.0000 0.0000
vt 4.0027 0.0000 0.0000
vt 4.0027 0.0000 0.0000
vt 5.0027 0.0000 0.0000
vt 5.0027 1.0000 0.0000
vt 5.0027 1.0000 0.0000
vt 4.0027 1.0000 0.0000
vt 4.0027 0.0000 0.0000
vt 4.0027 0.0000 0.0000
vt 5.0027 0.0000 0.0000
vt 5.0027 1.0000 0.0000
vt 5.0027 1.0000 0.0000
vt 4.0027 1.0000 0.0000
vt 4.0027 0.0000 0.0000
vt 2.0578 0.3848 0.0000
vt 2.8593 0.3848 0.0000
vt 2.8593 1.0061 0.0000
vt 2.8593 1.0061 0.0000
vt 2.0578 1.0061 0.0000
vt 2.0578 0.3848 0.0000
vt 2.0008 0.0000 0.0000
vt 3.0008 0.0000 0.0000
vt 3.0008 1.0000 0.0000
vt 3.0008 1.0000 0.0000
vt 2.0008 1.0000 0.0000
vt 2.0008 0.0000 0.0000
vt 3.0008 0.0000 0.0000
vt 2.0008 0.0000 0.0000
vt 2.0008 1.0000 0.0000
vt 2.0008 1.0000 0.0000
vt 3.0008 1.0000 0.0000
vt 3.0008 0.0000 0.0000
vt 3.0008 0.0000 0.0000
vt 2.0008 0.0000 0.0000
vt 2.0008 1.0000 0.0000
vt 2.0008 1.0000 0.0000
vt 3.0008 1.0000 0.0000
vt 3.0008 0.0000 0.0000
vt 0.0000 -0.0000 0.0000
vt 0.0000 0.9982 0.0000
vt 0.0056 0.9982 0.0000
vt 0.0000 -0.0000 0.0000
vt 0.0056 0.9982 0.0000
vt 0.1979 0.9981 0.0000
vt 0.0000 -0.0000 0.0000
vt 0.1979 0.9981 0.0000
vt 0.1979 -0.0000 0.0000
vt 0.1847 -0.0000 0.0000
vt 0.0000 -0.0000 0.0000
vt 0.0419 -0.0000 0.0000
vt 0.1847 -0.0000 0.0000
vt 0.0419 -0.0000 0.0000
vt 0.1347 -0.0000 0.0000
vt 0.1347 -0.0000 0.0000
vt 0.1364 -0.0000 0.0000
vt 0.1918 -0.0000 0.0000
vt 0.1847 -0.0000 0.0000
vt 0.1347 -0.0000 0.0000
vt 0.1918 -0.0000 0.0000
vt 0.0419 -0.0000 0.0000
vt 0.0000 -0.0000 0.0000
vt 0.1979 -0.0000 0.0000
vt 0.1979 -0.0000 0.0000
vt 0.2334 -0.0000 0.0000
vt 0.0419 -0.0000 0.0000
vt 0.2334 -0.0000 0.0000
vt 0.2506 -0.0000 0.0000
vt 0.2506 -0.0000 0.0000
vt 0.1364 -0.0000 0.0000
vt 0.1347 -0.0000 0.0000
vt 0.1364 -0.0000 0.0000
vt 0.0000 0.0000 0.0000
vt 0.0000 1.0000 0.0000
vt 1.0000 1.0000 0.0000
vt 1.0000 1.0000 0.0000
vt 1.0000 0.0000 0.0000
vt 0.0000 0.0000 0.0000
vt 0.0000 1.0000 0.0000
vt 1.0000 1.0000 0.0000
vt 1.0000 0.0000 0.0000
vt 0.9554 -0.0000 0.0000
vt 0.9685 -0.0000 0.0000
vt 0.9554 -0.0000 0.0000
vt 1.0000 0.0000 0.0000
vt 0.0000 0.0000 0.0000
vt 0.0000 1.0000 0.0000
vt 0.0000 1.0000 0.0000
vt 1.0000 1.0000 0.0000
vt 1.0000 0.0000 0.0000
vt 0.0000 1.0000 0.0000
vt 1.0000 1.0000 0.0000
vt 1.0000 0.0000 0.0000
vt 1.0000 0.0000 0.0000
vt 0.0000 0.0000 0.0000
vt 0.0000 1.0000 0.0000
vt 0.0024 0.0305 0.0000
vt 0.0024 1.0000 0.0000
vt 1.0024 1.0000 0.0000
vt 1.0024 0.0347 0.0000
vt 1.0024 -0.0000 0.0000
vt 0.0024 -0.0000 0.0000
vt 1.0024 1.0000 0.0000
vt 1.0024 0.0347 0.0000
vt 0.0024 -0.0000 0.0000
vt 0.0024 0.0305 0.0000
vt 1.0024 1.0000 0.0000
vt 0.0024 -0.0000 0.0000
vt 1.5314 -2.4082 -0.1440
vt 1.5314 -3.4282 -0.1440
vt 2.3985 -3.4282 -0.1720
vt 2.3985 -2.4082 -0.1720
vt 0.7373 -2.4082 -0.5445
vt 0.7373 -3.4282 -0.5445
vt -1.4116 -2.4082 0.2347
vt -1.4116 -3.4282 0.2347
vt 0.1047 2.4163 2.2888
vt 0.4599 2.4163 2.3003
vt 0.7473 2.4639 2.3096
vt 0.8571 2.5408 2.3131
vt -0.2925 2.5408 2.2760
vt -0.1827 2.4639 2.2796
vt 0.8571 4.0637 2.3131
vt -0.2925 4.0637 2.2760
vt 2.4130 2.5408 0.8539
vt 2.4130 4.0637 0.8539
vt 2.4094 0.7441 2.4639
vt 2.4002 0.4567 2.4163
vt 2.3887 0.1015 2.4163
vt 2.3794 -0.1859 2.4639
vt 2.3758 -0.2957 2.5408
vt -1.3758 4.0637 -0.2957
vt -2.0398 4.0637 2.2196
vt -2.0398 2.5408 2.2196
vt -0.8902 2.5408 2.2567
vt -0.8902 4.0637 2.2567
vt -1.6426 2.4163 2.2324
vt -1.2874 2.4163 2.2439
vt -1.0000 2.4639 2.2532
vt -1.9300 2.4639 2.2231
vt 2.3437 -1.2906 2.4163
vt 2.3530 -1.0032 2.4639
vt 2.3322 -1.6459 2.4163
vt 2.3229 -1.9333 2.4639
vt 2.3194 -2.0430 2.5408
vt -1.3194 4.0637 -2.0430
vt -1.3565 -0.8934 4.0637
vt 2.3565 2.5408 -0.8934
vt 1.5088 4.0637 2.3342
vt 1.5088 2.5408 2.3342
vt 2.6584 2.5408 2.3713
vt 2.6584 4.0637 2.3713
vt 1.9060 2.4163 2.3470
vt 2.2612 2.4163 2.3585
vt 2.5486 2.4639 2.3678
vt 1.6186 2.4639 2.3378
vt 2.4340 1.5056 2.5408
vt 2.4376 1.6154 2.4639
vt -1.4340 4.0637 1.5056
vt -1.4712 2.6552 4.0637
vt 2.4712 2.5408 2.6552
vt 2.4676 2.5454 2.4639
vt 2.4583 2.2580 2.4163
vt 2.4469 1.9028 2.4163
vt 0.4286 -3.3069 3.6753
vt 2.6147 -1.3229 3.7747
vt 1.6192 -1.3229 3.7283
vt 1.6163 -1.1023 3.7282
vt 1.9223 -1.1022 3.7432
vt 2.3386 -1.1020 3.7634
vt 2.3429 4.0589 3.7638
vt -1.5183 4.0637 3.5742
vt -0.8349 -1.1036 3.6076
vt -0.8345 -1.3229 3.6076
vt -1.7752 -1.3229 3.5640
vt -1.6732 -1.0766 -2.8635
vt -1.8701 -1.0766 -2.8572
vt -1.8701 -1.3229 -2.8572
vt 0.3283 -3.2258 -3.0721
vt 2.5265 -1.3229 -3.2506
vt 2.5265 -1.1039 -3.2506
vt -1.5777 -1.0766 -2.8666
vt 2.2809 4.0637 -3.2337
vt 2.2809 4.4282 -3.2337
vt -1.5777 4.0133 -2.8666
vt 2.2810 -1.1039 -3.2338
vt -1.5777 3.9743 -2.8666
vt -1.5106 0.9472 -0.7871
vt -1.5106 0.0734 -0.7871
vt -1.5023 -0.7073 -0.7887
vt 1.1269 3.4433 -1.4893
vt 1.7871 3.9845 -1.5106
vt 0.3936 4.0061 -1.4656
vt 0.3936 2.6379 -1.4656
vt 0.3936 2.1453 -1.4655
vt 0.4656 2.1453 -1.4679
vt 0.3936 3.4433 -1.4656
vt 0.4626 1.7014 -1.4678
vt 0.3936 1.7025 -1.4656
vt 0.3936 0.9472 -1.4656
vt -0.2382 0.9472 -1.4451
vt -0.2382 1.7025 -1.4451
vt -0.3227 1.7014 -1.4424
vt -0.3158 2.1453 -1.4426
vt -0.2382 2.1453 -1.4451
vt -0.2382 2.6379 -1.4451
vt -1.0545 2.6379 -1.4188
vt -1.0545 1.6925 -1.4188
vt -0.2382 3.4433 -1.4451
vt -0.2382 4.0007 -1.4451
vt -1.0545 4.0063 -1.4188
vt -1.0545 3.4433 -1.4188
vt 0.3951 -0.7334 -1.4573
vt -0.2366 -0.7334 -1.4369
vt -1.0530 -0.7525 -1.4105
vt -2.2097 3.4433 -1.3813
vt -2.2097 4.0483 -1.3818
vt -2.2096 2.6379 -1.3806
vt -2.2096 1.6925 -1.3798
vt -2.2085 -0.7525 -1.3779
vt -2.2095 0.0281 -1.3785
vt 1.1284 -0.7073 -1.4810
vt 3.6998 3.9677 -1.5723
vt 3.7013 -0.7525 -1.5641
vt -1.5106 2.6379 -0.7871
vt -1.5106 1.7388 -0.7871
vt 2.4638 3.9662 -1.5324
vt 2.4654 -0.7525 -1.5242
vt 2.5008 3.9766 -2.7021
vt 2.4926 -0.7525 -2.7036
vt 2.7385 1.6378 -1.4697
vt 2.7385 2.5049 -1.4697
vt 2.6857 2.9890 -1.4680
vt 2.6857 3.9808 -1.4680
vt 2.4661 3.9855 -1.4609
vt 2.4677 -0.7525 -1.4526
vt 3.4491 1.6378 -1.4926
vt 3.4412 3.9772 -1.4924
vt 3.4412 2.9890 -1.4924
vt 3.4491 2.5049 -1.4926
vt 3.4491 1.2904 -1.4927
vt 3.4491 -0.4653 -1.4927
vt 2.7385 -0.4653 -1.4697
vt 2.7385 1.2904 -1.4697
vt 2.3958 2.9890 -2.4443
vt 2.3958 3.9778 -2.4443
vt -1.3714 2.9890 -1.6888
vt -1.3714 3.9821 -1.6888
vt 1.7871 3.4433 -1.5106
vt 2.3796 1.2361 1.7035
vt 2.4001 0.6043 1.7035
vt 2.4001 0.9472 0.6043
vt 2.7903 3.8720 -1.1039
vt 2.6044 3.6684 -1.1039
vt 2.3531 -3.2387 -1.1039
vt 2.3783 -2.4528 2.5049
vt 2.3553 -1.7422 2.5049
vt 2.3783 1.6378 -2.4528
vt -1.3553 -1.7422 1.6378
vt 2.3783 -2.4528 1.2904
vt 2.3553 -1.7422 1.2904
vt 2.3783 -0.4653 -2.4528
vt -1.3554 -1.7422 -0.4653
vt 2.3200 2.0514 3.4433
vt 2.2827 3.2065 3.4433
vt 2.3200 2.6379 2.0514
vt -1.2827 3.2065 2.6379
vt 2.3668 0.6032 3.4433
vt 2.3464 1.2350 3.4433
vt 2.3668 2.6379 0.6032
vt -1.3464 1.2350 2.6379
vt 2.4118 -0.7903 3.4433
vt 2.3904 -0.1301 3.4433
vt 2.4118 2.6379 -0.7903
vt -1.3904 -0.1301 2.6379
vt -1.4893 -0.1269 2.6379
vt 2.4451 -0.7892 1.7388
vt 2.4893 -0.1269 1.7388
vt 2.4237 -0.1290 1.7388
vt 2.4451 0.9472 -0.7892
vt -1.4237 -0.1290 0.9472
vt -1.4893 -0.1269 0.9472
vt 2.4451 -0.7892 0.0734
vt 2.4893 -0.1269 0.0734
vt 2.4237 -0.1290 0.0734
vt 2.4368 -0.7073 -0.7908
vt -1.4155 -0.1305 -0.7073
vt -1.3796 1.2360 0.9472
vt 2.4001 0.6043 0.0734
vt 2.4656 0.6064 0.0734
vt 2.4451 1.2382 0.0734
vt 2.3796 1.2360 0.0734
vt 2.3918 -0.7334 0.6028
vt -1.3714 1.2345 -0.7334
vt 2.3533 2.0524 1.6925
vt 2.3160 3.2076 1.6925
vt 2.3533 0.8889 2.0524
vt 2.4188 0.8889 2.0545
vt -1.3160 3.2076 0.8889
vt -1.3792 3.2095 0.8889
vt 2.3533 2.0524 0.0281
vt 2.4188 2.0545 0.0281
vt 2.3160 3.2076 0.0281
vt 2.3450 -0.7525 2.0509
vt -1.3077 3.2060 -0.7525
vt -1.5183 -1.1039 3.5741
vt -1.1249 -1.1037 3.5934
vt 1.1440 -2.4082 -0.5314
vt 1.1440 -3.4282 -0.5314
vt 1.1440 -2.4082 -0.5314
vt -0.5445 -3.4282 0.2627
vt -0.5445 -2.4082 0.2627
vt -0.5445 -3.4282 0.2627
vt -0.1720 -2.4082 -1.3985
vt -0.1720 -3.4282 -1.3985
vt 0.2347 -3.4282 -1.4116
vt 0.2347 -3.4282 -1.4116
vt 0.2347 -2.4082 -1.4116
vt -0.1720 -2.4082 -1.3985
vt 2.3131 4.0637 0.8571
vt 2.3131 4.0637 0.8571
vt 2.3131 2.5408 0.8571
vt 2.4130 0.8539 2.5408
vt 2.3131 0.8571 2.5408
vt 2.3131 0.8571 2.5408
vt 2.3096 0.7473 2.4639
vt 2.3096 0.7473 2.4639
vt 2.3096 0.7473 2.4639
vt 2.3003 0.4599 2.4163
vt 2.3003 0.4599 2.4163
vt 2.3003 0.4599 2.4163
vt 2.2888 0.1047 2.4163
vt 2.2888 0.1047 2.4163
vt 2.2888 0.1047 2.4163
vt 2.2796 -0.1827 2.4639
vt 2.2796 -0.1827 2.4639
vt 2.2796 -0.1827 2.4639
vt 2.2760 -0.2925 2.5408
vt -1.3758 2.5408 -0.2957
vt -1.2760 2.5408 -0.2925
vt -1.2760 2.5408 -0.2925
vt -1.2760 4.0637 -0.2925
vt -1.4130 0.8539 4.0637
vt -1.3758 -0.2957 4.0637
vt -1.2760 -0.2925 4.0637
vt -1.2760 -0.2925 4.0637
vt -1.3131 0.8571 4.0637
vt -1.4130 0.8539 4.0637
vt 2.2532 -1.0000 2.4639
vt 2.2532 -1.0000 2.4639
vt 2.2439 -1.2874 2.4163
vt 2.2439 -1.2874 2.4163
vt 2.2439 -1.2874 2.4163
vt 2.2324 -1.6426 2.4163
vt 2.2324 -1.6426 2.4163
vt 2.2324 -1.6426 2.4163
vt 2.2231 -1.9300 2.4639
vt 2.2231 -1.9300 2.4639
vt 2.2231 -1.9300 2.4639
vt 2.2196 -2.0398 2.5408
vt -1.3194 2.5408 -2.0430
vt -1.2196 2.5408 -2.0398
vt -1.2196 2.5408 -2.0398
vt -1.2196 4.0637 -2.0398
vt -1.3194 -2.0430 4.0637
vt -1.2196 -2.0398 4.0637
vt -1.2196 -2.0398 4.0637
vt -1.2567 -0.8902 4.0637
vt 2.3565 4.0637 -0.8934
vt 2.2567 4.0637 -0.8902
vt 2.2567 4.0637 -0.8902
vt 2.2567 2.5408 -0.8902
vt 2.3565 -0.8934 2.5408
vt 2.2567 -0.8902 2.5408
vt 2.2567 -0.8902 2.5408
vt 2.2532 -1.0000 2.4639
vt 2.3378 1.6186 2.4639
vt 2.3378 1.6186 2.4639
vt 2.3342 1.5088 2.5408
vt -1.4340 2.5408 1.5056
vt -1.3342 2.5408 1.5088
vt -1.3342 2.5408 1.5088
vt -1.3342 4.0637 1.5088
vt -1.4340 1.5056 4.0637
vt -1.3342 1.5088 4.0637
vt -1.3342 1.5088 4.0637
vt -1.3713 2.6584 4.0637
vt 2.4712 4.0637 2.6552
vt 2.3713 4.0637 2.6584
vt 2.3713 4.0637 2.6584
vt 2.3713 2.5408 2.6584
vt 2.4712 2.6552 2.5408
vt 2.3713 2.6584 2.5408
vt 2.3713 2.6584 2.5408
vt 2.3678 2.5486 2.4639
vt 2.3678 2.5486 2.4639
vt 2.3678 2.5486 2.4639
vt 2.3585 2.2612 2.4163
vt 2.3585 2.2612 2.4163
vt 2.3585 2.2612 2.4163
vt 2.3470 1.9060 2.4163
vt 2.3470 1.9060 2.4163
vt 2.3470 1.9060 2.4163
vt 2.3378 1.6186 2.4639
vt -2.7638 4.0589 -1.3429
vt -2.7638 4.0589 -1.3429
vt -2.7638 4.0589 -1.3429
vt -2.7634 -1.1020 -1.3386
vt -2.7634 -1.1020 -1.3386
vt -2.7634 -1.1020 -1.3386
vt 1.7887 -0.7073 -1.5023
vt -2.7634 -1.1020 -1.3386
vt 3.8666 -1.0766 -1.5777
vt 3.8666 3.9743 -1.5777
vt 3.8666 -1.0766 -1.5777
vt -2.7634 -1.1020 -1.3386
vt 3.8666 -1.0766 -1.5777
vt 1.7887 -0.7073 -1.5023
vt 1.7871 2.6379 -1.5106
vt 1.7887 -0.7073 -1.5023
vt 1.7887 -0.7073 -1.5023
vt 2.5641 -0.7525 -2.7013
vt 2.5641 -0.7525 -2.7013
vt 2.5723 3.9677 -2.6998
vt 3.7036 -0.7525 -1.4926
vt 3.7021 3.9766 -1.5008
vt 3.7036 -0.7525 -1.4926
vt 3.7036 -0.7525 -1.4926
vt 3.7036 -0.7525 -1.4926
vt 2.4924 2.9890 -2.4412
vt 2.4924 3.9772 -2.4412
vt 2.4924 3.9772 -2.4412
vt -1.4680 3.9808 -1.6857
vt -1.4680 3.9808 -1.6857
vt -1.4680 2.9890 -1.6857
vt -1.5242 -0.7525 -1.4654
vt -1.4526 -0.7525 -1.4677
vt -1.4609 3.9855 -1.4661
vt -1.4609 3.9855 -1.4661
vt -1.5324 3.9662 -1.4638
vt -1.5242 -0.7525 -1.4654
vt 2.4451 1.2382 1.7025
vt 2.4656 0.6064 1.7025
vt 2.4451 1.2382 1.7025
vt 2.4656 0.9472 0.6064
vt 2.4656 1.7025 0.6064
vt 2.4656 1.7025 0.6064
vt 2.4001 1.7035 0.6043
vt 2.5265 -3.2506 -1.1039
vt 2.5265 -3.2506 -1.1039
vt -1.3714 -1.6888 2.9890
vt -1.4680 -1.6857 2.9890
vt -1.4924 -2.4412 2.9890
vt -1.4924 -2.4412 2.9890
vt -1.3958 -2.4443 2.9890
vt -1.3714 -1.6888 2.9890
vt 2.4926 -2.4491 2.5049
vt 2.4697 -1.7385 2.5049
vt 2.4697 -1.7385 2.5049
vt 2.4926 1.6378 -2.4491
vt 2.4926 2.5049 -2.4491
vt 2.4926 2.5049 -2.4491
vt 2.3783 2.5049 -2.4528
vt -1.4697 -1.7385 1.6378
vt -1.4926 -2.4491 1.6378
vt -1.4926 -2.4491 1.6378
vt -1.3783 -2.4528 1.6378
vt -1.3553 2.5049 -1.7422
vt -1.4697 2.5049 -1.7385
vt -1.4697 1.6378 -1.7385
vt -1.4697 1.6378 -1.7385
vt -1.3553 1.6378 -1.7422
vt -1.3553 2.5049 -1.7422
vt 2.4927 -2.4491 1.2904
vt 2.4697 -1.7385 1.2904
vt 2.4697 -1.7385 1.2904
vt 2.4927 -0.4653 -2.4491
vt 2.4927 1.2904 -2.4491
vt 2.4927 1.2904 -2.4491
vt 2.3783 1.2904 -2.4528
vt -1.4697 -1.7385 -0.4653
vt -1.4927 -2.4491 -0.4653
vt -1.4927 -2.4491 -0.4653
vt -1.3783 -2.4528 -0.4653
vt -1.3553 1.2904 -1.7422
vt -1.4697 1.2904 -1.7385
vt -1.4697 -0.4653 -1.7385
vt -1.4697 -0.4653 -1.7385
vt -1.3554 -0.4653 -1.7422
vt -1.3553 1.2904 -1.7422
vt -1.4926 -2.7036 -0.7525
vt -1.4526 -1.4677 -0.7525
vt -1.5242 -1.4654 -0.7525
vt -1.5242 -1.4654 -0.7525
vt -1.5641 -2.7013 -0.7525
vt -1.4926 -2.7036 -0.7525
vt 2.4188 2.0545 3.4433
vt 2.3813 3.2097 3.4433
vt 2.3813 3.2097 3.4433
vt 2.4188 2.6379 2.0545
vt 2.4188 3.4433 2.0545
vt 2.4188 3.4433 2.0545
vt 2.3200 3.4433 2.0514
vt -1.3806 3.2096 2.6379
vt -1.4188 2.0545 2.6379
vt -1.4188 2.0545 2.6379
vt -1.3200 2.0514 2.6379
vt -1.2827 3.4433 3.2065
vt -1.3813 3.4433 3.2097
vt -1.3806 2.6379 3.2096
vt -1.3806 2.6379 3.2096
vt -1.2827 2.6379 3.2065
vt -1.2827 3.4433 3.2065
vt 2.4656 0.6064 3.4433
vt 2.4451 1.2382 3.4433
vt 2.4451 1.2382 3.4433
vt 2.4656 2.6379 0.6064
vt 2.4656 3.4433 0.6064
vt 2.4656 3.4433 0.6064
vt 2.3668 3.4433 0.6032
vt -1.4451 1.2382 2.6379
vt -1.4656 0.6064 2.6379
vt -1.4656 0.6064 2.6379
vt -1.3668 0.6032 2.6379
vt -1.3464 3.4433 1.2350
vt -1.4451 3.4433 1.2382
vt -1.4451 2.6379 1.2382
vt -1.4451 2.6379 1.2382
vt -1.3464 2.6379 1.2350
vt -1.3464 3.4433 1.2350
vt 2.5106 -0.7871 3.4433
vt 2.4893 -0.1269 3.4433
vt 2.4893 -0.1269 3.4433
vt 2.5106 2.6379 -0.7871
vt 2.5106 3.4433 -0.7871
vt 2.5106 3.4433 -0.7871
vt 2.4118 3.4433 -0.7903
vt -1.5106 -0.7871 2.6379
vt -1.5106 -0.7871 2.6379
vt -1.4118 -0.7903 2.6379
vt -1.3904 3.4433 -0.1301
vt -1.4893 3.4433 -0.1269
vt -1.4893 2.6379 -0.1269
vt -1.4893 2.6379 -0.1269
vt -1.3904 2.6379 -0.1301
vt -1.3904 3.4433 -0.1301
vt 2.5106 -0.7871 1.7388
vt 2.5106 0.9472 -0.7871
vt 2.5106 1.7388 -0.7871
vt 2.5106 1.7388 -0.7871
vt 2.4451 1.7388 -0.7892
vt -1.5106 -0.7871 0.9472
vt -1.5106 -0.7871 0.9472
vt -1.4451 -0.7892 0.9472
vt -1.4237 1.7388 -0.1290
vt -1.4893 1.7388 -0.1269
vt -1.4893 0.9472 -0.1269
vt -1.4893 0.9472 -0.1269
vt -1.4237 0.9472 -0.1290
vt -1.4237 1.7388 -0.1290
vt 2.5106 -0.7871 0.0734
vt 2.5023 -0.7073 -0.7887
vt 2.5106 0.0734 -0.7871
vt 2.5106 0.0734 -0.7871
vt 2.4451 0.0734 -0.7892
vt -1.4810 -0.1284 -0.7073
vt -1.5023 -0.7887 -0.7073
vt -1.5023 -0.7887 -0.7073
vt -1.4368 -0.7908 -0.7073
vt -1.4237 0.0734 -0.1290
vt -1.4893 0.0734 -0.1269
vt -1.4810 -0.7073 -0.1284
vt -1.4810 -0.7073 -0.1284
vt -1.4155 -0.7073 -0.1305
vt -1.4237 0.0734 -0.1290
vt -1.4451 1.2382 0.9472
vt -1.4656 0.6064 0.9472
vt -1.4656 0.6064 0.9472
vt -1.4001 0.6043 0.9472
vt -1.3796 0.9472 1.2360
vt -1.3796 1.7035 1.2361
vt -1.4451 1.7025 1.2382
vt -1.4451 1.7025 1.2382
vt -1.4451 0.9472 1.2382
vt -1.3796 0.9472 1.2360
vt 2.4573 -0.7334 0.6049
vt 2.4656 0.0734 0.6064
vt 2.4656 0.0734 0.6064
vt 2.4001 0.0734 0.6043
vt -1.4369 1.2366 -0.7334
vt -1.4573 0.6049 -0.7334
vt -1.4573 0.6049 -0.7334
vt -1.3918 0.6028 -0.7334
vt -1.3796 0.0734 1.2360
vt -1.4451 0.0734 1.2382
vt -1.4369 -0.7334 1.2366
vt -1.4369 -0.7334 1.2366
vt -1.3714 -0.7334 1.2345
vt -1.3796 0.0734 1.2360
vt 2.4188 2.0545 1.6925
vt 2.3798 3.2096 1.6925
vt 2.3798 3.2096 1.6925
vt 2.4188 1.6925 2.0545
vt 2.4188 1.6925 2.0545
vt 2.3533 1.6925 2.0524
vt -1.4188 2.0545 0.8889
vt -1.4188 2.0545 0.8889
vt -1.3533 2.0524 0.8889
vt -1.3160 1.6925 3.2076
vt -1.3798 1.6925 3.2096
vt -1.3792 0.8889 3.2095
vt -1.3792 0.8889 3.2095
vt -1.3160 0.8889 3.2076
vt -1.3160 1.6925 3.2076
vt 2.3785 3.2095 0.0281
vt 2.3785 3.2095 0.0281
vt 2.4105 -0.7525 2.0530
vt 2.4188 0.0281 2.0545
vt 2.4188 0.0281 2.0545
vt 2.3533 0.0281 2.0524
vt -1.3779 3.2085 -0.7525
vt -1.4105 2.0530 -0.7525
vt -1.4105 2.0530 -0.7525
vt -1.3450 2.0509 -0.7525
vt -1.3160 0.0281 3.2076
vt -1.3785 0.0281 3.2095
vt -1.3779 -0.7525 3.2085
vt -1.3779 -0.7525 3.2085
vt -1.3077 -0.7525 3.2060
vt -1.3160 0.0281 3.2076
vt 1.7871 2.6379 -1.5106
vt 1.1269 2.6379 -1.4893
vt 1.1269 1.7388 -1.4893
vt 1.7871 0.9472 -1.5106
vt 1.1269 0.9472 -1.4893
vt 1.1269 0.0734 -1.4893
vt 1.1269 0.0734 -1.4893
vt 1.7871 0.0734 -1.5106
vt 1.7871 0.9472 -1.5106
vt -0.2382 0.0734 -1.4451
vt -0.2382 0.0734 -1.4451
vt 0.3936 0.0734 -1.4656
vt -1.0545 0.8889 -1.4188
vt -2.2095 0.8889 -1.3792
vt 0.3936 0.0734 -1.4656
vt 1.1269 0.0734 -1.4893
vt 0.3936 0.0734 -1.4656
vt -1.0545 0.0281 -1.4188
vt -0.2382 0.0734 -1.4451
vt -1.0545 0.0281 -1.4188
vt -1.0545 0.8889 -1.4188
vt -1.0545 0.0281 -1.4188
vt -1.0545 0.8889 -1.4188
vt -1.0545 0.0281 -1.4188
vt -0.2382 0.0734 -1.4451
vt -1.0545 0.8889 -1.4188
vt -0.2382 0.0734 -1.4451
vt 1.1269 2.6379 -1.4893
vt 1.1269 1.7388 -1.4893
vt 1.1269 1.7388 -1.4893
vt 1.1269 1.7388 -1.4893
vt 1.1269 2.6379 -1.4893
vt 1.1269 0.9472 -1.4893
vt 1.1269 0.9472 -1.4893
vt 1.1269 1.7388 -1.4893
vt 0.3936 0.0734 -1.4656
vt 1.1269 0.0734 -1.4893
vt 1.1269 0.9472 -1.4893
vt 1.1269 0.9472 -1.4893
vt 0.3936 0.0734 -1.4656
vt 1.7871 2.6379 -1.5106
vt 1.7871 2.6379 -1.5106
vt 1.1269 1.7388 -1.4893
vt 1.7871 1.7388 -1.5106
vt -2.7638 4.0589 -1.3429
vt -2.7634 -1.1020 -1.3386
vt -2.7634 -1.1020 -1.3386
vt -2.2095 0.8889 -1.3792
vt -2.2095 0.8889 -1.3792
vt -2.7634 -1.1020 -1.3386
vt 3.7021 3.9766 -1.5008
vt 3.7021 3.9766 -1.5008
vt 2.3531 -1.1039 -3.2387
vt 2.3531 -1.1039 -3.2387
vt -2.7634 -1.1020 -1.3386
vt 3.8666 -1.0766 -1.5777
vt 3.8666 -1.0766 -1.5777
vt 1.7887 -0.7073 -1.5023
vt -1.0545 0.8889 -1.4188
vt -1.0545 0.8889 -1.4188
vt 1.4001 -3.2508 2.0438
vt 1.4001 -3.2961 2.0430
vt 2.2676 -3.2963 2.0559
vt 2.2676 -3.2510 2.0567
vt -0.4062 -3.2890 1.6362
vt -0.4062 -3.2437 1.6370
vt -1.2736 -3.2439 1.6498
vt -1.2736 -3.2892 1.6491
vt -1.8686 2.7607 -0.3410
vt -1.8686 4.2834 -0.3144
vt -3.0598 4.2830 -0.2968
vt -3.0598 -0.8837 -0.3870
vt 3.7512 -0.8817 -0.5054
vt 3.7513 4.2851 -0.4152
vt 2.8316 4.2846 -0.3842
vt 2.8316 2.7620 -0.4107
vt 2.7218 2.6850 -0.4105
vt 2.0789 2.6373 -0.4017
vt 0.6322 2.6369 -0.3803
vt 0.2768 2.6368 -0.3750
vt -1.1158 2.6365 -0.3544
vt 1.6815 2.7617 -0.3937
vt 1.6815 4.2843 -0.3671
vt 1.0295 4.2841 -0.3574
vt 1.0295 2.7615 -0.3840
vt 1.7913 2.6848 -0.3967
vt 0.9197 2.6845 -0.3837
vt -0.1205 2.7612 -0.3670
vt -0.1205 4.2838 -0.3404
vt -0.7185 4.2837 -0.3315
vt -0.7185 2.7610 -0.3581
vt -0.0107 2.6843 -0.3699
vt -0.8283 2.6841 -0.3578
vt -1.4712 2.6364 -0.3491
vt -1.7587 2.6838 -0.3440
vt 2.4342 2.6374 -0.4070
vt -1.0559 -3.2963 2.2676
vt -0.6491 -3.2892 2.2736
vt -0.6498 -3.2439 2.2736
vt -0.6498 -3.2439 2.2736
vt -1.0567 -3.2510 2.2676
vt -1.0559 -3.2963 2.2676
vt 2.0438 -3.2508 1.4001
vt 1.6370 -3.2437 1.4062
vt 1.6362 -3.2890 1.4062
vt 1.6362 -3.2890 1.4062
vt 2.0430 -3.2961 1.4001
vt 2.0438 -3.2508 1.4001
# 1536 texture coords

g Myyrivahe_29
usemtl lambert14SG
s off
f 1/1/1 2/2/1 3/3/1 
f 3/4/1 4/5/1 1/6/1 
usemtl lambert13SG
f 5/1489/2 1/1490/2 4/1491/2 
f 4/1491/2 6/1492/2 5/1489/2 
f 2/1493/3 7/1494/3 8/1495/3 
f 8/1495/3 3/1496/3 2/1493/3 
f 4/1525/4 3/1526/4 8/1527/4 
f 8/1528/4 6/1529/4 4/1530/4 
f 5/1531/5 7/1532/5 2/1533/5 
f 2/1534/5 1/1535/5 5/1536/5 
usemtl lambert2SG
f 9/907/2 5/908/2 6/909/2 
f 6/909/2 10/910/2 9/907/2 
f 9/1106/5 11/911/5 7/912/5 
f 7/912/5 5/1107/5 9/1108/5 
f 7/1109/3 11/1110/3 12/913/3 
f 12/913/3 8/914/3 7/1111/3 
f 10/1112/4 6/1113/4 8/1114/4 
f 8/1115/4 12/1116/4 10/1117/4 
usemtl lambert8SG
f 13/7/6 14/8/6 15/9/6 
f 15/10/6 16/11/6 13/12/6 
f 16/13/7 15/14/7 17/15/7 
f 17/16/7 18/17/7 16/18/7 
f 18/19/8 17/20/8 19/21/8 
f 19/22/8 20/23/8 18/24/8 
f 20/25/9 19/26/9 21/27/9 
f 21/28/9 22/29/9 20/30/9 
f 22/31/10 21/32/10 23/33/10 
f 23/34/10 24/35/10 22/36/10 
f 24/37/11 23/38/11 25/39/11 
f 25/40/11 26/41/11 24/42/11 
f 26/43/12 25/44/12 27/45/12 
f 27/46/12 28/47/12 26/48/12 
f 28/49/13 27/50/13 29/51/13 
f 29/52/13 30/53/13 28/54/13 
f 30/55/14 29/56/14 31/57/14 
f 31/58/15 32/59/15 30/60/15 
f 32/61/16 31/62/16 33/63/16 
f 33/64/16 34/65/16 32/66/16 
usemtl lambert11SG
f 26/67/17 28/68/17 30/69/17 
f 32/70/18 34/71/18 13/72/18 
f 30/73/19 32/74/19 13/75/19 
f 13/76/20 16/77/20 18/78/20 
f 18/79/21 20/80/21 22/81/21 
f 13/82/22 18/83/22 22/84/22 
f 30/85/19 13/86/19 22/87/19 
f 26/88/19 30/89/19 22/90/19 
f 26/91/23 22/92/23 24/93/23 
usemtl lambert17SG
f 35/94/24 36/95/24 37/96/24 
f 37/97/24 38/98/24 35/99/24 
f 39/100/2 40/101/2 41/102/2 
f 41/103/2 42/104/2 39/105/2 
f 42/106/25 43/107/25 44/108/25 
f 44/109/25 39/110/25 42/111/25 
f 45/112/5 36/113/5 35/114/5 
f 40/115/5 39/116/5 44/117/5 
f 46/118/5 40/119/5 44/120/5 
f 35/121/5 46/122/5 44/123/5 
f 45/124/5 35/125/5 44/126/5 
f 40/127/24 46/128/24 47/129/24 
f 47/130/24 41/131/24 40/132/24 
f 48/133/4 43/134/4 42/135/4 
f 42/136/4 41/137/4 47/138/4 
f 48/139/26 42/140/26 47/141/26 
f 47/142/4 38/143/4 37/144/4 
f 48/145/4 47/146/4 37/147/4 
f 38/148/2 47/149/2 46/150/2 
f 46/151/2 35/152/2 38/153/2 
f 49/154/1 50/155/1 51/156/1 
f 51/157/1 52/158/1 49/159/1 
f 53/160/2 49/161/2 52/162/2 
f 52/163/2 54/164/2 53/165/2 
f 55/166/27 53/167/27 54/168/27 
f 54/169/27 56/170/27 55/171/27 
f 52/172/4 51/173/4 56/174/4 
f 56/175/4 54/176/4 52/177/4 
f 53/178/5 55/179/5 50/180/5 
f 50/181/5 49/182/5 53/183/5 
f 57/184/1 58/185/1 59/186/1 
f 59/187/1 60/188/1 57/189/1 
f 61/190/2 57/191/2 60/192/2 
f 60/193/2 62/194/2 61/195/2 
f 63/196/27 61/197/27 62/198/27 
f 62/199/27 64/200/27 63/201/27 
f 60/202/4 59/203/4 64/204/4 
f 64/205/4 62/206/4 60/207/4 
f 61/208/5 63/209/5 58/210/5 
f 58/211/5 57/212/5 61/213/5 
f 65/214/1 66/215/1 67/216/1 
f 67/217/1 68/218/1 65/219/1 
f 69/220/2 65/221/2 68/222/2 
f 68/223/2 70/224/2 69/225/2 
f 71/226/27 69/227/27 70/228/27 
f 70/229/27 72/230/27 71/231/27 
f 68/232/4 67/233/4 72/234/4 
f 72/235/4 70/236/4 68/237/4 
f 69/238/5 71/239/5 66/240/5 
f 66/241/5 65/242/5 69/243/5 
f 73/244/1 74/245/1 75/246/1 
f 75/247/1 76/248/1 73/249/1 
f 77/250/2 73/251/2 76/252/2 
f 76/253/2 78/254/2 77/255/2 
f 79/256/27 77/257/27 78/258/27 
f 78/259/27 80/260/27 79/261/27 
f 76/262/4 75/263/4 80/264/4 
f 80/265/4 78/266/4 76/267/4 
f 77/268/5 79/269/5 74/270/5 
f 74/271/5 73/272/5 77/273/5 
f 81/274/1 82/275/1 83/276/1 
f 83/277/1 84/278/1 81/279/1 
f 85/280/2 81/281/2 84/282/2 
f 84/283/2 86/284/2 85/285/2 
f 87/286/27 85/287/27 86/288/27 
f 86/289/27 88/290/27 87/291/27 
f 84/292/4 83/293/4 88/294/4 
f 88/295/4 86/296/4 84/297/4 
f 85/298/5 87/299/5 82/300/5 
f 82/301/5 81/302/5 85/303/5 
f 89/304/1 90/305/1 91/306/1 
f 91/307/1 92/308/1 89/309/1 
f 93/310/2 89/311/2 92/312/2 
f 92/313/2 94/314/2 93/315/2 
f 95/316/27 93/317/27 94/318/27 
f 94/319/27 96/320/27 95/321/27 
f 92/322/4 91/323/4 96/324/4 
f 96/325/4 94/326/4 92/327/4 
f 93/328/5 95/329/5 90/330/5 
f 90/331/5 89/332/5 93/333/5 
f 97/334/1 98/335/1 99/336/1 
f 99/337/1 100/338/1 97/339/1 
f 101/340/2 97/341/2 100/342/2 
f 100/343/2 102/344/2 101/345/2 
f 103/346/27 101/347/27 102/348/27 
f 102/349/27 104/350/27 103/351/27 
f 100/352/4 99/353/4 104/354/4 
f 104/355/4 102/356/4 100/357/4 
f 101/358/5 103/359/5 98/360/5 
f 98/361/5 97/362/5 101/363/5 
f 105/364/1 106/365/1 107/366/1 
f 107/367/1 108/368/1 105/369/1 
f 109/370/2 105/371/2 108/372/2 
f 108/373/2 110/374/2 109/375/2 
f 111/376/27 109/377/27 110/378/27 
f 110/379/27 112/380/27 111/381/27 
f 108/382/4 107/383/4 112/384/4 
f 112/385/4 110/386/4 108/387/4 
f 109/388/5 111/389/5 106/390/5 
f 106/391/5 105/392/5 109/393/5 
f 113/394/1 114/395/1 115/396/1 
f 115/397/1 116/398/1 113/399/1 
f 117/400/2 113/401/2 116/402/2 
f 116/403/2 118/404/2 117/405/2 
f 119/406/27 117/407/27 118/408/27 
f 118/409/27 120/410/27 119/411/27 
f 116/412/4 115/413/4 120/414/4 
f 120/415/4 118/416/4 116/417/4 
f 117/418/5 119/419/5 114/420/5 
f 114/421/5 113/422/5 117/423/5 
f 121/424/1 122/425/1 123/426/1 
f 123/427/1 124/428/1 121/429/1 
f 125/430/2 121/431/2 124/432/2 
f 124/433/2 126/434/2 125/435/2 
f 127/436/27 125/437/27 126/438/27 
f 126/439/27 128/440/27 127/441/27 
f 124/442/4 123/443/4 128/444/4 
f 128/445/4 126/446/4 124/447/4 
f 125/448/5 127/449/5 122/450/5 
f 122/451/5 121/452/5 125/453/5 
f 129/454/1 130/455/1 131/456/1 
f 131/457/1 132/458/1 129/459/1 
f 133/460/2 129/461/2 132/462/2 
f 132/463/2 134/464/2 133/465/2 
f 135/466/27 133/467/27 134/468/27 
f 134/469/27 136/470/27 135/471/27 
f 132/472/4 131/473/4 136/474/4 
f 136/475/4 134/476/4 132/477/4 
f 133/478/5 135/479/5 130/480/5 
f 130/481/5 129/482/5 133/483/5 
usemtl lambert8SG
f 137/484/28 138/485/28 139/486/28 
f 139/487/28 140/488/28 137/489/28 
f 140/490/7 139/491/7 141/492/7 
f 141/493/7 142/494/7 140/495/7 
f 142/496/8 141/497/8 143/498/8 
f 143/499/8 144/500/8 142/501/8 
f 144/502/9 143/503/9 145/504/9 
f 145/505/9 146/506/9 144/507/9 
f 146/508/10 145/509/10 147/510/10 
f 147/511/10 148/512/10 146/513/10 
f 148/514/11 147/515/11 149/516/11 
f 149/517/11 150/518/11 148/519/11 
f 150/520/12 149/521/12 151/522/12 
f 151/523/12 152/524/12 150/525/12 
f 152/526/13 151/527/13 153/528/13 
f 153/529/13 154/530/13 152/531/13 
f 154/532/14 153/533/14 155/534/14 
f 155/535/15 156/536/15 154/537/15 
f 156/538/29 155/539/29 157/540/29 
f 157/541/29 158/542/29 156/543/29 
usemtl lambert11SG
f 150/544/17 152/545/17 154/546/17 
f 156/547/18 158/548/18 137/549/18 
f 154/550/22 156/551/22 137/552/22 
f 137/553/30 140/554/30 142/555/30 
f 142/556/21 144/557/21 146/558/21 
f 137/559/22 142/560/22 146/561/22 
f 154/562/19 137/563/19 146/564/19 
f 150/565/19 154/566/19 146/567/19 
f 150/568/31 146/569/31 148/570/31 
usemtl lambert13SG
f 159/1497/32 160/1498/32 161/1499/32 
f 159/1497/32 161/1499/32 162/1500/32 
f 163/1501/33 164/1502/33 165/1503/33 
f 163/1501/34 165/1503/34 166/1504/34 
f 163/1501/35 166/1504/35 167/1505/35 
f 162/1500/36 163/1501/36 168/1506/36 
f 162/1500/32 168/1506/32 169/1507/32 
f 162/1500/32 169/1507/32 170/1508/32 
f 162/1500/32 170/1508/32 171/1509/32 
f 172/1510/3 173/1511/3 174/1512/3 
f 172/1510/3 174/1512/3 175/1513/3 
f 176/1514/32 172/1510/32 175/1513/32 
f 168/1506/37 176/1514/37 175/1513/37 
f 168/1506/3 175/1513/3 177/1515/3 
f 168/1506/37 177/1515/37 169/1507/37 
f 178/1516/32 179/1517/32 180/1518/32 
f 178/1516/32 180/1518/32 181/1519/32 
f 182/1520/32 178/1516/32 181/1519/32 
f 170/1508/38 182/1520/38 181/1519/38 
f 170/1508/3 181/1519/3 183/1521/3 
f 170/1508/39 183/1521/39 171/1509/39 
f 162/1500/3 171/1509/3 184/1522/3 
f 162/1500/32 184/1522/32 185/1523/32 
f 159/1497/32 162/1500/32 185/1523/32 
usemtl lambert2SG
f 186/915/40 187/916/40 188/917/40 
f 188/917/3 189/918/3 190/919/3 
f 186/915/32 188/917/32 190/919/32 
f 186/915/32 190/919/32 191/920/32 
f 189/918/3 192/921/3 193/922/3 
f 175/923/4 174/924/4 192/1118/4 
f 192/1119/4 189/1120/4 175/923/4 
f 177/925/41 175/1121/41 189/1122/41 
f 189/1123/41 188/1124/41 177/925/41 
f 169/926/42 177/925/42 188/1125/42 
f 188/1126/42 187/1127/42 169/926/42 
f 170/927/27 169/926/27 187/1128/27 
f 187/1129/27 186/1130/27 170/927/27 
f 182/928/43 170/927/43 186/1131/43 
f 186/1132/43 191/1133/43 182/928/43 
f 178/929/44 182/928/44 191/1134/44 
f 191/1135/44 190/1136/44 178/929/44 
f 179/930/5 178/1137/5 190/1138/5 
f 190/919/3 189/918/3 193/922/3 
f 179/930/5 190/1139/5 193/1140/5 
f 174/1141/1 179/1142/1 193/1143/1 
f 193/1144/1 192/1145/1 174/1146/1 
f 194/931/3 195/932/3 196/933/3 
f 196/933/3 197/934/3 194/931/3 
f 198/935/40 199/936/40 200/937/40 
f 200/937/3 196/933/3 195/932/3 
f 198/935/32 200/937/32 195/932/32 
f 198/935/32 195/932/32 201/938/32 
f 171/939/42 183/940/42 200/1147/42 
f 200/1148/42 199/1149/42 171/939/42 
f 184/941/27 171/939/27 199/1150/27 
f 199/1151/27 198/1152/27 184/941/27 
f 185/942/43 184/941/43 198/1153/43 
f 198/1154/43 201/1155/43 185/942/43 
f 159/943/44 185/942/44 201/1156/44 
f 201/1157/44 195/1158/44 159/943/44 
f 160/944/45 159/1159/45 195/1160/45 
f 195/1161/5 194/1162/5 160/944/5 
f 180/945/1 160/1163/1 194/1164/1 
f 194/1165/1 197/1166/1 180/945/1 
f 181/946/4 180/1167/4 197/1168/4 
f 197/1169/4 196/1170/4 181/946/4 
f 183/940/41 181/1171/41 196/1172/41 
f 196/1173/41 200/1174/41 183/940/41 
f 202/947/3 203/948/3 204/949/3 
f 204/949/3 205/950/3 202/947/3 
f 206/951/40 207/952/40 208/953/40 
f 208/953/3 204/949/3 203/948/3 
f 206/951/32 208/953/32 203/948/32 
f 206/951/32 203/948/32 209/954/32 
f 172/955/44 176/956/44 209/1175/44 
f 209/1176/44 203/1177/44 172/955/44 
f 173/957/5 172/1178/5 203/1179/5 
f 203/1180/5 202/1181/5 173/957/5 
f 165/958/1 173/1182/1 202/1183/1 
f 202/1184/1 205/1185/1 165/958/1 
f 166/959/46 165/1186/46 205/1187/46 
f 205/1188/4 204/1189/4 166/959/4 
f 167/960/41 166/1190/41 204/1191/41 
f 204/1192/41 208/1193/41 167/960/41 
f 210/961/42 167/960/42 208/1194/42 
f 208/1195/42 207/1196/42 210/961/42 
f 168/962/27 210/961/27 207/1197/27 
f 207/1198/27 206/1199/27 168/962/27 
f 176/956/43 168/962/43 206/1200/43 
f 206/1201/43 209/1202/43 176/956/43 
f 211/963/47 212/964/47 213/965/47 
f 211/963/48 213/965/48 214/966/48 
f 215/967/49 216/968/49 217/969/49 
f 217/969/50 164/970/50 215/967/50 
f 211/963/51 214/966/51 218/971/51 
f 211/963/52 218/971/52 219/972/52 
f 211/963/53 219/972/53 220/973/53 
usemtl lambert8SG
f 211/571/54 221/572/54 222/573/54 
f 222/574/55 212/575/55 211/576/55 
f 220/577/56 223/578/56 221/579/56 
f 221/580/57 211/581/57 220/582/57 
usemtl lambert15SG
f 224/583/58 225/584/58 226/585/58 
f 226/586/59 227/587/59 224/588/59 
usemtl lambert2SG
f 226/974/4 228/975/4 222/976/4 
f 221/977/60 223/978/60 229/979/60 
f 222/976/61 221/977/61 230/980/61 
f 161/981/62 231/982/62 232/983/62 
f 162/984/62 161/981/62 232/983/62 
f 162/984/63 232/983/63 233/985/63 
f 162/984/63 233/985/63 230/980/63 
f 226/974/4 222/976/4 230/980/4 
f 234/986/64 235/987/64 236/988/64 
f 237/989/2 238/990/2 239/991/2 
f 240/992/65 241/993/65 242/994/65 
f 243/995/2 237/989/2 239/991/2 
f 244/996/66 245/997/66 246/998/66 
f 247/999/67 248/1000/67 249/1001/67 
f 250/1002/68 251/1003/68 252/1004/68 
f 252/1004/2 253/1005/2 254/1006/2 
f 250/1002/69 252/1004/69 254/1006/69 
f 250/1002/69 254/1006/69 249/1001/69 
f 255/1007/2 256/1008/2 257/1009/2 
f 255/1007/2 257/1009/2 258/1010/2 
f 259/1011/70 260/1012/70 261/1013/70 
f 262/1014/71 263/1015/71 217/1203/71 
f 264/1016/71 262/1014/71 217/1204/71 
f 265/1017/72 264/1016/72 217/1205/72 
f 216/1206/71 266/1018/71 267/1019/71 
f 261/1013/73 266/1018/73 216/1207/73 
f 268/1020/74 259/1011/74 216/1208/74 
f 236/1209/75 268/1020/75 216/1210/75 
f 230/1211/2 233/1212/2 269/1021/2 
f 230/1213/76 269/1021/76 270/1022/76 
f 216/1214/77 230/1215/77 236/1216/77 
f 271/1023/64 272/1024/64 236/988/64 
f 273/1025/78 271/1217/78 236/1218/78 
f 274/1026/79 273/1025/79 236/1219/79 
f 234/986/64 236/988/64 272/1024/64 
f 275/1027/80 276/1028/80 270/1220/80 
f 270/1221/80 269/1222/80 275/1027/80 
f 277/1029/81 278/1030/81 279/1031/81 
f 280/1032/82 281/1033/82 282/1034/82 
f 279/1031/83 280/1032/83 282/1034/83 
f 276/1223/84 275/1224/84 283/1035/84 
f 284/1036/85 285/1037/85 286/1038/85 
f 276/1225/86 283/1035/86 287/1039/86 
f 276/1226/87 287/1039/87 288/1040/87 
f 282/1034/88 276/1227/88 288/1040/88 
f 282/1034/89 288/1040/89 289/1041/89 
f 279/1031/90 282/1034/90 289/1041/90 
f 279/1031/81 289/1041/81 290/1042/81 
f 277/1029/81 279/1031/81 290/1042/81 
f 291/1043/5 285/1228/5 284/1229/5 
f 284/1230/5 292/1044/5 291/1043/5 
f 293/1045/4 294/1046/4 280/1231/4 
f 280/1232/4 279/1233/4 293/1045/4 
usemtl lambert12SG
f 295/589/2 284/590/2 275/591/2 
f 275/592/2 296/593/2 295/594/2 
usemtl lambert2SG
f 274/1234/91 282/1235/91 281/1236/91 
f 281/1237/92 273/1238/92 274/1239/92 
usemtl lambert12SG
f 297/595/2 269/596/2 233/597/2 
f 233/598/2 232/599/2 297/600/2 
usemtl lambert2SG
f 237/989/93 298/1047/93 238/990/93 
usemtl lambert12SG
f 299/601/94 238/602/94 273/603/94 
f 273/604/2 300/605/2 299/606/2 
usemtl lambert2SG
f 243/995/95 239/991/95 256/1008/95 
f 256/1008/95 255/1007/95 243/995/95 
usemtl lambert12SG
f 301/607/70 239/608/70 238/609/70 
f 238/610/96 299/611/96 301/612/96 
usemtl lambert2SG
f 262/1014/95 258/1010/95 257/1009/95 
f 257/1009/97 263/1015/97 262/1014/97 
usemtl lambert12SG
f 302/613/2 257/614/2 256/615/2 
f 256/616/2 303/617/2 302/618/2 
f 231/619/3 161/620/3 160/621/3 
f 173/622/1 165/623/1 164/624/1 
f 174/625/1 173/626/1 164/627/1 
f 179/628/1 174/629/1 164/630/1 
f 180/631/1 179/632/1 164/633/1 
f 160/634/1 180/635/1 164/636/1 
f 231/637/98 160/638/98 164/639/98 
f 231/640/99 164/641/99 304/642/99 
usemtl lambert2SG
f 248/1240/100 305/1048/100 306/1049/100 
f 306/1049/101 245/1241/101 248/1242/101 
f 307/1050/5 246/1243/5 245/1244/5 
f 245/1245/5 306/1246/5 307/1050/5 
usemtl lambert6SG
f 251/643/67 250/644/67 249/645/67 
f 244/646/102 242/647/102 241/648/102 
f 245/649/103 244/650/103 241/651/103 
f 248/652/103 245/653/103 241/654/103 
f 249/655/104 248/656/104 241/657/104 
f 251/658/105 249/659/105 241/660/105 
usemtl lambert12SG
f 308/661/106 309/662/106 217/663/106 
f 217/664/107 263/665/107 308/666/107 
usemtl lambert9SG
f 310/667/108 311/668/108 220/669/108 
f 220/670/109 219/671/109 310/672/109 
usemtl lambert12SG
f 304/673/110 164/674/110 217/675/110 
f 217/676/111 309/677/111 304/678/111 
usemtl lambert9SG
f 212/679/109 312/680/109 313/681/109 
f 313/682/1 213/683/1 212/684/1 
f 314/685/112 214/686/112 213/687/112 
f 213/688/113 313/689/113 314/690/113 
usemtl lambert2SG
f 229/1247/114 315/1051/114 316/1052/114 
f 316/1052/115 317/1053/115 229/1248/115 
usemtl lambert9SG
f 310/691/116 219/692/116 218/693/116 
f 218/694/116 318/695/116 310/696/116 
f 319/697/117 316/698/117 315/699/117 
f 319/700/118 315/701/118 318/702/118 
f 318/703/119 218/704/119 320/705/119 
f 319/706/118 318/707/118 320/708/118 
f 312/709/120 321/710/120 314/711/120 
f 314/712/121 313/713/121 312/714/121 
usemtl lambert10SG
f 229/715/122 223/716/122 220/717/122 
f 220/718/123 311/719/123 315/720/123 
f 229/721/124 220/722/124 315/723/124 
usemtl lambert9SG
f 310/724/125 318/725/125 315/726/125 
f 315/727/125 311/728/125 310/729/125 
usemtl lambert12SG
f 292/730/5 284/731/5 295/732/5 
f 295/733/5 322/734/5 292/735/5 
usemtl lambert2SG
f 293/1249/27 279/1250/27 285/1251/27 
f 285/1252/27 291/1253/27 293/1254/27 
usemtl lambert12SG
f 323/736/4 324/737/4 280/738/4 
f 280/739/4 294/740/4 323/741/4 
usemtl lambert2SG
f 325/1054/1 286/1255/1 278/1256/1 
f 278/1257/1 326/1055/1 325/1054/1 
f 327/1056/5 283/1258/5 286/1259/5 
f 286/1260/5 325/1261/5 327/1056/5 
f 328/1057/27 277/1262/27 283/1263/27 
f 283/1264/27 327/1265/27 328/1057/27 
f 326/1266/4 278/1267/4 277/1268/4 
f 277/1269/4 328/1270/4 326/1271/4 
f 329/1058/1 287/1272/1 290/1273/1 
f 290/1274/1 330/1059/1 329/1058/1 
f 331/1060/5 288/1275/5 287/1276/5 
f 287/1277/5 329/1278/5 331/1060/5 
f 332/1061/27 289/1279/27 288/1280/27 
f 288/1281/27 331/1282/27 332/1061/27 
f 330/1283/4 290/1284/4 289/1285/4 
f 289/1286/4 332/1287/4 330/1288/4 
usemtl lambert3SG
f 294/895/2 293/896/2 291/897/2 
f 292/898/2 322/899/2 323/900/2 
f 291/901/2 292/902/2 323/903/2 
f 294/904/2 291/905/2 323/906/2 
usemtl lambert2SG
f 285/1037/2 279/1031/2 278/1030/2 
f 278/1030/2 286/1038/2 285/1037/2 
usemtl lambert4SG
f 325/742/2 326/743/2 328/744/2 
f 328/745/2 327/746/2 325/747/2 
usemtl lambert2SG
f 283/1035/2 277/1029/2 290/1042/2 
f 290/1042/105 287/1039/105 283/1035/105 
usemtl lambert4SG
f 329/748/2 330/749/2 332/750/2 
f 332/751/2 331/752/2 329/753/2 
usemtl lambert12SG
f 333/754/95 281/755/95 280/756/95 
f 280/757/95 324/758/95 333/759/95 
f 300/760/4 273/761/4 281/762/4 
f 281/763/4 333/764/4 300/765/4 
f 297/766/126 296/767/126 275/768/126 
f 275/769/126 269/770/126 297/771/126 
usemtl lambert2SG
f 276/1289/27 282/1290/27 274/1291/27 
f 274/1292/27 270/1293/27 276/1294/27 
f 334/1062/127 258/1295/127 262/1296/127 
f 262/1297/109 335/1063/109 334/1062/109 
f 336/1064/128 253/1298/128 258/1299/128 
f 258/1300/128 334/1301/128 336/1064/128 
f 337/1065/114 264/1302/114 253/1303/114 
f 253/1304/27 336/1305/27 337/1065/27 
f 335/1306/46 262/1307/46 264/1308/46 
f 264/1309/129 337/1310/129 335/1311/129 
f 338/1066/1 243/1312/1 255/1313/1 
f 255/1314/1 339/1067/1 338/1066/1 
f 340/1068/5 240/1315/5 243/1316/5 
f 243/1317/5 338/1318/5 340/1068/5 
f 341/1069/27 252/1319/27 240/1320/27 
f 240/1321/27 340/1322/27 341/1069/27 
f 339/1323/4 255/1324/4 252/1325/4 
f 252/1326/4 341/1327/4 339/1328/4 
f 342/1070/1 298/1329/1 237/1330/1 
f 237/1331/1 343/1071/1 342/1070/1 
f 344/1072/5 271/1332/5 298/1333/5 
f 298/1334/5 342/1335/5 344/1072/5 
f 345/1073/27 346/1074/27 271/1336/27 
f 271/1337/27 344/1338/27 345/1073/27 
f 343/1339/4 237/1340/4 346/1341/4 
f 346/1342/4 345/1343/4 343/1344/4 
f 347/1075/1 272/1345/1 348/1076/1 
f 348/1076/1 349/1077/1 347/1075/1 
f 350/1078/128 234/1346/128 272/1347/128 
f 272/1348/128 347/1349/128 350/1078/128 
f 351/1079/27 352/1080/27 234/1350/27 
f 234/1351/27 350/1352/27 351/1079/27 
f 349/1353/130 348/1354/130 352/1355/130 
f 352/1356/130 351/1357/130 349/1358/130 
f 353/1081/1 235/1359/1 354/1082/1 
f 354/1082/1 355/1083/1 353/1081/1 
f 356/1084/131 236/1360/131 235/1361/131 
f 235/1362/131 353/1363/131 356/1084/131 
f 357/1085/27 268/1364/27 236/1365/27 
f 236/1366/27 356/1367/27 357/1085/27 
f 355/1368/132 354/1369/132 268/1370/132 
f 268/1371/132 357/1372/132 355/1373/132 
f 358/1086/27 247/1374/27 246/1375/27 
f 246/1376/27 307/1377/27 358/1086/27 
f 358/1378/4 305/1379/4 248/1380/4 
f 248/1381/133 247/1382/133 358/1383/133 
f 359/1087/1 360/1088/1 361/1089/1 
f 361/1089/1 362/1090/1 359/1087/1 
f 363/1091/134 259/1384/134 360/1385/134 
f 360/1386/134 359/1387/134 363/1091/134 
f 364/1092/27 260/1388/27 259/1389/27 
f 259/1390/27 363/1391/27 364/1092/27 
f 362/1392/135 361/1393/135 260/1394/135 
f 260/1395/135 364/1396/135 362/1397/135 
f 365/1093/127 254/1398/127 265/1399/127 
f 265/1400/109 366/1094/109 365/1093/109 
f 367/1095/136 368/1096/136 254/1401/136 
f 254/1402/136 365/1403/136 367/1095/136 
f 369/1097/114 370/1098/114 368/1404/114 
f 368/1405/27 367/1406/27 369/1097/27 
f 366/1407/137 265/1408/137 370/1409/137 
f 370/1410/138 369/1411/138 366/1412/138 
f 371/1099/127 372/1100/127 267/1413/127 
f 267/1414/109 373/1101/109 371/1099/109 
f 374/1102/139 261/1415/139 372/1416/139 
f 372/1417/139 371/1418/139 374/1102/139 
f 375/1103/140 266/1419/140 261/1420/140 
f 261/1421/27 374/1422/27 375/1103/27 
f 373/1423/141 267/1424/141 266/1425/141 
f 266/1426/142 375/1427/142 373/1428/142 
usemtl lambert12SG
f 302/772/143 308/773/143 263/774/143 
f 263/775/68 257/776/68 302/777/68 
f 301/778/2 303/779/2 256/780/2 
f 256/781/144 239/782/144 301/783/144 
usemtl lambert7SG
f 334/784/2 335/785/2 337/786/2 
f 337/787/2 336/788/2 334/789/2 
usemtl lambert5SG
f 338/790/2 339/791/2 341/792/2 
f 341/793/2 340/794/2 338/795/2 
f 342/796/2 343/797/2 345/798/2 
f 345/799/2 344/800/2 342/801/2 
usemtl lambert2SG
f 253/1005/145 264/1016/145 265/1017/145 
f 265/1017/146 254/1006/146 253/1005/146 
f 240/992/95 252/1004/95 251/1003/95 
f 251/1003/147 241/993/147 240/992/147 
f 271/1429/148 346/1430/148 348/1431/148 
usemtl lambert5SG
f 347/802/2 349/803/2 351/804/2 
f 351/805/2 350/806/2 347/807/2 
usemtl lambert2SG
f 234/1432/149 352/1433/149 354/1434/149 
f 354/1435/149 235/1436/149 234/1437/149 
usemtl lambert5SG
f 353/808/150 355/809/150 357/810/150 
f 357/811/150 356/812/150 353/813/150 
usemtl lambert6SG
f 306/814/2 305/815/2 358/816/2 
f 358/817/2 307/818/2 306/819/2 
usemtl lambert2SG
f 246/998/95 247/999/95 361/1438/95 
f 361/1439/95 360/1440/95 246/998/95 
usemtl lambert5SG
f 359/820/151 362/821/151 364/822/151 
f 364/823/151 363/824/151 359/825/151 
usemtl lambert7SG
f 365/826/2 366/827/2 369/828/2 
f 369/829/2 367/830/2 365/831/2 
usemtl lambert2SG
f 368/1441/152 370/1442/152 267/1019/152 
usemtl lambert7SG
f 371/832/150 373/833/150 375/834/150 
f 375/835/150 374/836/150 371/837/150 
usemtl lambert9SG
f 321/838/153 312/839/153 212/840/153 
f 321/841/154 212/842/154 222/843/154 
f 321/844/155 222/845/155 228/846/155 
f 314/847/156 321/848/156 225/849/156 
f 314/850/157 225/851/157 376/852/157 
f 376/853/158 215/854/158 214/855/158 
f 314/856/157 376/857/157 214/858/157 
f 225/859/159 321/860/159 228/861/159 
f 228/862/160 226/863/160 225/864/160 
f 226/865/161 230/866/161 227/867/161 
f 215/868/162 376/869/162 377/870/162 
usemtl lambert15SG
f 378/871/163 316/872/163 319/873/163 
f 319/874/164 379/875/164 378/876/164 
f 319/877/165 320/878/165 379/879/165 
usemtl lambert10SG
f 162/880/166 317/881/166 380/882/166 
usemtl lambert16SG
f 378/883/167 380/884/167 317/885/167 
f 317/886/168 316/887/168 378/888/168 
usemtl lambert15SG
f 376/889/169 225/890/169 224/891/169 
f 224/892/170 377/893/170 376/894/170 
usemtl lambert2SG
f 360/1443/171 259/1011/171 268/1020/171 
f 268/1020/172 354/1444/172 360/1445/172 
f 372/1446/173 261/1013/173 260/1012/173 
f 260/1012/174 361/1447/174 372/1448/174 
f 368/1449/175 267/1019/175 372/1450/175 
f 368/1451/2 372/1452/2 361/1453/2 
f 368/1454/2 361/1455/2 247/999/2 
f 240/992/2 346/1456/2 237/989/2 
f 237/989/2 243/995/2 240/992/2 
f 242/994/69 244/996/69 348/1457/69 
f 240/992/95 242/994/95 348/1458/95 
f 240/992/69 348/1459/69 346/1460/69 
f 244/996/69 246/998/69 352/1461/69 
f 352/1462/2 348/1463/2 244/996/2 
f 360/1464/2 354/1465/2 352/1466/2 
f 352/1467/2 246/998/2 360/1468/2 
f 273/1025/93 238/990/93 298/1047/93 
f 273/1025/2 298/1047/2 271/1469/2 
f 271/1470/149 348/1471/149 272/1472/149 
f 265/1017/71 217/1473/71 216/1474/71 
f 216/1475/72 370/1476/72 265/1017/72 
f 267/1019/71 370/1477/71 216/1478/71 
f 275/1479/2 284/1036/2 286/1038/2 
f 275/1480/95 286/1038/95 283/1035/95 
f 317/1481/176 162/984/176 221/977/176 
f 221/977/176 229/979/176 317/1482/176 
f 221/977/177 162/984/177 230/980/177 
usemtl lambert13SG
f 163/1501/178 167/1505/178 210/1524/178 
f 163/1501/179 210/1524/179 168/1506/179 
usemtl lambert2SG
f 164/970/180 218/971/180 214/966/180 
f 164/970/181 214/966/181 215/967/181 
f 261/1013/182 216/1483/182 259/1011/182 
f 164/970/183 163/1104/183 320/1105/183 
f 164/970/183 320/1105/183 218/971/183 
f 230/1484/184 270/1022/184 274/1026/184 
f 230/1485/185 274/1026/185 236/1486/185 
f 368/1487/2 247/999/2 249/1001/2 
f 249/1001/2 254/1006/2 368/1488/2 
f 255/1007/2 258/1010/2 253/1005/2 
f 253/1005/2 252/1004/2 255/1007/2 
# 0 polygons - 623 triangles

