# 3ds Max Wavefront OBJ Exporter v0.97b - (c)2007 guruware
# File Created: 13.02.2012 20:47:15

mtllib Myyrivahe_62a_1.mtl

#
# object Myyrivahe_62a_1
#

v  228.3400 168.8835 8.7435
v  228.3400 168.8835 7.4154
v  228.7024 167.8647 7.4154
v  228.7024 167.8647 8.7456
v  230.2847 173.8587 9.8184
v  228.5063 179.3694 9.8184
v  225.8302 177.7212 8.8815
v  227.7095 172.2346 8.8870
v  229.7765 173.4531 10.3683
v  229.1581 173.0631 10.3607
v  229.1534 173.0601 11.3478
v  229.7718 173.4501 11.3554
v  229.7757 162.9632 8.8573
v  229.6492 162.9167 9.0174
v  228.6027 165.8592 9.0057
v  228.7289 165.9063 8.8515
v  233.3304 164.2386 12.7505
v  232.3692 167.2458 12.7505
v  229.2074 166.0776 9.3287
v  227.6740 168.8724 8.8455
v  228.1541 169.0392 9.3228
v  225.5139 177.5259 8.5745
v  227.3943 172.0368 8.5773
v  227.3943 172.0368 8.7502
v  225.5139 177.5259 8.7447
v  227.7095 172.2346 8.7140
v  225.8302 177.7212 8.7113
v  229.9462 164.3677 8.7494
v  229.9462 164.3677 7.4154
v  230.3059 163.3561 7.4154
v  230.3059 163.3561 8.7514
v  231.4220 170.2245 12.7505
v  230.2847 173.8587 12.7505
v  227.1444 171.8782 9.5864
v  231.3284 160.1143 9.6330
v  234.3465 161.1194 12.7505
v  226.5815 171.5420 8.9831
v  226.6992 171.6132 8.8401
v  227.5471 168.8271 8.9939
v  230.8452 159.9562 8.8632
v  230.7182 159.9111 9.0291
v  230.9847 159.9998 9.2930
v  230.9842 160.0017 9.0004
v  230.2560 163.1295 9.3346
v  227.1444 171.8782 9.3172
v  228.5865 167.8235 7.4154
v  228.2242 168.8422 7.4154
v  228.1926 168.9308 7.3214
v  228.6180 167.7349 7.3214
v  228.5865 167.8235 8.7456
v  228.6180 167.7349 8.8397
v  228.2242 168.8422 8.7435
v  228.1926 168.9308 8.8374
v  230.1900 163.3149 7.4154
v  229.8303 164.3264 7.4154
v  229.7988 164.4150 7.3214
v  230.2215 163.2264 7.3214
v  230.1900 163.3149 8.7514
v  230.2215 163.2264 8.8456
v  229.8303 164.3264 8.7494
v  229.7988 164.4150 8.8433
v  229.3053 166.1124 8.7390
v  229.1201 166.6329 8.7390
v  229.1201 166.6329 6.4785
v  229.3053 166.1124 6.4785
v  229.4901 165.5928 6.4785
v  229.4901 165.5928 8.7390
v  229.4274 165.4590 6.4783
v  229.4274 165.4590 8.8440
v  229.3922 165.5580 8.7390
v  229.3922 165.5580 6.4785
v  229.2074 166.0776 8.8440
v  229.2074 166.0776 8.7390
v  228.9871 166.6971 8.8440
v  229.0223 166.5981 8.7390
v  228.9871 166.6971 6.4783
v  229.0223 166.5981 6.4785
v  231.3285 160.1143 9.3404
v  229.4274 165.4590 6.2188
v  229.3922 165.5580 6.4783
v  229.3922 165.5580 6.2188
v  228.9871 166.6971 6.2188
v  229.0223 166.5981 6.2188
v  229.0223 166.5981 6.4783
v  228.9871 166.6971 5.9593
v  229.4274 165.4590 5.9593
v  229.2390 165.3920 5.9593
v  228.7987 166.6301 5.9593
v  229.0505 165.3250 5.9593
v  228.6102 166.5631 5.9593
v  225.8302 177.7212 5.9593
v  227.7095 172.2346 5.9593
v  227.1444 171.8782 5.9593
v  228.1541 169.0392 6.4783
v  231.3284 160.1143 6.4783
v  230.2560 163.1295 6.4783
v  228.5063 179.3694 5.9593
v  229.1197 173.1240 10.3607
v  229.7381 173.5140 10.3683
v  229.1150 173.1210 11.3478
v  229.7334 173.5110 11.3554
v  228.1541 169.0392 5.9593
v  230.2560 163.1295 5.9593
v  231.3284 160.1143 5.9593
v  229.2037 165.4910 6.2188
v  229.2037 165.4910 6.4783
v  228.8339 166.5310 6.4783
v  228.8339 166.5310 6.2188
v  229.0505 165.3250 6.2188
v  229.0153 165.4240 6.2188
v  228.6454 166.4640 6.2188
v  228.6102 166.5631 6.2188
v  228.7987 166.6301 6.2188
v  229.2390 165.3920 6.2188
# 114 vertices

vn -0.9422 -0.3351 0.0000
vn -0.2792 -0.0901 0.9560
vn -0.2842 -0.0964 0.9539
vn -0.5334 0.8458 0.0000
vn -0.7200 -0.2586 -0.6440
vn -0.7092 -0.2536 -0.6578
vn -0.6514 -0.2288 0.7234
vn -0.6501 -0.2078 0.7308
vn 0.6454 0.2281 -0.7290
vn 0.6454 0.2281 -0.7289
vn -0.9460 -0.3241 0.0000
vn -0.3345 -0.1136 0.9355
vn -0.3346 -0.1137 0.9355
vn 0.3342 0.1140 -0.9356
vn -0.9422 -0.3350 0.0000
vn -0.6312 -0.1975 0.7501
vn -0.6655 -0.2168 0.7142
vn -0.6851 -0.2450 -0.6860
vn -0.6967 -0.2505 -0.6722
vn -0.7088 -0.2547 -0.6578
vn -0.6971 -0.2493 -0.6722
vn -0.7204 -0.2575 -0.6440
vn -0.7305 -0.2623 -0.6305
vn -0.6344 -0.2272 0.7389
vn -0.6437 -0.2260 0.7311
vn -0.6424 -0.2043 0.7386
vn -0.6457 -0.2268 0.7291
vn -0.6507 -0.2310 0.7234
vn 0.6451 0.2280 -0.7292
vn 0.6454 0.2282 -0.7290
vn -0.6459 -0.2268 0.7290
vn -0.9422 -0.3351 0.0009
vn -0.9422 -0.3351 0.0002
vn -0.9423 -0.3349 0.0000
vn -0.9422 -0.3351 -0.0002
vn -0.9422 -0.3351 -0.0008
vn -0.9419 -0.3359 0.0000
vn -0.9422 -0.3351 0.0001
vn -0.9421 -0.3353 0.0000
vn -0.9422 -0.3350 0.0002
vn -0.9422 -0.3351 -0.0000
vn 0.0000 0.0000 1.0000
vn -0.3350 0.9422 0.0000
vn 0.0007 -0.0018 -1.0000
vn 0.3360 -0.9419 0.0000
vn 0.0006 -0.0018 -1.0000
vn 0.3357 -0.9420 0.0000
vn -0.5254 0.8509 0.0000
vn -0.9421 -0.3352 0.0000
vn -0.9422 -0.3351 -0.0001
vn 0.0000 0.0000 -1.0000
vn 0.3353 -0.9421 0.0000
vn 0.6453 0.2281 -0.7290
vn -0.6461 -0.2270 0.7287
vn 0.3217 -0.9468 -0.0067
vn 0.3212 -0.9469 -0.0115
vn -0.9460 -0.3240 0.0000
vn -0.5143 0.8576 0.0036
vn -0.5128 0.8585 0.0000
vn -0.5358 0.8443 0.0000
vn -0.5322 0.8466 0.0022
vn -0.5315 0.8470 0.0000
vn -0.5334 0.8458 -0.0003
vn -0.9423 -0.3347 0.0000
vn -0.9421 -0.3354 0.0000
vn -0.9422 -0.3352 0.0000
vn -0.5244 0.8515 0.0000
vn -0.5334 0.8458 -0.0000
vn -0.5335 0.8458 -0.0001
vn -0.5335 0.8458 0.0000
vn -0.5334 0.8459 -0.0000
vn -0.5334 0.8459 0.0000
vn -0.0088 -0.0055 0.9999
vn 0.8459 0.5333 0.0056
vn 0.0088 0.0055 -0.9999
vn -0.8458 -0.5334 -0.0056
vn -0.8459 -0.5333 -0.0057
vn -0.9422 -0.3352 0.0001
vn -0.9401 -0.3343 -0.0670
vn -0.8856 -0.3149 -0.3414
vn -0.9418 -0.3349 0.0293
vn -0.3351 0.9422 0.0000
vn 0.3351 -0.9422 0.0000
# 83 vertex normals

vt 0.0005 0.9980 0.9948
vt 0.0005 0.0005 0.9995
vt 0.9995 0.0005 0.0052
vt 0.9995 0.9995 0.0005
vt 3.7525 1.5584 -0.5235
vt -1.5960 1.5372 -1.6824
vt -0.9672 -0.4941 1.7146
vt 4.1362 -0.4687 1.1308
vt 0.0005 0.0081 -0.5000
vt 0.9919 0.0005 -1.5000
vt 0.9995 0.9919 0.5000
vt 0.0081 0.9995 0.5000
vt -4.1508 -0.2860 0.6460
vt -4.1493 -0.1259 0.7808
vt -11.3856 -2.7814 3.8709
vt -8.5495 -0.2185 0.4555
vt 0.4520 -2.1368 0.4972
vt 3.5748 -2.0986 0.4914
vt 3.5096 3.3027 0.5032
vt 0.3545 3.3516 0.4970
vt 8.0358 -0.5979 158984.1719
vt 8.0327 -1.0603 162703.0938
vt 10.1315 -1.0663 162728.2500
vt 10.1297 -0.6040 159009.2656
vt -19.2996 -0.5689 -0.2192
vt -13.4978 -0.5662 -0.1511
vt -13.4978 -0.3932 -0.1512
vt -19.2996 -0.3987 -0.2192
vt -0.8926 -0.7370 0.7107
vt 4.2132 -0.7115 0.1214
vt 12.2371 -0.5084 204850.1875
vt 12.1828 -0.7562 199004.2500
vt 16.0507 -0.7281 200867.1250
vt 16.1033 -0.4803 206718.5000
vt -2.7708 3.3996 0.4913
vt -6.9696 3.6573 0.8278
vt -5.7156 -1.3300 0.5079
vt 3.5109 3.3076 0.5032
vt 6.6911 -1.1784 0.4851
vt 6.7133 3.2747 0.5094
vt -13.3040 -0.1602 0.7804
vt -13.3316 -0.3032 0.6457
vt -10.4227 -0.2978 0.6458
vt -10.4225 -0.1494 0.7805
vt -7.2745 -0.2919 0.6459
vt -7.2724 -0.1376 0.7806
vt -1.0373 -0.2802 0.6461
vt -1.0373 -0.1142 0.7809
vt -2.7700 3.3989 0.4908
vt -2.6978 -2.1752 0.5030
vt 0.3545 3.3518 0.4970
vt -2.7705 3.3987 0.4909
vt 6.6889 -1.6195 0.4849
vt 3.5111 3.3078 0.5032
vt -1.1395 1.0850 0.5000
vt -1.1372 0.9513 0.5000
vt 0.9385 0.9457 0.5000
vt 0.9363 1.4105 0.5000
vt 5.9482 -0.5919 158959.1406
vt 5.9503 -1.0543 162678.1406
vt 12.0708 -1.0719 162751.5000
vt 12.1385 -0.6098 159033.3438
vt -5.5790 -2.2105 0.5083
vt -8.3065 -1.7280 0.1379
vt -9.3878 -1.7280 0.1379
vt -9.4818 -1.8220 0.1379
vt -8.2125 -1.8220 0.1379
vt -8.3065 -0.3978 0.1376
vt -8.2125 -0.3037 0.1376
vt -9.3878 -0.3999 0.1376
vt -9.4818 -0.3060 0.1376
vt -5.1742 -1.7280 0.1380
vt -6.2478 -1.7280 0.1380
vt -6.3418 -1.8220 0.1380
vt -5.0802 -1.8220 0.1380
vt -5.1742 -0.3920 0.1378
vt -5.0802 -0.2978 0.1377
vt -6.2478 -0.3940 0.1377
vt -6.3418 -0.3002 0.1377
vt 9.3065 0.0149 -1.7280
vt 10.3878 0.0148 -1.7280
vt 10.3878 0.1379 -1.7280
vt 9.3065 0.1379 -1.7280
vt 1.3979 0.0146 -8.3065
vt 2.7280 0.0149 -8.3065
vt 2.7280 0.1379 -8.3065
vt 1.3978 0.1376 -8.3065
vt -9.3878 0.0146 -0.3999
vt -8.3065 0.0146 -0.3979
vt -8.3065 0.1376 -0.3978
vt -9.3878 0.1376 -0.3999
vt -1.7280 0.0148 -9.3878
vt -0.3999 0.0146 -9.3878
vt -0.3999 0.1376 -9.3878
vt -1.7280 0.1379 -9.3878
vt 6.1742 0.0150 -1.7280
vt 7.2478 0.0150 -1.7280
vt 7.2478 0.1380 -1.7280
vt 6.1742 0.1380 -1.7280
vt 1.3920 0.0148 -5.1742
vt 2.7280 0.0150 -5.1742
vt 2.7280 0.1380 -5.1742
vt 1.3920 0.1378 -5.1742
vt -6.2478 0.0147 -0.3940
vt -5.1742 0.0148 -0.3920
vt -5.1742 0.1378 -0.3920
vt -6.2478 0.1377 -0.3940
vt -1.7280 0.0150 -6.2478
vt -0.3940 0.0147 -6.2478
vt -0.3940 0.1377 -6.2478
vt -1.7280 0.1380 -6.2478
vt -29.0098 -3.1679 0.0000
vt 0.5570 0.1373 -13.4321
vt 1.2565 -0.5145 -13.5785
vt 15.2259 -2.5713 -3.3483
vt 0.5004 0.9995 0.4375
vt 0.0005 0.9995 0.5000
vt 0.0005 0.0005 0.9375
vt 0.5004 0.0005 0.7500
vt 0.9995 0.0005 0.5000
vt 0.9995 0.9995 0.2500
vt -6.8087 -2.1963 0.1380
vt -6.8087 -1.1269 0.1378
vt -7.2755 -1.1927 0.1378
vt -7.7440 -1.1278 0.1378
vt -7.7440 -2.1963 0.1380
vt -1.1452 1.4162 0.5000
vt 6.6866 -2.0606 0.4847
vt -0.1142 0.7809 -1.0373
vt -0.1429 0.4999 -1.0335
vt 0.1496 0.5001 -1.0316
vt -0.2802 0.6461 -1.0373
vt 3.5448 -2.6361 0.9078
vt -7.4794 -0.1436 -2.2492
vt -7.4794 -2.8956 -2.2492
vt -1.9928 -2.8956 -0.3699
vt -1.9928 -0.1409 -0.3699
vt 1.9350 0.4623 2.6364
vt 2.3802 -0.0148 2.3714
vt 2.4979 0.1282 2.3002
vt 1.9350 0.7315 2.6364
vt 1.6851 -0.2776 2.7950
vt 1.9350 -2.8956 2.6364
vt 1.6851 -0.1047 2.7950
vt 1.3699 0.0321 2.9928
vt 1.3699 -0.1409 2.9928
vt 1.3699 -2.8956 2.9928
vt 2.5070 -1.5335 0.5386
vt 1.3111 -1.5335 0.1132
vt 1.2027 -2.3766 0.0747
vt 3.5448 -2.3766 0.9077
vt 2.5070 -0.0152 0.5386
vt 3.5448 -0.0109 0.9077
vt 4.1642 0.4738 1.1280
vt 1.2027 0.4679 0.0747
vt 1.3111 -0.0175 0.1132
vt 10.1275 -2.3766 3.2490
vt 10.1275 0.4855 3.2491
vt 7.1124 0.4797 2.1766
vt 7.1124 -2.3766 2.1766
vt 5.8269 -1.5335 1.7194
vt 4.7829 -2.3766 1.3480
vt 7.0155 -1.5335 2.1421
vt 7.0155 -0.0093 2.1421
vt 5.8269 -0.0116 1.7194
vt 4.7829 -0.0109 1.3480
vt -1.6364 0.4623 -0.9350
vt -1.6364 -2.8956 -0.9350
vt 3.2492 -0.1436 8.4794
vt 0.5731 -2.8956 10.1275
vt 3.2492 -2.8956 8.4794
vt 3.2492 0.0266 8.4794
vt 0.5731 0.9635 10.1275
vt -1.2053 0.9635 4.6169
vt -0.0403 1.5058 3.8821
vt -0.6587 1.5134 4.2722
vt -0.0356 2.4929 3.8792
vt -1.2053 3.8956 4.6169
vt -0.6540 2.5005 4.2691
vt 1.0787 3.8212 1.5058
vt 1.6971 4.2112 1.5134
vt 1.6587 4.2722 1.5134
vt 1.0403 3.8821 1.5058
vt 3.8183 2.4929 1.0740
vt 3.8212 1.5058 1.0787
vt 3.8821 1.5058 1.0403
vt 3.8792 2.4929 1.0356
vt -0.6924 4.2083 2.5005
vt -0.0740 3.8183 2.4929
vt -0.0356 3.8792 2.4929
vt -0.6540 4.2691 2.5005
vt -3.2112 1.5134 1.6971
vt -3.2083 2.5005 1.6924
vt -3.2691 2.5005 1.6540
vt -3.2722 1.5134 1.6587
vt 4.1642 -0.0109 1.1280
vt 1.2027 -2.8956 0.0747
vt 3.5448 -2.8956 0.9077
vt 3.5448 -2.6361 0.9077
vt 7.1124 -2.8956 2.1766
vt 10.1275 -2.8956 3.2490
vt 4.7829 -2.8956 1.3480
vt 4.7829 -2.6361 1.3480
vt 1.0412 0.4999 0.4666
vt 1.0412 0.7594 0.4666
vt -0.0626 0.7594 0.4745
vt -0.0626 0.4999 0.4745
vt 0.6745 1.0612 0.7596
vt 0.6753 1.1663 0.7594
vt 0.6746 1.0611 0.7594
vt 0.6665 -0.0426 0.7594
vt 0.6658 -0.1477 0.7594
vt 0.6665 -0.0427 0.7596
vt 0.7704 -0.0434 0.7596
vt 0.7744 0.5080 0.7596
vt 0.7784 1.0605 0.7596
vt -0.1692 0.2404 0.2753
vt 1.1449 0.2404 0.2658
vt 1.1449 0.4999 0.2658
vt 1.0397 0.4999 0.2665
vt -0.0641 0.4999 0.2745
vt -0.1692 0.4999 0.2753
vt 0.3247 0.4999 1.1663
vt 0.3247 0.2404 1.1663
vt 0.5247 0.2404 1.1677
vt 0.5247 0.4999 1.1677
vt 0.6658 0.2404 -0.1477
vt 0.6658 0.4999 -0.1477
vt 0.4658 0.4999 -0.1463
vt 0.4658 0.2404 -0.1463
vt 0.6658 -0.1477 0.4999
vt 0.6665 -0.0426 0.4999
vt 0.4666 -0.0412 0.4999
vt 0.4658 -0.1463 0.4999
vt 0.6665 0.4999 -0.0426
vt 0.6665 0.7594 -0.0426
vt 0.4666 0.7594 -0.0412
vt 0.4666 0.4999 -0.0412
vt 0.4745 1.0626 0.7594
vt 0.4666 -0.0412 0.7594
vt 0.3254 0.7594 1.0611
vt 0.3254 0.4999 1.0611
vt 0.5255 0.4999 1.0626
vt 0.5255 0.7594 1.0626
vt 0.6746 1.0611 0.4999
vt 0.6753 1.1663 0.4999
vt 0.4753 1.1677 0.4999
vt 0.4745 1.0626 0.4999
vt 0.2745 1.0641 0.4999
vt 0.2665 -0.0397 0.4999
vt 0.2753 1.1692 0.4999
vt 0.7247 0.2404 1.1692
vt 0.7247 0.4999 1.1692
vt 0.2658 0.4999 -0.1449
vt 0.2658 0.2404 -0.1449
vt 0.2658 -0.1449 0.4999
# 256 texture coords

g Myyrivahe_62a_1
usemtl Windows_Type2
s off
f 1/1/1 2/2/1 3/3/1 
f 3/3/1 4/4/1 1/1/1 
usemtl Roof_Type3
f 5/5/2 6/6/2 7/7/2 
f 7/7/3 8/8/3 5/5/3 
usemtl Side_Window
f 9/9/4 10/10/4 11/11/4 
f 11/11/4 12/12/4 9/9/4 
usemtl White_Paint
f 13/13/5 14/14/5 15/15/5 
f 15/15/6 16/16/6 13/13/6 
usemtl Roof_Type2
f 15/17/7 14/18/7 17/19/7 
f 17/19/8 18/20/8 15/17/8 
usemtl Ceiling
f 19/21/9 16/22/9 20/23/9 
f 20/23/10 21/24/10 19/21/10 
usemtl White_Paint
f 22/25/11 23/26/11 24/27/11 
f 24/27/11 25/28/11 22/25/11 
usemtl Roof_Type3
f 8/8/12 7/7/12 25/29/12 
f 25/29/13 24/30/13 8/8/13 
usemtl Ceiling
f 26/31/14 23/32/14 22/33/14 
f 22/33/14 27/34/14 26/31/14 
usemtl Windows_Type2
f 28/1/15 29/2/15 30/3/15 
f 30/3/15 31/4/15 28/1/15 
usemtl Roof_Type2
f 32/35/16 33/36/16 34/37/16 
f 17/38/17 35/39/17 36/40/17 
usemtl White_Paint
f 37/41/18 38/42/18 20/43/18 
f 20/43/19 39/44/19 37/41/19 
f 16/45/20 15/46/20 39/44/20 
f 39/44/21 20/43/21 16/45/21 
f 14/14/22 13/13/22 40/47/22 
f 40/47/23 41/48/23 14/14/23 
usemtl Roof_Type2
f 32/49/24 34/37/24 39/50/24 
f 39/50/25 15/17/25 18/51/25 
f 18/51/26 32/52/26 39/50/26 
f 14/18/27 42/53/27 35/39/27 
f 35/39/28 17/54/28 14/18/28 
usemtl Ceiling
f 43/55/29 40/56/29 13/57/29 
f 13/57/30 44/58/30 43/55/30 
f 44/59/9 13/60/9 16/22/9 
f 16/22/9 19/21/9 44/59/9 
f 38/61/9 45/62/9 21/24/9 
f 21/24/10 20/23/10 38/61/10 
usemtl Roof_Type2
f 39/50/31 34/37/31 37/63/31 
usemtl White_Paint
f 46/64/32 47/65/32 48/66/32 
f 48/66/33 49/67/33 46/64/33 
f 50/68/34 46/64/34 49/67/34 
f 49/67/34 51/69/34 50/68/34 
f 52/70/35 50/68/35 51/69/35 
f 51/69/36 53/71/36 52/70/36 
f 47/65/37 52/70/37 53/71/37 
f 53/71/37 48/66/37 47/65/37 
f 54/72/38 55/73/38 56/74/38 
f 56/74/35 57/75/35 54/72/35 
f 58/76/39 54/72/39 57/75/39 
f 57/75/39 59/77/39 58/76/39 
f 60/78/40 58/76/40 59/77/40 
f 59/77/41 61/79/41 60/78/41 
f 55/73/1 60/78/1 61/79/1 
f 61/79/1 56/74/1 55/73/1 
f 3/80/42 2/81/42 47/82/42 
f 47/82/42 46/83/42 3/80/42 
f 4/84/43 3/85/43 46/86/43 
f 46/86/43 50/87/43 4/84/43 
f 1/88/44 4/89/44 50/90/44 
f 50/90/44 52/91/44 1/88/44 
f 2/92/45 1/93/45 52/94/45 
f 52/94/45 47/95/45 2/92/45 
f 30/96/42 29/97/42 55/98/42 
f 55/98/42 54/99/42 30/96/42 
f 31/100/43 30/101/43 54/102/43 
f 54/102/43 58/103/43 31/100/43 
f 28/104/46 31/105/46 58/106/46 
f 58/106/46 60/107/46 28/104/46 
f 29/108/47 28/109/47 60/110/47 
f 60/110/47 55/111/47 29/108/47 
f 27/112/48 22/113/48 25/114/48 
f 25/114/48 7/115/48 27/112/48 
usemtl Doors_Single
f 62/116/49 63/117/49 64/118/49 
f 64/118/49 65/119/49 62/116/49 
f 66/120/1 67/121/1 62/116/1 
f 62/116/1 65/119/1 66/120/1 
usemtl White_Paint
f 68/122/15 69/123/15 70/123/15 
f 70/123/15 71/122/15 68/122/15 
f 72/124/1 73/124/1 70/123/1 
f 70/123/50 69/123/50 72/124/50 
f 72/124/40 74/125/40 75/125/40 
f 75/125/1 73/124/1 72/124/1 
f 76/126/34 77/126/34 75/125/34 
f 75/125/34 74/125/34 76/126/34 
f 67/123/43 66/122/43 71/122/43 
f 71/122/43 70/123/43 67/123/43 
f 62/124/51 67/123/51 70/123/51 
f 70/123/51 73/124/51 62/124/51 
f 63/125/51 62/124/51 73/124/51 
f 73/124/51 75/125/51 63/125/51 
f 64/126/52 63/125/52 75/125/52 
f 75/125/52 77/126/52 64/126/52 
usemtl Ceiling
f 44/58/53 78/127/53 43/55/53 
usemtl Roof_Type2
f 14/18/54 41/128/54 42/53/54 
usemtl White_Paint
f 41/129/55 43/130/55 42/131/55 
f 41/129/56 40/132/56 43/130/56 
usemtl Windows_Type2
f 79/133/15 68/133/15 80/133/15 
f 80/133/15 81/133/15 79/133/15 
f 76/133/15 82/133/15 83/133/15 
f 83/133/15 84/133/15 76/133/15 
f 85/133/51 86/133/51 87/133/51 
f 87/133/51 88/133/51 85/133/51 
f 88/133/51 87/133/51 89/133/51 
f 89/133/51 90/133/51 88/133/51 
usemtl Walls_Cream
f 27/134/57 91/135/57 92/136/57 
f 92/136/57 26/137/57 27/134/57 
f 45/138/58 38/139/58 37/140/58 
f 37/140/59 34/141/59 45/138/59 
f 23/142/60 93/143/60 45/138/60 
f 45/138/60 24/144/60 23/142/60 
f 45/138/4 34/141/4 8/145/4 
f 8/145/61 24/144/61 45/138/61 
f 23/142/62 26/146/62 92/147/62 
f 92/147/63 93/143/63 23/142/63 
f 49/148/50 48/149/50 94/150/50 
f 94/150/41 76/151/41 49/148/41 
f 51/152/50 74/153/50 19/154/50 
f 51/152/41 19/154/41 21/155/41 
f 21/155/38 53/156/38 51/152/38 
f 21/155/64 94/150/64 48/149/64 
f 48/149/64 53/156/64 21/155/64 
f 95/157/1 78/158/1 44/159/1 
f 44/159/1 96/160/1 95/157/1 
f 56/161/38 68/162/38 96/160/38 
f 96/160/41 57/163/41 56/161/41 
f 44/159/65 59/164/65 57/163/65 
f 57/163/65 96/160/65 44/159/65 
f 61/165/38 59/164/38 44/159/38 
f 44/159/50 19/154/50 61/165/50 
f 56/161/66 61/165/66 69/166/66 
f 69/166/66 68/162/66 56/161/66 
f 45/167/1 93/168/1 94/150/1 
f 94/150/1 21/155/1 45/167/1 
f 27/169/67 97/170/67 91/171/67 
f 27/169/67 7/172/67 6/173/67 
f 6/173/67 97/170/67 27/169/67 
f 5/174/68 8/145/68 98/175/68 
f 98/175/69 99/176/69 5/174/69 
f 34/141/70 100/177/70 98/175/70 
f 98/175/68 8/145/68 34/141/68 
f 34/141/71 33/178/71 100/177/71 
f 5/174/72 99/176/72 101/179/72 
f 101/179/70 33/178/70 5/174/70 
f 10/180/73 9/181/73 99/182/73 
f 99/182/73 98/183/73 10/180/73 
f 11/184/74 10/185/74 98/186/74 
f 98/186/74 100/187/74 11/184/74 
f 12/188/75 11/189/75 100/190/75 
f 100/190/75 101/191/75 12/188/75 
f 9/192/76 12/193/76 101/194/76 
f 101/194/77 99/195/77 9/192/77 
f 33/178/68 101/179/68 100/177/68 
f 19/154/1 72/196/1 69/166/1 
f 72/196/15 19/154/15 74/153/15 
f 61/165/78 19/154/78 69/166/78 
f 49/148/1 76/151/1 74/153/1 
f 74/153/1 51/152/1 49/148/1 
f 102/197/1 85/198/1 82/199/1 
f 102/197/1 82/199/1 76/151/1 
f 102/197/1 76/151/1 94/150/1 
f 95/157/1 96/160/1 103/200/1 
f 103/200/1 104/201/1 95/157/1 
f 86/202/1 103/200/1 96/160/1 
f 96/160/1 68/162/1 79/203/1 
f 86/202/1 96/160/1 79/203/1 
f 94/150/1 93/168/1 102/197/1 
usemtl betoon
f 105/204/1 106/205/1 107/206/1 
f 107/206/1 108/207/1 105/204/1 
f 77/208/79 76/209/79 84/210/79 
f 77/208/79 84/210/79 80/211/79 
f 77/208/80 80/211/80 68/212/80 
f 77/208/81 68/212/81 71/213/81 
f 71/213/42 66/214/42 65/215/42 
f 77/208/42 71/213/42 65/215/42 
f 64/216/42 77/208/42 65/215/42 
f 90/217/1 89/218/1 109/219/1 
f 90/217/40 109/219/40 110/220/40 
f 90/217/41 110/220/41 111/221/41 
f 112/222/15 90/217/15 111/221/15 
f 82/223/82 85/224/82 88/225/82 
f 88/225/82 113/226/82 82/223/82 
f 86/227/83 79/228/83 114/229/83 
f 114/229/83 87/230/83 86/227/83 
f 79/231/42 81/232/42 105/233/42 
f 105/233/42 114/234/42 79/231/42 
f 81/235/83 80/236/83 106/237/83 
f 106/237/83 105/238/83 81/235/83 
f 80/211/42 84/210/42 107/239/42 
f 107/239/42 106/240/42 80/211/42 
f 84/241/82 83/242/82 108/243/82 
f 108/243/82 107/244/82 84/241/82 
f 83/245/42 82/246/42 113/247/42 
f 113/247/42 108/248/42 83/245/42 
f 105/233/42 108/248/42 111/249/42 
f 111/249/42 110/250/42 105/233/42 
f 108/248/42 113/247/42 112/251/42 
f 112/251/42 111/249/42 108/248/42 
f 113/226/82 88/225/82 90/252/82 
f 90/252/82 112/253/82 113/226/82 
f 87/230/83 114/229/83 109/254/83 
f 109/254/83 89/255/83 87/230/83 
f 114/234/42 105/233/42 110/250/42 
f 110/250/42 109/256/42 114/234/42 
# 0 polygons - 205 triangles

#
# object xxx
#

v  232.3692 167.2458 12.7505
v  230.2847 173.8587 9.8184
v  230.2847 173.8587 12.7505
v  231.4220 170.2245 12.7505
v  233.3304 164.2386 12.7505
v  234.3465 161.1194 9.8184
v  234.3465 161.1194 12.7505
v  228.5063 179.3694 9.8184
v  234.3465 161.1194 5.6128
v  228.5063 179.3694 5.9593
v  231.3285 160.1143 9.3404
v  231.3284 160.1143 5.9593
v  230.9842 160.0017 9.0004
v  231.3284 160.1143 9.6330
v  230.9847 159.9998 9.2930
# 15 vertices

vn 0.9537 0.3006 0.0027
vn 0.9527 0.3039 0.0075
vn 0.9508 0.3097 0.0000
vn 0.9522 0.3053 -0.0033
vn 0.9527 0.3038 0.0000
vn 0.3160 -0.9488 0.0000
vn 0.3164 -0.9486 -0.0034
# 7 vertex normals

vt 0.3545 3.3518 0.4970
vt -6.5777 3.4559 0.4835
vt -2.7705 3.3987 0.4909
vt 3.5096 3.3027 0.5032
vt 6.7880 3.2516 0.5096
vt -1.5960 1.5372 -1.6824
vt 3.7525 1.5584 -0.5235
vt 16.1024 1.6074 2.1525
vt -7.5098 0.0631 0.1376
vt 1.2565 -0.5145 -13.5785
vt 3.5109 3.3076 0.5032
vt -7.9556 0.1028 0.1376
vt -0.1429 0.4999 -1.0335
vt -1.1452 1.4162 0.5000
vt 6.6911 -1.1784 0.4851
vt 6.6889 -1.6195 0.4849
# 16 texture coords

g xxx
usemtl xxx
s off
f 115/257/84 116/258/84 117/258/84 118/259/84 
f 115/257/85 119/260/85 120/261/85 116/258/85 
f 121/261/86 120/261/86 119/260/86 
f 122/262/87 116/263/87 123/264/87 124/262/87 
f 120/264/88 123/264/88 116/263/88 
usemtl Walls_Cream
s 1
f 120/265/89 125/266/89 126/267/89 123/268/89 
usemtl Roof_Type2
s off
f 127/269/90 125/270/90 128/271/90 129/272/90 
f 128/271/89 125/270/89 120/265/89 121/261/89 
# 6 polygons - 2 triangles

