# 3ds Max Wavefront OBJ Exporter v0.97b - (c)2007 guruware
# File Created: 23.12.2010 14:05:36

mtllib Suur-Karia_14.mtl

#
# object Suur_Karia_14
#

v  70.1872 -234.8255 22.1282
v  72.5064 -218.3934 22.1282
v  72.6240 -218.4060 22.3045
v  70.2949 -234.8402 22.3045
v  72.7598 -218.4235 22.3187
v  70.4382 -234.8603 22.3187
v  73.0372 -218.4578 22.5734
v  72.9433 -219.0821 22.5734
v  70.7156 -234.8994 22.5734
v  71.9000 -218.9499 22.9468
v  65.0307 -218.0576 29.6485
v  62.9417 -233.0424 29.6455
v  69.6910 -234.7551 22.9468
v  66.9040 -217.6873 30.7712
v  60.1547 -216.8394 30.7712
v  60.0775 -217.4457 30.7712
v  66.8208 -218.2836 30.7712
v  59.2329 -224.0717 28.1484
v  56.8360 -229.9489 28.1484
v  59.2329 -224.0717 23.0056
v  56.8360 -229.9489 13.9299
v  59.2329 -224.0717 13.9299
v  51.1044 -221.1059 23.0056
v  51.1044 -221.1059 13.9299
v  60.0775 -217.4457 29.6485
v  60.0775 -217.4457 26.5097
v  52.6950 -216.5064 26.5097
v  52.9115 -215.8803 26.5097
v  52.9115 -215.8803 13.9291
v  59.1573 -217.3284 29.1827
v  59.2346 -216.7221 29.1827
v  53.3282 -215.9358 29.1827
v  53.1117 -216.5619 29.1827
v  60.1547 -216.8394 26.5097
v  68.4709 -217.8823 28.9426
v  68.3858 -218.4916 28.9426
v  71.7487 -218.9288 24.6762
v  71.8356 -218.3091 24.6762
v  71.8356 -218.3091 26.2181
v  71.7487 -218.9288 26.2181
v  72.2403 -218.3593 26.6563
v  72.1533 -218.9789 26.6563
v  72.1532 -218.9820 22.8562
v  72.2310 -218.3572 22.8584
v  60.1547 -216.8394 13.9291
v  72.0727 -221.4661 13.9333
v  72.0727 -221.4661 14.7792
v  72.2311 -221.4885 14.7792
v  72.2311 -221.4885 13.9333
v  70.8383 -230.2108 14.7714
v  70.8383 -230.2108 13.9255
v  70.9968 -230.2332 13.9255
v  70.9968 -230.2332 14.7714
v  72.6352 -218.4115 18.1682
v  70.3159 -234.8437 18.1682
v  70.1872 -234.8255 17.9436
v  72.5064 -218.3934 17.9436
v  72.5064 -218.3934 18.8763
v  70.1872 -234.8255 18.8763
v  70.1872 -234.8255 18.1682
v  72.5064 -218.3934 18.1682
v  72.6649 -218.4157 19.0745
v  70.3456 -234.8479 19.0745
v  66.3817 -232.3784 26.2373
v  70.1411 -232.9052 25.7424
v  71.8194 -220.9299 25.7424
v  68.0600 -220.4030 26.2373
v  70.1411 -232.9052 25.1677
v  70.1411 -232.9052 23.0332
v  70.1411 -232.9052 22.8092
v  71.8194 -220.9299 25.1677
v  71.8194 -220.9299 23.0332
v  71.8194 -220.9299 22.8092
v  72.2254 -220.9868 25.6843
v  70.5471 -232.9621 25.6843
v  70.5471 -232.9621 25.3594
v  72.2254 -220.9868 25.3594
v  71.2493 -223.2344 23.0304
v  71.4145 -222.0560 23.0304
v  71.4145 -222.0560 24.5027
v  71.2493 -223.2344 24.5027
v  71.5275 -223.4450 24.6727
v  71.5275 -223.4450 23.0298
v  71.5511 -223.2767 23.0304
v  71.5511 -223.2767 24.5027
v  71.7398 -221.9300 23.0298
v  71.7398 -221.9300 24.6727
v  71.7162 -222.0983 24.5027
v  71.7162 -222.0983 23.0304
v  71.0262 -224.8269 23.0304
v  71.1913 -223.6486 23.0304
v  71.1913 -223.6486 24.5027
v  71.0262 -224.8269 24.5027
v  71.3043 -225.0376 24.6727
v  71.3043 -225.0376 23.0298
v  71.3279 -224.8692 23.0304
v  71.3279 -224.8692 24.5027
v  71.5166 -223.5225 23.0298
v  71.5166 -223.5225 24.6727
v  71.4930 -223.6909 24.5027
v  71.4930 -223.6909 23.0304
v  70.7503 -226.7951 23.0304
v  70.9155 -225.6167 23.0304
v  70.9155 -225.6167 24.5027
v  70.7503 -226.7951 24.5027
v  71.0285 -227.0057 24.6727
v  71.0285 -227.0057 23.0298
v  71.0521 -226.8374 23.0304
v  71.0521 -226.8374 24.5027
v  71.2408 -225.4907 23.0298
v  71.2408 -225.4907 24.6727
v  71.2172 -225.6590 24.5027
v  71.2172 -225.6590 23.0304
v  70.5271 -228.3876 23.0304
v  70.6923 -227.2093 23.0304
v  70.6923 -227.2093 24.5027
v  70.5271 -228.3876 24.5027
v  70.8053 -228.5983 24.6727
v  70.8053 -228.5983 23.0298
v  70.8289 -228.4299 23.0304
v  70.8289 -228.4299 24.5027
v  71.0176 -227.0832 23.0298
v  71.0176 -227.0832 24.6727
v  70.9940 -227.2516 24.5027
v  70.9940 -227.2516 23.0304
v  70.2643 -230.2630 23.0304
v  70.4295 -229.0846 23.0304
v  70.4295 -229.0846 24.5027
v  70.2643 -230.2630 24.5027
v  70.5425 -230.4736 24.6727
v  70.5425 -230.4736 23.0298
v  70.5661 -230.3053 23.0304
v  70.5661 -230.3053 24.5027
v  70.7548 -228.9586 23.0298
v  70.7548 -228.9586 24.6727
v  70.7312 -229.1269 24.5027
v  70.7312 -229.1269 23.0304
v  70.0411 -231.8555 23.0304
v  70.2063 -230.6772 23.0304
v  70.2063 -230.6772 24.5027
v  70.0411 -231.8555 24.5027
v  70.3193 -232.0662 24.6727
v  70.3193 -232.0662 23.0298
v  70.3429 -231.8978 23.0304
v  70.3429 -231.8978 24.5027
v  70.5316 -230.5511 23.0298
v  70.5316 -230.5511 24.6727
v  70.5080 -230.7195 24.5027
v  70.5080 -230.7195 23.0304
v  70.2148 -234.2702 19.0738
v  70.4180 -232.8310 19.0738
v  70.4180 -232.8310 21.0821
v  70.2148 -234.2702 21.0821
v  70.3326 -234.5090 21.3021
v  70.3326 -234.5090 19.0747
v  70.3634 -234.2911 19.0738
v  70.3634 -234.2911 21.0821
v  70.5973 -232.6341 19.0747
v  70.5973 -232.6341 21.3021
v  70.5665 -232.8519 21.0821
v  70.5665 -232.8519 19.0738
v  70.5737 -231.7277 19.0738
v  70.7769 -230.2885 19.0738
v  70.7769 -230.2885 21.0821
v  70.5737 -231.7277 21.0821
v  70.6915 -231.9665 21.3021
v  70.6915 -231.9665 19.0747
v  70.7223 -231.7486 19.0738
v  70.7223 -231.7486 21.0821
v  70.9562 -230.0916 19.0747
v  70.9562 -230.0916 21.3021
v  70.9254 -230.3095 21.0821
v  70.9254 -230.3095 19.0738
v  70.8870 -229.5081 19.0738
v  71.0902 -228.0689 19.0738
v  71.0902 -228.0689 21.0821
v  70.8870 -229.5081 21.0821
v  71.0048 -229.7469 21.3021
v  71.0048 -229.7469 19.0747
v  71.0356 -229.5291 19.0738
v  71.0356 -229.5291 21.0821
v  71.2695 -227.8720 19.0747
v  71.2695 -227.8720 21.3021
v  71.2387 -228.0899 21.0821
v  71.2387 -228.0899 19.0738
v  71.2504 -226.9342 19.0738
v  71.4535 -225.4950 19.0738
v  71.4535 -225.4950 21.0821
v  71.2504 -226.9342 21.0821
v  71.3681 -227.1730 21.3021
v  71.3681 -227.1730 19.0790
v  71.3989 -226.9551 19.0738
v  71.3989 -226.9551 21.0821
v  71.6328 -225.2981 19.0790
v  71.6328 -225.2981 21.3021
v  71.6020 -225.5160 21.0821
v  71.6020 -225.5160 19.0738
v  71.5904 -224.5251 19.0738
v  71.7935 -223.0860 19.0738
v  71.7935 -223.0860 21.0821
v  71.5904 -224.5251 21.0821
v  71.7082 -224.7639 21.3021
v  71.7082 -224.7639 19.0747
v  71.7389 -224.5461 19.0738
v  71.7389 -224.5461 21.0821
v  71.9728 -222.8891 19.0747
v  71.9728 -222.8891 21.3021
v  71.9421 -223.1069 21.0821
v  71.9421 -223.1069 19.0738
v  72.0610 -221.1915 19.0738
v  72.2641 -219.7523 19.0738
v  72.2641 -219.7523 21.0821
v  72.0610 -221.1915 21.0821
v  72.1787 -221.4303 21.3021
v  72.1787 -221.4303 19.0747
v  72.2095 -221.2125 19.0738
v  72.2095 -221.2125 21.0821
v  72.4434 -219.5555 19.0747
v  72.4434 -219.5555 21.3021
v  72.4126 -219.7733 21.0821
v  72.4126 -219.7733 19.0738
v  72.3515 -219.4913 14.7792
v  72.3515 -219.4913 17.5417
v  72.0727 -221.4661 17.5417
v  72.1962 -221.7360 17.7397
v  72.1962 -221.7360 14.7745
v  72.2311 -221.4885 17.5417
v  72.5448 -219.2661 14.7745
v  72.5448 -219.2661 17.7397
v  72.5099 -219.5136 17.5417
v  72.5099 -219.5136 14.7792
v  71.6257 -224.6330 14.7752
v  71.8539 -223.0164 14.7752
v  71.8539 -223.0164 17.4960
v  71.6257 -224.6330 17.4960
v  71.7534 -224.8732 17.7160
v  71.7534 -224.8732 14.7741
v  71.7841 -224.6554 14.7752
v  71.7841 -224.6554 17.4960
v  72.0431 -222.8209 14.7741
v  72.0431 -222.8209 17.7160
v  72.0123 -223.0388 17.4960
v  72.0123 -223.0388 14.7752
v  71.2861 -227.0387 14.7752
v  71.5143 -225.4221 14.7752
v  71.5143 -225.4221 17.4960
v  71.2861 -227.0387 17.4960
v  71.4138 -227.2789 17.7160
v  71.4138 -227.2789 14.7741
v  71.4445 -227.0611 14.7752
v  71.4445 -227.0611 17.4960
v  71.7035 -225.2267 14.7741
v  71.7035 -225.2267 17.7160
v  71.6727 -225.4445 17.4960
v  71.6727 -225.4445 14.7752
v  70.9267 -229.5848 14.7752
v  71.1549 -227.9682 14.7752
v  71.1549 -227.9682 17.4960
v  70.9267 -229.5848 17.4960
v  71.0544 -229.8250 17.7160
v  71.0544 -229.8250 14.7741
v  71.0851 -229.6071 14.7752
v  71.0851 -229.6071 17.4960
v  71.3441 -227.7727 14.7741
v  71.3441 -227.7727 17.7160
v  71.3133 -227.9905 17.4960
v  71.3133 -227.9905 14.7752
v  70.6137 -231.8023 14.7714
v  70.8383 -230.2108 17.4838
v  70.6137 -231.8023 17.4838
v  70.7400 -232.0524 17.7138
v  70.7400 -232.0524 14.7714
v  70.7721 -231.8246 14.7714
v  70.7721 -231.8246 17.4838
v  71.0289 -230.0054 14.7714
v  71.0289 -230.0054 17.7138
v  70.9968 -230.2332 17.4838
v  70.2535 -234.3540 14.7752
v  70.4817 -232.7374 14.7752
v  70.4817 -232.7374 17.4960
v  70.2535 -234.3540 17.4960
v  70.3812 -234.5943 17.7160
v  70.3812 -234.5943 14.7741
v  70.4119 -234.3764 14.7752
v  70.4119 -234.3764 17.4960
v  70.6709 -232.5420 14.7741
v  70.6709 -232.5420 17.7160
v  70.6401 -232.7598 17.4960
v  70.6401 -232.7598 14.7752
v  72.5064 -218.3934 19.0745
v  70.1872 -234.8255 19.0745
v  70.2336 -234.4950 21.3021
v  70.2336 -234.4950 19.0747
v  70.4983 -232.6201 19.0747
v  70.4983 -232.6201 21.3021
v  70.5925 -231.9525 21.3021
v  70.5925 -231.9525 19.0747
v  70.8571 -230.0776 19.0747
v  70.8571 -230.0776 21.3021
v  70.9058 -229.7329 21.3021
v  70.9058 -229.7329 19.0747
v  71.1704 -227.8581 19.0747
v  71.1704 -227.8581 21.3021
v  71.2691 -227.1590 21.3021
v  71.2691 -227.1590 19.0790
v  71.5338 -225.2841 19.0790
v  71.5338 -225.2841 21.3021
v  71.6092 -224.7500 21.3021
v  71.6092 -224.7500 19.0747
v  71.8738 -222.8751 19.0747
v  71.8738 -222.8751 21.3021
v  72.0797 -221.4164 21.3021
v  72.0797 -221.4164 19.0747
v  72.3444 -219.5415 19.0747
v  72.3444 -219.5415 21.3021
v  70.1872 -234.8255 21.3019
v  72.5064 -218.3934 21.3019
v  72.3515 -219.4913 13.9333
v  70.6137 -231.8023 13.9255
v  72.5099 -219.5136 13.9333
v  72.6649 -218.4157 13.9304
v  72.6649 -218.4157 14.7763
v  72.5064 -218.3934 13.9304
v  72.5064 -218.3934 14.7763
v  70.7721 -231.8246 13.9255
v  70.3456 -234.8479 13.9304
v  70.3456 -234.8479 14.7763
v  70.1872 -234.8255 14.7763
v  70.1872 -234.8255 13.9304
v  72.3864 -219.2437 14.7745
v  72.0378 -221.7136 17.7397
v  72.0378 -221.7136 14.7745
v  72.3864 -219.2437 17.7397
v  71.5949 -224.8508 17.7160
v  71.5949 -224.8508 14.7741
v  71.8846 -222.7986 14.7741
v  71.8846 -222.7986 17.7160
v  71.2553 -227.2566 17.7160
v  71.2553 -227.2566 14.7741
v  71.5450 -225.2043 14.7741
v  71.5450 -225.2043 17.7160
v  70.8960 -229.8026 17.7160
v  70.8960 -229.8026 14.7741
v  71.1856 -227.7503 14.7741
v  71.1856 -227.7503 17.7160
v  70.5816 -232.0300 17.7138
v  70.5816 -232.0300 14.7714
v  70.8705 -229.9831 14.7714
v  70.8705 -229.9831 17.7138
v  70.2228 -234.5719 17.7160
v  70.2228 -234.5719 14.7741
v  70.5124 -232.5196 14.7741
v  70.5124 -232.5196 17.7160
v  62.9417 -233.0424 13.9328
v  69.6910 -234.7551 13.9262
v  71.4681 -223.4367 24.6727
v  71.4681 -223.4367 23.0298
v  71.6804 -221.9216 23.0298
v  71.6804 -221.9216 24.6727
v  71.2449 -225.0293 24.6727
v  71.2449 -225.0293 23.0298
v  71.4572 -223.5142 23.0298
v  71.4572 -223.5142 24.6727
v  70.9691 -226.9974 24.6727
v  70.9691 -226.9974 23.0298
v  71.1814 -225.4823 23.0298
v  71.1814 -225.4823 24.6727
v  70.7459 -228.5900 24.6727
v  70.7459 -228.5900 23.0298
v  70.9582 -227.0749 23.0298
v  70.9582 -227.0749 24.6727
v  70.4831 -230.4653 24.6727
v  70.4831 -230.4653 23.0298
v  70.6954 -228.9502 23.0298
v  70.6954 -228.9502 24.6727
v  70.2599 -232.0578 24.6727
v  70.2599 -232.0578 23.0298
v  70.4722 -230.5428 23.0298
v  70.4722 -230.5428 24.6727
v  70.2599 -232.0578 22.8058
v  71.7398 -221.9300 22.8058
v  70.3193 -232.0662 22.8058
v  71.6804 -221.9216 22.8058
v  72.1788 -221.4390 21.5597
v  72.4434 -219.5637 21.5597
v  72.4574 -219.4647 21.7143
v  72.1648 -221.5380 21.7143
v  72.0785 -221.4248 21.5597
v  72.3432 -219.5495 21.5597
v  72.3571 -219.4505 21.7143
v  72.0645 -221.5238 21.7143
v  71.7075 -224.7782 21.5597
v  71.9721 -222.9030 21.5597
v  71.9861 -222.8039 21.7143
v  71.6935 -224.8773 21.7143
v  71.6072 -224.7641 21.5597
v  71.8718 -222.8888 21.5597
v  71.8858 -222.7898 21.7143
v  71.5932 -224.8631 21.7143
v  71.3686 -227.1789 21.5597
v  71.6333 -225.3036 21.5597
v  71.6473 -225.2046 21.7143
v  71.3547 -227.2780 21.7143
v  71.2683 -227.1648 21.5597
v  71.5330 -225.2895 21.5597
v  71.5470 -225.1905 21.7143
v  71.2544 -227.2638 21.7143
v  71.0050 -229.7553 21.5597
v  71.2697 -227.8801 21.5597
v  71.2837 -227.7811 21.7143
v  70.9910 -229.8544 21.7143
v  70.9047 -229.7412 21.5597
v  71.1694 -227.8659 21.5597
v  71.1834 -227.7669 21.7143
v  70.8907 -229.8402 21.7143
v  70.6910 -231.9797 21.5597
v  70.9557 -230.1044 21.5597
v  70.9697 -230.0054 21.7143
v  70.6771 -232.0787 21.7143
v  70.5908 -231.9655 21.5597
v  70.8554 -230.0903 21.5597
v  70.8694 -229.9913 21.7143
v  70.5768 -232.0646 21.7143
v  70.3346 -234.5051 21.5597
v  70.5993 -232.6299 21.5597
v  70.6133 -232.5308 21.7143
v  70.3206 -234.6042 21.7143
v  70.2343 -234.4910 21.5597
v  70.4990 -232.6157 21.5597
v  70.5130 -232.5167 21.7143
v  70.2204 -234.5900 21.7143
v  59.5305 -223.7748 29.6258
v  60.4845 -223.9988 29.6258
v  60.5988 -223.5120 29.6258
v  59.6448 -223.2880 29.6258
v  59.5305 -223.7748 28.1193
v  60.4845 -223.9988 28.1193
v  60.5988 -223.5120 28.1193
v  59.6448 -223.2880 28.1193
v  63.2477 -230.0176 30.4870
v  63.8323 -230.0974 30.4870
v  64.1078 -228.0760 30.4870
v  63.5232 -227.9963 30.4870
v  63.2477 -230.0176 28.4288
v  63.8323 -230.0974 28.4288
v  64.1078 -228.0760 28.4288
v  63.5232 -227.9963 28.4288
v  64.5616 -221.5573 30.5506
v  65.4534 -221.6789 30.5506
v  65.5749 -220.7872 30.5506
v  64.6832 -220.6656 30.5506
v  64.5616 -221.5573 28.4288
v  65.4534 -221.6789 28.4288
v  65.5749 -220.7872 28.4288
v  64.6832 -220.6656 28.4288
v  52.1355 -220.1050 26.7413
v  52.8499 -220.3460 26.7413
v  52.9728 -219.9816 26.7413
v  52.2585 -219.7405 26.7413
v  52.1355 -220.1050 23.6714
v  52.8499 -220.3460 23.6714
v  52.9728 -219.9816 23.6714
v  52.2585 -219.7405 23.6714
# 463 vertices

vn 0.8327 -0.1178 -0.5411
vn 0.0997 -0.0141 -0.9949
vn 0.6740 -0.0954 -0.7326
vn 0.6661 -0.0938 -0.7400
vn 0.6887 -0.0962 0.7186
vn 0.0000 0.0000 1.0000
vn -0.2565 0.0550 0.9650
vn -0.9260 0.3776 0.0000
vn -0.3428 -0.9394 0.0000
vn -0.9920 0.1264 0.0000
vn -0.1272 -0.5053 0.8535
vn -0.9451 0.3268 0.0000
vn -0.0269 -0.2175 0.9757
vn -0.9341 0.3230 0.1523
vn -0.1260 -0.9920 -0.0004
vn 0.1316 0.9913 0.0009
vn 0.1246 0.9922 -0.0000
vn -0.1230 -0.9924 -0.0019
vn 0.1243 0.9922 0.0006
vn -0.1275 -0.9918 0.0036
vn 0.9903 -0.1390 0.0000
vn 0.7250 -0.1017 -0.6812
vn 0.5107 -0.0715 0.8568
vn 0.7497 -0.1047 0.6535
vn 0.3340 -0.0469 0.9414
vn 0.3314 -0.0463 0.9424
vn 0.3295 -0.0469 0.9430
vn 0.9678 -0.1284 0.2164
vn -0.8566 0.1092 0.5043
vn 0.1264 0.9920 -0.0000
vn -0.1264 -0.9920 0.0000
vn -0.1253 -0.9921 0.0012
vn -0.1281 -0.9918 0.0010
vn -0.1281 -0.9918 0.0008
vn 0.1313 0.9913 0.0000
vn 0.1248 0.9922 -0.0002
vn 0.1253 0.9921 -0.0005
vn 0.1242 0.9923 0.0007
vn 0.1199 0.9928 -0.0024
vn 0.1235 0.9924 -0.0009
vn 0.1259 0.9920 -0.0016
vn 0.1398 0.9902 0.0000
vn -0.1397 -0.9902 -0.0000
vn 0.8570 -0.1210 -0.5009
vn 0.9902 -0.1398 0.0000
vn 0.7705 -0.1087 -0.6281
vn 0.1280 -0.0179 0.9916
vn -0.1388 -0.9903 -0.0000
vn -0.1388 -0.9903 0.0000
vn 0.1388 0.9903 -0.0000
vn 0.1388 0.9903 0.0000
vn 0.9903 -0.1388 0.0000
vn 0.1390 -0.0195 0.9901
vn 0.4195 -0.0588 -0.9058
vn 0.9903 -0.1388 -0.0000
vn 0.9902 -0.1398 -0.0000
vn -0.1398 -0.9902 0.0000
vn 0.1398 0.9902 -0.0000
vn 0.0000 -0.0000 1.0000
vn 0.0000 0.0000 -1.0000
vn 0.9903 -0.1391 -0.0000
vn 0.0000 0.0002 1.0000
vn -0.0001 -0.0005 1.0000
vn 0.0027 -0.0004 1.0000
vn 0.0011 0.0080 1.0000
vn -0.0009 -0.0061 1.0000
vn 0.0073 -0.0003 1.0000
vn -0.0292 0.0036 0.9996
vn 0.0505 -0.0061 0.9987
vn -0.0516 0.0068 0.9986
vn 0.1344 -0.0174 0.9908
vn -0.0711 0.0095 0.9974
vn 0.1930 -0.0263 0.9808
vn -0.4432 0.0597 0.8944
vn 0.7525 -0.1017 0.6507
vn -0.1145 0.0156 0.9933
vn 0.1192 -0.0163 0.9927
vn -0.1432 0.0197 0.9895
vn 0.9902 -0.1397 -0.0003
vn -0.0003 -0.0020 1.0000
vn -0.1398 -0.9902 -0.0000
vn -0.0000 0.0000 -1.0000
vn 0.9903 -0.1389 0.0000
vn 0.9902 -0.1397 -0.0000
vn 0.9902 -0.1398 -0.0004
vn 0.9902 -0.1397 0.0002
vn 0.9902 -0.1398 0.0001
vn -0.0001 -0.0004 1.0000
vn -0.0021 -0.0146 0.9999
vn 0.0008 0.0054 1.0000
vn 0.0012 0.0083 1.0000
vn 0.9903 -0.1389 -0.0000
vn -0.4520 -0.8920 0.0000
vn -0.1404 -0.9901 0.0000
vn -0.1395 -0.9902 0.0000
vn -0.1396 -0.9902 0.0005
vn -0.2460 -0.9693 0.0000
vn 0.1248 0.9922 0.0000
vn 0.1248 0.9922 -0.0000
vn 0.9902 -0.1398 -0.0010
vn 0.9902 -0.1398 -0.0009
vn 0.9902 -0.1398 0.0007
vn 0.9902 -0.1398 0.0004
vn 0.9902 -0.1398 0.0002
vn 0.9902 -0.1398 -0.0002
vn -0.1387 -0.9903 0.0000
vn 0.9903 -0.1388 0.0002
vn 0.9903 -0.1388 -0.0003
vn 0.9903 -0.1388 -0.0002
vn 0.9903 -0.1388 0.0001
vn 0.9902 -0.1398 -0.0001
vn -0.0001 0.0000 -1.0000
vn 0.1173 0.8314 -0.5431
vn 0.0001 -0.0000 1.0000
vn -0.1174 -0.8314 -0.5431
vn -0.2286 -0.9735 0.0000
vn 0.9735 -0.2286 0.0000
vn 0.2286 0.9735 0.0000
vn -0.9735 0.2286 0.0000
vn -0.1351 -0.9908 0.0000
vn 0.9908 -0.1351 0.0000
vn 0.1351 0.9908 0.0000
vn -0.9908 0.1351 0.0000
vn -0.0000 0.0000 1.0000
vn -0.3198 -0.9475 -0.0000
vn 0.9475 -0.3197 0.0000
vn 0.3198 0.9475 0.0000
vn -0.9475 0.3197 -0.0000
vn -0.9475 0.3198 -0.0000
vn -0.9475 0.3198 0.0000
# 130 vertex normals

vt 3.4086 0.8288 0.0005
vt -2.4084 0.8198 0.0005
vt -2.4097 0.6768 0.3961
vt 3.4085 0.6972 0.3961
vt -2.4103 0.5111 0.4281
vt 3.4085 0.5220 0.4281
vt -2.4119 0.1728 0.9995
vt -2.1906 0.1800 0.9995
vt 3.4085 0.1829 0.9995
vt -4.0987 18.8267 0.0532
vt -4.0571 7.2891 0.9995
vt 17.1127 7.1622 0.9991
vt 18.2310 18.6835 0.0532
vt 12.2355 -2.3050 0.9995
vt 12.2354 3.5009 0.9995
vt 11.4779 3.5018 0.9995
vt 11.4893 -2.2980 0.9995
vt 7.4906 13.6309 0.0005
vt -1.1326 15.9364 0.0005
vt -4.2852 6.5442 0.9975
vt 16.9442 6.4563 0.9995
vt 5.0590 6.2998 -4.7348
vt -0.8182 6.2998 -2.3379
vt -0.8182 1.1570 -2.3379
vt 5.0590 -7.9188 -4.7348
vt -0.8182 -7.9188 -2.3379
vt -2.3379 -7.9188 1.8182
vt -2.3379 1.1570 1.8182
vt -10.4664 1.1570 4.7839
vt -10.4664 -7.9188 4.7839
vt -7.4441 7.7998 -1.4933
vt -7.4441 4.6610 -1.4933
vt 18.5545 6.6383 0.0005
vt 7.1849 8.9488 0.0005
vt 7.1913 0.8605 0.5275
vt 17.2171 0.8690 0.5275
vt -8.3834 4.6610 -8.8758
vt -9.0096 4.6610 -8.6593
vt -9.0096 -7.9195 -8.6593
vt -3.7839 1.1570 -10.4664
vt -3.7839 -7.9188 -10.4664
vt 7.1913 0.8605 0.9995
vt 7.1849 8.9488 0.7739
vt 0.4678 0.8327 0.9995
vt 11.4799 4.2936 0.6138
vt 12.2374 4.2926 0.6138
vt 12.2918 9.3782 0.6138
vt 11.4885 9.4949 0.6138
vt -8.3279 7.3340 -8.4591
vt -8.9541 7.3340 -8.2426
vt -8.8758 4.6610 9.3834
vt -1.4933 4.6610 8.4441
vt -2.4135 7.3340 8.5614
vt -8.4591 7.3340 9.3279
vt 2.4161 4.6610 9.0504
vt 9.6593 4.6610 10.0096
vt 9.2426 7.3340 9.9541
vt 3.3362 7.3340 9.1677
vt 2.4161 8.9225 9.0504
vt -4.3332 8.9225 8.2026
vt -1.4933 7.7998 8.4441
vt 3.4599 7.7998 7.8323
vt 5.2500 8.9225 7.6062
vt -1.4933 8.9225 8.4441
vt -5.9000 7.0940 8.0075
vt 6.8150 7.0940 7.3983
vt 0.2668 0.5613 -0.1442
vt 0.8865 0.5613 -0.0573
vt 0.8865 2.1033 -0.0573
vt 0.2668 2.1033 -0.1442
vt 0.8364 2.5415 0.3474
vt 0.2167 2.5415 0.2604
vt 11.4582 -6.8879 0.0005
vt 12.2336 -6.8956 0.0005
vt 12.2377 -3.6527 0.5556
vt 11.4754 -3.6454 0.5556
vt 11.4754 1.4445 -1.4021
vt 12.2377 1.4445 -1.4049
vt 12.2355 2.5987 -0.8866
vt 11.4893 2.5987 -0.8838
vt 18.2404 20.4069 0.0005
vt -4.1096 20.5784 0.0005
vt -4.1014 19.2519 0.0404
vt -4.9930 20.5948 0.0005
vt -4.9823 19.2417 0.0407
vt 0.8384 -1.2565 0.3380
vt 0.2136 -1.2587 0.2603
vt 11.4946 2.5987 1.3465
vt 11.4926 1.5960 1.6510
vt 12.2501 1.5960 1.6514
vt 12.2521 2.5987 1.3469
vt 0.9621 1.0000 0.0000
vt 0.9635 1.0000 0.0000
vt 10.1779 4.3695 6.9611
vt 10.5825 4.8076 6.9109
vt 10.1779 2.8275 6.9611
vt 10.3292 1.0981 6.9399
vt 2.4161 -7.9195 9.0504
vt 9.6593 -7.9195 10.0096
vt -9.6695 4.8076 7.5306
vt -9.2648 4.3695 7.5808
vt -9.2648 2.8275 7.5808
vt -9.6602 1.0097 7.5326
vt -10.0532 0.4558 7.4838
vt -9.9356 0.2795 7.4965
vt -10.1890 0.4701 7.4664
vt -10.4664 0.7247 7.4321
vt -0.1467 0.0809 5.6545
vt -0.1467 0.9268 5.6545
vt -0.3051 0.9268 5.6321
vt -0.3051 0.0809 5.6321
vt -0.0877 0.9191 -3.0902
vt -0.0877 0.0732 -3.0902
vt 0.0707 0.0732 -3.1126
vt 0.0707 0.9191 -3.1126
vt 3.8859 0.9995 0.1700
vt -2.8862 0.9995 0.4408
vt -2.8859 0.0005 0.8300
vt 3.8862 0.0005 0.5592
vt 8.7161 0.9265 1.6596
vt -7.7161 0.9265 -0.6596
vt -7.7161 0.2184 -0.6596
vt 8.7161 0.2184 1.6596
vt -2.8456 0.9995 0.8045
vt 3.8454 0.9995 1.1669
vt 3.8456 0.0005 0.1955
vt -2.8454 0.0005 -0.1669
vt -2.6170 4.0486 0.9995
vt -2.5934 2.2067 0.1055
vt 7.4945 2.2504 0.1055
vt 7.4709 4.0923 0.9995
vt 1.3375 1.1461 -5.7227
vt 1.3375 1.7209 -5.7227
vt -2.4218 2.2158 -5.1958
vt 1.3375 -0.9883 -5.7227
vt 1.3375 -1.2124 -5.7227
vt 1.7436 2.2158 6.7796
vt -2.0158 1.7209 6.2527
vt -2.0158 1.1461 6.2527
vt -2.0158 -0.9883 6.2527
vt -2.0158 -1.2124 6.2527
vt 3.3988 0.9995 0.4883
vt -2.3967 0.9995 0.4777
vt -2.3967 0.3713 0.4777
vt 3.3988 0.3713 0.4883
vt -2.5909 2.0077 0.0005
vt 7.4970 2.0514 0.0005
vt 1.7436 1.3379 -5.7796
vt 1.7436 1.6627 -5.7796
vt 3.3977 0.6986 0.0005
vt -2.3981 0.6796 0.0005
vt -2.3977 0.3014 0.9995
vt 3.3981 0.3204 0.9995
vt -2.4218 1.6627 6.1958
vt -2.4218 1.3379 6.1958
vt 0.0000 0.0000 0.0000
vt 1.0000 0.0000 0.0000
vt 1.0000 1.0000 0.0000
vt 0.0000 1.0000 0.0000
vt 1.0000 0.9945 0.0000
vt -0.0000 0.9945 0.0000
vt 0.0668 0.0128 0.0000
vt 0.9984 0.0128 0.0000
vt 0.0005 0.2347 0.0005
vt 0.9995 0.2347 0.9995
vt 0.9995 0.9995 0.9995
vt 0.0005 0.9995 0.0005
vt 0.0005 0.2380 0.0005
vt 0.9995 0.2380 0.9995
vt 1.0000 0.6033 0.0000
vt 1.0000 0.6275 0.0000
vt 0.0000 0.6275 0.0000
vt 0.0000 0.6033 0.0000
vt 1.0000 0.4895 0.0000
vt 1.0000 0.5169 0.0000
vt 10.9202 14.6850 0.0005
vt -8.0818 14.4250 0.0005
vt -8.0805 14.1975 0.0005
vt 10.9215 14.4575 0.0005
vt 0.0000 0.5169 0.0000
vt 0.0000 0.4895 0.0000
vt -0.5594 2.0800 -7.0760
vt -0.5594 -0.1474 -7.0760
vt -0.4604 -0.1474 -7.0900
vt -0.4604 2.0800 -7.0900
vt 1.2947 -0.1474 -5.2011
vt 1.2947 2.0800 -5.2011
vt 1.1957 2.0800 -5.2151
vt 1.1957 -0.1474 -5.2151
vt -0.2947 -5.2011 2.0800
vt -0.5594 -7.0760 2.0800
vt -0.4604 -7.0900 2.0800
vt -0.1957 -5.2151 2.0800
vt -0.2005 2.0800 -4.5335
vt -0.2005 -0.1474 -4.5335
vt -0.1015 -0.1474 -4.5475
vt -0.1015 2.0800 -4.5475
vt 0.9358 -0.1474 -2.6587
vt 0.9358 2.0800 -2.6587
vt 0.8368 2.0800 -2.6726
vt 0.8368 -0.1474 -2.6726
vt 0.0642 -2.6587 2.0800
vt -0.2005 -4.5335 2.0800
vt -0.1015 -4.5475 2.0800
vt 0.1632 -2.6726 2.0800
vt 0.1128 2.0800 -2.3139
vt 0.1128 -0.1474 -2.3139
vt 0.2118 -0.1474 -2.3279
vt 0.2118 2.0800 -2.3279
vt 0.6225 -0.1474 -0.4391
vt 0.6225 2.0800 -0.4391
vt 0.5235 2.0800 -0.4530
vt 0.5235 -0.1474 -0.4530
vt 0.3775 -0.4391 2.0800
vt 0.1128 -2.3139 2.0800
vt 0.2118 -2.3279 2.0800
vt 0.4765 -0.4530 2.0800
vt 0.4761 2.0800 0.2600
vt 0.4761 -0.1431 0.2600
vt 0.5752 -0.1431 0.2460
vt 0.5752 2.0800 0.2460
vt 0.2592 -0.1431 2.1348
vt 0.2592 2.0800 2.1348
vt 0.1602 2.0800 2.1209
vt 0.1602 -0.1431 2.1209
vt 0.7408 2.1348 2.0800
vt 0.4761 0.2600 2.0800
vt 0.5752 0.2460 2.0800
vt 0.8398 2.1209 2.0800
vt 0.8162 2.0800 2.6690
vt 0.8162 -0.1474 2.6690
vt 0.9152 -0.1474 2.6550
vt 0.9152 2.0800 2.6550
vt -0.0808 -0.1474 4.5439
vt -0.0808 2.0800 4.5439
vt -0.1798 2.0800 4.5299
vt -0.1798 -0.1474 4.5299
vt 1.0808 4.5439 2.0800
vt 0.8162 2.6690 2.0800
vt 0.9152 2.6550 2.0800
vt 1.1798 4.5299 2.0800
vt 1.2867 2.0800 6.0026
vt 1.2867 -0.1474 6.0026
vt 1.3858 -0.1474 5.9887
vt 1.3858 2.0800 5.9887
vt -0.5514 -0.1474 7.8775
vt -0.5514 2.0800 7.8775
vt -0.6504 2.0800 7.8635
vt -0.6504 -0.1474 7.8635
vt 1.5514 7.8775 2.0800
vt 1.2867 6.0026 2.0800
vt 1.3858 5.9887 2.0800
vt 1.6504 7.8635 2.0800
vt 1.4296 1.8600 -6.8721
vt 1.4296 -0.1483 -6.8721
vt 1.5781 -0.1483 -6.8512
vt 1.5781 1.8600 -6.8512
vt -0.2265 -0.1483 -5.4330
vt -0.2265 1.8600 -5.4330
vt -0.3750 1.8600 -5.4120
vt -0.3750 -0.1483 -5.4120
vt 1.2265 -5.4330 1.8600
vt 1.4296 -6.8721 1.8600
vt 1.5781 -6.8512 1.8600
vt 1.3750 -5.4120 1.8600
vt 1.0707 1.8600 -4.3297
vt 1.0707 -0.1483 -4.3297
vt 1.2193 -0.1483 -4.3087
vt 1.2193 1.8600 -4.3087
vt 0.1324 -0.1483 -2.8905
vt 0.1324 1.8600 -2.8905
vt -0.0161 1.8600 -2.8695
vt -0.0161 -0.1483 -2.8695
vt 0.8676 -2.8905 1.8600
vt 1.0707 -4.3297 1.8600
vt 1.2193 -4.3087 1.8600
vt 1.0161 -2.8695 1.8600
vt 0.7574 1.8600 -2.1101
vt 0.7574 -0.1483 -2.1101
vt 0.9059 -0.1483 -2.0891
vt 0.9059 1.8600 -2.0891
vt 0.4457 -0.1483 -0.6709
vt 0.4457 1.8600 -0.6709
vt 0.2972 1.8600 -0.6499
vt 0.2972 -0.1483 -0.6499
vt 0.5543 -0.6709 1.8600
vt 0.7574 -2.1101 1.8600
vt 0.9059 -2.0891 1.8600
vt 0.7028 -0.6499 1.8600
vt 0.3941 1.8600 0.4638
vt 0.3941 -0.1483 0.4638
vt 0.5426 -0.1483 0.4848
vt 0.5426 1.8600 0.4848
vt 0.8091 -0.1483 1.9030
vt 0.8091 1.8600 1.9030
vt 0.6605 1.8600 1.9240
vt 0.6605 -0.1483 1.9240
vt 0.1909 1.9030 1.8600
vt 0.3941 0.4638 1.8600
vt 0.5426 0.4848 1.8600
vt 0.3395 1.9240 1.8600
vt 0.0541 1.8600 2.8729
vt 0.0541 -0.1483 2.8729
vt 0.2026 -0.1483 2.8938
vt 0.2026 1.8600 2.8938
vt 1.1491 -0.1483 4.3121
vt 1.1491 1.8600 4.3121
vt 1.0006 1.8600 4.3330
vt 1.0006 -0.1483 4.3330
vt -0.1491 4.3121 1.8600
vt 0.0541 2.8729 1.8600
vt 0.2026 2.8938 1.8600
vt -0.0006 4.3330 1.8600
vt -0.4165 1.8600 6.2065
vt -0.4165 -0.1483 6.2065
vt -0.2680 -0.1483 6.2275
vt -0.2680 1.8600 6.2275
vt 1.6197 -0.1483 7.6457
vt 1.6197 1.8600 7.6457
vt 1.4711 1.8600 7.6667
vt 1.4711 -0.1483 7.6667
vt -0.6197 7.6457 1.8600
vt -0.4165 6.2065 1.8600
vt -0.2680 6.2275 1.8600
vt -0.4711 7.6667 1.8600
vt 5.6931 3.3523 1.2329
vt 4.2343 3.3523 1.0270
vt 4.2343 1.1248 1.0270
vt 5.6931 1.1248 1.2329
vt 2.3594 3.3523 0.7624
vt 1.8253 3.3523 0.6870
vt 1.8253 1.1292 0.6870
vt 2.3594 1.1248 0.7624
vt -0.0496 3.3523 0.4223
vt -0.7486 3.3523 0.3236
vt -0.7486 1.1248 0.3236
vt -0.0496 1.1292 0.4223
vt -4.8431 3.3523 -0.2543
vt -5.5107 3.3523 -0.3486
vt -5.5107 1.1248 -0.3486
vt -4.8431 1.1248 -0.2543
vt -7.3856 1.1248 -0.6132
vt -7.3856 3.3523 -0.6132
vt -7.7161 3.3521 -0.6596
vt -7.7161 1.1247 -0.6596
vt -2.6235 3.3523 0.0590
vt -2.9682 3.3523 0.0103
vt -2.9682 1.1248 0.0103
vt -2.6235 1.1248 0.0590
vt 7.5679 3.3523 1.4976
vt 7.5679 1.1248 1.4976
vt 8.7161 1.1247 1.6596
vt 8.7161 3.3521 1.6596
vt 10.9202 14.6850 0.2558
vt 9.5925 14.6669 0.2559
vt 10.9218 14.4050 0.2558
vt -7.6996 14.4307 0.2559
vt -8.0818 14.4250 0.2558
vt -8.0802 14.1450 0.2558
vt 9.5935 14.4919 0.2559
vt 9.3416 14.4884 0.2556
vt 9.3400 14.7510 0.2556
vt 7.6758 14.7282 0.2556
vt 7.6773 14.4657 0.2556
vt 7.4254 14.4622 0.2559
vt 7.4244 14.6373 0.2559
vt 5.7375 14.6142 0.2559
vt 5.7385 14.4392 0.2559
vt 5.4866 14.4358 0.2556
vt 5.4851 14.6983 0.2556
vt 3.8208 14.6756 0.2556
vt 3.8223 14.4130 0.2556
vt 3.5704 14.4096 0.2559
vt 3.5694 14.5846 0.2559
vt 2.9517 14.5762 0.2571
vt 2.9527 14.4011 0.2571
vt 2.7008 14.3977 0.2556
vt 2.6993 14.6602 0.2556
vt 1.0350 14.6375 0.2556
vt 1.0366 14.3750 0.2556
vt 0.7847 14.3715 0.2571
vt 0.7836 14.5465 0.2571
vt -0.0247 14.5355 0.2559
vt -0.0237 14.3605 0.2559
vt -0.2756 14.3570 0.2556
vt -0.2772 14.6196 0.2556
vt -1.9414 14.5968 0.2556
vt -1.9399 14.3343 0.2556
vt -2.1918 14.3308 0.2559
vt -2.1928 14.5059 0.2559
vt -2.5915 14.5004 0.2559
vt -2.5904 14.3254 0.2559
vt -2.8424 14.3220 0.2556
vt -2.8439 14.5845 0.2556
vt -4.5081 14.5618 0.2556
vt -4.5066 14.2992 0.2556
vt -4.7585 14.2958 0.2559
vt -4.7595 14.4708 0.2559
vt -5.5316 14.4603 0.2559
vt -5.5305 14.2852 0.2559
vt -5.7825 14.2818 0.2556
vt -5.7840 14.5443 0.2556
vt -7.4483 14.5216 0.2556
vt -7.4467 14.2591 0.2556
vt -7.6986 14.2556 0.2559
vt 8.7161 4.1784 1.6596
vt -7.7161 4.1784 -0.6596
vt 0.0005 0.0005 0.0005
vt 0.9995 0.0005 0.9995
vt 1.5839 0.0809 7.6070
vt 1.5839 0.9268 7.6070
vt 1.4254 0.9268 7.6293
vt 1.4254 0.0809 7.6293
vt 8.7049 0.0780 1.7388
vt 8.7049 0.9239 1.7388
vt 7.8545 0.9222 1.6188
vt 7.6070 0.0809 1.5839
vt -0.7388 0.0780 8.7049
vt -0.5804 0.0780 8.7272
vt -0.5804 0.9239 8.7272
vt -0.7388 0.9239 8.7049
vt 1.3123 0.0732 -4.6817
vt 1.3123 0.9191 -4.6817
vt 1.1539 0.9191 -4.7040
vt 1.1539 0.0732 -4.7040
vt -0.5804 0.0780 -7.7272
vt -0.5804 0.9239 -7.7272
vt -0.7388 0.9239 -7.7049
vt -0.7388 0.0780 -7.7049
vt 5.3846 0.9222 1.2702
vt 5.6321 0.0809 1.3051
vt 5.6321 0.9268 1.3051
vt -2.8848 0.9191 0.1029
vt -3.1126 0.9191 0.0707
vt -3.1126 0.0732 0.0707
vt 7.6070 0.9268 1.5839
vt -4.9318 0.9191 -0.1860
vt -4.7040 0.0732 -0.1539
vt -4.7040 0.9191 -0.1539
vt 1.5804 8.7272 0.9239
vt 1.4604 7.8769 0.9222
vt 1.6188 7.8545 0.9222
vt 1.7388 8.7049 0.9239
vt 1.2448 -1.4823 5.7053
vt 1.2448 -4.4475 5.7054
vt 1.4032 -4.4475 5.6830
vt 1.4032 -1.4823 5.6830
vt -0.2797 -4.4429 5.9529
vt -0.2797 -1.6804 5.9529
vt -0.4381 -1.6804 5.9305
vt -0.4381 -4.4429 5.9305
vt -0.2797 5.9529 -1.6804
vt -0.5585 7.9277 -1.6804
vt -0.7169 7.9054 -1.6804
vt -0.4381 5.9305 -1.6804
vt 1.5585 -1.6804 7.9277
vt 1.5585 -4.4429 7.9277
vt 1.7169 -4.4429 7.9053
vt 1.7169 -1.6804 7.9054
vt -0.5934 -4.4475 8.1753
vt -0.5934 -1.4823 8.1753
vt -0.7518 -1.4823 8.1529
vt -0.7518 -4.4475 8.1529
vt 1.5934 8.1753 -1.4823
vt 1.2448 5.7053 -1.4823
vt 1.4032 5.6830 -1.4823
vt 1.7518 8.1529 -1.4823
vt 0.8019 -1.5061 2.5681
vt 0.8019 -4.4479 2.5681
vt 0.9604 -4.4479 2.5458
vt 0.9604 -1.5061 2.5458
vt 0.1673 -4.4469 2.7860
vt 0.1673 -1.7261 2.7860
vt 0.0089 -1.7261 2.7636
vt 0.0089 -4.4469 2.7636
vt 0.1673 2.7860 -1.7261
vt -0.0609 4.4026 -1.7261
vt -0.2193 4.3802 -1.7261
vt 0.0089 2.7636 -1.7261
vt 1.0609 -1.7261 4.4026
vt 1.0609 -4.4469 4.4026
vt 1.2193 -4.4469 4.3802
vt 1.2193 -1.7261 4.3802
vt -0.0916 -4.4479 4.6204
vt -0.0916 -1.5061 4.6204
vt -0.2501 -1.5061 4.5981
vt -0.2501 -4.4479 4.5981
vt 1.0916 4.6204 -1.5061
vt 0.8019 2.5681 -1.5061
vt 0.9604 2.5458 -1.5061
vt 1.2501 4.5981 -1.5061
vt 0.4624 -1.5061 0.1624
vt 0.4624 -4.4479 0.1624
vt 0.6208 -4.4479 0.1401
vt 0.6208 -1.5061 0.1401
vt 0.5069 -4.4469 0.3803
vt 0.5069 -1.7261 0.3803
vt 0.3485 -1.7261 0.3579
vt 0.3485 -4.4469 0.3579
vt 0.5069 0.3803 -1.7261
vt 0.2787 1.9969 -1.7261
vt 0.1203 1.9745 -1.7261
vt 0.3485 0.3579 -1.7261
vt 0.7213 -1.7261 1.9969
vt 0.7213 -4.4469 1.9969
vt 0.8797 -4.4469 1.9745
vt 0.8797 -1.7261 1.9745
vt 0.2479 -4.4479 2.2147
vt 0.2479 -1.5061 2.2147
vt 0.0895 -1.5061 2.1923
vt 0.0895 -4.4479 2.1923
vt 0.7521 2.2147 -1.5061
vt 0.4624 0.1624 -1.5061
vt 0.6208 0.1401 -1.5061
vt 0.9105 2.1923 -1.5061
vt 0.1030 -1.5061 -2.3836
vt 0.1030 -4.4479 -2.3836
vt 0.2614 -4.4479 -2.4060
vt 0.2614 -1.5061 -2.4060
vt 0.8663 -4.4469 -2.1658
vt 0.8663 -1.7261 -2.1658
vt 0.7078 -1.7261 -2.1882
vt 0.7079 -4.4469 -2.1882
vt 0.8663 -2.1658 -1.7261
vt 0.6381 -0.5492 -1.7261
vt 0.4797 -0.5715 -1.7261
vt 0.7078 -2.1882 -1.7261
vt 0.3619 -1.7261 -0.5492
vt 0.3619 -4.4469 -0.5492
vt 0.5203 -4.4469 -0.5715
vt 0.5203 -1.7261 -0.5715
vt 0.6073 -4.4479 -0.3313
vt 0.6073 -1.5061 -0.3313
vt 0.4489 -1.5061 -0.3537
vt 0.4489 -4.4479 -0.3537
vt 0.3927 -0.3313 -1.5061
vt 0.1030 -2.3836 -1.5061
vt 0.2614 -2.4060 -1.5061
vt 0.5511 -0.3537 -1.5061
vt -0.2114 -1.5083 -4.6110
vt -0.2114 -4.4506 -4.6110
vt -0.0530 -4.4506 -4.6334
vt -0.0530 -1.5083 -4.6334
vt 1.1793 -4.4506 -4.3833
vt 1.1793 -1.7383 -4.3833
vt 1.0209 -1.7383 -4.4056
vt 1.0209 -4.4506 -4.4056
vt 1.1793 -4.3833 -1.7383
vt 0.9546 -2.7918 -1.7383
vt 0.7962 -2.8142 -1.7383
vt 1.0209 -4.4056 -1.7383
vt 0.0454 -1.7383 -2.7918
vt 0.0454 -4.4506 -2.7918
vt 0.2038 -4.4506 -2.8142
vt 0.2038 -1.7383 -2.8142
vt 0.9225 -4.4506 -2.5641
vt 0.9225 -1.5083 -2.5641
vt 0.7641 -1.5083 -2.5864
vt 0.7641 -4.4506 -2.5864
vt 0.0775 -2.5641 -1.5083
vt -0.2114 -4.6110 -1.5083
vt -0.0530 -4.6334 -1.5083
vt 0.2359 -2.5864 -1.5083
vt -0.5702 -1.5061 -7.1529
vt -0.5702 -4.4479 -7.1529
vt -0.4118 -4.4479 -7.1753
vt -0.4118 -1.5061 -7.1753
vt 1.5395 -4.4469 -6.9351
vt 1.5395 -1.7261 -6.9351
vt 1.3811 -1.7261 -6.9574
vt 1.3811 -4.4469 -6.9574
vt 1.5395 -6.9351 -1.7261
vt 1.3113 -5.3185 -1.7261
vt 1.1529 -5.3408 -1.7261
vt 1.3811 -6.9574 -1.7261
vt -0.3113 -1.7261 -5.3185
vt -0.3113 -4.4469 -5.3185
vt -0.1529 -4.4469 -5.3408
vt -0.1529 -1.7261 -5.3408
vt 1.2805 -4.4479 -5.1006
vt 1.2805 -1.5061 -5.1006
vt 1.1221 -1.5061 -5.1230
vt 1.1221 -4.4479 -5.1230
vt -0.2805 -5.1006 -1.5061
vt -0.5702 -7.1529 -1.5061
vt -0.4118 -7.1753 -1.5061
vt -0.1221 -5.1230 -1.5061
vt -7.7272 0.9239 -0.5804
vt -7.7272 0.0780 -0.5804
vt -7.4736 0.9218 -0.5448
vt -5.4214 0.9218 -0.2552
vt 4.2997 0.9218 1.1170
vt -2.7044 0.9218 0.1284
vt 0.2289 -0.8476 0.9228
vt 0.0007 -2.4642 0.9228
vt 0.1591 -2.4865 0.9228
vt 0.3873 -0.8699 0.9228
vt 0.5883 1.6985 0.9228
vt 0.3601 0.0819 0.9228
vt 0.5185 0.0595 0.9228
vt 0.7467 1.6761 0.9228
vt 0.9278 4.1042 0.9228
vt 0.6997 2.4876 0.9228
vt 0.8581 2.4652 0.9228
vt 1.0863 4.0818 0.9228
vt -0.4443 -5.6168 0.9228
vt -0.6725 -7.2334 0.9228
vt -0.5141 -7.2558 0.9228
vt -0.2859 -5.6392 0.9228
vt -5.6392 0.9228 -0.2859
vt -7.2558 0.9228 -0.5141
vt 4.0818 0.9228 1.0863
vt 2.4652 0.9228 0.8581
vt 1.8940 0.9218 0.7774
vt 1.6761 0.9228 0.7467
vt 0.0595 0.9228 0.5185
vt -0.1583 0.9218 0.4878
vt -0.6521 0.9218 0.4181
vt -0.8699 0.9228 0.3873
vt -2.4865 0.9228 0.1591
vt 2.2474 0.9218 0.8273
vt 1.1117 5.4070 0.9222
vt 0.9586 4.3220 0.9218
vt 1.1170 4.2997 0.9218
vt 1.2702 5.3846 0.9222
vt 0.7774 1.8940 0.9218
vt 0.8273 2.2474 0.9218
vt 0.6689 2.2698 0.9218
vt 0.6190 1.9163 0.9218
vt 0.3293 -0.1360 0.9218
vt 0.2596 -0.6297 0.9218
vt 0.4181 -0.6521 0.9218
vt 0.4878 -0.1583 0.9218
vt -0.0301 -2.6820 0.9218
vt -0.0555 -2.8625 0.9191
vt 0.1029 -2.8848 0.9191
vt 0.1284 -2.7044 0.9218
vt -0.3445 -4.9094 0.9191
vt -0.4136 -5.3990 0.9218
vt -0.2552 -5.4214 0.9218
vt -0.1860 -4.9318 0.9191
vt -0.5804 -7.7272 0.9239
vt -0.5448 -7.4736 0.9218
vt -0.7033 -7.4513 0.9218
vt -0.7388 -7.7049 0.9239
vt -7.7161 -3.1736 -0.6596
vt -7.4625 -3.1757 -0.6241
vt -7.4625 -0.2338 -0.6241
vt -7.7161 -0.0062 -0.6596
vt 1.3709 7.7968 -7.1526
vt -4.7348 6.2998 -4.0590
vt -4.7348 -7.9188 -4.0590
vt 1.3709 -7.9159 -7.1526
vt 8.6164 -7.0724 -8.9356
vt 8.1202 -7.9225 -8.8653
vt 8.6164 -7.9183 -8.9356
vt 8.7241 0.4558 -8.9503
vt 8.8674 0.4701 -8.9705
vt 9.1448 0.7247 -9.0096
vt 8.1202 1.0981 -8.8653
vt 8.6164 0.2795 -8.9356
vt 8.6164 -0.5468 -8.9356
vt 8.6164 -2.7742 -8.9356
vt 8.6164 -2.9724 -8.9356
vt 8.6164 -3.6805 -8.9356
vt 8.6164 -3.9051 -8.9356
vt -5.4102 -3.1757 -0.3344
vt -4.9206 -3.1784 -0.2653
vt -4.9206 -0.2360 -0.2653
vt -5.4102 -0.2338 -0.3344
vt -2.8736 -3.1784 0.0237
vt -2.6932 -3.1757 0.0491
vt -2.6932 -0.2338 0.0491
vt -2.8736 -0.2360 0.0237
vt -0.6409 -3.1757 0.3388
vt -0.1471 -3.1757 0.4085
vt -0.1471 -0.2338 0.4085
vt -0.6409 -0.2338 0.3388
vt 1.9051 -3.1757 0.6982
vt 2.2586 -3.1757 0.7481
vt 2.2586 -0.2338 0.7481
vt 1.9051 -0.2338 0.6982
vt 4.3109 -0.2338 1.0378
vt 4.3109 -3.1757 1.0378
vt 5.3958 -3.1753 1.1909
vt 5.3958 -0.2101 1.1909
vt 8.7161 -3.1736 1.6596
vt 8.7161 -0.0062 1.6596
vt 7.8657 -0.2101 1.5396
vt 7.8657 -3.1753 1.5396
vt -9.9356 -7.0724 7.4965
vt -9.9356 -7.9183 7.4965
vt -9.9356 -3.9051 7.4965
vt -9.9356 -3.6805 7.4965
vt -9.9356 -2.9724 7.4965
vt -9.9356 -2.7742 7.4965
vt -9.9356 -0.5468 7.4965
vt 0.6751 5.4506 3.9823
vt 0.6751 3.8078 3.9823
vt 0.7345 3.8078 3.9740
vt 0.7345 5.4506 3.9740
vt 0.5436 3.8084 4.1846
vt 0.5436 5.2806 4.1846
vt 0.2419 5.2806 4.1423
vt 0.2419 3.8084 4.1423
vt 0.5436 4.1846 5.2806
vt 0.3785 5.3630 5.2806
vt 0.0767 5.3207 5.2806
vt 0.2419 4.1423 5.2806
vt 0.6215 5.2806 5.3630
vt 0.6215 3.8084 5.3630
vt 0.9233 3.8084 5.3207
vt 0.9233 5.2806 5.3207
vt 0.1126 3.8078 5.4973
vt 0.1126 5.4506 5.4973
vt 0.0532 5.4506 5.4890
vt 0.0532 3.8078 5.4890
vt 0.8874 5.4973 5.4506
vt 0.6751 3.9823 5.4506
vt 0.7345 3.9740 5.4506
vt 0.9468 5.4890 5.4506
vt 0.4519 5.4506 2.3897
vt 0.4519 3.8078 2.3897
vt 0.5113 3.8078 2.3814
vt 0.5113 5.4506 2.3814
vt 0.7668 3.8084 2.5921
vt 0.7668 5.2806 2.5921
vt 0.4651 5.2806 2.5498
vt 0.4651 3.8084 2.5498
vt 0.7668 2.5921 5.2806
vt 0.6017 3.7704 5.2806
vt 0.2999 3.7281 5.2806
vt 0.4651 2.5498 5.2806
vt 0.3983 5.2806 3.7704
vt 0.3983 3.8084 3.7704
vt 0.7001 3.8084 3.7281
vt 0.7001 5.2806 3.7281
vt 0.3358 3.8078 3.9048
vt 0.3358 5.4506 3.9048
vt 0.2763 5.4506 3.8965
vt 0.2763 3.8078 3.8965
vt 0.6642 3.9048 5.4506
vt 0.4519 2.3897 5.4506
vt 0.5113 2.3814 5.4506
vt 0.7237 3.8965 5.4506
vt 0.1761 5.4506 0.4216
vt 0.1761 3.8078 0.4216
vt 0.2355 3.8078 0.4133
vt 0.2355 5.4506 0.4133
vt 1.0427 3.8084 0.6239
vt 1.0427 5.2806 0.6239
vt 0.7409 5.2806 0.5816
vt 0.7409 3.8084 0.5816
vt 1.0427 0.6239 5.2806
vt 0.8775 1.8022 5.2806
vt 0.5758 1.7600 5.2806
vt 0.7409 0.5816 5.2806
vt 0.1225 5.2806 1.8022
vt 0.1225 3.8084 1.8022
vt 0.4242 3.8084 1.7600
vt 0.4242 5.2806 1.7600
vt 0.6116 3.8078 1.9366
vt 0.6116 5.4506 1.9366
vt 0.5522 5.4506 1.9283
vt 0.5522 3.8078 1.9283
vt 0.3884 1.9366 5.4506
vt 0.1761 0.4216 5.4506
vt 0.2355 0.4133 5.4506
vt 0.4478 1.9283 5.4506
vt -0.0471 5.4506 -1.1710
vt -0.0471 3.8078 -1.1710
vt 0.0123 3.8078 -1.1793
vt 0.0123 5.4506 -1.1793
vt 1.2658 3.8084 -0.9686
vt 1.2658 5.2806 -0.9686
vt 0.9641 5.2806 -1.0109
vt 0.9641 3.8084 -1.0109
vt 1.2658 -0.9686 5.2806
vt 1.1007 0.2097 5.2806
vt 0.7989 0.1674 5.2806
vt 0.9641 -1.0109 5.2806
vt -0.1007 5.2806 0.2097
vt -0.1007 3.8084 0.2097
vt 0.2011 3.8084 0.1674
vt 0.2011 5.2806 0.1674
vt 0.8348 3.8078 0.3441
vt 0.8348 5.4506 0.3441
vt 0.7754 5.4506 0.3358
vt 0.7754 3.8078 0.3358
vt 0.1652 0.3441 5.4506
vt -0.0471 -1.1710 5.4506
vt 0.0123 -1.1793 5.4506
vt 0.2246 0.3358 5.4506
vt -0.3099 5.4506 -3.0463
vt -0.3099 3.8078 -3.0463
vt -0.2505 3.8078 -3.0546
vt -0.2505 5.4506 -3.0546
vt 1.5287 3.8084 -2.8440
vt 1.5287 5.2806 -2.8440
vt 1.2269 5.2806 -2.8863
vt 1.2269 3.8084 -2.8863
vt 1.5287 -2.8440 5.2806
vt 1.3635 -1.6656 5.2806
vt 1.0618 -1.7079 5.2806
vt 1.2269 -2.8863 5.2806
vt -0.3635 5.2806 -1.6656
vt -0.3635 3.8084 -1.6656
vt -0.0618 3.8084 -1.7079
vt -0.0618 5.2806 -1.7079
vt 1.0976 3.8078 -1.5313
vt 1.0976 5.4506 -1.5313
vt 1.0382 5.4506 -1.5396
vt 1.0382 3.8078 -1.5396
vt -0.0976 -1.5313 5.4506
vt -0.3099 -3.0463 5.4506
vt -0.2505 -3.0546 5.4506
vt -0.0382 -1.5396 5.4506
vt -0.5331 5.4506 -4.6389
vt -0.5331 3.8078 -4.6389
vt -0.4737 3.8078 -4.6472
vt -0.4737 5.4506 -4.6472
vt 1.7518 3.8084 -4.4365
vt 1.7518 5.2806 -4.4365
vt 1.4501 5.2806 -4.4788
vt 1.4501 3.8084 -4.4788
vt 1.7518 -4.4365 5.2806
vt 1.5867 -3.2582 5.2806
vt 1.2849 -3.3005 5.2806
vt 1.4501 -4.4788 5.2806
vt -0.5867 5.2806 -3.2582
vt -0.5867 3.8084 -3.2582
vt -0.2849 3.8084 -3.3005
vt -0.2849 5.2806 -3.3005
vt 1.3208 3.8078 -3.1238
vt 1.3208 5.4506 -3.1238
vt 1.2614 5.4506 -3.1321
vt 1.2614 3.8078 -3.1321
vt -0.3208 -3.1238 5.4506
vt -0.5331 -4.6389 5.4506
vt -0.4737 -4.6472 5.4506
vt -0.2614 -3.1321 5.4506
vt -0.1842 -3.1833 0.6123
vt -0.3493 -4.3616 0.6123
vt -0.0476 -4.4039 0.6123
vt 0.1176 -3.2256 0.6123
vt 0.0390 -1.5907 0.6123
vt -0.1262 -2.7691 0.6123
vt 0.1756 -2.8113 0.6123
vt 0.3407 -1.6330 0.6123
vt 0.3018 0.2846 0.6123
vt 0.1367 -0.8937 0.6123
vt 0.4384 -0.9360 0.6123
vt 0.6036 0.2423 0.6123
vt 0.5250 1.8772 0.6123
vt 0.3598 0.6988 0.6123
vt 0.6616 0.6566 0.6123
vt 0.8267 1.8349 0.6123
vt 0.8008 3.8453 0.6123
vt 0.6357 2.6670 0.6123
vt 0.9374 2.6247 0.6123
vt 1.1026 3.8030 0.6123
vt 1.0240 5.4379 0.6123
vt 0.8589 4.2595 0.6123
vt 1.1606 4.2172 0.6123
vt 1.3258 5.3956 0.6123
vt 3.6684 -0.9917 2.6536
vt 3.7459 -0.9917 2.6645
vt 3.7459 0.6511 2.6645
vt 3.6684 0.6511 2.6536
vt 1.7002 -0.9917 2.3778
vt 2.1533 -0.9917 2.4413
vt 2.1533 0.6511 2.4413
vt 1.7002 0.6511 2.3778
vt 0.1077 -0.9917 2.1546
vt 0.1852 -0.9917 2.1655
vt 0.1852 0.6511 2.1655
vt 0.1077 0.6511 2.1546
vt -1.7677 -0.9917 1.8918
vt -1.4074 -0.9917 1.9423
vt -1.4074 0.6511 1.9423
vt -1.7677 0.6511 1.8918
vt -3.3602 -0.9917 1.6686
vt -3.2827 -0.9917 1.6795
vt -3.2827 0.6511 1.6795
vt -3.3602 0.6511 1.6686
vt -5.7227 -0.9883 1.3375
vt -5.7227 -1.2124 1.3375
vt -4.8753 -1.2158 1.4563
vt -4.8753 -0.9917 1.4563
vt 0.1411 -3.0572 0.6117
vt 0.1520 -2.9797 0.6117
vt 0.0926 -2.9714 0.6117
vt 0.0817 -3.0489 0.6117
vt 0.3643 -1.4647 0.6117
vt 0.4148 -1.1044 0.6117
vt 0.3554 -1.0960 0.6117
vt 0.3049 -1.4563 0.6117
vt 0.8503 2.0032 0.6117
vt 0.9138 2.4563 0.6117
vt 0.8544 2.4647 0.6117
vt 0.7909 2.0116 0.6117
vt 1.1262 3.9714 0.6117
vt 1.1370 4.0489 0.6117
vt 1.0776 4.0572 0.6117
vt 1.0667 3.9797 0.6117
vt 4.2172 0.6123 1.1606
vt 4.0489 0.6117 1.1370
vt 5.5639 0.3877 1.3493
vt 5.5639 0.6117 1.3493
vt 5.3956 0.6123 1.3258
vt 2.6247 0.6123 0.9374
vt 2.4563 0.6117 0.9138
vt 3.9714 0.6117 1.1262
vt 3.8030 0.6123 1.1026
vt 0.6566 0.6123 0.6616
vt 0.4882 0.6117 0.6380
vt 2.0032 0.6117 0.8503
vt 1.8349 0.6123 0.8267
vt -0.9360 0.6123 0.4384
vt -1.1044 0.6117 0.4148
vt -4.5723 0.3877 -0.0712
vt 0.4107 0.6117 0.6271
vt 0.2423 0.6123 0.6036
vt -2.8113 0.6123 0.1756
vt -2.9797 0.6117 0.1520
vt -1.4647 0.6117 0.3643
vt -1.6330 0.6123 0.3407
vt -4.4039 0.6123 -0.0476
vt -4.5723 0.6117 -0.0712
vt -3.0572 0.6117 0.1411
vt -3.2256 0.6123 0.1176
vt -0.0712 0.6117 -4.5723
vt -0.1306 0.6117 -4.5639
vt -0.1306 0.3877 -4.5639
vt -0.0712 0.3877 -4.5723
vt -0.3493 0.6117 5.5639
vt -0.3493 0.3877 5.5639
vt -0.2899 0.3877 5.5723
vt -0.2899 0.6117 5.5723
vt 5.2609 -0.9917 2.8768
vt 5.2609 -1.2158 2.8768
vt 6.2527 -1.2124 3.0158
vt 6.2527 -0.9883 3.0158
vt 5.2609 0.6511 2.8768
vt 6.2527 1.1461 3.0158
vt -4.8753 0.6511 1.4563
vt -5.7227 1.1461 1.3375
vt 0.9995 0.0006 0.1255
vt 0.8772 0.9995 0.9995
vt 0.0005 0.9994 0.8746
vt 0.1228 0.0005 0.0005
vt 9.6977 14.6684 0.9995
vt 7.3001 14.6356 0.9995
vt 7.3011 14.4583 0.9995
vt 9.6987 14.4911 0.9995
vt 0.0005 0.9995 0.1254
vt 0.1225 0.0006 0.9995
vt 0.9995 0.0005 0.8746
vt 0.8775 0.9994 0.0005
vt 5.8361 14.6156 0.9995
vt 3.4386 14.5828 0.9995
vt 3.4396 14.4055 0.9995
vt 5.8372 14.4383 0.9995
vt 0.0005 0.9995 0.1255
vt 0.9995 0.0006 0.1254
vt 3.0600 14.5776 0.9995
vt 0.6625 14.5448 0.9995
vt 0.6635 14.3675 0.9995
vt 3.0611 14.4003 0.9995
vt 0.9995 0.0005 0.8745
vt 0.0005 0.9994 0.8745
vt 0.0807 14.5368 0.9995
vt -2.3169 14.5040 0.9995
vt -2.3158 14.3268 0.9995
vt 0.0817 14.3596 0.9995
vt -2.4916 14.5016 0.9995
vt -4.8891 14.4688 0.9995
vt -4.8881 14.2916 0.9995
vt -2.4905 14.3244 0.9995
vt -5.4119 14.4617 0.9995
vt -7.8095 14.4289 0.9995
vt -7.8085 14.2516 0.9995
vt -5.4109 14.2844 0.9995
vt 1.0000 0.2040 0.0000
vt 0.0000 0.2040 0.0000
vt 0.0486 0.0692 0.0000
vt 0.9551 0.0692 0.0000
vt 0.9551 0.4295 0.0000
vt 0.0486 0.4295 0.0000
vt 0.5594 0.0000 0.0000
vt 0.5594 0.6816 0.0000
vt 0.0000 0.6816 0.0000
vt 1.0000 0.3689 0.0000
vt 0.0000 0.3689 0.0000
# 994 texture coords

g Suur_Karia_14
usemtl 13___Default
s off
f 1/1/1 2/2/1 3/3/1 4/4/1 
f 4/4/2 3/3/2 5/5/2 6/6/2 
f 6/6/3 5/5/3 7/7/3 8/8/3 
f 6/6/4 8/8/4 9/9/4 
usemtl stone_roof
f 10/10/5 11/11/5 12/12/5 13/13/5 
usemtl 10___Default
f 14/14/6 15/15/6 16/16/6 17/17/6 
usemtl stone_roof
f 18/18/7 19/19/7 12/20/7 11/21/7 
usemtl orange_plaster
f 19/22/8 18/23/8 20/24/8 21/25/8 
f 21/25/8 20/24/8 22/26/8 
f 22/27/9 20/28/9 23/29/9 24/30/9 
f 18/23/10 25/31/10 26/32/10 20/24/10 
usemtl stone_roof
f 23/33/11 20/34/11 26/35/11 27/36/11 
usemtl orange_plaster
f 27/37/12 28/38/12 29/39/12 23/40/12 
f 23/40/12 29/39/12 24/41/12 
usemtl stone_roof
f 25/42/13 18/43/13 11/44/13 
usemtl 10___Default
f 30/45/6 31/46/6 32/47/6 33/48/6 
usemtl orange_plaster
f 28/38/14 27/37/14 33/49/14 32/50/14 
f 27/51/15 26/52/15 30/53/15 33/54/15 
f 34/55/16 28/56/16 32/57/16 31/58/16 
f 34/55/17 15/59/17 14/60/17 
f 25/61/18 11/62/18 17/63/18 16/64/18 
f 34/55/19 14/60/19 35/65/19 
f 17/63/20 11/62/20 36/66/20 
f 37/67/21 38/68/21 39/69/21 40/70/21 
f 40/70/22 39/69/22 41/71/22 42/72/22 
usemtl 10___Default
f 42/73/23 41/74/23 35/75/23 36/76/23 
f 36/77/24 35/78/24 14/79/24 17/80/24 
usemtl stone_roof
f 13/13/25 9/81/25 8/82/25 43/83/25 
f 10/10/26 13/13/26 43/83/26 
f 43/83/27 8/82/27 7/84/27 44/85/27 
usemtl orange_plaster
f 44/86/28 38/68/28 37/67/28 43/87/28 
usemtl 10___Default
f 15/88/29 31/89/29 30/90/29 16/91/29 
usemtl orange_plaster
f 34/55/30 31/58/30 15/59/30 
f 30/53/31 26/52/31 25/61/31 16/64/31 
f 37/92/32 10/92/32 43/93/32 
f 40/94/33 42/95/33 36/66/33 37/96/33 
f 10/97/34 37/96/34 36/66/34 11/62/34 
f 28/56/35 34/55/35 45/98/35 29/99/35 
f 34/55/36 35/65/36 41/100/36 45/98/36 
f 45/98/37 41/100/37 39/101/37 38/102/37 
f 44/103/38 45/98/38 38/102/38 
f 3/104/39 2/105/39 44/103/39 5/106/39 
f 7/107/40 5/106/40 44/103/40 
f 45/98/41 44/103/41 2/105/41 
usemtl dark_grey_plaster
f 46/108/42 47/109/42 48/110/42 49/111/42 
f 50/112/43 51/113/43 52/114/43 53/115/43 
usemtl 13___Default
f 54/116/44 55/117/44 56/118/44 57/119/44 
usemtl orange_plaster
f 58/120/45 59/121/45 60/122/45 61/123/45 
usemtl 13___Default
f 62/124/46 63/125/46 59/126/46 58/127/46 
usemtl 10___Default
f 64/128/47 65/129/47 66/130/47 67/131/47 
usemtl orange_plaster
f 68/132/48 65/133/48 64/134/48 69/135/48 
f 70/136/49 69/135/49 64/134/49 
f 67/137/50 66/138/50 71/139/50 72/140/50 
f 73/141/51 67/137/51 72/140/51 
usemtl ribbon_2
f 74/142/52 75/143/52 76/144/52 77/145/52 
usemtl 10___Default
f 66/130/53 65/129/53 75/146/53 74/147/53 
usemtl orange_plaster
f 65/133/48 68/132/48 76/148/48 75/149/48 
usemtl ribbon_2
f 68/150/54 71/151/54 77/152/54 76/153/54 
usemtl orange_plaster
f 71/139/51 66/138/51 74/154/51 77/155/51 
usemtl window
f 78/156/52 79/157/52 80/158/52 81/159/52 
usemtl outline_ribbon
f 82/160/52 83/161/52 84/162/52 85/163/52 
f 86/160/52 87/161/52 88/162/52 89/163/52 
f 87/160/52 82/161/52 85/162/52 88/163/52 
usemtl window
f 90/156/52 91/157/52 92/158/52 93/159/52 
usemtl outline_ribbon
f 94/160/52 95/161/52 96/162/52 97/163/52 
f 98/160/52 99/161/52 100/162/52 101/163/52 
f 99/160/52 94/161/52 97/162/52 100/163/52 
usemtl window
f 102/156/52 103/157/52 104/158/52 105/159/52 
usemtl outline_ribbon
f 106/160/52 107/161/52 108/162/52 109/163/52 
f 110/160/52 111/161/52 112/162/52 113/163/52 
f 111/160/55 106/161/55 109/162/55 112/163/55 
usemtl window
f 114/156/52 115/157/52 116/158/52 117/159/52 
usemtl outline_ribbon
f 118/160/52 119/161/52 120/162/52 121/163/52 
f 122/160/52 123/161/52 124/162/52 125/163/52 
f 123/160/52 118/161/52 121/162/52 124/163/52 
usemtl window
f 126/156/52 127/157/52 128/158/52 129/159/52 
usemtl outline_ribbon
f 130/160/52 131/161/52 132/162/52 133/163/52 
f 134/160/52 135/161/52 136/162/52 137/163/52 
f 135/160/55 130/161/55 133/162/55 136/163/55 
usemtl window
f 138/156/52 139/157/52 140/158/52 141/159/52 
usemtl outline_ribbon
f 142/160/52 143/161/52 144/162/52 145/163/52 
f 146/160/52 147/161/52 148/162/52 149/163/52 
f 147/160/52 142/161/52 145/162/52 148/163/52 
usemtl window
f 150/156/56 151/157/56 152/158/56 153/159/56 
usemtl outline_ribbon
f 154/160/56 155/161/56 156/162/56 157/163/56 
f 158/160/45 159/161/45 160/162/45 161/163/45 
f 159/160/45 154/161/45 157/162/45 160/163/45 
usemtl window
f 162/156/56 163/157/56 164/158/56 165/159/56 
usemtl outline_ribbon
f 166/160/56 167/161/56 168/162/56 169/163/56 
f 170/160/56 171/161/56 172/162/56 173/163/56 
f 171/160/45 166/161/45 169/162/45 172/163/45 
usemtl window
f 174/156/56 175/157/56 176/158/56 177/159/56 
usemtl outline_ribbon
f 178/160/56 179/161/56 180/162/56 181/163/56 
f 182/160/56 183/161/56 184/162/56 185/163/56 
f 183/160/45 178/161/45 181/162/45 184/163/45 
usemtl window
f 186/156/56 187/157/56 188/158/56 189/159/56 
usemtl outline_ribbon
f 190/160/56 191/161/56 192/162/56 193/163/56 
f 194/160/56 195/161/56 196/162/56 197/163/56 
f 195/160/45 190/161/45 193/162/45 196/163/45 
usemtl window
f 198/156/56 199/157/56 200/158/56 201/159/56 
usemtl outline_ribbon
f 202/160/56 203/161/56 204/162/56 205/163/56 
f 206/160/56 207/161/56 208/162/56 209/163/56 
f 207/160/45 202/161/45 205/162/45 208/163/45 
usemtl window
f 210/156/56 211/157/56 212/158/56 213/159/56 
usemtl outline_ribbon
f 214/160/56 215/161/56 216/162/56 217/163/56 
f 218/160/56 219/161/56 220/162/56 221/163/56 
f 219/160/45 214/161/45 217/162/45 220/163/45 
usemtl doors_1
f 47/164/56 222/165/56 223/166/56 224/167/56 
usemtl outline_ribbon
f 225/160/56 226/161/56 48/162/56 227/163/56 
f 228/160/45 229/161/45 230/162/45 231/163/45 
f 229/160/45 225/161/45 227/162/45 230/163/45 
usemtl exp_win
f 232/156/56 233/157/56 234/158/56 235/159/56 
usemtl outline_ribbon
f 236/160/56 237/161/56 238/162/56 239/163/56 
f 240/160/45 241/161/45 242/162/45 243/163/45 
f 241/160/56 236/161/56 239/162/56 242/163/56 
usemtl exp_win
f 244/156/56 245/157/56 246/158/56 247/159/56 
usemtl outline_ribbon
f 248/160/56 249/161/56 250/162/56 251/163/56 
f 252/160/56 253/161/56 254/162/56 255/163/56 
f 253/160/56 248/161/56 251/162/56 254/163/56 
usemtl exp_win
f 256/156/56 257/157/56 258/158/56 259/159/56 
usemtl outline_ribbon
f 260/160/56 261/161/56 262/162/56 263/163/56 
f 264/160/56 265/161/56 266/162/56 267/163/56 
f 265/160/56 260/161/56 263/162/56 266/163/56 
usemtl doors_2
f 268/168/56 50/169/56 269/166/56 270/167/56 
usemtl outline_ribbon
f 271/160/56 272/161/56 273/162/56 274/163/56 
f 275/160/56 276/161/56 277/162/56 53/163/56 
f 276/160/56 271/161/56 274/162/56 277/163/56 
usemtl exp_win
f 278/156/56 279/157/56 280/158/56 281/159/56 
usemtl outline_ribbon
f 282/160/56 283/161/56 284/162/56 285/163/56 
f 286/160/45 287/161/45 288/162/45 289/163/45 
f 287/160/45 282/161/45 285/162/45 288/163/45 
usemtl orange_plaster
f 58/170/42 290/171/42 62/171/42 
f 291/172/57 59/173/57 63/172/57 
f 57/174/58 61/175/58 54/175/58 
usemtl 10___Default
f 61/176/59 60/177/59 55/178/59 54/179/59 
usemtl orange_plaster
f 60/180/57 56/181/57 55/180/57 
usemtl white_plaster
f 292/182/57 293/183/57 155/184/57 154/185/57 
f 294/186/58 295/187/58 159/188/58 158/189/58 
f 295/190/6 292/191/6 154/192/6 159/193/6 
f 296/194/57 297/195/57 167/196/57 166/197/57 
f 298/198/58 299/199/58 171/200/58 170/201/58 
f 299/202/6 296/203/6 166/204/6 171/205/6 
f 300/206/57 301/207/57 179/208/57 178/209/57 
f 302/210/58 303/211/58 183/212/58 182/213/58 
f 303/214/6 300/215/6 178/216/6 183/217/6 
f 304/218/57 305/219/57 191/220/57 190/221/57 
f 306/222/58 307/223/58 195/224/58 194/225/58 
f 307/226/6 304/227/6 190/228/6 195/229/6 
f 308/230/57 309/231/57 203/232/57 202/233/57 
f 310/234/58 311/235/58 207/236/58 206/237/58 
f 311/238/6 308/239/6 202/240/6 207/241/6 
f 312/242/57 313/243/57 215/244/57 214/245/57 
f 314/246/58 315/247/58 219/248/58 218/249/58 
f 315/250/6 312/251/6 214/252/6 219/253/6 
f 157/254/58 156/255/58 150/256/58 153/257/58 
f 161/258/57 160/259/57 152/260/57 151/261/57 
f 160/262/60 157/263/60 153/264/60 152/265/60 
f 169/266/58 168/267/58 162/268/58 165/269/58 
f 173/270/57 172/271/57 164/272/57 163/273/57 
f 172/274/60 169/275/60 165/276/60 164/277/60 
f 181/278/58 180/279/58 174/280/58 177/281/58 
f 185/282/57 184/283/57 176/284/57 175/285/57 
f 184/286/60 181/287/60 177/288/60 176/289/60 
f 193/290/58 192/291/58 186/292/58 189/293/58 
f 197/294/57 196/295/57 188/296/57 187/297/57 
f 196/298/60 193/299/60 189/300/60 188/301/60 
f 205/302/58 204/303/58 198/304/58 201/305/58 
f 209/306/57 208/307/57 200/308/57 199/309/57 
f 208/310/60 205/311/60 201/312/60 200/313/60 
f 217/314/58 216/315/58 210/316/58 213/317/58 
f 221/318/57 220/319/57 212/320/57 211/321/57 
f 220/322/60 217/323/60 213/324/60 212/325/60 
usemtl orange_plaster
f 312/326/56 311/327/56 310/328/56 313/329/56 
f 308/330/56 307/331/56 306/332/56 309/333/56 
f 304/334/56 303/335/56 302/336/56 305/337/56 
f 296/338/56 295/339/56 294/340/56 297/341/56 
f 293/342/61 292/343/61 316/344/61 291/345/61 
f 300/346/56 299/347/56 298/348/56 301/349/56 
f 315/350/45 314/351/45 290/352/45 317/353/45 
usemtl 10___Default
f 290/354/62 314/355/62 62/356/62 
f 293/357/63 291/358/63 63/359/63 
f 62/356/64 314/355/64 218/360/64 63/359/64 
f 221/361/6 211/362/6 210/363/6 216/364/6 
f 215/365/6 313/366/6 310/367/6 206/368/6 
f 209/369/6 199/370/6 198/371/6 204/372/6 
f 203/373/65 309/374/65 306/375/65 194/376/65 
f 197/377/6 187/378/6 186/379/6 192/380/6 
f 191/381/66 305/382/66 302/383/66 182/384/66 
f 185/385/6 175/386/6 174/387/6 180/388/6 
f 179/389/6 301/390/6 298/391/6 170/392/6 
f 173/393/6 163/394/6 162/395/6 168/396/6 
f 167/397/6 297/398/6 294/399/6 158/400/6 
f 161/401/6 151/402/6 150/403/6 156/404/6 
f 155/405/67 293/357/67 63/359/67 156/404/67 
f 161/401/68 156/404/68 63/359/68 158/400/68 
f 167/397/69 158/400/69 63/359/69 168/396/69 
f 173/393/70 168/396/70 63/359/70 170/392/70 
f 179/389/71 170/392/71 63/359/71 180/388/71 
f 185/385/72 180/388/72 63/359/72 182/384/72 
f 191/381/73 182/384/73 63/359/73 192/380/73 
f 197/377/74 192/380/74 63/359/74 194/376/74 
f 203/373/75 194/376/75 63/359/75 204/372/75 
f 209/369/76 204/372/76 63/359/76 206/368/76 
f 215/365/77 206/368/77 63/359/77 216/364/77 
f 221/361/78 216/364/78 63/359/78 218/360/78 
usemtl orange_plaster
f 2/406/79 1/407/79 316/344/79 292/343/79 
f 2/406/45 292/343/45 295/339/45 296/338/45 
f 2/406/45 296/338/45 299/347/45 300/346/45 
f 2/406/56 300/346/56 303/335/56 304/334/56 
f 2/406/56 304/334/56 307/331/56 308/330/56 
f 2/406/56 308/330/56 311/327/56 312/326/56 
f 2/406/56 312/326/56 315/350/56 317/353/56 
usemtl doors_1
f 222/165/45 47/164/45 46/408/45 318/409/45 
usemtl doors_2
f 50/169/45 268/168/45 319/408/45 51/409/45 
usemtl dark_grey_plaster
f 320/410/57 231/411/57 222/412/57 318/413/57 
f 321/414/45 322/415/45 228/416/45 320/417/45 
f 321/418/58 323/419/58 324/420/58 322/421/58 
f 319/422/42 268/423/42 273/424/42 325/425/42 
f 326/426/57 327/427/57 328/428/57 329/429/57 
f 226/430/56 49/431/56 48/432/56 
f 275/433/45 53/434/45 52/435/45 
f 228/416/45 231/436/45 320/417/45 
f 272/437/56 325/438/56 273/439/56 
f 324/440/80 330/441/80 228/442/80 322/443/80 
usemtl white_plaster
f 331/444/81 332/445/81 226/446/81 225/447/81 
f 47/448/58 224/449/58 227/450/58 48/451/58 
f 224/452/60 223/453/60 230/454/60 227/455/60 
f 223/456/57 222/457/57 231/458/57 230/459/57 
f 330/460/58 333/461/58 229/462/58 228/463/58 
f 333/464/59 331/465/59 225/466/59 229/467/59 
f 334/468/57 335/469/57 237/470/57 236/471/57 
f 232/472/58 235/473/58 239/474/58 238/475/58 
f 235/476/82 234/477/82 242/478/82 239/479/82 
f 234/480/57 233/481/57 243/482/57 242/483/57 
f 336/484/42 337/485/42 241/486/42 240/487/42 
f 337/488/59 334/489/59 236/490/59 241/491/59 
f 338/492/57 339/493/57 249/494/57 248/495/57 
f 244/496/58 247/497/58 251/498/58 250/499/58 
f 247/500/82 246/501/82 254/502/82 251/503/82 
f 246/504/57 245/505/57 255/506/57 254/507/57 
f 340/508/58 341/509/58 253/510/58 252/511/58 
f 341/512/59 338/513/59 248/514/59 253/515/59 
f 342/516/81 343/517/81 261/518/81 260/519/81 
f 256/520/58 259/521/58 263/522/58 262/523/58 
f 259/524/82 258/525/82 266/526/82 263/527/82 
f 258/528/57 257/529/57 267/530/57 266/531/57 
f 344/532/58 345/533/58 265/534/58 264/535/58 
f 345/536/59 342/537/59 260/538/59 265/539/59 
f 346/540/57 347/541/57 272/542/57 271/543/57 
f 268/544/58 270/545/58 274/546/58 273/547/58 
f 270/548/82 269/549/82 277/550/82 274/551/82 
f 269/552/81 50/553/81 53/554/81 277/555/81 
f 348/556/42 349/557/42 276/558/42 275/559/42 
f 349/560/59 346/561/59 271/562/59 276/563/59 
f 350/564/81 351/565/81 283/566/81 282/567/81 
f 278/568/58 281/569/58 285/570/58 284/571/58 
f 281/572/60 280/573/60 288/574/60 285/575/60 
f 280/576/57 279/577/57 289/578/57 288/579/57 
f 352/580/42 353/581/42 287/582/42 286/583/42 
f 353/584/6 350/585/6 282/586/6 287/587/6 
usemtl dark_grey_plaster
f 327/588/83 326/589/83 283/590/83 
f 272/437/45 286/591/45 325/438/45 
f 226/430/45 240/592/45 49/431/45 
f 275/433/84 52/435/84 261/593/84 
f 257/594/59 256/595/59 262/596/59 267/597/59 
f 245/598/59 244/599/59 250/600/59 255/601/59 
f 233/602/59 232/603/59 238/604/59 243/605/59 
f 279/606/59 278/607/59 284/608/59 289/609/59 
f 325/438/56 286/591/56 289/610/56 283/590/56 
f 289/610/85 284/611/85 283/590/85 
f 326/589/86 325/438/86 283/590/86 
f 240/592/45 243/612/45 238/613/45 52/435/45 
f 252/614/56 255/615/56 250/616/56 249/617/56 
f 264/618/45 267/619/45 262/620/45 52/435/45 
f 262/620/45 261/593/45 52/435/45 
f 249/617/45 264/618/45 52/435/45 252/614/45 
f 237/621/87 252/614/87 52/435/87 238/613/87 
f 240/592/56 52/435/56 49/431/56 
f 332/622/88 336/623/88 240/624/88 226/625/88 
f 252/626/59 237/627/59 335/628/59 340/629/59 
f 339/630/59 344/631/59 264/632/59 249/633/59 
f 343/634/89 348/635/89 275/636/89 261/637/89 
f 347/638/90 352/639/90 286/640/90 272/641/90 
f 327/642/91 283/643/91 351/644/91 328/645/91 
usemtl orange_plaster
f 328/646/92 351/647/92 350/648/92 56/649/92 
f 12/650/93 19/651/93 21/652/93 354/653/93 
f 328/654/94 355/655/94 329/656/94 
f 4/657/95 6/658/95 9/659/95 13/660/95 
f 1/661/96 4/657/96 13/660/96 316/662/96 
f 291/663/94 316/662/94 13/660/94 59/664/94 
f 60/665/94 59/664/94 13/660/94 56/666/94 
f 328/654/94 56/666/94 13/660/94 355/655/94 
f 13/660/97 12/650/97 354/653/97 355/655/97 
f 352/667/56 347/668/56 346/669/56 353/670/56 
f 348/671/56 343/672/56 342/673/56 349/674/56 
f 344/675/56 339/676/56 338/677/56 345/678/56 
f 340/679/56 335/680/56 334/681/56 341/682/56 
f 337/683/56 336/684/56 332/685/56 331/686/56 
f 324/687/56 57/688/56 333/689/56 330/690/56 
f 324/691/98 323/692/98 45/98/98 57/693/98 
f 61/694/98 57/693/98 45/98/98 58/695/98 
f 290/696/98 58/695/98 45/98/98 317/697/98 
f 2/105/99 317/697/99 45/98/99 
f 56/649/100 350/648/100 353/670/100 349/674/100 
f 353/670/101 346/669/101 349/674/101 
f 56/649/101 349/674/101 342/673/101 331/686/101 
f 334/681/102 337/683/102 331/686/102 341/682/102 
f 338/677/103 341/682/103 331/686/103 345/678/103 
f 342/673/104 345/678/104 331/686/104 
f 56/649/105 331/686/105 333/689/105 57/688/105 
usemtl white_plaster
f 356/698/49 357/699/49 83/700/49 82/701/49 
f 78/702/51 81/703/51 85/704/51 84/705/51 
f 81/706/60 80/707/60 88/708/60 85/709/60 
f 80/710/49 79/711/49 89/712/49 88/713/49 
f 358/714/51 359/715/51 87/716/51 86/717/51 
f 359/718/6 356/719/6 82/720/6 87/721/6 
f 360/722/49 361/723/49 95/724/49 94/725/49 
f 90/726/51 93/727/51 97/728/51 96/729/51 
f 93/730/60 92/731/60 100/732/60 97/733/60 
f 92/734/49 91/735/49 101/736/49 100/737/49 
f 362/738/51 363/739/51 99/740/51 98/741/51 
f 363/742/6 360/743/6 94/744/6 99/745/6 
f 364/746/49 365/747/49 107/748/49 106/749/49 
f 102/750/51 105/751/51 109/752/51 108/753/51 
f 105/754/60 104/755/60 112/756/60 109/757/60 
f 104/758/48 103/759/48 113/760/48 112/761/48 
f 366/762/51 367/763/51 111/764/51 110/765/51 
f 367/766/6 364/767/6 106/768/6 111/769/6 
f 368/770/49 369/771/49 119/772/49 118/773/49 
f 114/774/51 117/775/51 121/776/51 120/777/51 
f 117/778/60 116/779/60 124/780/60 121/781/60 
f 116/782/49 115/783/49 125/784/49 124/785/49 
f 370/786/51 371/787/51 123/788/51 122/789/51 
f 371/790/6 368/791/6 118/792/6 123/793/6 
f 372/794/49 373/795/49 131/796/49 130/797/49 
f 126/798/51 129/799/51 133/800/51 132/801/51 
f 129/802/60 128/803/60 136/804/60 133/805/60 
f 128/806/49 127/807/49 137/808/49 136/809/49 
f 374/810/51 375/811/51 135/812/51 134/813/51 
f 375/814/6 372/815/6 130/816/6 135/817/6 
f 376/818/49 377/819/49 143/820/49 142/821/49 
f 138/822/51 141/823/51 145/824/51 144/825/51 
f 141/826/60 140/827/60 148/828/60 145/829/60 
f 140/830/49 139/831/49 149/832/49 148/833/49 
f 378/834/51 379/835/51 147/836/51 146/837/51 
f 379/838/6 376/839/6 142/840/6 147/841/6 
usemtl dark_grey_plaster
f 139/842/6 138/843/6 144/844/6 149/845/6 
f 127/846/6 126/847/6 132/848/6 137/849/6 
f 115/850/6 114/851/6 120/852/6 125/853/6 
f 103/854/6 102/855/6 108/856/6 113/857/6 
f 91/858/6 90/859/6 96/860/6 101/861/6 
f 79/862/6 78/863/6 84/864/6 89/865/6 
usemtl orange_plaster
f 362/866/52 357/867/52 356/868/52 363/869/52 
f 366/870/52 361/871/52 360/872/52 367/873/52 
f 370/874/52 365/875/52 364/876/52 371/877/52 
f 374/878/52 369/879/52 368/880/52 375/881/52 
f 378/882/52 373/883/52 372/884/52 379/885/52 
f 69/886/52 70/887/52 380/888/52 377/889/52 
usemtl dark_grey_plaster
f 146/890/6 131/891/6 373/892/6 378/893/6 
f 134/894/6 119/895/6 369/896/6 374/897/6 
usemtl blank
f 122/158/6 107/156/6 365/157/6 370/159/6 
usemtl dark_grey_plaster
f 110/898/6 95/899/6 361/900/6 366/901/6 
f 98/902/6 83/903/6 357/904/6 362/905/6 
f 84/906/55 83/907/55 381/908/55 
f 86/909/52 89/910/52 381/908/52 
f 96/911/52 95/912/52 381/908/52 
f 98/913/52 101/914/52 381/908/52 
f 108/915/55 107/916/55 381/908/55 
f 110/917/52 113/918/52 381/908/52 
f 120/919/52 119/920/52 382/921/52 
f 122/922/52 125/923/52 382/921/52 
f 132/924/55 131/925/55 382/921/55 
f 134/926/55 137/927/55 382/921/55 
f 144/928/52 143/929/52 382/921/52 
f 146/930/55 149/931/55 382/921/55 
f 143/932/106 377/933/106 380/934/106 382/935/106 
f 149/931/52 144/928/52 382/921/52 
f 137/927/55 132/924/55 382/921/55 
f 125/923/52 120/919/52 382/921/52 
f 113/918/55 108/915/55 381/908/55 
f 101/914/52 96/911/52 381/908/52 
f 89/910/52 84/906/52 381/908/52 
f 131/925/107 146/930/107 382/921/107 
f 119/920/108 134/926/108 382/921/108 
f 107/916/52 122/922/52 382/921/52 381/908/52 
f 95/912/107 110/917/107 381/908/107 
f 83/907/109 98/913/109 381/908/109 
f 86/936/51 381/937/51 383/938/51 358/939/51 
usemtl orange_plaster
f 358/940/52 383/941/52 73/942/52 72/943/52 
f 359/944/55 358/940/55 72/943/55 71/945/55 
f 69/886/52 377/889/52 376/946/52 68/947/52 
f 68/947/52 376/946/52 379/885/52 372/884/52 
f 68/947/110 372/884/110 375/881/110 368/880/110 
f 68/947/55 368/880/55 371/877/55 364/876/55 
f 68/947/110 364/876/110 367/873/110 360/872/110 
f 68/947/55 360/872/55 363/869/55 356/868/55 
f 68/947/52 356/868/52 359/944/52 71/945/52 
usemtl 13___Default
s 4
f 384/156/111 385/157/111 386/158/111 387/159/111 
usemtl black_patch
s 8
f 388/157/112 389/157/112 385/158/112 384/159/112 
usemtl 13___Default
s 16
f 389/948/113 390/949/113 386/950/113 385/951/113 
usemtl 10___Default
s 32
f 390/952/114 391/953/114 387/954/114 386/955/114 
usemtl 13___Default
s 64
f 391/956/115 388/957/115 384/958/115 387/959/115 
s 4
f 392/156/111 393/157/111 394/158/111 395/159/111 
usemtl black_patch
s 8
f 396/157/112 397/157/112 393/158/112 392/159/112 
usemtl 13___Default
s 16
f 397/948/113 398/949/113 394/950/113 393/951/113 
usemtl 10___Default
s 32
f 398/960/114 399/961/114 395/962/114 394/963/114 
usemtl 13___Default
s 64
f 399/964/115 396/957/115 392/958/115 395/959/115 
s 4
f 400/156/111 401/157/111 402/158/111 403/159/111 
usemtl black_patch
s 8
f 404/157/112 405/157/112 401/158/112 400/159/112 
usemtl 13___Default
s 16
f 405/965/113 406/949/113 402/950/113 401/951/113 
usemtl 10___Default
s 32
f 406/966/114 407/967/114 403/968/114 402/969/114 
usemtl 13___Default
s 64
f 407/956/115 404/957/115 400/970/115 403/959/115 
s 4
f 408/156/111 409/157/111 410/158/111 411/159/111 
usemtl black_patch
s 8
f 412/157/112 413/157/112 409/158/112 408/159/112 
usemtl 13___Default
s 16
f 413/965/113 414/949/113 410/971/113 409/951/113 
usemtl 10___Default
s 32
f 414/972/114 415/973/114 411/974/114 410/975/114 
usemtl 13___Default
s 64
f 415/956/115 412/957/115 408/970/115 411/959/115 
s 4
f 416/156/111 417/157/111 418/158/111 419/159/111 
usemtl black_patch
s 8
f 420/157/112 421/157/112 417/158/112 416/159/112 
usemtl 13___Default
s 16
f 421/948/113 422/949/113 418/971/113 417/951/113 
usemtl 10___Default
s 32
f 422/976/114 423/977/114 419/978/114 418/979/114 
usemtl 13___Default
s 64
f 423/956/115 420/957/115 416/970/115 419/959/115 
s 4
f 424/156/111 425/157/111 426/158/111 427/159/111 
usemtl black_patch
s 8
f 428/157/112 429/157/112 425/158/112 424/159/112 
usemtl 13___Default
s 16
f 429/948/113 430/949/113 426/971/113 425/951/113 
usemtl 10___Default
s 32
f 430/980/114 431/981/114 427/982/114 426/983/114 
usemtl 13___Default
s 64
f 431/157/115 428/157/115 424/159/115 427/159/115 
usemtl 15___Default
s 4
f 432/156/6 433/157/6 434/984/6 435/985/6 
usemtl patches
s 8
f 436/986/116 437/987/116 433/988/116 432/989/116 
s 16
f 437/986/117 438/987/117 434/988/117 433/989/117 
s 32
f 438/986/118 439/987/118 435/988/118 434/989/118 
s 64
f 439/986/119 436/987/119 432/988/119 435/989/119 
usemtl 15___Default
s 4
f 440/156/6 441/990/6 442/991/6 443/992/6 
usemtl patches
s 8
f 444/986/120 445/987/120 441/988/120 440/989/120 
s 16
f 445/986/121 446/987/121 442/988/121 441/989/121 
s 32
f 446/986/122 447/987/122 443/988/122 442/989/122 
s 64
f 447/986/123 444/987/123 440/988/123 443/989/123 
usemtl 15___Default
s 4
f 448/156/6 449/157/6 450/993/6 451/994/6 
usemtl patches
s 8
f 452/986/120 453/987/120 449/988/120 448/989/120 
s 16
f 453/986/121 454/987/121 450/988/121 449/989/121 
s 32
f 454/986/122 455/987/122 451/988/122 450/989/122 
s 64
f 455/986/123 452/987/123 448/988/123 451/989/123 
usemtl 15___Default
s 4
f 456/156/124 457/157/124 458/984/124 459/985/124 
usemtl patches
s 8
f 460/986/125 461/987/125 457/988/125 456/989/125 
s 16
f 461/986/126 462/987/126 458/988/126 457/989/126 
s 32
f 462/986/127 463/987/127 459/988/127 458/989/127 
s 64
f 463/986/128 460/987/128 456/988/129 459/989/130 
# 388 polygons - 59 triangles

