# 3ds Max Wavefront OBJ Exporter v0.94b - (c)2007 guruware
# File Created: 13.03.2011 17:37:14

mtllib Harju 11b.mtl

#
# object Box01
#

v  -23.0461 -239.0866 18.9438
v  -29.6944 -237.3130 18.9401
v  -30.7264 -244.1040 18.9411
v  -24.5422 -244.8947 18.9411
v  -28.4108 -244.4362 15.7838
v  -28.4121 -244.4374 18.5127
v  -29.4080 -244.3055 18.5148
v  -29.4073 -244.3064 15.7859
v  -24.1412 -243.3333 18.7199
v  -24.1410 -243.3331 18.4430
v  -23.4280 -240.5565 18.4430
v  -23.4280 -240.5565 18.7199
v  -29.7037 -237.1236 15.7873
v  -29.7037 -237.1236 16.0902
v  -23.0504 -238.9776 16.1070
v  -23.0503 -238.9777 15.7873
v  -23.0142 -238.9569 18.8215
v  -23.0142 -238.9569 18.9411
v  -23.0359 -239.0408 18.9430
v  -23.0359 -239.0407 18.8215
v  -24.5638 -244.9820 18.8215
v  -24.5849 -245.0698 18.8215
v  -24.5849 -245.0698 18.7199
v  -24.2257 -243.6616 18.7199
v  -23.3361 -240.1989 18.7199
v  -23.0142 -238.9569 18.7199
v  -23.7001 -241.4479 15.7873
v  -23.7001 -241.4479 16.1267
v  -23.9309 -242.3467 16.1267
v  -23.9309 -242.3467 15.7873
v  -23.1568 -239.5074 18.2135
v  -23.0142 -238.9569 18.2135
v  -23.0142 -238.9569 18.4430
v  -23.6597 -241.4582 18.2135
v  -23.8905 -242.3570 18.2135
v  -24.4311 -244.4660 18.2135
v  -24.5849 -245.0698 18.2135
v  -23.3361 -240.1989 18.4430
v  -24.2258 -243.6614 18.4430
v  -24.5849 -245.0698 18.4430
v  -23.1971 -239.4970 16.1070
v  -23.1971 -239.4970 15.7873
v  -23.2375 -239.4866 15.7873
v  -23.2375 -239.4866 18.2135
v  -23.7404 -241.4374 18.2135
v  -23.7404 -241.4374 16.1267
v  -23.7404 -241.4374 15.7873
v  -24.5849 -245.0698 16.1423
v  -24.4312 -244.4658 16.1423
v  -24.5118 -244.4453 18.2135
v  -24.5120 -244.4448 15.7873
v  -23.9712 -242.3364 15.7873
v  -23.9713 -242.3364 16.1267
v  -23.9712 -242.3363 18.2135
v  -23.8906 -242.3571 16.1267
v  -23.6597 -241.4582 16.1267
v  -24.3063 -243.6408 18.7199
v  -24.3065 -243.6406 18.4430
v  -24.2217 -243.3123 18.4430
v  -24.2219 -243.3125 18.7199
v  -23.4168 -240.1782 18.4430
v  -23.4168 -240.1782 18.7199
v  -23.5087 -240.5358 18.7199
v  -23.5087 -240.5358 18.4430
v  -23.0139 -238.9550 19.3578
v  -29.6920 -237.0816 19.3578
v  -29.6940 -237.3111 19.3567
v  -23.0355 -239.0389 19.3596
v  -23.0457 -239.0847 19.3605
v  -30.7271 -244.1090 19.3577
v  -30.7476 -244.2161 19.3577
v  -29.4195 -244.3935 19.3563
v  -28.4240 -244.5237 19.3542
v  -24.5856 -245.0748 19.3577
v  -24.5645 -244.9871 19.3577
v  -24.5429 -244.8997 19.3577
v  -24.1568 -244.9937 18.9432
v  -24.1785 -245.0811 18.9432
v  -24.1784 -245.0811 18.8236
v  -22.7193 -239.4053 18.9469
v  -22.6505 -239.1399 18.9451
v  -22.6505 -239.1398 18.8236
v  -24.5638 -244.9821 18.9411
v  -24.5849 -245.0698 18.9411
v  -28.4157 -244.4776 15.7839
v  -24.6081 -245.0352 15.7873
v  -24.6080 -245.0351 16.1423
v  -28.4164 -244.4782 16.1584
v  -30.7469 -244.2111 18.9411
v  -30.7469 -244.2111 16.1637
v  -29.4185 -244.3886 16.1566
v  -29.4188 -244.3881 18.5148
v  -29.4188 -244.3885 18.9396
v  -28.4230 -244.5201 18.5127
v  -28.4233 -244.5186 18.9376
v  -29.6924 -237.0835 18.9411
v  -24.4717 -244.4553 15.7874
v  -24.4716 -244.4555 16.1423
v  -28.4223 -244.5195 16.1583
v  -29.6924 -237.0835 16.0902
v  -23.0142 -238.9569 16.1070
v  -23.1568 -239.5074 16.1070
v  -30.7414 -244.1698 15.7873
v  -29.4126 -244.3478 15.7858
v  -29.4129 -244.3474 16.1567
v  -30.7414 -244.1698 16.1637
v  -29.4134 -244.3468 18.5148
v  -30.7469 -244.2111 15.7873
v  -29.6924 -237.0835 15.7873
# 109 vertices

vn -0.0003 -0.0001 1.0000
vn -0.0005 0.0002 1.0000
vn -0.0001 -0.0004 1.0000
vn -0.1297 -0.9916 0.0001
vn -0.1314 -0.9913 -0.0005
vn -0.1309 -0.9914 -0.0003
vn -0.1292 -0.9916 0.0003
vn 0.9685 -0.2491 -0.0045
vn 0.9685 -0.2488 0.0064
vn 0.9685 -0.2489 0.0099
vn 0.9684 -0.2487 -0.0184
vn 0.2684 0.9633 -0.0000
vn 0.2684 0.9633 0.0000
vn 0.2684 0.9633 -0.0001
vn 0.9681 -0.2504 -0.0003
vn 0.9683 -0.2499 0.0000
vn 0.9682 -0.2500 -0.0000
vn 0.9669 -0.2497 0.0518
vn 0.9704 -0.2414 0.0069
vn 0.9722 -0.2340 0.0001
vn 0.9696 -0.2446 0.0032
vn 0.9665 -0.2466 -0.0710
vn 0.9682 -0.2496 -0.0161
vn 0.9680 -0.2508 0.0000
vn 0.9686 -0.2488 0.0001
vn 0.9686 -0.2488 0.0000
vn 0.9686 -0.2487 0.0001
vn 0.9682 -0.2501 -0.0016
vn 0.9681 -0.2507 -0.0000
vn 0.9681 -0.2506 0.0001
vn 0.9685 -0.2487 -0.0090
vn 0.9686 -0.2484 -0.0132
vn 0.9684 -0.2467 -0.0380
vn 0.9690 -0.2470 -0.0001
vn 0.9674 -0.2506 0.0369
vn 0.9685 -0.2488 0.0112
vn 0.9690 -0.2471 -0.0000
vn 0.9623 -0.2720 0.0000
vn 0.9623 -0.2720 0.0001
vn 0.9623 -0.2720 -0.0000
vn 0.9683 -0.2496 0.0000
vn 0.9683 -0.2496 -0.0000
vn 0.9691 -0.2466 -0.0000
vn 0.9691 -0.2467 -0.0000
vn 0.9687 -0.2484 -0.0001
vn 0.9687 -0.2483 0.0000
vn 0.9687 -0.2482 0.0001
vn 0.9687 -0.2483 -0.0000
vn 0.9686 -0.2487 -0.0000
vn 0.9686 -0.2488 -0.0000
vn 0.9684 -0.2496 -0.0002
vn 0.9683 -0.2498 -0.0005
vn 0.9684 -0.2495 -0.0001
vn 0.9684 -0.2492 0.0003
vn 0.9685 -0.2490 0.0000
vn 0.9685 -0.2489 0.0001
vn 0.9685 -0.2490 -0.0000
vn 0.9685 -0.2490 -0.0001
vn 0.0049 0.0204 0.9998
vn -0.0013 -0.0045 1.0000
vn -0.0012 -0.0043 1.0000
vn 0.0045 0.0190 0.9998
vn 0.0040 0.0171 0.9998
vn 0.0010 -0.0009 1.0000
vn 0.0011 -0.0002 1.0000
vn 0.0034 0.0106 0.9999
vn -0.0103 -0.0659 0.9978
vn -0.0001 -0.0005 1.0000
vn 0.0000 0.0000 1.0000
vn 0.9691 -0.2464 0.0050
vn 0.9708 -0.2399 -0.0000
vn 0.9694 -0.2454 0.0042
vn 0.9659 -0.2498 0.0678
vn 0.9685 -0.2491 0.0010
vn 0.9685 -0.2491 -0.0001
vn 0.9722 -0.2340 -0.0000
vn 0.9722 -0.2341 -0.0000
vn -0.1447 -0.9895 -0.0017
vn -0.1449 -0.9894 0.0000
vn -0.1449 -0.9895 -0.0001
vn -0.1447 -0.9895 -0.0018
vn -0.1322 -0.9912 -0.0001
vn -0.1324 -0.9912 0.0000
vn -0.1323 -0.9912 0.0001
vn -0.1319 -0.9913 -0.0005
vn -0.1317 -0.9913 -0.0004
vn -0.1370 -0.9906 0.0021
vn -0.1352 -0.9908 0.0026
vn 0.0000 -0.0000 -1.0000
vn 0.2496 0.9683 -0.0000
vn -0.2484 -0.9687 0.0000
vn -0.0001 0.0000 -1.0000
vn -0.0020 0.0004 -1.0000
vn 0.2495 0.9684 0.0004
vn 0.0001 -0.0000 1.0000
vn -0.2495 -0.9684 -0.0007
vn -0.0000 0.0000 -1.0000
vn 0.2490 0.9685 0.0000
vn 0.0000 -0.0000 1.0000
vn -0.2490 -0.9685 -0.0000
vn 0.2701 0.9628 -0.0046
vn -1.0000 0.0088 0.0009
vn -0.2578 -0.9662 0.0046
vn 0.9762 -0.2170 0.0001
vn 0.9683 -0.2499 0.0003
vn -0.1324 -0.9911 -0.0122
vn -0.1296 -0.9915 -0.0122
vn -0.1421 -0.9898 -0.0122
vn 0.9722 -0.2341 -0.0012
vn 0.9708 -0.2399 -0.0013
vn 0.1268 0.9919 0.0122
vn -0.9822 0.1880 0.0006
vn -0.0067 0.0012 1.0000
vn -0.0051 0.0013 1.0000
vn -0.2491 -0.9685 -0.0001
vn 0.0051 -0.0013 -1.0000
vn 0.2491 0.9685 0.0010
vn -0.0020 0.0092 1.0000
vn 0.0001 -0.0000 -1.0000
vn -0.2480 -0.9688 -0.0000
vn 0.2505 0.9681 0.0000
vn 0.9734 -0.2291 -0.0002
vn 0.9734 -0.2290 -0.0004
vn 0.9734 -0.2290 -0.0003
vn 0.9734 -0.2292 -0.0001
vn -0.1421 -0.9898 -0.0001
vn -0.1421 -0.9898 -0.0002
vn -0.1421 -0.9898 0.0001
vn -0.1421 -0.9898 0.0000
vn -0.1420 -0.9899 0.0001
vn -0.1420 -0.9899 -0.0003
vn 0.2701 0.9628 0.0000
vn 0.9681 -0.2507 0.0000
vn -0.1326 -0.9912 0.0001
vn -0.1327 -0.9911 0.0009
vn -0.1327 -0.9912 0.0007
vn -0.1325 -0.9912 -0.0000
vn 0.0021 -0.0016 -1.0000
vn -0.0002 0.0001 -1.0000
vn -0.0042 0.0001 -1.0000
vn -0.0050 0.0024 -1.0000
vn 0.9915 -0.1303 0.0002
vn 0.9910 -0.1338 0.0002
vn 0.9910 -0.1337 0.0003
vn 0.9918 -0.1278 0.0010
vn 0.9917 -0.1282 0.0009
vn -0.9917 0.1283 -0.0005
vn -0.9917 0.1287 -0.0004
vn -0.9929 0.1191 -0.0015
vn -0.9930 0.1184 -0.0016
vn -0.9899 0.1417 -0.0002
vn -0.9899 0.1420 -0.0002
vn -0.9915 0.1304 -0.0005
vn -0.9915 0.1303 -0.0005
vn 0.2532 0.9674 0.0002
vn 0.2503 0.9682 0.0005
vn 0.2505 0.9681 0.0005
vn 0.2534 0.9674 0.0002
vn 0.2483 0.9687 0.0001
vn 0.2484 0.9687 0.0001
vn 0.2467 0.9691 0.0000
vn 0.2466 0.9691 0.0000
vn -0.2485 -0.9686 0.0000
vn -0.2486 -0.9686 0.0000
vn -0.2507 -0.9681 0.0000
vn -0.2497 -0.9683 -0.0000
vn -0.2496 -0.9683 -0.0000
vn -0.9850 0.1727 0.0006
vn -0.9893 0.1457 0.0017
vn -0.9893 0.1457 0.0110
vn -0.9181 0.2576 0.3012
vn -0.9893 0.1457 -0.0018
vn 0.0000 0.0000 -1.0000
vn -0.0000 -0.0000 -1.0000
vn -0.0002 0.0000 -1.0000
vn 0.0009 -0.0001 -1.0000
vn 0.0007 -0.0017 -1.0000
vn 0.0003 0.0010 -1.0000
vn 0.0002 0.0002 -1.0000
vn -0.0009 0.0015 -1.0000
vn -0.0011 0.0002 -1.0000
# 181 vertex normals

vt 8.4631 32.3092 3.5809
vt -4.5859 65.1098 3.5773
vt -6.4965 -56.4188 3.5773
vt 5.6415 -71.0415 3.5773
vt 1.0000 0.0000 0.0000
vt 1.0000 1.0000 0.0000
vt 0.0000 1.0000 0.0000
vt 0.0000 0.0000 0.0000
vt 8.6406 3.4606 38.7688
vt 8.6406 3.5773 38.7688
vt 8.5980 3.5791 37.2168
vt 8.5981 3.4606 37.2190
vt -7.3986 3.5342 5.6286
vt -7.4863 3.5342 5.6075
vt -7.4863 3.4325 5.6075
vt -1.4572 3.5342 7.1565
vt -1.3734 3.5342 7.1782
vt -6.0781 3.4325 5.9667
vt -5.7498 3.4325 6.0512
vt -2.9731 3.4325 6.7644
vt -2.6155 3.4325 6.8563
vt -1.3734 3.4325 7.1782
vt 7.2944 0.5000 -7.2985
vt 7.2944 0.8311 -7.2987
vt 6.8413 0.8311 -23.9208
vt 6.8414 0.5000 -23.9208
vt -1.9239 2.9262 7.0356
vt -1.3734 2.9262 7.1782
vt -1.3734 3.1556 7.1782
vt -3.8747 2.9262 6.5327
vt -4.7736 2.9262 6.3019
vt -6.8825 2.9262 5.7613
vt -7.4863 2.9262 5.6075
vt -2.6155 3.1556 6.8563
vt -2.9730 3.1556 6.7644
vt -5.7496 3.1556 6.0513
vt -6.0779 3.1556 5.9666
vt -7.4863 3.1556 5.6075
vt 8.6406 0.5000 38.7688
vt 8.6406 1.6837 38.7688
vt 8.3607 1.6837 28.5876
vt 8.3607 0.5000 28.5875
vt 0.9995 0.0005 0.9995
vt 0.9995 0.9995 0.9995
vt 0.0005 0.9995 0.0005
vt 0.0005 0.1402 0.0005
vt 0.0005 0.0005 0.0005
vt 0.0005 0.9995 0.0008
vt 0.0007 0.0005 0.0005
vt 0.9995 0.1402 0.9994
vt 8.6413 38.8036 3.9838
vt -4.4662 73.4492 3.9838
vt -4.5852 65.1446 3.9838
vt 8.5988 37.2516 3.9856
vt 8.4638 32.3440 3.9875
vt -6.4979 -56.5116 3.9838
vt -6.5381 -58.4932 3.9838
vt -3.9313 -61.7743 3.9823
vt -1.9774 -64.1808 3.9803
vt 5.5563 -74.3738 3.9838
vt 5.5978 -72.7508 3.9838
vt 5.6402 -71.1344 3.9838
vt 6.4336 3.5794 -72.9607
vt 6.3912 3.5794 -74.5772
vt 6.3912 3.4627 -74.5769
vt 9.2551 3.5830 30.3900
vt 9.3901 3.5812 35.2976
vt 9.3901 3.4627 35.2998
vt 5.5991 3.5773 -72.6580
vt 5.5577 3.5773 -74.2809
vt 5.5577 3.4606 -74.2804
vt 5.5992 3.4606 -72.6577
vt 0.5585 0.0000 0.0000
vt 1.0000 0.8428 0.0000
vt 0.4423 1.0000 0.0000
vt 0.0676 0.2844 0.0000
vt 0.0000 0.1555 0.0000
vt 0.0630 0.6966 0.6791
vt 0.1250 0.4529 0.6791
vt 0.1350 0.4555 0.6791
vt 0.0729 0.6992 0.6791
vt 0.1250 0.6791 0.4529
vt 0.1250 0.0963 0.4529
vt 0.1350 0.0963 0.4555
vt 0.1350 0.6791 0.4555
vt 0.8465 0.0963 0.3407
vt 0.8465 0.6791 0.3407
vt 0.8366 0.6791 0.3433
vt 0.8365 0.0963 0.3433
vt 0.1535 0.3407 0.6791
vt 0.2202 0.0773 0.6791
vt 0.2301 0.0799 0.6791
vt 0.1634 0.3433 0.6791
vt 0.7127 0.0706 0.7627
vt 0.8356 0.0870 0.7633
vt 0.8342 0.0974 0.7633
vt 0.7114 0.0809 0.7627
vt -5.4286 -42.1664 3.3614
vt -5.2628 -48.2374 3.3614
vt -5.1045 -47.8528 3.3614
vt -5.2703 -41.7819 3.3614
vt -5.2628 3.3614 -48.2374
vt -5.2626 3.0912 -48.2348
vt -5.1042 3.0912 -47.8503
vt -5.1045 3.3614 -47.8528
vt 6.2626 -48.2348 3.0912
vt 6.4289 -42.1633 3.0912
vt 6.2705 -41.7787 3.0912
vt 6.1042 -47.8503 3.0912
vt 6.4289 3.0912 -42.1633
vt 6.4286 3.3614 -42.1664
vt 6.2703 3.3614 -41.7819
vt 6.2705 3.0912 -41.7787
vt -7.0089 15.7986 3.3614
vt -6.8285 9.1854 3.3614
vt -6.6700 9.5691 3.3614
vt -6.8504 16.1823 3.3614
vt -6.8285 3.3614 9.1854
vt -6.8284 3.0912 9.1856
vt -6.6700 3.0912 9.5693
vt -6.6700 3.3614 9.5691
vt 7.8284 9.1856 3.0912
vt 8.0089 15.7986 3.0912
vt 7.8505 16.1823 3.0912
vt 7.6700 9.5693 3.0912
vt 8.0089 3.0912 15.7986
vt 8.0089 3.3614 15.7986
vt 7.8504 3.3614 16.1823
vt 7.8505 3.0912 16.1823
vt 5.4669 3.5773 73.4144
vt 5.5859 3.5773 65.1098
vt 5.5852 3.9838 65.1446
vt 5.4662 3.9838 73.4492
vt -4.5859 3.5773 65.1098
vt 8.4631 3.5809 32.3092
vt 8.4638 3.9875 32.3440
vt -4.5852 3.9838 65.1446
vt 8.5988 3.9856 37.2516
vt 8.6413 3.9838 38.8036
vt 5.5978 3.9838 -72.7508
vt 5.5563 3.9838 -74.3738
vt 5.6415 3.5773 -71.0415
vt 5.6402 3.9838 -71.1344
vt -4.6415 3.5773 -71.0415
vt 7.4965 3.5773 -56.4188
vt 7.4979 3.9838 -56.5116
vt -4.6402 3.9838 -71.1344
vt 7.5367 3.5773 -58.4003
vt 7.5381 3.9838 -58.4932
vt 6.4336 -72.9607 3.5794
vt 9.2551 30.3900 3.5830
vt 5.5991 -72.6580 3.5773
vt 6.3912 -74.5772 3.5794
vt -4.5992 -72.6577 3.4606
vt -7.5981 37.2190 3.4606
vt -8.3901 35.2998 3.4627
vt -5.3912 -74.5769 3.4627
vt -7.5981 3.4606 37.2190
vt -7.5980 3.5791 37.2168
vt -8.3901 3.5812 35.2976
vt -8.3901 3.4627 35.2998
vt 8.5980 37.2168 3.5791
vt 9.3901 35.2976 3.5812
vt -6.3736 -7.4903 0.8311
vt -5.9205 -24.1125 0.8311
vt -5.8413 -23.9208 0.8311
vt -6.2944 -7.2987 0.8311
vt 6.7621 0.8311 -23.7298
vt 6.7622 0.5000 -23.7298
vt -6.2944 0.5000 -7.2985
vt -6.2153 0.5000 -7.1054
vt -6.2152 0.8311 -7.1056
vt -6.2944 0.8311 -7.2987
vt 5.5577 0.5000 -74.2805
vt 5.8593 0.5000 -63.1057
vt 5.8594 1.6837 -63.1099
vt 5.5577 1.6837 -74.2808
vt 0.9666 0.1231 0.0000
vt 1.0000 0.1286 0.0000
vt 0.7773 1.0000 0.0000
vt 0.9381 0.1184 0.0000
vt 0.8607 0.1057 0.0000
vt 0.7965 0.0952 0.0000
vt 0.2172 0.0000 0.0000
vt 0.6585 0.9804 0.0000
vt 0.0000 0.8721 0.0000
vt 0.0000 0.1579 0.0000
vt 0.4742 0.0000 0.0000
vt 1.0000 0.8430 0.0000
vt 0.9801 0.8496 0.0000
vt 0.9632 0.8552 0.0000
vt 0.9171 0.8706 0.0000
vt 0.8790 0.8833 0.0000
vt 0.5286 1.0000 0.0000
vt 5.4669 2.0386 73.4144
vt -7.6406 1.6837 38.7688
vt -1.9741 1.8279 -64.1031
vt -3.9293 1.8299 -61.6828
vt -6.5367 2.0386 -58.4003
vt 0.0922 0.7633 0.1651
vt 0.0870 0.7633 0.1644
vt 0.0870 0.1046 0.1645
vt 0.0921 0.1047 0.1652
vt 0.0921 0.0011 0.1652
vt 0.0972 0.0011 0.1659
vt 0.0974 0.7633 0.1658
vt 0.9242 0.1051 0.2881
vt 0.9191 0.7627 0.2886
vt 0.9190 0.0005 0.2888
vt 0.9241 0.0005 0.2882
vt 0.9294 0.1051 0.2874
vt 0.9294 0.7627 0.2873
vt 0.2252 0.1006 0.0786
vt 0.2252 0.0015 0.0787
vt 0.2302 0.0015 0.0800
vt 0.2301 0.6791 0.0799
vt 0.2202 0.6791 0.0773
vt 0.2202 0.1006 0.0774
vt 0.9321 0.0908 0.6979
vt 0.9271 0.6791 0.6992
vt 0.9271 0.0015 0.6992
vt 0.9321 0.0015 0.6979
vt 0.9370 0.0908 0.6966
vt 0.9370 0.6791 0.6966
vt -6.5367 3.5773 -58.4003
vt -6.5367 0.5000 -58.4003
vt 5.4669 0.5000 73.4144
vt 7.5367 0.5000 -58.4003
vt -7.6406 0.5000 38.7688
vt -1.9728 0.4966 -64.0921
# 230 texture coords

g Box01
usemtl Material__2
s 4
f 1/1/1 2/2/2 3/3/1 4/4/3 
usemtl Material__6
s 8
f 5/5/4 6/6/5 7/7/6 8/8/7 
usemtl Material__2
s 16
f 9/5/8 10/6/9 11/7/10 12/8/11 
usemtl Material__5
s 32
f 13/5/12 14/6/13 15/7/14 16/8/14 
usemtl Material__2
s 16
f 17/9/15 18/10/16 19/11/17 20/12/18 
f 21/13/19 22/14/20 23/15/21 20/16/18 
f 17/17/15 20/16/18 23/15/21 24/18/22 
f 17/17/15 24/18/22 9/19/8 12/20/11 
f 17/17/15 12/20/11 25/21/23 26/22/24 
usemtl Material__5
f 27/23/25 28/24/26 29/25/27 30/26/27 
usemtl Material__2
f 31/27/28 32/28/29 33/29/30 34/30/31 
f 35/31/32 34/30/31 33/29/30 36/32/33 
f 37/33/34 36/32/33 33/29/30 38/34/35 
f 37/33/34 38/34/35 11/35/10 10/36/9 
f 37/33/34 10/36/9 39/37/36 40/38/37 
usemtl Material__5
f 16/39/38 15/40/39 41/41/38 42/42/40 
usemtl Material__7
f 43/43/41 44/44/42 45/45/42 46/46/41 
f 47/47/41 43/43/41 46/46/41 
usemtl Material__2
f 37/5/34 48/6/43 49/7/44 36/8/33 
usemtl Material__4
f 50/48/45 51/49/45 52/43/46 53/50/47 
f 54/44/48 50/48/45 53/50/47 
usemtl Material__2
f 34/5/31 35/6/32 55/7/49 56/8/50 
f 23/5/21 40/6/37 39/7/36 24/8/22 
usemtl Material__3
f 57/5/51 58/6/52 59/7/53 60/8/54 
usemtl Material__2
f 33/5/30 26/6/24 25/7/23 38/8/35 
usemtl Material__3
f 61/5/55 62/6/56 63/7/57 64/8/58 
usemtl Material__2
s 4
f 65/51/59 66/52/60 67/53/61 68/54/62 
f 69/55/63 68/54/62 67/53/61 
f 70/56/64 71/57/65 72/58/66 73/59/67 
f 70/56/64 73/59/67 74/60/68 75/61/69 
f 70/56/64 75/61/69 76/62/69 
s 16
f 77/63/70 78/64/71 79/65/72 80/66/73 
f 81/67/74 80/66/73 79/65/72 82/68/75 
f 83/69/76 84/70/77 22/71/20 21/72/19 
usemtl Material__5
s 8
f 85/8/78 86/5/79 87/6/80 88/7/81 
usemtl Material__2
f 89/73/82 90/74/83 91/75/84 92/76/85 
f 93/77/86 89/73/82 92/76/85 
f 94/8/87 95/5/88 93/6/86 92/7/85 
s off
f 31/78/89 34/79/89 45/80/89 44/81/89 
f 34/82/90 56/83/90 46/84/90 45/85/90 
f 55/86/91 35/87/91 54/88/91 53/89/91 
f 35/90/92 36/91/92 50/92/92 54/93/92 
f 94/94/93 92/95/93 7/96/93 6/97/93 
f 9/98/92 24/99/92 57/100/92 60/101/92 
f 24/102/94 39/103/94 58/104/94 57/105/94 
f 39/106/95 10/107/95 59/108/95 58/109/95 
f 10/110/96 9/111/96 60/112/96 59/113/96 
f 25/114/97 12/115/97 63/116/97 62/117/97 
f 12/118/98 11/119/98 64/120/98 63/121/98 
f 11/122/99 38/123/99 61/124/99 64/125/99 
f 38/126/100 25/127/100 62/128/100 61/129/100 
f 18/8/101 96/5/101 66/6/101 65/7/101 
f 96/130/102 2/131/102 67/132/102 66/133/102 
f 2/134/103 1/135/103 69/136/103 67/137/103 
f 1/135/104 19/11/104 68/138/104 69/136/104 
f 19/11/105 18/10/105 65/139/105 68/138/105 
f 89/8/106 93/5/106 72/6/106 71/7/106 
f 93/8/107 95/5/107 73/6/107 72/7/107 
f 95/8/108 84/5/108 74/6/108 73/7/108 
f 84/70/109 83/69/109 75/140/109 74/141/109 
f 83/69/110 4/142/110 76/143/110 75/140/110 
f 4/144/111 3/145/111 70/146/111 76/147/111 
f 3/145/112 89/148/112 71/149/112 70/146/112 
f 1/1/113 4/4/113 77/150/113 80/151/113 
f 4/4/114 83/152/114 78/153/114 77/150/114 
f 83/69/115 21/72/115 79/65/115 78/64/115 
f 21/154/116 20/155/116 82/156/116 79/157/116 
f 20/158/117 19/159/117 81/160/117 82/161/117 
f 19/162/118 1/1/118 80/151/118 81/163/118 
f 56/164/119 55/165/119 29/166/119 28/167/119 
usemtl Material__5
s 1
f 29/25/120 53/168/120 52/169/120 30/26/120 
f 27/170/121 47/171/121 46/172/121 28/173/121 
s 16
f 86/174/122 97/175/123 98/176/124 87/177/125 
usemtl Material__2
s 8
f 22/178/126 84/179/127 95/180/88 23/181/128 
f 40/182/129 23/181/128 95/180/88 37/183/129 
f 48/184/130 37/183/129 95/180/88 94/185/87 
f 48/184/130 94/185/87 99/186/131 
s 32
f 100/187/132 96/188/132 18/189/132 17/190/132 
f 100/187/132 17/190/132 26/191/132 33/192/132 
f 100/187/132 33/192/132 32/193/132 101/194/132 
s 16
f 32/5/29 31/6/28 102/7/29 101/8/133 
usemtl Material__5
s 8
f 103/5/134 104/6/135 105/7/136 106/8/137 
usemtl Material__2
s off
f 100/195/138 101/196/138 15/196/138 14/195/138 
f 101/40/97 102/41/97 41/41/97 15/40/97 
f 49/176/139 48/177/139 87/177/139 98/176/139 
f 48/177/140 99/197/140 88/197/140 87/177/140 
f 91/198/141 90/199/141 106/199/141 105/198/141 
usemtl Material__8
s 2
f 107/200/142 92/201/142 91/202/143 105/203/143 
usemtl Material__9
s 1
f 105/203/144 104/204/145 8/205/146 7/206/142 
f 107/200/142 105/203/144 7/206/142 
usemtl Material__6
f 88/207/147 6/208/148 5/209/149 85/210/150 
usemtl Material__7
s 2
f 88/207/151 99/211/152 94/212/153 6/208/154 
usemtl Material__6
s 1
f 98/213/155 97/214/156 51/215/157 50/216/158 
usemtl Material__7
s 2
f 50/216/159 36/217/160 49/218/161 98/213/162 
usemtl Material__6
s 1
f 41/219/163 44/220/163 43/221/164 42/222/164 
usemtl Material__7
s 2
f 41/219/165 102/223/165 31/224/166 44/220/167 
usemtl Material__2
s off
f 106/199/168 90/199/168 89/225/168 3/145/168 
f 103/226/169 106/199/169 3/145/169 14/195/169 
f 2/2/170 96/130/170 100/195/170 3/145/170 
f 3/145/171 100/195/171 14/195/171 
f 103/226/172 14/195/172 13/227/172 108/228/172 
f 108/228/173 13/227/173 109/227/173 
f 13/227/173 16/229/173 42/42/173 43/112/173 
f 13/227/174 43/112/174 47/47/174 52/169/174 
f 47/47/175 27/170/175 30/26/175 52/169/175 
f 51/49/176 97/101/176 86/174/176 5/57/176 
f 86/174/177 85/230/177 5/57/177 
f 52/169/178 51/49/178 5/57/178 8/8/178 
f 13/227/179 52/169/179 8/8/179 
f 8/8/180 104/106/180 103/226/180 
f 13/227/181 8/8/181 103/226/181 
f 109/227/69 13/227/69 103/226/69 
f 109/227/69 103/226/69 108/228/69 
# 98 polygons - 15 triangles

